<?xml version="1.0" standalone="no"?>
<!DOCTYPE svg PUBLIC "-//W3C//DTD SVG 1.1//EN" "http://www.w3.org/Graphics/SVG/1.1/DTD/svg11.dtd" >
<svg xmlns="http://www.w3.org/2000/svg">
<metadata>
Created by FontPrep 20130207 at Tue Sep  9 17:50:26 2014
 By Alexander Gunnarson
Copyright (C) 2000, 2007 Hoefler &#38; Frere-Jones. http://www.typography.com
</metadata>
<defs>
<font id="e632b7d836810620ae95245b779fcd03" horiz-adv-x='1024' >
  <font-face 
    font-family="Gotham-BlackItalic"
    font-weight="425"
    font-style="italic"
    font-stretch="normal"
    units-per-em="2048"
    panose-1="2 0 6 3 4 0 0 2 0 4"
    ascent="1638"
    descent="-410"
    x-height="1108"
    cap-height="1434"
    bbox="-297 -643 2685 2136"
    underline-thickness="40"
    underline-position="-231"
    slope="-12"
    unicode-range="U+0020-FB04"
  />
<missing-glyph 
d="M512 492l-367 -799h734zM922 1384l-353 -770l353 -770v1540zM102 -156l353 770l-353 770v-1540zM145 1536l367 -799l367 799h-734zM0 -410v2048h1024v-2048h-1024z" />
    <glyph glyph-name="f_f" unicode="ff" horiz-adv-x="1712" 
d="M1661 1509q137 0 248 -36l-72 -273q-70 25 -131 25q-113 0 -139 -105l-6 -18h249l-81 -307h-242l-215 -795h-389l215 795h-131l84 313h129l6 22q51 201 167 290t308 89zM805 1509q137 0 248 -36l-72 -273q-70 25 -131 25q-113 0 -139 -105l-6 -18h249l-82 -307h-241
l-215 -795h-389l215 795h-131l84 313h129l6 22q51 201 167 290t308 89z" />
    <glyph glyph-name="fi" unicode="fi" horiz-adv-x="1472" 
d="M821 0l297 1108h389l-297 -1108h-389zM1139 1208l78 287h405l-78 -287h-405zM805 1509q137 0 248 -36l-72 -273q-70 25 -131 25q-113 0 -139 -105l-6 -18h249l-82 -307h-241l-215 -795h-389l215 795h-131l84 313h129l6 22q51 201 167 290t308 89z" />
    <glyph glyph-name="fl" unicode="fl" horiz-adv-x="1472" 
d="M821 0l402 1495h389l-402 -1495h-389zM805 1509q137 0 248 -36l-72 -273q-70 25 -131 25q-113 0 -139 -105l-6 -18h249l-82 -307h-241l-215 -795h-389l215 795h-131l84 313h129l6 22q51 201 167 290t308 89z" />
    <glyph glyph-name="f_f_i" unicode="ffi" horiz-adv-x="2328" 
d="M1677 0l297 1108h389l-297 -1108h-389zM1995 1208l78 287h405l-78 -287h-405zM1661 1509q137 0 248 -36l-72 -273q-70 25 -131 25q-113 0 -139 -105l-6 -18h249l-81 -307h-242l-215 -795h-389l215 795h-131l84 313h129l6 22q51 201 167 290t308 89zM805 1509
q137 0 248 -36l-72 -273q-70 25 -131 25q-113 0 -139 -105l-6 -18h249l-82 -307h-241l-215 -795h-389l215 795h-131l84 313h129l6 22q51 201 167 290t308 89z" />
    <glyph glyph-name="f_f_l" unicode="ffl" horiz-adv-x="2328" 
d="M1677 0l402 1495h389l-402 -1495h-389zM1661 1509q137 0 248 -36l-72 -273q-70 25 -131 25q-113 0 -139 -105l-6 -18h249l-81 -307h-242l-215 -795h-389l215 795h-131l84 313h129l6 22q51 201 167 290t308 89zM805 1509q137 0 248 -36l-72 -273q-70 25 -131 25
q-113 0 -139 -105l-6 -18h249l-82 -307h-241l-215 -795h-389l215 795h-131l84 313h129l6 22q51 201 167 290t308 89z" />
    <glyph glyph-name=".notdef" 
d="M512 492l-367 -799h734zM922 1384l-353 -770l353 -770v1540zM102 -156l353 770l-353 770v-1540zM145 1536l367 -799l367 799h-734zM0 -410v2048h1024v-2048h-1024z" />
    <glyph glyph-name=".null" horiz-adv-x="0" 
 />
    <glyph glyph-name="nonmarkingreturn" horiz-adv-x="681" 
 />
    <glyph glyph-name="space" unicode=" " horiz-adv-x="567" 
 />
    <glyph glyph-name="exclam" unicode="!" horiz-adv-x="659" 
d="M-20 0l92 348h405l-94 -348h-403zM205 467l92 793l47 174h444l-49 -174l-331 -793h-203z" />
    <glyph glyph-name="quotedbl" unicode="&#x22;" horiz-adv-x="1105" 
d="M137 698l195 736h418l-2 -11l-406 -725h-205zM668 698l196 736h418l-2 -11l-406 -725h-206z" />
    <glyph glyph-name="numbersign" unicode="#" horiz-adv-x="1427" 
d="M575 598h277l86 246h-276zM78 0l96 276h-168l74 330h211l80 230h-193l74 329h235l95 269h297l-95 -269h258l95 269h297l-95 -269h168l-73 -329h-209l-82 -230h194l-73 -330h-236l-98 -276h-297l98 276h-260l-96 -276h-297z" />
    <glyph glyph-name="dollar" unicode="$" horiz-adv-x="1343" 
d="M879 428q0 34 -22 56t-79 44l-65 -217q166 6 166 117zM598 1019q0 -42 24 -64t85 -42l61 211q-84 0 -127 -32t-43 -73zM209 969q0 199 171 331t447 134h19l35 118h213l-41 -141q215 -49 364 -180l-219 -266q-106 88 -244 131l-71 -236q193 -63 287 -150t96 -239
q0 -209 -173 -340t-450 -131h-10l-58 -201h-213l64 219q-291 53 -465 232l238 248q160 -133 327 -168l76 250q-199 61 -296 148t-97 241z" />
    <glyph glyph-name="percent" unicode="%" horiz-adv-x="1890" 
d="M1577 400q-1 142 -127 143q-62 0 -109 -68t-47 -138q0 -142 126 -142q62 -1 110 67q47 68 47 138zM682 1096q0 142 -124 143q-62 0 -110 -68q-46 -68 -46 -138t30 -106q32 -36 94 -36q62 -1 109 67t47 138zM1409 -20q-170 0 -261 93t-91 253t118 296t288 136
q171 0 261 -93t90 -254t-117 -296q-118 -135 -288 -135zM139 0l1411 1434h289l-1413 -1434h-287zM515 676q-169 0 -261 93t-92 254t118 296t288 135t260 -93t92 -254q0 -161 -118 -296t-287 -135z" />
    <glyph glyph-name="ampersand" unicode="&#x26;" horiz-adv-x="1433" 
d="M579 272q88 0 201 68l-194 276q-184 -76 -185 -213q0 -57 45 -94t133 -37zM936 1077q0 51 -30 82t-83 31t-90 -41t-37 -105t47 -139q104 39 149 80q44 41 44 92zM27 362q1 172 109 286q108 116 302 179q-66 127 -65 238q0 168 126 282q126 113 321 113q194 0 314 -102
t119 -260q0 -266 -354 -393l125 -170q74 80 147 188l232 -162q-88 -135 -201 -254l117 -157l-260 -179l-101 142q-213 -135 -440 -135t-359 106t-132 278z" />
    <glyph glyph-name="quotesingle" unicode="'" horiz-adv-x="577" 
d="M137 698l195 736h424l-2 -11l-406 -725h-211z" />
    <glyph glyph-name="parenleft" unicode="(" horiz-adv-x="931" 
d="M469 455q0 -256 248 -523l-221 -225q-403 307 -404 737q0 356 230 622t614 394l115 -264q-285 -125 -433 -325t-149 -416z" />
    <glyph glyph-name="parenright" unicode=")" horiz-adv-x="931" 
d="M479 719q0 256 -248 522l224 225q401 -307 401 -737q0 -353 -230 -621t-612 -395l-116 264q287 125 434 325t147 417z" />
    <glyph glyph-name="asterisk" unicode="*" horiz-adv-x="892" 
d="M584 674l-209 55l119 248l-250 -119l-58 211l277 21l-230 157l158 156l156 -229l20 274l209 -55l-119 -250l250 121l58 -213l-277 -21l230 -158l-158 -153l-156 229z" />
    <glyph glyph-name="plus" unicode="+" horiz-adv-x="1310" 
d="M381 193l96 356h-360l92 344h360l95 356h356l-94 -356h360l-92 -344h-360l-97 -356h-356z" />
    <glyph glyph-name="comma" unicode="," horiz-adv-x="618" 
d="M-135 -338l-17 150q231 23 269 192h-158l109 399h403l-92 -344q-53 -201 -171 -295t-343 -102z" />
    <glyph glyph-name="hyphen" unicode="-" horiz-adv-x="854" 
d="M68 469l92 342h671l-90 -342h-673z" />
    <glyph glyph-name="period" unicode="." horiz-adv-x="618" 
d="M-41 0l107 399h405l-109 -399h-403z" />
    <glyph glyph-name="slash" unicode="/" horiz-adv-x="1095" 
d="M-297 -262l1397 1896h340l-1397 -1896h-340z" />
    <glyph glyph-name="zero" unicode="0" horiz-adv-x="1486" 
d="M711 322q154 0 255 172t101 364q0 123 -56 188t-151 64q-154 0 -254 -172t-100 -365q0 -123 56 -187t149 -64zM660 -29q-246 0 -402 164q-156 163 -156 405t97 449q96 207 280 340t432 133t404 -164q155 -164 155 -406t-96 -448t-282 -340q-186 -133 -432 -133z" />
    <glyph glyph-name="one" unicode="1" horiz-adv-x="880" 
d="M172 0l283 1059l-240 -58l-8 322l455 121h288l-387 -1444h-391z" />
    <glyph glyph-name="two" unicode="2" horiz-adv-x="1284" 
d="M911 995q0 55 -35 86q-36 31 -104 31q-143 0 -326 -178l-231 244q254 279 594 278q231 0 367 -114t137 -295q0 -139 -83 -255t-294 -245l-350 -223h571l-88 -324h-1137l84 307l729 475q166 111 166 213z" />
    <glyph glyph-name="three" unicode="3" horiz-adv-x="1251" 
d="M524 -29q-387 0 -573 277l270 223q121 -160 303 -160q104 0 172 51t68 119q0 131 -223 131h-138l-8 205l402 295h-537l86 322h1036l-77 -285l-439 -305q291 -80 291 -348q0 -233 -176 -379t-457 -146z" />
    <glyph glyph-name="four" unicode="4" horiz-adv-x="1390" 
d="M457 573h338l108 408zM641 0l74 279h-658l-43 290l975 875h420l-231 -869h182l-82 -296h-180l-76 -279h-381z" />
    <glyph glyph-name="five" unicode="5" horiz-adv-x="1253" 
d="M535 -27q-172 0 -333 74t-247 180l250 234q156 -152 342 -152q111 1 181 57t69 131t-55 117t-158 43q-104 0 -203 -59l-203 141l228 695h946l-88 -328h-627l-66 -199q84 29 183 29q198 0 320 -108t122 -289q0 -242 -183 -404t-478 -162z" />
    <glyph glyph-name="six" unicode="6" horiz-adv-x="1339" 
d="M657 274q90 0 155 69t65 150q-1 81 -49 125t-136 44t-155 -67q-66 -67 -66 -148t45 -121q51 -52 141 -52zM1268 549q0 -238 -182 -407t-438 -169q-257 -1 -402 145t-146 394q0 201 73 392t208 327q229 229 563 229q281 0 463 -155l-199 -281q-126 111 -286 111t-273 -113
q-80 -80 -121 -197q130 113 316 113t305 -104t119 -285z" />
    <glyph glyph-name="seven" unicode="7" horiz-adv-x="1257" 
d="M-8 0l864 1100h-647l90 334h1106l-82 -299l-877 -1135h-454z" />
    <glyph glyph-name="eight" unicode="8" horiz-adv-x="1359" 
d="M661 596q-91 0 -155 -47t-64 -119q-2 -72 58 -115t149 -43q90 0 155 47q66 47 66 120t-59 115t-150 42zM793 1161q-83 0 -141 -46t-59 -114q-1 -67 52 -107t134 -40t140 46q58 46 59 114t-51 108t-134 39zM1249 414q-1 -184 -173 -309t-432 -125t-428 110
q-167 110 -167 291q0 147 92 245t258 144q-155 92 -155 263t153 296q154 125 404 125t397 -112t148 -279q0 -129 -81 -220t-227 -134q211 -88 211 -295z" />
    <glyph glyph-name="nine" unicode="9" horiz-adv-x="1339" 
d="M735 766q88 0 154 69q65 69 65 149t-46 127q-46 48 -138 48q-92 -1 -157 -69t-65 -152t50 -128q49 -44 137 -44zM487 -27q-283 0 -477 166l199 279q143 -119 298 -119t271 117q78 76 117 186q-129 -110 -315 -110t-305 103q-118 103 -117 286q0 245 180 413t438 168
t405 -146t146 -407q0 -193 -74 -381t-211 -325q-229 -230 -555 -230z" />
    <glyph glyph-name="colon" unicode=":" horiz-adv-x="628" 
d="M-37 0l109 399h403l-106 -399h-406zM154 709l106 399h406l-109 -399h-403z" />
    <glyph glyph-name="semicolon" unicode=";" horiz-adv-x="628" 
d="M-131 -342l-16 149q231 23 268 193h-158l109 399h403l-92 -344q-53 -201 -171 -295t-343 -102zM154 709l106 399h406l-109 -399h-403z" />
    <glyph glyph-name="less" unicode="&#x3c;" horiz-adv-x="1310" 
d="M1034 135l-909 406l98 360l1127 406l-105 -379l-729 -223l610 -226z" />
    <glyph glyph-name="equal" unicode="=" horiz-adv-x="1310" 
d="M68 281l90 335h1032l-90 -335h-1032zM213 825l92 338h1032l-92 -338h-1032z" />
    <glyph glyph-name="greater" unicode="&#x3e;" horiz-adv-x="1310" 
d="M49 135l103 377l729 225l-611 224l92 346l910 -406l-96 -360z" />
    <glyph glyph-name="question" unicode="?" horiz-adv-x="1105" 
d="M137 0l94 348h404l-94 -348h-404zM772 1006q0 102 -135 102t-279 -111l-159 277q209 180 506 180q209 0 335 -106t127 -276q0 -170 -128 -292q-128 -121 -386 -162l-61 -151h-248l37 344l18 16q373 31 373 179z" />
    <glyph glyph-name="at" unicode="@" horiz-adv-x="1976" 
d="M953 391q77 0 145 77t67 183q0 63 -40 103q-41 40 -117 39q-76 0 -142 -76t-65 -182q-1 -66 37 -105t115 -39zM946 -315q-378 0 -614 220t-236 574q0 263 131 489t363 361t510 135q377 0 600 -202t223 -508q0 -307 -147 -472t-351 -165q-109 0 -191 46t-120 122
q-147 -164 -326 -164q-137 0 -227 95t-90 257q0 248 150 419t338 171t276 -148l43 138l301 -82l-164 -520q-31 -97 1 -151t118 -54q111 0 208 142t97 391t-201 426t-538 177q-388 0 -654 -267t-266 -636q0 -319 213 -517t555 -198q211 0 420 93l33 -76q-213 -96 -455 -96z
" />
    <glyph glyph-name="A" unicode="A" horiz-adv-x="1587" 
d="M653 565h320l-51 412zM-152 0l998 1444h389l223 -1444h-418l-34 256h-553l-172 -256h-433z" />
    <glyph glyph-name="B" unicode="B" horiz-adv-x="1462" 
d="M750 319q102 0 161 42t60 110q0 113 -176 113h-275l-71 -265h301zM864 862q104 0 161 39q56 39 56 107q0 106 -172 106h-247l-66 -252h268zM956 1434q274 0 396 -96t123 -241q0 -145 -85 -241t-237 -133q217 -78 217 -280q0 -203 -166 -323t-485 -120h-744l385 1434h596z
" />
    <glyph glyph-name="C" unicode="C" horiz-adv-x="1488" 
d="M782 -29q-301 0 -489 171t-189 456q0 215 107 411q106 197 315 325q208 128 448 128t391 -96t216 -266l-344 -185q-89 185 -277 185t-314 -142t-126 -331q0 -135 80 -215t207 -80q162 0 307 145l268 -237q-238 -269 -600 -269z" />
    <glyph glyph-name="D" unicode="D" horiz-adv-x="1558" 
d="M600 352q264 0 410 146q123 123 123 299q0 125 -72 196q-84 88 -281 88h-114l-197 -729h131zM823 1434q377 0 561 -185q156 -156 156 -420q0 -330 -235 -565q-264 -264 -752 -264h-578l385 1434h463z" />
    <glyph glyph-name="E" unicode="E" horiz-adv-x="1370" 
d="M-25 0l385 1434h1149l-92 -338h-753l-60 -217h684l-84 -314h-684l-61 -227h766l-90 -338h-1160z" />
    <glyph glyph-name="F" unicode="F" horiz-adv-x="1335" 
d="M-25 0l385 1434h1147l-94 -349h-747l-66 -243h676l-88 -330h-676l-137 -512h-400z" />
    <glyph glyph-name="G" unicode="G" horiz-adv-x="1560" 
d="M1022 1462q202 0 358 -70t236 -173l-266 -258q-148 147 -358 147t-347 -142t-137 -345q0 -145 91 -225t213 -81q122 0 208 39l57 193h-276l76 291h657l-205 -723q-247 -144 -528 -144t-480 151q-99 75 -159 199q-59 124 -60 283q0 352 260 605t660 253z" />
    <glyph glyph-name="H" unicode="H" horiz-adv-x="1550" 
d="M-25 0l385 1434h400l-146 -537h506l144 537h399l-385 -1434h-399l147 545h-506l-145 -545h-400z" />
    <glyph glyph-name="I" unicode="I" horiz-adv-x="665" 
d="M-14 0l385 1434h397l-385 -1434h-397z" />
    <glyph glyph-name="J" unicode="J" horiz-adv-x="1163" 
d="M403 -25q-151 0 -281 66t-206 186l270 236q102 -139 230 -139q88 0 149 61t113 248l215 801h395l-233 -877q-78 -291 -213 -426q-160 -156 -439 -156z" />
    <glyph glyph-name="K" unicode="K" horiz-adv-x="1478" 
d="M-25 0l385 1434h400l-156 -574l592 574h506l-676 -629l320 -805h-431l-206 553l-248 -227l-86 -326h-400z" />
    <glyph glyph-name="L" unicode="L" horiz-adv-x="1263" 
d="M-25 0l385 1434h400l-291 -1086h684l-94 -348h-1084z" />
    <glyph glyph-name="M" unicode="M" horiz-adv-x="1773" 
d="M-25 0l385 1434h402l190 -555l488 555h446l-385 -1434h-399l219 823l-514 -561h-8l-211 557l-219 -819h-394z" />
    <glyph glyph-name="N" unicode="N" horiz-adv-x="1599" 
d="M-25 0l385 1434h371l371 -797l215 797h395l-385 -1434h-348l-387 825l-221 -825h-396z" />
    <glyph glyph-name="O" unicode="O" horiz-adv-x="1665" 
d="M825 330q180 0 297 142t117 298t-83 246q-83 88 -230 88q-178 0 -296 -143t-118 -299t83 -244t230 -88zM791 -27q-303 -1 -493 183t-192 460q0 162 65 316q135 320 446 458q161 71 344 70q303 0 493 -183t191 -460q0 -161 -65 -315q-136 -322 -446 -458
q-161 -71 -343 -71z" />
    <glyph glyph-name="P" unicode="P" horiz-adv-x="1376" 
d="M717 721q145 0 227 60t82 163q0 59 -48 107t-163 49h-147l-101 -379h150zM829 1434q340 0 492 -152q113 -113 113 -293q0 -264 -196 -421t-517 -156h-236l-110 -412h-400l385 1434h469z" />
    <glyph glyph-name="Q" unicode="Q" horiz-adv-x="1665" 
d="M823 322q47 0 103 18l-158 213l285 188l123 -192q63 111 63 243t-83 222t-230 90q-180 0 -298 -143t-118 -302t83 -248t230 -89zM791 -27q-303 -1 -493 183t-192 460q0 162 65 316q135 320 446 458q161 71 344 70q303 0 493 -183t191 -460q0 -328 -236 -575l109 -148
l-283 -186l-92 141q-164 -76 -352 -76z" />
    <glyph glyph-name="R" unicode="R" horiz-adv-x="1474" 
d="M801 745q135 -1 215 53t80 146q0 55 -37 96q-49 49 -176 50h-215l-95 -345h228zM901 1434q344 0 494 -150q111 -111 111 -294t-108 -315t-323 -192l221 -483h-438l-190 434h-176l-117 -434h-400l385 1434h541z" />
    <glyph glyph-name="S" unicode="S" horiz-adv-x="1320" 
d="M618 -25q-422 0 -665 263l256 264q211 -195 442 -195q72 0 117 29t45 75q0 47 -45 77t-214 94t-261 153q-92 88 -92 236q0 213 172 350t436 137q365 0 588 -213l-246 -274q-182 158 -379 157q-70 0 -113 -28t-43 -72q0 -43 43 -70q43 -26 212 -92t264 -155
q94 -90 94 -240q1 -221 -171 -359t-440 -137z" />
    <glyph glyph-name="T" unicode="T" horiz-adv-x="1320" 
d="M309 0l293 1085h-430l94 349h1256l-92 -349h-431l-290 -1085h-400z" />
    <glyph glyph-name="U" unicode="U" horiz-adv-x="1556" 
d="M700 -27q-276 0 -428 132t-151 370q0 104 33 230l196 729h402l-203 -758q-21 -76 -21 -154t58 -134t171 -56q112 0 187 76q78 74 121 237l213 789h401l-227 -848q-76 -281 -223 -428q-185 -185 -529 -185z" />
    <glyph glyph-name="V" unicode="V" horiz-adv-x="1513" 
d="M414 -10l-191 1444h434l80 -902l563 902h449l-965 -1444h-370z" />
    <glyph glyph-name="W" unicode="W" horiz-adv-x="2256" 
d="M332 -10l-92 1444h411l27 -830l496 834h344l55 -834l471 830h432l-866 -1444h-357l-65 815l-502 -815h-354z" />
    <glyph glyph-name="X" unicode="X" horiz-adv-x="1460" 
d="M-154 0l699 750l-297 684h436l158 -404l354 404h479l-663 -713l315 -721h-438l-172 442l-389 -442h-482z" />
    <glyph glyph-name="Y" unicode="Y" horiz-adv-x="1386" 
d="M326 0l149 555l-289 879h428l142 -537l432 537h475l-801 -922l-137 -512h-399z" />
    <glyph glyph-name="Z" unicode="Z" horiz-adv-x="1394" 
d="M-74 0l76 289l913 809h-671l92 336h1218l-77 -289l-914 -809h699l-91 -336h-1245z" />
    <glyph glyph-name="bracketleft" unicode="[" horiz-adv-x="958" 
d="M-53 -266l456 1700h709l-72 -265h-360l-315 -1171h360l-70 -264h-708z" />
    <glyph glyph-name="backslash" unicode="\" horiz-adv-x="1095" 
d="M647 -262l-424 1896h314l424 -1896h-314z" />
    <glyph glyph-name="bracketright" unicode="]" horiz-adv-x="958" 
d="M-137 -266l71 264h361l313 1171h-360l71 265h709l-457 -1700h-708z" />
    <glyph glyph-name="asciicircum" unicode="^" 
d="M182 1010l408 422h262l182 -422h-252l-102 198l-209 -198h-289z" />
    <glyph glyph-name="underscore" unicode="_" horiz-adv-x="1228" 
d="M-240 -328l64 238h1237l-64 -238h-1237z" />
    <glyph glyph-name="grave" unicode="`" 
d="M684 1204l-229 260l366 117l113 -377h-250z" />
    <glyph glyph-name="a" unicode="a" horiz-adv-x="1222" 
d="M381 332q-1 -116 123 -115q62 0 128 57t87 144l10 37q-73 25 -155 25t-138 -44t-55 -104zM784 709q0 119 -190 118q-160 0 -299 -55l-55 283q194 67 438 67t368 -92t123 -260q0 -74 -22 -160l-164 -610h-383l31 119q-152 -142 -320 -142q-137 0 -223 82t-86 220
q0 180 133 285t354 106q139 0 281 -43q14 49 14 82z" />
    <glyph glyph-name="b" unicode="b" horiz-adv-x="1376" 
d="M463 496q0 -88 53 -142q54 -54 152 -55q98 0 178 93t80 224q0 88 -52 142t-150 53q-98 0 -180 -94t-81 -221zM734 -25q-232 0 -347 177l-41 -152h-389l399 1495h389l-135 -504q146 141 316 141t282 -122q112 -123 111 -332q0 -295 -177 -499q-176 -204 -408 -204z" />
    <glyph glyph-name="c" unicode="c" horiz-adv-x="1153" 
d="M575 -27q-227 0 -372 132t-146 354q0 279 195 475t471 196q184 0 304 -84t167 -219l-305 -157q-59 139 -191 139q-110 0 -188 -100t-78 -230q0 -84 48 -134t122 -50q106 0 209 102l238 -207q-187 -217 -474 -217z" />
    <glyph glyph-name="d" unicode="d" horiz-adv-x="1376" 
d="M652 297q98 0 180 94t81 221q0 88 -53 142q-54 54 -152 55q-98 0 -178 -93t-79 -224q0 -88 52 -142q51 -54 149 -53zM450 -25q-169 0 -281 123t-112 332q0 295 177 499q176 204 408 204t347 -177l144 539h389l-400 -1495h-389l33 117q-147 -142 -316 -142z" />
    <glyph glyph-name="e" unicode="e" horiz-adv-x="1230" 
d="M848 721q0 45 -39 85t-117 40t-146 -52t-104 -149h396q10 31 10 76zM623 264q115 0 235 88l180 -213q-190 -166 -443 -166t-395 133t-142 376t186 447t479 204q231 -1 351 -133t120 -326q0 -111 -43 -228h-735q14 -182 207 -182z" />
    <glyph glyph-name="f" unicode="f" horiz-adv-x="856" 
d="M805 1509q137 0 248 -36l-72 -273q-70 25 -131 25q-113 0 -139 -105l-6 -18h249l-82 -307h-241l-215 -795h-389l215 795h-131l84 313h129l6 22q51 201 167 290t308 89z" />
    <glyph glyph-name="g" unicode="g" horiz-adv-x="1368" 
d="M650 379q96 0 172 81t75 173q0 92 -50 141q-51 49 -147 49t-171 -83t-75 -176t50 -139t146 -46zM487 -332q-159 0 -317 42t-266 110l174 243q188 -115 393 -114q147 0 229 82q57 59 93 178l6 24q-152 -135 -324 -135t-290 104t-117 279q0 262 169 456q169 193 402 193
t346 -180l41 158h389l-235 -881q-72 -270 -197 -397q-164 -162 -496 -162z" />
    <glyph glyph-name="h" unicode="h" horiz-adv-x="1294" 
d="M914 1133q162 1 248 -89t85 -243q0 -76 -33 -199l-159 -602h-389l155 580q12 43 13 90q0 117 -123 116q-152 0 -207 -200l-158 -586h-389l399 1495h389l-137 -514q144 152 306 152z" />
    <glyph glyph-name="i" unicode="i" horiz-adv-x="616" 
d="M-35 0l297 1108h389l-297 -1108h-389zM283 1208l77 287h406l-78 -287h-405z" />
    <glyph glyph-name="j" unicode="j" horiz-adv-x="620" 
d="M-109 -334q-88 0 -165 15l67 258q93 -22 136 21q43 44 65 132l272 1016h389l-286 -1065q-57 -211 -170 -294t-308 -83zM285 1208l77 287h406l-78 -287h-405z" />
    <glyph glyph-name="k" unicode="k" horiz-adv-x="1226" 
d="M-43 0l401 1495h390l-197 -731l371 344h469l-510 -455l217 -653h-416l-119 393l-145 -129l-72 -264h-389z" />
    <glyph glyph-name="l" unicode="l" horiz-adv-x="616" 
d="M-35 0l402 1495h389l-402 -1495h-389z" />
    <glyph glyph-name="m" unicode="m" horiz-adv-x="1982" 
d="M1610 1133q156 -1 242 -89t85 -241q0 -78 -32 -201l-162 -602h-387l153 580q14 51 15 90q0 117 -119 116q-147 0 -203 -200l-158 -586h-389l156 580q14 49 14 90q0 117 -118 116q-147 0 -203 -200l-158 -586h-389l297 1108h389l-33 -123q143 147 310 148q219 0 288 -193
q170 193 402 193z" />
    <glyph glyph-name="n" unicode="n" horiz-adv-x="1290" 
d="M914 1133q162 1 248 -89t85 -243q0 -76 -33 -199l-159 -602h-389l155 580q12 43 13 90q0 117 -123 116q-152 0 -207 -200l-158 -586h-389l297 1108h389l-35 -127q144 152 306 152z" />
    <glyph glyph-name="o" unicode="o" horiz-adv-x="1318" 
d="M640 297q98 0 172 95q74 96 73 200q1 104 -53 160t-152 57q-98 0 -172 -95q-74 -96 -74 -200t53 -161q55 -56 153 -56zM1257 618q1 -258 -189 -452t-451 -193q-261 -1 -408 145t-147 386t188 435q190 194 452 194q262 1 408 -145q147 -146 147 -370z" />
    <glyph glyph-name="p" unicode="p" horiz-adv-x="1376" 
d="M463 496q0 -88 53 -142q54 -54 152 -55q98 0 178 93t80 224q0 88 -52 142t-150 53q-98 0 -180 -94t-81 -221zM1319 678q0 -295 -177 -499q-176 -204 -408 -204t-347 177l-129 -480h-389l385 1436h389l-33 -117q146 141 316 141t282 -122q112 -123 111 -332z" />
    <glyph glyph-name="q" unicode="q" horiz-adv-x="1376" 
d="M652 297q98 0 180 94t81 221q0 88 -53 142q-54 54 -152 55q-98 0 -178 -93t-79 -224q0 -88 52 -142q51 -54 149 -53zM57 430q0 295 177 499q176 204 408 204t347 -177l41 152h389l-385 -1436h-389l121 445q-147 -141 -316 -141t-281 122q-112 123 -112 332z" />
    <glyph glyph-name="r" unicode="r" horiz-adv-x="880" 
d="M856 717q-319 0 -420 -383l-90 -334h-389l297 1108h389l-59 -223q174 258 415 241l-110 -409h-33z" />
    <glyph glyph-name="s" unicode="s" horiz-adv-x="1046" 
d="M471 -27q-158 -1 -302 51t-245 142l193 227q78 -69 179 -109t194 -40t94 67q0 29 -33 49t-119 56q-154 61 -232 132t-79 191q0 170 130 282t353 112q141 1 269 -45t210 -111l-186 -234q-160 119 -313 119q-96 0 -97 -63q0 -27 33 -49t152 -68q118 -47 198 -117t80 -194
q0 -170 -125 -284t-354 -114z" />
    <glyph glyph-name="t" unicode="t" horiz-adv-x="880" 
d="M414 -23q-142 0 -227 69t-85 194q0 57 21 145l110 410h-131l84 313h131l76 281h389l-75 -281h258l-84 -313h-258l-95 -349q-10 -45 -10 -67q0 -70 88 -70q61 0 148 31l-86 -324q-112 -39 -254 -39z" />
    <glyph glyph-name="u" unicode="u" horiz-adv-x="1294" 
d="M386 -25q-161 -1 -247 89t-86 243q0 82 31 199l162 602h389l-156 -580q-14 -49 -14 -90q0 -117 125 -116q154 0 205 200l157 586h389l-294 -1108h-390l33 127q-143 -152 -304 -152z" />
    <glyph glyph-name="v" unicode="v" horiz-adv-x="1271" 
d="M309 -8l-143 1116h399l41 -645l383 645h414l-739 -1116h-355z" />
    <glyph glyph-name="w" unicode="w" horiz-adv-x="1759" 
d="M211 -8l-39 1116h375l-4 -557l321 561h320l22 -565l299 561h379l-641 -1116h-332l-26 575l-338 -575h-336z" />
    <glyph glyph-name="x" unicode="x" horiz-adv-x="1206" 
d="M-127 0l530 575l-229 533h404l96 -268l223 268h438l-516 -561l234 -547h-404l-100 281l-238 -281h-438z" />
    <glyph glyph-name="y" unicode="y" horiz-adv-x="1273" 
d="M189 -334q-168 0 -291 80l174 285q76 -55 142 -55t108 40l-144 1092h395l45 -666l373 666h410l-686 -1102q-119 -186 -239 -263t-287 -77z" />
    <glyph glyph-name="z" unicode="z" horiz-adv-x="1142" 
d="M-82 0l70 256l651 543h-487l81 309h996l-68 -256l-653 -543h510l-82 -309h-1018z" />
    <glyph glyph-name="braceleft" unicode="{" horiz-adv-x="1017" 
d="M289 340q0 56 -37 88q-37 31 -143 31h-54l68 258h55q160 -1 219 65t81 212t56 223q75 168 292 220q118 28 292 27l25 -229q-188 -14 -254 -86q-65 -73 -85 -237t-90 -246t-249 -103q176 -35 176 -194q0 -55 -30 -145q-29 -90 -29 -146q0 -57 39 -93t147 -63l-109 -211
q-239 27 -337 102t-99 197q0 66 33 170t33 160z" />
    <glyph glyph-name="bar" unicode="|" horiz-adv-x="729" 
d="M250 -262v1896h297v-1896h-297z" />
    <glyph glyph-name="braceright" unicode="}" horiz-adv-x="1017" 
d="M395 807q0 55 30 144t30 147t-39 93q-39 36 -148 62l109 211q240 -28 338 -102t98 -197q0 -66 -33 -170q-32 -104 -32 -160t36 -87t144 -31h53l-68 -258h-55q-160 0 -220 -66t-85 -248q-16 -111 -50 -187q-75 -167 -293 -219q-118 -28 -292 -28l-24 230q186 14 250 85
q64 70 86 236t93 248t248 102q-176 35 -176 195z" />
    <glyph glyph-name="asciitilde" unicode="~" horiz-adv-x="1034" 
d="M406 821q92 0 178 -63q72 -49 106 -49q70 0 135 116l183 -84q-60 -141 -146 -218t-178 -77t-170 56t-115 57q-69 0 -135 -117l-180 84q57 141 143 218q87 77 179 77z" />
    <glyph glyph-name="uni00A0" unicode="&#xa0;" horiz-adv-x="567" 
 />
    <glyph glyph-name="exclamdown" unicode="&#xa1;" horiz-adv-x="659" 
d="M-41 0l49 174l332 793h203l-92 -793l-48 -174h-444zM270 1085l95 349h403l-92 -349h-406z" />
    <glyph glyph-name="cent" unicode="&#xa2;" horiz-adv-x="1198" 
d="M717 1012q-117 -10 -192 -114t-75 -221q0 -118 68 -171zM666 154q-47 0 -72 4l-66 -170h-225l86 219q-133 61 -206 176t-72 270q0 277 191 467t476 191h43l53 135h226l-72 -182q176 -80 240 -260l-281 -146q-29 76 -86 115l-201 -520q111 8 211 108l222 -196
q-180 -211 -467 -211z" />
    <glyph glyph-name="sterling" unicode="&#xa3;" horiz-adv-x="1292" 
d="M969 1458q145 0 261 -59t179 -154l-268 -241q-78 104 -189 104q-76 0 -131 -55q-47 -43 -73 -142l-27 -92h428l-74 -276h-426l-61 -228h583l-84 -315h-1132l63 238l168 57l68 248h-154l74 276h154l30 117q134 522 611 522z" />
    <glyph glyph-name="yen" unicode="&#xa5;" horiz-adv-x="1470" 
d="M389 0l51 190h-377l66 246h377l26 103h-376l65 245h287l-250 650h420l149 -471l385 471h469l-596 -650h283l-65 -245h-377l-27 -103h375l-66 -246h-377l-51 -190h-391z" />
    <glyph glyph-name="section" unicode="&#xa7;" horiz-adv-x="1280" 
d="M932 672q0 34 -40 58t-167 66t-177 44q-50 0 -81 -20t-31 -55q0 -33 40 -57t165 -67t178 -43t83 20t30 54zM573 -25q-162 1 -302 53t-224 140l203 215q66 -59 158 -100t188 -41t94 61q0 29 -40 48t-188 63t-241 110q-94 64 -94 170q0 207 258 267q-68 72 -68 167
q0 142 130 238t348 96q162 0 303 -52t223 -140l-201 -215q-63 59 -157 99q-95 40 -189 40t-94 -59q0 -29 40 -49t188 -65q148 -44 240 -109q93 -65 93 -171q0 -203 -256 -266q66 -72 66 -166q1 -143 -129 -239t-349 -95z" />
    <glyph glyph-name="dieresis" unicode="&#xa8;" 
d="M293 1204l80 291h338l-80 -291h-338zM741 1204l80 291h338l-80 -291h-338z" />
    <glyph glyph-name="copyright" unicode="&#xa9;" horiz-adv-x="1699" 
d="M907 319q-178 0 -296 116t-117 288v4q0 170 117 289q118 119 300 119q215 0 332 -162l-166 -131q-72 92 -161 92t-142 -60t-53 -145v-4q0 -86 53 -145q53 -60 141 -60t168 94l166 -118q-127 -177 -342 -177zM242 713q0 -274 188 -467t466 -193t467 195t189 469v4
q0 274 -188 467q-188 192 -466 192t-467 -194t-189 -469v-4zM895 -29q-309 0 -524 218t-215 524v4q0 305 217 525t526 220t524 -218t215 -523v-4q0 -305 -217 -525t-526 -221z" />
    <glyph glyph-name="ordfeminine" unicode="&#xaa;" horiz-adv-x="808" 
d="M480 946q34 0 70 32t46 77l6 22q-108 32 -160 -10q-30 -25 -30 -57t17 -48t51 -16zM92 553l43 158h590l-43 -158h-590zM635 1214q1 68 -95 68t-171 -29l-31 154q104 39 237 39t202 -51t69 -144q0 -43 -12 -88l-91 -336h-213l19 66q-82 -78 -167 -78t-132 45t-47 132
t73 146q74 58 172 58t177 -27q10 33 10 45z" />
    <glyph glyph-name="guillemotleft" unicode="&#xab;" horiz-adv-x="1290" 
d="M283 57l-222 459l27 100l440 435l215 -197l-340 -330l168 -338zM821 51l-231 481l4 17l493 485l216 -196l-351 -340l158 -318z" />
    <glyph glyph-name="registered" unicode="&#xae;" horiz-adv-x="753" 
d="M483 1112h60q53 0 53 41t-51 41h-62v-82zM549 1292q164 0 164 -140q0 -75 -76 -108l88 -129h-133l-74 109h-35v-109h-116v377h182zM526 776q133 0 225 94q91 94 91 226v2q0 131 -91 224t-225 93t-224 -94q-91 -94 -91 -225v-2q0 -130 91 -224t224 -94zM524 737
q-148 1 -251 105t-103 252v2q0 146 104 252t253 106t252 -104t104 -252v-2q0 -147 -105 -253q-106 -106 -254 -106z" />
    <glyph glyph-name="macron" unicode="&#xaf;" 
d="M305 1214l64 236h768l-64 -236h-768z" />
    <glyph glyph-name="degree" unicode="&#xb0;" horiz-adv-x="925" 
d="M552 901q72 0 122 65q51 66 51 138t-39 114q-40 42 -112 42t-122 -65t-50 -137t38 -115q40 -42 112 -42zM940 1106q0 -156 -119 -276t-283 -121q-164 0 -258 94q-94 95 -96 251q0 156 119 277t283 121t259 -95t95 -251z" />
    <glyph glyph-name="plusminus" unicode="&#xb1;" horiz-adv-x="1310" 
d="M1038 0h-1061l78 287h1059zM1243 770l-366 2l-91 -340h-327l94 340l-371 -2l84 309l369 -2l88 338h328l-93 -338l369 2z" />
    <glyph glyph-name="acute" unicode="&#xb4;" 
d="M412 1204l315 377l354 -117l-370 -260h-299z" />
    <glyph glyph-name="paragraph" unicode="&#xb6;" horiz-adv-x="1222" 
d="M864 1434h471l-385 -1434h-397l115 434q-526 27 -527 428q-1 258 187 415t536 157z" />
    <glyph glyph-name="periodcentered" unicode="&#xb7;" horiz-adv-x="618" 
d="M72 440l106 400h406l-109 -400h-403z" />
    <glyph glyph-name="cedilla" unicode="&#xb8;" 
d="M328 -354l-285 131l256 254h266z" />
    <glyph glyph-name="ordmasculine" unicode="&#xba;" horiz-adv-x="823" 
d="M416 1108q0 -58 28 -89q28 -32 83 -32q54 0 95 51q40 50 40 108t-29 90t-83 32t-94 -51t-40 -109zM98 553l43 158h580l-41 -158h-582zM868 1152q0 -132 -104 -238t-248 -105q-144 0 -225 81q-82 81 -82 213t104 237q103 106 247 106t226 -81t82 -213z" />
    <glyph glyph-name="guillemotright" unicode="&#xbb;" horiz-adv-x="1290" 
d="M203 76l-215 194l350 340l-158 318l291 129l229 -479l-4 -17zM762 57l-215 197l340 330l-168 338l291 129l221 -459l-29 -100z" />
    <glyph glyph-name="questiondown" unicode="&#xbf;" horiz-adv-x="1105" 
d="M492 -20q-211 0 -338 106t-127 275t129 291t387 163l61 152h246l-35 -344l-20 -17q-371 -31 -371 -178q0 -102 135 -102t277 110l159 -276q-204 -180 -503 -180zM559 1085l94 349h406l-94 -349h-406z" />
    <glyph glyph-name="Agrave" unicode="&#xc0;" horiz-adv-x="1587" 
d="M1055 1884l133 -332h-266l-244 220zM653 565h320l-51 412zM-152 0l998 1444h389l223 -1444h-418l-34 256h-553l-172 -256h-433z" />
    <glyph glyph-name="Aacute" unicode="&#xc1;" horiz-adv-x="1587" 
d="M913 1552l312 332l364 -112l-362 -220h-314zM653 565h320l-51 412zM-152 0l998 1444h389l223 -1444h-418l-34 256h-553l-172 -256h-433z" />
    <glyph glyph-name="Acircumflex" unicode="&#xc2;" horiz-adv-x="1587" 
d="M627 1546l334 305h346l170 -305h-246l-131 109l-193 -109h-280zM653 565h320l-51 412zM-152 0l998 1444h389l223 -1444h-418l-34 256h-553l-172 -256h-433z" />
    <glyph glyph-name="Atilde" unicode="&#xc3;" horiz-adv-x="1587" 
d="M1267 1812q35 0 61 22t56 73l187 -56q-59 -159 -128 -229t-171 -70q-68 0 -182 40t-142 40q-72 0 -125 -96l-188 57q61 158 130 229t171 70q68 0 182 -40t149 -40zM653 565h320l-51 412zM-152 0l998 1444h389l223 -1444h-418l-34 256h-553l-172 -256h-433z" />
    <glyph glyph-name="Adieresis" unicode="&#xc4;" horiz-adv-x="1587" 
d="M678 1552l78 283h338l-78 -283h-338zM1130 1552l78 283h338l-78 -283h-338zM653 565h320l-51 412zM-152 0l998 1444h389l223 -1444h-418l-34 256h-553l-172 -256h-433z" />
    <glyph glyph-name="Aring" unicode="&#xc5;" horiz-adv-x="1587" 
d="M1048 1382q68 0 114 48t46 103q0 54 -37 86t-105 32t-113 -47q-46 -46 -46 -102t37 -88q36 -32 104 -32zM653 567h322l-53 410zM766 1483q0 121 91 206t219 85t200 -65q74 -65 74 -159q0 -125 -99 -213l207 -1337h-418l-34 258h-553l-172 -258h-433l949 1372
q-31 49 -31 111z" />
    <glyph glyph-name="AE" unicode="&#xc6;" horiz-adv-x="2211" 
d="M713 565h303l145 549h-26zM-156 0l1127 1434h1378l-90 -338h-715l-57 -217h641l-84 -314h-641l-64 -227h725l-90 -338h-1112l70 256h-457l-199 -256h-432z" />
    <glyph glyph-name="Ccedilla" unicode="&#xc7;" horiz-adv-x="1488" 
d="M104 595q0 218 107 414q106 197 315 325q208 128 448 128t391 -96t216 -266l-344 -185q-89 185 -277 185t-314 -142t-126 -331q0 -135 80 -215t207 -80q162 0 307 145l268 -237q-231 -262 -585 -269l-201 -325l-285 131l230 227q-203 61 -320 217t-117 374z" />
    <glyph glyph-name="Egrave" unicode="&#xc8;" horiz-adv-x="1370" 
d="M-25 0l385 1434h1149l-92 -338h-753l-60 -217h684l-84 -314h-684l-61 -227h766l-90 -338h-1160zM940 1864l133 -332h-266l-244 219z" />
    <glyph glyph-name="Eacute" unicode="&#xc9;" horiz-adv-x="1370" 
d="M-25 0l385 1434h1149l-92 -338h-753l-60 -217h684l-84 -314h-684l-61 -227h766l-90 -338h-1160zM799 1532l311 332l365 -113l-363 -219h-313z" />
    <glyph glyph-name="Ecircumflex" unicode="&#xca;" horiz-adv-x="1370" 
d="M516 1532l334 305h346l170 -305h-246l-131 108l-192 -108h-281zM-25 0l385 1434h1149l-92 -338h-753l-60 -217h684l-84 -314h-684l-61 -227h766l-90 -338h-1160z" />
    <glyph glyph-name="Edieresis" unicode="&#xcb;" horiz-adv-x="1370" 
d="M-25 0l385 1434h1149l-92 -338h-753l-60 -217h684l-84 -314h-684l-61 -227h766l-90 -338h-1160zM565 1532l78 283h338l-78 -283h-338zM1018 1532l78 283h338l-78 -283h-338z" />
    <glyph glyph-name="Igrave" unicode="&#xcc;" horiz-adv-x="665" 
d="M578 1864l133 -332h-267l-243 219zM-14 0l385 1434h397l-385 -1434h-397z" />
    <glyph glyph-name="Iacute" unicode="&#xcd;" horiz-adv-x="665" 
d="M436 1532l312 332l364 -113l-362 -219h-314zM-14 0l385 1434h397l-385 -1434h-397z" />
    <glyph glyph-name="Icircumflex" unicode="&#xce;" horiz-adv-x="665" 
d="M152 1532l333 305h346l170 -305h-245l-131 108l-193 -108h-280zM-14 0l385 1434h397l-385 -1434h-397z" />
    <glyph glyph-name="Idieresis" unicode="&#xcf;" horiz-adv-x="665" 
d="M201 1532l78 283h337l-77 -283h-338zM653 1532l78 283h338l-78 -283h-338zM-14 0l385 1434h397l-385 -1434h-397z" />
    <glyph glyph-name="Eth" unicode="&#xd0;" horiz-adv-x="1638" 
d="M682 340q270 0 410 139t139 322q0 131 -74 200q-88 92 -289 93h-118l-60 -215h236l-84 -314h-236l-59 -225h135zM907 1434q377 0 561 -185q156 -156 156 -420q0 -330 -235 -565q-264 -264 -752 -264h-567l151 565h-172l84 314h172l150 555h452z" />
    <glyph glyph-name="Ntilde" unicode="&#xd1;" horiz-adv-x="1599" 
d="M-25 0l385 1434h371l371 -797l215 797h395l-385 -1434h-348l-387 825l-221 -825h-396zM926 1872q68 0 182 -40t148 -40q61 0 118 94l187 -55q-59 -159 -128 -229t-155 -70t-201 40t-139 40q-72 0 -125 -96l-188 57q61 159 130 229t171 70z" />
    <glyph glyph-name="Ograve" unicode="&#xd2;" horiz-adv-x="1667" 
d="M825 330q180 0 297 142t117 298t-83 246q-83 88 -230 88q-178 0 -296 -143t-118 -299t83 -244t230 -88zM791 -27q-303 -1 -493 183t-192 460q0 162 65 316q135 320 446 458q161 71 344 70q303 0 493 -183t191 -460q0 -161 -65 -315q-136 -322 -446 -458
q-161 -71 -343 -71zM1065 1884l133 -332h-266l-244 220z" />
    <glyph glyph-name="Oacute" unicode="&#xd3;" horiz-adv-x="1667" 
d="M825 330q180 0 297 142t117 298t-83 246q-83 88 -230 88q-178 0 -296 -143t-118 -299t83 -244t230 -88zM791 -27q-303 -1 -493 183t-192 460q0 162 65 316q135 320 446 458q161 71 344 70q303 0 493 -183t191 -460q0 -161 -65 -315q-136 -322 -446 -458
q-161 -71 -343 -71zM905 1552l312 332l364 -112l-362 -220h-314z" />
    <glyph glyph-name="Ocircumflex" unicode="&#xd4;" horiz-adv-x="1667" 
d="M641 1552l334 306h346l170 -306h-246l-131 109l-192 -109h-281zM825 330q180 0 297 142t117 298t-83 246q-83 88 -230 88q-178 0 -296 -143t-118 -299t83 -244t230 -88zM791 -27q-303 -1 -493 183t-192 460q0 162 65 316q135 320 446 458q161 71 344 70q303 0 493 -183
t191 -460q0 -161 -65 -315q-136 -322 -446 -458q-161 -71 -343 -71z" />
    <glyph glyph-name="Otilde" unicode="&#xd5;" horiz-adv-x="1667" 
d="M825 330q180 0 297 142t117 298t-83 246q-83 88 -230 88q-178 0 -296 -143t-118 -299t83 -244t230 -88zM791 -27q-303 -1 -493 183t-192 460q0 162 65 316q135 320 446 458q161 71 344 70q303 0 493 -183t191 -460q0 -161 -65 -315q-136 -322 -446 -458
q-161 -71 -343 -71zM1279 1812q35 0 61 22t57 73l186 -56q-59 -159 -128 -229t-171 -70q-68 0 -182 40t-141 40q-72 0 -125 -96l-189 57q61 158 130 229t171 70q68 0 182 -40t149 -40z" />
    <glyph glyph-name="Odieresis" unicode="&#xd6;" horiz-adv-x="1667" 
d="M825 330q180 0 297 142t117 298t-83 246q-83 88 -230 88q-178 0 -296 -143t-118 -299t83 -244t230 -88zM791 -27q-303 -1 -493 183t-192 460q0 162 65 316q135 320 446 458q161 71 344 70q303 0 493 -183t191 -460q0 -161 -65 -315q-136 -322 -446 -458
q-161 -71 -343 -71zM688 1552l78 283h338l-78 -283h-338zM1141 1552l78 283h337l-77 -283h-338z" />
    <glyph glyph-name="multiply" unicode="&#xd7;" horiz-adv-x="1310" 
d="M881 184l-215 308l-387 -310l-193 258l389 301l-225 299l282 220l216 -308l387 310l192 -258l-389 -302l225 -299z" />
    <glyph glyph-name="Oslash" unicode="&#xd8;" horiz-adv-x="1665" 
d="M825 317q182 -1 304 147t122 324q0 55 -16 109l-588 -537q80 -43 178 -43zM926 1116q-182 0 -303 -147t-121 -324q0 -72 20 -127l598 543q-78 55 -194 55zM791 -27q-258 0 -435 136l-129 -119h-301l289 262q-109 160 -109 343t65 337q135 320 446 458q161 71 344 70
q262 0 448 -143l139 127h301l-305 -277q100 -152 100 -332q0 -179 -64 -333q-136 -322 -446 -458q-161 -71 -343 -71z" />
    <glyph glyph-name="Ugrave" unicode="&#xd9;" horiz-adv-x="1556" 
d="M700 -27q-276 0 -428 132t-151 370q0 104 33 230l196 729h402l-203 -758q-21 -76 -21 -154t58 -134t171 -56q112 0 187 76q78 74 121 237l213 789h401l-227 -848q-76 -281 -223 -428q-185 -185 -529 -185zM1018 1864l133 -332h-266l-244 219z" />
    <glyph glyph-name="Uacute" unicode="&#xda;" horiz-adv-x="1556" 
d="M700 -27q-276 0 -428 132t-151 370q0 104 33 230l196 729h402l-203 -758q-21 -76 -21 -154t58 -134t171 -56q112 0 187 76q78 74 121 237l213 789h401l-227 -848q-76 -281 -223 -428q-185 -185 -529 -185zM877 1532l311 332l364 -113l-362 -219h-313z" />
    <glyph glyph-name="Ucircumflex" unicode="&#xdb;" horiz-adv-x="1556" 
d="M592 1532l334 305h346l170 -305h-246l-131 108l-193 -108h-280zM700 -27q-276 0 -428 132t-151 370q0 104 33 230l196 729h402l-203 -758q-21 -76 -21 -154t58 -134t171 -56q112 0 187 76q78 74 121 237l213 789h401l-227 -848q-76 -281 -223 -428q-185 -185 -529 -185z
" />
    <glyph glyph-name="Udieresis" unicode="&#xdc;" horiz-adv-x="1556" 
d="M700 -27q-276 0 -428 132t-151 370q0 104 33 230l196 729h402l-203 -758q-21 -76 -21 -154t58 -134t171 -56q112 0 187 76q78 74 121 237l213 789h401l-227 -848q-76 -281 -223 -428q-185 -185 -529 -185zM641 1532l78 283h338l-78 -283h-338zM1094 1532l77 283h338
l-77 -283h-338z" />
    <glyph glyph-name="Yacute" unicode="&#xdd;" horiz-adv-x="1386" 
d="M766 1532l311 332l365 -113l-363 -219h-313zM326 0l149 555l-289 879h428l142 -537l432 537h475l-801 -922l-137 -512h-399z" />
    <glyph glyph-name="Thorn" unicode="&#xde;" horiz-adv-x="1396" 
d="M668 532q145 0 227 60t82 164q0 59 -48 107t-163 48h-148l-100 -379h150zM782 1229q338 0 488 -150q111 -111 110 -288q0 -264 -194 -419t-510 -155h-244l-57 -217h-400l387 1434h398l-53 -205h75z" />
    <glyph glyph-name="germandbls" unicode="&#xdf;" horiz-adv-x="1308" 
d="M838 465q0 129 -193 145l55 207q248 51 248 236q0 63 -38 100t-93 37q-147 0 -209 -225l-258 -965h-389l264 981q66 246 193 377q154 154 413 153q217 0 349 -110q131 -111 131 -276q0 -329 -322 -423q217 -80 217 -278t-185 -325q-186 -125 -540 -105l74 282
q145 0 214 54t69 135z" />
    <glyph glyph-name="agrave" unicode="&#xe0;" horiz-adv-x="1222" 
d="M649 1212l-229 261l366 116l113 -377h-250zM381 332q-1 -116 123 -115q62 0 128 57t87 144l10 37q-73 25 -155 25t-138 -44t-55 -104zM784 709q0 119 -190 118q-160 0 -299 -55l-55 283q194 67 438 67t368 -92t123 -260q0 -74 -22 -160l-164 -610h-383l31 119
q-152 -142 -320 -142q-137 0 -223 82t-86 220q0 180 133 285t354 106q139 0 281 -43q14 49 14 82z" />
    <glyph glyph-name="aacute" unicode="&#xe1;" horiz-adv-x="1222" 
d="M631 1212l315 377l354 -116l-370 -261h-299zM381 332q-1 -116 123 -115q62 0 128 57t87 144l10 37q-73 25 -155 25t-138 -44t-55 -104zM784 709q0 119 -190 118q-160 0 -299 -55l-55 283q194 67 438 67t368 -92t123 -260q0 -74 -22 -160l-164 -610h-383l31 119
q-152 -142 -320 -142q-137 0 -223 82t-86 220q0 180 133 285t354 106q139 0 281 -43q14 49 14 82z" />
    <glyph glyph-name="acircumflex" unicode="&#xe2;" horiz-adv-x="1222" 
d="M346 1212l352 336h316l172 -336h-232l-139 125l-205 -125h-264zM381 332q-1 -116 123 -115q62 0 128 57t87 144l10 37q-73 25 -155 25t-138 -44t-55 -104zM784 709q0 119 -190 118q-160 0 -299 -55l-55 283q194 67 438 67t368 -92t123 -260q0 -74 -22 -160l-164 -610
h-383l31 119q-152 -142 -320 -142q-137 0 -223 82t-86 220q0 180 133 285t354 106q139 0 281 -43q14 49 14 82z" />
    <glyph glyph-name="atilde" unicode="&#xe3;" horiz-adv-x="1222" 
d="M971 1212q-68 0 -173 40t-139 40t-59 -21q-24 -22 -55 -75l-189 57q61 158 129 229t168 70q68 0 174 -40t139 -40t58 22t57 73l187 -56q-61 -159 -128 -229t-169 -70zM381 332q-1 -116 123 -115q62 0 128 57t87 144l10 37q-73 25 -155 25t-138 -44t-55 -104zM784 709
q0 119 -190 118q-160 0 -299 -55l-55 283q194 67 438 67t368 -92t123 -260q0 -74 -22 -160l-164 -610h-383l31 119q-152 -142 -320 -142q-137 0 -223 82t-86 220q0 180 133 285t354 106q139 0 281 -43q14 49 14 82z" />
    <glyph glyph-name="adieresis" unicode="&#xe4;" horiz-adv-x="1222" 
d="M389 1212l80 291h338l-80 -291h-338zM838 1212l80 291h337l-79 -291h-338zM381 332q-1 -116 123 -115q62 0 128 57t87 144l10 37q-73 25 -155 25t-138 -44t-55 -104zM784 709q0 119 -190 118q-160 0 -299 -55l-55 283q194 67 438 67t368 -92t123 -260q0 -74 -22 -160
l-164 -610h-383l31 119q-152 -142 -320 -142q-137 0 -223 82t-86 220q0 180 133 285t354 106q139 0 281 -43q14 49 14 82z" />
    <glyph glyph-name="aring" unicode="&#xe5;" horiz-adv-x="1222" 
d="M844 1333q58 0 100 49q42 50 41 110q0 60 -32 93t-89 33t-100 -49t-43 -109t32 -94q33 -33 91 -33zM872 1735q118 0 186 -65q68 -66 66 -174q0 -108 -86 -195t-203 -87t-185 65t-68 173t86 196q86 87 204 87zM381 332q-1 -116 123 -115q62 0 128 57t87 144l10 37
q-73 25 -155 25t-138 -44t-55 -104zM784 709q0 119 -190 118q-160 0 -299 -55l-55 283q194 67 438 67t368 -92t123 -260q0 -74 -22 -160l-164 -610h-383l31 119q-152 -142 -320 -142q-137 0 -223 82t-86 220q0 180 133 285t354 106q139 0 281 -43q14 49 14 82z" />
    <glyph glyph-name="ae" unicode="&#xe6;" horiz-adv-x="1906" 
d="M580 479q-88 0 -144 -43q-56 -44 -55 -104q0 -118 133 -117q133 0 250 111q-15 54 -19 120q-77 33 -165 33zM1368 846q-78 0 -146 -52t-104 -149h395q32 99 -28 161q-39 40 -117 40zM784 709q0 119 -190 118q-160 0 -299 -55l-55 283q194 67 442 67t354 -131
q172 141 386 141t331 -132t117 -326q0 -111 -43 -228h-735q14 -182 206 -182q115 0 236 88l180 -213q-186 -166 -464 -166t-416 201q-199 -197 -478 -197q-164 0 -259 81t-95 221q0 180 133 285t354 106q139 0 281 -43q14 49 14 82z" />
    <glyph glyph-name="ccedilla" unicode="&#xe7;" horiz-adv-x="1153" 
d="M57 459q0 279 195 475t471 196q184 0 304 -84t167 -219l-305 -157q-59 139 -191 139q-110 0 -188 -100t-78 -230q0 -84 48 -134t122 -50q106 0 209 102l238 -207q-176 -207 -447 -217l-203 -327l-284 131l237 235q-137 53 -216 169t-79 278z" />
    <glyph glyph-name="egrave" unicode="&#xe8;" horiz-adv-x="1232" 
d="M670 1212l-230 261l367 116l113 -377h-250zM848 721q0 45 -39 85t-117 40t-146 -52t-104 -149h396q10 31 10 76zM623 264q115 0 235 88l180 -213q-190 -166 -443 -166t-395 133t-142 376t186 447t479 204q231 -1 351 -133t120 -326q0 -111 -43 -228h-735
q14 -182 207 -182z" />
    <glyph glyph-name="eacute" unicode="&#xe9;" horiz-adv-x="1232" 
d="M848 721q0 45 -39 85t-117 40t-146 -52t-104 -149h396q10 31 10 76zM623 264q115 0 235 88l180 -213q-190 -166 -443 -166t-395 133t-142 376t186 447t479 204q231 -1 351 -133t120 -326q0 -111 -43 -228h-735q14 -182 207 -182zM649 1212l316 377l354 -116l-371 -261
h-299z" />
    <glyph glyph-name="ecircumflex" unicode="&#xea;" horiz-adv-x="1232" 
d="M848 721q0 45 -39 85t-117 40t-146 -52t-104 -149h396q10 31 10 76zM623 264q115 0 235 88l180 -213q-190 -166 -443 -166t-395 133t-142 376t186 447t479 204q231 -1 351 -133t120 -326q0 -111 -43 -228h-735q14 -182 207 -182zM367 1212l352 336h315l172 -336h-231
l-139 125l-205 -125h-264z" />
    <glyph glyph-name="edieresis" unicode="&#xeb;" horiz-adv-x="1232" 
d="M848 721q0 45 -39 85t-117 40t-146 -52t-104 -149h396q10 31 10 76zM623 264q115 0 235 88l180 -213q-190 -166 -443 -166t-395 133t-142 376t186 447t479 204q231 -1 351 -133t120 -326q0 -111 -43 -228h-735q14 -182 207 -182zM410 1212l79 291h338l-79 -291h-338z
M858 1212l80 291h338l-80 -291h-338z" />
    <glyph glyph-name="igrave" unicode="&#xec;" horiz-adv-x="618" 
d="M350 1204l-229 260l366 117l113 -377h-250zM-35 0l297 1108h389l-297 -1108h-389z" />
    <glyph glyph-name="iacute" unicode="&#xed;" horiz-adv-x="618" 
d="M-35 0l297 1108h389l-297 -1108h-389zM332 1204l315 377l354 -117l-370 -260h-299z" />
    <glyph glyph-name="icircumflex" unicode="&#xee;" horiz-adv-x="618" 
d="M-35 0l297 1108h389l-297 -1108h-389zM49 1204l352 336h316l172 -336h-232l-139 125l-205 -125h-264z" />
    <glyph glyph-name="idieresis" unicode="&#xef;" horiz-adv-x="618" 
d="M-35 0l297 1108h389l-297 -1108h-389zM90 1204l80 291h338l-80 -291h-338zM539 1204l79 291h338l-79 -291h-338z" />
    <glyph glyph-name="eth" unicode="&#xf0;" horiz-adv-x="1331" 
d="M432 516q0 -222 198 -221q98 0 176 94q77 93 77 201q-1 218 -203 219q-100 0 -174 -92q-74 -93 -74 -201zM1278 764q0 -371 -229 -600q-189 -190 -445 -190t-399 140q-143 142 -143 378t163 424q164 187 402 188q166 0 276 -115q-43 113 -133 234l-250 -60l-51 164
l178 43q-53 57 -123 125h445l35 -41l225 55l51 -161l-166 -41q164 -256 164 -543z" />
    <glyph glyph-name="ntilde" unicode="&#xf1;" horiz-adv-x="1290" 
d="M1010 1212q-68 0 -173 40t-139 40t-59 -21q-24 -22 -55 -75l-189 57q61 158 129 229t168 70q70 0 174 -40t138 -40t59 22t57 73l187 -56q-61 -159 -128 -229t-169 -70zM914 1133q162 1 248 -89t85 -243q0 -76 -33 -199l-159 -602h-389l155 580q12 43 13 90
q0 117 -123 116q-152 0 -207 -200l-158 -586h-389l297 1108h389l-35 -127q144 152 306 152z" />
    <glyph glyph-name="ograve" unicode="&#xf2;" horiz-adv-x="1318" 
d="M698 1212l-229 261l367 116l112 -377h-250zM640 297q98 0 172 95q74 96 73 200q1 104 -53 160t-152 57q-98 0 -172 -95q-74 -96 -74 -200t53 -161q55 -56 153 -56zM1257 618q1 -258 -189 -452t-451 -193q-261 -1 -408 145t-147 386t188 435q190 194 452 194
q262 1 408 -145q147 -146 147 -370z" />
    <glyph glyph-name="oacute" unicode="&#xf3;" horiz-adv-x="1318" 
d="M640 297q98 0 172 95q74 96 73 200q1 104 -53 160t-152 57q-98 0 -172 -95q-74 -96 -74 -200t53 -161q55 -56 153 -56zM1257 618q1 -258 -189 -452t-451 -193q-261 -1 -408 145t-147 386t188 435q190 194 452 194q262 1 408 -145q147 -146 147 -370zM662 1212l315 377
l354 -116l-370 -261h-299z" />
    <glyph glyph-name="ocircumflex" unicode="&#xf4;" horiz-adv-x="1318" 
d="M640 297q98 0 172 95q74 96 73 200q1 104 -53 160t-152 57q-98 0 -172 -95q-74 -96 -74 -200t53 -161q55 -56 153 -56zM1257 618q1 -258 -189 -452t-451 -193q-261 -1 -408 145t-147 386t188 435q190 194 452 194q262 1 408 -145q147 -146 147 -370zM397 1212l353 336
h315l172 -336h-231l-140 125l-204 -125h-265z" />
    <glyph glyph-name="otilde" unicode="&#xf5;" horiz-adv-x="1318" 
d="M1022 1212q-68 0 -173 40t-139 40t-59 -21q-24 -22 -55 -75l-188 57q61 158 129 229t168 70q70 0 174 -40t138 -40q35 0 59 22t57 73l186 -56q-61 -159 -128 -229t-169 -70zM640 297q98 0 172 95q74 96 73 200q1 104 -53 160t-152 57q-98 0 -172 -95q-74 -96 -74 -200
t53 -161q55 -56 153 -56zM1257 618q1 -258 -189 -452t-451 -193q-261 -1 -408 145t-147 386t188 435q190 194 452 194q262 1 408 -145q147 -146 147 -370z" />
    <glyph glyph-name="odieresis" unicode="&#xf6;" horiz-adv-x="1318" 
d="M640 297q98 0 172 95q74 96 73 200q1 104 -53 160t-152 57q-98 0 -172 -95q-74 -96 -74 -200t53 -161q55 -56 153 -56zM1257 618q1 -258 -189 -452t-451 -193q-261 -1 -408 145t-147 386t188 435q190 194 452 194q262 1 408 -145q147 -146 147 -370zM440 1212l80 291h338
l-80 -291h-338zM889 1212l80 291h338l-80 -291h-338z" />
    <glyph glyph-name="divide" unicode="&#xf7;" horiz-adv-x="1310" 
d="M354 104l88 330h365l-88 -330h-365zM1198 565h-1077l84 312h1077zM596 1008l88 329h365l-88 -329h-365z" />
    <glyph glyph-name="oslash" unicode="&#xf8;" horiz-adv-x="1318" 
d="M623 283q119 0 199 100t79 223q0 18 -4 47l-383 -344q50 -26 109 -26zM418 502q0 -16 4 -53l387 346q-45 29 -113 28q-118 0 -198 -99t-80 -222zM604 -25q-205 0 -346 105l-100 -90h-273l250 223q-74 119 -74 283q-1 252 189 444t463 193q211 0 352 -107l102 92h273
l-254 -227q72 -119 71 -279q-1 -252 -191 -444t-462 -193z" />
    <glyph glyph-name="ugrave" unicode="&#xf9;" horiz-adv-x="1294" 
d="M686 1204l-229 260l366 117l113 -377h-250zM386 -25q-161 -1 -247 89t-86 243q0 82 31 199l162 602h389l-156 -580q-14 -49 -14 -90q0 -117 125 -116q154 0 205 200l157 586h389l-294 -1108h-390l33 127q-143 -152 -304 -152z" />
    <glyph glyph-name="uacute" unicode="&#xfa;" horiz-adv-x="1294" 
d="M386 -25q-161 -1 -247 89t-86 243q0 82 31 199l162 602h389l-156 -580q-14 -49 -14 -90q0 -117 125 -116q154 0 205 200l157 586h389l-294 -1108h-390l33 127q-143 -152 -304 -152zM668 1204l315 377l354 -117l-370 -260h-299z" />
    <glyph glyph-name="ucircumflex" unicode="&#xfb;" horiz-adv-x="1294" 
d="M386 -25q-161 -1 -247 89t-86 243q0 82 31 199l162 602h389l-156 -580q-14 -49 -14 -90q0 -117 125 -116q154 0 205 200l157 586h389l-294 -1108h-390l33 127q-143 -152 -304 -152zM383 1204l352 336h316l172 -336h-232l-139 125l-205 -125h-264z" />
    <glyph glyph-name="udieresis" unicode="&#xfc;" horiz-adv-x="1294" 
d="M386 -25q-161 -1 -247 89t-86 243q0 82 31 199l162 602h389l-156 -580q-14 -49 -14 -90q0 -117 125 -116q154 0 205 200l157 586h389l-294 -1108h-390l33 127q-143 -152 -304 -152zM426 1204l80 291h338l-80 -291h-338zM874 1204l80 291h338l-80 -291h-338z" />
    <glyph glyph-name="yacute" unicode="&#xfd;" horiz-adv-x="1273" 
d="M651 1204l316 377l354 -117l-371 -260h-299zM189 -334q-168 0 -291 80l174 285q76 -55 142 -55t108 40l-144 1092h395l45 -666l373 666h410l-686 -1102q-119 -186 -239 -263t-287 -77z" />
    <glyph glyph-name="thorn" unicode="&#xfe;" horiz-adv-x="1378" 
d="M463 496q0 -88 53 -142q54 -54 152 -55q98 0 178 93t80 224q0 90 -52 142t-150 53q-100 0 -180 -94t-81 -221zM1319 678q0 -295 -177 -499q-178 -204 -408 -204t-347 177l-129 -480h-389l489 1823h387l-135 -504q146 141 316 141t282 -122q112 -123 111 -332z" />
    <glyph glyph-name="ydieresis" unicode="&#xff;" horiz-adv-x="1273" 
d="M410 1204l79 291h338l-79 -291h-338zM858 1204l80 291h338l-80 -291h-338zM189 -334q-168 0 -291 80l174 285q76 -55 142 -55t108 40l-144 1092h395l45 -666l373 666h410l-686 -1102q-119 -186 -239 -263t-287 -77z" />
    <glyph glyph-name="Amacron" unicode="&#x100;" horiz-adv-x="1587" 
d="M670 1567l65 239h815l-65 -239h-815zM653 565h320l-51 412zM-152 0l998 1444h389l223 -1444h-418l-34 256h-553l-172 -256h-433z" />
    <glyph glyph-name="amacron" unicode="&#x101;" horiz-adv-x="1222" 
d="M399 1223l64 235h768l-64 -235h-768zM381 332q-1 -116 123 -115q62 0 128 57t87 144l10 37q-73 25 -155 25t-138 -44t-55 -104zM784 709q0 119 -190 118q-160 0 -299 -55l-55 283q194 67 438 67t368 -92t123 -260q0 -74 -22 -160l-164 -610h-383l31 119
q-152 -142 -320 -142q-137 0 -223 82t-86 220q0 180 133 285t354 106q139 0 281 -43q14 49 14 82z" />
    <glyph glyph-name="Abreve" unicode="&#x102;" horiz-adv-x="1587" 
d="M1073 1548q-172 0 -258 79t-65 231h223q12 -92 143 -92t195 92h243q-59 -152 -184 -231t-297 -79zM653 565h320l-51 412zM-152 0l998 1444h389l223 -1444h-418l-34 256h-553l-172 -256h-433z" />
    <glyph glyph-name="abreve" unicode="&#x103;" horiz-adv-x="1222" 
d="M807 1208q-170 0 -264 91t-92 249h231q4 -51 41 -85t102 -33q135 0 205 118h234q-47 -156 -167 -248t-290 -92zM381 332q-1 -116 123 -115q62 0 128 57t87 144l10 37q-73 25 -155 25t-138 -44t-55 -104zM784 709q0 119 -190 118q-160 0 -299 -55l-55 283q194 67 438 67
t368 -92t123 -260q0 -74 -22 -160l-164 -610h-383l31 119q-152 -142 -320 -142q-137 0 -223 82t-86 220q0 180 133 285t354 106q139 0 281 -43q14 49 14 82z" />
    <glyph glyph-name="Aogonek" unicode="&#x104;" horiz-adv-x="1587" 
d="M653 565h320l-51 412zM1014 -203q0 94 135 203h-109l-34 256h-553l-172 -256h-433l998 1444h389l223 -1444h-65q-74 -74 -74 -117q0 -53 129 -53l-43 -166q-78 -10 -168 -10q-91 0 -157 38t-66 105z" />
    <glyph glyph-name="aogonek" unicode="&#x105;" horiz-adv-x="1222" 
d="M381 332q-1 -116 123 -115q62 0 128 57t87 144l10 37q-73 25 -155 25t-138 -44t-55 -104zM784 709q0 119 -190 118q-160 0 -299 -55l-55 283q194 67 438 67t368 -92t123 -260q0 -74 -22 -160l-164 -610h-63q-74 -74 -74 -117q0 -53 129 -53l-43 -166q-78 -10 -168 -10
t-156 38t-67 105q0 94 135 203h-76l31 119q-153 -141 -305 -141t-238 81q-86 82 -86 220q0 180 133 285t354 106q139 0 281 -43q14 49 14 82z" />
    <glyph glyph-name="Cacute" unicode="&#x106;" horiz-adv-x="1488" 
d="M901 1552l311 332l365 -112l-363 -220h-313zM782 -29q-301 0 -489 171t-189 456q0 215 107 411q106 197 315 325q208 128 448 128t391 -96t216 -266l-344 -185q-89 185 -277 185t-314 -142t-126 -331q0 -135 80 -215t207 -80q162 0 307 145l268 -237q-238 -269 -600 -269
z" />
    <glyph glyph-name="cacute" unicode="&#x107;" horiz-adv-x="1153" 
d="M575 -27q-227 0 -372 132t-146 354q0 279 195 475t471 196q184 0 304 -84t167 -219l-305 -157q-59 139 -191 139q-110 0 -188 -100t-78 -230q0 -84 48 -134t122 -50q106 0 209 102l238 -207q-187 -217 -474 -217zM621 1212l315 377l354 -116l-370 -261h-299z" />
    <glyph glyph-name="Cdotaccent" unicode="&#x10a;" horiz-adv-x="1488" 
d="M782 -29q-301 0 -489 171t-189 456q0 215 107 411q106 197 315 325q208 128 448 128t391 -96t216 -266l-344 -185q-89 185 -277 185t-314 -142t-126 -331q0 -135 80 -215t207 -80q162 0 307 145l268 -237q-238 -269 -600 -269zM885 1552l78 283h348l-78 -283h-348z" />
    <glyph glyph-name="cdotaccent" unicode="&#x10b;" horiz-adv-x="1153" 
d="M600 1212l80 291h346l-80 -291h-346zM575 -27q-227 0 -372 132t-146 354q0 279 195 475t471 196q184 0 304 -84t167 -219l-305 -157q-59 139 -191 139q-110 0 -188 -100t-78 -230q0 -84 48 -134t122 -50q106 0 209 102l238 -207q-187 -217 -474 -217z" />
    <glyph glyph-name="Ccaron" unicode="&#x10c;" horiz-adv-x="1488" 
d="M1577 1858l-334 -306h-346l-170 306h246l131 -109l192 109h281zM782 -29q-301 0 -489 171t-189 456q0 215 107 411q106 197 315 325q208 128 448 128t391 -96t216 -266l-344 -185q-89 185 -277 185t-314 -142t-126 -331q0 -135 80 -215t207 -80q162 0 307 145l268 -237
q-238 -269 -600 -269z" />
    <glyph glyph-name="ccaron" unicode="&#x10d;" horiz-adv-x="1153" 
d="M575 -27q-227 0 -372 132t-146 354q0 279 195 475t471 196q184 0 304 -84t167 -219l-305 -157q-59 139 -191 139q-110 0 -188 -100t-78 -230q0 -84 48 -134t122 -50q106 0 209 102l238 -207q-187 -217 -474 -217zM1237 1548l-352 -336h-316l-172 336h234l137 -125
l207 125h262z" />
    <glyph glyph-name="Dcaron" unicode="&#x10e;" horiz-adv-x="1560" 
d="M600 352q264 0 410 146q123 123 123 299q0 125 -72 196q-84 88 -281 88h-114l-197 -729h131zM823 1434q377 0 561 -185q156 -156 156 -420q0 -330 -235 -565q-264 -264 -752 -264h-578l385 1434h463zM1485 1837l-334 -305h-346l-170 305h246l131 -108l192 108h281z" />
    <glyph glyph-name="dcaron" unicode="&#x10f;" horiz-adv-x="1378" 
d="M652 297q98 0 180 94t81 221q0 88 -53 142q-54 54 -152 55q-98 0 -178 -93t-79 -224q0 -88 52 -142q51 -54 149 -53zM450 -25q-169 0 -281 123t-112 332q0 295 177 499q176 204 408 204t347 -177l144 539h389l-400 -1495h-389l33 117q-147 -142 -316 -142zM1501 1055
l117 440h289l-2 -6l-250 -434h-154z" />
    <glyph glyph-name="Dcroat" unicode="&#x110;" horiz-adv-x="1638" 
d="M682 340q270 0 410 139t139 322q0 131 -74 200q-88 92 -289 93h-118l-60 -215h236l-84 -314h-236l-59 -225h135zM907 1434q377 0 561 -185q156 -156 156 -420q0 -330 -235 -565q-264 -264 -752 -264h-567l151 565h-172l84 314h172l150 555h452z" />
    <glyph glyph-name="dcroat" unicode="&#x111;" horiz-adv-x="1378" 
d="M652 297q98 0 180 94t81 221q0 88 -53 142q-54 54 -152 55q-98 0 -178 -93t-79 -224q0 -88 52 -142q51 -54 149 -53zM57 430q0 295 177 499q176 204 408 204t347 -177l70 261h-307l49 184h307l25 94h389l-27 -94h131l-49 -184h-131l-324 -1217h-389l33 117
q-147 -141 -316 -141t-281 122q-112 123 -112 332z" />
    <glyph glyph-name="Emacron" unicode="&#x112;" horiz-adv-x="1370" 
d="M-25 0l385 1434h1149l-92 -338h-753l-60 -217h684l-84 -314h-684l-61 -227h766l-90 -338h-1160zM557 1546l66 240h815l-66 -240h-815z" />
    <glyph glyph-name="emacron" unicode="&#x113;" horiz-adv-x="1232" 
d="M420 1223l63 235h768l-63 -235h-768zM848 721q0 45 -39 85t-117 40t-146 -52t-104 -149h396q10 31 10 76zM623 264q115 0 235 88l180 -213q-190 -166 -443 -166t-395 133t-142 376t186 447t479 204q231 -1 351 -133t120 -326q0 -111 -43 -228h-735q14 -182 207 -182z" />
    <glyph glyph-name="Ebreve" unicode="&#x114;" horiz-adv-x="1370" 
d="M-25 0l385 1434h1149l-92 -338h-753l-60 -217h684l-84 -314h-684l-61 -227h766l-90 -338h-1160zM961 1528q-172 0 -259 79q-86 79 -65 230h223q12 -92 144 -92t194 92h244q-59 -153 -184 -231t-297 -78z" />
    <glyph glyph-name="ebreve" unicode="&#x115;" horiz-adv-x="1232" 
d="M828 1208q-170 0 -265 91q-94 91 -92 249h231q4 -51 41 -85t103 -33q135 0 205 118h233q-46 -156 -166 -248t-290 -92zM848 721q0 45 -39 85t-117 40t-146 -52t-104 -149h396q10 31 10 76zM623 264q115 0 235 88l180 -213q-190 -166 -443 -166t-395 133t-142 376t186 447
t479 204q231 -1 351 -133t120 -326q0 -111 -43 -228h-735q14 -182 207 -182z" />
    <glyph glyph-name="Edotaccent" unicode="&#x116;" horiz-adv-x="1370" 
d="M-25 0l385 1434h1149l-92 -338h-753l-60 -217h684l-84 -314h-684l-61 -227h766l-90 -338h-1160zM784 1532l78 283h348l-77 -283h-349z" />
    <glyph glyph-name="edotaccent" unicode="&#x117;" horiz-adv-x="1232" 
d="M631 1212l80 291h346l-80 -291h-346zM848 721q0 45 -39 85t-117 40t-146 -52t-104 -149h396q10 31 10 76zM623 264q115 0 235 88l180 -213q-190 -166 -443 -166t-395 133t-142 376t186 447t479 204q231 -1 351 -133t120 -326q0 -111 -43 -228h-735q14 -182 207 -182z" />
    <glyph glyph-name="Eogonek" unicode="&#x118;" horiz-adv-x="1370" 
d="M981 -117q0 -53 129 -53l-43 -166q-78 -10 -168 -10t-157 38t-66 105q0 94 135 203h-836l385 1434h1149l-92 -338h-753l-60 -217h684l-84 -314h-684l-61 -227h766l-90 -338h-80q-74 -74 -74 -117z" />
    <glyph glyph-name="eogonek" unicode="&#x119;" horiz-adv-x="1232" 
d="M848 721q0 45 -39 85t-117 40t-146 -52t-104 -149h396q10 31 10 76zM578 -25q-240 -1 -380 133t-141 357q1 260 187 464t479 204q231 -1 351 -133t120 -326q0 -111 -43 -228h-735q14 -182 207 -182q115 0 235 88l180 -213l-120 -94q-125 -107 -125 -161t129 -54l-43 -166
q-79 -10 -169 -10t-156 38t-67 114q0 76 107 169h-16z" />
    <glyph glyph-name="Ecaron" unicode="&#x11a;" horiz-adv-x="1370" 
d="M-25 0l385 1434h1149l-92 -338h-753l-60 -217h684l-84 -314h-684l-61 -227h766l-90 -338h-1160zM1477 1837l-334 -305h-346l-170 305h245l132 -108l192 108h281z" />
    <glyph glyph-name="ecaron" unicode="&#x11b;" horiz-adv-x="1232" 
d="M848 721q0 45 -39 85t-117 40t-146 -52t-104 -149h396q10 31 10 76zM623 264q115 0 235 88l180 -213q-190 -166 -443 -166t-395 133t-142 376t186 447t479 204q231 -1 351 -133t120 -326q0 -111 -43 -228h-735q14 -182 207 -182zM1266 1548l-353 -336h-315l-172 336h233
l138 -125l207 125h262z" />
    <glyph glyph-name="Gbreve" unicode="&#x11e;" horiz-adv-x="1560" 
d="M1022 1462q202 0 358 -70t236 -173l-266 -258q-148 147 -358 147t-347 -142t-137 -345q0 -145 91 -225t213 -81q122 0 208 39l57 193h-276l76 291h657l-205 -723q-247 -144 -528 -144t-480 151q-99 75 -159 199q-59 124 -60 283q0 352 260 605t660 253zM1073 1548
q-172 0 -258 79t-65 231h223q12 -92 143 -92t195 92h243q-59 -152 -184 -231t-297 -79z" />
    <glyph glyph-name="gbreve" unicode="&#x11f;" horiz-adv-x="1368" 
d="M893 1208q-170 0 -264 91t-92 249h231q4 -51 41 -85t102 -33q135 0 205 118h234q-47 -156 -167 -248t-290 -92zM650 379q96 0 172 81t75 173q0 92 -50 141q-51 49 -147 49t-171 -83t-75 -176t50 -139t146 -46zM487 -332q-159 0 -317 42t-266 110l174 243
q188 -115 393 -114q147 0 229 82q57 59 93 178l6 24q-152 -135 -324 -135t-290 104t-117 279q0 262 169 456q169 193 402 193t346 -180l41 158h389l-235 -881q-72 -270 -197 -397q-164 -162 -496 -162z" />
    <glyph glyph-name="Gdotaccent" unicode="&#x120;" horiz-adv-x="1560" 
d="M1022 1462q202 0 358 -70t236 -173l-266 -258q-148 147 -358 147t-347 -142t-137 -345q0 -145 91 -225t213 -81q122 0 208 39l57 193h-276l76 291h657l-205 -723q-247 -144 -528 -144t-480 151q-99 75 -159 199q-59 124 -60 283q0 352 260 605t660 253zM899 1552l78 283
h348l-78 -283h-348z" />
    <glyph glyph-name="gdotaccent" unicode="&#x121;" horiz-adv-x="1368" 
d="M696 1212l80 291h346l-80 -291h-346zM650 379q96 0 172 81t75 173q0 92 -50 141q-51 49 -147 49t-171 -83t-75 -176t50 -139t146 -46zM487 -332q-159 0 -317 42t-266 110l174 243q188 -115 393 -114q147 0 229 82q57 59 93 178l6 24q-152 -135 -324 -135t-290 104
t-117 279q0 262 169 456q169 193 402 193t346 -180l41 158h389l-235 -881q-72 -270 -197 -397q-164 -162 -496 -162z" />
    <glyph glyph-name="Gcommaaccent" unicode="&#x122;" horiz-adv-x="1560" 
d="M1022 1462q202 0 358 -70t236 -173l-266 -258q-148 147 -358 147t-347 -142t-137 -345q0 -145 91 -225t213 -81q122 0 208 39l57 193h-276l76 291h657l-205 -723q-247 -144 -528 -144t-480 151q-99 75 -159 199q-59 124 -60 283q0 352 260 605t660 253zM395 -643l15 117
q170 14 192 133h-139l76 278h329l-63 -239q-39 -152 -141 -218t-269 -71z" />
    <glyph glyph-name="gcommaaccent" unicode="&#x123;" horiz-adv-x="1368" 
d="M650 379q96 0 172 81t75 173q0 92 -50 141q-51 49 -147 49t-171 -83t-75 -176t50 -139t146 -46zM487 -332q-159 0 -317 42t-266 110l174 243q188 -115 393 -114q147 0 229 82q57 59 93 178l6 24q-152 -135 -324 -135t-290 104t-117 279q0 262 169 456q169 193 402 193
t346 -180l41 158h389l-235 -881q-72 -270 -197 -397q-164 -162 -496 -162zM1169 1739l-14 -117q-170 -14 -192 -133h139l-76 -279h-330l64 240q39 152 141 218t268 71z" />
    <glyph glyph-name="Hbar" unicode="&#x126;" horiz-adv-x="1550" 
d="M614 897h506l43 166h-504zM139 1059l58 215h120l43 160h400l-43 -160h504l43 160h399l-43 -160h123l-57 -215h-123l-285 -1059h-399l147 545h-506l-145 -545h-400l285 1059h-121z" />
    <glyph glyph-name="hbar" unicode="&#x127;" horiz-adv-x="1294" 
d="M914 1133q162 1 248 -89t85 -243q0 -76 -33 -199l-159 -602h-389l155 580q12 43 13 90q0 117 -123 116q-152 0 -207 -200l-158 -586h-389l324 1217h-125l49 184h125l26 94h389l-26 -94h309l-49 -184h-309l-62 -236q144 152 306 152z" />
    <glyph glyph-name="Imacron" unicode="&#x12a;" horiz-adv-x="665" 
d="M193 1546l65 240h815l-65 -240h-815zM-14 0l385 1434h397l-385 -1434h-397z" />
    <glyph glyph-name="imacron" unicode="&#x12b;" horiz-adv-x="618" 
d="M102 1214l64 236h768l-64 -236h-768zM-35 0l297 1108h389l-297 -1108h-389z" />
    <glyph glyph-name="Ibreve" unicode="&#x12c;" horiz-adv-x="665" 
d="M596 1528q-172 0 -258 79t-66 230h224q12 -92 143 -92t195 92h243q-59 -153 -184 -231t-297 -78zM-14 0l385 1434h397l-385 -1434h-397z" />
    <glyph glyph-name="ibreve" unicode="&#x12d;" horiz-adv-x="618" 
d="M508 1200q-170 0 -264 91t-92 249h231q4 -51 41 -85t102 -34q135 0 205 119h234q-47 -156 -167 -248t-290 -92zM-35 0l297 1108h389l-297 -1108h-389z" />
    <glyph glyph-name="Iogonek" unicode="&#x12e;" horiz-adv-x="665" 
d="M158 -346q-90 0 -158 38q-66 38 -66 105q0 92 136 203h-84l385 1434h397l-385 -1434h-70q-74 -74 -73 -117q0 -53 129 -53l-43 -166q-78 -10 -168 -10z" />
    <glyph glyph-name="iogonek" unicode="&#x12f;" horiz-adv-x="618" 
d="M283 1208l77 287h406l-78 -287h-405zM215 -117q0 -53 129 -53l-43 -166q-78 -10 -168 -10t-157 38t-66 105q0 92 135 203h-80l297 1108h389l-297 -1108h-65q-74 -74 -74 -117z" />
    <glyph glyph-name="Idotaccent" unicode="&#x130;" horiz-adv-x="665" 
d="M422 1532l78 283h348l-78 -283h-348zM-14 0l385 1434h397l-385 -1434h-397z" />
    <glyph glyph-name="dotlessi" unicode="&#x131;" horiz-adv-x="616" 
d="M-35 0l297 1108h389l-297 -1108h-389z" />
    <glyph glyph-name="Kcommaaccent" unicode="&#x136;" horiz-adv-x="1480" 
d="M-25 0l385 1434h400l-156 -574l592 574h506l-676 -629l320 -805h-431l-206 553l-248 -227l-86 -326h-400zM311 -625l15 117q170 14 192 133h-139l76 279h329l-63 -240q-39 -152 -141 -218t-269 -71z" />
    <glyph glyph-name="kcommaaccent" unicode="&#x137;" horiz-adv-x="1226" 
d="M-43 0l401 1495h390l-197 -731l371 344h469l-510 -455l217 -653h-416l-119 393l-145 -129l-72 -264h-389zM145 -629l15 117q170 14 192 133h-139l76 279h329l-63 -240q-39 -152 -141 -218t-269 -71z" />
    <glyph glyph-name="Lacute" unicode="&#x139;" horiz-adv-x="1265" 
d="M-25 0l385 1434h400l-291 -1086h684l-94 -348h-1084zM457 1532l311 332l365 -113l-363 -219h-313z" />
    <glyph glyph-name="lacute" unicode="&#x13a;" horiz-adv-x="618" 
d="M-35 0l402 1495h389l-402 -1495h-389zM428 1573l311 332l365 -113l-363 -219h-313z" />
    <glyph glyph-name="Lcommaaccent" unicode="&#x13b;" horiz-adv-x="1265" 
d="M-25 0l385 1434h400l-291 -1086h684l-94 -348h-1084zM174 -629l14 117q170 14 193 133h-139l75 279h330l-63 -240q-40 -152 -142 -218t-268 -71z" />
    <glyph glyph-name="lcommaaccent" unicode="&#x13c;" horiz-adv-x="618" 
d="M-35 0l402 1495h389l-402 -1495h-389zM-166 -629l14 117q170 14 193 133h-139l75 279h330l-63 -240q-40 -152 -142 -218t-268 -71z" />
    <glyph glyph-name="Lcaron" unicode="&#x13d;" horiz-adv-x="1265" 
d="M-25 0l385 1434h400l-291 -1086h684l-94 -348h-1084zM748 993l116 441h289l-2 -7l-250 -434h-153z" />
    <glyph glyph-name="lcaron" unicode="&#x13e;" horiz-adv-x="618" 
d="M-35 0l402 1495h389l-402 -1495h-389zM735 1055l117 440h289l-2 -6l-250 -434h-154z" />
    <glyph glyph-name="Ldot" unicode="&#x13f;" horiz-adv-x="1265" 
d="M-25 0l385 1434h400l-291 -1086h684l-94 -348h-1084zM840 670l86 317h325l-86 -317h-325z" />
    <glyph glyph-name="ldot" unicode="&#x140;" horiz-adv-x="858" 
d="M-35 0l402 1495h389l-402 -1495h-389zM618 618l84 314h275l-84 -314h-275z" />
    <glyph glyph-name="Lslash" unicode="&#x141;" horiz-adv-x="1361" 
d="M74 0l135 502l-170 -45l96 354l168 45l156 578h399l-123 -459l385 106l-94 -354l-387 -106l-72 -273h684l-94 -348h-1083z" />
    <glyph glyph-name="lslash" unicode="&#x142;" horiz-adv-x="815" 
d="M809 698l-178 -47l-174 -651h-389l143 539l-178 -47l92 348l180 47l164 608h389l-133 -496l178 50z" />
    <glyph glyph-name="Nacute" unicode="&#x143;" horiz-adv-x="1599" 
d="M-25 0l385 1434h371l371 -797l215 797h395l-385 -1434h-348l-387 825l-221 -825h-396zM901 1532l311 332l365 -113l-363 -219h-313z" />
    <glyph glyph-name="nacute" unicode="&#x144;" horiz-adv-x="1290" 
d="M914 1133q162 1 248 -89t85 -243q0 -76 -33 -199l-159 -602h-389l155 580q12 43 13 90q0 117 -123 116q-152 0 -207 -200l-158 -586h-389l297 1108h389l-35 -127q144 152 306 152zM668 1212l315 377l354 -116l-370 -261h-299z" />
    <glyph glyph-name="Ncommaaccent" unicode="&#x145;" horiz-adv-x="1599" 
d="M-25 0l385 1434h371l371 -797l215 797h395l-385 -1434h-348l-387 825l-221 -825h-396zM326 -625l14 117q170 14 192 133h-139l76 279h330l-64 -240q-39 -152 -141 -218t-268 -71z" />
    <glyph glyph-name="ncommaaccent" unicode="&#x146;" horiz-adv-x="1290" 
d="M914 1133q162 1 248 -89t85 -243q0 -76 -33 -199l-159 -602h-389l155 580q12 43 13 90q0 117 -123 116q-152 0 -207 -200l-158 -586h-389l297 1108h389l-35 -127q144 152 306 152zM168 -629l14 117q170 14 193 133h-139l75 279h330l-63 -240q-40 -152 -142 -218t-268 -71
z" />
    <glyph glyph-name="Ncaron" unicode="&#x147;" horiz-adv-x="1599" 
d="M-25 0l385 1434h371l371 -797l215 797h395l-385 -1434h-348l-387 825l-221 -825h-396zM1579 1837l-334 -305h-346l-170 305h246l131 -108l192 108h281z" />
    <glyph glyph-name="ncaron" unicode="&#x148;" horiz-adv-x="1290" 
d="M914 1133q162 1 248 -89t85 -243q0 -76 -33 -199l-159 -602h-389l155 580q12 43 13 90q0 117 -123 116q-152 0 -207 -200l-158 -586h-389l297 1108h389l-35 -127q144 152 306 152zM1284 1548l-352 -336h-316l-172 336h234l137 -125l207 125h262z" />
    <glyph glyph-name="Omacron" unicode="&#x14c;" horiz-adv-x="1667" 
d="M825 330q180 0 297 142t117 298t-83 246q-83 88 -230 88q-178 0 -296 -143t-118 -299t83 -244t230 -88zM791 -27q-303 -1 -493 183t-192 460q0 162 65 316q135 320 446 458q161 71 344 70q303 0 493 -183t191 -460q0 -161 -65 -315q-136 -322 -446 -458
q-161 -71 -343 -71zM682 1567l66 239h815l-66 -239h-815z" />
    <glyph glyph-name="omacron" unicode="&#x14d;" horiz-adv-x="1318" 
d="M640 297q98 0 172 95q74 96 73 200q1 104 -53 160t-152 57q-98 0 -172 -95q-74 -96 -74 -200t53 -161q55 -56 153 -56zM1257 618q1 -258 -189 -452t-451 -193q-261 -1 -408 145t-147 386t188 435q190 194 452 194q262 1 408 -145q147 -146 147 -370zM451 1223l63 235h768
l-63 -235h-768z" />
    <glyph glyph-name="Obreve" unicode="&#x14e;" horiz-adv-x="1667" 
d="M825 330q180 0 297 142t117 298t-83 246q-83 88 -230 88q-178 0 -296 -143t-118 -299t83 -244t230 -88zM791 -27q-303 -1 -493 183t-192 460q0 162 65 316q135 320 446 458q161 71 344 70q303 0 493 -183t191 -460q0 -161 -65 -315q-136 -322 -446 -458
q-161 -71 -343 -71zM1083 1548q-172 0 -258 79t-65 231h223q11 -92 143 -92t195 92h244q-59 -152 -185 -231t-297 -79z" />
    <glyph glyph-name="obreve" unicode="&#x14f;" horiz-adv-x="1318" 
d="M858 1208q-170 0 -264 91t-92 249h231q4 -51 41 -85t103 -33q135 0 204 118h234q-47 -156 -167 -248t-290 -92zM640 297q98 0 172 95q74 96 73 200q1 104 -53 160t-152 57q-98 0 -172 -95q-74 -96 -74 -200t53 -161q55 -56 153 -56zM1257 618q1 -258 -189 -452t-451 -193
q-261 -1 -408 145t-147 386t188 435q190 194 452 194q262 1 408 -145q147 -146 147 -370z" />
    <glyph glyph-name="Ohungarumlaut" unicode="&#x150;" horiz-adv-x="1667" 
d="M1087 1552l181 197l-310 -197h-282l301 332l315 -106l99 106l331 -112l-352 -220h-283zM825 330q180 0 297 142t117 298t-83 246q-83 88 -230 88q-178 0 -296 -143t-118 -299t83 -244t230 -88zM791 -27q-303 -1 -493 183t-192 460q0 162 65 316q135 320 446 458
q161 71 344 70q303 0 493 -183t191 -460q0 -161 -65 -315q-136 -322 -446 -458q-161 -71 -343 -71z" />
    <glyph glyph-name="ohungarumlaut" unicode="&#x151;" horiz-adv-x="1318" 
d="M640 297q98 0 172 95q74 96 73 200q1 104 -53 160t-152 57q-98 0 -172 -95q-74 -96 -74 -200t53 -161q55 -56 153 -56zM1257 618q1 -258 -189 -452t-451 -193q-261 -1 -408 145t-147 386t188 435q190 194 452 194q262 1 408 -145q147 -146 147 -370zM365 1212l305 377
l313 -114l-352 -263h-266zM786 1212l297 377l318 -116l-348 -261h-267z" />
    <glyph glyph-name="OE" unicode="&#x152;" horiz-adv-x="2211" 
d="M864 352h86l197 729h-100q-264 0 -410 -145q-123 -123 -123 -299q0 -125 72 -197q83 -88 278 -88zM821 0q-377 0 -565 188q-152 152 -152 416q0 330 236 565q264 264 752 265h1257l-90 -338h-715l-57 -217h641l-84 -314h-641l-64 -227h725l-90 -338h-1153z" />
    <glyph glyph-name="oe" unicode="&#x153;" horiz-adv-x="2052" 
d="M638 299q100 0 174 92q74 91 73 197q1 106 -53 164t-152 57q-98 0 -172 -93q-74 -94 -74 -198t52 -162q52 -57 152 -57zM1667 718q0 48 -39 88q-40 40 -116 40t-146 -52q-69 -53 -104 -149h397q8 25 8 73zM1444 264q113 0 233 88l181 -213q-186 -166 -448 -166t-392 174
q-172 -172 -417 -172q-245 1 -392 147t-147 387t188 432t460 191t404 -184q178 184 420 184t360 -132q119 -132 119 -326q0 -111 -43 -228h-735q14 -182 209 -182z" />
    <glyph glyph-name="Racute" unicode="&#x154;" horiz-adv-x="1474" 
d="M784 1532l312 332l364 -113l-362 -219h-314zM801 745q135 -1 215 53t80 146q0 55 -37 96q-49 49 -176 50h-215l-95 -345h228zM901 1434q344 0 494 -150q111 -111 111 -294t-108 -315t-323 -192l221 -483h-438l-190 434h-176l-117 -434h-400l385 1434h541z" />
    <glyph glyph-name="racute" unicode="&#x155;" horiz-adv-x="880" 
d="M856 717q-319 0 -420 -383l-90 -334h-389l297 1108h389l-59 -223q174 258 415 241l-110 -409h-33zM467 1204l315 377l355 -117l-371 -260h-299z" />
    <glyph glyph-name="Rcommaaccent" unicode="&#x156;" horiz-adv-x="1474" 
d="M801 745q135 -1 215 53t80 146q0 55 -37 96q-49 49 -176 50h-215l-95 -345h228zM901 1434q344 0 494 -150q111 -111 111 -294t-108 -315t-323 -192l221 -483h-438l-190 434h-176l-117 -434h-400l385 1434h541zM260 -625l14 117q170 14 193 133h-139l75 279h330l-63 -240
q-40 -152 -142 -218t-268 -71z" />
    <glyph glyph-name="rcommaaccent" unicode="&#x157;" horiz-adv-x="880" 
d="M856 717q-319 0 -420 -383l-90 -334h-389l297 1108h389l-59 -223q174 258 415 241l-110 -409h-33zM-158 -629l15 117q170 14 192 133h-139l76 279h329l-63 -240q-40 -152 -142 -218t-268 -71z" />
    <glyph glyph-name="Rcaron" unicode="&#x158;" horiz-adv-x="1474" 
d="M801 745q135 -1 215 53t80 146q0 55 -37 96q-49 49 -176 50h-215l-95 -345h228zM901 1434q344 0 494 -150q111 -111 111 -294t-108 -315t-323 -192l221 -483h-438l-190 434h-176l-117 -434h-400l385 1434h541zM1460 1837l-334 -305h-346l-170 305h246l131 -108l193 108
h280z" />
    <glyph glyph-name="rcaron" unicode="&#x159;" horiz-adv-x="880" 
d="M856 717q-319 0 -420 -383l-90 -334h-389l297 1108h389l-59 -223q174 258 415 241l-110 -409h-33zM1083 1540l-352 -336h-315l-172 336h233l137 -125l207 125h262z" />
    <glyph glyph-name="Sacute" unicode="&#x15a;" horiz-adv-x="1320" 
d="M735 1552l312 332l364 -112l-362 -220h-314zM618 -25q-422 0 -665 263l256 264q211 -195 442 -195q72 0 117 29t45 75q0 47 -45 77t-214 94t-261 153q-92 88 -92 236q0 213 172 350t436 137q365 0 588 -213l-246 -274q-182 158 -379 157q-70 0 -113 -28t-43 -72
q0 -43 43 -70q43 -26 212 -92t264 -155q94 -90 94 -240q1 -221 -171 -359t-440 -137z" />
    <glyph glyph-name="sacute" unicode="&#x15b;" horiz-adv-x="1046" 
d="M471 -27q-158 -1 -302 51t-245 142l193 227q78 -69 179 -109t194 -40t94 67q0 29 -33 49t-119 56q-154 61 -232 132t-79 191q0 170 130 282t353 112q141 1 269 -45t210 -111l-186 -234q-160 119 -313 119q-96 0 -97 -63q0 -27 33 -49t152 -68q118 -47 198 -117t80 -194
q0 -170 -125 -284t-354 -114zM530 1212l316 377l354 -116l-371 -261h-299z" />
    <glyph glyph-name="Scedilla" unicode="&#x15e;" horiz-adv-x="1320" 
d="M651 307q72 0 117 29t45 75q0 47 -45 77t-214 94t-261 153q-92 88 -92 236q0 213 172 350t436 137q365 0 588 -213l-246 -274q-182 158 -379 157q-70 0 -113 -28t-43 -72q0 -43 43 -70q43 -26 212 -92t264 -155q94 -90 94 -240q0 -221 -171 -358t-440 -138h-4l-202 -329
l-285 131l231 229q-252 61 -405 232l256 264q211 -195 442 -195z" />
    <glyph glyph-name="scedilla" unicode="&#x15f;" horiz-adv-x="1046" 
d="M490 244q93 0 94 67q0 29 -33 49t-119 56q-154 61 -232 132t-79 191q0 170 130 282t353 112q141 1 269 -45t210 -111l-186 -234q-160 119 -313 119q-96 0 -97 -63q0 -27 33 -49t152 -68q118 -47 198 -117t80 -194q0 -166 -120 -279t-341 -119l-200 -327l-285 131l229 227
q-184 51 -309 162l193 227q78 -69 179 -109t194 -40z" />
    <glyph glyph-name="Scaron" unicode="&#x160;" horiz-adv-x="1320" 
d="M1411 1858l-334 -306h-346l-170 306h246l131 -109l192 109h281zM618 -25q-422 0 -665 263l256 264q211 -195 442 -195q72 0 117 29t45 75q0 47 -45 77t-214 94t-261 153q-92 88 -92 236q0 213 172 350t436 137q365 0 588 -213l-246 -274q-182 158 -379 157
q-70 0 -113 -28t-43 -72q0 -43 43 -70q43 -26 212 -92t264 -155q94 -90 94 -240q1 -221 -171 -359t-440 -137z" />
    <glyph glyph-name="scaron" unicode="&#x161;" horiz-adv-x="1046" 
d="M471 -27q-158 -1 -302 51t-245 142l193 227q78 -69 179 -109t194 -40t94 67q0 29 -33 49t-119 56q-154 61 -232 132t-79 191q0 170 130 282t353 112q141 1 269 -45t210 -111l-186 -234q-160 119 -313 119q-96 0 -97 -63q0 -27 33 -49t152 -68q118 -47 198 -117t80 -194
q0 -170 -125 -284t-354 -114zM1149 1548l-352 -336h-316l-172 336h234l137 -125l207 125h262z" />
    <glyph glyph-name="Tcommaaccent" unicode="&#x162;" horiz-adv-x="1320" 
d="M309 0l293 1085h-430l94 349h1256l-92 -349h-431l-290 -1085h-400zM184 -629l15 117q170 14 192 133h-139l76 279h329l-63 -240q-40 -152 -142 -218t-268 -71z" />
    <glyph glyph-name="tcommaaccent" unicode="&#x163;" horiz-adv-x="880" 
d="M414 -23q-142 0 -227 69t-85 194q0 57 21 145l110 410h-131l84 313h131l76 281h389l-75 -281h258l-84 -313h-258l-95 -349q-10 -45 -10 -67q0 -70 88 -70q61 0 148 31l-86 -324q-112 -39 -254 -39zM27 -637l14 117q170 14 192 133h-139l76 278h330l-64 -239
q-39 -152 -141 -218t-268 -71z" />
    <glyph glyph-name="Tcaron" unicode="&#x164;" horiz-adv-x="1320" 
d="M309 0l293 1085h-430l94 349h1256l-92 -349h-431l-290 -1085h-400zM1438 1837l-334 -305h-346l-170 305h246l131 -108l192 108h281z" />
    <glyph glyph-name="tcaron" unicode="&#x165;" horiz-adv-x="880" 
d="M414 -23q-142 0 -227 69t-85 194q0 57 21 145l110 410h-131l84 313h131l76 281h389l-75 -281h258l-84 -313h-258l-95 -349q-10 -45 -10 -67q0 -70 88 -70q61 0 148 31l-86 -324q-112 -39 -254 -39zM823 1202l117 440h289l-2 -6l-250 -434h-154z" />
    <glyph glyph-name="Umacron" unicode="&#x16a;" horiz-adv-x="1556" 
d="M700 -27q-276 0 -428 132t-151 370q0 104 33 230l196 729h402l-203 -758q-21 -76 -21 -154t58 -134t171 -56q112 0 187 76q78 74 121 237l213 789h401l-227 -848q-76 -281 -223 -428q-185 -185 -529 -185zM633 1546l65 240h815l-65 -240h-815z" />
    <glyph glyph-name="umacron" unicode="&#x16b;" horiz-adv-x="1294" 
d="M436 1214l64 236h768l-64 -236h-768zM386 -25q-161 -1 -247 89t-86 243q0 82 31 199l162 602h389l-156 -580q-14 -49 -14 -90q0 -117 125 -116q154 0 205 200l157 586h389l-294 -1108h-390l33 127q-143 -152 -304 -152z" />
    <glyph glyph-name="Ubreve" unicode="&#x16c;" horiz-adv-x="1556" 
d="M700 -27q-276 0 -428 132t-151 370q0 104 33 230l196 729h402l-203 -758q-21 -76 -21 -154t58 -134t171 -56q112 0 187 76q78 74 121 237l213 789h401l-227 -848q-76 -281 -223 -428q-185 -185 -529 -185zM1028 1509q-172 0 -258 79t-65 231h223q12 -93 143 -93t195 93
h243q-59 -152 -184 -231t-297 -79z" />
    <glyph glyph-name="ubreve" unicode="&#x16d;" horiz-adv-x="1294" 
d="M844 1200q-170 0 -264 91t-93 249h232q4 -51 41 -85t102 -34q135 0 205 119h233q-46 -156 -166 -248t-290 -92zM386 -25q-161 -1 -247 89t-86 243q0 82 31 199l162 602h389l-156 -580q-14 -49 -14 -90q0 -117 125 -116q154 0 205 200l157 586h389l-294 -1108h-390l33 127
q-143 -152 -304 -152z" />
    <glyph glyph-name="Uring" unicode="&#x16e;" horiz-adv-x="1556" 
d="M932 1730q0 -54 37 -86t105 -32t113 47q46 47 46 102t-37 87q-36 32 -104 32t-114 -48t-46 -102zM1065 1489q-127 1 -201 65t-74 172t92 192q91 85 218 85q126 0 200 -65t74 -172t-91 -192t-218 -85zM700 -27q-276 0 -428 132t-151 370q0 104 33 230l196 729h402
l-203 -758q-21 -76 -21 -154t58 -134t171 -56q112 0 187 76q78 74 121 237l213 789h401l-227 -848q-76 -281 -223 -428q-185 -185 -529 -185z" />
    <glyph glyph-name="uring" unicode="&#x16f;" horiz-adv-x="1294" 
d="M386 -25q-161 -1 -247 89t-86 243q0 82 31 199l162 602h389l-156 -580q-14 -49 -14 -90q0 -117 125 -116q154 0 205 200l157 586h389l-294 -1108h-390l33 127q-143 -152 -304 -152zM883 1587q-57 0 -101 -49q-44 -50 -43 -110q0 -60 32 -92q33 -32 91 -33q58 0 100 49
t42 109t-32 93t-89 33zM854 1184q-118 0 -186 64t-68 174q0 108 86 195t204 87t186 -65t67 -173q0 -108 -86 -195t-203 -87z" />
    <glyph glyph-name="Uhungarumlaut" unicode="&#x170;" horiz-adv-x="1556" 
d="M1040 1532l181 197l-310 -197h-282l301 332l315 -107l98 107l332 -113l-352 -219h-283zM700 -27q-276 0 -428 132t-151 370q0 104 33 230l196 729h402l-203 -758q-21 -76 -21 -154t58 -134t171 -56q112 0 187 76q78 74 121 237l213 789h401l-227 -848q-76 -281 -223 -428
q-185 -185 -529 -185z" />
    <glyph glyph-name="uhungarumlaut" unicode="&#x171;" horiz-adv-x="1294" 
d="M352 1204l305 377l314 -115l-353 -262h-266zM774 1204l297 377l318 -117l-349 -260h-266zM386 -25q-161 -1 -247 89t-86 243q0 82 31 199l162 602h389l-156 -580q-14 -49 -14 -90q0 -117 125 -116q154 0 205 200l157 586h389l-294 -1108h-390l33 127q-143 -152 -304 -152
z" />
    <glyph glyph-name="Uogonek" unicode="&#x172;" horiz-adv-x="1556" 
d="M387 -203q0 90 125 195q-188 41 -290 166q-101 125 -101 317q0 104 33 230l196 729h402l-203 -758q-21 -76 -21 -154t58 -134t171 -56q112 0 187 76q78 74 121 237l213 789h401l-227 -848q-76 -281 -223 -428q-172 -172 -488 -183q-49 -55 -49 -92q0 -53 129 -53
l-43 -166q-78 -10 -168 -10t-156 38t-67 105z" />
    <glyph glyph-name="uogonek" unicode="&#x173;" horiz-adv-x="1294" 
d="M386 -25q-161 -1 -247 89t-86 243q0 82 31 199l162 602h389l-156 -580q-14 -49 -14 -90q0 -117 125 -116q154 0 205 200l157 586h389l-294 -1108h-64q-74 -74 -74 -117q0 -53 129 -53l-43 -166q-78 -10 -168 -10q-91 0 -157 38t-66 105q0 94 135 203h-82l33 127
q-143 -152 -304 -152z" />
    <glyph glyph-name="Wcircumflex" unicode="&#x174;" horiz-adv-x="2256" 
d="M932 1532l334 305h346l170 -305h-246l-131 108l-193 -108h-280zM332 -10l-92 1444h411l27 -830l496 834h344l55 -834l471 830h432l-866 -1444h-357l-65 815l-502 -815h-354z" />
    <glyph glyph-name="wcircumflex" unicode="&#x175;" horiz-adv-x="1759" 
d="M211 -8l-39 1116h375l-4 -557l321 561h320l22 -565l299 561h379l-641 -1116h-332l-26 575l-338 -575h-336zM618 1204l353 336h315l172 -336h-231l-140 125l-204 -125h-265z" />
    <glyph glyph-name="Ycircumflex" unicode="&#x176;" horiz-adv-x="1386" 
d="M483 1532l334 305h346l170 -305h-246l-131 108l-192 -108h-281zM326 0l149 555l-289 879h428l142 -537l432 537h475l-801 -922l-137 -512h-399z" />
    <glyph glyph-name="ycircumflex" unicode="&#x177;" horiz-adv-x="1273" 
d="M367 1204l352 336h315l172 -336h-231l-139 125l-205 -125h-264zM189 -334q-168 0 -291 80l174 285q76 -55 142 -55t108 40l-144 1092h395l45 -666l373 666h410l-686 -1102q-119 -186 -239 -263t-287 -77z" />
    <glyph glyph-name="Ydieresis" unicode="&#x178;" horiz-adv-x="1386" 
d="M532 1532l78 283h338l-78 -283h-338zM985 1532l78 283h338l-78 -283h-338zM326 0l149 555l-289 879h428l142 -537l432 537h475l-801 -922l-137 -512h-399z" />
    <glyph glyph-name="Zacute" unicode="&#x179;" horiz-adv-x="1394" 
d="M774 1532l311 332l365 -113l-363 -219h-313zM-74 0l76 289l913 809h-671l92 336h1218l-77 -289l-914 -809h699l-91 -336h-1245z" />
    <glyph glyph-name="zacute" unicode="&#x17a;" horiz-adv-x="1142" 
d="M-82 0l70 256l651 543h-487l81 309h996l-68 -256l-653 -543h510l-82 -309h-1018zM573 1204l316 377l354 -117l-371 -260h-299z" />
    <glyph glyph-name="Zdotaccent" unicode="&#x17b;" horiz-adv-x="1394" 
d="M-74 0l76 289l913 809h-671l92 336h1218l-77 -289l-914 -809h699l-91 -336h-1245zM760 1532l78 283h348l-78 -283h-348z" />
    <glyph glyph-name="zdotaccent" unicode="&#x17c;" horiz-adv-x="1142" 
d="M553 1204l80 291h346l-80 -291h-346zM-82 0l70 256l651 543h-487l81 309h996l-68 -256l-653 -543h510l-82 -309h-1018z" />
    <glyph glyph-name="Zcaron" unicode="&#x17d;" horiz-adv-x="1394" 
d="M-74 0l76 289l913 809h-671l92 336h1218l-77 -289l-914 -809h699l-91 -336h-1245zM1452 1837l-334 -305h-346l-170 305h246l131 -108l192 108h281z" />
    <glyph glyph-name="zcaron" unicode="&#x17e;" horiz-adv-x="1142" 
d="M-82 0l70 256l651 543h-487l81 309h996l-68 -256l-653 -543h510l-82 -309h-1018zM1192 1540l-352 -336h-316l-172 336h234l137 -125l207 125h262z" />
    <glyph glyph-name="florin" unicode="&#x192;" horiz-adv-x="1144" 
d="M113 -25q-104 0 -203 21l65 285q55 -14 103 -15q104 0 168 144l119 264h-129l67 295h193l71 155q145 334 483 334q166 0 265 -33l-66 -286q-68 25 -143 24q-133 0 -191 -135l-26 -59h239l-65 -295h-305l-160 -357q-82 -186 -198 -264t-287 -78z" />
    <glyph glyph-name="Aringacute" unicode="&#x1fa;" horiz-adv-x="1587" 
d="M1048 1382q68 0 114 48t46 103q0 54 -37 86t-105 32t-113 -47q-46 -46 -46 -102t37 -88q36 -32 104 -32zM653 567h322l-53 410zM973 1825l321 311l351 -117l-375 -194h-297zM766 1483q0 121 91 206t219 85t200 -65q74 -65 74 -159q0 -125 -99 -213l207 -1337h-418
l-34 258h-553l-172 -258h-433l949 1372q-31 49 -31 111z" />
    <glyph glyph-name="aringacute" unicode="&#x1fb;" horiz-adv-x="1222" 
d="M842 1333q58 0 100 49q42 50 41 110q0 60 -32 93t-89 33t-100 -49t-43 -109t32 -94q33 -33 91 -33zM833 1214q-117 0 -185 65t-68 173t86 196q86 87 204 87t185 -65q67 -66 67 -174t-86 -195t-203 -87zM381 332q-1 -116 123 -115q62 0 128 57t87 144l10 37
q-73 25 -155 25t-138 -44t-55 -104zM784 709q0 119 -190 118q-160 0 -299 -55l-55 283q194 67 438 67t368 -92t123 -260q0 -74 -22 -160l-164 -610h-383l31 119q-152 -142 -320 -142q-137 0 -223 82t-86 220q0 180 133 285t354 106q139 0 281 -43q14 49 14 82zM780 1802
l320 328l344 -115l-369 -213h-295z" />
    <glyph glyph-name="AEacute" unicode="&#x1fc;" horiz-adv-x="2211" 
d="M713 565h303l145 549h-26zM-156 0l1127 1434h1378l-90 -338h-715l-57 -217h641l-84 -314h-641l-64 -227h725l-90 -338h-1112l70 256h-457l-199 -256h-432zM1311 1532l311 332l365 -113l-363 -219h-313z" />
    <glyph glyph-name="aeacute" unicode="&#x1fd;" horiz-adv-x="1908" 
d="M580 479q-88 0 -144 -43q-56 -44 -55 -104q0 -118 133 -117q133 0 250 111q-15 54 -19 120q-77 33 -165 33zM1368 846q-78 0 -146 -52t-104 -149h395q32 99 -28 161q-39 40 -117 40zM784 709q0 119 -190 118q-160 0 -299 -55l-55 283q194 67 442 67t354 -131
q172 141 386 141t331 -132t117 -326q0 -111 -43 -228h-735q14 -182 206 -182q115 0 236 88l180 -213q-186 -166 -464 -166t-416 201q-199 -197 -478 -197q-164 0 -259 81t-95 221q0 180 133 285t354 106q139 0 281 -43q14 49 14 82zM940 1204l315 377l355 -117l-371 -260
h-299z" />
    <glyph glyph-name="Oslashacute" unicode="&#x1fe;" horiz-adv-x="1667" 
d="M905 1552l312 332l364 -112l-362 -220h-314zM825 317q182 -1 304 147t122 324q0 55 -16 109l-588 -537q80 -43 178 -43zM926 1116q-182 0 -303 -147t-121 -324q0 -72 20 -127l598 543q-78 55 -194 55zM791 -27q-258 0 -435 136l-129 -119h-301l289 262q-109 160 -109 343
t65 337q135 320 446 458q161 71 344 70q262 0 448 -143l139 127h301l-305 -277q100 -152 100 -332q0 -179 -64 -333q-136 -322 -446 -458q-161 -71 -343 -71z" />
    <glyph glyph-name="oslashacute" unicode="&#x1ff;" horiz-adv-x="1318" 
d="M662 1212l315 377l354 -116l-370 -261h-299zM623 283q119 0 199 100t79 223q0 18 -4 47l-383 -344q50 -26 109 -26zM418 502q0 -16 4 -53l387 346q-45 29 -113 28q-118 0 -198 -99t-80 -222zM604 -25q-205 0 -346 105l-100 -90h-273l250 223q-74 119 -74 283
q-1 252 189 444t463 193q211 0 352 -107l102 92h273l-254 -227q72 -119 71 -279q-1 -252 -191 -444t-462 -193z" />
    <glyph glyph-name="Scommaaccent" unicode="&#x218;" horiz-adv-x="1320" 
d="M618 -25q-422 0 -665 263l256 264q211 -195 442 -195q72 0 117 29t45 75q0 47 -45 77t-214 94t-261 153q-92 88 -92 236q0 213 172 350t436 137q365 0 588 -213l-246 -274q-182 158 -379 157q-70 0 -113 -28t-43 -72q0 -43 43 -70q43 -26 212 -92t264 -155
q94 -90 94 -240q1 -221 -171 -359t-440 -137zM186 -643l15 117q170 14 192 133h-139l76 278h329l-63 -239q-40 -152 -142 -218t-268 -71z" />
    <glyph glyph-name="scommaaccent" unicode="&#x219;" horiz-adv-x="1046" 
d="M471 -27q-158 -1 -302 51t-245 142l193 227q78 -69 179 -109t194 -40t94 67q0 29 -33 49t-119 56q-154 61 -232 132t-79 191q0 170 130 282t353 112q141 1 269 -45t210 -111l-186 -234q-160 119 -313 119q-96 0 -97 -63q0 -27 33 -49t152 -68q118 -47 198 -117t80 -194
q0 -170 -125 -284t-354 -114zM47 -637l14 117q170 14 193 133h-139l75 278h330l-63 -239q-39 -152 -141 -218t-269 -71z" />
    <glyph glyph-name="schwa" unicode="&#x259;" horiz-adv-x="1232" 
d="M383 387q0 -45 39 -85t117 -40t146 52t103 149h-395q-10 -31 -10 -76zM608 844q-115 0 -235 -88l-180 213q190 166 443 166q253 1 395 -133t143 -359q0 -260 -186 -464t-480 -204q-231 1 -351 133t-120 326q0 111 43 228h735q-14 182 -207 182z" />
    <glyph glyph-name="circumflex" unicode="&#x2c6;" 
d="M266 1204l352 336h316l172 -336h-232l-139 125l-205 -125h-264z" />
    <glyph glyph-name="caron" unicode="&#x2c7;" 
d="M1192 1540l-352 -336h-316l-172 336h234l137 -125l207 125h262z" />
    <glyph glyph-name="breve" unicode="&#x2d8;" 
d="M725 1200q-170 0 -264 91t-92 249h231q4 -51 41 -85t102 -34q135 0 205 119h234q-47 -156 -167 -248t-290 -92z" />
    <glyph glyph-name="dotaccent" unicode="&#x2d9;" 
d="M514 1204l80 291h346l-80 -291h-346z" />
    <glyph glyph-name="ring" unicode="&#x2da;" 
d="M623 1452q-1 -60 31 -94q32 -33 90 -33t101 49q42 50 42 110t-32 93t-89 33t-100 -49t-43 -109zM737 1206q-117 0 -185 65t-69 173q0 108 86 196q86 86 204 86q117 0 185 -64t68 -174q0 -108 -86 -195t-203 -87z" />
    <glyph glyph-name="ogonek" unicode="&#x2db;" 
d="M143 -203q0 98 162 223h240q-96 -94 -96 -137q0 -53 129 -53l-43 -166q-79 -10 -169 -10t-156 38t-67 105z" />
    <glyph glyph-name="tilde" unicode="&#x2dc;" 
d="M881 1464q34 0 59 22t57 73l187 -56q-61 -159 -128 -229t-169 -70q-68 0 -173 40t-139 40t-59 -21q-24 -22 -55 -75l-189 57q61 158 129 229t168 70q68 0 173 -40t139 -40z" />
    <glyph glyph-name="hungarumlaut" unicode="&#x2dd;" 
d="M227 1204l305 377l314 -115l-352 -262h-267zM649 1204l297 377l318 -117l-349 -260h-266z" />
    <glyph glyph-name="commaaccent" unicode="&#x326;" 
d="M37 -629l14 117q170 14 193 133h-140l76 279h330l-64 -240q-39 -152 -141 -218t-268 -71z" />
    <glyph glyph-name="Wgrave" unicode="&#x1e80;" horiz-adv-x="2256" 
d="M332 -10l-92 1444h411l27 -830l496 834h344l55 -834l471 830h432l-866 -1444h-357l-65 815l-502 -815h-354zM1358 1864l133 -332h-266l-244 219z" />
    <glyph glyph-name="wgrave" unicode="&#x1e81;" horiz-adv-x="1759" 
d="M920 1204l-230 260l367 117l112 -377h-249zM211 -8l-39 1116h375l-4 -557l321 561h320l22 -565l299 561h379l-641 -1116h-332l-26 575l-338 -575h-336z" />
    <glyph glyph-name="Wacute" unicode="&#x1e82;" horiz-adv-x="2256" 
d="M332 -10l-92 1444h411l27 -830l496 834h344l55 -834l471 830h432l-866 -1444h-357l-65 815l-502 -815h-354zM1217 1532l311 332l364 -113l-362 -219h-313z" />
    <glyph glyph-name="wacute" unicode="&#x1e83;" horiz-adv-x="1759" 
d="M211 -8l-39 1116h375l-4 -557l321 561h320l22 -565l299 561h379l-641 -1116h-332l-26 575l-338 -575h-336zM901 1204l316 377l354 -117l-371 -260h-299z" />
    <glyph glyph-name="Wdieresis" unicode="&#x1e84;" horiz-adv-x="2256" 
d="M332 -10l-92 1444h411l27 -830l496 834h344l55 -834l471 830h432l-866 -1444h-357l-65 815l-502 -815h-354zM981 1532l78 283h338l-78 -283h-338zM1434 1532l77 283h338l-77 -283h-338z" />
    <glyph glyph-name="wdieresis" unicode="&#x1e85;" horiz-adv-x="1759" 
d="M211 -8l-39 1116h375l-4 -557l321 561h320l22 -565l299 561h379l-641 -1116h-332l-26 575l-338 -575h-336zM662 1204l79 291h338l-80 -291h-337zM1110 1204l80 291h338l-80 -291h-338z" />
    <glyph glyph-name="Ygrave" unicode="&#x1ef2;" horiz-adv-x="1386" 
d="M907 1864l133 -332h-266l-244 219zM326 0l149 555l-289 879h428l142 -537l432 537h475l-801 -922l-137 -512h-399z" />
    <glyph glyph-name="ygrave" unicode="&#x1ef3;" horiz-adv-x="1273" 
d="M670 1204l-230 260l367 117l113 -377h-250zM189 -334q-168 0 -291 80l174 285q76 -55 142 -55t108 40l-144 1092h395l45 -666l373 666h410l-686 -1102q-119 -186 -239 -263t-287 -77z" />
    <glyph glyph-name="enspace" unicode="&#x2002;" 
 />
    <glyph glyph-name="emspace" unicode="&#x2003;" horiz-adv-x="2048" 
 />
    <glyph glyph-name="threeperemspace" unicode="&#x2004;" horiz-adv-x="681" 
 />
    <glyph glyph-name="fourperemspace" unicode="&#x2005;" horiz-adv-x="512" 
 />
    <glyph glyph-name="thinspace" unicode="&#x2009;" horiz-adv-x="272" 
 />
    <glyph glyph-name="hairspace" unicode="&#x200a;" horiz-adv-x="153" 
 />
    <glyph glyph-name="endash" unicode="&#x2013;" horiz-adv-x="1077" 
d="M68 473l90 334h897l-90 -334h-897z" />
    <glyph glyph-name="emdash" unicode="&#x2014;" horiz-adv-x="1835" 
d="M68 473l90 334h1654l-90 -334h-1654z" />
    <glyph glyph-name="quoteleft" unicode="&#x2018;" horiz-adv-x="618" 
d="M129 705l92 346q53 201 171 294t343 103l17 -152q-231 -23 -269 -192h158l-109 -399h-403z" />
    <glyph glyph-name="quoteright" unicode="&#x2019;" horiz-adv-x="618" 
d="M135 692l-16 150q231 23 268 192h-158l109 400h403l-92 -347q-53 -199 -171 -293t-343 -102z" />
    <glyph glyph-name="quotesinglbase" unicode="&#x201a;" horiz-adv-x="618" 
d="M-135 -342l-17 149q229 23 267 193h-156l107 399h405l-92 -344q-55 -201 -172 -295t-342 -102z" />
    <glyph glyph-name="quotedblleft" unicode="&#x201c;" horiz-adv-x="1157" 
d="M131 702l92 347q53 201 168 293t340 104l17 -152q-225 -23 -263 -192h152l-107 -400h-399zM676 702l92 347q53 201 168 293t340 104l16 -152q-225 -23 -262 -192h152l-107 -400h-399z" />
    <glyph glyph-name="quotedblright" unicode="&#x201d;" horiz-adv-x="1157" 
d="M137 692l-16 150q225 23 262 192h-152l107 400h399l-92 -347q-53 -201 -169 -294t-339 -101zM682 692l-16 150q225 23 262 192h-152l107 400h399l-92 -347q-53 -201 -169 -294t-339 -101z" />
    <glyph glyph-name="quotedblbase" unicode="&#x201e;" horiz-adv-x="1157" 
d="M-135 -342l-17 149q225 23 263 193h-152l107 399h399l-92 -344q-53 -201 -169 -295t-339 -102zM410 -342l-17 149q225 23 262 193h-151l106 399h400l-92 -344q-53 -201 -169 -295t-339 -102z" />
    <glyph glyph-name="dagger" unicode="&#x2020;" horiz-adv-x="843" 
d="M293 457l170 553l-264 -27l57 213l248 -27l39 265h229l-102 -265l262 27l-58 -213l-249 27l-127 -553h-205z" />
    <glyph glyph-name="daggerdbl" unicode="&#x2021;" horiz-adv-x="864" 
d="M168 0l102 264l-260 -26l56 213l249 -27l54 293l104 293l-264 -27l57 213l248 -27l39 265h229l-102 -265l260 27l-57 -213l-248 27l-53 -293l-107 -293l266 27l-57 -213l-248 26l-39 -264h-229z" />
    <glyph glyph-name="bullet" unicode="&#x2022;" horiz-adv-x="1026" 
d="M504 369q-129 -1 -202 75t-73 199q0 166 109 299t274 133q127 0 201 -76t74 -198q1 -166 -109 -299t-274 -133z" />
    <glyph glyph-name="ellipsis" unicode="&#x2026;" horiz-adv-x="1757" 
d="M-41 0l104 393h400l-107 -393h-397zM532 0l105 393h399l-106 -393h-398zM1106 0l104 393h400l-107 -393h-397z" />
    <glyph glyph-name="perthousand" unicode="&#x2030;" horiz-adv-x="2760" 
d="M1577 400q-1 142 -127 143q-62 0 -109 -68t-47 -138q0 -142 126 -142q62 -1 110 67q47 68 47 138zM2447 400q1 142 -123 143q-62 0 -110 -68q-47 -68 -47 -138q-1 -142 123 -142q62 -1 110 67q47 68 47 138zM682 1096q0 142 -124 143q-62 0 -110 -68q-46 -68 -46 -138
t30 -106q32 -36 94 -36q62 -1 109 67t47 138zM1409 -20q-170 0 -261 93t-91 253t118 296t288 136q171 0 261 -93t90 -254t-117 -296q-118 -135 -288 -135zM2280 -20q-169 0 -260 93t-91 253t118 296t287 136t260 -93t91 -254t-118 -296t-287 -135zM139 0l1411 1434h289
l-1413 -1434h-287zM515 676q-169 0 -261 93t-92 254t118 296t288 135t260 -93t92 -254q0 -161 -118 -296t-287 -135z" />
    <glyph glyph-name="guilsinglleft" unicode="&#x2039;" horiz-adv-x="731" 
d="M272 51l-215 449l27 100l446 438l213 -196l-344 -334l162 -328z" />
    <glyph glyph-name="guilsinglright" unicode="&#x203a;" horiz-adv-x="731" 
d="M197 51l-215 197l344 336l-162 327l289 127l217 -448l-29 -98z" />
    <glyph glyph-name="fraction" unicode="&#x2044;" horiz-adv-x="1118" 
d="M-287 -201l1422 1753h325l-1423 -1753h-324z" />
    <glyph glyph-name="Euro" unicode="&#x20ac;" horiz-adv-x="1386" 
d="M788 -29q-233 0 -388 132t-177 354h-184l57 213h137q12 70 23 102h-133l57 213h133q93 217 269 347t419 130q365 0 504 -301l-291 -194q-82 153 -242 153t-253 -139h346l-55 -207h-369q-16 -53 -25 -106h365l-55 -207h-316q33 -147 195 -148q137 0 258 121l227 -244
q-207 -219 -502 -219z" />
    <glyph glyph-name="published" unicode="&#x2117;" horiz-adv-x="1699" 
d="M825 733h103q57 0 91 28t34 73v4q0 102 -127 102h-101v-207zM604 336v788h340q152 0 240 -74t88 -204v-4q0 -133 -93 -207t-245 -74h-109v-225h-221zM242 713q0 -274 188 -467t466 -193t467 195t189 469v4q0 274 -188 467q-188 192 -466 192t-467 -194t-189 -469v-4z
M895 -29q-309 0 -524 218t-215 524v4q0 305 217 525t526 220t524 -218t215 -523v-4q0 -305 -217 -525t-526 -221z" />
    <glyph glyph-name="servicemark" unicode="&#x2120;" horiz-adv-x="1437" 
d="M745 803l168 631h179l84 -244l215 244h194l-168 -631h-174l98 368l-227 -249h-6l-92 249l-98 -368h-173zM422 791q-176 0 -293 116l111 113q94 -88 200 -88q35 0 56 14q20 14 20 37t-20 36t-99 44t-117 69t-38 101q0 92 74 152q76 61 214 61t238 -94l-104 -117
q-78 72 -163 72t-85 -50q0 -20 19 -32t98 -43t119 -70t40 -102q0 -98 -74 -158t-196 -61z" />
    <glyph glyph-name="trademark" unicode="&#x2122;" horiz-adv-x="1423" 
d="M266 803l129 477h-188l41 154h553l-41 -154h-189l-127 -477h-178zM731 803l168 631h178l84 -244l215 244h195l-168 -631h-174l98 368l-227 -249h-6l-93 249l-98 -368h-172z" />
    <glyph glyph-name="minus" unicode="&#x2212;" horiz-adv-x="1310" 
d="M1192 549h-1075l92 344h1075z" />
    <glyph glyph-name="Q.alt" horiz-adv-x="1665" 
d="M823 322q47 0 103 18l-158 213l285 188l123 -192q63 111 63 243t-83 222t-230 90q-180 0 -298 -143t-118 -302t83 -248t230 -89zM791 -27q-303 -1 -493 183t-192 460q0 162 65 316q135 320 446 458q161 71 344 70q303 0 493 -183t191 -460q0 -328 -236 -575l109 -148
l-283 -186l-92 141q-164 -76 -352 -76z" />
    <glyph glyph-name="a.alt" horiz-adv-x="1378" 
d="M652 297q98 0 180 94t81 221q0 88 -53 142q-54 54 -152 55q-98 0 -178 -93t-79 -224q0 -88 52 -142q51 -54 149 -53zM450 -25q-169 0 -281 123t-112 332q0 295 177 499q176 204 408 204t347 -177l41 152h389l-297 -1108h-389l33 117q-147 -142 -316 -142z" />
    <glyph glyph-name="aacute.alt" horiz-adv-x="1378" 
d="M652 297q98 0 180 94t81 221q0 88 -53 142q-54 54 -152 55q-98 0 -178 -93t-79 -224q0 -88 52 -142q51 -54 149 -53zM450 -25q-169 0 -281 123t-112 332q0 295 177 499q176 204 408 204t347 -177l41 152h389l-297 -1108h-389l33 117q-147 -142 -316 -142zM719 1212
l315 377l355 -116l-371 -261h-299z" />
    <glyph glyph-name="abreve.alt" horiz-adv-x="1378" 
d="M897 1208q-170 0 -264 91t-92 249h231q4 -51 41 -85t102 -33q135 0 205 118h234q-47 -156 -167 -248t-290 -92zM652 297q98 0 180 94t81 221q0 88 -53 142q-54 54 -152 55q-98 0 -178 -93t-79 -224q0 -88 52 -142q51 -54 149 -53zM450 -25q-169 0 -281 123t-112 332
q0 295 177 499q176 204 408 204t347 -177l41 152h389l-297 -1108h-389l33 117q-147 -142 -316 -142z" />
    <glyph glyph-name="acircumflex.alt" horiz-adv-x="1378" 
d="M652 297q98 0 180 94t81 221q0 88 -53 142q-54 54 -152 55q-98 0 -178 -93t-79 -224q0 -88 52 -142q51 -54 149 -53zM450 -25q-169 0 -281 123t-112 332q0 295 177 499q176 204 408 204t347 -177l41 152h389l-297 -1108h-389l33 117q-147 -142 -316 -142zM436 1212
l352 336h316l172 -336h-232l-139 125l-205 -125h-264z" />
    <glyph glyph-name="adieresis.alt" horiz-adv-x="1378" 
d="M652 297q98 0 180 94t81 221q0 88 -53 142q-54 54 -152 55q-98 0 -178 -93t-79 -224q0 -88 52 -142q51 -54 149 -53zM450 -25q-169 0 -281 123t-112 332q0 295 177 499q176 204 408 204t347 -177l41 152h389l-297 -1108h-389l33 117q-147 -142 -316 -142zM479 1212
l80 291h338l-80 -291h-338zM928 1212l80 291h338l-80 -291h-338z" />
    <glyph glyph-name="agrave.alt" horiz-adv-x="1378" 
d="M737 1212l-229 261l366 116l113 -377h-250zM652 297q98 0 180 94t81 221q0 88 -53 142q-54 54 -152 55q-98 0 -178 -93t-79 -224q0 -88 52 -142q51 -54 149 -53zM450 -25q-169 0 -281 123t-112 332q0 295 177 499q176 204 408 204t347 -177l41 152h389l-297 -1108h-389
l33 117q-147 -142 -316 -142z" />
    <glyph glyph-name="amacron.alt" horiz-adv-x="1378" 
d="M489 1223l64 235h768l-64 -235h-768zM652 297q98 0 180 94t81 221q0 88 -53 142q-54 54 -152 55q-98 0 -178 -93t-79 -224q0 -88 52 -142q51 -54 149 -53zM450 -25q-169 0 -281 123t-112 332q0 295 177 499q176 204 408 204t347 -177l41 152h389l-297 -1108h-389l33 117
q-147 -142 -316 -142z" />
    <glyph glyph-name="aogonek.alt" horiz-adv-x="1378" 
d="M652 297q98 0 180 94t81 221q0 88 -53 142q-54 54 -152 55q-98 0 -178 -93t-79 -224q0 -88 52 -142q51 -54 149 -53zM680 -203q0 94 135 203h-82l33 117q-147 -141 -316 -141t-281 122q-112 123 -112 332q0 295 177 499q176 204 408 204t347 -177l41 152h389l-297 -1108
h-63q-74 -74 -74 -117q0 -53 129 -53l-43 -166q-78 -10 -168 -10q-91 0 -157 38t-66 105z" />
    <glyph glyph-name="aring.alt" horiz-adv-x="1378" 
d="M652 297q98 0 180 94t81 221q0 88 -53 142q-54 54 -152 55q-98 0 -178 -93t-79 -224q0 -88 52 -142q51 -54 149 -53zM450 -25q-169 0 -281 123t-112 332q0 295 177 499q176 204 408 204t347 -177l41 152h389l-297 -1108h-389l33 117q-147 -142 -316 -142zM932 1333
q58 0 100 49q42 50 41 110q0 60 -32 93t-89 33t-100 -49t-43 -109t32 -94q33 -33 91 -33zM960 1735q118 0 186 -65q68 -66 66 -174q0 -108 -86 -195t-202 -87q-117 0 -186 65q-68 65 -68 173t86 196q86 87 204 87z" />
    <glyph glyph-name="aring.alt2" horiz-adv-x="1222" 
d="M381 332q-1 -116 123 -115q62 0 128 57t87 144l10 37q-73 25 -155 25t-138 -44t-55 -104zM797 1122q57 0 100 49t43 109t-32 94q-32 33 -90 33t-100 -49q-42 -50 -42 -110t32 -93t89 -33zM784 709q0 119 -190 118q-160 0 -299 -55l-55 283q143 51 333 63q-37 53 -36 123
q0 113 86 199q87 86 203 86t185 -65t68 -163q1 -143 -116 -223q207 -86 206 -305q0 -74 -22 -160l-164 -610h-383l31 119q-153 -141 -305 -141t-238 81q-86 82 -86 220q0 180 133 285t354 106q139 0 281 -43q14 49 14 82z" />
    <glyph glyph-name="aringacute.alt" horiz-adv-x="1378" 
d="M652 297q98 0 180 94t81 221q0 88 -53 142q-54 54 -152 55q-98 0 -178 -93t-79 -224q0 -88 52 -142q51 -54 149 -53zM450 -25q-169 0 -281 123t-112 332q0 295 177 499q176 204 408 204t347 -177l41 152h389l-297 -1108h-389l33 117q-147 -142 -316 -142zM932 1333
q58 0 100 49q42 50 41 110q0 60 -32 93t-89 33t-100 -49t-43 -109t32 -94q33 -33 91 -33zM960 1735q118 0 186 -65q68 -66 66 -174q0 -108 -86 -195t-202 -87q-117 0 -186 65q-68 65 -68 173t86 196q86 87 204 87zM870 1802l320 328l344 -115l-369 -213h-295z" />
    <glyph glyph-name="aringacute.alt2" horiz-adv-x="1222" 
d="M381 332q-1 -116 123 -115q62 0 128 57t87 144l10 37q-73 25 -155 25t-138 -44t-55 -104zM797 1122q57 0 100 49t43 109t-32 94q-32 33 -90 33t-100 -49q-42 -50 -42 -110t32 -93t89 -33zM784 709q0 119 -190 118q-160 0 -299 -55l-55 283q143 51 333 63q-37 53 -36 123
q0 113 86 199q87 86 203 86t185 -65t68 -163q1 -143 -116 -223q207 -86 206 -305q0 -74 -22 -160l-164 -610h-383l31 119q-153 -141 -305 -141t-238 81q-86 82 -86 220q0 180 133 285t354 106q139 0 281 -43q14 49 14 82zM735 1593l320 326l344 -115l-369 -211h-295z" />
    <glyph glyph-name="atilde.alt" horiz-adv-x="1378" 
d="M1061 1212q-68 0 -173 40t-139 40t-59 -21q-24 -22 -55 -75l-189 57q61 158 129 229t168 70q69 0 175 -40t139 -40t57 22t57 73l187 -56q-61 -159 -128 -229t-169 -70zM652 297q98 0 180 94t81 221q0 88 -53 142q-54 54 -152 55q-98 0 -178 -93t-79 -224q0 -88 52 -142
q51 -54 149 -53zM450 -25q-169 0 -281 123t-112 332q0 295 177 499q176 204 408 204t347 -177l41 152h389l-297 -1108h-389l33 117q-147 -142 -316 -142z" />
    <glyph glyph-name="three.alt" horiz-adv-x="1277" 
d="M543 -29q-403 0 -588 273l264 229q137 -166 328 -166q100 0 160 46q59 46 59 108q0 113 -178 112h-148l80 299h139q102 0 164 38q61 38 61 96t-41 90q-42 31 -104 30q-147 0 -315 -139l-203 250q236 225 567 225q227 0 362 -108q134 -109 134 -262q0 -285 -334 -377
q213 -78 213 -283t-175 -333t-445 -128z" />
    <glyph glyph-name="registered.alt" horiz-adv-x="1699" 
d="M791 754h143q55 0 87 26t32 68v4q0 94 -121 94h-141v-192zM571 344v789h367q176 0 264 -89q70 -70 70 -180v-4q0 -172 -164 -239l188 -277h-249l-160 240h-96v-240h-220zM242 713q0 -274 188 -466t466 -192t467 194t189 468v4q0 274 -188 467q-188 192 -466 192
t-467 -194t-189 -469v-4zM895 -29q-309 0 -524 218t-215 524v4q0 305 217 525t526 220t524 -218t215 -523v-4q0 -305 -217 -525t-526 -221z" />
    <glyph glyph-name="NUL" horiz-adv-x="0" 
 />
    <glyph glyph-name="hfjslug" horiz-adv-x="1421" 
d="M872 580q-33 0 -32 34q0 12 9 24t23 11q14 0 24 -11t9 -24q0 -34 -33 -34zM997 612h-22v35h22q20 0 21 -16q-1 -19 -21 -19zM659 823q-33 0 -33 45t33 78l41 -80q-16 -43 -41 -43zM645 1056q0 30 29 29q27 -1 27 -35t-31 -69q-25 45 -25 75zM494 662l28 -97h17l22 70h2
l23 -70h16l29 97h-17l-20 -72h-2l-23 72h-14l-23 -72h-2l-20 72h-16zM270 662v-95h17v66l51 -66h14v95h-16v-66l-51 66h-15zM395 662v-95h70v15h-53v26h47v15h-47v24h53v15h-70zM750 567h16v35l37 60h-19l-26 -46l-27 46h-18l37 -60v-35zM872 565q20 1 34 15q33 33 1 68
q-15 16 -35 16t-34 -16t-14 -34q0 -20 14 -34t34 -15zM1034 631q0 31 -35 31h-41v-95h17v31h24l21 -31h18l-24 35q20 8 20 29zM1071 662v-95h16v25l17 16l31 -41h20l-41 54l37 41h-21l-40 -50h-3v50h-16zM729 1047q0 63 -55 63q-25 0 -41 -18q-35 -39 12 -125
q-47 -37 -47 -83q0 -91 59 -89q39 0 60 49h2l24 -49l25 12l-35 65q13 29 27 80l-27 6q-8 -37 -16 -61h-2l-33 64q47 43 47 86zM985 799q63 0 64 73v281h-33v-281q0 -45 -33 -45q-16 0 -41 11v-31q20 -8 43 -8zM377 1153v-352h31v162h96v-162h31v352h-31v-162h-96v162h-31z
M819 1153v-352h31v160h78v28h-78v135h88v29h-119zM1319 -410h-426l-16 29h-334l-17 -29h-424v621q29 0 48 19q18 19 18 46q0 26 -20 46t-46 20v1135h205l62 161h684l59 -161h207v-1887z" />
    <glyph glyph-name="i.dot" horiz-adv-x="618" 
d="M-35 0l297 1108h389l-297 -1108h-389zM283 1208l77 287h406l-78 -287h-405z" />
    <glyph glyph-name="caron.alt" 
d="M553 1126l117 441h288l-251 -441h-154z" />
    <glyph glyph-name="acute.cap" 
d="M516 1532l311 332l365 -113l-363 -219h-313z" />
    <glyph glyph-name="hungarumlaut.cap" 
d="M711 1532l180 197l-309 -197h-283l301 332l315 -107l99 107l332 -113l-353 -219h-282z" />
    <glyph glyph-name="grave.cap" 
d="M887 1864l133 -332h-266l-244 219z" />
    <glyph glyph-name="circumflex.cap" 
d="M356 1532l334 305h346l170 -305h-245l-132 108l-192 -108h-281z" />
    <glyph glyph-name="caron.cap" 
d="M1288 1837l-334 -305h-346l-170 305h246l131 -108l193 108h280z" />
    <glyph glyph-name="breve.cap" 
d="M784 1528q-172 0 -258 79t-65 230h223q12 -92 144 -92t194 92h244q-58 -153 -184 -231t-298 -78z" />
    <glyph glyph-name="tilde.cap" 
d="M647 1872q69 0 183 -40t148 -40t60 22t58 72l186 -55q-59 -159 -128 -229t-155 -70q-87 0 -201 40t-139 40q-71 0 -124 -96l-189 57q61 159 130 229t171 70z" />
    <glyph glyph-name="macron.cap" 
d="M379 1546l65 240h816l-66 -240h-815z" />
    <glyph glyph-name="dieresis.cap" 
d="M387 1532l78 283h338l-78 -283h-338zM840 1532l78 283h337l-77 -283h-338z" />
    <glyph glyph-name="dotaccent.cap" 
d="M606 1532l78 283h348l-78 -283h-348z" />
    <glyph glyph-name="ring.cap" 
d="M694 1925q-68 0 -114 -48t-45 -102q0 -54 37 -86q36 -32 104 -32t114 47t46 102t-37 87t-105 32zM702 2048q128 0 202 -65t73 -172q1 -107 -91 -192t-219 -85t-201 64t-73 172q0 108 91 193q90 85 218 85z" />
    </font>
</defs>
</svg>
