<?xml version="1.0" standalone="no"?>
<!DOCTYPE svg PUBLIC "-//W3C//DTD SVG 1.1//EN" "http://www.w3.org/Graphics/SVG/1.1/DTD/svg11.dtd" >
<svg xmlns="http://www.w3.org/2000/svg">
<metadata>
Created by FontPrep 20130207 at Tue Sep  9 17:50:25 2014
 By Alexander Gunnarson
Copyright (C) 2000, 2007 Hoefler &#38; Frere-Jones. http://www.typography.com
</metadata>
<defs>
<font id="0b358a21b3e426ee0635cfc34eab6e7e" horiz-adv-x='1024' >
  <font-face 
    font-family="Gotham-Black"
    font-weight="425"
    font-stretch="normal"
    units-per-em="2048"
    panose-1="2 0 6 4 4 0 0 2 0 4"
    ascent="1638"
    descent="-410"
    x-height="1108"
    cap-height="1434"
    bbox="-115 -643 2580 2136"
    underline-thickness="40"
    underline-position="-231"
    unicode-range="U+0020-FB04"
  />
<missing-glyph 
d="M512 492l-367 -799h734zM922 1384l-353 -770l353 -770v1540zM102 -156l353 770l-353 770v-1540zM145 1536l367 -799l367 799h-734zM0 -410v2048h1024v-2048h-1024z" />
    <glyph glyph-name="f_f" unicode="ff" horiz-adv-x="1654" 
d="M174 1126q0 383 383 383q152 0 254 -30v-275q-72 23 -145 23q-111 0 -111 -105v-26h254v-299h-248v-797h-387v797h-129v305h129v24zM1001 1126q0 383 383 383q152 0 254 -30v-275q-72 23 -145 23q-111 0 -111 -105v-26h254v-299h-247v-797h-388v797h-131v299h131v30z" />
    <glyph glyph-name="fi" unicode="fi" horiz-adv-x="1441" 
d="M940 0v1108h389v-1108h-389zM174 1126q0 383 383 383q152 0 254 -30v-275q-72 23 -145 23q-111 0 -111 -105v-26h254v-299h-248v-797h-387v797h-129v305h129v24zM932 1208v287h405v-287h-405z" />
    <glyph glyph-name="fl" unicode="fl" horiz-adv-x="1441" 
d="M940 0v1495h389v-1495h-389zM174 1126q0 383 383 383q152 0 254 -30v-275q-72 23 -145 23q-111 0 -111 -105v-26h254v-299h-248v-797h-387v797h-129v305h129v24z" />
    <glyph glyph-name="f_f_i" unicode="ffi" horiz-adv-x="2269" 
d="M1767 0v1108h390v-1108h-390zM174 1126q0 383 383 383q152 0 254 -30v-275q-72 23 -145 23q-111 0 -111 -105v-26h254v-299h-248v-797h-387v797h-129v305h129v24zM1001 1126q0 383 383 383q152 0 254 -30v-275q-72 23 -145 23q-111 0 -111 -105v-26h254v-299h-247v-797
h-388v797h-131v299h131v30zM1759 1208v287h406v-287h-406z" />
    <glyph glyph-name="f_f_l" unicode="ffl" horiz-adv-x="2269" 
d="M1767 0v1495h390v-1495h-390zM174 1126q0 383 383 383q152 0 254 -30v-275q-72 23 -145 23q-111 0 -111 -105v-26h254v-299h-248v-797h-387v797h-129v305h129v24zM1001 1126q0 383 383 383q152 0 254 -30v-275q-72 23 -145 23q-111 0 -111 -105v-26h254v-299h-247v-797
h-388v797h-131v299h131v30z" />
    <glyph glyph-name=".notdef" 
d="M512 492l-367 -799h734zM922 1384l-353 -770l353 -770v1540zM102 -156l353 770l-353 770v-1540zM145 1536l367 -799l367 799h-734zM0 -410v2048h1024v-2048h-1024z" />
    <glyph glyph-name=".null" horiz-adv-x="0" 
 />
    <glyph glyph-name="nonmarkingreturn" horiz-adv-x="681" 
 />
    <glyph glyph-name="space" unicode=" " horiz-adv-x="567" 
 />
    <glyph glyph-name="exclam" unicode="!" horiz-adv-x="663" 
d="M129 0v348h406v-348h-406zM111 1434h442v-174l-119 -793h-205l-118 793v174z" />
    <glyph glyph-name="quotedbl" unicode="&#x22;" horiz-adv-x="1099" 
d="M532 1434v-11l-260 -725h-202l45 736h417zM1059 1434v-11l-260 -725h-205l47 736h418z" />
    <glyph glyph-name="numbersign" unicode="#" horiz-adv-x="1445" 
d="M563 598h275l41 246h-273zM59 276v330h217l39 230h-188v329h246l45 269h297l-47 -269h260l45 269h297l-45 -269h159v-329h-217l-39 -230h189v-330h-244l-49 -276h-297l49 276h-260l-47 -276h-297l47 276h-160z" />
    <glyph glyph-name="dollar" unicode="$" horiz-adv-x="1363" 
d="M946 403v5q0 42 -30 68t-107 48v-225q137 14 137 104zM479 1034v-4q-1 -40 29 -66t110 -49v222q-139 -12 -139 -103zM604 -201v205q-315 33 -553 203l185 272q197 -137 380 -168v246q-258 59 -378 159t-119 283v5q0 184 129 300t360 132v116h213v-122q236 -27 432 -160
l-168 -275q-121 86 -274 123v-237q254 -59 372 -161t117 -286v-4q0 -184 -130 -297t-353 -133v-201h-213z" />
    <glyph glyph-name="percent" unicode="%" horiz-adv-x="1841" 
d="M834 772l501 662h277l-617 -789l-489 -645h-277zM1401 205q51 0 85 45t34 112v5q0 71 -34 115t-88 44t-86 -44t-32 -113v-4q0 -68 35 -114t86 -46zM442 907q51 0 85 45t34 113v4q0 68 -35 114t-87 46t-85 -45t-32 -113v-4q0 -70 34 -115t86 -45zM1399 -20
q-162 0 -265 112t-104 270v5q0 161 102 273t268 112q165 0 267 -111t102 -272v-4q0 -161 -104 -273t-266 -112zM440 682q-162 0 -265 111t-103 272v4q0 161 102 273t267 112t267 -111t103 -272v-4q-1 -161 -105 -273t-266 -112z" />
    <glyph glyph-name="ampersand" unicode="&#x26;" horiz-adv-x="1429" 
d="M440 410q0 -62 47 -102t123 -40t168 62l-235 239q-102 -61 -103 -155v-4zM801 1071v4q0 51 -31 83t-81 32t-82 -35t-32 -92v-4q0 -72 74 -164q152 68 152 176zM43 389v4q0 270 291 402q-94 135 -94 274v4q0 162 122 276q123 113 322 113q200 0 316 -104t116 -264v-4
q0 -244 -280 -373l159 -156q63 92 135 227l263 -131q-100 -182 -189 -303l193 -190l-269 -193l-147 150q-191 -145 -421 -145t-374 111q-143 112 -143 302z" />
    <glyph glyph-name="quotesingle" unicode="'" horiz-adv-x="581" 
d="M541 1434v-11l-260 -725h-211l45 736h426z" />
    <glyph glyph-name="parenleft" unicode="(" horiz-adv-x="911" 
d="M90 588q0 301 150 511t448 365l162 -241q-201 -137 -290 -285t-89 -350q0 -201 89 -349t290 -286l-162 -242q-298 156 -448 366t-150 511z" />
    <glyph glyph-name="parenright" unicode=")" horiz-adv-x="911" 
d="M440 588q0 201 -89 349t-290 286l162 241q299 -156 449 -366t150 -510q0 -301 -150 -511t-449 -366l-162 242q201 137 290 285t89 350z" />
    <glyph glyph-name="asterisk" unicode="*" horiz-adv-x="870" 
d="M328 694l51 271l-211 -181l-111 189l260 92l-260 92l111 191l211 -181l-51 271h215l-51 -271l210 181l111 -191l-260 -92l260 -92l-111 -189l-210 181l51 -271h-215z" />
    <glyph glyph-name="plus" unicode="+" horiz-adv-x="1310" 
d="M477 193v356h-360v344h360v356h357v-356h360v-344h-360v-356h-357z" />
    <glyph glyph-name="comma" unicode="," horiz-adv-x="581" 
d="M88 4v399h406v-325q0 -218 -108 -314t-314 -102l-31 150q211 25 205 192h-158z" />
    <glyph glyph-name="hyphen" unicode="-" horiz-adv-x="835" 
d="M82 469v342h672v-342h-672z" />
    <glyph glyph-name="period" unicode="." horiz-adv-x="581" 
d="M88 0v399h406v-399h-406z" />
    <glyph glyph-name="slash" unicode="/" horiz-adv-x="1095" 
d="M-78 -262l907 1896h316l-907 -1896h-316z" />
    <glyph glyph-name="zero" unicode="0" horiz-adv-x="1495" 
d="M750 324q118 0 190 108t72 281v4q0 173 -75 283t-192 110t-189 -109t-73 -280v-4q0 -173 74 -283t193 -110zM745 -29q-299 0 -480 214t-181 528v4q0 313 184 529t482 216t479 -214q182 -214 182 -527v-4q0 -313 -183 -530q-184 -216 -483 -216z" />
    <glyph glyph-name="one" unicode="1" horiz-adv-x="864" 
d="M334 0v1073l-242 -55l-76 307l420 119h289v-1444h-391z" />
    <glyph glyph-name="two" unicode="2" horiz-adv-x="1277" 
d="M68 0v299l536 410q100 80 142 137t42 123q0 67 -44 105t-114 38t-136 -42q-64 -42 -150 -142l-268 223q123 159 254 233t348 74t363 -127t147 -330v-4q0 -162 -78 -268t-254 -233l-246 -172h592v-324h-1134z" />
    <glyph glyph-name="three" unicode="3" horiz-adv-x="1271" 
d="M647 -29q-381 0 -610 254l250 250q160 -164 342 -164q84 0 134 40t50 106v4q0 71 -61 109t-172 38h-168l-58 207l330 297h-549v322h1036v-285l-342 -293q371 -82 371 -403v-4q0 -215 -154 -347q-155 -131 -399 -131z" />
    <glyph glyph-name="four" unicode="4" horiz-adv-x="1411" 
d="M786 573v412l-342 -412h342zM786 0v279h-694l-65 280l743 885h401v-869h183v-296h-183v-279h-385z" />
    <glyph glyph-name="five" unicode="5" horiz-adv-x="1290" 
d="M621 -29q-338 0 -582 228l227 266q184 -156 348 -156q98 0 155 45q56 45 56 123v4q0 76 -58 121t-161 45t-221 -72l-235 132l40 727h959v-328h-645l-12 -217q109 51 229 51q209 0 350 -117t141 -338v-4q0 -236 -162 -373t-429 -137z" />
    <glyph glyph-name="six" unicode="6" horiz-adv-x="1355" 
d="M682 281q92 0 145 52t54 132v4q1 78 -55 131t-148 53t-146 -51t-53 -131v-4q-1 -80 55 -133t148 -53zM1268 487q0 -236 -164 -376t-422 -140t-428 170t-170 531v4q0 350 171 568t495 218q266 0 477 -157l-187 -281q-145 109 -275 109t-198 -82t-82 -224q145 111 327 111
t318 -120t138 -326v-5z" />
    <glyph glyph-name="seven" unicode="7" horiz-adv-x="1257" 
d="M94 1100v334h1104v-299l-633 -1135h-438l631 1100h-664z" />
    <glyph glyph-name="eight" unicode="8" horiz-adv-x="1290" 
d="M645 272q96 0 152 47q55 47 55 115v4q0 70 -58 113t-148 43t-149 -43q-58 -43 -59 -113v-4q0 -68 56 -115t151 -47zM645 852q80 0 128 44t48 112v4q0 61 -49 106t-128 45t-127 -44t-48 -105v-4q0 -68 48 -113t128 -45zM645 -25q-260 0 -425 117t-165 303v4q0 240 246 344
q-197 109 -197 312v4q0 174 151 287q151 112 391 112t390 -112t150 -287v-4q0 -203 -197 -312q119 -55 182 -136t64 -206v-4q0 -190 -165 -306t-425 -116z" />
    <glyph glyph-name="nine" unicode="9" horiz-adv-x="1355" 
d="M678 768q92 0 146 53t55 133v4q-1 84 -57 140t-148 55q-92 0 -146 -54t-55 -138v-5q1 -82 57 -135t148 -53zM624 -29q-299 0 -515 170l186 275q145 -115 307 -115q121 0 189 79t81 220q-124 -117 -320 -117t-330 123t-134 330v4q0 236 161 379t410 143q152 0 253 -41
t188 -127q172 -168 172 -530v-4q0 -360 -174 -575q-175 -214 -474 -214z" />
    <glyph glyph-name="colon" unicode=":" horiz-adv-x="602" 
d="M98 0v399h406v-399h-406zM98 709v399h406v-399h-406z" />
    <glyph glyph-name="semicolon" unicode=";" horiz-adv-x="602" 
d="M98 0v399h406v-325q0 -218 -108 -314t-314 -102l-31 149q211 25 205 193h-158zM98 709v399h406v-399h-406z" />
    <glyph glyph-name="less" unicode="&#x3c;" horiz-adv-x="1310" 
d="M1147 135l-1018 406v360l1018 406v-361l-670 -225l670 -223v-363z" />
    <glyph glyph-name="equal" unicode="=" horiz-adv-x="1310" 
d="M129 281v335h1053v-335h-1053zM129 825v338h1053v-338h-1053z" />
    <glyph glyph-name="greater" unicode="&#x3e;" horiz-adv-x="1310" 
d="M164 135v361l670 223l-670 225v363l1018 -406v-360z" />
    <glyph glyph-name="question" unicode="?" horiz-adv-x="1105" 
d="M307 0v348h404v-348h-404zM678 991v2q0 53 -40 83t-114 30q-147 0 -299 -135l-205 270q215 215 531 215q229 0 371 -117t141 -313v-4q1 -180 -105 -280t-294 -144l-25 -131h-248l-51 342l16 18q322 26 322 164z" />
    <glyph glyph-name="at" unicode="@" horiz-adv-x="1976" 
d="M940 397q74 0 131 69t57 154q0 84 -42 126t-116 42t-130 -68q-58 -68 -58 -153q0 -86 42 -128t116 -42zM1006 -332q-393 0 -654 260q-260 260 -260 634t262 637t640 263t633 -238t255 -558q0 -262 -128 -406t-308 -143q-225 0 -316 155q-131 -152 -297 -152t-272 114
t-106 316t134 358q134 157 315 157t278 -152l24 125l318 -49l-94 -528q-8 -61 -8 -102t35 -75q36 -34 97 -34q104 0 173 110t69 306q0 290 -227 502t-575 212t-582 -236t-234 -582q0 -345 232 -578t596 -234q268 0 501 137l41 -65q-251 -154 -542 -154z" />
    <glyph glyph-name="A" unicode="A" horiz-adv-x="1628" 
d="M649 565h322l-160 408zM12 0l611 1444h383l610 -1444h-426l-105 256h-553l-102 -256h-418z" />
    <glyph glyph-name="B" unicode="B" horiz-adv-x="1464" 
d="M514 319h307q90 0 141 34q50 34 50 98v4q0 129 -195 129h-303v-265zM514 862h250q188 0 188 125v4q0 123 -180 123h-258v-252zM127 0v1434h735q262 0 391 -129q92 -92 93 -232v-4q0 -223 -222 -319q139 -45 212 -128t73 -223v-4q0 -183 -143 -289t-400 -106h-739z" />
    <glyph glyph-name="C" unicode="C" horiz-adv-x="1495" 
d="M817 -29q-309 0 -524 212t-215 530v4q0 315 216 530t540 215q393 0 608 -299l-299 -231q-135 168 -314 168q-147 0 -244 -110t-98 -269v-4q1 -164 97 -274t245 -109q105 0 179 44t145 130l299 -213q-112 -154 -262 -239t-373 -85z" />
    <glyph glyph-name="D" unicode="D" horiz-adv-x="1566" 
d="M524 352h162q180 0 288 95t107 268v4q0 170 -107 266q-108 96 -288 96h-162v-729zM127 0v1434h553q377 0 593 -196t216 -513v-4q0 -317 -219 -519t-598 -202h-545z" />
    <glyph glyph-name="E" unicode="E" horiz-adv-x="1366" 
d="M127 0v1434h1153v-338h-760v-217h688v-314h-688v-227h770v-338h-1163z" />
    <glyph glyph-name="F" unicode="F" horiz-adv-x="1327" 
d="M127 0v1434h1147v-349h-750v-243h678v-330h-678v-512h-397z" />
    <glyph glyph-name="G" unicode="G" horiz-adv-x="1574" 
d="M867 -29q-345 0 -567 209t-222 533v4q0 315 220 530t556 215t578 -209l-234 -280q-162 135 -332 135t-275 -115t-106 -278v-4q0 -174 110 -286t264 -112t245 60v174h-283v291h660v-645q-269 -222 -614 -222z" />
    <glyph glyph-name="H" unicode="H" horiz-adv-x="1558" 
d="M127 0v1434h397v-537h510v537h398v-1434h-398v545h-510v-545h-397z" />
    <glyph glyph-name="I" unicode="I" horiz-adv-x="669" 
d="M135 0v1434h400v-1434h-400z" />
    <glyph glyph-name="J" unicode="J" horiz-adv-x="1155" 
d="M512 -25q-328 0 -504 242l256 242q111 -133 223 -133q78 0 121 51t43 149v908h396v-910q1 -262 -143 -406t-392 -143z" />
    <glyph glyph-name="K" unicode="K" horiz-adv-x="1495" 
d="M127 0v1434h397v-582l494 582h471l-543 -617l561 -817h-477l-360 532l-146 -161v-371h-397z" />
    <glyph glyph-name="L" unicode="L" horiz-adv-x="1261" 
d="M127 0v1434h397v-1086h695v-348h-1092z" />
    <glyph glyph-name="M" unicode="M" horiz-adv-x="1777" 
d="M127 0v1434h420l342 -555l342 555h420v-1434h-396v823l-366 -561h-8l-365 557v-819h-389z" />
    <glyph glyph-name="N" unicode="N" horiz-adv-x="1607" 
d="M127 0v1434h371l589 -758v758h394v-1434h-348l-613 786v-786h-393z" />
    <glyph glyph-name="O" unicode="O" horiz-adv-x="1701" 
d="M852 330q160 0 262 112t103 271v4q-1 159 -105 273t-264 114t-261 -112t-102 -271v-4q-1 -159 103 -273t264 -114zM848 -29q-330 0 -550 215t-220 527v4q0 311 222 528t552 217t550 -215t220 -526v-4q0 -311 -222 -529t-552 -217z" />
    <glyph glyph-name="P" unicode="P" horiz-adv-x="1378" 
d="M524 721h189q104 0 166 50q61 50 61 136v4q0 93 -60 141t-169 48h-187v-379zM127 0v1434h614q273 0 435 -134t161 -370v-4q0 -246 -170 -381t-446 -135h-197v-410h-397z" />
    <glyph glyph-name="Q" unicode="Q" horiz-adv-x="1701" 
d="M852 324q76 0 145 26l-198 170l200 225l195 -176q25 66 25 140v4q-1 163 -105 277t-265 114t-262 -114t-102 -273v-4q-1 -161 103 -275t264 -114zM848 -29q-330 0 -550 215t-220 527v4q0 311 222 528t552 217t550 -215t220 -526v-4q0 -231 -127 -412l147 -125l-200 -223
l-158 141q-195 -127 -436 -127z" />
    <glyph glyph-name="R" unicode="R" horiz-adv-x="1472" 
d="M524 745h262q100 -1 156 45t57 125v5q0 84 -56 127t-159 43h-260v-345zM127 0v1434h678q315 0 467 -156q127 -123 127 -334v-4q0 -315 -295 -440l342 -500h-459l-289 434h-174v-434h-397z" />
    <glyph glyph-name="S" unicode="S" horiz-adv-x="1335" 
d="M690 -25q-406 0 -672 238l222 264q215 -172 465 -172q164 0 163 98v5q0 44 -49 74t-186 62t-222 62t-166 79q-159 98 -159 310v4q0 203 151 331t404 128q352 0 590 -190l-199 -281q-201 141 -401 141q-70 0 -107 -26t-37 -66v-4q1 -49 51 -78t197 -61q267 -59 401 -157
t134 -290v-4q0 -217 -158 -342t-422 -125z" />
    <glyph glyph-name="T" unicode="T" horiz-adv-x="1351" 
d="M477 0v1085h-430v349h1258v-349h-431v-1085h-397z" />
    <glyph glyph-name="U" unicode="U" horiz-adv-x="1552" 
d="M1444 639q0 -336 -178 -501t-493 -165q-316 0 -490 164t-174 492v805h403v-797q0 -153 71 -229t193 -76t194 74q71 74 70 221v807h404v-795z" />
    <glyph glyph-name="V" unicode="V" horiz-adv-x="1556" 
d="M594 -10l-582 1444h445l325 -908l326 908h436l-581 -1444h-369z" />
    <glyph glyph-name="W" unicode="W" horiz-adv-x="2287" 
d="M510 -10l-479 1444h420l249 -830l277 834h342l276 -834l250 830h412l-479 -1444h-346l-289 825l-287 -825h-346z" />
    <glyph glyph-name="X" unicode="X" horiz-adv-x="1499" 
d="M23 0l491 729l-471 705h457l254 -404l256 404h446l-471 -701l492 -733h-457l-275 432l-276 -432h-446z" />
    <glyph glyph-name="Y" unicode="Y" horiz-adv-x="1480" 
d="M541 0v537l-545 897h453l294 -523l297 523h445l-545 -891v-543h-399z" />
    <glyph glyph-name="Z" unicode="Z" horiz-adv-x="1429" 
d="M82 0v289l719 809h-695v336h1244v-289l-719 -809h719v-336h-1268z" />
    <glyph glyph-name="bracketleft" unicode="[" horiz-adv-x="935" 
d="M135 -266v1700h709v-265h-361v-1171h361v-264h-709z" />
    <glyph glyph-name="backslash" unicode="\" horiz-adv-x="1095" 
d="M858 -262l-907 1896h315l908 -1896h-316z" />
    <glyph glyph-name="bracketright" unicode="]" horiz-adv-x="935" 
d="M92 -266v264h361v1171h-361v265h709v-1700h-709z" />
    <glyph glyph-name="asciicircum" unicode="^" 
d="M86 1010l295 422h262l295 -422h-272l-156 198l-156 -198h-268z" />
    <glyph glyph-name="underscore" unicode="_" horiz-adv-x="1228" 
d="M-4 -328v238h1237v-238h-1237z" />
    <glyph glyph-name="grave" unicode="`" 
d="M483 1204l-301 260l361 117l211 -377h-271z" />
    <glyph glyph-name="a" unicode="a" horiz-adv-x="1226" 
d="M574 219q74 0 126 50q53 50 54 132v52q-68 29 -152 29t-131 -39q-47 -38 -47 -99v-4q0 -55 38 -88t112 -33zM422 -25q-164 1 -268 91t-105 251v5q0 168 117 258t317 90q145 0 267 -43v18q0 180 -222 180q-150 0 -305 -61l-80 274q209 86 449 86q287 0 422 -135
q119 -117 119 -352v-637h-385v115q-125 -140 -326 -140z" />
    <glyph glyph-name="b" unicode="b" horiz-adv-x="1384" 
d="M485 553q0 -109 66 -181t161 -71q94 0 160 71t66 181v4q0 109 -66 179t-160 71q-94 0 -161 -71q-66 -71 -66 -179v-4zM1321 555q-1 -262 -143 -421t-345 -159t-339 160v-135h-390v1495h390v-534q140 172 340 172t344 -158t143 -416v-4z" />
    <glyph glyph-name="c" unicode="c" horiz-adv-x="1165" 
d="M639 -27q-248 0 -414 169t-166 407v4q0 240 168 409t426 168q317 0 473 -247l-264 -197q-84 117 -207 117q-92 0 -154 -72t-63 -174v-4q0 -109 62 -181t168 -71q106 0 204 115l261 -189q-172 -254 -494 -254z" />
    <glyph glyph-name="d" unicode="d" horiz-adv-x="1384" 
d="M672 301q94 0 160 72t65 180v4q0 109 -66 179q-67 70 -161 71q-94 0 -160 -71t-66 -179v-4q0 -109 67 -181t161 -71zM549 -25q-201 0 -343 158t-143 416v4q-1 262 141 421t345 159t342 -160v522h389v-1495h-389v147q-141 -172 -342 -172z" />
    <glyph glyph-name="e" unicode="e" horiz-adv-x="1239" 
d="M623 846q-79 0 -129 -54t-66 -147h385q-10 93 -61 147t-129 54zM653 -27q-262 0 -428 160t-166 416v4q0 246 158 413q157 167 415 167t402 -172t144 -435q0 -53 -2 -80h-742q47 -182 240 -182q131 0 246 113l215 -178q-179 -226 -482 -226z" />
    <glyph glyph-name="f" unicode="f" horiz-adv-x="827" 
d="M174 1126q0 383 383 383q152 0 254 -30v-275q-72 23 -145 23q-111 0 -111 -105v-26h254v-299h-248v-797h-387v797h-129v305h129v24z" />
    <glyph glyph-name="g" unicode="g" horiz-adv-x="1384" 
d="M444 610q0 -92 64 -152t163 -61t163 61t63 154v4q0 92 -63 152q-64 60 -162 61q-98 0 -163 -61t-65 -154v-4zM1280 266q0 -298 -150 -448t-468 -150q-320 0 -568 127l125 258q188 -104 387 -104q291 0 291 272v43q-143 -166 -348 -166t-345 142t-141 372v4q1 232 141 374
t340 142t347 -155v131h389v-842z" />
    <glyph glyph-name="h" unicode="h" horiz-adv-x="1298" 
d="M104 0v1495h390v-539q137 176 322 176q186 0 286 -109q100 -110 100 -298v-725h-389v600q0 88 -42 137t-115 49q-74 0 -118 -49t-44 -137v-600h-390z" />
    <glyph glyph-name="i" unicode="i" horiz-adv-x="614" 
d="M113 0v1108h389v-1108h-389zM104 1208v287h406v-287h-406z" />
    <glyph glyph-name="j" unicode="j" horiz-adv-x="618" 
d="M106 -334q-49 0 -159 15v258q16 -2 63 -2q103 0 103 129v1042h389v-1059q0 -203 -100 -293t-296 -90zM104 1208v287h406v-287h-406z" />
    <glyph glyph-name="k" unicode="k" horiz-adv-x="1234" 
d="M104 0v1495h390v-758l301 371h440l-385 -444l395 -664h-428l-223 377l-100 -117v-260h-390z" />
    <glyph glyph-name="l" unicode="l" horiz-adv-x="614" 
d="M113 0v1495h389v-1495h-389z" />
    <glyph glyph-name="m" unicode="m" horiz-adv-x="1988" 
d="M104 0v1108h390v-152q137 176 329 177q225 0 320 -181q158 180 370 181q179 -1 279 -107t100 -299v-727h-389v602q0 88 -41 136q-42 48 -112 48t-114 -48t-44 -136v-602h-389v602q0 88 -41 136t-112 48q-72 0 -114 -48t-42 -136v-602h-390z" />
    <glyph glyph-name="n" unicode="n" horiz-adv-x="1298" 
d="M104 0v1108h390v-156q139 180 323 180q185 0 285 -109q100 -110 100 -298v-725h-389v600q0 88 -42 137t-115 49q-74 0 -118 -49t-44 -137v-600h-390z" />
    <glyph glyph-name="o" unicode="o" horiz-adv-x="1343" 
d="M675 303q101 0 166 72t64 174v4q0 102 -67 176q-68 74 -169 74t-166 -72t-65 -174v-4q0 -102 68 -176t169 -74zM671 -27q-263 0 -438 168q-174 168 -174 408v4q0 240 175 410q174 170 438 170t438 -168t174 -408v-4q0 -240 -175 -410t-438 -170z" />
    <glyph glyph-name="p" unicode="p" horiz-adv-x="1384" 
d="M485 553q0 -109 66 -181t161 -71q94 0 160 71t66 181v4q0 109 -66 179t-160 71q-94 0 -161 -71q-66 -71 -66 -179v-4zM104 -328v1436h390v-147q140 172 340 172t344 -158t143 -416v-4q0 -262 -142 -421q-141 -159 -345 -159t-340 160v-463h-390z" />
    <glyph glyph-name="q" unicode="q" horiz-adv-x="1384" 
d="M672 301q94 0 160 72t65 180v4q0 109 -66 179q-67 70 -161 71q-94 0 -160 -71t-66 -179v-4q0 -109 67 -181t161 -71zM891 -328v475q-141 -172 -342 -172t-343 158t-143 416v4q-1 262 141 421t345 159t342 -160v135h389v-1436h-389z" />
    <glyph glyph-name="r" unicode="r" horiz-adv-x="876" 
d="M104 0v1108h390v-223q106 252 350 241v-409h-33q-317 0 -317 -373v-344h-390z" />
    <glyph glyph-name="s" unicode="s" horiz-adv-x="1052" 
d="M545 -25q-297 0 -525 164l146 236q193 -127 381 -127q98 0 98 59v4q0 29 -39 47t-181 58t-247 112q-106 72 -104 232v4q0 172 124 269t320 97q256 0 457 -129l-133 -245q-184 102 -328 102q-90 0 -90 -53v-4q0 -29 39 -48t141 -51q195 -55 294 -130t99 -222v-4
q-1 -178 -123 -274t-329 -97z" />
    <glyph glyph-name="t" unicode="t" horiz-adv-x="882" 
d="M545 -23q-373 0 -373 367v451h-131v313h131v281h389v-281h258v-313h-258v-375q0 -111 107 -111q70 0 147 37v-305q-112 -64 -270 -64z" />
    <glyph glyph-name="u" unicode="u" horiz-adv-x="1298" 
d="M482 -25q-186 0 -285 109q-100 109 -101 299v725h389v-600q0 -88 43 -137t115 -49t117 49t45 137v600h389v-1108h-389v152q-137 -177 -323 -177z" />
    <glyph glyph-name="v" unicode="v" horiz-adv-x="1280" 
d="M463 -8l-443 1116h410l213 -647l213 647h404l-443 -1116h-354z" />
    <glyph glyph-name="w" unicode="w" horiz-adv-x="1763" 
d="M362 -8l-337 1116h381l145 -557l170 561h321l172 -565l150 561h375l-342 -1116h-336l-180 575l-185 -575h-334z" />
    <glyph glyph-name="x" unicode="x" horiz-adv-x="1206" 
d="M16 0l373 559l-366 549h419l164 -272l164 272h412l-365 -547l373 -561h-418l-172 285l-174 -285h-410z" />
    <glyph glyph-name="y" unicode="y" horiz-adv-x="1282" 
d="M422 -334q-174 0 -346 96l121 273q188 -113 260 -15l-434 1088h407l221 -668l209 668h400l-406 -1081q-74 -197 -166 -279t-266 -82z" />
    <glyph glyph-name="z" unicode="z" horiz-adv-x="1153" 
d="M66 0v256l512 543h-494v309h1010v-256l-514 -543h514v-309h-1028z" />
    <glyph glyph-name="braceleft" unicode="{" horiz-adv-x="1003" 
d="M102 459h-32v258h32q125 0 184 44q58 44 58 157l-6 151q0 174 121 266t420 129l59 -227q-158 -35 -206 -83t-48 -148l6 -144q0 -211 -229 -274q229 -63 229 -275l-6 -143q0 -100 48 -148t206 -83l-59 -228q-299 37 -420 129t-121 266l6 152q0 113 -58 157t-184 44z" />
    <glyph glyph-name="bar" unicode="|" horiz-adv-x="727" 
d="M215 -262v1896h297v-1896h-297z" />
    <glyph glyph-name="braceright" unicode="}" horiz-adv-x="1003" 
d="M666 1069q0 -25 -7 -151q1 -113 59 -157t183 -44h33v-258h-33q-125 0 -183 -44t-59 -157l7 -152q0 -174 -121 -266t-420 -129l-59 228q158 35 206 83t47 148l-6 143q0 211 230 275q-229 63 -230 274l6 144q0 100 -48 148t-205 83l59 227q299 -37 420 -129t121 -266z" />
    <glyph glyph-name="asciitilde" unicode="~" horiz-adv-x="1034" 
d="M338 807q68 0 180 -40t146 -40t55 22q20 22 43 72l188 -51q-35 -158 -93 -232t-161 -73q-68 0 -182 40t-146 40q-34 -1 -54 -21t-42 -73l-188 51q35 158 93 232t161 73z" />
    <glyph glyph-name="uni00A0" unicode="&#xa0;" horiz-adv-x="567" 
 />
    <glyph glyph-name="exclamdown" unicode="&#xa1;" horiz-adv-x="663" 
d="M111 0v174l118 793h205l119 -793v-174h-442zM129 1085v349h406v-349h-406z" />
    <glyph glyph-name="cent" unicode="&#xa2;" horiz-adv-x="1177" 
d="M403 727q0 -170 115 -240l92 519q-92 -14 -149 -92t-58 -183v-4zM66 723v4q0 242 161 406q162 164 420 170l25 143h235l-30 -178q166 -61 258 -199l-238 -182q-45 55 -96 82l-94 -516q109 14 194 116l236 -172q-162 -236 -459 -243l-29 -166h-235l35 200
q-171 58 -277 204t-106 331z" />
    <glyph glyph-name="sterling" unicode="&#xa3;" horiz-adv-x="1308" 
d="M90 0v236l154 59v244h-154v278h154v105q0 254 141 395t391 141q291 0 477 -207l-241 -264q-98 117 -209 117q-76 0 -120 -49t-44 -133v-105h442v-278h-442v-226h600v-313h-1149z" />
    <glyph glyph-name="yen" unicode="&#xa5;" horiz-adv-x="1449" 
d="M528 0v190h-376v246h376v103h-376v245h282l-426 650h451l270 -471l270 471h443l-428 -650h284v-245h-376v-103h376v-246h-376v-190h-394z" />
    <glyph glyph-name="section" unicode="&#xa7;" horiz-adv-x="1282" 
d="M793 608q104 0 104 72v4q0 55 -207 104q-145 37 -203 37q-104 0 -104 -71v-4q0 -55 207 -105q148 -37 203 -37zM633 -27q-147 0 -275 45t-211 117l158 223q168 -121 336 -120q111 0 111 61v4q0 51 -199 92q-356 80 -432 188q-35 48 -35 111v4q0 158 186 226
q-96 74 -96 202v4q0 142 123 236t350 94q147 0 275 -45t211 -117l-158 -223q-168 121 -336 121q-111 0 -111 -61v-5q0 -51 174 -88q174 -38 265 -68t159 -90t68 -145v-4q0 -158 -186 -225q96 -74 96 -201v-4q0 -143 -123 -237t-350 -95z" />
    <glyph glyph-name="dieresis" unicode="&#xa8;" 
d="M133 1204v291h330v-291h-330zM561 1204v291h332v-291h-332z" />
    <glyph glyph-name="copyright" unicode="&#xa9;" horiz-adv-x="1699" 
d="M860 319q-178 0 -295 116t-116 288v4q0 170 117 289q118 119 314 119t318 -162l-166 -131q-76 92 -164 92t-140 -60t-52 -145v-4q0 -88 52 -146q52 -59 140 -59t168 94l168 -118q-131 -177 -344 -177zM195 713q1 -274 189 -467t466 -193t466 195q189 195 189 469v4
q0 274 -188 467q-188 192 -466 192t-467 -194t-189 -469v-4zM848 -29q-309 0 -524 218t-215 524v4q0 305 217 525t526 220t524 -218t215 -523v-4q0 -305 -217 -525t-526 -221z" />
    <glyph glyph-name="ordfeminine" unicode="&#xaa;" horiz-adv-x="798" 
d="M297 1014q0 -66 81 -66q40 0 70 28t29 73v26q-103 37 -153 -4q-27 -20 -27 -53v-4zM84 553v158h612v-158h-612zM306 813q-100 0 -159 49q-57 49 -57 137v5q0 92 65 141t161 49t159 -23v9q0 100 -123 100q-74 0 -168 -35l-43 152q115 47 259 47t216 -70q71 -70 70 -200
v-349h-213v66q-67 -78 -167 -78z" />
    <glyph glyph-name="guillemotleft" unicode="&#xab;" horiz-adv-x="1292" 
d="M389 61l-328 439v98l328 438l281 -137l-267 -350l267 -348zM952 61l-360 480v16l360 479l279 -137l-266 -350l266 -348z" />
    <glyph glyph-name="registered" unicode="&#xae;" horiz-adv-x="753" 
d="M334 1112h59q53 0 53 41t-51 41h-61v-82zM399 1292q164 0 164 -140q0 -75 -76 -108l88 -129h-133l-73 109h-35v-109h-117v377h182zM377 776q133 0 224 94t91 226v2q0 131 -91 224t-224 93t-224 -94t-92 -225v-2q-1 -130 91 -224t225 -94zM733 1096q-1 -147 -105 -253
t-252 -106q-148 1 -252 105q-103 104 -104 252v2q0 146 104 252t254 106q149 0 252 -104t103 -252v-2z" />
    <glyph glyph-name="macron" unicode="&#xaf;" 
d="M129 1219v233h768v-233h-768z" />
    <glyph glyph-name="degree" unicode="&#xb0;" horiz-adv-x="966" 
d="M483 909q74 0 123 50t49 122v4q0 72 -50 123q-50 52 -122 52t-122 -52t-50 -123v-4q0 -72 49 -122t123 -50zM483 721q-153 0 -263 106t-109 254v4q0 147 111 256q112 109 262 109t260 -109q112 -109 112 -256v-4q0 -147 -110 -253t-263 -107z" />
    <glyph glyph-name="plusminus" unicode="&#xb1;" horiz-adv-x="1310" 
d="M1186 0h-1061v287h1061v-287zM1186 770l-369 2l2 -344h-327l2 344l-369 -2v309l369 -2l-2 344h327l-2 -344l369 2v-309z" />
    <glyph glyph-name="acute" unicode="&#xb4;" 
d="M270 1204l213 377l361 -117l-303 -260h-271z" />
    <glyph glyph-name="paragraph" unicode="&#xb6;" horiz-adv-x="1220" 
d="M694 0v451h-43q-272 0 -439 127t-167 358v4q0 236 162 365t438 129h449v-1434h-400z" />
    <glyph glyph-name="periodcentered" unicode="&#xb7;" horiz-adv-x="581" 
d="M88 440v400h406v-400h-406z" />
    <glyph glyph-name="cedilla" unicode="&#xb8;" 
d="M532 -354l-307 131l195 264h252z" />
    <glyph glyph-name="ordmasculine" unicode="&#xba;" horiz-adv-x="798" 
d="M401 991q55 0 88 37t33 94v4q0 58 -35 98t-89 40t-88 -38t-34 -96v-4q0 -57 35 -96t90 -39zM104 553v158h590v-158h-590zM731 1126q1 -133 -95 -225t-238 -92t-236 91t-94 222v4q0 134 95 226t237 92t236 -91t95 -223v-4z" />
    <glyph glyph-name="guillemotright" unicode="&#xbb;" horiz-adv-x="1292" 
d="M342 61l-281 138l267 350l-267 348l281 139l358 -479v-16zM903 61l-278 138l266 350l-266 348l278 139l328 -438v-98z" />
    <glyph glyph-name="questiondown" unicode="&#xbf;" horiz-adv-x="1105" 
d="M555 -23q-227 0 -369 117q-141 117 -141 314v4q1 182 105 280t294 144l23 131h248l53 -342l-18 -19q-322 -26 -322 -164v-2q0 -53 41 -83t115 -29q145 0 297 135l206 -270q-215 -216 -532 -216zM395 1085v349h406v-349h-406z" />
    <glyph glyph-name="Agrave" unicode="&#xc0;" horiz-adv-x="1628" 
d="M745 1884l224 -332h-291l-303 220zM649 565h322l-160 408zM12 0l611 1444h383l610 -1444h-426l-105 256h-553l-102 -256h-418z" />
    <glyph glyph-name="Aacute" unicode="&#xc1;" horiz-adv-x="1628" 
d="M662 1552l221 332l370 -112l-303 -220h-288zM649 565h322l-160 408zM12 0l611 1444h383l610 -1444h-426l-105 256h-553l-102 -256h-418z" />
    <glyph glyph-name="Acircumflex" unicode="&#xc2;" horiz-adv-x="1628" 
d="M389 1546l252 305h346l252 -305h-266l-162 109l-162 -109h-260zM649 565h322l-160 408zM12 0l611 1444h383l610 -1444h-426l-105 256h-553l-102 -256h-418z" />
    <glyph glyph-name="Atilde" unicode="&#xc3;" horiz-adv-x="1628" 
d="M980 1812q34 0 56 22t43 73l187 -52q-34 -155 -94 -229t-162 -74q-70 0 -192 40t-154 40q-63 0 -101 -96l-186 51q35 158 95 232t163 73q67 0 189 -40t156 -40zM649 565h322l-160 408zM12 0l611 1444h383l610 -1444h-426l-105 256h-553l-102 -256h-418z" />
    <glyph glyph-name="Adieresis" unicode="&#xc4;" horiz-adv-x="1628" 
d="M418 1552v283h338v-283h-338zM870 1552v283h338v-283h-338zM649 565h322l-160 408zM12 0l611 1444h383l610 -1444h-426l-105 256h-553l-102 -256h-418z" />
    <glyph glyph-name="Aring" unicode="&#xc5;" horiz-adv-x="1628" 
d="M668 1518q0 -58 41 -96t107 -38t106 38q41 38 41 96t-41 95q-41 38 -107 38q-67 0 -107 -38t-40 -95zM649 565h322l-160 408zM526 1528q0 100 84 174q84 72 205 72t205 -73t84 -175t-62 -170l574 -1356h-426l-105 256h-553l-102 -256h-418l574 1358q-60 70 -60 170z" />
    <glyph glyph-name="AE" unicode="&#xc6;" horiz-adv-x="2177" 
d="M987 565v543h-24l-279 -543h303zM2089 1434v-338h-715v-217h643v-314h-643v-227h725v-338h-1112v256h-463l-133 -256h-401l758 1434h1341z" />
    <glyph glyph-name="Ccedilla" unicode="&#xc7;" horiz-adv-x="1497" 
d="M78 717q0 315 216 530t540 215q393 0 608 -299l-299 -231q-135 168 -314 168q-147 0 -244 -110t-98 -269v-4q1 -164 97 -274t245 -109q105 0 179 44t145 130l299 -213q-102 -141 -234 -223t-325 -97l-115 -329l-307 131l160 217q-244 59 -399 256t-154 463v4z" />
    <glyph glyph-name="Egrave" unicode="&#xc8;" horiz-adv-x="1368" 
d="M127 0v1434h1153v-338h-760v-217h688v-314h-688v-227h770v-338h-1163zM639 1864l223 -332h-291l-303 219z" />
    <glyph glyph-name="Eacute" unicode="&#xc9;" horiz-adv-x="1368" 
d="M127 0v1434h1153v-338h-760v-217h688v-314h-688v-227h770v-338h-1163zM555 1532l221 332l371 -113l-303 -219h-289z" />
    <glyph glyph-name="Ecircumflex" unicode="&#xca;" horiz-adv-x="1368" 
d="M283 1532l252 305h346l252 -305h-267l-161 108l-162 -108h-260zM127 0v1434h1153v-338h-760v-217h688v-314h-688v-227h770v-338h-1163z" />
    <glyph glyph-name="Edieresis" unicode="&#xcb;" horiz-adv-x="1368" 
d="M127 0v1434h1153v-338h-760v-217h688v-314h-688v-227h770v-338h-1163zM311 1532v283h338v-283h-338zM764 1532v283h338v-283h-338z" />
    <glyph glyph-name="Igrave" unicode="&#xcc;" horiz-adv-x="669" 
d="M266 1864l223 -332h-290l-303 219zM135 0v1434h400v-1434h-400z" />
    <glyph glyph-name="Iacute" unicode="&#xcd;" horiz-adv-x="669" 
d="M182 1532l221 332l371 -113l-303 -219h-289zM135 0v1434h400v-1434h-400z" />
    <glyph glyph-name="Icircumflex" unicode="&#xce;" horiz-adv-x="669" 
d="M-88 1532l252 305h346l252 -305h-266l-162 108l-162 -108h-260zM135 0v1434h400v-1434h-400z" />
    <glyph glyph-name="Idieresis" unicode="&#xcf;" horiz-adv-x="669" 
d="M-59 1532v283h338v-283h-338zM393 1532v283h338v-283h-338zM135 0v1434h400v-1434h-400z" />
    <glyph glyph-name="Eth" unicode="&#xd0;" horiz-adv-x="1669" 
d="M612 342h174q184 0 291 98q106 98 107 275v4q0 176 -106 275t-292 100h-174v-220h244v-305h-244v-227zM227 0v565h-164v314h164v555h555q375 0 591 -196t216 -513v-4q0 -317 -219 -519t-596 -202h-547z" />
    <glyph glyph-name="Ntilde" unicode="&#xd1;" horiz-adv-x="1607" 
d="M127 0v1434h371l589 -758v758h394v-1434h-348l-613 786v-786h-393zM625 1872q67 0 189 -40t156 -40t56 22t43 72l186 -51q-33 -155 -93 -229t-163 -74q-71 0 -191 40t-154 40q-64 0 -101 -96l-186 51q35 157 95 231t163 74z" />
    <glyph glyph-name="Ograve" unicode="&#xd2;" horiz-adv-x="1701" 
d="M852 330q160 0 262 112t103 271v4q-1 159 -105 273t-264 114t-261 -112t-102 -271v-4q-1 -159 103 -273t264 -114zM848 -29q-330 0 -550 215t-220 527v4q0 311 222 528t552 217t550 -215t220 -526v-4q0 -311 -222 -529t-552 -217zM782 1884l224 -332h-291l-303 220z" />
    <glyph glyph-name="Oacute" unicode="&#xd3;" horiz-adv-x="1701" 
d="M852 330q160 0 262 112t103 271v4q-1 159 -105 273t-264 114t-261 -112t-102 -271v-4q-1 -159 103 -273t264 -114zM848 -29q-330 0 -550 215t-220 527v4q0 311 222 528t552 217t550 -215t220 -526v-4q0 -311 -222 -529t-552 -217zM698 1552l222 332l370 -112l-303 -220
h-289z" />
    <glyph glyph-name="Ocircumflex" unicode="&#xd4;" horiz-adv-x="1701" 
d="M426 1552l252 306h346l252 -306h-266l-162 109l-162 -109h-260zM852 330q160 0 262 112t103 271v4q-1 159 -105 273t-264 114t-261 -112t-102 -271v-4q-1 -159 103 -273t264 -114zM848 -29q-330 0 -550 215t-220 527v4q0 311 222 528t552 217t550 -215t220 -526v-4
q0 -311 -222 -529t-552 -217z" />
    <glyph glyph-name="Otilde" unicode="&#xd5;" horiz-adv-x="1701" 
d="M852 330q160 0 262 112t103 271v4q-1 159 -105 273t-264 114t-261 -112t-102 -271v-4q-1 -159 103 -273t264 -114zM848 -29q-330 0 -550 215t-220 527v4q0 311 222 528t552 217t550 -215t220 -526v-4q0 -311 -222 -529t-552 -217zM1017 1812q33 0 55 22t44 73l187 -52
q-33 -155 -93 -229t-163 -74q-68 0 -191 40q-124 40 -156 40q-63 0 -100 -96l-186 51q35 158 95 232t163 73q68 0 190 -40t155 -40z" />
    <glyph glyph-name="Odieresis" unicode="&#xd6;" horiz-adv-x="1701" 
d="M852 330q160 0 262 112t103 271v4q-1 159 -105 273t-264 114t-261 -112t-102 -271v-4q-1 -159 103 -273t264 -114zM848 -29q-330 0 -550 215t-220 527v4q0 311 222 528t552 217t550 -215t220 -526v-4q0 -311 -222 -529t-552 -217zM455 1552v283h338v-283h-338zM907 1552
v283h338v-283h-338z" />
    <glyph glyph-name="multiply" unicode="&#xd7;" horiz-adv-x="1310" 
d="M958 182l-305 314l-305 -314l-231 232l313 305l-315 305l237 238l307 -314l306 314l231 -232l-313 -305l313 -305z" />
    <glyph glyph-name="Oslash" unicode="&#xd8;" horiz-adv-x="1701" 
d="M852 322q164 0 267 114t104 277v4q0 111 -49 198l-488 -555q78 -38 166 -38zM848 1112q-162 0 -265 -115t-104 -276v-4q0 -111 49 -199l486 555q-74 39 -166 39zM848 -29q-223 0 -406 109l-80 -90h-301l205 229q-188 209 -188 494v4q0 311 222 528t552 217
q227 0 405 -108l80 90h301l-202 -232q186 -207 186 -491v-4q0 -311 -222 -529t-552 -217z" />
    <glyph glyph-name="Ugrave" unicode="&#xd9;" horiz-adv-x="1552" 
d="M1444 639q0 -336 -178 -501t-493 -165q-316 0 -490 164t-174 492v805h403v-797q0 -153 71 -229t193 -76t194 74q71 74 70 221v807h404v-795zM707 1864l223 -332h-291l-303 219z" />
    <glyph glyph-name="Uacute" unicode="&#xda;" horiz-adv-x="1552" 
d="M1444 639q0 -336 -178 -501t-493 -165q-316 0 -490 164t-174 492v805h403v-797q0 -153 71 -229t193 -76t194 74q71 74 70 221v807h404v-795zM623 1532l221 332l370 -113l-303 -219h-288z" />
    <glyph glyph-name="Ucircumflex" unicode="&#xdb;" horiz-adv-x="1552" 
d="M352 1532l252 305h346l252 -305h-266l-162 108l-162 -108h-260zM1444 639q0 -336 -178 -501t-493 -165q-316 0 -490 164t-174 492v805h403v-797q0 -153 71 -229t193 -76t194 74q71 74 70 221v807h404v-795z" />
    <glyph glyph-name="Udieresis" unicode="&#xdc;" horiz-adv-x="1552" 
d="M1444 639q0 -336 -178 -501t-493 -165q-316 0 -490 164t-174 492v805h403v-797q0 -153 71 -229t193 -76t194 74q71 74 70 221v807h404v-795zM381 1532v283h338v-283h-338zM834 1532v283h337v-283h-337z" />
    <glyph glyph-name="Yacute" unicode="&#xdd;" horiz-adv-x="1480" 
d="M588 1532l221 332l371 -113l-303 -219h-289zM541 0v537l-545 897h453l294 -523l297 523h445l-545 -891v-543h-399z" />
    <glyph glyph-name="Thorn" unicode="&#xde;" horiz-adv-x="1396" 
d="M524 532h191q103 0 165 52t62 135v4q0 90 -61 139t-168 49h-189v-379zM127 0v1434h397v-205h219q275 0 435 -131t159 -367v-4q0 -246 -170 -379t-444 -133h-199v-215h-397z" />
    <glyph glyph-name="germandbls" unicode="&#xdf;" horiz-adv-x="1300" 
d="M860 438v4q0 72 -62 114t-169 52v207q168 84 168 219v4q0 68 -40 109t-108 41q-69 0 -113 -52t-44 -147v-989h-388v981q0 244 146 388t395 144q250 1 389 -121t140 -307v-4q0 -227 -213 -336q121 -39 203 -125t81 -223v-4q0 -199 -172 -307t-444 -92v278q111 6 171 50
t60 116z" />
    <glyph glyph-name="agrave" unicode="&#xe0;" horiz-adv-x="1226" 
d="M500 1212l-301 261l360 116l211 -377h-270zM574 219q74 0 126 50q53 50 54 132v52q-68 29 -152 29t-131 -39q-47 -38 -47 -99v-4q0 -55 38 -88t112 -33zM422 -25q-164 1 -268 91t-105 251v5q0 168 117 258t317 90q145 0 267 -43v18q0 180 -222 180q-150 0 -305 -61
l-80 274q209 86 449 86q287 0 422 -135q119 -117 119 -352v-637h-385v115q-125 -140 -326 -140z" />
    <glyph glyph-name="aacute" unicode="&#xe1;" horiz-adv-x="1226" 
d="M473 1212l213 377l361 -116l-304 -261h-270zM574 219q74 0 126 50q53 50 54 132v52q-68 29 -152 29t-131 -39q-47 -38 -47 -99v-4q0 -55 38 -88t112 -33zM422 -25q-164 1 -268 91t-105 251v5q0 168 117 258t317 90q145 0 267 -43v18q0 180 -222 180q-150 0 -305 -61
l-80 274q209 86 449 86q287 0 422 -135q119 -117 119 -352v-637h-385v115q-125 -140 -326 -140z" />
    <glyph glyph-name="acircumflex" unicode="&#xe2;" horiz-adv-x="1226" 
d="M201 1212l262 336h315l262 -336h-249l-173 125l-172 -125h-245zM574 219q74 0 126 50q53 50 54 132v52q-68 29 -152 29t-131 -39q-47 -38 -47 -99v-4q0 -55 38 -88t112 -33zM422 -25q-164 1 -268 91t-105 251v5q0 168 117 258t317 90q145 0 267 -43v18q0 180 -222 180
q-150 0 -305 -61l-80 274q209 86 449 86q287 0 422 -135q119 -117 119 -352v-637h-385v115q-125 -140 -326 -140z" />
    <glyph glyph-name="atilde" unicode="&#xe3;" horiz-adv-x="1226" 
d="M807 1212q-69 0 -181 40t-146 40t-54 -22t-43 -74l-186 51q35 158 93 232t161 73q71 0 183 -40t144 -40t53 22q20 22 43 73l187 -51q-33 -156 -92 -230t-162 -74zM574 219q74 0 126 50q53 50 54 132v52q-68 29 -152 29t-131 -39q-47 -38 -47 -99v-4q0 -55 38 -88t112 -33
zM422 -25q-164 1 -268 91t-105 251v5q0 168 117 258t317 90q145 0 267 -43v18q0 180 -222 180q-150 0 -305 -61l-80 274q209 86 449 86q287 0 422 -135q119 -117 119 -352v-637h-385v115q-125 -140 -326 -140z" />
    <glyph glyph-name="adieresis" unicode="&#xe4;" horiz-adv-x="1226" 
d="M242 1212v291h329v-291h-329zM670 1212v291h331v-291h-331zM574 219q74 0 126 50q53 50 54 132v52q-68 29 -152 29t-131 -39q-47 -38 -47 -99v-4q0 -55 38 -88t112 -33zM422 -25q-164 1 -268 91t-105 251v5q0 168 117 258t317 90q145 0 267 -43v18q0 180 -222 180
q-150 0 -305 -61l-80 274q209 86 449 86q287 0 422 -135q119 -117 119 -352v-637h-385v115q-125 -140 -326 -140z" />
    <glyph glyph-name="aring" unicode="&#xe5;" horiz-adv-x="1226" 
d="M481 1475q0 -59 41 -101q42 -42 100 -41q58 0 99 42q41 43 41 101t-41 100t-99 42t-100 -42t-41 -101zM350 1475q0 109 79 185t193 75q114 0 192 -76q78 -77 79 -185q0 -108 -79 -184q-78 -76 -192 -76t-193 76t-79 185zM574 219q74 0 126 50q53 50 54 132v52
q-68 29 -152 29t-131 -39q-47 -38 -47 -99v-4q0 -55 38 -88t112 -33zM422 -25q-164 1 -268 91t-105 251v5q0 168 117 258t317 90q145 0 267 -43v18q0 180 -222 180q-150 0 -305 -61l-80 274q209 86 449 86q287 0 422 -135q119 -117 119 -352v-637h-385v115
q-125 -140 -326 -140z" />
    <glyph glyph-name="ae" unicode="&#xe6;" horiz-adv-x="1925" 
d="M567 223q111 0 224 90q-31 72 -39 140q-68 29 -151 29t-130 -39q-47 -38 -47 -99v-4q0 -53 40 -85t103 -32zM1307 846q-79 0 -129 -54t-64 -147h385q-10 93 -62 147t-130 54zM461 -25q-178 -1 -295 89t-117 253v5q0 168 117 258t317 90q145 0 267 -43v18q0 180 -222 180
q-150 0 -305 -61l-80 274q209 86 454 86t370 -125q139 133 346 134q266 1 408 -173t143 -434q0 -27 -4 -80h-742q49 -182 240 -182q131 0 246 113l215 -178q-178 -225 -463 -225t-451 165q-215 -164 -444 -164z" />
    <glyph glyph-name="ccedilla" unicode="&#xe7;" horiz-adv-x="1165" 
d="M59 549v4q0 240 168 409t426 168q317 0 473 -247l-264 -197q-84 117 -207 117q-92 0 -154 -72t-63 -174v-4q0 -109 62 -181t168 -71q106 0 204 115l261 -189q-152 -223 -418 -250l-117 -331l-307 131l164 223q-176 57 -286 208t-110 341z" />
    <glyph glyph-name="egrave" unicode="&#xe8;" horiz-adv-x="1241" 
d="M502 1212l-301 261l360 116l211 -377h-270zM623 846q-79 0 -129 -54t-66 -147h385q-10 93 -61 147t-129 54zM653 -27q-262 0 -428 160t-166 416v4q0 246 158 413q157 167 415 167t402 -172t144 -435q0 -53 -2 -80h-742q47 -182 240 -182q131 0 246 113l215 -178
q-179 -226 -482 -226z" />
    <glyph glyph-name="eacute" unicode="&#xe9;" horiz-adv-x="1241" 
d="M623 846q-79 0 -129 -54t-66 -147h385q-10 93 -61 147t-129 54zM653 -27q-262 0 -428 160t-166 416v4q0 246 158 413q157 167 415 167t402 -172t144 -435q0 -53 -2 -80h-742q47 -182 240 -182q131 0 246 113l215 -178q-179 -226 -482 -226zM475 1212l213 377l361 -116
l-304 -261h-270z" />
    <glyph glyph-name="ecircumflex" unicode="&#xea;" horiz-adv-x="1241" 
d="M623 846q-79 0 -129 -54t-66 -147h385q-10 93 -61 147t-129 54zM653 -27q-262 0 -428 160t-166 416v4q0 246 158 413q157 167 415 167t402 -172t144 -435q0 -53 -2 -80h-742q47 -182 240 -182q131 0 246 113l215 -178q-179 -226 -482 -226zM203 1212l262 336h315
l262 -336h-249l-172 125l-172 -125h-246z" />
    <glyph glyph-name="edieresis" unicode="&#xeb;" horiz-adv-x="1241" 
d="M623 846q-79 0 -129 -54t-66 -147h385q-10 93 -61 147t-129 54zM653 -27q-262 0 -428 160t-166 416v4q0 246 158 413q157 167 415 167t402 -172t144 -435q0 -53 -2 -80h-742q47 -182 240 -182q131 0 246 113l215 -178q-179 -226 -482 -226zM244 1212v291h329v-291h-329z
M672 1212v291h332v-291h-332z" />
    <glyph glyph-name="igrave" unicode="&#xec;" horiz-adv-x="616" 
d="M186 1204l-301 260l361 117l211 -377h-271zM113 0v1108h389v-1108h-389z" />
    <glyph glyph-name="iacute" unicode="&#xed;" horiz-adv-x="616" 
d="M113 0v1108h389v-1108h-389zM160 1204l213 377l360 -117l-303 -260h-270z" />
    <glyph glyph-name="icircumflex" unicode="&#xee;" horiz-adv-x="616" 
d="M113 0v1108h389v-1108h-389zM-113 1204l263 336h315l262 -336h-250l-172 125l-172 -125h-246z" />
    <glyph glyph-name="idieresis" unicode="&#xef;" horiz-adv-x="616" 
d="M113 0v1108h389v-1108h-389zM-72 1204v291h330v-291h-330zM356 1204v291h332v-291h-332z" />
    <glyph glyph-name="eth" unicode="&#xf0;" horiz-adv-x="1345" 
d="M675 303q103 0 168 71t64 173v4q0 104 -67 177q-68 73 -171 73t-167 -71t-64 -175v-4q0 -102 67 -175t170 -73zM1282 627v-4q0 -283 -168 -466t-439 -183t-443 167q-171 168 -171 430v4q1 231 135 381t336 150q133 0 259 -76q-61 94 -156 189l-246 -58l-59 170l143 33
q-84 68 -182 131h489l62 -49l229 53l57 -168l-131 -31q285 -309 285 -673z" />
    <glyph glyph-name="ntilde" unicode="&#xf1;" horiz-adv-x="1298" 
d="M838 1212q-68 0 -181 40t-147 40t-53 -22q-20 -22 -43 -74l-187 51q35 158 93 232t161 73q68 0 181 -40q112 -40 146 -40t54 22t43 73l187 -51q-32 -156 -92 -230t-162 -74zM104 0v1108h390v-156q139 180 323 180q185 0 285 -109q100 -110 100 -298v-725h-389v600
q0 88 -42 137t-115 49q-74 0 -118 -49t-44 -137v-600h-390z" />
    <glyph glyph-name="ograve" unicode="&#xf2;" horiz-adv-x="1343" 
d="M549 1212l-301 261l360 116l211 -377h-270zM675 303q101 0 166 72t64 174v4q0 102 -67 176q-68 74 -169 74t-166 -72t-65 -174v-4q0 -102 68 -176t169 -74zM671 -27q-263 0 -438 168q-174 168 -174 408v4q0 240 175 410q174 170 438 170t438 -168t174 -408v-4
q0 -240 -175 -410t-438 -170z" />
    <glyph glyph-name="oacute" unicode="&#xf3;" horiz-adv-x="1343" 
d="M675 303q101 0 166 72t64 174v4q0 102 -67 176q-68 74 -169 74t-166 -72t-65 -174v-4q0 -102 68 -176t169 -74zM671 -27q-263 0 -438 168q-174 168 -174 408v4q0 240 175 410q174 170 438 170t438 -168t174 -408v-4q0 -240 -175 -410t-438 -170zM522 1212l213 377
l361 -116l-303 -261h-271z" />
    <glyph glyph-name="ocircumflex" unicode="&#xf4;" horiz-adv-x="1343" 
d="M675 303q101 0 166 72t64 174v4q0 102 -67 176q-68 74 -169 74t-166 -72t-65 -174v-4q0 -102 68 -176t169 -74zM671 -27q-263 0 -438 168q-174 168 -174 408v4q0 240 175 410q174 170 438 170t438 -168t174 -408v-4q0 -240 -175 -410t-438 -170zM252 1212l262 336h315
l263 -336h-250l-172 125l-172 -125h-246z" />
    <glyph glyph-name="otilde" unicode="&#xf5;" horiz-adv-x="1343" 
d="M856 1212q-68 0 -180 40t-146 40t-55 -21q-20 -22 -43 -75l-186 51q35 158 93 232t161 73q70 0 182 -40t144 -40q34 0 55 22q20 22 43 73l186 -51q-33 -156 -92 -230t-162 -74zM675 303q101 0 166 72t64 174v4q0 102 -67 176q-68 74 -169 74t-166 -72t-65 -174v-4
q0 -102 68 -176t169 -74zM671 -27q-263 0 -438 168q-174 168 -174 408v4q0 240 175 410q174 170 438 170t438 -168t174 -408v-4q0 -240 -175 -410t-438 -170z" />
    <glyph glyph-name="odieresis" unicode="&#xf6;" horiz-adv-x="1343" 
d="M675 303q101 0 166 72t64 174v4q0 102 -67 176q-68 74 -169 74t-166 -72t-65 -174v-4q0 -102 68 -176t169 -74zM671 -27q-263 0 -438 168q-174 168 -174 408v4q0 240 175 410q174 170 438 170t438 -168t174 -408v-4q0 -240 -175 -410t-438 -170zM293 1212v291h330v-291
h-330zM721 1212v291h332v-291h-332z" />
    <glyph glyph-name="divide" unicode="&#xf7;" horiz-adv-x="1310" 
d="M473 104v330h365v-330h-365zM1194 565h-1077v312h1077v-312zM473 1008v329h365v-329h-365z" />
    <glyph glyph-name="oslash" unicode="&#xf8;" horiz-adv-x="1343" 
d="M674 287q108 0 178 77t70 185v4q0 51 -21 106l-317 -356q43 -16 90 -16zM670 819q-108 0 -178 -77t-70 -185v-4q0 -52 20 -107l320 355q-39 18 -92 18zM670 -27q-168 0 -312 78l-57 -61h-272l170 188q-139 158 -140 371v4q0 240 175 410t440 170q170 0 309 -78l59 63h273
q-129 -141 -170 -188q139 -158 139 -373v-4q0 -240 -175 -410t-439 -170z" />
    <glyph glyph-name="ugrave" unicode="&#xf9;" horiz-adv-x="1298" 
d="M522 1204l-301 260l361 117l211 -377h-271zM482 -25q-186 0 -285 109q-100 109 -101 299v725h389v-600q0 -88 43 -137t115 -49t117 49t45 137v600h389v-1108h-389v152q-137 -177 -323 -177z" />
    <glyph glyph-name="uacute" unicode="&#xfa;" horiz-adv-x="1298" 
d="M482 -25q-186 0 -285 109q-100 109 -101 299v725h389v-600q0 -88 43 -137t115 -49t117 49t45 137v600h389v-1108h-389v152q-137 -177 -323 -177zM496 1204l213 377l360 -117l-303 -260h-270z" />
    <glyph glyph-name="ucircumflex" unicode="&#xfb;" horiz-adv-x="1298" 
d="M482 -25q-186 0 -285 109q-100 109 -101 299v725h389v-600q0 -88 43 -137t115 -49t117 49t45 137v600h389v-1108h-389v152q-137 -177 -323 -177zM223 1204l262 336h316l262 -336h-250l-172 125l-172 -125h-246z" />
    <glyph glyph-name="udieresis" unicode="&#xfc;" horiz-adv-x="1298" 
d="M482 -25q-186 0 -285 109q-100 109 -101 299v725h389v-600q0 -88 43 -137t115 -49t117 49t45 137v600h389v-1108h-389v152q-137 -177 -323 -177zM264 1204v291h330v-291h-330zM692 1204v291h332v-291h-332z" />
    <glyph glyph-name="yacute" unicode="&#xfd;" horiz-adv-x="1282" 
d="M498 1204l213 377l360 -117l-303 -260h-270zM422 -334q-174 0 -346 96l121 273q188 -113 260 -15l-434 1088h407l221 -668l209 668h400l-406 -1081q-74 -197 -166 -279t-266 -82z" />
    <glyph glyph-name="thorn" unicode="&#xfe;" horiz-adv-x="1384" 
d="M713 301q97 0 161 71t64 181v4q0 109 -66 179t-160 71q-94 0 -161 -71q-66 -71 -66 -179v-4q0 -109 66 -181t162 -71zM104 -328v1823h390v-534q140 172 340 172t344 -158t143 -416v-4q0 -262 -142 -421q-141 -159 -345 -159t-340 160v-463h-390z" />
    <glyph glyph-name="ydieresis" unicode="&#xff;" horiz-adv-x="1282" 
d="M268 1204v291h330v-291h-330zM696 1204v291h332v-291h-332zM422 -334q-174 0 -346 96l121 273q188 -113 260 -15l-434 1088h407l221 -668l209 668h400l-406 -1081q-74 -197 -166 -279t-266 -82z" />
    <glyph glyph-name="Amacron" unicode="&#x100;" horiz-adv-x="1628" 
d="M406 1567v239h815v-239h-815zM649 565h322l-160 408zM12 0l611 1444h383l610 -1444h-426l-105 256h-553l-102 -256h-418z" />
    <glyph glyph-name="amacron" unicode="&#x101;" horiz-adv-x="1226" 
d="M238 1227v233h768v-233h-768zM574 219q74 0 126 50q53 50 54 132v52q-68 29 -152 29t-131 -39q-47 -38 -47 -99v-4q0 -55 38 -88t112 -33zM422 -25q-164 1 -268 91t-105 251v5q0 168 117 258t317 90q145 0 267 -43v18q0 180 -222 180q-150 0 -305 -61l-80 274
q209 86 449 86q287 0 422 -135q119 -117 119 -352v-637h-385v115q-125 -140 -326 -140z" />
    <glyph glyph-name="Abreve" unicode="&#x102;" horiz-adv-x="1628" 
d="M815 1548q-172 0 -277 79t-126 231h235q39 -92 168 -92t170 92h234q-20 -152 -126 -231t-278 -79zM649 565h322l-160 408zM12 0l611 1444h383l610 -1444h-426l-105 256h-553l-102 -256h-418z" />
    <glyph glyph-name="abreve" unicode="&#x103;" horiz-adv-x="1226" 
d="M621 1208q-172 0 -281 89t-123 251h227q40 -118 176 -118t177 118h227q-14 -162 -122 -251t-281 -89zM574 219q74 0 126 50q53 50 54 132v52q-68 29 -152 29t-131 -39q-47 -38 -47 -99v-4q0 -55 38 -88t112 -33zM422 -25q-164 1 -268 91t-105 251v5q0 168 117 258t317 90
q145 0 267 -43v18q0 180 -222 180q-150 0 -305 -61l-80 274q209 86 449 86q287 0 422 -135q119 -117 119 -352v-637h-385v115q-125 -140 -326 -140z" />
    <glyph glyph-name="Aogonek" unicode="&#x104;" horiz-adv-x="1628" 
d="M649 565h322l-160 408zM1196 -172q0 90 82 172h-88l-105 256h-553l-102 -256h-418l611 1444h383l610 -1444h-90q-45 -51 -45 -96q0 -80 147 -74v-166q-192 -26 -312 24t-120 140z" />
    <glyph glyph-name="aogonek" unicode="&#x105;" horiz-adv-x="1226" 
d="M574 219q74 0 126 50q53 50 54 132v52q-68 29 -152 29t-131 -39q-47 -38 -47 -99v-4q0 -55 38 -88t112 -33zM748 0v115q-125 -139 -326 -140q-164 1 -268 91t-105 251v5q0 168 117 258t317 90q145 0 267 -43v18q0 180 -222 180q-150 0 -305 -61l-80 274q209 86 449 86
q287 0 422 -135q119 -117 119 -352v-637h-93q-45 -51 -45 -96q0 -80 148 -74v-166q-193 -26 -313 24t-120 140t83 172h-45z" />
    <glyph glyph-name="Cacute" unicode="&#x106;" horiz-adv-x="1497" 
d="M664 1552l221 332l370 -112l-303 -220h-288zM817 -29q-309 0 -524 212t-215 530v4q0 315 216 530t540 215q393 0 608 -299l-299 -231q-135 168 -314 168q-147 0 -244 -110t-98 -269v-4q1 -164 97 -274t245 -109q105 0 179 44t145 130l299 -213q-112 -154 -262 -239
t-373 -85z" />
    <glyph glyph-name="cacute" unicode="&#x107;" horiz-adv-x="1165" 
d="M639 -27q-248 0 -414 169t-166 407v4q0 240 168 409t426 168q317 0 473 -247l-264 -197q-84 117 -207 117q-92 0 -154 -72t-63 -174v-4q0 -109 62 -181t168 -71q106 0 204 115l261 -189q-172 -254 -494 -254zM498 1212l213 377l360 -116l-303 -261h-270z" />
    <glyph glyph-name="Cdotaccent" unicode="&#x10a;" horiz-adv-x="1497" 
d="M817 -29q-309 0 -524 212t-215 530v4q0 315 216 530t540 215q393 0 608 -299l-299 -231q-135 168 -314 168q-147 0 -244 -110t-98 -269v-4q1 -164 97 -274t245 -109q105 0 179 44t145 130l299 -213q-112 -154 -262 -239t-373 -85zM643 1552v283h348v-283h-348z" />
    <glyph glyph-name="cdotaccent" unicode="&#x10b;" horiz-adv-x="1165" 
d="M477 1212v291h342v-291h-342zM639 -27q-248 0 -414 169t-166 407v4q0 240 168 409t426 168q317 0 473 -247l-264 -197q-84 117 -207 117q-92 0 -154 -72t-63 -174v-4q0 -109 62 -181t168 -71q106 0 204 115l261 -189q-172 -254 -494 -254z" />
    <glyph glyph-name="Ccaron" unicode="&#x10c;" horiz-adv-x="1497" 
d="M1243 1858l-252 -306h-346l-252 306h264l162 -109l162 109h262zM817 -29q-309 0 -524 212t-215 530v4q0 315 216 530t540 215q393 0 608 -299l-299 -231q-135 168 -314 168q-147 0 -244 -110t-98 -269v-4q1 -164 97 -274t245 -109q105 0 179 44t145 130l299 -213
q-112 -154 -262 -239t-373 -85z" />
    <glyph glyph-name="ccaron" unicode="&#x10d;" horiz-adv-x="1165" 
d="M639 -27q-248 0 -414 169t-166 407v4q0 240 168 409t426 168q317 0 473 -247l-264 -197q-84 117 -207 117q-92 0 -154 -72t-63 -174v-4q0 -109 62 -181t168 -71q106 0 204 115l261 -189q-172 -254 -494 -254zM1067 1548l-262 -336h-316l-262 336h250l172 -125l172 125
h246z" />
    <glyph glyph-name="Dcaron" unicode="&#x10e;" horiz-adv-x="1568" 
d="M524 352h162q180 0 288 95t107 268v4q0 170 -107 266q-108 96 -288 96h-162v-729zM127 0v1434h553q377 0 593 -196t216 -513v-4q0 -317 -219 -519t-598 -202h-545zM1184 1837l-252 -305h-346l-252 305h264l162 -108l162 108h262z" />
    <glyph glyph-name="dcaron" unicode="&#x10f;" horiz-adv-x="1384" 
d="M672 301q94 0 160 72t65 180v4q0 109 -66 179q-67 70 -161 71q-94 0 -160 -71t-66 -179v-4q0 -109 67 -181t161 -71zM549 -25q-201 0 -343 158t-143 416v4q-1 262 141 421t345 159t342 -160v522h389v-1495h-389v147q-141 -172 -342 -172zM1665 1495v-6l-133 -434h-158
l23 440h268z" />
    <glyph glyph-name="Dcroat" unicode="&#x110;" horiz-adv-x="1669" 
d="M612 342h174q184 0 291 98q106 98 107 275v4q0 176 -106 275t-292 100h-174v-220h244v-305h-244v-227zM227 0v565h-164v314h164v555h555q375 0 591 -196t216 -513v-4q0 -317 -219 -519t-596 -202h-547z" />
    <glyph glyph-name="dcroat" unicode="&#x111;" horiz-adv-x="1384" 
d="M672 301q94 0 160 72t65 180v4q0 109 -66 179q-67 70 -161 71q-94 0 -160 -71t-66 -179v-4q0 -109 67 -181t161 -71zM584 1217v184h307v94h389v-94h129v-184h-129v-1217h-389v147q-141 -172 -342 -172t-343 158t-143 416v4q-1 262 141 421t345 159t342 -160v244h-307z
" />
    <glyph glyph-name="Emacron" unicode="&#x112;" horiz-adv-x="1368" 
d="M127 0v1434h1153v-338h-760v-217h688v-314h-688v-227h770v-338h-1163zM299 1546v240h815v-240h-815z" />
    <glyph glyph-name="emacron" unicode="&#x113;" horiz-adv-x="1241" 
d="M240 1227v233h768v-233h-768zM623 846q-79 0 -129 -54t-66 -147h385q-10 93 -61 147t-129 54zM653 -27q-262 0 -428 160t-166 416v4q0 246 158 413q157 167 415 167t402 -172t144 -435q0 -53 -2 -80h-742q47 -182 240 -182q131 0 246 113l215 -178q-179 -226 -482 -226z
" />
    <glyph glyph-name="Ebreve" unicode="&#x114;" horiz-adv-x="1368" 
d="M127 0v1434h1153v-338h-760v-217h688v-314h-688v-227h770v-338h-1163zM709 1528q-172 0 -278 79q-105 79 -126 230h236q39 -92 168 -92t170 92h233q-20 -153 -126 -231t-277 -78z" />
    <glyph glyph-name="ebreve" unicode="&#x115;" horiz-adv-x="1241" 
d="M623 1208q-172 0 -281 89t-123 251h227q40 -118 176 -118t177 118h227q-14 -162 -122 -251t-281 -89zM623 846q-79 0 -129 -54t-66 -147h385q-10 93 -61 147t-129 54zM653 -27q-262 0 -428 160t-166 416v4q0 246 158 413q157 167 415 167t402 -172t144 -435q0 -53 -2 -80
h-742q47 -182 240 -182q131 0 246 113l215 -178q-179 -226 -482 -226z" />
    <glyph glyph-name="Edotaccent" unicode="&#x116;" horiz-adv-x="1368" 
d="M127 0v1434h1153v-338h-760v-217h688v-314h-688v-227h770v-338h-1163zM532 1532v283h349v-283h-349z" />
    <glyph glyph-name="edotaccent" unicode="&#x117;" horiz-adv-x="1241" 
d="M453 1212v291h342v-291h-342zM623 846q-79 0 -129 -54t-66 -147h385q-10 93 -61 147t-129 54zM653 -27q-262 0 -428 160t-166 416v4q0 246 158 413q157 167 415 167t402 -172t144 -435q0 -53 -2 -80h-742q47 -182 240 -182q131 0 246 113l215 -178q-179 -226 -482 -226z
" />
    <glyph glyph-name="Eogonek" unicode="&#x118;" horiz-adv-x="1368" 
d="M127 0v1434h1153v-338h-760v-217h688v-314h-688v-227h770v-338h-104q-45 -51 -45 -96q0 -80 147 -74v-166q-192 -26 -312 24t-120 140t82 172h-811z" />
    <glyph glyph-name="eogonek" unicode="&#x119;" horiz-adv-x="1239" 
d="M623 846q-79 0 -129 -54t-66 -147h385q-10 93 -61 147t-129 54zM59 549v4q0 246 158 413q157 167 415 167t402 -172t144 -435q0 -53 -2 -80h-742q47 -182 240 -182q131 0 246 113l215 -178q-67 -76 -147 -151t-81 -136q0 -88 150 -82v-166q-193 -28 -313 22t-119 142
q0 72 71 147l-43 -2q-262 0 -428 160t-166 416z" />
    <glyph glyph-name="Ecaron" unicode="&#x11a;" horiz-adv-x="1368" 
d="M127 0v1434h1153v-338h-760v-217h688v-314h-688v-227h770v-338h-1163zM1133 1837l-252 -305h-346l-252 305h264l162 -108l161 108h263z" />
    <glyph glyph-name="ecaron" unicode="&#x11b;" horiz-adv-x="1241" 
d="M623 846q-79 0 -129 -54t-66 -147h385q-10 93 -61 147t-129 54zM653 -27q-262 0 -428 160t-166 416v4q0 246 158 413q157 167 415 167t402 -172t144 -435q0 -53 -2 -80h-742q47 -182 240 -182q131 0 246 113l215 -178q-179 -226 -482 -226zM1042 1548l-262 -336h-315
l-262 336h250l172 -125l172 125h245z" />
    <glyph glyph-name="Gbreve" unicode="&#x11e;" horiz-adv-x="1574" 
d="M867 -29q-345 0 -567 209t-222 533v4q0 315 220 530t556 215t578 -209l-234 -280q-162 135 -332 135t-275 -115t-106 -278v-4q0 -174 110 -286t264 -112t245 60v174h-283v291h660v-645q-269 -222 -614 -222zM836 1548q-172 0 -278 79q-105 79 -126 231h236
q39 -92 168 -92t170 92h233q-19 -152 -125 -231t-278 -79z" />
    <glyph glyph-name="gbreve" unicode="&#x11f;" horiz-adv-x="1384" 
d="M711 1208q-172 0 -281 89t-123 251h228q41 -118 176 -118t176 118h227q-14 -162 -122 -251t-281 -89zM444 610q0 -92 64 -152t163 -61t163 61t63 154v4q0 92 -63 152q-64 60 -162 61q-98 0 -163 -61t-65 -154v-4zM1280 266q0 -298 -150 -448t-468 -150q-320 0 -568 127
l125 258q188 -104 387 -104q291 0 291 272v43q-143 -166 -348 -166t-345 142t-141 372v4q1 232 141 374t340 142t347 -155v131h389v-842z" />
    <glyph glyph-name="Gdotaccent" unicode="&#x120;" horiz-adv-x="1574" 
d="M867 -29q-345 0 -567 209t-222 533v4q0 315 220 530t556 215t578 -209l-234 -280q-162 135 -332 135t-275 -115t-106 -278v-4q0 -174 110 -286t264 -112t245 60v174h-283v291h660v-645q-269 -222 -614 -222zM659 1552v283h349v-283h-349z" />
    <glyph glyph-name="gdotaccent" unicode="&#x121;" horiz-adv-x="1384" 
d="M541 1212v291h342v-291h-342zM444 610q0 -92 64 -152t163 -61t163 61t63 154v4q0 92 -63 152q-64 60 -162 61q-98 0 -163 -61t-65 -154v-4zM1280 266q0 -298 -150 -448t-468 -150q-320 0 -568 127l125 258q188 -104 387 -104q291 0 291 272v43q-143 -166 -348 -166
t-345 142t-141 372v4q1 232 141 374t340 142t347 -155v131h389v-842z" />
    <glyph glyph-name="Gcommaaccent" unicode="&#x122;" horiz-adv-x="1574" 
d="M867 -29q-345 0 -567 209t-222 533v4q0 315 220 530t556 215t578 -209l-234 -280q-162 135 -332 135t-275 -115t-106 -278v-4q0 -174 110 -286t264 -112t245 60v174h-283v291h660v-645q-269 -222 -614 -222zM670 -393v278h331v-227q1 -156 -83 -226t-250 -75l-17 117
q168 14 158 133h-139z" />
    <glyph glyph-name="gcommaaccent" unicode="&#x123;" horiz-adv-x="1384" 
d="M444 610q0 -92 64 -152t163 -61t163 61t63 154v4q0 92 -63 152q-64 60 -162 61q-98 0 -163 -61t-65 -154v-4zM1280 266q0 -298 -150 -448t-468 -150q-320 0 -568 127l125 258q188 -104 387 -104q291 0 291 272v43q-143 -166 -348 -166t-345 142t-141 372v4q1 232 141 374
t340 142t347 -155v131h389v-842zM870 1489v-279h-331v228q-1 156 83 226t250 75l17 -117q-168 -14 -158 -133h139z" />
    <glyph glyph-name="Hbar" unicode="&#x126;" horiz-adv-x="1558" 
d="M524 897h510v166h-510v-166zM4 1059v215h123v160h397v-160h510v160h398v-160h122v-215h-122v-1059h-398v545h-510v-545h-397v1059h-123z" />
    <glyph glyph-name="hbar" unicode="&#x127;" horiz-adv-x="1298" 
d="M104 0v1217h-129v184h129v94h390v-94h307v-184h-307v-261q137 176 322 176q186 0 286 -109q100 -110 100 -298v-725h-389v600q0 88 -42 137t-115 49q-74 0 -118 -49t-44 -137v-600h-390z" />
    <glyph glyph-name="Imacron" unicode="&#x12a;" horiz-adv-x="669" 
d="M-72 1546v240h815v-240h-815zM135 0v1434h400v-1434h-400z" />
    <glyph glyph-name="imacron" unicode="&#x12b;" horiz-adv-x="616" 
d="M-76 1219v233h768v-233h-768zM113 0v1108h389v-1108h-389z" />
    <glyph glyph-name="Ibreve" unicode="&#x12c;" horiz-adv-x="669" 
d="M336 1528q-172 0 -278 79q-105 79 -126 230h236q39 -92 168 -92t170 92h233q-19 -153 -125 -231t-278 -78zM135 0v1434h400v-1434h-400z" />
    <glyph glyph-name="ibreve" unicode="&#x12d;" horiz-adv-x="616" 
d="M307 1200q-173 0 -281 89t-122 251h227q41 -119 176 -119t176 119h228q-14 -162 -123 -251t-281 -89zM113 0v1108h389v-1108h-389z" />
    <glyph glyph-name="Iogonek" unicode="&#x12e;" horiz-adv-x="669" 
d="M135 0v1434h400v-1434h-74q-45 -51 -45 -96q0 -80 147 -74v-166q-193 -26 -313 24t-119 140q0 90 82 172h-78z" />
    <glyph glyph-name="iogonek" unicode="&#x12f;" horiz-adv-x="616" 
d="M104 1208v287h406v-287h-406zM113 0v1108h389v-1108h-74q-45 -51 -45 -96q0 -80 147 -74v-166q-192 -26 -312 24t-120 140t82 172h-67z" />
    <glyph glyph-name="Idotaccent" unicode="&#x130;" horiz-adv-x="669" 
d="M162 1532v283h348v-283h-348zM135 0v1434h400v-1434h-400z" />
    <glyph glyph-name="dotlessi" unicode="&#x131;" horiz-adv-x="614" 
d="M113 0v1108h389v-1108h-389z" />
    <glyph glyph-name="Kcommaaccent" unicode="&#x136;" horiz-adv-x="1495" 
d="M127 0v1434h397v-582l494 582h471l-543 -617l561 -817h-477l-360 532l-146 -161v-371h-397zM586 -375v279h332v-228q0 -156 -84 -226t-250 -75l-17 117q168 14 158 133h-139z" />
    <glyph glyph-name="kcommaaccent" unicode="&#x137;" horiz-adv-x="1234" 
d="M104 0v1495h390v-758l301 371h440l-385 -444l395 -664h-428l-223 377l-100 -117v-260h-390zM475 -379v279h332v-228q0 -156 -84 -226t-250 -75l-16 117q168 14 157 133h-139z" />
    <glyph glyph-name="Lacute" unicode="&#x139;" horiz-adv-x="1263" 
d="M127 0v1434h397v-1086h695v-348h-1092zM213 1532l221 332l371 -113l-303 -219h-289z" />
    <glyph glyph-name="lacute" unicode="&#x13a;" horiz-adv-x="616" 
d="M113 0v1495h389v-1495h-389zM158 1573l221 332l371 -113l-304 -219h-288z" />
    <glyph glyph-name="Lcommaaccent" unicode="&#x13b;" horiz-adv-x="1263" 
d="M127 0v1434h397v-1086h695v-348h-1092zM508 -379v279h332v-228q0 -156 -84 -226t-250 -75l-17 117q168 14 158 133h-139z" />
    <glyph glyph-name="lcommaaccent" unicode="&#x13c;" horiz-adv-x="616" 
d="M113 0v1495h389v-1495h-389zM143 -379v279h332v-228q0 -156 -84 -226t-250 -75l-16 117q168 14 158 133h-140z" />
    <glyph glyph-name="Lcaron" unicode="&#x13d;" horiz-adv-x="1263" 
d="M127 0v1434h397v-1086h695v-348h-1092zM934 1434v-7l-133 -434h-158l23 441h268z" />
    <glyph glyph-name="lcaron" unicode="&#x13e;" horiz-adv-x="616" 
d="M113 0v1495h389v-1495h-389zM887 1495v-6l-133 -434h-158l22 440h269z" />
    <glyph glyph-name="Ldot" unicode="&#x13f;" horiz-adv-x="1263" 
d="M127 0v1434h397v-1086h695v-348h-1092zM811 670v317h326v-317h-326z" />
    <glyph glyph-name="ldot" unicode="&#x140;" horiz-adv-x="858" 
d="M113 0v1495h389v-1495h-389zM600 618v314h274v-314h-274z" />
    <glyph glyph-name="Lslash" unicode="&#x141;" horiz-adv-x="1355" 
d="M616 348h695v-348h-1092v461l-156 -66v357l156 65v617h397v-447l302 129v-354l-302 -129v-285z" />
    <glyph glyph-name="lslash" unicode="&#x142;" horiz-adv-x="821" 
d="M606 0h-389v496l-168 -76v348l168 76v651h389v-473l166 76v-348l-166 -76v-674z" />
    <glyph glyph-name="Nacute" unicode="&#x143;" horiz-adv-x="1607" 
d="M127 0v1434h371l589 -758v758h394v-1434h-348l-613 786v-786h-393zM651 1532l221 332l371 -113l-303 -219h-289z" />
    <glyph glyph-name="nacute" unicode="&#x144;" horiz-adv-x="1298" 
d="M104 0v1108h390v-156q139 180 323 180q185 0 285 -109q100 -110 100 -298v-725h-389v600q0 88 -42 137t-115 49q-74 0 -118 -49t-44 -137v-600h-390zM504 1212l213 377l360 -116l-303 -261h-270z" />
    <glyph glyph-name="Ncommaaccent" unicode="&#x145;" horiz-adv-x="1607" 
d="M127 0v1434h371l589 -758v758h394v-1434h-348l-613 786v-786h-393zM639 -375v279h332v-228q0 -156 -84 -226t-250 -75l-16 117q168 14 157 133h-139z" />
    <glyph glyph-name="ncommaaccent" unicode="&#x146;" horiz-adv-x="1298" 
d="M104 0v1108h390v-156q139 180 323 180q185 0 285 -109q100 -110 100 -298v-725h-389v600q0 88 -42 137t-115 49q-74 0 -118 -49t-44 -137v-600h-390zM487 -379v279h332v-228q0 -156 -84 -226t-250 -75l-16 117q168 14 158 133h-140z" />
    <glyph glyph-name="Ncaron" unicode="&#x147;" horiz-adv-x="1607" 
d="M127 0v1434h371l589 -758v758h394v-1434h-348l-613 786v-786h-393zM1229 1837l-252 -305h-346l-252 305h264l162 -108l162 108h262z" />
    <glyph glyph-name="ncaron" unicode="&#x148;" horiz-adv-x="1298" 
d="M104 0v1108h390v-156q139 180 323 180q185 0 285 -109q100 -110 100 -298v-725h-389v600q0 88 -42 137t-115 49q-74 0 -118 -49t-44 -137v-600h-390zM1071 1548l-262 -336h-315l-263 336h250l172 -125l172 125h246z" />
    <glyph glyph-name="Omacron" unicode="&#x14c;" horiz-adv-x="1701" 
d="M852 330q160 0 262 112t103 271v4q-1 159 -105 273t-264 114t-261 -112t-102 -271v-4q-1 -159 103 -273t264 -114zM848 -29q-330 0 -550 215t-220 527v4q0 311 222 528t552 217t550 -215t220 -526v-4q0 -311 -222 -529t-552 -217zM442 1567v239h815v-239h-815z" />
    <glyph glyph-name="omacron" unicode="&#x14d;" horiz-adv-x="1343" 
d="M675 303q101 0 166 72t64 174v4q0 102 -67 176q-68 74 -169 74t-166 -72t-65 -174v-4q0 -102 68 -176t169 -74zM671 -27q-263 0 -438 168q-174 168 -174 408v4q0 240 175 410q174 170 438 170t438 -168t174 -408v-4q0 -240 -175 -410t-438 -170zM289 1227v233h768v-233
h-768z" />
    <glyph glyph-name="Obreve" unicode="&#x14e;" horiz-adv-x="1701" 
d="M852 330q160 0 262 112t103 271v4q-1 159 -105 273t-264 114t-261 -112t-102 -271v-4q-1 -159 103 -273t264 -114zM848 -29q-330 0 -550 215t-220 527v4q0 311 222 528t552 217t550 -215t220 -526v-4q0 -311 -222 -529t-552 -217zM852 1548q-172 0 -278 79
q-105 79 -125 231h235q39 -92 168 -92t170 92h233q-19 -152 -125 -231t-278 -79z" />
    <glyph glyph-name="obreve" unicode="&#x14f;" horiz-adv-x="1343" 
d="M672 1208q-172 0 -281 89t-123 251h228q41 -118 176 -118t176 118h227q-15 -162 -123 -251t-280 -89zM675 303q101 0 166 72t64 174v4q0 102 -67 176q-68 74 -169 74t-166 -72t-65 -174v-4q0 -102 68 -176t169 -74zM671 -27q-263 0 -438 168q-174 168 -174 408v4
q0 240 175 410q174 170 438 170t438 -168t174 -408v-4q0 -240 -175 -410t-438 -170z" />
    <glyph glyph-name="Ohungarumlaut" unicode="&#x150;" horiz-adv-x="1701" 
d="M895 1552l127 201l-268 -201h-262l210 332l334 -110l70 110l344 -112l-293 -220h-262zM852 330q160 0 262 112t103 271v4q-1 159 -105 273t-264 114t-261 -112t-102 -271v-4q-1 -159 103 -273t264 -114zM848 -29q-330 0 -550 215t-220 527v4q0 311 222 528t552 217
t550 -215t220 -526v-4q0 -311 -222 -529t-552 -217z" />
    <glyph glyph-name="ohungarumlaut" unicode="&#x151;" horiz-adv-x="1343" 
d="M675 303q101 0 166 72t64 174v4q0 102 -67 176q-68 74 -169 74t-166 -72t-65 -174v-4q0 -102 68 -176t169 -74zM322 1212l198 377l334 -114l61 114l342 -116l-294 -261h-248l129 244l-275 -244h-247zM671 -27q-263 0 -438 168q-174 168 -174 408v4q0 240 175 410
q174 170 438 170t438 -168t174 -408v-4q0 -240 -175 -410t-438 -170z" />
    <glyph glyph-name="OE" unicode="&#x152;" horiz-adv-x="2207" 
d="M877 346h135v741h-135q-179 0 -285 -98t-107 -270v-4q0 -169 108 -269t284 -100zM887 0q-377 0 -593 197t-216 512v4q0 319 219 520t598 201h1225v-338h-715v-217h643v-314h-643v-227h725v-338h-1243z" />
    <glyph glyph-name="oe" unicode="&#x153;" horiz-adv-x="2074" 
d="M670 303q100 0 163 72q62 72 62 174v4q0 102 -66 176q-65 74 -165 74t-162 -72t-64 -174v-4q0 -102 66 -176t166 -74zM1458 846q-78 0 -128 -54t-66 -147h385q-9 93 -61 147t-130 54zM656 -27q-251 0 -424 169t-173 407v4q0 240 175 410q176 170 428 170t411 -166
q151 166 403 166q252 1 394 -173t143 -434q0 -27 -4 -80h-739q47 -182 237 -182q133 0 248 113l215 -178q-180 -225 -460 -225t-441 165q-162 -166 -413 -166z" />
    <glyph glyph-name="Racute" unicode="&#x154;" horiz-adv-x="1472" 
d="M565 1532l221 332l371 -113l-303 -219h-289zM524 745h262q100 -1 156 45t57 125v5q0 84 -56 127t-159 43h-260v-345zM127 0v1434h678q315 0 467 -156q127 -123 127 -334v-4q0 -315 -295 -440l342 -500h-459l-289 434h-174v-434h-397z" />
    <glyph glyph-name="racute" unicode="&#x155;" horiz-adv-x="876" 
d="M104 0v1108h390v-223q106 252 350 241v-409h-33q-317 0 -317 -373v-344h-390zM319 1204l213 377l361 -117l-303 -260h-271z" />
    <glyph glyph-name="Rcommaaccent" unicode="&#x156;" horiz-adv-x="1472" 
d="M559 -375v279h332v-228q0 -156 -84 -226t-250 -75l-16 117q168 14 157 133h-139zM524 745h262q100 -1 156 45t57 125v5q0 84 -56 127t-159 43h-260v-345zM127 0v1434h678q315 0 467 -156q127 -123 127 -334v-4q0 -315 -295 -440l342 -500h-459l-289 434h-174v-434h-397z
" />
    <glyph glyph-name="rcommaaccent" unicode="&#x157;" horiz-adv-x="876" 
d="M104 0v1108h390v-223q106 252 350 241v-409h-33q-317 0 -317 -373v-344h-390zM145 -379v279h332v-228q0 -156 -84 -226t-250 -75l-16 117q168 14 158 133h-140z" />
    <glyph glyph-name="Rcaron" unicode="&#x158;" horiz-adv-x="1472" 
d="M524 745h262q100 -1 156 45t57 125v5q0 84 -56 127t-159 43h-260v-345zM1145 1837l-252 -305h-346l-252 305h264l162 -108l162 108h262zM127 0v1434h678q315 0 467 -156q127 -123 127 -334v-4q0 -315 -295 -440l342 -500h-459l-289 434h-174v-434h-397z" />
    <glyph glyph-name="rcaron" unicode="&#x159;" horiz-adv-x="876" 
d="M104 0v1108h390v-223q106 252 350 241v-409h-33q-317 0 -317 -373v-344h-390zM889 1540l-262 -336h-316l-262 336h250l172 -125l172 125h246z" />
    <glyph glyph-name="Sacute" unicode="&#x15a;" horiz-adv-x="1335" 
d="M518 1552l221 332l371 -112l-303 -220h-289zM690 -25q-406 0 -672 238l222 264q215 -172 465 -172q164 0 163 98v5q0 44 -49 74t-186 62t-222 62t-166 79q-159 98 -159 310v4q0 203 151 331t404 128q352 0 590 -190l-199 -281q-201 141 -401 141q-70 0 -107 -26t-37 -66
v-4q1 -49 51 -78t197 -61q267 -59 401 -157t134 -290v-4q0 -217 -158 -342t-422 -125z" />
    <glyph glyph-name="sacute" unicode="&#x15b;" horiz-adv-x="1052" 
d="M545 -25q-297 0 -525 164l146 236q193 -127 381 -127q98 0 98 59v4q0 29 -39 47t-181 58t-247 112q-106 72 -104 232v4q0 172 124 269t320 97q256 0 457 -129l-133 -245q-184 102 -328 102q-90 0 -90 -53v-4q0 -29 39 -48t141 -51q195 -55 294 -130t99 -222v-4
q-1 -178 -123 -274t-329 -97zM385 1212l213 377l360 -116l-303 -261h-270z" />
    <glyph glyph-name="Scedilla" unicode="&#x15e;" horiz-adv-x="1335" 
d="M705 305q164 0 163 98v5q0 44 -49 74t-186 62t-222 62t-166 79q-159 98 -159 310v4q0 203 151 331t404 128q352 0 590 -190l-199 -281q-201 141 -401 141q-70 0 -107 -26t-37 -66v-4q1 -49 51 -78t197 -61q267 -59 401 -157t134 -290v-4q0 -198 -130 -318t-356 -142
l-116 -336l-308 131l156 213q-295 41 -498 223l222 264q215 -172 465 -172z" />
    <glyph glyph-name="scedilla" unicode="&#x15f;" horiz-adv-x="1052" 
d="M547 248q98 0 98 59v4q0 29 -39 47t-181 58t-247 112q-106 72 -104 232v4q0 172 124 269t320 97q256 0 457 -129l-133 -245q-184 102 -328 102q-90 0 -90 -53v-4q0 -29 39 -48t141 -51q195 -55 294 -130t99 -222v-4q0 -160 -97 -253t-267 -111l-117 -336l-307 131
l158 215q-190 35 -347 147l146 236q193 -127 381 -127z" />
    <glyph glyph-name="Scaron" unicode="&#x160;" horiz-adv-x="1335" 
d="M1098 1858l-252 -306h-346l-252 306h264l162 -109l162 109h262zM690 -25q-406 0 -672 238l222 264q215 -172 465 -172q164 0 163 98v5q0 44 -49 74t-186 62t-222 62t-166 79q-159 98 -159 310v4q0 203 151 331t404 128q352 0 590 -190l-199 -281q-201 141 -401 141
q-70 0 -107 -26t-37 -66v-4q1 -49 51 -78t197 -61q267 -59 401 -157t134 -290v-4q0 -217 -158 -342t-422 -125z" />
    <glyph glyph-name="scaron" unicode="&#x161;" horiz-adv-x="1052" 
d="M545 -25q-297 0 -525 164l146 236q193 -127 381 -127q98 0 98 59v4q0 29 -39 47t-181 58t-247 112q-106 72 -104 232v4q0 172 124 269t320 97q256 0 457 -129l-133 -245q-184 102 -328 102q-90 0 -90 -53v-4q0 -29 39 -48t141 -51q195 -55 294 -130t99 -222v-4
q-1 -178 -123 -274t-329 -97zM952 1548l-262 -336h-315l-262 336h249l173 -125l172 125h245z" />
    <glyph glyph-name="Tcommaaccent" unicode="&#x162;" horiz-adv-x="1351" 
d="M477 0v1085h-430v349h1258v-349h-431v-1085h-397zM512 -379v279h332v-228q0 -156 -84 -226t-250 -75l-16 117q168 14 157 133h-139z" />
    <glyph glyph-name="tcommaaccent" unicode="&#x163;" horiz-adv-x="882" 
d="M545 -23q-373 0 -373 367v451h-131v313h131v281h389v-281h258v-313h-258v-375q0 -111 107 -111q70 0 147 37v-305q-112 -64 -270 -64zM309 -387v278h332v-227q0 -156 -84 -226t-250 -75l-16 117q168 14 158 133h-140z" />
    <glyph glyph-name="Tcaron" unicode="&#x164;" horiz-adv-x="1351" 
d="M477 0v1085h-430v349h1258v-349h-431v-1085h-397zM1102 1837l-252 -305h-346l-252 305h264l162 -108l162 108h262z" />
    <glyph glyph-name="tcaron" unicode="&#x165;" horiz-adv-x="882" 
d="M545 -23q-373 0 -373 367v451h-131v313h131v281h389v-281h258v-313h-258v-375q0 -111 107 -111q70 0 147 37v-305q-112 -64 -270 -64zM952 1638v-6l-133 -434h-157l22 440h268z" />
    <glyph glyph-name="Umacron" unicode="&#x16a;" horiz-adv-x="1552" 
d="M1444 639q0 -336 -178 -501t-493 -165q-316 0 -490 164t-174 492v805h403v-797q0 -153 71 -229t193 -76t194 74q71 74 70 221v807h404v-795zM369 1546v240h815v-240h-815z" />
    <glyph glyph-name="umacron" unicode="&#x16b;" horiz-adv-x="1298" 
d="M260 1219v233h768v-233h-768zM482 -25q-186 0 -285 109q-100 109 -101 299v725h389v-600q0 -88 43 -137t115 -49t117 49t45 137v600h389v-1108h-389v152q-137 -177 -323 -177z" />
    <glyph glyph-name="Ubreve" unicode="&#x16c;" horiz-adv-x="1552" 
d="M1444 639q0 -336 -178 -501t-493 -165q-316 0 -490 164t-174 492v805h403v-797q0 -153 71 -229t193 -76t194 74q71 74 70 221v807h404v-795zM776 1509q-172 0 -277 79t-126 231h235q39 -93 168 -93t170 93h234q-20 -152 -126 -231t-278 -79z" />
    <glyph glyph-name="ubreve" unicode="&#x16d;" horiz-adv-x="1298" 
d="M643 1200q-172 0 -281 89t-122 251h227q41 -119 176 -119t176 119h228q-14 -162 -123 -251t-281 -89zM482 -25q-186 0 -285 109q-100 109 -101 299v725h389v-600q0 -88 43 -137t115 -49t117 49t45 137v600h389v-1108h-389v152q-137 -177 -323 -177z" />
    <glyph glyph-name="Uring" unicode="&#x16e;" horiz-adv-x="1552" 
d="M629 1747q0 -57 41 -95q40 -38 106 -38t107 38t41 95t-41 95t-107 38t-106 -38t-41 -95zM487 1747q0 111 84 183t205 73q121 0 205 -73q84 -74 84 -184t-84 -184t-205 -73q-121 -1 -205 73t-84 185zM1444 639q0 -336 -178 -501t-493 -165q-316 0 -490 164t-174 492v805
h403v-797q0 -153 71 -229t193 -76t194 74q71 74 70 221v807h404v-795z" />
    <glyph glyph-name="uring" unicode="&#x16f;" horiz-adv-x="1298" 
d="M482 -25q-186 0 -285 109q-100 109 -101 299v725h389v-600q0 -88 43 -137t115 -49t117 49t45 137v600h389v-1108h-389v152q-137 -177 -323 -177zM504 1444q0 -58 41 -100t98 -42t99 42q42 40 42 100t-41 101q-41 42 -99 42t-99 -42t-41 -101zM373 1444q0 108 79 184
q78 76 192 76t193 -76t79 -184t-80 -184q-78 -76 -192 -76t-192 76t-79 184z" />
    <glyph glyph-name="Uhungarumlaut" unicode="&#x170;" horiz-adv-x="1552" 
d="M809 1532l127 201l-268 -201h-262l210 332l334 -111l70 111l344 -113l-293 -219h-262zM1444 639q0 -336 -178 -501t-493 -165q-316 0 -490 164t-174 492v805h403v-797q0 -153 71 -229t193 -76t194 74q71 74 70 221v807h404v-795z" />
    <glyph glyph-name="uhungarumlaut" unicode="&#x171;" horiz-adv-x="1298" 
d="M289 1204l198 377l334 -115l62 115l342 -117l-295 -260h-248l129 244l-274 -244h-248zM482 -25q-186 0 -285 109q-100 109 -101 299v725h389v-600q0 -88 43 -137t115 -49t117 49t45 137v600h389v-1108h-389v152q-137 -177 -323 -177z" />
    <glyph glyph-name="Uogonek" unicode="&#x172;" horiz-adv-x="1552" 
d="M559 -166q0 74 66 150q-248 36 -382 196t-134 449v805h403v-797q0 -153 71 -229t193 -76t194 74q71 74 70 221v807h404v-795q0 -309 -150 -473t-422 -189q-29 -37 -28 -73q0 -80 147 -74v-166q-193 -26 -313 24t-119 146z" />
    <glyph glyph-name="uogonek" unicode="&#x173;" horiz-adv-x="1298" 
d="M482 -25q-186 0 -285 109q-100 109 -101 299v725h389v-600q0 -88 43 -137t115 -49t117 49t45 137v600h389v-1108h-84q-45 -51 -45 -96q0 -80 147 -74v-166q-192 -26 -312 24t-120 140t82 172h-57v152q-137 -177 -323 -177z" />
    <glyph glyph-name="Wcircumflex" unicode="&#x174;" horiz-adv-x="2287" 
d="M719 1532l252 305h346l252 -305h-266l-162 108l-162 -108h-260zM510 -10l-479 1444h420l249 -830l277 834h342l276 -834l250 830h412l-479 -1444h-346l-289 825l-287 -825h-346z" />
    <glyph glyph-name="wcircumflex" unicode="&#x175;" horiz-adv-x="1763" 
d="M362 -8l-337 1116h381l145 -557l170 561h321l172 -565l150 561h375l-342 -1116h-336l-180 575l-185 -575h-334zM461 1204l262 336h315l262 -336h-249l-172 125l-172 -125h-246z" />
    <glyph glyph-name="Ycircumflex" unicode="&#x176;" horiz-adv-x="1480" 
d="M315 1532l252 305h346l252 -305h-266l-162 108l-162 -108h-260zM541 0v537l-545 897h453l294 -523l297 523h445l-545 -891v-543h-399z" />
    <glyph glyph-name="ycircumflex" unicode="&#x177;" horiz-adv-x="1282" 
d="M227 1204l262 336h316l262 -336h-250l-172 125l-172 -125h-246zM422 -334q-174 0 -346 96l121 273q188 -113 260 -15l-434 1088h407l221 -668l209 668h400l-406 -1081q-74 -197 -166 -279t-266 -82z" />
    <glyph glyph-name="Ydieresis" unicode="&#x178;" horiz-adv-x="1480" 
d="M344 1532v283h338v-283h-338zM797 1532v283h338v-283h-338zM541 0v537l-545 897h453l294 -523l297 523h445l-545 -891v-543h-399z" />
    <glyph glyph-name="Zacute" unicode="&#x179;" horiz-adv-x="1429" 
d="M578 1532l221 332l370 -113l-303 -219h-288zM82 0v289l719 809h-695v336h1244v-289l-719 -809h719v-336h-1268z" />
    <glyph glyph-name="zacute" unicode="&#x17a;" horiz-adv-x="1153" 
d="M66 0v256l512 543h-494v309h1010v-256l-514 -543h514v-309h-1028zM442 1204l213 377l361 -117l-303 -260h-271z" />
    <glyph glyph-name="Zdotaccent" unicode="&#x17b;" horiz-adv-x="1429" 
d="M82 0v289l719 809h-695v336h1244v-289l-719 -809h719v-336h-1268zM557 1532v283h348v-283h-348z" />
    <glyph glyph-name="zdotaccent" unicode="&#x17c;" horiz-adv-x="1153" 
d="M420 1204v291h342v-291h-342zM66 0v256l512 543h-494v309h1010v-256l-514 -543h514v-309h-1028z" />
    <glyph glyph-name="Zcaron" unicode="&#x17d;" horiz-adv-x="1429" 
d="M82 0v289l719 809h-695v336h1244v-289l-719 -809h719v-336h-1268zM1157 1837l-252 -305h-346l-252 305h264l162 -108l162 108h262z" />
    <glyph glyph-name="zcaron" unicode="&#x17e;" horiz-adv-x="1153" 
d="M66 0v256l512 543h-494v309h1010v-256l-514 -543h514v-309h-1028zM1010 1540l-262 -336h-316l-262 336h250l172 -125l172 125h246z" />
    <glyph glyph-name="florin" unicode="&#x192;" horiz-adv-x="1132" 
d="M227 -20q-86 0 -176 20v283q59 -13 111 -13t82 30q31 30 45 103l47 271h-125v295h176l27 133q33 180 141 266q109 86 305 86q131 0 225 -27v-286q-73 18 -141 18t-106 -30t-50 -99l-10 -61h234v-295h-287l-57 -322q-36 -204 -138 -288t-303 -84z" />
    <glyph glyph-name="Aringacute" unicode="&#x1fa;" horiz-adv-x="1628" 
d="M668 1518q0 -58 41 -96t107 -38t106 38q41 38 41 96t-41 95q-41 38 -107 38q-67 0 -107 -38t-40 -95zM649 565h322l-160 408zM655 1825l238 311l360 -117l-323 -194h-275zM526 1528q0 100 84 174q84 72 205 72t205 -73t84 -175t-62 -170l574 -1356h-426l-105 256h-553
l-102 -256h-418l574 1358q-60 70 -60 170z" />
    <glyph glyph-name="aringacute" unicode="&#x1fb;" horiz-adv-x="1226" 
d="M481 1475q0 -59 41 -101q42 -42 100 -41q58 0 99 42q41 43 41 101t-41 100t-99 42t-100 -42t-41 -101zM350 1475q0 109 79 185t193 75q114 0 192 -76q78 -77 79 -185q0 -108 -79 -184q-78 -76 -192 -76t-193 76t-79 185zM574 219q74 0 126 50q53 50 54 132v52
q-68 29 -152 29t-131 -39q-47 -38 -47 -99v-4q0 -55 38 -88t112 -33zM422 -25q-164 1 -268 91t-105 251v5q0 168 117 258t317 90q145 0 267 -43v18q0 180 -222 180q-150 0 -305 -61l-80 274q209 86 449 86q287 0 422 -135q119 -117 119 -352v-637h-385v115
q-125 -140 -326 -140zM471 1802l229 328l351 -115l-310 -213h-270z" />
    <glyph glyph-name="AEacute" unicode="&#x1fc;" horiz-adv-x="2177" 
d="M987 565v543h-24l-279 -543h303zM2089 1434v-338h-715v-217h643v-314h-643v-227h725v-338h-1112v256h-463l-133 -256h-401l758 1434h1341zM1110 1532l221 332l371 -113l-303 -219h-289z" />
    <glyph glyph-name="aeacute" unicode="&#x1fd;" horiz-adv-x="1925" 
d="M567 223q111 0 224 90q-31 72 -39 140q-68 29 -151 29t-130 -39q-47 -38 -47 -99v-4q0 -53 40 -85t103 -32zM1307 846q-79 0 -129 -54t-64 -147h385q-10 93 -62 147t-130 54zM461 -25q-178 -1 -295 89t-117 253v5q0 168 117 258t317 90q145 0 267 -43v18q0 180 -222 180
q-150 0 -305 -61l-80 274q209 86 454 86t370 -125q139 133 346 134q266 1 408 -173t143 -434q0 -27 -4 -80h-742q49 -182 240 -182q131 0 246 113l215 -178q-178 -225 -463 -225t-451 165q-215 -164 -444 -164zM807 1204l213 377l360 -117l-303 -260h-270z" />
    <glyph glyph-name="Oslashacute" unicode="&#x1fe;" horiz-adv-x="1701" 
d="M698 1552l222 332l370 -112l-303 -220h-289zM852 322q164 0 267 114t104 277v4q0 111 -49 198l-488 -555q78 -38 166 -38zM848 1112q-162 0 -265 -115t-104 -276v-4q0 -111 49 -199l486 555q-74 39 -166 39zM848 -29q-223 0 -406 109l-80 -90h-301l205 229
q-188 209 -188 494v4q0 311 222 528t552 217q227 0 405 -108l80 90h301l-202 -232q186 -207 186 -491v-4q0 -311 -222 -529t-552 -217z" />
    <glyph glyph-name="oslashacute" unicode="&#x1ff;" horiz-adv-x="1343" 
d="M522 1212l213 377l361 -116l-303 -261h-271zM674 287q108 0 178 77t70 185v4q0 51 -21 106l-317 -356q43 -16 90 -16zM670 819q-108 0 -178 -77t-70 -185v-4q0 -52 20 -107l320 355q-39 18 -92 18zM670 -27q-168 0 -312 78l-57 -61h-272l170 188q-139 158 -140 371v4
q0 240 175 410t440 170q170 0 309 -78l59 63h273q-129 -141 -170 -188q139 -158 139 -373v-4q0 -240 -175 -410t-439 -170z" />
    <glyph glyph-name="Scommaaccent" unicode="&#x218;" horiz-adv-x="1335" 
d="M690 -25q-406 0 -672 238l222 264q215 -172 465 -172q164 0 163 98v5q0 44 -49 74t-186 62t-222 62t-166 79q-159 98 -159 310v4q0 203 151 331t404 128q352 0 590 -190l-199 -281q-201 141 -401 141q-70 0 -107 -26t-37 -66v-4q1 -49 51 -78t197 -61q267 -59 401 -157
t134 -290v-4q0 -217 -158 -342t-422 -125zM508 -393v278h332v-227q0 -156 -84 -226t-250 -75l-17 117q168 14 158 133h-139z" />
    <glyph glyph-name="scommaaccent" unicode="&#x219;" horiz-adv-x="1052" 
d="M545 -25q-297 0 -525 164l146 236q193 -127 381 -127q98 0 98 59v4q0 29 -39 47t-181 58t-247 112q-106 72 -104 232v4q0 172 124 269t320 97q256 0 457 -129l-133 -245q-184 102 -328 102q-90 0 -90 -53v-4q0 -29 39 -48t141 -51q195 -55 294 -130t99 -222v-4
q-1 -178 -123 -274t-329 -97zM369 -387v278h331v-227q0 -156 -84 -226t-249 -75l-17 117q168 14 158 133h-139z" />
    <glyph glyph-name="schwa" unicode="&#x259;" horiz-adv-x="1241" 
d="M616 262q78 0 128 54t67 147h-385q10 -93 61 -147t129 -54zM586 1135q262 0 428 -160t166 -416v-4q0 -246 -158 -413t-416 -167t-401 172t-144 435q0 53 2 80h742q-47 182 -240 182q-131 0 -246 -113l-215 178q179 226 482 226z" />
    <glyph glyph-name="circumflex" unicode="&#x2c6;" 
d="M92 1204l262 336h316l262 -336h-250l-172 125l-172 -125h-246z" />
    <glyph glyph-name="caron" unicode="&#x2c7;" 
d="M932 1540l-262 -336h-316l-262 336h250l172 -125l172 125h246z" />
    <glyph glyph-name="breve" unicode="&#x2d8;" 
d="M512 1200q-172 0 -281 89t-122 251h227q41 -119 176 -119t176 119h227q-15 -162 -123 -251t-280 -89z" />
    <glyph glyph-name="dotaccent" unicode="&#x2d9;" 
d="M342 1204v291h342v-291h-342z" />
    <glyph glyph-name="ring" unicode="&#x2da;" 
d="M373 1466q0 -59 41 -100t98 -41t99 42t42 100q0 59 -41 101t-99 42t-99 -42t-41 -102zM242 1466q0 109 79 185q79 75 193 75t192 -76t78 -184t-78 -184t-193 -76t-193 76t-78 184z" />
    <glyph glyph-name="ogonek" unicode="&#x2db;" 
d="M332 -169q0 93 102 189h248q-66 -66 -66 -116q0 -80 148 -74v-166q-192 -26 -312 24t-120 143z" />
    <glyph glyph-name="tilde" unicode="&#x2dc;" 
d="M334 1544q68 0 180 -40t146 -40t55 22q20 22 43 73l186 -52q-33 -155 -92 -229t-162 -74q-68 0 -180 40t-146 40t-55 -21q-20 -22 -43 -75l-186 51q35 157 93 231t161 74z" />
    <glyph glyph-name="hungarumlaut" unicode="&#x2dd;" 
d="M57 1204l199 377l334 -115l61 115l342 -117l-295 -260h-247l129 244l-275 -244h-248z" />
    <glyph glyph-name="commaaccent" unicode="&#x326;" 
d="M346 -379v279h332v-228q0 -156 -84 -226t-250 -75l-16 117q168 14 157 133h-139z" />
    <glyph glyph-name="Wgrave" unicode="&#x1e80;" horiz-adv-x="2287" 
d="M510 -10l-479 1444h420l249 -830l277 834h342l276 -834l250 830h412l-479 -1444h-346l-289 825l-287 -825h-346zM1075 1864l223 -332h-290l-303 219z" />
    <glyph glyph-name="wgrave" unicode="&#x1e81;" horiz-adv-x="1763" 
d="M758 1204l-301 260l360 117l211 -377h-270zM362 -8l-337 1116h381l145 -557l170 561h321l172 -565l150 561h375l-342 -1116h-336l-180 575l-185 -575h-334z" />
    <glyph glyph-name="Wacute" unicode="&#x1e82;" horiz-adv-x="2287" 
d="M510 -10l-479 1444h420l249 -830l277 834h342l276 -834l250 830h412l-479 -1444h-346l-289 825l-287 -825h-346zM991 1532l221 332l371 -113l-303 -219h-289z" />
    <glyph glyph-name="wacute" unicode="&#x1e83;" horiz-adv-x="1763" 
d="M362 -8l-337 1116h381l145 -557l170 561h321l172 -565l150 561h375l-342 -1116h-336l-180 575l-185 -575h-334zM731 1204l213 377l361 -117l-304 -260h-270z" />
    <glyph glyph-name="Wdieresis" unicode="&#x1e84;" horiz-adv-x="2287" 
d="M510 -10l-479 1444h420l249 -830l277 834h342l276 -834l250 830h412l-479 -1444h-346l-289 825l-287 -825h-346zM748 1532v283h337v-283h-337zM1200 1532v283h338v-283h-338z" />
    <glyph glyph-name="wdieresis" unicode="&#x1e85;" horiz-adv-x="1763" 
d="M362 -8l-337 1116h381l145 -557l170 561h321l172 -565l150 561h375l-342 -1116h-336l-180 575l-185 -575h-334zM502 1204v291h329v-291h-329zM930 1204v291h332v-291h-332z" />
    <glyph glyph-name="Ygrave" unicode="&#x1ef2;" horiz-adv-x="1480" 
d="M672 1864l223 -332h-291l-303 219zM541 0v537l-545 897h453l294 -523l297 523h445l-545 -891v-543h-399z" />
    <glyph glyph-name="ygrave" unicode="&#x1ef3;" horiz-adv-x="1282" 
d="M524 1204l-301 260l361 117l211 -377h-271zM422 -334q-174 0 -346 96l121 273q188 -113 260 -15l-434 1088h407l221 -668l209 668h400l-406 -1081q-74 -197 -166 -279t-266 -82z" />
    <glyph glyph-name="enspace" unicode="&#x2002;" 
 />
    <glyph glyph-name="emspace" unicode="&#x2003;" horiz-adv-x="2048" 
 />
    <glyph glyph-name="threeperemspace" unicode="&#x2004;" horiz-adv-x="681" 
 />
    <glyph glyph-name="fourperemspace" unicode="&#x2005;" horiz-adv-x="512" 
 />
    <glyph glyph-name="thinspace" unicode="&#x2009;" horiz-adv-x="272" 
 />
    <glyph glyph-name="hairspace" unicode="&#x200a;" horiz-adv-x="153" 
 />
    <glyph glyph-name="endash" unicode="&#x2013;" horiz-adv-x="1081" 
d="M82 473v334h917v-334h-917z" />
    <glyph glyph-name="emdash" unicode="&#x2014;" horiz-adv-x="1839" 
d="M82 473v334h1675v-334h-1675z" />
    <glyph glyph-name="quoteleft" unicode="&#x2018;" horiz-adv-x="581" 
d="M82 702v326q0 217 107 313q108 96 313 103l33 -150q-105 -12 -157 -61t-48 -131h155v-400h-403z" />
    <glyph glyph-name="quoteright" unicode="&#x2019;" horiz-adv-x="581" 
d="M96 1034v400h404v-326q0 -218 -108 -314t-312 -102l-33 150q102 10 156 60q53 50 49 132h-156z" />
    <glyph glyph-name="quotesinglbase" unicode="&#x201a;" horiz-adv-x="581" 
d="M88 0v399h406v-325q0 -218 -108 -314t-314 -102l-31 149q211 25 205 193h-158z" />
    <glyph glyph-name="quotedblleft" unicode="&#x201c;" horiz-adv-x="1120" 
d="M82 702v326q0 213 106 311t310 105l30 -150q-206 -24 -198 -192h151v-400h-399zM625 702v326q0 213 107 311q108 98 308 105l33 -150q-207 -25 -201 -192h152v-400h-399z" />
    <glyph glyph-name="quotedblright" unicode="&#x201d;" horiz-adv-x="1120" 
d="M96 1034v400h400v-326q0 -214 -106 -312t-310 -104l-33 150q207 23 201 192h-152zM639 1034v400h399v-326q0 -214 -106 -312t-307 -104l-33 150q207 23 201 192h-154z" />
    <glyph glyph-name="quotedblbase" unicode="&#x201e;" horiz-adv-x="1118" 
d="M88 0v399h399v-325q0 -214 -106 -312t-309 -104l-31 149q207 24 199 193h-152zM633 0v399h399v-325q0 -215 -106 -313q-107 -97 -310 -103l-30 149q206 24 198 193h-151z" />
    <glyph glyph-name="dagger" unicode="&#x2020;" horiz-adv-x="839" 
d="M317 457l21 553l-256 -27v213l254 -27l-31 265h230l-31 -265l254 27v-213l-256 27l20 -553h-205z" />
    <glyph glyph-name="daggerdbl" unicode="&#x2021;" horiz-adv-x="880" 
d="M326 0l30 264l-254 -26v213l258 -27l-26 293l26 293l-258 -27v213l254 -27l-30 265h229l-31 -265l254 27v-213l-258 27l27 -293l-27 -293l258 27v-213l-254 26l31 -264h-229z" />
    <glyph glyph-name="bullet" unicode="&#x2022;" 
d="M512 375q-143 0 -245 100q-101 100 -101 244v4q0 143 101 243t245 101q144 0 244 -100q102 -100 102 -244v-4q0 -143 -101 -244q-102 -100 -245 -100z" />
    <glyph glyph-name="ellipsis" unicode="&#x2026;" horiz-adv-x="1720" 
d="M88 0v393h397v-393h-397zM662 0v393h397v-393h-397zM1235 0v393h397v-393h-397z" />
    <glyph glyph-name="perthousand" unicode="&#x2030;" horiz-adv-x="2652" 
d="M834 772l501 662h277l-617 -789l-489 -645h-277zM1401 205q51 0 85 45t34 112v5q0 71 -34 115t-88 44t-86 -44t-32 -113v-4q0 -68 35 -114t86 -46zM2212 205q51 0 85 45t34 112v5q0 71 -34 115t-88 44t-86 -44t-32 -113v-4q0 -68 35 -114t86 -46zM442 907q51 0 85 45
t34 113v4q0 68 -35 114t-87 46t-85 -45t-32 -113v-4q0 -70 34 -115t86 -45zM1399 -20q-162 0 -265 112t-104 270v5q0 161 102 273t268 112q165 0 267 -111t102 -272v-4q0 -161 -104 -273t-266 -112zM2210 -20q-162 0 -265 112t-104 270v5q1 161 103 273t267 112t267 -111
t102 -272v-4q0 -161 -104 -273t-266 -112zM440 682q-162 0 -265 111t-103 272v4q0 161 102 273t267 112t267 -111t103 -272v-4q-1 -161 -105 -273t-266 -112z" />
    <glyph glyph-name="guilsinglleft" unicode="&#x2039;" horiz-adv-x="731" 
d="M389 61l-328 439v98l328 438l281 -137l-267 -350l267 -348z" />
    <glyph glyph-name="guilsinglright" unicode="&#x203a;" horiz-adv-x="731" 
d="M342 61l-281 138l267 350l-267 348l281 139l328 -438v-98z" />
    <glyph glyph-name="fraction" unicode="&#x2044;" horiz-adv-x="921" 
d="M-111 0l525 750l448 684h170l-524 -750l-449 -684h-170z" />
    <glyph glyph-name="Euro" unicode="&#x20ac;" horiz-adv-x="1396" 
d="M862 -29q-242 0 -404 132t-216 354h-166v213h139q-2 14 -2 43v4q0 37 2 55h-139v213h172q57 211 218 344t398 133q311 0 492 -231l-252 -236q-100 127 -247 127t-214 -143h320v-207h-365q-2 -16 -2 -51v-4q0 -31 2 -47h365v-207h-324q72 -152 235 -152q131 0 242 135
l246 -231q-189 -244 -500 -244z" />
    <glyph glyph-name="published" unicode="&#x2117;" horiz-adv-x="1699" 
d="M780 733h101q57 0 91 27t34 74v4q0 102 -125 102h-101v-207zM559 336v788h338q152 0 241 -74t89 -204v-4q0 -133 -94 -207t-244 -74h-109v-225h-221zM195 713q1 -274 189 -467t466 -193t466 195q189 195 189 469v4q0 274 -188 467q-188 192 -466 192t-467 -194t-189 -469
v-4zM848 -29q-309 0 -524 218t-215 524v4q0 305 217 525t526 220t524 -218t215 -523v-4q0 -305 -217 -525t-526 -221z" />
    <glyph glyph-name="servicemark" unicode="&#x2120;" horiz-adv-x="1437" 
d="M698 803v631h187l149 -244l152 244h184v-631h-174v368l-160 -249h-6l-160 249v-368h-172zM340 791q-184 0 -307 106l94 115q102 -80 221 -80q82 0 82 47q0 23 -22 35q-24 12 -120 34t-159 63q-63 42 -63 131t67 147q68 57 186 57q166 0 269 -86l-88 -121q-92 66 -176 66
t-84 -48q0 -23 24 -35t120 -33q94 -20 158 -64t64 -134t-72 -145t-194 -55z" />
    <glyph glyph-name="trademark" unicode="&#x2122;" horiz-adv-x="1423" 
d="M221 803v477h-188v154h553v-154h-189v-477h-176zM684 803v631h186l150 -244l151 244h185v-631h-174v368l-160 -249h-6l-160 249v-368h-172z" />
    <glyph glyph-name="minus" unicode="&#x2212;" horiz-adv-x="1310" 
d="M1194 549h-1077v344h1077v-344z" />
    <glyph glyph-name="Q.alt" horiz-adv-x="1701" 
d="M852 330q160 0 262 112t103 271v4q-1 159 -105 273t-264 114t-261 -112t-102 -271v-4q-1 -159 103 -273t264 -114zM848 -27q-330 0 -550 214t-220 526v4q0 311 222 528t552 217t550 -215t220 -526v-4q0 -299 -205 -508l359 -369v-20h-531l-184 180q-111 -27 -213 -27z
" />
    <glyph glyph-name="a.alt" horiz-adv-x="1384" 
d="M672 301q94 0 160 72t65 180v4q-1 109 -65 179t-160 71q-96 0 -162 -71t-66 -179v-4q0 -109 67 -181t161 -71zM549 -25q-201 0 -343 158t-143 416v4q-1 262 141 421t345 159t342 -160v135h389v-1108h-389v147q-141 -172 -342 -172z" />
    <glyph glyph-name="aacute.alt" horiz-adv-x="1384" 
d="M672 301q94 0 160 72t65 180v4q-1 109 -65 179t-160 71q-96 0 -162 -71t-66 -179v-4q0 -109 67 -181t161 -71zM549 -25q-201 0 -343 158t-143 416v4q-1 262 141 421t345 159t342 -160v135h389v-1108h-389v147q-141 -172 -342 -172zM563 1212l213 377l361 -116l-303 -261
h-271z" />
    <glyph glyph-name="abreve.alt" horiz-adv-x="1384" 
d="M711 1208q-172 0 -281 89t-123 251h228q41 -118 176 -118t176 118h227q-14 -162 -122 -251t-281 -89zM672 301q94 0 160 72t65 180v4q-1 109 -65 179t-160 71q-96 0 -162 -71t-66 -179v-4q0 -109 67 -181t161 -71zM549 -25q-201 0 -343 158t-143 416v4q-1 262 141 421
t345 159t342 -160v135h389v-1108h-389v147q-141 -172 -342 -172z" />
    <glyph glyph-name="acircumflex.alt" horiz-adv-x="1384" 
d="M672 301q94 0 160 72t65 180v4q-1 109 -65 179t-160 71q-96 0 -162 -71t-66 -179v-4q0 -109 67 -181t161 -71zM549 -25q-201 0 -343 158t-143 416v4q-1 262 141 421t345 159t342 -160v135h389v-1108h-389v147q-141 -172 -342 -172zM291 1212l262 336h315l262 -336h-249
l-172 125l-172 -125h-246z" />
    <glyph glyph-name="adieresis.alt" horiz-adv-x="1384" 
d="M672 301q94 0 160 72t65 180v4q-1 109 -65 179t-160 71q-96 0 -162 -71t-66 -179v-4q0 -109 67 -181t161 -71zM549 -25q-201 0 -343 158t-143 416v4q-1 262 141 421t345 159t342 -160v135h389v-1108h-389v147q-141 -172 -342 -172zM332 1212v291h330v-291h-330zM760 1212
v291h332v-291h-332z" />
    <glyph glyph-name="agrave.alt" horiz-adv-x="1384" 
d="M590 1212l-301 261l360 116l211 -377h-270zM672 301q94 0 160 72t65 180v4q-1 109 -65 179t-160 71q-96 0 -162 -71t-66 -179v-4q0 -109 67 -181t161 -71zM549 -25q-201 0 -343 158t-143 416v4q-1 262 141 421t345 159t342 -160v135h389v-1108h-389v147
q-141 -172 -342 -172z" />
    <glyph glyph-name="amacron.alt" horiz-adv-x="1384" 
d="M328 1227v233h768v-233h-768zM672 301q94 0 160 72t65 180v4q-1 109 -65 179t-160 71q-96 0 -162 -71t-66 -179v-4q0 -109 67 -181t161 -71zM549 -25q-201 0 -343 158t-143 416v4q-1 262 141 421t345 159t342 -160v135h389v-1108h-389v147q-141 -172 -342 -172z" />
    <glyph glyph-name="aogonek.alt" horiz-adv-x="1384" 
d="M672 301q94 0 160 72t65 180v4q-1 109 -65 179t-160 71q-96 0 -162 -71t-66 -179v-4q0 -109 67 -181t161 -71zM864 -172q0 90 82 172h-55v147q-141 -172 -342 -172t-343 158t-143 416v4q-1 262 141 421t345 159t342 -160v135h389v-1108h-86q-45 -51 -45 -96
q0 -80 147 -74v-166q-192 -26 -312 24t-120 140z" />
    <glyph glyph-name="aring.alt" horiz-adv-x="1384" 
d="M672 301q94 0 160 72t65 180v4q-1 109 -65 179t-160 71q-96 0 -162 -71t-66 -179v-4q0 -109 67 -181t161 -71zM549 -25q-201 0 -343 158t-143 416v4q-1 262 141 421t345 159t342 -160v135h389v-1108h-389v147q-141 -172 -342 -172zM571 1475q0 -59 41 -101
q42 -42 100 -41q58 0 99 42q41 43 41 101t-41 100t-99 42t-100 -42t-41 -101zM440 1475q0 109 79 185t193 75q114 0 192 -76q78 -77 79 -185q0 -108 -79 -184q-78 -76 -192 -76t-193 76t-79 185z" />
    <glyph glyph-name="aring.alt2" horiz-adv-x="1226" 
d="M574 219q74 0 126 50q53 50 54 132v52q-68 29 -152 29t-131 -39q-47 -38 -47 -99v-4q0 -55 38 -88t112 -33zM623 1407q-57 0 -99 -42t-43 -100q0 -59 41 -101q42 -42 100 -42t99 42t41 102t-41 100q-41 41 -98 41zM1133 637v-637h-385v115q-125 -139 -326 -140
q-164 1 -268 91t-105 251v5q0 168 117 258t317 90q145 0 267 -43v18q0 180 -222 180q-150 0 -305 -61l-80 274q135 55 265 74q-58 68 -58 166t79 172q79 76 193 76t192 -76t79 -179q0 -103 -72 -175q312 -85 312 -459z" />
    <glyph glyph-name="aringacute.alt" horiz-adv-x="1384" 
d="M672 301q94 0 160 72t65 180v4q-1 109 -65 179t-160 71q-96 0 -162 -71t-66 -179v-4q0 -109 67 -181t161 -71zM549 -25q-201 0 -343 158t-143 416v4q-1 262 141 421t345 159t342 -160v135h389v-1108h-389v147q-141 -172 -342 -172zM571 1475q0 -59 41 -101
q42 -42 100 -41q58 0 99 42q41 43 41 101t-41 100t-99 42t-100 -42t-41 -101zM440 1475q0 109 79 185t193 75q114 0 192 -76q78 -77 79 -185q0 -108 -79 -184q-78 -76 -192 -76t-193 76t-79 185zM561 1802l230 328l350 -115l-310 -213h-270z" />
    <glyph glyph-name="aringacute.alt2" horiz-adv-x="1226" 
d="M574 219q74 0 126 50q53 50 54 132v52q-68 29 -152 29t-131 -39q-47 -38 -47 -99v-4q0 -55 38 -88t112 -33zM623 1407q-57 0 -99 -42t-43 -100q0 -59 41 -101q42 -42 100 -42t99 42t41 102t-41 100q-41 41 -98 41zM1133 637v-637h-385v115q-125 -139 -326 -140
q-164 1 -268 91t-105 251v5q0 168 117 258t317 90q145 0 267 -43v18q0 180 -222 180q-150 0 -305 -61l-80 274q135 55 265 74q-58 68 -58 166t79 172q79 76 193 76t192 -76t79 -179q0 -103 -72 -175q312 -85 312 -459zM471 1593l229 328l351 -115l-310 -213h-270z" />
    <glyph glyph-name="atilde.alt" horiz-adv-x="1384" 
d="M897 1212q-69 0 -181 40t-146 40t-54 -21q-20 -22 -43 -75l-186 51q35 158 93 232t161 73q71 0 183 -40t144 -40t54 22q20 22 43 73l186 -51q-33 -156 -92 -230t-162 -74zM672 301q94 0 160 72t65 180v4q-1 109 -65 179t-160 71q-96 0 -162 -71t-66 -179v-4
q0 -109 67 -181t161 -71zM549 -25q-201 0 -343 158t-143 416v4q-1 262 141 421t345 159t342 -160v135h389v-1108h-389v147q-141 -172 -342 -172z" />
    <glyph glyph-name="three.alt" horiz-adv-x="1265" 
d="M649 -29q-379 0 -616 254l248 244q162 -162 348 -162q88 0 140 39t52 98v5q0 125 -229 124h-150v299h146q203 0 203 125v4q1 55 -49 91t-132 34q-145 0 -286 -155l-246 229q106 125 240 194q134 68 350 68t360 -108q145 -108 146 -275v-4q0 -231 -216 -332
q252 -86 252 -321v-4q0 -197 -152 -322t-409 -125z" />
    <glyph glyph-name="registered.alt" horiz-adv-x="1699" 
d="M743 754h144q55 0 87 26t32 68v4q0 45 -32 70t-87 24h-144v-192zM524 344v789h369q176 0 264 -89q68 -68 68 -180v-4q0 -172 -162 -239l188 -277h-252l-159 240h-97v-240h-219zM195 713q1 -274 189 -466t466 -192t466 194q189 194 189 468v4q0 274 -188 467
q-188 192 -466 192t-467 -194t-189 -469v-4zM848 -29q-309 0 -524 218t-215 524v4q0 305 217 525t526 220t524 -218t215 -523v-4q0 -305 -217 -525t-526 -221z" />
    <glyph glyph-name="NUL" horiz-adv-x="0" 
 />
    <glyph glyph-name="hfjslug" horiz-adv-x="1421" 
d="M872 580q-33 0 -32 34q0 12 9 24t23 11q14 0 24 -11t9 -24q0 -34 -33 -34zM997 612h-22v35h22q20 0 21 -16q-1 -19 -21 -19zM659 823q-33 0 -33 45t33 78l41 -80q-16 -43 -41 -43zM645 1056q0 30 29 29q27 -1 27 -35t-31 -69q-25 45 -25 75zM494 662l28 -97h17l22 70h2
l23 -70h16l29 97h-17l-20 -72h-2l-23 72h-14l-23 -72h-2l-20 72h-16zM270 662v-95h17v66l51 -66h14v95h-16v-66l-51 66h-15zM395 662v-95h70v15h-53v26h47v15h-47v24h53v15h-70zM750 567h16v35l37 60h-19l-26 -46l-27 46h-18l37 -60v-35zM872 565q20 1 34 15q33 33 1 68
q-15 16 -35 16t-34 -16t-14 -34q0 -20 14 -34t34 -15zM1034 631q0 31 -35 31h-41v-95h17v31h24l21 -31h18l-24 35q20 8 20 29zM1071 662v-95h16v25l17 16l31 -41h20l-41 54l37 41h-21l-40 -50h-3v50h-16zM729 1047q0 63 -55 63q-25 0 -41 -18q-35 -39 12 -125
q-47 -37 -47 -83q0 -91 59 -89q39 0 60 49h2l24 -49l25 12l-35 65q13 29 27 80l-27 6q-8 -37 -16 -61h-2l-33 64q47 43 47 86zM985 799q63 0 64 73v281h-33v-281q0 -45 -33 -45q-16 0 -41 11v-31q20 -8 43 -8zM377 1153v-352h31v162h96v-162h31v352h-31v-162h-96v162h-31z
M819 1153v-352h31v160h78v28h-78v135h88v29h-119zM1319 -410h-426l-16 29h-334l-17 -29h-424v621q29 0 48 19q18 19 18 46q0 26 -20 46t-46 20v1135h205l62 161h684l59 -161h207v-1887z" />
    <glyph glyph-name="i.dot" horiz-adv-x="616" 
d="M113 0v1108h389v-1108h-389zM104 1208v287h406v-287h-406z" />
    <glyph glyph-name="caron.alt" 
d="M676 1567v-6l-133 -435h-158l23 441h268z" />
    <glyph glyph-name="acute.cap" 
d="M260 1532l221 332l371 -113l-303 -219h-289z" />
    <glyph glyph-name="hungarumlaut.cap" 
d="M446 1532l127 201l-268 -201h-262l211 332l334 -111l69 111l344 -113l-292 -219h-263z" />
    <glyph glyph-name="grave.cap" 
d="M541 1864l223 -332h-291l-303 219z" />
    <glyph glyph-name="circumflex.cap" 
d="M88 1532l252 305h346l252 -305h-266l-162 108l-162 -108h-260z" />
    <glyph glyph-name="caron.cap" 
d="M938 1837l-252 -305h-346l-252 305h264l162 -108l162 108h262z" />
    <glyph glyph-name="breve.cap" 
d="M512 1528q-172 0 -278 79q-105 79 -125 230h235q39 -92 168 -92t170 92h233q-19 -153 -125 -231t-278 -78z" />
    <glyph glyph-name="tilde.cap" 
d="M326 1872q68 0 190 -40t155 -40t55 22t44 72l186 -51q-33 -155 -93 -229t-163 -74q-70 0 -190 40t-155 40q-63 0 -101 -96l-186 51q35 157 95 231t163 74z" />
    <glyph glyph-name="macron.cap" 
d="M104 1546v240h816v-240h-816z" />
    <glyph glyph-name="dieresis.cap" 
d="M117 1532v283h338v-283h-338zM569 1532v283h338v-283h-338z" />
    <glyph glyph-name="dotaccent.cap" 
d="M338 1532v283h348v-283h-348z" />
    <glyph glyph-name="ring.cap" 
d="M365 1792q0 -57 41 -95q40 -38 106 -38t106 38t41 95q0 57 -41 95q-40 38 -106 38t-106 -38t-41 -95zM223 1792q0 112 84 184t205 72t205 -73t84 -183t-84 -184t-205 -74t-205 74t-84 184z" />
    </font>
</defs>
</svg>
