<?xml version="1.0" standalone="no"?>
<!DOCTYPE svg PUBLIC "-//W3C//DTD SVG 1.1//EN" "http://www.w3.org/Graphics/SVG/1.1/DTD/svg11.dtd" >
<svg xmlns="http://www.w3.org/2000/svg">
<metadata>
Created by FontPrep 20130207 at Tue Sep  9 17:50:43 2014
 By Alexander Gunnarson
Copyright (C) 2000, 2007 Hoefler &#38; Frere-Jones. http://www.typography.com
</metadata>
<defs>
<font id="e869c4d98aaf6b162624de2d95b087e9" horiz-adv-x='1024' >
  <font-face 
    font-family="Gotham-ExtraLightItalic"
    font-weight="275"
    font-style="italic"
    font-stretch="normal"
    units-per-em="2048"
    panose-1="2 0 6 3 4 0 0 2 0 4"
    ascent="1638"
    descent="-410"
    x-height="1032"
    cap-height="1434"
    bbox="-252 -414 2484 1997"
    underline-thickness="40"
    underline-position="-231"
    slope="-12"
    unicode-range="U+0020-FB04"
  />
<missing-glyph 
d="M512 492l-367 -799h734zM922 1384l-353 -770l353 -770v1540zM102 -156l353 770l-353 770v-1540zM145 1536l367 -799l367 799h-734zM0 -410v2048h1024v-2048h-1024z" />
    <glyph glyph-name="f_f" unicode="ff" horiz-adv-x="1392" 
d="M748 1495q109 0 190 -47l-18 -59q-84 45 -175 45q-195 0 -258 -246l-43 -156h375l-14 -59h-377l-260 -973h-66l260 973h-157l16 59h158l45 168q78 295 324 295zM1444 1495q109 0 190 -47l-18 -59q-86 45 -174 45q-193 0 -260 -246l-41 -156h375l-17 -59h-375l-260 -973
h-67l262 973h-158l17 59h157l45 168q80 295 324 295z" />
    <glyph glyph-name="fi" unicode="fi" horiz-adv-x="1171" 
d="M760 0l276 1032h68l-279 -1032h-65zM748 1495q109 0 190 -47l-18 -59q-84 45 -175 45q-195 0 -258 -246l-43 -156h375l-14 -59h-377l-260 -973h-66l260 973h-157l16 59h158l45 168q78 295 324 295zM1102 1317l35 125h88l-35 -125h-88z" />
    <glyph glyph-name="fl" unicode="fl" horiz-adv-x="1169" 
d="M748 1495q109 0 190 -47l-18 -59q-84 45 -175 45q-195 0 -258 -246l-43 -156h375l-14 -59h-377l-260 -973h-66l260 973h-157l16 59h158l45 168q78 295 324 295zM760 0l401 1495h66l-402 -1495h-65z" />
    <glyph glyph-name="f_f_i" unicode="ffi" horiz-adv-x="1867" 
d="M1456 0l277 1032h65l-276 -1032h-66zM748 1495q109 0 190 -47l-18 -59q-84 45 -175 45q-195 0 -258 -246l-43 -156h375l-14 -59h-377l-260 -973h-66l260 973h-157l16 59h158l45 168q78 295 324 295zM1444 1495q109 0 190 -47l-18 -59q-86 45 -174 45q-193 0 -260 -246
l-41 -156h375l-17 -59h-375l-260 -973h-67l262 973h-158l17 59h157l45 168q80 295 324 295zM1798 1317l35 125h88l-35 -125h-88z" />
    <glyph glyph-name="f_f_l" unicode="ffl" horiz-adv-x="1865" 
d="M748 1495q109 0 190 -47l-18 -59q-84 45 -175 45q-195 0 -258 -246l-43 -156h375l-14 -59h-377l-260 -973h-66l260 973h-157l16 59h158l45 168q78 295 324 295zM1444 1495q109 0 190 -47l-18 -59q-86 45 -174 45q-193 0 -260 -246l-41 -156h375l-17 -59h-375l-260 -973
h-67l262 973h-158l17 59h157l45 168q80 295 324 295zM1456 0l402 1495h65l-401 -1495h-66z" />
    <glyph glyph-name=".notdef" 
d="M512 492l-367 -799h734zM922 1384l-353 -770l353 -770v1540zM102 -156l353 770l-353 770v-1540zM145 1536l367 -799l367 799h-734zM0 -410v2048h1024v-2048h-1024z" />
    <glyph glyph-name=".null" horiz-adv-x="0" 
 />
    <glyph glyph-name="nonmarkingreturn" horiz-adv-x="681" 
 />
    <glyph glyph-name="space" unicode=" " horiz-adv-x="589" 
 />
    <glyph glyph-name="exclam" unicode="!" horiz-adv-x="444" 
d="M35 0l35 133h98l-35 -133h-98zM166 375l215 868l51 191h74l-51 -191l-254 -868h-35z" />
    <glyph glyph-name="quotedbl" unicode="&#x22;" horiz-adv-x="708" 
d="M481 1434v-7l-245 -514h-39l202 521h82zM786 1434v-7l-245 -514h-39l203 521h81z" />
    <glyph glyph-name="numbersign" unicode="#" horiz-adv-x="1366" 
d="M422 463h463l182 520h-465zM197 0l139 399h-240l17 64h243l183 520h-265l17 61h268l137 390h64l-135 -390h462l136 390h63l-135 -390h240l-17 -61h-246l-180 -520h264l-16 -64h-270l-140 -399h-63l139 399h-463l-139 -399h-63z" />
    <glyph glyph-name="dollar" unicode="$" horiz-adv-x="1269" 
d="M606 61q194 1 306 97t112 216t-75 186t-236 128l-170 -625q22 -2 63 -2zM754 1372q-180 0 -290 -90t-110 -207t77 -179t243 -122l160 594q-25 4 -80 4zM285 1074q0 140 131 250t346 110q45 0 90 -7l33 125h63l-37 -133q213 -43 351 -186l-48 -47q-135 139 -323 174
q-162 -606 -162 -608q183 -66 275 -147t92 -229t-134 -262t-366 -114l-70 2l-53 -203h-63l57 211q-274 43 -440 244l51 45q156 -188 407 -229l172 639q-190 73 -281 149t-91 216z" />
    <glyph glyph-name="percent" unicode="%" horiz-adv-x="1685" 
d="M1204 45q127 0 220 117q94 117 94 243q0 125 -58 193t-157 68q-127 0 -221 -117t-93 -243t59 -194t156 -67zM485 768q127 0 221 117q93 117 93 243q-1 126 -59 194t-156 69q-127 0 -220 -117q-94 -118 -94 -242t60 -194t155 -70zM1200 -16q-123 0 -201 86t-77 213
q0 172 113 307q114 135 272 135q123 0 201 -85t77 -214q-1 -172 -115 -307t-270 -135zM145 0l1418 1434h79l-1415 -1434h-82zM481 709q-123 0 -199 85t-77 214q0 172 113 307q114 135 272 135q120 0 198 -85t78 -214q0 -172 -114 -307t-271 -135z" />
    <glyph glyph-name="ampersand" unicode="&#x26;" horiz-adv-x="1396" 
d="M475 41q258 0 496 242l-344 485q-487 -121 -488 -428q-1 -137 95 -218t241 -81zM551 1110q0 -121 106 -283q446 119 447 349q0 98 -70 159t-188 61t-207 -82q-88 -83 -88 -204zM469 -20q-168 0 -285 95t-116 259q0 348 524 483q-111 169 -111 305t109 236t258 100
t236 -79t87 -201q0 -268 -479 -398l322 -454q119 129 250 354l55 -31q-137 -221 -268 -370l188 -267l-51 -35l-182 259q-256 -256 -537 -256z" />
    <glyph glyph-name="quotesingle" unicode="'" horiz-adv-x="405" 
d="M481 1434v-7l-245 -514h-39l202 521h82z" />
    <glyph glyph-name="parenleft" unicode="(" horiz-adv-x="831" 
d="M260 451q0 -391 332 -682l-39 -43q-362 297 -363 723q0 319 210 598t604 426l22 -54q-378 -145 -572 -407t-194 -561z" />
    <glyph glyph-name="parenright" unicode=")" horiz-adv-x="831" 
d="M684 745q0 -319 -210 -598t-603 -426l-23 54q377 145 572 407t194 561q0 391 -331 682l39 43q362 -297 362 -723z" />
    <glyph glyph-name="asterisk" unicode="*" horiz-adv-x="882" 
d="M549 834l-60 16l86 264l-264 -88l-16 59l274 58l-211 186l48 43l184 -207l57 271l60 -17l-86 -264l264 88l16 -59l-274 -58l211 -186l-47 -43l-185 207z" />
    <glyph glyph-name="plus" unicode="+" horiz-adv-x="1245" 
d="M510 231l125 459h-447l17 62h446l123 458h66l-123 -458h446l-16 -62h-447l-125 -459h-65z" />
    <glyph glyph-name="comma" unicode="," horiz-adv-x="391" 
d="M-57 -184l-11 34q92 27 119 150h-43l35 133h98l-30 -117q-27 -94 -63 -138t-105 -62z" />
    <glyph glyph-name="hyphen" unicode="-" horiz-adv-x="811" 
d="M156 573l20 72h524l-20 -72h-524z" />
    <glyph glyph-name="period" unicode="." horiz-adv-x="391" 
d="M8 0l35 133h98l-35 -133h-98z" />
    <glyph glyph-name="slash" unicode="/" horiz-adv-x="1013" 
d="M-219 -262l1470 1896h74l-1470 -1896h-74z" />
    <glyph glyph-name="zero" unicode="0" horiz-adv-x="1449" 
d="M646 39q190 0 343 130q154 130 238 331t84 416q1 215 -105 347t-296 132t-343 -130t-237 -331t-84 -416t105 -347t295 -132zM917 1458q217 0 341 -150t124 -385q0 -237 -92 -453t-263 -356t-388 -139q-217 0 -340 150q-123 149 -123 387t92 453t262 354t387 139z" />
    <glyph glyph-name="one" unicode="1" horiz-adv-x="657" 
d="M201 0l366 1364l-301 -111l-6 62l342 129h55l-387 -1444h-69z" />
    <glyph glyph-name="two" unicode="2" horiz-adv-x="1169" 
d="M764 1391q-227 0 -424 -215l-49 41q215 238 475 237q186 0 298 -96t112 -228t-69 -227q-69 -96 -226 -221l-791 -616h868l-18 -66h-981l10 47l871 682q143 115 203 200q61 85 61 195t-91 188q-91 79 -249 79z" />
    <glyph glyph-name="three" unicode="3" horiz-adv-x="1177" 
d="M483 -23q-174 0 -298 72t-185 199l57 31q127 -240 428 -240q205 -1 343 107t139 282q0 135 -114 213t-327 78h-53l-14 39l682 610h-797l21 66h892l-14 -50l-674 -608q215 -4 342 -95t127 -249q0 -201 -162 -328t-393 -127z" />
    <glyph glyph-name="four" unicode="4" horiz-adv-x="1288" 
d="M147 426h742l241 907zM774 0l98 365h-817l-10 49l1120 1030h62l-271 -1018h234l-16 -61h-234l-98 -365h-68z" />
    <glyph glyph-name="five" unicode="5" horiz-adv-x="1202" 
d="M508 -25q-166 0 -288 73t-189 188l57 34q139 -233 424 -233q211 0 351 126q141 126 141 293t-104 252t-274 85q-169 0 -347 -91l-41 33l229 699h758l-19 -66h-696l-193 -584q151 72 331 72t304 -103t123 -296t-163 -337t-404 -145z" />
    <glyph glyph-name="six" unicode="6" horiz-adv-x="1288" 
d="M242 410q0 -158 108 -266t296 -107q190 0 325 132t135 314q0 143 -100 239t-295 97q-195 0 -332 -126q-137 -125 -137 -283zM1178 485q0 -209 -158 -359t-375 -151q-217 0 -347 128t-130 362q0 233 81 445t222 352q195 196 445 196t407 -192l-51 -43q-146 172 -362 172
t-388 -172q-238 -238 -278 -625q55 117 184 201q130 84 318 84t310 -116t122 -282z" />
    <glyph glyph-name="seven" unicode="7" horiz-adv-x="1126" 
d="M129 0l1008 1368h-856l18 66h938l-12 -48l-1016 -1386h-80z" />
    <glyph glyph-name="eight" unicode="8" horiz-adv-x="1292" 
d="M160 358q0 -144 124 -229q124 -86 331 -86q208 0 338 96q130 95 130 239t-121 238q-122 94 -324 94t-340 -104t-138 -248zM764 764q176 0 302 98t126 232t-111 215q-111 82 -287 82q-176 -1 -296 -95q-121 -94 -121 -227t105 -219q106 -86 282 -86zM1155 387
q1 -175 -153 -291t-390 -116t-380 103t-144 265t128 273t331 135q-109 38 -175 118t-67 189q1 167 145 279t348 112t335 -97t131 -247t-111 -254t-285 -131q127 -39 207 -129t80 -209z" />
    <glyph glyph-name="nine" unicode="9" horiz-adv-x="1288" 
d="M680 606q194 0 331 128q138 128 138 288t-109 266t-296 107q-187 0 -322 -133t-137 -316q0 -145 100 -243q101 -97 295 -97zM475 -25q-250 0 -412 197l54 43q147 -178 362 -178t389 174q236 233 281 620q-55 -117 -184 -203t-319 -85t-312 117q-121 116 -121 284
q2 211 159 363q157 151 375 151t348 -130t130 -360t-82 -444q-82 -213 -221 -354q-197 -195 -447 -195z" />
    <glyph glyph-name="colon" unicode=":" horiz-adv-x="403" 
d="M14 0l37 133h99l-37 -133h-99zM256 899l35 133h98l-35 -133h-98z" />
    <glyph glyph-name="semicolon" unicode=";" horiz-adv-x="403" 
d="M-51 -184l-10 34q90 27 120 150h-45l37 133h99l-33 -117q-27 -94 -63 -138t-105 -62zM256 899l35 133h98l-35 -133h-98z" />
    <glyph glyph-name="less" unicode="&#x3c;" horiz-adv-x="1245" 
d="M985 213l-815 485l12 45l1075 486l-20 -78l-973 -436l740 -436z" />
    <glyph glyph-name="equal" unicode="=" horiz-adv-x="1245" 
d="M162 453l18 65h881l-19 -65h-880zM291 926l16 65h881l-17 -65h-880z" />
    <glyph glyph-name="greater" unicode="&#x3e;" horiz-adv-x="1245" 
d="M92 213l21 78l972 436l-739 436l19 66l815 -486l-13 -45z" />
    <glyph glyph-name="question" unicode="?" horiz-adv-x="1052" 
d="M272 0l37 133h99l-37 -133h-99zM670 1389q-227 0 -420 -189l-43 45q211 207 467 207q188 0 299 -99t110 -251q-1 -194 -155 -306t-393 -145l-93 -276h-39l68 325l10 9q233 20 382 119q148 99 149 272q0 129 -93 209t-249 80z" />
    <glyph glyph-name="at" unicode="@" horiz-adv-x="1968" 
d="M901 221q166 0 294 139q128 140 128 282t-72 219t-204 77q-170 0 -284 -136t-114 -308q-1 -125 67 -199t185 -74zM946 -328q-369 0 -587 213t-218 553q0 210 82 400q163 378 535 540q182 80 375 80q343 0 549 -207t206 -493t-128 -442q-128 -157 -275 -156
q-117 0 -167 66t-44 165q-60 -102 -160 -168q-100 -65 -232 -65t-219 92t-88 239q-1 197 139 355t330 157q139 0 219 -73q79 -74 97 -185l67 222l62 -17l-133 -432q-45 -137 -10 -221q34 -84 152 -84t228 142q110 143 109 407q0 264 -193 457t-512 192q-246 0 -460 -128
t-345 -352q-130 -224 -130 -489q1 -315 203 -517t550 -202q248 0 447 97l22 -45q-209 -101 -471 -101z" />
    <glyph glyph-name="A" unicode="A" horiz-adv-x="1564" 
d="M375 481h825l-174 881zM-59 0l1069 1444h63l291 -1444h-70l-82 418h-884l-308 -418h-79z" />
    <glyph glyph-name="B" unicode="B" horiz-adv-x="1478" 
d="M723 63q246 -1 381 99t135 262q0 129 -113 199t-295 69h-501l-168 -629h561zM834 756q236 0 372 94t135 256q0 127 -98 196t-266 68h-465l-164 -614h486zM987 1434q190 0 308 -86t118 -243t-115 -258t-280 -124q135 -31 213 -107t78 -194q0 -184 -156 -303t-436 -119
h-641l385 1434h526z" />
    <glyph glyph-name="C" unicode="C" horiz-adv-x="1497" 
d="M764 -25q-242 0 -408 158q-166 157 -166 405t113 456t311 336q199 128 430 128q180 0 316 -84t203 -227l-62 -29q-141 276 -459 277q-213 0 -395 -120q-183 -121 -285 -313t-102 -418t144 -365q144 -140 366 -140q297 0 520 227l45 -43q-239 -248 -571 -248z" />
    <glyph glyph-name="D" unicode="D" horiz-adv-x="1568" 
d="M543 63q416 0 667 252q205 205 205 512q0 227 -139 367q-172 176 -510 176h-254l-350 -1307h381zM760 1434q375 0 569 -195q158 -158 158 -408q0 -334 -225 -559q-128 -128 -318 -200t-412 -72h-456l385 1434h299z" />
    <glyph glyph-name="E" unicode="E" horiz-adv-x="1343" 
d="M76 0l385 1434h1003l-18 -64h-934l-166 -616h846l-16 -64h-846l-168 -627h944l-16 -63h-1014z" />
    <glyph glyph-name="F" unicode="F" horiz-adv-x="1310" 
d="M76 0l385 1434h997l-18 -64h-928l-170 -635h840l-19 -63h-837l-181 -672h-69z" />
    <glyph glyph-name="G" unicode="G" horiz-adv-x="1601" 
d="M801 -25q-270 0 -437 167t-167 433q-1 227 111 429t314 328t443 126q346 0 516 -258l-55 -37q-158 231 -478 231t-549 -246q-230 -247 -231 -570q0 -242 146 -392t390 -150q243 0 447 132l142 494h-494l16 67h564l-170 -600q-238 -154 -508 -154z" />
    <glyph glyph-name="H" unicode="H" horiz-adv-x="1544" 
d="M76 0l385 1434h69l-184 -680h977l184 680h70l-385 -1434h-70l185 690h-977l-185 -690h-69z" />
    <glyph glyph-name="I" unicode="I" horiz-adv-x="524" 
d="M88 0l385 1434h70l-385 -1434h-70z" />
    <glyph glyph-name="J" unicode="J" horiz-adv-x="1085" 
d="M397 -23q-172 1 -271 91t-136 233l61 21q82 -281 332 -281q317 0 432 432l258 961h70l-262 -975q-61 -231 -187 -357t-297 -125z" />
    <glyph glyph-name="K" unicode="K" horiz-adv-x="1452" 
d="M76 0l385 1434h69l-256 -955l1207 955h104l-790 -621l428 -813h-78l-406 772l-491 -387l-103 -385h-69z" />
    <glyph glyph-name="L" unicode="L" horiz-adv-x="1208" 
d="M76 0l385 1434h69l-368 -1371h864l-16 -63h-934z" />
    <glyph glyph-name="M" unicode="M" horiz-adv-x="1769" 
d="M76 0l385 1434h57l371 -871l837 871h74l-385 -1434h-69l352 1313l-830 -860h-4l-368 860l-353 -1313h-67z" />
    <glyph glyph-name="N" unicode="N" horiz-adv-x="1605" 
d="M76 0l385 1434h63l690 -1325l357 1325h67l-385 -1434h-57l-696 1335l-359 -1335h-65z" />
    <glyph glyph-name="O" unicode="O" horiz-adv-x="1722" 
d="M815 37q205 0 378 114t270 298q97 185 97 407t-152 380q-153 158 -394 159q-205 0 -378 -114t-270 -298q-98 -183 -98 -405t152 -382t395 -159zM813 -25q-268 1 -441 179t-173 440q0 221 108 420q109 200 298 322t411 122q270 0 443 -178t173 -440q0 -221 -108 -420
t-300 -322q-190 -123 -411 -123z" />
    <glyph glyph-name="P" unicode="P" horiz-adv-x="1363" 
d="M711 616q291 0 453 118t161 313q0 133 -80 213q-111 111 -346 110h-387l-203 -754h402zM901 1434q268 0 397 -129q96 -92 97 -254q-1 -229 -185 -363t-503 -135h-414l-148 -553h-69l385 1434h440z" />
    <glyph glyph-name="Q" unicode="Q" horiz-adv-x="1722" 
d="M808 37q236 0 429 145l-256 285l51 43l252 -287q129 115 203 277t74 338q0 240 -153 398t-394 159q-205 0 -378 -114t-270 -298q-98 -183 -98 -405t152 -382t388 -159zM807 -25q-262 1 -435 179t-173 440q0 221 108 420q109 200 298 322t411 122q270 0 443 -178t173 -440
q0 -188 -82 -364t-223 -300l148 -164l-50 -43l-147 166q-209 -160 -471 -160z" />
    <glyph glyph-name="R" unicode="R" horiz-adv-x="1474" 
d="M821 676q307 0 453 145q100 99 100 245t-104 225t-301 79h-457l-186 -694h495zM973 1434q223 0 347 -94t124 -269q0 -174 -121 -291q-150 -150 -438 -162l321 -618h-80l-315 612h-502l-164 -612h-69l385 1434h512z" />
    <glyph glyph-name="S" unicode="S" horiz-adv-x="1308" 
d="M616 -20q-178 0 -328 72t-243 198l53 39q188 -246 527 -246q197 0 317 100q120 99 121 225q0 126 -86 194q-87 68 -279 144q-192 74 -287 151t-95 223t136 260q138 114 367 114q305 0 492 -211l-54 -45q-170 193 -444 193q-195 1 -311 -95t-117 -215q0 -119 87 -183
q86 -64 276 -138q190 -72 287 -154t97 -234t-140 -272t-376 -120z" />
    <glyph glyph-name="T" unicode="T" horiz-adv-x="1218" 
d="M426 0l367 1370h-510l16 64h1092l-17 -64h-512l-366 -1370h-70z" />
    <glyph glyph-name="U" unicode="U" horiz-adv-x="1544" 
d="M720 -23q-244 0 -383 119q-138 119 -138 336q0 106 34 240l203 762h70l-209 -787q-29 -100 -29 -209q0 -188 119 -292t335 -105q216 1 364 149t225 431l217 813h69l-223 -830q-78 -295 -231 -448q-179 -179 -423 -179z" />
    <glyph glyph-name="V" unicode="V" horiz-adv-x="1462" 
d="M551 -10l-244 1444h72l219 -1358l952 1358h80l-1022 -1444h-57z" />
    <glyph glyph-name="W" unicode="W" horiz-adv-x="2166" 
d="M442 -10l-123 1444h70l109 -1342l792 1346h53l89 -1346l813 1342h75l-884 -1444h-58l-90 1325l-788 -1325h-58z" />
    <glyph glyph-name="X" unicode="X" horiz-adv-x="1392" 
d="M-45 0l756 737l-389 697h73l365 -658l672 658h88l-729 -709l403 -725h-76l-375 684l-700 -684h-88z" />
    <glyph glyph-name="Y" unicode="Y" horiz-adv-x="1363" 
d="M496 0l159 594l-374 840h73l348 -787l773 787h92l-846 -856l-156 -578h-69z" />
    <glyph glyph-name="Z" unicode="Z" horiz-adv-x="1363" 
d="M-23 0l11 39l1360 1331h-969l18 64h1078l-13 -39l-1360 -1332h1002l-17 -63h-1110z" />
    <glyph glyph-name="bracketleft" unicode="[" horiz-adv-x="856" 
d="M18 -266l457 1700h547l-14 -52h-482l-428 -1597h482l-15 -51h-547z" />
    <glyph glyph-name="backslash" unicode="\" horiz-adv-x="989" 
d="M768 -262l-453 1896h62l452 -1896h-61z" />
    <glyph glyph-name="bracketright" unicode="]" horiz-adv-x="856" 
d="M-131 -266l14 51h484l426 1597h-482l15 52h546l-456 -1700h-547z" />
    <glyph glyph-name="asciicircum" unicode="^" 
d="M293 1012l436 428h51l207 -428h-57l-187 360l-378 -360h-72z" />
    <glyph glyph-name="underscore" unicode="_" horiz-adv-x="1165" 
d="M-229 -313l16 59h1176l-17 -59h-1175z" />
    <glyph glyph-name="grave" unicode="`" 
d="M770 1219l-149 208l81 39l113 -247h-45z" />
    <glyph glyph-name="a" unicode="a" horiz-adv-x="1163" 
d="M397 35q178 0 318 108q139 109 182 275l25 92q-200 55 -396 55t-300 -80t-105 -203q1 -123 81 -185t195 -62zM385 -25q-135 0 -234 77t-100 208q0 170 128 268t338 98t419 -61l12 39q16 61 17 117q-1 129 -93 198t-244 69t-302 -54l-17 59q156 55 329 55t282 -82
q109 -83 108 -239q0 -63 -18 -133l-160 -594h-66l60 219q-160 -244 -459 -244z" />
    <glyph glyph-name="b" unicode="b" horiz-adv-x="1335" 
d="M637 37q221 0 368 176q146 176 146 397q0 168 -100 277q-101 109 -253 109t-282 -88q-130 -87 -203 -216q-72 -129 -71 -254q0 -174 110 -288t285 -113zM639 -25q-182 1 -295 101t-141 239l-86 -315h-66l402 1495h65l-188 -700q63 100 191 181t295 81t286 -125t119 -314
q0 -256 -169 -450t-413 -193z" />
    <glyph glyph-name="c" unicode="c" horiz-adv-x="1138" 
d="M553 -25q-180 0 -316 122t-137 325q0 254 182 444t427 191q147 0 249 -70t156 -176l-55 -31q-119 215 -343 215t-385 -171t-161 -400q0 -176 115 -282t270 -105q188 0 356 153l45 -40q-184 -175 -403 -175z" />
    <glyph glyph-name="d" unicode="d" horiz-adv-x="1335" 
d="M532 37q152 0 282 87t202 216t71 254q0 174 -108 288q-109 114 -285 113q-221 0 -368 -176t-148 -397q0 -168 100 -276q102 -108 254 -109zM515 -25q-167 0 -287 125t-119 312q0 256 169 450t412 195q182 -1 295 -101t141 -239l211 778h66l-402 -1495h-65l63 236
q-65 -100 -191 -180t-293 -81z" />
    <glyph glyph-name="e" unicode="e" horiz-adv-x="1198" 
d="M1028 655q0 143 -83 241t-256 99q-173 0 -315 -127t-186 -313h830q10 72 10 100zM172 410q0 -170 104 -272t291 -101q187 0 361 143l39 -47q-187 -158 -401 -158t-340 118t-126 313q0 254 178 452t420 199q197 0 297 -116t101 -286q-4 -96 -25 -159h-893q-6 -43 -6 -86z
" />
    <glyph glyph-name="f" unicode="f" horiz-adv-x="696" 
d="M748 1495q109 0 190 -47l-18 -59q-84 45 -175 45q-195 0 -258 -246l-43 -156h375l-14 -59h-377l-260 -973h-66l260 973h-157l16 59h158l45 168q78 295 324 295z" />
    <glyph glyph-name="g" unicode="g" horiz-adv-x="1331" 
d="M563 139q219 0 375 154t156 317q0 164 -111 274t-285 109q-211 1 -359 -151t-149 -359q0 -154 108 -249t265 -95zM485 -330q-137 0 -266 52t-221 141l47 47q176 -176 444 -176q211 0 336 125q94 94 148 288l45 168q-180 -240 -465 -239q-176 0 -304 112t-128 289
q0 236 171 408t408 172q178 1 287 -97t141 -231l82 303h66l-242 -901q-55 -205 -162 -313q-151 -148 -387 -148z" />
    <glyph glyph-name="h" unicode="h" horiz-adv-x="1243" 
d="M760 1057q164 0 255 -91t91 -243q0 -72 -27 -166l-147 -557h-66l150 559q20 76 20 158q0 129 -73 204q-74 75 -223 75q-150 0 -284 -116t-186 -305l-153 -575h-66l402 1495h65l-188 -698q166 260 430 260z" />
    <glyph glyph-name="i" unicode="i" horiz-adv-x="475" 
d="M63 0l279 1032h66l-277 -1032h-68zM406 1317l34 125h88l-34 -125h-88z" />
    <glyph glyph-name="j" unicode="j" horiz-adv-x="475" 
d="M-147 -338q-55 0 -105 16l19 60q43 -14 79 -14q143 0 189 170l307 1138h66l-310 -1147q-59 -223 -245 -223zM406 1317l34 125h88l-34 -125h-88z" />
    <glyph glyph-name="k" unicode="k" horiz-adv-x="1126" 
d="M51 0l402 1495h65l-305 -1139l856 676h94l-583 -457l321 -575h-74l-299 537l-338 -265l-73 -272h-66z" />
    <glyph glyph-name="l" unicode="l" horiz-adv-x="473" 
d="M63 0l402 1495h67l-401 -1495h-68z" />
    <glyph glyph-name="m" unicode="m" horiz-adv-x="1912" 
d="M721 1057q139 0 220 -82t89 -213q72 129 182 212q111 83 252 83q142 0 228 -89t86 -233q0 -63 -29 -178l-150 -557h-65l149 559q25 89 25 191t-68 174t-200 72t-257 -124q-126 -123 -173 -305l-152 -567h-65l149 559q27 96 27 172q0 121 -68 193q-69 72 -201 72
t-258 -124q-126 -123 -174 -305l-151 -567h-66l277 1032h65l-63 -235q164 260 391 260z" />
    <glyph glyph-name="n" unicode="n" horiz-adv-x="1243" 
d="M760 1057q164 0 255 -91t91 -243q0 -72 -27 -166l-147 -557h-66l150 559q20 76 20 158q0 129 -73 204q-74 75 -223 75q-150 0 -284 -116t-186 -305l-153 -575h-66l277 1032h65l-63 -235q166 260 430 260z" />
    <glyph glyph-name="o" unicode="o" horiz-adv-x="1282" 
d="M575 37q219 0 376 169t157 386q0 178 -112 291t-289 112q-221 0 -378 -170t-157 -385q0 -178 112 -290t291 -113zM569 -25q-205 0 -336 130t-131 329q0 242 178 432t431 191q205 0 337 -130t132 -329q0 -244 -180 -434t-431 -189z" />
    <glyph glyph-name="p" unicode="p" horiz-adv-x="1335" 
d="M637 37q221 0 368 176q146 176 146 397q0 168 -100 277q-101 109 -253 109t-282 -88q-130 -87 -203 -216q-72 -129 -71 -254q0 -174 110 -288t285 -113zM816 1057q167 0 286 -125t119 -314q0 -256 -169 -450t-413 -193q-182 1 -295 101t-141 239l-174 -643h-66l365 1360
h65l-63 -237q63 100 191 181t295 81z" />
    <glyph glyph-name="q" unicode="q" horiz-adv-x="1335" 
d="M532 37q152 0 282 87t202 216t71 254q0 174 -108 288q-109 114 -285 113q-221 0 -368 -176t-148 -397q0 -168 100 -276q102 -108 254 -109zM515 -25q-167 0 -287 125t-119 312q0 256 169 450t412 195q182 -1 295 -101t141 -239l86 315h66l-365 -1360h-65l151 566
q-63 -102 -190 -182t-294 -81z" />
    <glyph glyph-name="r" unicode="r" horiz-adv-x="741" 
d="M811 985q-164 0 -336 -144t-229 -358l-129 -483h-66l277 1032h65l-82 -311q99 158 239 247t284 85l-19 -68h-4z" />
    <glyph glyph-name="s" unicode="s" horiz-adv-x="1007" 
d="M434 -20q-256 0 -430 170l47 47q164 -156 389 -156q133 0 222 67q88 68 88 152t-58 133t-200 103q-143 54 -216 114q-72 59 -72 166t104 192q103 85 272 85q92 0 193 -36t175 -99l-43 -50q-150 123 -330 123q-139 -1 -220 -65t-81 -145t58 -128t204 -103
q144 -56 214 -116t70 -171t-110 -197q-108 -86 -276 -86z" />
    <glyph glyph-name="t" unicode="t" horiz-adv-x="782" 
d="M384 -18q-94 0 -155 50t-61 146q0 41 14 103l185 692h-158l16 59h158l92 346h68l-94 -346h372l-16 -59h-371l-186 -694q-14 -57 -15 -95q0 -141 181 -141q74 0 149 31l-18 -68q-67 -24 -161 -24z" />
    <glyph glyph-name="u" unicode="u" horiz-adv-x="1243" 
d="M483 -25q-164 -1 -255 91t-91 243q0 68 25 166l149 557h66l-150 -559q-23 -84 -22 -158q0 -129 75 -203q74 -74 222 -75q148 0 284 116t185 304l153 575h68l-277 -1032h-65l63 236q-170 -261 -430 -261z" />
    <glyph glyph-name="v" unicode="v" horiz-adv-x="1144" 
d="M389 -8l-188 1040h69l164 -958l674 958h78l-744 -1040h-53z" />
    <glyph glyph-name="w" unicode="w" horiz-adv-x="1681" 
d="M307 -8l-92 1040h68l75 -942l578 948h55l68 -948l575 942h74l-643 -1040h-57l-72 938l-574 -938h-55z" />
    <glyph glyph-name="x" unicode="x" horiz-adv-x="1103" 
d="M-61 0l579 532l-280 500h73l252 -461l496 461h88l-553 -508l293 -524h-74l-266 483l-520 -483h-88z" />
    <glyph glyph-name="y" unicode="y" horiz-adv-x="1169" 
d="M46 -334q-110 0 -200 62l37 53q76 -55 167 -55t173 58t193 214l-221 1034h69l201 -969l668 969h77l-733 -1052q-129 -184 -225 -249t-206 -65z" />
    <glyph glyph-name="z" unicode="z" horiz-adv-x="1046" 
d="M-53 0l10 37l1012 938h-736l17 57h840l-11 -37l-1011 -938h766l-17 -57h-870z" />
    <glyph glyph-name="braceleft" unicode="{" horiz-adv-x="933" 
d="M299 49q0 86 34 206t34 177q0 127 -187 127h-57l14 55h60q151 0 225 82t115 289q23 113 53 189q76 187 243 245q97 35 236 43l-4 -55q-242 -16 -339 -132q-50 -60 -76 -128t-46 -170q-42 -207 -110 -292t-197 -101q139 -33 139 -154q0 -48 -34 -166t-35 -222
q0 -104 62 -174t200 -108l-21 -49q-309 76 -309 338z" />
    <glyph glyph-name="bar" unicode="|" horiz-adv-x="550" 
d="M291 -262v1896h59v-1896h-59z" />
    <glyph glyph-name="braceright" unicode="}" horiz-adv-x="933" 
d="M602 1134q0 213 -262 281l20 49q309 -76 310 -338q0 -86 -34 -210t-34 -173q0 -127 186 -127h58l-15 -55h-59q-150 0 -224 -82t-116 -289q-24 -112 -54 -188q-75 -186 -242 -246q-97 -35 -236 -43l4 56q242 16 339 132q50 60 75 128q26 68 47 170q41 207 109 291t198 102
q-139 33 -140 153q0 53 35 169t35 220z" />
    <glyph glyph-name="asciitilde" unicode="~" horiz-adv-x="917" 
d="M598 506q-55 0 -133 74q-61 66 -105 65q-65 0 -135 -133l-45 18q80 182 189 183q57 1 127 -69t110 -71q68 0 135 134l45 -19q-76 -182 -188 -182z" />
    <glyph glyph-name="uni00A0" unicode="&#xa0;" horiz-adv-x="589" 
 />
    <glyph glyph-name="exclamdown" unicode="&#xa1;" horiz-adv-x="444" 
d="M47 0l51 190l252 869h35l-213 -869l-51 -190h-74zM383 1300l37 134h98l-37 -134h-98z" />
    <glyph glyph-name="cent" unicode="&#xa2;" horiz-adv-x="1146" 
d="M772 1204q-217 0 -378 -172t-161 -403q1 -127 63 -219t165 -134l364 926q-14 2 -53 2zM164 627q0 258 182 448t430 191q27 0 72 -4l72 184h65l-78 -197q188 -45 281 -229l-55 -31q-94 168 -250 203l-369 -934q49 -12 104 -12q205 0 369 153l43 -41q-180 -174 -416 -174
q-59 0 -120 17l-84 -213h-66l92 231q-120 47 -196 156t-76 252z" />
    <glyph glyph-name="sterling" unicode="&#xa3;" horiz-adv-x="1247" 
d="M920 1389q-307 0 -424 -433l-68 -249h614l-16 -66h-616l-154 -578h766l-16 -63h-1018l8 37l190 26l156 578h-182l16 66h182l72 264q136 481 496 481q250 0 368 -231l-59 -33q-109 201 -315 201z" />
    <glyph glyph-name="yen" unicode="&#xa5;" horiz-adv-x="1417" 
d="M528 0l66 250h-426l16 61h426l72 264h-426l18 62h394l-353 797h76l346 -785l762 785h90l-778 -797h385l-18 -62h-426l-72 -264h426l-16 -61h-426l-66 -250h-70z" />
    <glyph glyph-name="section" unicode="&#xa7;" horiz-adv-x="1267" 
d="M810 485q130 1 216 57t86 129t-64 126t-210 102t-276 49t-216 -56q-88 -56 -88 -129t65 -125t211 -102t276 -51zM598 -20q-144 0 -266 48q-121 48 -193 117l45 50q166 -154 412 -154q121 0 197 50t75 130q0 80 -78 133q-79 54 -250 112t-261 122q-91 64 -91 171t116 177
t310 59q-180 84 -180 215q0 108 98 176t242 68t266 -48q121 -48 193 -118l-47 -49q-162 154 -410 154q-120 -1 -196 -51t-76 -130t79 -133t249 -112t260 -121t90 -171q0 -107 -115 -177t-309 -60q180 -84 180 -215q0 -109 -98 -176t-242 -67z" />
    <glyph glyph-name="dieresis" unicode="&#xa8;" 
d="M498 1241l34 127h101l-35 -127h-100zM791 1241l34 127h101l-35 -127h-100z" />
    <glyph glyph-name="copyright" unicode="&#xa9;" horiz-adv-x="1697" 
d="M920 338q-165 0 -271 113t-106 275t106 276t267 114t288 -123l-41 -43q-111 111 -247 111t-224 -97q-88 -98 -88 -236t90 -236t227 -98t248 114l39 -39q-123 -131 -288 -131zM903 1415q-291 0 -493 -205q-202 -206 -203 -494q1 -288 203 -493t492 -205t493 205t203 495
t-202 494t-493 203zM901 -25q-307 -1 -523 217t-216 525t217 524t525 217t524 -217t216 -524t-218 -525t-525 -217z" />
    <glyph glyph-name="ordfeminine" unicode="&#xaa;" horiz-adv-x="835" 
d="M470 891q74 0 151 57q76 57 100 144l10 38q-107 31 -205 31t-152 -42t-54 -105t38 -93t112 -30zM156 631l12 51h504l-13 -51h-503zM756 1251q0 137 -181 138q-74 0 -161 -31l-11 49q89 33 187 33t160 -48t61 -132q0 -31 -10 -76l-88 -328h-56l31 119q-94 -131 -248 -131
q-74 0 -126 42t-52 124t72 140q72 56 183 56t224 -32q15 39 15 77z" />
    <glyph glyph-name="guillemotleft" unicode="&#xab;" horiz-adv-x="989" 
d="M322 92l-234 424l4 12l457 422l45 -35l-426 -403l205 -391zM696 92l-231 424l2 12l459 422l45 -35l-426 -403l203 -391z" />
    <glyph glyph-name="registered" unicode="&#xae;" horiz-adv-x="851" 
d="M485 1098h105q44 0 68 19t24 52q0 70 -90 70h-107v-141zM438 922v358h158q57 0 95 -28t38 -78q0 -82 -92 -109l104 -143h-57l-98 137h-101v-137h-47zM250 1095q0 -135 93 -229t227 -94t228 95q93 95 93 229t-92 229q-91 94 -227 94t-229 -95t-93 -229zM570 737
q-148 1 -252 105q-103 104 -103 252v2q0 146 104 252t253 106t252 -104t104 -252v-2q0 -147 -105 -253t-253 -106z" />
    <glyph glyph-name="macron" unicode="&#xaf;" 
d="M428 1272l16 61h570l-17 -61h-569z" />
    <glyph glyph-name="degree" unicode="&#xb0;" horiz-adv-x="827" 
d="M750 1176q0 100 -54 155t-152 55t-176 -86t-79 -185q0 -99 53 -155q52 -56 150 -55q98 0 178 86q80 85 80 185zM491 846q-123 0 -195 73t-71 195q-1 122 99 225q100 105 223 105t193 -72t71 -194q0 -122 -98 -228q-99 -104 -222 -104z" />
    <glyph glyph-name="plusminus" unicode="&#xb1;" horiz-adv-x="1245" 
d="M956 0h-942l17 61h940zM1157 752h-438l-117 -428h-65l116 428h-438l14 61h441l112 428h66l-113 -428h439z" />
    <glyph glyph-name="acute" unicode="&#xb4;" 
d="M535 1219l243 247l82 -39l-264 -208h-61z" />
    <glyph glyph-name="paragraph" unicode="&#xb6;" horiz-adv-x="960" 
d="M221 934q0 233 176 366t477 134h119l-385 -1434h-71l149 555q-221 4 -343 104t-122 275z" />
    <glyph glyph-name="periodcentered" unicode="&#xb7;" horiz-adv-x="391" 
d="M152 537l34 133h99l-35 -133h-98z" />
    <glyph glyph-name="cedilla" unicode="&#xb8;" 
d="M225 -295l-65 37l254 272h53z" />
    <glyph glyph-name="ordmasculine" unicode="&#xba;" horiz-adv-x="835" 
d="M548 895q102 0 184 88q82 87 81 191q0 104 -56 160t-158 56q-103 0 -185 -86t-82 -190t56 -162q58 -57 160 -57zM158 631l12 51h561l-14 -51h-559zM544 842q-126 0 -198 72t-72 197q0 124 100 228q100 105 228 105q127 0 199 -73q71 -73 71 -197t-100 -228
q-101 -104 -228 -104z" />
    <glyph glyph-name="guillemotright" unicode="&#xbb;" horiz-adv-x="989" 
d="M61 92l-43 35l424 401l-202 394l51 26l231 -422l-2 -14zM438 92l-45 35l426 401l-203 394l50 26l233 -422l-2 -14z" />
    <glyph glyph-name="questiondown" unicode="&#xbf;" horiz-adv-x="1052" 
d="M485 -18q-188 0 -298 99t-109 251q0 194 154 306t395 144l92 277h37l-68 -326l-8 -8q-236 -19 -384 -119t-149 -272q-1 -129 93 -209t249 -80q231 0 420 188l43 -45q-207 -206 -467 -206zM752 1300l36 134h99l-37 -134h-98z" />
    <glyph glyph-name="Agrave" unicode="&#xc0;" horiz-adv-x="1564" 
d="M932 1800l139 -219h-49l-166 180zM375 481h825l-174 881zM-59 0l1069 1444h63l291 -1444h-70l-82 418h-884l-308 -418h-79z" />
    <glyph glyph-name="Aacute" unicode="&#xc1;" horiz-adv-x="1564" 
d="M1036 1581l256 219l78 -39l-266 -180h-68zM375 481h825l-174 881zM-59 0l1069 1444h63l291 -1444h-70l-82 418h-884l-308 -418h-79z" />
    <glyph glyph-name="Acircumflex" unicode="&#xc2;" horiz-adv-x="1564" 
d="M821 1575l271 207h59l160 -207h-64l-137 141l-215 -141h-74zM375 481h825l-174 881zM-59 0l1069 1444h63l291 -1444h-70l-82 418h-884l-308 -418h-79z" />
    <glyph glyph-name="Atilde" unicode="&#xc3;" horiz-adv-x="1564" 
d="M983 1755q43 0 128 -47t120 -47q72 0 131 108l43 -12q-68 -162 -180 -162q-43 0 -129 47t-119 48q-72 0 -131 -109l-45 12q72 162 182 162zM375 481h825l-174 881zM-59 0l1069 1444h63l291 -1444h-70l-82 418h-884l-308 -418h-79z" />
    <glyph glyph-name="Adieresis" unicode="&#xc4;" horiz-adv-x="1564" 
d="M877 1604l32 125h109l-33 -125h-108zM1194 1604l33 125h106l-33 -125h-106zM375 481h825l-174 881zM-59 0l1069 1444h63l291 -1444h-70l-82 418h-884l-308 -418h-79z" />
    <glyph glyph-name="Aring" unicode="&#xc5;" horiz-adv-x="1564" 
d="M1053 1417q68 0 122 45q54 46 54 106t-37 95t-106 35q-68 0 -122 -46t-54 -108t37 -94q38 -33 106 -33zM375 481h825l-174 881zM854 1534q0 88 73 148t164 60t142 -45q51 -46 51 -121t-57 -132t-142 -72l279 -1372h-70l-82 418h-884l-308 -418h-79l1024 1382
q-111 39 -111 152z" />
    <glyph glyph-name="AE" unicode="&#xc6;" horiz-adv-x="2131" 
d="M416 481h590l239 889h-37zM-98 0l1282 1434h1057l-19 -64h-907l-166 -616h817l-16 -64h-820l-167 -627h919l-16 -63h-989l112 418h-629l-374 -418h-84z" />
    <glyph glyph-name="Ccedilla" unicode="&#xc7;" horiz-adv-x="1497" 
d="M1044 1458q180 0 316 -84t203 -227l-62 -29q-141 276 -459 277q-213 0 -395 -120q-183 -121 -285 -313t-102 -418t144 -365q144 -140 366 -140q297 0 520 227l45 -43q-240 -248 -571 -248h-12l-211 -270l-66 37l221 238q-219 24 -362 178q-144 154 -144 391t113 445
t311 336q199 128 430 128z" />
    <glyph glyph-name="Egrave" unicode="&#xc8;" horiz-adv-x="1343" 
d="M76 0l385 1434h1003l-18 -64h-934l-166 -616h846l-16 -64h-846l-168 -627h944l-16 -63h-1014zM836 1786l139 -219h-49l-166 180z" />
    <glyph glyph-name="Eacute" unicode="&#xc9;" horiz-adv-x="1343" 
d="M76 0l385 1434h1003l-18 -64h-934l-166 -616h846l-16 -64h-846l-168 -627h944l-16 -63h-1014zM940 1567l256 219l78 -39l-266 -180h-68z" />
    <glyph glyph-name="Ecircumflex" unicode="&#xca;" horiz-adv-x="1343" 
d="M725 1567l270 207h60l159 -207h-63l-137 141l-215 -141h-74zM76 0l385 1434h1003l-18 -64h-934l-166 -616h846l-16 -64h-846l-168 -627h944l-16 -63h-1014z" />
    <glyph glyph-name="Edieresis" unicode="&#xcb;" horiz-adv-x="1343" 
d="M76 0l385 1434h1003l-18 -64h-934l-166 -616h846l-16 -64h-846l-168 -627h944l-16 -63h-1014zM778 1589l33 125h109l-33 -125h-109zM1096 1589l32 125h107l-33 -125h-106z" />
    <glyph glyph-name="Igrave" unicode="&#xcc;" horiz-adv-x="524" 
d="M395 1786l140 -219h-50l-166 180zM88 0l385 1434h70l-385 -1434h-70z" />
    <glyph glyph-name="Iacute" unicode="&#xcd;" horiz-adv-x="524" 
d="M500 1567l256 219l78 -39l-267 -180h-67zM88 0l385 1434h70l-385 -1434h-70z" />
    <glyph glyph-name="Icircumflex" unicode="&#xce;" horiz-adv-x="524" 
d="M285 1567l270 207h59l160 -207h-63l-138 141l-215 -141h-73zM88 0l385 1434h70l-385 -1434h-70z" />
    <glyph glyph-name="Idieresis" unicode="&#xcf;" horiz-adv-x="524" 
d="M338 1589l33 125h108l-33 -125h-108zM655 1589l33 125h107l-33 -125h-107zM88 0l385 1434h70l-385 -1434h-70z" />
    <glyph glyph-name="Eth" unicode="&#xd0;" horiz-adv-x="1593" 
d="M567 63q416 0 668 252q205 205 205 512q0 227 -140 367q-172 176 -509 176h-254l-166 -616h497l-16 -66h-498l-168 -625h381zM784 1434q375 0 570 -195q158 -158 157 -408q0 -334 -225 -559q-129 -128 -318 -200t-411 -72h-457l185 688h-156l16 66h156l184 680h299z" />
    <glyph glyph-name="Ntilde" unicode="&#xd1;" horiz-adv-x="1605" 
d="M76 0l385 1434h63l690 -1325l357 1325h67l-385 -1434h-57l-696 1335l-359 -1335h-65zM985 1731q43 1 128 -47t120 -48q72 0 131 109l43 -12q-68 -162 -180 -162q-43 0 -129 47t-119 47q-72 0 -131 -109l-45 13q72 162 182 162z" />
    <glyph glyph-name="Ograve" unicode="&#xd2;" horiz-adv-x="1722" 
d="M815 37q205 0 378 114t270 298q97 185 97 407t-152 380q-153 158 -394 159q-205 0 -378 -114t-270 -298q-98 -183 -98 -405t152 -382t395 -159zM813 -25q-268 1 -441 179t-173 440q0 221 108 420q109 200 298 322t411 122q270 0 443 -178t173 -440q0 -221 -108 -420
t-300 -322q-190 -123 -411 -123zM977 1800l139 -219h-49l-166 180z" />
    <glyph glyph-name="Oacute" unicode="&#xd3;" horiz-adv-x="1722" 
d="M815 37q205 0 378 114t270 298q97 185 97 407t-152 380q-153 158 -394 159q-205 0 -378 -114t-270 -298q-98 -183 -98 -405t152 -382t395 -159zM813 -25q-268 1 -441 179t-173 440q0 221 108 420q109 200 298 322t411 122q270 0 443 -178t173 -440q0 -221 -108 -420
t-300 -322q-190 -123 -411 -123zM1079 1581l256 219l78 -39l-266 -180h-68z" />
    <glyph glyph-name="Ocircumflex" unicode="&#xd4;" horiz-adv-x="1722" 
d="M868 1581l271 207h59l160 -207h-64l-137 141l-215 -141h-74zM815 37q205 0 378 114t270 298q97 185 97 407t-152 380q-153 158 -394 159q-205 0 -378 -114t-270 -298q-98 -183 -98 -405t152 -382t395 -159zM813 -25q-268 1 -441 179t-173 440q0 221 108 420
q109 200 298 322t411 122q270 0 443 -178t173 -440q0 -221 -108 -420t-300 -322q-190 -123 -411 -123z" />
    <glyph glyph-name="Otilde" unicode="&#xd5;" horiz-adv-x="1722" 
d="M815 37q205 0 378 114t270 298q97 185 97 407t-152 380q-153 158 -394 159q-205 0 -378 -114t-270 -298q-98 -183 -98 -405t152 -382t395 -159zM813 -25q-268 1 -441 179t-173 440q0 221 108 420q109 200 298 322t411 122q270 0 443 -178t173 -440q0 -221 -108 -420
t-300 -322q-190 -123 -411 -123zM1026 1755q43 0 128 -47t120 -47q72 0 131 108l43 -12q-68 -162 -180 -162q-43 0 -129 47t-119 48q-72 0 -131 -109l-45 12q72 162 182 162z" />
    <glyph glyph-name="Odieresis" unicode="&#xd6;" horiz-adv-x="1722" 
d="M815 37q205 0 378 114t270 298q97 185 97 407t-152 380q-153 158 -394 159q-205 0 -378 -114t-270 -298q-98 -183 -98 -405t152 -382t395 -159zM813 -25q-268 1 -441 179t-173 440q0 221 108 420q109 200 298 322t411 122q270 0 443 -178t173 -440q0 -221 -108 -420
t-300 -322q-190 -123 -411 -123zM920 1604l32 125h109l-33 -125h-108zM1237 1604l33 125h106l-33 -125h-106z" />
    <glyph glyph-name="multiply" unicode="&#xd7;" horiz-adv-x="1245" 
d="M944 293l-276 385l-490 -387l-37 49l490 387l-283 381l55 43l279 -385l489 387l37 -51l-489 -385l280 -383z" />
    <glyph glyph-name="Oslash" unicode="&#xd8;" horiz-adv-x="1722" 
d="M813 37q205 0 378 114t270 298q97 183 97 373t-83 331l-1094 -915q158 -201 432 -201zM1012 1395q-205 0 -378 -114t-270 -298q-98 -185 -98 -373t82 -323l1094 913q-156 195 -430 195zM811 -25q-301 0 -481 220l-246 -205h-90l303 254q-102 154 -102 362t108 408
q109 200 299 322t412 122q297 0 477 -217l242 203h90l-297 -248q104 -160 104 -368t-108 -408q-108 -199 -300 -322q-190 -123 -411 -123z" />
    <glyph glyph-name="Ugrave" unicode="&#xd9;" horiz-adv-x="1544" 
d="M720 -23q-244 0 -383 119q-138 119 -138 336q0 106 34 240l203 762h70l-209 -787q-29 -100 -29 -209q0 -188 119 -292t335 -105q216 1 364 149t225 431l217 813h69l-223 -830q-78 -295 -231 -448q-179 -179 -423 -179zM885 1776l139 -220h-49l-166 181z" />
    <glyph glyph-name="Uacute" unicode="&#xda;" horiz-adv-x="1544" 
d="M720 -23q-244 0 -383 119q-138 119 -138 336q0 106 34 240l203 762h70l-209 -787q-29 -100 -29 -209q0 -188 119 -292t335 -105q216 1 364 149t225 431l217 813h69l-223 -830q-78 -295 -231 -448q-179 -179 -423 -179zM989 1556l256 220l78 -39l-266 -181h-68z" />
    <glyph glyph-name="Ucircumflex" unicode="&#xdb;" horiz-adv-x="1544" 
d="M776 1556l271 207h59l160 -207h-64l-137 142l-215 -142h-74zM720 -23q-244 0 -383 119q-138 119 -138 336q0 106 34 240l203 762h70l-209 -787q-29 -100 -29 -209q0 -188 119 -292t335 -105q216 1 364 149t225 431l217 813h69l-223 -830q-78 -295 -231 -448
q-179 -179 -423 -179z" />
    <glyph glyph-name="Udieresis" unicode="&#xdc;" horiz-adv-x="1544" 
d="M720 -23q-244 0 -383 119q-138 119 -138 336q0 106 34 240l203 762h70l-209 -787q-29 -100 -29 -209q0 -188 119 -292t335 -105q216 1 364 149t225 431l217 813h69l-223 -830q-78 -295 -231 -448q-179 -179 -423 -179zM829 1579l33 125h109l-33 -125h-109zM1147 1579
l33 125h106l-33 -125h-106z" />
    <glyph glyph-name="Yacute" unicode="&#xdd;" horiz-adv-x="1363" 
d="M887 1556l256 220l78 -39l-267 -181h-67zM496 0l159 594l-374 840h73l348 -787l773 787h92l-846 -856l-156 -578h-69z" />
    <glyph glyph-name="Thorn" unicode="&#xde;" horiz-adv-x="1370" 
d="M639 346q291 0 453 118t161 312q0 133 -79 213q-111 111 -349 111h-385l-202 -754h401zM827 1163q270 0 400 -129q96 -92 96 -254q0 -229 -184 -363t-504 -134h-414l-76 -283h-69l385 1434h67l-71 -271h370z" />
    <glyph glyph-name="germandbls" unicode="&#xdf;" horiz-adv-x="1210" 
d="M995 412q0 242 -379 313l17 57q471 94 471 402q0 112 -78 188t-220 76t-254 -115q-110 -115 -161 -309l-274 -1024h-66l279 1042q61 217 185 341t291 124t268 -90t102 -233q0 -324 -441 -432q330 -82 330 -340q0 -184 -175 -301t-466 -115l16 61q258 1 406 101t149 254z
" />
    <glyph glyph-name="agrave" unicode="&#xe0;" horiz-adv-x="1163" 
d="M696 1219l-149 208l82 39l112 -247h-45zM397 35q178 0 318 108q139 109 182 275l25 92q-200 55 -396 55t-300 -80t-105 -203q1 -123 81 -185t195 -62zM385 -25q-135 0 -234 77t-100 208q0 170 128 268t338 98t419 -61l12 39q16 61 17 117q-1 129 -93 198t-244 69
t-302 -54l-17 59q156 55 329 55t282 -82q109 -83 108 -239q0 -63 -18 -133l-160 -594h-66l60 219q-160 -244 -459 -244z" />
    <glyph glyph-name="aacute" unicode="&#xe1;" horiz-adv-x="1163" 
d="M698 1219l244 247l82 -39l-264 -208h-62zM397 35q178 0 318 108q139 109 182 275l25 92q-200 55 -396 55t-300 -80t-105 -203q1 -123 81 -185t195 -62zM385 -25q-135 0 -234 77t-100 208q0 170 128 268t338 98t419 -61l12 39q16 61 17 117q-1 129 -93 198t-244 69
t-302 -54l-17 59q156 55 329 55t282 -82q109 -83 108 -239q0 -63 -18 -133l-160 -594h-66l60 219q-160 -244 -459 -244z" />
    <glyph glyph-name="acircumflex" unicode="&#xe2;" horiz-adv-x="1163" 
d="M496 1219l276 237h47l148 -237h-54l-131 161l-223 -161h-63zM397 35q178 0 318 108q139 109 182 275l25 92q-200 55 -396 55t-300 -80t-105 -203q1 -123 81 -185t195 -62zM385 -25q-135 0 -234 77t-100 208q0 170 128 268t338 98t419 -61l12 39q16 61 17 117
q-1 129 -93 198t-244 69t-302 -54l-17 59q156 55 329 55t282 -82q109 -83 108 -239q0 -63 -18 -133l-160 -594h-66l60 219q-160 -244 -459 -244z" />
    <glyph glyph-name="atilde" unicode="&#xe3;" horiz-adv-x="1163" 
d="M639 1405q43 0 130 -53t122 -54q70 0 131 119l43 -10q-72 -174 -182 -174q-43 0 -129 52t-121 52q-74 1 -131 -118l-45 10q72 176 182 176zM397 35q178 0 318 108q139 109 182 275l25 92q-200 55 -396 55t-300 -80t-105 -203q1 -123 81 -185t195 -62zM385 -25
q-135 0 -234 77t-100 208q0 170 128 268t338 98t419 -61l12 39q16 61 17 117q-1 129 -93 198t-244 69t-302 -54l-17 59q156 55 329 55t282 -82q109 -83 108 -239q0 -63 -18 -133l-160 -594h-66l60 219q-160 -244 -459 -244z" />
    <glyph glyph-name="adieresis" unicode="&#xe4;" horiz-adv-x="1163" 
d="M547 1241l35 127h100l-35 -127h-100zM840 1241l34 127h101l-35 -127h-100zM397 35q178 0 318 108q139 109 182 275l25 92q-200 55 -396 55t-300 -80t-105 -203q1 -123 81 -185t195 -62zM385 -25q-135 0 -234 77t-100 208q0 170 128 268t338 98t419 -61l12 39
q16 61 17 117q-1 129 -93 198t-244 69t-302 -54l-17 59q156 55 329 55t282 -82q109 -83 108 -239q0 -63 -18 -133l-160 -594h-66l60 219q-160 -244 -459 -244z" />
    <glyph glyph-name="aring" unicode="&#xe5;" horiz-adv-x="1163" 
d="M948 1422q0 64 -38 102t-104 39t-119 -49q-52 -50 -52 -113q-1 -63 37 -101t105 -38t119 48t52 112zM776 1217q-86 0 -139 50t-53 133t68 145q69 63 155 63t139 -50t53 -133t-68 -146q-69 -62 -155 -62zM397 35q178 0 318 108q139 109 182 275l25 92q-200 55 -396 55
t-300 -80t-105 -203q1 -123 81 -185t195 -62zM385 -25q-135 0 -234 77t-100 208q0 170 128 268t338 98t419 -61l12 39q16 61 17 117q-1 129 -93 198t-244 69t-302 -54l-17 59q156 55 329 55t282 -82q109 -83 108 -239q0 -63 -18 -133l-160 -594h-66l60 219
q-160 -244 -459 -244z" />
    <glyph glyph-name="ae" unicode="&#xe6;" horiz-adv-x="2004" 
d="M508 565q-174 0 -280 -80t-107 -202q0 -122 82 -185t214 -63t268 74t239 204q-8 41 -8 97t8 100q-186 55 -416 55zM1837 655q0 143 -83 241t-256 99q-172 0 -314 -127t-187 -313h828q12 57 12 100zM1507 1057q195 0 296 -116t102 -286q0 -76 -25 -159h-893q-6 -43 -6 -86
q0 -170 104 -272t291 -101q187 0 359 143l41 -47q-186 -158 -408 -158q-162 0 -274 73t-154 202q-229 -274 -539 -275q-147 0 -248 77t-102 212q0 168 129 265t343 97t413 -61l12 39q16 61 17 117q-1 129 -93 198t-244 69t-302 -54l-17 59q156 55 323 55t273 -74
q106 -75 117 -214q82 133 211 215t274 82z" />
    <glyph glyph-name="ccedilla" unicode="&#xe7;" horiz-adv-x="1138" 
d="M100 422q0 254 182 444t427 191q147 0 249 -70t156 -176l-55 -31q-119 215 -343 215t-385 -171t-161 -400q0 -176 115 -282t270 -105q188 0 356 153l45 -40q-184 -174 -403 -175h-21l-210 -270l-66 37l223 240q-159 26 -269 142t-110 298z" />
    <glyph glyph-name="egrave" unicode="&#xe8;" horiz-adv-x="1198" 
d="M743 1219l-149 208l82 39l112 -247h-45zM1028 655q0 143 -83 241t-256 99q-173 0 -315 -127t-186 -313h830q10 72 10 100zM172 410q0 -170 104 -272t291 -101q187 0 361 143l39 -47q-187 -158 -401 -158t-340 118t-126 313q0 254 178 452t420 199q197 0 297 -116
t101 -286q-4 -96 -25 -159h-893q-6 -43 -6 -86z" />
    <glyph glyph-name="eacute" unicode="&#xe9;" horiz-adv-x="1198" 
d="M1028 655q0 143 -83 241t-256 99q-173 0 -315 -127t-186 -313h830q10 72 10 100zM172 410q0 -170 104 -272t291 -101q187 0 361 143l39 -47q-187 -158 -401 -158t-340 118t-126 313q0 254 178 452t420 199q197 0 297 -116t101 -286q-4 -96 -25 -159h-893q-6 -43 -6 -86z
M745 1219l244 247l82 -39l-264 -208h-62z" />
    <glyph glyph-name="ecircumflex" unicode="&#xea;" horiz-adv-x="1198" 
d="M1028 655q0 143 -83 241t-256 99q-173 0 -315 -127t-186 -313h830q10 72 10 100zM172 410q0 -170 104 -272t291 -101q187 0 361 143l39 -47q-187 -158 -401 -158t-340 118t-126 313q0 254 178 452t420 199q197 0 297 -116t101 -286q-4 -96 -25 -159h-893q-6 -43 -6 -86z
M543 1219l276 237h47l148 -237h-53l-132 161l-223 -161h-63z" />
    <glyph glyph-name="edieresis" unicode="&#xeb;" horiz-adv-x="1198" 
d="M1028 655q0 143 -83 241t-256 99q-173 0 -315 -127t-186 -313h830q10 72 10 100zM172 410q0 -170 104 -272t291 -101q187 0 361 143l39 -47q-187 -158 -401 -158t-340 118t-126 313q0 254 178 452t420 199q197 0 297 -116t101 -286q-4 -96 -25 -159h-893q-6 -43 -6 -86z
M596 1241l35 127h100l-35 -127h-100zM889 1241l35 127h100l-35 -127h-100z" />
    <glyph glyph-name="igrave" unicode="&#xec;" horiz-adv-x="475" 
d="M381 1219l-150 208l82 39l113 -247h-45zM63 0l279 1032h66l-277 -1032h-68z" />
    <glyph glyph-name="iacute" unicode="&#xed;" horiz-adv-x="475" 
d="M63 0l279 1032h66l-277 -1032h-68zM385 1219l244 247l82 -39l-265 -208h-61z" />
    <glyph glyph-name="icircumflex" unicode="&#xee;" horiz-adv-x="475" 
d="M63 0l279 1032h66l-277 -1032h-68zM182 1219l277 237h47l147 -237h-53l-131 161l-223 -161h-64z" />
    <glyph glyph-name="idieresis" unicode="&#xef;" horiz-adv-x="475" 
d="M63 0l279 1032h66l-277 -1032h-68zM233 1241l35 127h101l-35 -127h-101zM526 1241l35 127h101l-35 -127h-101z" />
    <glyph glyph-name="eth" unicode="&#xf0;" horiz-adv-x="1265" 
d="M567 37q217 0 373 167t156 380q0 174 -114 288t-312 113q-198 0 -347 -164q-149 -163 -149 -361t106 -310t287 -113zM1165 641q0 -303 -181 -485q-182 -182 -406 -181q-224 0 -349 130t-125 333q0 240 169 424t413 185q283 0 412 -252q-51 252 -256 526l-295 -137l-27 53
l285 131q-53 66 -109 127h86q29 -33 82 -98l238 110l26 -53l-227 -106q264 -360 264 -707z" />
    <glyph glyph-name="ntilde" unicode="&#xf1;" horiz-adv-x="1243" 
d="M702 1405q42 0 130 -53t122 -54q70 0 131 119l43 -10q-72 -174 -182 -174q-43 0 -129 52t-121 52q-74 1 -131 -118l-45 10q72 176 182 176zM760 1057q164 0 255 -91t91 -243q0 -72 -27 -166l-147 -557h-66l150 559q20 76 20 158q0 129 -73 204q-74 75 -223 75
q-150 0 -284 -116t-186 -305l-153 -575h-66l277 1032h65l-63 -235q166 260 430 260z" />
    <glyph glyph-name="ograve" unicode="&#xf2;" horiz-adv-x="1282" 
d="M770 1219l-149 208l81 39l113 -247h-45zM575 37q219 0 376 169t157 386q0 178 -112 291t-289 112q-221 0 -378 -170t-157 -385q0 -178 112 -290t291 -113zM569 -25q-205 0 -336 130t-131 329q0 242 178 432t431 191q205 0 337 -130t132 -329q0 -244 -180 -434t-431 -189z
" />
    <glyph glyph-name="oacute" unicode="&#xf3;" horiz-adv-x="1282" 
d="M575 37q219 0 376 169t157 386q0 178 -112 291t-289 112q-221 0 -378 -170t-157 -385q0 -178 112 -290t291 -113zM569 -25q-205 0 -336 130t-131 329q0 242 178 432t431 191q205 0 337 -130t132 -329q0 -244 -180 -434t-431 -189zM774 1219l244 247l82 -39l-264 -208h-62
z" />
    <glyph glyph-name="ocircumflex" unicode="&#xf4;" horiz-adv-x="1282" 
d="M575 37q219 0 376 169t157 386q0 178 -112 291t-289 112q-221 0 -378 -170t-157 -385q0 -178 112 -290t291 -113zM569 -25q-205 0 -336 130t-131 329q0 242 178 432t431 191q205 0 337 -130t132 -329q0 -244 -180 -434t-431 -189zM571 1219l277 237h47l147 -237h-53
l-131 161l-223 -161h-64z" />
    <glyph glyph-name="otilde" unicode="&#xf5;" horiz-adv-x="1282" 
d="M715 1405q43 0 130 -53t122 -54q70 0 131 119l43 -10q-72 -174 -183 -174q-43 0 -129 52t-120 52q-74 1 -131 -118l-46 10q72 176 183 176zM575 37q219 0 376 169t157 386q0 178 -112 291t-289 112q-221 0 -378 -170t-157 -385q0 -178 112 -290t291 -113zM569 -25
q-205 0 -336 130t-131 329q0 242 178 432t431 191q205 0 337 -130t132 -329q0 -244 -180 -434t-431 -189z" />
    <glyph glyph-name="odieresis" unicode="&#xf6;" horiz-adv-x="1282" 
d="M575 37q219 0 376 169t157 386q0 178 -112 291t-289 112q-221 0 -378 -170t-157 -385q0 -178 112 -290t291 -113zM569 -25q-205 0 -336 130t-131 329q0 242 178 432t431 191q205 0 337 -130t132 -329q0 -244 -180 -434t-431 -189zM623 1241l34 127h101l-35 -127h-100z
M915 1241l35 127h101l-35 -127h-101z" />
    <glyph glyph-name="divide" unicode="&#xf7;" horiz-adv-x="1245" 
d="M492 236l36 137h111l-37 -137h-110zM1149 690h-961l17 62h960zM715 1069l37 137h110l-37 -137h-110z" />
    <glyph glyph-name="oslash" unicode="&#xf8;" horiz-adv-x="1282" 
d="M584 37q210 0 367 169t157 386q0 131 -57 225l-787 -647q110 -133 320 -133zM696 995q-210 0 -367 -170t-157 -385q0 -129 59 -225l789 647q-114 133 -324 133zM1180 598q0 -244 -180 -434t-416 -189q-236 0 -371 152l-168 -137h-88l221 182q-76 111 -76 262
q0 242 178 432t418 190t371 -153l191 156h88l-244 -199q76 -115 76 -262z" />
    <glyph glyph-name="ugrave" unicode="&#xf9;" horiz-adv-x="1243" 
d="M739 1212l-149 209l82 39l112 -248h-45zM483 -25q-164 -1 -255 91t-91 243q0 68 25 166l149 557h66l-150 -559q-23 -84 -22 -158q0 -129 75 -203q74 -74 222 -75q148 0 284 116t185 304l153 575h68l-277 -1032h-65l63 236q-170 -261 -430 -261z" />
    <glyph glyph-name="uacute" unicode="&#xfa;" horiz-adv-x="1243" 
d="M483 -25q-164 -1 -255 91t-91 243q0 68 25 166l149 557h66l-150 -559q-23 -84 -22 -158q0 -129 75 -203q74 -74 222 -75q148 0 284 116t185 304l153 575h68l-277 -1032h-65l63 236q-170 -261 -430 -261zM741 1212l244 248l82 -39l-264 -209h-62z" />
    <glyph glyph-name="ucircumflex" unicode="&#xfb;" horiz-adv-x="1243" 
d="M483 -25q-164 -1 -255 91t-91 243q0 68 25 166l149 557h66l-150 -559q-23 -84 -22 -158q0 -129 75 -203q74 -74 222 -75q148 0 284 116t185 304l153 575h68l-277 -1032h-65l63 236q-170 -261 -430 -261zM541 1212l276 238h47l148 -238h-54l-131 162l-223 -162h-63z" />
    <glyph glyph-name="udieresis" unicode="&#xfc;" horiz-adv-x="1243" 
d="M483 -25q-164 -1 -255 91t-91 243q0 68 25 166l149 557h66l-150 -559q-23 -84 -22 -158q0 -129 75 -203q74 -74 222 -75q148 0 284 116t185 304l153 575h68l-277 -1032h-65l63 236q-170 -261 -430 -261zM592 1235l35 127h100l-35 -127h-100zM885 1235l35 127h100
l-35 -127h-100z" />
    <glyph glyph-name="yacute" unicode="&#xfd;" horiz-adv-x="1169" 
d="M684 1212l244 248l82 -39l-265 -209h-61zM46 -334q-110 0 -200 62l37 53q76 -55 167 -55t173 58t193 214l-221 1034h69l201 -969l668 969h77l-733 -1052q-129 -184 -225 -249t-206 -65z" />
    <glyph glyph-name="thorn" unicode="&#xfe;" horiz-adv-x="1335" 
d="M637 37q221 0 368 176q146 176 146 397q0 168 -100 277q-101 109 -253 109t-282 -88q-130 -87 -203 -216q-72 -129 -71 -254q0 -174 110 -288t285 -113zM816 1057q167 0 286 -125t119 -314q0 -256 -169 -450t-413 -193q-182 1 -295 101t-141 239l-174 -643h-66l490 1823
h65l-188 -700q63 100 191 181t295 81z" />
    <glyph glyph-name="ydieresis" unicode="&#xff;" horiz-adv-x="1169" 
d="M532 1235l35 127h101l-35 -127h-101zM825 1235l35 127h101l-35 -127h-101zM46 -334q-110 0 -200 62l37 53q76 -55 167 -55t173 58t193 214l-221 1034h69l201 -969l668 969h77l-733 -1052q-129 -184 -225 -249t-206 -65z" />
    <glyph glyph-name="Amacron" unicode="&#x100;" horiz-adv-x="1564" 
d="M803 1634l18 66h588l-16 -66h-590zM375 481h825l-174 881zM-59 0l1069 1444h63l291 -1444h-70l-82 418h-884l-308 -418h-79z" />
    <glyph glyph-name="amacron" unicode="&#x101;" horiz-adv-x="1163" 
d="M469 1272l16 61h570l-17 -61h-569zM397 35q178 0 318 108q139 109 182 275l25 92q-200 55 -396 55t-300 -80t-105 -203q1 -123 81 -185t195 -62zM385 -25q-135 0 -234 77t-100 208q0 170 128 268t338 98t419 -61l12 39q16 61 17 117q-1 129 -93 198t-244 69t-302 -54
l-17 59q156 55 329 55t282 -82q109 -83 108 -239q0 -63 -18 -133l-160 -594h-66l60 219q-160 -244 -459 -244z" />
    <glyph glyph-name="Abreve" unicode="&#x102;" horiz-adv-x="1564" 
d="M1089 1579q-114 0 -170 50t-47 134h56q4 -121 172 -121t239 121h60q-35 -84 -115 -134t-195 -50zM375 481h825l-174 881zM-59 0l1069 1444h63l291 -1444h-70l-82 418h-884l-308 -418h-79z" />
    <glyph glyph-name="abreve" unicode="&#x103;" horiz-adv-x="1163" 
d="M744 1217q-114 0 -170 58t-39 155h49q-4 -152 166 -152t254 152h55q-39 -98 -120 -156t-195 -57zM397 35q178 0 318 108q139 109 182 275l25 92q-200 55 -396 55t-300 -80t-105 -203q1 -123 81 -185t195 -62zM385 -25q-135 0 -234 77t-100 208q0 170 128 268t338 98
t419 -61l12 39q16 61 17 117q-1 129 -93 198t-244 69t-302 -54l-17 59q156 55 329 55t282 -82q109 -83 108 -239q0 -63 -18 -133l-160 -594h-66l60 219q-160 -244 -459 -244z" />
    <glyph glyph-name="Aogonek" unicode="&#x104;" horiz-adv-x="1564" 
d="M375 481h825l-174 881zM1112 -203q0 102 180 215l-80 406h-884l-308 -418h-79l1069 1444h63l291 -1444h-14q-166 -106 -166 -193q0 -76 143 -88l-12 -49q-98 2 -151 36q-52 34 -52 91z" />
    <glyph glyph-name="aogonek" unicode="&#x105;" horiz-adv-x="1163" 
d="M397 35q178 0 318 108q139 109 182 275l25 92q-200 55 -396 55t-300 -80t-105 -203q1 -123 81 -185t195 -62zM606 -203q0 102 180 215l58 207q-160 -244 -459 -244q-135 0 -234 77t-100 208q0 170 128 268t338 98t419 -61l12 39q16 61 17 117q-1 129 -93 198t-244 69
t-302 -54l-17 59q156 55 329 55t282 -82q109 -83 108 -239q0 -63 -18 -133l-160 -594h-6q-166 -106 -166 -193q0 -76 143 -88l-12 -49q-98 2 -151 36q-52 34 -52 91z" />
    <glyph glyph-name="Cacute" unicode="&#x106;" horiz-adv-x="1497" 
d="M1047 1581l256 219l77 -39l-266 -180h-67zM764 -25q-242 0 -408 158q-166 157 -166 405t113 456t311 336q199 128 430 128q180 0 316 -84t203 -227l-62 -29q-141 276 -459 277q-213 0 -395 -120q-183 -121 -285 -313t-102 -418t144 -365q144 -140 366 -140q297 0 520 227
l45 -43q-239 -248 -571 -248z" />
    <glyph glyph-name="cacute" unicode="&#x107;" horiz-adv-x="1138" 
d="M553 -25q-180 0 -316 122t-137 325q0 254 182 444t427 191q147 0 249 -70t156 -176l-55 -31q-119 215 -343 215t-385 -171t-161 -400q0 -176 115 -282t270 -105q188 0 356 153l45 -40q-184 -175 -403 -175zM735 1219l244 247l82 -39l-264 -208h-62z" />
    <glyph glyph-name="Cdotaccent" unicode="&#x10a;" horiz-adv-x="1497" 
d="M764 -25q-242 0 -408 158q-166 157 -166 405t113 456t311 336q199 128 430 128q180 0 316 -84t203 -227l-62 -29q-141 276 -459 277q-213 0 -395 -120q-183 -121 -285 -313t-102 -418t144 -365q144 -140 366 -140q297 0 520 227l45 -43q-239 -248 -571 -248zM1044 1604
l33 125h109l-33 -125h-109z" />
    <glyph glyph-name="cdotaccent" unicode="&#x10b;" horiz-adv-x="1138" 
d="M733 1241l35 131h98l-35 -131h-98zM553 -25q-180 0 -316 122t-137 325q0 254 182 444t427 191q147 0 249 -70t156 -176l-55 -31q-119 215 -343 215t-385 -171t-161 -400q0 -176 115 -282t270 -105q188 0 356 153l45 -40q-184 -175 -403 -175z" />
    <glyph glyph-name="Ccaron" unicode="&#x10c;" horiz-adv-x="1497" 
d="M1403 1788l-268 -207h-60l-162 207h66l137 -141l213 141h74zM764 -25q-242 0 -408 158q-166 157 -166 405t113 456t311 336q199 128 430 128q180 0 316 -84t203 -227l-62 -29q-141 276 -459 277q-213 0 -395 -120q-183 -121 -285 -313t-102 -418t144 -365
q144 -140 366 -140q297 0 520 227l45 -43q-239 -248 -571 -248z" />
    <glyph glyph-name="ccaron" unicode="&#x10d;" horiz-adv-x="1138" 
d="M553 -25q-180 0 -316 122t-137 325q0 254 182 444t427 191q147 0 249 -70t156 -176l-55 -31q-119 215 -343 215t-385 -171t-161 -400q0 -176 115 -282t270 -105q188 0 356 153l45 -40q-184 -175 -403 -175zM1063 1456l-279 -237h-47l-147 237h55l129 -162l225 162h64z
" />
    <glyph glyph-name="Dcaron" unicode="&#x10e;" horiz-adv-x="1568" 
d="M543 63q416 0 667 252q205 205 205 512q0 227 -139 367q-172 176 -510 176h-254l-350 -1307h381zM760 1434q375 0 569 -195q158 -158 158 -408q0 -334 -225 -559q-128 -128 -318 -200t-412 -72h-456l385 1434h299zM1309 1774l-269 -207h-59l-162 207h66l137 -142l213 142
h74z" />
    <glyph glyph-name="dcaron" unicode="&#x10f;" horiz-adv-x="1335" 
d="M532 37q152 0 282 87t202 216t71 254q0 174 -108 288q-109 114 -285 113q-221 0 -368 -176t-148 -397q0 -168 100 -276q102 -108 254 -109zM515 -25q-167 0 -287 125t-119 312q0 256 169 450t412 195q182 -1 295 -101t141 -239l211 778h66l-402 -1495h-65l63 236
q-65 -100 -191 -180t-293 -81zM1667 1495v-4l-156 -301h-38l114 305h80z" />
    <glyph glyph-name="Dcroat" unicode="&#x110;" horiz-adv-x="1593" 
d="M567 63q416 0 668 252q205 205 205 512q0 227 -140 367q-172 176 -509 176h-254l-166 -616h497l-16 -66h-498l-168 -625h381zM784 1434q375 0 570 -195q158 -158 157 -408q0 -334 -225 -559q-129 -128 -318 -200t-411 -72h-457l185 688h-156l16 66h156l184 680h299z" />
    <glyph glyph-name="dcroat" unicode="&#x111;" horiz-adv-x="1335" 
d="M532 37q152 0 282 87t202 216t71 254q0 174 -108 288q-109 114 -285 113q-221 0 -368 -176t-148 -397q0 -168 100 -276q102 -108 254 -109zM515 -25q-167 0 -287 125t-119 312q0 256 169 450t412 195q182 -1 295 -101t141 -239l148 549h-377l16 59h377l47 170h66
l-45 -170h143l-16 -59h-144l-340 -1266h-65l63 236q-65 -100 -191 -180t-293 -81z" />
    <glyph glyph-name="Emacron" unicode="&#x112;" horiz-adv-x="1343" 
d="M76 0l385 1434h1003l-18 -64h-934l-166 -616h846l-16 -64h-846l-168 -627h944l-16 -63h-1014zM705 1620l18 66h588l-17 -66h-589z" />
    <glyph glyph-name="emacron" unicode="&#x113;" horiz-adv-x="1198" 
d="M516 1272l16 61h570l-17 -61h-569zM1028 655q0 143 -83 241t-256 99q-173 0 -315 -127t-186 -313h830q10 72 10 100zM172 410q0 -170 104 -272t291 -101q187 0 361 143l39 -47q-187 -158 -401 -158t-340 118t-126 313q0 254 178 452t420 199q197 0 297 -116t101 -286
q-4 -96 -25 -159h-893q-6 -43 -6 -86z" />
    <glyph glyph-name="Ebreve" unicode="&#x114;" horiz-adv-x="1343" 
d="M76 0l385 1434h1003l-18 -64h-934l-166 -616h846l-16 -64h-846l-168 -627h944l-16 -63h-1014zM990 1565q-114 0 -170 50t-46 134h55q4 -121 172 -121t240 121h59q-36 -84 -116 -134t-194 -50z" />
    <glyph glyph-name="ebreve" unicode="&#x115;" horiz-adv-x="1198" 
d="M794 1217q-114 0 -170 58t-40 155h49q-4 -152 166 -152t254 152h55q-40 -98 -120 -156t-194 -57zM1028 655q0 143 -83 241t-256 99q-173 0 -315 -127t-186 -313h830q10 72 10 100zM172 410q0 -170 104 -272t291 -101q187 0 361 143l39 -47q-187 -158 -401 -158t-340 118
t-126 313q0 254 178 452t420 199q197 0 297 -116t101 -286q-4 -96 -25 -159h-893q-6 -43 -6 -86z" />
    <glyph glyph-name="Edotaccent" unicode="&#x116;" horiz-adv-x="1343" 
d="M76 0l385 1434h1003l-18 -64h-934l-166 -616h846l-16 -64h-846l-168 -627h944l-16 -63h-1014zM936 1589l33 125h108l-33 -125h-108z" />
    <glyph glyph-name="edotaccent" unicode="&#x117;" horiz-adv-x="1198" 
d="M743 1241l35 131h99l-35 -131h-99zM1028 655q0 143 -83 241t-256 99q-173 0 -315 -127t-186 -313h830q10 72 10 100zM172 410q0 -170 104 -272t291 -101q187 0 361 143l39 -47q-187 -158 -401 -158t-340 118t-126 313q0 254 178 452t420 199q197 0 297 -116t101 -286
q-4 -96 -25 -159h-893q-6 -43 -6 -86z" />
    <glyph glyph-name="Eogonek" unicode="&#x118;" horiz-adv-x="1343" 
d="M897 -193q0 -76 143 -88l-12 -49q-98 2 -150 36t-53 91q0 98 160 203h-909l385 1434h1003l-18 -64h-934l-166 -616h846l-16 -64h-846l-168 -627h944l-16 -63h-27q-166 -106 -166 -193z" />
    <glyph glyph-name="eogonek" unicode="&#x119;" horiz-adv-x="1198" 
d="M1028 655q0 143 -83 241t-256 99q-173 0 -314 -127t-187 -313h830q10 72 10 100zM557 -25q-205 0 -331 118t-126 313q0 254 178 452t420 199q197 0 297 -116t101 -286q-4 -96 -25 -159h-893q-6 -43 -6 -86q0 -170 104 -272t291 -101q187 0 361 143l39 -47
q-57 -49 -181 -127q-174 -117 -174 -199q0 -76 144 -88l-13 -49q-96 2 -149 36t-53 91q0 92 149 195q-72 -17 -133 -17z" />
    <glyph glyph-name="Ecaron" unicode="&#x11a;" horiz-adv-x="1343" 
d="M76 0l385 1434h1003l-18 -64h-934l-166 -616h846l-16 -64h-846l-168 -627h944l-16 -63h-1014zM1294 1774l-268 -207h-59l-162 207h65l138 -142l213 142h73z" />
    <glyph glyph-name="ecaron" unicode="&#x11b;" horiz-adv-x="1198" 
d="M1028 655q0 143 -83 241t-256 99q-173 0 -315 -127t-186 -313h830q10 72 10 100zM172 410q0 -170 104 -272t291 -101q187 0 361 143l39 -47q-187 -158 -401 -158t-340 118t-126 313q0 254 178 452t420 199q197 0 297 -116t101 -286q-4 -96 -25 -159h-893q-6 -43 -6 -86z
M1075 1456l-278 -237h-47l-148 237h55l129 -162l226 162h63z" />
    <glyph glyph-name="Gbreve" unicode="&#x11e;" horiz-adv-x="1601" 
d="M801 -25q-270 0 -437 167t-167 433q-1 227 111 429t314 328t443 126q346 0 516 -258l-55 -37q-158 231 -478 231t-549 -246q-230 -247 -231 -570q0 -242 146 -392t390 -150q243 0 447 132l142 494h-494l16 67h564l-170 -600q-238 -154 -508 -154zM1121 1579
q-114 0 -170 50t-46 134h56q3 -121 171 -121t240 121h60q-35 -84 -116 -134t-195 -50z" />
    <glyph glyph-name="gbreve" unicode="&#x11f;" horiz-adv-x="1331" 
d="M847 1217q-114 0 -170 58t-40 155h49q-4 -152 166 -152t254 152h55q-39 -98 -119 -156t-195 -57zM563 139q219 0 375 154t156 317q0 164 -111 274t-285 109q-211 1 -359 -151t-149 -359q0 -154 108 -249t265 -95zM485 -330q-137 0 -266 52t-221 141l47 47
q176 -176 444 -176q211 0 336 125q94 94 148 288l45 168q-180 -240 -465 -239q-176 0 -304 112t-128 289q0 236 171 408t408 172q178 1 287 -97t141 -231l82 303h66l-242 -901q-55 -205 -162 -313q-151 -148 -387 -148z" />
    <glyph glyph-name="Gdotaccent" unicode="&#x120;" horiz-adv-x="1601" 
d="M801 -25q-270 0 -437 167t-167 433q-1 227 111 429t314 328t443 126q346 0 516 -258l-55 -37q-158 231 -478 231t-549 -246q-230 -247 -231 -570q0 -242 146 -392t390 -150q243 0 447 132l142 494h-494l16 67h564l-170 -600q-238 -154 -508 -154zM1067 1604l33 125h108
l-32 -125h-109z" />
    <glyph glyph-name="gdotaccent" unicode="&#x121;" horiz-adv-x="1331" 
d="M799 1241l35 131h98l-35 -131h-98zM563 139q219 0 375 154t156 317q0 164 -111 274t-285 109q-211 1 -359 -151t-149 -359q0 -154 108 -249t265 -95zM485 -330q-137 0 -266 52t-221 141l47 47q176 -176 444 -176q211 0 336 125q94 94 148 288l45 168q-180 -240 -465 -239
q-176 0 -304 112t-128 289q0 236 171 408t408 172q178 1 287 -97t141 -231l82 303h66l-242 -901q-55 -205 -162 -313q-151 -148 -387 -148z" />
    <glyph glyph-name="Gcommaaccent" unicode="&#x122;" horiz-adv-x="1601" 
d="M801 -25q-270 0 -437 167t-167 433q-1 227 111 429t314 328t443 126q346 0 516 -258l-55 -37q-158 231 -478 231t-549 -246q-230 -247 -231 -570q0 -242 146 -392t390 -150q243 0 447 132l142 494h-494l16 67h564l-170 -600q-238 -154 -508 -154zM543 -414l-4 35
q82 23 104 105h-49l33 116h102l-22 -82q-23 -84 -59 -122t-105 -52z" />
    <glyph glyph-name="gcommaaccent" unicode="&#x123;" horiz-adv-x="1331" 
d="M563 139q219 0 375 154t156 317q0 164 -111 274t-285 109q-211 1 -359 -151t-149 -359q0 -154 108 -249t265 -95zM485 -330q-137 0 -266 52t-221 141l47 47q176 -176 444 -176q211 0 336 125q94 94 148 288l45 168q-180 -240 -465 -239q-176 0 -304 112t-128 289
q0 236 171 408t408 172q178 1 287 -97t141 -231l82 303h66l-242 -901q-55 -205 -162 -313q-151 -148 -387 -148zM981 1495l4 -35q-82 -23 -104 -104h49l-33 -117h-102l22 82q23 84 59 122t105 52z" />
    <glyph glyph-name="Hbar" unicode="&#x126;" horiz-adv-x="1544" 
d="M346 750h977l86 317h-979zM209 1067l16 59h154l82 308h69l-84 -308h979l82 308h70l-84 -308h156l-17 -59h-155l-285 -1067h-70l185 686h-977l-185 -686h-69l286 1067h-153z" />
    <glyph glyph-name="hbar" unicode="&#x127;" horiz-adv-x="1243" 
d="M760 1057q164 0 255 -91t91 -243q0 -72 -27 -166l-147 -557h-66l150 559q20 76 20 158q0 129 -73 204q-74 75 -223 75q-150 0 -284 -116t-186 -305l-153 -575h-66l340 1266h-145l16 59h146l45 170h65l-47 -170h379l-14 -59h-381l-125 -469q166 260 430 260z" />
    <glyph glyph-name="Imacron" unicode="&#x12a;" horiz-adv-x="524" 
d="M264 1620l19 66h587l-16 -66h-590zM88 0l385 1434h70l-385 -1434h-70z" />
    <glyph glyph-name="imacron" unicode="&#x12b;" horiz-adv-x="475" 
d="M154 1272l16 61h569l-16 -61h-569zM63 0l279 1032h66l-277 -1032h-68z" />
    <glyph glyph-name="Ibreve" unicode="&#x12c;" horiz-adv-x="524" 
d="M550 1565q-114 0 -170 50t-46 134h55q4 -121 172 -121t240 121h59q-36 -84 -116 -134t-194 -50zM88 0l385 1434h70l-385 -1434h-70z" />
    <glyph glyph-name="ibreve" unicode="&#x12d;" horiz-adv-x="475" 
d="M431 1217q-114 0 -170 58t-40 155h49q-4 -152 166 -152t254 152h55q-39 -98 -119 -156q-81 -57 -195 -57zM63 0l279 1032h66l-277 -1032h-68z" />
    <glyph glyph-name="Iogonek" unicode="&#x12e;" horiz-adv-x="524" 
d="M-86 -203q0 98 176 213l383 1424h70l-385 -1434h-6q-166 -106 -166 -193q0 -76 143 -88l-12 -49q-98 2 -151 36q-52 34 -52 91z" />
    <glyph glyph-name="iogonek" unicode="&#x12f;" horiz-adv-x="475" 
d="M406 1317l34 125h88l-34 -125h-88zM-113 -203q0 100 179 213l276 1022h66l-277 -1032h-6q-166 -106 -166 -193q0 -76 143 -88l-12 -49q-98 2 -150 36t-53 91z" />
    <glyph glyph-name="Idotaccent" unicode="&#x130;" horiz-adv-x="524" 
d="M496 1589l32 125h109l-33 -125h-108zM88 0l385 1434h70l-385 -1434h-70z" />
    <glyph glyph-name="dotlessi" unicode="&#x131;" horiz-adv-x="475" 
d="M63 0l279 1032h66l-277 -1032h-68z" />
    <glyph glyph-name="Kcommaaccent" unicode="&#x136;" horiz-adv-x="1452" 
d="M76 0l385 1434h69l-256 -955l1207 955h104l-790 -621l428 -813h-78l-406 772l-491 -387l-103 -385h-69zM434 -397l-4 35q82 23 105 104h-50l33 117h103l-23 -82q-24 -84 -60 -122t-104 -52z" />
    <glyph glyph-name="kcommaaccent" unicode="&#x137;" horiz-adv-x="1126" 
d="M51 0l402 1495h65l-305 -1139l856 676h94l-583 -457l321 -575h-74l-299 537l-338 -265l-73 -272h-66zM258 -401l-4 34q82 23 104 105h-49l33 117h102l-22 -82q-24 -84 -60 -122t-104 -52z" />
    <glyph glyph-name="Lacute" unicode="&#x139;" horiz-adv-x="1208" 
d="M76 0l385 1434h69l-368 -1371h864l-16 -63h-934zM512 1567l256 219l78 -39l-266 -180h-68z" />
    <glyph glyph-name="lacute" unicode="&#x13a;" horiz-adv-x="473" 
d="M63 0l402 1495h67l-401 -1495h-68zM500 1599l256 220l78 -39l-267 -181h-67z" />
    <glyph glyph-name="Lcommaaccent" unicode="&#x13b;" horiz-adv-x="1208" 
d="M76 0l385 1434h69l-368 -1371h864l-16 -63h-934zM344 -408l-4 35q82 23 104 105h-49l33 116h102l-22 -81q-24 -85 -60 -123t-104 -52z" />
    <glyph glyph-name="lcommaaccent" unicode="&#x13c;" horiz-adv-x="473" 
d="M63 0l402 1495h67l-401 -1495h-68zM-68 -408l-4 35q82 23 105 105h-49l32 116h103l-23 -81q-24 -85 -60 -123t-104 -52z" />
    <glyph glyph-name="Lcaron" unicode="&#x13d;" horiz-adv-x="1208" 
d="M76 0l385 1434h69l-368 -1371h864l-16 -63h-934zM848 1434v-4l-156 -302h-39l115 306h80z" />
    <glyph glyph-name="lcaron" unicode="&#x13e;" horiz-adv-x="473" 
d="M63 0l402 1495h67l-401 -1495h-68zM797 1495v-4l-156 -301h-39l115 305h80z" />
    <glyph glyph-name="Ldot" unicode="&#x13f;" horiz-adv-x="1224" 
d="M76 0l385 1434h69l-368 -1371h864l-16 -63h-934zM897 664l39 135h96l-37 -135h-98z" />
    <glyph glyph-name="ldot" unicode="&#x140;" horiz-adv-x="522" 
d="M63 0l402 1495h67l-401 -1495h-68zM492 680l36 137h99l-37 -137h-98z" />
    <glyph glyph-name="Lslash" unicode="&#x141;" horiz-adv-x="1280" 
d="M924 846l-525 -156l-168 -627h865l-17 -63h-934l179 668l-193 -58l16 66l195 57l188 701h70l-182 -678l522 155z" />
    <glyph glyph-name="lslash" unicode="&#x142;" horiz-adv-x="571" 
d="M551 784l-174 -53l-197 -731h-67l190 711l-172 -52l16 66l172 51l195 719h68l-189 -696l174 51z" />
    <glyph glyph-name="Nacute" unicode="&#x143;" horiz-adv-x="1605" 
d="M76 0l385 1434h63l690 -1325l357 1325h67l-385 -1434h-57l-696 1335l-359 -1335h-65zM1038 1556l256 220l78 -39l-266 -181h-68z" />
    <glyph glyph-name="nacute" unicode="&#x144;" horiz-adv-x="1243" 
d="M760 1057q164 0 255 -91t91 -243q0 -72 -27 -166l-147 -557h-66l150 559q20 76 20 158q0 129 -73 204q-74 75 -223 75q-150 0 -284 -116t-186 -305l-153 -575h-66l277 1032h65l-63 -235q166 260 430 260zM762 1219l244 247l81 -39l-264 -208h-61z" />
    <glyph glyph-name="Ncommaaccent" unicode="&#x145;" horiz-adv-x="1605" 
d="M76 0l385 1434h63l690 -1325l357 1325h67l-385 -1434h-57l-696 1335l-359 -1335h-65zM504 -397l-4 35q82 23 104 104h-49l33 117h102l-22 -82q-24 -84 -60 -122t-104 -52z" />
    <glyph glyph-name="ncommaaccent" unicode="&#x146;" horiz-adv-x="1243" 
d="M760 1057q164 0 255 -91t91 -243q0 -72 -27 -166l-147 -557h-66l150 559q20 76 20 158q0 129 -73 204q-74 75 -223 75q-150 0 -284 -116t-186 -305l-153 -575h-66l277 1032h65l-63 -235q166 260 430 260zM311 -401l-4 34q82 23 105 105h-50l33 117h103l-23 -82
q-23 -84 -59 -122t-105 -52z" />
    <glyph glyph-name="Ncaron" unicode="&#x147;" horiz-adv-x="1605" 
d="M76 0l385 1434h63l690 -1325l357 1325h67l-385 -1434h-57l-696 1335l-359 -1335h-65zM1393 1763l-269 -207h-59l-162 207h66l137 -141l213 141h74z" />
    <glyph glyph-name="ncaron" unicode="&#x148;" horiz-adv-x="1243" 
d="M760 1057q164 0 255 -91t91 -243q0 -72 -27 -166l-147 -557h-66l150 559q20 76 20 158q0 129 -73 204q-74 75 -223 75q-150 0 -284 -116t-186 -305l-153 -575h-66l277 1032h65l-63 -235q166 260 430 260zM1092 1456l-279 -237h-47l-148 237h56l129 -162l225 162h64z" />
    <glyph glyph-name="Omacron" unicode="&#x14c;" horiz-adv-x="1722" 
d="M815 37q205 0 378 114t270 298q97 185 97 407t-152 380q-153 158 -394 159q-205 0 -378 -114t-270 -298q-98 -183 -98 -405t152 -382t395 -159zM813 -25q-268 1 -441 179t-173 440q0 221 108 420q109 200 298 322t411 122q270 0 443 -178t173 -440q0 -221 -108 -420
t-300 -322q-190 -123 -411 -123zM846 1634l18 66h588l-16 -66h-590z" />
    <glyph glyph-name="omacron" unicode="&#x14d;" horiz-adv-x="1282" 
d="M575 37q219 0 376 169t157 386q0 178 -112 291t-289 112q-221 0 -378 -170t-157 -385q0 -178 112 -290t291 -113zM569 -25q-205 0 -336 130t-131 329q0 242 178 432t431 191q205 0 337 -130t132 -329q0 -244 -180 -434t-431 -189zM545 1272l16 61h569l-16 -61h-569z" />
    <glyph glyph-name="Obreve" unicode="&#x14e;" horiz-adv-x="1722" 
d="M815 37q205 0 378 114t270 298q97 185 97 407t-152 380q-153 158 -394 159q-205 0 -378 -114t-270 -298q-98 -183 -98 -405t152 -382t395 -159zM813 -25q-268 1 -441 179t-173 440q0 221 108 420q109 200 298 322t411 122q270 0 443 -178t173 -440q0 -221 -108 -420
t-300 -322q-190 -123 -411 -123zM1132 1579q-114 0 -170 50t-47 134h56q4 -121 172 -121t239 121h60q-36 -84 -116 -134t-194 -50z" />
    <glyph glyph-name="obreve" unicode="&#x14f;" horiz-adv-x="1282" 
d="M820 1217q-114 0 -170 58t-40 155h49q-4 -152 166 -152t254 152h56q-39 -98 -120 -156t-195 -57zM575 37q219 0 376 169t157 386q0 178 -112 291t-289 112q-221 0 -378 -170t-157 -385q0 -178 112 -290t291 -113zM569 -25q-205 0 -336 130t-131 329q0 242 178 432
t431 191q205 0 337 -130t132 -329q0 -244 -180 -434t-431 -189z" />
    <glyph glyph-name="Ohungarumlaut" unicode="&#x150;" horiz-adv-x="1722" 
d="M1182 1581l258 219l76 -39l-265 -180h-69zM920 1581l256 219l75 -39l-264 -180h-67zM815 37q205 0 378 114t270 298q97 185 97 407t-152 380q-153 158 -394 159q-205 0 -378 -114t-270 -298q-98 -183 -98 -405t152 -382t395 -159zM813 -25q-268 1 -441 179t-173 440
q0 221 108 420q109 200 298 322t411 122q270 0 443 -178t173 -440q0 -221 -108 -420t-300 -322q-190 -123 -411 -123z" />
    <glyph glyph-name="ohungarumlaut" unicode="&#x151;" horiz-adv-x="1282" 
d="M575 37q219 0 376 169t157 386q0 178 -112 291t-289 112q-221 0 -378 -170t-157 -385q0 -178 112 -290t291 -113zM569 -25q-205 0 -336 130t-131 329q0 242 178 432t431 191q205 0 337 -130t132 -329q0 -244 -180 -434t-431 -189zM618 1219l244 247l68 -39l-258 -208h-54
zM893 1219l244 247l67 -39l-258 -208h-53z" />
    <glyph glyph-name="OE" unicode="&#x152;" horiz-adv-x="2377" 
d="M911 63h230l350 1307h-356q-418 0 -670 -252q-205 -209 -205 -512q0 -225 141 -366q172 -177 510 -177zM915 0q-371 0 -569 195q-156 160 -156 407q0 336 224 559q129 129 318 201t413 72h1339l-18 -64h-905l-166 -616h817l-17 -64h-819l-168 -627h918l-17 -63h-1194z
" />
    <glyph glyph-name="oe" unicode="&#x153;" horiz-adv-x="2181" 
d="M569 37q219 0 379 169q160 168 160 366t-111 311t-290 112q-221 0 -378 -170t-157 -385q0 -180 108 -292t289 -111zM2011 655q0 143 -82 241t-255 99q-173 0 -314 -127t-186 -313h827q10 47 10 100zM1155 410q-1 -170 105 -272t292 -101q186 0 359 143l41 -47
q-186 -158 -408 -158q-182 -1 -301 95t-141 258q-76 -154 -218 -253t-333 -99t-320 129q-129 130 -129 329q0 242 178 432t431 191q180 1 302 -103t146 -266q74 162 211 265q136 103 322 103t287 -115q101 -116 102 -286q-4 -90 -27 -159h-891q-8 -39 -8 -86z" />
    <glyph glyph-name="Racute" unicode="&#x154;" horiz-adv-x="1474" 
d="M891 1567l256 219l78 -39l-267 -180h-67zM821 676q307 0 453 145q100 99 100 245t-104 225t-301 79h-457l-186 -694h495zM973 1434q223 0 347 -94t124 -269q0 -174 -121 -291q-150 -150 -438 -162l321 -618h-80l-315 612h-502l-164 -612h-69l385 1434h512z" />
    <glyph glyph-name="racute" unicode="&#x155;" horiz-adv-x="741" 
d="M811 985q-164 0 -336 -144t-229 -358l-129 -483h-66l277 1032h65l-82 -311q99 158 239 247t284 85l-19 -68h-4zM522 1219l244 247l82 -39l-264 -208h-62z" />
    <glyph glyph-name="Rcommaaccent" unicode="&#x156;" horiz-adv-x="1474" 
d="M821 676q307 0 453 145q100 99 100 245t-104 225t-301 79h-457l-186 -694h495zM973 1434q223 0 347 -94t124 -269q0 -174 -121 -291q-150 -150 -438 -162l321 -618h-80l-315 612h-502l-164 -612h-69l385 1434h512zM381 -397l-4 35q82 23 104 104h-49l33 117h102l-22 -82
q-23 -84 -59 -122t-105 -52z" />
    <glyph glyph-name="rcommaaccent" unicode="&#x157;" horiz-adv-x="741" 
d="M811 985q-164 0 -336 -144t-229 -358l-129 -483h-66l277 1032h65l-82 -311q99 158 239 247t284 85l-19 -68h-4zM-66 -408l-4 35q82 23 105 105h-49l32 116h103l-23 -81q-24 -85 -60 -123t-104 -52z" />
    <glyph glyph-name="Rcaron" unicode="&#x158;" horiz-adv-x="1474" 
d="M821 676q307 0 453 145q100 99 100 245t-104 225t-301 79h-457l-186 -694h495zM973 1434q223 0 347 -94t124 -269q0 -174 -121 -291q-150 -150 -438 -162l321 -618h-80l-315 612h-502l-164 -612h-69l385 1434h512zM1245 1774l-268 -207h-59l-162 207h65l137 -142l213 142
h74z" />
    <glyph glyph-name="rcaron" unicode="&#x159;" horiz-adv-x="741" 
d="M811 985q-164 0 -336 -144t-229 -358l-129 -483h-66l277 1032h65l-82 -311q99 158 239 247t284 85l-19 -68h-4zM852 1456l-279 -237h-47l-147 237h55l129 -162l225 162h64z" />
    <glyph glyph-name="Sacute" unicode="&#x15a;" horiz-adv-x="1308" 
d="M858 1581l256 219l78 -39l-266 -180h-68zM616 -20q-178 0 -328 72t-243 198l53 39q188 -246 527 -246q197 0 317 100q120 99 121 225q0 126 -86 194q-87 68 -279 144q-192 74 -287 151t-95 223t136 260q138 114 367 114q305 0 492 -211l-54 -45q-170 193 -444 193
q-195 1 -311 -95t-117 -215q0 -119 87 -183q86 -64 276 -138q190 -72 287 -154t97 -234t-140 -272t-376 -120z" />
    <glyph glyph-name="sacute" unicode="&#x15b;" horiz-adv-x="1007" 
d="M434 -20q-256 0 -430 170l47 47q164 -156 389 -156q133 0 222 67q88 68 88 152t-58 133t-200 103q-143 54 -216 114q-72 59 -72 166t104 192q103 85 272 85q92 0 193 -36t175 -99l-43 -50q-150 123 -330 123q-139 -1 -220 -65t-81 -145t58 -128t204 -103
q144 -56 214 -116t70 -171t-110 -197q-108 -86 -276 -86zM629 1219l243 247l82 -39l-264 -208h-61z" />
    <glyph glyph-name="Scedilla" unicode="&#x15e;" horiz-adv-x="1308" 
d="M625 43q197 0 317 100q120 99 121 225q0 126 -86 194q-87 68 -279 144q-192 74 -287 151t-95 223t136 260q138 114 367 114q305 0 492 -211l-54 -45q-170 193 -444 193q-195 1 -311 -95t-117 -215q0 -119 87 -183q86 -64 276 -138q190 -72 287 -154t97 -234t-140 -272
q-140 -121 -376 -120q-29 0 -43 2l-215 -277l-65 37l227 244q-305 35 -475 264l53 39q188 -246 527 -246z" />
    <glyph glyph-name="scedilla" unicode="&#x15f;" horiz-adv-x="1007" 
d="M440 41q133 0 222 67q88 68 88 152t-58 133t-200 103q-143 54 -216 114q-72 59 -72 166t104 192q103 85 272 85q92 0 193 -36t175 -99l-43 -50q-150 123 -330 123q-139 -1 -220 -65t-81 -145t58 -128t204 -103q144 -56 214 -116t70 -171t-110 -197q-108 -86 -276 -86
q-25 0 -35 2l-215 -277l-65 37l227 244q-209 31 -342 164l47 47q164 -156 389 -156z" />
    <glyph glyph-name="Scaron" unicode="&#x160;" horiz-adv-x="1308" 
d="M1214 1788l-268 -207h-59l-162 207h66l137 -141l213 141h73zM616 -20q-178 0 -328 72t-243 198l53 39q188 -246 527 -246q197 0 317 100q120 99 121 225q0 126 -86 194q-87 68 -279 144q-192 74 -287 151t-95 223t136 260q138 114 367 114q305 0 492 -211l-54 -45
q-170 193 -444 193q-195 1 -311 -95t-117 -215q0 -119 87 -183q86 -64 276 -138q190 -72 287 -154t97 -234t-140 -272t-376 -120z" />
    <glyph glyph-name="scaron" unicode="&#x161;" horiz-adv-x="1007" 
d="M434 -20q-256 0 -430 170l47 47q164 -156 389 -156q133 0 222 67q88 68 88 152t-58 133t-200 103q-143 54 -216 114q-72 59 -72 166t104 192q103 85 272 85q92 0 193 -36t175 -99l-43 -50q-150 123 -330 123q-139 -1 -220 -65t-81 -145t58 -128t204 -103
q144 -56 214 -116t70 -171t-110 -197q-108 -86 -276 -86zM958 1456l-278 -237h-47l-148 237h56l129 -162l225 162h63z" />
    <glyph glyph-name="Tcommaaccent" unicode="&#x162;" horiz-adv-x="1218" 
d="M426 0l367 1370h-510l16 64h1092l-17 -64h-512l-366 -1370h-70zM293 -408l-4 35q82 23 104 105h-49l33 116h102l-22 -81q-23 -85 -59 -123t-105 -52z" />
    <glyph glyph-name="tcommaaccent" unicode="&#x163;" horiz-adv-x="782" 
d="M384 -18q-94 0 -155 50t-61 146q0 41 14 103l185 692h-158l16 59h158l92 346h68l-94 -346h372l-16 -59h-371l-186 -694q-14 -57 -15 -95q0 -141 181 -141q74 0 149 31l-18 -68q-67 -24 -161 -24zM145 -414l-4 35q82 23 105 105h-49l32 116h103l-23 -82q-23 -84 -59 -122
t-105 -52z" />
    <glyph glyph-name="Tcaron" unicode="&#x164;" horiz-adv-x="1218" 
d="M426 0l367 1370h-510l16 64h1092l-17 -64h-512l-366 -1370h-70zM1188 1774l-268 -207h-60l-162 207h66l137 -142l213 142h74z" />
    <glyph glyph-name="tcaron" unicode="&#x165;" horiz-adv-x="782" 
d="M384 -18q-94 0 -155 50t-61 146q0 41 14 103l185 692h-158l16 59h158l92 346h68l-94 -346h372l-16 -59h-371l-186 -694q-14 -57 -15 -95q0 -141 181 -141q74 0 149 31l-18 -68q-67 -24 -161 -24zM903 1516v-5l-155 -301h-39l114 306h80z" />
    <glyph glyph-name="Umacron" unicode="&#x16a;" horiz-adv-x="1544" 
d="M720 -23q-244 0 -383 119q-138 119 -138 336q0 106 34 240l203 762h70l-209 -787q-29 -100 -29 -209q0 -188 119 -292t335 -105q216 1 364 149t225 431l217 813h69l-223 -830q-78 -295 -231 -448q-179 -179 -423 -179zM754 1610l18 65h588l-17 -65h-589z" />
    <glyph glyph-name="umacron" unicode="&#x16b;" horiz-adv-x="1243" 
d="M512 1266l16 61h570l-17 -61h-569zM483 -25q-164 -1 -255 91t-91 243q0 68 25 166l149 557h66l-150 -559q-23 -84 -22 -158q0 -129 75 -203q74 -74 222 -75q148 0 284 116t185 304l153 575h68l-277 -1032h-65l63 236q-170 -261 -430 -261z" />
    <glyph glyph-name="Ubreve" unicode="&#x16c;" horiz-adv-x="1544" 
d="M720 -23q-244 0 -383 119q-138 119 -138 336q0 106 34 240l203 762h70l-209 -787q-29 -100 -29 -209q0 -188 119 -292t335 -105q216 1 364 149t225 431l217 813h69l-223 -830q-78 -295 -231 -448q-179 -179 -423 -179zM1041 1554q-114 0 -170 50t-46 135h56
q4 -121 172 -121t239 121h60q-35 -85 -116 -135t-195 -50z" />
    <glyph glyph-name="ubreve" unicode="&#x16d;" horiz-adv-x="1243" 
d="M789 1210q-113 0 -169 58t-40 155h49q-4 -151 166 -151t254 151h55q-39 -97 -120 -155t-195 -58zM483 -25q-164 -1 -255 91t-91 243q0 68 25 166l149 557h66l-150 -559q-23 -84 -22 -158q0 -129 75 -203q74 -74 222 -75q148 0 284 116t185 304l153 575h68l-277 -1032h-65
l63 236q-170 -261 -430 -261z" />
    <glyph glyph-name="Uring" unicode="&#x16e;" horiz-adv-x="1544" 
d="M922 1708q0 -60 38 -95q38 -34 105 -34q68 0 123 45q55 46 55 106t-38 95q-39 35 -107 35t-122 -46t-54 -106zM1061 1534q-92 0 -143 46q-52 46 -52 126t73 139t164 59t143 -45q52 -46 52 -126t-72 -140q-73 -59 -165 -59zM720 -23q-244 0 -383 119q-138 119 -138 336
q0 106 34 240l203 762h70l-209 -787q-29 -100 -29 -209q0 -188 119 -292t335 -105q216 1 364 149t225 431l217 813h69l-223 -830q-78 -295 -231 -448q-179 -179 -423 -179z" />
    <glyph glyph-name="uring" unicode="&#x16f;" horiz-adv-x="1243" 
d="M483 -25q-164 -1 -255 91t-91 243q0 68 25 166l149 557h66l-150 -559q-23 -84 -22 -158q0 -129 75 -203q74 -74 222 -75q148 0 284 116t185 304l153 575h68l-277 -1032h-65l63 236q-170 -261 -430 -261zM672 1378q0 -64 38 -101q38 -38 104 -38q67 0 119 48q52 49 52 113
t-38 102q-39 38 -105 38t-118 -49t-52 -113zM813 1194q-86 0 -139 50t-53 133t68 146q69 62 155 62t139 -50t53 -133t-68 -146q-69 -62 -155 -62z" />
    <glyph glyph-name="Uhungarumlaut" unicode="&#x170;" horiz-adv-x="1544" 
d="M1090 1556l258 220l75 -39l-264 -181h-69zM827 1556l256 220l76 -39l-264 -181h-68zM720 -23q-244 0 -383 119q-138 119 -138 336q0 106 34 240l203 762h70l-209 -787q-29 -100 -29 -209q0 -188 119 -292t335 -105q216 1 364 149t225 431l217 813h69l-223 -830
q-78 -295 -231 -448q-179 -179 -423 -179z" />
    <glyph glyph-name="uhungarumlaut" unicode="&#x171;" horiz-adv-x="1243" 
d="M588 1212l243 248l68 -39l-258 -209h-53zM862 1212l244 248l68 -39l-259 -209h-53zM483 -25q-164 -1 -255 91t-91 243q0 68 25 166l149 557h66l-150 -559q-23 -84 -22 -158q0 -129 75 -203q74 -74 222 -75q148 0 284 116t185 304l153 575h68l-277 -1032h-65l63 236
q-170 -261 -430 -261z" />
    <glyph glyph-name="Uogonek" unicode="&#x172;" horiz-adv-x="1544" 
d="M709 -23q-17 0 -35 3q-133 -96 -133 -172t143 -89l-12 -49q-98 2 -151 36q-52 34 -52 91q0 90 137 187q-190 24 -299 140t-108 308q0 106 34 240l203 762h70l-209 -787q-29 -100 -29 -209q0 -188 119 -292t335 -105q216 1 364 149t225 431l217 813h69l-223 -830
q-78 -295 -231 -448q-178 -179 -434 -179z" />
    <glyph glyph-name="uogonek" unicode="&#x173;" horiz-adv-x="1243" 
d="M483 -25q-164 -1 -255 91t-91 243q0 68 25 166l149 557h66l-150 -559q-23 -84 -22 -158q0 -129 75 -203q74 -74 222 -75q148 0 284 116t185 304l153 575h68l-277 -1032h-8q-166 -106 -166 -193q0 -76 144 -88l-13 -49q-98 2 -150 36t-52 91q0 104 184 217l59 222
q-170 -261 -430 -261z" />
    <glyph glyph-name="Wcircumflex" unicode="&#x174;" horiz-adv-x="2166" 
d="M1092 1567l270 207h59l160 -207h-63l-138 141l-215 -141h-73zM442 -10l-123 1444h70l109 -1342l792 1346h53l89 -1346l813 1342h75l-884 -1444h-58l-90 1325l-788 -1325h-58z" />
    <glyph glyph-name="wcircumflex" unicode="&#x175;" horiz-adv-x="1681" 
d="M307 -8l-92 1040h68l75 -942l578 948h55l68 -948l575 942h74l-643 -1040h-57l-72 938l-574 -938h-55zM768 1219l276 237h48l147 -237h-53l-131 161l-224 -161h-63z" />
    <glyph glyph-name="Ycircumflex" unicode="&#x176;" horiz-adv-x="1363" 
d="M674 1556l270 207h60l159 -207h-63l-137 142l-215 -142h-74zM496 0l159 594l-374 840h73l348 -787l773 787h92l-846 -856l-156 -578h-69z" />
    <glyph glyph-name="ycircumflex" unicode="&#x177;" horiz-adv-x="1169" 
d="M481 1212l277 238h47l147 -238h-53l-131 162l-223 -162h-64zM46 -334q-110 0 -200 62l37 53q76 -55 167 -55t173 58t193 214l-221 1034h69l201 -969l668 969h77l-733 -1052q-129 -184 -225 -249t-206 -65z" />
    <glyph glyph-name="Ydieresis" unicode="&#x178;" horiz-adv-x="1363" 
d="M727 1579l33 125h108l-32 -125h-109zM1044 1579l33 125h107l-33 -125h-107zM496 0l159 594l-374 840h73l348 -787l773 787h92l-846 -856l-156 -578h-69z" />
    <glyph glyph-name="Zacute" unicode="&#x179;" horiz-adv-x="1363" 
d="M879 1567l256 219l77 -39l-266 -180h-67zM-23 0l11 39l1360 1331h-969l18 64h1078l-13 -39l-1360 -1332h1002l-17 -63h-1110z" />
    <glyph glyph-name="zacute" unicode="&#x17a;" horiz-adv-x="1046" 
d="M-53 0l10 37l1012 938h-736l17 57h840l-11 -37l-1011 -938h766l-17 -57h-870zM635 1219l244 247l82 -39l-265 -208h-61z" />
    <glyph glyph-name="Zdotaccent" unicode="&#x17b;" horiz-adv-x="1363" 
d="M-23 0l11 39l1360 1331h-969l18 64h1078l-13 -39l-1360 -1332h1002l-17 -63h-1110zM874 1589l33 125h109l-33 -125h-109z" />
    <glyph glyph-name="zdotaccent" unicode="&#x17c;" horiz-adv-x="1046" 
d="M633 1241l35 131h98l-35 -131h-98zM-53 0l10 37l1012 938h-736l17 57h840l-11 -37l-1011 -938h766l-17 -57h-870z" />
    <glyph glyph-name="Zcaron" unicode="&#x17d;" horiz-adv-x="1363" 
d="M-23 0l11 39l1360 1331h-969l18 64h1078l-13 -39l-1360 -1332h1002l-17 -63h-1110zM1233 1774l-268 -207h-60l-162 207h66l137 -142l213 142h74z" />
    <glyph glyph-name="zcaron" unicode="&#x17e;" horiz-adv-x="1046" 
d="M-53 0l10 37l1012 938h-736l17 57h840l-11 -37l-1011 -938h766l-17 -57h-870zM965 1456l-279 -237h-47l-147 237h55l129 -162l225 162h64z" />
    <glyph glyph-name="florin" unicode="&#x192;" horiz-adv-x="983" 
d="M27 -12q-49 0 -97 10l17 59q37 -10 99 -10q135 0 237 232l231 528h-223l14 61h236l125 287q70 159 156 225t196 66q63 0 137 -23l-20 -59q-55 20 -132 20t-148 -55t-132 -196l-115 -265h326l-16 -61h-336l-240 -545q-68 -154 -142 -214t-173 -60z" />
    <glyph glyph-name="Aringacute" unicode="&#x1fa;" horiz-adv-x="1564" 
d="M1100 1806l237 191l74 -37l-242 -154h-69zM1053 1417q68 0 122 45q54 46 54 106t-37 95t-106 35q-68 0 -122 -46t-54 -108t37 -94q38 -33 106 -33zM375 481h825l-174 881zM854 1534q0 88 73 148t164 60t142 -45q51 -46 51 -121t-57 -132t-142 -72l279 -1372h-70l-82 418
h-884l-308 -418h-79l1024 1382q-111 39 -111 152z" />
    <glyph glyph-name="aringacute" unicode="&#x1fb;" horiz-adv-x="1163" 
d="M950 1422q0 64 -38 102t-104 39t-119 -49q-52 -50 -52 -113q-1 -63 37 -101t105 -38t119 48t52 112zM778 1217q-86 0 -139 50t-53 133t68 145q69 63 155 63t139 -50t53 -133t-68 -146q-69 -62 -155 -62zM397 35q178 0 318 108q139 109 182 275l25 92q-200 55 -396 55
t-300 -80t-105 -203q1 -123 81 -185t195 -62zM385 -25q-135 0 -234 77t-100 208q0 170 128 268t338 98t419 -61l12 39q16 61 17 117q-1 129 -93 198t-244 69t-302 -54l-17 59q156 55 329 55t282 -82q109 -83 108 -239q0 -63 -18 -133l-160 -594h-66l60 219
q-160 -244 -459 -244zM834 1681l237 211l72 -37l-248 -174h-61z" />
    <glyph glyph-name="AEacute" unicode="&#x1fc;" horiz-adv-x="2131" 
d="M416 481h590l239 889h-37zM-98 0l1282 1434h1057l-19 -64h-907l-166 -616h817l-16 -64h-820l-167 -627h919l-16 -63h-989l112 418h-629l-374 -418h-84zM1452 1567l256 219l78 -39l-266 -180h-68z" />
    <glyph glyph-name="aeacute" unicode="&#x1fd;" horiz-adv-x="2004" 
d="M508 565q-174 0 -280 -80t-107 -202q0 -122 82 -185t214 -63t268 74t239 204q-8 41 -8 97t8 100q-186 55 -416 55zM1837 655q0 143 -83 241t-256 99q-172 0 -314 -127t-187 -313h828q12 57 12 100zM1507 1057q195 0 296 -116t102 -286q0 -76 -25 -159h-893q-6 -43 -6 -86
q0 -170 104 -272t291 -101q187 0 359 143l41 -47q-186 -158 -408 -158q-162 0 -274 73t-154 202q-229 -274 -539 -275q-147 0 -248 77t-102 212q0 168 129 265t343 97t413 -61l12 39q16 61 17 117q-1 129 -93 198t-244 69t-302 -54l-17 59q156 55 323 55t273 -74
q106 -75 117 -214q82 133 211 215t274 82zM1102 1219l244 247l81 -39l-264 -208h-61z" />
    <glyph glyph-name="Oslashacute" unicode="&#x1fe;" horiz-adv-x="1722" 
d="M1079 1581l256 219l78 -39l-266 -180h-68zM813 37q205 0 378 114t270 298q97 183 97 373t-83 331l-1094 -915q158 -201 432 -201zM1012 1395q-205 0 -378 -114t-270 -298q-98 -185 -98 -373t82 -323l1094 913q-156 195 -430 195zM811 -25q-301 0 -481 220l-246 -205h-90
l303 254q-102 154 -102 362t108 408q109 200 299 322t412 122q297 0 477 -217l242 203h90l-297 -248q104 -160 104 -368t-108 -408q-108 -199 -300 -322q-190 -123 -411 -123z" />
    <glyph glyph-name="oslashacute" unicode="&#x1ff;" horiz-adv-x="1282" 
d="M774 1219l244 247l82 -39l-264 -208h-62zM584 37q210 0 367 169t157 386q0 131 -57 225l-787 -647q110 -133 320 -133zM696 995q-210 0 -367 -170t-157 -385q0 -129 59 -225l789 647q-114 133 -324 133zM1180 598q0 -244 -180 -434t-416 -189q-236 0 -371 152l-168 -137
h-88l221 182q-76 111 -76 262q0 242 178 432t418 190t371 -153l191 156h88l-244 -199q76 -115 76 -262z" />
    <glyph glyph-name="Scommaaccent" unicode="&#x218;" horiz-adv-x="1308" 
d="M616 -20q-178 0 -328 72t-243 198l53 39q188 -246 527 -246q197 0 317 100q120 99 121 225q0 126 -86 194q-87 68 -279 144q-192 74 -287 151t-95 223t136 260q138 114 367 114q305 0 492 -211l-54 -45q-170 193 -444 193q-195 1 -311 -95t-117 -215q0 -119 87 -183
q86 -64 276 -138q190 -72 287 -154t97 -234t-140 -272t-376 -120zM313 -414l-4 35q82 23 105 105h-49l32 116h103l-23 -82q-23 -84 -59 -122t-105 -52z" />
    <glyph glyph-name="scommaaccent" unicode="&#x219;" horiz-adv-x="1007" 
d="M434 -20q-256 0 -430 170l47 47q164 -156 389 -156q133 0 222 67q88 68 88 152t-58 133t-200 103q-143 54 -216 114q-72 59 -72 166t104 192q103 85 272 85q92 0 193 -36t175 -99l-43 -50q-150 123 -330 123q-139 -1 -220 -65t-81 -145t58 -128t204 -103
q144 -56 214 -116t70 -171t-110 -197q-108 -86 -276 -86zM174 -414l-4 35q82 23 104 105h-49l33 116h102l-22 -82q-24 -84 -60 -122t-104 -52z" />
    <glyph glyph-name="schwa" unicode="&#x259;" horiz-adv-x="1198" 
d="M168 377q0 -143 83 -241t256 -99q173 0 315 127t186 313h-830q-10 -72 -10 -100zM1024 623q0 170 -104 271t-291 101t-361 -143l-39 47q187 158 401 158t340 -118t126 -312q0 -254 -177 -453t-421 -199q-197 0 -297 116t-101 286q4 96 25 160h893q6 43 6 86z" />
    <glyph glyph-name="circumflex" unicode="&#x2c6;" 
d="M465 1219l276 237h47l148 -237h-53l-131 161l-224 -161h-63z" />
    <glyph glyph-name="caron" unicode="&#x2c7;" 
d="M997 1456l-278 -237h-47l-148 237h56l129 -162l225 162h63z" />
    <glyph glyph-name="breve" unicode="&#x2d8;" 
d="M701 1217q-114 0 -170 58t-39 155h49q-4 -152 166 -152t254 152h55q-39 -98 -120 -156t-195 -57z" />
    <glyph glyph-name="dotaccent" unicode="&#x2d9;" 
d="M655 1241l35 131h98l-34 -131h-99z" />
    <glyph glyph-name="ring" unicode="&#x2da;" 
d="M907 1422q0 64 -38 102q-39 38 -105 39t-118 -49t-52 -113t38 -101t104 -38q67 0 119 48t52 112zM735 1217q-86 0 -139 50t-53 133t68 145q69 63 155 63t139 -50t53 -133t-68 -146q-69 -62 -155 -62z" />
    <glyph glyph-name="ogonek" unicode="&#x2db;" 
d="M231 -203q0 104 197 226l45 -21q-170 -111 -170 -195q0 -76 143 -88l-12 -49q-98 2 -150 36t-53 91z" />
    <glyph glyph-name="tilde" unicode="&#x2dc;" 
d="M600 1405q43 0 130 -53t122 -54q70 0 131 119l43 -10q-72 -174 -182 -174q-43 0 -129 52t-121 52q-74 1 -131 -118l-45 10q72 176 182 176z" />
    <glyph glyph-name="hungarumlaut" unicode="&#x2dd;" 
d="M426 1219l244 247l67 -39l-258 -208h-53zM700 1219l244 247l68 -39l-258 -208h-54z" />
    <glyph glyph-name="commaaccent" unicode="&#x326;" 
d="M197 -408l-4 35q82 23 104 105h-49l33 116h102l-23 -81q-23 -85 -59 -123t-104 -52z" />
    <glyph glyph-name="Wgrave" unicode="&#x1e80;" horiz-adv-x="2166" 
d="M442 -10l-123 1444h70l109 -1342l792 1346h53l89 -1346l813 1342h75l-884 -1444h-58l-90 1325l-788 -1325h-58zM1200 1786l139 -219h-49l-166 180z" />
    <glyph glyph-name="wgrave" unicode="&#x1e81;" horiz-adv-x="1681" 
d="M967 1219l-150 208l82 39l113 -247h-45zM307 -8l-92 1040h68l75 -942l578 948h55l68 -948l575 942h74l-643 -1040h-57l-72 938l-574 -938h-55z" />
    <glyph glyph-name="Wacute" unicode="&#x1e82;" horiz-adv-x="2166" 
d="M442 -10l-123 1444h70l109 -1342l792 1346h53l89 -1346l813 1342h75l-884 -1444h-58l-90 1325l-788 -1325h-58zM1305 1567l256 219l77 -39l-266 -180h-67z" />
    <glyph glyph-name="wacute" unicode="&#x1e83;" horiz-adv-x="1681" 
d="M307 -8l-92 1040h68l75 -942l578 948h55l68 -948l575 942h74l-643 -1040h-57l-72 938l-574 -938h-55zM971 1219l243 247l82 -39l-264 -208h-61z" />
    <glyph glyph-name="Wdieresis" unicode="&#x1e84;" horiz-adv-x="2166" 
d="M442 -10l-123 1444h70l109 -1342l792 1346h53l89 -1346l813 1342h75l-884 -1444h-58l-90 1325l-788 -1325h-58zM1145 1589l33 125h108l-33 -125h-108zM1462 1589l33 125h107l-33 -125h-107z" />
    <glyph glyph-name="wdieresis" unicode="&#x1e85;" horiz-adv-x="1681" 
d="M307 -8l-92 1040h68l75 -942l578 948h55l68 -948l575 942h74l-643 -1040h-57l-72 938l-574 -938h-55zM821 1241l35 127h100l-34 -127h-101zM1114 1241l35 127h100l-35 -127h-100z" />
    <glyph glyph-name="Ygrave" unicode="&#x1ef2;" horiz-adv-x="1363" 
d="M782 1776l140 -220h-50l-165 181zM496 0l159 594l-374 840h73l348 -787l773 787h92l-846 -856l-156 -578h-69z" />
    <glyph glyph-name="ygrave" unicode="&#x1ef3;" horiz-adv-x="1169" 
d="M682 1212l-150 209l82 39l113 -248h-45zM46 -334q-110 0 -200 62l37 53q76 -55 167 -55t173 58t193 214l-221 1034h69l201 -969l668 969h77l-733 -1052q-129 -184 -225 -249t-206 -65z" />
    <glyph glyph-name="enspace" unicode="&#x2002;" 
 />
    <glyph glyph-name="emspace" unicode="&#x2003;" horiz-adv-x="2048" 
 />
    <glyph glyph-name="threeperemspace" unicode="&#x2004;" horiz-adv-x="681" 
 />
    <glyph glyph-name="fourperemspace" unicode="&#x2005;" horiz-adv-x="512" 
 />
    <glyph glyph-name="thinspace" unicode="&#x2009;" horiz-adv-x="272" 
 />
    <glyph glyph-name="hairspace" unicode="&#x200a;" horiz-adv-x="153" 
 />
    <glyph glyph-name="endash" unicode="&#x2013;" horiz-adv-x="1093" 
d="M156 575l18 66h807l-18 -66h-807z" />
    <glyph glyph-name="emdash" unicode="&#x2014;" horiz-adv-x="1835" 
d="M156 575l18 66h1548l-18 -66h-1548z" />
    <glyph glyph-name="quoteleft" unicode="&#x2018;" horiz-adv-x="391" 
d="M301 1120l31 117q25 94 62 138q38 44 106 63l10 -35q-92 -27 -119 -150h45l-37 -133h-98z" />
    <glyph glyph-name="quoteright" unicode="&#x2019;" horiz-adv-x="391" 
d="M295 1116l-10 35q92 27 118 149h-43l35 134h99l-31 -117q-27 -95 -63 -139t-105 -62z" />
    <glyph glyph-name="quotesinglbase" unicode="&#x201a;" horiz-adv-x="391" 
d="M-57 -184l-11 34q92 27 119 150h-43l35 133h98l-30 -117q-27 -94 -63 -138t-105 -62z" />
    <glyph glyph-name="quotedblleft" unicode="&#x201c;" horiz-adv-x="649" 
d="M301 1120l31 117q25 94 62 138q38 44 106 63l10 -35q-92 -27 -119 -150h43l-35 -133h-98zM559 1120l31 117q25 94 62 138q38 44 106 63l10 -35q-92 -27 -119 -150h43l-35 -133h-98z" />
    <glyph glyph-name="quotedblright" unicode="&#x201d;" horiz-adv-x="649" 
d="M287 1116l-13 35q94 29 121 149h-45l37 134h98l-30 -117q-27 -95 -63 -139t-105 -62zM545 1116l-13 35q94 29 121 149h-45l37 134h98l-30 -117q-27 -95 -63 -139t-105 -62z" />
    <glyph glyph-name="quotedblbase" unicode="&#x201e;" horiz-adv-x="649" 
d="M-57 -184l-11 34q92 27 119 150h-43l35 133h98l-30 -117q-27 -94 -63 -138t-105 -62zM203 -184l-13 34q94 29 121 150h-45l37 133h98l-30 -117q-27 -94 -63 -138t-105 -62z" />
    <glyph glyph-name="dagger" unicode="&#x2020;" horiz-adv-x="813" 
d="M348 487l172 600l-258 -14l17 64l251 -13l72 310h68l-97 -310l261 13l-19 -64l-254 14l-147 -600h-66z" />
    <glyph glyph-name="daggerdbl" unicode="&#x2021;" horiz-adv-x="829" 
d="M225 0l94 309l-258 -12l17 63l252 -14l90 371l108 370l-258 -14l17 64l252 -13l71 310h68l-96 -310l260 13l-19 -64l-254 14l-86 -370l-110 -371l260 14l-19 -63l-249 12l-72 -309h-68z" />
    <glyph glyph-name="bullet" unicode="&#x2022;" horiz-adv-x="915" 
d="M477 481q-96 1 -150 55q-55 54 -55 156t79 186q79 83 175 83q96 -1 151 -55q54 -54 54 -156t-79 -186q-79 -83 -175 -83z" />
    <glyph glyph-name="ellipsis" unicode="&#x2026;" horiz-adv-x="1155" 
d="M8 0l35 133h98l-35 -133h-98zM389 0l37 133h98l-37 -133h-98zM772 0l35 133h98l-35 -133h-98z" />
    <glyph glyph-name="perthousand" unicode="&#x2030;" horiz-adv-x="2469" 
d="M1204 45q127 0 220 117q94 117 94 243q0 125 -58 193t-157 68q-127 0 -221 -117t-93 -243t59 -194t156 -67zM1989 45q127 0 220 117t93 243q0 125 -58 193t-157 68q-127 0 -220 -117t-93 -241t60 -194q60 -69 155 -69zM485 768q127 0 221 117q93 117 93 243
q-1 126 -59 194t-156 69q-127 0 -220 -117q-94 -118 -94 -242t60 -194t155 -70zM1200 -16q-123 0 -201 86t-77 213q0 172 113 307q114 135 272 135q123 0 201 -85t77 -214q-1 -172 -115 -307t-270 -135zM1985 -16q-123 0 -200 86t-77 213q0 172 114 307t271 135
q121 0 199 -85t78 -214q0 -172 -114 -307t-271 -135zM145 0l1418 1434h79l-1415 -1434h-82zM481 709q-123 0 -199 85t-77 214q0 172 113 307q114 135 272 135q120 0 198 -85t78 -214q0 -172 -114 -307t-271 -135z" />
    <glyph glyph-name="guilsinglleft" unicode="&#x2039;" horiz-adv-x="614" 
d="M322 92l-234 424l4 12l457 422l45 -35l-426 -403l205 -391z" />
    <glyph glyph-name="guilsinglright" unicode="&#x203a;" horiz-adv-x="614" 
d="M61 92l-43 35l424 401l-202 394l51 26l231 -422l-2 -14z" />
    <glyph glyph-name="fraction" unicode="&#x2044;" horiz-adv-x="970" 
d="M-227 -201l1431 1755h76l-1432 -1755h-75z" />
    <glyph glyph-name="Euro" unicode="&#x20ac;" horiz-adv-x="1433" 
d="M778 -25q-211 -1 -348 147t-139 398h-193l17 64h176q6 150 47 284h-148l17 66h153q90 232 264 378t398 146q168 0 284 -92t162 -231l-61 -25q-47 127 -146 206t-247 79q-194 0 -346 -127t-234 -334h651l-16 -66h-659q-43 -131 -50 -284h633l-16 -64h-617q4 -217 119 -349
t301 -132q240 0 428 213l47 -41q-205 -236 -477 -236z" />
    <glyph glyph-name="published" unicode="&#x2117;" horiz-adv-x="1697" 
d="M733 678h209q110 0 174 48t64 135t-62 133t-170 46h-215v-362zM674 346v750h276q133 0 211 -62t78 -173q0 -112 -84 -175t-215 -63h-207v-277h-59zM903 1415q-291 0 -493 -205q-202 -206 -203 -494q1 -288 203 -493t492 -205t493 205t203 495t-202 494t-493 203zM901 -25
q-307 -1 -523 217t-216 525t217 524t525 217t524 -217t216 -524t-218 -525t-525 -217z" />
    <glyph glyph-name="servicemark" unicode="&#x2120;" horiz-adv-x="1417" 
d="M760 803l180 631h41l152 -379l362 379h53l-180 -631h-47l156 545l-361 -371h-4l-149 371l-156 -545h-47zM410 793q-168 0 -256 120l34 29q86 -109 224 -108q80 0 130 40t50 92t-34 80t-119 62t-126 67q-41 35 -41 101t64 117t164 51q137 0 219 -96l-35 -31
q-76 86 -190 86q-78 0 -125 -39t-47 -88t36 -76q36 -28 117 -58q82 -30 123 -67t41 -105q1 -68 -63 -123q-64 -54 -166 -54z" />
    <glyph glyph-name="trademark" unicode="&#x2122;" horiz-adv-x="1372" 
d="M307 803l168 583h-217l12 48h484l-15 -48h-217l-168 -583h-47zM715 803l180 631h41l151 -379l363 379h53l-180 -631h-47l156 545l-361 -371h-4l-149 371l-156 -545h-47z" />
    <glyph glyph-name="minus" unicode="&#x2212;" horiz-adv-x="1245" 
d="M1149 690h-961l17 62h960z" />
    <glyph glyph-name="Q.alt" horiz-adv-x="1722" 
d="M808 37q236 0 429 145l-256 285l51 43l252 -287q129 115 203 277t74 338q0 240 -153 398t-394 159q-205 0 -378 -114t-270 -298q-98 -183 -98 -405t152 -382t388 -159zM807 -25q-262 1 -435 179t-173 440q0 221 108 420q109 200 298 322t411 122q270 0 443 -178t173 -440
q0 -188 -82 -364t-223 -300l148 -164l-50 -43l-147 166q-209 -160 -471 -160z" />
    <glyph glyph-name="a.alt" horiz-adv-x="1335" 
d="M532 37q152 0 282 87t202 216t71 254q0 174 -108 288q-109 114 -285 113q-221 0 -368 -176t-148 -397q0 -168 100 -276q102 -108 254 -109zM515 -25q-167 0 -287 125t-119 312q0 256 169 450t412 195q182 -1 295 -101t141 -239l86 315h66l-277 -1032h-65l63 236
q-65 -100 -191 -180t-293 -81z" />
    <glyph glyph-name="aacute.alt" horiz-adv-x="1335" 
d="M532 37q152 0 282 87t202 216t71 254q0 174 -108 288q-109 114 -285 113q-221 0 -368 -176t-148 -397q0 -168 100 -276q102 -108 254 -109zM515 -25q-167 0 -287 125t-119 312q0 256 169 450t412 195q182 -1 295 -101t141 -239l86 315h66l-277 -1032h-65l63 236
q-65 -100 -191 -180t-293 -81zM791 1219l243 247l82 -39l-264 -208h-61z" />
    <glyph glyph-name="abreve.alt" horiz-adv-x="1335" 
d="M837 1217q-114 0 -170 58t-40 155h49q-4 -152 166 -152t254 152h55q-39 -98 -119 -156t-195 -57zM532 37q152 0 282 87t202 216t71 254q0 174 -108 288q-109 114 -285 113q-221 0 -368 -176t-148 -397q0 -168 100 -276q102 -108 254 -109zM515 -25q-167 0 -287 125
t-119 312q0 256 169 450t412 195q182 -1 295 -101t141 -239l86 315h66l-277 -1032h-65l63 236q-65 -100 -191 -180t-293 -81z" />
    <glyph glyph-name="acircumflex.alt" horiz-adv-x="1335" 
d="M532 37q152 0 282 87t202 216t71 254q0 174 -108 288q-109 114 -285 113q-221 0 -368 -176t-148 -397q0 -168 100 -276q102 -108 254 -109zM515 -25q-167 0 -287 125t-119 312q0 256 169 450t412 195q182 -1 295 -101t141 -239l86 315h66l-277 -1032h-65l63 236
q-65 -100 -191 -180t-293 -81zM588 1219l276 237h47l148 -237h-53l-132 161l-223 -161h-63z" />
    <glyph glyph-name="adieresis.alt" horiz-adv-x="1335" 
d="M532 37q152 0 282 87t202 216t71 254q0 174 -108 288q-109 114 -285 113q-221 0 -368 -176t-148 -397q0 -168 100 -276q102 -108 254 -109zM515 -25q-167 0 -287 125t-119 312q0 256 169 450t412 195q182 -1 295 -101t141 -239l86 315h66l-277 -1032h-65l63 236
q-65 -100 -191 -180t-293 -81zM639 1241l35 127h100l-35 -127h-100zM932 1241l35 127h100l-35 -127h-100z" />
    <glyph glyph-name="agrave.alt" horiz-adv-x="1335" 
d="M786 1219l-149 208l82 39l112 -247h-45zM532 37q152 0 282 87t202 216t71 254q0 174 -108 288q-109 114 -285 113q-221 0 -368 -176t-148 -397q0 -168 100 -276q102 -108 254 -109zM515 -25q-167 0 -287 125t-119 312q0 256 169 450t412 195q182 -1 295 -101t141 -239
l86 315h66l-277 -1032h-65l63 236q-65 -100 -191 -180t-293 -81z" />
    <glyph glyph-name="amacron.alt" horiz-adv-x="1335" 
d="M561 1272l17 61h569l-17 -61h-569zM532 37q152 0 282 87t202 216t71 254q0 174 -108 288q-109 114 -285 113q-221 0 -368 -176t-148 -397q0 -168 100 -276q102 -108 254 -109zM515 -25q-167 0 -287 125t-119 312q0 256 169 450t412 195q182 -1 295 -101t141 -239l86 315
h66l-277 -1032h-65l63 236q-65 -100 -191 -180t-293 -81z" />
    <glyph glyph-name="aogonek.alt" horiz-adv-x="1335" 
d="M532 37q152 0 282 87t202 216t71 254q0 174 -108 288q-109 114 -285 113q-221 0 -368 -176t-148 -397q0 -168 100 -276q102 -108 254 -109zM758 -203q0 102 180 215l61 224q-65 -100 -191 -180t-293 -81q-167 0 -287 125t-119 312q0 256 169 450t412 195q182 -1 295 -101
t141 -239l86 315h66l-277 -1032h-6q-166 -106 -166 -193q0 -76 144 -88l-12 -49q-98 2 -151 36q-52 34 -52 91z" />
    <glyph glyph-name="aring.alt" horiz-adv-x="1335" 
d="M532 37q152 0 282 87t202 216t71 254q0 174 -108 288q-109 114 -285 113q-221 0 -368 -176t-148 -397q0 -168 100 -276q102 -108 254 -109zM515 -25q-167 0 -287 125t-119 312q0 256 169 450t412 195q182 -1 295 -101t141 -239l86 315h66l-277 -1032h-65l63 236
q-65 -100 -191 -180t-293 -81zM1038 1422q0 64 -38 102t-104 39t-119 -49q-52 -50 -52 -113q-1 -63 37 -101t105 -38t119 48t52 112zM866 1217q-86 0 -139 50t-53 133t68 145q69 63 155 63t139 -50q54 -50 54 -133t-69 -145t-155 -63z" />
    <glyph glyph-name="aring.alt2" horiz-adv-x="1163" 
d="M588 1181q0 -63 38 -101t104 -38q67 0 119 48t52 113q0 63 -38 101q-39 38 -105 38t-118 -49q-52 -48 -52 -112zM397 35q178 0 318 108q139 109 182 275l25 92q-200 55 -396 55t-300 -80t-105 -203q1 -123 81 -185t195 -62zM385 -25q-135 0 -234 77t-100 208
q0 170 128 268t338 98t419 -61l12 39q16 61 17 117q-1 129 -93 198t-244 69t-302 -54l-17 59q125 47 283 54q-55 47 -55 131t68 146q69 62 155 62t139 -49t53 -119t-39 -122q-39 -51 -96 -76q211 -72 211 -293q0 -63 -18 -133l-160 -594h-66l60 219q-160 -244 -459 -244z
" />
    <glyph glyph-name="aringacute.alt" horiz-adv-x="1335" 
d="M532 37q152 0 282 87t202 216t71 254q0 174 -108 288q-109 114 -285 113q-221 0 -368 -176t-148 -397q0 -168 100 -276q102 -108 254 -109zM515 -25q-167 0 -287 125t-119 312q0 256 169 450t412 195q182 -1 295 -101t141 -239l86 315h66l-277 -1032h-65l63 236
q-65 -100 -191 -180t-293 -81zM1038 1422q0 64 -38 102t-104 39t-119 -49q-52 -50 -52 -113q-1 -63 37 -101t105 -38t119 48t52 112zM866 1217q-86 0 -139 50t-53 133t68 145q69 63 155 63t139 -50q54 -50 54 -133t-69 -145t-155 -63zM922 1681l237 211l72 -37l-248 -174
h-61z" />
    <glyph glyph-name="aringacute.alt2" horiz-adv-x="1163" 
d="M588 1181q0 -63 38 -101t104 -38q67 0 119 48t52 113q0 63 -38 101q-39 38 -105 38t-118 -49q-52 -48 -52 -112zM397 35q178 0 318 108q139 109 182 275l25 92q-200 55 -396 55t-300 -80t-105 -203q1 -123 81 -185t195 -62zM385 -25q-135 0 -234 77t-100 208
q0 170 128 268t338 98t419 -61l12 39q16 61 17 117q-1 129 -93 198t-244 69t-302 -54l-17 59q125 47 283 54q-55 47 -55 131t68 146q69 62 155 62t139 -49t53 -119t-39 -122q-39 -51 -96 -76q211 -72 211 -293q0 -63 -18 -133l-160 -594h-66l60 219q-160 -244 -459 -244z
M784 1479l238 211l72 -39l-248 -172h-62z" />
    <glyph glyph-name="atilde.alt" horiz-adv-x="1335" 
d="M731 1405q43 0 130 -53t122 -54q70 0 131 119l43 -10q-72 -174 -182 -174q-43 0 -129 52t-121 52q-74 1 -131 -118l-45 10q72 176 182 176zM532 37q152 0 282 87t202 216t71 254q0 174 -108 288q-109 114 -285 113q-221 0 -368 -176t-148 -397q0 -168 100 -276
q102 -108 254 -109zM515 -25q-167 0 -287 125t-119 312q0 256 169 450t412 195q182 -1 295 -101t141 -239l86 315h66l-277 -1032h-65l63 236q-65 -100 -191 -180t-293 -81z" />
    <glyph glyph-name="three.alt" horiz-adv-x="1189" 
d="M506 -25q-160 0 -295 67t-209 185l59 35q145 -223 449 -223q201 0 326 102q125 101 125 245t-115 225t-295 81h-121l16 64h129q231 0 381 96t150 256q0 127 -104 206t-263 79q-225 0 -405 -154l-43 47q195 170 448 170q191 0 315 -96t124 -254t-122 -258t-317 -129
q133 -31 213 -119t80 -211q0 -172 -148 -293t-378 -121z" />
    <glyph glyph-name="registered.alt" horiz-adv-x="1697" 
d="M688 729h252q100 0 161 44q60 44 60 120v4q0 74 -57 117t-158 43h-258v-328zM629 362v750h321q145 0 215 -74q55 -55 56 -137v-4q-1 -92 -59 -146t-161 -69l250 -320h-75l-242 312h-246v-312h-59zM207 715q1 -289 203 -493t492 -204t493 205t202 492v4q1 289 -201 493
t-493 203q-291 0 -493 -205t-203 -491v-4zM901 -25q-307 0 -523 216t-216 524v4q0 305 217 522t525 217t524 -217t217 -522v-4q-1 -305 -219 -523t-525 -217z" />
    <glyph glyph-name="NUL" horiz-adv-x="0" 
 />
    <glyph glyph-name="hfjslug" horiz-adv-x="1421" 
d="M872 580q-33 0 -32 34q0 12 9 24t23 11q14 0 24 -11t9 -24q0 -34 -33 -34zM997 612h-22v35h22q20 0 21 -16q-1 -19 -21 -19zM659 823q-33 0 -33 45t33 78l41 -80q-16 -43 -41 -43zM645 1056q0 30 29 29q27 -1 27 -35t-31 -69q-25 45 -25 75zM494 662l28 -97h17l22 70h2
l23 -70h16l29 97h-17l-20 -72h-2l-23 72h-14l-23 -72h-2l-20 72h-16zM270 662v-95h17v66l51 -66h14v95h-16v-66l-51 66h-15zM395 662v-95h70v15h-53v26h47v15h-47v24h53v15h-70zM750 567h16v35l37 60h-19l-26 -46l-27 46h-18l37 -60v-35zM872 565q20 1 34 15q33 33 1 68
q-15 16 -35 16t-34 -16t-14 -34q0 -20 14 -34t34 -15zM1034 631q0 31 -35 31h-41v-95h17v31h24l21 -31h18l-24 35q20 8 20 29zM1071 662v-95h16v25l17 16l31 -41h20l-41 54l37 41h-21l-40 -50h-3v50h-16zM729 1047q0 63 -55 63q-25 0 -41 -18q-35 -39 12 -125
q-47 -37 -47 -83q0 -91 59 -89q39 0 60 49h2l24 -49l25 12l-35 65q13 29 27 80l-27 6q-8 -37 -16 -61h-2l-33 64q47 43 47 86zM985 799q63 0 64 73v281h-33v-281q0 -45 -33 -45q-16 0 -41 11v-31q20 -8 43 -8zM377 1153v-352h31v162h96v-162h31v352h-31v-162h-96v162h-31z
M819 1153v-352h31v160h78v28h-78v135h88v29h-119zM1319 -410h-426l-16 29h-334l-17 -29h-424v621q29 0 48 19q18 19 18 46q0 26 -20 46t-46 20v1135h205l62 161h684l59 -161h207v-1887z" />
    <glyph glyph-name="i.dot" horiz-adv-x="475" 
d="M63 0l279 1032h66l-277 -1032h-68zM406 1317l34 125h88l-34 -125h-88z" />
    <glyph glyph-name="caron.alt" 
d="M831 1495v-4l-155 -301h-39l115 305h79z" />
    <glyph glyph-name="acute.cap" 
d="M682 1567l256 219l78 -39l-266 -180h-68z" />
    <glyph glyph-name="hungarumlaut.cap" 
d="M778 1567l258 219l76 -39l-264 -180h-70zM516 1567l256 219l76 -39l-264 -180h-68z" />
    <glyph glyph-name="grave.cap" 
d="M750 1786l139 -219h-49l-166 180z" />
    <glyph glyph-name="circumflex.cap" 
d="M547 1567l270 207h60l159 -207h-63l-137 141l-215 -141h-74z" />
    <glyph glyph-name="caron.cap" 
d="M1092 1774l-269 -207h-59l-162 207h66l137 -142l213 142h74z" />
    <glyph glyph-name="breve.cap" 
d="M792 1565q-114 0 -170 50t-47 134h56q4 -121 172 -121t239 121h60q-36 -84 -116 -134t-194 -50z" />
    <glyph glyph-name="tilde.cap" 
d="M688 1741q43 0 128 -47t120 -47q72 0 131 108l43 -12q-68 -162 -180 -162q-43 0 -129 47t-119 47q-72 1 -131 -108l-45 12q72 162 182 162z" />
    <glyph glyph-name="macron.cap" 
d="M512 1620l18 66h588l-16 -66h-590z" />
    <glyph glyph-name="dieresis.cap" 
d="M586 1589l32 125h109l-33 -125h-108zM903 1589l33 125h106l-32 -125h-107z" />
    <glyph glyph-name="dotaccent.cap" 
d="M743 1589l33 125h109l-33 -125h-109z" />
    <glyph glyph-name="ring.cap" 
d="M680 1738q0 -60 38 -94t105 -34q68 0 123 45t55 105t-37 95q-38 35 -107 35t-123 -46t-54 -106zM861 1935q91 0 143 -46q52 -45 53 -125q0 -80 -73 -140t-165 -59q-92 0 -143 46t-51 126t72 139q73 59 164 59z" />
    </font>
</defs>
</svg>
