<?xml version="1.0" standalone="no"?>
<!DOCTYPE svg PUBLIC "-//W3C//DTD SVG 1.1//EN" "http://www.w3.org/Graphics/SVG/1.1/DTD/svg11.dtd" >
<svg xmlns="http://www.w3.org/2000/svg">
<metadata>
Created by FontPrep 20130207 at Tue Dec  9 01:53:46 2014
 By Alexander Gunnarson
(c) 2008 Microsoft Corporation. All Rights Reserved.
</metadata>
<defs>
<font id="f7cee5eaf81ca6750bedc48055a4dffb" horiz-adv-x='1024' >
  <font-face 
    font-family="Calibri"
    font-weight="400"
    font-stretch="normal"
    units-per-em="2048"
    panose-1="2 15 5 2 2 2 4 3 2 4"
    ascent="1536"
    descent="-512"
    x-height="951"
    cap-height="1294"
    bbox="-1028.16 -497 2540 1974"
    underline-thickness="134"
    underline-position="-165"
    unicode-range="U+0009-FEFF"
  />
<missing-glyph horiz-adv-x="1038" 
d="M398 290.5q0 58.5 66 58.5q53 0 69 -16.5t16 -75.5t-64 -59q-53 0 -70 17t-17 75.5zM285 956q-19 0 -19 42t10 52q18 18 81 37.5t131 19.5q136 0 207.5 -71t71.5 -181q0 -173 -92 -211.5t-143 -41.5l-5 -152q0 -18 -55 -18t-55 18l-5 184q-4 54 50 54h18q158 0 158 159
q0 73 -41.5 116t-127.5 43t-131.5 -25t-52.5 -25zM891 81v1132h-762v-1132h762zM978 1294v-1294h-934v1294h934z" />
    <glyph glyph-name="uniFB00" unicode="ff" horiz-adv-x="1195" 
d="M646 1284q0 -61 -23 -61q-8 0 -42 14.5t-96 14.5q-63 0 -93 -51t-30 -163v-87h404v97q0 270 108 311.5t165 41.5q152 0 164.5 -33.5t12.5 -82.5t-23 -49q-8 0 -45 14t-81 14q-74 0 -104.5 -51t-30.5 -163v-99h201q33 -1 33 -69t-33 -68h-201v-789q0 -31 -83 -31t-83 31
v789h-404v-789q0 -31 -83 -31t-83 31v789h-127q-32 0 -32 68t32 69h127v85q0 271 107.5 312t180.5 41t129 -24q27 -11 30 -36.5t3 -44.5z" />
    <glyph glyph-name="uniFB01" unicode="fi" horiz-adv-x="1084" 
d="M881 951q51 0 51 -51v-875q0 -31 -83 -31t-83 31v789h-404v-789q0 -31 -83 -31t-83 31v789h-127q-32 0 -32 68t32 69h127v97q0 270 106 311.5t151 41.5t67 -2t40 -6t31.5 -8.5t24.5 -15.5t11 -69t-22 -58q-8 0 -34.5 11t-94.5 11q-114 0 -114 -214v-99h519zM929.5 1150
q-20.5 -21 -64.5 -21t-63.5 5t-31 16.5t-16.5 30.5t-5 60t20.5 63.5t65.5 22.5t64.5 -4.5t35 -22t15.5 -73.5t-20.5 -77z" />
    <glyph glyph-name="uniFB02" unicode="fl" horiz-adv-x="1084" 
d="M849 1393q83 0 83 -32v-1336q0 -31 -83 -31t-83 31v1221q-4 -6 -16 -6t-36 5.5t-63.5 11.5t-92.5 6q-111 0 -153.5 -48t-42.5 -166v-98h185q33 -1 33 -69t-33 -68h-185v-789q0 -31 -83 -31t-83 31v789h-127q-32 0 -32 68t32 69h127v96q0 186 85.5 269.5t270.5 83.5
q115 0 162 -14.5t52 -28.5q3 29 30 32.5t53 3.5z" />
    <glyph glyph-name="uniFB03" unicode="ffi" horiz-adv-x="1654" 
d="M1451 951q52 0 52 -51v-875q0 -31 -76 -31t-83 11.5t-7 19.5v789h-405v-789q0 -31 -83 -31t-83 31v789h-404v-789q0 -31 -83 -31t-83 31v789h-127q-32 0 -32 68t32 69h127v85q0 271 107 312t165 41t91 -7.5t52.5 -16t27 -25.5t7.5 -67t-23 -50q-8 0 -42 14.5t-96 14.5
q-63 0 -93 -51t-30 -163v-87h404v97q0 270 106 311.5t151 41.5t67.5 -2t40 -6t31 -8.5t25 -15.5t11.5 -69t-23 -58q-7 0 -35.5 11t-92.5 11q-115 0 -115 -214v-99h519zM1500 1150q-21 -21 -65 -21t-63.5 5t-31 16.5t-16.5 30.5t-5 60t20.5 63.5t65.5 22.5t64.5 -4.5
t35.5 -22t16 -73.5t-21 -77z" />
    <glyph glyph-name="uniFB04" unicode="ffl" horiz-adv-x="1654" 
d="M1088 1401q229 0 249 -44q0 36 83 36t83 -32v-1336q0 -31 -76 -31t-83 11.5t-7 19.5v1222q-6 -6 -18 -6t-35.5 5.5t-63 11.5t-92.5 6q-111 0 -153.5 -49.5t-42.5 -164.5v-99h186q32 -1 32 -69t-32 -68h-186v-789q0 -31 -83 -31t-83 31v789h-404v-789q0 -31 -83 -31
t-83 31v789h-127q-32 0 -32 68t32 69h127v85q0 271 107 312t165 41t91 -7.5t52.5 -16t27 -25.5t7.5 -67t-23 -50q-8 0 -42 14.5t-96 14.5q-63 0 -93 -51t-30 -163v-87h404v97q0 273 131 313t191 40z" />
    <glyph glyph-name="f_b.liga" unicode="fb" horiz-adv-x="1690" 
d="M932 293q137 -170 256 -170t176.5 101.5t57.5 243.5q0 247 -80 303.5t-144 56.5q-129 0 -266 -176v-359zM849 1393q83 0 83 -32v-539q80 80 150 114t158 34q175 0 264.5 -134.5t89.5 -359.5t-100 -360t-286 -135q-85 0 -148.5 34.5t-146.5 119.5v-110q1 -31 -73 -31
t-74 31v1221q-8 -6 -18 -6t-35.5 5.5t-61.5 11.5t-91 6q-113 0 -155.5 -48t-42.5 -166v-98h185q33 -1 33 -69t-33 -68h-185v-789q0 -31 -83 -31t-83 31v789h-127q-32 0 -32 68t32 69h127v96q0 186 85.5 269.5t270.5 83.5q115 0 162 -14.5t52 -28.5q3 29 30 32.5t53 3.5z" />
    <glyph glyph-name="f_f_b.liga" unicode="ffb" horiz-adv-x="2261" 
d="M1089 1401q228 0 248 -44q0 36 83 36t83 -32v-539q144 148 298 148q185 0 274.5 -134.5t89.5 -359.5t-100.5 -360t-286.5 -135q-85 0 -151.5 36.5t-143.5 117.5v-110q0 -17 -26.5 -27t-61 -5t-46.5 10t-12 22v1222q-9 -6 -19 -6t-35.5 5.5t-62 11.5t-90.5 6
q-113 0 -155.5 -49.5t-42.5 -164.5v-99h186q32 -1 32 -69t-32 -68h-186v-789q0 -31 -83 -31t-83 31v789h-404v-789q0 -31 -83 -31t-83 31v789h-127q-32 0 -32 68t32 69h127v85q0 271 107.5 312t180.5 41t129 -24q27 -11 30 -36.5t3 -44.5q0 -61 -23 -61q-8 0 -42 14.5
t-96 14.5q-63 0 -93 -51t-30 -163v-87h404v97q0 273 131.5 313t191.5 40zM1992 468q0 247 -80 303.5t-144 56.5q-131 0 -265 -176v-359q137 -170 256 -170t176 103t57 242z" />
    <glyph glyph-name="f_h.liga" unicode="fh" horiz-adv-x="1691" 
d="M1542 573v-548q0 -31 -75.5 -31t-83 11.5t-7.5 19.5v527q0 275 -190 275q-114 0 -254 -173v-629q0 -31 -83 -31t-83 31v1221q-8 -6 -18 -6t-35.5 5.5t-61.5 11.5t-91 6q-113 0 -155.5 -48t-42.5 -166v-98h185q33 -1 33 -69t-33 -68h-185v-789q0 -31 -83 -31t-83 31v789
h-127q-32 0 -32 68t32 69h127v96q0 186 85.5 269.5t270.5 83.5q115 0 162 -14.5t52 -28.5q3 29 30 32.5t53 3.5q83 0 83 -32v-539q140 148 298 148t235 -103.5t77 -293.5z" />
    <glyph glyph-name="f_f_h.liga" unicode="ffh" horiz-adv-x="2261" 
d="M1791 970q321 0 321 -397v-548q0 -31 -82 -31t-83 31v527q0 275 -191 275q-115 0 -253 -173v-629q0 -31 -76 -31t-83 11.5t-7 19.5v1222q-8 -6 -18 -6t-32.5 5t-62 11.5t-94.5 6.5q-113 0 -155.5 -49.5t-42.5 -164.5v-99h186q32 -1 32 -69t-32 -68h-186v-789
q0 -31 -83 -31t-83 31v789h-404v-789q0 -31 -83 -31t-83 31v789h-127q-32 0 -32 68t32 69h127v85q0 271 107.5 312t180.5 41t129 -24q27 -11 30 -36.5t3 -44.5q0 -61 -23 -61q-8 0 -42 14.5t-96 14.5q-63 0 -93 -51t-30 -163v-87h404v97q0 273 131.5 313t191.5 40
q228 0 248 -44q0 36 83 36t83 -32v-539q140 148 288 148z" />
    <glyph glyph-name="f_igrave.liga" unicode="f&#xec;" horiz-adv-x="1084" 
d="M929 1106q0 -16 -57 -16t-66.5 10.5t-14.5 20.5l-130 233q-19 32 15.5 39t60.5 7q50 0 64.5 -6t26.5 -30l97 -232q4 -10 4 -26zM881 951q51 0 51 -51v-875q0 -31 -83 -31t-83 31v789h-404v-789q0 -31 -83 -31t-83 31v789h-127q-32 0 -32 68t32 69h127v112q0 337 271 337
q118 0 129 -31t11 -79t-23 -48q-7 0 -38.5 10.5t-66.5 10.5q-62 0 -89.5 -48.5t-27.5 -149.5v-114h519z" />
    <glyph glyph-name="f_iacute.liga" unicode="f&#xed;" horiz-adv-x="1084" 
d="M881 951q51 0 51 -51v-875q0 -31 -83 -31t-83 31v789h-404v-789q0 -31 -83 -31t-83 31v789h-127q-32 0 -32 68t32 69h127v96q0 271 162 333q54 20 108 20q55 0 88 -6t50 -14q26 -11 33 -31q7 -19 7 -66q0 -48 -23 -48q-7 0 -18 4q-66 24 -107 24q-74 0 -104 -51t-30 -163
v-98h519zM1098 1388q14 -13 -3 -33l-181 -233q-22 -27 -43 -30q-22 -2 -43 -2q-40 0 -51 10t3 33l145 231q16 30 48 33q31 4 71 4t54 -13z" />
    <glyph glyph-name="f_icircumflex.liga" unicode="f&#xee;" horiz-adv-x="1084" 
d="M625 1148l153 226q16 22 42 23.5t48 1.5q44 0 60.5 -5.5t27.5 -19.5l156 -229q20 -33 11 -44.5t-43 -11.5q-56 0 -68 5.5t-24 23.5l-122 181l-123 -181q-14 -26 -36.5 -27.5t-55.5 -1.5q-67 0 -26 59zM881 951q51 0 51 -51v-875q0 -31 -83 -31t-83 31v789h-404v-789
q0 -31 -83 -31t-83 31v789h-127q-32 0 -32 68t32 69h127v112q0 337 271 337q116 0 127.5 -29.5t11.5 -77.5q0 -49 -23 -49q-8 0 -38 10.5t-79 10.5q-104 0 -104 -198v-116h519z" />
    <glyph glyph-name="f_itilde.liga" unicode="f&#x129;" horiz-adv-x="1103" 
d="M694 1101q0 -27 -42 -27t-56 8t-14 34q0 100 45 159t113 59t102.5 -24.5t52 -41.5t43 -41.5t48.5 -24.5q57 0 57 105q1 27 43 27t55 -8t13 -48q0 -91 -46.5 -147.5t-108.5 -56.5t-96 20.5t-60 45.5t-47.5 45.5t-44.5 20.5q-57 0 -57 -105zM900 951q51 0 51 -51v-875
q0 -31 -75.5 -31t-83 11.5t-7.5 19.5v789h-423v-789q0 -31 -83 -31t-83 31v789h-127q-32 0 -32 68t32 69h127v117q0 332 268 332q110 0 120 -26.5t10 -76.5t-22 -50q-7 0 -34.5 7.5t-61.5 7.5q-61 0 -87.5 -48t-26.5 -149v-114h538z" />
    <glyph glyph-name="f_idieresis.liga" unicode="f&#xef;" horiz-adv-x="1103" 
d="M935 1228q0 54 19.5 74t57.5 20t55 -4.5t27 -15.5t14.5 -29t4.5 -58t-19 -61t-57 -21q-37 0 -54.5 5t-32.5 20.5t-15 69.5zM646 1228q0 27 4.5 45t15 29t28 15.5t42.5 4.5t42 -4.5t27.5 -15.5t15 -29t4.5 -45t-4.5 -45t-15 -29t-27.5 -16t-42 -5t-42.5 5t-28 16t-15 29
t-4.5 45zM900 951q51 0 51 -51v-875q0 -31 -75.5 -31t-83 11.5t-7.5 19.5v789h-423v-789q0 -31 -83 -31t-83 31v789h-127q-32 0 -32 68t32 69h127v117q0 332 268 332q110 0 120 -26.5t10 -76.5t-22 -50q-7 0 -34.5 7.5t-61.5 7.5q-61 0 -87.5 -48t-26.5 -149v-114h538z" />
    <glyph glyph-name="f_imacron.liga" unicode="f&#x12b;" horiz-adv-x="1103" 
d="M659 1164q-33 0 -33 64t33 65h428q31 -1 31 -65t-31 -64h-428zM900 951q51 0 51 -51v-875q0 -31 -75.5 -31t-83 11.5t-7.5 19.5v789h-423v-789q0 -31 -83 -31t-83 31v789h-127q-32 0 -32 68t32 69h127v117q0 332 268 332q110 0 120 -26.5t10 -76.5t-22 -50
q-7 0 -34.5 7.5t-61.5 7.5q-61 0 -88 -48t-26 -149v-114h538z" />
    <glyph glyph-name="f_ibreve.liga" unicode="f&#x12d;" horiz-adv-x="1103" 
d="M1046 1385q47 0 58 -6t11 -22q0 -271 -243 -271q-189 0 -216 102t-27 166q1 31 53 31t57.5 -10.5t6.5 -32.5q6 -139 126 -140q119 0 127 154q0 29 47 29zM900 951q51 0 51 -51v-875q0 -31 -75.5 -31t-83 11.5t-7.5 19.5v789h-423v-789q0 -31 -83 -31t-83 31v789h-127
q-32 0 -32 68t32 69h127v117q0 332 268 332q110 0 120 -26.5t10 -76.5t-22 -50q-7 0 -34.5 7.5t-61.5 7.5q-61 0 -87.5 -48t-26.5 -149v-114h538z" />
    <glyph glyph-name="f_iogonek.liga" unicode="f&#x12f;" horiz-adv-x="1084" 
d="M841 -365q-210 0 -210 150q0 57 26 94.5t52 63.5l57 57v814h-404v-789q0 -31 -83 -31t-83 31v789h-127q-32 0 -32 68t32 69h127v97q0 270 106 311.5t151 41.5t67 -2t40 -6t31.5 -8.5t24.5 -15.5t11 -69t-22 -58q-8 0 -34.5 11t-94.5 11q-116 0 -114 -214v-99h519
q51 0 51 -51v-875q0 -35 -20 -57l-73 -73q-39 -39 -43.5 -58t-4.5 -28q0 -52 73 -52h108q28 0 28 -45.5t-36.5 -61t-122.5 -15.5zM929.5 1150q-20.5 -21 -64.5 -21t-63.5 5t-31 16.5t-16.5 30.5t-5 60t20.5 63.5t65.5 22.5t64.5 -4.5t35 -22t15.5 -73.5t-20.5 -77z" />
    <glyph glyph-name="f_dotlessi.liga" unicode="f&#x131;" horiz-adv-x="1084" 
d="M881 951q51 0 51 -51v-875q0 -31 -83 -31t-83 31v789h-404v-789q0 -31 -83 -31t-83 31v789h-127q-32 0 -32 68t32 69h127v96q0 271 107.5 312t162.5 41t88 -6.5t54.5 -16t28.5 -28.5t7 -66q0 -48 -23 -48q-7 0 -45.5 14t-79.5 14q-74 0 -104 -51t-30 -163v-98h519z" />
    <glyph glyph-name="f_f_igrave.liga" unicode="ff&#xec;" horiz-adv-x="1654" 
d="M1385 1095.5q-13 5.5 -23 25.5l-131 233q-11 22 7 34t56 12q63 0 79 -7t25 -29l97 -232q7 -24 -3.5 -33t-52.5 -9q-41 0 -54 5.5zM1451 951q52 0 52 -51v-875q0 -31 -76 -31t-83 11.5t-7 19.5v789h-405v-789q0 -31 -83 -31t-83 31v789h-404v-789q0 -31 -83 -31t-83 31
v789h-127q-32 0 -32 68t32 69h127v85q0 271 107 312t165 41t91 -7.5t52.5 -16t27 -25.5t7.5 -67t-23 -50q-8 0 -42 14.5t-96 14.5q-63 0 -93 -51t-30 -163v-87h404v113q0 337 271 337q118 0 129 -31t11 -79t-22 -48q-8 0 -37.5 10.5t-79.5 10.5q-106 0 -106 -198v-115h519z
" />
    <glyph glyph-name="f_f_iacute.liga" unicode="ff&#xed;" horiz-adv-x="1654" 
d="M1451 951q52 0 52 -51v-875q0 -31 -76 -31q-77 0 -87 18q-4 6 -3 13v789h-405v-789q0 -31 -83 -31t-83 31v789h-404v-789q0 -31 -83 -31t-83 31v789h-127q-32 0 -32 68t32 69h127v85q0 270 162 332q54 20 110 21q56 0 90 -7t50 -14q24 -11 31 -28t7 -67t-23 -50
q-9 1 -19 5q-57 25 -119 24q-63 0 -93 -51t-30 -163v-87h404v97q0 270 162 332q54 20 110 21t90 -7t48 -14q25 -11 32 -29q6 -17 6 -66t-23 -49q-7 0 -17 4q-63 24 -122 24q-120 0 -120 -214v-99h519zM1668 1388q14 -13 -3 -33l-181 -233q-22 -27 -43 -30q-22 -2 -43 -2
q-40 0 -51 10t3 33l145 231q16 30 48 33q31 4 71 4t54 -13z" />
    <glyph glyph-name="f_f_icircumflex.liga" unicode="ff&#xee;" horiz-adv-x="1654" 
d="M1195 1148l153 226q13 21 40.5 23t49.5 2q44 0 60.5 -5.5t27.5 -19.5l156 -229q21 -33 12 -44.5t-43 -11.5q-55 0 -67.5 5.5t-24.5 23.5l-122 181l-123 -181q-17 -26 -38 -27.5t-54 -1.5q-68 0 -27 59zM1451 951q52 0 52 -51v-875q0 -31 -76 -31t-83 11.5t-7 19.5v789
h-405v-789q0 -31 -83 -31t-83 31v789h-404v-789q0 -31 -83 -31t-83 31v789h-127q-32 0 -32 68t32 69h127v85q0 271 107 312t165 41t91 -7.5t52.5 -16t27 -25.5t7.5 -67t-23 -50q-8 0 -42 14.5t-96 14.5q-63 0 -93 -51t-30 -163v-87h404v113q0 337 271 337q116 0 127.5 -29.5
t11.5 -77.5q0 -49 -22 -49q-7 0 -37 10t-80 10q-105 0 -105 -197v-117h519z" />
    <glyph glyph-name="f_f_itilde.liga" unicode="ff&#x129;" horiz-adv-x="1673" 
d="M1265 1101q-1 -27 -43 -27t-55.5 8t-13.5 34q0 100 45 159t123 59t95 -16l66 -66q49 -50 75 -50q56 0 56 105q0 27 43 27t56 -8t13 -48q0 -89 -46 -146.5t-109 -57.5t-96.5 20.5t-60 45.5t-47.5 45.5t-44 20.5q-57 0 -57 -105zM1470 951q51 0 51 -51v-875q0 -31 -83 -31
t-83 31v789h-423v-789q0 -31 -83 -31t-83 31v789h-404v-789q0 -31 -83 -31t-83 31v789h-127q-32 0 -32 68t32 69h127v85q0 271 107 312t165 41t91 -7.5t52.5 -16t27 -25.5t7.5 -67t-23 -50q-8 0 -42 14.5t-96 14.5q-63 0 -93 -51t-30 -163v-87h404v118q0 332 268 332
q110 0 120 -26.5t10 -76.5t-21 -50q-9 0 -35 7.5t-61 7.5q-61 0 -88 -48t-27 -149v-115h538z" />
    <glyph glyph-name="f_f_idieresis.liga" unicode="ff&#xef;" horiz-adv-x="1673" 
d="M1506 1228q0 54 19.5 74t56.5 20q38 0 55 -4.5t27.5 -15.5t15 -29t4.5 -58.5t-20 -61t-57 -20.5q-38 0 -54.5 5t-31.5 20.5t-15 69.5zM1217 1228q0 27 4.5 45t15 29t27.5 15.5t42 4.5t42.5 -4.5t28 -15.5t14.5 -29t4 -45t-4 -45t-14.5 -29t-28 -16t-42.5 -5t-42 5
t-27.5 16t-15 29t-4.5 45zM1470 951q51 0 51 -51v-875q0 -31 -83 -31t-83 31v789h-423v-789q0 -31 -83 -31t-83 31v789h-404v-789q0 -31 -83 -31t-83 31v789h-127q-32 0 -32 68t32 69h127v85q0 271 107 312t165 41t91 -7.5t52.5 -16t27 -25.5t7.5 -67t-23 -50q-8 0 -42 14.5
t-96 14.5q-63 0 -93 -51t-30 -163v-87h404v118q0 332 268 332q110 0 120 -26.5t10 -76.5t-21 -50q-9 0 -35 7.5t-61 7.5q-61 0 -88 -48t-27 -149v-115h538z" />
    <glyph glyph-name="f_f_imacron.liga" unicode="ff&#x12b;" horiz-adv-x="1673" 
d="M1230 1164q-33 0 -33 64t33 65h428q31 -1 31 -65t-31 -64h-428zM1470 951q51 0 51 -51v-875q0 -31 -83 -31t-83 31v789h-423v-789q0 -31 -83 -31t-83 31v789h-404v-789q0 -31 -83 -31t-83 31v789h-127q-32 0 -32 68t32 69h127v85q0 271 107 312t165 41t91 -7.5t52.5 -16
t27 -25.5t7.5 -67t-23 -50q-8 0 -42 14.5t-96 14.5q-63 0 -93 -51t-30 -163v-87h404v118q0 332 268 332q110 0 120 -26.5t10 -76.5t-21 -50q-9 0 -35 7.5t-61 7.5q-61 0 -88 -48t-27 -149v-115h538z" />
    <glyph glyph-name="f_f_ibreve.liga" unicode="ff&#x12d;" horiz-adv-x="1673" 
d="M1685 1357q0 -271 -243 -271q-189 0 -216 102t-27 138t2.5 42t12 11.5t43.5 5.5t45.5 -6.5t13.5 -32.5q8 -144 122 -144q123 0 131 154q2 29 55 29t57 -10t4 -18zM1470 951q51 0 51 -51v-875q0 -31 -83 -31t-83 31v789h-423v-789q0 -31 -83 -31t-83 31v789h-404v-789
q0 -31 -83 -31t-83 31v789h-127q-32 0 -32 68t32 69h127v85q0 271 107 312t165 41t91 -7.5t52.5 -16t27 -25.5t7.5 -67t-23 -50q-8 0 -42 14.5t-96 14.5q-63 0 -93 -51t-30 -163v-87h404v118q0 332 268 332q110 0 120 -26.5t10 -76.5t-21 -50q-9 0 -35 7.5t-61 7.5
q-61 0 -88 -48t-27 -149v-115h538z" />
    <glyph glyph-name="f_f_iogonek.liga" unicode="ff&#x12f;" horiz-adv-x="1654" 
d="M1412 -365q-211 0 -211 150q0 58 26.5 95t52.5 63l57 57v814h-405v-789q0 -31 -83 -31t-83 31v789h-404v-789q0 -31 -83 -31t-83 31v789h-127q-32 0 -32 68t32 69h127v85q0 271 107 312t165 41t91 -7.5t52.5 -16t27 -25.5t7.5 -67t-23 -50q-8 0 -42 14.5t-96 14.5
q-63 0 -93 -51t-30 -163v-87h404v97q0 270 106 311.5t151 41.5t67.5 -2t40 -6t31 -8.5t25 -15.5t11.5 -69t-23 -58q-7 0 -35.5 11t-92.5 11q-115 0 -115 -214v-99h519q52 0 52 -51v-875q0 -34 -21 -57l-73 -73q-48 -46 -48 -86q0 -52 74 -52h107q28 0 28 -45t-34 -61
t-124 -16zM1500 1150q-21 -21 -65 -21t-63.5 5t-31 16.5t-16.5 30.5t-5 60t20.5 63.5t65.5 22.5t64.5 -4.5t35.5 -22t16 -73.5t-21 -77z" />
    <glyph glyph-name="f_f_dotlessi.liga" unicode="ff&#x131;" horiz-adv-x="1654" 
d="M1451 951q52 0 52 -51v-875q0 -31 -76 -31t-83 11.5t-7 19.5v789h-405v-789q0 -31 -83 -31t-83 31v789h-404v-789q0 -31 -83 -31t-83 31v789h-127q-32 0 -32 68t32 69h127v85q0 271 108 312t164 41t90 -7t54 -16t27 -26t7 -67t-23 -50q-8 0 -42 14.5t-96 14.5
q-63 0 -93 -51t-30 -163v-87h404v97q0 270 108 311.5t164 41.5t90 -7.5t53.5 -16.5t26 -26t6.5 -66t-23 -49q-7 0 -44 14t-95 14q-120 0 -120 -214v-99h519z" />
    <glyph glyph-name="f_j.liga" unicode="fj" horiz-adv-x="1084" 
d="M881 951q51 0 51 -51v-928q0 -175 -60.5 -256t-195.5 -81t-147.5 27.5t-12.5 79.5t26 53q9 0 35.5 -9.5t62.5 -9.5q69 0 97.5 43.5t28.5 166.5v828h-404v-789q0 -31 -83 -31t-83 31v789h-127q-32 0 -32 68t32 69h127v97q0 270 106 311.5t151 41.5t67 -2t40 -6t31.5 -8.5
t24.5 -15.5t11 -69t-22 -58q-8 0 -34.5 11t-94.5 11q-114 0 -114 -214v-99h519zM929.5 1150q-20.5 -21 -64.5 -21t-63.5 5t-31 16.5t-16.5 30.5t-5 60t20.5 63.5t65.5 22.5t64.5 -4.5t35 -22t15.5 -73.5t-20.5 -77z" />
    <glyph glyph-name="f_jcircumflex.liga" unicode="f&#x135;" horiz-adv-x="1084" 
d="M625 1148l153 226q16 22 42 23.5t48 1.5q44 0 60.5 -5.5t27.5 -19.5l156 -229q20 -33 11 -44.5t-43 -11.5q-56 0 -68 5.5t-24 23.5l-122 181l-123 -181q-14 -26 -36.5 -27.5t-55.5 -1.5q-67 0 -26 59zM881 951q51 0 51 -51v-948q0 -155 -60.5 -236t-195.5 -81
t-147.5 27.5t-12.5 79.5t26 53q9 0 35 -9.5t63 -9.5q70 0 98 43.5t28 146.5v848h-404v-789q0 -31 -83 -31t-83 31v789h-127q-32 0 -32 68t32 69h127v112q0 337 271 337q116 0 127.5 -29.5t11.5 -77.5q0 -49 -23 -49q-7 0 -38.5 10.5t-66.5 10.5q-61 0 -88.5 -48.5
t-27.5 -149.5v-116h519z" />
    <glyph glyph-name="f_f_j.liga" unicode="ffj" horiz-adv-x="1654" 
d="M623 1223q-8 0 -42 14.5t-96 14.5q-63 0 -93 -51t-30 -163v-87h404v97q0 270 106 311.5t152 41.5t68 -2t40 -6t30.5 -8.5t23.5 -15.5t11 -69t-23 -58q-7 0 -33.5 11t-93.5 11q-115 0 -115 -214v-99h519q52 0 52 -51v-948q0 -155 -60.5 -236t-196.5 -81
q-135 0 -147.5 27.5t-12.5 79.5t26 53q9 0 16.5 -3t29 -9.5t55.5 -6.5q66 0 95 43t29 147v848h-405v-789q0 -31 -83 -31t-83 31v789h-404v-789q0 -31 -83 -31t-83 31v789h-127q-32 0 -32 68t32 69h127v85q0 271 107 312t165 41t91 -7.5t52.5 -16t27 -25.5t7.5 -67t-23 -50z
M1500 1150q-21 -21 -65 -21t-63.5 5t-31 16.5t-16.5 30.5t-5 60t20.5 63.5t65.5 22.5t64.5 -4.5t35.5 -22t16 -73.5t-21 -77z" />
    <glyph glyph-name="f_k.liga" unicode="fk" horiz-adv-x="1545" 
d="M69 814q-32 0 -32 68t32 69h127v96q0 186 85.5 269.5t270.5 83.5q115 0 162 -14.5t52 -28.5q3 29 30 32.5t53 3.5q83 0 83 -32v-814l341 374q21 29 52 32t56 3q90 0 90 -30q0 -21 -29 -52l-327 -326l368 -475q22 -31 22 -47q0 -32 -80.5 -32t-94 11.5t-19.5 20.5
l-379 498v-499q0 -31 -83 -31t-83 31v1221q-4 -6 -16 -6t-36 5.5t-63.5 11.5t-92.5 6q-111 0 -153.5 -48t-42.5 -166v-98h185q33 -1 33 -69t-33 -68h-185v-789q0 -31 -83 -31t-83 31v789h-127z" />
    <glyph glyph-name="f_f_k.liga" unicode="ffk" horiz-adv-x="2115" 
d="M1089 1401q233 0 248 -44q0 36 83 36t83 -32v-814l340 374q21 29 52.5 32t56.5 3q89 0 89 -30q0 -20 -28 -52l-327 -326l367 -475q23 -33 23 -47q0 -32 -81 -32t-94 11.5t-19 20.5l-379 498v-499q0 -31 -76 -31t-83 11.5t-7 19.5v1222q-5 -6 -17 -6t-35.5 5.5t-63.5 11.5
t-92 6q-111 0 -154 -49.5t-43 -164.5v-99h186q32 -1 32 -69t-32 -68h-186v-789q0 -31 -83 -31t-83 31v789h-404v-789q0 -31 -83 -31t-83 31v789h-127q-32 0 -32 68t32 69h127v85q0 271 107 312t165 41t91 -7.5t52.5 -16t27 -25.5t7.5 -67t-23 -50q-8 0 -42 14.5t-96 14.5
q-63 0 -93 -51t-30 -163v-87h404v96q0 274 131.5 314t191.5 40z" />
    <glyph glyph-name="f_lacute.liga" unicode="f&#x13a;" horiz-adv-x="1084" 
d="M849 1393q83 0 83 -32v-1336q0 -31 -83 -31t-83 31v1221q-4 -6 -16 -6t-36 6t-64 11q-40 6 -92 6q-111 0 -153 -48q-43 -48 -43 -166v-98h185q33 -1 33 -69t-33 -68h-185v-789q0 -31 -83 -31t-83 31v789h-127q-32 0 -32 68t32 69h127v96q0 185 86 269q85 84 270 84
q115 0 162 -14t52 -29q3 29 41 34q16 2 42 2zM1176 1744q14 -14 -5 -37l-227 -212q-26 -26 -52 -28q-26 -3 -48 -3q-43 0 -53 11t8 32l189 213q27 32 61 35q33 3 73 3t54 -14z" />
    <glyph glyph-name="f_lcaron.liga" unicode="f&#x13e;" horiz-adv-x="1155" 
d="M849 1393q83 0 83 -32v-1336q0 -31 -83 -31t-83 31v1221q-4 -6 -16 -6t-36 6t-64 11q-40 6 -92 6q-111 0 -153 -48q-43 -48 -43 -166v-98h185q33 -1 33 -69t-33 -68h-185v-789q0 -31 -83 -31t-83 31v789h-127q-32 0 -32 68t32 69h127v96q0 185 86 269q85 84 270 84
q115 0 162 -14t52 -29q3 29 41 34q16 2 42 2zM1004 1033q-8 8 -4 23l92 305q11 36 91 36q42 0 54 -8t5 -29l-125 -312q-6 -19 -30 -21q-25 -2 -50 -2t-33 8z" />
    <glyph glyph-name="f_uni013C.liga" unicode="f&#x13c;" horiz-adv-x="1084" 
d="M849 1393q83 0 83 -32v-1336q0 -31 -83 -31t-83 31v1221q-4 -6 -16 -6t-36 6t-64 11q-40 6 -92 6q-111 0 -153 -48q-43 -48 -43 -166v-98h185q33 -1 33 -69t-33 -68h-185v-789q0 -31 -83 -31t-83 31v789h-127q-32 0 -32 68t32 69h127v96q0 185 86 269q85 84 270 84
q115 0 162 -14t52 -29q3 29 41 34q16 2 42 2zM695 -357q-8 8 -2 34l66 202q6 23 27 30q21 8 82 8q60 -1 58 -29q0 -8 -5 -19l-97 -203q-12 -31 -67 -31q-54 0 -62 8z" />
    <glyph glyph-name="f_t.liga" unicode="ft" horiz-adv-x="1261" 
d="M1173 152q23 0 23 -45t-4.5 -62t-17 -30t-92.5 -30.5t-197.5 26t-117.5 277.5v526h-405v-789q0 -31 -83 -31t-83 31v789h-127q-32 0 -32 68t32 69h127v93q0 275 107 315.5t163 40.5t91 -7.5t54.5 -16t26 -26t6.5 -67t-22 -49.5q-8 0 -18 4.5t-37.5 14.5t-67.5 10
q-76 0 -107 -49.5t-31 -164.5v-98h406v214q1 32 83 32t82 -32v-214h230q34 -1 34 -69t-33 -68h-231v-502q0 -93 27 -140.5t84 -47.5t90 14t40 14z" />
    <glyph glyph-name="f_uni021B.liga" unicode="f&#x21b;" horiz-adv-x="1261" 
d="M1173 152q23 0 23 -45t-4 -62t-13 -25q-19 -18 -59 -26q-119 -26 -214 9q-139 51 -139 285v526h-405v-789q0 -31 -83 -31t-83 31v789h-127q-32 0 -32 68t32 69h127v93q0 276 160 336q54 20 110 20t91 -8t50 -14q25 -10 31 -28t6 -67t-22 -49q-8 0 -18 4t-37 15
q-27 10 -68 10q-76 1 -107 -49q-31 -49 -31 -165v-98h406v214q1 32 83 32t82 -32v-214h230q34 -1 34 -69t-33 -68h-231v-502q0 -92 27 -140t84 -48t90 14t40 14zM831 -357q-8 8 -2 34l66 202q6 23 27 30q21 8 82 8q60 -1 58 -29q0 -8 -5 -19l-97 -203q-12 -31 -67 -31
q-54 0 -62 8z" />
    <glyph glyph-name="f_tcaron.liga" unicode="f&#x165;" horiz-adv-x="1299" 
d="M1173 152q23 0 23 -45t-4 -62t-13 -25q-19 -18 -59 -26q-119 -26 -214 9q-139 51 -139 285v526h-405v-789q0 -31 -83 -31t-83 31v789h-127q-32 0 -32 68t32 69h127v93q0 276 160 336q54 20 110 20t91 -8t50 -14q25 -10 31 -28t6 -67t-22 -49q-8 0 -18 4t-37 15
q-27 10 -68 10q-76 1 -107 -49q-31 -49 -31 -165v-98h406v214q1 32 83 32t82 -32v-214h230q34 -1 34 -69t-33 -68h-231v-502q0 -92 27 -140t84 -48t90 14t40 14zM1061 1111q-8 8 -4 23l92 305q11 36 91 36q42 0 54 -8t5 -29l-125 -312q-6 -19 -30 -21q-25 -2 -50 -2t-33 8z
" />
    <glyph glyph-name="f_f_t.liga" unicode="fft" horiz-adv-x="1832" 
d="M1194 1236q-10 0 -20 4t-36.5 14t-66.5 10q-78 0 -109 -49.5t-31 -164.5v-99h406v214q0 32 83 32t83 -32v-214h230q34 -1 34 -69t-34 -68h-230v-502q0 -93 27 -140.5t85 -47.5t89.5 14t38.5 14q24 0 24 -45t-4.5 -62t-17 -29.5t-92.5 -30t-198 26t-118 276.5v526h-405
v-789q0 -31 -83 -31t-83 31v789h-404v-789q0 -31 -83 -31t-83 31v789h-127q-32 0 -32 68t32 69h127v82q0 275 108 315.5t164 40.5t90.5 -7.5t53.5 -16t26.5 -25.5t7.5 -67t-23 -50q-7 0 -17.5 4.5t-38 14.5t-67.5 10q-77 0 -107.5 -48.5t-30.5 -165.5v-87h404v94
q0 275 108 315.5t162 40.5t87.5 -7t51 -14t24 -13t11.5 -19.5t5 -62.5t-21 -49z" />
    <glyph glyph-name="t_f.liga" unicode="tf" horiz-adv-x="1254" 
d="M192 1165q0 32 82 32t83 -32v-214h469v93q0 275 108 315.5t162 40.5t87 -6.5t55 -16t29.5 -26.5t7.5 -67t-22 -50q-8 0 -42.5 14.5t-77.5 14.5q-80 0 -111 -49.5t-31 -164.5v-98h201q34 -1 34 -69t-33 -68h-202v-789q0 -31 -75 -31t-82.5 11.5t-7.5 19.5v789h-469v-502
q0 -93 27.5 -140.5t85.5 -47.5t89 14t39 14q23 0 23 -45t-4 -61.5t-25.5 -39.5t-150.5 -23q-124 0 -186.5 73t-62.5 232v526h-126q-33 0 -33 68t34 69h125v214z" />
    <glyph glyph-name="t_i.liga" unicode="ti" horiz-adv-x="1141" 
d="M192 1165q0 32 82 32t83 -32v-214h579q30 1 41 -13t11 -40v-873q0 -31 -83 -31t-83 31v789h-465v-502q-1 -92 27 -140t86 -48t89 14t39 14q23 0 23 -45t-4 -61t-12 -26q-35 -37 -164 -37q-124 0 -187 73q-62 73 -62 232v526h-126q-33 0 -33 68t34 69h125v214zM1007 1228
q0 -58 -22 -78q-23 -21 -81 -21q-58 1 -80 21t-21 78q0 58 22 78q23 21 81 21q58 -1 80 -21t21 -78z" />
    <glyph glyph-name="t_igrave.liga" unicode="t&#xec;" horiz-adv-x="1141" 
d="M192 1165q0 32 82 32t83 -32v-214h579q30 1 41 -13t11 -40v-873q0 -31 -83 -31t-83 31v789h-465v-502q-1 -92 27 -140t86 -48t89 14t39 14q23 0 23 -45t-4 -61t-12 -26q-35 -37 -164 -37q-124 0 -187 73q-62 73 -62 232v526h-126q-33 0 -33 68t34 69h125v214zM860 1097
q-17 6 -31 26l-181 233q-28 32 22 42q18 4 43 4q48 0 68 -7t37 -30l144 -231q15 -23 7 -30q-14 -13 -53 -13t-56 6z" />
    <glyph glyph-name="t_iacute.liga" unicode="t&#xed;" horiz-adv-x="1141" 
d="M192 1165q0 32 82 32t83 -32v-214h579q30 1 41 -13t11 -40v-873q0 -31 -83 -31t-83 31v789h-465v-502q-1 -92 27 -140t86 -48t89 14t39 14q23 0 23 -45t-4 -61t-12 -26q-35 -37 -164 -37q-124 0 -187 73q-62 73 -62 232v526h-126q-33 0 -33 68t34 69h125v214zM1147 1389
q14 -13 -3 -33l-181 -233q-22 -27 -43 -30q-22 -2 -43 -2q-40 0 -51 10t3 33l145 231q16 30 48 33q31 4 71 4t54 -13z" />
    <glyph glyph-name="t_icircumflex.liga" unicode="t&#xee;" horiz-adv-x="1141" 
d="M192 1165q0 32 82 32t83 -32v-214h579q30 1 41 -13t11 -40v-873q0 -31 -83 -31t-83 31v789h-465v-502q-1 -92 27 -140t86 -48t89 14t39 14q23 0 23 -45t-4 -61t-12 -26q-35 -37 -164 -37q-124 0 -187 73q-62 73 -62 232v526h-126q-33 0 -33 68t34 69h125v214zM639 1147
l165 229q13 20 42 23q28 3 50 3q69 0 88 -26l165 -229q41 -56 -31 -56q-53 0 -65 5t-29 25l-130 180l-130 -180q-15 -25 -37 -27q-23 -3 -58 -3q-75 0 -30 56z" />
    <glyph glyph-name="t_idieresis.liga" unicode="t&#xef;" horiz-adv-x="1141" 
d="M192 1165q0 32 82 32t83 -32v-214h579q30 1 41 -13t11 -40v-873q0 -31 -83 -31t-83 31v789h-465v-502q-1 -92 27 -140t86 -48t89 14t39 14q23 0 23 -45t-4 -61t-12 -26q-35 -37 -164 -37q-124 0 -187 73q-62 73 -62 232v526h-126q-33 0 -33 68t34 69h125v214zM1146 1216
q0 -54 -20 -74t-72 -20t-71 20t-19 73q0 55 20 75t71 20t71 -20t20 -74zM835 1216q0 -54 -20 -74t-72 -20t-71 20t-19 73q-1 55 19 75t72 20t72 -20t19 -74z" />
    <glyph glyph-name="t_imacron.liga" unicode="t&#x12b;" horiz-adv-x="1141" 
d="M192 1165q0 32 82 32t83 -32v-214h579q30 1 41 -13t11 -40v-873q0 -31 -83 -31t-83 31v789h-465v-502q-1 -92 27 -140t86 -48t89 14t39 14q23 0 23 -45t-4 -61t-12 -26q-35 -37 -164 -37q-124 0 -187 73q-62 73 -62 232v526h-126q-33 0 -33 68t34 69h125v214zM658 1164
q-33 0 -33 64t33 65h479q32 -1 32 -65t-32 -64h-479z" />
    <glyph glyph-name="t_itilde.liga" unicode="t&#x129;" horiz-adv-x="1141" 
d="M192 1165q0 32 82 32t83 -32v-214h579q30 1 41 -13t11 -40v-873q0 -31 -83 -31t-83 31v789h-465v-502q-1 -92 27 -140t86 -48t89 14t39 14q23 0 23 -45t-4 -61t-12 -26q-35 -37 -164 -37q-124 0 -187 73q-62 73 -62 232v526h-126q-33 0 -33 68t34 69h125v214zM1026 1223
q73 0 73 105q1 16 11 22t46 5q36 1 48 -7t12 -34q0 -106 -52 -162t-129 -56t-116 24t-59 42t-52 42t-67 24q-72 0 -72 -106q0 -16 -11 -21t-38 -5q-46 0 -57 8q-12 8 -12 34q0 99 50 158t136 59q87 1 171 -65q32 -24 58 -46q28 -21 60 -21z" />
    <glyph glyph-name="t_ibreve.liga" unicode="t&#x12d;" horiz-adv-x="1141" 
d="M192 1165q0 32 82 32t83 -32v-214h579q30 1 41 -13t11 -40v-873q0 -31 -83 -31t-83 31v789h-465v-502q-1 -92 27 -140t86 -48t89 14t39 14q23 0 23 -45t-4 -61t-12 -26q-35 -37 -164 -37q-124 0 -187 73q-62 73 -62 232v526h-126q-33 0 -33 68t34 69h125v214zM1039 1365
q0 30 54 30q53 1 61 -15q2 -6 3 -13q0 -271 -258 -271t-258 268q0 31 59 31t59 -30q7 -75 30 -103q41 -49 109 -49q134 0 141 152z" />
    <glyph glyph-name="t_iogonek.liga" unicode="t&#x12f;" horiz-adv-x="1141" 
d="M985 1150q-21 -21 -65 -21t-63.5 5t-31.5 16.5t-16.5 30.5t-4.5 61t21 63.5t65 21.5q45 0 64.5 -4.5t35.5 -22t16 -73.5t-21 -77zM897 -365q-210 0 -210 150q0 57 26 94.5t52 63.5l57 57v814h-465v-502q0 -93 27.5 -140.5t85.5 -47.5t89 14t39 14q23 0 23 -45t-4 -61.5
t-25.5 -39.5t-150.5 -23q-124 0 -186.5 73t-62.5 232v526h-126q-33 0 -33 68t34 69h125v214q0 32 82 32t83 -32v-214h576q32 0 43.5 -13.5t11.5 -43.5v-869q0 -35 -20 -57l-73 -73q-39 -39 -43.5 -58t-4.5 -28q0 -52 73 -52h108q28 0 28 -45t-34.5 -61t-124.5 -16z" />
    <glyph glyph-name="t_dotlessi.liga" unicode="t&#x131;" horiz-adv-x="1141" 
d="M192 1165q0 32 82 32t83 -32v-214h579q30 0 41 -13.5t11 -39.5v-873q0 -31 -83 -31t-83 31v789h-465v-502q0 -93 27.5 -140.5t85.5 -47.5t89 14t39 14q23 0 23 -45t-4 -61.5t-25.5 -39.5t-150.5 -23q-124 0 -186.5 73t-62.5 232v526h-126q-33 0 -33 68t34 69h125v214z
" />
    <glyph glyph-name="t_t.liga" unicode="tt" horiz-adv-x="1299" 
d="M1210 152q23 0 23 -45t-4 -61.5t-17.5 -29t-91 -31.5t-197 25t-119.5 278v526h-447v-502q0 -93 27.5 -140.5t85.5 -47.5t89 14t39 14q23 0 23 -59t-18.5 -74.5t-97 -33.5t-196 25.5t-117.5 277.5v526h-126q-33 0 -33 68t34 69h125v214q0 32 82 32t83 -32v-214h447v257
q0 32 83 32t83 -32v-257h230q33 -1 33 -69t-32 -68h-231v-502q0 -93 27 -140.5t84 -47.5t89.5 14t39.5 14z" />
    <glyph glyph-name="t_t_f.liga" unicode="ttf" horiz-adv-x="1867" 
d="M887 1240q83 0 83 -32v-257h468v93q0 275 108 315.5t164 40.5t88 -7t54 -16t29 -26t7 -67t-24 -50q-7 0 -17.5 4.5t-37 14.5t-66.5 10q-78 0 -108.5 -50t-30.5 -164v-98h201q33 -1 33 -69t-33 -68h-201v-789q0 -31 -83 -31t-83 31v789h-468v-502q0 -93 27 -140.5
t84 -47.5t89.5 14t39.5 14q23 0 23 -45t-3.5 -61.5t-26.5 -39.5t-149 -23t-188 74t-62 231v526h-447v-502q0 -93 27.5 -140.5t85.5 -47.5t89 14t39 14q23 0 23 -45t-4 -61.5t-16 -29t-93 -31t-198.5 25t-117.5 277.5v526h-126q-33 0 -33 68t34 69h125v214q0 32 82 32t83 -32
v-214h447v257q0 32 83 32z" />
    <glyph glyph-name="t_t_i.liga" unicode="tti" horiz-adv-x="1753" 
d="M1210 152q23 0 23 -45t-4 -62q-5 -17 -13 -25q-18 -18 -58 -26q-119 -26 -211 8q-143 53 -143 286v526h-447v-502q-1 -92 27 -140t86 -48t89 14t39 14q23 0 23 -45t-4 -62q-5 -17 -13 -25q-39 -37 -163 -37t-187 73q-62 73 -62 232v526h-126q-33 0 -33 68t34 69h125v214
q0 32 82 32t83 -32v-214h447v257q0 32 83 32t83 -32v-257h579q52 0 52 -53v-873q0 -31 -76 -31q-77 0 -87 18q-4 6 -3 13v789h-465v-502q0 -92 27 -140t84 -48t89 14q33 14 40 14zM1619 1228q0 -58 -22 -78q-23 -21 -81 -21q-58 1 -80 21t-21 78q0 58 22 78q23 21 81 21
q58 -1 80 -21t21 -78z" />
    <glyph glyph-name="t_t_igrave.liga" unicode="tt&#xec;" horiz-adv-x="1753" 
d="M1210 152q23 0 23 -45t-4 -62q-5 -17 -13 -25q-18 -18 -58 -26q-119 -26 -211 8q-143 53 -143 286v526h-447v-502q-1 -92 27 -140t86 -48t89 14t39 14q23 0 23 -45t-4 -62q-5 -17 -13 -25q-39 -37 -163 -37t-187 73q-62 73 -62 232v526h-126q-33 0 -33 68t34 69h125v214
q0 32 82 32t83 -32v-214h447v257q0 32 83 32t83 -32v-257h579q52 0 52 -53v-873q0 -31 -76 -31q-77 0 -87 18q-4 6 -3 13v789h-465v-502q0 -92 27 -140t84 -48t89 14q33 14 40 14zM1473 1097q-17 6 -31 26l-181 233q-29 32 21 42q18 4 44 4q48 0 68 -7t37 -30l144 -231
q15 -23 7 -30q-14 -13 -53 -13t-56 6z" />
    <glyph glyph-name="t_t_iacute.liga" unicode="tt&#xed;" horiz-adv-x="1753" 
d="M1210 152q23 0 23 -45t-4 -62q-5 -17 -13 -25q-18 -18 -58 -26q-119 -26 -211 8q-143 53 -143 286v526h-447v-502q-1 -92 27 -140t86 -48t89 14t39 14q23 0 23 -45t-4 -62q-5 -17 -13 -25q-39 -37 -163 -37t-187 73q-62 73 -62 232v526h-126q-33 0 -33 68t34 69h125v214
q0 32 82 32t83 -32v-214h447v257q0 32 83 32t83 -32v-257h579q52 0 52 -53v-873q0 -31 -76 -31q-77 0 -87 18q-4 6 -3 13v789h-465v-502q0 -92 27 -140t84 -48t89 14q33 14 40 14zM1760 1389q14 -13 -3 -33l-181 -233q-22 -27 -43 -30q-22 -2 -43 -2q-40 0 -51 10t3 33
l145 231q16 30 48 33q31 4 71 4t54 -13z" />
    <glyph glyph-name="t_t_icircumflex.liga" unicode="tt&#xee;" horiz-adv-x="1753" 
d="M1210 152q23 0 23 -45t-4 -62q-5 -17 -13 -25q-18 -18 -58 -26q-119 -26 -211 8q-143 53 -143 286v526h-447v-502q-1 -92 27 -140t86 -48t89 14t39 14q23 0 23 -45t-4 -62q-5 -17 -13 -25q-39 -37 -163 -37t-187 73q-62 73 -62 232v526h-126q-33 0 -33 68t34 69h125v214
q0 32 82 32t83 -32v-214h447v257q0 32 83 32t83 -32v-257h579q52 0 52 -53v-873q0 -31 -76 -31q-77 0 -87 18q-4 6 -3 13v789h-465v-502q0 -92 27 -140t84 -48t89 14q33 14 40 14zM1251 1147l165 229q13 20 42 23q28 3 50 3q69 0 88 -26l165 -229q41 -56 -31 -56
q-53 0 -65 5t-29 25l-130 180l-130 -180q-15 -25 -37 -27q-23 -3 -58 -3q-75 0 -30 56z" />
    <glyph glyph-name="t_t_idieresis.liga" unicode="tt&#xef;" horiz-adv-x="1753" 
d="M1210 152q23 0 23 -45t-4 -62q-5 -17 -13 -25q-18 -18 -58 -26q-119 -26 -211 8q-143 53 -143 286v526h-447v-502q-1 -92 27 -140t86 -48t89 14t39 14q23 0 23 -45t-4 -62q-5 -17 -13 -25q-39 -37 -163 -37t-187 73q-62 73 -62 232v526h-126q-33 0 -33 68t34 69h125v214
q0 32 82 32t83 -32v-214h447v257q0 32 83 32t83 -32v-257h579q52 0 52 -53v-873q0 -31 -76 -31q-77 0 -87 18q-4 6 -3 13v789h-465v-502q0 -92 27 -140t84 -48t89 14q33 14 40 14zM1759 1216q0 -54 -20 -74t-72 -20t-71 20t-19 73q-1 55 19 75t72 20t72 -20t19 -74z
M1448 1216q0 -54 -20 -74t-72 -20t-71 20t-19 73q0 55 20 75t71 20t71 -20t20 -74z" />
    <glyph glyph-name="t_t_imacron.liga" unicode="tt&#x12b;" horiz-adv-x="1753" 
d="M1210 152q23 0 23 -45t-4 -62q-5 -17 -13 -25q-18 -18 -58 -26q-119 -26 -211 8q-143 53 -143 286v526h-447v-502q-1 -92 27 -140t86 -48t89 14t39 14q23 0 23 -45t-4 -62q-5 -17 -13 -25q-39 -37 -163 -37t-187 73q-62 73 -62 232v526h-126q-33 0 -33 68t34 69h125v214
q0 32 82 32t83 -32v-214h447v257q0 32 83 32t83 -32v-257h579q52 0 52 -53v-873q0 -31 -76 -31q-77 0 -87 18q-4 6 -3 13v789h-465v-502q0 -92 27 -140t84 -48t89 14q33 14 40 14zM1271 1164q-33 0 -33 64t33 65h479q32 -1 32 -65t-32 -64h-479z" />
    <glyph glyph-name="t_t_itilde.liga" unicode="tt&#x129;" horiz-adv-x="1753" 
d="M1210 152q23 0 23 -45t-4 -62q-5 -17 -13 -25q-18 -18 -58 -26q-119 -26 -211 8q-143 53 -143 286v526h-447v-502q-1 -92 27 -140t86 -48t89 14t39 14q23 0 23 -45t-4 -62q-5 -17 -13 -25q-39 -37 -163 -37t-187 73q-62 73 -62 232v526h-126q-33 0 -33 68t34 69h125v214
q0 32 82 32t83 -32v-214h447v257q0 32 83 32t83 -32v-257h579q52 0 52 -53v-873q0 -31 -76 -31q-77 0 -87 18q-4 6 -3 13v789h-465v-502q0 -92 27 -140t84 -48t89 14q33 14 40 14zM1639 1223q73 0 73 105q0 16 10 22t47 5q36 1 48 -7t12 -34q0 -106 -52 -162t-129 -56
t-116 24t-59 42t-52 42q-32 25 -67 24q-72 0 -72 -106q0 -16 -11 -21t-38 -5q-46 0 -57 8q-12 8 -12 34q0 99 50 158t136 59q86 1 170 -65q32 -24 60 -46q28 -21 59 -21z" />
    <glyph glyph-name="t_t_ibreve.liga" unicode="tt&#x12d;" horiz-adv-x="1753" 
d="M1210 152q23 0 23 -45t-4 -62q-5 -17 -13 -25q-18 -18 -58 -26q-119 -26 -211 8q-143 53 -143 286v526h-447v-502q-1 -92 27 -140t86 -48t89 14t39 14q23 0 23 -45t-4 -62q-5 -17 -13 -25q-39 -37 -163 -37t-187 73q-62 73 -62 232v526h-126q-33 0 -33 68t34 69h125v214
q0 32 82 32t83 -32v-214h447v257q0 32 83 32t83 -32v-257h579q52 0 52 -53v-873q0 -31 -76 -31q-77 0 -87 18q-4 6 -3 13v789h-465v-502q0 -92 27 -140t84 -48t89 14q33 14 40 14zM1652 1365q0 30 54 30q54 1 62 -15q2 -6 2 -13q0 -271 -258 -271t-258 268q0 31 59 31
t59 -30q7 -75 30 -103q41 -49 109 -49q134 0 141 152z" />
    <glyph glyph-name="t_t_iogonek.liga" unicode="tt&#x12f;" horiz-adv-x="1753" 
d="M1597.5 1150q-21.5 -21 -65.5 -21t-63.5 5t-31.5 16.5t-16.5 30.5t-4.5 61t21 63.5t65 21.5q45 0 64.5 -4.5t36 -21.5t16.5 -73.5t-21.5 -77.5zM1510 -365q-211 0 -211 150q0 58 26.5 95t52.5 63l57 57v814h-465v-502q0 -93 27 -140.5t84 -47.5t89.5 14t39.5 14
q23 0 23 -45t-4 -62t-17.5 -30t-93 -30.5t-197 26t-117.5 277.5v526h-447v-502q0 -93 27.5 -140.5t85.5 -47.5t89 14t39 14q23 0 23 -45t-4 -62t-28 -39.5t-148 -22.5t-186.5 73t-62.5 232v526h-126q-33 0 -33 68t34 69h125v214q0 32 82 32t83 -32v-214h447v257q0 32 83 32
t83 -32v-257h579q52 0 52 -53v-873q0 -34 -21 -57l-73 -73q-48 -46 -48 -86q0 -52 74 -52h107q17 0 21 -7t6 -16.5t2 -30.5t-6 -32t-48 -24q-43 -12 -105 -12z" />
    <glyph glyph-name="t_t_dotlessi.liga" unicode="tt&#x131;" horiz-adv-x="1753" 
d="M1210 152q23 0 23 -45t-4 -62t-17.5 -30t-93 -30.5t-197 26t-117.5 277.5v526h-447v-502q0 -93 27.5 -140.5t85.5 -47.5t89 14t39 14q23 0 23 -45t-4 -62t-28 -39.5t-148 -22.5t-186.5 73t-62.5 232v526h-126q-33 0 -33 68t34 69h125v214q0 32 82 32t83 -32v-214h447v257
q0 32 83 32t83 -32v-257h579q52 0 52 -53v-873q0 -31 -76 -31t-83 11.5t-7 19.5v789h-465v-502q0 -93 27 -140.5t84 -47.5t89.5 14t39.5 14z" />
    <glyph glyph-name="f_uni1EC9.liga" unicode="f&#x1ec9;" horiz-adv-x="1084" 
d="M881 951q51 0 51 -51v-875q0 -31 -83 -31t-83 31v789h-404v-789q0 -31 -83 -31t-83 31v789h-127q-32 0 -32 68t32 69h127v96q0 271 162 333q54 20 108 20q55 0 88 -6t50 -14q26 -11 33 -31q7 -19 7 -66q0 -48 -23 -48q-7 0 -18 4q-66 24 -107 24q-74 0 -104 -51t-30 -163
v-98h519zM840 1266q63 0 63 78t-70 79q-39 1 -69 -19t-43 -20q-28 0 -28 57q0 26 11 33t43 24q31 17 87 17q98 0 146 -47q47 -47 47 -118t-36 -112t-96 -52l-2 -66q-3 -30 -59 -30t-56 31l-2 96q0 29 14 39t41 10h9z" />
    <glyph glyph-name="f_uni1ECB.liga" unicode="f&#x1ecb;" horiz-adv-x="1084" 
d="M881 951q51 0 51 -51v-875q0 -31 -83 -31t-83 31v789h-404v-789q0 -31 -83 -31t-83 31v789h-127q-32 0 -32 68t32 69h127v97q0 270 160 332q52 20 97 21q45 0 67 -2t40 -6q18 -5 32 -9t18 -9q17 -17 17 -75t-22 -58q-9 0 -17 4q-45 18 -112 18q-114 0 -114 -214v-99h519z
M930 1150q-20 -21 -65 -21q-43 0 -63 5q-20 4 -32 16t-16 31q-5 19 -5 47q0 54 21 77q21 22 65 22q45 -1 65 -5t30 -16q20 -23 20 -79t-20 -77zM950 -179q0 -55 -22 -76t-78 -21t-78 20q-21 20 -21 76q-1 55 21 76t78 21q56 -1 78 -21t22 -75z" />
    <glyph glyph-name="f_f_uni1EC9.liga" unicode="ff&#x1ec9;" horiz-adv-x="1654" 
d="M1451 951q52 0 52 -51v-875q0 -31 -76 -31q-77 0 -87 18q-4 6 -3 13v789h-405v-789q0 -31 -83 -31t-83 31v789h-404v-789q0 -31 -83 -31t-83 31v789h-127q-32 0 -32 68t32 69h127v85q0 270 162 332q54 20 110 21q56 0 90 -7t50 -14q24 -11 31 -28t7 -67t-23 -50
q-9 1 -19 5q-57 25 -119 24q-63 0 -93 -51t-30 -163v-87h404v97q0 270 162 332q54 20 110 21t90 -7t48 -14q25 -11 32 -29q6 -17 6 -66t-23 -49q-7 0 -17 4q-63 24 -122 24q-120 0 -120 -214v-99h519zM1415 1266q63 0 63 78t-70 79q-39 1 -69 -19t-43 -20q-28 0 -28 57
q0 26 11 33t43 24t88 17q98 0 145 -47t47 -118t-36 -112t-96 -52l-2 -66q-2 -30 -58 -30t-57 31l-2 96q-1 29 13 39t42 10h9z" />
    <glyph glyph-name="f_f_uni1ECB.liga" unicode="ff&#x1ecb;" horiz-adv-x="1654" 
d="M1451 951q52 0 52 -51v-875q0 -31 -76 -31q-77 0 -87 18q-4 6 -3 13v789h-405v-789q0 -31 -83 -31t-83 31v789h-404v-789q0 -31 -83 -31t-83 31v789h-127q-32 0 -32 68t32 69h127v85q0 270 162 332q54 20 110 21q58 1 91 -7t49 -14q24 -10 31 -28q7 -17 7 -67t-23 -50
q-9 1 -19 5q-57 25 -119 24q-63 0 -93 -51t-30 -163v-87h404v97q0 270 160 332q52 20 97 21q45 0 67 -2t40 -6q18 -5 32 -9t18 -9q18 -17 18 -75t-23 -58q-7 0 -16 4q-48 18 -112 18q-115 0 -115 -214v-99h519zM1500 1150q-21 -21 -65 -21q-43 0 -63 5q-20 4 -32 16t-16 31
q-5 19 -5 47q0 54 21 77q21 22 65 22q45 -1 65 -5t30 -16q20 -22 21 -79q0 -56 -21 -77zM1522 -179q0 -55 -22 -76t-78 -21t-78 20q-21 20 -21 76q-1 55 21 76t78 21q56 -1 78 -21t22 -75z" />
    <glyph glyph-name="f_uni01D0.liga" unicode="f&#x1d0;" horiz-adv-x="1084" 
d="M1123 1387.5q9 -11.5 -11 -44.5l-156 -229q-18 -22 -42 -23.5t-46 -1.5q-46 0 -62.5 5t-27.5 20l-153 226q-41 59 26 59q55 0 69 -6t23 -23l123 -181l122 181q17 26 37.5 27.5t54.5 1.5t43 -11.5zM881 951q51 0 51 -51v-875q0 -31 -83 -31t-83 31v789h-404v-789
q0 -31 -83 -31t-83 31v789h-127q-32 0 -32 68t32 69h127v112q0 337 254 337q111 0 121 -30t10 -78t-21 -48q-6 0 -33.5 10.5t-71.5 10.5q-93 0 -93 -198v-116h519z" />
    <glyph glyph-name="f_uni0209.liga" unicode="f&#x209;" horiz-adv-x="1095" 
d="M690 1358l182 -262q10 -15 -3 -22t-39 -7q-69 0 -88 21l-215 247q-23 23 -8 36t85 13t86 -26zM1149.5 1078q0.5 -11 -35.5 -11q-53 0 -68.5 4.5t-25.5 16.5l-211 246q-33 39 3 44.5t63 5.5q81 0 99 -29l171 -258q4 -8 4.5 -19zM881 951q51 0 51 -51v-875q0 -31 -83 -31
t-83 31v789h-404v-789q0 -31 -83 -31t-83 31v789h-127q-32 0 -32 68t32 69h127v112q0 337 201 337q87 0 95 -27.5t8 -73.5t-13 -46q-6 0 -21.5 6t-37.5 6q-66 0 -66 -198v-116h519z" />
    <glyph glyph-name="f_uni020B.liga" unicode="f&#x20b;" horiz-adv-x="1095" 
d="M749.5 1226.5q-34.5 -41.5 -36.5 -109.5q-4 -28 -58 -28q-55 0 -59.5 11.5t-4.5 45.5t31.5 137t223.5 103t228 -102t36 -167q0 -16 -11.5 -22t-47.5 -6t-48.5 6.5t-13.5 23.5q-5 72 -40.5 110.5t-99.5 38.5q-65 0 -99.5 -41.5zM881 951q51 0 51 -51v-875q0 -31 -83 -31
t-83 31v789h-404v-789q0 -31 -83 -31t-83 31v789h-127q-32 0 -32 68t32 69h127v112q0 337 254 337q111 0 121 -30t10 -78t-21 -48q-6 0 -33.5 10.5t-71.5 10.5q-93 0 -93 -198v-116h519z" />
    <glyph glyph-name="f_uni1E2D.liga" unicode="f&#x1e2d;" horiz-adv-x="1084" 
d="M881 951q51 0 51 -51v-875q0 -31 -83 -31t-83 31v789h-404v-789q0 -31 -83 -31t-83 31v789h-127q-32 0 -32 68t32 69h127v97q0 270 160 332q52 20 97 21q45 0 67 -2t40 -6q18 -5 32 -9t18 -9q17 -17 17 -75t-22 -58q-9 0 -17 4q-45 18 -112 18q-114 0 -114 -214v-99h519z
M930 1150q-20 -21 -65 -21q-43 0 -63 5q-20 4 -32 16t-16 31q-5 19 -5 47q0 54 21 77q21 22 65 22q45 -1 65 -5t30 -16q20 -23 20 -79t-20 -77zM992 -266q73 0 73 105q1 15 11 21t46 6t48 -8t12 -33q0 -106 -52 -162t-129 -56q-77 1 -116 25t-59 41t-52 41q-32 25 -67 25
q-72 0 -72 -106q0 -16 -11 -21t-38 -5q-45 0 -57 8t-12 34q0 99 50 158t136 59q87 0 171 -66q32 -24 58 -45q28 -21 60 -21z" />
    <glyph glyph-name="f_uni1E2F.liga" unicode="f&#x1e2f;" horiz-adv-x="1103" 
d="M1055 1667q52 0 65.5 -13.5t-2.5 -32.5l-160 -199q-22 -27 -43 -29.5t-53 -2.5q-65 0 -38 43l124 197q12 22 33.5 29.5t73.5 7.5zM935 1228q0 54 19.5 74t57.5 20t55 -4.5t27 -15.5t14.5 -29t4.5 -58t-19 -61t-57 -21q-37 0 -54.5 5t-32.5 20.5t-15 69.5zM646 1228
q0 27 4.5 45t15 29t28 15.5t42.5 4.5t42 -4.5t27.5 -15.5t15 -29t4.5 -45t-4.5 -45t-15 -29t-27.5 -16t-42 -5t-42.5 5t-28 16t-15 29t-4.5 45zM900 951q51 0 51 -51v-875q0 -31 -75.5 -31t-83 11.5t-7.5 19.5v789h-423v-789q0 -31 -83 -31t-83 31v789h-127q-32 0 -32 68
t32 69h127v117q0 332 268 332q110 0 120 -26.5t10 -76.5t-22 -50q-7 0 -34.5 7.5t-61.5 7.5q-61 0 -87.5 -48t-26.5 -149v-114h538z" />
    <glyph glyph-name="f_uni0268.liga" unicode="f&#x268;" horiz-adv-x="1084" 
d="M1098 513q0 -64 -32 -64h-134v-424q0 -31 -83 -31t-83 31v424h-134q-33 0 -33 64t33 64h134v237h-404v-789q0 -31 -83 -31t-83 31v789h-127q-32 0 -32 68t32 69h127v97q0 270 160 332q52 20 97 21q45 0 67 -2t40 -6q18 -5 32 -9t18 -9q17 -17 17 -75t-22 -58q-9 0 -17 4
q-45 18 -112 18q-114 0 -114 -214v-99h519q51 0 51 -51v-323h134q32 0 32 -64zM930 1150q-20 -21 -65 -21q-43 0 -63 5q-20 4 -32 16t-16 31q-5 19 -5 47q0 54 21 77q21 22 65 22q45 -1 65 -5t30 -16q20 -23 20 -79t-20 -77z" />
    <glyph glyph-name="f_f_uni01D0.liga" unicode="ff&#x1d0;" horiz-adv-x="1654" 
d="M1694 1387.5q9 -11.5 -11 -44.5l-156 -229q-18 -22 -41.5 -23.5t-45.5 -1.5q-46 0 -63 5t-28 20l-153 226q-41 59 26 59q55 0 69 -6t23 -23l123 -181l122 181q17 26 37.5 27.5t54.5 1.5t43 -11.5zM1452 951q51 0 51 -51v-875q0 -31 -83 -31t-83 31v789h-404v-789
q0 -31 -83 -31t-83 31v789h-405v-789q0 -31 -83 -31t-83 31v789h-127q-32 0 -32 68t32 69h127v85q0 271 107 312t165 41t91 -7.5t52.5 -16t27 -25.5t7.5 -67t-23 -50q-8 0 -42 14.5t-96 14.5q-63 0 -93 -51t-30 -163v-87h405v112q0 337 254 337q111 0 121 -30t10 -78
t-21 -48q-6 0 -33.5 10.5t-71.5 10.5q-93 0 -93 -198v-116h519z" />
    <glyph glyph-name="f_f_uni0209.liga" unicode="ff&#x209;" horiz-adv-x="1666" 
d="M1720 1078q0 -11 -36 -11q-53 0 -68 4.5t-25 16.5l-211 246q-33 39 3 44.5t63 5.5q81 0 99 -29l171 -258q4 -8 4 -19zM1261 1358l182 -262q10 -15 -3.5 -22t-39.5 -7q-69 0 -87 21l-215 247q-23 23 -8 36t85 13t86 -26zM1452 951q51 0 51 -51v-875q0 -31 -83 -31t-83 31
v789h-404v-789q0 -31 -83 -31t-83 31v789h-405v-789q0 -31 -83 -31t-83 31v789h-127q-32 0 -32 68t32 69h127v85q0 271 107 312t165 41t91 -7.5t52.5 -16t27 -25.5t7.5 -67t-23 -50q-8 0 -42 14.5t-96 14.5q-63 0 -93 -51t-30 -163v-87h405v112q0 337 201 337q87 0 95 -27.5
t8 -73.5t-13 -46q-6 0 -21.5 6t-37.5 6q-66 0 -66 -198v-116h519z" />
    <glyph glyph-name="f_f_uni020B.liga" unicode="ff&#x20b;" horiz-adv-x="1666" 
d="M1320.5 1226.5q-34.5 -41.5 -36.5 -109.5q-4 -28 -58 -28q-55 0 -59.5 11.5t-4.5 45.5t31.5 137t223.5 103t228 -102t36 -167q0 -16 -11.5 -22t-47.5 -6t-48.5 6.5t-13.5 23.5q-5 72 -40.5 110.5t-99.5 38.5q-65 0 -99.5 -41.5zM1452 951q51 0 51 -51v-875q0 -31 -83 -31
t-83 31v789h-404v-789q0 -31 -83 -31t-83 31v789h-405v-789q0 -31 -83 -31t-83 31v789h-127q-32 0 -32 68t32 69h127v85q0 271 107 312t165 41t91 -7.5t52.5 -16t27 -25.5t7.5 -67t-23 -50q-8 0 -42 14.5t-96 14.5q-63 0 -93 -51t-30 -163v-87h405v112q0 337 254 337
q111 0 121 -30t10 -78t-21 -48q-6 0 -33.5 10.5t-71.5 10.5q-93 0 -93 -198v-116h519z" />
    <glyph glyph-name="f_f_uni1E2D.liga" unicode="ff&#x1e2d;" horiz-adv-x="1654" 
d="M1451 951q52 0 52 -51v-875q0 -31 -76 -31q-77 0 -87 18q-4 6 -3 13v789h-405v-789q0 -31 -83 -31t-83 31v789h-404v-789q0 -31 -83 -31t-83 31v789h-127q-32 0 -32 68t32 69h127v85q0 270 162 332q54 20 110 21q58 1 91 -7t49 -14q24 -10 31 -28q7 -17 7 -67t-23 -50
q-9 1 -19 5q-57 25 -119 24q-63 0 -93 -51t-30 -163v-87h404v97q0 270 160 332q52 20 97 21q45 0 67 -2t40 -6q18 -5 32 -9t18 -9q18 -17 18 -75t-23 -58q-7 0 -16 4q-48 18 -112 18q-115 0 -115 -214v-99h519zM1500 1150q-21 -21 -65 -21q-43 0 -63 5q-20 4 -32 16t-16 31
q-5 19 -5 47q0 54 21 77q21 22 65 22q45 -1 65 -5t30 -16q20 -22 21 -79q0 -56 -21 -77zM1562 -266q73 0 73 105q1 15 11 21t46 6t48 -8t12 -33q0 -106 -52 -162t-129 -56q-77 1 -116 25t-59 41t-52 41q-32 25 -67 25q-72 0 -72 -106q0 -16 -11 -21t-38 -5q-46 0 -57 8
q-12 8 -12 34q0 99 50 158t136 59q87 0 171 -66q32 -24 58 -45q28 -21 60 -21z" />
    <glyph glyph-name="f_f_uni1E2F.liga" unicode="ff&#x1e2f;" horiz-adv-x="1673" 
d="M1505 1228q0 54 19.5 74t57.5 20t55 -4.5t27 -15.5t14.5 -29t4.5 -58t-19 -61t-57 -21q-37 0 -54.5 5t-32.5 20.5t-15 69.5zM1216 1228q0 27 4.5 45t15 29t28 15.5t42.5 4.5t42 -4.5t27.5 -15.5t15 -29t4.5 -45t-4.5 -45t-15 -29t-27.5 -16t-42 -5t-42.5 5t-28 16t-15 29
t-4.5 45zM1625 1667q52 0 65.5 -13.5t-2.5 -32.5l-160 -199q-22 -27 -43 -29.5t-53 -2.5q-65 0 -38 43l124 197q12 22 33.5 29.5t73.5 7.5zM1470 951q51 0 51 -51v-875q0 -31 -75.5 -31t-83 11.5t-7.5 19.5v789h-423v-789q0 -31 -83 -31t-83 31v789h-404v-789q0 -31 -83 -31
t-83 31v789h-127q-32 0 -32 68t32 69h127v85q0 271 108 312t164 41t90 -7t54 -16t27 -26t7 -67t-23 -50q-8 0 -42 14.5t-96 14.5q-63 0 -93 -51t-30 -163v-87h404v117q0 332 268 332q110 0 120 -26.5t10 -76.5t-22 -50q-7 0 -34.5 7.5t-61.5 7.5q-61 0 -87.5 -48t-26.5 -149
v-114h538z" />
    <glyph glyph-name="f_f_uni0268.liga" unicode="ff&#x268;" horiz-adv-x="1654" 
d="M1670 513q0 -64 -32 -64h-135v-424q0 -31 -76 -31q-77 0 -87 18q-4 6 -3 13v424h-133q-33 0 -33 64t33 64h133v237h-405v-789q0 -31 -83 -31t-83 31v789h-404v-789q0 -31 -83 -31t-83 31v789h-127q-32 0 -32 68t32 69h127v85q0 270 162 332q54 20 110 21q58 1 91 -7
t49 -14q24 -10 31 -28q7 -17 7 -67t-23 -50q-9 1 -19 5q-57 25 -119 24q-63 0 -93 -51t-30 -163v-87h404v97q0 270 160 332q52 20 97 21q45 0 67 -2t40 -6q18 -5 32 -9t18 -9q18 -17 18 -75t-23 -58q-7 0 -16 4q-48 18 -112 18q-115 0 -115 -214v-99h519q52 0 52 -51v-323
h135q32 0 32 -64zM1500 1150q-21 -21 -65 -21q-43 0 -63 5q-20 4 -32 16t-16 31q-5 19 -5 47q0 54 21 77q21 22 65 22q45 -1 65 -5t30 -16q20 -22 21 -79q0 -56 -21 -77z" />
    <glyph glyph-name="t_uni01D0.liga" unicode="t&#x1d0;" horiz-adv-x="1141" 
d="M192 1165q0 32 82 32t83 -32v-214h579q30 1 41 -13t11 -40v-873q0 -31 -83 -31t-83 31v789h-465v-502q-1 -92 27 -140t86 -48t89 14t39 14q23 0 23 -45t-4 -61t-12 -26q-35 -37 -164 -37q-124 0 -187 73q-62 73 -62 232v526h-126q-33 0 -33 68t34 69h125v214zM1161 1346
l-165 -229q-15 -20 -43 -23q-27 -3 -49 -3q-70 0 -89 26l-165 229q-44 56 32 56q53 0 67 -6t26 -24l130 -181l130 181q19 25 40 28q21 2 56 2q71 0 30 -56z" />
    <glyph glyph-name="t_uni0209.liga" unicode="t&#x209;" horiz-adv-x="1141" 
d="M192 1165q0 32 82 32t83 -32v-214h579q30 1 41 -13t11 -40v-873q0 -31 -83 -31t-83 31v789h-465v-502q-1 -92 27 -140t86 -48t89 14t39 14q23 0 23 -45t-4 -61t-12 -26q-35 -37 -164 -37q-124 0 -187 73q-62 73 -62 232v526h-126q-33 0 -33 68t34 69h125v214zM640 1358
l182 -262q10 -15 -4 -22t-38 -7q-69 0 -88 21l-215 247q-23 23 -12 33q18 16 89 16q70 0 86 -26zM1159 1083q1 -16 -35 -16q-53 0 -69 5q-15 5 -25 16l-211 246q-33 39 20 47q19 3 46 3q81 0 99 -29l171 -258q4 -8 4 -14z" />
    <glyph glyph-name="t_uni020B.liga" unicode="t&#x20b;" horiz-adv-x="1141" 
d="M192 1165q0 32 82 32t83 -32v-214h579q30 1 41 -13t11 -40v-873q0 -31 -83 -31t-83 31v789h-465v-502q-1 -92 27 -140t86 -48t89 14t39 14q23 0 23 -45t-4 -61t-12 -26q-35 -37 -164 -37q-124 0 -187 73q-62 73 -62 232v526h-126q-33 0 -33 68t34 69h125v214zM706 1096
q-59 0 -59 31q0 268 258 268t258 -271q0 -28 -59 -28t-59 30q-7 152 -141 152q-102 0 -128 -90q-8 -28 -11 -62q0 -30 -59 -30z" />
    <glyph glyph-name="t_uni1E2D.liga" unicode="t&#x1e2d;" horiz-adv-x="1141" 
d="M192 1165q0 32 82 32t83 -32v-214h579q30 1 41 -13t11 -40v-873q0 -31 -83 -31t-83 31v789h-465v-502q-1 -92 27 -140t86 -48t89 14t39 14q23 0 23 -45t-4 -61t-12 -26q-35 -37 -164 -37q-124 0 -187 73q-62 73 -62 232v526h-126q-33 0 -33 68t34 69h125v214zM1007 1228
q0 -58 -22 -78q-23 -21 -81 -21q-58 1 -80 21t-21 78q0 58 22 78q23 21 81 21q58 -1 80 -21t21 -78zM1049 -266q73 0 73 105q0 15 10 21t47 6q36 0 48 -8t12 -33q0 -106 -52 -162t-129 -56q-77 1 -116 25t-59 41t-52 41t-67 25q-72 0 -72 -106q0 -16 -11 -21t-38 -5
q-45 0 -57 8t-12 34q0 99 50 158t136 59t170 -66l60 -45t59 -21z" />
    <glyph glyph-name="t_uni1E2F.liga" unicode="t&#x1e2f;" horiz-adv-x="1141" 
d="M192 1165q0 32 82 32t83 -32v-214h579q30 1 41 -13t11 -40v-873q0 -31 -83 -31t-83 31v789h-465v-502q-1 -92 27 -140t86 -48t89 14t39 14q23 0 23 -45t-4 -61t-12 -26q-35 -37 -164 -37q-124 0 -187 73q-62 73 -62 232v526h-126q-33 0 -33 68t34 69h125v214zM1210 1214
q0 -56 -20 -76q-20 -21 -77 -21q-57 1 -77 21t-20 76t21 76t77 20t76 -20t20 -76zM797 1214q0 -56 -21 -76q-21 -21 -77 -21q-56 1 -76 21t-20 76q1 56 21 76t76 20t76 -20t21 -76zM1081 1658q51 0 65 -14t-2 -32l-160 -199q-22 -27 -43 -29q-21 -3 -53 -3q-65 0 -38 43
l124 197q12 21 34 29t73 8z" />
    <glyph glyph-name="t_uni0268.liga" unicode="t&#x268;" horiz-adv-x="1141" 
d="M192 1165q0 32 82 32t83 -32v-214h579q30 1 41 -13t11 -40v-321h135q32 0 32 -64t-32 -64h-135v-424q0 -31 -83 -31t-83 31v424h-133q-33 0 -33 64t33 64h133v237h-465v-502q-1 -92 27 -140t86 -48t89 14t39 14q23 0 23 -45t-4 -61t-12 -26q-35 -37 -164 -37
q-124 0 -187 73q-62 73 -62 232v526h-126q-33 0 -33 68t34 69h125v214zM1007 1228q0 -58 -22 -78q-23 -21 -81 -21q-58 1 -80 21t-21 78q0 58 22 78q23 21 81 21q58 -1 80 -21t21 -78z" />
    <glyph glyph-name="t_t_uni01D0.liga" unicode="tt&#x1d0;" horiz-adv-x="1753" 
d="M1210 152q23 0 23 -45t-4 -62q-5 -17 -13 -25q-18 -18 -58 -26q-119 -26 -211 8q-143 53 -143 286v526h-447v-502q-1 -92 27 -140t86 -48t89 14t39 14q23 0 23 -45t-4 -62q-5 -17 -13 -25q-39 -37 -163 -37t-187 73q-62 73 -62 232v526h-126q-33 0 -33 68t34 69h125v214
q0 32 82 32t83 -32v-214h447v257q0 32 83 32t83 -32v-257h579q52 0 52 -53v-873q0 -31 -76 -31q-77 0 -87 18q-4 6 -3 13v789h-465v-502q0 -92 27 -140t84 -48t89 14q33 14 40 14zM1774 1346l-165 -229q-15 -20 -43 -23t-50 -3q-70 0 -88 26l-165 229q-44 56 32 56
q53 0 67 -6t26 -24l130 -181l130 181q19 25 40 28q21 2 56 2q71 0 30 -56z" />
    <glyph glyph-name="t_t_uni0209.liga" unicode="tt&#x209;" horiz-adv-x="1753" 
d="M1210 152q23 0 23 -45t-4 -62q-5 -17 -13 -25q-18 -18 -58 -26q-119 -26 -211 8q-143 53 -143 286v526h-447v-502q-1 -92 27 -140t86 -48t89 14t39 14q23 0 23 -45t-4 -62q-5 -17 -13 -25q-39 -37 -163 -37t-187 73q-62 73 -62 232v526h-126q-33 0 -33 68t34 69h125v214
q0 32 82 32t83 -32v-214h447v257q0 32 83 32t83 -32v-257h579q52 0 52 -53v-873q0 -31 -76 -31q-77 0 -87 18q-4 6 -3 13v789h-465v-502q0 -92 27 -140t84 -48t89 14q33 14 40 14zM1252 1358l182 -262q10 -15 -4 -22t-38 -7q-69 0 -88 21l-215 247q-23 23 -12 33
q18 16 89 16q70 0 86 -26zM1771 1083q1 -16 -35 -16q-53 0 -69 5q-15 5 -25 16l-211 246q-33 39 20 47q19 3 46 3q81 0 99 -29l171 -258q4 -8 4 -14z" />
    <glyph glyph-name="t_t_uni020B.liga" unicode="tt&#x20b;" horiz-adv-x="1753" 
d="M1210 152q23 0 23 -45t-4 -62q-5 -17 -13 -25q-18 -18 -58 -26q-119 -26 -211 8q-143 53 -143 286v526h-447v-502q-1 -92 27 -140t86 -48t89 14t39 14q23 0 23 -45t-4 -62q-5 -17 -13 -25q-39 -37 -163 -37t-187 73q-62 73 -62 232v526h-126q-33 0 -33 68t34 69h125v214
q0 32 82 32t83 -32v-214h447v257q0 32 83 32t83 -32v-257h579q52 0 52 -53v-873q0 -31 -76 -31q-77 0 -87 18q-4 6 -3 13v789h-465v-502q0 -92 27 -140t84 -48t89 14q33 14 40 14zM1318 1096q-59 0 -59 31q0 268 258 268t258 -271q0 -28 -59 -28t-59 30q-7 152 -141 152
q-102 0 -128 -90q-8 -28 -11 -62q0 -30 -59 -30z" />
    <glyph glyph-name="t_t_uni1E2D.liga" unicode="tt&#x1e2d;" horiz-adv-x="1753" 
d="M1210 152q23 0 23 -45t-4 -62q-5 -17 -13 -25q-18 -18 -58 -26q-119 -26 -211 8q-143 53 -143 286v526h-447v-502q-1 -92 27 -140t86 -48t89 14t39 14q23 0 23 -45t-4 -62q-5 -17 -13 -25q-39 -37 -163 -37t-187 73q-62 73 -62 232v526h-126q-33 0 -33 68t34 69h125v214
q0 32 82 32t83 -32v-214h447v257q0 32 83 32t83 -32v-257h579q52 0 52 -53v-873q0 -31 -76 -31q-77 0 -87 18q-4 6 -3 13v789h-465v-502q0 -92 27 -140t84 -48t89 14q33 14 40 14zM1661 -266q73 0 73 105q0 15 10 21t47 6q36 0 48 -8t12 -33q0 -106 -52 -162t-129 -56
q-77 1 -116 25t-59 41t-52 41t-67 25q-72 0 -72 -106q0 -16 -11 -21t-38 -5q-46 0 -57 8q-12 8 -12 34q0 99 50 158t136 59t170 -66l60 -45t59 -21zM1619 1228q0 -58 -22 -78q-23 -21 -81 -21q-58 1 -80 21t-21 78q0 58 22 78q23 21 81 21q58 -1 80 -21t21 -78z" />
    <glyph glyph-name="t_t_uni1E2F.liga" unicode="tt&#x1e2f;" horiz-adv-x="1753" 
d="M1210 152q23 0 23 -45t-4 -62q-5 -17 -13 -25q-18 -18 -58 -26q-119 -26 -211 8q-143 53 -143 286v526h-447v-502q-1 -92 27 -140t86 -48t89 14t39 14q23 0 23 -45t-4 -62q-5 -17 -13 -25q-39 -37 -163 -37t-187 73q-62 73 -62 232v526h-126q-33 0 -33 68t34 69h125v214
q0 32 82 32t83 -32v-214h447v257q0 32 83 32t83 -32v-257h579q52 0 52 -53v-873q0 -31 -76 -31q-77 0 -87 18q-4 6 -3 13v789h-465v-502q0 -92 27 -140t84 -48t89 14q33 14 40 14zM1823 1214q-1 -56 -21 -76q-20 -21 -76 -21q-56 1 -76 21t-21 76q0 56 21 76t77 20t76 -20
t20 -76zM1410 1214q0 -56 -21 -76q-21 -21 -77 -21q-56 1 -76 21t-20 76t20 76t77 20t77 -20t20 -76zM1694 1658q52 0 66 -14t-3 -32l-160 -199q-22 -27 -43 -29q-22 -3 -54 -3q-65 0 -37 43l124 197q11 21 33 29t74 8z" />
    <glyph glyph-name="t_t_uni0268.liga" unicode="tt&#x268;" horiz-adv-x="1753" 
d="M1210 152q23 0 23 -45t-4 -62q-5 -17 -13 -25q-18 -18 -58 -26q-119 -26 -211 8q-143 53 -143 286v526h-447v-502q-1 -92 27 -140t86 -48t89 14t39 14q23 0 23 -45t-4 -62q-5 -17 -13 -25q-39 -37 -163 -37t-187 73q-62 73 -62 232v526h-126q-33 0 -33 68t34 69h125v214
q0 32 82 32t83 -32v-214h447v257q0 32 83 32t83 -32v-257h579q52 0 52 -53v-321h136q32 0 32 -64t-32 -64h-136v-424q0 -31 -76 -31q-77 0 -87 18q-4 6 -3 13v424h-132q-33 0 -33 64t33 64h132v237h-465v-502q0 -92 27 -140t84 -48t89 14q33 14 40 14zM1619 1228
q0 -58 -22 -78q-23 -21 -81 -21q-58 1 -80 21t-21 78q0 58 22 78q23 21 81 21q58 -1 80 -21t21 -78z" />
    <glyph glyph-name="f_f_uni0237.liga" unicode="ff&#x237;" horiz-adv-x="1654" 
d="M623 1223q-8 0 -42 14.5t-96 14.5q-63 0 -93 -51t-30 -163v-87h404v97q0 270 106 311.5t152 41.5t68 -2t40 -6t30.5 -8.5t23.5 -15.5t11 -69t-23 -58q-7 0 -33.5 11t-93.5 11q-115 0 -115 -214v-99h519q52 0 52 -51v-948q0 -155 -60.5 -236t-196.5 -81
q-135 0 -147.5 27.5t-12.5 79.5t26 53q9 0 16.5 -3t29 -9.5t55.5 -6.5q66 0 95 43t29 147v848h-405v-789q0 -31 -83 -31t-83 31v789h-404v-789q0 -31 -83 -31t-83 31v789h-127q-32 0 -32 68t32 69h127v85q0 271 107 312t165 41t91 -7.5t52.5 -16t27 -25.5t7.5 -67t-23 -50z
" />
    <glyph glyph-name=".notdef" horiz-adv-x="1038" 
d="M398 290.5q0 58.5 66 58.5q53 0 69 -16.5t16 -75.5t-64 -59q-53 0 -70 17t-17 75.5zM285 956q-19 0 -19 42t10 52q18 18 81 37.5t131 19.5q136 0 207.5 -71t71.5 -181q0 -173 -92 -211.5t-143 -41.5l-5 -152q0 -18 -55 -18t-55 18l-5 184q-4 54 50 54h18q158 0 158 159
q0 73 -41.5 116t-127.5 43t-131.5 -25t-52.5 -25zM891 81v1132h-762v-1132h762zM978 1294v-1294h-934v1294h934z" />
    <glyph glyph-name="glyph1" 
 />
    <glyph glyph-name="glyph1" 
 />
    <glyph glyph-name="glyph2" 
 />
    <glyph glyph-name="uni0009" unicode="&#x9;" horiz-adv-x="463" 
 />
    <glyph glyph-name="uni0009" unicode="&#xa0;" horiz-adv-x="463" 
 />
    <glyph glyph-name="uni0009" unicode=" " horiz-adv-x="463" 
 />
    <glyph glyph-name="uni0009" unicode="&#xd;" horiz-adv-x="463" 
 />
    <glyph glyph-name="exclam" unicode="!" horiz-adv-x="667" 
d="M476 104q0 -33 -4.5 -54.5t-17 -35t-32.5 -19t-51 -5.5t-51.5 5.5t-32.5 19t-16.5 35t-4.5 54.5t4.5 55.5t16.5 35t32.5 18t51.5 5.5t51 -5.5t32.5 -18t17 -35t4.5 -55.5zM371 341q-74 0 -74 32l-17 954q-2 25 17.5 36t59.5 11q65 0 85 -11.5t20 -35.5l-17 -954
q0 -32 -74 -32z" />
    <glyph glyph-name="quotedbl" unicode="&#x22;" horiz-adv-x="821" 
d="M225 870q-63 0 -63 32l-23 463q0 32 86 32t86 -32l-23 -463q0 -32 -63 -32zM580 870q-63 0 -63 32l-23 463q0 32 88 32t83 -32l-22 -463q0 -32 -63 -32z" />
    <glyph glyph-name="numbersign" unicode="#" horiz-adv-x="1020" 
d="M392 823l-40 -332h277l42 332h-279zM949 950q34 0 34 -64t-34 -63h-131l-40 -332h116q34 1 34 -63t-34 -64h-133l-42 -342q-3 -23 -27 -25.5t-58.5 -2.5t-49.5 6.5t-13 21.5l42 342h-278l-42 -342q-5 -17 -23 -25.5t-61 -4t-54.5 9.5t-9.5 20l41 342h-116q-34 0 -34 64
t34 63h134l41 332h-121q-34 -1 -34 63t34 64h136l41 321q3 22 29 25.5t50 3.5q43 0 56.5 -6.5t13.5 -21.5l-42 -322h278l39 321q3 22 29 25.5t50 3.5q44 0 58 -7t12 -21l-40 -322h115z" />
    <glyph glyph-name="dollar" unicode="$" horiz-adv-x="1038" 
d="M96 156q0 81 31 81q16 -1 40 -15q132 -80 285 -79q154 0 228 56t73 152q1 143 -199 215q-56 20 -116 42q-147 53 -215 115q-98 89 -98 239q0 216 208 298q70 28 163 33l20 202q4 23 32 27q12 2 34 1q44 0 56 -8q13 -8 13 -25l-22 -200q98 -10 154 -38t62 -40
q13 -26 13 -83t-26 -57q-11 0 -35 13q-127 69 -252 69q-248 0 -248 -178q0 -145 201 -216q164 -58 227 -86q207 -94 207 -308q0 -160 -117 -258t-318 -108l-22 -217q-5 -28 -66 -28q-61 1 -67 19q-2 6 -1 14l23 216q-138 17 -198 49t-65 54q-5 23 -5 49z" />
    <glyph glyph-name="percent" unicode="%" horiz-adv-x="1464" 
d="M357 743q132 0 132 198q0 143 -33 200q-33 58 -107 58q-136 0 -136 -223q1 -190 81 -222q26 -10 63 -11zM346 632q-274 0 -274 338q0 238 154 313q54 26 130 26q145 0 209 -91t64 -244q1 -243 -157 -317q-54 -25 -126 -25zM1120 96q132 0 132 198q0 143 -33 200
q-33 58 -107 58q-136 0 -136 -223q0 -191 80 -223q26 -10 64 -10zM1109 -15q-274 0 -274 338q1 238 155 313q54 26 129 26q145 0 209 -91t64 -244q0 -243 -158 -317q-54 -25 -125 -25zM258 -36q-83 0 -48 52l900 1289q14 22 40 25q27 3 48 3q42 0 54 -14t-5 -38l-901 -1289
q-12 -22 -40 -25q-27 -3 -48 -3z" />
    <glyph glyph-name="ampersand" unicode="&#x26;" horiz-adv-x="1397" 
d="M287 358q0 -106 70.5 -171t211.5 -65q142 0 271 110q-227 196 -377 383q-176 -113 -176 -257zM432.5 942.5q29.5 -58.5 92.5 -145.5q145 82 188.5 128t57 78.5t13.5 64.5q0 67 -47 108.5t-119 41.5q-73 0 -109.5 -13.5t-71 -46.5t-34.5 -95t29.5 -120.5zM108 341
q0 168 98.5 251t171.5 127q-121 164 -135.5 225.5t-14.5 109.5t21 105t95 126t269 69q255 0 300 -103.5t45 -163.5q0 -116 -79.5 -203t-266.5 -188q140 -169 336 -347q88 119 88 294v36q0 29 27 32.5t51 3.5q49 0 66 -6t17 -31v-25q0 -226 -131 -401q158 -126 184 -126t35 1
t14.5 -3t8.5 -16t3 -37t-1.5 -45.5t-14.5 -31.5t-47 -11q-57 0 -118 33.5t-170 121.5q-193 -156 -422 -156q-264 0 -347 123.5t-83 235.5z" />
    <glyph glyph-name="quotesingle" unicode="'" horiz-adv-x="452" 
d="M226 870q-64 0 -64 32l-23 463q1 32 89 32t84 -32l-22 -463q0 -32 -64 -32z" />
    <glyph glyph-name="parenleft" unicode="(" horiz-adv-x="621" 
d="M495 1378q-188 -398 -188 -830q0 -433 186 -848q11 -25 -1.5 -35t-45.5 -10q-80 0 -93 21q-220 416 -220 847t221 877q5 19 52 19q66 0 82 -10t7 -31z" />
    <glyph glyph-name="parenright" unicode=")" horiz-adv-x="621" 
d="M190 -345q-69 0 -68 16.5t6 28.5q186 408 186 842t-188 836q-18 41 65 41q66 0 76 -19q220 -438 220 -874t-219 -850q-10 -17 -35 -19t-43 -2z" />
    <glyph glyph-name="asterisk" unicode="*" horiz-adv-x="1020" 
d="M506 668q-46 0 -62 8t-13 23l28 262l-212 -155q-26 -19 -65 48q-39 68 -10 81l241 107l-241 106q-29 15 2 67.5t46 61.5t27 0l212 -154l-28 261q-3 16 13 24t62 8t62 -8t13 -24l-28 -261l213 154q25 19 64 -48t11 -81l-241 -106l241 -107q29 -12 -3 -66
q-31 -54 -45.5 -63t-26.5 0l-213 155l28 -262q3 -15 -13 -23t-62 -8z" />
    <glyph glyph-name="plus" unicode="+" horiz-adv-x="1020" 
d="M913 647q37 1 37 -71t-38 -72h-328v-364q0 -32 -74 -32t-74 32v364h-328q-38 0 -38 72t37 71h329v364q0 35 74 35t74 -35v-364h329z" />
    <glyph glyph-name="comma" unicode="," horiz-adv-x="511" 
d="M311 -56l-137 -206q-16 -22 -39 -25t-41 -3q-37 0 -46.5 7t-1.5 23l133 275v128q0 52 22 66.5t61 14.5t57 -3t35 -15t17 -69q0 -105 -60 -193z" />
    <glyph glyph-name="hyphen" unicode="-" horiz-adv-x="627" 
d="M523 573q35 -1 35 -69t-35 -68h-418q-36 0 -36 68.5t36 68.5h418z" />
    <glyph glyph-name="hyphen" unicode="&#x2010;" horiz-adv-x="627" 
d="M523 573q35 -1 35 -69t-35 -68h-418q-36 0 -36 68.5t36 68.5h418z" />
    <glyph glyph-name="hyphen" unicode="&#xad;" horiz-adv-x="627" 
d="M523 573q35 -1 35 -69t-35 -68h-418q-36 0 -36 68.5t36 68.5h418z" />
    <glyph glyph-name="period" unicode="." horiz-adv-x="517" 
d="M366 108q0 -70 -23.5 -93.5t-84.5 -23.5t-84 23t-23 93t23.5 93.5t84.5 23.5t84 -23t23 -93z" />
    <glyph glyph-name="slash" unicode="/" horiz-adv-x="791" 
d="M14 -267.5q-19 13.5 -7 38.5l605 1659q11 34 38.5 37t50.5 3q44 0 63 -12.5t9 -39.5l-605 -1659q-7 -24 -27 -32t-64 -8t-63 13.5z" />
    <glyph glyph-name="zero" unicode="0" horiz-adv-x="1038" 
d="M791 650q0 84 -7 161.5t-39.5 219t-216.5 141.5q-163 0 -221.5 -135t-58.5 -403q0 -267 62 -389.5t213 -122.5t202.5 121.5t58.5 222t7 184.5zM967 656q0 -324 -108 -499.5t-353 -175.5q-346 0 -390 251.5t-44 405.5q0 322 107.5 498.5t352.5 176.5q347 0 391 -251.5
t44 -405.5z" />
    <glyph glyph-name="one" unicode="1" horiz-adv-x="1038" 
d="M891 138q36 0 36 -69t-36 -69h-676q-36 0 -36 69t36 69h270v984l-250 -149q-36 -19 -48.5 -7.5t-12.5 43.5q0 49 5.5 64t23.5 27l298 191q16 12 86 12t70 -28v-1137h234z" />
    <glyph glyph-name="two" unicode="2" horiz-adv-x="1038" 
d="M885 146q39 0 39 -73t-38 -73h-715q-45 0 -51 26.5t-6 47.5q0 44 9.5 65.5t30.5 44.5l251 266q227 240 247 348t20 174t-56 127.5t-169 61.5t-190.5 -54t-89.5 -54q-29 0 -29 59t7.5 72t33 35t116.5 58t191 36q187 0 283 -95.5t96 -238.5t-65.5 -274.5t-272.5 -344.5
l-205 -214h563z" />
    <glyph glyph-name="three" unicode="3" horiz-adv-x="1038" 
d="M275 595q-41 0 -41 68t40 68h113q201 0 242 93.5t41 141.5q0 94 -54 149.5t-168 55.5t-193 -55t-87 -55q-30 0 -29 42q0 42 1 53.5t4 20t7 15.5t24 27t110 57t194 37q190 0 282.5 -86t92.5 -232q0 -187 -92 -245.5t-151 -69.5v-2q132 -14 217.5 -99.5t85.5 -191.5
q0 -194 -120.5 -300t-313.5 -106t-274 43t-87.5 54.5t-11 26.5t-4.5 67t27 52q9 0 35.5 -16t104 -50.5t163.5 -34.5q149 0 219 63.5t70 170.5t-85 172.5t-239 65.5h-123z" />
    <glyph glyph-name="four" unicode="4" horiz-adv-x="1038" 
d="M628 1149h-2l-421 -710h423v710zM941 439q38 0 38 -71t-38 -71h-146v-272q0 -31 -76 -31t-83.5 11.5t-7.5 19.5v272h-534q-37 0 -41.5 25.5t-4.5 47.5q0 66 25 113l466 786q16 25 57 28t71 3q128 0 128 -35v-826h146z" />
    <glyph glyph-name="five" unicode="5" horiz-adv-x="1038" 
d="M736 400q0 251 -318 251q-74 0 -117.5 -6t-76.5 -6t-45 13t-12 50v527q0 65 60 65h573q38 0 38 -75t-38 -75h-483v-363q49 7 158 7q214 0 328.5 -100t114.5 -289t-132.5 -303.5t-350.5 -114.5q-158 0 -237 35.5t-84.5 46t-9 22.5t-3.5 65t29 53q10 0 31 -12.5t88.5 -40
t157.5 -27.5q329 0 329 277z" />
    <glyph glyph-name="six" unicode="6" horiz-adv-x="1038" 
d="M550 658q-146 0 -269 -85q0 -363 143 -431q46 -22 110 -22q121 0 185 83t64 200q0 188 -122 237q-45 18 -111 18zM581 794q376 0 376 -375q0 -186 -113 -312t-335 -126q-223 0 -319 168q-84 148 -83 450q0 191 32 301q31 110 71 180q132 232 435 232q118 0 199 -33
q32 -13 38 -23q5 -10 8 -21t3 -33q0 -45 -6 -59q-6 -13 -19 -13q-14 0 -33 7t-68 23t-138 15q-173 0 -265 -140q-80 -120 -86 -325q146 84 303 84z" />
    <glyph glyph-name="seven" unicode="7" horiz-adv-x="1038" 
d="M137 1143q-38 -1 -38 75t38 76h754q31 0 41.5 -17t10.5 -46q0 -70 -23 -124l-466 -1074q-14 -34 -46.5 -36.5t-62.5 -2.5q-60 0 -75 11.5t-2 39.5l490 1098h-621z" />
    <glyph glyph-name="eight" unicode="8" horiz-adv-x="1038" 
d="M256 318q0 -97 66 -150t197 -53q129 -1 195 53t66 144t-64 151q-64 60 -210 131q-132 -65 -176 -112q-42 -48 -58 -84t-16 -80zM529 742q209 108 209 247t-126 177q-42 12 -95 13q-107 0 -163 -49t-56 -134q0 -110 128 -194q44 -28 103 -60zM908 1012q0 -201 -250 -334
q296 -146 296 -334q0 -179 -115 -271t-331 -92q-308 0 -397 184q-29 60 -29 129q0 125 73 209t221 157q-249 129 -249 327q0 143 103 235q103 91 295 91t288 -83q95 -83 95 -218z" />
    <glyph glyph-name="nine" unicode="9" horiz-adv-x="1038" 
d="M493 635q153 0 266 82q0 361 -98 410t-162 49q-121 0 -182 -81.5t-61 -197.5q0 -192 85.5 -227t151.5 -35zM82 884q0 185 109.5 307t324.5 122q362 0 390 -263.5t28 -349.5t-10 -172t-48.5 -213t-161 -230.5t-333.5 -103.5q-123 0 -186.5 26t-69.5 47t-6 45q0 43 5.5 56
t19.5 13t34 -7.5t76 -24t145 -16.5q176 0 267.5 130.5t95.5 328.5q-135 -79 -297 -79q-383 0 -383 384z" />
    <glyph glyph-name="colon" unicode=":" horiz-adv-x="548" 
d="M375 15q-22 -24 -69 -24q-46 0 -66 5.5t-32 19t-16.5 35.5t-4.5 72.5t22 74.5t68 24t66 -6t37 -23.5t17 -85.5t-22 -92zM375 710q-22 -24 -69 -24q-77 0 -98 24t-21 74q0 85 21.5 109t67.5 24q47 0 67 -5.5t37 -23.5t17 -86t-22 -92z" />
    <glyph glyph-name="semicolon" unicode=";" horiz-adv-x="548" 
d="M338 -56l-136 -204q-18 -29 -73 -29t-56 11t3 20l131 273v128q0 51 22 66t60 15t56 -3t35 -15t17 -68q0 -107 -59 -194zM375 710q-22 -24 -69 -24q-77 0 -98 24t-21 74q0 85 21.5 109t67.5 24q47 0 67 -5.5t37 -23.5t17 -86t-22 -92z" />
    <glyph glyph-name="less" unicode="&#x3c;" horiz-adv-x="1020" 
d="M910.5 100q-8.5 -11 -31.5 1l-788 398q-22 11 -22 79t25 77l785 396q23 11 31.5 -1t8.5 -50q0 -63 -6 -80.5t-29 -29.5l-644 -315l640 -310q27 -14 33 -30.5t6 -69.5q0 -54 -8.5 -65z" />
    <glyph glyph-name="equal" unicode="=" horiz-adv-x="1020" 
d="M887 453q38 -1 38 -71t-38 -70h-756q-37 0 -37 70t37 71h756zM887 841q38 -1 38 -71t-38 -70h-756q-37 0 -37 70t37 71h756z" />
    <glyph glyph-name="greater" unicode="&#x3e;" horiz-adv-x="1020" 
d="M952 599q0 -90 -26 -103l-785 -396q-24 -11 -32 1.5t-8 49.5q0 65 5.5 82t28.5 27l645 317l-641 309q-26 12 -32 28t-6 59q0 65 8 77t32 -1l788 -397q23 -11 23 -53z" />
    <glyph glyph-name="question" unicode="?" horiz-adv-x="949" 
d="M517.5 14q-21.5 -24 -67.5 -24q-47 0 -67 5.5t-32.5 19t-17 35t-4.5 72.5t22.5 73.5t68.5 22.5t66 -5.5t36.5 -22.5t16.5 -84.5t-21.5 -91.5zM163 1157q-30 0 -30 59t23 80.5t110 49.5t187 28q195 0 298.5 -107.5t103.5 -276.5t-93 -268.5t-250 -109.5l-7 -241
q0 -30 -68 -30t-75.5 11t-7.5 19l-6 277q-3 64 25.5 71t46.5 7h22q123 0 181.5 70t58.5 181q0 183 -96.5 221t-158.5 38t-105.5 -12.5t-75.5 -27.5t-52.5 -27t-30.5 -12z" />
    <glyph glyph-name="at" unicode="@" horiz-adv-x="1831" 
d="M681 451q0 -75 26.5 -115t94.5 -40t128 54.5t98 93.5l48 260q-78 132 -169 132q-147 0 -186.5 -155t-39.5 -230zM1215 -58q22 0 22 -56t-18.5 -71t-123 -36.5t-267.5 -21.5q-335 0 -496.5 162t-161.5 462q0 452 232 698.5t619 246.5q317 0 476 -146.5t159 -397.5
t-95 -434t-308 -183q-129 0 -165.5 56t-43.5 93q-149 -149 -289 -149q-230 0 -230 272q0 179 67 314t149.5 175t136.5 40q88 0 139 -30.5t104 -97.5l17 88q8 28 73 28t57 -28l-89 -460q-31 -170 99 -170q147 0 185 177t38 276q0 446 -496 446q-407 0 -544.5 -261.5
t-137.5 -521.5t123.5 -391.5t426.5 -131.5q164 0 248 26.5t94 26.5z" />
    <glyph glyph-name="A" unicode="A" horiz-adv-x="1185" 
d="M584 1122h-1l-223 -645h450zM990.5 0q-15.5 6 -24.5 25l-111 315h-538l-106 -311q-9 -28 -38 -31.5t-57 -3.5q-60 0 -74 12.5t2 55.5l434 1202q8 22 29.5 29t67.5 7q78 0 101 -7t31 -30l434 -1202q16 -43 4 -53q-16 -14 -77.5 -14t-77 6z" />
    <glyph glyph-name="B" unicode="B" horiz-adv-x="1114" 
d="M844 361q0 237 -296 237h-206v-456h250q176 0 233 124q19 41 19 95zM766 952q0 96 -56 149t-190 53h-178v-419h196q174 -1 216 133q12 40 12 84zM943 982q0 -217 -172 -290q109 -21 181 -107q72 -85 73 -211q1 -240 -215 -332q-99 -42 -236 -42h-338q-23 0 -43.5 15.5
t-20.5 54.5v1154q0 39 20.5 54.5t43.5 15.5h294q311 0 388 -189q25 -61 25 -123z" />
    <glyph glyph-name="C" unicode="C" horiz-adv-x="1092" 
d="M1000 1035q-14 -1 -39 19q-135 106 -258.5 106t-194 -34.5t-120.5 -101.5q-105 -141 -105 -384q0 -370 224 -472q72 -32 156 -32t141.5 19t98 42.5t66.5 42.5t37 19q19 0 24.5 -15.5t5.5 -46t-1 -42.5t-3.5 -21t-6.5 -16t-14 -17q-35 -35 -135 -76t-228 -41
q-258 0 -404.5 168t-146.5 481t156 495t413 182q164 0 287 -74q53 -32 61 -47q17 -29 17 -91.5t-31 -62.5z" />
    <glyph glyph-name="D" unicode="D" horiz-adv-x="1260" 
d="M873.5 1017q-112.5 134 -354.5 134h-175v-1007h177q239 0 352 127t113 369.5t-112.5 376.5zM1167 655q0 -322 -166.5 -488.5t-490.5 -166.5h-274q-23 0 -43.5 15.5t-20.5 54.5v1154q0 39 20.5 54.5t43.5 15.5h293q469 0 597 -366q40 -116 41 -273z" />
    <glyph glyph-name="E" unicode="E" horiz-adv-x="1000" 
d="M857 143q35 0 35 -71.5t-35 -71.5h-621q-23 0 -43.5 15.5t-20.5 54.5v1154q0 39 20.5 54.5t43.5 15.5h614q34 0 34 -71.5t-34 -71.5h-506v-406h434q34 0 34 -69.5t-34 -69.5h-434v-463h513z" />
    <glyph glyph-name="F" unicode="F" horiz-adv-x="941" 
d="M818 1294q34 0 34 -73t-34 -73h-474v-440h448q34 0 34 -71.5t-34 -71.5h-448v-539q0 -32 -86 -32t-86 32v1198q0 39 20.5 54.5t43.5 15.5h582z" />
    <glyph glyph-name="G" unicode="G" horiz-adv-x="1292" 
d="M669 567q-34 0 -34 70.5t34 70.5h411q61 0 61 -70v-493q0 -55 -47 -79q-170 -84 -344 -84q-322 0 -490.5 178t-168.5 480t177.5 487t465.5 185q129 0 259 -45t146 -100q5 -17 5 -49q0 -75 -31 -75q-12 0 -40 19q-152 103 -325 103q-228 0 -352 -145t-124 -379t127 -371.5
t334 -137.5q130 0 236 58v377h-300z" />
    <glyph glyph-name="H" unicode="H" horiz-adv-x="1276" 
d="M933 1268q0 32 85.5 32t85.5 -32v-1242q0 -32 -85.5 -32t-85.5 32v574h-589v-574q0 -32 -86 -32t-86 32v1242q0 32 86 32t86 -32v-518h589v518z" />
    <glyph glyph-name="I" unicode="I" horiz-adv-x="516" 
d="M258 1300q86 0 86 -32v-1242q0 -32 -86 -32t-86 32v1242q0 32 86 32z" />
    <glyph glyph-name="J" unicode="J" horiz-adv-x="653" 
d="M398 1300q86 0 86 -31v-943q0 -168 -66.5 -256t-222.5 -88q-81 0 -146 32q-38 18 -41 62q-1 12 -1 31q0 75 30 75q8 0 20.5 -7.5t44.5 -24t73 -16.5q77 0 107 43t30 166v926q0 31 86 31z" />
    <glyph glyph-name="K" unicode="K" horiz-adv-x="1064" 
d="M906 1300q84 0 84 -32q0 -22 -31 -62l-429 -513l462 -614q24 -37 24 -48q0 -21 -20 -29t-61.5 -8t-69.5 4t-45 28l-476 647v-647q0 -32 -86 -32t-86 32v1242q0 32 86 32t86 -32v-575l458 575q16 25 47 28.5t57 3.5z" />
    <glyph glyph-name="L" unicode="L" horiz-adv-x="861" 
d="M808 149q35 0 35 -74.5t-35 -74.5h-572q-23 0 -43.5 15.5t-20.5 54.5v1198q0 32 86 32t86 -32v-1119h464z" />
    <glyph glyph-name="M" unicode="M" horiz-adv-x="1751" 
d="M339 26q0 -32 -76.5 -32t-86.5 18q-4 6 -4 14v1190q0 42 22 60t49 18h104q93 0 128 -58q12 -20 21 -47l375 -937h5l390 934q22 60 52 84t79 24h109q49 0 67 -42q6 -14 6 -36v-1190q0 -32 -83.5 -32t-83.5 32v1127h-2l-461 -1132q-9 -21 -37 -24t-48 -3q-75 0 -83 27
l-441 1132h-1v-1127z" />
    <glyph glyph-name="N" unicode="N" horiz-adv-x="1322" 
d="M987 1265q0 32 81.5 32t81.5 -32v-1194q0 -56 -47 -70q-13 -4 -26 -4h-55q-52 0 -83 26t-73 103l-408 736q-69 122 -125 241h-2q4 -144 4 -296v-781q0 -32 -81.5 -32t-81.5 32v1194q0 40 22 57t48 17h82q55 0 82 -21q28 -21 63 -84l314 -568q66 -118 99.5 -182.5t58 -111
t48.5 -93.5h1q-3 118 -3 329v702z" />
    <glyph glyph-name="O" unicode="O" horiz-adv-x="1356" 
d="M1075 652q0 514 -394 514q-207 0 -311 -154q-88 -130 -89 -360q-1 -380 203 -484q76 -38 189.5 -38t190.5 42t124 114q87 132 87 366zM99 640q0 316 151 494.5t441 178.5q565 0 565 -651q0 -320 -150 -500.5t-441 -180.5q-566 0 -566 659z" />
    <glyph glyph-name="P" unicode="P" horiz-adv-x="1058" 
d="M786 912q0 68 -29.5 121t-84.5 86t-169 33h-159v-519h155q211 1 269 161q18 50 18 118zM258 -6q-86 0 -86 32v1194q0 40 21 57t47 17h277q345 0 429 -246q20 -60 21 -145q0 -182 -124 -296.5t-352 -114.5h-147v-466q0 -32 -86 -32z" />
    <glyph glyph-name="Q" unicode="Q" horiz-adv-x="1378" 
d="M1075 654q0 512 -394 512q-207 0 -311 -154q-88 -131 -89 -360q-1 -380 203 -484q76 -38 189.5 -38t190.5 42t124 114q87 132 87 368zM1415 -114q0 -77 -33 -77q-84 0 -291 141q-66 45 -128 105q-121 -74 -298 -74q-566 0 -566 659q0 316 151 494.5t433.5 178.5
t427.5 -167t145 -496t-164 -505q146 -121 275 -169q37 -14 44 -44q4 -18 4 -46z" />
    <glyph glyph-name="R" unicode="R" horiz-adv-x="1112" 
d="M776 950q0 62 -34 114q-48 74 -170 85q-32 3 -83 3h-145v-436h168q130 0 197 60t67 174zM958 953q0 -237 -250 -325q61 -27 104 -84t85 -160l116 -285q22 -57 22 -69q0 -22 -18 -29t-59 -7q-65 0 -83 8t-26 33l-119 305q-49 122 -89 162q-74 75 -182 75h-115v-551
q0 -32 -86 -32t-86 32v1198q0 39 20.5 54.5t43.5 15.5h275q71 0 140 -8q227 -38 287 -210q20 -56 20 -123z" />
    <glyph glyph-name="S" unicode="S" horiz-adv-x="941" 
d="M767 1078q-11 0 -35 14q-131 78 -213 78q-131 0 -186 -50.5t-55 -117t25 -105.5t66.5 -69t94.5 -55t108 -51q138 -64 202 -128q92 -92 93 -231q0 -177 -123 -279.5t-304.5 -102.5t-305.5 71q-30 17 -46.5 34.5t-16.5 84t32 66.5q13 0 39 -17q138 -92 271.5 -92
t203.5 57.5t70 156.5q0 98 -91 164q-42 30 -149 80t-159 81q-185 110 -185 307q0 160 109.5 249.5t261.5 89.5q152 1 259 -55q42 -22 49 -34q12 -23 12 -84.5t-27 -61.5z" />
    <glyph glyph-name="T" unicode="T" horiz-adv-x="998" 
d="M949 1294q34 0 34 -73t-34 -73h-364v-1122q0 -32 -86 -32t-86 32v1122h-364q-34 0 -34 73t34 73h900z" />
    <glyph glyph-name="U" unicode="U" horiz-adv-x="1314" 
d="M974 1268q0 32 85.5 32t85.5 -32v-790q0 -234 -131.5 -365.5t-358 -131.5t-356 124t-129.5 360v803q0 32 85.5 32t85.5 -32v-782q-1 -264 185 -336q58 -22 133 -22q151 0 233 89.5t82 259.5v791z" />
    <glyph glyph-name="V" unicode="V" horiz-adv-x="1162" 
d="M588 -6q-26 0 -42.5 0.5t-28.5 2.5q-25 4 -35 11t-16 23l-423 1202q-16 44 -1 55.5t64 11.5q75 0 89.5 -6.5t22.5 -27.5l371 -1089h1l361 1087q6 23 22 29.5t61 6.5q76 0 87.5 -12t-4.5 -56l-422 -1202q-11 -30 -63 -34q-20 -2 -44 -2z" />
    <glyph glyph-name="W" unicode="W" horiz-adv-x="1822" 
d="M1205 2q-25 8 -33 36l-271 977h-2l-250 -977q-6 -27 -24 -34q-50 -17 -109.5 -11.5t-79.5 12t-26 33.5l-342 1195q-12 45 1.5 56t61.5 11q77 0 92.5 -6.5t19.5 -29.5l291 -1084h1l276 1082q6 24 24 31t60 7q66 0 84 -7t24 -31l297 -1082h2l285 1083q7 24 22 30.5t58 6.5
q72 0 84.5 -11t2.5 -57l-343 -1194q-8 -27 -28 -34q-33 -10 -93 -10t-85 8z" />
    <glyph glyph-name="X" unicode="X" horiz-adv-x="1063" 
d="M843 1q-18 7 -26 24l-288 515l-291 -515q-14 -26 -44 -28.5t-62 -2.5q-64 0 -77.5 13.5t11.5 54.5l353 595l-337 575q-24 44 -11.5 56t63.5 12q79 0 94.5 -5t31.5 -26l278 -484l276 484q13 20 27.5 25.5t57.5 5.5q76 0 91 -12.5t-8 -55.5l-336 -571l350 -599
q25 -42 12 -53q-18 -15 -82.5 -15t-82.5 7z" />
    <glyph glyph-name="Y" unicode="Y" horiz-adv-x="998" 
d="M585 26q0 -32 -86.5 -32t-86.5 32v477l-366 730q-21 44 -9 55.5t61 11.5q73 0 93 -6.5t31 -27.5l179 -372q25 -53 50 -111t51 -117h2q42 103 97 225l180 374q6 21 25 28t61 7q78 0 92 -12t-8 -55l-366 -730v-477z" />
    <glyph glyph-name="Z" unicode="Z" horiz-adv-x="959" 
d="M881 145q35 0 35 -72.5t-35 -72.5h-764q-58 0 -58 67v37q0 38 15.5 64.5t28.5 47.5l597 934h-590q-37 0 -37 72t37 72h720q58 0 58 -63v-39q0 -42 -15.5 -69.5t-29.5 -47.5l-594 -930h632z" />
    <glyph glyph-name="bracketleft" unicode="[" horiz-adv-x="628" 
d="M510 -199q29 -1 29 -61t-29 -60h-256q-63 0 -63 70v1579q0 70 63 70h256q29 0 29 -61t-29 -61h-163v-1476h163z" />
    <glyph glyph-name="backslash" unicode="\" horiz-adv-x="791" 
d="M11 1446.5q0 16.5 51 16.5q77 0 93 -5.5t22 -21.5l606 -1659q6 -17 6 -34t-73 -17t-81.5 10t-11.5 18l-605 1659q-7 17 -7 33.5z" />
    <glyph glyph-name="bracketright" unicode="]" horiz-adv-x="628" 
d="M119 1277q-29 0 -29 61t29 61h255q43 0 53.5 -25.5t10.5 -44.5v-1579q0 -70 -64 -70h-255q-29 0 -29 60t29 61h163v1476h-163z" />
    <glyph glyph-name="asciicircum" unicode="^" horiz-adv-x="1020" 
d="M759 573.5q-18 6.5 -27 24.5l-232 551l-3 -3l-219 -548q-10 -26 -39 -28.5t-57 -2.5q-57 0 -69.5 10.5t2.5 46.5l284 648q11 34 93 34t97.5 -12.5t19.5 -21.5l291 -648q16 -38 3 -47.5t-69 -9.5q-57 0 -75 6.5z" />
    <glyph glyph-name="underscore" unicode="_" horiz-adv-x="1020" 
d="M991 -232q33 0 33 -66t-33 -67h-963q-35 1 -35 67t35 66h963z" />
    <glyph glyph-name="grave" unicode="`" horiz-adv-x="596" 
d="M352.5 1097.5q-17.5 6.5 -30.5 25.5l-181 233q-29 32 5 39t60 7q48 0 68.5 -7.5t36.5 -29.5l144 -231q15 -23 4 -33t-50 -10t-56.5 6.5z" />
    <glyph glyph-name="a" unicode="a" horiz-adv-x="981" 
d="M526 435q-265 0 -265 -172q0 -70 44.5 -111.5t117 -41.5t128 33t116.5 101v191h-141zM169 743q-33 0 -33 55.5t17 72.5q37 36 131 67.5t192 31.5q190 0 272.5 -83.5t82.5 -255.5v-607q0 -30 -60.5 -30t-71 9t-10.5 21v90q-125 -133 -285 -133q-220 0 -290 158
q-22 51 -22 121q0 143 118 218.5t333 75.5h124v70q0 160 -110 198q-39 14 -98 14t-107.5 -14.5t-85 -32t-61 -32t-36.5 -14.5z" />
    <glyph glyph-name="b" unicode="b" horiz-adv-x="1076" 
d="M318 293q138 -170 256 -170q118 -1 180 109q52 94 53 239q0 156 -47 246q-58 111 -176 111q-129 0 -266 -176v-359zM617 970q185 0 274.5 -134.5t89.5 -359.5t-101.5 -360t-285.5 -135q-85 0 -151 36t-144 118v-110q0 -31 -67.5 -31t-75.5 17q-3 6 -3 14v1336
q0 32 82.5 32t82.5 -32v-539q144 148 299 148z" />
    <glyph glyph-name="c" unicode="c" horiz-adv-x="866" 
d="M773 238q27 0 27 -61t-7 -74t-19 -25q-35 -35 -115 -66t-172 -31q-190 0 -293.5 126t-103.5 368.5t116.5 368t303.5 125.5q126 0 218 -59q63 -40 67 -86q1 -12 1 -30q0 -70 -31 -70q-15 0 -35 16q-106 89 -223.5 89.5t-181 -91t-63.5 -265.5q0 -261 144 -327
q46 -22 104.5 -22t101.5 18t74.5 39.5t53 39t33.5 17.5z" />
    <glyph glyph-name="d" unicode="d" horiz-adv-x="1076" 
d="M267 482q0 -248 116 -330q43 -30 92 -30q83 0 146 41.5t137 134.5v360q-137 170 -257 170t-177 -101.5t-57 -244.5zM758 1357q0 32 83 32t83 -32v-1332q0 -31 -73.5 -31t-73.5 31v119q-150 -163 -326.5 -163t-265.5 134t-89 359.5t100.5 360.5t287.5 135q144 0 274 -136
v523z" />
    <glyph glyph-name="e" unicode="e" horiz-adv-x="1019" 
d="M520 841q-117 0 -183 -80.5t-70 -197.5h488q3 130 -57.5 204t-177.5 74zM856 183q27 1 27 -55q1 -56 -11 -68q-25 -25 -109 -48q-237 -66 -415 0q-256 95 -255 459q0 233 116.5 366t315 133t297.5 -118.5t99 -307.5v-30q0 -39 -19.5 -55.5t-44.5 -16.5h-590
q0 -240 156 -304q56 -23 128.5 -23t122.5 10.5t86.5 23.5t60 23.5t35.5 10.5z" />
    <glyph glyph-name="f" unicode="f" horiz-adv-x="625" 
d="M69 814q-32 0 -32 68.5t32 68.5h127v93q0 276 162 336q54 20 108.5 20t87.5 -6t51 -14q26 -11 33.5 -28.5t7.5 -67.5t-23 -50q-7 0 -17.5 4.5t-38 14.5t-67.5 10q-77 0 -107.5 -48.5t-30.5 -165.5v-98h201q33 0 33 -68.5t-33 -68.5h-201v-789q0 -31 -83 -31t-83 31v789
h-127z" />
    <glyph glyph-name="g" unicode="g" horiz-adv-x="964" 
d="M215 -107q0 -65 66 -99q67 -34 163 -33q160 0 223 49t63 115q0 127 -176 132l-233 8q-106 -83 -106 -172zM647 647q0 92 -50.5 143.5t-143 51.5t-141 -57.5t-48.5 -145t50.5 -138.5t141.5 -51q142 0 180 122q12 36 11 75zM871 951q34 0 34 -66.5t-34 -66.5h-129
q63 -65 63 -156q0 -167 -96 -253t-233.5 -86t-200.5 51q-41 -41 -41 -85q0 -88 119 -92l235 -10q215 -7 284 -141q23 -44 23 -104q0 -131 -110.5 -219t-321.5 -88t-310.5 65t-99.5 183.5t130 220.5q-96 49 -96 150t87 190q-67 80 -67 176q0 171 96.5 259.5t252.5 88.5
q77 0 143 -17h272z" />
    <glyph glyph-name="h" unicode="h" horiz-adv-x="1076" 
d="M606 970q322 0 322 -397v-548q0 -31 -82.5 -31t-82.5 31v527q0 275 -191 275q-116 0 -254 -173v-629q0 -31 -75 -31t-87 18q-4 6 -3 13v1336q0 32 82.5 32t82.5 -32v-539q140 148 288 148z" />
    <glyph glyph-name="i" unicode="i" horiz-adv-x="470" 
d="M337 1228.5q0 -57.5 -22 -78.5t-80.5 -21t-80 20.5t-21.5 78t22 78.5t80.5 21t80 -20.5t21.5 -78zM153 925q0 31 82.5 31t82.5 -31v-900q0 -31 -75 -31t-87 18q-4 6 -3 13v900z" />
    <glyph glyph-name="j" unicode="j" horiz-adv-x="490" 
d="M356 1228.5q0 -57.5 -22 -78.5t-80.5 -21t-79.5 20.5t-21 78t21.5 78.5t80.5 21t80 -20.5t21 -78zM254 956q83 0 83 -31v-940q0 -184 -63.5 -267t-201.5 -83q-89 0 -102 19t-13 73t26 54l64 -5q67 0 95.5 43t28.5 167v939q0 31 83 31z" />
    <glyph glyph-name="k" unicode="k" horiz-adv-x="931" 
d="M768 956q88 0 88 -26t-28 -56l-326 -326l366 -475q24 -31 24 -47q0 -32 -80.5 -32t-94 11.5t-19.5 20.5l-380 498v-499q0 -31 -75 -31t-87 18q-4 6 -3 13v1336q0 32 82.5 32t82.5 -32v-814l340 374q24 30 55 32.5t55 2.5z" />
    <glyph glyph-name="l" unicode="l" horiz-adv-x="470" 
d="M318 1361v-1336q0 -31 -75 -31t-87 18q-4 6 -3 13v1336q0 32 82.5 32t82.5 -32z" />
    <glyph glyph-name="m" unicode="m" horiz-adv-x="1636" 
d="M1322 572q0 255 -184 255q-95 0 -235 -173v-629q0 -31 -75 -31q-74 0 -86 18q-4 6 -4 13v547q0 184 -100 237q-34 18 -79 18q-103 0 -241 -173v-629q0 -31 -75 -31t-87 18q-4 6 -3 13v900q0 31 74.5 31t74.5 -31v-119q147 164 292 164q206 0 277 -178q163 178 316 178
t227 -103t74 -273v-569q0 -31 -83 -31t-83 31v547z" />
    <glyph glyph-name="n" unicode="n" horiz-adv-x="1076" 
d="M606 970q322 0 322 -396v-549q0 -31 -82.5 -31t-82.5 31v527q0 275 -191 275q-116 0 -254 -173v-629q0 -31 -75 -31t-87 18q-4 6 -3 13v900q0 31 74.5 31t74.5 -31v-119q147 164 304 164z" />
    <glyph glyph-name="o" unicode="o" horiz-adv-x="1080" 
d="M263 478q0 -358 275 -358q140 0 209 95t69 259q0 358 -274 358q-208 0 -262 -212q-16 -65 -17 -142zM990 486q0 -229 -118.5 -367t-341.5 -138q-328 0 -413 282q-27 90 -27 202q0 231 118 368t341 137q327 0 413 -282q28 -90 28 -202z" />
    <glyph glyph-name="p" unicode="p" horiz-adv-x="1076" 
d="M585 828q-127 0 -267 -176v-358q68 -83 129 -127t125 -44q120 0 177.5 103.5t57.5 243.5q0 248 -115 328q-43 30 -107 30zM318 -332q0 -32 -76 -32t-86 18q-4 6 -3 14v1257q0 31 65.5 31t75.5 -16q4 -6 4 -15v-121q85 87 159 126.5t167 39.5q180 0 268.5 -134.5
t88.5 -346.5q0 -365 -223 -473q-73 -36 -140 -35q-104 0 -163.5 31t-136.5 106v-450z" />
    <glyph glyph-name="q" unicode="q" horiz-adv-x="1076" 
d="M267 482q0 -248 116 -330q43 -30 92 -30q83 0 146 41.5t137 134.5v360q-137 170 -257 170t-177 -101.5t-57 -244.5zM777 925q0 31 66.5 31t76.5 -16q4 -6 4 -15v-1257q0 -32 -76 -32t-86 18q-4 6 -4 14v461q-82 -82 -150 -115t-157 -33q-176 0 -265.5 134t-89.5 349
q0 362 222 470q72 36 140 36q106 0 167.5 -33.5t151.5 -120.5v109z" />
    <glyph glyph-name="r" unicode="r" horiz-adv-x="714" 
d="M302 794q121 176 238 176q58 0 88.5 -10.5t36.5 -15.5q9 -7 11.5 -20t2.5 -74.5t-25 -61.5q-8 0 -19.5 4.5t-39 13t-55.5 8.5q-53 0 -102 -42.5t-120 -154.5v-592q0 -31 -75 -31t-87 18q-4 6 -3 13v900q0 31 74.5 31t74.5 -31v-131z" />
    <glyph glyph-name="s" unicode="s" horiz-adv-x="801" 
d="M345 113q210 0 210 144q0 89 -143 145q-118 46 -162 70q-147 78 -147 231q0 114 86 190.5t234 76.5q147 0 225 -59q24 -18 24 -78t-26 -60q-9 0 -26 11t-68 34.5t-108 23.5q-99 0 -141 -36t-42 -84.5t20 -75t52 -46.5t73 -36q42 -16 84 -33q109 -44 157 -89
q71 -67 71 -172q0 -137 -96 -213t-242 -76q-146 1 -243 51q-24 12 -40 26.5t-16 77.5t28 63q11 1 33 -13q116 -72 203 -73z" />
    <glyph glyph-name="t" unicode="t" horiz-adv-x="686" 
d="M598 152q23 0 23 -45t-4 -62t-12 -25q-37 -37 -164 -37q-124 0 -186.5 73t-62.5 232v526h-126q-33 0 -33 68.5t34 68.5h125v214q0 32 82.5 32t82.5 -32v-214h231q33 0 33 -68.5t-33 -68.5h-231v-502q0 -93 27.5 -140.5t85.5 -47.5t89 14t39 14z" />
    <glyph glyph-name="u" unicode="u" horiz-adv-x="1076" 
d="M841 956q83 0 83 -31v-900q0 -31 -69 -31t-78 18q-3 6 -3 13v119q-148 -163 -304 -163q-322 0 -322 398v546q0 31 83 31t83 -31v-524q0 -278 190 -278q114 0 254 173v629q0 31 83 31z" />
    <glyph glyph-name="v" unicode="v" horiz-adv-x="925" 
d="M883 885l-307 -855q-8 -22 -25.5 -27.5t-37.5 -7t-50 -1.5q-58 0 -81.5 7.5t-31.5 28.5l-306 855q-10 30 -10 40q0 19 16 25t55 6q67 0 82.5 -6.5t23.5 -25.5l258 -754l254 754q6 27 35 29.5t54 2.5t40 -1q16 -1 24 -5q16 -7 15.5 -22t-8.5 -43z" />
    <glyph glyph-name="w" unicode="w" horiz-adv-x="1464" 
d="M204 950q15 -6 22 -26l217 -742l2 -9l201 751q4 19 20.5 25.5t52.5 6.5q59 0 75 -6t20 -24l215 -744l2 -9l215 751q4 20 21 26t55 6q62 0 76 -6.5t14 -22t-9 -42.5l-265 -855q-13 -48 -125 -37q-57 5 -74 10.5t-23 26.5l-189 653l-2 9l-177 -662q-6 -22 -24 -27
q-51 -16 -105 -10.5t-71 11t-23 26.5l-263 855q-9 27 -9 43q0 28 68 28t83 -6z" />
    <glyph glyph-name="x" unicode="x" horiz-adv-x="887" 
d="M124 -6q-84 0 -82 26q0 10 9 24l280 439l-265 423q-24 42 30 48q20 2 50 2q55 0 72.5 -5.5t26.5 -20.5l205 -335l208 335q14 21 38 23.5t52 2.5q58 0 74 -9.5t-2 -40.5l-263 -418l278 -444q8 -14 8 -24q0 -26 -82.5 -26t-93 10.5t-14.5 17.5l-216 357l-215 -357
q-13 -23 -41.5 -25.5t-56.5 -2.5z" />
    <glyph glyph-name="y" unicode="y" horiz-adv-x="927" 
d="M443 -331q-12 -33 -84 -33t-88 11.5t-4 39.5l124 313q-21 9 -28 32l-321 860q-8 21 -8 33t8 19t26 9.5t48 2.5q56 0 72 -6.5t26 -32.5l257 -722h3l248 726q6 19 18.5 27t55.5 8t61 -2.5t26.5 -9.5t8.5 -19t-6 -30z" />
    <glyph glyph-name="z" unicode="z" horiz-adv-x="809" 
d="M691 139q36 0 36 -69.5t-36 -69.5h-554q-48 0 -48 61v34q0 37 13 60t23 39l397 618h-385q-35 0 -35 69.5t35 69.5h516q47 0 47 -59v-32q0 -39 -13 -63t-23 -40l-395 -618h422z" />
    <glyph glyph-name="braceleft" unicode="{" horiz-adv-x="644" 
d="M238 565q177 -34 177 -328v-190q0 -151 15.5 -187t32 -45t39.5 -9l42 -1q36 0 36 -61t-31 -61q-22 -5 -77 -5q-115 0 -161.5 79.5t-46.5 282.5v206q0 121 -26 168t-53.5 66.5t-51.5 22.5q-33 4 -40 18t-7 37q0 39 6 51.5t25 16.5q147 16 147 259v161q0 201 48 281.5
t173 80.5q40 0 62 -5q33 0 33 -61t-34 -61l-41 -1q-51 0 -70.5 -46t-19.5 -195v-146q0 -144 -28.5 -201t-62.5 -86.5t-86 -40.5z" />
    <glyph glyph-name="bar" unicode="|" horiz-adv-x="943" 
d="M394 1403q0 31 78 31t77 -31v-1736q1 -32 -77 -32t-78 32v1736z" />
    <glyph glyph-name="braceright" unicode="}" horiz-adv-x="644" 
d="M582 627q31 0 31 -53t-11 -59.5t-36 -8.5t-53 -28t-52.5 -82t-24.5 -195v-161q0 -199 -47.5 -280.5t-173.5 -81.5q-32 0 -65 5q-33 0 -33 61t34 61l43 1q50 0 70 44t20 197v146q0 148 28.5 219t63 107t85.5 47q-142 28 -159.5 118.5t-17.5 164.5v190q0 151 -15.5 187
t-32 45t-39.5 9l-40 1q-40 0 -40 61t36 61q21 5 75 5q114 0 161 -80t47 -282v-206q0 -115 33.5 -159t112.5 -54z" />
    <glyph glyph-name="asciitilde" unicode="~" horiz-adv-x="1020" 
d="M192 824q0 -29 -60 -29q-42 0 -56.5 6.5t-14.5 23.5v27q0 134 70 207.5t188 73.5q117 0 165 -49t80 -90t63 -67.5t72 -26.5q132 0 132 175q0 27 60 27t66 -11.5t5 -20.5v-33q-4 -127 -78.5 -200.5t-186.5 -73.5t-158.5 50t-79 90.5t-64 67.5t-72.5 27q-131 0 -131 -174z
" />
    <glyph glyph-name="exclamdown" unicode="&#xa1;" horiz-adv-x="667" 
d="M191 1078q0 33 5 55q4 21 17 35q12 13 32 18q20 6 51 6t52 -6q20 -5 32 -18t17 -35q4 -21 4 -55q0 -33 -4 -55t-17 -35q-12 -12 -32 -18t-52 -6q-31 0 -51 6q-20 5 -32 18q-12 12 -17 35q-5 22 -5 55zM296 841q74 0 74 -32l17 -954q2 -25 -13 -33q-43 -24 -100 -15
q-57 10 -63 23t-6 25l17 954q0 32 74 32z" />
    <glyph glyph-name="cent" unicode="&#xa2;" horiz-adv-x="1020" 
d="M866 406q26 0 26 -67t-22.5 -91.5t-79.5 -53.5t-122 -38v-147q0 -31 -72 -31t-72 31v144q-339 42 -339 480q0 333 132 408.5t206 87.5v147q0 31 72.5 31t72.5 -31v-144q87 -9 154 -53.5t69.5 -72.5t2.5 -45q0 -71 -34 -71q-16 0 -74 53.5t-185 53.5q-170 0 -207.5 -129
t-37.5 -225t19.5 -162.5t54.5 -108.5t82.5 -61t103.5 -19t97.5 17.5t71 39t49.5 39.5t32 18z" />
    <glyph glyph-name="sterling" unicode="&#xa3;" horiz-adv-x="1038" 
d="M915 139q35 0 35 -61q0 -78 -35 -78h-796q-36 0 -36 70t36 69h123v454h-123q-36 -1 -36 67t36 68h123v120q0 462 395 462q125 0 219 -58q45 -28 55 -43q18 -28 18 -88q0 -59 -30 -59q-13 0 -33 17q-104 91 -224 91q-231 0 -231 -316v-126h328q35 0 35 -68t-35 -67h-328
v-454h504z" />
    <glyph glyph-name="currency" unicode="&#xa4;" horiz-adv-x="1020" 
d="M674 773q-55 77 -168 77q-161 0 -191 -102t-30 -160q0 -126 55.5 -198t165.5 -72t166.5 73t56.5 189t-55 193zM882 589.5q0 -168.5 -101 -279.5l145 -209q22 -35 6 -53.5t-81.5 -12t-78.5 26.5l-106 169q-76 -39 -167 -39q-92 0 -154 30l-107 -171q-13 -21 -42.5 -23
t-55.5 -2q-52 0 -65.5 14t9.5 48l142 207q-94 98 -94 273.5t93 285.5l-145 212q-41 64 42 64q64 0 83.5 -5t28.5 -20l106 -170q76 40 175 40t168 -39l107 171q14 27 69 27q82 0 93.5 -14.5t-9.5 -50.5l-145 -211q84 -100 84 -268.5z" />
    <glyph glyph-name="yen" unicode="&#xa5;" horiz-adv-x="1038" 
d="M157 438q-30 0 -30 61t30 61h276v54l-362 619q-26 42 -11.5 54.5t61.5 12.5q73 0 92 -6t30 -25l150 -268q35 -63 67.5 -128t65.5 -130q33 65 65 130t67 128l149 268q8 19 24.5 25t60.5 6q75 0 87 -12t-12 -55l-362 -619v-54h276q30 0 30 -61t-30 -61h-276v-158h276
q30 0 30 -60t-30 -61h-276v-135q0 -30 -86 -30t-86 30v135h-276q-30 1 -30 61t30 60h276v158h-276z" />
    <glyph glyph-name="brokenbar" unicode="&#xa6;" horiz-adv-x="1020" 
d="M508 345q78 0 78 -32v-673q0 -31 -78 -31t-78 31v673q0 32 78 32zM508 1454q78 0 78 -32v-663q0 -31 -78 -31t-78 31v663q0 32 78 32z" />
    <glyph glyph-name="section" unicode="&#xa7;" horiz-adv-x="1020" 
d="M744 545q0 62 -41 104.5t-128 75.5l-84 35q-46 18 -87 41q-62 -28 -91.5 -78.5t-29.5 -96.5q0 -79 40.5 -121t128.5 -77l84 -34q43 -15 87 -42q121 54 121 193zM748 1147q-9 0 -24 11t-62 35.5t-108 24.5q-95 0 -135 -38t-40 -84q0 -79 42 -121t142 -82l87 -35
q132 -55 195.5 -123.5t63.5 -187.5q0 -120 -66.5 -184.5t-104.5 -87.5q77 -73 77 -198t-98 -202.5t-246 -77.5t-216 40.5t-72.5 60.5t-4.5 48q0 68 28 68q14 0 76 -43t187 -43t152 54t27 90q0 68 -40 107t-144 81l-87 35q-132 55 -195.5 124t-63.5 188t67.5 184.5
t106.5 86.5q-79 77 -79 199t89 195t218 73t183.5 -30t63 -44t8.5 -69t-27 -55z" />
    <glyph glyph-name="dieresis" unicode="&#xa8;" horiz-adv-x="804" 
d="M672 1216q0 -54 -20 -74t-74 -20t-73 20t-19 74t20 74t74 20t73 -20t19 -74zM318 1216q0 -54 -20 -74t-74 -20t-73 20t-19 74t20 74t74 20t73 -20t19 -74z" />
    <glyph glyph-name="copyright" unicode="&#xa9;" horiz-adv-x="1709" 
d="M1110 474q22 0 22 -60t-56 -113t-215 -53q-176 0 -269 112t-93 330t103.5 329.5t272.5 111.5q110 0 173.5 -40.5t74 -58.5t10.5 -68t-29 -50q-17 0 -34.5 14.5t-64 46.5t-143.5 32q-96 0 -153.5 -81t-57.5 -236q0 -316 231 -316q98 0 156 50t72 50zM175 665
q-1 735 679 735t680 -684q0 -735 -682 -735q-677 0 -677 684zM862 97q538 0 538 608q0 288 -130 433.5t-424 145.5q-537 0 -537 -609q0 -292 131 -435t422 -143z" />
    <glyph glyph-name="ordfeminine" unicode="&#xaa;" horiz-adv-x="824" 
d="M375 720q74 0 148 81v122h-86q-168 0 -168 -107q0 -46 28.5 -71t77.5 -25zM644 470q35 0 35 -62t-35 -63h-495q-35 1 -35 63t35 62h495zM406 1307q266 0 266 -242v-420q0 -24 -64 -24t-63 25v54h-2q-81 -90 -200 -90q-162 0 -194.5 75.5t-32.5 126.5q0 102 81.5 154.5
t235.5 52.5h90v41q1 129 -121 129q-84 0 -129 -21t-62 -30.5t-24 -9.5q-34 0 -34 67q0 33 12.5 43.5t73.5 39.5t167 29z" />
    <glyph glyph-name="guillemotleft" unicode="&#xab;" horiz-adv-x="1049" 
d="M432 938q69 0 69 -17t-6 -28l-212 -373l213 -373q21 -35 -7.5 -40.5t-52.5 -5.5q-45 0 -60 5t-25 21l-221 353q-13 23 -13 43t15 42l217 347q14 23 37.5 24.5t45.5 1.5zM875 136.5q0 -14.5 -66 -14.5t-75 7.5t-15 16.5l-219 336q-14 21 -14 40.5t15 41.5l214 329
q17 23 39 24t46 1q48 0 62.5 -10.5t2.5 -30.5l-215 -355l219 -361q6 -10 6 -24.5z" />
    <glyph glyph-name="logicalnot" unicode="&#xac;" horiz-adv-x="1020" 
d="M96 502q-35 0 -35 70.5t36 70.5h754q39 0 55 -14t16 -53v-255q0 -34 -74 -34t-73 34v181h-679z" />
    <glyph glyph-name="registered" unicode="&#xae;" horiz-adv-x="1038" 
d="M504 1050q74 0 74 56t-72 56h-46v-112h44zM686 1120q0 -88 -96 -112q55 -18 81 -84l24 -64q7 -23 7 -28q0 -17 -36 -17q-52 0 -64 4.5t-16 19.5l-21 69q-12 37 -28.5 51.5t-49.5 14.5h-27v-140q0 -11 -8.5 -15t-49.5 -4t-41 19v359q0 47 44 47h115q166 0 166 -120z
M736.5 1241q-83.5 87 -216.5 87t-217.5 -88.5t-84.5 -222.5t84 -221.5t217 -87.5q132 0 216.5 88.5t84.5 223.5q0 134 -83.5 221zM795.5 742q-114.5 -113 -280.5 -113q-167 0 -277 110t-110 276t114 279t281 113q168 0 277.5 -109.5t109.5 -275.5q0 -167 -114.5 -280z" />
    <glyph glyph-name="macron" unicode="&#xaf;" horiz-adv-x="807" 
d="M165 1164q-33 0 -33 64t33 65h479q32 -1 32 -65t-32 -64h-479z" />
    <glyph glyph-name="macron" unicode="&#x2c9;" horiz-adv-x="807" 
d="M165 1164q-33 0 -33 64t33 65h479q32 -1 32 -65t-32 -64h-479z" />
    <glyph glyph-name="degree" unicode="&#xb0;" horiz-adv-x="694" 
d="M431 1220q-34 36 -72 36q-64 0 -98 -36t-34 -77q0 -70 34.5 -106t73.5 -36q38 0 59.5 10t46 37.5t24.5 81.5t-34 90zM520.5 965.5q-70.5 -68.5 -176.5 -68.5t-173.5 63.5t-67.5 165.5t72 168.5t176 66.5t172 -63t68 -164q0 -100 -70.5 -168.5z" />
    <glyph glyph-name="plusminus" unicode="&#xb1;" horiz-adv-x="1020" 
d="M903 142q35 0 35 -71t-36 -71h-781q-37 0 -37 71t36 71h783zM908 789q36 0 36 -70t-37 -70h-325v-360q0 -31 -72.5 -31t-72.5 31v360h-324q-37 0 -37 70t36 70h325v362q0 33 72.5 33t72.5 -33v-362h326z" />
    <glyph glyph-name="uni00B2" unicode="&#xb2;" horiz-adv-x="688" 
d="M588 838q27 0 27 -58t-26 -59h-470q-35 0 -41 27q-2 12 -3 28q0 31 7 46q7 16 27 39l153 150q134 128 150 217q5 26 5 62t-32 66t-80 30q-47 0 -77 -10t-52 -21t-39 -21q-16 -10 -24 -10q-22 0 -22 52t12 63q28 28 90 50t130 22q127 0 192 -58q64 -58 64 -145
q1 -87 -29 -142q-55 -101 -190 -227l-106 -101h334z" />
    <glyph glyph-name="uni00B3" unicode="&#xb3;" horiz-adv-x="685" 
d="M107 1336q-20 0 -20 48t11 59q23 23 89 46q66 22 132 22q126 0 187 -52t61 -133q0 -164 -155 -197v-2q82 -6 135 -57q54 -51 54 -116q0 -121 -82 -184q-82 -62 -215 -62t-204 38q-28 15 -31 33q-4 19 -4 59t22 40q6 0 22 -9t62 -27t117 -19q71 0 112 30t41 85
q0 124 -193 124h-72q-29 0 -29 55t28 55h69q83 0 127 33t44 85q0 106 -121 107q-74 1 -164 -51q-16 -10 -23 -10z" />
    <glyph glyph-name="acute" unicode="&#xb4;" horiz-adv-x="598" 
d="M458.5 1388.5q14.5 -13.5 -2.5 -32.5l-181 -233q-22 -27 -43.5 -29.5t-42.5 -2.5q-40 0 -51.5 10t3.5 33l145 231q16 30 47.5 33.5t71.5 3.5q39 0 53.5 -13.5z" />
    <glyph glyph-name="mu" unicode="&#xb5;" horiz-adv-x="1126" 
d="M1086 135q18 0 18 -45t-4 -61t-10 -22q-29 -25 -113 -25t-134 36t-66 124q-136 -157 -275 -157q-138 0 -194 71q10 -110 10 -200v-188q0 -32 -76 -32t-86 18q-4 6 -3 14v1257q1 31 83 31t82 -31v-566q0 -111 49 -173t142 -62q114 0 254 172v629q1 31 83 31t82 -31v-654
q0 -83 17 -115q17 -33 56 -33t59 6t26 6z" />
    <glyph glyph-name="paragraph" unicode="&#xb6;" horiz-adv-x="1200" 
d="M965 1294q57 0 57 -60v-1439q0 -29 -72 -29t-71 29v1370h-198v-1370q0 -29 -72 -29t-72 29v738q-205 0 -317.5 99t-112.5 271t114.5 281.5t340.5 109.5h403z" />
    <glyph glyph-name="periodcentered" unicode="&#xb7;" horiz-adv-x="517" 
d="M366 583q0 -70 -23.5 -93.5t-84.5 -23.5t-84 23t-23 93t23.5 93.5t84.5 23.5t84 -23t23 -93z" />
    <glyph glyph-name="periodcentered" unicode="&#x2219;" horiz-adv-x="517" 
d="M366 583q0 -70 -23.5 -93.5t-84.5 -23.5t-84 23t-23 93t23.5 93.5t84.5 23.5t84 -23t23 -93z" />
    <glyph glyph-name="cedilla" unicode="&#xb8;" horiz-adv-x="629" 
d="M284 -241q68 0 68 54q0 26 -22 74l-51 113h145l34 -74q40 -86 40 -127q0 -79 -54 -121.5t-127 -42.5t-122.5 11t-56 22t-6.5 51t28 40h124z" />
    <glyph glyph-name="uni00B9" unicode="&#xb9;" horiz-adv-x="504" 
d="M373 739q0 -24 -71 -24t-71 24v628l-149 -80q-47 -24 -47 30q0 39 4 50q4 12 19 22l186 111q2 1 8 3q6 1 17 3t37 2q67 0 67 -19v-750z" />
    <glyph glyph-name="ordmasculine" unicode="&#xba;" horiz-adv-x="865" 
d="M430 734q170 0 170 226t-170 227q-170 -1 -169 -227q-1 -226 169 -226zM689 470q35 0 35 -62t-35 -63h-518q-35 1 -35 63t35 62h518zM430 610q-330 0 -330 348q0 248 126 300t208 52t143 -24.5t101.5 -69t61.5 -108.5t21 -184t-86.5 -217t-244.5 -97z" />
    <glyph glyph-name="guillemotright" unicode="&#xbb;" horiz-adv-x="1049" 
d="M173 903q0 15 65 15t75.5 -8.5t15.5 -16.5l219 -336q14 -21 14 -40.5t-15 -41.5l-214 -329q-14 -22 -37.5 -23.5t-46.5 -1.5q-72 0 -72 15.5t7 25.5l215 355l-220 361q-6 10 -6 25zM616 101q-71 0 -70 17t7 27l213 374l-214 373q-21 34 7.5 40t52.5 6q44 0 58 -4.5
t27 -21.5l220 -353q14 -23 14 -43t-15 -43l-217 -346q-14 -23 -37.5 -24.5t-45.5 -1.5z" />
    <glyph glyph-name="onequarter" unicode="&#xbc;" horiz-adv-x="1303" 
d="M992 536h-2l-199 -302h201v302zM1205 234q23 0 23 -52t-23 -52h-75v-113q0 -23 -69 -23t-69 23v113h-286q-31 0 -31 38q0 55 3 69q3 15 15 34l236 362q15 20 108 20t93 -23v-396h75zM159 -36q-83 0 -48 52l900 1289q14 22 40 25q27 3 48 3q42 0 54 -14t-5 -38l-901 -1289
q-12 -22 -40 -25q-27 -3 -48 -3zM406 1289v-625q0 -23 -72 -23t-71 23v504l-149 -78q-28 -14 -37 -6t-9 32q0 42 4 53q4 12 18 21l187 110q20 5 75 5q54 0 54 -16z" />
    <glyph glyph-name="onehalf" unicode="&#xbd;" horiz-adv-x="1375" 
d="M406 1289v-625q0 -23 -72 -23t-71 23v504l-149 -78q-28 -14 -37 -6t-9 32q0 42 4 53q4 12 18 21l187 110q20 5 75 5q54 0 54 -16zM1257 111q27 1 27 -55t-23 -56h-413q-34 0 -40 27q-2 11 -2 28q0 32 5 48t25 32l133 122q79 75 104 114q26 39 26 83t-27 69t-67 25
q-41 0 -67 -8t-46 -18t-32 -17q-13 -8 -20 -8q-20 -1 -20 39t2 50t10 18q15 18 75 38q59 20 120 20q113 0 169 -51q57 -51 57 -127q0 -77 -40 -141q-40 -65 -146 -152l-95 -80h285zM159 -36q-83 0 -48 52l900 1289q14 22 40 25q27 3 48 3q42 0 54 -14t-5 -38l-901 -1289
q-12 -22 -40 -25q-27 -3 -48 -3z" />
    <glyph glyph-name="threequarters" unicode="&#xbe;" horiz-adv-x="1383" 
d="M112 1155q-21 0 -21 43q-1 42 9 52q21 21 81 40t120 19q110 0 167 -45t57 -127q1 -83 -79 -129q-26 -14 -56 -22q118 -12 153 -96q11 -26 11 -65q0 -83 -76 -138t-188 -55q-111 0 -161 23t-54 40t-4 53t18 36q8 0 22 -8t52 -22q38 -16 90 -16q80 0 113 27t33 64
q0 98 -163 98h-66q-27 0 -27 50t25 50h65q71 -1 108 25t37 66q0 87 -109 87q-55 -1 -137 -43q-14 -8 -20 -7zM238 -36q-83 0 -48 52l900 1289q14 22 40 25q27 3 48 3q42 0 54 -14t-5 -38l-901 -1289q-12 -22 -40 -25q-27 -3 -48 -3zM1072 536h-2l-199 -302h201v302z
M1285 234q23 0 23 -52t-23 -52h-75v-113q0 -23 -69 -23t-69 23v113h-286q-31 0 -31 38q0 55 3 69q3 15 15 34l236 362q15 20 108 20t93 -23v-396h75z" />
    <glyph glyph-name="questiondown" unicode="&#xbf;" horiz-adv-x="949" 
d="M431 1168q21 24 68 24t67 -6q20 -5 33 -18q12 -13 17 -35q4 -21 4 -55q0 -69 -22 -91t-68 -23q-45 0 -66 6q-20 5 -33 18q-21 22 -21 89t21 91zM786 25q30 0 30 -59t-13 -70q-33 -32 -120 -60t-187 -28q-195 0 -299 108q-103 107 -103 276t93 269q93 99 250 109l7 241
q0 30 68 30t76 -11q7 -11 7 -19l6 -277q3 -64 -40 -74q-14 -3 -32 -4h-22q-123 0 -181 -70q-59 -70 -59 -181q0 -183 145 -240q48 -19 110 -19t106 13q43 12 75 27t53 27q20 12 30 12z" />
    <glyph glyph-name="Agrave" unicode="&#xc0;" horiz-adv-x="1185" 
d="M584 1122h-1l-223 -645h450zM990.5 0q-15.5 6 -24.5 25l-111 315h-538l-106 -311q-9 -28 -38 -31.5t-57 -3.5q-60 0 -74 12.5t2 55.5l434 1202q8 22 29.5 29t67.5 7q78 0 101 -7t31 -30l434 -1202q16 -43 4 -53q-16 -14 -77.5 -14t-77 6zM598 1395q-68 0 -99 31l-226 212
q-37 32 15 46q18 4 46 5q53 0 77.5 -7.5t43.5 -30.5l188 -213q29 -34 -9 -40q-14 -2 -36 -3z" />
    <glyph glyph-name="Aacute" unicode="&#xc1;" horiz-adv-x="1185" 
d="M584 1122h-1l-223 -645h450zM990.5 0q-15.5 6 -24.5 25l-111 315h-538l-106 -311q-9 -28 -38 -31.5t-57 -3.5q-60 0 -74 12.5t2 55.5l434 1202q8 22 29.5 29t67.5 7q78 0 101 -7t31 -30l434 -1202q16 -43 4 -53q-16 -14 -77.5 -14t-77 6zM892.5 1674.5
q14.5 -14.5 -5.5 -36.5l-227 -212q-26 -26 -52 -28.5t-48 -2.5q-43 0 -53 10.5t8 32.5l189 213q27 32 60.5 35t73.5 3t54.5 -14.5z" />
    <glyph glyph-name="Acircumflex" unicode="&#xc2;" horiz-adv-x="1185" 
d="M584 1122h-1l-223 -645h450zM990.5 0q-15.5 6 -24.5 25l-111 315h-538l-106 -311q-9 -28 -38 -31.5t-57 -3.5q-60 0 -74 12.5t2 55.5l434 1202q8 22 29.5 29t67.5 7q78 0 101 -7t31 -30l434 -1202q16 -43 4 -53q-16 -14 -77.5 -14t-77 6zM699 1660l214 -227
q27 -30 -13 -36q-14 -2 -40 -2q-80 0 -102 22l-154 173l-159 -168q-24 -24 -54 -25.5t-56 -1.5q-47 0 -58 9t7 29l224 227q22 25 49 27t59 2q54 0 83 -29z" />
    <glyph glyph-name="Atilde" unicode="&#xc3;" horiz-adv-x="1185" 
d="M584 1122h-1l-223 -645h450zM990.5 0q-15.5 6 -24.5 25l-111 315h-538l-106 -311q-9 -28 -38 -31.5t-57 -3.5q-60 0 -74 12.5t2 55.5l434 1202q8 22 29.5 29t67.5 7q78 0 101 -7t31 -30l434 -1202q16 -43 4 -53q-16 -14 -77.5 -14t-77 6zM743 1522q76 0 76 92q0 22 49 22
t60 -7.5t11 -32.5q0 -93 -51.5 -146.5t-137.5 -53.5t-172 58q-32 22 -60.5 39t-60.5 17q-76 0 -76 -92q0 -22 -49 -22t-60 8t-11 44q0 84 54 136t125 52t110 -18t71 -39t60.5 -39t61.5 -18z" />
    <glyph glyph-name="Adieresis" unicode="&#xc4;" horiz-adv-x="1185" 
d="M584 1122h-1l-223 -645h450zM990.5 0q-15.5 6 -24.5 25l-111 315h-538l-106 -311q-9 -28 -38 -31.5t-57 -3.5q-60 0 -74 12.5t2 55.5l434 1202q8 22 29.5 29t67.5 7q78 0 101 -7t31 -30l434 -1202q16 -43 4 -53q-16 -14 -77.5 -14t-77 6zM901 1528.5q0 -55.5 -20.5 -76.5
t-76.5 -21t-76.5 20.5t-20.5 76t21 76t77 20.5t76 -20t20 -75.5zM488 1528.5q0 -55.5 -21 -76.5t-77 -21t-76 20.5t-20 76t20.5 76t76.5 20.5t76.5 -20t20.5 -75.5z" />
    <glyph glyph-name="Aring" unicode="&#xc5;" horiz-adv-x="1185" 
d="M584 1122h-1l-223 -645h450zM990.5 0q-15.5 6 -24.5 25l-111 315h-538l-106 -311q-9 -28 -38 -31.5t-57 -3.5q-60 0 -74 12.5t2 55.5l434 1202q8 22 29.5 29t67.5 7q78 0 101 -7t31 -30l434 -1202q16 -43 4 -53q-16 -14 -77.5 -14t-77 6zM690 1545q0 99 -92.5 99
t-92.5 -96.5t95 -96.5q46 0 68 26.5t22 67.5zM802 1551q0 -131 -122 -177q-38 -14 -88 -14q-96 0 -147 49t-51 135q0 133 120 176q38 14 87 14q97 0 149 -48.5t52 -134.5z" />
    <glyph glyph-name="AE" unicode="&#xc6;" horiz-adv-x="1563" 
d="M735 1151h-6l-375 -697h381v697zM1420 143q33 0 33 -71.5t-33 -71.5h-621q-24 0 -44 15.5t-20 54.5v246h-446l-154 -288q-14 -29 -45.5 -31.5t-56.5 -2.5q-47 0 -66 4.5t-19 20t15 43.5l652 1195q12 24 36 30.5t81 6.5h680q34 0 34 -71.5t-34 -71.5h-506v-407h434
q35 0 35 -71.5t-35 -71.5h-434v-458h514z" />
    <glyph glyph-name="Ccedilla" unicode="&#xc7;" horiz-adv-x="1092" 
d="M1000 1035q-14 -1 -39 19q-135 106 -258.5 106t-194 -34.5t-120.5 -101.5q-105 -141 -105 -384q0 -370 224 -472q72 -32 154 -32t140.5 18.5t100 42.5t67.5 43t37 19q19 0 24.5 -15.5t5.5 -46t-1 -42.5t-3.5 -21t-6.5 -16t-14 -17q-35 -35 -122 -71t-179 -43l27 -61
q40 -82 40 -125q0 -81 -53 -123.5t-126 -42.5q-73 -1 -116 9q-57 12 -63.5 23.5t-6.5 51.5t28 40h123q69 0 69 54q0 26 -22 74l-46 102q-198 21 -322 165q-144 166 -144.5 479t155.5 495t413 182q164 0 287 -74q53 -32 61 -47q17 -29 17 -91.5t-31 -62.5z" />
    <glyph glyph-name="Egrave" unicode="&#xc8;" horiz-adv-x="1000" 
d="M857 143q35 0 35 -71.5t-35 -71.5h-621q-23 0 -43.5 15.5t-20.5 54.5v1154q0 39 20.5 54.5t43.5 15.5h614q34 0 34 -71.5t-34 -71.5h-506v-406h434q34 0 34 -69.5t-34 -69.5h-434v-463h513zM540 1395q-68 0 -99 31l-226 212q-37 32 15 46q18 4 46 5q53 0 77.5 -7.5
t43.5 -30.5l188 -213q29 -34 -9 -40q-14 -2 -36 -3z" />
    <glyph glyph-name="Eacute" unicode="&#xc9;" horiz-adv-x="1000" 
d="M857 143q35 0 35 -71.5t-35 -71.5h-621q-23 0 -43.5 15.5t-20.5 54.5v1154q0 39 20.5 54.5t43.5 15.5h614q34 0 34 -71.5t-34 -71.5h-506v-406h434q34 0 34 -69.5t-34 -69.5h-434v-463h513zM842.5 1674.5q14.5 -14.5 -5.5 -36.5l-227 -212q-26 -26 -52 -28.5t-48 -2.5
q-43 0 -53 10.5t8 32.5l189 213q27 32 60.5 35t73.5 3t54.5 -14.5z" />
    <glyph glyph-name="Ecircumflex" unicode="&#xca;" horiz-adv-x="1000" 
d="M857 143q35 0 35 -71.5t-35 -71.5h-621q-23 0 -43.5 15.5t-20.5 54.5v1154q0 39 20.5 54.5t43.5 15.5h614q34 0 34 -71.5t-34 -71.5h-506v-406h434q34 0 34 -69.5t-34 -69.5h-434v-463h513zM629 1660l214 -227q27 -30 -13 -36q-14 -2 -40 -2q-80 0 -102 22l-154 173
l-159 -168q-24 -24 -54 -25.5t-56 -1.5q-47 0 -58 9t7 29l224 227q22 25 49 27t59 2q54 0 83 -29z" />
    <glyph glyph-name="Edieresis" unicode="&#xcb;" horiz-adv-x="1000" 
d="M857 143q35 0 35 -71.5t-35 -71.5h-621q-23 0 -43.5 15.5t-20.5 54.5v1154q0 39 20.5 54.5t43.5 15.5h614q34 0 34 -71.5t-34 -71.5h-506v-406h434q34 0 34 -69.5t-34 -69.5h-434v-463h513zM838 1528.5q0 -55.5 -20.5 -76.5t-76.5 -21t-76.5 20.5t-20.5 76t21 76t77 20.5
t76 -20t20 -75.5zM425 1528.5q0 -55.5 -21 -76.5t-77 -21t-76 20.5t-20 76t20.5 76t76.5 20.5t76.5 -20t20.5 -75.5z" />
    <glyph glyph-name="Igrave" unicode="&#xcc;" horiz-adv-x="516" 
d="M258 1300q86 0 86 -32v-1242q0 -32 -86 -32t-86 32v1242q0 32 86 32zM289 1395q-68 0 -99 31l-226 212q-36 32 16 46q18 4 44 5q53 0 78 -7.5t44 -30.5l188 -213q28 -34 -10 -40q-14 -2 -35 -3z" />
    <glyph glyph-name="Iacute" unicode="&#xcd;" horiz-adv-x="516" 
d="M258 1300q86 0 86 -32v-1242q0 -32 -86 -32t-86 32v1242q0 32 86 32zM561.5 1674.5q14.5 -14.5 -5.5 -36.5l-227 -212q-26 -26 -52 -28.5t-48 -2.5q-43 0 -53 10.5t8 32.5l189 213q27 32 60.5 35t73.5 3t54.5 -14.5z" />
    <glyph glyph-name="Icircumflex" unicode="&#xce;" horiz-adv-x="516" 
d="M258 1300q86 0 86 -32v-1242q0 -32 -86 -32t-86 32v1242q0 32 86 32zM360 1660l214 -227q27 -30 -13 -36q-14 -2 -40 -2q-80 0 -102 22l-154 173l-159 -168q-24 -24 -54 -25.5t-56 -1.5q-47 0 -58 9t7 29l224 227q22 25 49 27t59 2q54 0 83 -29z" />
    <glyph glyph-name="Idieresis" unicode="&#xcf;" horiz-adv-x="516" 
d="M258 1300q86 0 86 -32v-1242q0 -32 -86 -32t-86 32v1242q0 32 86 32zM563 1528.5q0 -55.5 -20.5 -76.5t-76.5 -21t-76.5 20.5t-20.5 76t21 76t77 20.5t76 -20t20 -75.5zM150 1528.5q0 -55.5 -21 -76.5t-77 -21t-76 20.5t-20 76t20.5 76t76.5 20.5t76.5 -20t20.5 -75.5z
" />
    <glyph glyph-name="Eth" unicode="&#xd0;" horiz-adv-x="1279" 
d="M598 744q33 0 33 -71.5t-33 -71.5h-236v-457h178q239 0 351.5 127.5t112.5 387.5q0 348 -248 455q-86 37 -219 37h-175v-407h236zM61 601q-34 0 -34 71.5t34 71.5h130v480q0 39 20 54.5t43 15.5h293q471 0 599 -366q40 -116 40 -273q0 -323 -167 -489t-491 -166h-274
q-23 0 -43 15.5t-20 54.5v531h-130z" />
    <glyph glyph-name="Ntilde" unicode="&#xd1;" horiz-adv-x="1322" 
d="M987 1265q0 32 81.5 32t81.5 -32v-1194q0 -56 -47 -70q-13 -4 -26 -4h-55q-52 0 -83.5 26t-72.5 103l-408 736q-69 122 -125 241h-2q4 -144 4 -296v-781q0 -32 -81.5 -32t-81.5 32v1194q0 40 22 57t48 17h82q55 0 82.5 -20.5t62.5 -84.5l314 -568q66 -118 99.5 -182.5
t58 -111t48.5 -93.5h1q-3 118 -3 329v702zM805 1522q76 0 76 92q0 22 49 22t60 -7.5t11 -32.5q0 -93 -51.5 -146.5t-137.5 -53.5t-172 58q-32 22 -60.5 39t-60.5 17q-76 0 -76 -92q0 -22 -49 -22t-60 8t-11 44q0 84 54 136t125 52t110 -18t71 -39t60.5 -39t61.5 -18z" />
    <glyph glyph-name="Ograve" unicode="&#xd2;" horiz-adv-x="1356" 
d="M1075 652q0 514 -394 514q-207 0 -311 -154q-88 -130 -89 -360q-1 -380 203 -484q76 -38 189.5 -38t190.5 42t124 114q87 132 87 366zM99 640q0 316 151 494.5t441 178.5q565 0 565 -651q0 -320 -150 -500.5t-441 -180.5q-566 0 -566 659zM712 1395q-68 0 -99 31
l-226 212q-37 32 15 46q18 4 46 5q53 0 77.5 -7.5t43.5 -30.5l188 -213q29 -34 -9 -40q-14 -2 -36 -3z" />
    <glyph glyph-name="Oacute" unicode="&#xd3;" horiz-adv-x="1356" 
d="M1075 652q0 514 -394 514q-207 0 -311 -154q-88 -130 -89 -360q-1 -380 203 -484q76 -38 189.5 -38t190.5 42t124 114q87 132 87 366zM99 640q0 316 151 494.5t441 178.5q565 0 565 -651q0 -320 -150 -500.5t-441 -180.5q-566 0 -566 659zM970.5 1674.5
q14.5 -14.5 -5.5 -36.5l-227 -212q-26 -26 -52 -28.5t-48 -2.5q-43 0 -53 10.5t8 32.5l189 213q27 32 60.5 35t73.5 3t54.5 -14.5z" />
    <glyph glyph-name="Ocircumflex" unicode="&#xd4;" horiz-adv-x="1356" 
d="M1075 652q0 514 -394 514q-207 0 -311 -154q-88 -130 -89 -360q-1 -380 203 -484q76 -38 189.5 -38t190.5 42t124 114q87 132 87 366zM99 640q0 316 151 494.5t441 178.5q565 0 565 -651q0 -320 -150 -500.5t-441 -180.5q-566 0 -566 659zM783 1660l214 -227
q27 -30 -13 -36q-14 -2 -40 -2q-80 0 -102 22l-154 173l-159 -168q-24 -24 -54 -25.5t-56 -1.5q-47 0 -58 9t7 29l224 227q22 25 49 27t59 2q54 0 83 -29z" />
    <glyph glyph-name="Otilde" unicode="&#xd5;" horiz-adv-x="1356" 
d="M1075 652q0 514 -394 514q-207 0 -311 -154q-88 -130 -89 -360q-1 -380 203 -484q76 -38 189.5 -38t190.5 42t124 114q87 132 87 366zM99 640q0 316 151 494.5t441 178.5q565 0 565 -651q0 -320 -150 -500.5t-441 -180.5q-566 0 -566 659zM827 1522q76 0 76 92
q0 22 49 22t60 -7.5t11 -32.5q0 -93 -51.5 -146.5t-137.5 -53.5t-172 58q-32 22 -60.5 39t-60.5 17q-76 0 -76 -92q0 -22 -49 -22t-60 8t-11 44q0 84 54 136t125 52t110 -18t71 -39t60.5 -39t61.5 -18z" />
    <glyph glyph-name="Odieresis" unicode="&#xd6;" horiz-adv-x="1356" 
d="M1075 652q0 514 -394 514q-207 0 -311 -154q-88 -130 -89 -360q-1 -380 203 -484q76 -38 189.5 -38t190.5 42t124 114q87 132 87 366zM99 640q0 316 151 494.5t441 178.5q565 0 565 -651q0 -320 -150 -500.5t-441 -180.5q-566 0 -566 659zM985 1528.5
q0 -55.5 -20.5 -76.5t-76.5 -21t-76.5 20.5t-20.5 76t21 76t77 20.5t76 -20t20 -75.5zM572 1528.5q0 -55.5 -21 -76.5t-77 -21t-76 20.5t-20 76t20.5 76t76.5 20.5t76.5 -20t20.5 -75.5z" />
    <glyph glyph-name="multiply" unicode="&#xd7;" horiz-adv-x="1020" 
d="M889 190.5q-34 -30.5 -48 -30.5t-29 10l-303 304l-303 -303q-12 -10 -25 -10q-23 0 -54 32.5t-31 49.5q0 18 10 29l304 304l-303 303q-11 11 -11 24q0 24 33 55t51 31q17 0 28 -11l303 -304l303 303q12 11 24 11q23 0 54.5 -33t31.5 -51t-10 -27l-304 -304l302 -301
q11 -13 11 -32t-34 -49.5z" />
    <glyph glyph-name="Oslash" unicode="&#xd8;" horiz-adv-x="1359" 
d="M672 1168q-202 0 -306 -154q-88 -131 -88 -387t119 -388l445 897q-66 32 -170 32zM994 284q88 132 87.5 383t-118.5 386l-444 -894q68 -31 170 -31q202 0 305 156zM1260 662q0 -320 -153 -500.5t-440 -180.5q-119 0 -214 35l-111 -222q-12 -24 -87 -24t-73 30q0 10 6 21
l128 259q-217 154 -217 560q0 316 151 494.5t442 178.5q112 0 215 -37l108 221q12 21 42.5 23t51.5 2q69 0 67 -30q0 -10 -6 -22l-127 -258q217 -161 217 -550z" />
    <glyph glyph-name="Ugrave" unicode="&#xd9;" horiz-adv-x="1314" 
d="M974 1268q0 32 85.5 32t85.5 -32v-790q0 -234 -131.5 -365.5t-358 -131.5t-356 124t-129.5 360v803q0 32 85.5 32t85.5 -32v-782q-1 -264 185 -336q58 -22 133 -22q151 0 233 89.5t82 259.5v791zM673 1395q-68 0 -99 31l-226 212q-36 32 16 46q18 4 44 5q53 0 78 -7.5
t44 -30.5l188 -213q28 -34 -10 -40q-14 -2 -35 -3z" />
    <glyph glyph-name="Uacute" unicode="&#xda;" horiz-adv-x="1314" 
d="M974 1268q0 32 85.5 32t85.5 -32v-790q0 -234 -131.5 -365.5t-358 -131.5t-356 124t-129.5 360v803q0 32 85.5 32t85.5 -32v-782q-1 -264 185 -336q58 -22 133 -22q151 0 233 89.5t82 259.5v791zM949.5 1674.5q14.5 -14.5 -5.5 -36.5l-227 -212q-26 -26 -52 -28.5
t-48 -2.5q-43 0 -53 10.5t8 32.5l189 213q27 32 60.5 35t73.5 3t54.5 -14.5z" />
    <glyph glyph-name="Ucircumflex" unicode="&#xdb;" horiz-adv-x="1314" 
d="M974 1268q0 32 85.5 32t85.5 -32v-790q0 -234 -131.5 -365.5t-358 -131.5t-356 124t-129.5 360v803q0 32 85.5 32t85.5 -32v-782q-1 -264 185 -336q58 -22 133 -22q151 0 233 89.5t82 259.5v791zM755 1660l214 -227q27 -30 -13 -36q-14 -2 -40 -2q-80 0 -102 22l-154 173
l-159 -168q-24 -24 -54 -25.5t-56 -1.5q-47 0 -58 9t7 29l224 227q22 25 49 27t59 2q54 0 83 -29z" />
    <glyph glyph-name="Udieresis" unicode="&#xdc;" horiz-adv-x="1314" 
d="M974 1268q0 32 85.5 32t85.5 -32v-790q0 -234 -131.5 -365.5t-358 -131.5t-356 124t-129.5 360v803q0 32 85.5 32t85.5 -32v-782q-1 -264 185 -336q58 -22 133 -22q151 0 233 89.5t82 259.5v791zM959 1528.5q0 -55.5 -20.5 -76.5t-76.5 -21t-76.5 20.5t-20.5 76t21 76
t77 20.5t76 -20t20 -75.5zM546 1528.5q0 -55.5 -21 -76.5t-77 -21t-76 20.5t-20 76t20.5 76t76.5 20.5t76.5 -20t20.5 -75.5z" />
    <glyph glyph-name="Yacute" unicode="&#xdd;" horiz-adv-x="998" 
d="M585 26q0 -32 -86.5 -32t-86.5 32v477l-366 730q-21 44 -9 55.5t61 11.5q73 0 93 -6.5t31 -27.5l179 -372q25 -53 50 -111t51 -117h2q42 103 97 225l180 374q6 21 25 28t61 7q78 0 92 -12t-8 -55l-366 -730v-477zM835.5 1674.5q14.5 -14.5 -5.5 -36.5l-227 -212
q-26 -26 -52 -28.5t-48 -2.5q-43 0 -53 10.5t8 32.5l189 213q27 32 60.5 35t73.5 3t54.5 -14.5z" />
    <glyph glyph-name="Thorn" unicode="&#xde;" horiz-adv-x="1058" 
d="M786 701q0 76 -44 138t-127 83q-36 11 -109 11h-162v-518h183q120 0 189.5 73.5t69.5 212.5zM258 1302q86 0 86 -31v-195h173q348 0 430 -246q20 -60 20 -144q0 -182 -122 -297t-332 -115h-169v-252q0 -31 -86 -31t-86 31v1249q0 31 86 31z" />
    <glyph glyph-name="germandbls" unicode="&#xdf;" horiz-adv-x="1080" 
d="M319 28q0 -34 -76 -34q-77 0 -87 20q-4 6 -3 14v957q-1 295 221 385q72 30 166 30q172 0 266 -93t94 -224q0 -94 -23 -154t-33 -69q-12 -9 -44 -9q-70 0 -110.5 -35.5t-40.5 -85.5t27 -83.5t67 -60.5t87 -53q180 -100 180 -265q0 -126 -89 -206.5t-238 -80.5
q-81 0 -134.5 24.5t-59 44.5t-5.5 49q0 65 29 65q12 0 25 -8t49 -26t85 -18q83 0 126.5 39.5t43.5 89.5t-15 78t-40.5 50.5t-57.5 42.5q-31 20 -65 40q-83 51 -131 108.5t-48 155.5q-1 152 137 217q42 20 93 28q18 39 18 91q0 97 -50.5 154t-145.5 57q-218 0 -218 -272v-963
z" />
    <glyph glyph-name="agrave" unicode="&#xe0;" horiz-adv-x="981" 
d="M526 435q-265 0 -265 -172q0 -70 44.5 -111.5t117 -41.5t128 33t116.5 101v191h-141zM169 743q-33 0 -33 55.5t17 72.5q37 36 131 67.5t192 31.5q190 0 272.5 -83.5t82.5 -255.5v-607q0 -30 -60.5 -30t-71 9t-10.5 21v90q-125 -133 -285 -133q-220 0 -290 158
q-22 51 -22 121q0 143 118 218.5t333 75.5h124v70q0 160 -110 198q-39 14 -98 14t-107.5 -14.5t-85 -32t-61 -32t-36.5 -14.5zM461.5 1097.5q-17.5 6.5 -30.5 25.5l-181 233q-28 32 22 42q18 4 43 4q48 0 68.5 -7.5t36.5 -29.5l144 -231q15 -23 7 -30q-14 -13 -53 -13
t-56.5 6.5z" />
    <glyph glyph-name="aacute" unicode="&#xe1;" horiz-adv-x="981" 
d="M526 435q-265 0 -265 -172q0 -70 44.5 -111.5t117 -41.5t128 33t116.5 101v191h-141zM169 743q-33 0 -33 55.5t17 72.5q37 36 131 67.5t192 31.5q190 0 272.5 -83.5t82.5 -255.5v-607q0 -30 -60.5 -30t-71 9t-10.5 21v90q-125 -133 -285 -133q-220 0 -290 158
q-22 51 -22 121q0 143 118 218.5t333 75.5h124v70q0 160 -110 198q-39 14 -98 14t-107.5 -14.5t-85 -32t-61 -32t-36.5 -14.5zM740.5 1388.5q14.5 -13.5 -2.5 -32.5l-181 -233q-22 -27 -43.5 -29.5t-42.5 -2.5q-40 0 -51.5 10t3.5 33l145 231q16 30 47.5 33.5t71 3.5
t54 -13.5z" />
    <glyph glyph-name="acircumflex" unicode="&#xe2;" horiz-adv-x="981" 
d="M526 435q-265 0 -265 -172q0 -70 44.5 -111.5t117 -41.5t128 33t116.5 101v191h-141zM169 743q-33 0 -33 55.5t17 72.5q37 36 131 67.5t192 31.5q190 0 272.5 -83.5t82.5 -255.5v-607q0 -30 -60.5 -30t-71 9t-10.5 21v90q-125 -133 -285 -133q-220 0 -290 158
q-22 51 -22 121q0 143 118 218.5t333 75.5h124v70q0 160 -110 198q-39 14 -98 14t-107.5 -14.5t-85 -32t-61 -32t-36.5 -14.5zM242 1147l165 229q13 20 42 23t51 3q69 0 87 -26l165 -229q41 -56 -31 -56q-53 0 -65.5 4.5t-28.5 25.5l-130 180l-130 -180q-15 -25 -37.5 -27.5
t-57.5 -2.5q-75 0 -30 56z" />
    <glyph glyph-name="atilde" unicode="&#xe3;" horiz-adv-x="981" 
d="M526 435q-265 0 -265 -172q0 -70 44.5 -111.5t117 -41.5t128 33t116.5 101v191h-141zM169 743q-33 0 -33 55.5t17 72.5q37 36 131 67.5t192 31.5q190 0 272.5 -83.5t82.5 -255.5v-607q0 -30 -60.5 -30t-71 9t-10.5 21v90q-125 -133 -285 -133q-220 0 -290 158
q-22 51 -22 121q0 143 118 218.5t333 75.5h124v70q0 160 -110 198q-39 14 -98 14t-107.5 -14.5t-85 -32t-61 -32t-36.5 -14.5zM634 1223q73 0 73 105q0 16 10.5 21.5t46.5 5.5t48 -7.5t12 -33.5q0 -106 -52 -162t-129 -56t-116 24.5t-59 41.5t-52 41.5t-67 24.5
q-72 0 -72 -106q0 -16 -10.5 -21t-38.5 -5q-45 0 -57 8t-12 34q0 99 50 158t136 59q87 1 171 -65q32 -24 59 -45.5t59 -21.5z" />
    <glyph glyph-name="adieresis" unicode="&#xe4;" horiz-adv-x="981" 
d="M526 435q-265 0 -265 -172q0 -70 44.5 -111.5t117 -41.5t128 33t116.5 101v191h-141zM169 743q-33 0 -33 55.5t17 72.5q37 36 131 67.5t192 31.5q190 0 272.5 -83.5t82.5 -255.5v-607q0 -30 -60.5 -30t-71 9t-10.5 21v90q-125 -133 -285 -133q-220 0 -290 158
q-22 51 -22 121q0 143 118 218.5t333 75.5h124v70q0 160 -110 198q-39 14 -98 14t-107.5 -14.5t-85 -32t-61 -32t-36.5 -14.5zM765 1216q0 -54 -20 -74t-74 -20t-73 19.5t-19 74t19.5 74.5t74 20t73.5 -20t19 -74zM411 1216q0 -54 -20 -74t-74 -20t-73 19.5t-19 74
t19.5 74.5t74 20t73.5 -20t19 -74z" />
    <glyph glyph-name="aring" unicode="&#xe5;" horiz-adv-x="981" 
d="M526 435q-265 0 -265 -172q0 -70 44.5 -111.5t117 -41.5t128 33t116.5 101v191h-141zM169 743q-33 0 -33 55.5t17 72.5q37 36 131 67.5t192 31.5q190 0 272.5 -83.5t82.5 -255.5v-607q0 -30 -60.5 -30t-71 9t-10.5 21v90q-125 -133 -285 -133q-220 0 -290 158
q-22 51 -22 121q0 143 118 218.5t333 75.5h124v70q0 160 -110 198q-39 14 -98 14t-107.5 -14.5t-85 -32t-61 -32t-36.5 -14.5zM496 1158q44 0 66.5 26.5t22.5 67t-21.5 69t-67.5 28.5q-92 0 -92 -95.5t92 -95.5zM691 1258q0 -81 -54 -133t-147 -52q-142 -1 -180 105
q-12 32 -12 73q0 83 52 133t146 50t144.5 -47.5t50.5 -128.5z" />
    <glyph glyph-name="ae" unicode="&#xe6;" horiz-adv-x="1583" 
d="M665 435h-139q-265 0 -265 -172q0 -70 44.5 -111.5t117 -41.5t134.5 37t130 120q-22 68 -22 168zM1082 841q-114 0 -179 -78.5t-72 -199.5h489q3 201 -133 259q-45 20 -105 19zM778 817q99 153 305 153t304 -119.5t98 -306.5v-30q0 -39 -19.5 -55.5t-43.5 -16.5h-591
q-1 -240 157 -304q56 -23 129 -23t122.5 10.5t86 23.5t60.5 23.5t35 10.5q27 0 27 -55.5t-12 -67.5q-25 -25 -122 -52t-205 -27q-255 0 -364 168q-142 -168 -351.5 -168t-279.5 158q-22 51 -22 121q0 143 118 218.5t333 75.5h124v70q0 160 -110 198q-39 14 -98 14
t-107.5 -14.5t-85.5 -32t-62 -32t-37 -14.5q-31 0 -31 55.5t17 72.5q37 36 131 67.5t192 31.5q230 0 302 -153z" />
    <glyph glyph-name="ccedilla" unicode="&#xe7;" horiz-adv-x="866" 
d="M773 238q27 0 27 -61t-7 -74q-15 -27 -79 -67t-169 -52l26 -58q40 -86 40 -127q0 -79 -54 -121q-55 -43 -127 -43q-72 -1 -115 9q-57 13 -63.5 24t-6.5 51t28 40h124q68 0 68 54q0 26 -22 74l-47 104q-202 38 -272 241q-34 99 -34 232q0 254 116.5 379.5t303.5 125.5
q126 0 218 -59q63 -40 67 -86q1 -12 1 -30q0 -70 -31 -70q-15 0 -35 16q-106 89 -223.5 89.5t-181 -91t-63.5 -265.5q0 -261 144 -327q46 -22 104.5 -22t101.5 18t74.5 39.5t53 39t33.5 17.5z" />
    <glyph glyph-name="egrave" unicode="&#xe8;" horiz-adv-x="1019" 
d="M520 841q-117 0 -183 -80.5t-70 -197.5h488q3 130 -57.5 204t-177.5 74zM856 183q27 1 27 -55q1 -56 -11 -68q-25 -25 -109 -48q-237 -66 -415 0q-256 95 -255 459q0 233 116.5 366t315 133t297.5 -118.5t99 -307.5v-30q0 -39 -19.5 -55.5t-44.5 -16.5h-590
q0 -240 156 -304q56 -23 128.5 -23t122.5 10.5t86.5 23.5t60 23.5t35.5 10.5zM488.5 1097.5q-17.5 6.5 -30.5 25.5l-181 233q-29 32 21 42q18 4 44 4q48 0 68.5 -7.5t36.5 -29.5l144 -231q15 -23 7 -30q-14 -13 -53 -13t-56.5 6.5z" />
    <glyph glyph-name="eacute" unicode="&#xe9;" horiz-adv-x="1019" 
d="M520 841q-117 0 -183 -80.5t-70 -197.5h488q3 130 -57.5 204t-177.5 74zM856 183q27 1 27 -55q1 -56 -11 -68q-25 -25 -109 -48q-237 -66 -415 0q-256 95 -255 459q0 233 116.5 366t315 133t297.5 -118.5t99 -307.5v-30q0 -39 -19.5 -55.5t-44.5 -16.5h-590
q0 -240 156 -304q56 -23 128.5 -23t122.5 10.5t86.5 23.5t60 23.5t35.5 10.5zM765.5 1388.5q14.5 -13.5 -2.5 -32.5l-181 -233q-22 -27 -43.5 -29.5t-42.5 -2.5q-40 0 -51.5 10t3.5 33l145 231q16 30 47.5 33.5t71 3.5t54 -13.5z" />
    <glyph glyph-name="ecircumflex" unicode="&#xea;" horiz-adv-x="1019" 
d="M520 841q-117 0 -183 -80.5t-70 -197.5h488q3 130 -57.5 204t-177.5 74zM856 183q27 1 27 -55q1 -56 -11 -68q-25 -25 -109 -48q-237 -66 -415 0q-256 95 -255 459q0 233 116.5 366t315 133t297.5 -118.5t99 -307.5v-30q0 -39 -19.5 -55.5t-44.5 -16.5h-590
q0 -240 156 -304q56 -23 128.5 -23t122.5 10.5t86.5 23.5t60 23.5t35.5 10.5zM262 1147l165 229q13 20 42 23t51 3q69 0 87 -26l165 -229q41 -56 -31 -56q-53 0 -65.5 4.5t-28.5 25.5l-130 180l-130 -180q-15 -25 -37.5 -27.5t-57.5 -2.5q-75 0 -30 56z" />
    <glyph glyph-name="edieresis" unicode="&#xeb;" horiz-adv-x="1019" 
d="M520 841q-117 0 -183 -80.5t-70 -197.5h488q3 130 -57.5 204t-177.5 74zM856 183q27 1 27 -55q1 -56 -11 -68q-25 -25 -109 -48q-237 -66 -415 0q-256 95 -255 459q0 233 116.5 366t315 133t297.5 -118.5t99 -307.5v-30q0 -39 -19.5 -55.5t-44.5 -16.5h-590
q0 -240 156 -304q56 -23 128.5 -23t122.5 10.5t86.5 23.5t60 23.5t35.5 10.5zM787 1216q0 -54 -20 -74t-74 -20t-73 19.5t-19 74t19.5 74.5t74 20t73.5 -20t19 -74zM433 1216q0 -54 -20 -74t-74 -20t-73 19.5t-19 74t19.5 74.5t74 20t73.5 -20t19 -74z" />
    <glyph glyph-name="igrave" unicode="&#xec;" horiz-adv-x="470" 
d="M318 925v-900q0 -31 -75 -31t-87 18q-4 6 -3 13v900q0 31 82.5 31t82.5 -31zM206.5 1097.5q-17.5 6.5 -30.5 25.5l-181 233q-29 32 21 42q18 4 44 4q48 0 68.5 -7.5t36.5 -29.5l144 -231q15 -23 7 -30q-14 -13 -53 -13t-56.5 6.5z" />
    <glyph glyph-name="iacute" unicode="&#xed;" horiz-adv-x="470" 
d="M318 925v-900q0 -31 -75 -31t-87 18q-4 6 -3 13v900q0 31 82.5 31t82.5 -31zM473.5 1388.5q14.5 -13.5 -2.5 -32.5l-181 -233q-22 -27 -43.5 -29.5t-42.5 -2.5q-40 0 -51.5 10t3.5 33l145 231q16 30 47.5 33.5t71 3.5t54 -13.5z" />
    <glyph glyph-name="icircumflex" unicode="&#xee;" horiz-adv-x="470" 
d="M318 925v-900q0 -31 -75 -31t-87 18q-4 6 -3 13v900q0 31 82.5 31t82.5 -31zM-17 1147l165 229q13 20 42 23q28 3 50 3q69 0 88 -26l165 -229q41 -56 -31 -56q-53 0 -65.5 4.5t-28.5 25.5l-130 180l-130 -180q-15 -25 -37.5 -27.5t-57.5 -2.5q-75 0 -30 56z" />
    <glyph glyph-name="idieresis" unicode="&#xef;" horiz-adv-x="470" 
d="M318 925v-900q0 -31 -75 -31t-87 18q-4 6 -3 13v900q0 31 82.5 31t82.5 -31zM483 1216.5q0 -53.5 -20 -74t-72 -20.5t-71 19.5t-19 73.5t19.5 74.5t71.5 20.5t71.5 -20t19.5 -73.5zM172 1216.5q0 -53.5 -20 -74t-72 -20.5t-71 19.5t-19 73.5t19.5 74.5t71.5 20.5
t71.5 -20t19.5 -73.5z" />
    <glyph glyph-name="eth" unicode="&#xf0;" horiz-adv-x="1076" 
d="M752.5 357.5q17.5 80.5 17.5 171.5t-4 129q-154 170 -266.5 170t-172.5 -97t-60 -249q0 -249 119 -330q44 -30 110.5 -30t118 25t86 77.5t52 133zM296 1191l190 49q-11 12 -24.5 27t-52.5 55t-40 47.5t12 14.5t60 7q73 0 99 -6.5t44 -22.5q27 -31 47.5 -53.5t23.5 -26.5
l253 64q30 8 36 -22q2 -12 2 -28q0 -61 -39 -69l-171 -44q160 -211 192 -435q12 -80 12 -198q0 -265 -111.5 -417t-328.5 -152q-403 0 -403 483q0 243 103 374.5t284 131.5q136 0 251 -115q-49 152 -165 287l-274 -70q-30 -6 -35 22q-2 12 -2 38q0 51 37 59z" />
    <glyph glyph-name="ntilde" unicode="&#xf1;" horiz-adv-x="1076" 
d="M606 970q322 0 322 -396v-549q0 -31 -82.5 -31t-82.5 31v527q0 275 -191 275q-116 0 -254 -173v-629q0 -31 -75 -31t-87 18q-4 6 -3 13v900q0 31 74.5 31t74.5 -31v-119q147 164 304 164zM682 1223q73 0 73 105q0 16 10.5 21.5t46.5 5.5t48 -7.5t12 -33.5
q0 -106 -52 -162t-129 -56t-116 24.5t-59 41.5t-52 41.5t-67 24.5q-72 0 -72 -106q0 -16 -10.5 -21t-38.5 -5q-46 0 -57.5 8t-11.5 34q0 99 50 158t136 59q87 1 171 -65q32 -24 59 -45.5t59 -21.5z" />
    <glyph glyph-name="ograve" unicode="&#xf2;" horiz-adv-x="1080" 
d="M263 478q0 -358 275 -358q140 0 209 95t69 259q0 358 -274 358q-208 0 -262 -212q-16 -65 -17 -142zM990 486q0 -229 -118.5 -367t-341.5 -138q-328 0 -413 282q-27 90 -27 202q0 231 118 368t341 137q327 0 413 -282q28 -90 28 -202zM504.5 1097.5q-17.5 6.5 -30.5 25.5
l-181 233q-29 32 21 42q18 4 44 4q48 0 68.5 -7.5t36.5 -29.5l144 -231q15 -23 7 -30q-14 -13 -53 -13t-56.5 6.5z" />
    <glyph glyph-name="oacute" unicode="&#xf3;" horiz-adv-x="1080" 
d="M263 478q0 -358 275 -358q140 0 209 95t69 259q0 358 -274 358q-208 0 -262 -212q-16 -65 -17 -142zM990 486q0 -229 -118.5 -367t-341.5 -138q-328 0 -413 282q-27 90 -27 202q0 231 118 368t341 137q327 0 413 -282q28 -90 28 -202zM794.5 1388.5
q14.5 -13.5 -2.5 -32.5l-181 -233q-22 -27 -43.5 -29.5t-42.5 -2.5q-40 0 -51.5 10t3.5 33l145 231q16 30 47.5 33.5t71 3.5t54 -13.5z" />
    <glyph glyph-name="ocircumflex" unicode="&#xf4;" horiz-adv-x="1080" 
d="M263 478q0 -358 275 -358q140 0 209 95t69 259q0 358 -274 358q-208 0 -262 -212q-16 -65 -17 -142zM990 486q0 -229 -118.5 -367t-341.5 -138q-328 0 -413 282q-27 90 -27 202q0 231 118 368t341 137q327 0 413 -282q28 -90 28 -202zM285 1147l165 229q13 20 42 23
q28 3 50 3q69 0 88 -26l165 -229q41 -56 -31 -56q-53 0 -65.5 4.5t-28.5 25.5l-130 180l-130 -180q-15 -25 -37.5 -27.5t-57.5 -2.5q-75 0 -30 56z" />
    <glyph glyph-name="otilde" unicode="&#xf5;" horiz-adv-x="1080" 
d="M263 478q0 -358 275 -358q140 0 209 95t69 259q0 358 -274 358q-208 0 -262 -212q-16 -65 -17 -142zM990 486q0 -229 -118.5 -367t-341.5 -138q-328 0 -413 282q-27 90 -27 202q0 231 118 368t341 137q327 0 413 -282q28 -90 28 -202zM683 1223q73 0 73 105
q0 16 10.5 21.5t46.5 5.5t48 -7.5t12 -33.5q0 -106 -52 -162t-129 -56t-116 24.5t-59 41.5t-52 41.5t-67 24.5q-72 0 -72 -106q0 -16 -10.5 -21t-38.5 -5q-45 0 -57 8t-12 34q0 99 50 158t136 59q86 1 170 -65q32 -24 59.5 -45.5t59.5 -21.5z" />
    <glyph glyph-name="odieresis" unicode="&#xf6;" horiz-adv-x="1080" 
d="M263 478q0 -358 275 -358q140 0 209 95t69 259q0 358 -274 358q-208 0 -262 -212q-16 -65 -17 -142zM990 486q0 -229 -118.5 -367t-341.5 -138q-328 0 -413 282q-27 90 -27 202q0 231 118 368t341 137q327 0 413 -282q28 -90 28 -202zM811 1216q0 -54 -20 -74t-74 -20
t-73 19.5t-19 74t19.5 74.5t74 20t73.5 -20t19 -74zM457 1216q0 -54 -20 -74t-74 -20t-73 19.5t-19 74t19.5 74.5t74 20t73.5 -20t19 -74z" />
    <glyph glyph-name="divide" unicode="&#xf7;" horiz-adv-x="1020" 
d="M592.5 111q-25.5 -26 -74.5 -26q-81 0 -107 26.5t-26 76.5q0 85 25 112t75 27t72.5 -6t41.5 -26.5t19 -88.5q0 -69 -25.5 -95zM925 646q35 0 35 -70t-35 -70h-849q-33 0 -33 70t33 70h849zM593 849.5q-25 -26.5 -75 -26.5q-82 0 -107.5 27.5t-25.5 76.5q0 84 25.5 111.5
t75.5 27.5q49 0 71.5 -6.5t41.5 -27t19 -88.5t-25 -94.5z" />
    <glyph glyph-name="oslash" unicode="&#xf8;" horiz-adv-x="1084" 
d="M413 812q-159 -78 -159 -347q0 -180 86 -266l301 625q-43 15 -108.5 14.5t-119.5 -26.5zM549 113q138 0 209.5 97t71.5 276.5t-86 265.5l-299 -623q36 -16 104 -16zM533.5 970q97.5 0 165.5 -20l65 137q14 27 69.5 27t66 -10t-1.5 -33l-81 -171q177 -114 177 -415
q0 -228 -119.5 -366t-342.5 -138q-88 0 -147 21l-68 -141q-12 -27 -68 -27t-66.5 10t0.5 33l84 174q-177 117 -177 416q0 229 115 362q58 67 144.5 104t184 37z" />
    <glyph glyph-name="ugrave" unicode="&#xf9;" horiz-adv-x="1076" 
d="M841 956q83 0 83 -31v-900q0 -31 -68.5 -31t-78.5 18q-3 6 -3 13v119q-148 -163 -304 -163q-322 0 -322 398v546q0 31 83 31t83 -31v-524q0 -278 190 -278q114 0 254 173v629q0 31 83 31zM494.5 1097.5q-17.5 6.5 -30.5 25.5l-181 233q-29 32 21 42q18 4 44 4
q48 0 68.5 -7.5t36.5 -29.5l144 -231q15 -23 7 -30q-14 -13 -53 -13t-56.5 6.5z" />
    <glyph glyph-name="uacute" unicode="&#xfa;" horiz-adv-x="1076" 
d="M841 956q83 0 83 -31v-900q0 -31 -68.5 -31t-78.5 18q-3 6 -3 13v119q-148 -163 -304 -163q-322 0 -322 398v546q0 31 83 31t83 -31v-524q0 -278 190 -278q114 0 254 173v629q0 31 83 31zM792.5 1388.5q14.5 -13.5 -2.5 -32.5l-181 -233q-22 -27 -43.5 -29.5t-42.5 -2.5
q-40 0 -51.5 10t3.5 33l145 231q16 30 47.5 33.5t71 3.5t54 -13.5z" />
    <glyph glyph-name="ucircumflex" unicode="&#xfb;" horiz-adv-x="1076" 
d="M841 956q83 0 83 -31v-900q0 -31 -68.5 -31t-78.5 18q-3 6 -3 13v119q-148 -163 -304 -163q-322 0 -322 398v546q0 31 83 31t83 -31v-524q0 -278 190 -278q114 0 254 173v629q0 31 83 31zM283 1147l165 229q13 20 42 23q28 3 50 3q69 0 88 -26l165 -229q41 -56 -31 -56
q-53 0 -65.5 4.5t-28.5 25.5l-130 180l-130 -180q-15 -25 -37.5 -27.5t-57.5 -2.5q-75 0 -30 56z" />
    <glyph glyph-name="udieresis" unicode="&#xfc;" horiz-adv-x="1076" 
d="M841 956q83 0 83 -31v-900q0 -31 -68.5 -31t-78.5 18q-3 6 -3 13v119q-148 -163 -304 -163q-322 0 -322 398v546q0 31 83 31t83 -31v-524q0 -278 190 -278q114 0 254 173v629q0 31 83 31zM809 1216q0 -54 -20 -74t-74 -20t-73 19.5t-19 74t19.5 74.5t74 20t73.5 -20
t19 -74zM455 1216q0 -54 -20 -74t-74 -20t-73 19.5t-19 74t19.5 74.5t74 20t73.5 -20t19 -74z" />
    <glyph glyph-name="yacute" unicode="&#xfd;" horiz-adv-x="927" 
d="M443 -331q-12 -33 -84 -33t-88 11.5t-4 39.5l124 313q-21 9 -28 32l-321 860q-8 21 -8 33t8 19t26 9.5t48 2.5q56 0 72 -6.5t26 -32.5l257 -722h3l248 726q6 19 18.5 27t55.5 8t61 -2.5t26.5 -9.5t8.5 -19t-6 -30zM724.5 1388.5q14.5 -13.5 -2.5 -32.5l-181 -233
q-22 -27 -43.5 -29.5t-42.5 -2.5q-40 0 -51.5 10t3.5 33l145 231q16 30 47.5 33.5t71 3.5t54 -13.5z" />
    <glyph glyph-name="thorn" unicode="&#xfe;" horiz-adv-x="1076" 
d="M318 294q140 -171 256 -171q118 -1 180 109q53 94 53 240q0 155 -47 245q-58 111 -180 111t-262 -176v-358zM318 1361v-539q114 114 218 139q38 9 108 9t140 -38q196 -109 196 -459q2 -350 -220 -457q-72 -35 -140 -35q-105 0 -164.5 31t-137.5 106v-450q0 -32 -76 -32
t-86 18q-4 6 -3 14v1693q0 32 82.5 32t82.5 -32z" />
    <glyph glyph-name="ydieresis" unicode="&#xff;" horiz-adv-x="927" 
d="M443 -331q-12 -33 -84 -33t-88 11.5t-4 39.5l124 313q-21 9 -28 32l-321 860q-8 21 -8 33t8 19t26 9.5t48 2.5q56 0 72 -6.5t26 -32.5l257 -722h3l248 726q6 19 18.5 27t55.5 8t61 -2.5t26.5 -9.5t8.5 -19t-6 -30zM735 1216q0 -54 -20 -74t-74 -20t-73 19.5t-19 74
t19.5 74.5t74 20t73.5 -20t19 -74zM381 1216q0 -54 -20 -74t-74 -20t-73 19.5t-19 74t19.5 74.5t74 20t73.5 -20t19 -74z" />
    <glyph glyph-name="Amacron" unicode="&#x100;" horiz-adv-x="1185" 
d="M584 1122h-1l-223 -645h450zM990.5 0q-15.5 6 -24.5 25l-111 315h-538l-106 -311q-9 -28 -38 -31.5t-57 -3.5q-60 0 -74 12.5t2 55.5l434 1202q8 22 29.5 29t67.5 7q78 0 101 -7t31 -30l434 -1202q16 -43 4 -53q-16 -14 -77.5 -14t-77 6zM326 1457q-33 0 -33 66.5
t33 66.5h546q31 0 31 -66.5t-31 -66.5h-546z" />
    <glyph glyph-name="amacron" unicode="&#x101;" horiz-adv-x="981" 
d="M526 435q-265 0 -265 -172q0 -70 44.5 -111.5t117 -41.5t128 33t116.5 101v191h-141zM169 743q-33 0 -33 55.5t17 72.5q37 36 131 67.5t192 31.5q190 0 272.5 -83.5t82.5 -255.5v-607q0 -30 -60.5 -30t-71 9t-10.5 21v90q-125 -133 -285 -133q-220 0 -290 158
q-22 51 -22 121q0 143 118 218.5t333 75.5h124v70q0 160 -110 198q-39 14 -98 14t-107.5 -14.5t-85 -32t-61 -32t-36.5 -14.5zM257 1164q-33 0 -33 64.5t33 64.5h479q32 0 32 -64.5t-32 -64.5h-479z" />
    <glyph glyph-name="Abreve" unicode="&#x102;" horiz-adv-x="1185" 
d="M584 1122h-1l-223 -645h450zM990.5 0q-15.5 6 -24.5 25l-111 315h-538l-106 -311q-9 -28 -38 -31.5t-57 -3.5q-60 0 -74 12.5t2 55.5l434 1202q8 22 29.5 29t67.5 7q78 0 101 -7t31 -30l434 -1202q16 -43 4 -53q-16 -14 -77.5 -14t-77 6zM859 1664q0 -192 -152 -250
q-49 -18 -113 -19q-126 0 -191.5 72.5t-65.5 196.5q0 15 11.5 21.5t47.5 6.5t50 -4t14 -20q2 -64 36.5 -108t94 -44t90 24t42 57t12.5 56.5t12 31t49.5 7.5t50.5 -6.5t12 -21.5z" />
    <glyph glyph-name="abreve" unicode="&#x103;" horiz-adv-x="981" 
d="M526 435q-265 0 -265 -172q0 -70 44.5 -111.5t117 -41.5t128 33t116.5 101v191h-141zM169 743q-33 0 -33 55.5t17 72.5q37 36 131 67.5t192 31.5q190 0 272.5 -83.5t82.5 -255.5v-607q0 -30 -60.5 -30t-71 9t-10.5 21v90q-125 -133 -285 -133q-220 0 -290 158
q-22 51 -22 121q0 143 118 218.5t333 75.5h124v70q0 160 -110 198q-39 14 -98 14t-107.5 -14.5t-85 -32t-61 -32t-36.5 -14.5zM635 1365q0 30 54 30q53 1 61 -15q2 -6 3 -13q0 -271 -258 -271t-258 268q0 31 59 31t59 -30q7 -75 30 -103q41 -49 109 -49q134 0 141 152z" />
    <glyph glyph-name="Aogonek" unicode="&#x104;" horiz-adv-x="1185" 
d="M584 1122h-1l-223 -645h450zM1146 -241q28 0 28 -32.5t-2.5 -42.5t-6.5 -16q-3 -8 -11 -12q-36 -22 -138 -21q-211 0 -211 149q0 75 90 165l72 72l-112 319h-538l-106 -311q-22 -49 -110 -37q-51 7 -62 17t5 53l434 1202q8 22 29.5 29t67.5 7q78 0 100 -7t32 -30
l420 -1163q16 -49 10.5 -71t-47.5 -63l-77 -77q-42 -42 -42 -80q0 -50 86 -50h89z" />
    <glyph glyph-name="aogonek" unicode="&#x105;" horiz-adv-x="981" 
d="M526 435q-265 0 -265 -172q0 -70 44.5 -111.5t117 -41.5t128 33t116.5 101v191h-141zM871 -242q28 0 28 -32q0 -48 -6 -57q-23 -34 -133 -34q-214 0 -214 149q0 77 82 159l62 62v111h-2q-120 -135 -284 -135q-220 0 -290 158q-22 51 -22 121q0 143 118 218.5t333 75.5
h124v70q0 160 -110 198q-39 14 -98 14t-107.5 -14.5t-85 -32t-61 -32t-36.5 -14.5q-33 0 -33 55.5t17 72.5q37 36 131 67.5t192 31.5q190 0 272.5 -83.5t82.5 -255.5v-598q0 -57 -28 -87l-57 -56q-40 -42 -40 -79q0 -53 71 -53h94z" />
    <glyph glyph-name="Cacute" unicode="&#x106;" horiz-adv-x="1092" 
d="M1000 1035q-14 -1 -39 19q-135 106 -258.5 106t-194 -34.5t-120.5 -101.5q-105 -141 -105 -384q0 -370 224 -472q72 -32 156 -32t141.5 19t98 42.5t66.5 42.5t37 19q19 0 24.5 -15.5t5.5 -46t-1 -42.5t-3.5 -21t-6.5 -16t-14 -17q-35 -35 -135 -76t-228 -41
q-258 0 -404.5 168t-146.5 481t156 495t413 182q164 0 287 -74q53 -32 61 -47q17 -29 17 -91.5t-31 -62.5zM910.5 1674.5q14.5 -14.5 -5.5 -36.5l-227 -212q-26 -26 -52 -28.5t-48 -2.5q-43 0 -53 10.5t8 32.5l189 213q27 32 60.5 35t73.5 3t54.5 -14.5z" />
    <glyph glyph-name="cacute" unicode="&#x107;" horiz-adv-x="866" 
d="M773 238q27 0 27 -61t-7 -74t-19 -25q-35 -35 -115 -66t-172 -31q-190 0 -293.5 126t-103.5 368.5t116.5 368t303.5 125.5q126 0 218 -59q63 -40 67 -86q1 -12 1 -30q0 -70 -31 -70q-15 0 -35 16q-106 89 -223.5 89.5t-181 -91t-63.5 -265.5q0 -261 144 -327
q46 -22 104.5 -22t101.5 18t74.5 39.5t53 39t33.5 17.5zM723.5 1388.5q14.5 -13.5 -2.5 -32.5l-181 -233q-22 -27 -43.5 -29.5t-42.5 -2.5q-40 0 -51.5 10t3.5 33l145 231q16 30 47.5 33.5t71 3.5t54 -13.5z" />
    <glyph glyph-name="Ccircumflex" unicode="&#x108;" horiz-adv-x="1092" 
d="M1000 1035q-14 -1 -39 19q-135 106 -258.5 106t-194 -34.5t-120.5 -101.5q-105 -141 -105 -384q0 -370 224 -472q72 -32 156 -32t141.5 19t98 42.5t66.5 42.5t37 19q19 0 24.5 -15.5t5.5 -46t-1 -42.5t-3.5 -21t-6.5 -16t-14 -17q-35 -35 -135 -76t-228 -41
q-258 0 -404.5 168t-146.5 481t156 495t413 182q164 0 287 -74q53 -32 61 -47q17 -29 17 -91.5t-31 -62.5zM738 1660l214 -227q27 -30 -13 -36q-14 -2 -40 -2q-80 0 -102 22l-154 173l-159 -168q-24 -24 -54 -25.5t-56 -1.5q-47 0 -58 9t7 29l224 227q22 25 49 27t59 2
q54 0 83 -29z" />
    <glyph glyph-name="ccircumflex" unicode="&#x109;" horiz-adv-x="866" 
d="M773 238q27 0 27 -61t-7 -74t-19 -25q-35 -35 -115 -66t-172 -31q-190 0 -293.5 126t-103.5 368.5t116.5 368t303.5 125.5q126 0 218 -59q63 -40 67 -86q1 -12 1 -30q0 -70 -31 -70q-15 0 -35 16q-106 89 -223.5 89.5t-181 -91t-63.5 -265.5q0 -261 144 -327
q46 -22 104.5 -22t101.5 18t74.5 39.5t53 39t33.5 17.5zM227 1147l165 229q13 20 42 23q28 3 50 3q69 0 88 -26l165 -229q41 -56 -31 -56q-53 0 -65.5 4.5t-28.5 25.5l-130 180l-130 -180q-15 -25 -37.5 -27.5t-57.5 -2.5q-75 0 -30 56z" />
    <glyph glyph-name="Cdotaccent" unicode="&#x10a;" horiz-adv-x="1092" 
d="M1000 1035q-14 -1 -39 19q-135 106 -258.5 106t-194 -34.5t-120.5 -101.5q-105 -141 -105 -384q0 -370 224 -472q72 -32 156 -32t141.5 19t98 42.5t66.5 42.5t37 19q19 0 24.5 -15.5t5.5 -46t-1 -42.5t-3.5 -21t-6.5 -16t-14 -17q-35 -35 -135 -76t-228 -41
q-258 0 -404.5 168t-146.5 481t156 495t413 182q164 0 287 -74q53 -32 61 -47q17 -29 17 -91.5t-31 -62.5zM754 1528q0 -55 -22 -76t-78.5 -21t-77.5 20.5t-21 75.5t21.5 76.5t78 21.5t78 -21t21.5 -76z" />
    <glyph glyph-name="cdotaccent" unicode="&#x10b;" horiz-adv-x="866" 
d="M773 238q27 0 27 -61t-7 -74t-19 -25q-35 -35 -115 -66t-172 -31q-190 0 -293.5 126t-103.5 368.5t116.5 368t303.5 125.5q126 0 218 -59q63 -40 67 -86q1 -12 1 -30q0 -70 -31 -70q-15 0 -35 16q-106 89 -223.5 89.5t-181 -91t-63.5 -265.5q0 -261 144 -327
q46 -22 104.5 -22t101.5 18t74.5 39.5t53 39t33.5 17.5zM589 1231q0 -55 -22 -76t-78.5 -21t-77.5 20.5t-21 75.5t21.5 76t78 21t78 -20.5t21.5 -75.5z" />
    <glyph glyph-name="Ccaron" unicode="&#x10c;" horiz-adv-x="1092" 
d="M1000 1035q-14 -1 -39 19q-135 106 -258.5 106t-194 -34.5t-120.5 -101.5q-105 -141 -105 -384q0 -370 224 -472q72 -32 156 -32t141.5 19t98 42.5t66.5 42.5t37 19q19 0 24.5 -15.5t5.5 -46t-1 -42.5t-3.5 -21t-6.5 -16t-14 -17q-35 -35 -135 -76t-228 -41
q-258 0 -404.5 168t-146.5 481t156 495t413 182q164 0 287 -74q53 -32 61 -47q17 -29 17 -91.5t-31 -62.5zM581 1399.5q-16 4.5 -36 24.5l-214 227q-27 30 13 36q14 2 40 2q26 1 44 -1q36 -3 58 -22l154 -172l160 168q21 24 52 26q30 2 56 1q49 0 59.5 -9t-7.5 -29
l-223 -227q-22 -25 -49.5 -27t-59 -2t-47.5 4.5z" />
    <glyph glyph-name="ccaron" unicode="&#x10d;" horiz-adv-x="866" 
d="M773 238q27 0 27 -61t-7 -74t-19 -25q-35 -35 -115 -66t-172 -31q-190 0 -293.5 126t-103.5 368.5t116.5 368t303.5 125.5q126 0 218 -59q63 -40 67 -86q1 -12 1 -30q0 -70 -31 -70q-15 0 -35 16q-106 89 -223.5 89.5t-181 -91t-63.5 -265.5q0 -261 144 -327
q46 -22 104.5 -22t101.5 18t74.5 39.5t53 39t33.5 17.5zM747 1346l-165 -229q-15 -20 -43 -23q-27 -3 -49 -3q-70 0 -89 26l-165 229q-44 56 32 56q53 0 67 -6t26 -24l130 -181l130 181q19 25 40 27.5t56 2.5q71 0 30 -56z" />
    <glyph glyph-name="Dcaron" unicode="&#x10e;" horiz-adv-x="1260" 
d="M873.5 1017q-112.5 134 -354.5 134h-175v-1007h177q239 0 352 127t113 369.5t-112.5 376.5zM1167 655q0 -322 -166.5 -488.5t-490.5 -166.5h-274q-23 0 -43.5 15.5t-20.5 54.5v1154q0 39 20.5 54.5t43.5 15.5h293q469 0 597 -366q40 -116 41 -273zM544 1399.5
q-16 4.5 -36 24.5l-214 227q-27 30 13 36q14 2 40 2q26 1 44 -1q36 -3 58 -22l154 -172l160 168q21 24 52 25.5t57 1.5q49 0 59 -9t-8 -29l-223 -227q-22 -25 -49.5 -27t-59 -2t-47.5 4.5z" />
    <glyph glyph-name="dcaron" unicode="&#x10f;" horiz-adv-x="1164" 
d="M267 482q0 -248 116 -330q43 -30 92 -30q83 0 146 41.5t137 134.5v360q-137 170 -257 170t-177 -101.5t-57 -244.5zM758 1357q0 32 83 32t83 -32v-1332q0 -31 -73.5 -31t-73.5 31v119q-150 -163 -326.5 -163t-265.5 134t-89 359.5t100.5 360.5t287.5 135q144 0 274 -136
v523zM1015 1033q-8 8 -4 23l92 305q11 36 91 36q42 0 53.5 -8t5.5 -29l-125 -312q-6 -19 -30.5 -21t-49.5 -2t-33 8z" />
    <glyph glyph-name="Dcroat" unicode="&#x110;" horiz-adv-x="1279" 
d="M598 744q33 0 33 -71.5t-33 -71.5h-236v-457h178q239 0 351.5 127.5t112.5 387.5q0 348 -248 455q-86 37 -219 37h-175v-407h236zM61 601q-34 0 -34 71.5t34 71.5h130v480q0 39 20 54.5t43 15.5h293q471 0 599 -366q40 -116 40 -273q0 -323 -167 -489t-491 -166h-274
q-23 0 -43 15.5t-20 54.5v531h-130z" />
    <glyph glyph-name="dcroat" unicode="&#x111;" horiz-adv-x="1130" 
d="M267 481q0 -247 116 -329q43 -30 92 -30q83 0 146 41.5t137 134.5v358q-138 171 -257.5 171t-176.5 -100.5t-57 -245.5zM1058 1233q33 0 33 -65t-32 -65h-135v-1078q0 -31 -73.5 -31t-73.5 31v119q-150 -163 -326.5 -163t-265.5 134t-89 349q0 360 220 468q72 36 168 36
q143 0 274 -135v270h-245q-33 0 -33 65t33 65h245v124q0 32 83 32t83 -32v-124h134z" />
    <glyph glyph-name="Emacron" unicode="&#x112;" horiz-adv-x="1000" 
d="M857 143q35 0 35 -71.5t-35 -71.5h-621q-23 0 -43.5 15.5t-20.5 54.5v1154q0 39 20.5 54.5t43.5 15.5h614q34 0 34 -71.5t-34 -71.5h-506v-406h434q34 0 34 -69.5t-34 -69.5h-434v-463h513zM260 1457q-33 0 -33 66.5t33 66.5h546q31 0 31 -66.5t-31 -66.5h-546z" />
    <glyph glyph-name="emacron" unicode="&#x113;" horiz-adv-x="1019" 
d="M520 841q-117 0 -183 -80.5t-70 -197.5h488q3 130 -57.5 204t-177.5 74zM856 183q27 1 27 -55q1 -56 -11 -68q-25 -25 -109 -48q-237 -66 -415 0q-256 95 -255 459q0 233 116.5 366t315 133t297.5 -118.5t99 -307.5v-30q0 -39 -19.5 -55.5t-44.5 -16.5h-590
q0 -240 156 -304q56 -23 128.5 -23t122.5 10.5t86.5 23.5t60 23.5t35.5 10.5zM279 1164q-33 0 -33 64.5t33 64.5h479q32 0 32 -64.5t-32 -64.5h-479z" />
    <glyph glyph-name="Ebreve" unicode="&#x114;" horiz-adv-x="1000" 
d="M857 143q35 0 35 -71.5t-35 -71.5h-621q-23 0 -43.5 15.5t-20.5 54.5v1154q0 39 20.5 54.5t43.5 15.5h614q34 0 34 -71.5t-34 -71.5h-506v-406h434q34 0 34 -69.5t-34 -69.5h-434v-463h513zM783 1664q0 -192 -152 -250q-49 -18 -113 -19q-126 0 -191.5 72.5t-65.5 196.5
q0 15 11.5 21.5t47.5 6.5t50 -4t14 -20q2 -64 36.5 -108t94 -44t90 24t42 57t12.5 56.5t12 31t49.5 7.5t50.5 -6.5t12 -21.5z" />
    <glyph glyph-name="ebreve" unicode="&#x115;" horiz-adv-x="1019" 
d="M520 841q-117 0 -183 -80.5t-70 -197.5h488q3 130 -57.5 204t-177.5 74zM856 183q27 1 27 -55q1 -56 -11 -68q-25 -25 -109 -48q-237 -66 -415 0q-256 95 -255 459q0 233 116.5 366t315 133t297.5 -118.5t99 -307.5v-30q0 -39 -19.5 -55.5t-44.5 -16.5h-590
q0 -240 156 -304q56 -23 128.5 -23t122.5 10.5t86.5 23.5t60 23.5t35.5 10.5zM650 1365q0 30 54 30q54 1 62 -15q2 -6 2 -13q0 -271 -258 -271t-258 268q0 31 59 31t59 -30q7 -75 30 -103q41 -49 109 -49q134 0 141 152z" />
    <glyph glyph-name="Edotaccent" unicode="&#x116;" horiz-adv-x="1000" 
d="M857 143q35 0 35 -71.5t-35 -71.5h-621q-23 0 -43.5 15.5t-20.5 54.5v1154q0 39 20.5 54.5t43.5 15.5h614q34 0 34 -71.5t-34 -71.5h-506v-406h434q34 0 34 -69.5t-34 -69.5h-434v-463h513zM635 1528q0 -55 -22 -76t-78.5 -21t-77.5 20.5t-21 75.5t21.5 76.5t78 21.5
t78 -21t21.5 -76z" />
    <glyph glyph-name="edotaccent" unicode="&#x117;" horiz-adv-x="1019" 
d="M520 841q-117 0 -183 -80.5t-70 -197.5h488q3 130 -57.5 204t-177.5 74zM856 183q27 1 27 -55q1 -56 -11 -68q-25 -25 -109 -48q-237 -66 -415 0q-256 95 -255 459q0 233 116.5 366t315 133t297.5 -118.5t99 -307.5v-30q0 -39 -19.5 -55.5t-44.5 -16.5h-590
q0 -240 156 -304q56 -23 128.5 -23t122.5 10.5t86.5 23.5t60 23.5t35.5 10.5zM621 1231q0 -55 -22 -76t-78.5 -21t-77.5 20.5t-21 75.5t21.5 76t78 21t78 -20.5t21.5 -75.5z" />
    <glyph glyph-name="Eogonek" unicode="&#x118;" horiz-adv-x="1000" 
d="M769 -365q-210 0 -210 151q0 76 74 152l62 62h-459q-23 0 -43.5 15.5t-20.5 54.5v1154q0 39 20.5 54.5t43.5 15.5h614q34 0 34 -71.5t-34 -71.5h-506v-406h434q34 0 34 -69.5t-34 -69.5h-434v-463h513q35 0 35 -62t-23 -85l-109 -108q-38 -42 -38 -76q0 -53 75 -53h107
q28 0 28 -44q0 -45 -18 -55q-6 -4 -46 -14.5t-99 -10.5z" />
    <glyph glyph-name="eogonek" unicode="&#x119;" horiz-adv-x="1019" 
d="M520 841q-117 0 -183 -80.5t-70 -197.5h488q3 130 -57.5 204t-177.5 74zM344 13q-251 95 -251 454q0 236 116.5 369.5t315 133.5t297.5 -118.5t99 -307.5v-30q0 -39 -19.5 -55.5t-44.5 -16.5h-590q0 -240 156 -304q56 -23 128.5 -23t122.5 10.5t86.5 23.5t60 23.5
t35.5 10.5q27 0 27 -60.5t-7.5 -73t-16.5 -21.5l-136 -137q-42 -42 -42 -78q0 -55 74 -55h109q27 0 27 -45t-11.5 -51t-49 -16.5t-121.5 -10.5t-136 38t-52 113t79 154l54 55q-54 -13 -141 -13t-169 31z" />
    <glyph glyph-name="Ecaron" unicode="&#x11a;" horiz-adv-x="1000" 
d="M857 143q35 0 35 -71.5t-35 -71.5h-621q-23 0 -43.5 15.5t-20.5 54.5v1154q0 39 20.5 54.5t43.5 15.5h614q34 0 34 -71.5t-34 -71.5h-506v-406h434q34 0 34 -69.5t-34 -69.5h-434v-463h513zM463 1399.5q-16 4.5 -36 24.5l-214 227q-27 30 13 36q14 2 40 2q26 1 44 -1
q36 -3 58 -22l154 -172l160 168q21 24 52 26q30 2 56 1q49 0 59.5 -9t-7.5 -29l-223 -227q-22 -25 -49.5 -27t-59 -2t-47.5 4.5z" />
    <glyph glyph-name="ecaron" unicode="&#x11b;" horiz-adv-x="1019" 
d="M520 841q-117 0 -183 -80.5t-70 -197.5h488q3 130 -57.5 204t-177.5 74zM856 183q27 1 27 -55q1 -56 -11 -68q-25 -25 -109 -48q-237 -66 -415 0q-256 95 -255 459q0 233 116.5 366t315 133t297.5 -118.5t99 -307.5v-30q0 -39 -19.5 -55.5t-44.5 -16.5h-590
q0 -240 156 -304q56 -23 128.5 -23t122.5 10.5t86.5 23.5t60 23.5t35.5 10.5zM771 1346l-165 -229q-15 -20 -43 -23q-27 -3 -49 -3q-70 0 -89 26l-165 229q-44 56 32 56q53 0 67 -6t26 -24l130 -181l130 181q19 25 40 27.5t56 2.5q71 0 30 -56z" />
    <glyph glyph-name="Gcircumflex" unicode="&#x11c;" horiz-adv-x="1292" 
d="M669 567q-34 0 -34 70.5t34 70.5h411q61 0 61 -70v-493q0 -55 -47 -79q-170 -84 -344 -84q-322 0 -490.5 178t-168.5 480t177.5 487t465.5 185q129 0 259 -45t146 -100q5 -17 5 -49q0 -75 -31 -75q-12 0 -40 19q-152 103 -325 103q-228 0 -352 -145t-124 -379t127 -371.5
t334 -137.5q130 0 236 58v377h-300zM788 1660l214 -227q27 -30 -13 -36q-14 -2 -40 -2q-80 0 -102 22l-154 173l-159 -168q-24 -24 -54 -25.5t-56 -1.5q-47 0 -58 9t7 29l224 227q22 25 49 27t59 2q54 0 83 -29z" />
    <glyph glyph-name="gcircumflex" unicode="&#x11d;" horiz-adv-x="964" 
d="M215 -107q0 -65 66 -99q67 -34 163 -33q160 0 223 49t63 115q0 127 -176 132l-233 8q-106 -83 -106 -172zM647 647q0 92 -50.5 143.5t-143 51.5t-141 -57.5t-48.5 -145t50.5 -138.5t141.5 -51q142 0 180 122q12 36 11 75zM871 951q34 0 34 -66.5t-34 -66.5h-129
q63 -65 63 -156q0 -167 -96 -253t-233.5 -86t-200.5 51q-41 -41 -41 -85q0 -88 119 -92l235 -10q215 -7 284 -141q23 -44 23 -104q0 -131 -110.5 -219t-321.5 -88t-310.5 65t-99.5 183.5t130 220.5q-96 49 -96 150t87 190q-67 80 -67 176q0 171 96.5 259.5t252.5 88.5
q77 0 143 -17h272zM227 1147l165 229q13 20 42 23q28 3 50 3q69 0 88 -26l165 -229q41 -56 -31 -56q-53 0 -65.5 4.5t-28.5 25.5l-130 180l-130 -180q-15 -25 -37.5 -27.5t-57.5 -2.5q-75 0 -30 56z" />
    <glyph glyph-name="Gbreve" unicode="&#x11e;" horiz-adv-x="1292" 
d="M669 567q-34 0 -34 70.5t34 70.5h411q61 0 61 -70v-493q0 -55 -47 -79q-170 -84 -344 -84q-322 0 -490.5 178t-168.5 480t177.5 487t465.5 185q129 0 259 -45t146 -100q5 -17 5 -49q0 -75 -31 -75q-12 0 -40 19q-152 103 -325 103q-228 0 -352 -145t-124 -379t127 -371.5
t334 -137.5q130 0 236 58v377h-300zM947 1664q0 -192 -152 -250q-49 -18 -113 -19q-126 0 -191.5 72.5t-65.5 196.5q0 15 11.5 21.5t47.5 6.5t50 -4t14 -20q2 -64 36.5 -108t94 -44t90 24t42 57t12.5 56.5t12 31t49.5 7.5t50.5 -6.5t12 -21.5z" />
    <glyph glyph-name="gbreve" unicode="&#x11f;" horiz-adv-x="964" 
d="M215 -107q0 -65 66 -99q67 -34 163 -33q160 0 223 49t63 115q0 127 -176 132l-233 8q-106 -83 -106 -172zM647 647q0 92 -50.5 143.5t-143 51.5t-141 -57.5t-48.5 -145t50.5 -138.5t141.5 -51q142 0 180 122q12 36 11 75zM871 951q34 0 34 -66.5t-34 -66.5h-129
q63 -65 63 -156q0 -167 -96 -253t-233.5 -86t-200.5 51q-41 -41 -41 -85q0 -88 119 -92l235 -10q215 -7 284 -141q23 -44 23 -104q0 -131 -110.5 -219t-321.5 -88t-310.5 65t-99.5 183.5t130 220.5q-96 49 -96 150t87 190q-67 80 -67 176q0 171 96.5 259.5t252.5 88.5
q77 0 143 -17h272zM623 1365q0 30 54 30q53 1 61 -15q2 -6 3 -13q0 -271 -258 -271t-258 268q0 31 59 31t59 -30q7 -75 30 -103q41 -49 109 -49q134 0 141 152z" />
    <glyph glyph-name="Gdotaccent" unicode="&#x120;" horiz-adv-x="1292" 
d="M669 567q-34 0 -34 70.5t34 70.5h411q61 0 61 -70v-493q0 -55 -47 -79q-170 -84 -344 -84q-322 0 -490.5 178t-168.5 480t177.5 487t465.5 185q129 0 259 -45t146 -100q5 -17 5 -49q0 -75 -31 -75q-12 0 -40 19q-152 103 -325 103q-228 0 -352 -145t-124 -379t127 -371.5
t334 -137.5q130 0 236 58v377h-300zM819 1528q0 -55 -22 -76t-78.5 -21t-77.5 20.5t-21 75.5t21.5 76.5t78 21.5t78 -21t21.5 -76z" />
    <glyph glyph-name="gdotaccent" unicode="&#x121;" horiz-adv-x="964" 
d="M215 -107q0 -65 66 -99q67 -34 163 -33q160 0 223 49t63 115q0 127 -176 132l-233 8q-106 -83 -106 -172zM647 647q0 92 -50.5 143.5t-143 51.5t-141 -57.5t-48.5 -145t50.5 -138.5t141.5 -51q142 0 180 122q12 36 11 75zM871 951q34 0 34 -66.5t-34 -66.5h-129
q63 -65 63 -156q0 -167 -96 -253t-233.5 -86t-200.5 51q-41 -41 -41 -85q0 -88 119 -92l235 -10q215 -7 284 -141q23 -44 23 -104q0 -131 -110.5 -219t-321.5 -88t-310.5 65t-99.5 183.5t130 220.5q-96 49 -96 150t87 190q-67 80 -67 176q0 171 96.5 259.5t252.5 88.5
q77 0 143 -17h272zM585 1231q0 -55 -22 -76t-78.5 -21t-77.5 20.5t-21 75.5t21.5 76t78 21t78 -20.5t21.5 -75.5z" />
    <glyph glyph-name="uni0122" unicode="&#x122;" horiz-adv-x="1292" 
d="M669 567q-34 0 -34 70.5t34 70.5h411q61 0 61 -70v-493q0 -55 -47 -79q-170 -84 -344 -84q-322 0 -490.5 178t-168.5 480t177.5 487t465.5 185q129 0 259 -45t146 -100q5 -17 5 -49q0 -75 -31 -75q-12 0 -40 19q-152 103 -325 103q-228 0 -352 -145t-124 -379t127 -371.5
t334 -137.5q130 0 236 58v377h-300zM536.5 -356.5q-8.5 8.5 -1.5 33.5l66 202q6 23 27 31q22 7 82 7q60 -1 58 -29q0 -8 -5 -19l-97 -203q-12 -31 -66.5 -31t-63 8.5z" />
    <glyph glyph-name="uni0123" unicode="&#x123;" horiz-adv-x="964" 
d="M215 -107q0 -65 66 -99q67 -34 163 -33q160 0 223 49t63 115q0 127 -176 132l-233 8q-106 -83 -106 -172zM647 647q0 92 -50.5 143.5t-143 51.5t-141 -57.5t-48.5 -145t50.5 -138.5t141.5 -51q142 0 180 122q12 36 11 75zM871 951q34 0 34 -66.5t-34 -66.5h-129
q63 -65 63 -156q0 -167 -96 -253t-233.5 -86t-200.5 51q-41 -41 -41 -85q0 -88 119 -92l235 -10q215 -7 284 -141q23 -44 23 -104q0 -131 -110.5 -219t-321.5 -88t-310.5 65t-99.5 183.5t130 220.5q-96 49 -96 150t87 190q-67 80 -67 176q0 171 96.5 259.5t252.5 88.5
q77 0 143 -17h272zM641.5 1384q36.5 0 36.5 -24q0 -8 -5 -18l-119 -240q-13 -22 -30.5 -28.5t-57.5 -6.5q-64 0 -78 11.5t1 33.5l143 241q16 27 44.5 29t65 2z" />
    <glyph glyph-name="Hcircumflex" unicode="&#x124;" horiz-adv-x="1276" 
d="M933 1268q0 32 85.5 32t85.5 -32v-1242q0 -32 -85.5 -32t-85.5 32v574h-589v-574q0 -32 -86 -32t-86 32v1242q0 32 86 32t86 -32v-518h589v518zM737 1660l214 -227q27 -30 -13 -36q-14 -2 -40 -2q-80 0 -102 22l-154 173l-159 -168q-24 -24 -54 -25.5t-56 -1.5
q-47 0 -58 9t7 29l224 227q22 25 49 27t59 2q54 0 83 -29z" />
    <glyph glyph-name="hcircumflex" unicode="&#x125;" horiz-adv-x="1076" 
d="M345 1660l215 -227q26 -30 -14 -36q-14 -2 -39 -2q-77 0 -103 22l-153 173l-159 -168q-24 -24 -54 -25.5t-56 -1.5q-48 0 -59.5 9.5t8.5 28.5l224 227q23 25 49.5 27t58.5 2q56 0 82 -29zM606 970q322 0 322 -397v-548q0 -31 -82.5 -31t-82.5 31v527q0 275 -191 275
q-116 0 -254 -173v-629q0 -31 -75 -31t-87 18q-4 6 -3 13v1240q0 32 82.5 32t82.5 -32v-443q140 148 288 148z" />
    <glyph glyph-name="Hbar" unicode="&#x126;" horiz-adv-x="1344" 
d="M1052 1300q86 0 86 -31v-219h140q35 0 35 -67t-35 -67h-140v-891q0 -31 -86 -31t-86 31v545h-588v-545q0 -31 -86 -31t-86 31v891h-140q-34 0 -34 67t34 67h140v219q0 31 86 31t86 -31v-219h588v219q0 31 86 31zM378 916v-203h588v203h-588z" />
    <glyph glyph-name="hbar" unicode="&#x127;" horiz-adv-x="1091" 
d="M621 958q322 0 322 -396v-537q0 -31 -75 -31q-74 0 -86 18q-4 6 -4 13v515q0 276 -191 276q-114 0 -254 -173v-618q0 -31 -75 -31q-74 0 -86 18q-4 6 -4 13v1078h-141q-34 0 -34 65t34 65h141v129q0 32 82.5 32t82.5 -32v-129h239q33 0 33 -65t-33 -65h-239v-293
q138 148 288 148z" />
    <glyph glyph-name="Itilde" unicode="&#x128;" horiz-adv-x="516" 
d="M258 1300q86 0 86 -32v-1242q0 -32 -86 -32t-86 32v1242q0 32 86 32zM404 1522q76 0 76 92q0 22 49 22t60 -7.5t11 -32.5q0 -93 -51.5 -146.5t-137 -53.5t-171.5 58q-32 22 -61 39t-61 17q-76 0 -76 -92q0 -22 -49 -22t-60 8t-11 44q0 84 54 136t125 52t110 -18t71 -39
t60.5 -39t61.5 -18z" />
    <glyph glyph-name="itilde" unicode="&#x129;" horiz-adv-x="470" 
d="M318 925v-900q0 -31 -75 -31t-87 18q-4 6 -3 13v900q0 31 82.5 31t82.5 -31zM380 1223q73 0 73 105q0 16 10.5 21.5t46.5 5.5t48 -7.5t12 -33.5q0 -106 -52 -162t-129 -56t-116 24.5t-59 41.5t-52 41.5t-67 24.5q-72 0 -72 -106q0 -16 -10.5 -21t-38.5 -5q-45 0 -57 8
t-12 34q0 99 50 158t136 59q87 1 171 -65q32 -24 59 -45.5t59 -21.5z" />
    <glyph glyph-name="Imacron" unicode="&#x12a;" horiz-adv-x="516" 
d="M258 1300q86 0 86 -32v-1242q0 -32 -86 -32t-86 32v1242q0 32 86 32zM-12 1457q-33 0 -33 66.5t33 66.5h546q31 0 31 -66.5t-31 -66.5h-546z" />
    <glyph glyph-name="imacron" unicode="&#x12b;" horiz-adv-x="470" 
d="M318 925v-900q0 -31 -75 -31t-87 18q-4 6 -3 13v900q0 31 82.5 31t82.5 -31zM-3 1164q-33 0 -33 64.5t33 64.5h479q32 0 32 -64.5t-32 -64.5h-479z" />
    <glyph glyph-name="Ibreve" unicode="&#x12c;" horiz-adv-x="516" 
d="M258 1300q86 0 86 -32v-1242q0 -32 -86 -32t-86 32v1242q0 32 86 32zM521 1664q0 -192 -152 -250q-49 -18 -113 -19q-126 0 -191.5 72.5t-65.5 196.5q0 15 11.5 21.5t47.5 6.5t50 -4t14 -20q2 -64 36.5 -108t94 -44t90 24t42 57t12.5 56.5t12 31t49.5 7.5t50.5 -6.5
t12 -21.5z" />
    <glyph glyph-name="ibreve" unicode="&#x12d;" horiz-adv-x="470" 
d="M318 925v-900q0 -31 -75 -31t-87 18q-4 6 -3 13v900q0 31 82.5 31t82.5 -31zM377 1365q0 30 54 30q53 1 61 -15q2 -6 3 -13q0 -271 -258 -271t-258 268q0 31 59 31t59 -30q7 -75 30 -103q41 -49 109 -49q134 0 141 152z" />
    <glyph glyph-name="Iogonek" unicode="&#x12e;" horiz-adv-x="516" 
d="M384 -241q28 -1 28 -33q0 -44 -8 -60t-68 -23.5t-100 -7.5q-93 0 -145 37.5t-52 104.5t26.5 103.5t52.5 62.5l63 63q-9 7 -9 18v1245q0 31 86 31t86 -31v-1245q0 -32 -20 -52l-74 -75q-49 -49 -49 -85q0 -53 74 -53h109z" />
    <glyph glyph-name="iogonek" unicode="&#x12f;" horiz-adv-x="470" 
d="M337 1228.5q0 -57.5 -22 -78.5t-80.5 -21t-80 20.5t-21.5 78t22 78.5t80.5 21t80 -20.5t21.5 -78zM153 925q0 31 82.5 31t82.5 -31v-900q0 -35 -20 -57l-74 -73q-47 -47 -47 -86q0 -52 74 -52h106q23 1 27 -23q2 -10 2 -25q0 -28 -8 -43.5t-67 -23t-103 -7.5
q-89 0 -140 38.5t-51 105.5t26.5 102.5t52.5 61.5l57 57v925z" />
    <glyph glyph-name="Idotaccent" unicode="&#x130;" horiz-adv-x="516" 
d="M258 1300q86 0 86 -32v-1242q0 -32 -86 -32t-86 32v1242q0 32 86 32zM361 1528q0 -55 -22 -76t-78.5 -21t-77.5 20.5t-21 75.5t21.5 76.5t78 21.5t78 -21t21.5 -76z" />
    <glyph glyph-name="dotlessi" unicode="&#x131;" horiz-adv-x="470" 
d="M318 925v-900q0 -31 -75 -31t-87 18q-4 6 -3 13v900q0 31 82.5 31t82.5 -31z" />
    <glyph glyph-name="IJ" unicode="&#x132;" horiz-adv-x="1170" 
d="M258 1300q86 0 86 -32v-1242q0 -32 -86 -32t-86 32v1242q0 32 86 32zM915 1300q86 0 86 -31v-943q0 -168 -66.5 -256t-222.5 -88q-81 0 -146 32q-38 18 -41 62q-1 12 -1 31q0 75 30 75q8 0 20.5 -7.5t44.5 -24t73 -16.5q77 0 107 43t30 166v926q0 31 86 31z" />
    <glyph glyph-name="ij" unicode="&#x133;" horiz-adv-x="960" 
d="M337 1228.5q0 -57.5 -22 -78.5t-80.5 -21t-80 20.5t-21.5 78t22 78.5t80.5 21t80 -20.5t21.5 -78zM153 925q0 31 82.5 31t82.5 -31v-900q0 -31 -75 -31t-87 18q-4 6 -3 13v900zM826 1228.5q0 -57.5 -22 -78.5t-80.5 -21t-79.5 20.5t-21 78t21.5 78.5t80.5 21t80 -20.5
t21 -78zM724 956q83 0 83 -31v-940q0 -184 -63.5 -267t-201.5 -83q-89 0 -102 19t-13 73t26 54l64 -5q67 0 95.5 43t28.5 167v939q0 31 83 31z" />
    <glyph glyph-name="Jcircumflex" unicode="&#x134;" horiz-adv-x="653" 
d="M398 1300q86 0 86 -31v-943q0 -168 -66.5 -256t-222.5 -88q-81 0 -146 32q-38 18 -41 62q-1 12 -1 31q0 75 30 75q8 0 20.5 -7.5t44.5 -24t73 -16.5q77 0 107 43t30 166v926q0 31 86 31zM472 1660l214 -227q27 -30 -13 -36q-14 -2 -40 -2q-80 0 -102 22l-154 173
l-159 -168q-24 -24 -54 -25.5t-56 -1.5q-47 0 -58 9t7 29l224 227q22 25 49 27t59 2q54 0 83 -29z" />
    <glyph glyph-name="jcircumflex" unicode="&#x135;" horiz-adv-x="490" 
d="M254 956q83 0 83 -31v-940q0 -184 -63.5 -267t-201.5 -83q-89 0 -102 19t-13 73t26 54l64 -5q67 0 95.5 43t28.5 167v939q0 31 83 31zM-8 1147l165 229q13 20 42 23t51 3q69 0 87 -26l165 -229q41 -56 -31 -56q-53 0 -65.5 4.5t-28.5 25.5l-130 180l-130 -180
q-15 -25 -37.5 -27.5t-57.5 -2.5q-75 0 -30 56z" />
    <glyph glyph-name="uni0136" unicode="&#x136;" horiz-adv-x="1064" 
d="M906 1300q84 0 84 -32q0 -22 -31 -62l-429 -513l462 -614q24 -37 24 -48q0 -21 -20 -29t-61.5 -8t-69.5 4t-45 28l-476 647v-647q0 -32 -86 -32t-86 32v1242q0 32 86 32t86 -32v-575l458 575q16 25 47 28.5t57 3.5zM650 -112q0 -8 -6 -19l-97 -203q-12 -31 -58 -31
q-63 0 -71.5 8.5t-1.5 33.5l66 202q6 23 27 30.5t82 7t59 -28.5z" />
    <glyph glyph-name="uni0137" unicode="&#x137;" horiz-adv-x="931" 
d="M768 956q88 0 88 -26t-28 -56l-326 -326l366 -475q24 -31 24 -47q0 -32 -80.5 -32t-94 11.5t-19.5 20.5l-380 498v-499q0 -31 -75 -31t-87 18q-4 6 -3 13v1336q0 32 82.5 32t82.5 -32v-814l340 374q24 30 55 32.5t55 2.5zM340.5 -356.5q-8.5 8.5 -1.5 33.5l66 202
q6 23 27 31q22 7 82 7q60 -1 58 -29q0 -8 -5 -19l-97 -203q-12 -31 -66.5 -31t-63 8.5z" />
    <glyph glyph-name="kgreenlandic" unicode="&#x138;" horiz-adv-x="931" 
d="M772 956q90 0 90 -29t-30 -62l-329 -351l356 -433q27 -34 27 -55q0 -32 -81 -32t-94 11.5t-18 20.5l-375 464v-465q0 -31 -75 -31t-87 18q-4 6 -3 13v900q0 31 82.5 31t82.5 -31v-413l357 412q21 27 47 29.5t50 2.5z" />
    <glyph glyph-name="Lacute" unicode="&#x139;" horiz-adv-x="861" 
d="M808 149q35 0 35 -74.5t-35 -74.5h-572q-23 0 -43.5 15.5t-20.5 54.5v1198q0 32 86 32t86 -32v-1119h464zM650.5 1674.5q14.5 -14.5 -5.5 -36.5l-227 -212q-26 -26 -52 -28.5t-48 -2.5q-43 0 -53 10.5t8 32.5l189 213q27 32 60.5 35t73.5 3t54.5 -14.5z" />
    <glyph glyph-name="lacute" unicode="&#x13a;" horiz-adv-x="470" 
d="M318 1361v-1336q0 -31 -75 -31t-87 18q-4 6 -3 13v1336q0 32 82.5 32t82.5 -32zM563.5 1757.5q14.5 -14.5 -5.5 -36.5l-227 -212q-26 -26 -52 -28.5t-48 -2.5q-43 0 -53 10.5t8 32.5l189 213q27 32 60.5 35t73.5 3t54.5 -14.5z" />
    <glyph glyph-name="uni013B" unicode="&#x13b;" horiz-adv-x="861" 
d="M808 149q35 0 35 -74.5t-35 -74.5h-572q-23 0 -43.5 15.5t-20.5 54.5v1198q0 32 86 32t86 -32v-1119h464zM361.5 -356.5q-8.5 8.5 -1.5 33.5l66 202q6 23 27 30.5t81 7.5q62 -1 60 -29q0 -8 -6 -19l-97 -203q-12 -31 -66.5 -31t-63 8.5z" />
    <glyph glyph-name="uni013C" unicode="&#x13c;" horiz-adv-x="470" 
d="M318 1361v-1336q0 -31 -75 -31t-87 18q-4 6 -3 13v1336q0 32 82.5 32t82.5 -32zM81.5 -356.5q-8.5 8.5 -1.5 33.5l66 202q6 23 27 30.5t81 7.5q62 -1 60 -29q0 -8 -6 -19l-97 -203q-12 -31 -66.5 -31t-63 8.5z" />
    <glyph glyph-name="Lcaron" unicode="&#x13d;" horiz-adv-x="866" 
d="M808 149q35 0 35 -74.5t-35 -74.5h-572q-23 0 -43.5 15.5t-20.5 54.5v1198q0 32 86 32t86 -32v-1119h464zM516 987q-8 8 -4 23l92 305q11 36 91 36q42 0 53.5 -8t5.5 -29l-125 -312q-6 -19 -30.5 -21t-49.5 -2t-33 8z" />
    <glyph glyph-name="lcaron" unicode="&#x13e;" horiz-adv-x="540" 
d="M318 1361v-1336q0 -31 -75 -31t-87 18q-4 6 -3 13v1336q0 32 82.5 32t82.5 -32zM569 1397q42 0 53.5 -8t5.5 -29l-125 -312q-6 -19 -30.5 -21t-42.5 -2q-32 0 -40 8t-4 23l92 305q11 36 91 36z" />
    <glyph glyph-name="Ldot" unicode="&#x13f;" horiz-adv-x="1118" 
d="M808 149q35 0 35 -74.5t-35 -74.5h-572q-23 0 -43.5 15.5t-20.5 54.5v1198q0 32 86 32t86 -32v-1119h464zM989 668q0 -70 -23.5 -93.5t-84.5 -23.5t-84 23t-23 93t23.5 93.5t84.5 23.5t84 -23t23 -93z" />
    <glyph glyph-name="ldot" unicode="&#x140;" horiz-adv-x="765" 
d="M318 1361v-1336q0 -31 -75 -31t-87 18q-4 6 -3 13v1336q0 32 82.5 32t82.5 -32zM714 583q0 -70 -23.5 -93.5t-84.5 -23.5t-84 23t-23 93t23.5 93.5t84.5 23.5t84 -23t23 -93z" />
    <glyph glyph-name="Lslash" unicode="&#x141;" horiz-adv-x="880" 
d="M827 149q35 0 35 -74.5t-35 -74.5h-573q-23 0 -43 15.5t-20 54.5v477l-128 -83q-17 -10 -26 4t-9 44q0 51 6 68t23 26l134 86v577q0 31 86 31t86 -31v-470l226 142q35 21 35 -60q0 -66 -29 -82l-232 -145v-505h464z" />
    <glyph glyph-name="lslash" unicode="&#x142;" horiz-adv-x="507" 
d="M171 1361q0 32 82.5 32t82.5 -32v-415l109 69q17 10 26 -3.5t9 -43.5q0 -51 -6.5 -68.5t-22.5 -26.5l-115 -72v-776q0 -31 -82.5 -31t-82.5 31v672l-109 -69q-34 -21 -34 60q0 52 10 64.5t19 17.5l114 72v519z" />
    <glyph glyph-name="Nacute" unicode="&#x143;" horiz-adv-x="1322" 
d="M987 1265q0 32 81.5 32t81.5 -32v-1194q0 -56 -47 -70q-13 -4 -26 -4h-55q-52 0 -83.5 26t-72.5 103l-408 736q-69 122 -125 241h-2q4 -144 4 -296v-781q0 -32 -81.5 -32t-81.5 32v1194q0 40 22 57t48 17h82q55 0 82.5 -20.5t62.5 -84.5l314 -568q66 -118 99.5 -182.5
t58 -111t48.5 -93.5h1q-3 118 -3 329v702zM980.5 1674.5q14.5 -14.5 -5.5 -36.5l-227 -212q-26 -26 -52 -28.5t-48 -2.5q-43 0 -53 10.5t8 32.5l189 213q27 32 60.5 35t73.5 3t54.5 -14.5z" />
    <glyph glyph-name="nacute" unicode="&#x144;" horiz-adv-x="1076" 
d="M606 970q322 0 322 -396v-549q0 -31 -82.5 -31t-82.5 31v527q0 275 -191 275q-116 0 -254 -173v-629q0 -31 -75 -31t-87 18q-4 6 -3 13v900q0 31 74.5 31t74.5 -31v-119q147 164 304 164zM808.5 1388.5q14.5 -13.5 -2.5 -32.5l-181 -233q-22 -27 -43.5 -29.5t-42.5 -2.5
q-40 0 -51.5 10t3.5 33l145 231q16 30 47.5 33.5t71 3.5t54 -13.5z" />
    <glyph glyph-name="uni0145" unicode="&#x145;" horiz-adv-x="1322" 
d="M987 1265q0 32 81.5 32t81.5 -32v-1194q0 -56 -47 -70q-13 -4 -26 -4h-55q-52 0 -83.5 26t-72.5 103l-408 736q-69 122 -125 241h-2q4 -144 4 -296v-781q0 -32 -81.5 -32t-81.5 32v1194q0 40 22 57t48 17h82q55 0 82.5 -20.5t62.5 -84.5l314 -568q66 -118 99.5 -182.5
t58 -111t48.5 -93.5h1q-3 118 -3 329v702zM489.5 -356.5q-8.5 8.5 -1.5 33.5l66 202q6 23 27 30.5t81 7.5q62 -1 60 -29q0 -8 -6 -19l-97 -203q-12 -31 -66.5 -31t-63 8.5z" />
    <glyph glyph-name="uni0146" unicode="&#x146;" horiz-adv-x="1076" 
d="M606 970q322 0 322 -396v-549q0 -31 -82.5 -31t-82.5 31v527q0 275 -191 275q-116 0 -254 -173v-629q0 -31 -75 -31t-87 18q-4 6 -3 13v900q0 31 74.5 31t74.5 -31v-119q147 164 304 164zM634 -112q0 -8 -6 -19l-97 -203q-12 -31 -58 -31q-63 0 -71.5 8.5t-1.5 33.5
l66 202q6 23 27 30.5t82 7t59 -28.5z" />
    <glyph glyph-name="Ncaron" unicode="&#x147;" horiz-adv-x="1322" 
d="M987 1265q0 32 81.5 32t81.5 -32v-1194q0 -56 -47 -70q-13 -4 -26 -4h-55q-52 0 -83.5 26t-72.5 103l-408 736q-69 122 -125 241h-2q4 -144 4 -296v-781q0 -32 -81.5 -32t-81.5 32v1194q0 40 22 57t48 17h82q55 0 82.5 -20.5t62.5 -84.5l314 -568q66 -118 99.5 -182.5
t58 -111t48.5 -93.5h1q-3 118 -3 329v702zM605 1399.5q-16 4.5 -36 24.5l-214 227q-27 30 13 36q14 2 40 2q26 1 44 -1q36 -3 58 -22l154 -172l160 168q21 24 52 26q30 2 56 1q49 0 59.5 -9t-7.5 -29l-223 -227q-22 -25 -49.5 -27t-59 -2t-47.5 4.5z" />
    <glyph glyph-name="ncaron" unicode="&#x148;" horiz-adv-x="1076" 
d="M606 970q322 0 322 -396v-549q0 -31 -82.5 -31t-82.5 31v527q0 275 -191 275q-116 0 -254 -173v-629q0 -31 -75 -31t-87 18q-4 6 -3 13v900q0 31 74.5 31t74.5 -31v-119q147 164 304 164zM824 1346l-165 -229q-15 -20 -43 -23t-50 -3q-70 0 -88 26l-165 229q-44 56 32 56
q53 0 67 -6t26 -24l130 -181l130 181q19 25 40 27.5t56 2.5q71 0 30 -56z" />
    <glyph glyph-name="napostrophe" unicode="&#x149;" horiz-adv-x="1186" 
d="M716 970q322 0 322 -396v-549q0 -31 -82.5 -31t-82.5 31v527q0 275 -191 275q-116 0 -254 -173v-629q0 -31 -75 -31t-87 18q-4 6 -3 13v900q0 31 74.5 31t74.5 -31v-119q147 164 304 164zM230 1316q0 -111 -60 -196l-137 -206q-17 -24 -39.5 -26.5t-40.5 -2.5
q-37 0 -46.5 6.5t-1.5 24.5l133 275v127q0 50 21.5 66t61 16t57.5 -3t30 -12q22 -17 22 -69z" />
    <glyph glyph-name="Eng" unicode="&#x14a;" horiz-adv-x="1287" 
d="M951 1266q0 31 81.5 31t81.5 -31v-1298q0 -246 -144 -310q-53 -24 -106.5 -23.5t-75.5 2.5t-40 6q-35 8 -49 21t-14 70.5t25 57.5q9 0 16.5 -3t25.5 -9.5t58 -6.5q76 0 104.5 42t28.5 143v42l-459 810q-71 122 -150 275h-1q3 -148 3 -402v-658q0 -31 -82 -31t-82 31v1195
q0 40 21 57t47 17h84q64 0 96 -44q12 -16 23 -37l326 -574q107 -191 184 -336h2q-4 121 -4 374v589z" />
    <glyph glyph-name="eng" unicode="&#x14b;" horiz-adv-x="1076" 
d="M606 970q322 0 322 -396v-564q0 -204 -67.5 -289.5t-205.5 -85.5t-148 50q-3 15 -3 40q0 65 26 65q11 0 38.5 -8.5t60.5 -8.5q70 0 102 47.5t32 202.5v529q0 275 -191 275q-116 0 -254 -173v-629q0 -31 -75 -31t-87 18q-4 6 -3 13v900q0 31 74.5 31t74.5 -31v-119
q147 164 304 164z" />
    <glyph glyph-name="Omacron" unicode="&#x14c;" horiz-adv-x="1356" 
d="M1075 652q0 514 -394 514q-207 0 -311 -154q-88 -130 -89 -360q-1 -380 203 -484q76 -38 189.5 -38t190.5 42t124 114q87 132 87 366zM99 640q0 316 151 494.5t441 178.5q565 0 565 -651q0 -320 -150 -500.5t-441 -180.5q-566 0 -566 659zM410 1457q-33 0 -33 66.5
t33 66.5h546q31 0 31 -66.5t-31 -66.5h-546z" />
    <glyph glyph-name="omacron" unicode="&#x14d;" horiz-adv-x="1080" 
d="M263 478q0 -358 275 -358q140 0 209 95t69 259q0 358 -274 358q-208 0 -262 -212q-16 -65 -17 -142zM990 486q0 -229 -118.5 -367t-341.5 -138q-328 0 -413 282q-27 90 -27 202q0 231 118 368t341 137q327 0 413 -282q28 -90 28 -202zM302 1164q-33 0 -33 64.5t33 64.5
h479q32 0 32 -64.5t-32 -64.5h-479z" />
    <glyph glyph-name="Obreve" unicode="&#x14e;" horiz-adv-x="1356" 
d="M1075 652q0 514 -394 514q-207 0 -311 -154q-88 -130 -89 -360q-1 -380 203 -484q76 -38 189.5 -38t190.5 42t124 114q87 132 87 366zM99 640q0 316 151 494.5t441 178.5q565 0 565 -651q0 -320 -150 -500.5t-441 -180.5q-566 0 -566 659zM943 1664q0 -192 -152 -250
q-49 -18 -113 -19q-126 0 -191.5 72.5t-65.5 196.5q0 15 11.5 21.5t47.5 6.5t50 -4t14 -20q2 -64 36.5 -108t94 -44t90 24t42 57t12.5 56.5t12 31t49.5 7.5t50.5 -6.5t12 -21.5z" />
    <glyph glyph-name="obreve" unicode="&#x14f;" horiz-adv-x="1080" 
d="M263 478q0 -358 275 -358q140 0 209 95t69 259q0 358 -274 358q-208 0 -262 -212q-16 -65 -17 -142zM990 486q0 -229 -118.5 -367t-341.5 -138q-328 0 -413 282q-27 90 -27 202q0 231 118 368t341 137q327 0 413 -282q28 -90 28 -202zM680 1365q0 30 54 30q54 1 62 -15
q2 -6 2 -13q0 -271 -258 -271t-258 268q0 31 59 31t59 -30q7 -75 30 -103q41 -49 109 -49q134 0 141 152z" />
    <glyph glyph-name="Ohungarumlaut" unicode="&#x150;" horiz-adv-x="1356" 
d="M1075 652q0 514 -394 514q-207 0 -311 -154q-88 -130 -89 -360q-1 -380 203 -484q76 -38 189.5 -38t190.5 42t124 114q87 132 87 366zM99 640q0 316 151 494.5t441 178.5q565 0 565 -651q0 -320 -150 -500.5t-441 -180.5q-566 0 -566 659zM1086 1692q92 0 90 -26
q0 -7 -9 -16l-229 -233q-18 -20 -42 -21t-44 -1q-38 0 -53.5 8t-4.5 24l179 237q16 22 51 25t62 3zM461.5 1395q-25.5 0 -37.5 9.5t-2 24.5l169 234q18 24 49.5 26.5t63.5 2.5q68 0 84.5 -11.5t-7.5 -35.5l-223 -229q-19 -19 -45 -20t-51.5 -1z" />
    <glyph glyph-name="ohungarumlaut" unicode="&#x151;" horiz-adv-x="1080" 
d="M263 478q0 -358 275 -358q140 0 209 95t69 259q0 358 -274 358q-208 0 -262 -212q-16 -65 -17 -142zM990 486q0 -229 -118.5 -367t-341.5 -138q-328 0 -413 282q-27 90 -27 202q0 231 118 368t341 137q327 0 413 -282q28 -90 28 -202zM684.5 1067q-25.5 0 -39 7t-3.5 22
l182 262q13 21 43.5 23.5t57.5 2.5q55 0 70 -13t-8 -36l-215 -247q-15 -17 -38.5 -19t-49 -2zM340.5 1067q-35.5 0 -35.5 16q0 6 4 14l171 258q15 23 43.5 26t55.5 3q58 0 73 -12t-7 -38l-211 -246q-14 -17 -36 -19t-57.5 -2z" />
    <glyph glyph-name="OE" unicode="&#x152;" horiz-adv-x="1775" 
d="M697.5 1166q-128.5 0 -204.5 -42q-212 -116 -212 -484q-1 -368 203 -472q76 -38 190 -38q161 0 272 85v870q-120 81 -248.5 81zM1632 143q34 0 34 -71.5t-34 -71.5h-616q-51 0 -58 48q-118 -67 -293 -67q-566 0 -566 659q0 316 151 494.5t441 178.5q148 0 268 -61
q10 42 56 42h609q34 0 34 -71.5t-34 -71.5h-506v-407h435q33 0 33 -71.5t-33 -71.5h-435v-458h514z" />
    <glyph glyph-name="oe" unicode="&#x153;" horiz-adv-x="1740" 
d="M263 478q0 -358 275 -358q140 0 209 95t69 257q0 360 -274 360q-208 0 -262 -212q-16 -66 -17 -142zM1241 841q-117 0 -181.5 -79t-71.5 -199h489q3 130 -58 204t-178 74zM1642 544v-30q0 -39 -19.5 -55.5t-43.5 -16.5h-591q0 -240 157 -304q56 -23 128 -23t122 10.5
t87 23.5t60.5 23.5t34.5 10.5q28 0 28 -56t-12 -67q-27 -25 -121.5 -52t-207.5 -27q-266 0 -371 195q-111 -195 -363 -195q-217 0 -328.5 126.5t-111.5 357.5t118 368t353 137t345 -193q107 193 341 193q197 0 296 -118.5t99 -307.5z" />
    <glyph glyph-name="Racute" unicode="&#x154;" horiz-adv-x="1112" 
d="M776 950q0 62 -34 114q-48 74 -170 85q-32 3 -83 3h-145v-436h168q130 0 197 60t67 174zM958 953q0 -237 -250 -325q61 -27 104 -84t85 -160l116 -285q22 -57 22 -69q0 -22 -18 -29t-59 -7q-65 0 -83 8t-26 33l-119 305q-49 122 -89 162q-74 75 -182 75h-115v-551
q0 -32 -86 -32t-86 32v1198q0 39 20.5 54.5t43.5 15.5h275q71 0 140 -8q227 -38 287 -210q20 -56 20 -123zM809.5 1674.5q14.5 -14.5 -5.5 -36.5l-227 -212q-26 -26 -52 -28.5t-48 -2.5q-43 0 -53 10.5t8 32.5l189 213q27 32 60.5 35t73.5 3t54.5 -14.5z" />
    <glyph glyph-name="racute" unicode="&#x155;" horiz-adv-x="714" 
d="M302 794q121 176 238 176q58 0 88.5 -10.5t36.5 -15.5q9 -7 11.5 -20t2.5 -74.5t-25 -61.5q-8 0 -19.5 4.5t-39 13t-55.5 8.5q-53 0 -102 -42.5t-120 -154.5v-592q0 -31 -75 -31t-87 18q-4 6 -3 13v900q0 31 74.5 31t74.5 -31v-131zM644.5 1388.5q14.5 -13.5 -2.5 -32.5
l-181 -233q-22 -27 -43.5 -29.5t-42.5 -2.5q-40 0 -51.5 10t3.5 33l145 231q16 30 47.5 33.5t71 3.5t54 -13.5z" />
    <glyph glyph-name="uni0156" unicode="&#x156;" horiz-adv-x="1112" 
d="M776 950q0 62 -34 114q-48 74 -170 85q-32 3 -83 3h-145v-436h168q130 0 197 60t67 174zM958 953q0 -237 -250 -325q61 -27 104 -84t85 -160l116 -285q22 -57 22 -69q0 -22 -18 -29t-59 -7q-65 0 -83 8t-26 33l-119 305q-49 122 -89 162q-74 75 -182 75h-115v-551
q0 -32 -86 -32t-86 32v1198q0 39 20.5 54.5t43.5 15.5h275q71 0 140 -8q227 -38 287 -210q20 -56 20 -123zM658 -112q0 -8 -5 -19l-97 -203q-12 -31 -58 -31q-63 0 -71.5 8.5t-1.5 33.5l66 202q6 23 27 30.5t81.5 7t58.5 -28.5z" />
    <glyph glyph-name="uni0157" unicode="&#x157;" horiz-adv-x="714" 
d="M302 794q121 176 238 176q58 0 88.5 -10.5t36.5 -15.5q9 -7 11.5 -20t2.5 -74.5t-25 -61.5q-8 0 -19.5 4.5t-39 13t-55.5 8.5q-53 0 -102 -42.5t-120 -154.5v-592q0 -31 -75 -31t-87 18q-4 6 -3 13v900q0 31 74.5 31t74.5 -31v-131zM116.5 -356.5q-8.5 8.5 -1.5 33.5
l66 202q6 23 27 31q22 7 82 7q60 -1 58 -29q0 -8 -5 -19l-97 -203q-12 -31 -66.5 -31t-63 8.5z" />
    <glyph glyph-name="Rcaron" unicode="&#x158;" horiz-adv-x="1112" 
d="M776 950q0 62 -34 114q-48 74 -170 85q-32 3 -83 3h-145v-436h168q130 0 197 60t67 174zM958 953q0 -237 -250 -325q61 -27 104 -84t85 -160l116 -285q22 -57 22 -69q0 -22 -18 -29t-59 -7q-65 0 -83 8t-26 33l-119 305q-49 122 -89 162q-74 75 -182 75h-115v-551
q0 -32 -86 -32t-86 32v1198q0 39 20.5 54.5t43.5 15.5h275q71 0 140 -8q227 -38 287 -210q20 -56 20 -123zM476 1399.5q-16 4.5 -36 24.5l-214 227q-27 30 13 36q14 2 40 2q26 1 44 -1q36 -3 58 -22l154 -172l160 168q21 24 52 25.5t57 1.5q49 0 59 -9t-8 -29l-223 -227
q-22 -25 -49.5 -27t-59 -2t-47.5 4.5z" />
    <glyph glyph-name="rcaron" unicode="&#x159;" horiz-adv-x="714" 
d="M302 794q121 176 238 176q58 0 88.5 -10.5t36.5 -15.5q9 -7 11.5 -20t2.5 -74.5t-25 -61.5q-8 0 -19.5 4.5t-39 13t-55.5 8.5q-53 0 -102 -42.5t-120 -154.5v-592q0 -31 -75 -31t-87 18q-4 6 -3 13v900q0 31 74.5 31t74.5 -31v-131zM653 1346l-165 -229q-15 -20 -43 -23
q-27 -3 -49 -3q-70 0 -89 26l-165 229q-44 56 32 56q53 0 67 -6t26 -24l130 -181l130 181q19 25 40 27.5t56 2.5q71 0 30 -56z" />
    <glyph glyph-name="Sacute" unicode="&#x15a;" horiz-adv-x="941" 
d="M767 1078q-11 0 -35 14q-131 78 -213 78q-131 0 -186 -50.5t-55 -117t25 -105.5t66.5 -69t94.5 -55t108 -51q138 -64 202 -128q92 -92 93 -231q0 -177 -123 -279.5t-304.5 -102.5t-305.5 71q-30 17 -46.5 34.5t-16.5 84t32 66.5q13 0 39 -17q138 -92 271.5 -92
t203.5 57.5t70 156.5q0 98 -91 164q-42 30 -149 80t-159 81q-185 110 -185 307q0 160 109.5 249.5t261.5 89.5q152 1 259 -55q42 -22 49 -34q12 -23 12 -84.5t-27 -61.5zM785.5 1674.5q14.5 -14.5 -5.5 -36.5l-227 -212q-26 -26 -52 -28.5t-48 -2.5q-43 0 -53 10.5t8 32.5
l189 213q27 32 60.5 35t73.5 3t54.5 -14.5z" />
    <glyph glyph-name="sacute" unicode="&#x15b;" horiz-adv-x="801" 
d="M345 113q210 0 210 144q0 89 -143 145q-118 46 -162 70q-147 78 -147 231q0 114 86 190.5t234 76.5q147 0 225 -59q24 -18 24 -78t-26 -60q-9 0 -26 11t-68 34.5t-108 23.5q-99 0 -141 -36t-42 -84.5t20 -75t52 -46.5t73 -36q42 -16 84 -33q109 -44 157 -89
q71 -67 71 -172q0 -137 -96 -213t-242 -76q-146 1 -243 51q-24 12 -40 26.5t-16 77.5t28 63q11 1 33 -13q116 -72 203 -73zM656.5 1388.5q14.5 -13.5 -2.5 -32.5l-181 -233q-22 -27 -43.5 -29.5t-42.5 -2.5q-40 0 -51.5 10t3.5 33l145 231q16 30 47.5 33.5t71 3.5t54 -13.5z
" />
    <glyph glyph-name="Scircumflex" unicode="&#x15c;" horiz-adv-x="941" 
d="M767 1078q-11 0 -35 14q-131 78 -213 78q-131 0 -186 -50.5t-55 -117t25 -105.5t66.5 -69t94.5 -55t108 -51q138 -64 202 -128q92 -92 93 -231q0 -177 -123 -279.5t-304.5 -102.5t-305.5 71q-30 17 -46.5 34.5t-16.5 84t32 66.5q13 0 39 -17q138 -92 271.5 -92
t203.5 57.5t70 156.5q0 98 -91 164q-42 30 -149 80t-159 81q-185 110 -185 307q0 160 109.5 249.5t261.5 89.5q152 1 259 -55q42 -22 49 -34q12 -23 12 -84.5t-27 -61.5zM580 1660l214 -227q27 -30 -13 -36q-14 -2 -40 -2q-80 0 -102 22l-154 173l-159 -168
q-24 -24 -54 -25.5t-56 -1.5q-47 0 -58 9t7 29l224 227q22 25 49 27t59 2q54 0 83 -29z" />
    <glyph glyph-name="scircumflex" unicode="&#x15d;" horiz-adv-x="801" 
d="M345 113q210 0 210 144q0 89 -143 145q-118 46 -162 70q-147 78 -147 231q0 114 86 190.5t234 76.5q147 0 225 -59q24 -18 24 -78t-26 -60q-9 0 -26 11t-68 34.5t-108 23.5q-99 0 -141 -36t-42 -84.5t20 -75t52 -46.5t73 -36q42 -16 84 -33q109 -44 157 -89
q71 -67 71 -172q0 -137 -96 -213t-242 -76q-146 1 -243 51q-24 12 -40 26.5t-16 77.5t28 63q11 1 33 -13q116 -72 203 -73zM147 1147l165 229q13 20 42 23q28 3 50 3q69 0 88 -26l165 -229q41 -56 -31 -56q-53 0 -65.5 4.5t-28.5 25.5l-130 180l-130 -180
q-15 -25 -37.5 -27.5t-57.5 -2.5q-75 0 -30 56z" />
    <glyph glyph-name="Scedilla" unicode="&#x15e;" horiz-adv-x="941" 
d="M767 1078q-11 0 -35 14q-131 78 -213 78q-131 0 -186 -50.5t-55 -117t25 -105.5t66.5 -69t94.5 -55t108 -51q138 -64 202 -128q92 -92 93 -231q0 -193 -151 -301q-78 -56 -198 -74l27 -62q40 -86 40 -127q0 -79 -54 -121.5t-127 -42.5q-73 -1 -115 9q-56 12 -63 24.5
t-7 51.5t28 39h124q69 0 69 54q0 20 -22 74l-44 96q-140 11 -240 69q-48 28 -58 60q-6 18 -5 49q0 76 32 76q13 0 39 -17q138 -92 271.5 -92t203.5 57.5t70 156.5q0 98 -91 164q-42 30 -149 80t-159 81q-185 110 -185 307q0 160 109.5 249.5t261.5 89.5q152 1 259 -55
q42 -22 49 -34q12 -23 12 -84.5t-27 -61.5z" />
    <glyph glyph-name="scedilla" unicode="&#x15f;" horiz-adv-x="801" 
d="M345 113q210 0 210 144q0 89 -143 145q-118 46 -162 70q-147 78 -147 231q0 114 86 190.5t234 76.5q147 0 225 -59q24 -18 24 -78t-26 -60q-9 0 -26 11t-68 34.5t-108 23.5q-99 0 -141 -36t-42 -84.5t20 -75t52 -46.5t73 -36q42 -16 84 -33q109 -44 157 -89
q71 -67 71 -172q0 -137 -102 -217q-52 -40 -132 -59l31 -68q40 -86 40 -127q0 -79 -54 -121q-55 -43 -127 -43q-72 -1 -115 9q-57 13 -63.5 24t-6.5 51t28 40h124q68 0 68 54q0 26 -22 74l-42 95q-111 2 -197 44q-32 16 -49.5 31.5t-17.5 78.5t28 63q11 1 33 -13
q116 -72 203 -73z" />
    <glyph glyph-name="Scaron" unicode="&#x160;" horiz-adv-x="941" 
d="M767 1078q-11 0 -35 14q-131 78 -213 78q-131 0 -186 -50.5t-55 -117t25 -105.5t66.5 -69t94.5 -55t108 -51q138 -64 202 -128q92 -92 93 -231q0 -177 -123 -279.5t-304.5 -102.5t-305.5 71q-30 17 -46.5 34.5t-16.5 84t32 66.5q13 0 39 -17q138 -92 271.5 -92
t203.5 57.5t70 156.5q0 98 -91 164q-42 30 -149 80t-159 81q-185 110 -185 307q0 160 109.5 249.5t261.5 89.5q152 1 259 -55q42 -22 49 -34q12 -23 12 -84.5t-27 -61.5zM417 1399.5q-16 4.5 -36 24.5l-214 227q-27 30 13 36q14 2 40 2q26 1 44 -1q36 -3 58 -22l154 -172
l160 168q21 24 52 26q30 2 56 1q49 0 59.5 -9t-7.5 -29l-223 -227q-22 -25 -49.5 -27t-59 -2t-47.5 4.5z" />
    <glyph glyph-name="scaron" unicode="&#x161;" horiz-adv-x="801" 
d="M345 113q210 0 210 144q0 89 -143 145q-118 46 -162 70q-147 78 -147 231q0 114 86 190.5t234 76.5q147 0 225 -59q24 -18 24 -78t-26 -60q-9 0 -26 11t-68 34.5t-108 23.5q-99 0 -141 -36t-42 -84.5t20 -75t52 -46.5t73 -36q42 -16 84 -33q109 -44 157 -89
q71 -67 71 -172q0 -137 -96 -213t-242 -76q-146 1 -243 51q-24 12 -40 26.5t-16 77.5t28 63q11 1 33 -13q116 -72 203 -73zM657 1346l-165 -229q-15 -20 -43 -23q-27 -3 -49 -3q-70 0 -89 26l-165 229q-44 56 32 56q53 0 67 -6t26 -24l130 -181l130 181q19 25 40 27.5
t56 2.5q71 0 30 -56z" />
    <glyph glyph-name="uni0162" unicode="&#x162;" horiz-adv-x="998" 
d="M949 1294q34 0 34 -73t-34 -73h-364v-1122q0 -15 -13 -21l32 -69q40 -86 40 -127q0 -79 -54 -121q-54 -43 -127 -43q-73 -1 -115 9q-57 13 -64 24q-6 11 -6 51t28 40h124q68 0 68 54q0 26 -22 74l-48 107q-15 6 -15 22v1122h-364q-34 0 -34 73t34 73h900z" />
    <glyph glyph-name="uni0163" unicode="&#x163;" horiz-adv-x="686" 
d="M598 152q23 0 23 -45t-4 -62q-11 -48 -124 -60l27 -59q40 -86 40 -127q0 -79 -54 -121t-127 -43t-115 9q-57 13 -64 24q-6 11 -6 51t28 40h124q68 0 68 54q0 26 -22 74l-51 112q-105 35 -135 153q-14 58 -14 136v526h-126q-33 0 -33 68t34 69h125v214q0 32 82 32t83 -32
v-214h231q33 -1 33 -69t-33 -68h-231v-502q-1 -92 27 -140t86 -48t89 14t39 14z" />
    <glyph glyph-name="Tcaron" unicode="&#x164;" horiz-adv-x="998" 
d="M949 1294q34 0 34 -73t-34 -73h-364v-1122q0 -32 -86 -32t-86 32v1122h-364q-34 0 -34 73t34 73h900zM434 1399.5q-16 4.5 -36 24.5l-214 227q-27 30 13 36q14 2 40 2q26 1 44 -1q36 -3 58 -22l154 -172l160 168q21 24 52 25.5t57 1.5q49 0 59 -9t-8 -29l-223 -227
q-22 -25 -49.5 -27t-59 -2t-47.5 4.5z" />
    <glyph glyph-name="tcaron" unicode="&#x165;" horiz-adv-x="708" 
d="M598 152q23 0 23 -45t-4 -62t-12 -25q-37 -37 -164 -37q-124 0 -186.5 73t-62.5 232v526h-126q-33 0 -33 68.5t34 68.5h125v214q0 32 82.5 32t82.5 -32v-214h231q33 0 33 -68.5t-33 -68.5h-231v-502q0 -93 27.5 -140.5t85.5 -47.5t89 14t39 14zM486 1111q-8 8 -4 23
l92 305q11 36 91 36q42 0 53.5 -8t5.5 -29l-125 -312q-6 -19 -30.5 -21t-49.5 -2t-33 8z" />
    <glyph glyph-name="Tbar" unicode="&#x166;" horiz-adv-x="998" 
d="M949 1294q34 0 34 -73t-34 -73h-364v-414h266q34 0 34 -71t-34 -71h-266v-567q0 -31 -86 -31t-86 31v567h-265q-35 0 -35 71t35 71h265v414h-364q-34 0 -34 73t34 73h900z" />
    <glyph glyph-name="tbar" unicode="&#x167;" horiz-adv-x="700" 
d="M604 148q21 0 21 -57t-11 -68t-44 -26t-107 -15q-142 0 -204 74.5t-62 230.5v153h-126q-33 0 -33 64t33 64h126v251h-126q-33 0 -33 66t33 66h126v214q0 32 82.5 32t82.5 -32v-214h230q33 0 33 -66t-33 -66h-230v-251h179q32 0 32 -64t-32 -64h-179v-136
q0 -89 27.5 -136.5t84.5 -47.5t89.5 14t40.5 14z" />
    <glyph glyph-name="Utilde" unicode="&#x168;" horiz-adv-x="1314" 
d="M974 1268q0 32 85.5 32t85.5 -32v-790q0 -234 -131.5 -365.5t-358 -131.5t-356 124t-129.5 360v803q0 32 85.5 32t85.5 -32v-782q-1 -264 185 -336q58 -22 133 -22q151 0 233 89.5t82 259.5v791zM800 1522q76 0 76 92q0 22 49 22t60 -7.5t11 -32.5q0 -93 -51.5 -146.5
t-137 -53.5t-171.5 58q-32 22 -61 39t-61 17q-76 0 -76 -92q0 -22 -49 -22t-60 8t-11 44q0 84 54 136t125 52t110 -18t71 -39t60.5 -39t61.5 -18z" />
    <glyph glyph-name="utilde" unicode="&#x169;" horiz-adv-x="1076" 
d="M841 956q83 0 83 -31v-900q0 -31 -68.5 -31t-78.5 18q-3 6 -3 13v119q-148 -163 -304 -163q-322 0 -322 398v546q0 31 83 31t83 -31v-524q0 -278 190 -278q114 0 254 173v629q0 31 83 31zM681 1223q73 0 73 105q0 16 10.5 21.5t46.5 5.5t48 -7.5t12 -33.5
q0 -106 -52 -162t-129 -56t-116 24.5t-59 41.5t-52 41.5t-67 24.5q-72 0 -72 -106q0 -16 -10.5 -21t-38.5 -5q-46 0 -57.5 8t-11.5 34q0 99 50 158t136 59q86 1 170 -65q32 -24 59.5 -45.5t59.5 -21.5z" />
    <glyph glyph-name="Umacron" unicode="&#x16a;" horiz-adv-x="1314" 
d="M974 1268q0 32 85.5 32t85.5 -32v-790q0 -234 -131.5 -365.5t-358 -131.5t-356 124t-129.5 360v803q0 32 85.5 32t85.5 -32v-782q-1 -264 185 -336q58 -22 133 -22q151 0 233 89.5t82 259.5v791zM383 1457q-33 0 -33 66.5t33 66.5h546q31 0 31 -66.5t-31 -66.5h-546z" />
    <glyph glyph-name="umacron" unicode="&#x16b;" horiz-adv-x="1076" 
d="M841 956q83 0 83 -31v-900q0 -31 -69 -31t-78 18q-3 6 -3 13v119q-148 -163 -304 -163q-322 0 -322 398v546q0 31 83 31t83 -31v-524q0 -278 190 -278q114 0 254 173v629q0 31 83 31zM299 1164q-33 0 -33 64.5t33 64.5h479q32 0 32 -64.5t-32 -64.5h-479z" />
    <glyph glyph-name="Ubreve" unicode="&#x16c;" horiz-adv-x="1314" 
d="M974 1268q0 32 85.5 32t85.5 -32v-790q0 -234 -131.5 -365.5t-358 -131.5t-356 124t-129.5 360v803q0 32 85.5 32t85.5 -32v-782q-1 -264 185 -336q58 -22 133 -22q151 0 233 89.5t82 259.5v791zM916 1664q0 -192 -152 -250q-50 -18 -114 -19q-126 0 -191 72.5t-65 196.5
q0 15 11.5 21.5t47 6.5t49.5 -4q16 -4 16 -20q2 -64 36 -108t93.5 -44t90 24t42 57t12.5 56.5t12 31t49.5 7.5t50.5 -6.5t12 -21.5z" />
    <glyph glyph-name="ubreve" unicode="&#x16d;" horiz-adv-x="1076" 
d="M841 956q83 0 83 -31v-900q0 -31 -69 -31t-78 18q-3 6 -3 13v119q-148 -163 -304 -163q-322 0 -322 398v546q0 31 83 31t83 -31v-524q0 -278 190 -278q114 0 254 173v629q0 31 83 31zM679 1365q0 30 54 30q53 1 61 -15q2 -6 3 -13q0 -271 -258 -271t-258 268q0 31 59 31
t59 -30q7 -75 30 -103q41 -49 109 -49q134 0 141 152z" />
    <glyph glyph-name="Uring" unicode="&#x16e;" horiz-adv-x="1314" 
d="M974 1268q0 32 85.5 32t85.5 -32v-790q0 -234 -131.5 -365.5t-358 -131.5t-356 124t-129.5 360v803q0 32 85.5 32t85.5 -32v-782q-1 -264 185 -336q58 -22 133 -22q151 0 233 89.5t82 259.5v791zM747 1545q0 99 -92.5 99t-92.5 -96.5t95 -96.5q46 0 68 26.5t22 67.5z
M859 1551q1 -131 -121 -177q-38 -14 -88 -14q-96 0 -147.5 49t-51.5 135q-1 133 119 176q38 14 88 14q97 0 149 -48.5t52 -134.5z" />
    <glyph glyph-name="uring" unicode="&#x16f;" horiz-adv-x="1076" 
d="M841 956q83 0 83 -31v-900q0 -31 -68.5 -31t-78.5 18q-3 6 -3 13v119q-148 -163 -304 -163q-322 0 -322 398v546q0 31 83 31t83 -31v-524q0 -278 190 -278q114 0 254 173v629q0 31 83 31zM540 1158q44 0 66.5 26.5t22.5 67t-21.5 69t-67.5 28.5q-92 0 -92 -95.5t92 -95.5
zM735 1258q0 -81 -54 -133t-147 -52q-142 -1 -180 105q-12 32 -12 73q0 83 52 133t146 50t144.5 -47.5t50.5 -128.5z" />
    <glyph glyph-name="Uhungarumlaut" unicode="&#x170;" horiz-adv-x="1314" 
d="M974 1268q0 32 85.5 32t85.5 -32v-790q0 -234 -131.5 -365.5t-358 -131.5t-356 124t-129.5 360v803q0 32 85.5 32t85.5 -32v-782q-1 -264 185 -336q58 -22 133 -22q151 0 233 89.5t82 259.5v791zM1061 1692q93 0 91 -26q0 -7 -10 -16l-229 -233q-18 -20 -42.5 -21
t-44.5 -1q-38 0 -53 8t-4 24l179 237q16 22 51 25t62 3zM436.5 1395q-25.5 0 -37.5 9.5t-2 24.5l169 234q18 25 50 27q30 2 62 2q67 0 84.5 -11.5t-6.5 -35.5l-223 -229q-19 -19 -45 -20t-51.5 -1z" />
    <glyph glyph-name="uhungarumlaut" unicode="&#x171;" horiz-adv-x="1076" 
d="M841 956q83 0 83 -31v-900q0 -31 -68.5 -31t-78.5 18q-3 6 -3 13v119q-148 -163 -304 -163q-322 0 -322 398v546q0 31 83 31t83 -31v-524q0 -278 190 -278q114 0 254 173v629q0 31 83 31zM678.5 1067q-25.5 0 -39 7t-3.5 22l182 262q13 21 43.5 23.5t57.5 2.5
q55 0 70 -13t-8 -36l-215 -247q-15 -17 -38.5 -19t-49 -2zM334.5 1067q-35.5 0 -35.5 16q0 6 4 14l171 258q15 23 43.5 26t55.5 3q58 0 73 -12t-7 -38l-211 -246q-14 -17 -36 -19t-57.5 -2z" />
    <glyph glyph-name="Uogonek" unicode="&#x172;" horiz-adv-x="1314" 
d="M974 1269q0 31 85.5 31t85.5 -31v-791q0 -273 -183 -409q-42 -29 -145 -132l-50 -49q-38 -38 -38 -76q0 -53 73 -53h113q27 0 27 -45.5t-11.5 -51.5t-48 -16.5t-124.5 -10.5t-140 38t-52 103t25 101.5t51 62.5l48 47q-45 -5 -81.5 -5t-97.5 14t-113 40q-228 116 -228 429
v804q0 31 85.5 31t85.5 -31v-789q-1 -258 185 -330q58 -22 133 -22q151 0 233 89.5t82 259.5v792z" />
    <glyph glyph-name="uogonek" unicode="&#x173;" horiz-adv-x="1076" 
d="M846 -365q-212 0 -212 148q0 65 42 117q16 20 43 46l60 59v139h-3q-146 -163 -306 -163q-322 0 -322 398v546q0 31 83 31t83 -31v-524q0 -278 190 -278q116 0 254 173v629q0 31 83 31t83 -31v-893q0 -53 -30 -83l-67 -67q-35 -37 -35 -73q0 -52 74 -52h92q28 1 28 -31
q0 -47 -5.5 -56.5t-38.5 -22t-96 -12.5z" />
    <glyph glyph-name="Wcircumflex" unicode="&#x174;" horiz-adv-x="1822" 
d="M1205 2q-25 8 -33 36l-271 977h-2l-250 -977q-6 -27 -24 -34q-50 -17 -109.5 -11.5t-79.5 12t-26 33.5l-342 1195q-12 45 1.5 56t61.5 11q77 0 92.5 -6.5t19.5 -29.5l291 -1084h1l276 1082q6 24 24 31t60 7q66 0 84 -7t24 -31l297 -1082h2l285 1083q7 24 22 30.5t58 6.5
q72 0 84.5 -11t2.5 -57l-343 -1194q-8 -27 -28 -34q-33 -10 -93 -10t-85 8zM1018 1660l214 -227q27 -30 -13 -36q-14 -2 -40 -2q-80 0 -102 22l-154 173l-159 -168q-24 -24 -54 -25.5t-56 -1.5q-47 0 -58 9t7 29l224 227q22 25 49 27t59 2q54 0 83 -29z" />
    <glyph glyph-name="wcircumflex" unicode="&#x175;" horiz-adv-x="1464" 
d="M204 950q15 -6 22 -26l217 -742l2 -9l201 751q4 19 20.5 25.5t52.5 6.5q59 0 75 -6t20 -24l215 -744l2 -9l215 751q4 20 21 26t55 6q62 0 76 -6.5t14 -22t-9 -42.5l-265 -855q-13 -48 -125 -37q-57 5 -74 10.5t-23 26.5l-189 653l-2 9l-177 -662q-6 -22 -24 -27
q-51 -16 -105 -10.5t-71 11t-23 26.5l-263 855q-9 27 -9 43q0 28 68 28t83 -6zM479 1147l165 229q13 20 42 23q28 3 50 3q69 0 88 -26l165 -229q41 -56 -31 -56q-53 0 -65.5 4.5t-28.5 25.5l-130 180l-130 -180q-15 -25 -37.5 -27.5t-57.5 -2.5q-75 0 -30 56z" />
    <glyph glyph-name="Ycircumflex" unicode="&#x176;" horiz-adv-x="998" 
d="M585 26q0 -32 -86.5 -32t-86.5 32v477l-366 730q-21 44 -9 55.5t61 11.5q73 0 93 -6.5t31 -27.5l179 -372q25 -53 50 -111t51 -117h2q42 103 97 225l180 374q6 21 25 28t61 7q78 0 92 -12t-8 -55l-366 -730v-477zM597 1660l214 -227q27 -30 -13 -36q-14 -2 -40 -2
q-80 0 -102 22l-154 173l-159 -168q-24 -24 -54 -25.5t-56 -1.5q-47 0 -58 9t7 29l224 227q22 25 49 27t59 2q54 0 83 -29z" />
    <glyph glyph-name="ycircumflex" unicode="&#x177;" horiz-adv-x="927" 
d="M443 -331q-12 -33 -84 -33t-88 11.5t-4 39.5l124 313q-21 9 -28 32l-321 860q-8 21 -8 33t8 19t26 9.5t48 2.5q56 0 72 -6.5t26 -32.5l257 -722h3l248 726q6 19 18.5 27t55.5 8t61 -2.5t26.5 -9.5t8.5 -19t-6 -30zM209 1147l165 229q13 20 42 23q28 3 50 3q69 0 88 -26
l165 -229q41 -56 -31 -56q-53 0 -65.5 4.5t-28.5 25.5l-130 180l-130 -180q-15 -25 -37.5 -27.5t-57.5 -2.5q-75 0 -30 56z" />
    <glyph glyph-name="Ydieresis" unicode="&#x178;" horiz-adv-x="998" 
d="M585 26q0 -32 -86.5 -32t-86.5 32v477l-366 730q-21 44 -9 55.5t61 11.5q73 0 93 -6.5t31 -27.5l179 -372q25 -53 50 -111t51 -117h2q42 103 97 225l180 374q6 21 25 28t61 7q78 0 92 -12t-8 -55l-366 -730v-477zM804 1528.5q0 -55.5 -20.5 -76.5t-76.5 -21t-76.5 20.5
t-20.5 76t21 76t77 20.5t76 -20t20 -75.5zM391 1528.5q0 -55.5 -21 -76.5t-77 -21t-76 20.5t-20 76t20.5 76t76.5 20.5t76.5 -20t20.5 -75.5z" />
    <glyph glyph-name="Zacute" unicode="&#x179;" horiz-adv-x="959" 
d="M881 145q35 0 35 -72.5t-35 -72.5h-764q-58 0 -58 67v37q0 38 15.5 64.5t28.5 47.5l597 934h-590q-37 0 -37 72t37 72h720q58 0 58 -63v-39q0 -42 -15.5 -69.5t-29.5 -47.5l-594 -930h632zM768.5 1674.5q14.5 -14.5 -5.5 -36.5l-227 -212q-26 -26 -52 -28.5t-48 -2.5
q-43 0 -53 10.5t8 32.5l189 213q27 32 60.5 35t73.5 3t54.5 -14.5z" />
    <glyph glyph-name="zacute" unicode="&#x17a;" horiz-adv-x="809" 
d="M691 139q36 0 36 -69.5t-36 -69.5h-554q-48 0 -48 61v34q0 37 13 60t23 39l397 618h-385q-35 0 -35 69.5t35 69.5h516q47 0 47 -59v-32q0 -39 -13 -63t-23 -40l-395 -618h422zM643.5 1388.5q14.5 -13.5 -2.5 -32.5l-181 -233q-22 -27 -43.5 -29.5t-42.5 -2.5
q-40 0 -51.5 10t3.5 33l145 231q16 30 47.5 33.5t71 3.5t54 -13.5z" />
    <glyph glyph-name="Zdotaccent" unicode="&#x17b;" horiz-adv-x="959" 
d="M881 145q35 0 35 -72.5t-35 -72.5h-764q-58 0 -58 67v37q0 38 15.5 64.5t28.5 47.5l597 934h-590q-37 0 -37 72t37 72h720q58 0 58 -63v-39q0 -42 -15.5 -69.5t-29.5 -47.5l-594 -930h632zM584 1528q0 -55 -22 -76t-78.5 -21t-77.5 20.5t-21 75.5t21.5 76.5t78 21.5
t78 -21t21.5 -76z" />
    <glyph glyph-name="zdotaccent" unicode="&#x17c;" horiz-adv-x="809" 
d="M691 139q36 0 36 -69.5t-36 -69.5h-554q-48 0 -48 61v34q0 37 13 60t23 39l397 618h-385q-35 0 -35 69.5t35 69.5h516q47 0 47 -59v-32q0 -39 -13 -63t-23 -40l-395 -618h422zM514 1231q0 -55 -22 -76t-78.5 -21t-77.5 20.5t-21 75.5t21.5 76t78 21t78 -20.5t21.5 -75.5z
" />
    <glyph glyph-name="Zcaron" unicode="&#x17d;" horiz-adv-x="959" 
d="M881 145q35 0 35 -72.5t-35 -72.5h-764q-58 0 -58 67v37q0 38 15.5 64.5t28.5 47.5l597 934h-590q-37 0 -37 72t37 72h720q58 0 58 -63v-39q0 -42 -15.5 -69.5t-29.5 -47.5l-594 -930h632zM419 1399.5q-16 4.5 -36 24.5l-214 227q-27 30 13 36q14 2 40 2q26 1 44 -1
q36 -3 58 -22l154 -172l160 168q21 24 52 26q30 2 56 1q49 0 59.5 -9t-7.5 -29l-223 -227q-22 -25 -49.5 -27t-59 -2t-47.5 4.5z" />
    <glyph glyph-name="zcaron" unicode="&#x17e;" horiz-adv-x="809" 
d="M691 139q36 0 36 -69.5t-36 -69.5h-554q-48 0 -48 61v34q0 37 13 60t23 39l397 618h-385q-35 0 -35 69.5t35 69.5h516q47 0 47 -59v-32q0 -39 -13 -63t-23 -40l-395 -618h422zM667 1346l-165 -229q-15 -20 -43 -23q-27 -3 -49 -3q-70 0 -89 26l-165 229q-44 56 32 56
q53 0 67 -6t26 -24l130 -181l130 181q19 25 40 27.5t56 2.5q71 0 30 -56z" />
    <glyph glyph-name="longs" unicode="&#x17f;" horiz-adv-x="497" 
d="M318 25q0 -31 -75 -31t-87 18q-4 6 -3 13v1019q-1 274 157 336q52 20 98.5 20t67.5 -2.5t39 -7t31.5 -9.5t17.5 -10q14 -16 14.5 -73t-22.5 -57q-5 0 -14.5 3t-32.5 10t-61 7q-75 0 -102.5 -49t-27.5 -164v-1023z" />
    <glyph glyph-name="uni0180" unicode="&#x180;" horiz-adv-x="1130" 
d="M371 293q139 -170 257 -170q120 -1 180 109q52 94 52 239q0 156 -47 246q-58 111 -176 111q-129 0 -266 -176v-359zM670 970q185 0 274.5 -134.5t89.5 -359.5t-101.5 -360t-285.5 -135q-85 0 -151 36t-144 118v-110q0 -31 -67 -31t-76 17q-3 6 -3 14v1078h-135
q-32 0 -32 65t33 65h134v128q0 32 82.5 32t82.5 -32v-128h246q33 0 33 -65t-33 -65h-246v-281q144 148 299 148z" />
    <glyph glyph-name="uni0181" unicode="&#x181;" horiz-adv-x="1260" 
d="M857 1101q-55 53 -191 53h-178v-419h196q120 0 174 61t54 156.5t-55 148.5zM694 598h-206v-456h250q176 0 232 124q18 41 18 97q-2 235 -294 235zM676 1294q413 0 413 -327q0 -93 -43.5 -166t-128.5 -109q110 -21 182 -107t72 -195q0 -198 -122 -294t-329 -96h-338
q-23 0 -43.5 15.5t-20.5 54.5v1082q-139 -10 -157 -92q-5 -22 -5 -45l5 -75q0 -26 -54 -26t-71 18.5t-19 91.5q-4 142 77 206t271 64h311z" />
    <glyph glyph-name="uni0182" unicode="&#x182;" horiz-adv-x="1101" 
d="M847 373q0 108 -68.5 170.5t-218.5 62.5h-216v-466h221q209 0 265 136q18 43 17 97zM907 1294q36 0 36 -72.5t-35 -72.5h-564v-405h237q327 0 416 -210q28 -66 28 -146q1 -170 -99 -270q-117 -118 -377 -118h-312q-24 0 -44 15.5t-20 55.5v1153q0 39 20 54.5t43 15.5h671
z" />
    <glyph glyph-name="uni0183" unicode="&#x183;" horiz-adv-x="1076" 
d="M299 25q0 -31 -67.5 -31t-75.5 17q-3 6 -3 14v1308q0 59 51 59h654q33 0 33 -74t-33 -74h-540v-422q144 148 299 148q185 0 274.5 -134.5t89.5 -359.5t-101.5 -360t-285.5 -135q-85 0 -151 36t-144 118v-110zM318 293q138 -170 256 -170q118 -1 180 109q52 94 53 239
q0 156 -47 246q-58 111 -176 111q-129 0 -266 -176v-359z" />
    <glyph glyph-name="uni0184" unicode="&#x184;" horiz-adv-x="1088" 
d="M856 388q0 123 -72 186q-37 34 -92.5 51t-167.5 17h-180v-499h192q262 0 308 164q12 43 12 81zM1035 412q0 -281 -252 -377q-93 -35 -258 -35h-286q-44 0 -61 37q-6 13 -6 33v943q-101 53 -121.5 77t-20.5 43q0 42 94.5 104.5t185.5 62.5q34 0 34 -31v-485h195
q142 0 226.5 -24t143.5 -72q126 -100 126 -276z" />
    <glyph glyph-name="uni0185" unicode="&#x185;" horiz-adv-x="1076" 
d="M318 293q140 -170 256 -170q118 -1 180 109q52 93 53 239q0 156 -47 246q-58 111 -176 111q-66 0 -127 -39t-139 -137v-359zM299 25q0 -31 -73 -31t-73 31v1078q-106 56 -127.5 80t-21.5 43q0 42 94.5 104.5t185.5 62.5q34 0 34 -31v-540q144 148 299 148q186 0 275 -135
t89 -359.5t-101.5 -359.5t-285.5 -135q-85 0 -151 36t-144 118v-110z" />
    <glyph glyph-name="uni0186" unicode="&#x186;" horiz-adv-x="1122" 
d="M129 1057q-26 0 -26 52q1 52 5 71q4 20 14 30q30 30 130 66t224 36q257 0 402.5 -173t145.5 -484q0 -495 -318 -629q-105 -44 -224 -44t-196 23q-157 47 -182 95q-11 21 -11 83.5t28 62.5q11 0 34 -18t63 -40t100.5 -40t147.5 -18q179 0 275.5 126.5t96.5 383.5
q0 416 -255 504q-60 20 -134 20t-128 -16.5t-93.5 -37t-64 -37t-34.5 -16.5z" />
    <glyph glyph-name="uni0187" unicode="&#x187;" horiz-adv-x="1181" 
d="M1010 259q26 0 26 -54.5t-4 -70.5t-18 -30q-37 -37 -139 -78.5t-228 -41.5q-256 0 -403 168t-147 481t156 495t413 182q96 0 201 -35q26 260 262 260q80 -4 97.5 -18.5t17.5 -70.5t-26 -56l-64 4q-84 0 -108 -68q-15 -42 -15 -142v-76q0 -73 -31 -73q-16 -1 -40 19
q-133 106 -275 106q-195 0 -298.5 -138t-103.5 -382q0 -370 224 -472q72 -32 156 -32t141.5 19t98 42.5t67 42.5t40.5 19z" />
    <glyph glyph-name="uni0188" unicode="&#x188;" horiz-adv-x="947" 
d="M773 238q27 0 27 -61t-7 -74t-19 -25q-60 -60 -192 -88q-44 -9 -116 -9t-147 32q-229 98 -229 451q0 253 115.5 379t304.5 126q71 2 150 -27q33 199 235 199q76 0 95.5 -18.5t19.5 -72.5t-26 -54l-64 4q-67 0 -95.5 -42t-28.5 -161v-3q0 -70 -31 -70q-14 0 -34 16
q-108 90 -225.5 90t-180.5 -91t-63 -266.5t64.5 -262t181.5 -86.5q118 0 232 96q22 18 33 18z" />
    <glyph glyph-name="uni0189" unicode="&#x189;" horiz-adv-x="1279" 
d="M598 744q33 0 33 -71.5t-33 -71.5h-236v-457h178q239 0 351.5 127.5t112.5 387.5q0 348 -248 455q-86 37 -219 37h-175v-407h236zM61 601q-34 0 -34 71.5t34 71.5h130v480q0 39 20 54.5t43 15.5h293q471 0 599 -366q40 -116 40 -273q0 -323 -167 -489t-491 -166h-274
q-23 0 -43 15.5t-20 54.5v531h-130z" />
    <glyph glyph-name="uni018A" unicode="&#x18a;" horiz-adv-x="1406" 
d="M665 1151h-175v-1007h177q239 0 352 126.5t113 371t-108 369.5q-56 68 -120 95q-109 45 -239 45zM161 940q0 -26 -54 -26t-71 18.5t-19 91.5q-4 142 77 206t271 64h310q317 0 477.5 -166.5t160.5 -461.5q-4 -337 -167.5 -501.5t-489.5 -164.5h-274q-23 0 -43.5 15.5
t-20.5 54.5v1082q-139 -10 -157 -92q-5 -22 -5 -45z" />
    <glyph glyph-name="uni018B" unicode="&#x18b;" horiz-adv-x="1101" 
d="M254 373q0 -107 67 -170t215 -63h221v466h-216q-213 0 -269 -136q-18 -43 -18 -97zM193 1149q-35 0 -35 72.5t36 72.5h671q23 0 43 -15.5t20 -54.5v-1153q0 -40 -20 -55.5t-44 -15.5h-312q-370 0 -452 240q-24 70 -24 148q0 163 110.5 259.5t333.5 96.5h237v405h-564z
" />
    <glyph glyph-name="uni018C" unicode="&#x18c;" horiz-adv-x="1076" 
d="M484 970q144 0 274 -136v410h-540q-33 0 -33 74t33 74h655q49 0 51 -59v-1308q0 -31 -73.5 -31t-73.5 31v119q-150 -163 -326.5 -163t-265.5 134t-89 359.5t100.5 360.5t287.5 135zM267 482q0 -248 116 -330q43 -30 92 -30q83 0 146 41.5t137 134.5v360
q-137 170 -257 170t-177 -101.5t-57 -244.5z" />
    <glyph glyph-name="uni018D" unicode="&#x18d;" horiz-adv-x="1072" 
d="M791 946q-1 224 -141 292q-50 24 -116 24q-123 0 -195.5 -83.5t-72.5 -213.5t56.5 -219t214.5 -195q254 125 254 395zM187 185q8 0 35 -11.5t98 -37.5t136 -26q98 0 135 28t37 59t-3 46.5t-12.5 31t-26 33t-43.5 40t-66.5 50.5t-102.5 72q-137 95 -209 207.5t-72 261.5
q0 195 118.5 328t330 133t317.5 -118.5t106 -302.5t-81.5 -315.5t-228.5 -208.5q118 -81 140 -173q7 -30 7 -72q0 -98 -84 -163.5t-231 -65.5q-147 -1 -267 49q-38 16 -45.5 26.5t-10.5 22.5t-3 59t26 47z" />
    <glyph glyph-name="uni018E" unicode="&#x18e;" horiz-adv-x="1000" 
d="M143 0q-35 0 -35 71.5t35 71.5h513v463h-434q-34 0 -34 69.5t34 69.5h434v406h-506q-34 0 -34 71.5t34 71.5h614q23 0 43.5 -15.5t20.5 -54.5v-1154q0 -39 -20.5 -54.5t-43.5 -15.5h-621z" />
    <glyph glyph-name="uni018F" unicode="&#x18f;" horiz-adv-x="1317" 
d="M917.5 241.5q96.5 115.5 113.5 305.5h-742q15 -201 85 -301q84 -120 265.5 -120t278 115.5zM100 630q0 63 62 63h872q-11 225 -104 338q-108 131 -332 131q-176 0 -349 -94q-32 -18 -44 -18q-21 0 -27 15t-6 54.5t4 55.5t20 30q38 34 151.5 70t252.5 36q617 0 617 -659
q0 -314 -149.5 -493.5t-423 -179.5t-409 168t-135.5 483z" />
    <glyph glyph-name="uni0190" unicode="&#x190;" horiz-adv-x="970" 
d="M871 216q24 0 24 -38q-1 -95 -17 -110q-37 -32 -121 -59.5t-206 -27.5q-228 0 -344.5 102t-116.5 280q0 126 81 216.5t203 104.5v3q-162 29 -220 181q-18 49 -18 118q0 147 106 237q104 90 282 90q178 1 290 -61q26 -14 42.5 -30.5t16.5 -66t-4.5 -63t-18.5 -13.5
q-12 -1 -38 13q-141 74 -259.5 74.5t-176.5 -53.5q-58 -55 -58 -129q0 -130 77.5 -186t214.5 -56h137q39 0 39 -70q0 -40 -8.5 -55t-31.5 -15h-152q-151 0 -232.5 -66t-81.5 -174.5t71.5 -170.5t218.5 -62q147 -1 267 73q22 14 34 14z" />
    <glyph glyph-name="uni0191" unicode="&#x191;" horiz-adv-x="941" 
d="M818 1294q34 0 34 -73t-34 -73h-474v-440h448q34 0 34 -71.5t-34 -71.5h-448v-579q0 -264 -150 -328q-50 -22 -106 -22q-91 0 -110.5 18.5t-19.5 73t26 54.5l64 -5q114 0 122 147q2 27 2 63v1237q0 39 20.5 54.5t43.5 15.5h582z" />
    <glyph glyph-name="florin" unicode="&#x192;" horiz-adv-x="625" 
d="M563 951q33 -1 33 -69t-33 -68h-201v-829q0 -184 -63.5 -267t-201.5 -83q-89 0 -102 19t-13 73t26 54l64 -5q67 0 95.5 43t28.5 167v828h-127q-32 0 -32 68t32 69h127v93q0 275 108 315.5t162 40.5t87.5 -6.5t55.5 -16t29.5 -26.5t7.5 -67t-23 -50q-7 0 -17.5 4.5
t-38 14.5t-67.5 10q-77 0 -107.5 -48.5t-30.5 -165.5v-98h201z" />
    <glyph glyph-name="uni0193" unicode="&#x193;" horiz-adv-x="1294" 
d="M1144 1184v-66q0 -75 -31 -75q-12 0 -40 19q-152 103 -324 103q-229 0 -353 -145t-124 -379t127 -371.5t334 -137.5q128 0 236 58v377h-300q-34 0 -34 70.5t34 70.5h411q23 0 42 -16t19 -54v-493q2 -39 -22.5 -61t-96.5 -48q-145 -54 -296 -54q-297 0 -466 177.5
t-169 480t177 487.5t466 185q128 0 246 -40q14 188 140 242q78 34 186 15q24 -4 37.5 -15.5t13.5 -67.5t-26 -56l-64 4q-84 0 -108 -68q-15 -42 -15 -142z" />
    <glyph glyph-name="uni0194" unicode="&#x194;" horiz-adv-x="1162" 
d="M454 142h258l-131 214zM200 22.5q0 16.5 17 42.5l268 420l-442 748q-15 28 -15 38q0 20 24 24.5t63 4.5q62 0 76.5 -6.5t26.5 -27.5l367 -631l366 629q13 22 27 29t64 7t70 -5t20 -21t-15 -42l-433 -741l272 -426q15 -22 15 -39.5t-14 -21.5t-55 -4h-628q-41 0 -57.5 3
t-16.5 19.5z" />
    <glyph glyph-name="uni0195" unicode="&#x195;" horiz-adv-x="1603" 
d="M606 970q322 0 322 -397v-270q0 -175 180 -175q88 0 134.5 57t46.5 167v573q0 32 83 32t83 -32v-542q0 -309 -196 -379q-65 -24 -150 -23q-181 0 -263.5 75t-82.5 238v258q0 275 -191 275q-114 0 -254 -173v-629q0 -31 -82.5 -31t-82.5 31v1336q0 32 82.5 32t82.5 -32
v-539q141 148 288 148z" />
    <glyph glyph-name="uni0196" unicode="&#x196;" horiz-adv-x="592" 
d="M570 144q22 0 22 -41q0 -62 -8 -79q-20 -40 -154.5 -40t-196 75t-61.5 234v975q0 32 86 32t86 -32v-953q0 -92 24 -141t84 -49t85.5 9.5t32.5 9.5z" />
    <glyph glyph-name="uni0197" unicode="&#x197;" horiz-adv-x="550" 
d="M523 663q0 -71 -34 -71h-128v-566q0 -32 -86 -32t-86 32v566h-127q-35 0 -35 71t35 71h127v534q0 32 86 32t86 -32v-534h128q34 0 34 -71z" />
    <glyph glyph-name="uni0198" unicode="&#x198;" horiz-adv-x="1064" 
d="M1016 28q0 -34 -81 -34t-95 12t-20 20l-476 647v-647q0 -32 -86 -32t-86 32v1242q0 32 86 32t86 -32v-575l327 466q64 89 106.5 114.5t101.5 25.5q96 0 118 -20.5t22 -78t-26 -57.5l-64 5q-57 0 -101 -46q-20 -20 -44 -55l-254 -354l462 -614q24 -37 24 -51z" />
    <glyph glyph-name="uni0199" unicode="&#x199;" horiz-adv-x="931" 
d="M318 25q0 -31 -82.5 -31t-82.5 31v1018q0 184 63 267t202 83q75 0 95 -19t20 -73t-26 -54l-64 5q-97 0 -117 -101q-7 -36 -8 -102v-502l340 374q29 35 94.5 35t84.5 -6.5t19 -26.5t-28 -49l-326 -326l366 -475q24 -31 24 -47q0 -32 -81 -32t-94 11.5t-19 20.5l-380 498
v-499z" />
    <glyph glyph-name="uni019A" unicode="&#x19a;" horiz-adv-x="577" 
d="M538 716q0 -64 -32 -64h-135v-627q0 -31 -75 -31q-74 0 -86 18q-4 6 -4 13v627h-134q-33 0 -33 64t33 64h134v581q0 32 82.5 32t82.5 -32v-581h135q32 0 32 -64z" />
    <glyph glyph-name="uni019B" unicode="&#x19b;" horiz-adv-x="948" 
d="M934.5 117.5q5.5 -10.5 5.5 -56.5q0 -47 -8 -55q-24 -24 -80 -23q-103 0 -150.5 43.5t-84.5 167.5l-166 548l-246 -710q-8 -25 -23 -30q-46 -17 -96 -10t-61 16.5t5 49.5l347 906l-29 88l-113 -79q-8 -5 -21.5 -5t-45.5 46t-7 64l141 99q-11 22 -26 46q-29 36 -70.5 36
t-74 -8.5t-37.5 -8.5q-19 0 -19 39q0 61 6.5 76t42.5 28t84 13q88 0 140 -26t94 -97l110 78q26 21 56.5 -22.5t30.5 -58.5t-12 -24l-132 -92l286 -921q27 -91 65 -105q13 -4 30 -5l39 3q14 0 19.5 -10.5z" />
    <glyph glyph-name="uni019C" unicode="&#x19c;" horiz-adv-x="1801" 
d="M1458 1268q0 32 85.5 32t85.5 -32v-1242q0 -17 -15.5 -24.5t-81 -7.5t-65.5 32v64q-103 -109 -256 -109q-211 0 -315 147q-111 -147 -329 -147q-309 -1 -375 273q-22 90 -22 211v803q0 32 85.5 32t85.5 -32v-802q0 -254 126 -316q45 -22 111 -22q126 0 180 80t56 252v808
q0 32 85.5 32t85.5 -32v-801q0 -257 127 -317q45 -22 111 -22q130 0 182.5 84.5t52.5 264.5v791z" />
    <glyph glyph-name="uni019D" unicode="&#x19d;" horiz-adv-x="1322" 
d="M335 807v-821q0 -188 -62 -269t-200 -81q-76 0 -93.5 16.5t-19.5 31t-2 31.5q0 67 26 67l64 -5q114 0 122 147q2 27 2 63v1233q0 40 22 57t48 17h82q56 0 83 -21t62 -84l314 -568q92 -164 206 -387h1q-3 118 -3 329v702q0 32 81.5 32t81.5 -32v-1194q0 -56 -47 -70
q-13 -4 -26 -4h-55q-52 0 -83.5 26t-72.5 103l-408 736q-74 132 -125 241h-2q4 -144 4 -296z" />
    <glyph glyph-name="uni019E" unicode="&#x19e;" horiz-adv-x="1100" 
d="M606 970q322 0 322 -396v-907q0 -31 -75 -31t-87 18q-4 6 -3 13v885q0 275 -191 275q-116 0 -254 -173v-629q0 -31 -75 -31t-87 18q-4 6 -3 13v900q0 31 74.5 31t74.5 -31v-119q147 164 304 164z" />
    <glyph glyph-name="uni019F" unicode="&#x19f;" horiz-adv-x="1356" 
d="M681 1171q-197 0 -294 -122.5t-106 -326.5h793q-18 321 -218 415q-72 34 -175 34zM674.5 125q200.5 0 297.5 125t103 334h-794q11 -221 102 -340t291.5 -119zM99 640q0 316 153 494.5t439 178.5q421 -1 529 -371q36 -122 36 -279q0 -322 -150.5 -502t-440.5 -180
q-566 0 -566 659z" />
    <glyph glyph-name="Ohorn" unicode="&#x1a0;" horiz-adv-x="1428" 
d="M1075 650q0 516 -394 516q-207 0 -311 -154q-88 -131 -89 -360q-1 -380 203 -484q76 -38 190 -38q212 0 314 156q87 132 87 364zM1256 678q0 -336 -150 -516.5t-441 -180.5q-566 0 -566 659q0 314 151 493.5t441 179.5q328 0 468 -227q67 36 67 175v57q0 50 19.5 66
t59.5 16q66 0 84.5 -16t18.5 -82q0 -141 -51.5 -214t-150.5 -99q50 -138 50 -311z" />
    <glyph glyph-name="ohorn" unicode="&#x1a1;" horiz-adv-x="1184" 
d="M263 478q0 -358 275 -358q140 0 209 95t69 259q0 358 -274 358q-140 0 -209.5 -96.5t-69.5 -257.5zM990 472q0 -215 -118.5 -353t-341.5 -138q-328 0 -413 282q-27 90 -27 202q0 231 118.5 368t340.5 137q283 0 387 -216q71 36 71 177v57q0 51 15.5 66.5t53.5 15.5
q64 0 78.5 -15t14.5 -85q0 -147 -49.5 -220.5t-147.5 -94.5q18 -86 18 -183z" />
    <glyph glyph-name="uni01A2" unicode="&#x1a2;" horiz-adv-x="1583" 
d="M652 1160q-172 0 -270.5 -138t-98.5 -382q1 -372 213 -472q68 -32 158.5 -32t180.5 42v929q-95 53 -183 53zM648 1310q188 0 336 -109l246 75q79 24 114 24q67 0 67 -77v-1197q0 -32 -86 -32t-86 32v1102l-232 -70v-903q1 -85 -157 -137q-103 -34 -224 -34
q-246 0 -387.5 168.5t-141.5 481.5t151.5 494.5t399.5 181.5z" />
    <glyph glyph-name="uni01A3" unicode="&#x1a3;" horiz-adv-x="1342" 
d="M559 834q-141 0 -219 -94.5t-78 -267.5t77 -263t215 -90q83 0 142 26v655q-63 34 -137 34zM576 970q127 0 254 -78l198 53q63 18 97 18q65 0 65 -66v-871q0 -32 -80.5 -32t-80.5 32v783l-171 -46v-654q0 -63 -136 -103q-85 -26 -186 -25q-205 0 -326 128t-121 359.5
t127 366.5t360 135z" />
    <glyph glyph-name="uni01A4" unicode="&#x1a4;" horiz-adv-x="1252" 
d="M980 912q0 68 -29 121t-85 86t-169 33h-159v-519h155q77 0 129 20q158 62 158 259zM161 940q0 -26 -54 -26t-71 18.5t-19 91.5q-4 142 77 206t271 64h346q173 0 279 -61q171 -99 171 -318q-6 -303 -270 -393q-88 -30 -206 -30h-147v-466q0 -32 -86 -32t-86 32v1128
q-180 0 -204 -89q-6 -25 -6 -50z" />
    <glyph glyph-name="uni01A5" unicode="&#x1a5;" horiz-adv-x="1076" 
d="M760 717q-58 111 -177 111q-66 0 -128 -41t-137 -135v-358q69 -84 130.5 -127.5t126 -43.5t108 30.5t71.5 79.5q53 93 53 243.5t-47 240.5zM318 -332q0 -32 -82.5 -32t-82.5 32v1375q0 184 63.5 267t201.5 83q75 0 95 -19t20 -73t-26 -54l-64 5q-97 0 -117 -101
q-7 -36 -8 -102v-227q79 79 148 113.5t159 34.5q178 0 267 -134t89 -349q1 -364 -221 -471q-72 -35 -140 -35q-106 0 -166 31.5t-136 105.5v-450z" />
    <glyph glyph-name="uni01A6" unicode="&#x1a6;" horiz-adv-x="1112" 
d="M776 784q0 62 -34 114q-48 74 -170 86q-32 3 -83 3h-145v-436h168q130 0 197 59.5t67 173.5zM958 788q0 -237 -250 -325q61 -27 104 -84t85 -160l116 -285q22 -57 22 -69q0 -22 -18 -29t-59 -7q-65 0 -83 8t-26 33l-119 305q-49 122 -89 162q-74 75 -182 75h-115v-386
q0 -32 -86 -32t-86 32v1242q0 32 86 32t86 -32v-139h167q71 0 140 -8q227 -39 287 -211q20 -56 20 -122z" />
    <glyph glyph-name="uni01A7" unicode="&#x1a7;" horiz-adv-x="941" 
d="M831 237q32 0 32 -76q-4 -52 -12.5 -67.5t-52.5 -41.5q-122 -71 -307 -71t-303 96q-117 97 -117 283q-1 186 189 298q55 32 164.5 83t151.5 81q94 67 94 163q0 126 -118 170q-40 15 -96 15t-101.5 -14.5t-79.5 -31.5t-56 -31.5t-34 -14.5q-27 0 -27 66t16 82
q84 87 308 87q162 0 262.5 -86.5t100.5 -241.5q0 -193 -188 -303q-53 -31 -109 -58q-159 -76 -204 -110q-93 -70 -93 -167t62.5 -158t159 -61t154 17t98.5 37.5t66.5 37.5t39.5 17z" />
    <glyph glyph-name="uni01A8" unicode="&#x1a8;" horiz-adv-x="801" 
d="M685 195q28 0 28 -65.5t-28 -85.5q-87 -63 -288 -63q-139 0 -227.5 72t-88.5 218t145 220q48 24 128 55.5t112 51.5q72 45 72 119q0 125 -162 125q-98 0 -186 -53q-16 -10 -25 -10q-26 0 -26 60t17 72q79 59 230 59q148 0 229 -72.5t81 -188.5q0 -155 -143 -228
q-59 -30 -133 -59q-74 -30 -106 -50q-70 -46 -70 -116q0 -143 180 -143q117 0 228 69q21 13 33 13z" />
    <glyph glyph-name="uni01A9" unicode="&#x1a9;" horiz-adv-x="939" 
d="M818 143q35 0 35 -71.5t-35 -71.5h-691q-57 0 -57 67v28q0 50 15 73t30 42l363 476l-333 398q-38 43 -41.5 69.5t-3.5 45.5v29q0 66 58 66h653q33 0 33 -71.5t-33 -71.5h-505l324 -386q22 -28 23.5 -43.5t1.5 -27.5q0 -40 -25 -72l-363 -479h551z" />
    <glyph glyph-name="uni01AA" unicode="&#x1aa;" horiz-adv-x="882" 
d="M399 1169q0 29 -23 55.5t-61.5 26.5t-62 -26.5t-23.5 -66.5t23 -66.5t53 -26.5t45 7.5t26 20.5t17 30t6 46zM314 1389q253 0 253 -291v-1141q0 -188 117 -188q41 0 76.5 13.5t41.5 13.5q27 0 27 -51.5t-8 -67.5t-45.5 -29t-108.5 -13q-141 0 -203 75.5t-62 234.5v1000
q-42 -16 -92 -16t-94 16.5t-75.5 46t-49.5 71t-18 92.5q0 101 68.5 167.5t172.5 66.5z" />
    <glyph glyph-name="uni01AB" unicode="&#x1ab;" horiz-adv-x="736" 
d="M648 170q23 0 23 -61v-123q0 -184 -63 -267t-202 -83q-75 0 -93 15.5t-20 30.5t-2 33q0 67 26 67l64 -5q115 1 123 147q2 26 1 62q-24 -3 -50 -3q-141 0 -202 74.5t-61 230.5v526h-126q-33 0 -33 68.5t34 68.5h125v214q0 32 82.5 32t82.5 -32v-214h231q33 0 33 -68.5
t-33 -68.5h-231v-502q0 -93 27.5 -140.5t90.5 -47.5t149 39q16 7 24 7z" />
    <glyph glyph-name="uni01AC" unicode="&#x1ac;" horiz-adv-x="1087" 
d="M1038 1294q34 0 34 -73t-34 -73h-364v-1122q0 -32 -86 -32t-86 32v1122h-220q-126 0 -126 -133l5 -75q0 -26 -54 -26t-71 18.5t-19 91.5q-4 142 77 206t271 64h673z" />
    <glyph glyph-name="uni01AD" unicode="&#x1ad;" horiz-adv-x="686" 
d="M357 1039v-88h231q33 0 33 -68.5t-33 -68.5h-231v-502q0 -93 27.5 -140.5t85.5 -47.5t89 14t39 14q23 0 23 -61t-21 -75q-47 -32 -145 -33q-141 0 -202 74.5t-61 230.5v526h-126q-33 0 -33 68.5t34 68.5h125v88q0 184 63.5 267t201.5 83q76 0 93.5 -16.5t19.5 -31
t2 -31.5q0 -67 -26 -67l-64 5q-100 0 -118 -100q-8 -42 -7 -109z" />
    <glyph glyph-name="uni01AE" unicode="&#x1ae;" horiz-adv-x="998" 
d="M949 1294q34 0 34 -73t-34 -73h-364v-1161q0 -99 10.5 -127.5t22.5 -45.5q25 -37 91 -37l64 5q26 0 26 -54.5t-19.5 -73t-93.5 -18.5q-140 0 -206.5 87t-66.5 263v1162h-364q-34 0 -34 73t34 73h900z" />
    <glyph glyph-name="Uhorn" unicode="&#x1af;" horiz-adv-x="1478" 
d="M974 1268q0 32 85.5 32t85.5 -32v-199q67 6 90 36q41 52 41 156v57q0 50 19.5 66t59.5 16q66 0 84.5 -16t18.5 -95q0 -171 -87 -251q-69 -64 -226 -63v-497q0 -236 -132 -366.5t-358.5 -130.5t-355.5 125t-129 359v803q0 32 85.5 32t85.5 -32v-782q-1 -264 185 -336
q58 -22 132 -22q150 0 233 87.5t83 261.5v791z" />
    <glyph glyph-name="uhorn" unicode="&#x1b0;" horiz-adv-x="1234" 
d="M841 956q83 0 83 -31v-186q67 7 91 36q42 51 42 156v57q0 51 15.5 66.5t53.5 15.5q64 0 78.5 -15t14.5 -95q0 -175 -70.5 -245t-224.5 -70v-620q0 -31 -75 -31t-75 31v119q-150 -163 -304 -163q-322 0 -322 398v546q0 31 83 31t83 -31v-524q0 -278 190 -278
q114 0 254 173v629q0 31 83 31z" />
    <glyph glyph-name="uni01B1" unicode="&#x1b1;" horiz-adv-x="1360" 
d="M981 1149q277 -155 277 -569q0 -120 -36 -234t-106 -195q-148 -170 -426 -170t-433.5 176t-155.5 459q0 376 276 533h-248q-35 0 -35 72.5t35 72.5h380q57 0 57 -67v-37q0 -41 -17 -60.5t-54 -44.5q-105 -71 -158.5 -177t-53.5 -301t89 -327q62 -92 180 -132
q58 -20 132.5 -20t132 18t101.5 50q82 60 120.5 168.5t38.5 223t-14 188.5t-43.5 132.5t-74.5 105t-82 71.5q-51 35 -61 56.5t-10 48.5v37q0 67 57 67h380q33 0 33 -72.5t-33 -72.5h-248z" />
    <glyph glyph-name="uni01B2" unicode="&#x1b2;" horiz-adv-x="1314" 
d="M170 1268q0 32 85.5 32t85.5 -32v-782q-1 -264 185 -336q58 -22 132 -22q150 0 233 87.5t83 261.5v487q0 98 -11.5 121t-22.5 40q-24 37 -91 37l-64 -5q-26 0 -26 54.5t19.5 73t93.5 18.5q140 0 206.5 -87t66.5 -263v-475q0 -236 -132 -366.5t-358.5 -130.5t-355.5 125
t-129 359v803z" />
    <glyph glyph-name="uni01B3" unicode="&#x1b3;" horiz-adv-x="1090" 
d="M585 26q0 -32 -86.5 -32t-86.5 32v477l-366 730q-22 44 -9.5 55.5t61.5 11.5q78 0 96 -6.5t28 -27.5l179 -372q34 -74 101 -228h2q42 103 97 225l129 270q64 138 190 138q94 0 116.5 -20.5t22.5 -78t-26 -57.5l-64 5q-33 0 -58.5 -21.5t-54.5 -79.5l-271 -544v-477z" />
    <glyph glyph-name="uni01B4" unicode="&#x1b4;" horiz-adv-x="1020" 
d="M359 -364q-72 0 -88 11t-4 40l124 313q-21 9 -28 32l-321 860q-15 40 0 52q16 12 60 12q71 0 86.5 -6.5t25.5 -32.5l257 -722h3l190 560q29 84 54 121q54 80 187 80q76 0 95.5 -18.5t19.5 -72.5t-26 -54l-72 4q-39 0 -62 -22.5t-47 -89.5l-370 -1034q-12 -33 -84 -33z
" />
    <glyph glyph-name="uni01B5" unicode="&#x1b5;" horiz-adv-x="959" 
d="M881 145q35 0 35 -72.5t-35 -72.5h-764q-58 0 -58 67v37q0 38 15.5 64.5t28.5 47.5l240 376h-210q-35 0 -35 71t35 71h301l266 416h-590q-37 0 -37 72t37 72h720q58 0 58 -63v-39q0 -42 -15.5 -69.5t-29.5 -47.5l-218 -341h211q34 0 34 -71t-34 -71h-302l-285 -447h632z
" />
    <glyph glyph-name="uni01B6" unicode="&#x1b6;" horiz-adv-x="809" 
d="M691 139q36 0 36 -69.5t-36 -69.5h-554q-48 0 -48 61v34q0 37 13 60t23 39l158 246h-109q-33 0 -33 64t33 64h191l157 244h-385q-35 0 -35 69.5t35 69.5h516q47 0 47 -59v-32q0 -39 -13 -63t-23 -40l-121 -189h101q32 0 32 -64t-32 -64h-183l-192 -301h422z" />
    <glyph glyph-name="uni01B7" unicode="&#x1b7;" horiz-adv-x="970" 
d="M330 622q-40 0 -40 63q0 35 13.5 56t22.5 33l301 374h-501q-38 0 -38 73t38 73h631q29 0 40.5 -15t11.5 -49.5t-4 -59t-24 -50.5l-287 -361v-3q274 -32 358 -228q28 -67 28 -157q0 -183 -126 -286.5t-357 -103.5q-161 0 -267 60q-32 18 -39.5 30t-11.5 27.5t-4 66.5
t24 51q11 0 33 -14q117 -74 222.5 -73.5t159.5 16.5q54 17 93 47q83 65 83 182q0 173 -166 228q-60 20 -148 20h-46z" />
    </font>
</defs>
</svg>
