<?xml version="1.0" standalone="no"?>
<!DOCTYPE svg PUBLIC "-//W3C//DTD SVG 1.1//EN" "http://www.w3.org/Graphics/SVG/1.1/DTD/svg11.dtd" >
<svg xmlns="http://www.w3.org/2000/svg">
<metadata>
Created by FontPrep 20130207 at Tue Dec  9 01:54:14 2014
 By Alexander Gunnarson
Copyright (c) 1993 House Industries, Brand Design Company. Copyright (c) 2001, 2006 Apple Computer, Inc. All rights reserved.
</metadata>
<defs>
<font id="26d3b8533d58bfd152797cf84e7b75e1" horiz-adv-x='1024' >
  <font-face 
    font-family="Cracked"
    font-weight="400"
    font-stretch="normal"
    units-per-em="2048"
    panose-1="0 0 4 0 0 0 0 0 0 0"
    ascent="1638"
    descent="-410"
    x-height="969"
    cap-height="1331"
    bbox="-797 -745 2048 2271"
    underline-thickness="40"
    underline-position="-246"
    unicode-range="U+000A-FB02"
  />
<missing-glyph horiz-adv-x="1024" 
d="M256 129h512v1348h-512v-1348zM129 0v1604h768v-1604h-768z" />
    <glyph glyph-name=".notdef" horiz-adv-x="1024" 
d="M256 129h512v1348h-512v-1348zM129 0v1604h768v-1604h-768z" />
    <glyph glyph-name=".null" 
 />
    <glyph glyph-name="nonmarkingreturn" unicode="&#xa;" horiz-adv-x="374" 
 />
    <glyph glyph-name="NULL" 
 />
    <glyph glyph-name="NULL" 
 />
    <glyph glyph-name="space" unicode=" " horiz-adv-x="374" 
 />
    <glyph glyph-name="exclam" unicode="!" horiz-adv-x="417" 
d="M233 774h-26l-41 -63zM342 98q0 -68 -31 -112q-14 12 -75 14l-17 -12q-19 14 -37 65t-26 66q-39 -29 -68 10l2 104q39 4 88 0q105 17 148 15q16 -82 16 -150zM319 942q0 -74 -21 -262t-24 -277q-16 -6 -30.5 4.5t-26.5 20.5l4 31q2 18 -12 24l-51 -26q-35 55 -29 143
q27 8 26 45t15 47q-6 17 -53 17q-16 242 -41 708q27 20 79 6t78 11l13 -17q37 33 80 2q22 -23 22 -53t-9 -74l-11 -88q-2 -18 -19 -24q16 -14 17 -31l-10 -38q-9 -38 -3 -46q6 -49 6 -123z" />
    <glyph glyph-name="quotedbl" unicode="&#x22;" horiz-adv-x="688" 
d="M254 1047q0 -123 -33 -201q-12 35 -51 35q-8 0 -37 -4.5t-43 -2.5l-8 459l164 4q-2 -53 3 -153t5 -137zM522 752q-64 0 -84 37t-20 77v58q2 18 2 42t-4 46l-6 295l163 36q-2 -65 3 -189q6 -124 6 -216t-29 -184q-16 -2 -31 -2z" />
    <glyph glyph-name="numbersign" unicode="#" horiz-adv-x="798" 
d="M512 184q0 -56 -55 -276l-86 -4q14 41 25.5 142t25.5 142q25 73 84 91q6 -39 6 -95zM596 969q18 0 41 -2q6 -18 -29 -58q31 -31 41 -31t17 3l28 30l29 -28l-111 -88q23 -29 115 -56v-57h-49q-25 4 -37 27q-49 -47 -78 -162t-33 -125q37 -37 33 -57q-90 33 -90 159
q0 55 27 94l28 29q-2 3 -36 27t-50 24t-28 -22q-41 29 -46 29t-12 -3q-35 -32 -39 -120t-6 -101q-16 -61 -84 -88q-2 -2 -30 -22q-16 -14 -13 -31l66 -68q-6 10 -6 21q0 31 38 48t88 17t81 -20q-113 -25 -158 -125q-27 -92 -55 -184q-37 -102 -125 -131q5 37 31 137
q26 101 26 149t-8 84l-115 86q53 4 120 66t105 82q-33 28 -41 28t-16 -4q33 106 27 148q-16 29 -58 28l-88 -6v58q2 0 74 1t98 33q-2 47 -6 97q-10 51 -55 71q4 2 36 0t42 29q-21 11 -21 29t15.5 59t11.5 60q8 23 33.5 24.5t48.5 3.5q8 -18 8 -49t-16.5 -115t-16.5 -125
q0 -125 121 -139q61 31 61 92l-12 93q0 51 78 51zM603 1170q44 0 56 -31v-49q-2 -27 -24 -37q-7 4 -53 15t-45 38q0 12 8 29q14 35 58 35z" />
    <glyph glyph-name="dollar" unicode="$" horiz-adv-x="831" 
d="M453 1104q0 -51 31.5 -150.5t31.5 -142.5t-4 -68l92 -65q10 2 19 2q37 0 63 -46t49 -89q13 -49 13 -120t-37 -222q-23 -16 -41.5 -16.5t-53 23t-65.5 19.5q20 47 20 109l-6 139q0 53 15 96q-4 1 -18 15t-23 10l-15 -14q-2 -4 -1 -52t-11 -67v-160q0 -96 14 -153
q8 14 36 12t30 -2q33 -23 33 -60q0 -10 -4.5 -38.5t-2.5 -45.5h-63q-39 -4 -41 -36q12 -37 11 -117t1 -94q-33 0 -39 -13q-8 14 -15 14t-19.5 -9t-19.5 -9t-13 4l-39 224q-20 -20 -54 -5t-40 17v24q29 -2 46 15.5t34 36.5q-10 4 -21 4l-102 -19q-10 0 -21 2q-17 31 -79 94
t-62 109q0 35 57 46t70 28q53 8 80 -105q8 -12 8 -24t-24.5 -24.5t-24.5 -23t12 -22.5q59 35 94 29l25 -27q-2 41 9 142t11 147q0 162 -114 199q-9 -4 -17 -4t-19 21.5t-13 23.5q-30 33 -52 97t-41 124v80q9 4 21 4t34.5 -16.5t35.5 -16.5t28 16q-29 4 -29 39q0 76 2 67
q-1 10 9 24t6 28q-18 14 -27 10l-12 -10q-39 31 0 92q18 27 35 53q41 20 84 39q45 27 35 76q51 6 71 6q76 0 76 -59q0 -10 -2 -25q117 8 199 -116l2 -27q-16 6 -35 6l-107 -16q-41 0 -57 49l-12 -12l-29 28q-18 -51 -18 -102zM365 1138q-7 -15 -25 -26l-12 12l-19 -88
q-10 -53 -49 -69q6 -12 43 -13q23 -14 36 -53t15 -41q17 67 14 161q-3 95 -3 117z" />
    <glyph glyph-name="percent" unicode="%" horiz-adv-x="987" 
d="M782 567q-66 -61 -66 -211t44 -266zM592 313q0 186 92 346q121 0 139 -4q76 -14 86 -86q-4 -33 -4 -71l15 -265q0 -162 -97 -235q-231 -27 -231 315zM538 975q-12 0 -20 -2l154 413l127 -28q-7 -18 -75 -194t-138 -255q6 -98 -37 -223t-113 -188q-41 -426 -213 -510
l-30 26q86 166 188 522t108 373h54q27 4 39 33q-32 33 -44 33zM289 1384q111 0 110 -149q0 -57 -18.5 -164.5t-18.5 -136.5q25 -23 25 -51.5t-39 -86.5t-45 -83q-20 -6 -57 -6t-133 98l-4 94q23 10 38 10q35 -1 55 -61t38 -72q92 106 92 250t-74 289q-63 -4 -63 -72l4 -80
q0 -51 -29 -73q31 -12 31 -95q-7 2 -59 0t-68 31q16 39 29.5 138.5t29.5 138.5q29 63 94 73q33 8 62 8z" />
    <glyph glyph-name="ampersand" unicode="&#x26;" horiz-adv-x="991" 
d="M567 903l4 243q0 50 -16 111v-40l-15 -15q-14 -14 -24 -10l2 -39q-41 -37 -47 -101t-8 -122q29 -4 27.5 -48t27.5 -44l-2 39q6 26 51 26zM700.5 872q-8.5 0 -21.5 -9t-17 -11q16 -16 24 -12q2 -51 -52 -119t-65 -96l-14 14l-12 -14l-13 14l-104 -78l-27 27
q2 -57 -33.5 -157.5t-35.5 -152.5t28 -102q0 -27 -37.5 -63.5t-37.5 -60.5t8 -46l16 -10q23 51 64 51q16 0 54 -14.5t56 -14.5q41 0 64 54q-23 74 -49 156t-72 120q-4 134 33 180t86 45q25 0 41 -12q8 -33 40.5 -102.5t39.5 -110.5q23 40 41 104t34 121q1 0 69 -19t77 -46
q2 -12 2 -27q0 -53 -47 -164.5t-47 -156.5q-1 -88 118 -125l-12 -197q-18 -6 -42 -6t-70 24.5t-61 24.5t-24 -2q-2 5 -16 57t-37 70q-12 -6 -12 -12l12 -37q-104 -152 -200 -160q-10 14 -15.5 53t-21.5 54q-6 -4 -93 -27l-26 68q-11 -6 -23 -6t-40.5 28.5t-55.5 26.5
q-31 47 -51 121t-39 141q27 27 22 117q12 68 114 166t104 168q0 47 -33 102q-31 79 -31 187t59 235q51 82 152 82q16 0 33 -4l102 16q35 0 70 -29q47 -20 76 -73q6 -8 43 -99q-10 -123 -15 -145q-18 -80 -65 -117q-6 10 -14.5 10z" />
    <glyph glyph-name="quotesingle" unicode="'" horiz-adv-x="335" 
d="M244 1565l8 -406q0 -92 -29 -184q-16 -2 -30 -2q-63 0 -84 37q-21 36 -21 76v59q2 18 2 42t-4 46l-6 295z" />
    <glyph glyph-name="parenleft" unicode="(" horiz-adv-x="473" 
d="M473 -106q0 -20 -37 -44q-68 -34 -90 -34t-34.5 37.5t-28.5 48.5q0 33 14 41q-6 16 -30.5 33.5t-24.5 28.5t4 24q20 4 53 45t52 41t38 -17q12 -44 45 -106t35 -64h-2q6 -14 6 -34zM279 1165q-11 1 -21 -19t-12 -22q4 -22 4 -56t-17.5 -127t-17.5 -143t14 -96l-10 -12
q47 -228 69 -328t62 -212q-37 0 -69.5 -49.5t-61.5 -57.5q0 37 -39 97.5t-39 85.5t9 42q-53 16 -54 74q0 10 2 20q31 45 31 83t-57.5 93.5t-57.5 91.5t21 72q-14 96 -15 191q0 467 291 823q31 -2 61.5 -27.5t57.5 -52.5q-4 -63 -71.5 -168.5t-73.5 -171.5q-16 14 -33 15
q-33 0 -74 -70q2 -3 1 -29t11 -34q72 31 95 26l12 -43q-8 4 -18 4z" />
    <glyph glyph-name="parenright" unicode=")" horiz-adv-x="471" 
d="M287 1106q0 14 -23.5 42t-21.5 50q-10 14 -39 13t-39 14q2 18 33.5 45.5t91.5 27.5q61 0 86 -57q12 -25 25 -111t38 -116h2q14 -111 15 -221q0 -379 -160 -650q14 -4 14 -14l-16 -37l-51 -51q16 -92 -54 -156h-53q4 35 -39 50t-51 26q49 129 104 271t73 233q18 90 20 182
l-4 191q0 147 43 241q6 13 6 27zM297 1315l-76 8q-35 0 -59 -20q4 70 -48 142t-98 136q33 31 68 61.5t78 43.5l117 -185q18 -29 67 -172q-23 -14 -49 -14z" />
    <glyph glyph-name="asterisk" unicode="*" horiz-adv-x="409" 
d="M279 1139q0 -12 -3 -19l-196 31q31 20 92 131q-6 6 -66 39q-40 25 -40 48t8 44q27 0 55.5 -3t42.5 -30q12 27 42 31t56 4v-98q-25 6 -61 -35l131 -31l-98 -67q37 -33 37 -45z" />
    <glyph glyph-name="plus" unicode="+" horiz-adv-x="798" 
d="M317 540v38q24 -19 58.5 1.5t42.5 20.5q18 0 22 -41q-16 -39 -16 -184l-102 -2l-3 65q-2 41 21 58q-23 8 -23 44zM508 664q-35 0 -68 -23l-22 20l18 -2q18 0 64 46l205 22l2 -55q2 -33 -21 -45q-27 2 -85 19.5t-93 17.5zM406 672q4 -4 8 -6l4 -5q-3 1 -4 3zM114 739
l154 -24q26 0 47 6q21 53 21 129t-27 135l123 2q-4 -29 1 -85t5 -73q0 -72 -41 -108q1 -16 9 -49l-9 8l-80 -62q-16 31 -49 31l-106 -18q-16 0 -29 4l-82 -2l-2 55q-2 33 21 47q20 4 44 4z" />
    <glyph glyph-name="comma" unicode="," horiz-adv-x="356" 
d="M27 80v43q2 29 2 57t-15 53q27 27 110 29t99 6q51 14 51 72q0 18 -4 41l17 14q31 -18 40 -25t17 -32q-74 -57 -83 -218t-66 -216q-16 -18 -33 -129q-14 -84 -68 -84q-27 0 -65 16q37 213 59 270q-61 25 -61 103z" />
    <glyph glyph-name="hyphen" unicode="-" horiz-adv-x="720" 
d="M39 756q119 0 230.5 22.5t162.5 22.5t125 -17q6 -6 36 -57t60 -51q14 0 35 10v-33l-649 9v94z" />
    <glyph glyph-name="period" unicode="." horiz-adv-x="251" 
d="M49 26.5q0 32.5 -14 41.5q25 24 7 76t24 75h149v-115q-2 -61 14 -108q-17 -20 -37 -20t-57 10q-37 12 -57 8q-29 0 -29 32.5z" />
    <glyph glyph-name="slash" unicode="/" horiz-adv-x="675" 
d="M276 430q0 -39 7 -80q-53 -74 -77 -195t-44 -229h-66q4 16 0 51t-4 43q0 47 33 66q-35 48 -35 100t29 138t33 125l217 688l98 -29q-2 -139 -96.5 -342t-94.5 -336zM478 1200q-26 0 -45 33t-38 67q16 23 24.5 84.5t37.5 83.5l168 -30q-33 -37 -57 -119t-40 -113
q-24 -6 -50 -6z" />
    <glyph glyph-name="zero" unicode="0" horiz-adv-x="727" 
d="M360 1206q0 -25 -23.5 -82t-19.5 -94q-14 -180 -14 -390t14 -402q-2 -16 16.5 -39t18.5 -33t-10 -21h27q53 170 63 398q0 209 2 420l27 24l-25 31q8 55 -34 138l-46 93q4 -18 4 -43zM557 133q0 -141 -108 -180q-100 -8 -165 25t-139 116q-2 70 -53 131q-41 188 -41 402
q0 311 82 575q31 70 96.5 118t139.5 52l100 -18q57 -12 82 -47q4 -11 4 -27q1 -16 -19 -43t-22 -33q10 -27 12 -93.5t15 -92.5q16 -45 67 -53q68 -51 68 -131q0 -41 -24.5 -130.5t-24.5 -141.5t32 -97q-2 -12 -12 -47t-10 -59t20 -40v-2q4 -16 5 -26q0 -33 -52.5 -48.5
t-56.5 -56.5q4 -29 4 -53z" />
    <glyph glyph-name="one" unicode="1" horiz-adv-x="657" 
d="M215 791q0 72 143 71q25 0 50 -2q8 -360 34 -692q16 -14 40 -14h38q14 2 23 2q69 0 59 -68q-14 -10 -14 -43l4 -51q0 -35 -21 -35q-12 0 -34 12q-54 -18 -149 -15t-114 3q-14 -16 -43 -16l-49 2q-6 4 -8 4l-82 -19q-16 0 -31 13q-12 33 -11 103t-1 81q15 14 35 14h39
q16 -2 24 -2q51 0 50 51q-25 18 -9.5 54.5t-5.5 52.5q14 16 15 37l-5 20l1 152q0 14 -9.5 51t-7.5 90q49 12 62 80q-23 37 -23 64zM348 991.5q-26 0.5 -76 -25.5t-73 -30q4 12 4 27l-19 92q0 12 2 22q2 2 68 27q41 16 39 57q12 -4 47 -39q36 -34 58 -34t40 6q-6 -14 -2 -50
t-2 -54t-37 -13q-23 14 -49 14.5zM104 1192q-12 0 -22 -4q-2 8 -2 19t23.5 23.5t23.5 23.5t-8 26q16 35 80 27q109 111 215 110q27 0 49 -6q31 -99 2 -197v-2q-10 -14 -44 -12t-36 2l-37 39q-20 -18 -78.5 -33.5t-81.5 -44.5q-18 -2 -45 13.5t-39 15.5z" />
    <glyph glyph-name="two" unicode="2" horiz-adv-x="827" 
d="M272 49q-28 0 -88 10t-90 2q-18 76 -18 116t28 83q66 66 160 216t146 208q129 -33 153 -135q6 -39 -11 -57t-65 -48q-17 22 -67 -12q-33 -31 -37 -92t-29 -94q6 -12 28 -12t26 -1q45 41 131 41l170 -14l4 -108q0 -74 -15 -115q-8 2 -76 1t-96 11l-12 14q-20 -16 -27 -14
l-14 12l-10 -12q-23 -2 -133 14q-30 -14 -58 -14zM457 733q-12 0 -25 -4q10 73 57 195t52 137q-10 127 -78 196q-88 -133 -121 -301q-10 -2 -24 -2t-42 14t-38 15q-12 -10 -31.5 -10t-63.5 22q-4 193 148 316q104 55 190 55q150 0 209 -158q-2 -4 -2 -10q0 -18 57.5 -43
t57.5 -41q-43 -195 -43 -196q-33 -109 -103 -170q-16 -57 -25 -80t-40 -43q-4 4 -52 56t-83 52z" />
    <glyph glyph-name="three" unicode="3" horiz-adv-x="763" 
d="M702 363q0 -29 -19 -102t-24 -101q-10 -29 -53 -82q-8 2 -31.5 13t-33.5 11q-20 0 -27 -36q2 -10 2 -21q0 -45 -51 -55h-25q-12 2 -18 12q-23 -37 -31 -48t-33 -17q-82 -6 -153.5 34.5t-112.5 110.5t-41 147q0 16 2 35q12 -2 27 -2l141 14q35 0 58 -12q2 -6 15 -58
t36 -73q76 39 98 139q10 88 23 179q-68 70 -134 77q-6 -12 -38 -16q-29 28 -29 106v80q125 23 158 78q35 164 34 215q0 113 -71 170q-16 -4 -15 -24l2 -33q-8 2 -16 2q-20 0 -28.5 -35t-22.5 -43q8 -49 -41 -65q-6 2 -64 1t-80 11q-4 20 -4 43q0 84 68 209q90 72 213 71
q43 0 94 -8q33 4 65.5 -18.5t63.5 -44.5q80 -70 80 -215q0 -57 -14 -152q-4 -6 -39 -102q-23 -61 -66 -72q-10 -23 -10 -39q0 -31 69.5 -59.5t71.5 -73.5q-4 -8 -4 -10l19 -68q-1 -14 -15 -26q4 -18 4 -47z" />
    <glyph glyph-name="four" unicode="4" horiz-adv-x="763" 
d="M399.5 1284q18.5 0 59.5 -7t61 -5q68 20 121 -8l-25 -781l119 -20l-18 -160q-51 2 -96 47q0 35 -13 41q-8 -59 -12 -205t-27 -229q-18 2 -91 17t-118 6l-4 51q-2 33 13 49q-2 46 -3 104t-18 92q-53 -30 -130 -32t-146 -4q-20 53 -20 113t32 168q33 108 37 155
q39 57 84 195t88 194q-2 96 72 215q16 4 34.5 4zM373 549l22 395q0 71 -9 132q-4 -13 -18 -28t-14 -22q0 -10 29 -20q-14 -100 -73.5 -292t-73.5 -296q18 2 147 -8q-10 63 -10 139z" />
    <glyph glyph-name="five" unicode="5" horiz-adv-x="751" 
d="M550 434q52 0 81 -33q42 15 67 -16q-25 -211 -34 -252q-41 -137 -160 -192q-125 -20 -174 -21q-141 0 -193 90q-23 50 -49 108t-33 105q131 37 178 37t76 -31q-10 -16 -10 -49t23 -67l57 -21q14 0 22 17q43 47 43 135l-4 112q0 45 11 78h99zM291 1133q-8 0 -19 -5l4 -174
q4 -106 -10 -174q16 -16 34 -16t57 14q40 14 65 10q14 2 31 3q78 0 135 -58q30 -70 30 -91t-10 -42q-27 -4 -66.5 -52t-63.5 -48t-48 22q-10 55 -10 60q-10 31 -41 28q-20 6 -46 -9t-37 -15t-24 12q-6 -31 -39 -86q-84 10 -88 10q-51 10 -65 37q15 -3 35 31q-37 131 -37 311
l14 377h170q102 0 160 16q18 -8 43 -8l110 10q39 0 64 -18l-12 -199q-31 23 -85 10t-70 -13q-14 0 -34 18q-14 -14 -30 -15l-43 6q-18 0 -31 -16q-12 0 -19.5 32t-23.5 32z" />
    <glyph glyph-name="six" unicode="6" horiz-adv-x="749" 
d="M330 -4q0 -8 6 -21q23 53 121 88v3q-23 2 -68 -17q0 -12 -29.5 -25.5t-29.5 -27.5zM395 111q9 0 21 4q18 161 18 279t-31 261l-12 -24l-12 12v-12q-49 -31 -68 -15v-194q1 -128 13 -182t22 -88q18 -41 49 -41zM604 43q0 -16 14 -33q-14 -31 -59 -65.5t-61 -63.5
q-39 25 -124 40t-114 30q-63 27 -88 86q-123 178 -123 508t56 497q56 166 196 246q4 57 72 58q23 0 63.5 -8.5t48.5 -8.5l80 -41q111 -119 111 -235q0 -27 -6 -56q-121 -23 -197 -41q-14 25 -20 104t-47 107q-16 0 -26 -13t-20 -13t-20 4q-49 -143 -39 -293q0 -32 -1 -70
t13 -59l107 78h131q100 -76 131 -207q20 -88 14 -254h-2q-42 -20 -30 -101t-7 -110q-4 -12 -28.5 -41t-24.5 -45z" />
    <glyph glyph-name="seven" unicode="7" horiz-adv-x="716" 
d="M506 1468q18 0 127 -41q4 -22 4 -43q0 -68 -60.5 -183.5t-52.5 -192.5q-20 4 -23 -23t-14 -31l-14 13l-24 -144q27 -25 27 -61t-15 -96q-68 -290 -68 -390t15 -163l-15 -13l15 -16l-13 -10q0 -6 1.5 -56.5t-13.5 -74.5q-23 -16 -59.5 -16.5t-59.5 16.5q-2 16 12.5 40.5
t14.5 36.5t-15 25q-2 -53 -57 -53l-67 4q-31 0 -48 -12l-12 10q-2 202 76 444t116 366t75 196q38 72 38 114t-28 78q-25 -43 -25 -39q0 -10 12 -14q-20 -16 -54 -4t-54 -9q-6 12 -15 13l-34 -15q-7 4 -75 14t-73 54q3 37 25 79t43 79q16 -10 58 -11.5t59 -15.5
q12 23 33.5 7.5t31.5 4.5q4 -12 28 -11t27 -1l13 12l10 -10q3 14 27 12t26 -2l55 -80q4 117 -41 172q16 41 60 41z" />
    <glyph glyph-name="eight" unicode="8" horiz-adv-x="712" 
d="M383 18l-12 76l-29 -123q10 8 23.5 17.5t17.5 29.5zM291 1046q0 -54 26 -90q-2 -8 -2 -26t16.5 -61.5t16.5 -57.5t-4 -23q94 111 94 297q0 35 -4 68l-12 -12q-31 23 -25 65q-12 -26 -50 -32t-40 -9q-16 -65 -16 -119zM76 96q0 285 125 502q-7 47 -59 120t-52 118
q0 12 2 26q-39 48 -39 108q-1 60 13 122t26 114q61 78 107 116t116 44q23 -10 123 -34t144 -60q80 -70 80 -217q-1 -60 -15 -152q-14 -9 -52 -67t-69 -58q-12 0 -24 6l-13 -12l11 -12q-35 -12 -35 -33q0 -10 20.5 -45t14.5 -57q139 -98 139 -295q0 -63 -21 -123l-51 -148
l-59 7q-33 0 -31 -43q-8 -25 -62 -56t-71 -51q-6 2 -141 21q-84 12 -123 61q-4 47 -4 98zM399 219q0 170 -94 262q8 23 40 25t40 14q-2 6 -2 12t8 19.5t8 21.5l-12 -12q-29 18 -29 79v62q-10 -10 -12 -61t-33 -55h2q10 -8 31 -25q-6 -27 -54 -52.5t-52 -68.5
q-31 -106 -31 -185t57 -130q14 -2 33 -2t86 43l12 -14q2 38 2 67z" />
    <glyph glyph-name="nine" unicode="9" horiz-adv-x="718" 
d="M370 696h27q10 -2 17 -2q33 0 45 27q15 70 -39 80l-25 329l11 13l-11 12l11 12q0 31 -23 68t-43 70q-20 -72 -42 -150t-24 -141q-4 -10 -4 -21l19 -61q0 -14 -15 -27q16 -127 68 -221q12 12 28 12zM516 80q0 -29 -38 -48.5t-72 -33.5q-33 0 -39 -10l-15 10
q-14 -27 -49 -27t-65 17q-52 47 -108 103t-52 118l-14 15q-15 14 -13 26l15 8q-14 6 -14 24t-1 33q74 39 166 39q23 0 45 -2q10 -58 22 -120t70 -64q12 10 15.5 34.5t11.5 33.5q45 -10 92 -3q2 -10 2 -22l-8 -68q0 -31 45 -39q4 -12 4 -24zM550 340q-32 0 -52 14
q-2 27 -31 27h-14q-11 -2 -25 -2t-22 12q10 41 10 95t-35 118q-3 -6 -17 -43t-36 -51q-8 -2 -15 -2q-16 0 -39 41q8 35 9 55q0 53 -45 66q-18 -18 -15 -25q-23 27 -61 27t-60 -15l-51 471q66 217 238 263q67 -5 141 -15t94 -73q-2 -9 -2 -23t43 -57q7 2 21 2t57 -43
q2 -55 20 -234t-4 -291l11 -14l-39 -262q-49 -41 -81 -41z" />
    <glyph glyph-name="colon" unicode=":" horiz-adv-x="321" 
d="M297 182q0 -115 -2 -104v-64q-39 -14 -128 -13t-128 -15q-10 27 -10 61l12 154q0 23 -2 41q6 -4 15 6t14 10l120 -16q45 0 76 32q33 -27 33 -92zM37 897q0 115 2 104l-2 64q39 16 128 14t128 17q10 -30 10 -56t-7 -94t-1 -108v-2q-12 6 -27 -15l-123 17q-45 0 -75 -33
q-33 27 -33 92z" />
    <glyph glyph-name="semicolon" unicode=";" horiz-adv-x="313" 
d="M111 -248q-27 0 -66 17q14 92 57 268q-61 27 -61 104v43q2 30 2 58t-14 53q27 27 109 29t100 6q53 14 53 73q0 18 -4 39l16 15q33 -17 41 -25t16 -33q-74 -57 -84 -219t-67 -215q-16 -18 -33 -129q-14 -84 -65 -84zM20 948q0 90 3 80v64q39 16 128 14t125 16
q10 -29 10 -55t-6 -95q-7 -69 -1 -108v-2q-12 6 -27 -14l-123 16q-45 0 -76 -33q-33 27 -33 117z" />
    <glyph glyph-name="less" unicode="&#x3c;" horiz-adv-x="749" 
d="M700 426l2 -45q2 -27 -20 -37q-55 53 -179 89t-171 67l-2 61q70 -8 187 -66.5t183 -68.5zM694 946q0 -68 -110 -104t-135 -74q-29 10 -52 10q-45 0 -88 -55q-49 -68 -82 -82q49 -31 43 -100q-23 31 -120 43t-97 71q0 18 8 45q2 2 209 64q125 37 176 106l244 107
q4 -16 4 -31z" />
    <glyph glyph-name="equal" unicode="=" horiz-adv-x="1163" 
d="M246 483q-86 0 -99 -63q-8 -4 -16 -4t-49 33q35 35 35 48t-2 21l-37 29q98 43 219 43t207 -33q20 35 91 35h73q2 -27 6 -56.5t31 -41.5q18 -6 65 36l-37 29q49 33 89 33t141 -22q100 -22 163 -1l-28 -133q-27 2 -58 2l-229 -10q-135 0 -205 64q-8 -53 -57 -66
q-31 -8 -106 -3t-99 -1q-12 61 -98 61zM109 969q109 0 335 21.5t330 21.5t182 -19q6 -6 36 -57t61 -51q14 0 34 10v-33l-978 12v95z" />
    <glyph glyph-name="greater" unicode="&#x3e;" horiz-adv-x="749" 
d="M49 927q0 9 4 17q171 -53 658 -252q-2 -66 -54 -104q-31 -23 -113.5 -52.5t-113.5 -54.5h-35q-18 2 -26 19q-27 -70 -140 -107q-180 -61 -184 -63q-6 16 18 41l-20 22q25 31 128 50t136 77q59 4 129 39t133 68q-258 211 -495 235q2 14 -11.5 35t-13.5 30z" />
    <glyph glyph-name="question" unicode="?" horiz-adv-x="632" 
d="M459 223q-13 -43 -13 -125t-2 -98q-14 -14 -62 -13t-30 3l-10 10q-9 -18 -133 -10l-12 231q34 15 163 15q43 2 72 12zM260 418q0 22 10 31q0 77 2 64q-5 40 -39 54q-8 100 64 260q72 161 72 223t-19 109v55q16 -6 35 -6t58.5 23.5t66.5 19.5q2 -76 24 -171t41 -183h3
q-49 -76 -99 -152q-47 -82 -61 -163v-82q0 -49 14 -76q-14 -6 -14 -39q-16 -5 -39 27q-18 -18 -14 -29q-6 -4 -9 -4l-49 16q-10 0 -18 -14q-29 15 -29 37zM272 1331q-82 -104 -211 -131q-6 47 43 105q41 41 80 81z" />
    <glyph glyph-name="at" unicode="@" horiz-adv-x="1048" 
d="M385 643q0 -20 6 -43q-2 -37 34 -49l69 -23q49 33 95 98t46 119q0 78 -100 103q-150 -78 -150 -205zM306 328q-44 0 -56 24q-49 68 -100 135q-51 80 -54 154q-8 285 213 449q77 57 191 57t227 -25q119 -88 133 -98q74 -71 66 -143q-145 195 -449 194q-61 0 -119 -10
q-199 -182 -188 -346q-8 -109 57 -219q33 -59 129 -174q-6 2 -50 2zM567 477q-18 1 -53 -21t-45 -26l-172 70q27 20 27 50t-24 92.5t-24 92.5q0 68 86 109q102 80 187 80q45 0 84 -23q14 -27 29 -27q10 0 31.5 17.5t34.5 17.5t26 -6q4 -18 4 -52t-36 -125t-36 -126
q0 -61 78 -90q45 38 90 156t98 141q-14 -195 -139 -346q-29 -29 -94 -29l-103 2q-18 43 -49 43zM373 305l-17 21q15 -7 17 -21zM557 260q-86 0 -182 21q0 18 -2 24q61 0 175 3t169 30q55 76 145 76l25 -25q-109 -129 -330 -129z" />
    <glyph glyph-name="A" unicode="A" horiz-adv-x="835" 
d="M295 -121q0 -76 -90 -80q-29 12 -36 17.5t-13 21.5q6 4 45 60t59.5 55.5t32.5 -51.5q2 -12 2 -23zM720 -150q-30 0 -82 -12t-73 -14q-23 42 -37 136t-18 108q6 12 6 20q0 23 -36 39.5t-36 28.5t41 37q-10 12 -15 50t-19 50q-25 -23 -81.5 -30t-74.5 -19q4 -160 -49 -215
q-29 6 -43 -23q-20 -35 -35 -41l12 -14q-16 -14 -63 -12t-51 2l-13 36l115 1108q0 104 8 142q-4 92 41 114q29 -18 68 -18t112.5 16.5t102.5 16.5q100 0 90 -144q-8 -114 42 -308t50 -294q0 -31 -2 -61q-42 -25 -106 -30t-125 -9q-18 156 -39 324t-52 288l-53 -585
q-6 -76 70 -76q25 0 47 12q18 6 51 -27q0 -63 27 -75q34 23 178 78q27 -35 36 -119t13 -112t35 -160t18 -220q-30 12 -60 12z" />
    <glyph glyph-name="B" unicode="B" horiz-adv-x="870" 
d="M553 449h-2q0 25 -34 61.5t-28 64.5q-20 -35 -52 -35t-52 11l2 -25q-6 -12 -39 -16q-14 20 -14 27q-33 -49 -12 -62q2 -31 -2 -145t12 -176q25 43 67 43l76 -4q51 29 62 114q16 140 16 142zM815 398q0 -138 -57 -267q-141 -147 -258 -154q-10 -4 -23 -4l-74 19
q-16 0 -30 -12l-215 -3q0 109 -2 220q-8 133 -88 186q-17 231 -15 519t2 376q121 16 457 -2q84 -18 142 -112t58.5 -187.5t-49 -185t-122.5 -150.5q-10 -4 -27 12q-18 -18 -14 -24q14 -15 63 -23t64 -43q20 6 46.5 36t57.5 28q84 -91 84 -229zM368 752q14 0 36 30.5t38 30.5
t33 -8q4 14 27.5 50.5t23.5 58.5t-25 42l-14 -12q-2 4 -20 22t-16 29q-23 41 -45 82q-33 43 -82 35q2 -121 -2 -385l24 27q8 -2 22 -2z" />
    <glyph glyph-name="C" unicode="C" horiz-adv-x="864" 
d="M573 417q0 32 19 60q-14 6 -12 30t2 25q114 27 229 -14q-32 -286 -80 -364l-14 16q-47 -106 -121 -125q-37 -43 -89 -43t-192 41q-66 57 -71 63q-41 43 -37 84q-39 54 -57 180t-41 173q-41 -33 -62 14l14 12q-12 12 -12 27l17 59q0 16 -15 29q20 100 43 303
q29 16 30 69.5t15 69.5q74 160 226 207q8 -2 68 -4t85 -16q45 6 88 -33l74 -78q68 -102 68 -225q0 -41 -9 -86q-53 6 -80 -82l-139 -6q-20 41 -20 106l6 131q0 68 -21 109l-43 -27q-25 14 -24 39l6 45q0 27 -37 35q-39 -289 -43 -596q6 -10 36 -16t30 -23q0 -6 -4 -16
l-15 -12q10 -23 10 -62l-8 -125q0 -61 21 -94q-4 -45 26 -64q20 8 37 9q63 0 84 -92q0 -2 -1 -24t11 -30q29 18 31 76t16 74q-2 29 -23.5 84t-21.5 87z" />
    <glyph glyph-name="D" unicode="D" horiz-adv-x="815" 
d="M627 1219l-13 12l-8 -8zM456 -43q-44 0 -71 12q-25 -23 -45 -23t-36 2q-16 1 -32 1q-18 0 -41 -15q-16 12 -56 12t-48 1q-35 47 -38 137t-13 127l14 12q-14 9 -14 31t12 33q45 0 120 -45t124 -43q29 -39 53 -39t37 12q10 20 22 21q-8 0 41 -21q63 -80 90 -164h3
q-78 -51 -122 -51zM678 1278q0 -12 -2 -21l-51 -26q59 0 77 -41q12 -25 13.5 -88.5t11.5 -87.5l-12 -13l24 -26q27 -135 27 -285q0 -285 -90 -557l-74 -63q-41 45 -90 178q-18 -18 -30 -11t-11 14q0 7 15.5 22.5t13.5 25.5q12 95 12 241t-41 435q3 2 25 1t26 11
q-66 49 -65 121q0 18 4 35l53 47q-8 14 -18 14t-33 -24q-1 4 -23 40t-22 55t4 32l-12 12l-25 -49q-10 -2 -26.5 11t-23.5 13t-16 -14q12 -6 13 -14l-13 -33q2 -16 14.5 -49.5t12.5 -53.5t-14 -38q14 -70 14 -121t-27 -82q-2 -10 12.5 -26.5t14.5 -23.5t-12 -16
q12 -35 11 -111t1 -91q-4 -2 -26 -1t-27 -12q29 0 45 -26q10 -27 20 -52v-204q10 -49 -36 -90q-61 25 -154 104l-39 -14q-20 0 -27 61q4 63 -12 193l25 26q-25 33 -26 91q-1 57 -2 103t-13 72q35 0 41 15q-47 211 -39 383q2 20 -11.5 63t-13.5 71t37 42q29 -4 62 -4l258 18
q63 0 114 -14l127 -100q1 -8 15 -32t14 -36z" />
    <glyph glyph-name="E" unicode="E" horiz-adv-x="712" 
d="M483 137q96 0 166 -14q-18 -39 -15 -105q3 -65 3 -84h-131q-70 0 -125 -14l-39 41q-16 -16 -12 -27q-10 2 -85 1t-108 12q-33 -35 -78 0q-16 12 -3.5 41.5t-8.5 44.5l27 395q0 94 -17 180q23 23 54 23t85 -37t56 -37l12 -14q2 6 16 55t35 61l13 -12q8 4 48 34t62 30
t41 -25q35 -18 46.5 -56t21.5 -75q-92 -4 -152 2q-14 -23 -40.5 -7.5t-39.5 -4.5q0 -37 -2 -173t15 -235h155zM584 1102q-35 0 -122 12t-108 14q-29 -43 -28 -120q0 -168 2 -146q30 -16 28 -69t0 -56q-14 -6 -14 -41q-24 8 -52 36t-26 54l-12 -12l-12 12q-16 -2 -56.5 16.5
t-56.5 35.5q0 33 10 36l-26 29l-13 -18q-27 213 -2 438q117 -18 299 -15t240 3q25 -23 24 -60l-22 -147q-18 -2 -53 -2z" />
    <glyph glyph-name="F" unicode="F" horiz-adv-x="694" 
d="M247 -98q-52 0 -65 -2q-6 8 -14 62t-43 54q-8 0 -21 -2h-36v305q30 17 74 17t77 -17q-2 -23 51 -22h39q27 -178 13 -383q-23 -12 -75 -12zM356 1161q-10 -1 -10 15v47q0 20 -14 28l-27 -22q-12 -9 -12 -21t12 -31.5t13 -26.5q1 -6 0 -152t26 -216q8 10 38 9.5t40 13.5
q18 -23 64 -7.5t65 -17.5l-12 -180q-18 4 -54 27q-12 -39 -43 -47q-12 -4 -69 -5q2 12 -17 27q-57 -29 -49 -153q2 12 2 -33t-14 -60q-35 -4 -87 26t-68 30t-25 -2l-39 -13l-23 830v129q79 26 179 26t241 -18q10 23 31 22l61 -10q12 0 23 4l10 13q41 -18 41 -58l-21 -114
q1 -19 7 -33h2q-27 -43 -64 -12q-9 2 -69 1t-84 11q-6 0 -25 -13.5t-29 -13.5z" />
    <glyph glyph-name="G" unicode="G" horiz-adv-x="796" 
d="M594 -105q0 14 -14.5 44t-16.5 38q-39 -6 -74 -55t-57 -49t-43 8q-27 -18 -70 -16q-39 6 -75 10q-2 51 -103 88q0 20 -21.5 59.5t-21.5 57.5t15 31q-2 6 -30 66t-28 93t13 58q-20 174 -20 333t48 320q-4 25 -4 49q0 129 86 180v27q84 111 223 162q84 -18 168 -35
q94 -31 131 -109q29 -16 29 -70t14 -71l-10 -12q18 -121 19 -148q0 -78 -39 -110q-14 0 -76 24q-14 -14 -31 -14l-65 16q-10 0 -21 -4q-4 162 6 242q-16 10 -33.5 47t-43.5 41q-16 -20 -15 -27l-37 13q-49 -55 -63 -201t-39 -197q23 -23 22 -63l-8 -96q0 -18 4 -33l-24 -25
q16 -70 18 -168t4 -188q-54 0 -63 -16q12 2 22 2q45 0 72 -62.5t46 -62.5t54 39q59 66 60 178q0 55 -15 119q-14 -8 -14 -41q-33 0 -41 -15q-14 4 -12 27t2 24q25 8 24 23l-18 49q0 8 4 17l8 79q45 -12 195 -8q-4 -10 12 -26q14 14 31 14l72 -21q-39 -406 -58 -651l-100 -6
q2 8 2 22z" />
    <glyph glyph-name="H" unicode="H" horiz-adv-x="788" 
d="M53 393q19 49 10 154q0 70 27 104l-12 13q12 18 12 49l-16 141q0 14 2 27q-12 71 -12 193t-1 151q12 59 64 102h192q12 -66 13 -139l-15 -295q0 -51 5 -100q112 -40 149 12l2 391q-16 102 23 143q30 2 74 -1t70 -3t60 17l39 -37q-14 -135 -14 -281t14 -280h2
q-29 -42 -29 -130t3 -75v-586q-35 -20 -106.5 -6t-98.5 -6q-14 -4 -23 -4q-20 0 -27 22.5t-14 40.5q12 78 12 244t8.5 179t8.5 41t-32.5 76t-34.5 75l-13 -11q14 -6 11 -41q-25 11 -33 59t-15 58q-41 -139 -42 -404t-9 -335q-18 4 -39 4l-141 -18q-33 0 -61 14q-2 10 -8 37
q-6 26 -7 46q0 20 12 42q-16 19 3 96q0 18 -13 31q15 33 13 105t-3 73z" />
    <glyph glyph-name="I" unicode="I" horiz-adv-x="444" 
d="M268 -41q-20 0 -49 10q-14 18 -37 19l-47 -6q-25 0 -31 34q12 39 13 86l-17 193q0 29 6 53q0 55 -3 278t16 359l10 12q-12 12 -12 27l14 53q0 14 -12 25q12 16 12 37l-14 80q0 20 12 36l-10 13q12 6 10 26t0 25q16 4 35 4l123 -16q37 0 59 24l39 -24l-39 -1020l-12 -13
q23 -16 7.5 -51t4.5 -51q-6 -12 -14 -131q-6 -82 -64 -82z" />
    <glyph glyph-name="J" unicode="J" horiz-adv-x="538" 
d="M475 144q0 -46 -14 -64q-9 -2 -69 -16t-85 -35q10 -23 10 -37q-1 -33 -63 -38t-74 -13q-18 -4 -35 -4q-66 0 -71 81q-6 117 -21 138q19 16 85 21t91 42v168q12 -6 27 12q16 -6 40 -6t73 49.5t77 57.5q53 -8 54 -49l-21 -111q0 -17 6 -31q-2 -4 -1 -49t-10 -64q1 -6 1 -52
zM358 885q-47 0 -100 -41q-29 29 -29 153l15 13q-14 14 -14 43t12 45q-12 66 -12 202t-1 156q23 10 112 12t120 15l39 -39q-12 -78 -12 -274t-27 -300l-15 -14q35 -4 35 -35q0 -12 -8 -41q14 -47 14 -108.5t-14 -110.5q-8 6 -24 -10l-13 10q-29 -15 -70 -75q-40 -60 -68 -60
t-56 20q-12 62 -12 192t-1 155q10 4 62 30q37 23 61 23t45 -15q5 -10 11 -10t38 23q-41 41 -88 41z" />
    <glyph glyph-name="K" unicode="K" horiz-adv-x="786" 
d="M299 1022q0 -50 6 -72t5 -44t14 -25q-8 63 49 151t57 139q0 20 -4 39q29 25 51.5 92.5t50.5 88.5l205 -27v-39l-12 2q-29 -70 -57 -139q-39 -80 -84 -131q-12 -53 -12 -131t54 -268q56 -190 60 -285q4 -31 34 -164t17 -219l2 -2q-33 0 -41 12l-12 -10l-12 10h-54
q-43 0 -61 -10q-63 48 -75 196t-27 185q-51 123 -39 278l-25 39q0 -33 -38.5 -62.5t-52.5 -29.5q-13 0 -33.5 13.5t-28.5 15.5q-12 -23 -33 -7.5t-29 -5.5q10 -37 94 -41t84 -34q0 -23 -28 -66q-43 -61 -31 -182t-6 -174q-4 -10 -4 -23l16 -74q0 -16 -12 -30
q-35 20 -110 4.5t-104.5 16.5t-29.5 81l16 154q0 35 -12 63q14 69 12 209t-2 158q42 -6 52 14q-39 39 -39 98l18 158l-20 166q0 47 13 138t15 143l244 -15q2 -66 -20 -184t-21 -170zM54 675q4 0 3 1z" />
    <glyph glyph-name="L" unicode="L" horiz-adv-x="665" 
d="M210 137q9 0 32.5 13.5t27.5 15.5q35 20 107 6t108 8q17 -8 59 -3t56 3q16 -49 16 -106l-2 -111q-27 -4 -59 -4l-233 16q-78 0 -127 -26q-9 39 -55 94t-46 88t10 62q-8 14 -8 19l23 161q0 59 -66 59v434q53 39 103 39q-29 240 -2 484q211 0 284 -25l-39 -369
q-23 -14 -59 -14h-68q-4 -23 -36 -32t-41 -17q21 -15 68.5 -13.5t60.5 1.5q2 -49 2 -128q0 -78 -14 -270t-15 -227q14 -10 14 -21l-16 -43q0 -6 4 -14q-68 2 -104 -76q6 -4 15 -4z" />
    <glyph glyph-name="M" unicode="M" horiz-adv-x="1017" 
d="M926 591l2 -132q0 -129 -41 -189q4 -33 4 -65q0 -102 -66 -277q-19 -6 -37 -6t-29 27.5t-22 52.5q4 158 -14 459l12 12q-14 53 -14 119l18 272q0 29 -2 56q-68 -170 -90 -574l-16 -41q-8 -20 -35 -22q-8 14 -15 14t-22.5 -15.5t-26.5 -13.5l-26 -24q18 -22 72 -6t55 -33
q2 -41 -20.5 -110.5t-22.5 -99.5t6 -54l-141 -25q-20 41 -31.5 138.5t-32.5 138.5q12 14 12 29t-12 44.5t-14 47.5q-3 18 -15 96t-12 107t1 45t-15.5 43.5t-16.5 38.5t9 20q-14 16 -12.5 57t-12.5 57q-29 -80 -28 -242t-1 -190l15 -12l-15 -12q16 -74 17 -189l-2 -192
q-29 -27 -86 -27t-80 -12q-27 45 -27 108t17 144q-29 51 -29 143l4 162q20 10 21 22q0 8 -13.5 27.5t-13.5 31.5t16 23l-55 662q39 27 131 25t112 8t29 10t20 -9.5t17 -9.5t13 13l38 -37q21 -73 41 -265t60 -282q47 182 78 305l39 266l317 13q2 -27 21 -138t-7 -180
q16 -23 16 -57.5t-16 -57.5q-2 -6 -1 -65t-12 -93t-13 -80z" />
    <glyph glyph-name="N" unicode="N" horiz-adv-x="776" 
d="M192 137q22 0 37 -8q16 16 27 12q33 -16 19 -61.5t6 -65.5q-51 -14 -64 -18q-35 -14 -37 -43l-76 61q-6 -8 -41 -12q-12 16 -11 55t-1 47q25 0 72 16.5t69 16.5zM506 1217q0 18 14.5 47.5t16.5 38.5q15 5 34 -27q90 25 156 2l-12 -1059l12 -14v-225q-10 -37 -37 -37
l-67 12q-20 0 -35 -14q-27 10 -55.5 23t-36.5 40q55 78 55 152q0 18 -2 37q16 129 -25 180l-14 -13q-8 12 -18 26t-24 15q-14 0 -22 -4q10 61 -64 101t-87 67q-29 -49 -13 -159t11 -136q-10 -72 -100 -88q-12 12 -48 10t-43 1q-45 551 -39 1110q37 14 116 12t116 12l78 -137
q16 -117 88 -244v-90q-37 25 -81 69l-85 85q2 -23 -26.5 -28t-28.5 -19q0 -6 4 -17q78 -48 166 -108t88 -146q0 -12 -2 -26l41 -43q12 10 12 18t-13.5 24.5t-11.5 26.5v174q0 104 -16 168q14 20 14 43l-16 101v39z" />
    <glyph glyph-name="O" unicode="O" horiz-adv-x="839" 
d="M702 -10l-110 8q-22 0 -41 -23l-27 -51q-10 12 -44 12.5t-44 14.5q-6 -14 -21 -14h-30q2 10 -14 26q-8 -16 -41 -15t-23 3l-12 12q-15 -16 -27 -11t-12 36q63 14 78 61q-12 29 -53 38t-50 15l-75 -18q-29 0 -39 41q-6 14 -6 25q0 20 37.5 26t60.5 24t65 52q42 33 84 29
q12 -23 20 -84t26 -93t69 -41l19 46q8 27 28 30q18 0 51 -21.5t49 -21.5t31 6q19 -18 33 -60t18 -52zM657.5 168q-12.5 0 -34.5 -18q-37 18 -72 37.5t-31 64.5l17 10q-21 100 -31 418t-72 465q-16 -6 -16 -25l2 -26l-39 63q-12 -12 -11 -48t-1 -42q-27 4 -39.5 -14.5
t-24.5 -36.5l39 -662l-27 -26l-12 12q-8 -4 -84 -70q-45 -39 -106 -32q-20 130 -42 280t-22 264q0 305 166 451q17 5 77 27t92 22t58 -12q4 16 24.5 16t25.5 2q20 -35 65 -31q111 -80 160 -221q37 -104 44 -260t13 -295l12 -12l3 2q-3 -19 -17 -157t-35 -205q-12 -4 -22 -5
q-20 0 -33.5 32t-26 32z" />
    <glyph glyph-name="P" unicode="P" horiz-adv-x="729" 
d="M395 752q13 56 13 116t-41 242l-13 -12q2 -20 1 -152t12 -194h28zM90 -27q-12 0 -28.5 27.5t-16.5 56.5l18 111q0 27 -14 51l12 10l-12 422q45 -20 94 -42t60 -58q7 -12 33 -88t69 -94q-2 -29 -1 -181t-11 -225q-27 14 -93 11t-87 3q-11 -4 -23 -4zM420.5 1251
q30.5 0 48.5 -14q176 -84 207 -268h-2q2 -18 2 -44t-12 -83t-15 -78q15 -8 15 -16t-9.5 -27t-3.5 -31q-32 -26 -90 -141q-14 27 -69.5 24.5t-69.5 26.5q-55 -2 -64 -57q-16 -96 -14 -111q-49 14 -60 104t-30 117q-14 -20 -10 -28q-10 -2 -17 -2q-31 0 -32.5 45t-18.5 45
q-8 0 -22 -8q8 -4 12 -43q-8 0 -23.5 9t-29.5 5q-15 42 -13 112t2 76q-14 59 -14 104.5t14 102.5q-15 9 -13.5 33t1.5 31q6 12 6 28l-20 123q0 49 51 55q14 -25 28.5 -51t37.5 -41q124 42 174 -12q23 14 53.5 14z" />
    <glyph glyph-name="Q" unicode="Q" horiz-adv-x="845" 
d="M318 248q-10 0 -22 -23t-15 -47q-14 2 -32 -16t-20 -21q6 -18 -24 -53q-49 -2 -70 68t-47 88q-14 32 -12 110t2 80l-27 64q16 225 33 450q35 258 199 365q158 31 188 26q17 15 31 15t45 -17.5t51 -11.5q57 -25 96 -94q29 -61 58 -121q-29 -25 -29 -45t24.5 -57.5
t24.5 -57.5t-6 -32q33 -14 19 -56.5t6 -58.5l-17 -234q-12 -141 -47 -213q-8 -8 -18.5 -17t-6.5 -20q-14 -2 -38 13q-16 -16 -13 -29q6 -14 27 -12t22 2q-12 -53 -11 -163t-1 -130q10 -23 38 -23h52q14 -78 14 -135t-26 -96q-113 10 -156 27q-82 27 -112 100q-2 51 -52 92
q-55 10 -110 19q-63 16 -80 57q-4 41 44 93t54 81q25 6 56.5 -28.5t45.5 -34.5t27 24q3 14 17 118t35 150q-31 164 0 322l-13 10q12 12 13 29l-13 61q30 133 0 254q-53 8 -98 68q-2 -8 -14 -29q-18 18 -15 29q8 6 8 22t-22 41q-39 -213 -39 -287t4 -108q-29 -109 -29 -256
l2 -295q14 -51 15 -59q-6 2 -16 2z" />
    <glyph glyph-name="R" unicode="R" horiz-adv-x="727" 
d="M360 741q72 0 97 64q8 19 21 121t50 135l2 -2q2 -14 2 100q0 55 -28 82q-18 -29 -29.5 -97.5t-32.5 -96.5q-51 4 -59 65q-18 100 -18 102v-26l-15 -14q-14 -15 -24 -11l-23 -73q0 -18 23 -29q-10 -65 -3 -167t3 -151q18 -2 34 -2zM606 -20l2 -40q0 -14 -12 -24
q-29 23 -77 32t-91 17q12 279 -35 549v55q2 41 -12 60l-14 -15q0 4 14 15.5t14 20.5t-2 16l-14 14q-39 -12 -39 -64t-29 -65q10 -10 11 -25l-7 -45q0 -18 15 -30v-222q0 -133 -17 -225v-35q-14 2 -32 2l-117 -6q-76 0 -105 39l15 764q-12 57 -13 158v147q-2 109 -14 168
q8 39 48 39t91 -16q24 12 52 12l96 -2q80 0 108 53q37 -2 79 -34.5t75 -37.5q84 -70 84 -217q0 -33 -33 -258l-104 -100q23 -60 47 -240t82 -260h-2q-14 -30 -12 -102t1 -74q-10 -4 -26 14q-27 -10 -27 -38z" />
    <glyph glyph-name="S" unicode="S" horiz-adv-x="757" 
d="M72 791q10 6 10 18t-21 33q-14 55 -14 114q0 117 51 207h25q0 -2 12 -26q47 8 113 85t114 76q18 0 41 -8l54 13q174 -74 205 -216q14 -29 12 -95t-2 -70q-33 8 -71 8t-132 -25q-10 23 -10 61v70q-4 70 -62 84q-2 16 -30 45q4 -14 4 -24q0 -27 -50.5 -38t-41.5 -54
q-6 -25 -7 -48q0 -78 72 -151q63 -59 127 -119q123 -57 186 -205q-10 -23 -10 -42v-35q2 -16 2 -23q0 -47 -41 -66q12 -25 51 -28.5t52 -20.5q0 -23 -12.5 -69.5t-12.5 -78.5t25 -59h2q-20 -16 -29 -14l-10 14q-40 -86 -146 -112t-198 -51q-27 43 -66 14
q-88 45 -147.5 154.5t-57.5 224.5q8 0 22.5 8t27.5 4q133 0 182 14q4 -8 4 -16l-16 -49q0 -14 24 -23q-14 -8 -14 -18t14 -49q10 -51 57 -51l93 14q49 0 39 -78q28 12 28 57v48q-26 16 -26 60q-1 102 -11 118l-102 100q6 33 -27 41q-45 10 -51 25q-102 102 -153 151l14 12
q-30 -2 -58 41t-34 48z" />
    <glyph glyph-name="T" unicode="T" horiz-adv-x="987" 
d="M590 1174q0 48 -1 61q5 17 23 25q76 -14 98 -14t46 11q14 -37 12 -117t-2 -85l2 -2q-29 4 -95 -1t-98 3q-31 -23 -24 -66l12 -10q-16 -16 -12 -27l10 -14q-20 -362 -20 -430t10 -141q-14 -45 -14 -105l18 -252q0 -33 -4 -61q-29 -12 -73 -12t-105 36q-8 -8 -18.5 -17
t-6.5 -22q-20 -6 -55 25q-2 369 -45 1131q-29 -29 -87 -33t-83 -17q-29 43 -29 110t29 110q36 -16 116 -16t87 1q8 14 41 15q20 -14 20 -33l-16 -66q0 -25 32 -41q37 -2 76 -2q43 -8 37 -53q8 12 72 39q47 22 47 70zM936 1055h2q-7 -17 -39 -17q-18 27 -12 82.5t-2 73.5
q0 41 2 47q6 27 37 19q16 -18 16 -52l-6 -88q0 -16 2 -28v-37zM588 1227q1 23 1 8q-1 -4 -1 -8zM588 1227v-4v4z" />
    <glyph glyph-name="U" unicode="U" horiz-adv-x="968" 
d="M236 598q0 -33 36.5 -128t28.5 -157q10 -6 15.5 -31.5t23.5 -33.5q12 14 12 52t-12 50l12 12q-8 4 -14 39q4 15 20 15h31q25 -45 26 -139.5t27 -141.5l50 49q25 -23 30.5 -88t32.5 -88h2v-26q0 -18 -11 -23.5t-16 -5.5q-12 0 -20 18q-14 23 -18 27q-12 -31 -42 -35
t-61 -4q-51 88 -59 129q-20 -20 -10 -69.5t10 -59.5q-219 113 -219 369q10 22 10 52q-1 30 -15 89t-6 121t8 254t3 221q14 18 14 43l-19 119q0 16 5 30l-15 13q81 43 90 24q10 2 58 0t84 15q30 -31 30 -81t-20 -161q32 -27 22 -84t2 -84q-80 -31 -79 -76q0 -12 4 -26
l-13 -15q10 -14 10 -28t-26.5 -49t-19.5 -58q-2 -16 -2 -49zM553 174h37q-2 -8 14 -24l39 112l49 1047q33 16 98.5 10t92.5 4l41 -12l2 -2q-14 -166 -43 -496l12 -14q-27 -76 -27 -195l9 -242q0 -219 -105 -315q-33 -12 -69.5 -27.5t-47.5 -46.5q-37 -2 -63 43
q-18 41 -39 82v76z" />
    <glyph glyph-name="V" unicode="V" horiz-adv-x="774" 
d="M453 498q8 0 14 -2q10 -29 49 -29h31q37 0 41 -31q-21 -172 -74 -508q-14 16 -29 17l-63 -19q-14 0 -29 17q-11 -17 -74 -17l-16 17q-8 -17 -61 -17l-74 391q20 27 116 56t109 94q27 31 60 31zM375 785l22 -177q0 -29 -4 -51l-26 -29q-16 -18 -33 -18l-15 16
q-27 -23 -55 -48t-65 -27q4 12 -14 27t-16.5 23.5t1.5 36.5t-15 102q-15 75 -18 93q-4 125 -43 341t-47 308l225 31l45 -31q-1 -2 17 -226t45 -331q-4 -16 -4 -40zM518 584q-37 0 -80 16q2 160 38 468t36 314q37 16 102 17l109 -2q-6 -141 -52 -401.5t-53 -393.5
q-63 -18 -100 -18z" />
    <glyph glyph-name="W" unicode="W" horiz-adv-x="1216" 
d="M115 12q0 25 16 41q5 119 -23 336t-28 297t6 135q-41 137 -41 277t10 221q25 -16 43 -16t84 11t99 -9l47 -664l26 43q2 4 18 152t60 211q-4 180 57 241q160 -18 211 -14q12 -336 95 -633q8 5 16 27t29 18l14 -16q72 264 106 395t58 283q-18 2 102 2q55 0 80 -31l2 2
q-26 -163 -58 -341t-95 -294q-29 -184 -91 -557q9 -18 3 -66q-6 -47 -3 -65q-42 -20 -122 -12t-117 -2q-45 166 -45 342q0 45 2 90q-106 41 -107 135v80q0 47 -16 69q12 6 12 17q0 -2 -26 45q-96 -602 -152 -795l14 -14q-20 -20 -16 -31q-39 17 -225 17q-45 23 -45 73z" />
    <glyph glyph-name="X" unicode="X" horiz-adv-x="825" 
d="M528 632q0 -72 23 -130q-12 6 -29 -15q20 -14 53 -13t52 18q37 -94 75.5 -297t73.5 -297h-2q-30 -12 -60 -12t-95.5 15t-100.5 13q-86 190 -78 451q-96 -102 -96 -246q-39 6 -53 -39t-33 -55q2 -12 2 -25q0 -55 -39 -55q-10 0 -22 4q-12 -4 -30 -4t-73 28
q-16 -20 -33 -18q-1 3 13 79t53 103q39 123 80 246q41 141 35 258q12 35 12 81t-68.5 148.5t-68.5 169.5q0 14 2 29q-6 27 -39 92t-33 99t14 63q43 -14 119 -10l123 8q14 -70 60 -285l45 -43q28 45 58 135t48 125q-12 23 -7 37t11 27h25q29 -16 88 -12l80 4q31 -10 30 -27
l-16 -57q0 -12 6 -23q-47 -51 -74 -133t-51 -156q-80 -209 -80 -281z" />
    <glyph glyph-name="Y" unicode="Y" horiz-adv-x="798" 
d="M204 1286q85 0 118 -45q12 -33 45 -203t94 -243q33 78 52 191t36 218q-39 23 -35 74q16 4 33 4q51 0 110 -47q43 -41 88 -82h3q4 -10 4 -16q0 -13 -22 -19t-25 -10q-35 -6 -45 -51t-27 -56q-4 -41 -27 -137q-22 -96 -22 -148t22 -95q-16 -32 -39 -164q-12 3 -26 -15
t-19 -20q-8 -16 -8 -37t24.5 -57.5t24.5 -57.5t-31 -45q0 -8 5 -33t-2 -28q-27 -30 -27 -60t41 -112q-10 -14 -66 -15l-104 5q-10 63 -10 153l8 275q0 90 -10 155q-18 -18 -15 -33q-43 2 -57 58q-12 45 -25 90q-36 98 -78 204t-90 181q-14 23 -20 88t-35 90q72 43 157 43z
" />
    <glyph glyph-name="Z" unicode="Z" horiz-adv-x="704" 
d="M657 -53v-2v2zM358 1210v-2l2 2h-2zM242 -96q-14 0 -34 5t-153 -22q5 165 59 375t103 400q57 -2 67 68t46 87q6 133 22 193q27 104 101 143q-4 45 23.5 123t23.5 121q59 27 98 26q59 0 53 -63q4 -10 4 -21q0 -45 -45 -59q-2 -12 -51 -319q-31 -193 -98 -304
q-6 -98 -52 -281t-49 -190q0 -78 29 -77q8 0 37 11q28 11 106 14t101 5q20 -47 20 -97t-12 -83l16 -14q-22 -34 -57 -33q-8 0 -16 2q-6 12 -13 12l-26 -16q-2 0 -23.5 7t-42.5 7l-88 -6q-88 0 -84 86q-21 -12 -29 -56t-36 -44zM243 1047q-9 0 -26 17t-27 17t-22 -18l-16 16
q-31 -49 -89 -49l-12 223q78 3 156 7t147 -9l4 -41q-37 -16 -49 -82t-49 -75q-8 -6 -17 -6z" />
    <glyph glyph-name="bracketleft" unicode="[" horiz-adv-x="411" 
d="M203 -160q0 -12 2 -20l-131 -2l-2 100q41 -45 91 -45t132 42t108 42q60 0 64 -131q-14 2 -33 2l-94 -4q-76 0 -104 61q-33 -33 -33 -45zM176.5 1585q104.5 0 321.5 6l2 -98q-27 33 -55 33t-74.5 -33t-67.5 -37l-65 -65q43 -33 14 -114t22 -116l-6 -1173l-98 -6
q-45 0 -66 30l33 35l-69 64l38 1343q-37 14 -36 57q2 74 106.5 74z" />
    <glyph glyph-name="backslash" unicode="\" horiz-adv-x="675" 
d="M391 416q0 133 -94 335.5t-96 342.5l98 28l217 -688q4 -39 33 -125t29 -138t-35 -99q33 -18 32 -66q0 -6 -4 -42t0 -52h-65q-20 110 -44 230t-77 194q6 41 6 80zM260 1233l8 -51q0 -12 -18 -12t-109 24q-15 31 -39 113t-57 118l168 31q29 -23 37 -84t24 -84
q-15 -26 -14 -55z" />
    <glyph glyph-name="bracketright" unicode="]" horiz-adv-x="419" 
d="M68 1477q-14 0 -68 -4t-84 0q0 80 -33 96l453 41q0 -28 -14 -688t-15 -1010v-98q-63 31 -172 30l-211 -10q-23 0 -41 2v103l228 2l32 1470l33 33q-37 33 -108 33z" />
    <glyph glyph-name="asciicircum" unicode="^" horiz-adv-x="602" 
d="M246 1473q-39 0 -51 -132l-132 -4q37 29 105 160q51 94 129 94q37 0 88 -16q31 -53 65 -113t35 -114q-57 -27 -140 49t-99 76z" />
    <glyph glyph-name="underscore" unicode="_" horiz-adv-x="1413" 
d="M1290 -176q-61 0 -210.5 -16.5t-241.5 -16.5t-144 35l37 29q-47 43 -69 33t-26.5 -39t-6.5 -56h-90q-53 0 -74 35q-86 -33 -207 -33t-219 43l37 29q2 8 2 21t-35 49q41 33 49 32.5t17 -4.5q12 -63 98 -63t98 61q25 -6 100 -1t105 -3q49 -12 57 -65q68 63 318 63l407 -14
q41 0 66 2l28 -133q-35 12 -96 12z" />
    <glyph glyph-name="grave" unicode="`" horiz-adv-x="196" 
d="M113 1366q-25 0 -66 48t-55 56q33 38 33 48t-5 18l-129 61q1 37 57 38t105 1q23 -23 23 -63l-4 -62q0 -63 82 -71v-66q-16 -8 -41 -8z" />
    <glyph glyph-name="a" unicode="a" horiz-adv-x="735" 
d="M376 174q16 0 27 6l15 332q-29 -33 -60 -31q-35 -173 -30 -241q10 -20 21 -43t27 -23zM51 215q0 27 6 55q4 209 152 285q68 47 164 47q16 0 30 -2q17 16 61 16h46l12 -16q2 2 56 92t98 119v-283q0 -180 -17 -288q13 -6 13 -30v-42l10 -131q0 -31 -8 -51q-25 29 -68 28
l-110 -14q-51 0 -62 59q-94 -74 -196 -73q-39 0 -74 12q-113 129 -113 217zM489 682q-31 0 -37 58t-16 69q4 53 -33 80q-72 -16 -120 -168l-15 16q-61 -16 -98 -16t-80 16q14 117 27 152q29 78 104 102q63 10 197 31q33 -10 76 -31q4 5 25 17t21 22t-3 21q14 4 32 -15
l-14 -14q65 -90 65 -139t-20 -88q-25 -10 -40 -61.5t-71 -51.5z" />
    <glyph glyph-name="b" unicode="b" horiz-adv-x="759" 
d="M297 1161q0 -80 -81 -207t-81 -206q0 -25 4 -50q14 2 27 2q53 0 74 -51q10 -49 22 -100l-45 -62q-6 14 -47 15l-31 -27q84 -2 84 -55q0 -16 -11 -61.5t-11 -67.5q-8 4 -31 -10q-6 -16 -6 -27q0 -27 45 -34t53 -15l-22 -96q-12 -57 -56 -70q43 -67 -28 -164q-16 -4 -31 -4
q-68 0 -76 76q0 39 17 47l-17 12q27 219 9.5 625.5t7.5 621.5q16 -2 20 -2l113 6q61 0 92 -47q6 -26 6 -49zM268 88q0 18 54 51q10 2 25 2t79 -30q61 105 61 245t-61 416l-45 31q-31 -17 -30 -75t-15 -77h-31q-16 47 -16 107t16 106q23 8 93 48t107 40q38 0 73 -14
q137 -123 137 -387q0 -63 -8 -177t-11 -157q-23 -70 -43 -141q-29 -80 -92 -99q-23 -10 -151 -30q12 49 -65 86t-77 55z" />
    <glyph glyph-name="c" unicode="c" horiz-adv-x="722" 
d="M594 346v-211q-10 -121 -102 -149h-80q-59 0 -88 14q-4 127 32 211q10 2 19 2q25 0 69 -49q47 23 48 94l-5 70q0 82 80 78l29 -60h-2zM602 631h-24q-16 2 -42 2t-47 -17q-7 34 -37 138t-30 150t4 75q18 16 34.5 16t49.5 -25.5t55 -21.5q83 -79 103 -286h2
q-14 -31 -68 -31zM313 472q0 -78 -22 -191q-23 -94 -43 -191v-16q-68 14 -105 94q-57 125 -61 131q-12 61 -13 182t-14 181q-6 121 39 222t137 152q39 20 76 21q82 0 82 -74q0 -28 -20 -65q-59 -4 -60 -82v-48q0 -45 -14 -65q14 -12 14 -25l-18 -59q0 -12 6 -23
q16 -66 16 -144z" />
    <glyph glyph-name="d" unicode="d" horiz-adv-x="716" 
d="M424 736q0 18 -11.5 51t-11.5 49t5 28l-15 -28q-39 -4 -49 10l4 -43q-16 -20 -29 -19q10 -61 -4 -126q-14 -66 -16 -83q10 -47 9 -142t-1 -101q6 -150 74 -205l-21 88q6 14 45 18q6 23 11 84q0 53 14 80q-20 41 -20 99l10 149q0 31 -6 55q12 18 12 36zM547 -115
q-33 -1 -59 29t-62 92q0 37 -16 45l-13 -16l-18 14q-8 -25 -19 -47q-10 -27 -36 -29l-15 13q-82 -12 -151 20q-106 139 -107 289q0 43 10 86l-10 12q2 238 15 314q31 170 137 254q19 16 41 16t56 -12.5t50 -12.5l49 -45q27 27 27 82q0 15 -4 57t0 58q14 8 14 16t-12 21.5
t-12 22.5t4 16l20 149q128 10 230 -33l2 2q-25 -150 -8.5 -445.5t-10.5 -444.5q-10 -4 -20 -4t-22.5 20t-18.5 25q-31 6 -61.5 -8.5t-59.5 -26.5q1 0 57 -14t70 -40q-10 -16 -10 -33t30 -71l-22 -268q0 -49 8 -97q-20 -6 -53 -6z" />
    <glyph glyph-name="e" unicode="e" horiz-adv-x="716" 
d="M422 709q0 29 -15.5 95t-13.5 97l-14 -16q-14 -2 -33 16v-47q-33 -33 -31 -104v-119l62 -2q45 23 45 80zM602 502q-14 0 -29.5 -9.5t-25.5 -9.5t-31 11l-88 143q2 -61 18 -97t25 -61q-84 -10 -94 0l-15 -16l-30 45q-41 -45 -23 -141t-6 -140q29 -47 72 -47q18 0 33 13
q23 49 45 98q33 59 65 59t70 -33q45 -18 45 -45q0 -16 -23.5 -52t-23.5 -50t2 -20q-31 -20 -56.5 -63.5t-64.5 -57.5q-35 -31 -61 -31t-68.5 38t-81.5 38q-14 37 -75.5 84t-74.5 98v33q0 20 -16 26l16 15q-31 2 -30 37v16q2 9 2 25t-15 26v72q0 55 -18 80q27 129 53 258
q41 150 107 149q10 0 20 -4q61 55 149 55t197 -65q81 -147 93 -317q-14 -27 -14.5 -58t-0.5 -59q-4 -25 -16 -49q-17 6 -31 6z" />
    <glyph glyph-name="f" unicode="f" horiz-adv-x="585" 
d="M516 1303l-2 2q0 -1 1 -3q0 1 1 1zM427 924l53 20q10 0 24 -22t14 -79t-18 -95q-14 -6 -30 -6t-28 36q-10 37 -16 43q-47 -143 -47 -401v-197q0 -168 -17 -270q-47 -6 -180 29l-12 -17q-16 150 -16 457v326l-29 75l-23 -47q-12 -27 -36 -28q-17 31 -17 165q8 2 24.5 12.5
t27.5 10.5t24 -23q18 45 30.5 143t34.5 156t84 91q14 -4 40 1t34 5t14 -6q18 16 39 16l88 -21q14 0 26 4q43 -129 -13 -180q-10 14 -20 14t-58 -12q-33 -31 -33 -85t19 -111q8 -4 17 -4z" />
    <glyph glyph-name="g" unicode="g" horiz-adv-x="821" 
d="M788 1156l-20 -108q0 -18 4 -32h-47q6 10 -14 31q-31 -29 -31 -66q0 15 9 -53t9 -101q0 -133 -77 -247q-74 -61 -187 -62q-20 0 -39 2q4 47 53.5 129t49.5 120t-11 67q-8 -16 -45 -17q0 37 -31.5 76t-29.5 76q-12 -4 -13 -18.5t-3 -28.5l-29 30q-45 -68 -45 -163
q0 -47 18 -167t13 -182q-14 4 -24.5 -7t-21.5 -21q0 -80 93 -80h32q72 0 88 -39q-10 -55 -20 -113q-14 -66 -74 -69l-61 61q-14 -8 -10 -45q-12 -4 -31 14q-2 -20 -33 -68t-31 -75t45 -49h166v-35q0 -20 17 -29q29 10 28 54v24q-2 16 -2 23q0 39 35 39q12 0 29 -4
q16 18 16 67v53q-31 33 -31 69t14.5 90t14.5 81h45q41 -33 87 -70q79 -64 79 -146q0 -83 -45 -187q-72 -82 -149 -107q-6 4 -16 4t-38 -12t-42 -12t-23 4q2 14 -17 32q-18 -8 -29.5 -52t-35.5 -44q-9 0 -19 3t-65 2t-76 16q-170 49 -182 192q8 70 88 123q10 -4 33 12
q-2 27 -42 91.5t-40 100.5t20 66q70 37 70 111q0 43 -25 84q-49 33 -49 123q0 25 21 162q23 61 78 110t116 58l17 -15q14 -2 52 3t56 5q70 0 86 -55v-49q-2 -29 14 -41q33 20 31 83t14 81q39 86 197 137q16 -20 16 -40z" />
    <glyph glyph-name="h" unicode="h" horiz-adv-x="729" 
d="M481 1001h2q-10 -55 -23 -114t-40 -94q-4 2 -42 23t-63 20q-25 -118 -37 -354t-20 -292q-31 4 -57.5 -31t-26.5 -52t26.5 -33.5t26.5 -34.5q-14 -43 -53 -43q-18 0 -63 14.5t-64 14.5v585q18 23 16 31l-16 12q3 37 19 313t38 414l127 2q80 0 101 -49q-2 -45 -16 -147
t-15 -162q0 -60 14 -113q74 90 166 90zM680 707q0 -340 -47 -725q-31 -25 -91.5 -7.5t-88.5 -7.5q-33 47 -33 193v151q14 430 119 690q104 -33 139 -135q2 -82 2 -159z" />
    <glyph glyph-name="i" unicode="i" horiz-adv-x="364" 
d="M293 196l2 -120q0 -94 -62 -115h-92q-57 -2 -88 14q17 21 17 53t-17 52q16 180 17 432l-2 424q109 18 141 18q82 0 98 -49q-25 -41 -7.5 -126t-6.5 -130q25 -37 7.5 -110.5t6.5 -108.5q4 -10 4 -20l-18 -66q0 -12 12 -22q-12 -6 -12 -14t8 -23t6 -23q-14 -32 -14 -66z
M68 1255q0 63 28 88q29 10 82.5 -4t75.5 -14t39 4q16 -27 16 -54t-8 -71t-6 -69q-52 -17 -225 -17q4 25 1 75t-3 62z" />
    <glyph glyph-name="j" unicode="j" horiz-adv-x="405" 
d="M328 45q0 -27 -19 -37q25 -14 11.5 -51t5.5 -51q-43 -172 -119 -242l-195 -29q-14 29 -14 86l2 95q53 4 72 47q12 25 15 88t15 88v426q0 266 -16 432q26 20 90 19t90 10q82 12 82 -37q0 -11 -6 -23q-16 -152 -16 -387l2 -391v-43zM324 1075h2q-1 1 -2 1v-1zM342 1192
q0 -64 -18 -116q-35 25 -105 8t-104 8q-19 64 -19 126t33 87h197q16 -49 16 -113z" />
    <glyph glyph-name="k" unicode="k" horiz-adv-x="684" 
d="M504 594q0 -80 -45 -123q53 -51 64 -117t9 -184q-53 -33 -53 -76t27 -74q-10 0 -42 -13t-48 -13q-35 0 -51 39q12 162 -41 284q-27 -53 -29 -138t-2 -161q-4 -61 -17 -104l-225 31l47 493q40 8 96 68t113 53l31 31q-33 33 -33 69.5t42 98.5t53 108q12 46 26 80t47 51
q11 -2 59 -17t70 -15t35 2h2q10 -51 -47 -109t-60 -86q-28 -43 -28 -94v-84zM109 551q-21 0 -41 18q-10 383 45 693v96q0 66 16 102q16 14 44 14t46 -14h66q49 0 69 -16q-2 -10 -2 -31t31 -73t31 -74q-1 -37 -60 -62v-2q-39 -72 -46 -222t-17 -185q-25 -104 -117 -150
q-12 -29 -24 -59q-20 -35 -41 -35z" />
    <glyph glyph-name="l" unicode="l" horiz-adv-x="360" 
d="M293 687q0 -339 16 -683h2q-8 -45 -94 -59l-12 16q-6 -16 -33 -16h-29l-16 16q-6 -14 -45 -18q-16 143 -15 427t-1 357q-2 72 -13 166q14 20 5 77.5t10 84.5q-16 27 -16.5 67.5t18.5 69.5q-2 10 -1 68t-16 79q0 66 68 66l69 -4q39 0 56 16q39 -12 63 -61
q-16 -330 -16 -669z" />
    <glyph glyph-name="m" unicode="m" horiz-adv-x="1013" 
d="M274 96q0 -26 -16 -33q16 -8 16 -16t-8 -22.5t-6 -22.5q-53 0 -110 3t-84 44q-10 39 38 57q78 29 81 30t40 2t49 -15v-27zM304 963q0 1 1 2l2 -2h-3zM462 1065q79 0 128 -55q-6 -23 28 -62q43 41 84 82q57 47 115 37q12 2 23 2q76 0 125 -123v-313q-9 2 -22 2t-42 -15
t-39 -18q-2 -6 12 -31q8 14 48 15l28 -31v-510q-10 -8 -22.5 -8t-41 14.5t-42.5 14.5t-25 -5q-12 -51 -80 -47q-16 86 -16 224l2 227l47 31q-31 57 -31 74t15 32q-16 27 -17 80l6 129q0 109 -94 107q-29 -52 -31 -140t-3 -152t-13 -104q-10 4 -25 4t-65 -45l76 -30
q-4 -31 -4 -64l22 -287q0 -37 -4 -71q-37 -14 -178 -15q4 14 4 29q0 51 -65 109q12 23 12 53l-8 100q0 55 41 86l-17 465q-53 6 -56 55.5t-5 98.5q51 55 130 55zM220 190q-26 0 -74 -23.5t-60 -23.5q-27 0 -20 66v258q-36 258 2 496q-16 12 -16 42t14 46q14 -2 30 -2l131 12
q29 0 49 -8v-47q-2 -31 15 -43h13q-30 -94 -30 -220l17 -348q0 -123 -29 -215q-16 10 -42 10z" />
    <glyph glyph-name="n" unicode="n" horiz-adv-x="665" 
d="M156 20q-63 0 -93 17q-10 31 -10 67t19.5 104t19.5 113t-47 91q49 92 49 209q0 23 -2 47q41 0 53 51q20 78 23 82l-33 196q39 19 80 19t57 -33v-41q-2 -25 15 -35q55 72 153 109q43 -14 86 -27q47 -23 60 -65v-207q0 -113 18 -199l-2 -65q0 -49 16 -72l-16 -363
q-23 -18 -72 -12t-63 0l-10 14q-11 -16 -19 -16t-22.5 10.5t-23.5 10.5t-15 -5l-15 347l46 30l-43 29q2 11 2 246q0 145 -52 235q-47 -63 -52 -164.5t-5 -197.5l-16 -15q12 -4 16 -43l-16 -16q10 -6 16 -43l-2 -166q-16 -27 -16 -59l18 -125q0 -31 -16 -58h-86z" />
    <glyph glyph-name="o" unicode="o" horiz-adv-x="710" 
d="M297 -37q0 45 49 82q40 4 56 -44t34 -60q-18 -18 -14 -29q-18 8 -61.5 12t-61.5 17q-2 12 -2 22zM569 991q94 -145 95 -362q0 -270 -127 -482q-4 2 -78 23q-45 10 -43 51q-4 -12 -18.5 -13t-26.5 -3q25 109 37 269t24 306q-16 12 -14 60t-31 61l-31 -31l-30 74
q-96 -302 -13 -766q-23 -10 -53 -58t-67 -46q-143 178 -144 477q0 240 98 410q94 94 244 94q108 -1 178 -64z" />
    <glyph glyph-name="p" unicode="p" horiz-adv-x="763" 
d="M467 764v-45h16q-6 -12 -47 -17q2 41 -19.5 114t-21.5 107.5t15 65.5q-68 -49 -91 -135q-14 -51 -15 -166t-15 -166q14 -47 14 -114.5t-16 -171.5q41 6 53 -35q20 -66 22 -68l29 31q41 -4 53 41q20 76 23 78q-20 35 -7 104.5t-9 108.5q2 59 2 116q8 78 59 107h-14
q-18 8 -15 45h-16zM713 412q0 -207 -92 -373q-40 -23 -166 -41l-29 27l-16 -17q-26 10 -44 66t-20 38t-18 -136t-6 -189l-17 -14q18 -23 17 -31h-111q-78 -2 -119 14q-2 139 14 402q2 39 -14 47l17 16q-17 6 -17 32v28l17 14q-18 25 -19 29q18 26 60 8t49 22q-33 -6 -78 35
t-72 41q16 135 17 328l-3 321q25 16 103 17l108 -2l45 -93l76 62l29 -31q16 45 39 45q12 1 50 -25t60 -18q94 -94 95 -243q0 -29 -4 -58q55 -127 55 -171t-8 -70l-2 2q4 -39 4 -82z" />
    <glyph glyph-name="q" unicode="q" horiz-adv-x="702" 
d="M307 624q0 -226 2 -247q-3 -11 -4 -25l17 -123q0 -27 -11 -47q-37 0 -45 15l-33 -43q92 14 74 14q35 0 47 -31q47 66 47 205v104q1 91 17 144q-16 37 -17 90l11 154q0 74 -39 116l-17 -16l-16 16q-33 -100 -33 -326zM387 987q-4 -25 -16 -35q16 6 16 35zM641 825
q0 -133 -12 -196q-41 0 -49 -15q63 0 63 -63q0 -8 -4 -45t0 -53q-23 -86 -23 -105t23 -31q0 -41 -10 -47l-4 -71q0 -53 14 -78l-12 -15l12 -16l-12 -14l12 -375h-223q-18 57 -15.5 174t-13.5 170q-10 4 -20 4t-23 -18q-14 -25 -20 -29q-37 -14 -64 -14q-47 0 -82 74t-78 90
q-51 305 -51 452q0 334 184 479q29 12 68 13q119 0 143 -74l62 -59q12 31 25 63t49 27h49q28 -2 26 -29q-14 -66 -14 -199zM309 377v2v-2z" />
    <glyph glyph-name="r" unicode="r" horiz-adv-x="571" 
d="M274 46q0 -54 -30 -85q-23 4 -37 44t-39 46q-10 -25 -23 -47q-12 -27 -39 -29q-16 17 -16 59v44q8 -2 16 -2q29 0 67 40t65 40q8 0 18 -2q18 -54 18 -108zM128 197q-30 0 -52 4v84q0 53 -17 82l78 43q-8 16 -47 16l-43 555q61 33 135 14q11 17 74 17q31 -14 31 -39
l-15 -60q0 -25 29 -39q45 55 92 113q61 63 135 55v-272q-125 18 -166 16q-59 -35 -69 -135q-20 -166 -21 -168l-14 17l-33 -29q8 -14 47 -14q16 -39 16 -91t-16 -90q-37 -27 -75.5 -53t-68.5 -26z" />
    <glyph glyph-name="s" unicode="s" horiz-adv-x="649" 
d="M598 279q0 -111 -66 -226q-8 4 -19 4q-11 1 -23 -21t-17 -26q-70 -41 -147 -30q-12 -6 -30 -6t-64 25.5t-74 20.5q-8 23 -72 107q-41 57 -35 119q29 2 80 28.5t75 26.5t42 -6q-2 -14 -2 -27q0 -57 61 -137q6 4 48 15t44 42q8 139 -61 166l-29 31q-6 -16 -15 -16t-23.5 8
t-22.5 8q106 88 106 111q0 10 -16 10t-74.5 -14.5t-80.5 -14.5t-25 10q-76 72 -76 230q0 72 16 145q33 76 164 137q68 -8 197 -43q94 -94 94 -204q0 -25 -4 -52l-135 -16q-4 6 -37 107q-20 63 -68 73q-39 -47 -39 -98t23 -96q53 -36 69 -52t19 -53q23 -43 117 -100t96 -141
h2q2 -23 2 -45z" />
    <glyph glyph-name="t" unicode="t" horiz-adv-x="579" 
d="M393 797v47l-14 14zM504 965q23 0 39 -29v-2q-18 -117 -17 -162q-18 -6 -51 1t-44 7t-21 -10q-23 16 -31 14q-23 -12 -23 -36l13 -74q0 -16 -9.5 -51t-9.5 -58l15 -170q-15 -55 -15 -119t29 -182q6 -2 16 -2t30.5 18.5t32.5 18.5t25 -6q31 -121 31 -147t-2 -44
q-55 -10 -76 41q4 14 -14 31l-43 -41q59 -12 43 -94q-6 -16 -27 -16l-33 2l-30 61l-15 -16q-14 43 -36 43q-12 0 -44.5 -18.5t-50.5 -18.5t-34 10q0 25 -3.5 51.5t-25.5 34.5q2 63 19 340t12 430q-10 16 -20 16t-27 -16t-29 -14q0 20 -15.5 66t-15.5 74t29 52l47 -14
q31 39 31 135l-4 117q0 158 104 158q39 0 94 -19l45 -14q4 -27 4 -56l-18 -223q0 -55 14 -100q16 0 52 15.5t59 15.5z" />
    <glyph glyph-name="u" unicode="u" horiz-adv-x="733" 
d="M442 -74l2 50q0 24 -16 32q-6 -14 -15 -14t-22 7t-35 5t-85 -25.5t-93 -23.5t-53 6q-45 47 -55 143q0 78 -2 156l-17 678q35 14 106.5 14t106.5 15l29 -29q-16 -143 -15 -433t1 -319q14 -14 14 -34l-10 -64q0 -14 8 -22q18 -4 49 13t44 17t28 -14l32 29v305
q0 182 -16 295l-2 198q125 29 242 0q-14 -61 -15 -135l21 -323q0 -45 -4 -86q-14 4 -33 -15q49 -16 49 -82q0 -10 -2 -22l-16 -15l16 -14h-2q-14 -39 -14 -86v-90q0 -86 -21 -133t-88 -47q-31 0 -72 12q-45 -14 -45 51z" />
    <glyph glyph-name="v" unicode="v" horiz-adv-x="643" 
d="M229 506q25 0 50 53q-13 1 -31 -21t-35 -30q10 -2 16 -2zM469 1028q25 0 33 -16q12 14 24 14t35 -14.5t33 -16.5q-61 -169 -131 -497t-111 -463q-72 10 -152 21t-81 77l12 100l-20 185q0 45 16 82q-80 379 -76 571h213q14 -150 43 -450q39 53 51 204t70 203h41z" />
    <glyph glyph-name="w" unicode="w" horiz-adv-x="905" 
d="M718 397q10 0 52 -14q4 -90 -31 -143q2 -16 2 -44t-12 -98t-14 -96q-45 -12 -100.5 -12t-96.5 12q-23 70 -34 186t-21 224q12 -4 22.5 6t18.5 18q-33 -2 -38 38t-30 40q-47 -52 -52 -220t-11 -196q-23 -102 -123 -102q-43 0 -103 16q-35 154 -46 457t-44 453
q-14 10 -14 19t12 48q29 15 67 15t64 -15q10 15 16 15t50 -13q27 -51 29 -172t24 -162q16 8 12 39q80 -8 167 -17t139 -46q0 -45 2 -56.5t22 -21.5q9 125 21 260t47 225h170l2 2q-31 -309 -119 -579q-4 2 -32 1t-36 11q-27 -10 -26 -26q0 -10 13 -33t13 -33q8 14 18 14z
M504 731q-12 0 -27 -6q-12 23 -67.5 5.5t-63.5 31.5q8 26 13 146t53 159q24 -29 96 -28t74 1q2 -31 15 -122q13 -92 13 -130t-2 -63q-8 -8 -18 -18.5t-6 -20.5q-27 -4 -47.5 20.5t-32.5 24.5z" />
    <glyph glyph-name="x" unicode="x" horiz-adv-x="724" 
d="M512 478q0 -86 72 -167q0 -63 32 -175t31 -113q-88 -18 -158 12q-8 -15 -14 -15t-17.5 9.5t-18.5 9.5t-13 -4q-20 37 -34.5 119t-33.5 116q-87 -141 -104 -196q2 -6 2 -13l-18 -53q0 -6 4 -12q-129 16 -185 10q0 35 -16 41q35 57 110 218t132 243q-9 34 -53 216t-83 271
q29 14 60 15l139 -19q20 0 39 4q7 -21 19 -93t34 -105q33 18 58 93t61 75q25 0 64 -23q6 8 14 8l53 -18h2q-12 -68 -95 -218t-83 -236z" />
    <glyph glyph-name="y" unicode="y" horiz-adv-x="684" 
d="M98 -84q39 0 78 29q2 10 15.5 29.5t13.5 28.5t-15 20q0 51 3 104q-2 70 -17 109q21 42 22 72t-34 46q0 59 -25.5 160.5t-26.5 149.5t0 97q1 50 -14 79q-2 20 -15 72t-13 80t14 46h197q12 -45 55 -315q-2 -8 -2 -23q0 -16 12 -56t14 -54q31 68 53 210t40 197q10 -4 22 -4
l98 17q41 0 64 -39l2 2q-1 -11 -65 -251t-85 -368q-27 -51 -50 -164.5t-52 -164.5q8 -80 -34 -157t-109 -118q-8 4 -17 4l-82 -18q-18 0 -32 12q-82 0 -119 14q-42 163 22 170q43 -16 82 -16z" />
    <glyph glyph-name="z" unicode="z" horiz-adv-x="735" 
d="M606 -57h2q6 1 2 1t-4 -1zM422 752q0 36 -13 36l-139 -18q-25 0 -45 14q-8 -14 -22 -14q14 0 -43 12q-14 116 -14 138t12 49q72 -29 194 -29q29 0 105 3t112 1q10 -4 13 -4l69 12q21 1 35 -22q-2 -43 -2 -86q-8 -47 -39 -72q0 -47 -22 -103t-43 -108q-33 0 -39 12
l-11 -12q-10 18 -48 39t-46 27q-6 -12 -43 -13q-14 10 -12 42t2 34q39 38 39 62zM492 -47q-12 0 -43 -23q-195 33 -394 2q-6 33 -6 68q0 131 72 270q33 0 39 15q-10 33 -10 75t28 132q28 89 35 122q6 2 21.5 14.5t24.5 12.5t15 -2q4 -31 39 -39q27 -4 56 -8q45 4 69 -29
q-10 -59 -67 -199t-58 -219q0 -23 4 -45q201 35 289 29q-4 -16 -4 -33l19 -106q-1 -24 -14 -46q-76 7 -93 -14q-10 23 -22 23z" />
    <glyph glyph-name="braceleft" unicode="{" horiz-adv-x="419" 
d="M276 162q0 -96 41 -164q43 -23 103 -51t127 -10l-31 -99q-41 18 -130 30.5t-128 31.5q-68 29 -104 96q-12 47 -13 119l15 286q0 238 -179 277l138 6q86 4 121 -61q20 -37 35.5 -146.5t39.5 -152.5q-35 -66 -35 -162zM385 1653q70 0 162 -19l2 -98q-59 49 -98 49
q-61 0 -78 -149q-8 -152 -19 -306q-20 -186 -90 -251q-12 -29 -24 -60q-27 -47 -93 -61q-12 -6 -66.5 -16.5t-68.5 -10.5t-20 16.5t-17 18.5q213 55 213 313l-24 344q0 111 43 164q51 66 178 66z" />
    <glyph glyph-name="bar" unicode="|" horiz-adv-x="329" 
d="M258 900q0 -95 -15.5 -284.5t-15.5 -323.5t41 -249q-24 -27 -110 -27t-87 -4t-1 72t32 102q27 2 56.5 5.5t42.5 23.5l-99 47q-14 63 -14 133t16.5 195t16.5 210t-39 171q31 75 31 203t-43 217l196 2q25 -52 -1.5 -122.5t-26.5 -104.5t34 -68l-28 -25q14 -78 14 -173z" />
    <glyph glyph-name="braceright" unicode="}" horiz-adv-x="419" 
d="M162 1107q0 5 -2 11q-14 16 -14 34t8 74q10 58 0 89q8 4 15 4t54 -33l29 33q-55 51 -109 104q-76 68 -145 68q-37 0 -76 -16v98q74 4 111 4q233 0 280 -158q2 -61 -6 -186t-8 -178q0 -291 195 -385q-160 -18 -222 -299q-6 -33 -6 -44l21 -300q0 -166 -137 -213
q-16 4 -21 4l-147 -11q-80 0 -93 68q16 33 99 33q12 -25 35 -25t94 62q33 57 33 157l-21 304q0 223 201 260q-100 57 -146 174q-29 106 -57 213q35 49 35 54z" />
    <glyph glyph-name="asciitilde" unicode="~" horiz-adv-x="970" 
d="M934 1549q0 -56 -49 -108t-111 -67q-8 -4 -18 -4t-47 33q-29 -17 -71 -17t-141 67t-149 75l-293 -72q-8 23 -8 45q0 94 100 121q51 25 105 25q88 0 237.5 -88.5t208.5 -88.5q102 0 170 166q66 -31 66 -87z" />
    <glyph glyph-name="nonbreakingspace" unicode="&#xa0;" horiz-adv-x="514" 
 />
    <glyph glyph-name="exclamdown" unicode="&#xa1;" horiz-adv-x="417" 
d="M190 662h27l41 63zM82 1338q0 68 31 112q14 -12 75 -14l17 12q19 -14 37 -65t26 -66q39 29 68 -10l-2 -105q-39 -4 -88 0q-105 -16 -148 -14q-16 82 -16 150zM283 727h24q16 -242 41 -709q-27 -20 -79 -5.5t-79 -10.5l-12 16q-37 -33 -80 -2q-22 23 -22 54t9 73l11 88
q2 18 19 25q-16 14 -17 31l10 37q9 38 3 47q-16 128 16 383q20 190 23 278q19 7 57 -24l-4 -31q-2 -18 12 -25l51 27q35 -55 29 -143q-27 -8 -26 -45t-15 -48q6 -16 29 -16z" />
    <glyph glyph-name="cent" unicode="&#xa2;" horiz-adv-x="722" 
d="M596 180q0 -106 -39 -151l12 -121q-82 -86 -93 -86t-11 10t12 55q-2 9 -2 23t9.5 33.5t9.5 26.5t-2 16h-80q-59 0 -88 14q-4 127 32 211q10 2 19 2q25 0 69 -49q47 23 48 94l-5 70q0 82 80 78l29 -60v-166zM315 472q0 -78 -22 -191q-23 -94 -43 -191v-16q-68 14 -105 94
q-57 125 -61 131q-12 59 -13 180t-14 180q-10 180 86 302l4 391q-2 8 -2 16q0 16 22 16t79 -34q-2 -98 33 -297q14 4 30 4q82 0 82 -74q0 -30 -20 -65q-59 -4 -60 -82v-48q0 -45 -14 -65q14 -12 14 -25l-18 -59q0 -12 6 -23q16 -66 16 -144zM602 631h-24q-16 2 -42 2
t-47 -17q-7 34 -37 138t-30 150t4 75q18 16 34.5 16t49.5 -25.5t55 -21.5q83 -79 103 -286h2q-14 -31 -68 -31z" />
    <glyph glyph-name="yen" unicode="&#xa5;" horiz-adv-x="880" 
d="M174 305l-170 -4v66h163q85 0 132 36v91q0 53 -35 73q-33 -37 -128 -36t-101 -1v99h123q72 0 102 37q-51 182 -107 382t-135 332q27 37 91 37q127 0 106 -2q51 -94 85 -321.5t89 -325.5q84 80 143.5 279.5t141.5 279.5l-33 33l225 37q-242 -291 -311 -725l229 -62
q-10 -68 -110 -67l-90 4q-98 0 -99 -76q0 -27 11 -63l262 -60q-94 -27 -189 -53q-106 -47 -106 -152q0 -29 8 -63v-94l-197 -2l29 288q-47 33 -129 33z" />
    <glyph glyph-name="dieresis" unicode="&#xa8;" horiz-adv-x="602" 
d="M252 1241q0 -45 -33 -63q-125 28 -135 28t-29 -4l-4 131l197 4q-4 -16 0 -52t4 -44zM558 1247q9 0 17 2l5 -65q-109 0 -139.5 4t-61.5 57v96l196 2l-65 -65q39 -31 48 -31z" />
    <glyph glyph-name="copyright" unicode="&#xa9;" horiz-adv-x="1378" 
d="M826 985q58 0 111.5 -53t53.5 -121q0 -29 -10 -57q-147 164 -256 164q-55 0 -104 -39q-104 -53 -105 -187q0 -55 47 -239q104 -94 199 -95q53 0 96 35q33 16 33 99h94q10 -25 10 -48q0 -94 -135 -149q-47 23 -162.5 29t-162.5 26q-80 35 -103 131q-31 85 -31 181t56 180
q35 82 116 82l103 -6q41 0 69 12q23 55 81 55zM1180 653q0 268 -172 396q-92 67 -240 67t-285 -45q-100 -33 -153 -147t-101 -215q25 -180 66 -281q110 -270 432 -270q127 0 236 43q53 55 113 115t77 114q27 117 27 223zM741 43q-195 0 -335 78q-156 137 -220 229
q-94 139 -86 289q-4 29 -4 55q0 246 322 473q46 4 188 31t215 27q143 0 252 -74q133 -117 201 -221t67 -236q-72 -545 -411 -628q-88 -23 -189 -23z" />
    <glyph glyph-name="ordfeminine" unicode="&#xaa;" horiz-adv-x="522" 
d="M266 653q12 0 21 4l10 238q-20 -25 -43 -23q-24 -130 -21 -172q21 -47 33 -47zM168 520q-27 0 -51 8q-80 92 -80 156q0 18 4 39q2 147 106 201q49 35 117 34q12 0 23 -2q13 13 75 13l9 -13q2 2 47 82q31 47 61 68v-201q0 -127 -10 -205q10 -4 9 -21t-1 -20l6 -102
q0 -23 -4 -37q-18 20 -49 21l-78 -11q-37 0 -43 43q-68 -53 -141 -53zM383 1264q0 6 -2 12q10 4 22 -10l-10 -11q47 -63 47 -97t-14 -64q-16 -6 -28 -43t-50 -37q-24 0 -28 42t-11 48q4 39 -22 57q-51 -12 -86 -119l-11 13q-76 -21 -127 0q10 82 19 106q20 55 76 74
q45 6 139 20q23 -6 53 -20q33 17 33 29z" />
    <glyph glyph-name="guillemotleft" unicode="&#xab;" horiz-adv-x="716" 
d="M657 221l2 -45q0 -27 -10 -37q-29 53 -91 89t-85 67v61q35 -8 93 -66.5t91 -68.5zM655 741q0 -68 -51 -100q-59 -41 -72 -78q-14 10 -26 10q-24 1 -46 -61t-38 -76q25 -31 20 -100q-10 31 -63 43q-45 12 -45 72q0 18 4 45q2 2 104 63q63 37 88 107l123 106q2 -16 2 -31z
M350 221l2 -45q0 -27 -10 -37q-28 53 -90 89t-86 67v61q35 -8 93 -66.5t91 -68.5zM348 741q0 -68 -51 -100q-59 -41 -72 -78q-14 10 -26 10q-23 1 -45 -61t-39 -76q25 -31 20 -100q-10 31 -63 43q-45 12 -45 72q0 18 4 45q2 2 104 63q63 37 88 107l123 106q2 -16 2 -31z" />
    <glyph glyph-name="logicalnot" unicode="&#xac;" horiz-adv-x="1177" 
d="M1057 736q0 -70 24.5 -183t24.5 -156q0 -129 -160 -131q-14 49 -4 190.5t-6 196.5q-27 94 -131 103q-163 -43 -301 -43t-223 65q-25 -4 -29 -36.5t-19 -32.5q-8 0 -18 4l-131 -4v131l717 14q35 -33 69 -33t90 23.5t84 23.5t52 -8q-39 -54 -39 -124z" />
    <glyph glyph-name="softhyphen" unicode="&#xad;" horiz-adv-x="720" 
d="M39 756q119 0 230.5 22.5t162.5 22.5t125 -17q6 -6 36 -57t60 -51q14 0 35 10v-33l-649 9v94z" />
    <glyph glyph-name="registered" unicode="&#xae;" horiz-adv-x="1353" 
d="M764 657l-8 189l-121 33q-35 -23 -33 -89t0 -75q49 12 162 -58zM887 686q0 -80 -84 -100q49 -141 53 -152q35 -86 84 -139l-33 -33q-59 27 -96 106t-72 150q-49 78 -133 98q-31 -27 -31 -98l11 -151q0 -78 -49 -78q-33 0 -88 28q31 49 30 138l-4 116q0 92 33 144
q-18 55 -18 131t20 123l344 -56q-2 -37 15.5 -116.5t17.5 -110.5zM584 125q16 0 32 2q-2 -8 -2 -20t37 -46q4 4 32 36t42 32q46 0 53 -43q2 -4 4 -57q-59 -20 -116 -21q-115 0 -246 90q-100 74 -201 150q-139 295 -139 465q0 125 61 221q78 174 385 301q86 18 166 18
q373 1 563 -329q39 -109 39 -226q0 -264 -190 -532q-23 -8 -92 -58q-70 -50 -106 -51q-36 0 -60 9q-10 20 -10 36q0 25 49 39t59 23q221 186 248 596q-55 252 -334 383q-63 10 -125 10q-373 0 -526 -317q10 -53 10 -119l-6 -172q-1 -164 103 -258t128 -111q72 -51 142 -51z
" />
    <glyph glyph-name="macron" unicode="&#xaf;" horiz-adv-x="720" 
d="M39 1526q119 0 230.5 22.5t162.5 22.5t125 -17q6 -6 36 -57t60 -51q14 0 35 10v-33l-649 9v94z" />
    <glyph glyph-name="degree" unicode="&#xb0;" horiz-adv-x="677" 
d="M280 903h29q-2 -4 -2 -10t19 -23q2 2 16 18t22 17q22 0 25 -22q2 -2 2 -29q-29 -10 -71 -10t-102 41q-58 41 -107 80q-70 147 -70 221t31 121q39 88 192 151q43 8 82 8q187 1 283 -163q18 -55 18 -113q0 -133 -94 -266q-12 -4 -47 -30q-34 -26 -52 -26t-30 4q-6 10 -6 20
t24 18q24 7 31 12q111 94 123 299q-27 125 -166 190q-33 6 -63 6q-186 0 -263 -160q4 -27 5 -59l-3 -86q0 -82 56 -131q48 -45 72 -61t46 -17z" />
    <glyph glyph-name="plusminus" unicode="&#xb1;" horiz-adv-x="798" 
d="M80 264q119 0 230.5 22.5t162.5 22.5t125 -16q6 -5 36 -57t60 -52q14 0 35 11v-33l-649 8v94zM317 540v38q24 -19 58.5 1.5t42.5 20.5q18 0 22 -41q-16 -39 -16 -184l-102 -2l-3 65q-2 41 21 58q-23 8 -23 44zM508 664q-35 0 -68 -23l-22 20l18 -2q18 0 64 46l205 22
l2 -55q2 -33 -21 -45q-27 2 -85 19.5t-93 17.5zM406 672q4 -4 8 -6l4 -5q-3 1 -4 3zM114 739l154 -24q26 0 47 6q21 53 21 129t-27 135l123 2q-4 -29 1 -85t5 -73q0 -72 -41 -108q1 -16 9 -49l-9 8l-80 -62q-16 31 -49 31l-106 -18q-16 0 -29 4l-82 -2l-2 55q-2 33 21 47
q20 4 44 4z" />
    <glyph glyph-name="twosuperior" unicode="&#xb2;" horiz-adv-x="587" 
d="M438 414q-45 0 -65 8l-8 10q-14 -12 -19 -10l-10 8l-8 -8q-14 -2 -95 10q-21 -10 -41 -10t-62 7t-62 1q-14 55 -14 83t20 58q48 47 114 154t103 147q92 -23 108 -96q4 -27 -12 -45q-8 -6 -41 -29q-12 17 -47 -8q-25 -23 -28 -65.5t-19 -67.5q4 -8 19 -7t18 -1
q33 29 94 29l121 -11l2 -75q0 -53 -10 -82h-58zM226 1065q-10 0 -30 9t-28 11q-8 -8 -18.5 -8t-27.5 7t-20 10q-4 137 105 223q74 41 135 41q106 0 147 -113v-8q0 -12 40 -29.5t40 -29.5q-30 -137 -30 -140q-23 -78 -72 -120q-12 -41 -18 -57t-29 -30q-2 1 -36 39t-60 37
q-8 0 -17 -2q6 51 40 138t36 98q-6 90 -55 139q-61 -94 -84 -213q-8 -2 -18 -2z" />
    <glyph glyph-name="threesuperior" unicode="&#xb3;" horiz-adv-x="542" 
d="M500 644q0 -20 -14 -72t-17 -72q-8 -20 -39 -58q-6 2 -22.5 10.5t-24.5 8.5q-14 0 -18 -27q2 -8 2 -14q0 -33 -37 -41h-17q-10 2 -14 10q-16 -27 -21 -35t-24 -12q-57 -4 -108.5 24.5t-79.5 78.5t-29 106v24q10 -2 20 -2l101 11q25 0 41 -9q0 -6 10 -43t24 -51
q55 29 70 99q8 63 16 127q-47 49 -94 55q-4 -8 -26 -10q-21 18 -21 74v57q88 16 111 55q25 117 24 154q0 80 -49 120q-12 -4 -10 -18v-23h-10q-16 0 -21.5 -24.5t-15.5 -30.5q6 -35 -29 -45h-49q-37 0 -53 8q-2 14 -2 31q0 59 47 147q63 51 151 52q31 0 66 -6
q25 4 48.5 -12.5t43.5 -33.5q57 -49 57 -151q0 -41 -10 -109q-4 -4 -23 -60t-51 -63q-8 -16 -8 -28q0 -20 49.5 -41t51.5 -53q-2 -6 -2 -13l12 -43q0 -10 -10 -18q4 -14 4 -34z" />
    <glyph glyph-name="acute" unicode="&#xb4;" horiz-adv-x="196" 
d="M-68 1366q-24 0 -41 8v66q82 8 82 71l-4 62q0 41 23 63h96q63 -2 66 -39l-129 -61q-5 -8 -5 -17t33 -49q-14 -8 -55 -56q-42 -48 -66 -48z" />
    <glyph glyph-name="periodcentered" unicode="&#xb7;" horiz-adv-x="321" 
d="M37 692q0 115 2 105l-2 63q39 16 128 14t128 17q10 -29 10 -55t-7 -96q-7 -68 -1 -107v-2q-12 6 -27 -15l-123 17q-45 0 -75 -33q-33 27 -33 92z" />
    <glyph glyph-name="cedilla" unicode="&#xb8;" horiz-adv-x="706" 
d="M324 -12q24 0 41 -2q106 -76 106 -205q0 -27 -4 -53q-33 -70 -113 -70q-51 0 -84 33l-32 33q39 34 48 34t17 -2l33 -32q2 4 38 39t27 63q-14 33 -51 33q-8 0 -39 -4t-45 0q31 55 31 127q3 6 27 6z" />
    <glyph glyph-name="onesuperior" unicode="&#xb9;" horiz-adv-x="466" 
d="M154 948q0 51 100 51q18 0 35 -2q6 -256 24 -491q13 -10 29 -10h27q10 2 16 2q49 0 43 -47q-10 -8 -10 -31l2 -37q0 -25 -11 -25t-28 9q-47 -15 -110 -12q-62 3 -76 3q-10 -12 -31 -12l-35 2q-4 2 -10 2l-53 -12q-12 0 -23 8q-8 23 -7 73t-1 58q11 10 25 10h28
q10 -2 16 -2q37 0 35 37q-16 12 -6 38t-4 38q10 12 10 27l-3 15l1 105q0 10 -7 37t-5 64q35 10 43 57q-14 27 -14 45zM283 1159q16 0 28 4q-3 -9 -1 -35t-1 -34q-6 -16 -26 -13q-36 22 -80 -2q-45 -24 -62 -28q2 10 2 20l-12 66q0 8 1 12t39 18t38 45q8 -4 33 -28t41 -25z
M74 1233q-8 0 -17 -2v10q0 10 16.5 19.5t16.5 17.5t-6 18q12 25 57 19q78 78 152 78q20 0 35 -4q22 -70 2 -140v-2q-6 -10 -31 -8t-27 2l-24 27q-14 -12 -56 -23.5t-59 -32.5q-12 0 -31.5 10.5t-27.5 10.5z" />
    <glyph glyph-name="ordmasculine" unicode="&#xba;" horiz-adv-x="503" 
d="M211 504q0 33 35 59q27 2 39 -32t24 -44q-12 -12 -10 -20q-12 6 -43 9t-43 11q-2 10 -2 17zM35 900q0 192 69 312q68 68 159 68t140 -45q68 -103 68 -277t-90 -323q-2 2 -55 16q-33 6 -31 37q-2 -10 -12.5 -10t-18.5 -2q18 90 43 409q-12 8 -10 42t-23 42l-20 -20l-23 51
q-67 -210 -8 -543q-16 -8 -41 -45q-18 -31 -45 -28q-102 124 -102 316z" />
    <glyph glyph-name="guillemotright" unicode="&#xbb;" horiz-adv-x="694" 
d="M332 722q0 9 2 17q86 -53 330 -252q-2 -67 -22 -97t-61.5 -59.5t-58.5 -54.5h-16q-10 2 -14 19q-12 -70 -70 -107q-90 -61 -92 -63q-2 16 10 41l-10 22q12 30 63 50t68 77q31 4 65 39t66 68q-129 211 -248 235q2 14 -5 35t-7 30zM25 722q0 9 2 17q85 -53 329 -252
q-2 -66 -26 -104q-16 -23 -57.5 -52.5t-57.5 -54.5h-16q-10 2 -15 19q-12 -70 -69 -107q-90 -61 -92 -63q-2 16 10 41l-10 22q12 30 63 50t68 77q32 4 66 39t65 68q-129 211 -248 235q2 14 -5 35t-7 30z" />
    <glyph glyph-name="questiondown" unicode="&#xbf;" horiz-adv-x="632" 
d="M174 1149q14 43 13 125t1 98q14 14 62 13t31 -3l10 -10q9 18 133 10l12 -231q-31 -14 -164 -14q-43 -2 -71 -13zM373 954q0 -22 -11 -30q0 -77 -1 -65q5 -40 38 -54q9 -100 -63 -260q-72 -161 -72 -223t19 -109v-55q-16 6 -35 6t-58.5 -23.5t-66.5 -19.5q-2 76 -24 171
t-42 183h-2q49 76 99 152q47 82 61 164v81q0 49 -14 76q14 6 14 39q14 5 39 -26q18 18 14 28q6 4 8 4l50 -16q10 0 18 14q29 -15 29 -37zM360 41q82 104 211 131q6 -47 -43 -104q-41 -41 -79 -82z" />
    <glyph glyph-name="Agrave" unicode="&#xc0;" horiz-adv-x="835" 
d="M295 -121q0 -76 -90 -80q-29 11 -36 17t-13 22q6 4 45 60t59 55q20 0 33 -51q2 -12 2 -23zM720 -150q-30 0 -82 -12t-73 -14q-23 42 -37 136t-18 108q6 12 6 20q0 23 -36 40q-36 16 -36 28t41 37q-10 12 -15 50t-19 50q-25 -23 -81 -30t-75 -19q4 -160 -49 -215
q-29 6 -43 -23q-20 -35 -35 -41l12 -14q-16 -14 -63 -12t-51 2l-13 36l115 1108q0 104 8 142q-4 92 41 114q29 -18 68 -18t113 16t102 17q100 0 90 -144q-8 -114 42 -308t50 -294q0 -31 -2 -61q-42 -25 -106 -30t-125 -9q-18 156 -39 324t-52 288l-53 -585q-6 -76 70 -76
q25 0 47 12q18 6 51 -27q0 -63 27 -75q34 23 178 78q27 -35 36 -119t13 -112t35 -160t18 -220q-30 12 -60 12zM508 1438q-25 0 -66 48t-55 56q33 39 33 48t-4 18l-129 61q2 37 57 38t105 1q23 -23 22 -63l-4 -62q0 -63 82 -72v-65q-16 -8 -41 -8z" />
    <glyph glyph-name="Aacute" unicode="&#xc1;" horiz-adv-x="835" 
d="M295 -121q0 -76 -90 -80q-29 11 -36 17t-13 22q6 4 45 60t59 55q20 0 33 -51q2 -12 2 -23zM720 -150q-30 0 -82 -12t-73 -14q-23 42 -37 136t-18 108q6 12 6 20q0 23 -36 40q-36 16 -36 28t41 37q-10 12 -15 50t-19 50q-25 -23 -81 -30t-75 -19q4 -160 -49 -215
q-29 6 -43 -23q-20 -35 -35 -41l12 -14q-16 -14 -63 -12t-51 2l-13 36l115 1108q0 104 8 142q-4 92 41 114q29 -18 68 -18t113 16t102 17q100 0 90 -144q-8 -114 42 -308t50 -294q0 -31 -2 -61q-42 -25 -106 -30t-125 -9q-18 156 -39 324t-52 288l-53 -585q-6 -76 70 -76
q25 0 47 12q18 6 51 -27q0 -63 27 -75q34 23 178 78q27 -35 36 -119t13 -112t35 -160t18 -220q-30 12 -60 12zM416 1590q0 -10 33 -48q-13 -8 -55 -56t-66 -48t-41 8v65q82 8 82 72l-4 62q0 41 22 63h96q63 -2 66 -39l-129 -61q-4 -8 -4 -18z" />
    <glyph glyph-name="Acircumflex" unicode="&#xc2;" horiz-adv-x="835" 
d="M295 -121q0 -76 -90 -80q-29 11 -36 17t-13 22q6 4 45 60t59 55q20 0 33 -51q2 -12 2 -23zM720 -150q-30 0 -82 -12t-73 -14q-23 42 -37 136t-18 108q6 12 6 20q0 23 -36 40q-36 16 -36 28t41 37q-10 12 -15 50t-19 50q-25 -23 -81 -30t-75 -19q4 -160 -49 -215
q-29 6 -43 -23q-20 -35 -35 -41l12 -14q-16 -14 -63 -12t-51 2l-13 36l115 1108q0 104 8 142q-4 92 41 114q29 -18 68 -18t113 16t102 17q100 0 90 -144q-8 -114 42 -308t50 -294q0 -31 -2 -61q-42 -25 -106 -30t-125 -9q-18 156 -39 324t-52 288l-53 -585q-6 -76 70 -76
q25 0 47 12q18 6 51 -27q0 -63 27 -75q34 23 178 78q27 -35 36 -119t13 -112t35 -160t18 -220q-30 12 -60 12zM389 1589q-39 0 -51 -131l-131 -4q37 29 104 160q51 94 129 94q37 0 88 -16q31 -53 66 -113t35 -115q-57 -27 -140 49t-100 76z" />
    <glyph glyph-name="Atilde" unicode="&#xc3;" horiz-adv-x="835" 
d="M295 -121q0 -76 -90 -80q-29 11 -36 17t-13 22q6 4 45 60t59 55q20 0 33 -51q2 -12 2 -23zM720 -150q-30 0 -82 -12t-73 -14q-23 42 -37 136t-18 108q6 12 6 20q0 23 -36 40q-36 16 -36 28t41 37q-10 12 -15 50t-19 50q-25 -23 -81 -30t-75 -19q4 -160 -49 -215
q-29 6 -43 -23q-20 -35 -35 -41l12 -14q-16 -14 -63 -12t-51 2l-13 36l115 1108q0 104 8 142q-4 92 41 114q29 -18 68 -18t113 16t102 17q100 0 90 -144q-8 -114 42 -308t50 -294q0 -31 -2 -61q-42 -25 -106 -30t-125 -9q-18 156 -39 324t-52 288l-53 -585q-6 -76 70 -76
q25 0 47 12q18 6 51 -27q0 -63 27 -75q34 23 178 78q27 -35 36 -119t13 -112t35 -160t18 -220q-30 12 -60 12zM564 1444q-42 0 -141 66t-149 75l-292 -72q-8 23 -9 46q0 94 101 120q51 25 104 25q88 0 238 -88t209 -88q102 0 170 166q65 -31 65 -87q0 -57 -49 -109t-111 -66
q-8 -4 -18 -4t-47 32q-29 -16 -71 -16z" />
    <glyph glyph-name="Adieresis" unicode="&#xc4;" horiz-adv-x="835" 
d="M295 -121q0 -76 -90 -80q-29 11 -36 17t-13 22q6 4 45 60t59 55q20 0 33 -51q2 -12 2 -23zM720 -150q-30 0 -82 -12t-73 -14q-23 42 -37 136t-18 108q6 12 6 20q0 23 -36 40q-36 16 -36 28t41 37q-10 12 -15 50t-19 50q-25 -23 -81 -30t-75 -19q4 -160 -49 -215
q-29 6 -43 -23q-20 -35 -35 -41l12 -14q-16 -14 -63 -12t-51 2l-13 36l115 1108q0 104 8 142q-4 92 41 114q29 -18 68 -18t113 16t102 17q100 0 90 -144q-8 -114 42 -308t50 -294q0 -31 -2 -61q-42 -25 -106 -30t-125 -9q-18 156 -39 324t-52 288l-53 -585q-6 -76 70 -76
q25 0 47 12q18 6 51 -27q0 -63 27 -75q34 23 178 78q27 -35 36 -119t13 -112t35 -160t18 -220q-30 12 -60 12zM354 1522q0 -45 -32 -64q-125 29 -135 29t-29 -4l-4 131l196 4q-4 -16 0 -52t4 -44zM660 1528q10 0 18 2l4 -66q-110 0 -140 4t-61 58v96l197 2l-66 -65
q38 -31 48 -31z" />
    <glyph glyph-name="Aring" unicode="&#xc5;" horiz-adv-x="835" 
d="M295 -121q0 -76 -90 -80q-29 12 -36 17.5t-13 21.5q6 4 45 60t59.5 55.5t32.5 -51.5q2 -12 2 -23zM289 1323q35 0 107 16t102 17q41 63 49 166q-20 88 -119 135q-23 4 -45 4q-133 0 -186 -113q4 -18 4 -43l-2 -59q0 -59 39 -94l26 -29h25zM720 -150q-30 0 -82 -12
t-73 -14q-23 42 -37 136t-18 108q6 12 6 20q0 23 -36 39.5t-36 28.5t41 37q-10 12 -15 50t-19 50q-25 -23 -81.5 -30t-74.5 -19q4 -160 -49 -215q-29 6 -43 -23q-20 -35 -35 -41l12 -14q-16 -14 -63 -12t-51 2l-13 36l115 1108q0 104 8 142q-4 80 31 106l-6 6
q-49 107 -49 159t22 85q27 63 137 109q31 4 58 4q132 0 200 -115q35 -120 -30 -233q59 -25 51 -138q-8 -112 42 -306t50 -294q0 -31 -2 -61q-42 -25 -106 -30t-125 -9q-18 156 -39 324t-52 288l-53 -585q-6 -76 70 -76q25 0 47 12q18 6 51 -27q0 -63 27 -75q34 23 178 78
q27 -35 36 -119t13 -112t35 -160t18 -220q-30 12 -60 12z" />
    <glyph glyph-name="Ccedilla" unicode="&#xc7;" horiz-adv-x="706" 
d="M287 569l-2 -131q0 -201 106 -258l64 68q2 -4 14 -14q11 -10 25 -11q14 0 24 4q27 -12 35 -47q0 -2 6 -61q-33 -45 -90 -80q-53 -27 -104 -53q106 -76 106 -205q0 -27 -4 -53q-33 -70 -113 -70q-51 0 -84 33l-32 33q39 34 48 34t17 -2l33 -32q2 4 38 39t27 63
q-14 33 -51 33q-8 0 -39 -4t-45 0q31 55 31 147t-70 211q-33 -45 -33 -51t5 -17q-98 139 -129 351q-18 129 -19 399q31 97 114 149t175 52t166 -31q74 -70 74 -104q-1 -11 -5 -23q-25 -23 -47 -47q-29 -25 -49 -25t-35 6q4 12 5 25q0 33 -74 102q-59 -4 -78 -49
q-8 -18 -15 -86t-32 -96q37 -66 37 -199zM653 360q0 -36 -20.5 -74t-59.5 -38q-8 0 -18 2q-45 61 -60 90t-10 74l164 2q4 -20 4 -56zM455 250v-2l2 2h-2z" />
    <glyph glyph-name="Egrave" unicode="&#xc8;" horiz-adv-x="712" 
d="M483 137q96 0 166 -14q-18 -39 -15 -105q3 -65 3 -84h-131q-70 0 -125 -14l-39 41q-16 -16 -12 -27q-10 2 -85 1t-108 12q-33 -35 -78 0q-16 12 -4 42t-8 44l27 395q0 94 -17 180q23 23 54 23t85 -37t56 -37l12 -14q2 6 16 55t35 61l13 -12q8 4 48 34t62 30t41 -25
q35 -18 46 -56t22 -75q-92 -4 -152 2q-14 -23 -41 -7t-39 -5q0 -37 -2 -173t15 -235h155zM584 1102q-35 0 -122 12t-108 14q-29 -43 -28 -120q0 -168 2 -146q30 -16 28 -69t0 -56q-14 -6 -14 -41q-24 8 -52 36t-26 54l-12 -12l-12 12q-16 -2 -56 16t-57 36q0 33 10 36
l-26 29l-13 -18q-27 213 -2 438q117 -18 299 -15t240 3q25 -23 24 -60l-22 -147q-18 -2 -53 -2zM352 1578q0 9 -4 17l-129 62q1 37 57 38t105 1q23 -23 22 -64l-4 -61q0 -63 82 -72v-65q-17 -8 -41 -8t-65 47q-41 48 -56 57q33 39 33 48z" />
    <glyph glyph-name="Eacute" unicode="&#xc9;" horiz-adv-x="712" 
d="M483 137q96 0 166 -14q-18 -39 -15 -105q3 -65 3 -84h-131q-70 0 -125 -14l-39 41q-16 -16 -12 -27q-10 2 -85 1t-108 12q-33 -35 -78 0q-16 12 -4 42t-8 44l27 395q0 94 -17 180q23 23 54 23t85 -37t56 -37l12 -14q2 6 16 55t35 61l13 -12q8 4 48 34t62 30t41 -25
q35 -18 46 -56t22 -75q-92 -4 -152 2q-14 -23 -41 -7t-39 -5q0 -37 -2 -173t15 -235h155zM584 1102q-35 0 -122 12t-108 14q-29 -43 -28 -120q0 -168 2 -146q30 -16 28 -69t0 -56q-14 -6 -14 -41q-24 8 -52 36t-26 54l-12 -12l-12 12q-16 -2 -56 16t-57 36q0 33 10 36
l-26 29l-13 -18q-27 213 -2 438q117 -18 299 -15t240 3q25 -23 24 -60l-22 -147q-18 -2 -53 -2zM348 1578q0 -9 33 -48q-14 -8 -55 -56q-42 -48 -66 -49q-24 0 -41 9v65q82 8 82 72l-4 61q0 41 22 64h97q63 -2 65 -39l-129 -62q-4 -8 -4 -17z" />
    <glyph glyph-name="Ecircumflex" unicode="&#xca;" horiz-adv-x="712" 
d="M483 137q96 0 166 -14q-18 -39 -15 -105q3 -65 3 -84h-131q-70 0 -125 -14l-39 41q-16 -16 -12 -27q-10 2 -85 1t-108 12q-33 -35 -78 0q-16 12 -4 42t-8 44l27 395q0 94 -17 180q23 23 54 23t85 -37t56 -37l12 -14q2 6 16 55t35 61l13 -12q8 4 48 34t62 30t41 -25
q35 -18 46 -56t22 -75q-92 -4 -152 2q-14 -23 -41 -7t-39 -5q0 -37 -2 -173t15 -235h155zM584 1102q-35 0 -122 12t-108 14q-29 -43 -28 -120q0 -168 2 -146q30 -16 28 -69t0 -56q-14 -6 -14 -41q-24 8 -52 36t-26 54l-12 -12l-12 12q-16 -2 -56 16t-57 36q0 33 10 36
l-26 29l-13 -18q-27 213 -2 438q117 -18 299 -15t240 3q25 -23 24 -60l-22 -147q-18 -2 -53 -2zM322 1577q-39 0 -52 -131l-131 -4q37 29 105 160q51 94 129 94q37 0 88 -17q31 -53 65 -113t35 -114q-57 -27 -140 49t-99 76z" />
    <glyph glyph-name="Edieresis" unicode="&#xcb;" horiz-adv-x="712" 
d="M483 137q96 0 166 -14q-18 -39 -15 -105q3 -65 3 -84h-131q-70 0 -125 -14l-39 41q-16 -16 -12 -27q-10 2 -85 1t-108 12q-33 -35 -78 0q-16 12 -4 42t-8 44l27 395q0 94 -17 180q23 23 54 23t85 -37t56 -37l12 -14q2 6 16 55t35 61l13 -12q8 4 48 34t62 30t41 -25
q35 -18 46 -56t22 -75q-92 -4 -152 2q-14 -23 -41 -7t-39 -5q0 -37 -2 -173t15 -235h155zM584 1102q-35 0 -122 12t-108 14q-29 -43 -28 -120q0 -168 2 -146q30 -16 28 -69t0 -56q-14 -6 -14 -41q-24 8 -52 36t-26 54l-12 -12l-12 12q-16 -2 -56 16t-57 36q0 33 10 36
l-26 29l-13 -18q-27 213 -2 438q117 -18 299 -15t240 3q25 -23 24 -60l-22 -147q-18 -2 -53 -2zM287 1489q0 -45 -33 -64q-125 29 -135 29t-29 -4l-4 131l197 4q-4 -16 0 -52t4 -44zM593 1495q9 0 17 2l4 -65q-110 0 -140 4t-60 57v96l196 2l-65 -65q39 -31 48 -31z" />
    <glyph glyph-name="Igrave" unicode="&#xcc;" horiz-adv-x="444" 
d="M268 -41q-20 0 -49 10q-14 18 -37 19l-47 -6q-25 0 -31 34q12 39 13 86l-17 193q0 29 6 53q0 55 -3 278t16 359l10 12q-12 12 -12 27l14 53q0 14 -12 25q12 16 12 37l-14 80q0 20 12 36l-10 13q12 6 10 26t0 25q16 4 35 4l123 -16q37 0 59 24l39 -24l-39 -1020l-12 -13
q24 -16 8 -51t4 -51q-6 -12 -14 -131q-6 -82 -64 -82zM332 1434q-25 0 -66 48t-55 56q33 39 33 48t-4 18l-129 61q2 37 57 38t104 1q23 -23 23 -64l-4 -61q0 -63 82 -72v-65q-16 -8 -41 -8z" />
    <glyph glyph-name="Iacute" unicode="&#xcd;" horiz-adv-x="444" 
d="M268 -41q-20 0 -49 10q-14 18 -37 19l-47 -6q-25 0 -31 34q12 39 13 86l-17 193q0 29 6 53q0 55 -3 278t16 359l10 12q-12 12 -12 27l14 53q0 14 -12 25q12 16 12 37l-14 80q0 20 12 36l-10 13q12 6 10 26t0 25q16 4 35 4l123 -16q37 0 59 24l39 -24l-39 -1020l-12 -13
q24 -16 8 -51t4 -51q-6 -12 -14 -131q-6 -82 -64 -82zM240 1586q0 -10 32 -48q-14 -8 -55 -56t-65 -48t-41 8v65q82 8 82 72l-5 61q0 41 23 64h96q63 -2 66 -39l-129 -61q-4 -8 -4 -18z" />
    <glyph glyph-name="Icircumflex" unicode="&#xce;" horiz-adv-x="444" 
d="M268 -41q-20 0 -49 10q-14 18 -37 19l-47 -6q-25 0 -31 34q12 39 13 86l-17 193q0 29 6 53q0 55 -3 278t16 359l10 12q-12 12 -12 27l14 53q0 14 -12 25q12 16 12 37l-14 80q0 20 12 36l-10 13q12 6 10 26t0 25q16 4 35 4l123 -16q37 0 59 24l39 -24l-39 -1020l-12 -13
q24 -16 8 -51t4 -51q-6 -12 -14 -131q-6 -82 -64 -82zM213 1585q-39 0 -51 -131l-131 -4q37 29 104 160q51 94 129 94q37 0 88 -16q31 -53 66 -113t35 -115q-57 -27 -141 49t-99 76z" />
    <glyph glyph-name="Idieresis" unicode="&#xcf;" horiz-adv-x="444" 
d="M268 -41q-20 0 -49 10q-14 18 -37 19l-47 -6q-25 0 -31 34q12 39 13 86l-17 193q0 29 6 53q0 55 -3 278t16 359l10 12q-12 12 -12 27l14 53q0 14 -12 25q12 16 12 37l-14 80q0 20 12 36l-10 13q12 6 10 26t0 25q16 4 35 4l123 -16q37 0 59 24l39 -24l-39 -1020l-12 -13
q24 -16 8 -51t4 -51q-6 -12 -14 -131q-6 -82 -64 -82zM178 1497q0 -45 -33 -63q-125 28 -135 28t-28 -4l-5 131l197 4q-4 -16 0 -52t4 -44zM484 1503q9 0 18 2l4 -65q-110 0 -140 4t-61 57v96l197 2l-66 -65q39 -31 48 -31z" />
    <glyph glyph-name="Ntilde" unicode="&#xd1;" horiz-adv-x="776" 
d="M192 137q22 0 37 -8q16 16 27 12q33 -15 19 -61t6 -66q-51 -14 -64 -18q-35 -14 -37 -43l-76 61q-6 -8 -41 -12q-12 16 -11 55t-1 47q25 0 72 16t69 17zM506 1217q0 18 14 48t17 38q15 5 34 -27q90 25 156 2l-12 -1059l12 -14v-225q-10 -37 -37 -37l-67 12q-20 0 -35 -14
q-27 10 -56 23t-36 40q55 78 55 152q0 18 -2 37q16 129 -25 180l-14 -13q-8 12 -18 26t-24 15q-14 0 -22 -4q10 61 -64 101t-87 67q-29 -49 -13 -159t11 -136q-10 -72 -100 -88q-12 12 -48 10t-43 1q-45 551 -39 1110q37 14 116 12t116 12l78 -137q16 -117 88 -244v-90
q-37 25 -81 69l-85 85q2 -23 -27 -28t-28 -19q0 -6 4 -17q78 -48 166 -108t88 -146q0 -12 -2 -26l41 -43q12 10 12 18q0 9 -13 25t-12 26v174q0 104 -16 168q14 20 14 43l-16 101v39zM654 1430q-10 0 -48 32q-28 -16 -70 -16t-142 66t-148 75l-293 -71q-8 23 -8 45
q0 94 100 120q51 25 105 25q88 0 238 -88t208 -88q102 0 170 166q66 -31 66 -87q0 -57 -50 -109q-49 -52 -110 -66q-8 -4 -18 -4z" />
    <glyph glyph-name="Ograve" unicode="&#xd2;" horiz-adv-x="839" 
d="M702 -10l-110 8q-22 0 -41 -23l-27 -51q-10 12 -44 12t-44 15q-6 -14 -21 -14h-30q2 10 -14 26q-8 -16 -41 -15t-23 3l-12 12q-15 -16 -27 -11t-12 36q63 14 78 61q-12 29 -53 38t-50 15l-75 -18q-29 0 -39 41q-6 14 -6 25q-1 20 37 26t61 24t65 52q42 33 84 29
q12 -23 20 -84t26 -93t69 -41l19 46q8 27 28 30q18 1 51 -21t49 -22t31 6q19 -18 33 -60t18 -52zM658 168q-12 0 -35 -18q-37 18 -72 37t-31 65l17 10q-21 100 -31 418t-72 465q-16 -6 -16 -25l2 -26l-39 63q-12 -12 -11 -48t-1 -42q-27 4 -39 -14t-25 -37l39 -662l-27 -26
l-12 12q-8 -4 -84 -70q-45 -39 -106 -32q-20 130 -42 280t-22 264q0 305 166 451q17 5 77 27t92 22t58 -12q4 16 24 16t26 2q20 -35 65 -31q111 -80 160 -221q37 -104 44 -260t13 -295l12 -12l3 2q-3 -19 -17 -157t-35 -205q-12 -4 -22 -5q-20 0 -34 32q-13 32 -25 32z
M510 1391q-26 0 -66 48t-55 56q33 39 33 48t-4 18l-129 61q2 37 57 38t105 1q23 -23 22 -64l-4 -61q0 -63 82 -72v-65q-16 -8 -41 -8z" />
    <glyph glyph-name="Oacute" unicode="&#xd3;" horiz-adv-x="839" 
d="M702 -10l-110 8q-22 0 -41 -23l-27 -51q-10 12 -44 12t-44 15q-6 -14 -21 -14h-30q2 10 -14 26q-8 -16 -41 -15t-23 3l-12 12q-15 -16 -27 -11t-12 36q63 14 78 61q-12 29 -53 38t-50 15l-75 -18q-29 0 -39 41q-6 14 -6 25q-1 20 37 26t61 24t65 52q42 33 84 29
q12 -23 20 -84t26 -93t69 -41l19 46q8 27 28 30q18 1 51 -21t49 -22t31 6q19 -18 33 -60t18 -52zM658 168q-12 0 -35 -18q-37 18 -72 37t-31 65l17 10q-21 100 -31 418t-72 465q-16 -6 -16 -25l2 -26l-39 63q-12 -12 -11 -48t-1 -42q-27 4 -39 -14t-25 -37l39 -662l-27 -26
l-12 12q-8 -4 -84 -70q-45 -39 -106 -32q-20 130 -42 280t-22 264q0 305 166 451q17 5 77 27t92 22t58 -12q4 16 24 16t26 2q20 -35 65 -31q111 -80 160 -221q37 -104 44 -260t13 -295l12 -12l3 2q-3 -19 -17 -157t-35 -205q-12 -4 -22 -5q-20 0 -34 32q-13 32 -25 32z
M418 1544q0 -10 33 -49q-13 -8 -55 -56t-66 -48t-41 8v65q82 8 82 72l-4 61q0 41 22 64h96q63 -2 66 -39l-129 -61q-4 -7 -4 -17z" />
    <glyph glyph-name="Ocircumflex" unicode="&#xd4;" horiz-adv-x="839" 
d="M702 -10l-110 8q-22 0 -41 -23l-27 -51q-10 12 -44 12t-44 15q-6 -14 -21 -14h-30q2 10 -14 26q-8 -16 -41 -15t-23 3l-12 12q-15 -16 -27 -11t-12 36q63 14 78 61q-12 29 -53 38t-50 15l-75 -18q-29 0 -39 41q-6 14 -6 25q-1 20 37 26t61 24t65 52q42 33 84 29
q12 -23 20 -84t26 -93t69 -41l19 46q8 27 28 30q18 1 51 -21t49 -22t31 6q19 -18 33 -60t18 -52zM658 168q-12 0 -35 -18q-37 18 -72 37t-31 65l17 10q-21 100 -31 418t-72 465q-16 -6 -16 -25l2 -26l-39 63q-12 -12 -11 -48t-1 -42q-27 4 -39 -14t-25 -37l39 -662l-27 -26
l-12 12q-8 -4 -84 -70q-45 -39 -106 -32q-20 130 -42 280t-22 264q0 305 166 451q17 5 77 27t92 22t58 -12q4 16 24 16t26 2q20 -35 65 -31q111 -80 160 -221q37 -104 44 -260t13 -295l12 -12l3 2q-3 -19 -17 -157t-35 -205q-12 -4 -22 -5q-20 0 -34 32q-13 32 -25 32z
M391 1542q-39 0 -51 -131l-131 -4q37 29 104 160q51 94 129 94q37 0 88 -16q31 -53 66 -113t35 -115q-57 -27 -140 49t-100 76z" />
    <glyph glyph-name="Otilde" unicode="&#xd5;" horiz-adv-x="839" 
d="M702 -10l-110 8q-22 0 -41 -23l-27 -51q-10 12 -44 12t-44 15q-6 -14 -21 -14h-30q2 10 -14 26q-8 -16 -41 -15t-23 3l-12 12q-15 -16 -27 -11t-12 36q63 14 78 61q-12 29 -53 38t-50 15l-75 -18q-29 0 -39 41q-6 14 -6 25q-1 20 37 26t61 24t65 52q42 33 84 29
q12 -23 20 -84t26 -93t69 -41l19 46q8 27 28 30q18 1 51 -21t49 -22t31 6q19 -18 33 -60t18 -52zM658 168q-12 0 -35 -18q-37 18 -72 37t-31 65l17 10q-21 100 -31 418t-72 465q-16 -6 -16 -25l2 -26l-39 63q-12 -12 -11 -48t-1 -42q-27 4 -39 -14t-25 -37l39 -662l-27 -26
l-12 12q-8 -4 -84 -70q-45 -39 -106 -32q-20 130 -42 280t-22 264q0 305 166 451q17 5 77 27t92 22t58 -12q4 16 24 16t26 2q20 -35 65 -31q111 -80 160 -221q37 -104 44 -260t13 -295l12 -12l3 2q-3 -19 -17 -157t-35 -205q-12 -4 -22 -5q-20 0 -34 32q-13 32 -25 32z
M684 1391q-10 0 -47 32q-29 -16 -71 -16q-42 1 -140 67q-100 66 -150 74l-292 -71q-8 23 -9 45q0 94 101 120q51 25 104 25q88 0 238 -88t209 -88q102 0 170 166q65 -31 65 -87t-49 -108t-111 -67q-8 -4 -18 -4z" />
    <glyph glyph-name="Odieresis" unicode="&#xd6;" horiz-adv-x="839" 
d="M702 -10l-110 8q-22 0 -41 -23l-27 -51q-10 12 -44 12t-44 15q-6 -14 -21 -14h-30q2 10 -14 26q-8 -16 -41 -15t-23 3l-12 12q-15 -16 -27 -11t-12 36q63 14 78 61q-12 29 -53 38t-50 15l-75 -18q-29 0 -39 41q-6 14 -6 25q-1 20 37 26t61 24t65 52q42 33 84 29
q12 -23 20 -84t26 -93t69 -41l19 46q8 27 28 30q18 1 51 -21t49 -22t31 6q19 -18 33 -60t18 -52zM658 168q-12 0 -35 -18q-37 18 -72 37t-31 65l17 10q-21 100 -31 418t-72 465q-16 -6 -16 -25l2 -26l-39 63q-12 -12 -11 -48t-1 -42q-27 4 -39 -14t-25 -37l39 -662l-27 -26
l-12 12q-8 -4 -84 -70q-45 -39 -106 -32q-20 130 -42 280t-22 264q0 305 166 451q17 5 77 27t92 22t58 -12q4 16 24 16t26 2q20 -35 65 -31q111 -80 160 -221q37 -104 44 -260t13 -295l12 -12l3 2q-3 -19 -17 -157t-35 -205q-12 -4 -22 -5q-20 0 -34 32q-13 32 -25 32z
M356 1454q0 -45 -32 -63q-125 29 -135 29t-29 -5l-4 131l196 4q-4 -16 0 -52t4 -44zM662 1460q10 0 18 2l4 -65q-110 0 -140 4t-61 57v96l197 2l-66 -65q38 -31 48 -31z" />
    <glyph glyph-name="multiply" unicode="&#xd7;" horiz-adv-x="798" 
d="M264 649q0 -28 40 -38.5t50 -19.5t-16 -40q-39 -16 -143 -119l-74 70l45 49q29 29 55 24q-11 23 15 49t28 25zM643 481l-37 -39q-23 -25 -47 -18q-18 20 -47 73.5t-49 75.5q-29 27 -68 35l-2 33q4 -11 13 -16q12 -14 75 -15zM393 653v13l-100 14q10 33 -7 49t-49 35.5
t-47 32.5q-10 12 -16 24l-59 56l37 41q23 25 49 18q32 -20 77.5 -90.5t83.5 -91.5q52 24 106 76t79 114l88 -86q-25 -16 -61 -60t-48 -55q-49 -51 -104 -49q-13 -10 -29 -41zM393 643v-2v2z" />
    <glyph glyph-name="Oslash" unicode="&#xd8;" horiz-adv-x="839" 
d="M231 102q-10 -2 -30 -8l61 -12q2 2 6 4l-4 4q-27 8 -33 12zM434 1145q-16 -6 -16 -25l2 -26l-39 63q-12 -12 -11 -48t-1 -42q-27 4 -39 -14l-25 -37l27 -451l141 449q-16 76 -39 131zM702 -10l-110 8q-22 0 -41 -23l-27 -51q-10 12 -44 12.5t-44 14.5q-6 -14 -24 -14h-27
q2 10 -14 26q-8 -16 -31 -15t-31 1l-4 -23h-8q-23 -66 -35 -92q-24 -6 -50 -6t-45.5 33t-37.5 67q15 23 23 79t28 81q-16 -4 -24 -4q-29 0 -39 41q-6 14 -6 25q0 20 37.5 26t51.5 18t36 27q4 33 18 78q-14 -12 -33 -29q-45 -39 -106 -32q-20 130 -42 280t-22 264
q0 305 166 451q17 5 77 27t92 22t58 -12q4 16 24.5 16t25.5 2q20 -35 65 -31l4 -4q-12 23 -24 47q16 23 24 84.5t37 83.5l168 -30q-32 -37 -56 -119t-40 -113q-23 -6 -41 -6h-8q61 -68 97 -168t44 -272l12 -279l12 -12l3 2q-3 -19 -17 -157t-35 -205q-12 -4 -22 -5
q-20 0 -33.5 32t-26 32t-34.5 -18q-37 18 -72 37.5t-31 64.5l17 10q-20 100 -33 445q-2 18 -2 34q-82 -186 -82 -311q0 -39 6 -80q-33 -45 -55 -110q4 -18 10 -61q5 -43 23 -75t69 -41l19 46q8 27 28 30q18 0 51 -21.5t49 -21.5t31 6q19 -18 33 -60t18 -52z" />
    <glyph glyph-name="Ugrave" unicode="&#xd9;" horiz-adv-x="968" 
d="M236 598q0 -33 36 -128t29 -157q10 -5 15 -31t24 -34q12 14 12 52t-12 50l12 12q-8 4 -14 39q4 15 20 15h31q25 -46 26 -140t27 -141l50 49q24 -23 30 -88t33 -88h2v-26q0 -18 -11 -24t-16 -5q-12 0 -20 18q-14 23 -18 27q-12 -31 -42 -35t-61 -4q-51 88 -59 129
q-21 -21 -10 -70q10 -49 10 -59q-219 113 -219 369q10 22 10 52q-1 30 -15 89t-6 121t8 254t3 221q14 18 14 43l-19 119q0 16 5 30l-15 13q81 43 90 24q10 2 58 0t84 15q30 -31 30 -81t-20 -161q32 -27 22 -84t2 -84q-80 -31 -79 -76q0 -12 4 -26l-13 -15q10 -14 10 -28
t-26 -49q-27 -35 -20 -58q-2 -16 -2 -49zM553 174h37q-2 -8 14 -24l39 112l49 1047q33 16 99 10t92 4l41 -12l2 -2q-14 -166 -43 -496l12 -14q-27 -76 -27 -195l9 -242q0 -219 -105 -315q-33 -11 -70 -27t-47 -47q-37 -2 -63 43q-18 41 -39 82v76zM510 1580q0 9 -4 17
l-129 62q2 37 57 38t105 1q23 -23 22 -64l-4 -61q0 -63 82 -72v-65q-16 -8 -41 -8q-26 0 -66 47q-40 48 -55 57q33 39 33 48z" />
    <glyph glyph-name="Uacute" unicode="&#xda;" horiz-adv-x="968" 
d="M236 598q0 -33 36 -128t29 -157q10 -5 15 -31t24 -34q12 14 12 52t-12 50l12 12q-8 4 -14 39q4 15 20 15h31q25 -46 26 -140t27 -141l50 49q24 -23 30 -88t33 -88h2v-26q0 -18 -11 -24t-16 -5q-12 0 -20 18q-14 23 -18 27q-12 -31 -42 -35t-61 -4q-51 88 -59 129
q-21 -21 -10 -70q10 -49 10 -59q-219 113 -219 369q10 22 10 52q-1 30 -15 89t-6 121t8 254t3 221q14 18 14 43l-19 119q0 16 5 30l-15 13q81 43 90 24q10 2 58 0t84 15q30 -31 30 -81t-20 -161q32 -27 22 -84t2 -84q-80 -31 -79 -76q0 -12 4 -26l-13 -15q10 -14 10 -28
t-26 -49q-27 -35 -20 -58q-2 -16 -2 -49zM553 174h37q-2 -8 14 -24l39 112l49 1047q33 16 99 10t92 4l41 -12l2 -2q-14 -166 -43 -496l12 -14q-27 -76 -27 -195l9 -242q0 -219 -105 -315q-33 -11 -70 -27t-47 -47q-37 -2 -63 43q-18 41 -39 82v76zM506 1580q0 -9 33 -48
q-13 -8 -55 -56t-66 -49q-24 0 -41 9v65q82 8 82 72l-4 61q0 41 22 64h96q63 -2 66 -39l-129 -62q-4 -8 -4 -17z" />
    <glyph glyph-name="Ucircumflex" unicode="&#xdb;" horiz-adv-x="968" 
d="M236 598q0 -33 36 -128t29 -157q10 -5 15 -31t24 -34q12 14 12 52t-12 50l12 12q-8 4 -14 39q4 15 20 15h31q25 -46 26 -140t27 -141l50 49q24 -23 30 -88t33 -88h2v-26q0 -18 -11 -24t-16 -5q-12 0 -20 18q-14 23 -18 27q-12 -31 -42 -35t-61 -4q-51 88 -59 129
q-21 -21 -10 -70q10 -49 10 -59q-219 113 -219 369q10 22 10 52q-1 30 -15 89t-6 121t8 254t3 221q14 18 14 43l-19 119q0 16 5 30l-15 13q81 43 90 24q10 2 58 0t84 15q30 -31 30 -81t-20 -161q32 -27 22 -84t2 -84q-80 -31 -79 -76q0 -12 4 -26l-13 -15q10 -14 10 -28
t-26 -49q-27 -35 -20 -58q-2 -16 -2 -49zM553 174h37q-2 -8 14 -24l39 112l49 1047q33 16 99 10t92 4l41 -12l2 -2q-14 -166 -43 -496l12 -14q-27 -76 -27 -195l9 -242q0 -219 -105 -315q-33 -11 -70 -27t-47 -47q-37 -2 -63 43q-18 41 -39 82v76zM479 1579q-39 0 -51 -131
l-131 -4q37 29 104 160q51 94 129 94q37 0 88 -17q31 -53 66 -113t35 -114q-57 -27 -140 49t-100 76z" />
    <glyph glyph-name="Udieresis" unicode="&#xdc;" horiz-adv-x="968" 
d="M236 598q0 -33 36 -128t29 -157q10 -5 15 -31t24 -34q12 14 12 52t-12 50l12 12q-8 4 -14 39q4 15 20 15h31q25 -46 26 -140t27 -141l50 49q24 -23 30 -88t33 -88h2v-26q0 -18 -11 -24t-16 -5q-12 0 -20 18q-14 23 -18 27q-12 -31 -42 -35t-61 -4q-51 88 -59 129
q-21 -21 -10 -70q10 -49 10 -59q-219 113 -219 369q10 22 10 52q-1 30 -15 89t-6 121t8 254t3 221q14 18 14 43l-19 119q0 16 5 30l-15 13q81 43 90 24q10 2 58 0t84 15q30 -31 30 -81t-20 -161q32 -27 22 -84t2 -84q-80 -31 -79 -76q0 -12 4 -26l-13 -15q10 -14 10 -28
t-26 -49q-27 -35 -20 -58q-2 -16 -2 -49zM553 174h37q-2 -8 14 -24l39 112l49 1047q33 16 99 10t92 4l41 -12l2 -2q-14 -166 -43 -496l12 -14q-27 -76 -27 -195l9 -242q0 -219 -105 -315q-33 -11 -70 -27t-47 -47q-37 -2 -63 43q-18 41 -39 82v76zM444 1491q0 -45 -32 -64
q-125 29 -135 29t-29 -4l-4 131l196 4q-4 -16 0 -52t4 -44zM750 1497q10 0 18 2l4 -65q-110 0 -140 4t-61 57v96l197 2l-66 -65q38 -31 48 -31z" />
    <glyph glyph-name="Yacute" unicode="&#xdd;" horiz-adv-x="798" 
d="M204 1286q85 0 118 -45q12 -33 45 -203t94 -243q33 78 52 191t36 218q-39 23 -35 74q16 4 33 4q51 0 110 -47q43 -41 88 -82h3q4 -10 4 -16q0 -13 -22 -19t-25 -10q-35 -6 -45 -51t-27 -56q-4 -41 -27 -137q-22 -96 -22 -148t22 -95q-16 -32 -39 -164q-12 3 -26 -15
t-19 -20q-8 -16 -8 -37t25 -57t25 -58q0 -21 -32 -45q0 -8 5 -33t-2 -28q-27 -30 -27 -60t41 -112q-10 -14 -66 -15l-104 5q-10 63 -10 153l8 275q0 90 -10 155q-18 -18 -15 -33q-43 2 -57 58q-12 45 -25 90q-36 98 -78 204t-90 181q-14 23 -20 88t-35 90q72 43 157 43z
M397 1542q0 -10 33 -49q-14 -8 -55 -56t-65 -48t-42 8v65q82 8 82 72l-4 61q0 41 23 64h96q63 -2 65 -39l-129 -61q-4 -7 -4 -17z" />
    <glyph glyph-name="germandbls" unicode="&#xdf;" horiz-adv-x="798" 
d="M94 186q0 86 33 136q-43 39 -37 65l197 35l10 -424l-197 -2q4 34 -1 102t-5 88zM274 1010q5 -41 5 -258q6 -129 40 -199q-14 -6 -57 -40q-42 -34 -66 -34t-40 6q-52 33 -64 87t-6 143.5t-2 126.5l61 69q-23 27 -77 64q14 6 75 67l-65 62l127 168q-12 25 -43 28h-56
q41 143 236 144q66 0 254 -35q74 -66 74 -217l-4 -150q0 -51 6 -88q-31 8 -66 -36l33 -29l-96 -70q8 -16 129 -166q78 -98 73 -188q-29 6 -63 -31t-23 -48l35.5 -35.5t50.5 -16.5q-16 -33 -27 -115t-30 -115q-29 -55 -96 -67q-47 -37 -197 -37l-2 127q12 -4 33 -4t47.5 24.5
t50.5 49.5l-4 131q27 -6 50 20t44 49q-80 10 -89 86t-13 148q-16 78 -100 86q92 221 92 373q0 100 -37 184q-6 4 -39 43q-23 25 -37 25t-22 -3q-84 -31 -93 -94q-4 -23 12 -110t-14 -125z" />
    <glyph glyph-name="agrave" unicode="&#xe0;" horiz-adv-x="735" 
d="M376 174q16 0 27 6l15 332q-29 -33 -60 -31q-35 -173 -30 -241q10 -20 21 -43t27 -23zM51 215q0 27 6 55q4 209 152 285q68 47 164 47q16 0 30 -2q17 16 61 16h46l12 -16q2 2 56 92t98 119v-283q0 -180 -17 -288q13 -6 13 -30v-42l10 -131q0 -31 -8 -51q-25 29 -68 28
l-110 -14q-51 0 -62 59q-94 -74 -196 -73q-39 0 -74 12q-113 129 -113 217zM489 682q-31 0 -37 58t-16 69q4 53 -33 80q-72 -16 -120 -168l-15 16q-61 -16 -98 -16t-80 16q14 117 27 152q29 78 104 102q63 10 197 31q33 -10 76 -31q4 5 25 17t21 22t-3 21q14 4 32 -15
l-14 -14q65 -90 65 -139t-20 -88q-25 -9 -37 -51q-18 -62 -74 -62zM457 1161q-25 0 -66 48t-55 57q33 39 33 48t-4 17l-129 62q2 37 57 38t104 1q23 -23 23 -64l-4 -61q0 -63 82 -72v-66q-16 -8 -41 -8z" />
    <glyph glyph-name="aacute" unicode="&#xe1;" horiz-adv-x="735" 
d="M376 174q16 0 27 6l15 332q-29 -33 -60 -31q-35 -173 -30 -241q10 -20 21 -43t27 -23zM51 215q0 27 6 55q4 209 152 285q68 47 164 47q16 0 30 -2q17 16 61 16h46l12 -16q2 2 56 92t98 119v-283q0 -180 -17 -288q13 -6 13 -30v-42l10 -131q0 -31 -8 -51q-25 29 -68 28
l-110 -14q-51 0 -62 59q-94 -74 -196 -73q-39 0 -74 12q-113 129 -113 217zM489 682q-31 0 -37 58t-16 69q4 53 -33 80q-72 -16 -120 -168l-15 16q-61 -16 -98 -16t-80 16q14 117 27 152q29 78 104 102q63 10 197 31q33 -10 76 -31q4 5 25 17t21 22t-3 21q14 4 32 -15
l-14 -14q65 -90 65 -139t-20 -88q-25 -9 -37 -51q-18 -62 -74 -62zM365 1314q0 -9 32 -48q-14 -8 -55 -56q-42 -48 -66 -49q-24 0 -40 8v66q82 8 81 72l-4 61q0 41 23 64h96q63 -2 66 -39l-129 -62q-4 -8 -4 -17z" />
    <glyph glyph-name="acircumflex" unicode="&#xe2;" horiz-adv-x="735" 
d="M376 174q16 0 27 6l15 332q-29 -33 -60 -31q-35 -173 -30 -241q10 -20 21 -43t27 -23zM51 215q0 27 6 55q4 209 152 285q68 47 164 47q16 0 30 -2q17 16 61 16h46l12 -16q2 2 56 92t98 119v-283q0 -180 -17 -288q13 -6 13 -30v-42l10 -131q0 -31 -8 -51q-25 29 -68 28
l-110 -14q-51 0 -62 59q-94 -74 -196 -73q-39 0 -74 12q-113 129 -113 217zM489 682q-31 0 -37 58t-16 69q4 53 -33 80q-72 -16 -120 -168l-15 16q-61 -16 -98 -16t-80 16q14 117 27 152q29 78 104 102q63 10 197 31q33 -10 76 -31q4 5 25 17t21 22t-3 21q14 4 32 -15
l-14 -14q65 -90 65 -139t-20 -88q-25 -9 -37 -51q-18 -62 -74 -62zM338 1313q-39 0 -51 -131l-131 -4q37 29 104 159q51 94 129 95q37 0 88 -17q31 -53 66 -113t35 -114q-56 -27 -140 49t-100 76z" />
    <glyph glyph-name="atilde" unicode="&#xe3;" horiz-adv-x="735" 
d="M376 174q16 0 27 6l15 332q-29 -33 -60 -31q-35 -173 -30 -241q10 -20 21 -43t27 -23zM51 215q0 27 6 55q4 209 152 285q68 47 164 47q16 0 30 -2q17 16 61 16h46l12 -16q2 2 56 92t98 119v-283q0 -180 -17 -288q13 -6 13 -30v-42l10 -131q0 -31 -8 -51q-25 29 -68 28
l-110 -14q-51 0 -62 59q-94 -74 -196 -73q-39 0 -74 12q-113 129 -113 217zM489 682q-31 0 -37 58t-16 69q4 53 -33 80q-72 -16 -120 -168l-15 16q-61 -16 -98 -16t-80 16q14 117 27 152q29 78 104 102q63 10 197 31q33 -10 76 -31q4 5 25 17t21 22t-3 21q14 4 32 -15
l-14 -14q65 -90 65 -139t-20 -88q-25 -9 -37 -51q-18 -62 -74 -62zM809 1340q0 -56 -49 -108t-111 -67q-8 -4 -18 -4t-47 33q-29 -16 -71 -16t-141 66t-149 75l-293 -72q-8 23 -8 45q0 94 101 121q51 25 104 25q88 0 238 -88t208 -88q102 -1 170 165q66 -31 66 -87z" />
    <glyph glyph-name="adieresis" unicode="&#xe4;" horiz-adv-x="735" 
d="M376 174q16 0 27 6l15 332q-29 -33 -60 -31q-35 -173 -30 -241q10 -20 21 -43t27 -23zM51 215q0 27 6 55q4 209 152 285q68 47 164 47q16 0 30 -2q17 16 61 16h46l12 -16q2 2 56 92t98 119v-283q0 -180 -17 -288q13 -6 13 -30v-42l10 -131q0 -31 -8 -51q-25 29 -68 28
l-110 -14q-51 0 -62 59q-94 -74 -196 -73q-39 0 -74 12q-113 129 -113 217zM489 682q-31 0 -37 58t-16 69q4 53 -33 80q-72 -16 -120 -168l-15 16q-61 -16 -98 -16t-80 16q14 117 27 152q29 78 104 102q63 10 197 31q33 -10 76 -31q4 5 25 17t21 22t-3 21q14 4 32 -15
l-14 -14q65 -90 65 -139t-20 -88q-25 -9 -37 -51q-18 -62 -74 -62zM303 1225q0 -45 -33 -64q-125 29 -135 29t-29 -4l-4 131l197 4q-4 -16 0 -52t4 -44zM609 1231q9 0 18 2l4 -66q-109 0 -139 4t-62 58v96l197 2l-66 -65q39 -31 48 -31z" />
    <glyph glyph-name="aring" unicode="&#xe5;" horiz-adv-x="774" 
d="M473 1118l-98 33q2 -27 6 -56.5t31 -41.5zM307 -8q0 -129 -82 -129q-23 0 -49 12q-109 96 -108 236q0 27 4 55q20 8 39 8q51 0 67 -89t44 -89t81 41q4 -23 4 -45zM127 262q0 29 39 68q43 72 177 91t177 79q-23 29 -34 110.5t-27 108.5q-29 49 -107 39q-39 -49 -76 -99
q-35 -41 -90 -41q-25 0 -59 7q37 199 160 229l162 2q4 -8 4 -17t-37 -48q19 -11 86 -0.5t94 10.5q86 0 86 -76q0 -12 -2 -27q4 -63 4 -112q0 -221 -92 -346q20 -37 98 -29q-25 -35 -28 -92v-105q-6 6 -136 70q-70 35 -70 80t38 106l-33 33l28 33q-12 25 -37 30q3 -1 -61 -1
q-115 -94 -123 -230q-6 29 -73.5 63.5t-67.5 63.5zM563 1142q0 -66 -42 -115.5t-98 -49.5t-110 43q-35 106 -35 126t3 36q25 66 93 68t132 3q57 -45 57 -111z" />
    <glyph glyph-name="ae.001" unicode="&#xe6;" horiz-adv-x="1159" 
d="M376 174q16 0 27 6l15 332q-29 -33 -60 -31q-35 -173 -30 -241l20 -43q12 -23 28 -23zM872 709q0 29 -15 95t-13 97l-15 -16q-14 -2 -32 16v-47q-33 -33 -31 -104v-119l61 -2q45 23 45 80zM51 215q0 27 6 55q4 209 152 285q68 47 164 47q16 0 30 -2q16 16 52 16h47l14 70
q-16 -4 -27 -4q-31 0 -37 58t-16 69q4 53 -33 80q-72 -16 -120 -168l-15 16q-61 -16 -98 -16t-80 16q14 117 27 152q29 78 104 102q63 10 197 31q33 -10 76 -31q4 5 25 17t21 22t-3 21q14 4 32 -15l-14 -14q25 -35 41 -66q27 37 59 37q10 0 21 -4q61 55 149 55t197 -65
q80 -147 92 -317q-14 -27 -14 -58v-59q-4 -25 -17 -49q-18 6 -31 6t-28.5 -9.5t-25.5 -9.5t-31 11l-88 143q2 -61 22 -109l21 -49q-84 -10 -95 0l-14 -16l-31 45q-40 -45 -22 -141t-6 -140q29 -47 71 -47q18 0 33 13l45 98q33 59 66 59t69 -33q45 -18 45 -45
q0 -16 -23.5 -52t-23.5 -50t2 -20q-31 -20 -56.5 -63.5t-63.5 -57.5q-35 -31 -61 -31t-69 38t-81 38q-8 20 -33 45q8 -61 8 -87t-8 -46q-25 29 -68 28l-110 -14q-51 0 -62 59q-94 -74 -196 -73q-39 0 -74 12q-113 129 -113 217z" />
    <glyph glyph-name="ccedilla" unicode="&#xe7;" horiz-adv-x="686" 
d="M657 252h2l-4 2zM655 254q-13 8 -22 22zM262 -276h25l24 -3q70 0 62 70q-88 10 -119 62q-18 33 -18 112v23q0 76 -19 112q-29 55 -113 76q-66 150 -65 324q0 236 115 430q20 57 110 86q139 45 148 49q4 -2 118 -43q72 -27 82 -82q-10 -20 -10 -44t23.5 -67t23.5 -67
t-35 -51q-51 -25 -88 -25q-55 0 -77 64q-1 4 -17 92t-47 88q-35 0 -100 -62q10 -45 10 -95t-20.5 -150.5t-20.5 -150.5t10 -95q-34 -11 -70 -25t-61 -45q14 -33 51 -33q8 0 37 4t43 1q-4 -14 -4 -39t74 -90q55 4 82 63q45 100 43 199q8 4 17 4t50 -37q14 37 97 37
q4 -16 1 -66t9 -74l-8 9q-35 -164 -289 -330q88 -4 100 -98q2 -80 6 -160q-29 -37 -86 -38t-110 -1l-33 33q0 33 49 33z" />
    <glyph glyph-name="egrave" unicode="&#xe8;" horiz-adv-x="716" 
d="M422 709q0 29 -15 95q-16 66 -14 97l-14 -16q-14 -2 -33 16v-47q-33 -33 -31 -104v-119l62 -2q45 23 45 80zM602 502q-14 0 -30 -9t-25 -9q-10 0 -31 10l-88 143q2 -61 18 -97t25 -61q-84 -10 -94 0l-15 -16l-30 45q-41 -45 -23 -141t-6 -140q29 -47 72 -47q18 0 33 13
q23 49 45 98q33 59 65 59t70 -33q45 -18 45 -45q0 -16 -27 -56t-18 -66q-31 -20 -57 -64t-64 -57q-35 -31 -61 -31t-68 38t-82 38q-14 37 -76 84q-61 47 -74 98v33q0 20 -16 26l16 15q-31 2 -30 37v16q2 9 2 25t-15 26v72q0 55 -18 80q27 129 53 258q41 150 107 149
q10 0 20 -4q61 55 149 55t197 -65q81 -147 93 -317q-14 -27 -14 -58t-1 -59q-4 -25 -16 -49q-17 6 -31 6zM408 1374q0 -24 -5 -78q0 -63 82 -71v-66q-17 -8 -41 -8t-65 48t-55 56q32 39 32 49t-4 17l-129 61q1 37 57 38t105 1q23 -23 23 -47z" />
    <glyph glyph-name="eacute" unicode="&#xe9;" horiz-adv-x="716" 
d="M422 709q0 29 -15 95q-16 66 -14 97l-14 -16q-14 -2 -33 16v-47q-33 -33 -31 -104v-119l62 -2q45 23 45 80zM602 502q-14 0 -30 -9t-25 -9q-10 0 -31 10l-88 143q2 -61 18 -97t25 -61q-84 -10 -94 0l-15 -16l-30 45q-41 -45 -23 -141t-6 -140q29 -47 72 -47q18 0 33 13
q23 49 45 98q33 59 65 59t70 -33q45 -18 45 -45q0 -16 -27 -56t-18 -66q-31 -20 -57 -64t-64 -57q-35 -31 -61 -31t-68 38t-82 38q-14 37 -76 84q-61 47 -74 98v33q0 20 -16 26l16 15q-31 2 -30 37v16q2 9 2 25t-15 26v72q0 55 -18 80q27 129 53 258q41 150 107 149
q10 0 20 -4q61 55 149 55t197 -65q81 -147 93 -317q-14 -27 -14 -58t-1 -59q-4 -25 -16 -49q-17 6 -31 6zM352 1304q0 -9 33 -49q-14 -8 -55 -56q-42 -48 -66 -48t-41 8v66q82 8 82 71l-4 62q0 41 23 63h96q63 -2 65 -39l-129 -61q-4 -8 -4 -17z" />
    <glyph glyph-name="ecircumflex" unicode="&#xea;" horiz-adv-x="716" 
d="M422 709q0 29 -15 95q-16 66 -14 97l-14 -16q-14 -2 -33 16v-47q-33 -33 -31 -104v-119l62 -2q45 23 45 80zM602 502q-14 0 -30 -9t-25 -9q-10 0 -31 10l-88 143q2 -61 18 -97t25 -61q-84 -10 -94 0l-15 -16l-30 45q-41 -45 -23 -141t-6 -140q29 -47 72 -47q18 0 33 13
q23 49 45 98q33 59 65 59t70 -33q45 -18 45 -45q0 -16 -27 -56t-18 -66q-31 -20 -57 -64t-64 -57q-35 -31 -61 -31t-68 38t-82 38q-14 37 -76 84q-61 47 -74 98v33q0 20 -16 26l16 15q-31 2 -30 37v16q2 9 2 25t-15 26v72q0 55 -18 80q27 129 53 258q41 150 107 149
q10 0 20 -4q61 55 149 55t197 -65q81 -147 93 -317q-14 -27 -14 -58t-1 -59q-4 -25 -16 -49q-17 6 -31 6zM326 1303q-39 0 -52 -132l-131 -4q37 29 105 160q51 94 129 94q37 0 88 -16q31 -53 65 -113t35 -114q-57 -27 -140 49t-99 76z" />
    <glyph glyph-name="edieresis" unicode="&#xeb;" horiz-adv-x="716" 
d="M422 709q0 29 -15 95q-16 66 -14 97l-14 -16q-14 -2 -33 16v-47q-33 -33 -31 -104v-119l62 -2q45 23 45 80zM602 502q-14 0 -30 -9t-25 -9q-10 0 -31 10l-88 143q2 -61 18 -97t25 -61q-84 -10 -94 0l-15 -16l-30 45q-41 -45 -23 -141t-6 -140q29 -47 72 -47q18 0 33 13
q23 49 45 98q33 59 65 59t70 -33q45 -18 45 -45q0 -16 -27 -56t-18 -66q-31 -20 -57 -64t-64 -57q-35 -31 -61 -31t-68 38t-82 38q-14 37 -76 84q-61 47 -74 98v33q0 20 -16 26l16 15q-31 2 -30 37v16q2 9 2 25t-15 26v72q0 55 -18 80q27 129 53 258q41 150 107 149
q10 0 20 -4q61 55 149 55t197 -65q81 -147 93 -317q-14 -27 -14 -58t-1 -59q-4 -25 -16 -49q-17 6 -31 6zM291 1214q0 -45 -33 -63q-125 29 -135 29t-29 -4l-4 131l197 4q-4 -16 0 -52t4 -45zM618 1157q-110 0 -140 4t-60 58v96l196 2l-65 -66q39 -31 48 -31t17 3z" />
    <glyph glyph-name="igrave" unicode="&#xec;" horiz-adv-x="364" 
d="M293 196l2 -120q0 -94 -62 -115h-92q-57 -2 -88 14q17 21 17 53t-17 52q16 180 17 432l-2 424q109 18 141 18q82 0 98 -49q-25 -41 -7 -126t-7 -130q25 -37 7 -111t7 -108q4 -10 4 -20l-18 -66q0 -12 12 -22q-12 -6 -12 -14t8 -24q8 -14 6 -22q-14 -32 -14 -66zM274 1071
q-24 0 -65 48t-55 57q32 39 32 48t-4 17l-129 62q1 37 57 37t105 1q23 -23 23 -49t-5 -75q0 -63 82 -72v-66q-17 -8 -41 -8z" />
    <glyph glyph-name="iacute" unicode="&#xed;" horiz-adv-x="364" 
d="M293 196l2 -120q0 -94 -62 -115h-92q-57 -2 -88 14q17 21 17 53t-17 52q16 180 17 432l-2 424q109 18 141 18q82 0 98 -49q-25 -41 -7 -126t-7 -130q25 -37 7 -111t7 -108q4 -10 4 -20l-18 -66q0 -12 12 -22q-12 -6 -12 -14t8 -24q8 -14 6 -22q-14 -32 -14 -66zM182 1224
q0 -9 33 -48q-14 -8 -55 -56q-42 -48 -66 -49q-24 0 -41 8v66q82 8 82 72l-4 61q0 41 23 63h96q63 -2 65 -38l-129 -62q-4 -8 -4 -17z" />
    <glyph glyph-name="icircumflex" unicode="&#xee;" horiz-adv-x="364" 
d="M293 196l2 -120q0 -94 -62 -115h-92q-57 -2 -88 14q17 21 17 53t-17 52q16 180 17 432l-2 424q109 18 141 18q82 0 98 -49q-25 -41 -7 -126t-7 -130q25 -37 7 -111t7 -108q4 -10 4 -20l-18 -66q0 -12 12 -22q-12 -6 -12 -14t8 -24q8 -14 6 -22q-14 -32 -14 -66zM156 1223
q-39 0 -52 -131l-131 -5q37 29 105 160q51 94 129 94q37 0 88 -16q31 -53 65 -113t35 -114q-57 -27 -140 49t-99 76z" />
    <glyph glyph-name="idieresis" unicode="&#xef;" horiz-adv-x="364" 
d="M293 196l2 -120q0 -94 -62 -115h-92q-57 -2 -88 14q17 21 17 53t-17 52q16 180 17 432l-2 424q109 18 141 18q82 0 98 -49q-25 -41 -7 -126t-7 -130q25 -37 7 -111t7 -108q4 -10 4 -20l-18 -66q0 -12 12 -22q-12 -6 -12 -14t8 -24q8 -14 6 -22q-14 -32 -14 -66zM121 1135
q0 -45 -33 -64q-125 29 -135 29t-29 -4l-4 131l197 4q-4 -16 0 -52t4 -44zM449 1077q-109 0 -140 4t-61 58v96l196 2l-65 -66q39 -31 48 -31t17 3z" />
    <glyph glyph-name="ntilde" unicode="&#xf1;" horiz-adv-x="665" 
d="M156 20q-63 0 -93 17q-10 31 -10 67t20 104q19 70 19 114t-47 90q49 92 49 209q0 23 -2 47q41 0 53 51q20 78 23 82l-33 196q39 19 80 19t57 -33v-41q-2 -25 15 -35q55 72 153 109q43 -14 86 -27q47 -23 60 -65v-207q0 -113 18 -199l-2 -65q0 -49 16 -72l-16 -363
q-23 -18 -72 -12t-63 0l-10 14q-11 -16 -19 -16t-27 14t-34 2l-15 347l46 30l-43 29q2 11 2 246q0 145 -52 235q-47 -63 -52 -165t-5 -197l-16 -15q12 -4 16 -43l-16 -16q10 -6 16 -43l-2 -166q-16 -27 -16 -59l18 -125q0 -31 -16 -58h-86zM596 1122q-10 0 -47 33
q-29 -16 -71 -16q-42 1 -141 67t-149 74l-292 -72q-8 23 -9 45q0 94 101 121q51 25 104 25q88 0 238 -88t209 -88q102 0 170 166q65 -31 65 -87t-49 -109q-49 -52 -111 -67q-8 -4 -18 -4z" />
    <glyph glyph-name="ograve" unicode="&#xf2;" horiz-adv-x="710" 
d="M297 -37q0 45 49 82q40 4 56 -44t34 -60q-18 -18 -14 -29q-18 8 -62 12t-61 17q-2 12 -2 22zM569 991q94 -145 95 -362q0 -270 -127 -482q-4 2 -78 23q-45 10 -43 51q-4 -12 -18 -13t-27 -3q25 109 37 269t24 306q-16 12 -14 60t-31 61l-31 -31l-30 74q-96 -302 -13 -766
q-23 -10 -53 -58t-67 -46q-143 178 -144 477q0 240 98 410q94 94 244 94q108 -1 178 -64zM446 1161q-24 0 -65 48t-55 57q32 39 32 48t-4 17l-129 62q1 37 57 38t105 1q23 -23 23 -64l-4 -61q0 -63 81 -72v-66q-17 -8 -41 -8z" />
    <glyph glyph-name="oacute" unicode="&#xf3;" horiz-adv-x="710" 
d="M297 -37q0 45 49 82q40 4 56 -44t34 -60q-18 -18 -14 -29q-18 8 -62 12t-61 17q-2 12 -2 22zM569 991q94 -145 95 -362q0 -270 -127 -482q-4 2 -78 23q-45 10 -43 51q-4 -12 -18 -13t-27 -3q25 109 37 269t24 306q-16 12 -14 60t-31 61l-31 -31l-30 74q-96 -302 -13 -766
q-23 -10 -53 -58t-67 -46q-143 178 -144 477q0 240 98 410q94 94 244 94q108 -1 178 -64zM354 1314q0 -9 33 -48q-14 -8 -55 -56q-42 -48 -66 -49q-24 0 -41 8v66q82 8 82 72l-4 61q0 41 23 64h96q63 -2 65 -39l-129 -62q-4 -8 -4 -17z" />
    <glyph glyph-name="ocircumflex" unicode="&#xf4;" horiz-adv-x="710" 
d="M297 -37q0 45 49 82q40 4 56 -44t34 -60q-18 -18 -14 -29q-18 8 -62 12t-61 17q-2 12 -2 22zM569 991q94 -145 95 -362q0 -270 -127 -482q-4 2 -78 23q-45 10 -43 51q-4 -12 -18 -13t-27 -3q25 109 37 269t24 306q-16 12 -14 60t-31 61l-31 -31l-30 74q-96 -302 -13 -766
q-23 -10 -53 -58t-67 -46q-143 178 -144 477q0 240 98 410q94 94 244 94q108 -1 178 -64zM328 1313q-39 0 -52 -131l-131 -4q37 29 105 159q51 94 129 95q37 0 88 -17q31 -53 65 -113t35 -114q-57 -27 -140 49t-99 76z" />
    <glyph glyph-name="otilde" unicode="&#xf5;" horiz-adv-x="710" 
d="M297 -37q0 45 49 82q40 4 56 -44t34 -60q-18 -18 -14 -29q-18 8 -62 12t-61 17q-2 12 -2 22zM569 991q94 -145 95 -362q0 -270 -127 -482q-4 2 -78 23q-45 10 -43 51q-4 -12 -18 -13t-27 -3q25 109 37 269t24 306q-16 12 -14 60t-31 61l-31 -31l-30 74q-96 -302 -13 -766
q-23 -10 -53 -58t-67 -46q-143 178 -144 477q0 240 98 410q94 94 244 94q108 -1 178 -64zM799 1340q0 -56 -49 -108t-111 -67q-8 -4 -18 -4t-48 33q-29 -16 -71 -16t-140 66q-99 66 -149 75l-293 -72q-8 23 -8 45q0 94 100 121q51 25 105 25q87 0 237 -88t209 -88
q102 -1 170 165q66 -31 66 -87z" />
    <glyph glyph-name="odieresis" unicode="&#xf6;" horiz-adv-x="710" 
d="M297 -37q0 45 49 82q40 4 56 -44t34 -60q-18 -18 -14 -29q-18 8 -62 12t-61 17q-2 12 -2 22zM569 991q94 -145 95 -362q0 -270 -127 -482q-4 2 -78 23q-45 10 -43 51q-4 -12 -18 -13t-27 -3q25 109 37 269t24 306q-16 12 -14 60t-31 61l-31 -31l-30 74q-96 -302 -13 -766
q-23 -10 -53 -58t-67 -46q-143 178 -144 477q0 240 98 410q94 94 244 94q108 -1 178 -64zM293 1225q0 -45 -33 -64q-125 29 -135 29t-29 -4l-4 131l197 4q-4 -16 0 -52t4 -44zM599 1231q9 0 17 2l5 -66q-109 0 -140 4t-61 58v96l196 2l-65 -65q39 -31 48 -31z" />
    <glyph glyph-name="divide" unicode="&#xf7;" horiz-adv-x="972" 
d="M462 158q-22 0 -62 26t-56 29q-4 27 -4 51q0 137 102 131q29 10 50 11q70 0 69 -87q0 -43 -18 -90t-41 -65h-2q-16 -6 -38 -6zM198 573q-84 0 -122 2l-4 127q84 -2 268 6t308 8q122 0 237 -20q0 -115 -68 -114q-16 0 -35 6l-53 51q-141 -20 -294 -43t-237 -23zM476 1106
q77 0 112 -51q4 -18 4 -48t-51 -135h-88q-47 6 -72 48q4 113 4 114q14 72 91 72z" />
    <glyph glyph-name="oslash" unicode="&#xf8;" horiz-adv-x="774" 
d="M422 309l-8 146q-1 76 26 129q-48 -72 -104 -155q-103 -152 -14 -267q100 35 100 147zM385 950q-18 0 -45 -6q-4 -43 -45 -174t-41 -191t31 -94q104 179 149 275q-4 14 -4 37l6 96q0 57 -51 57zM709 420q0 -92 -62 -191q-25 -61 -65 -104q-47 -45 -95 -92
q-55 -41 -100 -41t-109.5 41t-109.5 41t-107 -51h-63q94 70 94 176q0 49 -27.5 158.5t-27.5 161.5t12 93q37 203 49 242q43 131 140 184q147 39 187 39t75 -30q18 -53 70 -53t126 55q-68 -88 -67 -193q0 -66 40 -205t40 -231z" />
    <glyph glyph-name="ugrave" unicode="&#xf9;" horiz-adv-x="733" 
d="M442 -74l2 50q0 24 -16 32q-6 -14 -15 -14t-29 10t-99 -18q-77 -29 -107 -29t-53 6q-45 47 -55 143q0 78 -2 156l-17 678q35 14 107 14t106 15l29 -29q-16 -143 -15 -433t1 -319q14 -14 14 -34l-10 -64q0 -14 8 -22q18 -4 49 13t44 17t28 -14l32 29v305q0 182 -16 295
l-2 198q125 29 242 0q-14 -61 -15 -135l21 -323q0 -45 -4 -86q-14 4 -33 -15q49 -16 49 -82q0 -10 -2 -22l-16 -15l16 -14h-2q-14 -39 -14 -86v-90q0 -86 -21 -133t-88 -47q-31 0 -72 12q-45 -14 -45 51zM459 1075q-25 0 -66 48t-55 57q33 39 33 48t-4 17l-129 62
q2 37 57 38t104 1q23 -23 23 -64l-4 -61q0 -63 82 -72v-66q-16 -8 -41 -8z" />
    <glyph glyph-name="uacute" unicode="&#xfa;" horiz-adv-x="733" 
d="M442 -74l2 50q0 24 -16 32q-6 -14 -15 -14t-29 10t-99 -18q-77 -29 -107 -29t-53 6q-45 47 -55 143q0 78 -2 156l-17 678q35 14 107 14t106 15l29 -29q-16 -143 -15 -433t1 -319q14 -14 14 -34l-10 -64q0 -14 8 -22q18 -4 49 13t44 17t28 -14l32 29v305q0 182 -16 295
l-2 198q125 29 242 0q-14 -61 -15 -135l21 -323q0 -45 -4 -86q-14 4 -33 -15q49 -16 49 -82q0 -10 -2 -22l-16 -15l16 -14h-2q-14 -39 -14 -86v-90q0 -86 -21 -133t-88 -47q-31 0 -72 12q-45 -14 -45 51zM367 1228q0 -9 32 -48q-14 -8 -55 -56q-42 -48 -66 -49q-24 0 -40 8
v66q82 8 81 72l-4 61q0 41 23 64h96q63 -2 66 -39l-129 -62q-4 -8 -4 -17z" />
    <glyph glyph-name="ucircumflex" unicode="&#xfb;" horiz-adv-x="733" 
d="M442 -74l2 50q0 24 -16 32q-6 -14 -15 -14t-29 10t-99 -18q-77 -29 -107 -29t-53 6q-45 47 -55 143q0 78 -2 156l-17 678q35 14 107 14t106 15l29 -29q-16 -143 -15 -433t1 -319q14 -14 14 -34l-10 -64q0 -14 8 -22q18 -4 49 13t44 17t28 -14l32 29v305q0 182 -16 295
l-2 198q125 29 242 0q-14 -61 -15 -135l21 -323q0 -45 -4 -86q-14 4 -33 -15q49 -16 49 -82q0 -10 -2 -22l-16 -15l16 -14h-2q-14 -39 -14 -86v-90q0 -86 -21 -133t-88 -47q-31 0 -72 12q-45 -14 -45 51zM340 1227q-39 0 -51 -131l-131 -4q37 29 104 159q51 94 129 95
q37 0 88 -17q31 -53 66 -113t35 -114q-56 -27 -140 49t-100 76z" />
    <glyph glyph-name="udieresis" unicode="&#xfc;" horiz-adv-x="733" 
d="M442 -74l2 50q0 24 -16 32q-6 -14 -15 -14t-29 10t-99 -18q-77 -29 -107 -29t-53 6q-45 47 -55 143q0 78 -2 156l-17 678q35 14 107 14t106 15l29 -29q-16 -143 -15 -433t1 -319q14 -14 14 -34l-10 -64q0 -14 8 -22q18 -4 49 13t44 17t28 -14l32 29v305q0 182 -16 295
l-2 198q125 29 242 0q-14 -61 -15 -135l21 -323q0 -45 -4 -86q-14 4 -33 -15q49 -16 49 -82q0 -10 -2 -22l-16 -15l16 -14h-2q-14 -39 -14 -86v-90q0 -86 -21 -133t-88 -47q-31 0 -72 12q-45 -14 -45 51zM305 1139q0 -45 -33 -64q-125 29 -135 29t-28 -4l-5 131l197 4
q-4 -16 0 -52t4 -44zM611 1145q9 0 18 2l4 -66q-109 0 -139 4t-62 58v96l197 2l-66 -65q39 -31 48 -31z" />
    <glyph glyph-name="yacute" unicode="&#xfd;" horiz-adv-x="684" 
d="M98 -84q39 0 78 29q2 10 15 29q13 18 13 28t-14 21q0 51 3 104q-2 70 -17 109q21 42 22 72t-34 46q0 58 -26 160t-26 150v97q1 50 -14 79q-2 20 -15 72t-13 80t14 46h197q12 -45 55 -315q-2 -8 -2 -23q0 -16 12 -56t14 -54q31 68 53 210t40 197q10 -4 22 -4l98 17
q41 0 64 -39l2 2q-1 -11 -65 -251t-85 -368q-27 -51 -51 -165t-51 -164q8 -80 -34 -157t-109 -118q-8 4 -17 4l-82 -18q-18 0 -32 12q-82 0 -119 14q-42 163 22 170q43 -16 82 -16zM305 1298q0 -10 33 -49q-14 -8 -55 -56t-65 -48t-42 8v66q82 8 82 71l-4 62q0 41 22 63h97
q63 -2 65 -39l-129 -61q-4 -7 -4 -17z" />
    <glyph glyph-name="ydieresis" unicode="&#xff;" horiz-adv-x="684" 
d="M98 -84q39 0 78 29q2 10 15 29q13 18 13 28t-14 21q0 51 3 104q-2 70 -17 109q21 42 22 72t-34 46q0 58 -26 160t-26 150v97q1 50 -14 79q-2 20 -15 72t-13 80t14 46h197q12 -45 55 -315q-2 -8 -2 -23q0 -16 12 -56t14 -54q31 68 53 210t40 197q10 -4 22 -4l98 17
q41 0 64 -39l2 2q-1 -11 -65 -251t-85 -368q-27 -51 -51 -165t-51 -164q8 -80 -34 -157t-109 -118q-8 4 -17 4l-82 -18q-18 0 -32 12q-82 0 -119 14q-42 163 22 170q43 -16 82 -16zM244 1208q0 -45 -33 -63q-125 29 -135 29t-29 -5l-4 131l197 5q-4 -17 0 -53t4 -44z
M550 1214q9 0 17 3l4 -66q-109 0 -139 4t-61 57v97l196 2l-65 -66q39 -31 48 -31z" />
    <glyph glyph-name="Amacron" unicode="&#x100;" horiz-adv-x="835" 
d="M295 -121q0 -76 -90 -80q-29 11 -36 17t-13 22q6 4 45 60t59 55q20 0 33 -51q2 -12 2 -23zM720 -150q-30 0 -82 -12t-73 -14q-23 42 -37 136t-18 108q6 12 6 20q0 23 -36 40q-36 16 -36 28t41 37q-10 12 -15 50t-19 50q-25 -23 -81 -30t-75 -19q4 -160 -49 -215
q-29 6 -43 -23q-20 -35 -35 -41l12 -14q-16 -14 -63 -12t-51 2l-13 36l115 1108q0 104 8 142q-4 92 41 114q29 -18 68 -18t113 16t102 17q100 0 90 -144q-8 -114 42 -308t50 -294q0 -31 -2 -61q-42 -25 -106 -30t-125 -9q-18 156 -39 324t-52 288l-53 -585q-6 -76 70 -76
q25 0 47 12q18 6 51 -27q0 -63 27 -75q34 23 178 78q27 -35 36 -119t13 -112t35 -160t18 -220q-30 12 -60 12zM92 1561q119 1 231 23q113 22 163 22t124 -17q6 -6 36 -57t61 -51q14 0 34 10v-33l-649 8v95z" />
    <glyph glyph-name="amacron" unicode="&#x101;" horiz-adv-x="735" 
d="M376 174q16 0 27 6l15 332q-29 -33 -60 -31q-35 -173 -30 -241q10 -20 21 -43t27 -23zM51 215q0 27 6 55q4 209 152 285q68 47 164 47q16 0 30 -2q17 16 61 16h46l12 -16q2 2 56 92t98 119v-283q0 -180 -17 -288q13 -6 13 -30v-42l10 -131q0 -31 -8 -51q-25 29 -68 28
l-110 -14q-51 0 -62 59q-94 -74 -196 -73q-39 0 -74 12q-113 129 -113 217zM489 682q-31 0 -37 58t-16 69q4 53 -33 80q-72 -16 -120 -168l-15 16q-61 -16 -98 -16t-80 16q14 117 27 152q29 78 104 102q63 10 197 31q33 -10 76 -31q4 5 25 17t21 22t-3 21q14 4 32 -15
l-14 -14q65 -90 65 -139t-20 -88q-25 -9 -37 -51q-18 -62 -74 -62zM41 1264q119 0 231 22t162 23q51 0 125 -17q6 -6 36 -57t60 -51q14 0 35 10v-33l-649 8v95z" />
    <glyph glyph-name="Cacute" unicode="&#x106;" horiz-adv-x="864" 
d="M573 417q0 32 19 60q-14 6 -12 30t2 25q114 27 229 -14q-32 -286 -80 -364l-14 16q-47 -106 -121 -125q-37 -43 -89 -43t-192 41q-66 57 -71 63q-41 43 -37 84q-39 54 -57 180t-41 173q-41 -33 -62 14l14 12q-12 12 -12 27l17 59q0 16 -15 29q20 100 43 303q29 15 30 69
t15 70q74 160 226 207q8 -2 68 -4t85 -16q45 6 88 -33l74 -78q68 -102 68 -225q0 -41 -9 -86q-53 6 -80 -82l-139 -6q-20 41 -20 106l6 131q0 68 -21 109l-43 -27q-25 14 -24 39l6 45q0 27 -37 35q-39 -289 -43 -596q6 -10 36 -16t30 -23q0 -6 -4 -16l-15 -12q10 -23 10 -62
l-8 -125q0 -61 21 -94q-4 -45 26 -64q20 8 37 9q63 0 84 -92q0 -2 -1 -24t11 -30q29 18 31 76t16 74q-2 29 -23 84q-22 55 -22 87zM426 1588q0 -10 33 -48q-13 -8 -55 -56t-66 -48t-41 8v65q82 8 82 72l-4 61q0 41 22 64h97q63 -2 65 -39l-129 -61q-4 -8 -4 -18z" />
    <glyph glyph-name="cacute" unicode="&#x107;" horiz-adv-x="722" 
d="M594 346v-211q-10 -121 -102 -149h-80q-59 0 -88 14q-4 127 32 211q10 2 19 2q25 0 69 -49q47 23 48 94l-5 70q0 82 80 78l29 -60h-2zM602 631h-24q-16 2 -42 2t-47 -17q-7 34 -37 138t-30 150t4 75q18 16 34 16q16 1 50 -25q33 -26 55 -22q83 -79 103 -286h2
q-14 -31 -68 -31zM313 472q0 -78 -22 -191q-23 -94 -43 -191v-16q-68 14 -105 94q-57 125 -61 131q-12 61 -13 182t-14 181q-6 121 39 222t137 152q39 20 76 21q82 0 82 -74q0 -28 -20 -65q-59 -4 -60 -82v-48q0 -45 -14 -65q14 -12 14 -25l-18 -59q0 -12 6 -23
q16 -66 16 -144zM356 1316q0 -9 33 -48q-14 -8 -55 -56q-42 -48 -66 -49q-24 0 -41 8v66q82 8 82 72l-4 61q0 41 23 64h96q63 -2 65 -39l-129 -62q-4 -8 -4 -17z" />
    <glyph glyph-name="Ccircumflex" unicode="&#x108;" horiz-adv-x="864" 
d="M573 417q0 32 19 60q-14 6 -12 30t2 25q114 27 229 -14q-32 -286 -80 -364l-14 16q-47 -106 -121 -125q-37 -43 -89 -43t-192 41q-66 57 -71 63q-41 43 -37 84q-39 54 -57 180t-41 173q-41 -33 -62 14l14 12q-12 12 -12 27l17 59q0 16 -15 29q20 100 43 303q29 15 30 69
t15 70q74 160 226 207q8 -2 68 -4t85 -16q45 6 88 -33l74 -78q68 -102 68 -225q0 -41 -9 -86q-53 6 -80 -82l-139 -6q-20 41 -20 106l6 131q0 68 -21 109l-43 -27q-25 14 -24 39l6 45q0 27 -37 35q-39 -289 -43 -596q6 -10 36 -16t30 -23q0 -6 -4 -16l-15 -12q10 -23 10 -62
l-8 -125q0 -61 21 -94q-4 -45 26 -64q20 8 37 9q63 0 84 -92q0 -2 -1 -24t11 -30q29 18 31 76t16 74q-2 29 -23 84q-22 55 -22 87zM399 1587q-39 0 -51 -131l-131 -4q37 29 105 160q51 94 129 94q37 0 88 -16q31 -53 65 -113t35 -115q-57 -27 -140 49t-100 76z" />
    <glyph glyph-name="ccircumflex" unicode="&#x109;" horiz-adv-x="722" 
d="M594 346v-211q-10 -121 -102 -149h-80q-59 0 -88 14q-4 127 32 211q10 2 19 2q25 0 69 -49q47 23 48 94l-5 70q0 82 80 78l29 -60h-2zM602 631h-24q-16 2 -42 2t-47 -17q-7 34 -37 138t-30 150t4 75q18 16 34 16q16 1 50 -25q33 -26 55 -22q83 -79 103 -286h2
q-14 -31 -68 -31zM313 472q0 -78 -22 -191q-23 -94 -43 -191v-16q-68 14 -105 94q-57 125 -61 131q-12 61 -13 182t-14 181q-6 121 39 222t137 152q39 20 76 21q82 0 82 -74q0 -28 -20 -65q-59 -4 -60 -82v-48q0 -45 -14 -65q14 -12 14 -25l-18 -59q0 -12 6 -23
q16 -66 16 -144zM330 1315q-39 0 -51 -131l-132 -4q37 29 105 159q51 94 129 95q37 0 88 -17q31 -53 65 -113t35 -114q-57 -27 -140 49t-99 76z" />
    <glyph glyph-name="Cdotaccent" unicode="&#x10a;" horiz-adv-x="864" 
d="M573 417q0 32 19 60q-14 6 -12 30t2 25q114 27 229 -14q-32 -286 -80 -364l-14 16q-47 -106 -121 -125q-37 -43 -89 -43t-192 41q-66 57 -71 63q-41 43 -37 84q-39 54 -57 180t-41 173q-41 -33 -62 14l14 12q-12 12 -12 27l17 59q0 16 -15 29q20 100 43 303q29 15 30 69
t15 70q74 160 226 207q8 -2 68 -4t85 -16q45 6 88 -33l74 -78q68 -102 68 -225q0 -41 -9 -86q-53 6 -80 -82l-139 -6q-20 41 -20 106l6 131q0 68 -21 109l-43 -27q-25 14 -24 39l6 45q0 27 -37 35q-39 -289 -43 -596q6 -10 36 -16t30 -23q0 -6 -4 -16l-15 -12q10 -23 10 -62
l-8 -125q0 -61 21 -94q-4 -45 26 -64q20 8 37 9q63 0 84 -92q0 -2 -1 -24t11 -30q29 18 31 76t16 74q-2 29 -23 84q-22 55 -22 87zM295 1528q0 115 2 104l-2 64q39 16 128 14t128 16q10 -29 10 -55t-7 -95t-1 -108v-2q-12 6 -27 -14l-123 16q-45 0 -75 -32q-33 27 -33 92z
" />
    <glyph glyph-name="cdotaccent" unicode="&#x10b;" horiz-adv-x="722" 
d="M594 346v-211q-10 -121 -102 -149h-80q-59 0 -88 14q-4 127 32 211q10 2 19 2q25 0 69 -49q47 23 48 94l-5 70q0 82 80 78l29 -60h-2zM602 631h-24q-16 2 -42 2t-47 -17q-7 34 -37 138t-30 150t4 75q18 16 34 16q16 1 50 -25q33 -26 55 -22q83 -79 103 -286h2
q-14 -31 -68 -31zM313 472q0 -78 -22 -191q-23 -94 -43 -191v-16q-68 14 -105 94q-57 125 -61 131q-12 61 -13 182t-14 181q-6 121 39 222t137 152q39 20 76 21q82 0 82 -74q0 -28 -20 -65q-59 -4 -60 -82v-48q0 -45 -14 -65q14 -12 14 -25l-18 -59q0 -12 6 -23
q16 -66 16 -144zM225 1255q0 115 2 105l-2 63q39 17 128 15t128 16q11 -29 11 -55t-8 -95t-1 -108v-2q-12 6 -26 -14l-123 16q-45 0 -76 -33q-33 27 -33 92z" />
    <glyph glyph-name="Ccaron" unicode="&#x10c;" horiz-adv-x="864" 
d="M573 417q0 32 19 60q-14 6 -12 30t2 25q114 27 229 -14q-32 -286 -80 -364l-14 16q-47 -106 -121 -125q-37 -43 -89 -43t-192 41q-66 57 -71 63q-41 43 -37 84q-39 54 -57 180t-41 173q-41 -33 -62 14l14 12q-12 12 -12 27l17 59q0 16 -15 29q20 100 43 303q29 15 30 69
t15 70q74 160 226 207q8 -2 68 -4t85 -16q45 6 88 -33l74 -78q68 -102 68 -225q0 -41 -9 -86q-53 6 -80 -82l-139 -6q-20 41 -20 106l6 131q0 68 -21 109l-43 -27q-25 14 -24 39l6 45q0 27 -37 35q-39 -289 -43 -596q6 -10 36 -16t30 -23q0 -6 -4 -16l-15 -12q10 -23 10 -62
l-8 -125q0 -61 21 -94q-4 -45 26 -64q20 8 37 9q63 0 84 -92q0 -2 -1 -24t11 -30q29 18 31 76t16 74q-2 29 -23 84q-22 55 -22 87zM451 1436q-78 0 -129 94q-68 131 -105 160l131 -4q12 -131 51 -132q15 0 99 76t141 49q0 -55 -35 -114t-65 -113q-51 -16 -88 -16z" />
    <glyph glyph-name="ccaron" unicode="&#x10d;" horiz-adv-x="722" 
d="M594 346v-211q-10 -121 -102 -149h-80q-59 0 -88 14q-4 127 32 211q10 2 19 2q25 0 69 -49q47 23 48 94l-5 70q0 82 80 78l29 -60h-2zM602 631h-24q-16 2 -42 2t-47 -17q-7 34 -37 138t-30 150t4 75q18 16 34 16q16 1 50 -25q33 -26 55 -22q83 -79 103 -286h2
q-14 -31 -68 -31zM313 472q0 -78 -22 -191q-23 -94 -43 -191v-16q-68 14 -105 94q-57 125 -61 131q-12 61 -13 182t-14 181q-6 121 39 222t137 152q39 20 76 21q82 0 82 -74q0 -28 -20 -65q-59 -4 -60 -82v-48q0 -45 -14 -65q14 -12 14 -25l-18 -59q0 -12 6 -23
q16 -66 16 -144zM330 1282q16 0 99 76t140 49q0 -55 -35 -115t-65 -112q-51 -16 -88 -17q-78 0 -129 94q-68 131 -105 160l132 -4q12 -131 51 -131z" />
    <glyph glyph-name="Dcaron" unicode="&#x10e;" horiz-adv-x="815" 
d="M627 1219l-13 12l-8 -8zM456 -43q-44 0 -71 12q-25 -23 -45 -23t-36 2q-16 1 -32 1q-18 0 -41 -15q-16 12 -56 12t-48 1q-35 47 -38 137t-13 127l14 12q-14 9 -14 31t12 33q45 0 120 -45t124 -43q29 -39 53 -39t37 12q10 20 22 21q-8 0 41 -21q63 -80 90 -164h3
q-78 -51 -122 -51zM678 1278q0 -12 -2 -21l-51 -26q59 0 77 -41q12 -25 14 -88t11 -88l-12 -13l24 -26q27 -135 27 -285q0 -285 -90 -557l-74 -63q-41 45 -90 178q-18 -18 -30 -11t-11 14q0 7 15 22t14 26q12 95 12 241t-41 435q3 2 25 1t26 11q-66 49 -65 121q0 18 4 35
l53 47q-8 14 -18 14t-33 -24q-1 4 -23 40t-22 55t4 32l-12 12l-25 -49q-11 -2 -27 11t-23 13t-16 -14q12 -6 13 -14l-13 -33q3 -16 15 -50q12 -33 12 -53t-14 -38q14 -70 14 -121t-27 -82q-1 -11 13 -27t14 -23t-12 -16q12 -35 11 -111t1 -91q-4 -2 -26 -1t-27 -12
q29 0 45 -26q10 -27 20 -52v-204q10 -49 -36 -90q-61 25 -154 104l-39 -14q-20 0 -27 61q4 63 -12 193l25 26q-25 33 -26 91q-1 57 -2 103t-13 72q35 0 41 15q-47 211 -39 383q2 20 -11 63t-13 71t36 42q29 -4 62 -4l258 18q63 0 114 -14l127 -100q1 -8 15 -32t14 -36z
M430 1563q-78 0 -129 94q-68 131 -104 160l131 -5q12 -131 51 -131q16 0 99 76t140 49q0 -55 -34 -114t-66 -113q-51 -16 -88 -16z" />
    <glyph glyph-name="dcaron" unicode="&#x10f;" horiz-adv-x="1105" 
d="M424 739l-23 99q0 14 5 26l-15 -28q-39 -4 -49 10l4 -43q-16 -20 -29 -19q10 -61 -4 -126q-14 -66 -16 -83q10 -47 9 -142t-1 -101q6 -150 74 -205l-21 88q6 14 45 18q6 23 11 84q0 53 14 80q-20 41 -20 99l10 149q0 31 -6 55q12 18 12 39zM547 -115q-33 -1 -59 29
t-62 92q0 37 -16 45l-13 -16l-18 14q-8 -25 -19 -47q-10 -27 -36 -29l-15 13q-82 -12 -151 20q-106 139 -107 289q0 43 10 86l-10 12q2 238 15 314q31 170 137 254q19 16 41 16t56 -12t50 -13l49 -45q27 27 27 82q0 15 -4 57t0 58q14 8 14 16t-12 22t-12 22q0 9 4 16l20 149
q128 10 230 -33l2 2q-25 -150 -9 -446t-10 -444q-10 -4 -20 -4q-11 0 -23 20t-18 25q-31 5 -62 -9t-59 -26q1 0 57 -14t70 -40q-10 -16 -10 -33t30 -71l-22 -268q0 -49 8 -97q-20 -6 -53 -6zM1044 1443q0 -75 -78 -219t-94 -212h-94q29 63 61 138t31 130q0 96 -102 125
l29 164q118 -25 229 4q18 -55 18 -130z" />
    <glyph glyph-name="Emacron" unicode="&#x112;" horiz-adv-x="712" 
d="M483 137q96 0 166 -14q-18 -39 -15 -105q3 -65 3 -84h-131q-70 0 -125 -14l-39 41q-16 -16 -12 -27q-10 2 -85 1t-108 12q-33 -35 -78 0q-16 12 -4 42t-8 44l27 395q0 94 -17 180q23 23 54 23t85 -37t56 -37l12 -14q2 6 16 55t35 61l13 -12q8 4 48 34t62 30t41 -25
q35 -18 46 -56t22 -75q-92 -4 -152 2q-14 -23 -41 -7t-39 -5q0 -37 -2 -173t15 -235h155zM584 1102q-35 0 -122 12t-108 14q-29 -43 -28 -120q0 -168 2 -146q30 -16 28 -69t0 -56q-14 -6 -14 -41q-24 8 -52 36t-26 54l-12 -12l-12 12q-16 -2 -56 16t-57 36q0 33 10 36
l-26 29l-13 -18q-27 213 -2 438q117 -18 299 -15t240 3q25 -23 24 -60l-22 -147q-18 -2 -53 -2zM25 1528q119 0 231 22t162 23q51 0 125 -17q6 -6 36 -57t60 -51q14 0 35 10v-33l-649 9v94z" />
    <glyph glyph-name="emacron" unicode="&#x113;" horiz-adv-x="716" 
d="M422 709q0 29 -15 95q-16 66 -14 97l-14 -16q-14 -2 -33 16v-47q-33 -33 -31 -104v-119l62 -2q45 23 45 80zM602 502q-14 0 -30 -9t-25 -9q-10 0 -31 10l-88 143q2 -61 18 -97t25 -61q-84 -10 -94 0l-15 -16l-30 45q-41 -45 -23 -141t-6 -140q29 -47 72 -47q18 0 33 13
q23 49 45 98q33 59 65 59t70 -33q45 -18 45 -45q0 -16 -27 -56t-18 -66q-31 -20 -57 -64t-64 -57q-35 -31 -61 -31t-68 38t-82 38q-14 37 -76 84q-61 47 -74 98v33q0 20 -16 26l16 15q-31 2 -30 37v16q2 9 2 25t-15 26v72q0 55 -18 80q27 129 53 258q41 150 107 149
q10 0 20 -4q61 55 149 55t197 -65q81 -147 93 -317q-14 -27 -14 -58t-1 -59q-4 -25 -16 -49q-17 6 -31 6zM29 1253q119 0 231 23q112 22 162 22q51 0 125 -16q6 -6 36 -57t60 -51q14 0 35 10v-33l-649 8v94z" />
    <glyph glyph-name="Edotaccent" unicode="&#x116;" horiz-adv-x="712" 
d="M483 137q96 0 166 -14q-18 -39 -15 -105q3 -65 3 -84h-131q-70 0 -125 -14l-39 41q-16 -16 -12 -27q-10 2 -85 1t-108 12q-33 -35 -78 0q-16 12 -4 42t-8 44l27 395q0 94 -17 180q23 23 54 23t85 -37t56 -37l12 -14q2 6 16 55t35 61l13 -12q8 4 48 34t62 30t41 -25
q35 -18 46 -56t22 -75q-92 -4 -152 2q-14 -23 -41 -7t-39 -5q0 -37 -2 -173t15 -235h155zM584 1102q-35 0 -122 12t-108 14q-29 -43 -28 -120q0 -168 2 -146q30 -16 28 -69t0 -56q-14 -6 -14 -41q-24 8 -52 36t-26 54l-12 -12l-12 12q-16 -2 -56 16t-57 36q0 33 10 36
l-26 29l-13 -18q-27 213 -2 438q117 -18 299 -15t240 3q25 -23 24 -60l-22 -147q-18 -2 -53 -2zM217 1542q0 90 2 80l-2 64q39 16 128 14t128 16q10 -29 10 -55t-7 -95t-1 -108v-2q-12 6 -26 -14l-123 16q-45 0 -76 -33q-33 27 -33 117z" />
    <glyph glyph-name="edotaccent" unicode="&#x117;" horiz-adv-x="716" 
d="M422 709q0 29 -15 95q-16 66 -14 97l-14 -16q-14 -2 -33 16v-47q-33 -33 -31 -104v-119l62 -2q45 23 45 80zM602 502q-14 0 -30 -9t-25 -9q-10 0 -31 10l-88 143q2 -61 18 -97t25 -61q-84 -10 -94 0l-15 -16l-30 45q-41 -45 -23 -141t-6 -140q29 -47 72 -47q18 0 33 13
q23 49 45 98q33 59 65 59t70 -33q45 -18 45 -45q0 -16 -27 -56t-18 -66q-31 -20 -57 -64t-64 -57q-35 -31 -61 -31t-68 38t-82 38q-14 37 -76 84q-61 47 -74 98v33q0 20 -16 26l16 15q-31 2 -30 37v16q2 9 2 25t-15 26v72q0 55 -18 80q27 129 53 258q41 150 107 149
q10 0 20 -4q61 55 149 55t197 -65q81 -147 93 -317q-14 -27 -14 -58t-1 -59q-4 -25 -16 -49q-17 6 -31 6zM221 1243q0 115 2 105l-2 63q39 16 128 14t128 17q10 -30 10 -56t-7 -94t-1 -108v-2q-12 6 -26 -15l-123 17q-45 0 -76 -33q-33 27 -33 92z" />
    <glyph glyph-name="Ecaron" unicode="&#x11a;" horiz-adv-x="712" 
d="M483 137q96 0 166 -14q-18 -39 -15 -105q3 -65 3 -84h-131q-70 0 -125 -14l-39 41q-16 -16 -12 -27q-10 2 -85 1t-108 12q-33 -35 -78 0q-16 12 -4 42t-8 44l27 395q0 94 -17 180q23 23 54 23t85 -37t56 -37l12 -14q2 6 16 55t35 61l13 -12q8 4 48 34t62 30t41 -25
q35 -18 46 -56t22 -75q-92 -4 -152 2q-14 -23 -41 -7t-39 -5q0 -37 -2 -173t15 -235h155zM584 1102q-35 0 -122 12t-108 14q-29 -43 -28 -120q0 -168 2 -146q30 -16 28 -69t0 -56q-14 -6 -14 -41q-24 8 -52 36t-26 54l-12 -12l-12 12q-16 -2 -56 16t-57 36q0 33 10 36
l-26 29l-13 -18q-27 213 -2 438q117 -18 299 -15t240 3q25 -23 24 -60l-22 -147q-18 -2 -53 -2zM322 1544q16 0 99 76t140 49q0 -55 -35 -115t-65 -112q-51 -16 -88 -17q-78 0 -129 95q-68 131 -105 159l131 -4q12 -131 52 -131z" />
    <glyph glyph-name="ecaron" unicode="&#x11b;" horiz-adv-x="716" 
d="M422 709q0 29 -15 95q-16 66 -14 97l-14 -16q-14 -2 -33 16v-47q-33 -33 -31 -104v-119l62 -2q45 23 45 80zM602 502q-14 0 -30 -9t-25 -9q-10 0 -31 10l-88 143q2 -61 18 -97t25 -61q-84 -10 -94 0l-15 -16l-30 45q-41 -45 -23 -141t-6 -140q29 -47 72 -47q18 0 33 13
q23 49 45 98q33 59 65 59t70 -33q45 -18 45 -45q0 -16 -27 -56t-18 -66q-31 -20 -57 -64t-64 -57q-35 -31 -61 -31t-68 38t-82 38q-14 37 -76 84q-61 47 -74 98v33q0 20 -16 26l16 15q-31 2 -30 37v16q2 9 2 25t-15 26v72q0 55 -18 80q27 129 53 258q41 150 107 149
q10 0 20 -4q61 55 149 55t197 -65q81 -147 93 -317q-14 -27 -14 -58t-1 -59q-4 -25 -16 -49q-17 6 -31 6zM377 1151q-78 0 -129 94q-68 131 -105 160l131 -4q12 -131 52 -131q16 0 99 76t140 49q0 -55 -35 -115t-65 -113q-51 -16 -88 -16z" />
    <glyph glyph-name="Gcircumflex" unicode="&#x11c;" horiz-adv-x="796" 
d="M594 -105q0 15 -14 45t-17 37q-39 -6 -74 -55t-57 -49t-43 8q-27 -18 -70 -16q-39 6 -75 10q-2 51 -103 88q1 21 -21 61t-22 57t15 30q-2 6 -30 66t-28 93t13 58q-20 174 -20 333t48 320q-4 25 -4 49q0 129 86 180v27q84 111 223 162q84 -18 168 -35q94 -31 131 -109
q29 -16 29 -70t14 -71l-10 -12q18 -121 19 -148q0 -78 -39 -110q-14 0 -76 24q-14 -14 -31 -14l-65 16q-10 0 -21 -4q-4 162 6 242q-16 10 -33 47t-44 41q-16 -20 -15 -27l-37 13q-49 -55 -63 -201t-39 -197q23 -23 22 -63l-8 -96q0 -18 4 -33l-24 -25q16 -70 18 -168
t4 -188q-54 0 -63 -16q12 2 22 2q45 -1 72 -63t46 -62t54 39q59 66 60 178q0 55 -15 119q-14 -8 -14 -41q-33 0 -41 -15q-14 4 -12 27t2 24q25 8 24 23l-18 49q0 8 4 17l8 79q45 -12 195 -8q-4 -10 12 -26q14 14 31 14l72 -21q-39 -406 -58 -651l-100 -6q2 8 2 22zM371 1653
q-39 0 -52 -131l-131 -4q37 29 105 159q51 94 129 95q37 0 88 -17q32 -53 66 -113t34 -114q-57 -27 -140 49t-99 76z" />
    <glyph glyph-name="gcircumflex" unicode="&#x11d;" horiz-adv-x="821" 
d="M788 1156l-20 -108q0 -18 4 -32h-47q6 10 -14 31q-31 -29 -31 -66q0 15 9 -53t9 -101q0 -133 -77 -247q-74 -61 -187 -62q-20 0 -39 2q4 47 54 129q49 82 49 120t-11 67q-8 -16 -45 -17q0 37 -31 76q-32 39 -30 76q-12 -5 -13 -19t-3 -28l-29 30q-45 -68 -45 -163
q0 -47 18 -167t13 -182q-14 4 -24 -7t-22 -21q0 -80 93 -80h32q72 0 88 -39q-10 -55 -20 -113q-14 -66 -74 -69l-61 61q-14 -8 -10 -45q-12 -4 -31 14q-2 -20 -33 -68t-31 -75t45 -49h166v-35q0 -20 17 -29q29 10 28 54v24q-2 16 -2 23q0 39 35 39q12 0 29 -4q16 18 16 67
v53q-31 33 -31 69t15 90q14 54 14 81h45q41 -33 87 -70q79 -64 79 -146q0 -83 -45 -187q-72 -82 -149 -107q-6 4 -16 4t-39 -12q-28 -12 -41 -12t-23 4q2 14 -17 32q-18 -8 -29 -52t-36 -44q-9 0 -19 3t-65 2t-76 16q-170 49 -182 192q8 70 88 123q10 -4 33 12q-2 27 -42 91
t-40 101q0 36 20 66q70 37 70 111q0 43 -25 84q-49 33 -49 123q0 25 21 162q23 61 77 110q55 49 117 58l17 -15q14 -2 52 3t56 5q70 0 86 -55v-49q-2 -29 14 -41q33 20 31 83t14 81q39 86 197 137q16 -20 16 -40zM383 1454q-39 0 -51 -131l-131 -4q37 29 104 160
q51 94 129 94q37 0 88 -17q31 -52 66 -112t35 -115q-57 -27 -141 49t-99 76z" />
    <glyph glyph-name="Gdotaccent" unicode="&#x120;" horiz-adv-x="796" 
d="M594 -105q0 15 -14 45t-17 37q-39 -6 -74 -55t-57 -49t-43 8q-27 -18 -70 -16q-39 6 -75 10q-2 51 -103 88q1 21 -21 61t-22 57t15 30q-2 6 -30 66t-28 93t13 58q-20 174 -20 333t48 320q-4 25 -4 49q0 129 86 180v27q84 111 223 162q84 -18 168 -35q94 -31 131 -109
q29 -16 29 -70t14 -71l-10 -12q18 -121 19 -148q0 -78 -39 -110q-14 0 -76 24q-14 -14 -31 -14l-65 16q-10 0 -21 -4q-4 162 6 242q-16 10 -33 47t-44 41q-16 -20 -15 -27l-37 13q-49 -55 -63 -201t-39 -197q23 -23 22 -63l-8 -96q0 -18 4 -33l-24 -25q16 -70 18 -168
t4 -188q-54 0 -63 -16q12 2 22 2q45 -1 72 -63t46 -62t54 39q59 66 60 178q0 55 -15 119q-14 -8 -14 -41q-33 0 -41 -15q-14 4 -12 27t2 24q25 8 24 23l-18 49q0 8 4 17l8 79q45 -12 195 -8q-4 -10 12 -26q14 14 31 14l72 -21q-39 -406 -58 -651l-100 -6q2 8 2 22zM266 1593
q0 115 2 105l-2 63q39 17 128 15t128 16q10 -30 10 -56t-7 -94t-1 -108v-2q-12 6 -26 -14l-123 16q-45 0 -76 -33q-33 27 -33 92z" />
    <glyph glyph-name="gdotaccent" unicode="&#x121;" horiz-adv-x="821" 
d="M788 1156l-20 -108q0 -18 4 -32h-47q6 10 -14 31q-31 -29 -31 -66q0 15 9 -53t9 -101q0 -133 -77 -247q-74 -61 -187 -62q-20 0 -39 2q4 47 54 129q49 82 49 120t-11 67q-8 -16 -45 -17q0 37 -31 76q-32 39 -30 76q-12 -5 -13 -19t-3 -28l-29 30q-45 -68 -45 -163
q0 -47 18 -167t13 -182q-14 4 -24 -7t-22 -21q0 -80 93 -80h32q72 0 88 -39q-10 -55 -20 -113q-14 -66 -74 -69l-61 61q-14 -8 -10 -45q-12 -4 -31 14q-2 -20 -33 -68t-31 -75t45 -49h166v-35q0 -20 17 -29q29 10 28 54v24q-2 16 -2 23q0 39 35 39q12 0 29 -4q16 18 16 67
v53q-31 33 -31 69t15 90q14 54 14 81h45q41 -33 87 -70q79 -64 79 -146q0 -83 -45 -187q-72 -82 -149 -107q-6 4 -16 4t-39 -12q-28 -12 -41 -12t-23 4q2 14 -17 32q-18 -8 -29 -52t-36 -44q-9 0 -19 3t-65 2t-76 16q-170 49 -182 192q8 70 88 123q10 -4 33 12q-2 27 -42 91
t-40 101q0 36 20 66q70 37 70 111q0 43 -25 84q-49 33 -49 123q0 25 21 162q23 61 77 110q55 49 117 58l17 -15q14 -2 52 3t56 5q70 0 86 -55v-49q-2 -29 14 -41q33 20 31 83t14 81q39 86 197 137q16 -20 16 -40zM545 1538q0 -26 -7 -95t-1 -108v-2q-12 6 -27 -14l-123 16
q-45 0 -76 -32q-33 27 -33 117t3 79l-2 64q39 16 128 14t128 16q10 -29 10 -55z" />
    <glyph glyph-name="Gcedilla" unicode="&#x122;" horiz-adv-x="796" 
d="M594 -105q0 15 -14 45t-17 37q-39 -6 -74 -55t-57 -49t-43 8q-27 -18 -70 -16q-39 6 -75 10q-2 51 -103 88q1 21 -21 61t-22 57t15 30q-2 6 -30 66t-28 93t13 58q-20 174 -20 333t48 320q-4 25 -4 49q0 129 86 180v27q84 111 223 162q84 -18 168 -35q94 -31 131 -109
q29 -16 29 -70t14 -71l-10 -12q18 -121 19 -148q0 -78 -39 -110q-14 0 -76 24q-14 -14 -31 -14l-65 16q-10 0 -21 -4q-4 162 6 242q-16 10 -33 47t-44 41q-16 -20 -15 -27l-37 13q-49 -55 -63 -201t-39 -197q23 -23 22 -63l-8 -96q0 -18 4 -33l-24 -25q16 -70 18 -168
t4 -188q-54 0 -63 -16q12 2 22 2q45 -1 72 -63t46 -62t54 39q59 66 60 178q0 55 -15 119q-14 -8 -14 -41q-33 0 -41 -15q-14 4 -12 27t2 24q25 8 24 23l-18 49q0 8 4 17l8 79q45 -12 195 -8q-4 -10 12 -26q14 14 31 14l72 -21q-39 -406 -58 -651l-100 -6q2 8 2 22zM291 -459
v31q2 20 2 40t-10 38q17 18 77 20t70 4q37 10 37 52q0 12 -2 28l10 10q23 -12 29 -17t12 -23q-51 -41 -58 -155t-48 -153q-10 -14 -22 -82t-48 -69q-20 0 -47 10q23 149 43 193q-45 18 -45 73z" />
    <glyph glyph-name="gcedilla" unicode="&#x123;" horiz-adv-x="821" 
d="M788 1156l-20 -108q0 -18 4 -32h-47q6 10 -14 31q-31 -29 -31 -66q0 15 9 -53t9 -101q0 -133 -77 -247q-74 -61 -187 -62q-20 0 -39 2q4 47 54 129q49 82 49 120t-11 67q-8 -16 -45 -17q0 37 -31 76q-32 39 -30 76q-12 -5 -13 -19t-3 -28l-29 30q-45 -68 -45 -163
q0 -47 18 -167t13 -182q-14 4 -24 -7t-22 -21q0 -80 93 -80h32q72 0 88 -39q-10 -55 -20 -113q-14 -66 -74 -69l-61 61q-14 -8 -10 -45q-12 -4 -31 14q-2 -20 -33 -68t-31 -75t45 -49h166v-35q0 -20 17 -29q29 10 28 54v24q-2 16 -2 23q0 39 35 39q12 0 29 -4q16 18 16 67
v53q-31 33 -31 69t15 90q14 54 14 81h45q41 -33 87 -70q79 -64 79 -146q0 -83 -45 -187q-72 -82 -149 -107q-6 4 -16 4t-39 -12q-28 -12 -41 -12t-23 4q2 14 -17 32q-18 -8 -29 -52t-36 -44q-9 0 -19 3t-65 2t-76 16q-170 49 -182 192q8 70 88 123q10 -4 33 12q-2 27 -42 91
t-40 101q0 36 20 66q70 37 70 111q0 43 -25 84q-49 33 -49 123q0 25 21 162q23 61 77 110q55 49 117 58l17 -15q14 -2 52 3t56 5q70 0 86 -55v-49q-2 -29 14 -41q33 20 31 83t14 81q39 86 197 137q16 -20 16 -40zM551 1466l-29 -163q-119 25 -229 -5q-19 55 -19 130
q0 76 79 220t93 212h95q-29 -63 -61 -138t-31 -131q0 -96 102 -125z" />
    <glyph glyph-name="Hcircumflex" unicode="&#x124;" horiz-adv-x="788" 
d="M53 393q19 49 10 154q0 70 27 104l-12 13q12 18 12 49l-16 141q0 14 2 27q-12 71 -12 193t-1 151q12 59 64 102h192q12 -66 13 -139l-15 -295q0 -51 5 -100q112 -40 149 12l2 391q-16 102 23 143q30 2 74 -1t70 -3t60 17l39 -37q-14 -135 -14 -281t14 -280h2
q-29 -42 -29 -130t3 -75v-586q-35 -20 -107 -6t-98 -6q-14 -4 -23 -4q-20 1 -27 23t-14 40q12 78 12 244t9 179q8 13 8 41t-33 76t-34 75l-13 -11q14 -6 11 -41q-25 11 -33 59t-15 58q-41 -139 -42 -404t-9 -335q-18 4 -39 4l-141 -18q-33 0 -61 14q-2 10 -8 37q-6 26 -7 46
q0 20 12 42q-16 19 3 96q0 18 -13 31q15 33 13 105t-3 73zM367 1606q-39 0 -52 -131l-131 -5q37 29 105 160q51 94 129 94q37 0 88 -16q32 -52 66 -112t34 -115q-57 -27 -140 49t-99 76z" />
    <glyph glyph-name="hcircumflex" unicode="&#x125;" horiz-adv-x="729" 
d="M481 1001h2q-10 -55 -23 -114t-40 -94q-4 2 -42 23t-63 20q-25 -118 -37 -354t-20 -292q-31 4 -47 -18q-37 -50 -37 -66t27 -32t26 -35q-14 -43 -53 -43q-18 0 -63 14t-64 15v585q18 23 16 31l-16 12q3 37 19 313t38 414l127 2q80 0 101 -49q-2 -45 -16 -147t-15 -162
q0 -60 14 -113q74 90 166 90zM680 707q0 -340 -47 -725q-31 -25 -91 -8t-89 -7q-33 47 -33 193v151q14 430 119 690q104 -33 139 -135q2 -82 2 -159zM334 1636q-39 0 -51 -131l-131 -4q37 29 104 160q51 94 129 94q37 0 88 -16q31 -53 65 -113t35 -115q-57 -27 -140 49
t-99 76z" />
    <glyph glyph-name="Itilde" unicode="&#x128;" horiz-adv-x="444" 
d="M268 -41q-20 0 -49 10q-14 18 -37 19l-47 -6q-25 0 -31 34q12 39 13 86l-17 193q0 29 6 53q0 55 -3 278t16 359l10 12q-12 12 -12 27l14 53q0 14 -12 25q12 16 12 37l-14 80q0 20 12 36l-10 13q12 6 10 26t0 25q16 4 35 4l123 -16q37 0 59 24l39 -24l-39 -1020l-12 -13
q24 -16 8 -51t4 -51q-6 -12 -14 -131q-6 -82 -64 -82zM684 1613q0 -57 -49 -109t-111 -66q-8 -4 -18 -4t-47 32q-29 -16 -71 -16t-141 66t-149 75l-293 -71q-8 23 -8 45q0 94 101 121q51 25 104 24q88 0 238 -88t209 -88q101 0 169 166q66 -31 66 -87z" />
    <glyph glyph-name="itilde" unicode="&#x129;" horiz-adv-x="364" 
d="M293 196l2 -120q0 -94 -62 -115h-92q-57 -2 -88 14q17 21 17 53t-17 52q16 180 17 432l-2 424q109 18 141 18q82 0 98 -49q-25 -41 -7 -126t-7 -130q25 -37 7 -111t7 -108q4 -10 4 -20l-18 -66q0 -12 12 -22q-12 -6 -12 -14t8 -24q8 -14 6 -22q-14 -32 -14 -66zM627 1250
q0 -56 -49 -108t-111 -67q-8 -4 -18 -4t-48 33q-29 -16 -71 -16t-140 66q-99 67 -149 75l-293 -72q-8 23 -8 45q0 94 100 121q51 25 105 25q87 0 237 -88t209 -89q102 0 170 166q66 -31 66 -87z" />
    <glyph glyph-name="Imacron" unicode="&#x12a;" horiz-adv-x="444" 
d="M268 -41q-20 0 -49 10q-14 18 -37 19l-47 -6q-25 0 -31 34q12 39 13 86l-17 193q0 29 6 53q0 55 -3 278t16 359l10 12q-12 12 -12 27l14 53q0 14 -12 25q12 16 12 37l-14 80q0 20 12 36l-10 13q12 6 10 26t0 25q16 4 35 4l123 -16q37 0 59 24l39 -24l-39 -1020l-12 -13
q24 -16 8 -51t4 -51q-6 -12 -14 -131q-6 -82 -64 -82zM-84 1536q118 0 230 23t163 23t125 -17q6 -5 36 -57t60 -52q14 0 35 10v-32l-649 8v94z" />
    <glyph glyph-name="imacron" unicode="&#x12b;" horiz-adv-x="364" 
d="M293 196l2 -120q0 -94 -62 -115h-92q-57 -2 -88 14q17 21 17 53t-17 52q16 180 17 432l-2 424q109 18 141 18q82 0 98 -49q-25 -41 -7 -126t-7 -130q25 -37 7 -111t7 -108q4 -10 4 -20l-18 -66q0 -12 12 -22q-12 -6 -12 -14t8 -24q8 -14 6 -22q-14 -32 -14 -66z
M-141 1174q119 0 231 22t162 23q51 0 125 -17q6 -6 36 -57t60 -51q14 0 35 10v-33l-649 8v95z" />
    <glyph glyph-name="Idotaccent" unicode="&#x130;" horiz-adv-x="444" 
d="M268 -41q-20 0 -49 10q-14 18 -37 19l-47 -6q-25 0 -31 34q12 39 13 86l-17 193q0 29 6 53q0 55 -3 278t16 359l10 12q-12 12 -12 27l14 53q0 14 -12 25q12 16 12 37l-14 80q0 20 12 36l-10 13q12 6 10 26t0 25q16 4 35 4l123 -16q37 0 59 24l39 -24l-39 -1020l-12 -13
q24 -16 8 -51t4 -51q-6 -12 -14 -131q-6 -82 -64 -82zM375 1669q0 -26 -7 -95t-1 -108v-2q-12 6 -27 -14l-123 16q-45 0 -76 -32q-33 27 -33 117t3 79l-2 64q39 16 128 14t128 16q10 -29 10 -55z" />
    <glyph glyph-name="dotlessi" unicode="&#x131;" horiz-adv-x="364" 
d="M293 196l2 -120q0 -94 -62 -115h-92q-57 -2 -88 14q17 21 17 53t-17 52q16 180 17 432l-2 424q109 18 141 18q82 0 98 -49q-25 -41 -7.5 -126t-6.5 -130q25 -37 7.5 -110.5t6.5 -108.5q4 -10 4 -20l-18 -66q0 -12 12 -22q-12 -6 -12 -14t8 -23t6 -23q-14 -32 -14 -66z
" />
    <glyph glyph-name="IJ" unicode="&#x132;" horiz-adv-x="983" 
d="M268 -41q-20 0 -49 10q-14 18 -37 19l-47 -6q-25 0 -31 34q12 39 13 86l-17 193q0 29 6 53q0 55 -3 278t16 359l10 12q-12 12 -12 27l14 53q0 14 -12 25q12 16 12 37l-14 80q0 20 12 36l-10 13q12 6 10 26t0 25q16 4 35 4l123 -16q37 0 59 24l39 -24l-39 -1020l-12 -13
q24 -16 8 -51t4 -51q-6 -12 -14 -131q-6 -82 -64 -82zM920 144q0 -46 -15 -64q-9 -2 -69 -16t-84 -35q10 -23 10 -37q0 -33 -62 -38t-75 -13q-18 -4 -35 -4q-66 0 -72 81q-6 117 -20 138q20 16 86 21t90 42v168q12 -6 26 12q16 -6 40 -6t73 49t78 58q53 -8 53 -49l-20 -111
q0 -17 6 -31q-2 -4 -1 -49t-10 -64q1 -6 1 -52zM803 885q-47 0 -101 -41q-29 29 -28 153l14 13q-14 14 -14 43t12 45q-12 66 -11 202t-1 156q24 10 112 12t119 15l39 -39q-12 -78 -11 -274t-28 -300l-14 -14q35 -4 35 -35q0 -12 -8 -41q14 -47 14 -108t-14 -111
q-8 6 -25 -10l-12 10q-29 -15 -70 -75t-69 -60t-56 20q-12 62 -11 192t-1 155q10 4 61 30q37 23 62 23t45 -15q4 -10 10 -10t39 23q-41 41 -88 41z" />
    <glyph glyph-name="ij" unicode="&#x133;" horiz-adv-x="770" 
d="M293 196l2 -120q0 -94 -62 -115h-92q-57 -2 -88 14q17 21 17 53t-17 52q16 180 17 432l-2 424q109 18 141 18q82 0 98 -49q-25 -41 -7 -126t-7 -130q25 -37 7 -111t7 -108q4 -10 4 -20l-18 -66q0 -12 12 -22q-12 -6 -12 -14t8 -24q8 -14 6 -22q-14 -32 -14 -66zM68 1255
q0 63 28 88q29 10 83 -4q53 -14 75 -14t39 4q16 -27 16 -54t-8 -71t-6 -69q-52 -17 -225 -17q4 25 1 75t-3 62zM692 45q0 -27 -18 -37q26 -14 12 -51t4 -51q-43 -172 -119 -242l-194 -29q-14 29 -15 86l3 95q53 4 71 47q12 25 16 88q3 63 15 88v426q0 266 -16 432
q27 20 91 19t89 10q82 12 82 -37q0 -11 -6 -23q-16 -152 -17 -387l2 -391v-43zM688 1075h2l-1 1q-1 0 -1 -1zM461 1218q0 62 33 87h196q16 -49 16 -113t-17 -116q-35 25 -105 8t-105 8q-18 64 -18 126z" />
    <glyph glyph-name="Jcircumflex" unicode="&#x134;" horiz-adv-x="538" 
d="M475 144q0 -46 -14 -64q-9 -2 -69 -16t-85 -35q10 -23 10 -37q-1 -33 -63 -38t-74 -13q-18 -4 -35 -4q-66 0 -71 81q-6 117 -21 138q19 16 85 21t91 42v168q12 -6 27 12q16 -6 40 -6t73 49t77 58q53 -8 54 -49l-21 -111q0 -17 6 -31q-2 -4 -1 -49t-10 -64q1 -6 1 -52z
M358 885q-47 0 -100 -41q-29 29 -29 153l15 13q-14 14 -14 43t12 45q-12 66 -12 202t-1 156q23 10 112 12t120 15l39 -39q-12 -78 -12 -274t-27 -300l-15 -14q35 -4 35 -35q0 -12 -8 -41q14 -47 14 -108t-14 -111q-8 6 -24 -10l-13 10q-29 -15 -70 -75q-40 -60 -68 -60
t-56 20q-12 62 -12 192t-1 155q10 4 62 30q37 23 61 23t45 -15q5 -10 11 -10t38 23q-41 41 -88 41zM248 1737q-39 0 -51 -131l-131 -4q37 29 104 159q51 94 129 94q37 0 88 -16q31 -53 64 -106q36 -66 36 -121q-57 -27 -140 49t-99 76z" />
    <glyph glyph-name="jcircumflex" unicode="&#x135;" horiz-adv-x="405" 
d="M328 45q0 -27 -19 -37q25 -14 12 -51t5 -51q-43 -172 -119 -242l-195 -29q-14 29 -14 86l2 95q53 4 72 47q12 25 15 88t15 88v426q0 266 -16 432q26 20 90 19t90 10q82 12 82 -37q0 -11 -6 -23q-16 -152 -16 -387l2 -391v-43zM147 1196q-39 0 -51 -131l-131 -4
q37 29 105 160q51 94 129 94q37 0 88 -17q31 -52 65 -112t35 -115q-57 -27 -140 49t-100 76z" />
    <glyph glyph-name="Kcedilla" unicode="&#x136;" horiz-adv-x="786" 
d="M299 1022q0 -50 6 -72t5 -44t14 -25q-8 63 49 151t57 139q0 20 -4 39q29 25 51 93q23 68 51 88l205 -27v-39l-12 2q-29 -70 -57 -139q-39 -80 -84 -131q-12 -53 -12 -131t54 -268q56 -190 60 -285q4 -31 34 -164t17 -219l2 -2q-33 0 -41 12l-12 -10l-12 10h-54
q-43 0 -61 -10q-63 48 -75 196t-27 185q-51 123 -39 278l-25 39q1 -33 -25 -52t-53 -38q-6 -2 -16 -2q-11 0 -31 13t-28 16q-12 -23 -32 -8t-30 -5q10 -37 94 -41t84 -34q0 -23 -28 -66q-43 -61 -31 -182t-6 -174q-4 -10 -4 -23l16 -74q0 -16 -12 -30q-35 20 -110 5t-105 17
t-29 80l16 154q0 35 -12 63q14 69 12 209t-2 158q42 -6 52 14q-39 39 -39 98l18 158l-20 166q0 47 13 138t15 143l244 -15q2 -66 -20 -184t-21 -170zM281 -344v31q2 19 2 39t-11 38q18 18 78 20t70 5q37 10 37 51q0 12 -2 29l10 10q23 -12 29 -17t12 -24q-50 -40 -58 -154
t-49 -153q-10 -15 -21 -83t-48 -69q-20 0 -47 11q23 149 43 192q-45 18 -45 74zM54 675q4 0 3 1z" />
    <glyph glyph-name="kcedilla" unicode="&#x137;" horiz-adv-x="684" 
d="M504 594q0 -80 -45 -123q53 -51 64 -117t9 -184q-53 -33 -53 -76t27 -74q-10 0 -42 -13t-48 -13q-35 0 -51 39q12 162 -41 284q-27 -53 -29 -138t-2 -161q-4 -61 -17 -104l-225 31l47 493q40 8 96 68t113 53l31 31q-33 34 -33 70t42 98t53 108q12 46 26 80t47 51
q11 -2 59 -17t70 -15t35 2h2q10 -51 -47 -109t-60 -86q-28 -43 -28 -94v-84zM109 551q-21 0 -41 18q-10 383 45 693v96q0 66 16 102q16 14 44 14t46 -14h66q49 0 69 -16q-2 -10 -2 -31t31 -73t31 -74q-1 -37 -60 -62v-2q-39 -72 -46 -222t-17 -185q-25 -104 -117 -150
q-12 -29 -24 -59q-20 -35 -41 -35zM242 -408v31q2 20 2 40t-11 38q18 18 78 20t70 5q37 10 37 51q0 12 -2 28l10 11q23 -13 29 -18t12 -23q-51 -41 -58 -155t-49 -152q-10 -14 -21 -83t-48 -69q-20 0 -47 10q24 151 43 193q-45 18 -45 73z" />
    <glyph glyph-name="Lacute" unicode="&#x139;" horiz-adv-x="665" 
d="M195 141q6 -4 19 -4t56 29q35 20 107 6t108 8q17 -8 59 -3t56 3q16 -49 16 -106l-2 -111q-27 -4 -59 -4l-233 16q-78 0 -127 -26q-9 39 -55 94t-46 88t10 62q-8 14 -8 36l23 144q0 59 -66 59v434q53 39 103 39q-29 240 -2 484q211 0 284 -25l-39 -369q-23 -14 -59 -14
h-68q-4 -23 -36 -32t-41 -17q21 -15 69 -13q48 1 60 1q2 -49 2 -128q0 -78 -14 -270t-15 -227q14 -10 14 -21l-16 -43q0 -6 4 -14q-68 2 -104 -76zM332 1644q0 -9 33 -49q-13 -8 -55 -56t-66 -48t-41 8v66q82 8 82 71l-4 62q0 41 22 63h96q63 -2 66 -39l-129 -61
q-4 -8 -4 -17z" />
    <glyph glyph-name="lacute" unicode="&#x13a;" horiz-adv-x="360" 
d="M293 687q0 -339 16 -683h2q-8 -45 -94 -59l-12 16q-6 -16 -33 -16h-29l-16 16q-6 -14 -45 -18q-16 143 -15 427t-1 357q-2 72 -13 166q14 19 5 77t10 85q-16 27 -16 67t18 70q-2 10 -1 68t-16 79q0 66 68 66l69 -4q39 0 56 16q39 -12 63 -61q-16 -330 -16 -669zM178 1672
q0 -10 33 -48q-14 -8 -55 -56q-42 -48 -66 -48t-41 8v65q82 8 82 72l-4 61q0 41 23 64h96q63 -2 65 -39l-129 -61q-4 -8 -4 -18z" />
    <glyph glyph-name="Lcedilla" unicode="&#x13b;" horiz-adv-x="665" 
d="M195 141q6 -4 19 -4t56 29q35 20 107 6t108 8q17 -8 59 -3t56 3q16 -49 16 -106l-2 -111q-27 -4 -59 -4l-233 16q-78 0 -127 -26q-9 39 -55 94t-46 88t10 62q-8 14 -8 36l23 144q0 59 -66 59v434q53 39 103 39q-29 240 -2 484q211 0 284 -25l-39 -369q-23 -14 -59 -14
h-68q-4 -23 -36 -32t-41 -17q21 -15 69 -13q48 1 60 1q2 -49 2 -128q0 -78 -14 -270t-15 -227q14 -10 14 -21l-16 -43q0 -6 4 -14q-68 2 -104 -76zM225 -373v31q2 20 2 40t-10 38q18 18 78 20t70 4q37 10 36 52q0 12 -2 28l11 10q22 -12 28 -17t13 -23q-51 -41 -59 -155
t-48 -153q-10 -14 -21 -82t-49 -69q-20 0 -47 10q23 145 43 193q-45 18 -45 73z" />
    <glyph glyph-name="lcedilla" unicode="&#x13c;" horiz-adv-x="360" 
d="M293 687q0 -339 16 -683h2q-8 -45 -94 -59l-12 16q-6 -16 -33 -16h-29l-16 16q-6 -14 -45 -18q-16 143 -15 427t-1 357q-2 72 -13 166q14 19 5 77t10 85q-16 27 -16 67t18 70q-2 10 -1 68t-16 79q0 66 68 66l69 -4q39 0 56 16q39 -12 63 -61q-16 -330 -16 -669zM72 -379
v31q2 20 2 40t-11 38q18 18 78 20t70 4q37 10 37 51q0 12 -2 29l10 10q23 -12 29 -17t12 -24q-51 -41 -58 -155t-49 -152q-10 -14 -21 -82t-48 -69q-20 0 -47 10q23 149 43 192q-45 18 -45 74z" />
    <glyph glyph-name="Lcaron" unicode="&#x13d;" horiz-adv-x="665" 
d="M195 141q6 -4 19 -4t56 29q35 20 107 6t108 8q17 -8 59 -3t56 3q16 -49 16 -106l-2 -111q-27 -4 -59 -4l-233 16q-78 0 -127 -26q-9 39 -55 94t-46 88t10 62q-8 14 -8 36l23 144q0 59 -66 59v434q53 39 103 39q-29 240 -2 484q211 0 284 -25l-39 -369q-23 -14 -59 -14
h-68q-4 -23 -36 -32t-41 -17q21 -15 69 -13q48 1 60 1q2 -49 2 -128q0 -78 -14 -270t-15 -227q14 -10 14 -21l-16 -43q0 -6 4 -14q-68 2 -104 -76zM356 1491q-78 0 -129 94q-68 131 -104 160l131 -4q12 -131 51 -131q15 0 99 76t141 49q0 -55 -35 -115t-66 -113
q-51 -16 -88 -16z" />
    <glyph glyph-name="lcaron" unicode="&#x13e;" horiz-adv-x="360" 
d="M293 687q0 -339 16 -683h2q-8 -45 -94 -59l-12 16q-6 -16 -33 -16h-29l-16 16q-6 -14 -45 -18q-16 143 -15 427t-1 357q-2 72 -13 166q14 19 5 77t10 85q-16 27 -16 67t18 70q-2 10 -1 68t-16 79q0 66 68 66l69 -4q39 0 56 16q39 -12 63 -61q-16 -330 -16 -669zM203 1520
q-78 0 -129 94q-68 131 -105 160l131 -5q12 -131 52 -131q16 0 99 76t140 49q0 -55 -35 -115t-65 -112q-51 -16 -88 -16z" />
    <glyph glyph-name="Nacute" unicode="&#x143;" horiz-adv-x="776" 
d="M192 137q22 0 37 -8q16 16 27 12q33 -15 19 -61t6 -66q-51 -14 -64 -18q-35 -14 -37 -43l-76 61q-6 -8 -41 -12q-12 16 -11 55t-1 47q25 0 72 16t69 17zM506 1217q0 18 14 48t17 38q15 5 34 -27q90 25 156 2l-12 -1059l12 -14v-225q-10 -37 -37 -37l-67 12q-20 0 -35 -14
q-27 10 -56 23t-36 40q55 78 55 152q0 18 -2 37q16 129 -25 180l-14 -13q-8 12 -18 26t-24 15q-14 0 -22 -4q10 61 -64 101t-87 67q-29 -49 -13 -159t11 -136q-10 -72 -100 -88q-12 12 -48 10t-43 1q-45 551 -39 1110q37 14 116 12t116 12l78 -137q16 -117 88 -244v-90
q-37 25 -81 69l-85 85q2 -23 -27 -28t-28 -19q0 -6 4 -17q78 -48 166 -108t88 -146q0 -12 -2 -26l41 -43q12 10 12 18q0 9 -13 25t-12 26v174q0 104 -16 168q14 20 14 43l-16 101v39zM387 1582q0 -9 33 -48q-14 -8 -56 -56t-65 -48q-24 0 -41 8v65q82 8 82 72l-4 61
q0 41 22 64h97q63 -2 65 -39l-129 -62q-4 -8 -4 -17z" />
    <glyph glyph-name="nacute" unicode="&#x144;" horiz-adv-x="665" 
d="M156 20q-63 0 -93 17q-10 31 -10 67t20 104q19 70 19 114t-47 90q49 92 49 209q0 23 -2 47q41 0 53 51q20 78 23 82l-33 196q39 19 80 19t57 -33v-41q-2 -25 15 -35q55 72 153 109q43 -14 86 -27q47 -23 60 -65v-207q0 -113 18 -199l-2 -65q0 -49 16 -72l-16 -363
q-23 -18 -72 -12t-63 0l-10 14q-11 -16 -19 -16t-27 14t-34 2l-15 347l46 30l-43 29q2 11 2 246q0 145 -52 235q-47 -63 -52 -165t-5 -197l-16 -15q12 -4 16 -43l-16 -16q10 -6 16 -43l-2 -166q-16 -27 -16 -59l18 -125q0 -31 -16 -58h-86zM330 1275q0 -9 32 -48
q-14 -9 -55 -57t-65 -48t-41 8v66q82 8 82 72l-4 61q0 41 22 64h96q63 -2 66 -39l-129 -62q-4 -8 -4 -17z" />
    <glyph glyph-name="Ncedilla" unicode="&#x145;" horiz-adv-x="776" 
d="M192 137q22 0 37 -8q16 16 27 12q33 -15 19 -61t6 -66q-51 -14 -64 -18q-35 -14 -37 -43l-76 61q-6 -8 -41 -12q-12 16 -11 55t-1 47q25 0 72 16t69 17zM506 1217q0 18 14 48t17 38q15 5 34 -27q90 25 156 2l-12 -1059l12 -14v-225q-10 -37 -37 -37l-67 12q-20 0 -35 -14
q-27 10 -56 23t-36 40q55 78 55 152q0 18 -2 37q16 129 -25 180l-14 -13q-8 12 -18 26t-24 15q-14 0 -22 -4q10 61 -64 101t-87 67q-29 -49 -13 -159t11 -136q-10 -72 -100 -88q-12 12 -48 10t-43 1q-45 551 -39 1110q37 14 116 12t116 12l78 -137q16 -117 88 -244v-90
q-37 25 -81 69l-85 85q2 -23 -27 -28t-28 -19q0 -6 4 -17q78 -48 166 -108t88 -146q0 -12 -2 -26l41 -43q12 10 12 18q0 9 -13 25t-12 26v174q0 104 -16 168q14 20 14 43l-16 101v39zM281 -381v31q2 20 2 40t-11 38q18 18 78 20t70 4q37 10 37 51q0 12 -2 29l10 10
q23 -12 29 -17t12 -24q-50 -41 -58 -155t-49 -152q-10 -14 -21 -82t-48 -69q-20 0 -47 10q23 149 43 192q-45 18 -45 74z" />
    <glyph glyph-name="ncedilla" unicode="&#x146;" horiz-adv-x="665" 
d="M156 20q-63 0 -93 17q-10 31 -10 67t20 104q19 70 19 114t-47 90q49 92 49 209q0 23 -2 47q41 0 53 51q20 78 23 82l-33 196q39 19 80 19t57 -33v-41q-2 -25 15 -35q55 72 153 109q43 -14 86 -27q47 -23 60 -65v-207q0 -113 18 -199l-2 -65q0 -49 16 -72l-16 -363
q-23 -18 -72 -12t-63 0l-10 14q-11 -16 -19 -16t-27 14t-34 2l-15 347l46 30l-43 29q2 11 2 246q0 145 -52 235q-47 -63 -52 -165t-5 -197l-16 -15q12 -4 16 -43l-16 -16q10 -6 16 -43l-2 -166q-16 -27 -16 -59l18 -125q0 -31 -16 -58h-86zM223 -322v31q2 20 2 40t-10 38
q18 18 78 20t69 5q37 10 37 51q0 12 -2 28l11 11q22 -13 28 -18t13 -23q-51 -41 -59 -155t-48 -152q-10 -14 -22 -83t-48 -69q-20 0 -47 10q23 147 43 193q-45 18 -45 73z" />
    <glyph glyph-name="Ncaron" unicode="&#x147;" horiz-adv-x="776" 
d="M192 137q22 0 37 -8q16 16 27 12q33 -15 19 -61t6 -66q-51 -14 -64 -18q-35 -14 -37 -43l-76 61q-6 -8 -41 -12q-12 16 -11 55t-1 47q25 0 72 16t69 17zM506 1217q0 18 14 48t17 38q15 5 34 -27q90 25 156 2l-12 -1059l12 -14v-225q-10 -37 -37 -37l-67 12q-20 0 -35 -14
q-27 10 -56 23t-36 40q55 78 55 152q0 18 -2 37q16 129 -25 180l-14 -13q-8 12 -18 26t-24 15q-14 0 -22 -4q10 61 -64 101t-87 67q-29 -49 -13 -159t11 -136q-10 -72 -100 -88q-12 12 -48 10t-43 1q-45 551 -39 1110q37 14 116 12t116 12l78 -137q16 -117 88 -244v-90
q-37 25 -81 69l-85 85q2 -23 -27 -28t-28 -19q0 -6 4 -17q78 -48 166 -108t88 -146q0 -12 -2 -26l41 -43q12 10 12 18q0 9 -13 25t-12 26v174q0 104 -16 168q14 20 14 43l-16 101v39zM412 1430q-78 0 -129 94q-68 131 -105 159l131 -4q12 -131 51 -131q16 0 100 76t140 49
q0 -55 -35 -115t-65 -112q-51 -16 -88 -16z" />
    <glyph glyph-name="ncaron" unicode="&#x148;" horiz-adv-x="665" 
d="M156 20q-63 0 -93 17q-10 31 -10 67t20 104q19 70 19 114t-47 90q49 92 49 209q0 23 -2 47q41 0 53 51q20 78 23 82l-33 196q39 19 80 19t57 -33v-41q-2 -25 15 -35q55 72 153 109q43 -14 86 -27q47 -23 60 -65v-207q0 -113 18 -199l-2 -65q0 -49 16 -72l-16 -363
q-23 -18 -72 -12t-63 0l-10 14q-11 -16 -19 -16t-27 14t-34 2l-15 347l46 30l-43 29q2 11 2 246q0 145 -52 235q-47 -63 -52 -165t-5 -197l-16 -15q12 -4 16 -43l-16 -16q10 -6 16 -43l-2 -166q-16 -27 -16 -59l18 -125q0 -31 -16 -58h-86zM303 1241q15 0 99 76t141 49
q0 -54 -35 -114t-66 -113q-51 -16 -88 -17q-78 0 -129 95q-68 131 -104 159l131 -4q12 -131 51 -131z" />
    <glyph glyph-name="napostrophe" unicode="&#x149;" horiz-adv-x="1054" 
d="M154 1280q0 96 -103 125l29 164q118 -25 229 4q19 -55 19 -130t-79 -219t-93 -212h-95q29 63 61 138t32 130zM545 20q-63 0 -92 17q-21 66 3 153q25 88 25 132t-47 90q49 92 49 209q0 23 -2 47q41 0 54 51q20 78 22 82l-33 196q39 19 80 19t58 -33v-41q-2 -25 14 -35
q55 72 153 109q43 -14 86 -27q47 -23 60 -65v-207q0 -113 18 -199l-2 -65q1 -49 17 -72l-17 -363q-23 -18 -71 -12t-64 0l-10 14q-10 -16 -18 -16t-28 14q-19 14 -34 2l-14 347l45 30l-43 29q2 11 2 246q0 145 -51 235q-47 -63 -53 -165t-5 -197l-16 -15q12 -4 16 -43
l-16 -16q10 -6 16 -43l-2 -166q-16 -27 -16 -59l18 -125q0 -31 -16 -58h-86z" />
    <glyph glyph-name="Omacron" unicode="&#x14c;" horiz-adv-x="839" 
d="M702 -10l-110 8q-22 0 -41 -23l-27 -51q-10 12 -44 12t-44 15q-6 -14 -21 -14h-30q2 10 -14 26q-8 -16 -41 -15t-23 3l-12 12q-15 -16 -27 -11t-12 36q63 14 78 61q-12 29 -53 38t-50 15l-75 -18q-29 0 -39 41q-6 14 -6 25q-1 20 37 26t61 24t65 52q42 33 84 29
q12 -23 20 -84t26 -93t69 -41l19 46q8 27 28 30q18 1 51 -21t49 -22t31 6q19 -18 33 -60t18 -52zM658 168q-12 0 -35 -18q-37 18 -72 37t-31 65l17 10q-21 100 -31 418t-72 465q-16 -6 -16 -25l2 -26l-39 63q-12 -12 -11 -48t-1 -42q-27 4 -39 -14t-25 -37l39 -662l-27 -26
l-12 12q-8 -4 -84 -70q-45 -39 -106 -32q-20 130 -42 280t-22 264q0 305 166 451q17 5 77 27t92 22t58 -12q4 16 24 16t26 2q20 -35 65 -31q111 -80 160 -221q37 -104 44 -260t13 -295l12 -12l3 2q-3 -19 -17 -157t-35 -205q-12 -4 -22 -5q-20 0 -34 32q-13 32 -25 32z
M94 1497q119 0 231 23q113 22 163 22t124 -16q6 -6 36 -58t61 -51q14 0 34 10v-32l-649 8v94z" />
    <glyph glyph-name="omacron" unicode="&#x14d;" horiz-adv-x="710" 
d="M297 -37q0 45 49 82q40 4 56 -44t34 -60q-18 -18 -14 -29q-18 8 -62 12t-61 17q-2 12 -2 22zM569 991q94 -145 95 -362q0 -270 -127 -482q-4 2 -78 23q-45 10 -43 51q-4 -12 -18 -13t-27 -3q25 109 37 269t24 306q-16 12 -14 60t-31 61l-31 -31l-30 74q-96 -302 -13 -766
q-23 -10 -53 -58t-67 -46q-143 178 -144 477q0 240 98 410q94 94 244 94q108 -1 178 -64zM31 1264q119 0 231 22t162 23q51 0 125 -17q6 -6 36 -57t60 -51q14 0 35 10v-33l-649 8v95z" />
    <glyph glyph-name="Ohungarumlaut" unicode="&#x150;" horiz-adv-x="839" 
d="M702 -10l-110 8q-22 0 -41 -23l-27 -51q-10 12 -44 12t-44 15q-6 -14 -21 -14h-30q2 10 -14 26q-8 -16 -41 -15t-23 3l-12 12q-15 -16 -27 -11t-12 36q63 14 78 61q-12 29 -53 38t-50 15l-75 -18q-29 0 -39 41q-6 14 -6 25q-1 20 37 26t61 24t65 52q42 33 84 29
q12 -23 20 -84t26 -93t69 -41l19 46q8 27 28 30q18 1 51 -21t49 -22t31 6q19 -18 33 -60t18 -52zM658 168q-12 0 -35 -18q-37 18 -72 37t-31 65l17 10q-21 100 -31 418t-72 465q-16 -6 -16 -25l2 -26l-39 63q-12 -12 -11 -48t-1 -42q-27 4 -39 -14t-25 -37l39 -662l-27 -26
l-12 12q-8 -4 -84 -70q-45 -39 -106 -32q-20 130 -42 280t-22 264q0 305 166 451q17 5 77 27t92 22t58 -12q4 16 24 16t26 2q20 -35 65 -31q111 -80 160 -221q37 -104 44 -260t13 -295l12 -12l3 2q-3 -19 -17 -157t-35 -205q-12 -4 -22 -5q-20 0 -34 32q-13 32 -25 32z
M561 1544q0 -10 33 -49q-14 -8 -55 -56t-65 -48t-42 8v65q82 8 82 72l-4 61q0 41 22 64h97q63 -2 65 -39l-129 -61q-4 -7 -4 -17zM186 1391q-24 0 -41 8v65q82 8 82 72l-4 61q0 41 23 64h96q63 -2 66 -39l-129 -61q-5 -7 -5 -17t33 -49q-14 -8 -55 -56q-42 -48 -66 -48z" />
    <glyph glyph-name="ohungarumlaut" unicode="&#x151;" horiz-adv-x="710" 
d="M297 -37q0 45 49 82q40 4 56 -44t34 -60q-18 -18 -14 -29q-18 8 -62 12t-61 17q-2 12 -2 22zM569 991q94 -145 95 -362q0 -270 -127 -482q-4 2 -78 23q-45 10 -43 51q-4 -12 -18 -13t-27 -3q25 109 37 269t24 306q-16 12 -14 60t-31 61l-31 -31l-30 74q-96 -302 -13 -766
q-23 -10 -53 -58t-67 -46q-143 178 -144 477q0 240 98 410q94 94 244 94q108 -1 178 -64zM451 1307q0 6 -5 61q0 41 23 64h96q63 -2 66 -39l-129 -62q-4 -8 -4 -17t32 -48q-14 -8 -55 -56t-65 -49q-24 0 -41 8v66q82 8 82 72zM211 1314q0 -9 33 -48q-14 -8 -56 -56t-65 -49
q-24 0 -41 8v66q82 8 82 72l-4 61q0 41 22 64h97q63 -2 65 -39l-129 -62q-4 -8 -4 -17z" />
    <glyph glyph-name="OE" unicode="&#x152;" horiz-adv-x="1150" 
d="M1120 123v2l-2 -2h2zM1055 1102q-35 0 -122 12t-108 14q-29 -43 -28 -120q0 -168 2 -146q29 -16 27 -69t1 -56q-14 -6 -14 -41q-23 8 -47 33h-2l4 -88q8 12 18 18l13 -12q8 4 48 34q39 30 61 30t42 -25q35 -18 46.5 -56t21.5 -75q-92 -4 -152 2q-14 -23 -40.5 -7.5
t-39.5 -4.5v-74l2 -2l3 2q-2 -6 -5 -27v-32q-4 -177 13 -275h155q94 0 164 -14q-16 -43 -13 -107q3 -63 3 -82h-131q-70 0 -125 -14l-39 41q-16 -16 -12 -27q-10 2 -85 1t-108 12q-31 -33 -73 -2l-11 -21q-10 12 -44 12.5t-44 14.5q-6 -14 -24 -14h-27q2 10 -14 26
q-8 -16 -41 -15t-23 3l-12 12q-15 -16 -27 -11t-12 36q63 14 78 61q-12 29 -53 38t-50 15l-75 -18q-29 0 -39 41q-6 14 -6 25q0 20 37.5 26t60.5 24t65 52q42 33 84 29q12 -23 20 -84t26 -93t69 -41l19 46q8 27 28 30h4q2 31 4 66q-10 18 -8 47l15 8v6q-19 102 -29 417
t-72 462q-16 -6 -16 -25l2 -26l-39 63q-12 -12 -11 -48t-1 -42q-27 4 -39 -14l-25 -37l39 -662l-27 -26l-12 12q-8 -4 -84 -70q-45 -39 -106 -32q-20 130 -42 280t-22 264q0 305 166 451q17 5 77 27t92 22t58 -12q4 16 24.5 16t25.5 2q20 -35 65 -31l2 -2q2 33 6 68
q117 -18 300 -15q182 3 239 3q25 -23 24 -60l-22 -147q-18 -2 -53 -2z" />
    <glyph glyph-name="ae" unicode="&#x153;" horiz-adv-x="1130" 
d="M266 542q0 -196 43 -370q23 -6 37 -6q47 0 57 77t33 93q-10 31 -10 84l12 246q0 217 -141 227q-31 -155 -31 -351zM772 893q-51 0 -82 -59q0 -127 15 -162q25 -66 122 -64q31 31 31 92q0 12 -4 62t0 76q-31 55 -82 55zM535 106q-61 0 -123 -98q-33 18 -114 31.5
t-114 30.5q-55 31 -67 98q-80 129 -80 354q0 133 31 332q51 170 278 170q90 0 176 -29q20 -6 50 -6t116 25.5t126 25.5t69 -6q121 -86 155 -248q18 -84 19 -307q-55 33 -148 33q-23 0 -99 -5t-114 -1q-59 -39 -59 -84t31 -113t34 -98q43 -66 125 -66q18 0 39 5q33 27 62 133
q23 2 55.5 -16.5t48.5 -18.5t27 6q8 -66 -55 -137q-51 -49 -101 -99q-49 -26 -102 -26t-140.5 57t-125.5 57z" />
    <glyph glyph-name="Racute" unicode="&#x154;" horiz-adv-x="727" 
d="M360 741q72 0 97 64q8 19 21 121t50 135l2 -2q2 -14 2 100q0 55 -28 82q-18 -29 -30 -97t-32 -97q-51 4 -59 65q-18 100 -18 102v-26l-19 -19q-10 -10 -20 -6l-23 -73q0 -18 23 -29q-10 -65 -3 -167t3 -151q18 -2 34 -2zM606 -20l2 -40q0 -14 -12 -24q-29 23 -77 32
t-91 17q12 279 -35 549v55q2 41 -12 60l-14 -15q0 4 14 16t14 20q0 9 -2 16l-14 14q-39 -12 -39 -64t-29 -65q10 -10 11 -25l-7 -45q0 -18 15 -30v-222q0 -133 -17 -225v-35q-14 2 -32 2l-117 -6q-76 0 -105 39l15 764q-12 57 -13 158v147q-2 109 -14 168q8 39 48 39t91 -16
q24 12 52 12l96 -2q80 0 108 53q37 -2 79 -35t75 -37q84 -70 84 -217q0 -33 -33 -258l-104 -100q23 -60 47 -240t82 -260h-2q-14 -30 -12 -102t1 -74q-10 -4 -26 14q-27 -10 -27 -38zM272 1430q-24 0 -41 8v65q82 8 82 72l-4 61q0 41 23 64h96q63 -2 66 -39l-129 -62
q-5 -8 -5 -17t33 -48q-14 -8 -55 -56q-42 -48 -66 -48z" />
    <glyph glyph-name="racute" unicode="&#x155;" horiz-adv-x="571" 
d="M274 46q0 -54 -30 -85q-23 4 -37 44t-39 46q-10 -25 -23 -47q-12 -27 -39 -29q-16 17 -16 59v44q8 -2 16 -2q29 0 67 40t65 40q8 0 18 -2q18 -54 18 -108zM76 285q0 53 -17 82l78 43q-8 16 -47 16l-43 555q61 33 135 14q11 17 74 17q31 -14 31 -39l-15 -60q0 -25 29 -39
q45 55 92 113q61 63 135 55v-272q-125 18 -166 16q-59 -35 -69 -135q-20 -166 -21 -168l-14 17l-33 -29q8 -14 47 -14q16 -39 16 -91t-16 -90q-38 -28 -76 -54t-68 -26t-52 5v84zM238 1303q0 6 -5 61q0 41 23 63h96q63 -2 66 -38l-129 -62q-4 -8 -4 -17t32 -48
q-14 -8 -55 -56q-42 -48 -66 -49q-24 0 -40 8v66q82 8 82 72z" />
    <glyph glyph-name="Rcedilla" unicode="&#x156;" horiz-adv-x="727" 
d="M360 741q72 0 97 64q8 19 21 121t50 135l2 -2q2 -14 2 100q0 55 -28 82q-18 -29 -30 -97t-32 -97q-51 4 -59 65q-18 100 -18 102v-26l-19 -19q-10 -10 -20 -6l-23 -73q0 -18 23 -29q-10 -65 -3 -167t3 -151q18 -2 34 -2zM606 -20l2 -40q0 -14 -12 -24q-29 23 -77 32
t-91 17q12 279 -35 549v55q2 41 -12 60l-14 -15q0 4 14 16t14 20q0 9 -2 16l-14 14q-39 -12 -39 -64t-29 -65q10 -10 11 -25l-7 -45q0 -18 15 -30v-222q0 -133 -17 -225v-35q-14 2 -32 2l-117 -6q-76 0 -105 39l15 764q-12 57 -13 158v147q-2 109 -14 168q8 39 48 39t91 -16
q24 12 52 12l96 -2q80 0 108 53q37 -2 79 -35t75 -37q84 -70 84 -217q0 -33 -33 -258l-104 -100q23 -60 47 -240t82 -260h-2q-14 -30 -12 -102t1 -74q-10 -4 -26 14q-27 -10 -27 -38zM254 -406v31q2 20 2 40t-10 38q18 19 78 21t69 4q37 10 37 51q0 12 -2 28l10 11
q23 -13 29 -18t12 -23q-51 -41 -58 -155t-48 -152q-9 -14 -21 -83t-49 -69q-20 0 -47 10q24 151 43 193q-45 18 -45 73z" />
    <glyph glyph-name="rcedilla" unicode="&#x157;" horiz-adv-x="571" 
d="M274 46q0 -54 -30 -85q-23 4 -37 44t-39 46q-10 -25 -23 -47q-12 -27 -39 -29q-16 17 -16 59v44q8 -2 16 -2q29 0 67 40t65 40q8 0 18 -2q18 -54 18 -108zM76 285q0 53 -17 82l78 43q-8 16 -47 16l-43 555q61 33 135 14q11 17 74 17q31 -14 31 -39l-15 -60q0 -25 29 -39
q45 55 92 113q61 63 135 55v-272q-125 18 -166 16q-59 -35 -69 -135q-20 -166 -21 -168l-14 17l-33 -29q8 -14 47 -14q16 -39 16 -91t-16 -90q-38 -28 -76 -54t-68 -26t-52 5v84zM178 -360v30q2 20 2 40t-10 38q18 18 78 20t69 5q37 10 37 51q0 12 -2 29l10 10
q23 -13 29 -18t12 -23q-51 -41 -58 -155t-48 -152q-9 -14 -21 -83t-49 -69q-20 0 -47 10q23 147 43 193q-45 18 -45 74z" />
    <glyph glyph-name="Rcaron" unicode="&#x158;" horiz-adv-x="727" 
d="M360 741q72 0 97 64q8 19 21 121t50 135l2 -2q2 -14 2 100q0 55 -28 82q-18 -29 -30 -97t-32 -97q-51 4 -59 65q-18 100 -18 102v-26l-19 -19q-10 -10 -20 -6l-23 -73q0 -18 23 -29q-10 -65 -3 -167t3 -151q18 -2 34 -2zM606 -20l2 -40q0 -14 -12 -24q-29 23 -77 32
t-91 17q12 279 -35 549v55q2 41 -12 60l-14 -15q0 4 14 16t14 20q0 9 -2 16l-14 14q-39 -12 -39 -64t-29 -65q10 -10 11 -25l-7 -45q0 -18 15 -30v-222q0 -133 -17 -225v-35q-14 2 -32 2l-117 -6q-76 0 -105 39l15 764q-12 57 -13 158v147q-2 109 -14 168q8 39 48 39t91 -16
q24 12 52 12l96 -2q80 0 108 53q37 -2 79 -35t75 -37q84 -70 84 -217q0 -33 -33 -258l-104 -100q23 -60 47 -240t82 -260h-2q-14 -30 -12 -102t1 -74q-10 -4 -26 14q-27 -10 -27 -38zM385 1430q-78 0 -129 94q-68 131 -104 159l131 -4q12 -131 51 -131q16 0 99 76t140 49
q0 -55 -36 -121q-33 -53 -64 -106q-51 -16 -88 -16z" />
    <glyph glyph-name="rcaron" unicode="&#x159;" horiz-adv-x="571" 
d="M274 46q0 -54 -30 -85q-23 4 -37 44t-39 46q-10 -25 -23 -47q-12 -27 -39 -29q-16 17 -16 59v44q8 -2 16 -2q29 0 67 40t65 40q8 0 18 -2q18 -54 18 -108zM76 285q0 53 -17 82l78 43q-8 16 -47 16l-43 555q61 33 135 14q11 17 74 17q31 -14 31 -39l-15 -60q0 -25 29 -39
q45 55 92 113q61 63 135 55v-272q-125 18 -166 16q-59 -35 -69 -135q-20 -166 -21 -168l-14 17l-33 -29q8 -14 47 -14q16 -39 16 -91t-16 -90q-38 -28 -76 -54t-68 -26t-52 5v84zM258 1276q16 0 100 76t140 49q0 -55 -35 -115t-66 -112q-51 -16 -88 -17q-78 0 -129 94
q-68 131 -104 160l131 -4q12 -131 51 -131z" />
    <glyph glyph-name="Sacute" unicode="&#x15a;" horiz-adv-x="757" 
d="M72 791q10 6 10 18t-21 33q-14 55 -14 114q0 117 51 207h25q0 -2 12 -26q47 8 113 85t114 76q18 0 41 -8l54 13q174 -74 205 -216q14 -29 12 -95t-2 -70q-33 8 -71 8t-132 -25q-10 23 -10 61v70q-4 70 -62 84q-2 16 -30 45q4 -14 4 -24q0 -27 -50 -38t-42 -54
q-6 -25 -7 -48q0 -78 72 -151q63 -59 127 -119q123 -57 186 -205q-10 -23 -10 -42v-35q2 -16 2 -23q0 -47 -41 -66q12 -24 51 -28t52 -21q-1 -23 -13 -69t-12 -79q0 -32 25 -59h2q-20 -16 -29 -14l-10 14q-40 -86 -146 -112t-198 -51q-27 43 -66 14q-88 45 -147 155t-58 224
q9 0 23 8t27 4q133 0 182 14q4 -8 4 -16l-16 -49q0 -14 24 -23q-14 -8 -14 -18t14 -49q10 -51 57 -51l93 14q49 0 39 -78q28 12 28 57v48q-26 16 -26 60q-1 102 -11 118l-102 100q6 33 -27 41q-45 10 -51 25q-102 102 -153 151l14 12q-30 -2 -58 41t-34 48zM377 1558
q0 -9 33 -49q-14 -8 -56 -56t-65 -48q-24 0 -41 8v66q82 8 82 71l-4 62q0 41 22 63h96q63 -2 66 -39l-129 -61q-4 -8 -4 -17z" />
    <glyph glyph-name="sacute" unicode="&#x15b;" horiz-adv-x="649" 
d="M82 717q0 72 16 145q33 76 164 137q68 -8 197 -43q94 -94 94 -204q0 -25 -4 -52l-135 -16q-4 6 -37 107q-20 63 -68 73q-39 -47 -39 -98t23 -96q53 -36 69 -52t19 -53q23 -43 117 -100t96 -141h2q2 -23 2 -45q0 -111 -66 -226q-8 4 -19 4q-11 1 -23 -21t-17 -26
q-70 -41 -147 -30q-12 -6 -30 -6t-64 25q-46 26 -74 21q-8 23 -72 107q-41 57 -35 119q29 2 80 28t75 27q24 0 42 -6q-2 -14 -2 -27q0 -57 61 -137q6 4 48 15t44 42q8 139 -61 166l-29 31q-6 -16 -15 -16q-10 0 -24 8t-22 8q106 88 106 111q0 10 -18 10l-152 -29
q-23 0 -26 10q-76 72 -76 230zM232 1106q-24 0 -42 8v66q82 8 82 71l-4 62q0 41 23 63h96q63 -2 66 -39l-129 -61q-4 -8 -4 -17t32 -49q-14 -8 -55 -56t-65 -48z" />
    <glyph glyph-name="Scircumflex" unicode="&#x15c;" horiz-adv-x="757" 
d="M72 791q10 6 10 18t-21 33q-14 55 -14 114q0 117 51 207h25q0 -2 12 -26q47 8 113 85t114 76q18 0 41 -8l54 13q174 -74 205 -216q14 -29 12 -95t-2 -70q-33 8 -71 8t-132 -25q-10 23 -10 61v70q-4 70 -62 84q-2 16 -30 45q4 -14 4 -24q0 -27 -50 -38t-42 -54
q-6 -25 -7 -48q0 -78 72 -151q63 -59 127 -119q123 -57 186 -205q-10 -23 -10 -42v-35q2 -16 2 -23q0 -47 -41 -66q12 -24 51 -28t52 -21q-1 -23 -13 -69t-12 -79q0 -32 25 -59h2q-20 -16 -29 -14l-10 14q-40 -86 -146 -112t-198 -51q-27 43 -66 14q-88 45 -147 155t-58 224
q9 0 23 8t27 4q133 0 182 14q4 -8 4 -16l-16 -49q0 -14 24 -23q-14 -8 -14 -18t14 -49q10 -51 57 -51l93 14q49 0 39 -78q28 12 28 57v48q-26 16 -26 60q-1 102 -11 118l-102 100q6 33 -27 41q-45 10 -51 25q-102 102 -153 151l14 12q-30 -2 -58 41t-34 48zM401 1675
q37 0 88 -16q31 -53 66 -113t35 -114q-57 -27 -140 49t-100 75q-39 0 -51 -131l-131 -4q37 29 104 160q51 94 129 94z" />
    <glyph glyph-name="scircumflex" unicode="&#x15d;" horiz-adv-x="649" 
d="M82 717q0 72 16 145q33 76 164 137q68 -8 197 -43q94 -94 94 -204q0 -25 -4 -52l-135 -16q-4 6 -37 107q-20 63 -68 73q-39 -47 -39 -98t23 -96q53 -36 69 -52t19 -53q23 -43 117 -100t96 -141h2q2 -23 2 -45q0 -111 -66 -226q-8 4 -19 4q-11 1 -23 -21t-17 -26
q-70 -41 -147 -30q-12 -6 -30 -6t-64 25q-46 26 -74 21q-8 23 -72 107q-41 57 -35 119q29 2 80 28t75 27q24 0 42 -6q-2 -14 -2 -27q0 -57 61 -137q6 4 48 15t44 42q8 139 -61 166l-29 31q-6 -16 -15 -16q-10 0 -24 8t-22 8q106 88 106 111q0 10 -18 10l-152 -29
q-23 0 -26 10q-76 72 -76 230zM344 1376q37 0 88 -16q32 -52 66 -112t34 -115q-57 -27 -140 49t-99 75q-39 0 -51 -131l-131 -4q37 29 104 160q51 94 129 94z" />
    <glyph glyph-name="Scedilla" unicode="&#x15e;" horiz-adv-x="757" 
d="M72 791q10 6 10 18t-21 33q-14 55 -14 114q0 117 51 207h25q0 -2 12 -26q47 8 113 85t114 76q18 0 41 -8l54 13q174 -74 205 -216q14 -29 12 -95t-2 -70q-33 8 -71 8t-132 -25q-10 23 -10 61v70q-4 70 -62 84q-2 16 -30 45q4 -14 4 -24q0 -27 -50 -38t-42 -54
q-6 -25 -7 -48q0 -78 72 -151q63 -59 127 -119q123 -57 186 -205q-10 -23 -10 -42v-35q2 -16 2 -23q0 -47 -41 -66q12 -24 51 -28t52 -21q-1 -23 -13 -69t-12 -79q0 -32 25 -59h2q-20 -16 -29 -14l-10 14q-41 -86 -158 -116q-51 -12 -101 -25q80 -72 81 -184q0 -27 -4 -53
q-33 -70 -113 -70q-51 0 -84 33l-33 32q39 35 48 35t18 -2l32 -33q2 3 38 39t28 64q-14 33 -51 33q-8 0 -39 -4t-45 0q25 45 29 100q-24 26 -56 2q-88 45 -147 155t-58 224q9 0 23 8t27 4q133 0 182 14q4 -8 4 -16l-16 -49q0 -14 24 -23q-14 -8 -14 -18t14 -49
q10 -51 57 -51l93 14q49 0 39 -78q28 12 28 57v48q-26 16 -26 60q-1 102 -11 118l-102 100q6 33 -27 41q-45 10 -51 25q-102 102 -153 151l14 12q-30 -2 -58 41t-34 48z" />
    <glyph glyph-name="scedilla" unicode="&#x15f;" horiz-adv-x="649" 
d="M82 717q0 72 16 145q33 76 164 137q68 -8 197 -43q94 -94 94 -204q0 -25 -4 -52l-135 -16q-4 6 -37 107q-20 63 -68 73q-39 -47 -39 -98t23 -96q53 -36 69 -52t19 -53q23 -43 117 -100t96 -141h2q2 -23 2 -45q0 -111 -66 -226q-8 4 -19 4q-11 1 -23 -21t-17 -26
q-50 -30 -105 -32q70 -70 70 -175q0 -27 -4 -53q-33 -70 -112 -69q-51 0 -84 32l-33 33q39 35 48 35t17 -2l33 -33q2 4 38 39t28 63q-14 33 -52 33q-8 0 -39 -4t-45 0q26 47 31 106q-14 6 -46 24t-60 13q-8 23 -72 107q-41 57 -35 119q29 2 80 28t75 27q24 0 42 -6
q-2 -14 -2 -27q0 -57 61 -137q6 4 48 15t44 42q8 139 -61 166l-29 31q-6 -16 -15 -16q-10 0 -24 8t-22 8q106 88 106 111q0 10 -18 10l-152 -29q-23 0 -26 10q-76 72 -76 230z" />
    <glyph glyph-name="Scaron" unicode="&#x160;" horiz-adv-x="757" 
d="M72 791q10 6 10 18t-21 33q-14 55 -14 114q0 117 51 207h25q0 -2 12 -26q47 8 113 85t114 76q18 0 41 -8l54 13q174 -74 205 -216q14 -29 12 -95t-2 -70q-33 8 -71 8t-132 -25q-10 23 -10 61v70q-4 70 -62 84q-2 16 -30 45q4 -14 4 -24q0 -27 -50 -38t-42 -54
q-6 -25 -7 -48q0 -78 72 -151q63 -59 127 -119q123 -57 186 -205q-10 -23 -10 -42v-35q2 -16 2 -23q0 -47 -41 -66q12 -24 51 -28t52 -21q-1 -23 -13 -69t-12 -79q0 -32 25 -59h2q-20 -16 -29 -14l-10 14q-40 -86 -146 -112t-198 -51q-27 43 -66 14q-88 45 -147 155t-58 224
q9 0 23 8t27 4q133 0 182 14q4 -8 4 -16l-16 -49q0 -14 24 -23q-14 -8 -14 -18t14 -49q10 -51 57 -51l93 14q49 0 39 -78q28 12 28 57v48q-26 16 -26 60q-1 102 -11 118l-102 100q6 33 -27 41q-45 10 -51 25q-102 102 -153 151l14 12q-30 -2 -58 41t-34 48zM401 1405
q-78 0 -129 94q-68 131 -104 160l131 -4q12 -131 51 -131q16 0 100 76t140 49q0 -55 -35 -115t-66 -113q-51 -16 -88 -16z" />
    <glyph glyph-name="scaron" unicode="&#x161;" horiz-adv-x="649" 
d="M82 717q0 72 16 145q33 76 164 137q68 -8 197 -43q94 -94 94 -204q0 -25 -4 -52l-135 -16q-4 6 -37 107q-20 63 -68 73q-39 -47 -39 -98t23 -96q53 -36 69 -52t19 -53q23 -43 117 -100t96 -141h2q2 -23 2 -45q0 -111 -66 -226q-8 4 -19 4q-11 1 -23 -21t-17 -26
q-70 -41 -147 -30q-12 -6 -30 -6t-64 25q-46 26 -74 21q-8 23 -72 107q-41 57 -35 119q29 2 80 28t75 27q24 0 42 -6q-2 -14 -2 -27q0 -57 61 -137q6 4 48 15t44 42q8 139 -61 166l-29 31q-6 -16 -15 -16q-10 0 -24 8t-22 8q106 88 106 111q0 10 -18 10l-152 -29
q-23 0 -26 10q-76 72 -76 230zM344 1106q-78 0 -129 94q-68 131 -104 160l131 -4q12 -131 51 -131q16 0 99 76t140 49q0 -55 -36 -121q-33 -53 -64 -107q-51 -16 -88 -16z" />
    <glyph glyph-name="Tcedilla" unicode="&#x162;" horiz-adv-x="987" 
d="M590 1174q0 48 -1 61q5 17 23 25q76 -14 98 -14t46 11q14 -37 12 -117t-2 -85l2 -2q-29 4 -95 -1t-98 3q-31 -23 -24 -66l12 -10q-16 -16 -12 -27l10 -14q-20 -362 -20 -430t10 -141q-14 -45 -14 -105l18 -252q0 -33 -4 -61q-23 -10 -48 -12q66 -69 66 -170q0 -27 -4 -54
q-33 -70 -112 -69q-51 0 -84 32l-33 33q39 35 48 35t17 -2l33 -33q2 4 38 39t28 64q-14 33 -51 32q-8 0 -39 -4t-45 0q29 53 30 121l-22 12q-9 -8 -19 -17t-6 -22q-20 -6 -55 25q-2 369 -45 1131q-29 -29 -87 -33t-83 -17q-29 43 -29 110t29 110q36 -16 116 -16t87 1
q8 14 41 15q20 -14 20 -33l-16 -66q0 -25 32 -41q37 -2 76 -2q43 -8 37 -53q8 12 72 39q47 22 47 70zM936 1055h2q-7 -17 -39 -17q-18 27 -12 82t-2 74q0 41 2 47q6 27 37 19q16 -18 16 -52l-6 -88q0 -16 2 -28v-37zM588 1227q1 23 1 8q-1 -4 -1 -8zM588 1227v-4v4z" />
    <glyph glyph-name="tcedilla" unicode="&#x163;" horiz-adv-x="579" 
d="M393 797v47l-14 14zM431 780q-11 0 -21 -10q-23 16 -31 14q-23 -12 -23 -36l13 -74q1 -16 -9 -51t-10 -58l15 -170q-15 -55 -15 -119t29 -182q6 -2 16 -2q11 0 31 18t32 19q12 0 25 -6q31 -121 31 -147t-2 -44q-55 -10 -76 41q4 14 -14 31l-43 -41q59 -12 43 -94
q-6 -16 -27 -16l-33 2l-30 61l-15 -16q-14 43 -36 43q-5 0 -15 -4q84 -73 84 -187q0 -27 -4 -53q-33 -70 -113 -70q-51 0 -83 33l-33 33q39 35 48 35t17 -2l33 -33q2 4 38 39t28 63q-14 33 -52 33q-8 0 -39 -4t-45 0q21 37 28 81q-11 2 -21 9q0 26 -4 52t-25 34q2 63 19 340
t12 430q-10 16 -20 16t-26 -16q-17 -16 -30 -14q0 20 -16 66q-15 46 -15 74t29 52l47 -14q31 39 31 135l-4 117q0 158 104 158q39 0 94 -19l45 -14q4 -27 4 -56l-18 -223q0 -55 14 -100q16 0 52 15t59 15t39 -28v-2q-18 -117 -17 -162q-18 -6 -51 1t-44 7z" />
    <glyph glyph-name="Tcaron" unicode="&#x164;" horiz-adv-x="987" 
d="M590 1174q0 48 -1 61q5 17 23 25q76 -14 98 -14t46 11q14 -37 12 -117t-2 -85l2 -2q-29 4 -95 -1t-98 3q-31 -23 -24 -66l12 -10q-16 -16 -12 -27l10 -14q-20 -362 -20 -430t10 -141q-14 -45 -14 -105l18 -252q0 -33 -4 -61q-29 -12 -73 -12t-105 36q-9 -8 -19 -17
t-6 -22q-20 -6 -55 25q-2 369 -45 1131q-29 -29 -87 -33t-83 -17q-29 43 -29 110t29 110q36 -16 116 -16t87 1q8 14 41 15q20 -14 20 -33l-16 -66q0 -25 32 -41q37 -2 76 -2q43 -8 37 -53q8 12 72 39q47 22 47 70zM936 1055h2q-7 -17 -39 -17q-18 27 -12 82t-2 74q0 41 2 47
q6 27 37 19q16 -18 16 -52l-6 -88q0 -16 2 -28v-37zM465 1497q15 0 99 76t141 49q0 -54 -35 -114t-66 -113q-51 -16 -88 -17q-78 0 -129 95q-68 131 -104 159l131 -4q12 -131 51 -131zM588 1227q1 23 1 8q-1 -4 -1 -8zM588 1227v-4v4z" />
    <glyph glyph-name="tcaron" unicode="&#x165;" horiz-adv-x="968" 
d="M393 797v47l-14 14zM431 780q-11 0 -21 -10q-23 16 -31 14q-23 -12 -23 -36l13 -74q1 -16 -9 -51t-10 -58l15 -170q-15 -55 -15 -119t29 -182q6 -2 16 -2q11 0 31 18t32 19q12 0 25 -6q31 -121 31 -147t-2 -44q-55 -10 -76 41q4 14 -14 31l-43 -41q59 -12 43 -94
q-6 -16 -27 -16l-33 2l-30 61l-15 -16q-14 43 -36 43q-12 -1 -44 -19q-33 -18 -51 -18t-34 10q0 26 -4 52t-25 34q2 63 19 340t12 430q-10 16 -20 16t-26 -16q-17 -16 -30 -14q0 20 -16 66q-15 46 -15 74t29 52l47 -14q31 39 31 135l-4 117q0 158 104 158q39 0 94 -19
l45 -14q4 -27 4 -56l-18 -223q0 -55 14 -100q16 0 52 15t59 15t39 -28v-2q-18 -117 -17 -162q-18 -6 -51 1t-44 7zM733 1280q0 96 -102 125l28 164q119 -25 230 4q18 -55 18 -130q-1 -75 -79 -219t-93 -212h-94q92 200 92 268z" />
    <glyph glyph-name="Utilde" unicode="&#x168;" horiz-adv-x="968" 
d="M236 598q0 -33 36 -128t29 -157q10 -5 15 -31t24 -34q12 14 12 52t-12 50l12 12q-8 4 -14 39q4 15 20 15h31q25 -46 26 -140t27 -141l50 49q24 -23 30 -88t33 -88h2v-26q0 -18 -11 -24t-16 -5q-12 0 -20 18q-14 23 -18 27q-12 -31 -42 -35t-61 -4q-51 88 -59 129
q-21 -21 -10 -70q10 -49 10 -59q-219 113 -219 369q10 22 10 52q-1 30 -15 89t-6 121t8 254t3 221q14 18 14 43l-19 119q0 16 5 30l-15 13q81 43 90 24q10 2 58 0t84 15q30 -31 30 -81t-20 -161q32 -27 22 -84t2 -84q-80 -31 -79 -76q0 -12 4 -26l-13 -15q10 -14 10 -28
t-26 -49q-27 -35 -20 -58q-2 -16 -2 -49zM553 174h37q-2 -8 14 -24l39 112l49 1047q33 16 99 10t92 4l41 -12l2 -2q-14 -166 -43 -496l12 -14q-27 -76 -27 -195l9 -242q0 -219 -105 -315q-33 -11 -70 -27t-47 -47q-37 -2 -63 43q-18 41 -39 82v76zM654 1444q-42 0 -140 66
q-100 66 -149 75l-293 -72q-8 23 -9 46q0 94 101 120q51 25 104 25q88 0 238 -88t209 -88q102 0 170 166q65 -31 65 -87q0 -57 -49 -109t-110 -66q-9 -4 -19 -4t-47 32q-29 -16 -71 -16z" />
    <glyph glyph-name="utilde" unicode="&#x169;" horiz-adv-x="733" 
d="M442 -74l2 50q0 24 -16 32q-6 -14 -15 -14t-29 10t-99 -18q-77 -29 -107 -29t-53 6q-45 47 -55 143q0 78 -2 156l-17 678q35 14 107 14t106 15l29 -29q-16 -143 -15 -433t1 -319q14 -14 14 -34l-10 -64q0 -14 8 -22q18 -4 49 13t44 17t28 -14l32 29v305q0 182 -16 295
l-2 198q125 29 242 0q-14 -61 -15 -135l21 -323q0 -45 -4 -86q-14 4 -33 -15q49 -16 49 -82q0 -10 -2 -22l-16 -15l16 -14h-2q-14 -39 -14 -86v-90q0 -86 -21 -133t-88 -47q-31 0 -72 12q-45 -14 -45 51zM811 1254q0 -56 -49 -108t-111 -67q-8 -4 -18 -4t-47 33
q-29 -16 -71 -16t-141 66t-149 75l-293 -72q-8 23 -8 45q0 94 101 121q51 25 104 25q88 0 238 -88t208 -88q102 -1 170 165q66 -31 66 -87z" />
    <glyph glyph-name="Umacron" unicode="&#x16a;" horiz-adv-x="968" 
d="M236 598q0 -33 36 -128t29 -157q10 -5 15 -31t24 -34q12 14 12 52t-12 50l12 12q-8 4 -14 39q4 15 20 15h31q25 -46 26 -140t27 -141l50 49q24 -23 30 -88t33 -88h2v-26q0 -18 -11 -24t-16 -5q-12 0 -20 18q-14 23 -18 27q-12 -31 -42 -35t-61 -4q-51 88 -59 129
q-21 -21 -10 -70q10 -49 10 -59q-219 113 -219 369q10 22 10 52q-1 30 -15 89t-6 121t8 254t3 221q14 18 14 43l-19 119q0 16 5 30l-15 13q81 43 90 24q10 2 58 0t84 15q30 -31 30 -81t-20 -161q32 -27 22 -84t2 -84q-80 -31 -79 -76q0 -12 4 -26l-13 -15q10 -14 10 -28
t-26 -49q-27 -35 -20 -58q-2 -16 -2 -49zM553 174h37q-2 -8 14 -24l39 112l49 1047q33 16 99 10t92 4l41 -12l2 -2q-14 -166 -43 -496l12 -14q-27 -76 -27 -195l9 -242q0 -219 -105 -315q-33 -11 -70 -27t-47 -47q-37 -2 -63 43q-18 41 -39 82v76zM182 1530q119 0 231 22
q113 22 163 23q50 0 124 -16q6 -5 36 -57t61 -52q14 0 34 10v-33l-649 9v94z" />
    <glyph glyph-name="umacron" unicode="&#x16b;" horiz-adv-x="733" 
d="M442 -74l2 50q0 24 -16 32q-6 -14 -15 -14t-29 10t-99 -18q-77 -29 -107 -29t-53 6q-45 47 -55 143q0 78 -2 156l-17 678q35 14 107 14t106 15l29 -29q-16 -143 -15 -433t1 -319q14 -14 14 -34l-10 -64q0 -14 8 -22q18 -4 49 13t44 17t28 -14l32 29v305q0 182 -16 295
l-2 198q125 29 242 0q-14 -61 -15 -135l21 -323q0 -45 -4 -86q-14 4 -33 -15q49 -16 49 -82q0 -10 -2 -22l-16 -15l16 -14h-2q-14 -39 -14 -86v-90q0 -86 -21 -133t-88 -47q-31 0 -72 12q-45 -14 -45 51zM43 1178q119 0 231 22t162 23q51 0 125 -17q6 -6 36 -57t60 -51
q14 0 35 10v-33l-649 8v95z" />
    <glyph glyph-name="Uring" unicode="&#x16e;" horiz-adv-x="968" 
d="M236 598q0 -33 36 -128t29 -157q10 -5 15 -31t24 -34q12 14 12 52t-12 50l12 12q-8 4 -14 39q4 15 20 15h31q25 -46 26 -140t27 -141l50 49q24 -23 30 -88t33 -88h2v-26q0 -18 -11 -24t-16 -5q-12 0 -20 18q-14 23 -18 27q-12 -31 -42 -35t-61 -4q-51 88 -59 129
q-21 -21 -10 -70q10 -49 10 -59q-219 113 -219 369q10 22 10 52q-1 30 -15 89t-6 121t8 254t3 221q14 18 14 43l-19 119q0 16 5 30l-15 13q81 43 90 24q10 2 58 0t84 15q30 -31 30 -81t-20 -161q32 -27 22 -84t2 -84q-80 -31 -79 -76q0 -12 4 -26l-13 -15q10 -14 10 -28
t-26 -49q-27 -35 -20 -58q-2 -16 -2 -49zM553 174h37q-2 -8 14 -24l39 112l49 1047q33 16 99 10t92 4l41 -12l2 -2q-14 -166 -43 -496l12 -14q-27 -76 -27 -195l9 -242q0 -219 -105 -315q-33 -11 -70 -27t-47 -47q-37 -2 -63 43q-18 41 -39 82v76zM483 1468v-7q0 -5 13 -15
q2 0 12 12t15 12q13 0 18 -16q2 -2 2 -20q-64 -19 -115 16t-86 61q-49 107 -49 159t22 85q27 63 138 109q31 4 57 4q133 0 201 -115q12 -41 12 -80q0 -96 -66 -190q-11 -3 -35 -21t-36 -18t-21 2q-4 8 -4 15t17 13t22 9q78 66 88 211q-20 88 -119 135q-23 4 -45 4
q-133 0 -186 -113q4 -18 4 -43l-2 -59q0 -59 36 -93q36 -33 54 -45q19 -12 53 -12z" />
    <glyph glyph-name="uring" unicode="&#x16f;" horiz-adv-x="733" 
d="M442 -74l2 50q0 24 -16 32q-6 -14 -15 -14t-29 10t-99 -18q-77 -29 -107 -29t-53 6q-45 47 -55 143q0 78 -2 156l-17 678q35 14 107 14t106 15l29 -29q-16 -143 -15 -433t1 -319q14 -14 14 -34l-10 -64q0 -14 8 -22q18 -4 49 13t44 17t28 -14l32 29v305q0 182 -16 295
l-2 198q125 29 242 0q-14 -61 -15 -135l21 -323q0 -45 -4 -86q-14 4 -33 -15q49 -16 49 -82q0 -10 -2 -22l-16 -15l16 -14h-2q-14 -39 -14 -86v-90q0 -86 -21 -133t-88 -47q-31 0 -72 12q-45 -14 -45 51zM323 1112h21v-7q0 -5 12 -15q2 0 12 12t16 12q14 0 17 -16
q2 -2 2 -21q-20 -6 -51 -6t-73 29t-76 55q-49 107 -49 159t22 85q27 63 137 108q31 4 58 4q132 1 200 -114q12 -41 13 -80q0 -96 -66 -191q-10 -2 -40 -23t-52 -13q-4 8 -4 15t17 12t22 9q78 66 88 211q-20 88 -119 136q-23 4 -45 4q-133 0 -186 -113q4 -18 4 -43l-2 -59
q0 -60 36 -94q59 -56 86 -56z" />
    <glyph glyph-name="Uhungarumlaut" unicode="&#x170;" horiz-adv-x="968" 
d="M236 598q0 -33 36 -128t29 -157q10 -5 15 -31t24 -34q12 14 12 52t-12 50l12 12q-8 4 -14 39q4 15 20 15h31q25 -46 26 -140t27 -141l50 49q24 -23 30 -88t33 -88h2v-26q0 -18 -11 -24t-16 -5q-12 0 -20 18q-14 23 -18 27q-12 -31 -42 -35t-61 -4q-51 88 -59 129
q-21 -21 -10 -70q10 -49 10 -59q-219 113 -219 369q10 22 10 52q-1 30 -15 89t-6 121t8 254t3 221q14 18 14 43l-19 119q0 16 5 30l-15 13q81 43 90 24q10 2 58 0t84 15q30 -31 30 -81t-20 -161q32 -27 22 -84t2 -84q-80 -31 -79 -76q0 -12 4 -26l-13 -15q10 -14 10 -28
t-26 -49q-27 -35 -20 -58q-2 -16 -2 -49zM553 174h37q-2 -8 14 -24l39 112l49 1047q33 16 99 10t92 4l41 -12l2 -2q-14 -166 -43 -496l12 -14q-27 -76 -27 -195l9 -242q0 -219 -105 -315q-33 -11 -70 -27t-47 -47q-37 -2 -63 43q-18 41 -39 82v76zM649 1580q0 -9 33 -48
q-14 -8 -55 -56t-65 -49q-24 0 -42 9v65q82 8 82 72l-4 61q0 41 23 64h96q63 -2 65 -39l-129 -62q-4 -8 -4 -17zM274 1427q-24 0 -41 9v65q82 8 82 72l-4 61q0 41 23 64h96q63 -2 66 -39l-129 -62q-5 -8 -5 -17t33 -48q-14 -8 -55 -56q-42 -48 -66 -49z" />
    <glyph glyph-name="uhungarumlaut" unicode="&#x171;" horiz-adv-x="733" 
d="M442 -74l2 50q0 24 -16 32q-6 -14 -15 -14t-29 10t-99 -18q-77 -29 -107 -29t-53 6q-45 47 -55 143q0 78 -2 156l-17 678q35 14 107 14t106 15l29 -29q-16 -143 -15 -433t1 -319q14 -14 14 -34l-10 -64q0 -14 8 -22q18 -4 49 13t44 17t28 -14l32 29v305q0 182 -16 295
l-2 198q125 29 242 0q-14 -61 -15 -135l21 -323q0 -45 -4 -86q-14 4 -33 -15q49 -16 49 -82q0 -10 -2 -22l-16 -15l16 -14h-2q-14 -39 -14 -86v-90q0 -86 -21 -133t-88 -47q-31 0 -72 12q-45 -14 -45 51zM510 1228q0 -9 33 -48q-13 -8 -55 -56t-66 -49q-24 0 -41 8v66
q82 8 82 72l-4 61q0 41 22 64h97q63 -2 65 -39l-129 -62q-4 -8 -4 -17zM223 1228q0 -9 33 -48q-14 -8 -55 -56t-65 -49q-24 0 -42 8v66q82 8 82 72l-4 61q0 41 23 64h96q63 -2 65 -39l-129 -62q-4 -8 -4 -17z" />
    <glyph glyph-name="Wcircumflex" unicode="&#x174;" horiz-adv-x="1216" 
d="M115 12q0 25 16 41q5 119 -23 336t-28 297t6 135q-41 137 -41 277t10 221q25 -16 43 -16t84 11t99 -9l47 -664l26 43q2 4 18 152t60 211q-4 180 57 241q160 -18 211 -14q12 -336 95 -633q8 5 16 27t29 18l14 -16q72 264 106 395t58 283q-18 2 102 2q55 0 80 -31l2 2
q-26 -163 -58 -341t-95 -294q-29 -184 -91 -557q9 -18 3 -66q-6 -47 -3 -65q-42 -20 -122 -12t-117 -2q-45 166 -45 342q0 45 2 90q-106 41 -107 135v80q0 47 -16 69q12 6 12 17q0 -2 -26 45q-96 -602 -152 -795l14 -14q-20 -20 -16 -31q-39 17 -225 17q-45 23 -45 73z
M594 1604q-39 0 -51 -131l-131 -5q37 29 104 160q51 94 129 94q37 0 88 -16q31 -52 66 -112t35 -115q-56 -27 -140 49t-100 76z" />
    <glyph glyph-name="wcircumflex" unicode="&#x175;" horiz-adv-x="905" 
d="M718 397q10 0 52 -14q4 -90 -31 -143q2 -16 2 -44t-12 -98t-14 -96q-45 -12 -101 -12t-96 12q-23 70 -34 186t-21 224q12 -4 22 6t19 18q-33 -2 -38 38t-30 40q-47 -52 -52 -220t-11 -196q-23 -102 -123 -102q-43 0 -103 16q-35 154 -46 457t-44 453q-14 10 -14 19t12 48
q29 15 67 15t64 -15q10 15 16 15t50 -13q27 -51 29 -172t24 -162q16 8 12 39q80 -8 167 -17t139 -46q0 -45 2 -56t22 -22q9 125 21 260t47 225h170l2 2q-31 -309 -119 -579q-4 2 -32 1t-36 11q-27 -10 -26 -26q0 -10 13 -33t13 -33q8 14 18 14zM610 788q0 -38 -2 -63
l-18 -18q-10 -10 -6 -21q-27 -4 -47 21q-21 25 -33 25t-27 -7q-12 23 -67 5t-64 32q8 26 13 146t53 159q24 -29 96 -28t74 1q2 -31 15 -122q13 -92 13 -130zM436 1325q-39 0 -51 -131l-131 -4q37 29 104 160q51 94 129 94q37 0 88 -17q31 -53 66 -113t35 -114
q-57 -27 -140 49t-100 76z" />
    <glyph glyph-name="Ycircumflex" unicode="&#x176;" horiz-adv-x="798" 
d="M204 1286q85 0 118 -45q12 -33 45 -203t94 -243q33 78 52 191t36 218q-39 23 -35 74q16 4 33 4q51 0 110 -47q43 -41 88 -82h3q4 -10 4 -16q0 -13 -22 -19t-25 -10q-35 -6 -45 -51t-27 -56q-4 -41 -27 -137q-22 -96 -22 -148t22 -95q-16 -32 -39 -164q-12 3 -26 -15
t-19 -20q-8 -16 -8 -37t25 -57t25 -58q0 -21 -32 -45q0 -8 5 -33t-2 -28q-27 -30 -27 -60t41 -112q-10 -14 -66 -15l-104 5q-10 63 -10 153l8 275q0 90 -10 155q-18 -18 -15 -33q-43 2 -57 58q-12 45 -25 90q-36 98 -78 204t-90 181q-14 23 -20 88t-35 90q72 43 157 43z
M371 1540q-39 0 -52 -131l-131 -4q37 29 105 160q51 94 129 94q37 0 88 -17q32 -52 66 -112t34 -115q-57 -27 -140 49t-99 76z" />
    <glyph glyph-name="ycircumflex" unicode="&#x177;" horiz-adv-x="684" 
d="M98 -84q39 0 78 29q2 10 15 29q13 18 13 28t-14 21q0 51 3 104q-2 70 -17 109q21 42 22 72t-34 46q0 58 -26 160t-26 150v97q1 50 -14 79q-2 20 -15 72t-13 80t14 46h197q12 -45 55 -315q-2 -8 -2 -23q0 -16 12 -56t14 -54q31 68 53 210t40 197q10 -4 22 -4l98 17
q41 0 64 -39l2 2q-1 -11 -65 -251t-85 -368q-27 -51 -51 -165t-51 -164q8 -80 -34 -157t-109 -118q-8 4 -17 4l-82 -18q-18 0 -32 12q-82 0 -119 14q-42 163 22 170q43 -16 82 -16zM330 1415q37 0 88 -16q32 -53 66 -113t34 -115q-57 -27 -140 49t-99 76q-39 0 -52 -131
l-131 -4q37 29 105 160q51 94 129 94z" />
    <glyph glyph-name="Ydieresis" unicode="&#x178;" horiz-adv-x="798" 
d="M204 1286q85 0 118 -45q12 -33 45 -203t94 -243q33 78 52 191t36 218q-39 23 -35 74q16 4 33 4q51 0 110 -47q43 -41 88 -82h3q4 -10 4 -16q0 -13 -22 -19t-25 -10q-35 -6 -45 -51t-27 -56q-4 -41 -27 -137q-22 -96 -22 -148t22 -95q-16 -32 -39 -164q-12 3 -26 -15
t-19 -20q-8 -16 -8 -37t25 -57t25 -58q0 -21 -32 -45q0 -8 5 -33t-2 -28q-27 -30 -27 -60t41 -112q-10 -14 -66 -15l-104 5q-10 63 -10 153l8 275q0 90 -10 155q-18 -18 -15 -33q-43 2 -57 58q-12 45 -25 90q-36 98 -78 204t-90 181q-14 23 -20 88t-35 90q72 43 157 43z
M336 1452q0 -45 -33 -63q-125 29 -135 29t-29 -5l-4 131l197 4q-4 -16 0 -52t4 -44zM642 1458q9 0 17 2l5 -65q-109 0 -140 4t-61 57v96l196 2l-65 -65q39 -31 48 -31z" />
    <glyph glyph-name="Zacute" unicode="&#x179;" horiz-adv-x="704" 
d="M657 -53v-2v2zM358 1210v-2l2 2h-2zM352 1678q0 -10 33 -48q-14 -8 -55 -56q-42 -48 -66 -48t-41 8v65q82 8 82 72l-4 62q0 41 23 63h96q63 -2 65 -39l-129 -61q-4 -8 -4 -18zM242 -96q-14 0 -34 5t-153 -22q5 165 59 375t103 400q57 -2 67 68t46 87q6 133 22 193
q27 104 101 143q-4 45 23 123q28 78 24 121q59 27 98 26q59 0 53 -63q4 -10 4 -21q0 -45 -45 -59q-2 -12 -51 -319q-31 -193 -98 -304q-6 -98 -52 -281t-49 -190q0 -78 29 -77q8 0 37 11q28 11 106 14t101 5q20 -47 20 -97t-12 -83l16 -14q-22 -34 -57 -33q-8 0 -16 2
q-6 12 -13 12l-26 -16q-2 0 -24 7t-42 7l-88 -6q-88 0 -84 86q-21 -12 -29 -56t-36 -44zM243 1047q-9 0 -27 17t-26 17q-10 0 -22 -18l-16 16q-31 -49 -89 -49l-12 223q78 3 156 7t147 -9l4 -41q-37 -16 -49 -82t-49 -75q-8 -6 -17 -6z" />
    <glyph glyph-name="zacute" unicode="&#x17a;" horiz-adv-x="735" 
d="M606 -57h2q6 1 2 1t-4 -1zM422 752q0 36 -51 36l-101 -18q-25 0 -45 14l-22 -14l-43 12q-14 116 -14 138t12 49q72 -29 194 -29q29 0 105 3t112 1q10 -4 23 -4l59 12q21 1 35 -22q-2 -43 -2 -86q-8 -47 -39 -72q0 -47 -22 -103t-43 -108q-33 0 -39 12l-11 -12
q-10 18 -48 39t-46 27q-6 -12 -43 -13q-14 10 -12 42t2 34q39 38 39 62zM365 1228q0 -9 32 -48q-14 -8 -55 -56q-42 -48 -66 -49q-24 0 -40 8v66q82 8 81 72l-4 61q0 41 23 64h96q63 -2 66 -39l-129 -62q-4 -8 -4 -17zM492 -47q-12 0 -43 -23q-195 33 -394 2q-6 33 -6 68
q0 131 72 270q33 0 39 15q-10 33 -10 75t28 132q28 89 35 122q6 2 21 14q14 12 24 13q10 0 16 -2q4 -31 39 -39q27 -4 56 -8q45 4 69 -29q-10 -59 -67 -199t-58 -219q0 -23 4 -45q201 35 289 29q-4 -16 -4 -33l19 -106q-1 -24 -14 -46q-76 7 -93 -14q-10 23 -22 23z" />
    <glyph glyph-name="Zdotaccent" unicode="&#x17b;" horiz-adv-x="704" 
d="M657 -53v-2v2zM358 1210v-2l2 2h-2zM221 1618q0 115 2 104l-2 64q39 16 128 14t128 17q10 -29 10 -55t-7 -96q-7 -68 -1 -107v-3q-12 6 -26 -14l-123 17q-45 0 -76 -33q-33 27 -33 92zM242 -96q-14 0 -34 5t-153 -22q5 165 59 375t103 400q57 -2 67 68t46 87
q6 133 22 193q27 104 101 143q-4 45 23 123q28 78 24 121q59 27 98 26q59 0 53 -63q4 -10 4 -21q0 -45 -45 -59q-2 -12 -51 -319q-31 -193 -98 -304q-6 -98 -52 -281t-49 -190q0 -78 29 -77q8 0 37 11q28 11 106 14t101 5q20 -47 20 -97t-12 -83l16 -14q-22 -34 -57 -33
q-8 0 -16 2q-6 12 -13 12l-26 -16q-2 0 -24 7t-42 7l-88 -6q-88 0 -84 86q-21 -12 -29 -56t-36 -44zM243 1047q-9 0 -27 17t-26 17q-10 0 -22 -18l-16 16q-31 -49 -89 -49l-12 223q78 3 156 7t147 -9l4 -41q-37 -16 -49 -82t-49 -75q-8 -6 -17 -6z" />
    <glyph glyph-name="zdotaccent" unicode="&#x17c;" horiz-adv-x="735" 
d="M606 -57h2q6 1 2 1t-4 -1zM422 752q0 36 -51 36l-101 -18q-25 0 -45 14l-22 -14l-43 12q-14 116 -14 138t12 49q72 -29 194 -29q29 0 105 3t112 1q10 -4 23 -4l59 12q21 1 35 -22q-2 -43 -2 -86q-8 -47 -39 -72q0 -47 -22 -103t-43 -108q-33 0 -39 12l-11 -12
q-10 18 -48 39t-46 27q-6 -12 -43 -13q-14 10 -12 42t2 34q39 38 39 62zM233 1167q0 115 3 105l-3 63q39 17 128 15t128 16q11 -30 11 -56t-7 -94t-1 -108v-2q-12 6 -27 -14l-123 16q-45 0 -76 -33q-33 27 -33 92zM492 -47q-12 0 -43 -23q-195 33 -394 2q-6 33 -6 68
q0 131 72 270q33 0 39 15q-10 33 -10 75t28 132q28 89 35 122q6 2 21 14q14 12 24 13q10 0 16 -2q4 -31 39 -39q27 -4 56 -8q45 4 69 -29q-10 -59 -67 -199t-58 -219q0 -23 4 -45q201 35 289 29q-4 -16 -4 -33l19 -106q-1 -24 -14 -46q-76 7 -93 -14q-10 23 -22 23z" />
    <glyph glyph-name="Zcaron" unicode="&#x17d;" horiz-adv-x="704" 
d="M657 -53v-2v2zM358 1210v-2l2 2h-2zM377 1526q-78 0 -129 94q-68 131 -105 160l131 -4q12 -131 52 -131q16 -1 99 75t140 49q0 -55 -35 -114t-65 -113q-51 -16 -88 -16zM242 -96q-14 0 -34 5t-153 -22q5 165 59 375t103 400q57 -2 67 68t46 87q6 133 22 193
q27 104 101 143q-4 45 23 123q28 78 24 121q59 27 98 26q59 0 53 -63q4 -10 4 -21q0 -45 -45 -59q-2 -12 -51 -319q-31 -193 -98 -304q-6 -98 -52 -281t-49 -190q0 -78 29 -77q8 0 37 11q28 11 106 14t101 5q20 -47 20 -97t-12 -83l16 -14q-22 -34 -57 -33q-8 0 -16 2
q-6 12 -13 12l-26 -16q-2 0 -24 7t-42 7l-88 -6q-88 0 -84 86q-21 -12 -29 -56t-36 -44zM243 1047q-9 0 -27 17t-26 17q-10 0 -22 -18l-16 16q-31 -49 -89 -49l-12 223q78 3 156 7t147 -9l4 -41q-37 -16 -49 -82t-49 -75q-8 -6 -17 -6z" />
    <glyph glyph-name="zcaron" unicode="&#x17e;" horiz-adv-x="735" 
d="M606 -57h2q6 1 2 1t-4 -1zM422 752q0 36 -51 36l-101 -18q-25 0 -45 14l-22 -14l-43 12q-14 116 -14 138t12 49q72 -29 194 -29q29 0 105 3t112 1q10 -4 23 -4l59 12q21 1 35 -22q-2 -43 -2 -86q-8 -47 -39 -72q0 -47 -22 -103t-43 -108q-33 0 -39 12l-11 -12
q-10 18 -48 39t-46 27q-6 -12 -43 -13q-14 10 -12 42t2 34q39 38 39 62zM338 1194q16 0 100 76t140 49q0 -55 -35 -115t-66 -112q-51 -16 -88 -17q-78 0 -129 94q-68 131 -104 160l131 -4q12 -131 51 -131zM492 -47q-12 0 -43 -23q-195 33 -394 2q-6 33 -6 68q0 131 72 270
q33 0 39 15q-10 33 -10 75t28 132q28 89 35 122q6 2 21 14q14 12 24 13q10 0 16 -2q4 -31 39 -39q27 -4 56 -8q45 4 69 -29q-10 -59 -67 -199t-58 -219q0 -23 4 -45q201 35 289 29q-4 -16 -4 -33l19 -106q-1 -24 -14 -46q-76 7 -93 -14q-10 23 -22 23z" />
    <glyph glyph-name="slong" unicode="&#x17f;" horiz-adv-x="585" 
d="M391 1039q0 -54 19 -111q8 -5 16 -107q-47 -143 -47 -401v-197q0 -168 -17 -270q-47 -6 -180 29l-12 -17q-16 150 -16 457v326l-29 75l-23 -47q-12 -27 -36 -28q-17 31 -17 165q8 2 24.5 12.5t27.5 10.5t24 -23q18 45 30.5 143t34.5 156t84 91q14 -4 40 1t34 5t14 -6
q18 16 39 16l88 -21q14 0 26 4q43 -129 -13 -180q-10 14 -20 14t-58 -12q-33 -31 -33 -85zM515 1302q1 0 1 1l-2 2q1 -2 1 -3z" />
    <glyph glyph-name="florin" unicode="&#x192;" horiz-adv-x="716" 
d="M242 1171q0 270 151 349l230 4l4 -131q-119 8 -162 -62q-31 -47 -31 -160v-84q0 -109 -26 -157l65 -62q11 25 77 25h120v-66q-27 -5 -100 11t-103 16q-68 0 -90 -55q-25 -315 -82 -949q-113 -102 -221 -102q-55 0 -101 31l-4 98q27 -4 45 -4q70 0 95 57q14 31 21 120
t28 122q2 4 -2 74q0 43 34 57q-26 41 -26 90t24 135t29 103l-33 33q31 14 31 53q0 88 -2 78l-68 65q-12 -27 -40.5 -30t-55.5 -5l-35 33q18 16 58 16l88 -6q82 0 84 90q2 39 0 113t-2 100z" />
    <glyph glyph-name="Tonetwo" unicode="&#x1a7;" horiz-adv-x="757" 
d="M111 426l2 58q0 20 -11 42q63 147 187 205q63 59 127 119q72 74 71 151q0 23 -6 48q8 43 -42 54t-50 38q0 10 4 24q-29 -29 -31 -45q-57 -14 -61 -84v-67q0 -41 -10 -64q-94 25 -132 25t-71 -8q0 4 -2 70t12 95q31 141 205 216l53 -13q23 8 41 8q49 0 115 -76t113 -85
q12 25 12 26h25q51 -90 51 -207q0 -59 -15 -114q-20 -20 -20 -32.5t10 -18.5q-6 -3 -34 -47t-58 -42l14 -12q-51 -49 -153 -151q-6 -13 -45 -23t-33 -43l-103 -100q-9 -15 -11 -118q-1 -44 -25 -60v-58q0 -35 28 -47q-10 78 39 78l92 -14q47 0 58 51q14 39 14 49t-14 18
q25 8 24 23l-16 49q0 8 4 16q49 -14 182 -14q12 4 26.5 -4t22.5 -8q2 -115 -57 -224.5t-147 -154.5q-39 29 -66 -14q-92 25 -198 51t-146 112l-10 -14q-8 -2 -29 14h2q25 27 25 59t-12.5 79t-12.5 69q12 16 51 20.5t52 28.5q-41 18 -41 66z" />
    <glyph glyph-name="tonetwo" unicode="&#x1a8;" horiz-adv-x="649" 
d="M397 268q0 12 -2 27q18 6 42 6t75 -26.5t80 -28.5q6 -61 -35 -119q-63 -84 -72 -107q-29 4 -74 -21.5t-63 -25.5t-31 7q-78 -10 -147 30q-4 4 -16 26t-24 21q-12 0 -19 -4q-66 115 -66 226q0 23 2 45h2q2 84 96 141t117 100q2 37 18 53t70 52q23 45 23 96t-39 98
q-47 -10 -68 -73q-33 -100 -37 -107l-135 16q-4 27 -4 52q0 111 94 204q129 35 197 43q131 -61 164 -137q16 -74 16 -145q0 -158 -76 -230q-4 -10 -26 -10l-152 29q-18 0 -18 -10q0 -23 106 -111l-43 -16q-12 0 -18 16l-29 -31q-70 -27 -61 -166q2 -31 44 -42t48 -15
q61 80 61 137z" />
    <glyph glyph-name="clickdental" unicode="&#x1c0;" horiz-adv-x="329" 
d="M258 900q0 -95 -15.5 -284.5t-15.5 -323.5t41 -249q-24 -27 -110 -27t-87 -4t-1 72t32 102q27 2 56.5 5.5t42.5 23.5l-99 47q-14 63 -14 133t16.5 195t16.5 210t-39 171q31 75 31 203t-43 217l196 2q25 -52 -1.5 -122.5t-26.5 -104.5t34 -68l-28 -25q14 -78 14 -173z" />
    <glyph glyph-name="clicklateral" unicode="&#x1c1;" horiz-adv-x="729" 
d="M596 292q0 -134 41 -249q-25 -27 -111 -27t-87 -4t-1 72t33 102q27 2 56.5 5.5t41.5 23.5l-98 47q-14 63 -14 133t16 195t16 210t-38 171q31 75 31 203t-44 217l197 2q12 -25 12 -54t-20.5 -84t-20.5 -89t35 -68l-29 -25q25 -141 4.5 -394t-20.5 -387zM90 501
q0 95 15.5 284.5t15.5 323.5t-41 249q24 26 110 26t87.5 5t1.5 -71t-33 -104q-27 -2 -56.5 -5t-42.5 -23l99 -47q14 -63 14 -133t-16.5 -195t-16.5 -210t39 -171q-30 -74 -30 -202t43 -218l-197 -2q-12 26 -12 54t20.5 83t20.5 89t-35 69l28 25q-14 78 -14 173z" />
    <glyph glyph-name="clickalveolar" unicode="&#x1c2;" horiz-adv-x="1163" 
d="M637 334q0 -176 41 -291q-24 -27 -110 -27t-87.5 -4t-1.5 72t33 102q27 2 56.5 5.5t41.5 23.5l-98 47q-14 63 -14 137v21q-22 0 -76 4t-78 -2q-12 61 -98 61t-99 -63q-8 -4 -16 -4t-49 33q35 35 35 48t-2 21l-37 29q98 43 219 43t207 -33q7 15 17 86q9 72 9 126t-8 99
l-413 6v95q109 0 237 12t154 14q22 67 22 187t-43 209l197 2q12 -25 12 -54t-20.5 -84t-20.5 -89t35 -68l-29 -25q4 -31 9 -65q66 4 142 4t152 -19q6 -6 36 -57t61 -51q14 0 34 10v-33l-419 4q-2 -88 -10 -176t-9 -98h19q2 -27 6 -56.5t31 -41.5q18 -6 65 36l-37 29
q49 33 89 33t141 -22q100 -22 163 -1l-28 -133q-27 2 -58 2l-229 -10q-104 0 -170 37q-4 -80 -4 -131z" />
    <glyph glyph-name="clickretroflex" unicode="&#x1c3;" horiz-adv-x="417" 
d="M233 774h-26l-41 -63zM342 98q0 -68 -31 -112q-14 12 -75 14l-17 -12q-19 14 -37 65t-26 66q-39 -29 -68 10l2 104q39 4 88 0q105 17 148 15q16 -82 16 -150zM319 942q0 -74 -21 -262t-24 -277q-16 -5 -30 5t-27 20l4 31q2 18 -12 24l-51 -26q-35 55 -29 143q27 8 26 45
t15 47q-6 17 -53 17q-16 242 -41 708q27 20 79 6t78 11l13 -17q37 33 80 2q22 -23 22 -53t-9 -74l-11 -88q-2 -18 -19 -24q16 -14 17 -31l-19 -66q0 -10 6 -18q6 -49 6 -123z" />
    <glyph glyph-name="DZcaron" unicode="&#x1c4;" horiz-adv-x="1519" 
d="M627 1219l-13 12l-8 -8zM456 -43q-44 0 -71 12q-25 -23 -45 -23t-36 2q-16 1 -32 1q-18 0 -41 -15q-16 12 -56 12t-48 1q-35 47 -38 137t-13 127l14 12q-14 9 -14 31t12 33q45 0 120 -45t124 -43q29 -39 53 -39t37 12q10 20 22 21q-8 0 41 -21q63 -80 90 -164h3
q-78 -51 -122 -51zM678 1278q0 -12 -2 -21l-51 -26q59 0 77 -41q12 -25 14 -88t11 -88l-12 -13l24 -26q27 -135 27 -285q0 -285 -90 -557l-74 -63q-41 45 -90 178q-18 -18 -30 -11t-11 14q0 7 15 22t14 26q12 95 12 241t-41 435q3 2 25 1t26 11q-66 49 -65 121q0 18 4 35
l53 47q-8 14 -18 14t-33 -24q-1 4 -23 40t-22 55t4 32l-12 12l-25 -49q-11 -2 -27 11t-23 13t-16 -14q12 -6 13 -14l-13 -33q3 -16 15 -50q12 -33 12 -53t-14 -38q14 -70 14 -121t-27 -82q-1 -11 13 -27t14 -23t-12 -16q12 -35 11 -111t1 -91q-4 -2 -26 -1t-27 -12
q29 0 45 -26q10 -27 20 -52v-204q10 -49 -36 -90q-61 25 -154 104l-39 -14q-20 0 -27 61q4 63 -12 193l25 26q-25 33 -26 91q-1 57 -2 103t-13 72q35 0 41 15q-47 211 -39 383q2 20 -11 63t-13 71t36 42q29 -4 62 -4l258 18q63 0 114 -14l127 -100q1 -8 15 -32t14 -36z
M1473 -55v2q0 -1 -1 -2h1zM1174 1208l2 2h-3zM1192 1526q-78 0 -129 94q-68 131 -105 160l132 -4q12 -131 51 -131q16 -1 99 75t140 49q0 -55 -35 -114t-65 -113q-51 -16 -88 -16zM1057 -96q-15 0 -35 5t-152 -22q4 165 58 375t104 400q56 -2 66 68t47 87q6 133 22 193
q27 104 101 143q-4 45 23 123q28 78 24 121q59 27 98 26q59 0 53 -63q4 -10 4 -21q0 -45 -45 -59q-2 -12 -51 -319q-31 -193 -98 -304q-6 -98 -52 -281t-48 -190q0 -78 28 -77q8 0 37 11t107 14t100 5q20 -47 20 -97t-12 -83l16 -14q-22 -34 -57 -33q-8 0 -16 2
q-6 12 -13 12l-26 -16q-2 0 -24 7t-42 7l-88 -6q-88 0 -84 86q-20 -12 -28 -56t-37 -44zM1058 1047q-8 0 -26 17t-27 17t-22 -18l-16 16q-31 -49 -88 -49l-13 223q78 3 156 7t147 -9l4 -41q-37 -16 -49 -82t-49 -75q-8 -6 -17 -6z" />
    <glyph glyph-name="Dzcaron" unicode="&#x1c5;" horiz-adv-x="1550" 
d="M627 1219l-13 12l-8 -8zM456 -43q-44 0 -71 12q-25 -23 -45 -23t-36 2q-16 1 -32 1q-18 0 -41 -15q-16 12 -56 12t-48 1q-35 47 -38 137t-13 127l14 12q-14 9 -14 31t12 33q45 0 120 -45t124 -43q29 -39 53 -39t37 12q10 20 22 21q-8 0 41 -21q63 -80 90 -164h3
q-78 -51 -122 -51zM678 1278q0 -12 -2 -21l-51 -26q59 0 77 -41q12 -25 14 -88t11 -88l-12 -13l24 -26q27 -135 27 -285q0 -285 -90 -557l-74 -63q-41 45 -90 178q-18 -18 -30 -11t-11 14q0 7 15 22t14 26q12 95 12 241t-41 435q3 2 25 1t26 11q-66 49 -65 121q0 18 4 35
l53 47q-8 14 -18 14t-33 -24q-1 4 -23 40t-22 55t4 32l-12 12l-25 -49q-11 -2 -27 11t-23 13t-16 -14q12 -6 13 -14l-13 -33q3 -16 15 -50q12 -33 12 -53t-14 -38q14 -70 14 -121t-27 -82q-1 -11 13 -27t14 -23t-12 -16q12 -35 11 -111t1 -91q-4 -2 -26 -1t-27 -12
q29 0 45 -26q10 -27 20 -52v-204q10 -49 -36 -90q-61 25 -154 104l-39 -14q-20 0 -27 61q4 63 -12 193l25 26q-25 33 -26 91q-1 57 -2 103t-13 72q35 0 41 15q-47 211 -39 383q2 20 -11 63t-13 71t36 42q29 -4 62 -4l258 18q63 0 114 -14l127 -100q1 -8 15 -32t14 -36z
M1421 -57h2q7 1 3 1t-5 -1zM1237 752q0 36 -51 36l-101 -18q-25 0 -45 14l-22 -14l-43 12q-14 116 -14 138t12 49q72 -29 194 -29q29 0 105 3t112 1q10 -4 23 -4l59 12q21 1 35 -22q-2 -43 -2 -86q-8 -47 -39 -72q0 -47 -22 -103t-43 -108q-33 0 -39 12l-10 -12
q-10 18 -48 39t-47 27q-6 -12 -43 -13q-14 10 -12 42t2 34q39 38 39 62zM1153 1194q15 0 99 76t141 49q0 -55 -35 -115t-66 -112q-51 -16 -88 -17q-78 0 -129 94q-68 131 -104 160l131 -4q12 -131 51 -131zM1422 -56q-76 7 -93 -14q-10 23 -22 23t-43 -23q-195 33 -394 2
q-6 33 -6 68q0 131 72 270q33 0 39 15q-10 33 -10 75q1 42 29 132q28 89 34 122q6 2 22 14t24 13q9 0 16 -2q4 -31 38 -39q27 -4 56 -8q45 4 69 -29q-10 -59 -67 -199t-58 -219q0 -23 5 -45q201 35 288 29q-4 -16 -4 -33l19 -106q-1 -24 -14 -46z" />
    <glyph glyph-name="dzcaron" unicode="&#x1c6;" horiz-adv-x="1452" 
d="M424 739l-23 99q0 14 5 26l-15 -28q-39 -4 -49 10l4 -43q-16 -20 -29 -19q10 -61 -4 -126q-14 -66 -16 -83q10 -47 9 -142t-1 -101q6 -150 74 -205l-21 88q6 14 45 18q6 23 11 84q0 53 14 80q-20 41 -20 99l10 149q0 31 -6 55q12 18 12 39zM547 -115q-33 -1 -59 29
t-62 92q0 37 -16 45l-13 -16l-18 14q-8 -25 -19 -47q-10 -27 -36 -29l-15 13q-82 -12 -151 20q-106 139 -107 289q0 43 10 86l-10 12q2 238 15 314q31 170 137 254q19 16 41 16t56 -12t50 -13l49 -45q27 27 27 82q0 15 -4 57t0 58q14 8 14 16t-12 22t-12 22q0 9 4 16l20 149
q128 10 230 -33l2 2q-25 -150 -9 -446t-10 -444q-10 -4 -20 -4q-11 0 -23 20t-18 25q-31 5 -62 -9t-59 -26q1 0 57 -14t70 -40q-10 -16 -10 -33t30 -71l-22 -268q0 -49 8 -97q-20 -6 -53 -6zM1323 -57h2q7 1 3 1t-5 -1zM1139 758q0 30 -52 30l-100 -18q-25 0 -45 14l-22 -14
l-43 12q-15 116 -15 138t12 49q72 -29 195 -29q29 0 105 3t112 1q10 -4 23 -4l59 12q21 1 35 -22q-2 -43 -2 -86q-8 -47 -39 -72q0 -47 -22 -103t-44 -108q-33 0 -39 12l-10 -12q-10 18 -48 39t-46 27q-6 -12 -43 -13q-14 10 -12 42t2 34q39 38 39 68zM1055 1194q16 0 99 76
t140 49q0 -55 -35 -115t-65 -112q-51 -16 -88 -17q-78 0 -129 94q-68 131 -105 160l132 -4q12 -131 51 -131zM1324 -56q-76 7 -93 -14q-10 23 -23 23q-5 0 -43 -23q-195 33 -393 2q-6 33 -6 68q0 131 72 270q33 0 39 15q-24 79 11 188q36 108 42 141q6 2 21 14t25 13
q10 0 15 -2q4 -31 39 -39q27 -4 55 -8q45 4 70 -29q-9 -59 -67 -199t-58 -219q0 -23 4 -45q201 35 289 29q-4 -16 -4 -33l18 -106q0 -24 -13 -46z" />
    <glyph glyph-name="LJ" unicode="&#x1c7;" horiz-adv-x="1204" 
d="M195 141q6 -4 19 -4t56 29q35 20 107 6t108 8q17 -8 59 -3t56 3q16 -49 16 -106l-2 -111q-27 -4 -59 -4l-233 16q-78 0 -127 -26q-9 39 -55 94t-46 88t10 62q-8 14 -8 36l23 144q0 59 -66 59v434q53 39 103 39q-29 240 -2 484q211 0 284 -25l-39 -369q-23 -14 -59 -14
h-68q-4 -23 -36 -32t-41 -17q21 -15 69 -13q48 1 60 1q2 -49 2 -128q0 -78 -14 -270t-15 -227q14 -10 14 -21l-16 -43q0 -6 4 -14q-68 2 -104 -76zM1141 144q0 -46 -15 -64q-8 -2 -68 -16t-85 -35q10 -23 10 -37q-1 -33 -63 -38t-74 -13q-18 -4 -35 -4q-66 0 -72 81
q-6 117 -20 138q19 16 85 21t91 42v168q12 -6 27 12q16 -6 40 -6t72 49q49 49 78 58q53 -8 53 -49l-20 -111q0 -17 6 -31q-2 -4 -1 -49t-10 -64q1 -6 1 -52zM1024 885q-47 0 -100 -41q-29 29 -29 153l14 13q-14 14 -14 43t12 45q-12 66 -11 202t-1 156q23 10 111 12t120 15
l39 -39q-12 -78 -11 -274t-28 -300l-14 -14q35 -4 35 -35q0 -12 -8 -41q14 -47 14 -108t-14 -111q-8 6 -25 -10l-12 10q-29 -15 -70 -75t-69 -60t-56 20q-12 62 -11 192t-1 155q10 4 61 30q37 23 62 23t45 -15q4 -10 10 -10t39 23q-41 41 -88 41z" />
    <glyph glyph-name="Lj" unicode="&#x1c8;" horiz-adv-x="1071" 
d="M195 141q6 -4 19 -4t56 29q35 20 107 6t108 8q17 -8 59 -3t56 3q16 -49 16 -106l-2 -111q-27 -4 -59 -4l-233 16q-78 0 -127 -26q-9 39 -55 94t-46 88t10 62q-8 14 -8 36l23 144q0 59 -66 59v434q53 39 103 39q-29 240 -2 484q211 0 284 -25l-39 -369q-23 -14 -59 -14
h-68q-4 -23 -36 -32t-41 -17q21 -15 69 -13q48 1 60 1q2 -49 2 -128q0 -78 -14 -270t-15 -227q14 -10 14 -21l-16 -43q0 -6 4 -14q-68 2 -104 -76zM993 45q0 -27 -18 -37q25 -14 11 -51t5 -51q-43 -172 -119 -242l-194 -29q-14 29 -14 86l2 95q53 4 71 47q12 25 16 88
q3 63 15 88v426q0 266 -16 432q26 20 90 19t90 10q82 12 82 -37q0 -11 -6 -23q-16 -152 -17 -387l2 -391v-43zM989 1075h2l-1 1q-1 0 -1 -1zM762 1218q0 62 33 87h196q17 -49 17 -113t-18 -116q-35 25 -105 8t-105 8q-18 64 -18 126z" />
    <glyph glyph-name="lj" unicode="&#x1c9;" horiz-adv-x="765" 
d="M293 687q0 -339 16 -683h2q-8 -45 -94 -59l-12 16q-6 -16 -33 -16h-29l-16 16q-6 -14 -45 -18q-16 143 -15 427t-1 357q-2 72 -13 166q14 19 5 77t10 85q-16 27 -16 67t18 70q-2 10 -1 68t-16 79q0 66 68 66l69 -4q39 0 56 16q39 -12 63 -61q-16 -330 -16 -669zM688 45
q0 -27 -18 -37q26 -14 12 -51t4 -51q-43 -172 -119 -242l-194 -29q-14 29 -15 86l2 95q53 4 72 47q12 25 15 88t16 88v426q0 266 -17 432q26 20 90 19t91 10q82 12 82 -37q-1 -11 -7 -23q-16 -152 -16 -387l2 -391v-43zM684 1075h2q-1 1 -2 1v-1zM457 1218q0 62 32 87h197
q16 -49 16 -113t-18 -116q-34 25 -104 8t-105 8q-18 64 -18 126z" />
    <glyph glyph-name="NJ" unicode="&#x1ca;" horiz-adv-x="1314" 
d="M192 137q22 0 37 -8q16 16 27 12q33 -15 19 -61t6 -66q-51 -14 -64 -18q-35 -14 -37 -43l-76 61q-6 -8 -41 -12q-12 16 -11 55t-1 47q25 0 72 16t69 17zM506 1217q0 18 14 48t17 38q15 5 34 -27q90 25 156 2l-12 -1059l12 -14v-225q-10 -37 -37 -37l-67 12q-20 0 -35 -14
q-27 10 -56 23t-36 40q55 78 55 152q0 18 -2 37q16 129 -25 180l-14 -13q-8 12 -18 26t-24 15q-14 0 -22 -4q10 61 -64 101t-87 67q-29 -49 -13 -159t11 -136q-10 -72 -100 -88q-12 12 -48 10t-43 1q-45 551 -39 1110q37 14 116 12t116 12l78 -137q16 -117 88 -244v-90
q-37 25 -81 69l-85 85q2 -23 -27 -28t-28 -19q0 -6 4 -17q78 -48 166 -108t88 -146q0 -12 -2 -26l41 -43q12 10 12 18q0 9 -13 25t-12 26v174q0 104 -16 168q14 20 14 43l-16 101v39zM1251 144q0 -46 -14 -64q-9 -2 -69 -16t-85 -35q10 -23 11 -37q0 -33 -63 -38t-75 -13
q-18 -4 -34 -4q-66 0 -72 81q-6 117 -21 138q20 16 86 21t91 42v168q12 -6 26 12q16 -6 40 -6t73 49t78 58q53 -8 53 -49l-21 -111q1 -17 7 -31q-2 -4 -1 -49t-11 -64q1 -6 1 -52zM1135 885q-47 0 -101 -41q-29 29 -28 153l14 13q-14 14 -14 43t12 45q-12 66 -11 202t-1 156
q24 10 112 12t119 15l39 -39q-12 -78 -11 -274t-28 -300l-14 -14q35 -4 34 -35q0 -12 -8 -41q33 -110 0 -219q-8 6 -24 -10l-13 10q-30 -15 -70 -75t-68 -60t-56 20q-12 62 -11 192t-1 155q10 4 61 30q37 23 61 23t46 -15q4 -10 10 -10t39 23q-41 41 -88 41z" />
    <glyph glyph-name="Nj" unicode="&#x1cb;" horiz-adv-x="1181" 
d="M192 137q22 0 37 -8q16 16 27 12q33 -15 19 -61t6 -66q-51 -14 -64 -18q-35 -14 -37 -43l-76 61q-6 -8 -41 -12q-12 16 -11 55t-1 47q25 0 72 16t69 17zM506 1217q0 18 14 48t17 38q15 5 34 -27q90 25 156 2l-12 -1059l12 -14v-225q-10 -37 -37 -37l-67 12q-20 0 -35 -14
q-27 10 -56 23t-36 40q55 78 55 152q0 18 -2 37q16 129 -25 180l-14 -13q-8 12 -18 26t-24 15q-14 0 -22 -4q10 61 -64 101t-87 67q-29 -49 -13 -159t11 -136q-10 -72 -100 -88q-12 12 -48 10t-43 1q-45 551 -39 1110q37 14 116 12t116 12l78 -137q16 -117 88 -244v-90
q-37 25 -81 69l-85 85q2 -23 -27 -28t-28 -19q0 -6 4 -17q78 -48 166 -108t88 -146q0 -12 -2 -26l41 -43q12 10 12 18q0 9 -13 25t-12 26v174q0 104 -16 168q14 20 14 43l-16 101v39zM1104 45q0 -27 -19 -37q25 -14 12 -51t5 -51q-43 -172 -119 -242l-195 -29q-14 29 -14 86
l2 95q53 4 72 47q12 25 15 88t16 88v426q0 266 -17 432q26 20 90 19t90 10q82 12 82 -37q0 -11 -6 -23q-16 -152 -16 -387l2 -391v-43zM1100 1075h2q-1 1 -2 1v-1zM1118 1192q0 -64 -18 -116q-35 25 -105 8t-104 8q-19 64 -19 126t33 87h197q16 -49 16 -113z" />
    <glyph glyph-name="nj" unicode="&#x1cc;" horiz-adv-x="1071" 
d="M156 20q-63 0 -93 17q-10 31 -10 67t20 104q19 70 19 114t-47 90q49 92 49 209q0 23 -2 47q41 0 53 51q20 78 23 82l-33 196q39 19 80 19t57 -33v-41q-2 -25 15 -35q55 72 153 109q43 -14 86 -27q47 -23 60 -65v-207q0 -113 18 -199l-2 -65q0 -49 16 -72l-16 -363
q-23 -18 -72 -12t-63 0l-10 14q-11 -16 -19 -16t-27 14t-34 2l-15 347l46 30l-43 29q2 11 2 246q0 145 -52 235q-47 -63 -52 -165t-5 -197l-16 -15q12 -4 16 -43l-16 -16q10 -6 16 -43l-2 -166q-16 -27 -16 -59l18 -125q0 -31 -16 -58h-86zM993 45q0 -27 -18 -37
q25 -14 11 -51t5 -51q-43 -172 -119 -242l-194 -29q-14 29 -14 86l2 95q53 4 71 47q12 25 16 88q3 63 15 88v426q0 266 -16 432q26 20 90 19t90 10q82 12 82 -37q0 -11 -6 -23q-16 -152 -17 -387l2 -391v-43zM989 1075h2l-1 1q-1 0 -1 -1zM762 1218q0 62 33 87h196
q17 -49 17 -113t-18 -116q-35 25 -105 8t-105 8q-18 64 -18 126z" />
    <glyph glyph-name="Acaron" unicode="&#x1cd;" horiz-adv-x="835" 
d="M295 -121q0 -76 -90 -80q-29 11 -36 17t-13 22q6 4 45 60t59 55q20 0 33 -51q2 -12 2 -23zM720 -150q-30 0 -82 -12t-73 -14q-23 42 -37 136t-18 108q6 12 6 20q0 23 -36 40q-36 16 -36 28t41 37q-10 12 -15 50t-19 50q-25 -23 -81 -30t-75 -19q4 -160 -49 -215
q-29 6 -43 -23q-20 -35 -35 -41l12 -14q-16 -14 -63 -12t-51 2l-13 36l115 1108q0 104 8 142q-4 92 41 114q29 -18 68 -18t113 16t102 17q100 0 90 -144q-8 -114 42 -308t50 -294q0 -31 -2 -61q-42 -25 -106 -30t-125 -9q-18 156 -39 324t-52 288l-53 -585q-6 -76 70 -76
q25 0 47 12q18 6 51 -27q0 -63 27 -75q34 23 178 78q27 -35 36 -119t13 -112t35 -160t18 -220q-30 12 -60 12zM389 1577q15 0 99 76t141 49q0 -54 -35 -114t-66 -113q-51 -16 -88 -17q-78 0 -129 94q-68 131 -104 160l131 -4q12 -131 51 -131z" />
    <glyph glyph-name="acaron" unicode="&#x1ce;" horiz-adv-x="735" 
d="M376 174q16 0 27 6l15 332q-29 -33 -60 -31q-35 -173 -30 -241q10 -20 21 -43t27 -23zM51 215q0 27 6 55q4 209 152 285q68 47 164 47q16 0 30 -2q17 16 61 16h46l12 -16q2 2 56 92t98 119v-283q0 -180 -17 -288q13 -6 13 -30v-42l10 -131q0 -31 -8 -51q-25 29 -68 28
l-110 -14q-51 0 -62 59q-94 -74 -196 -73q-39 0 -74 12q-113 129 -113 217zM489 682q-31 0 -37 58t-16 69q4 53 -33 80q-72 -16 -120 -168l-15 16q-61 -16 -98 -16t-80 16q14 117 27 152q29 78 104 102q63 10 197 31q33 -10 76 -31q4 5 25 17t21 22t-3 21q14 4 32 -15
l-14 -14q65 -90 65 -139t-20 -88q-25 -9 -37 -51q-18 -62 -74 -62zM338 1280q16 0 100 76t140 49q0 -55 -35 -115t-66 -112q-51 -16 -88 -17q-78 0 -129 94q-68 131 -104 160l131 -4q12 -131 51 -131z" />
    <glyph glyph-name="Icaron" unicode="&#x1cf;" horiz-adv-x="444" 
d="M268 -41q-20 0 -49 10q-14 18 -37 19l-47 -6q-25 0 -31 34q12 39 13 86l-17 193q0 29 6 53q0 55 -3 278t16 359l10 12q-12 12 -12 27l14 53q0 14 -12 25q12 16 12 37l-14 80q0 20 12 36l-10 13q12 6 10 26t0 25q16 4 35 4l123 -16q37 0 59 24l39 -24l-39 -1020l-12 -13
q24 -16 8 -51t4 -51q-6 -12 -14 -131q-6 -82 -64 -82zM268 1434q-78 0 -129 94q-68 131 -104 160l131 -5q12 -131 51 -131q15 0 99 76t141 49q0 -55 -35 -115t-66 -112q-51 -16 -88 -16z" />
    <glyph glyph-name="icaron" unicode="&#x1d0;" horiz-adv-x="364" 
d="M293 196l2 -120q0 -94 -62 -115h-92q-57 -2 -88 14q17 21 17 53t-17 52q16 180 17 432l-2 424q109 18 141 18q82 0 98 -49q-25 -41 -7 -126t-7 -130q25 -37 7 -111t7 -108q4 -10 4 -20l-18 -66q0 -12 12 -22q-12 -6 -12 -14t8 -24q8 -14 6 -22q-14 -32 -14 -66zM211 1071
q-78 0 -129 94q-68 131 -105 160l132 -4q12 -131 51 -131q16 0 99 76t140 49q0 -55 -35 -115t-65 -113q-51 -16 -88 -16z" />
    </font>
</defs>
</svg>
