<?xml version="1.0" standalone="no"?>
<!DOCTYPE svg PUBLIC "-//W3C//DTD SVG 1.1//EN" "http://www.w3.org/Graphics/SVG/1.1/DTD/svg11.dtd" >
<svg xmlns="http://www.w3.org/2000/svg">
<metadata>
Created by FontPrep 20130207 at Tue Dec  9 01:54:41 2014
 By Alexander Gunnarson
Copyright (c) 2010 by Michael Everson. All rights reserved.
</metadata>
<defs>
<font id="ab76845c6e5bbddb0e4a74149b8bf801" horiz-adv-x='1024' >
  <font-face 
    font-family="EversonMono"
    font-weight="400"
    font-style="italic"
    font-stretch="normal"
    units-per-em="2048"
    panose-1="2 0 5 6 0 0 0 2 0 4"
    ascent="1638"
    descent="-410"
    x-height="905"
    cap-height="1206"
    bbox="-2165 -819 3383 1905"
    underline-thickness="40"
    underline-position="-252"
    slope="-12"
    unicode-range="U+0020-1D245"
  />
<missing-glyph 
 />
    <glyph glyph-name="uniFB1D" unicode="&#x5d9;&#x5b4;" 
d="M745 516q0 -27 -20 -47t-47 -20t-47 20t-21 47q0 27 20 47q20 21 48 21q27 0 47 -20t20 -48zM717 1130v-399q0 -43 -45 -43t-45 43v387h-168q-27 0 -27 44t27 44h196q47 0 55 -10q7 -11 7 -66z" />
    <glyph glyph-name="afii57705" unicode="&#x5f2;&#x5b7;" 
d="M934 508q0 -45 -51 -45h-453q-55 0 -55 45t51 45h453q55 0 55 -45zM530 1130v-399q0 -43 -45 -43t-45 43v387h-168q-26 0 -26 44t26 44h197q47 0 54 -10t7 -66zM883 1130v-399q0 -43 -45 -43t-45 43v387h-168q-27 0 -27 44t27 44h196q47 0 55 -10q7 -11 7 -66z" />
    <glyph glyph-name="afii57694" unicode="&#x5e9;&#x5c1;" 
d="M1094 1137v-928q0 -207 -197 -207h-713v948q0 68 76 168h-147q-27 0 -27 44t27 44h159q57 0 64 -88h-60v-1018h324v1018h-121q-27 0 -27 44t27 44h150q63 0 63 -69v-1037h217q92 0 92 109v909h-116q-27 0 -27 44t27 44h147q62 1 62 -69zM1094 1358q0 -27 -20 -47
q-20 -21 -48 -21q-27 0 -47 20t-21 48q0 27 20 47t48 20t48 -20t20 -47z" />
    <glyph glyph-name="afii57695" unicode="&#x5e9;&#x5c2;" 
d="M1094 1137v-928q0 -207 -197 -207h-713v948q0 68 76 168h-147q-27 0 -27 44t27 44h159q57 0 64 -88h-60v-1018h324v1018h-121q-27 0 -27 44t27 44h150q63 0 63 -69v-1037h217q92 0 92 109v909h-116q-27 0 -27 44t27 44h147q62 1 62 -69zM276 1358q0 -27 -20 -47
q-20 -21 -47 -21t-47 20t-21 48q1 27 21 47t47 20t47 -20t20 -47z" />
    <glyph glyph-name="uniFB2C" unicode="&#xfb49;&#x5c1;" 
d="M1094 1137v-928q0 -207 -197 -207h-713v948q0 68 76 168h-147q-27 0 -27 44t27 44h159q57 0 64 -88h-60v-1018h324v1018h-121q-27 0 -27 44t27 44h150q63 0 63 -69v-1037h217q92 0 92 109v909h-116q-27 0 -27 44t27 44h147q62 1 62 -69zM936 651q0 -27 -20 -47t-48 -20
q-27 0 -47 20t-20 47t20 47t47 20q28 0 48 -20t20 -47zM1094 1358q0 -27 -20 -47q-20 -21 -48 -21q-27 0 -47 20t-21 48q0 27 20 47t48 20t48 -20t20 -47z" />
    <glyph glyph-name="uniFB2D" unicode="&#xfb49;&#x5c2;" 
d="M1094 1137v-928q0 -207 -197 -207h-713v948q0 68 76 168h-147q-27 0 -27 44t27 44h159q57 0 64 -88h-60v-1018h324v1018h-121q-27 0 -27 44t27 44h150q63 0 63 -69v-1037h217q92 0 92 109v909h-116q-27 0 -27 44t27 44h147q62 1 62 -69zM936 651q0 -27 -20 -47t-48 -20
q-27 0 -47 20t-20 47t20 47t47 20q28 0 48 -20t20 -47zM276 1358q0 -27 -20 -47q-20 -21 -47 -21t-47 20t-21 48q1 27 21 47t47 20t47 -20t20 -47z" />
    <glyph glyph-name="uniFB2E" unicode="&#x5d0;&#x5b7;" 
d="M721 -137q29 0 29 -44t-27 -44h-268q-27 0 -27 44t27 44h266zM307 553q0 -217 129 -551h-276q-27 0 -27 44t27 44h147q-80 258 -80 457q0 319 228 319l-195 340h94l336 -604q123 0 177 56t55 186v274h-170q-27 0 -27 44t27 44h176q66 0 65 -67v-318q0 -299 -260 -299
l314 -520h-89l-475 791q-176 0 -176 -240z" />
    <glyph glyph-name="uniFB2F" unicode="&#x5d0;&#x5b8;" 
d="M723 -137q29 0 29 -44t-27 -44h-90v-174q0 -43 -45 -43t-45 43v174h-88q-27 0 -27 44t27 44h266zM307 553q0 -217 129 -551h-276q-27 0 -27 44t27 44h147q-80 258 -80 457q0 319 228 319l-195 340h94l336 -604q123 0 177 56t55 186v274h-170q-27 0 -27 44t27 44h176
q66 0 65 -67v-318q0 -299 -260 -299l314 -520h-89l-475 791q-176 0 -176 -240z" />
    <glyph glyph-name="uniFB30" unicode="&#x5d0;&#x5bc;" 
d="M657 -205q0 -27 -20 -47t-47 -20t-47 20t-21 47q0 27 20 47t48 20q27 0 47 -20t20 -47zM307 553q0 -217 129 -551h-276q-27 0 -27 44t27 44h147q-80 258 -80 457q0 319 228 319l-195 340h94l336 -604q123 0 177 56t55 186v274h-170q-27 0 -27 44t27 44h176q66 0 65 -67
v-318q0 -299 -260 -299l314 -520h-89l-475 791q-176 0 -176 -240z" />
    <glyph glyph-name="uniFB31" unicode="&#x5d1;&#x5bc;" 
d="M582 651q0 -27 -20 -47t-48 -20q-27 0 -47 20t-21 47q0 27 20 47t48 20t48 -20t20 -47zM993 2h-811q-26 0 -26 44t26 44h637v1028h-637q-26 0 -26 44t26 44h666q43 0 53 -12t10 -57v-1047h82q23 0 29 -43q0 -45 -29 -45z" />
    <glyph glyph-name="uniFB32" unicode="&#x5d2;&#x5bc;" 
d="M592 287h92l-156 -285h-92zM526 651q0 -27 -20 -47t-47 -20t-47 20t-21 47q1 27 21 47t47 20t47 -20t20 -47zM469 1118q-27 0 -27 44t27 44h211q29 6 39 -43l69 -1161h-86l-65 1116h-168z" />
    <glyph glyph-name="uniFB33" unicode="&#x5d3;&#x5bc;" 
d="M598 651q0 -27 -20 -47t-48 -20t-47 20q-20 20 -20 47t20 47t47 20q28 0 48 -20t20 -47zM901 1118v-1081q0 -43 -45 -43t-45 43v1081h-627q-26 0 -26 44t26 44h777q55 0 61 -88h-121z" />
    <glyph glyph-name="uniFB34" unicode="&#x5d4;&#x5bc;" 
d="M287 614v-577q0 -43 -45 -43t-45 43v577q0 43 45 43t45 -43zM983 1118v-1081q0 -43 -45 -43t-45 43l2 1081h-672q-27 0 -27 44t27 44h701q43 0 53 -24q6 -13 6 -64zM649 651q0 -27 -20 -47t-47 -20t-47 20t-21 47q0 27 20 47t48 20q27 0 47 -20t20 -47z" />
    <glyph glyph-name="afii57723" unicode="&#x5d5;&#x5bc;" 
d="M502 651q0 -27 -20 -47t-48 -20q-27 0 -47 20t-20 47t20 47t47 20q28 0 48 -20t20 -47zM811 1139v-1102q0 -43 -45 -43t-45 43v1081h-191q-26 0 -26 35t6 45t20 8h220q61 1 61 -67z" />
    <glyph glyph-name="uniFB36" unicode="&#x5d6;&#x5bc;" 
d="M467 651q-1 -27 -21 -47t-47 -20t-47 20t-20 47t20 47t47 20t47 -20t21 -47zM848 1206v-104q-66 0 -106 -64t-40 -131v-870q0 -43 -45 -43t-45 43v870q0 158 207 211h-364q-27 0 -27 44t27 44h393z" />
    <glyph glyph-name="uniFB38" unicode="&#x5d8;&#x5bc;" 
d="M678 528q0 -27 -20 -47t-48 -20q-27 0 -47 20t-20 47t20 47q20 21 47 21q28 0 48 -20t20 -48zM989 795v-793h-753v938q0 68 67 178h-88q-27 0 -27 44t27 44h98q61 0 62 -69v-19q-39 0 -49 -28v-990h573v693q0 109 -57 180q-61 82 -164 82l-35 -340h-78l51 483
q162 -35 268 -140t105 -263z" />
    <glyph glyph-name="uniFB39" unicode="&#x5d9;&#x5bc;" 
d="M526 887q0 -27 -20 -47t-47 -20t-47 20t-21 47q1 27 21 47t47 20t47 -20t20 -47zM786 1130v-399q0 -43 -45 -43t-45 43v387h-168q-26 0 -26 44t26 44h197q47 0 54 -10t7 -66z" />
    <glyph glyph-name="uniFB3A" unicode="&#x5da;&#x5bc;" 
d="M965 1137v-1536q0 -43 -45 -43t-46 43v1517h-634q-27 0 -27 44t27 44h665q37 0 49 -11t11 -58zM655 651q0 -27 -20 -47t-47 -20t-47 20t-21 47q0 27 20 47t48 20q27 0 47 -20t20 -47z" />
    <glyph glyph-name="uniFB3B" unicode="&#x5db;&#x5bc;" 
d="M967 1139v-930q0 -207 -197 -207h-530q-27 0 -27 44t27 44h542q94 0 95 109v919h-637q-27 0 -27 44t27 44h665q62 1 62 -67zM666 651q0 -27 -20 -47t-48 -20q-27 0 -47 20t-21 47q0 27 20 47t48 20t48 -20t20 -47z" />
    <glyph glyph-name="uniFB3C" unicode="&#x5dc;&#x5bc;" 
d="M623 651q-1 -27 -21 -47t-47 -20t-47 20t-21 47q1 27 21 47t47 20t47 -20t21 -47zM973 1124v-696q0 -162 -130 -295t-253 -133q-27 0 -27 44t27 44q102 0 196 129t95 236v643h-676v284q0 43 45 43t45 -43v-188h614q41 0 53 -12q11 -13 11 -56z" />
    <glyph glyph-name="uniFB3E" unicode="&#x5de;&#x5bc;" 
d="M979 807v-805h-473q-27 0 -27 44t27 44h381v717q0 123 -74 220t-209 97t-218 -85t-83 -232v-770q0 -43 -45 -43t-45 43v770q0 172 119 309h-105q-27 0 -27 44t27 44q121 0 131 -59q109 80 266 80t259 -133q96 -121 96 -285zM682 651q0 -27 -20 -47t-48 -20t-47 20
q-20 20 -20 47t20 47t47 20q28 0 48 -20t20 -47z" />
    <glyph glyph-name="uniFB40" unicode="&#x5e0;&#x5bc;" 
d="M496 651q0 -27 -20 -47t-48 -20q-27 0 -47 20t-21 47q0 27 20 47t48 20t48 -20t20 -47zM819 1139v-1137h-334q-27 0 -27 44t27 44h242v1028h-182q-27 0 -27 44t27 44h213q61 1 61 -67z" />
    <glyph glyph-name="uniFB41" unicode="&#x5e1;&#x5bc;" 
d="M696 651q0 -27 -20 -47t-47 -20t-47 20t-21 47q1 27 21 47t47 20t47 -20t20 -47zM893 414v702h-571v-702q0 -132 78 -230t206 -102q127 -4 207 100t80 232zM983 414q0 -168 -104 -299q-105 -131 -273 -131t-272 131t-105 299v524q0 68 68 178h-76q-27 0 -27 44t27 44h701
q51 1 61 -65v-725z" />
    <glyph glyph-name="uniFB43" unicode="&#x5e3;&#x5bc;" 
d="M983 1139v-1538q0 -43 -45 -43t-45 43v1517h-670q-27 0 -27 44t27 44h701q59 1 59 -67zM514 586h-283v368q0 68 93 160v-440h188q23 0 29 -43q0 -45 -27 -45zM801 651q-1 -27 -21 -47t-47 -20t-47 20t-20 47t20 47t47 20t47 -20t21 -47z" />
    <glyph glyph-name="uniFB44" unicode="&#x5e4;&#x5bc;" 
d="M1001 1139v-930q0 -207 -196 -207h-600q-27 0 -27 44t27 44h612q92 0 92 109v919h-706q-27 0 -27 44t27 44h737q61 1 61 -67zM494 586h-283v368q0 68 92 160v-440h189q22 0 28 -43q0 -45 -26 -45zM780 651q0 -27 -20 -47t-47 -20t-47 20t-21 47q1 27 21 47t47 20t47 -20
t20 -47z" />
    <glyph glyph-name="uniFB46" unicode="&#x5e6;&#x5bc;" 
d="M440 436q0 -27 -20 -47t-47 -20t-47 20t-21 47q1 27 21 47q20 21 47 21t47 -20t20 -48zM1030 2h-751q-27 0 -27 44t27 44h667l-598 780v248h-172q-26 0 -26 44t26 44h201q39 0 51 -14t12 -55v-236l228 -295q270 0 270 289v223h-160q-26 0 -26 44t26 44h189q63 0 63 -67
v-217q0 -162 -69 -277q-84 -139 -232 -139l301 -383v-121z" />
    <glyph glyph-name="uniFB47" unicode="&#x5e7;&#x5bc;" 
d="M307 623v-1022q0 -43 -45 -43t-45 43v1022q0 43 45 43t45 -43zM983 1137v-695q0 -160 -131 -294t-252 -134q-27 0 -27 44t27 44q102 0 196 130t95 235v651h-670q-27 0 -27 44t27 44h701q37 0 49 -14t12 -55zM668 651q0 -27 -20 -47t-48 -20q-27 0 -47 20t-21 47
q0 27 20 47t48 20t48 -20t20 -47z" />
    <glyph glyph-name="uniFB48" unicode="&#x5e8;&#x5bc;" 
d="M567 651q0 -27 -20 -47t-47 -20t-47 20t-21 47q0 27 20 47t48 20q27 0 47 -20t20 -47zM965 1139v-1102q0 -43 -45 -43t-46 43v1081h-634q-27 0 -27 44t27 44h665q60 1 60 -67z" />
    <glyph glyph-name="uniFB49" unicode="&#x5e9;&#x5bc;" 
d="M1094 1137v-928q0 -207 -197 -207h-713v948q0 68 76 168h-147q-27 0 -27 44t27 44h159q57 0 64 -88h-60v-1018h324v1018h-121q-27 0 -27 44t27 44h150q63 0 63 -69v-1037h217q92 0 92 109v909h-116q-27 0 -27 44t27 44h147q62 1 62 -69zM936 651q0 -27 -20 -47t-48 -20
q-27 0 -47 20t-20 47t20 47t47 20q28 0 48 -20t20 -47z" />
    <glyph glyph-name="uniFB4A" unicode="&#x5ea;&#x5bc;" 
d="M1038 1137v-1100q0 -43 -45 -43t-45 43v1081h-571v-1116h-211q-27 0 -27 44t27 44h119v850q0 68 67 178h-51q-27 0 -27 44t27 44h676q43 0 52 -18t9 -51zM735 651q0 -27 -20 -47t-47 -20t-47 20t-21 47q0 27 20 47t48 20q27 0 47 -20t20 -47z" />
    <glyph glyph-name="afii57700" unicode="&#x5d5;&#x5b9;" 
d="M739 1139v-1102q0 -43 -45 -43t-45 43v1081h-190q-27 0 -27 35t6 45t21 8h219q61 1 61 -67zM745 1358q0 -27 -20 -47q-20 -21 -47 -21t-47 20t-21 48q0 27 20 47t48 20q27 0 47 -20t20 -47z" />
    <glyph glyph-name="uniFB4C" unicode="&#x5d1;&#x5bf;" 
d="M993 2h-811q-26 0 -26 44t26 44h637v1028h-637q-26 0 -26 44t26 44h666q43 0 53 -12t10 -57v-1047h82q23 0 29 -43q0 -45 -29 -45zM719 1384q29 0 29 -44t-27 -44h-268q-27 0 -27 44t27 44h266z" />
    <glyph glyph-name="uniFB4D" unicode="&#x5db;&#x5bf;" 
d="M967 1139v-930q0 -207 -197 -207h-530q-27 0 -27 44t27 44h542q94 0 95 109v919h-637q-27 0 -27 44t27 44h665q62 1 62 -67zM702 1384q29 0 29 -44t-26 -44h-269q-26 0 -26 44t26 44h266z" />
    <glyph glyph-name="uniFB4E" unicode="&#x5e4;&#x5bf;" 
d="M1001 1139v-930q0 -207 -196 -207h-600q-27 0 -27 44t27 44h612q92 0 92 109v919h-706q-27 0 -27 44t27 44h737q61 1 61 -67zM494 586h-283v368q0 68 92 160v-440h189q22 0 28 -43q0 -45 -26 -45zM741 1384q29 0 29 -44t-27 -44h-268q-27 0 -27 44t27 44h266z" />
    <glyph glyph-name="uniFB4F" unicode="&#x5d0;&#x5dc;" 
d="M90 1108v285q0 43 45 43t45 -43v-189h47q27 2 62 2h108l336 -604q123 0 177 56t55 186v274h-170q-27 0 -27 44t27 44h176q66 0 65 -67v-318q0 -299 -260 -299l314 -520h-89l-643 1106h-268z" />
    <glyph glyph-name="A_uni0486" unicode="A&#x486;" 
d="M199 1264q-5 0 -41 -9q-94 0 -95 78q0 92 95 92q61 0 96 -47q29 -45 29 -105q1 -60 -59 -136t-118 -97l-14 29q127 92 127 172q0 23 -20 23zM336 494h508l-240 624h-33zM106 -27q-42 0 -40 21q0 4 452 1214q14 37 70 37t71 -39l449 -1204q2 -2 3 -10t-8 -12t-43 -4
t-42 26l-146 401h-567l-149 -403q-8 -27 -50 -27z" />
    <glyph glyph-name="a_uni0486" unicode="a&#x486;" 
d="M705 1264q-5 0 -41 -9q-94 0 -95 78q0 92 95 92q61 0 96 -47q28 -45 28 -105t-59 -136t-117 -97l-14 29q127 92 127 172q0 23 -20 23zM636 467q-130 0 -235 -51q-137 -62 -137 -166t71 -150t171 -47q204 -1 409 189v190q-149 35 -279 35zM999 662v-625q1 -43 -37 -43
t-44 51q-2 27 -3 78q-201 -158 -403 -158q-139 0 -236 71q-98 71 -98 199t115 221t391 93q80 0 231 -33v143q-4 91 -84 135t-173 44q-92 0 -204 -36t-127 -36t-30 12q-12 25 -12 37t8 27q19 26 167 52t202 26q133 -2 235 -68t102 -190z" />
    <glyph glyph-name="I_uni0486" unicode="I&#x486;" 
d="M199 1264q-5 0 -41 -9q-94 0 -95 78q0 92 95 92q61 0 96 -47q29 -45 29 -105q1 -60 -59 -136t-118 -97l-14 29q127 92 127 172q0 23 -20 23zM1004 90q57 0 57 -45t-57 -45h-652q-55 0 -55 49q0 41 55 41h285v1026h-285q-55 0 -55 49q0 41 55 41h654q55 0 55 -41
q0 -49 -57 -49h-277v-1026h277z" />
    <glyph glyph-name="i_uni0486" unicode="i&#x486;" 
d="M623 1264q-5 0 -41 -9q-94 0 -95 78q0 92 95 92q61 0 96 -47q29 -45 29 -105q1 -60 -59 -136t-118 -97l-14 29q127 92 127 172q0 23 -20 23zM1014 47q0 -45 -58 -45h-735q-57 0 -57 49q0 35 57 35h326v721h-262q-57 0 -58 47q0 45 58 45h346v-813h327q56 0 56 -39z" />
    <glyph glyph-name="U_uni0486" unicode="U&#x486;" 
d="M166 1264q-5 0 -41 -9q-94 0 -94 78q0 92 94 92q61 0 96 -47q29 -45 29 -105t-60 -136t-116 -97l-15 29q127 92 127 172q0 23 -20 23zM1100 1184v-789q0 -180 -119 -305t-300 -125t-300 124t-119 306v791q0 41 44 41t44 -43l-2 -789q0 -141 94 -241t236 -100t236 100
q95 102 96 241v789q0 43 45 43t45 -43z" />
    <glyph glyph-name="u_uni0486" unicode="u&#x486;" 
d="M623 1264q-5 0 -41 -9q-94 0 -95 78q0 92 95 92q61 0 96 -47q29 -45 29 -105q1 -60 -59 -136t-118 -97l-14 29q127 92 127 172q0 23 -20 23zM963 874v-837q0 -43 -40 -43t-46 51q0 2 2 20t2 58q-182 -158 -387 -158q-123 0 -201 80t-78 205v624q0 41 43 41t43 -41v-624
q0 -86 52 -140t139 -55q211 0 387 195v624q0 41 42 41t42 -41z" />
    <glyph glyph-name="u10339_uni0308" unicode="&#x10339;&#x308;" 
d="M461 1454q0 -84 -88 -84q-74 0 -74 90q0 33 24 56t58 22q80 0 80 -84zM885 1454q0 -36 -26 -60q-27 -24 -61 -24t-57 25t-23 59t24 58t59 24q84 0 84 -82zM635 1184v-1147q0 -43 -45 -43t-45 43v1147q0 43 45 43t45 -43z" />
    <glyph glyph-name=".notdef" 
 />
    <glyph glyph-name=".null" horiz-adv-x="0" 
 />
    <glyph glyph-name="nonmarkingreturn" horiz-adv-x="681" 
 />
    <glyph glyph-name="space" unicode=" " 
 />
    <glyph glyph-name="exclam" unicode="!" 
d="M600 -4h-27q-43 0 -73 33t-31 77q0 44 30 81q30 36 72 36h29q47 0 78 -34t30 -82q-1 -47 -31 -79t-77 -32zM670 1256q0 -24 -2 -50l-35 -698q-2 -57 -45 -57t-45 57l-39 698v49q0 72 84 68q34 1 58 -21t24 -46z" />
    <glyph glyph-name="quotedbl" unicode="&#x22;" 
d="M287 1278h186l-51 -506q-6 -51 -47 -74q-39 0 -45 72zM700 1278h191l-47 -508q-4 -53 -45 -72q-43 0 -49 72z" />
    <glyph glyph-name="numbersign" unicode="#" 
d="M713 494l16 268h-270l-13 -268h267zM188 403q-61 0 -57 50q4 41 57 41h174l19 268h-152q-57 0 -57 45q0 18 14 31q18 25 135 17q42 -3 66 -3l31 479q2 57 37 58q45 0 43 -64l-33 -473h268l29 479q2 57 43 58q43 -12 43 -48v-8q-2 -4 -2 -8l-31 -473l174 -2q58 0 58 -44
t-58 -44h-180l-21 -268h156q59 0 60 -45q0 -45 -58 -46h-162l-32 -481q-2 -53 -37 -55h-8q-4 2 -9 2q-27 20 -24 55l33 479h-265l-34 -481q-2 -51 -41 -55l-21 4q-27 23 -22 53l32 479h-168z" />
    <glyph glyph-name="dollar" unicode="$" 
d="M924 1022q0 -59 -39 -59q-25 0 -41 52t-62 79q-88 57 -191 57t-179 -58t-76 -161q0 -127 164 -174q76 -20 303 -76q164 -72 164 -252q0 -135 -103 -221q-86 -74 -231 -96l-2 -250q0 -59 -45 -60q-39 0 -39 60l4 252q-104 -1 -222 75t-118 177q0 59 45 59q35 0 37 -53
t80 -111t205 -59q128 0 218 58t91 171q0 137 -164 191q-100 27 -305 75q-164 66 -164 232q0 121 85 206t208 101l-2 94q4 74 43 74q45 0 45 -94l-4 -74q91 1 193 -67t102 -148z" />
    <glyph glyph-name="percent" unicode="%" 
d="M717 33q82 -1 136 61t54 149t-55 146t-138 59t-135 -58q-53 -60 -53 -146t54 -148t137 -63zM659 1049q0 82 -57 143t-138 61t-134 -58q-54 -58 -54 -146q0 -89 54 -149t135 -60q82 0 138 64t56 145zM967 250q0 -110 -72 -192q-73 -82 -181 -83q-108 0 -178 79t-71 190
q0 112 71 190q70 78 178 78t180 -76t73 -186zM1010 780q0 -16 -11 -16q-16 -16 -22 -19q-763 -240 -782 -262q-18 8 -27 27q6 27 29 37q745 264 784 264q23 -6 29 -31zM459 1317q106 0 178 -80q72 -79 72 -189t-72 -190t-180 -80q-109 0 -179 83t-70 189t73 186
q72 81 178 81z" />
    <glyph glyph-name="ampersand" unicode="&#x26;" 
d="M291 252q0 -72 52 -116t130 -44q137 0 256 119l-270 352q-168 -143 -168 -311zM289 865q1 97 71 176t160 79q53 0 162 -46t109 -91t-46 -45q-8 0 -90 46t-134 46t-97 -52t-45 -104t41 -112l368 -475q29 45 58 141q25 98 47 145q16 31 43 31q45 0 45 -44t-56 -169
t-87 -170q129 -172 129 -186q0 -45 -47 -45q-23 0 -76 65l-66 90q-131 -143 -315 -143q-106 0 -185 71t-79 173t58 212t146 177q-114 133 -114 230z" />
    <glyph glyph-name="quotesingle" unicode="'" 
d="M588 680q-39 0 -45 70l-49 546h190l-51 -544q-6 -72 -45 -72z" />
    <glyph glyph-name="parenleft" unicode="(" 
d="M842 -188q0 -47 -43 -48q-8 0 -21 5q-223 94 -340 309q-102 194 -102 446t102 447q117 215 340 309q12 4 21 4q43 0 43 -47q0 -29 -29 -41q-193 -80 -290 -260t-97 -412t97 -411q97 -180 290 -260q29 -12 29 -41z" />
    <glyph glyph-name="parenright" unicode=")" 
d="M842 524q0 -252 -110 -456t-333 -299q-12 -4 -20 -5q-43 0 -43 48q0 29 29 41q193 80 289 260t98 411q0 232 -98 412t-289 260q-29 12 -29 41q0 47 43 47q8 0 20 -4q223 -94 333 -299t110 -457z" />
    <glyph glyph-name="asterisk" unicode="*" 
d="M1032 918q0 -45 -45 -46h-289l205 -204q14 -12 15 -31q0 -47 -48 -47q-18 0 -30 14l-205 205v-289q0 -45 -45 -45t-45 45v289l-205 -205q-12 -14 -31 -14q-47 0 -47 47q0 18 14 31l205 204h-288q-45 0 -45 46t45 45h288l-205 204q-14 12 -14 31q0 47 47 47q18 0 31 -14
l205 -205v289q0 45 45 45t45 -45v-289l205 205q12 14 30 14q47 0 48 -47q0 -18 -15 -31l-205 -204h289q45 0 45 -45z" />
    <glyph glyph-name="plus" unicode="+" 
d="M547 123v436h-365q-57 0 -57 45t59 45h363v430q0 55 43 56q45 0 45 -54v-432h362q58 0 58 -45t-58 -45h-362v-432q0 -21 -13 -39t-32 -18q-43 -4 -43 53z" />
    <glyph glyph-name="comma" unicode="," 
d="M440 92q0 121 131 121q82 -1 124 -57t41 -143t-79 -188t-161 -126l-17 41q172 121 172 225q0 31 -26 31l-58 -10q-53 0 -90 28t-37 78z" />
    <glyph glyph-name="hyphen" unicode="-" 
d="M915 610q0 -45 -51 -45h-545q-55 0 -55 45t51 45h545q55 0 55 -45z" />
    <glyph glyph-name="period" unicode="." 
d="M709 106q0 -46 -32 -78t-77 -32h-27q-43 0 -73 33t-31 77q0 44 30 81q30 36 72 36h29q43 0 76 -36t33 -81z" />
    <glyph glyph-name="slash" unicode="/" 
d="M956 1358l-663 -1493q-18 -41 -55 -21q-31 14 -15 54l658 1497q19 43 55 23t20 -60z" />
    <glyph glyph-name="zero" unicode="0" 
d="M582 1239q-154 0 -230 -180q-61 -141 -61 -305q0 -291 33 -424q63 -272 268 -273q152 0 231 181q64 135 64 311l-2 194q-4 193 -66 320q-83 176 -237 176zM967 752v-215q0 -211 -82 -369q-102 -201 -291 -201q-147 0 -248 119q-26 35 -64 120q-38 84 -54 150t-15 181v217
q0 217 80 372q102 201 297 201q59 0 137 -37t120 -99t81 -187t39 -252z" />
    <glyph glyph-name="one" unicode="1" 
d="M266 0q-55 0 -55 49q0 41 59 41h277v1020l-260 -260q-16 -12 -29 -12q-43 0 -43 41q0 16 12 28l406 406v-1223l276 -2q54 0 58 -41q4 -47 -54 -47h-647z" />
    <glyph glyph-name="two" unicode="2" 
d="M188 0v123l379 369q295 297 322 380q12 37 12 80q0 115 -87 201t-199 86t-181 -53t-99 -125t-38 -81q-7 -9 -27 -9t-28 8l-13 31q0 49 56 135q117 180 325 180q160 0 265 -107t106 -270q0 -59 -12 -100q-29 -94 -312 -381q-182 -186 -385 -371h631q0 80 37 80
q49 0 49 -94l-4 -82h-797z" />
    <glyph glyph-name="three" unicode="3" 
d="M605 1241q-105 0 -167 -33t-141 -110h-6q-2 -2 -6 -2q-41 0 -41 37q0 43 80 104q114 88 268 88t256 -92t102 -240q0 -207 -192 -286q237 -112 237 -345q0 -168 -125 -280t-292 -113q-88 -1 -242 57t-154 121q0 43 39 43q119 -70 191 -102t163 -33q135 0 236 84
q100 86 100 221q0 136 -110 226t-250 90q-57 0 -57 37q0 47 57 47l76 -6q92 0 168 72q75 72 75 174t-82 171q-78 70 -183 70z" />
    <glyph glyph-name="four" unicode="4" 
d="M758 451v755h-43l-412 -755h455zM934 88q47 0 47 -44t-47 -44h-332q-57 0 -55 49q4 41 55 41h156v270h-545v105l461 831h172v-845h88q51 0 47 -48q-2 -43 -47 -43h-88v-272h88z" />
    <glyph glyph-name="five" unicode="5" 
d="M995 418q1 -176 -113 -313t-298 -138q-113 0 -224 53q-176 90 -176 156q0 45 41 45q7 0 63 -46q142 -118 298 -118t243 111q82 100 82 266q-5 144 -77 236t-207 92q-74 0 -189 -43l-116 -41q-33 0 -33 39v579h573q47 0 47 -45l-4 -30q-14 -14 -43 -15h-495v-424
q135 66 285 64t246 -127q97 -125 97 -301z" />
    <glyph glyph-name="six" unicode="6" 
d="M887 378q0 130 -67 224t-179 94t-201 -100q-57 -63 -123 -193q70 -344 306 -346q129 0 198 101q66 90 66 220zM969 378q-1 -157 -99 -284t-247 -127q-104 0 -199 72q-211 162 -215 610q0 285 188 488q93 96 187 142t240 46t145 -74q-1 -14 -13 -29q-12 -16 -21 -16
t-58 16t-78 17q-205 0 -357 -176t-151 -385q0 -68 6 -131q147 231 340 231q150 0 244 -129q88 -114 88 -271z" />
    <glyph glyph-name="seven" unicode="7" 
d="M299 1206v-76q-6 -53 -43 -53q-43 0 -43 49v170h754q0 -141 -2 -143l-326 -1108l-18 -39q-13 -8 -29 -8t-30 13q-13 13 -11 30l4 29l332 1136h-588z" />
    <glyph glyph-name="eight" unicode="8" 
d="M885 343q0 118 -89 205t-207 87t-206 -84t-88 -205t86 -207q88 -84 207 -84t209 84q88 86 88 204zM588 1241q-108 0 -191 -78q-82 -79 -82 -189t81 -186t191 -76q109 0 193 77q84 76 84 180t-84 188t-192 84zM965 346q0 -156 -112 -268q-113 -112 -265 -113
q-152 0 -264 113q-111 113 -111 268q0 217 211 330q-190 106 -191 293q1 145 103 251t250 105q148 0 252 -103t104 -251q0 -201 -188 -297q94 -48 152 -138t59 -190z" />
    <glyph glyph-name="nine" unicode="9" 
d="M553 1239q-117 1 -190 -103t-73 -227t72 -227q70 -104 183 -102q113 0 198 102q56 66 117 199q-70 358 -307 358zM967 627q0 -365 -244 -535q-180 -125 -354 -125q-45 0 -95 17q-59 22 -59 64t37 42q14 0 56 -17t67 -18q217 -2 360 159t148 384q0 2 -4 137
q-129 -238 -332 -241q-156 0 -246 126t-90 292t90 289q90 124 254 124q223 0 330 -254q82 -184 82 -444z" />
    <glyph glyph-name="colon" unicode=":" 
d="M709 111q0 -45 -32 -78t-77 -33h-27q-43 0 -73 33t-31 78q0 45 30 81t72 35h29q43 1 76 -35t33 -81zM600 868q47 0 78 -34t31 -79q0 -46 -33 -80t-76 -34h-27q-47 0 -75 31t-27 80q0 117 100 116h29z" />
    <glyph glyph-name="semicolon" unicode=";" 
d="M440 94q0 121 131 121q82 -1 124 -57t41 -144t-79 -188t-161 -125l-17 41q172 121 172 225q0 31 -26 31l-58 -10q-53 0 -90 28t-37 78zM711 752q0 -113 -144 -113q-41 0 -69 34t-27 82q0 48 28 81t74 32h29q43 0 76 -36t33 -80z" />
    <glyph glyph-name="less" unicode="&#x3c;" 
d="M1069 111q0 -33 -43 -43q-6 2 -27 14l-893 518l898 520q0 6 24 15q25 0 45 -39q-2 -23 -37 -45l-760 -451l760 -446q33 -18 33 -43z" />
    <glyph glyph-name="equal" unicode="=" 
d="M1040 496q58 0 54 -43q-4 -47 -54 -47h-903q-49 0 -53 47q-2 43 55 43h901zM1094 760q0 -45 -54 -45h-903q-51 0 -51 45t49 45h909q50 0 50 -45z" />
    <glyph glyph-name="greater" unicode="&#x3e;" 
d="M106 1094q0 39 46 39q1 -1 32 -11l889 -522q-410 -244 -921 -530q-45 0 -46 36q0 25 35 48l762 446l-762 451q-35 23 -35 43z" />
    <glyph glyph-name="question" unicode="?" 
d="M662 89q0 -40 -28 -70t-69 -29h-24q-41 0 -68 28t-27 71q0 42 27 74t66 32h28q37 0 66 -33t29 -73zM946 846q0 -127 -108 -217q-57 -47 -226 -127l2 -86q-2 -49 -45 -62q-43 0 -43 58v143q158 63 215 100q123 82 123 193t-84 190q-82 82 -186 82t-188 -39t-93 -120
q0 -14 -12 -43l-25 -17q-43 0 -45 57q0 18 25 72q88 178 330 178q158 0 259 -101t101 -261z" />
    <glyph glyph-name="at" unicode="@" 
d="M760 639q0 85 -50 149t-129 64t-119 -64t-40 -149t41 -149t119 -64t128 64t50 149zM948 301q117 0 117 307q0 231 -129 393q-135 175 -349 175t-354 -183q-121 -170 -121 -390t134 -390q133 -170 342 -170q43 0 129 29t92 28q31 0 31 -40t-92 -64t-158 -25
q-242 1 -392 195t-151 442q0 248 143 434q156 205 399 205q243 1 393 -191t151 -448q0 -198 -41 -284q-42 -86 -136 -86t-149 72t-43 155q-72 -103 -179 -103t-165 82t-58 190q0 107 58 189q61 92 169 92t175 -98q2 5 8 21q21 58 43 57q27 0 27 -76l-17 -291
q0 -227 123 -227z" />
    <glyph glyph-name="A" unicode="A" 
d="M336 494h508l-240 624h-33zM106 -27q-42 0 -40 21q0 4 452 1214q14 37 70 37t71 -39l449 -1204q2 -2 3 -10t-8 -12t-43 -4t-42 26l-146 401h-567l-149 -403q-8 -27 -50 -27z" />
    <glyph glyph-name="B" unicode="B" 
d="M850 903q0 99 -87 157t-190 58h-344v-1028h441q106 0 188 67t82 171q2 180 -227 233q-88 20 -367 21q-39 0 -39 45q4 41 41 41q221 -2 316 20q186 45 186 215zM678 0h-473q-51 0 -60 45v143l2 975q4 43 54 43h374q137 0 250 -88t113 -221q2 -158 -170 -260
q264 -92 262 -307q0 -142 -104 -236t-248 -94z" />
    <glyph glyph-name="C" unicode="C" 
d="M1071 231q0 -23 -45 -75q-70 -86 -175 -138t-210 -53q-227 -1 -379 187t-153 432q0 244 114 438q139 225 379 225q209 0 352 -147v28q0 42 1 58q2 31 42 33q43 0 43 -60v-244q0 -18 -13 -36t-30 -19q-43 0 -43 53q-2 86 -88 156q-115 90 -264 90q-211 0 -321 -190
q-93 -159 -93 -365t133 -378t316 -171q119 0 207 58q53 33 119 104q49 57 67 57q41 0 41 -43z" />
    <glyph glyph-name="D" unicode="D" 
d="M950 530v162q0 168 -118 303t-283 135h-318l-2 -1038h160q72 -2 160 -2q161 0 281 139t120 301zM1038 680v-141q0 -209 -146 -374t-351 -165h-336q-31 0 -49 8q-16 31 -15 39l2 873q0 250 4 278q6 20 56 21h336q209 0 354 -164t145 -375z" />
    <glyph glyph-name="E" unicode="E" 
d="M999 44q0 -44 -26 -44h-742q-53 0 -53 47v1116q0 43 51 43h744q27 0 27 -44t-27 -44h-709v-446h398q23 0 28 -45q0 -45 -26 -45h-400v-492l709 -2q26 0 26 -44z" />
    <glyph glyph-name="F" unicode="F" 
d="M952 1206q27 0 27 -44t-27 -44h-665v-446h399q23 0 29 -45q0 -45 -29 -45h-399v-545q0 -43 -43 -43t-43 43v1126q0 43 55 43h696z" />
    <glyph glyph-name="G" unicode="G" 
d="M610 -35q-228 -1 -380 187t-152 432t115 438q139 225 378 225q207 0 353 -147v28q0 42 1 58q2 31 42 33q43 0 43 -60v-244q0 -18 -14 -36t-29 -19q-43 0 -43 53q-2 86 -88 156q-115 90 -265 90q-211 0 -321 -190q-92 -158 -92 -366t133 -378t319 -170q154 0 264 117
t148 279l-303 -2q-53 -1 -53 41t53 42l323 3q43 0 52 -25q8 -14 8 -59q-6 -43 -49 -156q-129 -330 -443 -330z" />
    <glyph glyph-name="H" unicode="H" 
d="M965 1184v-1147q0 -43 -45 -43t-46 43v545h-573l-2 -545q0 -43 -43 -43t-43 43v1147q0 43 45 45q20 2 32 -10t11 -35v-512h573v512q0 45 46 45t45 -45z" />
    <glyph glyph-name="I" unicode="I" 
d="M913 90q58 0 58 -45t-58 -45h-651q-55 0 -55 49q0 41 55 41h285v1026h-285q-55 0 -55 49q0 41 55 41h653q55 0 56 -41q0 -49 -58 -49h-276v-1026h276z" />
    <glyph glyph-name="J" unicode="J" 
d="M999 1163v-811q-1 -162 -119 -274t-287 -113q-169 0 -282 72q-131 82 -131 256q0 43 9 89t15 98t48 52q43 0 43 -51q0 -12 -12 -72t-13 -94q0 -260 342 -260q123 0 214 89t92 208v766l-345 2q-55 0 -55 43t53 43h369q59 0 59 -43z" />
    <glyph glyph-name="K" unicode="K" 
d="M991 0h-162q-98 281 -151 379q-115 201 -293 264l-172 -158v-448q0 -43 -43 -43t-43 43v1147q0 43 43 43t43 -43v-584l580 543l63 65q29 23 88 23t60 -41q0 -49 -91 -49l-458 -432q174 -76 278 -260q41 -66 154 -359l84 4q57 0 80 -47q-4 -47 -60 -47z" />
    <glyph glyph-name="L" unicode="L" 
d="M979 44q0 -44 -27 -44h-694q-55 0 -55 47l-2 1137q0 43 45 43t45 -43v-1094l661 -2q27 0 27 -44z" />
    <glyph glyph-name="M" unicode="M" 
d="M1073 1206v-1169q0 -43 -44 -43t-44 43v1081h-18l-326 -756q-12 -26 -50 -26t-52 26l-332 756h-14v-1081q0 -43 -44 -43t-45 43v1169q0 41 67 44t89 -44l330 -743l321 743q20 45 91 45t71 -45z" />
    <glyph glyph-name="N" unicode="N" 
d="M1008 1184v-1147q0 -31 -46 -32t-67 32l-639 1046v-1046q0 -43 -43 -43t-43 43v1147q0 49 53 49q43 0 58 -27l637 -1036v1014q0 43 45 43t45 -43z" />
    <glyph glyph-name="O" unicode="O" 
d="M592 1151q-194 0 -316 -184q-109 -164 -104 -367q0 -240 126 -394t304 -155q178 0 291 172t114 379t-102 365q-119 184 -313 184zM1094 596q0 -242 -127 -424q-143 -205 -377 -205t-377 209q-127 186 -127 428t125 422q145 207 377 207t375 -209q131 -186 131 -428z" />
    <glyph glyph-name="P" unicode="P" 
d="M238 -6q-43 0 -43 43v1128q0 41 63 41h320q162 0 282 -96t121 -254q4 -252 -285 -342q-70 -20 -198 -18t-150 2q-33 6 -33 39q4 43 41 43l201 2q129 4 237 78t105 194q-2 119 -97 192t-216 72h-303l-2 -1083q0 -41 -43 -41z" />
    <glyph glyph-name="Q" unicode="Q" 
d="M556 217q-56 -1 -114 -25t-57 -69q0 -14 8 -29q78 -36 169 -36t181 59q-18 41 -75 71q-56 30 -112 29zM965 608q0 205 -109 369q-122 186 -318 186t-315 -186q-109 -162 -104 -369q0 -305 194 -458q8 74 90 116q63 33 150 33q174 -4 250 -131q74 74 118 200t44 240z
M1109 -2q36 0 36 -55q0 -139 -201 -140q-113 1 -156 51t-38 164q-88 -53 -195 -53q-244 0 -389 207q-131 180 -132 448q-2 268 148 448q150 179 370 179t366 -213q131 -186 131 -428q-4 -342 -224 -532v-56q0 -131 115 -135q135 0 135 60q-2 55 34 55z" />
    <glyph glyph-name="R" unicode="R" 
d="M1083 47q0 -51 -94 -51q-4 0 -78 6q-117 209 -188 303q-117 158 -266 232h-160q-43 0 -41 45t41 45h123q129 -1 255 67t126 180q1 112 -95 178t-206 66h-320v-1081q0 -43 -43 -43t-43 43v1126q0 43 58 43h354q141 0 258 -92q123 -102 123 -240q0 -211 -297 -311
q109 -76 209 -217q47 -68 159 -260q14 0 25 2h23q77 0 77 -41z" />
    <glyph glyph-name="S" unicode="S" 
d="M1020 328q0 -172 -126 -268t-295 -95q-169 0 -304 92t-135 246q0 61 41 62q16 -1 23 -15q8 -14 24 -86t86 -129q88 -78 240 -81t258 73t106 210t-125 195q-57 27 -243 61q-371 68 -367 329q1 152 113 244t258 91q146 0 273 -89q126 -89 126 -220q0 -59 -39 -59
q-25 0 -33 14l-16 74q-16 66 -82 123q-90 72 -212 72t-213 -68t-91 -186q0 -47 22 -93q49 -92 189 -129q172 -33 258 -51q150 -39 215 -143q49 -78 49 -174z" />
    <glyph glyph-name="T" unicode="T" 
d="M1073 1118h-438v-1081q0 -43 -45 -43t-45 43v1081h-441q-26 0 -26 44t26 44h967q23 0 29 -43q0 -45 -27 -45z" />
    <glyph glyph-name="U" unicode="U" 
d="M1008 1184v-789q0 -180 -119 -305t-299 -125t-301 123q-119 125 -119 307v791q0 41 44 41t44 -43l-2 -789q0 -141 94 -241t236 -100t236 100q95 102 96 241v789q0 43 45 43t45 -43z" />
    <glyph glyph-name="V" unicode="V" 
d="M1087 1206q0 -2 -206 -573q-184 -498 -232 -631q-12 -35 -59 -37t-62 35l-231 625q-207 565 -207 569q0 33 51 39q16 0 23 -14l422 -1129l418 1129q6 18 44 18t39 -31z" />
    <glyph glyph-name="W" unicode="W" 
d="M958 -37q-58 0 -67 37l-295 1036l-285 -1036q-8 -37 -67 -37t-64 37l-153 1219q-4 16 34 24q37 0 41 -24l152 -1117l278 979q10 35 68 35t68 -35l274 -979l131 1117q4 25 43 25t35 -25l-133 -1219q-2 -37 -60 -37z" />
    <glyph glyph-name="X" unicode="X" 
d="M1145 47q-1 -49 -67 -49t-88 16t-64 76l-340 461l-416 -578q-14 -18 -32 -18t-37 11q-17 10 -17 20t4 14l442 627l-370 503q-10 10 -68 10t-57 36q0 47 73 47t95 -19l375 -510l383 531q14 18 32 18t42 -15t7 -30l-407 -580l391 -530q6 -8 62 -8t57 -33z" />
    <glyph glyph-name="Y" unicode="Y" 
d="M1032 1196q0 -12 -181 -308t-208 -339v-512q0 -43 -44 -43t-44 43l2 514q-412 605 -412 625t28 42t44 1l381 -580l358 580q2 8 20 10q18 3 38 -9q18 -12 18 -24z" />
    <glyph glyph-name="Z" unicode="Z" 
d="M1036 44q0 -44 -61 -44h-801q-31 0 -31 39t31 84l674 997l-637 -2q-61 0 -61 50t61 51h719q26 0 26 -38t-28 -83l-670 -1008l717 -2q61 0 61 -44z" />
    <glyph glyph-name="bracketleft" unicode="[" 
d="M760 -274h-387v1570h387q45 0 45 -45t-45 -45h-297v-1390h297q45 0 45 -45t-45 -45z" />
    <glyph glyph-name="backslash" unicode="\" 
d="M299 1395l657 -1497q14 -37 -14 -54q-39 -20 -55 21l-664 1493q-18 38 19 58t57 -21z" />
    <glyph glyph-name="bracketright" unicode="]" 
d="M805 1296v-1570h-387q-45 0 -45 45t45 45h297v1390h-297q-45 0 -45 45t45 45h387z" />
    <glyph glyph-name="asciicircum" unicode="^" 
d="M969 803q0 -45 -43 -41q-20 0 -39 24l-297 396l-297 -396q-23 -28 -38 -28t-31 15t-15 31q0 16 381 515l360 -477q19 -25 19 -39z" />
    <glyph glyph-name="underscore" unicode="_" 
d="M1178 -272v-90h-1178v90h1178z" />
    <glyph glyph-name="grave" unicode="`" 
d="M410 1335q0 15 16 35t28 20t13 -4q301 -241 300 -260q-1 -20 -15 -37t-26 -17t-15 5l-164 129q-137 113 -137 129z" />
    <glyph glyph-name="a" unicode="a" 
d="M636 467q-130 0 -235 -51q-137 -62 -137 -166t71 -150t171 -47q207 -1 412 189l-3 190q-149 35 -279 35zM999 662v-625q1 -43 -37 -43t-44 51q-2 27 -3 78q-201 -158 -403 -158q-139 0 -236 71q-98 71 -98 199t115 221t391 93q82 0 234 -33l-3 143q-4 91 -84 135t-173 44
q-92 0 -204 -36t-127 -36t-30 12q-12 25 -12 37t8 27q19 26 167 52t202 26q133 -2 235 -68t102 -190z" />
    <glyph glyph-name="b" unicode="b" 
d="M591 836q-157 0 -267 -118t-111 -277q0 -159 109 -273q110 -114 268 -115q158 1 266 117t109 273q0 157 -111 274q-106 119 -263 119zM168 -6q-43 0 -43 43v1237q0 41 44 41t44 -41l2 -555q152 203 381 201q193 0 325 -138t132 -332t-131 -337q-139 -145 -330 -146
q-225 0 -379 203l4 -80q0 -96 -49 -96z" />
    <glyph glyph-name="c" unicode="c" 
d="M1051 191q0 -42 -103 -113q-162 -113 -360 -113t-330 137q-129 139 -129 343q0 203 129 345t336 142q152 0 266 -66q137 -80 137 -221q0 -59 -41 -59q-28 0 -31 20q-1 6 -2 10t-2 12t-2 11q-1 4 -1 12v11q-6 59 -109 126q-83 58 -233 58t-259 -117q-104 -117 -104 -289
t106 -278t283 -107q190 0 383 161q16 14 23 17q43 0 43 -42z" />
    <glyph glyph-name="d" unicode="d" 
d="M588 53q164 0 272 114t107 279q0 165 -111 281q-106 119 -266 119t-271 -118t-111 -282t108 -279q108 -114 272 -114zM1059 1274v-1237q0 -43 -48 -43t-48 92q0 14 2 48t2 38q-152 -207 -387 -207q-197 -1 -328 143t-131 340t133 340q135 143 330 144q231 4 383 -209v551
q0 41 46 41t46 -41z" />
    <glyph glyph-name="e" unicode="e" 
d="M571 846q-148 0 -251 -90t-130 -240h723q-16 109 -22 127q-18 68 -66 109q-106 94 -254 94zM1028 233q43 0 43 -41t-102 -112q-170 -115 -372 -115q-202 -1 -346 145q-145 146 -145 351t134 336t336 134t329 -138q92 -104 94 -361h-811q23 -174 135 -275
q113 -101 279 -101t291 63q25 12 72 65q49 49 63 49z" />
    <glyph glyph-name="f" unicode="f" 
d="M950 1250q0 -40 -63 -46l-94 2q-92 0 -165 -48t-73 -132v-129l338 -2q55 0 55 -45t-55 -45h-338l2 -768q0 -43 -43 -43t-43 43v768h-186q-59 0 -60 49q0 43 58 43h188v129q0 123 100 198t222 72l98 -2q59 -4 59 -44z" />
    <glyph glyph-name="g" unicode="g" 
d="M975 -6q0 88 -154 143q-250 88 -465 2q-150 -57 -150 -158t150 -159q115 -43 237 -43t238 47q144 57 144 168zM797 636q1 79 -63 141q-64 63 -143 63t-143 -62t-65 -143q0 -82 61 -143q66 -60 147 -60t143 62t63 142zM1073 -29q0 -141 -178 -221q-135 -63 -301 -63
t-307 63q-182 84 -183 223q0 111 146 201l293 178q-104 18 -174 100t-70 192t86 194q87 84 199 83t178 -57q88 64 101 64t29 -20t17 -36q0 -16 -86 -63q57 -69 57 -181t-85 -198q-29 -29 -277 -172q66 4 74 4q156 0 303 -65q178 -85 178 -226z" />
    <glyph glyph-name="h" unicode="h" 
d="M954 637v-600q0 -45 -44 -42t-44 42v596q0 225 -299 225q-59 0 -145 -80q-29 -29 -115 -129v-612q0 -43 -41 -43t-41 43l-2 1237q0 41 42 41t42 -41v-500q143 166 322 166q143 0 234 -83t91 -220z" />
    <glyph glyph-name="i" unicode="i" 
d="M1014 47q0 -45 -58 -45h-735q-57 0 -57 49q0 35 57 35h326v721h-262q-57 0 -58 47q0 45 58 45h346v-813h327q56 0 56 -39zM584 1268q36 0 58 -26t22 -59q0 -32 -26 -57t-58 -24q-88 0 -82 80q0 38 26 62t60 24z" />
    <glyph glyph-name="j" unicode="j" 
d="M805 -59h2q0 -150 -93 -243t-243 -93h-65q-61 0 -62 45q0 47 57 45l66 -4q104 -7 177 67t73 181v868l-191 2q-59 0 -59 45t59 45h279v-958zM752 1268q34 0 58 -26t24 -59q0 -32 -26 -57t-58 -24q-88 0 -82 80q0 38 24 62t60 24z" />
    <glyph glyph-name="k" unicode="k" 
d="M981 44q0 -38 -43 -44q-4 -2 -62 -2t-139 92l-358 389l-103 -84l5 -358q0 -43 -42 -43t-42 43v1235q0 43 40 43t39 -41v-766l361 313q4 3 18 23t22 27q7 7 23 25t48 17l57 -2q57 -2 57 -41t-33 -47q-8 -2 -61 -2l-330 -291l416 -440h76q51 -8 51 -46z" />
    <glyph glyph-name="l" unicode="l" 
d="M1014 45q0 -45 -58 -45h-735q-57 0 -57 49q0 35 57 35h322v1120h-256q-57 0 -58 47q0 45 58 45h350v-1212h321q56 0 56 -39z" />
    <glyph glyph-name="m" unicode="m" 
d="M1108 696v-659q0 -43 -42 -43t-42 43v649q0 60 -46 106t-104 46q-123 0 -235 -174v-627q0 -43 -45 -43t-45 43v643q0 59 -47 108t-107 50q-106 0 -237 -174v-629q0 -43 -43 -39t-43 41l-2 837q0 41 41 41t47 -41v-69q109 117 252 117t208 -140q115 141 261 138
q89 0 159 -68t70 -156z" />
    <glyph glyph-name="n" unicode="n" 
d="M967 633v-596q0 -43 -44 -43t-44 43v584q0 100 -73 158q-73 59 -176 59t-186 -64q-27 -20 -143 -143v-594q0 -43 -43 -43t-43 43l-4 837q0 41 43 41q51 0 51 -84q0 -11 -2 -39t-2 -30q88 88 162 125t173 37q100 0 166 -36t116 -115t49 -140z" />
    <glyph glyph-name="o" unicode="o" 
d="M592 51q168 -1 282 113t115 275q0 161 -119 278q-120 117 -280 117t-279 -117t-119 -278t116 -275t284 -113zM1073 443q0 -202 -138 -340t-340 -138t-347 141q-144 140 -144 340t144 338t342 138q197 0 340 -138t143 -341z" />
    <glyph glyph-name="p" unicode="p" 
d="M965 478q0 148 -110 254q-109 106 -263 106t-266 -106t-111 -260q0 -155 110 -259t261 -104t266 110q113 111 113 259zM1053 478q0 -192 -133 -323q-133 -132 -328 -132q-231 0 -379 188v-588q0 -41 -44 -41t-44 43v1247q0 43 44 43t50 -69q-2 -37 -2 -111
q143 186 373 187q190 0 326 -126t137 -318z" />
    <glyph glyph-name="q" unicode="q" 
d="M963 477q0 154 -110 256q-111 103 -265 103t-264 -104t-111 -258q0 -153 109 -261q110 -104 266 -104t266 107t109 261zM1007 915q46 0 46 -41v-1249q0 -43 -45 -43t-45 43v586q-139 -186 -375 -191q-195 0 -329 132t-134 321q0 191 137 321t328 130q236 0 375 -189
l-4 92q0 88 46 88z" />
    <glyph glyph-name="r" unicode="r" 
d="M729 915q55 0 133 -43t78 -89t-43 -46q-2 0 -18 4q-90 88 -146 88q-80 0 -219 -102q-41 -29 -192 -166v-524q0 -43 -41 -43t-41 43l-2 837q0 41 42 41t42 -41l2 -196q127 111 186 153q125 84 219 84z" />
    <glyph glyph-name="s" unicode="s" 
d="M993 260q0 -152 -133 -229q-108 -63 -264 -63t-270 59q-141 74 -142 213q0 57 43 57q33 0 45 -51l17 -78q27 -53 121 -83t198 -30t187 39q113 51 112 160q0 117 -176 164l-330 69q-176 59 -176 205q0 123 123 189q96 51 226 51t241 -55q133 -72 133 -181q0 -61 -45 -61
q-23 -1 -47 63t-55 90q-66 57 -213 58q-90 0 -182 -41t-93 -119q-1 -96 185 -139t319 -70q176 -65 176 -217z" />
    <glyph glyph-name="t" unicode="t" 
d="M911 12q0 -37 -32 -45q-8 -2 -64 -2q-139 0 -234 67t-96 197v576h-159q-59 0 -60 47q0 45 58 45h161l-2 250q-1 14 15 37t28 22q47 0 47 -59v-250h281q57 0 57 -46t-61 -46h-277v-576q0 -174 279 -174q59 0 59 -43z" />
    <glyph glyph-name="u" unicode="u" 
d="M963 874v-837q0 -43 -40 -43t-46 51q0 2 2 20t2 58q-182 -158 -387 -158q-123 0 -201 80t-78 205v624q0 41 43 41t43 -41v-624q0 -86 52 -140t139 -55q211 0 387 195v624q0 41 42 41t42 -41z" />
    <glyph glyph-name="v" unicode="v" 
d="M1008 893q0 -8 -373 -893q-18 -45 -46 -45t-46 45l-373 893q0 43 47 43q27 0 41 -27l332 -786l223 532q8 23 107 254q14 27 41 27q47 0 47 -43z" />
    <glyph glyph-name="w" unicode="w" 
d="M1033 923q38 0 38 -15t-93 -445t-104 -463q-6 -29 -50 -30t-52 30l-174 682l-190 -682q-10 -31 -56 -31t-51 33l-192 907q-1 21 41 21t47 -25l163 -788l168 604q8 39 68 39t70 -39l155 -604l172 786q2 20 40 20z" />
    <glyph glyph-name="x" unicode="x" 
d="M1030 0q-37 0 -74 31l-57 59l-328 324l-419 -414q-8 -8 -25 -8q-51 0 -51 26q0 12 442 455l-340 340l-78 4q-14 6 -28 45q0 33 34 39q6 2 49 2t61 -12q18 -13 24 -17t15 -15t13 -14t14 -17t13 -15l276 -287l367 379q12 12 31 13q57 0 57 -39q0 -27 -397 -406l381 -383
q68 0 90 -20l6 -23q0 -47 -76 -47z" />
    <glyph glyph-name="y" unicode="y" 
d="M317 -401q-53 0 -53 45q0 23 17 32q4 4 34 13q18 -8 56 -8t57 38l131 281q-147 301 -223 453l-223 454q1 19 39 19t47 -21l405 -807l377 807q8 20 47 20t39 -20l-567 -1218q-39 -88 -183 -88z" />
    <glyph glyph-name="z" unicode="z" 
d="M1022 44q0 -44 -61 -44h-760q-21 0 -21 30t21 52l620 731h-604q-61 0 -61 46t61 46l715 -2q20 1 20 -27t-18 -51l-623 -735l647 -2q64 0 64 -44z" />
    <glyph glyph-name="braceleft" unicode="{" 
d="M500 -43v373q0 78 -41 112q-18 12 -78 31q-43 8 -43 39t53 46t68 30q41 35 41 110l4 373q4 98 98 166q88 59 184 59q51 0 52 -43q0 -31 -64 -51l-123 -45q-66 -35 -65 -86v-373q0 -111 -90 -188q90 -55 90 -182v-371q0 -51 65 -86l121 -45q66 -22 66 -51q4 -43 -52 -43
q-98 0 -192 64t-94 161z" />
    <glyph glyph-name="bar" unicode="|" 
d="M545 1241q0 57 43 53t43 -57v-1446q0 -59 -43 -59t-43 59v1450z" />
    <glyph glyph-name="braceright" unicode="}" 
d="M391 -268q-55 0 -51 43q0 29 66 51l120 45q66 35 66 86v371q0 127 90 182q-90 78 -90 188v373q0 51 -66 86l-123 45q-63 20 -63 51q0 43 51 43q96 0 188 -64t95 -161l4 -373q0 -76 41 -110q13 -14 67 -30t54 -46q0 -31 -43 -39q-59 -18 -78 -31q-41 -35 -41 -112v-373
q0 -97 -94 -161t-193 -64z" />
    <glyph glyph-name="asciitilde" unicode="~" 
d="M1004 617q0 -47 -89 -123q-92 -86 -190 -97q-74 -4 -157 110q-82 114 -144 114q-62 1 -127 -89t-78 -90q-45 0 -45 46t88 122q94 86 191 92q76 4 151 -108q80 -113 142 -113t135 91q72 91 77 92q46 0 46 -47z" />
    <glyph glyph-name="uni00A0" unicode="&#xa0;" 
 />
    <glyph glyph-name="exclamdown" unicode="&#xa1;" 
d="M672 -334q0 -31 -25 -51q-25 -21 -57 -21t-58 23t-26 45t2 49l37 703q2 29 13 44t32 13q41 -4 43 -57l39 -703v-45zM604 696h-26q-47 0 -77 34t-30 81t29 79t75 32h29q105 0 102 -113t-102 -113z" />
    <glyph glyph-name="cent" unicode="&#xa2;" 
d="M950 420q0 -27 -49 -60q-106 -76 -250 -88v-213q0 -59 -45 -59t-41 59l4 209q-152 23 -247 133q-94 113 -95 267q0 305 338 397v252q0 59 43 59t43 -57l-2 -256q96 0 191 -62q102 -72 104 -161q0 -59 -39 -60q-23 0 -47 65t-72 101t-173 35q-125 0 -215 -87t-89 -225
q0 -139 88 -227t226 -88q96 0 195 54t91 55q41 0 41 -43z" />
    <glyph glyph-name="sterling" unicode="&#xa3;" 
d="M485 451q0 -229 -123 -361h515q55 0 73 41q2 2 21 78q10 41 41 41q16 0 30 -16t15 -33q0 -77 -50 -139t-122 -62h-658q-59 0 -59 47q0 33 53 44t74 34q41 47 74 155t33 189q0 80 -9 115l-213 2q-31 0 -39 7t-20 38q0 45 57 45l193 2q-61 190 -62 264q0 119 89 209
q90 90 196 90t190 -72q84 -71 81 -109t-40 -38q-1 0 -71 64t-152 65q-82 0 -143 -66t-62 -153v-41q0 -25 60 -215h200q55 0 56 -47q0 -2 -11 -33q-33 -20 -161 -12l-46 2h-24q14 -72 14 -135z" />
    <glyph glyph-name="currency" unicode="&#xa4;" 
d="M601 356q103 0 175 86t72 192t-76 181q-76 80 -186 80t-182 -82q-70 -82 -70 -190t80 -189q84 -78 187 -78zM188 1006q0 14 14 29t32 15q17 0 145 -145q88 76 210 76t210 -76q123 145 145 146q45 0 45 -45q0 -14 -2 -19q-10 -31 -129 -139q131 -221 -2 -438
q133 -133 133 -158q0 -47 -45 -47q-18 0 -74 61l-71 80q-90 -70 -205 -70t-211 68q-39 -45 -135 -135l-15 -4q-45 0 -45 45q0 20 138 158q-137 209 -7 440q-131 131 -131 158z" />
    <glyph glyph-name="yen" unicode="&#xa5;" 
d="M887 240q57 0 53 -43q-4 -47 -53 -47h-244v-113q0 -43 -44 -43t-44 43v113h-254q-49 0 -53 47q-2 43 55 43h254v137h-256q-51 0 -51 45t49 45h258v84q-412 605 -412 625t28 42t44 1l381 -580l358 580q2 8 20 10q18 3 38 -9q18 -12 18 -24t-181 -308t-208 -339v-82h248
q49 0 49 -45t-53 -45h-244v-137h244z" />
    <glyph glyph-name="brokenbar" unicode="&#xa6;" 
d="M588 -266q-25 0 -41 28v45q-2 20 -2 48v413q0 42 1 58q2 35 42 36q31 0 41 -47q4 -24 4 -73l-2 -389v-74q-8 -45 -43 -45zM588 668q-18 0 -41 28v45q-2 20 -2 45v388l4 92q2 30 40 28t40 -28q4 -69 4 -92l-2 -386q0 -66 -2 -71q-6 -49 -41 -49z" />
    <glyph glyph-name="section" unicode="&#xa7;" 
d="M576 825q-264 -1 -263 -197q0 -110 101 -155q80 -35 188 -35t206 48q99 48 99 145q1 96 -107 145t-224 49zM590 -139q-156 0 -262 55q-139 72 -140 209q0 59 43 59q35 0 47 -60t15 -67q33 -53 135 -88q194 -58 363 17q117 53 112 151q0 98 -106 144q-68 33 -224 54
t-198 42q-63 29 -105 105t-41 145q0 176 140 243q-59 25 -100 80q-40 55 -40 117q0 121 123 186q100 53 226 53t233 -55q129 -72 129 -178q0 -61 -41 -61q-25 0 -39 58t-59 91q-77 59 -193 59t-190 -32q-104 -45 -105 -125q4 -78 95 -115q72 -30 391 -71q66 -8 137 -105
q51 -66 51 -142t-54 -148q-54 -71 -138 -101h4q188 -78 188 -242q2 -143 -133 -217q-108 -61 -264 -61z" />
    <glyph glyph-name="dieresis" unicode="&#xa8;" 
d="M457 1184h2q0 -80 -88 -82q-76 -4 -76 92q0 78 81 78t81 -88zM801 1268q35 0 59 -26t23 -59q0 -32 -26 -57t-58 -24q-88 0 -82 80q1 38 25 62t59 24z" />
    <glyph glyph-name="copyright" unicode="&#xa9;" 
d="M815 420h2q0 -47 -84 -95t-139 -49q-119 0 -199 98t-80 224t67 232t179 106t176 -57q0 45 33 45t33 -39v-125q0 -39 -31 -39q-16 0 -27 11t-4 26q0 49 -57 83t-111 33q-102 0 -153 -92q-45 -76 -45 -175t62 -182q63 -83 145 -83t139 54t63 55q31 0 31 -31zM1073 608h2
q0 219 -136 393q-136 175 -353 175t-355 -185q-129 -168 -129 -389t136 -390t350 -169t354 180q131 164 131 385zM588 1247q244 1 396 -195t151 -447q0 -251 -144 -433q-159 -201 -403 -201q-244 -1 -394 195t-151 443q1 247 151 443t394 195z" />
    <glyph glyph-name="ordfeminine" unicode="&#xaa;" 
d="M593 1055q-97 0 -169 -33q-94 -43 -94 -119q0 -127 156 -127t290 133v123q-86 23 -183 23zM918 610q0 -45 -52 -45h-544q-55 0 -56 45q0 45 51 45h545q56 0 56 -45zM846 1196v-436q0 -37 -38 -37t-32 88q-131 -106 -278 -106q-98 0 -168 51t-70 147q-2 221 356 221
q63 0 160 -20l-2 92q-2 59 -61 94q-49 25 -107 25t-140 -25q-83 -24 -94 -24t-32 14l-8 20q-4 34 102 58t184 24t153 -48t75 -138z" />
    <glyph glyph-name="guillemotleft" unicode="&#xab;" 
d="M616 45h2q0 -47 -43 -47q-18 0 -45 27l-434 424l432 421q25 25 45 25q45 0 45 -43q0 -16 -20 -45l-348 -358l346 -361q20 -20 20 -43zM1081 47q0 -47 -43 -47q-18 0 -45 27l-442 424l440 421q27 25 45 25q45 0 41 -43q-4 -25 -20 -45l-350 -358l348 -361q26 -27 26 -43z
" />
    <glyph glyph-name="logicalnot" unicode="&#xac;" 
d="M1135 649v-526q-2 -16 -9 -35q-27 -16 -30 -16q-47 0 -47 51v436l-949 2q-8 0 -16 2h-16q-25 23 -25 43q0 43 55 43h1037z" />
    <glyph glyph-name="uni00AD" unicode="&#xad;" 
d="M915 610q0 -45 -51 -45h-545q-55 0 -55 45t51 45h545q55 0 55 -45z" />
    <glyph glyph-name="registered" unicode="&#xae;" 
d="M891 324h2q0 -35 -74 -35h-31q-74 127 -92 151q-57 82 -129 119l-67 -2q-43 4 -43 35t28 31q242 0 242 116q0 45 -44 79t-95 34h-150v-535q0 -31 -32 -31t-33 29l4 568q0 33 35 32l178 -2q74 0 138 -52t65 -126q0 -104 -138 -155q76 -61 166 -226q70 1 70 -30zM1073 610
h2q0 219 -136 393q-136 175 -353 175t-355 -185q-129 -170 -129 -390t136 -389t350 -169t354 180q131 164 131 385zM588 -27q-244 -1 -394 195t-151 443q1 247 151 443t394 196t396 -196t151 -447q0 -251 -144 -433q-159 -201 -403 -201z" />
    <glyph glyph-name="macron" unicode="&#xaf;" 
d="M858 1196q57 0 57 -43t-51 -43l-547 -2q-55 0 -55 44t51 44h545z" />
    <glyph glyph-name="degree" unicode="&#xb0;" 
d="M586 1346q-106 0 -111 -121q0 -121 119 -123q53 0 85 37t31 89t-38 85t-86 33zM412 1225q0 76 55 131t127 55t121 -57t50 -133t-49 -129q-50 -54 -126 -54t-127 56t-51 131z" />
    <glyph glyph-name="plusminus" unicode="&#xb1;" 
d="M1016 45h2q0 -45 -51 -45h-750q-57 0 -57 45t51 45h750q55 0 55 -45zM995 782q62 0 58 -45q0 -39 -58 -39h-362v-432q0 -59 -47 -59q-41 0 -41 59v432h-363q-59 0 -59 42t59 42h363v435q0 41 43 61q45 0 45 -61v-435h362z" />
    <glyph glyph-name="twosuperior" unicode="&#xb2;" 
d="M799 809h-420v76l192 188q143 147 158 187q8 18 8 36q0 50 -41 92t-94 42q-109 0 -139 -105q0 -12 -17 -27t-36 5l-11 20q0 31 29 76q63 94 172 94q82 0 138 -57t57 -142q0 -34 -8 -64t-113 -140t-217 -211l280 -5q0 43 27 44q35 0 35 -109z" />
    <glyph glyph-name="threesuperior" unicode="&#xb3;" 
d="M803 1001q0 -86 -66 -147t-137 -61q-71 1 -148 33t-77 66t28 34l46 -29q78 -39 137 -39t107 41t48 101t-51 104t-119 43q-41 0 -41 29q0 36 33 32q27 -2 57 -2t65 34q36 34 36 79t-38 78q-39 33 -101 33t-133 -72h-11q-33 0 -32 28q0 27 51 67t133 40t136 -49t54 -138
t-84 -132q107 -62 107 -173z" />
    <glyph glyph-name="acute" unicode="&#xb4;" 
d="M774 1341q0 -18 -16 -34l-281 -234q-16 -10 -28 -10q-45 0 -46 45q0 18 17 35l280 233q16 10 29 10q45 0 45 -45z" />
    <glyph glyph-name="mu" unicode="&#xb5;" 
d="M963 874v-837q0 -43 -40 -43t-46 51q0 2 2 20t2 58q-182 -158 -387 -158q-121 0 -193 72v-412q0 -43 -43 -43t-43 43v1249q0 41 43 41t43 -41v-624q0 -86 52 -140t139 -55q211 0 387 195v624q0 41 42 41t42 -41z" />
    <glyph glyph-name="paragraph" unicode="&#xb6;" 
d="M592 1118q-121 0 -216 -72t-95 -192q0 -119 107 -197t233 -77h49l2 538h-80zM983 1165v-1128q0 -43 -42 -43t-42 43v1081h-139v-538h65q39 -6 39 -41t-37 -43h-65v-459q0 -43 -46 -43t-46 43v461q-96 4 -189 16q-287 90 -286 342q1 158 121 254t282 96h320q65 0 65 -41z
" />
    <glyph glyph-name="periodcentered" unicode="&#xb7;" 
d="M598 868q49 0 80 -34t31 -79q0 -46 -33 -80t-76 -34h-27q-47 0 -75 33t-29 78q0 117 100 116h29z" />
    <glyph glyph-name="cedilla" unicode="&#xb8;" 
d="M602 -33q48 0 29 -141q49 -4 83 -37t34 -85t-44 -83t-97 -31t-115 23t-62 55q0 16 8 25l25 6q10 -1 60 -23t82 -22t58 16t25 41q-4 53 -117 53l2 158q0 20 2 35q15 10 27 10z" />
    <glyph glyph-name="onesuperior" unicode="&#xb9;" 
d="M735 809h-307q-37 0 -37 32t39 31h121v461l-107 -108q-10 -10 -20 -11q-31 0 -31 31q0 10 10 21l209 213v-607h121q33 -3 37 -30q4 -33 -35 -33z" />
    <glyph glyph-name="ordmasculine" unicode="&#xba;" 
d="M593 801q113 -1 193 79t80 192t-83 189t-193 77t-192 -78q-83 -76 -83 -189t82 -192q84 -78 196 -78zM915 610q0 -45 -51 -45h-545q-55 0 -55 45t51 45h545q55 0 55 -45zM592 731q-144 0 -246 100q-100 99 -100 241t100 242t242 99q142 0 241 -98q101 -95 102 -239
t-97 -247q-98 -98 -242 -98z" />
    <glyph glyph-name="guillemotright" unicode="&#xbb;" 
d="M136 0q-11 0 -30 12q-4 4 -12 35q0 23 19 43l354 361l-350 358q-20 20 -21 45q0 43 39 43q12 0 41 -25l445 -421l-443 -426q-31 -25 -42 -25zM598 0q-45 0 -41 47q4 25 18 43l349 361l-346 358q-25 25 -25 45q0 43 43 43q18 0 45 -25l442 -421l-440 -426q-31 -25 -45 -25
z" />
    <glyph glyph-name="onequarter" unicode="&#xbc;" 
d="M821 229v344l-190 -344h190zM952 16q0 -43 -43 -43h-153q-43 0 -43 41q0 35 43 37l65 -2v107h-276v71l235 426h113v-424q59 0 59 -34q0 -39 -57 -39l-2 -107q59 0 59 -33zM1010 862q-2 -27 -33 -33q-338 -119 -782 -268l-21 8l-6 21q6 27 29 37q739 262 784 266
q23 -6 29 -31zM573 846h-307q-37 0 -37 32t39 31h121v461l-106 -108q-10 -10 -21 -11q-31 0 -31 31q0 10 11 21l209 213v-607h120q35 -3 37 -30q4 -33 -35 -33z" />
    <glyph glyph-name="onehalf" unicode="&#xbd;" 
d="M1026 57v-80h-428l-4 86q328 297 352 371q0 4 4 25v14q0 49 -40 89t-87 40t-88 -31t-53 -73l-8 -23q-10 -8 -23 -8q-23 0 -33 29q0 33 25 77q53 98 174 99q79 0 143 -58t64 -137q0 -35 -12 -61q-20 -72 -326 -359l264 -4q0 49 37 45q39 -2 39 -41zM995 862
q-4 -25 -32 -35l-758 -262q-20 -4 -25 -4l-20 8l-6 21q2 27 28 37q743 262 785 266q18 -6 28 -31zM559 846h-307q-37 0 -37 32t39 31h121v461l-107 -108q-10 -10 -20 -11q-31 0 -31 31q0 10 10 21l209 213v-607h121q33 -3 37 -30q4 -33 -35 -33z" />
    <glyph glyph-name="threequarters" unicode="&#xbe;" 
d="M821 229v344l-190 -344h190zM952 16q0 -43 -43 -43h-153q-43 0 -43 41q0 35 43 37l65 -2v107h-276v71l235 426h113v-424q59 0 59 -34q0 -39 -57 -39l-2 -107q59 0 59 -33zM1016 862q-4 -27 -33 -35l-758 -262q-20 -4 -24 -4l-21 8l-6 21q6 27 29 37q739 262 784 266
q23 -6 29 -31zM506 1378q0 104 -144 105q-45 0 -118 -70l-17 -2q-35 0 -34 33q0 47 69 78t121 30q82 2 136 -49t54 -132t-79 -140q104 -74 104 -165q0 -90 -67 -154t-156 -68q-47 0 -130 32t-83 70q0 39 31 39q3 0 69 -36t122 -36t98 44t42 102q0 20 -28 70q-28 51 -105 63
q-76 12 -76 43t31 35h4l47 -2q43 -2 76 32t33 78z" />
    <glyph glyph-name="questiondown" unicode="&#xbf;" 
d="M946 -31q0 -23 -24 -73q-86 -180 -330 -177q-158 -1 -259 101t-102 264q0 127 109 217q63 49 225 125l-2 86q2 45 45 61q43 0 43 -59v-143q-145 -55 -213 -99q-121 -80 -121 -190t82 -193q81 -82 185 -82t188 39t92 121l13 43q10 14 26 17q43 -1 43 -58zM735 837
q1 -44 -27 -75t-69 -31h-25q-42 0 -68 32t-26 75q-4 88 92 98l27 2q41 4 69 -26t27 -75z" />
    <glyph glyph-name="Agrave" unicode="&#xc0;" 
d="M336 492h506l-240 624h-31zM108 -27q-42 1 -42 13t203 562t249 662q14 39 70 36t71 -40l451 -1206q0 -6 2 -8q0 -16 -43 -16t-51 26l-146 401h-567l-147 -403q-8 -27 -50 -27zM635 1348q0 -47 -45 -48q-14 0 -31 11l-280 233q-16 16 -17 35q0 47 45 47q16 0 31 -12
l280 -234q17 -16 17 -32z" />
    <glyph glyph-name="Aacute" unicode="&#xc1;" 
d="M336 494h508l-240 624h-33zM106 -27q-42 0 -40 21q0 4 452 1214q14 37 70 37t71 -39l449 -1204q2 -2 3 -10t-8 -12t-43 -4t-42 26l-146 401h-567l-149 -403q-8 -27 -50 -27zM918 1579q0 -18 -17 -35l-280 -233q-16 -10 -29 -11q-47 0 -47 48q0 16 16 32l281 234
q14 12 30 12q46 0 46 -47z" />
    <glyph glyph-name="Acircumflex" unicode="&#xc2;" 
d="M336 496h508l-240 624h-33zM106 -25q-42 0 -40 21q0 4 452 1214q14 37 70 37t71 -39l449 -1204q2 -2 3 -10t-8 -12t-43 -4t-42 26l-146 402h-567l-149 -404q-8 -27 -50 -27zM852 1331q-33 0 -256 191l-69 -60q-157 -133 -183 -133q-14 -1 -28 15t-15 36q0 20 27 39
l268 215q133 -102 289 -239q0 -1 4 -21q-4 -43 -37 -43z" />
    <glyph glyph-name="Atilde" unicode="&#xc3;" 
d="M862 1526q43 0 43 -45q-1 -45 -65 -124t-140 -87q-61 -6 -127 104t-108 109q-6 0 -27 -4q-40 -14 -74 -88t-49 -74q-43 0 -43 43t65 118t133 82t130 -102t107 -108q60 0 104 100q33 76 51 76zM336 494h508l-240 624h-33zM106 -27q-42 0 -40 21q0 4 452 1214q14 37 70 37
t71 -39l449 -1204q2 -2 3 -10t-8 -12t-43 -4t-42 26l-146 401h-567l-149 -403q-8 -27 -50 -27z" />
    <glyph glyph-name="Adieresis" unicode="&#xc4;" 
d="M336 492h508l-240 624h-33zM106 -29q-42 0 -40 21q0 4 452 1214q14 37 70 37t71 -39l449 -1204q2 -2 3 -10q2 -17 -41 -17q-44 0 -52 27l-146 401h-567l-149 -403q-8 -27 -50 -27zM403 1526q82 0 82 -84t-88 -84q-70 0 -69 100q0 68 75 68zM909 1443q-1 -36 -25 -60
q-24 -23 -59 -23t-59 24t-23 61q0 35 26 59q25 24 61 24t58 -24t21 -61z" />
    <glyph glyph-name="Aring" unicode="&#xc5;" 
d="M336 494h508l-240 624h-33zM481 1473q0 -129 119 -123q49 0 84 37t35 84t-39 83t-87 37t-80 -33t-32 -85zM106 -27q-42 0 -40 21q0 4 452 1214q14 37 70 37t71 -39l449 -1204q2 -2 3 -10t-8 -12t-43 -4t-42 26l-146 401h-567l-149 -403q-8 -27 -50 -27zM768 1471
q0 -79 -47 -131t-127 -52t-129 52t-49 130t55 129q55 55 126 55t121 -51q50 -52 50 -132z" />
    <glyph glyph-name="AE" unicode="&#xc6;" 
d="M559 494v624h-108l-170 -624h278zM1092 0h-476q-57 0 -57 47v359h-301l-106 -388q-8 -26 -50 -26t-43 22q0 -20 108 393t210 801l713 -2q23 0 28 -43q0 -45 -26 -45h-447v-446h258q29 0 23 -45q0 -43 -23 -43h-258v-494l445 -2q22 0 28 -43q0 -45 -26 -45z" />
    <glyph glyph-name="Ccedilla" unicode="&#xc7;" 
d="M780 -305q0 -55 -43 -87t-95 -32t-114 23t-61 57q0 16 6 25l25 8l69 -31q41 -18 72 -18t57 18t27 41q-2 51 -117 51v160q0 43 31 43q12 0 22 -10q14 -31 9 -131q112 -8 112 -117zM1071 231q0 -23 -45 -75q-70 -86 -175 -138t-210 -53q-227 -1 -379 187t-153 432
q0 244 114 438q139 225 379 225q209 0 352 -147v28q0 42 1 58q2 31 42 33q43 0 43 -60v-244q0 -18 -13 -36t-30 -19q-43 0 -43 53q-2 86 -88 156q-115 90 -264 90q-211 0 -321 -190q-93 -159 -93 -365t133 -378t316 -171q119 0 207 58q53 33 119 104q49 57 67 57
q41 0 41 -43z" />
    <glyph glyph-name="Egrave" unicode="&#xc8;" 
d="M1001 45h-2q0 -45 -24 -45h-744q-55 0 -55 47v1118q0 43 51 43h746q27 0 27 -45t-27 -45h-711v-446h400q28 0 28 -44t-26 -44l-402 -2v-492h711q28 0 28 -45zM635 1348q0 -47 -45 -48q-14 0 -31 11l-280 233q-16 16 -17 35q0 47 45 47q16 0 31 -12l280 -234
q17 -16 17 -32z" />
    <glyph glyph-name="Eacute" unicode="&#xc9;" 
d="M999 44q0 -44 -26 -44h-742q-53 0 -53 47v1116q0 43 51 43h744q27 0 27 -44t-27 -44h-709v-446h398q23 0 28 -45q0 -45 -26 -45h-400v-492l709 -2q26 0 26 -44zM918 1579q0 -18 -17 -35l-280 -233q-16 -10 -29 -11q-47 0 -47 48q0 16 16 32l281 234q14 12 30 12
q46 0 46 -47z" />
    <glyph glyph-name="Ecircumflex" unicode="&#xca;" 
d="M999 46q0 -44 -26 -44h-742q-53 0 -53 47v1116q0 43 51 43h744q27 0 27 -44t-27 -44h-709v-446h398q23 0 28 -45q0 -45 -26 -45h-400v-492l709 -2q26 0 26 -44zM885 1370q0 -45 -45 -45q-16 0 -127 92l-123 103l-123 -103q-66 -55 -131 -92q-16 0 -29 14q-31 36 15 76
l268 213q125 -92 293 -237q0 -5 2 -11v-10z" />
    <glyph glyph-name="Edieresis" unicode="&#xcb;" 
d="M999 42q0 -44 -26 -44h-742q-53 0 -53 47v1116q0 43 51 43h744q27 0 27 -44t-27 -44h-709v-446h398q23 0 28 -45q0 -45 -26 -45h-400v-492l709 -2q26 0 26 -44zM461 1454q0 -84 -88 -84q-74 0 -74 90q0 33 24 56t58 22q80 0 80 -84zM885 1454q0 -36 -26 -60
q-27 -24 -61 -24t-57 25t-23 59t24 58t59 24q84 0 84 -82z" />
    <glyph glyph-name="Igrave" unicode="&#xcc;" 
d="M913 90q60 0 60 -45t-58 -45h-653q-57 0 -57 44t53 44l289 2v1028h-285q-57 0 -57 49q0 41 53 41h655q53 0 58 -43q4 -47 -53 -47h-283v-1028h278zM635 1348q0 -47 -45 -48q-14 0 -31 11l-280 233q-16 16 -17 35q0 47 45 47q16 0 31 -12l280 -234q17 -16 17 -32z" />
    <glyph glyph-name="Iacute" unicode="&#xcd;" 
d="M913 90q58 0 58 -45t-58 -45h-651q-55 0 -55 49q0 41 55 41h285v1028l-285 -2q-55 0 -55 49q0 41 55 41h653q55 0 56 -41q0 -47 -58 -47h-276v-1028h276zM918 1579q0 -18 -17 -35l-280 -233q-16 -10 -29 -11q-47 0 -47 48q0 16 16 32l281 234q14 12 30 12q46 0 46 -47z
" />
    <glyph glyph-name="Icircumflex" unicode="&#xce;" 
d="M913 92q58 0 58 -45t-58 -45h-651q-55 0 -55 49q0 41 55 41h285v1028l-285 -2q-55 0 -55 49q0 41 55 41h653q55 0 56 -41q0 -47 -58 -47h-276v-1028h276zM883 1370q0 -45 -45 -45q-16 0 -127 92l-123 103l-123 -103q-66 -55 -131 -92q-16 0 -29 14q-30 35 14 76l269 213
q125 -92 293 -237q0 -5 2 -11v-10z" />
    <glyph glyph-name="Idieresis" unicode="&#xcf;" 
d="M913 88q58 0 58 -45t-58 -45h-651q-55 0 -55 49q0 41 55 41h285v1028l-285 -2q-55 0 -55 49q0 41 55 41h653q55 0 56 -41q0 -47 -58 -47h-276v-1028h276zM451 1453q0 -83 -89 -83q-68 0 -71 96q-4 70 78 70t82 -83zM874 1455q0 -35 -26 -59t-60 -24q-82 0 -77 84
q0 35 24 60q25 24 60 24t57 -24t22 -61z" />
    <glyph glyph-name="Eth" unicode="&#xd0;" 
d="M606 1130h-319v-473h395q57 0 57 -45t-55 -45h-395l-4 -475h159q72 -2 160 -2q160 0 279 137t123 303l2 162q4 166 -116 302t-286 136zM1096 680v-141q0 -205 -144 -372t-354 -167h-336q-31 0 -49 8q-14 27 -14 39v518q-68 0 -72 2q-45 6 -45 43t43 45h72v525q0 39 59 39
h338q210 0 356 -164t146 -375z" />
    <glyph glyph-name="Ntilde" unicode="&#xd1;" 
d="M862 1526q43 0 43 -45q-1 -45 -65 -124t-140 -87q-61 -6 -127 104t-108 109q-6 0 -27 -4q-40 -14 -74 -88t-49 -74q-43 0 -43 43t65 118t133 82t130 -102t107 -108q60 0 104 100q33 76 51 76zM1008 1184v-1147q0 -31 -46 -32t-67 32l-639 1046v-1046q0 -43 -43 -43
t-43 43v1147q0 49 53 49q43 0 58 -27l637 -1036v1014q0 43 45 43t45 -43z" />
    <glyph glyph-name="Ograve" unicode="&#xd2;" 
d="M1008 600q0 205 -103 367q-121 182 -315 182t-308 -173q-114 -174 -114 -396t129 -375q133 -152 293 -152q190 0 311 185q107 157 107 362zM1092 596q0 -242 -127 -424q-143 -205 -375 -205t-377 209q-127 186 -127 428t127 424q141 207 373 207t375 -211
q131 -186 131 -428zM635 1348q0 -47 -45 -48q-14 0 -31 11l-280 233q-16 16 -17 35q0 47 45 47q16 0 31 -12l280 -234q17 -16 17 -32z" />
    <glyph glyph-name="Oacute" unicode="&#xd3;" 
d="M592 1151q-194 0 -316 -184q-109 -164 -104 -367q0 -240 126 -394t304 -155q178 0 291 172t114 379t-102 365q-119 184 -313 184zM1094 596q0 -242 -127 -424q-143 -205 -377 -205t-377 209q-127 186 -127 428t125 422q145 207 377 207t375 -209q131 -186 131 -428z
M918 1579q0 -18 -17 -35l-280 -233q-16 -10 -29 -11q-47 0 -47 48q0 16 16 32l281 234q14 12 30 12q46 0 46 -47z" />
    <glyph glyph-name="Ocircumflex" unicode="&#xd4;" 
d="M592 1153q-194 0 -316 -184q-109 -164 -104 -367q0 -240 126 -394t304 -155q178 0 291 172t114 379t-102 365q-119 184 -313 184zM1094 598q0 -242 -127 -424q-143 -205 -377 -205t-377 209q-127 186 -127 428t125 422q145 207 377 207t375 -209q131 -186 131 -428z
M844 1325q-18 0 -131 90l-121 105l-213 -179q-6 -6 -31 -16q-18 0 -32 14q-13 15 -13 33t31 43l258 213q102 -76 293 -237l4 -21q0 -16 -13 -30q-14 -14 -32 -15z" />
    <glyph glyph-name="Otilde" unicode="&#xd5;" 
d="M862 1526q43 0 43 -45q-1 -45 -65 -124t-140 -87q-61 -6 -127 104t-108 109q-6 0 -27 -4q-40 -14 -74 -88t-49 -74q-43 0 -43 43t65 118t133 82t130 -102t107 -108q60 0 104 100q33 76 51 76zM592 1151q-194 0 -316 -184q-109 -164 -104 -367q0 -240 126 -394t304 -155
q178 0 291 172t114 379t-102 365q-119 184 -313 184zM1094 596q0 -242 -127 -424q-143 -205 -377 -205t-377 209q-127 186 -127 428t125 422q145 207 377 207t375 -209q131 -186 131 -428z" />
    <glyph glyph-name="Odieresis" unicode="&#xd6;" 
d="M592 1149q-194 0 -316 -184q-109 -164 -104 -367q0 -240 126 -394t304 -155q178 0 291 172t114 379t-102 365q-119 184 -313 184zM1094 594q0 -242 -127 -424q-143 -205 -377 -205t-377 209q-127 186 -127 428t125 422q145 207 377 207t375 -209q131 -186 131 -428z
M496 1453q0 -83 -88 -83q-68 0 -72 96q-4 70 78 70t82 -83zM920 1454q0 -34 -26 -58t-60 -24q-82 0 -78 84q0 35 23 60q24 24 59 24q34 0 58 -26t24 -60z" />
    <glyph glyph-name="multiply" unicode="&#xd7;" 
d="M909 274h-2q0 -41 -37 -41q-16 0 -39 23l-245 252l-137 -148q-117 -123 -136 -127q-43 0 -43 39q0 16 21 37l239 258l-237 256l-25 39q0 23 8 26t33 15q23 0 142 -129l133 -147l243 256q16 25 37 18q43 0 43 -43q0 -25 -266 -291l244 -256q24 -29 24 -37z" />
    <glyph glyph-name="Oslash" unicode="&#xd8;" 
d="M1010 605q0 206 -105 349l-590 -780q123 -123 275 -123q190 0 311 185q109 163 109 369zM586 1147q-193 0 -314 -184q-106 -158 -106 -364t104 -349l580 778h2q-113 119 -266 119zM1112 1251h-2q0 -35 -152 -221q131 -174 128 -446q-2 -272 -152 -445
q-150 -174 -339 -171t-321 136q-43 -54 -77 -108q-55 -74 -91 -84q-41 0 -40 47q0 15 65 103t90 112q-133 186 -137 428t127 424q145 211 379 207q180 0 311 -135q45 70 150 192q16 4 22 4q39 0 39 -43z" />
    <glyph glyph-name="Ugrave" unicode="&#xd9;" 
d="M1008 1186v-791q0 -178 -120 -304t-300 -126t-299 125t-119 305v791q0 39 44 41t44 -39v-793q0 -141 94 -240t234 -99t236 100q95 102 96 241v789q0 43 45 43t45 -43zM635 1348q0 -47 -45 -48q-14 0 -31 11l-280 233q-16 16 -17 35q0 47 45 47q16 0 31 -12l280 -234
q17 -16 17 -32z" />
    <glyph glyph-name="Uacute" unicode="&#xda;" 
d="M1008 1186v-791q0 -178 -120 -304t-300 -126t-299 125t-119 305v791q0 39 44 41t44 -39v-793q0 -141 94 -240t234 -99t236 100q95 102 96 241v789q0 43 45 43t45 -43zM918 1579q0 -18 -17 -35l-280 -233q-16 -10 -29 -11q-47 0 -47 48q0 16 16 32l281 234q14 12 30 12
q46 0 46 -47z" />
    <glyph glyph-name="Ucircumflex" unicode="&#xdb;" 
d="M1008 1184v-789q0 -180 -119 -305t-299 -125t-301 123q-119 125 -119 307v791q0 41 44 41t44 -43l-2 -789q0 -141 94 -241t236 -100t236 100q95 102 96 241v789q0 43 45 43t45 -43zM903 1384q0 -47 -45 -45q-19 0 -252 193q-72 -63 -254 -195q-16 1 -30 17q-34 40 14 76
l270 212q127 -92 295 -239q0 -4 2 -8v-11z" />
    <glyph glyph-name="Udieresis" unicode="&#xdc;" 
d="M1008 1184v-789q0 -180 -119 -305t-299 -125t-301 123q-119 125 -119 307v791q0 41 44 41t44 -43l-2 -789q0 -141 94 -241t236 -100t236 100q95 102 96 241v789q0 43 45 43t45 -43zM471 1456q0 -84 -86 -82q-76 2 -76 84t81 82t81 -84zM895 1458q0 -32 -27 -58
q-26 -26 -60 -26t-56 25t-23 61q0 36 25 59q24 23 60 23t58 -26t23 -58z" />
    <glyph glyph-name="Yacute" unicode="&#xdd;" 
d="M1034 1197q0 -11 -182 -310l-209 -336v-514q0 -43 -43 -43t-43 43v514q-414 606 -414 631q-1 14 19 29t36 15t17 -7l381 -580l358 582q2 8 20 9t40 -10q20 -12 20 -23zM918 1579q0 -18 -17 -35l-280 -233q-16 -10 -29 -11q-47 0 -47 48q0 16 16 32l281 234q14 12 30 12
q46 0 46 -47z" />
    <glyph glyph-name="Thorn" unicode="&#xde;" 
d="M895 604h2q0 117 -94 192t-215 74h-305v-540h270q133 0 237 74t105 200zM285 37q0 -43 -46 -43t-46 43v1147q0 43 45 43t45 -43v-228h297q182 0 292 -104q113 -101 113 -246q0 -242 -289 -340q-88 -28 -284 -22l-127 4v-211z" />
    <glyph glyph-name="germandbls" unicode="&#xdf;" 
d="M967 318q0 -112 -72 -232q-72 -121 -199 -121q-96 0 -155 78t-58 178q0 45 45 43q12 0 27 -10l25 -107q32 -92 120 -92t140 101q43 82 43 186q0 244 -234 350q-27 12 -88 16t-88 15q-8 8 -14 37q0 23 8 31l129 32q119 43 119 160q0 92 -64 156q-61 67 -148 67t-151 -53
t-63 -131l2 -985q0 -43 -40 -43t-40 43v985q0 114 86 192t206 78t208 -90t88 -218t-123 -216q109 -53 149 -84q68 -50 105 -152t37 -214z" />
    <glyph glyph-name="agrave" unicode="&#xe0;" 
d="M696 1108q0 -45 -45 -45q-14 0 -30 10l-281 234q-16 16 -16 34q0 45 45 45q14 0 30 -10l281 -233q16 -17 16 -35zM636 467q-130 0 -235 -51q-137 -62 -137 -166t71 -150t171 -47q204 -1 409 189v190q-149 35 -279 35zM999 662v-625q1 -43 -37 -43t-44 51q-2 27 -3 78
q-201 -158 -403 -158q-139 0 -236 71q-98 71 -98 199t115 221t391 93q80 0 231 -33v143q0 90 -92 140q-72 39 -165 39q-92 0 -204 -36t-127 -36t-30 12q-12 25 -12 37t8 27q19 26 167 52t202 26q133 -2 235 -68t102 -190z" />
    <glyph glyph-name="aacute" unicode="&#xe1;" 
d="M938 1341q0 -18 -16 -34l-281 -234q-16 -10 -29 -10q-45 0 -45 45q0 18 17 35l280 233q14 10 29 10q45 0 45 -45zM636 467q-130 0 -235 -51q-137 -62 -137 -166t71 -150t171 -47q204 -1 409 189v190q-149 35 -279 35zM999 662v-625q1 -43 -37 -43t-44 51q-2 27 -3 78
q-201 -158 -403 -158q-139 0 -236 71q-98 71 -98 199t115 221t391 93q80 0 231 -33v143q0 90 -92 140q-72 39 -165 39q-92 0 -204 -36t-127 -36t-30 12q-12 25 -12 37t8 27q19 26 167 52t202 26q133 -2 235 -68t102 -190z" />
    <glyph glyph-name="acircumflex" unicode="&#xe2;" 
d="M636 467q-130 0 -235 -51q-137 -62 -137 -166t71 -150t171 -47q207 -1 412 189l-3 190q-149 35 -279 35zM999 662v-625q1 -43 -37 -43t-44 51q-2 27 -3 78q-201 -158 -403 -158q-139 0 -236 71q-98 71 -98 199t115 221t391 93q82 0 234 -33l-3 143q-4 91 -84 135t-173 44
q-92 0 -204 -36t-127 -36t-30 12q-12 25 -12 37t8 27q19 26 167 52t202 26q133 -2 235 -68t102 -190zM864 1065q-30 0 -201 149q-48 41 -53 46l-219 -179q-8 -8 -33 -16q-14 0 -27 14q-34 36 9 70l272 215l154 -119q119 -94 139 -121l4 -16q-4 -43 -45 -43z" />
    <glyph glyph-name="atilde" unicode="&#xe3;" 
d="M636 469q-130 0 -235 -51q-137 -62 -137 -166t71 -150t171 -47q204 -1 409 189v190q-149 35 -279 35zM999 664v-625q1 -43 -37 -43t-44 51q-2 27 -3 78q-201 -158 -403 -158q-139 0 -236 71q-98 71 -98 199t115 221t391 93q80 0 231 -33v144q0 90 -92 139q-72 39 -165 39
q-92 0 -204 -36t-127 -36t-30 12q-12 25 -12 37t8 27q19 26 167 52t202 26q133 -4 235 -68t102 -190zM905 1213q1 -45 -63 -122t-142 -87q-61 -8 -127 102t-108 111q-59 0 -100 -99q-33 -70 -50 -69q-43 0 -43 43q0 44 64 118t133 81t131 -101q61 -109 107 -109
q60 0 104 101q33 76 51 75q43 1 43 -44z" />
    <glyph glyph-name="adieresis" unicode="&#xe4;" 
d="M637 467q-131 0 -236 -51q-137 -62 -137 -166t76 -156q66 -41 166 -41q212 5 409 189l3 190q-150 35 -281 35zM1001 662v-625q1 -43 -39 -43t-47 51l3 78q-201 -158 -404 -158q-141 0 -239 71q-99 71 -99 202t115 223q78 61 165 73q224 32 462 -16l-5 144q-4 90 -85 135
t-177 43q-45 0 -116 -17l-207 -55q-12 0 -33 12l-12 29q0 14 10 31q23 30 165 56t204 26q133 0 236 -68t103 -192zM504 1184h2q0 -82 -86 -82q-76 0 -76 84t80 84t80 -86zM930 1186q0 -33 -26 -58q-26 -24 -60 -24t-58 22t-24 59q0 35 26 61t59 26q35 0 59 -26t24 -60z" />
    <glyph glyph-name="aring" unicode="&#xe5;" 
d="M636 467q-130 0 -235 -51q-137 -62 -137 -166t71 -150t171 -47q207 -1 412 189l-3 190q-149 35 -279 35zM664 1104q48 0 80 38t32 85t-37 83t-80 36q-117 0 -116 -121q0 -121 121 -121zM999 662v-625q1 -43 -37 -43t-44 51q-2 27 -3 78q-201 -158 -403 -158
q-139 0 -236 71q-98 71 -98 199t115 221t391 93q82 0 234 -33l-3 143q-4 91 -84 135t-173 44q-92 0 -204 -36t-127 -36t-30 12q-12 25 -12 37t8 27q19 26 167 52t202 26q133 -2 235 -68t102 -190zM481 1225q1 76 55 131t127 55t122 -58t49 -132t-50 -128q-50 -55 -126 -55
q-75 0 -126 56t-51 131z" />
    <glyph glyph-name="ae" unicode="&#xe6;" 
d="M559 238l-2 198q-3 0 -71 16t-105 15q-264 -18 -287 -170q-12 -90 49 -162q66 -70 152 -80t160 56q30 29 104 127zM649 510h434q-39 315 -196 328q-104 10 -172 -117q-52 -92 -66 -211zM1171 136q0 -52 -94 -114t-188 -57q-154 10 -242 166v-27q2 -12 2 -28
q0 -76 -47 -76q-53 0 -41 102q-78 -72 -121 -96q-66 -41 -143 -37q-121 4 -207 93t-86 220t127 205q103 57 237 61t191 -28v135q0 66 -53 124q-54 59 -112 59t-145 -35t-97 -35q-41 0 -41 43t110 76t168 33q170 -4 240 -181q96 170 260 185q145 12 223 -176q58 -138 62 -322
l-527 2q8 -127 60 -231q68 -137 182 -142q61 -2 148 66t91 67q43 0 43 -52z" />
    <glyph glyph-name="ccedilla" unicode="&#xe7;" 
d="M997 645q1 -59 -39 -59t-40 76q-6 59 -111 126q-81 58 -231 58t-259 -117q-104 -117 -104 -288t106 -279t282 -107q176 0 345 131q59 47 62 47q43 0 43 -42t-103 -113q-143 -99 -314 -111q34 -17 17 -139q49 -4 83 -37t34 -86t-44 -83t-96 -30t-115 23t-62 55q0 16 8 25
l24 6q7 -1 57 -23t83 -22t59 17t27 40q-4 53 -117 54l2 157q0 20 2 35q6 4 12 6h-20q-201 0 -330 138t-129 342q0 203 129 345t336 142q147 0 275 -73t128 -214z" />
    <glyph glyph-name="egrave" unicode="&#xe8;" 
d="M190 518h725q-16 104 -24 125q-18 68 -66 109q-113 96 -257 95t-247 -91q-104 -90 -131 -238zM1028 233q43 0 43 -41t-102 -112q-170 -115 -373 -115q-203 1 -346 147q-144 146 -144 351t134 337t338 132t329 -137q92 -100 94 -363h-811q23 -174 135 -275
q111 -101 277 -101t291 63q25 12 72 65q49 49 63 49zM637 1108q0 -45 -45 -45q-14 0 -29 10l-280 234q-16 16 -17 34q0 45 45 45q12 0 29 -10l281 -233q16 -17 16 -35z" />
    <glyph glyph-name="eacute" unicode="&#xe9;" 
d="M944 1341q0 -18 -16 -34l-281 -234q-16 -10 -31 -10q-45 0 -45 45q0 18 17 35l280 233q16 10 31 10q45 0 45 -45zM190 518h725q-16 104 -24 125q-18 68 -66 109q-113 96 -257 95t-247 -91q-104 -90 -131 -238zM1028 233q43 0 43 -41t-102 -112q-170 -115 -373 -115
q-203 1 -346 147q-144 146 -144 351t134 337t338 132t329 -137q92 -100 94 -363h-811q23 -174 135 -275q111 -101 277 -101t291 63q25 12 72 65q49 49 63 49z" />
    <glyph glyph-name="ecircumflex" unicode="&#xea;" 
d="M571 844q-148 0 -251 -90t-130 -240h723q-16 109 -22 127q-18 68 -66 109q-106 94 -254 94zM1028 231q43 0 43 -41t-102 -112q-170 -115 -372 -115q-202 -1 -346 145q-145 146 -145 351t134 336t336 134t329 -138q92 -104 94 -361h-811q23 -174 135 -275
q113 -101 279 -101t291 63q25 12 72 65q49 49 63 49zM885 1108q0 -43 -45 -43q-20 0 -252 195l-219 -179q-8 -8 -35 -16q-10 0 -31 12q-14 21 -14 35t28 37l271 215q117 -86 295 -238q0 -4 2 -8v-10z" />
    <glyph glyph-name="edieresis" unicode="&#xeb;" 
d="M190 518h725l-22 125q-23 70 -68 109q-113 96 -257 95t-247 -91q-104 -90 -131 -238zM1028 233q43 0 43 -41t-102 -112q-170 -115 -373 -115q-203 1 -346 147q-144 146 -144 351t134 337t338 132t329 -137q92 -100 94 -363h-811q23 -174 135 -275q111 -101 277 -101
t291 63q25 12 72 65q49 49 63 49zM367 1100q-74 0 -74 84t79 84t81 -86q4 -82 -86 -82zM877 1184q0 -33 -26 -58q-25 -24 -59 -24t-58 22t-24 59q0 35 26 61t60 26t58 -26t23 -60z" />
    <glyph glyph-name="igrave" unicode="&#xec;" 
d="M1014 45q0 -45 -58 -45h-735q-57 0 -57 47q0 35 57 35l326 2v721h-262q-57 0 -58 47q0 45 56 45h348v-813h327q56 0 56 -39zM621 1108q0 -45 -46 -45q-14 0 -28 10l-281 234q-16 16 -16 34q0 45 45 45q12 0 29 -10l280 -233q17 -17 17 -35z" />
    <glyph glyph-name="iacute" unicode="&#xed;" 
d="M940 1341q0 -18 -16 -34l-281 -234q-14 -10 -29 -10q-45 0 -45 45q0 18 17 35l280 233q16 10 29 10q45 0 45 -45zM1014 45q0 -45 -58 -45h-735q-57 0 -57 47q0 35 57 35l326 2v721h-262q-57 0 -58 47q0 45 56 45h348v-813h327q56 0 56 -39z" />
    <glyph glyph-name="icircumflex" unicode="&#xee;" 
d="M1014 45q0 -45 -58 -45h-735q-57 0 -57 49q0 35 57 35h326v721h-262q-57 0 -58 47q0 45 58 45h346v-813h327q56 0 56 -39zM836 1065q-20 0 -252 195l-219 -179q-4 -4 -35 -18q-14 0 -30 15q-34 33 13 71l271 215q113 -82 293 -240l4 -16q0 -43 -45 -43z" />
    <glyph glyph-name="idieresis" unicode="&#xef;" 
d="M1014 45q0 -45 -58 -45h-735q-57 0 -57 47q0 35 57 35l326 2v721h-262q-57 0 -58 47q0 45 56 45h348v-813h327q56 0 56 -39zM362 1100q-74 0 -74 84t80 84q79 0 81 -86q4 -82 -87 -82zM872 1184q0 -33 -26 -58q-26 -24 -59 -24t-57 22t-24 59q0 35 26 61t60 26t57 -26
t23 -60z" />
    <glyph glyph-name="eth" unicode="&#xf0;" 
d="M592 53q164 1 270 113t105 276q0 164 -109 280q-110 116 -266 116t-266 -117q-109 -119 -109 -281q-1 -162 105 -274t270 -113zM592 -35q-203 0 -334 142t-131 338t133 336q132 141 312 141t257 -66q-82 168 -221 291q-84 -37 -241 -88l-21 10l-6 21q4 23 29 34l182 72
q-127 96 -266 96q-23 0 -23 36t27 38q162 0 344 -139q227 82 233 82q25 -6 29 -29q-4 -27 -31 -35l-176 -67q154 -142 260 -352t104 -383q-1 -173 -85 -273q-172 -205 -375 -205z" />
    <glyph glyph-name="ntilde" unicode="&#xf1;" 
d="M905 1213q1 -45 -63 -122t-142 -87q-61 -8 -127 102t-108 111q-59 0 -100 -99q-33 -70 -50 -69q-43 0 -43 43q0 44 64 118t133 81t131 -101q61 -109 107 -109q60 0 104 101q33 76 51 75q43 1 43 -44zM967 633v-596q0 -43 -44 -43t-44 43v584q0 100 -73 158
q-73 59 -176 59t-186 -64q-27 -20 -143 -143v-594q0 -43 -43 -43t-43 43l-4 837q0 41 43 41q51 0 51 -84q0 -11 -2 -39t-2 -30q88 88 162 125t173 37q100 0 166 -36t116 -115t49 -140z" />
    <glyph glyph-name="ograve" unicode="&#xf2;" 
d="M592 53q168 1 284 113t115 275q0 163 -119 280q-118 117 -278 117t-281 -117t-121 -280t116 -275t284 -113zM1073 442q0 -201 -139 -338t-341 -137t-347 139q-142 139 -142 337t146 338q146 141 342 141q197 0 339 -140t142 -340zM672 1108q0 -45 -45 -45q-14 0 -29 10
l-281 234q-16 16 -16 34q0 45 45 45q12 0 29 -10l280 -233q17 -17 17 -35z" />
    <glyph glyph-name="oacute" unicode="&#xf3;" 
d="M944 1341q0 -18 -16 -34l-281 -234q-16 -10 -29 -10q-47 0 -47 45q0 18 19 35l280 233q14 10 29 10q45 0 45 -45zM592 53q168 1 284 113t115 275q0 163 -119 280q-118 117 -278 117t-281 -117t-121 -280t116 -275t284 -113zM1073 442q0 -201 -139 -338t-341 -137
t-347 139q-142 139 -142 337t146 338q146 141 342 141q197 0 339 -140t142 -340z" />
    <glyph glyph-name="ocircumflex" unicode="&#xf4;" 
d="M989 436q0 162 -119 279q-120 117 -280 117t-279 -118q-119 -116 -119 -278t116 -274t284 -113q168 0 280 113q117 112 117 274zM1073 441q0 -202 -138 -340t-340 -138t-347 141q-144 141 -144 340t144 337q144 139 342 139q197 0 340 -138t143 -341zM913 1108
q0 -43 -45 -43q-20 0 -252 195l-219 -179q-8 -8 -35 -16q-10 0 -30 12q-14 21 -14 35t28 37l270 215q117 -86 295 -238q0 -4 2 -8v-10z" />
    <glyph glyph-name="otilde" unicode="&#xf5;" 
d="M905 1213q1 -45 -63 -122t-142 -87q-61 -8 -127 102t-108 111q-59 0 -100 -99q-33 -70 -50 -69q-43 0 -43 43q0 44 64 118t133 81t131 -101q61 -109 107 -109q60 0 104 101q33 76 51 75q43 1 43 -44zM592 51q168 -1 282 113t115 275q0 161 -119 278q-120 117 -280 117
t-279 -117t-119 -278t116 -275t284 -113zM1073 443q0 -202 -138 -340t-340 -138t-347 141q-144 140 -144 340t144 338t342 138q197 0 340 -138t143 -341z" />
    <glyph glyph-name="odieresis" unicode="&#xf6;" 
d="M592 53q168 1 284 113t115 275q0 163 -119 280q-118 117 -278 117t-281 -117t-121 -280t116 -275t284 -113zM1073 442q0 -201 -139 -338t-341 -137t-347 139q-142 139 -142 337t146 338q146 141 342 141q197 0 339 -140t142 -340zM393 1102q-74 0 -74 84t78 84t82 -84
t-86 -84zM903 1186q1 -33 -25 -58q-26 -24 -60 -24t-58 22t-23 59q0 35 26 61q25 26 59 26t58 -26t23 -60z" />
    <glyph glyph-name="divide" unicode="&#xf7;" 
d="M668 199h2q0 -37 -24 -63t-60 -26t-63 26t-27 61t24 61t60 25q36 1 62 -23t26 -61zM1018 610q0 -45 -51 -45h-750q-57 0 -57 45t51 45h750q57 0 57 -45zM670 1010q0 -37 -24 -63q-24 -25 -58 -25t-64 26q-28 26 -28 61q0 33 24 59t61 26t63 -24t26 -60z" />
    <glyph glyph-name="oslash" unicode="&#xf8;" 
d="M570 840q-144 0 -259 -115t-115 -264t93 -271l534 570h2q-111 80 -255 80zM979 451h2q0 143 -92 258l-537 -574q98 -74 255 -74t265 108t107 282zM1085 930q0 -20 -145 -166q125 -131 125 -328t-142 -334t-335 -135q-160 0 -291 101l-45 -54q-96 -106 -119 -106
q-45 0 -41 47q0 35 144 166q-123 145 -122 334t140 327q138 144 320 142t307 -103q49 57 93 105t69 49q24 0 44 -45h-2z" />
    <glyph glyph-name="ugrave" unicode="&#xf9;" 
d="M965 874v-837q0 -43 -43 -43t-45 51l2 80q-178 -154 -387 -158q-123 0 -200 79t-77 204v624q0 41 41 41t45 -41l2 -624q0 -86 51 -140t138 -55q211 0 387 195v624q0 41 43 41t43 -41zM696 1108q0 -45 -45 -45q-14 0 -30 10l-281 234q-16 16 -16 34q0 45 45 45
q14 0 30 -10l281 -233q16 -17 16 -35z" />
    <glyph glyph-name="uacute" unicode="&#xfa;" 
d="M942 1341q0 -18 -16 -34l-281 -234q-16 -10 -29 -10q-47 0 -47 45q0 18 19 35l280 233q14 10 29 10q45 0 45 -45zM965 874v-837q0 -43 -43 -43t-45 51l2 80q-178 -154 -387 -158q-123 0 -200 79t-77 204v624q0 41 41 41t45 -41l2 -624q0 -86 51 -140t138 -55
q211 0 387 195v624q0 41 43 41t43 -41z" />
    <glyph glyph-name="ucircumflex" unicode="&#xfb;" 
d="M963 872v-837q0 -43 -40 -43t-46 51q0 2 2 20t2 58q-182 -158 -387 -158q-123 0 -201 80t-78 205v624q0 41 43 41t43 -41v-624q0 -86 52 -140t139 -55q211 0 387 195v624q0 41 42 41t42 -41zM932 1108q0 -43 -45 -43q-20 0 -252 195l-219 -179q-8 -8 -35 -16q-8 0 -31 12
q-14 21 -14 35t29 37l270 215q117 -86 295 -238q0 -4 2 -8v-10z" />
    <glyph glyph-name="udieresis" unicode="&#xfc;" 
d="M965 874v-837q0 -43 -43 -43t-45 51l2 80q-178 -154 -387 -158q-125 0 -202 79t-77 204v624q0 41 43 41t43 -41l4 -624q0 -86 51 -140t135 -55q211 0 388 195v624q0 41 44 41t44 -41zM498 1182h2q0 -82 -86 -82q-76 0 -76 84t80 84t80 -86zM924 1184q0 -33 -26 -58
q-26 -24 -60 -24t-58 22t-24 59q0 35 26 61t60 26t58 -26t24 -60z" />
    <glyph glyph-name="yacute" unicode="&#xfd;" 
d="M946 1341q0 -18 -16 -34l-281 -234q-16 -10 -28 -10q-45 0 -46 45q0 18 17 35l280 233q16 10 29 10q45 0 45 -45zM374 -319q36 0 58 40q35 80 129 279l-239 479q-211 428 -211 432q5 17 41 17t49 -21l405 -809l379 807q8 20 49 21q35 5 35 -15v-6l-567 -1218
q-43 -88 -185 -88q-51 0 -51 43q0 27 15 34h4q14 7 34 11q19 -6 55 -6z" />
    <glyph glyph-name="thorn" unicode="&#xfe;" 
d="M969 476q0 148 -111 253q-112 105 -264 105t-266 -104t-113 -260q0 -155 112 -259q112 -105 263 -105t266 111q113 111 113 259zM1051 478q0 -192 -132 -323q-132 -132 -325 -132q-229 0 -381 188v-586q0 -43 -43 -43t-43 43v1647q0 43 43 43t43 -43v-537
q150 186 377 187q188 0 324 -126t137 -318z" />
    <glyph glyph-name="ydieresis" unicode="&#xff;" 
d="M372 -319q35 0 58 40q14 33 131 279l-239 479q-211 428 -211 432q-1 17 37 17t51 -21l405 -809l379 807q8 20 49 21q37 5 37 -15v-6l-567 -1218q-43 -88 -185 -88q-53 0 -53 43q0 27 15 34h4q14 7 34 11q20 -6 55 -6zM453 1182h2q0 -82 -86 -82q-76 0 -76 84t80 84
t80 -86zM879 1184q0 -33 -27 -58q-28 -24 -60 -24t-57 22t-25 59q0 35 26 61t60 26t58 -26t25 -60z" />
    <glyph glyph-name="Amacron" unicode="&#x100;" 
d="M336 494h508l-240 624h-33zM106 -27q-42 0 -40 21q0 4 452 1214q14 37 70 37t71 -39l449 -1204q2 -2 3 -10t-8 -12t-43 -4t-42 26l-146 401h-567l-149 -403q-8 -27 -50 -27zM856 1450q57 0 57 -46t-61 -46h-524q-59 0 -60 47q0 45 58 45h530z" />
    <glyph glyph-name="amacron" unicode="&#x101;" 
d="M899 1196q55 0 55 -44t-51 -44h-547q-53 0 -53 44t51 44h545zM636 467q-130 0 -235 -51q-137 -62 -137 -166t71 -150t171 -47q204 -1 409 189v190q-149 35 -279 35zM999 662v-625q1 -43 -37 -43t-44 51q-2 27 -3 78q-201 -158 -403 -158q-139 0 -236 71q-98 71 -98 199
t115 221t391 93q80 0 231 -33v143q0 90 -92 140q-72 39 -165 39q-92 0 -204 -36t-127 -36t-30 12q-12 25 -12 37t8 27q19 26 167 52t202 26q133 -2 235 -68t102 -190z" />
    <glyph glyph-name="Abreve" unicode="&#x102;" 
d="M336 494h508l-240 624h-33zM106 -27q-42 0 -40 21q0 4 452 1214q14 37 70 37t71 -39l449 -1204q2 -2 3 -10t-8 -12t-43 -4t-42 26l-146 401h-567l-149 -403q-8 -27 -50 -27zM596 1290q-121 0 -205 84q-82 84 -82 211h78q-1 -92 61 -154q62 -63 149 -63t149 62t61 155
l72 2q0 -129 -81 -213t-202 -84z" />
    <glyph glyph-name="abreve" unicode="&#x103;" 
d="M628 1065q-120 0 -204 84q-82 84 -82 211h78q0 -92 61 -154t149 -63q88 1 148 63q62 62 62 154l71 2q0 -129 -81 -213q-82 -84 -202 -84zM636 467q-130 0 -235 -51q-137 -62 -137 -166t71 -150t171 -47q204 -1 409 189v190q-149 35 -279 35zM999 662v-625q1 -43 -37 -43
t-44 51q-2 27 -3 78q-201 -158 -403 -158q-139 0 -236 71q-98 71 -98 199t115 221t391 93q80 0 231 -33v143q0 90 -92 140q-72 39 -165 39q-92 0 -204 -36t-127 -36t-30 12q-12 25 -12 37t8 27q19 26 167 52t202 26q133 -2 235 -68t102 -190z" />
    <glyph glyph-name="Aogonek" unicode="&#x104;" 
d="M336 494h508l-240 624h-33zM823 -223q0 -45 28 -80q27 -35 81 -35t78 51q27 51 47 51q43 0 43 -38q0 -58 -56 -102t-128 -44q-70 0 -122 60t-52 154t78 158q79 64 184 91l-132 360h-567l-149 -403q-8 -27 -50 -27t-40 21q408 1116 452 1214q18 37 72 37t69 -39l449 -1204
q-2 -20 -41 -31q-244 -49 -244 -194z" />
    <glyph glyph-name="aogonek" unicode="&#x105;" 
d="M637 467q-133 0 -238 -51q-135 -61 -135 -174q0 -94 72 -142t170 -47q208 1 409 189v190q-145 35 -278 35zM999 662v-625q0 -43 -38 -43q-70 0 -157 -71t-87 -144q0 -45 31 -81q30 -36 78 -36t75 51t49 51q43 0 43 -38q0 -58 -56 -102t-126 -44t-123 60t-53 150
q0 91 86 168t192 110l2 55q-201 -158 -403 -158q-137 0 -235 71t-99 204q0 174 176 252q127 57 330 57q82 0 231 -33v143q0 90 -92 140q-73 39 -151 39t-186 -36t-141 -36t-48 12l-12 31q0 18 8 33q15 26 161 52t208 26q133 0 227 -62q110 -71 110 -196z" />
    <glyph glyph-name="Cacute" unicode="&#x106;" 
d="M995 1219q43 0 43 -58v-243q0 -57 -45 -58q-39 0 -39 53q0 86 -88 156q-115 90 -266 90q-207 0 -321 -190q-93 -159 -93 -365t133 -378t318 -171q119 1 189 47t130 109q58 63 74 63q39 0 39 -43q0 -20 -45 -73q-70 -86 -175 -140t-210 -53q-225 -1 -377 187t-153 432
q0 244 114 438q139 225 379 225q207 0 352 -145v72q6 45 41 45zM852 1528q0 -12 -6 -21l-158 -133q-139 -117 -151 -117q-11 1 -27 19t-16 34t150 141q150 126 163 126q12 0 29 -18q16 -19 16 -31z" />
    <glyph glyph-name="cacute" unicode="&#x107;" 
d="M946 1341q0 -18 -16 -34l-281 -234q-16 -10 -28 -10q-47 0 -48 45q0 18 19 35l280 233q14 10 29 10q45 0 45 -45zM1051 190q0 -43 -105 -112q-164 -111 -360 -113t-328 136q-131 138 -131 344q0 207 129 347t336 140q154 0 268 -68q137 -80 137 -221q0 -57 -41 -57
q-35 0 -38 78q-6 45 -97 112q-89 70 -243 70t-260 -118t-105 -290q0 -172 106 -278t288 -106t378 162q16 14 23 17q43 0 43 -43z" />
    <glyph glyph-name="Ccircumflex" unicode="&#x108;" 
d="M995 1219q43 0 43 -58v-243q0 -57 -45 -58q-39 0 -39 53q0 86 -88 156q-115 90 -266 90q-207 0 -321 -190q-93 -159 -93 -365t133 -378t318 -171q119 1 189 47t130 109q58 63 74 63q39 0 39 -43q0 -20 -45 -73q-70 -86 -175 -140t-210 -53q-225 -1 -377 187t-153 432
q0 244 114 438q139 225 379 225q207 0 352 -145v72q6 45 41 45zM845 1325q-20 0 -128 90l-123 105l-213 -179q-6 -6 -31 -16q-16 0 -31 15q-14 14 -14 32t31 43l258 213q125 -92 293 -237l4 -21q0 -16 -13 -30t-33 -15z" />
    <glyph glyph-name="ccircumflex" unicode="&#x109;" 
d="M1051 190q0 -43 -105 -112q-164 -111 -360 -113t-328 136q-131 138 -131 344q0 207 129 347t336 140q154 0 268 -68q137 -80 137 -221q0 -57 -41 -57q-35 0 -38 78q-6 45 -97 112q-89 70 -243 70t-260 -118t-105 -290q0 -172 106 -278t288 -106t378 162q16 14 23 17
q43 0 43 -43zM918 1108q0 -43 -46 -43q-20 0 -251 195l-220 -179q-8 -8 -34 -16q-10 0 -31 12q-14 21 -14 35t28 37l271 215q117 -86 294 -238q1 -4 3 -8v-10z" />
    <glyph glyph-name="Cdotaccent" unicode="&#x10a;" 
d="M995 1219q43 0 43 -58v-243q0 -57 -45 -58q-39 0 -39 53q0 86 -88 156q-115 90 -266 90q-207 0 -321 -190q-93 -159 -93 -365t133 -378t318 -171q119 1 189 47t130 109q58 63 74 63q39 0 39 -43q0 -20 -45 -73q-70 -86 -175 -140t-210 -53q-225 -1 -377 187t-153 432
q0 244 114 438q139 225 379 225q207 0 352 -145v72q6 45 41 45zM651 1286q-82 0 -78 85t81 83q38 -2 60 -28t23 -59q-1 -33 -27 -57t-59 -24z" />
    <glyph glyph-name="cdotaccent" unicode="&#x10b;" 
d="M1051 190q0 -43 -105 -112q-164 -111 -360 -113t-328 136q-131 138 -131 344q0 207 129 347t336 140q154 0 268 -68q137 -80 137 -221q0 -57 -41 -57q-35 0 -38 78q-6 45 -97 112q-89 70 -243 70t-260 -118t-105 -290q0 -172 106 -278t288 -106t378 162q16 14 23 17
q43 0 43 -43zM516 1182q0 38 24 62t60 24t58 -26t22 -59q0 -32 -26 -57t-58 -24q-80 0 -80 80z" />
    <glyph glyph-name="Ccaron" unicode="&#x10c;" 
d="M995 1219q43 0 43 -58v-243q0 -57 -45 -58q-39 0 -39 53q0 86 -88 156q-115 90 -266 90q-207 0 -321 -190q-93 -159 -93 -365t133 -378t318 -171q119 1 189 47t130 109q58 63 74 63q39 0 39 -43q0 -20 -45 -73q-70 -86 -175 -140t-210 -53q-225 -1 -377 187t-153 432
q0 244 114 438q139 225 379 225q207 0 352 -145v72q6 45 41 45zM383 1606q23 0 129 -86l123 -105l123 98q115 92 129 93q43 0 43 -45q-4 -23 -27 -41l-268 -211q-135 98 -289 229l-6 23q0 45 43 45z" />
    <glyph glyph-name="ccaron" unicode="&#x10d;" 
d="M1051 190q0 -43 -105 -112q-164 -111 -360 -113t-328 136q-131 138 -131 344q0 207 129 347t336 140q154 0 268 -68q137 -80 137 -221q0 -57 -41 -57q-35 0 -38 78q-6 45 -97 112q-89 70 -243 70t-260 -118t-105 -290q0 -172 106 -278t288 -106t378 162q16 14 23 17
q43 0 43 -43zM909 1296q0 -20 -26 -41l-269 -217q-106 82 -196 154t-101 100q0 45 48 45q37 0 249 -194q20 20 128 106t124 90q43 0 43 -43z" />
    <glyph glyph-name="Dcaron" unicode="&#x10e;" 
d="M549 1130h-318l-4 -1038h160q72 -2 160 -2q161 0 279 137t122 303l2 162q4 166 -116 302t-285 136zM1038 680v-141q0 -205 -144 -372t-353 -167h-336q-31 0 -49 8q-16 37 -17 39l4 873q-2 84 -2 258q10 41 60 41h336q211 0 356 -164t145 -375zM821 1561h-2q0 -23 -24 -41
l-269 -211q-135 98 -288 229l-9 23q0 45 43 45q23 0 129 -86l123 -105l123 98q115 92 129 93q45 0 45 -45z" />
    <glyph glyph-name="dcaron" unicode="&#x10f;" 
d="M651 453h2q0 162 -82 276q-81 117 -197 117t-198 -117t-82 -279t78 -279q78 -118 201 -118t198 117q80 117 80 283zM731 43h2q0 -49 -41 -49q-51 0 -39 164q-113 -193 -286 -193q-150 -1 -250 143q-101 144 -101 342t102 342t251 144q172 2 282 -197v531q0 45 40 45
t40 -45v-1227zM866 1130q0 127 127 127q80 0 124 -63t44 -145q0 -83 -77 -183t-162 -129l-19 43q176 115 176 226q0 31 -28 30l-54 -10q-55 0 -93 28t-38 76z" />
    <glyph glyph-name="Dcroat" unicode="&#x110;" 
d="M606 1130h-319v-473h395q57 0 57 -45t-55 -45h-395l-4 -475h159q72 -2 160 -2q160 0 279 137t123 303l2 162q4 166 -116 302t-286 136zM1096 680v-141q0 -205 -144 -372t-354 -167h-336q-31 0 -49 8q-14 27 -14 39v518q-68 0 -72 2q-45 6 -45 43t43 45h72l4 355
q-6 51 -2 170q6 39 59 39h336q210 0 356 -164t146 -375z" />
    <glyph glyph-name="dcroat" unicode="&#x111;" 
d="M903 447q0 164 -110 280q-107 119 -267 119t-270 -118t-111 -282q0 -164 108 -279q109 -114 271 -114t271 115q108 115 108 279zM1122 1067q0 -43 -53 -43h-74v-987q0 -43 -49 -43t-49 92q0 14 3 48t3 38q-152 -207 -387 -207q-199 1 -331 145t-130 338t134 339
q132 144 331 145q231 4 383 -209v305l-379 -4q-55 0 -55 45t53 45h381v160q0 41 46 41t46 -41v-160l72 -2q55 -2 55 -45z" />
    <glyph glyph-name="Emacron" unicode="&#x112;" 
d="M999 44q0 -44 -26 -44h-742q-53 0 -53 47v1116q0 43 51 43h744q27 0 27 -44t-27 -44h-709v-446h398q23 0 28 -45q0 -45 -26 -45h-400v-492l709 -2q26 0 26 -44zM831 1450q58 0 58 -46t-62 -46h-524q-59 0 -59 46t57 46h530z" />
    <glyph glyph-name="emacron" unicode="&#x113;" 
d="M571 846q-148 0 -251 -90t-130 -240h723q-16 109 -22 127q-18 68 -66 109q-106 94 -254 94zM1028 233q43 0 43 -41t-102 -112q-170 -115 -372 -115q-202 -1 -346 145q-145 146 -145 351t134 336t336 134t329 -138q92 -100 94 -361h-811q23 -174 135 -275
q113 -101 279 -101t291 63q25 12 72 65q49 49 63 49zM848 1196q55 0 55 -43t-51 -43l-547 -2q-53 0 -53 44t51 44h545z" />
    <glyph glyph-name="Ebreve" unicode="&#x114;" 
d="M999 44q0 -44 -26 -44h-742q-53 0 -53 47v1116q0 43 51 43h744q27 0 27 -44t-27 -44h-709v-446h398q23 0 28 -45q0 -45 -26 -45h-400v-492l709 -2q26 0 26 -44zM586 1290q-120 0 -205 84q-82 84 -82 211h78q0 -92 61 -154q60 -63 148 -63t150 62t61 155l71 2
q0 -129 -81 -213t-201 -84z" />
    <glyph glyph-name="ebreve" unicode="&#x115;" 
d="M571 846q-148 0 -251 -90t-130 -240h723q-16 109 -22 127q-18 68 -66 109q-106 94 -254 94zM1028 233q43 0 43 -41t-102 -112q-170 -115 -372 -115q-202 -1 -346 145q-145 146 -145 351t134 336t336 134t329 -138q92 -100 94 -361h-811q23 -174 135 -275
q113 -101 279 -101t291 63q25 12 72 65q49 49 63 49zM577 1065q-121 0 -204 84q-82 84 -82 211h78q0 -92 61 -154q60 -62 148 -63q88 1 149 63t61 154l72 2q0 -129 -81 -213t-202 -84z" />
    <glyph glyph-name="Edotaccent" unicode="&#x116;" 
d="M999 44q0 -44 -26 -44h-742q-53 0 -53 47v1116q0 43 51 43h744q27 0 27 -44t-27 -44h-709v-446h398q23 0 28 -45q0 -45 -26 -45h-400v-492l709 -2q26 0 26 -44zM606 1286q-82 0 -78 85t81 83q39 -2 61 -28t22 -59t-26 -57t-60 -24z" />
    <glyph glyph-name="edotaccent" unicode="&#x117;" 
d="M571 846q-148 0 -251 -90t-130 -240h723q-16 109 -22 127q-18 68 -66 109q-106 94 -254 94zM1028 233q43 0 43 -41t-102 -112q-170 -115 -372 -115q-202 -1 -346 145q-145 146 -145 351t134 336t336 134t329 -138q92 -100 94 -361h-811q23 -174 135 -275
q113 -101 279 -101t291 63q25 12 72 65q49 49 63 49zM483 1182q0 38 24 62q23 24 59 24t58 -26t23 -59q1 -32 -25 -57t-59 -24q-80 0 -80 80z" />
    <glyph glyph-name="Eogonek" unicode="&#x118;" 
d="M999 45q0 -45 -26 -45h-170q-63 -8 -101 -56t-36 -115q0 -67 38 -110t108 -43q71 0 108 76q8 20 28 21q45 0 45 -49q0 -8 -4 -21q-59 -121 -190 -121q-86 0 -153 62q-66 62 -66 168t69 188h-418q-53 0 -53 47v1116q0 43 51 43h744q27 0 27 -44t-27 -44h-709v-446h398
q23 0 28 -45q0 -45 -26 -45h-400v-492h709q26 0 26 -45z" />
    <glyph glyph-name="eogonek" unicode="&#x119;" 
d="M574 846q-148 0 -252 -92t-132 -238h723q-12 94 -26 144t-62 92q-103 94 -251 94zM1071 190q0 -31 -39 -63l-63 -47q-63 -47 -199 -100q-102 -41 -102 -154q0 -62 38 -106t98 -44t97 50q41 47 49 47q45 0 45 -52t-67 -96q-68 -43 -127 -43q-96 0 -158 67q-61 67 -61 157
t47 159h-23q-211 -3 -355 143q-145 146 -145 353t136 339t338 132t325 -139q94 -106 94 -361h-811q23 -174 136 -275q114 -101 288 -101t281 63q15 8 69 61t66 53q43 0 43 -43z" />
    <glyph glyph-name="Ecaron" unicode="&#x11a;" 
d="M999 44q0 -44 -26 -44h-742q-53 0 -53 47v1116q0 43 51 43h744q27 0 27 -44t-27 -44h-709v-446h398q23 0 28 -45q0 -45 -26 -45h-400v-492l709 -2q26 0 26 -44zM338 1606q23 0 129 -86l123 -105l123 98q115 92 129 93q43 0 43 -45q-4 -23 -27 -41l-268 -211
q-135 98 -289 229l-6 23q0 45 43 45z" />
    <glyph glyph-name="ecaron" unicode="&#x11b;" 
d="M571 846q-148 0 -251 -90t-130 -240h723q-16 109 -22 127q-18 68 -66 109q-106 94 -254 94zM1028 233q43 0 43 -41t-102 -112q-170 -115 -372 -115q-202 -1 -346 145q-145 146 -145 351t134 336t336 134t329 -138q92 -100 94 -361h-811q23 -174 135 -275
q113 -101 279 -101t291 63q25 12 72 65q49 49 63 49zM877 1296q0 -20 -27 -41l-268 -217q-106 82 -196 154t-101 100q0 45 47 45q37 0 250 -194q20 20 128 106t124 90q43 0 43 -43z" />
    <glyph glyph-name="Gcircumflex" unicode="&#x11c;" 
d="M1008 1159v-244q0 -57 -45 -57q-39 0 -39 53q0 86 -88 156q-115 90 -267 90q-209 0 -321 -190q-92 -156 -92 -365t133 -379t317 -170q154 0 267 117t145 279h-301q-53 -1 -53 41t55 42l321 -2q41 0 54 -24q6 -16 6 -56t-47 -159q-131 -328 -445 -328q-226 -1 -378 187
t-152 432t115 438q139 225 378 225q207 0 353 -145v71q6 45 41 46q43 0 43 -58zM814 1325q-20 0 -128 90l-123 105l-213 -179q-6 -6 -31 -16q-16 0 -30 15q-33 35 16 75l258 213q125 -92 293 -237l4 -21q0 -16 -13 -30t-33 -15z" />
    <glyph glyph-name="gcircumflex" unicode="&#x11d;" 
d="M975 -6q0 88 -154 143q-250 88 -465 2q-150 -57 -150 -158t150 -159q115 -43 237 -43t238 47q144 57 144 168zM797 636q1 79 -63 141q-64 63 -143 63t-143 -62t-65 -143q0 -82 61 -143q66 -60 147 -60t143 62t63 142zM1073 -29q0 -141 -178 -221q-139 -63 -304 -63
t-306 63q-180 82 -181 223q0 111 146 201l293 178q-104 18 -174 100t-70 192t85 193q84 83 198 83t180 -56q16 12 119 74q29 16 51 -16t-8 -52q-29 -20 -101 -61q57 -69 57 -181t-85 -198q-29 -29 -277 -172q61 4 74 4q156 0 303 -65q178 -85 178 -226zM915 1108
q0 -43 -45 -43q-20 0 -252 195l-219 -179q-14 -10 -34 -16q-8 0 -31 12q-16 27 -17 29q0 20 29 43l270 215q117 -86 295 -238q4 -16 4 -18z" />
    <glyph glyph-name="Gbreve" unicode="&#x11e;" 
d="M1008 1159v-244q0 -57 -45 -57q-39 0 -39 53q0 86 -88 156q-115 90 -267 90q-209 0 -321 -190q-92 -156 -92 -365t133 -379t317 -170q154 0 267 117t145 279h-301q-53 -1 -53 41t55 42l321 -2q41 0 54 -24q6 -16 6 -56t-47 -159q-131 -328 -445 -328q-226 -1 -378 187
t-152 432t115 438q139 225 378 225q207 0 353 -145v71q6 45 41 46q43 0 43 -58zM600 1290q-121 0 -205 84q-82 84 -82 211h78q-1 -92 61 -154q62 -63 149 -63t149 62t61 155l72 2q0 -129 -81 -213t-202 -84z" />
    <glyph glyph-name="gbreve" unicode="&#x11f;" 
d="M975 -6q0 88 -154 143q-250 88 -465 2q-150 -57 -150 -158t150 -159q115 -43 237 -43t238 47q144 57 144 168zM797 636q1 79 -63 141q-64 63 -143 63t-143 -62t-65 -143q0 -82 61 -143q66 -60 147 -60t143 62t63 142zM1073 -29q0 -141 -178 -221q-139 -63 -304 -63
t-306 63q-180 82 -181 223q0 111 146 201l293 178q-104 18 -174 100t-70 192t85 193q84 83 198 83t180 -56q16 12 119 74q29 16 51 -16t-8 -52q-29 -20 -101 -61q57 -69 57 -181t-85 -198q-29 -29 -277 -172q61 4 74 4q156 0 303 -65q178 -85 178 -226zM608 1065
q-121 0 -205 86t-84 209h78q-1 -92 61 -154t149 -63q87 0 149 62q61 63 61 155l74 2q0 -129 -81 -213t-202 -84z" />
    <glyph glyph-name="Gdotaccent" unicode="&#x120;" 
d="M1008 1159v-244q0 -57 -45 -57q-39 0 -39 53q0 86 -88 156q-115 90 -267 90q-209 0 -321 -190q-92 -156 -92 -365t133 -379t317 -170q154 0 267 117t145 279h-301q-53 -1 -53 41t55 42l321 -2q41 0 54 -24q6 -16 6 -56t-47 -159q-131 -328 -445 -328q-226 -1 -378 187
t-152 432t115 438q139 225 378 225q207 0 353 -145v71q6 45 41 46q43 0 43 -58zM621 1286q-80 0 -77 85q4 85 80 83q38 -2 60 -28t23 -59q0 -33 -27 -57t-59 -24z" />
    <glyph glyph-name="gdotaccent" unicode="&#x121;" 
d="M975 -6q0 88 -154 143q-250 88 -465 2q-150 -57 -150 -158t150 -159q115 -43 237 -43t238 47q144 57 144 168zM797 636q1 79 -63 141q-64 63 -143 63t-143 -62t-65 -143q0 -82 61 -143q66 -60 147 -60t143 62t63 142zM1073 -29q0 -141 -178 -221q-139 -63 -304 -63
t-306 63q-180 82 -181 223q0 111 146 201l293 178q-104 18 -174 100t-70 192t85 193q84 83 198 83t180 -56q16 12 119 74q29 16 51 -16t-8 -52q-29 -20 -101 -61q57 -69 57 -181t-85 -198q-29 -29 -277 -172q61 4 74 4q156 0 303 -65q178 -85 178 -226zM512 1182q0 38 24 62
t60 24t58 -26q24 -26 24 -59q0 -32 -26 -57t-58 -24q-82 0 -82 80z" />
    <glyph glyph-name="uni0122" unicode="&#x122;" 
d="M451 -150q0 92 94 93q61 0 96 -47q29 -46 29 -105t-60 -135q-57 -78 -116 -98l-15 28q127 92 127 172q0 23 -20 23l-41 -8q-94 0 -94 77zM1008 1159v-244q0 -57 -45 -57q-39 0 -39 53q0 86 -88 156q-115 90 -267 90q-209 0 -321 -190q-92 -156 -92 -365t133 -379
t317 -170q154 0 267 117t145 279h-301q-53 -1 -53 41t55 42l321 -2q41 0 54 -24q6 -16 6 -56t-47 -159q-131 -328 -445 -328q-226 -1 -378 187t-152 432t115 438q139 225 378 225q207 0 353 -145v71q6 45 41 46q43 0 43 -58z" />
    <glyph glyph-name="uni0123" unicode="&#x123;" 
d="M975 -6q0 88 -154 143q-250 88 -465 2q-150 -57 -150 -158t150 -159q115 -43 237 -43t238 47q144 57 144 168zM797 636q1 79 -63 141q-64 63 -143 63t-143 -62t-65 -143q0 -82 61 -143q66 -60 147 -60t143 62t63 142zM1073 -29q0 -141 -178 -221q-139 -63 -304 -63
t-306 63q-180 82 -181 223q0 111 146 201l293 178q-104 18 -174 100t-70 192t85 193q84 83 198 83t180 -56q16 12 119 74q29 16 51 -16t-8 -52q-29 -20 -101 -61q57 -69 57 -181t-85 -198q-29 -29 -277 -172q61 4 74 4q156 0 303 -65q178 -85 178 -226zM698 1124
q0 -92 -94 -92q-59 0 -92 44t-33 108t58 135q57 76 118 98l15 -28q-127 -92 -127 -172q0 -23 20 -23l41 8q94 0 94 -78z" />
    <glyph glyph-name="Hcircumflex" unicode="&#x124;" 
d="M965 1184v-1147q0 -43 -45 -43t-46 43v545h-573l-2 -545q0 -43 -43 -43t-43 43v1147q0 43 45 45q20 2 32 -10t11 -35v-512h573v512q0 45 46 45t45 -45zM830 1325q-20 0 -128 90l-122 105l-213 -179q-6 -6 -31 -16q-16 0 -31 15q-14 14 -14 32t31 43l258 213
q125 -92 292 -237l5 -21q1 -16 -13 -30t-34 -15z" />
    <glyph glyph-name="hcircumflex" unicode="&#x125;" 
d="M1042 637v-600q0 -45 -43 -41t-43 41l-4 596q-4 225 -297 225q-59 0 -145 -80q-29 -29 -115 -129v-612q0 -43 -41 -43t-41 43l-4 1237q0 41 42 41t42 -41v-500q143 166 322 166q143 0 235 -83t92 -220zM677 1325q-20 0 -128 90l-123 105l-213 -179q-6 -6 -31 -16
q-16 0 -31 15q-35 35 15 75l258 213q125 -92 293 -237l6 -21q0 -16 -13 -30t-33 -15z" />
    <glyph glyph-name="Hbar" unicode="&#x126;" 
d="M295 911v-239h573l2 239h-575zM1051 948q0 -37 -52 -37h-38v-874q1 -43 -45 -43t-46 43v545h-573v-545q0 -43 -44 -43t-44 43v874h-27q-55 0 -55 37q0 45 51 45h29v191q0 43 45 45q20 2 32 -10t11 -35v-191h573v191q0 45 45 45t45 -45v-191h35q58 0 58 -45z" />
    <glyph glyph-name="hbar" unicode="&#x127;" 
d="M1057 637v-600q0 -45 -43 -41t-43 41l-2 596q0 225 -299 225q-59 0 -146 -80q-29 -29 -114 -129v-612q0 -43 -41 -43t-41 43l-2 987h-152q-53 0 -53 45t51 45h154v160q0 41 42 41t42 -41v-160h307q55 0 55 -45t-51 -45h-311v-250q143 166 321 166q143 0 235 -83t91 -220z
" />
    <glyph glyph-name="Itilde" unicode="&#x128;" 
d="M862 1526q43 0 43 -45q-1 -45 -65 -124t-140 -87q-61 -6 -127 104t-108 109q-6 0 -27 -4q-40 -14 -74 -88t-49 -74q-43 0 -43 43t65 118t133 82t130 -102t107 -108q60 0 104 100q33 76 51 76zM913 90q58 0 58 -45t-58 -45h-651q-55 0 -55 49q0 41 55 41h285v1028l-285 -2
q-55 0 -55 49q0 41 55 41h653q55 0 56 -41q0 -47 -58 -47h-276v-1028h276z" />
    <glyph glyph-name="itilde" unicode="&#x129;" 
d="M829 1213q1 -45 -63 -122t-141 -87q-61 -8 -127 100q-63 111 -109 110q-6 0 -27 -4q-38 -14 -72 -88t-50 -73q-43 0 -43 43t59 114q68 76 145 86q61 6 123 -102q61 -109 107 -109q60 0 104 101q33 76 51 75q43 1 43 -44zM1014 47q0 -45 -58 -45h-735q-57 0 -57 49
q0 35 57 35h326v721h-262q-57 0 -58 47q0 45 58 45h346v-813h327q56 0 56 -39z" />
    <glyph glyph-name="Imacron" unicode="&#x12a;" 
d="M913 90q58 0 58 -45t-58 -45h-651q-55 0 -55 49q0 41 55 41h285v1028l-285 -2q-55 0 -55 49q0 41 55 41h653q55 0 56 -41q0 -47 -58 -47h-276v-1028h276zM852 1450q57 0 57 -46t-61 -46h-524q-59 0 -60 47q0 45 58 45h530z" />
    <glyph glyph-name="imacron" unicode="&#x12b;" 
d="M1014 47q0 -45 -58 -45h-735q-57 0 -57 49q0 35 57 35h326v721h-262q-57 0 -58 47q0 45 58 45h346v-813h327q56 0 56 -39zM813 1196q55 0 55 -43t-51 -43l-547 -2q-53 0 -53 44t51 44h545z" />
    <glyph glyph-name="Ibreve" unicode="&#x12c;" 
d="M913 90q58 0 58 -45t-58 -45h-651q-55 0 -55 49q0 41 55 41h285v1028l-285 -2q-55 0 -55 49q0 41 55 41h653q55 0 56 -41q0 -47 -58 -47h-276v-1028h276zM577 1290q-121 0 -204 84q-82 84 -82 211h78q0 -92 61 -154q60 -63 148 -63t149 62t61 155l72 2q0 -129 -81 -213
t-202 -84z" />
    <glyph glyph-name="ibreve" unicode="&#x12d;" 
d="M1014 47q0 -45 -58 -45h-735q-57 0 -57 49q0 35 57 35h326v721h-262q-57 0 -58 47q0 45 58 45h346v-813h327q56 0 56 -39zM575 1065q-121 0 -204 84q-82 84 -82 211h78q0 -92 61 -154q60 -62 148 -63q88 1 149 63t61 154l72 2q0 -129 -81 -213t-202 -84z" />
    <glyph glyph-name="Iogonek" unicode="&#x12e;" 
d="M913 90q58 0 58 -45t-58 -45h-139q-57 0 -97 -53t-40 -118t38 -109t97 -44t98 50q41 47 50 47q45 0 45 -51t-68 -95q-63 -45 -143 -45t-142 67q-61 67 -61 170t70 181h-359q-55 0 -55 49q0 41 55 41h285v1028l-285 -2q-55 0 -55 49q0 41 55 41h653q55 0 56 -41
q0 -47 -58 -47h-276v-1028h276z" />
    <glyph glyph-name="iogonek" unicode="&#x12f;" 
d="M1014 47q0 -45 -58 -45h-139q-57 0 -97 -53t-40 -119t38 -110t96 -44t99 48t50 49q45 0 45 -51t-68 -95q-63 -45 -143 -45t-142 67q-61 67 -61 169t72 184h-445q-57 0 -57 49q0 35 57 35h326v721h-262q-57 0 -58 47q0 45 58 45h346v-813h327q56 0 56 -39zM498 1182
q0 38 24 62t59 24t59 -26t24 -59q0 -32 -26 -57t-58 -24q-82 0 -82 80z" />
    <glyph glyph-name="Idotaccent" unicode="&#x130;" 
d="M913 90q58 0 58 -45t-58 -45h-651q-55 0 -55 49q0 41 55 41h285v1028l-285 -2q-55 0 -55 49q0 41 55 41h653q55 0 56 -41q0 -47 -58 -47h-276v-1028h276zM598 1286q-82 0 -78 85t81 83q39 -2 61 -28t22 -59t-27 -57t-59 -24z" />
    <glyph glyph-name="dotlessi" unicode="&#x131;" 
d="M1014 47q0 -45 -58 -45h-735q-57 0 -57 49q0 35 57 35h326v721h-262q-57 0 -58 47q0 45 58 45h346v-813h327q56 0 56 -39z" />
    <glyph glyph-name="IJ" unicode="&#x132;" 
d="M479 90q58 0 58 -45t-58 -45h-344q-55 0 -55 49q0 41 55 41h131v1028l-131 -2q-55 0 -55 49q0 41 55 41h346q55 0 56 -41q0 -47 -58 -47h-123v-1028h123zM1098 1163v-811q0 -172 -80 -284t-214 -102q-134 9 -202 81t-67 246q0 29 10 94l14 90q2 55 46 55t44 -51
q0 -12 -12 -72t-12 -94q0 -143 43 -198t143 -61q101 -6 153 80q52 87 52 216v766l-191 2q-55 0 -55 43t53 43h215q60 0 60 -43z" />
    <glyph glyph-name="ij" unicode="&#x133;" 
d="M844 47q0 -45 -58 -45h-612q-57 0 -57 49q0 35 57 35h264v721h-200q-57 0 -58 47q0 45 58 45h284v-813h266q56 0 56 -39zM1034 899v-958q0 -150 -93 -243t-243 -93h-65q-59 0 -60 45q0 47 58 45l65 -4q104 -5 176 67t72 181v868l-190 2q-57 0 -58 47q0 43 60 43h278z
M476 1268q34 0 56 -26t23 -59q0 -32 -26 -57t-58 -24q-86 0 -82 80q0 38 26 62q27 24 61 24zM982 1268q34 0 56 -26t23 -59q0 -32 -26 -57t-58 -24q-88 0 -82 80q0 38 26 62q27 24 61 24z" />
    <glyph glyph-name="Jcircumflex" unicode="&#x134;" 
d="M977 352h2q0 -162 -119 -274q-116 -113 -286 -113t-283 72q-133 84 -133 256q0 29 10 94l14 90q2 55 47 55t45 -51q0 -16 -13 -74t-13 -92q0 -260 342 -260q123 0 215 88t92 209v766l-344 2q-57 0 -57 43t53 43h369q59 0 59 -43v-811zM974 1325q-20 0 -128 90l-123 105
l-213 -179q-6 -6 -31 -16q-16 0 -32 15q-15 14 -15 32t31 43l258 213q125 -92 293 -237l6 -21q0 -16 -13 -30t-33 -15z" />
    <glyph glyph-name="jcircumflex" unicode="&#x135;" 
d="M715 -61v868l-191 2q-57 0 -57 45t59 45h279v-958q0 -150 -93 -243t-243 -93h-270q-59 0 -60 45q0 45 58 45l270 -4q106 1 177 71t71 177zM1038 1108q0 -43 -45 -43q-20 0 -252 195l-219 -179q-6 -8 -35 -16q-8 0 -30 12q-15 21 -15 35t29 37l270 215q117 -86 295 -238
q0 -4 2 -8v-10z" />
    <glyph glyph-name="uni0136" unicode="&#x136;" 
d="M618 -209q0 -59 -59 -136t-117 -97l-14 28q127 92 127 172q0 23 -20 23l-41 -8q-94 0 -95 77q0 92 95 93q61 0 96 -47q28 -46 28 -105zM991 0h-162q-98 281 -151 379q-115 201 -293 264l-172 -158v-448q0 -43 -43 -43t-43 43v1147q0 43 43 43t43 -43v-584l580 543l63 65
q29 23 88 23t60 -41q0 -49 -91 -49l-458 -432q174 -76 278 -260q41 -66 154 -359l84 4q57 0 80 -47q-4 -47 -60 -47z" />
    <glyph glyph-name="uni0137" unicode="&#x137;" 
d="M408 -150q0 92 94 93q61 0 96 -47q29 -46 29 -105q1 -59 -59 -136t-117 -97l-15 28q127 92 127 172q0 23 -20 23l-41 -8q-94 0 -94 77zM981 44q0 -38 -43 -44q-4 -2 -62 -2t-139 92l-358 389l-103 -84l5 -358q0 -43 -42 -43t-42 43v1235q0 43 40 43t39 -41v-766l361 313
q4 3 18 23t22 27q7 7 23 25t48 17l57 -2q57 -2 57 -41t-33 -47q-8 -2 -61 -2l-330 -291l416 -440h76q51 -8 51 -46z" />
    <glyph glyph-name="kgreenlandic" unicode="&#x138;" 
d="M981 44q0 -38 -43 -44q-4 -2 -62 -2t-139 92l-358 389l-103 -84l5 -358q0 -43 -42 -43t-42 43v835q0 43 40 43t39 -41v-366l361 313q4 3 18 23t22 27q7 7 23 25t48 17l57 -2q57 -2 57 -41t-33 -47q-8 -2 -61 -2l-330 -291l416 -440h76q51 -8 51 -46z" />
    <glyph glyph-name="Lacute" unicode="&#x139;" 
d="M987 47q0 -47 -35 -47h-694q-59 0 -59 47v1137q0 47 45 44t45 -44v-1092h661q12 0 25 -15q12 -16 12 -30zM635 1524h-2q0 -8 -4 -17l-158 -133q-139 -117 -151 -117q-12 1 -28 19t-18 35q0 14 151 140t163 126q12 -1 30 -19t17 -34z" />
    <glyph glyph-name="lacute" unicode="&#x13a;" 
d="M1014 45q0 -45 -58 -45h-735q-57 0 -57 49q0 35 57 35h326v1120h-260q-57 0 -58 47q0 45 58 45h346v-1212h325q56 0 56 -39zM846 1669q12 -1 28 -19t17 -29q0 -11 -6 -22l-158 -133q-137 -116 -150 -116t-29 18q-15 18 -16 35q0 14 151 140t163 126z" />
    <glyph glyph-name="uni013B" unicode="&#x13b;" 
d="M416 -150q0 92 94 93q61 0 96 -47q29 -46 29 -105q1 -59 -59 -136t-117 -97l-15 28q127 92 127 172q0 23 -20 23l-41 -8q-94 0 -94 77zM987 47q0 -47 -35 -47h-694q-59 0 -59 47v1137q0 47 45 44t45 -44v-1092h661q12 0 25 -15q12 -16 12 -30z" />
    <glyph glyph-name="uni013C" unicode="&#x13c;" 
d="M428 -150q0 92 94 93q61 0 96 -47q29 -46 29 -105t-59 -136t-117 -97l-14 28q127 92 127 172q0 23 -21 23l-41 -8q-94 0 -94 77zM1014 45q0 -45 -58 -45h-735q-57 0 -57 49q0 35 57 35h326v1120h-260q-57 0 -58 47q0 45 58 45h346v-1212h325q56 0 56 -39z" />
    <glyph glyph-name="Lcaron" unicode="&#x13d;" 
d="M987 47q0 -47 -35 -47h-694q-59 0 -59 47v1137q0 47 45 44t45 -44v-1092h661q12 0 25 -15q12 -16 12 -30zM635 1130q0 127 127 127q82 0 125 -63t43 -145q0 -83 -77 -183t-163 -129l-18 43q176 115 176 226q0 31 -29 30l-53 -10q-55 0 -93 28t-38 76z" />
    <glyph glyph-name="lcaron" unicode="&#x13e;" 
d="M989 45q0 -45 -57 -45h-735q-57 0 -58 49q0 35 58 35h325v1120h-260q-57 0 -57 46t57 46h346v-1212h326q55 0 55 -39zM745 1130q0 127 127 127q80 0 123 -62t43 -145q0 -84 -77 -184t-162 -129l-17 43q174 113 174 226q0 31 -28 30l-54 -10q-129 0 -129 104z" />
    <glyph glyph-name="Ldot" unicode="&#x13f;" 
d="M899 47q0 -47 -35 -47h-694q-59 0 -59 47v1137q0 47 47 43q43 0 43 -43v-1092h661q12 0 25 -15q12 -16 12 -30zM958 868q47 0 79 -34t32 -79q0 -46 -34 -80t-74 -34h-27q-47 0 -76 33t-29 78q0 117 101 116h28z" />
    <glyph glyph-name="ldot" unicode="&#x140;" 
d="M913 45q0 -45 -57 -45h-735q-57 0 -58 49q0 35 58 35h325v1120h-260q-57 0 -57 46t57 46h346v-1212h326q55 0 55 -39zM1006 858q48 0 78 -34t30 -80t-33 -80t-75 -33h-27q-47 0 -75 31t-27 79q0 117 100 117h29z" />
    <glyph glyph-name="Lslash" unicode="&#x141;" 
d="M1108 45q0 -45 -27 -45h-696q-55 0 -55 47v500l-88 -51q-16 -8 -31 -7q-45 8 -37 54q2 20 23 30l133 78v535q0 41 45 41t45 -43v-482l297 172q16 10 31 7q45 -8 36 -54q-4 -23 -22 -30l-342 -199v-508h661q27 0 27 -45z" />
    <glyph glyph-name="lslash" unicode="&#x142;" 
d="M1014 45q0 -45 -58 -45h-735q-57 0 -57 49q0 35 57 35h326v614l-94 -53q-14 -10 -31 -6q-47 6 -37 53q2 20 23 31l139 80v401h-260q-57 0 -58 47q0 45 58 45h346v-444l92 53q16 8 31 6q45 -8 37 -53q-2 -20 -23 -31l-137 -79v-664h325q56 0 56 -39z" />
    <glyph glyph-name="Nacute" unicode="&#x143;" 
d="M1008 1184v-1147q0 -31 -46 -32t-67 32l-639 1046v-1046q0 -43 -43 -43t-43 43v1147q0 49 53 49q43 0 58 -27l637 -1036v1014q0 43 45 43t45 -43zM813 1528q0 -12 -6 -21l-158 -133q-137 -117 -150 -117q-13 1 -29 19t-15 34t151 141q150 126 162 126t29 -18
q16 -19 16 -31z" />
    <glyph glyph-name="nacute" unicode="&#x144;" 
d="M946 1341q0 -18 -16 -34l-281 -234q-16 -10 -28 -10q-47 0 -48 45q0 18 19 35l280 233q14 10 29 10q45 0 45 -45zM967 633v-596q0 -43 -44 -43t-44 43v584q0 100 -73 158q-73 59 -176 59t-186 -64q-27 -20 -143 -143v-594q0 -43 -43 -43t-43 43l-4 837q0 41 43 41
q51 0 51 -84q0 -11 -2 -39t-2 -30q88 88 162 125t173 37q100 0 166 -36t116 -115t49 -140z" />
    <glyph glyph-name="uni0145" unicode="&#x145;" 
d="M1008 1184v-1147q0 -31 -46 -32t-67 32l-639 1046v-1046q0 -43 -43 -43t-43 43v1147q0 49 53 49q43 0 58 -27l637 -1036v1014q0 43 45 43t45 -43zM662 -209q0 -59 -60 -135q-57 -78 -117 -98l-14 28q127 92 127 172q0 23 -20 23l-41 -8q-94 0 -95 77q0 92 95 93
q61 0 96 -47q29 -46 29 -105z" />
    <glyph glyph-name="uni0146" unicode="&#x146;" 
d="M709 -209q1 -59 -59 -136t-118 -97l-14 28q127 92 127 172q0 23 -20 23l-41 -8q-94 0 -95 77q0 92 95 93q61 0 96 -47q29 -46 29 -105zM967 633v-596q0 -43 -44 -43t-44 43v584q0 100 -73 158q-73 59 -176 59t-186 -64q-27 -20 -143 -143v-594q0 -43 -43 -43t-43 43
l-4 837q0 41 43 41q51 0 51 -84q0 -11 -2 -39t-2 -30q88 88 162 125t173 37q100 0 166 -36t116 -115t49 -140z" />
    <glyph glyph-name="Ncaron" unicode="&#x147;" 
d="M1008 1184v-1147q0 -31 -46 -32t-67 32l-639 1046v-1046q0 -43 -43 -43t-43 43v1147q0 49 53 49q43 0 58 -27l637 -1036v1014q0 43 45 43t45 -43zM344 1606q20 0 129 -86l123 -105l123 98q113 92 129 93q43 0 43 -45q-4 -23 -27 -41l-268 -211q-135 98 -289 229l-6 23
q0 45 43 45z" />
    <glyph glyph-name="ncaron" unicode="&#x148;" 
d="M967 633v-596q0 -43 -44 -43t-44 43v584q0 100 -73 158q-73 59 -176 59t-186 -64q-27 -20 -143 -143v-594q0 -43 -43 -43t-43 43l-4 837q0 41 43 41q51 0 51 -84q0 -11 -2 -39t-2 -30q88 88 162 125t173 37q100 0 166 -36t116 -115t49 -140zM858 1296q0 -20 -27 -41
l-268 -217q-107 82 -199 154t-100 100q0 45 47 45q37 0 250 -194q20 20 128 106t124 90q45 0 45 -43z" />
    <glyph glyph-name="napostrophe" unicode="&#x149;" 
d="M1055 633v-590q0 -49 -39 -49t-39 49v578q0 94 -52 151t-128 57t-138 -61q-25 -23 -106 -137l2 -588q0 -49 -38 -49t-38 49v827q0 45 35 45q29 0 39 -53q2 -10 2 -90q63 82 113 113q57 39 132 39t125 -35t90 -114t40 -142zM123 1130q0 127 127 127q82 0 124 -62t42 -145
q0 -84 -77 -184t-163 -129l-16 43q174 113 174 226q0 31 -29 30l-53 -10q-129 0 -129 104z" />
    <glyph glyph-name="Eng" unicode="&#x14a;" 
d="M1008 1184v-1243q0 -150 -94 -243t-242 -93h-66q-59 0 -59 46t57 44l66 -4q104 -5 176 67t72 181q-14 68 -23 98l-639 1046v-1046q0 -43 -43 -43t-43 43v1147q0 49 53 49q43 0 58 -27l637 -1036v1014q0 43 45 43t45 -43z" />
    <glyph glyph-name="eng" unicode="&#x14b;" 
d="M631 -395h-66q-59 0 -59 46t57 44l66 -4q104 -5 176 67t72 181v682q0 100 -74 158q-74 59 -176 59t-185 -64q-27 -20 -143 -143v-594q0 -43 -43 -43t-43 43l-2 837q0 41 44 41t46 -61v-92q88 88 162 125t173 37t175 -41q55 -31 105 -110t49 -140l2 -692q1 -150 -93 -243
t-243 -93z" />
    <glyph glyph-name="Omacron" unicode="&#x14c;" 
d="M592 1151q-194 0 -316 -184q-109 -164 -104 -367q0 -240 126 -394t304 -155q178 0 291 172t114 379t-102 365q-119 184 -313 184zM1094 596q0 -242 -127 -424q-143 -205 -377 -205t-377 209q-127 186 -127 428t125 422q145 207 377 207t375 -209q131 -186 131 -428z
M868 1450q58 0 58 -46t-62 -46h-524q-59 0 -59 46t57 46h530z" />
    <glyph glyph-name="omacron" unicode="&#x14d;" 
d="M592 51q168 -1 282 113t115 275q0 161 -119 278q-120 117 -280 117t-279 -117t-119 -278t116 -275t284 -113zM1073 443q0 -202 -138 -340t-340 -138t-347 141q-144 140 -144 340t144 338t342 138q197 0 340 -138t143 -341zM877 1196q55 0 55 -43t-51 -43l-547 -2
q-53 0 -53 44t51 44h545z" />
    <glyph glyph-name="Obreve" unicode="&#x14e;" 
d="M592 1151q-194 0 -316 -184q-109 -164 -104 -367q0 -240 126 -394t304 -155q178 0 291 172t114 379t-102 365q-119 184 -313 184zM1094 596q0 -242 -127 -424q-143 -205 -377 -205t-377 209q-127 186 -127 428t125 422q145 207 377 207t375 -209q131 -186 131 -428z
M620 1290q-118 0 -202 84q-82 84 -82 211h78q0 -94 60 -155q60 -62 148 -62t150 62t62 155l71 2q0 -131 -83 -214q-84 -83 -202 -83z" />
    <glyph glyph-name="obreve" unicode="&#x14f;" 
d="M592 51q168 -1 282 113t115 275q0 161 -119 278q-120 117 -280 117t-279 -117t-119 -278t116 -275t284 -113zM1073 443q0 -202 -138 -340t-340 -138t-347 141q-144 140 -144 340t144 338t342 138q197 0 340 -138t143 -341zM606 1065q-121 0 -205 84q-82 84 -82 211h78
q-1 -92 61 -154t149 -63q87 0 149 62q61 63 61 155l72 2q0 -129 -81 -213t-202 -84z" />
    <glyph glyph-name="Ohungarumlaut" unicode="&#x150;" 
d="M592 1151q-194 0 -316 -184q-109 -164 -104 -367q0 -240 126 -394t304 -155q178 0 291 172t114 379t-102 365q-119 184 -313 184zM1094 596q0 -242 -127 -424q-143 -205 -377 -205t-377 209q-127 186 -127 428t125 422q145 207 377 207t375 -209q131 -186 131 -428z
M704 1577q12 -1 30 -21t18 -34t-151 -140t-166 -125t-29 17t-15 35q0 18 150 143q151 125 163 125zM995 1577q14 -1 33 -21t19 -33t-7 -20q-307 -246 -309 -246q-15 1 -29 17t-14 34t151 143q151 126 156 126z" />
    <glyph glyph-name="ohungarumlaut" unicode="&#x151;" 
d="M592 51q168 -1 282 113t115 275q0 161 -119 278q-120 117 -280 117t-279 -117t-119 -278t116 -275t284 -113zM1073 443q0 -202 -138 -340t-340 -138t-347 141q-144 140 -144 340t144 338t342 138q197 0 340 -138t143 -341zM748 1341q0 -18 -17 -34l-280 -234
q-14 -10 -29 -10q-45 0 -45 45q0 18 16 35l281 233q16 10 28 10q46 0 46 -45zM1040 1341q0 -18 -16 -34l-281 -234q-14 -10 -28 -10q-45 0 -45 45q0 18 16 35l281 233q16 10 28 10q45 0 45 -45z" />
    <glyph glyph-name="OE" unicode="&#x152;" 
d="M549 1120q-213 0 -330 -157q-106 -139 -106 -363q1 -224 119 -366q118 -143 339 -144h70l2 1028q-25 0 -47 2h-47zM1151 45q0 -45 -25 -45h-559q-254 0 -397 170t-143 430q0 178 51 300t179 214t292 92h577q25 0 25 -44t-25 -44h-401v-446h260q29 0 23 -45q0 -45 -25 -45
h-258v-492h401q25 0 25 -45z" />
    <glyph glyph-name="oe" unicode="&#x153;" 
d="M551 453q0 141 -43 245q-57 144 -177 144t-186 -146q-49 -116 -49 -252t49 -247q63 -141 185 -141t178 149q43 107 43 248zM866 842q-174 0 -225 -328h434q-51 328 -209 328zM1169 139q-1 -49 -119 -111t-173 -63q-109 0 -187 72t-94 184q-20 -111 -103 -185t-192 -75
q-135 0 -221 184q-70 147 -70 303t70 302q88 178 221 178q104 0 185 -70t106 -176q26 110 108 176t193 66q147 0 217 -185q49 -129 55 -311h-528q1 -120 67 -246t175 -127q57 0 147 66q90 65 101 65t27 -15q15 -16 15 -32z" />
    <glyph glyph-name="Racute" unicode="&#x154;" 
d="M1083 47q0 -51 -94 -51q-4 0 -78 6q-117 209 -188 303q-117 158 -266 232h-160q-43 0 -41 45t41 45h123q129 -1 255 67t126 180q1 112 -95 178t-206 66h-320v-1081q0 -43 -43 -43t-43 43v1126q0 43 58 43h354q141 0 258 -92q123 -102 123 -240q0 -211 -297 -311
q109 -76 209 -217q47 -68 159 -260q14 0 25 2h23q77 0 77 -41zM711 1577q13 -1 29 -19t16 -30t-6 -21l-158 -133q-136 -117 -150 -117q-14 1 -29 19t-16 35q0 14 151 140t163 126z" />
    <glyph glyph-name="racute" unicode="&#x155;" 
d="M883 1341q0 -18 -19 -34l-280 -234q-14 -10 -29 -10q-45 0 -45 45q0 18 16 35l281 233q16 10 29 10q47 0 47 -45zM729 915q55 0 133 -43t78 -89t-43 -46q-2 0 -18 4q-90 88 -146 88q-80 0 -219 -102q-41 -29 -192 -166v-524q0 -43 -41 -43t-41 43l-2 837q0 41 42 41
t42 -41l2 -196q127 111 186 153q125 84 219 84z" />
    <glyph glyph-name="uni0156" unicode="&#x156;" 
d="M385 -150q0 92 94 93q61 0 96 -47q29 -46 29 -105t-58 -136t-118 -97l-14 28q127 92 127 172q0 23 -21 23l-41 -8q-94 0 -94 77zM1083 47q0 -51 -94 -51q-4 0 -78 6q-117 209 -188 303q-117 158 -266 232h-160q-43 0 -41 45t41 45h123q129 -1 255 67t126 180
q1 112 -95 178t-206 66h-320v-1081q0 -43 -43 -43t-43 43v1126q0 43 58 43h354q141 0 258 -92q123 -102 123 -240q0 -211 -297 -311q109 -76 209 -217q47 -68 159 -260q14 0 25 2h23q77 0 77 -41z" />
    <glyph glyph-name="uni0157" unicode="&#x157;" 
d="M236 -150q0 92 94 93q61 0 96 -47q29 -46 29 -105q1 -59 -59 -136t-117 -97l-15 28q127 92 127 172q0 23 -20 23l-41 -8q-94 0 -94 77zM768 915q55 0 133 -43t78 -89t-43 -46q-2 0 -18 4q-90 88 -146 88q-80 0 -219 -102q-41 -29 -193 -166v-524q0 -43 -41 -43t-40 43
l-3 837q0 41 42 41t42 -41l2 -196q127 111 187 153q125 84 219 84z" />
    <glyph glyph-name="Rcaron" unicode="&#x158;" 
d="M1083 47q0 -51 -94 -51q-4 0 -78 6q-117 209 -188 303q-117 158 -266 232h-160q-43 0 -41 45t41 45h123q129 -1 255 67t126 180q1 112 -95 178t-206 66h-320v-1081q0 -43 -43 -43t-43 43v1126q0 43 58 43h354q141 0 258 -92q123 -102 123 -240q0 -211 -297 -311
q109 -76 209 -217q47 -68 159 -260q14 0 25 2h23q77 0 77 -41zM287 1606q20 0 129 -86l123 -105l123 98q113 92 129 93q43 0 43 -45q-4 -23 -27 -41l-268 -211q-135 98 -289 229l-6 23q0 45 43 45z" />
    <glyph glyph-name="rcaron" unicode="&#x159;" 
d="M729 915q55 0 133 -43t78 -89t-43 -46q-2 0 -18 4q-90 88 -146 88q-80 0 -219 -102q-41 -29 -192 -166v-524q0 -43 -41 -43t-41 43l-2 837q0 41 42 41t42 -41l2 -196q127 111 186 153q125 84 219 84zM850 1296q0 -20 -27 -41l-268 -217q-107 82 -197 154t-100 100
q0 45 47 45q37 0 250 -194q20 20 128 106t124 90q43 0 43 -43z" />
    <glyph glyph-name="Sacute" unicode="&#x15a;" 
d="M1020 328q0 -172 -126 -268t-295 -95q-169 0 -305 92t-136 246q0 61 41 62q18 0 24 -15q9 -8 25 -83t84 -132q88 -78 240 -81t258 73q108 76 108 210t-125 195q-59 29 -243 62q-370 66 -367 328q0 152 111 244t259 91q148 0 274 -89t126 -220q0 -59 -39 -59q-25 0 -33 14
l-16 72q-14 69 -93 133t-200 64t-214 -70q-93 -68 -93 -184q0 -47 22 -93q49 -92 191 -129q86 -18 258 -51q148 -39 206 -132t58 -185zM846 1524h-2q0 -8 -4 -17l-158 -133q-137 -117 -150 -117q-14 1 -30 19t-17 35q0 14 151 140t163 126q11 -1 29 -19t18 -34z" />
    <glyph glyph-name="sacute" unicode="&#x15b;" 
d="M946 1341q0 -18 -16 -34l-281 -234q-16 -10 -28 -10q-47 0 -48 45q0 18 19 35l280 233q14 10 29 10q45 0 45 -45zM993 254q0 -147 -135 -223q-108 -63 -264 -63t-270 59q-139 74 -140 213q0 57 43 57q37 0 45 -51l17 -78q31 -53 123 -83t196 -30t187 39q113 51 113 161
t-138 155l-281 53q-170 33 -221 110q-43 63 -43 119q-2 123 123 187q100 53 228 53t239 -55q129 -70 133 -181q0 -61 -45 -61q-25 1 -41 61t-61 92q-73 58 -187 58t-210 -40t-97 -120q-1 -59 65 -100q66 -42 208 -56t182 -24q115 -29 180 -115q51 -65 51 -137z" />
    <glyph glyph-name="Scircumflex" unicode="&#x15c;" 
d="M1020 328q0 -172 -126 -268t-295 -95q-169 0 -305 92t-136 246q0 61 41 62q18 0 24 -15q9 -8 25 -83t84 -132q88 -78 240 -81t258 73q108 76 108 210t-125 195q-59 29 -243 62q-370 66 -367 328q0 152 111 244t259 91q148 0 274 -89t126 -220q0 -59 -39 -59q-25 0 -33 14
l-16 72q-14 69 -93 133t-200 64t-214 -70q-93 -68 -93 -184q0 -47 22 -93q49 -92 191 -129q86 -18 258 -51q148 -39 206 -132t58 -185zM838 1325q-20 0 -127 90l-123 105l-213 -179q-6 -6 -31 -16q-16 0 -32 15q-15 14 -15 32t31 43l258 213q125 -92 293 -237l6 -21
q1 -16 -13 -30t-34 -15z" />
    <glyph glyph-name="scircumflex" unicode="&#x15d;" 
d="M993 254q0 -147 -135 -223q-108 -63 -264 -63t-270 59q-139 74 -140 213q0 57 43 57q37 0 45 -51l17 -78q31 -53 123 -83t196 -30t187 39q113 51 113 161t-138 155l-281 53q-170 33 -221 110q-43 63 -43 119q-2 123 123 187q100 53 228 53t239 -55q129 -70 133 -181
q0 -61 -45 -61q-25 1 -41 61t-61 92q-73 58 -187 58t-210 -40t-97 -120q-1 -59 65 -100q66 -42 208 -56t182 -24q115 -29 180 -115q51 -65 51 -137zM887 1108q0 -43 -45 -43q-20 0 -252 195l-219 -179q-6 -8 -35 -16q-8 0 -31 12q-16 27 -16 29q0 20 28 43l271 215
q117 -86 295 -238q4 -16 4 -18z" />
    <glyph glyph-name="Scedilla" unicode="&#x15e;" 
d="M1020 328q0 -170 -123 -266t-299 -97q6 -2 12 -8q23 -53 6 -131q51 -4 85 -38t34 -85t-44 -82t-96 -31t-115 23t-62 55q0 16 6 25l25 6q10 -1 59 -23t82 -22q32 0 58 16t26 41q-4 53 -117 53l4 158v35l19 8q-158 2 -290 94t-132 244q0 61 41 62q18 0 24 -15q9 -8 25 -83
t84 -132q88 -78 240 -81t258 73q108 76 108 210t-125 195q-59 29 -243 62q-370 66 -367 328q0 152 111 244t259 91q148 0 274 -89t126 -220q0 -59 -39 -59q-25 0 -33 14l-16 72q-14 69 -93 133t-200 64t-214 -70q-93 -68 -93 -184q0 -47 22 -93q49 -92 191 -129
q86 -18 258 -51q148 -39 206 -132t58 -185z" />
    <glyph glyph-name="scedilla" unicode="&#x15f;" 
d="M735 -293h2q0 -55 -44 -86t-96 -31t-115 23t-62 55q0 16 6 25l25 6q10 -1 60 -23t82 -22q31 0 57 16t26 41q-4 53 -117 53l4 158v35q15 10 27 10t22 -10q23 -53 6 -131q49 -4 83 -37t34 -82zM993 254q0 -147 -135 -223q-108 -63 -264 -63t-270 59q-139 74 -140 213
q0 57 43 57q37 0 45 -51l17 -78q31 -53 123 -83t196 -30t187 39q113 51 113 161t-138 155l-281 53q-170 33 -221 110q-43 63 -43 119q-2 123 123 187q100 53 228 53t239 -55q129 -70 133 -181q0 -61 -45 -61q-25 1 -41 61t-61 92q-73 58 -187 58t-210 -40t-97 -120
q-1 -59 65 -100q66 -42 208 -56t182 -24q115 -29 180 -115q51 -65 51 -137z" />
    <glyph glyph-name="Scaron" unicode="&#x160;" 
d="M1020 328q0 -172 -126 -268t-295 -95q-169 0 -305 92t-136 246q0 61 41 62q18 0 24 -15q9 -8 25 -83t84 -132q88 -78 240 -81t258 73q108 76 108 210t-125 195q-59 29 -243 62q-370 66 -367 328q0 152 111 244t259 91q148 0 274 -89t126 -220q0 -59 -39 -59q-25 0 -33 14
l-16 72q-14 69 -93 133t-200 64t-214 -70q-93 -68 -93 -184q0 -47 22 -93q49 -92 191 -129q86 -18 258 -51q148 -39 206 -132t58 -185zM926 1561h-2q0 -23 -25 -41l-268 -211q-135 98 -289 229l-8 23q0 45 43 45q20 0 129 -86l123 -105l123 98q113 92 129 93q45 0 45 -45z
" />
    <glyph glyph-name="scaron" unicode="&#x161;" 
d="M993 254q0 -147 -135 -223q-108 -63 -264 -63t-270 59q-139 74 -140 213q0 57 43 57q37 0 45 -51l17 -78q31 -53 123 -83t196 -30t187 39q113 51 113 161t-138 155l-281 53q-170 33 -221 110q-43 63 -43 119q-2 123 123 187q100 53 228 53t239 -55q129 -70 133 -181
q0 -61 -45 -61q-25 1 -41 61t-61 92q-73 58 -187 58t-210 -40t-97 -120q-1 -59 65 -100q66 -42 208 -56t182 -24q115 -29 180 -115q51 -65 51 -137zM879 1296q0 -20 -27 -41l-268 -217q-106 82 -198 154t-101 100q0 45 47 45q37 0 250 -194q20 20 128 106t124 90
q45 0 45 -43z" />
    <glyph glyph-name="uni0162" unicode="&#x162;" 
d="M735 -293h2q0 -55 -44 -86t-96 -31t-115 23t-62 55q0 16 6 25l25 6q10 -1 60 -23t82 -22q31 0 57 16t26 41q-4 53 -117 53l4 158v35q15 10 27 10t22 -10q23 -53 6 -131q49 -4 83 -37t34 -82zM1073 1118h-438v-1081q0 -43 -45 -43t-45 43v1081h-441q-26 0 -26 44t26 44
h967q23 0 29 -43q0 -45 -27 -45z" />
    <glyph glyph-name="uni0163" unicode="&#x163;" 
d="M735 -293h2q0 -55 -44 -86t-96 -31t-115 23t-62 55q0 16 6 25l25 6q10 -1 60 -23t82 -22q31 0 57 16t26 41q-4 53 -117 53l4 158v35q15 10 27 10t22 -10q23 -53 6 -131q49 -4 83 -37t34 -82zM911 12q0 -37 -32 -45q-8 -2 -64 -2q-139 0 -234 67t-96 197v576h-159
q-59 0 -60 47q0 45 58 45h161l-2 250q-1 14 15 37t28 22q47 0 47 -59v-250h281q57 0 57 -46t-61 -46h-277v-576q0 -174 279 -174q59 0 59 -43z" />
    <glyph glyph-name="Tcaron" unicode="&#x164;" 
d="M1073 1118h-438v-1081q0 -43 -45 -43t-45 43v1081h-441q-26 0 -26 44t26 44h967q23 0 29 -43q0 -45 -27 -45zM365 1606q20 0 129 -86l122 -105l123 98q113 92 129 93q43 0 43 -45q-4 -23 -26 -41l-269 -211q-135 98 -288 229l-6 23q0 45 43 45z" />
    <glyph glyph-name="tcaron" unicode="&#x165;" 
d="M748 12q0 -37 -33 -45q-8 -2 -64 -2q-139 0 -234 67t-95 197v576h-160q-59 0 -60 47q0 45 58 45h162l-3 250q-1 14 15 37t28 22q47 0 48 -59v-250h280q57 0 58 -45q0 -47 -62 -47h-276v-576q0 -174 278 -174q60 0 60 -43zM782 1120q0 123 127 123q82 -1 124 -61t42 -142
t-78 -182t-157 -129l-19 39q170 121 170 227q0 31 -28 31l-54 -10q-53 0 -90 26t-37 78z" />
    <glyph glyph-name="Tbar" unicode="&#x166;" 
d="M1073 1118h-438v-528h223q57 0 57 -45t-61 -45h-219v-463q0 -43 -45 -43t-45 43v463h-215q-59 0 -60 45q0 45 58 45h217v528h-441q-26 0 -26 44t26 44h967q23 0 29 -43q0 -45 -27 -45z" />
    <glyph glyph-name="tbar" unicode="&#x167;" 
d="M911 12q0 -37 -32 -45q-8 -2 -64 -2q-139 0 -234 67t-96 197v269h-159q-59 0 -60 47q0 45 58 45h161v215h-159q-59 0 -60 47q0 45 58 45h161l-2 250q-1 14 15 37t28 22q47 0 47 -59v-250h281q57 0 57 -46t-61 -46h-277v-215h281q57 0 57 -46t-61 -46h-277v-269
q0 -174 279 -174q59 0 59 -43z" />
    <glyph glyph-name="Utilde" unicode="&#x168;" 
d="M862 1526q43 0 43 -45q-1 -45 -65 -124t-140 -87q-61 -6 -127 104t-108 109q-6 0 -27 -4q-40 -14 -74 -88t-49 -74q-43 0 -43 43t65 118t133 82t130 -102t107 -108q60 0 104 100q33 76 51 76zM1008 1184v-789q0 -180 -119 -305t-299 -125t-301 123q-119 125 -119 307v791
q0 41 44 41t44 -43l-2 -789q0 -141 94 -241t236 -100t236 100q95 102 96 241v789q0 43 45 43t45 -43z" />
    <glyph glyph-name="utilde" unicode="&#x169;" 
d="M905 1213q1 -45 -63 -122t-142 -87q-61 -8 -127 102t-108 111q-59 0 -100 -99q-33 -70 -50 -69q-43 0 -43 43q0 44 64 118t133 81t131 -101q61 -109 107 -109q60 0 104 101q33 76 51 75q43 1 43 -44zM963 874v-837q0 -43 -40 -43t-46 51q0 2 2 20t2 58
q-182 -158 -387 -158q-123 0 -201 80t-78 205v624q0 41 43 41t43 -41v-624q0 -86 52 -140t139 -55q211 0 387 195v624q0 41 42 41t42 -41z" />
    <glyph glyph-name="Umacron" unicode="&#x16a;" 
d="M1008 1184v-789q0 -180 -119 -305t-299 -125t-301 123q-119 125 -119 307v791q0 41 44 41t44 -43l-2 -789q0 -141 94 -241t236 -100t236 100q95 102 96 241v789q0 43 45 43t45 -43zM842 1450q57 0 57 -46t-61 -46h-525q-59 0 -59 46t57 46h531z" />
    <glyph glyph-name="umacron" unicode="&#x16b;" 
d="M963 874v-837q0 -43 -40 -43t-46 51q0 2 2 20t2 58q-182 -158 -387 -158q-123 0 -201 80t-78 205v624q0 41 43 41t43 -41v-624q0 -86 52 -140t139 -55q211 0 387 195v624q0 41 42 41t42 -41zM895 1196q55 0 55 -43t-51 -43l-547 -2q-53 0 -53 44t51 44h545z" />
    <glyph glyph-name="Ubreve" unicode="&#x16c;" 
d="M1008 1184v-789q0 -180 -119 -305t-299 -125t-301 123q-119 125 -119 307v791q0 41 44 41t44 -43l-2 -789q0 -141 94 -241t236 -100t236 100q95 102 96 241v789q0 43 45 43t45 -43zM596 1290q-121 0 -205 84q-82 84 -82 211h78q-1 -92 61 -154q62 -63 149 -63t149 62
t61 155l72 2q0 -129 -81 -213t-202 -84z" />
    <glyph glyph-name="ubreve" unicode="&#x16d;" 
d="M963 874v-837q0 -43 -40 -43t-46 51q0 2 2 20t2 58q-182 -158 -387 -158q-123 0 -201 80t-78 205v624q0 41 43 41t43 -41v-624q0 -86 52 -140t139 -55q211 0 387 195v624q0 41 42 41t42 -41zM624 1065q-120 0 -204 84q-82 84 -82 211h78q0 -92 61 -154t149 -63
q88 1 148 63q62 62 62 154l71 2q0 -129 -81 -213q-82 -84 -202 -84z" />
    <glyph glyph-name="Uring" unicode="&#x16e;" 
d="M489 1473q0 -129 119 -123q49 0 84 37t35 84t-39 83t-87 37t-80 -33t-32 -85zM1008 1184v-789q0 -180 -119 -305t-299 -125t-301 123q-119 125 -119 307v791q0 41 44 41t44 -43l-2 -789q0 -141 94 -241t236 -100t236 100q95 102 96 241v789q0 43 45 43t45 -43zM776 1471
q0 -79 -47 -131t-129 -52t-129 52t-47 130t54 130q54 54 126 54t122 -51q50 -52 50 -132z" />
    <glyph glyph-name="uring" unicode="&#x16f;" 
d="M692 1229q0 49 -39 83t-85 34t-78 -34t-31 -85q0 -123 119 -123q53 0 84 38q30 38 30 87zM963 874v-837q0 -43 -40 -43t-46 51q0 2 2 20t2 58q-182 -158 -387 -158q-123 0 -201 80t-78 205v624q0 41 43 41t43 -41v-624q0 -86 52 -140t139 -55q211 0 387 195v624
q0 41 42 41t42 -41zM395 1225q-1 76 55 131t128 55t121 -58t49 -133t-50 -128q-50 -54 -125 -54q-76 0 -127 56t-51 131z" />
    <glyph glyph-name="Uhungarumlaut" unicode="&#x170;" 
d="M1001 1184v-789q-1 -180 -119 -305t-299 -125t-300 124t-119 306v791q0 41 44 41t44 -43l-2 -789q0 -141 94 -241t236 -100t236 100q95 102 95 241v789q0 43 45 43t45 -43zM719 1520q0 -12 -152 -140q-151 -123 -165 -123q-14 1 -28 17t-16 35q0 16 151 142t164 126
q13 1 29 -19t17 -38zM963 1577q15 -1 33 -21t18 -33t-6 -20q-307 -246 -310 -246q-14 -1 -28 17t-15 35q0 16 151 142t157 126z" />
    <glyph glyph-name="uhungarumlaut" unicode="&#x171;" 
d="M920 874v-837q0 -43 -40 -43t-46 51q0 2 2 20t2 58q-182 -158 -387 -158q-123 0 -201 80t-78 205v624q0 41 43 41t43 -41v-624q0 -86 52 -140t139 -55q211 0 387 195v624q0 41 42 41t42 -41zM723 1341q0 -18 -16 -34l-281 -234q-14 -10 -29 -10q-45 0 -45 45q0 18 17 35
l280 233q16 10 29 10q45 0 45 -45zM1016 1341q0 -18 -17 -34l-280 -234q-14 -10 -29 -10q-45 0 -45 45q0 18 17 35l280 233q16 10 29 10q45 0 45 -45z" />
    <glyph glyph-name="Uogonek" unicode="&#x172;" 
d="M1008 1184v-789q0 -242 -224 -383q-16 -4 -96 -35q-31 -16 -51 -59q-21 -42 -21 -98t39 -100t97 -44t100 48q41 48 49 49q45 0 45 -51t-67 -95q-63 -45 -143 -45t-142 67t-62 157t48 159q-176 4 -293 130t-117 300v791q0 41 44 41t44 -43v-789q0 -141 94 -241t234 -100
t236 100q95 102 96 241v789q0 43 45 43t45 -43z" />
    <glyph glyph-name="uogonek" unicode="&#x173;" 
d="M963 874v-837q0 -31 -50 -43q-81 -18 -157 -76t-76 -133q0 -49 30 -86t78 -37t76 51q27 51 49 51q43 0 43 -38q0 -58 -58 -102t-126 -44t-121 60t-53 150q0 91 86 168t193 110q4 12 4 55q-182 -158 -387 -158q-123 0 -201 80t-78 205v624q0 41 43 41t43 -41v-624
q0 -86 52 -140t139 -55q211 0 387 195v624q0 41 42 41t42 -41z" />
    <glyph glyph-name="Wcircumflex" unicode="&#x174;" 
d="M958 -37q-58 0 -67 37l-295 1036l-285 -1036q-8 -37 -67 -37t-64 37l-153 1219q-4 16 34 24q37 0 41 -24l152 -1117l278 979q10 35 68 35t68 -35l274 -979l131 1117q4 25 43 25t35 -25l-133 -1219q-2 -37 -60 -37zM840 1325q-20 0 -127 90l-123 105l-213 -179
q-6 -6 -31 -16q-16 0 -31 15q-14 14 -14 32t31 43l258 213q125 -92 293 -237l4 -21q1 -16 -13 -30t-34 -15z" />
    <glyph glyph-name="wcircumflex" unicode="&#x175;" 
d="M1071 909q0 -21 -97 -463t-97 -444q-5 -31 -51 -32t-54 30l-174 682l-190 -682q-10 -31 -56 -31t-51 33l-192 907q1 21 41 21t47 -25l163 -788l168 604q8 39 68 39t70 -39l155 -604l172 786q2 20 40 20t38 -14zM885 1108q0 -43 -45 -43q-20 0 -252 195l-219 -179
q-14 -10 -35 -16q-10 0 -31 12q-14 21 -14 35t28 37l271 215q117 -86 295 -238v-8q2 -4 2 -10z" />
    <glyph glyph-name="Ycircumflex" unicode="&#x176;" 
d="M1032 1196q0 -12 -181 -308t-208 -339v-512q0 -43 -44 -43t-44 43l2 514q-412 605 -412 625t28 42t44 1l381 -580l358 580q2 8 20 10q18 3 38 -9q18 -12 18 -24zM849 1325q-20 0 -128 90l-123 105l-213 -179q-6 -6 -31 -16q-16 0 -30 15q-33 35 16 75l258 213
q125 -92 293 -237l4 -21q0 -16 -13 -30t-33 -15z" />
    <glyph glyph-name="ycircumflex" unicode="&#x177;" 
d="M1067 907v-2l-567 -1218q-39 -88 -183 -88q-53 0 -53 45q0 25 17 34l34 11q16 -8 57 -8t56 38q49 111 131 281l-448 907q-1 19 39 19t49 -21l405 -807l377 807q8 20 47 20t39 -18zM887 1108q0 -43 -45 -43q-20 0 -252 195l-219 -179q-6 -8 -35 -16q-8 0 -31 12
q-16 27 -16 29q0 20 28 43l271 215q117 -86 295 -238q4 -16 4 -18z" />
    <glyph glyph-name="Ydieresis" unicode="&#x178;" 
d="M1034 1197q0 -11 -182 -310l-209 -336v-514q0 -43 -43 -43t-43 43v514q-414 606 -414 631q-1 14 19 29t36 15t17 -7l381 -580l358 582q2 8 20 9t40 -10q20 -12 20 -23zM469 1458h2q0 -80 -86 -80q-76 0 -76 84t80 84t80 -88zM895 1459q0 -33 -26 -57q-25 -24 -59 -24
t-58 23t-25 59q0 36 26 61q25 25 59 25t58 -28t25 -59z" />
    <glyph glyph-name="Zacute" unicode="&#x179;" 
d="M1036 44q0 -44 -61 -44h-801q-33 0 -33 39t31 84l676 997l-637 -2q-63 0 -64 51q0 49 62 50h719q28 0 28 -38t-28 -83l-672 -1008l717 -2q63 0 63 -44zM784 1524h-2q0 -8 -4 -17l-157 -133q-137 -117 -151 -117q-14 1 -30 19t-16 34t150 141q150 126 163 126q12 0 30 -18
q17 -19 17 -35z" />
    <glyph glyph-name="zacute" unicode="&#x17a;" 
d="M946 1341q0 -18 -16 -34l-281 -234q-16 -10 -28 -10q-47 0 -48 45q0 18 19 35l280 233q14 10 29 10q45 0 45 -45zM1022 44q0 -44 -61 -44h-760q-21 0 -21 30t21 52l620 731h-604q-61 0 -61 46t61 46l715 -2q20 1 20 -27t-18 -51l-623 -735l647 -2q64 0 64 -44z" />
    <glyph glyph-name="Zdotaccent" unicode="&#x17b;" 
d="M1036 44q0 -44 -61 -44h-801q-33 0 -33 39t31 84l676 997l-637 -2q-63 0 -64 51q0 49 62 50h719q28 0 28 -38t-28 -83l-672 -1008l717 -2q63 0 63 -44zM672 1367q0 -33 -27 -57t-59 -24q-82 0 -78 80q0 92 82 86q34 0 58 -26t24 -59z" />
    <glyph glyph-name="zdotaccent" unicode="&#x17c;" 
d="M1022 44q0 -44 -61 -44h-760q-21 0 -21 30t21 52l620 731h-604q-61 0 -61 46t61 46l715 -2q20 1 20 -27t-18 -51l-623 -735l647 -2q64 0 64 -44zM467 1182q-1 38 23 62t60 24t60 -26t23 -59q0 -32 -26 -57t-58 -24q-82 0 -82 80z" />
    <glyph glyph-name="Zcaron" unicode="&#x17d;" 
d="M1036 44q0 -44 -61 -44h-801q-33 0 -33 39t31 84l676 997l-637 -2q-63 0 -64 51q0 49 62 50h719q28 0 28 -38t-28 -83l-672 -1008l717 -2q63 0 63 -44zM862 1561h-2q0 -23 -24 -41l-269 -211q-135 98 -288 229l-9 23q0 45 43 45q23 0 129 -86l123 -105l123 98
q115 92 129 93q45 0 45 -45z" />
    <glyph glyph-name="zcaron" unicode="&#x17e;" 
d="M1022 44q0 -44 -61 -44h-760q-21 0 -21 30t21 52l620 731h-604q-61 0 -61 46t61 46l715 -2q20 1 20 -27t-18 -51l-623 -735l647 -2q64 0 64 -44zM862 1296q0 -20 -26 -41l-269 -217q-106 82 -198 154t-101 100q0 45 47 45q37 0 250 -194q20 20 128 106t124 90
q45 0 45 -43z" />
    <glyph glyph-name="longs" unicode="&#x17f;" 
d="M557 1026v-989q0 -43 -43 -43t-43 43v768h-186q-59 0 -60 49q0 43 58 43h188v129q0 123 100 198t222 72l98 -2q59 -4 59 -43q4 -41 -63 -47l-94 2q-90 0 -163 -48t-73 -132z" />
    <glyph glyph-name="uni0180" unicode="&#x180;" 
d="M1028 443q0 157 -110 274q-106 119 -264 119t-268 -118t-110 -277t109 -273t267 -115q158 0 268 115q108 118 108 275zM231 -6q-43 0 -43 43v987h-71q-55 0 -56 45q0 45 54 45h73v160q0 41 44 41t44 -41v-162h383q55 0 56 -43q0 -45 -53 -45h-383v-305q152 203 380 201
q193 0 325 -138t132 -332t-131 -337q-139 -145 -330 -146q-225 0 -379 203l5 -80q0 -96 -50 -96z" />
    <glyph glyph-name="uni0181" unicode="&#x181;" 
d="M1079 328q0 182 -217 233q-84 20 -356 21q-41 0 -38 43t40 43q221 -2 315 20q186 45 187 215q0 99 -86 157t-191 58h-344v-1028h440q106 0 179 67q71 67 71 171zM838 0h-473q-51 0 -60 45v143l2 930h-43q-86 0 -126 -72t-40 -165l2 -95q-6 -63 -46 -63t-44 59l-2 99
q-4 129 62 221q70 104 194 104h471q137 0 250 -88t113 -221q2 -158 -170 -260q243 -86 241 -307q0 -142 -96 -236t-235 -94z" />
    <glyph glyph-name="uni0182" unicode="&#x182;" 
d="M678 0h-473q-51 0 -60 45v143l2 975q4 43 54 43h774q27 0 27 -44t-27 -44h-746v-1028h441q106 0 188 67t82 171q2 180 -227 233q-88 20 -367 21q-39 0 -39 45q4 41 41 41q158 -2 420 -31q131 -63 184 -121q82 -77 78 -186q0 -142 -104 -236t-248 -94z" />
    <glyph glyph-name="uni0183" unicode="&#x183;" 
d="M591 836q-157 0 -267 -118t-111 -277q0 -159 109 -273q110 -114 268 -115q158 1 266 117t109 273q0 157 -111 274q-106 119 -263 119zM168 -6q-43 0 -43 43v1237q0 41 43 41h803q27 0 27 -44t-27 -44h-758l2 -508q152 203 381 201q193 0 325 -138t132 -332t-131 -337
q-139 -145 -330 -146q-225 0 -379 203l4 -80q0 -96 -49 -96z" />
    <glyph glyph-name="uni0184" unicode="&#x184;" 
d="M678 0h-473q-51 0 -60 45v1118q0 43 48 43q37 0 36 -43v-1073h441q106 0 188 67t82 171q2 180 -227 233q-88 20 -367 21q-39 0 -39 45q4 41 41 41h245q91 0 175 -31q264 -98 262 -307q0 -142 -104 -236t-248 -94z" />
    <glyph glyph-name="uni0185" unicode="&#x185;" 
d="M655 0h-354q-55 0 -55 43v821q0 41 42 41t42 -41v-778h319q80 0 136 46q55 46 57 115q3 133 -166 167q-59 12 -268 12q-41 0 -41 42t41 42h180q98 -2 160 -31q184 -80 182 -227q0 -106 -82 -180q-84 -72 -193 -72z" />
    <glyph glyph-name="uni0186" unicode="&#x186;" 
d="M537 1247q227 1 379 -187t153 -434q0 -246 -115 -433q-137 -227 -379 -228q-207 0 -352 148v-29q0 -43 -1 -58q-2 -32 -44 -32q-41 0 -41 59v244q-1 19 13 37t30 18q43 0 43 -53q2 -86 88 -156q115 -90 264 -90q211 0 322 191q92 158 92 364t-127 373q-139 176 -321 176
q-119 0 -207 -57q-52 -34 -110 -98t-77 -64q-41 0 -41 43q0 23 46 76q70 86 175 138t210 52z" />
    <glyph glyph-name="uni0187" unicode="&#x187;" 
d="M1105 1237h-63q-84 0 -140 -45t-56 -135v-142q0 -20 -12 -37t-31 -18q-39 0 -43 53q-2 86 -96 163t-215 83q-176 10 -267 -184q-74 -166 -66 -383t95 -365q98 -172 272 -172q74 0 152 58q33 23 107 92t94 69q41 0 41 -43q0 -23 -46 -75q-141 -176 -347 -190t-337 184
q-117 176 -132 430t94 454q123 225 340 213q180 -10 311 -147l4 -8q16 111 91 173t187 62h60q59 0 59 -43q2 -39 -45 -49q4 2 -11 2z" />
    <glyph glyph-name="uni0188" unicode="&#x188;" 
d="M1090 1219q59 0 59 -43t-53 -50l-84 2q-178 0 -181 -180l-4 -286q0 -35 -26 -62q-7 -14 -21 -14t-19 1t-13 7t-8 12q-1 6 -2 10t-2 12t-2 11q-1 4 -1 12v11q-6 52 -104 124q-97 72 -229 59t-216 -134q-74 -113 -70 -266t100 -273q97 -120 243 -121q117 0 299 135
q66 47 67 47q43 0 43 -42t-102 -113q-170 -117 -303 -117q-206 0 -332 166q-96 131 -100 317t100 328t281 160q205 18 338 -123l2 139q4 270 245 271h95z" />
    <glyph glyph-name="uni0189" unicode="&#x189;" 
d="M1008 530v162q0 168 -119 303t-283 135h-317v-473h395q55 0 55 -45t-55 -45h-395l-2 -475h159q72 -2 160 -2q160 0 281 139t121 301zM1096 680v-141q0 -209 -147 -374t-351 -165h-336q-31 0 -49 8q-14 27 -14 39v518q-68 0 -72 2q-43 6 -43 43t43 45h72l2 355
q-6 59 0 170q6 39 59 39h336q208 0 354 -164t146 -375z" />
    <glyph glyph-name="uni018A" unicode="&#x18a;" 
d="M1059 530v162q0 180 -72 299q-84 139 -242 139h-317l-2 -1038h160q72 -2 159 -2q154 0 234 132t80 308zM1147 680v-141q0 -221 -100 -371q-111 -168 -310 -168h-336q-31 0 -49 8q-14 27 -14 39l2 873q0 215 -37 215q-88 0 -134 -73t-46 -165l2 -94q-6 -63 -47 -64
q-43 0 -43 60l-2 98q-3 127 71 224t199 98h432q203 0 314 -166q98 -144 98 -373z" />
    <glyph glyph-name="uni018B" unicode="&#x18b;" 
d="M973 0h-473q-141 0 -248 94q-104 94 -105 236q-4 109 78 186q53 57 185 121q123 16 419 31q37 0 41 -41q0 -45 -39 -45q-279 0 -366 -21q-231 -53 -227 -233q0 -102 80 -170t190 -68h440v1028h-745q-27 0 -27 44t27 44h774q51 0 53 -43l2 -975v-143q-8 -45 -59 -45z" />
    <glyph glyph-name="uni018C" unicode="&#x18c;" 
d="M590 846q-160 0 -271 -118t-111 -282t108 -279q108 -114 271 -114t271 115t109 279q0 164 -111 280q-106 119 -266 119zM1059 1274v-1237q0 -43 -49 -43t-49 92q0 14 3 48t3 38q-152 -207 -387 -207q-199 1 -330 145t-130 338t133 339q132 144 331 145q231 4 383 -209
v504h-731q-27 0 -27 44t27 44h776q47 0 47 -41z" />
    <glyph glyph-name="uni018D" unicode="&#x18d;" 
d="M588 49q158 1 268 117t109 278q0 162 -107 275q-104 115 -267 115t-269 -114t-107 -275t107 -279t266 -117zM1055 445q0 -196 -132 -338t-329 -142q-160 0 -242 64q78 -158 231 -296t279 -139q18 0 38 -14t20 -33q0 -45 -58 -45h-530q-57 0 -58 45q0 47 62 47h305
q-211 125 -367 392q-301 515 -7 797q144 139 334 139t322 -140t132 -337z" />
    <glyph glyph-name="uni018E" unicode="&#x18e;" 
d="M999 1174v-1117q0 -43 -51 -43h-743q-27 0 -27 44t27 44h708v447h-397q-23 0 -29 45q0 45 27 45h399v494h-708q-27 0 -27 44t27 44h741q53 0 53 -47z" />
    <glyph glyph-name="uni018F" unicode="&#x18f;" 
d="M223 549q0 -309 119 -422q76 -74 233 -74q193 0 304 160q92 131 106 336h-762zM537 1247q227 1 379 -187t153 -434q0 -246 -115 -433q-137 -227 -379 -228q-276 0 -372 191q-66 131 -66 438q0 45 27 45h825q-6 190 -131 348q-139 170 -317 170q-119 0 -207 -57
q-52 -34 -110 -98t-77 -64q-41 0 -41 43q0 23 46 76q70 86 175 138t210 52z" />
    <glyph glyph-name="uni0190" unicode="&#x190;" 
d="M1053 143q0 -55 -201 -127q-123 -45 -250 -45q-184 -2 -332 107q-143 111 -143 266q0 219 260 320q-209 78 -209 268q0 141 114 225t286 87t313 -81q94 -57 94 -99t-53 -42q-2 0 -14 4q-80 70 -154 100t-192 31q-118 0 -205 -61q-88 -62 -88 -156t81 -162q84 -66 187 -65
q27 0 90 3t63 -46q-2 -39 -67 -39q-154 0 -278 -83t-124 -207t111 -204q113 -78 252 -75q139 4 282 64t128 60q16 0 32 -14t17 -29z" />
    <glyph glyph-name="uni0191" unicode="&#x191;" 
d="M1137 1206q26 0 26 -44t-26 -44h-666v-446h399q23 0 29 -45q0 -45 -29 -45h-399l2 -641q0 -150 -92 -243t-242 -93h-65q-59 0 -60 45q0 45 58 45h67q106 1 176 69t70 175v1224q0 43 55 43h697z" />
    <glyph glyph-name="florin" unicode="&#x192;" 
d="M344 715q-57 0 -53 47q4 43 53 43h199v184q0 147 89 243q88 96 240 93q152 -4 152 -65q0 -35 -43 -43q-100 25 -129 24q-102 0 -162 -71t-61 -179v-186h194q55 0 56 -43q0 -47 -56 -47h-194v-592q0 -125 -88 -223t-211 -99q-176 0 -176 78q0 25 39 37q90 -25 141 -25
q100 0 154 70t55 176v578h-199z" />
    <glyph glyph-name="uni0193" unicode="&#x193;" 
d="M860 915q0 -20 -12 -37t-31 -18q-39 0 -43 53q-2 86 -88 156q-119 96 -264 90q-176 -6 -262 -192q-74 -156 -65 -374t100 -375t259 -162t276 114q109 119 142 281l-303 -2q-53 -1 -53 41t53 42l324 3q41 1 50 -19t9 -65q-4 -43 -49 -156q-127 -330 -442 -330
q-205 0 -326 195q-101 164 -117 416t88 458q104 207 311 211q208 4 357 -145l4 -8q16 113 88 174t183 61h53q59 0 59 -43q2 -39 -41 -49l-71 2q-188 0 -189 -180v-142z" />
    <glyph glyph-name="uni0194" unicode="&#x194;" 
d="M600 53q84 0 84 148q0 180 -88 268q-86 -88 -86 -252t90 -164zM1032 1193q0 -15 -389 -644q125 -175 125 -365t-168 -190t-168 188q0 88 39 196t86 173l-412 629q0 16 28 38t44 1l381 -580l358 580q2 8 20 10q18 3 38 -9q18 -12 18 -27z" />
    <glyph glyph-name="uni0195" unicode="&#x195;" 
d="M1143 474q0 -164 -78 -324q-96 -195 -264 -195q-111 0 -197 88t-86 203v387q0 213 -215 213q-43 0 -104 -80q-6 -6 -80 -119v-600q0 -53 -42 -53t-42 53v1219q0 49 42 49t42 -49v-461q102 141 228 141t194 -96q66 -86 61 -213v-391q0 -72 64 -135t135 -64q125 0 203 166
q59 135 59 267t-25 274l-12 55q-10 37 -10 53q0 49 41 49q33 0 43 -47q43 -226 43 -390z" />
    <glyph glyph-name="uni0196" unicode="&#x196;" 
d="M979 42q0 -46 -59 -46h-66q-152 0 -244 93t-92 243v782h-260q-57 0 -57 46t57 46h350v-876q0 -104 72 -179t176 -69l66 4q57 2 57 -44z" />
    <glyph glyph-name="uni0197" unicode="&#x197;" 
d="M913 90q58 0 58 -45t-58 -45h-651q-55 0 -55 49q0 41 55 41h285v475h-240q-55 0 -55 45t51 45h244v463l-285 -2q-55 0 -55 49q0 41 55 41h653q55 0 56 -41q0 -47 -58 -47h-276v-463h211q55 0 55 -45t-51 -45h-215v-475h276z" />
    <glyph glyph-name="uni0198" unicode="&#x198;" 
d="M899 0h-162q-98 281 -151 379q-113 199 -293 264l-172 -158v-448q0 -43 -43 -43t-43 43v1147q0 43 43 43t43 -43v-584l368 342q72 66 191 184q86 80 202 80t205 -96l35 -39q20 -23 21 -47q0 -41 -41 -41q-32 0 -78 64q-76 71 -154 71t-131 -51q-51 -45 -192 -178
l-185 -180q174 -76 279 -260q39 -68 154 -359l82 4q59 0 81 -47q-4 -47 -59 -47z" />
    <glyph glyph-name="uni0199" unicode="&#x199;" 
d="M981 44q0 -38 -43 -44q-6 -2 -62 -2t-139 92l-358 389l-100 -84l2 -358q0 -43 -41 -43t-41 43v1020q0 125 99 199t222 71l98 -2q55 -2 60 -43q0 -41 -66 -47l-92 2q-94 0 -168 -47t-73 -133v-549l360 313l45 58q29 37 66 34l57 -2q57 -2 57 -43q-4 -37 -35 -45
q-8 -2 -61 -2l-328 -291l416 -440h74q51 -8 51 -46z" />
    <glyph glyph-name="uni019A" unicode="&#x19a;" 
d="M1014 45q0 -45 -58 -45h-735q-57 0 -57 49q0 35 57 35h326v481h-240q-55 0 -55 45t51 45h244v549h-260q-57 0 -58 47q0 45 58 45h346v-641h215q55 0 55 -45t-51 -45h-219v-481h325q56 0 56 -39z" />
    <glyph glyph-name="uni019B" unicode="&#x19b;" 
d="M1067 -16q0 -18 -38 -18t-46 20l-377 807l-405 -807q-13 -20 -51 -20t-37 18l446 907q-12 28 -51 106l-160 -159q-38 -40 -70 -8t5 69l186 186q-35 80 -37 82q-26 43 -62 43t-53 -8q-3 2 -25 8t-24 14t-2 23q0 45 51 45q139 0 183 -88l28 -59l140 139q37 41 67 9
q30 -31 -2 -70l-166 -166l47 -103q104 -216 453 -968v-2z" />
    <glyph glyph-name="uni019C" unicode="&#x19c;" 
d="M1065 -29q-35 0 -45 41v70q-108 -117 -252 -117t-209 139q-115 -141 -260 -137q-90 0 -160 68t-69 155v988q0 43 42 43t42 -43v-977q0 -59 46 -105t103 -47q123 0 236 174v955q0 43 45 43t45 -43v-971q0 -59 47 -109t106 -49q106 0 238 174v957q0 41 43 39t43 -41
l2 -1166q0 -41 -43 -41z" />
    <glyph glyph-name="uni019D" unicode="&#x19d;" 
d="M1151 1184v-1147q0 -31 -49 -32t-64 32l-549 1005v-1101q0 -150 -93 -243t-242 -93h-66q-59 0 -59 43t57 43h66q104 1 176 71t71 177l4 1245q0 49 54 49q43 0 57 -27l547 -1032v1010q0 43 45 43t45 -43z" />
    <glyph glyph-name="uni019E" unicode="&#x19e;" 
d="M967 633v-1008q0 -43 -44 -43t-44 43v996q0 100 -73 158q-73 59 -176 59t-186 -64q-27 -20 -143 -143v-594q0 -43 -43 -43t-43 43l-2 837q0 41 42 41t48 -61v-92q88 88 162 125t172 37t176 -41q55 -31 105 -110t49 -140z" />
    <glyph glyph-name="uni019F" unicode="&#x19f;" 
d="M600 51q176 0 289 165t119 366h-836q6 -229 127 -375q125 -156 301 -156zM593 1151q-177 -1 -288 -147t-129 -332h828q-18 195 -119 325q-115 154 -292 154zM1094 596q0 -242 -127 -424q-143 -205 -377 -205t-377 209q-127 186 -127 428t125 422q145 207 377 207
t375 -209q131 -186 131 -428z" />
    <glyph glyph-name="Ohorn" unicode="&#x1a0;" 
d="M534 1151q-194 0 -309 -175q-115 -176 -111 -398t127 -374t301 -153q178 0 292 172t114 379t-102 365q-118 184 -312 184zM1151 1182q0 -92 -52 -174t-136 -88q72 -156 71 -320q0 -246 -127 -428q-143 -205 -375 -205t-376 209q-129 184 -129 426t127 424
q145 207 378 207q260 0 404 -260h18q57 0 90 74q31 61 31 135q0 37 38 37t38 -37z" />
    <glyph glyph-name="ohorn" unicode="&#x1a1;" 
d="M530 834q-158 0 -278 -117t-119 -278q0 -161 116 -275q115 -114 283 -113q168 -1 283 113t115 275t-121 278t-279 117zM1135 905q0 -83 -48 -163t-118 -95q45 -92 45 -201q0 -205 -138 -343t-342 -138q-203 0 -346 141q-143 140 -143 340t144 338t341 138q127 0 237 -60
t175 -166q53 4 86 76q31 61 31 133q0 37 38 37t38 -37z" />
    <glyph glyph-name="uni01A2" unicode="&#x1a2;" 
d="M446 1133q-141 0 -227 -181q-78 -160 -77 -372t94 -363q94 -150 210 -149q139 0 226 178q74 152 76 346t-58 342q-82 199 -244 199zM1120 1163v-1530q0 -49 -44 -49t-44 51v1436q-123 -147 -223 -149q-23 0 -33 2q59 -166 60 -326q0 -248 -101 -430q-111 -205 -289 -205
t-288 209q-98 186 -98 429t98 427q111 207 291 207q94 0 159 -53l92 -103q48 -51 108 -51t124 53q31 31 79 93t66 61q43 -2 43 -72z" />
    <glyph glyph-name="uni01A3" unicode="&#x1a3;" 
d="M729 428q0 148 -80 267q-80 120 -202 120q-121 0 -207 -112q-86 -111 -86 -267t83 -263t205 -107t204 107q83 107 83 255zM1114 850v-1217q0 -49 -44 -49t-44 51v1139q-123 -147 -223 -149h-21q31 -88 31 -181q0 -203 -108 -346q-109 -139 -264 -139t-265 143t-110 342
t112 339t262 139q172 -4 279 -162q45 -29 84 -29q74 0 163 95t105 96q43 -4 43 -72z" />
    <glyph glyph-name="uni01A4" unicode="&#x1a4;" 
d="M393 -6q-43 0 -43 43v1085h-37q-88 0 -134 -73t-46 -164l2 -94q-6 -63 -47 -64q-43 0 -43 59l-2 99q-4 127 71 224t199 97h420q160 0 280 -96t124 -254q0 -254 -285 -342q-72 -23 -291 -18q-39 2 -59 2q-33 6 -31 39q0 43 41 43l201 2q127 4 233 78t105 194
q-3 119 -97 192t-213 72h-303l-2 -1083q0 -41 -43 -41z" />
    <glyph glyph-name="uni01A5" unicode="&#x1a5;" 
d="M965 478q0 148 -110 254q-109 106 -263 106t-266 -106t-111 -260q0 -155 110 -259t261 -104t266 110q113 111 113 259zM1053 478q0 -192 -133 -323q-133 -132 -328 -132q-231 0 -379 188v-588q0 -41 -44 -41t-44 43v1432q0 125 102 199t228 71l98 -2q59 -4 59 -44
t-63 -46l-94 2q-92 0 -165 -48t-73 -132v-322q143 186 373 187q190 0 326 -126t137 -318z" />
    <glyph glyph-name="uni01A6" unicode="&#x1a6;" 
d="M1171 -178q0 -51 -94 -51q-4 0 -78 6q-141 254 -178 303q-111 160 -256 231h-159q-43 0 -41 45t41 45h122q131 0 244 62q137 74 137 185q0 112 -95 178t-206 67h-315v-803h153q57 0 58 -43q0 -47 -58 -47h-385q-55 0 -55 49q0 41 55 41h142v1026h-142q-55 0 -55 49
q0 41 55 41h388q55 0 55 -41q0 -49 -58 -49h-153v-135h321q141 0 258 -92q123 -102 123 -240q0 -211 -297 -311q106 -76 199 -217l150 -260h24q10 2 23 2q77 0 77 -41z" />
    <glyph glyph-name="uni01A7" unicode="&#x1a7;" 
d="M1020 303q0 -154 -136 -246t-304 -92t-294 95t-126 268q0 98 49 174q66 104 213 143q86 18 258 51q139 37 190 129q23 45 23 93q0 118 -92 186t-214 68t-200 -64q-78 -63 -94 -131q-6 -25 -14 -74q-8 -14 -33 -14q-39 0 -39 59q0 131 124 220q123 89 271 89t260 -91
t115 -244q0 -262 -367 -328q-188 -33 -245 -62q-123 -61 -123 -195t105 -210t257 -73q152 4 231 72t96 143t23 81q6 14 25 15q41 -1 41 -62z" />
    <glyph glyph-name="uni01A8" unicode="&#x1a8;" 
d="M993 240q0 -139 -141 -213q-112 -59 -268 -59t-265 63q-133 78 -133 223q0 74 50 137q63 86 180 117q66 12 202 27q119 8 186 50t66 101q0 80 -96 120t-182 40q-232 0 -279 -160q-14 -51 -37 -51q-47 0 -45 61q0 109 134 181q111 55 237 55t227 -53q123 -63 123 -187
q-4 -61 -41 -119q-53 -78 -223 -110l-278 -53q-138 -45 -138 -155t113 -161q79 -39 183 -39t196 30t125 83l16 78q8 51 45 51q43 0 43 -57z" />
    <glyph glyph-name="uni01A9" unicode="&#x1a9;" 
d="M1036 44q0 -44 -61 -44h-799q-29 0 -33 37q0 41 31 86l326 483l-326 492q-29 45 -28 83t28 38h721q59 0 59 -47t-59 -48h-641l352 -516l-348 -518l717 -2q61 0 61 -44z" />
    <glyph glyph-name="uni01AA" unicode="&#x1aa;" 
d="M489 1108q0 51 -37 89q-38 38 -88 38t-88 -36t-38 -88t36 -87t92 -35q54 0 89 34q34 34 34 85zM1020 -121q0 -45 -70 -65q-45 -14 -106 -15q-119 5 -208 103t-89 223l-2 891q-57 -106 -180 -107q-85 1 -145 59t-61 136t54 144t150 66t180 -85q88 -94 88 -240v-852
q0 -106 55 -176t154 -70q53 0 141 25q39 -12 39 -37z" />
    <glyph glyph-name="uni01AB" unicode="&#x1ab;" 
d="M911 12v-71q0 -147 -91 -239t-240 -93h-66q-53 0 -53 42t51 40l66 -4q106 -5 180 69t73 183v26h-16q-139 0 -234 67t-96 197v576h-159q-59 0 -60 47q0 45 58 45h161l-2 250q-1 14 15 37t28 22q47 0 47 -59v-250h281q57 0 57 -46t-61 -46h-277v-576q0 -174 279 -174
q59 0 59 -43z" />
    <glyph glyph-name="uni01AC" unicode="&#x1ac;" 
d="M1108 1118h-438v-1081q0 -43 -45 -43t-45 43v1081h-267q-86 0 -133 -70t-47 -163l2 -94q-6 -63 -47 -64q-39 0 -43 59l-2 99q-2 125 73 223t197 98h793q23 0 29 -43q0 -45 -27 -45z" />
    <glyph glyph-name="uni01AD" unicode="&#x1ad;" 
d="M938 1281q0 -40 -64 -46l-94 2q-80 0 -150 -38t-83 -105v-197h280q57 0 58 -45q0 -47 -62 -47h-276v-576q0 -174 278 -174q59 0 59 -40t-32 -48q-8 -2 -64 -2q-137 0 -233 67t-96 197v576h-160q-59 0 -59 46t57 46h162v160q0 123 98 197t223 73l99 -2q59 -4 59 -44z" />
    <glyph glyph-name="uni01AE" unicode="&#x1ae;" 
d="M1073 1118h-438v-1241q0 -104 72 -179t176 -69l65 4q57 2 58 -45q0 -45 -60 -45h-65q-150 0 -243 93t-93 243v1239h-441q-26 0 -26 44t26 44h967q23 0 29 -43q0 -45 -27 -45z" />
    <glyph glyph-name="Uhorn" unicode="&#x1af;" 
d="M1114 1182q0 -104 -33 -172q-43 -90 -125 -90h-53v-525q0 -178 -120 -304t-300 -126t-299 124t-118 306v791q0 41 44 41t44 -43l-2 -789q0 -141 94 -241t235 -100t237 100q96 102 95 241v789q0 43 45 43t45 -43v-211h55q80 0 80 209q0 37 38 37t38 -37z" />
    <glyph glyph-name="uhorn" unicode="&#x1b0;" 
d="M1067 905q0 -102 -31 -172q-41 -90 -125 -90h-53v-606q0 -43 -40 -43t-46 51q0 2 2 20t2 58q-182 -158 -387 -158q-123 0 -201 80t-77 205v624q0 41 43 41t43 -41v-624q0 -86 52 -140t138 -55q211 0 387 195v624q0 41 42 41t42 -41v-178h53q80 0 80 209q0 37 38 37
t38 -37z" />
    <glyph glyph-name="uni01B1" unicode="&#x1b1;" 
d="M1038 412q0 -446 -449 -446t-450 374q0 110 47 348t47 318q0 131 -71 180q-4 4 -4 11t16 18q35 24 54 -3q19 -26 22 -28q74 -33 74 -160q0 -82 -44 -304t-44 -331q0 -336 344 -336q362 0 362 387q0 113 -36 335t-36 300t39 109q3 2 17 22q25 35 61 9q16 -11 16 -19
t-4 -12q-39 -33 -39 -118t40 -305q38 -220 38 -349z" />
    <glyph glyph-name="uni01B2" unicode="&#x1b2;" 
d="M550 -35q-169 0 -290 123q-119 125 -119 307v791q0 41 44 41t44 -43l-2 -789q1 -141 95 -241t225 -100t215 108q18 27 127 233q63 119 63 333t-63 456q0 43 45 43t45 -43q57 -238 57 -453t-57 -336q-113 -240 -156 -295q-104 -135 -273 -135z" />
    <glyph glyph-name="uni01B3" unicode="&#x1b3;" 
d="M1120 1197q0 -11 -148 -305t-179 -343v-512q0 -43 -44 -43t-44 43l2 514q-10 16 -308 536q-31 57 -77 58q-80 0 -183 -152q-20 -31 -43 -30q-39 0 -39 45q0 29 25 63q141 156 254 156q78 0 123 -80l289 -508l296 580q2 8 20 10q18 3 38 -9q18 -12 18 -23z" />
    <glyph glyph-name="uni01B4" unicode="&#x1b4;" 
d="M195 -401q-45 0 -45 51q0 27 8 34t37 15q15 -8 43 -8t43 37q59 162 104 276l-358 901q1 23 35 23t44 -23l320 -790l297 790q39 113 51 144q32 69 98 95t113 25q92 0 168 -100q18 -26 0 -51q-35 -35 -59 0q-55 68 -113 67q-98 0 -137 -71q-8 -10 -45 -113l-455 -1210
q-33 -92 -149 -92z" />
    <glyph glyph-name="uni01B5" unicode="&#x1b5;" 
d="M1036 44q0 -44 -61 -44h-801q-31 0 -31 39t31 84l299 442h-182q-55 0 -55 45t51 45h248l317 459l-641 4q-61 0 -61 50t61 51h719q26 0 26 -38t-28 -83l-295 -443h198q55 0 56 -45q0 -45 -51 -45h-263l-315 -475l717 -2q61 0 61 -44z" />
    <glyph glyph-name="uni01B6" unicode="&#x1b6;" 
d="M1022 44q0 -44 -61 -44h-760q-19 0 -19 30t21 52l289 340h-199q-55 0 -55 45t51 45h276l256 301h-604q-59 0 -59 46t61 46l715 -2q18 1 18 -27t-18 -51l-266 -313h166q55 0 55 -45t-51 -45h-244l-281 -332l648 -2q61 0 61 -44z" />
    <glyph glyph-name="uni01B7" unicode="&#x1b7;" 
d="M997 362q0 -164 -127 -280q-129 -115 -290 -113q-102 0 -220 47q-176 74 -176 131q0 43 39 43l58 -34q320 -191 532 -17q100 86 100 219q0 134 -110 226t-250 92q-53 0 -57 37q-2 43 36 45l351 356l-641 4q-61 0 -62 51q0 49 62 50h719q27 0 27 -37t-30 -84l-329 -344
l131 -47q237 -112 237 -345z" />
    <glyph glyph-name="uni01B8" unicode="&#x1b8;" 
d="M997 1168q0 -50 -61 -50l-641 -4l350 -356q39 -2 37 -45q-2 -37 -57 -37q-139 0 -250 -92t-111 -226t101 -219q102 -84 232 -84t300 101l57 34q39 0 39 -43q0 -57 -176 -131q-117 -47 -219 -47q-162 -2 -291 113q-127 117 -127 280q0 233 238 345l131 47l-330 344
q-29 47 -29 84t27 37h719q61 -1 61 -51z" />
    <glyph glyph-name="uni01B9" unicode="&#x1b9;" 
d="M936 901q61 0 61 -50t-61 -50l-641 -4l350 -357q39 -2 37 -45q-2 -37 -57 -37q-139 0 -250 -92t-111 -226t102 -218t230 -84q129 0 301 100l57 35q39 0 39 -43q0 -57 -176 -131q-117 -47 -219 -47q-164 -4 -291 113t-127 280q0 233 238 344l131 47l-330 344
q-29 47 -29 84t27 37h719z" />
    <glyph glyph-name="uni01BA" unicode="&#x1ba;" 
d="M150 851q0 50 61 50h719q26 0 26 -37t-28 -84l-330 -344q33 4 55 4q236 0 236 -194q0 -135 -152 -176l-278 -29q-150 -18 -150 -102q0 -109 113 -160q80 -39 184 -39t185 24q102 35 135 89l16 77q8 51 45 52q43 -1 43 -58q0 -139 -141 -213q-113 -59 -269 -59t-264 63
q-133 78 -133 224q0 115 74 157q53 33 170 33l143 -4q186 0 187 121q0 117 -168 116l-107 -4q-57 0 -57 37q-2 43 37 45l350 357l-641 4q-61 0 -61 50z" />
    <glyph glyph-name="uni01BB" unicode="&#x1bb;" 
d="M180 0v123q63 63 187 164l194 155h-158q-55 0 -55 45t51 45h269q123 106 147 138q78 90 78 190t-88 186t-200 86q-111 0 -191 -60q-80 -62 -109 -169q-12 -39 -33 -39q-31 0 -39 8l-12 31q0 51 55 135q117 180 326 181q156 0 262 -111q109 -109 109 -266q0 -96 -55 -174
q-31 -41 -132 -136h158q55 0 55 -45t-51 -45h-260q-47 -39 -420 -354h627q0 88 37 88q49 0 49 -94l-4 -82h-797z" />
    <glyph glyph-name="uni01BC" unicode="&#x1bc;" 
d="M608 49q404 0 402 307q0 144 -90 240t-258 96q-88 0 -226 -43t-141 -43q-33 0 -33 37v475h-158q-26 0 -26 44t26 44h840q53 0 53 -39l-6 -28q-20 -20 -47 -21h-596v-411q146 63 332 63t303 -128t117 -298t-130 -272t-360 -103q-137 0 -266 54q-207 90 -207 153
q0 39 43 39q8 0 78 -47q177 -119 350 -119z" />
    <glyph glyph-name="uni01BD" unicode="&#x1bd;" 
d="M1057 344q0 -172 -110 -274t-302 -103q-113 0 -223 53q-176 90 -176 156q0 45 41 45q6 0 62 -46q144 -118 294 -118q330 0 330 299q-4 144 -77 236t-208 92q-74 0 -188 -43l-117 -41q-33 0 -33 39v569h-200q-27 0 -27 44t27 44h788q23 0 29 -43q0 -45 -27 -45h-512v-503
q135 65 285 63t247 -127t97 -297z" />
    <glyph glyph-name="uni01BE" unicode="&#x1be;" 
d="M1059 254q0 -147 -135 -223q-109 -63 -265 -63t-268 59q-139 74 -139 213q0 57 43 57q37 0 45 -51l16 -78q31 -53 133 -88q83 -25 187 -25t184 39q113 51 113 160q0 123 -139 145q-92 6 -277 15q-166 23 -205 153q-27 80 -14 238h-160q-59 0 -59 46t57 46h162l-2 250
q0 14 15 37t28 22q47 0 47 -59v-250h281q57 0 57 -46t-62 -46h-276q-8 -147 23 -225q41 -102 196 -103l135 4q158 0 230 -90q49 -63 49 -137z" />
    <glyph glyph-name="uni01BF" unicode="&#x1bf;" 
d="M694 838q-154 0 -266 -106t-111 -259v-500q531 425 531 645t-154 220zM692 922q258 0 258 -306q0 -240 -635 -733v-260q0 -41 -44 -41t-44 43v1247q0 43 46 43q45 1 47 -71t-1 -109q144 187 373 187z" />
    <glyph glyph-name="uni01C0" unicode="&#x1c0;" 
d="M588 -268q-43 0 -43 59l2 1450q0 57 41 53q45 -2 45 -57l-2 -1446q0 -59 -43 -59z" />
    <glyph glyph-name="uni01C1" unicode="&#x1c1;" 
d="M414 -268q-43 0 -43 59l2 1450q0 57 41 53q45 -2 45 -57l-2 -1446q0 -59 -43 -59zM762 -268q-43 0 -43 59l2 1450q0 57 41 53q45 -2 45 -57l-2 -1446q0 -59 -43 -59z" />
    <glyph glyph-name="uni01C2" unicode="&#x1c2;" 
d="M999 406h-358v-297q0 -59 -43 -60q-43 0 -43 60v297h-377q-49 0 -53 47q-2 43 55 43h377v219h-379q-51 0 -51 45t49 45h381v293q0 57 41 53q45 -2 45 -57v-289h361q49 0 49 -45t-54 -45h-356v-221q94 2 356 0q58 0 54 -41q-4 -47 -54 -47z" />
    <glyph glyph-name="uni01C3" unicode="&#x1c3;" 
d="M600 -4h-27q-43 0 -73 33t-31 77q0 44 30 81q30 36 72 36h29q47 0 78 -34t30 -82q-1 -47 -31 -79t-77 -32zM670 1256q0 -24 -2 -50l-35 -698q-2 -57 -45 -57t-45 57l-39 698v49q0 72 84 68q34 1 58 -21t24 -46z" />
    <glyph glyph-name="uni01C4" unicode="&#x1c4;" 
d="M293 1130h-164l-2 -1038h82q20 -2 84 -2q205 0 213 518q4 152 -19 260q-47 262 -194 262zM590 608q0 -209 -47 -362q-76 -246 -258 -246h-183q-31 0 -49 8q-14 27 -14 39v1131q0 41 61 41h183q307 -1 307 -611zM1110 44q0 -44 -61 -44h-441q-31 0 -30 37q0 16 15 49
t15 37l314 997l-277 -2q-61 0 -61 50t61 51h359q27 0 26 -37q0 -12 -13 -47t-16 -37l-309 -1008l357 -2q61 0 61 -44zM592 1606q25 0 129 -86l123 -105l123 98q117 92 129 93q43 0 43 -45q-4 -23 -27 -41l-268 -211q-135 98 -289 229q0 4 -6 23q0 45 43 45z" />
    <glyph glyph-name="uni01C5" unicode="&#x1c5;" 
d="M281 1130h-164l-2 -1038h82q20 -2 84 -2q205 0 213 518q4 152 -19 260q-47 262 -194 262zM580 608q0 -211 -50 -362q-76 -246 -258 -246h-182q-31 0 -49 8q-14 27 -14 39v1131q0 41 61 41h182q310 -1 310 -611zM1135 44q0 -44 -62 -44h-452q-38 0 2 82l311 731h-297
q-59 0 -59 46t61 46l408 -2q18 0 18 -24q0 -10 -18 -54l-314 -735l340 -2q62 0 62 -44zM606 1337q37 0 250 -194q20 20 128 106t124 90q43 0 43 -43q0 -20 -27 -41l-268 -217q-287 222 -297 254q0 45 47 45z" />
    <glyph glyph-name="uni01C6" unicode="&#x1c6;" 
d="M446 451q0 156 -51 262t-117 106t-118 -105q-51 -105 -51 -261t49 -259q48 -104 118 -104t120 102t50 259zM532 1255v-1200q0 -61 -43 -61t-45 88v8q-70 -125 -176 -125t-178 152q-68 141 -67 336t71 343t176 148t176 -129v440q0 59 43 60q43 -1 43 -60zM1137 44
q0 -44 -62 -44h-452q-38 0 2 82l311 731h-297q-59 0 -59 46t61 46l408 -2q18 0 18 -24q0 -10 -18 -54l-314 -735l340 -2q62 0 62 -44zM1155 1296q0 -20 -27 -41l-268 -217q-106 82 -196 154t-101 100q0 45 47 45q33 0 250 -194q20 20 128 106t124 90q43 0 43 -43z" />
    <glyph glyph-name="uni01C7" unicode="&#x1c7;" 
d="M535 92q26 0 26 -46t-26 -46h-424q-55 0 -56 47l-2 1137q0 43 45 43t45 -43v-1092h392zM1124 1163v-811q0 -172 -80 -284t-214 -103q-134 8 -202 81t-67 247q0 29 10 94l15 90q4 55 47 55t43 -51q0 -12 -12 -72t-13 -94q0 -143 43 -198q44 -55 144 -61t152 80
q52 87 52 216v766l-190 2q-55 0 -55 43t53 43h215q59 0 59 -43z" />
    <glyph glyph-name="uni01C8" unicode="&#x1c8;" 
d="M1014 899v-958q0 -150 -93 -243t-243 -93h-66q-59 0 -59 46t57 44l66 -4q104 -5 176 69t72 179v868l-191 2q-57 0 -57 45t59 45h279zM784 47q0 -47 -34 -47h-553q-59 0 -60 47v1137q0 47 45 44t45 -44v-1092h521q12 0 24 -16t12 -29zM958 1268q34 0 58 -26t24 -59
q0 -32 -26 -57t-58 -24q-86 0 -82 80q0 38 25 62t59 24z" />
    <glyph glyph-name="uni01C9" unicode="&#x1c9;" 
d="M1034 899v-958q0 -150 -92 -243t-244 -93h-65q-59 0 -60 45q0 47 58 45l65 -4q104 -5 176 69t72 179v868l-190 2q-57 0 -58 47q0 43 60 43h278zM844 45q0 -45 -58 -45h-612q-57 0 -57 49q0 35 57 35h262v1120h-260q-57 0 -57 46t57 46h346v-1212h266q56 0 56 -39z
M982 1268q34 0 56 -26t23 -59q0 -32 -26 -57t-58 -24q-88 0 -82 80q2 38 27 62q26 24 60 24z" />
    <glyph glyph-name="uni01CA" unicode="&#x1ca;" 
d="M530 1184v-1147q0 -31 -52 -32t-60 32l-293 952v-952q0 -43 -43 -43t-43 43v1147q0 49 51 49t60 -27l290 -960v938q0 43 45 43t45 -43zM1139 1163v-811q0 -172 -76 -278q-80 -117 -215 -108t-204 81t-69 246q0 29 11 94l14 90q6 55 48 55t42 -51q0 -12 -12 -72t-12 -94
q0 -143 45 -198t144 -61t151 80q52 87 51 216v766l-191 2q-55 0 -55 43t53 43h215q60 0 60 -43z" />
    <glyph glyph-name="uni01CB" unicode="&#x1cb;" 
d="M580 1184v-1147q0 -31 -52 -32t-61 32l-293 952v-952q0 -43 -43 -43t-43 43v1147q0 49 51 49t60 -27l290 -966v944q-1 43 45 43t46 -43zM1063 899v-958q0 -150 -93 -243t-243 -93h-65q-59 0 -60 45q0 47 57 45l66 -4q104 -5 176 69t72 179v868l-191 2q-57 0 -57 45t59 45
h279zM1010 1268q36 0 58 -26t22 -59q0 -32 -26 -57t-58 -24q-88 0 -82 80q0 38 26 62t60 24z" />
    <glyph glyph-name="uni01CC" unicode="&#x1cc;" 
d="M733 633v-596q0 -43 -44 -43t-44 43v584q0 217 -194 217q-98 0 -162 -64l-119 -143v-594q0 -43 -43 -43t-43 43l-2 837q0 41 43 41t49 -61q0 -61 -2 -92q100 100 129 121q63 41 172 41t185 -83t75 -208zM1069 899v-958q0 -150 -93 -243t-243 -93h-65q-59 0 -60 45
q0 47 58 45l65 -4q104 -5 176 69t72 179v868l-191 2q-57 0 -57 45t60 45h278zM1014 1268q34 0 58 -26t24 -59q0 -32 -26 -57t-58 -24q-88 0 -82 80q0 38 24 62t60 24z" />
    <glyph glyph-name="uni01CD" unicode="&#x1cd;" 
d="M336 494h508l-240 624h-33zM106 -27q-42 0 -40 21q0 4 452 1214q14 37 70 37t71 -39l449 -1204q2 -2 3 -10t-8 -12t-43 -4t-42 26l-146 401h-567l-149 -403q-8 -27 -50 -27zM342 1606q25 0 129 -86l123 -105l123 98q117 92 129 93q43 0 43 -45q-4 -23 -27 -41l-268 -211
q-135 98 -289 229q0 4 -6 23q0 45 43 45z" />
    <glyph glyph-name="uni01CE" unicode="&#x1ce;" 
d="M928 1296q0 -20 -27 -41l-268 -217q-107 82 -197 154t-100 100q0 45 47 45q37 0 250 -194q20 20 128 106t124 90q43 0 43 -43zM636 467q-130 0 -235 -51q-137 -62 -137 -166t71 -150t171 -47q204 -1 409 189v190q-149 35 -279 35zM999 662v-625q1 -43 -37 -43t-44 51
q-2 27 -3 78q-201 -158 -403 -158q-139 0 -236 71q-98 71 -98 199t115 221t391 93q80 0 231 -33v143q0 90 -92 140q-72 39 -165 39q-92 0 -204 -36t-127 -36t-30 12q-12 25 -12 37t8 27q19 26 167 52t202 26q133 -2 235 -68t102 -190z" />
    <glyph glyph-name="uni01CF" unicode="&#x1cf;" 
d="M913 90q58 0 58 -45t-58 -45h-651q-55 0 -55 49q0 41 55 41h285v1028l-285 -2q-55 0 -55 49q0 41 55 41h653q55 0 56 -41q0 -47 -58 -47h-276v-1028h276zM330 1606q23 0 129 -86l123 -105l123 98q115 92 129 93q43 0 43 -45q-4 -23 -27 -41l-268 -211q-135 98 -289 229
l-6 23q0 45 43 45z" />
    <glyph glyph-name="uni01D0" unicode="&#x1d0;" 
d="M1014 47q0 -45 -58 -45h-735q-57 0 -57 49q0 35 57 35h326v721h-262q-57 0 -58 47q0 45 58 45h346v-813h327q56 0 56 -39zM874 1296q0 -20 -26 -41l-268 -217q-106 82 -196 154t-101 100q0 45 47 45q37 0 250 -194q20 20 128 106t123 90q43 0 43 -43z" />
    <glyph glyph-name="uni01D1" unicode="&#x1d1;" 
d="M592 1151q-194 0 -316 -184q-109 -164 -104 -367q0 -240 126 -394t304 -155q178 0 291 172t114 379t-102 365q-119 184 -313 184zM1094 596q0 -242 -127 -424q-143 -205 -377 -205t-377 209q-127 186 -127 428t125 422q145 207 377 207t375 -209q131 -186 131 -428z
M332 1561q0 45 43 45q23 0 129 -86l123 -105l121 98q117 92 131 93q43 0 43 -45q-2 -20 -27 -41l-268 -211q-135 98 -289 229q-6 18 -6 23z" />
    <glyph glyph-name="uni01D2" unicode="&#x1d2;" 
d="M592 51q168 -1 282 113t115 275q0 161 -119 278q-120 117 -280 117t-279 -117t-119 -278t116 -275t284 -113zM1073 443q0 -202 -138 -340t-340 -138t-347 141q-144 140 -144 340t144 338t342 138q197 0 340 -138t143 -341zM905 1296q0 -20 -26 -41l-269 -217
q-106 82 -196 154t-101 100q0 45 47 45q37 0 250 -194q20 20 128 106t124 90q43 0 43 -43z" />
    <glyph glyph-name="uni01D3" unicode="&#x1d3;" 
d="M1008 1184v-789q0 -180 -119 -305t-299 -125t-301 123q-119 125 -119 307v791q0 41 44 41t44 -43l-2 -789q0 -141 94 -241t236 -100t236 100q95 102 96 241v789q0 43 45 43t45 -43zM348 1606q20 0 129 -86l123 -105l123 98q113 92 129 93q43 0 43 -45q-4 -23 -27 -41
l-268 -211q-135 98 -289 229l-6 23q0 45 43 45z" />
    <glyph glyph-name="uni01D4" unicode="&#x1d4;" 
d="M963 874v-837q0 -43 -40 -43t-46 51q0 2 2 20t2 58q-182 -158 -387 -158q-123 0 -201 80t-78 205v624q0 41 43 41t43 -41v-624q0 -86 52 -140t139 -55q211 0 387 195v624q0 41 42 41t42 -41zM924 1296q0 -20 -27 -41l-268 -217q-107 82 -197 154t-100 100q0 45 47 45
q37 0 250 -194q20 20 128 106t124 90q43 0 43 -43z" />
    <glyph glyph-name="uni01D5" unicode="&#x1d5;" 
d="M1008 1184v-789q0 -180 -119 -305t-299 -125t-301 123q-119 125 -119 307v791q0 41 44 41t44 -43l-2 -789q0 -141 94 -241t236 -100t236 100q95 102 96 241v789q0 43 45 43t45 -43zM471 1456q0 -84 -86 -82q-76 2 -76 84t81 82t81 -84zM866 1677q56 0 56 -43t-52 -43
l-546 -2q-53 0 -54 43q0 45 52 45h544zM895 1458q0 -32 -27 -58q-26 -26 -60 -26t-56 25t-23 61q0 36 25 59q24 23 60 23t58 -26t23 -58z" />
    <glyph glyph-name="uni01D6" unicode="&#x1d6;" 
d="M965 874v-837q0 -43 -43 -43t-45 51l2 80q-178 -154 -387 -158q-123 0 -200 79t-77 204v624q0 41 41 41t45 -41l2 -624q0 -86 51 -140t138 -55q211 0 387 195v624q0 41 43 41t43 -41zM414 1100q-74 0 -74 84t78 84t80 -84t-84 -84zM924 1184q0 -33 -27 -58
q-27 -24 -59 -24t-57 22q-23 22 -23 59q0 35 26 61t59 26t57 -26t24 -60zM895 1462q55 0 55 -43t-51 -43l-547 -2q-53 0 -53 44t51 44h545z" />
    <glyph glyph-name="uni01D7" unicode="&#x1d7;" 
d="M1008 1184v-789q0 -180 -119 -305t-299 -125t-301 123q-119 125 -119 307v791q0 41 44 41t44 -43l-2 -789q0 -141 94 -241t236 -100t236 100q95 102 96 241v789q0 43 45 43t45 -43zM471 1456q0 -84 -86 -82q-76 2 -76 84t81 82t81 -84zM895 1458q0 -32 -27 -58
q-26 -26 -60 -26t-56 25t-23 61q0 36 25 59q24 23 60 23t58 -26t23 -58zM537 1576q-1 18 149 142q150 125 163 125t31 -20q17 -21 17 -39l-8 -15q-307 -246 -309 -245q-14 0 -29 17q-14 17 -14 35z" />
    <glyph glyph-name="uni01D8" unicode="&#x1d8;" 
d="M938 1569q0 -20 -16 -33l-281 -233q-16 -12 -29 -13q-45 0 -45 47q0 16 17 33l280 234q12 12 29 12q45 0 45 -47zM965 874v-837q0 -43 -43 -43t-45 51l2 80q-178 -154 -387 -158q-123 0 -200 79t-77 204v624q0 41 41 41t45 -41l2 -624q0 -86 51 -140t138 -55
q211 0 387 195v624q0 41 43 41t43 -41zM371 1100q-74 0 -74 84t79 84t81 -86q4 -82 -86 -82zM881 1184q0 -33 -26 -58q-25 -24 -59 -24t-58 22t-24 59q0 35 26 61t60 26t58 -26t23 -60z" />
    <glyph glyph-name="uni01D9" unicode="&#x1d9;" 
d="M1008 1184v-789q0 -180 -119 -305t-299 -125t-301 123q-119 125 -119 307v791q0 41 44 41t44 -43l-2 -789q0 -141 94 -241t236 -100t236 100q95 102 96 241v789q0 43 45 43t45 -43zM471 1456q0 -84 -86 -82q-76 2 -76 84t81 82t81 -84zM348 1790q20 0 129 -86l123 -105
l123 99q113 92 129 92q43 0 43 -45q-4 -23 -27 -41l-268 -211q-135 98 -289 229l-6 23q0 45 43 45zM895 1458q0 -32 -27 -58q-26 -26 -60 -26t-56 25t-23 61q0 36 25 59q24 23 60 23t58 -26t23 -58z" />
    <glyph glyph-name="uni01DA" unicode="&#x1da;" 
d="M965 874v-837q0 -43 -43 -43t-45 51l2 80q-178 -154 -387 -158q-123 0 -200 79t-77 204v624q0 41 41 41t45 -41l2 -624q0 -86 51 -140t138 -55q211 0 387 195v624q0 41 43 41t43 -41zM414 1100q-74 0 -74 84t78 84t80 -84t-84 -84zM924 1184q0 -33 -27 -58
q-27 -24 -59 -24t-57 22q-23 22 -23 59q0 35 26 61t59 26t57 -26t24 -60zM924 1511q0 -20 -27 -41l-268 -217q-284 208 -297 254q0 45 47 45q33 0 250 -194q29 28 131 110t121 86q43 0 43 -43z" />
    <glyph glyph-name="uni01DB" unicode="&#x1db;" 
d="M1008 1184v-789q0 -180 -119 -305t-299 -125t-301 123q-119 125 -119 307v791q0 41 44 41t44 -43l-2 -789q0 -141 94 -241t236 -100t236 100q95 102 96 241v789q0 43 45 43t45 -43zM471 1456q0 -84 -86 -82q-76 2 -76 84t81 82t81 -84zM649 1554q0 -18 -14 -35t-31 -18
q-6 6 -14 6l-164 129q-137 113 -137 127q2 19 18 39t33 21h6q2 -2 4 -2l162 -135q137 -114 137 -132zM895 1458q0 -32 -27 -58q-26 -26 -60 -26t-56 25t-23 61q0 36 25 59q24 23 60 23t58 -26t23 -58z" />
    <glyph glyph-name="uni01DC" unicode="&#x1dc;" 
d="M965 874v-837q0 -43 -43 -43t-45 51l2 80q-178 -154 -387 -158q-123 0 -200 79t-77 204v624q0 41 41 41t45 -41l2 -624q0 -86 51 -140t138 -55q211 0 387 195v624q0 41 43 41t43 -41zM414 1100q-74 0 -74 84t78 84t80 -84t-84 -84zM690 1320q0 -16 -15 -34t-23 -18t-21 4
l-164 131q-137 113 -137 129t16 36t33 19l4 -2h8l162 -135q137 -113 137 -130zM924 1184q0 -33 -27 -58q-27 -24 -59 -24t-57 22q-23 22 -23 59q0 35 26 61t59 26t57 -26t24 -60z" />
    <glyph glyph-name="uni01DD" unicode="&#x1dd;" 
d="M606 51q148 0 251 90t130 240h-723q16 -109 23 -127q18 -68 65 -109q106 -94 254 -94zM580 932q202 0 346 -146t145 -351q0 -206 -132 -336t-336 -133t-331 138q-92 104 -94 361h811q-23 174 -134 275q-112 102 -279 102t-291 -64q-25 -12 -72 -65q-49 -49 -63 -49
q-44 0 -44 41t103 112q169 115 371 115z" />
    <glyph glyph-name="uni01DE" unicode="&#x1de;" 
d="M336 492h508l-240 624h-33zM106 -29q-42 0 -40 21q0 4 452 1214q14 37 70 37t71 -39l449 -1204q2 -2 3 -10q2 -17 -41 -17q-44 0 -52 27l-146 401h-567l-149 -403q-8 -27 -50 -27zM403 1526q82 0 82 -84t-88 -84q-70 0 -69 100q0 68 75 68zM881 1677q55 0 55 -43t-51 -43
l-547 -2q-53 0 -53 44t51 44h545zM909 1443q-1 -36 -25 -60q-24 -23 -59 -23t-59 24t-23 61q0 35 26 59q25 24 61 24t58 -24t21 -61z" />
    <glyph glyph-name="uni01DF" unicode="&#x1df;" 
d="M420 1102q-74 0 -74 84t79 84t81 -86q0 -82 -86 -82zM930 1186q0 -33 -27 -58q-27 -24 -59 -24t-57 22q-23 22 -23 59q0 35 26 61t60 26t56 -26q24 -26 24 -60zM899 1462q55 0 55 -43t-51 -43l-547 -2q-53 0 -53 44t51 44h545zM636 467q-130 0 -235 -51
q-137 -62 -137 -166t71 -150t171 -47q204 -1 409 189v190q-149 35 -279 35zM999 662v-625q1 -43 -37 -43t-44 51q-2 27 -3 78q-201 -158 -403 -158q-139 0 -236 71q-98 71 -98 199t115 221t391 93q80 0 231 -33v143q0 90 -92 140q-72 39 -165 39q-92 0 -204 -36t-127 -36
t-30 12q-12 25 -12 37t8 27q19 26 167 52t202 26q133 -2 235 -68t102 -190z" />
    <glyph glyph-name="uni01E0" unicode="&#x1e0;" 
d="M336 492h508l-240 624h-33zM106 -29q-42 0 -40 21q0 4 452 1214q14 37 70 37t71 -39l449 -1204q2 -2 3 -10q2 -17 -41 -17q-44 0 -52 27l-146 401h-567l-149 -403q-8 -27 -50 -27zM518 1442q0 34 27 60t61 26t56 -24t22 -61q0 -36 -25 -60t-59 -23q-82 0 -82 82z
M881 1677q55 0 55 -43t-51 -43l-547 -2q-53 0 -53 44t51 44h545z" />
    <glyph glyph-name="uni01E1" unicode="&#x1e1;" 
d="M735 1186q-1 -33 -27 -58q-26 -24 -59 -24t-57 22t-23 59q0 35 26 61q25 26 59 26t58 -26t23 -60zM899 1462q55 0 55 -43t-51 -43l-547 -2q-53 0 -53 44t51 44h545zM636 467q-130 0 -235 -51q-137 -62 -137 -166t71 -150t171 -47q204 -1 409 189v190q-149 35 -279 35z
M999 662v-625q1 -43 -37 -43t-44 51q-2 27 -3 78q-201 -158 -403 -158q-139 0 -236 71q-98 71 -98 199t115 221t391 93q80 0 231 -33v143q0 90 -92 140q-72 39 -165 39q-92 0 -204 -36t-127 -36t-30 12q-12 25 -12 37t8 27q19 26 167 52t202 26q133 -2 235 -68t102 -190z
" />
    <glyph glyph-name="uni01E2" unicode="&#x1e2;" 
d="M559 494v624h-108l-170 -624h278zM1092 0h-476q-57 0 -57 47v359h-301l-106 -388q-8 -26 -50 -26t-43 22q0 -20 108 393t210 801l713 -2q23 0 28 -43q0 -45 -26 -45h-447v-446h258q29 0 23 -45q0 -43 -23 -43h-258v-494l445 -2q22 0 28 -43q0 -45 -26 -45zM989 1450
q58 0 58 -46t-58 -46h-528q-59 0 -60 47q0 45 58 45h530z" />
    <glyph glyph-name="uni01E3" unicode="&#x1e3;" 
d="M559 238l-2 198q-3 0 -71 16t-105 15q-264 -18 -287 -170q-12 -90 49 -162q66 -70 152 -80t160 56q30 29 104 127zM649 510h434q-39 315 -196 328q-104 10 -172 -117q-52 -92 -66 -211zM1171 136q0 -52 -94 -114t-188 -57q-154 10 -242 166v-27q2 -12 2 -28
q0 -76 -47 -76q-53 0 -41 102q-78 -72 -121 -96q-66 -41 -143 -37q-121 4 -207 93t-86 220t127 205q103 57 237 61t191 -28v135q0 66 -53 124q-54 59 -112 59t-145 -35t-97 -35q-41 0 -41 43t110 76t168 33q170 -4 240 -181q96 170 260 185q145 12 223 -176q58 -138 62 -322
l-527 2q8 -127 60 -231q68 -137 182 -142q61 -2 148 66t91 67q43 0 43 -52zM883 1196q55 0 55 -43t-51 -43l-547 -2q-53 0 -53 44t51 44h545z" />
    <glyph glyph-name="uni01E4" unicode="&#x1e4;" 
d="M1151 283q0 -45 -51 -45h-123q-129 -272 -418 -273q-227 -1 -379 187t-153 432q0 244 114 438q139 225 379 225q209 0 352 -147v28q0 42 1 58q2 31 42 33q43 0 43 -60v-244q0 -18 -13 -36t-30 -19q-39 0 -43 53q-2 86 -88 156q-113 90 -264 90q-209 0 -321 -190
q-93 -158 -93 -366t133 -378t323 -170t317 183h-324q-55 0 -55 45t51 45h379q29 66 41 123l-303 -2q-53 0 -54 40q0 43 54 43l323 3q41 1 50 -19t10 -65q-2 -20 -37 -123h82q55 0 55 -45z" />
    <glyph glyph-name="uni01E5" unicode="&#x1e5;" 
d="M593 -221q99 1 215 39t153 116h-746q31 -78 155 -116t223 -39zM211 12h762q-14 80 -164 129q-234 81 -436 4q-139 -47 -162 -133zM797 636q1 79 -63 141q-64 63 -143 63t-143 -62t-65 -143q0 -82 61 -143q66 -60 147 -60t143 62t63 142zM1094 -66h-25q-25 -121 -195 -192
q-135 -55 -283 -55t-288 55q-172 70 -197 192h-20q-39 0 -39 39t39 39h23q18 88 141 162l293 178q-106 18 -175 98t-69 192t84 195q83 83 197 83t182 -56q16 12 119 74q29 16 51 -16t-8 -52q-53 -33 -101 -61q57 -69 57 -181t-85 -198q-29 -29 -277 -172q61 4 74 4
q147 0 282 -57q170 -72 195 -193h25q37 0 37 -39t-37 -39z" />
    <glyph glyph-name="Gcaron" unicode="&#x1e6;" 
d="M610 -35q-228 -1 -380 187t-152 432t115 438q139 225 378 225q207 0 353 -147v28q0 42 1 58q2 31 42 33q43 0 43 -60v-244q0 -18 -14 -36t-29 -19q-43 0 -43 53q-2 86 -88 156q-115 90 -265 90q-211 0 -321 -190q-92 -158 -92 -366t133 -378t319 -170q154 0 264 117
t148 279l-303 -2q-53 -1 -53 41t53 42l323 3q43 0 52 -25q8 -14 8 -59q-6 -43 -49 -156q-129 -330 -443 -330zM309 1561q0 45 43 45q20 0 129 -86l123 -105l121 98q117 92 131 93q43 0 43 -45q-2 -20 -27 -41l-268 -211q-135 98 -289 229q-6 18 -6 23z" />
    <glyph glyph-name="gcaron" unicode="&#x1e7;" 
d="M975 -6q0 88 -154 143q-250 88 -465 2q-150 -57 -150 -158t150 -159q115 -43 237 -43t238 47q144 57 144 168zM797 636q1 79 -63 141q-64 63 -143 63t-143 -62t-65 -143q0 -82 61 -143q66 -60 147 -60t143 62t63 142zM1073 -29q0 -141 -178 -221q-139 -63 -304 -63
t-306 63q-180 82 -181 223q0 111 146 201l293 178q-104 18 -174 100t-70 192t85 193q84 83 198 83t180 -56q16 12 119 74q29 16 51 -16t-8 -52q-29 -20 -101 -61q57 -69 57 -181t-85 -198q-29 -29 -277 -172q61 4 74 4q156 0 303 -65q178 -85 178 -226zM905 1296
q0 -20 -26 -41l-269 -217q-106 82 -196 154t-101 100q0 45 47 45q37 0 250 -194q20 20 128 106t124 90q43 0 43 -43z" />
    <glyph glyph-name="uni01E8" unicode="&#x1e8;" 
d="M991 0h-162q-98 281 -151 379q-115 201 -293 264l-172 -158v-448q0 -43 -43 -43t-43 43v1147q0 43 43 43t43 -43v-584l580 543l63 65q29 23 88 23t60 -41q0 -49 -91 -49l-458 -432q174 -76 278 -260q41 -66 154 -359l84 4q57 0 80 -47q-4 -47 -60 -47zM301 1606
q23 0 129 -86l123 -105l123 98q115 92 129 93q43 0 43 -45q-4 -23 -27 -41l-268 -211q-135 98 -289 229l-6 23q0 45 43 45z" />
    <glyph glyph-name="uni01E9" unicode="&#x1e9;" 
d="M1090 44q0 -38 -43 -44q-5 -2 -61 -2t-140 92l-359 389l-100 -84l2 -358q0 -43 -41 -43t-41 43v1235q0 43 40 43t40 -41v-766l361 313l45 58q29 37 65 34l57 -2q57 -2 58 -43q-4 -37 -35 -45q-8 -2 -61 -2l-328 -291l416 -440h73q52 -8 52 -46zM1077 1296q0 -20 -26 -41
l-269 -217q-106 82 -196 154t-101 100q0 45 47 45q37 0 250 -194q20 20 128 106t124 90q43 0 43 -43z" />
    <glyph glyph-name="uni01EA" unicode="&#x1ea;" 
d="M1008 603q0 206 -103 364q-119 184 -315 184t-314 -186q-104 -162 -104 -365q0 -204 112 -376t304 -172t313 184q107 161 107 367zM1094 600q0 -172 -80 -340t-223 -246l-80 -30q-92 -41 -93 -154q0 -66 38 -110t98 -44t98 50q41 47 49 47q45 0 45 -51q0 -52 -66 -96
t-128 -44q-96 0 -158 67t-62 159t50 159q-227 2 -371 211q-125 182 -125 425t127 425q143 205 375 205t375 -209q131 -186 131 -424z" />
    <glyph glyph-name="uni01EB" unicode="&#x1eb;" 
d="M592 51q168 -1 282 113t115 275q0 161 -120 278q-119 117 -279 117t-279 -117t-119 -278t116 -275t284 -113zM1073 446q0 -147 -77 -268t-210 -174l-65 -22q-102 -37 -103 -156q0 -62 38 -106t98 -44t98 50q41 47 49 47q45 0 45 -51q0 -52 -66 -96t-128 -44
q-96 0 -158 67t-62 157t48 159q-197 5 -336 147q-140 142 -140 338t144 334t342 138q197 0 340 -138t143 -338z" />
    <glyph glyph-name="uni01EC" unicode="&#x1ec;" 
d="M854 1450q57 0 57 -46t-61 -46h-524q-59 0 -60 47q0 45 58 45h530zM1008 603q0 206 -103 364q-119 184 -315 184t-314 -186q-104 -162 -104 -365q0 -204 112 -376t304 -172t313 184q107 161 107 367zM1094 600q0 -172 -80 -340t-223 -246l-80 -30q-92 -41 -93 -154
q0 -66 38 -110t98 -44t98 50q41 47 49 47q45 0 45 -51q0 -52 -66 -96t-128 -44q-96 0 -158 67t-62 159t50 159q-227 2 -371 211q-125 182 -125 425t127 425q143 205 375 205t375 -209q131 -186 131 -424z" />
    <glyph glyph-name="uni01ED" unicode="&#x1ed;" 
d="M860 1196q55 0 55 -44t-51 -44h-547q-53 0 -53 44t51 44h545zM592 51q168 -1 282 113t115 275q0 161 -120 278q-119 117 -279 117t-279 -117t-119 -278t116 -275t284 -113zM1073 446q0 -147 -77 -268t-210 -174l-65 -22q-102 -37 -103 -156q0 -62 38 -106t98 -44t98 50
q41 47 49 47q45 0 45 -51q0 -52 -66 -96t-128 -44q-96 0 -158 67t-62 157t48 159q-197 5 -336 147q-140 142 -140 338t144 334t342 138q197 0 340 -138t143 -338z" />
    <glyph glyph-name="uni01EE" unicode="&#x1ee;" 
d="M997 362q0 -164 -127 -280q-129 -115 -290 -113q-102 0 -220 47q-176 74 -176 131q0 43 39 43l58 -34q320 -191 532 -17q100 86 100 219q0 134 -110 226t-250 92q-53 0 -57 37q-2 43 36 45l351 356l-641 4q-61 0 -62 51q0 49 62 50h719q27 0 27 -37t-30 -84l-329 -344
l131 -47q237 -112 237 -345zM344 1606q20 0 129 -86l123 -105l123 98q113 92 129 93q43 0 43 -45q-4 -23 -27 -41l-268 -211q-135 98 -289 229l-6 23q0 45 43 45z" />
    <glyph glyph-name="uni01EF" unicode="&#x1ef;" 
d="M997 45q0 -164 -127 -278q-127 -119 -290 -115q-102 0 -220 47q-176 74 -176 131q0 43 39 43l58 -35q167 -100 300 -100q132 0 232 84t100 218t-110 226t-250 92q-53 0 -57 37q-2 43 36 45l351 357l-641 4q-61 0 -62 51q0 49 62 49h719q27 0 27 -37t-30 -84l-329 -344
l131 -47q237 -111 237 -344zM891 1296q0 -20 -27 -41l-268 -217q-106 82 -196 154t-101 100q0 45 47 45q37 0 250 -194q20 20 128 106t124 90q43 0 43 -43z" />
    <glyph glyph-name="uni01F0" unicode="&#x1f0;" 
d="M707 899v-958q1 -150 -93 -243t-243 -93h-66q-59 0 -59 46t57 44l66 -4q104 -5 176 69t71 179v868l-190 2q-57 0 -57 45t59 45h279zM932 1296q0 -20 -27 -41l-268 -217q-107 82 -197 154t-100 100q0 45 47 45q37 0 250 -194q20 20 128 106t124 90q43 0 43 -43z" />
    <glyph glyph-name="uni01F1" unicode="&#x1f1;" 
d="M307 1130h-164l-2 -1038h82q20 -2 84 -2q205 0 213 518q4 152 -18 260q-47 262 -195 262zM604 608q0 -209 -47 -362q-78 -246 -258 -246h-182q-31 0 -49 8q-14 27 -15 39v1131q0 41 62 41h182q307 -1 307 -611zM1124 44q0 -44 -61 -44h-440q-31 0 -31 37q0 16 15 49
t16 37l313 997l-277 -2q-61 0 -61 50t61 51h359q27 0 26 -37q0 -12 -13 -47t-15 -37l-309 -1008l356 -2q61 0 61 -44z" />
    <glyph glyph-name="uni01F2" unicode="&#x1f2;" 
d="M289 1130h-164l-2 -1038h84q18 -2 82 -2q205 0 213 518q4 152 -19 260q-47 262 -194 262zM588 608q0 -209 -47 -362q-78 -246 -260 -246h-183q-31 0 -49 8q-14 27 -14 39v1131q0 41 61 41h183q309 -1 309 -611zM1081 88q62 0 62 -44t-62 -44h-452q-38 0 2 82l311 731
h-297q-59 0 -59 45t61 45h408q18 0 18 -24q0 -10 -18 -54l-314 -737h340z" />
    <glyph glyph-name="uni01F3" unicode="&#x1f3;" 
d="M461 451q0 156 -51 262t-118 106t-118 -105t-51 -261t49 -260q53 -103 121 -103t118 102t50 259zM547 1255v-1200q0 -61 -43 -61t-45 88v8q-71 -125 -177 -125q-106 1 -182 149t-76 341t76 341t182 148t179 -129v440q0 59 43 60q43 -1 43 -60zM1081 88q62 0 62 -44
t-62 -44h-452q-38 0 2 82l311 731h-297q-59 0 -59 45t61 45h408q18 0 18 -24q0 -10 -18 -54l-314 -737h340z" />
    <glyph glyph-name="uni01F4" unicode="&#x1f4;" 
d="M610 -35q-228 -1 -380 187t-152 432t115 438q139 225 378 225q207 0 353 -147v28q0 42 1 58q2 31 42 33q43 0 43 -60v-244q0 -18 -14 -36t-29 -19q-43 0 -43 53q-2 86 -88 156q-115 90 -265 90q-211 0 -321 -190q-92 -158 -92 -366t133 -378t319 -170q154 0 264 117
t148 279l-303 -2q-53 -1 -53 41t53 42l323 3q43 0 52 -25q8 -14 8 -59q-6 -43 -49 -156q-129 -330 -443 -330zM821 1528q0 -12 -6 -21q-294 -250 -308 -250q-13 1 -29 19t-15 34t151 141q150 126 161 126t29 -18q17 -19 17 -31z" />
    <glyph glyph-name="uni01F5" unicode="&#x1f5;" 
d="M946 1341q0 -18 -16 -34l-281 -234q-16 -10 -28 -10q-47 0 -48 45q0 18 19 35l280 233q14 10 29 10q45 0 45 -45zM975 -6q0 88 -154 143q-250 88 -465 2q-150 -57 -150 -158t150 -159q115 -43 237 -43t238 47q144 57 144 168zM797 636q1 79 -63 141q-64 63 -143 63
t-143 -62t-65 -143q0 -82 61 -143q66 -60 147 -60t143 62t63 142zM1073 -29q0 -141 -178 -221q-139 -63 -304 -63t-306 63q-180 82 -181 223q0 111 146 201l293 178q-104 18 -174 100t-70 192t85 193q84 83 198 83t180 -56q16 12 119 74q29 16 51 -16t-8 -52
q-29 -20 -101 -61q57 -69 57 -181t-85 -198q-29 -29 -277 -172q61 4 74 4q156 0 303 -65q178 -85 178 -226z" />
    <glyph glyph-name="uni01F6" unicode="&#x1f6;" 
d="M1120 874v-624q0 -119 -79 -198t-209 -88t-210 118q-82 127 -81 293v207h-394v-545q0 -43 -44 -43t-44 43v1147q0 43 45 45q20 2 32 -10t11 -35v-512h394v512q0 45 45 45t45 -45v-809q0 -129 54 -231q55 -102 149 -90t147 64t53 132v624q0 41 43 41t43 -41z" />
    <glyph glyph-name="uni01F7" unicode="&#x1f7;" 
d="M694 1120q-154 0 -266 -105t-111 -259v-500q530 473 531 688q0 176 -154 176zM692 1204q258 0 258 -260q0 -242 -635 -778v-125q0 -41 -44 -41t-44 43v1112q0 43 46 43q45 0 47 -72t-1 -108q144 186 373 186z" />
    <glyph glyph-name="uni01F8" unicode="&#x1f8;" 
d="M1008 1184v-1147q0 -31 -46 -32t-67 32l-639 1046v-1046q0 -43 -43 -43t-43 43v1147q0 49 53 49q43 0 58 -27l637 -1036v1014q0 43 45 43t45 -43zM639 1317q0 -17 -15 -35t-30 -18q-6 6 -14 6l-164 129q-137 113 -137 129t17 36t34 21h4q2 -2 6 -2l162 -135
q137 -113 137 -131z" />
    <glyph glyph-name="uni01F9" unicode="&#x1f9;" 
d="M967 633v-596q0 -43 -44 -43t-44 43v584q0 100 -73 158q-73 59 -176 59t-186 -64q-27 -20 -143 -143v-594q0 -43 -43 -43t-43 43l-2 837q0 41 42 41t48 -61v-92q88 88 162 125t172 37t176 -41q55 -31 105 -110t49 -140zM696 1108q0 -45 -45 -45q-14 0 -30 10l-281 234
q-16 16 -16 34q0 45 45 45q14 0 30 -10l281 -233q16 -17 16 -35z" />
    <glyph glyph-name="Aringacute" unicode="&#x1fa;" 
d="M336 494h508l-240 624h-33zM690 1471q0 47 -39 83t-87 37t-80 -33t-31 -85q0 -129 118 -123q49 0 84 37t35 84zM106 -27q-42 0 -40 21q0 4 452 1214q14 37 70 37t71 -39l449 -1204q2 -2 3 -10t-8 -12t-43 -4t-42 26l-146 401h-567l-149 -403q-8 -27 -50 -27zM739 1471
q0 -79 -47 -131t-127 -52t-129 52t-49 130t55 129q55 55 126 55t121 -51q50 -52 50 -132zM688 1843q0 -12 -6 -20q-260 -209 -264 -209q-14 0 -31 18q-16 18 -16 34t130 120q130 106 142 106t29 -18q16 -19 16 -31z" />
    <glyph glyph-name="aringacute" unicode="&#x1fb;" 
d="M664 1104q48 0 80 38t32 85t-37 83t-80 36q-117 0 -116 -121q0 -121 121 -121zM481 1225q1 76 55 131t127 55t122 -58t49 -132t-50 -128q-50 -55 -126 -55q-75 0 -126 56t-51 131zM479 1380q-14 0 -28 18q-15 18 -15 34q0 18 150 143t162 125t31 -21q18 -21 18 -39
l-9 -14q-307 -246 -309 -246zM636 467q-130 0 -235 -51q-137 -62 -137 -166t71 -150t171 -47q204 -1 409 189v190q-149 35 -279 35zM999 662v-625q1 -43 -37 -43t-44 51q-2 27 -3 78q-201 -158 -403 -158q-139 0 -236 71q-98 71 -98 199t115 221t391 93q80 0 231 -33v143
q0 90 -92 140q-72 39 -165 39q-92 0 -204 -36t-127 -36t-30 12q-12 25 -12 37t8 27q19 26 167 52t202 26q133 -2 235 -68t102 -190z" />
    <glyph glyph-name="AEacute" unicode="&#x1fc;" 
d="M559 494v624h-108l-170 -624h278zM1092 0h-476q-57 0 -57 47v359h-301l-106 -388q-8 -26 -50 -26t-43 22q0 -20 108 393t210 801l713 -2q23 0 28 -43q0 -45 -26 -45h-447v-446h258q29 0 23 -45q0 -43 -23 -43h-258v-494l445 -2q22 0 28 -43q0 -45 -26 -45zM920 1577
q12 -1 28 -19q17 -18 17 -30t-7 -21l-157 -133q-137 -117 -151 -117q-14 1 -28 19q-15 18 -16 35q0 14 151 140t163 126z" />
    <glyph glyph-name="aeacute" unicode="&#x1fd;" 
d="M946 1341q0 -18 -16 -34l-281 -234q-16 -10 -28 -10q-47 0 -48 45q0 18 19 35l280 233q14 10 29 10q45 0 45 -45zM559 238l-2 198q-3 0 -71 16t-105 15q-264 -18 -287 -170q-16 -90 49 -162q66 -70 152 -80t160 56q30 29 104 127zM649 510h434q-39 315 -196 328
q-104 10 -172 -117q-52 -92 -66 -211zM1171 136q0 -52 -94 -114t-188 -57q-154 10 -242 166v-27q2 -12 2 -28q0 -76 -47 -76q-53 0 -41 102q-78 -72 -121 -96q-66 -41 -143 -37q-121 4 -207 93t-86 218t127 207q103 57 237 61t191 -28v135q0 66 -53 124q-54 59 -112 59
t-145 -35t-97 -35q-41 0 -41 43t110 76t168 33q170 -4 240 -181q96 170 260 185q145 12 223 -176q58 -138 62 -322l-527 2q8 -127 60 -231q68 -137 182 -142q61 -2 148 66t91 67q43 0 43 -52z" />
    <glyph glyph-name="Oslashacute" unicode="&#x1fe;" 
d="M1010 605q0 206 -105 349l-588 -780q121 -123 275 -123q188 0 309 185q109 163 109 369zM586 1147q-193 0 -314 -184q-104 -160 -104 -365t104 -348l580 778q-117 119 -266 119zM1075 1294q37 0 37 -43q-4 -29 -151 -221q129 -174 129 -430q-4 -281 -155 -459t-340 -175
t-321 138l-79 -108q-57 -74 -89 -84q-38 0 -38 40t153 222q-135 184 -137 427t129 425q145 209 379 207q178 0 311 -135q45 70 150 192q16 4 22 4zM759 1577q11 -1 29 -19t17 -30q0 -12 -6 -21q-294 -250 -308 -250q-13 1 -29 19t-16 35q0 14 151 140t162 126z" />
    <glyph glyph-name="oslashacute" unicode="&#x1ff;" 
d="M570 840q-144 0 -258 -114t-114 -264t93 -272l534 570q-111 80 -255 80zM609 61q157 0 265 108q108 109 107 267q0 158 -92 273l-535 -574q98 -74 255 -74zM1065 435q0 -196 -142 -333t-335 -135q-160 0 -291 101l-45 -54q-96 -106 -119 -106q-45 0 -41 47q0 23 144 166
q-123 145 -122 334t141 329q139 140 321 138q182 0 307 -101q132 154 161 154t43 -45q-6 -10 -145 -166q123 -133 123 -329zM774 1341q0 -18 -16 -34l-281 -234q-16 -10 -28 -10q-45 0 -46 45q0 18 17 35l280 233q16 10 29 10q45 0 45 -45z" />
    <glyph glyph-name="uni0200" unicode="&#x200;" 
d="M336 494h508l-240 624h-33zM106 -27q-42 0 -40 21q0 4 452 1214q14 37 70 37t71 -39l449 -1204q2 -2 3 -10t-8 -12t-43 -4t-42 26l-146 401h-567l-149 -403q-8 -27 -50 -27zM469 1308q0 -18 -13 -34t-30 -17q-2 0 -309 246q-6 5 -6 19t18 34t33 21q6 0 156 -126t151 -143
zM766 1308q0 -18 -14 -34t-33 -17q-10 0 -162 125q-151 126 -151 140t17 34t29 20t164 -125q150 -126 150 -143z" />
    <glyph glyph-name="uni0201" unicode="&#x201;" 
d="M541 1108q0 -45 -45 -45q-14 0 -29 10l-281 234q-16 16 -16 34q0 45 45 45q12 0 29 -10l280 -233q17 -17 17 -35zM834 1108q0 -45 -46 -45q-14 0 -28 10l-281 234q-16 16 -16 34q0 45 45 45q12 0 29 -10l280 -233q17 -17 17 -35zM636 467q-130 0 -235 -51
q-137 -62 -137 -166t71 -150t171 -47q204 -1 409 189v190q-149 35 -279 35zM999 662v-625q1 -43 -37 -43t-44 51q-2 27 -3 78q-201 -158 -403 -158q-139 0 -236 71q-98 71 -98 199t115 221t391 93q80 0 231 -33v143q0 90 -92 140q-72 39 -165 39q-92 0 -204 -36t-127 -36
t-30 12q-12 25 -12 37t8 27q19 26 167 52t202 26q133 -2 235 -68t102 -190z" />
    <glyph glyph-name="uni0202" unicode="&#x202;" 
d="M336 494h508l-240 624h-33zM106 -27q-42 0 -40 21q0 4 452 1214q14 37 70 37t71 -39l449 -1204q2 -2 3 -10t-8 -12t-43 -4t-42 26l-146 401h-567l-149 -403q-8 -27 -50 -27zM612 1497q-88 0 -149 -62t-62 -155h-77q0 127 82 211t204 84t202 -84q81 -84 81 -213l-72 2
q0 92 -61 154q-60 62 -148 63z" />
    <glyph glyph-name="uni0203" unicode="&#x203;" 
d="M420 1004h-78q0 126 83 210t204 84t201 -84t81 -213l-71 3q0 92 -62 154t-148 62t-148 -62t-62 -154zM636 467q-130 0 -235 -51q-137 -62 -137 -166t71 -150t171 -47q204 -1 409 189v190q-149 35 -279 35zM999 662v-625q1 -43 -37 -43t-44 51q-2 27 -3 78
q-201 -158 -403 -158q-139 0 -236 71q-98 71 -98 199t115 221t391 93q80 0 231 -33v143q0 90 -92 140q-72 39 -165 39q-92 0 -204 -36t-127 -36t-30 12q-12 25 -12 37t8 27q19 26 167 52t202 26q133 -2 235 -68t102 -190z" />
    <glyph glyph-name="uni0204" unicode="&#x204;" 
d="M1047 44q0 -44 -27 -44h-741q-53 0 -54 47v1116q0 43 51 43h744q27 0 27 -44t-27 -44h-709v-446h398q23 0 28 -45q0 -45 -26 -45h-400v-492l709 -2q27 0 27 -44zM492 1308q0 -14 -14 -32t-29 -19q-2 0 -310 246q-6 5 -6 19q-1 14 17 34t34 21q4 0 156 -127t152 -142z
M788 1309q0 -15 -15 -33t-29 -18t-166 123q-150 125 -150 141t16 36t30 19q14 0 164 -126t150 -142z" />
    <glyph glyph-name="uni0205" unicode="&#x205;" 
d="M571 846q-148 0 -251 -90t-130 -240h723q-16 109 -22 127q-18 68 -66 109q-106 94 -254 94zM1028 233q43 0 43 -41t-102 -112q-170 -115 -372 -115q-202 -1 -346 145q-145 146 -145 351t134 336t336 134t329 -138q92 -104 94 -361h-811q23 -174 135 -275
q113 -101 279 -101t291 63q25 12 72 65q49 49 63 49zM541 1108q0 -45 -45 -45q-14 0 -29 10l-281 234q-16 16 -16 34q0 45 45 45q12 0 29 -10l280 -233q17 -17 17 -35zM834 1108q0 -45 -46 -45q-14 0 -28 10l-281 234q-16 16 -16 34q0 45 45 45q12 0 29 -10l280 -233
q17 -17 17 -35z" />
    <glyph glyph-name="uni0206" unicode="&#x206;" 
d="M999 44q0 -44 -26 -44h-742q-53 0 -53 47v1116q0 43 51 43h744q27 0 27 -44t-27 -44h-709v-446h398q23 0 28 -45q0 -45 -26 -45h-400v-492l709 -2q26 0 26 -44zM587 1497q-87 0 -149 -62t-61 -155h-78q0 127 82 211t204 84q123 0 203 -84t80 -213l-71 2q1 92 -61 154
t-149 63z" />
    <glyph glyph-name="uni0207" unicode="&#x207;" 
d="M571 846q-148 0 -251 -90t-130 -240h723q-16 109 -22 127q-18 68 -66 109q-106 94 -254 94zM1028 233q43 0 43 -41t-102 -112q-170 -115 -372 -115q-202 -1 -346 145q-145 146 -145 351t134 336t336 134t329 -138q92 -104 94 -361h-811q23 -174 135 -275
q113 -101 279 -101t291 63q25 12 72 65q49 49 63 49zM369 1004h-78q0 127 82 208q81 86 203 86t203 -84t81 -213l-72 3q0 92 -61 154t-148 62t-149 -62t-61 -154z" />
    <glyph glyph-name="uni0208" unicode="&#x208;" 
d="M979 90q57 0 57 -45t-57 -45h-651q-55 0 -56 49q0 41 56 41h284v1028l-284 -2q-55 0 -56 49q0 41 56 41h653q55 0 55 -41q0 -47 -57 -47h-277v-1028h277zM502 1308q0 -14 -14 -32t-29 -19q-2 0 -309 246q-19 19 4 46q24 27 41 28q3 0 155 -127t152 -142zM799 1309
q1 -15 -15 -33t-31 -18t-165 123q-150 125 -150 141t16 36t30 19q13 0 164 -126t151 -142z" />
    <glyph glyph-name="uni0209" unicode="&#x209;" 
d="M1032 47q0 -45 -57 -45h-735q-57 0 -58 49q0 35 58 35h325v721h-262q-57 0 -57 46t57 46h346v-813h328q55 0 55 -39zM541 1108q0 -45 -45 -45q-14 0 -29 10l-281 234q-16 16 -16 34q0 45 45 45q12 0 29 -10l280 -233q17 -17 17 -35zM834 1108q0 -45 -46 -45q-14 0 -28 10
l-281 234q-16 16 -16 34q0 45 45 45q12 0 29 -10l280 -233q17 -17 17 -35z" />
    <glyph glyph-name="uni020A" unicode="&#x20a;" 
d="M913 90q58 0 58 -45t-58 -45h-651q-55 0 -55 49q0 41 55 41h285v1028l-285 -2q-55 0 -55 49q0 41 55 41h653q55 0 56 -41q0 -47 -58 -47h-276v-1028h276zM579 1497q-87 0 -149 -62t-61 -155h-78q0 127 82 211q81 84 203 84t203 -84t81 -213l-72 2q0 92 -61 154t-148 63z
" />
    <glyph glyph-name="uni020B" unicode="&#x20b;" 
d="M1014 47q0 -45 -58 -45h-735q-57 0 -57 49q0 35 57 35h326v721h-262q-57 0 -58 47q0 45 58 45h346v-813h327q56 0 56 -39zM367 1004h-78q0 126 83 210q84 84 204 84t201 -84t81 -213l-72 3q0 92 -61 154t-148 62t-149 -62t-61 -154z" />
    <glyph glyph-name="uni020C" unicode="&#x20c;" 
d="M592 1151q-194 0 -316 -184q-109 -164 -104 -367q0 -240 126 -394t304 -155q178 0 291 172t114 379t-102 365q-119 184 -313 184zM1094 596q0 -242 -127 -424q-143 -205 -377 -205t-377 209q-127 186 -127 428t125 422q145 207 377 207t375 -209q131 -186 131 -428z
M481 1308q0 -14 -14 -32t-29 -19q-2 0 -309 246q-6 5 -6 19t17 34t34 21q4 0 156 -127t151 -142zM778 1309q0 -15 -15 -33t-31 -18t-165 123q-149 125 -149 141t16 36t30 19q14 0 164 -126t150 -142z" />
    <glyph glyph-name="uni020D" unicode="&#x20d;" 
d="M592 51q168 -1 282 113t115 275q0 161 -119 278q-120 117 -280 117t-279 -117t-119 -278t116 -275t284 -113zM1073 443q0 -202 -138 -340t-340 -138t-347 141q-144 140 -144 340t144 338t342 138q197 0 340 -138t143 -341zM541 1108q0 -45 -45 -45q-14 0 -29 10l-281 234
q-16 16 -16 34q0 45 45 45q12 0 29 -10l280 -233q17 -17 17 -35zM834 1108q0 -45 -46 -45q-14 0 -28 10l-281 234q-16 16 -16 34q0 45 45 45q12 0 29 -10l280 -233q17 -17 17 -35z" />
    <glyph glyph-name="uni020E" unicode="&#x20e;" 
d="M592 1151q-194 0 -316 -184q-109 -164 -104 -367q0 -240 126 -394t304 -155q178 0 291 172t114 379t-102 365q-119 184 -313 184zM1094 596q0 -242 -127 -424q-143 -205 -377 -205t-377 209q-127 186 -127 428t125 422q145 207 377 207t375 -209q131 -186 131 -428z
M623 1497q-89 0 -149 -61t-60 -156h-78q0 127 82 211t202 84t202 -83t83 -214l-71 2q0 92 -62 154t-149 63z" />
    <glyph glyph-name="uni020F" unicode="&#x20f;" 
d="M592 51q168 -1 282 113t115 275q0 161 -119 278q-120 117 -280 117t-279 -117t-119 -278t116 -275t284 -113zM1073 443q0 -202 -138 -340t-340 -138t-347 141q-144 140 -144 340t144 338t342 138q197 0 340 -138t143 -341zM319 1004q0 127 82 208q82 86 204 86t203 -84
t81 -213l-72 3q0 92 -61 154q-60 62 -148 62t-149 -62t-62 -154h-78z" />
    <glyph glyph-name="uni0210" unicode="&#x210;" 
d="M1114 47q0 -51 -94 -51q-4 0 -78 6q-117 209 -188 303q-121 160 -267 232h-159q-43 0 -41 45q0 45 41 45h123q127 0 241 61q139 74 139 184t-96 178t-205 68h-319v-1081q0 -43 -43 -43t-43 43v1126q0 43 57 43h355q143 0 262 -96t119 -236q0 -211 -297 -311
q104 -74 208 -217q47 -68 160 -260q12 0 23 2h24q78 0 78 -41zM424 1308q0 -14 -14 -32t-29 -19q-2 0 -309 246q-6 5 -6 19t17 34t34 21q3 0 155 -127t152 -142zM721 1309q0 -15 -15 -33q-14 -18 -30 -18t-166 123q-150 125 -150 141t16 36t30 19q14 0 164 -126t151 -142z
" />
    <glyph glyph-name="uni0211" unicode="&#x211;" 
d="M797 915q55 0 133 -43t78 -89t-43 -46q-2 0 -19 4q-90 88 -145 88q-80 0 -219 -102q-41 -29 -193 -166v-524q0 -43 -41 -43t-41 43l-2 837q0 41 42 41t42 -41l2 -196q127 111 187 153q125 84 219 84zM541 1108q0 -45 -45 -45q-14 0 -29 10l-281 234q-16 16 -16 34
q0 45 45 45q12 0 29 -10l280 -233q17 -17 17 -35zM834 1108q0 -45 -46 -45q-14 0 -28 10l-281 234q-16 16 -16 34q0 45 45 45q12 0 29 -10l280 -233q17 -17 17 -35z" />
    <glyph glyph-name="uni0212" unicode="&#x212;" 
d="M1083 47q0 -51 -94 -51q-4 0 -78 6q-117 209 -188 303q-117 158 -266 232h-160q-43 0 -41 45t41 45h123q129 -1 255 67t126 180q1 112 -95 178t-206 66h-320v-1081q0 -43 -43 -43t-43 43v1126q0 43 58 43h354q141 0 258 -92q123 -102 123 -240q0 -211 -297 -311
q109 -76 209 -217q47 -68 159 -260q14 0 25 2h23q77 0 77 -41zM536 1497q-86 0 -148 -62t-62 -155h-78q0 127 83 211t203 84t202 -84q81 -84 81 -213l-72 2q0 92 -61 154t-148 63z" />
    <glyph glyph-name="uni0213" unicode="&#x213;" 
d="M729 915q55 0 133 -43t78 -89t-43 -46q-2 0 -18 4q-90 88 -146 88q-80 0 -219 -102q-41 -29 -192 -166v-524q0 -43 -41 -43t-41 43l-2 837q0 41 42 41t42 -41l2 -196q127 111 186 153q125 84 219 84zM342 1004h-78q0 126 83 210t204 84t202 -84t81 -213l-72 3
q0 92 -62 154t-148 62t-148 -62t-62 -154z" />
    <glyph glyph-name="uni0214" unicode="&#x214;" 
d="M1044 1184v-789q0 -180 -118 -305t-299 -125q-180 0 -301 123q-119 125 -119 307v791q0 41 44 41t44 -43l-2 -789q0 -141 94 -241q93 -100 235 -100t237 100q95 102 95 241v789q0 43 45 43t45 -43zM492 1309q0 -15 -14 -33t-29 -19q-2 0 -310 246q-6 5 -6 19q-1 14 17 34
t34 21q6 0 157 -126t151 -142zM428 1520q0 18 16 38t30 19q14 0 164 -126t150 -143q0 -18 -14 -34t-30 -16t-166 124q-150 125 -150 138z" />
    <glyph glyph-name="uni0215" unicode="&#x215;" 
d="M983 874v-837q0 -43 -42 -43t-44 51q0 2 2 20t2 58q-182 -158 -387 -158q-127 0 -203 80t-75 205v624q0 41 43 41t43 -41v-624q0 -86 52 -140t138 -55q211 0 387 195v624q0 41 42 41t42 -41zM541 1108q0 -45 -45 -45q-14 0 -29 10l-281 234q-16 16 -16 34q0 45 45 45
q12 0 29 -10l280 -233q17 -17 17 -35zM834 1108q0 -45 -46 -45q-14 0 -28 10l-281 234q-16 16 -16 34q0 45 45 45q12 0 29 -10l280 -233q17 -17 17 -35z" />
    <glyph glyph-name="uni0216" unicode="&#x216;" 
d="M1008 1184v-789q0 -180 -119 -305t-299 -125t-301 123q-119 125 -119 307v791q0 41 44 41t44 -43l-2 -789q0 -141 94 -241t236 -100t236 100q95 102 96 241v789q0 43 45 43t45 -43zM597 1497q-87 0 -148 -62t-62 -155h-78q0 127 83 211t204 84t202 -84t81 -213l-72 2
q1 92 -61 154t-149 63z" />
    <glyph glyph-name="uni0217" unicode="&#x217;" 
d="M963 874v-837q0 -43 -40 -43t-46 51q0 2 2 20t2 58q-182 -158 -387 -158q-123 0 -201 80t-78 205v624q0 41 43 41t43 -41v-624q0 -86 52 -140t139 -55q211 0 387 195v624q0 41 42 41t42 -41zM365 1004h-78q0 127 82 208q81 86 203 86t203 -84t81 -213l-72 3q0 92 -61 154
t-149 62t-148 -62q-61 -62 -61 -154z" />
    <glyph glyph-name="uni0218" unicode="&#x218;" 
d="M475 -150q0 92 94 93q59 0 92 -44q33 -43 33 -105t-58 -139t-118 -97l-14 28q127 92 127 172q0 23 -21 23l-41 -8q-94 0 -94 77zM1020 328q0 -172 -126 -268t-295 -95q-169 0 -304 92t-135 246q0 61 41 62q16 -1 23 -15q8 -14 24 -86t86 -129q88 -78 240 -81t258 73
t106 210t-125 195q-57 27 -243 61q-371 68 -367 329q1 152 113 244t258 91q146 0 273 -89q126 -89 126 -220q0 -59 -39 -59q-25 0 -33 14l-16 74q-16 66 -82 123q-90 72 -212 72t-213 -68t-91 -186q0 -47 22 -93q49 -92 189 -129q172 -33 258 -51q150 -39 215 -143
q49 -78 49 -174z" />
    <glyph glyph-name="uni0219" unicode="&#x219;" 
d="M502 -150q0 92 94 93q59 0 92 -44q33 -43 33 -105t-59 -139t-117 -97l-15 28q127 92 127 172q0 23 -20 23l-41 -8q-94 0 -94 77zM993 254q0 -147 -135 -223q-108 -63 -264 -63t-268 59q-139 74 -140 213q0 57 43 57q35 1 47 -63t15 -66q31 -53 133 -88q84 -25 186 -25
t185 39q113 51 112 160q0 109 -139 156l-279 53q-172 33 -221 110q-41 63 -41 119q-2 121 121 187q100 53 228 53t237 -55q133 -72 135 -181q0 -61 -45 -61q-25 -1 -41 59q-40 150 -274 152q-88 0 -183 -40t-96 -120q0 -59 74 -106q55 -37 176 -45q137 -14 203 -27
q115 -32 173 -106t58 -148z" />
    <glyph glyph-name="uni021A" unicode="&#x21a;" 
d="M496 -150q0 92 94 93q61 0 96 -47q29 -46 29 -105t-60 -135q-57 -78 -116 -98l-15 28q127 92 127 172q0 23 -20 23l-41 -8q-94 0 -94 77zM1073 1118h-438v-1081q0 -43 -45 -43t-45 43v1081h-441q-26 0 -26 44t26 44h967q23 0 29 -43q0 -45 -27 -45z" />
    <glyph glyph-name="uni021B" unicode="&#x21b;" 
d="M510 -150q0 92 94 93q61 0 96 -47q29 -46 29 -105t-59 -136t-117 -97l-14 28q127 92 127 172q0 23 -21 23l-41 -8q-94 0 -94 77zM911 12q0 -37 -32 -45q-8 -2 -64 -2q-139 0 -234 67t-96 197v576h-159q-59 0 -60 47q0 45 58 45h161l-2 250q-1 14 15 37t28 22q47 0 47 -59
v-250h281q57 0 57 -46t-61 -46h-277v-576q0 -174 279 -174q59 0 59 -43z" />
    <glyph glyph-name="uni021C" unicode="&#x21c;" 
d="M1008 362q0 -164 -127 -278t-291 -115q-70 -1 -174 -65t-129 -166q-4 -23 -34 -23t-40 23q-2 2 8 43q31 121 145 198t234 77t223 83q100 86 101 219q0 94 -65 184t-154 91q-49 0 -89 -36t-53 -36q-12 0 -25 14t-14 28t8 23l17 17t13 14q4 7 18 19t34 32t107 69
q86 48 113 75q49 54 49 152t-82 167q-77 70 -211 70t-246 -94q-78 -63 -88 -156q-4 -53 -43 -53q-18 0 -31 17q-12 17 -12 38v244q0 59 43 59q37 0 43 -45q2 -10 0 -73q145 147 352 147q150 0 250 -94q104 -92 105 -238q0 -211 -193 -286q238 -112 238 -345z" />
    <glyph glyph-name="uni021D" unicode="&#x21d;" 
d="M1008 45q0 -165 -127 -279t-291 -114q-70 0 -174 -65t-129 -167q-2 -20 -34 -20t-40 20q-2 2 8 43q35 121 150 203q109 72 229 72t222 84q101 84 102 219q0 94 -65 184t-154 90q-49 1 -89 -35t-53 -36q-12 0 -25 14q-26 28 -4 51q7 9 15 17t13 14q4 6 18 18t34 34t107 69
q86 47 113 74q49 51 49 151t-82 168q-77 70 -211 70t-246 -95q-78 -63 -88 -155q-4 -53 -43 -53q-18 0 -31 17q-12 17 -12 38v244q0 59 43 59q37 0 43 -45q2 -8 0 -74q145 147 352 148q150 0 250 -95q104 -92 105 -237q0 -211 -193 -287q238 -111 238 -344z" />
    <glyph glyph-name="uni021E" unicode="&#x21e;" 
d="M965 1184v-1147q0 -43 -45 -43t-46 43v545h-573l-2 -545q0 -43 -43 -43t-43 43v1147q0 43 45 45q20 2 32 -10t11 -35v-512h573v512q0 45 46 45t45 -45zM350 1606q23 0 129 -86l123 -105l123 98q115 92 129 93q43 0 43 -45q-4 -23 -27 -41l-268 -211q-135 98 -289 229
l-6 23q0 45 43 45z" />
    <glyph glyph-name="uni021F" unicode="&#x21f;" 
d="M954 637v-600q0 -45 -44 -42t-44 42v596q0 225 -299 225q-59 0 -145 -80q-29 -29 -115 -129v-612q0 -43 -41 -43t-41 43l-2 1237q0 41 42 41t42 -41v-500q143 166 322 166q143 0 234 -83t91 -220zM940 1296q0 -20 -27 -41l-268 -217q-107 82 -197 154t-100 100
q0 45 47 45q37 0 250 -194q20 20 128 106t124 90q43 0 43 -43z" />
    <glyph glyph-name="uni0220" unicode="&#x220;" 
d="M1010 938v-1313q0 -43 -44 -43t-44 43v1313q0 106 -109 166q-90 51 -223 51q-240 0 -332 -217v-901q0 -43 -44 -43t-44 43v1155q0 41 44 41t46 -43v-111q125 160 330 162q162 2 284 -76q136 -84 136 -227z" />
    <glyph glyph-name="uni0221" unicode="&#x221;" 
d="M311 53q197 1 195 396t-193 397q-192 4 -194 -395q-2 -398 192 -398zM786 -84q102 0 188 41t101 100q16 45 -51 45q-31 0 -88 -10q-88 -14 -170 -119q-37 -45 -43 -51q27 -6 63 -6zM1149 51q0 -41 -84 -112q-127 -113 -291 -113q-57 0 -119 22q-55 -59 -143 -163
q-16 -18 -27 -19q-16 0 -16 24t12 38q47 57 115 151q-61 43 -92 199q-76 -98 -201 -113q-147 -18 -217 150q-57 129 -57 333t57 332q74 168 221 152q121 -12 197 -101v443q0 41 46 41t46 -41v-1086q0 -213 51 -239q19 29 71 90t138 102t160 41q133 0 133 -131z" />
    <glyph glyph-name="uni0222" unicode="&#x222;" 
d="M588 635q-150 0 -264 -89t-107 -219t117 -201t256 -71t248 68q117 74 125 205t-111 223q-114 84 -264 84zM589 -35q-181 0 -308 94q-143 102 -146 263q-8 236 211 354q-184 104 -190 293q-4 133 78 231t208 119q41 8 52 -33q4 -16 -6 -32t-21 -17q-98 -16 -164 -91
t-65 -173q0 -123 110 -193q102 -68 240 -68t246 68t108 176t-63 185q-63 76 -158 94q-14 4 -24 19q-9 15 -5 32q8 39 41 33q129 -29 212 -126t75 -218t-80 -201t-186 -100q130 -27 208 -123t80 -229q4 -160 -134 -258t-319 -99z" />
    <glyph glyph-name="uni0223" unicode="&#x223;" 
d="M885 343q0 118 -89 205t-207 87t-206 -84t-88 -205t86 -207q88 -84 207 -84t209 84q88 86 88 204zM965 346q0 -156 -112 -268q-113 -112 -265 -113q-152 0 -264 113q-111 113 -111 268q0 217 211 330q-190 106 -191 293q0 129 82 229t205 121q41 8 51 -33q8 -43 -26 -49
q-98 -16 -164 -91q-66 -74 -66 -178t81 -180t191 -76q109 0 193 76t84 174t-65 177q-66 78 -156 96q-37 10 -29 50t41 34q125 -27 206 -123t81 -225q0 -201 -188 -297q94 -48 152 -138t59 -190z" />
    <glyph glyph-name="uni0224" unicode="&#x224;" 
d="M1036 8q0 -82 -81 -183t-158 -126l-17 41q172 121 172 225q0 21 -9 25t-19 6t-13 4h-739q-31 0 -31 39t31 84l674 997l-637 -2q-61 0 -62 51q0 49 62 50h719q26 0 26 -38t-28 -83l-670 -1008l717 -2q61 0 61 -45q0 -10 -2 -14q4 -13 4 -21z" />
    <glyph glyph-name="uni0225" unicode="&#x225;" 
d="M1028 8q0 -82 -81 -183t-159 -126l-16 41q172 121 172 225q0 35 -41 35h-710q-19 0 -19 30t21 52l618 731h-604q-59 0 -59 46t61 46l715 -2q18 1 18 -27t-18 -51l-621 -735l647 -2q55 0 62 -39q14 -14 14 -41z" />
    <glyph glyph-name="uni0226" unicode="&#x226;" 
d="M336 494h508l-240 624h-33zM106 -27q-42 0 -40 21q0 4 452 1214q14 37 70 37t71 -39l449 -1204q2 -2 3 -10t-8 -12t-43 -4t-42 26l-146 401h-567l-149 -403q-8 -27 -50 -27zM668 1458h2q0 -80 -86 -80q-76 0 -76 84t80 84t80 -88z" />
    <glyph glyph-name="uni0227" unicode="&#x227;" 
d="M506 1182q0 38 24 62t59 24t59 -26t24 -59q0 -32 -26 -57t-58 -24q-82 0 -82 80zM636 467q-130 0 -235 -51q-137 -62 -137 -166t71 -150t171 -47q204 -1 409 189v190q-149 35 -279 35zM999 662v-625q1 -43 -37 -43t-44 51q-2 27 -3 78q-201 -158 -403 -158
q-139 0 -236 71q-98 71 -98 199t115 221t391 93q80 0 231 -33v143q0 90 -92 140q-72 39 -165 39q-92 0 -204 -36t-127 -36t-30 12q-12 25 -12 37t8 27q19 26 167 52t202 26q133 -2 235 -68t102 -190z" />
    <glyph glyph-name="uni0228" unicode="&#x228;" 
d="M745 -293h3q0 -55 -44 -86t-97 -31t-115 23t-62 55q0 16 6 25l25 6q10 -1 59 -23t82 -22q32 0 58 16t26 41q-4 53 -117 53l4 158v35q15 10 27 10t23 -10q23 -53 6 -131q49 -4 83 -37t33 -82zM999 44q0 -44 -26 -44h-742q-53 0 -53 47v1116q0 43 51 43h744q27 0 27 -44
t-27 -44h-709v-446h398q23 0 28 -45q0 -45 -26 -45h-400v-492l709 -2q26 0 26 -44z" />
    <glyph glyph-name="uni0229" unicode="&#x229;" 
d="M571 846q-148 0 -251 -90t-130 -240h723q-16 109 -22 127q-18 68 -66 109q-106 94 -254 94zM1028 233q43 0 43 -41t-102 -112q-168 -115 -359 -115q8 -4 13 -8q23 -53 6 -131q49 -4 83 -37t33 -82h3q0 -55 -44 -86t-97 -31t-115 23t-62 55q0 16 6 25l25 6q10 -1 59 -23
t82 -22q32 0 58 16t26 41q-4 53 -117 53l4 158v35l17 8q-207 7 -345 151q-139 144 -139 347t134 334t336 134t329 -138q92 -104 94 -361h-811q23 -174 135 -275q113 -101 279 -101t291 63q25 12 72 65q49 49 63 49z" />
    <glyph glyph-name="uni022A" unicode="&#x22a;" 
d="M592 1151q-194 0 -316 -184q-109 -164 -104 -367q0 -240 126 -394t304 -155q178 0 291 172t114 379t-102 365q-119 184 -313 184zM1094 596q0 -242 -127 -424q-143 -205 -377 -205t-377 209q-127 186 -127 428t125 422q145 207 377 207t375 -209q131 -186 131 -428z
M469 1458h2q0 -80 -86 -80q-76 0 -76 84t80 84t80 -88zM881 1677q55 0 55 -44t-51 -44h-547q-53 0 -53 44t51 44h545zM895 1459q0 -33 -26 -57q-25 -24 -59 -24t-58 23t-25 59q0 36 26 61q25 25 59 25t58 -28t25 -59z" />
    <glyph glyph-name="uni022B" unicode="&#x22b;" 
d="M592 51q168 -1 282 113t115 275q0 161 -119 278q-120 117 -280 117t-279 -117t-119 -278t116 -275t284 -113zM1073 443q0 -202 -138 -340t-340 -138t-347 141q-144 140 -144 340t144 338t342 138q197 0 340 -138t143 -341zM371 1102q-74 0 -74 84t79 84t81 -86
q4 -82 -86 -82zM881 1186q0 -33 -26 -58q-25 -24 -59 -24t-58 22t-24 59q0 35 26 61t60 26t58 -26t23 -60zM858 1462q55 0 55 -43t-51 -43l-547 -2q-53 0 -53 44t51 44h545z" />
    <glyph glyph-name="uni022C" unicode="&#x22c;" 
d="M907 1485q0 -41 -78 -107t-130 -66t-124 66q-67 68 -99 68t-87 -64t-72 -65q-43 0 -43 41q0 42 77 106t131 64t126 -67t92 -66q38 -1 92 65t72 66q43 0 43 -41zM592 1151q-194 0 -316 -184q-109 -164 -104 -367q0 -240 126 -394t304 -155q178 0 291 172t114 379t-102 365
q-119 184 -313 184zM1094 596q0 -242 -127 -424q-143 -205 -377 -205t-377 209q-127 186 -127 428t125 422q145 207 377 207t375 -209q131 -186 131 -428zM860 1677q55 0 55 -44t-51 -44h-547q-53 0 -53 44t51 44h545z" />
    <glyph glyph-name="uni022D" unicode="&#x22d;" 
d="M905 1218q0 -40 -78 -107t-130 -67t-124 66q-67 68 -99 68t-87 -64t-72 -65q-43 0 -43 41q0 42 77 106t131 64t125 -66t93 -66q39 0 92 65t72 64q43 1 43 -39zM592 51q168 -1 282 113t115 275q0 161 -119 278q-120 117 -280 117t-279 -117t-119 -278t116 -275t284 -113z
M1073 443q0 -202 -138 -340t-340 -138t-347 141q-144 140 -144 340t144 338t342 138q197 0 340 -138t143 -341zM858 1462q55 0 55 -43t-51 -43l-547 -2q-53 0 -53 44t51 44h545z" />
    <glyph glyph-name="uni022E" unicode="&#x22e;" 
d="M592 1151q-194 0 -316 -184q-109 -164 -104 -367q0 -240 126 -394t304 -155q178 0 291 172t114 379t-102 365q-119 184 -313 184zM1094 596q0 -242 -127 -424q-143 -205 -377 -205t-377 209q-127 186 -127 428t125 422q145 207 377 207t375 -209q131 -186 131 -428z
M668 1458h2q0 -80 -86 -80q-76 0 -76 84t80 84t80 -88z" />
    <glyph glyph-name="uni022F" unicode="&#x22f;" 
d="M592 51q168 -1 282 113t115 275q0 161 -119 278q-120 117 -280 117t-279 -117t-119 -278t116 -275t284 -113zM1073 443q0 -202 -138 -340t-340 -138t-347 141q-144 140 -144 340t144 338t342 138q197 0 340 -138t143 -341zM506 1182q0 38 24 62t59 24t59 -26t24 -59
q0 -32 -26 -57t-58 -24q-82 0 -82 80z" />
    <glyph glyph-name="uni0230" unicode="&#x230;" 
d="M592 1151q-194 0 -316 -184q-109 -164 -104 -367q0 -240 126 -394t304 -155q178 0 291 172t114 379t-102 365q-119 184 -313 184zM1094 596q0 -242 -127 -424q-143 -205 -377 -205t-377 209q-127 186 -127 428t125 422q145 207 377 207t375 -209q131 -186 131 -428z
M668 1458h2q0 -80 -86 -80q-76 0 -76 84t80 84t80 -88zM860 1677q55 0 55 -44t-51 -44h-547q-53 0 -53 44t51 44h545z" />
    <glyph glyph-name="uni0231" unicode="&#x231;" 
d="M592 51q168 -1 282 113t115 275q0 161 -119 278q-120 117 -280 117t-279 -117t-119 -278t116 -275t284 -113zM1073 443q0 -202 -138 -340t-340 -138t-347 141q-144 140 -144 340t144 338t342 138q197 0 340 -138t143 -341zM506 1182q0 38 24 62t59 24t59 -26t24 -59
q0 -32 -26 -57t-58 -24q-82 0 -82 80zM858 1462q55 0 55 -43t-51 -43l-547 -2q-53 0 -53 44t51 44h545z" />
    <glyph glyph-name="uni0232" unicode="&#x232;" 
d="M1032 1196q0 -12 -181 -308t-208 -339v-512q0 -43 -44 -43t-44 43l2 514q-412 605 -412 625t28 42t44 1l381 -580l358 580q2 8 20 10q18 3 38 -9q18 -12 18 -24zM854 1450q57 0 57 -46t-61 -46h-524q-59 0 -60 47q0 45 58 45h530z" />
    <glyph glyph-name="uni0233" unicode="&#x233;" 
d="M317 -401q-51 0 -51 45q0 31 51 45q17 -8 55 -8t58 38q33 78 129 281q-8 12 -446 907q-1 19 37 19t51 -21l405 -807l377 807q8 20 46 20t38 -20l-567 -1218q-43 -88 -183 -88zM860 1196q55 0 55 -43t-51 -43l-547 -2q-53 0 -53 44t51 44h545z" />
    <glyph glyph-name="uni0234" unicode="&#x234;" 
d="M1063 209q0 33 -72 33q-123 0 -205 -47q-49 -31 -161 -134q37 -6 103 -6t183 35q152 47 152 119zM1151 190q0 -41 -102 -112q-162 -113 -361 -113q-72 0 -145 23q-57 -49 -178 -164q-20 -18 -33 -19q-20 -1 -20 21t69 98q70 76 88 94q-203 106 -203 261v925h-182
q-57 0 -57 46t57 46h268v-1017q0 -45 62 -107t118 -84q30 31 92 92q62 62 170 102t193 40q164 -1 164 -132z" />
    <glyph glyph-name="uni0235" unicode="&#x235;" 
d="M1044 10q-36 0 -81 -8q-84 -14 -170 -119q-37 -45 -43 -51q29 -6 61 -6q105 0 189 40t102 101q6 23 -8 33t-50 10zM1174 -39q0 -43 -82 -113q-131 -113 -291 -112q-57 0 -119 22q-27 -29 -143 -164q-15 -20 -29 -20t-14 22t12 42q33 39 115 151q-131 84 -131 248v584
q0 174 -156 217q-23 6 -39 6q-88 0 -147 -103q-55 -92 -56 -202v-502q0 -43 -45 -43t-45 43v837q0 41 45 41t45 -47v-77q82 150 254 133q102 -8 166 -92t66 -199v-596q0 -129 94 -178l69 88q51 59 137 102t162 43q132 0 132 -131z" />
    <glyph glyph-name="uni0236" unicode="&#x236;" 
d="M1055 174q0 33 -72 33q-123 0 -205 -47q-49 -31 -162 -133q127 -21 283 26t156 121zM1143 156q0 -41 -103 -113q-162 -113 -360 -113q-72 0 -145 23q-119 -104 -158 -143t-53 -39q-58 0 49 116q57 66 88 97q-209 115 -209 245v576h-158q-59 0 -59 46t57 46h160v250
q0 14 15 37t28 22q47 0 47 -59v-250h281q57 0 57 -46t-62 -46h-276v-574q0 -100 182 -178q29 31 91 92t170 101t194 41q164 0 164 -131z" />
    <glyph glyph-name="uni0237" unicode="&#x237;" 
d="M805 -59h2q0 -150 -93 -243t-243 -93h-65q-61 0 -62 45q0 47 57 45l66 -4q104 -7 177 67t73 181v868l-191 2q-59 0 -59 45t59 45h279v-958z" />
    <glyph glyph-name="uni0238" unicode="&#x238;" 
d="M528 448q0 165 -61 273t-138 108t-139 -106q-63 -113 -63 -277t61 -274q60 -102 140 -102t139 102q61 111 61 276zM816 70q76 0 136 106t60 272q0 165 -62 273t-133 108q-72 0 -129 -84t-74 -219v-155q14 -133 70 -217t132 -84zM816 911q122 0 200 -141t78 -322
q0 -180 -76 -320t-201 -140t-203 123v-70q0 -41 -41 -41t-41 41v82q-80 -135 -208 -135t-203 139q-76 139 -76 321t78 322q78 141 204 141t205 -141v506q0 41 41 41t41 -41v-494q80 129 202 129z" />
    <glyph glyph-name="uni0239" unicode="&#x239;" 
d="M530 453q0 166 -61 271t-140 105q-79 1 -141 -105t-61 -272q0 -166 63 -278q60 -104 136 -104t141 108q63 109 63 275zM1014 452q0 165 -60 271t-141 106q-100 0 -160 -147q-41 -114 -41 -232t43 -231q57 -150 156 -149q78 0 139 108q64 109 64 274zM817 911
q127 0 203 -139t76 -321q0 -183 -79 -323t-202 -140t-203 133v-498q0 -41 -41 -41t-41 41v502q-82 -137 -206 -137t-201 141q-78 141 -78 323t77 321q77 138 205 138t203 -131v78q0 41 41 41t41 -41v-74q78 127 205 127z" />
    <glyph glyph-name="uni023A" unicode="&#x23a;" 
d="M221 176l170 227h-86zM559 494h285l-96 254zM457 494l256 346l-109 278h-33l-235 -624h121zM113 -82q-41 0 -41 41q0 12 6 21q-12 6 -12 12t452 1216q14 37 70 37t71 -39l109 -291l264 357q12 16 33 16q41 0 41 -41q0 -14 -8 -24l-295 -400l305 -821q2 -2 3 -10t-8 -12
t-43 -4t-42 26l-146 401h-380l-347 -469q-12 -16 -32 -16z" />
    </font>
</defs>
</svg>
