<?xml version="1.0" standalone="no"?>
<!DOCTYPE svg PUBLIC "-//W3C//DTD SVG 1.1//EN" "http://www.w3.org/Graphics/SVG/1.1/DTD/svg11.dtd" >
<svg xmlns="http://www.w3.org/2000/svg">
<metadata>
Created by FontPrep 20130207 at Tue Dec  9 01:54:43 2014
 By Alexander Gunnarson
Copyright (c) 1988, 1990 Adobe Systems Incorporated.  All Rights Reserved.Frutiger is a registered trademark of Linotype AG and/or its subsidiaries.
</metadata>
<defs>
<font id="34b07ef31164b224bbea9676ea07191a" horiz-adv-x='1024' >
  <font-face 
    font-family="Frutiger-Roman"
    font-weight="400"
    font-stretch="normal"
    units-per-em="2048"
    panose-1="2 0 5 3 0 0 0 2 0 4"
    ascent="1638"
    descent="-410"
    x-height="1044"
    cap-height="1430"
    bbox="-346 -455 2048 1915"
    underline-thickness="102"
    underline-position="-102"
    unicode-range="U+000D-FB02"
  />
<missing-glyph horiz-adv-x="569" 
 />
    <glyph glyph-name=".notdef" horiz-adv-x="569" 
 />
    <glyph glyph-name=".null" horiz-adv-x="0" 
 />
    <glyph glyph-name="nonmarkingreturn" unicode="&#xd;" horiz-adv-x="569" 
 />
    <glyph glyph-name="NULL" horiz-adv-x="0" 
 />
    <glyph glyph-name="NULL" horiz-adv-x="0" 
 />
    <glyph glyph-name="space" unicode=" " horiz-adv-x="569" 
 />
    <glyph glyph-name="exclam" unicode="!" horiz-adv-x="796" 
d="M285 229h229v-229h-229v229zM487 401h-176l-26 1029h229z" />
    <glyph glyph-name="quotedbl" unicode="&#x22;" 
d="M326 1430h180v-502h-180v502zM633 1430h180v-502h-180v502z" />
    <glyph glyph-name="numbersign" unicode="#" 
d="M709 848h-242l-37 -266h242zM57 426v156h217l37 266h-196v156h219l59 426h156l-60 -426h242l60 426h155l-59 -426h194v-156h-217l-37 -266h195v-156h-217l-60 -426h-155l59 426h-241l-60 -426h-155l59 426h-195z" />
    <glyph glyph-name="dollar" unicode="$" 
d="M506 156v497l-70 35q-143 75 -212.5 157.5t-69.5 225.5t99 246.5t253 128.5v205h119v-197q156 -4 293 -51l-29 -189q-100 59 -244 60h-20v-445l118 -65q125 -68 183.5 -150.5t58.5 -231.5t-98 -259.5t-262 -134.5v-205h-119v192h-25q-162 0 -311 60l25 196
q104 -75 282 -75h29zM768 394q0 77 -41 122t-102 78v-416q66 20 104.5 79.5t38.5 136.5zM371 1077q0 -72 43 -113.5t92 -72.5v366q-66 -25 -100.5 -66.5t-34.5 -113.5z" />
    <glyph glyph-name="percent" unicode="%" horiz-adv-x="2048" 
d="M659 1044q0 120 -20 193.5t-104 73.5q-129 0 -129 -228q0 -147 22.5 -226t103.5 -79q127 0 127 266zM1478 -25q-126 0 -198 118t-72 292q0 291 106 350.5t200 59.5q174 0 241.5 -113.5t67.5 -296.5q0 -280 -109.5 -345t-235.5 -65zM1393 1475h147l-887 -1520h-147z
M1516 651q-127 0 -127 -227q0 -148 22.5 -226.5t104.5 -78.5q126 0 126 266q0 120 -19.5 193t-106.5 73zM532 1454q308 0 308 -410q0 -279 -109.5 -344t-235.5 -65t-198 117t-72 292q0 294 106.5 352t200.5 58z" />
    <glyph glyph-name="ampersand" unicode="&#x26;" horiz-adv-x="1478" 
d="M535 1124q0 -82 39.5 -141t87.5 -111q70 30 142.5 99t72.5 159t-48.5 129t-120.5 39t-122.5 -46t-50.5 -128zM469 204.5q82 -73.5 205 -73.5q122 0 181.5 59.5t76.5 77.5l-344 404q-105 -74 -153 -132t-48 -160t82 -175.5zM170 364q0 173 87 271t232 158
q-57 70 -102 146.5t-45 170.5q0 173 105 258.5t263 85.5q157 0 258 -81.5t101 -242.5q0 -125 -93 -221.5t-220 -150.5l291 -332q41 66 60 144.5t28 201.5h192q-16 -225 -74.5 -333.5t-89.5 -155.5l250 -283h-256l-117 139q-145 -164 -382 -164t-362.5 108t-125.5 281z" />
    <glyph glyph-name="quotesingle" unicode="'" horiz-adv-x="569" 
d="M195 1430h180v-502h-180v502z" />
    <glyph glyph-name="parenleft" unicode="(" horiz-adv-x="681" 
d="M133 632q0 240 91 461.5t245 454.5h184q-144 -255 -203 -405t-85.5 -269.5t-26.5 -291.5t80.5 -388t234.5 -481h-184q-161 239 -222 393t-87.5 275t-26.5 251z" />
    <glyph glyph-name="parenright" unicode=")" horiz-adv-x="681" 
d="M549 630q0 -242 -90.5 -461.5t-245.5 -455.5h-184q143 252 202.5 403.5t86 271.5t26.5 291t-81 389.5t-234 479.5h184q336 -499 336 -918z" />
    <glyph glyph-name="asterisk" unicode="*" 
d="M569 918l-168 -283l-151 102l225 252l-328 68l58 174l309 -127l-33 326h187l-31 -326l299 127l55 -174l-321 -68l219 -252l-154 -102z" />
    <glyph glyph-name="plus" unicode="+" horiz-adv-x="1228" 
d="M96 608h428v428h181v-428h428v-180h-428v-428h-181v428h-428v180z" />
    <glyph glyph-name="comma" unicode="," horiz-adv-x="569" 
d="M170 229h229l-174 -501h-184z" />
    <glyph glyph-name="hyphen" unicode="-" horiz-adv-x="681" 
d="M78 629h526v-156h-526v156z" />
    <glyph glyph-name="period" unicode="." horiz-adv-x="569" 
d="M170 229h229v-229h-229v229z" />
    <glyph glyph-name="slash" unicode="/" horiz-adv-x="569" 
d="M440 1454h181l-492 -1479h-180z" />
    <glyph glyph-name="zero" unicode="0" 
d="M301 726q0 -56 3 -115.5t12.5 -123t26.5 -125t47 -110.5t74 -79t105.5 -30t105.5 30t85 98t59.5 198.5t18.5 222.5q0 91 -9.5 188t-37 188t-81 154.5t-141.5 63.5t-141 -63.5t-81 -154.5t-37 -188.5t-9 -153.5zM84 714.5q0 116.5 20.5 248t73.5 240t148.5 180t243 71.5
t242.5 -71.5t148.5 -180t74 -240t20.5 -248t-20.5 -247.5t-74 -239.5t-148.5 -180.5t-242.5 -72t-243 72t-148.5 180.5t-73.5 239.5t-20.5 247.5z" />
    <glyph glyph-name="one" unicode="1" 
d="M756 1430v-1430h-205v1194l-219 -188l-109 137l350 287h183z" />
    <glyph glyph-name="two" unicode="2" 
d="M147 1370q194 84 386 84q193 0 323.5 -107.5t130.5 -299.5q0 -216 -217 -445.5t-306 -308t-142 -125.5h686v-168h-906v219q55 49 122 107t130 118t239.5 230.5t176.5 384.5q0 98 -78.5 162.5t-218.5 64.5t-305 -92z" />
    <glyph glyph-name="three" unicode="3" 
d="M766 1058q0 228 -301 228q-143 0 -297 -78l-12 183q168 63 365 63t329.5 -99t132.5 -290q0 -131 -87.5 -214.5t-219.5 -111.5v-4q143 -29 231 -115t88 -224t-86 -279.5t-477 -141.5q-147 0 -328 56l13 190q148 -78 313 -78q226 0 287 88t61 162q0 139 -97 202.5
t-259 63.5h-125v168h115q225 0 289.5 83.5t64.5 147.5z" />
    <glyph glyph-name="four" unicode="4" 
d="M705 326h-666v168l577 936h293v-936h181v-168h-181v-326h-204v326zM705 1262h-5l-446 -768h451v768z" />
    <glyph glyph-name="five" unicode="5" 
d="M979 1430v-168h-594l-12 -383q72 20 175 20q196 0 334 -126t138 -316q0 -225 -157 -353.5t-390 -128.5q-182 0 -307 48l6 192q128 -72 281 -72t251.5 77t98.5 215t-96.5 217t-247.5 79t-279 -53l13 752h786z" />
    <glyph glyph-name="six" unicode="6" 
d="M767 644q-62 87 -182 87t-190.5 -81t-70.5 -201t67.5 -213t185.5 -93t185 87.5t67 207.5q0 119 -62 206zM588 -25q-482 0 -482 687q0 536 205 664t352 128t223.5 -18.5t94.5 -26.5l-29 -182q-114 59 -234 59t-266 -85.5t-153 -434.5l4 2q131 131 323 131t306.5 -127
t114.5 -334t-130 -335t-329 -128z" />
    <glyph glyph-name="seven" unicode="7" 
d="M100 1262v168h906v-168l-529 -1262h-225l545 1262h-697z" />
    <glyph glyph-name="eight" unicode="8" 
d="M317 1072q0 -62 75 -119.5t220 -129.5q123 96 156 151.5t33 118.5q0 103 -74.5 148t-163.5 45t-167.5 -55.5t-78.5 -158.5zM382.5 209q87.5 -66 196.5 -66t185 58.5t79 150.5t-23.5 139.5t-72 79t-101.5 54t-114 51.5q-43 -31 -86 -56.5t-97 -75.5t-54 -159
q0 -110 87.5 -176zM224 81.5q-146 106.5 -146 293.5q0 143 87 237.5t216 139.5v4q-144 50 -206 144t-62 187q0 168 126 267.5t333 99.5t326.5 -98t119.5 -222t-58.5 -208t-199.5 -162q129 -45 215 -140.5t86 -221.5t-40 -202.5t-140 -150.5t-305 -74q-206 0 -352 106.5z" />
    <glyph glyph-name="nine" unicode="9" 
d="M371.5 786.5q62.5 -88.5 182.5 -88.5t190.5 82t70.5 201t-66.5 212t-187.5 93q-120 0 -186 -88t-66 -206q0 -117 62.5 -205.5zM551 1454q481 0 481 -686q0 -536 -204.5 -664.5t-347.5 -128.5t-223.5 18.5t-98.5 26.5l28 183q114 -59 234 -59t194 42.5t148 149t78 328.5
l-4 -2q-72 -72 -148 -102t-173 -30q-195 0 -309 128t-114 335t129.5 334t329.5 127z" />
    <glyph glyph-name="colon" unicode=":" horiz-adv-x="569" 
d="M170 229h229v-229h-229v229zM399 815h-229v229h229v-229z" />
    <glyph glyph-name="semicolon" unicode=";" horiz-adv-x="569" 
d="M399 815h-229v229h229v-229zM170 229h229l-174 -501h-184z" />
    <glyph glyph-name="less" unicode="&#x3c;" horiz-adv-x="1228" 
d="M1135 872l-807 -354l807 -354v-180l-1041 456v156l1041 457v-181z" />
    <glyph glyph-name="equal" unicode="=" horiz-adv-x="1228" 
d="M96 393h1037v-180h-1037v180zM96 823h1037v-180h-1037v180z" />
    <glyph glyph-name="greater" unicode="&#x3e;" horiz-adv-x="1228" 
d="M94 164l807 354l-807 354v181l1041 -457v-156l-1041 -456v180z" />
    <glyph glyph-name="question" unicode="?" horiz-adv-x="1024" 
d="M399 229h230v-229h-230v229zM152 1386q159 68 340 68t311.5 -99.5t130.5 -273.5q0 -133 -70.5 -227t-120 -149.5t-82.5 -104.5t-42 -84t-9 -78v-37h-192v43q0 98 27.5 160.5t77.5 120.5q49 58 121.5 140t72.5 185q0 118 -72.5 171t-175.5 53q-190 0 -303 -82z" />
    <glyph glyph-name="at" unicode="@" horiz-adv-x="1638" 
d="M842 1118q149 0 233 -135l31 107h154l-138 -521q-23 -88 -12.5 -112.5t44.5 -24.5t78 31t102.5 115t58.5 220q0 249 -156 381t-401 132t-405.5 -173.5t-160.5 -441.5t166 -422.5t364.5 -154.5t316.5 48t198 134h155q-100 -154 -261 -240t-333 -86q-344 0 -559 199.5
t-215 534.5q0 334 218.5 539.5t514.5 205.5q297 0 499 -172t202 -441q0 -140 -54.5 -248t-130 -178.5t-159.5 -104.5t-136 -34t-86 29t-38 86h-4q-41 -43 -100.5 -79t-153.5 -36t-183.5 97t-89.5 231q0 200 124.5 357t316.5 157zM740 444q118 0 195 108.5t77 225.5
q0 74 -46 123t-110 49q-120 0 -197 -102.5t-77 -200.5t45 -150.5t113 -52.5z" />
    <glyph glyph-name="A" unicode="A" horiz-adv-x="1478" 
d="M735 1237l-284 -709h569zM635 1430h215l604 -1430h-223l-146 360h-700l-145 -360h-215z" />
    <glyph glyph-name="B" unicode="B" horiz-adv-x="1251" 
d="M375 819h112q182 0 245 30t92.5 74.5t29.5 116.5q0 123 -78.5 172.5t-185.5 49.5h-215v-443zM375 168h153q164 0 257.5 50.5t93.5 190.5t-102 191t-269 51h-133v-483zM170 1430h387q361 0 431.5 -131.5t70.5 -229.5q0 -147 -80 -226t-215 -114v-4q146 -12 239 -103.5
t93 -223.5t-44 -205.5t-148 -133t-353 -59.5h-381v1430z" />
    <glyph glyph-name="C" unicode="C" horiz-adv-x="1251" 
d="M873 1454q173 0 313 -61l-17 -199q-135 80 -277 80q-262 0 -414 -156.5t-152 -403.5t155.5 -402.5t382.5 -155.5q124 0 204.5 26.5t107.5 42.5l12 -198q-122 -52 -309 -52q-358 0 -564 202.5t-206 537.5t212 537t552 202z" />
    <glyph glyph-name="D" unicode="D" horiz-adv-x="1478" 
d="M590 180q547 0 547 539q0 243 -147.5 386.5t-375.5 143.5h-239v-1069h215zM170 1430h422q324 0 543 -190t219 -529q0 -338 -201 -524.5t-561 -186.5h-422v1430z" />
    <glyph glyph-name="E" unicode="E" 
d="M193 1430h800v-181h-596v-418h543v-180h-543v-471h596v-180h-800v1430z" />
    <glyph glyph-name="F" unicode="F" horiz-adv-x="1024" 
d="M170 1430h760v-181h-555v-418h530v-180h-530v-651h-205v1430z" />
    <glyph glyph-name="G" unicode="G" horiz-adv-x="1478" 
d="M1268 1176q-152 98 -386 98q-253 0 -404.5 -158t-151.5 -404q0 -245 155.5 -400.5t382.5 -155.5q118 0 164.5 10t65.5 14v434h-301v168h505v-743q-189 -64 -397 -64q-209 0 -348 52.5t-291.5 202.5t-152.5 485t212 537t543 202q152 0 230.5 -17.5t189.5 -54.5z" />
    <glyph glyph-name="H" unicode="H" horiz-adv-x="1478" 
d="M193 1430h204v-599h684v599h205v-1430h-205v651h-684v-651h-204v1430z" />
    <glyph glyph-name="I" unicode="I" horiz-adv-x="569" 
d="M182 1430h205v-1430h-205v1430z" />
    <glyph glyph-name="J" unicode="J" horiz-adv-x="796" 
d="M172 156q131 0 182.5 69t51.5 209v996h204v-1061q0 -271 -142 -332.5t-252 -61.5t-173 25v176q59 -20 129 -20z" />
    <glyph glyph-name="K" unicode="K" horiz-adv-x="1366" 
d="M193 1430h204v-629l611 629h272l-672 -676l725 -754h-299l-637 700v-700h-204v1430z" />
    <glyph glyph-name="L" unicode="L" horiz-adv-x="1024" 
d="M180 1430h205v-1250h598v-180h-803v1430z" />
    <glyph glyph-name="M" unicode="M" horiz-adv-x="1933" 
d="M184 1430h338l449 -1188l440 1188h338v-1430h-205v1237h-4l-473 -1237h-201l-473 1237h-4v-1237h-205v1430z" />
    <glyph glyph-name="N" unicode="N" horiz-adv-x="1478" 
d="M180 1430h279l631 -1151h4v1151h204v-1430h-262l-647 1176h-4v-1176h-205v1430z" />
    <glyph glyph-name="O" unicode="O" horiz-adv-x="1593" 
d="M295.5 1249q186.5 205 500.5 205q315 0 502 -205t187 -535t-182.5 -534.5t-505.5 -204.5t-505.5 204.5t-182.5 534.5t186.5 535zM1149 321q119 165 119 394q0 230 -122 394.5t-348.5 164.5t-349 -163.5t-122.5 -395.5t119 -395.5t352 -163.5t352 165z" />
    <glyph glyph-name="P" unicode="P" 
d="M170 1430h375q376 0 456 -153t80 -274q0 -221 -144.5 -326.5t-361.5 -105.5h-200v-571h-205v1430zM375 752h203q111 0 198.5 60.5t87.5 186.5q0 127 -99.5 188.5t-215.5 61.5h-174v-497z" />
    <glyph glyph-name="Q" unicode="Q" horiz-adv-x="1593" 
d="M797 -25q-323 0 -505.5 204.5t-182.5 534.5t186.5 535t500.5 205q315 0 502 -205t187 -534q0 -242 -99.5 -419t-285.5 -259l332 -301h-254l-267 248q-65 -9 -114 -9zM1149 321q119 165 119 394q0 230 -122 394.5t-348.5 164.5t-349 -163.5t-122.5 -395.5t119 -395.5
t352 -163.5t352 165z" />
    <glyph glyph-name="R" unicode="R" horiz-adv-x="1251" 
d="M375 815h174q147 0 228 59.5t81 160.5t-72.5 157.5t-214.5 56.5h-196v-434zM170 1430h350q257 0 406 -78t149 -310q0 -129 -83.5 -216.5t-211.5 -108.5v-4q47 -18 76 -48t64 -96l270 -569h-234l-219 496q-47 96 -93.5 117.5t-145.5 21.5h-123v-635h-205v1430z" />
    <glyph glyph-name="S" unicode="S" horiz-adv-x="1024" 
d="M583 1274q-270 0 -270 -191q0 -70 45 -113.5t114 -80.5t262.5 -124.5t193.5 -363.5q0 -218 -147 -322t-375 -104q-108 0 -293 60l20 190q186 -69 294 -69t196 60t88 173q0 80 -45 130t-114 88t-148.5 73t-193.5 114.5t-114 266.5t129.5 290t312.5 103t322 -51l-29 -189
q-39 14 -102 37t-146 23z" />
    <glyph glyph-name="T" unicode="T" 
d="M467 1249h-444v181h1093v-181h-444v-1249h-205v1249z" />
    <glyph glyph-name="U" unicode="U" horiz-adv-x="1478" 
d="M1294 592q0 -303 -144 -460t-410.5 -157t-411 157t-144.5 460v838h205v-812q0 -337 126 -399.5t269.5 -62.5t224.5 121t81 341v812h204v-838z" />
    <glyph glyph-name="V" unicode="V" horiz-adv-x="1366" 
d="M807 0h-256l-539 1430h230l440 -1250h4l453 1250h215z" />
    <glyph glyph-name="W" unicode="W" horiz-adv-x="2048" 
d="M4 1430h225l342 -1225h4l306 1225h290l310 -1225h4l342 1225h217l-440 -1430h-265l-311 1249h-4l-313 -1249h-275z" />
    <glyph glyph-name="X" unicode="X" horiz-adv-x="1366" 
d="M543 743l-480 687h246l381 -549l379 549h234l-482 -682l529 -748h-258l-422 606l-408 -606h-246z" />
    <glyph glyph-name="Y" unicode="Y" horiz-adv-x="1366" 
d="M786 0h-204v598l-559 832h239l426 -642l416 642h239l-557 -832v-598z" />
    <glyph glyph-name="Z" unicode="Z" 
d="M90 1249v181h952v-185l-739 -1065h752v-180h-989v184l741 1065h-717z" />
    <glyph glyph-name="bracketleft" unicode="[" horiz-adv-x="681" 
d="M195 1548h387v-143h-207v-1548h207v-144h-387v1835z" />
    <glyph glyph-name="backslash" unicode="\" horiz-adv-x="569" 
d="M-51 1454h180l492 -1479h-181z" />
    <glyph glyph-name="bracketright" unicode="]" horiz-adv-x="681" 
d="M487 -287h-387v144h207v1548h-207v143h387v-1835z" />
    <glyph glyph-name="asciicircum" unicode="^" horiz-adv-x="1228" 
d="M530 1430h168l408 -828h-184l-308 639l-307 -639h-184z" />
    <glyph glyph-name="underscore" unicode="_" horiz-adv-x="1024" 
d="M0 -154h1024v-102h-1024v102z" />
    <glyph glyph-name="grave" unicode="`" horiz-adv-x="569" 
d="M420 1190h-137l-269 295h224z" />
    <glyph glyph-name="a" unicode="a" 
d="M299 316q0 -90 60.5 -137.5t134.5 -47.5q143 0 216.5 79t73.5 196v92l-122 4q-225 0 -294 -65t-69 -121zM557 1069q225 0 322.5 -108.5t97.5 -323.5v-432q0 -159 8 -205h-180v135h-4q-63 -98 -160.5 -129t-172.5 -31q-169 0 -271.5 80.5t-102.5 250.5t151.5 254.5
t334.5 84.5h74q73 0 130 -4q0 135 -56 203.5t-216 68.5t-289 -106l-10 164q164 98 344 98z" />
    <glyph glyph-name="b" unicode="b" horiz-adv-x="1251" 
d="M356 527q0 -156 78 -276t225 -120t222.5 126.5t70.5 268.5q4 157 -68 272t-219 115t-228 -115t-81 -271zM360 901q105 168 333 168t346 -151t118 -383t-113.5 -396t-334.5 -164q-124 0 -216 50t-141 122h-4v-147h-184v1536h192v-635h4z" />
    <glyph glyph-name="c" unicode="c" horiz-adv-x="909" 
d="M283 522q0 -157 87.5 -274t260.5 -117q112 0 207 59l14 -172q-87 -43 -224 -43q-250 0 -400 159.5t-150 394.5t148.5 387.5t383.5 152.5q129 0 234 -41l-17 -160q-108 45 -198 45q-164 0 -255 -117t-91 -274z" />
    <glyph glyph-name="d" unicode="d" horiz-adv-x="1251" 
d="M817 251q78 120 78 273q0 154 -80.5 271.5t-228 117.5t-219.5 -114.5t-68 -272.5q-5 -140 70.5 -267.5t222.5 -127.5t225 120zM895 901v635h192v-1536h-184v147h-4q-68 -109 -177.5 -140.5t-203.5 -31.5t-179 48.5t-165 165t-80 346.5t117 382t346 152t334 -168h4z" />
    <glyph glyph-name="e" unicode="e" 
d="M840 623q0 123 -69 206.5t-195 83.5q-125 0 -194 -85t-83 -205h541zM597 -25q-101 0 -302 81t-201 485q0 232 135 380t355 148q460 0 460 -590h-745q0 -153 103 -250.5t241 -97.5q81 0 176 32.5t146 72.5v-193q-29 -10 -60 -21.5t-68.5 -21.5t-88 -17.5t-151.5 -7.5z" />
    <glyph glyph-name="f" unicode="f" horiz-adv-x="796" 
d="M668 1405q-115 0 -151 -64t-36 -184v-113h277v-155h-277v-889h-192v889h-246v155h246v97q0 211 74.5 315.5t275.5 104.5q35 0 129 -13l-8 -155q-32 12 -92 12z" />
    <glyph glyph-name="g" unicode="g" horiz-adv-x="1251" 
d="M809.5 258.5q85.5 102.5 85.5 251.5q0 272 -114.5 337.5t-189.5 65.5q-138 0 -215 -121t-77 -270t79 -257.5t212.5 -108.5t219 102.5zM561 1069q254 0 344 -180h4v155h178v-999q0 -238 -129 -369t-409 -131q-175 0 -375 72l21 178q169 -77 246 -85.5t130 -8.5
q154 0 239 96.5t85 261.5v103h-4q-61 -82 -156 -122t-201 -40q-210 0 -325 150t-115 367t123 384.5t344 167.5z" />
    <glyph glyph-name="h" unicode="h" horiz-adv-x="1251" 
d="M684 1069q215 0 309 -119t94 -329v-621h-192v541q0 184 -47 274t-174 98q-160 0 -239 -115t-79 -315v-483h-192v1536h192v-641h4q109 174 324 174z" />
    <glyph glyph-name="i" unicode="i" horiz-adv-x="569" 
d="M393 1278h-217v217h217v-217zM188 1044h193v-1044h-193v1044z" />
    <glyph glyph-name="j" unicode="j" horiz-adv-x="569" 
d="M393 1278h-217v217h217v-217zM60 -287q60 0 94 59.5t34 161.5v1110h193v-1081q0 -57 -5 -129t-54 -180.5t-236 -108.5q-81 0 -119 9l6 165q27 -6 87 -6z" />
    <glyph glyph-name="k" unicode="k" 
d="M164 1536h192v-915l420 423h262l-485 -462l547 -582h-277l-467 537v-537h-192v1536z" />
    <glyph glyph-name="l" unicode="l" horiz-adv-x="569" 
d="M188 1536h193v-1536h-193v1536z" />
    <glyph glyph-name="m" unicode="m" horiz-adv-x="1820" 
d="M346 893q104 176 318 176q104 0 187 -48t124 -155q50 101 142.5 152t186.5 51q183 0 270 -108.5t87 -290.5v-670h-193v623q0 122 -41 206t-145 84q-139 0 -206.5 -112t-67.5 -275v-526h-193v623q0 122 -41 206t-145 84q-139 0 -207 -112.5t-68 -274.5v-526h-192v1044h180
v-151h4z" />
    <glyph glyph-name="n" unicode="n" horiz-adv-x="1251" 
d="M164 1044h186v-165h4q43 90 137.5 140t204.5 50q203 0 297 -119t94 -329v-621h-192v541q0 184 -47 274t-174 98q-160 0 -239 -115t-79 -315v-483h-192v1044z" />
    <glyph glyph-name="o" unicode="o" horiz-adv-x="1251" 
d="M383.5 249.5q84.5 -118.5 242.5 -118.5t242 118.5t84 272.5t-87.5 272.5t-237.5 118.5t-239 -117.5t-89 -272.5t84.5 -273.5zM242.5 916.5q148.5 152.5 384.5 152.5t383 -153t147 -387t-148.5 -394t-381.5 -160t-383 159.5t-150 394.5t148.5 387.5z" />
    <glyph glyph-name="p" unicode="p" horiz-adv-x="1251" 
d="M356 527q0 -156 78 -276t225 -120t222.5 126.5t70.5 268.5q4 157 -68 272t-219 115t-228 -115t-81 -271zM356 143v-573h-192v1474h184v-147h4q67 108 175.5 140t200.5 32t176.5 -43t168.5 -151t84 -340t-113.5 -396t-344.5 -164q-230 0 -339 168h-4z" />
    <glyph glyph-name="q" unicode="q" horiz-adv-x="1251" 
d="M817 251q78 120 78 273q0 154 -80.5 271.5t-228 117.5t-219.5 -114.5t-68 -272.5q-5 -140 70.5 -267.5t222.5 -127.5t225 120zM1087 -430h-192v567h-4q-45 -74 -138 -118t-211 -44q-221 0 -334.5 165t-113.5 395t117 382t334 152q121 0 217.5 -52.5t136.5 -121.5h4v149
h184v-1474z" />
    <glyph glyph-name="r" unicode="r" horiz-adv-x="796" 
d="M641 901q-129 0 -207 -114.5t-78 -311.5v-475h-192v1044h180v-161h4q39 82 114 134t144 52t142 -14v-172q-49 18 -107 18z" />
    <glyph glyph-name="s" unicode="s" horiz-adv-x="796" 
d="M522 283q0 45 -33.5 77.5t-84 60.5t-192.5 93t-142 227t101.5 245t266.5 83q94 0 240 -41l-16 -168q-54 34 -120.5 43.5t-82.5 9.5q-74 0 -129.5 -30.5t-55.5 -90.5t34 -93t84 -59t108.5 -51.5t108.5 -61t84 -89t34 -175.5t-107 -205t-272 -83t-272 58l10 172
q119 -74 243 -74t158.5 53.5t34.5 98.5z" />
    <glyph glyph-name="t" unicode="t" horiz-adv-x="796" 
d="M250 279v610h-236v155h236v242l192 62v-304h277v-155h-277v-572q0 -92 48.5 -139t117.5 -47t127 37v-164q-96 -29 -164 -29q-150 0 -235.5 73t-85.5 231z" />
    <glyph glyph-name="u" unicode="u" horiz-adv-x="1251" 
d="M1087 0h-186v166h-4q-43 -90 -137 -140.5t-205 -50.5q-203 0 -297 119t-94 330v620h192v-540q0 -184 47.5 -274.5t174.5 -98.5q157 0 237 114.5t80 315.5v483h192v-1044z" />
    <glyph glyph-name="v" unicode="v" horiz-adv-x="1024" 
d="M627 0h-230l-374 1044h210l283 -851h4l289 851h192z" />
    <glyph glyph-name="w" unicode="w" horiz-adv-x="1705" 
d="M1346 0h-224l-270 877h-4l-264 -877h-224l-335 1044h211l239 -864h4l266 864h228l262 -864h4l254 864h188z" />
    <glyph glyph-name="x" unicode="x" horiz-adv-x="1024" 
d="M397 547l-340 497h240l227 -372l232 372h215l-336 -497l369 -547h-238l-258 410l-258 -410h-230z" />
    <glyph glyph-name="y" unicode="y" horiz-adv-x="1024" 
d="M186 -299q52 0 97 38t72.5 84t39 87t11.5 53t-13.5 46t-23.5 61l-355 974h211l281 -864h4l287 864h194l-385 -1067q-27 -76 -57.5 -152.5t-102 -178t-241.5 -101.5q-34 0 -131 15l12 157q47 -16 100 -16z" />
    <glyph glyph-name="z" unicode="z" horiz-adv-x="1024" 
d="M117 889v155h796v-167l-602 -721h625v-156h-848v168l602 721h-573z" />
    <glyph glyph-name="braceleft" unicode="{" horiz-adv-x="681" 
d="M432 12q0 -155 103 -155h108v-144h-160q-84 0 -157.5 71.5t-73.5 186.5v373q0 97 -54.5 156t-121.5 59v143q66 0 121 57t55 148v383q0 116 73 187t158 71h160v-143h-108q-103 0 -103 -156v-370q0 -118 -61.5 -175.5t-126.5 -70.5v-4q61 -6 124.5 -63.5t63.5 -188.5v-365z
" />
    <glyph glyph-name="bar" unicode="|" horiz-adv-x="454" 
d="M137 1536h180v-1561h-180v1561z" />
    <glyph glyph-name="braceright" unicode="}" horiz-adv-x="681" 
d="M250 1249q0 156 -103 156h-108v143h160q85 0 158 -71t73 -187v-372q0 -98 54.5 -157t121.5 -59v-143q-66 0 -121 -57t-55 -148v-383q0 -115 -73.5 -186.5t-157.5 -71.5h-160v144h108q103 0 103 155v371q0 118 61.5 175.5t126.5 70.5v4q-62 6 -125 63.5t-63 188.5v364z
" />
    <glyph glyph-name="asciitilde" unicode="~" horiz-adv-x="1228" 
d="M302.5 466.5q-37.5 -37.5 -87.5 -112.5l-74 144q56 116 130.5 145t142.5 29t211 -64q57 -25 112.5 -50.5t91.5 -25.5t61 13.5t46.5 35t40 48t37.5 53.5l73 -143q-85 -174 -257 -174q-86 0 -226 63q-57 25 -112.5 50.5t-103.5 25.5t-85.5 -37.5z" />
    <glyph glyph-name="exclamdown" unicode="&#xa1;" horiz-adv-x="796" 
d="M285 1044h229v-229h-229v229zM514 -385h-229l26 1028h176z" />
    <glyph glyph-name="cent" unicode="&#xa2;" 
d="M748 -25q-121 0 -195 25l-80 -272h-117l93 319q-127 72 -197 197t-70 261q0 259 148.5 411.5t384.5 152.5h10q10 0 18 -2l68 231h117l-72 -243q65 -13 92 -27l-16 -160q-61 27 -119 35l-215 -747q73 -25 137 -25q112 0 207 59l14 -172q-87 -43 -208 -43zM387 505
q0 -169 113 -282l198 688q-142 -11 -226.5 -124t-84.5 -282z" />
    <glyph glyph-name="sterling" unicode="&#xa3;" 
d="M823 1274q-160 0 -235.5 -91t-75.5 -251v-101h330v-118h-330v-533h506v-180h-897v180h186v533h-162v118h162v115q0 228 129.5 368t366.5 140q133 0 241 -39l-16 -190q-112 49 -205 49z" />
    <glyph glyph-name="currency" unicode="&#xa4;" 
d="M242 714q0 -142 96.5 -240.5t233.5 -98.5t231 100.5t94 239t-94.5 239.5t-232.5 101q-137 0 -232.5 -99.5t-95.5 -241.5zM61 718q0 183 103 300l-115 110l105 107l112 -113q127 101 302 101t309 -101l110 113l103 -107l-111 -110q98 -110 98 -297t-98 -305l111 -117
l-103 -104l-110 116q-120 -104 -307 -104q-186 0 -304 104l-112 -116l-105 104l115 117q-103 119 -103 302z" />
    <glyph glyph-name="yen" unicode="&#xa5;" 
d="M469 332h-289v119h289v147l-16 33h-273v119h207l-375 680h228l335 -642l324 642h227l-370 -680h207v-119h-273l-16 -33v-147h289v-119h-289v-332h-205v332z" />
    <glyph glyph-name="brokenbar" unicode="&#xa6;" horiz-adv-x="454" 
d="M137 1536h180v-567h-180v567zM137 543h180v-568h-180v568z" />
    <glyph glyph-name="section" unicode="&#xa7;" 
d="M352 664q0 -137 171 -188.5t212 -69.5q29 35 51.5 69.5t22.5 90.5t-44 97.5t-105.5 69t-126 48t-105.5 42.5q-76 -57 -76 -159zM844 340q131 -87 131 -247q0 -85 -44 -153.5t-142 -131t-280 -62.5q-181 0 -327 51l19 189q137 -72 338 -72q96 0 169.5 48t73.5 138
q0 53 -45 87t-112.5 59.5t-147.5 52.5t-192.5 93.5t-112.5 231.5q0 164 150 255q-142 79 -142 241t131 248t287 86q155 0 307 -39l-18 -186q-125 57 -272 57t-194.5 -53t-47.5 -109t46 -92.5t113.5 -64t262 -88.5t194.5 -281q0 -92 -39 -147.5t-106 -110.5z" />
    <glyph glyph-name="dieresis" unicode="&#xa8;" horiz-adv-x="569" 
d="M356 1409h193v-205h-193v205zM20 1409h193v-205h-193v205z" />
    <glyph glyph-name="copyright" unicode="&#xa9;" horiz-adv-x="1638" 
d="M260 715q0 -129 44 -238.5t120 -189.5t177 -124t218 -44t218.5 44t177 124t119.5 189.5t44 238.5t-44 238.5t-119.5 189.5t-177 124t-218.5 44t-218 -44t-177 -124t-120 -189.5t-44 -238.5zM80 714.5q0 153.5 58.5 288t158.5 234.5t234.5 158.5t288 58.5t287.5 -58.5
t234.5 -158.5t159 -234.5t58.5 -288t-58.5 -287.5t-159 -234.5t-234.5 -159t-287.5 -58.5t-288 58.5t-234.5 159t-158.5 234.5t-58.5 287.5zM856 264q-114 0 -192 35t-132.5 95.5t-84 142t-29.5 229.5t111 271.5t302 123.5q141 0 241.5 -81.5t119.5 -225.5h-150
q-16 76 -73 120t-129 44q-131 0 -199 -82.5t-68 -216.5t71.5 -222.5t193.5 -88.5q84 0 139 46t65 130h150q-25 -154 -123.5 -237t-212.5 -83z" />
    <glyph glyph-name="ordfeminine" unicode="&#xaa;" horiz-adv-x="739" 
d="M215 1022q0 -74 39 -91.5t82 -17.5q180 0 180 123v56l-82 4q-219 0 -219 -74zM129 1397q108 57 255 57q146 0 223 -56.5t77 -203.5v-262l6 -121h-172v78h-4q-62 -94 -215 -94t-202.5 68.5t-49.5 130.5q0 112 108 160t236 48h47q47 0 78 -4q0 112 -63.5 124.5t-96.5 12.5
q-129 0 -221 -67z" />
    <glyph glyph-name="guillemotleft" unicode="&#xab;" 
d="M518 551l293 414h180l-266 -414l266 -414h-180zM104 551l293 414h181l-267 -414l267 -414h-181z" />
    <glyph glyph-name="logicalnot" unicode="&#xac;" horiz-adv-x="1228" 
d="M96 823h1037v-610h-181v430h-856v180z" />
    <glyph glyph-name="registered" unicode="&#xae;" horiz-adv-x="1638" 
d="M999 903q0 115 -170 115h-139v-240h137q82 0 127 24t45 101zM1155 891q0 -204 -219 -225l225 -367h-160l-217 360h-94v-360h-155v838h311q152 0 230.5 -56.5t78.5 -189.5zM819 119q117 0 218.5 44t177 124t119.5 189.5t44 238.5t-44 238.5t-119.5 189.5t-177 124
t-218.5 44t-218 -44t-177 -124t-120 -189.5t-44 -238.5t44 -238.5t120 -189.5t177 -124t218 -44zM819.5 -25q-153.5 0 -288 58.5t-234.5 159t-158.5 234.5t-58.5 287.5t58.5 288t158.5 234.5t234.5 158.5t288 58.5t287.5 -58.5t234.5 -158.5t159 -234.5t58.5 -288
t-58.5 -287.5t-159 -234.5t-234.5 -159t-287.5 -58.5z" />
    <glyph glyph-name="macron" unicode="&#xaf;" horiz-adv-x="569" 
d="M-18 1378h606v-118h-606v118z" />
    <glyph glyph-name="degree" unicode="&#xb0;" horiz-adv-x="819" 
d="M248 1161.5q0 -67.5 47 -115t114.5 -47.5t114.5 47.5t47 115t-47 114.5t-114.5 47t-114.5 -47t-47 -114.5zM117 1161.5q0 61.5 22.5 114.5t62.5 93t93 62.5t114.5 22.5t115 -22.5t93 -62.5t62 -93t22.5 -114.5t-22.5 -115t-62 -93.5t-93 -62.5t-115 -22.5t-114.5 22.5
t-93 62.5t-62.5 93.5t-22.5 115z" />
    <glyph glyph-name="plusminus" unicode="&#xb1;" horiz-adv-x="1228" 
d="M96 180h1037v-180h-1037v180zM96 735h428v301h181v-301h428v-180h-428v-301h-181v301h-428v180z" />
    <glyph glyph-name="twosuperior" unicode="&#xb2;" horiz-adv-x="739" 
d="M317 1311q-114 0 -213 -60l-12 152q121 51 256 51q211 0 262.5 -90t51.5 -156t-48.5 -141.5t-113 -145t-130 -124t-102.5 -72.5v-4h408v-143h-613v155q20 16 59.5 47t125 103.5t159.5 160t74 154.5q0 81 -69.5 97t-94.5 16z" />
    <glyph glyph-name="threesuperior" unicode="&#xb3;" horiz-adv-x="739" 
d="M315 1454q165 0 259 -57.5t94 -174.5t-84 -152.5t-121 -41.5v-4q92 -12 152.5 -65.5t60.5 -140.5q0 -151 -108 -202t-243 -51t-259 33l20 156q28 -28 95 -36.5t97 -8.5q80 0 149 24.5t69 85.5q0 62 -64.5 98.5t-140.5 36.5h-101v144h95q66 0 134 30t68 84t-55.5 76.5
t-135.5 22.5t-190 -45l-8 147q121 41 217 41z" />
    <glyph glyph-name="acute" unicode="&#xb4;" horiz-adv-x="569" 
d="M332 1485h223l-268 -295h-137z" />
    <glyph glyph-name="mu" unicode="&#xb5;" horiz-adv-x="1251" 
d="M549 -25q-117 0 -193 41v-446h-192v1474h192v-540q0 -184 47.5 -274.5t174.5 -98.5q157 0 237 114.5t80 315.5v483h192v-1044h-186v166h-4q-43 -90 -137 -140.5t-211 -50.5z" />
    <glyph glyph-name="paragraph" unicode="&#xb6;" horiz-adv-x="1228" 
d="M41 1049q0 381 483 381h555v-1659h-180v1515h-235v-1515h-181v911q-204 0 -323 102.5t-119 264.5z" />
    <glyph glyph-name="periodcentered" unicode="&#xb7;" horiz-adv-x="569" 
d="M287 741q49 0 85 -34.5t36 -83.5t-36 -86t-85 -37t-85 37t-38 86q2 49 38 83.5t85 34.5z" />
    <glyph glyph-name="cedilla" unicode="&#xb8;" horiz-adv-x="569" 
d="M396 -199q-38 0 -83 -16l-34 39l131 176h96l-94 -123l4 -4q27 10 79 10t102 -39t50 -100t-24.5 -97t-81.5 -69t-157.5 -33t-176.5 43l37 70q78 -31 125 -31q123 0 123 94q0 41 -29 60.5t-67 19.5z" />
    <glyph glyph-name="onesuperior" unicode="&#xb9;" horiz-adv-x="739" 
d="M496 1442v-864h-181v708l-143 -112l-70 94l228 174h166z" />
    <glyph glyph-name="ordmasculine" unicode="&#xba;" horiz-adv-x="813" 
d="M221 1124q0 -145 65.5 -178t142 -33t119 59.5t42.5 148.5t-44 151.5t-140.5 62.5t-140.5 -62.5t-44 -148.5zM405.5 795q-152.5 0 -252.5 94.5t-100 237.5t97 235t255.5 92t255.5 -91.5t97 -235.5q0 -143 -100 -237.5t-252.5 -94.5z" />
    <glyph glyph-name="guillemotright" unicode="&#xbb;" 
d="M621 551l-293 -414h-181l267 414l-267 414h181zM1034 551l-293 -414h-180l266 414l-266 414h180z" />
    <glyph glyph-name="onequarter" unicode="&#xbc;" horiz-adv-x="1708" 
d="M1354 170h-434v125l376 569h238v-551h106v-143h-106v-170h-180v170zM1354 721h-4l-263 -408h267v408zM461 1442v-864h-180v708l-144 -112l-69 94l227 174h166zM1180 1475h147l-887 -1520h-147z" />
    <glyph glyph-name="onehalf" unicode="&#xbd;" horiz-adv-x="1708" 
d="M1626 631q0 -65 -48 -141t-112.5 -146t-130 -124t-102.5 -73v-4h407v-143h-612v156q20 16 59 46.5t199 165t160 253.5q0 55 -52 83.5t-112 28.5q-114 0 -213 -59l-12 151q121 51 256 52q212 0 262.5 -90.5t50.5 -155.5zM461 1442v-864h-180v708l-144 -112l-69 94l227 174
h166zM1116 1475h148l-887 -1520h-148z" />
    <glyph glyph-name="threequarters" unicode="&#xbe;" horiz-adv-x="1708" 
d="M1354 170h-434v125l376 569h238v-551h106v-143h-106v-170h-180v170zM1354 721h-4l-263 -408h267v408zM315 1454q165 0 259 -57.5t94 -174.5t-84 -152.5t-121 -41.5v-4q92 -12 152.5 -65.5t60.5 -140.5q0 -151 -108 -202t-243 -51t-259 33l20 156q28 -28 95 -36.5t97 -8.5
q80 0 149 24.5t69 85.5q0 62 -64.5 98.5t-140.5 36.5h-101v144h95q66 0 134 30t68 84t-55.5 76.5t-135.5 22.5t-190 -45l-8 147q121 41 217 41zM1268 1475h147l-887 -1520h-147z" />
    <glyph glyph-name="questiondown" unicode="&#xbf;" horiz-adv-x="1024" 
d="M625 815h-230v229h230v-229zM872 -342q-159 -68 -340 -68q-180 0 -311 100t-131 273q0 132 70.5 227t120 149.5t82.5 104.5t42 84.5t9 77.5v37h192v-43q0 -98 -28 -160t-78 -120q-107 -124 -150 -189.5t-43 -136.5q0 -118 72 -170.5t176 -52.5q190 0 303 82z" />
    <glyph glyph-name="Agrave" unicode="&#xc0;" horiz-adv-x="1478" 
d="M735 1237l-284 -709h569zM635 1430h215l604 -1430h-223l-146 360h-700l-145 -360h-215zM874 1534h-137l-268 295h223z" />
    <glyph glyph-name="Aacute" unicode="&#xc1;" horiz-adv-x="1478" 
d="M735 1237l-284 -709h569zM635 1430h215l604 -1430h-223l-146 360h-700l-145 -360h-215zM786 1829h224l-269 -295h-137z" />
    <glyph glyph-name="Acircumflex" unicode="&#xc2;" horiz-adv-x="1478" 
d="M735 1237l-284 -709h569zM635 1430h215l604 -1430h-223l-146 360h-700l-145 -360h-215zM645 1829h186l205 -295h-164l-135 201l-133 -201h-162z" />
    <glyph glyph-name="Atilde" unicode="&#xc3;" horiz-adv-x="1478" 
d="M735 1237l-284 -709h569zM635 1430h215l604 -1430h-223l-146 360h-700l-145 -360h-215zM900 1544q-46 0 -88 16t-118 46q-76 32 -118 34q-43 2 -65 -30t-26 -66h-94q10 85 55 158q45 72 118 72q74 0 151 -33q75 -33 113 -47t78 -16t62 29q22 32 25 67h94
q-18 -149 -105 -206q-36 -24 -82 -24z" />
    <glyph glyph-name="Adieresis" unicode="&#xc4;" horiz-adv-x="1478" 
d="M735 1237l-284 -709h569zM635 1430h215l604 -1430h-223l-146 360h-700l-145 -360h-215zM811 1753h193v-205h-193v205zM475 1753h193v-205h-193v205z" />
    <glyph glyph-name="Aring" unicode="&#xc5;" horiz-adv-x="1478" 
d="M735 1237l-284 -709h569zM635 1430h215l604 -1430h-223l-146 360h-700l-145 -360h-215zM739 1833q-51 0 -89 -38t-38 -89t38 -89t88 -38t89 39t39 89t-38 88t-89 38zM739 1915q43 -1 81 -17q79 -34 112 -111q16 -38 16 -81q0 -88 -62 -149q-62 -60 -149 -60
q-88 0 -146 61q-59 61 -60 148t61 148t147 61z" />
    <glyph glyph-name="AE" unicode="&#xc6;" horiz-adv-x="1933" 
d="M999 1286h-4l-450 -758h499zM1767 1430v-181h-567l27 -418h504v-180h-494l29 -471h522v-180h-711l-22 360h-609l-215 -360h-227l864 1430h899z" />
    <glyph glyph-name="Ccedilla" unicode="&#xc7;" horiz-adv-x="1251" 
d="M875 1454q175 0 311 -61l-17 -199q-135 80 -277 80t-242 -42q-208 -86 -285 -294q-39 -102 -39 -226q0 -244 155 -400t383 -156q127 0 247 41q38 12 65 28l12 -198q-114 -49 -326 -52q-25 0 -49 2l-76 -100l4 -4q27 10 79 10t103 -39q50 -39 50 -100q0 -103 -78 -150
t-182 -48q-103 -2 -181 42l37 70q78 -31 125 -31q123 0 123 94q0 41 -29 61t-68 19q-39 0 -81 -16l-35 39l120 161q-249 36 -409 192q-206 204 -206 539t213 537q212 201 553 201z" />
    <glyph glyph-name="Egrave" unicode="&#xc8;" 
d="M193 1430h800v-181h-596v-418h543v-180h-543v-471h596v-180h-800v1430zM705 1534h-138l-268 295h223z" />
    <glyph glyph-name="Eacute" unicode="&#xc9;" 
d="M193 1430h800v-181h-596v-418h543v-180h-543v-471h596v-180h-800v1430zM616 1829h224l-269 -295h-137z" />
    <glyph glyph-name="Ecircumflex" unicode="&#xca;" 
d="M193 1430h800v-181h-596v-418h543v-180h-543v-471h596v-180h-800v1430zM475 1829h187l204 -295h-164l-135 201l-133 -201h-162z" />
    <glyph glyph-name="Edieresis" unicode="&#xcb;" 
d="M193 1430h800v-181h-596v-418h543v-180h-543v-471h596v-180h-800v1430zM641 1753h193v-205h-193v205zM305 1753h193v-205h-193v205z" />
    <glyph glyph-name="Igrave" unicode="&#xcc;" horiz-adv-x="569" 
d="M182 1430h205v-1430h-205v1430zM420 1534h-137l-269 295h224z" />
    <glyph glyph-name="Iacute" unicode="&#xcd;" horiz-adv-x="569" 
d="M182 1430h205v-1430h-205v1430zM332 1829h223l-268 -295h-137z" />
    <glyph glyph-name="Icircumflex" unicode="&#xce;" horiz-adv-x="569" 
d="M182 1430h205v-1430h-205v1430zM190 1829h187l205 -295h-164l-135 201l-133 -201h-162z" />
    <glyph glyph-name="Idieresis" unicode="&#xcf;" horiz-adv-x="569" 
d="M182 1430h205v-1430h-205v1430zM356 1753h193v-205h-193v205zM20 1753h193v-205h-193v205z" />
    <glyph glyph-name="Eth" unicode="&#xd0;" horiz-adv-x="1478" 
d="M170 700h-139v131h139v599h422q324 0 543 -190t219 -529q0 -338 -201 -524.5t-561 -186.5h-422v700zM590 180q547 0 547 539q0 232 -147 381t-380 149h-235v-418h375v-131h-375v-520h215z" />
    <glyph glyph-name="Ntilde" unicode="&#xd1;" horiz-adv-x="1478" 
d="M180 1430h279l631 -1151h4v1151h204v-1430h-262l-647 1176h-4v-1176h-205v1430zM900 1544q-46 0 -88 16t-118 46q-76 32 -118 34q-43 2 -65 -30t-26 -66h-94q10 85 55 158q45 72 118 72q74 0 151 -33q75 -33 113 -47t78 -16t62 29q22 32 25 67h94q-18 -149 -105 -206
q-36 -24 -82 -24z" />
    <glyph glyph-name="Ograve" unicode="&#xd2;" horiz-adv-x="1593" 
d="M109 713q0 162 46 297q93 272 351 388q127 56 290 56q316 0 503 -205q186 -205 186 -535t-182 -533q-182 -204 -506 -206q-164 0 -292 55q-256 108 -350 386q-46 136 -46 297zM326 715q0 -231 118 -395t352 -164t353 165t119 394q0 230 -122 395q-122 164 -348 164
t-349 -164t-123 -395zM932 1534h-137l-269 295h224z" />
    <glyph glyph-name="Oacute" unicode="&#xd3;" horiz-adv-x="1593" 
d="M109 713q0 162 46 297q93 272 351 388q127 56 290 56q316 0 503 -205q186 -205 186 -535t-182 -533q-182 -204 -506 -206q-164 0 -292 55q-256 108 -350 386q-46 136 -46 297zM326 715q0 -231 118 -395t352 -164t353 165t119 394q0 230 -122 395q-122 164 -348 164
t-349 -164t-123 -395zM844 1829h223l-268 -295h-137z" />
    <glyph glyph-name="Ocircumflex" unicode="&#xd4;" horiz-adv-x="1593" 
d="M109 713q0 162 46 297q93 272 351 388q127 56 290 56q316 0 503 -205q186 -205 186 -535t-182 -533q-182 -204 -506 -206q-164 0 -292 55q-256 108 -350 386q-46 136 -46 297zM326 715q0 -231 118 -395t352 -164t353 165t119 394q0 230 -122 395q-122 164 -348 164
t-349 -164t-123 -395zM702 1829h187l205 -295h-164l-135 201l-133 -201h-162z" />
    <glyph glyph-name="Otilde" unicode="&#xd5;" horiz-adv-x="1593" 
d="M109 713q0 162 46 297q93 272 351 388q127 56 290 56q316 0 503 -205q186 -205 186 -535t-182 -533q-182 -204 -506 -206q-164 0 -292 55q-256 108 -350 386q-46 136 -46 297zM326 715q0 -231 118 -395t352 -164t353 165t119 394q0 230 -122 395q-122 164 -348 164
t-349 -164t-123 -395zM554 1750q34 24 88 24t162 -47t153 -49q46 -3 68 29t26 67h94q-18 -150 -106 -206q-36 -24 -82 -24t-88 16t-118 46q-76 31 -118 34q-43 2 -65 -30t-25 -66h-94q18 147 105 206z" />
    <glyph glyph-name="Odieresis" unicode="&#xd6;" horiz-adv-x="1593" 
d="M109 713q0 162 46 297q93 272 351 388q127 56 290 56q316 0 503 -205q186 -205 186 -535t-182 -533q-182 -204 -506 -206q-164 0 -292 55q-256 108 -350 386q-46 136 -46 297zM326 715q0 -231 118 -395t352 -164t353 165t119 394q0 230 -122 395q-122 164 -348 164
t-349 -164t-123 -395zM868 1753h193v-205h-193v205zM532 1753h193v-205h-193v205z" />
    <glyph glyph-name="multiply" unicode="&#xd7;" horiz-adv-x="1228" 
d="M139 866l127 127l348 -350l349 350l127 -127l-351 -348l351 -348l-127 -127l-349 350l-348 -350l-127 127l348 348z" />
    <glyph glyph-name="Oslash" unicode="&#xd8;" horiz-adv-x="1593" 
d="M797 156q233 0 352 165t119 393q0 229 -115 386l-649 -842q115 -102 293 -102zM309 162q-200 200 -200 541t186.5 546t501.5 205q232 0 413 -127l109 141l74 -57l-111 -145q203 -207 203 -545q0 -337 -182.5 -541.5t-505.5 -204.5q-248 0 -416 125l-111 -143l-77 53z
M797 1274q-226 0 -348.5 -163.5t-122.5 -398.5q0 -236 112 -384l652 843q-125 107 -293 103z" />
    <glyph glyph-name="Ugrave" unicode="&#xd9;" horiz-adv-x="1478" 
d="M389 618q0 -466 350 -462q278 0 333 275q17 85 18 187v812h204v-838q0 -303 -144 -460t-410 -157t-411 157q-144 157 -145 460v838h205v-812zM874 1534h-137l-268 295h223z" />
    <glyph glyph-name="Uacute" unicode="&#xda;" horiz-adv-x="1478" 
d="M389 618q0 -466 350 -462q278 0 333 275q17 85 18 187v812h204v-838q0 -303 -144 -460t-410 -157t-411 157q-144 157 -145 460v838h205v-812zM786 1829h224l-269 -295h-137z" />
    <glyph glyph-name="Ucircumflex" unicode="&#xdb;" horiz-adv-x="1478" 
d="M389 618q0 -466 350 -462q278 0 333 275q17 85 18 187v812h204v-838q0 -303 -144 -460t-410 -157t-411 157q-144 157 -145 460v838h205v-812zM645 1829h186l205 -295h-164l-135 201l-133 -201h-162z" />
    <glyph glyph-name="Udieresis" unicode="&#xdc;" horiz-adv-x="1478" 
d="M389 618q0 -466 350 -462q278 0 333 275q17 85 18 187v812h204v-838q0 -303 -144 -460t-410 -157t-411 157q-144 157 -145 460v838h205v-812zM811 1753h193v-205h-193v205zM475 1753h193v-205h-193v205z" />
    <glyph glyph-name="Yacute" unicode="&#xdd;" horiz-adv-x="1366" 
d="M786 0h-204v598l-559 832h239l426 -642l416 642h239l-557 -832v-598zM731 1829h223l-268 -295h-137z" />
    <glyph glyph-name="Thorn" unicode="&#xde;" 
d="M375 543h203q111 0 198.5 60.5t87.5 186.5q0 127 -99.5 188.5t-215.5 61.5h-174v-497zM170 1430h205v-209h170q376 0 456 -153.5t80 -273.5q0 -222 -145.5 -327t-360.5 -105h-200v-362h-205v1430z" />
    <glyph glyph-name="germandbls" unicode="&#xdf;" horiz-adv-x="1251" 
d="M645 143q133 0 215 78t82 215q0 244 -150.5 269.5t-234.5 25.5v156q159 0 239.5 60t80.5 206q0 101 -61 176.5t-158 75.5q-167 0 -234.5 -119.5t-67.5 -284.5v-1001h-192v971q0 290 117.5 440t384.5 150q160 0 287.5 -105t127.5 -297q0 -260 -239 -334v-4
q139 -15 222 -126t83 -251q0 -195 -121 -325.5t-330 -130.5q-107 0 -200 28v162q80 -35 149 -35z" />
    <glyph glyph-name="agrave" unicode="&#xe0;" 
d="M299 316q0 -93 65 -141q56 -44 130 -44q143 0 217 79t73 196v92l-122 4q-225 0 -321 -91q-42 -39 -42 -95zM557 1069q225 0 323 -108q97 -109 97 -324v-432q0 -159 8 -205h-180v135h-4q-63 -99 -206 -143q-123 -38 -270 1q-231 61 -231 314q0 92 48 158q90 124 278 163
q86 17 152 17h110q45 0 102 -4q0 135 -56 204t-216 69t-289 -107l-10 164q164 98 344 98zM705 1190h-138l-268 295h223z" />
    <glyph glyph-name="aacute" unicode="&#xe1;" 
d="M299 316q0 -93 65 -141q56 -44 130 -44q143 0 217 79t73 196v92l-122 4q-225 0 -321 -91q-42 -39 -42 -95zM557 1069q225 0 323 -108q97 -109 97 -324v-432q0 -159 8 -205h-180v135h-4q-63 -99 -206 -143q-123 -38 -270 1q-231 61 -231 314q0 92 48 158q90 124 278 163
q86 17 152 17h110q45 0 102 -4q0 135 -56 204t-216 69t-289 -107l-10 164q164 98 344 98zM616 1485h224l-269 -295h-137z" />
    <glyph glyph-name="acircumflex" unicode="&#xe2;" 
d="M299 316q0 -93 65 -141q56 -44 130 -44q143 0 217 79t73 196v92l-122 4q-225 0 -321 -91q-42 -39 -42 -95zM557 1069q225 0 323 -108q97 -109 97 -324v-432q0 -159 8 -205h-180v135h-4q-63 -99 -206 -143q-123 -38 -270 1q-231 61 -231 314q0 92 48 158q90 124 278 163
q86 17 152 17h110q45 0 102 -4q0 135 -56 204t-216 69t-289 -107l-10 164q164 98 344 98zM475 1485h187l204 -295h-164l-135 201l-133 -201h-162z" />
    <glyph glyph-name="atilde" unicode="&#xe3;" 
d="M299 316q0 -93 65 -141q56 -44 130 -44q143 0 217 79t73 196v92l-122 4q-225 0 -321 -91q-42 -39 -42 -95zM557 1069q225 0 323 -108q97 -109 97 -324v-432q0 -159 8 -205h-180v135h-4q-63 -99 -206 -143q-123 -38 -270 1q-231 61 -231 314q0 92 48 158q90 124 278 163
q86 17 152 17h110q45 0 102 -4q0 135 -56 204t-216 69t-289 -107l-10 164q164 98 344 98zM812 1224q-36 -24 -90 -24t-129 32t-113 48q-38 14 -78 16t-61 -30q-22 -32 -26 -66h-94q10 85 55 158q45 72 118 72q74 0 151 -33q75 -33 113 -47t78 -16t62 29q22 32 25 67h95
q-18 -148 -106 -206z" />
    <glyph glyph-name="adieresis" unicode="&#xe4;" 
d="M299 316q0 -93 65 -141q56 -44 130 -44q143 0 217 79t73 196v92l-122 4q-225 0 -321 -91q-42 -39 -42 -95zM557 1069q225 0 323 -108q97 -109 97 -324v-432q0 -159 8 -205h-180v135h-4q-63 -99 -206 -143q-123 -38 -270 1q-231 61 -231 314q0 92 48 158q90 124 278 163
q86 17 152 17h110q45 0 102 -4q0 135 -56 204t-216 69t-289 -107l-10 164q164 98 344 98zM641 1409h193v-205h-193v205zM305 1409h193v-205h-193v205z" />
    <glyph glyph-name="aring" unicode="&#xe5;" 
d="M299 316q0 -93 65 -141q56 -44 130 -44q143 0 217 79t73 196v92l-122 4q-225 0 -321 -91q-42 -39 -42 -95zM557 1069q225 0 323 -108q97 -109 97 -324v-432q0 -159 8 -205h-180v135h-4q-63 -99 -206 -143q-123 -38 -270 1q-231 61 -231 314q0 92 48 158q90 124 278 163
q86 17 152 17h110q45 0 102 -4q0 135 -56 204t-216 69t-289 -107l-10 164q164 98 344 98zM569 1489q-51 0 -89 -38t-38 -89t38 -89t88 -38t89 39t39 89t-38 88t-89 38zM569 1571q43 -1 81 -17q79 -34 112 -111q16 -38 16 -81t-16 -81t-45 -67q-61 -61 -149 -61t-147 60
t-60 149q-1 88 61 148q62 61 147 61z" />
    <glyph glyph-name="ae" unicode="&#xe6;" horiz-adv-x="1820" 
d="M1532 623q0 112 -72.5 201t-190.5 89t-195 -83.5t-77 -206.5h535zM289 314q0 -93 60 -138t137 -45q144 0 231.5 107.5t87.5 257.5l-184 6q-211 0 -271.5 -67t-60.5 -121zM915 887q102 182 374 182q234 0 341 -164t107 -426h-740q0 -143 97 -245.5t245 -102.5q78 0 156 32
t133 77v-195q-154 -70 -299 -70q-245 0 -335.5 87.5t-114.5 156.5h-5q-30 -115 -138.5 -179.5t-256.5 -64.5t-271.5 91t-123.5 243q0 191 157 263.5t347 72.5l217 -10q0 143 -81.5 210.5t-219.5 67.5q-137 0 -285 -106l-10 162q158 100 343 100t261 -66.5t102 -115.5z" />
    <glyph glyph-name="ccedilla" unicode="&#xe7;" horiz-adv-x="909" 
d="M610 -117q52 0 102 -39t50 -100q0 -103 -78 -150t-183 -48q-104 -2 -179 42l36 70q78 -31 125 -31q123 0 123 94q0 41 -28 61q-29 19 -68 19t-82 -16l-35 39l119 159q-170 30 -286 153q-148 156 -148 391t148 388q148 154 384 154q135 0 234 -41l-17 -160
q-108 45 -198 45q-164 0 -256 -118t-91 -275q1 -158 82 -263q94 -126 267 -126q113 0 207 59l14 -172q-81 -40 -242 -43h-8l-76 -98l4 -4q28 10 80 10z" />
    <glyph glyph-name="egrave" unicode="&#xe8;" 
d="M840 623q0 123 -70 207q-70 85 -194 84q-125 -1 -202 -96q-58 -72 -75 -195h541zM94 536q0 237 134 385q135 148 356 148q358 0 437 -356q24 -109 23 -234h-745q0 -148 103 -251q101 -97 241 -97q85 0 179 33t143 72v-193q-29 -10 -60 -21t-92 -28t-189 -18t-230 40
q-300 122 -300 520zM705 1190h-138l-268 295h223z" />
    <glyph glyph-name="eacute" unicode="&#xe9;" 
d="M840 623q0 123 -70 207q-70 85 -194 84q-125 -1 -202 -96q-58 -72 -75 -195h541zM94 536q0 237 134 385q135 148 356 148q358 0 437 -356q24 -109 23 -234h-745q0 -148 103 -251q101 -97 241 -97q85 0 179 33t143 72v-193q-29 -10 -60 -21t-92 -28t-189 -18t-230 40
q-300 122 -300 520zM616 1485h224l-269 -295h-137z" />
    <glyph glyph-name="ecircumflex" unicode="&#xea;" 
d="M840 623q0 123 -70 207q-70 85 -194 84q-125 -1 -202 -96q-58 -72 -75 -195h541zM94 536q0 237 134 385q135 148 356 148q358 0 437 -356q24 -109 23 -234h-745q0 -148 103 -251q101 -97 241 -97q85 0 179 33t143 72v-193q-29 -10 -60 -21t-92 -28t-189 -18t-230 40
q-300 122 -300 520zM475 1485h187l204 -295h-164l-135 201l-133 -201h-162z" />
    <glyph glyph-name="edieresis" unicode="&#xeb;" 
d="M840 623q0 123 -70 207q-70 85 -194 84q-125 -1 -202 -96q-58 -72 -75 -195h541zM94 536q0 237 134 385q135 148 356 148q358 0 437 -356q24 -109 23 -234h-745q0 -148 103 -251q101 -97 241 -97q85 0 179 33t143 72v-193q-29 -10 -60 -21t-92 -28t-189 -18t-230 40
q-300 122 -300 520zM641 1409h193v-205h-193v205zM305 1409h193v-205h-193v205z" />
    <glyph glyph-name="igrave" unicode="&#xec;" horiz-adv-x="569" 
d="M188 1044h193v-1044h-193v1044zM420 1190h-137l-269 295h224z" />
    <glyph glyph-name="iacute" unicode="&#xed;" horiz-adv-x="569" 
d="M188 1044h193v-1044h-193v1044zM332 1485h223l-268 -295h-137z" />
    <glyph glyph-name="icircumflex" unicode="&#xee;" horiz-adv-x="569" 
d="M188 1044h193v-1044h-193v1044zM190 1485h187l205 -295h-164l-135 201l-133 -201h-162z" />
    <glyph glyph-name="idieresis" unicode="&#xef;" horiz-adv-x="569" 
d="M188 1044h193v-1044h-193v1044zM356 1409h193v-205h-193v205zM20 1409h193v-205h-193v205z" />
    <glyph glyph-name="eth" unicode="&#xf0;" horiz-adv-x="1251" 
d="M1157 533q0 -238 -148.5 -398t-381.5 -160t-383 159.5t-150 394.5t148.5 387.5t384.5 152.5q94 0 172 -45h4q-96 129 -223 221l-265 -141l-94 108l225 121q-107 66 -256 119l148 109q159 -60 280 -136l250 136l95 -109l-213 -115q286 -220 346.5 -450t60.5 -354z
M383.5 249.5q84.5 -118.5 242.5 -118.5t242 118.5t84 272.5t-87.5 272.5t-237.5 118.5t-239 -117.5t-89 -272.5t84.5 -273.5z" />
    <glyph glyph-name="ntilde" unicode="&#xf1;" horiz-adv-x="1251" 
d="M164 1044h186v-165h4q44 90 138 140t204 50q203 0 297 -119t94 -329v-621h-192v541q0 184 -47 274t-174 98q-159 0 -237 -112t-81 -318v-483h-192v1044zM384 1406q34 24 88 24t162 -47t153 -49q46 -3 68 29t26 67h94q-18 -150 -106 -206q-36 -24 -90 -24t-129 32
q-74 32 -112 48q-38 14 -78 16t-62 -30t-25 -66h-94q18 147 105 206z" />
    <glyph glyph-name="ograve" unicode="&#xf2;" horiz-adv-x="1251" 
d="M299 524q0 -159 79 -267q90 -126 248 -126t242 118t84 274q0 155 -88 273q-88 119 -237 117q-78 0 -139 -32q-120 -66 -166 -214q-22 -71 -23 -143zM243 916q149 153 385 153t382 -153q147 -153 147 -387t-149 -394t-380 -160q-232 0 -383 159t-151 394t149 388z
M762 1190h-137l-269 295h224z" />
    <glyph glyph-name="oacute" unicode="&#xf3;" horiz-adv-x="1251" 
d="M299 524q0 -159 79 -267q90 -126 248 -126t242 118t84 274q0 155 -88 273q-88 119 -237 117q-78 0 -139 -32q-120 -66 -166 -214q-22 -71 -23 -143zM243 916q149 153 385 153t382 -153q147 -153 147 -387t-149 -394t-380 -160q-232 0 -383 159t-151 394t149 388z
M674 1485h223l-268 -295h-137z" />
    <glyph glyph-name="ocircumflex" unicode="&#xf4;" horiz-adv-x="1251" 
d="M299 524q0 -159 79 -267q90 -126 248 -126t242 118t84 274q0 155 -88 273q-88 119 -237 117q-78 0 -139 -32q-120 -66 -166 -214q-22 -71 -23 -143zM243 916q149 153 385 153t382 -153q147 -153 147 -387t-149 -394t-380 -160q-232 0 -383 159t-151 394t149 388z
M532 1485h187l205 -295h-164l-135 201l-133 -201h-162z" />
    <glyph glyph-name="otilde" unicode="&#xf5;" horiz-adv-x="1251" 
d="M299 524q0 -159 79 -267q90 -126 248 -126t242 118t84 274q0 155 -88 273q-88 119 -237 117q-78 0 -139 -32q-120 -66 -166 -214q-22 -71 -23 -143zM243 916q149 153 385 153t382 -153q147 -153 147 -387t-149 -394t-380 -160q-232 0 -383 159t-151 394t149 388z
M384 1406q34 24 88 24t162 -47t153 -49q46 -3 68 29t26 67h94q-18 -150 -106 -206q-36 -24 -90 -24t-129 32q-74 32 -112 48q-38 14 -78 16t-62 -30t-25 -66h-94q18 147 105 206z" />
    <glyph glyph-name="odieresis" unicode="&#xf6;" horiz-adv-x="1251" 
d="M299 524q0 -159 79 -267q90 -126 248 -126t242 118t84 274q0 155 -88 273q-88 119 -237 117q-78 0 -139 -32q-120 -66 -166 -214q-22 -71 -23 -143zM243 916q149 153 385 153t382 -153q147 -153 147 -387t-149 -394t-380 -160q-232 0 -383 159t-151 394t149 388z
M698 1409h193v-205h-193v205zM362 1409h193v-205h-193v205z" />
    <glyph glyph-name="divide" unicode="&#xf7;" horiz-adv-x="1228" 
d="M614 250q63 0 110.5 -46t47.5 -108t-46 -110.5t-93 -48.5q-81 0 -127.5 46.5t-46.5 111.5t46 110t109 45zM505 1054q46 46 108 46t110.5 -48t48.5 -110t-47 -109t-93 -47q-80 0 -126.5 46t-46.5 111t46 111zM96 608h1037v-180h-1037v180z" />
    <glyph glyph-name="oslash" unicode="&#xf8;" horiz-adv-x="1251" 
d="M248 133q-154 158 -154 395q0 236 148.5 388.5t384.5 152.5q184 0 313 -94l109 133l61 -51l-109 -133q156 -152 156 -390t-148.5 -398.5t-381.5 -160.5q-178 0 -318 103l-116 -141l-62 51zM627 131q158 0 241.5 118.5t83.5 267.5q0 148 -73 257l-461 -563q84 -80 209 -80
zM627 913q-150 0 -239 -117.5t-89 -266.5q0 -148 68 -253l458 560q-81 77 -198 77z" />
    <glyph glyph-name="ugrave" unicode="&#xf9;" horiz-adv-x="1251" 
d="M1087 0h-186v166h-4q-43 -90 -137 -140t-205 -51q-203 0 -297 119t-94 330v620h192v-540q0 -184 47 -274t175 -99q157 0 237 115t80 315v483h192v-1044zM762 1190h-137l-269 295h224z" />
    <glyph glyph-name="uacute" unicode="&#xfa;" horiz-adv-x="1251" 
d="M1087 0h-186v166h-4q-43 -90 -137 -140t-205 -51q-203 0 -297 119t-94 330v620h192v-540q0 -184 47 -274t175 -99q157 0 237 115t80 315v483h192v-1044zM674 1485h223l-268 -295h-137z" />
    <glyph glyph-name="ucircumflex" unicode="&#xfb;" horiz-adv-x="1251" 
d="M1087 0h-186v166h-4q-43 -90 -137 -140t-205 -51q-203 0 -297 119t-94 330v620h192v-540q0 -184 47 -274t175 -99q157 0 237 115t80 315v483h192v-1044zM532 1485h187l205 -295h-164l-135 201l-133 -201h-162z" />
    <glyph glyph-name="udieresis" unicode="&#xfc;" horiz-adv-x="1251" 
d="M1087 0h-186v166h-4q-43 -90 -137 -140t-205 -51q-203 0 -297 119t-94 330v620h192v-540q0 -184 47 -274t175 -99q157 0 237 115t80 315v483h192v-1044zM698 1409h193v-205h-193v205zM362 1409h193v-205h-193v205z" />
    <glyph glyph-name="yacute" unicode="&#xfd;" horiz-adv-x="1024" 
d="M186 -299q52 0 98 38q83 72 110 171q12 41 12 53t-14 46q-13 34 -23 61l-355 974h211l281 -864h4l287 864h194l-385 -1067q-28 -77 -58 -153q-67 -169 -183 -240q-65 -39 -139 -39t-152 15l12 157q47 -16 100 -16zM559 1485h223l-268 -295h-137z" />
    <glyph glyph-name="thorn" unicode="&#xfe;" horiz-adv-x="1251" 
d="M356 527q0 -156 78 -276t225 -120t222.5 126.5t70.5 268.5q4 157 -68 272t-219 115t-228 -115t-81 -271zM356 143v-573h-192v1966h192v-635h4q105 168 333 168t346 -151t118 -383t-113.5 -396t-344.5 -164q-230 0 -339 168h-4z" />
    <glyph glyph-name="ydieresis" unicode="&#xff;" horiz-adv-x="1024" 
d="M186 -299q52 0 98 38q83 72 110 171q12 41 12 53t-14 46q-13 34 -23 61l-355 974h211l281 -864h4l287 864h194l-385 -1067q-28 -77 -58 -153q-67 -169 -183 -240q-65 -39 -139 -39t-152 15l12 157q47 -16 100 -16zM584 1409h192v-205h-192v205zM248 1409h192v-205h-192
v205z" />
    <glyph glyph-name="dotlessi" unicode="&#x131;" horiz-adv-x="569" 
d="M188 1044h193v-1044h-193v1044z" />
    <glyph glyph-name="Lslash" unicode="&#x141;" horiz-adv-x="1024" 
d="M180 1430h205v-680l401 235v-147l-401 -236v-422h598v-180h-803v483l-131 -77v147l131 78v799z" />
    <glyph glyph-name="lslash" unicode="&#x142;" horiz-adv-x="569" 
d="M188 1536h193v-543l131 105v-146l-131 -104v-848h-193v696l-131 -104v145l131 105v694z" />
    <glyph glyph-name="OE" unicode="&#x152;" horiz-adv-x="1933" 
d="M1792 1430v-181h-578v-418h537v-180h-537v-471h592v-180h-594l-319 -12q-350 0 -567 198.5t-217 534.5t219 528.5t569 192.5l299 -12h596zM885 1262q-259 0 -409 -136.5t-150 -398.5t155 -410.5t406 -148.5q76 0 123 12v1069q-101 13 -125 13z" />
    <glyph glyph-name="oe" unicode="&#x153;" horiz-adv-x="1933" 
d="M1645 623q0 113 -73.5 201.5t-190.5 88.5t-194 -83.5t-77 -206.5h535zM367.5 241q78.5 -110 229.5 -110q150 0 235.5 119.5t85.5 269.5t-82.5 271.5t-234.5 121.5t-232 -122.5t-80 -280.5q0 -159 78.5 -269zM1012 201q-107 -226 -442 -226q-89 0 -185 41t-198.5 155
t-102.5 343t142.5 392t375.5 163q143 0 252 -51t164 -154q49 104 147.5 154.5t228.5 50.5q243 0 349 -164.5t106 -425.5h-739q0 -144 96.5 -246t245.5 -102q78 0 156 32t133 77v-195q-154 -70 -301 -70q-148 0 -261.5 54.5t-166.5 171.5z" />
    <glyph glyph-name="Scaron" unicode="&#x160;" horiz-adv-x="1024" 
d="M711 389q0 80 -45 130t-114 88t-149 73q-81 35 -149 83q-158 111 -158 298t129 290t313 103t322 -51l-29 -189q-39 14 -102 37t-136 23t-117 -9q-163 -33 -163 -189q0 -62 45 -106t114 -81t149 -73q307 -138 307 -415q0 -218 -147 -322t-375 -104q-108 0 -293 60l20 190
q186 -69 294 -69t196 60t88 173zM606 1534h-186l-205 295h164l135 -201l133 201h162z" />
    <glyph glyph-name="scaron" unicode="&#x161;" horiz-adv-x="796" 
d="M522 283q0 45 -45 88t-142 87t-148 81q-50 37 -84 86q-33 49 -33 127q1 152 102 234q101 83 266 83q100 0 240 -41l-16 -168q-25 16 -93 34q-68 19 -126 19q-58 -1 -113 -31q-56 -30 -56 -90t41 -100q41 -41 181 -102q139 -60 197 -152q34 -53 34 -137q0 -156 -105 -240
t-272 -85q-166 -1 -274 57l10 172q119 -74 244 -74t174 78q18 29 18 74zM494 1190h-187l-205 295h164l135 -201l134 201h161z" />
    <glyph glyph-name="Ydieresis" unicode="&#x178;" horiz-adv-x="1366" 
d="M786 0h-204v598l-559 832h239l426 -642l416 642h239l-557 -832v-598zM756 1753h192v-205h-192v205zM420 1753h192v-205h-192v205z" />
    <glyph glyph-name="Zcaron" unicode="&#x17d;" 
d="M90 1249v181h952v-185l-739 -1065h752v-180h-989v184l741 1065h-717zM664 1534h-187l-205 295h164l135 -201l134 201h161z" />
    <glyph glyph-name="zcaron" unicode="&#x17e;" horiz-adv-x="1024" 
d="M117 889v155h796v-167l-602 -721h625v-156h-848v168l602 721h-573zM606 1190h-186l-205 295h164l135 -201l133 201h162z" />
    <glyph glyph-name="florin" unicode="&#x192;" 
d="M937 1286q-80 0 -117.5 -53.5t-61.5 -171.5l-43 -213h258l-29 -143h-258l-141 -754q-16 -88 -37 -162t-83 -159t-253 -85q-56 0 -104 11l32 165q28 -8 69 -8q79 0 115 56.5t56 160.5l145 775h-229l27 143h229l43 223q33 179 111 281t256 102q39 0 75.5 -6t73.5 -10
l-29 -164q-69 12 -105 12z" />
    <glyph glyph-name="circumflex" unicode="&#x2c6;" horiz-adv-x="569" 
d="M190 1485h187l205 -295h-164l-135 201l-133 -201h-162z" />
    <glyph glyph-name="caron" unicode="&#x2c7;" horiz-adv-x="569" 
d="M379 1190h-186l-205 295h164l135 -201l133 201h162z" />
    <glyph glyph-name="breve" unicode="&#x2d8;" horiz-adv-x="569" 
d="M284 1319q184 0 216 160h100q-14 -133 -97 -206t-218 -73t-218 73t-98 206h101q30 -160 214 -160z" />
    <glyph glyph-name="dotaccent" unicode="&#x2d9;" horiz-adv-x="569" 
d="M188 1409h193v-205h-193v205z" />
    <glyph glyph-name="ring" unicode="&#x2da;" horiz-adv-x="569" 
d="M284.5 1489q-51.5 0 -89 -38t-37.5 -89t38 -89t88 -38t89 39t39 89t-38 88t-89.5 38zM285 1571q43 0 80.5 -16.5t66.5 -45t45.5 -66.5t16.5 -81t-16.5 -81t-45.5 -66.5t-66.5 -45t-80.5 -16.5t-81 16.5t-66.5 45t-45 66.5t-16.5 81t16.5 81t45 66.5t66.5 45t81 16.5z" />
    <glyph glyph-name="ogonek" unicode="&#x2db;" horiz-adv-x="569" 
d="M295 -265q0 -38 19.5 -60.5t47.5 -22.5q68 0 115 59l64 -16q-45 -66 -98.5 -95.5t-127.5 -29.5t-125 30t-51 138q0 78 78 147.5t156 114.5h98q-105 -86 -133.5 -130t-35.5 -70.5t-7 -64.5z" />
    <glyph glyph-name="tilde" unicode="&#x2dc;" horiz-adv-x="569" 
d="M292.5 1382.5q111.5 -47.5 154.5 -49.5q44 -2 66 30t26 67h94q-18 -149 -79.5 -189.5t-107.5 -40.5t-88.5 15.5t-116.5 47t-118 33.5q-45 2 -66.5 -29.5t-25.5 -66.5h-94q18 147 78.5 188.5t113.5 41.5q52 0 163.5 -47.5z" />
    <glyph glyph-name="hungarumlaut" unicode="&#x2dd;" horiz-adv-x="569" 
d="M518 1485h223l-268 -295h-137zM147 1485h224l-269 -295h-137z" />
    <glyph glyph-name="endash" unicode="&#x2013;" horiz-adv-x="1024" 
d="M0 623h1024v-144h-1024v144z" />
    <glyph glyph-name="emdash" unicode="&#x2014;" horiz-adv-x="2048" 
d="M0 623h2048v-144h-2048v144z" />
    <glyph glyph-name="quoteleft" unicode="&#x2018;" horiz-adv-x="569" 
d="M334 928h-228l175 502h182z" />
    <glyph glyph-name="quoteright" unicode="&#x2019;" horiz-adv-x="569" 
d="M233 1430h230l-180 -502h-177z" />
    <glyph glyph-name="quotesinglbase" unicode="&#x201a;" horiz-adv-x="569" 
d="M236 229h227l-174 -501h-183z" />
    <glyph glyph-name="quotedblleft" unicode="&#x201c;" 
d="M811 928h-225l172 502h184zM426 928h-229l176 502h180z" />
    <glyph glyph-name="quotedblright" unicode="&#x201d;" 
d="M715 1430h227l-174 -502h-182zM326 1430h227l-174 -502h-182z" />
    <glyph glyph-name="quotedblbase" unicode="&#x201e;" 
d="M715 229h227l-174 -501h-182zM326 229h227l-174 -501h-182z" />
    <glyph glyph-name="dagger" unicode="&#x2020;" 
d="M479 928h-342v143h342v359h180v-359h342v-143h-342v-928h-180v928z" />
    <glyph glyph-name="daggerdbl" unicode="&#x2021;" 
d="M659 332v-332h-180v332h-342v143h342v479h-342v144h342v332h180v-332h342v-144h-342v-479h342v-143h-342z" />
    <glyph glyph-name="bullet" unicode="&#x2022;" horiz-adv-x="1024" 
d="M156 714q0 151 103 254t252.5 103t254 -102.5t104.5 -254.5t-105 -255t-253.5 -103t-252 103.5t-103.5 254.5z" />
    <glyph glyph-name="ellipsis" unicode="&#x2026;" horiz-adv-x="2048" 
d="M1591 229h230v-229h-230v229zM909 229h230v-229h-230v229zM227 229h230v-229h-230v229z" />
    <glyph glyph-name="perthousand" unicode="&#x2030;" horiz-adv-x="2048" 
d="M440 1044q0 120 -20 193.5t-103 73.5q-84 0 -107.5 -78.5t-23.5 -149.5q0 -148 23.5 -226.5t103.5 -78.5q127 0 127 266zM1697 -25q-126 0 -198 118t-72 292q0 291 106.5 350.5t200.5 59.5q174 0 241 -113.5t67 -296.5q0 -281 -109.5 -345.5t-235.5 -64.5zM1735 651
q-127 0 -127 -227q0 -148 22.5 -226.5t104.5 -78.5q127 0 127 266q0 120 -20.5 193t-106.5 73zM1042 795q308 0 308 -410q0 -281 -110 -345.5t-235.5 -64.5t-197.5 118t-72 292q0 292 106.5 351t200.5 59zM1169 385q0 120 -19.5 193t-107.5 73q-114 0 -120.5 -116.5
t-6.5 -148.5q0 -106 23 -186.5t104 -80.5q127 0 127 266zM1047 1475h147l-887 -1520h-147zM313 1454q308 0 308 -410q0 -280 -110 -344.5t-236.5 -64.5t-197.5 117.5t-71 291.5q0 294 106.5 352t200.5 58z" />
    <glyph glyph-name="guilsinglleft" unicode="&#x2039;" horiz-adv-x="569" 
d="M41 551l293 414h180l-266 -414l266 -414h-180z" />
    <glyph glyph-name="guilsinglright" unicode="&#x203a;" horiz-adv-x="569" 
d="M528 551l-292 -414h-181l267 414l-267 414h181z" />
    <glyph glyph-name="fraction" unicode="&#x2044;" horiz-adv-x="342" 
d="M541 1475h147l-887 -1520h-147z" />
    <glyph glyph-name="trademark" unicode="&#x2122;" horiz-adv-x="2027" 
d="M991 1430h242l223 -576l219 576h242v-852h-156v651h-4l-239 -651h-127l-240 651h-4v-651h-156v852zM373 1286h-262v144h680v-144h-263v-708h-155v708z" />
    <glyph glyph-name="minus" unicode="&#x2212;" horiz-adv-x="1228" 
d="M96 608h1037v-180h-1037v180z" />
    <glyph glyph-name="fi" unicode="&#xfb01;" horiz-adv-x="1366" 
d="M985 1044h193v-1044h-193v1044zM1190 1278h-217v217h217v-217zM668 1405q-115 0 -151 -64t-36 -184v-113h277v-155h-277v-889h-192v889h-246v155h246v97q0 211 74.5 315.5t275.5 104.5q35 0 129 -13l-8 -155q-32 12 -92 12z" />
    <glyph glyph-name="fl" unicode="&#xfb02;" horiz-adv-x="1366" 
d="M985 1536h193v-1536h-193v1536zM668 1405q-115 0 -151 -64t-36 -184v-113h277v-155h-277v-889h-192v889h-246v155h246v97q0 211 74.5 315.5t275.5 104.5q35 0 129 -13l-8 -155q-32 12 -92 12z" />
  </font>
</defs>
</svg>
