<?xml version="1.0" standalone="no"?>
<!DOCTYPE svg PUBLIC "-//W3C//DTD SVG 1.1//EN" "http://www.w3.org/Graphics/SVG/1.1/DTD/svg11.dtd" >
<svg xmlns="http://www.w3.org/2000/svg">
<metadata>
Created by FontPrep 20130207 at Tue Dec  9 01:48:12 2014
 By Alexander Gunnarson
Copr. 1994 The Hoefler Type Foundry, Inc. http://www.typography.com
</metadata>
<defs>
<font id="070aeae288e439bc9a2eedd9742e6fbb" horiz-adv-x='1024' >
  <font-face 
    font-family="Historical-GreatPrimerUncials"
    font-weight="500"
    font-stretch="normal"
    units-per-em="2048"
    panose-1="0 0 0 0 0 0 0 0 0 0"
    ascent="1638"
    descent="-410"
    x-height="1124"
    cap-height="1638"
    bbox="-526.841 -922.762 3878.71 2272.12"
    underline-thickness="102"
    underline-position="-153"
    unicode-range="U+0020-FB02"
  />
<missing-glyph horiz-adv-x="1024" 
 />
    <glyph glyph-name=".notdef" horiz-adv-x="1024" 
 />
    <glyph glyph-name=".null" horiz-adv-x="0" 
 />
    <glyph glyph-name="nonmarkingreturn" horiz-adv-x="681" 
 />
    <glyph glyph-name="space" unicode=" " horiz-adv-x="1024" 
 />
    <glyph glyph-name="exclam" unicode="!" horiz-adv-x="483" 
d="M365 61q-22 -15 -59 -67t-81 -19q-8 6 -50 35t-62 45q-65 52 -68 90q-10 80 68 160t151 49q52 -10 102 -62t58 -115t-59 -116zM145 854q0 47 -20 80q-20 61 -21 160q-4 26 -17 76q-44 172 -21 225l-9 56q0 15 9 24q84 51 154 60q71 9 104 -11t43 -84t-17 -207t-26 -199
q-6 -42 -12 -200t-27 -238q0 -37 -60 -16q-83 23 -93 106q-5 43 4 82t9 86z" />
    <glyph glyph-name="quotedbl" unicode="&#x22;" horiz-adv-x="749" 
d="M379 1284q9 -44 -19 -77q-10 -13 -28 -36t-26 -35t-22 -46q-13 -33 -24 -52q-14 -14 -32 -49t-33 -51q6 -10 0 -18l-13 -9q-4 -27 -26 -43q-37 -33 -60 -20q-45 23 10 113q2 2 5 23t14 38l16 16q-4 14 6 28q9 12 8 26t7 25t22 52l13 11l16 49q4 10 8 10q8 10 11 35t10 35
q23 18 43 16t94 -41zM682 1284q9 -43 -10 -66q-18 -24 -36 -47t-28 -35q-8 -12 -21 -46q-13 -33 -24 -52q-13 -14 -33 -49t-32 -51q6 -10 0 -18l-13 -9q-4 -27 -26 -43q-37 -33 -60 -20q-45 23 11 113q2 2 4 21t14 40l16 16q-4 14 6 28q9 12 8 26t7 25t22 52l13 11l16 49
q4 10 8 10q8 10 12 35q3 25 9 35q23 18 43 16t94 -41z" />
    <glyph glyph-name="numbersign" unicode="#" horiz-adv-x="1382" 
d="M877 834q-12 4 -15 4l-291 -7q-2 -2 -14 -6q-59 -190 -94 -333l250 6q49 -6 53 -6q11 35 111 342zM948 838q0 -16 -57 -183q0 -27 -12 -65t-15 -53l-4 -50q69 0 144 9q6 0 18 12h88q20 10 45 -5t25 -46q0 -80 -152 -43l-27 -6q-37 8 -170 8v-27q-48 -144 -114 -381
q-4 -29 -29 -42t-43 -5t-24 16q-5 7 -11 13t-3 29t15 50q11 27 15 39t34 62t33 76t17 84q24 24 8 49l16 29v2h-14l-145 -7q-10 0 -51 4t-70 -10q-14 0 -21 2q-33 -63 -79 -272q-2 -4 6 -21q-2 -16 -25 -86q4 -18 -18 -40t-52 -11q-78 23 3 158v27q16 31 61 180q-4 8 -4 33
q12 14 18 34q-53 -8 -78 -8h-45q-134 -34 -163 27q-16 70 22 75t100 -1q63 -6 86 -7l101 2q8 31 32 89t31 88q0 18 49 165q-25 4 -79 -8t-84 -2l-13 -6q-16 10 -51 -1q-66 -21 -76 28q-4 25 7 43q29 25 32 24l289 4q18 39 12 72q8 25 17 35q12 27 21 93t24 97q10 102 32 125
t39 27q29 -2 49 -11t15 -40q-4 -31 -28 -89t-29 -81q-31 -80 -80 -228l119 2q53 12 75 11q33 -14 76 0q33 0 49 -2q18 57 23 77q-2 3 -2 15v20q0 19 26 45q10 23 14 78q3 55 21 82q0 4 -2 8t6 11q8 8 7 44q-2 36 12 52t37 13t38 -19q16 -29 15 -37q-48 -200 -80 -276
q-31 -76 -43 -113h278q29 4 49 -16t16 -40q-3 -20 -9 -29t-6 -12q-27 -18 -48 -16l-44 4q-21 2 -33 3q-12 0 -70 14t-90 12q-23 -6 -72 -6z" />
    <glyph glyph-name="dollar" unicode="$" horiz-adv-x="1351" 
d="M389 141q4 15 -3 25t-14 12q-6 2 -20 5t-44 13t-48 11q-63 -12 -86 -36t-53 -114q4 -14 9 -24q5 -11 8 -17q4 -6 12 -10t13 -7t20 -8t33 -12t32 5q100 -1 141 157zM686 594q-40 -8 -65 -8q-8 -30 -21 -61q-12 -31 -21 -54t-15 -37t-11 -26l59 -13q2 -2 62 -39
q16 48 44 130t34 100zM1037 311q6 65 -56 164q-2 2 -11 9t-14 18q-53 45 -104 71l-18 -4q-12 -31 -41 -115t-50 -130q41 -18 93 -64t104 -67q22 -8 48 9q26 16 31 34q16 56 18 75zM686 991q-4 17 -38 29t-42 18q-22 4 -34 13q-12 8 -70 8q-66 -61 -72 -111v-6q12 -25 55 -82
q8 -6 30 -10t26 -6q31 0 42 -1t16 5t40 22q6 14 28 50t19 71zM891 987q-141 -4 -143 -8v-18q-4 -5 -8 -23t-14 -37q-11 -19 -11 -33q8 -19 26 -15q19 3 39 0t62 -3q10 27 27 78q18 51 22 59zM1307 354q0 -31 -33 -55q-40 -15 -58 -33t-33 -29t-24 -20q-41 -18 -53 -20
q-49 -24 -130 -83q-80 -59 -104 -74t-59 -43t-59 -42q-31 -8 -54 6q-10 13 -34 29t-29 20q-28 -48 -39 -83q-11 -36 -21 -56t-16 -36t-29 -23q-29 -25 -47 -15q-6 7 -2 35q5 28 11 46t16 40q10 23 22 56t24 56t11 38q-43 59 -90 71q-2 -4 -16 -45q-18 -52 -50 -108
q-32 -55 -100 -78q-154 -37 -221 35q-6 6 -18 20t-19 21q-57 86 19 184q6 4 6 12q51 51 117 101q12 7 62 39q49 32 79 40t63 22t52 19l4 9q52 80 64 126q13 46 16 46l2 4h-9l-32 4q-35 2 -63 2t-36 -8q-12 8 -46 17t-48 20q-37 35 -90 104q-14 37 0 72q8 12 81 99t97 144
q2 6 12 14q11 8 23 28t111 216l15 15t23 10q51 -39 138 -51q4 0 84 -10q23 33 50 103t33 85t29 25q31 27 45 14t2 -55q-12 -43 -23 -67t-26 -68t-22 -44l94 -6q20 53 26 78t14 43q19 40 26 59q5 19 35 32t37 7t3 -42t-17 -67q-20 -47 -38 -112q83 0 109 6q26 7 50 21t40 18
t24 -11t4 -32q-60 -99 -133 -252q0 -4 -186 -8q-37 -115 -49 -149q27 0 59 -9q147 -27 211 -118q53 -89 83 -191t30 -168z" />
    <glyph glyph-name="percent" unicode="%" horiz-adv-x="1875" 
d="M1634 467q-23 53 -54 85q-32 32 -93 42q-57 20 -125 0q-127 -35 -172 -141q-33 -59 -26 -143t65 -130q6 -4 21 -18q48 -45 93 -45q63 -8 121 10q70 14 123 94q37 49 51 120t-4 126zM1774 432q23 -92 -45 -227q-43 -77 -115 -131t-119 -64q-101 -31 -199 -7
q-163 40 -241 214q-38 138 35 323q16 46 57 76q96 76 166 103q170 33 248 -8q84 -29 155 -101q36 -36 51 -134q7 -40 7 -44zM698 1026q-18 41 -27 59t-36 40t-62 22q-25 8 -86 9t-89 -7t-52 -30t-37 -39q-12 -17 -39 -60q-40 -52 -32 -146t73 -141q3 0 13 -9t13 -10t13 -7
q32 -19 80 -19q139 -18 223 100t45 238zM842 1012q10 -123 -43 -236q-45 -86 -131 -151q-51 -41 -101 -52q-78 -25 -159 -14q-156 0 -241 128q-11 17 -16 29l-15 34q-9 23 -13 30l-8 64q-10 81 -6 101q4 21 12 44t10 31q39 119 92 160q12 10 61 49t123 57q73 18 87 16t45 -6
t39 -5t54 -8q63 -10 105 -52q12 -21 42 -59q31 -38 45 -72t18 -88zM1423 1339q-53 -102 -98 -170t-108 -157q-126 -204 -272 -430q-146 -225 -163 -254l-41 -62q-43 -47 -62 -84q-19 -38 -89 -168q-4 -10 -12 -32q-24 -69 -61 -87q-36 -17 -60 -1q-78 41 45 151
q22 69 100 174t96 130t96 155t104 172q24 42 138 225q125 217 162 246q35 41 68 137t80 125q33 16 49 16q23 -5 31 -31t-3 -55z" />
    <glyph glyph-name="ampersand" unicode="&#x26;" 
d="M483 842q0 65 -109 65q-40 0 -61 8q-76 0 -88 -14q-2 -10 -15 -44t-15 -48l-9 -127q0 -84 11 -117q14 1 41 15q26 14 28 21q30 142 72 159q6 0 30 -1t30 1t32 6q25 4 33 6q34 17 20 70zM881 602q0 -90 -47 -102q-76 0 -86 -33q-6 -12 -2 -81t12 -81q2 -14 36 -7t42 5
q66 -27 49 -160q-2 -12 -2 -26t-2 -29t-35 -47q-32 -31 -114 -69t-92 -38t-34 19q-63 43 -121 151q-8 14 -17 28t-15 26q-6 11 -2 28q4 16 20 42t18 39t3 192q0 57 -109 43q-12 -2 -54 -4t-71 -7q-29 -6 -41 -17t-10 -30l10 -96q9 -96 23 -122t51 -110t80 -132q6 -4 21 -16
q14 -12 22 -19q39 -31 50 -66t8 -52t-32 -35q-30 -18 -60 -8q-30 9 -48 38q-18 30 -54 62t-48 50t-26 63q-13 44 -31 73t-30 83t-18 66q-84 254 -29 482q0 11 -5 37t-1 40t9 58t19 76t16 59q3 27 56 90q20 35 64 63t86 31q41 4 159 -29q119 -34 145 -38t46 0t46 12t41 12
t33 14t24 12t28 -1q20 -8 21 -20q2 -13 2 -24q1 -11 -13 -35q-14 -26 -20 -38t-59 -97t-68 -136q0 -41 25 -48q10 0 36 2t56 0q29 -2 47 -30q10 -29 8 -40t-9 -33t-7 -40z" />
    <glyph glyph-name="quotesingle" unicode="'" horiz-adv-x="446" 
d="M379 1284q9 -44 -19 -77q-10 -13 -28 -36t-26 -35t-22 -46q-13 -33 -24 -52q-14 -14 -32 -49t-33 -51q6 -10 0 -18l-13 -9q-4 -27 -26 -43q-37 -33 -60 -20q-45 23 10 113q2 2 5 23t14 38l16 16q-4 14 6 28q9 12 8 26t7 25t22 52l13 11l16 49q4 10 8 10q8 10 11 35t10 35
q23 18 43 16t94 -41z" />
    <glyph glyph-name="parenleft" unicode="(" horiz-adv-x="559" 
d="M139 104l-12 15v26q-47 88 -69 198t-18 208q3 98 7 209q88 301 121 379q96 205 170 301q33 39 45 47q12 14 39 53q43 61 98 82q59 36 89 25q30 -10 36 -39t-29 -69t-38 -50q-4 -4 -10 -8l-9 -6q-23 -41 -81 -122t-83 -132l-12 -7l-6 -26q-8 -25 -32 -65t-27 -50
q-4 -10 -30 -80t-33 -103t-22 -56q2 -25 -12 -86l8 -33q-8 -43 -4 -178q-4 -45 15 -181q8 -24 20 -45q7 -69 34 -124q27 -54 65 -121t38 -93q10 -29 66 -84q33 -47 88 -112q0 -13 6 -19t30 -28q61 -54 56 -103q0 -16 -27 -43q-82 -2 -143 39q-4 5 -39 17t-47 28t-34 56
q-22 41 -50 65q-6 8 -14 31q-7 23 -17 32t-20 22t-26 36q-16 22 -48 100q-31 78 -39 94z" />
    <glyph glyph-name="parenright" unicode=")" horiz-adv-x="559" 
d="M471 1120l12 -14v-27q47 -87 69 -197t18 -208t-7 -209q-88 -301 -121 -379q-96 -205 -170 -301q-33 -39 -45 -47q-12 -16 -38 -54q-56 -82 -99 -94q-16 -12 -51 -15t-66 14t-25 53t34 55q29 20 36 39q4 4 10 8l9 6q23 41 81 122t83 132l12 6l6 27q8 25 32 65t27 50
q4 10 30 80t32 99q6 30 22 60q-2 25 13 86l-8 33q8 43 4 178q4 45 -15 180q-10 30 -20 45q-7 66 -34 123q-27 56 -65 123t-38 92q-10 29 -66 84q-33 47 -88 113q0 12 -5 17t-16 17t-24 24q-13 13 -19 21q-5 9 -17 29q-25 40 11 76q74 45 170 -18q3 -6 23 -18t32 -25t45 -61
q34 -48 62 -74q7 -8 15 -31t17 -32t19 -22t27 -36t47 -101t39 -94z" />
    <glyph glyph-name="asterisk" unicode="*" horiz-adv-x="1089" 
d="M113 845q0 30 14 46q31 45 68 27t88 -30t63 -18t45 -28t44 -23q11 -2 48 2q36 18 7 99q-3 10 -8 25t-9 32t-47 77t-29 100q13 40 63 48t80 -32t32 -146t30 -156q18 -18 33 -12q17 6 29 12t28 15t70 71q121 142 156 54q18 -49 -11 -80q-23 -31 -101 -78t-101 -92
q-6 -18 7 -32t27 -19q33 0 49 -13q34 -4 138 -41q47 -8 35 -86q-12 -31 -54 -30q-25 6 -115 56t-147 34q-1 -63 15 -129t34 -96t22 -43t-3 -46q-14 -35 -51 -31t-60 31q-39 37 -40 149t-44 148q-4 -4 -81 -62t-107 -97q-8 -8 -18 -37q-21 -63 -58 -58q-60 18 -72 72t37 88
q11 10 31 22t31 21q70 86 168 111q18 14 18 37q-43 51 -129 51q-12 2 -49 11t-70 5q-25 -8 -53 -1t-39 28q-14 14 -14 44z" />
    <glyph glyph-name="plus" unicode="+" horiz-adv-x="823" 
d="M350 820q0 47 -4 65q43 31 53 35q51 -6 57 -66t-14 -102q12 4 14 -4t-9 -46q-10 -36 -11 -69l6 -92l146 4q6 0 12 8t49 6t45 -2q18 10 39 0q31 -20 31 -51q0 -80 -152 -43l-26 -6q-33 10 -40 3t-40 -7q-35 12 -74 2q10 -72 10 -88q-14 -43 -2 -82t8 -67t-5 -51
q-3 -63 -33 -65q-25 0 -32 12t-9 16q-2 3 -4 12t-3 11q-1 1 -8 55q-6 54 -4 108t4 126q-41 -4 -67 11q-45 6 -67 -4q-22 -9 -48 -7t-65 4q-38 2 -41 13q-18 82 26 90q28 4 56 2t55 -2l153 -6l4 202q-10 28 -10 75z" />
    <glyph glyph-name="comma" unicode="," horiz-adv-x="604" 
d="M242 -54q16 14 16 38t-16 41l-11 8q-14 25 -59 55t-55 64q-4 4 1 21t13 20q33 29 141 133q51 51 83 29q32 -23 81 -77t64 -69q34 -49 20 -76q-6 -16 -12 -45t-23 -45q-18 -16 -54 -56t-69 -65q-16 -6 -38 -28t-33 -27q-10 -6 -34 -23t-64 -32l-74 -37q-15 7 -23 21t-2 22
q74 43 127 108q5 6 21 20z" />
    <glyph glyph-name="hyphen" unicode="-" horiz-adv-x="604" 
d="M488 528q29 0 49 -20q23 -14 19 -52t-32 -53q-26 -8 -90 -27q-159 -47 -215 -110q-31 -35 -63 -33q-80 27 -72 91q2 10 4 52t23 50q58 38 140 42q83 5 107 9q59 18 76 35q25 16 54 16zM154 596q-29 0 -45 2q-2 8 -11 31t-5 42q5 19 9 41t10 30t23 8q43 -6 122 5t105 11
l56 29q6 0 53 14l48 4q29 0 36 -22q20 -51 -41 -78q-26 -10 -96 -36t-94 -35t-46 -17q-24 -7 -34 -11t-36 -11q-25 -7 -54 -7z" />
    <glyph glyph-name="period" unicode="." horiz-adv-x="604" 
d="M514 133q-30 -37 -94 -95t-82 -82t-35 -24h-27q-61 57 -98 115q-88 72 -104 123q-6 4 -1 20t13 21q100 70 158 147q55 55 93 32t98 -87q59 -65 79 -86q25 -35 0 -84z" />
    <glyph glyph-name="slash" unicode="/" horiz-adv-x="839" 
d="M51 31v20q13 46 53 107q41 61 70 95t45 54q41 70 62 111q2 2 18 21q17 19 27 27t22 36q12 27 33 49q22 22 40 54t72 105q54 74 69 101t42 72t35 58t15 17t12 9q33 66 45 82q32 43 71 36q29 0 31 -35q1 -34 -25 -64t-75 -104t-72 -102q-72 -111 -80 -123q-7 -12 -33 -33
q-25 -21 -104 -163q-2 -2 -9 -6q-7 -3 -11 -7t-6 -14q-4 -12 -20 -25t-24 -30t-39 -55t-41 -58q-4 -18 -38 -76q-49 -49 -62 -69q-61 -61 -61 -84q-12 -27 -50 -14q-12 4 -12 8z" />
    <glyph glyph-name="zero" unicode="0" horiz-adv-x="1148" 
d="M852 645q-53 100 -193 168q-76 25 -149 0q-158 -45 -225 -178q-72 -124 -17 -260q29 -70 94 -115q90 -59 142 -76q57 -8 155 27q123 25 177 111q90 143 16 323zM1042 297q-49 -121 -165 -217q-68 -57 -138 -72q-139 -43 -283 -9t-249 132q-76 70 -123 172q-12 41 -17 107
q-5 65 -8 86q-16 82 0 149q27 131 131 217q150 121 242 158q10 2 53 16t63 12t56 -6l70 -8t71 -22q106 -37 142 -70q16 -26 46 -49q29 -22 54 -43q38 -33 87 -199q50 -166 -32 -354z" />
    <glyph glyph-name="one" unicode="1" horiz-adv-x="694" 
d="M462 1141q36 0 36 -31q0 -127 -14 -375t-15 -377q0 -72 43 -92q16 -6 56 -8t56 -12t9 -41q0 -40 -73 -55q-38 -8 -67 -22q-30 -12 -108 -74t-122 -80t-77 -1q-33 18 -36 64q0 5 19 71t14 183t7 182q16 43 3 152q-14 109 -11 151v31q-20 23 -87 29t-91 36q10 6 9 20t3 17
q66 53 196 111t172 90q42 31 78 31z" />
    <glyph glyph-name="two" unicode="2" horiz-adv-x="1038" 
d="M487 -4q-201 0 -301 -4q-30 -6 -54 8t-15 45q16 82 69 102q227 96 320 377q78 211 -57 289q-74 43 -163 35t-147 -72q-12 -22 -52 -26t-42 26q27 144 168 234t293 90q123 0 229 -131q59 -87 59 -183t-59 -172q-16 -22 -64 -72t-67 -79q-94 -109 -121 -148q90 -84 305 -10
q27 6 62 53t51 60q31 20 53 -2t17 -67q-4 -44 -49 -133q-44 -90 -50 -110t-14 -32t-13 -22q-27 -50 -57 -50q-100 -6 -301 -6z" />
    <glyph glyph-name="three" unicode="3" horiz-adv-x="858" 
d="M776 133q-27 -174 -104 -258q-106 -119 -236 -201q-76 -59 -209 -106q-37 -12 -77 -2t-60 37q-41 53 -24 126q16 73 73 93q45 20 111 -26t90 -52q92 -20 158 137q39 88 14 201t-117 164q-100 66 -245 -25q-16 -8 -38 0q-22 9 -29 23t7 30q41 46 170 138t181 174t21 171
q-32 89 -122 136q-35 15 -51 12q-15 -2 -27 -4t-26 -11t-22 -14q-23 -14 -46 -36l-46 -46q-24 -24 -50 -6q-27 14 -34 42t7 53q16 41 51 75t78 62q43 27 143 70q76 55 175 30q18 -8 58 -26t64 -27q100 -78 120 -187t-55 -195q-54 -62 -153 -142q-4 -5 2 -17t-2 -16
q124 -12 196 -131t54 -246z" />
    <glyph glyph-name="four" unicode="4" horiz-adv-x="1310" 
d="M664 303q-4 59 0 113t-4 120q-7 67 -31 113q-123 -43 -174 -141q-55 -74 -123 -221q64 -26 159 -30q94 -5 121 -7q2 0 29 18q23 27 23 35zM942 1016l6 -504q0 -123 -6 -229q37 -43 122 -39t134 -6q74 -17 35 -179q-12 -37 -58 -49t-87 3q-40 15 -94 6t-60 -48
q-10 -61 -3 -192t-13 -185q-27 -59 -108 -17q-139 72 -146 192q-4 51 1 95t-1 97q-8 18 -52 45q-219 8 -522 -10q-30 -6 -58 20t-3 58q88 131 258 347t229 298q16 18 58 49t55 55q18 27 26 54q14 16 43 52t45 54q46 52 107 76q32 8 62 -7t30 -36z" />
    <glyph glyph-name="five" unicode="5" horiz-adv-x="862" 
d="M838 1014q-27 -38 -87 -98t-82 -84t-58 -19q-36 4 -72 29q-8 2 -34 12t-36 12t-39 8t-41 0q-31 -6 -46 -38t-5 -60q13 -22 67 -49q54 -26 64 -33q139 -78 195 -240t14 -329q-18 -88 -113 -225q-10 -14 -29 -54t-40 -61q-27 -18 -61 -61q-34 -42 -48 -54t-54 -39
q-76 -51 -136 -28q-27 14 -22 45t34 51q178 104 235 233q40 98 22 218q-7 45 -22 114q-14 41 -58 96t-56 80q-18 29 -45 43q-27 13 -69 25t-58 18q-41 25 -66 60q-25 36 -2 72t114 122t120 148q2 8 10 45t12 53q27 109 124 101q48 -3 84 -19q114 -51 177 -41q8 2 30 14
q22 13 32 13t34 -11q27 -16 11 -69z" />
    <glyph glyph-name="six" unicode="6" horiz-adv-x="1150" 
d="M770 340q12 53 -12 182q-16 111 -53 185q-21 42 -91 70q-26 11 -53 1t-47 -18t-27 -10q-35 -29 -67 -78q-10 -35 -28 -102t-23 -81q-18 -81 -2 -157t28 -117t44 -85t75 -60q53 -25 104 7t87 89q40 57 65 174zM1116 1368q18 -28 8 -64t-43 -51q-31 -10 -92 -48t-100 -46
q-43 -13 -101 -71t-74 -70t-56 -54t-66 -57q33 -18 0 -37q43 -10 76 -5q92 14 143 -19q18 -12 82 -50t92 -83q68 -106 80 -207q23 -152 -80 -326q-82 -147 -305 -198q-154 -44 -296 32t-216 219q-142 258 16 541q41 96 95 150q31 26 88 78t88 79q141 106 434 260q6 2 43 21
t49 22q11 2 31 8t27 3q7 -2 26 -2l26 -13q17 -8 25 -12z" />
    <glyph glyph-name="seven" unicode="7" horiz-adv-x="999" 
d="M84 764q-22 0 -31 13q-8 13 -8 22q43 186 133 307q10 17 48 12q37 -4 46 -4q122 -20 310 -18t301 -2q35 0 57 -28t4 -56q-16 -35 -56 -101q-40 -65 -60 -105t-78 -173q-59 -133 -79 -175t-37 -56t-20 -23q-16 -98 -54 -170t-85 -196t-95 -220t-116 -170q-37 -45 -80 43
q-6 25 19 88q33 57 94 179q61 123 95 183t89 169t81 157t70 147t72 146t-40 78q-176 20 -392 6q-34 -1 -100 -27t-88 -26z" />
    <glyph glyph-name="eight" unicode="8" horiz-adv-x="1089" 
d="M766 236q12 133 -35 237q-37 73 -116 108q-21 9 -29 14t-32 12t-31 10t-33 11t-31 9q-33 12 -78 -41q-63 -109 -41 -291q2 -8 8 -39t12 -42t24 -36q18 -24 24 -30t22 -24t35 -35q19 -16 66 -29q46 -14 128 36q97 54 107 130zM752 1049q26 209 -120 304q-78 50 -145 15
q-76 -31 -94 -49q-78 -92 -65 -270q10 -39 40 -67t92 -58t87 -46q25 -18 41 -27t44 -10t46 23q58 99 74 185zM313 719q0 4 -14 4t-20 10l-27 35q-96 78 -140 188t-24 222q0 24 4 46t9 50q5 29 38 72q17 14 55 58t64 62q139 55 236 80q43 2 57 2t92 -39l35 11q14 -6 61 -24
t72 -38q39 -49 94 -87q54 -38 70 -52q10 -12 33 -78q0 -18 2 -65t0 -100t-19 -93q-16 -39 -45 -71t-43 -43t-36 -30t-56 -26q10 -10 -1 -21t-11 -16q16 -14 98 -78q183 -208 102 -393q-53 -152 -129 -199q-59 -55 -86 -69q-109 -37 -141 -45q-158 -27 -250 0
q-162 59 -235 158q-135 164 -64 356q10 14 27 45t33 51t74 56q58 34 85 61z" />
    <glyph glyph-name="nine" unicode="9" horiz-adv-x="1095" 
d="M715 389q55 229 49 328q-12 154 -127 223q-88 53 -160 -25q-71 -78 -101 -208t-5 -211q63 -236 202 -236q47 -8 87 31t55 98zM156 -367l-43 -4q-10 0 -19 4q-32 19 -22 59t34 66t47 40q24 13 86 44t105 69t92 92t65 71t21 37q4 20 6 28q-24 9 -96 21t-104 30
q-166 100 -200 229q-11 46 -17 60q-63 139 -25 294q39 155 172 237q72 51 143 51q19 2 61 14q42 13 64 17t64 -2q20 -12 61 -20t56 -15q178 -130 233 -206q55 -77 59 -169q37 -256 -39 -413t-133 -204q-31 -25 -105 -99t-149 -114q-43 -16 -128 -64t-124 -62t-88 -47
q-49 -32 -77 -44z" />
    <glyph glyph-name="colon" unicode=":" horiz-adv-x="604" 
d="M518 219q6 -6 5 -20q-1 -13 -8 -23t-16 -20t-23 -31t-62 -77q-49 -56 -74 -92t-61 -13q-12 12 -41 53q-25 25 -74 76q-49 52 -72 74t-2 55q10 12 30 29t32 28q47 66 143 125q33 33 166 -94q10 -8 25 -34t32 -36zM534 955q13 -21 10 -41t-27 -36q-24 -15 -28 -24
q-119 -165 -145 -169q-6 -1 -25 1q-51 23 -116 104q-33 40 -43 52q-43 38 -34 70t26 46q14 14 57 65t104 103q31 12 56 -12q12 -10 38 -37t46 -39q10 -10 39 -36t42 -47z" />
    <glyph glyph-name="semicolon" unicode=";" horiz-adv-x="604" 
d="M242 -54q16 14 16 38t-16 41l-11 8q-14 25 -59 55t-55 64q-4 4 1 21t13 20q33 29 141 133q51 51 83 29q32 -23 81 -77t64 -69q35 -49 20 -76q-6 -16 -12 -45t-23 -45q-18 -16 -54 -56t-69 -65q-16 -6 -38 -28t-33 -27q-10 -6 -34 -23t-64 -32l-74 -37q-15 7 -23 21t-2 22
q74 43 127 108q5 6 21 20zM534 955q13 -21 10 -41t-27 -36q-24 -15 -28 -24q-119 -165 -145 -169q-6 -1 -25 1q-51 23 -116 104q-33 40 -43 52q-43 38 -34 70t26 46q14 14 57 65t104 103q31 12 56 -12q12 -10 38 -37t46 -39q10 -10 39 -36t42 -47z" />
    <glyph glyph-name="less" unicode="&#x3c;" horiz-adv-x="1058" 
d="M41 418q0 43 22 54q87 44 108 70q21 27 64 41t70 33t45 29t53 2t70 31q15 16 35 26t38 24q18 13 42 26q25 13 54 29t61 21t48 28q15 24 27 29t35 -9t32 -34q9 -19 7 -45t-17 -34t-39 -10q-46 -4 -74 -32t-79 -48q-50 -20 -87 -42t-72 -27q-34 -5 -60 -25q-46 -36 -92 -44
t-59 -34q-26 -50 -65 -41q-18 4 -28 2t-7 -20t11 -24t28 -12q20 -5 36 -13q16 -9 36 -17t42 -18l73 -37q18 -10 51 -16t54 -29q22 -22 42 -32t38 -23q20 -13 38 -21t34 -20t34 -20t43 -3q25 6 41 -2l66 -33q12 -6 13 -32t-11 -46q-12 -30 -40 -18t-54 10q-27 -2 -46 8
l-81 37q-19 9 -35 21t-34 22t-32 28q-24 33 -73 38q-48 4 -67 32q-18 28 -38 38t-46 7t-45 6t-33 25t-32 24q-16 8 -32 20q-26 18 -56 30t-44 20t-13 50z" />
    <glyph glyph-name="equal" unicode="=" horiz-adv-x="1218" 
d="M283 289l-86 -10q-14 0 -47 8q-27 27 -29 35q-23 63 16 71q60 3 117 -3q57 -5 80 -7l39 2q123 6 239 6l31 6q100 -18 293 2q10 -4 12 2q32 11 77 11q46 0 62 4q31 -44 35 -54q-6 -51 -65 -57t-103 14q3 -5 -22 -20q-41 14 -182 14l-29 -10q-45 10 -49 14q-47 -10 -96 -9
q-50 1 -61 -5t-36 -6q-6 10 -76 1t-73 -9q-39 6 -47 0zM337 551q-11 0 -31 3t-26 0q-5 -3 -51 -11t-74 4t-36 31q-15 70 23 74t98 0q60 -5 84 -4q22 1 48 2t119 5t113 2h27q80 -16 291 -2q6 0 18 13h88q20 10 39 0q31 -21 31 -52q0 -80 -152 -43l-26 -6q-44 10 -99 8t-90 0
q-12 -12 -33 -12q-18 6 -50 4t-68 0t-62 -10q-27 0 -39 6q-29 4 -80 -4t-62 -8z" />
    <glyph glyph-name="greater" unicode="&#x3e;" horiz-adv-x="1058" 
d="M781 393q15 0 21 4q5 5 1 23t-8 24q-3 6 -21 12t-34 13q-16 8 -50 8q-35 -1 -59 23q-54 53 -131 82q-76 28 -98 56t-55 38t-51 20t-41 8q-22 -2 -38 7q-15 8 -33 15t-32 13t-17 33q-2 27 10 47q6 16 29 26t56 -18q33 -29 81 -48q48 -18 73 -36q47 -34 89 -34
q41 -1 62 -27q22 -26 40 -36t41 -12q24 -3 52 -17q28 -13 56 -27t53 -33q24 -19 53 -30q30 -11 46 -19t46 -8t30 -25l-6 -55q0 -43 -12 -51q-20 -11 -38 -25q-35 -27 -81 -40q-45 -14 -79 -40t-72 -31t-63 -26q-43 -38 -86 -49t-67 -34q-42 -40 -78 -44q-36 -3 -68 -20
q-30 -17 -46 -24q-16 -8 -30 -18t-30 -19q-17 -9 -34 30q-18 31 1 41t33 32t35 31q19 11 37 23q47 33 83 30t61 23q43 43 87 51t72 39q27 30 76 54t69 25t36 8q14 7 29 7z" />
    <glyph glyph-name="question" unicode="?" horiz-adv-x="870" 
d="M406 328q12 -23 75 -104t24 -114q-13 -11 -33 -21t-46 -28q-27 -18 -66 -53t-61 -53q-37 -21 -59 19t-72 102t-64 84q-14 35 -2 55q25 27 77 66t67 51q51 57 82 57l14 6q2 -2 13 -7t17 -18t34 -42zM659 1507q0 -94 3 -102q23 -61 49 -117v-26q4 -4 9 -16t12 -20
q7 -7 14 -33t14 -36q26 -49 16 -137q-6 -53 -82 -117q-41 -29 -67 -37q-20 0 -35 -24q-14 -24 -26 -34t-64 -50q-51 -39 -77 -63q-58 -56 -84 -51q-26 6 -70 43t-59 61t-37 53t-23 33q-20 31 24 61t84 81q38 52 54 68t42 13q26 -5 40 -21t54 -64t66 -71t62 -35q31 0 34 8
q20 53 8 117q-12 63 -45 152l-2 47q-6 14 -26 46t-24 46q-3 14 1 51q11 44 60 105t63 84q12 -12 12 -15z" />
    <glyph glyph-name="at" unicode="@" horiz-adv-x="1861" 
d="M1069 765q0 13 -29 42q-12 8 -38 19t-37 22q-43 18 -76 4q-37 -246 -23 -467q23 -61 99 -74q33 -3 61 15t34 63q5 45 8 145t7 128t-1 59t-5 44zM1364 920q0 -29 -39 -68q-4 -143 -25 -449l11 -65q3 -10 29 -42t28 -34q39 -35 55 -22q49 37 105 137q55 100 55 143
q16 22 12 46t-2 30q12 18 3 94t-9 86t1 42t0 43t-3 39t-17 70q-21 58 -73 134q-43 49 -154 115q-114 77 -157 88q-42 12 -76 18t-90 20q-55 14 -97 11q-153 -7 -174 -23q-22 -16 -61 -20q-125 -33 -222 -135t-124 -246q-16 -86 -33 -110q-17 -23 -21 -125q-5 -101 -7 -107
t2 -15l6 -51q19 -255 102 -295q102 -162 225 -260q40 -31 130 -71q162 -71 323 -70q163 0 271 54t141 81q8 6 20 -7q13 -14 17 -32t-3 -28q-29 -31 -53 -36t-65 -46q-16 -6 -33 -17t-141 -32q-125 -21 -150 -21t-37 -3t-70 9t-157 24t-117 14q-18 3 -28 6t-14 4l-8 2
q-9 3 -17 3h-25q-59 23 -192 131t-170 177q-8 14 -30 54t-45 81q-47 84 -71 194q-51 283 57 506q68 164 134 211q47 35 69 63t29 34q8 6 16 14q9 8 13 12t11 10t12 9t13 9q26 18 70 33q119 55 204 75t179 20q94 2 167 6t118 -8q221 -55 282 -125q127 -37 210 -161
q171 -256 89 -566q-68 -205 -221 -320q-20 -14 -28 -24t-37 -31q-186 -109 -193 -113q-49 -35 -87 -10t-78 81t-58 75l-21 30q-16 2 -47 -28q-96 -100 -162 -144q-2 0 -10 -3t-16 -1q-27 20 -79 56t-68 47q-16 12 -31 21q-14 9 -27 20t-10 41l16 24q12 18 17 29q10 86 8 154
t6 196q8 129 -4 145q0 12 -7 36t1 61l35 6q63 25 225 108q12 10 52 45t50 35l25 -4q10 0 22 -6q53 -53 148 -88l26 -19q27 -4 61 -21l52 -26q25 0 38 -21q3 -5 3 -13z" />
    <glyph glyph-name="A" unicode="A" horiz-adv-x="2531" 
d="M1565 391q-219 0 -291 -20q-82 -12 -117 -13q-59 -12 -47 -88q6 -16 22 -27t25 -7q305 12 426 6q41 0 41 49q-14 84 -41 96q-8 4 -18 4zM1659 1169q0 10 -14 54q0 25 14 49q12 37 -14 59q-33 20 -101 21q-49 24 -89 6t-55 -33t-32 -50q-16 -36 -20 -44l-21 -21
q-106 -215 -129 -278q-18 -72 27 -141q33 -33 88 -21q68 0 102 14q8 -14 84 -4t90 10q15 0 33 20t7 76t-5 86t16 96q11 66 19 101zM563 1554q10 0 43 1q113 3 180 -27q6 -2 24 -6t30 -8q14 -4 44 4q30 6 44 4q106 -23 157 -17t71 -2t30 -8q53 10 94 27q22 4 42 -8
q19 -11 47 -16t87 15q18 4 58 -1t46 -5t17 7q10 6 19 8t45 -3t51 3q38 4 82 -15q16 -2 53 4t52 1t44 -17h27q78 43 155 6h33q45 -23 76 -17q30 6 110 6q80 -1 99 17q29 80 94 68q35 -10 35 -41q10 -31 41 -76q47 -68 42 -87q-4 -20 -30 -46q-4 2 -16 2t-17 4q-43 43 -106 46
t-111 -25q-162 -186 -121 -344q4 -12 -2 -28t-6 -19q-24 -51 -20 -133t0 -132q-6 -20 -6 -55q6 -20 6 -53q-21 -284 -21 -338q15 -29 31 -91t37 -91q66 -66 76 -82q43 -98 26 -156q20 -61 150 -6q37 10 69 -19t11 -63q-6 -12 -23 -62t-45 -79q-25 -16 -53 -9q-8 6 -46 46
t-69 43q-412 18 -528 28q-37 -12 -104 -14t-93 -6q-33 0 -53 6q-154 12 -217 -21q-12 -6 -12 -39t-24 -36q-24 -4 -38 8q-37 21 -55 33q-19 12 -35 42t-8 53q14 41 56 47q41 7 62 7q68 35 114 27t63 -6q70 27 114 34l27 -8l14 8q12 33 13 101q-12 102 -21 161q-12 53 -53 62
q-49 3 -85 -8q-36 -10 -50 -13q-207 0 -254 -18t-78 -49q-25 -211 -94 -352q-33 -41 -68 -33q-20 18 -11 88t3 94q55 98 55 197q10 10 22 116q13 107 25 154v41q0 80 13 244q2 12 18 43t16 51q18 164 22 190t25 74q21 47 28 74t40 85t41 85v20q2 8 14 33t7 55
q-115 -20 -177 -149l-20 -21q-15 -23 -31 -67t-31 -62q-31 -31 -38 -67l-9 -62q-4 -8 -12 -20t-8 -19l-6 -129q-2 -10 -12 -27q-10 -18 -13 -24q-2 -6 -4 -41t2 -37q0 -12 5 -59t-5 -95t-6 -68q4 -22 -2 -64t-6 -54q0 -10 -13 -38q-6 -27 -6 -90t-43 -187v-27
q-7 -21 -29 -80t-24 -83q-10 -9 -57 -49t-78 -52l-68 -24q-66 -27 -94 -23q-28 3 -68 23q-63 31 -115 21t-101 -31q-51 -21 -75 -29t-55 22q-18 33 2 73t60 56q72 18 129 68q22 15 53 10q31 -4 47 -7t82 -14t102 -31t76 1q40 20 39 57q0 37 -49 72q-16 10 -74 39t-88 61
q-14 10 -46 20q-56 18 -67 37t-28 19q-19 23 -67 64t-68 63q-4 9 -1 25t2 27t-22 48q-20 37 -15 55t18 86q13 67 38 97l6 29q10 10 44 25t44 33t32 60q61 120 130 152q14 12 27 53q31 55 61 62q66 10 109 32l61 62q10 6 34 16t44 29t146 98q6 2 9 12t11 15q115 51 141 115
q0 20 -6 26q-61 12 -174 18t-138 7q-25 2 -60 8t-64 0t-99 4t-102 4q-12 -6 -41 -6q-33 6 -87 5t-87 1q-43 -31 -88 -20q-80 31 -14 161q4 4 11 8t9 7q19 53 75 66t98 -19q126 -95 206 -82q31 20 41 20z" />
    <glyph glyph-name="B" unicode="B" horiz-adv-x="2297" 
d="M1422 1448q-16 0 -44 15q-29 15 -43 20h-51q-20 -9 -80 -19t-84 -26q-22 -16 -34 -34t-26 -45q-14 -25 -28 -47t-31 -114q-14 -33 -28 -113v-34q-4 -7 -7 -19t-8 -16q-8 -135 15 -291q0 -8 3 -39t-5 -53t-1 -50t3 -42q0 -86 9 -122t1 -136t-2 -148q8 -20 11 -66t9 -67
q35 -102 164 -221q0 -12 6 -21q7 -2 21 -10t22 -10h21q25 -16 74 -16t67 -7q66 35 115 93q6 8 6 22q110 107 120 243q1 13 -8 45t-5 52q0 171 -74 241q-21 19 -88 70q-27 19 -87 25t-97 24q-36 18 -29 72q0 2 -1 26t21 23q154 -8 256 127q63 104 78 170q10 33 29 150
q3 58 -28 113q-32 55 -36 65q0 35 -14 49q-43 33 -78 107q-18 14 -34 14zM2114 -8q0 -23 -42 -59t-51 -46q-33 -52 -73 -92q-40 -39 -54 -55q-35 -8 -92 -36q-56 -28 -114 -44t-134 -41h-43q-20 -12 -62 -17t-58 -12l-27 7q-23 -6 -72 -7q-160 10 -291 29q-50 10 -101 50
q-50 39 -107 62t-138 79q-14 6 -43 18t-43 18q-63 41 -190 99h-23q-51 25 -77 0q-9 -15 -11 -57t-18 -56l-69 -2q-35 0 -52 29q-18 35 -6 80q10 16 10 55t10 49q68 68 158 29q35 -14 86 -6t76 43q-8 45 8 112l12 21q0 12 23 92q0 18 8 129t2 124q-38 83 -18 138q4 12 -15 78
q-2 14 0 59q2 46 -3 58t-17 60t-35 85q-63 82 -101 69q-106 -35 -169 1q-72 49 -49 129q4 12 20 147q8 59 100 23q30 -17 34 -65q5 -48 9 -64q14 -57 64 -50q22 7 98 50q10 4 43 14t44 19t34 35t65 34q42 9 100 48q58 38 76 47q18 10 70 26q51 16 78 33l8 14q133 59 242 49
q16 0 35 14q147 0 227 -14q10 0 33 -16t37 -19q106 0 132 -15t61 -20l48 -8q39 -18 107 -86q23 -17 63 -31t53 -20t21 -33q7 -27 21 -39t52 -41t52 -47q29 -29 29 -59t12 -110q12 -81 8 -122q0 -51 -28 -120q-33 -70 -84 -121q-5 -2 -17 -11q-12 -8 -20 -10t-114 -18
t-155 -45q-12 -5 -10 -23q1 -18 13 -25t26 -13t21 -11q76 -10 127 -29l29 5q7 0 14 -5q214 -149 204 -319q0 -44 -18 -98t-23 -72q-2 -2 -19 -15t-17 -36z" />
    <glyph glyph-name="C" unicode="C" horiz-adv-x="2111" 
d="M1016 -166h18q18 8 82 29q6 0 47 -21q16 -4 31 -4l57 4q35 6 82 54q8 14 35 41q74 43 100 108q8 35 9 109q3 22 25 56t28 52q6 68 -6 122t-15 75q24 34 23 83q-2 48 -2 52l8 20q-23 121 -14 226q14 47 6 67l4 104q0 50 -20 66q-20 17 -25 29q-4 12 -13 44q-27 96 -67 130
q-33 20 -97 38t-73 23q-7 5 -25 15t-22 12q-20 2 -62 17t-61 17q-20 2 -61 -13q0 -17 -16 -35t-42 -22t-63 -58q-15 -36 -21 -74t-13 -60t-43 -88t-58 -140q-22 -75 -15 -113v-68q-33 -66 13 -123q0 -24 -6 -100t-1 -124q6 -48 33 -95q14 -12 15 -62q2 -8 12 -22t14 -25
l8 -33q61 -104 62 -170q-8 -43 67 -88q6 -6 16 -20t17 -21q4 -2 14 -8q11 -6 15 -6zM1931 424q0 -27 13 -47q6 0 2 -29l-2 -31q2 -9 17 -35t11 -40q0 -92 -8 -115q-6 -41 5 -113t9 -104q6 -14 18 -62t44 -61q78 -33 121 -88q10 -11 12 -27t-4 -20q-29 -29 -62 -38t-93 -9
h-70q-23 -14 -48 -15q-68 28 -41 137q10 40 3 67q-7 28 -10 80t-19 77q-33 41 -94 -21q-40 -56 -119 -108q-80 -52 -92 -62q-39 -18 -129 -34q-176 -52 -203 -68q-10 -2 -35 -2t-35 -4q-66 -6 -168 20l-33 -4q-9 0 -44 16t-119 37t-108 37q-62 41 -116 66q-55 24 -69 31
q-8 18 -37 42t-37 33q0 4 -14 33q-47 61 -74 88q-55 63 -117 170q0 51 -32 141q-33 90 -35 103q18 39 -15 129q-4 12 2 30t7 25l-9 27q10 63 41 123l9 32q12 16 12 21q0 66 47 137q4 5 8 23t6 24q35 26 49 50q13 24 26 50t22 38t59 38q12 10 45 41t72 54q16 12 42 41
q26 28 32 34t12 24q8 18 14 24q23 4 109 40q10 41 67 54q14 4 40 8t36 6q80 33 217 21q9 0 135 -21q55 0 82 -14q37 -25 116 -62q78 -37 100 -50q22 -12 32 -26t34 -28t173 -119q94 -55 94 8q8 107 29 332q0 20 41 33h26q55 30 117 24t113 -51q14 -14 11 -30q-3 -17 -3 -23
q-106 -41 -184 -137q-27 -33 -27 -115q-17 -86 -16 -102q2 -17 10 -60q-12 -45 -14 -131t-7 -121q-10 -20 -14 -41t13 -99t-7 -159q-6 -23 1 -69t7 -74z" />
    <glyph glyph-name="D" unicode="D" horiz-adv-x="2703" 
d="M1798 133q0 63 12 86t23 70q10 47 12 53q10 47 -12 113q-4 10 12 84q15 133 15 229q0 8 -10 22t-11 19q-8 6 -33 21t-37 34q-6 23 -6 70q12 57 27 84q-10 33 -39 134t-60 164q-58 116 -165 148q-10 -4 -26 -14q-53 -34 -73 -14q-82 70 -145 43q-2 -2 -9 -3q-7 -2 -13 -10
t-32 -21l-30 -15q-8 -10 -17 -35t-18 -35q-4 -10 -24 -53t-24 -63t-15 -44q0 -49 -6 -70q-35 -35 -35 -92q-4 0 -2 -30l2 -31q0 -2 -21 -43q0 -35 6 -47q4 -39 -5 -116t-3 -105t0 -51q-6 -22 -6 -29q6 -20 8 -68t15 -72q-8 -14 -9 -75q2 -8 13 -33t8 -51q-10 -33 22 -125
q2 -16 0 -62t7 -57q55 -150 76 -171q4 -5 14 -12t14 -12q0 -14 6 -20q53 -53 176 -104q6 0 28 3t33 4q63 6 96 44q33 39 65 39q43 8 84 61q10 25 34 97t43 112q3 2 19 18t16 31zM2564 530l-8 -26q-12 -20 -20 -56t-15 -49q-8 -45 -37 -131t-31 -95t-14 -26
q-61 -20 -113 -107q-26 -42 -40 -60q-33 10 -70 -27q-14 -14 -14 -21q-6 -35 -64 -92q-10 -5 -41 -12q-4 -2 -36 -20q-31 -18 -109 -50q-78 -30 -88 -37t-38 -25t-42 -30q-29 -12 -43 -12q-150 -39 -156 -41t-10 -9t-8 -7l-35 -7q-35 6 -147 23t-158 31q-45 14 -168 65
q-18 6 -107 30t-143 60q-78 7 -206 67t-165 73q-115 43 -166 -7q-47 -53 -22 -168q0 -16 -13 -27t-28 -7q-96 55 -119 118q-4 18 5 50t9 47q6 74 70 161q6 -8 14 -8l7 8q44 -34 105 -27q26 3 56 -1q78 -33 111 6q20 39 33 88q12 49 16 59q20 70 -14 154q-8 23 4 61t11 50
t-10 30t-5 25q30 38 33 84l-5 90q-4 4 -8 17t-6 18q0 103 -42 215q-10 29 -22 43t-25 33t-38 24q-25 4 -85 -2q-143 -14 -214 57q-68 96 -27 175q4 8 28 20t28 29q12 18 55 35q25 0 55 -43q9 -20 9 -93t20 -96q23 -14 70 0q138 69 164 107q10 14 51 41q25 8 119 55
q18 0 43 14q11 12 39 34t42 36h29q27 8 85 44t159 60q14 6 98 21q15 4 35 24q20 19 36 23t62 -4q45 -8 68 -2q6 4 17 14t18 14h28l35 -14q25 0 125 -35q20 -6 70 -6q35 -20 49 -20q82 8 168 -64q6 -6 26 -6q44 -23 96 -48t93 -56t63 -43q37 -10 56 -50q14 0 23 -7t29 -31
t38 -31q30 -19 60 -65t44 -60l21 -41q84 -94 98 -162q1 -25 23 -82t18 -92q-6 -12 -6 -47q8 -26 9 -78t5 -70z" />
    <glyph glyph-name="E" unicode="E" horiz-adv-x="2189" 
d="M950 416q-20 0 -35 14q-160 0 -204 -14q-27 -47 0 -113v-29q2 -8 9 -17t13 -21t4 -43t2 -52q31 -52 41 -78l8 -49q5 -27 50 -63q2 -4 6 -14q4 -9 7 -13t7 -7t7 -5t8 -5t8 -5q47 -66 63 -78q29 -16 90 -26t79 -13q18 -4 149 -4q102 18 119 53l8 16q6 8 55 52t57 75
q8 76 35 127v29q21 86 49 127q-8 18 -6 76q1 58 -21 74q-22 14 -65 14q-104 -8 -543 -8zM1149 1440q-4 0 -37 12t-49 8q-10 -6 -39 -32t-66 -25q-41 -8 -61 -45t-58 -124t-65 -112q-33 -61 -49 -100q-20 -68 -20 -90q4 -14 4 -46t2 -46q16 -23 20 -23q65 0 213 37
q125 10 211 -14q7 -4 19 -8t16 -7q76 -12 141 6q49 8 142 9q29 2 45 22t30 56t23 49q7 62 -12 138t-23 101q-12 41 -29 56h-14q-12 8 -20 30q-9 22 -19 30q-10 9 -59 37t-70 52q-6 4 -20 10t-23 11q-43 8 -133 8zM141 815q0 43 -22 80q-8 25 -10 31t6 32t13 35q5 11 32 23
t35 20q12 18 30 58q17 40 27 53q10 15 33 33t30 26q37 53 58 64v14q24 24 49 65q24 40 35 54q8 2 53 11t68 26l40 41q35 23 72 22q8 0 21 13h43q26 6 66 38t67 33h57q14 3 50 19t55 16q89 11 254 -6l92 -14q35 -10 78 -58q11 -8 39 -18t34 -14t10 -12q4 -7 16 -16t85 -54
t109 -81t59 -87q12 4 29 -6t28 -7q40 17 58 55t29 107t25 105q15 37 15 57q12 57 43 57q50 18 106 2t76 -65q18 -83 14 -105t-25 -36t-45 -6q-24 7 -64 4t-50 -35v-50q-16 -72 -26 -90q-18 -68 -37 -233q0 -2 -8 -22t-13 -27q-6 -37 -1 -110t-2 -99t2 -51t10 -37l6 -174
q0 -43 -8 -89q-7 -45 15 -139t21 -176l15 -37v-41q27 -92 26 -141q4 -35 28 -48q22 -13 34 -19t35 -13q23 -8 30 -12q68 -23 93 -107q6 -24 -10 -48t-40 -36q-6 2 -76 14t-94 44v12q-6 20 -34 40t-39 40q-10 22 -34 92t-46 105q-26 26 -52 12q-27 -14 -63 -41
q-55 -31 -70 -58q-12 -14 -48 -36t-44 -27q-66 -78 -147 -70q-51 -25 -153 -47t-128 -32q-24 -9 -34 -5t-24 15q-15 11 -55 4q-41 -8 -59 -3t-83 28t-99 26q-30 12 -64 29h-20q-39 10 -57 28t-73 61t-64 57q-9 13 -11 16q-57 29 -78 49q-162 152 -254 311q-23 39 -92 246
q-12 14 -9 68t0 80t4 75t7 92z" />
    <glyph glyph-name="F" unicode="F" horiz-adv-x="2369" 
d="M1956 1202l-6 27q12 68 -15 104q-10 10 -28 -8l-21 -20q-80 -150 -180 -172q-57 -8 -123 14q-133 22 -213 129q-22 31 -44 42t-56 39t-51 37q-18 8 -40 32t-37 34t-71 10q-39 -10 -63 -46t-13 -76q0 -55 -8 -84q-4 -37 11 -107q16 -70 18 -82t1 -91t11 -87q27 -20 43 -20
q119 29 242 20q10 -4 27 -10q18 -6 28 -10t55 14q49 0 70 -8q18 -2 49 4t47 4q154 -20 195 -21q125 13 151 76q23 38 9 102t12 154zM959 -252q-7 0 -27 6t-27 8q-152 8 -305 0q-124 0 -201 -34q-20 -2 -86 0t-86 -7q-23 -5 -63 -27t-62 -22q-55 -6 -125 64q-40 36 0 96
q63 102 263 27q16 4 54 6q83 4 112 43q14 10 14 26l-2 57q0 13 2 21q18 27 63 56q-4 20 2 61t4 61q-14 18 0 94t15 95q27 41 27 93q1 52 -21 93q2 23 6 86t10 117t-30 143q3 93 -22 275q-3 22 -23 56q-21 34 -27 64t-39 61q-33 30 -76 36q-168 0 -207 -8l-28 14q-47 0 -76 6
q-8 3 -13 15t-8 14q-47 55 -14 110q16 16 29 21q14 21 20 31t17 20q18 16 41 11q24 -6 67 -42q16 -27 76 -26q3 -6 15 -9q13 -3 20 -6q57 0 67 7q115 -55 271 -21q96 -33 139 -27q29 13 72 17t179 10t156 7t35 -10q16 -11 27 -11q82 18 110 12t102 0q73 6 97 2q25 -4 59 2
t48 6q14 -8 49 -8q14 8 41 8l41 -14l43 12q43 12 67 8q55 -14 230 -14q47 14 90 14q20 -6 55 -6q18 4 49 24t55 25q24 4 51 -11q28 -15 32 -46l8 -42q0 -7 1 -23t-8 -24q-10 -9 -15 -15q-17 -21 -91 -15q-74 5 -134 13t-93 10q-14 0 -35 -41v-29q-25 -76 -14 -200
q28 -38 23 -99t-4 -85t30 -64v-35q-6 -12 -21 -78q-4 -12 13 -82l-5 -72q-4 -74 5 -73q14 -74 8 -117q-19 -35 -37 -45t-74 -2t-76 4q-19 -4 -78 -20q-60 -16 -111 -6q-51 9 -173 -3t-178 -6q-131 18 -166 15l-90 -7q-14 6 -41 7q-20 -20 -21 -27q17 -126 31 -162
q14 -37 10 -59q-45 -145 -20 -250q4 -23 24 -35t45 -6q135 35 236 0q16 6 96 6q31 -8 85 -9t75 -5l61 14q4 0 44 -12t61 -8q45 20 102 6q8 -4 8 -47q-10 -27 -17 -83t-17 -83q-18 -31 -50 -47t-55 4q-8 12 -8 28l8 70q0 8 -9 17q-9 8 -23 8q-13 0 -67 5t-72 -4t-99 0
q-83 9 -107 8t-38 1t-49 10q-33 8 -53 10t-96 -5t-100 5q-35 0 -55 -8h-28zM2005 260q0 84 35 105q18 10 46 -11t31 -55t1 -62t-2 -38l12 -29q4 -26 -4 -102t4 -105q51 -111 84 -139q41 -25 99 -25t71 -7t18 -36q4 -29 6 -35l-8 -49q-6 -14 -41 -34q-12 -2 -53 -10t-52 -6
q-11 1 -54 9q-125 63 -181 152q-2 25 -5 102t-9 121q-6 43 -27 109q-13 84 20 128q9 11 9 17z" />
    <glyph glyph-name="G" unicode="G" horiz-adv-x="2523" 
d="M1827 -260q-47 0 -84 -37q-8 -4 -39 -16t-54 -26q-24 -15 -83 -23t-77 -14t-54 -5q-35 2 -59 -8t-64 -13q-40 -2 -74 -6t-101 6t-104 21q-37 10 -122 41t-100 36t-103 21q-53 20 -64 43q-23 4 -53 31t-43 33h-23q-16 16 -65 55t-74 84q-7 9 -25 19t-28 21t-50 46t-50 51
t-29 58q-31 33 -41 106q0 6 -14 21q-2 8 -5 49q-2 41 -10 61q-31 109 -6 267q0 47 35 63q0 70 14 104q8 11 31 29t31 27q12 16 14 46t8 38q8 8 24 20q16 11 17 15q2 4 8 21q5 17 15 27t46 32q36 24 50 46q10 20 54 50t59 49q76 117 194 166q5 6 23 20t26 23q78 47 176 69
q10 6 27 29q33 18 96 30t96 22q33 11 109 24q14 0 71 3t93 -4t90 -13t76 -10q20 -3 38 2t32 -1t52 -18t58 -29q84 -80 123 -108t65 4q39 49 0 84q-12 8 -38 23t-31 18q-20 16 -15 44q6 28 29 27q117 23 174 -57q18 -14 43 -14q14 -8 20 -31t1 -39q-35 -69 -61 -95t-38 -36
t-23 -24t-19 -21q-8 -8 -16 -37q-7 -29 -17 -39q-31 -18 -64 0q-25 17 -47 61t-29 52q-72 70 -252 139q-51 -14 -79 -13t-82 11q-53 10 -84 10q-102 -70 -203 -69q-103 -78 -127 -106t-38 -60q-14 -34 -52 -94q-37 -60 -50 -101q-14 -41 -18 -67t-5 -57q-1 -32 -3 -48
q-18 -47 -14 -70q8 -16 24 -51t26 -51t-1 -53q-10 -37 -31 -70q-20 -33 -26 -44t-7 -52q14 -98 15 -293q31 -54 26 -140t9 -103t38 -33q25 -15 37 -24t28 -48t30 -51q25 -18 84 -36t81 -18q23 0 33 -3t35 -13t39 -14q61 -16 168 28q44 21 84 63q39 42 49 51q10 10 14 20
t7 12q104 90 104 309q16 23 21 76q4 53 8 69q14 33 14 35q-21 107 -29 148q0 18 10 60q9 42 5 67q-4 6 -12 24q-7 18 -15 38t-8 97q-4 23 -28 61t-27 52q-41 8 -84 62q-82 63 -203 -27q-27 -27 -113 -70q-47 -37 -63 -78q-6 -45 -35 -112v-27q-25 -25 -55 6q-13 30 -13 63
q1 32 17 78t17 49q1 4 27 42t40 56t39 39q25 22 32 30q51 10 141 51t134 53h20q31 17 81 13q49 -5 59 -5q156 -14 243 -55q98 -37 226 -106q12 -10 26 -46q15 -36 25 -42q10 -7 46 -26t47 -39q11 -21 15 -35t8 -21q106 -145 97 -281q0 -10 10 -30q27 -53 12 -136
q-4 -8 -8 -20t-6 -17l-8 -61q-6 -24 -28 -58t-28 -55l-6 -35q-10 -10 -24 -32t-25 -31q-24 -10 -66 -42t-61 -40t-48 -32q-29 -23 -39 -37t-17 -17q-14 0 -21 -6q-22 -29 -68 -41q-47 -12 -51 -14q-29 -8 -69 -50q-35 -20 -43 -20z" />
    <glyph glyph-name="H" unicode="H" horiz-adv-x="2797" 
d="M1788 -182q0 -74 -14 -102t-29 -44q-33 4 -78 44t-57 48q-76 27 -133 7q-119 -43 -179 8q-14 -4 -52 -2t-52 -6q-39 -8 -107 4t-100 10q-46 -13 -84 -29q-82 0 -141 29q-8 -14 -74 -4t-76 10q-59 -14 -90 -6h-51q-47 -14 -63 -14q-78 18 -98 15t-54 -11q-35 -7 -51 -11
t-45 -26t-49 -17q-47 0 -93 70q-10 25 9 57q41 41 41 107q24 28 54 21q60 -15 109 -44q57 -25 93 9q70 98 106 147q2 6 -1 22t2 24q51 92 54 124q9 24 7 60t1 50t18 52q15 37 11 57q-16 70 6 118t9 139t-15 112q12 12 15 27q1 15 -7 47t-12 46q-4 15 -6 72q-2 58 -5 72
t-25 55t-37 97q-15 55 -29 79q-35 33 -121 78q-9 7 -23 25t-20 24q-31 12 -49 0q-43 -34 -103 -20t-73 70q-16 51 26 88q43 37 101 32q41 -43 142 -50t120 -13q18 8 66 2t67 -2l29 14q55 0 170 -28q26 -6 74 1t81 -1t104 2t109 4l64 14q55 -2 221 -5t336 -15q45 0 121 14h98
q14 0 43 -29q12 -20 5 -42t-14 -27q-6 -3 -18 -5t-28 -3t-21 -2q-4 -1 -33 7t-48 11q-19 4 -54 6t-86 0q-50 -2 -68 -2t-66 -5t-74 0t-60 5q-76 -12 -254 0q-23 0 -39 -14t-13 -35q23 -125 -20 -234q-14 -33 29 -92q14 -6 33 13t70 78t82 79t54 26t54 13q30 6 56 15
q26 10 68 10t56 -7q27 16 69 6q43 -9 122 -5t135 -11q56 -14 163 -67q35 0 45 -6t25 -37q10 -14 39 -36t39 -36q45 -63 120 -105q12 -6 29 -36q2 -2 12 -6q27 -12 51 -63q25 -49 34 -63t27 -27q54 -40 52 -144q0 -9 10 -19t13 -26q2 -16 6 -88q4 -74 20 -115
q33 -76 -14 -156q0 -178 -121 -268q-36 -58 -69 -58q-106 0 -213 -106q-25 -27 -11 -59t48 -39q100 -10 182 20q17 -6 77 -22t93 -33l14 -15q14 -33 -20 -57q-23 -12 -101 -29q-12 -2 -30 -19t-33 -22q-37 0 -55 -4t-54 8q-35 12 -61 16q-26 5 -64 29t-118 70q-29 18 -50 66
q-18 27 -51 49q-8 8 -18 28t-17 27q-35 68 -55 178q-14 29 -10 112t2 108l4 49q0 23 -22 53q-22 31 -25 45l-2 34q0 9 2 15q55 117 -14 291q14 20 6 85t-6 85l8 14q-4 12 -18 41q-13 29 -23 69t-23 66q-33 55 -141 72q-113 23 -205 14q-80 -23 -121 -71q-94 -76 -112 -99
q-46 -72 -28 -183q7 -42 -1 -93q-8 -14 -8 -49q12 -57 3 -187t-3 -188q8 -8 -6 -35q-5 -33 -11 -111t-14 -106t-28 -58t-21 -54q-3 -24 19 -47t40 -25q88 -7 135 -25q72 39 134 8h57q150 10 297 0q35 0 43 -22v-51z" />
    <glyph glyph-name="I" unicode="I" horiz-adv-x="1792" 
d="M1509 1337q0 4 -20 2l-21 -2q-6 6 -26 6l-15 -6q-39 20 -73 7t-49 -103q-6 -16 -29 -55q-23 -38 -27 -60t0 -66t0 -65q-41 -164 -14 -239q-12 -18 -3 -64t5 -60t-8 -24t-9 -30t5 -76t9 -68t-12 -36t-10 -35q2 -11 17 -58q4 -45 0 -134t0 -134q9 -41 23 -67t33 -78
q19 -50 39 -72t28 -23q29 0 78 7q49 6 69 8t54 -4q35 -6 51 -3q16 5 43 15t41 12q113 -70 96 -158q-6 -36 -45 -64t-70 -20t-76 33t-69 31h-29q-68 23 -170 34t-164 -5q-20 -4 -68 4t-63 -4q-45 15 -100 21q-56 7 -64 -1q-90 -14 -149 12q-53 -6 -175 -1t-175 1
q-13 -13 -98 -20q-134 -12 -183 -62q-82 0 -109 29q-61 59 -30 132t63 106h29q15 -6 69 -40t89 -34q7 0 33 8t86 -2t83 -5q36 8 66 81q12 33 24 47q-12 35 3 95q14 60 12 83v47q15 35 -7 74t-22 54t14 24q41 39 41 102q20 35 15 47v56q6 18 8 58t12 58q-27 115 -27 153
t-6 72q-6 36 -2 56q29 21 3 85q-27 64 -23 93q20 50 15 64t-12 57q-13 78 -105 151q-27 20 -83 26t-75 15h-33q-18 7 -53 25l-49 25q-10 4 -70 -15q-33 -10 -57 17t-23 65q2 38 29 67q27 30 65 29q30 -15 84 -59q16 -12 45 -19t50 11q82 -16 204 -70q8 -2 31 -10
q77 -27 92 -10q14 8 41 8q96 -25 164 -14l29 6q57 -9 180 -11t188 -16q27 8 91 4t88 17q66 -14 88 -5t32 3t17 -7q20 8 61 8q40 0 56 6q16 5 33 18t28 18q45 6 86 -6t49 -44q22 -51 14 -108q-18 -63 -96 -47q-6 2 -23 11t-38 12t-144 3z" />
    <glyph glyph-name="J" unicode="J" horiz-adv-x="1832" 
d="M516 308q0 15 14 24q41 39 41 102q20 35 15 47v56q6 18 8 58t12 58q-26 115 -26 153t-6 72q-6 36 -3 56q29 21 3 85q-27 64 -23 93q20 50 15 64t-12 57q-13 78 -105 151q-27 20 -83 26t-75 15h-33q-18 7 -53 25l-49 25q-10 4 -70 -15q-34 -10 -58 17t-22 65t29 67
q27 30 65 29q30 -15 84 -59q16 -12 45 -19t50 11q82 -16 204 -70q8 -2 57 -19t66 -1q14 8 41 8q96 -25 164 -14l29 6q57 -9 180 -11t188 -16q28 8 92 4t86 17q66 -14 88 -5t33 3q10 -6 17 -7q20 8 61 8t57 6q16 5 32 18q17 13 28 18q45 6 86 -6t49 -44q23 -51 14 -108
q-18 -63 -96 -47q-6 2 -23 11t-38 12t-144 3h-41q-6 6 -26 6l-15 -6q-38 20 -72 7t-50 -103q-6 -16 -29 -55q-23 -38 -27 -60t0 -66t0 -65q-41 -164 -14 -239q-12 -18 -3 -64t5 -60t-7 -24t-7 -16q-8 -33 2 -90q10 -56 9 -68t-12 -36t-10 -35q2 -11 17 -58q4 -45 0 -134
t0 -134q10 -41 24 -67t32 -78q20 -50 40 -72t27 -23q29 0 77 7q48 6 70 8q20 2 54 -4t50 -3q16 5 44 15q29 10 41 12q113 -70 96 -158q-6 -36 -45 -64t-70 -20t-76 33t-69 31h-29q-68 23 -170 34t-164 -5q-20 -4 -68 4t-63 -4q-106 25 -160 12q-16 -2 -82 -30t-92 -15
q-57 -6 -116 -37t-119 -35q-23 -4 -100 -15t-96 -28t-99 -57q-35 -31 -72 -39t-105 -46t-91 -48q-174 -43 -312 0q-8 2 -51 7t-59 21q-55 51 -41 146q8 57 49 110q85 109 229 101q63 -13 120 -92q24 -33 38 -46l31 -26q29 -27 45 -35q8 0 33 -9t48 4q23 12 43 32t24 22
q3 2 29 7t29 13q3 7 54 40q-2 0 7 13t25 24t27 8q29 12 48 46t40 38q37 8 77 113t46 114q-10 33 9 73t18 64v47q15 35 -7 74t-22 54z" />
    <glyph glyph-name="K" unicode="K" horiz-adv-x="2633" 
d="M2001 1456q-44 0 -127 14q-84 14 -122 15q-38 0 -56 -15h-21q-31 -14 -59 -17t-84 7q-58 10 -89 10l-128 -6q-6 0 -47 -20q-31 -8 -82 2t-72 10t-35 -20q-14 -45 -6 -72q26 -49 16 -107q-10 -57 -10 -75l15 -113q0 -20 12 -20q35 -8 80 12q46 28 82 55q37 28 51 38t41 15
l26 7q32 6 92 28t89 28q29 5 65 -1t54 -1t32 2t48 -2q119 3 196 -34q24 -6 140 -52t229 -149q68 -131 20 -215v-20q-35 -63 -47 -72q-29 -18 -94 -41l-12 -14q-32 -4 -64 -23q-32 -20 -43 -24l-61 -19q-6 -4 -74 -41q-12 -12 -12 -20l6 -12q61 -16 86 -27l26 6q41 0 115 -12
q74 -11 93 -13q18 -2 36 -11t25 -11q10 -6 23 -24t24 -23q59 -70 59 -133q16 -143 -12 -215q-18 3 -30 -8q-13 -11 -17 -13q-70 -70 -107 -86q-8 -4 -14 -14t-14 -11t-33 -16l-6 -12q4 -6 18 -31t31 -45q29 -34 84 -26q55 9 88 -19q82 -62 51 -109q-11 -17 -50 -25
q-38 -7 -42 -7q-86 -16 -167 11t-194 110q-14 10 -49 42t-57 38q-13 26 -67 70t-60 77q-16 51 27 135q12 51 6 74q-27 72 -27 113q-8 35 -47 73q-16 10 -40 34t-40 34q-69 32 -93 22t-80 -45t-95 -39q-68 -53 -133 -73q-5 0 -11 10t-16 10q-23 23 -13 43q39 74 54 92
q14 18 33 33q45 15 50 19t11 13t10 9q238 25 289 166v20q39 72 6 141t-73 120q-20 23 -60 34q-86 16 -141 24t-100 -18h-27q-2 0 -20 -6q-23 -8 -37 -26t-36 -28q-22 -11 -40 -21t-40 -34t-28 -46t-6 -99q4 -37 -14 -147q0 -27 8 -41q6 -23 -6 -73t-2 -74l-39 -328v-113
q0 -29 44 -38t107 -23t97 -21q39 14 127 15q55 8 112 -27q12 -2 45 4q32 6 42 3t20 -5t14 -8q8 -49 -20 -88q-80 -80 -113 -154q-12 -23 -39 -31t-40 8t-6 67q7 52 5 71q-12 37 -50 45t-113 8t-102 4t-85 5t-107 18q-8 -4 -92 -21q-51 -20 -100 0l-35 13q-14 0 -80 9t-80 -1
q-27 0 -41 6q-115 12 -186 -21q-12 -2 -47 7t-61 -13t-46 -46t-34 -34q-8 -10 -24 -12t-23 4q-37 61 -43 71t-19 44q-12 33 -24 47h-15q-57 43 -26 72q30 29 64 31t87 -16q53 -17 70 -19h61q31 -20 45 -21q70 6 135 107q27 47 27 141v59q6 20 6 54q2 6 13 24t8 29
q-23 96 -15 168q0 12 6 50t3 56q-20 51 -21 62q4 10 16 23q13 13 17 21t-4 23q-8 14 -8 19l12 132q0 32 -12 62v260q-16 25 -20 73q-3 48 -9 65q-6 16 -29 52t-29 49t-19 17t-24 0t-44 3t-68 -11q-86 0 -133 -6q-14 -4 -38 -26q-23 -22 -43 -30t-48 2q-28 11 -39 40l6 20
q10 18 41 38t39 36q37 84 108 100q49 10 93 -33q43 -34 110 -27q66 7 78 7l59 -21q31 8 63 9l132 -9l74 15q124 -21 133 -21q35 4 336 21q11 3 35 25t38 22q43 -31 133 -53q2 -6 68 -4l66 4q70 -6 180 3t189 8q80 -1 106 0t48 6t34 1q79 0 114 -17t55 -24t49 25t36 37
q6 2 32 21t47 11q5 0 21 1t23 0l21 -3q22 -3 36 -24q2 -10 1 -43t5 -43q31 -68 -12 -94q-51 -20 -154 26q-14 4 -46 8l-64 8t-138 -8q-6 -6 -26 3t-56 -11h-61z" />
    <glyph glyph-name="L" unicode="L" horiz-adv-x="2650" 
d="M600 -287q-108 -26 -203 -26q-80 10 -161 0q-25 -3 -40 -37q-14 -33 -16 -37l-33 -6q-53 0 -81 12q-4 4 -10 11t-28 35t-30 56q-29 57 21 101q24 20 47 20l143 -6l12 6q104 -33 141 -20q57 10 93 56q35 46 30 106q39 51 59 161q7 38 9 49t9 96t24 126q-6 20 -6 121
q16 158 26 190q-24 45 -31 130q-6 85 -10 112l-6 96l-14 27q-1 28 -19 78t-24 87t-18 68q-11 31 -25 57t-82 54q-43 6 -121 -21q-12 -2 -40 4t-41 2t-38 -21t-51 -11q-68 16 -74 41q-10 26 7 54t45 46t72 52t71 52t55 -10q43 -51 129 -88q16 -4 50 4t68 -2t84 -11t66 -3
l35 12l129 -27q14 0 45 -9t50 -5q51 20 67 21q27 -6 74 -7q31 14 33 15q45 6 127 -2t116 -6q137 14 186 5t83 0t49 10q14 1 50 -14q37 -15 61 -9t73 -5q49 -10 72 -8q14 8 47 8q104 -18 237 -8q115 0 148 55q6 6 61 6q22 -6 48 -36t42 -40q16 -11 20 -39q6 -52 -30 -52
q-30 20 -188 20q-94 8 -250 -8q-10 0 -35 6t-39 2l-26 -14q-16 -2 -64 3t-65 -3q-12 -2 -39 4t-41 2q-75 -27 -95 -23t-38 18t-31 13l-160 -8q-39 0 -76 8q-70 20 -129 -8q-12 -12 -10 -33q2 -20 -3 -66t-2 -83t3 -330q-4 -51 4 -149t8 -136l-12 -168l-14 -26q0 -41 -8 -100
q-8 -58 2 -102q18 -77 -7 -102q-70 -57 -47 -129q6 -16 31 -58t29 -77q25 -29 71 32q12 15 23 22q28 86 145 205q53 54 78 85q37 37 82 62q2 2 8 11q5 9 25 9t62 10t90 9q48 -2 77 2q10 -9 38 -17t38 -17t46 -37t48 -51q13 -23 33 -41t27 -28q49 -82 40 -161q0 -59 15 -142
q4 -18 28 -29t46 -12q43 8 53 68q25 66 7 236t-13 231q6 18 6 53q-20 74 -21 229q0 8 -8 31t-4 37q30 66 14 165t-14 111q8 20 21 41q12 127 59 177q4 4 14 7t15 5q109 109 200 82q21 -31 13 -63t-30 -46t-62 -24t-54 -29q-31 -49 -35 -146t-14 -133q0 -18 8 -32
q0 -27 -8 -41q-8 -55 14 -121q2 -16 -4 -50t-2 -53v-67q-4 -6 -8 -18t-6 -15q-2 -35 5 -90t7 -101t-18 -85q-1 -23 -11 -169t5 -169q6 -35 67 -47q29 0 86 26q30 4 56 -12t26 -41q4 -51 -38 -85t-97 -24q-16 39 -72 50q-16 2 -57 0t-47 -2l-39 20l-176 -6q-49 0 -121 27
l-29 -7q-40 -4 -110 5t-98 7t-62 2q-35 5 -47 5q-27 -6 -80 -6q-59 11 -119 9q-61 -3 -78 -3h-73l-15 8q-66 -25 -162 -14l-20 -6q-98 18 -106 20l-27 -8q-18 2 -71 12t-105 8q-20 -6 -68 -6q-14 6 -47 6z" />
    <glyph glyph-name="M" unicode="M" horiz-adv-x="2664" 
d="M1104 736q0 122 8 182t2 96v260q8 12 8 41q-12 33 -6 71t-5 74q-11 35 -48 37t-82 -29q-19 -26 -67 -56t-64 -46t-16 -37q0 -207 6 -250t5 -57t-8 -45t-11 -65t4 -151q9 -116 -3 -169q13 -29 21 -82t13 -77t-1 -79t-6 -71t-20 -47q-8 -66 14 -156q2 -27 -4 -79t-2 -83
q10 -37 41 -49q78 -12 217 57q14 14 14 27l-6 121q-10 57 -1 181t-7 183q-27 76 -21 113q25 63 25 185zM1655 1448l-33 2q-13 0 -31 -16q-24 -24 -28 -87t-13 -87q-39 -152 -28 -338q14 -96 14 -119q-18 -125 -14 -162q6 -20 6 -55q-12 -102 -6 -156v-49q4 -20 -1 -56
t-5 -49l12 -28q-12 -111 0 -168q-39 -70 -6 -148q39 -77 49 -104q84 -25 147 6q8 4 24 28t25 67q10 42 21 61v35q-16 51 -14 55v78l-2 33q0 9 5 45t1 164q-4 126 0 161t16 75t8 62q-6 6 -6 27q21 129 21 219q-14 109 -15 189q15 45 15 92q-25 139 -113 202q-28 7 -49 21z
M322 1091q0 7 14 42q2 2 13 6t16 8q20 37 74 82t73 65q16 37 20 41q88 66 222 139t207 115l40 15q43 -3 86 8q152 37 244 18l29 -6q10 0 62 4t94 -18q58 0 121 -27l35 -15q68 -29 75 -35q5 -5 25 -12t36 -21t71 -36t71 -34q16 -11 34 -28q18 -18 27 -24q8 -6 23 -6
q14 -8 32 -35t31 -37q66 -34 127 -94q62 -61 74 -71t22 -45q8 -6 23 -21q47 -113 70 -139q2 -6 17 -29t32 -113q16 -90 25 -116q26 -75 -5 -144q-2 -12 5 -41t1 -46t-37 -65t-37 -81t-35 -73q-30 -40 -36 -50q-29 -12 -71 -57t-77 -64q-4 -4 -11 -14t-9 -12
q-147 -89 -163 -101t-48 -16t-50 -23t-8 -49t58 -43q111 -10 260 14q47 6 133 -22q32 16 76 16l84 -2q23 -3 38 -23t6 -37t-23 -73t-41 -69q-49 -27 -99 55q-59 72 -139 49q-29 -8 -87 -15q-58 -6 -89 -12t-86 10t-69 16q-14 1 -45 -4q-38 -6 -81 13q-20 2 -120 -5t-117 11
l-29 -6q-68 6 -213 12t-223 15l-138 4q-81 0 -135 -19q-20 0 -28 9q-55 10 -113 -15q-20 0 -35 6q-31 4 -196 -12q-15 0 -63 5t-70 1q-38 -7 -70 -74q-12 -26 -21 -37t-37 -5t-40 24q-11 32 -43 63q-33 31 -41 44q2 16 -3 75t29 86q166 0 254 -52q27 -15 41 -19
q88 -8 191 14q55 0 77 14q13 12 9 32t-12 28t-21 11q-12 3 -19 7q-25 25 -70 47t-100 73t-61 54q-26 26 -46 65q-21 40 -27 49t-16 18q-11 9 -15 16q-71 137 -83 177q-12 41 -27 63t-10 55t-7 113q-13 79 -15 104q27 47 35 99t57 112q14 12 41 49t50 49v22z" />
    <glyph glyph-name="N" unicode="N" horiz-adv-x="2738" 
d="M2011 -115q1 -13 21 -31t53 -49q27 -18 77 -37t68 -30q23 0 122 -8t163 22q27 6 53 -5t21 -42q-10 -66 -101 -92q-137 -43 -311 0q-27 10 -93 51t-112 49q-12 3 -28 23t-19 22q-133 106 -139 207q-4 8 -20 32t-30 136q-13 112 17 209q-14 29 -14 133q0 9 10 33t10 106
q-18 98 -5 157t8 125t-3 89l-12 27q0 18 -14 80q-2 27 1 105t-8 104q-12 26 -24 56q-33 83 -88 107q-4 2 -10 12t-17 18q-11 9 -51 21q-40 11 -72 18t-149 -24q-113 -14 -119 -79q0 -18 -12 -52t-15 -47q-29 -17 -35 -41q-4 -24 -8 -34t-4 -30v-61l-12 -26v-80q-4 -7 1 -25
t5 -22q-20 -76 -20 -131l8 -27q-10 -8 -2 -50t8 -50q8 -72 -14 -152v-67q4 -39 1 -120t-2 -120t-7 -140t-5 -157q8 -33 54 -47l107 -8q17 0 62 -1t93 15q49 17 96 -15t30 -94t-83 -129h-33q-8 5 -10 15t-4 12q-61 51 -92 107q-14 6 -27 6q-70 -25 -186 12h-66
q-147 -12 -219 8q-30 3 -56 -5q-27 -7 -36 -9h-62q-59 4 -64 6t-63 -5t-78 -7t-32 6q-92 8 -207 -12q-27 -88 -72 -95q-31 23 -56 61q-26 39 -35 61t-30 77v41q16 39 80 27q20 -4 60 -48q18 -14 40 -14l87 14q57 17 66 21t17 7t9 5q25 57 100 121q12 12 10 46t22 111t27 95
v39q14 31 15 33v20q20 55 15 81t-8 42q-5 26 -5 51t7 42t2 46t-5 38t-41 198q-12 25 -12 33l-4 61q0 35 -6 53t-10 36q-28 98 -104 97l-83 -8q-18 0 -45 7t-38 4q-12 -3 -26 -10q-62 -30 -129 11q-38 26 -10 82q2 3 5 13t5 16t1 35t5 35q25 29 58 38t43 -26q27 -119 86 -119
q86 8 145 80q23 11 33 6q25 -25 49 -17t73 22q49 13 70 42q23 0 69 18q47 18 63 17q16 -2 36 -8t39 2t62 33q43 24 58 30t53 10t56 9q18 6 65 16q46 10 105 23t78 15q19 1 65 7q45 6 63 3t65 -3q8 -4 18 -4l41 4q34 -8 96 -32t70 -27q16 16 72 -8q20 -6 66 -34t62 -30
q18 -2 28 -12t26 -11q74 -5 128 -67q54 -63 69 -78q4 -2 14 -5q9 -3 19 -14t97 -108t136 -184q6 -18 38 -51t40 -43q14 -33 14 -105q0 -14 13 -26q51 -45 65 -107t7 -157q-7 -96 -5 -127l-14 -140q-6 -37 -45 -106q-23 -33 -35 -60q-14 -23 -66 -47l-6 -14q-71 -53 -100 -64
q-29 -10 -75 -15t-59 -7t-39 -9t-36 -10q-10 -4 -21 -8t-16 -6h-45q-41 -12 -41 -39z" />
    <glyph glyph-name="O" unicode="O" horiz-adv-x="2572" 
d="M1493 -270q25 0 31 8t17 22t14 18t14 18q10 12 13 18t11 18l12 18q21 42 23 69t19 53q16 26 18 38v21q45 68 72 202q23 68 22 129q0 4 -14 37q-4 13 5 53t1 62q-2 20 8 68t6 69q-12 209 -49 316q-8 20 0 60t0 63q-47 121 -80 165q-12 25 -51 76t-49 82q-24 8 -58 30
q-34 23 -50 27t-48 14q-33 10 -53 17q-20 6 -63 6t-66 6q-51 27 -72 66v14q33 33 74 41t115 2t84 -6h65q63 -29 152 -28q76 -23 92 -31q25 -4 69 -35t56 -37t49 -6q27 -8 71 -36q45 -28 73 -40t128 -84q12 -7 22 -29t20 -31q56 -45 84 -95t32 -57t21 -41t28 -48t19 -26
t41 -97q4 -14 -3 -43t-4 -43t17 -40t18 -40l-2 -22q-2 -20 2 -21q12 -86 0 -172l-14 -28q0 -53 -14 -115q-4 -49 -19 -83q-54 -115 -67 -146t-21 -45t-26 -40t-25 -40q-72 -104 -152 -158q-31 -16 -93 -61q-62 -44 -88 -56t-77 -33q-50 -21 -65 -36q-49 -8 -136 -34
t-125 -36t-178 -20t-170 -7q-30 2 -56 12q-25 10 -77 14q-52 5 -66 10t-26 9t-16 7q-73 0 -108 20q-36 20 -44 25q-109 25 -186 63l-37 37q-135 86 -244 238q-16 8 -22 14q-27 45 -43 63l4 30q0 7 -4 15q-76 137 -84 172t-18 57q-11 22 -13 30v28q-31 92 -6 129
q0 19 -12 143t4 146q15 49 56 136t51 114t41 53q30 27 38 35q7 8 15 28t14 29l14 8q14 35 37 58q17 12 61 48q113 92 199 118q70 59 201 100q104 37 201 14q45 -23 28 -80q-8 -44 -45 -73q-12 -10 -37 -28t-33 -30t-24 -41q-14 -29 -27 -49t-17 -68t-10 -64q-5 -16 -36 -78
q-31 -61 -23 -115q-47 -72 -34 -152q0 -4 12 -37t8 -49q-41 -59 -43 -63q-4 -33 5 -87t9 -79q21 -21 17 -93q-4 -71 -3 -112t23 -98q3 -15 21 -51t21 -55t21 -40q19 -20 25 -31t28 -82t71 -108q8 -8 14 -23q35 -17 99 -37q63 -20 77 -25t41 -6t43 -9h209z" />
    <glyph glyph-name="P" unicode="P" horiz-adv-x="2842" 
d="M1200 610q0 -2 21 -47q3 -17 -8 -32t-13 -21v-21q4 -10 14 -30q17 -34 18 -57q2 -23 23 -33q7 -7 13 -27t14 -28t39 -17q31 -7 39 -19t8 -27t9 -19t35 -9q26 -4 36 -13q10 -10 20 -30t17 -28q53 -39 188 -39l21 -21q33 -33 6 -96q-104 0 -118 5t-26 15q-10 10 -18 15
q-59 23 -94 39t-76 53t-53 84q-8 0 -37 6t-39 -10q-10 -15 -12 -29t0 -38t10 -96t4 -97q-6 -12 -6 -47q6 -23 53 -41q31 -17 169 -11t180 2t64 -11q23 -7 56 -6t51 -1l56 -14q6 0 32 2q90 18 168 18q86 -14 103 -12q6 6 26 6l27 -12q20 -8 60 -1t75 -1t76 4q92 27 127 24
q34 -14 56 -54t18 -72t-19 -54q-16 -22 -39 -38q-22 -17 -24 -19q-43 -29 -88 0q-8 8 -29 33q-58 72 -113 63q-72 -20 -141 0q-33 6 -107 0t-108 6q-20 4 -56 1t-53 -1q-63 16 -179 12q-116 -3 -194 11t-91 12q-94 -13 -113 -10q-20 4 -61 8t-76 25q-36 22 -62 22
q-31 -34 -85 -30q-54 5 -80 2t-152 16q-98 0 -121 -8l-27 8q-14 0 -67 -8t-68 0q-35 0 -47 -7q-20 0 -35 7q-33 5 -95 -7t-87 -12q-6 -4 -12 -4l-27 4q-6 -4 -21 -10t-20 -10q-16 -35 -20 -41q-1 2 -15 6t-24 13q-10 10 -41 28t-41 26q-20 27 -17 67q5 40 25 51t38 13t43 0
q26 -2 36 -2t56 -6t69 -2q20 14 47 15q16 8 63 27t76 37t40 38q10 18 24 18t18 9l8 32q4 9 14 15t13 12q33 78 43 93t10 63q6 26 34 70t34 71l6 76q0 8 12 23t8 24v121q15 61 -37 145q-23 37 -22 57q-4 25 -27 66q-24 41 -30 63t-39 46q-33 22 -39 28q-32 47 -56 47h-18
q-8 4 -17 6t-18 7q-25 4 -97 13t-112 21q-47 0 -67 6q-8 6 -73 39t-77 70q-20 66 -12 121q10 35 41 53q63 23 121 14q10 -4 26 -41q2 -16 -1 -46t1 -48q0 -32 24 -56t58 -24q3 4 17 6t16 7q72 4 270 35q14 4 41 19t47 21t61 22q42 16 60 24h47q4 2 22 13t27 11l33 -4
q10 2 40 20t60 14t60 18q31 22 35 57q0 88 67 155q29 9 35 6q74 -27 101 -61q4 -17 -14 -43t-1 -35q15 -8 29 -8t23 9t19 11t38 -3q27 -5 35 1q12 0 47 35q14 4 43 -1t47 -2t57 44q27 -8 141 -8q166 -18 170 -19q12 6 48 7q86 -31 102 -43t43 -13t33 -9q6 -9 10 -9
q104 -39 256 -143q14 -29 63 -70t66 -64q0 -18 18 -25t23 -16q86 -133 115 -208q39 -86 35 -119t2 -90t2 -88q-6 -14 -7 -48q15 -24 15 -114q4 -27 -16 -72t-25 -57q-109 -94 -121 -168q-60 -60 -91 -81q-31 -22 -71 -42t-58 -30q-17 -10 -57 -9q-20 -6 -104 -41t-160 -27
q-47 0 -141 13q-53 16 -82 94q0 43 8 47q154 61 183 197q4 12 20 26t18 21q12 6 9 41q-4 35 0 47l20 41q4 41 -1 101t20 114q5 15 -15 38t-24 29q-6 23 39 74q14 10 13 34t-11 72t-21 103t-35 94q-49 51 -56 71t-12 40t-11 39t-24 35q-19 16 -47 21t-41 12q-14 7 -58 37
t-74 36q-94 -63 -203 -20q-14 -10 -49 -12t-48 -16q-13 -15 -24 -40q-8 -8 -39 -27t-35 -42t-8 -58t-8 -55t-45 -60q-2 -4 -6 -15t-8 -19l8 -27q0 -141 -21 -209q0 -20 6 -27q8 -43 -3 -117t-11 -100z" />
    <glyph glyph-name="Q" unicode="Q" horiz-adv-x="2402" 
d="M1083 1526l-34 -21q-37 0 -91 -28v-15q-40 -24 -76 -89q-8 -17 -14 -21t-21 -18t-31 -28q-16 -13 -25 -44q-11 -72 -25 -108t-20 -104t-25 -102q-2 -10 8 -35t6 -34q-31 -51 -20 -119q27 -74 6 -131q4 -13 30 -75q27 -62 33 -93t35 -90q57 -63 105 -181q12 -28 34 -28
t62 -16q39 -16 57 -19q89 -16 133 -2t102 23t79 14q53 12 61 41q31 47 55 139q53 50 82 136q28 87 37 108q-6 57 11 176t3 186q1 29 7 41q0 35 -13 112q-12 77 -8 120q-27 55 -84 165q-31 50 -45 58t-63 38t-86 38q-178 12 -265 6zM1821 -69q29 1 53 1t69 1q44 1 89 -21
t61 -29q32 -4 40 -42q3 -13 5 -40t6 -47q7 -37 84 -58q35 -9 53 -22q15 -16 13 -35q-3 -44 -76 -48q-37 -1 -57 5t-62 23q-49 14 -184 16t-213 19l-76 6q-20 0 -67 1t-74 0t-79 -2t-125 -19t-157 49q-20 23 -68 55t-63 43v20q-2 3 -9 15t-11 20t1 32t-2 36t7 57q1 27 -19 34
t-135 22q-10 4 -30 10t-31 10q-174 23 -307 125q-14 8 -21 14q-45 18 -80 58q-36 40 -73 90h-15q-6 4 -11 14t-9 12q-6 14 -6 43q-23 41 -113 236q0 37 -9 103t-10 102q-1 35 13 102q12 30 18 102t31 107q25 51 125 139q43 32 62 48t49 34q16 14 58 56t73 57q31 16 103 39
t108 43q44 8 114 26q251 64 338 37q35 0 49 6q39 4 104 -8t91 -12l27 -14q16 -2 49 -8t69 -11q36 -6 76 -29l35 -8q25 -18 81 -38t81 -38q18 -16 54 -40t50 -35q68 -51 117 -119q61 -61 92 -125q4 -10 9 -43t18 -49q6 -11 25 -31q44 -45 44 -143q-5 -27 5 -77t10 -69
q-18 -170 -76 -293q-14 -16 -49 -81q-5 -5 -15 -13t-17 -19t-14 -39t-21 -43t-30 -27t-41 -25q-25 -14 -36 -23l-29 -29q-6 -2 -26 -6t-29 -8q-219 -92 -311 -107t-169 -3q-44 -15 -89 -11q-44 4 -58 4l-14 -8q-20 8 -62 21l-90 -13q-16 0 -26 -15t-9 -34q11 -69 63 -101
t97 -32q94 -20 285 8q14 0 63 35q44 25 72 31q27 6 42 10t41 7t39 4t42 2z" />
    <glyph glyph-name="R" unicode="R" horiz-adv-x="2965" 
d="M2757 1051q0 -13 2 -25t-4 -45t-2 -47v-82q-13 -38 -21 -49q-8 -7 -18 -21t-17 -20l-41 -41q-53 -47 -125 -63t-135 -12q-63 5 -137 -1q-47 -14 -47 -40t41 -42q23 -2 134 -11t154 -24q43 -16 61 -16t24 -1t26 -9t31 -10t28 -13q17 -10 41 -23t41 -42q72 -168 62 -221
q-4 -23 -7 -33q-4 -14 -16 -59t-41 -79q-30 -33 -38 -47q-25 -7 -75 -39t-83 -36q-55 0 -69 -5t-62 -22q-49 -17 -68 -61q16 -25 36 -39q20 -15 66 -29q44 -14 55 -16t45 5t52 3q76 -27 68 -96q-4 -25 -26 -39t-42 -9q-84 0 -192 48q-10 2 -38 -1t-46 6t-60 50q-10 6 -35 16
t-34 17q-29 33 -41 69q-10 11 -14 15t-7 6q-16 31 -44 124t-58 136q8 61 8 184q0 16 -16 34t-19 28q-15 117 -79 153q-17 10 -23 19q-74 53 -152 61l-20 14q-68 12 -88 41q-18 31 -2 58t49 30q170 27 239 97q14 0 21 6q49 49 76 151v47q-4 15 1 45t5 37q-16 53 -48 117
q-32 63 -40 96q0 59 -29 88q-31 20 -85 66t-88 67q-34 22 -99 5q-32 0 -46 -6t-32 -11q-58 -13 -94 -45q-62 4 -112 -42t-68 -96t-31 -136q-10 -37 -38 -105t-38 -106q20 -92 20 -164q10 -70 -12 -114t-32 -82t-12 -99q-3 -61 -5 -76l-14 -26q0 -111 -27 -164v-35
q2 -12 14 -37q11 -25 13 -38t4 -69t10 -89q12 -68 61 -68q205 -10 500 -35q14 -14 35 -14q20 8 61 8l13 -8q36 14 68 -1t42 -52q10 -90 -61 -138q-31 -18 -49 0q-6 6 -35 42t-68 40h-108q-11 2 -31 10t-51 15q-31 8 -123 13t-125 9q-27 9 -72 7t-71 2q-29 12 -35 12
q-68 -6 -199 -6q-55 -4 -165 8t-122 12h-116q-41 -6 -123 6q-27 8 -72 6t-87 6t-60 9q-45 -14 -56 -21q-82 -68 -123 -41q-59 49 -26 123q25 49 67 49q70 0 102 -6t86 0t73 6q18 4 75 35h21q100 43 117 103q4 12 14 26t12 21l41 41q72 98 82 254q25 48 18 120q-6 72 -4 99
q14 29 14 32t-8 24q-10 20 -7 40t1 27q-70 143 -77 157t-10 24q-3 11 -9 17l-123 123q-14 14 -26 15q-33 -5 -72 17t-55 26t-56 6t-51 4l-20 14h-21q-6 0 -26 21q-27 82 -32 111q-14 82 11 128q15 41 67 45t83 -30q3 -21 -9 -55t-17 -52t13 -45q43 -34 88 -32q45 1 93 11
q49 9 59 11t40 22t48 23q133 10 219 61q8 2 32 6q24 3 32 7t24 14t29 14h20q10 4 30 14t32 13q92 14 164 43q10 10 14 13t6 7q52 12 72 14t50 12q30 11 52 16t31 12q35 8 96 8l29 12q14 0 61 14h252l35 -14q100 0 172 -27q33 -5 94 -33t96 -34q20 -8 78 -35t94 -35
q2 -2 10 -12t11 -14q12 -8 41 -21q6 -8 20 -18t21 -17q69 -31 101 -74q61 -83 96 -150q35 -68 41 -78t6 -25z" />
    <glyph glyph-name="S" unicode="S" horiz-adv-x="2662" 
d="M900 184q-52 0 -81 9q-47 20 -49 20q-47 -10 -93 5q-45 15 -107 53t-80 47t-54 10q-20 10 -49 47t-49 51q0 20 -6 20l-25 11q-6 0 -12 -11q-8 -29 8 -69q29 -96 32 -128t17 -50q12 -5 30 -21t28 -20q6 -6 12 -30t14 -34t34 -41t44 -65h14q90 -82 213 -127q5 -5 9 -15
t20 -17t67 -29t75 -32t73 -4t65 0t47 -15q32 -9 42 -12t38 -9t42 -6t44 2q30 0 72 22q29 -6 85 5t83 4t87 -43t106 -29q98 29 170 135q14 0 20 5t18 17t28 14t68 28q52 24 83 26t100 51q14 12 45 55t56 58q15 15 20 48q6 34 9 49t-15 39q-18 25 -23 34q-80 160 -190 184
q-16 6 -50 9t-48 11q-59 12 -83 14t-159 -20q-71 -43 -130 -64t-75 -28l-20 -20h-29q-16 -8 -51 -28t-72 -42q-37 -21 -96 -16q-51 -57 -156 -70q-86 0 -125 6t-91 6zM1200 1452q-8 0 -41 -22q-121 -12 -170 -28t-97 -16q-60 -2 -121 -21t-77 -31q-16 -13 -31 -31t-28 -29
q-25 -14 -70 -36t-57 -28q-9 -38 -39 -82q-30 -45 -39 -59l-4 -18q-6 -18 4 -25q20 -31 55 -91t52 -85q66 -43 268 -133q20 -8 106 -8q33 4 162 24t199 25q133 82 225 106q19 6 75 31t89 33l20 -6q41 20 78 20q38 13 64 29q129 10 233 -29h21q33 -12 83 -49t72 -49h29
q57 -29 86 -23q41 23 27 68t-64 131q-6 14 -21 67t-48 82q-10 5 -42 19q-33 14 -41 24t-20 14q-12 3 -25 11t-40 37t-37 37q-20 31 -29 35q-29 29 -49 28q-100 -10 -248 27q-45 47 -127 72q-27 4 -121 -15q-18 -2 -58 10t-58 8q-92 -24 -146 -24zM338 70q0 20 -29 30
q-4 0 -7 1q-8 3 -12 -11q-5 -14 -10 -21t0 -39t0 -58t-2 -109q2 -85 -6 -107t-9 -57t-9 -51q-14 -10 -37 -21h-20q-5 -2 -15 -7t-23 -8t-18 0q-6 3 -25 12q-39 18 -32 46q6 10 14 43t38 75t40 100t7 172t14 161q-6 53 -9 171q-2 118 -14 196t8 155q40 46 31 153q-4 50 -2 75
q4 25 23 65t26 56v49q2 4 8 20t13 21q20 8 40 43q19 35 31 43q6 2 24 10t29 13q12 5 18 32q5 27 13 37q10 6 32 16t29 16t14 13q7 6 17 12t45 31t56 31q87 48 262 74q70 11 104 26q11 2 29 -1t26 0t18 7q11 4 19 8q23 2 86 -1t89 9q26 13 53 13q127 -29 182 -15
q19 -12 61 -12t54 -2q49 -20 124 -20t136 -43q14 -8 43 -12t43 -11q14 -8 76 -41q62 -32 96 -60q33 -28 81 -96q47 -68 67 -86q41 -41 69 -20q12 14 8 64t3 88t24 174q12 55 35 71q4 1 21 13t41 23t32 8q9 -3 35 -5t44 -32t-3 -64q-12 -14 -49 -51t-48 -61q-10 -23 -8 -54
q2 -30 -5 -50t-26 -101q1 -10 7 -43t2 -50l6 -354q12 -25 17 -74q5 -48 10 -70t-2 -75t-3 -78q14 -33 15 -35l8 -101q0 -26 -8 -48l2 -21q2 -20 -2 -20q-20 -137 -121 -262q-18 -76 -107 -127q-4 -6 -20 -43q-14 -10 -36 -32t-36 -32q-98 -57 -147 -84q-74 -29 -107 -22
q-81 -45 -197 -52t-206 3h-84q-54 -12 -144 -4t-184 5t-139 -1h-49q-90 18 -199 77q-6 0 -20 3t-23 4q-4 4 -14 11t-58 55t-84 69q-86 78 -133 162q-6 6 -22 14q-2 12 -19 34q-16 22 -16 42z" />
    <glyph glyph-name="T" unicode="T" horiz-adv-x="2623" 
d="M1878 1223q-16 0 -135 -3q-118 -3 -230 9q-37 0 -57 -6q-29 0 -45 6q-29 0 -46 -6t-89 14q-25 4 -66 -2t-57 -6q-39 -29 -88 -103t-57 -84q-51 -90 -86 -202q-20 -47 14 -166q8 -27 -5 -74q-13 -46 -10 -66t6 -66t15 -85q21 -68 33 -153t22 -106t32 -52q23 -31 29 -43
t17 -38q10 -26 19 -40q14 -29 59 -57q10 -6 35 -10t37 -14q12 -9 26 -36q31 -59 74 -49q11 4 29 18t28 19q18 0 50 -16t45 -13q51 0 137 57q4 2 32 18t93 53q64 36 85 65q21 30 29 53l15 6q6 10 16 36q10 25 29 45t26 42l15 8q35 59 20 158q30 38 14 126q-7 38 -6 62
q14 35 13 59t-25 55q-24 30 -30 40t-7 22q0 12 8 24t44 60q36 49 49 101q0 23 -23 22q-55 -16 -72 6q-16 33 -7 68q22 84 145 63q2 -2 11 -10t9 -20v-15q14 -43 103 -28q26 8 78 -1t79 -5q5 -11 19 -21t18 -16v-13q0 -22 -4 -22h-10q-26 4 -50 -11t-36 -40q-4 -16 5 -46
t9 -37t-11 -29t11 -62q2 -25 -8 -68t-6 -70l14 -28q2 -29 -7 -89t-1 -92q12 -78 43 -135t43 -176q25 -143 123 -223q41 -39 14 -137q0 -27 -57 -43q-47 -3 -82 25t-47 69q-23 45 -23 80q-4 8 -18 27t-26 51q-14 33 -30 67t-6 92q4 6 4 14l-4 38q-2 8 -15 41t-13 53
q-8 32 -16 38t-19 5q-53 -20 -94 -74q-14 -23 -41 -70t-39 -67q-150 -199 -252 -289q-10 -6 -34 -13t-32 -16q-11 -20 -31 -29t-25 -13t-8 -9q-3 -6 -19 -6t-31 8q-52 4 -109 -14t-74 -23h-63q-7 4 -25 12t-26 11q-98 25 -139 41t-78 16q-49 14 -126 64t-120 65
q-4 13 -26 27q-23 14 -29 19t-34 7t-37 6q-9 3 -97 72q-8 4 -43 58q-3 2 -11 6t-12 8q-10 23 -36 64t-36 59l-28 14q-12 12 -39 41t-54 57t-44 82q-37 92 -37 218q-10 92 8 165q18 53 80 158q4 4 14 8t72 64t114 80q6 4 18 15t32 20t85 45t97 51q123 35 151 51q10 10 43 29
q18 33 -3 47q-40 26 -80 19t-63 -3t-91 -14l-43 14q-125 23 -268 8l-57 -4q-13 0 -21 4q-94 35 -166 15q-14 14 -55 6t-49 -6l-16 4q-7 2 -13 2q-15 0 -19 16q-10 27 0 58q27 66 129 65q34 -31 84 -45t62 -20l43 -9q36 12 110 12t86 4q12 3 41 10t42 11t45 14t65 29
q23 8 65 8l35 15q53 0 94 20q2 6 29 4l29 -4q25 8 87 38t116 20q66 37 208 36h23q6 0 22 7t98 17q81 11 100 12t87 5t86 -2q64 -21 106 -29q42 -7 65 -31t31 -30t28 -35l20 -28q10 -15 28 -59q36 -91 95 -87q33 25 74 25l84 -2l28 14q7 0 25 -1t27 0t29 2t32 18q12 16 17 44
q5 29 7 38q12 33 44 25t48 -25q17 -16 36 -42t32 -38q27 -12 43 -43t8 -72q-10 -29 -45 -29q-4 4 -16 7t-18 8q-43 4 -138 -23h-116q-145 -12 -209 0q-29 0 -43 -6q-6 0 -30 5t-36 1q-38 -23 -99 -22q-61 2 -77 2z" />
    <glyph glyph-name="U" unicode="U" horiz-adv-x="2564" 
d="M1700 1404q0 9 -14 19l-7 15q-18 4 -55 1q-36 -3 -60 2t-78 -7t-79 -11l-27 15q-14 0 -78 8t-79 -2q-53 -8 -103 -68q-6 -6 -20 -6q-69 -62 -118 -161q-48 -99 -58 -119v-54l-21 -49l-6 -74l-14 -41q-1 -4 -11 -62t-9 -76t5 -41q10 -55 0 -93q-27 -96 -2 -193t69 -193
t59 -165t44 -117q68 -68 117 -82h21q27 -23 47 -12q10 2 47 20t51 15q14 -2 31 -23q27 -12 75 0q13 6 49 24t58 24q22 7 44 39q24 31 32 41t63 139q37 94 27 217q33 64 25 163q-3 38 1 83q16 66 0 96q-23 84 -12 149q0 11 -12 25t-16 22q-27 181 6 303q16 62 7 101
q-9 38 -4 78t5 50zM2251 1118q0 -14 -5 -57q-9 -78 13 -100q0 -16 3 -92t-9 -109t-8 -81q5 -49 -3 -67t0 -34t9 -25q-7 -22 -2 -126q5 -103 23 -147q16 -43 20 -54t14 -24t14 -24q37 -121 74 -164v-34q-2 -6 -13 -20t-7 -28q39 -53 137 -82q25 -43 100 -122q41 -66 35 -109
q-4 -23 -29 -27t-42 8t-61 46q-44 35 -85 49q-14 6 -41 33q-57 98 -102 131v18q-29 45 -65 147t-73 154q-4 4 -17 0t-24 -14q0 -14 -9 -24t-34 -31q-26 -21 -32 -29t-18 -38t-27 -42q-61 -47 -91 -74q-12 -29 -26 -35q-82 -51 -184 -176q-6 -6 -26 5q-20 10 -36 8t-50 -16
t-52 -17q-28 0 -183 -29q-55 0 -245 15q-12 0 -62 34h-35q-139 70 -155 82q-53 4 -99 30t-76 44t-47 21t-24 6q-38 76 -74 116q-72 -8 -123 82q-4 6 -17 16t-20 23q-7 12 -100 137q-27 35 -26 117q-4 14 -35 53v29q-68 170 -47 264q2 12 3 70t23 94q4 16 25 41q20 25 25 34
t27 33t34 50q37 47 74 67q14 10 50 37t58 39q12 12 32 43q19 31 38 45q72 51 155 41q31 18 179 68q20 6 33 22t-1 39q-133 29 -284 6q-33 -2 -123 3t-116 -2t-62 -7l-21 6q-106 -33 -205 21q-30 23 -24 67t32 70q37 22 77 12t67 -47q14 -14 34 -15t112 -3q91 -2 167 -17
q27 8 68 6t69 4q28 5 142 19q6 0 47 -20q39 -8 105 2t85 10h56q25 14 48 14t167 -8t241 23q74 -33 103 -21q20 2 57 -7t57 -7l27 14h33q15 0 57 -14q33 -6 99 0t101 1q36 -5 146 13q33 2 103 -1t102 1q12 3 26 19t24 22q11 6 73 6q80 -29 94 -76q23 -53 -6 -59
q-29 -10 -86 -4t-84 -4q-72 -33 -88 -33q-35 -10 -82 12q-33 12 -63 -3t-25 -44l-14 -143q0 -12 6 -27v-129z" />
    <glyph glyph-name="V" unicode="V" horiz-adv-x="2564" 
d="M1700 1404q0 9 -14 19l-7 15q-18 4 -55 1q-36 -3 -60 2t-78 -7t-79 -11l-27 15q-14 0 -78 8t-79 -2q-53 -8 -103 -68q-6 -6 -20 -6q-69 -62 -118 -161q-48 -99 -58 -119v-54l-21 -49l-6 -74l-14 -41q-1 -4 -11 -62t-9 -76t5 -41q10 -55 0 -93q-27 -96 -2 -193t69 -193
t59 -165t44 -117q68 -68 117 -82h21q27 -23 47 -12q10 2 47 20t51 15q14 -2 31 -23q27 -12 75 0q13 6 49 24t58 24q22 7 44 39q24 31 32 41t63 139q37 94 27 217q33 64 25 163q-3 38 1 83q16 66 0 96q-23 84 -12 149q0 11 -12 25t-16 22q-27 181 6 303q16 62 7 101
q-9 38 -4 78t5 50zM2251 1118q0 -14 -5 -57q-9 -78 13 -100q0 -16 3 -92t-9 -109t-8 -81q5 -49 -3 -67t0 -34t9 -25q-7 -22 -2 -126q5 -103 23 -147q16 -43 20 -54t14 -24t14 -24q37 -121 74 -164v-34q-2 -6 -13 -20t-7 -28q39 -53 137 -82q25 -43 100 -122q41 -66 35 -109
q-4 -23 -29 -27t-42 8t-61 46q-44 35 -85 49q-14 6 -41 33q-57 98 -102 131v18q-29 45 -65 147t-73 154q-4 4 -17 0t-24 -14q0 -14 -9 -24t-34 -31q-26 -21 -32 -29t-18 -38t-27 -42q-61 -47 -91 -74q-12 -29 -26 -35q-82 -51 -184 -176q-6 -6 -26 5q-20 10 -36 8t-50 -16
t-52 -17q-28 0 -183 -29q-55 0 -245 15q-12 0 -62 34h-35q-139 70 -155 82q-53 4 -99 30t-76 44t-47 21t-24 6q-38 76 -74 116q-72 -8 -123 82q-4 6 -17 16t-20 23q-7 12 -100 137q-27 35 -26 117q-4 14 -35 53v29q-68 170 -47 264q2 12 3 70t23 94q4 16 25 41q20 25 25 34
t27 33t34 50q37 47 74 67q14 10 50 37t58 39q12 12 32 43q19 31 38 45q72 51 155 41q31 18 179 68q20 6 33 22t-1 39q-133 29 -284 6q-33 -2 -123 3t-116 -2t-62 -7l-21 6q-106 -33 -205 21q-30 23 -24 67t32 70q37 22 77 12t67 -47q14 -14 34 -15t112 -3q91 -2 167 -17
q27 8 68 6t69 4q28 5 142 19q6 0 47 -20q39 -8 105 2t85 10h56q25 14 48 14t167 -8t241 23q74 -33 103 -21q20 2 57 -7t57 -7l27 14h33q15 0 57 -14q33 -6 99 0t101 1q36 -5 146 13q33 2 103 -1t102 1q12 3 26 19t24 22q11 6 73 6q80 -29 94 -76q23 -53 -6 -59
q-29 -10 -86 -4t-84 -4q-72 -33 -88 -33q-35 -10 -82 12q-33 12 -63 -3t-25 -44l-14 -143q0 -12 6 -27v-129z" />
    <glyph glyph-name="W" unicode="W" horiz-adv-x="3147" 
d="M965 450q0 12 -7 17q-4 6 1 16t6 15q-20 49 -7 188q0 27 26 80t28 84q0 31 30 47l7 25q7 6 31 25t30 30l55 92q11 19 57 35t59 26q54 42 151 66q14 6 40 24t54 30q28 10 28 26q-4 8 -30 16h-135q-70 6 -130 -4q-59 -10 -81 -12l-37 -19q-17 -3 -67 5t-62 -11
q-8 -7 -24 -31t-53 -42q-38 -18 -50 -31q-99 -115 -117 -135t-29 -47q-4 -27 -23 -73t-26 -67q-10 -74 -24 -123q-31 -70 -25 -96q0 -12 31 -80q6 -10 -6 -34q-33 -42 -35 -92t28 -93l13 -4q8 -8 20 -31t23 -30q0 -20 22 -33q22 -12 27 -23q31 -76 96 -151q0 -12 6 -19
q41 -16 127 -79q76 -45 166 -35q8 4 30 14t30 14h18q25 8 27 32t-10 36t-23 21q-12 9 -19 16q-25 35 -78 92q-54 57 -79 92t-50 107q-26 72 -40 98l6 12q-6 2 -6 14zM1851 -88l31 -10q88 8 195 114q36 36 24 93q0 20 -23 54q-24 35 -28 57t-6 90t-23 102l-6 18
q-31 10 -59 -12q-18 -18 -50 -44t-39 -34t-13 -13t-14 -11t-28 -12q-20 -5 -34 -19q-6 -11 -24 -55t-36 -68q-25 -37 -104 -72q-41 -28 -56 -64t15 -77q61 -55 158 -37q18 6 37 6zM1724 1276q-8 0 -36 2q-95 7 -120 -51q-5 -12 -11 -39t-45 -117q-40 -90 -46 -126t-9 -81
t-7 -69q0 -31 -12 -93q-4 -6 -7 -14t-6 -14q-14 -86 -6 -111q25 -74 25 -108q12 -25 12 -31q0 -158 74 -225q2 -3 6 -15t6 -16q31 -14 35 0q49 115 135 182q18 18 19 31v98q31 72 30 90q4 5 -1 17t-5 14l19 268q6 72 2 122t-6 130t-9 125q-10 31 -37 31zM2144 733v-65
q-3 -31 6 -77q16 -77 18 -182q2 -106 22 -187q19 -81 75 -132l12 6q4 6 33 66t57 80q33 66 56 200l-6 25q14 61 18 65q-6 6 -6 19q6 18 6 55q-6 23 -6 115q13 58 19 96q6 39 6 178q-6 47 -6 128q1 81 -1 128q-6 25 -43 37q-49 6 -102 -12q-14 -4 -49 2t-59 3t-34 -35
t-22 -105q0 -51 6 -60q0 -18 -6 -24q-6 -37 -1 -117t-5 -115q0 -27 -1 -31t6 -30q7 -27 7 -31zM2855 1168q0 -28 -19 -265q41 -53 7 -145l6 -31q-4 -84 -4 -114q0 -31 7 -111t9 -107t-6 -78t-5 -71t22 -49t26 -41v-25q18 -31 41 -101t43 -106q8 -6 24 -28t26 -28
q10 -7 11 -34q6 -14 31 -49t28 -47t9 -14t6 -28t-6 -32q-51 -43 -129 49q-12 10 -60 11q-16 8 -24 24q-12 72 -43 111q-25 25 -25 59q-6 27 -27 68q-59 110 -50 151q0 2 -7 8q-6 6 -6 11q0 63 -30 86q-31 37 -93 -13q-8 -8 -29 -35t-36 -35q-16 -7 -36 -11t-43 -11
q-22 -6 -40 -26q-19 -21 -67 -50t-61 -47t-13 -38t18 -51t26 -48t47 -65q38 -48 46 -68t18 -28t13 -15q29 -70 -6 -92q-49 -31 -91 -12q-41 16 -55 98l-12 22v37q-8 16 -30 66t-42 79q-20 28 -51 44q-29 -3 -51 -30t-33 -36q-25 -12 -37 -24l-37 -56q-6 -6 -21 -15
q-15 -8 -35 -26q-21 -18 -59 -32t-70 -9q-32 4 -41 2t-19 -4t-15 -6q-98 -11 -201 38q-34 17 -54 25t-56 45q-36 38 -42 44q-7 6 -36 6l-31 -12q-66 0 -141 -43h-16q-88 -74 -250 -74q-61 12 -86 31h-37q-159 71 -181 75t-29 10t-16 19q-9 12 -16 18q-92 59 -147 121h-13
q-14 41 -59 68q-51 40 -74 100t-47 97t-49 97t-43 89q-2 16 -12 71t-8 83q2 27 11 47t8 42t1 35q7 13 21 59t32 74t62 62l18 37q8 6 20 18t69 47q56 35 87 58l37 4q25 8 77 38t81 35q176 63 194 74q18 18 19 25q-6 20 -49 35q-23 2 -67 5t-90 10t-174 12t-179 9q-27 6 -82 0
t-82 0q-35 12 -25 56q10 37 72 65t76 37q14 11 28 63t31 72q20 10 52 -1t22 -42l-15 -30q-22 -46 -21 -64t11 -33q22 -10 31 -5q8 5 47 5q23 -6 71 -4t59 -5q37 -23 50 -29q14 -5 48 1t53 0q18 0 55 13q96 0 133 -6t66 -7l116 7q55 0 128 3t110 -9q37 -11 50 -6t16 5l12 -6
q9 14 73 4t80 -12t62 3t82 2t160 9h36q20 -2 84 -4t99 -8q10 12 58 8t63 -2h30l19 6q44 -15 67 -12q16 6 84 6q37 -6 219 -6h146q6 6 24 6q12 -6 68 -6q35 8 43 43q0 59 6 72q18 37 58 54t81 7l19 -61l-25 -72q0 -12 12 -24q12 -6 25 -19q35 -61 102 -92q35 -21 41 -49
t-5 -46t-30 -22q-18 -2 -50 14t-46 19h-24q-51 29 -133 18l-13 7q-68 -14 -67 -43q6 -25 6 -53z" />
    <glyph glyph-name="X" unicode="X" horiz-adv-x="2508" 
d="M1060 608q-34 0 -61 -20q-2 -2 -75 -82q-4 -8 -29 -41t-33 -53q-7 -38 -30 -75t-58 -87q-59 -102 -33 -116q10 -6 32 -5q22 0 30 -2q66 -33 12 -156q-8 -29 14 -61q25 -31 101 -12q117 35 217 -9q18 -4 55 2t53 7q0 -8 41 0q16 -12 70 -10t74 1q37 -12 67 -12
q76 -12 156 0q35 10 27 41q-10 18 -41 46t-41 48q-43 76 -121 115l-21 20q-6 31 -61 103q-12 26 -30 42q-17 16 -57 68t-75 83q-35 32 -81 87q-46 54 -62 72q-6 6 -40 6zM1004 1477q-12 1 -22 -5q-11 -6 -11 -10q14 -86 143 -196q6 -10 16 -34t17 -34q115 -127 143 -170
t47 -57q20 -14 27 -23q76 -113 197 -190q8 -6 26 -4t29 10q16 20 54 54t53 52t25 46t12 74q4 48 11 76t-2 58q-10 29 -12 41t4 42t2 42q-4 13 -13 33t-16 42t17 56q0 41 -8 47q-25 23 -53 28t-71 -1q-44 -6 -58 -6q-154 20 -183 20l-49 -14q-6 0 -26 2q-80 32 -184 27
q-103 -6 -115 -6zM1669 -238q-10 0 -61 -3t-88 10q-20 0 -33 -7q-31 -2 -40 -2t-38 6t-47 9q-18 1 -69 -15t-73 -13q-156 21 -202 22q-12 -6 -39 -7q-27 14 -49 19h-80q-52 25 -130 19q-79 -7 -109 -3q-29 4 -59 6t-75 0t-61 -2l-111 4q-62 0 -74 -10t-12 -20q16 -72 6 -94
q-37 -15 -85 -15t-70 41q-14 19 -37 61t-34 59t-15 29q-4 13 -9 23q-4 10 -4 23q-1 13 7 17q78 36 194 -21q16 2 58 -1q89 -6 132 33q-10 56 -26 102t-20 74t-6 63q-1 36 -3 54q-4 19 1 55t5 46v114q4 8 5 33q2 25 10 35t30 17t31 18q8 20 21 41q16 12 53 29t55 32
q27 9 33 6q53 -23 94 -14q27 10 62 35q12 2 47 14t55 12q86 12 121 0q33 0 35 6l20 21q4 15 -7 33t-13 22q-74 51 -129 135q-29 39 -96 104t-95 107q-8 24 -18 39q-8 9 -36 25t-35 26t-17 24q-11 12 -17 24t-33 24q-72 88 -79 103q-6 6 -29 38q-37 39 -109 29q-16 0 -41 22
t-32 25l-6 63q0 32 24 44t49 18t35 10q33 -6 180 -39t260 -22q3 4 17 8t16 6q32 2 98 -9t92 -6t48 0q20 -5 26 -5q190 -23 361 6q27 0 80 -12q409 -24 542 -9q59 0 109 -20h47q9 4 23 19t28 25t60 0q46 -9 65 -3q77 52 113 38q18 -7 21 -13t13 -18q10 -11 12 -14
q1 -4 10 -14t11 -14q1 -4 7 -14q19 -35 4 -66q-34 -4 -66 8q-113 39 -219 -14q-16 -11 -6 -38q10 -28 16 -76q5 -48 17 -72t17 -76q5 -51 9 -70l-12 -28q-18 -72 -76 -148q-23 -60 -38 -88t-44 -50t-39 -38q-164 -70 -252 -90l-26 4q-6 0 -13 -4q-10 -16 -76 -13t-73 1
q-19 -4 -25 -24t11 -32q39 -18 59 -40t40 -51q20 -30 30 -39t14 -19t6 -12q15 -3 26 -17q12 -14 30 -38t86 -106q68 -81 102 -124q109 -109 162 -170q8 -10 16 -41t19 -43q10 -12 14 -17q28 -34 47 -28q12 0 78 4t113 -19q48 -24 38 -65q-8 -62 -57 -105q-16 -15 -52 -45
t-44 -38t-49 -9q-13 4 -19 24t-2 38q4 6 14 20t20 36t-5 38q-16 16 -70 0q-6 -10 -57 -2t-58 8q-162 25 -278 0q-59 0 -88 8h-115z" />
    <glyph glyph-name="Y" unicode="Y" horiz-adv-x="2252" 
d="M756 236q0 29 14 71q16 13 61 71t89 66q170 18 303 115q82 57 108 127q8 35 14 118q5 83 21 126v20q-47 63 6 156q0 18 -13 68t-8 86q5 35 42 55q6 21 8 63t3 53t-7 19t-19 8q0 -6 -141 -4l-141 4q-6 0 -20 8t-40 0q-24 -8 -68 -11t-112 0t-86 3l-27 6q-35 -12 -109 -3
t-94 5t-38 -5t-29 -17q-41 -63 21 -121q6 -8 32 -8q44 -19 60 -23t69 -17t111 -25t86 -29q19 -19 68 -47q33 -30 62 -86t38 -70q27 -174 -109 -379q-6 -6 -23 -16t-24 -17q-12 -18 -48 -52t-46 -56q-106 -63 -188 -150q-18 -16 -56 -26q-33 0 -47 -15q-27 -33 -80 -86
q-18 -33 -14 -41q17 -63 29 -96t44 -74t77 -59h38q39 -24 95 -23q55 2 61 2q78 -10 170 54l6 8q8 20 -30 54t-44 40q-66 80 -75 115v35zM1927 787q0 -19 -10 -32t-10 -22q0 -59 -21 -86q-8 -6 -53 -56t-82 -67q-4 -2 -12 -15q-7 -13 -15 -17q-104 -56 -143 -82q-6 0 -20 -15
q-15 -9 -97 -29t-170 -27t-131 -17q-31 -2 -87 4t-94 0t-97 -52q-35 -35 0 -81q20 -23 47 -64t35 -51q78 -70 235 41q30 18 101 30q71 13 103 24t74 19t170 38t195 44q141 33 238 -161q0 -2 33 -35q30 -39 -8 -104q-39 -64 -25 -78q12 -66 59 -82q82 -14 103 -27h20
q55 -20 80 -59q31 -55 -33 -123q-15 -15 -34 -15l-42 2q-38 57 -102 83q-27 11 -56 23t-71 21q-14 8 -80 9q-10 -4 -33 4q-24 8 -38 6t-136 -2t-180 -43q-14 4 -38 17t-36 18q-84 10 -161 -35q-70 31 -150 6q-70 -16 -162 -27q-14 -4 -61 15q-205 16 -223 20q-92 16 -183 68
q-14 14 -32 26q-19 11 -24 15q-29 21 -71 6q-39 8 -69 36t-64 70q-33 42 -48 60t-18 58t-5 48t-18 46q-15 38 -16 56t-19 85q-18 66 -1 88q18 43 21 47v35q25 37 37 103t16 79t33 31t34 33t9 33t7 32t20 46t20 48l6 121l-6 144q0 37 4 61t-2 62t-2 59q12 25 12 40
q-4 14 -7 55t-26 60l-93 -2q-54 0 -89 14q-12 -16 -82 -13t-80 1q-22 37 -4 64t50 56t40 42q14 2 46 10t42 7t41 -11q6 -6 21 -28t35 -25l82 -8q14 0 45 -1t67 15q20 0 35 -6q78 0 94 6t88 16t115 -2q14 -8 38 -11t34 -8t28 0t23 5q57 -14 63 -14t31 2q39 10 117 2t113 -2
h94q20 -8 61 -8l14 8q59 -14 183 -15l80 15q189 -21 211 -21t38 10t69 2t73 -5t49 29t41 32q35 27 88 12q33 -14 45 -51t1 -79t-75 -32q-53 23 -81 17q-28 -7 -64 -11q-74 -10 -74 -106l10 -96q23 -90 0 -183q-2 -4 -6 -16t-8 -16q0 -102 -4 -130t-20 -73q-16 -44 -15 -63z
" />
    <glyph glyph-name="Z" unicode="Z" horiz-adv-x="2531" 
d="M2507 -190q41 -12 41 -43t-26 -67q-26 -37 -42 -54q-70 0 -137 -21q-12 -6 -43 6q-4 2 -24 26t-30 24q-10 -1 -32 -7t-58 3q-34 9 -157 10q-88 43 -246 26q-55 -6 -125 0h-61q-12 0 -29 -12q0 -14 -6 -14q-19 0 -55 -9q-11 0 -41 15q-20 4 -62 -6t-61 -6q-47 20 -58 20
t-106 3t-154 -11q-7 0 -31 6t-36 2q-76 0 -103 -20q-43 -1 -161 -7t-183 -2q-20 0 -29 20q-8 20 -4 43q4 24 24 37t53 22q34 9 44 16h43q27 12 81 17q53 5 67 8t31 15q16 6 66 14t77 21q121 31 172 62q136 123 152 135t61 31q6 6 27 20q78 43 151 62q82 10 131 34
q102 76 275 103q9 4 33 0t34 0q104 35 125 41q20 -12 89 -46q68 -35 92 -49t29 -23t6 -29t3 -25q10 -137 -26 -254v-21q-37 -66 12 -123h55zM379 -293q0 -6 -14 -20q-25 -19 -76 -39t-76 -37q-33 -14 -41 -14q-33 6 -117 -7q-36 0 -36 50q1 18 10 32q4 12 24 18t29 11
q12 12 17 42t13 39l22 27q29 33 52 50q61 35 129 102q10 14 28 45q17 31 28 45q23 16 55 82q14 18 51 57t51 66q24 0 33 12q31 38 31 43q74 139 88 187q12 37 90 82q29 26 67 90t62 88q18 14 43 45t37 40t46 39t54 33q37 16 88 56q16 10 67 27t79 49q43 28 167 72
q125 44 175 71h20q62 16 124 45t93 39t38 13t31 12q99 37 148 90q10 14 -8 28q-80 17 -201 -17t-321 -128q-18 -6 -62 -12t-67 -15q-87 -20 -196 -71q-109 -52 -144 -64t-51 -23h-35q-34 -14 -60 -17q-26 -2 -80 -22t-102 -47q-47 -27 -73 -36l-43 -43q-27 -10 -75 -16
t-79 -11q-31 -6 -83 -6q-53 0 -67 5t-31 14t-28 14q-35 0 -41 14q-18 33 -40 100t-48 102t-27 42q-2 6 -4 50t11 60q12 16 24 25q55 27 76 88q10 25 -12 49q-18 10 -57 10t-69 -8t-55 0t-29 24q-14 48 -21 66t9 37q29 39 91 29q10 -4 30 -14t31 -15q82 -10 244 -23
q162 -12 215 -20t104 -2t76 -2q35 0 55 6q41 0 62 -6q34 -4 100 1t84 5l41 -14q90 -16 193 8q48 -16 76 -14t75 9t76 5l14 -8q37 12 99 7t100 1q14 6 41 6q66 -23 123 -14q20 8 63 8q43 -14 109 0q20 2 83 7t76 12t27 20t62 29q41 43 90 34l20 -20q14 -88 -14 -123
q-60 -60 -98 -75t-46 -28t-24 -57q-28 -77 -86 -88q-8 -4 -18 -17t-18 -19q-7 -6 -17 -26q-11 -19 -17 -28q-4 -15 -30 -35t-31 -33q-25 -59 -82 -116q-2 -3 -6 -13t-7 -14t-36 -29q-37 -76 -138 -198q-6 -10 -25 -45t-42 -51q-25 0 -35 -15q-38 -31 -106 -92t-107 -92
q-33 -20 -90 -44t-74 -32q-41 -29 -63 -41q-254 -109 -508 -262q-68 -31 -82 -42t-131 -67q-27 -16 -54 -47q-26 -31 -50 -43q-23 -12 -25 -14q-41 -27 -41 -123z" />
    <glyph glyph-name="bracketleft" unicode="[" horiz-adv-x="841" 
d="M53 594q0 255 21 455q0 272 -17 424q-9 45 11 87t65 64q53 14 167 -10t167 -6q74 31 225 30q53 -12 78 -36q24 -25 14 -78q-33 -59 -61 -76q-76 -14 -166 -10q-248 11 -276 -43q-7 -13 -9 -33t-7 -44t-10 -98t-9 -104q0 -862 14 -1255q4 -6 13 -27t24 -31q8 -12 201 -4
t256 2q63 -12 58 -82t-54 -79q-152 -27 -234 -38q-82 -10 -204 -8t-214 37q-53 20 -60 87q-7 66 6 132t-9 125q-8 27 3 82t11 70z" />
    <glyph glyph-name="backslash" unicode="\" horiz-adv-x="839" 
d="M797 31q0 -4 -13 -8q-37 -12 -49 14q0 23 -61 84q-12 20 -62 69q-35 57 -39 76q-10 20 -41 58t-40 61l-35 35q-2 4 -6 15t-18 20q-7 4 -9 6q-76 140 -102 162q-27 22 -35 34t-80 123q-23 29 -72 103t-75 103q-26 28 -25 64q2 36 31 35q37 6 61 -25q24 -32 55 -93
q7 -7 13 -10t8 -5q12 -26 39 -70t37 -62t70 -102q59 -84 77 -114t38 -50t34 -50t24 -37t26 -27t19 -22q20 -41 62 -111q16 -20 45 -54q93 -109 123 -202v-20z" />
    <glyph glyph-name="bracketright" unicode="]" horiz-adv-x="841" 
d="M754 1049q20 -208 20 -455l-4 -467q0 -13 11 -69t3 -83q-24 -59 -10 -125t7 -132t-60 -87q-92 -35 -214 -38t-204 9t-233 38q-48 10 -54 80t58 81q63 6 256 -2t200 4q14 7 24 29q9 22 13 29q14 393 15 1255q-4 29 -10 104q-5 75 -10 98q-5 24 -7 44t-8 33q-28 54 -277 43
q-90 -4 -166 10q-29 16 -61 76q-10 53 14 78q25 25 78 36q152 0 225 -30q53 -16 167 8t167 8q45 -23 66 -64q20 -42 10 -87q-16 -152 -16 -424z" />
    <glyph glyph-name="asciicircum" unicode="^" horiz-adv-x="1505" 
d="M657 1253q79 -23 115 -45q21 0 39 8t25 11q72 -4 106 10q76 38 93 41q18 2 30 4t16 -14q10 -23 0 -43l-12 -6q-20 -29 -102 -95q-11 -10 -27 -41t-26 -42t-11 -17q-31 -31 -44 -69t-13 -52q-20 -31 -27 -43q-27 -115 12 -151q5 -9 23 -17t37 -3t81 15t111 39h33
q90 33 133 82q27 -6 82 49q12 0 19 7q0 6 2 12q20 23 43 26t39 -20q12 -37 -9 -63q-4 -8 -12 -28q-9 -20 -27 -46q-18 -27 -30 -115q-27 -88 4 -203q6 -28 32 -70q55 -90 23 -114q-18 -10 -37 2q-18 18 -29 28t-40 54q-39 82 -144 133l-6 12q-18 3 -50 19l-40 20h-25
q-40 24 -74 27q-34 2 -72 1t-48 -1t-18 -6t-9 -12q-32 -83 74 -254v-19q25 -58 31 -69q10 -10 23 -33t22 -31q0 -18 6 -25h12q7 -2 13 -12t12 -14q39 -66 57 -82q8 -10 8 -26q0 -34 -42 -39q-23 -1 -105 40h-21l-43 27h-18l-33 18l-99 4q-24 0 -43 -6t-51 -11t-49 -9
t-106 -45q-29 -10 -49 14q-10 10 -2 27l15 30q7 13 11 19q12 12 57 54q43 42 73 86t81 161l21 82v88q0 14 -16 30q-30 30 -85 13t-75 -23h-33q-65 -22 -73 -33q-7 -11 -9 -16q-33 -16 -63 -37q-16 -16 -60 -46t-61 -54q-22 -45 -41 -58q-18 -13 -23 -18q-23 -12 -45 0
q-57 50 11 149q13 19 33 43t34 118q18 68 8 157q-2 10 -55 121q-25 59 0 100q22 22 70 -36q14 -18 24 -27q18 -6 41 -30q22 -23 42 -33t24 -25l12 -2q4 -21 27 -35t43 -14l69 -33h19q35 -20 139 -33q27 0 39 37q6 29 -3 79t-9 66q-16 27 -46 111q-29 84 -61 119q0 12 -9 23
t-38 37t-41 42h-12l-12 18q-13 20 -13 31q0 10 6 21q47 70 172 -21h49z" />
    <glyph glyph-name="underscore" unicode="_" horiz-adv-x="1024" 
d="M231 8q-2 0 -53 -3t-53 3q-6 -4 -12 -2q-5 2 -25 6t-31 13q-20 27 10 45t64 18q227 -4 268 -4q23 8 38 4t29 -3t44 0t53 3h35q18 4 56 3t61 2t63 3h39q37 6 107 -6t75 -29q4 -6 2 -18q-8 -33 -34 -39q-41 4 -55 0t-58 6q-55 0 -106 2l-70 -4l-66 -2q0 -6 -149 -2l-150 2
l-39 2h-43z" />
    <glyph glyph-name="grave" unicode="`" horiz-adv-x="720" 
d="M500 1079q-29 -23 -64 13q-4 4 -14 8t-19 26q-18 20 -18 27q-14 12 -49 56q-35 43 -50 59t-42 56q-36 54 -67 82q-68 63 -64 107q27 41 72 53t67 -3q8 -8 17 -33t28 -39q8 -14 16 -55q12 -14 21 -15q12 -29 23 -39t15 -26t7 -20q2 -4 13 -23q11 -18 9 -27q17 0 28 -24
t15 -31q0 -10 18 -32t40 -64t-2 -56z" />
    <glyph glyph-name="a" unicode="a" 
d="M524 248q61 113 -8 221q-25 41 -80 51t-102 -18q-2 0 -21 -43q-2 -21 0 -71t-3 -68t20 -60q57 -59 131 -47q43 0 63 35zM553 635q0 14 6 81t-14 115q-12 6 -66 43t-100 41q-47 5 -85 -29t-50 -79q-29 -100 41 -164q70 -59 125 -70q92 -12 131 31q12 17 12 31zM983 147
q-6 -18 -31 -52t-32 -48q-59 -66 -123 -115q-20 -12 -46 4t-62 47q-36 32 -56 46q-70 76 -80 92q-19 18 -37 6q-36 -23 -76 -73q-48 -59 -88 -85q-41 -26 -51 -24t-29 2q-42 14 -120 55t-109 55q-6 4 -6 35q20 70 29 258q0 18 -33 84q-12 37 0 49q20 25 90 59t84 72
q2 4 -2 14t-4 15q-51 88 -35 176q5 37 34 68q29 29 33 35t5 20q23 32 71 60t64 40q27 29 129 109q20 12 48 -3t113 -58t130 -70q33 8 98 -21q25 -29 12 -57q-43 -47 -51 -121q-8 -27 -5 -89t1 -89q-20 -106 -10 -178v-113q18 -72 106 -98q51 -19 39 -107z" />
    <glyph glyph-name="b" unicode="b" horiz-adv-x="1034" 
d="M606 236q18 0 19 18q-1 58 30 334q0 20 -5 39t1 69t2 78q-16 53 -69 82t-105 2q-20 -20 -33 -35q-2 -5 -12 -27t-14 -42t-17 -158q-12 -137 13 -231q16 -82 162 -125q10 -4 28 -4zM542 -59q-6 0 -26 -3t-22 1q-76 57 -310 141q-8 4 -51 23t-50 43t8 50t19 34t6 41
q1 35 3 57t3 119t5 143t0 213q0 20 -29 45t-32 31q-31 66 53 137q12 29 20 41q14 154 -1 197q-15 42 -54 86t-46 56t-7 54q10 37 47 27q10 -6 49 -62q31 -14 46 -9t115 47t154 34q14 1 20 -19t-2 -58q-9 -38 -9 -73q-20 -207 -2 -346q0 -37 6 -41q10 -4 55 23q90 82 143 151
q82 41 203 -90q8 -8 26 -18t22 -16q6 -6 16 -7q10 -2 17 -8q43 -37 35 -79q-3 -15 -4 -24t-14 -46q-20 -90 -18 -241t-6 -207t-2 -100q6 -42 6 -57l14 -34q0 -45 -26 -64q-23 -10 -94 -33t-88 -34t-27 -18t-13 -9q-41 -16 -96 -57t-62 -41z" />
    <glyph glyph-name="c" unicode="c" horiz-adv-x="704" 
d="M573 1133q8 0 17 -5q8 0 39 4t37 -2q37 -18 22 -69q-14 -31 -30 -91t-23 -81q-16 -29 -39 -31t-101 7t-98 -15q-21 -31 -14 -184q-25 -252 -4 -365q8 -74 153 -102q57 -16 123 37q24 11 29 5q6 -6 6 -26q-10 -33 -108 -111t-116 -87q-17 -9 -22 -13q-43 -66 -116 -55
q-47 14 -111 74q-9 8 -29 14t-26 12q-4 12 -35 29q-45 0 -45 54l16 54q12 35 9 80q-11 167 -2 231t1 281q-4 18 -18 49t-16 46t12 30q135 90 211 139q6 6 27 32q20 26 34 38q6 2 15 11t20 10q109 4 144 -5q20 0 28 7q2 -2 10 -2z" />
    <glyph glyph-name="d" unicode="d" horiz-adv-x="1030" 
d="M401 376q0 -60 41 -73q10 -4 57 -28t68 -22q20 3 35 13q41 188 37 471q0 3 -8 23t-14 55t-27 53q-56 35 -104 42t-56 -11q-41 -108 -38 -262q1 -53 5 -142t4 -119zM928 903q-20 -143 -10 -252v-61q-12 -76 -12 -216t-11 -210q-6 -14 -33 -27q-213 -84 -301 -192
q-25 -31 -82 0q-15 6 -35 26q-20 21 -36 27t-52 29t-57 26q-8 5 -18 15q-11 10 -21 15t-75 32t-82 45q-32 33 -16 96q16 62 18 98q3 36 -1 134q-4 97 5 141q4 39 -12 101q-15 62 -13 88t24 36q22 12 74 30q53 18 89 40q36 20 44 51q6 14 -28 49q-7 4 -59 27t-78 43t-44 51
q-10 31 16 55t69 80q44 55 71 81t76 -7q23 -22 50 -39t52 -44q25 -28 37 -38q63 -25 81 -38t44 -38q109 -61 277 -110q14 -4 41 -35q17 -24 13 -63q-5 -38 -5 -46z" />
    <glyph glyph-name="e" unicode="e" horiz-adv-x="931" 
d="M641 745q0 18 -14 29q-111 74 -172 109q-8 3 -49 -15q0 -42 -8 -152t-5 -144q2 -34 17 -48q20 -29 48 0t68 63q41 34 62 56q6 11 22 31t24 36t7 35zM907 928q-18 -31 -66 -77q-49 -45 -59 -57t-10 -26q-6 -12 -27 -20q-79 -107 -189 -218q-110 -112 -140 -148t-32 -78
q-1 -42 30 -68h26q106 -70 160 -41q72 43 240 141q14 16 17 18t30 -4l6 6q20 -16 18 -36t-23 -38q-20 -18 -80 -56t-86 -58t-72 -49q-48 -29 -62 -40t-26 -15q-19 -7 -79 -58q-61 -50 -114 -47q-27 0 -45 12t-49 39q-32 27 -103 64q-72 37 -98 59t-19 43q34 52 37 95
q10 112 10 145q25 262 2 393q0 10 -8 49t20 58q13 10 36 18q22 8 34 16t43 26t45 28q156 82 226 147q23 16 48 6q26 -10 40 -25t22 -22q16 -8 78 -37t94 -63q37 -27 105 -27q14 -5 20 -23t0 -32z" />
    <glyph glyph-name="f" unicode="f" horiz-adv-x="702" 
d="M633 836q0 -39 -104 -35q-54 2 -83 -8q0 -15 -8 -31t-10 -25l-4 -40q0 -9 4 -15v-82q-10 -88 -10 -206t-1 -138q-3 -59 23 -82l21 -20q29 -16 55 -9q10 6 48 27t54 45q8 6 29 6q65 -58 -85 -135q-58 -31 -79 -45q-59 -61 -137 -104q-3 -10 -41 -2q-23 11 -65 39t-81 38
q-40 10 -58 30q-17 20 2 51q18 30 22 40q14 82 12 214t2 212v139q0 12 -8 27q0 47 -10 57t-60 25q-18 11 -20 31t5 34t23 39q15 25 19 33q57 37 60 114q1 28 -1 74t1 67t53 71q33 25 146 102t140 121q8 8 52 8q43 1 135 -29t117 -36q34 -15 22 -56q-72 -129 -143 -153
q-37 -14 -111 -1t-110 -1q-12 -125 2 -187q23 -10 159 -24q6 0 27 -21q12 -37 11 -55t-8 -55t-7 -49z" />
    <glyph glyph-name="g" unicode="g" horiz-adv-x="1122" 
d="M778 -180q-23 78 -51 248q-10 31 -39 89t-39 89q-37 16 -82 -23v-12q-10 -8 -20 -30t-21 -27q-127 -80 -164 -195q16 -39 90 -63t85 -31q68 -43 186 -94q23 -3 41 13t14 36zM672 797q0 4 -23 43q-5 8 -34 10q-27 2 -77 12t-66 9t-26 -10q-12 -9 -20 -13t-11 -20
q-3 -15 -5 -19q-33 -205 -2 -518q0 -31 32 -39t64 -2q22 10 58 50t65 48q2 16 18 43t17 41q22 203 10 365zM1059 -12l6 -47l14 -27q14 -49 -12 -64q-27 -27 -123 -83t-110 -56q-27 -16 -69 -53t-60 -51q-80 -39 -138 -72h-61q-25 12 -70 36t-109 53t-101 40q-36 12 -56 4
t-43 -28t-34 -26t-23 -4q-12 3 -13 9q-23 67 42 133t126 166q8 12 8 41q-35 86 -133 123q-16 -2 -34 8t-15 25q47 106 53 186q14 356 2 469q0 34 -28 90q-6 20 6 36t32 24t49 17q30 9 42 13q57 31 117 72l55 55q4 3 16 21t20 26q7 8 17 20t28 19t62 -17t56 -26
q94 -18 265 -28t244 -21q16 -4 17 -20q2 -17 3 -31t-4 -80t1 -90q0 -16 -14 -27q-12 -4 -43 -6t-49 -12t-23 -39q-63 -420 84 -778z" />
    <glyph glyph-name="h" unicode="h" horiz-adv-x="1095" 
d="M578 850q-34 0 -74 -23t-51 -26q-33 -23 -38 -56t-3 -101t-7 -133q-9 -64 -7 -96t-2 -79q-5 -47 14 -59q66 -48 98 -62l27 2q70 41 94 57t33 29q8 14 14 41t8 33l-2 27q0 7 9 154t0 192q-9 44 -44 72t-69 28zM135 838q0 49 -29 75q-6 5 -28 11t-27 16q-4 32 24 62
q27 30 31 38t20 30q15 22 19 36q6 70 -8 180q-8 53 -98 135q-33 33 6 56q6 2 11 2t13 -2t20 -14q13 -13 19 -18t7 -7q63 -53 118 -35q5 4 17 8t17 7t23 0q18 -4 80 20t103 30q4 0 12 -8t9 -12q-4 -24 -26 -58t-28 -53q0 -20 6 -34q2 -88 2 -130t-10 -235q0 -14 13 -27
q23 -8 63 21q53 29 150 125q10 6 32 24q22 17 31 25q10 8 35 17t39 -3q39 -14 113 -63t122 -64q14 -5 16 -25t-10 -30q-29 -20 -38 -55q-27 -186 -35 -697q82 -111 2 -157q-82 -51 -205 -174q-16 -14 -74 -57t-75 -61q-17 -19 -56 -36v-14q-20 -10 -47 -42t-47 -42
q-53 -23 -82 -70q-6 -10 -21 -12q-14 -2 -24 10q-36 45 40 122q17 17 28 29q12 12 50 40t54 47q4 2 14 6q15 6 36 33t40 36l19 43q5 17 -3 51t-4 51t20 61t11 80t-20 52q-11 0 -13 1t-14 -7t-14 -8q-63 -53 -123 -90q-20 -14 -53 -52t-64 -60t-68 -15q-20 -1 -40 27t-34 38
t-66 28q-114 41 -75 97q31 35 33 43q12 62 16 168t15 186q10 80 10 300z" />
    <glyph glyph-name="i" unicode="i" horiz-adv-x="618" 
d="M43 880q0 24 10 40q35 41 105 104t88 82q-2 8 -2 14q27 37 55 29q14 0 60 -46t65 -77q18 -14 49 -45t49 -43q4 -4 4 -16q0 -14 -26 -42q-26 -27 -25 -53q-16 -96 -20 -273q-5 -177 -11 -228t52 -97q14 -6 42 -16t42 -18q24 -10 22 -37t-22 -39q-51 -68 -97 -90
q-23 -18 -67 -76q-16 -16 -42 -12q-24 4 -32 5t-21 14t-23 20t-61 54q-50 47 -98 72q-2 2 -31 26t-21 42q7 18 29 44t21 40q2 80 20 257q17 177 15 273q-3 44 -59 60q-16 4 -52 8q-18 0 -18 24zM584 1538q27 -37 -13 -76q-37 -32 -87 -100t-76 -94q-7 -5 -62 -23
q-14 -4 -23 7t1 29t57 68q45 51 57 71t26 30q13 10 25 28t48 52q24 28 47 8z" />
    <glyph glyph-name="j" unicode="j" horiz-adv-x="618" 
d="M545 115q-68 -85 -206 -223t-202 -214q-18 -20 -72 -60t-77 -71q-16 -14 -32 -12q-15 2 -17 19q-10 25 14 47q149 139 194 297q3 30 21 108t17 120t4 264t10 241q20 55 9 111t-71 90q-60 32 -100 6q-14 -8 -21 20q-12 50 -5 68t9 18q65 32 120 90t77 76q45 25 88 -20
q5 -4 17 -8t24 -9q12 -6 34 -30q22 -25 32 -31t23 -22t20 -19q6 -3 18 -11l15 -10q2 -2 14 -9t13 -10t11 -11t10 -12t6 -15q7 -10 3 -15t-2 -18q-1 -10 -19 -20q-38 -22 -41 -123q10 -51 2 -161t9 -155q-12 -31 -13 -102q-6 0 -2 -20l2 -21q-6 -8 -6 -29q15 -68 40 -86
q26 -18 30 -28zM438 1428q-16 -26 -23 -46t-50 -79q-33 -33 -68 -89q-29 -29 -41 -28q-41 0 -55 26q-12 18 35 70q23 31 53 106t46 88q15 13 29 17t22 7q10 3 28 5t24 4q51 0 0 -81z" />
    <glyph glyph-name="k" unicode="k" horiz-adv-x="1077" 
d="M657 293q0 74 -8 90q-2 20 4 58q11 69 -12 85l-6 15q-12 4 -43 22t-53 19q-70 -2 -97 -73t-18 -151q0 -12 -6 -65q-10 -87 48 -116q6 -3 26 -12t22 -11q127 45 143 139zM541 918q-49 0 -76 -27q-15 -19 -23 -63t-16 -62q10 -18 8 -62t12 -63q18 -16 43 -6q59 39 150 133
q14 15 12 35q-19 49 -54 77q-34 28 -42 38h-14zM318 -53q-18 0 -27 4q-121 57 -154 96q-16 11 -41 19l-20 20q-8 24 7 62q54 134 48 436q10 125 -2 239q0 13 -9 25t-11 16q-18 13 -44 21t-26 28q-7 34 50 67q28 15 38 24q27 35 27 102q4 4 7 16t5 19q8 70 -35 137
q-10 14 -50 48t-48 63q0 33 12 41h23q6 -4 38 -34t64 -34q31 -4 88 35t70 43h28q46 25 67 19q21 -7 21 -25q14 -54 4 -192t-8 -172t10 -54t34 -18q24 2 33 5q9 5 29 23t36 30q18 12 69 40t88 53t74 27q3 -23 -12 -54t-4 -47q12 -16 22 -31t34 -24l37 -15q12 -5 15 -8
q10 -2 68 15q6 -14 8 -24t-16 -24q-19 -14 -33 -22l-21 -12q-11 -22 -19 -30t-54 -38q-47 -31 -56 -57q29 -43 101 -77q73 -34 94 -46q27 -26 10 -44t-31 -32t-20 -39t-5 -79t-5 -82q-3 -39 5 -72q7 -33 9 -45q12 -31 28 -48t64 -39t64 -53q16 -30 -43 -79q-29 -16 -72 -54
t-81 -60t-81 9q-12 13 -40 33t-35 28l-42 48q-91 72 -131 47q-16 -5 -36 -25t-25 -24q-33 -18 -164 -119q-10 -6 -28 -6z" />
    <glyph glyph-name="l" unicode="l" horiz-adv-x="581" 
d="M139 582q0 116 6 166q0 122 -16 141q-15 19 -35 29t-26 14q8 29 46 78t45 96t1 121t-47 119q-2 2 -32 24t-37 39q-7 19 5 33t35 12q24 -2 64 -21t53 -24q25 8 111 34t134 46q23 4 37 -6q14 -9 9 -23t-12 -24t-11 -17q-12 -49 -12 -145v-76q-3 -24 -11 -108t-7 -145
t-14 -321t1 -335q0 -45 87 -74q30 -10 41 -14t13 -29t-8 -39q-51 -78 -176 -182q-8 -6 -29 -6l-12 -6q-16 0 -36 12t-27 14q-33 29 -97 65t-76 42q-35 23 -22 63q29 43 35 55q10 39 9 106t1 107q10 63 10 179z" />
    <glyph glyph-name="m" unicode="m" horiz-adv-x="1753" 
d="M154 645v62q6 27 6 61t-11 46t-43 29q-31 17 -41 44q-11 27 5 55t57 85q41 56 55 81q26 46 97 20q13 -10 30 -29q19 -19 27 -25t73 -59q65 -52 105 -63q53 -8 125 49q16 19 51 47q34 28 62 56t63 37q62 10 127 -79q31 -42 43 -52l30 -25q17 -14 26 -19t39 -23t48 -5
q73 25 179 131q35 35 53 51q47 39 125 -20q61 -53 145 -94q35 -18 8 -76q-12 -35 -26 -172q-6 -23 -4 -80t0 -80q-27 -102 -21 -158q8 -35 8 -102q-6 -23 -6 -55q0 -57 84 -82q29 -9 31 -47t-12 -54t-39 -52q-52 -75 -101 -91q-61 8 -94 33q-91 65 -128 87q-37 21 -56 36
t-13 41q7 26 28 64q22 38 24 54q14 117 6 131q-20 53 0 109q0 43 -8 63q0 35 6 48q10 119 -8 206q-10 37 -43 59t-68 15q-123 -39 -139 -117q-15 -78 -25 -220t-16 -187q12 -14 9 -58t0 -64t26 -35t49 -15q45 -8 28 -62q-12 -29 -32 -49t-58 -47t-47 -35q-12 -28 -22 -32
t-27 -16t-53 -6q-37 8 -61 30t-86 54t-89 62v35q39 12 51 32q12 19 16 49t0 68q-3 38 -1 58q6 10 6 41q-10 33 1 95t5 91q-8 14 -8 48l14 28q4 25 -16 137q-4 29 -41 64t-43 45l-21 8q-137 -45 -143 -119q-37 -356 -20 -530q4 -16 23 -28t24 -21q25 -35 16 -62
q-115 -141 -213 -188q-12 -5 -63 17q-52 22 -66 36t-30 26q-52 39 -48 77q4 13 24 35t24 40q3 18 1 61q-3 45 5 79t9 86t-3 130q-4 79 -4 101z" />
    <glyph glyph-name="n" unicode="n" horiz-adv-x="1185" 
d="M1139 151q-1 -47 -23 -65t-50 -55t-52 -57q-25 -19 -60 -17h-28q-6 2 -22 17t-86 52q-70 38 -107 80q-6 6 -6 56q12 41 12 53q33 236 14 573q0 76 -104 115h-27q-70 -29 -104 -49q-29 -33 -33 -49q-10 -102 -10 -371l-15 -51l6 -80q0 -45 18 -56t47 -17q81 -16 64 -78
q-68 -84 -196 -201q-51 -12 -128 35t-106 49t-48 14t-9 35q49 84 52 104t4 67q1 46 10 71q0 23 -9 34q0 41 13 140q10 152 -2 288q-4 23 -41 40q-37 16 -44 30t-8 33l7 82q55 47 102 131q31 41 76 29q27 -11 126 -89t171 -86q31 20 89 66t89 66q16 49 88 63q27 -16 123 -79
t122 -69q28 -6 36 -11t12 -17v-12q-4 -6 -31 -40t-31 -62q-4 -27 -7 -93t-5 -96l8 -15q-20 -39 -6 -75v-97q-10 -46 -7 -101q3 -56 2 -72q-2 -41 85 -101q29 -16 29 -62z" />
    <glyph glyph-name="o" unicode="o" horiz-adv-x="1032" 
d="M629 762q0 31 -35 55q-16 8 -64 33q-95 51 -131 27q-20 -133 -16 -303t2 -259q0 -43 82 -73h20q11 -4 31 -12q63 -26 88 -1q37 289 23 533zM98 547q0 162 6 227q0 18 -16 60t-14 59q2 16 14 33q104 43 131 69q36 6 61 21q25 14 33 18q9 4 23 16t18 17q29 29 47 44t29 32
q35 35 82 14q182 -113 270 -149q54 -12 72 -20t32 -10q14 -1 37 -7q22 -6 27 -28q6 -22 4 -36t-12 -44q-10 -31 -17 -99t-3 -457q-3 -17 18 -40q20 -23 25 -34l10 -21q0 -17 -10 -22q-55 -35 -164 -94q-109 -58 -143 -80t-54 -46t-37 -31h-32q-86 33 -195 94q-47 23 -141 55
t-136 51q-8 7 -7 17t18 62q16 52 14 81q10 86 10 248z" />
    <glyph glyph-name="p" unicode="p" horiz-adv-x="1198" 
d="M760 573q-10 37 -2 114t-2 120q-2 25 -22 41t-57 32q-36 16 -46 21q-45 -8 -96 -55q-45 0 -54 -120q-6 -77 -12 -95q12 -45 4 -162t-1 -152q8 -35 26 -46t49 -18t42 -11t29 -8t26 -5q8 -2 28 -9t31 -4q26 7 40 168q13 160 17 189zM1098 989q32 -21 24 -45t-30 -53
t-27 -47q-9 -254 -19 -364t5 -214q4 -16 20 -36t23 -33v-33q-25 -18 -81 -40q-123 -48 -200 -136q-2 -4 -11 -28t-39 -30t-67 15q-137 53 -207 59q-22 0 -30 -26t-10 -29q1 -25 -9 -93t-2 -106q29 -96 105 -178q10 -8 -6 -29q-29 -16 -56 6q-52 61 -92 95q-39 34 -54 39
t-61 -12q-47 -17 -61 -20t-63 -28q-27 -6 -35 17t0 45q41 123 37 378q0 3 -4 15t-4 17q-5 25 -27 36q-8 8 -35 6q-70 -5 -56 42q10 32 25 51q16 19 44 44t40 37q0 2 21 34t27 107q5 76 0 176t-5 117q6 51 -84 95q-10 4 -25 -3t-22 -3q-14 0 -18 28t41 84q45 55 53 72
q8 18 32 56q25 38 33 57t31 21t37 -13q76 -63 133 -129q27 0 61 -35t50 -41q45 -8 82 29q8 8 45 46t58 53t55 49t67 34q8 6 35 -6q76 -55 256 -150z" />
    <glyph glyph-name="q" unicode="q" horiz-adv-x="1042" 
d="M625 748q0 18 -35 49q-14 10 -45 23t-45 24q-49 27 -90 6q-41 -295 -27 -551q14 -35 47 -59t70 -29q38 -11 72 13t41 76t12 172q4 120 8 154t-2 69t-6 53zM604 118q0 24 -14 40q-23 6 -53 -29q-113 -115 -193 -168q-2 0 -12 -5t-21 -1q-35 27 -97 68t-78 52t-30 20
q-16 9 -20 13t-16 17q-12 12 -11 20q2 8 0 27q3 10 17 30t18 31q14 94 12 177t8 237q9 154 -5 172q1 23 -9 51t-5 45q5 18 5 21l41 8q111 39 267 127q20 14 54 45t54 45q0 6 21 2l22 -2q14 0 27 -12q55 -53 174 -102l6 -13q33 -8 90 -33t70 -28q38 -25 34 -59t-32 -64
q-2 -78 -29 -531q0 -35 6 -55q0 -23 -12 -76l8 -28q-2 -23 -4 -97q-2 -75 -8 -115t8 -104q22 -49 39 -67l42 -42t32 -34q4 -17 -5 -29t-24 -12q-14 4 -38 24t-38 23q-55 14 -131 -51q-100 -55 -164 -49q-12 0 -15 7q-3 6 -1 26t0 34t8 72q10 57 6 88q-24 102 -14 181t10 103
z" />
    <glyph glyph-name="r" unicode="r" horiz-adv-x="901" 
d="M920 938l-33 -90q-111 -111 -152 -146q-43 -29 -76 -22q-12 6 -41 35q-14 23 -45 63t-45 66q-22 22 -46 8t-29 -43q-11 -69 -11 -185t-6 -167q0 -127 8 -158q8 -63 131 -109q47 -8 97 29q10 8 38 42t52 42q8 6 25 3t22 -17q14 -35 -39 -76q-269 -177 -286 -193t-22 -19
q-6 -3 -18 -13q-67 -53 -120 -21q-53 43 -133 91q-80 47 -109 65v20q4 7 20 25t21 31q39 322 27 606q0 29 -42 55t-49 33q-37 61 7 104q14 14 51 58t62 62q57 44 83 20q119 -127 209 -156q28 -11 56 17l32 32q14 0 35 14q18 8 50 36q65 57 114 42q14 -16 76 -76
q61 -60 86 -108z" />
    <glyph glyph-name="s" unicode="s" horiz-adv-x="1099" 
d="M563 508q-47 0 -76 -37t-71 -66q-42 -30 -56 -43q-20 -54 38 -89q35 -21 120 -53t113 -40q10 0 20 15v20q14 31 23 93q8 62 16 87q-6 47 -43 80t-84 33zM397 709l2 -70q10 -45 35 -68q66 -47 123 0q8 8 38 33t40 46t36 42q25 21 29 39q0 35 -20 55q-14 10 -71 55t-108 45
q-50 1 -71 -20q-33 -61 -33 -157zM565 1157l27 -6q12 -8 66 -45t108 -57q29 -6 86 -32t86 -34q29 11 53 41q24 31 29 35q31 18 49 0q33 -11 -126 -166q-50 -49 -71 -70q-57 -57 -20 -90q82 -68 166 -88q27 -12 14 -41q-35 -41 -47 -49q-12 -16 -9 -50t3 -38l-14 -29
q6 -125 2 -151q0 -4 14 -33v-23q2 -1 17 -23q16 -22 14 -35t-23 -30q-244 -59 -330 -100q-18 -27 -68 -57q-51 -30 -63 -43t-38 -13t-50 15q-41 31 -200 106q-80 29 -138 21q-11 0 -29 -10q-17 -10 -27 -12q-10 -1 -16 11q-5 12 3 23q137 156 196 235q0 37 -25 59
q-26 22 -71 40t-63 31q-6 6 -7 40q2 6 22 35q19 29 19 49q16 111 2 254v50q-4 29 6 53t35 22q207 30 359 161q37 32 59 44z" />
    <glyph glyph-name="t" unicode="t" horiz-adv-x="780" 
d="M504 874q-41 0 -41 -63q-8 -80 -13 -245t-16 -251q-8 -27 37 -55q85 -39 107 -51t44 -1t68 33q47 22 70 38q26 -35 -24 -67t-126 -85t-95 -65t-36 -34q-16 -22 -25 -27q-10 -5 -26 -15q-52 -32 -80 -29q-28 2 -102 82q-18 15 -58 31t-66 32t-16 52q25 36 34 64t8 85t4 92
l-7 15q20 129 17 335q12 84 -29 132q-12 14 -47 18t-43 8v29q-2 30 54 56t69 40q65 27 143 104q78 76 103 99q12 8 41 20q12 0 12 -6q8 -14 3 -51q-12 -86 40 -100q96 -5 256 -17q27 -92 -53 -200q-60 -12 -123 -7q-62 4 -84 4z" />
    <glyph glyph-name="u" unicode="u" horiz-adv-x="1230" 
d="M475 874q0 -14 -1 -49t9 -65q-24 -82 -19 -192t3 -146q-20 -39 -16 -90q4 -50 4 -60t10 -21t12 -15q19 -25 67 -37t91 18q10 9 34 27q23 18 29 24t33 54q2 37 8 133l9 144q2 48 2 159t-13 131t-35 41q-22 20 -28 24q-47 47 -6 76q74 49 225 119q25 21 72 -30
q14 -15 24 -23q20 -10 133 -103q23 -18 6 -47q-6 -6 -28 -22t-25 -41q-12 -250 -31 -371q-10 -98 3 -186q11 -41 61 -75q51 -34 63 -69q16 -59 -45 -125q-14 -10 -59 -49t-78 -55h-28q-55 35 -135 117t-101 100q-39 26 -63 12t-68 -52q-42 -38 -62 -51t-59 -53t-70 -53
q-31 -8 -75 7q-23 12 -85 54t-102 60q-20 0 -28 15v26q47 89 41 211q-2 56 -3 74t-1 61q20 129 16 379q0 25 -10 32t-20 13t-26 8q-16 3 -30 5t-19 2q-18 2 -15 26t15 43q13 8 47 43t58 46t60 43t55 42q20 0 26 -6q62 -62 94 -75q31 -13 41 -22q53 -48 68 -59q12 -16 12 -34
q-4 -12 -26 -45q-22 -34 -21 -48z" />
    <glyph glyph-name="v" unicode="v" horiz-adv-x="1142" 
d="M621 934l-72 8q-16 0 -33 -10q-53 -33 -53 -111q-41 -258 -8 -502q0 -14 10 -24t18 -10q47 -27 146 -68q57 -10 67 49q10 94 16 412q1 50 -7 72q0 33 6 47q8 49 -29 110q-14 12 -61 27zM1020 574q0 -42 -2 -62q-23 -90 -12 -152v-63q6 -19 28 -37q21 -18 27 -24
q16 -28 4 -48t-37 -28q-281 -80 -418 -197q-35 -35 -75 -14q-80 63 -283 133q-4 2 -16 9t-20 10q-11 4 -66 16t-59 34q-1 11 1 33q6 18 31 48t29 57q0 82 -9 102q-4 20 15 82q0 16 3 183t-7 184q0 52 -100 111q-22 13 -27 18v82q14 29 75 55l41 41q29 29 47 43q43 35 76 2
q55 -55 84 -95t57 -68q28 -27 46 -47t43 -9q43 29 286 155h35l35 -6q147 -70 207 -121q14 -16 2 -36t-35 -33q-18 -80 -4 -172v-125q-2 -19 -2 -61z" />
    <glyph glyph-name="w" unicode="w" horiz-adv-x="1656" 
d="M702 779q0 93 -4 118t-31 44q-28 19 -71 19t-82 -29q-39 -30 -49 -75q-43 -223 -29 -504q0 -53 15 -67q85 -68 159 -61q43 5 68 48q20 40 26 126t6 93q1 7 -4 54t3 51q0 20 -7 29v154zM1245 645q13 19 6 30q-6 11 -6 17q16 74 6 152q-6 32 -44 54t-85 28t-106 -72
q-12 -10 -8 -44t-1 -60t-15 -108q-10 -83 -19 -124q10 -37 7 -114t9 -113q4 -31 28 -53t47 -24q23 -1 59 -13q61 -20 77 -5t23 51q6 35 6 40q18 92 18 295zM813 1204q31 0 62 -49q32 -49 71 -90t45 -50q5 -9 13 -19t12 -17q18 -31 55 -21q39 16 89 66t78 71q28 20 34 21
q6 2 24 10t24 4t23 -4q117 -23 250 -141v-35q-4 -6 -20 -27t-21 -34q-8 -90 -8 -208t-10 -216t-9 -133t25 -64t25 -32v-15q-27 -44 -84 -61q-20 -6 -65 -18t-85 -42q-78 -29 -266 -133q-43 -21 -99 5t-189 98q-134 72 -148 77q-73 3 -173 -90q-68 -63 -111 -66
q-43 -2 -96 41q-17 13 -46 37t-54 35t-36 19q-33 20 -23 53q29 50 36 150t18 133q-8 63 -3 187t-1 185q-8 37 -64 73t-61 42q-4 49 20 90q25 41 74 89t67 71q27 27 56 14q102 -80 174 -217q14 -25 42 -27t44 12q16 15 49 43t48 41q110 95 194 142h20z" />
    <glyph glyph-name="x" unicode="x" horiz-adv-x="952" 
d="M903 258q0 -10 -9 -18t-14 -12t-81 -60q-77 -56 -103 -72t-36 -29t-28 -25q-16 -12 -69 -49q-53 -36 -78 -56q-42 -5 -70 12q-67 40 -108 76q-6 2 -17 9q-12 7 -18 10q-24 11 -38 11q-15 0 -31 -12q-4 -43 -47 -172q4 -49 2 -55q-41 -100 -54 -152q0 -49 -34 -84
q-23 -16 -47 21q45 174 65 215q14 49 21 75v33q55 145 57 373l12 29q0 115 -4 364l8 21q-4 18 -9 72t-34 85q-23 20 -110 47q-20 0 -2 41q16 27 59 58t57 47q61 51 88 63q33 10 70 -12q123 -119 195 -158q35 23 93 81t91 81q46 15 78 -11q10 -9 18 -9q10 -6 28 -31t27 -31
q59 -25 70 -47l4 -39q0 -10 -4 -16q-20 -68 -121 -160q-25 -23 -104 -8q-12 4 -25 20q-12 16 -16 21q-4 2 -26 7t-29 13q-45 45 -82 27q-25 -90 -27 -173t1 -167t3 -109l6 -88q0 -18 23 -34q133 -76 145 -80l28 -4q7 0 83 46q75 46 123 50q6 0 20 -21v-14z" />
    <glyph glyph-name="y" unicode="y" horiz-adv-x="1134" 
d="M483 748q0 -32 -6 -62l6 -20q-14 -117 -10 -297q0 -2 8 -27q-11 -48 -9 -101q3 -53 3 -65q8 -41 84 -26q78 35 94 57q64 95 50 265q-4 60 8 134q-6 35 -1 104q5 70 0 104t-33 62t-61 32t-114 -42q-14 -18 -15 -20q6 -12 1 -39t-5 -59zM999 475q0 -61 -4 -92q-1 -9 13 -29
t10 -32q0 -36 -31 -56t-93 -39t-81 -47q-49 -14 -135 -59t-125 -59t-91 -48q-52 -35 -88 -54t-48 -32q-20 -14 -78 -43t-71 -45t-22 -26t-14 -26q-8 -25 15 -42q68 -41 69 -61q2 -14 -12 -27q-72 -55 -166 39q-35 41 -22 117q10 30 43 56t38 34q74 92 46 270v62
q20 104 10 186q-6 12 -6 47q6 61 2 324q-8 29 -47 55q-6 2 -23 10t-32 13q-14 6 -23 24q-18 49 61 96q29 23 69 75t66 73q74 43 111 -6q8 -10 47 -68q55 -80 121 -117q16 10 67 31t76 53q18 16 52 36t62 39q28 18 44 17l27 -6q16 -14 61 -49t92 -88h15q75 -45 63 -88
q-31 -31 -41 -55q-8 -48 -13 -138t-9 -127t-5 -98z" />
    <glyph glyph-name="z" unicode="z" horiz-adv-x="800" 
d="M776 942q-29 -31 -84 -80t-80 -74q-2 -4 -5 -14q-4 -13 -63 -71t-81 -117q55 -115 72 -144l20 -20q12 -39 29 -55q72 -76 133 -197q12 -41 -21 -64q-76 -47 -149 -124q-10 -10 -35 -24t-33 -24q-8 -8 -18 -25t-17 -26q-18 -14 -49 -42q-52 -47 -89 -69q-78 -46 -56 -91
q2 -5 13 -21t11 -18q12 -33 -26 -50q-84 -14 -131 41q-25 42 55 114q41 38 53 52q53 31 60 41q6 10 9 16t5 7q74 47 86 76q8 16 2 34q-25 96 -76 158q-4 2 -12 14q-8 11 -16 19t-45 75t-74 83q-14 -6 -43 -41t-53 -23q-25 8 6 64q18 18 58 66t78 74t104 96t73 77
q31 27 21 61q-59 92 -195 162q-18 3 -32 -8q-13 -10 -20 -15t-35 -34t-56 -39q-14 0 -15 6q-3 32 13 56t51 54t43 39t18 25t19 21q14 18 44 63t57 73q28 28 69 38q23 4 47 -21q35 -20 96 -74t98 -75q10 -6 56 -6q10 4 35 23t47 20q18 -8 29 -27t-1 -35z" />
    <glyph glyph-name="braceleft" unicode="{" horiz-adv-x="901" 
d="M990 -432q-81 0 -122 18q-64 17 -135 64q-71 48 -105 68t-104 89q-6 7 -25 15t-28 16q-12 16 -40 53t-49 65q-22 28 -46 50q-104 242 -123 305v29q-68 162 -12 461q18 125 94 276q53 96 94 158q41 55 66 98l45 45q104 72 184 144q35 26 107 54t86 36q78 35 162 35
t104 -39q10 -16 2 -47t-25 -41q-24 -12 -72 -24t-65 -17q-258 -74 -453 -324q-12 -25 -60 -123t-71 -155v-23q-2 -6 -15 -26t-13 -33l-14 -230q1 -55 11 -85t24 -78q15 -49 18 -58q4 -10 4 -33q24 -84 88 -174q62 -89 72 -105t21 -20t15 -10q12 -29 54 -72t51 -61
q37 -17 103 -69t102 -70q23 -8 97 -20t113 -52q12 -22 -24 -56t-116 -34z" />
    <glyph glyph-name="bar" unicode="|" horiz-adv-x="352" 
d="M199 40q0 -22 8 -32q4 -31 -33 -41h-14q-2 4 -6 8t-12 24t-15 165q10 110 9 146t-11 106q2 6 4 30t6 37q2 12 -2 37t-4 35l6 72q-4 11 -4 276q-6 43 -14 160q8 16 9 24t-4 42q-5 35 -6 53t8 40t30 29q23 16 43 -10t20 -55q-6 -51 -5 -135t-1 -131l6 -148q2 -12 -7 -49
t7 -188l-8 -25l4 -29q0 -6 -4 -23q-4 -18 -1 -32t0 -66t-1 -71q6 -16 12 -84q-12 -61 -10 -92q-10 -51 -10 -73z" />
    <glyph glyph-name="braceright" unicode="}" horiz-adv-x="901" 
d="M711 422q-18 -125 -95 -277q-53 -96 -94 -157q-41 -55 -65 -99l-45 -45q-104 -72 -185 -143q-55 -41 -184 -98q-72 -29 -116 -39q-104 -24 -144 47q-18 29 47 72q82 43 133 61q264 76 457 324q12 24 60 122t71 156v23q2 6 15 26q14 20 14 44t11 134t-16 189
q-12 58 -36 119q-2 8 -2 30q-25 88 -89 176q-63 87 -72 103q-8 16 -20 20t-16 11q-12 29 -53 71t-51 62q-12 6 -88 52t-112 55t-91 21t-113 58q0 2 -13 21t-13 36t12 25q53 41 101 42t122 -34q87 -21 150 -64t95 -62t101 -89q5 -6 25 -14q20 -9 30 -21t57 -74t76 -89
q104 -242 123 -306v-28q68 -162 13 -461z" />
    <glyph glyph-name="asciitilde" unicode="~" horiz-adv-x="1171" 
d="M446 769q0 -318 -8 -513q0 -20 21 -41q65 -33 91 -41t54 21q9 18 29 33t26 22q27 49 27 78q14 80 25 224q10 144 18 202q-33 66 -98 96q-6 -14 -13 -14l-8 6q10 61 56 69q14 31 59 77t60 70t55 26t71 -17q106 -80 133 -158q4 -55 6 -60t-4 -58t-16 -109t-22 -262
q0 -27 8 -41q2 -15 -11 -63t5 -62q14 -16 59 -30t59 -29q16 -27 10 -58t-29 -45q-25 -14 -47 -32t-33 -29q-11 -10 -38 -38t-33 -34q-37 -31 -81 4q-121 117 -162 152q-55 39 -88 12q-31 -33 -100 -78t-99 -78t-68 -34q-39 10 -84 55q-137 74 -145 80q-45 45 -29 75
q27 47 41 105q2 68 8 205q5 137 7 209q17 25 18 46q2 21 -33 70q-10 12 -41 20t-43 21q-20 33 -6 68q10 18 34 50t31 44q8 11 30 27t25 36t15 79q12 60 14 93t21 54q19 20 23 23t19 15t33 26q18 12 120 73t157 107q29 12 49 13t78 -25q60 -26 74 -28t74 -18t92 -10
q31 6 70 36t65 36q14 0 15 -6q-4 -23 -26 -58t-28 -53l-14 -6q-47 -82 -94 -203q-8 -18 -34 -28t-71 -2q-45 10 -157 60t-146 62q-47 0 -47 -6q-29 -195 -29 -513z" />
    <glyph glyph-name="exclamdown" unicode="&#xa1;" horiz-adv-x="520" 
d="M204 1024q18 0 32 -10t56 -39t62 -45q65 -52 68 -90q10 -80 -68 -160t-151 -49q-51 10 -102 63q-49 53 -57 119t58 111q22 15 52 58q31 42 50 42zM322 131q0 -47 20 -80q20 -61 20 -160q4 -25 20 -83t23 -126q7 -67 -4 -92l9 -56q0 -15 -9 -23q-81 -50 -178 -64
q-105 -13 -123 99q-10 64 17 206q27 143 26 199q6 43 12 201q5 158 27 237q0 37 60 17q83 -22 93 -107q5 -43 -4 -82t-9 -86z" />
    <glyph glyph-name="cent" unicode="&#xa2;" horiz-adv-x="847" 
d="M500 319q-20 66 -8 222q0 25 -7 135t11 188q-65 6 -78 -14q-20 -30 -15 -184q-25 -252 -4 -365q8 -61 95 -88q-4 77 6 106zM621 1348v-33q-11 -27 -19 -73t-13 -63t-9 -46q2 0 2 1t2 0t10 -1t16 -5q131 0 158 -6q37 -18 23 -69q-13 -31 -29 -91t-28 -85t-32 -26t-118 7
v-20q4 -27 -6 -50q-10 -42 -8 -122t-4 -118q-5 -38 1 -104t0 -96t11 -82q4 -25 8 -65q80 25 172 96q23 11 29 5t6 -26q-6 -20 -37 -50t-158 -126q4 -72 -4 -123q0 -12 3 -60t-7 -85q-10 -20 -45 -32t-60 -3q-2 76 2 219q-16 -6 -22 -12q-43 -66 -117 -55q-47 14 -110 74
q-8 8 -28 14t-28 12q-4 12 -35 29q-25 0 -35 18t-10 36l17 54q12 35 9 80q-11 167 -5 208q6 42 7 91t-1 118t-2 95l-37 96q0 14 14 29q135 90 211 139q6 6 27 32q20 26 35 38q6 2 12 8q22 22 119 15q2 12 -1 57t11 51q16 14 28 55q11 41 46 50h29z" />
    <glyph glyph-name="sterling" unicode="&#xa3;" horiz-adv-x="1277" 
d="M89 -139q-25 0 -32 16q-2 12 -6 21t12 21q17 11 30 21t19 15q6 6 49 51q42 45 66 66q59 66 73 152t5 206q-32 32 -90 37l-25 2q-14 4 -17 20t9 31q14 10 42 28t40 27q43 57 43 101q4 22 -3 46t-34 31t-108 7q-8 33 24 55q94 51 121 139q10 27 8 60t0 65q4 20 54 70
q33 25 146 102t140 121q8 8 52 8q43 0 211 -49t186 -53q34 -14 22 -55q-72 -129 -143 -154q-37 -15 -183 17t-184 18q-12 -115 -2 -154q-14 -76 -10 -112t4 -93q-6 -25 -5 -65t-1 -56t-4 -44t-6 -43q5 -70 1 -110q-5 -40 -5 -50q-16 -66 -86 -139q-6 -6 -6 -21
q-27 -29 -58 -63q-57 -61 -81 -79q-25 -18 -25 -22q-27 -23 -84 -79q-58 -56 -96 -84t-63 -29zM731 961q0 76 43 81q12 4 20 -4t7 -22v-17q-4 -106 12 -122q41 -31 92 -31q19 -4 33 -16t2 -32q-12 -22 -60 -59t-65 -55q-43 -33 -37 -80l-2 -25q0 -9 22 -21q22 -11 70 -15
t60 -7q12 -2 15 -12t-8 -22t-56 -43q-113 -78 -113 -109q0 -39 14 -59q23 -23 49 -15q6 -2 31 -8t31 -10q89 -16 111 -18t112 8q47 14 70 57q12 14 30 11t13 -21q3 -45 -17 -87t-38 -52q-45 -26 -64 -50q-8 -6 -8 -20q-4 -4 -20 -19t-19 -30q-18 -33 -46 -35t-71 16
q-64 3 -92 9q-27 6 -38 3t-85 16t-108 7q-8 -6 -26 -24t-81 -64q-62 -47 -113 -33q-2 12 -6 21t25 30q30 21 36 27t49 51q42 45 63 63q22 18 36 32l26 26q11 12 20 26t16 24q6 8 10 22t7 22t4 20t3 23q2 10 3 26t14 32q10 75 5 183t13 183q-2 56 6 158v60z" />
    <glyph glyph-name="currency" unicode="&#xa4;" horiz-adv-x="1220" 
d="M694 297v47q12 98 13 137q-8 14 -9 35q6 20 7 62q-9 24 -7 58t-2 52q-18 39 -116 68q-33 57 59 104q62 46 76 64q47 84 -8 157q-39 43 -160 88q-29 0 -41 -8q-31 -14 -27 -41q4 -68 -8 -206t-8 -207v-56q-8 -49 -6 -129t-3 -115q-5 -36 -8 -74t10 -84t19 -52q6 -2 44 -24
t49 -15q11 6 32 6q94 35 94 133zM1378 1362q34 0 62 31q16 0 27 -18t-28 -84q-38 -66 -42 -72t-29 -50t-57 -67q-25 -12 -42 -5t-81 39t-98 46q-43 0 -48 -8q-16 -46 -19 -108t-5 -87t-1 -163t-9 -173v-41q0 -160 -19 -233q0 -49 8 -62l-6 -14q5 -8 15 -41t26 -49
q22 -14 52 -10t53 26h26q17 -29 15 -71t-27 -66q-78 -82 -190 -176q-43 -12 -62 6q-113 123 -217 164q-19 10 -31 6t-21 -6t-30 -21q-21 -20 -92 -64q-72 -45 -91 -63t-37 -22q-50 -11 -157 96q-12 8 -54 26t-61 38t-18 51q52 41 58 73t7 101q1 70 9 108q-8 32 -8 35
q14 248 10 303q-10 39 -76 56l-8 -9q-6 0 -16 3t-17 4q-16 6 -20 23t6 32q37 28 114 120q29 34 32 103q3 68 7 88q0 25 15 35q63 57 184 119q6 4 16 17t17 18q27 12 80 57t92 55q48 -29 113 -55q65 -25 106 -31t57 -13t76 -7q37 10 123 71q35 14 111 15q43 -3 136 -59
q30 -17 64 -17z" />
    <glyph glyph-name="yen" unicode="&#xa5;" horiz-adv-x="1476" 
d="M709 420q0 29 -4 33q-6 -2 -16 -2t-64 -54q-25 -25 -25 -82q-2 -20 -8 -29t3 -32q9 -22 4 -44t-5 -42t14 -29q41 -6 76 31q9 9 23 51v19q8 24 12 30q6 45 -2 83t-8 67zM727 591q0 43 4 77t-8 34q-59 -8 -90 -28q-16 -10 -17 -56q-14 -88 5 -135q68 12 94 47q12 17 12 61z
M969 535l4 24q-12 32 -34 25q-21 -8 -31 -14t-25 -17q-16 -12 -21 -14q-57 -35 -87 -130t3 -157q68 -41 172 70q18 28 24 104t-5 109zM625 793l-4 -25q21 -50 76 0q19 16 37 42t20 90t-29 130q-55 30 -69 7q-5 -9 -13 -31q-18 -27 -23 -104t5 -109zM977 709q0 4 8 46
q12 64 -29 89q-22 -4 -54 -31t-48 -33q-70 -25 -70 -118q2 -18 12 -36t27 -14q84 12 119 35t35 62zM805 1069v-18q-8 -25 -12 -31q-6 -45 2 -83q8 -39 8 -61t12 -34q44 -4 85 36q40 40 50 46q12 0 19 6q25 25 24 82q2 20 11 34t-13 36t-24 29t-10 11q-7 4 -9 11q-8 8 -25 12
t-23 6q-25 9 -57 -30l-26 -27q-12 -12 -12 -25zM354 1011q0 9 -12 27l-63 64q-31 27 -56 12q-25 -16 -37 -28t-28 -30q-16 -17 -27 -26h-27q-26 35 14 75q3 3 12 13t11 12q12 0 28 16t34 30q12 14 40 43t40 43q25 25 57 51q33 27 39 39l8 16q27 27 68 -6q16 -16 45 -59
q90 -100 139 -162q31 -35 78 -23q70 31 174 125q16 11 30 17q13 6 18 16t39 32t46 35q12 12 25 14t31 -14q19 -16 30 -22q51 -43 150 -133q2 -6 10 -16t13 -47q5 -38 13 -46q41 -31 93 -30q18 -3 32 -15t2 -34t-60 -58q-48 -37 -65 -55q-43 -33 -36 -80l-2 -40q0 -32 22 -48
q14 -8 59 -13t66 -22v-12q-15 -25 -69 -68t-61 -52t-11 -18q-4 -8 -11 -16t-5 -25t-3 -36q-31 -57 -59 -67t-59 -37q-31 -26 -57 -42t-85 -47t-91 -56t-79 -51t-63 -36l-19 -19q-2 0 -34 -14t-46 -25q-57 -53 -178 -131q-2 -2 -18 -16t-23 -22q-43 -24 -82 -60
q-39 -35 -55 -47q-23 -78 39 -92q72 -15 86 -25t15 -27t-13 -28q-51 -20 -94 -21h-92q-49 16 -62 25q-39 33 -46 78q-6 45 12 69t64 66q46 41 59 71t24 86q10 56 19 81t6 50t-3 34q-14 45 -24 55q-41 31 -92 31q-90 20 25 106q48 37 65 55q43 33 37 80l2 40q0 31 -18 43
t-64 18q-45 6 -66 22v12q16 25 54 56t46 40t11 17q2 8 6 12q57 57 61 86q4 15 1 95t-3 89z" />
    <glyph glyph-name="section" unicode="&#xa7;" horiz-adv-x="1597" 
d="M476 28q-15 8 -17 7q-48 -10 -121 35q-56 32 -78 32q-12 6 -30 26t-33 32q20 -66 24 -101q20 -20 39 -24q4 -9 7 -25t7 -22q33 -37 43 -58h5q49 -47 124 -71q0 -10 20 -20q20 -9 56 -25t63 -11q28 6 40 0q106 -35 155 -10q16 -2 50 4t50 3q16 -2 48 -24q33 -22 57 -18
q49 12 92 78h10q23 18 33 20t40 15q30 14 50 15q20 2 39 18t36 42t27 34t13 28q4 20 4 24q0 3 -3 7t-5 7t-12 13q-45 88 -103 99q-12 10 -55 10q-18 8 -39 8l-88 -8q-28 -21 -68 -35q-41 -14 -55 -20v-2l-14 -11h-15q-82 -47 -122 -49q-25 -29 -95 -41q-53 0 -75 5t-56 5
q-33 0 -48 8zM907 735h-28q-86 -47 -123 -49q-16 -16 -94 -41q-54 0 -76 5t-56 6t-47 3l-20 11q-14 -4 -35 0t-25 -1t-7 -11t-9 -13q-25 -10 -70 -31q-13 -45 -32 -63t-15 -21q29 -45 62 -102q43 -29 147 -76q20 -4 56 -4q170 27 202 27q70 47 131 61q18 6 50 20t47 21
q6 0 12 -6q18 10 43 10q38 25 74 20q37 -5 44 -5q8 0 32 13t44 14t38 17t37 41q19 26 34 37q5 11 7 23q1 12 3 18q2 5 -1 11t-10 13t-9 11q-39 88 -103 101q-10 6 -30 8t-38 6t-30 5t-42 -4t-42 -5q-23 -14 -123 -55q2 -2 2 -15zM1214 1118l91 -57h16q37 -12 44 -9t1 27
t-20 46t-24 56q-12 34 -22 43t-26 15t-23 12q-19 1 -41 25t-30 29q-14 20 -17 22l-16 14q-59 -6 -152 13q-27 29 -71 43q-12 0 -64 -11q-10 0 -33 8t-53 0q-30 -7 -65 -8l-23 -14q-51 0 -95 -16t-76 -15q-33 0 -51 -7t-29 -9q-12 -2 -24 -20q-17 -22 -87 -54q-5 -21 -23 -45
t-22 -32l-3 -3q-4 -2 3 -12t27 -44t32 -50q31 -23 145 -78q23 -4 56 -4q158 29 204 29q59 43 131 61q12 4 56 23t51 12q18 10 45 10q25 8 37 17q68 8 139 -17h12zM1414 401q3 0 10 -2t8 -10q2 -8 5 -17q3 -8 6 -18q13 -40 18 -66q6 -25 20 -71q-2 -94 -15 -129v-20
q-12 -84 -71 -156q-12 -45 -62 -74q-6 -12 -14 -24q-8 -6 -28 -27t-74 -49t-91 -29q-46 -27 -116 -31t-121 3h-45q-28 -4 -84 -1t-109 3h-82q-4 2 -24 -2q-53 12 -117 45l-25 6q-8 0 -22 14l-29 29q-27 27 -43 37q-55 47 -82 94l-12 12q-2 10 -12 22t-10 20q0 7 -11 17
q-2 2 0 -6l2 -8q-4 -10 1 -26q5 -17 2 -31t-2 -62t-3 -62q-4 -13 -6 -35t-6 -32q-8 -4 -18 -10t-17 -8h-4q-35 -8 -43 -4q-49 25 -41 51q2 4 9 24t29 50q22 31 20 120q-1 89 8 117q-4 33 -5 99q-2 66 -8 108t4 100q22 22 18 66q-5 43 -3 57q4 14 14 37t14 37v33q4 4 11 15
q6 11 10 16q10 2 25 23q14 22 20 26q6 0 25 12q8 2 11 16t5 17q4 2 9 5t18 6q12 2 12 7q-6 2 -29 2q-12 6 -30 29t-37 33l4 8q-31 15 -66 79t-24 115q22 22 17 64q-5 43 -3 57t13 36t14 36v37q7 2 18 29q16 2 31 24q14 23 16 25q7 0 21 6t14 20q0 13 6 19t20 12t21 14
q6 0 6 6l2 5q15 6 35 19t31 15q45 27 123 40t90 22l24 -2q19 0 27 8q12 4 44 1t44 -1q19 10 37 10q26 0 55 -6q30 -6 66 4q12 -10 36 -11t56 -8t64 -7q32 -1 55 -17t57 -16q12 -10 47 -28t51 -36q20 -14 49 -53t43 -53q10 -16 15 -15q6 8 3 35q-3 28 0 46t13 106
q10 37 27 47q59 33 80 25q27 -2 40 -26t-3 -54q-48 -48 -54 -60t-5 -30t-1 -27l-14 -57q6 -49 4 -58l4 -192q6 -16 9 -45t7 -41t0 -43t-4 -41l8 -19q0 -4 6 -48t-3 -50v-23q-18 -90 -72 -153q-2 -9 -3 -21t-3 -20t-21 -21q-8 -16 -17 -24t-20 -21l56 -34l12 -4z" />
    <glyph glyph-name="dieresis" unicode="&#xa8;" horiz-adv-x="1054" 
d="M289 1231h-23q-45 43 -80 92q-97 80 -86 117q4 12 13 14q76 53 127 119q41 45 71 31q40 -26 85 -77q44 -51 64 -72t-3 -62q-23 -31 -75 -79t-68 -66t-25 -17zM786 1231h-22q-45 43 -80 92q-97 80 -86 117q4 12 12 14q76 53 127 119q41 45 72 31q42 -27 86 -78
q43 -50 63 -71t-4 -62q-22 -31 -74 -79t-68 -66t-26 -17z" />
    <glyph glyph-name="copyright" unicode="&#xa9;" horiz-adv-x="1513" 
d="M561 885q0 6 4 6t6 2q20 47 47 57l7 8q14 10 108 48q0 2 26 1t40 1t49 -12q35 -13 46 -15q12 -2 26 9q14 10 21 14t13 0t7 -9q16 -145 -11 -233q0 -6 -11 -3t-13 9q-14 88 -56 123q-2 2 -4 9t-6 9q-35 45 -88 40t-78 -34q-51 -84 -57 -202l-6 -47l10 -19q-2 -13 8 -33
t10 -24q16 -88 80 -115l4 -10q70 -20 80 -19q41 10 78 62q8 0 14 4q6 16 19 29q10 35 26 23t19 -32q2 -20 -12 -34q-27 -45 -43 -62q-45 -61 -86 -65q-55 -12 -148 -4q-29 4 -88 49q0 8 -6 12q-82 68 -74 147q0 9 -9 21t-9 14q-8 115 20 178v21q8 8 17 31q8 23 20 30v15z
M170 750l-10 -84q2 -37 -4 -88q9 -22 20 -58q10 -36 24 -61t17 -33q35 -55 64 -84q3 -16 27 -43q24 -26 42 -52t29 -36q18 -12 48 -28t53 -37t32 -27q16 -1 46 -15t37 -16t89 -2q27 -12 82 -6q47 -10 84 0q35 0 78 26q18 0 71 39q4 3 41 9t54 20q12 6 26 35t19 35
q10 6 37 16t34 16q12 16 22 44t26 55q14 26 22 63q4 4 13 14t19 22q10 11 11 31q2 20 17 85q16 64 14 80q6 49 -11 84q4 10 2 46q-3 36 -4 38q-35 68 -41 84t-25 35t-26 34q-8 8 -24 37t-31 41q-10 17 -70 47q-16 27 -65 47q-27 27 -66 33q-53 39 -71 41q-16 8 -48 9t-41 3
q-11 2 -37 9t-46 6q-35 6 -76 -15q-63 8 -133 -31q-27 -14 -38 -20t-67 -49q-54 -29 -66 -42t-37 -25t-40 -33q-9 -7 -17 -34t-10 -32q-23 -27 -33 -72q-33 -59 -34 -90q-18 -29 -29 -71zM844 1350l84 -17q8 -4 37 -12t39 -18q31 -2 79 -33q14 -6 36 -26t36 -27q8 -9 34 -21
t42 -27t34 -36q17 -21 34 -48t30 -34q5 -12 17 -38t16 -42q14 -13 18 -40t7 -33t21 -34t26 -50q6 -22 -2 -79l14 -65q-8 -37 -13 -92t-11 -76t-10 -62q-5 -41 -44 -76q-14 -14 -17 -20t-9 -36t-18 -45q-11 -15 -35 -29t-33 -23q-9 -10 -21 -36t-18 -34q-10 -8 -38 -24
t-42 -29q-10 -4 -37 -10t-34 -10t-35 -26t-46 -30q-31 -6 -70 -10q-12 -4 -77 -37l-84 12q-16 1 -44 13t-30 12l-92 -10q-10 4 -39 21q-62 37 -109 53q-16 12 -51 19t-47 13q-27 31 -53 52q-9 12 -21 38t-19 35t-33 29t-32 37q-16 12 -51 63q-12 39 -37 70q-6 49 -18 86
q-8 56 -8 78v46q0 24 -2 38q6 31 2 80q8 32 8 86q6 16 18 42t15 35q45 78 61 110t84 101l26 26q22 22 29 34q14 6 31 33q16 27 25 32q10 5 40 11t42 16q14 4 50 24t105 37q53 10 86 4q16 3 18 5t21 -3l21 -6q78 13 94 13z" />
    <glyph glyph-name="ordfeminine" unicode="&#xaa;" horiz-adv-x="802" 
d="M420 930q45 78 -4 153q-18 29 -58 36t-71 -13q-4 -2 -15 -29q-2 -14 0 -50t-1 -48t14 -41q39 -43 92 -33q29 0 43 25zM440 1200q0 10 3 58t-9 79q-73 55 -110 58q-38 4 -66 -20t-33 -54q-23 -72 27 -114t88 -50q66 -8 92 21q8 12 8 22zM741 858q-4 -14 -22 -38t-23 -32
q-39 -43 -86 -79q-14 -10 -30 0q-16 9 -42 33t-42 34q-50 58 -60 68t-32 -6t-72 -80q-4 -2 -21 -16t-39 -22q-22 -9 -28 -1q-31 10 -85 40t-75 38q-4 2 -4 22q10 41 20 182q0 12 -24 58q-8 27 3 39t61 36t59 52q2 2 -1 10t-3 10q-35 61 -25 123q2 23 45 70q4 6 4 16
q20 27 52 44t44 26q20 23 91 76q14 8 34 -3t78 -41q59 -30 90 -49q20 6 70 -14q16 -16 8 -39q-44 -46 -39 -146q2 -44 0 -63q-14 -74 -8 -125v-80q12 -47 76 -67q34 -15 26 -76z" />
    <glyph glyph-name="guillemotleft" unicode="&#xab;" horiz-adv-x="905" 
d="M421 137l-15 -2q-60 64 -70 80q-10 15 -24 29t-28 36q-15 22 -36 37q-22 15 -40 33t-34 36t-24 32t-16 21t-9 21t21 34l83 88q12 14 28 39t37 38q20 13 34 27t24 27q10 12 21 22q8 9 23 29t29 20q13 0 32 -14t-21 -57q-18 -21 -32 -49t-22 -40q-9 -12 -14 -28
q-4 -16 -14 -32t-21 -29q-11 -15 -17 -25t-23 -22q-37 -29 10 -71q10 -9 18 -23t26 -37q18 -22 26 -37t20 -32t35 -67q6 -7 16 -19t15 -23q6 -11 -15 -32q-4 -2 -9 -4t-8 -4t-6 -2zM750 135h-13q-12 13 -22 29q-11 16 -23 28t-22 27t-24 29l-26 26q-14 12 -26 24t-31 27
q-19 14 -36 37t-27 34q-10 10 -18 24t-17 24q-18 12 -19 15q0 12 13 20q12 13 23 27q27 36 52 56q24 21 48 49t50 53q27 24 41 45q15 20 24 29l15 15q5 5 7 8t8 8t11 10q4 5 10 5t24 -14q16 -15 12 -27q-10 -16 -27 -38t-27 -53q-9 -31 -27 -52q-29 -34 -38 -63t-29 -47
q-18 -17 -18 -32q0 -16 6 -24t17 -16q10 -8 17 -22q6 -14 14 -27t16 -29t18 -30t18 -28q7 -14 18 -28q12 -14 20 -28t10 -27q2 -15 9 -31t-3 -24t-28 -9z" />
    <glyph glyph-name="logicalnot" unicode="&#xac;" horiz-adv-x="1681" 
d="M745 1131q0 31 -24 53q-20 23 -43 33t-66 18t-51 10q-35 20 -76 12q-33 -10 -32 -55q-9 -96 -9 -263t-4 -229t-15 -207q-11 -146 -9 -222q16 -27 68 -47t63 -27q96 4 155 92q18 241 18 355t-7 127q-6 13 -20 20q-15 8 -20 11t-19 8t-19 7q-35 16 -21 68q10 20 41 38
q31 17 41 25q2 6 12 11t19 36q10 31 14 63t4 63zM1182 881q-38 1 -65 -19q-29 -20 -59 -53t-50 -47q-25 -25 -15 -62q14 -20 6 -75t-4 -76l6 -14q-2 -25 -9 -73q-23 -156 22 -184q18 -14 53 -24t49 -18q57 -47 111 -56q9 -9 20 5q11 13 13 34t12 79t14 89l-8 29
q0 161 31 356q-17 45 -53 77t-74 32zM184 1237q0 10 15 25h12q16 8 52 32t65 33q28 10 108 82t144 70q94 -6 96 -6q55 -20 166 -33q66 -14 164 37q14 0 20 -7q8 -12 8 -63q-27 -154 -4 -342h47q18 18 74 69t70 70q41 49 -29 164l-8 25q0 4 -1 13t20 27q22 17 72 41t73 39
q51 25 84 3q0 -48 34 -92t41 -58q16 -39 -47 -84q-162 -82 -313 -188q-10 -14 -80 -64q-37 -37 -43 -49q-6 -39 7 -72q20 -51 99 2q25 16 58 40t47 33t56 45t73 49t66 5q27 -29 102 -98q112 -104 92 -127q-2 -10 -12 -23t-15 -26q-4 -45 -27 -238t-16 -325q10 -35 64 -62
q16 -16 6 -26q-25 -20 -90 -31t-104 -27q-38 -16 -53 -20t-74 -35q-17 -20 -25 -21t-20 -4t-84 -59q-28 -19 -59 -25l-36 -7q-9 -2 -14 2q-6 5 -32 25t-44 33q-18 14 -41 29q-24 15 -44 28t-55 31q-34 18 -84 28q-51 11 -73 35t-45 22q-23 -4 -35 -12q-90 -60 -147 -115
q-11 -27 -23 -33t-22 -13t-18 -11q-60 -36 -177 54q-57 44 -88 51q-31 8 -35 15q-4 6 -12 14t-5 13q3 6 1 16q4 8 34 53t26 62q-5 18 -7 43q14 74 11 309v41q12 43 12 137q-16 55 -21 62q-23 20 -104 20q-25 6 -24 26t17 36t55 40t63 48q45 44 38 172q-2 37 -2 47z" />
    <glyph glyph-name="registered" unicode="&#xae;" horiz-adv-x="1513" 
d="M868 918v14q-12 35 -65 53q-63 8 -96 -24q3 -7 -3 -27t3 -29q-16 -47 -11 -119q10 -47 11 -57q6 -37 51 -29q43 14 76 43q69 79 34 175zM705 614q0 -12 -4 -64t4 -76q8 -26 17 -30t23 -7t21 -7q30 -25 12 -34q-29 -15 -65 -15l-62 2q-25 8 -61 -4l-10 6q-8 -4 -76 -4
q-23 6 -23 29q0 4 6 11t13 7q51 0 66 22q16 22 16 44t-4 59t0 45v70q-4 14 -5 49q8 42 7 76q-2 34 0 61v55l4 15q-10 26 -18 32q-7 5 -29 17q-72 0 -84 33q0 24 45 21q44 -3 72 3t157 17q109 0 166 -17q63 -8 80 -51q4 -6 14 -6v-15q18 -33 19 -36l2 -84q0 -58 -35 -89
q-8 -7 -12 -12q-8 0 -15 -4q-8 -10 -30 -16t-25 -17q-22 -22 20 -65q17 -17 20 -27q5 -18 30 -33q4 -4 11 -16t11 -16v-11q10 -23 47 -51q43 -25 58 -34t28 -9q35 -24 19 -49l-43 -12q-35 -2 -107 3t-99 4q-26 -1 -36 16q-10 18 -4 28t18 18t16 20t-20 44q-45 49 -61 86h-8
q-8 20 -54 43q-12 2 -22 -5q-10 -8 -10 -20zM168 586l6 -97q40 -59 54 -81t46 -64q14 -29 58 -65q27 -47 45 -58q10 -10 32 -27t29 -28q16 -4 40 -18t34 -17q53 -33 80 -35q14 -8 46 -12t44 -8h82l76 -4q10 2 41 11t45 11q23 10 69 51q10 3 48 9t57 16q6 6 18 35t20 37
t37 19q27 11 37 23t21 40q9 28 25 58t20 44q6 14 27 41q20 27 26 45q6 59 12 76q-2 14 8 43q9 29 11 39q-8 57 -6 94q-14 33 -19 88q-25 33 -30 78q-55 49 -66 65l-16 29q-14 29 -27 39q-14 23 -65 47q-19 26 -67 54t-66 36t-44 24q-24 16 -40 20q-16 5 -76 -5
q-70 29 -86 27q-41 4 -82 -15q-43 2 -86 -18q-23 -4 -82 -37q-23 -8 -62 -43q-16 -8 -43 -21t-41 -22q-8 -14 -32 -28t-31 -25q-9 -10 -21 -42t-19 -42t-17 -34t-16 -34t-34 -78q0 -3 -6 -33t-8 -49q-14 -51 -10 -81q-8 -51 4 -78zM1438 625v-43q-10 -29 -11 -78
q-6 -16 -12 -47t-14 -43q-3 -14 -21 -38t-22 -38q-10 -12 -18 -40t-11 -34q-12 -14 -42 -30t-36 -19q-8 -12 -19 -41t-18 -39q-63 -35 -74 -43t-40 -15q-37 -9 -65 -30q-29 -21 -48 -24q-23 -15 -57 -21t-60 -18q-27 -12 -39 -17q-71 6 -77 6q-6 -1 -39 11t-46 14t-44 0
t-43 4q-14 2 -42 16l-42 21l-25 10q-25 13 -39 21t-44 14t-34 8q-61 49 -77 55q-4 10 -14 39q-9 29 -17 39q-8 11 -33 27t-31 29q-20 23 -53 71q-12 37 -39 84q-4 41 -22 74v41q0 29 2 43q-4 10 6 78q-8 55 -2 80q4 72 12 84q0 26 22 76q22 49 50 85q14 45 92 131
q45 37 57 56q16 6 34 34q17 28 28 37q1 1 31 5t40 14q27 8 70 45q41 2 92 24q25 -2 82 13q4 0 37 -8t68 -1t47 3q29 0 90 -27q68 -6 86 -10q75 -37 99 -67q25 -30 31 -34t33 -13q56 -20 99 -91q16 -12 34 -43t34 -51t23 -34t14 -46q7 -33 11 -41t19 -32q16 -24 23 -40
q6 -70 10 -82q-4 -20 -8 -69q2 -16 2 -45z" />
    <glyph glyph-name="macron" unicode="&#xaf;" horiz-adv-x="827" 
d="M384 1495q38 0 69 -2q33 -8 105 -2t90 4t40 0t39 -11q18 -13 8 -40q-39 -100 -67 -141q-16 -21 -34 -27t-59 -2q-53 0 -153 4h-213q-101 4 -101 14q-1 4 4 18t3 29q57 132 75 147q17 15 56 15l57 -2q43 -4 81 -4z" />
    <glyph glyph-name="degree" unicode="&#xb0;" 
d="M528 1112q35 0 49 35q13 35 7 76q-24 61 -44 85t-46 31q-12 -1 -35 5t-35 2q-35 0 -47 -15q-56 -78 24 -172q43 -47 127 -47zM772 1391l14 -15q11 -32 7 -149q-3 -24 -31 -41q-28 -16 -34 -22t-7 -15q-2 -10 -4 -12q-27 -16 -97 -82q-156 -148 -278 -133q-9 9 -54 29
q-44 20 -57 29q-11 8 -27 34t-26 160q13 57 101 134q39 34 46 41t9 17t4 12q139 162 219 170q66 0 76 -8t44 -35q74 -59 95 -114z" />
    <glyph glyph-name="plusminus" unicode="&#xb1;" horiz-adv-x="1427" 
d="M647 493l-4 56q18 115 -2 235q-23 66 -98 88q-34 10 -90 19q-15 0 -54 -21q-11 -55 -9 -114q3 -58 3 -72q-29 -281 4 -457q8 -39 65 -59q21 -8 25 -10q59 -10 91 28q6 12 21 34t18 33t11 100q7 89 13 107t6 33zM1165 666q10 31 -14 55q-10 6 -61 40t-99 40q-16 4 -35 -15
q-10 -18 0 -41q2 -27 2 -81q-8 -39 -6 -106t9 -81q29 -18 57 1t39 54q8 8 13 10t13 16q8 12 39 51t43 57zM346 1290q0 -29 29 -44q189 -98 289 -126q18 -6 46 -23t44 -24q118 -39 152 -39t75 29q125 88 143 98q25 0 29 -6q4 -17 1 -37q-8 -53 25 -70q35 -16 107 -54t102 -53
t35 -47q6 -32 -12 -54q-123 -139 -199 -201q-6 -8 -6 -21q-52 -67 -135 -141q-84 -74 -123 -102q-14 -19 -3 -75t24 -67q70 -41 98 -67q82 -57 143 -41q53 23 158 78h21q14 -39 -19 -62q-10 -4 -39 -13q-29 -8 -41 -20t-32 -30t-31 -29q-137 -80 -193 -125q-20 -14 -76 -2
q-28 10 -76 38t-94 48t-70 44q-24 26 -65 43t-81 2t-123 -91q-18 -8 -41 -28q-22 -20 -46 -31q-24 -12 -51 4q-137 96 -229 141q-14 6 -14 41q4 14 19 40q15 25 16 55t10 201t4 294l-27 68q-9 40 32 52t62 15q21 2 35 16q68 20 82 30t13 26t-13 28q-106 59 -186 68
q-29 12 -41 18q-14 12 -10 28t38 52q35 35 66 74q54 96 76 126t53 54t35 23q16 -8 18 -8q18 -28 7 -64q-11 -35 -11 -39z" />
    <glyph glyph-name="acute" unicode="&#xb4;" horiz-adv-x="720" 
d="M571 1513q4 -39 -30 -75q-10 -10 -34 -32t-32 -32t-35 -50t-42 -55t-50 -59t-49 -57l-18 -27q-7 -20 -18 -25t-15 -9q-35 -35 -61 -17q-44 31 49 139q4 6 4 17q4 6 11 21q16 34 32 34q-2 8 11 29t17 39q3 18 15 28t24 39l21 15q12 63 26 63q8 8 18 32q9 24 17 32
q24 15 68 3t71 -53z" />
    <glyph glyph-name="mu" unicode="&#xb5;" horiz-adv-x="1748" 
d="M489 940q-63 0 -63 -22q-20 -37 -24 -110t-15 -103q-6 -39 16 -97v-190q6 -16 1 -58t-5 -59q16 -66 117 -96q61 -14 158 57q14 14 14 29l17 409q7 45 -7 118t-71 81q-35 3 -80 20q-44 17 -58 21zM1315 421q0 24 4 36q18 131 -16 348q0 37 -29 53q-75 53 -103 33
q-4 -2 -54 -24t-70 -38q-27 -31 -27 -55q6 -210 -7 -284q-30 -173 27 -244q20 -31 62 -37t76 18q8 8 39 35t44 39q54 50 54 120zM1153 -471q-4 0 -16 8q-29 20 6 55q8 12 26 26t23 17q29 59 34 79t36 73q31 54 35 92q5 37 8 47q20 41 20 47q-18 207 -45 269q-26 -4 -56 -48
t-38 -51q-73 -43 -104 -76q-71 -77 -107 -118q-47 -33 -90 0q-152 133 -264 188q-54 -20 -85 -45q-32 -26 -63 -52t-43 -36t-49 -27q-6 -4 -12 -14t-15 -14h-35q-53 35 -70 53t-40 41l-35 35q-10 10 -44 25t-46 36q-29 41 -23 62q39 72 41 82q23 393 24 427t-7 74l6 21
q-4 26 -26 45q-21 20 -23 22v21q30 40 48 48q49 23 95 46q45 23 153 95t128 85q45 -19 77 -36q81 -42 123 -25q17 4 21 29q4 24 6 28q31 61 18 123q-2 4 -6 16t-8 19l-6 82q-2 6 -17 45q-31 80 8 83q11 1 13 3q7 -10 19 -57q20 -81 108 -41q10 4 30 15t29 15q47 39 117 64
q20 0 21 -6l-4 -97q-9 -41 -15 -123t-12 -124l8 -50q-6 -20 -6 -131q-10 -41 23 -73q20 -4 33 -7t40 16t44 37t76 58q59 41 114 90q60 41 85 25t48 -52t33 -46q16 -13 69 -47t76 -62q24 -37 8 -53q-5 -2 -23 -10t-18 -19q-28 -94 -19 -342q3 -86 3 -96l2 -201q0 -18 19 -49
t21 -40t-1 -15q-4 -6 -2 -11q-309 -350 -363 -418t-65 -74q-10 -7 -15 -9q-6 -8 -18 -31t-24 -32q-13 -9 -17 -9z" />
    <glyph glyph-name="paragraph" unicode="&#xb6;" horiz-adv-x="1683" 
d="M1257 -248q20 0 33 29q23 59 19 180q-10 51 -10 378q1 327 1 378q28 149 21 326q-8 178 -6 239v82l6 20q-10 25 -5 44q15 55 -17 75q-61 38 -117 -10q-22 -16 -23 -119q-2 -102 -7 -144t-1 -135t2 -139q4 -178 16 -219q0 -20 -6 -28v-68q2 -43 2 -119q20 -178 -2 -446
q0 -86 -18 -117q-10 -47 -2 -78t28 -80q19 -49 86 -49zM1559 -328q-104 0 -150 6l-14 -6q-36 24 -156 22q-119 -3 -161 1t-136 11t-145 22q-225 78 -377 276q-9 9 -21 14q-8 14 -54 80t-61 114q-14 48 -29 71t-17 30v21q-41 84 -50 172l7 26q-23 193 35 378t190 321
q8 6 8 20l94 84q14 0 47 30t76 52q41 22 87 46t65 34q20 6 55 6q92 29 143 37q68 16 188 22q121 6 169 9q48 4 168 2t178 2q12 8 47 5t49 -11v-21q-68 -16 -190 -22t-174 -15q-4 -4 -12 -11t-13 -14q-6 -7 -10 -33q-8 -49 2 -67q0 -14 -5 -58t-1 -110t2 -345q-2 -280 8 -388
q-16 -43 -8 -155t4 -156q-6 -14 -6 -41l18 -101q0 -15 -4 -50l-19 -166q17 -97 159 -78q46 6 63 -2q20 0 34 8q63 8 146 -12q2 -2 12 -10t15 -11q6 -10 2 -23q-3 -14 -17 -20t-82 -6q-55 10 -159 10z" />
    <glyph glyph-name="periodcentered" unicode="&#xb7;" horiz-adv-x="604" 
d="M303 369h-27q-61 57 -98 114q-88 72 -104 123q-6 4 -1 20t13 21q100 70 158 148q55 55 93 32t98 -88q59 -65 79 -86q25 -35 0 -84q-30 -37 -94 -95t-82 -82t-35 -23z" />
    <glyph glyph-name="cedilla" unicode="&#xb8;" horiz-adv-x="704" 
d="M74 -233q-14 0 -21 12q-6 12 -2 28q23 39 34 44t60 21t72 34q15 8 105 72t90 75l53 -6q21 -21 15 -38q-8 -17 -24 -26t-44 -34t-43 -35q8 -14 40 -39t35 -43q16 -39 24 -56q47 -107 7 -171q-16 -12 -41 -13q-20 -8 -61 -36q-18 -16 -73 -74t-112 -86q-47 -10 -85 1
t-46 38q-27 78 19 125h78q49 0 94 28q0 4 5 24t8 40q3 21 2 31t-2 26t-12 25q-11 8 -79 55q-18 6 -50 -8t-46 -14z" />
    <glyph glyph-name="ordmasculine" unicode="&#xba;" horiz-adv-x="786" 
d="M307 957q0 -28 58 -54h14q8 -2 21 -8t28 -11t33 11q26 195 16 373q0 20 -24 39q-12 4 -34 16q-80 44 -102 25q-13 -78 -12 -220q2 -143 2 -171zM106 1118q0 113 5 158q0 12 -12 42q-11 30 -10 41t9 23q74 31 92 50q28 5 45 15q17 11 24 15q20 11 60 54l19 18q25 25 57 10
q125 -78 189 -104q37 -8 59 -19q55 -8 57 -22q9 -28 0 -54q-10 -26 -12 -38q-10 -101 -9 -233t6 -140t14 -18q32 -37 14 -48q-39 -24 -116 -66t-99 -58t-38 -30q-15 -15 -26 -22h-22q-66 25 -138 66q-59 27 -192 73q-6 6 -6 11q25 74 22 102q8 61 8 174z" />
    <glyph glyph-name="guillemotright" unicode="&#xbb;" horiz-adv-x="905" 
d="M471 463q0 -16 -8 -19q-55 -55 -76 -86t-70 -77q-10 -13 -19 -27q-8 -14 -20 -26t-25 -22t-25 -24t-21 -24l-21 -21q-2 -2 -10 -2t-24 12q-12 13 -4 27t20 43q13 29 25 45t20 30t26 41q18 28 24 46q10 28 27 44q17 17 16 37t-22 39q-21 18 -31 43t-36 67q-25 43 -33 59
t-16 28t-14 24t-13 23q-6 20 9 33q20 10 30 10t31 -33q22 -33 67 -77q46 -44 58 -58q12 -12 20 -26t20 -26t25 -24q11 -10 23 -22t23 -20t17 -14t7 -23zM801 460q0 -17 -2 -20l-99 -106q-12 -12 -23 -26t-24 -29l-45 -50q-10 -10 -23 -21q-13 -10 -25 -24t-23 -24
q-12 -10 -23 -21h-2l-6 2q-23 0 -27 2q-16 16 -10 31q37 68 59 95q21 27 34 53q13 27 28 51q16 23 21 33t21 24q15 14 13 33t-18 34q-15 15 -23 28t-18 27q-21 28 -44 75q-24 47 -44 74q-21 28 -29 40q-4 12 14 27q21 12 23 12t6 -4l49 -53q67 -53 101 -96t46 -57t27 -23
t25 -21t19 -23t15 -19t7 -24z" />
    <glyph glyph-name="questiondown" unicode="&#xbf;" horiz-adv-x="864" 
d="M225 834q102 199 181 198q52 12 93 -28q40 -40 68 -82q27 -42 41 -57q35 -37 3 -81q-19 -29 -61 -71t-53 -58t-21 -23q-27 -18 -89 23q-79 37 -133 89t-29 90zM780 517q0 -32 -14 -44q-63 -47 -87 -145t-40 -125q-57 -57 -202 -35q-52 8 -103 -2q-6 -4 -31 -9t-24 -26
q8 -72 56 -159q48 -88 80 -164q33 -76 13 -132t-48 -87q-28 -32 -84 -81t-89 -81q-5 -6 -29 22t-24 49q23 84 -8 173q-30 89 -59 173q-30 84 -7 160q10 62 65 168t62 121v106q25 49 71 49t106 -18t120 -6q139 28 209 139h53q14 -14 14 -46z" />
    <glyph glyph-name="Agrave" unicode="&#xc0;" horiz-adv-x="2531" 
d="M1524 1735q-29 -23 -64 12q-4 4 -14 8t-19 27q-18 20 -18 26q-14 12 -49 56t-51 61q-16 16 -78 109q-6 6 -30 28t-34 32q-34 37 -30 75q27 41 72 53t67 -4q8 -8 17 -33t28 -39q8 -14 16 -55q12 -14 21 -14q12 -29 23 -39t16 -28t17 -39q13 -21 11 -29q16 0 28 -24
q11 -24 15 -32q0 -10 18 -32t40 -63q22 -42 -2 -56zM1565 391q-219 0 -291 -20q-82 -12 -117 -13q-59 -12 -47 -88q6 -16 22 -27t25 -7q305 12 426 6q41 0 41 49q-14 84 -41 96q-8 4 -18 4zM1659 1169q0 10 -14 54q0 25 14 49q12 37 -14 59q-33 20 -101 21q-49 24 -89 6
t-55 -33t-32 -50q-16 -36 -20 -44l-21 -21q-106 -215 -129 -278q-18 -72 27 -141q33 -33 88 -21q68 0 102 14q8 -14 84 -4t90 10q15 0 33 20t7 76t-5 86t16 96q11 66 19 101zM563 1554q10 0 43 1q113 3 180 -27q6 -2 24 -6t30 -8q14 -4 44 4q30 6 44 4q106 -23 157 -17
t71 -2t30 -8q53 10 94 27q22 4 42 -8q19 -11 47 -16t87 15q18 4 58 -1t46 -5t17 7q10 6 19 8t45 -3t51 3q38 4 82 -15q16 -2 53 4t52 1t44 -17h27q78 43 155 6h33q45 -23 76 -17q30 6 110 6q80 -1 99 17q29 80 94 68q35 -10 35 -41q10 -31 41 -76q47 -68 42 -87
q-4 -20 -30 -46q-4 2 -16 2t-17 4q-43 43 -106 46t-111 -25q-162 -186 -121 -344q4 -12 -2 -28t-6 -19q-24 -51 -20 -133t0 -132q-6 -20 -6 -55q6 -20 6 -53q-21 -284 -21 -338q15 -29 31 -91t37 -91q66 -66 76 -82q43 -98 26 -156q20 -61 150 -6q37 10 69 -19t11 -63
q-6 -12 -23 -62t-45 -79q-25 -16 -53 -9q-8 6 -46 46t-69 43q-412 18 -528 28q-37 -12 -104 -14t-93 -6q-33 0 -53 6q-154 12 -217 -21q-12 -6 -12 -39t-24 -36q-24 -4 -38 8q-37 21 -55 33q-19 12 -35 42t-8 53q14 41 56 47q41 7 62 7q68 35 114 27t63 -6q70 27 114 34
l27 -8l14 8q12 33 13 101q-12 102 -21 161q-12 53 -53 62q-49 3 -85 -8q-36 -10 -50 -13q-207 0 -254 -18t-78 -49q-25 -211 -94 -352q-33 -41 -68 -33q-20 18 -11 88t3 94q55 98 55 197q10 10 22 116q13 107 25 154v41q0 80 13 244q2 12 18 43t16 51q18 164 22 190t25 74
q21 47 28 74t40 85t41 85v20q2 8 14 33t7 55q-115 -20 -177 -149l-20 -21q-15 -23 -31 -67t-31 -62q-31 -31 -38 -67l-9 -62q-4 -8 -12 -20t-8 -19l-6 -129q-2 -10 -12 -27q-10 -18 -13 -24q-2 -6 -4 -41t2 -37q0 -12 5 -59t-5 -95t-6 -68q4 -22 -2 -64t-6 -54
q0 -10 -13 -38q-6 -27 -6 -90t-43 -187v-27q-7 -21 -29 -80t-24 -83q-10 -9 -57 -49t-78 -52l-68 -24q-66 -27 -94 -23q-28 3 -68 23q-63 31 -115 21t-101 -31q-51 -21 -75 -29t-55 22q-18 33 2 73t60 56q72 18 129 68q22 15 53 10q31 -4 47 -7t82 -14t102 -31t76 1
q40 20 39 57q0 37 -49 72q-16 10 -74 39t-88 61q-14 10 -46 20q-56 18 -67 37t-28 19q-19 23 -67 64t-68 63q-4 9 -1 25t2 27t-22 48q-20 37 -15 55t18 86q13 67 38 97l6 29q10 10 44 25t44 33t32 60q61 120 130 152q14 12 27 53q31 55 61 62q66 10 109 32l61 62q10 6 34 16
t44 29t146 98q6 2 9 12t11 15q115 51 141 115q0 20 -6 26q-61 12 -174 18t-138 7q-25 2 -60 8t-64 0t-99 4t-102 4q-12 -6 -41 -6q-33 6 -87 5t-87 1q-43 -31 -88 -20q-80 31 -14 161q4 4 11 8t9 7q19 53 75 66t98 -19q126 -95 206 -82q31 20 41 20z" />
    <glyph glyph-name="Aacute" unicode="&#xc1;" horiz-adv-x="2531" 
d="M1743 2169q4 -40 -31 -75q-10 -11 -34 -33q-24 -21 -32 -31t-34 -50q-27 -40 -42 -56q-15 -15 -50 -59t-50 -57l-18 -26q-7 -22 -18 -27q-10 -4 -15 -8q-35 -35 -63 -12q-39 24 51 135q4 6 4 16q4 6 13 26t30 30q-2 8 9 26t13 22t7 21q4 17 15 27t24 39l20 14
q12 63 27 63q8 8 17 32t18 32q24 16 68 4t71 -53zM1565 391q-219 0 -291 -20q-82 -12 -117 -13q-59 -12 -47 -88q6 -16 22 -27t25 -7q305 12 426 6q41 0 41 49q-14 84 -41 96q-8 4 -18 4zM1659 1169q0 10 -14 54q0 25 14 49q12 37 -14 59q-33 20 -101 21q-49 24 -89 6
t-55 -33t-32 -50q-16 -36 -20 -44l-21 -21q-106 -215 -129 -278q-18 -72 27 -141q33 -33 88 -21q68 0 102 14q8 -14 84 -4t90 10q15 0 33 20t7 76t-5 86t16 96q11 66 19 101zM563 1554q10 0 43 1q113 3 180 -27q6 -2 24 -6t30 -8q14 -4 44 4q30 6 44 4q106 -23 157 -17
t71 -2t30 -8q53 10 94 27q22 4 42 -8q19 -11 47 -16t87 15q18 4 58 -1t46 -5t17 7q10 6 19 8t45 -3t51 3q38 4 82 -15q16 -2 53 4t52 1t44 -17h27q78 43 155 6h33q45 -23 76 -17q30 6 110 6q80 -1 99 17q29 80 94 68q35 -10 35 -41q10 -31 41 -76q47 -68 42 -87
q-4 -20 -30 -46q-4 2 -16 2t-17 4q-43 43 -106 46t-111 -25q-162 -186 -121 -344q4 -12 -2 -28t-6 -19q-24 -51 -20 -133t0 -132q-6 -20 -6 -55q6 -20 6 -53q-21 -284 -21 -338q15 -29 31 -91t37 -91q66 -66 76 -82q43 -98 26 -156q20 -61 150 -6q37 10 69 -19t11 -63
q-6 -12 -23 -62t-45 -79q-25 -16 -53 -9q-8 6 -46 46t-69 43q-412 18 -528 28q-37 -12 -104 -14t-93 -6q-33 0 -53 6q-154 12 -217 -21q-12 -6 -12 -39t-24 -36q-24 -4 -38 8q-37 21 -55 33q-19 12 -35 42t-8 53q14 41 56 47q41 7 62 7q68 35 114 27t63 -6q70 27 114 34
l27 -8l14 8q12 33 13 101q-12 102 -21 161q-12 53 -53 62q-49 3 -85 -8q-36 -10 -50 -13q-207 0 -254 -18t-78 -49q-25 -211 -94 -352q-33 -41 -68 -33q-20 18 -11 88t3 94q55 98 55 197q10 10 22 116q13 107 25 154v41q0 80 13 244q2 12 18 43t16 51q18 164 22 190t25 74
q21 47 28 74t40 85t41 85v20q2 8 14 33t7 55q-115 -20 -177 -149l-20 -21q-15 -23 -31 -67t-31 -62q-31 -31 -38 -67l-9 -62q-4 -8 -12 -20t-8 -19l-6 -129q-2 -10 -12 -27q-10 -18 -13 -24q-2 -6 -4 -41t2 -37q0 -12 5 -59t-5 -95t-6 -68q4 -22 -2 -64t-6 -54
q0 -10 -13 -38q-6 -27 -6 -90t-43 -187v-27q-7 -21 -29 -80t-24 -83q-10 -9 -57 -49t-78 -52l-68 -24q-66 -27 -94 -23q-28 3 -68 23q-63 31 -115 21t-101 -31q-51 -21 -75 -29t-55 22q-18 33 2 73t60 56q72 18 129 68q22 15 53 10q31 -4 47 -7t82 -14t102 -31t76 1
q40 20 39 57q0 37 -49 72q-16 10 -74 39t-88 61q-14 10 -46 20q-56 18 -67 37t-28 19q-19 23 -67 64t-68 63q-4 9 -1 25t2 27t-22 48q-20 37 -15 55t18 86q13 67 38 97l6 29q10 10 44 25t44 33t32 60q61 120 130 152q14 12 27 53q31 55 61 62q66 10 109 32l61 62q10 6 34 16
t44 29t146 98q6 2 9 12t11 15q115 51 141 115q0 20 -6 26q-61 12 -174 18t-138 7q-25 2 -60 8t-64 0t-99 4t-102 4q-12 -6 -41 -6q-33 6 -87 5t-87 1q-43 -31 -88 -20q-80 31 -14 161q4 4 11 8t9 7q19 53 75 66t98 -19q126 -95 206 -82q31 20 41 20z" />
    <glyph glyph-name="Acircumflex" unicode="&#xc2;" horiz-adv-x="2531" 
d="M1320 2183q12 0 56 -29q8 -8 14 -27t26 -43q22 -24 33 -54t27 -44t19 -30q4 -16 11 -34t38 -48q4 -6 11 -22t12 -21q0 -10 4 -16q91 -109 48 -140q-26 -19 -60 17l-52 61q-14 12 -49 56q-39 49 -59 69t-27 39t-27 37t-26 26q-60 -67 -87 -109l-32 -48q-16 -14 -34 -41
t-33 -39l-19 -27q-8 -21 -18 -26q-10 -4 -15 -9q-35 -35 -63 -12q-39 27 45 123q14 20 14 35q4 6 11 22q11 27 28 27q-3 12 18 42t50 93q43 78 49 82q6 3 16 23q11 20 17 25t24 23t30 19zM1565 391q-219 0 -291 -20q-82 -12 -117 -13q-59 -12 -47 -88q6 -16 22 -27t25 -7
q305 12 426 6q41 0 41 49q-14 84 -41 96q-8 4 -18 4zM1659 1169q0 10 -14 54q0 25 14 49q12 37 -14 59q-33 20 -101 21q-49 24 -89 6t-55 -33t-32 -50q-16 -36 -20 -44l-21 -21q-106 -215 -129 -278q-18 -72 27 -141q33 -33 88 -21q68 0 102 14q8 -14 84 -4t90 10
q15 0 33 20t7 76t-5 86t16 96q11 66 19 101zM563 1554q10 0 43 1q113 3 180 -27q6 -2 24 -6t30 -8q14 -4 44 4q30 6 44 4q106 -23 157 -17t71 -2t30 -8q53 10 94 27q22 4 42 -8q19 -11 47 -16t87 15q18 4 58 -1t46 -5t17 7q10 6 19 8t45 -3t51 3q38 4 82 -15q16 -2 53 4
t52 1t44 -17h27q78 43 155 6h33q45 -23 76 -17q30 6 110 6q80 -1 99 17q29 80 94 68q35 -10 35 -41q10 -31 41 -76q47 -68 42 -87q-4 -20 -30 -46q-4 2 -16 2t-17 4q-43 43 -106 46t-111 -25q-162 -186 -121 -344q4 -12 -2 -28t-6 -19q-24 -51 -20 -133t0 -132
q-6 -20 -6 -55q6 -20 6 -53q-21 -284 -21 -338q15 -29 31 -91t37 -91q66 -66 76 -82q43 -98 26 -156q20 -61 150 -6q37 10 69 -19t11 -63q-6 -12 -23 -62t-45 -79q-25 -16 -53 -9q-8 6 -46 46t-69 43q-412 18 -528 28q-37 -12 -104 -14t-93 -6q-33 0 -53 6q-154 12 -217 -21
q-12 -6 -12 -39t-24 -36q-24 -4 -38 8q-37 21 -55 33q-19 12 -35 42t-8 53q14 41 56 47q41 7 62 7q68 35 114 27t63 -6q70 27 114 34l27 -8l14 8q12 33 13 101q-12 102 -21 161q-12 53 -53 62q-49 3 -85 -8q-36 -10 -50 -13q-207 0 -254 -18t-78 -49q-25 -211 -94 -352
q-33 -41 -68 -33q-20 18 -11 88t3 94q55 98 55 197q10 10 22 116q13 107 25 154v41q0 80 13 244q2 12 18 43t16 51q18 164 22 190t25 74q21 47 28 74t40 85t41 85v20q2 8 14 33t7 55q-115 -20 -177 -149l-20 -21q-15 -23 -31 -67t-31 -62q-31 -31 -38 -67l-9 -62
q-4 -8 -12 -20t-8 -19l-6 -129q-2 -10 -12 -27q-10 -18 -13 -24q-2 -6 -4 -41t2 -37q0 -12 5 -59t-5 -95t-6 -68q4 -22 -2 -64t-6 -54q0 -10 -13 -38q-6 -27 -6 -90t-43 -187v-27q-7 -21 -29 -80t-24 -83q-10 -9 -57 -49t-78 -52l-68 -24q-66 -27 -94 -23q-28 3 -68 23
q-63 31 -115 21t-101 -31q-51 -21 -75 -29t-55 22q-18 33 2 73t60 56q72 18 129 68q22 15 53 10q31 -4 47 -7t82 -14t102 -31t76 1q40 20 39 57q0 37 -49 72q-16 10 -74 39t-88 61q-14 10 -46 20q-56 18 -67 37t-28 19q-19 23 -67 64t-68 63q-4 9 -1 25t2 27t-22 48
q-20 37 -15 55t18 86q13 67 38 97l6 29q10 10 44 25t44 33t32 60q61 120 130 152q14 12 27 53q31 55 61 62q66 10 109 32l61 62q10 6 34 16t44 29t146 98q6 2 9 12t11 15q115 51 141 115q0 20 -6 26q-61 12 -174 18t-138 7q-25 2 -60 8t-64 0t-99 4t-102 4q-12 -6 -41 -6
q-33 6 -87 5t-87 1q-43 -31 -88 -20q-80 31 -14 161q4 4 11 8t9 7q19 53 75 66t98 -19q126 -95 206 -82q31 20 41 20z" />
    <glyph glyph-name="Atilde" unicode="&#xc3;" horiz-adv-x="2531" 
d="M1298 1868l-118 12l-76 4q-46 0 -74 -70q-10 -26 -14 -33t-29 -1q-20 57 -17 81q3 23 15 53t70 152q21 37 60 37l73 -6q36 -2 68 -7t73 -7q52 -9 77 -8q25 2 62 -2t57 11q19 15 46 56q8 31 18 33q21 4 33 -14l6 -5q23 -41 -20 -129q-4 -6 -28 -61q-24 -56 -38 -74
t-32 -24t-58 -2q-53 0 -154 4zM1565 391q-219 0 -291 -20q-82 -12 -117 -13q-59 -12 -47 -88q6 -16 22 -27t25 -7q305 12 426 6q41 0 41 49q-14 84 -41 96q-8 4 -18 4zM1659 1169q0 10 -14 54q0 25 14 49q12 37 -14 59q-33 20 -101 21q-49 24 -89 6t-55 -33t-32 -50
q-16 -36 -20 -44l-21 -21q-106 -215 -129 -278q-18 -72 27 -141q33 -33 88 -21q68 0 102 14q8 -14 84 -4t90 10q15 0 33 20t7 76t-5 86t16 96q11 66 19 101zM563 1554q10 0 43 1q113 3 180 -27q6 -2 24 -6t30 -8q14 -4 44 4q30 6 44 4q106 -23 157 -17t71 -2t30 -8
q53 10 94 27q22 4 42 -8q19 -11 47 -16t87 15q18 4 58 -1t46 -5t17 7q10 6 19 8t45 -3t51 3q38 4 82 -15q16 -2 53 4t52 1t44 -17h27q78 43 155 6h33q45 -23 76 -17q30 6 110 6q80 -1 99 17q29 80 94 68q35 -10 35 -41q10 -31 41 -76q47 -68 42 -87q-4 -20 -30 -46
q-4 2 -16 2t-17 4q-43 43 -106 46t-111 -25q-162 -186 -121 -344q4 -12 -2 -28t-6 -19q-24 -51 -20 -133t0 -132q-6 -20 -6 -55q6 -20 6 -53q-21 -284 -21 -338q15 -29 31 -91t37 -91q66 -66 76 -82q43 -98 26 -156q20 -61 150 -6q37 10 69 -19t11 -63q-6 -12 -23 -62
t-45 -79q-25 -16 -53 -9q-8 6 -46 46t-69 43q-412 18 -528 28q-37 -12 -104 -14t-93 -6q-33 0 -53 6q-154 12 -217 -21q-12 -6 -12 -39t-24 -36q-24 -4 -38 8q-37 21 -55 33q-19 12 -35 42t-8 53q14 41 56 47q41 7 62 7q68 35 114 27t63 -6q70 27 114 34l27 -8l14 8
q12 33 13 101q-12 102 -21 161q-12 53 -53 62q-49 3 -85 -8q-36 -10 -50 -13q-207 0 -254 -18t-78 -49q-25 -211 -94 -352q-33 -41 -68 -33q-20 18 -11 88t3 94q55 98 55 197q10 10 22 116q13 107 25 154v41q0 80 13 244q2 12 18 43t16 51q18 164 22 190t25 74q21 47 28 74
t40 85t41 85v20q2 8 14 33t7 55q-115 -20 -177 -149l-20 -21q-15 -23 -31 -67t-31 -62q-31 -31 -38 -67l-9 -62q-4 -8 -12 -20t-8 -19l-6 -129q-2 -10 -12 -27q-10 -18 -13 -24q-2 -6 -4 -41t2 -37q0 -12 5 -59t-5 -95t-6 -68q4 -22 -2 -64t-6 -54q0 -10 -13 -38
q-6 -27 -6 -90t-43 -187v-27q-7 -21 -29 -80t-24 -83q-10 -9 -57 -49t-78 -52l-68 -24q-66 -27 -94 -23q-28 3 -68 23q-63 31 -115 21t-101 -31q-51 -21 -75 -29t-55 22q-18 33 2 73t60 56q72 18 129 68q22 15 53 10q31 -4 47 -7t82 -14t102 -31t76 1q40 20 39 57
q0 37 -49 72q-16 10 -74 39t-88 61q-14 10 -46 20q-56 18 -67 37t-28 19q-19 23 -67 64t-68 63q-4 9 -1 25t2 27t-22 48q-20 37 -15 55t18 86q13 67 38 97l6 29q10 10 44 25t44 33t32 60q61 120 130 152q14 12 27 53q31 55 61 62q66 10 109 32l61 62q10 6 34 16t44 29
t146 98q6 2 9 12t11 15q115 51 141 115q0 20 -6 26q-61 12 -174 18t-138 7q-25 2 -60 8t-64 0t-99 4t-102 4q-12 -6 -41 -6q-33 6 -87 5t-87 1q-43 -31 -88 -20q-80 31 -14 161q4 4 11 8t9 7q19 53 75 66t98 -19q126 -95 206 -82q31 20 41 20z" />
    <glyph glyph-name="Adieresis" unicode="&#xc4;" horiz-adv-x="2531" 
d="M1083 1796h-22q-45 43 -80 92q-98 81 -86 117q4 12 12 14q76 53 127 119q41 45 72 31q40 -26 85 -76q43 -51 63 -73t-3 -62q-23 -31 -75 -79q-52 -47 -66 -65q-16 -18 -27 -18zM1581 1796h-22q-45 43 -80 92q-98 81 -86 117q4 12 12 14q76 53 127 119q41 45 72 31
q40 -26 85 -76q43 -51 63 -73t-3 -62q-23 -31 -75 -79q-52 -47 -67 -65t-26 -18zM1565 391q-219 0 -291 -20q-82 -12 -117 -13q-59 -12 -47 -88q6 -16 22 -27t25 -7q305 12 426 6q41 0 41 49q-14 84 -41 96q-8 4 -18 4zM1659 1169q0 10 -14 54q0 25 14 49q12 37 -14 59
q-33 20 -101 21q-49 24 -89 6t-55 -33t-32 -50q-16 -36 -20 -44l-21 -21q-106 -215 -129 -278q-18 -72 27 -141q33 -33 88 -21q68 0 102 14q8 -14 84 -4t90 10q15 0 33 20t7 76t-5 86t16 96q11 66 19 101zM563 1554q10 0 43 1q113 3 180 -27q6 -2 24 -6t30 -8q14 -4 44 4
q30 6 44 4q106 -23 157 -17t71 -2t30 -8q53 10 94 27q22 4 42 -8q19 -11 47 -16t87 15q18 4 58 -1t46 -5t17 7q10 6 19 8t45 -3t51 3q38 4 82 -15q16 -2 53 4t52 1t44 -17h27q78 43 155 6h33q45 -23 76 -17q30 6 110 6q80 -1 99 17q29 80 94 68q35 -10 35 -41q10 -31 41 -76
q47 -68 42 -87q-4 -20 -30 -46q-4 2 -16 2t-17 4q-43 43 -106 46t-111 -25q-162 -186 -121 -344q4 -12 -2 -28t-6 -19q-24 -51 -20 -133t0 -132q-6 -20 -6 -55q6 -20 6 -53q-21 -284 -21 -338q15 -29 31 -91t37 -91q66 -66 76 -82q43 -98 26 -156q20 -61 150 -6
q37 10 69 -19t11 -63q-6 -12 -23 -62t-45 -79q-25 -16 -53 -9q-8 6 -46 46t-69 43q-412 18 -528 28q-37 -12 -104 -14t-93 -6q-33 0 -53 6q-154 12 -217 -21q-12 -6 -12 -39t-24 -36q-24 -4 -38 8q-37 21 -55 33q-19 12 -35 42t-8 53q14 41 56 47q41 7 62 7q68 35 114 27
t63 -6q70 27 114 34l27 -8l14 8q12 33 13 101q-12 102 -21 161q-12 53 -53 62q-49 3 -85 -8q-36 -10 -50 -13q-207 0 -254 -18t-78 -49q-25 -211 -94 -352q-33 -41 -68 -33q-20 18 -11 88t3 94q55 98 55 197q10 10 22 116q13 107 25 154v41q0 80 13 244q2 12 18 43t16 51
q18 164 22 190t25 74q21 47 28 74t40 85t41 85v20q2 8 14 33t7 55q-115 -20 -177 -149l-20 -21q-15 -23 -31 -67t-31 -62q-31 -31 -38 -67l-9 -62q-4 -8 -12 -20t-8 -19l-6 -129q-2 -10 -12 -27q-10 -18 -13 -24q-2 -6 -4 -41t2 -37q0 -12 5 -59t-5 -95t-6 -68q4 -22 -2 -64
t-6 -54q0 -10 -13 -38q-6 -27 -6 -90t-43 -187v-27q-7 -21 -29 -80t-24 -83q-10 -9 -57 -49t-78 -52l-68 -24q-66 -27 -94 -23q-28 3 -68 23q-63 31 -115 21t-101 -31q-51 -21 -75 -29t-55 22q-18 33 2 73t60 56q72 18 129 68q22 15 53 10q31 -4 47 -7t82 -14t102 -31t76 1
q40 20 39 57q0 37 -49 72q-16 10 -74 39t-88 61q-14 10 -46 20q-56 18 -67 37t-28 19q-19 23 -67 64t-68 63q-4 9 -1 25t2 27t-22 48q-20 37 -15 55t18 86q13 67 38 97l6 29q10 10 44 25t44 33t32 60q61 120 130 152q14 12 27 53q31 55 61 62q66 10 109 32l61 62q10 6 34 16
t44 29t146 98q6 2 9 12t11 15q115 51 141 115q0 20 -6 26q-61 12 -174 18t-138 7q-25 2 -60 8t-64 0t-99 4t-102 4q-12 -6 -41 -6q-33 6 -87 5t-87 1q-43 -31 -88 -20q-80 31 -14 161q4 4 11 8t9 7q19 53 75 66t98 -19q126 -95 206 -82q31 20 41 20z" />
    <glyph glyph-name="Aring" unicode="&#xc5;" horiz-adv-x="2531" 
d="M1565 391q-219 0 -291 -20q-82 -12 -117 -13q-59 -12 -47 -88q6 -16 22 -27t25 -7q305 12 426 6q41 0 41 49q-14 84 -41 96q-8 4 -18 4zM1659 1169q0 10 -14 54q0 25 14 49q12 37 -14 59q-33 20 -101 21q-49 24 -89 6t-55 -33t-32 -50q-16 -36 -20 -44l-21 -21
q-106 -215 -129 -278q-18 -72 27 -141q33 -33 88 -21q68 0 102 14q8 -14 84 -4t90 10q15 0 33 20t7 76t-5 86t16 96q11 66 19 101zM1587 1653q35 1 48 35t7 75q-23 61 -43 85t-47 32q-12 0 -34 5t-35 1q-35 0 -47 -14q-56 -78 24 -172q43 -47 127 -47zM2589 1327
q-12 0 -17 4q-43 43 -106 46t-111 -25q-162 -186 -121 -344q4 -12 -2 -28t-6 -19q-24 -51 -20 -133t0 -132q-6 -20 -6 -55q6 -20 6 -53q-21 -284 -21 -338q15 -29 31 -91t37 -91q66 -66 76 -82q43 -98 26 -156q20 -61 150 -6q37 10 69 -19t11 -63q-6 -12 -23 -62t-45 -79
q-25 -16 -53 -9q-8 6 -46 46t-69 43q-412 18 -528 28q-37 -12 -104 -14t-93 -6q-33 0 -53 6q-154 12 -217 -21q-12 -6 -12 -39t-24 -36q-24 -4 -38 8q-37 21 -55 33q-19 12 -35 42t-8 53q14 41 56 47q41 7 62 7q68 35 114 27t63 -6q70 27 114 34l27 -8l14 8q12 33 13 101
q-12 102 -21 161q-12 53 -53 62q-49 3 -85 -8q-36 -10 -50 -13q-207 0 -254 -18t-78 -49q-25 -211 -94 -352q-33 -41 -68 -33q-20 18 -11 88t3 94q55 98 55 197q10 10 22 116q13 107 25 154v41q0 80 13 244q2 12 18 43t16 51q18 164 22 190t25 74q21 47 28 74t40 85t41 85
v20q2 8 14 33t7 55q-115 -20 -177 -149l-20 -21q-15 -23 -31 -67t-31 -62q-31 -31 -38 -67l-9 -62q-4 -8 -12 -20t-8 -19l-6 -129q-2 -10 -12 -27q-10 -18 -13 -24q-2 -6 -4 -41t2 -37q0 -12 5 -59t-5 -95t-6 -68q4 -22 -2 -64t-6 -54q0 -10 -13 -38q-6 -27 -6 -90t-43 -187
v-27q-7 -21 -29 -80t-24 -83q-10 -9 -57 -49t-78 -52l-68 -24q-66 -27 -94 -23q-28 3 -68 23q-63 31 -115 21t-101 -31q-51 -21 -75 -29t-55 22q-18 33 2 73t60 56q72 18 129 68q22 15 53 10q31 -4 47 -7t82 -14t102 -31t76 1q40 20 39 57q0 37 -49 72q-16 10 -74 39t-88 61
q-14 10 -46 20q-56 18 -67 37t-28 19q-19 23 -67 64t-68 63q-4 9 -1 25t2 27t-22 48q-20 37 -15 55t18 86q13 67 38 97l6 29q10 10 44 25t44 33t32 60q61 120 130 152q14 12 27 53q31 55 61 62q66 10 109 32l61 62q10 6 34 16t44 29t146 98q6 2 9 12t11 15q115 51 141 115
q0 20 -6 26q-61 12 -174 18t-138 7q-25 2 -60 8t-64 0t-99 4t-102 4q-12 -6 -41 -6q-33 6 -87 5t-87 1q-43 -31 -88 -20q-80 31 -14 161q4 4 11 8t9 7q19 53 75 66t98 -19q126 -95 206 -82q31 20 41 20t43 1q113 3 180 -27q6 -2 24 -6t30 -8q14 -4 44 4q30 6 44 4
q106 -23 157 -17t71 -2t30 -8q90 17 102 29q-38 23 -51 190q13 59 100 134q39 34 45 40t8 16t7 15q139 162 219 170q66 0 76 -8t44 -35t56 -49t31 -45q8 -23 15 -27t7 -8q10 -33 6 -150q-3 -23 -31 -40t-33 -22t-7 -15t-4 -13q-29 -16 -92 -74t-101 -85q12 7 53 2
q41 -6 56 2q38 4 82 -15q16 -2 53 4t52 1t44 -17h27q78 43 155 6h33q45 -23 76 -17q30 6 110 6q80 -1 99 17q29 80 94 68q35 -10 35 -41q10 -31 41 -76q47 -68 42 -87q-4 -20 -30 -46q-4 2 -16 2z" />
    <glyph glyph-name="AE" unicode="&#xc6;" horiz-adv-x="3608" 
d="M2300 1544l62 29q6 0 56 11t70 11q72 12 234 0l92 -14q35 -10 78 -57q12 -8 40 -18t34 -15q6 -4 10 -11t8 -12q20 -14 92 -59t109 -81t59 -87q12 4 30 -6t27 -6q41 16 59 54t26 95q8 58 12 72t17 48t13 54q12 57 43 58q51 18 107 2t76 -66q18 -84 14 -105t-26 -35t-46 -6
q-24 7 -62 4q-40 -3 -50 -36v-49q-16 -72 -27 -90q-18 -68 -37 -234q0 -4 -20 -49q-6 -38 -1 -110t-2 -98t2 -52q9 -25 9 -37l6 -174q0 -43 -7 -89t15 -139t21 -175l14 -37v-41q27 -92 27 -141q4 -34 27 -48t35 -19t34 -13q23 -8 31 -13q68 -23 92 -106q6 -24 -9 -48
t-40 -36q-6 2 -76 14t-94 43v13q-6 20 -35 39t-39 40t-34 92t-46 105q-26 26 -57 10t-58 -39q-55 -31 -69 -57q-12 -14 -48 -36t-44 -27q-66 -78 -148 -70q-51 -25 -153 -47t-127 -32q-25 -9 -34 -5t-24 14t-66 3t-69 -3q-55 18 -186 31q-74 2 -150 19t-276 32
q-37 -12 -104 -14t-93 -6q-33 0 -53 6q-154 12 -217 -21q-12 -6 -12 -39t-24 -36q-24 -4 -38 8q-37 21 -55 33q-19 12 -35 42t-8 53q14 41 56 47q41 7 62 7q68 35 114 27t63 -6q70 27 114 34l27 -8l14 8q12 33 13 101q-12 102 -21 161q-12 53 -53 62q-49 3 -85 -8
q-36 -10 -50 -13q-207 0 -254 -18t-78 -49q-25 -211 -94 -352q-33 -41 -68 -33q-20 18 -11 88t3 94q55 98 55 197q10 10 22 116q13 107 25 154v41q0 80 13 244q2 12 18 43t16 51q18 164 22 190t25 74q21 47 28 74t40 85t41 85v20q2 8 14 33t7 55q-115 -20 -177 -149l-20 -21
q-15 -23 -31 -67t-31 -62q-31 -31 -38 -67l-9 -62q-4 -8 -12 -20t-8 -19l-6 -129q-2 -10 -12 -27q-10 -18 -13 -24q-2 -6 -4 -41t2 -37q0 -12 5 -59t-5 -95t-6 -68q4 -22 -2 -64t-6 -54q0 -10 -13 -38q-6 -27 -6 -90t-43 -187v-27q-7 -21 -29 -80t-24 -83q-10 -9 -57 -49
t-78 -52l-68 -24q-66 -27 -94 -23q-28 3 -68 23q-63 31 -115 21t-101 -31q-51 -21 -75 -29t-55 22q-18 33 2 73t60 56q72 18 129 68q22 15 53 10q31 -4 47 -7t82 -14t102 -31t76 1q40 20 39 57q0 37 -49 72q-16 10 -74 39t-88 61q-14 10 -46 20q-56 18 -67 37t-28 19
q-19 23 -67 64t-68 63q-4 9 -1 25t2 27t-22 48q-20 37 -15 55t18 86q13 67 38 97l6 29q10 10 44 25t44 33t32 60q61 120 130 152q14 12 27 53q31 55 61 62q66 10 109 32l61 62q10 6 34 16t44 29t146 98q6 2 9 12t11 15q115 51 141 115q0 20 -6 26q-61 12 -174 18t-138 7
q-25 2 -60 8t-64 0t-99 4t-102 4q-12 -6 -41 -6q-33 6 -87 5t-87 1q-43 -31 -88 -20q-80 31 -14 161q4 4 11 8t9 7q19 53 75 66t98 -19q126 -95 206 -82q31 20 41 20t43 1q113 3 180 -27q6 -2 24 -6t30 -8q14 -4 44 4q30 6 44 4q106 -23 157 -17t71 -2t30 -8q53 10 94 27
q22 4 42 -8q19 -11 47 -16t87 15q18 4 58 -1t46 -5t17 7q10 6 19 8t45 -3t51 3q38 4 82 -15q16 -2 53 4t52 1t44 -17h27q29 16 57 27h33q43 -23 80 -17q6 0 26 5q20 6 32 8t47 14q36 12 75 12zM2370 395q-20 0 -35 15q-160 0 -205 -15q-27 -47 0 -112v-29q28 -43 27 -78
q-2 -35 2 -50t19 -41t22 -42l8 -49q5 -25 25 -42t24 -22q2 -4 6 -14t7 -13q2 -3 10 -9t13 -8q5 -3 29 -37t41 -46q29 -16 91 -25t78 -13q18 -4 149 -5q101 18 120 54q7 14 10 19t52 48t57 76q8 76 35 127v29q21 86 49 127q-8 18 -6 76t-20 72t-66 15q-104 -8 -542 -8z
M2568 1419q-4 1 -37 13t-49 8q-10 -6 -37 -31t-67 -27q-42 -8 -62 -45t-58 -124t-65 -111q-33 -61 -49 -101q-20 -68 -19 -86t1 -50t4 -46q16 -23 20 -22q95 0 213 37q125 10 211 -15q8 -4 20 -8t15 -6q76 -12 141 6q49 8 142 8q29 3 45 23t31 56q14 36 22 48q6 60 -12 137
q-18 78 -26 111t-25 47h-15q-12 8 -20 30q-8 23 -18 31t-60 36q-49 28 -70 53q-23 16 -55 22q-31 6 -121 6zM1565 391q-219 0 -291 -20q-82 -12 -117 -13q-59 -12 -47 -88q6 -16 22 -27t25 -7q305 12 426 6q41 0 41 49q-14 84 -41 96q-8 4 -18 4zM1659 1169q0 10 -14 54
q0 25 14 49q12 37 -14 59q-33 20 -101 21q-49 24 -89 6t-55 -33t-32 -50q-16 -36 -20 -44l-21 -21q-106 -215 -129 -278q-18 -72 27 -141q33 -33 88 -21q68 0 102 14q8 -14 84 -4t90 10q15 0 33 20t7 76t-5 86t16 96q11 66 19 101z" />
    <glyph glyph-name="Ccedilla" unicode="&#xc7;" horiz-adv-x="2111" 
d="M1931 424q0 -27 13 -47q6 0 2 -29l-2 -31q2 -9 17 -35t11 -40q0 -92 -8 -115q-6 -41 5 -113t9 -104q6 -14 18 -62t44 -61q78 -33 121 -88q10 -11 12 -27t-4 -20q-29 -29 -62 -38t-93 -9h-70q-23 -14 -48 -15q-68 28 -41 137q10 40 3 67q-7 28 -10 80t-19 77
q-33 41 -94 -21q-40 -56 -119 -108q-80 -52 -92 -62q-39 -18 -129 -34q-14 -4 -40 -14t-48 -15q-50 -21 -67 -33q-16 -12 -36 -32t-35 -31q8 -14 40 -39q32 -26 42 -54q9 -28 17 -46q45 -105 8 -171q-16 -12 -41 -12q-20 -8 -61 -37q-18 -16 -75 -75t-110 -85q-47 -10 -85 1
t-46 38q-27 78 19 125h77q48 0 95 29q0 4 9 39t7 50t-3 31t-13 25q-11 9 -78 56q-18 6 -50 -8q-33 -14 -47 -14t-20 11q-6 12 -2 29q23 39 34 44q11 6 60 22t72 32q78 39 78 54q-48 -4 -90 10t-52 16l-33 -4q-9 0 -44 16t-119 37t-108 37q-62 41 -116 66q-55 24 -69 31
q-8 18 -37 42t-37 33q0 4 -14 33q-47 61 -74 88q-55 63 -117 170q0 51 -32 141q-33 90 -35 103q18 39 -15 129q-4 12 2 30t7 25l-9 27q10 63 41 123l9 32q12 16 12 21q0 66 47 137q4 5 8 23t6 24q35 26 49 50q13 24 26 50t22 38t59 38q12 10 45 41t72 54q16 12 42 41
q26 28 32 34t12 24q8 18 14 24q23 4 109 40q10 41 67 54q14 4 40 8t36 6q80 33 217 21q9 0 135 -21q55 0 82 -14q37 -25 116 -62q78 -37 100 -50q22 -12 32 -26t34 -28t173 -119q94 -55 94 8q8 107 29 332q0 20 41 33h26q55 30 117 24t113 -51q14 -14 11 -30q-3 -17 -3 -23
q-106 -41 -184 -137q-27 -33 -27 -115q-17 -86 -16 -102q2 -17 10 -60q-12 -45 -14 -131t-7 -121q-10 -20 -14 -41t13 -99t-7 -159q-6 -23 1 -69t7 -74zM1016 -166h18q18 8 82 29q6 0 47 -21q16 -4 31 -4l57 4q35 6 82 54q8 14 35 41q74 43 100 108q8 35 9 109q3 22 25 56
t28 52q6 68 -6 122t-15 75q24 34 23 83q-2 48 -2 52l8 20q-23 121 -14 226q14 47 6 67l4 104q0 50 -20 66q-20 17 -25 29q-4 12 -13 44q-27 96 -67 130q-33 20 -97 38t-73 23q-7 5 -25 15t-22 12q-20 2 -62 17t-61 17q-20 2 -61 -13q0 -17 -16 -35t-42 -22t-63 -58
q-15 -36 -21 -74t-13 -60t-43 -88t-58 -140q-22 -75 -15 -113v-68q-33 -66 13 -123q0 -24 -6 -100t-1 -124q6 -48 33 -95q14 -12 15 -62q2 -8 12 -22t14 -25l8 -33q61 -104 62 -170q-8 -43 67 -88q6 -6 16 -20t17 -21q4 -2 14 -8q11 -6 15 -6z" />
    <glyph glyph-name="Egrave" unicode="&#xc8;" horiz-adv-x="2189" 
d="M1225 1765q-29 -23 -64 13q-4 4 -14 8t-19 26q-18 20 -18 27q-14 12 -49 56q-35 43 -50 59t-42 56t-35 50t-32 32t-34 33q-34 37 -30 75q27 41 72 53t67 -4q8 -8 17 -33t28 -39q8 -14 16 -55q12 -14 21 -15q12 -29 23 -39q12 -10 16 -26t6 -20t13 -23q11 -18 9 -27
q17 0 28 -24t15 -31q0 -9 18 -31q17 -22 39 -64t-1 -57zM950 416q-20 0 -35 14q-160 0 -204 -14q-27 -47 0 -113v-29q2 -8 9 -17t13 -21t4 -43t2 -52q31 -52 41 -78l8 -49q5 -27 50 -63q2 -4 6 -14q4 -9 7 -13t7 -7t7 -5t8 -5t8 -5q47 -66 63 -78q29 -16 90 -26t79 -13
q18 -4 149 -4q102 18 119 53l8 16q6 8 55 52t57 75q8 76 35 127v29q21 86 49 127q-8 18 -6 76q1 58 -21 74q-22 14 -65 14q-104 -8 -543 -8zM1149 1440q-4 0 -37 12t-49 8q-10 -6 -39 -32t-66 -25q-41 -8 -61 -45t-58 -124t-65 -112q-33 -61 -49 -100q-20 -68 -20 -90
q4 -14 4 -46t2 -46q16 -23 20 -23q65 0 213 37q125 10 211 -14q7 -4 19 -8t16 -7q76 -12 141 6q49 8 142 9q29 2 45 22t30 56t23 49q7 62 -12 138t-23 101q-12 41 -29 56h-14q-12 8 -20 30q-9 22 -19 30q-10 9 -59 37t-70 52q-6 4 -20 10t-23 11q-43 8 -133 8zM141 815
q0 43 -22 80q-8 25 -10 31t6 32t13 35q5 11 32 23t35 20q12 18 30 58q17 40 27 53q10 15 33 33t30 26q37 53 58 64v14q24 24 49 65q24 40 35 54q8 2 53 11t68 26l40 41q35 23 72 22q8 0 21 13h43q26 6 66 38t67 33h57q14 3 50 19t55 16q89 11 254 -6l92 -14q35 -10 78 -58
q11 -8 39 -18t34 -14t10 -12q4 -7 16 -16t85 -54t109 -81t59 -87q12 4 29 -6t28 -7q40 17 58 55t29 107t25 105q15 37 15 57q12 57 43 57q50 18 106 2t76 -65q18 -83 14 -105t-25 -36t-45 -6q-24 7 -64 4t-50 -35v-50q-16 -72 -26 -90q-18 -68 -37 -233q0 -2 -8 -22t-13 -27
q-6 -37 -1 -110t-2 -99t2 -51t10 -37l6 -174q0 -43 -8 -89q-7 -45 15 -139t21 -176l15 -37v-41q27 -92 26 -141q4 -35 28 -48q22 -13 34 -19t35 -13q23 -8 30 -12q68 -23 93 -107q6 -24 -10 -48t-40 -36q-6 2 -76 14t-94 44v12q-6 20 -34 40t-39 40q-10 22 -34 92t-46 105
q-26 26 -52 12q-27 -14 -63 -41q-55 -31 -70 -58q-12 -14 -48 -36t-44 -27q-66 -78 -147 -70q-51 -25 -153 -47t-128 -32q-24 -9 -34 -5t-24 15q-15 11 -55 4q-41 -8 -59 -3t-83 28t-99 26q-30 12 -64 29h-20q-39 10 -57 28t-73 61t-64 57q-9 13 -11 16q-57 29 -78 49
q-162 152 -254 311q-23 39 -92 246q-12 14 -9 68t0 80t4 75t7 92z" />
    <glyph glyph-name="Eacute" unicode="&#xc9;" horiz-adv-x="2189" 
d="M1493 2169q4 -40 -31 -75q-10 -11 -34 -33q-24 -21 -32 -31t-34 -50q-27 -40 -42 -56q-15 -15 -50 -59t-49 -57l-19 -26q-7 -22 -18 -27q-10 -4 -15 -8q-35 -35 -63 -12q-39 24 51 135q4 6 4 16q4 6 13 26t30 30q-2 8 9 26t13 22t7 21q4 17 15 27t24 39l20 14
q12 63 27 63q8 8 17 32t18 32q24 16 68 4t71 -53zM950 416q-20 0 -35 14q-160 0 -204 -14q-27 -47 0 -113v-29q2 -8 9 -17t13 -21t4 -43t2 -52q31 -52 41 -78l8 -49q5 -27 50 -63q2 -4 6 -14q4 -9 7 -13t7 -7t7 -5t8 -5t8 -5q47 -66 63 -78q29 -16 90 -26t79 -13
q18 -4 149 -4q102 18 119 53l8 16q6 8 55 52t57 75q8 76 35 127v29q21 86 49 127q-8 18 -6 76q1 58 -21 74q-22 14 -65 14q-104 -8 -543 -8zM1149 1440q-4 0 -37 12t-49 8q-10 -6 -39 -32t-66 -25q-41 -8 -61 -45t-58 -124t-65 -112q-33 -61 -49 -100q-20 -68 -20 -90
q4 -14 4 -46t2 -46q16 -23 20 -23q65 0 213 37q125 10 211 -14q7 -4 19 -8t16 -7q76 -12 141 6q49 8 142 9q29 2 45 22t30 56t23 49q7 62 -12 138t-23 101q-12 41 -29 56h-14q-12 8 -20 30q-9 22 -19 30q-10 9 -59 37t-70 52q-6 4 -20 10t-23 11q-43 8 -133 8zM141 815
q0 43 -22 80q-8 25 -10 31t6 32t13 35q5 11 32 23t35 20q12 18 30 58q17 40 27 53q10 15 33 33t30 26q37 53 58 64v14q24 24 49 65q24 40 35 54q8 2 53 11t68 26l40 41q35 23 72 22q8 0 21 13h43q26 6 66 38t67 33h57q14 3 50 19t55 16q89 11 254 -6l92 -14q35 -10 78 -58
q11 -8 39 -18t34 -14t10 -12q4 -7 16 -16t85 -54t109 -81t59 -87q12 4 29 -6t28 -7q40 17 58 55t29 107t25 105q15 37 15 57q12 57 43 57q50 18 106 2t76 -65q18 -83 14 -105t-25 -36t-45 -6q-24 7 -64 4t-50 -35v-50q-16 -72 -26 -90q-18 -68 -37 -233q0 -2 -8 -22t-13 -27
q-6 -37 -1 -110t-2 -99t2 -51t10 -37l6 -174q0 -43 -8 -89q-7 -45 15 -139t21 -176l15 -37v-41q27 -92 26 -141q4 -35 28 -48q22 -13 34 -19t35 -13q23 -8 30 -12q68 -23 93 -107q6 -24 -10 -48t-40 -36q-6 2 -76 14t-94 44v12q-6 20 -34 40t-39 40q-10 22 -34 92t-46 105
q-26 26 -52 12q-27 -14 -63 -41q-55 -31 -70 -58q-12 -14 -48 -36t-44 -27q-66 -78 -147 -70q-51 -25 -153 -47t-128 -32q-24 -9 -34 -5t-24 15q-15 11 -55 4q-41 -8 -59 -3t-83 28t-99 26q-30 12 -64 29h-20q-39 10 -57 28t-73 61t-64 57q-9 13 -11 16q-57 29 -78 49
q-162 152 -254 311q-23 39 -92 246q-12 14 -9 68t0 80t4 75t7 92z" />
    <glyph glyph-name="Ecircumflex" unicode="&#xca;" horiz-adv-x="2189" 
d="M1148 2245q9 0 52 -29q8 -8 13 -28t27 -42q22 -24 26 -43q18 -43 43 -63q6 -6 10 -22t11 -34t38 -49q4 -6 11 -21t12 -22q0 -10 4 -16q31 -37 53 -79t-2 -56q-29 -23 -64 12l-51 62q-14 12 -42 47t-53 63q-26 27 -30 32t-11 24t-26 35q-20 17 -26 26q-57 -64 -86 -108
t-33 -50q-16 -14 -34 -41t-34 -39l-18 -26q-8 -23 -18 -27q-11 -4 -15 -8q-35 -35 -63 -12q-39 27 45 122q14 20 14 35q4 6 9 18q12 30 30 31q-3 11 18 42t50 94q30 53 36 65t11 12q8 8 18 28t19 28q4 2 15 13t21 19t20 7zM950 416q-20 0 -35 14q-160 0 -204 -14
q-27 -47 0 -113v-29q2 -8 9 -17t13 -21t4 -43t2 -52q31 -52 41 -78l8 -49q5 -27 50 -63q2 -4 6 -14q4 -9 7 -13t7 -7t7 -5t8 -5t8 -5q47 -66 63 -78q29 -16 90 -26t79 -13q18 -4 149 -4q102 18 119 53l8 16q6 8 55 52t57 75q8 76 35 127v29q21 86 49 127q-8 18 -6 76
q1 58 -21 74q-22 14 -65 14q-104 -8 -543 -8zM1149 1440q-4 0 -37 12t-49 8q-10 -6 -39 -32t-66 -25q-41 -8 -61 -45t-58 -124t-65 -112q-33 -61 -49 -100q-20 -68 -20 -90q4 -14 4 -46t2 -46q16 -23 20 -23q65 0 213 37q125 10 211 -14q7 -4 19 -8t16 -7q76 -12 141 6
q49 8 142 9q29 2 45 22t30 56t23 49q7 62 -12 138t-23 101q-12 41 -29 56h-14q-12 8 -20 30q-9 22 -19 30q-10 9 -59 37t-70 52q-6 4 -20 10t-23 11q-43 8 -133 8zM141 815q0 43 -22 80q-8 25 -10 31t6 32t13 35q5 11 32 23t35 20q12 18 30 58q17 40 27 53q10 15 33 33
t30 26q37 53 58 64v14q24 24 49 65q24 40 35 54q8 2 53 11t68 26l40 41q35 23 72 22q8 0 21 13h43q26 6 66 38t67 33h57q14 3 50 19t55 16q89 11 254 -6l92 -14q35 -10 78 -58q11 -8 39 -18t34 -14t10 -12q4 -7 16 -16t85 -54t109 -81t59 -87q12 4 29 -6t28 -7q40 17 58 55
t29 107t25 105q15 37 15 57q12 57 43 57q50 18 106 2t76 -65q18 -83 14 -105t-25 -36t-45 -6q-24 7 -64 4t-50 -35v-50q-16 -72 -26 -90q-18 -68 -37 -233q0 -2 -8 -22t-13 -27q-6 -37 -1 -110t-2 -99t2 -51t10 -37l6 -174q0 -43 -8 -89q-7 -45 15 -139t21 -176l15 -37v-41
q27 -92 26 -141q4 -35 28 -48q22 -13 34 -19t35 -13q23 -8 30 -12q68 -23 93 -107q6 -24 -10 -48t-40 -36q-6 2 -76 14t-94 44v12q-6 20 -34 40t-39 40q-10 22 -34 92t-46 105q-26 26 -52 12q-27 -14 -63 -41q-55 -31 -70 -58q-12 -14 -48 -36t-44 -27q-66 -78 -147 -70
q-51 -25 -153 -47t-128 -32q-24 -9 -34 -5t-24 15q-15 11 -55 4q-41 -8 -59 -3t-83 28t-99 26q-30 12 -64 29h-20q-39 10 -57 28t-73 61t-64 57q-9 13 -11 16q-57 29 -78 49q-162 152 -254 311q-23 39 -92 246q-12 14 -9 68t0 80t4 75t7 92z" />
    <glyph glyph-name="Edieresis" unicode="&#xcb;" horiz-adv-x="2189" 
d="M899 1796h-22q-45 43 -80 92q-98 81 -86 117q4 12 12 14q76 53 127 119q41 45 72 31q40 -26 85 -76q43 -51 63 -73t-3 -62q-23 -31 -75 -79q-52 -47 -67 -65t-26 -18zM1397 1796h-23q-45 43 -80 92q-98 81 -86 117q4 12 13 14q76 53 127 119q41 45 71 31q38 -24 84 -76
q45 -51 65 -73t-3 -62q-23 -31 -75 -79q-52 -47 -66 -65t-27 -18zM950 416q-20 0 -35 14q-160 0 -204 -14q-27 -47 0 -113v-29q2 -8 9 -17t13 -21t4 -43t2 -52q31 -52 41 -78l8 -49q5 -27 50 -63q2 -4 6 -14q4 -9 7 -13t7 -7t7 -5t8 -5t8 -5q47 -66 63 -78q29 -16 90 -26
t79 -13q18 -4 149 -4q102 18 119 53l8 16q6 8 55 52t57 75q8 76 35 127v29q21 86 49 127q-8 18 -6 76q1 58 -21 74q-22 14 -65 14q-104 -8 -543 -8zM1149 1440q-4 0 -37 12t-49 8q-10 -6 -39 -32t-66 -25q-41 -8 -61 -45t-58 -124t-65 -112q-33 -61 -49 -100
q-20 -68 -20 -90q4 -14 4 -46t2 -46q16 -23 20 -23q65 0 213 37q125 10 211 -14q7 -4 19 -8t16 -7q76 -12 141 6q49 8 142 9q29 2 45 22t30 56t23 49q7 62 -12 138t-23 101q-12 41 -29 56h-14q-12 8 -20 30q-9 22 -19 30q-10 9 -59 37t-70 52q-6 4 -20 10t-23 11
q-43 8 -133 8zM141 815q0 43 -22 80q-8 25 -10 31t6 32t13 35q5 11 32 23t35 20q12 18 30 58q17 40 27 53q10 15 33 33t30 26q37 53 58 64v14q24 24 49 65q24 40 35 54q8 2 53 11t68 26l40 41q35 23 72 22q8 0 21 13h43q26 6 66 38t67 33h57q14 3 50 19t55 16q89 11 254 -6
l92 -14q35 -10 78 -58q11 -8 39 -18t34 -14t10 -12q4 -7 16 -16t85 -54t109 -81t59 -87q12 4 29 -6t28 -7q40 17 58 55t29 107t25 105q15 37 15 57q12 57 43 57q50 18 106 2t76 -65q18 -83 14 -105t-25 -36t-45 -6q-24 7 -64 4t-50 -35v-50q-16 -72 -26 -90
q-18 -68 -37 -233q0 -2 -8 -22t-13 -27q-6 -37 -1 -110t-2 -99t2 -51t10 -37l6 -174q0 -43 -8 -89q-7 -45 15 -139t21 -176l15 -37v-41q27 -92 26 -141q4 -35 28 -48q22 -13 34 -19t35 -13q23 -8 30 -12q68 -23 93 -107q6 -24 -10 -48t-40 -36q-6 2 -76 14t-94 44v12
q-6 20 -34 40t-39 40q-10 22 -34 92t-46 105q-26 26 -52 12q-27 -14 -63 -41q-55 -31 -70 -58q-12 -14 -48 -36t-44 -27q-66 -78 -147 -70q-51 -25 -153 -47t-128 -32q-24 -9 -34 -5t-24 15q-15 11 -55 4q-41 -8 -59 -3t-83 28t-99 26q-30 12 -64 29h-20q-39 10 -57 28
t-73 61t-64 57q-9 13 -11 16q-57 29 -78 49q-162 152 -254 311q-23 39 -92 246q-12 14 -9 68t0 80t4 75t7 92z" />
    <glyph glyph-name="Igrave" unicode="&#xcc;" horiz-adv-x="1792" 
d="M993 1735q-29 -23 -63 12q-4 4 -15 9t-18 26q-18 20 -18 26q-13 12 -49 56t-52 61q-16 16 -78 109q-6 6 -30 28q-69 63 -64 107q27 41 72 53t67 -4q8 -8 18 -34t28 -38q8 -14 16 -55q12 -14 20 -14q11 -29 23 -39t16 -28t18 -39q13 -21 11 -29q14 0 27 -24l16 -32
q0 -10 4 -16q30 -37 52 -79t-1 -56zM1509 1337q0 4 -20 2l-21 -2q-6 6 -26 6l-15 -6q-39 20 -73 7t-49 -103q-6 -16 -29 -55q-23 -38 -27 -60t0 -66t0 -65q-41 -164 -14 -239q-12 -18 -3 -64t5 -60t-8 -24t-9 -30t5 -76t9 -68t-12 -36t-10 -35q2 -11 17 -58q4 -45 0 -134
t0 -134q9 -41 23 -67t33 -78q19 -50 39 -72t28 -23q29 0 78 7q49 6 69 8t54 -4q35 -6 51 -3q16 5 43 15t41 12q113 -70 96 -158q-6 -36 -45 -64t-70 -20t-76 33t-69 31h-29q-68 23 -170 34t-164 -5q-20 -4 -68 4t-63 -4q-45 15 -100 21q-56 7 -64 -1q-90 -14 -149 12
q-53 -6 -175 -1t-175 1q-13 -13 -98 -20q-134 -12 -183 -62q-82 0 -109 29q-61 59 -30 132t63 106h29q15 -6 69 -40t89 -34q7 0 33 8t86 -2t83 -5q36 8 66 81q12 33 24 47q-12 35 3 95q14 60 12 83v47q15 35 -7 74t-22 54t14 24q41 39 41 102q20 35 15 47v56q6 18 8 58
t12 58q-27 115 -27 153t-6 72q-6 36 -2 56q29 21 3 85q-27 64 -23 93q20 50 15 64t-12 57q-13 78 -105 151q-27 20 -83 26t-75 15h-33q-18 7 -53 25l-49 25q-10 4 -70 -15q-33 -10 -57 17t-23 65q2 38 29 67q27 30 65 29q30 -15 84 -59q16 -12 45 -19t50 11q82 -16 204 -70
q8 -2 31 -10q77 -27 92 -10q14 8 41 8q96 -25 164 -14l29 6q57 -9 180 -11t188 -16q27 8 91 4t88 17q66 -14 88 -5t32 3t17 -7q20 8 61 8q40 0 56 6q16 5 33 18t28 18q45 6 86 -6t49 -44q22 -51 14 -108q-18 -63 -96 -47q-6 2 -23 11t-38 12t-144 3z" />
    <glyph glyph-name="Iacute" unicode="&#xcd;" horiz-adv-x="1792" 
d="M1229 2169q4 -40 -31 -75q-10 -11 -34 -33q-24 -21 -32 -31t-34 -50q-27 -40 -42 -56q-15 -15 -50 -59t-50 -57l-18 -26q-8 -23 -18 -27q-11 -4 -15 -8q-35 -35 -63 -12q-39 24 51 135q4 6 4 16q4 6 13 26t30 30q-2 8 9 26t13 22t7 21q4 17 15 27t24 39l20 14
q12 63 27 63q8 8 17 32t18 32q24 16 68 4t71 -53zM1509 1337q0 4 -20 2l-21 -2q-6 6 -26 6l-15 -6q-39 20 -73 7t-49 -103q-6 -16 -29 -55q-23 -38 -27 -60t0 -66t0 -65q-41 -164 -14 -239q-12 -18 -3 -64t5 -60t-8 -24t-9 -30t5 -76t9 -68t-12 -36t-10 -35q2 -11 17 -58
q4 -45 0 -134t0 -134q9 -41 23 -67t33 -78q19 -50 39 -72t28 -23q29 0 78 7q49 6 69 8t54 -4q35 -6 51 -3q16 5 43 15t41 12q113 -70 96 -158q-6 -36 -45 -64t-70 -20t-76 33t-69 31h-29q-68 23 -170 34t-164 -5q-20 -4 -68 4t-63 -4q-45 15 -100 21q-56 7 -64 -1
q-90 -14 -149 12q-53 -6 -175 -1t-175 1q-13 -13 -98 -20q-134 -12 -183 -62q-82 0 -109 29q-61 59 -30 132t63 106h29q15 -6 69 -40t89 -34q7 0 33 8t86 -2t83 -5q36 8 66 81q12 33 24 47q-12 35 3 95q14 60 12 83v47q15 35 -7 74t-22 54t14 24q41 39 41 102q20 35 15 47
v56q6 18 8 58t12 58q-27 115 -27 153t-6 72q-6 36 -2 56q29 21 3 85q-27 64 -23 93q20 50 15 64t-12 57q-13 78 -105 151q-27 20 -83 26t-75 15h-33q-18 7 -53 25l-49 25q-10 4 -70 -15q-33 -10 -57 17t-23 65q2 38 29 67q27 30 65 29q30 -15 84 -59q16 -12 45 -19t50 11
q82 -16 204 -70q8 -2 31 -10q77 -27 92 -10q14 8 41 8q96 -25 164 -14l29 6q57 -9 180 -11t188 -16q27 8 91 4t88 17q66 -14 88 -5t32 3t17 -7q20 8 61 8q40 0 56 6q16 5 33 18t28 18q45 6 86 -6t49 -44q22 -51 14 -108q-18 -63 -96 -47q-6 2 -23 11t-38 12t-144 3z" />
    <glyph glyph-name="Icircumflex" unicode="&#xce;" horiz-adv-x="1792" 
d="M916 2249q12 0 55 -29q8 -8 13 -28q4 -20 26 -42q22 -24 26 -43q18 -43 43 -63q7 -6 11 -22t11 -34t38 -49q4 -6 11 -21t11 -22q0 -10 4 -16q31 -37 53 -79t-1 -56q-29 -23 -64 12l-51 62q-14 12 -38 43t-54 62q-29 32 -33 37t-11 24t-26 35q-20 17 -27 26
q-51 -57 -83 -104q-32 -48 -35 -54q-17 -14 -35 -41t-33 -39l-18 -26q-7 -22 -18 -26q-11 -5 -15 -9q-35 -35 -64 -12q-39 27 45 123q14 23 15 34q4 6 9 18q10 25 30 32q-2 9 18 41q20 31 49 94q42 77 47 77q9 8 19 28t16 24q6 6 25 24t31 19zM1509 1337q0 4 -20 2l-21 -2
q-6 6 -26 6l-15 -6q-39 20 -73 7t-49 -103q-6 -16 -29 -55q-23 -38 -27 -60t0 -66t0 -65q-41 -164 -14 -239q-12 -18 -3 -64t5 -60t-8 -24t-9 -30t5 -76t9 -68t-12 -36t-10 -35q2 -11 17 -58q4 -45 0 -134t0 -134q9 -41 23 -67t33 -78q19 -50 39 -72t28 -23q29 0 78 7
q49 6 69 8t54 -4q35 -6 51 -3q16 5 43 15t41 12q113 -70 96 -158q-6 -36 -45 -64t-70 -20t-76 33t-69 31h-29q-68 23 -170 34t-164 -5q-20 -4 -68 4t-63 -4q-45 15 -100 21q-56 7 -64 -1q-90 -14 -149 12q-53 -6 -175 -1t-175 1q-13 -13 -98 -20q-134 -12 -183 -62
q-82 0 -109 29q-61 59 -30 132t63 106h29q15 -6 69 -40t89 -34q7 0 33 8t86 -2t83 -5q36 8 66 81q12 33 24 47q-12 35 3 95q14 60 12 83v47q15 35 -7 74t-22 54t14 24q41 39 41 102q20 35 15 47v56q6 18 8 58t12 58q-27 115 -27 153t-6 72q-6 36 -2 56q29 21 3 85
q-27 64 -23 93q20 50 15 64t-12 57q-13 78 -105 151q-27 20 -83 26t-75 15h-33q-18 7 -53 25l-49 25q-10 4 -70 -15q-33 -10 -57 17t-23 65q2 38 29 67q27 30 65 29q30 -15 84 -59q16 -12 45 -19t50 11q82 -16 204 -70q8 -2 31 -10q77 -27 92 -10q14 8 41 8q96 -25 164 -14
l29 6q57 -9 180 -11t188 -16q27 8 91 4t88 17q66 -14 88 -5t32 3t17 -7q20 8 61 8q40 0 56 6q16 5 33 18t28 18q45 6 86 -6t49 -44q22 -51 14 -108q-18 -63 -96 -47q-6 2 -23 11t-38 12t-144 3z" />
    <glyph glyph-name="Idieresis" unicode="&#xcf;" horiz-adv-x="1792" 
d="M827 1966q-23 -31 -75 -79t-66 -65t-27 -18h-22q-45 43 -80 92q-98 81 -86 117q4 12 12 15q76 53 127 118q41 45 72 31q40 -26 85 -76q43 -51 63 -73t-3 -62zM1325 1966q-23 -31 -75 -79t-67 -65t-26 -18h-22q-45 43 -80 92q-98 81 -86 117q4 12 12 15q76 53 127 118
q41 45 72 31q40 -26 85 -76q43 -51 63 -73t-3 -62zM1509 1337q0 4 -20 2l-21 -2q-6 6 -26 6l-15 -6q-39 20 -73 7t-49 -103q-6 -16 -29 -55q-23 -38 -27 -60t0 -66t0 -65q-41 -164 -14 -239q-12 -18 -3 -64t5 -60t-8 -24t-9 -30t5 -76t9 -68t-12 -36t-10 -35q2 -11 17 -58
q4 -45 0 -134t0 -134q9 -41 23 -67t33 -78q19 -50 39 -72t28 -23q29 0 78 7q49 6 69 8t54 -4q35 -6 51 -3q16 5 43 15t41 12q113 -70 96 -158q-6 -36 -45 -64t-70 -20t-76 33t-69 31h-29q-68 23 -170 34t-164 -5q-20 -4 -68 4t-63 -4q-45 15 -100 21q-56 7 -64 -1
q-90 -14 -149 12q-53 -6 -175 -1t-175 1q-13 -13 -98 -20q-134 -12 -183 -62q-82 0 -109 29q-61 59 -30 132t63 106h29q15 -6 69 -40t89 -34q7 0 33 8t86 -2t83 -5q36 8 66 81q12 33 24 47q-12 35 3 95q14 60 12 83v47q15 35 -7 74t-22 54t14 24q41 39 41 102q20 35 15 47
v56q6 18 8 58t12 58q-27 115 -27 153t-6 72q-6 36 -2 56q29 21 3 85q-27 64 -23 93q20 50 15 64t-12 57q-13 78 -105 151q-27 20 -83 26t-75 15h-33q-18 7 -53 25l-49 25q-10 4 -70 -15q-33 -10 -57 17t-23 65q2 38 29 67q27 30 65 29q30 -15 84 -59q16 -12 45 -19t50 11
q82 -16 204 -70q8 -2 31 -10q77 -27 92 -10q14 8 41 8q96 -25 164 -14l29 6q57 -9 180 -11t188 -16q27 8 91 4t88 17q66 -14 88 -5t32 3t17 -7q20 8 61 8q40 0 56 6q16 5 33 18t28 18q45 6 86 -6t49 -44q22 -51 14 -108q-18 -63 -96 -47q-6 2 -23 11t-38 12t-144 3z" />
    <glyph glyph-name="Eth" unicode="&#xd0;" horiz-adv-x="2703" 
d="M1567 -403l-35 -7q-35 6 -147 23t-158 31q-45 14 -168 65q-18 6 -107 30t-143 60q-78 7 -206 67t-165 73q-115 43 -166 -7q-47 -53 -22 -168q0 -16 -13 -27t-28 -7q-96 55 -119 118q-4 18 5 50t9 47q6 74 70 161q6 -8 14 -8l7 8q44 -34 105 -27q26 3 56 -1q78 -33 111 6
q20 39 33 88q12 49 16 59q23 78 -14 166q4 29 -8 45q-11 15 -11 17l-145 4q-47 -14 -102 12q-6 4 -34 15t-30 18q-4 24 7 48t38 26q18 10 56 7t55 -3l88 2l57 4q36 7 41 16q6 8 8 16t3 11q1 4 3 17t4 22q-2 51 -2 57l-14 41q0 91 -42 202q-10 30 -22 44t-25 33t-38 24
q-25 4 -85 -2q-143 -14 -214 57q-68 96 -27 175q4 8 28 20t28 29q12 18 55 35q25 0 55 -43q9 -20 9 -93t20 -96q23 -14 70 0q138 69 164 107q10 14 51 41q25 8 119 55q18 0 43 14q11 12 39 34t42 36h29q27 8 85 44t159 60q14 6 98 21q15 4 35 24q20 19 36 23t62 -4
q45 -8 68 -2q6 4 17 14t18 14h28l35 -14q25 0 125 -35q20 -6 70 -6q35 -20 49 -20q82 8 168 -64q6 -6 26 -6q44 -23 96 -48t93 -56t63 -43q37 -10 56 -50q14 0 23 -7t29 -31t38 -31q30 -19 60 -65t44 -60l21 -41q84 -94 98 -162q1 -25 23 -82t18 -92q-6 -12 -6 -47
q8 -27 9 -78t5 -70l-8 -26q-12 -20 -20 -56t-15 -49q-8 -45 -37 -131t-31 -95t-14 -26q-61 -20 -113 -107q-26 -42 -40 -60q-33 10 -70 -27q-14 -14 -14 -21q-6 -35 -64 -92q-10 -5 -41 -12q-4 -2 -36 -20q-31 -18 -109 -50q-78 -30 -88 -37t-38 -25t-42 -30
q-29 -12 -43 -12q-150 -39 -156 -41t-10 -9t-8 -7zM1200 471q-6 0 -26 -4q-31 6 -91 -8l-4 -4l-14 -21q-10 -14 -23 -33q-2 -23 2 -28v-2q2 -8 13 -33t8 -51q-10 -33 22 -125q2 -16 0 -62t7 -57q55 -150 76 -171q4 -5 14 -12t14 -12q0 -14 6 -20q53 -53 176 -104q6 0 28 3
t33 4q63 6 96 44q33 39 65 39q43 8 84 61q10 25 34 97t43 112q3 2 19 18t16 31q0 63 12 86t23 70q10 47 12 53q10 47 -12 113q-4 10 12 84q14 133 15 229q0 8 -10 22t-11 19q-8 6 -33 21t-37 34q-6 23 -6 70q12 57 27 84q-10 33 -39 134t-60 164q-58 116 -165 148
q-10 -4 -26 -14q-53 -34 -73 -14q-82 70 -145 43q-2 -2 -9 -3q-7 -2 -13 -10t-32 -21l-30 -15q-8 -10 -17 -35t-18 -35q-4 -10 -24 -53t-24 -63t-15 -44q0 -49 -6 -70q-35 -35 -35 -92q-4 0 -2 -30l2 -31q0 -2 -21 -43q0 -35 6 -47q4 -39 -5 -107t-3 -94t3 -32t-3 -17
q14 -41 56 -31q14 4 86 4l79 -4l66 -2q8 8 37 0q31 -16 30 -51t-34 -61t-70 -15l-8 -2l-66 -4h-12z" />
    <glyph glyph-name="Ntilde" unicode="&#xd1;" horiz-adv-x="2738" 
d="M1397 1876l-119 12l-76 4q-41 0 -64 -52l-12 -24t-6 -14q-5 -15 -11 -17q-6 -1 -24 3q-20 57 -17 81q2 23 14 53t71 153q20 36 60 36l73 -6q35 -2 68 -7t73 -7q52 -9 78 -8q25 2 62 -2t56 11t46 56q8 31 21 35q19 0 30 -16l6 -4q23 -41 -20 -129q-4 -6 -28 -62t-38 -73
q-14 -19 -31 -25t-59 -2q-53 0 -153 4zM2011 -115q1 -13 21 -31t53 -49q27 -18 77 -37t68 -30q23 0 122 -8t163 22q27 6 53 -5t21 -42q-10 -66 -101 -92q-137 -43 -311 0q-27 10 -93 51t-112 49q-12 3 -28 23t-19 22q-133 106 -139 207q-4 8 -20 32t-30 136q-13 112 17 209
q-14 29 -14 133q0 9 10 33t10 106q-18 98 -5 157t8 125t-3 89l-12 27q0 18 -14 80q-2 27 1 105t-8 104q-12 26 -24 56q-33 83 -88 107q-4 2 -10 12t-17 18q-11 9 -51 21q-40 11 -72 18t-149 -24q-113 -14 -119 -79q0 -18 -12 -52t-15 -47q-29 -17 -35 -41q-4 -24 -8 -34
t-4 -30v-61l-12 -26v-80q-4 -7 1 -25t5 -22q-20 -76 -20 -131l8 -27q-10 -8 -2 -50t8 -50q8 -72 -14 -152v-67q4 -39 1 -120t-2 -120t-7 -140t-5 -157q8 -33 54 -47l107 -8q17 0 62 -1t93 15q49 17 96 -15t30 -94t-83 -129h-33q-8 5 -10 15t-4 12q-61 51 -92 107
q-14 6 -27 6q-70 -25 -186 12h-66q-147 -12 -219 8q-30 3 -56 -5q-27 -7 -36 -9h-62q-59 4 -64 6t-63 -5t-78 -7t-32 6q-92 8 -207 -12q-27 -88 -72 -95q-31 23 -56 61q-26 39 -35 61t-30 77v41q16 39 80 27q20 -4 60 -48q18 -14 40 -14l87 14q57 17 66 21t17 7t9 5
q25 57 100 121q12 12 10 46t22 111t27 95v39q14 31 15 33v20q20 55 15 81t-8 42q-5 26 -5 51t7 42t2 46t-5 38t-41 198q-12 25 -12 33l-4 61q0 35 -6 53t-10 36q-28 98 -104 97l-83 -8q-18 0 -45 7t-38 4q-12 -3 -26 -10q-62 -30 -129 11q-38 26 -10 82q2 3 5 13t5 16t1 35
t5 35q25 29 58 38t43 -26q27 -119 86 -119q86 8 145 80q23 11 33 6q25 -25 49 -17t73 22q49 13 70 42q23 0 69 18q47 18 63 17q16 -2 36 -8t39 2t62 33q43 24 58 30t53 10t56 9q18 6 65 16q46 10 105 23t78 15q19 1 65 7q45 6 63 3t65 -3q8 -4 18 -4l41 4q34 -8 96 -32
t70 -27q16 16 72 -8q20 -6 66 -34t62 -30q18 -2 28 -12t26 -11q74 -5 128 -67q54 -63 69 -78q4 -2 14 -5q9 -3 19 -14t97 -108t136 -184q6 -18 38 -51t40 -43q14 -33 14 -105q0 -14 13 -26q51 -45 65 -107t7 -157q-7 -96 -5 -127l-14 -140q-6 -37 -45 -106q-23 -33 -35 -60
q-14 -23 -66 -47l-6 -14q-71 -53 -100 -64q-29 -10 -75 -15t-59 -7t-39 -9t-36 -10q-10 -4 -21 -8t-16 -6h-45q-41 -12 -41 -39z" />
    <glyph glyph-name="Ograve" unicode="&#xd2;" horiz-adv-x="2572" 
d="M1341 1755q-29 -23 -63 12q-4 4 -15 10t-18 25q-18 20 -18 27q-14 12 -49 56t-54 63t-75 106q-6 6 -30 28q-67 62 -65 107q27 41 72 53t68 -4q8 -8 18 -33t27 -38q8 -14 16 -56q12 -14 21 -14q12 -29 23 -39t15 -26t6 -20t14 -23q11 -18 9 -27q6 0 21 -12q4 -6 11 -22
t11 -21q0 -10 4 -17q30 -37 52 -79t-1 -56zM1493 -270q25 0 31 8t17 22t14 18t14 18q10 12 13 18t11 18l12 18q21 42 23 69t19 53q16 26 18 38v21q45 68 72 202q23 68 22 129q0 4 -14 37q-4 13 5 53t1 62q-2 20 8 68t6 69q-12 209 -49 316q-8 20 0 60t0 63q-47 121 -80 165
q-12 25 -51 76t-49 82q-24 8 -58 30q-34 23 -50 27t-48 14q-33 10 -53 17q-20 6 -63 6t-66 6q-51 27 -72 66v14q33 33 74 41t115 2t84 -6h65q63 -29 152 -28q76 -23 92 -31q25 -4 69 -35t56 -37t49 -6q27 -8 71 -36q45 -28 73 -40t128 -84q12 -7 22 -29t20 -31
q56 -45 84 -95t32 -57t21 -41t28 -48t19 -26t41 -97q4 -14 -3 -43t-4 -43t17 -40t18 -40l-2 -22q-2 -20 2 -21q12 -86 0 -172l-14 -28q0 -53 -14 -115q-4 -49 -19 -83q-54 -115 -67 -146t-21 -45t-26 -40t-25 -40q-72 -104 -152 -158q-31 -16 -93 -61q-62 -44 -88 -56
t-77 -33q-50 -21 -65 -36q-49 -8 -136 -34t-125 -36t-178 -20t-170 -7q-30 2 -56 12q-25 10 -77 14q-52 5 -66 10t-26 9t-16 7q-73 0 -108 20q-36 20 -44 25q-109 25 -186 63l-37 37q-135 86 -244 238q-16 8 -22 14q-27 45 -43 63l4 30q0 7 -4 15q-76 137 -84 172t-18 57
q-11 22 -13 30v28q-31 92 -6 129q0 19 -12 143t4 146q15 49 56 136t51 114t41 53q30 27 38 35q7 8 15 28t14 29l14 8q14 35 37 58q17 12 61 48q113 92 199 118q70 59 201 100q104 37 201 14q45 -23 28 -80q-8 -44 -45 -73q-12 -10 -37 -28t-33 -30t-24 -41q-14 -29 -27 -49
t-17 -68t-10 -64q-5 -16 -36 -78q-31 -61 -23 -115q-47 -72 -34 -152q0 -4 12 -37t8 -49q-41 -59 -43 -63q-4 -33 5 -87t9 -79q21 -21 17 -93q-4 -71 -3 -112t23 -98q3 -15 21 -51t21 -55t21 -40q19 -20 25 -31t28 -82t71 -108q8 -8 14 -23q35 -17 99 -37q63 -20 77 -25
t41 -6t43 -9h209z" />
    <glyph glyph-name="Oacute" unicode="&#xd3;" horiz-adv-x="2572" 
d="M1427 2198q4 -38 -30 -75q-10 -11 -34 -33t-32 -32t-35 -50t-42 -55t-50 -59t-49 -57l-18 -27q-7 -20 -18 -25t-15 -9q-35 -35 -61 -17q-44 31 49 139q4 6 4 17q4 6 11 21q16 34 32 34q-2 8 11 29t17 39q3 18 15 28t24 39l21 15q12 63 26 63q8 8 18 32q9 24 17 32
q24 16 68 4t71 -53zM1493 -270q25 0 31 8t17 22t14 18t14 18q10 12 13 18t11 18l12 18q21 42 23 69t19 53q16 26 18 38v21q45 68 72 202q23 68 22 129q0 4 -14 37q-4 13 5 53t1 62q-2 20 8 68t6 69q-12 209 -49 316q-8 20 0 60t0 63q-47 121 -80 165q-12 25 -51 76t-49 82
q-24 8 -58 30q-34 23 -50 27t-48 14q-33 10 -53 17q-20 6 -63 6t-66 6q-51 27 -72 66v14q33 33 74 41t115 2t84 -6h65q63 -29 152 -28q76 -23 92 -31q25 -4 69 -35t56 -37t49 -6q27 -8 71 -36q45 -28 73 -40t128 -84q12 -7 22 -29t20 -31q56 -45 84 -95t32 -57t21 -41
t28 -48t19 -26t41 -97q4 -14 -3 -43t-4 -43t17 -40t18 -40l-2 -22q-2 -20 2 -21q12 -86 0 -172l-14 -28q0 -53 -14 -115q-4 -49 -19 -83q-54 -115 -67 -146t-21 -45t-26 -40t-25 -40q-72 -104 -152 -158q-31 -16 -93 -61q-62 -44 -88 -56t-77 -33q-50 -21 -65 -36
q-49 -8 -136 -34t-125 -36t-178 -20t-170 -7q-30 2 -56 12q-25 10 -77 14q-52 5 -66 10t-26 9t-16 7q-73 0 -108 20q-36 20 -44 25q-109 25 -186 63l-37 37q-135 86 -244 238q-16 8 -22 14q-27 45 -43 63l4 30q0 7 -4 15q-76 137 -84 172t-18 57q-11 22 -13 30v28
q-31 92 -6 129q0 19 -12 143t4 146q15 49 56 136t51 114t41 53q30 27 38 35q7 8 15 28t14 29l14 8q14 35 37 58q17 12 61 48q113 92 199 118q70 59 201 100q104 37 201 14q45 -23 28 -80q-8 -44 -45 -73q-12 -10 -37 -28t-33 -30t-24 -41q-14 -29 -27 -49t-17 -68t-10 -64
q-5 -16 -36 -78q-31 -61 -23 -115q-47 -72 -34 -152q0 -4 12 -37t8 -49q-41 -59 -43 -63q-4 -33 5 -87t9 -79q21 -21 17 -93q-4 -71 -3 -112t23 -98q3 -15 21 -51t21 -55t21 -40q19 -20 25 -31t28 -82t71 -108q8 -8 14 -23q35 -17 99 -37q63 -20 77 -25t41 -6t43 -9h209z
" />
    <glyph glyph-name="Ocircumflex" unicode="&#xd4;" horiz-adv-x="2572" 
d="M1225 2263q12 0 55 -29q8 -8 13 -27t27 -43t33 -54t27 -44t19 -30q4 -16 11 -34t38 -48q4 -6 11 -22t11 -21q0 -10 18 -32q18 -21 40 -63t-5 -61q-26 -19 -61 17l-51 61q-14 12 -53 61t-57 66t-25 36q-7 20 -27 38t-26 26q-53 -59 -84 -105q-32 -46 -35 -52
q-16 -14 -34 -41t-34 -39l-18 -27q-7 -20 -18 -26q-11 -5 -15 -9q-35 -35 -63 -12q-39 27 45 123q14 20 14 35q4 6 9 18q13 31 30 31q-2 9 18 41q20 31 49 94q29 53 36 65t12 13q8 8 18 27q10 18 16 24t25 24t31 19zM1493 -270q25 0 31 8t17 22t14 18t14 18q10 12 13 18
t11 18l12 18q21 42 23 69t19 53q16 26 18 38v21q45 68 72 202q23 68 22 129q0 4 -14 37q-4 13 5 53t1 62q-2 20 8 68t6 69q-12 209 -49 316q-8 20 0 60t0 63q-47 121 -80 165q-12 25 -51 76t-49 82q-24 8 -58 30q-34 23 -50 27t-48 14q-33 10 -53 17q-20 6 -63 6t-66 6
q-51 27 -72 66v14q33 33 74 41t115 2t84 -6h65q63 -29 152 -28q76 -23 92 -31q25 -4 69 -35t56 -37t49 -6q27 -8 71 -36q45 -28 73 -40t128 -84q12 -7 22 -29t20 -31q56 -45 84 -95t32 -57t21 -41t28 -48t19 -26t41 -97q4 -14 -3 -43t-4 -43t17 -40t18 -40l-2 -22
q-2 -20 2 -21q12 -86 0 -172l-14 -28q0 -53 -14 -115q-4 -49 -19 -83q-54 -115 -67 -146t-21 -45t-26 -40t-25 -40q-72 -104 -152 -158q-31 -16 -93 -61q-62 -44 -88 -56t-77 -33q-50 -21 -65 -36q-49 -8 -136 -34t-125 -36t-178 -20t-170 -7q-30 2 -56 12q-25 10 -77 14
q-52 5 -66 10t-26 9t-16 7q-73 0 -108 20q-36 20 -44 25q-109 25 -186 63l-37 37q-135 86 -244 238q-16 8 -22 14q-27 45 -43 63l4 30q0 7 -4 15q-76 137 -84 172t-18 57q-11 22 -13 30v28q-31 92 -6 129q0 19 -12 143t4 146q15 49 56 136t51 114t41 53q30 27 38 35
q7 8 15 28t14 29l14 8q14 35 37 58q17 12 61 48q113 92 199 118q70 59 201 100q104 37 201 14q45 -23 28 -80q-8 -44 -45 -73q-12 -10 -37 -28t-33 -30t-24 -41q-14 -29 -27 -49t-17 -68t-10 -64q-5 -16 -36 -78q-31 -61 -23 -115q-47 -72 -34 -152q0 -4 12 -37t8 -49
q-41 -59 -43 -63q-4 -33 5 -87t9 -79q21 -21 17 -93q-4 -71 -3 -112t23 -98q3 -15 21 -51t21 -55t21 -40q19 -20 25 -31t28 -82t71 -108q8 -8 14 -23q35 -17 99 -37q63 -20 77 -25t41 -6t43 -9h209z" />
    <glyph glyph-name="Otilde" unicode="&#xd5;" horiz-adv-x="2572" 
d="M1204 1868l-119 12l-75 4q-46 0 -74 -70q-14 -36 -20 -37t-23 3q-20 57 -17 81q3 23 15 53t70 152q21 37 60 37l73 -6q36 -2 68 -7t73 -7q52 -9 77 -8q25 2 62 -2t57 11q19 15 46 56q8 31 20 35q18 0 31 -16l6 -5q23 -41 -21 -129q-3 -6 -27 -61q-24 -56 -38 -74t-32 -24
t-58 -2q-53 0 -154 4zM1493 -270q25 0 31 8t17 22t14 18t14 18q10 12 13 18t11 18l12 18q21 42 23 69t19 53q16 26 18 38v21q45 68 72 202q23 68 22 129q0 4 -14 37q-4 13 5 53t1 62q-2 20 8 68t6 69q-12 209 -49 316q-8 20 0 60t0 63q-47 121 -80 165q-12 25 -51 76t-49 82
q-24 8 -58 30q-34 23 -50 27t-48 14q-33 10 -53 17q-20 6 -63 6t-66 6q-51 27 -72 66v14q33 33 74 41t115 2t84 -6h65q63 -29 152 -28q76 -23 92 -31q25 -4 69 -35t56 -37t49 -6q27 -8 71 -36q45 -28 73 -40t128 -84q12 -7 22 -29t20 -31q56 -45 84 -95t32 -57t21 -41
t28 -48t19 -26t41 -97q4 -14 -3 -43t-4 -43t17 -40t18 -40l-2 -22q-2 -20 2 -21q12 -86 0 -172l-14 -28q0 -53 -14 -115q-4 -49 -19 -83q-54 -115 -67 -146t-21 -45t-26 -40t-25 -40q-72 -104 -152 -158q-31 -16 -93 -61q-62 -44 -88 -56t-77 -33q-50 -21 -65 -36
q-49 -8 -136 -34t-125 -36t-178 -20t-170 -7q-30 2 -56 12q-25 10 -77 14q-52 5 -66 10t-26 9t-16 7q-73 0 -108 20q-36 20 -44 25q-109 25 -186 63l-37 37q-135 86 -244 238q-16 8 -22 14q-27 45 -43 63l4 30q0 7 -4 15q-76 137 -84 172t-18 57q-11 22 -13 30v28
q-31 92 -6 129q0 19 -12 143t4 146q15 49 56 136t51 114t41 53q30 27 38 35q7 8 15 28t14 29l14 8q14 35 37 58q17 12 61 48q113 92 199 118q70 59 201 100q104 37 201 14q45 -23 28 -80q-8 -44 -45 -73q-12 -10 -37 -28t-33 -30t-24 -41q-14 -29 -27 -49t-17 -68t-10 -64
q-5 -16 -36 -78q-31 -61 -23 -115q-47 -72 -34 -152q0 -4 12 -37t8 -49q-41 -59 -43 -63q-4 -33 5 -87t9 -79q21 -21 17 -93q-4 -71 -3 -112t23 -98q3 -15 21 -51t21 -55t21 -40q19 -20 25 -31t28 -82t71 -108q8 -8 14 -23q35 -17 99 -37q63 -20 77 -25t41 -6t43 -9h209z
" />
    <glyph glyph-name="Odieresis" unicode="&#xd6;" horiz-adv-x="2572" 
d="M1165 1966q-23 -31 -75 -79t-66 -65q-16 -17 -27 -18h-22q-45 43 -80 92q-98 81 -86 117q4 12 12 15q76 53 127 118q41 45 72 31q40 -26 85 -76q43 -51 63 -73t-3 -62zM1663 1966q-23 -31 -75 -79t-66 -65t-27 -18h-22q-45 43 -80 92q-98 81 -86 117q4 12 12 15
q76 53 127 118q41 45 72 31q40 -26 85 -76q43 -51 63 -73t-3 -62zM1493 -270q25 0 31 8t17 22t14 18t14 18q10 12 13 18t11 18l12 18q21 42 23 69t19 53q16 26 18 38v21q45 68 72 202q23 68 22 129q0 4 -14 37q-4 13 5 53t1 62q-2 20 8 68t6 69q-12 209 -49 316q-8 20 0 60
t0 63q-47 121 -80 165q-12 25 -51 76t-49 82q-24 8 -58 30q-34 23 -50 27t-48 14q-33 10 -53 17q-20 6 -63 6t-66 6q-51 27 -72 66v14q33 33 74 41t115 2t84 -6h65q63 -29 152 -28q76 -23 92 -31q25 -4 69 -35t56 -37t49 -6q27 -8 71 -36q45 -28 73 -40t128 -84
q12 -7 22 -29t20 -31q56 -45 84 -95t32 -57t21 -41t28 -48t19 -26t41 -97q4 -14 -3 -43t-4 -43t17 -40t18 -40l-2 -22q-2 -20 2 -21q12 -86 0 -172l-14 -28q0 -53 -14 -115q-4 -49 -19 -83q-54 -115 -67 -146t-21 -45t-26 -40t-25 -40q-72 -104 -152 -158q-31 -16 -93 -61
q-62 -44 -88 -56t-77 -33q-50 -21 -65 -36q-49 -8 -136 -34t-125 -36t-178 -20t-170 -7q-30 2 -56 12q-25 10 -77 14q-52 5 -66 10t-26 9t-16 7q-73 0 -108 20q-36 20 -44 25q-109 25 -186 63l-37 37q-135 86 -244 238q-16 8 -22 14q-27 45 -43 63l4 30q0 7 -4 15
q-76 137 -84 172t-18 57q-11 22 -13 30v28q-31 92 -6 129q0 19 -12 143t4 146q15 49 56 136t51 114t41 53q30 27 38 35q7 8 15 28t14 29l14 8q14 35 37 58q17 12 61 48q113 92 199 118q70 59 201 100q104 37 201 14q45 -23 28 -80q-8 -44 -45 -73q-12 -10 -37 -28t-33 -30
t-24 -41q-14 -29 -27 -49t-17 -68t-10 -64q-5 -16 -36 -78q-31 -61 -23 -115q-47 -72 -34 -152q0 -4 12 -37t8 -49q-41 -59 -43 -63q-4 -33 5 -87t9 -79q21 -21 17 -93q-4 -71 -3 -112t23 -98q3 -15 21 -51t21 -55t21 -40q19 -20 25 -31t28 -82t71 -108q8 -8 14 -23
q35 -17 99 -37q63 -20 77 -25t41 -6t43 -9h209z" />
    <glyph glyph-name="Oslash" unicode="&#xd8;" horiz-adv-x="2572" 
d="M1493 -270q25 0 31 8t17 22t14 18t14 18q10 12 13 18t11 18l12 18q21 42 23 69t19 53q16 26 18 38v21q45 68 72 202q23 68 22 129q0 4 -14 37q-4 13 5 53t1 62q-2 20 8 68t6 69q-8 152 -28 242q-74 -51 -333 -254q-258 -203 -314 -245t-73 -44t-63 -36t-137 -101
q6 -12 7 -22q2 -9 20 -45t21 -55t21 -40q19 -20 25 -31t28 -82t71 -108q8 -8 14 -23q35 -17 99 -37q63 -20 77 -25t41 -6t43 -9h209zM1296 760q0 -2 140 96t139 94q63 45 145 105q0 23 -4 35q-47 121 -80 165q-12 25 -51 76t-49 82q-24 8 -58 30q-34 23 -50 27t-48 14
q-33 10 -53 17q-20 6 -63 6t-66 6q-51 27 -72 66v14q33 33 74 41t115 2t84 -6h65q63 -29 152 -28q76 -23 92 -31q25 -4 69 -35t56 -37t49 -6q27 -8 71 -36q45 -28 75 -41t100 -62q98 72 121 96l18 14q12 14 38 30t34 26q6 18 31 18q37 6 55 -22t6 -68q-12 -41 -47 -55
q0 -2 -43 -34t-45 -36q-19 -5 -82 -66l30 -30q22 -24 41 -58q19 -35 25 -45t22 -44t29 -48q11 -14 19 -26t41 -97q4 -14 -3 -43t-4 -43t17 -40t18 -40l-2 -22q-2 -20 2 -21q12 -86 0 -172l-14 -28q0 -53 -14 -115q-4 -49 -19 -83q-54 -115 -67 -146t-21 -45t-26 -40t-25 -40
q-72 -104 -152 -158q-31 -16 -93 -61q-62 -44 -88 -56t-77 -33q-50 -21 -65 -36q-49 -8 -136 -34t-125 -36t-178 -20t-170 -7q-30 2 -56 12q-25 10 -77 14q-52 5 -66 10t-26 9t-16 7q-73 0 -108 20q-36 20 -44 25q-109 25 -186 63l-37 37q-86 53 -153 127l-162 -117
q-4 -4 -8 -9q-37 -47 -105 -58q-6 0 -35 -8t-34 -3q-16 16 -22 41t15 50q28 25 49 35q21 9 44 26l59 43q6 8 119 94q0 2 -11 17q-16 8 -22 14q-27 45 -43 63l4 30q0 7 -4 15q-76 137 -84 172t-18 57q-11 22 -13 30v28q-31 92 -6 129q0 19 -12 143t4 146q15 49 56 136t51 114
t41 53q30 27 38 35q7 8 15 28t14 29l14 8q14 35 37 58q17 12 61 48q113 92 199 118q70 59 201 100q104 37 201 14q45 -23 28 -80q-8 -44 -45 -73q-12 -10 -37 -28t-33 -30t-24 -41q-14 -29 -27 -49t-17 -68t-10 -64q-5 -16 -36 -78q-31 -61 -23 -115q-47 -72 -34 -152
q0 -4 12 -37t8 -49q-41 -59 -43 -63q-4 -33 5 -87t9 -79l15 -37v-101q91 72 190 143t204 157q105 87 105 92q-4 2 -4 6z" />
    <glyph glyph-name="Ugrave" unicode="&#xd9;" horiz-adv-x="2564" 
d="M1432 1755q-29 -23 -64 12q-4 4 -14 9t-19 26q-18 20 -18 27q-14 12 -49 56q-35 43 -50 59t-42 56q-36 54 -67 82q-67 62 -65 107q27 41 72 53t68 -4q8 -8 17 -32t28 -39q8 -14 16 -56q12 -14 21 -14q12 -29 23 -39t15 -26t7 -20q2 -4 13 -23q11 -18 9 -27q6 0 21 -12
q4 -6 11 -22t11 -21q0 -10 4 -17q31 -37 53 -79t-1 -56zM1700 1404q0 9 -14 19l-7 15q-18 4 -55 1q-36 -3 -60 2t-78 -7t-79 -11l-27 15q-14 0 -78 8t-79 -2q-53 -8 -103 -68q-6 -6 -20 -6q-69 -62 -118 -161q-48 -99 -58 -119v-54l-21 -49l-6 -74l-14 -41q-1 -4 -11 -62
t-9 -76t5 -41q10 -55 0 -93q-27 -96 -2 -193t69 -193t59 -165t44 -117q68 -68 117 -82h21q27 -23 47 -12q10 2 47 20t51 15q14 -2 31 -23q27 -12 75 0q13 6 49 24t58 24q22 7 44 39q24 31 32 41t63 139q37 94 27 217q33 64 25 163q-3 38 1 83q16 66 0 96q-23 84 -12 149
q0 11 -12 25t-16 22q-27 181 6 303q16 62 7 101q-9 38 -4 78t5 50zM2251 1118q0 -14 -5 -57q-9 -78 13 -100q0 -16 3 -92t-9 -109t-8 -81q5 -49 -3 -67t0 -34t9 -25q-7 -22 -2 -126q5 -103 23 -147q16 -43 20 -54t14 -24t14 -24q37 -121 74 -164v-34q-2 -6 -13 -20t-7 -28
q39 -53 137 -82q25 -43 100 -122q41 -66 35 -109q-4 -23 -29 -27t-42 8t-61 46q-44 35 -85 49q-14 6 -41 33q-57 98 -102 131v18q-29 45 -65 147t-73 154q-4 4 -17 0t-24 -14q0 -14 -9 -24t-34 -31q-26 -21 -32 -29t-18 -38t-27 -42q-61 -47 -91 -74q-12 -29 -26 -35
q-82 -51 -184 -176q-6 -6 -26 5q-20 10 -36 8t-50 -16t-52 -17q-28 0 -183 -29q-55 0 -245 15q-12 0 -62 34h-35q-139 70 -155 82q-53 4 -99 30t-76 44t-47 21t-24 6q-38 76 -74 116q-72 -8 -123 82q-4 6 -17 16t-20 23q-7 12 -100 137q-27 35 -26 117q-4 14 -35 53v29
q-68 170 -47 264q2 12 3 70t23 94q4 16 25 41q20 25 25 34t27 33t34 50q37 47 74 67q14 10 50 37t58 39q12 12 32 43q19 31 38 45q72 51 155 41q31 18 179 68q20 6 33 22t-1 39q-133 29 -284 6q-33 -2 -123 3t-116 -2t-62 -7l-21 6q-106 -33 -205 21q-30 23 -24 67t32 70
q37 22 77 12t67 -47q14 -14 34 -15t112 -3q91 -2 167 -17q27 8 68 6t69 4q28 5 142 19q6 0 47 -20q39 -8 105 2t85 10h56q25 14 48 14t167 -8t241 23q74 -33 103 -21q20 2 57 -7t57 -7l27 14h33q15 0 57 -14q33 -6 99 0t101 1q36 -5 146 13q33 2 103 -1t102 1q12 3 26 19
t24 22q11 6 73 6q80 -29 94 -76q23 -53 -6 -59q-29 -10 -86 -4t-84 -4q-72 -33 -88 -33q-35 -10 -82 12q-33 12 -63 -3t-25 -44l-14 -143q0 -12 6 -27v-129z" />
    <glyph glyph-name="Uacute" unicode="&#xda;" horiz-adv-x="2564" 
d="M1688 2189q4 -39 -31 -74q-10 -11 -34 -33t-32 -32t-35 -50t-40 -56q-16 -14 -52 -58t-49 -57l-18 -27q-7 -21 -18 -26q-11 -4 -15 -9q-35 -35 -64 -12q-23 14 -1 56t53 79q4 6 4 17q4 6 11 21q16 34 32 34q-2 8 11 29t17 39q3 18 15 28t24 39l21 14q12 64 26 64
q8 8 18 32q9 24 17 31q23 16 54 9q59 -17 86 -58zM1700 1404q0 9 -14 19l-7 15q-18 4 -55 1q-36 -3 -60 2t-78 -7t-79 -11l-27 15q-14 0 -78 8t-79 -2q-53 -8 -103 -68q-6 -6 -20 -6q-69 -62 -118 -161q-48 -99 -58 -119v-54l-21 -49l-6 -74l-14 -41q-1 -4 -11 -62t-9 -76
t5 -41q10 -55 0 -93q-27 -96 -2 -193t69 -193t59 -165t44 -117q68 -68 117 -82h21q27 -23 47 -12q10 2 47 20t51 15q14 -2 31 -23q27 -12 75 0q13 6 49 24t58 24q22 7 44 39q24 31 32 41t63 139q37 94 27 217q33 64 25 163q-3 38 1 83q16 66 0 96q-23 84 -12 149
q0 11 -12 25t-16 22q-27 181 6 303q16 62 7 101q-9 38 -4 78t5 50zM2251 1118q0 -14 -5 -57q-9 -78 13 -100q0 -16 3 -92t-9 -109t-8 -81q5 -49 -3 -67t0 -34t9 -25q-7 -22 -2 -126q5 -103 23 -147q16 -43 20 -54t14 -24t14 -24q37 -121 74 -164v-34q-2 -6 -13 -20t-7 -28
q39 -53 137 -82q25 -43 100 -122q41 -66 35 -109q-4 -23 -29 -27t-42 8t-61 46q-44 35 -85 49q-14 6 -41 33q-57 98 -102 131v18q-29 45 -65 147t-73 154q-4 4 -17 0t-24 -14q0 -14 -9 -24t-34 -31q-26 -21 -32 -29t-18 -38t-27 -42q-61 -47 -91 -74q-12 -29 -26 -35
q-82 -51 -184 -176q-6 -6 -26 5q-20 10 -36 8t-50 -16t-52 -17q-28 0 -183 -29q-55 0 -245 15q-12 0 -62 34h-35q-139 70 -155 82q-53 4 -99 30t-76 44t-47 21t-24 6q-38 76 -74 116q-72 -8 -123 82q-4 6 -17 16t-20 23q-7 12 -100 137q-27 35 -26 117q-4 14 -35 53v29
q-68 170 -47 264q2 12 3 70t23 94q4 16 25 41q20 25 25 34t27 33t34 50q37 47 74 67q14 10 50 37t58 39q12 12 32 43q19 31 38 45q72 51 155 41q31 18 179 68q20 6 33 22t-1 39q-133 29 -284 6q-33 -2 -123 3t-116 -2t-62 -7l-21 6q-106 -33 -205 21q-30 23 -24 67t32 70
q37 22 77 12t67 -47q14 -14 34 -15t112 -3q91 -2 167 -17q27 8 68 6t69 4q28 5 142 19q6 0 47 -20q39 -8 105 2t85 10h56q25 14 48 14t167 -8t241 23q74 -33 103 -21q20 2 57 -7t57 -7l27 14h33q15 0 57 -14q33 -6 99 0t101 1q36 -5 146 13q33 2 103 -1t102 1q12 3 26 19
t24 22q11 6 73 6q80 -29 94 -76q23 -53 -6 -59q-29 -10 -86 -4t-84 -4q-72 -33 -88 -33q-35 -10 -82 12q-33 12 -63 -3t-25 -44l-14 -143q0 -12 6 -27v-129z" />
    <glyph glyph-name="Ucircumflex" unicode="&#xdb;" horiz-adv-x="2564" 
d="M1386 2269q12 0 56 -28q8 -7 13 -27t27 -44t32 -54t26 -44t20 -30t12 -34q7 -18 38 -48q4 -6 11 -22t11 -21q0 -10 4 -16q92 -110 52 -136q-29 -23 -64 13l-51 61q-14 12 -53 61t-57 66t-25 36q-7 20 -27 38t-27 26q-53 -60 -84 -105q-31 -46 -34 -52q-16 -14 -34 -41
t-34 -39l-18 -27q-7 -21 -18 -25q-11 -5 -15 -10q-35 -35 -64 -12q-39 27 45 123q14 20 15 35q4 6 11 22q11 27 28 27q-3 11 18 41q20 31 49 94q43 78 49 82q6 3 16 23t17 25t25 23t30 19zM1700 1404q0 9 -14 19l-7 15q-18 4 -55 1q-36 -3 -60 2t-78 -7t-79 -11l-27 15
q-14 0 -78 8t-79 -2q-53 -8 -103 -68q-6 -6 -20 -6q-69 -62 -118 -161q-48 -99 -58 -119v-54l-21 -49l-6 -74l-14 -41q-1 -4 -11 -62t-9 -76t5 -41q10 -55 0 -93q-27 -96 -2 -193t69 -193t59 -165t44 -117q68 -68 117 -82h21q27 -23 47 -12q10 2 47 20t51 15q14 -2 31 -23
q27 -12 75 0q13 6 49 24t58 24q22 7 44 39q24 31 32 41t63 139q37 94 27 217q33 64 25 163q-3 38 1 83q16 66 0 96q-23 84 -12 149q0 11 -12 25t-16 22q-27 181 6 303q16 62 7 101q-9 38 -4 78t5 50zM2251 1118q0 -14 -5 -57q-9 -78 13 -100q0 -16 3 -92t-9 -109t-8 -81
q5 -49 -3 -67t0 -34t9 -25q-7 -22 -2 -126q5 -103 23 -147q16 -43 20 -54t14 -24t14 -24q37 -121 74 -164v-34q-2 -6 -13 -20t-7 -28q39 -53 137 -82q25 -43 100 -122q41 -66 35 -109q-4 -23 -29 -27t-42 8t-61 46q-44 35 -85 49q-14 6 -41 33q-57 98 -102 131v18
q-29 45 -65 147t-73 154q-4 4 -17 0t-24 -14q0 -14 -9 -24t-34 -31q-26 -21 -32 -29t-18 -38t-27 -42q-61 -47 -91 -74q-12 -29 -26 -35q-82 -51 -184 -176q-6 -6 -26 5q-20 10 -36 8t-50 -16t-52 -17q-28 0 -183 -29q-55 0 -245 15q-12 0 -62 34h-35q-139 70 -155 82
q-53 4 -99 30t-76 44t-47 21t-24 6q-38 76 -74 116q-72 -8 -123 82q-4 6 -17 16t-20 23q-7 12 -100 137q-27 35 -26 117q-4 14 -35 53v29q-68 170 -47 264q2 12 3 70t23 94q4 16 25 41q20 25 25 34t27 33t34 50q37 47 74 67q14 10 50 37t58 39q12 12 32 43q19 31 38 45
q72 51 155 41q31 18 179 68q20 6 33 22t-1 39q-133 29 -284 6q-33 -2 -123 3t-116 -2t-62 -7l-21 6q-106 -33 -205 21q-30 23 -24 67t32 70q37 22 77 12t67 -47q14 -14 34 -15t112 -3q91 -2 167 -17q27 8 68 6t69 4q28 5 142 19q6 0 47 -20q39 -8 105 2t85 10h56
q25 14 48 14t167 -8t241 23q74 -33 103 -21q20 2 57 -7t57 -7l27 14h33q15 0 57 -14q33 -6 99 0t101 1q36 -5 146 13q33 2 103 -1t102 1q12 3 26 19t24 22q11 6 73 6q80 -29 94 -76q23 -53 -6 -59q-29 -10 -86 -4t-84 -4q-72 -33 -88 -33q-35 -10 -82 12q-33 12 -63 -3
t-25 -44l-14 -143q0 -12 6 -27v-129z" />
    <glyph glyph-name="Udieresis" unicode="&#xdc;" horiz-adv-x="2564" 
d="M1133 1796h-23q-45 43 -80 92q-98 81 -86 117q4 12 12 14q76 53 127 119q41 45 72 31q40 -26 85 -76q44 -51 64 -73t-4 -62q-22 -31 -74 -79q-52 -47 -68 -65t-25 -18zM1630 1796h-22q-45 43 -80 92q-98 81 -86 117q4 12 12 14q76 53 127 119q41 45 72 31q40 -26 85 -76
q44 -51 64 -73t-4 -62q-23 -31 -75 -79q-52 -47 -67 -65t-26 -18zM1700 1404q0 9 -14 19l-7 15q-18 4 -55 1q-36 -3 -60 2t-78 -7t-79 -11l-27 15q-14 0 -78 8t-79 -2q-53 -8 -103 -68q-6 -6 -20 -6q-69 -62 -118 -161q-48 -99 -58 -119v-54l-21 -49l-6 -74l-14 -41
q-1 -4 -11 -62t-9 -76t5 -41q10 -55 0 -93q-27 -96 -2 -193t69 -193t59 -165t44 -117q68 -68 117 -82h21q27 -23 47 -12q10 2 47 20t51 15q14 -2 31 -23q27 -12 75 0q13 6 49 24t58 24q22 7 44 39q24 31 32 41t63 139q37 94 27 217q33 64 25 163q-3 38 1 83q16 66 0 96
q-23 84 -12 149q0 11 -12 25t-16 22q-27 181 6 303q16 62 7 101q-9 38 -4 78t5 50zM2251 1118q0 -14 -5 -57q-9 -78 13 -100q0 -16 3 -92t-9 -109t-8 -81q5 -49 -3 -67t0 -34t9 -25q-7 -22 -2 -126q5 -103 23 -147q16 -43 20 -54t14 -24t14 -24q37 -121 74 -164v-34
q-2 -6 -13 -20t-7 -28q39 -53 137 -82q25 -43 100 -122q41 -66 35 -109q-4 -23 -29 -27t-42 8t-61 46q-44 35 -85 49q-14 6 -41 33q-57 98 -102 131v18q-29 45 -65 147t-73 154q-4 4 -17 0t-24 -14q0 -14 -9 -24t-34 -31q-26 -21 -32 -29t-18 -38t-27 -42q-61 -47 -91 -74
q-12 -29 -26 -35q-82 -51 -184 -176q-6 -6 -26 5q-20 10 -36 8t-50 -16t-52 -17q-28 0 -183 -29q-55 0 -245 15q-12 0 -62 34h-35q-139 70 -155 82q-53 4 -99 30t-76 44t-47 21t-24 6q-38 76 -74 116q-72 -8 -123 82q-4 6 -17 16t-20 23q-7 12 -100 137q-27 35 -26 117
q-4 14 -35 53v29q-68 170 -47 264q2 12 3 70t23 94q4 16 25 41q20 25 25 34t27 33t34 50q37 47 74 67q14 10 50 37t58 39q12 12 32 43q19 31 38 45q72 51 155 41q31 18 179 68q20 6 33 22t-1 39q-133 29 -284 6q-33 -2 -123 3t-116 -2t-62 -7l-21 6q-106 -33 -205 21
q-30 23 -24 67t32 70q37 22 77 12t67 -47q14 -14 34 -15t112 -3q91 -2 167 -17q27 8 68 6t69 4q28 5 142 19q6 0 47 -20q39 -8 105 2t85 10h56q25 14 48 14t167 -8t241 23q74 -33 103 -21q20 2 57 -7t57 -7l27 14h33q15 0 57 -14q33 -6 99 0t101 1q36 -5 146 13q33 2 103 -1
t102 1q12 3 26 19t24 22q11 6 73 6q80 -29 94 -76q23 -53 -6 -59q-29 -10 -86 -4t-84 -4q-72 -33 -88 -33q-35 -10 -82 12q-33 12 -63 -3t-25 -44l-14 -143q0 -12 6 -27v-129z" />
    <glyph glyph-name="Yacute" unicode="&#xdd;" horiz-adv-x="2252" 
d="M1393 2169q4 -37 -26 -70t-69 -65q-10 -14 -36 -54t-42 -56q-14 -15 -50 -59t-50 -57l-18 -26q-8 -23 -18 -27q-11 -4 -15 -8q-35 -35 -63 -12q-39 24 51 135q4 6 4 16q4 6 13 25q9 20 30 31q-2 8 10 28t18 38q5 20 16 30t23 39l21 14q12 63 27 63q8 8 17 32t17 32
q23 16 68 4t72 -53zM756 236q0 29 14 71q16 13 61 71t89 66q170 18 303 115q82 57 108 127q8 35 14 118q5 83 21 126v20q-47 63 6 156q0 18 -13 68t-8 86q5 35 42 55q6 21 8 63t3 53t-7 19t-19 8q0 -6 -141 -4l-141 4q-6 0 -20 8t-40 0q-24 -8 -68 -11t-112 0t-86 3l-27 6
q-35 -12 -109 -3t-94 5t-38 -5t-29 -17q-41 -63 21 -121q6 -8 32 -8q44 -19 60 -23t69 -17t111 -25t86 -29q19 -19 68 -47q33 -30 62 -86t38 -70q27 -174 -109 -379q-6 -6 -23 -16t-24 -17q-12 -18 -48 -52t-46 -56q-106 -63 -188 -150q-18 -16 -56 -26q-33 0 -47 -15
q-27 -33 -80 -86q-18 -33 -14 -41q17 -63 29 -96t44 -74t77 -59h38q39 -24 95 -23q55 2 61 2q78 -10 170 54l6 8q8 20 -30 54t-44 40q-66 80 -75 115v35zM1927 787q0 -19 -10 -32t-10 -22q0 -59 -21 -86q-8 -6 -53 -56t-82 -67q-4 -2 -12 -15q-7 -13 -15 -17
q-104 -56 -143 -82q-6 0 -20 -15q-15 -9 -97 -29t-170 -27t-131 -17q-31 -2 -87 4t-94 0t-97 -52q-35 -35 0 -81q20 -23 47 -64t35 -51q78 -70 235 41q30 18 101 30q71 13 103 24t74 19t170 38t195 44q141 33 238 -161q0 -2 33 -35q30 -39 -8 -104q-39 -64 -25 -78
q12 -66 59 -82q82 -14 103 -27h20q55 -20 80 -59q31 -55 -33 -123q-15 -15 -34 -15l-42 2q-38 57 -102 83q-27 11 -56 23t-71 21q-14 8 -80 9q-10 -4 -33 4q-24 8 -38 6t-136 -2t-180 -43q-14 4 -38 17t-36 18q-84 10 -161 -35q-70 31 -150 6q-70 -16 -162 -27
q-14 -4 -61 15q-205 16 -223 20q-92 16 -183 68q-14 14 -32 26q-19 11 -24 15q-29 21 -71 6q-39 8 -69 36t-64 70q-33 42 -48 60t-18 58t-5 48t-18 46q-15 38 -16 56t-19 85q-18 66 -1 88q18 43 21 47v35q25 37 37 103t16 79t33 31t34 33t9 33t7 32t20 46t20 48l6 121
l-6 144q0 37 4 61t-2 62t-2 59q12 25 12 40q-4 14 -7 55t-26 60l-93 -2q-54 0 -89 14q-12 -16 -82 -13t-80 1q-22 37 -4 64t50 56t40 42q14 2 46 10t42 7t41 -11q6 -6 21 -28t35 -25l82 -8q14 0 45 -1t67 15q20 0 35 -6q78 0 94 6t88 16t115 -2q14 -8 38 -11t34 -8t28 0
t23 5q57 -14 63 -14t31 2q39 10 117 2t113 -2h94q20 -8 61 -8l14 8q59 -14 183 -15l80 15q189 -21 211 -21t38 10t69 2t73 -5t49 29t41 32q35 27 88 12q33 -14 45 -51t1 -79t-75 -32q-53 23 -81 17q-28 -7 -64 -11q-74 -10 -74 -106l10 -96q23 -90 0 -183q-2 -4 -6 -16
t-8 -16q0 -102 -4 -130t-20 -73q-16 -44 -15 -63z" />
    <glyph glyph-name="Thorn" unicode="&#xde;" horiz-adv-x="2842" 
d="M2083 1636q14 0 43 -28q12 -20 5 -43t-14 -27t-19 -5t-28 -2t-20 -2t-33 6t-48 11t-54 6t-86 0t-69 -2t-65 -5q-48 -5 -74 0t-60 5q-76 -12 -254 0q-23 0 -39 -14t-13 -35q14 -84 -12 -110q2 -9 -6 -55t0 -74t4 -39q-4 -13 9 -19q12 -6 26 -6t27 13t46 6q34 -7 42 0
q12 0 47 34q14 4 43 -1t47 -2t57 44q27 -8 141 -8q166 -18 170 -18q12 6 48 6q86 -31 102 -43t43 -12q27 1 33 -9t22 -15t130 -41q115 -36 167 -73q15 -29 73 -61t77 -55q0 -19 13 -24q20 -8 28 -17q57 -88 73 -197q9 -45 11 -59t4 -36t1 -27t-1 -38v-61q4 -27 -16 -72
t-25 -57q-109 -94 -121 -168q-60 -60 -91 -81q-31 -22 -71 -42t-58 -30q-17 -10 -57 -9q-20 -6 -104 -41t-160 -27q-47 0 -141 13q-53 16 -82 94q0 43 8 47q154 61 183 197q4 12 20 26t18 21q12 6 9 41q-4 35 0 50t8 43t24 53q21 25 20 45t-11 68t-21 102t-35 95
q-49 52 -56 72t-12 40t-11 38q-6 19 -24 35q-19 16 -47 21q-28 4 -41 12q-14 8 -58 38t-74 35q-94 -63 -203 -20q-14 -10 -49 -11t-45 -16q-16 -16 -27 -41q-8 -8 -39 -27t-35 -42t-8 -58q-4 -34 -8 -54t-45 -60q-2 -4 -6 -16t-8 -19l8 -27q0 -29 4 -52t-10 -65
q-1 -46 -9 -75q-8 -28 -14 -70v-21q4 -10 14 -30q17 -34 18 -57q2 -23 23 -33q7 -7 13 -27t14 -28t39 -17q31 -7 39 -19t8 -27t9 -19t35 -9q26 -4 36 -13q10 -10 20 -30t17 -28q53 -39 188 -39l21 -21q33 -33 6 -96q-104 0 -118 5t-26 15q-10 10 -18 15q-59 23 -94 39
t-76 53t-53 84q-8 0 -37 6t-39 -10q-10 -15 -12 -29t0 -38t10 -96t4 -97q-6 -12 -6 -47q6 -23 53 -41q31 -17 169 -11t180 2t64 -11q23 -7 56 -6t51 -1l56 -14q6 0 32 2q90 18 168 18q86 -14 103 -12q6 6 26 6l27 -12q20 -8 60 -1t75 -1t76 4q92 27 127 24q34 -14 56 -54
t18 -72t-19 -54q-16 -22 -39 -38q-22 -17 -24 -19q-43 -29 -88 0q-8 8 -29 33q-58 72 -113 63q-72 -20 -141 0q-33 6 -107 0t-108 6q-20 4 -56 1t-53 -1q-63 16 -179 12q-116 -3 -194 11t-91 12q-94 -13 -113 -10q-20 4 -61 8t-76 25q-36 22 -62 22q-31 -34 -85 -30
q-54 5 -80 2t-152 16q-98 0 -121 -8l-27 8q-14 0 -67 -8t-68 0q-35 0 -47 -7q-20 0 -35 7q-33 5 -95 -7t-87 -12q-6 -4 -12 -4l-27 4q-6 -4 -21 -10t-20 -10q-16 -35 -20 -41q-1 2 -15 6t-24 13q-10 10 -41 28t-41 26q-20 27 -17 67q5 40 25 51t38 13t43 0q26 -2 36 -2
t56 -6t69 -2q20 14 47 15q16 8 63 27t76 37t40 38q10 18 24 18t18 9l8 32q4 9 14 15t13 12q33 78 43 93t10 63q6 26 34 70t34 71l6 76q0 8 12 23t8 24v121q10 41 -8 88t-18 147q-4 18 -3 66t-7 64q-8 17 -1 47q6 30 -10 38q0 87 6 97t-2 29t-20 54q-14 29 -46 80t-42 68
q-35 33 -121 78q-8 8 -23 25q-14 17 -20 24q-31 12 -49 0q-42 -33 -102 -20t-74 69q-16 51 26 88q43 37 101 33q41 -43 142 -50t120 -14q18 8 66 2t67 -2l29 15q55 0 169 -29q25 -6 74 1t82 -1t104 3t109 3l64 14q55 -2 221 -5t336 -15q45 0 121 14h98z" />
    <glyph glyph-name="germandbls" unicode="&#xdf;" horiz-adv-x="1114" 
d="M449 909q49 51 77 78q27 21 54 39q28 18 40 32t46 62q33 49 41 60q-57 23 -102 48q-46 25 -111 32q-4 4 -16 -4t-12 -30q-12 -252 -17 -317zM442 803v-105q-8 -236 -6 -424q0 -35 21 -69q6 -3 22 -15q17 -12 21 -13t16 3q66 59 111 176q10 25 44 64t44 61q8 29 0 56
q-37 88 -205 206q-24 16 -68 60zM948 1438q-28 -37 -66 -107t-43 -79q-5 -8 -25 -30t-24 -31t-47 -71t-51 -86q-12 -66 51 -108q27 -12 85 -64q56 -53 76 -64t33 -5t38 24q25 17 42 19t32 -19q8 -49 -28 -75t-76 -78t-114 -125q-23 -29 -21 -74t36 -64q24 -55 92 -116
q14 -14 14 -35q8 -18 52 -78t47 -98q-4 -27 -34 -75t-48 -65q-78 -132 -105 -162t-91 -117t-116 -116q-39 -18 -96 12q-12 4 -45 31t-27 51q29 48 46 63q18 15 32 24q15 8 19 12t21 14t27 16t48 -1q39 -7 55 -1q61 33 61 104q-1 71 -42 124q-66 61 -140 149q-14 10 -26 -10
q-80 -63 -193 -143q-43 -31 -67 -21q-43 10 -114 52t-107 55q-27 16 -15 41q51 100 64 215q12 116 3 268t-5 221q-2 35 -24 62t-48 27t-33 10q-6 11 -2 24q18 37 90 96q12 16 13 29q10 8 4 99t-6 100q45 45 151 94t129 61l6 13q31 18 35 22q74 88 143 70q35 -10 107 -40
t106 -40q27 20 63 23t58 -27z" />
    <glyph glyph-name="agrave" unicode="&#xe0;" 
d="M606 1210q-29 -23 -63 13q-4 4 -15 8t-18 26q-18 20 -18 27q-14 12 -50 56q-35 44 -50 60t-46 62q-31 47 -59 72q-72 68 -68 111q27 41 72 53t67 -4q8 -8 18 -33t27 -39q8 -14 17 -55q12 -14 20 -15q12 -29 24 -39t16 -28q5 -18 17 -39q13 -20 11 -29q15 -1 27 -25
t16 -30q0 -10 4 -16q31 -38 53 -80t-2 -56zM524 248q61 113 -8 221q-25 41 -80 51t-102 -18q-2 0 -21 -43q-2 -21 0 -71t-3 -68t20 -60q57 -59 131 -47q43 0 63 35zM553 635q0 14 6 81t-14 115q-12 6 -66 43t-100 41q-47 5 -85 -29t-50 -79q-29 -100 41 -164q70 -59 125 -70
q92 -12 131 31q12 17 12 31zM983 147q-6 -18 -31 -52t-32 -48q-59 -66 -123 -115q-20 -12 -46 4t-62 47q-36 32 -56 46q-70 76 -80 92q-19 18 -37 6q-36 -23 -76 -73q-48 -59 -88 -85q-41 -26 -51 -24t-29 2q-42 14 -120 55t-109 55q-6 4 -6 35q20 70 29 258q0 18 -33 84
q-12 37 0 49q20 25 90 59t84 72q2 4 -2 14t-4 15q-51 88 -35 176q5 37 34 68q29 29 33 35t5 20q23 32 71 60t64 40q27 29 129 109q20 12 48 -3t113 -58t130 -70q33 8 98 -21q25 -29 12 -57q-43 -47 -51 -121q-8 -27 -5 -89t1 -89q-20 -106 -10 -178v-113q18 -72 106 -98
q51 -19 39 -107z" />
    <glyph glyph-name="aacute" unicode="&#xe1;" 
d="M719 1642q4 -39 -31 -74q-10 -11 -34 -33t-32 -32t-34 -50q-27 -40 -42 -55q-15 -16 -50 -60t-50 -56l-18 -27q-8 -21 -18 -25t-15 -9q-35 -35 -63 -13q-23 14 -1 56t52 79q4 6 4 17q4 6 13 25q14 30 30 30q-2 9 11 31q14 22 18 38t15 27q11 10 24 39l20 15q12 63 27 63
q8 8 17 32t18 32q24 16 68 4t71 -54zM524 248q61 113 -8 221q-25 41 -80 51t-102 -18q-2 0 -21 -43q-2 -21 0 -71t-3 -68t20 -60q57 -59 131 -47q43 0 63 35zM553 635q0 14 6 81t-14 115q-12 6 -66 43t-100 41q-47 5 -85 -29t-50 -79q-29 -100 41 -164q70 -59 125 -70
q92 -12 131 31q12 17 12 31zM983 147q-6 -18 -31 -52t-32 -48q-59 -66 -123 -115q-20 -12 -46 4t-62 47q-36 32 -56 46q-70 76 -80 92q-19 18 -37 6q-36 -23 -76 -73q-48 -59 -88 -85q-41 -26 -51 -24t-29 2q-42 14 -120 55t-109 55q-6 4 -6 35q20 70 29 258q0 18 -33 84
q-12 37 0 49q20 25 90 59t84 72q2 4 -2 14t-4 15q-51 88 -35 176q5 37 34 68q29 29 33 35t5 20q23 32 71 60t64 40q27 29 129 109q20 12 48 -3t113 -58t130 -70q33 8 98 -21q25 -29 12 -57q-43 -47 -51 -121q-8 -27 -5 -89t1 -89q-20 -106 -10 -178v-113q18 -72 106 -98
q51 -19 39 -107z" />
    <glyph glyph-name="acircumflex" unicode="&#xe2;" 
d="M516 1716q12 0 55 -28q7 -8 13 -28t28 -43q22 -25 32 -55t26 -44t20 -29q4 -16 11 -34t38 -48q3 -5 11 -21t12 -22q0 -10 4 -16q91 -109 48 -140q-26 -19 -60 17l-52 61q-14 12 -49 56q-39 49 -58 68t-27 39t-27 38q-20 18 -27 26q-57 -64 -119 -157q-17 -14 -35 -41
t-32 -39l-19 -27q-7 -21 -17 -25t-16 -10q-35 -35 -63 -12q-39 27 45 123q14 23 14 35q4 6 11 22q12 27 28 27q-2 10 18 41q21 31 50 94q43 78 49 82t16 24t16 24q6 6 25 24t31 18zM524 248q61 113 -8 221q-25 41 -80 51t-102 -18q-2 0 -21 -43q-2 -21 0 -71t-3 -68t20 -60
q57 -59 131 -47q43 0 63 35zM553 635q0 14 6 81t-14 115q-12 6 -66 43t-100 41q-47 5 -85 -29t-50 -79q-29 -100 41 -164q70 -59 125 -70q92 -12 131 31q12 17 12 31zM983 147q-6 -18 -31 -52t-32 -48q-59 -66 -123 -115q-20 -12 -46 4t-62 47q-36 32 -56 46q-70 76 -80 92
q-19 18 -37 6q-36 -23 -76 -73q-48 -59 -88 -85q-41 -26 -51 -24t-29 2q-42 14 -120 55t-109 55q-6 4 -6 35q20 70 29 258q0 18 -33 84q-12 37 0 49q20 25 90 59t84 72q2 4 -2 14t-4 15q-51 88 -35 176q5 37 34 68q29 29 33 35t5 20q23 32 71 60t64 40q27 29 129 109
q20 12 48 -3t113 -58t130 -70q33 8 98 -21q25 -29 12 -57q-43 -47 -51 -121q-8 -27 -5 -89t1 -89q-20 -106 -10 -178v-113q18 -72 106 -98q51 -19 39 -107z" />
    <glyph glyph-name="atilde" unicode="&#xe3;" 
d="M504 1278l-119 12l-76 4q-41 0 -64 -52q-7 -16 -11 -24l-7 -14q-5 -15 -11 -17q-6 -1 -23 3q-20 57 -18 81q3 23 15 53t70 153q20 36 61 36l72 -6q35 -2 68 -7t74 -7q52 -9 77 -8q25 2 62 -2t56 11t46 56q8 31 21 35q19 0 30 -16l7 -4q23 -41 -21 -129q-4 -6 -28 -62
q-23 -56 -37 -73q-14 -19 -32 -25t-59 -2q-53 0 -153 4zM524 248q61 113 -8 221q-25 41 -80 51t-102 -18q-2 0 -21 -43q-2 -21 0 -71t-3 -68t20 -60q57 -59 131 -47q43 0 63 35zM553 635q0 14 6 81t-14 115q-12 6 -66 43t-100 41q-47 5 -85 -29t-50 -79q-29 -100 41 -164
q70 -59 125 -70q92 -12 131 31q12 17 12 31zM983 147q-6 -18 -31 -52t-32 -48q-59 -66 -123 -115q-20 -12 -46 4t-62 47q-36 32 -56 46q-70 76 -80 92q-19 18 -37 6q-36 -23 -76 -73q-48 -59 -88 -85q-41 -26 -51 -24t-29 2q-42 14 -120 55t-109 55q-6 4 -6 35q20 70 29 258
q0 18 -33 84q-12 37 0 49q20 25 90 59t84 72q2 4 -2 14t-4 15q-51 88 -35 176q5 37 34 68q29 29 33 35t5 20q23 32 71 60t64 40q27 29 129 109q20 12 48 -3t113 -58t130 -70q33 8 98 -21q25 -29 12 -57q-43 -47 -51 -121q-8 -27 -5 -89t1 -89q-20 -106 -10 -178v-113
q18 -72 106 -98q51 -19 39 -107z" />
    </font>
</defs>
</svg>
