<?xml version="1.0" standalone="no"?>
<!DOCTYPE svg PUBLIC "-//W3C//DTD SVG 1.1//EN" "http://www.w3.org/Graphics/SVG/1.1/DTD/svg11.dtd" >
<svg xmlns="http://www.w3.org/2000/svg">
<metadata>
Created by FontPrep 20130207 at Tue Dec  9 01:49:35 2014
 By Alexander Gunnarson
URW Software, Copyright 1995 by URW
</metadata>
<defs>
<font id="2b83094d80b46326540ca679cd68bd10" horiz-adv-x='1024' >
  <font-face 
    font-family="NewsGothic"
    font-weight="400"
    font-stretch="normal"
    units-per-em="2048"
    panose-1="0 0 0 0 0 0 0 0 0 0"
    ascent="1674"
    descent="-374"
    x-height="972"
    cap-height="1365"
    bbox="-314 -512 1720 1805.02"
    underline-thickness="124"
    underline-position="-139"
    unicode-range="U+0020-F002"
  />
<missing-glyph horiz-adv-x="512" 
d="M102 51h308v1263h-308v-1263zM461 0h-410v1365h410v-1365z" />
    <glyph glyph-name=".notdef" horiz-adv-x="512" 
d="M102 51h308v1263h-308v-1263zM461 0h-410v1365h410v-1365z" />
    <glyph glyph-name=".null" horiz-adv-x="0" 
 />
    <glyph glyph-name="nonmarkingreturn" horiz-adv-x="682" 
 />
    <glyph glyph-name="space" unicode=" " horiz-adv-x="512" 
 />
    <glyph glyph-name="exclam" unicode="!" horiz-adv-x="546" 
d="M191 191h164v-191h-164v191zM191 1365h163l-31 -932h-101z" />
    <glyph glyph-name="quotedbl" unicode="&#x22;" horiz-adv-x="765" 
d="M642 1365l-19 -546h-99l-19 546h137zM260 1365l-19 -546h-100l-18 546h137z" />
    <glyph glyph-name="numbersign" unicode="#" horiz-adv-x="1010" 
d="M576 539l61 314h-206l-61 -314h206zM791 976h218l-24 -123h-218l-61 -314h218l-24 -123h-218l-81 -416h-130l81 416h-206l-80 -416h-127l81 416h-218l24 123h218l61 314h-218l24 123h218l76 389h126l-76 -389h206l76 389h129z" />
    <glyph glyph-name="dollar" unicode="$" horiz-adv-x="1010" 
d="M789 344q1 64 -29 124t-76 90q-46 32 -122 61v-529q143 4 201 132q26 58 26 122zM272 1045q0 -177 204 -250v483q-73 -6 -120 -46q-84 -68 -84 -187zM476 1541h86v-148q136 -9 224 -115t113 -228l-127 -38q-22 104 -76 176t-134 86v-510q122 -52 164 -74
q195 -102 195 -332q-1 -146 -89 -256t-270 -122v-136h-86v136q-162 20 -261 132t-124 233l130 44q66 -257 255 -294v555q-160 74 -189 90q-28 17 -61 55q-83 98 -83 237q0 202 154 302q69 45 179 59v148z" />
    <glyph glyph-name="percent" unicode="%" horiz-adv-x="1066" 
d="M860 1365h101l-754 -1365h-103zM896 299q0 210 -117 210t-117 -216t114 -216q60 1 90 63t30 159zM779 -12q-87 0 -153 72t-67 218q1 146 57 234q56 86 174 86t169 -115q37 -81 37 -194t-45 -195q-58 -106 -172 -106zM293 860q120 0 120 217q1 217 -117 217t-118 -217
t115 -217zM294 770q-128 0 -186 128q-30 66 -30 198q0 130 61 206t151 77q90 -1 156 -71t65 -238q0 -99 -34 -174q-55 -126 -183 -126z" />
    <glyph glyph-name="ampersand" unicode="&#x26;" horiz-adv-x="1136" 
d="M656 1112q0 78 -37 121q-37 42 -93 42t-90 -50q-32 -50 -32 -105q0 -114 75 -275q99 81 124 115q53 74 53 152zM261 524q-43 -66 -43 -171t74 -184t174 -79q146 0 276 138q-132 135 -322 441q-116 -79 -159 -145zM459 -20q-151 0 -264 110t-113 264q0 221 189 354l94 67
q-99 189 -99 334t102 223q70 54 162 54q138 0 210 -101q50 -71 50 -171q0 -158 -121 -264l-133 -110q117 -183 285 -405q88 171 108 337l124 -21q-18 -207 -150 -407q31 -40 99 -84t109 -42v-121q-132 -5 -290 146q-57 -55 -108 -91q-103 -72 -254 -72z" />
    <glyph glyph-name="quotesingle" unicode="'" horiz-adv-x="382" 
d="M260 1365l-19 -546h-100l-18 546h137z" />
    <glyph glyph-name="parenleft" unicode="(" horiz-adv-x="539" 
d="M304 524q0 -409 174 -811l-104 -41q-92 154 -158 392t-66 495t114 605q46 141 100 235l114 -38q-74 -183 -124 -381t-50 -456z" />
    <glyph glyph-name="parenright" unicode=")" horiz-adv-x="539" 
d="M389 558q0 -258 -66 -494t-159 -392l-103 41q174 403 174 811q0 273 -53 471t-121 366l114 38q54 -94 100 -235q114 -348 114 -606z" />
    <glyph glyph-name="asterisk" unicode="*" horiz-adv-x="771" 
d="M354 1137l-16 228h93l-9 -228l214 77l25 -82l-218 -67l144 -184l-70 -50l-132 188l-131 -188l-68 50l141 184l-218 67l26 82z" />
    <glyph glyph-name="plus" unicode="+" horiz-adv-x="1010" 
d="M459 541h-377v93h377v376h93v-376h377v-93h-377v-377h-93v377z" />
    <glyph glyph-name="comma" unicode="," horiz-adv-x="492" 
d="M164 191h164v-191l-96 -273h-95l95 273h-68v191z" />
    <glyph glyph-name="hyphen" unicode="-" horiz-adv-x="410" 
d="M0 549h410v-128h-410v128z" />
    <glyph glyph-name="period" unicode="." horiz-adv-x="492" 
d="M164 191h164v-191h-164v191z" />
    <glyph glyph-name="slash" unicode="/" horiz-adv-x="921" 
d="M679 1365h105l-668 -1693h-102z" />
    <glyph glyph-name="zero" unicode="0" horiz-adv-x="1010" 
d="M796 693q0 229 -38 346t-104 172t-154 55q-86 0 -154 -74q-132 -143 -132 -513t132 -512q65 -68 157 -68q125 -1 209 131t84 463zM513 1383q132 0 238 -97q178 -162 178 -596q-1 -494 -217 -642q-96 -66 -208 -66q-161 0 -270 124q-152 172 -152 549q0 550 255 685
q81 43 176 43z" />
    <glyph glyph-name="one" unicode="1" horiz-adv-x="1010" 
d="M608 1379v-1256h186v-123h-527v123h203v1089l-225 -22v91l264 98h99z" />
    <glyph glyph-name="two" unicode="2" horiz-adv-x="1010" 
d="M522 1266q-215 0 -288 -313l-130 33q32 124 76 208t135 136q90 53 201 53q174 0 270 -110t97 -266q0 -156 -90 -276q-46 -61 -210 -197t-265 -265q-64 -87 -84 -146h652v-123h-782v107q22 75 87 176q109 168 288 321q97 83 140 125q130 127 130 277q0 108 -65 184
q-64 76 -162 76z" />
    <glyph glyph-name="three" unicode="3" horiz-adv-x="1010" 
d="M513 1383q170 -1 266 -99t96 -241q0 -230 -222 -318q91 -27 148 -78q109 -99 109 -267t-107 -282q-107 -116 -297 -116t-322 129q-50 50 -104 134l108 73q44 -69 87 -115q99 -104 237 -104t214 102q51 69 51 173q0 284 -339 284q-50 0 -105 -7v136q57 -6 110 -6
q121 0 185 38q114 67 114 214q0 112 -69 172t-165 60q-154 0 -273 -171l-101 79q148 210 379 210z" />
    <glyph glyph-name="four" unicode="4" horiz-adv-x="1010" 
d="M638 460v619l-6 100q0 17 3 57l3 57q-10 -47 -42 -117l-380 -716h422zM776 1382v-922h206v-123h-206v-337h-138v337h-553v108l491 937h200z" />
    <glyph glyph-name="five" unicode="5" horiz-adv-x="1010" 
d="M836 1365v-123h-510l-30 -433q94 108 265 108t279 -151q82 -116 82 -308t-101 -323q-119 -153 -323 -153q-252 0 -375 254l114 66q33 -68 73 -114q78 -89 200 -89q153 0 227 134q53 95 53 236t-53 221q-75 110 -207 110q-100 0 -183 -77q-49 -46 -72 -110l-114 29l44 723
h631z" />
    <glyph glyph-name="six" unicode="6" horiz-adv-x="1010" 
d="M516 99q154 0 233 138q46 83 46 217q-1 134 -73 214t-190 80t-216 -111q-42 -48 -70 -106l-14 -28q13 -258 144 -356q64 -48 140 -48zM545 866q165 0 275 -116t109 -298q0 -182 -89 -307q-54 -77 -138 -120t-182 -43q-184 0 -293 141q-127 160 -127 455q0 296 74 470
t190 255t239 81t235 -56q27 -14 58 -31l-68 -106q-112 76 -207 76q-206 0 -310 -236q-52 -117 -79 -349q114 184 313 184z" />
    <glyph glyph-name="seven" unicode="7" horiz-adv-x="1010" 
d="M107 1242v123h769v-82l-500 -1283h-155l512 1242h-626z" />
    <glyph glyph-name="eight" unicode="8" horiz-adv-x="1010" 
d="M203 356q0 -115 89 -186q90 -71 234 -71t225 100q55 68 55 155q0 146 -138 225q-62 35 -189 90q-78 -33 -126 -63q-150 -92 -150 -250zM762 1042q0 116 -85 175q-69 49 -179 49t-178 -64t-68 -152q0 -127 127 -200q52 -30 140 -70q95 40 148 78q95 68 95 184zM938 358
q0 -160 -115 -268t-323 -108t-318 108t-110 263q0 246 289 373q-88 45 -142 95q-99 93 -99 241t117 234t285 87q168 -1 270 -97t102 -242t-128 -246q-43 -34 -122 -72q108 -48 173 -104q121 -103 121 -264z" />
    <glyph glyph-name="nine" unicode="9" horiz-adv-x="1010" 
d="M494 1266q-154 0 -233 -137q-46 -79 -46 -213q1 -134 73 -214t190 -80t215 111q43 49 63 89t21 43q-13 255 -143 353q-64 48 -140 48zM388 98q206 0 310 237q52 117 79 351q-53 -82 -108 -120q-92 -62 -204 -62q-165 0 -275 116t-109 296q0 180 89 305q54 77 138 119
t182 43q184 0 293 -141q127 -160 127 -456t-74 -469q-74 -174 -190 -255t-240 -81t-234 58q-21 10 -59 33l68 105q112 -79 207 -79z" />
    <glyph glyph-name="colon" unicode=":" horiz-adv-x="492" 
d="M164 972h164v-191h-164v191zM164 191h164v-191h-164v191z" />
    <glyph glyph-name="semicolon" unicode=";" horiz-adv-x="492" 
d="M164 972h164v-191h-164v191zM164 191h164v-191l-96 -273h-95l95 273h-68v191z" />
    <glyph glyph-name="less" unicode="&#x3c;" 
d="M68 747l887 410v-133l-744 -336l744 -336v-132l-887 410v117z" />
    <glyph glyph-name="equal" unicode="=" horiz-adv-x="1010" 
d="M929 404h-847v93h847v-93zM929 677h-847v93h847v-93z" />
    <glyph glyph-name="greater" unicode="&#x3e;" 
d="M956 630l-887 -411v134l744 335l-744 336v133l887 -411v-116z" />
    <glyph glyph-name="question" unicode="?" horiz-adv-x="703" 
d="M194 191h164v-191h-164v191zM349 1379q127 0 201 -101q54 -75 54 -174t-37 -170t-93 -139l-81 -98q-43 -51 -53 -95t-9 -90q0 -46 1 -78h-111q-2 56 -2 108q0 114 61 194l91 117q102 131 102 225q-1 94 -39 143t-102 49t-115 -66q-11 -15 -43 -71l-99 63q104 183 274 183
z" />
    <glyph glyph-name="at" unicode="@" horiz-adv-x="1461" 
d="M507 544q0 -144 115 -144q121 0 197 207l46 129q24 66 24 106t-15 67q-31 55 -89 55q-93 0 -179 -120q-48 -68 -74 -153t-25 -147zM745 -20q-297 0 -481 188t-184 481q0 171 59 315t169 244q196 178 459 178q131 0 251 -50t208 -144q153 -161 153 -392t-178 -376
q-125 -103 -251 -103q-74 0 -117 51q-16 19 -23 54q-110 -104 -220 -104t-173 91q-45 62 -45 160q0 158 100 297q124 175 283 175q123 0 177 -122l32 90h124l-163 -482q-18 -54 -18 -82q0 -63 71 -63q94 0 187 102q118 128 118 310q1 222 -155 360t-361 138q-127 0 -243 -53
t-198 -151q-145 -168 -145 -434q-1 -266 155 -426t392 -160t405 138q78 65 128 152h102q-56 -128 -165 -218q-199 -164 -453 -164z" />
    <glyph glyph-name="A" unicode="A" horiz-adv-x="996" 
d="M485 1151l-171 -594h384l-160 594q-18 67 -25 111q-7 -39 -28 -111zM732 431h-453l-126 -431h-146l403 1378h207l379 -1378h-149z" />
    <glyph glyph-name="B" unicode="B" horiz-adv-x="1098" 
d="M304 654v-528h232q171 0 240 38q97 54 97 192t-67 206t-212 84q-80 8 -166 8h-124zM304 1239v-459h170q192 0 269 41q53 29 77 83t24 112q0 172 -157 209q-62 14 -213 14h-170zM157 0v1365h392q255 -1 348 -107t93 -230t-52 -191q-52 -68 -98 -87t-94 -32q97 -31 157 -76
q112 -84 112 -272t-113 -279t-310 -91h-435z" />
    <glyph glyph-name="C" unicode="C" horiz-adv-x="1120" 
d="M578 1273q-193 0 -284 -205q-69 -154 -69 -369q-1 -215 39 -341t123 -194t191 -68q176 0 273 189q36 71 49 140l138 -31q-21 -93 -62 -171q-131 -248 -400 -248q-210 0 -338 146q-157 179 -157 538q0 237 61 400q125 334 438 334q332 0 438 -409l-138 -35
q-72 324 -302 324z" />
    <glyph glyph-name="D" unicode="D" horiz-adv-x="1155" 
d="M427 1239h-123v-1113h98q106 0 145 2t87 16q296 77 296 539q0 340 -152 468q-103 88 -351 88zM157 0v1365h227q122 -1 230 -13q233 -27 359 -233q100 -163 100 -420q1 -257 -79 -414t-210 -221t-336 -64h-291z" />
    <glyph glyph-name="E" unicode="E" horiz-adv-x="999" 
d="M157 0v1365h760v-126h-613v-459h448v-126h-448v-528h641v-126h-788z" />
    <glyph glyph-name="F" unicode="F" horiz-adv-x="931" 
d="M157 0v1365h733v-126h-586v-459h436v-126h-436v-654h-147z" />
    <glyph glyph-name="G" unicode="G" horiz-adv-x="1133" 
d="M589 1271q-78 0 -146 -37q-218 -120 -218 -560q-1 -298 101 -438t268 -140q127 0 206 87t91 237q3 38 3 108h-296v126h426v-654h-113v163q-57 -79 -102 -115q-89 -73 -242 -73q-153 1 -275 103t-177 316q-33 130 -33 289q0 308 127 505q64 99 164 152t223 53
q195 0 316 -144q91 -106 112 -261l-130 -38q-68 321 -305 321z" />
    <glyph glyph-name="H" unicode="H" horiz-adv-x="1232" 
d="M928 654h-624v-654h-147v1365h147v-585h624v585h147v-1365h-147v654z" />
    <glyph glyph-name="I" unicode="I" horiz-adv-x="461" 
d="M157 1365h147v-1365h-147v1365z" />
    <glyph glyph-name="J" unicode="J" horiz-adv-x="758" 
d="M467 1365h147v-897q0 -220 -37 -304t-114 -136t-201 -53q-124 0 -203 93q-34 40 -66 107l119 69l12 -22q30 -58 62 -92t106 -34t127 69q31 40 39 92t9 233v875z" />
    <glyph glyph-name="K" unicode="K" horiz-adv-x="1087" 
d="M157 1365h147v-711l539 711h155l-387 -508l455 -857h-164l-382 737l-216 -275v-462h-147v1365z" />
    <glyph glyph-name="L" unicode="L" horiz-adv-x="902" 
d="M157 1365h147v-1239h592v-126h-739v1365z" />
    <glyph glyph-name="M" unicode="M" horiz-adv-x="1410" 
d="M1253 1365v-1365h-147v1282h-9l-340 -1282h-94l-313 1127q-28 88 -46 155q-5 -37 -5 -56l5 -113v-1113h-147v1365h253l237 -845q54 -190 63 -285q8 81 59 275l234 855h250z" />
    <glyph glyph-name="N" unicode="N" horiz-adv-x="1196" 
d="M892 1365h147v-1365h-121l-557 1101q-23 47 -41 91t-35 74q20 -143 19 -334v-932h-147v1365h204l478 -932q38 -78 79 -188q-21 115 -26 338v782z" />
    <glyph glyph-name="O" unicode="O" horiz-adv-x="1177" 
d="M590 1271q-112 0 -205 -78q-159 -135 -159 -517q0 -240 73 -387q94 -193 288 -193q161 0 263 143t101 468q0 176 -28 272q-41 139 -131 215t-202 77zM595 1392q170 0 304 -122q196 -180 196 -573q0 -248 -79 -431q-53 -120 -144 -193q-122 -98 -294 -98t-302 124
q-110 103 -159 294q-35 132 -35 291q0 308 121 496q65 102 167 157t225 55z" />
    <glyph glyph-name="P" unicode="P" horiz-adv-x="1029" 
d="M304 1239v-507h201q119 0 175 18q96 33 137 123q22 50 22 110q0 108 -68 181q-37 39 -101 57t-187 18h-179zM157 0v1365h343q166 0 264 -37q98 -36 158 -132t60 -214q0 -169 -119 -277q-79 -71 -163 -85t-185 -14h-211v-606h-147z" />
    <glyph glyph-name="Q" unicode="Q" horiz-adv-x="1177" 
d="M952 707q0 175 -34 293t-126 194q-90 76 -203 76t-204 -78q-159 -134 -159 -516q0 -240 73 -387q95 -192 289 -192q160 0 262 143t102 467zM867 -184q47 0 115 6v-123q-53 -6 -92 -6q-236 0 -318 108q-49 65 -58 180q-302 52 -397 412q-35 132 -35 293q0 287 106 471
q67 118 182 180q98 55 217 55q181 0 312 -121q196 -181 196 -561t-154 -568q-112 -139 -295 -163q8 -62 28 -92q47 -71 193 -71z" />
    <glyph glyph-name="R" unicode="R" horiz-adv-x="1047" 
d="M304 1239v-492h186q128 0 178 10q104 20 152 98q37 59 37 140q-1 121 -71 179t-226 64q-45 0 -104 1h-152zM157 0v1365h343q178 -1 278 -35t161 -124t61 -209q0 -160 -117 -265q-58 -54 -143 -78l265 -654h-160l-248 621l-21 5h-241l-31 -5v-621h-147z" />
    <glyph glyph-name="S" unicode="S" horiz-adv-x="999" 
d="M490 1271q-127 0 -188 -73t-61 -154q0 -130 122 -202q41 -24 189 -78t230 -108t116 -137t34 -159q0 -181 -130 -293q-107 -92 -284 -92q-257 0 -390 187q-55 76 -87 182l133 45q32 -93 66 -146q90 -146 282 -146q138 0 202 78t64 185t-95 182q-51 38 -184 85t-210 84
q-202 100 -202 317q-1 168 115 266t288 98q311 0 410 -344l-133 -40q-68 263 -287 263z" />
    <glyph glyph-name="T" unicode="T" horiz-adv-x="930" 
d="M14 1239v126h902v-126h-380v-1239h-147v1239h-375z" />
    <glyph glyph-name="U" unicode="U" horiz-adv-x="1173" 
d="M143 1365h147v-887q0 -132 23 -210q51 -171 268 -171t273 163q28 80 28 201v904h147v-887q0 -98 -8 -154q-25 -186 -168 -278q-112 -71 -282 -71q-235 0 -344 148q-64 85 -74 177t-10 189v876z" />
    <glyph glyph-name="V" unicode="V" horiz-adv-x="936" 
d="M7 1365h150l237 -846q60 -217 81 -339q11 76 19 118t46 183l254 884h136l-404 -1365h-117z" />
    <glyph glyph-name="W" unicode="W" horiz-adv-x="1410" 
d="M20 1365h144l174 -868l9 -49q31 -158 36 -255q7 107 50 289l211 883h133l193 -868q42 -183 49 -304q6 111 52 304l183 868h135l-318 -1373h-114l-209 935q-42 205 -43 255q-6 -94 -45 -255l-227 -935h-119z" />
    <glyph glyph-name="X" unicode="X" horiz-adv-x="963" 
d="M757 1365h149l-346 -648l390 -717h-157l-315 596q-16 -37 -30 -59l-286 -537h-148l384 706l-356 659h162l244 -472l11 -20q17 -31 19 -37z" />
    <glyph glyph-name="Y" unicode="Y" horiz-adv-x="903" 
d="M532 0h-147v577l-405 788h157l294 -574l8 -21q17 -35 23 -54q10 42 25 75l278 574h158l-391 -764v-601z" />
    <glyph glyph-name="Z" unicode="Z" horiz-adv-x="901" 
d="M84 1239v126h776v-98l-659 -1141h651v-126h-825v89l658 1150h-601z" />
    <glyph glyph-name="bracketleft" unicode="[" horiz-adv-x="539" 
d="M171 -328v1693h328v-104h-204q10 -47 10 -191v-1070q-5 -169 -10 -224h204v-104h-328z" />
    <glyph glyph-name="backslash" unicode="\" horiz-adv-x="921" 
d="M806 -328l-669 1693h106l664 -1693h-101z" />
    <glyph glyph-name="bracketright" unicode="]" horiz-adv-x="539" 
d="M369 -328h-328v104h204q-5 55 -10 224v1070q0 144 10 191h-204v104h328v-1693z" />
    <glyph glyph-name="asciicircum" unicode="^" 
d="M510 1263l-308 -507h-145l367 613h175l367 -613h-147z" />
    <glyph glyph-name="underscore" unicode="_" 
d="M0 -263v124h1024v-124h-1024z" />
    <glyph glyph-name="grave" unicode="`" 
d="M478 1095l-128 246h153l76 -246h-101z" />
    <glyph glyph-name="a" unicode="a" horiz-adv-x="898" 
d="M194 250q0 -76 49 -118t104 -42q145 0 288 197v259q-203 -56 -287 -92t-119 -82t-35 -122zM435 990q155 0 247 -84q57 -51 72 -118t15 -150v-382q-1 -154 27 -256h-146q-9 48 -15 155q-56 -68 -97 -103q-85 -73 -206 -73q-121 1 -194 77t-73 200q0 175 146 258
q99 56 294 107l130 33q-3 86 -21 130t-66 69q-48 26 -112 26q-165 0 -241 -154l-105 69q111 196 345 196z" />
    <glyph glyph-name="b" unicode="b" horiz-adv-x="942" 
d="M485 88q157 0 228 173q36 89 36 269t-74 266q-73 84 -165 84t-154 -51q-33 -28 -92 -91v-514q48 -52 102 -94t119 -42zM528 991q127 0 224 -97q127 -127 127 -394q0 -188 -75 -334q-47 -90 -124 -138q-78 -48 -174 -49q-96 0 -176 59q-35 26 -79 75l-25 -113h-96v1365
h134v-506q107 132 264 132z" />
    <glyph glyph-name="c" unicode="c" horiz-adv-x="837" 
d="M449 -21q-183 0 -283 144q-100 143 -100 357t99 361q47 69 124 109t165 40q226 0 318 -261l-119 -41q-14 55 -40 94q-63 97 -167 97q-135 0 -199 -130q-53 -107 -53 -271q0 -277 149 -361q50 -29 102 -29q153 0 229 193l112 -47q-104 -255 -337 -255z" />
    <glyph glyph-name="d" unicode="d" horiz-adv-x="939" 
d="M435 90q136 0 241 167v493q-31 37 -57 61q-77 69 -162 69q-128 0 -205 -129q-58 -97 -58 -278t68 -282t173 -101zM676 1365h134v-1090q2 -165 14 -275h-133q-9 62 -15 130q-105 -150 -244 -150t-234 101q-132 139 -132 402q0 214 95 354q105 154 285 154q90 0 166 -64
q24 -20 64 -68v506z" />
    <glyph glyph-name="e" unicode="e" horiz-adv-x="882" 
d="M443 880q-91 0 -160 -72t-81 -228h457q-2 101 -32 168q-60 132 -184 132zM479 -21q-146 0 -249 83q-164 132 -164 432q0 235 119 378q97 118 261 118q224 0 313 -237q40 -106 42 -286h-599q4 -234 129 -331q62 -47 140 -47q119 0 203 113q20 26 49 77l94 -64
q-31 -62 -78 -112q-114 -124 -260 -124z" />
    <glyph glyph-name="f" unicode="f" horiz-adv-x="475" 
d="M430 1276q-80 0 -109 -56q-17 -36 -17 -117v-131h205v-113h-205v-859h-134v859h-150v113h150v83q0 162 40 230q59 101 207 101q43 0 92 -9v-114q-52 13 -79 13z" />
    <glyph glyph-name="g" unicode="g" horiz-adv-x="872" 
d="M191 -87q0 -132 265 -132q156 0 235 41q77 41 77 111q0 90 -138 113q-30 4 -138 12t-115 7l-48 -18q-67 -23 -103 -51t-35 -83zM666 669q0 95 -66 153t-161 58t-149 -69t-55 -169t61 -158t152 -58q120 0 178 87q40 61 40 156zM860 893q-78 0 -139 -34q73 -95 73 -217
t-90 -224t-250 -103q-72 0 -147 32l-53 -48q-19 -19 -19 -43q0 -44 84 -61q18 -3 169 -14q152 -11 214 -25t104 -42q91 -61 91 -172q0 -140 -142 -213q-111 -58 -303 -58q-192 -1 -290 63t-99 159q0 136 183 200q-47 9 -76 28q-64 41 -64 99t52 107q26 25 88 60
q-139 107 -139 261q1 154 97 248t232 95q136 0 224 -67q102 86 224 85v-117q-11 1 -24 1z" />
    <glyph glyph-name="h" unicode="h" horiz-adv-x="953" 
d="M130 1365h134v-542q74 72 113 102q83 65 191 65q143 0 209 -101q35 -54 41 -119t6 -130v-640h-134v640q0 114 -15 154t-51 64q-36 22 -79 22q-87 0 -194 -83q-54 -42 -87 -86v-711h-134v1365z" />
    <glyph glyph-name="i" unicode="i" horiz-adv-x="393" 
d="M130 1311h134v-149h-134v149zM130 972h134v-972h-134v972z" />
    <glyph glyph-name="j" unicode="j" horiz-adv-x="393" 
d="M129 1311h134v-150h-134v150zM129 972h134v-1042q0 -130 -33 -180q-56 -80 -173 -80q-22 0 -64 5v112q35 -6 50 -6q73 0 82 82q4 32 4 109v1000z" />
    <glyph glyph-name="k" unicode="k" horiz-adv-x="837" 
d="M130 1365h134v-893l378 500h142l-261 -339l301 -633h-142l-242 529l-176 -216v-313h-134v1365z" />
    <glyph glyph-name="l" unicode="l" horiz-adv-x="393" 
d="M130 1365h134v-1365h-134v1365z" />
    <glyph glyph-name="m" unicode="m" horiz-adv-x="1488" 
d="M130 972h134v-150q57 64 127 116q69 52 173 52t173 -75q33 -36 50 -93q153 168 313 168q70 0 130 -30t94 -87q34 -58 35 -195v-678h-134v695q-1 73 -19 109q-39 76 -123 76q-120 0 -274 -154v-726h-134v678q0 78 -15 116q-14 38 -48 62q-34 23 -75 23q-83 0 -175 -67
q-36 -25 -98 -86v-726h-134v972z" />
    <glyph glyph-name="n" unicode="n" horiz-adv-x="952" 
d="M545 879q-117 0 -281 -164v-715h-134v972h134v-154q146 173 316 173q62 0 118 -31q56 -32 85 -78q27 -46 33 -109t6 -135v-638h-134v638q0 107 -10 146t-50 67q-38 28 -83 28z" />
    <glyph glyph-name="o" unicode="o" horiz-adv-x="900" 
d="M450 879q-62 0 -114 -31t-83 -81q-59 -99 -59 -283q0 -287 143 -365q53 -29 112 -29q149 0 211 140q46 105 46 262q0 267 -138 352q-56 35 -118 35zM456 990q139 0 240 -92q140 -128 140 -424q0 -172 -60 -300q-38 -78 -118 -136t-188 -59q-205 1 -305 139
q-99 138 -99 362t98 367t292 143z" />
    <glyph glyph-name="p" unicode="p" horiz-adv-x="946" 
d="M490 88q148 0 219 153q44 97 44 279t-72 271q-72 90 -174 90t-196 -94q-14 -14 -47 -54v-511q119 -134 226 -134zM264 859q126 132 246 132q166 0 268 -128q103 -127 103 -355t-94 -373q-47 -73 -122 -115t-162 -42t-170 68q-29 24 -69 67v-441h-134v1300h134v-113z" />
    <glyph glyph-name="q" unicode="q" horiz-adv-x="945" 
d="M447 89q119 0 235 149v510q-102 131 -225 131q-51 0 -101 -25t-81 -67q-81 -109 -81 -306q0 -392 253 -392zM816 972v-1300h-134v441q-43 -44 -75 -70q-80 -64 -197 -64t-207 87t-122 256q-15 76 -15 159q0 233 115 384q95 125 243 125t258 -131l37 113h97z" />
    <glyph glyph-name="r" unicode="r" horiz-adv-x="599" 
d="M264 0h-134v972h134v-254q41 152 172 237q57 32 150 31v-127q-118 -4 -196 -82q-70 -75 -126 -233v-544z" />
    <glyph glyph-name="s" unicode="s" horiz-adv-x="807" 
d="M405 879q-70 1 -124 -39t-54 -101q1 -61 35 -94t154 -74t165 -62q167 -81 167 -242q0 -126 -88 -207t-244 -81t-277 107q-46 40 -80 95l111 62q102 -153 261 -153q95 0 142 49t47 107t-35 97t-148 81t-187 72q-74 32 -122 109q-30 49 -30 119q0 132 103 208q79 58 217 58
t243 -100q26 -25 66 -71l-98 -72q-90 132 -224 132z" />
    <glyph glyph-name="t" unicode="t" horiz-adv-x="502" 
d="M157 1300h134v-328h205v-113h-205v-604q0 -21 6 -65t10 -53q20 -50 92 -50q35 0 97 13v-100q-72 -22 -137 -22q-129 0 -175 78q-18 30 -21 71t-6 158v574h-150v113h150v328z" />
    <glyph glyph-name="u" unicode="u" horiz-adv-x="950" 
d="M687 972h134v-972h-134v154q-54 -64 -95 -97q-98 -78 -208 -78q-70 0 -130 31t-85 79q-39 77 -39 286v597h134v-597q0 -83 6 -143t42 -102q36 -40 95 -40q105 0 208 98q20 19 72 74v710z" />
    <glyph glyph-name="v" unicode="v" horiz-adv-x="762" 
d="M643 972h125l-281 -972h-196l-298 972h139l226 -760l9 -34q11 -44 23 -98q27 113 32 132z" />
    <glyph glyph-name="w" unicode="w" horiz-adv-x="1182" 
d="M20 972h130l153 -614q33 -134 38 -217q17 127 39 217l148 614h128l146 -580q41 -163 47 -251q8 90 44 251l141 580h127l-256 -972h-120l-157 626q-34 130 -38 197q-8 -78 -37 -197l-150 -626h-119z" />
    <glyph glyph-name="x" unicode="x" horiz-adv-x="730" 
d="M558 972h139l-262 -464l301 -508h-140l-235 400l-225 -400h-143l294 508l-281 464h144l211 -357z" />
    <glyph glyph-name="y" unicode="y" horiz-adv-x="775" 
d="M128 -333q-46 0 -135 18l15 117q61 -21 97 -21q93 0 153 81q40 54 76 138l-326 972h128l217 -635q24 -69 47 -153q10 40 33 121l216 667h133l-300 -909q-51 -159 -112 -255q-88 -141 -242 -141z" />
    <glyph glyph-name="z" unicode="z" horiz-adv-x="763" 
d="M66 859v113h647v-81l-517 -778h517v-113h-676v87l508 772h-479z" />
    <glyph glyph-name="braceleft" unicode="{" horiz-adv-x="532" 
d="M319 305v-339q3 -96 20 -121q36 -64 173 -66v-106q-19 -1 -43 -1q-148 0 -213 69t-65 228v334q0 100 -33 139t-84 51v97q55 14 85 51t32 132v361q-1 144 67 208t214 64h40v-107q-90 -2 -139 -28q-37 -21 -45 -59t-9 -92v-354q-1 -106 -29 -152t-85 -76q67 -36 91 -90
t23 -143z" />
    <glyph glyph-name="bar" unicode="|" 
d="M446 -341v1706h133v-1706h-133z" />
    <glyph glyph-name="braceright" unicode="}" horiz-adv-x="532" 
d="M213 766v354q-1 85 -19 112q-37 66 -174 67v107h40q146 0 214 -64t67 -208v-361q2 -95 32 -132t85 -51v-97q-51 -12 -84 -51t-33 -139v-334q0 -159 -65 -228t-213 -69q-24 0 -43 1v106q88 2 137 27q36 22 46 59q11 37 10 101v339q3 99 27 149t87 84q-64 33 -89 83
t-25 145z" />
    <glyph glyph-name="asciitilde" unicode="~" horiz-adv-x="1365" 
d="M468 1479q80 -1 206 -61t162 -70t65 -9q72 0 112 40t79 104l82 -48q-54 -106 -107 -152q-81 -72 -182 -72q-72 1 -224 71q-151 70 -205 70q-101 0 -185 -154l-80 52q41 82 75 126q81 103 202 103z" />
    <glyph glyph-name="nbspace" unicode="&#xa0;" horiz-adv-x="512" 
 />
    <glyph glyph-name="exclamdown" unicode="&#xa1;" horiz-adv-x="546" 
d="M191 972h164v-191h-164v191zM354 -328h-163l32 934h101z" />
    <glyph glyph-name="cent" unicode="&#xa2;" horiz-adv-x="1010" 
d="M520 1092q-98 0 -172 -95t-75 -310q0 -147 58 -266l245 664q-31 7 -56 7zM522 301q155 0 231 193l112 -47q-103 -255 -338 -255q-95 0 -174 44l-76 -175l-69 36l78 190q-44 43 -69 93q-72 140 -72 333t99 342q46 66 121 107t137 41t122 -13l55 156l75 -27l-57 -161
q101 -62 154 -215l-119 -42q-23 90 -80 141l-259 -692q67 -49 129 -49z" />
    <glyph glyph-name="sterling" unicode="&#xa3;" horiz-adv-x="1010" 
d="M354 241q-42 -1 -68 -23q-25 -22 -25 -52t37 -52q20 -13 54 -13q34 -1 54 19t37 47t15 29q-62 45 -104 45zM812 804v-123h-261q74 -171 74 -261t-26 -181q37 -31 95 -83t94 -53q66 0 97 136l102 -33q-21 -76 -44 -120t-69 -72t-102 -28t-100 34t-121 109
q-84 -144 -213 -144q-76 0 -134 52t-58 138q0 87 66 135t140 48q76 0 141 -54q9 43 9 74q0 123 -83 303h-228v123h185q-43 142 -43 238q-1 156 85 250t214 94t219 -106q35 -41 70 -109l-112 -51q-26 48 -49 78q-56 72 -144 72t-130 -94q-23 -54 -23 -153t55 -219h294z" />
    <glyph glyph-name="currency" unicode="&#xa4;" horiz-adv-x="1365" 
d="M682 1041q-148 0 -252 -105q-104 -106 -104 -254t104 -252t252 -104t254 104q104 104 104 254q0 148 -106 252t-252 105zM209 680q0 155 106 294l-193 191l73 73l191 -190q142 108 297 108t295 -108l191 189l72 -72l-190 -189q106 -140 106 -293t-105 -292l192 -191
l-72 -73l-192 191q-136 -105 -290 -105t-301 105l-190 -191l-72 73l188 191q-106 134 -106 289z" />
    <glyph glyph-name="yen" unicode="&#xa5;" horiz-adv-x="1010" 
d="M901 908v-123h-217l-84 -183h244v-123h-269v-479h-138v479h-257v123h235l-86 183h-220v123h166l-207 457h129l166 -369q63 -141 89 -206t56 -132q24 52 54 126t93 217l162 364h125l-204 -457h163z" />
    <glyph glyph-name="brokenbar" unicode="&#xa6;" 
d="M446 -341v655h133v-655h-133zM446 687v678h133v-678h-133z" />
    <glyph glyph-name="section" unicode="&#xa7;" horiz-adv-x="1010" 
d="M230 626q0 -80 62 -126t152 -82l159 -68q117 -51 151 -79q68 83 68 161t-98 148q-54 39 -202 100t-204 100q-88 -74 -88 -154zM508 1284q-104 0 -170 -57t-67 -145q0 -88 69 -144q68 -56 256 -134q188 -76 260 -136q100 -82 100 -215t-130 -233q95 -95 95 -199t-47 -181
q-98 -159 -344 -159t-371 169q-67 90 -104 217l126 38q31 -111 79 -177t124 -101t152 -35q121 0 184 66t63 128q1 62 -29 102t-88 72q-58 34 -266 122t-258 160q-50 73 -50 148q0 120 95 200q22 19 56 41q-109 91 -109 243t128 245q104 75 252 75q230 0 345 -178
q52 -82 75 -197l-122 -30q-67 295 -304 295z" />
    <glyph glyph-name="dieresis" unicode="&#xa8;" 
d="M593 1153v135h134v-135h-134zM296 1153v135h134v-135h-134z" />
    <glyph glyph-name="copyright" unicode="&#xa9;" horiz-adv-x="1531" 
d="M783 1023q-115 0 -170 -117q-42 -88 -42 -216q-1 -128 23 -198t75 -110t113 -39q106 0 164 108q22 39 31 87l100 -21q-15 -63 -42 -109q-83 -150 -254 -150q-131 0 -213 88q-100 106 -100 320q0 145 40 246q76 196 282 196t274 -253l-99 -24q-43 192 -182 192zM740 1318
q-142 0 -288 -90q-144 -90 -212 -240t-68 -302q0 -266 174 -452t420 -187t419 187q174 188 174 450q-1 128 -45 248t-125 206q-169 180 -449 180zM770 1405q187 -1 354 -103t246 -273t79 -361t-97 -366q-98 -174 -260 -258t-342 -84t-344 102t-244 273t-80 333t52 300
t144 233q192 204 492 204z" />
    <glyph glyph-name="ordfeminine" unicode="&#xaa;" horiz-adv-x="683" 
d="M215 968q0 -45 25 -67t54 -22q78 0 154 105v135q-116 -34 -145 -47q-88 -37 -88 -104zM343 1376q190 0 190 -200v-210q0 -85 17 -147h-93q-5 33 -8 77q-29 -32 -46 -47q-47 -42 -117 -42q-70 -1 -111 43q-42 44 -42 117q0 116 134 170q50 20 175 51l6 2q-1 40 -11 64
q-23 50 -102 50t-123 -87l-67 44q64 115 198 115z" />
    <glyph glyph-name="guillemotleft" unicode="&#xab;" horiz-adv-x="851" 
d="M61 473l252 374h116l-244 -374l265 -350h-123zM349 473l249 374h120l-247 -374l264 -350h-121z" />
    <glyph glyph-name="logicalnot" unicode="&#xac;" 
d="M955 0h-133v422h-754v124h887v-546z" />
    <glyph glyph-name="sfthyphen" unicode="&#xad;" horiz-adv-x="410" 
d="M0 549h410v-128h-410v128z" />
    <glyph glyph-name="registered" unicode="&#xae;" horiz-adv-x="1531" 
d="M620 1004v-277h108q110 0 150 18q72 31 72 129t-98 120q-40 8 -145 10h-87zM515 273v819h219q114 0 177 -21t102 -77t39 -140t-75 -148q-36 -32 -84 -45l165 -388h-114l-154 367l-9 2h-148l-13 -2v-367h-105zM740 1318q-142 0 -288 -90q-144 -90 -212 -240t-68 -302
q0 -266 174 -452t420 -187t419 187q174 188 174 450q-1 128 -45 248t-125 206q-169 180 -449 180zM770 1405q187 -1 354 -103t246 -273t79 -361t-97 -366q-98 -174 -260 -258t-342 -84t-344 102t-244 273t-80 333t52 300t144 233q192 204 492 204z" />
    <glyph glyph-name="overscore" unicode="&#xaf;" 
d="M0 1638v120h1024v-120h-1024z" />
    <glyph glyph-name="degree" unicode="&#xb0;" horiz-adv-x="1010" 
d="M508 1297q-86 0 -151 -63q-66 -63 -66 -150q-1 -87 57 -156t148 -69t157 63q66 63 66 153q-1 90 -63 156t-148 66zM514 1385q122 1 210 -91t88 -219t-91 -215t-222 -89q-131 0 -216 93t-85 212q0 67 28 130t77 104q89 75 211 75z" />
    <glyph glyph-name="plusminus" unicode="&#xb1;" horiz-adv-x="1010" 
d="M929 -14h-847v93h847v-93zM459 541h-377v93h377v376h93v-376h377v-93h-377v-336h-93v336z" />
    <glyph glyph-name="twosuperior" unicode="&#xb2;" horiz-adv-x="683" 
d="M584 632v-86h-498v71q12 47 68 127t162 166t138 134q32 46 32 104t-38 102t-90 43q-99 0 -140 -77q-20 -36 -40 -109l-94 23q22 80 50 131t87 83q58 32 127 32q110 0 172 -66t62 -162q0 -95 -58 -168q-32 -41 -122 -111q-183 -143 -219 -237h401z" />
    <glyph glyph-name="threesuperior" unicode="&#xb3;" horiz-adv-x="683" 
d="M346 1376q108 0 170 -60t61 -148q0 -135 -123 -186q82 -38 113 -86t31 -134t-68 -156t-188 -70t-205 77q-31 28 -69 86l78 51q30 -46 57 -72q59 -59 141 -59t120 48t38 107q0 161 -202 161q-30 0 -73 -5v95q36 -4 73 -4q181 0 181 142q0 62 -40 96t-98 34
q-94 0 -169 -104l-73 54q94 133 245 133z" />
    <glyph glyph-name="acute" unicode="&#xb4;" 
d="M530 1342h147l-123 -247h-98z" />
    <glyph glyph-name="mu" unicode="&#xb5;" 
d="M235 -342h-133v1325h133v-562q0 -121 19 -175q35 -99 128 -143q58 -27 122 -27q130 0 209 102q44 56 60 116t16 147v542h133v-983h-133v183q-40 -90 -87 -133q-82 -77 -198 -77t-196 66q-36 30 -73 89v-470z" />
    <glyph glyph-name="paragraph" unicode="&#xb6;" horiz-adv-x="1010" 
d="M607 -328h-138v970q-15 -1 -35 -1q-111 1 -197 49t-131 129t-45 192t68 206q106 148 378 148h525v-100h-118v-1593h-138v1593h-169v-1593z" />
    <glyph glyph-name="middot" unicode="&#xb7;" horiz-adv-x="492" 
d="M164 601h164v-191h-164v191z" />
    <glyph glyph-name="cedilla" unicode="&#xb8;" 
d="M688 -213q0 -47 -34 -81t-94 -34q-59 0 -115 28l19 73q43 -30 76 -30q64 0 64 43q0 28 -28 41t-46 13t-51 -2l38 162h72l-25 -102q124 -18 124 -111z" />
    <glyph glyph-name="onesuperior" unicode="&#xb9;" horiz-adv-x="683" 
d="M412 1373v-741h115v-86h-340v86h126v628l-140 -12v66l170 59h69z" />
    <glyph glyph-name="ordmasculine" unicode="&#xba;" horiz-adv-x="683" 
d="M206 1092q0 -212 136 -213q136 1 135 217q0 86 -27 138q-36 70 -106 70q-138 0 -138 -212zM345 1376q80 0 136 -52q79 -72 79 -248t-107 -240q-49 -30 -111 -29q-106 0 -162 78q-56 79 -56 205t56 206t165 80z" />
    <glyph glyph-name="guillemotright" unicode="&#xbb;" horiz-adv-x="851" 
d="M422 847h115l253 -374l-267 -350h-123l265 350zM132 847h121l249 -374l-265 -350h-121l263 350z" />
    <glyph glyph-name="onequarter" unicode="&#xbc;" horiz-adv-x="1596" 
d="M1327 285v436l-241 -436h241zM1428 829v-544h128v-86h-128v-199h-99v199h-343v72l307 558h135zM1124 1365h103l-756 -1365h-103zM412 1373v-741h115v-86h-340v86h126v628l-140 -12v66l170 59h69z" />
    <glyph glyph-name="onehalf" unicode="&#xbd;" horiz-adv-x="1596" 
d="M1497 86v-86h-499v71q12 43 68 125t162 168t138 134q32 46 32 105t-39 101t-89 43q-98 0 -140 -77q-20 -36 -40 -109l-94 23q22 80 50 131t87 83q58 32 128 32q110 0 172 -66t62 -162q0 -95 -58 -168q-33 -40 -132 -118t-149 -140t-61 -90h402zM1124 1365h103l-756 -1365
h-103zM412 1373v-741h115v-86h-340v86h126v628l-140 -12v66l170 59h69z" />
    <glyph glyph-name="threequarters" unicode="&#xbe;" horiz-adv-x="1596" 
d="M1327 285v436l-241 -436h241zM1428 829v-544h128v-86h-128v-199h-99v199h-343v72l307 558h135zM1124 1365h102l-755 -1365h-103zM346 1376q108 0 170 -60t61 -148q0 -135 -123 -186q82 -38 113 -86t31 -134t-68 -156t-188 -70t-205 77q-31 28 -69 86l78 51q30 -46 57 -72
q59 -59 141 -59t120 48t38 107q0 161 -202 161q-30 0 -73 -5v95q36 -4 73 -4q181 0 181 142q0 62 -40 96t-98 34q-94 0 -169 -104l-73 54q94 133 245 133z" />
    <glyph glyph-name="questiondown" unicode="&#xbf;" horiz-adv-x="703" 
d="M508 781h-164v191h164v-191zM354 -328q-127 0 -201 101q-54 73 -54 174q-1 101 39 175t90 134l81 98q42 52 52 96t10 114v53h110q2 -65 2 -113q0 -111 -61 -189l-90 -117q-102 -132 -102 -226t38 -142t102 -49q64 0 116 66q14 19 43 70l99 -62q-104 -183 -274 -183z" />
    <glyph glyph-name="Agrave" unicode="&#xc0;" horiz-adv-x="996" 
d="M471 1477l-128 246h153l76 -246h-101zM485 1151l-171 -594h384l-160 594q-18 67 -25 111q-7 -39 -28 -111zM732 431h-453l-126 -431h-146l403 1378h207l379 -1378h-149z" />
    <glyph glyph-name="Aacute" unicode="&#xc1;" horiz-adv-x="996" 
d="M544 1724h147l-123 -247h-98zM485 1151l-171 -594h384l-160 594q-18 67 -25 111q-7 -39 -28 -111zM732 431h-453l-126 -431h-146l403 1378h207l379 -1378h-149z" />
    <glyph glyph-name="Acircumflex" unicode="&#xc2;" horiz-adv-x="996" 
d="M566 1670l222 -193h-134l-156 104l-158 -104h-132l222 193h136zM485 1151l-171 -594h384l-160 594q-18 67 -25 111q-7 -39 -28 -111zM732 431h-453l-126 -431h-146l403 1378h207l379 -1378h-149z" />
    <glyph glyph-name="Atilde" unicode="&#xc3;" horiz-adv-x="996" 
d="M641 1619q71 0 86 62h88q-2 -67 -52 -118q-51 -51 -113 -51t-134 34t-101 33q-65 0 -85 -66h-94q4 60 32 98q51 71 139 71q47 0 99 -20l83 -33q24 -10 52 -10zM485 1151l-171 -594h384l-160 594q-18 67 -25 111q-7 -39 -28 -111zM732 431h-453l-126 -431h-146l403 1378
h207l379 -1378h-149z" />
    <glyph glyph-name="Adieresis" unicode="&#xc4;" horiz-adv-x="996" 
d="M593 1535v135h134v-135h-134zM296 1535v135h134v-135h-134zM485 1151l-171 -594h384l-160 594q-18 67 -25 111q-7 -39 -28 -111zM732 431h-453l-126 -431h-146l403 1378h207l379 -1378h-149z" />
    <glyph glyph-name="Aring" unicode="&#xc5;" horiz-adv-x="996" 
d="M515 1733q-41 0 -67 -29q-26 -28 -26 -68t28 -66t64 -25t64 27q27 26 27 66t-24 68q-25 27 -66 27zM347 1637q0 69 48 119t116 49q69 0 117 -50t48 -119q0 -68 -50 -116t-116 -48t-115 48q-48 48 -48 117zM485 1151l-171 -594h384l-160 594q-18 67 -25 111
q-7 -39 -28 -111zM732 431h-453l-126 -431h-146l403 1378h207l379 -1378h-149z" />
    <glyph glyph-name="AE" unicode="&#xc6;" horiz-adv-x="1597" 
d="M750 557v699h-19l-337 -699h356zM1511 1365v-126h-614v-459h444v-126h-444v-528h645v-126h-792v431h-419l-202 -431h-143l649 1365h876z" />
    <glyph glyph-name="Ccedilla" unicode="&#xc7;" horiz-adv-x="1115" 
d="M578 1264q-174 0 -260 -168t-86 -420t68 -394q44 -88 119 -136t158 -49q244 0 321 326l135 -30q-28 -191 -172 -321q-107 -93 -257 -99l-15 -77q42 -3 68 -19q55 -31 55 -83t-36 -86t-96 -35q-60 0 -114 28l18 68q46 -24 80 -24q62 0 61 41q-1 28 -29 42t-54 13
q-26 0 -41 -1l32 133q-172 16 -280 130q-171 180 -171 550q0 315 111 513q125 222 388 222q339 0 437 -405l-137 -37q-69 318 -303 318z" />
    <glyph glyph-name="Egrave" unicode="&#xc8;" horiz-adv-x="999" 
d="M513 1477l-128 246h153l76 -246h-101zM157 0v1365h760v-126h-613v-459h448v-126h-448v-528h641v-126h-788z" />
    <glyph glyph-name="Eacute" unicode="&#xc9;" horiz-adv-x="999" 
d="M545 1724h147l-123 -247h-98zM157 0v1365h760v-126h-613v-459h448v-126h-448v-528h641v-126h-788z" />
    <glyph glyph-name="Ecircumflex" unicode="&#xca;" horiz-adv-x="999" 
d="M595 1670l222 -193h-134l-156 104l-158 -104h-132l222 193h136zM157 0v1365h760v-126h-613v-459h448v-126h-448v-528h641v-126h-788z" />
    <glyph glyph-name="Edieresis" unicode="&#xcb;" horiz-adv-x="999" 
d="M622 1535v135h134v-135h-134zM325 1535v135h134v-135h-134zM157 0v1365h760v-126h-613v-459h448v-126h-448v-528h641v-126h-788z" />
    <glyph glyph-name="Igrave" unicode="&#xcc;" horiz-adv-x="461" 
d="M203 1477l-128 246h153l76 -246h-101zM157 1365h147v-1365h-147v1365z" />
    <glyph glyph-name="Iacute" unicode="&#xcd;" horiz-adv-x="461" 
d="M249 1724h147l-123 -247h-98zM157 1365h147v-1365h-147v1365z" />
    <glyph glyph-name="Icircumflex" unicode="&#xce;" horiz-adv-x="461" 
d="M299 1670l222 -193h-134l-156 104l-158 -104h-132l222 193h136zM157 1365h147v-1365h-147v1365z" />
    <glyph glyph-name="Idieresis" unicode="&#xcf;" horiz-adv-x="461" 
d="M285 1535v135h134v-135h-134zM42 1535v135h134v-135h-134zM157 1365h147v-1365h-147v1365z" />
    <glyph glyph-name="Eth" unicode="&#xd0;" horiz-adv-x="1155" 
d="M304 1239v-459h353v-126h-353v-528h98q106 0 146 2t86 16q296 77 296 539q0 340 -152 468q-103 88 -351 88h-123zM448 0h-291v654h-123v126h123v585h227q122 -1 230 -13q233 -27 359 -233q100 -163 100 -420q1 -257 -79 -414t-210 -221t-336 -64z" />
    <glyph glyph-name="Ntilde" unicode="&#xd1;" horiz-adv-x="1196" 
d="M714 1619q71 0 86 62h88q-2 -67 -52 -118t-112 -51t-135 34q-72 34 -101 33q-66 0 -85 -66h-94q4 60 32 98q51 71 139 71q47 0 99 -20l83 -33q24 -10 52 -10zM892 1365h147v-1365h-121l-557 1101q-23 47 -41 91t-35 74q20 -143 19 -334v-932h-147v1365h204l478 -932
q38 -78 79 -188q-21 115 -26 338v782z" />
    <glyph glyph-name="Ograve" unicode="&#xd2;" horiz-adv-x="1177" 
d="M575 1477l-128 246h153l76 -246h-101zM590 1271q-112 0 -205 -78q-159 -135 -159 -517q0 -240 73 -387q94 -193 288 -193q161 0 263 143t101 468q0 176 -28 272q-41 139 -131 215t-202 77zM595 1392q170 0 304 -122q196 -180 196 -573q0 -248 -79 -431
q-53 -120 -144 -193q-122 -98 -294 -98t-302 124q-110 103 -159 294q-35 132 -35 291q0 308 121 496q65 102 167 157t225 55z" />
    <glyph glyph-name="Oacute" unicode="&#xd3;" horiz-adv-x="1177" 
d="M607 1724h147l-123 -247h-98zM590 1271q-112 0 -205 -78q-159 -135 -159 -517q0 -240 73 -387q94 -193 288 -193q161 0 263 143t101 468q0 176 -28 272q-41 139 -131 215t-202 77zM595 1392q170 0 304 -122q196 -180 196 -573q0 -248 -79 -431q-53 -120 -144 -193
q-122 -98 -294 -98t-302 124q-110 103 -159 294q-35 132 -35 291q0 308 121 496q65 102 167 157t225 55z" />
    <glyph glyph-name="Ocircumflex" unicode="&#xd4;" horiz-adv-x="1177" 
d="M657 1670l222 -193h-134l-156 104l-158 -104h-132l222 193h136zM590 1271q-112 0 -205 -78q-159 -135 -159 -517q0 -240 73 -387q94 -193 288 -193q161 0 263 143t101 468q0 176 -28 272q-41 139 -131 215t-202 77zM595 1392q170 0 304 -122q196 -180 196 -573
q0 -248 -79 -431q-53 -120 -144 -193q-122 -98 -294 -98t-302 124q-110 103 -159 294q-35 132 -35 291q0 308 121 496q65 102 167 157t225 55z" />
    <glyph glyph-name="Otilde" unicode="&#xd5;" horiz-adv-x="1177" 
d="M704 1619q71 0 86 62h88q-2 -67 -52 -118t-112 -51t-135 34q-72 34 -101 33q-66 0 -85 -66h-94q4 60 32 98q51 71 139 71q47 0 99 -20l83 -33q24 -10 52 -10zM590 1271q-112 0 -205 -78q-159 -135 -159 -517q0 -240 73 -387q94 -193 288 -193q161 0 263 143t101 468
q0 176 -28 272q-41 139 -131 215t-202 77zM595 1392q170 0 304 -122q196 -180 196 -573q0 -248 -79 -431q-53 -120 -144 -193q-122 -98 -294 -98t-302 124q-110 103 -159 294q-35 132 -35 291q0 308 121 496q65 102 167 157t225 55z" />
    <glyph glyph-name="Odieresis" unicode="&#xd6;" horiz-adv-x="1177" 
d="M670 1535v135h134v-135h-134zM373 1535v135h134v-135h-134zM590 1271q-112 0 -205 -78q-159 -135 -159 -517q0 -240 73 -387q94 -193 288 -193q161 0 263 143t101 468q0 176 -28 272q-41 139 -131 215t-202 77zM595 1392q170 0 304 -122q196 -180 196 -573
q0 -248 -79 -431q-53 -120 -144 -193q-122 -98 -294 -98t-302 124q-110 103 -159 294q-35 132 -35 290q0 293 106 474q138 235 407 235z" />
    <glyph glyph-name="multiply" unicode="&#xd7;" horiz-adv-x="1010" 
d="M505 521l-314 -314l-66 65l315 315l-315 315l66 65l314 -314l315 314l66 -65l-315 -315l315 -315l-66 -65z" />
    <glyph glyph-name="Oslash" unicode="&#xd8;" horiz-adv-x="1176" 
d="M590 1264q-142 0 -242 -117q-127 -145 -127 -474q0 -177 51 -340l560 816q-100 115 -242 115zM586 97q191 1 277 173t86 402t-63 393l-566 -826q43 -51 75 -77q83 -65 191 -65zM1095 688q0 -312 -120 -503q-63 -101 -164 -157t-224 -56q-207 0 -342 154l-124 -177l-72 62
l134 198q-102 198 -102 468q0 335 135 523q65 91 162 140t210 49q190 0 315 -128l110 155l72 -66l-115 -168q125 -182 125 -494z" />
    <glyph glyph-name="Ugrave" unicode="&#xd9;" horiz-adv-x="1173" 
d="M572 1477l-128 246h153l76 -246h-101zM143 1365h147v-887q0 -132 23 -210q51 -171 268 -171t273 163q28 80 28 201v904h147v-887q0 -98 -8 -154q-25 -186 -168 -278q-112 -71 -282 -71q-235 0 -344 148q-64 85 -74 177t-10 189v876z" />
    <glyph glyph-name="Uacute" unicode="&#xda;" horiz-adv-x="1173" 
d="M604 1724h147l-123 -247h-98zM143 1365h147v-887q0 -132 23 -210q51 -171 268 -171t273 163q28 80 28 201v904h147v-887q0 -98 -8 -154q-25 -186 -168 -278q-112 -71 -282 -71q-235 0 -344 148q-64 85 -74 177t-10 189v876z" />
    <glyph glyph-name="Ucircumflex" unicode="&#xdb;" horiz-adv-x="1173" 
d="M654 1670l222 -193h-134l-156 104l-158 -104h-132l222 193h136zM143 1365h147v-887q0 -132 23 -210q51 -171 268 -171t273 163q28 80 28 201v904h147v-887q0 -98 -8 -154q-25 -186 -168 -278q-112 -71 -282 -71q-235 0 -344 148q-64 85 -74 177t-10 189v876z" />
    <glyph glyph-name="Udieresis" unicode="&#xdc;" horiz-adv-x="1173" 
d="M667 1535v135h134v-135h-134zM370 1535v135h134v-135h-134zM143 1365h147v-887q0 -132 23 -210q51 -171 268 -171t273 163q28 80 28 201v904h147v-887q0 -98 -8 -154q-25 -186 -168 -278q-112 -71 -282 -71q-235 0 -344 148q-64 85 -74 177t-10 189v876z" />
    <glyph glyph-name="Yacute" unicode="&#xdd;" horiz-adv-x="903" 
d="M470 1724h147l-123 -247h-98zM532 0h-147v577l-405 788h157l294 -574l8 -21q17 -35 23 -54q10 42 25 75l278 574h158l-391 -764v-601z" />
    <glyph glyph-name="Thorn" unicode="&#xde;" horiz-adv-x="1029" 
d="M304 1035v-508h201q121 0 175 19q96 31 137 122q22 50 22 110q0 108 -68 182q-37 39 -101 57t-187 18h-179zM157 0v1365h147v-204h196q166 0 264 -37q98 -36 158 -132t60 -214q0 -170 -119 -278q-79 -71 -163 -85t-185 -14h-211v-401h-147z" />
    <glyph glyph-name="germandbls" unicode="&#xdf;" horiz-adv-x="915" 
d="M264 0h-134v1063q0 219 161 290q73 32 152 32q175 0 245 -123q39 -72 39 -162q-1 -90 -33 -142t-104 -89q80 -28 133 -81q127 -130 127 -347t-98 -339t-282 -122q-63 0 -131 20v113q41 -24 122 -24q181 0 238 182q23 77 23 158q0 163 -71 255t-255 93q-30 0 -57 -1v93
q17 -1 37 -1q110 0 166 57t56 155t-45 147q-45 48 -120 48q-117 0 -149 -95q-20 -60 -20 -196v-984z" />
    <glyph glyph-name="agrave" unicode="&#xe0;" horiz-adv-x="898" 
d="M415 1095l-128 246h153l76 -246h-101zM194 250q0 -76 49 -118t104 -42q145 0 288 197v259q-203 -56 -287 -92t-119 -82t-35 -122zM435 990q155 0 247 -84q57 -51 72 -118t15 -150v-382q-1 -154 27 -256h-146q-9 48 -15 155q-56 -68 -97 -103q-85 -73 -206 -73
q-121 1 -194 77t-73 200q0 175 146 258q99 56 294 107l130 33q-3 86 -21 130t-66 69q-48 26 -112 26q-165 0 -241 -154l-105 69q111 196 345 196z" />
    <glyph glyph-name="aacute" unicode="&#xe1;" horiz-adv-x="898" 
d="M468 1342h147l-123 -247h-98zM194 250q0 -76 49 -118t104 -42q145 0 288 197v259q-203 -56 -287 -92t-119 -82t-35 -122zM435 990q155 0 247 -84q57 -51 72 -118t15 -150v-382q-1 -154 27 -256h-146q-9 48 -15 155q-56 -68 -97 -103q-85 -73 -206 -73q-121 1 -194 77
t-73 200q0 175 146 258q99 56 294 107l130 33q-3 86 -21 130t-66 69q-48 26 -112 26q-165 0 -241 -154l-105 69q111 196 345 196z" />
    <glyph glyph-name="acircumflex" unicode="&#xe2;" horiz-adv-x="898" 
d="M497 1342l167 -247h-133l-102 159l-103 -159h-132l167 247h136zM194 250q0 -76 49 -118t104 -42q145 0 288 197v259q-203 -56 -287 -92t-119 -82t-35 -122zM435 990q155 0 247 -84q57 -51 72 -118t15 -150v-382q-1 -154 27 -256h-146q-9 48 -15 155q-56 -68 -97 -103
q-85 -73 -206 -73q-121 1 -194 77t-73 200q0 175 146 258q99 56 294 107l130 33q-3 86 -21 130t-66 69q-48 26 -112 26q-165 0 -241 -154l-105 69q111 196 345 196z" />
    <glyph glyph-name="atilde" unicode="&#xe3;" horiz-adv-x="898" 
d="M548 1128q-58 0 -126 34t-95 33q-45 0 -59 -65h-94q4 57 27 98q39 71 114 71q45 0 95 -21l83 -33q28 -11 48 -11q49 0 55 64h89q-3 -66 -41 -118t-96 -52zM194 250q0 -76 49 -118t104 -42q145 0 288 197v259q-203 -56 -287 -92t-119 -82t-35 -122zM435 990q155 0 247 -84
q57 -51 72 -118t15 -150v-382q-1 -154 27 -256h-146q-9 48 -15 155q-56 -68 -97 -103q-85 -73 -206 -73q-121 1 -194 77t-73 200q0 175 146 258q99 56 294 107l130 33q-3 86 -21 130t-66 69q-48 26 -112 26q-165 0 -241 -154l-105 69q111 196 345 196z" />
    <glyph glyph-name="adieresis" unicode="&#xe4;" horiz-adv-x="898" 
d="M531 1153v135h134v-135h-134zM234 1153v135h134v-135h-134zM194 250q0 -76 49 -118t104 -42q145 0 288 197v259q-203 -56 -287 -92t-119 -82t-35 -122zM435 990q155 0 247 -84q57 -51 72 -118t15 -150v-382q-1 -154 27 -256h-146q-9 48 -15 155q-56 -68 -97 -103
q-85 -73 -206 -73q-121 1 -194 77t-73 200q0 175 146 258q99 56 294 107l130 33q-3 86 -21 130t-66 69q-48 26 -112 26q-165 0 -241 -154l-105 69q111 196 345 196z" />
    <glyph glyph-name="aring" unicode="&#xe5;" horiz-adv-x="898" 
d="M347 1253q0 -39 28 -65q29 -26 65 -25q36 0 63 26t27 67q0 42 -25 68t-65 26t-67 -29q-26 -29 -26 -68zM436 1422q68 0 116 -50t49 -118q-1 -68 -49 -116t-115 -48t-117 48q-48 48 -48 117t48 118t116 49zM194 250q0 -76 49 -118t104 -42q145 0 288 197v259
q-203 -56 -287 -92t-119 -82t-35 -122zM435 990q155 0 247 -84q57 -51 72 -118t15 -150v-382q-1 -154 27 -256h-146q-9 48 -15 155q-56 -68 -97 -103q-85 -73 -206 -73q-121 1 -194 77t-73 200q0 175 146 258q99 56 294 107l130 33q-3 86 -21 130t-66 69q-48 26 -112 26
q-165 0 -241 -154l-105 69q111 196 345 196z" />
    <glyph glyph-name="ae" unicode="&#xe6;" horiz-adv-x="1438" 
d="M182 238q0 -82 75 -129q38 -23 81 -23q137 0 316 203q-26 76 -26 203q0 26 1 47q-150 -41 -252 -79q-103 -38 -149 -90q-46 -50 -46 -132zM1006 879q-134 0 -205 -132q-37 -67 -47 -167h468q-4 93 -30 159q-52 140 -186 140zM1033 90q99 0 179 86q30 33 68 94l93 -62
q-137 -228 -347 -228q-142 0 -251 98q-49 45 -84 110q-175 -208 -374 -208q-135 0 -209 95q-53 68 -53 168q1 150 111 235t463 165q-1 89 -19 133t-68 74q-50 29 -110 29q-124 0 -204 -93q-18 -21 -47 -71l-103 71q46 72 94 114q100 90 248 90t228 -78q37 -35 61 -113
q101 191 299 191q156 0 250 -123q76 -97 94 -276q5 -59 8 -124h-606q4 -103 29 -180t88 -137t162 -60z" />
    <glyph glyph-name="ccedilla" unicode="&#xe7;" horiz-adv-x="838" 
d="M425 -257q63 0 63 41q0 57 -102 57q-12 0 -23 -1l33 140q-224 39 -300 286q-30 99 -30 204q0 203 89 352q49 84 129 126t169 42q234 0 324 -261l-120 -41q-56 189 -211 189q-90 0 -155 -77q-88 -103 -88 -345t133 -329q54 -36 114 -36q145 0 235 190l101 -46
q-43 -119 -118 -179t-201 -75l-18 -81q124 -16 124 -115q0 -46 -36 -80t-98 -34t-111 31l17 70q49 -28 80 -28z" />
    <glyph glyph-name="egrave" unicode="&#xe8;" horiz-adv-x="882" 
d="M407 1095l-128 246h153l76 -246h-101zM443 880q-91 0 -160 -72t-81 -228h457q-2 101 -32 168q-60 132 -184 132zM479 -21q-146 0 -249 83q-164 132 -164 432q0 235 119 378q97 118 261 118q224 0 313 -237q40 -106 42 -286h-599q4 -234 129 -331q62 -47 140 -47
q119 0 203 113q20 26 49 77l94 -64q-31 -62 -78 -112q-114 -124 -260 -124z" />
    <glyph glyph-name="eacute" unicode="&#xe9;" horiz-adv-x="882" 
d="M460 1342h147l-123 -247h-98zM443 880q-91 0 -160 -72t-81 -228h457q-2 101 -32 168q-60 132 -184 132zM479 -21q-146 0 -249 83q-164 132 -164 432q0 235 119 378q97 118 261 118q224 0 313 -237q40 -106 42 -286h-599q4 -234 129 -331q62 -47 140 -47q119 0 203 113
q20 26 49 77l94 -64q-31 -62 -78 -112q-114 -124 -260 -124z" />
    <glyph glyph-name="ecircumflex" unicode="&#xea;" horiz-adv-x="882" 
d="M523 1342l167 -247h-133l-102 159l-103 -159h-132l167 247h136zM443 880q-91 0 -160 -72t-81 -228h457q-2 101 -32 168q-60 132 -184 132zM479 -21q-146 0 -249 83q-164 132 -164 432q0 235 119 378q97 118 261 118q224 0 313 -237q40 -106 42 -286h-599q4 -234 129 -331
q62 -47 140 -47q119 0 203 113q20 26 49 77l94 -64q-31 -62 -78 -112q-114 -124 -260 -124z" />
    <glyph glyph-name="edieresis" unicode="&#xeb;" horiz-adv-x="882" 
d="M523 1153v135h134v-135h-134zM226 1153v135h134v-135h-134zM443 880q-91 0 -160 -72t-81 -228h457q-2 101 -32 168q-60 132 -184 132zM479 -21q-146 0 -249 83q-164 132 -164 432q0 235 119 378q97 118 261 118q224 0 313 -237q40 -106 42 -286h-599q4 -234 129 -331
q62 -47 140 -47q119 0 203 113q20 26 49 77l94 -64q-31 -62 -78 -112q-114 -124 -260 -124z" />
    <glyph glyph-name="igrave" unicode="&#xec;" horiz-adv-x="393" 
d="M162 1095l-128 246h153l76 -246h-101zM129 972h134v-972h-134v972z" />
    <glyph glyph-name="iacute" unicode="&#xed;" horiz-adv-x="393" 
d="M215 1342h147l-123 -247h-98zM130 972h134v-972h-134v972z" />
    <glyph glyph-name="icircumflex" unicode="&#xee;" horiz-adv-x="393" 
d="M264 1342l167 -247h-133l-102 159l-103 -159h-132l167 247h136zM129 972h134v-972h-134v972z" />
    <glyph glyph-name="idieresis" unicode="&#xef;" horiz-adv-x="393" 
d="M251 1153v135h134v-135h-134zM8 1153v135h134v-135h-134zM130 972h134v-972h-134v972z" />
    <glyph glyph-name="eth" unicode="&#xf0;" horiz-adv-x="900" 
d="M452 879q-62 0 -115 -31t-84 -81q-59 -99 -59 -283q0 -287 143 -365q53 -29 113 -29q149 0 211 140q46 105 46 262q1 267 -137 352q-56 35 -118 35zM835 462q0 -186 -72 -314q-46 -84 -131 -128t-180 -43q-186 0 -286 136q-100 135 -100 361t100 371t296 145q40 0 84 -12
l-104 216l-143 -76l-38 76l148 79l-72 148l73 41l79 -145l156 83l38 -70l-149 -83l144 -266q92 -167 112 -218q45 -115 45 -301z" />
    <glyph glyph-name="ntilde" unicode="&#xf1;" horiz-adv-x="952" 
d="M596 1128q-58 0 -126 34t-96 33q-45 0 -59 -65h-94q4 57 27 98q39 71 114 71q46 0 95 -21l83 -33q28 -11 48 -11q49 0 55 64h89q-2 -66 -40 -118t-96 -52zM545 879q-117 0 -281 -164v-715h-134v972h134v-154q146 173 316 173q62 0 118 -31q56 -32 85 -78q27 -46 33 -109
t6 -135v-638h-134v638q0 107 -10 146t-50 67q-38 28 -83 28z" />
    <glyph glyph-name="ograve" unicode="&#xf2;" horiz-adv-x="900" 
d="M416 1095l-128 246h153l76 -246h-101zM450 879q-62 0 -114 -31t-83 -81q-59 -99 -59 -283q0 -287 143 -365q53 -29 112 -29q149 0 211 140q46 105 46 262q0 267 -138 352q-56 35 -118 35zM456 990q139 0 240 -92q140 -128 140 -424q0 -172 -60 -300q-38 -78 -118 -136
t-188 -59q-205 1 -305 139q-99 138 -99 362t98 367t292 143z" />
    <glyph glyph-name="oacute" unicode="&#xf3;" horiz-adv-x="900" 
d="M469 1342h147l-123 -247h-98zM450 879q-62 0 -114 -31t-83 -81q-59 -99 -59 -283q0 -287 143 -365q53 -29 112 -29q149 0 211 140q46 105 46 262q0 267 -138 352q-56 35 -118 35zM456 990q139 0 240 -92q140 -128 140 -424q0 -172 -60 -300q-38 -78 -118 -136t-188 -59
q-205 1 -305 139q-99 138 -99 362t98 367t292 143z" />
    <glyph glyph-name="ocircumflex" unicode="&#xf4;" horiz-adv-x="900" 
d="M518 1342l167 -247h-133l-102 159l-103 -159h-132l167 247h136zM450 879q-62 0 -114 -31t-83 -81q-59 -99 -59 -283q0 -287 143 -365q53 -29 112 -29q149 0 211 140q46 105 46 262q0 267 -138 352q-56 35 -118 35zM456 990q139 0 240 -92q140 -128 140 -424
q0 -172 -60 -300q-38 -78 -118 -136t-188 -59q-205 1 -305 139q-99 138 -99 362t98 367t292 143z" />
    <glyph glyph-name="otilde" unicode="&#xf5;" horiz-adv-x="900" 
d="M570 1128q-58 0 -126 34t-96 33q-45 0 -59 -65h-94q4 57 27 98q39 71 114 71q46 0 95 -21l83 -33q28 -11 48 -11q49 0 55 64h89q-2 -66 -40 -118t-96 -52zM450 879q-62 0 -114 -31t-83 -81q-59 -99 -59 -283q0 -287 143 -365q53 -29 112 -29q149 0 211 140q46 105 46 262
q0 267 -138 352q-56 35 -118 35zM456 990q139 0 240 -92q140 -128 140 -424q0 -172 -60 -300q-38 -78 -118 -136t-188 -59q-205 1 -305 139q-99 138 -99 362t98 367t292 143z" />
    <glyph glyph-name="odieresis" unicode="&#xf6;" horiz-adv-x="900" 
d="M532 1153v135h134v-135h-134zM235 1153v135h134v-135h-134zM450 879q-62 0 -114 -31t-83 -81q-59 -99 -59 -283q0 -287 143 -365q53 -29 112 -29q149 0 211 140q46 105 46 262q0 267 -138 352q-56 35 -118 35zM456 990q139 0 240 -92q140 -128 140 -424q0 -172 -60 -300
q-38 -78 -118 -136t-188 -59q-205 1 -305 139q-99 138 -99 362t98 367t292 143z" />
    <glyph glyph-name="divide" unicode="&#xf7;" horiz-adv-x="1010" 
d="M929 541h-847v93h847v-93zM412 398h191v-218h-191v218zM412 986h191v-218h-191v218z" />
    <glyph glyph-name="oslash" unicode="&#xf8;" horiz-adv-x="902" 
d="M455 879q-125 0 -193 -104q-68 -105 -69 -279q0 -174 48 -284l383 591q-80 76 -169 76zM450 88q145 0 214 139q47 95 47 249t-37 244l-378 -581q74 -51 154 -51zM837 486q-1 -359 -209 -466q-80 -41 -188 -41t-204 63l-63 -94l-66 52l66 113q-107 128 -107 375
q0 332 202 454q80 48 198 49q117 0 221 -87l73 111l63 -59l-76 -119q90 -131 90 -351z" />
    <glyph glyph-name="ugrave" unicode="&#xf9;" horiz-adv-x="950" 
d="M455 1095l-128 246h153l76 -246h-101zM687 972h134v-972h-134v154q-54 -64 -95 -97q-98 -78 -208 -78q-70 0 -130 31t-85 79q-39 77 -39 286v597h134v-597q0 -83 6 -143t42 -102q36 -40 95 -40q105 0 208 98q20 19 72 74v710z" />
    <glyph glyph-name="uacute" unicode="&#xfa;" horiz-adv-x="950" 
d="M494 1342h147l-123 -247h-98zM687 972h134v-972h-134v154q-54 -64 -95 -97q-98 -78 -208 -78q-70 0 -130 31t-85 79q-39 77 -39 286v597h134v-597q0 -83 6 -143t42 -102q36 -40 95 -40q105 0 208 98q20 19 72 74v710z" />
    <glyph glyph-name="ucircumflex" unicode="&#xfb;" horiz-adv-x="950" 
d="M543 1342l167 -247h-133l-102 159l-103 -159h-132l167 247h136zM687 972h134v-972h-134v154q-54 -64 -95 -97q-98 -78 -208 -78q-70 0 -130 31t-85 79q-39 77 -39 286v597h134v-597q0 -83 6 -143t42 -102q36 -40 95 -40q105 0 208 98q20 19 72 74v710z" />
    <glyph glyph-name="udieresis" unicode="&#xfc;" horiz-adv-x="950" 
d="M557 1153v135h134v-135h-134zM260 1153v135h134v-135h-134zM687 972h134v-972h-134v154q-54 -64 -95 -97q-98 -78 -208 -78q-70 0 -130 31t-85 79q-39 77 -39 286v597h134v-597q0 -83 6 -143t42 -102q36 -40 95 -40q105 0 208 98q20 19 72 74v710z" />
    <glyph glyph-name="yacute" unicode="&#xfd;" horiz-adv-x="775" 
d="M406 1342h147l-123 -247h-98zM128 -333q-46 0 -135 18l15 117q61 -21 97 -21q93 0 153 81q40 54 76 138l-326 972h128l217 -635q24 -69 47 -153q10 40 33 121l216 667h133l-300 -909q-51 -159 -112 -255q-88 -141 -242 -141z" />
    <glyph glyph-name="thorn" unicode="&#xfe;" horiz-adv-x="946" 
d="M490 88q148 0 219 153q44 97 44 279t-72 271q-72 90 -174 90t-196 -94q-14 -14 -47 -54v-511q119 -134 226 -134zM264 859q126 132 246 132q166 0 268 -128q103 -127 103 -355t-94 -373q-47 -73 -122 -115t-162 -42t-170 68q-29 24 -69 67v-441h-134v1693h134v-506z" />
    <glyph glyph-name="ydieresis" unicode="&#xff;" horiz-adv-x="775" 
d="M469 1153v135h134v-135h-134zM172 1153v135h134v-135h-134zM128 -333q-46 0 -135 18l15 117q61 -21 97 -21q93 0 153 81q40 54 76 138l-326 972h128l217 -635q24 -69 47 -153q10 40 33 121l216 667h133l-300 -909q-51 -159 -112 -255q-88 -141 -242 -141z" />
    <glyph glyph-name="Cacute" unicode="&#x106;" horiz-adv-x="1120" 
d="M578 1273q-193 0 -284 -205q-69 -154 -69 -369q-1 -215 39 -341t123 -194t191 -68q176 0 273 189q36 71 49 140l138 -31q-21 -93 -62 -171q-131 -248 -400 -248q-210 0 -338 146q-157 179 -157 538q0 237 61 400q125 334 438 334q332 0 438 -409l-138 -35
q-72 324 -302 324zM579 1724h147l-123 -247h-98z" />
    <glyph glyph-name="cacute" unicode="&#x107;" horiz-adv-x="837" 
d="M449 -21q-183 0 -283 144q-100 143 -100 357t99 361q47 69 124 109t165 40q226 0 318 -261l-119 -41q-14 55 -40 94q-63 97 -167 97q-135 0 -199 -130q-53 -107 -53 -271q0 -277 149 -361q50 -29 102 -29q153 0 229 193l112 -47q-104 -255 -337 -255zM437 1342h147
l-123 -247h-98z" />
    <glyph glyph-name="Ccaron" unicode="&#x10c;" horiz-adv-x="1120" 
d="M578 1273q-193 0 -284 -205q-69 -154 -69 -369q-1 -215 39 -341t123 -194t191 -68q176 0 273 189q36 71 49 140l138 -31q-21 -93 -62 -171q-131 -248 -400 -248q-210 0 -338 146q-157 179 -157 538q0 237 61 400q125 334 438 334q332 0 438 -409l-138 -35
q-72 324 -302 324zM730 1670h134l-222 -193h-136l-222 193h132l158 -104z" />
    <glyph glyph-name="ccaron" unicode="&#x10d;" horiz-adv-x="837" 
d="M449 -21q-183 0 -283 144q-100 143 -100 357t99 361q47 69 124 109t165 40q226 0 318 -261l-119 -41q-14 55 -40 94q-63 97 -167 97q-135 0 -199 -130q-53 -107 -53 -271q0 -277 149 -361q50 -29 102 -29q153 0 229 193l112 -47q-104 -255 -337 -255zM376 1096l-165 246
h133l100 -156l103 156h134l-166 -246h-139z" />
    <glyph glyph-name="dmacron" unicode="&#x111;" horiz-adv-x="939" 
d="M435 90q136 0 241 167v493q-31 37 -57 61q-77 69 -162 69q-128 0 -205 -129q-58 -97 -58 -278t68 -282t173 -101zM676 1134h-341v104h341v127h134v-127h123v-104h-123v-859q2 -165 14 -275h-133q-9 62 -15 130q-105 -150 -244 -150t-234 101q-132 139 -132 402
q0 215 96 354q103 154 284 154q90 0 166 -64q24 -20 64 -68v275z" />
    <glyph glyph-name="Gbreve" unicode="&#x11e;" horiz-adv-x="1133" 
d="M589 1271q-78 0 -146 -37q-218 -120 -218 -560q-1 -298 101 -438t268 -140q127 0 206 87t91 237q3 38 3 108h-296v126h426v-654h-113v163q-57 -79 -102 -115q-89 -73 -242 -73q-153 1 -275 103t-177 316q-33 130 -33 289q0 308 127 505q64 99 164 152t223 53
q195 0 316 -144q91 -106 112 -261l-130 -38q-68 321 -305 321zM581 1623q146 0 193 101h95q-3 -69 -45 -120q-86 -107 -233 -107t-235 82q-48 44 -65 145h97q5 -28 30 -50q58 -51 163 -51z" />
    <glyph glyph-name="gbreve" unicode="&#x11f;" horiz-adv-x="872" 
d="M191 -87q0 -132 265 -132q156 0 235 41q77 41 77 111q0 90 -138 113q-30 4 -138 12t-115 7l-48 -18q-67 -23 -103 -51t-35 -83zM666 669q0 95 -66 153t-161 58t-149 -69t-55 -169t61 -158t152 -58q120 0 178 87q40 61 40 156zM860 893q-78 0 -139 -34q73 -95 73 -217
t-90 -224t-250 -103q-72 0 -147 32l-53 -48q-19 -19 -19 -43q0 -44 84 -61q18 -3 169 -14q152 -11 214 -25t104 -42q91 -61 91 -172q0 -140 -142 -213q-111 -58 -303 -58q-192 -1 -290 63t-99 159q0 136 183 200q-47 9 -76 28q-64 41 -64 99t52 107q26 25 88 60
q-139 107 -139 261q1 154 97 248t232 95q136 0 224 -67q102 86 224 85v-117q-11 1 -24 1zM437 1207q120 0 159 135h95q-1 -75 -39 -134q-76 -120 -206 -120t-208 92q-44 52 -57 162h97q3 -34 23 -63q48 -72 136 -72z" />
    <glyph glyph-name="Idot" unicode="&#x130;" horiz-adv-x="461" 
d="M157 1365h147v-1365h-147v1365zM164 1535v135h134v-135h-134z" />
    <glyph glyph-name="dotlessi" unicode="&#x131;" horiz-adv-x="393" 
d="M130 972h134v-972h-134v972z" />
    <glyph glyph-name="Lslash" unicode="&#x141;" horiz-adv-x="902" 
d="M304 1365v-619l337 255v-128l-337 -254v-493h591v-126h-738v544l-137 -103v127l137 103v694h147z" />
    <glyph glyph-name="lslash" unicode="&#x142;" horiz-adv-x="393" 
d="M264 1365v-524l164 122v-107l-164 -122v-734h-134v677l-134 -101v108l134 101v580h134z" />
    <glyph glyph-name="OE" unicode="&#x152;" horiz-adv-x="1775" 
d="M225 702q0 -260 83 -424q92 -181 300 -181q106 0 198 85q139 132 139 504q0 258 -79 404q-96 180 -297 180q-100 0 -192 -80q-152 -132 -152 -488zM583 1393q251 0 356 -197v169h750v-126h-609v-459h440v-126h-440v-528h640v-126h-781v156q-130 -181 -354 -181
q-223 1 -363 193t-140 513t120 506q64 99 163 153t218 53z" />
    <glyph glyph-name="oe" unicode="&#x153;" horiz-adv-x="1516" 
d="M431 880q-81 0 -159 -84t-78 -312q0 -164 56 -271q62 -123 202 -123t200 114t59 280q0 166 -55 268q-66 128 -225 128zM1086 879q-129 0 -196 -142q-32 -66 -42 -157h460q-4 106 -36 175q-57 124 -186 124zM848 467q0 -212 112 -316q66 -61 170 -61t191 114q16 20 44 64
l85 -62q-38 -69 -91 -120q-109 -106 -251 -106q-214 0 -330 195q-115 -196 -312 -196q-196 1 -298 137t-102 358t88 358q48 74 128 116t173 42q219 0 323 -195q45 73 84 109q95 86 233 86q238 0 319 -252q32 -99 36 -271h-602z" />
    <glyph glyph-name="Scedilla" unicode="&#x15e;" horiz-adv-x="999" 
d="M522 97q138 0 202 78t64 185t-95 182q-51 38 -184 85t-210 84q-202 100 -202 317q-1 168 115 266t288 98q311 0 410 -344l-133 -40q-67 262 -287 262q-127 0 -188 -73t-61 -153q0 -131 122 -203q37 -23 189 -77t232 -109t114 -137t34 -158q0 -150 -100 -262t-288 -123
l-19 -77q124 -19 124 -112q-1 -48 -35 -81t-92 -33t-116 28l18 72q44 -29 77 -29q64 0 64 42q0 19 -16 34q-17 15 -41 16t-44 1t-25 2l33 139q-330 26 -431 367l133 45q32 -93 66 -146q90 -146 282 -146z" />
    <glyph glyph-name="scedilla" unicode="&#x15f;" horiz-adv-x="807" 
d="M405 879q-70 1 -124 -39t-54 -101q1 -61 35 -94t154 -74t165 -62q167 -81 167 -242q0 -107 -72 -190t-213 -97l-20 -82q123 -18 123 -112q0 -46 -34 -80t-94 -34q-58 0 -115 28l19 72q44 -29 76 -29q64 0 64 43q0 29 -29 41t-55 12t-41 -1l34 143q-221 23 -332 199
l111 63q102 -153 261 -153q95 0 142 49t47 107t-35 97t-148 81t-187 72q-74 32 -122 109q-30 49 -30 119q0 132 103 208q79 58 217 58t243 -100q26 -25 66 -71l-98 -72q-90 132 -224 132z" />
    <glyph glyph-name="Scaron" unicode="&#x160;" horiz-adv-x="999" 
d="M656 1670h134l-222 -193h-136l-222 193h132l158 -104zM490 1271q-127 0 -188 -73t-61 -154q0 -130 122 -202q41 -24 189 -78t230 -108t116 -137t34 -159q0 -181 -130 -293q-107 -92 -284 -92q-257 0 -390 187q-55 76 -87 182l133 45q32 -93 66 -146q90 -146 282 -146
q138 0 202 78t64 185t-95 182q-51 38 -184 85t-210 84q-202 100 -202 317q-1 168 115 266t288 98q311 0 410 -344l-133 -40q-68 263 -287 263z" />
    <glyph glyph-name="scaron" unicode="&#x161;" horiz-adv-x="807" 
d="M334 1096l-165 246h133l100 -156l103 156h134l-166 -246h-139zM405 879q-70 1 -124 -39t-54 -101q1 -61 35 -94t154 -74t165 -62q167 -81 167 -242q0 -126 -88 -207t-244 -81t-277 107q-46 40 -80 95l111 62q102 -153 261 -153q95 0 142 49t47 107t-35 97t-148 81
t-187 72q-74 32 -122 109q-30 49 -30 119q0 132 103 208q79 58 217 58t243 -100q26 -25 66 -71l-98 -72q-90 132 -224 132z" />
    <glyph glyph-name="Ydieresis" unicode="&#x178;" horiz-adv-x="903" 
d="M533 1535v135h134v-135h-134zM236 1535v135h134v-135h-134zM532 0h-147v577l-405 788h157l294 -574l8 -21q17 -35 23 -54q10 42 25 75l278 574h158l-391 -764v-601z" />
    <glyph glyph-name="Zcaron" unicode="&#x17d;" horiz-adv-x="901" 
d="M634 1670h134l-222 -193h-136l-222 193h132l158 -104zM84 1239v126h776v-98l-659 -1141h651v-126h-825v89l658 1150h-601z" />
    <glyph glyph-name="zcaron" unicode="&#x17e;" horiz-adv-x="763" 
d="M325 1096l-165 246h133l100 -156l103 156h134l-166 -246h-139zM66 859v113h647v-81l-517 -778h517v-113h-676v87l508 772h-479z" />
    <glyph glyph-name="florin" unicode="&#x192;" horiz-adv-x="1010" 
d="M223 -329q-32 0 -66 10l16 102q12 6 14 6l62 3q73 6 100 142q14 79 29 158l139 890h-159l17 123h166l16 133q1 20 17 84t21 76q53 155 217 155q46 0 108 -15l-17 -105q-33 1 -85 1t-84 -33t-52 -163l-20 -133h189l-17 -123h-192l-138 -871q-45 -285 -87 -347
q-65 -93 -194 -93z" />
    <glyph glyph-name="circumflex" unicode="&#x2c6;" 
d="M580 1342l167 -247h-133l-102 159l-103 -159h-132l167 247h136z" />
    <glyph glyph-name="caron" unicode="&#x2c7;" 
d="M442 1096l-165 246h133l100 -156l103 156h134l-166 -246h-139z" />
    <glyph glyph-name="macron" unicode="&#x2c9;" 
d="M251 1267h523v-101h-523v101z" />
    <glyph glyph-name="breve" unicode="&#x2d8;" 
d="M513 1207q120 0 159 135h95q-1 -75 -39 -134q-76 -120 -206 -120t-208 92q-44 52 -57 162h97q3 -34 23 -63q48 -72 136 -72z" />
    <glyph glyph-name="dotaccent" unicode="&#x2d9;" 
d="M445 1153v135h134v-135h-134z" />
    <glyph glyph-name="ring" unicode="&#x2da;" 
d="M488 1323q-40 0 -67 -29q-26 -30 -26 -68t28 -64q29 -26 65 -27q36 1 63 27t27 66t-24 68q-26 27 -66 27zM320 1227q0 69 48 119t116 49q68 0 116 -50t49 -119q1 -68 -49 -116t-116 -48t-116 48q-48 48 -48 117z" />
    <glyph glyph-name="ogonek" unicode="&#x2db;" 
d="M450 -144q0 -60 53 -89q27 -15 69 -15t89 19v-76q-47 -23 -121 -23t-126 50t-52 115t66 118q38 29 84 45h100q-52 -21 -89 -42q-73 -42 -73 -102z" />
    <glyph glyph-name="tilde" unicode="&#x2dc;" 
d="M632 1128q-58 0 -126 34t-96 33q-45 0 -59 -65h-94q4 57 27 98q39 71 114 71q46 0 95 -21l83 -33q28 -11 48 -11q49 0 55 64h89q-2 -66 -40 -118t-96 -52z" />
    <glyph glyph-name="hungarumlaut" unicode="&#x2dd;" 
d="M667 1342h147l-123 -247h-98zM394 1342h147l-123 -247h-98z" />
    <glyph glyph-name="pi" unicode="&#x3c0;" horiz-adv-x="1165" 
d="M340 0h-133v861h-152v120h1056v-120h-150v-861h-133v861h-488v-861z" />
    <glyph glyph-name="endash" unicode="&#x2013;" horiz-adv-x="1010" 
d="M82 421v128h847v-128h-847z" />
    <glyph glyph-name="emdash" unicode="&#x2014;" horiz-adv-x="1229" 
d="M0 421v128h1229v-128h-1229z" />
    <glyph glyph-name="quoteleft" unicode="&#x2018;" horiz-adv-x="492" 
d="M328 901h-164v191l96 273h95l-95 -273h68v-191z" />
    <glyph glyph-name="quoteright" unicode="&#x2019;" horiz-adv-x="492" 
d="M164 1365h164v-191l-96 -273h-95l95 273h-68v191z" />
    <glyph glyph-name="quotesinglbase" unicode="&#x201a;" horiz-adv-x="492" 
d="M164 191h164v-191l-96 -273h-95l95 273h-68v191z" />
    <glyph glyph-name="quotedblleft" unicode="&#x201c;" horiz-adv-x="819" 
d="M656 901h-164v191l96 273h95l-95 -273h68v-191zM328 901h-164v191l96 273h95l-95 -273h68v-191z" />
    <glyph glyph-name="quotedblright" unicode="&#x201d;" horiz-adv-x="819" 
d="M492 1365h164v-191l-96 -273h-95l95 273h-68v191zM164 1365h164v-191l-96 -273h-95l95 273h-68v191z" />
    <glyph glyph-name="quotedblbase" unicode="&#x201e;" horiz-adv-x="819" 
d="M492 191h164v-191l-96 -273h-95l95 273h-68v191zM164 191h164v-191l-96 -273h-95l95 273h-68v191z" />
    <glyph glyph-name="dagger" unicode="&#x2020;" horiz-adv-x="1010" 
d="M439 1365h134v-393h342v-113h-342v-1187h-134v1187h-343v113h343v393z" />
    <glyph glyph-name="daggerdbl" unicode="&#x2021;" horiz-adv-x="1010" 
d="M443 1365h134v-393h338v-113h-338v-562h338v-113h-338v-512h-134v512h-347v113h347v562h-347v113h347v393z" />
    <glyph glyph-name="bullet" unicode="&#x2022;" horiz-adv-x="1365" 
d="M686 410q-118 0 -202 83t-83 203t85 200q84 82 200 82t200 -83t83 -201q0 -118 -83 -201q-82 -83 -200 -83z" />
    <glyph glyph-name="ellipsis" unicode="&#x2026;" horiz-adv-x="1475" 
d="M1147 191h164v-191h-164v191zM656 191h164v-191h-164v191zM164 191h164v-191h-164v191z" />
    <glyph glyph-name="perthousand" unicode="&#x2030;" horiz-adv-x="1563" 
d="M848 1365h107l-751 -1365h-106zM1276 508q-117 0 -117 -216t117 -217q117 1 117 217t-117 216zM1280 594q112 0 163 -91t51 -205t-39 -194q-57 -117 -177 -117t-175 106q-44 83 -44 205t48 200q61 96 173 96zM768 508q-115 0 -115 -232q1 -81 27 -140t89 -59
q119 0 119 233q0 89 -32 144q-33 54 -88 54zM554 306q0 129 58 209t170 80q110 0 165 -108q41 -82 41 -190t-34 -183q-56 -126 -176 -126t-180 107q-44 82 -44 211zM404 1079q0 109 -33 161t-87 52t-84 -57q-32 -57 -32 -161q0 -219 118 -219t118 224zM68 1076q0 130 57 214
t167 84t165 -102q44 -80 44 -190t-35 -194q-50 -123 -172 -123t-180 101q-46 80 -46 210z" />
    <glyph glyph-name="guilsinglleft" unicode="&#x2039;" horiz-adv-x="567" 
d="M61 473l252 374h116l-244 -374l265 -350h-123z" />
    <glyph glyph-name="guilsinglright" unicode="&#x203a;" horiz-adv-x="567" 
d="M138 847h115l252 -374l-266 -350h-123l265 350z" />
    <glyph glyph-name="franc" unicode="&#x20a3;" horiz-adv-x="1010" 
d="M956 778v-116q-185 -5 -185 -166v-496h-112v770h112v-118q34 64 70 94t87 32h28zM137 0v1365h597v-116h-459v-479h308v-116h-308v-654h-138z" />
    <glyph glyph-name="trademark" unicode="&#x2122;" horiz-adv-x="1381" 
d="M1295 1365v-778h-101v693l-194 -693h-66l-185 636q-13 37 -17 50l3 -56v-630h-101v778h162l141 -478q14 -50 30 -118q11 45 29 112l139 484h160zM1 1281v84h546v-84h-224v-694h-101v694h-221z" />
    <glyph glyph-name="Omega" unicode="&#x2126;" horiz-adv-x="1365" 
d="M591 0h-533v120h379q-379 220 -379 622q0 313 227 508q170 148 398 148t398 -148q226 -195 226 -508q0 -402 -378 -622h378v-120h-532v109q146 82 228 173q168 188 168 443t-173 422q-137 131 -311 131t-308 -116q-185 -161 -185 -434q0 -399 397 -619v-109z" />
    <glyph glyph-name="partialdiff" unicode="&#x2202;" 
d="M516 789q-113 0 -201 -82q-53 -49 -83 -123t-30 -152q0 -158 97 -255t213 -97t212 96q98 96 98 271q0 176 -108 269q-85 73 -198 73zM958 518q0 -218 -82 -343q-63 -99 -161 -149t-201 -49q-152 0 -274 99q-173 140 -173 381q0 125 72 235q73 110 167 154q94 45 207 45
t202 -66q37 -27 88 -93l-13 32q-48 123 -90 186t-98 114q-56 50 -162 110t-259 81l18 119q165 -24 277 -71q251 -110 380 -364q102 -203 102 -421z" />
    <glyph glyph-name="Delta" unicode="&#x2206;" horiz-adv-x="1365" 
d="M681 1203l-431 -1079h862zM1306 0h-1247l550 1365h143z" />
    <glyph glyph-name="product" unicode="&#x220f;" horiz-adv-x="1422" 
d="M74 1412v124h1273v-124h-161v-1800h161v-124h-464v124h170v1800h-685v-1800h168v-124h-462v124h161v1800h-161z" />
    <glyph glyph-name="summation" unicode="&#x2211;" horiz-adv-x="1365" 
d="M59 1536h1159v-462h-121l-12 336h-877l517 -856l-517 -942h896l7 334h126v-458h-1178v140l510 926l-510 845v137z" />
    <glyph glyph-name="minus" unicode="&#x2212;" horiz-adv-x="1010" 
d="M929 541h-847v93h847v-93z" />
    <glyph glyph-name="fraction" unicode="&#x2215;" horiz-adv-x="230" 
d="M442 1365h102l-756 -1365h-102z" />
    <glyph glyph-name="periodcentered" unicode="&#x2219;" horiz-adv-x="492" 
d="M164 601h164v-191h-164v191z" />
    <glyph glyph-name="radical" unicode="&#x221a;" horiz-adv-x="1365" 
d="M1365 1697v-124h-407l-455 -1573h-161l-175 620h-167v124h276l80 -275q12 -44 56 -248l7 -33h9q18 77 43 179l53 214l321 1116h520z" />
    <glyph glyph-name="infinity" unicode="&#x221e;" horiz-adv-x="1365" 
d="M365 895q-95 0 -145 -58q-50 -57 -50 -149t62 -140t126 -48q108 0 199 114q62 78 58 82q-122 199 -250 199zM999 500q96 0 146 58t50 150q1 92 -61 139q-62 48 -126 48q-126 0 -236 -163q-22 -34 -22 -35q31 -48 65 -91q88 -106 184 -106zM345 386q-156 0 -242 110
q-65 85 -65 205q0 172 133 257q79 51 174 51q188 0 335 -221q149 221 342 221q159 0 244 -115q61 -82 61 -215t-91 -213t-213 -81q-191 0 -338 222q-155 -221 -340 -221z" />
    <glyph glyph-name="integral" unicode="&#x222b;" 
d="M330 -392q93 0 110 89q6 34 6 154v1298q0 187 18 248t75 100t129 39t148 -22l-31 -119q-50 21 -89 21q-94 0 -111 -89q-4 -25 -6 -211v-1241q0 -162 -10 -216q-17 -91 -96 -134q-61 -34 -137 -34t-127 19l31 119q51 -21 90 -21z" />
    <glyph glyph-name="approxequal" unicode="&#x2248;" 
d="M297 661q79 0 204 -60q125 -61 163 -71t66 -10q72 0 122 51q30 30 69 94l82 -49q-52 -104 -120 -164t-153 -60t-301 101q-90 41 -144 41q-101 0 -185 -154l-80 52q34 70 76 125q80 104 201 104zM297 993q77 0 207 -62q130 -63 162 -71t63 -8q73 0 113 41t79 104l82 -49
q-53 -104 -107 -152q-81 -72 -166 -72t-301 101q-90 41 -145 41q-102 0 -184 -154l-80 52q34 70 76 125q80 104 201 104z" />
    <glyph glyph-name="notequal" unicode="&#x2260;" 
d="M68 905h492l111 232l95 -36l-94 -196h284v-119h-340l-93 -196h433v-119h-488l-114 -239l-94 35l96 204h-288v119h343l93 196h-436v119z" />
    <glyph glyph-name="lessequal" unicode="&#x2264;" 
d="M68 260h887v-124h-887v124zM68 833l887 399v-128l-744 -328l744 -327v-128l-887 395v117z" />
    <glyph glyph-name="greaterequal" unicode="&#x2265;" 
d="M955 136h-887v124h887v-124zM955 716l-887 -395v128l744 327l-744 328v128l887 -400v-116z" />
    <glyph glyph-name="lozenge" unicode="&#x25ca;" horiz-adv-x="1365" 
d="M1086 683l-403 555l-404 -555l404 -554zM151 683l532 736l531 -736l-531 -736z" />
    <glyph glyph-name="apple" unicode="&#xf000;" horiz-adv-x="1365" 
d="M1112 651q0 -149 111 -250q33 -30 92 -56q-64 -160 -139 -256q-110 -143 -208 -143q-39 0 -82 18l-83 34q-15 7 -82 7t-91 -10l-87 -35q-41 -17 -87 -17q-46 -1 -106 43t-112 124q-172 256 -172 526q0 176 102 308t279 133q67 0 148 -31t113 -31q32 1 94 25q64 24 95 32
t84 9q189 0 296 -146q-68 -52 -98 -92q-67 -83 -67 -192zM984 1396q0 -163 -127 -266q-80 -65 -146 -68q-9 -1 -31 -1q0 143 87 243t217 112v-20z" />
    <glyph glyph-name="fi" unicode="&#xf001;" horiz-adv-x="937" 
d="M672 1311h134v-149h-134v149zM170 868h-150v104h150v83q0 162 40 230q59 101 207 101q43 0 92 -9v-114q-52 13 -79 13q-80 0 -109 -56q-17 -36 -17 -117v-131h502v-972h-134v868h-368v-868h-134v868z" />
    <glyph glyph-name="fl" unicode="&#xf002;" horiz-adv-x="937" 
d="M672 1365h134v-1365h-134v1365zM430 1276q-80 0 -109 -56q-17 -36 -17 -117v-131h205v-113h-205v-859h-134v859h-150v113h150v83q0 162 40 230q59 101 207 101q43 0 92 -9v-114q-52 13 -79 13z" />
    <glyph glyph-name="NULL" horiz-adv-x="0" 
 />
    <glyph glyph-name="CR" horiz-adv-x="512" 
 />
    <glyph glyph-name="_172" horiz-adv-x="1010" 
 />
    <glyph glyph-name="_262" 
d="M513 1623q146 0 193 101h95q-3 -69 -45 -120q-86 -107 -233 -107t-235 82q-48 44 -65 145h97q5 -28 30 -50q58 -51 163 -51z" />
    <glyph glyph-name="_263" 
d="M567 1535v135h134v-135h-134zM324 1535v135h134v-135h-134z" />
    <glyph glyph-name="_264" 
d="M445 1535v135h134v-135h-134z" />
    <glyph glyph-name="_265" 
d="M580 1670l222 -193h-134l-156 104l-158 -104h-132l222 193h136z" />
    <glyph glyph-name="_266" 
d="M498 1477l-128 246h153l76 -246h-101z" />
    <glyph glyph-name="_267" 
d="M530 1724h147l-123 -247h-98z" />
    <glyph glyph-name="_268" 
d="M593 1535v135h134v-135h-134zM296 1535v135h134v-135h-134z" />
    <glyph glyph-name="_269" 
d="M567 1153v135h134v-135h-134zM324 1153v135h134v-135h-134z" />
    <glyph glyph-name="_270" 
d="M668 1670h134l-222 -193h-136l-222 193h132l158 -104z" />
    <glyph glyph-name="_271" 
d="M628 1619q71 0 86 62h88q-2 -67 -52 -118t-112 -51t-135 34q-72 34 -101 33q-66 0 -85 -66h-94q4 60 32 98q51 71 139 71q47 0 99 -20l83 -33q24 -10 52 -10z" />
    <glyph glyph-name="_272" horiz-adv-x="512" 
 />
    </font>
</defs>
</svg>
