<?xml version="1.0" standalone="no"?>
<!DOCTYPE svg PUBLIC "-//W3C//DTD SVG 1.1//EN" "http://www.w3.org/Graphics/SVG/1.1/DTD/svg11.dtd" >
<svg xmlns="http://www.w3.org/2000/svg">
<metadata>
Created by FontPrep 20130207 at Tue Dec  9 01:50:30 2014
 By Alexander Gunnarson
(c) 1987, 1990, 1994, 2001, 2002 Adobe Systems Incorporated. All rights reserved.
</metadata>
<defs>
<font id="f02d13daea852421690080662a629826" horiz-adv-x='1024' >
  <font-face 
    font-family="StencilStd"
    font-weight="700"
    font-stretch="normal"
    units-per-em="2048"
    panose-1="4 2 9 4 8 8 2 2 4 4"
    ascent="1532"
    descent="-516"
    x-height="1532"
    cap-height="1532"
    bbox="-324 -610 2590 2087"
    underline-thickness="102"
    underline-position="-102"
    unicode-range="U+0020-FB02"
  />
<missing-glyph horiz-adv-x="1024" 
d="M102 1239v-1044l349 522zM164 102h696l-348 523zM573 717l349 -522v1044zM512 809l348 522h-696zM0 0v1434h1024v-1434h-1024z" />
    <glyph glyph-name=".notdef" horiz-adv-x="1024" 
d="M102 1239v-1044l349 522zM164 102h696l-348 523zM573 717l349 -522v1044zM512 809l348 522h-696zM0 0v1434h1024v-1434h-1024z" />
    <glyph glyph-name=".null" horiz-adv-x="0" 
 />
    <glyph glyph-name="nonmarkingreturn" horiz-adv-x="681" 
 />
    <glyph glyph-name="space" unicode=" " horiz-adv-x="696" 
 />
    <glyph glyph-name="exclam" unicode="!" horiz-adv-x="774" 
d="M387 1563q113 0 172 -82q59 -81 59 -183t-76 -330t-81 -388q-4 -84 -74 -84t-74 84q-5 160 -81 388t-76 330t59 183q59 82 172 82zM618 190q0 -90 -63 -156t-157 -65q-94 0 -158 66q-64 65 -64 155t64 156t157 66t157 -66t64 -156z" />
    <glyph glyph-name="quotedbl" unicode="&#x22;" horiz-adv-x="681" 
d="M524 1563q106 0 107 -123q0 -16 -43 -453q-2 -33 -22 -52q-44 -43 -84 0q-19 19 -21 52q-43 436 -43 453q0 123 106 123zM158 1563q106 0 106 -123q0 -16 -43 -453q-2 -33 -21 -52q-43 -43 -84 0q-19 19 -22 52q-43 436 -43 453q1 123 107 123z" />
    <glyph glyph-name="numbersign" unicode="#" horiz-adv-x="1292" 
d="M803 905h-238l-57 -217h237zM1202 1165l-37 -258h-235l-60 -219h207l-39 -260h-227l-94 -397h-127l96 397h-240l-92 -397h-129l99 397h-242l37 260h262l55 219h-223l37 258h246l82 336h127l-82 -336h237l82 336h127l-84 -336h217z" />
    <glyph glyph-name="dollar" unicode="$" horiz-adv-x="1167" 
d="M819 298q0 75 -63 130t-246 131q-227 106 -327 219q-99 113 -97 288t125 306t299 156v149h119v-145q226 -9 359 -140q75 -74 75 -166t-53 -136t-128 -43q-75 0 -124 45t-49 105q-1 59 29 107t30 54q0 27 -56 43t-83 12v-299l-119 51v248q-55 -12 -92 -58t-29 -106
q16 -133 236 -229l168 -78q169 -76 249 -181t80 -297t-143 -323t-350 -141v-168h-119v168q-239 5 -385 153q-80 81 -80 177t55 152q56 56 136 56t131 -54t51 -130q0 -40 -18 -72t-36 -46t-36 -26t-19 -20q0 -27 87 -55t114 -16v344l119 -45v-299q70 -2 130 51t60 128z" />
    <glyph glyph-name="percent" unicode="%" horiz-adv-x="1673" 
d="M393 1563v-86q-74 -16 -74 -99v-299q0 -82 74 -98v-86q-166 0 -272 83t-107 251q0 168 106 251t273 83zM453 895v86q74 16 73 98v299q0 82 -73 99v86q166 0 272 -83t106 -251t-106 -251t-272 -83zM1221 668v-86q-74 -16 -74 -99v-299q0 -82 74 -98v-86q-166 0 -273 83
q-106 83 -106 251t106 251q107 83 273 83zM1133 1532h131l-744 -1532h-131zM1280 0v86q74 16 74 98v299q0 82 -74 99v86q166 0 272 -83t106 -251t-106 -251t-272 -83z" />
    <glyph glyph-name="ampersand" unicode="&#x26;" horiz-adv-x="1599" 
d="M446 674q0 -32 15 -56l205 -378q8 -16 16 -28t13 -20q5 -10 15 -15t14 -9q5 -4 26 -4h47l61 -107q-225 -117 -404 -81t-290 162t-105 272t111 265q105 118 248 169l57 -103q-29 -35 -29 -67zM1303 762q0 50 -24 92q-24 43 -24 55q0 35 43 55t82 19q84 0 84 -127
q0 -88 -34 -156t-103 -147l-57 106q33 53 33 103zM1237 1283q0 -89 -43 -163t-111 -114l-55 102q86 76 86 170t-102 141v125q96 -12 160 -92t65 -169zM848 1319q0 -51 41 -129l520 -969q43 -80 86 -101t43 -59q0 -61 -70 -61h-483l-500 897q-73 129 -73 290t133 269t301 109
l74 -6v-140q-72 -23 -72 -100z" />
    <glyph glyph-name="quotesingle" unicode="'" horiz-adv-x="454" 
d="M227 1563q106 0 107 -123q0 -16 -43 -453q-1 -33 -21 -52q-44 -43 -85 0q-19 19 -21 52q-43 436 -43 453q0 123 106 123z" />
    <glyph glyph-name="parenleft" unicode="(" horiz-adv-x="792" 
d="M86 684q0 118 49 259q96 278 354 489q158 131 228 131q19 1 35 -11t16 -29t-29 -40q-63 -47 -138 -157t-121 -202t-78 -221t-31 -233q0 -221 100 -445q39 -92 119 -209t149 -168q29 -29 29 -43t-16 -25t-35 -11q-88 0 -234 133q-145 132 -232 252t-126 266t-39 264z" />
    <glyph glyph-name="parenright" unicode=")" horiz-adv-x="792" 
d="M707 648q1 -118 -49 -260q-97 -280 -355 -488q-158 -131 -227 -131q-18 0 -35 11q-16 11 -16 28t28 40q63 47 138 157t121 202t78 221t32 234q0 223 -100 444q-39 92 -119 209t-150 168q-29 29 -29 43t17 25q16 11 35 12q88 0 233 -133t232 -253q87 -119 127 -265
t39 -264z" />
    <glyph glyph-name="asterisk" unicode="*" horiz-adv-x="909" 
d="M702 1194l21 -2q12 0 16 -2q5 -2 11 -4q16 -5 24 -31q14 -55 -16 -104q-31 -57 -73 -66t-62 13q-6 7 -17 26l-98 170h194zM293 1009q0 -1 -10 -13q-9 -12 -13 -10q-4 3 -17 -4t-22 1q-51 10 -81 68q-33 53 -20 94t43 46q7 1 32 3h192l-94 -170q-10 -14 -10 -15zM452 874
q-62 0 -102 39q-16 33 -14 43t16 39l99 168l96 -168q16 -29 18 -40t-16 -42q-35 -39 -97 -39zM235 1245q-57 0 -72 4t-28 35q-14 51 17 105q37 53 77 63t53 -6t23 -35l96 -166h-166zM707 1245h-195l98 168q31 50 44 44q7 -3 26 -1q51 -14 82 -67t18 -97t-42 -46
q-9 -1 -31 -1zM463 1563q63 0 98 -39q19 -31 17 -42t-17 -40l-98 -168l-96 168q-31 51 1 86t95 35z" />
    <glyph glyph-name="plus" unicode="+" horiz-adv-x="1200" 
d="M1102 500h-377v-453h-248v453h-379v241h379v430h248v-430h377v-241z" />
    <glyph glyph-name="comma" unicode="," horiz-adv-x="768" 
d="M164 233q0 81 63 141t161 60t162 -80q66 -80 66 -179t-54 -192t-132 -159q-123 -102 -200 -112t-76 44q0 33 44 59q9 5 24 15t20 12q150 90 149 146q1 24 -67 30t-114 70t-46 145z" />
    <glyph glyph-name="hyphen" unicode="-" horiz-adv-x="1024" 
d="M154 915h716v-311h-716v311z" />
    <glyph glyph-name="period" unicode="." horiz-adv-x="745" 
d="M594 190q0 -90 -64 -156t-157 -65q-94 0 -158 66q-63 65 -63 155t63 156t157 66t158 -66t64 -156z" />
    <glyph glyph-name="slash" unicode="/" horiz-adv-x="641" 
d="M551 1532h172l-631 -1763h-172z" />
    <glyph glyph-name="zero" unicode="0" horiz-adv-x="1290" 
d="M1270 766q0 -370 -165 -568t-413 -229v119q72 25 94 71t25 126v962q-3 80 -25 126t-94 71v119q248 -31 413 -229t165 -568zM600 88v-119q-248 31 -413 229t-165 568t166 568q164 198 412 229v-119q-72 -25 -94 -71t-25 -126v-962q3 -80 25 -126t94 -71z" />
    <glyph glyph-name="one" unicode="1" horiz-adv-x="1290" 
d="M291 1438q0 69 100 69l473 25v-1323q0 -45 12 -59t72 -31q53 -6 53 -58q0 -61 -98 -61h-510q-98 0 -98 61q0 51 53 58q60 17 72 31t12 59v1030q0 92 -12 115t-53 28q-76 8 -76 56z" />
    <glyph glyph-name="two" unicode="2" horiz-adv-x="1290" 
d="M432 1391q0 -11 20 -25t43 -32q24 -18 43 -57q19 -40 19 -95q0 -86 -67 -148q-66 -62 -160 -61q-94 0 -156 67q-61 68 -61 168q0 145 117 239q118 94 270 112v-123q-68 -6 -68 -45zM788 -31q-84 0 -256 51q-170 52 -221 52t-97 -37t-62 -37q-56 0 -56 67t32 135t83 111
q106 92 274 92q59 1 255 -29t243 -30t72 24t27 52q4 75 59 76q57 0 57 -77t-34 -160t-79 -140q-47 -66 -130 -108t-167 -42zM594 1440v123q321 9 481 -195q84 -106 80 -254q-8 -319 -379 -463l-299 -141l-20 -14q-68 0 -205 -60l-4 4q78 112 246 237q51 38 99 89
q101 107 103 346q0 283 -102 328z" />
    <glyph glyph-name="three" unicode="3" horiz-adv-x="1290" 
d="M92 309q0 100 62 165t148 65q87 -1 152 -61q64 -60 64 -130q-1 -113 -86 -180q-29 -23 -29 -35q0 -35 121 -43v-121q-235 18 -362 161q-70 79 -70 179zM743 274v275q0 84 -25 131q-26 47 -109 51t-83 57q0 56 81 62q48 4 79 27q57 42 57 139v237q0 160 -127 189v121
q146 6 260 -31q114 -38 176 -102q126 -131 126 -274q0 -144 -87 -241q-88 -96 -235 -133v-4q176 -49 261 -135t85 -229t-72 -247q-87 -127 -273 -173q-105 -27 -241 -25v121q127 31 127 184zM438 1376q0 -20 36 -45q68 -49 68 -134t-58 -145t-142 -60t-141 58t-58 146
q-1 147 113 241t268 119v-120q-86 -16 -86 -60z" />
    <glyph glyph-name="four" unicode="4" horiz-adv-x="1290" 
d="M1047 467h143q53 0 53 -59t-53 -60h-143v-139q0 -45 12 -59t71 -31q53 -6 54 -58q0 -61 -99 -61h-510q-98 0 -98 61q0 51 53 58q60 17 72 31t12 59v1036l162 221q17 26 29 36l24 20t63 10h89q52 0 54 -5q1 -5 5 -10t4 -16l3 -55v-979zM522 467v-119h-407q-15 0 -27 2
t-26 22t-13 61q0 42 45 104l424 585h4v-172l-344 -483h344z" />
    <glyph glyph-name="five" unicode="5" horiz-adv-x="1290" 
d="M244 1563l424 -35q104 -10 250 -1t221 36q-43 -176 -201 -295q-90 -66 -187 -88t-233 -21l-315 23zM100 313q0 96 64 162t152 66q90 1 150 -59t59 -130t-27 -111q-26 -42 -54 -65q-27 -23 -26 -31q0 -30 104 -55v-121q-156 7 -289 103t-133 241zM733 305v293
q0 184 -117 217v166q250 4 413 -127t163 -379t-163 -379t-413 -127v119q117 33 117 217zM240 702q-68 0 -68 60l31 338l114 -13l-20 -239q111 102 225 127v-160q-120 -29 -188 -71t-94 -42z" />
    <glyph glyph-name="six" unicode="6" horiz-adv-x="1290" 
d="M723 1442v121q156 -3 294 -95t138 -237q0 -96 -64 -158q-65 -61 -151 -61t-146 53t-58 121t40 120q39 52 39 78q1 26 -29 42t-63 16zM516 1262v-994q0 -160 115 -180v-119q-221 4 -393 218t-181 579q9 365 181 579t393 218v-121q-115 -20 -115 -180zM870 885
q164 0 276 -115t111 -281q-1 -225 -151 -377t-383 -143v121q33 6 55 27t21 45v471q0 88 -76 96q-33 0 -88 -33v121q121 68 235 68z" />
    <glyph glyph-name="seven" unicode="7" horiz-adv-x="1290" 
d="M628 1552q120 0 238 -49q111 -39 146 -39q34 0 66 28t46 28t26 -14t13 -40q-1 -26 -25 -88t-46 -100q-74 -125 -279 -125q-59 0 -218 35q-159 34 -232 24t-93 -47t-22 -104v-17h-86l71 480h82l-16 -131q86 74 139 111q52 37 106 42q54 6 84 6zM883 248q0 -104 -66 -184
q-67 -80 -181 -80t-178 88t-65 208q0 120 52 228t118 182t153 175t132 179q61 4 143 39q-111 -215 -139 -362t2 -283q29 -136 29 -190z" />
    <glyph glyph-name="eight" unicode="8" horiz-adv-x="1290" 
d="M528 639v-436q0 -88 72 -115v-119q-131 -8 -231 21t-155 76q-54 47 -99 127t-45 184q0 170 98 272t268 142v4q-158 39 -253 127t-89 233q10 193 158 296t348 112v-119q-72 -29 -72 -117v-373q0 -77 72 -102v-119q-72 -25 -72 -94zM764 203v436q0 70 -72 94v119
q72 25 72 102v373q0 88 -72 117v119q293 -14 435 -185q79 -94 71 -223q-18 -281 -342 -360v-4q170 -39 268 -141t99 -273q1 -101 -45 -183q-46 -81 -100 -128t-154 -76t-232 -21v119q72 27 72 115z" />
    <glyph glyph-name="nine" unicode="9" horiz-adv-x="1290" 
d="M565 90v-121q-156 2 -294 94t-138 238q0 95 65 157q64 62 150 62t144 -53t61 -121q2 -68 -39 -120t-41 -78q-1 -26 29 -42t63 -16zM772 270v994q0 160 -115 180v119q221 -4 393 -218t181 -579q-8 -365 -180 -579t-394 -218v121q115 20 115 180zM418 647q-164 0 -276 115
t-111 280q0 225 150 377q151 152 384 144v-121q-33 -6 -53 -26t-23 -46v-471q0 -88 76 -96q33 0 88 33v-121q-121 -68 -235 -68z" />
    <glyph glyph-name="colon" unicode=":" horiz-adv-x="745" 
d="M594 190q0 -90 -64 -156t-157 -65q-94 0 -158 66q-63 65 -63 155t63 156t157 66t158 -66t64 -156zM594 915q0 -89 -64 -155t-157 -66q-94 0 -158 66q-63 66 -63 156t63 155q63 66 157 66t158 -66t64 -156z" />
    <glyph glyph-name="semicolon" unicode=";" horiz-adv-x="768" 
d="M594 915q0 -89 -64 -155t-157 -66q-94 0 -158 66q-63 66 -63 156t63 155q63 66 157 66t158 -66t64 -156zM164 235q0 81 63 141t161 60t162 -80q66 -80 66 -179t-54 -192t-132 -159q-123 -102 -200 -112t-76 44q0 33 44 59q9 5 24 15t20 12q150 90 149 146q1 24 -67 30
t-114 70t-46 145z" />
    <glyph glyph-name="less" unicode="&#x3c;" horiz-adv-x="1200" 
d="M1100 8l-1000 488v254l1000 485v-264l-772 -346v-4l772 -347v-266z" />
    <glyph glyph-name="equal" unicode="=" horiz-adv-x="1200" 
d="M1102 254h-1004v240h1004v-240zM1102 748h-1004v241h1004v-241z" />
    <glyph glyph-name="greater" unicode="&#x3e;" horiz-adv-x="1200" 
d="M100 1235l1000 -487v-254l-998 -486v266l772 347v6l-774 344v264z" />
    <glyph glyph-name="question" unicode="?" horiz-adv-x="1241" 
d="M719 190q1 -90 -63 -156t-158 -65q-94 0 -158 66q-64 65 -64 155t64 156t158 66t158 -66t63 -156zM1090 1098q0 -184 -134 -315q-134 -132 -352 -160q-47 -5 -60 -17t-16 -59q0 -68 -57 -68q-29 1 -43 15t-16 29t-2 48v344q0 57 10 65t59 9q119 2 193 79t74 196t-70 174
v118q172 -16 293 -145t121 -313zM578 1563v-119q-45 -14 -52 -35q-2 -6 -2 -17t12 -44t13 -68q0 -74 -56 -126q-55 -52 -137 -52t-142 53t-60 147t107 178q108 83 317 83z" />
    <glyph glyph-name="at" unicode="@" horiz-adv-x="1880" 
d="M815 369q0 -74 35 -74q35 -1 92 65t107 187q61 260 63 280q-25 31 -72 31l-2 -2q-49 2 -104 -63q-119 -150 -119 -424zM113 420q0 270 137 483t352 322t461 108q340 0 528 -176q189 -175 189 -449t-165 -456t-425 -182q-104 0 -153 48q-48 48 -31 140l16 72l-4 4
q-63 -100 -181 -182t-210 -82q-55 0 -92 62t-35 177q4 270 194 461q78 80 215 139t233 59t154 -16t117 -16q-37 -139 -121 -584q-29 -156 47 -155q115 0 200 131q85 130 85 372t-160 388t-401 147q-332 0 -540 -227t-208 -576q0 -255 153 -441q75 -91 203 -145t290 -55
q280 0 505 197l47 -70q-133 -141 -313 -211t-330 -69q-334 0 -546 198t-211 584z" />
    <glyph glyph-name="A" unicode="A" 
d="M1407 53q0 -53 -113 -53h-510q-100 0 -100 57q0 37 39 58q41 25 48 45t-5 80l-41 157h-299l29 119h250l-207 905l26 111h453l307 -1294q2 -6 6 -34t13 -40q14 -21 23 -30t30 -17q51 -23 51 -64zM440 51q0 -23 -20 -36t-36 -14t-50 -1h-236q-115 0 -114 61q0 34 22 45
q8 4 28 12t29 13q92 49 138 215l245 899h7l53 -231l-193 -701q-20 -96 -6 -131t72 -59q23 -10 32 -15q9 -6 19 -20t10 -37z" />
    <glyph glyph-name="B" unicode="B" horiz-adv-x="1538" 
d="M776 1532h64q256 0 379 -59q201 -100 200 -316q1 -158 -109 -246t-278 -114v-4q408 -66 408 -394q0 -264 -271 -366q-61 -23 -105 -26t-54 -4q-30 -3 -94 -3h-140v119q92 4 123 46t31 111v265q0 84 -32 135t-122 57v119q109 8 134 66q20 45 20 110v205q0 164 -154 180
v119zM684 1532v-1532h-551q-66 0 -65 63q0 41 48 57t57 32t9 77v1074q0 61 -9 77t-57 32t-48 56q0 63 65 64h551z" />
    <glyph glyph-name="C" unicode="C" horiz-adv-x="1343" 
d="M45 750q0 346 183 574t481 239v-119q-131 -27 -131 -191v-970q0 -162 131 -195v-119q-324 6 -494 221t-170 560zM1208 444q25 0 41 -20t17 -49q-4 -131 -157 -271t-308 -135v119q121 28 212 104t124 187q14 40 30 53q16 12 41 12zM1094 1481q30 0 50 41t54 41
q66 0 66 -74v-475q0 -74 -66 -74q-59 0 -76 74q-39 202 -161 332q-70 73 -160 98v119q41 -2 151 -42q112 -40 142 -40z" />
    <glyph glyph-name="D" unicode="D" horiz-adv-x="1488" 
d="M670 1532v-1532h-520q-96 0 -97 63q0 41 48 57q47 16 57 32t10 77v1074q0 88 -35 98q-4 2 -14 5q-12 4 -29 10q-37 14 -37 57q0 59 92 59h525zM762 0v119q57 8 89 47t37 75t5 89v872q0 53 -5 89t-37 75t-89 47v119q276 4 460 -192t203 -574q8 -174 -46 -322
q-100 -274 -366 -391q-122 -53 -251 -53z" />
    <glyph glyph-name="E" unicode="E" horiz-adv-x="1347" 
d="M1047 539q0 -66 -54 -66q-38 0 -53 34q-6 13 -12 34q-38 151 -144 180v127q106 29 144 180q13 43 34 59t43 9q42 -16 42 -56v-501zM784 0v119q123 14 215 93t134 204q25 53 47 61q8 2 16 2q59 0 59 -69v-410h-471zM784 1532h457v-416q0 -49 -63 -49q-39 0 -56 51
q-82 254 -338 295v119zM76 1461q0 35 22 53t54 18h540v-1532h-540q-32 0 -54 18t-22 52t48 50t57 32t9 77v1074q0 61 -9 77t-57 32t-48 49z" />
    <glyph glyph-name="F" unicode="F" horiz-adv-x="1300" 
d="M1063 1030v-491q0 -66 -53 -66q-37 0 -54 34q-6 13 -12 34q-37 151 -143 180v127q106 29 143 180q13 43 29 55t37 13q53 0 53 -66zM801 1532h456v-416q0 -49 -63 -49q-39 0 -55 51q-82 254 -338 295v119zM207 229v1074q0 61 -9 77q-10 16 -58 32t-48 49q0 35 23 53t53 18
h541v-1303q0 -61 9 -77t57 -32t48 -50t-22 -52t-53 -18h-580q-32 0 -54 18t-22 52t48 50t58 32t9 77z" />
    <glyph glyph-name="G" unicode="G" 
d="M862 219v369q0 37 -12 48t-72 21q-53 14 -53 62q0 57 82 57h489q72 0 72 -61q0 -37 -37 -61t-37 -62v-406q-233 -211 -526 -217v119q94 29 94 131zM1116 1487q31 0 60 38t61 38q57 0 57 -66v-457q0 -74 -63 -73q-37 -1 -52 21t-26 61q-45 189 -149 289t-236 106v119
q166 -14 300 -62q42 -14 48 -14zM578 1257v-981q0 -154 98 -188v-119q-266 7 -448 237t-183 560q0 330 182 560t449 237v-119q-98 -35 -98 -187z" />
    <glyph glyph-name="H" unicode="H" horiz-adv-x="1734" 
d="M1004 229v490h-181v119h181v465q0 61 -10 77t-57 32q-48 16 -48 49q0 35 22 53t54 18h579q32 0 54 -18t22 -53q0 -34 -48 -49q-48 -16 -58 -32t-9 -77v-1074q0 -61 9 -77q10 -16 58 -32t48 -50t-22 -52t-54 -18h-579q-32 0 -54 18t-22 52t48 50q47 16 57 32t10 77z
M731 1303v-1074q0 -61 9 -77q10 -16 58 -32t48 -50t-23 -52t-53 -18h-580q-31 0 -53 18t-22 52t48 50t57 32t9 77v1074q0 61 -9 77t-57 32t-48 49q0 35 22 53t53 18h580q32 0 54 -18t22 -53q0 -34 -48 -49q-48 -16 -58 -32t-9 -77z" />
    <glyph glyph-name="I" unicode="I" horiz-adv-x="915" 
d="M709 1303v-1074q0 -61 9 -77t57 -32t48 -50t-22 -52t-53 -18h-580q-32 0 -54 18t-22 52t48 50t58 32t9 77v1074q0 61 -9 77q-10 16 -58 32t-48 49q0 35 23 53t53 18h580q31 0 53 -18t22 -53q0 -34 -48 -49q-48 -16 -57 -32t-9 -77z" />
    <glyph glyph-name="J" unicode="J" horiz-adv-x="1236" 
d="M1061 1303v-887q0 -223 -131 -335t-379 -112l-72 2v121q74 30 79 132q1 19 1 57v1022q0 61 -9 77q-10 16 -58 32t-48 49q0 35 23 53t53 18h580q31 0 53 -18q23 -18 23 -53q0 -34 -48 -49q-48 -16 -58 -32q-9 -16 -9 -77zM2 334q0 102 70 175t165 73t161 -65t67 -145
q0 -155 -141 -214q-20 -10 -21 -17q0 -27 84 -45v-121q-157 17 -271 113t-114 246z" />
    <glyph glyph-name="K" unicode="K" horiz-adv-x="1685" 
d="M731 1303v-1074q0 -61 9 -77q10 -16 58 -32t48 -50t-23 -52t-53 -18h-580q-31 0 -53 18t-22 52t48 50t57 32t9 77v1074q0 61 -9 77t-57 32t-48 49q0 35 22 53t53 18h580q32 0 54 -18t22 -53q0 -34 -48 -49q-48 -16 -58 -32t-9 -77zM1624 55q0 -55 -100 -55h-523
q-33 0 -51 2t-38 17q-19 15 -19 48t42 55t42 44t-16 59l-127 381q-27 84 -27 123t47 107l238 338q53 72 53 136t-78 97q-2 2 -11 5q-8 3 -12 5t-11 5q-7 2 -15 10t-9 13t-3 11t-2 24t18 34q18 14 34 16t48 2h350q33 0 52 -3q20 -3 38 -19t18 -42q1 -49 -62 -73
q-64 -24 -88 -42q-24 -17 -38 -25t-32 -28l-25 -25q-9 -7 -27 -31t-23 -31t-27 -35t-28 -37l-38 -54l329 -864q2 -6 8 -20q7 -13 9 -21q14 -41 59 -63q45 -21 45 -64z" />
    <glyph glyph-name="L" unicode="L" horiz-adv-x="1222" 
d="M791 0v119q229 31 303 356q12 57 77 57q51 0 52 -77v-455h-432zM698 1303v-1303h-540q-32 0 -54 18t-22 52t48 50t57 32t10 77v1074q1 61 -9 77t-58 32t-48 49q0 35 22 53t54 18h579q32 0 54 -18t22 -53q0 -34 -48 -49q-47 -16 -57 -32t-10 -77z" />
    <glyph glyph-name="M" unicode="M" horiz-adv-x="1800" 
d="M84 1468q0 63 86 64h520l219 -629h4l93 340h4v-373l-260 -870h-60l-428 1268q-20 60 -30 76q-20 33 -23 40q-14 29 -45 29q-80 6 -80 55zM1102 229v1303h540q32 0 54 -18t22 -53q0 -34 -48 -49q-48 -16 -57 -32t-9 -77v-1074q0 -61 9 -77t57 -32t48 -50t-22 -52t-54 -18
h-579q-32 0 -54 18q-21 18 -21 52t47 50t57 32t10 77zM256 1014h4l115 -338v-352q15 -136 71 -180q22 -17 44 -26q47 -20 49 -59q0 -59 -107 -59h-233q-106 0 -107 59q0 37 48 59q22 9 44 26q56 42 72 180v690z" />
    <glyph glyph-name="N" unicode="N" horiz-adv-x="1542" 
d="M1303 0h-306l-749 1292q-4 6 -11 20t-11 19q-3 5 -10 15t-16 21t-19 16q-11 5 -21 11t-37 14q-47 16 -47 59q0 63 76 63q6 0 28 2h527l596 -1036v-496zM1184 1161q0 157 -60 210q-26 22 -50 34q-58 29 -58 65q0 61 88 62h278q88 0 88 -62q0 -24 -17 -38t-42 -26t-49 -35
q-58 -53 -59 -210v-497h-5l-114 206v291zM236 1147h4l114 -205v-618q15 -135 72 -180q22 -17 44 -26q48 -20 48 -59q0 -59 -106 -59h-234q-106 0 -106 59q0 37 48 59q22 9 44 26q56 42 72 180v823z" />
    <glyph glyph-name="O" unicode="O" horiz-adv-x="1456" 
d="M879 1296q0 111 -105 148v119q311 -29 474 -251t163 -546t-163 -546t-474 -251v119q104 37 105 148v1060zM578 1296v-1060q0 -111 104 -148v-119q-311 29 -474 251t-163 546t163 546t474 251v-119q-104 -37 -104 -148z" />
    <glyph glyph-name="P" unicode="P" horiz-adv-x="1462" 
d="M180 229v1074q0 61 -9 77t-57 32t-48 49q0 35 22 53t53 18h541v-1303q0 -61 9 -77t57 -32t49 -50q0 -34 -23 -52t-53 -18h-580q-31 0 -53 18t-22 52t48 50t57 32t9 77zM774 1532q274 0 406 -76q211 -125 211 -397t-211 -397q-131 -76 -406 -76v119q89 17 108 70t19 136
v310q0 174 -127 192v119z" />
    <glyph glyph-name="Q" unicode="Q" horiz-adv-x="1470" 
d="M883 1296q0 111 -105 148v119h2q311 -29 475 -251t160 -546q-4 -387 -252 -631q43 -45 115 -45q33 0 70 11t47 11t21 -14t11 -28q0 -45 -57 -82q-94 -66 -194 -66q-141 0 -226 92q-63 -45 -176 -45v121q49 25 64 45q-47 61 -95 76q-25 2 -37 4t-22 14q-12 12 -12 35
q0 66 100 66q68 0 111 -27v993zM578 1296v-1060q0 -111 104 -148v-119q-311 29 -474 251t-163 546t163 546t474 251v-119q-104 -37 -104 -148z" />
    <glyph glyph-name="R" unicode="R" horiz-adv-x="1605" 
d="M1425 243q0 -30 21 -30q14 0 38 30q43 54 90 10q19 -19 19 -50q1 -31 -35 -80t-77 -80q-89 -74 -233 -74t-228 85t-84 261v140q0 157 -54 196q-28 20 -71 25v121q77 6 101 49t24 129v248q0 81 -26 121t-99 67v121h35q227 0 332 -39q20 -8 39 -16q205 -100 208 -336
q6 -301 -360 -387v-4q152 -23 246 -77q112 -65 114 -220v-210zM217 229v1074q0 61 -9 77q-10 16 -58 32t-48 49q0 35 23 53t53 18h541v-1303q0 -61 9 -77t57 -32q49 -16 49 -50t-23 -52t-53 -18h-580q-31 0 -53 18q-23 18 -23 52t48 50t58 32t9 77z" />
    <glyph glyph-name="S" unicode="S" horiz-adv-x="1292" 
d="M84 63v396q0 100 66 100q28 0 50 -19t25 -48q25 -138 112 -258t212 -146v-119q-102 2 -184 39t-112 37q-29 0 -55 -34t-51 -34q-63 0 -63 86zM1153 1470v-350q0 -98 -68 -98q-61 0 -73 80q-16 117 -104 217t-206 125v119q97 0 237 -61q46 -19 52 -19q27 0 51 37t52 36
q59 0 59 -86zM465 1266q0 -68 61 -123t238 -123q250 -96 347 -227t97 -293q0 -230 -166 -378t-401 -153v119q86 27 135 69t50 104t-22 97t-45 51q-21 15 -31 23t-39 22q-28 14 -36 17q-8 4 -38 16q-238 95 -385 214q-146 119 -146 348t148 367t378 147v-119
q-145 -53 -145 -178z" />
    <glyph glyph-name="T" unicode="T" horiz-adv-x="1363" 
d="M45 1055v477h295v-119q-113 -80 -154 -319q-8 -59 -27 -78q-19 -20 -46 -20t-47 16q-20 18 -21 43zM1321 1532v-477q-1 -26 -21 -43q-20 -16 -53 -16t-47 26q-14 27 -20 72q-41 240 -154 319v119h295zM432 229v1303h502v-1303q0 -61 9 -77t57 -32t49 -50q0 -34 -23 -52
t-53 -18h-580q-31 0 -53 18t-22 52t47 50t57 32t10 77z" />
    <glyph glyph-name="U" unicode="U" horiz-adv-x="1556" 
d="M842 -31q-100 0 -156 3q-148 8 -274 78q-127 71 -167 133t-40 149v971q0 61 -9 77q-10 16 -58 32t-48 49q0 35 23 53t53 18h579q32 0 54 -18t22 -53q0 -34 -48 -49q-48 -16 -57 -32t-9 -77v-1012q0 -65 14 -93q45 -88 121 -108v-121zM1151 1532h233q106 0 107 -59
q0 -37 -48 -59q-23 -9 -45 -26q-54 -41 -71 -180v-772q-6 -119 -49 -213q-71 -155 -227 -223q-61 -27 -117 -27v121q139 43 202 125q62 82 72 221v768q-15 136 -71 180q-23 17 -45 26q-47 20 -48 59q0 59 107 59z" />
    <glyph glyph-name="V" unicode="V" horiz-adv-x="1386" 
d="M1294 1532q82 0 82 -57q0 -32 -14 -42q-14 -9 -17 -11t-34 -16q-31 -13 -56 -30q-64 -48 -102 -190l-172 -637h-4l-57 211l120 452q14 45 15 80q0 84 -78 111q-43 17 -53 32t-11 33q1 64 125 64h256zM667 1532q95 0 95 -62q0 -38 -45 -62t-45 -67q0 -18 10 -59l254 -889
l-107 -393h-294l-394 1317q-15 59 -19 62q-5 3 -11 9q-7 6 -15 10q-62 22 -61 69q0 47 43 56t191 9h398z" />
    <glyph glyph-name="W" unicode="W" horiz-adv-x="1886" 
d="M1556 1320q0 26 -20 50t-44 35q-63 26 -65 72q0 55 80 55h265q84 0 83 -57q0 -21 -9 -31t-34 -21q-70 -31 -102 -80t-53 -139l-131 -520l-4 2l-58 221l78 320q14 67 14 93zM981 1532h231l269 -1022l-129 -510h-244l-266 987zM31 1464q0 68 131 68h395q138 0 160 -7
q37 -12 37 -49q0 -38 -46 -65t-46 -65q0 -16 10 -52l202 -751l-135 -543h-243l-365 1333q-8 33 -16 45t-35 25q-49 23 -49 61z" />
    <glyph glyph-name="X" unicode="X" horiz-adv-x="1396" 
d="M379 208q0 -61 60 -79q59 -15 61 -66q0 -37 -35 -55q-16 -8 -86 -8h-240q-102 0 -102 55q0 41 57 64q84 33 146 129l186 303l63 -127l-36 -62q-74 -120 -74 -154zM856 1470q0 60 94 62h275q98 0 98 -51q0 -37 -34 -57q-9 -5 -34 -17q-84 -47 -147 -147l-154 -242l-61 125
l31 59q47 78 47 113q0 61 -66 94q-49 27 -49 61zM1374 66q0 -66 -127 -66h-399q-135 0 -155 2t-42 16q-22 13 -22 44q0 30 35 54q34 24 34 48t-26 84l-531 1065q-2 4 -19 39t-59 55q-12 8 -24 15q-16 10 -16 51t43 50t90 9h473q37 0 59 -2t48 -18q24 -16 24 -48
q0 -31 -32 -49q-32 -17 -32 -41t19 -61l542 -1104q6 -6 10 -16q3 -9 7 -16q16 -28 29 -36q14 -8 26 -14q45 -23 45 -61z" />
    <glyph glyph-name="Y" unicode="Y" horiz-adv-x="1374" 
d="M424 229v365l-309 733q-25 63 -60 86q-47 25 -47 57q0 62 76 62h539q86 0 104 -29q8 -14 8 -40t-45 -54q-39 -20 -39 -49t21 -78l254 -580v-473q0 -61 9 -77t57 -32t48 -50t-22 -52t-53 -18h-580q-32 0 -54 18q-21 18 -21 52t47 50t57 32t10 77zM922 1425q-22 16 -21 47
t15 39q14 9 21 13q13 8 100 8h225q104 0 104 -66q0 -38 -56 -62t-83 -54t-58 -95l-200 -440l-66 146l107 237q56 122 8 174q-22 24 -48 30q-26 7 -48 23z" />
    <glyph glyph-name="Z" unicode="Z" horiz-adv-x="1202" 
d="M1098 477q57 0 57 -59l2 -418h-528l53 119q158 33 230 93t126 204q18 61 60 61zM84 1126v406h494l-52 -119q-260 -51 -323 -285q-18 -61 -62 -61q-57 0 -57 59zM1157 1532v-129l-620 -1403h-492v111l625 1421h487z" />
    <glyph glyph-name="bracketleft" unicode="[" horiz-adv-x="716" 
d="M137 1563h537v-119h-230v-1557h230v-118h-537v1794z" />
    <glyph glyph-name="backslash" unicode="\" horiz-adv-x="712" 
d="M668 -111h-174l-447 1749h176z" />
    <glyph glyph-name="bracketright" unicode="]" horiz-adv-x="716" 
d="M580 -231h-537v118h229v1557h-229v119h537v-1794z" />
    <glyph glyph-name="asciicircum" unicode="^" horiz-adv-x="1230" 
d="M1145 637h-266l-269 629l-274 -629h-256l416 889h237z" />
    <glyph glyph-name="underscore" unicode="_" horiz-adv-x="1024" 
d="M0 -76h1024v-311h-1024v311z" />
    <glyph glyph-name="grave" unicode="`" horiz-adv-x="745" 
d="M498 1946l104 -320h-233l-209 320h338z" />
    <glyph glyph-name="a" unicode="a" 
d="M1407 53q0 -53 -113 -53h-510q-100 0 -100 57q0 37 39 58q41 25 48 45t-5 80l-41 157h-299l29 119h250l-207 905l26 111h453l307 -1294q2 -6 6 -34t13 -40q14 -21 23 -30t30 -17q51 -23 51 -64zM440 51q0 -23 -20 -36t-36 -14t-50 -1h-236q-115 0 -114 61q0 34 22 45
q8 4 28 12t29 13q92 49 138 215l245 899h7l53 -231l-193 -701q-20 -96 -6 -131t72 -59q23 -10 32 -15q9 -6 19 -20t10 -37z" />
    <glyph glyph-name="b" unicode="b" horiz-adv-x="1538" 
d="M776 1532h64q256 0 379 -59q201 -100 200 -316q1 -158 -109 -246t-278 -114v-4q408 -66 408 -394q0 -264 -271 -366q-61 -23 -105 -26t-54 -4q-30 -3 -94 -3h-140v119q92 4 123 46t31 111v265q0 84 -32 135t-122 57v119q109 8 134 66q20 45 20 110v205q0 164 -154 180
v119zM684 1532v-1532h-551q-66 0 -65 63q0 41 48 57t57 32t9 77v1074q0 61 -9 77t-57 32t-48 56q0 63 65 64h551z" />
    <glyph glyph-name="c" unicode="c" horiz-adv-x="1343" 
d="M45 750q0 346 183 574t481 239v-119q-131 -27 -131 -191v-970q0 -162 131 -195v-119q-324 6 -494 221t-170 560zM1208 444q25 0 41 -20t17 -49q-4 -131 -157 -271t-308 -135v119q121 28 212 104t124 187q14 40 30 53q16 12 41 12zM1094 1481q30 0 50 41t54 41
q66 0 66 -74v-475q0 -74 -66 -74q-59 0 -76 74q-39 202 -161 332q-70 73 -160 98v119q41 -2 151 -42q112 -40 142 -40z" />
    <glyph glyph-name="d" unicode="d" horiz-adv-x="1488" 
d="M670 1532v-1532h-520q-96 0 -97 63q0 41 48 57q47 16 57 32t10 77v1074q0 88 -35 98q-4 2 -14 5q-12 4 -29 10q-37 14 -37 57q0 59 92 59h525zM762 0v119q57 8 89 47t37 75t5 89v872q0 53 -5 89t-37 75t-89 47v119q276 4 460 -192t203 -574q8 -174 -46 -322
q-100 -274 -366 -391q-122 -53 -251 -53z" />
    <glyph glyph-name="e" unicode="e" horiz-adv-x="1347" 
d="M1047 539q0 -66 -54 -66q-38 0 -53 34q-6 13 -12 34q-38 151 -144 180v127q106 29 144 180q13 43 34 59t43 9q42 -16 42 -56v-501zM784 0v119q123 14 215 93t134 204q25 53 47 61q8 2 16 2q59 0 59 -69v-410h-471zM784 1532h457v-416q0 -49 -63 -49q-39 0 -56 51
q-82 254 -338 295v119zM76 1461q0 35 22 53t54 18h540v-1532h-540q-32 0 -54 18t-22 52t48 50t57 32t9 77v1074q0 61 -9 77t-57 32t-48 49z" />
    <glyph glyph-name="f" unicode="f" horiz-adv-x="1300" 
d="M1063 1030v-491q0 -66 -53 -66q-37 0 -54 34q-6 13 -12 34q-37 151 -143 180v127q106 29 143 180q13 43 29 55t37 13q53 0 53 -66zM801 1532h456v-416q0 -49 -63 -49q-39 0 -55 51q-82 254 -338 295v119zM207 229v1074q0 61 -9 77q-10 16 -58 32t-48 49q0 35 23 53t53 18
h541v-1303q0 -61 9 -77t57 -32t48 -50t-22 -52t-53 -18h-580q-32 0 -54 18t-22 52t48 50t58 32t9 77z" />
    <glyph glyph-name="g" unicode="g" 
d="M862 219v369q0 37 -12 48t-72 21q-53 14 -53 62q0 57 82 57h489q72 0 72 -61q0 -37 -37 -61t-37 -62v-406q-233 -211 -526 -217v119q94 29 94 131zM1116 1487q31 0 60 38t61 38q57 0 57 -66v-457q0 -74 -63 -73q-37 -1 -52 21t-26 61q-45 189 -149 289t-236 106v119
q166 -14 300 -62q42 -14 48 -14zM578 1257v-981q0 -154 98 -188v-119q-266 7 -448 237t-183 560q0 330 182 560t449 237v-119q-98 -35 -98 -187z" />
    <glyph glyph-name="h" unicode="h" horiz-adv-x="1734" 
d="M1004 229v490h-181v119h181v465q0 61 -10 77t-57 32q-48 16 -48 49q0 35 22 53t54 18h579q32 0 54 -18t22 -53q0 -34 -48 -49q-48 -16 -58 -32t-9 -77v-1074q0 -61 9 -77q10 -16 58 -32t48 -50t-22 -52t-54 -18h-579q-32 0 -54 18t-22 52t48 50q47 16 57 32t10 77z
M731 1303v-1074q0 -61 9 -77q10 -16 58 -32t48 -50t-23 -52t-53 -18h-580q-31 0 -53 18t-22 52t48 50t57 32t9 77v1074q0 61 -9 77t-57 32t-48 49q0 35 22 53t53 18h580q32 0 54 -18t22 -53q0 -34 -48 -49q-48 -16 -58 -32t-9 -77z" />
    <glyph glyph-name="i" unicode="i" horiz-adv-x="915" 
d="M709 1303v-1074q0 -61 9 -77t57 -32t48 -50t-22 -52t-53 -18h-580q-32 0 -54 18t-22 52t48 50t58 32t9 77v1074q0 61 -9 77q-10 16 -58 32t-48 49q0 35 23 53t53 18h580q31 0 53 -18t22 -53q0 -34 -48 -49q-48 -16 -57 -32t-9 -77z" />
    <glyph glyph-name="j" unicode="j" horiz-adv-x="1236" 
d="M1061 1303v-887q0 -223 -131 -335t-379 -112l-72 2v121q74 30 79 132q1 19 1 57v1022q0 61 -9 77q-10 16 -58 32t-48 49q0 35 23 53t53 18h580q31 0 53 -18q23 -18 23 -53q0 -34 -48 -49q-48 -16 -58 -32q-9 -16 -9 -77zM2 334q0 102 70 175t165 73t161 -65t67 -145
q0 -155 -141 -214q-20 -10 -21 -17q0 -27 84 -45v-121q-157 17 -271 113t-114 246z" />
    <glyph glyph-name="k" unicode="k" horiz-adv-x="1685" 
d="M731 1303v-1074q0 -61 9 -77q10 -16 58 -32t48 -50t-23 -52t-53 -18h-580q-31 0 -53 18t-22 52t48 50t57 32t9 77v1074q0 61 -9 77t-57 32t-48 49q0 35 22 53t53 18h580q32 0 54 -18t22 -53q0 -34 -48 -49q-48 -16 -58 -32t-9 -77zM1624 55q0 -55 -100 -55h-523
q-33 0 -51 2t-38 17q-19 15 -19 48t42 55t42 44t-16 59l-127 381q-27 84 -27 123t47 107l238 338q53 72 53 136t-78 97q-2 2 -11 5q-8 3 -12 5t-11 5q-7 2 -15 10t-9 13t-3 11t-2 24t18 34q18 14 34 16t48 2h350q33 0 52 -3q20 -3 38 -19t18 -42q1 -49 -62 -73
q-64 -24 -88 -42q-24 -17 -38 -25t-32 -28l-25 -25q-9 -7 -27 -31t-23 -31t-27 -35t-28 -37l-38 -54l329 -864q2 -6 8 -20q7 -13 9 -21q14 -41 59 -63q45 -21 45 -64z" />
    <glyph glyph-name="l" unicode="l" horiz-adv-x="1222" 
d="M791 0v119q229 31 303 356q12 57 77 57q51 0 52 -77v-455h-432zM698 1303v-1303h-540q-32 0 -54 18t-22 52t48 50t57 32t10 77v1074q1 61 -9 77t-58 32t-48 49q0 35 22 53t54 18h579q32 0 54 -18t22 -53q0 -34 -48 -49q-47 -16 -57 -32t-10 -77z" />
    <glyph glyph-name="m" unicode="m" horiz-adv-x="1800" 
d="M84 1468q0 63 86 64h520l219 -629h4l93 340h4v-373l-260 -870h-60l-428 1268q-20 60 -30 76q-20 33 -23 40q-14 29 -45 29q-80 6 -80 55zM1102 229v1303h540q32 0 54 -18t22 -53q0 -34 -48 -49q-48 -16 -57 -32t-9 -77v-1074q0 -61 9 -77t57 -32t48 -50t-22 -52t-54 -18
h-579q-32 0 -54 18q-21 18 -21 52t47 50t57 32t10 77zM256 1014h4l115 -338v-352q15 -136 71 -180q22 -17 44 -26q47 -20 49 -59q0 -59 -107 -59h-233q-106 0 -107 59q0 37 48 59q22 9 44 26q56 42 72 180v690z" />
    <glyph glyph-name="n" unicode="n" horiz-adv-x="1542" 
d="M1303 0h-306l-749 1292q-4 6 -11 20t-11 19q-3 5 -10 15t-16 21t-19 16q-11 5 -21 11t-37 14q-47 16 -47 59q0 63 76 63q6 0 28 2h527l596 -1036v-496zM1184 1161q0 157 -60 210q-26 22 -50 34q-58 29 -58 65q0 61 88 62h278q88 0 88 -62q0 -24 -17 -38t-42 -26t-49 -35
q-58 -53 -59 -210v-497h-5l-114 206v291zM236 1147h4l114 -205v-618q15 -135 72 -180q22 -17 44 -26q48 -20 48 -59q0 -59 -106 -59h-234q-106 0 -106 59q0 37 48 59q22 9 44 26q56 42 72 180v823z" />
    <glyph glyph-name="o" unicode="o" horiz-adv-x="1456" 
d="M879 1296q0 111 -105 148v119q311 -29 474 -251t163 -546t-163 -546t-474 -251v119q104 37 105 148v1060zM578 1296v-1060q0 -111 104 -148v-119q-311 29 -474 251t-163 546t163 546t474 251v-119q-104 -37 -104 -148z" />
    <glyph glyph-name="p" unicode="p" horiz-adv-x="1462" 
d="M180 229v1074q0 61 -9 77t-57 32t-48 49q0 35 22 53t53 18h541v-1303q0 -61 9 -77t57 -32t49 -50q0 -34 -23 -52t-53 -18h-580q-31 0 -53 18t-22 52t48 50t57 32t9 77zM774 1532q274 0 406 -76q211 -125 211 -397t-211 -397q-131 -76 -406 -76v119q89 17 108 70t19 136
v310q0 174 -127 192v119z" />
    <glyph glyph-name="q" unicode="q" horiz-adv-x="1470" 
d="M883 1296q0 111 -105 148v119h2q311 -29 475 -251t160 -546q-4 -387 -252 -631q43 -45 115 -45q33 0 70 11t47 11t21 -14t11 -28q0 -45 -57 -82q-94 -66 -194 -66q-141 0 -226 92q-63 -45 -176 -45v121q49 25 64 45q-47 61 -95 76q-25 2 -37 4t-22 14q-12 12 -12 35
q0 66 100 66q68 0 111 -27v993zM578 1296v-1060q0 -111 104 -148v-119q-311 29 -474 251t-163 546t163 546t474 251v-119q-104 -37 -104 -148z" />
    <glyph glyph-name="r" unicode="r" horiz-adv-x="1605" 
d="M1425 243q0 -30 21 -30q14 0 38 30q43 54 90 10q19 -19 19 -50q1 -31 -35 -80t-77 -80q-89 -74 -233 -74t-228 85t-84 261v140q0 157 -54 196q-28 20 -71 25v121q77 6 101 49t24 129v248q0 81 -26 121t-99 67v121h35q227 0 332 -39q20 -8 39 -16q205 -100 208 -336
q6 -301 -360 -387v-4q152 -23 246 -77q112 -65 114 -220v-210zM217 229v1074q0 61 -9 77q-10 16 -58 32t-48 49q0 35 23 53t53 18h541v-1303q0 -61 9 -77t57 -32q49 -16 49 -50t-23 -52t-53 -18h-580q-31 0 -53 18q-23 18 -23 52t48 50t58 32t9 77z" />
    <glyph glyph-name="s" unicode="s" horiz-adv-x="1292" 
d="M84 63v396q0 100 66 100q28 0 50 -19t25 -48q25 -138 112 -258t212 -146v-119q-102 2 -184 39t-112 37q-29 0 -55 -34t-51 -34q-63 0 -63 86zM1153 1470v-350q0 -98 -68 -98q-61 0 -73 80q-16 117 -104 217t-206 125v119q97 0 237 -61q46 -19 52 -19q27 0 51 37t52 36
q59 0 59 -86zM465 1266q0 -68 61 -123t238 -123q250 -96 347 -227t97 -293q0 -230 -166 -378t-401 -153v119q86 27 135 69t50 104t-22 97t-45 51q-21 15 -31 23t-39 22q-28 14 -36 17q-8 4 -38 16q-238 95 -385 214q-146 119 -146 348t148 367t378 147v-119
q-145 -53 -145 -178z" />
    <glyph glyph-name="t" unicode="t" horiz-adv-x="1363" 
d="M45 1055v477h295v-119q-113 -80 -154 -319q-8 -59 -27 -78q-19 -20 -46 -20t-47 16q-20 18 -21 43zM1321 1532v-477q-1 -26 -21 -43q-20 -16 -53 -16t-47 26q-14 27 -20 72q-41 240 -154 319v119h295zM432 229v1303h502v-1303q0 -61 9 -77t57 -32t49 -50q0 -34 -23 -52
t-53 -18h-580q-31 0 -53 18t-22 52t47 50t57 32t10 77z" />
    <glyph glyph-name="u" unicode="u" horiz-adv-x="1556" 
d="M842 -31q-100 0 -156 3q-148 8 -274 78q-127 71 -167 133t-40 149v971q0 61 -9 77q-10 16 -58 32t-48 49q0 35 23 53t53 18h579q32 0 54 -18t22 -53q0 -34 -48 -49q-48 -16 -57 -32t-9 -77v-1012q0 -65 14 -93q45 -88 121 -108v-121zM1151 1532h233q106 0 107 -59
q0 -37 -48 -59q-23 -9 -45 -26q-54 -41 -71 -180v-772q-6 -119 -49 -213q-71 -155 -227 -223q-61 -27 -117 -27v121q139 43 202 125q62 82 72 221v768q-15 136 -71 180q-23 17 -45 26q-47 20 -48 59q0 59 107 59z" />
    <glyph glyph-name="v" unicode="v" horiz-adv-x="1386" 
d="M1294 1532q82 0 82 -57q0 -32 -14 -42q-14 -9 -17 -11t-34 -16q-31 -13 -56 -30q-64 -48 -102 -190l-172 -637h-4l-57 211l120 452q14 45 15 80q0 84 -78 111q-43 17 -53 32t-11 33q1 64 125 64h256zM667 1532q95 0 95 -62q0 -38 -45 -62t-45 -67q0 -18 10 -59l254 -889
l-107 -393h-294l-394 1317q-15 59 -19 62q-5 3 -11 9q-7 6 -15 10q-62 22 -61 69q0 47 43 56t191 9h398z" />
    <glyph glyph-name="w" unicode="w" horiz-adv-x="1886" 
d="M1556 1320q0 26 -20 50t-44 35q-63 26 -65 72q0 55 80 55h265q84 0 83 -57q0 -21 -9 -31t-34 -21q-70 -31 -102 -80t-53 -139l-131 -520l-4 2l-58 221l78 320q14 67 14 93zM981 1532h231l269 -1022l-129 -510h-244l-266 987zM31 1464q0 68 131 68h395q138 0 160 -7
q37 -12 37 -49q0 -38 -46 -65t-46 -65q0 -16 10 -52l202 -751l-135 -543h-243l-365 1333q-8 33 -16 45t-35 25q-49 23 -49 61z" />
    <glyph glyph-name="x" unicode="x" horiz-adv-x="1396" 
d="M379 208q0 -61 60 -79q59 -15 61 -66q0 -37 -35 -55q-16 -8 -86 -8h-240q-102 0 -102 55q0 41 57 64q84 33 146 129l186 303l63 -127l-36 -62q-74 -120 -74 -154zM856 1470q0 60 94 62h275q98 0 98 -51q0 -37 -34 -57q-9 -5 -34 -17q-84 -47 -147 -147l-154 -242l-61 125
l31 59q47 78 47 113q0 61 -66 94q-49 27 -49 61zM1374 66q0 -66 -127 -66h-399q-135 0 -155 2t-42 16q-22 13 -22 44q0 30 35 54q34 24 34 48t-26 84l-531 1065q-2 4 -19 39t-59 55q-12 8 -24 15q-16 10 -16 51t43 50t90 9h473q37 0 59 -2t48 -18q24 -16 24 -48
q0 -31 -32 -49q-32 -17 -32 -41t19 -61l542 -1104q6 -6 10 -16q3 -9 7 -16q16 -28 29 -36q14 -8 26 -14q45 -23 45 -61z" />
    <glyph glyph-name="y" unicode="y" horiz-adv-x="1374" 
d="M424 229v365l-309 733q-25 63 -60 86q-47 25 -47 57q0 62 76 62h539q86 0 104 -29q8 -14 8 -40t-45 -54q-39 -20 -39 -49t21 -78l254 -580v-473q0 -61 9 -77t57 -32t48 -50t-22 -52t-53 -18h-580q-32 0 -54 18q-21 18 -21 52t47 50t57 32t10 77zM922 1425q-22 16 -21 47
t15 39q14 9 21 13q13 8 100 8h225q104 0 104 -66q0 -38 -56 -62t-83 -54t-58 -95l-200 -440l-66 146l107 237q56 122 8 174q-22 24 -48 30q-26 7 -48 23z" />
    <glyph glyph-name="z" unicode="z" horiz-adv-x="1202" 
d="M1098 477q57 0 57 -59l2 -418h-528l53 119q158 33 230 93t126 204q18 61 60 61zM84 1126v406h494l-52 -119q-260 -51 -323 -285q-18 -61 -62 -61q-57 0 -57 59zM1157 1532v-129l-620 -1403h-492v111l625 1421h487z" />
    <glyph glyph-name="braceleft" unicode="{" horiz-adv-x="716" 
d="M532 338v-275q0 -129 34 -190t134 -98v-6q-178 0 -239 8q-113 10 -161 73t-48 263v278q0 121 -29 183t-98 90v6q71 27 99 89t28 183v279q0 199 48 262t161 73q61 6 239 7v-4q-100 -37 -134 -99t-34 -190v-275q0 -151 -28 -225t-109 -100v-6q81 -28 109 -102t28 -224z" />
    <glyph glyph-name="bar" unicode="|" horiz-adv-x="645" 
d="M446 -610h-247v2451h247v-2451z" />
    <glyph glyph-name="braceright" unicode="}" horiz-adv-x="716" 
d="M184 993v275q0 129 -33 190q-34 61 -135 98v7q178 0 240 -9q113 -10 161 -73t48 -262v-279q0 -121 29 -183t98 -89v-6q-70 -28 -98 -90t-29 -183v-278q0 -199 -48 -263t-161 -73q-61 -6 -240 -6v4q100 37 135 98q34 61 33 190v275q0 150 28 224t110 102v6
q-82 27 -110 101t-28 224z" />
    <glyph glyph-name="asciitilde" unicode="~" horiz-adv-x="1200" 
d="M981 506q-90 -68 -196 -68t-246 105q-4 2 -37 23q-44 28 -97 28t-93 -30t-72 -75q-33 -45 -37 -49l-150 140q51 100 151 172q204 146 425 2q28 -21 42 -29q13 -8 27 -17q14 -10 20 -12t16 -8q29 -16 73 -16q43 0 84 38t96 115l150 -139q-66 -112 -156 -180z" />
    <glyph glyph-name="uni00A0" unicode="&#xa0;" horiz-adv-x="696" 
 />
    <glyph glyph-name="exclamdown" unicode="&#xa1;" horiz-adv-x="774" 
d="M387 -457q-113 0 -172 82q-59 81 -59 183t76 330t81 388q4 84 74 84t74 -84q5 -160 81 -388t76 -330t-59 -183q-59 -82 -172 -82zM608 915q0 -89 -63 -155t-157 -66t-159 66q-63 66 -63 156t63 155q63 66 157 66t158 -66t64 -156z" />
    <glyph glyph-name="cent" unicode="&#xa2;" horiz-adv-x="1228" 
d="M553 1448v233h119v-233h-119zM1044 520q48 0 50 -55q-4 -107 -124 -211t-261 -102q-291 6 -431 172t-140 438t149 450q150 176 405 185q74 2 161 -29t109 -31t35 29q12 33 43 33q51 0 52 -58v-372q0 -57 -52 -58q-37 0 -53 58q-78 287 -256 336q-90 25 -134 -29t-44 -123
v-758q0 -59 45 -103t134 -46t161 64t100 157q14 53 51 53zM553 102h119v-221h-119v221z" />
    <glyph glyph-name="sterling" unicode="&#xa3;" horiz-adv-x="1318" 
d="M1071 231q45 0 82 52q2 4 9 13t16 21t34 13q35 0 35 -47q0 -105 -117 -227t-305 -122q-106 0 -218 48t-209 95q-96 48 -150 48t-105 -17q-51 -18 -68 -18t-32 13q-14 13 -14 32q0 47 123 88l122 45q88 33 213 64q125 30 208 30t154 -32t124 -66q53 -33 98 -33zM29 760
v119h174q-78 371 143 557q147 127 422 127q140 0 246 -34q181 -58 249 -203q27 -58 27 -127t-54 -119t-126 -50t-118 45t-46 117t96 145q-51 98 -206 107q-90 4 -142 -65t-53 -159q0 -90 51 -341h350v-119h-350q-27 -281 -176 -344q-32 -14 -106 -39l-209 -74l-4 4
q79 119 79 243t-43 210h-204z" />
    <glyph glyph-name="currency" unicode="&#xa4;" horiz-adv-x="1298" 
d="M653 1034h-4q-90 0 -148 -80q-59 -80 -59 -198t58 -193q58 -76 152 -76q93 0 152 77q58 77 58 194q0 116 -60 196t-149 80zM654 1272q146 0 229 -74l141 170l152 -151l-156 -160q94 -101 94 -289t-94 -309l158 -174l-156 -146l-141 180q-89 -69 -231 -69t-230 72
l-139 -183l-158 146l156 174q-91 125 -91 308t93 292l-156 158l156 147l137 -168q90 76 236 76z" />
    <glyph glyph-name="yen" unicode="&#xa5;" horiz-adv-x="1374" 
d="M424 229v144h-156v119h156v102l-309 733q-25 63 -60 86q-47 25 -47 57q0 62 76 62h539q86 0 104 -29q8 -14 8 -40t-45 -54q-39 -20 -39 -49t21 -78l254 -580v-210h155v-119h-155v-144q0 -61 9 -77t57 -32t48 -50t-22 -52t-53 -18h-580q-32 0 -54 18q-21 18 -21 52t47 50
t57 32t10 77zM922 1425q-22 16 -21 47t15 39q14 9 21 13q13 8 100 8h225q104 0 104 -66q0 -38 -56 -62t-83 -54t-58 -95l-200 -440l-66 146l107 237q56 122 8 174q-22 24 -48 30q-26 7 -48 23z" />
    <glyph glyph-name="brokenbar" unicode="&#xa6;" horiz-adv-x="647" 
d="M446 -428h-247v856h247v-856zM446 797h-247v856h247v-856z" />
    <glyph glyph-name="section" unicode="&#xa7;" horiz-adv-x="1288" 
d="M283 983v-2q0 -182 239 -350q264 -172 299 -197q139 -121 144 -250l6 2q39 49 39 125q0 203 -230 351q-109 66 -288 192q-66 55 -109 144t-39 159l-8 4q-53 -88 -53 -178zM1202 549q0 -170 -94 -349q-94 -178 -249 -312t-322 -177q-168 0 -273 84q-51 43 -51 96
q0 27 39 82t82 81t72 12q2 -2 45 -50q102 -115 206 -114q41 0 68 18t27 51t-18 47q-18 15 -42 32q-25 17 -81 58q-56 40 -140 96t-123 83q-127 94 -189 212q-63 118 -63 287q0 170 85 328t191 257t184 149t194 71q84 1 160 -27t117 -72q40 -44 40 -85t-47 -93t-82 -70t-64 7
q-6 5 -51 55q-99 112 -187 111q-87 0 -87 -82q0 -37 74 -90q20 -14 62 -45t306 -209q209 -153 211 -440v-2z" />
    <glyph glyph-name="dieresis" unicode="&#xa8;" horiz-adv-x="768" 
d="M920 1837q0 -90 -64 -156q-64 -65 -158 -65t-157 66t-64 155q-1 90 63 156q64 65 158 65t158 -66t64 -155zM289 1837q1 -90 -63 -156q-64 -65 -158 -65t-158 65q-63 66 -64 156q0 90 64 156q64 65 158 65t158 -66t63 -155z" />
    <glyph glyph-name="copyright" unicode="&#xa9;" horiz-adv-x="1923" 
d="M1229 559q39 0 39 -43q-2 -82 -98 -169t-191 -81v76q74 12 131 59t78 117q14 41 41 41zM979 1253q25 -1 95 -25t88 -24t30 25q10 27 33 26q41 0 41 -47v-295q0 -47 -41 -47q-29 0 -41 47q-64 230 -205 267v73zM508 750q0 214 115 356t299 149v-73q-82 -16 -82 -119v-604
q0 -98 82 -121v-74q-201 4 -308 138q-106 134 -106 348zM964 94q280 0 476 197t194 475q0 278 -196 476q-196 196 -474 196q-280 0 -476 -197t-198 -475t196 -476q198 -196 478 -196zM1759 766q0 -328 -234 -562t-563 -235q-328 1 -562 235t-234 562t233 562t563 234
t563 -234q234 -234 234 -562z" />
    <glyph glyph-name="ordfeminine" unicode="&#xaa;" horiz-adv-x="786" 
d="M326 772h-59q-89 0 -116 14l-42 21q-99 61 -99 193t119 191q46 23 95 23h102v-55q-40 -6 -50 -32t-10 -64v-145q1 -81 60 -91v-55zM657 1266v-238q0 -47 23 -57q10 -4 28 6t34 10t32 -14t16 -39t-28 -63q-29 -38 -60 -62q-80 -37 -180 -37q-137 0 -137 197v594
q92 0 178 -56q45 -29 67 -71t24 -75q2 -32 3 -95zM324 1563v-56q-61 0 -64 -45q51 -34 39 -104q-6 -36 -42 -61t-82 -17t-73 48q-26 40 -18 91t68 97t108 47h64z" />
    <glyph glyph-name="guillemotleft" unicode="&#xab;" horiz-adv-x="1243" 
d="M858 760q0 -22 115 -147q115 -123 115 -153t-72 -89t-95 -60t-35 16q-11 17 -20 32q-8 15 -12 20l-211 315q-29 37 -29 66t29 65l211 316q4 4 12 19q8 16 20 32t36 16q22 0 94 -59t72 -89t-116 -154q-114 -124 -114 -146zM463 1208q23 0 95 -59t71 -89q0 -30 -115 -154
t-115 -146t115 -147q115 -123 115 -153t-72 -89t-98 -60t-51 48q-8 15 -13 20l-211 315q-29 37 -28 66q0 29 28 65l211 316q4 4 13 19q8 16 20 32t35 16z" />
    <glyph glyph-name="logicalnot" unicode="&#xac;" horiz-adv-x="1200" 
d="M1102 268h-246v430h-758v242h1004v-672z" />
    <glyph glyph-name="uni00AD" unicode="&#xad;" horiz-adv-x="1024" 
d="M154 915h716v-311h-716v311z" />
    <glyph glyph-name="registered" unicode="&#xae;" horiz-adv-x="1923" 
d="M1051 1049q-1 47 -15 71t-59 41v72h6q193 0 280 -57t87 -168t-58 -165t-162 -79v-4q100 -12 158 -50t58 -128v-111q0 -35 11 -35t25 18t28 17q14 0 28 -10q12 -10 12 -25q0 -47 -62 -97t-147 -50q-190 0 -190 209v129q0 82 -74 90v71q47 4 60 30t14 79v152zM625 444v650
q0 37 -5 47t-36 20q-29 10 -29 35q0 37 47 37h328v-789q0 -37 5 -47t38 -18q27 -10 26 -35q0 -37 -47 -37h-350q-47 0 -47 37q0 25 29 35q31 8 36 18t5 47zM964 94q280 0 476 197t194 475q0 278 -196 476q-196 196 -474 196q-280 0 -476 -197t-198 -475t196 -476
q198 -196 478 -196zM1759 766q0 -328 -234 -562t-563 -235q-328 1 -562 235t-234 562t233 562t563 234t563 -234q234 -234 234 -562z" />
    <glyph glyph-name="macron" unicode="&#xaf;" horiz-adv-x="696" 
d="M684 1905v-191h-672v191h672z" />
    <glyph glyph-name="degree" unicode="&#xb0;" horiz-adv-x="880" 
d="M436 1436h-2q-74 0 -119 -64t-45 -164t46 -164t121 -63q75 0 119 61q44 62 44 162t-41 166t-123 66zM436 1587h2q156 -1 254 -111t98 -277t-102 -268t-252 -101t-251 100q-101 102 -101 275t102 278q103 104 250 104z" />
    <glyph glyph-name="plusminus" unicode="&#xb1;" horiz-adv-x="1200" 
d="M1102 -33h-998v240h998v-240zM1096 713h-373v-414h-248v414h-377v241h377v396h248v-396h373v-241z" />
    <glyph glyph-name="twosuperior" unicode="&#xb2;" horiz-adv-x="835" 
d="M281 1460q0 -8 20 -19q21 -11 41 -38t20 -74t-43 -84t-105 -37t-100 41q-40 41 -40 101q0 88 76 144t176 67v-72q-45 -6 -45 -29zM778 870q0 -86 -71 -174q-33 -38 -86 -64t-107 -26t-166 31t-146 31t-64 -22t-40 -21q-35 0 -35 39q0 88 72 145t180 57l322 -35
q33 1 48 15t17 30q5 44 39 46q37 0 37 -52zM387 1491v72q147 4 256 -67t107 -202q-6 -193 -246 -278l-195 -84l-12 -10q-53 0 -131 -35l-4 4q47 61 128 115t121 110q40 58 41 202t-65 173z" />
    <glyph glyph-name="threesuperior" unicode="&#xb3;" horiz-adv-x="835" 
d="M59 813q0 57 41 96q40 39 96 39t98 -37t42 -78t-18 -67t-37 -41q-18 -14 -19 -20q0 -19 78 -27v-72q-111 8 -196 62t-85 145zM342 1099q0 32 55 36q86 8 86 100v141q0 96 -82 115v72q181 6 273 -72t92 -169t-57 -148t-152 -78v-4q115 -29 169 -80q54 -50 54 -150
t-87 -180t-292 -76v72q82 18 82 110v166q0 104 -86 109q-55 4 -55 36zM285 1450q0 -10 17 -20q50 -29 50 -84q0 -54 -38 -91t-92 -37t-91 36q-37 34 -37 87q0 90 73 147t173 71v-72q-55 -10 -55 -37z" />
    <glyph glyph-name="acute" unicode="&#xb4;" horiz-adv-x="745" 
d="M342 1946h338l-211 -320h-231z" />
    <glyph glyph-name="mu" unicode="&#xb5;" horiz-adv-x="1449" 
d="M575 1128v-1241q0 -39 29 -49q47 -16 47 -49q0 -21 -18 -35t-80 -33q-186 -59 -293 -59q-72 0 -72 133v1333h387zM1235 1128v-886q0 -88 86 -133q41 -23 41 -59t-60 -54t-116 -19q-156 0 -221 132h-4q-23 -55 -74 -93t-124 -39q-73 0 -112 46v157q18 -4 41 -4
q84 0 120 54t36 167v731h387z" />
    <glyph glyph-name="paragraph" unicode="&#xb6;" horiz-adv-x="1275" 
d="M977 96q0 -307 -201 -479q-70 -59 -156 -92t-122 -33q-119 0 -205 82q-51 47 -33 98q10 39 42 75t69 52q29 20 63 -8q33 -37 91 -71q59 -34 107 -34t78 13q30 12 56 48q52 71 53 310v273l-203 -86q-31 -10 -51 -11q-172 1 -319 149t-148 382q0 133 54 248q53 115 141 184
q166 141 383 141h536l11 -32l-86 -84l-160 -27v-1098z" />
    <glyph glyph-name="periodcentered" unicode="&#xb7;" horiz-adv-x="745" 
d="M594 563q0 -89 -64 -155t-157 -66q-94 0 -158 66q-63 66 -63 156t63 155t157 65t158 -66t64 -155z" />
    <glyph glyph-name="cedilla" unicode="&#xb8;" horiz-adv-x="696" 
d="M285 -193h-39q-66 0 -66 64v129h166v-78h47q66 0 66 -65v-224q0 -45 -22 -81t-58 -35h-232v174h138v116z" />
    <glyph glyph-name="onesuperior" unicode="&#xb9;" horiz-adv-x="835" 
d="M559 768q0 -27 8 -35t47 -18q35 -4 35 -35q0 -37 -65 -37h-330q-66 0 -66 37q0 31 35 35q39 10 47 18t9 35v618q-1 54 -9 68t-34 19q-49 4 -50 32q0 43 66 43l307 15v-795z" />
    <glyph glyph-name="ordmasculine" unicode="&#xba;" horiz-adv-x="761" 
d="M471 903v529q0 57 -51 73v58q156 -12 236 -123t81 -273q-1 -163 -81 -273t-236 -122v57q51 20 51 74zM291 1436v-529q0 -57 51 -73v-58q-156 12 -237 123t-81 273t81 272q81 111 237 123v-58q-51 -20 -51 -73z" />
    <glyph glyph-name="guillemotright" unicode="&#xbb;" horiz-adv-x="1243" 
d="M318 1208q18 0 31 -10t24 -32q12 -21 16 -25l211 -316q29 -37 29 -65t-29 -66l-211 -315q-4 -3 -12 -19q-25 -49 -52 -49q-26 -1 -98 59q-71 60 -71 90t114 154t115 146q0 22 -115 146q-114 124 -114 154t71 89q73 59 91 59zM844 760q0 22 -115 146t-115 154t72 89t90 59
t31 -10t25 -32t16 -25l211 -316q29 -37 29 -65t-29 -66l-211 -315q-4 -3 -12 -19q-25 -48 -52 -49q-26 -1 -98 59t-72 90t115 154t115 146z" />
    <glyph glyph-name="onequarter" unicode="&#xbc;" horiz-adv-x="1783" 
d="M1432 1534l-992 -1640l-94 71l985 1632zM702 684h-600v90q94 6 122 36t28 124v323q0 83 -10 101t-66 24l-78 9v86q303 35 453 82v-625q0 -96 26 -123t125 -37v-90zM1233 354v283h-6q-29 -53 -106 -147t-103 -136h215zM1679 227h-149v-14q0 -75 24 -99t113 -30v-84h-567
v84q94 4 113 24t20 105v14h-373v78q109 162 245 342t187 230h238v-523h149v-127z" />
    <glyph glyph-name="onehalf" unicode="&#xbd;" horiz-adv-x="1783" 
d="M983 0v80q151 121 188 156q112 105 136 167q24 61 24 123t-37 103t-98 41q-94 0 -190 -115l-60 61l80 107q51 66 135 110q83 44 195 44t200 -65t91 -189q4 -174 -256 -324l-146 -80v-4h225q68 1 104 25t75 104l73 -25q-88 -313 -90 -319h-649zM1395 1534l-992 -1638
l-96 71l985 1630zM674 684h-600v90q92 4 122 35t29 125v323q0 79 -11 99t-67 26l-75 9v86q301 35 448 82v-625q0 -96 28 -123t126 -37v-90z" />
    <glyph glyph-name="threequarters" unicode="&#xbe;" horiz-adv-x="1783" 
d="M1450 1534l-989 -1640l-99 71l988 1632zM831 987q0 -100 -95 -179t-209 -114t-219 -35t-189 64q-53 47 -31 106q31 68 84 105q31 16 64 -10q10 -10 48 -58t72 -70t76 -22q106 0 107 121q0 168 -156 172q-55 6 -119 -8l-14 88q221 53 221 149q0 35 -28 59t-85 23
q-94 0 -200 -118l-56 67l95 117q123 113 272 112h4q139 0 219 -58t80 -132t-53 -114t-119 -64l-2 -4q233 -35 233 -197zM1237 354v283h-4q-29 -49 -105 -142t-104 -141h213zM1686 227h-152v-14q0 -75 26 -99t111 -30v-84h-567v84q94 4 114 24t19 105v14h-373v78
q102 156 241 338q138 182 191 234h238v-523h152v-127z" />
    <glyph glyph-name="questiondown" unicode="&#xbf;" horiz-adv-x="1241" 
d="M965 915q1 -89 -63 -155t-158 -66t-158 66t-64 156t64 155q64 66 157 66q94 0 158 -66t64 -156zM772 627q29 -1 43 -15t16 -29t3 -48v-345q0 -57 -12 -65t-58 -8q-119 -2 -193 -79t-74 -196t70 -174v-119q-172 15 -293 145q-120 130 -120 314t133 315q133 132 352 160
q47 5 60 17t16 59q0 68 57 68zM666 -463v119q45 14 51 35q2 6 2 17t-12 44t-13 68q0 74 56 126t138 52q81 0 141 -53q61 -53 61 -147t-108 -178q-108 -83 -316 -83z" />
    <glyph glyph-name="Agrave" unicode="&#xc0;" 
d="M838 1946l104 -320h-233l-209 320h338zM1407 53q0 -53 -113 -53h-510q-100 0 -100 57q0 37 39 58q41 25 48 45t-5 80l-41 157h-299l29 119h250l-207 905l26 111h453l307 -1294q2 -6 6 -34t13 -40q14 -21 23 -30t30 -17q51 -23 51 -64zM440 51q0 -23 -20 -36t-36 -14
t-50 -1h-236q-115 0 -114 61q0 34 22 45q8 4 28 12t29 13q92 49 138 215l245 899h7l53 -231l-193 -701q-20 -96 -6 -131t72 -59q23 -10 32 -15q9 -6 19 -20t10 -37z" />
    <glyph glyph-name="Aacute" unicode="&#xc1;" 
d="M682 1946h338l-211 -320h-231zM1407 53q0 -53 -113 -53h-510q-100 0 -100 57q0 37 39 58q41 25 48 45t-5 80l-41 157h-299l29 119h250l-207 905l26 111h453l307 -1294q2 -6 6 -34t13 -40q14 -21 23 -30t30 -17q51 -23 51 -64zM440 51q0 -23 -20 -36t-36 -14t-50 -1h-236
q-115 0 -114 61q0 34 22 45q8 4 28 12t29 13q92 49 138 215l245 899h7l53 -231l-193 -701q-20 -96 -6 -131t72 -59q23 -10 32 -15q9 -6 19 -20t10 -37z" />
    <glyph glyph-name="Acircumflex" unicode="&#xc2;" 
d="M1061 1626h-279l-69 139l-70 -139h-276l219 320h256zM1407 53q0 -53 -113 -53h-510q-100 0 -100 57q0 37 39 58q41 25 48 45t-5 80l-41 157h-299l29 119h250l-207 905l26 111h453l307 -1294q2 -6 6 -34t13 -40q14 -21 23 -30t30 -17q51 -23 51 -64zM440 51q0 -23 -20 -36
t-36 -14t-50 -1h-236q-115 0 -114 61q0 34 22 45q8 4 28 12t29 13q92 49 138 215l245 899h7l53 -231l-193 -701q-20 -96 -6 -131t72 -59q23 -10 32 -15q9 -6 19 -20t10 -37z" />
    <glyph glyph-name="Atilde" unicode="&#xc3;" 
d="M858 1636q-33 0 -95 35q-61 35 -113 45t-82 5t-54 -54h-182q14 96 86 177t166 95q51 0 138 -37q87 -36 122 -38t43 6t31 45h178q-16 -103 -80 -191t-158 -88zM1407 53q0 -53 -113 -53h-510q-100 0 -100 57q0 37 39 58q41 25 48 45t-5 80l-41 157h-299l29 119h250
l-207 905l26 111h453l307 -1294q2 -6 6 -34t13 -40q14 -21 23 -30t30 -17q51 -23 51 -64zM440 51q0 -23 -20 -36t-36 -14t-50 -1h-236q-115 0 -114 61q0 34 22 45q8 4 28 12t29 13q92 49 138 215l245 899h7l53 -231l-193 -701q-20 -96 -6 -131t72 -59q23 -10 32 -15
q9 -6 19 -20t10 -37z" />
    <glyph glyph-name="Adieresis" unicode="&#xc4;" 
d="M1247 1837q0 -90 -63 -156q-64 -65 -158 -65t-158 65q-63 66 -63 156t63 156q64 65 158 65t158 -65q63 -66 63 -156zM616 1837q0 -90 -63 -156q-63 -65 -157 -65t-158 66q-63 66 -64 155q0 90 64 156q64 65 157 65q94 0 158 -65q63 -66 63 -156zM1407 53q0 -53 -113 -53
h-510q-100 0 -100 57q0 37 39 58q41 25 48 45t-5 80l-41 157h-299l29 119h250l-207 905l26 111h453l307 -1294q2 -6 6 -34t13 -40q14 -21 23 -30t30 -17q51 -23 51 -64zM440 51q0 -23 -20 -36t-36 -14t-50 -1h-236q-115 0 -114 61q0 34 22 45q8 4 28 12t29 13q92 49 138 215
l245 899h7l53 -231l-193 -701q-20 -96 -6 -131t72 -59q23 -10 32 -15q9 -6 19 -20t10 -37z" />
    <glyph glyph-name="Aring" unicode="&#xc5;" 
d="M1407 53q0 -53 -113 -53h-510q-100 0 -100 57q0 37 39 58q41 25 48 45t-5 80l-41 157h-299l29 119h250l-207 905l26 111h453l307 -1294q2 -6 6 -34t13 -40q14 -21 23 -30t30 -17q51 -23 51 -64zM440 51q0 -23 -20 -36t-36 -14t-50 -1h-236q-115 0 -114 61q0 34 22 45
q8 4 28 12t29 13q92 49 138 215l245 899h7l53 -231l-193 -701q-20 -96 -6 -131t72 -59q23 -10 32 -15q9 -6 19 -20t10 -37zM786 1851q0 31 -22 52q-22 20 -52 20t-52 -20q-22 -19 -22 -51t22 -52t52 -20t52 20t22 51zM950 1851q0 -95 -70 -165t-167 -70q-98 0 -168 70
t-70 166t70 165q70 70 168 70q97 0 167 -70t70 -166z" />
    <glyph glyph-name="AE" unicode="&#xc6;" horiz-adv-x="2021" 
d="M1737 539q0 -66 -54 -66q-36 0 -53 34q-6 13 -12 34q-37 151 -143 180v127q106 29 143 180q13 43 35 59t42 9q21 -8 26 -16q16 -24 16 -40v-501zM805 1288v-209l-481 -786q-39 -69 -39 -97q-1 -28 21 -45t61 -34q57 -20 57 -60q0 -57 -86 -57h-281q-86 0 -86 55
q0 39 49 60q59 23 78 41t56 77l647 1055h4zM1475 1532h456v-416q0 -49 -63 -49q-39 0 -56 51q-81 254 -337 295v119zM881 512v791q1 61 -9 77t-58 32t-48 49q0 35 22 53t54 18h540v-1532h-540q-32 0 -54 18t-22 52t48 50t57 32t10 77v164h-406l82 119h324zM1475 0v119
q123 14 215 93t133 204q25 53 47 61q8 2 16 2q59 0 60 -69v-410h-471z" />
    <glyph glyph-name="Ccedilla" unicode="&#xc7;" horiz-adv-x="1343" 
d="M647 -193h-39q-66 0 -65 64v119q-244 59 -371 262t-127 487q0 357 183 585t481 239v-119q-131 -27 -131 -191v-970q0 -162 131 -195v-166h47q66 0 65 -65v-224q1 -45 -21 -81t-59 -35h-231v174h137v116zM1137 379q18 66 67 65q29 0 45 -20t17 -49q-4 -131 -157 -271
t-308 -135v119q121 28 211 104t125 187zM1094 1481q30 0 50 41t54 41q66 0 66 -74v-475q0 -74 -66 -74q-59 0 -76 74q-39 202 -161 332q-70 73 -160 98v119q41 -2 151 -42q112 -40 142 -40z" />
    <glyph glyph-name="Egrave" unicode="&#xc8;" horiz-adv-x="1347" 
d="M799 1946l104 -320h-233l-209 320h338zM1047 539q0 -66 -54 -66q-38 0 -53 34q-6 13 -12 34q-38 151 -144 180v127q106 29 144 180q13 43 34 59t43 9q42 -16 42 -56v-501zM784 0v119q123 14 215 93t134 204q25 53 47 61q8 2 16 2q59 0 59 -69v-410h-471zM784 1532h457
v-416q0 -49 -63 -49q-39 0 -56 51q-82 254 -338 295v119zM76 1461q0 35 22 53t54 18h540v-1532h-540q-32 0 -54 18t-22 52t48 50t57 32t9 77v1074q0 61 -9 77t-57 32t-48 49z" />
    <glyph glyph-name="Eacute" unicode="&#xc9;" horiz-adv-x="1347" 
d="M643 1946h338l-211 -320h-231zM1047 539q0 -66 -54 -66q-38 0 -53 34q-6 13 -12 34q-38 151 -144 180v127q106 29 144 180q13 43 34 59t43 9q42 -16 42 -56v-501zM784 0v119q123 14 215 93t134 204q25 53 47 61q8 2 16 2q59 0 59 -69v-410h-471zM784 1532h457v-416
q0 -49 -63 -49q-39 0 -56 51q-82 254 -338 295v119zM76 1461q0 35 22 53t54 18h540v-1532h-540q-32 0 -54 18t-22 52t48 50t57 32t9 77v1074q0 61 -9 77t-57 32t-48 49z" />
    <glyph glyph-name="Ecircumflex" unicode="&#xca;" horiz-adv-x="1347" 
d="M1022 1626h-279l-69 139l-70 -139h-276l219 320h256zM1047 539q0 -66 -54 -66q-38 0 -53 34q-6 13 -12 34q-38 151 -144 180v127q106 29 144 180q13 43 34 59t43 9q42 -16 42 -56v-501zM784 0v119q123 14 215 93t134 204q25 53 47 61q8 2 16 2q59 0 59 -69v-410h-471z
M784 1532h457v-416q0 -49 -63 -49q-39 0 -56 51q-82 254 -338 295v119zM76 1461q0 35 22 53t54 18h540v-1532h-540q-32 0 -54 18t-22 52t48 50t57 32t9 77v1074q0 61 -9 77t-57 32t-48 49z" />
    <glyph glyph-name="Edieresis" unicode="&#xcb;" horiz-adv-x="1347" 
d="M1210 1837q0 -90 -63 -156q-63 -65 -157 -65t-159 65q-63 66 -63 156t63 156q63 65 157 65t159 -65q63 -66 63 -156zM580 1837q0 -90 -64 -156q-64 -65 -158 -65t-157 66t-64 155q-1 90 63 156q64 65 158 65t158 -66t64 -155zM1047 539q0 -66 -54 -66q-38 0 -53 34
q-6 13 -12 34q-38 151 -144 180v127q106 29 144 180q13 43 34 59t43 9q42 -16 42 -56v-501zM784 0v119q123 14 215 93t134 204q25 53 47 61q8 2 16 2q59 0 59 -69v-410h-471zM784 1532h457v-416q0 -49 -63 -49q-39 0 -56 51q-82 254 -338 295v119zM76 1461q0 35 22 53t54 18
h540v-1532h-540q-32 0 -54 18t-22 52t48 50t57 32t9 77v1074q0 61 -9 77t-57 32t-48 49z" />
    <glyph glyph-name="Igrave" unicode="&#xcc;" horiz-adv-x="915" 
d="M584 1946l104 -320h-233l-209 320h338zM709 1303v-1074q0 -61 9 -77t57 -32t48 -50t-22 -52t-53 -18h-580q-32 0 -54 18t-22 52t48 50t58 32t9 77v1074q0 61 -9 77q-10 16 -58 32t-48 49q0 35 23 53t53 18h580q31 0 53 -18t22 -53q0 -34 -48 -49q-48 -16 -57 -32t-9 -77z
" />
    <glyph glyph-name="Iacute" unicode="&#xcd;" horiz-adv-x="915" 
d="M428 1946h338l-211 -320h-231zM709 1303v-1074q0 -61 9 -77t57 -32t48 -50t-22 -52t-53 -18h-580q-32 0 -54 18t-22 52t48 50t58 32t9 77v1074q0 61 -9 77q-10 16 -58 32t-48 49q0 35 23 53t53 18h580q31 0 53 -18t22 -53q0 -34 -48 -49q-48 -16 -57 -32t-9 -77z" />
    <glyph glyph-name="Icircumflex" unicode="&#xce;" horiz-adv-x="915" 
d="M807 1626h-279l-69 139l-70 -139h-276l219 320h256zM709 1303v-1074q0 -61 9 -77t57 -32t48 -50t-22 -52t-53 -18h-580q-32 0 -54 18t-22 52t48 50t58 32t9 77v1074q0 61 -9 77q-10 16 -58 32t-48 49q0 35 23 53t53 18h580q31 0 53 -18t22 -53q0 -34 -48 -49
q-48 -16 -57 -32t-9 -77z" />
    <glyph glyph-name="Idieresis" unicode="&#xcf;" horiz-adv-x="915" 
d="M993 1837q0 -90 -63 -156q-64 -65 -158 -65t-158 65q-63 66 -63 156t63 156q64 65 158 65t158 -65q63 -66 63 -156zM362 1837q0 -90 -63 -156q-63 -65 -157 -65t-158 66q-63 66 -64 155q0 90 64 156q64 65 157 65q94 0 158 -65q63 -66 63 -156zM709 1303v-1074
q0 -61 9 -77t57 -32t48 -50t-22 -52t-53 -18h-580q-32 0 -54 18t-22 52t48 50t58 32t9 77v1074q0 61 -9 77q-10 16 -58 32t-48 49q0 35 23 53t53 18h580q31 0 53 -18t22 -53q0 -34 -48 -49q-48 -16 -57 -32t-9 -77z" />
    <glyph glyph-name="Eth" unicode="&#xd0;" horiz-adv-x="1488" 
d="M670 1532v-553h92v-119h-92v-860h-520q-96 0 -97 63q0 41 48 57q47 16 57 32t10 77v631h-115v119h115v324q0 88 -35 98q-4 2 -14 5q-12 4 -29 10q-37 14 -37 57q0 59 92 59h525zM762 0v119q57 8 89 47t37 75t5 89v872q0 53 -5 89t-37 75t-89 47v119q276 4 460 -192
t203 -574q8 -174 -46 -322q-100 -274 -366 -391q-122 -53 -251 -53z" />
    <glyph glyph-name="Ntilde" unicode="&#xd1;" horiz-adv-x="1542" 
d="M918 1636q-34 0 -96 35q-114 64 -194 50q-30 -5 -55 -54h-182q14 96 86 177t166 95q51 0 139 -37q88 -36 122 -38t42 6t31 45h178q-15 -103 -79 -191t-158 -88zM1303 0h-306l-749 1292q-4 6 -11 20t-11 19q-3 5 -10 15t-16 21t-19 16q-11 5 -21 11t-37 14q-47 16 -47 59
q0 63 76 63q6 0 28 2h527l596 -1036v-496zM1184 1161q0 157 -60 210q-26 22 -50 34q-58 29 -58 65q0 61 88 62h278q88 0 88 -62q0 -24 -17 -38t-42 -26t-49 -35q-58 -53 -59 -210v-497h-5l-114 206v291zM236 1147h4l114 -205v-618q15 -135 72 -180q22 -17 44 -26
q48 -20 48 -59q0 -59 -106 -59h-234q-106 0 -106 59q0 37 48 59q22 9 44 26q56 42 72 180v823z" />
    <glyph glyph-name="Ograve" unicode="&#xd2;" horiz-adv-x="1456" 
d="M854 1946l104 -320h-233l-209 320h338zM879 1296q0 111 -105 148v119q311 -29 474 -251t163 -546t-163 -546t-474 -251v119q104 37 105 148v1060zM578 1296v-1060q0 -111 104 -148v-119q-311 29 -474 251t-163 546t163 546t474 251v-119q-104 -37 -104 -148z" />
    <glyph glyph-name="Oacute" unicode="&#xd3;" horiz-adv-x="1456" 
d="M698 1946h338l-211 -320h-231zM879 1296q0 111 -105 148v119q311 -29 474 -251t163 -546t-163 -546t-474 -251v119q104 37 105 148v1060zM578 1296v-1060q0 -111 104 -148v-119q-311 29 -474 251t-163 546t163 546t474 251v-119q-104 -37 -104 -148z" />
    <glyph glyph-name="Ocircumflex" unicode="&#xd4;" horiz-adv-x="1456" 
d="M1077 1626h-278l-70 139l-70 -139h-276l219 320h256zM879 1296q0 111 -105 148v119q311 -29 474 -251t163 -546t-163 -546t-474 -251v119q104 37 105 148v1060zM578 1296v-1060q0 -111 104 -148v-119q-311 29 -474 251t-163 546t163 546t474 251v-119q-104 -37 -104 -148
z" />
    <glyph glyph-name="Otilde" unicode="&#xd5;" horiz-adv-x="1456" 
d="M874 1636q-33 0 -95 35q-113 64 -194 50q-30 -5 -55 -54h-182q14 96 86 177t166 95q50 0 138 -37q88 -36 122 -38t43 6q8 8 31 45h178q-16 -103 -80 -191t-158 -88zM879 1296q0 111 -105 148v119q311 -29 474 -251t163 -546t-163 -546t-474 -251v119q104 37 105 148v1060
zM578 1296v-1060q0 -111 104 -148v-119q-311 29 -474 251t-163 546t163 546t474 251v-119q-104 -37 -104 -148z" />
    <glyph glyph-name="Odieresis" unicode="&#xd6;" horiz-adv-x="1456" 
d="M1264 1837q0 -90 -64 -156q-64 -65 -158 -65t-157 66t-64 155q-1 90 63 156q64 65 158 65t158 -66t64 -155zM633 1837q1 -90 -63 -156q-64 -65 -158 -65t-158 65q-63 66 -64 156q0 90 64 156q64 65 158 65t158 -66t63 -155zM879 1296q0 111 -105 148v119
q311 -29 474 -251t163 -546t-163 -546t-474 -251v119q104 37 105 148v1060zM578 1296v-1060q0 -111 104 -148v-119q-311 29 -474 251t-163 546t163 546t474 251v-119q-104 -37 -104 -148z" />
    <glyph glyph-name="multiply" unicode="&#xd7;" horiz-adv-x="1200" 
d="M1110 211l-176 -164l-340 377l-340 -377l-176 164l358 389l-350 385l176 168l344 -375l332 377l174 -166l-354 -387z" />
    <glyph glyph-name="Oslash" unicode="&#xd8;" horiz-adv-x="1456" 
d="M45 762q0 328 163 550t474 251v-119q-104 -37 -104 -148v-598l112 127v-145l-112 -127v-317q0 -111 104 -148v-119q-248 20 -408 178l-131 -147l-75 63l139 158q-162 213 -162 541zM1411 770q0 -328 -163 -550t-474 -251v119q104 37 105 148v657l-93 -105v150l93 104v254
q0 111 -105 148v119q248 -21 408 -179l131 148l76 -64l-140 -157q162 -213 162 -541z" />
    <glyph glyph-name="Ugrave" unicode="&#xd9;" horiz-adv-x="1556" 
d="M903 1946l105 -320h-234l-209 320h338zM842 -31q-100 0 -156 3q-148 8 -274 78q-127 71 -167 133t-40 149v971q0 61 -9 77q-10 16 -58 32t-48 49q0 35 23 53t53 18h579q32 0 54 -18t22 -53q0 -34 -48 -49q-48 -16 -57 -32t-9 -77v-1012q0 -65 14 -93q45 -88 121 -108
v-121zM1151 1532h233q106 0 107 -59q0 -37 -48 -59q-23 -9 -45 -26q-54 -41 -71 -180v-772q-6 -119 -49 -213q-71 -155 -227 -223q-61 -27 -117 -27v121q139 43 202 125q62 82 72 221v768q-15 136 -71 180q-23 17 -45 26q-47 20 -48 59q0 59 107 59z" />
    <glyph glyph-name="Uacute" unicode="&#xda;" horiz-adv-x="1556" 
d="M748 1946h337l-211 -320h-231zM842 -31q-100 0 -156 3q-148 8 -274 78q-127 71 -167 133t-40 149v971q0 61 -9 77q-10 16 -58 32t-48 49q0 35 23 53t53 18h579q32 0 54 -18t22 -53q0 -34 -48 -49q-48 -16 -57 -32t-9 -77v-1012q0 -65 14 -93q45 -88 121 -108v-121z
M1151 1532h233q106 0 107 -59q0 -37 -48 -59q-23 -9 -45 -26q-54 -41 -71 -180v-772q-6 -119 -49 -213q-71 -155 -227 -223q-61 -27 -117 -27v121q139 43 202 125q62 82 72 221v768q-15 136 -71 180q-23 17 -45 26q-47 20 -48 59q0 59 107 59z" />
    <glyph glyph-name="Ucircumflex" unicode="&#xdb;" horiz-adv-x="1556" 
d="M1126 1626h-278l-70 139l-69 -139h-277l219 320h256zM842 -31q-100 0 -156 3q-148 8 -274 78q-127 71 -167 133t-40 149v971q0 61 -9 77q-10 16 -58 32t-48 49q0 35 23 53t53 18h579q32 0 54 -18t22 -53q0 -34 -48 -49q-48 -16 -57 -32t-9 -77v-1012q0 -65 14 -93
q45 -88 121 -108v-121zM1151 1532h233q106 0 107 -59q0 -37 -48 -59q-23 -9 -45 -26q-54 -41 -71 -180v-772q-6 -119 -49 -213q-71 -155 -227 -223q-61 -27 -117 -27v121q139 43 202 125q62 82 72 221v768q-15 136 -71 180q-23 17 -45 26q-47 20 -48 59q0 59 107 59z" />
    <glyph glyph-name="Udieresis" unicode="&#xdc;" horiz-adv-x="1556" 
d="M1315 1837q1 -90 -63 -156q-64 -65 -158 -65t-158 65q-63 66 -64 156q0 90 64 156q64 65 158 65t158 -66t63 -155zM684 1837q0 -90 -63 -156q-63 -65 -157 -65t-159 65q-63 66 -63 156t63 156q63 65 157 65t159 -65q63 -66 63 -156zM842 -31q-100 0 -156 3
q-148 8 -274 78q-127 71 -167 133t-40 149v971q0 61 -9 77q-10 16 -58 32t-48 49q0 35 23 53t53 18h579q32 0 54 -18t22 -53q0 -34 -48 -49q-48 -16 -57 -32t-9 -77v-1012q0 -65 14 -93q45 -88 121 -108v-121zM1151 1532h233q106 0 107 -59q0 -37 -48 -59q-23 -9 -45 -26
q-54 -41 -71 -180v-772q-6 -119 -49 -213q-71 -155 -227 -223q-61 -27 -117 -27v121q139 43 202 125q62 82 72 221v768q-15 136 -71 180q-23 17 -45 26q-47 20 -48 59q0 59 107 59z" />
    <glyph glyph-name="Yacute" unicode="&#xdd;" horiz-adv-x="1374" 
d="M657 1946h338l-211 -320h-231zM424 229v365l-309 733q-25 63 -60 86q-47 25 -47 57q0 62 76 62h539q86 0 104 -29q8 -14 8 -40t-45 -54q-39 -20 -39 -49t21 -78l254 -580v-473q0 -61 9 -77t57 -32t48 -50t-22 -52t-53 -18h-580q-32 0 -54 18q-21 18 -21 52t47 50t57 32
t10 77zM922 1425q-22 16 -21 47t15 39q14 9 21 13q13 8 100 8h225q104 0 104 -66q0 -38 -56 -62t-83 -54t-58 -95l-200 -440l-66 146l107 237q56 122 8 174q-22 24 -48 30q-26 7 -48 23z" />
    <glyph glyph-name="Thorn" unicode="&#xde;" horiz-adv-x="1437" 
d="M66 1461q0 35 22 53t53 18h541v-1303q0 -61 9 -77t57 -32t49 -50q0 -34 -23 -52t-53 -18h-580q-31 0 -53 18t-22 52t48 50t57 32t9 77v1074q0 61 -9 77t-57 32t-48 49zM780 1268q397 0 524 -199q62 -100 62 -250q0 -72 -12 -130q-12 -57 -50 -119q-124 -201 -524 -199
v118q78 13 100 61t21 136v281q0 166 -121 182v119z" />
    <glyph glyph-name="germandbls" unicode="&#xdf;" horiz-adv-x="2584" 
d="M2445 1470v-350q0 -98 -67 -98q-61 0 -74 80q-16 117 -104 217t-205 125v119q99 0 236 -61q46 -19 53 -19q28 0 52 37t50 36q59 0 59 -86zM1153 1470v-350q0 -98 -68 -98q-61 0 -73 80q-16 117 -104 217t-206 125v119q97 0 237 -61q46 -19 52 -19q27 0 51 37t52 36
q59 0 59 -86zM1757 1266q-1 -68 61 -123t238 -123q250 -96 347 -227t98 -293q0 -230 -166 -378t-402 -153v119q86 27 135 69q48 42 50 104t-14 85q-16 22 -24 36q-10 14 -30 28t-30 22t-39 22q-27 14 -35 17q-8 4 -38 16t-92 38q-161 68 -284 168q-156 127 -156 356t148 367
t379 147v-119q-146 -54 -146 -178zM1376 63v396q0 100 66 100q28 0 50 -19t26 -48q25 -137 111 -258q87 -120 212 -146v-119q-102 2 -184 39t-112 37q-29 0 -55 -34t-50 -34q-64 0 -64 86zM84 63v396q0 100 66 100q28 0 50 -19t25 -48q25 -138 112 -258t212 -146v-119
q-102 2 -184 39t-112 37q-29 0 -55 -34t-51 -34q-63 0 -63 86zM465 1266q0 -68 61 -123t238 -123q250 -96 347 -227t97 -293q0 -230 -166 -378t-401 -153v119q86 27 135 69t50 104t-22 97t-45 51q-21 15 -31 23t-39 22q-28 14 -36 17q-8 4 -38 16q-238 95 -385 214
q-146 119 -146 348t148 367t378 147v-119q-145 -53 -145 -178z" />
    <glyph glyph-name="agrave" unicode="&#xe0;" 
d="M838 1946l104 -320h-233l-209 320h338zM1407 53q0 -53 -113 -53h-510q-100 0 -100 57q0 37 39 58q41 25 48 45t-5 80l-41 157h-299l29 119h250l-207 905l26 111h453l307 -1294q2 -6 6 -34t13 -40q14 -21 23 -30t30 -17q51 -23 51 -64zM440 51q0 -23 -20 -36t-36 -14
t-50 -1h-236q-115 0 -114 61q0 34 22 45q8 4 28 12t29 13q92 49 138 215l245 899h7l53 -231l-193 -701q-20 -96 -6 -131t72 -59q23 -10 32 -15q9 -6 19 -20t10 -37z" />
    <glyph glyph-name="aacute" unicode="&#xe1;" 
d="M682 1946h338l-211 -320h-231zM1407 53q0 -53 -113 -53h-510q-100 0 -100 57q0 37 39 58q41 25 48 45t-5 80l-41 157h-299l29 119h250l-207 905l26 111h453l307 -1294q2 -6 6 -34t13 -40q14 -21 23 -30t30 -17q51 -23 51 -64zM440 51q0 -23 -20 -36t-36 -14t-50 -1h-236
q-115 0 -114 61q0 34 22 45q8 4 28 12t29 13q92 49 138 215l245 899h7l53 -231l-193 -701q-20 -96 -6 -131t72 -59q23 -10 32 -15q9 -6 19 -20t10 -37z" />
    <glyph glyph-name="acircumflex" unicode="&#xe2;" 
d="M1061 1626h-279l-69 139l-70 -139h-276l219 320h256zM1407 53q0 -53 -113 -53h-510q-100 0 -100 57q0 37 39 58q41 25 48 45t-5 80l-41 157h-299l29 119h250l-207 905l26 111h453l307 -1294q2 -6 6 -34t13 -40q14 -21 23 -30t30 -17q51 -23 51 -64zM440 51q0 -23 -20 -36
t-36 -14t-50 -1h-236q-115 0 -114 61q0 34 22 45q8 4 28 12t29 13q92 49 138 215l245 899h7l53 -231l-193 -701q-20 -96 -6 -131t72 -59q23 -10 32 -15q9 -6 19 -20t10 -37z" />
    <glyph glyph-name="atilde" unicode="&#xe3;" 
d="M858 1636q-33 0 -95 35q-61 35 -113 45t-82 5t-54 -54h-182q14 96 86 177t166 95q51 0 138 -37q87 -36 122 -38t43 6t31 45h178q-16 -103 -80 -191t-158 -88zM1407 53q0 -53 -113 -53h-510q-100 0 -100 57q0 37 39 58q41 25 48 45t-5 80l-41 157h-299l29 119h250
l-207 905l26 111h453l307 -1294q2 -6 6 -34t13 -40q14 -21 23 -30t30 -17q51 -23 51 -64zM440 51q0 -23 -20 -36t-36 -14t-50 -1h-236q-115 0 -114 61q0 34 22 45q8 4 28 12t29 13q92 49 138 215l245 899h7l53 -231l-193 -701q-20 -96 -6 -131t72 -59q23 -10 32 -15
q9 -6 19 -20t10 -37z" />
    <glyph glyph-name="adieresis" unicode="&#xe4;" 
d="M1247 1837q0 -90 -63 -156q-64 -65 -158 -65t-158 65q-63 66 -63 156t63 156q64 65 158 65t158 -65q63 -66 63 -156zM616 1837q0 -90 -63 -156q-63 -65 -157 -65t-158 66q-63 66 -64 155q0 90 64 156q64 65 157 65q94 0 158 -65q63 -66 63 -156zM1407 53q0 -53 -113 -53
h-510q-100 0 -100 57q0 37 39 58q41 25 48 45t-5 80l-41 157h-299l29 119h250l-207 905l26 111h453l307 -1294q2 -6 6 -34t13 -40q14 -21 23 -30t30 -17q51 -23 51 -64zM440 51q0 -23 -20 -36t-36 -14t-50 -1h-236q-115 0 -114 61q0 34 22 45q8 4 28 12t29 13q92 49 138 215
l245 899h7l53 -231l-193 -701q-20 -96 -6 -131t72 -59q23 -10 32 -15q9 -6 19 -20t10 -37z" />
    <glyph glyph-name="aring" unicode="&#xe5;" 
d="M1407 53q0 -53 -113 -53h-510q-100 0 -100 57q0 37 39 58q41 25 48 45t-5 80l-41 157h-299l29 119h250l-207 905l26 111h453l307 -1294q2 -6 6 -34t13 -40q14 -21 23 -30t30 -17q51 -23 51 -64zM440 51q0 -23 -20 -36t-36 -14t-50 -1h-236q-115 0 -114 61q0 34 22 45
q8 4 28 12t29 13q92 49 138 215l245 899h7l53 -231l-193 -701q-20 -96 -6 -131t72 -59q23 -10 32 -15q9 -6 19 -20t10 -37zM786 1851q0 31 -22 52q-22 20 -52 20t-52 -20q-22 -19 -22 -51t22 -52t52 -20t52 20t22 51zM950 1851q0 -95 -70 -165t-167 -70q-98 0 -168 70
t-70 166t70 165q70 70 168 70q97 0 167 -70t70 -166z" />
    <glyph glyph-name="ae" unicode="&#xe6;" horiz-adv-x="2021" 
d="M1737 539q0 -66 -54 -66q-36 0 -53 34q-6 13 -12 34q-37 151 -143 180v127q106 29 143 180q13 43 35 59t42 9q21 -8 26 -16q16 -24 16 -40v-501zM805 1288v-209l-481 -786q-39 -69 -39 -97q-1 -28 21 -45t61 -34q57 -20 57 -60q0 -57 -86 -57h-281q-86 0 -86 55
q0 39 49 60q59 23 78 41t56 77l647 1055h4zM1475 1532h456v-416q0 -49 -63 -49q-39 0 -56 51q-81 254 -337 295v119zM881 512v791q1 61 -9 77t-58 32t-48 49q0 35 22 53t54 18h540v-1532h-540q-32 0 -54 18t-22 52t48 50t57 32t10 77v164h-406l82 119h324zM1475 0v119
q123 14 215 93t133 204q25 53 47 61q8 2 16 2q59 0 60 -69v-410h-471z" />
    <glyph glyph-name="ccedilla" unicode="&#xe7;" horiz-adv-x="1343" 
d="M647 -193h-39q-66 0 -65 64v119q-244 59 -371 262t-127 487q0 357 183 585t481 239v-119q-131 -27 -131 -191v-970q0 -162 131 -195v-166h47q66 0 65 -65v-224q1 -45 -21 -81t-59 -35h-231v174h137v116zM1137 379q18 66 67 65q29 0 45 -20t17 -49q-4 -131 -157 -271
t-308 -135v119q121 28 211 104t125 187zM1094 1481q30 0 50 41t54 41q66 0 66 -74v-475q0 -74 -66 -74q-59 0 -76 74q-39 202 -161 332q-70 73 -160 98v119q41 -2 151 -42q112 -40 142 -40z" />
    <glyph glyph-name="egrave" unicode="&#xe8;" horiz-adv-x="1347" 
d="M799 1946l104 -320h-233l-209 320h338zM1047 539q0 -66 -54 -66q-38 0 -53 34q-6 13 -12 34q-38 151 -144 180v127q106 29 144 180q13 43 34 59t43 9q42 -16 42 -56v-501zM784 0v119q123 14 215 93t134 204q25 53 47 61q8 2 16 2q59 0 59 -69v-410h-471zM784 1532h457
v-416q0 -49 -63 -49q-39 0 -56 51q-82 254 -338 295v119zM76 1461q0 35 22 53t54 18h540v-1532h-540q-32 0 -54 18t-22 52t48 50t57 32t9 77v1074q0 61 -9 77t-57 32t-48 49z" />
    <glyph glyph-name="eacute" unicode="&#xe9;" horiz-adv-x="1347" 
d="M643 1946h338l-211 -320h-231zM1047 539q0 -66 -54 -66q-38 0 -53 34q-6 13 -12 34q-38 151 -144 180v127q106 29 144 180q13 43 34 59t43 9q42 -16 42 -56v-501zM784 0v119q123 14 215 93t134 204q25 53 47 61q8 2 16 2q59 0 59 -69v-410h-471zM784 1532h457v-416
q0 -49 -63 -49q-39 0 -56 51q-82 254 -338 295v119zM76 1461q0 35 22 53t54 18h540v-1532h-540q-32 0 -54 18t-22 52t48 50t57 32t9 77v1074q0 61 -9 77t-57 32t-48 49z" />
    <glyph glyph-name="ecircumflex" unicode="&#xea;" horiz-adv-x="1347" 
d="M1022 1626h-279l-69 139l-70 -139h-276l219 320h256zM1047 539q0 -66 -54 -66q-38 0 -53 34q-6 13 -12 34q-38 151 -144 180v127q106 29 144 180q13 43 34 59t43 9q42 -16 42 -56v-501zM784 0v119q123 14 215 93t134 204q25 53 47 61q8 2 16 2q59 0 59 -69v-410h-471z
M784 1532h457v-416q0 -49 -63 -49q-39 0 -56 51q-82 254 -338 295v119zM76 1461q0 35 22 53t54 18h540v-1532h-540q-32 0 -54 18t-22 52t48 50t57 32t9 77v1074q0 61 -9 77t-57 32t-48 49z" />
    <glyph glyph-name="edieresis" unicode="&#xeb;" horiz-adv-x="1347" 
d="M1210 1837q0 -90 -63 -156q-63 -65 -157 -65t-159 65q-63 66 -63 156t63 156q63 65 157 65t159 -65q63 -66 63 -156zM580 1837q0 -90 -64 -156q-64 -65 -158 -65t-157 66t-64 155q-1 90 63 156q64 65 158 65t158 -66t64 -155zM1047 539q0 -66 -54 -66q-38 0 -53 34
q-6 13 -12 34q-38 151 -144 180v127q106 29 144 180q13 43 34 59t43 9q42 -16 42 -56v-501zM784 0v119q123 14 215 93t134 204q25 53 47 61q8 2 16 2q59 0 59 -69v-410h-471zM784 1532h457v-416q0 -49 -63 -49q-39 0 -56 51q-82 254 -338 295v119zM76 1461q0 35 22 53t54 18
h540v-1532h-540q-32 0 -54 18t-22 52t48 50t57 32t9 77v1074q0 61 -9 77t-57 32t-48 49z" />
    <glyph glyph-name="igrave" unicode="&#xec;" horiz-adv-x="915" 
d="M584 1946l104 -320h-233l-209 320h338zM709 1303v-1074q0 -61 9 -77t57 -32t48 -50t-22 -52t-53 -18h-580q-32 0 -54 18t-22 52t48 50t58 32t9 77v1074q0 61 -9 77q-10 16 -58 32t-48 49q0 35 23 53t53 18h580q31 0 53 -18t22 -53q0 -34 -48 -49q-48 -16 -57 -32t-9 -77z
" />
    <glyph glyph-name="iacute" unicode="&#xed;" horiz-adv-x="915" 
d="M428 1946h338l-211 -320h-231zM709 1303v-1074q0 -61 9 -77t57 -32t48 -50t-22 -52t-53 -18h-580q-32 0 -54 18t-22 52t48 50t58 32t9 77v1074q0 61 -9 77q-10 16 -58 32t-48 49q0 35 23 53t53 18h580q31 0 53 -18t22 -53q0 -34 -48 -49q-48 -16 -57 -32t-9 -77z" />
    <glyph glyph-name="icircumflex" unicode="&#xee;" horiz-adv-x="915" 
d="M807 1626h-279l-69 139l-70 -139h-276l219 320h256zM709 1303v-1074q0 -61 9 -77t57 -32t48 -50t-22 -52t-53 -18h-580q-32 0 -54 18t-22 52t48 50t58 32t9 77v1074q0 61 -9 77q-10 16 -58 32t-48 49q0 35 23 53t53 18h580q31 0 53 -18t22 -53q0 -34 -48 -49
q-48 -16 -57 -32t-9 -77z" />
    <glyph glyph-name="idieresis" unicode="&#xef;" horiz-adv-x="915" 
d="M993 1837q0 -90 -63 -156q-64 -65 -158 -65t-158 65q-63 66 -63 156t63 156q64 65 158 65t158 -65q63 -66 63 -156zM362 1837q0 -90 -63 -156q-63 -65 -157 -65t-158 66q-63 66 -64 155q0 90 64 156q64 65 157 65q94 0 158 -65q63 -66 63 -156zM709 1303v-1074
q0 -61 9 -77t57 -32t48 -50t-22 -52t-53 -18h-580q-32 0 -54 18t-22 52t48 50t58 32t9 77v1074q0 61 -9 77q-10 16 -58 32t-48 49q0 35 23 53t53 18h580q31 0 53 -18t22 -53q0 -34 -48 -49q-48 -16 -57 -32t-9 -77z" />
    <glyph glyph-name="eth" unicode="&#xf0;" horiz-adv-x="1488" 
d="M670 1532v-553h92v-119h-92v-860h-520q-96 0 -97 63q0 41 48 57q47 16 57 32t10 77v631h-115v119h115v324q0 88 -35 98q-4 2 -14 5q-12 4 -29 10q-37 14 -37 57q0 59 92 59h525zM762 0v119q57 8 89 47t37 75t5 89v872q0 53 -5 89t-37 75t-89 47v119q276 4 460 -192
t203 -574q8 -174 -46 -322q-100 -274 -366 -391q-122 -53 -251 -53z" />
    <glyph glyph-name="ntilde" unicode="&#xf1;" horiz-adv-x="1542" 
d="M918 1636q-34 0 -96 35q-114 64 -194 50q-30 -5 -55 -54h-182q14 96 86 177t166 95q51 0 139 -37q88 -36 122 -38t42 6t31 45h178q-15 -103 -79 -191t-158 -88zM1303 0h-306l-749 1292q-4 6 -11 20t-11 19q-3 5 -10 15t-16 21t-19 16q-11 5 -21 11t-37 14q-47 16 -47 59
q0 63 76 63q6 0 28 2h527l596 -1036v-496zM1184 1161q0 157 -60 210q-26 22 -50 34q-58 29 -58 65q0 61 88 62h278q88 0 88 -62q0 -24 -17 -38t-42 -26t-49 -35q-58 -53 -59 -210v-497h-5l-114 206v291zM236 1147h4l114 -205v-618q15 -135 72 -180q22 -17 44 -26
q48 -20 48 -59q0 -59 -106 -59h-234q-106 0 -106 59q0 37 48 59q22 9 44 26q56 42 72 180v823z" />
    <glyph glyph-name="ograve" unicode="&#xf2;" horiz-adv-x="1456" 
d="M854 1946l104 -320h-233l-209 320h338zM879 1296q0 111 -105 148v119q311 -29 474 -251t163 -546t-163 -546t-474 -251v119q104 37 105 148v1060zM578 1296v-1060q0 -111 104 -148v-119q-311 29 -474 251t-163 546t163 546t474 251v-119q-104 -37 -104 -148z" />
    <glyph glyph-name="oacute" unicode="&#xf3;" horiz-adv-x="1456" 
d="M698 1946h338l-211 -320h-231zM879 1296q0 111 -105 148v119q311 -29 474 -251t163 -546t-163 -546t-474 -251v119q104 37 105 148v1060zM578 1296v-1060q0 -111 104 -148v-119q-311 29 -474 251t-163 546t163 546t474 251v-119q-104 -37 -104 -148z" />
    <glyph glyph-name="ocircumflex" unicode="&#xf4;" horiz-adv-x="1456" 
d="M1077 1626h-278l-70 139l-70 -139h-276l219 320h256zM879 1296q0 111 -105 148v119q311 -29 474 -251t163 -546t-163 -546t-474 -251v119q104 37 105 148v1060zM578 1296v-1060q0 -111 104 -148v-119q-311 29 -474 251t-163 546t163 546t474 251v-119q-104 -37 -104 -148
z" />
    <glyph glyph-name="otilde" unicode="&#xf5;" horiz-adv-x="1456" 
d="M874 1636q-33 0 -95 35q-113 64 -194 50q-30 -5 -55 -54h-182q14 96 86 177t166 95q50 0 138 -37q88 -36 122 -38t43 6q8 8 31 45h178q-16 -103 -80 -191t-158 -88zM879 1296q0 111 -105 148v119q311 -29 474 -251t163 -546t-163 -546t-474 -251v119q104 37 105 148v1060
zM578 1296v-1060q0 -111 104 -148v-119q-311 29 -474 251t-163 546t163 546t474 251v-119q-104 -37 -104 -148z" />
    <glyph glyph-name="odieresis" unicode="&#xf6;" horiz-adv-x="1456" 
d="M1264 1837q0 -90 -64 -156q-64 -65 -158 -65t-157 66t-64 155q-1 90 63 156q64 65 158 65t158 -66t64 -155zM633 1837q1 -90 -63 -156q-64 -65 -158 -65t-158 65q-63 66 -64 156q0 90 64 156q64 65 158 65t158 -66t63 -155zM879 1296q0 111 -105 148v119
q311 -29 474 -251t163 -546t-163 -546t-474 -251v119q104 37 105 148v1060zM578 1296v-1060q0 -111 104 -148v-119q-311 29 -474 251t-163 546t163 546t474 251v-119q-104 -37 -104 -148z" />
    <glyph glyph-name="divide" unicode="&#xf7;" horiz-adv-x="1200" 
d="M604 371h4q64 1 116 -55t52 -131t-53 -132t-123 -57t-121 57t-51 133t51 130t125 55zM1102 500h-1004v241h1004v-241zM606 877h-4q-63 0 -117 55q-53 55 -53 129t54 131t123 57t120 -56t51 -132t-51 -130t-123 -54z" />
    <glyph glyph-name="oslash" unicode="&#xf8;" horiz-adv-x="1456" 
d="M45 762q0 328 163 550t474 251v-119q-104 -37 -104 -148v-598l112 127v-145l-112 -127v-317q0 -111 104 -148v-119q-248 20 -408 178l-131 -147l-75 63l139 158q-162 213 -162 541zM1411 770q0 -328 -163 -550t-474 -251v119q104 37 105 148v657l-93 -105v150l93 104v254
q0 111 -105 148v119q248 -21 408 -179l131 148l76 -64l-140 -157q162 -213 162 -541z" />
    <glyph glyph-name="ugrave" unicode="&#xf9;" horiz-adv-x="1556" 
d="M903 1946l105 -320h-234l-209 320h338zM842 -31q-100 0 -156 3q-148 8 -274 78q-127 71 -167 133t-40 149v971q0 61 -9 77q-10 16 -58 32t-48 49q0 35 23 53t53 18h579q32 0 54 -18t22 -53q0 -34 -48 -49q-48 -16 -57 -32t-9 -77v-1012q0 -65 14 -93q45 -88 121 -108
v-121zM1151 1532h233q106 0 107 -59q0 -37 -48 -59q-23 -9 -45 -26q-54 -41 -71 -180v-772q-6 -119 -49 -213q-71 -155 -227 -223q-61 -27 -117 -27v121q139 43 202 125q62 82 72 221v768q-15 136 -71 180q-23 17 -45 26q-47 20 -48 59q0 59 107 59z" />
    <glyph glyph-name="uacute" unicode="&#xfa;" horiz-adv-x="1556" 
d="M748 1946h337l-211 -320h-231zM842 -31q-100 0 -156 3q-148 8 -274 78q-127 71 -167 133t-40 149v971q0 61 -9 77q-10 16 -58 32t-48 49q0 35 23 53t53 18h579q32 0 54 -18t22 -53q0 -34 -48 -49q-48 -16 -57 -32t-9 -77v-1012q0 -65 14 -93q45 -88 121 -108v-121z
M1151 1532h233q106 0 107 -59q0 -37 -48 -59q-23 -9 -45 -26q-54 -41 -71 -180v-772q-6 -119 -49 -213q-71 -155 -227 -223q-61 -27 -117 -27v121q139 43 202 125q62 82 72 221v768q-15 136 -71 180q-23 17 -45 26q-47 20 -48 59q0 59 107 59z" />
    <glyph glyph-name="ucircumflex" unicode="&#xfb;" horiz-adv-x="1556" 
d="M1126 1626h-278l-70 139l-69 -139h-277l219 320h256zM842 -31q-100 0 -156 3q-148 8 -274 78q-127 71 -167 133t-40 149v971q0 61 -9 77q-10 16 -58 32t-48 49q0 35 23 53t53 18h579q32 0 54 -18t22 -53q0 -34 -48 -49q-48 -16 -57 -32t-9 -77v-1012q0 -65 14 -93
q45 -88 121 -108v-121zM1151 1532h233q106 0 107 -59q0 -37 -48 -59q-23 -9 -45 -26q-54 -41 -71 -180v-772q-6 -119 -49 -213q-71 -155 -227 -223q-61 -27 -117 -27v121q139 43 202 125q62 82 72 221v768q-15 136 -71 180q-23 17 -45 26q-47 20 -48 59q0 59 107 59z" />
    <glyph glyph-name="udieresis" unicode="&#xfc;" horiz-adv-x="1556" 
d="M1315 1837q1 -90 -63 -156q-64 -65 -158 -65t-158 65q-63 66 -64 156q0 90 64 156q64 65 158 65t158 -66t63 -155zM684 1837q0 -90 -63 -156q-63 -65 -157 -65t-159 65q-63 66 -63 156t63 156q63 65 157 65t159 -65q63 -66 63 -156zM842 -31q-100 0 -156 3
q-148 8 -274 78q-127 71 -167 133t-40 149v971q0 61 -9 77q-10 16 -58 32t-48 49q0 35 23 53t53 18h579q32 0 54 -18t22 -53q0 -34 -48 -49q-48 -16 -57 -32t-9 -77v-1012q0 -65 14 -93q45 -88 121 -108v-121zM1151 1532h233q106 0 107 -59q0 -37 -48 -59q-23 -9 -45 -26
q-54 -41 -71 -180v-772q-6 -119 -49 -213q-71 -155 -227 -223q-61 -27 -117 -27v121q139 43 202 125q62 82 72 221v768q-15 136 -71 180q-23 17 -45 26q-47 20 -48 59q0 59 107 59z" />
    <glyph glyph-name="yacute" unicode="&#xfd;" horiz-adv-x="1374" 
d="M657 1946h338l-211 -320h-231zM424 229v365l-309 733q-25 63 -60 86q-47 25 -47 57q0 62 76 62h539q86 0 104 -29q8 -14 8 -40t-45 -54q-39 -20 -39 -49t21 -78l254 -580v-473q0 -61 9 -77t57 -32t48 -50t-22 -52t-53 -18h-580q-32 0 -54 18q-21 18 -21 52t47 50t57 32
t10 77zM922 1425q-22 16 -21 47t15 39q14 9 21 13q13 8 100 8h225q104 0 104 -66q0 -38 -56 -62t-83 -54t-58 -95l-200 -440l-66 146l107 237q56 122 8 174q-22 24 -48 30q-26 7 -48 23z" />
    <glyph glyph-name="thorn" unicode="&#xfe;" horiz-adv-x="1437" 
d="M66 1461q0 35 22 53t53 18h541v-1303q0 -61 9 -77t57 -32t49 -50q0 -34 -23 -52t-53 -18h-580q-31 0 -53 18t-22 52t48 50t57 32t9 77v1074q0 61 -9 77t-57 32t-48 49zM780 1268q397 0 524 -199q62 -100 62 -250q0 -72 -12 -130q-12 -57 -50 -119q-124 -201 -524 -199
v118q78 13 100 61t21 136v281q0 166 -121 182v119z" />
    <glyph glyph-name="ydieresis" unicode="&#xff;" horiz-adv-x="1374" 
d="M1223 1837q1 -90 -63 -156q-64 -65 -158 -65t-158 66q-63 66 -64 155q0 90 64 156q64 65 157 65q94 0 158 -66t64 -155zM592 1837q0 -90 -64 -156q-64 -65 -157 -65q-94 0 -158 65q-63 66 -63 156t63 156q63 65 157 65t158 -66t64 -155zM424 229v365l-309 733
q-25 63 -60 86q-47 25 -47 57q0 62 76 62h539q86 0 104 -29q8 -14 8 -40t-45 -54q-39 -20 -39 -49t21 -78l254 -580v-473q0 -61 9 -77t57 -32t48 -50t-22 -52t-53 -18h-580q-32 0 -54 18q-21 18 -21 52t47 50t57 32t10 77zM922 1425q-22 16 -21 47t15 39q14 9 21 13
q13 8 100 8h225q104 0 104 -66q0 -38 -56 -62t-83 -54t-58 -95l-200 -440l-66 146l107 237q56 122 8 174q-22 24 -48 30q-26 7 -48 23z" />
    <glyph glyph-name="dotlessi" unicode="&#x131;" horiz-adv-x="915" 
d="M709 1303v-1074q0 -61 9 -77t57 -32t48 -50t-22 -52t-53 -18h-580q-32 0 -54 18t-22 52t48 50t58 32t9 77v1074q0 61 -9 77q-10 16 -58 32t-48 49q0 35 23 53t53 18h580q31 0 53 -18t22 -53q0 -34 -48 -49q-48 -16 -57 -32t-9 -77z" />
    <glyph glyph-name="Lslash" unicode="&#x141;" horiz-adv-x="1222" 
d="M791 0v119q229 31 303 356q12 57 77 57q51 0 52 -77v-455h-432zM698 1303v-334l109 67v-102l-109 -68v-866h-540q-32 0 -54 18t-22 52t48 50t57 32t10 77v324l-115 -72v103l115 71v648q1 61 -9 77t-58 32t-48 49q0 35 22 53t54 18h579q32 0 54 -18t22 -53q0 -34 -48 -49
q-47 -16 -57 -32t-10 -77z" />
    <glyph glyph-name="lslash" unicode="&#x142;" horiz-adv-x="1222" 
d="M791 0v119q229 31 303 356q12 57 77 57q51 0 52 -77v-455h-432zM698 1303v-334l109 67v-102l-109 -68v-866h-540q-32 0 -54 18t-22 52t48 50t57 32t10 77v324l-115 -72v103l115 71v648q1 61 -9 77t-58 32t-48 49q0 35 22 53t54 18h579q32 0 54 -18t22 -53q0 -34 -48 -49
q-47 -16 -57 -32t-10 -77z" />
    <glyph glyph-name="OE" unicode="&#x152;" horiz-adv-x="2025" 
d="M1741 539q0 -66 -53 -66q-37 0 -54 34q-6 13 -12 34q-37 151 -143 180v127q106 29 143 180q20 66 62 68q31 1 38 -11q19 -29 19 -45v-501zM1479 0v119q123 14 215 93t133 204q25 53 47 61q8 2 16 2q59 0 60 -69v-410h-471zM1935 1532v-416q0 -49 -63 -49q-39 0 -55 51
q-82 254 -338 295v119h456zM578 1296v-1060q0 -111 104 -148v-119q-311 29 -474 251t-163 546t163 546t474 251v-119q-104 -37 -104 -148zM1386 1532v-1532h-458q-78 -29 -148 -31v119q104 37 105 148v1060q0 111 -105 148v119q59 0 148 -31h458z" />
    <glyph glyph-name="oe" unicode="&#x153;" horiz-adv-x="2025" 
d="M1741 539q0 -66 -53 -66q-37 0 -54 34q-6 13 -12 34q-37 151 -143 180v127q106 29 143 180q20 66 62 68q31 1 38 -11q19 -29 19 -45v-501zM1479 0v119q123 14 215 93t133 204q25 53 47 61q8 2 16 2q59 0 60 -69v-410h-471zM1935 1532v-416q0 -49 -63 -49q-39 0 -55 51
q-82 254 -338 295v119h456zM578 1296v-1060q0 -111 104 -148v-119q-311 29 -474 251t-163 546t163 546t474 251v-119q-104 -37 -104 -148zM1386 1532v-1532h-458q-78 -29 -148 -31v119q104 37 105 148v1060q0 111 -105 148v119q59 0 148 -31h458z" />
    <glyph glyph-name="Scaron" unicode="&#x160;" horiz-adv-x="1292" 
d="M299 1935h279l69 -139l70 139h276l-219 -319h-256zM84 63v396q0 100 66 100q28 0 50 -19t25 -48q25 -138 112 -258t212 -146v-119q-102 2 -184 39t-112 37q-29 0 -55 -34t-51 -34q-63 0 -63 86zM1153 1470v-350q0 -98 -68 -98q-61 0 -73 80q-16 117 -104 217t-206 125
v119q97 0 237 -61q46 -19 52 -19q27 0 51 37t52 36q59 0 59 -86zM465 1266q0 -68 61 -123t238 -123q250 -96 347 -227t97 -293q0 -230 -166 -378t-401 -153v119q86 27 135 69t50 104t-22 97t-45 51q-21 15 -31 23t-39 22q-28 14 -36 17q-8 4 -38 16q-238 95 -385 214
q-146 119 -146 348t148 367t378 147v-119q-145 -53 -145 -178z" />
    <glyph glyph-name="scaron" unicode="&#x161;" horiz-adv-x="1292" 
d="M299 1935h279l69 -139l70 139h276l-219 -319h-256zM84 63v396q0 100 66 100q28 0 50 -19t25 -48q25 -138 112 -258t212 -146v-119q-102 2 -184 39t-112 37q-29 0 -55 -34t-51 -34q-63 0 -63 86zM1153 1470v-350q0 -98 -68 -98q-61 0 -73 80q-16 117 -104 217t-206 125
v119q97 0 237 -61q46 -19 52 -19q27 0 51 37t52 36q59 0 59 -86zM465 1266q0 -68 61 -123t238 -123q250 -96 347 -227t97 -293q0 -230 -166 -378t-401 -153v119q86 27 135 69t50 104t-22 97t-45 51q-21 15 -31 23t-39 22q-28 14 -36 17q-8 4 -38 16q-238 95 -385 214
q-146 119 -146 348t148 367t378 147v-119q-145 -53 -145 -178z" />
    <glyph glyph-name="Ydieresis" unicode="&#x178;" horiz-adv-x="1374" 
d="M1223 1837q1 -90 -63 -156q-64 -65 -158 -65t-158 66q-63 66 -64 155q0 90 64 156q64 65 157 65q94 0 158 -66t64 -155zM592 1837q0 -90 -64 -156q-64 -65 -157 -65q-94 0 -158 65q-63 66 -63 156t63 156q63 65 157 65t158 -66t64 -155zM424 229v365l-309 733
q-25 63 -60 86q-47 25 -47 57q0 62 76 62h539q86 0 104 -29q8 -14 8 -40t-45 -54q-39 -20 -39 -49t21 -78l254 -580v-473q0 -61 9 -77t57 -32t48 -50t-22 -52t-53 -18h-580q-32 0 -54 18q-21 18 -21 52t47 50t57 32t10 77zM922 1425q-22 16 -21 47t15 39q14 9 21 13
q13 8 100 8h225q104 0 104 -66q0 -38 -56 -62t-83 -54t-58 -95l-200 -440l-66 146l107 237q56 122 8 174q-22 24 -48 30q-26 7 -48 23z" />
    <glyph glyph-name="Zcaron" unicode="&#x17d;" horiz-adv-x="1202" 
d="M254 1935h278l70 -139l70 139h276l-219 -319h-256zM1098 477q57 0 57 -59l2 -418h-528l53 119q158 33 230 93t126 204q18 61 60 61zM84 1126v406h494l-52 -119q-260 -51 -323 -285q-18 -61 -62 -61q-57 0 -57 59zM1157 1532v-129l-620 -1403h-492v111l625 1421h487z" />
    <glyph glyph-name="zcaron" unicode="&#x17e;" horiz-adv-x="1202" 
d="M254 1935h278l70 -139l70 139h276l-219 -319h-256zM1098 477q57 0 57 -59l2 -418h-528l53 119q158 33 230 93t126 204q18 61 60 61zM84 1126v406h494l-52 -119q-260 -51 -323 -285q-18 -61 -62 -61q-57 0 -57 59zM1157 1532v-129l-620 -1403h-492v111l625 1421h487z" />
    <glyph glyph-name="florin" unicode="&#x192;" horiz-adv-x="1474" 
d="M-59 88q80 0 137 -53t62 -115q8 -97 -57 -158q-22 -20 -22 -26q3 -27 91 -43v-119q-127 10 -249 96t-134 215q-8 87 42 145t130 58zM358 -37l91 721h-230l17 119h227l31 237q9 93 25 175q15 83 21 101t19 53q12 36 49 79q123 147 453 115v-119q-41 -4 -69 -33
q-64 -66 -83 -371l-30 -237h260l-15 -119h-260l-90 -717q-27 -229 -96 -311q-104 -125 -432 -92v119q27 -3 47 19q40 46 65 261zM1153 1430v118q129 -10 250 -96t133 -215q8 -86 -42 -144q-50 -59 -130 -59t-136 52t-65 126q-4 81 38 124t42 50q-2 28 -90 44z" />
    <glyph glyph-name="circumflex" unicode="&#x2c6;" horiz-adv-x="1064" 
d="M881 1626h-279l-70 139l-69 -139h-277l220 320h256z" />
    <glyph glyph-name="caron" unicode="&#x2c7;" horiz-adv-x="698" 
d="M2 1935h279l69 -139l70 139h276l-219 -319h-256z" />
    <glyph glyph-name="uni02C9" unicode="&#x2c9;" horiz-adv-x="696" 
d="M684 1905v-191h-672v191h672z" />
    <glyph glyph-name="breve" unicode="&#x2d8;" horiz-adv-x="696" 
d="M512 1905h172q0 -107 -37 -189t-96 -125t-131 -62t-144 1t-131 63t-96 125t-37 187h172q0 -115 82 -162t164 0t82 162z" />
    <glyph glyph-name="dotaccent" unicode="&#x2d9;" horiz-adv-x="768" 
d="M606 1837q0 -90 -63 -156q-63 -65 -157 -65t-159 65q-63 66 -63 156t63 156q63 65 157 65t159 -65q63 -66 63 -156z" />
    <glyph glyph-name="ring" unicode="&#x2da;" horiz-adv-x="860" 
d="M504 1851q0 31 -23 51t-53 21q-30 0 -50 -20q-22 -19 -22 -51t22 -52t52 -20t52 20t22 51zM668 1851q0 -95 -70 -165t-168 -70t-168 70t-70 166t70 165q70 70 168 70t168 -70t70 -166z" />
    <glyph glyph-name="ogonek" unicode="&#x2db;" horiz-adv-x="696" 
d="M457 -432h-193q-55 0 -91 53q-82 115 77 379h209q-133 -196 -122 -230t120 -14v-188z" />
    <glyph glyph-name="tilde" unicode="&#x2dc;" horiz-adv-x="1105" 
d="M698 1636q-33 0 -95 35q-113 64 -194 50q-30 -5 -55 -54h-182q14 96 86 177t166 95q50 0 138 -37q88 -36 122 -38t43 6q8 8 31 45h178q-16 -103 -80 -191t-158 -88z" />
    <glyph glyph-name="hungarumlaut" unicode="&#x2dd;" horiz-adv-x="942" 
d="M750 1946h337l-210 -320h-232zM276 1946h338l-211 -320h-231z" />
    <glyph glyph-name="uni03A9" unicode="&#x3a9;" horiz-adv-x="1687" 
d="M838 1450q-86 0 -138 -47q-110 -101 -110 -539q0 -276 196 -805l-24 -59h-631l-57 442h96q37 -90 73 -118t115 -27h185q-72 47 -112 76q-39 29 -105 88q-190 172 -191 424q0 305 199 488t512 183t509 -180t195 -481q0 -199 -131 -342q-68 -74 -125 -123t-174 -133h228
q66 0 100 29t68 116h98l-70 -442h-622l-29 59q63 177 94 269t70 258t39 282q-2 314 -66 448t-192 134z" />
    <glyph glyph-name="uni03BC" unicode="&#x3bc;" horiz-adv-x="1449" 
d="M575 1128v-1241q0 -39 29 -49q47 -16 47 -49q0 -21 -18 -35t-80 -33q-186 -59 -293 -59q-72 0 -72 133v1333h387zM1235 1128v-886q0 -88 86 -133q41 -23 41 -59t-60 -54t-116 -19q-156 0 -221 132h-4q-23 -55 -74 -93t-124 -39q-73 0 -112 46v157q18 -4 41 -4
q84 0 120 54t36 167v731h387z" />
    <glyph glyph-name="pi" unicode="&#x3c0;" horiz-adv-x="1392" 
d="M522 727q0 -520 -147 -713q-90 -37 -191 -45l-22 64q217 328 217 702q-93 2 -149 -10t-136 -55l-43 88q79 118 111 143q12 10 36 32t72 45t97 33q49 11 184 9t577 -2q57 0 85 16t51 56l82 -17q-4 -79 -36 -189t-59 -145q-47 -18 -133 -18q-14 -158 -12 -342t80 -184
q27 0 88 26l29 -80q-47 -67 -137 -119t-175 -53q-276 0 -276 324q0 135 20 434l-213 4v-4z" />
    <glyph glyph-name="uni2010" unicode="&#x2010;" horiz-adv-x="1024" 
d="M154 915h716v-311h-716v311z" />
    <glyph glyph-name="endash" unicode="&#x2013;" horiz-adv-x="1024" 
d="M0 915h1024v-311h-1024v311z" />
    <glyph glyph-name="emdash" unicode="&#x2014;" horiz-adv-x="2048" 
d="M0 915h2048v-311h-2048v311z" />
    <glyph glyph-name="quoteleft" unicode="&#x2018;" horiz-adv-x="768" 
d="M154 1097q0 99 54 192t132 159q123 102 200 112t76 -44q0 -33 -44 -59q-9 -5 -24 -15t-20 -12q-150 -90 -149 -146q-1 -25 67 -31t114 -69t46 -145q0 -81 -63 -141t-161 -60t-163 80t-65 179z" />
    <glyph glyph-name="quoteright" unicode="&#x2019;" horiz-adv-x="768" 
d="M614 1303q0 -99 -54 -192t-132 -159q-123 -102 -200 -112t-76 45q0 21 17 37t27 21t24 15q15 10 20 13q150 90 149 145q1 25 -67 31q-68 5 -114 69t-46 146t63 141t161 59t163 -79q65 -81 65 -180z" />
    <glyph glyph-name="quotesinglbase" unicode="&#x201a;" horiz-adv-x="768" 
d="M164 235q0 81 63 141t161 60t162 -80q66 -80 66 -179t-54 -192t-132 -159q-123 -102 -200 -112t-76 44q0 33 44 59q9 5 24 15t20 12q150 90 149 146q1 24 -67 30t-114 70t-46 145z" />
    <glyph glyph-name="quotedblleft" unicode="&#x201c;" horiz-adv-x="1304" 
d="M690 1097q0 99 54 192t133 159q123 102 199 112t77 -44q0 -30 -44 -59q-9 -5 -25 -15t-19 -12q-150 -90 -150 -146q0 -25 68 -31t114 -69t46 -145q1 -81 -63 -141t-161 -60t-163 80t-66 179zM154 1097q0 99 54 192t132 159q123 102 200 112t76 -44q0 -33 -44 -59
q-9 -5 -24 -15t-20 -12q-150 -90 -149 -146q-1 -25 67 -31t114 -69t46 -145q0 -81 -63 -141t-161 -60t-163 80t-65 179z" />
    <glyph glyph-name="quotedblright" unicode="&#x201d;" horiz-adv-x="1304" 
d="M614 1303q0 -99 -54 -192t-132 -159q-123 -102 -200 -112t-76 45q0 21 17 37t27 21t24 15q15 10 20 13q150 90 149 145q1 25 -67 31q-68 5 -114 69t-46 146t63 141t161 59t163 -79q65 -81 65 -180zM926 1116q0 25 -68 31q-68 5 -114 69t-46 146t64 141t160 59
q97 0 163 -80t66 -179t-54 -192t-132 -159q-123 -102 -200 -112t-77 45q0 21 18 37t34 26q17 10 36 23q150 90 150 145z" />
    <glyph glyph-name="quotedblbase" unicode="&#x201e;" horiz-adv-x="1304" 
d="M162 235q0 81 63 141t161 60t162 -80q66 -80 66 -179t-54 -192t-132 -159q-123 -102 -200 -112t-76 44q0 33 44 59q9 5 24 15t20 12q150 90 149 146q1 24 -67 30t-114 70t-46 145zM1151 177q0 -99 -54 -192t-132 -159q-123 -102 -200 -112t-77 44q0 30 44 59l24 15t20 12
q150 90 150 146q0 24 -68 30t-114 70t-46 145t64 141t160 60q97 0 163 -80t66 -179z" />
    <glyph glyph-name="dagger" unicode="&#x2020;" horiz-adv-x="1185" 
d="M522 4q0 375 -110 600q49 84 66 115t38 94q20 63 21 123q-150 -4 -289 -152q-41 12 -96 72t-84 125q29 66 85 126t97 73q131 -150 287 -156q-1 61 -11 93t-17 59t-37 69q-31 42 -53 64t-36 43q27 56 87 120t120 95q63 -29 122 -93q58 -65 85 -124q-58 -58 -106 -130
q-46 -85 -46 -196q89 2 153 42t132 114q41 -12 97 -72t85 -129q-31 -63 -87 -123t-95 -72q-127 147 -285 152q0 -120 66 -223q7 -15 31 -57t30 -52q-117 -268 -117 -600q1 -178 9 -266h-148q6 88 6 266z" />
    <glyph glyph-name="daggerdbl" unicode="&#x2021;" horiz-adv-x="1183" 
d="M535 283q-66 0 -125 -29q-59 -30 -87 -54t-71 -69q-41 13 -100 77t-84 122q25 55 83 117t101 77q121 -150 283 -153q0 87 -27 151q-28 64 -52 92t-75 72q4 4 28 27q25 23 29 29t23 27q18 22 24 33t26 49t24 130q-68 0 -126 -27q-58 -28 -85 -52t-72 -71q-41 15 -100 77
t-84 116q25 58 84 122t100 75q43 -49 70 -74q26 -25 82 -49t131 -29q0 68 -25 124t-47 82q-23 26 -82 87q27 57 88 122t119 83q56 -18 120 -84t87 -121q-113 -113 -133 -178q-19 -64 -19 -115q101 2 161 41t120 111q41 -10 101 -75t83 -122q-23 -50 -83 -114t-101 -79
q-31 31 -54 55t-36 32t-31 20q-17 12 -33 17t-45 15t-80 11q0 -74 27 -135q27 -60 45 -80t78 -80q-49 -41 -75 -70t-50 -91t-25 -104v-50q63 1 121 27t87 53q30 27 71 73q41 -14 99 -76t85 -118q-27 -56 -86 -120t-98 -79q-4 4 -30 31q-68 71 -128 95t-121 26q1 -96 21 -139
l25 -55t25 -40t49 -64q28 -34 30 -38q-25 -57 -87 -121t-122 -84q-56 20 -118 84t-89 121q55 61 80 92t51 97t25 147z" />
    <glyph glyph-name="bullet" unicode="&#x2022;" horiz-adv-x="806" 
d="M403 383q-163 0 -273 113q-110 114 -110 270t111 270t273 113q162 1 272 -113t110 -271t-110 -269t-273 -113z" />
    <glyph glyph-name="ellipsis" unicode="&#x2026;" horiz-adv-x="2048" 
d="M1927 190q0 -90 -63 -156q-64 -66 -158 -65q-94 0 -158 66q-63 65 -63 155t63 156q64 66 158 66t158 -66t63 -156zM1245 190q0 -90 -63 -156q-64 -66 -158 -65q-94 0 -158 66q-63 65 -63 155t63 156q64 66 158 66t158 -66t63 -156zM563 190q0 -90 -63 -156
q-64 -66 -158 -65q-94 0 -158 66q-63 65 -63 155t63 156q64 66 158 66t158 -66t63 -156z" />
    <glyph glyph-name="perthousand" unicode="&#x2030;" horiz-adv-x="2693" 
d="M1489 1530l-1045 -1634l-98 81l1038 1622zM2198 731h-3q-41 0 -59 -76t-18 -256q0 -340 86 -340q72 0 72 336t-78 336zM2198 821h2q178 0 284 -122q106 -121 106 -289t-87 -296q-45 -65 -124 -105t-181 -40q-193 0 -294 130q-102 130 -102 297t100 296t296 129zM1362 731
h-2q-42 0 -60 -76t-18 -256q0 -340 84 -340q45 0 59 84t15 254q0 334 -78 334zM1362 821h2q178 0 284 -121t105 -294q0 -173 -98 -305q-99 -132 -291 -132t-295 130q-102 130 -102 298t101 296t294 128zM494 1464h-2q-42 0 -60 -76t-18 -255q0 -340 84 -340q43 0 57 84
t14 256q1 331 -75 331zM492 1556h4q178 0 284 -122t106 -291q0 -168 -87 -296q-45 -65 -125 -105t-182 -40q-190 0 -292 130t-104 298q0 168 102 297t294 129z" />
    <glyph glyph-name="guilsinglleft" unicode="&#x2039;" horiz-adv-x="696" 
d="M418 1208q22 0 94 -59t72 -89t-115 -154t-115 -146t115 -147q115 -123 115 -153t-72 -89t-95 -60t-35 16q-11 17 -20 32q-8 15 -12 20l-211 315q-29 37 -28 66q0 29 28 65l211 316q4 4 12 19q8 16 20 32t36 16z" />
    <glyph glyph-name="guilsinglright" unicode="&#x203a;" horiz-adv-x="696" 
d="M272 1208q18 0 32 -10q13 -10 24 -32q12 -21 16 -25l211 -316q29 -37 29 -65t-29 -66l-211 -315q-4 -3 -12 -19q-25 -49 -52 -49q-26 -1 -98 59t-72 90t116 154q114 124 114 146t-115 146t-115 154t72 89t90 59z" />
    <glyph glyph-name="fraction" unicode="&#x2044;" horiz-adv-x="432" 
d="M762 1534l-987 -1638l-99 73l986 1628z" />
    <glyph glyph-name="Euro" unicode="&#x20ac;" horiz-adv-x="1290" 
d="M788 1563q276 0 383 -103l17 -239h-64q-35 205 -223 204q-123 1 -185 -123t-81 -364h438l-53 -125h-387l-2 -68q0 -49 2 -65h330l-52 -125h-276q10 -219 80 -335t190 -116q184 0 219 197h64l-17 -229q-105 -100 -379 -100t-418 146q-144 148 -179 437h-158l51 125h88
q-4 45 -4 72l2 61h-137l51 125h96q36 307 182 466t422 159z" />
    <glyph glyph-name="afii61289" unicode="&#x2113;" horiz-adv-x="1114" 
d="M588 1077v-192q139 154 139 417t-76 263q-45 0 -54 -80t-9 -408zM592 -29q-199 0 -295 92q-35 43 -52 73q-44 78 -44 278v102l-121 -67l-37 92l158 98v326q1 197 29 309t98 209q137 182 325 182q139 0 211 -93t72 -256t-78 -292t-270 -297v-147q0 -211 34 -296t146 -85
t240 176l69 -64q-182 -340 -485 -340z" />
    <glyph glyph-name="trademark" unicode="&#x2122;" horiz-adv-x="1794" 
d="M999 889q0 -92 56 -127q37 -23 37 -41q0 -33 -60 -33h-125q-61 0 -61 33q0 18 44 41q44 24 44 127v358h4l61 -186v-172zM573 1532h162v-262q0 -12 -13 -25q-9 -8 -24 -8q-33 0 -41 53q-23 133 -84 176v66zM1399 1532h299q41 0 41 -35q0 -25 -27 -32t-32 -17t-5 -43v-590
q0 -33 5 -43t32 -17t27 -32q0 -35 -41 -35h-320q-41 0 -41 35q0 25 31 33t31 32v744zM840 1497q0 35 57 35h277l118 -346h4l52 186h2v-205l-144 -479h-32l-236 698q-12 33 -20 50q-10 16 -44 25t-34 36zM256 1532h276v-717q0 -33 6 -43t32 -17t26 -32q0 -35 -41 -35h-319
q-43 0 -43 35q0 25 20 30q19 5 31 10t12 18v751zM55 1532h162v-66q-61 -43 -84 -176q-8 -53 -41 -53q-25 0 -35 23q-2 6 -2 10v262z" />
    <glyph glyph-name="Omega" unicode="&#x2126;" horiz-adv-x="1687" 
d="M838 1450q-86 0 -138 -47q-110 -101 -110 -539q0 -276 196 -805l-24 -59h-631l-57 442h96q37 -90 73 -118t115 -27h185q-72 47 -112 76q-39 29 -105 88q-190 172 -191 424q0 305 199 488t512 183t509 -180t195 -481q0 -199 -131 -342q-68 -74 -125 -123t-174 -133h228
q66 0 100 29t68 116h98l-70 -442h-622l-29 59q63 177 94 269t70 258t39 282q-2 314 -66 448t-192 134z" />
    <glyph glyph-name="estimated" unicode="&#x212e;" horiz-adv-x="1918" 
d="M1518 799v436q0 29 -23 51q-225 225 -537 225t-538 -231q-20 -20 -21 -55v-426q0 -14 13 -15h1095q11 1 11 15zM1841 743h-1429q-12 0 -13 -10v-432q0 -31 19 -51q229 -236 540 -236q168 0 316 71t254 194h129q-121 -141 -305 -225t-396 -83q-366 1 -624 233t-258 561
t258 561t624 232t626 -232q259 -232 259 -562v-21z" />
    <glyph glyph-name="partialdiff" unicode="&#x2202;" horiz-adv-x="1325" 
d="M727 836h-4q-94 0 -156 -119q-98 -197 -98 -504q-1 -80 21 -111t73 -30q76 0 162 208t119 461q-43 95 -117 95zM633 969h2q156 0 237 -105q25 119 36 295t-48 283q-55 84 -204 84t-353 -174q-39 2 -89 104t-28 158q168 84 351 84q365 0 553 -328q133 -236 133 -542
t-123 -519q-80 -156 -220 -247t-340 -91t-326 120t-126 336t152 379t393 163z" />
    <glyph glyph-name="Delta" unicode="&#x2206;" horiz-adv-x="1552" 
d="M983 178l-360 860l-351 -860h711zM1475 0h-1399v111l596 1407l176 38l627 -1445v-111z" />
    <glyph glyph-name="product" unicode="&#x220f;" horiz-adv-x="1736" 
d="M1675 1565v-95q-145 -14 -180 -58t-35 -212v-1012q0 -94 5 -138t30 -77t63 -42t117 -17v-96h-780v96q111 12 133 53t23 219v1168q-1 60 -17 76t-76 16h-192q-58 0 -70 -13t-12 -73v-1174q0 -178 19 -220t120 -52v-96h-768v96q145 12 182 57q36 45 35 215v1014
q0 170 -35 214q-36 44 -188 56v95h1626z" />
    <glyph glyph-name="summation" unicode="&#x2211;" horiz-adv-x="1341" 
d="M844 123q162 0 216 38t136 220l98 -25l-120 -565h-1119v96l480 637l-472 940v101h1108q8 -65 29 -441l-98 -20q-49 158 -88 232t-86 95q-47 22 -168 21h-219l327 -647l-499 -682h475z" />
    <glyph glyph-name="minus" unicode="&#x2212;" horiz-adv-x="1200" 
d="M1102 500h-1004v241h1004v-241z" />
    <glyph glyph-name="uni2215" unicode="&#x2215;" horiz-adv-x="432" 
d="M762 1534l-987 -1638l-99 73l986 1628z" />
    <glyph glyph-name="uni2219" unicode="&#x2219;" horiz-adv-x="745" 
d="M594 563q0 -89 -64 -155t-157 -66q-94 0 -158 66q-63 66 -63 156t63 155t157 65t158 -66t64 -155z" />
    <glyph glyph-name="radical" unicode="&#x221a;" horiz-adv-x="1323" 
d="M1317 1901l-428 -2309l-90 -32l-471 1185l-203 -83l-37 112l502 211l272 -749h4l308 1689z" />
    <glyph glyph-name="infinity" unicode="&#x221e;" horiz-adv-x="1724" 
d="M1235 817h-2q-53 0 -107 -37q-54 -38 -74 -64q-22 -26 -71 -91q84 -123 138 -162t128 -39t117 61t43 136t-46 135t-126 61zM494 424h2q70 0 127 46t122 134q-86 131 -120 164q-57 49 -135 49t-128 -54q-50 -53 -49 -139t55 -143t126 -57zM1626 631v-2q0 -193 -114 -307
t-265 -115q-106 0 -197 45t-186 190q-88 -119 -180 -177t-230 -58q-138 1 -248 113q-112 112 -112 296t113 299t282 115q121 0 211 -52t172 -169q90 109 150 149q104 74 246 72t250 -111q108 -110 108 -288z" />
    <glyph glyph-name="integral" unicode="&#x222b;" horiz-adv-x="1007" 
d="M800 1827q72 0 138 -43t66 -122t-54 -126t-106 -47q-85 0 -110 95q-24 97 -48 95q-27 0 -31 -54t9 -236l45 -777q31 -522 -117 -819t-379 -297q-82 0 -143 48q-62 48 -64 123t65 128t138 53q31 0 53 -32t30 -71q25 -105 50 -103q31 0 36 70t-5 198l-54 854
q-14 256 14 455t79 311t123 182t133 92t132 23z" />
    <glyph glyph-name="approxequal" unicode="&#x2248;" horiz-adv-x="1200" 
d="M792 213q-100 0 -221 80q-104 74 -169 74t-116 -51l-28 -28q-6 -7 -30 -39t-25 -34l-150 139q51 100 151 172t219 72q118 0 289 -125q56 -38 106 -24q28 5 40 14q12 8 20 13q8 4 20 16q11 12 16 18l18 21q12 15 17 21t19 26q14 18 19 24l150 -141q-68 -115 -156 -181
q-89 -66 -189 -67zM416 1053q111 0 213 -68q8 -6 25 -17t36 -24t26 -15q7 -3 18 -9q31 -17 74 -17q42 0 83 38t96 116l150 -139q-66 -115 -155 -182q-186 -140 -411 14q-100 72 -170 71q-33 0 -52 -9t-28 -13q-9 -5 -23 -17t-20 -18q-7 -6 -38 -44t-37 -50l-150 139
q51 100 151 172t212 72z" />
    <glyph glyph-name="notequal" unicode="&#x2260;" horiz-adv-x="1200" 
d="M1102 987v-233h-334l-109 -265h443v-233h-533l-98 -240l-184 72l69 168h-258v233h346l109 265h-455v233h541l100 236l185 -72l-70 -164h248z" />
    <glyph glyph-name="lessequal" unicode="&#x2264;" horiz-adv-x="1200" 
d="M1106 -68h-1004v240h1004v-240zM1098 244l-992 483v254l990 481v-264l-762 -342v-4l764 -342v-266z" />
    <glyph glyph-name="greaterequal" unicode="&#x2265;" horiz-adv-x="1200" 
d="M1098 -68h-994v240h994v-240zM113 1462l989 -483v-254l-989 -481v266l764 342v6l-764 340v264z" />
    <glyph glyph-name="lozenge" unicode="&#x25ca;" horiz-adv-x="1351" 
d="M987 741l-307 678h-8l-310 -678l312 -684h6zM1251 741l-432 -905h-293l-428 905l437 912h286z" />
    <glyph glyph-name="fi" unicode="&#xfb01;" horiz-adv-x="2215" 
d="M1063 1030v-491q0 -66 -53 -66q-37 0 -54 34q-6 13 -12 34q-37 151 -143 180v127q106 29 143 180q13 43 29 55t37 13q53 0 53 -66zM2009 1303v-1074q0 -61 9 -77q10 -16 58 -32t48 -50t-23 -52t-53 -18h-580q-31 0 -53 18t-22 52t48 50t57 32t9 77v1074q0 61 -9 77
t-57 32t-48 49q0 35 22 53t53 18h580q32 0 54 -18t22 -53q0 -34 -48 -49q-48 -16 -58 -32t-9 -77zM207 229v1074q0 61 -9 77q-10 16 -58 32t-48 49q0 35 23 53t53 18h541v-1303q0 -61 9 -77t57 -32t48 -50t-22 -52t-53 -18h-580q-32 0 -54 18t-22 52t48 50t58 32t9 77z
M801 1532h456v-416q0 -49 -63 -49q-39 0 -55 51q-82 254 -338 295v119z" />
    <glyph glyph-name="fl" unicode="&#xfb02;" horiz-adv-x="2523" 
d="M1063 1030v-491q0 -66 -53 -66q-37 0 -54 34q-6 13 -12 34q-37 151 -143 180v127q106 29 143 180q13 43 29 55t37 13q53 0 53 -66zM2091 0v119q229 31 303 356q12 57 78 57q51 0 51 -77v-455h-432zM1999 1303v-1303h-541q-31 0 -53 18q-23 18 -23 52t48 50t58 32t9 77
v1074q0 61 -9 77q-10 16 -58 32t-48 49q0 35 23 53t53 18h580q31 0 53 -18q23 -18 23 -53q0 -34 -48 -49q-48 -16 -58 -32q-9 -16 -9 -77zM801 1532h456v-416q0 -49 -63 -49q-39 0 -55 51q-82 254 -338 295v119zM207 229v1074q0 61 -9 77q-10 16 -58 32t-48 49q0 35 23 53
t53 18h541v-1303q0 -61 9 -77t57 -32t48 -50t-22 -52t-53 -18h-580q-32 0 -54 18t-22 52t48 50t58 32t9 77z" />
    <glyph glyph-name="a.superior" horiz-adv-x="786" 
d="M326 772h-59q-89 0 -116 14l-42 21q-99 61 -99 193t119 191q46 23 95 23h102v-55q-40 -6 -50 -32t-10 -64v-145q1 -81 60 -91v-55zM657 1266v-238q0 -47 23 -57q10 -4 28 6t34 10t32 -14t16 -39t-28 -63q-29 -38 -60 -62q-80 -37 -180 -37q-137 0 -137 197v594
q92 0 178 -56q45 -29 67 -71t24 -75q2 -32 3 -95zM324 1563v-56q-61 0 -64 -45q51 -34 39 -104q-6 -36 -42 -61t-82 -17t-73 48q-26 40 -18 91t68 97t108 47h64z" />
    <glyph glyph-name="o.superior" horiz-adv-x="761" 
d="M471 903v529q0 57 -51 73v58q156 -12 236 -123t81 -273q-1 -163 -81 -273t-236 -122v57q51 20 51 74zM291 1436v-529q0 -57 51 -73v-58q-156 12 -237 123t-81 273t81 272q81 111 237 123v-58q-51 -20 -51 -73z" />
    <glyph glyph-name="one.superior" horiz-adv-x="835" 
d="M559 768q0 -27 8 -35t47 -18q35 -4 35 -35q0 -37 -65 -37h-330q-66 0 -66 37q0 31 35 35q39 10 47 18t9 35v618q-1 54 -9 68t-34 19q-49 4 -50 32q0 43 66 43l307 15v-795z" />
    <glyph glyph-name="two.superior" horiz-adv-x="835" 
d="M281 1460q0 -8 20 -19q21 -11 41 -38t20 -74t-43 -84t-105 -37t-100 41q-40 41 -40 101q0 88 76 144t176 67v-72q-45 -6 -45 -29zM778 870q0 -86 -71 -174q-33 -38 -86 -64t-107 -26t-166 31t-146 31t-64 -22t-40 -21q-35 0 -35 39q0 88 72 145t180 57l322 -35
q33 1 48 15t17 30q5 44 39 46q37 0 37 -52zM387 1491v72q147 4 256 -67t107 -202q-6 -193 -246 -278l-195 -84l-12 -10q-53 0 -131 -35l-4 4q47 61 128 115t121 110q40 58 41 202t-65 173z" />
    <glyph glyph-name="three.superior" horiz-adv-x="835" 
d="M59 813q0 57 41 96q40 39 96 39t98 -37t42 -78t-18 -67t-37 -41q-18 -14 -19 -20q0 -19 78 -27v-72q-111 8 -196 62t-85 145zM342 1099q0 32 55 36q86 8 86 100v141q0 96 -82 115v72q181 6 273 -72t92 -169t-57 -148t-152 -78v-4q115 -29 169 -80q54 -50 54 -150
t-87 -180t-292 -76v72q82 18 82 110v166q0 104 -86 109q-55 4 -55 36zM285 1450q0 -10 17 -20q50 -29 50 -84q0 -54 -38 -91t-92 -37t-91 36q-37 34 -37 87q0 90 73 147t173 71v-72q-55 -10 -55 -37z" />
    <glyph glyph-name="A.superior" horiz-adv-x="786" 
d="M326 772h-59q-89 0 -116 14l-42 21q-99 61 -99 193t119 191q46 23 95 23h102v-55q-40 -6 -50 -32t-10 -64v-145q1 -81 60 -91v-55zM657 1266v-238q0 -47 23 -57q10 -4 28 6t34 10t32 -14t16 -39t-28 -63q-29 -38 -60 -62q-80 -37 -180 -37q-137 0 -137 197v594
q92 0 178 -56q45 -29 67 -71t24 -75q2 -32 3 -95zM324 1563v-56q-61 0 -64 -45q51 -34 39 -104q-6 -36 -42 -61t-82 -17t-73 48q-26 40 -18 91t68 97t108 47h64z" />
    <glyph glyph-name="O.superior" horiz-adv-x="761" 
d="M471 903v529q0 57 -51 73v58q156 -12 236 -123t81 -273q-1 -163 -81 -273t-236 -122v57q51 20 51 74zM291 1436v-529q0 -57 51 -73v-58q-156 12 -237 123t-81 273t81 272q81 111 237 123v-58q-51 -20 -51 -73z" />
    </font>
</defs>
</svg>
