<?xml version="1.0" standalone="no"?>
<!DOCTYPE svg PUBLIC "-//W3C//DTD SVG 1.1//EN" "http://www.w3.org/Graphics/SVG/1.1/DTD/svg11.dtd" >
<svg xmlns="http://www.w3.org/2000/svg">
<metadata>
Created by FontPrep 20130207 at Tue Dec  9 01:51:31 2014
 By Alexander Gunnarson
Copyright (c) James Grieshaber, 2005. All rights reserved.
</metadata>
<defs>
<font id="bce4b2002576009703a2a4f97f95f96f" horiz-adv-x='1024' >
  <font-face 
    font-family="Trattatello"
    font-weight="400"
    font-stretch="normal"
    units-per-em="2048"
    panose-1="2 15 4 3 2 2 0 2 3 3"
    ascent="1638"
    descent="-410"
    x-height="928"
    cap-height="1167"
    bbox="-3592 -5499 6913.91 5738"
    underline-thickness="102"
    underline-position="-102"
    unicode-range="U+0020-FE48"
  />
<missing-glyph horiz-adv-x="557" 
 />
    <glyph glyph-name=".notdef" horiz-adv-x="557" 
 />
    <glyph glyph-name=".null" horiz-adv-x="0" 
 />
    <glyph glyph-name="nonmarkingreturn" horiz-adv-x="557" 
 />
    <glyph glyph-name="space" unicode=" " horiz-adv-x="557" 
 />
    <glyph glyph-name="space" unicode="&#xa0;" horiz-adv-x="557" 
 />
    <glyph glyph-name="exclam" unicode="!" horiz-adv-x="614" 
d="M316 336q19 0 30.5 -8.5t19 -21.5t15 -29.5t25.5 -40.5t46.5 -57t27.5 -55t-27.5 -47t-40.5 -53t-29.5 -45.5t-39.5 -17.5t-35 15.5t-23 29.5q-23 12 -32 20.5t-26 30.5q-12 27 -18 32t-15.5 9t-23.5 11q-39 39 -39 61t16.5 26.5t28.5 14.5q44 50 57 57.5t33 17.5
t25.5 30t24.5 20zM349 1341q-15 0 -31 -13t-50 9q-12 0 -12 9v10q0 34 29.5 61.5t55.5 64.5t61.5 74t93 98t96.5 163q12 4 30 13t26 8q24 -3 60.5 -32t36.5 -59q-12 -25 -20 -49t-16.5 -47t-14.5 -45q-26 -19 -35.5 -71t-9.5 -67q-45 -93 -57 -163q0 -39 -16.5 -99.5
t-28.5 -111.5q0 -27 -12.5 -58.5t-16.5 -66.5t-7 -51.5t-5 -25.5t-4 -17.5t-5 -28.5t-6.5 -37.5t-7.5 -36t-10 -43t-12 -63.5q-8 -23 -10 -49.5t-13 -53.5q-23 -23 -67.5 -31t-79.5 9q4 8 4 11l-1 34q-1 30 3 35l33 284l12 211l16 182q0 8 3 25.5t-12 17.5z" />
    <glyph glyph-name="quotedbl" unicode="&#x22;" horiz-adv-x="921" 
d="M647 1012q-31 -32 -45 40q-6 34 -10 60q-4 25 6 38t10 40q-8 27 -6 43t5 55t15 74q17 54 21 122q5 68 14 96q8 28 27 38l90 16q16 6 36 18q75 48 83 -12q4 -42 -9 -76t-30 -73q-41 -71 -74 -221q-12 -37 -21 -71t-27 -84t-44 -70q-26 -19 -41 -33zM217 1266q0 25 3 48
t9 49q13 53 13 101q0 117 30 142l93 -17q16 7 35 21q74 52 83 -4q10 -47 -3 -81t-36 -73q-38 -78 -63 -176q-17 -78 -33 -140t-63 -106q-27 -16 -52 0q-16 4 -20 28t-14 42q0 25 8 41t4 38t1 42t5 45z" />
    <glyph glyph-name="numbersign" unicode="#" horiz-adv-x="933" 
d="M502 479q16 0 31.5 2t23.5 -2h25q4 14 8 39t11 68t7 57h-102q-6 0 -45 -6h-17v-16l-28 -142h86zM735 1104q4 0 4 6q18 0 31.5 5t30.5 -1t21 -30v-10q1 -11 -7 -38l-6 -28q-4 -27 -11 -58.5t-7 -44t2 -26t-2 -31.5t-13.5 -35.5t-9.5 -21.5l74 6h102q23 -18 12 -45
q0 -48 -51 -93q-5 -10 -16 -10q-14 -10 -30.5 -8t-39.5 2h-74q4 -4 1 -26.5t-7 -34.5v-29l-4 -35q-11 -34 -6 -39q-2 2 1 2h41q39 0 63 3t36 -5q19 0 27 -18t-18 -74.5t-48 -56.5h-60q-60 0 -60 6q-15 -46 -27 -115l-6 -45l-19 -61q-8 -27 -13 -49.5t-9 -30.5l-10 -29
q-10 -10 -19.5 -7t-25.5 7h-19q-29 -16 -28 39q0 10 -2.5 20.5t2.5 20.5v39q0 27 14 80t14 102v35h-96q-64 0 -64 -6q0 4 -12 -39t-21 -98t-22.5 -101.5t-17.5 -62.5q-33 -33 -109 -6l19 166l-7 51q6 28 13 42.5t10 47.5l-125 6h-35q-16 16 -16 29q-10 29 16 51q8 14 23 22
q10 10 47 11l74 6l39 6q22 73 22 182q-4 -4 -32 -6l-99 -6h-51q-23 6 -23 35q4 10 9.5 17t9.5 18q0 -4 1 -2l3 6q-4 0 -4 -4q0 4 2 4h2l6 12v6q12 48 56.5 43.5t64.5 -4.5t41.5 9t25.5 9q6 6 10.5 61t6.5 71q3 24 7.5 33t4.5 28v35q0 27 7 56.5t50 29.5h15l56 2q40 0 44 -4
t4 -33t-7 -57.5t-15 -63.5q-4 -41 -13.5 -85t-9.5 -73h6q15 5 74 5l68 6v22l16 137q4 16 8 29.5t4 28.5l6 22q0 27 5.5 43.5t33.5 24.5h41z" />
    <glyph glyph-name="dollar" unicode="$" horiz-adv-x="1155" 
d="M422 935q0 -36 14.5 -60t25.5 -27l68 -23q8 55 14.5 109.5t18.5 114.5q-51 -14 -96 -46t-45 -68zM809 297q0 25 -6 40t-6 44l-11 18q0 68 -73.5 99.5t-104.5 48.5q0 -105 -19.5 -171.5t-25.5 -74.5q13 -26 -2.5 -59t-13.5 -47l-12 -70l-5 -62q68 0 113 13.5t92 60.5
q74 86 74 160zM272 973q0 75 89 133t127 78t81 28q4 43 6.5 84t6.5 70q25 10 60.5 48t41.5 44q12 0 28.5 -10t39.5 -18q8 -35 4 -54.5t-4 -51.5t-9.5 -56.5t-19.5 -55.5q104 -18 111.5 -58t7.5 -70q0 -53 -35.5 -93.5t-83.5 -40.5l-29 6q-26 -44 -45 -176q94 -43 137 -69
q29 -25 56.5 -34t62.5 -40q74 -45 102.5 -80.5t28.5 -105.5v-48q0 -25 8.5 -44t8.5 -70t-29 -107q-7 -27 -29 -51q-8 -27 -26.5 -35t-34.5 -28q-56 -50 -119 -85t-91 -44t-58 -16t-41 -16t-27 -9l-51 6q-33 0 -51 -6q-8 -80 -35 -170q-18 -41 -58 -41l-16 6q-20 100 -6 141
q0 56 6 80q-24 6 -53 6t-42 13.5t-36 27.5q-27 12 -45 17.5t-41 27.5q-25 12 -29 31.5t-16 42.5q-12 35 -25.5 54.5t-13.5 69.5t44 94t96 44t87 -17.5t35 -52.5l-6 -32l10 -41l-4 -23q0 -50 55 -90q30 54 19 109q-4 38 22.5 147.5t22.5 124.5q12 29 22 141q-16 10 -25 19.5
t-26 21.5q-23 8 -40 12.5t-40 29.5t-37 47q-13 22 -31 34t-18 43l-4 51l-6 52l10 26v29z" />
    <glyph glyph-name="percent" unicode="%" horiz-adv-x="1343" 
d="M905 336v-35q-4 -12 -8 -19.5t-4 -19.5l6 -67q0 -18 12.5 -33t22.5 -31q23 -39 67 -45q17 -5 74 33q50 54 55.5 154t-49.5 165q-8 10 -21.5 12.5t-23.5 8.5q-37 21 -63 2q-41 -16 -43.5 -49t-13.5 -49.5t-11 -26.5zM1014 612l141 -4q31 -4 56.5 -28t33.5 -42
q43 -93 24.5 -213t-55 -215.5t-139.5 -132.5q-41 -27 -127 -31.5t-106.5 23t-32.5 37.5q-64 28 -64 176q-8 75 41 221q35 66 83.5 112t103.5 89q24 8 41 8zM217 820q0 -11 4 -31.5t1 -40.5t24 -54q27 -45 67 -45q12 -4 38 8.5t36 26.5q51 51 55.5 154.5t-49.5 162.5
q-10 10 -23.5 12.5t-22.5 8.5t-29.5 6t-32.5 -8q-36 -9 -39.5 -28t-4.5 -31.5t-8 -26.5l-6 -35v-33q-10 -35 -10 -46zM68 616v117q0 89 11 156t17 84q35 70 84.5 109.5t104.5 78.5q44 20 182 6q71 -10 86 -45q29 -48 29 -148q0 -26 1 -72t-10 -96t-44 -117
q-34 -66 -66.5 -99t-75.5 -49q-43 -27 -106.5 -30t-114.5 13q-10 4 -21.5 21.5t-25.5 17.5q-51 25 -51 53zM1075 1280q26 0 58 -39q0 -29 -10.5 -45t-21.5 -44t-28 -46.5t-25 -32.5t-19 -48t-28 -34q-19 -26 -28 -41q-10 -14 -24 -33t-21 -63q-31 -21 -80 -106.5
t-72.5 -126.5t-40.5 -58q-10 -39 -66.5 -129t-64.5 -98q3 -20 -25.5 -45t-31.5 -35l-29 -57q-23 -35 -37 -66t-37 -53q-33 -62 -120 -195q-27 -22 -37 -22h-76l10 22q10 39 17.5 72t29.5 49q4 20 27 44t35 46t23 54t45 70t34 71q8 35 68.5 122t62.5 93q30 34 82 142t78 138
q75 121 147 256q31 80 80 199q30 0 74 18.5t51 20.5z" />
    <glyph glyph-name="ampersand" unicode="&#x26;" horiz-adv-x="2031" 
d="M854 1292q57 0 97 -49t40 -110q0 -57 -61.5 -74t-89.5 -17t-61.5 14.5t-61 31t-50.5 31t-49 14.5q-60 0 -134 -51.5t-74 -118.5q0 -33 30 -74t66 -41h41q24 0 88.5 -24.5t64.5 -55.5q0 -21 -19 -55.5t-38 -34.5h-80q-154 -29 -190.5 -90.5t-36.5 -104.5q0 -94 54 -162.5
t130 -113.5t158 -66.5t130 -21.5t120 18l37 19q40 20 70 20t61.5 21.5t60.5 51.5t54 61.5t57 65.5t50.5 56t18.5 58q-1 62 -69 90q-42 17 -66 2q-30 0 -83.5 -39.5t-53.5 -81.5v-17q0 -39 -39 -67.5t-70.5 -28.5t-47 26.5t-15.5 51.5q0 147 121 244.5t266 97.5h92
q39 -16 160 -16h57q57 0 105.5 32.5t93.5 72.5t89 73t93 33q58 0 58 -115q0 -64 -57 -157t-116 -93q-19 0 -32 23h-47q-25 -16 -52.5 -21.5t-44.5 -17.5q-23 0 -85 2.5t-62 -69.5q0 -103 -68.5 -190t-148.5 -130q-27 -14 -46.5 -41t-43.5 -58q-21 -16 -80 -16
q-161 -80 -348 -137h-211q-42 0 -209.5 108t-198.5 147q-31 38 -45 84t-31 105v154q0 55 47.5 113.5t69 87t21.5 49t-9.5 40t-19.5 36t-19.5 31.5t-9.5 44t17.5 88.5t76.5 152.5t175 93h192l80 16h131z" />
    <glyph glyph-name="quotesingle" unicode="'" horiz-adv-x="512" 
d="M205 1008q-18 15 -22 72q-5 57 4 70t8 40q-5 27 -5 54t8 57l11 46q4 15 11 42t10 93q4 115 38 136l90 16q16 6 36 18q76 49 85 -12q8 -42 -5 -76t-36 -73q-32 -65 -66 -196q-34 -130 -51 -179t-59 -80q-12 -10 -26 -24t-31 -4z" />
    <glyph glyph-name="parenleft" unicode="(" horiz-adv-x="552" 
d="M219 238q8 -8 8 -33q10 -29 14.5 -51.5t26.5 -44.5q12 -35 17.5 -66t18.5 -63t30.5 -47t46.5 -34.5t29 -45.5q39 0 53.5 -51.5t33.5 -60.5t37.5 -16t18.5 -32t-2 -44.5t-18 -19.5q-26 0 -49.5 -11t-64.5 -11q-42 0 -85 46t-94 101q-39 35 -71 76t-32 96q0 16 -11 37
t-11 55q0 44 -23.5 106.5t-23.5 125.5v47q0 16 -14.5 33.5t-14.5 40.5v96l6 68l-6 57q0 24 20.5 46t20.5 50l10 80q0 74 27.5 125t48 85t39.5 81q0 16 14 22.5t14 28.5t23 45q0 66 26.5 98.5t50 53t54.5 49.5q27 14 52 45.5t44 50.5q16 39 43 65.5t82 43.5q68 0 99 38
q16 16 25 31t48 15l22 4q23 4 23 -25.5t-42 -56.5t-54 -64q-35 -23 -57.5 -48t-38.5 -25q-71 -44 -123 -121.5t-85 -94.5q-33 -18 -40.5 -32.5t-15.5 -44t-48 -70.5q-81 -82 -81 -252q-23 -35 -37.5 -64.5t-14.5 -84.5v-52l-18 -73l2 -19l-2 -129q0 -30 20.5 -62.5
t20.5 -58.5t8 -34z" />
    <glyph glyph-name="parenright" unicode=")" horiz-adv-x="585" 
d="M-161.5 -324q-8.5 6 -8.5 42t14.5 60.5t38 43t52 35t59.5 41.5q94 29 146.5 79t80.5 148q31 66 98.5 198.5t67.5 303.5v125q0 38 -14.5 73t-14.5 67t-17 52.5t-17 46.5q-37 160 -85.5 241t-78.5 128q-12 12 -33 12t-31 1t-16 11q-35 41 -40 87.5t-5 91.5t39 72.5t78 27.5
t55 -10.5t28.5 -26.5t22.5 -37.5t27 -46.5q14 -31 34.5 -46t52 -36.5t31.5 -75.5l7 -63q0 -31 14 -50.5t14 -59.5t23 -95q22 -22 22 -63v-80q0 -59 11.5 -113t11.5 -108q0 -66 -16.5 -123.5t-16.5 -98.5l1 -43q1 -43 -13 -43q-10 -98 -34 -142t-42.5 -75t-38.5 -81
t-31.5 -82.5t-34 -74.5t-63.5 -93q-62 -78 -103.5 -104.5t-97.5 -37.5q-14 -8 -54.5 -46t-77.5 -38t-45.5 6z" />
    <glyph glyph-name="asterisk" unicode="*" horiz-adv-x="927" 
d="M370 895q12 0 29 4l-6 51q-4 47 -6 79t-12 71q-18 39 -16 51q3 12 19 12t38 -4q23 -4 37 0q106 30 122 2q10 -10 -28 -102q-4 -14 -7 -62t-22 -79q10 0 11 -10t6 -9q10 10 18 12q8 3 21 9q12 6 28 5t30 4q17 6 23 19q6 12 23 21q16 8 25 16t19 12t16 4q7 0 14 -10
q6 -23 15 -41t12 -28t13 -22q42 -51 27 -62q-33 -15 -105 -32t-102 -31q-48 -22 -1 -75t70 -74t30 -28q10 -24 10 -44q-1 -20 -27 -36t-50 -28t-44 -23q-20 -10 -37 12q-8 16 -18 40q-62 148 -90 156q-14 3 -29 -20q-23 -23 -48 -84t-48 -82q-29 -39 -70 8t-59 54
q-17 6 -31 12t-20 12t4 17q59 44 73 58q14 12 38 28q89 57 48 90q-4 10 -16 13t-29 16q-43 16 -79 25t-74 26q-27 14 -22 32t13 34q57 103 93 87q43 -23 69 -49t74 -53q16 -4 28 -4z" />
    <glyph glyph-name="plus" unicode="+" horiz-adv-x="927" 
d="M809 625q0 -107 -51 -107l-176 6q-23 0 -27 3t-17 -15t-19.5 -20.5t-6.5 -24.5l6 -64l-12 -38q0 -21 9 -33t9 -37t4 -43.5t-22 -18.5h-74q-10 0 -56 -16t-46 4q0 28 22.5 120.5t22.5 116.5q-1 38 -51 38q-23 0 -70 -14.5t-70 -14.5t-41 9.5t-18 21.5v84q0 20 3 43.5
t26 23.5l176 -16q57 0 57 45q0 36 -25.5 90t-25.5 91q0 38 32 42t58 4t42.5 6.5t31 11.5t22.5 4t8 -16l-12 -96q0 -18 -5 -79t34 -70q23 -4 36 -2t43 2t67.5 9t72.5 9t39 -20.5t4 -38.5z" />
    <glyph glyph-name="comma" unicode="," horiz-adv-x="524" 
d="M137 293q0 27 41 39.5t53.5 40.5t27.5 44t65 -30q57 -39 68 -90t11 -101t-7 -74t-19 -46.5t-27.5 -45t-40.5 -60.5q-57 -87 -139 -136q-39 -20 -73 -43.5t-92.5 -55.5t-135.5 -32q-9 0 -45 25q10 44 47 68t61 37t56 38t72 53.5t92.5 80t52.5 149.5q0 28 -23.5 53.5
t-34 42t-10.5 43.5z" />
    <glyph glyph-name="hyphen" unicode="-" horiz-adv-x="659" 
d="M96 453h-16q0 79 16 98q47 25 86 52.5t86 43.5q12 12 37 13.5t53 15.5l52 10q16 0 32.5 15.5t40.5 7.5q14 14 29.5 24t50.5 10v-34q0 -39 -23.5 -83t-37.5 -59l-76 -6q-35 -1 -58 -21q-22 -20 -49.5 -24t-56.5 -16q-16 0 -32.5 -14.5t-30.5 -14.5q-15 -18 -103 -18z" />
    <glyph glyph-name="hyphen" unicode="&#x2010;" horiz-adv-x="659" 
d="M96 453h-16q0 79 16 98q47 25 86 52.5t86 43.5q12 12 37 13.5t53 15.5l52 10q16 0 32.5 15.5t40.5 7.5q14 14 29.5 24t50.5 10v-34q0 -39 -23.5 -83t-37.5 -59l-76 -6q-35 -1 -58 -21q-22 -20 -49.5 -24t-56.5 -16q-16 0 -32.5 -14.5t-30.5 -14.5q-15 -18 -103 -18z" />
    <glyph glyph-name="period" unicode="." horiz-adv-x="495" 
d="M326 45q-106 -96 -134 -96q-42 0 -83 71t-41 87q0 28 58.5 125t84.5 120q8 0 44 -19.5t106.5 -71t70.5 -86.5q0 -34 -106 -130z" />
    <glyph glyph-name="slash" unicode="/" horiz-adv-x="722" 
d="M659 1065q-61 -101 -61 -147q-33 -39 -89.5 -182t-76.5 -173q-7 -60 -57.5 -156t-61.5 -106q9 -21 -16 -51.5t-25 -44.5l-22 -64q-23 -39 -37 -74.5t-31 -60.5q-40 -113 -102 -233q-29 -29 -44 -29h-65l6 23q9 104 35 137q3 17 23 49.5t29 58.5t19.5 62.5t40.5 83.5
t30 82q9 43 57.5 142t50.5 107q27 37 72 165.5t69 160.5q113 261 139.5 370t43.5 152q38 0 78.5 30t46.5 34q14 0 27.5 -14.5t29.5 -30.5q0 -35 -10 -52.5t-19 -50.5q-4 -31 -19 -54t-32 -48q0 -86 -29 -86z" />
    <glyph glyph-name="zero" unicode="0" horiz-adv-x="1001" 
d="M272 525q0 -34 11.5 -72.5t9.5 -75.5t-2.5 -71t25.5 -77q50 -84 145 -92q27 -3 67 20.5t64 53.5q55 55 94 147.5t51.5 193.5t-7 200.5t-81.5 169.5q-23 27 -55 31.5t-56 16.5t-61.5 4t-60.5 -24q-47 -18 -63.5 -43.5t-20.5 -53.5t-4 -56.5t-15 -57.5q0 -12 -6 -20t-6 -25
v-80q-29 -55 -29 -89zM426 1151q55 28 131 24t121 -9t80 -5q119 -20 154 -81q69 -121 28 -502.5t-326 -554.5q-125 -76 -241.5 -63t-161.5 28q-23 4 -36 6t-45 17t-49.5 65.5t-23.5 109t-5 114.5t-1 93q0 298 39 393q59 127 144.5 209t191.5 156z" />
    <glyph glyph-name="one" unicode="1" horiz-adv-x="917" 
d="M377 772v50q0 44 2 56t1 23.5t-3 25t-3 25t-3 11.5q-34 6 -82.5 -23t-78.5 -29t-52.5 5.5t-31.5 31.5t-7 50t18 32q41 6 202 70t205 66q44 1 89 -11q10 -5 13 -132t-32 -339q-4 -74 -6 -149.5t-8 -124.5t-6 -114t4 -85q-4 -47 19.5 -67.5t69.5 -47.5q45 -26 77 -42
t56 -38t15.5 -45.5t-40.5 -25.5t-55 13t-46 18q-46 6 -73 6t-65 7q-61 11 -212 -11t-190 6q-78 37 -18 81t194 76q47 79 47 163l-2 435q2 29 2 33z" />
    <glyph glyph-name="two" unicode="2" horiz-adv-x="917" 
d="M342 182q0 -10 17 -10t35 6t42.5 6t68 -3.5t82.5 1.5q40 6 76.5 27.5t73.5 44t70 41t57 18.5t27.5 -24.5t-8 -73.5t-59 -147t-56.5 -103q-60 -33 -160 -4t-110 29h-38h-110q-82 0 -114 4q-47 6 -89.5 -1.5t-55.5 1.5q-28 17 -51.5 65.5t7.5 72.5t71 44t58 42
q66 85 109 118q12 16 26.5 28.5t30.5 34.5q5 14 17 61q13 46 43 86t77.5 111t39.5 142q-9 71 -48 116.5t-90 65.5t-105.5 10t-93.5 -63q-12 -12 -23.5 -27t-27.5 -31q-31 -21 -54.5 6t-36.5 38q-28 23 5 70.5t66 68.5q33 22 113 81.5t157 49.5q16 0 46 -2t52 2
q38 15 120 -20t112 -83q77 -109 74 -165t-19 -93l-32 -74t-22 -63.5t-16 -46.5t-28.5 -40.5t-41 -40t-63 -54t-96.5 -133.5q-15 -38 -55.5 -84.5t-55 -67t-14.5 -37.5z" />
    <glyph glyph-name="three" unicode="3" horiz-adv-x="944" 
d="M123.5 219q23.5 0 36.5 -14q16 -23 61 -58.5t147 -82.5t189 26q27 27 53.5 61.5t26.5 78.5q0 88 -49 170.5t-127 105.5q-34 21 -119 41q-16 2 -29.5 -1t-32 -6t-29.5 16q-22 38 -26.5 66.5t15.5 32.5q27 10 69.5 10.5t123.5 13t136 101.5q23 23 23 90q-21 95 -54.5 116.5
t-58.5 14.5q-31 0 -69 7q-33 0 -80 -17q-2 -2 -40 -49t-79 -72q-31 -12 -58.5 3.5t-26.5 49.5t-11 59t63 80t162.5 79t138.5 26l17 -3l112 -3q78 -8 133 -51t79 -91q44 -85 8.5 -175.5t-111.5 -171.5q-40 -30 -109 -39q-20 -10 -36.5 -7t-8.5 -12q0 -4 7.5 -5t11.5 -5
q31 -6 125.5 -18.5t143 -100.5t48.5 -127q10 -55 -8.5 -123.5t-52.5 -115.5q-43 -51 -106.5 -78t-126.5 -55t-91 -28l-235 7q-51 0 -87 12.5t-58 19.5q-40 12 -75.5 44t-35.5 61q-4 16 14 22.5t31 22.5q32 72 55.5 72z" />
    <glyph glyph-name="four" unicode="4" horiz-adv-x="1013" 
d="M739 375q0 -50 -3 -59t-3 -18t3 -37t11.5 -48.5t6.5 -34.5t-4 -28.5t8 -24.5q3 -24 38 -31.5t55.5 -11.5t31.5 -14v-68q4 -10 -11.5 -13t-22.5 -3l-165 4q-29 0 -64.5 -3t-94.5 -7t-91 10q-31 14 -45 23t-14 24q-19 51 22 62.5t65.5 16.5t33.5 23q2 2 5 -3t7 -7t4 49
q6 21 6 49t6 54l-6 96q0 10 -20.5 7t-24.5 -7h-201q-202 0 -207 4q-11 8 -20.5 39.5t-9.5 42.5q-23 63 73.5 139t108.5 88q8 16 17.5 35.5t21.5 34.5q12 23 39 45t35 45q24 28 57 75q32 46 66.5 67.5t52.5 40.5t38.5 46t66.5 76.5t77 42.5q12 -3 49 -39t43 -53
q-7 -29 -20.5 -49.5t-20.5 -46.5q17 -42 8.5 -160.5t-12.5 -167.5t-4 -91t4 -42q5 -12 38 -12q34 0 72 10t73 18q53 31 68 23t17.5 -24.5t-2 -35t-16.5 -46.5t-12 -77q-26 -55 -51 -55q-13 -3 -54.5 10.5t-81.5 16.5h-47zM537 878.5q0 22.5 -2 20.5q-59 -59 -100.5 -128
t-92.5 -128q-30 -27 -49 -63q-20 -36 -27 -47q105 24 240 2q32 136 24 245q4 12 2 30.5t-2 31.5q7 14 7 36.5z" />
    <glyph glyph-name="five" unicode="5" horiz-adv-x="933" 
d="M753.5 883q-14.5 0 -28.5 4t-28.5 10t-30.5 8q-23 10 -47.5 11.5t-48.5 3.5t-38 1t-30 7q-35 10 -51.5 5t-40.5 -5h-20q-20 0 -28 -3t-7 -18.5t-7 -75.5q7 -17 -1 -62.5t-4 -62.5q7 -26 66 -1.5t101 24.5t168 -35q162 -61 197.5 -182.5t22.5 -207t-44 -138.5
q-132 -190 -250 -203.5t-152 -13.5q-79 0 -244 34t-178 59q-13 26 -7 57.5t6 47.5q24 40 57 64q12 12 22 28.5t20 16.5t42 -16q8 -8 19.5 -23.5t33.5 -43.5t45 -39q28 -13 61 -35t64 -26q31 -5 76 -5t59.5 12t40.5 35q68 76 78.5 121.5t-10.5 150.5q-12 23 -13 43.5
t-16 36.5q-20 16 -41.5 35.5t-48.5 32.5q-23 23 -34.5 29t-37.5 14t-53.5 1.5t-57.5 -15.5t-59.5 -19.5t-45.5 -14.5t-33 1.5t-21 9.5t-2 19t2 38q19 74 26 133.5t9 71.5q-2 25 -12 123.5t6 177.5q0 23 20.5 27t36.5 8q47 -19 58 -19l135 2q86 -4 147.5 -5t100.5 13t55 34
t45 38q10 4 25.5 5t25.5 5l35 -6q31 -4 -6 -71.5t-44 -78.5q-12 -19 -25 -83t-28 -80q-18 -10 -32.5 -10z" />
    <glyph glyph-name="six" unicode="6" horiz-adv-x="972" 
d="M509 80q54 0 103.5 33.5t68.5 94.5t12 107q-16 106 -49 138q-32 31 -51.5 50t-48.5 31t-77 13q-77 0 -126 -55.5t-62 -120.5l6 -99q0 -25 9 -38t19 -35q21 -28 45 -62q35 -27 66 -42t85 -15zM260 571q0 -24 5 -26t10.5 6t12.5 17q22 28 41 39.5t58 29.5q33 27 58.5 38
t84.5 19q25 12 63.5 3t64.5 -11q63 -5 118.5 -26.5t77.5 -51.5q29 -29 42 -63q13 -33 22.5 -52.5t9.5 -37.5q10 -55 -4.5 -105.5t-24.5 -92.5t-13 -66.5t-16.5 -53.5t-83.5 -80q-11 -4 -69 -33.5t-68 -30.5q-23 -2 -81 -17t-113 -15q-177 0 -257 49t-115.5 128t-47.5 169
q0 31 -2 79t6 87q49 298 258 471q36 40 154 143q134 105 272 119q16 0 33.5 -22.5t32 -75.5t-36.5 -100q-10 -6 -25.5 -5t-45.5 3t-45 -10q-15 -11 -89.5 -33t-114.5 -70q-4 -4 -3 -8t-3 -15q-23 0 -23 -10q-41 -39 -55 -73.5t-35 -69.5q-53 -122 -53 -146z" />
    <glyph glyph-name="seven" unicode="7" horiz-adv-x="866" 
d="M477 930l-87 -2q-181 0 -191 -17q-55 -55 -62 -96q4 -23 -5 -49t-52 -27l-18 18q-13 13 -23 17q-4 6 -2 50t24 114t33 120t15 64q27 27 90 17q112 -5 231 -7t165 -9t71 -8t40 0t25 4t21 3q6 4 5 5t-1 3t24 14q24 11 74 23q12 8 30 -13q22 -27 -1 -50q-17 -49 -74 -135
q-16 -31 -40 -61q-44 -55 -62 -117t-32 -81q-48 -65 -54 -89q-23 -54 -44 -89t-43 -93t-45 -96t-42 -90q-29 -79 25 -135q20 -22 36 -38t10 -35q-41 -106 -205 -96q-44 6 -76 21q-32 16 -33 18q-28 57 -19 98q24 108 42 141q26 34 34 60q9 26 18 43q14 10 15 28t13 29
q11 5 15 23t14 28q51 82 97 161q68 117 135 211q66 93 53 134q0 10 -39 -2t-62 -12h-43z" />
    <glyph glyph-name="eight" unicode="8" horiz-adv-x="933" 
d="M272 365l-10 -86q0 -16 11.5 -40t11.5 -40q4 -12 11 -21.5t11 -17.5q10 -10 17.5 -24.5t16.5 -27.5q19 -28 91 -28q119 -15 137 11t32.5 32.5t28.5 38.5t19 106.5t-96 163.5q-8 8 -21.5 14t-25.5 27q-20 12 -42 31.5t-48 1.5q-4 0 -13.5 -9.5t-27.5 -17.5
q-25 -18 -49.5 -33.5t-24.5 -23.5q-8 -10 -13.5 -29.5t-15.5 -27.5zM332 863.5q0 -27.5 4 -39.5q12 -36 90 -95q41 -23 56.5 -37t19.5 -14q23 8 50.5 29.5t39.5 37.5q35 53 32 120t-55 114q-44 44 -76 52q-32 9 -46.5 3t-29 -17t-29 -22.5t-30.5 -15.5q-22 -22 -22 -61
q-4 -27 -4 -54.5zM35 214q0 26 -4.5 91.5t116.5 161.5q4 10 14.5 13t20.5 16q12 8 18.5 16t13.5 15t20.5 10.5t29 7.5t28.5 8t15 10t-17.5 16.5t-68.5 33t-61 36.5q-56 123 -38.5 198t51.5 146t99 101q63 12 103.5 28.5t101.5 27.5t108 11q48 0 74 -22l86 -35
q64 0 83.5 -96.5t10 -134t-19.5 -82.5t-45 -91q-27 -27 -77 -43t-89 -43l25 -12q20 -10 32 -14q79 -26 121 -70q47 -37 74 -63q23 -35 27 -61.5t12 -51.5q0 -55 -16 -125q-10 -27 -18.5 -56.5t-21.5 -48.5t-23.5 -21.5t-32.5 -29.5t-109 -55q-14 -10 -26.5 -12t-36.5 -13
t-52 -16q-89 -35 -159 -29q-147 11 -205 29q-29 14 -53 39t-42 40q-29 24 -49 84t-20 86z" />
    <glyph glyph-name="nine" unicode="9" horiz-adv-x="940" 
d="M268 761q0 -31 33 -67q0 -16 27.5 -43.5t68.5 -31t109 7.5q23 4 35 22.5t29 29.5t63 66q28 36 -5 127t-81 113q-16 6 -35.5 14.5t-50.5 17t-58 -15.5q-12 -8 -30.5 -11t-26.5 -12t-19.5 -18.5t-7.5 -9.5q-10 -19 -12 -37t-8 -32t-18.5 -32t-8.5 -34q-4 -23 -4 -54z
M858 1002.5q12 -7.5 12 -23.5t8 -37q15 -44 23 -153.5t-16.5 -199t-42.5 -110.5q-8 -14 -8 -27.5t-10 -29.5t-15.5 -32.5t-14 -45.5t-37.5 -48q-28 -20 -72 -50.5t-85 -88.5t-149 -145q-23 -27 -47.5 -34t-51.5 -29q-8 -12 -25.5 -26.5t-25.5 -21.5t-26.5 -11.5t-40 -7.5
t-43 -3t-34.5 4t-21 76.5t22 91.5q42 26 87.5 28.5t84.5 22.5q14 10 57 35.5t92 67.5q79 86 118.5 214t39.5 156q0 2 -9.5 -6t-28.5 -31t-41 -37t-48.5 -14t-65.5 -8q-59 -29 -144 -18.5t-163 45.5q-34 14 -57 60t-28 87t-17 58q-10 60 6 118t27 70q35 64 74.5 97.5
t100.5 70.5q211 126 368.5 82.5t185.5 -74.5q14 -12 23 -27.5t22 -27.5q4 -10 16 -17.5z" />
    <glyph glyph-name="colon" unicode=":" horiz-adv-x="557" 
d="M267 336q19 0 29.5 -8.5t18 -21.5t15.5 -29.5t28 -40.5t47 -46t27 -52t-7 -42t-18.5 -23.5t-24.5 -23.5t-24 -26q-12 -27 -25 -44.5t-39 -17.5t-35 15.5t-25 28.5t-36 18.5t-43 43.5t-65 64q-12 12 -28.5 17.5t-16.5 25.5t16.5 23.5t28.5 13.5q27 35 81 54t65.5 45
t30.5 26zM371 860q23 0 36 -21t33 -57t43 -74t23 -72t-7 -41t-18.5 -13.5t-25 -13t-31.5 -24.5t-33.5 -44.5t-43.5 -26.5t-40 12.5t-22.5 28.5t-21.5 35t-29 31q-35 22 -66 70.5t-30 63.5q1 16 14.5 31t33 24t43 15.5t40.5 12.5t28.5 17t21 21.5t19.5 17.5t33 7z" />
    <glyph glyph-name="semicolon" unicode=";" horiz-adv-x="552" 
d="M380 918q22 0 36 -18.5t27 -44.5t26.5 -46.5t31 -51t17.5 -63.5q0 -34 -7 -42.5t-18.5 -13.5t-24 -10.5t-24.5 -15.5t-21 -24.5t-23.5 -33.5t-39.5 -19t-38 12t-24 28.5t-22.5 34t-32.5 29.5t-51 54q-31 42 -45 71q6 67 138 90q14 6 23 16.5t18.5 21.5t20.5 18.5t33 7.5z
M131 274q0 25 29.5 43.5t56.5 34.5q8 6 13.5 18.5t20 41.5t73.5 -25q120 -82 120 -175q0 -75 -28.5 -115t-47 -64.5t-32.5 -48.5q-70 -94 -166 -150q-39 -20 -73 -43.5t-92.5 -55.5t-135.5 -32q-9 0 -45 25q10 44 47 68t61 37t56 38t72 49.5t89.5 70t49.5 140.5
q0 28 -23.5 56t-34 45t-10.5 42z" />
    <glyph glyph-name="less" unicode="&#x3c;" horiz-adv-x="978" 
d="M862 899q50 0 50 -17l-1 -79l-12 -17q0 -21 -16 -41q-31 -16 -68 -27t-50 -11q-28 0 -114.5 -50t-115.5 -75q-17 -4 -31 -10t-28.5 -10.5t-24.5 -8.5l-48 -12l21 -4q8 -2 10 -2h17l28 -11q39 -34 102.5 -51.5t70.5 -17.5q7 -1 27 -13q19 -12 49 -30q30 -19 58 -19
l113 -35l19 -45l-35 -73q-20 -45 -62 -45q-43 0 -98 22q-20 13 -86 23q-19 16 -35 28t-29.5 22.5t-15.5 10.5l-45 18h6q-6 2 -18.5 4.5t-25.5 6.5t-30 6q-31 27 -56.5 37t-63.5 24t-68 29q-16 0 -23 6h-28q-12 12 -23 12h-22l-35 17h-4q-4 0 -6 6q-4 4 -15.5 9t-19.5 13
q-13 34 -9.5 37.5t3.5 8.5l-6 12q0 43 21.5 52t47.5 9h33q40 0 139 42q98 42 174 73q16 12 37 22.5t37 22.5h12q25 25 72 43t59 31q11 0 17 12l28 6q53 39 117 39z" />
    <glyph glyph-name="equal" unicode="=" horiz-adv-x="1024" 
d="M821.5 368q-26.5 -45 -63.5 -67h-103q-100 0 -130 -17t-64.5 -16.5t-73.5 -11.5q-23 0 -59.5 -10t-55.5 -6q-25 -14 -58.5 -13.5t-76.5 0.5l-28 6q0 37 12 64t20 33q146 51 262 73q23 10 57 6.5t75 6.5l108 16q23 0 45.5 12.5t56.5 -0.5q46 35 109 29q-6 -12 -6 -36
t-26.5 -69zM711 694q65 29 90 29q29 0 55.5 5.5t54.5 -5.5q12 -16 27.5 -29.5t13.5 -23.5q-3 -14 -36 -57t-39 -66q-97 0 -193 -6q-43 -6 -172 -22.5t-199 -35.5q-28 4 -28 -16q-43 -4 -73 -6t-75 -23q4 12 -6 19.5t-8 17.5q5 25 30 64t44 51q23 14 106 26t113 33
q27 -4 41 -1t45 7q10 5 26 11t35 18q0 18 71 15t77 -5z" />
    <glyph glyph-name="greater" unicode="&#x3e;" horiz-adv-x="978" 
d="M399 619q-65 18 -83 18q-18 -1 -50 31t-71 32l-121 35l-11 51l33 68q17 45 59 45t95 -22q16 -4 37.5 -11.5t48.5 -11.5l37 -33q35 -30 43 -30l45 -17q6 -4 18.5 -5t23.5 -5t27 -6q42 -33 107 -58q47 -10 86 -34h16q10 0 24.5 -3.5t4.5 -3.5q25 -10 29 -10h18l33 -12
q6 -4 13 -9t17.5 -8.5t16.5 -18.5l7 -18q7 -18 2 -18t-5 -6t6 -12q0 -43 -20.5 -50.5t-42.5 -7.5l-39 -6q-35 0 -174 -55q-66 -23 -140 -53q-12 -16 -34.5 -25.5t-38.5 -19.5q-6 0 -12 -5t-19 -13t-20 -15q-23 -10 -48.5 -20.5t-44.5 -20.5q0 -8 -16 -16l-29 -7
q-62 -34 -105 -34q-44 0 -49 30.5t-5 61.5l12 22q0 25 16 35q31 16 68 27.5t49 11.5q24 0 106.5 47.5t118.5 77.5q32 7 54 16t32 13l45 12q-12 0 -20 2l-25 2l-28 12q-32 32 -97 50z" />
    <glyph glyph-name="question" unicode="?" horiz-adv-x="1241" 
d="M160 152q0 47 64.5 101t95.5 54q30 0 43.5 -9t25.5 -21.5t25.5 -28t30 -27.5t37 -21.5t20.5 -35.5t-10.5 -43t-28 -30t-37.5 -26.5t-36 -26.5t-25 -30.5t-22.5 -44t-38.5 -26.5t-36.5 11t-17.5 29.5t-11.5 41t-9.5 38.5t-15 24.5t-23.5 18t-21.5 20t-9 32.5zM901 1109
q0 -15 -14 -28q-59 -53 -105.5 -98t-115.5 -82q2 -8 -13.5 -14t-11.5 -24t-22.5 -35t-59.5 -33.5t-59.5 -35t-21.5 -40.5t14.5 -30.5t13.5 -26.5t8 -31t8 -27t11.5 -23t12.5 -31t-25.5 -40t-60.5 -24q-52 -11 -97 25.5t-55 85.5q-11 50 7.5 81t47 58.5t61.5 55t52 58.5
t32.5 45t28 25.5t32 22.5t41.5 29t40 52.5t46 51.5t35.5 47t-3.5 59.5t-30.5 53.5t-44.5 30q-23 -3 -59 25t-57 30q-89 6 -134 -51.5t-60.5 -83t-32.5 -24.5t-32.5 25.5t-1.5 63.5q31 90 122 146q26 16 52.5 35.5t76 52.5t84.5 29q207 -27 237 -138q2 -10 32 -80t17 -96
q-10 -12 -7 -27.5t7 -32t4 -31.5z" />
    <glyph glyph-name="at" unicode="@" horiz-adv-x="1542" 
d="M671.5 291q30.5 0 65.5 49t64.5 110.5t49 114.5t19.5 61.5t3.5 40t-4.5 84t-76 2.5q-68 -49 -120 -139t-52 -118q0 -27 -3.5 -57.5t-1.5 -63.5t13.5 -58.5t42 -25.5zM934 1509q-1 0 -80 -28q-67 0 -147 -67.5t-99 -86.5q-8 -14 -30.5 -19.5t-26.5 -11.5t-10 -19
t-20.5 -39.5t-14.5 -41.5l-4 -45q-3 -37 -39.5 -79t-54 -68.5t-21.5 -59.5v-45q-3 -29 -22 -57.5t-27 -47t-8 -34.5t-4 -29.5t-10.5 -28t-11.5 -27.5t-7 -16v-51l-12 -26q0 -6 -4 -15.5t4 -48.5l-6 -92v-74q-2 -23 -9.5 -44t-23 -72.5t-17.5 -84.5q-3 -38 5.5 -52t5.5 -64
l-7 -70q-6 -35 66.5 -209t87.5 -200q10 -12 28.5 -31t28.5 -31q14 -35 29 -41q19 -19 76 -49.5t65 -30.5q82 0 148.5 66.5t62.5 138.5q-10 57 69 100t107 43q45 0 62.5 -29.5t17.5 -49.5v-35q-4 -12 6.5 -36t8.5 -31q-5 -17 -24 -45.5t-27 -49.5t-38 -45.5t-64 -43
t-70.5 -33.5t-58.5 -25q-24 -11 -80 -38.5t-68 -27.5h-45q-34 -6 -74 -6t-89 32q-50 32 -76 41t-68 28t-58 65q-21 44 -56 84q-34 39 -48.5 74.5t-21.5 73.5l-14 76t-20 73q-23 23 -39 90v35q4 4 -9 48.5t-12 56.5q1 11 5 29t5 33t5 25q0 57 8.5 92t8.5 51l18 109
q-6 24 -6 26v76q0 36 10 52l12 141q0 10 9.5 21.5t13.5 25.5l29 205q38 145 119 311t171 268q23 14 48.5 23.5t86.5 49.5t108 62q46 23 62.5 37t52.5 30t91 16t176.5 -15t142.5 -31q75 -38 118.5 -94.5t53.5 -77.5q80 -113 129 -272l-10 -172q16 -51 13 -85t-3 -85
q-34 -342 -147 -598q-51 -94 -97 -148.5t-102 -84.5l-80 -74q-66 -39 -101.5 -45t-57.5 33q-29 74 -34 138t-5 124v114q0 10 -12 11h-11q-10 0 -31.5 -36t-74.5 -128t-76 -115q-32 -43 -81 -66.5t-71 -23.5q-44 0 -66 61.5t-22 108.5l-12 147l29 234q42 125 80 178
q68 55 114 131q51 60 90 73t62.5 19t52.5 21q22 0 68 41h92l39 22q47 0 63.5 -27.5t16.5 -53.5q0 -27 -21 -114.5t-37 -123.5q0 -32 -22 -80q-12 -8 -11 -37t1 -43v-256q0 -56 10 -119q6 -6 20 -6q25 0 61.5 50t55.5 104q29 59 49.5 198.5t52.5 227.5q8 31 2 73.5t-2 69.5
q0 37 6.5 72t15 88t-4.5 80q-58 180 -141 313q-18 8 -80 55t-109 47h-51z" />
    <glyph glyph-name="A" unicode="A" horiz-adv-x="1253" 
d="M749 586q15 0 15 28t-14.5 42t-14.5 28v90q0 12 -7 34.5t-19 22.5q-22 0 -41 -35t-19 -55v-16q0 -16 -16 -88v-16q0 -12 18.5 -23.5t28.5 -11.5h69zM104.5 -12q-59.5 11 -59.5 35q0 39 23.5 65.5t62.5 26.5l39 10q11 0 38 23.5t48 39.5q12 51 44 111.5t58 116.5
q18 53 68 137q32 63 63.5 157t51.5 137q26 57 43.5 150.5t48.5 157.5q12 10 26.5 24.5t40.5 26.5h35q78 0 93.5 -50t18.5 -86t7 -69v-73q12 -23 31.5 -61t19.5 -76v-52q0 -7 34 -104t34 -126q0 -84 38.5 -228t82.5 -144q29 0 45 -6t25 -6q28 0 64 -12.5t36 -44.5
q0 -74 -97 -74l-137 6h-205l-57 -6q-68 0 -68 18q0 48 86 78q68 22 68 52t-18.5 97.5t-32.5 67.5q-6 20 -9 45t-11.5 56t-47.5 24h-86q-86 0 -102 -16q-27 -12 -22 -36t5 -50q-27 -36 -48 -95t-21 -75t13 -25.5t29.5 -19t30 -25.5t13.5 -53t-68 -37q0 -10 -11 -10t-24 10
h-17q-17 0 -32 2l-37 4l-86 -12q-53 0 -60 -8.5t-28 -8.5q-20 0 -79.5 11z" />
    <glyph glyph-name="B" unicode="B" horiz-adv-x="972" 
d="M535 483h-29q-68 0 -79 -73.5t-11 -85.5v-125q0 -17 26.5 -53.5t62 -22.5t57.5 19q54 12 108 59.5t47 99.5q-2 27 -2 31l2 78q2 73 -182 73zM455.5 900q-35.5 -50 -23.5 -75v-125q8 -61 22 -84.5t55 -23.5t99 36.5t58 71.5v109q0 43 -49 92t-88 49q-38 0 -73.5 -50z
M65 1112.5q42 20.5 76 20.5h41l90 18h160q13 -18 51 -18h35q262 0 365 -234v-108q0 -51 -40 -98.5t-57.5 -68t-17.5 -33.5t57 -56q20 0 40 -19.5t41.5 -66t21.5 -91.5v-57q-8 -39 -7 -68.5t-22 -72.5q-14 -12 -19.5 -25.5t-13.5 -32.5t-41 -28q-149 -97 -290 -97h-263
l-55 23l-20 -12q-16 -10 -31 -11h-41q7 7 -7 12t-25 7t-19 4q-51 0 -51 35q0 29 11 59.5t40 30.5h35l56 8q56 8 56 13l-4 53q17 17 0 34v52q16 39 16 90v57l23 103q0 14 -7.5 14t7.5 100v68l16 74q0 127 -104 170t-124.5 59t-20.5 44t42 48.5z" />
    <glyph glyph-name="C" unicode="C" horiz-adv-x="796" 
d="M68 387q-23 46 -23 57l23 119v45l-23 58l23 63v39q54 118 79 143q14 91 107.5 145t132.5 77q23 4 57 13t45 9h119l64 23q80 0 80 -125v-39q-12 -47 -42 -86t-69 -39t-74 19.5t-79 19.5t-87 -32t-77.5 -75t-56 -87t-21.5 -68v-136q0 -89 26.5 -178.5t56 -137.5t74.5 -48
l41 16q106 0 164 58q75 88 103 95t41 7q22 -22 22 -54t-32.5 -90.5t-112 -147.5t-140.5 -89h-16q-117 -24 -129 -24q-26 0 -104.5 47.5t-92.5 78.5q-13 10 -46 112t-33 149v63z" />
    <glyph glyph-name="D" unicode="D" horiz-adv-x="1400" 
d="M598 803v-518q8 -16 10 -35t7 -46.5t40 -33.5h23l113 12q158 4 239 123.5t86 257.5q4 93 -52 187t-91 123.5t-55 9.5q-52 35 -58 35h-18l-148 16q-21 0 -66.5 -33.5t-45.5 -58.5q16 -16 16 -39zM1333 399q0 -14 -12 -38.5t-12 -41.5q-12 -27 -30 -70t-35 -69
q-32 -50 -86.5 -89.5t-98.5 -39.5h-39q-47 0 -95 -19.5t-55 -19.5h-55q-35 0 -60.5 -9t-43.5 -9h-285q-44 -22 -61 -23l-58 23h-57l-55 -23q-14 0 -38 13.5t-38 27.5q-96 0 -96 56q0 30 47 55q23 12 49 24h57l96 23q59 -22 76 -23q55 0 55 115v125q0 15 -16 39v127
q0 16 8 40.5t8 55.5v176q0 55 -18 93t-78 38q-13 0 -33 -8t-41 -8l-57 16h-39q-14 0 -35.5 13t-21.5 35q0 42 96 77t154 35h35q16 0 34 -13.5t55 -0.5q37 14 52 14h115l170 17q222 0 390.5 -138.5t168.5 -361.5l-17 -98v-136z" />
    <glyph glyph-name="E" unicode="E" horiz-adv-x="995" 
d="M483 1133q12 0 23.5 -2.5t27 -3.5t37 -3t56.5 -2l67 17q16 4 36 10t45 6q24 0 67 -33q14 -27 18 -63.5t17 -63.5q9 -9 23 -44q15 -36 28 -58q0 -39 -51 -39q-12 0 -92 62.5t-228 62.5l-39 -10q-12 -18 -23.5 -30.5t-11.5 -20.5v-19q-16 -64 -16 -74v-147
q0 -31 12.5 -58.5t38.5 -27.5q6 0 90 16h41q19 0 43.5 17.5t35.5 25.5t22 8t32 -26l21 -25v-135q0 -57 -51 -57q-34 0 -68 28q-23 8 -38 18.5t-38 10.5h-73q-51 0 -65.5 -18.5t-14.5 -73.5v-51q6 -29 8 -57.5t10 -68.5t62 -50h114q55 0 131 41q93 32 119 32q35 -26 35 -42
t-32 -45q-32 -30 -44 -57.5t-23.5 -51t-28 -39t-38.5 -15.5q-27 0 -53.5 11.5t-65.5 11.5l-198 -6l-70 -17h-170l-41 -12l-61 -4q-32 0 -51 31t-19 37q0 51 76 51q15 6 39 17t45 18q43 8 58 26.5t15 56.5t7.5 50t-7.5 24q0 10 -16 70v164l16 143v35l7 33v227
q0 18 -20.5 29.5t-31.5 11.5h-57q-39 0 -56.5 32.5t-17.5 60.5t11.5 38t23.5 10h109l102 7h141z" />
    <glyph glyph-name="F" unicode="F" horiz-adv-x="1218" 
d="M-15 371q-75 0 -75 97q0 79 46.5 193t100.5 181q130 212 478 313q11 22 108 0l92 -16h125l68 12l28 -12h52l51 16h45q23 0 46.5 -20.5t23.5 -47.5v-114q0 -25 -13.5 -49.5t-38.5 -24.5q-173 92 -204 92h-58q-92 0 -92 -35v-272q0 -41 95 -41t116.5 25.5t29 37t25.5 11.5
t32.5 -10.5t14.5 -22.5l-22 -115q12 -27 6 -33t-6 -24t22 -33q0 -27 -18.5 -51.5t-36.5 -24.5t-28.5 17.5t-22.5 39t-31.5 40t-60.5 18.5q-115 0 -115 -57v-35q0 -16 -8 -41t-8 -49q0 -32 8 -54.5t8 -60.5v-16q0 -27 13.5 -52.5t27.5 -37.5q18 -8 44.5 -14.5t50.5 -13.5
t52 -13l35 -6q12 0 25.5 -10t13.5 -28q0 -31 -50.5 -51.5t-89 -14t-52 9.5t-24.5 6.5t-23 3.5h-183q-70 0 -125 22q-51 0 -61 -11q-9 -11 -51 -11h-74q-18 0 -47 15t-29 40q0 57 127 57h131q15 0 56 19h12q39 0 39 55v70l-17 112l17 51q-17 85 -17 93v163q17 85 17 93v57
q0 70 -24.5 108.5t-48.5 38.5t-61.5 -21.5t-93.5 -47.5t-137 -78q-34 -30 -74 -223v-68q0 -50 -59 -98.5t-103 -48.5z" />
    <glyph glyph-name="G" unicode="G" horiz-adv-x="1075" 
d="M502 1133q42 0 69.5 11t83.5 11h250q43 0 73 -36t55.5 -103.5t25.5 -105.5t16 -62q0 -21 -16 -39q0 -41 -17 -41t-62 56q-46 56 -81 98q-79 41 -221 79q-141 0 -253.5 -101.5t-123.5 -262.5q0 -41 -8 -65.5t-8 -67.5t15 -84q37 -101 112 -190t170 -89l73 25q29 0 63 21.5
t34 62.5v41q-15 94 -54 142t-55 56q-29 10 -29 31t64 21h227q20 0 46.5 8t68.5 8q55 -16 55 -39q0 -12 -10 -39.5t-23 -27.5h-22q-43 0 -70.5 -33t-27.5 -60v-118q0 -27 -8.5 -41.5t-8.5 -44.5q15 -60 0 -97q0 -16 -28 -41q-12 -8 -29 -16l-137 -23h-33q-16 0 -60.5 11.5
t-82.5 11.5h-56q-31 0 -63 16q-59 19 -109 19q-6 8 -46 23t-50 38q-32 12 -93 124t-61 167v35q0 16 -11 39.5t-11 40.5v135q45 124 45 154l16 34q0 82 83 160t135.5 107.5t88.5 29.5l76 11h23z" />
    <glyph glyph-name="H" unicode="H" horiz-adv-x="1406" 
d="M205 991q0 23 -77 36t-77 22q0 39 23.5 67.5t50.5 28.5l102 6h35q16 0 42 -12.5t54 -12.5l58 19h119q34 0 34 -42t-12 -59.5t-31.5 -22.5t-41 -6t-53.5 -15t-32 -101l17 -102v-58q0 -41 26.5 -71.5t62.5 -30.5t48 12l74 -12h96q61 0 80 -23l28 7q8 4 16.5 10t12.5 6h80
q33 28 33 57v160l-23 102v35q0 20 -14 28.5t-30.5 14.5t-31 17.5t-14.5 39.5t24.5 49t55.5 21q95 -35 170 -35h80q92 0 119.5 -35.5t27.5 -66.5l-10 -23l-47 -10h-55q-14 0 -36 -26.5t-22 -46.5v-218l11 -92q0 -8 -13.5 -29t-13.5 -49v-114l10 -115l-10 -80q0 -14 -9 -52.5
t33 -59.5t75.5 -33.5t60 -24.5t26.5 -28q0 -28 -57 -58h-227l-97 23l-57 -23q-74 0 -74 41q0 23 20.5 37t65.5 48t45 108v233q0 14 -11 35.5t-27 21.5h-132q-14 0 -40.5 11.5t-38.5 11.5h-195q-96 0 -96 -80v-131q-17 -50 -17 -62q0 -13 8.5 -31t8.5 -42q-12 -31 7 -50.5
t48 -37t55.5 -34t26.5 -30.5q0 -22 -35.5 -34.5t-59.5 -5t-61 19.5t-78 12q-30 -18 -57 -18h-115q-29 0 -56.5 14t-27.5 45t7.5 57.5t38.5 26.5l38 10q16 0 37 22.5t21 35.5v137q0 16 -11.5 55t-11.5 82v96l23 115l-23 96q0 9 23 74v137z" />
    <glyph glyph-name="I" unicode="I" horiz-adv-x="598" 
d="M563 1053q0 -11 -55 -22t-80 -19t-25 -21v-143l23 -74l-23 -96l23 -115l18 -102q0 -43 -9 -80t-9 -51v-58q0 -12 -11.5 -21t-11.5 -35q0 -36 22 -57.5t36 -21.5l45 -12q57 -27 57 -86q0 -25 -33.5 -40t-68.5 -15h-113l-76 22q-22 0 -81.5 -20.5t-71.5 -20.5t-34 13.5
t-22 31.5t24 35.5t51.5 35t47 38t13.5 51.5q-16 31 -8 46t8 30v489l-23 56l23 98q0 70 -23 102q-15 16 -50.5 18.5t-49.5 10.5q-31 18 -31 68q0 51 18 51h113q22 0 36.5 -6.5t27.5 -10.5q30 0 108 17h23q12 0 28 16l107 -16q11 0 34 -29.5t23 -56.5z" />
    <glyph glyph-name="J" unicode="J" horiz-adv-x="591" 
d="M293 184.5q0 45.5 -8 77.5v467l-23 131l6 113q0 19 -35.5 30t-44.5 11h-57l-115 -23q-29 0 -34 13.5t-5 29.5t20.5 39t67 50.5t66.5 27.5h80q36 0 57 -12.5t31 -12.5q14 0 131.5 17.5t161.5 17.5h41q12 0 33.5 -4t21.5 -36t-32.5 -42t-71.5 -21t-72 -36t-33 -88
q-6 -18 -6 -20v-25q8 -25 -12 -64q-10 -47 -10 -73q16 -10 28 -35v-19q0 -20 4 -48q5 -37 -2.5 -108.5t-1.5 -115.5l-6 -102l6 -33l-12 -64q8 -70 -41.5 -264.5t-95.5 -269.5q-78 -99 -190.5 -118t-76.5 -19h-40q-6 0 -27 -3.5t-62 -8.5t-67 -5q-72 0 -134.5 25t-62.5 94
q0 35 119 147q11 19 42 23q31 5 54 -23q31 -20 50.5 -40.5t55 -46t105.5 -25.5l24 20t25 18.5t37 32.5q96 93 97 361q14 14 14 59.5z" />
    <glyph glyph-name="K" unicode="K" horiz-adv-x="1333" 
d="M842 1139h24q16 0 23.5 8t32.5 8h172q43 0 72.5 -32.5t29.5 -66.5t-50.5 -58.5t-75.5 -24.5h-120q-16 -12 -48 -31.5t-52 -40.5q-44 -45 -100 -117.5t-56 -91.5q0 -20 10.5 -32t24.5 -38q19 -34 59 -74.5t72 -64.5q16 -16 49 -66t51.5 -76t40.5 -40q16 -16 42 -36.5
t53 -44.5t59 -50h41q16 0 45 2t42 -14t27.5 -48t13.5 -64t-28.5 -57.5t-81.5 -26.5t-74 0t-36.5 5t-33.5 12.5t-46 20.5l-39 23q-47 18 -96 86q-102 112 -195 239q-73 129 -119 170q-31 23 -50 23t-32.5 -12.5t-13.5 -34.5t11.5 -60.5t11.5 -62.5v-41l16 -39v-58
q0 -57 33 -83.5t73 -39t72.5 -19.5t32.5 -30q0 -40 -36 -62t-56 -22l-29 11q-12 0 -15 -5.5t-11 -5.5h-103q-24 3 -51 14t-35 21h-57q-13 0 -108.5 -23.5t-131.5 -23.5h-22q-16 0 -35 9.5t-21 26.5q-4 31 34 83.5t63 52.5h16l64 17h73q17 0 17 41v38q8 51 -1 82t-4 67t5 62
v119q0 74 -17 92v97l17 118q0 63 -33 88t-73 35.5t-72.5 19.5t-32.5 40q0 48 37.5 67t83.5 19h55l115 -17h57l80 17q25 0 57.5 -14.5t32.5 -48.5t-10 -34q-35 0 -69 -35.5t-34 -78.5v-39q0 -29 23 -121v-16q14 -41 33 -41q10 0 36 29.5t63 99.5q38 69 97 184t111 115z" />
    <glyph glyph-name="L" unicode="L" horiz-adv-x="1036" 
d="M221 621q0 52 19 147q0 16 -9.5 30.5t-9.5 26.5v23q0 57 -17.5 78.5t-39 33t-38.5 25t-17 45.5q0 49 26.5 70.5t46.5 21.5h445q29 0 54.5 -16t25.5 -47v-39q-82 -57 -99 -57h-61q-43 0 -67.5 -25t-24.5 -68v-61q0 -55 -13.5 -120.5t-25.5 -125.5v-307q0 -47 20.5 -68.5
t36.5 -21.5h176q28 0 109.5 47t112.5 73t47 27q12 29 17 34t19 5t37 -13t23 -27t-61.5 -144.5t-104.5 -161.5q-14 -18 -182 -18h-97q-43 0 -86 8t-57 -2l-125 -29l-135 23q-29 0 -48 -10t-32 -13q-57 0 -57 86q0 43 27.5 53.5t60.5 17.5t60.5 24.5t27.5 74.5v172l16 154v74z
" />
    <glyph glyph-name="M" unicode="M" horiz-adv-x="1691" 
d="M416 752q16 48 16 73v45q0 18 -39 131q-10 14 -28.5 26.5t-32.5 24.5t-31.5 20.5t-28.5 27.5v22q0 19 25 26t45 7h51q34 0 40.5 8t8.5 11.5t9 3.5h135l57 -23q46 -121 105 -335t94 -323.5t51 -109.5q11 27 35 51q31 104 83 217t93 215q0 43 25.5 75t54.5 75q6 14 11.5 77
t61.5 81h80l29 -17q60 0 147 35q70 0 92.5 -39t22.5 -63q0 -34 -33 -63.5t-47 -29.5h-35q-45 0 -61 -16q-50 0 -65 -36t-15 -101v-285q0 -23 2 -26l15 -31q12 -14 12 -51l-6 -68q0 -29 8 -56.5t8 -39.5l25 -58v-57q0 -37 35.5 -51t77.5 -23.5t78 -20.5t36 -42q0 -61 -57 -62
h-74q-44 0 -64 -12l-170 12h-96l-153 -12q-31 0 -44.5 4t-13.5 32t15.5 61.5t58.5 33.5h119q41 0 41 80q0 27 -11.5 63.5t-11.5 51.5v192q0 51 -16.5 83t-22.5 32t-19.5 -17.5t-30.5 -45t-38.5 -61.5t-41 -66.5t-36 -59t-24.5 -41.5q-34 -25 -54.5 -93t-43.5 -100t-33 -46
q-16 -35 -23 -40t-27 -5t-27 16t-26 47l-16 125q-14 37 -58 130t-44 177v23q0 15 -20 64.5t-38 49.5q-12 0 -34.5 -58.5t-22.5 -90.5v-141l-33 -211q0 -89 45 -100t65.5 -17t20.5 -37q0 -57 -74 -57h-79l-195 34h-74q-18 -12 -41 -12h-39q-32 0 -52.5 13.5t-20.5 27.5
q0 29 42 51.5t70 22.5h41q22 0 54 6t61 10q28 28 53 123.5t25 110.5v96q18 18 18 80v92q0 27 23 96v58z" />
    <glyph glyph-name="N" unicode="N" horiz-adv-x="1673" 
d="M131 1151h193q58 0 79 -18q27 -16 34 -29.5t24 -28.5q14 -41 42.5 -50t53.5 -29.5t48.5 -50.5t48 -62.5t47 -63.5t44.5 -51q31 -35 52.5 -73t68.5 -62q12 -10 118 -122t139 -112q34 0 34 5l-6 51v153q0 18 11.5 43t11.5 60v172q-12 9 -51 49.5t-48 40.5h-39
q-36 0 -64 26.5t-28 30.5v64q0 52 40 54.5t52 2.5h39l178 -18h285q41 0 77 -18.5t36 -56.5t-17 -63q-47 -29 -91 -25.5t-85 3.5l-57 -17h-35q-16 0 -27.5 -23.5t-11.5 -49.5v-314l16 -73v-115l-34 -199q0 -22 17 -74.5t17 -72.5q0 -121 -34 -121h-59q-60 0 -60 18
q-29 29 -48.5 70t-47.5 66q-26 35 -64.5 71.5t-56 57t-35.5 60.5t-64.5 87t-98.5 94t-102 95.5t-81 99.5q0 31 -30 54.5t-44 23.5q-39 0 -39 -62v-233l17 -115l-7 -102q0 -84 157 -104.5t157 -80.5q0 -24 -10.5 -27t-24.5 -3h-233l-132 -19q-22 19 -79 19h-39
q-43 0 -63.5 11t-51.5 11h-74l-16 -22h-41l-2 65q-2 23 -2 43t18.5 32.5t42.5 12.5h8l22 1l30 1l129 2q24 0 37.5 25t13.5 51q-12 24 -12 50q0 45 -11.5 77.5t-11.5 65.5t23 102v137q0 38 -23 62q0 34 23 34q-3 12 -21 49.5t-18 47.5q0 43 -33 65.5t-73 43t-72.5 47
t-32.5 77.5q30 76 57 76z" />
    <glyph glyph-name="O" unicode="O" horiz-adv-x="1234" 
d="M604 973q-50 0 -137 18q-62 0 -128.5 -146t-66.5 -196v-160q0 -29 36 -87t130.5 -161.5t182.5 -103.5h38q96 0 190.5 88t94.5 197v192q0 67 -29.5 104.5t-54 67t-51.5 80.5q-16 12 -66 59.5t-100 47.5h-39zM506 1151h137l74 -18h41q27 -9 48 -17t39.5 -15t24.5 -14
q31 -16 70.5 -26.5t61.5 -32.5t39.5 -57t33.5 -49q109 -92 109 -211l-6 -136v-57q0 -49 -129 -307q-22 -67 -121 -115q-55 -43 -103.5 -77.5t-107.5 -34.5l-113 10l-80 -6h-35q-39 0 -78 16t-81 36t-100 49.5t-93 98.5q-114 270 -114 426q0 42 18 83.5t27 70.5q0 49 34 115
q0 20 67 112t103 92l58 23q61 0 104 20q42 20 72 21z" />
    <glyph glyph-name="P" unicode="P" horiz-adv-x="972" 
d="M250 866q0 16 22 78q0 31 -26.5 53.5t-69.5 22.5h-22q-20 0 -67.5 16.5t-47.5 36.5q0 35 30 58.5t47 23.5t21 -3t17 -19h352l172 -33h57q99 0 154 -119.5t55 -212.5q0 -244 -153 -289q-16 0 -52.5 -17.5t-47.5 -17.5q-42 0 -96 19t-54 55q0 29 16 39t42 15.5t97.5 22.5
t71.5 214q0 38 -16 59q-32 42 -107.5 68.5t-103.5 26.5h-35q-16 0 -36.5 -20.5t-8.5 -37.5v-483l22 -92q-22 -106 -22 -119q0 -57 30.5 -72.5t66.5 -16.5t66.5 -5t30.5 -37v-23q0 -14 -19.5 -47t-37.5 -33h-35l-102 23h-131l-193 -23q-57 0 -85.5 14.5t-28.5 77.5
q0 101 73 101l23 -16h76q55 0 55 57v61l22 76l-22 39l22 74q0 14 -11 38.5t-11 36.5t11 26t11 59v114q0 12 -11 27.5t-11 46.5v57z" />
    <glyph glyph-name="Q" unicode="Q" horiz-adv-x="940" 
d="M482 1008q-86 0 -127.5 -67t-98.5 -230v-103q0 -110 119 -307q11 -22 52.5 -62t76.5 -40t66.5 47t55 104.5t39 108.5t23.5 59v57q0 68 -14.5 103t-14.5 45v45q0 54 -77 172q-14 12 -35.5 40t-64.5 28zM2095 -854q-20 0 -115 23h-38q-6 0 -44 9t-86.5 19t-94.5 19.5
t-90 9.5t-117.5 32.5t-158.5 64.5t-235 130q-31 16 -71.5 23.5t-88.5 34.5q-12 16 -19 31.5t-38 25.5q-29 20 -59.5 49t-63.5 58.5t-64.5 58t-62.5 49.5q-31 0 -46 22.5t-28 57.5q-31 27 -59.5 36t-54.5 38q-16 14 -23.5 38.5t-34.5 40.5q-23 20 -56.5 38t-67 36.5t-64.5 41
t-45 56.5q-23 31 -44.5 53.5t-48 56.5t-26.5 83l-6 57l-10 137v193l10 35q0 16 6 24.5t23 38.5q0 12 11 25.5t13 35.5q4 48 63.5 105t95.5 65q36 7 56.5 24t73.5 43t93 26t86 -24.5t71 -55.5q78 -43 147.5 -121t104.5 -164l10 -159v-170q0 -98 -90 -263q-25 -34 -78 -89.5
t-53 -66.5t25.5 -41t81.5 -82t170.5 -142.5t169.5 -129.5q55 -38 142 -85.5t173 -102.5q14 -28 175 -90.5t212 -62.5l57 -25h41q50 -10 113 -10h176l115 10l79 6l58 -6q90 0 158.5 35t91.5 35h34q58 0 58 -29q0 -23 -31 -45.5t-68.5 -44t-71.5 -38.5t-40 -26l-74 -12
q-57 0 -80 -16h-114q-59 -8 -86 -18.5t-68 -10.5h-80z" />
    <glyph glyph-name="R" unicode="R" horiz-adv-x="1257" 
d="M512 889v-150q0 -16 -8 -29.5t-8 -25.5q16 -8 16 -25q-11 -37 30.5 -66.5t78.5 -29.5q79 35 90 35l41 -16q63 0 80.5 74.5t21.5 82.5l-12 58q0 35 -23 57q0 56 -22 74q-13 0 -83.5 20.5t-92.5 20.5q-51 -13 -68 -25q-14 0 -27.5 -13t-13.5 -42zM94 -11.5
q-55 23.5 -55 43.5t41 42q12 0 74 -11h41q41 0 68.5 24t27.5 50v547l16 147q-6 20 -8 49t-10.5 72.5t-55.5 55.5h-79q-131 0 -131 96q0 18 57 41l346 16h211q20 0 98 17h80q41 0 77 -32t64 -59q16 -49 52 -73q35 -40 41 -70q15 0 30 -58.5t15 -79.5q0 -42 -45.5 -144
t-66.5 -116t-42.5 -26t-21.5 -41q0 -54 43 -140t69 -99q25 -16 44.5 -41t56.5 -67.5t88 -51.5q57 -19 74 -36t18.5 -22.5t-3.5 -25.5q-9 -35 -75.5 -42t-81.5 1q-14 12 -37.5 12t-38.5 4q-55 33 -77 53.5t-44 32.5q-47 26 -163 148q-41 51 -73.5 114t-51.5 80
q-29 16 -42.5 30.5t-39.5 14.5q-72 0 -72 -131l23 -96v-41q0 -49 31.5 -73.5t68.5 -41t68.5 -32t31.5 -37.5t-14 -32.5t-27 -10.5h-73l-115 16h-256q-101 0 -156 23.5z" />
    <glyph glyph-name="S" unicode="S" horiz-adv-x="1007" 
d="M711 381l6 37q0 55 -94 97t-100.5 54.5t-21.5 19.5t-36 8t-39 17q-16 10 -22.5 21.5t-22.5 23.5q-23 10 -40 11.5t-40 17.5q-12 14 -21.5 24.5t-17.5 26.5q-16 20 -39.5 32.5t-23.5 43.5v51l-4 52l4 26l6 29q0 77 91.5 136.5t141.5 84.5t106 25t89 -1t65 -26
q54 -43 54 -117q0 -44 -20.5 -73t-40 -40.5t-45 -11.5t-57.5 35t-59 35q-63 0 -109 -25t-46 -73q0 -25 16.5 -35t40 -14.5t50 -8.5t99.5 -43t136 -82q19 -10 55.5 -28t80.5 -52t80 -82.5t36 -125.5v-48q0 -25 8 -44t8 -54t-17.5 -61.5t-33.5 -61.5q-4 -16 0 -27.5t-6 -23.5
q-8 -27 -26.5 -35t-35.5 -28q-61 -55 -122 -87q-60 -33 -90 -42t-58 -16t-38.5 -16t-27.5 -9l-51 6q-31 0 -48 -6.5t-39 -6.5t-31 7.5t-29 13.5t-36.5 5t-39.5 1t-37 15.5t-37 26.5t-43 18.5t-43 27.5q-23 12 -24.5 31.5t-15.5 48.5t-27 48.5t-13 69.5t45 94t97 44
t86.5 -17.5t34.5 -52.5l-7 -32q0 -14 6.5 -22.5t6.5 -18.5l-6 -23q0 -55 54.5 -87t123.5 -32q125 0 221 113q57 62 57 127q0 25 -12 46.5t-12 37.5z" />
    <glyph glyph-name="T" unicode="T" horiz-adv-x="1355" 
d="M1122 1133q82 0 123 31.5t50 31.5t23.5 -49.5t14.5 -71.5v-147q0 -137 -57 -137t-68.5 38.5t-15.5 66.5t-21 66.5t-90 38.5h-112q-18 0 -70 -16q-43 0 -66.5 -27.5t-23.5 -68.5v-98q0 -16 -1 -29.5t11 -26.5l-10 -80v-331q0 -75 17.5 -101.5t50.5 -56.5q31 -10 55 -19.5
t59 -9.5q61 -10 92 -37.5t33 -57.5t-22.5 -55.5t-73.5 -31.5q-18 0 -35 6t-35 9t-76 3t-94 21h-194q-12 0 -50 -11.5t-85 -11.5l-138 6q-10 0 -16 -8t-41 -8q-16 8 -16 33q24 69 73 121q29 11 70 25t49 14l98 22q39 0 39 125v217q0 11 17 45v262l6 64q0 32 -30 53t-44 21
h-227q-98 0 -116.5 -85.5t-40 -105.5t-53.5 -20t-45 23.5t-13 49.5l16 119l24 98q0 60 20.5 98t41.5 38t36 -10t40 -28t55 -18l74 11h41q16 -11 55 -11h309l56 11l57 -11l176 11h98z" />
    <glyph glyph-name="U" unicode="U" horiz-adv-x="1280" 
d="M889 752v96l-19 115v38q0 23 -14 30t-34 11t-37 8.5t-17 23.5q0 32 26.5 68t53.5 36q93 -45 172 -45h80q20 0 47 5t66.5 3.5t39.5 -66.5q22 -75 0 -90h-98q-25 0 -40 -25.5t-15 -54.5q-25 -77 0 -96l-25 -74q15 -24 25 -98l-25 -96v-39q0 -12 -16 -80q0 -17 8 -36t8 -22
v-34q0 -29 -4 -39q-12 -12 -12 -41t-23.5 -58.5t-50.5 -76.5q0 -27 -25.5 -46.5t-54.5 -45.5q-40 -46 -93 -69.5t-119 -28.5t-98 -5q-84 0 -174.5 22.5t-129.5 57.5l-41 57q-31 45 -74 154v137q0 29 -11 58.5t-11 76.5v115l22 96q-22 106 -22 115l22 80v112q0 23 -54 36.5
t-78 20.5t-21 17q0 27 22.5 53.5t50.5 26.5l99 23h38q12 0 48 -11.5t67 -11.5h170q39 0 39 -39t-12.5 -56.5t-31.5 -22.5t-40.5 -5t-53.5 -15t-32 -112l16 -96v-502q-12 -27 -6 -34t6 -23l23 -55q37 -58 77.5 -78.5t133.5 -20.5q36 0 115 41q6 14 19 27.5t44.5 54
t73.5 146.5v79l16 267q-16 24 -16 41z" />
    <glyph glyph-name="V" unicode="V" horiz-adv-x="1400" 
d="M119 1133q33 0 114 22h74l51 -10l37 4q14 2 27.5 4t21.5 2h62q27 0 42 -4t15 -36t-24.5 -50t-55 -28.5t-55.5 -20.5t-25 -28q0 -25 18 -73.5t34 -48.5q51 -51 51 -81t65 -182t107 -152q22 0 41 47q20 47 33 84q71 102 123.5 237t52.5 162t-13.5 34t-25.5 15
q-41 12 -41 57.5t96 45.5h98q11 0 33 -11q73 0 105.5 8.5t66.5 8.5l39 -6l41 6q25 0 43.5 -14.5t18.5 -43.5t-8.5 -42t-20.5 -19t-28.5 -10t-48.5 -10t-81 -17.5t-69 -54.5l-11 -45l-30 -46q-31 -46 -50 -102q-19 -38 -41 -57q-37 -95 -73 -137q-52 -121 -78 -194t-62 -171
t-36 -141v-58q0 -31 -7.5 -52t-51.5 -21t-66 16q-27 12 -30 29t-18 35t-19 53t-19 59q0 14 -11.5 38t-11.5 36q-23 39 -59.5 139.5t-83.5 169.5q-4 21 -9 39t-9.5 35.5t-8.5 28.5l-18 51q-4 13 -51 80q-20 25 -46 55q-25 192 -108 240q-102 53 -102 92q0 33 57 33h39z" />
    <glyph glyph-name="W" unicode="W" horiz-adv-x="2031" 
d="M444 1155h62q27 -12 42 -19.5t15 -37.5t-27.5 -43t-60.5 -21t-60.5 -18t-27.5 -37t29 -61q35 -52 35 -70l26 -53q29 -67 29 -77q0 -17 27.5 -89t52.5 -117q10 -12 14 -27.5t8 -29.5q4 -4 9.5 -21.5t11.5 -36t11 -34t10 -15.5t16 49.5t29 72.5q18 22 26 61.5t8 43.5
q32 32 62 110.5t51 124.5t42 93t21 75t-14 35t-30.5 11t-31 13.5t-14.5 32.5q0 33 32 51t56 18q25 0 60 -17h96q52 0 66.5 8.5t52.5 8.5h98q57 0 57 -64q0 -29 -20.5 -41t-80.5 -26.5t-81 -28.5q1 -61 19 -93t30 -57t12 -45q0 -32 37 -144.5t55 -135.5t32 -68t21 -65.5
t9 -18.5t6 17.5t13.5 47t19.5 40.5q23 20 32 62.5t9 62.5q23 20 42.5 70t35.5 90t29.5 64.5t17.5 47.5q46 142 22 154t-41.5 16t-33 13.5t-15.5 32.5q0 34 36 51.5t64 17.5q27 0 35.5 -2t24.5 -15h90q40 0 63 8.5t52 8.5h102q58 0 58 -64q0 -45 -22 -60.5t-79 -20.5t-90 -15
t-43 -51l-18 -74l-56 -119q0 -27 -51 -63q-10 -25 -12 -42.5t-6.5 -42.5t-32.5 -69q-160 -388 -160 -455l-12 -45q-10 -40 -10 -53q0 -80 -58 -80q-16 0 -22 19q-14 4 -19.5 10t-15.5 6q-16 16 -24.5 23.5t-20.5 33.5q-10 8 -14.5 23.5t-8.5 28.5q0 16 -7 28.5t-11 22.5
q0 29 -3 45t-20 29q-23 45 -34 76.5t-28 74t-63 105.5l-16 96l-35 57q0 32 -16 70l-19 96q-2 4 -5 -6t-8.5 -39.5t-8.5 -34.5q-29 -31 -42 -70.5t-26 -82.5q-159 -346 -159 -416l-21 -53q-20 -50 -20 -79t-17 -44q-39 -19 -96 -19q-12 14 -26.5 40t-27.5 45t-26 59
q0 21 -12 51q0 29 -3 45t-20 29q-43 90 -69 164.5t-50 112.5t-30 55.5t-13 35.5t-14 41v58q0 14 -36.5 78.5t-52.5 110.5t-51.5 94t-68 77t-54 47.5t-21.5 41.5t13 46t44 23h268q80 16 96 16z" />
    <glyph glyph-name="X" unicode="X" horiz-adv-x="1439" 
d="M662 812q41 -101 90 -101q27 0 109.5 121t82.5 153l-16 16q-8 6 -63 52.5t-74 46.5q-33 -18 -60 -34t-52.5 -32t-41.5 -33q-29 -12 -22.5 -27.5t6.5 -37.5q0 -23 41 -124zM1178 -57q-88 -23 -103 -23l-74 23h-38q-14 0 -38 11t-38 13t-35 0t-39 -2t-31.5 6t-13.5 37
q0 47 57 60q16 10 30.5 22t14.5 36q0 28 -25 63t-30 61q-10 14 -40 75.5t-81 61.5q-30 0 -57 -57q-20 -31 -87 -94.5t-67 -139.5q0 -32 28 -60t40 -39t12 -21t-45 -11h-381q-114 21 -114 74q0 38 54 59t60 21h96q44 0 84.5 51t63 83t45.5 54q27 47 57.5 79t57.5 75
q16 16 21 31.5t20 25.5v45q0 38 -45 90t-54 58q-29 31 -39 58.5t-41 45.5q-14 12 -25 31.5t-33 53.5t-49 42q-29 8 -91.5 13.5t-99.5 23.5q-38 18 -60 44.5t-22 56.5t20 44.5t37 14.5h39q20 -17 76 -17h231q21 0 92 17h103l90 16l80 -16h34q11 8 89.5 32.5t101.5 24.5t53 -7
t53 -11q41 -16 74 -27.5t78 -11.5t60.5 -16.5t15.5 -51.5t-34.5 -71.5t-119.5 -36.5q-85 -10 -154 -93.5t-110 -136.5t-84 -96v-55q0 -25 35 -78t54 -100t83 -113q20 -23 37.5 -54.5t50 -81t104.5 -36.5h80q115 -25 115 -154v-45q0 -12 -22.5 -23.5t-36.5 -11.5
q-16 0 -44.5 24.5t-50.5 33.5h-75z" />
    <glyph glyph-name="Y" unicode="Y" horiz-adv-x="1308" 
d="M1131.5 1144q20.5 11 39.5 11q28 0 74.5 -12.5t46.5 -20.5q0 -47 -26.5 -74.5t-69.5 -27.5h-63q-67 0 -75.5 -47t-15.5 -68q-10 -12 -18 -24.5t-23 -20.5q-8 -14 -19 -26t-21 -30q-47 -83 -91.5 -193.5t-44.5 -188.5v-74l-10 -57q0 -55 12.5 -85t20.5 -30q14 -8 144 -41
t130 -77q0 -35 -22 -35q-18 -16 -31.5 -22.5t-26.5 -23.5q-9 0 -23.5 -28.5t-31.5 -28.5q-18 0 -43.5 11.5t-54.5 11.5h-137q-63 0 -97 18h-92q-35 0 -51 -9t-51 -9h-35q-72 0 -95.5 18.5t-23.5 63.5t18.5 78.5t61.5 33.5l96 -22q29 0 60 24t20 56l-22 227q0 16 -2 33.5
t8 33.5l-12 52q0 43 -21.5 76.5t-69.5 76.5q-14 31 -54 57.5t-83 57.5q-12 29 -36.5 59.5t-37.5 59.5q-12 10 -26 14t-31 14q-39 10 -80 17q-73 29 -73 102q0 35 15 57.5t58 22.5h99q29 0 55 -11t41 -11h96l131 -11h45q14 0 16.5 -3t2.5 -19.5t-38 -59t-38 -77.5
q0 -51 149 -211q0 -8 13 -41t27 -33q13 0 27.5 20.5t27 47t22.5 50t19 29.5q0 12 39.5 73t39.5 80t-16 27.5t-51 29.5t-35 65q0 20 36 26.5t44 6.5q33 -11 57 -11h39q43 11 105 11t82.5 11z" />
    <glyph glyph-name="Z" unicode="Z" horiz-adv-x="1490" 
d="M68.5 817q-45.5 0 -45.5 59q0 112 90 176t120 87q34 61 80 96q21 21 81.5 50.5t67.5 29.5t38.5 -10.5t79 -25.5t104 -35t112.5 -40t108 -38.5t117.5 -40t88.5 -21.5t256 74q47 0 63.5 -24t16.5 -66t-16.5 -69.5t-46 -40.5t-71.5 -24.5t-79 -35.5t-57.5 -25.5t-57.5 -1.5
t-59 -21q-43 -29 -86 -59.5t-84 -58.5q-14 -12 -31.5 -37t-42.5 -37q-31 -21 -195.5 -115t-164.5 -119q0 -14 33.5 -28t66.5 -36t53.5 -44.5t28.5 -22.5q99 -83 169.5 -178.5t98.5 -128.5q89 -148 217 -313q12 -16 36 -32.5t38 -31.5q29 -12 58.5 -37.5t54.5 -35.5
q21 -21 76 -33t61 -12h57q47 -12 80 -35l90 18l64 -18q14 0 19 3t18 9t57 6t82 17q68 20 211 102q12 10 22.5 21.5t22.5 23.5q18 33 51 57q14 0 21.5 12.5t22.5 35t58 10.5l7 -6q6 -12 6 -35l-13 -56q0 -32 -49 -85.5t-75.5 -81t-38.5 -44.5q-79 -63 -213 -111t-170 -48
h-103q0 16 -33 16h-79l-35 -16h-96l-138 16q-72 14 -136 58.5t-122.5 95.5t-106.5 101t-85 81q-12 27 -36 55.5t-39 65.5t-52 65.5t-66 59.5q-31 47 -49 90t-47 86q-23 14 -37 34.5t-42 57.5t-71 44t-85 19.5t-114.5 34t-123.5 21.5q-17 0 -17 46.5t72 88t76 41.5
q57 37 146 69.5t126 55.5q43 35 86 58.5t90 66.5q23 14 81.5 69.5t90.5 67.5q21 21 39 57q0 11 -22 33q-23 8 -163 61.5t-224 53.5q-6 0 -27.5 -9.5t-59 -26t-61.5 -32.5q-45 -88 -122 -131t-122.5 -43z" />
    <glyph glyph-name="bracketleft" unicode="[" horiz-adv-x="598" 
d="M575 1583q0 -11 -68.5 -33t-100 -35.5t-31.5 -27.5v-457q-17 -68 -17 -74l17 -278v-115l-4 -102l1 -31l3 -184v-342q0 -29 25.5 -54.5t31.5 -25.5l74 -45q31 -14 47 -29.5t16 -46.5t-61.5 -20.5t-75.5 10.5h-113l-79 16q-31 0 -47.5 -5t-31.5 -5t-37 11.5t-22 29.5
t8.5 33.5t18.5 29t21.5 27.5t15.5 39t2 41t-2 33v1042q0 109 2 197l2 213q0 55 -18.5 82.5t-29.5 33.5q-26 14 -26 95q0 34 19 34h37q37 0 59 5l86 -11l221 17q16 0 36.5 -19.5t20.5 -48.5z" />
    <glyph glyph-name="backslash" unicode="\" horiz-adv-x="1103" 
d="M246 1178q-27 0 -52.5 -16.5t-51.5 -16.5q-49 0 -40 51q10 26 30 46l32 32q33 33 56.5 43t55.5 23t50 25.5t65 12.5t71.5 -17.5t35 -47t12.5 -70.5t6 -71q5 -35 61 -186t60 -173q4 -21 17.5 -84t80 -365t113.5 -335q18 -18 71.5 -9t71 7t10.5 -27q-23 -51 -60.5 -78.5
t-80.5 -58.5q-32 -13 -45 -29q-16 -10 -27 -24.5t-49 -14.5q-81 0 -90 86q0 25 3 55t-4 44t-14 38.5t-16.5 52t-11.5 33.5l-14 50q-10 47 -10 86l-80 342q-4 8 -19.5 71.5t-20.5 69.5t-33.5 79.5t-41.5 86.5q-2 6 -8 43t-14.5 79t-14.5 78.5t-8 43.5q-10 14 -25.5 17
t-15.5 11q-28 17 -55 17z" />
    <glyph glyph-name="bracketright" unicode="]" horiz-adv-x="598" 
d="M246 -12l10 80l-10 274v215l4 98l-10 439v239l6 97q0 10 -23 44.5t-35 34.5l-79 45q-58 26 -58 74q0 36 60.5 24t76.5 -12h113l80 -18q27 0 45 6t34 6t37 -11t21 -31q0 -28 -28.5 -63t-30.5 -63q-2 -27 0 -44t2 -33v-1354q-10 -45 -10 -96t18.5 -79t32.5 -34t18 -23.5
t4 -60.5t-18 -43h-39l-37 -3q-36 -3 -100 13q-35 0 -54.5 -5t-35.5 -5l-144 -18q-12 0 -31.5 19t-19.5 50q0 10 32 22.5t100.5 38t68.5 42.5v135z" />
    <glyph glyph-name="asciicircum" unicode="^" horiz-adv-x="978" 
d="M152 137q-15 0 -15 48q0 36 33 116l12 29q2 2 5 8t8 10v-6q12 16 32.5 66.5t40.5 70.5q21 51 45 84q109 267 109 307l10 48q0 20 7 37.5t50 17.5h13q4 0 6.5 5.5t38.5 -15.5q12 -8 22 -35h4l9 -6v-20q0 -21 4 -32q6 -6 6 -10v-35q0 10 1 7l15 -52q10 -23 18.5 -35
t16.5 -34q7 -46 57 -113q2 -14 6 -26t5.5 -22.5t5.5 -14.5h-6l18 -46q2 -4 12.5 -16t20.5 -27l29 -36q18 -49 28 -91q23 -62 23 -86q0 -55 -51 -63l-68 -39l-45 16l-41 121q0 12 -3 30.5t-26 31.5q-26 46 -26 61q0 27 -24 88.5t-52 89.5l-4 29l-13 45l-6 -51
q-17 -17 -32 -80q-52 -62 -86.5 -139.5t-34.5 -89.5t-11.5 -49t-33.5 -64q0 -12 -11.5 -16t-40.5 -17h-81z" />
    <glyph glyph-name="underscore" unicode="_" horiz-adv-x="1024" 
d="M403 -205h365q23 -5 101 3t110 -3q31 4 68.5 4t97.5 -4q-2 -6 -5 -13t-6.5 -15.5t-6.5 -15.5t-7.5 -23t-95.5 -35q-12 2 -116.5 -1t-149.5 7h-81q-81 0 -123 -10t-98 -6t-94 4h-80q-80 0 -122 6q-39 -10 -83 -6t-77 6q-60 -6 -64 -6h-38q12 37 49 69.5t53 38.5
q98 8 201.5 4t201.5 -4z" />
    <glyph glyph-name="grave" unicode="`" horiz-adv-x="684" 
d="M68 1935q10 -16 25 -39t38 -34q29 -20 80 -86q66 -69 125 -158q6 -2 13 -13q35 -56 50 -57q6 -17 42 -68q35 -51 38 -91q11 -3 13 -13t14 -10q10 -12 2 -28t-12 -34t-42 -40t-76 13q-19 17 -38 40q-18 23 -34 43q-15 20 -26 36q-10 16 -28 30t-35 42q-27 35 -44 77
t-48 95q-7 61 -109 250q-12 35 8 48t44 -3z" />
    <glyph glyph-name="a" unicode="a" horiz-adv-x="780" 
d="M246 484q0 -16 -2 -43t2 -57t15 -53.5t39 -23.5t63.5 47t67.5 106.5t53.5 111t21.5 60.5t2 41t-7 84.5t-75 6.5q-70 -59 -111 -126t-55 -102.5t-14 -51.5zM768 899q0 -31 -57 -221q0 -42 -17 -80q-16 -12 -16 -19v-61l-6 -108v-80q0 -90 39 -90l28 45q12 10 28.5 25.5
t34.5 30.5t36 34q12 0 20 -10.5t8 -22.5q-16 -32 -24 -41q-20 -57 -66.5 -106.5t-74 -78t-52.5 -65.5l-45 -63q0 -42 -39.5 -70t-58.5 14q-12 37 -12 73t6 70t12 64.5t6 59.5v114q0 17 -17.5 17t-42 -36t-86 -126t-77.5 -107q-16 -18 -29.5 -33.5t-41.5 -41t-56 -25.5
q-49 0 -71.5 61.5t-22.5 102.5l-6 147l28 240q0 17 23.5 79t50.5 93q58 56 100 114t66 74.5t49 25.5t49.5 14.5t54.5 21.5q16 0 68 39h92l39 18q80 0 80 -92z" />
    <glyph glyph-name="b" unicode="b" horiz-adv-x="636" 
d="M416 711q-50 0 -110 -136t-60 -182v-80q0 -29 8 -51t18 -22h25q58 20 125 96t67 131v96l-10 41l10 33q1 74 -73 74zM68 132q0 17 22 79v61l19 189v41l38 192v74q0 16 11.5 69.5t11.5 125.5v57l57 233v17q0 34 35 192l17 58q4 31 17 54t40 66l194 170h56l63 -16l58 16h32
q30 0 64.5 -32.5t34.5 -60.5q0 -69 -42 -139t-130 -91h-39q-47 0 -103.5 -45t-56.5 -86q-16 -14 -21.5 -46t-19.5 -57q-23 -26 -23 -98l-22 -74q0 -29 -12.5 -57.5t-40 -88t-27.5 -126.5v-41q0 -16 16 -16t63 79.5t144 79.5l45 17q47 0 72 -28t25 -75v-16l-17 -41
q17 -68 17 -90t-7 -29q-4 -10 -7 -17t-3 -13t6 -22.5t-6 -55.5v-62q0 -8 -41.5 -78.5t-50.5 -99.5l-22 -90q-37 -53 -68 -93t-56.5 -75t-35.5 -43q-23 -14 -35 -26.5t-31 -24.5t-82 -12l-57 -17q-26 0 -29.5 24.5t-5.5 43t-10 35.5q0 10 -6 21t-10 24q-14 16 -27.5 31.5
t-13.5 32.5z" />
    <glyph glyph-name="c" unicode="c" horiz-adv-x="575" 
d="M502 711h-29q-116 0 -137 -17q-16 0 -19.5 -10t-3.5 -25l-28 -45l-9 -45t-8 -38.5t-6 -24.5v-33l-16 -57q-7 -15 -15 -27t-9 -24q-3 -36 22 -108t53 -75q31 0 63.5 24.5t64.5 54.5t61.5 53.5t57.5 20.5q45 -5 31 -38q-4 -51 -72.5 -135t-125.5 -119q-58 -35 -111 -63.5
t-120 -24.5t-81 101.5t-14 113.5l6 18q0 8 -2 28t-3 41.5t-2 41.5t0 57t15.5 73t14.5 77l22 51v47l68 205q0 23 48 66t79 43q16 5 16 11t17 11q40 5 75 18.5t65 9.5q73 -8 123.5 -39t43.5 -104q0 -37 -22.5 -67.5t-39 -40.5t-38.5 -8t-35 2z" />
    <glyph glyph-name="d" unicode="d" horiz-adv-x="815" 
d="M535 688q0 57 -56 57q-74 0 -142.5 -89.5t-68.5 -153.5q0 -8 -5 -44t-2 -72t21.5 -60.5t61.5 -13.5q81 21 138 144t53 232zM659 1422v24q0 8 6.5 24.5t14.5 37t18.5 40t18.5 35.5q20 27 80.5 112t130.5 99h16q31 0 38 8t19 8l80 -16h58q20 0 39 -80v-57q0 -72 -49.5 -121
t-127.5 -49q-15 16 -41 16t-40 -14q-27 -27 -59 -115.5t-36 -109.5l-10 -52q-12 -35 -41 -92t-29 -164q-26 -46 -43.5 -162t-17.5 -122v-39l-18 -154q-16 -62 0 -98l-4 -51q-3 -51 23 -51t53.5 18t50 41.5t40 42t27.5 18.5t21.5 -12t11.5 -29q-70 -80 -70 -131
q-10 -27 -61.5 -89t-62.5 -85q-16 -34 -37 -47.5t-50 -28.5q-112 -83 -112 -45q-20 -10 -28.5 5.5t-11.5 45t-1 67.5t3.5 93.5t-14.5 55.5q-27 0 -96 -74q-18 -16 -42.5 -47t-70.5 -83t-65 -52q-40 0 -76.5 38.5t-36.5 81.5v125q0 13 29 154q0 24 23 80v16q16 80 16 97
q12 31 17 57t24 57q10 75 68.5 119.5t94.5 68t64 52.5q37 0 58 22q75 12 94.5 25.5t23.5 64.5l17 58l18 125l17 80q0 28 16 85.5t19 64.5t3 8z" />
    <glyph glyph-name="e" unicode="e" horiz-adv-x="581" 
d="M479 774q0 21 -20 31q-8 6 -21 10l-35 4q-10 0 -25.5 -24t-26.5 -53q-17 -45 -21.5 -69t18.5 -24q25 -5 76 24.5t55 65.5v35zM496 973q158 0 154 -201q-1 -47 -42 -81t-84 -58q-39 -27 -83 -47.5t-107 -61.5t-66 -125v-86q-4 -35 14.5 -68.5t47.5 -33.5q4 -4 52 28.5
t56 39.5q31 14 48.5 23t25.5 5q14 0 24.5 -4t8.5 -40t-37 -78t-76 -77.5t-79.5 -62.5t-62.5 -49t-54 -23.5t-54 -0.5q-41 2 -77 47t-31 77v35q0 25 -17 45l6 41v33q0 17 10.5 90.5t15.5 111t7 50.5q8 6 8 8l-2 21q-2 20 7 32q0 25 8 45l43 103q8 85 131 177.5t205 84.5z" />
    <glyph glyph-name="f" unicode="f" horiz-adv-x="546" 
d="M233 649q0 28 17 96q0 43 -53.5 53.5t-77 19t-23.5 26.5q0 45 23 61q17 20 59.5 25.5t62 13.5t27.5 29q18 23 40 165t22 228q35 56 35 97t38.5 95t75.5 82q29 29 47.5 53.5t48.5 53.5q14 6 45 34.5t74 28.5h35q58 15 109 -34t51 -94t-29 -98.5t-39 -62.5
q-21 -19 -58 -21.5t-52 -12.5q-16 -6 -81 -20.5t-95 -77.5q-38 -145 -84 -381q0 -36 31.5 -52t74.5 -16h64l57 -22v-41q0 -14 -32 -52.5t-48 -38.5h-96q-59 0 -79 -18t-20 -61q-16 -48 -16 -58q0 -72 -8 -133.5t-8 -79.5q0 -23 -17.5 -117t-17.5 -124l-6 -99l-17 -119
q0 -58 -11 -85.5t-11 -40.5t-1 -20l-24 -84q-21 -77 -39 -105q-25 -31 -41 -54.5t-32 -70.5q-12 -6 -42 -34t-93 -83t-93 -55q-38 0 -66.5 -11.5t-54.5 -11.5h-16q-12 0 -21.5 2t-16.5 -3t-36 -5l-137 12q-66 0 -106.5 32t-40.5 46q0 19 31.5 71t41.5 62q0 19 62 61t92 42
h35q13 -13 22 -19t13 -10l51 -16q14 -5 28 -9t39 -4h45q72 0 138 74q31 6 78 229t47 250v39q0 31 20.5 145.5t33 195t25.5 132.5z" />
    <glyph glyph-name="g" unicode="g" horiz-adv-x="569" 
d="M214 -272q-38 0 -99 -64q0 -8 -75 -76.5t-75 -195.5q0 -38 83.5 -71.5t112.5 -33.5q54 0 103 56t49 110v80q0 97 -30.5 146t-68.5 49zM410 563q0 115 -49 115t-74 -68t-25 -108v-92q34 -113 57 -113l29 27q62 221 62 239zM-51 -928q-63 0 -102.5 49.5t-51.5 63.5
q-24 12 -52 53t-28 68v57q0 35 9.5 59.5t25.5 59.5q8 27 37 64.5t43 66.5q8 10 49.5 31.5t52.5 42.5q29 16 47.5 30.5t49.5 26.5q26 0 49.5 22.5t37 36t28.5 23.5t26.5 15t11.5 22q16 14 40 27.5t40 29.5q39 144 39 174q0 29 -24.5 33t-55.5 4h-16q-29 0 -74 45t-45 51v41
q0 41 -9 62.5t-9 57.5t21.5 100.5t49 128t52 116.5t30.5 76q14 12 36 19.5t22 37.5q31 25 70.5 57.5t79.5 32.5q68 0 104 -56t36 -114v-75q0 -43 -40 -204.5t-40 -182.5v-39q0 -12 -48 -95t-48 -213v-114q16 -29 21.5 -61.5t36.5 -73.5q16 -31 21 -70t17 -68
q6 -37 11.5 -68.5t5.5 -37.5v-143q-12 -61 -66 -101t-74 -62t-56 -46.5t-48 -24.5l-57 -18h-39l-98 -17h-119z" />
    <glyph glyph-name="h" unicode="h" horiz-adv-x="768" 
d="M170 889q0 12 20.5 75.5t20.5 94.5v125q0 59 15.5 106t23.5 76l6 57q7 49 50.5 119t51.5 76q14 7 23.5 41.5t19 52t22.5 21.5t21.5 5t14.5 5t14 4h16q24 24 87 56t108 46q73 0 113.5 -67t40.5 -125q0 -33 -154 -176q-18 -19 -52 -19t-51.5 -3t-33.5 -19
q-69 -40 -109 -142l-57 -233q-21 -63 -39 -170t-18 -133t18 -27q25 0 59.5 31t77.5 59q119 119 170 119h35q65 0 83.5 -87.5t18.5 -149.5l-6 -70l6 -119q0 -3 -18 -57v-39l-10 -74q-10 -33 -24 -46t-20.5 -31.5t-19.5 -30.5q-23 -88 -73 -144q-14 -14 -26.5 -39.5t-36 -69.5
t-69.5 -44h-96q-96 0 -96 57q0 35 39 82t45 55q31 25 57 51t54 48t37 51.5t31 72.5t38 79t16 79v80q0 50 -29.5 73t-45.5 23t-23.5 -11t-36.5 -28q-74 -55 -117 -119.5t-77 -136.5q-14 -52 -36 -181.5t-38 -182.5q-16 -27 -40 -42.5t-40 -15.5q-80 0 -80 138v192q0 8 40 160
t40 199q12 33 23 86v57q0 17 12 22l4 17v41z" />
    <glyph glyph-name="i" unicode="i" horiz-adv-x="495" 
d="M281 1261.5q4 24.5 4 70.5t63 136l96 19q29 -10 37 -35t25 -51l6 -64q0 -12 -8 -29.5t-8 -43.5q-22 -76 -47 -94.5t-46 -14.5q-29 0 -62.5 19.5t-49.5 50.5q-14 12 -10 36.5zM541 348q16 0 16 -24t-47.5 -71t-87.5 -77q-17 -40 -75 -125.5t-97 -85.5q-31 0 -63.5 34
t-32.5 64v33q0 16 -2 28.5t-15 12.5v39l17 57v97q0 31 8 49t8 47v18q0 16 28.5 98.5t28.5 105.5t-12.5 43t-34.5 20t-31.5 -8.5t-52.5 -8.5q-16 8 -16 41v33q0 34 117 125.5t149 91.5q31 0 53.5 -25.5t22.5 -54.5l-19 -57q19 -18 19 -58t-9.5 -75t-9.5 -78v-16
q0 -16 -16 -80v-23q0 -23 -7 -36.5t-13 -33.5t-15.5 -37.5t-9.5 -32.5q0 -29 18 -58t45 -29t50 33q24 24 47 24h39z" />
    <glyph glyph-name="j" unicode="j" horiz-adv-x="450" 
d="M467 1462q29 0 37 12.5t30 12.5t48 -16.5t26 -52.5t-14 -66t-26 -58t-29.5 -80.5t-49.5 -52.5h-63q-29 0 -35 3t-16 20q-23 23 -23 81t5 93.5t27 59.5t29 34t38 10h16zM291 -239q-28 -83 -45 -103q-18 -29 -44 -59.5t-42 -65.5q-12 -8 -88.5 -89t-128.5 -81l-68 -12
q-15 -10 -29 -10h-28q-23 0 -34 -6.5t-46 -6.5l-80 6q-12 2 -21.5 4.5t-13.5 2.5h-10q-63 0 -97 28.5t-34 40.5t7 25.5t17.5 31t21.5 34t16 25.5q10 18 57.5 55.5t74.5 37.5h39q22 -22 35 -22l119 -29q16 0 23.5 -6t17.5 -6t30.5 9t40 22.5t40 28.5t45 30.5t56.5 136.5
t32 154l34 245q0 2 5.5 29t18.5 98t28 135v23q0 12 10 57q0 20 18 45q4 29 10.5 54.5t6.5 42.5q0 69 -45 69q-14 0 -41 -17.5t-47 -17.5q-38 0 -37 39l-6 25q0 34 135 130.5t167 96.5t50 -22.5t18 -50.5l-6 -70q10 -30 10 -58t-11 -67t-11 -74v-28l-17 -74v-23
q0 -39 -14 -68.5t-14 -79.5t-58 -296l-16 -86q-4 -79 -13.5 -101t-9.5 -35q0 -14 -28 -97z" />
    <glyph glyph-name="k" unicode="k" horiz-adv-x="899" 
d="M518 652q0 20 -16.5 37.5t-28.5 17.5q-59 4 -96 -33t-39 -93t14.5 -67.5t34.5 -12.5t42 14t43.5 39t32.5 51t13 47zM899 375h19q14 -4 14 -11l-4 -63q0 -35 -62.5 -134t-105 -157t-60.5 -55q-103 0 -144.5 109t-81.5 225t-122 121q-36 0 -44.5 -51.5t-10.5 -57.5v-61
q-4 -55 26.5 -76t67.5 -32t64.5 -32.5t23.5 -76.5q0 -26 -26.5 -42t-49.5 -16q-36 9 -96 29h-57q-32 0 -80 22q-12 0 -27.5 -11t-29.5 -10t-37 1t-44.5 4t-35.5 14t-13 38t24.5 49.5t77 67.5t56.5 155q4 31 3 48.5t1 41.5t5.5 37.5t19.5 27.5l6 215l6 92q23 56 23 97v73
q4 16 14 45t14 58l23 137q16 111 58 208.5t70 161.5q50 115 86 166.5t93 61.5q16 0 30.5 6t27.5 10q56 35 145.5 3t64.5 -121q0 -45 -25 -99.5t-38 -54.5q-39 -29 -83 -45t-84 -34.5t-70.5 -45.5t-41.5 -76l-16 -39q-48 -98 -92 -284v-41q-39 -100 -39 -131q-9 -37 13 -63.5
t48.5 1t97.5 99t128 14.5t75.5 -105t17.5 -66q-2 -30 -58.5 -122.5t-58.5 -118.5q-3 -62 39 -158t108 -96q17 -3 32 20t23 39.5t18 26.5q23 12 37.5 37t36.5 25z" />
    <glyph glyph-name="l" unicode="l" horiz-adv-x="614" 
d="M348 240q35 0 73 34t117 111q79 76 134 76l12 -17q0 -40 -41 -109.5t-84 -100.5q-43 -30 -68.5 -70.5t-68.5 -83.5q-14 -31 -44 -50.5t-59 -35.5q-31 -12 -74.5 -31.5t-70.5 -19.5t-36 7t-11 21.5t1 37t3 54.5v132q0 29 11.5 57.5t11.5 54.5v41q0 -36 14 109.5t14 328.5
q0 12 11.5 36t11.5 38v74q12 59 18 116.5t17.5 156.5t44.5 182q16 55 53 106t66 111t75 86q29 47 79 74.5t97 27.5h154q59 0 74.5 -37t15.5 -84v-39q0 -56 -64 -122t-98 -66q-35 0 -53 8t-48 8t-76 -26.5t-58 -85.5q-16 -31 -15.5 -54.5t-12.5 -57.5q-52 -136 -52 -230
q0 -14 -19 -90v-64l-28 -166q6 -46 -10.5 -124.5t-26.5 -135t-12 -122.5t22 -66z" />
    <glyph glyph-name="m" unicode="m" horiz-adv-x="1269" 
d="M102 633q-26 0 -34 16q0 29 17 54.5t40 25.5q75 80 115 96q124 125 178 125q52 0 35 -82t-15 -100v-57q0 -57 33.5 -61.5t73 44.5t81.5 107.5t79 106.5t53 48q55 0 93 -50t38 -87l-12 -51q0 -6 -2.5 -22.5t1 -30t11 -17.5t25.5 10t106 120t152 106q45 0 64 -25.5
t19 -54.5l-28 -125v-41q0 -34 -57.5 -203.5t-57.5 -222.5q0 -10 -2 -25.5t2 -36.5t92.5 44t83.5 -4q-61 -74 -108.5 -126.5t-61.5 -68.5q-33 -24 -65.5 -61t-51 -47.5t-45.5 -10.5q-39 0 -61.5 37.5t-22.5 79.5q0 75 54 200t57 159q4 34 20 94q0 87 -21.5 110t-39.5 15
q-41 -14 -71.5 -68.5t-57.5 -127.5t-81 -266.5t-108 -193.5q-55 0 -85.5 25.5t-30.5 32.5q-3 78 29 156.5t47.5 114.5t15.5 64v17q0 39 29 108q8 27 20 51.5t8 40.5q0 25 -22.5 40.5t-34.5 5.5q-80 -23 -172 -222q-29 -43 -43 -84t-31 -75q0 -4 -10 -47t-47 -132.5
t-113 -89.5q-36 0 -46.5 36t-10.5 46t-9.5 27.5t0.5 39.5q23 46 75.5 223.5t48.5 231.5q0 12 8 24.5t8 34.5t-5 38t-25 16t-32 -8t-24 -19.5t-27 -19.5t-41 -8z" />
    <glyph glyph-name="n" unicode="n" horiz-adv-x="911" 
d="M211 666q-15 0 -57.5 -19.5t-51.5 -19.5h-16q-14 8 -7 31.5t7 35.5q112 158 188 206q79 50 107.5 50t40.5 -14t20 -30t6 -40t-7 -48.5t-10 -47t-5 -31.5l6 -32l23 -41q16 0 102 98t141 156.5t74 58.5q37 0 70 -125q7 -107 -53 -329t-60 -224l-2 -31q-2 -30 25 -30
q12 8 23 16q133 96 149 96t30.5 -13t14.5 -21q0 -16 -46.5 -67.5t-62.5 -51.5q0 -16 -11 -30.5t-24 -14.5q-33 -35 -55 -68t-59 -77t-103 -44q-28 0 -56 35t-28 63l-6 74q16 72 59 206q43 135 50 204v22q-8 57 -41 58q-84 0 -114 -55.5t-43 -94.5t-30 -74q-19 -22 -12 -51
q-10 -61 -38 -142t-64 -204q10 -16 -3.5 -19t-85 -3t-77.5 60q-8 77 36 151.5t44 83.5v73l-11 35q0 22 26 72.5t26 58.5v29l-7 80q0 39 -22 39z" />
    <glyph glyph-name="o" unicode="o" 
d="M454 739q-51 0 -115.5 -81.5t-88.5 -133.5l-21 -78q-18 -65 -18 -88v-39q8 -6 14 -24.5t15.5 -36.5t21.5 -32.5t35 -14.5q145 64 170 108q12 29 27.5 68t29.5 74q-4 16 9.5 32.5t13.5 30.5v58q0 37 -16.5 76.5t-33.5 60t-43 20.5zM490 973q64 0 102 -17q31 0 40 -24.5
t23 -54.5q62 -62 62 -113l-17 -182q0 -57 -24 -126.5t-56 -105.5t-39.5 -56t-20.5 -58.5t-31 -59.5q-17 -20 -32.5 -40.5t-45 -57t-64.5 -49.5q-31 -16 -51.5 -28.5t-42 -24t-59.5 -11.5q-67 0 -110.5 52.5t-43.5 113.5v137q0 12 -8.5 22.5t-9.5 63.5t30 137t73 165
t84 143.5t64.5 77t38 32t29.5 31.5t29.5 23.5t79.5 9.5z" />
    <glyph glyph-name="p" unicode="p" horiz-adv-x="706" 
d="M535 604q0 18 -33 23q-29 0 -86.5 -47.5t-57.5 -61.5q-29 -59 -46 -107.5t-40 -103.5v-57q0 -16 7.5 -36.5t50.5 -25.5q38 0 137 113q16 10 30.5 25.5t32.5 31.5q12 27 14.5 36t2.5 38l-12 57v115zM-51 -608q0 33 22 112q17 93 31 118t14 38q0 12 3.5 46t3.5 112l22 57
l23 131l6 57q0 8 20.5 50.5t21.5 69.5q1 28 2 52.5t4.5 66t19.5 96.5t24 69l4 115q0 39 -39 39q-16 0 -31.5 -14.5t-36.5 -31.5q-45 -45 -62 -44t-19 4.5t-4.5 7.5t-0.5 10q0 41 27 75t53 72q31 57 74 110.5t122 149t118 191.5q11 4 25 10t25 6q23 0 60 -27.5t37 -52.5
q-42 -105 -86 -204q-8 -11 -55 -85.5t-47 -103.5l18 -28q20 0 62.5 41t89.5 90t92 90t75 41t46 -32t27.5 -79t11.5 -83q0 -35 -9.5 -71t-13.5 -65q-8 -6 -8 -16.5t8 -18.5q-4 -48 -53 -152t-72 -136t-69 -73t-86.5 -66t-67.5 -68q-31 -29 -64.5 -49.5t-80.5 -58.5t-37 -114
v-41q-2 -29 -6.5 -48t-13.5 -57.5t-10 -89.5q-1 -50 -4 -70.5t-8 -33t-9.5 -20.5t-5.5 -22t-1 -42t-4 -71v-45q0 -43 21.5 -50.5t52.5 -7.5h39q31 0 52.5 -27.5t21.5 -58.5q0 -17 -56 -51q-31 0 -62.5 -18.5t-74.5 -14.5h-80q-43 -10 -88 -13t-88 -15q-35 3 -57 -8t-37 -10
q-27 2 -43.5 33.5t-16.5 45.5q5 58 25 58h94q8 6 36 13.5t28 37.5l45 153v19z" />
    <glyph glyph-name="q" unicode="q" 
d="M483 707h-22l-62 -35q-42 0 -83 -60t-76 -151t-35 -131v-80q4 -16 14 -36t20 -19q18 0 120.5 124t129.5 177l35 170q0 14 -5 27.5t-36 13.5zM592 963h57q16 0 90 -74v-23l-16 -114v-17q0 -46 -29 -108q-8 -27 -18 -56.5t-10 -52.5v-16l-17 -137l-16 -103l-6 -57l-19 -35
v-61q-4 -14 -15 -38t-11 -36v-41q0 -7 -25 -111.5t-27 -122.5l-6 -57q0 -25 -9 -68t-13 -102l-13 -96l-10 -64q0 -33 2 -48t3 -24.5t3 -18t2 -30.5t11.5 -30t28 -11.5t36 -7.5t48.5 -22.5t36 -114.5q0 -16 -10.5 -19t-26.5 -3t-42.5 17t-57.5 17q-54 -6 -65 -6h-89
q-12 -2 -28.5 -16t-55.5 -43.5t-79 -32.5h-41l-97 -29h-34q-35 0 -69 22.5t-35 51.5q-2 53 40.5 87t91.5 34h39q52 5 115.5 43t66.5 88v57q0 18 10 54t19 65q3 74 -1 74t-5 -1l6 19q4 29 16.5 47.5t12.5 55.5t16 79t29 85l28 114v23q0 19 24 100.5t24 87.5l4 62q0 6 3 18
t8 33.5t-9 21.5q-15 0 -65 -60t-87 -101t-90 -101.5t-74 -60.5q-60 0 -86 87t-26 159v55q16 31 21 69.5t27 88.5t69 133.5t81 169.5q12 59 64.5 104t66.5 51q12 0 28.5 11.5t29.5 11.5q16 16 73 16q30 10 57.5 34t45.5 24zM295 -474v-1v1z" />
    <glyph glyph-name="r" unicode="r" horiz-adv-x="735" 
d="M694 684q-27 0 -50 -20.5t-46 -42.5q-74 -91 -74 -199q-51 -51 -63 -83t-11 -62.5t-12 -59.5q7 -84 -10.5 -152.5t-28.5 -93.5q-42 -30 -131 -39q-12 0 -41 33l-28 58q-5 35 18 124t23 93q45 68 59 142.5t31 147.5l-17 136q-10 27 -25.5 26.5t-39.5 -5.5t-38.5 -16.5
t-25 -23.5t-22.5 -23.5t-43 -15.5q-16 0 -20.5 20t-8.5 38t6 35.5t27.5 33t40 30.5t41.5 32q25 27 43 58.5t49 77.5t90 52q23 4 30 -6.5t32 -22.5q57 -28 57 -67q-9 -46 0 -74q0 -18 -9.5 -52.5t11 -50.5t27.5 -12q32 6 93 122.5t83 133.5l63 17q12 4 27.5 2t23.5 -2
q39 -23 49.5 -63t13.5 -66t-18.5 -72.5t-54.5 -77.5q-21 -12 -51 -22q-17 0 -30 6t-40 6z" />
    <glyph glyph-name="s" unicode="s" horiz-adv-x="557" 
d="M137 -23q-10 0 -102 -16h-58q-57 0 -57 55q0 14 18.5 45t67.5 82.5t90 51.5q6 0 20.5 -9.5t52.5 -29t70 -19.5q49 0 76 38.5t27 73.5q0 52 -86 188t-86 177v23q27 117 79 167t81 56q22 13 57 62q16 16 29.5 31.5t27.5 19.5q21 18 103 18h45q31 0 55.5 -28.5t24.5 -54.5
t-33 -41t-74 -28.5t-81 -26t-55 -28.5q-32 -35 -32 -82.5t29 -93.5q14 -29 61.5 -105.5t47.5 -234.5q0 -55 -37 -111.5t-95 -99.5q-45 -25 -69.5 -40t-50 -27.5t-72.5 -12.5h-74z" />
    <glyph glyph-name="t" unicode="t" horiz-adv-x="512" 
d="M512 752l-39 6h-41q-12 0 -34.5 -12.5t-22.5 -38.5t-10 -86q-7 -11 -15 -27t-8 -31v-22q0 -35 -10 -76t-20 -50t-15.5 -18.5t-5.5 -48.5v-41q0 -57 28.5 -76.5t57.5 -19.5t55 29q20 0 35 -20q16 -20 22 -38q0 -32 -31.5 -76.5t-52 -63.5t-35 -19t-27.5 -24t-13 -34
l-97 -22q-27 0 -42 3t-15 19q-22 15 -48 95.5t-26 93.5v96q0 10 17.5 100t17.5 133v35l62 176v64q0 27 -17 33q-12 10 -26.5 20.5t-14.5 24.5q0 21 34.5 58t47.5 62q12 25 25.5 32t30.5 20q27 31 57.5 51t51.5 56t29.5 64.5t37.5 45.5q27 8 47.5 31.5t35.5 23.5
q44 0 71.5 -9t27.5 -46q0 -12 -28.5 -46t-91 -107.5t-62.5 -102.5q0 -41 75 -41h68q22 22 39 22q57 0 57 -80v-55q0 -63 -182 -63z" />
    <glyph glyph-name="u" unicode="u" horiz-adv-x="933" 
d="M221 554q0 44 2 55.5t-18 11.5t-68 -17q-35 -22 -52 -22t-31.5 15t-14.5 40t12 38t29.5 22.5t34 18.5t22.5 23q27 20 125 122t154 102h39q18 0 26 -20.5t8 -37.5q-131 -457 -131 -502q0 -14 -5 -46.5t3.5 -81t98.5 9.5q4 10 26.5 26.5t43.5 36.5t25.5 37.5t12.5 17.5
q0 16 14.5 31t16.5 28t20.5 52t38.5 86q92 216 92 297.5t97 81.5h47q25 0 40 -24.5t15 -42.5q0 -25 -16.5 -119.5t-38.5 -159.5q-43 -92 -84 -183.5t-41 -177.5q0 -16 16 -32q56 0 107 51t63 51t35 -35q0 -24 -68.5 -114.5t-74.5 -96.5q-63 -44 -83 -67t-36 -45
q-47 -47 -115 -47q-28 0 -50.5 30.5t-22.5 55.5v57q34 106 34 138t-20 32t-50 -35t-44.5 -53.5t-22.5 -24.5q-58 -77 -138.5 -141t-93.5 -64q-24 0 -46.5 37t-22.5 54v57l6 86l10 84q0 32 19 98l16 78q4 14 21.5 49t17.5 79z" />
    <glyph glyph-name="v" unicode="v" horiz-adv-x="815" 
d="M318 985q52 0 52.5 -67.5t4.5 -79.5l35 -99q8 -35 17 -58.5t21.5 -59.5t12.5 -86l12 -91q0 -43 7 -63t12.5 -41t14.5 -21t19.5 20.5t20.5 25.5q12 12 34.5 28.5t22.5 40.5t22.5 50t22.5 40l-6 113q0 23 -30.5 60.5t-30.5 62.5q0 38 23 58t33 58q10 37 36 61t65 54
q31 -14 38 -27.5t39 -53.5t32 -107v-80l6 -51q0 -71 -45 -148q0 -16 -9 -22t-9 -23q-39 -46 -39 -60q0 -15 -29 -47t-29 -59q-23 -29 -40 -47t-33.5 -35.5t-35.5 -37t-43 -50.5t-43.5 -66.5t-53.5 -84.5t-103 -49q-14 0 -24.5 4t-10.5 30l17 97q-17 38 -17 73l6 138
q0 42 -14 85.5t-14 73.5l-64 222q0 27 -30.5 42t-52.5 15t-30 -4t-15 -10.5t-18.5 -10.5t-32.5 -4t-36 23q0 27 19.5 53.5t37.5 26.5q29 27 56.5 52t62.5 40q35 47 74.5 71.5t61.5 24.5z" />
    <glyph glyph-name="w" unicode="w" horiz-adv-x="1228" 
d="M811 400.5q0 -27.5 7 -74.5t34 -47q49 0 110 66.5t72 112.5q21 92 16 131t-49 111q-8 16 -37.5 27.5t-49.5 11.5q-36 0 -74.5 -35.5t-43.5 -65.5q-8 -44 5.5 -98.5t13.5 -95.5q-4 -16 -4 -43.5zM205 426q-10 141 -23 166v57q0 51 -67 51q-16 0 -35 -17t-48 -17t-44 22
q0 27 20.5 51.5t36.5 24.5q31 29 49.5 47t46.5 31q41 55 96.5 93t69.5 38q69 0 66.5 -81t-2.5 -95v-58l16 -118q0 -39 3 -64t20 -51q5 -18 0.5 -49t-1.5 -39t25 -8t32.5 13t56.5 71t59 92q6 31 6 48t-3.5 41.5t1.5 47.5v6q0 26 -4 28.5t-10.5 3.5t-18.5 7h-29q-25 0 -32 22
q-12 36 28.5 58t71.5 22q24 30 49 35.5t37 12.5q12 16 41 30.5t55 14.5q39 -10 38 -38t-15 -71v-23q0 -40 18 -40q14 2 46 28.5t98.5 81.5t98.5 55q57 0 114.5 -33.5t80.5 -80.5q41 -60 23 -148l-70 -205q-8 -35 -37.5 -65.5t-71.5 -92.5t-112 -136q-18 -23 -30.5 -33
t-35.5 -30t-41 -44q-33 -44 -104 -97.5t-125.5 -28t-47.5 59.5t7 68l13 35q-4 43 -12.5 77t0.5 79t2 75.5t-19 30.5q-35 0 -67.5 -44t-63.5 -87q-16 -27 -16.5 -43t-18.5 -43q-16 -35 -33.5 -55.5t-21.5 -46.5q-10 -14 -19.5 -32t-26.5 -41.5t-42 -23.5q-46 0 -75 18t-26 46
q12 45 19.5 77t5.5 82t-9.5 85.5t1.5 78.5z" />
    <glyph glyph-name="x" unicode="x" horiz-adv-x="1048" 
d="M219 711q-17 0 -33 16t-16 48q0 67 51.5 124t115.5 57t124 -34q31 0 60.5 -17.5t41.5 -34.5q31 -25 44.5 -39t13.5 -40q12 -29 28.5 -54.5t44.5 -25.5q12 0 17.5 22.5t23.5 34.5q25 43 50.5 87t84.5 73q27 27 38.5 36t53.5 9t97 -29q35 -41 57.5 -75.5t22.5 -70.5
t-20.5 -52.5t-37.5 -34.5q-8 -20 -11 -34.5t-9 -27t-36 -12.5t-46 14.5t-43 46t-52 31.5q-43 0 -87.5 -46.5t-44.5 -78.5q0 -31 17 -54.5t17 -47.5v-58l11 -96q0 -34 17 -49.5t28.5 -25t20.5 -31.5t24 -40t43 -28t46.5 -12t45.5 -8.5t27 -53.5q0 -46 -28 -84.5t-87 -38.5
q-12 0 -17.5 -6t-23.5 -6l-55 12q-49 0 -76 27t-42 48.5t-36 43.5q-14 10 -27.5 16.5t-13.5 41.5q-8 12 -15 20t-15.5 19.5t-8.5 38.5q0 26 -7 47.5t-12 21.5q-12 0 -39.5 -31.5t-27.5 -42.5q-16 -39 -16 -57.5t-24.5 -38t-50.5 -56.5q-67 -98 -216 -98q-18 -12 -41 -12
q-24 12 -39 12q-43 0 -69.5 35.5t-26.5 69.5t3 46.5t9 22t16.5 17.5t30.5 28t30 46t36 26t41.5 -15t46 -49t68.5 -34t59.5 36t27.5 44q43 27 79 75t36 107v86q0 29 3 51.5t-25 38.5q-16 20 -27.5 35.5t-25 29t-49.5 35.5q-36 21 -55.5 24t-53.5 3q-6 8 -9 5l-22 -16
q-18 -13 -35 -13z" />
    <glyph glyph-name="y" unicode="y" horiz-adv-x="921" 
d="M381 291v16q0 69 -47.5 154t-122.5 137q-16 16 -21.5 8t-19.5 -8h-61l-35 -16q-16 0 -39 13t-23 42q0 14 83.5 106t95.5 107q35 39 86 39t71.5 -27.5t50.5 -70.5q51 -103 80 -193q6 -35 14.5 -58.5t19.5 -56t6 -63.5q-8 -46 14.5 -84.5t41.5 -38.5q20 0 42 60.5t32 94
t17 50.5q16 23 28.5 42t30.5 45.5t61 65.5q20 29 36 97q16 69 38 96q16 31 32.5 55.5t52.5 24.5t55.5 -24.5t19.5 -55.5l-25 -137v-33q0 -137 -112 -137q-23 0 -23 -23q-40 -40 -57 -89.5t-26 -76t-25 -51.5q-12 -12 -23.5 -27.5t-11.5 -46.5q-12 -20 -29 -51t-22 -39
q-8 -25 -16.5 -38t-17.5 -27.5t-19.5 -30.5t-19.5 -43t-22.5 -49t-23.5 -58l-17 -45q-10 -16 -14 -25t-27 -32q-57 -72 -57 -90q-33 -82 -119 -178q-39 -51 -70.5 -96.5t-60.5 -61.5q-143 -86 -227 -178q-38 -11 -172 -90h-23l-73 -23h-62q-10 0 -35.5 11.5t-40.5 11.5
l-79 -23q-25 0 -44.5 15.5t-46.5 42.5q-16 0 -41.5 14t-37.5 31q0 4 -3.5 18t-8.5 45t-5 54q0 24 18.5 50.5t60.5 60.5t81.5 34t118.5 -41q39 -16 70.5 -33.5t54.5 -17.5l67 -11q22 15 72.5 23t75 15t47.5 30q82 23 170 115q39 33 69 96q68 68 97 137q71 71 92.5 145
t21.5 105v80q17 86 17 98t-8.5 19.5t-8.5 35.5v17q-18 18 -18 41z" />
    <glyph glyph-name="z" unicode="z" horiz-adv-x="1132" 
d="M96 557q-22 0 -22 41v23q0 53 42 115.5t105.5 116.5t136 90t131.5 36h64q10 0 69 -48t72 -48q13 -13 41 -13t39 -16q10 0 22.5 -4t28.5 -8q34 -23 58 -23t90 23q23 4 43 8t55 4t43 -24.5t8 -71.5v-41q0 -43 -30.5 -63.5t-74.5 -34.5t-91 -19.5t-88 -17.5
q-16 -10 -28.5 -24.5t-38.5 -42t-60 -36.5q-34 -24 -82 -74t-94 -75q0 -10 -23 -21t-23 -24q0 -26 115 -85t131 -59q14 -14 74 0q45 0 71.5 20.5t48 45t45 45t57.5 20.5t51.5 -7t17.5 -54q-29 -181 -64 -199q-47 -35 -93 -52t-105 -34h-64l-51 6q-24 -6 -27 -6h-24
q-211 164 -342 205h-45q-39 0 -68 -21.5t-42 -31.5t-44 -10t-55.5 25.5t-24.5 58.5t7.5 64.5t50.5 74.5q38 22 51 22h112q43 35 84 48.5t70 25.5q47 47 94 85t94 85q14 31 36 49.5t22 33.5q0 28 -28 41t-52 13h-17q-12 4 -29 14q-17 9 -37 9q-19 0 -122 22q-47 0 -79 -28.5
t-61.5 -62.5t-64.5 -62.5t-86 -28.5z" />
    <glyph glyph-name="braceleft" unicode="{" horiz-adv-x="716" 
d="M477 1098q0 -2 2.5 -9t-0.5 -53v-205q0 -31 -20.5 -64t-20.5 -57t17.5 -64t16.5 -114q-2 -74 -2 -104v-38t4 -30q3 -23 9 -213v-124l6 -125q0 -53 71 -113.5t94.5 -84.5t4.5 -30q-29 -43 -70.5 -43t-76.5 25q-51 14 -89 22.5t-85 24t-98 74.5q-16 29 -31.5 45t-5.5 43
t17.5 43t13.5 16h51q34 14 34 24l-18 328q2 20 2 22v7l4 51l-6 137q0 31 -12.5 67t-38.5 36l-51 -10q-103 0 -103 39q0 25 16.5 44t38 37.5t44 37t32.5 40.5q31 45 46.5 65.5t24.5 39t9 116.5l6 74q9 39 13 113q8 141 -41 149q-27 16 -36 17.5t-22 5.5q-23 14 -35 35.5
t3 44.5q10 39 27.5 53t38 22.5t43 17.5t44.5 38q33 18 69 40.5t97 55t123 19.5q47 -21 9 -81.5t-48 -78.5q-3 -17 -28.5 -41t-36.5 -54q-10 -30 -14.5 -53.5t-16.5 -62.5v-80q8 -29 7 -38t-13 -36q0 -8 -8.5 -20.5t-9.5 -26.5t-1 -16z" />
    <glyph glyph-name="bar" unicode="|" horiz-adv-x="598" 
d="M182 -301q-15 0 -40 28t-4.5 54t41 49.5t20.5 44.5v580l-1 15l-3 99l4 97v757q0 43 -17 68q-16 14 -41.5 34.5t-25.5 46.5t13 38t30.5 14t36.5 0t43 -2t48.5 2t55.5 -6q29 0 62.5 8t50.5 8q28 0 28 -35t-11 -50t-25.5 -29.5t-25.5 -26.5t-11 -31v-1063l6 -348l-4 -45
q-2 -18 -2 -22v-35q12 -94 31.5 -112.5t33.5 -34t31 -64.5q0 -39 -23 -39h-67q-14 0 -58 16q-34 0 -102 -16h-74z" />
    <glyph glyph-name="braceright" unicode="}" horiz-adv-x="716" 
d="M313 670q0 18 -10 30.5t-35 40.5t-41 90l6 113q-4 59 0.5 106.5t2.5 68.5t-10.5 31.5t-8.5 27.5q-14 23 -15 29.5t9 33.5v86q-10 39 -14 62.5t-15 62.5q-16 29 -39.5 43t-27.5 37q-10 20 -25.5 45t-25 48.5t-9.5 42t19 28.5q84 18 170 -38t121 -75q20 -31 43.5 -40
t44 -16t38 -19.5t31.5 -55.5t-33 -86q-14 -4 -21 -5t-12 -3t-11.5 -3t-24.5 -8t-28.5 -40t-6.5 -107t18 -106v-183q0 -53 1.5 -64t8.5 -11t22.5 -5.5t43.5 -50.5q15 -17 62 -35t63.5 -31.5t16.5 -30.5q0 -34 -31 -71t-38 -37l-91 17q-27 0 -39 -36t-12 -67l-7 -137l13 -84
l-13 -200q0 -68 10.5 -93.5t18.5 -42.5q25 -16 37 -20t20.5 -9.5t18.5 -30.5t9 -37.5t-6 -22t-14.5 -18.5t-17.5 -21q-61 -33 -93 -50.5t-66 -35t-115 -39.5q-35 -27 -77 -24t-71 46q-18 4 5.5 26.5t94 83.5t70.5 111l6 125v125q2 63 -1 109.5t-4.5 104.5t18.5 118
q0 32 33.5 105.5t33.5 91.5z" />
    <glyph glyph-name="asciitilde" unicode="~" horiz-adv-x="1394" 
d="M1133 707q0 12 -5.5 17t-5.5 38t29 56.5t71 23.5t83 -33q48 -31 61 -57q18 -13 18 -76q0 -137 -79 -197q-14 -18 -26.5 -39.5t-25.5 -36.5q-53 -35 -129 -65.5t-142 -30.5t-115.5 15.5t-95.5 37t-91 44t-94 34.5q-25 0 -49.5 8.5t-68.5 8.5q-116 0 -196 -80
q-12 -6 -28.5 -28.5t-38.5 -22.5h-51v34q0 33 8 55.5t8 65.5q0 91 86 142q29 0 45 16q27 14 43 32.5t43 18.5q84 0 131 -16q35 0 51 -17q27 0 51.5 -11t51.5 -23q35 -23 81 -54.5t85 -48.5q47 -12 103 -12t77.5 1t33.5 10t20.5 22.5t13 28t8.5 28.5t10 25q29 25 29 86z" />
    <glyph glyph-name="exclamdown" unicode="&#xa1;" horiz-adv-x="512" 
d="M402 1167q13 0 23.5 -8t18 -22.5t16 -30.5t26.5 -38t44.5 -53.5t26.5 -58.5q-4 -23 -27.5 -48t-39.5 -51t-32 -43t-40 -17t-33.5 16t-26.5 29q-31 19 -51 47q-16 29 -24.5 34t-40.5 25t-31 48q0 28 16.5 33t28.5 19.5t20.5 23.5t17.5 19t33 22q23 13 29 20.5t12.5 15.5
t13.5 13t20 5zM432 -219v-8q0 -34 -15.5 -51t-29.5 -30.5t-40 -47.5t-60.5 -70.5t-90.5 -97t-100 -164.5q-38 -19 -52 -19q-24 0 -62.5 30t-38.5 56q10 25 18 49t17.5 47t15.5 46q11 8 26 55.5t15 81.5q48 92 61 172q0 39 15.5 98.5t22.5 97.5t19.5 69.5t16.5 64.5t7 50
t5 26.5t5 17.5t7 28t6.5 36t5.5 32.5t7 34.5t8 47q6 6 6 29q4 16 -8 25.5t-10 23.5t27 40q37 38 80.5 48.5t82.5 -6.5q-4 -8 -4 -12l1 -36q1 -34 -3 -38l-35 -279l-16 -211l-12 -182q0 -12 -2 -23.5t2 -21.5h28q16 16 33 13t31 -7q10 -6 10 -14z" />
    <glyph glyph-name="cent" unicode="&#xa2;" horiz-adv-x="722" 
d="M297 307q68 212 68 228q17 25 41.5 145.5t54.5 157.5q-84 -24 -103 -41q-12 0 -15 -8.5t-7 -24.5l-29 -41q-6 -23 -14 -51t-8 -45l-17 -92q-2 -8 -8.5 -22t-8.5 -27q-4 -38 9.5 -103t36.5 -76zM420 350.5q0 -16.5 -4 -26.5q55 27 106 53t86 26q31 -4 35 -16t1 -33
q-6 -43 -56 -82.5t-127 -89.5q-29 -16 -56.5 -32.5t-56.5 -30.5q-4 -8 -6 -10.5t-10 -34.5t-29.5 -82.5t-34.5 -116.5q-31 -23 -59.5 -28t-38.5 -1l6 17q4 43 5 75.5t18 49.5q4 23 13 46t9 40l6 12h-39q-44 6 -68 79.5t-24 135.5v12q4 12 -3 65t-7 83q8 55 18.5 89t14.5 77
l18 51l4 33q0 18 32 103t38 104q0 21 45.5 61.5t73.5 40.5q20 6 20 13t21 16q39 4 75.5 11t71.5 11q0 27 26 96t25 154q17 4 57.5 30.5t57.5 32.5q13 0 27 -28q10 -35 5 -51.5t-5 -47.5q-12 -29 -20.5 -49t-11.5 -38q-5 -27 -12.5 -56.5t-17.5 -26.5q0 -10 -4 -14t-8 -14
q43 -8 74.5 -39t29.5 -81t-35.5 -89t-62.5 -35q-28 0 -61 39h-7q-12 -33 -40.5 -128t-45.5 -118q13 -32 -27 -128.5t-46 -104.5q4 -8 4 -24.5z" />
    <glyph glyph-name="sterling" unicode="&#xa3;" horiz-adv-x="1144" 
d="M752 752q35 -7 61 -7t53 -6q16 -16 32.5 -34.5t6.5 -26.5q-3 -8 -43 -50.5t-47 -64.5l-207 19h-119v-86q0 -4 6.5 -16.5t10.5 -12.5v-57l-4 -29v-33l-13 -35q0 -125 74 -125q18 0 70 11l78 6q60 6 127 54t102 83q23 12 38 28.5t42 16.5q45 0 45 -48t-56 -163.5
t-120 -169.5q-14 -10 -29.5 -12t-23.5 -7t-29 -6t-47.5 -2.5t-31.5 -1.5h-40q-8 0 -22 7q-29 0 -58.5 11t-77.5 11l-47 6q-87 -6 -91 -6h-34q-55 0 -104 -12t-98 -12q-82 0 -82 53q0 39 18 57q19 19 96 57t84 68q-4 28 -4 31v104l4 29v98l19 84q-27 6 -51 -6q-23 2 -44 2
t-87 -24q0 14 -13.5 22.5t-11.5 18.5q4 17 35.5 53.5t56.5 54.5q34 10 131 10q8 39 13.5 76t19 118.5t68.5 170t81 147.5q43 72 80 92q29 43 79 70t97 27h154q92 0 92 -115v-45q0 -53 -63 -119.5t-109 -66.5q-25 0 -43 8t-38 8q-44 0 -89.5 -32.5t-56.5 -76.5
q-16 -23 -15 -37t-14 -36q-12 -31 -29.5 -74t-21.5 -86h51q0 14 39.5 14t57.5 -1t39.5 7.5t52.5 8.5z" />
    <glyph glyph-name="currency" unicode="&#xa4;" horiz-adv-x="1161" 
d="M176 547q-35 0 -59.5 3t-59.5 -9q8 12 -7 19t-15 22q4 12 32.5 35.5t57.5 48.5q26 0 41 6l16 57l23 23v34q34 56 66 90.5t42 45.5q19 89 151 141.5t185 75.5q33 4 73 10t69 6h143l86 23q73 0 83.5 -32t8.5 -52.5t-2 -34.5v-39q-10 -23 -17.5 -45.5t-25 -52t-76.5 -29.5
q-20 0 -88 40t-112 40q-150 0 -251.5 -73t-123.5 -193h67q16 4 42 9t50 13q17 17 60 14.5t53 -4.5q20 4 30.5 14.5t45.5 10.5h16l48 2q32 0 49 -2q16 -23 35.5 -34t17.5 -20q-3 -13 -45.5 -50.5t-46.5 -55.5q-47 -4 -87 -4t-114 4l-221 -29v-92l51 6l96 7q27 -4 56.5 6
t64.5 -6q37 31 119 22q-6 -12 -6 -14v-19q0 -17 -27.5 -57t-69.5 -57h-12l-84 3q-72 3 -92 2t-40.5 -2t-33.5 -3q41 -133 129 -171t144 -40l53 16q68 0 107 20t69 42q39 29 50 45.5t34 29.5q39 16 80 17q29 -19 29 -39q0 -43 -38 -96.5t-92.5 -99.5t-113 -76.5t-98.5 -30.5
h-27q-157 -23 -176 -23q-39 0 -147.5 48t-127.5 77q-21 13 -64.5 109.5t-43.5 136.5l-23 12q-48 -7 -131 10l-28 13q0 12 10 35.5t35 37.5q35 8 55 13.5t43 9.5q0 14 10 35v45z" />
    <glyph glyph-name="yen" unicode="&#xa5;" horiz-adv-x="1308" 
d="M1036.5 676q10.5 0 20 1.5t37.5 -5.5q39 -39 34 -54t-39 -43.5t-40 -44.5l-179 11h-22q-23 -101 -23 -119v-12h17q20 -4 46.5 5t55.5 -12q23 10 47.5 17.5t67.5 -4.5q-11 -22 -15 -27q-4 -6 -19 -49t-75 -61q-16 4 -44.5 6t-63.5 12h-27v-6q0 -68 12.5 -102.5t20.5 -34.5
q14 -6 59 -14.5t130 -26t85 -56.5q0 -34 -22 -34q-10 -8 -10 -14.5t2 -15.5t-11 -22q-16 0 -38.5 -8t-51.5 -8l-102 -12h-137q-63 0 -97 18h-92q-35 0 -51 -9t-51 -9h-35q-37 0 -64.5 -2t-58.5 2.5t-31 56.5q0 29 33 54.5t76 25.5l102 35q29 0 60 24t20 56l-10 90l-65 -7
q-66 -6 -99 -1.5t-76 8.5l-28 12q2 6 12.5 39t38.5 39q143 28 205 28v19q0 19 12 67q0 14 10 35l-74 -6q-28 3 -28 -12q-43 4 -72 5t-70 -15q0 8 -9 17t-9 22q2 2 18 29t52 57q82 0 147 6q-16 16 -36.5 30.5t-37.5 36.5q-14 31 -54 57.5t-83 57.5q-12 29 -36.5 59.5
t-37.5 59.5q-12 10 -26 14t-31 14q-39 10 -80 17q-73 29 -73 102q0 35 15 57.5t58 22.5h99q29 0 55 -11t41 -11h96l131 -11h45q14 0 16.5 -3t2.5 -19.5t-38 -59t-38 -77.5q0 -51 149 -211q0 -8 13 -41t27 -33q13 0 27.5 20.5t27 47t22.5 50t19 29.5q0 12 39.5 73t39.5 80
t-16 27.5t-51 29.5t-35 65q0 20 36 26.5t44 6.5q33 -11 57 -11h39q43 11 97 11q70 0 90.5 11t39.5 11q28 0 74.5 -12.5t46.5 -20.5q0 -47 -26.5 -74.5t-69.5 -27.5h-63q-67 0 -75.5 -47t-15.5 -68q-10 -12 -18 -24.5t-23 -20.5q-8 -14 -19 -26.5t-22 -26.5t-30 -56t-41 -85
l29 -11q20 8 42 17.5t44 6.5t32.5 -3z" />
    <glyph glyph-name="brokenbar" unicode="&#xa6;" horiz-adv-x="454" 
d="M301 479q15 -52 -4 -108q13 -13 7.5 -38.5t-8.5 -38.5t1 -22l4 -61q0 -43 8 -76t4 -55q0 -66 -9 -124t-19 -126q-10 -23 -41 -41t-45 -29v23q-12 39 -22.5 72.5t-6.5 58.5q-4 16 3 43t3 49q4 43 -3 77t-3 58q16 38 0 95t-16 100q14 58 56 91.5t56.5 38.5t21.5 8t13 5z
M292 1107.5q-1 -13.5 -3 -25.5q-9 -55 12 -97q-16 -48 -14 -94.5t3 -72.5t-5 -46q-10 -34 -42.5 -76t-43.5 -53q-12 -8 -21.5 1t-17.5 -1q7 39 -1 90.5t1 91.5q0 162 -6 285q-12 66 -21.5 118t-13.5 99q29 14 57.5 55t34.5 48q23 8 61 -13q18 -25 16.5 -44t8.5 -52
q4 -31 -2 -53.5t-10 -48.5q12 -16 18 -46t-6 -40q-4 -12 -5 -25.5z" />
    <glyph glyph-name="section" unicode="&#xa7;" horiz-adv-x="1126" 
d="M675.5 280.5q52.5 47.5 59.5 90.5q0 62 -75.5 122t-96.5 76q-51 -10 -98 -35.5t-62 -54.5l-10 -63q0 -29 33 -51l92 -97q12 -16 19.5 -25.5t46.5 -9.5t91.5 47.5zM438 688q-141 120 -141 280q0 68 48 135.5t114.5 115t138.5 72t119 24.5l47 -6l55 6q117 -25 172.5 -60.5
t64.5 -49t9 -15.5v-45q0 -103 -96 -103q-37 0 -51.5 22.5t-31 50.5t-50 51.5t-79.5 23.5q-82 0 -163.5 -53.5t-81.5 -133.5t54.5 -134t140.5 -105q2 -20 31.5 -41t95 -62t65.5 -92l23 -39q0 -18 6 -25t6 -27t-6 -50.5t-10 -52.5l-7 -45q-11 -42 -79.5 -107.5t-143.5 -103.5
q4 -4 18.5 -28.5t28.5 -33.5l74 -96q4 -4 21.5 -55.5t17.5 -105.5t-28.5 -97t-90 -94.5t-172.5 -97.5t-131 -46h-125q-218 0 -285 67t-67 126q0 34 50.5 77.5t90.5 43.5q41 0 47 -5t17 -42t38 -64.5t53.5 -39t51.5 -14.5t39 -13l63 6l39 -6q46 0 74 28l45 35q0 16 17.5 39
t17.5 57v74q-45 88 -54.5 99.5t-18.5 21.5t-23 33q-8 8 -34 25.5t-89.5 66t-126 136.5t-58.5 200q11 72 71.5 145t178.5 127z" />
    <glyph glyph-name="dieresis" unicode="&#xa8;" horiz-adv-x="1218" 
d="M1005 1651q14 0 25.5 -12.5t20 -30t16.5 -37t20 -35.5t29 -26.5t39.5 -29.5t22.5 -44q0 -36 -41.5 -65.5t-55.5 -49.5q-12 -23 -26.5 -40t-41 -17t-36.5 16t-33 29q-16 14 -33.5 19t-33.5 28q-16 29 -24.5 40t-30.5 24t-38 17.5t-16 23.5t16.5 25.5t42.5 33.5t77 55
q50 28 56.5 37.5t12.5 17.5t12 14.5t20 6.5zM476 1622q22 0 31 -28.5t22 -52.5t28.5 -43t39.5 -51.5t24 -80.5q0 -19 -25 -31t-39.5 -18.5t-26.5 -18.5t-19 -25t-17 -28.5t-36 -15.5q-38 0 -71.5 43t-52.5 54q-27 15 -64 64.5t-36 66.5q1 18 15.5 33t34 24.5t44 15.5
t42.5 12t30 19.5t22 27t21 23.5t33 10z" />
    <glyph glyph-name="copyright" unicode="&#xa9;" horiz-adv-x="1486" 
d="M944 854v-23q-8 -31 -27.5 -55t-44.5 -24t-45 17t-49 17q-53 0 -97 -61t-44 -98v-92q0 -50 16.5 -106t35 -86t46.5 -30q0 -7 9.5 -8.5t19.5 2.5q70 0 125 45q11 19 67 29q12 4 18.5 -1t16.5 -9q0 -23 -12 -35q-24 -45 -83.5 -96.5t-92.5 -51.5l-29 -12q-18 -2 -34 -4
t-19 -2h-27q-35 0 -84 40.5t-81.5 107.5t-32.5 92l-7 34l-4 16t-2 10v19l6 74v29l-6 35l6 39l7 22q35 70 51 86q9 58 77 92.5t93 51.5q14 2 36 6t29 4t27 -10h45l45 10q45 0 45 -74zM739 1094q-40 0 -176 22q-80 0 -152.5 -90t-99 -139t-26.5 -68l-13 -198l13 -177
q0 -43 36.5 -119.5t104.5 -154.5q59 -63 134 -108.5t134 -45.5h121q53 0 118.5 30t164 116t98.5 225q4 14 14 36t9 38l-23 223q0 80 -36 124t-67.5 81t-68.5 102q-81 63 -144 83t-94 20h-47zM882 -80l-143 12h-131q-38 0 -96 23q-30 8 -62 23t-108.5 50t-114.5 119
q-47 117 -86 237t-39 198t18.5 125t26.5 79q0 48 41 125q0 22 72 116.5t115 94.5l69 39q62 0 97 17q45 29 92 28h153l80 -16h39q100 -32 131 -57q29 -16 74 -28.5t74 -45.5q10 -8 33.5 -48.5t35.5 -54.5q80 -66 102.5 -126t22.5 -107l-6 -148v-69q0 -61 -69.5 -191.5
t-77.5 -144.5q-14 -47 -52 -77t-73 -42q-66 -51 -118 -91t-100 -40z" />
    <glyph glyph-name="ordfeminine" unicode="&#xaa;" horiz-adv-x="780" 
d="M268 -6q-22 0 -40.5 -11.5t-28.5 -11.5q-23 -8 -30 -5l-95 22q23 80 41 92q51 12 96 30.5t96 14.5q16 10 42 9t54 3h52q8 0 18 4t27.5 10t34.5 -14q41 36 79 23q-6 -20 -6 -35q-4 -6 -26 -54.5t-70 -64.5h-68q-44 13 -79 0q-16 -14 -45.5 -13t-51.5 1zM313 734
q0 -11 -2 -35.5t0 -50t12.5 -46t43 -20.5t98 125.5t65.5 141.5q0 15 1 43t-8 71t-62 6q-90 -68 -119 -146t-29 -89zM752 1081q0 -6 -5.5 -28.5t-15 -68.5t-24.5 -85q0 -31 -19 -68q-12 -12 -11 -36.5t1 -36.5l-6 -92v-62q0 -74 35 -74l22 33q25 25 47 42t39 32
q8 0 19.5 -10.5t-0.5 -23.5q-11 -13 -19 -37q-12 -36 -74.5 -85.5t-91.5 -93.5l-41 -45q0 -34 -28.5 -43t-44.5 25q-20 52 -15.5 79t10 44.5t5.5 41.5v68l6 35q1 8 -9 8t-15 -1q-8 -2 -77.5 -106.5t-85.5 -121.5q-76 -80 -105 -80q-46 0 -64.5 49t-18.5 92l-12 121l28 205
q0 9 19.5 66.5t44.5 80.5q62 57 96 115q33 45 70 58.5t59.5 19.5t46.5 18q22 0 57 35h74l39 10q64 0 64 -80z" />
    <glyph glyph-name="guillemotleft" unicode="&#xab;" horiz-adv-x="802" 
d="M700 371l30 -13q24 0 39 -12q30 -24 22 -78q-12 -53 -51.5 -83.5t-78.5 -30.5t-49 10t-30 24q-18 8 -43 19.5t-37 83.5q-19 30 -19 57q4 20 -3 34.5t-7 27t-5 21.5t-1 26t8 31t8 31q23 96 41 118q10 24 34 50t34 42q24 27 39.5 34t25 11t23.5 14t23.5 18.5t24.5 12.5
t24.5 6t35.5 10t30.5 10.5t19.5 2.5q51 0 51 -39q0 -16 -7.5 -30.5t-15.5 -14.5q-6 -6 -24 -8t-23.5 -4t-55.5 -16t-79 -42q-63 -38 -75.5 -115.5t-6.5 -102.5t26 -68t56 -43zM330 342q10 0 20 -12.5t24 -20.5t18.5 -18t0.5 -41q-14 -51 -37.5 -73.5t-62.5 -22.5t-70.5 19
t-61.5 33.5t-42 84.5q-17 34 -15 58t-7 53.5t-1 48.5q4 23 9.5 37t9.5 31t5 27.5t12 44.5t22 46q12 27 30 44t37 48q30 34 44 41.5t28 17.5t23.5 18.5t24.5 12.5t24 6t35 10t31 10.5t20 2.5q51 0 51 -39q0 -16 -7.5 -30.5t-15.5 -14.5q-5 -6 -23 -8t-24 -4t-28 -8t-35 -19.5
t-39 -36.5q-66 -43 -80.5 -156t28 -151.5t52.5 -38.5z" />
    <glyph glyph-name="logicalnot" unicode="&#xac;" horiz-adv-x="1429" 
d="M1325 625q0 -7 3 -27t2 -59t-2 -79t-2 -73t1 -45q-19 -91 -35 -96.5t-22 -5.5q-27 -19 -45 -19q-4 59 -7.5 95t7.5 71q-8 25 -8 53.5t3 58t6 54.5t-1 39v131l-19 -6q-12 2 -112 -1t-150 7h-79q-79 0 -136 -6q-35 -8 -89 -5t-122 -1q-24 4 -86 4t-90 8q-123 -46 -240 -39
q-22 15 -22 33q4 6 14 22.5t37.5 46.5t50.5 39q98 8 204 2t168 -4t117.5 -2t114.5 4l170 -6q14 -2 91.5 7t113.5 -1h92q20 23 49 24t25 -30l-1 -29z" />
    <glyph glyph-name="uni00AD" unicode="&#xad;" horiz-adv-x="659" 
d="M233 336q-16 3 -16 -12q-18 -4 -48.5 -10t-66.5 -29q4 12 -3 16.5t-5 20.5t19 55t37 56q26 22 79 37.5t84 35.5q34 0 59 12.5t50 22.5q4 16 26.5 18t34.5 -2q23 10 38 22.5t39 14.5t37 7t36 -3q33 -44 32 -54t-28.5 -51.5t-32.5 -70.5q-31 -10 -68.5 -9t-90.5 -13
t-106.5 -31t-105.5 -33z" />
    <glyph glyph-name="registered" unicode="&#xae;" horiz-adv-x="1480" 
d="M684 764v-98q0 -4 -6 -11.5t-6 -17.5q2 0 6 -2q6 -6 4 -13q-6 -20 16 -39.5t41 -19.5q14 6 25 15q10 4 19.5 9t13.5 5l18 -10q37 0 50.5 41t17.5 43l-13 41q0 17 -10 32q0 35 -12 47l-109 23q-14 0 -32 -12q-23 0 -23 -33zM739 1094q-40 0 -176 22q-80 0 -152.5 -90
t-99 -139t-26.5 -68l-13 -198l13 -177q0 -43 36.5 -119.5t104.5 -154.5q59 -63 134 -108.5t134 -45.5h121q78 0 168.5 53.5t149.5 141.5q-23 -4 -48.5 -4t-25.5 4q-8 4 -24.5 3t-20.5 7q-35 14 -49.5 26.5t-35.5 22.5t-68 66q-48 57 -62.5 88t-34.5 43q-14 12 -22.5 23.5
t-24.5 11.5q-33 0 -33 -14v-66l10 -57v-23q0 -33 17.5 -48t39 -24.5t40 -17.5t18.5 -28t-23 -19h-47l-67 6h-154q-42 0 -75 17.5t-33 28.5t22 28q6 0 41 -13h16q23 0 40.5 12.5t17.5 28.5v324l10 86q-4 14 -6.5 53.5t-38.5 48.5h-51q-23 0 -48.5 14.5t-25.5 49.5q0 9 35 22
l205 11h69q68 0 113 6h45q46 0 86 -58q6 -23 33 -39q24 -24 35.5 -66t11.5 -67t-57 -135q-10 -12 -27.5 -17.5t-17.5 -25.5q0 -35 26 -86.5t41 -58.5q27 -20 53.5 -57.5t70.5 -43.5t52 -18q35 77 35 131q4 14 14 36t9 38l-23 223q0 80 -36 124t-67.5 81t-68.5 102
q-81 63 -144 83t-94 20h-47zM882 -80l-143 12h-131q-38 0 -96 23q-30 8 -62 23t-108.5 50t-114.5 119q-47 117 -86 237t-39 198t18.5 125t26.5 79q0 48 41 125q0 22 72 116.5t115 94.5l69 39q62 0 97 17q45 29 92 28h153l80 -16h39q100 -32 131 -57q29 -16 74 -28.5
t74 -45.5q10 -8 33.5 -48.5t35.5 -54.5q80 -66 102.5 -126t22.5 -107l-6 -148v-69q0 -61 -69.5 -191.5t-77.5 -144.5q-14 -47 -52 -77t-73 -42q-66 -51 -118 -91t-100 -40z" />
    <glyph glyph-name="macron" unicode="&#xaf;" horiz-adv-x="1024" 
d="M211 1253q0 32 17.5 61t27.5 36q66 12 131.5 31.5t124.5 19.5q23 8 57.5 5t73.5 5h115q23 0 47 11.5t55 -5.5q48 29 109 23q-8 -8 -13.5 -41t-17.5 -69t-49 -54q-23 4 -55 2t-56 1t-43.5 3t-55.5 -1.5t-59 -11.5q-22 -9 -55 -5t-76 -7q-23 4 -59.5 -5t-54.5 -5
q-44 -17 -135 6h-29z" />
    <glyph glyph-name="macron" unicode="&#x2c9;" horiz-adv-x="1024" 
d="M211 1253q0 32 17.5 61t27.5 36q66 12 131.5 31.5t124.5 19.5q23 8 57.5 5t73.5 5h115q23 0 47 11.5t55 -5.5q48 29 109 23q-8 -8 -13.5 -41t-17.5 -69t-49 -54q-23 4 -55 2t-56 1t-43.5 3t-55.5 -1.5t-59 -11.5q-22 -9 -55 -5t-76 -7q-23 4 -59.5 -5t-54.5 -5
q-44 -17 -135 6h-29z" />
    <glyph glyph-name="degree" unicode="&#xb0;" horiz-adv-x="649" 
d="M223 819q0 -6 -1 -27t34 -57q23 -39 59 -47t82 39q47 47 53 112q5 65 -51 124q-10 12 -23 15t-41 13t-50 -6q-36 -16 -43 -56q-3 -16 -14 -38t-7 -31l2 -32v-9zM285 1126q39 18 92 12t96 -5q25 -4 58 -34t44 -73q21 -82 1 -216q-27 -175 -177 -224q-47 -29 -111 -32
t-118 9q-8 5 -20 23t-30 25q-52 20 -52 180q-4 39 7 69t33 84t72 98t105 84z" />
    <glyph glyph-name="plusminus" unicode="&#xb1;" horiz-adv-x="927" 
d="M825 334q0 -3 -3 -15t-11 -59.5t-66 -77.5q-16 4 -51 3t-59 2t-44 3t-51.5 -1.5t-55.5 -10.5q-24 -10 -59.5 -7t-82.5 -5q-6 2 -51 -6.5t-64 -5.5q-23 -12 -55.5 -8t-75.5 8h-28q2 6 5 20t10 43t26 39q68 12 135 28.5t131 16.5q23 14 56.5 11t74.5 1l108 6
q10 -2 22.5 2.5t25 7.5t26.5 3t29 -8q49 30 108 18v-8zM342 406q-12 0 -12 18t7 36.5t15 38t15.5 39t7.5 44t-17.5 28.5t-44.5 4l-131 -22q-45 0 -52 19.5t-6 39t1 45.5v36q0 36 29 36l176 -16q16 0 33.5 11t17.5 36q0 37 -19.5 63t-19.5 66t29 45.5t55 5.5t42.5 6t39 14
t22.5 -14l-6 -96q0 -18 -4 -35.5t-7 -38.5t34 -29q12 -4 26.5 -2t34.5 2l160 11q23 0 26 -17.5t3 -40.5q0 -102 -45 -102l-183 6q-16 0 -20 4t-14 -10q-9 -15 -19 -23t-8 -28q2 -23 -0.5 -45t16.5 -52q0 -23 4 -40t-22 -17l-74 -6q-10 0 -27.5 -6t-34 -10t-28.5 -4z" />
    <glyph glyph-name="twosuperior" unicode="&#xb2;" horiz-adv-x="620" 
d="M313 432q-78 0 -131 6h-28q-23 -4 -35.5 -7t-25.5 8t-26.5 36t-9.5 38t19.5 21.5t25.5 15.5t17.5 14t17.5 11q12 16 34 34t34 32t21.5 41t19.5 35q21 41 51 80q16 31 32.5 61.5t12.5 69.5q-10 43 -39 75.5t-59 32.5t-68 -41l-35 -32q-32 -25 -67 10q-6 3 -12.5 9.5
t-12.5 10.5q-24 16 66 92t170 70h16q4 -4 12.5 -2t16.5 2q46 20 112.5 -22t82.5 -83.5t16 -68.5t-29 -82q0 -35 -29 -80q-4 -12 -61 -55q-10 -14 -23.5 -24t-34.5 -51t-63 -85q-8 -14 -17.5 -26.5t-4.5 -24.5q23 4 27 4h97q10 0 29 15.5t41 31.5q25 8 47.5 18.5t48.5 10.5
q20 0 18.5 -33t-27 -102.5t-42.5 -81.5q-43 -22 -125 6q-17 3 -45 10h-35z" />
    <glyph glyph-name="threesuperior" unicode="&#xb3;" 
d="M312 1042q-5 0 -11 7q-8 0 -17.5 -7.5t-21.5 -11.5q-28 -46 -67 -74q-31 -10 -58.5 -0.5t-27.5 52.5v16q0 4 -2 9.5t3 18.5q11 30 85.5 59.5t140.5 33.5q16 8 35 0q29 0 38 2t17 -2q47 -10 84 -36t53 -56q20 -55 -4 -113.5t-63 -97.5q-10 -10 -43 -19q-33 -8 -35 -8h-8
q-4 -4 6 -6t61 -11t77 -38q54 -61 54 -101q4 -29 -6 -72.5t-33 -75.5t-108 -67l-29 -12q-50 -16 -119 -16h-57l-35 6q-70 0 -96 22q-23 4 -48.5 22t-25.5 34t9.5 19t13.5 16q24 36 46.5 47.5t61.5 -25.5q30 -41 74.5 -59.5t71.5 -18.5t47 23q41 35 41 83t-24.5 96t-67.5 64
q-34 17 -68 23h-23q-33 -8 -47 8.5t-12 39t21 26.5l55 6q31 0 66.5 10t64.5 53q6 11 6 43t-11.5 62t-27.5 26t-23.5 -2t-12.5 2z" />
    <glyph glyph-name="acute" unicode="&#xb4;" horiz-adv-x="620" 
d="M569 1579q0 29 8.5 44t8.5 28q27 31 49 62.5t49 58.5q29 39 56.5 77.5t56.5 69.5q41 0 57 23q16 0 30.5 8t36.5 8t25.5 -22.5t3.5 -39.5v-73q0 -50 -18.5 -72t-35.5 -37.5t-44 -42.5t-46.5 -54.5t-40.5 -48.5t-25.5 -34.5t-17.5 -34.5t-27.5 -36t-36 -39.5t-31.5 -50.5
q-42 -103 -81 -103q-26 0 -46.5 16.5t-20.5 39.5t10.5 36.5t22.5 44.5q0 22 35 74q0 35 11 52t11 46z" />
    <glyph glyph-name="mu" unicode="&#xb5;" horiz-adv-x="1196" 
d="M866 90q-51 57 -51 121q0 29 -21 29q-22 0 -47.5 -36t-38 -54.5t-22.5 -28.5t-41 -42t-95.5 -89.5t-95.5 -57.5q-30 0 -65 17.5t-47 38.5q-27 69 -28 94q-1 26 -8 42.5t-17 22t-21.5 -7t-24.5 -62.5t-35 -134t-32 -125q-4 -59 15.5 -90t41.5 -52q10 -18 40 -28.5t30 -73
t-18 -86.5q-18 -35 -70 -54t-84 13l-22 12q-31 12 -39.5 38t-24.5 42q-4 29 -14.5 56t-17.5 47q-17 50 -17 99t20 83q7 28 7 90q6 18 50.5 131t41.5 143q17 69 67 187q2 20 16 56q13 36 19 42q4 23 18.5 51t23.5 52l22.5 60t82 197.5t177.5 161.5h22q70 0 70 -125
q0 -49 -115 -231t-115 -232q0 -100 80.5 -144t182.5 22q4 10 26.5 26.5t43.5 36.5t25.5 37.5t12.5 17.5q0 16 14.5 31t16.5 28t20.5 52t40.5 94q39 76 72 163t54 137t59.5 66.5t64.5 16.5h45q27 0 42.5 -25.5t15.5 -43.5t-14.5 -51t-33 -76t-38 -88t-34.5 -82t-32.5 -73
t-38 -87t-20.5 -129v-74q-3 -40 25 -68t46 -28t76 -41l12 -57q0 -28 -13 -37.5t-32 -36.5q-49 -45 -131 -45q-31 0 -69.5 31.5t-38.5 54.5l-17 33v22z" />
    <glyph glyph-name="paragraph" unicode="&#xb6;" horiz-adv-x="1400" 
d="M764 928q-50 0 -64 -381q-6 -234 23 -291t45 -57h57q15 0 41.5 26.5t26.5 53.5q-10 20 -10 51v57l-6 96v336q-8 12 -10.5 28.5t-8 44t-33.5 36.5h-61zM141 707q0 12 12.5 37.5t12.5 41.5q24 74 74 142q27 63 84 92t79 29l41 4q36 0 83.5 11t64.5 11h57q23 0 45.5 9.5
t40.5 9.5h285l45 10l57 -10h113q36 0 51 -19q98 0 98 -51q0 -31 -98 -80h-51l-74 -16q-64 16 -80 16q-51 0 -51 -102v-545q0 -127 92 -127q29 0 39 6t41 6l51 -12h33q16 0 36.5 -12t20.5 -34q0 -40 -90 -70.5t-149 -30.5h-39q-10 0 -23.5 11t-21.5 11q-66 -22 -80 -22h-109
l-176 -17q-211 0 -370.5 133t-159.5 344l16 99v125z" />
    <glyph glyph-name="periodcentered" unicode="&#xb7;" horiz-adv-x="585" 
d="M489 503q0 -68 -67.5 -132t-113.5 -64t-114.5 84.5t-68.5 104.5q0 116 84 164.5t92 56.5q4 0 35 -17.5t92 -73t61 -123.5z" />
    <glyph glyph-name="cedilla" unicode="&#xb8;" horiz-adv-x="501" 
d="M17 -598q-33 0 -33 18t12 34t31.5 28t42 24.5t45.5 26.5q12 12 17 34.5t39 56.5t34 59t-10.5 30.5t-24.5 18.5q-31 41 -47 41q-17 0 -26 -14.5t-17 -20.5t-22.5 -6t-24.5 13t-10 33t32.5 40t54.5 42t60 21q14 16 18.5 27.5t16.5 11.5q75 0 96 -16q10 0 14.5 -13.5
t18.5 -26.5t27.5 -28.5t13.5 -58.5q0 -87 -74 -193q-16 -12 -30.5 -18t-30.5 -33q-6 -21 -39.5 -40.5t-47.5 -34.5q-13 -15 -22.5 -23t-19 -13.5t-21.5 -9.5t-26 -7t-47 -3z" />
    <glyph glyph-name="onesuperior" unicode="&#xb9;" horiz-adv-x="546" 
d="M205 995v13q-8 4 -13.5 1t-15.5 -8q-16 -16 -47 -16t-49.5 3t-28.5 29t17 48h6q16 4 41.5 15.5t62.5 24.5t101.5 36.5t113.5 -8.5q10 -9 10 -53t-6 -105.5t-10 -104.5t-6 -67.5t-6 -50.5v-177q0 -44 41 -65q8 -4 22.5 -13.5t27.5 -14.5t30 -21q16 -16 9 -31.5t-36 -18.5
t-43 11q-20 10 -50 10t-53 6q-22 6 -86 -2q-63 -8 -102 -12t-61 10t-22 26q1 12 18.5 25t39 22t41 16t25.5 12q23 38 23 210v228q6 12 6 22z" />
    <glyph glyph-name="ordmasculine" unicode="&#xba;" 
d="M403 154q8 0 17.5 4t27 9t35.5 -13q35 35 80 28v-12q0 -6 -2 -12t-4 -14q-6 -24 -29.5 -65t-54.5 -56h-74q-14 4 -35.5 4.5t-38.5 -11.5t-45 -11t-52 1t-43 -14.5t-31 -14.5q-19 -12 -103 11l-16 6q0 10 10 44t23 48q53 16 95 33.5t93 17.5q16 12 42 9t60 8h45zM547 831
q0 63 -24.5 97.5t-48.5 34.5q-45 0 -100.5 -70t-72.5 -107q-29 -134 -29 -143v-35q4 -6 17 -51t53 -45q120 48 145 102q10 22 22.5 55t25.5 60l12 57v45zM473 1161q85 0 119 -10q27 0 35 -21.5t16 -48.5q16 -12 33.5 -42.5t17.5 -53.5l-10 -160q0 -94 -80 -217
q-16 -13 -33 -59.5t-38 -71.5t-49.5 -65.5t-67.5 -53.5q-47 -27 -72.5 -42t-69.5 -15t-79 45t-35 98l-6 119q0 14 -8.5 22.5t-8.5 52.5q0 85 86.5 251t134.5 192q35 27 55.5 53.5t59.5 26.5z" />
    <glyph glyph-name="guillemotright" unicode="&#xbb;" horiz-adv-x="911" 
d="M141 154q-51 0 -51 41q0 16 7.5 30.5t17.5 14.5q17 6 34 9t39 10t52 16.5t57 31.5q67 43 84 182q6 35 -23 91.5t-61 56.5l-18 -4l-33 10q-17 0 -29 12q-37 19 -29 80q12 51 51.5 82t78.5 31t49 -10.5t29 -21.5t44.5 -22.5t38.5 -82.5q17 -35 15 -57t5 -36t7 -26t5 -21
t-1 -33l-22 -88t-33 -85q-12 -31 -28.5 -44.5t-39.5 -48.5q-30 -34 -52 -40.5t-36 -17.5t-23.5 -19.5t-24.5 -12.5t-24 -6t-35 -10t-31 -10t-20 -2zM530 154q-51 0 -51 41q0 16 6.5 30.5t16.5 14.5q17 6 34.5 9t39.5 10t34.5 19.5t38.5 34.5q70 45 86 183q4 55 -27 109
t-65 54q-4 0 -14.5 12.5t-14.5 16.5q-23 14 -27.5 23.5t-0.5 40.5q26 96 102 96q39 0 54.5 -10.5t34.5 -21.5t44.5 -22.5t38.5 -82.5q17 -35 15 -59t7 -53.5t1 -45.5q-4 -23 -8.5 -38t-8.5 -33t-12 -56t-29 -61q-12 -31 -28.5 -44.5t-38.5 -48.5q-16 -16 -23.5 -24
t-13.5 -12.5t-13.5 -7.5t-21.5 -14t-23.5 -19.5t-24.5 -12.5t-24.5 -6t-24.5 -7t-25.5 -8t-15.5 -5t-6 -2h-12z" />
    <glyph glyph-name="onequarter" unicode="&#xbc;" horiz-adv-x="1513" 
d="M205 995v13q-8 4 -13.5 1t-15.5 -8q-16 -16 -47 -16t-49.5 3t-28.5 29t17 48h6q16 4 41.5 15.5t62.5 24.5t101.5 36.5t113.5 -8.5q10 -9 10 -53t-6 -105.5t-10 -104.5t-6 -67.5t-6 -50.5v-177q0 -44 41 -65q8 -4 22.5 -13.5t27.5 -14.5t30 -21q16 -16 9 -31.5t-36 -18.5
t-43 11q-20 10 -50 10t-53 6q-22 6 -86 -2q-63 -8 -102 -12t-61 8q-12 10 -19.5 15.5t-3.5 14.5t22.5 20.5t39 21.5t39 18t24.5 13q23 38 23 210v228q6 12 6 22zM1133 473v29q-8 -10 -16.5 -18.5t-12.5 -22.5l-90 -125q18 6 45 6l63 -6q11 80 11 137zM1292 195v-41
q11 -32 6 -39q4 -18 5.5 -32.5t24.5 -14.5t56 -23v-29q4 -12 -18.5 -17t-60.5 -5q-27 6 -59 6t-50 -6q-160 0 -160 41q-10 25 10 33t40 12t36 18t6 40t-2 38v57q-24 -6 -139 -6t-126 5t-17 23.5t-8 30.5t7 29t25.5 35.5t35 36t28.5 29.5t17 23.5t24 27.5l47 57q8 8 12 18.5
t21 26.5q4 10 21.5 22.5t29.5 16.5q4 10 13 17.5t9 11.5q4 4 17.5 20.5t46.5 44.5t63 21q15 0 37.5 -26.5t24.5 -30.5l-10 -23q0 -3 -7 -35v-164q-6 -15 -6 -41v-67q0 -6 2 -6h4q18 0 97 28q20 20 41 0t10 -57q-4 -4 -5 -9t-7 -19t2 -23q-16 -31 -47 -39q-23 0 -29 6
q-30 10 -55 10q-13 -13 -13 -32zM366 -137h-75l10 22q10 39 17.5 72t23.5 49q4 23 25.5 42.5t31.5 31.5q20 39 32.5 70.5t29.5 54.5q39 39 47 72q10 43 69.5 131t59.5 98q26 26 83.5 141.5t82.5 138.5q129 208 167 312t60 143q26 0 68.5 17t56.5 22q32 0 51 -39
q0 -29 -7 -45t-20 -44t-28 -46.5t-23 -32.5t-19 -48t-28 -34q-19 -26 -28 -41q-10 -14 -24 -33t-21 -63q-38 -24 -104.5 -144.5t-88.5 -146.5q-10 -39 -66.5 -129t-64.5 -98q0 -21 -27 -44t-30 -36l-29 -57q-23 -35 -40 -66t-34 -53q-27 -51 -56.5 -94t-64.5 -101
q-27 -22 -37 -22z" />
    <glyph glyph-name="onehalf" unicode="&#xbd;" horiz-adv-x="1542" 
d="M205 995v13q-8 4 -13.5 1t-15.5 -8q-16 -16 -47 -16t-49.5 3t-28.5 29t17 48h6q16 4 41.5 15.5t62.5 24.5t101.5 36.5t113.5 -8.5q10 -9 10 -53t-6 -105.5t-10 -104.5t-6 -67.5t-6 -50.5v-177q0 -44 41 -65q8 -4 22.5 -13.5t27.5 -14.5t30 -21q16 -16 9 -31.5t-36 -18.5
t-43 11q-20 10 -50 10t-53 6q-22 6 -86 -2q-63 -8 -102 -12t-61 10t-22 26q1 12 18.5 25t39 22t41 16t25.5 12q23 38 23 210v228q6 12 6 22zM1206 0q-79 0 -131 6h-26q-23 -4 -36.5 -7t-21.5 7q-16 12 -30.5 37t-10 39t50.5 37q15 15 29 22q14 18 34 36t34 32t22 39.5
t19 36.5q10 16 22.5 36.5t28.5 46.5t32.5 57.5t10.5 72.5t-36 73.5t-59 32.5t-67 -41l-35 -33q-33 -26 -67 11q-9 5 -15 9t-12 9q-13 9 7 33.5t52 56.5q31 23 78 50.5t99 23.5h18q4 -4 11 -2t18 2q45 19 109.5 -23t83 -83.5t18.5 -62.5t-29 -87q-1 -22 -17 -57t-37.5 -50.5
t-37.5 -29.5q-8 -12 -23.5 -24t-36.5 -53t-45 -68t-32.5 -39.5t-3.5 -26.5q34 6 73 6h51q8 0 26.5 14.5t41.5 30.5q27 10 49.5 19.5t44.5 9.5t20.5 -32t-24.5 -100t-49 -86t-121 7q-6 2 -14 4l-16 4t-15 4h-35zM366 -137h-75l10 22q10 39 17.5 72t23.5 49q4 23 25.5 42.5
t31.5 31.5q20 39 32.5 70.5t29.5 54.5q39 39 47 72q10 43 69.5 131t59.5 98q26 26 83.5 141.5t82.5 138.5q129 208 167 312t60 143q26 0 68.5 17t56.5 22q32 0 51 -39q0 -29 -7 -45t-20 -44t-28 -46.5t-23 -32.5t-19 -48t-28 -34q-19 -26 -28 -41q-10 -14 -24 -33t-21 -63
q-38 -24 -104.5 -144.5t-88.5 -146.5q-10 -39 -66.5 -129t-64.5 -98q0 -21 -27 -44t-30 -36l-29 -57q-23 -35 -40 -66t-34 -53q-27 -51 -56.5 -94t-64.5 -101q-27 -22 -37 -22z" />
    <glyph glyph-name="threequarters" unicode="&#xbe;" horiz-adv-x="1497" 
d="M1133 473v29q-8 -10 -16.5 -18.5t-12.5 -22.5l-90 -125q18 6 45 6l63 -6q11 80 11 137zM312 1042q-5 0 -11 7q-8 0 -17.5 -7.5t-21.5 -11.5q-28 -46 -67 -74q-31 -10 -58.5 -0.5t-27.5 52.5v16q0 4 -2 9.5t3 18.5q11 30 85.5 59.5t140.5 33.5q16 8 35 0q29 0 38 2t17 -2
q47 -10 84 -36t53 -56q20 -55 -4 -113.5t-63 -97.5q-10 -10 -42 -19q-32 -8 -44 -8q-8 -4 2 -6t63 -10t79 -38q54 -61 54 -102q4 -29 -6 -72.5t-33 -75.5t-108 -67l-29 -12q-50 -16 -119 -16h-57l-35 6q-70 0 -96 22q-23 4 -48.5 22t-25.5 34t9.5 19t13.5 16
q24 36 46.5 47.5t61.5 -25.5q30 -41 74.5 -59.5t71.5 -18.5t47 23q41 35 41 83t-24.5 96t-67.5 64q-34 17 -68 23h-23q-33 -8 -47 8.5t-12 39t21 26.5l55 6q31 0 66.5 10t64.5 53q6 11 6 43t-11.5 62t-27.5 26t-23.5 -2t-12.5 2zM390 -137h-77l6 22q20 96 46 121
q8 23 29.5 42.5t21.5 31.5q27 39 39 70.5t28 54.5q35 35 45 69q16 53 70.5 134t60.5 98q28 28 85 142t81 138q53 85 144 256q25 59 46 109.5t38 89.5q26 0 57 12.5t46.5 18.5t27.5 7t51 -38q0 -29 -10.5 -45t-21.5 -44t-29.5 -46.5t-34.5 -40.5q0 -35 -14.5 -54.5
t-20.5 -19.5l-12 -17q-13 -18 -20 -28t-18 -26t-17.5 -27.5t-6.5 -38.5q-31 -21 -80 -106.5t-72.5 -126.5t-39.5 -58q-14 -56 -70.5 -137.5t-67.5 -89.5q6 -19 -11 -36t-27.5 -26.5t-12.5 -17.5l-28 -57q-23 -35 -40 -66t-41 -67t-49.5 -79.5t-68.5 -101.5q-22 -22 -32 -22z
M1292 195v-41q11 -32 6 -39q4 -18 5.5 -32.5t24.5 -14.5t56 -23v-29q4 -12 -18.5 -17t-60.5 -5q-27 6 -59 6t-50 -6q-160 0 -160 41q-10 25 10 33t40 12t36 18t6 40t-2 38v57q-24 -6 -139 -6t-126 5t-17 23.5t-8 30.5t7 29t25.5 35.5t35 36t28.5 29.5t17 23.5t24 27.5l47 57
q8 8 12 18.5t21 26.5q4 10 21.5 22.5t29.5 16.5q4 10 13 17.5t9 11.5q4 4 17.5 20.5t46.5 44.5t63 21q15 0 37.5 -26.5t24.5 -30.5l-10 -23q0 -3 -7 -35v-164q-6 -15 -6 -41v-67q0 -6 2 -6h4q18 0 97 28q20 20 41 0t10 -57q-4 -4 -5 -9t-7 -19t2 -23q-16 -31 -47 -39
q-23 0 -29 6q-30 10 -55 10q-13 -13 -13 -32z" />
    <glyph glyph-name="questiondown" unicode="&#xbf;" horiz-adv-x="823" 
d="M567 838.5q-64 -54.5 -95 -54.5t-45.5 9.5t-27 21.5t-25 27.5t-28.5 28t-36.5 21.5t-20.5 35t10 43t27.5 30.5t38 26.5t36.5 27t24.5 31t23 43.5t39.5 26.5q24 0 35.5 -11t17.5 -29.5t11 -41.5t9 -39t15.5 -24.5t33 -24.5t21.5 -54t-64 -92.5zM-111 -17.5q0 15.5 15 27.5
q59 53 105 98.5t116 81.5q-2 8 13.5 14t11.5 24t22.5 35.5t59 33.5t59 34.5t21.5 40.5t-14 31t-13 27t-8.5 30.5t-8.5 26.5t-11 22.5t-12 31.5t25.5 41t59.5 24q55 11 98.5 -26t54.5 -87q10 -49 -8 -79.5t-47 -58t-61.5 -55.5t-52.5 -58t-33 -46t-27 -26t-31.5 -21.5
t-42.5 -28.5t-40 -51.5t-46 -52.5t-36 -47.5t4.5 -59.5t31 -53.5t43.5 -29.5q24 3 59 -24.5t58 -30.5q89 -6 133.5 51t60 82.5t32.5 24.5t32.5 -26t2.5 -63q-19 -58 -60.5 -95.5t-64.5 -51.5t-50 -33.5t-77 -53.5t-85 -29q-212 32 -235 138q-2 8 -12.5 33t-28.5 75t-8 65
t7 30.5t-7.5 32t-4.5 32z" />
    <glyph glyph-name="Agrave" unicode="&#xc0;" horiz-adv-x="1253" 
d="M352 1935q37 -59 64 -73q29 -20 80 -86q57 -60 125 -158q6 -2 26.5 -36t36.5 -34q6 -16 18.5 -34.5t35.5 -53t26 -71.5q12 -4 13 -13.5t14 -9.5q10 -12 1.5 -28t-12.5 -34t-31 -34.5t-47 -13.5q-31 5 -73 56t-59 75q-17 25 -34.5 39t-33.5 42q-27 35 -44.5 77t-47.5 95
q-5 48 -51 137t-58 113q-12 35 7 48t44 -3zM749 586q15 0 15 28t-14.5 42t-14.5 28v90q0 12 -7 34.5t-19 22.5q-22 0 -41 -35t-19 -55v-16q0 -16 -16 -88v-16q0 -12 18.5 -23.5t28.5 -11.5h69zM104.5 -12q-59.5 11 -59.5 35q0 39 23.5 65.5t62.5 26.5l39 10q11 0 38 23.5
t48 39.5q12 51 44 111.5t58 116.5q18 53 68 137q32 63 63.5 157t51.5 137q26 57 43.5 150.5t48.5 157.5q12 10 26.5 24.5t40.5 26.5h35q78 0 93.5 -50t18.5 -86t7 -69v-73q12 -23 31.5 -61t19.5 -76v-52q0 -7 34 -104t34 -126q0 -84 38.5 -228t82.5 -144q29 0 45 -6t25 -6
q28 0 64 -12.5t36 -44.5q0 -74 -97 -74l-137 6h-205l-57 -6q-68 0 -68 18q0 48 86 78q68 22 68 52t-18.5 97.5t-32.5 67.5q-6 20 -9 45t-11.5 56t-47.5 24h-86q-86 0 -102 -16q-27 -12 -22 -36t5 -50q-27 -36 -48 -95t-21 -75t13 -25.5t29.5 -19t30 -25.5t13.5 -53t-68 -37
q0 -10 -11 -10t-24 10h-17q-17 0 -32 2l-37 4l-86 -12q-53 0 -60 -8.5t-28 -8.5q-20 0 -79.5 11z" />
    <glyph glyph-name="Aacute" unicode="&#xc1;" horiz-adv-x="1253" 
d="M1151 1896v-73q0 -50 -18.5 -72t-37.5 -37.5t-45 -42.5t-46 -54.5t-40 -48.5t-24 -34.5t-18 -30.5q-14 -25 -28.5 -40t-36.5 -41t-32 -50q-21 -52 -37.5 -77t-43.5 -25q-26 0 -46 16.5t-20 39.5t10 36.5t23 44.5q0 16 13 37.5t21 36.5q0 35 11.5 52t11.5 46t9 44t9 28
q25 31 47.5 62.5t49.5 58.5q29 39 56.5 77.5t55.5 69.5q40 0 58 23l63 16q27 0 31 -22.5t4 -39.5zM749 586q15 0 15 28t-14.5 42t-14.5 28v90q0 12 -7 34.5t-19 22.5q-22 0 -41 -35t-19 -55v-16q0 -16 -16 -88v-16q0 -12 18.5 -23.5t28.5 -11.5h69zM104.5 -12
q-59.5 11 -59.5 35q0 39 23.5 65.5t62.5 26.5l39 10q11 0 38 23.5t48 39.5q12 51 44 111.5t58 116.5q18 53 68 137q32 63 63.5 157t51.5 137q26 57 43.5 150.5t48.5 157.5q12 10 26.5 24.5t40.5 26.5h35q78 0 93.5 -50t18.5 -86t7 -69v-73q12 -23 31.5 -61t19.5 -76v-52
q0 -7 34 -104t34 -126q0 -84 38.5 -228t82.5 -144q29 0 45 -6t25 -6q28 0 64 -12.5t36 -44.5q0 -74 -97 -74l-137 6h-205l-57 -6q-68 0 -68 18q0 48 86 78q68 22 68 52t-18.5 97.5t-32.5 67.5q-6 20 -9 45t-11.5 56t-47.5 24h-86q-86 0 -102 -16q-27 -12 -22 -36t5 -50
q-27 -36 -48 -95t-21 -75t13 -25.5t29.5 -19t30 -25.5t13.5 -53t-68 -37q0 -10 -11 -10t-24 10h-17q-17 0 -32 2l-37 4l-86 -12q-53 0 -60 -8.5t-28 -8.5q-20 0 -79.5 11z" />
    <glyph glyph-name="Acircumflex" unicode="&#xc2;" horiz-adv-x="1253" 
d="M1075 1385q0 -132 -61 -132q-40 0 -54 49.5t-24 62.5t-23.5 37.5t-35.5 37.5q-41 161 -68 192t-51 54q-19 -19 -29 -52l-18 -41q-51 -43 -66.5 -74.5t-32 -53t-59.5 -54.5l-29 -27q-46 -46 -66.5 -74.5t-41.5 -45.5h-13q-16 0 -23 8t-15 8q11 48 22 57l12 29
q11 48 68 115l29 45q10 10 32.5 47t71.5 117t80 113q32 32 42.5 47.5t22.5 27.5l58 47l28 -29q14 -12 40 -55t45.5 -67.5t49 -73t42.5 -135.5l45 -74q22 -77 22 -106zM749 586q15 0 15 28t-14.5 42t-14.5 28v90q0 12 -7 34.5t-19 22.5q-22 0 -41 -35t-19 -55v-16
q0 -16 -16 -88v-16q0 -12 18.5 -23.5t28.5 -11.5h69zM104.5 -12q-59.5 11 -59.5 35q0 39 23.5 65.5t62.5 26.5l39 10q11 0 38 23.5t48 39.5q12 51 44 111.5t58 116.5q18 53 68 137q32 63 63.5 157t51.5 137q26 57 43.5 150.5t48.5 157.5q12 10 26.5 24.5t40.5 26.5h35
q78 0 93.5 -50t18.5 -86t7 -69v-73q12 -23 31.5 -61t19.5 -76v-52q0 -7 34 -104t34 -126q0 -84 38.5 -228t82.5 -144q29 0 45 -6t25 -6q28 0 64 -12.5t36 -44.5q0 -74 -97 -74l-137 6h-205l-57 -6q-68 0 -68 18q0 48 86 78q68 22 68 52t-18.5 97.5t-32.5 67.5q-6 20 -9 45
t-11.5 56t-47.5 24h-86q-86 0 -102 -16q-27 -12 -22 -36t5 -50q-27 -36 -48 -95t-21 -75t13 -25.5t29.5 -19t30 -25.5t13.5 -53t-68 -37q0 -10 -11 -10t-24 10h-17q-17 0 -32 2l-37 4l-86 -12q-53 0 -60 -8.5t-28 -8.5q-20 0 -79.5 11z" />
    <glyph glyph-name="Atilde" unicode="&#xc3;" horiz-adv-x="1253" 
d="M365 1241h-41v29l12 86q0 73 63 112q32 0 56 26t63 26t80 -17q29 0 35 -6q37 0 136 -65.5t171 -65.5t90 9t21.5 32t13.5 45q8 8 1 32t-7 40t-5 20t-5 29t21.5 40t57.5 15t56 -22q60 -26 61.5 -53t1.5 -50q0 -88 -63 -147q-8 -10 -16.5 -24.5t-16.5 -26.5
q-121 -76 -201 -76t-138 28.5t-92 47t-71 28.5l-80 10q-43 0 -81.5 -12t-77.5 -55q-16 -4 -22.5 -19.5t-22.5 -15.5zM749 586q15 0 15 28t-14.5 42t-14.5 28v90q0 12 -7 34.5t-19 22.5q-22 0 -41 -35t-19 -55v-16q0 -16 -16 -88v-16q0 -12 18.5 -23.5t28.5 -11.5h69z
M104.5 -12q-59.5 11 -59.5 35q0 39 23.5 65.5t62.5 26.5l39 10q11 0 38 23.5t48 39.5q12 51 44 111.5t58 116.5q18 53 68 137q32 63 63.5 157t51.5 137q26 57 43.5 150.5t48.5 157.5q12 10 26.5 24.5t40.5 26.5h35q78 0 93.5 -50t18.5 -86t7 -69v-73q12 -23 31.5 -61
t19.5 -76v-52q0 -7 34 -104t34 -126q0 -84 38.5 -228t82.5 -144q29 0 45 -6t25 -6q28 0 64 -12.5t36 -44.5q0 -74 -97 -74l-137 6h-205l-57 -6q-68 0 -68 18q0 48 86 78q68 22 68 52t-18.5 97.5t-32.5 67.5q-6 20 -9 45t-11.5 56t-47.5 24h-86q-86 0 -102 -16
q-27 -12 -22 -36t5 -50q-27 -36 -48 -95t-21 -75t13 -25.5t29.5 -19t30 -25.5t13.5 -53t-68 -37q0 -10 -11 -10t-24 10h-17q-17 0 -32 2l-37 4l-86 -12q-53 0 -60 -8.5t-28 -8.5q-20 0 -79.5 11z" />
    <glyph glyph-name="Adieresis" unicode="&#xc4;" horiz-adv-x="1253" 
d="M1005 1651q14 0 25.5 -12.5t20 -30t16.5 -37t20 -35.5t29 -26.5t39.5 -29.5t22.5 -44q0 -36 -41.5 -65.5t-55.5 -49.5q-12 -23 -26.5 -40t-41 -17t-36.5 16t-33 29q-16 14 -33.5 19t-33.5 28q-16 29 -24.5 40t-30.5 24t-38 17.5t-16 23.5t16.5 25.5t42.5 33.5t77 55
q50 28 56.5 37.5t12.5 17.5t12 14.5t20 6.5zM476 1622q22 0 31 -28.5t22 -52.5t28.5 -43t39.5 -51.5t24 -80.5q0 -19 -25 -31t-39.5 -18.5t-26.5 -18.5t-19 -25t-17 -28.5t-36 -15.5q-38 0 -71.5 43t-52.5 54q-27 15 -64 64.5t-36 66.5q1 18 15.5 33t34 24.5t44 15.5
t42.5 12t30 19.5t22 27t21 23.5t33 10zM749 586q15 0 15 28t-14.5 42t-14.5 28v90q0 12 -7 34.5t-19 22.5q-22 0 -41 -35t-19 -55v-16q0 -16 -16 -88v-16q0 -12 18.5 -23.5t28.5 -11.5h69zM104.5 -12q-59.5 11 -59.5 35q0 39 23.5 65.5t62.5 26.5l39 10q11 0 38 23.5
t48 39.5q12 51 44 111.5t58 116.5q18 53 68 137q32 63 63.5 157t51.5 137q26 57 43.5 150.5t48.5 157.5q12 10 26.5 24.5t40.5 26.5h35q78 0 93.5 -50t18.5 -86t7 -69v-73q12 -23 31.5 -61t19.5 -76v-52q0 -7 34 -104t34 -126q0 -84 38.5 -228t82.5 -144q29 0 45 -6t25 -6
q28 0 64 -12.5t36 -44.5q0 -74 -97 -74l-137 6h-205l-57 -6q-68 0 -68 18q0 48 86 78q68 22 68 52t-18.5 97.5t-32.5 67.5q-6 20 -9 45t-11.5 56t-47.5 24h-86q-86 0 -102 -16q-27 -12 -22 -36t5 -50q-27 -36 -48 -95t-21 -75t13 -25.5t29.5 -19t30 -25.5t13.5 -53t-68 -37
q0 -10 -11 -10t-24 10h-17q-17 0 -32 2l-37 4l-86 -12q-53 0 -60 -8.5t-28 -8.5q-20 0 -79.5 11z" />
    <glyph glyph-name="Aring" unicode="&#xc5;" horiz-adv-x="1253" 
d="M749 586q15 0 15 28t-14.5 42t-14.5 28v90q0 12 -7 34.5t-19 22.5q-22 0 -41 -35t-19 -55v-16q0 -16 -16 -88v-16q0 -12 18.5 -23.5t28.5 -11.5h69zM668 1334q0 -1 -1 -13t27 -49t70 -37q12 0 52.5 23t43 96t-44.5 127q-13 16 -35 16q-45 18 -63 0q-28 -11 -32.5 -23
t-5.5 -20t-7 -18l-6 -64v-6zM104.5 -12q-59.5 11 -59.5 35q0 39 23.5 65.5t62.5 26.5l39 10q11 0 38 23.5t48 39.5q12 51 44 111.5t58 116.5q18 53 68 137q32 63 63.5 157t57.5 149q27 56 35 125t32 138q-8 8 -16 21.5t-24 20.5q-50 23 -50 161q0 59 32 123t74 104.5
t93 75.5q42 14 166 0q23 0 46 -22.5t31 -35.5q12 -18 18.5 -57.5t6.5 -60.5q0 -117 -32.5 -193.5t-127.5 -119.5q12 -29 15.5 -66t7.5 -72v-73q12 -23 31.5 -61t19.5 -76v-52q0 -7 34 -104t34 -126q0 -84 38.5 -228t82.5 -144q29 0 45 -6t25 -6q28 0 64 -12.5t36 -44.5
q0 -74 -97 -74l-137 6h-205l-57 -6q-68 0 -68 18q0 48 86 78q68 22 68 52t-18.5 97.5t-32.5 67.5q-6 20 -9 45t-11.5 56t-47.5 24h-86q-86 0 -102 -16q-27 -12 -22 -36t5 -50q-27 -36 -48 -95t-21 -75t13 -25.5t29.5 -19t30 -25.5t13.5 -53t-68 -37q0 -10 -11 -10t-24 10
h-17q-17 0 -32 2l-37 4l-86 -12q-53 0 -60 -8.5t-28 -8.5q-20 0 -79.5 11z" />
    <glyph glyph-name="AE" unicode="&#xc6;" horiz-adv-x="1855" 
d="M1077 770v10l-2 68q2 18 6 42.5t10 60.5t-10 40q-10 4 -18 -11t-24.5 -64t-37.5 -74q-16 -37 -42.5 -85.5t-40.5 -123.5q-10 -18 3 -23.5t29 -5.5l70 4q49 3 59 74q4 31 -4 70q2 16 2 18zM1606 1145q12 0 33.5 -11.5t33.5 -23.5q16 -27 16.5 -62.5t12.5 -62.5
q12 -12 45 -102q0 -41 -45 -41q-14 0 -97 68.5t-221 68.5l-108 -10q-14 -14 -14 -22.5t-5 -18.5q9 -103 -4 -176q0 -65 -6 -86q4 -29 31 -45.5t49 -16.5l109 -6l32 16q29 0 61 26t41 26t18.5 -11.5t19.5 -24.5t20 -32v-119q0 -63 -57 -63q-23 0 -71 31.5t-64 31.5h-93
q-60 0 -86 -28v-52q-4 -47 1.5 -74.5t5.5 -74.5l-11 -45q15 -44 62 -51h153q53 0 110 23t88.5 36.5t53.5 13.5q39 -16 39 -31t-13 -27.5t-33 -34.5t-37 -52.5t-48 -73.5t-86 -43q-25 0 -47 14.5t-59 14.5t-62.5 9t-50.5 9t-39 -9t-36.5 -9t-38 6t-42.5 6l-92 -12h-131
q-35 0 -54.5 24.5t-17.5 58.5t41 58.5t72 24.5t45 -6q0 7 22.5 16.5t22.5 11.5q0 12 -2 37t14 53l7 47q0 14 -9.5 42.5t-9.5 64.5q4 25 -16.5 34t-52 10t-66 -1t-62.5 -2t-47.5 -11.5t-34 -29.5t-27.5 -41t-34 -43q-37 -59 -84 -133t-146 -181.5t-243 -107.5
q-89 0 -151 55.5t-54 143.5q8 59 43 98t99 39q27 0 45 -15.5t34.5 -33t34 -32.5t39.5 -15t39 11t32 26.5t29.5 32t26.5 26.5q20 27 34.5 44t37 47t54.5 88q32 59 83 126.5t81 129.5t43 96t34.5 84t49.5 96q34 58 34 72t14 48q27 51 91 107.5t95.5 27t53.5 -95.5l268 -10
l80 10q16 4 38 12q24 8 36 7z" />
    <glyph glyph-name="Ccedilla" unicode="&#xc7;" horiz-adv-x="796" 
d="M672 1178q80 0 80 -125v-39q-12 -47 -42 -86t-69 -39t-74 19.5t-79 19.5t-87 -32t-77.5 -75t-56 -87t-21.5 -68v-136q0 -89 26.5 -178.5t56 -137.5t74.5 -48l41 16q106 0 164 58q75 88 103 95t41 7q22 -22 22 -54t-32.5 -90.5t-112 -147.5t-140.5 -89h-2q3 -3 6 -13
t18 -22q42 -35 42 -81q0 -92 -74 -197q-18 -14 -32.5 -20.5t-30.5 -30.5q-10 -31 -35 -40.5t-45 -29.5t-29.5 -28.5t-18.5 -13.5t-21.5 -9t-26.5 -8t-47 -3.5t-33 17.5q0 45 54 71.5t77 43.5q12 12 17 34.5t39 54.5t34 58q0 27 -10.5 32.5t-34.5 31.5q-24 25 -37 26
q-17 0 -30 -19.5t-31 -19.5t-28.5 13.5t-10.5 33.5t32.5 39t53.5 39t40 21q-26 8 -95 49.5t-83 72.5q-13 10 -46 112t-33 149v63q-23 46 -23 57l23 119v45l-23 58l23 63v39q54 118 79 143q14 91 107.5 145t132.5 77q23 4 57 13t45 9h119z" />
    <glyph glyph-name="Egrave" unicode="&#xc8;" horiz-adv-x="995" 
d="M246 1935q27 -55 61 -73q35 -25 80 -86q78 -84 125 -158q8 -3 23.5 -26t23.5 -33.5t16 -10.5q7 -18 42 -68.5t38 -90.5q12 -4 13.5 -13.5t15.5 -9.5q8 -12 0 -28t-12 -34t-32 -34.5t-47 -13.5q-28 4 -75.5 61.5t-59.5 76.5q-13 18 -30.5 32t-34.5 42q-27 35 -44 77
t-48 95q-5 49 -106 250q-14 35 5 48t46 -3zM483 1133q12 0 23.5 -2.5t27 -3.5t37 -3t56.5 -2l67 17q16 4 36 10t45 6q24 0 67 -33q14 -27 18 -63.5t17 -63.5q9 -9 23 -44q15 -36 28 -58q0 -39 -51 -39q-12 0 -92 62.5t-228 62.5l-39 -10q-12 -18 -23.5 -30.5t-11.5 -20.5
v-19q-16 -64 -16 -74v-147q0 -31 12.5 -58.5t38.5 -27.5q6 0 90 16h41q19 0 43.5 17.5t35.5 25.5t22 8t32 -26l21 -25v-135q0 -57 -51 -57q-34 0 -68 28q-23 8 -38 18.5t-38 10.5h-73q-51 0 -65.5 -18.5t-14.5 -73.5v-51q6 -29 8 -57.5t10 -68.5t62 -50h114q55 0 131 41
q93 32 119 32q35 -26 35 -42t-32 -45q-32 -30 -44 -57.5t-23.5 -51t-28 -39t-38.5 -15.5q-27 0 -53.5 11.5t-65.5 11.5l-198 -6l-70 -17h-170l-41 -12l-61 -4q-32 0 -51 31t-19 37q0 51 76 51q15 6 39 17t45 18q43 8 58 26.5t15 56.5t7.5 50t-7.5 24q0 10 -16 70v164l16 143
v35l7 33v227q0 18 -20.5 29.5t-31.5 11.5h-57q-39 0 -56.5 32.5t-17.5 60.5t11.5 38t23.5 10h109l102 7h141z" />
    <glyph glyph-name="Eacute" unicode="&#xc9;" horiz-adv-x="995" 
d="M569 1579q0 29 8.5 44t8.5 28q27 31 49 62.5t49 58.5q29 39 56.5 77.5t56.5 69.5q41 0 57 23q16 0 30.5 8t36.5 8t25.5 -22.5t3.5 -39.5v-73q0 -50 -18.5 -72t-35.5 -37.5t-44 -42.5t-46.5 -54.5t-40.5 -48.5t-25.5 -34.5t-17.5 -34.5t-27.5 -36t-36 -39.5t-31.5 -50.5
q-42 -103 -81 -103q-26 0 -46.5 16.5t-20.5 39.5t10.5 36.5t22.5 44.5q0 22 35 74q0 35 11 52t11 46zM483 1133q12 0 23.5 -2.5t27 -3.5t37 -3t56.5 -2l67 17q16 4 36 10t45 6q24 0 67 -33q14 -27 18 -63.5t17 -63.5q9 -9 23 -44q15 -36 28 -58q0 -39 -51 -39
q-12 0 -92 62.5t-228 62.5l-39 -10q-12 -18 -23.5 -30.5t-11.5 -20.5v-19q-16 -64 -16 -74v-147q0 -31 12.5 -58.5t38.5 -27.5q6 0 90 16h41q19 0 43.5 17.5t35.5 25.5t22 8t32 -26l21 -25v-135q0 -57 -51 -57q-34 0 -68 28q-23 8 -38 18.5t-38 10.5h-73q-51 0 -65.5 -18.5
t-14.5 -73.5v-51q6 -29 8 -57.5t10 -68.5t62 -50h114q55 0 131 41q93 32 119 32q35 -26 35 -42t-32 -45q-32 -30 -44 -57.5t-23.5 -51t-28 -39t-38.5 -15.5q-27 0 -53.5 11.5t-65.5 11.5l-198 -6l-70 -17h-170l-41 -12l-61 -4q-32 0 -51 31t-19 37q0 51 76 51q15 6 39 17
t45 18q43 8 58 26.5t15 56.5t7.5 50t-7.5 24q0 10 -16 70v164l16 143v35l7 33v227q0 18 -20.5 29.5t-31.5 11.5h-57q-39 0 -56.5 32.5t-17.5 60.5t11.5 38t23.5 10h109l102 7h141z" />
    <glyph glyph-name="Ecircumflex" unicode="&#xca;" horiz-adv-x="995" 
d="M928 1383q0 -130 -62 -130q-33 0 -45 32t-18 49.5t-15 30.5t-22.5 37.5t-36.5 37.5q-14 47 -23.5 80.5t-23.5 73.5t-74 92q-16 -20 -26 -52l-19 -41q-45 -38 -64.5 -72t-36 -55.5t-59.5 -54.5l-28 -27q-54 -58 -73 -83t-34 -37h-12q-16 0 -23.5 8t-15.5 8q11 48 23 57
l10 29q13 47 69 115l29 45q10 10 31.5 47t77 123t81.5 112q27 27 37.5 42.5t22.5 27.5l57 47l29 -29q12 -10 24.5 -32t26.5 -44t32.5 -46.5t50.5 -77t42 -131.5l29 -45l16 -29q23 -81 23 -108zM483 1133q12 0 23.5 -2.5t27 -3.5t37 -3t56.5 -2l67 17q16 4 36 10t45 6
q24 0 67 -33q14 -27 18 -63.5t17 -63.5q9 -9 23 -44q15 -36 28 -58q0 -39 -51 -39q-12 0 -92 62.5t-228 62.5l-39 -10q-12 -18 -23.5 -30.5t-11.5 -20.5v-19q-16 -64 -16 -74v-147q0 -31 12.5 -58.5t38.5 -27.5q6 0 90 16h41q19 0 43.5 17.5t35.5 25.5t22 8t32 -26l21 -25
v-135q0 -57 -51 -57q-34 0 -68 28q-23 8 -38 18.5t-38 10.5h-73q-51 0 -65.5 -18.5t-14.5 -73.5v-51q6 -29 8 -57.5t10 -68.5t62 -50h114q55 0 131 41q93 32 119 32q35 -26 35 -42t-32 -45q-32 -30 -44 -57.5t-23.5 -51t-28 -39t-38.5 -15.5q-27 0 -53.5 11.5t-65.5 11.5
l-198 -6l-70 -17h-170l-41 -12l-61 -4q-32 0 -51 31t-19 37q0 51 76 51q15 6 39 17t45 18q43 8 58 26.5t15 56.5t7.5 50t-7.5 24q0 10 -16 70v164l16 143v35l7 33v227q0 18 -20.5 29.5t-31.5 11.5h-57q-39 0 -56.5 32.5t-17.5 60.5t11.5 38t23.5 10h109l102 7h141z" />
    <glyph glyph-name="Edieresis" unicode="&#xcb;" horiz-adv-x="995" 
d="M846 1651q14 0 25.5 -12.5t19.5 -30t16 -37t21 -33.5q12 -18 28.5 -28.5t40 -29t23.5 -43.5t-11.5 -39t-26.5 -25t-32.5 -23t-28.5 -32t-25.5 -37t-41.5 -17t-36 16t-32 29q-16 14 -34.5 19t-34.5 28q-16 29 -24.5 40t-30.5 24t-38 17.5t-16 23.5t16.5 25.5t40.5 31.5
t77 55q54 30 60.5 39.5t11.5 17.5t11.5 14.5t20.5 6.5zM311 1622q14 0 22.5 -8t14.5 -20.5t11.5 -27t14.5 -32.5t24.5 -36.5t39 -51t23.5 -80.5q0 -18 -24.5 -30.5t-40 -19t-26.5 -18.5t-18.5 -25t-17.5 -28.5t-36 -15.5t-40 11t-26.5 26.5t-27 33t-32.5 27.5q-26 14 -62 63
t-35 67t15 33t33.5 24.5t44.5 15.5t44 12t29.5 19.5t20.5 27t22.5 23.5t26.5 10zM483 1133q12 0 23.5 -2.5t27 -3.5t37 -3t56.5 -2l67 17q16 4 36 10t45 6q24 0 67 -33q14 -27 18 -63.5t17 -63.5q9 -9 23 -44q15 -36 28 -58q0 -39 -51 -39q-12 0 -92 62.5t-228 62.5l-39 -10
q-12 -18 -23.5 -30.5t-11.5 -20.5v-19q-16 -64 -16 -74v-147q0 -31 12.5 -58.5t38.5 -27.5q6 0 90 16h41q19 0 43.5 17.5t35.5 25.5t22 8t32 -26l21 -25v-135q0 -57 -51 -57q-34 0 -68 28q-23 8 -38 18.5t-38 10.5h-73q-51 0 -65.5 -18.5t-14.5 -73.5v-51q6 -29 8 -57.5
t10 -68.5t62 -50h114q55 0 131 41q93 32 119 32q35 -26 35 -42t-32 -45q-32 -30 -44 -57.5t-23.5 -51t-28 -39t-38.5 -15.5q-27 0 -53.5 11.5t-65.5 11.5l-198 -6l-70 -17h-170l-41 -12l-61 -4q-32 0 -51 31t-19 37q0 51 76 51q15 6 39 17t45 18q43 8 58 26.5t15 56.5
t7.5 50t-7.5 24q0 10 -16 70v164l16 143v35l7 33v227q0 18 -20.5 29.5t-31.5 11.5h-57q-39 0 -56.5 32.5t-17.5 60.5t11.5 38t23.5 10h109l102 7h141z" />
    <glyph glyph-name="Igrave" unicode="&#xcc;" horiz-adv-x="598" 
d="M-23 1935q26 -53 62 -73q29 -20 80 -86q74 -80 127 -158q6 -2 26.5 -36t34.5 -34q7 -18 42 -68.5t38 -90.5q12 -4 14 -13.5t15 -9.5q8 -12 0 -28t-12 -34t-32 -34.5t-46 -13.5q-42 7 -129 128q-20 28 -38 42t-34 42q-27 35 -44.5 77t-45.5 95q-7 61 -109 250q-12 35 6 48
t45 -3zM563 1053q0 -11 -55 -22t-80 -19t-25 -21v-143l23 -74l-23 -96l23 -115l18 -102q0 -43 -9 -80t-9 -51v-58q0 -12 -11.5 -21t-11.5 -35q0 -36 22 -57.5t36 -21.5l45 -12q57 -27 57 -86q0 -25 -33.5 -40t-68.5 -15h-113l-76 22q-22 0 -81.5 -20.5t-71.5 -20.5t-34 13.5
t-22 31.5t24 35.5t51.5 35t47 38t13.5 51.5q-16 31 -8 46t8 30v489l-23 56l23 98q0 70 -23 102q-15 16 -50.5 18.5t-49.5 10.5q-31 18 -31 68q0 51 18 51h113q22 0 36.5 -6.5t27.5 -10.5q30 0 108 17h23q12 0 28 16l107 -16q11 0 34 -29.5t23 -56.5z" />
    <glyph glyph-name="Iacute" unicode="&#xcd;" horiz-adv-x="598" 
d="M631 1958q21 0 24.5 -22.5t3.5 -39.5v-73q0 -49 -18 -71.5t-35.5 -38t-44.5 -42.5t-46 -54.5t-39 -48.5t-25 -34.5t-19 -30.5q-14 -25 -28.5 -40t-36.5 -41.5t-32 -50.5q-19 -46 -35.5 -73.5t-43.5 -27.5t-47.5 16.5t-20.5 39.5t10.5 36.5t22.5 44.5q0 16 13.5 37.5
t21.5 36.5q0 35 11.5 52t11.5 46t9 44t9 28q25 31 47.5 62.5t48.5 58.5q29 39 56.5 77.5t56.5 69.5q41 0 57 23q16 0 31.5 8t36.5 8zM563 1053q0 -11 -55 -22t-80 -19t-25 -21v-143l23 -74l-23 -96l23 -115l18 -102q0 -43 -9 -80t-9 -51v-58q0 -12 -11.5 -21t-11.5 -35
q0 -36 22 -57.5t36 -21.5l45 -12q57 -27 57 -86q0 -25 -33.5 -40t-68.5 -15h-113l-76 22q-22 0 -81.5 -20.5t-71.5 -20.5t-34 13.5t-22 31.5t24 35.5t51.5 35t47 38t13.5 51.5q-16 31 -8 46t8 30v489l-23 56l23 98q0 70 -23 102q-15 16 -50.5 18.5t-49.5 10.5q-31 18 -31 68
q0 51 18 51h113q22 0 36.5 -6.5t27.5 -10.5q30 0 108 17h23q12 0 28 16l107 -16q11 0 34 -29.5t23 -56.5z" />
    <glyph glyph-name="Icircumflex" unicode="&#xce;" horiz-adv-x="598" 
d="M666 1383q0 -130 -62 -130q-33 0 -45 32t-17.5 49.5t-15.5 30.5t-23.5 37.5t-35.5 37.5q-41 162 -67.5 192.5t-51.5 53.5q-15 -15 -29 -52l-18 -41q-45 -38 -64.5 -72t-36 -55.5t-59.5 -54.5l-26 -27q-49 -49 -70.5 -77.5t-38.5 -42.5h-12q-16 0 -23.5 8t-15.5 8
q11 48 22 57l11 29q13 47 69 115l29 45q10 10 32.5 47t74.5 120.5t81 112.5t39.5 44.5t22.5 27.5l57 47l29 -29q12 -10 24.5 -32t26.5 -44t62.5 -83t62.5 -172l29 -45l16 -29q23 -81 23 -108zM563 1053q0 -11 -55 -22t-80 -19t-25 -21v-143l23 -74l-23 -96l23 -115l18 -102
q0 -43 -9 -80t-9 -51v-58q0 -12 -11.5 -21t-11.5 -35q0 -36 22 -57.5t36 -21.5l45 -12q57 -27 57 -86q0 -25 -33.5 -40t-68.5 -15h-113l-76 22q-22 0 -81.5 -20.5t-71.5 -20.5t-34 13.5t-22 31.5t24 35.5t51.5 35t47 38t13.5 51.5q-16 31 -8 46t8 30v489l-23 56l23 98
q0 70 -23 102q-15 16 -50.5 18.5t-49.5 10.5q-31 18 -31 68q0 51 18 51h113q22 0 36.5 -6.5t27.5 -10.5q30 0 108 17h23q12 0 28 16l107 -16q11 0 34 -29.5t23 -56.5z" />
    <glyph glyph-name="Idieresis" unicode="&#xcf;" horiz-adv-x="598" 
d="M608 1651q14 0 25.5 -12.5t20 -30t15.5 -37t19 -35.5t28.5 -26.5t40 -28.5t23.5 -43q0 -38 -42 -68t-55 -51t-27.5 -38t-40.5 -17t-36 16t-32 29q-16 14 -33.5 19t-34.5 28q-18 29 -26.5 40t-28.5 24t-36.5 17.5t-16.5 23.5t16.5 25.5t28.5 22.5q37 37 89 65
q52 29 58 38.5t12.5 17.5t12.5 14.5t20 6.5zM94 1614q8 -8 14.5 -20.5t11.5 -27t14 -32.5t25.5 -36.5t39 -51t22.5 -80.5q0 -19 -24.5 -31t-40 -18.5t-26.5 -18.5t-18.5 -25t-17.5 -28.5t-36 -15.5t-40 11t-26 26.5t-25 33t-33 27.5q-31 16 -65.5 67.5t-34.5 57.5
q5 56 79.5 74.5t77.5 21.5l31 39q27 35 45 35q19 0 27 -8zM563 1053q0 -11 -55 -22t-80 -19t-25 -21v-143l23 -74l-23 -96l23 -115l18 -102q0 -43 -9 -80t-9 -51v-58q0 -12 -11.5 -21t-11.5 -35q0 -36 22 -57.5t36 -21.5l45 -12q57 -27 57 -86q0 -25 -33.5 -40t-68.5 -15
h-113l-76 22q-22 0 -81.5 -20.5t-71.5 -20.5t-34 13.5t-22 31.5t24 35.5t51.5 35t47 38t13.5 51.5q-16 31 -8 46t8 30v489l-23 56l23 98q0 70 -23 102q-15 16 -50.5 18.5t-49.5 10.5q-31 18 -31 68q0 51 18 51h113q22 0 36.5 -6.5t27.5 -10.5q30 0 108 17h23q12 0 28 16
l107 -16q11 0 34 -29.5t23 -56.5z" />
    <glyph glyph-name="Eth" unicode="&#xd0;" horiz-adv-x="1998" 
d="M1309 483q-29 0 -29 -5v-85q0 -2 -6 -100t86 -98q33 0 101.5 16t138 54t123 101.5t53.5 157.5q0 4 -22.5 65.5t-22.5 94.5q-11 103 -138 162t-237 59q-47 0 -57.5 -22.5t-18.5 -73.5v-195l53 7h10l58 12q2 0 35 -12q35 22 65 22q29 0 37 -4t11 -24.5t-8.5 -70.5
t-82.5 -77q-56 16 -149 16zM2005 700v-34l4 -84l6 -76q-6 -12 -6 -33v-29q0 -51 -68.5 -158t-158.5 -149q2 1 -24 -21t-99.5 -72t-138.5 -50l-80 12q-30 0 -93.5 -17.5t-109.5 -17.5t-143 35l-74 -12l-47 6l-45 -6q-39 2 -79 1t-73 4t-54.5 19.5t-21.5 49.5q0 30 70 51.5
t187.5 57t117.5 95.5v195l-22 -6h-11l-92 -6h-10l-35 -4q-23 0 -48.5 -1t-53.5 11l-29 12q-12 16 6.5 45t44.5 45q59 10 123 23.5t123 17.5q-6 166 -6 215v12q0 68 -34 68q-63 0 -241.5 -51t-210.5 -72q-94 -61 -183 -152t-89 -173q0 -131 -69.5 -155t-100.5 -24h-41
q-8 0 -34.5 25t-26.5 45q0 171 51 267.5t221 238.5q-4 -8 28 12.5t119 74.5t143 61t205.5 52.5t246.5 45.5h32q35 0 81 14t85 18l37 -2q8 -2 13 -2h15q16 0 44 4l28 -4h148l29 4q34 0 74 -20.5t62.5 -32.5t40.5 -21t63.5 -53.5t124.5 -141t79 -157.5z" />
    <glyph glyph-name="Ntilde" unicode="&#xd1;" horiz-adv-x="1673" 
d="M422 1229h-41v28l12 86q0 75 62 115q25 0 41 10q16 14 28.5 27.5t28.5 13.5q63 0 102 -18h15q14 0 18 -4q16 0 36.5 -10.5t43.5 -18.5q27 -16 89.5 -59t144.5 -43h50q49 0 54.5 31t14.5 47t2 40t-7 40t-6 20t-6 28t22.5 40t57.5 16t57 -25q23 -8 32 -16t19 -16
q13 -18 13 -65q0 -85 -64 -153q-10 -8 -17 -23t-18 -28q-111 -73 -215 -73q-63 0 -121.5 28.5t-92.5 46t-70 27.5l-80 12q-97 0 -160 -69q-16 -4 -22.5 -19.5t-22.5 -15.5zM131 1151h193q58 0 79 -18q27 -16 34 -29.5t24 -28.5q14 -41 42.5 -50t53.5 -29.5t48.5 -50.5
t48 -62.5t47 -63.5t44.5 -51q31 -35 52.5 -73t68.5 -62q12 -10 118 -122t139 -112q34 0 34 5l-6 51v153q0 18 11.5 43t11.5 60v172q-12 9 -51 49.5t-48 40.5h-39q-36 0 -64 26.5t-28 30.5v64q0 52 40 54.5t52 2.5h39l178 -18h285q41 0 77 -18.5t36 -56.5t-17 -63
q-47 -29 -91 -25.5t-85 3.5l-57 -17h-35q-16 0 -27.5 -23.5t-11.5 -49.5v-314l16 -73v-115l-34 -199q0 -22 17 -74.5t17 -72.5q0 -121 -34 -121h-59q-60 0 -60 18q-29 29 -48.5 70t-47.5 66q-26 35 -64.5 71.5t-56 57t-35.5 60.5t-64.5 87t-98.5 94t-102 95.5t-81 99.5
q0 31 -30 54.5t-44 23.5q-39 0 -39 -62v-233l17 -115l-7 -102q0 -84 157 -104.5t157 -80.5q0 -24 -10.5 -27t-24.5 -3h-233l-132 -19q-22 19 -79 19h-39q-43 0 -63.5 11t-51.5 11h-74l-16 -22h-41l-2 65q-2 23 -2 43t18.5 32.5t42.5 12.5h8l22 1l30 1l129 2q24 0 37.5 25
t13.5 51q-12 24 -12 50q0 45 -11.5 77.5t-11.5 65.5t23 102v137q0 38 -23 62q0 34 23 34q-3 12 -21 49.5t-18 47.5q0 43 -33 65.5t-73 43t-72.5 47t-32.5 77.5q30 76 57 76z" />
    <glyph glyph-name="Ograve" unicode="&#xd2;" horiz-adv-x="1234" 
d="M256 1935q37 -59 63 -73q23 -16 42.5 -40t63.5 -72t99 -132q6 -2 13.5 -13.5t22.5 -34t26 -22.5q6 -16 41 -66t39 -93q14 -4 15 -13.5t13 -9.5q10 -12 2 -28t-12 -34t-31 -34.5t-47 -13.5q-31 5 -73 56t-59 75q-17 25 -35.5 39t-39.5 46t-39 73.5t-47 94.5q-6 50 -51 138
t-57 112q-12 35 6 48t45 -3zM604 973q-50 0 -137 18q-62 0 -128.5 -146t-66.5 -196v-160q0 -29 36 -87t130.5 -161.5t182.5 -103.5h38q96 0 190.5 88t94.5 197v192q0 67 -29.5 104.5t-54 67t-51.5 80.5q-16 12 -66 59.5t-100 47.5h-39zM506 1151h137l74 -18h41q27 -9 48 -17
t39.5 -15t24.5 -14q31 -16 70.5 -26.5t61.5 -32.5t39.5 -57t33.5 -49q109 -92 109 -211l-6 -136v-57q0 -49 -129 -307q-22 -67 -121 -115q-55 -43 -103.5 -77.5t-107.5 -34.5l-113 10l-80 -6h-35q-39 0 -78 16t-81 36t-100 49.5t-93 98.5q-114 270 -114 426q0 42 18 83.5
t27 70.5q0 49 34 115q0 20 67 112t103 92l58 23q61 0 104 20q42 20 72 21z" />
    <glyph glyph-name="Oacute" unicode="&#xd3;" horiz-adv-x="1234" 
d="M694 1579q0 29 8.5 44t8.5 28q27 31 49 62.5t49 58.5q29 39 56.5 77.5t56.5 69.5q41 0 57 23l63 16q25 0 29 -22.5t4 -39.5v-73q0 -50 -18.5 -72t-35.5 -37.5t-44 -42.5t-46.5 -54.5t-39.5 -48.5t-24.5 -34.5t-18.5 -30.5q-14 -25 -28.5 -40t-36.5 -40t-38 -64.5t-31 -64
t-42 -24.5t-47.5 16.5t-20.5 39.5t10.5 36.5t22.5 44.5q0 22 35 74q0 35 11 52t11 46zM604 973q-50 0 -137 18q-62 0 -128.5 -146t-66.5 -196v-160q0 -29 36 -87t130.5 -161.5t182.5 -103.5h38q96 0 190.5 88t94.5 197v192q0 67 -29.5 104.5t-54 67t-51.5 80.5
q-16 12 -66 59.5t-100 47.5h-39zM506 1151h137l74 -18h41q27 -9 48 -17t39.5 -15t24.5 -14q31 -16 70.5 -26.5t61.5 -32.5t39.5 -57t33.5 -49q109 -92 109 -211l-6 -136v-57q0 -49 -129 -307q-22 -67 -121 -115q-55 -43 -103.5 -77.5t-107.5 -34.5l-113 10l-80 -6h-35
q-39 0 -78 16t-81 36t-100 49.5t-93 98.5q-114 270 -114 426q0 42 18 83.5t27 70.5q0 49 34 115q0 20 67 112t103 92l58 23q61 0 104 20q42 20 72 21z" />
    <glyph glyph-name="Ocircumflex" unicode="&#xd4;" horiz-adv-x="1234" 
d="M973 1383q0 -130 -62 -130q-33 0 -45 32t-17 49.5t-15 30.5t-23.5 37.5t-36.5 37.5q-41 162 -67.5 192.5t-51.5 53.5q-17 -17 -28 -52l-19 -41q-48 -41 -65 -73.5t-33 -54t-59 -54.5l-29 -27q-46 -46 -67 -75t-42 -45h-12q-16 0 -23.5 8t-15.5 8q11 48 23 57l12 29
q11 48 68 115l28 45q12 12 84.5 130.5t102.5 148.5t40.5 45.5t22.5 27.5l57 47l29 -29q14 -12 40 -55q25 -43 73 -102t63 -174l29 -45l16 -29q23 -81 23 -108zM604 973q-50 0 -137 18q-62 0 -128.5 -146t-66.5 -196v-160q0 -29 36 -87t130.5 -161.5t182.5 -103.5h38
q96 0 190.5 88t94.5 197v192q0 67 -29.5 104.5t-54 67t-51.5 80.5q-16 12 -66 59.5t-100 47.5h-39zM506 1151h137l74 -18h41q27 -9 48 -17t39.5 -15t24.5 -14q31 -16 70.5 -26.5t61.5 -32.5t39.5 -57t33.5 -49q109 -92 109 -211l-6 -136v-57q0 -49 -129 -307
q-22 -67 -121 -115q-55 -43 -103.5 -77.5t-107.5 -34.5l-113 10l-80 -6h-35q-39 0 -78 16t-81 36t-100 49.5t-93 98.5q-114 270 -114 426q0 42 18 83.5t27 70.5q0 49 34 115q0 20 67 112t103 92l58 23q61 0 104 20q42 20 72 21z" />
    <glyph glyph-name="Otilde" unicode="&#xd5;" horiz-adv-x="1234" 
d="M221 1229h-39v28q0 27 6.5 43.5t6.5 42.5q0 79 61 115q24 0 41 10q16 14 27.5 27.5t27.5 13.5q66 0 103 -18h20t14 -4q16 0 37 -10.5t43 -18.5q27 -16 88.5 -59t142.5 -43h52q51 0 56 30.5t14 53.5q10 10 3 34t-7 40t-6.5 20t-6.5 28t22.5 40t57.5 16t57 -25
q23 -8 32 -16t20 -16q10 -18 10 -85t-62 -133q-10 -8 -17 -23t-17 -28q-116 -73 -217 -73q-60 0 -120.5 28.5t-94 46t-70.5 27.5l-80 12q-95 0 -158 -69q-16 -4 -22 -19.5t-25 -15.5zM604 973q-50 0 -137 18q-62 0 -128.5 -146t-66.5 -196v-160q0 -29 36 -87t130.5 -161.5
t182.5 -103.5h38q96 0 190.5 88t94.5 197v192q0 67 -29.5 104.5t-54 67t-51.5 80.5q-16 12 -66 59.5t-100 47.5h-39zM506 1151h137l74 -18h41q27 -9 48 -17t39.5 -15t24.5 -14q31 -16 70.5 -26.5t61.5 -32.5t39.5 -57t33.5 -49q109 -92 109 -211l-6 -136v-57
q0 -49 -129 -307q-22 -67 -121 -115q-55 -43 -103.5 -77.5t-107.5 -34.5l-113 10l-80 -6h-35q-39 0 -78 16t-81 36t-100 49.5t-93 98.5q-114 270 -114 426q0 42 18 83.5t27 70.5q0 49 34 115q0 20 67 112t103 92l58 23q61 0 104 20q42 20 72 21z" />
    <glyph glyph-name="Odieresis" unicode="&#xd6;" horiz-adv-x="1234" 
d="M909 1651q14 0 25.5 -12.5t20 -30t16.5 -37t20 -35.5t27.5 -26.5t39 -28.5t23.5 -43q0 -38 -42 -68t-54 -51q-31 -55 -63 -55q-31 0 -41.5 16t-32.5 29q-16 14 -33.5 19t-34.5 28q-16 29 -24 40t-39 27q-12 10 -28.5 14.5t-16.5 23.5t16.5 25.5t28.5 22.5q43 41 92 67
q49 27 55 36.5t12.5 17.5t12.5 14.5t20 6.5zM372 1622q14 0 22.5 -8t15 -20.5t11.5 -27t14 -32.5t25.5 -36.5t40 -50t23.5 -81.5q0 -19 -24.5 -31t-41 -18.5t-27.5 -18.5t-18 -25t-17.5 -28.5t-35.5 -15.5q-36 0 -69.5 43.5t-58.5 56.5q-25 14 -60 63t-34 66t14.5 32
t34 24.5t45 15.5t42.5 12t29.5 19.5t22 27t21.5 23.5t25 10zM604 973q-50 0 -137 18q-62 0 -128.5 -146t-66.5 -196v-160q0 -29 36 -87t130.5 -161.5t182.5 -103.5h38q96 0 190.5 88t94.5 197v192q0 67 -29.5 104.5t-54 67t-51.5 80.5q-16 12 -66 59.5t-100 47.5h-39z
M506 1151h137l74 -18h41q27 -9 48 -17t39.5 -15t24.5 -14q31 -16 70.5 -26.5t61.5 -32.5t39.5 -57t33.5 -49q109 -92 109 -211l-6 -136v-57q0 -49 -129 -307q-22 -67 -121 -115q-55 -43 -103.5 -77.5t-107.5 -34.5l-113 10l-80 -6h-35q-39 0 -78 16t-81 36t-100 49.5
t-93 98.5q-114 270 -114 426q0 42 18 83.5t27 70.5q0 49 34 115q0 20 67 112t103 92l58 23q61 0 104 20q42 20 72 21z" />
    <glyph glyph-name="multiply" unicode="&#xd7;" horiz-adv-x="927" 
d="M422 711q28 -34 74 12q19 29 77 89q77 80 96 89q19 8 37 -11q16 -19 36 -39t26 -37t-16 -34q-12 -16 -36 -38q-119 -110 -134 -128q-18 -12 -20 -34t13 -33q39 -39 61 -65t51 -34t53 -4t28 -10t-12 -39t-23 -38t-19 -24l-17 -17q-5 -5 -9 -15q-39 -29 -61 0l-42 42
q-19 19 -36 41q-66 90 -105 60q-14 -4 -23 -15t-31 -36t-58 -71t-62 -72q-27 -25 -71 18q-51 73 -29 97q39 39 77 79t77 74q14 16 19 28l9 23q4 19 2 21q-18 13 -30 31q-14 19 -30 35t-22 28q-24 20 -32 22t-29 11q-39 -4 -59 12q-20 15 -4 33t28 36q44 61 109 78
q14 4 25 -8t35 -48t43 -65q18 -30 34 -44z" />
    <glyph glyph-name="Oslash" unicode="&#xd8;" horiz-adv-x="1257" 
d="M627 963q-32 0 -138 22q-35 0 -67.5 -48t-60 -107.5t-44 -116t-16.5 -70.5v-160q0 -47 92 -170q24 42 66.5 110.5t42.5 82.5q39 42 101.5 164.5t80.5 144.5q16 29 30.5 56.5t37.5 56.5q-23 12 -43.5 23.5t-42.5 11.5h-39zM684 131q94 0 189.5 87t95.5 198v192
q0 61 -28 97t-50.5 64t-48.5 73q-49 -68 -97 -158t-73 -127q-7 -29 -61.5 -130t-75.5 -114q0 -24 -26.5 -50.5t-29.5 -41.5q95 -90 170 -90h35zM1206 700v-194q0 -50 -63.5 -171.5t-71.5 -135.5q-21 -63 -115 -109q-59 -41 -108 -77t-109 -36l-112 7l-80 -7h-35
q-33 0 -86 23q-27 8 -55 23h-13q-13 -47 -24.5 -61.5t-24 -29t-29.5 -39.5t-42 -29.5t-39 -0.5l-17 28q17 61 51 97q3 14 8.5 22t8.5 20q4 13 11 21t11 17q-35 23 -62.5 47.5t-57.5 94.5q-102 243 -101 398q0 39 15.5 80t23.5 70q0 42 35 112q0 24 67 114.5t109 90.5l57 29
q58 0 86 18q27 8 47.5 15.5t43.5 7.5h131l73 -19h47l52 -22q17 47 35 77.5t26 53.5q25 0 73 21t64 23t51 -50q-6 -23 -22 -48.5t-23 -47.5q-14 -20 -26 -27.5t-25 -24.5q0 -26 -6 -39q12 -10 24.5 -16t20.5 -18q8 -6 32.5 -45.5t37.5 -44.5q72 -59 89 -117t17 -101z" />
    <glyph glyph-name="Ugrave" unicode="&#xd9;" horiz-adv-x="1280" 
d="M268 1935q28 -55 62 -73q29 -20 80 -86q78 -84 125 -158q7 -2 29.5 -36t33.5 -34q6 -16 18.5 -34.5t35.5 -53t26 -71.5q12 -4 13 -13.5t16 -9.5q8 -12 -0.5 -28t-12.5 -34t-31 -34.5t-47 -13.5q-29 4 -76.5 61.5t-59.5 76.5q-13 18 -30.5 32t-33.5 42q-27 35 -44.5 77
t-47.5 95q-5 46 -107 250q-14 35 5 48t46 -3zM889 752v96l-19 115v38q0 23 -14 30t-34 11t-37 8.5t-17 23.5q0 32 26.5 68t53.5 36q93 -45 172 -45h80q20 0 47 5t66.5 3.5t39.5 -66.5q22 -75 0 -90h-98q-25 0 -40 -25.5t-15 -54.5q-25 -77 0 -96l-25 -74q15 -24 25 -98
l-25 -96v-39q0 -12 -16 -80q0 -17 8 -36t8 -22v-34q0 -29 -4 -39q-12 -12 -12 -41t-23.5 -58.5t-50.5 -76.5q0 -27 -25.5 -46.5t-54.5 -45.5q-40 -46 -93 -69.5t-119 -28.5t-98 -5q-84 0 -174.5 22.5t-129.5 57.5l-41 57q-31 45 -74 154v137q0 29 -11 58.5t-11 76.5v115
l22 96q-22 106 -22 115l22 80v112q0 23 -54 36.5t-78 20.5t-21 17q0 27 22.5 53.5t50.5 26.5l99 23h38q12 0 48 -11.5t67 -11.5h170q39 0 39 -39t-12.5 -56.5t-31.5 -22.5t-40.5 -5t-53.5 -15t-32 -112l16 -96v-502q-12 -27 -6 -34t6 -23l23 -55q37 -58 77.5 -78.5
t133.5 -20.5q36 0 115 41q6 14 19 27.5t44.5 54t73.5 146.5v79l16 267q-16 24 -16 41z" />
    <glyph glyph-name="Uacute" unicode="&#xda;" horiz-adv-x="1280" 
d="M735 1579q0 29 8.5 44t8.5 28q27 31 49 62.5t47 58.5q31 39 57.5 77.5t57.5 69.5q38 0 57 23q16 0 30 8t36 8q30 0 30 -62v-73q0 -50 -18.5 -72t-37 -37.5t-40.5 -40.5q-31 -29 -49.5 -56.5t-48.5 -55.5q-12 -14 -16.5 -27.5t-18.5 -34.5t-27.5 -36t-34 -39t-32.5 -50
q-21 -48 -38 -76t-43 -28t-47.5 16.5t-21.5 39.5t10.5 36.5t24.5 44.5q0 19 33 74q0 35 12 52t12 46zM889 752v96l-19 115v38q0 23 -14 30t-34 11t-37 8.5t-17 23.5q0 32 26.5 68t53.5 36q93 -45 172 -45h80q20 0 47 5t66.5 3.5t39.5 -66.5q22 -75 0 -90h-98
q-25 0 -40 -25.5t-15 -54.5q-25 -77 0 -96l-25 -74q15 -24 25 -98l-25 -96v-39q0 -12 -16 -80q0 -17 8 -36t8 -22v-34q0 -29 -4 -39q-12 -12 -12 -41t-23.5 -58.5t-50.5 -76.5q0 -27 -25.5 -46.5t-54.5 -45.5q-40 -46 -93 -69.5t-119 -28.5t-98 -5q-84 0 -174.5 22.5
t-129.5 57.5l-41 57q-31 45 -74 154v137q0 29 -11 58.5t-11 76.5v115l22 96q-22 106 -22 115l22 80v112q0 23 -54 36.5t-78 20.5t-21 17q0 27 22.5 53.5t50.5 26.5l99 23h38q12 0 48 -11.5t67 -11.5h170q39 0 39 -39t-12.5 -56.5t-31.5 -22.5t-40.5 -5t-53.5 -15t-32 -112
l16 -96v-502q-12 -27 -6 -34t6 -23l23 -55q37 -58 77.5 -78.5t133.5 -20.5q36 0 115 41q6 14 19 27.5t44.5 54t73.5 146.5v79l16 267q-16 24 -16 41z" />
    <glyph glyph-name="Ucircumflex" unicode="&#xdb;" horiz-adv-x="1280" 
d="M1001 1385q0 -132 -61 -132q-33 0 -45 32t-17.5 49.5t-15.5 30.5t-23.5 37.5t-35.5 37.5q-41 162 -67.5 192.5t-51.5 53.5q-19 -19 -29 -52l-18 -41q-51 -43 -66.5 -74.5t-32 -53t-59.5 -54.5l-28 -27q-49 -49 -70.5 -77.5t-38.5 -42.5h-12q-16 0 -23.5 8t-15.5 8
q11 48 22 57l11 29q13 47 69 115l29 45q10 10 32.5 47t72 118t81.5 113t41.5 47t22.5 27l57 47l29 -29q12 -10 24.5 -32t26.5 -44t62.5 -83t62.5 -172l29 -45l16 -29q22 -77 22 -106zM889 752v96l-19 115v38q0 23 -14 30t-34 11t-37 8.5t-17 23.5q0 32 26.5 68t53.5 36
q93 -45 172 -45h80q20 0 47 5t66.5 3.5t39.5 -66.5q22 -75 0 -90h-98q-25 0 -40 -25.5t-15 -54.5q-25 -77 0 -96l-25 -74q15 -24 25 -98l-25 -96v-39q0 -12 -16 -80q0 -17 8 -36t8 -22v-34q0 -29 -4 -39q-12 -12 -12 -41t-23.5 -58.5t-50.5 -76.5q0 -27 -25.5 -46.5
t-54.5 -45.5q-40 -46 -93 -69.5t-119 -28.5t-98 -5q-84 0 -174.5 22.5t-129.5 57.5l-41 57q-31 45 -74 154v137q0 29 -11 58.5t-11 76.5v115l22 96q-22 106 -22 115l22 80v112q0 23 -54 36.5t-78 20.5t-21 17q0 27 22.5 53.5t50.5 26.5l99 23h38q12 0 48 -11.5t67 -11.5h170
q39 0 39 -39t-12.5 -56.5t-31.5 -22.5t-40.5 -5t-53.5 -15t-32 -112l16 -96v-502q-12 -27 -6 -34t6 -23l23 -55q37 -58 77.5 -78.5t133.5 -20.5q36 0 115 41q6 14 19 27.5t44.5 54t73.5 146.5v79l16 267q-16 24 -16 41z" />
    <glyph glyph-name="Udieresis" unicode="&#xdc;" horiz-adv-x="1280" 
d="M948 1651q14 0 25.5 -12.5t19.5 -30t16.5 -37t20.5 -35.5t28.5 -26.5t40 -28.5t23.5 -43q0 -38 -44 -69.5t-55 -50.5q-11 -20 -25.5 -37t-41 -17t-36 16t-31.5 29q-16 14 -34.5 19t-35.5 28q-16 29 -24.5 40t-29.5 24t-37.5 17.5t-16.5 23.5t16.5 25.5t41.5 32.5t78 55
q52 29 58 38.5t11.5 17.5t11.5 14.5t20 6.5zM414 1622q14 0 22 -8t14.5 -20.5t11.5 -27t14 -32.5t24.5 -36.5t39 -50t23.5 -81.5q0 -19 -24.5 -31t-40 -18.5t-26.5 -18.5t-18.5 -25t-17.5 -28.5t-36 -15.5q-37 0 -70.5 43.5t-58.5 56.5q-25 14 -60 63t-34 66t15.5 32
t34 24.5t44 15.5t43.5 12t29.5 19.5l21 27t23 23.5t26.5 10zM889 752v96l-19 115v38q0 23 -14 30t-34 11t-37 8.5t-17 23.5q0 32 26.5 68t53.5 36q93 -45 172 -45h80q20 0 47 5t66.5 3.5t39.5 -66.5q22 -75 0 -90h-98q-25 0 -40 -25.5t-15 -54.5q-25 -77 0 -96l-25 -74
q15 -24 25 -98l-25 -96v-39q0 -12 -16 -80q0 -17 8 -36t8 -22v-34q0 -29 -4 -39q-12 -12 -12 -41t-23.5 -58.5t-50.5 -76.5q0 -27 -25.5 -46.5t-54.5 -45.5q-40 -46 -93 -69.5t-119 -28.5t-98 -5q-84 0 -174.5 22.5t-129.5 57.5l-41 57q-31 45 -74 154v137q0 29 -11 58.5
t-11 76.5v115l22 96q-22 106 -22 115l22 80v112q0 23 -54 36.5t-78 20.5t-21 17q0 27 22.5 53.5t50.5 26.5l99 23h38q12 0 48 -11.5t67 -11.5h170q39 0 39 -39t-12.5 -56.5t-31.5 -22.5t-40.5 -5t-53.5 -15t-32 -112l16 -96v-502q-12 -27 -6 -34t6 -23l23 -55
q37 -58 77.5 -78.5t133.5 -20.5q36 0 115 41q6 14 19 27.5t44.5 54t73.5 146.5v79l16 267q-16 24 -16 41z" />
    <glyph glyph-name="Yacute" unicode="&#xdd;" horiz-adv-x="1308" 
d="M1100 1896v-73q0 -48 -18.5 -71t-37 -38.5t-45.5 -42.5t-46 -54.5t-39 -48.5t-24.5 -34.5t-19.5 -30.5q-14 -25 -28.5 -40t-36.5 -41.5t-32 -50.5q-21 -51 -37 -76t-43 -25q-26 0 -46 16.5t-20 39.5t10 36.5t22 44.5q0 16 13.5 37.5t21.5 36.5q0 35 11.5 52t11.5 46t9 44
t9 28q25 31 47.5 62.5t48.5 58.5q29 39 56.5 77.5t56.5 69.5q41 0 57 23l64 16q27 0 31 -22.5t4 -39.5zM1131.5 1144q20.5 11 39.5 11q28 0 74.5 -12.5t46.5 -20.5q0 -47 -26.5 -74.5t-69.5 -27.5h-63q-67 0 -75.5 -47t-15.5 -68q-10 -12 -18 -24.5t-23 -20.5
q-8 -14 -19 -26t-21 -30q-47 -83 -91.5 -193.5t-44.5 -188.5v-74l-10 -57q0 -55 12.5 -85t20.5 -30q14 -8 144 -41t130 -77q0 -35 -22 -35q-18 -16 -31.5 -22.5t-26.5 -23.5q-9 0 -23.5 -28.5t-31.5 -28.5q-18 0 -43.5 11.5t-54.5 11.5h-137q-63 0 -97 18h-92q-35 0 -51 -9
t-51 -9h-35q-72 0 -95.5 18.5t-23.5 63.5t18.5 78.5t61.5 33.5l96 -22q29 0 60 24t20 56l-22 227q0 16 -2 33.5t8 33.5l-12 52q0 43 -21.5 76.5t-69.5 76.5q-14 31 -54 57.5t-83 57.5q-12 29 -36.5 59.5t-37.5 59.5q-12 10 -26 14t-31 14q-39 10 -80 17q-73 29 -73 102
q0 35 15 57.5t58 22.5h99q29 0 55 -11t41 -11h96l131 -11h45q14 0 16.5 -3t2.5 -19.5t-38 -59t-38 -77.5q0 -51 149 -211q0 -8 13 -41t27 -33q13 0 27.5 20.5t27 47t22.5 50t19 29.5q0 12 39.5 73t39.5 80t-16 27.5t-51 29.5t-35 65q0 20 36 26.5t44 6.5q33 -11 57 -11h39
q43 11 105 11t82.5 11z" />
    <glyph glyph-name="Thorn" unicode="&#xde;" horiz-adv-x="1538" 
d="M1059 -6l-108 -10q-28 0 -171 22q-35 0 -53 -6t-23 -6h-32l-154 -6q-29 0 -29 39t35 68.5t74 29.5l61 12l52 4q14 0 30.5 16.5t16.5 30.5v33q0 8 1 17l8 54q7 46 7 56l-4 21q-2 8 -2 14t18 96v148v9l5 71q-7 115 18 182q0 84 -92 84q-29 0 -141.5 -51.5t-138.5 -51.5
t-62.5 -32.5t-89 -108t-52.5 -137.5q0 -23 34 -82.5t34 -80.5q0 -43 -50.5 -85.5t-84.5 -42.5t-82.5 36t-48.5 38q-16 35 -24.5 65.5t-22.5 65.5q2 0 2 4t-2 14q14 51 27.5 109.5t55.5 98.5t67.5 80t69 103.5t122.5 69.5q10 0 18 6t23 10l37 23q43 26 53 25h28q4 0 20.5 8
t58 27.5t81.5 19.5h74q35 0 57.5 30.5t22.5 61.5q-6 6 -6 57v84q-10 10 -11 19q-14 14 -73.5 17t-75.5 11q-29 29 -29 84q41 41 64 41h114q13 0 29 -9t27 -13q48 0 114 22h45q30 0 35 11l103 -11q16 0 39.5 -28.5t23.5 -57.5q0 -10 -28.5 -17t-62.5 -14.5t-62.5 -15.5
t-28.5 -20l-6 -35v-143q25 -39 80 -39l112 -29q74 0 100 -26q45 -43 101 -64q47 -39 65.5 -84t17.5 -57q-2 -23 5.5 -67.5t7.5 -64.5q0 -92 -63 -235q-16 -35 -52 -61.5t-61 -51.5q-25 -8 -41 -24q-41 -10 -80 -17q-25 0 -30 3.5t-9 3.5l-16 -7q-23 0 -49.5 11.5t-26.5 32.5
t17.5 30.5t42 18t55.5 18.5t73 48.5t42 148.5q0 10 -8.5 31.5t1.5 59.5t-19.5 72.5t-75.5 63.5t-94 46t-74 17t-33 -8t-10 -48t-3 -53t4 -20t4 -49.5t-18 -253.5q0 -23 8 -62.5t8 -74.5l-4 -131v-51q0 -43 42 -66.5t77 -23.5h23q31 0 72.5 -26t41.5 -54q0 -10 -4.5 -24.5
t-30.5 -10.5t-56 -4t-42 -8h-12q-13 0 -43 6z" />
    <glyph glyph-name="germandbls" unicode="&#xdf;" horiz-adv-x="1019" 
d="M-320 -608l110 16q67 0 67 29q21 9 24 12l25 25q21 21 40 27.5t19 37.5q41 114 41 189l29 22v154q4 16 18.5 47t14.5 43l92 694q8 33 14 70t13.5 73.5t16.5 71.5t25 69t81 139t65 122t41 82q33 39 65.5 82t91 117t121.5 120q55 48 172 86l158 62q21 -6 77 -7
q92 -2 172.5 -94.5t76.5 -167.5l-13 -141q-18 -26 -41.5 -84t-60.5 -104q0 -43 -35 -82t-79 -89t-91 -85q-29 -33 -60.5 -65t-80 -87t-64.5 -127q0 -12 -19.5 -33.5t-19.5 -36.5q0 -32 38 -73.5t42 -50.5q18 -43 37 -64.5t48.5 -54t12 -97t-50 -102t-71.5 -86.5
q-18 -44 -45 -54.5t-44.5 -16t-35.5 -15.5h-33q-31 -12 -48.5 -22.5t-27.5 -10.5q-12 -14 -25.5 -12t-29.5 6l-21 -12q-16 -10 -36 -10t-35 21.5t-13 42.5t14.5 55t16.5 57q94 29 140 29t75 16q19 0 70 51q4 27 -17.5 61.5t-56.5 50.5q-65 30 -95 115t-26 160q0 5 32 64.5
t91 154t76 107.5q43 13 109 84q16 23 41.5 55.5t54.5 71.5q14 25 37.5 37t54.5 41q45 152 47 197q2 46 -31.5 92t-76.5 46q-43 -1 -102 -39t-105 -38q-58 -31 -189 -150q-52 -52 -73 -135q-16 -14 -37 -28.5t-25 -41.5q-26 -19 -81.5 -128t-55.5 -150v-13l2 -57
q0 -45 -17 -102.5t-19 -90.5q-1 -34 -9 -72t-17.5 -79t-17.5 -75.5t-8 -62.5t-23 -136q0 -25 -28 -109q0 -14 11 -29.5t7 -27.5l-29 -189q0 -69 -24.5 -159t-38.5 -125q-29 -25 -47.5 -54.5t-32.5 -42.5q-29 -39 -66.5 -71.5t-64.5 -71.5q-16 -12 -32.5 -25.5t-28.5 -13.5
q-23 -23 -118 -64.5t-151 -37.5l-166 6q-22 4 -35 43t6 78t39.5 68.5t43 58t39.5 53.5l57 -6l51 12q12 0 26.5 -8t34.5 -8z" />
    <glyph glyph-name="agrave" unicode="&#xe0;" horiz-adv-x="780" 
d="M68 1935q37 -59 63 -73q35 -25 80 -86q57 -60 125 -158q6 -2 26.5 -36t36.5 -34q7 -18 42 -68.5t38 -90.5q12 -4 13.5 -13.5t13.5 -9.5q10 -12 2 -28t-12 -34t-32 -34.5t-47 -13.5q-47 7 -133 133q-16 23 -33.5 37t-33.5 42q-27 35 -44 77t-48 95q-7 61 -109 250
q-12 35 7.5 48t44.5 -3zM246 484q0 -16 -2 -43t2 -57t15 -53.5t39 -23.5t63.5 47t67.5 106.5t53.5 111t21.5 60.5t2 41t-7 84.5t-75 6.5q-70 -59 -111 -126t-55 -102.5t-14 -51.5zM768 899q0 -31 -57 -221q0 -42 -17 -80q-16 -12 -16 -19v-61l-6 -108v-80q0 -90 39 -90
l28 45q12 10 28.5 25.5t34.5 30.5t36 34q12 0 20 -10.5t8 -22.5q-16 -32 -24 -41q-20 -57 -66.5 -106.5t-74 -78t-52.5 -65.5l-45 -63q0 -42 -39.5 -70t-58.5 14q-12 37 -12 73t6 70t12 64.5t6 59.5v114q0 17 -17.5 17t-42 -36t-86 -126t-77.5 -107q-16 -18 -29.5 -33.5
t-41.5 -41t-56 -25.5q-49 0 -71.5 61.5t-22.5 102.5l-6 147l28 240q0 17 23.5 79t50.5 93q58 56 100 114t66 74.5t49 25.5t49.5 14.5t54.5 21.5q16 0 68 39h92l39 18q80 0 80 -92z" />
    <glyph glyph-name="aacute" unicode="&#xe1;" horiz-adv-x="780" 
d="M569 1579q0 29 8.5 44t8.5 28q27 31 49 62.5t49 58.5q29 39 56.5 77.5t56.5 69.5q41 0 57 23q16 0 30.5 8t36.5 8t25.5 -22.5t3.5 -39.5v-73q0 -50 -18.5 -72t-35.5 -37.5t-44 -42.5t-46.5 -54.5t-40.5 -48.5t-25.5 -34.5t-17.5 -34.5t-27.5 -36t-36 -39.5t-31.5 -50.5
q-42 -103 -81 -103q-26 0 -46.5 16.5t-20.5 39.5t10.5 36.5t22.5 44.5q0 22 35 74q0 35 11 52t11 46zM246 484q0 -16 -2 -43t2 -57t15 -53.5t39 -23.5t63.5 47t67.5 106.5t53.5 111t21.5 60.5t2 41t-7 84.5t-75 6.5q-70 -59 -111 -126t-55 -102.5t-14 -51.5zM768 899
q0 -31 -57 -221q0 -42 -17 -80q-16 -12 -16 -19v-61l-6 -108v-80q0 -90 39 -90l28 45q12 10 28.5 25.5t34.5 30.5t36 34q12 0 20 -10.5t8 -22.5q-16 -32 -24 -41q-20 -57 -66.5 -106.5t-74 -78t-52.5 -65.5l-45 -63q0 -42 -39.5 -70t-58.5 14q-12 37 -12 73t6 70t12 64.5
t6 59.5v114q0 17 -17.5 17t-42 -36t-86 -126t-77.5 -107q-16 -18 -29.5 -33.5t-41.5 -41t-56 -25.5q-49 0 -71.5 61.5t-22.5 102.5l-6 147l28 240q0 17 23.5 79t50.5 93q58 56 100 114t66 74.5t49 25.5t49.5 14.5t54.5 21.5q16 0 68 39h92l39 18q80 0 80 -92z" />
    <glyph glyph-name="acircumflex" unicode="&#xe2;" horiz-adv-x="780" 
d="M893 1383q0 -130 -62 -130q-33 0 -45 32t-17 49.5t-15 30.5t-23.5 37.5t-36.5 37.5q-41 162 -67.5 192.5t-51.5 53.5q-17 -17 -28 -52l-17 -41q-45 -38 -64.5 -72t-35.5 -55.5t-59 -54.5l-29 -27q-47 -47 -67.5 -75.5t-41.5 -44.5h-12q-16 0 -22 8t-17 8q10 44 23 57
l12 29q11 48 68 115l28 45q12 12 84.5 130.5t102.5 148.5t40.5 45.5t22.5 27.5l58 47l28 -29q14 -12 40 -55q25 -43 45 -67.5t50 -74t41 -134.5l29 -45l16 -29q23 -81 23 -108zM246 484q0 -16 -2 -43t2 -57t15 -53.5t39 -23.5t63.5 47t67.5 106.5t53.5 111t21.5 60.5t2 41
t-7 84.5t-75 6.5q-70 -59 -111 -126t-55 -102.5t-14 -51.5zM768 899q0 -31 -57 -221q0 -42 -17 -80q-16 -12 -16 -19v-61l-6 -108v-80q0 -90 39 -90l28 45q12 10 28.5 25.5t34.5 30.5t36 34q12 0 20 -10.5t8 -22.5q-16 -32 -24 -41q-20 -57 -66.5 -106.5t-74 -78
t-52.5 -65.5l-45 -63q0 -42 -39.5 -70t-58.5 14q-12 37 -12 73t6 70t12 64.5t6 59.5v114q0 17 -17.5 17t-42 -36t-86 -126t-77.5 -107q-16 -18 -29.5 -33.5t-41.5 -41t-56 -25.5q-49 0 -71.5 61.5t-22.5 102.5l-6 147l28 240q0 17 23.5 79t50.5 93q58 56 100 114t66 74.5
t49 25.5t49.5 14.5t54.5 21.5q16 0 68 39h92l39 18q80 0 80 -92z" />
    <glyph glyph-name="atilde" unicode="&#xe3;" horiz-adv-x="780" 
d="M250 1229h-39v28l10 86q0 77 64 115q37 0 58.5 25.5t37.5 25.5q66 0 102 -18h15q16 0 20 -4q16 0 36.5 -10.5t43.5 -18.5q27 -16 87.5 -59t144.5 -43h50q51 0 56.5 30.5t13.5 53.5q10 10 2 34t-8 40t-5 20t-5 28t22.5 40t57.5 16t57 -25q23 -8 32 -16t19 -16
q11 -19 11 -86q0 -66 -62 -132q-10 -8 -17 -23t-18 -28q-116 -73 -217 -73q-63 0 -121.5 28.5t-92.5 46t-70 27.5l-80 12q-95 0 -158 -69q-18 -4 -24.5 -19.5t-22.5 -15.5zM246 484q0 -16 -2 -43t2 -57t15 -53.5t39 -23.5t63.5 47t67.5 106.5t53.5 111t21.5 60.5t2 41
t-7 84.5t-75 6.5q-70 -59 -111 -126t-55 -102.5t-14 -51.5zM768 899q0 -31 -57 -221q0 -42 -17 -80q-16 -12 -16 -19v-61l-6 -108v-80q0 -90 39 -90l28 45q12 10 28.5 25.5t34.5 30.5t36 34q12 0 20 -10.5t8 -22.5q-16 -32 -24 -41q-20 -57 -66.5 -106.5t-74 -78
t-52.5 -65.5l-45 -63q0 -42 -39.5 -70t-58.5 14q-12 37 -12 73t6 70t12 64.5t6 59.5v114q0 17 -17.5 17t-42 -36t-86 -126t-77.5 -107q-16 -18 -29.5 -33.5t-41.5 -41t-56 -25.5q-49 0 -71.5 61.5t-22.5 102.5l-6 147l28 240q0 17 23.5 79t50.5 93q58 56 100 114t66 74.5
t49 25.5t49.5 14.5t54.5 21.5q16 0 68 39h92l39 18q80 0 80 -92z" />
    <glyph glyph-name="adieresis" unicode="&#xe4;" horiz-adv-x="780" 
d="M780 1503q14 0 25.5 -12t20 -29.5t16.5 -37t20 -35.5t28.5 -26.5t39 -29.5t22.5 -44t-11 -38.5t-26.5 -25t-32 -23.5t-27.5 -32t-25.5 -37t-41 -17t-37 16.5t-32.5 28.5q-16 14 -33.5 19.5t-34.5 27.5q-16 29 -24.5 40.5t-29.5 24.5t-37.5 17t-16.5 24t16.5 26t42.5 33
t77 55q50 28 56 37.5t12.5 17.5t12.5 14t20 6zM312 1475q22 0 31 -29t24 -51q12 -25 27.5 -44.5t39 -52t23.5 -79.5q0 -18 -24.5 -30.5t-40 -20t-26.5 -18.5t-18.5 -24.5t-18 -29t-35.5 -15.5q-35 0 -70 43t-55 55q-27 16 -63 64.5t-35 66.5q2 36 35.5 51.5t104.5 33.5
q19 8 38 33.5t30 36t33 10.5zM246 484q0 -16 -2 -43t2 -57t15 -53.5t39 -23.5t63.5 47t67.5 106.5t53.5 111t21.5 60.5t2 41t-7 84.5t-75 6.5q-70 -59 -111 -126t-55 -102.5t-14 -51.5zM768 899q0 -31 -57 -221q0 -42 -17 -80q-16 -12 -16 -19v-61l-6 -108v-80q0 -90 39 -90
l28 45q12 10 28.5 25.5t34.5 30.5t36 34q12 0 20 -10.5t8 -22.5q-16 -32 -24 -41q-20 -57 -66.5 -106.5t-74 -78t-52.5 -65.5l-45 -63q0 -42 -39.5 -70t-58.5 14q-12 37 -12 73t6 70t12 64.5t6 59.5v114q0 17 -17.5 17t-42 -36t-86 -126t-77.5 -107q-16 -18 -29.5 -33.5
t-41.5 -41t-56 -25.5q-49 0 -71.5 61.5t-22.5 102.5l-6 147l28 240q0 17 23.5 79t50.5 93q58 56 100 114t66 74.5t49 25.5t49.5 14.5t54.5 21.5q16 0 68 39h92l39 18q80 0 80 -92z" />
    <glyph glyph-name="aring" unicode="&#xe5;" horiz-adv-x="780" 
d="M475 1466q0 -2 -1 -16t17 -37q37 -47 67 -47t63 36q32 36 36.5 85t-43.5 102q-11 17 -32 17q-39 16 -52 0q-24 -8 -30 -21.5t-8.5 -23t-8.5 -19.5l-10 -39l1 -7zM757 1373q-34 -77 -136 -116q-75 -48 -199 -16q-10 4 -21 19.5t-27 22.5q-50 21 -50 147q0 67 28 135
q35 66 77 106.5t95 75.5q35 14 82 9t76 -7t53.5 -24.5t31.5 -34.5q24 -41 24 -141q0 -99 -34 -176zM246 484q0 -16 -2 -43t2 -57t15 -53.5t39 -23.5t63.5 47t67.5 106.5t53.5 111t21.5 60.5t2 41t-7 84.5t-75 6.5q-70 -59 -111 -126t-55 -102.5t-14 -51.5zM768 899
q0 -31 -57 -221q0 -42 -17 -80q-16 -12 -16 -19v-61l-6 -108v-80q0 -90 39 -90l28 45q12 10 28.5 25.5t34.5 30.5t36 34q12 0 20 -10.5t8 -22.5q-16 -32 -24 -41q-20 -57 -66.5 -106.5t-74 -78t-52.5 -65.5l-45 -63q0 -42 -39.5 -70t-58.5 14q-12 37 -12 73t6 70t12 64.5
t6 59.5v114q0 17 -17.5 17t-42 -36t-86 -126t-77.5 -107q-16 -18 -29.5 -33.5t-41.5 -41t-56 -25.5q-49 0 -71.5 61.5t-22.5 102.5l-6 147l28 240q0 17 23.5 79t50.5 93q58 56 100 114t66 74.5t49 25.5t49.5 14.5t54.5 21.5q16 0 68 39h92l39 18q80 0 80 -92z" />
    <glyph glyph-name="ae" unicode="&#xe6;" horiz-adv-x="1314" 
d="M1053 774q0 20 -21 31q-8 6 -20 10l-35 4q-23 0 -57 -89q-12 -32 -17 -56.5t19 -24.5q25 -5 76 24.5t55 65.5v35zM246 484q0 -16 -2 -43t2 -57t15 -53.5t39 -23.5t63.5 47t67.5 106.5t53.5 111t21.5 60.5t2 41t-7 84.5t-75 6.5q-70 -59 -111 -126t-55 -102.5t-14 -51.5z
M500.5 330q-17.5 0 -42 -36t-86 -126t-77.5 -107q-16 -18 -29.5 -33.5t-41.5 -41t-56 -25.5q-49 0 -71.5 61.5t-22.5 102.5l-6 147l28 240q0 17 23.5 79t50.5 93q58 56 100 114t66 74.5t49 25.5t49.5 14.5t54.5 21.5q16 0 68 39h92l39 18q80 0 80 -92q0 -31 -57 -221
q0 -10 22 33q8 86 132 178t204 84q119 0 147 -115.5t-23.5 -158t-94.5 -66.5q-39 -27 -83 -47.5t-107 -61t-66 -125.5v-86q-4 -35 14 -68.5t47 -33.5q5 -5 53 28t56 40q31 14 48 23t25 5q14 0 24.5 -4t8.5 -40t-36.5 -78t-75.5 -77.5t-80 -62.5t-63 -49t-53.5 -23.5
t-53.5 -0.5t-44 15.5t-35 34t-23.5 40t-10.5 14.5q-6 27 -35 90l-33 82l-57 65q0 17 -17.5 17z" />
    <glyph glyph-name="ccedilla" unicode="&#xe7;" horiz-adv-x="575" 
d="M17 -598q-33 0 -33 18t12 34t31.5 28t42 24.5t45.5 26.5q12 12 17 34.5t39 56.5t34 59t-10.5 30.5t-24.5 18.5q-31 41 -47 41q-17 0 -26 -14.5t-17 -20.5t-22.5 -6t-24.5 13t-10 33t32.5 40t54.5 42t60 21q14 16 18.5 27.5t16.5 11.5q75 0 96 -16q10 0 14.5 -13.5
t18.5 -26.5t27.5 -28.5t13.5 -58.5q0 -87 -74 -193q-16 -12 -30.5 -18t-30.5 -33q-6 -21 -39.5 -40.5t-47.5 -34.5q-13 -15 -22.5 -23t-19 -13.5t-21.5 -9.5t-26 -7t-47 -3zM502 711h-29q-116 0 -137 -17q-16 0 -19.5 -10t-3.5 -25l-28 -45l-9 -45t-8 -38.5t-6 -24.5v-33
l-16 -57q-7 -15 -15 -27t-9 -24q-3 -36 22 -108t53 -75q31 0 63.5 24.5t64.5 54.5t61.5 53.5t57.5 20.5q45 -5 31 -38q-4 -51 -72.5 -135t-125.5 -119q-58 -35 -111 -63.5t-120 -24.5t-81 101.5t-14 113.5l6 18q0 8 -2 28t-3 41.5t-2 41.5t0 57t15.5 73t14.5 77l22 51v47
l68 205q0 23 48 66t79 43q16 5 16 11t17 11q40 5 75 18.5t65 9.5q73 -8 123.5 -39t43.5 -104q0 -37 -22.5 -67.5t-39 -40.5t-38.5 -8t-35 2z" />
    <glyph glyph-name="egrave" unicode="&#xe8;" horiz-adv-x="581" 
d="M68 1935q37 -59 63 -73q35 -25 80 -86q57 -60 125 -158q6 -2 26.5 -36t36.5 -34q7 -18 42 -68.5t38 -90.5q12 -4 13.5 -13.5t13.5 -9.5q10 -12 2 -28t-12 -34t-32 -34.5t-47 -13.5q-47 7 -133 133q-16 23 -33.5 37t-33.5 42q-27 35 -44 77t-48 95q-7 61 -109 250
q-12 35 7.5 48t44.5 -3zM479 774q0 21 -20 31q-8 6 -21 10l-35 4q-10 0 -25.5 -24t-26.5 -53q-17 -45 -21.5 -69t18.5 -24q25 -5 76 24.5t55 65.5v35zM496 973q158 0 154 -201q-1 -47 -42 -81t-84 -58q-39 -27 -83 -47.5t-107 -61.5t-66 -125v-86q-4 -35 14.5 -68.5
t47.5 -33.5q4 -4 52 28.5t56 39.5q31 14 48.5 23t25.5 5q14 0 24.5 -4t8.5 -40t-37 -78t-76 -77.5t-79.5 -62.5t-62.5 -49t-54 -23.5t-54 -0.5q-41 2 -77 47t-31 77v35q0 25 -17 45l6 41v33q0 17 10.5 90.5t15.5 111t7 50.5q8 6 8 8l-2 21q-2 20 7 32q0 25 8 45l43 103
q8 85 131 177.5t205 84.5z" />
    <glyph glyph-name="eacute" unicode="&#xe9;" horiz-adv-x="581" 
d="M569 1579q0 29 8.5 44t8.5 28q27 31 49 62.5t49 58.5q29 39 56.5 77.5t56.5 69.5q41 0 57 23q16 0 30.5 8t36.5 8t25.5 -22.5t3.5 -39.5v-73q0 -50 -18.5 -72t-35.5 -37.5t-44 -42.5t-46.5 -54.5t-40.5 -48.5t-25.5 -34.5t-17.5 -34.5t-27.5 -36t-36 -39.5t-31.5 -50.5
q-42 -103 -81 -103q-26 0 -46.5 16.5t-20.5 39.5t10.5 36.5t22.5 44.5q0 22 35 74q0 35 11 52t11 46zM479 774q0 21 -20 31q-8 6 -21 10l-35 4q-10 0 -25.5 -24t-26.5 -53q-17 -45 -21.5 -69t18.5 -24q25 -5 76 24.5t55 65.5v35zM496 973q158 0 154 -201q-1 -47 -42 -81
t-84 -58q-39 -27 -83 -47.5t-107 -61.5t-66 -125v-86q-4 -35 14.5 -68.5t47.5 -33.5q4 -4 52 28.5t56 39.5q31 14 48.5 23t25.5 5q14 0 24.5 -4t8.5 -40t-37 -78t-76 -77.5t-79.5 -62.5t-62.5 -49t-54 -23.5t-54 -0.5q-41 2 -77 47t-31 77v35q0 25 -17 45l6 41v33
q0 17 10.5 90.5t15.5 111t7 50.5q8 6 8 8l-2 21q-2 20 7 32q0 25 8 45l43 103q8 85 131 177.5t205 84.5z" />
    <glyph glyph-name="ecircumflex" unicode="&#xea;" horiz-adv-x="581" 
d="M893 1383q0 -130 -62 -130q-33 0 -45 32t-17 49.5t-15 30.5t-23.5 37.5t-36.5 37.5q-41 162 -67.5 192.5t-51.5 53.5q-17 -17 -28 -52l-17 -41q-45 -38 -64.5 -72t-35.5 -55.5t-59 -54.5l-29 -27q-47 -47 -67.5 -75.5t-41.5 -44.5h-12q-16 0 -22 8t-17 8q10 44 23 57
l12 29q11 48 68 115l28 45q12 12 84.5 130.5t102.5 148.5t40.5 45.5t22.5 27.5l58 47l28 -29q14 -12 40 -55q25 -43 45 -67.5t50 -74t41 -134.5l29 -45l16 -29q23 -81 23 -108zM479 774q0 21 -20 31q-8 6 -21 10l-35 4q-21 0 -61 -96l-12 -57q0 -26 47.5 -11t73.5 39.5
t28 44.5v35zM102 540q0 12 7 23q0 47 85.5 228.5t301.5 181.5q82 0 117.5 -52.5t35.5 -113.5t-28.5 -95t-70.5 -59.5t-91 -48t-120 -68t-71 -137.5v-86q0 -31 16 -66.5t38 -35.5t48.5 15.5t53.5 32.5t49.5 32.5t34.5 15.5t25.5 -4t11.5 -40t-37 -78t-76 -77.5t-80 -62.5
t-61 -51t-80 -23q-57 0 -97 39t-40 86v35q0 16 -7.5 35.5t-3.5 50.5v33q0 17 10.5 90.5t15.5 111t7 50.5q16 8 11 17t-5 21z" />
    <glyph glyph-name="edieresis" unicode="&#xeb;" horiz-adv-x="581" 
d="M737 1503q14 0 25.5 -12t20 -29.5t16.5 -37t20 -35.5t28.5 -26.5t39 -29.5t22.5 -44t-11 -38.5t-26.5 -25t-32 -23.5t-27.5 -32t-25.5 -37t-41 -17t-37 16.5t-32.5 28.5q-16 14 -33.5 19.5t-34.5 27.5q-16 29 -24.5 40.5t-29.5 24.5t-37.5 17t-16.5 24t16.5 26t42.5 33
t77 55q50 28 56 37.5t12.5 17.5t12.5 14t20 6zM270 1475q22 0 30.5 -29t23.5 -51q12 -25 27.5 -44.5t39 -52t23.5 -79.5q0 -18 -24.5 -30.5t-40 -20t-26.5 -18.5t-18.5 -24.5t-18 -29t-35.5 -15.5q-35 0 -70 43t-55 55q-27 16 -63 64.5t-35 66.5q2 36 35.5 51.5t104.5 33.5
q19 8 38 33.5t30.5 36t33.5 10.5zM479 774q0 21 -20 31q-8 6 -21 10l-35 4q-10 0 -25.5 -24t-26.5 -53q-17 -45 -21.5 -69t18.5 -24q25 -5 76 24.5t55 65.5v35zM496 973q158 0 154 -201q-1 -47 -42 -81t-84 -58q-39 -27 -83 -47.5t-107 -61.5t-66 -125v-86
q-4 -35 14.5 -68.5t47.5 -33.5q4 -4 52 28.5t56 39.5q31 14 48.5 23t25.5 5q14 0 24.5 -4t8.5 -40t-37 -78t-76 -77.5t-79.5 -62.5t-62.5 -49t-54 -23.5t-54 -0.5q-41 2 -77 47t-31 77v35q0 25 -17 45l6 41v33q0 17 10.5 90.5t15.5 111t7 50.5q8 6 8 8l-2 21q-2 20 7 32
q0 25 8 45l43 103q8 85 131 177.5t205 84.5z" />
    <glyph glyph-name="igrave" unicode="&#xec;" horiz-adv-x="518" 
d="M6 1935q27 -55 62 -73q33 -23 79 -86q78 -84 125 -158q8 -3 30.5 -36.5t33.5 -33.5q6 -16 18.5 -34.5t35.5 -53t26 -71.5q12 -4 13 -13.5t15 -9.5q8 -12 0 -28t-12 -34t-32 -34.5t-46 -13.5q-30 5 -77 62t-59 76q-13 18 -30.5 32t-33.5 42q-27 35 -44.5 77t-46.5 95
q-5 41 -33 97.5t-45.5 92.5t-30.5 66t6 42.5t46 -3.5zM541 348q16 0 16 -24t-47.5 -71t-87.5 -77q-17 -40 -75 -125.5t-97 -85.5q-31 0 -63.5 34t-32.5 64v33q0 16 -2 28.5t-15 12.5v39l17 57v97q0 31 8 49t8 47v18q0 16 28.5 98.5t28.5 105.5t-12.5 43t-34.5 20t-31.5 -8.5
t-52.5 -8.5q-16 8 -16 41v33q0 34 117 125.5t149 91.5q31 0 53.5 -25.5t22.5 -54.5l-19 -57q19 -18 19 -58t-9.5 -75t-9.5 -78v-16q0 -16 -16 -80v-23q0 -23 -7 -36.5t-13 -33.5t-15.5 -37.5t-9.5 -32.5q0 -29 18 -58t45 -29t50 33q24 24 47 24h39z" />
    <glyph glyph-name="iacute" unicode="&#xed;" horiz-adv-x="518" 
d="M461 1579q0 29 9 44t9 28q25 31 47.5 62.5t48.5 58.5q29 39 56.5 77.5t56.5 69.5q41 0 57 23l64 16q25 0 29 -22.5t4 -39.5v-73q0 -48 -18.5 -71t-36 -38.5t-44.5 -42.5t-46 -54.5t-39 -48.5t-24.5 -34.5t-19.5 -30.5q-14 -25 -28.5 -40t-36.5 -41.5t-32 -50.5
q-21 -51 -37 -76t-43 -25q-26 0 -46 16.5t-20 39.5t10 36.5t22 44.5q0 22 35 74q0 35 11.5 52t11.5 46zM541 348q16 0 16 -24t-47.5 -71t-87.5 -77q-17 -40 -75 -125.5t-97 -85.5q-31 0 -63.5 34t-32.5 64v33q0 16 -2 28.5t-15 12.5v39l17 57v97q0 31 8 49t8 47v18
q0 16 28.5 98.5t28.5 105.5t-12.5 43t-34.5 20t-31.5 -8.5t-52.5 -8.5q-16 8 -16 41v33q0 34 117 125.5t149 91.5q31 0 53.5 -25.5t22.5 -54.5l-19 -57q19 -18 19 -58t-9.5 -75t-9.5 -78v-16q0 -16 -16 -80v-23q0 -23 -7 -36.5t-13 -33.5t-15.5 -37.5t-9.5 -32.5
q0 -29 18 -58t45 -29t50 33q24 24 47 24h39z" />
    <glyph glyph-name="icircumflex" unicode="&#xee;" horiz-adv-x="518" 
d="M774 1385q0 -132 -63 -132q-40 0 -54 49.5t-23 62.5t-22.5 37.5t-36.5 37.5q-14 47 -23 80.5t-23 73.5t-74 92q-21 -26 -29 -52l-16 -41q-49 -41 -66.5 -73.5t-34 -54t-59.5 -54.5l-29 -27q-46 -50 -70 -80t-36 -40h-13q-16 0 -23 8t-16 8q10 47 23 57l10 29
q14 49 70 115l29 45q10 10 31.5 47t73.5 119.5t82 112.5q29 30 38.5 45.5t23.5 27.5l58 47l28 -29q12 -10 24.5 -31.5t27.5 -41.5q14 -25 32.5 -49.5t49.5 -75.5t43 -133l45 -74q22 -77 22 -106zM541 348q16 0 16 -24t-47.5 -71t-87.5 -77q-17 -40 -75 -125.5t-97 -85.5
q-31 0 -63.5 34t-32.5 64v33q0 16 -2 28.5t-15 12.5v39l17 57v97q0 31 8 49t8 47v18q0 16 28.5 98.5t28.5 105.5t-12.5 43t-34.5 20t-31.5 -8.5t-52.5 -8.5q-16 8 -16 41v33q0 34 117 125.5t149 91.5q31 0 53.5 -25.5t22.5 -54.5l-19 -57q19 -18 19 -58t-9.5 -75t-9.5 -78
v-16q0 -16 -16 -80v-23q0 -23 -7 -36.5t-13 -33.5t-15.5 -37.5t-9.5 -32.5q0 -29 18 -58t45 -29t50 33q24 24 47 24h39z" />
    <glyph glyph-name="idieresis" unicode="&#xef;" horiz-adv-x="518" 
d="M606 1503q14 0 25.5 -12t19.5 -29.5t16.5 -37t20.5 -35.5t28.5 -26.5t39 -29.5t22.5 -44t-11 -38.5t-26.5 -25t-32 -23.5t-27.5 -32t-25.5 -37t-41 -17t-37 16.5t-32.5 28.5q-16 14 -33.5 19.5t-34.5 27.5q-16 29 -24.5 40.5t-29.5 24.5t-37.5 17t-16.5 24t16.5 26
t42.5 33t77 55q50 28 56 37.5t12.5 17.5t12.5 14t20 6zM138 1475q22 0 31 -29t24 -51q12 -25 27.5 -44.5t39 -52t23.5 -79.5q0 -19 -39.5 -38t-51.5 -31t-19 -25t-17.5 -28.5t-35.5 -15.5q-35 0 -70 43t-55 55q-27 16 -63 64.5t-35 66.5q2 36 35.5 51t104.5 34q19 8 38 33.5
t30 36t33 10.5zM541 348q16 0 16 -24t-47.5 -71t-87.5 -77q-17 -40 -75 -125.5t-97 -85.5q-31 0 -63.5 34t-32.5 64v33q0 16 -2 28.5t-15 12.5v39l17 57v97q0 31 8 49t8 47v18q0 16 28.5 98.5t28.5 105.5t-12.5 43t-34.5 20t-31.5 -8.5t-52.5 -8.5q-16 8 -16 41v33
q0 34 117 125.5t149 91.5q31 0 53.5 -25.5t22.5 -54.5l-19 -57q19 -18 19 -58t-9.5 -75t-9.5 -78v-16q0 -16 -16 -80v-23q0 -23 -7 -36.5t-13 -33.5t-15.5 -37.5t-9.5 -32.5q0 -29 18 -58t45 -29t50 33q24 24 47 24h39z" />
    <glyph glyph-name="eth" unicode="&#xf0;" horiz-adv-x="722" 
d="M474 739q-50 0 -116 -77t-102 -138q-35 -151 -35 -166v-39q8 -6 17.5 -24.5t27.5 -51t53 -32.5q160 64 177 108q12 29 31.5 68t35.5 74q0 16 9.5 32.5t9.5 30.5l-7 58q0 34 -18 75t-36.5 61.5t-46.5 20.5zM953 1503q26 0 38.5 4t38.5 2q4 -16 16.5 -29.5t12.5 -20.5
t-29 -57.5t-29 -68.5q-25 -23 -54 -18.5t-64 -5.5l-6 -11q0 -75 -16.5 -156t-18.5 -93l-4 -70q-4 -8 -10.5 -16.5t-2.5 -12.5q0 -8 -5 -18t-6 -28t-6 -40q-5 -23 -11 -59q-10 -59 -18 -88t-21 -103l-19 -32q0 -57 -26.5 -127t-62.5 -115t-45 -86.5t-31 -69.5
q-107 -135 -171 -155q-55 -35 -81.5 -49.5t-62.5 -14.5q-65 0 -107.5 51.5t-42.5 114.5l-19 137q0 6 -3 10.5t-11 17.5t-8 62t31.5 133t73.5 165t85 143.5t76 85.5t64.5 55.5t74.5 32.5q104 0 141 -17q26 0 37 -37.5t15 -48.5q4 14 17 39t18 62t11.5 85t11.5 92t9 82t6 56
q-27 -9 -39 -22q-6 0 -40.5 -9.5t-78.5 -20.5t-102 -28q-87 0 -149 -39q8 12 -4.5 19.5t-12.5 29.5t38 66q38 45 57.5 51t66.5 17t78 28q12 -2 24 -5t60 22q65 7 102 41v32q-2 12 -5 44t-10 95t-9 113q-3 85 -94 176q-45 33 -71 33t-42 2t-29 17q-41 18 -71 41
q-72 45 -72 100q-5 57 46 129t130 72q150 -53 182 -92q10 0 17.5 -5.5t14.5 -7.5t17.5 -14t22.5 -19t29 -51t30 -57q12 -12 28.5 -38t12.5 -81l23 -102q8 -57 16 -127t-6 -176v-33q28 16 54 16z" />
    <glyph glyph-name="ntilde" unicode="&#xf1;" horiz-adv-x="911" 
d="M330 1229h-39v28l10 86q0 77 64 115q32 0 55.5 25.5t40.5 25.5q66 0 102 -18h15q16 0 20 -4q16 0 36.5 -10.5t43.5 -18.5q25 -16 87.5 -59t144.5 -43h50q51 0 56.5 30.5t13.5 53.5q10 10 2 34t-8 40t-5 20t-5 28t22.5 40t57.5 16t57 -25q22 -9 51 -32q10 -18 10 -85
t-61 -133q-10 -8 -18.5 -23t-16.5 -28q-116 -73 -199 -73t-140.5 28.5t-91.5 46t-71 27.5l-79 12q-97 0 -160 -69q-16 -4 -22.5 -19.5t-22.5 -15.5zM211 666q-15 0 -57.5 -19.5t-51.5 -19.5h-16q-14 8 -7 31.5t7 35.5q112 158 188 206q79 50 107.5 50t40.5 -14t20 -30t6 -40
t-7 -48.5t-10 -47t-5 -31.5l6 -32l23 -41q16 0 102 98t141 156.5t74 58.5q37 0 70 -125q7 -107 -53 -329t-60 -224l-2 -31q-2 -30 25 -30q12 8 23 16q133 96 149 96t30.5 -13t14.5 -21q0 -16 -46.5 -67.5t-62.5 -51.5q0 -16 -11 -30.5t-24 -14.5q-33 -35 -55 -68t-59 -77
t-103 -44q-28 0 -56 35t-28 63l-6 74q16 72 59 206q43 135 50 204v22q-8 57 -41 58q-84 0 -114 -55.5t-43 -94.5t-30 -74q-19 -22 -12 -51q-10 -61 -38 -142t-64 -204q10 -16 -3.5 -19t-85 -3t-77.5 60q-8 77 36 151.5t44 83.5v73l-11 35q0 22 26 72.5t26 58.5v29l-7 80
q0 39 -22 39z" />
    <glyph glyph-name="ograve" unicode="&#xf2;" 
d="M68 1935q37 -59 63 -73q35 -25 80 -86q57 -60 125 -158q6 -2 26.5 -36t36.5 -34q7 -18 42 -68.5t38 -90.5q12 -4 13.5 -13.5t13.5 -9.5q10 -12 2 -28t-12 -34t-32 -34.5t-47 -13.5q-47 7 -133 133q-16 23 -33.5 37t-33.5 42q-27 35 -44 77t-48 95q-7 61 -109 250
q-12 35 7.5 48t44.5 -3zM454 739q-51 0 -115.5 -81.5t-88.5 -133.5l-21 -78q-18 -65 -18 -88v-39q8 -6 14 -24.5t15.5 -36.5t21.5 -32.5t35 -14.5q145 64 170 108q12 29 27.5 68t29.5 74q-4 16 9.5 32.5t13.5 30.5v58q0 37 -16.5 76.5t-33.5 60t-43 20.5zM490 973
q64 0 102 -17q31 0 40 -24.5t23 -54.5q62 -62 62 -113l-17 -182q0 -57 -24 -126.5t-56 -105.5t-39.5 -56t-20.5 -58.5t-31 -59.5q-17 -20 -32.5 -40.5t-45 -57t-64.5 -49.5q-31 -16 -51.5 -28.5t-42 -24t-59.5 -11.5q-67 0 -110.5 52.5t-43.5 113.5v137q0 12 -8.5 22.5
t-9.5 63.5t30 137t73 165t84 143.5t64.5 77t38 32t29.5 31.5t29.5 23.5t79.5 9.5z" />
    <glyph glyph-name="oacute" unicode="&#xf3;" 
d="M569 1579q0 29 8.5 44t8.5 28q27 31 49 62.5t49 58.5q29 39 56.5 77.5t56.5 69.5q41 0 57 23q16 0 30.5 8t36.5 8t25.5 -22.5t3.5 -39.5v-73q0 -50 -18.5 -72t-35.5 -37.5t-44 -42.5t-46.5 -54.5t-40.5 -48.5t-25.5 -34.5t-17.5 -34.5t-27.5 -36t-36 -39.5t-31.5 -50.5
q-42 -103 -81 -103q-26 0 -46.5 16.5t-20.5 39.5t10.5 36.5t22.5 44.5q0 22 35 74q0 35 11 52t11 46zM454 739q-51 0 -115.5 -81.5t-88.5 -133.5l-21 -78q-18 -65 -18 -88v-39q8 -6 14 -24.5t15.5 -36.5t21.5 -32.5t35 -14.5q145 64 170 108q12 29 27.5 68t29.5 74
q-4 16 9.5 32.5t13.5 30.5v58q0 37 -16.5 76.5t-33.5 60t-43 20.5zM490 973q64 0 102 -17q31 0 40 -24.5t23 -54.5q62 -62 62 -113l-17 -182q0 -57 -24 -126.5t-56 -105.5t-39.5 -56t-20.5 -58.5t-31 -59.5q-17 -20 -32.5 -40.5t-45 -57t-64.5 -49.5q-31 -16 -51.5 -28.5
t-42 -24t-59.5 -11.5q-67 0 -110.5 52.5t-43.5 113.5v137q0 12 -8.5 22.5t-9.5 63.5t30 137t73 165t84 143.5t64.5 77t38 32t29.5 31.5t29.5 23.5t79.5 9.5z" />
    <glyph glyph-name="ocircumflex" unicode="&#xf4;" 
d="M899 1385q0 -132 -61 -132q-40 0 -54 49.5t-24 62.5t-23.5 37.5t-36.5 37.5q-41 162 -67.5 192.5t-50.5 53.5q-19 -19 -29 -52l-18 -41q-49 -41 -66.5 -73.5t-34 -54t-59.5 -54.5l-27 -27q-42 -42 -69 -76t-39 -44h-13q-16 0 -23 8t-16 8q10 47 23 57l10 29q14 49 70 115
l28 45q12 12 83 128t102 149q32 32 42.5 47.5t22.5 27.5l58 47l28 -29q12 -10 24.5 -31.5t27.5 -41.5q14 -25 33.5 -49.5t49.5 -74t41 -134.5l29 -45l17 -29q22 -77 22 -106zM454 739q-51 0 -115.5 -81.5t-88.5 -133.5l-21 -78q-18 -65 -18 -88v-39q8 -6 14 -24.5
t15.5 -36.5t21.5 -32.5t35 -14.5q145 64 170 108q12 29 27.5 68t29.5 74q-4 16 9.5 32.5t13.5 30.5v58q0 37 -16.5 76.5t-33.5 60t-43 20.5zM490 973q64 0 102 -17q31 0 40 -24.5t23 -54.5q62 -62 62 -113l-17 -182q0 -57 -24 -126.5t-56 -105.5t-39.5 -56t-20.5 -58.5
t-31 -59.5q-17 -20 -32.5 -40.5t-45 -57t-64.5 -49.5q-31 -16 -51.5 -28.5t-42 -24t-59.5 -11.5q-67 0 -110.5 52.5t-43.5 113.5v137q0 12 -8.5 22.5t-9.5 63.5t30 137t73 165t84 143.5t64.5 77t38 32t29.5 31.5t29.5 23.5t79.5 9.5z" />
    <glyph glyph-name="otilde" unicode="&#xf5;" 
d="M141 1229h-39v28q0 27 6.5 43.5t6.5 42.5q0 77 61 115q24 0 41 10q16 14 27.5 27.5t27.5 13.5q66 0 103 -18h15q16 0 20 -4q16 0 36.5 -10.5t42.5 -18.5q27 -16 90 -59t141 -43h52q51 0 56.5 30.5t13.5 53.5q10 10 3 34t-7 40t-6.5 20t-6.5 28t22.5 40t56.5 16t59 -25
q23 -8 32 -16t19 -16q10 -18 10 -85t-61 -133q-10 -8 -17.5 -23t-17.5 -28q-116 -73 -217 -73q-60 0 -120.5 28.5t-94 46t-70.5 27.5l-78 12q-97 0 -160 -69q-16 -4 -22 -19.5t-25 -15.5zM454 739q-51 0 -115.5 -81.5t-88.5 -133.5l-21 -78q-18 -65 -18 -88v-39
q8 -6 14 -24.5t15.5 -36.5t21.5 -32.5t35 -14.5q145 64 170 108q12 29 27.5 68t29.5 74q-4 16 9.5 32.5t13.5 30.5v58q0 37 -16.5 76.5t-33.5 60t-43 20.5zM490 973q64 0 102 -17q31 0 40 -24.5t23 -54.5q62 -62 62 -113l-17 -182q0 -57 -24 -126.5t-56 -105.5t-39.5 -56
t-20.5 -58.5t-31 -59.5q-17 -20 -32.5 -40.5t-45 -57t-64.5 -49.5q-31 -16 -51.5 -28.5t-42 -24t-59.5 -11.5q-67 0 -110.5 52.5t-43.5 113.5v137q0 12 -8.5 22.5t-9.5 63.5t30 137t73 165t84 143.5t64.5 77t38 32t29.5 31.5t29.5 23.5t79.5 9.5z" />
    <glyph glyph-name="odieresis" unicode="&#xf6;" 
d="M780 1503q14 0 25.5 -12t20 -29.5t16.5 -37t20 -35.5t28.5 -26.5t39 -29.5t22.5 -44t-11 -38.5t-26.5 -25t-32 -23.5t-27.5 -32t-25.5 -37t-41 -17t-37 16.5t-32.5 28.5q-16 14 -33.5 19.5t-34.5 27.5q-16 29 -24.5 40.5t-29.5 24.5t-37.5 17t-16.5 24t16.5 26t42.5 33
t77 55q50 28 56 37.5t12.5 17.5t12.5 14t20 6zM312 1475q22 0 31 -29t24 -51q12 -25 27.5 -44.5t39 -52t23.5 -79.5q0 -18 -24.5 -30.5t-40 -20t-26.5 -18.5t-18.5 -24.5t-18 -29t-35.5 -15.5q-35 0 -70 43t-55 55q-27 16 -63 64.5t-35 66.5q2 36 35.5 51.5t104.5 33.5
q19 8 38 33.5t30 36t33 10.5zM454 739q-51 0 -115.5 -81.5t-88.5 -133.5l-21 -78q-18 -65 -18 -88v-39q8 -6 14 -24.5t15.5 -36.5t21.5 -32.5t35 -14.5q145 64 170 108q12 29 27.5 68t29.5 74q-4 16 9.5 32.5t13.5 30.5v58q0 37 -16.5 76.5t-33.5 60t-43 20.5zM490 973
q64 0 102 -17q31 0 40 -24.5t23 -54.5q62 -62 62 -113l-17 -182q0 -57 -24 -126.5t-56 -105.5t-39.5 -56t-20.5 -58.5t-31 -59.5q-17 -20 -32.5 -40.5t-45 -57t-64.5 -49.5q-31 -16 -51.5 -28.5t-42 -24t-59.5 -11.5q-67 0 -110.5 52.5t-43.5 113.5v137q0 12 -8.5 22.5
t-9.5 63.5t30 137t73 165t84 143.5t64.5 77t38 32t29.5 31.5t29.5 23.5t79.5 9.5z" />
    <glyph glyph-name="divide" unicode="&#xf7;" horiz-adv-x="1024" 
d="M564 358q22 0 35 -14t32 -36t27 -36t8 -42t-24 -41t-34 -35q-12 -12 -22.5 -25.5t-36.5 -13.5t-46 17q-19 17 -32.5 21.5t-26.5 16.5q-6 12 -15 24.5t-18.5 35.5t11.5 55q16 16 39.5 29.5t44.5 27.5q36 16 58 16zM556 1001q19 0 33.5 -18t18.5 -33q10 -18 19.5 -31.5
t20.5 -31t11 -44.5q0 -28 -25.5 -38t-41.5 -19q-12 -16 -23 -19t-37 -3t-37.5 13.5t-37.5 27.5t-58 84q6 57 80 67q16 12 37 28.5t40 16.5zM761.5 487.5q-35.5 0.5 -57.5 8.5t-39.5 8t-57 -3.5t-58.5 -11.5t-54.5 -4t-78.5 4l-115 -10q-23 -10 -58.5 -4t-76.5 14h-29
q2 6 13 43.5t38 53.5q151 34 263 41q25 8 60.5 2t74.5 4l108 -6q23 -4 48.5 6t54.5 -6q60 21 114 16q-5 -10 -7.5 -19.5t-4.5 -15.5t-16 -55t-68 -70q-18 4 -53.5 4.5z" />
    <glyph glyph-name="oslash" unicode="&#xf8;" horiz-adv-x="751" 
d="M285 240q0 16 12 45.5t27.5 60.5t28 55.5t12.5 30.5q20 26 52 124t50 122l35 74h-13q-62 0 -128.5 -76.5t-110.5 -151.5q-10 -43 -24 -101t-11 -64q2 -7 7 -53t16 -66t41 -29q6 13 6 29zM659 524v58q0 80 -26 112q-10 4 -15.5 11.5t-13.5 11.5q-17 -27 -57 -120t-51 -108
q3 -21 -29 -97t-51 -95q4 -27 -13.5 -44t-21.5 -32l-10 -39h4q194 95 217 137q20 29 27.5 68t23.5 74q-4 16 6 32.5t10 30.5zM694 1075q16 0 58 -26q0 -27 -7.5 -40.5t-15.5 -35.5q-4 -23 -12 -28t-17 -17q23 -14 39 -51q23 -16 49.5 -52.5t26.5 -60.5v-182q0 -162 -70 -252
q-19 -19 -46 -77.5t-50 -82.5q-83 -116 -160 -141q-31 -16 -67.5 -37t-97.5 -21l-56 6q-14 -12 -23 -25.5t-23 -33.5t-16.5 -23.5t-10.5 -3.5l-25 19q-2 0 -2 28t14 56q0 10 6 22q-79 52 -79 115l-13 137q0 6 -4 10.5t-14 18t-10 51.5q-11 107 64 248t119 203.5t68.5 77
t42 30t42.5 36t77 20.5t94 -7q8 23 16.5 37.5t16.5 36.5q6 45 86 45z" />
    <glyph glyph-name="ugrave" unicode="&#xf9;" horiz-adv-x="933" 
d="M240 1935q27 -55 61 -73q35 -25 80 -86q78 -84 125 -158q6 -2 29.5 -36t33.5 -34q7 -18 42 -68.5t38 -90.5q12 -4 13.5 -13.5t15.5 -9.5q8 -12 0 -28t-12 -34t-32 -34.5t-46 -13.5t-38 20.5t-38 40t-34.5 43t-27.5 36.5t-29 30t-34 42q-27 35 -44 77t-46 95
q-7 61 -109 250q-14 35 5.5 48t46.5 -3zM221 554q0 44 2 55.5t-18 11.5t-68 -17q-35 -22 -52 -22t-31.5 15t-14.5 40t12 38t29.5 22.5t34 18.5t22.5 23q27 20 125 122t154 102h39q18 0 26 -20.5t8 -37.5q-131 -457 -131 -502q0 -14 -5 -46.5t3.5 -81t98.5 9.5
q4 10 26.5 26.5t43.5 36.5t25.5 37.5t12.5 17.5q0 16 14.5 31t16.5 28t20.5 52t38.5 86q92 216 92 297.5t97 81.5h47q25 0 40 -24.5t15 -42.5q0 -25 -16.5 -119.5t-38.5 -159.5q-43 -92 -84 -183.5t-41 -177.5q0 -16 16 -32q56 0 107 51t63 51t35 -35q0 -24 -68.5 -114.5
t-74.5 -96.5q-63 -44 -83 -67t-36 -45q-47 -47 -115 -47q-28 0 -50.5 30.5t-22.5 55.5v57q34 106 34 138t-20 32t-50 -35t-44.5 -53.5t-22.5 -24.5q-58 -77 -138.5 -141t-93.5 -64q-24 0 -46.5 37t-22.5 54v57l6 86l10 84q0 32 19 98l16 78q4 14 21.5 49t17.5 79z" />
    <glyph glyph-name="uacute" unicode="&#xfa;" horiz-adv-x="933" 
d="M707 1579q0 29 8 44t8 28q27 31 49 62.5t50 64.5t54.5 71.5t57.5 69.5q38 0 57 23q16 0 30.5 8t36.5 8t25.5 -22.5t3.5 -39.5v-73q0 -49 -18 -71.5t-36.5 -38t-45.5 -42.5t-45 -54.5t-49 -55.5q-12 -14 -16.5 -27.5t-18.5 -34.5t-27.5 -36t-35.5 -41.5t-32 -50.5
q-41 -101 -80 -101q-26 0 -47.5 16.5t-21.5 39.5t11.5 36.5t23.5 44.5q0 22 35 74q0 35 11.5 52t11.5 46zM221 554q0 44 2 55.5t-18 11.5t-68 -17q-35 -22 -52 -22t-31.5 15t-14.5 40t12 38t29.5 22.5t34 18.5t22.5 23q27 20 125 122t154 102h39q18 0 26 -20.5t8 -37.5
q-131 -457 -131 -502q0 -14 -5 -46.5t3.5 -81t98.5 9.5q4 10 26.5 26.5t43.5 36.5t25.5 37.5t12.5 17.5q0 16 14.5 31t16.5 28t20.5 52t38.5 86q92 216 92 297.5t97 81.5h47q25 0 40 -24.5t15 -42.5q0 -25 -16.5 -119.5t-38.5 -159.5q-43 -92 -84 -183.5t-41 -177.5
q0 -16 16 -32q56 0 107 51t63 51t35 -35q0 -24 -68.5 -114.5t-74.5 -96.5q-63 -44 -83 -67t-36 -45q-47 -47 -115 -47q-28 0 -50.5 30.5t-22.5 55.5v57q34 106 34 138t-20 32t-50 -35t-44.5 -53.5t-22.5 -24.5q-58 -77 -138.5 -141t-93.5 -64q-24 0 -46.5 37t-22.5 54v57
l6 86l10 84q0 32 19 98l16 78q4 14 21.5 49t17.5 79z" />
    <glyph glyph-name="ucircumflex" unicode="&#xfb;" horiz-adv-x="933" 
d="M1024 1383q0 -130 -61 -130q-40 0 -54 49.5t-24 62.5t-23.5 37.5t-36.5 37.5q-41 162 -67.5 192.5t-50.5 53.5q-19 -19 -29 -52l-19 -41q-50 -42 -65.5 -74t-32 -53.5t-59.5 -54.5l-29 -27q-47 -47 -67 -75t-41 -45h-13q-16 0 -23 8t-16 8q10 47 23 57l12 29
q11 48 68 115l28 45q12 12 84.5 130.5t102.5 148.5t40.5 45.5t22.5 27.5l58 47l28 -29q14 -12 40 -55q25 -43 45 -67.5t50 -74t41 -134.5l29 -45l16 -29q23 -81 23 -108zM221 554q0 44 2 55.5t-18 11.5t-68 -17q-35 -22 -52 -22t-31.5 15t-14.5 40t12 38t29.5 22.5t34 18.5
t22.5 23q27 20 125 122t154 102h39q18 0 26 -20.5t8 -37.5q-131 -457 -131 -502q0 -14 -5 -46.5t3.5 -81t98.5 9.5q4 10 26.5 26.5t43.5 36.5t25.5 37.5t12.5 17.5q0 16 14.5 31t16.5 28t20.5 52t38.5 86q92 216 92 297.5t97 81.5h47q25 0 40 -24.5t15 -42.5
q0 -25 -16.5 -119.5t-38.5 -159.5q-43 -92 -84 -183.5t-41 -177.5q0 -16 16 -32q56 0 107 51t63 51t35 -35q0 -24 -68.5 -114.5t-74.5 -96.5q-63 -44 -83 -67t-36 -45q-47 -47 -115 -47q-28 0 -50.5 30.5t-22.5 55.5v57q34 106 34 138t-20 32t-50 -35t-44.5 -53.5
t-22.5 -24.5q-58 -77 -138.5 -141t-93.5 -64q-24 0 -46.5 37t-22.5 54v57l6 86l10 84q0 32 19 98l16 78q4 14 21.5 49t17.5 79z" />
    <glyph glyph-name="udieresis" unicode="&#xfc;" horiz-adv-x="933" 
d="M825 1503q14 0 25.5 -12t20 -29.5t16.5 -37t20 -35.5t28.5 -26.5t39 -29.5t22.5 -44t-11 -38.5t-26.5 -25t-32 -23.5t-27.5 -32t-25.5 -37t-41 -17t-37 16.5t-32.5 28.5q-16 14 -33.5 19.5t-34.5 27.5q-16 29 -24 40.5t-30 24.5t-38 17t-16 24t16.5 26t42.5 33t77 55
q50 28 56 37.5t12.5 17.5t12.5 14t20 6zM358 1475q22 0 30.5 -29t23.5 -51q12 -25 27.5 -44.5t39 -52t23.5 -79.5q0 -18 -24.5 -30.5t-40 -20t-26.5 -18.5t-18.5 -24.5t-18 -29t-35.5 -15.5q-35 0 -70 43t-55 55q-27 16 -63 64.5t-35 66.5q2 36 35.5 51t104.5 34
q19 8 38 33.5t30.5 36t33.5 10.5zM221 554q0 44 2 55.5t-18 11.5t-68 -17q-35 -22 -52 -22t-31.5 15t-14.5 40t12 38t29.5 22.5t34 18.5t22.5 23q27 20 125 122t154 102h39q18 0 26 -20.5t8 -37.5q-131 -457 -131 -502q0 -14 -5 -46.5t3.5 -81t98.5 9.5q4 10 26.5 26.5
t43.5 36.5t25.5 37.5t12.5 17.5q0 16 14.5 31t16.5 28t20.5 52t38.5 86q92 216 92 297.5t97 81.5h47q25 0 40 -24.5t15 -42.5q0 -25 -16.5 -119.5t-38.5 -159.5q-43 -92 -84 -183.5t-41 -177.5q0 -16 16 -32q56 0 107 51t63 51t35 -35q0 -24 -68.5 -114.5t-74.5 -96.5
q-63 -44 -83 -67t-36 -45q-47 -47 -115 -47q-28 0 -50.5 30.5t-22.5 55.5v57q34 106 34 138t-20 32t-50 -35t-44.5 -53.5t-22.5 -24.5q-58 -77 -138.5 -141t-93.5 -64q-24 0 -46.5 37t-22.5 54v57l6 86l10 84q0 32 19 98l16 78q4 14 21.5 49t17.5 79z" />
    <glyph glyph-name="yacute" unicode="&#xfd;" horiz-adv-x="921" 
d="M735 1579q0 29 8.5 44t8.5 28q27 31 49 62.5t47 58.5q31 39 57.5 77.5t57.5 69.5q38 0 57 23q16 0 30 8t36 8q30 0 30 -62v-73q0 -50 -18.5 -72t-37 -37.5t-40.5 -40.5q-31 -29 -49.5 -56.5t-48.5 -55.5q-12 -14 -16.5 -27.5t-18.5 -34.5t-27.5 -36t-34 -39t-32.5 -50
q-21 -48 -38 -76t-43 -28t-47.5 16.5t-21.5 39.5t10.5 36.5t24.5 44.5q0 19 33 74q0 35 12 52t12 46zM381 291v16q0 69 -47.5 154t-122.5 137q-16 16 -21.5 8t-19.5 -8h-61l-35 -16q-16 0 -39 13t-23 42q0 14 83.5 106t95.5 107q35 39 86 39t71.5 -27.5t50.5 -70.5
q51 -103 80 -193q6 -35 14.5 -58.5t19.5 -56t6 -63.5q-8 -46 14.5 -84.5t41.5 -38.5q20 0 42 60.5t32 94t17 50.5q16 23 28.5 42t30.5 45.5t61 65.5q20 29 36 97q16 69 38 96q16 31 32.5 55.5t52.5 24.5t55.5 -24.5t19.5 -55.5l-25 -137v-33q0 -137 -112 -137q-23 0 -23 -23
q-40 -40 -57 -89.5t-26 -76t-25 -51.5q-12 -12 -23.5 -27.5t-11.5 -46.5q-12 -20 -29 -51t-22 -39q-8 -25 -16.5 -38t-17.5 -27.5t-19.5 -30.5t-19.5 -43t-22.5 -49t-23.5 -58l-17 -45q-10 -16 -14 -25t-27 -32q-57 -72 -57 -90q-33 -82 -119 -178q-39 -51 -70.5 -96.5
t-60.5 -61.5q-143 -86 -227 -178q-38 -11 -172 -90h-23l-73 -23h-62q-10 0 -35.5 11.5t-40.5 11.5l-79 -23q-25 0 -44.5 15.5t-46.5 42.5q-16 0 -41.5 14t-37.5 31q0 4 -3.5 18t-8.5 45t-5 54q0 24 18.5 50.5t60.5 60.5t81.5 34t118.5 -41q39 -16 70.5 -33.5t54.5 -17.5
l67 -11q22 15 72.5 23t75 15t47.5 30q82 23 170 115q39 33 69 96q68 68 97 137q71 71 92.5 145t21.5 105v80q17 86 17 98t-8.5 19.5t-8.5 35.5v17q-18 18 -18 41z" />
    <glyph glyph-name="thorn" unicode="&#xfe;" horiz-adv-x="745" 
d="M547 598q-32 39 -57 39t-35 -19.5t-23 -19.5q-102 -102 -102 -195q-7 -81 12.5 -125.5t32.5 -50.5q33 27 57.5 45.5t54 43.5t48.5 87l12 154v41zM235.5 1071q4.5 14 4.5 93t14 144.5t16 104.5q3 57 27.5 139.5t28.5 125.5t6 81q2 39 25.5 66.5t52.5 70.5q43 55 76.5 91
t76.5 92q16 29 45 45t76 45q29 27 47.5 53.5t46.5 26.5t44 6t52 6t71 8t73 8q61 0 94 -43t32 -81q-2 -70 -60 -109t-134 -39q-25 0 -53.5 19.5t-54.5 19.5h-113q-45 0 -65.5 -42t-26.5 -54q-58 -76 -83.5 -149.5t-47.5 -180.5q0 -67 -17.5 -120.5t-27.5 -67.5
q-4 -39 -16.5 -75t-12.5 -91v-58q-4 -39 -16.5 -62.5t-12.5 -70.5t-6 -81t-8 -70t3 -53t1 -58t-20.5 -76t-20.5 -80q10 8 20.5 18.5t20.5 10.5q35 20 43 32.5t8 28.5q35 43 60.5 70t27.5 57t13.5 40t23.5 22q9 0 25 25.5t36 25.5q19 0 29.5 -9t20.5 -23.5t20.5 -32
t22.5 -31.5q12 -31 34.5 -51.5t22.5 -46.5q-10 -176 -58 -298t-73 -186q-31 -59 -65.5 -91t-77.5 -62l-40 -40q-40 -40 -95 -40h-23q-31 0 -44 -10.5t-13 -40.5v-68q-2 -31 -8.5 -53.5t-16.5 -58.5t-10 -66q0 -31 -6 -49q0 -33 -13.5 -75.5t-14.5 -60.5t1 -26t-2 -60
q-9 -113 -63 -219t-164 -256q-140 -165 -271 -250.5t-305 -85.5q-23 0 -39 13q-27 0 -32.5 -6.5t-35.5 -6.5t-50.5 15.5t-40.5 35.5t-38 34t-40 39.5t-20 59.5q11 148 96 148q55 0 126.5 -28.5t131.5 -28.5l63 6l58 -6h90q86 0 129 30t75 101q22 36 42.5 95t43.5 104
q0 12 14.5 16t14.5 19t-5 21.5t0 33.5t5 104v33q0 16 12.5 21.5t16.5 19.5v80q3 62 26 156.5t29 172.5v11q0 10 6 28q0 33 8.5 62.5t9.5 55.5t-1 47t1 49t7 50.5t8 44t8 44t8 76.5t9 96q0 12 -8.5 28.5t-4.5 28.5l25 39v18q4 41 13 64.5t9 66.5l7 56q4 27 15 48t11 60
q4 16 -3.5 34t-0.5 31q6 13 10 15q4 27 8.5 41z" />
    <glyph glyph-name="ydieresis" unicode="&#xff;" horiz-adv-x="921" 
d="M821 1503q14 0 25.5 -12t19.5 -29.5t16.5 -37t20.5 -35.5t28.5 -26.5t39 -29.5t22.5 -44t-11 -38.5t-26.5 -25t-32 -23.5t-27.5 -32t-25.5 -37t-41 -17t-37 16.5t-32.5 28.5q-16 14 -33.5 19.5t-34.5 27.5q-16 29 -24.5 40.5t-29.5 24.5t-37.5 17t-16.5 24t16.5 26
t42.5 33t77 55q50 28 56 37.5t12.5 17.5t12.5 14t20 6zM354 1475q22 0 30.5 -29t23.5 -51q12 -25 27.5 -44.5t39 -52t23.5 -79.5q0 -18 -24.5 -30.5t-40 -20t-26.5 -18.5t-18.5 -24.5t-18 -29t-35.5 -15.5q-35 0 -70 43t-55 55q-27 16 -63 64.5t-35 66.5q2 36 35.5 51
t104.5 34q19 8 38 33.5t30.5 36t33.5 10.5zM381 291v16q0 69 -47.5 154t-122.5 137q-16 16 -21.5 8t-19.5 -8h-61l-35 -16q-16 0 -39 13t-23 42q0 14 83.5 106t95.5 107q35 39 86 39t71.5 -27.5t50.5 -70.5q51 -103 80 -193q6 -35 14.5 -58.5t19.5 -56t6 -63.5
q-8 -46 14.5 -84.5t41.5 -38.5q20 0 42 60.5t32 94t17 50.5q16 23 28.5 42t30.5 45.5t61 65.5q20 29 36 97q16 69 38 96q16 31 32.5 55.5t52.5 24.5t55.5 -24.5t19.5 -55.5l-25 -137v-33q0 -137 -112 -137q-23 0 -23 -23q-40 -40 -57 -89.5t-26 -76t-25 -51.5
q-12 -12 -23.5 -27.5t-11.5 -46.5q-12 -20 -29 -51t-22 -39q-8 -25 -16.5 -38t-17.5 -27.5t-19.5 -30.5t-19.5 -43t-22.5 -49t-23.5 -58l-17 -45q-10 -16 -14 -25t-27 -32q-57 -72 -57 -90q-33 -82 -119 -178q-39 -51 -70.5 -96.5t-60.5 -61.5q-143 -86 -227 -178
q-38 -11 -172 -90h-23l-73 -23h-62q-10 0 -35.5 11.5t-40.5 11.5l-79 -23q-25 0 -44.5 15.5t-46.5 42.5q-16 0 -41.5 14t-37.5 31q0 4 -3.5 18t-8.5 45t-5 54q0 24 18.5 50.5t60.5 60.5t81.5 34t118.5 -41q39 -16 70.5 -33.5t54.5 -17.5l67 -11q22 15 72.5 23t75 15t47.5 30
q82 23 170 115q39 33 69 96q68 68 97 137q71 71 92.5 145t21.5 105v80q17 86 17 98t-8.5 19.5t-8.5 35.5v17q-18 18 -18 41z" />
    <glyph glyph-name="Amacron" unicode="&#x100;" horiz-adv-x="1253" 
d="M348 1253q0 29 17.5 59.5t27.5 37.5q66 12 131.5 31.5t124.5 19.5q23 8 57.5 5t73.5 5h113q23 0 48.5 11.5t53.5 -5.5q48 29 109 23l-10 -33q0 -54 -25 -87.5t-45 -43.5q-23 4 -54.5 2t-55.5 1t-43 3t-55 -1.5t-59 -11.5q-22 -9 -54.5 -5t-75.5 -7q-15 3 -59 -5t-56 -5
q-44 -18 -137 6h-27zM749 586q15 0 15 28t-14.5 42t-14.5 28v90q0 12 -7 34.5t-19 22.5q-22 0 -41 -35t-19 -55v-16q0 -16 -16 -88v-16q0 -12 18.5 -23.5t28.5 -11.5h69zM104.5 -12q-59.5 11 -59.5 35q0 39 23.5 65.5t62.5 26.5l39 10q11 0 38 23.5t48 39.5q12 51 44 111.5
t58 116.5q18 53 68 137q32 63 63.5 157t51.5 137q26 57 43.5 150.5t48.5 157.5q12 10 26.5 24.5t40.5 26.5h35q78 0 93.5 -50t18.5 -86t7 -69v-73q12 -23 31.5 -61t19.5 -76v-52q0 -7 34 -104t34 -126q0 -84 38.5 -228t82.5 -144q29 0 45 -6t25 -6q28 0 64 -12.5t36 -44.5
q0 -74 -97 -74l-137 6h-205l-57 -6q-68 0 -68 18q0 48 86 78q68 22 68 52t-18.5 97.5t-32.5 67.5q-6 20 -9 45t-11.5 56t-47.5 24h-86q-86 0 -102 -16q-27 -12 -22 -36t5 -50q-27 -36 -48 -95t-21 -75t13 -25.5t29.5 -19t30 -25.5t13.5 -53t-68 -37q0 -10 -11 -10t-24 10
h-17q-17 0 -32 2l-37 4l-86 -12q-53 0 -60 -8.5t-28 -8.5q-20 0 -79.5 11z" />
    <glyph glyph-name="amacron" unicode="&#x101;" horiz-adv-x="780" 
d="M160 1253q0 32 17.5 61t27.5 36q66 12 131 31.5t125 19.5q23 8 57.5 5t73.5 5h115q23 0 47 11.5t55 -5.5q48 29 109 23q-8 -8 -13.5 -41t-18 -69t-48.5 -54q-23 4 -54.5 2t-55.5 1t-44 3t-55.5 -1.5t-59.5 -11.5q-23 -9 -55.5 -5t-75.5 -7q-23 4 -59.5 -5t-54.5 -5
q-44 -18 -136 6h-28zM246 484q0 -16 -2 -43t2 -57t15 -53.5t39 -23.5t63.5 47t67.5 106.5t53.5 111t21.5 60.5t2 41t-7 84.5t-75 6.5q-70 -59 -111 -126t-55 -102.5t-14 -51.5zM768 899q0 -31 -57 -221q0 -42 -17 -80q-16 -12 -16 -19v-61l-6 -108v-80q0 -90 39 -90l28 45
q12 10 28.5 25.5t34.5 30.5t36 34q12 0 20 -10.5t8 -22.5q-16 -32 -24 -41q-20 -57 -66.5 -106.5t-74 -78t-52.5 -65.5l-45 -63q0 -42 -39.5 -70t-58.5 14q-12 37 -12 73t6 70t12 64.5t6 59.5v114q0 17 -17.5 17t-42 -36t-86 -126t-77.5 -107q-16 -18 -29.5 -33.5t-41.5 -41
t-56 -25.5q-49 0 -71.5 61.5t-22.5 102.5l-6 147l28 240q0 17 23.5 79t50.5 93q58 56 100 114t66 74.5t49 25.5t49.5 14.5t54.5 21.5q16 0 68 39h92l39 18q80 0 80 -92z" />
    <glyph glyph-name="Abreve" unicode="&#x102;" horiz-adv-x="1253" 
d="M705 1384q34 0 99 -2.5t101 48.5q28 28 42 73q13 45 15.5 51.5t4.5 22.5t6 16q0 10 11 9.5t11 9.5h25l29 -13q0 -23 5 -25t5 -20t-2.5 -23t-10.5 -29t-10 -33t-6 -25t-12 -21.5t-20 -18.5t-14.5 -21.5t-8 -19.5t-44.5 -33t-79 -35q-39 -13 -49 -19t-23 -6h-45l-76 -6
q-8 0 -29 14t-73 14q-21 5 -55 35q-34 12 -64 33q-18 15 -39 70q-14 23 -24 41.5t-10 56.5t36.5 66t77.5 28t68.5 -7t27.5 -38l-6 -23q0 -12 6.5 -18t6.5 -16l-7 -17q0 -50 48 -84.5t82 -34.5zM749 586q15 0 15 28t-14.5 42t-14.5 28v90q0 12 -7 34.5t-19 22.5
q-22 0 -41 -35t-19 -55v-16q0 -16 -16 -88v-16q0 -12 18.5 -23.5t28.5 -11.5h69zM104.5 -12q-59.5 11 -59.5 35q0 39 23.5 65.5t62.5 26.5l39 10q11 0 38 23.5t48 39.5q12 51 44 111.5t58 116.5q18 53 68 137q32 63 63.5 157t51.5 137q26 57 43.5 150.5t48.5 157.5
q12 10 26.5 24.5t40.5 26.5h35q78 0 93.5 -50t18.5 -86t7 -69v-73q12 -23 31.5 -61t19.5 -76v-52q0 -7 34 -104t34 -126q0 -84 38.5 -228t82.5 -144q29 0 45 -6t25 -6q28 0 64 -12.5t36 -44.5q0 -74 -97 -74l-137 6h-205l-57 -6q-68 0 -68 18q0 48 86 78q68 22 68 52
t-18.5 97.5t-32.5 67.5q-6 20 -9 45t-11.5 56t-47.5 24h-86q-86 0 -102 -16q-27 -12 -22 -36t5 -50q-27 -36 -48 -95t-21 -75t13 -25.5t29.5 -19t30 -25.5t13.5 -53t-68 -37q0 -10 -11 -10t-24 10h-17q-17 0 -32 2l-37 4l-86 -12q-53 0 -60 -8.5t-28 -8.5q-20 0 -79.5 11z
" />
    <glyph glyph-name="abreve" unicode="&#x103;" horiz-adv-x="780" 
d="M815 1593q0 10 11.5 9.5t11.5 9.5h22l29 -13q0 -23 5 -25t5 -20t-2 -23t-10 -29t-10.5 -33t-6.5 -25t-12 -21.5t-18 -18.5q-11 -15 -21 -34.5t-48 -40.5t-78 -34q-39 -13 -49.5 -19t-22.5 -6h-46l-73 -6q-10 0 -30 14t-73 14q-23 5 -57 35q-68 24 -81 52t-21 51
q-14 23 -24.5 41.5t-10.5 56.5t37 66t78 28t68.5 -7t27.5 -38l-6 -23q0 -12 6 -18t6 -16l-6 -17q0 -76 61.5 -97.5t81.5 -21.5t85 -2.5t101 48.5q32 32 44 75t14 49.5t4 22.5t8 16zM246 484q0 -16 -2 -43t2 -57t15 -53.5t39 -23.5t63.5 47t67.5 106.5t53.5 111t21.5 60.5
t2 41t-7 84.5t-75 6.5q-70 -59 -111 -126t-55 -102.5t-14 -51.5zM768 899q0 -31 -57 -221q0 -42 -17 -80q-16 -12 -16 -19v-61l-6 -108v-80q0 -90 39 -90l28 45q12 10 28.5 25.5t34.5 30.5t36 34q12 0 20 -10.5t8 -22.5q-16 -32 -24 -41q-20 -57 -66.5 -106.5t-74 -78
t-52.5 -65.5l-45 -63q0 -42 -39.5 -70t-58.5 14q-12 37 -12 73t6 70t12 64.5t6 59.5v114q0 17 -17.5 17t-42 -36t-86 -126t-77.5 -107q-16 -18 -29.5 -33.5t-41.5 -41t-56 -25.5q-49 0 -71.5 61.5t-22.5 102.5l-6 147l28 240q0 17 23.5 79t50.5 93q58 56 100 114t66 74.5
t49 25.5t49.5 14.5t54.5 21.5q16 0 68 39h92l39 18q80 0 80 -92z" />
    <glyph glyph-name="Aogonek" unicode="&#x104;" horiz-adv-x="1253" 
d="M749 586q15 0 15 28t-14.5 42t-14.5 28v90q0 12 -7 34.5t-19 22.5q-22 0 -41 -35t-19 -55v-16q0 -16 -16 -88v-16q0 -12 18.5 -23.5t28.5 -11.5h69zM700 12q0 48 86 78q68 22 68 52t-18.5 97.5t-32.5 67.5q-6 20 -9 45t-11.5 56t-47.5 24h-86q-86 0 -102 -16
q-27 -12 -22 -36t5 -50q-27 -36 -48 -95t-21 -75t13 -25.5t29.5 -19t30 -25.5t13.5 -53t-68 -37q0 -10 -11 -10t-24 10h-17q-17 0 -32 2l-37 4l-86 -12q-53 0 -60 -8.5t-15 -8.5q-33 0 -92.5 11t-59.5 35q0 39 23.5 65.5t62.5 26.5l39 10q11 0 38 23.5t48 39.5
q12 51 44 111.5t58 116.5q18 53 68 137q32 63 63.5 157t51.5 137q26 57 43.5 150.5t48.5 157.5q12 10 26.5 24.5t40.5 26.5h35q78 0 93.5 -50t18.5 -86t7 -69v-73q12 -23 31.5 -61t19.5 -76v-52q0 -7 34 -104t34 -126q0 -84 38.5 -228t82.5 -144q29 0 45 -6t25 -6
q28 0 64 -12.5t36 -44.5q0 -74 -97 -74l-63 6q-16 -16 -37 -30.5t-35 -31.5t-14 -40t-10 -41q-45 -57 -45 -84q8 -27 6 -35t17 -24t85 -15q8 2 27 27.5t41 13.5t24 -32t-25.5 -43t-50.5 -52t-51 -29q-10 -23 -16 -34t-28 -13t-46 -7t-41 9q-12 0 -20 9.5t-25 19.5
q-14 12 -27.5 25t-22.5 55q-17 78 50 205q12 16 22.5 24t21.5 38t28.5 43t40.5 42h-148l-57 -6q-68 0 -68 18z" />
    <glyph glyph-name="aogonek" unicode="&#x105;" horiz-adv-x="780" 
d="M246 484q0 -16 -2 -43t2 -57t15 -53.5t39 -23.5t63.5 47t67.5 106.5t53.5 111t21.5 60.5t2 41t-7 84.5t-75 6.5q-70 -59 -111 -126t-55 -102.5t-14 -51.5zM768 899q0 -31 -57 -221q0 -42 -17 -80q-16 -12 -16 -19v-61l-6 -108v-80q0 -90 39 -90l28 45q12 10 28.5 25.5
t34.5 30.5t36 34q12 0 20 -10.5t8 -22.5q-16 -32 -24 -41q-20 -57 -66.5 -106.5t-74 -78t-52.5 -65.5l-28 -39q-4 -14 -11.5 -26.5t-11.5 -24.5q-26 -36 -41 -47q-14 -23 -22 -57q-46 -58 -46 -84q10 -27 7.5 -35t17.5 -24t84 -15q8 2 27 27.5t41 13.5t24 -32t-25.5 -43
t-50.5 -52t-51 -29q-8 -23 -15 -34t-29 -13t-46 -7t-41 9q-12 0 -20.5 9.5t-24.5 19.5q-12 12 -26.5 25t-23.5 55q-17 78 50 205q12 16 22.5 24t22.5 37q4 27 22.5 41t41.5 39q-4 55 9 106.5t13 98.5v114q0 17 -17.5 17t-42 -36t-86 -126t-77.5 -107q-16 -18 -29.5 -33.5
t-41.5 -41t-56 -25.5q-49 0 -71.5 61.5t-22.5 102.5l-6 147l28 240q0 17 23.5 79t50.5 93q58 56 100 114t66 74.5t49 25.5t49.5 14.5t54.5 21.5q16 0 68 39h92l39 18q80 0 80 -92z" />
    <glyph glyph-name="Cacute" unicode="&#x106;" horiz-adv-x="796" 
d="M866 1896v-73q0 -50 -18.5 -72t-36.5 -37.5t-45 -42.5t-46.5 -54.5t-39.5 -48.5t-24.5 -34.5t-18.5 -30.5q-14 -25 -28.5 -40t-36 -39.5t-31.5 -50.5q-19 -48 -36 -75.5t-44 -27.5t-47.5 16.5t-20.5 39.5t10.5 36.5t22.5 44.5q0 16 13.5 37.5t21.5 36.5q0 35 11 52t11 46
t9.5 44t9.5 28q25 31 47 62.5t49 58.5q29 39 56.5 77.5t56.5 69.5q41 0 57 23l63 16q27 0 31 -22.5t4 -39.5zM68 387q-23 46 -23 57l23 119v45l-23 58l23 63v39q54 118 79 143q14 91 107.5 145t132.5 77q23 4 57 13t45 9h119l64 23q80 0 80 -125v-39q-12 -47 -42 -86
t-69 -39t-74 19.5t-79 19.5t-87 -32t-77.5 -75t-56 -87t-21.5 -68v-136q0 -89 26.5 -178.5t56 -137.5t74.5 -48l41 16q106 0 164 58q75 88 103 95t41 7q22 -22 22 -54t-32.5 -90.5t-112 -147.5t-140.5 -89h-16q-117 -24 -129 -24q-26 0 -104.5 47.5t-92.5 78.5
q-13 10 -46 112t-33 149v63z" />
    <glyph glyph-name="cacute" unicode="&#x107;" horiz-adv-x="575" 
d="M502 1579q0 29 8 44t8 28q27 31 49.5 62.5t50.5 64.5t54 71.5t57 69.5q38 0 57 23q16 0 30.5 8t36.5 8t26 -22.5t4 -39.5v-73q0 -48 -18.5 -71t-37 -38.5t-45.5 -42.5t-45 -54.5t-49 -55.5q-12 -14 -16 -27.5t-18 -34.5t-28 -36t-36 -41.5t-32 -50.5q-18 -43 -36.5 -72
t-44.5 -29q-25 0 -46 16.5t-21 39.5t10 36.5t24 44.5q0 22 35 74q0 35 11.5 52t11.5 46zM502 711h-29q-116 0 -137 -17q-16 0 -19.5 -10t-3.5 -25l-28 -45l-9 -45t-8 -38.5t-6 -24.5v-33l-16 -57q-7 -15 -15 -27t-9 -24q-3 -36 22 -108t53 -75q31 0 63.5 24.5t64.5 54.5
t61.5 53.5t57.5 20.5q45 -5 31 -38q-4 -51 -72.5 -135t-125.5 -119q-58 -35 -111 -63.5t-120 -24.5t-81 101.5t-14 113.5l6 18q0 8 -2 28t-3 41.5t-2 41.5t0 57t15.5 73t14.5 77l22 51v47l68 205q0 23 48 66t79 43q16 5 16 11t17 11q40 5 75 18.5t65 9.5q73 -8 123.5 -39
t43.5 -104q0 -37 -22.5 -67.5t-39 -40.5t-38.5 -8t-35 2z" />
    <glyph glyph-name="Ccircumflex" unicode="&#x108;" horiz-adv-x="796" 
d="M819 1385q0 -132 -61 -132q-40 0 -54 49.5t-24 62.5t-23.5 37.5t-35.5 37.5q-41 161 -68 192t-51 54q-19 -19 -29 -52l-18 -41q-51 -43 -66.5 -74.5t-32 -53t-59.5 -54.5l-29 -27q-47 -47 -67 -75t-41 -45h-13q-16 0 -23 8t-15 8q11 48 22 57l10 29q14 49 70 115l29 45
q10 10 32.5 47t71.5 117t80 113q32 32 42.5 47.5t22.5 27.5l58 47l28 -29q12 -10 24.5 -31.5t27.5 -41.5q14 -25 33.5 -49.5t49 -73t42.5 -135.5l45 -74q22 -77 22 -106zM68 387q-23 46 -23 57l23 119v45l-23 58l23 63v39q54 118 79 143q14 91 107.5 145t132.5 77
q23 4 57 13t45 9h119l64 23q80 0 80 -125v-39q-12 -47 -42 -86t-69 -39t-74 19.5t-79 19.5t-87 -32t-77.5 -75t-56 -87t-21.5 -68v-136q0 -89 26.5 -178.5t56 -137.5t74.5 -48l41 16q106 0 164 58q75 88 103 95t41 7q22 -22 22 -54t-32.5 -90.5t-112 -147.5t-140.5 -89h-16
q-117 -24 -129 -24q-26 0 -104.5 47.5t-92.5 78.5q-13 10 -46 112t-33 149v63z" />
    <glyph glyph-name="ccircumflex" unicode="&#x109;" horiz-adv-x="575" 
d="M918 1380q0 -128 -64 -127q-33 0 -45 32t-17.5 49.5t-14.5 30.5t-23.5 37.5t-36.5 37.5q-41 161 -66.5 192t-52.5 54q-19 -19 -29 -52l-16 -41q-49 -41 -66.5 -73.5t-34 -54t-59.5 -54.5l-28 -27q-54 -58 -70.5 -79.5t-38.5 -40.5h-10q-18 0 -24.5 8t-16.5 8q10 45 22 57
l13 29q10 46 67 115l29 45q10 10 32.5 47t72 118t81.5 113q31 32 41 47t23 27l57 47l29 -29q14 -12 40 -55q25 -43 73.5 -104t62.5 -172l29 -45l16 -29q10 -35 17.5 -61t7.5 -50zM502 711h-29q-116 0 -137 -17q-16 0 -19.5 -10t-3.5 -25l-28 -45l-9 -45t-8 -38.5t-6 -24.5
v-33l-16 -57q-7 -15 -15 -27t-9 -24q-3 -36 22 -108t53 -75q31 0 63.5 24.5t64.5 54.5t61.5 53.5t57.5 20.5q45 -5 31 -38q-4 -51 -72.5 -135t-125.5 -119q-58 -35 -111 -63.5t-120 -24.5t-81 101.5t-14 113.5l6 18q0 8 -2 28t-3 41.5t-2 41.5t0 57t15.5 73t14.5 77l22 51
v47l68 205q0 23 48 66t79 43q16 5 16 11t17 11q40 5 75 18.5t65 9.5q73 -8 123.5 -39t43.5 -104q0 -37 -22.5 -67.5t-39 -40.5t-38.5 -8t-35 2z" />
    <glyph glyph-name="Cdotaccent" unicode="&#x10a;" horiz-adv-x="796" 
d="M633 1499q0 -54 -91.5 -136.5t-149.5 -82.5q-57 0 -104.5 72.5t-47.5 97.5t21.5 60.5t51 67.5t58.5 56.5t45 38.5q40 0 102 -44t88.5 -73.5t26.5 -56.5zM68 387q-23 46 -23 57l23 119v45l-23 58l23 63v39q54 118 79 143q14 91 107.5 145t132.5 77q23 4 57 13t45 9h119
l64 23q80 0 80 -125v-39q-12 -47 -42 -86t-69 -39t-74 19.5t-79 19.5t-87 -32t-77.5 -75t-56 -87t-21.5 -68v-136q0 -89 26.5 -178.5t56 -137.5t74.5 -48l41 16q106 0 164 58q75 88 103 95t41 7q22 -22 22 -54t-32.5 -90.5t-112 -147.5t-140.5 -89h-16q-117 -24 -129 -24
q-26 0 -104.5 47.5t-92.5 78.5q-13 10 -46 112t-33 149v63z" />
    <glyph glyph-name="cdotaccent" unicode="&#x10b;" horiz-adv-x="575" 
d="M758 1499q0 -54 -91.5 -136.5t-149.5 -82.5q-57 0 -104.5 72.5t-47.5 97.5t22.5 60.5t51 67.5t58.5 56.5t44 38.5q40 0 102 -44t88.5 -73.5t26.5 -56.5zM502 711h-29q-116 0 -137 -17q-16 0 -19.5 -10t-3.5 -25l-28 -45l-9 -45t-8 -38.5t-6 -24.5v-33l-16 -57
q-7 -15 -15 -27t-9 -24q-3 -36 22 -108t53 -75q31 0 63.5 24.5t64.5 54.5t61.5 53.5t57.5 20.5q45 -5 31 -38q-4 -51 -72.5 -135t-125.5 -119q-58 -35 -111 -63.5t-120 -24.5t-81 101.5t-14 113.5l6 18q0 8 -2 28t-3 41.5t-2 41.5t0 57t15.5 73t14.5 77l22 51v47l68 205
q0 23 48 66t79 43q16 5 16 11t17 11q40 5 75 18.5t65 9.5q73 -8 123.5 -39t43.5 -104q0 -37 -22.5 -67.5t-39 -40.5t-38.5 -8t-35 2z" />
    <glyph glyph-name="Ccaron" unicode="&#x10c;" horiz-adv-x="796" 
d="M182 1796q0 129 64 129q40 0 53.5 -50t22.5 -62t22.5 -38t36.5 -38q14 -47 23.5 -80t23.5 -75t74 -91q19 24 28 51l17 41q44 37 64 72t36.5 56.5t59.5 53.5l28 29q46 46 70 77.5t37 41.5h12q16 0 23.5 -8.5t15.5 -8.5q-4 -16 -8 -32.5t-15 -24.5l-10 -29
q-14 -49 -69 -114l-27 -45q-10 -10 -79.5 -124.5t-127.5 -170.5q-12 -14 -21.5 -29.5t-23.5 -28.5l-57 -45l-29 27q-12 10 -24.5 31.5t-27 44t-32.5 48.5t-50 79t-42 129l-29 45l-16 29q-8 35 -15.5 60.5t-7.5 49.5zM68 387q-23 46 -23 57l23 119v45l-23 58l23 63v39
q54 118 79 143q14 91 107.5 145t132.5 77q23 4 57 13t45 9h119l64 23q80 0 80 -125v-39q-12 -47 -42 -86t-69 -39t-74 19.5t-79 19.5t-87 -32t-77.5 -75t-56 -87t-21.5 -68v-136q0 -89 26.5 -178.5t56 -137.5t74.5 -48l41 16q106 0 164 58q75 88 103 95t41 7q22 -22 22 -54
t-32.5 -90.5t-112 -147.5t-140.5 -89h-16q-117 -24 -129 -24q-26 0 -104.5 47.5t-92.5 78.5q-13 10 -46 112t-33 149v63z" />
    <glyph glyph-name="ccaron" unicode="&#x10d;" horiz-adv-x="575" 
d="M240 1792q0 134 61 133q32 0 44.5 -31.5t18 -50t15.5 -30.5t23.5 -38t35.5 -38q42 -164 68 -194t51 -52q18 18 29 51l18 41q48 40 66 73.5t34.5 55t59.5 53.5l27 29q38 35 62.5 68.5t45.5 50.5h12q16 0 23.5 -8.5t15.5 -8.5q-4 -16 -8 -32.5t-14 -24.5l-10 -29
q-13 -47 -70 -114l-29 -45q-10 -10 -32.5 -47t-71.5 -117.5t-101 -130.5q-12 -14 -22 -29.5t-23 -28.5l-57 -45l-29 27q-12 10 -24.5 31.5t-26.5 44t-33.5 48.5t-50.5 77t-41 131l-45 74q-22 78 -22 106zM502 711h-29q-116 0 -137 -17q-16 0 -19.5 -10t-3.5 -25l-28 -45
l-9 -45t-8 -38.5t-6 -24.5v-33l-16 -57q-7 -15 -15 -27t-9 -24q-3 -36 22 -108t53 -75q31 0 63.5 24.5t64.5 54.5t61.5 53.5t57.5 20.5q45 -5 31 -38q-4 -51 -72.5 -135t-125.5 -119q-58 -35 -111 -63.5t-120 -24.5t-81 101.5t-14 113.5l6 18q0 8 -2 28t-3 41.5t-2 41.5
t0 57t15.5 73t14.5 77l22 51v47l68 205q0 23 48 66t79 43q16 5 16 11t17 11q40 5 75 18.5t65 9.5q73 -8 123.5 -39t43.5 -104q0 -37 -22.5 -67.5t-39 -40.5t-38.5 -8t-35 2z" />
    <glyph glyph-name="Dcaron" unicode="&#x10e;" horiz-adv-x="1400" 
d="M473 1793q0 132 62 132q40 0 53.5 -50t23.5 -62t23.5 -38t36.5 -38q42 -164 68 -194t51 -52q16 16 28 51l19 41q47 40 64.5 73.5t33.5 55t59 53.5l29 29q34 32 63 69t46 50h12q16 0 23.5 -8.5t15.5 -8.5q-12 -48 -23 -57l-10 -29q-15 -52 -70 -114l-28 -45
q-12 -12 -84 -129.5t-121 -165.5q-12 -14 -22.5 -29.5t-22.5 -28.5l-58 -45l-28 27q-12 10 -24.5 31.5t-27 44t-34 48.5t-49.5 76t-41 132l-29 45l-16 29q-23 80 -23 107zM598 803v-518q8 -16 10 -35t7 -46.5t40 -33.5h23l113 12q158 4 239 123.5t86 257.5q4 93 -52 187
t-91 123.5t-55 9.5q-52 35 -58 35h-18l-148 16q-21 0 -66.5 -33.5t-45.5 -58.5q16 -16 16 -39zM1333 399q0 -14 -12 -38.5t-12 -41.5q-12 -27 -30 -70t-35 -69q-32 -50 -86.5 -89.5t-98.5 -39.5h-39q-47 0 -95 -19.5t-55 -19.5h-55q-35 0 -60.5 -9t-43.5 -9h-285
q-44 -22 -61 -23l-58 23h-57l-55 -23q-14 0 -38 13.5t-38 27.5q-96 0 -96 56q0 30 47 55q23 12 49 24h57l96 23q59 -22 76 -23q55 0 55 115v125q0 15 -16 39v127q0 16 8 40.5t8 55.5v176q0 55 -18 93t-78 38q-13 0 -33 -8t-41 -8l-57 16h-39q-14 0 -35.5 13t-21.5 35
q0 42 96 77t154 35h35q16 0 34 -13.5t55 -0.5q37 14 52 14h115l170 17q222 0 390.5 -138.5t168.5 -361.5l-17 -98v-136z" />
    <glyph glyph-name="dcaron" unicode="&#x10f;" horiz-adv-x="1024" 
d="M1480 1721q46 -51 46 -125t-30 -131.5t-89 -121.5q-127 -153 -233 -176h-41v29q20 33 50.5 65.5t78 92t47.5 143.5q0 30 -22.5 73.5t-22.5 68.5q0 24 9 38t19 37q12 16 47 37t65 21t76 -51zM535 688q0 57 -56 57q-74 0 -142.5 -89.5t-68.5 -153.5q0 -8 -5 -44t-2 -72
t21.5 -60.5t61.5 -13.5q81 21 138 144t53 232zM659 1422v24q0 8 6.5 24.5t14.5 37t18.5 40t18.5 35.5q20 27 80.5 112t130.5 99h16q31 0 38 8t19 8l80 -16h58q20 0 39 -80v-57q0 -72 -49.5 -121t-127.5 -49q-15 16 -41 16t-40 -14q-27 -27 -59 -115.5t-36 -109.5l-10 -52
q-12 -35 -41 -92t-29 -164q-26 -46 -43.5 -162t-17.5 -122v-39l-18 -154q-16 -62 0 -98l-4 -51q-3 -51 23 -51t53.5 18t50 41.5t40 42t27.5 18.5t21.5 -12t11.5 -29q-70 -80 -70 -131q-10 -27 -61.5 -89t-62.5 -85q-16 -34 -37 -47.5t-50 -28.5q-112 -83 -112 -45
q-20 -10 -28.5 5.5t-11.5 45t-1 67.5t3.5 93.5t-14.5 55.5q-27 0 -96 -74q-18 -16 -42.5 -47t-70.5 -83t-65 -52q-40 0 -76.5 38.5t-36.5 81.5v125q0 13 29 154q0 24 23 80v16q16 80 16 97q12 31 17 57t24 57q10 75 68.5 119.5t94.5 68t64 52.5q37 0 58 22q75 12 94.5 25.5
t23.5 64.5l17 58l18 125l17 80q0 28 16 85.5t19 64.5t3 8z" />
    <glyph glyph-name="Dcroat" unicode="&#x110;" horiz-adv-x="1400" 
d="M598 803v-160l10 -16l41 6q23 -4 47.5 8t55.5 -4q81 35 108 18q8 -10 0 -19.5t-10 -21.5t-4 -28.5t-17 -50.5t-49 -52l-125 6h-47l-10 -10v-194q8 -16 10 -35t7 -46.5t40 -33.5h23l113 12q158 4 239 123.5t86 257.5q4 93 -52 187t-91 123.5t-55 9.5q-52 35 -58 35h-18
l-148 16q-21 0 -66.5 -33.5t-45.5 -58.5q16 -16 16 -39zM137 956q-14 0 -35.5 13t-21.5 35q0 42 96 77t154 35h35q16 0 34 -13.5t55 -0.5q37 14 52 14h115l170 17q222 0 390.5 -138.5t168.5 -361.5l-17 -98v-136q0 -14 -12 -38.5t-12 -41.5q-12 -27 -30 -70t-35 -69
q-32 -50 -86.5 -89.5t-98.5 -39.5h-39q-47 0 -95 -19.5t-55 -19.5h-55q-35 0 -60.5 -9t-43.5 -9h-285q-30 -10 -61 -10l-58 10h-57l-55 -10q-48 0 -76 28q-96 0 -96 56q0 30 47 55q23 12 49 24h57l96 23q59 -22 76 -23q55 0 55 115v125q0 15 -16 39v35l-6 18q-8 0 -53 -5.5
t-72 5.5q-36 -22 -131 0h-29q4 12 11.5 47t29.5 49q68 12 132.5 23.5t123.5 15.5q4 10 7 15.5t3 13.5v182q0 55 -18 93t-78 38l-74 -12l-57 12h-39z" />
    <glyph glyph-name="dcroat" unicode="&#x111;" horiz-adv-x="815" 
d="M535 688q0 57 -56 57q-74 0 -142.5 -89.5t-68.5 -153.5q0 -8 -5 -44t-2 -72t21.5 -60.5t61.5 -13.5q81 21 138 144t53 232zM659 1422v24q0 8 6.5 24.5t14.5 37t18.5 40t18.5 35.5q20 27 80.5 112t130.5 99h16q31 0 38 8t19 8l80 -16h58q20 0 39 -86v-51q0 -72 -49.5 -121
t-127.5 -49q-15 16 -41 16t-47 -21t-65 -139q16 4 31.5 7.5t38.5 -7.5q48 29 106 23l-10 -33q0 -53 -24.5 -87t-45.5 -44l-125 4h-4q-12 -31 -41 -88t-29 -162q-26 -46 -43.5 -162t-17.5 -122v-39l-18 -154q-16 -62 0 -98l-4 -51q-3 -51 23 -51t53.5 18t50 41.5t40 42
t27.5 18.5t21.5 -12t11.5 -29q-70 -80 -70 -131q-10 -27 -61.5 -89t-62.5 -85q-11 -24 -20 -30.5t-21.5 -10.5t-26 -7t-19.5 -5q-23 -16 -67.5 -55t-44.5 -13q-20 -10 -28.5 5.5t-11.5 45t-1 67.5t3.5 93.5t-14.5 55.5q-27 0 -96 -74q-18 -16 -42.5 -47t-70.5 -83t-65 -52
q-40 0 -76.5 38.5t-36.5 81.5v125q0 13 29 154q0 24 23 80v16q16 80 16 97q12 31 17 57t24 57q10 75 68.5 119.5t94.5 68t64 52.5q37 0 58 22q75 12 94.5 25.5t23.5 64.5v58l35 125v6l-35 -6q-14 3 -71.5 -5t-65.5 -5q-43 -17 -135 4h-29q0 24 17.5 58t27.5 40
q66 12 131.5 31.5t124.5 19.5q15 6 64 6q8 25 13 49.5t9 31.5t4 8z" />
    <glyph glyph-name="Emacron" unicode="&#x112;" horiz-adv-x="995" 
d="M119 1253q0 35 18.5 62.5t28.5 34.5q63 12 129.5 31.5t126.5 19.5q23 8 57.5 5t73.5 5h113q23 0 48 11.5t54 -5.5q48 29 109 23q-8 -8 -9 -23q-4 -41 -18 -81.5t-53 -59.5q-23 4 -54 2t-55 1t-43.5 3t-55 -1.5t-59.5 -11.5q-23 -9 -56.5 -5t-74.5 -7q-16 3 -59 -5t-55 -5
q-47 -17 -138 6h-28zM483 1133q12 0 23.5 -2.5t27 -3.5t37 -3t56.5 -2l67 17q16 4 36 10t45 6q24 0 67 -33q14 -27 18 -63.5t17 -63.5q9 -9 23 -44q15 -36 28 -58q0 -39 -51 -39q-12 0 -92 62.5t-228 62.5l-39 -10q-12 -18 -23.5 -30.5t-11.5 -20.5v-19q-16 -64 -16 -74
v-147q0 -31 12.5 -58.5t38.5 -27.5q6 0 90 16h41q19 0 43.5 17.5t35.5 25.5t22 8t32 -26l21 -25v-135q0 -57 -51 -57q-34 0 -68 28q-23 8 -38 18.5t-38 10.5h-73q-51 0 -65.5 -18.5t-14.5 -73.5v-51q6 -29 8 -57.5t10 -68.5t62 -50h114q55 0 131 41q93 32 119 32
q35 -26 35 -42t-32 -45q-32 -30 -44 -57.5t-23.5 -51t-28 -39t-38.5 -15.5q-27 0 -53.5 11.5t-65.5 11.5l-198 -6l-70 -17h-170l-41 -12l-61 -4q-32 0 -51 31t-19 37q0 51 76 51q15 6 39 17t45 18q43 8 58 26.5t15 56.5t7.5 50t-7.5 24q0 10 -16 70v164l16 143v35l7 33v227
q0 18 -20.5 29.5t-31.5 11.5h-57q-39 0 -56.5 32.5t-17.5 60.5t11.5 38t23.5 10h109l102 7h141z" />
    <glyph glyph-name="emacron" unicode="&#x113;" horiz-adv-x="581" 
d="M147 1253q0 32 18.5 61t29.5 36q63 12 129.5 31.5t126.5 19.5q23 8 57.5 5t73.5 5h112q23 0 48.5 11.5t54.5 -5.5q48 29 108 23q-9 -9 -16 -73t-64 -91q-23 4 -54 2t-55 1t-43.5 3t-56.5 -1.5t-58 -11.5q-21 -9 -55 -5t-77 -7q-14 3 -57 -5t-56 -5q-46 -17 -137 6h-29z
M479 774q0 21 -20 31q-8 6 -21 10l-35 4q-10 0 -25.5 -24t-26.5 -53q-17 -45 -21.5 -69t18.5 -24q25 -5 76 24.5t55 65.5v35zM496 973q158 0 154 -201q-1 -47 -42 -81t-84 -58q-39 -27 -83 -47.5t-107 -61.5t-66 -125v-86q-4 -35 14.5 -68.5t47.5 -33.5q4 -4 52 28.5
t56 39.5q31 14 48.5 23t25.5 5q14 0 24.5 -4t8.5 -40t-37 -78t-76 -77.5t-79.5 -62.5t-62.5 -49t-54 -23.5t-54 -0.5q-41 2 -77 47t-31 77v35q0 25 -17 45l6 41v33q0 17 10.5 90.5t15.5 111t7 50.5q8 6 8 8l-2 21q-2 20 7 32q0 25 8 45l43 103q8 85 131 177.5t205 84.5z" />
    <glyph glyph-name="Ebreve" unicode="&#x114;" horiz-adv-x="995" 
d="M764 1593q0 10 11 9.5t11 9.5h23l29 -13q0 -23 5 -25t5 -20t-2 -23t-10 -29t-10.5 -33t-6.5 -25t-12.5 -21.5t-18.5 -18.5t-14 -21.5t-9.5 -19.5t-44.5 -33t-79 -35q-39 -13 -49 -19t-23 -6h-45l-73 -6q-10 0 -32 14t-71 14q-23 5 -57 35q-34 12 -64 33q-18 15 -39 70
q-14 23 -24 41.5t-10 56.5t36 66t78 28t69.5 -7t27.5 -38l-7 -23q0 -12 6.5 -18t6.5 -16l-6 -17q0 -75 61.5 -97t81.5 -22t85 -2.5t101 48.5q33 33 44 76q11 42 13.5 48.5t4.5 22.5t8 16zM483 1133q12 0 23.5 -2.5t27 -3.5t37 -3t56.5 -2l67 17q16 4 36 10t45 6q24 0 67 -33
q14 -27 18 -63.5t17 -63.5q9 -9 23 -44q15 -36 28 -58q0 -39 -51 -39q-12 0 -92 62.5t-228 62.5l-39 -10q-12 -18 -23.5 -30.5t-11.5 -20.5v-19q-16 -64 -16 -74v-147q0 -31 12.5 -58.5t38.5 -27.5q6 0 90 16h41q19 0 43.5 17.5t35.5 25.5t22 8t32 -26l21 -25v-135
q0 -57 -51 -57q-34 0 -68 28q-23 8 -38 18.5t-38 10.5h-73q-51 0 -65.5 -18.5t-14.5 -73.5v-51q6 -29 8 -57.5t10 -68.5t62 -50h114q55 0 131 41q93 32 119 32q35 -26 35 -42t-32 -45q-32 -30 -44 -57.5t-23.5 -51t-28 -39t-38.5 -15.5q-27 0 -53.5 11.5t-65.5 11.5l-198 -6
l-70 -17h-170l-41 -12l-61 -4q-32 0 -51 31t-19 37q0 51 76 51q15 6 39 17t45 18q43 8 58 26.5t15 56.5t7.5 50t-7.5 24q0 10 -16 70v164l16 143v35l7 33v227q0 18 -20.5 29.5t-31.5 11.5h-57q-39 0 -56.5 32.5t-17.5 60.5t11.5 38t23.5 10h109l102 7h141z" />
    <glyph glyph-name="ebreve" unicode="&#x115;" horiz-adv-x="581" 
d="M809 1593q0 10 11 9.5t11 9.5h23l29 -13q0 -23 5 -25t5 -20t-2 -23t-10 -29t-9.5 -33t-5.5 -25t-13 -21.5t-19 -18.5t-14.5 -21.5t-10.5 -20.5t-45 -33t-78 -34t-48 -19t-24 -6h-45l-73 -6q-10 0 -30 14t-73 14q-24 6 -57 35q-26 9 -64 33q-16 14 -26 41t-28.5 58
t-18.5 69t36.5 66t78.5 28t69 -7t27 -38l-7 -23q0 -12 6.5 -18t6.5 -16l-6 -17q0 -75 61 -97t83 -22t85.5 -2.5t99.5 48.5q32 32 44 75t14 49.5t4 22.5t8 16zM479 774q0 21 -20 31q-8 6 -21 10l-35 4q-10 0 -25.5 -24t-26.5 -53q-17 -45 -21.5 -69t18.5 -24q25 -5 76 24.5
t55 65.5v35zM496 973q158 0 154 -201q-1 -47 -42 -81t-84 -58q-39 -27 -83 -47.5t-107 -61.5t-66 -125v-86q-4 -35 14.5 -68.5t47.5 -33.5q4 -4 52 28.5t56 39.5q31 14 48.5 23t25.5 5q14 0 24.5 -4t8.5 -40t-37 -78t-76 -77.5t-79.5 -62.5t-62.5 -49t-54 -23.5t-54 -0.5
q-41 2 -77 47t-31 77v35q0 25 -17 45l6 41v33q0 17 10.5 90.5t15.5 111t7 50.5q8 6 8 8l-2 21q-2 20 7 32q0 25 8 45l43 103q8 85 131 177.5t205 84.5z" />
    <glyph glyph-name="Edotaccent" unicode="&#x116;" horiz-adv-x="995" 
d="M739 1499q0 -53 -90 -136t-147 -83t-105.5 72.5t-48.5 97.5t21.5 60.5t51.5 67.5t58.5 56.5t44.5 38.5q41 0 101.5 -44t87 -73.5t26.5 -56.5zM483 1133q12 0 23.5 -2.5t27 -3.5t37 -3t56.5 -2l67 17q16 4 36 10t45 6q24 0 67 -33q14 -27 18 -63.5t17 -63.5q9 -9 23 -44
q15 -36 28 -58q0 -39 -51 -39q-12 0 -92 62.5t-228 62.5l-39 -10q-12 -18 -23.5 -30.5t-11.5 -20.5v-19q-16 -64 -16 -74v-147q0 -31 12.5 -58.5t38.5 -27.5q6 0 90 16h41q19 0 43.5 17.5t35.5 25.5t22 8t32 -26l21 -25v-135q0 -57 -51 -57q-34 0 -68 28q-23 8 -38 18.5
t-38 10.5h-73q-51 0 -65.5 -18.5t-14.5 -73.5v-51q6 -29 8 -57.5t10 -68.5t62 -50h114q55 0 131 41q93 32 119 32q35 -26 35 -42t-32 -45q-32 -30 -44 -57.5t-23.5 -51t-28 -39t-38.5 -15.5q-27 0 -53.5 11.5t-65.5 11.5l-198 -6l-70 -17h-170l-41 -12l-61 -4q-32 0 -51 31
t-19 37q0 51 76 51q15 6 39 17t45 18q43 8 58 26.5t15 56.5t7.5 50t-7.5 24q0 10 -16 70v164l16 143v35l7 33v227q0 18 -20.5 29.5t-31.5 11.5h-57q-39 0 -56.5 32.5t-17.5 60.5t11.5 38t23.5 10h109l102 7h141z" />
    <glyph glyph-name="edotaccent" unicode="&#x117;" horiz-adv-x="581" 
d="M739 1499q0 -53 -90 -136t-147 -83t-105.5 72.5t-48.5 97.5t21.5 60.5t51.5 67.5t58.5 56.5t44.5 38.5q41 0 101.5 -44t87 -73.5t26.5 -56.5zM479 774q0 21 -20 31q-8 6 -21 10l-35 4q-10 0 -25.5 -24t-26.5 -53q-17 -45 -21.5 -69t18.5 -24q25 -5 76 24.5t55 65.5v35z
M496 973q158 0 154 -201q-1 -47 -42 -81t-84 -58q-39 -27 -83 -47.5t-107 -61.5t-66 -125v-86q-4 -35 14.5 -68.5t47.5 -33.5q4 -4 52 28.5t56 39.5q31 14 48.5 23t25.5 5q14 0 24.5 -4t8.5 -40t-37 -78t-76 -77.5t-79.5 -62.5t-62.5 -49t-54 -23.5t-54 -0.5q-41 2 -77 47
t-31 77v35q0 25 -17 45l6 41v33q0 17 10.5 90.5t15.5 111t7 50.5q8 6 8 8l-2 21q-2 20 7 32q0 25 8 45l43 103q8 85 131 177.5t205 84.5z" />
    <glyph glyph-name="Eogonek" unicode="&#x118;" horiz-adv-x="995" 
d="M692 -301h72q8 2 12 8t13 18.5t37 12.5t28 -24q0 -47 -85.5 -117t-135.5 -70q14 0 -4.5 -2t-72.5 20.5t-54 141.5q0 68 24.5 109.5t56 85.5t83.5 118l-215 -6l-70 -17h-170l-102 -16q-32 0 -51 31.5t-19 47.5t17.5 28t44 18t102.5 20.5t76 149.5q0 2 -3.5 15.5t-9 39.5
t-10.5 31v164l16 178l7 33v227q0 18 -20.5 29.5t-31.5 11.5h-57q-39 0 -56.5 32.5t-17.5 60.5t11.5 38t23.5 10h109l102 7h141q12 0 23.5 -2.5t27 -3.5t37 -3t56.5 -2l67 17q16 4 36 10t52 6q31 0 53.5 -30.5t35 -73.5t23.5 -87t34 -71q0 -39 -51 -39q-12 0 -92 62.5
t-228 62.5l-39 -10q-12 -18 -23.5 -30.5t-11.5 -20.5v-19q-16 -64 -16 -74v-147q0 -31 12.5 -58.5t38.5 -27.5q6 0 90 16h41q19 0 43.5 17.5t35.5 25.5t22 8t32 -26l21 -25v-135q0 -57 -51 -57q-31 0 -74 28.5t-70 28.5h-73q-51 0 -65.5 -18.5t-14.5 -73.5v-51
q6 -29 8 -57.5t10 -68.5t62 -50h114q42 0 128 36.5t122 36.5q35 -26 35 -37t-66 -109t-94 -104q-62 -49 -90.5 -114.5t-28.5 -89.5q24 -74 37 -74z" />
    <glyph glyph-name="eogonek" unicode="&#x119;" horiz-adv-x="581" 
d="M479 774q0 21 -20 31q-8 6 -21 10l-35 4q-10 0 -25.5 -24t-26.5 -53q-17 -45 -21.5 -69t18.5 -24q25 -5 76 24.5t55 65.5v35zM496 973q158 0 154 -201q-1 -47 -42 -81t-84 -58q-39 -27 -83 -47.5t-107 -61.5t-66 -125v-86q-4 -35 14.5 -68.5t47.5 -33.5q4 -4 52 28.5
t56 39.5q31 14 48.5 23t25.5 5q14 0 24.5 -4t8.5 -36q-3 -53 -60 -108t-149 -124q-10 -27 -42 -47.5t-61 -50.5q-12 -16 -13 -39t-9 -41q-45 -57 -45 -84q8 -27 6 -35t17 -24t83 -15q12 3 18.5 12.5t12.5 16t20.5 10.5t28 -3t15.5 -27t-26 -43t-51 -52t-50 -29
q-10 -23 -18 -34t-28 -13t-44.5 -7t-40.5 9q-14 0 -21.5 9.5t-24.5 19.5q-14 12 -28.5 25t-22.5 55q-15 77 51 205q12 16 21.5 24t24.5 37q4 23 19 35t32 28q-35 16 -62.5 55.5t-23.5 63.5v35q0 25 -17 45l6 41v33q0 17 10.5 90.5t15.5 111t7 50.5q8 6 8 8l-2 21q-2 20 7 32
q0 25 8 45l43 103q8 85 131 177.5t205 84.5z" />
    </font>
</defs>
</svg>
