<?xml version="1.0" standalone="no"?>
<!DOCTYPE svg PUBLIC "-//W3C//DTD SVG 1.1//EN" "http://www.w3.org/Graphics/SVG/1.1/DTD/svg11.dtd" >
<svg xmlns="http://www.w3.org/2000/svg">
<metadata>
Created by FontPrep 20130207 at Tue Dec  9 01:51:38 2014
 By Alexander Gunnarson
</metadata>
<defs>
<font id="ae2ced317923654c8d187f3f6491c3ce" horiz-adv-x='1024' >
  <font-face 
    font-family="VintageTypewriter-Two"
    font-weight="400"
    font-stretch="normal"
    units-per-em="2048"
    panose-1="2 0 5 6 3 0 0 2 0 4"
    ascent="1544"
    descent="-504"
    x-height="963"
    cap-height="1313"
    bbox="-141 -602 1395 1739"
    underline-thickness="116"
    underline-position="-250"
    unicode-range="U+0009-FB02"
  />
<missing-glyph horiz-adv-x="2048" 
 />
    <glyph glyph-name=".notdef" horiz-adv-x="2048" 
 />
    <glyph glyph-name=".null" horiz-adv-x="0" 
 />
    <glyph glyph-name="nonmarkingreturn" unicode="&#xd;" horiz-adv-x="0" 
 />
    <glyph glyph-name="NUL" horiz-adv-x="0" 
 />
    <glyph glyph-name="NUL" horiz-adv-x="0" 
 />
    <glyph glyph-name="HT" unicode="&#x9;" horiz-adv-x="0" 
 />
    <glyph glyph-name="LF" unicode="&#xa;" horiz-adv-x="0" 
 />
    <glyph glyph-name="DLE" 
 />
    <glyph glyph-name="space" unicode=" " 
 />
    <glyph glyph-name="exclam" unicode="!" 
d="M713 125q0 -14 22.5 -31t22.5 -32q0 -14 -14.5 -22.5t-30 -15t-28.5 -15.5t-9 -29q-20 -4 -29 -5l-80 7q-10 15 -33.5 24.5t-34 17t-14.5 23.5q4 16 4 37t-16 47.5t-16 49.5q0 32 25 57t22 41q20 14 39.5 12t42.5 -2l22 2q10 20 33 20t34 -16t21.5 -35.5t23.5 -35
t40 -11.5q6 -12 6 -16q-53 -23 -53 -72zM541 424l16 57q0 17 -6 29l-15 14q-14 15 -14 29t8.5 24.5t8.5 25.5q0 19 -23.5 51.5t-23.5 48.5t12 40q-25 36 -2 82q-8 20 -16.5 37t-18.5 41t-4 64q-10 18 -9 45.5t-3 50.5q8 23 10 50.5t24 45.5l50 129q10 4 18 3t23 -1t24 17
l14 -2l-6 -33q10 -10 24 -10t28 9t30 11q16 -25 31.5 -40t36 -40t25.5 -62q5 -36 7.5 -64t12.5 -44q-2 -27 -11.5 -45.5t-9.5 -44.5t-10 -51q-14 -14 -32.5 -24.5t-18.5 -32.5l6 -36q6 -36 2 -42q-10 -8 -23.5 -19.5t-0.5 -27.5l2 -35q2 -54 -31 -174q-14 -8 -14 -23l5 -29
q5 -28 -6.5 -57t-25.5 -33q-10 10 -30.5 17.5t-16.5 25.5q-8 14 -21.5 16.5t-25.5 6.5z" />
    <glyph glyph-name="quotedbl" unicode="&#x22;" 
d="M465 935q0 -19 9 -30.5t29.5 -26t20.5 -28.5t-20 -27l-6 2q-17 0 -31 -24q8 -20 8 -45t-17.5 -53.5t-25.5 -61.5q-26 -26 -41 -31q-15 12 -19.5 44.5t-21.5 50.5v47q0 72 -31 102q15 45 15 81t-21 69q16 33 3 57t-13 44.5t12 33.5q-8 20 -8 41.5t-18 38.5q6 18 19.5 35.5
t10.5 39.5l9 2q10 0 17 -7t16 -7q13 0 28.5 24.5t28.5 24.5l14 -4l17 -22v-7q0 -6 47 -49.5t43 -85.5v-16q-18 -8 -19 -25l12 -45q0 -6 -8 -14q9 -33 -13 -56.5t-34 -38t-12 -33.5zM709 827q0 22 43 62q-14 18 -16.5 35.5t-8 47.5t-37.5 58q-6 6 -6 20t14.5 27t12.5 31
q18 12 12 26.5t-6 30.5l2 6q17 6 41 55.5t53 73.5q39 -18 67.5 -36.5t28.5 -65.5q0 -16 9.5 -29.5t13.5 -29.5q-8 -8 -16.5 -42t-8.5 -36l11 -62q0 -14 -9 -26q-18 -6 -20 -25.5t-3 -32t-5 -20.5q5 -37 -8 -61t-13 -44t10 -34v-17q0 -47 -22 -61q-4 -10 -3 -22.5t1 -24.5
q0 -45 -25 -45q-37 0 -59 65q-31 16 -31 36q0 21 8.5 38t8.5 35t-19.5 31.5t-19.5 35.5z" />
    <glyph glyph-name="numbersign" unicode="#" 
d="M344 511q0 -28 25 -28q4 0 9 6t18.5 7.5t13.5 17.5q0 10 -17 10l-24 -2q-4 0 -13 4q-12 -2 -12 -15zM510 544q0 1 8 8t8 18t-12 12h-2q-4 -6 -12 -9.5t-8 -13.5q0 -16 16 -16q2 0 2 1zM381 836h-6l-2 -15h4l22 4v4q-14 7 -18 7zM594 641q22 0 22 -27t-16 -69
q8 -19 28 -19t27 16t23 34t46 32.5t50 44.5q0 25 28.5 28t28.5 18t-15 19.5t-20 13.5t-2 27.5t-18 28.5q-4 -2 -22 -2t-39 10.5t-43 10.5t-21.5 -28.5t-9.5 -28.5q-27 0 -43 38t-45 41q-12 -8 -21.5 -21t-25.5 -7q-14 -12 -39 -18.5t-25 -28.5q0 -14 5.5 -19.5t5.5 -13.5
t-3.5 -14.5t-0.5 -14.5v-4q25 -5 30.5 -32t15 -37.5t31.5 -10.5t37 16.5t31 16.5zM535 1014q0 -4 8 -4t8 13t-12 13q-2 0 -4 -2v-20zM408 614q30 0 30 34t-61 83q10 25 10 39t-8 31l-37 10l-25 -25l-38 15l-5 12q0 10 17.5 27.5t17.5 29.5q16 27 28.5 28t40.5 1t44 21.5
t33 37.5l-6 25q0 14 6 29.5t14.5 39t-6.5 46.5l10 30q-8 16 -1 31t7 32t-22 26q-8 12 -8 21t8 14t23 17t5 31q27 24 4 76q27 39 32 61.5t15 46t105 52.5l18 29l35 -31l-12 -66l27 -41l12 -2q6 0 15 20t20 23q22 -14 22 -57l-2 -14l-20 2q-37 0 -43 -23l2 -8q0 -29 -28 -44
t-46 -26l33 -24q10 -27 10 -45t-8 -27l-27 -10q-14 -27 -38.5 -44.5t-24.5 -39.5t23.5 -67.5t27.5 -47.5h53q-45 -50 -45 -90q0 -13 12 -43q20 14 38 34.5t44 25.5q12 20 32 31.5t36 27.5l-6 117q14 14 18 43.5t6 45t13 27.5q-2 20 -14.5 37t-12.5 37q20 26 33 82.5t26 67.5
l-4 16q0 16 19 43.5t10 48.5q39 4 74 16.5t71 14.5l11 -14h6q12 0 18 11t16.5 11t17.5 -10.5t7 -22.5q0 -17 -26.5 -35.5t-26.5 -34.5q0 -20 29.5 -46.5t29.5 -55.5l-2 -14h-14q-60 0 -54.5 -63.5t5.5 -75.5q-43 -57 -39 -133l2 -52q16 -12 26.5 -33.5t31 -53t65.5 -19.5
q16 -10 16 -41l-2 -27h-16q-33 2 -39 -15t-4 -46q-25 0 -43.5 17.5t-44.5 13.5q-9 6 -30 6t-46 -11l-23 -36l-45 -23l23 -41l-2 -53q-4 -35 20.5 -48.5t42.5 -13.5t20.5 9.5t4.5 30t16 20.5l15 -2q6 -20 17 -48t33 -28t31 17.5t14 27.5t11 16q29 2 42 -8t13 -56t-30 -83
l-27 2l-49 -3q-49 -3 -76 3l-37 -25l-55 7q-8 -15 -31.5 -21t-32 -14t-8.5 -30t13.5 -41t13.5 -43t-21.5 -34t-40.5 -18q4 -18 14.5 -34.5t10.5 -38.5t-17.5 -60.5t-17.5 -75.5t-8 -68.5t4 -64.5q-10 -6 -25.5 -16.5t-15.5 -26.5l2 -6q29 -16 29 -45l-6 -27l-6 -2
q-16 0 -29.5 12.5t-30.5 3.5q-22 44 -47 41q-6 -43 -33 -43l-14 9l-2 34l29 23q-17 65 -17 96t34 81t34 68t-12.5 25.5t-12.5 24t10.5 31t8.5 30.5q8 8 13 20.5t13 31t35 18.5l10 67q-16 14 -23 35t-24 35q-23 2 -42.5 2t-35.5 10t-26 30t-20.5 20t-16.5 -7
q-4 -18 -18.5 -25t-30 -11.5t-29.5 -10.5t-16 -26l-41 -31l10 -33l49 12l-4 -28l-37 -13l10 -47q-41 -63 -22 -108q-35 -35 -17.5 -80t17.5 -74q12 -8 12 -21t-10 -26.5t-6 -30.5q-39 -42 -40 -50.5t2 -17.5t3 -32l-4 -18q-25 -16 -56.5 -29.5t-37.5 -46.5
q-27 40 -39.5 91.5t-12.5 65.5t10 80.5t27 83.5q2 20 8.5 32.5t12.5 30.5t-15 54q25 27 48.5 53.5t23.5 65.5l-4 24q-18 8 -16 16.5t2 24.5t-76 41l-47 -14q-6 12 -6 16q0 15 28.5 71t42.5 56q18 0 27 -17t21 -17q19 0 30.5 27.5t11.5 41.5q10 10 22 8t24 -2z" />
    <glyph glyph-name="dollar" unicode="$" 
d="M260 207h-2q-4 -8 -4 -17t12 -12l6 10q0 19 -12 19zM788 264q16 0 24.5 15.5t21 15.5t16.5 -14.5t19 -14.5q23 0 28 33q-10 13 -10 27t7 23t21.5 28.5t14.5 48.5t-10 51l-43 10q-12 4 -25.5 20.5t-36.5 16.5q-29 0 -29 -43q0 -20 7 -39q-13 -10 -13 -29.5t-8 -27.5
q10 -14 10 -29l-12 -61q0 -18 12 -31h6zM370 887q-10 0 -40 6q-16 -4 -16.5 -26.5t5 -27.5t25.5 -5t36.5 -27t18.5 -43q7 -8 19 -8t21.5 17.5t21.5 21.5v6q0 29 -16.5 59.5t-16.5 39.5t9 18.5t9 21.5q0 35 -34 35q-20 0 -11 -21.5t9 -35.5t-15 -22.5t-25 -8.5zM535 725
q0 -10 14 -10q6 0 18 8q0 27 -16 27l-16 -13v-12zM739 808q0 18 -20.5 31t-20.5 33v5q14 12 15 34l-11 64q0 20 13 33q-8 49 -45 73q-28 -6 -37.5 -36.5t-16 -45t-24.5 -16.5l-21 4q-6 0 -12 -6q4 -23 18.5 -39t14.5 -41t-21 -27t-37 -2t-16 -37.5t-2 -41.5q23 -11 41 -5.5
t29 7.5q14 -8 14 -22.5t-10 -28t-10 -29.5v-2q8 -8 10.5 -32t25.5 -24t23 21l-10 45q0 10 10 20h4q23 -2 40 17.5t40 17.5q16 12 16 30zM650 1251.5q7 0.5 7 16.5t-14 16t-14 -14q0 -8 7 -13.5t14 -5zM727 -436q-8 0 -8 5t2 7q16 0 22 -6l-4 -10q-4 4 -12 4zM774 1616
q17 0 34 20.5t34 20.5t35 -37l-11 -43q25 -4 38.5 -31.5t13.5 -56.5t-18.5 -61t-18.5 -58t10 -47l53 -18l4 -19q0 -20 -27.5 -42t-27.5 -36t13.5 -21t28.5 -14q19 -9 25.5 -53t51.5 -67v-9q0 -16 18.5 -41.5t18.5 -43.5q0 -88 -27 -115l-2 -17q-61 16 -74 -8
q-16 -4 -33.5 -14t-36 -10t-42 11t-41.5 15l-5 -20q0 -12 7.5 -22.5t18 -28t-2.5 -37.5q10 -60 29.5 -66t36.5 -4t39 2t30 -6l43 6l-8 -37q0 -41 24.5 -75.5t38.5 -71.5q-6 -33 -13 -65t-7 -72t20 -72l-10 -33l-26 -10q-20 -114 -37 -148q-29 35 -49 35t-30.5 -16.5
t-22 -31.5t-28 -21.5t-50.5 14.5q-47 -7 -42 -65t11 -90t6 -50t-8 -35q10 -18 -2.5 -43.5t-12.5 -41.5t-6 -28l-11 -22t-5 -19t12 -18l-12 -39q-55 15 -55 80q0 23 -42 36t-49 38q58 10 74 55l-18 54l-31 14q12 27 35.5 44t23.5 39t-11 27t-35.5 12.5t-18.5 39.5l-55 12
q-10 -10 -12.5 -27.5t-5.5 -35t-10 -29.5t-28 -12q-16 -16 -16 -40t10 -49.5t-6 -50.5l18 -28l35 -17q-22 -34 -18 -67t3 -48.5t-13 -29.5l2 -31h-21q-8 18 -6 37.5t2 47.5t-33 42l-18 -2q-29 0 -37 20l-4 50q0 23 19.5 28.5t35.5 18.5l-37 53q4 13 1.5 42t25.5 40
q-8 51 -25.5 82t-70.5 31q-20 0 -33 14q-29 -6 -29 45q-6 12 -22.5 13t-30.5 3t-22.5 8.5t0.5 28.5q-8 8 -11.5 65.5t-5.5 86t-2 45.5t33 39l6 67q14 -8 33.5 -18t25.5 -27l56 25q17 -6 20.5 -23.5t5.5 -28t13 -16.5l-5 -59q-25 -15 -30.5 -74t-5.5 -89t26 -56l23 -4l20 43
l-20 53q3 19 23 22.5t28 7t8 13.5l-4 14q-21 13 -33 64l29 14q8 -18 26.5 -22.5t22.5 -22.5l-31 -49l11 -43l41 2q31 -49 69 -49q18 0 48.5 20t50.5 15q23 12 30.5 33.5t24.5 37.5l-35 39l-49 -27q0 20 9 28.5t29.5 29t20.5 98.5q35 35 35 52t-17.5 30.5t-40 25t-45 17.5
t-32.5 6t-27 -8q-10 -41 -30.5 -58.5t-37 -26.5t-24.5 -17.5t6 -30.5l-55 -4q-10 46 6 88q-18 39 -22 68.5t-18.5 62.5t-123.5 53l2 12q0 17 -21.5 38.5t-22.5 32.5t18 28v8q0 17 -18.5 43.5t-18.5 37.5q0 17 24 100.5t31 90.5l17 -2q14 0 23 16.5t15.5 24.5t18.5 10l14 37
l62 9q6 8 31 25.5t12 47.5q31 162 30 307q0 16 15 31l-8 33l10 2q19 0 56.5 -27t59.5 -36l31 14q18 -18 1.5 -45.5t-1.5 -44.5l-10 -49l25 -31l-35 -21q10 -10 14 -26.5t11 -43t34 -26.5q45 0 45 62q0 23 -24 61q14 25 14 82q18 21 -2 76l37 8l10 41h6z" />
    <glyph glyph-name="percent" unicode="%" 
d="M821 377l-24 6q-23 0 -37.5 -58t-14.5 -95q0 -38 7 -64q12 8 27.5 9t42 3t42.5 29h8q25 0 39 14q3 31 25 57.5t32.5 39t10.5 22.5t-5 21.5t-9 21.5q-10 29 -34 35t-46 14q-16 -16 -33.5 -24.5t-26.5 -30.5h-4zM427 1126q-15 0 -24.5 -22.5t-17.5 -36.5q-14 8 -26.5 17.5
t-28.5 9.5h-6q-16 -23 -33 -45.5t-17 -51.5l9 -30q0 -18 -17.5 -16.5t-28.5 1.5t-11.5 -13t-0.5 -21l-2 -13q-8 -6 -11 -15t-15 -5q-11 -4 -11 -32t17 -28l30 6q14 0 19 -12q8 -29 13 -33l29 -20q25 -18 36 -35q38 15 43.5 29t4.5 28t-1 34t4 30q25 -16 55 -18
q23 16 28 43.5t9 54.5q16 16 16 45l-12 86q-4 8 -9 15t-3 18q-6 8 -14.5 19t-23.5 11zM1210 1556v-129q0 -13 -16 -53l-35 10q-25 -27 -35 -55.5t-20 -56t-25.5 -52t-52.5 -40.5v-9q2 -25 -11.5 -43t-43 -50.5t-29.5 -78.5q0 -10 -9 -13t-29.5 -8.5t-20.5 -28.5t-10.5 -34.5
t-30 -31t-11.5 -41.5l-14 -31l-18 2q-21 0 -34.5 -39t-25.5 -47q0 -23 -14 -37t-43.5 -38.5t-19.5 -59.5q-16 -16 -20.5 -38t-20.5 -38l8 -63q41 33 85 53t89 55q45 0 56 -17.5t5 -31.5l21 -10l-8 41l65 47q15 -18 45.5 -21.5t49 -5.5t34.5 -5q32 -6 61 -94.5t29 -127.5
q0 -48 -34 -132t-42 -114l-38 -41l-50 2q-25 -16 -40 -45t-44 -51l-61 31q-8 -14 -29 -15t-45 43q-99 34 -125 81.5t-22 82.5h-43q6 45 29.5 88t23.5 76t-12 72h-8q-16 0 -30.5 19.5t-33.5 19.5t-28 -28t-15 -63.5t-15.5 -70.5t-27.5 -47q-28 -19 -74.5 -144.5t-46.5 -163.5
t-35 -45q-16 -12 -18 -30.5t-5.5 -52t-29.5 -48.5q0 -23 -19.5 -48.5t-19.5 -43.5q-22 -12 -39.5 -48t-31 -50t-37.5 -14q-80 72 -80 178q0 44 42 121t48 96q18 -4 27.5 13.5t11.5 31.5q24 9 40.5 33t27 36.5t26.5 18.5q10 12 16.5 46t10.5 50h14q51 0 51 37q0 27 45 59
l51 3q10 55 20.5 114.5t47.5 104.5l37 -13q18 14 13 30.5t-9 26.5t-4 34t20.5 58t32.5 71l23 -3q31 0 39 25q23 20 28 69.5t25 69.5v33l51 -6q12 14 15 39.5t9.5 81.5t36.5 82q0 14 3.5 60t-48.5 46q-18 0 -35.5 -7t-48.5 -19.5t-57 2.5l-35 -56v-192q0 -14 -13 -23.5
t-32.5 -25t8.5 -43.5l-4 -31l-32 4q-9 -11 -14.5 -44.5t-22.5 -41.5l-17 2q-27 0 -46 -23.5t-29.5 -35t-24.5 -11.5t-21.5 18.5t-25.5 18.5l-12 -8q-14 -54 -48 -61l-57 47l-45 -45q-10 18 -44 62.5t-19 92.5q-23 66 -23 103q0 36 19.5 96.5t23.5 118.5q20 20 34.5 21
t44 6.5t81.5 84.5l74 -6q8 4 14 25.5t9 30t14 8.5q17 0 31 -30.5t32 -33.5q23 16 47 22l186 46q0 21 30.5 30.5t37.5 20.5q62 -9 69 10t6 38.5t10 33.5t73 6q15 44 58.5 102.5t88.5 51.5q9 27 37.5 19.5t42.5 -7.5t23 16q36 -9 36 -39z" />
    <glyph glyph-name="ampersand" unicode="&#x26;" 
d="M367 291q0 -17 -21 -23v-10q0 -16 17.5 -27.5t25.5 -23.5v-10q-2 -14 5.5 -29.5t15.5 -35.5t32.5 -15.5t40.5 4.5q20 0 33.5 -26.5t30.5 -26.5q23 20 25.5 48.5t13.5 53.5q8 4 15 4q10 0 15 -24.5t34 -24.5q30 0 55.5 16.5t54.5 26.5q2 8 2 26q0 31 -54 134t-81 114
l-2 11l10 36q0 42 -55.5 88t-83.5 46q-29 0 -40.5 -12.5t-27.5 -41.5t-39 -39q-19 19 -30 19t-15 -12.5t-7 -27.5t-6 -30.5t-14 -19.5q-16 -32 -16 -53v-11q14 -10 14 -26l-12 -50q0 -10 2 -16q4 -2 11 -2t12.5 14.5t15.5 14.5h6q17 -22 17 -39zM588 1139q-54 -1 -53 -41
q0 -22 6 -51q-15 -22 -15 -32q0 -11 19.5 -33.5t19.5 -42.5q0 -21 8.5 -25.5t28.5 -6.5t27 -14q49 0 106 100q6 5 6 21q0 29 -33.5 53t-41.5 37q-12 -8 -9.5 -23.5t2.5 -31.5t-18 -23q-23 12 -21.5 34t1.5 40t-4.5 28.5t-28.5 10.5zM987 340q0 -29 -22 -51q8 -60 43 -107
l16 -4q10 6 15 16.5t16 29t32 18.5q7 -14 5 -41t-1 -40.5t13 -23.5q-25 -25 -18.5 -49.5t12.5 -38t6 -23.5t-14 -38h-5q-10 0 -19 -8.5t-23.5 -22t-32.5 7.5h-15q-39 3 -44 -15t-3 -33t2 -34h-30l2 25q0 70 -50 100l-51 -18l-12 -25l-6 -2q-20 0 -30.5 13.5t-20.5 29.5
q-18 4 -35 13.5t-34 9.5t-30 -13q-16 2 -24 -7t-15.5 -21.5t-14.5 -22.5t-18 -10q-20 0 -36 19.5t-37 19.5h-8l-19 -51q15 -6 15 -31l-2 -18h-11q-41 0 -39 25t2 43t-14 31t-33 13t-53 -20q-16 27 -30.5 58.5t-47.5 41.5l-51 -23q14 57 14 77t-23.5 30t-49.5 -2l-4 20
q36 14 36 30v79q0 14 -9 25.5t-9 25.5l4 10q23 12 22 36t-1 60t25.5 80t68.5 70l18 47l47 2q15 13 17 38.5t4 37.5t14 21l12 -2q20 0 38 14t38 10l33 25v6q0 23 -17.5 38t-28.5 24t-17 18l2 10q0 23 -11.5 39t-9.5 39q-14 16 -16 36.5t-8 39.5q18 21 68.5 114.5t55.5 93.5
q14 -12 36 -12t38.5 4t39 9t56.5 -13q12 16 25.5 33.5t17.5 38.5q23 -18 32 -52t15.5 -51.5t22.5 -29.5q6 -18 17.5 -35t27.5 -46t4 -61q10 -20 10 -40t-14 -62l-37 -23v-65q-14 -10 -22 -28.5t-23 -49t-49 -27.5q-23 -28 -20 -51v-14q41 0 41 -23t-23 -31.5t-23 -40.5
t27 -53q18 16 41 12.5t45 -5.5l35 24v12q0 31 21.5 53.5t35 36t21.5 29.5q29 6 51 27.5t50 21.5t39 -12t16.5 -30.5t6.5 -40t5 -39.5q-11 -17 -14 -59.5t-15 -57.5q-66 -14 -74 -49t-7 -60.5t1 -54.5z" />
    <glyph glyph-name="quotesingle" unicode="'" 
d="M625 1098q0 22 -25 22q-12 0 -38.5 -14t-26.5 -32t17 -37t15 -42q10 -10 20.5 -10t20.5 9.5t10 21.5t-12 18q-4 8 -4 18t11.5 19.5t11.5 26.5zM659.5 1262.5q0.5 -27.5 32.5 -27.5q20 0 22.5 -4t4.5 -8l-2 -4q0 -12 9 -22.5t14 -25.5t3.5 -41.5t12.5 -42.5q-2 -7 -2 -23
t10 -37t10 -43t-8 -26t-24.5 -9t-16.5 -60q0 -27 -27 -29q-16 -29 -31.5 -59.5t-37.5 -55.5q4 -10 13 -18t9 -18l-8 -15q-70 -6 -70 -55q0 -40 25 -47q2 -18 -13.5 -20.5t-25.5 -10.5q-31 10 -36 15.5t-5 43.5t-12 79t-12 69q0 34 -15.5 108t-25.5 103q4 16 0 33.5t-4 40.5
t16 37l-2 6q0 6 5 11t9 11q-4 8 -4 20t7 22.5t7 25.5v10q-28 17 -28 35l2 8q18 8 27.5 14.5t18.5 11.5t36 5q28 0 38.5 18.5t19.5 18.5t17 -4q31 6 36 -3.5t5.5 -37z" />
    <glyph glyph-name="parenleft" unicode="(" 
d="M494 338q-1 20 -19 20t-18 -21q1 -9 11 -18t13 -16v2zM430 178q-18 0 -18 11q0 27 18 34q14 -4 19.5 -20.5t17.5 -16.5t15 7.5t9.5 22.5t20.5 15l10 -2q12 -27 0 -51q25 -28 30 -76.5t11 -60.5q7 -14 38.5 -17t31.5 -18q0 -8 -4 -14t-2 -15q35 -25 58.5 -59.5t64.5 -52.5
q6 -12 6 -33t-15.5 -42t-15.5 -40t12 -43q-4 -6 -4 -16t-10 -13q-20 8 -37.5 21.5t-42.5 17.5q-29 39 -53.5 81t-54.5 81l4 60q0 33 -23 47l2 4q0 10 -7 15t-7 11t8 13q-6 20 -15.5 35.5t-23.5 42.5t-14 48t-6 25q-5 -2 -23 -2zM588 850q-53 -68 -53 -231q0 -30 -19 -54
l4 -45q0 -12 -4 -18q-18 -10 -18 -29t18 -41l-29 -10q2 -19 33 -57t31 -66q0 -27 -14 -27t-22.5 11.5t-18.5 11.5t-19 -12v-31q-51 16 -56 73.5t-11 77.5l2 17q0 18 -11.5 33t-11.5 37t23 36q4 22 -29 35q14 27 20.5 54.5t20.5 56.5v8q0 27 -29 43q0 31 7.5 54.5t19.5 62
t-6 90.5v12q0 14 6 26.5t17 35.5t5 40q29 52 29 115q73 128 68 250q25 4 42 22.5t44 22.5q14 21 14 33t-8 22.5t-8 19.5t4 17q25 -2 32 -12t22.5 -31.5t84.5 -21.5q26 0 42.5 -42.5t16.5 -82.5l-6 -88q0 -31 -12 -51q-20 -6 -25.5 -28t-9.5 -34t-18 -16q0 -14 -18 -35
t-15 -37q-20 -8 -25.5 -32.5t-9.5 -39t-16 -22.5q-8 -18 -25.5 -30.5t-44 -32t-14.5 -60.5z" />
    <glyph glyph-name="parenright" unicode=")" 
d="M870 750l15 -142q0 -33 11 -53t13 -45q-32 -48 -29 -74t7 -45.5t8 -48.5q-24 -16 -27.5 -52t-7.5 -55.5t-20 -31.5q0 -20 -16.5 -25.5t-22.5 -21.5l4 -37q0 -39 -15.5 -73t-23.5 -73q-10 -10 -10 -13v-36q0 -33 -25 -39l2 -10q0 -22 -24.5 -26.5t-30.5 -10.5v-61l-31 -45
q16 -27 41 -39t47 -31l-35 14q-23 -14 -57.5 -11t-60.5 -3q-16 10 -27.5 24.5t-32.5 16.5q-16 23 -31.5 48t-15.5 51t8.5 32t30.5 6l8 2l-26 19l-2 14q0 19 35.5 31.5t35.5 40.5q27 34 17 90q6 12 14 23.5t20 30t5 44.5q14 9 24 38.5t18.5 40.5t26.5 15q10 23 8 37.5
t-2 35.5t8.5 31.5t27 37t13.5 108.5q-12 11 -12 27t14.5 30.5t14.5 29.5q0 22 -22.5 41t-22.5 37q0 19 18.5 33.5t18.5 36.5q0 26 -34 75.5t-28 80.5q-16 25 -23 54.5t-34 48.5l10 45q-36 10 -49 31l4 41l-4 28q-27 8 -40 30.5t-40 33.5q-4 14 -13 29.5t-21.5 41t-0.5 54.5
q-45 32 -45 110q0 22 27.5 59.5t32.5 55.5q21 -3 36 -26t23 -35.5t25 -14.5q4 -10 15 -16t22.5 -12.5t20.5 -12.5t9 -20t-11 -27.5t-11 -27.5t10 -23q45 -35 66.5 -76t60.5 -80q6 -49 34.5 -122.5t28.5 -118.5q0 -44 19.5 -67.5t29.5 -51.5l23 6q-27 -27 -27 -57z" />
    <glyph glyph-name="asterisk" unicode="*" 
d="M571 675q0 -9 4 -18q16 -4 24.5 -22.5t29.5 -18.5t27 19.5t10 36t20 18.5t29 2h8q16 12 35.5 27t19.5 35t-16 20l-21 -4q-6 0 -10 4q-6 -4 -10 -10t-12 -2q-10 -20 -31 -21l-37 4q-16 0 -25 -8q0 -17 -22.5 -35t-22.5 -27zM616 780h-4l4 -20q0 -2 4.5 -2t10.5 10
q-8 12 -15 12zM610 946q-24 0 -24 -46q0 -28 39 -28q28 22 28 40q-1 34 -43 34zM1039 809q24 0 40 10q31 -8 38 -28.5t7 -40.5t10.5 -28t10.5 -20t-8 -18q-20 -3 -55 -32t-50 -34q-14 -22 -41 -22t-40 18.5t-29 18.5q-29 0 -67 -15.5t-38 -33.5q0 -63 64 -103h6
q25 0 38 -17.5t23 -35.5l-2 -10q0 -27 12.5 -49.5t12.5 -43.5t-14.5 -28.5t-28.5 -11.5q-19 -37 -62 -37t-56 14t-25.5 31.5t-26 33t-35.5 17.5q6 8 6 26t-18.5 35t-30.5 33l-33 4q-26 0 -41 -20q6 -24 6 -62t-30 -88q-29 4 -40.5 -7t-29.5 -33.5t-49 -10.5
q-16 -4 -27.5 -14t-27.5 -10q-27 0 -27 13v56q0 33 6 63.5t12 61.5q4 2 23.5 66t56.5 24l25 21l2 14q0 36 -48 46.5t-65 10.5t-31 -20.5t-36 -20.5l-152 9l-29 2l2 12q0 23 -10 44.5t-10 34.5q0 22 31.5 60.5t38.5 42.5q15 41 47 54q36 -33 67 -28t50.5 7t46.5 -10l2 31
q-31 2 -38 22.5t-11.5 43t-14.5 39.5t-43 15l4 23q0 51 -31 78q12 27 53.5 57t55.5 55q70 0 92 -39l6 2q16 0 24.5 -13t18.5 -23q-6 -9 -6 -23q0 -20 45 -35l39 4q6 -25 43 -25t56.5 11.5t19.5 42.5t-9 40.5t-9 23.5t17 21t59 23t57 50l47 -39v-12q-2 -25 7 -47.5t15 -45.5
q-10 -29 -31.5 -55.5t-15.5 -58.5q-12 -10 -26.5 -17.5t-10.5 -27.5l-20 -29l-6 -35q0 -14 15 -27.5t26 -23.5h6q13 0 28.5 17.5t28.5 17.5h6q31 -25 51 -25t41 21q16 12 40 12z" />
    <glyph glyph-name="plus" unicode="+" 
d="M1010 604q0 -12 -3 -18t-36 -16q-33 -9 -36 -14t-8 -13t-39 -8t-46.5 -16.5t-24.5 -31.5q-13 0 -25 14.5t-18 21.5t-14 7t-12.5 -8t-8.5 -12v-10q2 -4 -1 -21.5t-9 -19.5q-6 6 -12 22.5t-15 26.5q-12 -24 -12 -40t27 -42l28 -4l3 -8q0 -14 -23.5 -31.5t-3.5 -40.5
q-29 -42 -29 -43l10 -55q-12 -15 -43 -22.5t-43 -20.5q-25 4 -37 4t-18 3t-9 14.5t-9 31.5q-7 23 -20 31t-13 41t-16.5 46t-30.5 25q0 17 14.5 27t21.5 16t7 14.5t-8.5 12.5t-12.5 8l-10 -2q-37 0 -41 12q4 4 11.5 6.5t12.5 7.5t19.5 9t14.5 16v6q-18 -12 -39 -11t-31 -21
q-18 4 -29.5 20.5t-32.5 16.5l-10 -3l-10 -20q-10 16 -39 20.5t-47 7.5t-18 10v36q0 29 -23 32q-4 -4 -8 -10t-10 -6l-7 2l-2 8q0 10 11.5 19.5t11.5 25.5q10 10 10 12.5t-8 2.5t-8 14h8q18 0 31.5 17.5t27.5 17.5t27 -23q14 4 27.5 1t31.5 -3t29 25q23 8 47 1t42 -7t30 6
l2 2q-12 18 -11 38.5t-22 31.5q4 18 20.5 29.5t16.5 31.5l-2 10l-21 8q17 12 21 41t6.5 47.5t9.5 18.5h36q31 0 34 22q-4 4 -10 8.5t-6 10.5l2 6l8 2q10 0 19 -11t26 -11q11 -11 12 -11l2 2v4q0 11 15 11v-8q0 -18 17 -32t17 -28t-8 -18t-14 -8q4 -14 1 -27.5t-3 -32.5
t24 -29q8 -23 1 -46t-7 -48v-4q14 -4 27 -10t29 -6t42 26l5 29l8 2q14 0 26.5 -16.5t20.5 -19.5t24 9q40 -28 42 -28l55 10q15 -10 23.5 -42.5t21.5 -43.5q-4 -25 -4 -37z" />
    <glyph glyph-name="comma" unicode="," 
d="M665 -260q-8 0 -10 2q-5 12 -25 12t-26 -13t-8 -30.5t-5 -33t-22 -17.5q-10 -8 -26 -8l-78 8l-35 4v4q0 18 -11 32t-11 28t14 28t10 39q10 16 29.5 29.5t52.5 39.5t33 48t-11.5 37.5t-27.5 29t-33.5 26.5t-28.5 24q-6 33 -6 71v97q0 26 37 50.5t47 28.5q19 29 54.5 63
t44.5 34q11 0 41.5 -19t52.5 -16l51 -62q-7 -53 11 -95.5t18 -68.5q0 -87 -29 -116l-4 -109q0 -10 -38.5 -47t-31.5 -86q-21 -14 -29 -14z" />
    <glyph glyph-name="hyphen" unicode="-" 
d="M608 694q-14 0 -26.5 -8t-26.5 -8t-27 12q-16 -4 -38.5 -12t-22.5 -26t8 -25q51 14 105 18q12 10 29.5 15.5t21.5 23.5q-9 10 -23 10zM721 674l49 -33q10 4 14 18l-59 29zM825 659q0 7 -4 9t-6 4q-12 -4 -12 -12t14 -15q8 7 8 14zM1016 635h6l2 -8q0 -12 -11.5 -20.5
t-11.5 -24.5q-10 -14 -10 -28t8.5 -31t8.5 -34h-9q-20 0 -32.5 -16t-26.5 -16t-18 8t-9 14q-14 -4 -27.5 -1t-32 3t-28.5 -26q-23 -6 -46 0t-52 6t-45 -33q-31 23 -67.5 19.5t-64.5 -3.5t-46.5 8.5t-36.5 8.5t-45 -27l-4 -28h-8q-13 0 -26 15t-22.5 18t-23.5 -9
q-10 8 -21.5 18.5t-30.5 10.5t-44 -10q-16 11 -24 42.5t-21 43.5q4 23 1.5 72t57.5 65q16 4 19.5 10t8.5 14.5t35 8.5q29 0 37.5 7t13.5 16t9 16.5t19 7.5t26.5 -21.5t23.5 -21.5t15.5 7t7.5 13v8q-2 4 1 22.5t9 18.5q6 -6 11 -22q10 -8 12 -21.5t18 -13.5l6 2
q10 10 21.5 24.5t28.5 14.5h4q8 -10 15 -22.5t22 -12.5t25 12.5t22 12.5t15 -6.5t8.5 -20t29.5 -16.5q18 10 38.5 10t30.5 22q16 -4 29.5 -21.5t30.5 -17.5l12 3l8 22q10 -17 40 -22t48.5 -7.5t18.5 -9.5v-35q0 -29 22 -32q14 14 19 14z" />
    <glyph glyph-name="period" unicode="." 
d="M618 -39q-18 0 -28 -18.5t-24 -18.5t-26 8.5t-20 19.5t-15 22.5t-21 21.5t-40 14t-34 27q12 12 12 35t-16.5 42t-16.5 47t12.5 52.5t28.5 47t33.5 44t28.5 45.5q14 2 27 1t39 -1t42 29l4 2q15 0 24 -13.5t18.5 -19.5t27.5 -6t30.5 -8t21.5 -18.5t18.5 -22.5t21.5 -19
q0 -41 18.5 -76.5t18.5 -65.5t-7.5 -44t-16.5 -23.5t-16 -15.5t-7 -10l2 -2q0 -8 -14.5 -10.5t-23.5 -6.5q-20 -8 -33.5 -34t-33.5 -29q-17 4 -35 4z" />
    <glyph glyph-name="slash" unicode="/" 
d="M743 842q-10 0 -18 -8q0 -26 -21.5 -75.5t-17.5 -66.5q-12 -10 -13 -21.5t-4.5 -28.5t-52.5 -17q-10 -25 -21 -50.5t-9 -54.5q-27 -4 -24 -24.5t3 -34.5t-14 -15l-14 3l-11 43h-26v-35q-9 -17 -17.5 -62t-27.5 -61l2 -15q0 -18 -10.5 -27t-32 -27.5t-21.5 -44.5
q0 -25 -9 -35.5t-25.5 -29.5t-10.5 -44l-61 -97q18 -30 18 -44t-4 -19l-33 18q-25 -31 -36 -68.5t-33 -70.5l-33 45q-45 -18 -57 -18q-35 0 -35 14v66q0 16 18.5 60.5t18.5 92.5q0 6 42 45t46 39q30 50 34 96q51 17 64.5 43.5t21 40t27.5 23.5l-2 6q0 43 29 43l12 49
q35 16 52.5 55t17.5 74q54 25 96 111l-6 14q0 16 11 27.5t15 25.5q27 23 33 56.5t29 56.5l-4 14q0 2 53 74.5t61 99.5q31 20 45.5 53t34.5 62q31 15 36 66t7 63q20 4 29.5 17.5t17 29t13.5 31.5t20 29l15 41q12 8 19 22t15.5 27.5t17.5 24t27 12.5l21 43l59 22l35 -24
q-6 -12 -6 -31t13.5 -39.5t13.5 -39.5t-11 -36l6 -20q0 -20 -17 -55.5t-17 -69.5l-7 -39q-6 44 -34 55l-37 -35v-14q3 -26 -19 -49t-34.5 -36t-18.5 -28q-28 0 -50 -74t-42 -90l-2 -30l-59 -6q-7 -58 -41 -58q-12 -23 -12.5 -49.5t-10.5 -48.5q-17 33 -27 33z" />
    <glyph glyph-name="zero" unicode="0" 
d="M358 882q0 -16 -8 -16q-14 0 -20 8.5t-19 12.5q-8 -14 -10.5 -59.5t-13.5 -63.5v-27q2 -66 -19 -129q18 -23 27.5 -50.5t26.5 -53.5l-3 -21q0 -33 12.5 -62.5t16.5 -60.5l17 -16q24 -3 45.5 -25t34 -32.5t30.5 -12.5q14 6 31.5 8.5t21.5 22.5q72 -35 103 -39
q15 -45 35 -45q16 0 30.5 13.5t41 38t55.5 16.5q16 5 18 24t2.5 28t22.5 20t35.5 34t18.5 47.5t6 52t7 60.5q-18 14 -18 39l12 72q0 23 -14 39l2 28q0 68 -64 125v6q0 26 -24.5 65.5t-40 57t-25.5 17.5t-20.5 -11.5t-18.5 -15.5q-14 27 -61 53.5t-56 26.5t-16.5 -7.5
t-23.5 -21.5t-39 -14t-37.5 -6.5t-39 -16t-48.5 -0.5q-10 -4 -20.5 -26.5t-10.5 -35.5t9 -22t9 -25zM1116 338q14 0 14 30t-22 31q-8 0 -14.5 -13t-6.5 -21t7.5 -17.5t21.5 -9.5zM1145 400q0 -26 -6 -95q-9 0 -23 -14t-24 -4q-16 -4 -28.5 -16.5t-29.5 -16.5
q-12 -14 -15 -31.5t-8 -46t-38 -41.5q-5 -30 -41 -84l-35 21q-18 -5 -25.5 -22t-14.5 -28.5t-26 -19.5l-43 -18h-6q-12 0 -16 -13.5t-21 -11.5q-2 8 -22 16.5t-23 24.5q-68 41 -80 3t-15 -54.5t-5 -26.5q-10 8 -17.5 19.5t-15.5 21.5t-17 18.5t-23.5 8.5t-26.5 -6
q-4 -12 -18.5 -12.5t-26.5 5.5q-41 55 -73 83t-41.5 28t-18 -23.5t-23.5 -23.5h-6q-2 33 -7 68.5t-40 52.5l-13 -2q-28 0 -43.5 50.5t-9.5 84.5q-16 10 -35.5 8t-35.5 14l-11 37q16 29 5 54.5t-11 49.5t19 46q-6 29 -1 56.5t5 61.5t-31 60q4 25 13 39t15.5 26.5t6.5 29
t-13 44.5q4 29 25 55.5t40 51t31.5 48t0.5 46.5q26 63 76.5 96t81 52.5t59.5 48.5l20 -5q31 0 64 33l-2 23q0 23 8 43q9 -2 19 -16.5t15 -20.5t15 -6q7 16 21 16t24 -9t19.5 -19.5t17.5 -19.5t21 -9q24 0 40 47q16 0 28.5 -14.5t29.5 -14.5h6q10 20 28.5 29.5t39.5 19.5
q12 -23 13 -38t3 -29.5t12 -26.5t45 -26l23 28q20 -4 22 -28t12 -44t36 -57t75 -108.5t49 -93.5q0 -23 -16 -33.5t-16 -25.5t8 -27.5t20 -38t-4 -56.5q10 -17 4.5 -55t9.5 -53q15 -14 15 -31t-31 -43l-4 -18q0 -27 17.5 -46.5t17.5 -45.5z" />
    <glyph glyph-name="one" unicode="1" 
d="M768 942q0 -53 -7 -68.5t-22.5 -43.5t-9.5 -54q-10 -23 -9 -47t3 -68t-35 -69q-4 -16 -4 -35t11.5 -41t11.5 -46t-27 -50q-6 -53 4 -85t10 -65l-14 -237l14 -70q0 -15 -14 -33t-16 -27t8 -24l-19 -26q-16 -4 -23 10t-9 26q-41 18 -50.5 37t-9.5 36.5t-2 33.5t-27 29
q-2 55 -34 102q12 23 5 44.5t-7 35.5q0 15 17 59.5t17 81.5l-6 131q0 67 21 107q-12 27 -12.5 51.5t-2 66.5t-38.5 76q-44 35 -95 96.5t-51 67.5q0 37 18.5 66.5t28.5 64.5l10 8q11 -30 31 -30t27.5 14t20.5 43t46 12q14 20 25.5 74.5t18 77t16.5 22.5q35 0 35 -7l-9 -68
l2 -13l37 -18q10 4 18.5 15.5t20.5 11.5l13 -3q28 -44 45.5 -131.5t17.5 -140.5z" />
    <glyph glyph-name="two" unicode="2" 
d="M432 139q0 -18 17 -20q6 4 17 3t9 9v2q-11 17 -20 19q-4 -4 -13.5 -4.5t-9.5 -8.5zM776 180q0 6 -10 6t-10 -10v-2l20 -6v12zM821 172q0 -14 17 -14q18 -1 18 24q0 10 -6 15q-10 0 -14 2q-15 -23 -15 -27zM604 641q-10 0 -10 -16t18 -19q10 4 10 7t-0.5 3t-0.5 2q2 2 2 7
q0 16 -19 16zM1196 41q0 -19 -27 -31q10 -16 11 -30q0 -12 -15 -13l-14 8l-18 43l-33 9q-16 -20 -14.5 -45t-14.5 -45l-20 -7l-25 26q-26 25 -60 48t-49 23t-25.5 -18.5t-21.5 -33.5q-18 4 -29.5 18.5t-31.5 14.5l-12 -4q-17 -21 -38.5 -17.5t-34.5 7.5t-30.5 4t-29.5 -31
q-20 2 -31.5 9.5t-22 12.5t-24 5t-37.5 -12q-20 10 -44 10t-50.5 -5t-52 -10.5t-55.5 -5.5t-50 23l-12 -2q-23 0 -55 20.5t-48 20.5q-35 56 -35 100l-1 13v50q-1 37 1 44q11 -11 24 -11q21 0 46.5 28.5t40.5 33.5q10 12 17.5 44t7.5 44q0 14 -18.5 25t-18.5 25t47 32
q12 -10 22.5 -22.5t26.5 -12.5l12 2l13 39q-18 10 -36 21.5t-34 21.5q23 16 47.5 32.5t52.5 6.5q10 -10 23 -10l57 10l19 35q-27 11 -27 28t42.5 37t49.5 27l25 -2q35 0 63.5 23.5t55.5 39.5q16 29 39.5 52.5t37.5 56.5l-2 8q0 18 15.5 31.5t15.5 30t-18 26.5q-10 47 -33 68
h-6q-10 0 -35 13.5t-41 0.5l-31 39q-54 -4 -61.5 -10t-7.5 -9v-47q0 -20 -17 -20h-8q-16 14 -20.5 36.5t-28.5 28.5q-23 -10 -42.5 1.5t-41.5 11.5q-37 0 -37 -31q0 -20 29 -57q-18 -4 -27.5 -7.5t-23 -6.5t-44.5 18l-26 -19l4 -20q0 -18 -9.5 -34.5t-6.5 -35.5
q-27 -23 -53.5 -44t-43.5 -52l-28 -4q-16 24 -19.5 60t-8 57t-14.5 37t-10 22t13.5 18.5t29 27.5t28.5 27.5t15 14.5q4 25 6.5 52.5t26.5 41.5h6q16 0 25.5 11.5t18 23.5t18.5 22.5t28 8.5q8 12 4 24.5t-4 24.5q0 20 21.5 22.5t43.5 2.5t42 -25q40 -10 63 -10t43 8
q8 23 32 28t36 23q18 -6 31.5 -24.5t36.5 -18.5l10 2l22 27q12 -6 20.5 -16.5t24 -24t39.5 -4.5q42 -12 49 -39q29 -2 47.5 -16.5t50 -46t79.5 -31.5q14 0 21 -17.5t14.5 -36t19.5 -31t41 -1.5q40 -32 35 -93l-2 -24q-11 -5 -9 -22t2 -23t-6 -6l-12 4l10 24l-14 -10
q-16 62 -57 72q-23 -10 -18 -28.5t9.5 -31t4.5 -26.5t-25 -27q-11 -38 10 -59v-47q-16 -10 -36.5 -17.5t-24.5 -29.5q8 -12 8 -28t-7 -23t-20 -23t2 -82q-12 -12 -26 -12t-24.5 6t-28.5 16.5t-39 1.5q-12 6 -35 6t-33 -13t-14 -30.5t-8.5 -31t-20.5 -13.5l-14 4
q-28 33 -54 33q-6 0 -22.5 -6t-18.5 4q0 -12 -28.5 -21.5t-63.5 -22.5t-64.5 -33.5t-33.5 -55.5l-72 -82q0 -39 47.5 -39t63 10.5t29.5 10.5t24 -10.5t20 -10.5t25 10q14 10 28.5 13.5t27 4.5t25.5 1t30 8q0 39 24 49q23 -8 39.5 -27.5t37.5 -19.5t33.5 8t20 20.5t11.5 29
t8 32.5q6 -12 9 -25.5t7 -25.5q12 -8 24.5 -1t24.5 7l13 -4q6 -23 21.5 -34t37 -28.5t0.5 -64.5q5 -19 34 -48t32 -52q25 -10 48 -10t70 20q27 -20 27 -39zM602 1300l2 -2v-6z" />
    <glyph glyph-name="three" unicode="3" 
d="M1022 1143v-6q-31 -25 -36 -57.5t-19 -65.5q-25 -3 -42 -47t-48 -9l-56 -94l-49 -8l-4 -16q0 -25 20 -49l15 4q12 0 24.5 -15.5t19.5 -21.5t19 -4q5 -12 30.5 -29t25.5 -35q76 -32 81 -110t9 -109q13 -13 18.5 -44.5t13.5 -41.5q-24 -50 -25 -62t-1 -15v-50
q0 -54 -33 -78q-17 -102 -72 -127q-15 -24 -67 -24l-15 -19q13 -14 13 -22t-8.5 -13.5t-17.5 -10.5t-16 -13t-7 -26.5t-13.5 -22.5t-41.5 -6t-31 -31q-16 2 -27.5 -9.5t-29.5 -32t-42 -5.5q-18 -2 -36 3t-40 5t-35.5 -15.5t-23.5 -33t-23.5 -30.5t-33.5 -8t-34.5 11t-31.5 6
q-26 -26 -55 -26t-64 28q-14 -4 -25 -16t-28 -12l-20 6q6 48 6 73t-21 50l19 32q38 -6 48.5 -27.5t17 -36.5t24.5 -30q16 17 16 29t-13 25.5t-13 29.5l2 6q12 0 18 9.5t11.5 20.5t9.5 19.5t10 8.5q16 0 21.5 -18.5t33.5 -18.5t32.5 13t8 37t74.5 3q14 20 65 68l13 -4
q14 0 25.5 8t25.5 4q42 47 76 55q10 28 51.5 95.5t44.5 115.5q33 31 41 75t14 85q-8 18 -10 38.5t-8.5 52t-40.5 48.5h-6q-14 0 -26.5 11.5t-20 17.5t-17.5 6t-21.5 -9.5t-21.5 -15.5l-35 27q-29 -6 -49.5 0t-40.5 6t-27.5 -18.5t-19.5 -18.5q-14 0 -27.5 16.5t-31.5 16.5
l-21 -6q-11 -27 -28 -27l-9 4l-20 64q23 8 31 40t17 41t36 1q20 12 23.5 29.5t5.5 34t9.5 33.5t29.5 27q30 13 56 57t42 60q0 63 -23.5 72.5t-28.5 9.5h-65q-28 0 -55 27l-58 -23q-20 13 -59.5 16t-58.5 11q-8 -14 -25 -14t-39 28q-27 0 -57.5 27t-30.5 51t29 35
q16 -10 29.5 -29.5t30.5 -19.5q22 0 38 22.5t26 22.5q24 0 96 -7.5t77 -13.5q22 0 36.5 23t22.5 27q12 -12 105 -45q33 0 51 22h8q25 0 44 16.5t41 16.5t34 -13.5t28 -13.5t48 25q57 -34 73 -66q10 10 31 11l27 -5q12 -16 34.5 -31.5t22.5 -37.5z" />
    <glyph glyph-name="four" unicode="4" 
d="M606 1277q0 -38 -7 -77t-13 -80q10 -16 10 -44t-9 -61.5t-9 -74.5l-7 -49l-36 -2q-12 -20 -24.5 -41t-10.5 -45q-37 -10 -45.5 -26.5t-8.5 -33t-1 -30t-22 -17.5q-44 -8 -87 -62t-43 -102q0 -16 10 -25t23 -20h4q14 0 41 22.5t42 22.5t21 -11t10 -21l19 -4q23 0 45 7
t45 -3q16 0 33.5 18.5t28 23.5t26.5 -1q47 50 56.5 78t9.5 81q0 54 -19 72q8 47 1 91t-7 88t37 87q16 -4 31.5 1t28.5 5t20 -6q25 7 38 -25t21 -38v-6q0 -25 14.5 -47t14.5 -44t-10 -38q2 -49 -12.5 -105.5t-14.5 -86.5q0 -48 30 -85.5t58 -25.5q16 -8 35.5 -16.5t38.5 5.5
q29 -6 37 -31.5t13 -41t15 -27.5v-8q2 -27 -11 -49.5t-24 -44.5q-20 8 -43.5 0.5t-42.5 7.5l-10 -15q-10 18 -29.5 6t-52.5 -57.5t-33 -79.5l-4 -178l-49 -14l-10 -25q-85 49 -82.5 152.5t0.5 140.5q-10 6 -16 17.5t-16 30t-31 18.5q-15 34 -62 29t-60 -5t-32.5 22.5
t-32.5 22.5t-30 -21.5t-25 -21.5h-6q-4 12 -22.5 27.5t-40.5 15.5q-54 0 -74 -12.5t-62 -67.5q-16 27 -16 29v16q0 14 -62 70q33 31 43.5 62.5t18.5 61.5t23.5 58.5t58.5 55.5q9 23 33 48t32 40.5t8 35.5q0 27 17.5 70.5t36.5 55.5q37 111 37 219l12 145q0 22 18 49v15
q-3 29 39 65q16 -10 30.5 -7t34.5 8t37 -31t23 -52t6 -54z" />
    <glyph glyph-name="five" unicode="5" 
d="M911 502h-2l2 -17l4 2q-2 4 -1 9.5t-3 5.5zM324 -121l-88 -16q-22 0 -25.5 -15.5t-14.5 -15.5q-21 0 -37 31t-16 45t5.5 24.5t9.5 20.5q20 12 38.5 6t39.5 -12q16 16 38.5 28.5t38.5 32.5l37 -22q6 2 37 7t90 15t75 10q23 0 28 29l34 41q38 0 75.5 34t58 55.5t38.5 30.5
t23.5 24.5t11.5 34t11.5 35.5t15.5 28q-4 43 -9 95t-36 127t-135 75q-12 0 -37 13t-49 13t-70 -45q-36 22 -86 13q-16 -2 -27 11t-23 13t-20 -16q-6 -22 -18 -25.5t-20.5 -5.5t-16.5 -10l-35 10q-15 -39 -44 -39t-41.5 18.5t-19.5 31t-16 20.5q10 35 3 67.5t-7 67.5t19 59
q-4 47 -4 58v125q0 51 -1 96t17 94.5t127 28.5q14 8 41 10t77 7.5t64 35.5q27 -14 67 -21.5t53 -7.5t24 17.5t27 17.5t16 -29q22 -18 42 -18t70 25q7 -12 24 -8.5t26.5 3.5t15.5 -12q16 -6 34.5 -3t40 3t52.5 -29.5t69 -23.5q18 -18 8 -32.5t-14 -22.5q-27 -10 -58.5 -16.5
t-45.5 -37.5q-10 0 -21 19.5t-22 19.5l-12 -4q-12 -31 -35 -31q-8 0 -28.5 13.5t-29.5 17.5q-14 -5 -38 -34t-38 -29q-16 0 -41.5 24.5t-36.5 24.5q-12 0 -24 -6q-5 -13 -28 -9.5t-29 -15.5q-12 10 -24.5 20.5t-28.5 10.5q-49 0 -58 -49q-16 10 -33.5 16t-33.5 12
q-21 -52 -21 -59v-66q0 -40 -26 -57l-15 17q2 23 11.5 41t9.5 34t-9.5 29.5t-19.5 17.5q-30 -20 -47.5 -59t-17.5 -55v-82q0 -81 59 -86q10 26 23.5 23t22.5 -8t19 -5l17 2q12 29 27 29t26.5 -9.5t27.5 -9.5t21.5 11.5t11 23.5t11.5 22.5t22 8.5q27 -25 33 -35t9 -12t12.5 1
t32.5 3t32 -12.5t27 -12.5t29.5 21.5t23.5 21.5t16 -7t9 -13q14 -5 16 -20t7 -21t24 -6h53q12 0 14 -7.5t7.5 -22.5t56.5 -15q5 0 72 -56.5t67 -73.5q0 -24 29.5 -50.5t29.5 -46.5q0 -19 -11 -35.5t1 -36.5l-2 -2q-54 69 -111 61q-20 -20 -20 -49t6 -52.5t2 -45.5l27 -15
l31 12v-6q0 -27 14 -49t14 -42q0 -35 -69 -119t-97 -99l-22 -35q-9 8 -23 8t-25.5 -8t-20.5 -17t-17 -16.5t-14.5 -7.5t-18.5 14.5t-26 14.5t-19.5 -5t-20.5 -16.5t-44 -11.5t-35.5 -12t-13.5 -32.5t-29 1.5l-33 2q-35 0 -45 -18.5t-23 -46.5q-16 16 -36.5 24t-41.5 17
l-10 -2q-18 0 -32.5 11t-34.5 11z" />
    <glyph glyph-name="six" unicode="6" 
d="M1081 412q0 -27 -11 -50.5t-5 -50.5l-37 17q-18 -40 -27 -146q-19 -8 -20 -14l-5 -40q-5 -34 -13 -44q-10 8 -30 8t-39.5 -25.5t-39.5 -37.5q-30 12 -44 12t-18 -8t-10.5 -24t-74.5 -7q-12 -29 -27 -29q-6 0 -31.5 19.5t-50.5 21.5q-10 -12 -37 -12q-40 0 -95.5 24.5
t-100.5 24.5q-10 0 -12.5 9.5t-9.5 25.5t-25.5 40t-54 69t-44.5 77q-46 28 -48.5 85t-8.5 77q8 20 8 50t-20 55q6 18 20 29.5t25 27.5q-4 18 -3 38.5t-14 35.5v16q12 -3 19.5 -19t11.5 -22t14 -6l8 2q14 16 15.5 37.5t9.5 40.5q-28 21 -24 44t7 37t3 36q0 36 25 96t22 96
q25 6 33 24.5t14 39t15 36t38 13.5q12 10 22.5 23.5t29.5 34.5t46 24q61 61 123 92t84 44t51.5 15.5t36.5 22.5l47 -8q6 20 25.5 26t26.5 25h8q18 0 47 -17t29 -33t-5.5 -21t-17 -20.5t-8.5 -66.5l-4 -6l-29 33q-8 0 -17.5 -8.5t-24.5 -18.5t-23 10l-11 2q-18 0 -32.5 -15
t-31.5 -15t-28 14l-31 4q0 -16 -22.5 -50t-9.5 -65l-11 -2q-21 0 -28 43q-10 2 -21.5 6.5t-26.5 4.5t-24.5 -14.5l-19 -29t-21.5 -22.5t-37 2q-10 -23 -21 -43t-11 -45q-35 14 -47 14t-26 -19t-14 -30v-65q-23 -4 -48 -6.5t-35 -30.5q4 -10 4 -28t-11 -21q-16 -32 -16 -63
t43 -58q46 6 53.5 30.5t13 34t41.5 3.5t64 8l7 -18q7 -18 7 -28t-4 -22q-8 -2 -22.5 -14t-26.5 8q-27 2 -33 -7.5t-7 -21.5t-3 -23.5t-16 -17.5q-18 6 -47 6t-32 -13t-3 -38t-15 -31q-5 -11 -24 -20.5t-19 -22.5q0 -14 15.5 -27.5t15.5 -33.5l-4 -18q-4 4 -17.5 4t-27.5 -21
q8 -10 5 -28.5t-4 -34t5 -25.5t35 -4q16 -20 21.5 -45t15.5 -42t23.5 -24.5t25.5 -13.5t24.5 -12t22.5 -19q34 -8 73.5 -38.5t60 -44t38.5 -13.5l21 2q6 21 18 21t21.5 -9.5t19.5 -13.5q10 20 24.5 26.5t41 18.5t38.5 60q4 16 20.5 17t34 2t30 9t6.5 37q61 109 61 167
t-34 153.5t-70 109.5q-9 -6 -21 -6t-29.5 31t-156.5 6l-51 37v14q0 31 28 55.5t49 1.5q32 16 61 1t52 -9q33 -33 57 -6q8 -4 10 -7l18 -31q17 -27 40 3q18 -2 27.5 -17t22 -43t44.5 -15q53 -74 95 -158t42 -178z" />
    <glyph glyph-name="seven" unicode="7" 
d="M1048 1237q21 0 35 25q49 -34 64.5 -61t15.5 -79l-2 -61q-29 -6 -31 -20.5t-2 -30t-13 -26.5t-64 -11q-31 0 -54.5 -58.5t-7.5 -85.5h-8q-22 0 -56 -37.5t-50.5 -56t-26.5 -18.5q-29 -41 -52.5 -92.5t-52.5 -83.5v-6q2 -20 -8 -38t-19 -35.5t-13.5 -35.5t10.5 -41
q-53 -60 -55.5 -75t1 -31.5t3.5 -54.5t-35 -60q0 -16 8 -30t8 -30t-9 -28.5t-9 -28.5t12 -27.5t8 -27.5l-10 -49q-31 -21 -31 -31l4 -66q4 -55 -8 -73.5t-29 -26.5q-44 25 -53 43l2 12q0 14 -18.5 38t-18.5 39t14.5 26.5t14.5 41.5t-15.5 59.5t-15.5 52t17.5 33.5t17.5 23
q0 15 -13 51.5t-18 41.5q0 11 16.5 22t16.5 28q0 18 -17.5 34.5t-17.5 36.5t42 62t42 161q0 14 23 37t10 47l2 51q67 29 88 59.5t43 55.5q-17 39 -14 59v14q59 3 68.5 33.5t14.5 50t23 35.5l-2 43q-6 6 -16 6t-20.5 -7t-22.5 -3l-31 -37q-16 4 -32.5 1t-32.5 -3l-19 2l-6 6
l31 21l35 -10l10 24l-45 15l-29 -11q0 28 -47 41q-38 -9 -55 -39l-25 45l-59 -16l4 -37q0 -8 -3 -17t-5 -20q-4 6 -21 44t-39 38l-53 -4q-39 -65 -39 -78.5t7 -19.5t15.5 -10t15.5 -9.5t7 -13.5t-8 -20q-28 28 -53 28t-49 -71q-29 29 -58 32q0 10 -5 20.5t-11 28t10 33.5
q-20 27 -20 55t14 70q18 12 18 18v66q0 28 27 39l10 45q29 -18 44 -18h48q48 0 58 10q20 -12 37.5 -1t31.5 11t27 -14q48 5 74 -10q12 6 47 0.5t51 13.5h6q17 0 34 -23.5t102 -23.5t112 20q25 -16 49 -16h104z" />
    <glyph glyph-name="eight" unicode="8" 
d="M328 610q-38 0 -35.5 -57t2.5 -74t-4 -27t-9.5 -15t-9.5 -8t-4 -11q0 -30 15.5 -64.5t40.5 -34.5q10 0 14 12.5t16 10.5q21 -52 21 -89t14 -48q7 6 21 6t28.5 -8t32.5 -4q12 -20 29.5 -14.5t29.5 5.5t26 -8t32 -8t36.5 7t37.5 12q16 -10 33.5 -15.5t29.5 -19.5
q42 11 84.5 45.5t40.5 40.5q14 9 16 37t6.5 40.5t20.5 18.5q6 14 6 41t-35 92v12q2 29 -14 54.5t-27 54.5q-16 14 -38.5 20.5t-30.5 28.5q-8 8 -23 8l-57 -12l-8 2q-14 14 -46.5 14t-46.5 9q-7 -12 -31 -7t-33 0.5t-11 -24.5q-4 -2 -11 -2l-38 14q-12 0 -22.5 -7t-20.5 -11
q-12 -23 -35 -20t-43 3zM748 832q37 27 61 32q22 51 22 74q0 27 -20 52.5t-12 43.5q-4 8 -11.5 24.5t-23.5 42t-38 25.5t-42 -14q-6 2 -23.5 38t-58.5 36q-8 0 -20 -4q-10 -18 -28 -17.5t-30 0.5t-24.5 -13t-26.5 -13t-21.5 19.5t-25.5 19.5h-8q-3 -19 -23 -30t-30.5 -16.5
t-12.5 -17.5q10 -14 27 -10q22 -14 22 -49t-11 -35t-16 11t-16.5 37t-33.5 26q-31 0 -31 -40t18.5 -66.5t18.5 -35.5l-8 -43q0 -23 10 -25.5t28 -9.5q8 -24 39 -44.5t38 -20.5t12.5 13.5t17.5 13.5t20.5 -10.5t14.5 -22.5t12 -22.5t23 -10.5l57 12q14 0 24 -10
q12 8 24.5 14.5t19.5 22.5q12 -4 30 -4q19 0 56 27zM480 -39q-12 0 -18.5 7t-29.5 22.5t-52 15.5q-30 0 -35 7t-13 23.5t-34 17.5t-39 18.5t-22.5 41t-20.5 45t-38 29.5q-18 70 -18 129q0 58 -15.5 82.5t-15.5 42.5q0 35 27 90.5t49 59.5q14 39 47 72q38 -28 47.5 -1t9.5 41
q0 17 -24.5 39t-24.5 70q0 6 -8 21.5t-26.5 57t-18.5 91.5q0 51 18 86v16q-2 16 7.5 30.5t13.5 29.5q53 35 91 76t79 60t64.5 16t43.5 14l15 -4q12 0 20 11t23 13l24 -35l39 2l43 29q32 -35 49 -38t30 -2t33 1q31 0 48.5 -37t34.5 -45v-8q0 -4 53 -58.5t53 -112.5
t-15.5 -103t-32.5 -79t-32.5 -54.5t-15.5 -28.5q0 -49 27.5 -90t60.5 -86t60.5 -98.5t27.5 -107.5t-15.5 -85t-11.5 -66l-41 -55l5 -8q0 -20 -25 -35l-12 -45q-40 -5 -65 -25t-43.5 -28t-55.5 -8q-14 0 -13 -14.5t1 -37.5t-15 -30q-14 0 -42 39t-74 -37q-12 16 -33 18
t-39 10l-37 -36q-30 38 -39.5 36t-15.5 -7t-18 -5z" />
    <glyph glyph-name="nine" unicode="9" 
d="M348 625q-20 1 -20 -29t16 -54t25 -24l20 6q34 20 17 58q-4 10 -25 26.5t-33 16.5zM463 516q-14 0 -14 -24t13 -23.5t21 12.5v4q0 31 -20 31zM217 772q8 0 8 16q16 16 18.5 37t6.5 41q-8 4 -12.5 11.5t-14.5 5.5q-5 -10 -25.5 -17.5t-23.5 -21.5q6 -8 7 -20.5t4.5 -32
t31.5 -19.5zM264 936q18 0 19 20q0 20 -19 29l-8 -4l-10 -29q0 -16 18 -16zM630 580q12 0 33 18t40 18t34 -10q30 -5 40.5 9t17 31.5t12.5 36.5t16 30q4 29 15.5 56.5t11.5 57.5l-21 74q-8 29 -15 52.5t-7 27.5q-35 14 -57.5 41t-49.5 49q-14 0 -25 9.5t-23 9.5t-21 -11.5
t-16 -11.5t-23.5 17.5t-46.5 17.5q-7 0 -21 -17q-8 23 -37 23q-45 0 -45 -49q0 -12 -8 -15q-10 7 -10 25q-10 4 -15.5 16.5t-17.5 12.5l-4 -2q0 -13 -18 -16t-22 -16q-3 -13 -10 -29.5t-11 -33.5q6 -9 6 -27t-10.5 -36t-10.5 -38q0 -46 17 -110.5t47 -82.5h13q13 0 22 4
q28 -45 34 -74q12 4 24 4t24 -18.5t30.5 -18.5t25.5 9.5t11 20.5t8.5 20.5t16.5 9.5t12 -7l-2 -55q0 -10 12 -16t24 -6zM628 1298q16 0 29 -32h7q23 0 37 19.5t36 19.5l6 -2q-2 -45 10.5 -45.5t41.5 12.5q23 -23 22.5 -34t-0.5 -14t13.5 -2t62.5 1q22 0 61 -65.5t50 -78.5
q54 -4 56.5 -51t4.5 -65q33 -16 38 -52.5t5 -58t2 -39.5l-27 -20q16 -23 12.5 -49.5t-8.5 -53.5l25 -51q-12 -23 -21.5 -48.5t-31.5 -41.5v-6q-2 -25 13 -46t15 -45t-16 -36q-66 0 -75 -29t8 -82q-50 -19 -50 -47q0 -15 -18 -27t-21.5 -20t7.5 -23l-54 7v-9q0 -12 -6 -16
t-22 -13t-23 -26l-18 -37l-45 -8q-6 -12 -35 -36t-25 -54q-14 8 -28 8q-23 0 -50.5 -21t-27.5 -40q-12 -9 -40 -14.5t-36 -22.5l-27 -2q-35 -2 -61 26q-14 -10 -22.5 -16t-14.5 -13t-6 -34t-16 -27h-7l-24 35h-6q-18 2 -33 -14.5t-31 -16.5q-30 0 -66 25.5t-36 47.5
q0 46 42 114.5t68 74.5l21 23q14 -10 25.5 0t26.5 10t27.5 -13t28.5 -11h9l57 53l25 -4q29 0 72 27.5t75 27.5q10 27 24.5 23t34.5 -4l35 22q6 16 -1 34t-7 32t9 18t20 6q4 18 16 32.5t12 33.5l-4 18l-41 23q-6 -11 -28.5 -14t-30.5 -13l-27 -6q-7 -37 -21.5 -37t-39 30.5
t-41.5 2.5q-26 11 -55 -12q-18 21 -73.5 32t-76.5 29q-12 -12 -22 -12t-68.5 81.5t-91.5 88.5q-6 25 -38 64t-32 67l19 47l-2 24q0 20 6 39t10 39q43 10 38 48t-5 62t18.5 43t43 36.5t49 42t34.5 69.5q16 6 30.5 3t32.5 -3q23 0 59 38t58 9q12 3 27 23t28 20t18.5 -11
t21.5 -11t25 12t25 12z" />
    <glyph glyph-name="colon" unicode=":" 
d="M780.5 213.5q12.5 -29.5 12.5 -67.5q1 -38 -25 -56t-31.5 -32.5t-12.5 -36.5t-33 -25t-44 -26.5t-37 -26.5q-16 4 -29 4t-23.5 -7.5t-19 -16.5t-13.5 -16t-14 -7t-15.5 11t-12.5 26.5l-12 31t-13 23.5q-27 31 -46 106q14 18 14 38t-12.5 37t-12.5 42t13.5 48.5t33 44
t39 40t31.5 39.5q16 2 31.5 -2t37.5 -4t38 25q14 2 19 -5.5t12.5 -24t27.5 -16.5t31.5 -8t19.5 -19t16.5 -23.5t18.5 -20.5v-13q-2 -33 10.5 -62.5zM584 561q-20 0 -39 14h-6q-21 -3 -34 18t-22.5 30.5t-25.5 7.5q-46 37 -43.5 125t2.5 106t7 23.5t24 13t23 24.5
q5 18 16.5 38t39.5 20l39 -8l70 12q14 0 20 -4l9 -25q10 -8 64 -29t54 -59l-10 -153q-35 -18 -68.5 -52t-35.5 -77q-23 -4 -43.5 -14.5t-40.5 -10.5z" />
    <glyph glyph-name="semicolon" unicode=";" 
d="M686 -260q-8 0 -10 2q-6 12 -26 12t-26 -13t-8 -30.5t-5 -33t-21 -17.5q-10 -8 -27 -8l-78 8l-34 4v4q0 18 -11.5 32t-11.5 28t5 19t14 15t6 33q10 16 29.5 29.5t52 39t32.5 47.5q0 23 -11 38.5t-27.5 29t-34 26.5t-27.5 24q-6 33 -6 71v97q0 26 37 50.5t47 28.5
q23 35 56.5 66t42.5 31q12 0 41.5 -19t51.5 -16l51 -62q-7 -53 11 -95.5t18 -68.5q0 -91 -29 -116l-4 -109q0 -10 -12 -22t-38 -39.5t-19 -71.5q-21 -14 -29 -14zM727 958q0 -13 33 -59q-5 -36 0.5 -61t5.5 -59t-25 -58l-18 -98q-2 -4 -10 -5l-15 7q-6 16 -24 16t-29.5 -8
t-20 -17.5t-14.5 -16.5t-14 -7t-21 14q-12 14 -73 39t-66.5 71t-25.5 66q8 18 20.5 72t69.5 59q16 20 40.5 20.5t43.5 14.5q4 16 21.5 25.5t33.5 9.5l35 -6l12 2q2 18 20 18t19.5 -13t1.5 -26z" />
    <glyph glyph-name="less" unicode="&#x3c;" 
d="M901 448q0 -24 23 -24q4 -16 7 -29.5t44 -34.5l2 -8q0 -18 -11.5 -33.5t-7.5 -33.5q-18 -16 -35 -40t-43 -24q-30 0 -78.5 18t-78.5 15q-8 5 -8 31t-10 26q-16 0 -26.5 -13t-23.5 -13q-4 0 0 4l4 12l5 27q0 10 -9 12l-32 -4q-7 0 -23 8l2 21q0 18 -11 22t-22.5 6t-18.5 5
t1 20l-8 33q-16 2 -28.5 12t-31.5 2q-10 14 -8 33.5t-16 25.5l-19 -8v4q0 17 -13 32t-20.5 23.5t-7.5 20.5l-2 2q-8 0 -20.5 -9t-24.5 -9t-14 6l6 57l-8 -8l-84 53q6 8 6 18t-8 20.5t-8 32.5t20.5 42t30.5 45q16 2 33.5 6t21.5 25l33 -11l-25 43q3 17 24.5 38.5t18.5 39.5
l17 -6q18 6 17 24.5t9 32.5l15 -2q12 0 22 8.5t23 10.5l6 32l-2 11q0 12 10 13t31.5 3t11.5 45q16 16 53 4q14 8 9 18.5t-3 22.5q-2 4 -4 7t-2 8h4q10 0 21 -13.5t21 -13.5t13 8t5 18.5t4 19.5t2 13q30 -6 37 -6q6 0 20.5 6t45.5 18.5t55 12.5q25 0 42 -23.5t36 -37.5
l-3 -11q0 -16 10.5 -28.5t10.5 -28.5l-2 -10q-16 -8 -25.5 -12.5t-13.5 -9.5t-6 -14t-6 -26q-16 0 -19.5 -6t-3.5 -26t-14 -25l-17 16q-41 0 -98 -63.5t-59 -75.5q-8 4 -22 4q-23 0 -46 -29t-37 -34l-6 2q-22 0 -41.5 -33t-30 -48t-20.5 -15v-15q17 -3 52.5 -31t54 -37.5
t32.5 -2.5q14 -6 25.5 -19.5t31.5 -33.5t48 -5q3 -21 67.5 -80t85.5 -59h4l19 14q12 -7 12 -31z" />
    <glyph glyph-name="equal" unicode="=" 
d="M932 668q20 0 45 10q14 -9 23.5 -43t21.5 -43q-4 -25 -4 -37t-3 -18.5t-15.5 -9.5t-33.5 -9t-23.5 -11t-8 -14.5t-35.5 -9.5t-37.5 -7t-18.5 -23.5t-21 -16.5q-11 0 -29 22.5t-26 22.5q-7 0 -11 -8t-8 -14v-8q0 -37 -11 -41q-6 6 -10 22q-10 8 -13 21.5t-20 13.5l-4 -2
q-10 -10 -21.5 -24.5t-27.5 -14.5h-6q-8 10 -15.5 22.5t-21.5 12.5t-25.5 -12.5t-21.5 -12.5t-13 6.5t-9.5 20t-30.5 16.5q-16 -10 -37 -10t-33 -20q-16 4 -28.5 20t-28.5 16l-13 -2l-10 -20q-11 17 -39 20.5t-46.5 7t-18.5 9.5v34q0 29 -25 33q-4 -14 -18 -14h-4l-2 8
q0 12 11 21.5t11 25.5q8 8 10 13h-8q-8 0 -8 16h8q18 0 31.5 17.5t27.5 17.5t18.5 -8.5t8.5 -14.5q12 4 25.5 0t31.5 -4t29 27q25 8 49 1t52 -7t45 32q31 -23 67 -18.5t64 4.5t46.5 -9t36.5 -9t46 26l4 29h8q13 0 25.5 -17.5t24.5 -17.5t22 10q10 -8 20.5 -18t30.5 -10z
M1018 881h4l2 -9q0 -12 -11.5 -21t-12.5 -19t-4 -12.5t-5 -6.5h6q11 0 11 -16h-9q-20 0 -32.5 -16.5t-26.5 -16.5t-18 8t-9 14q-14 -4 -26.5 -1t-30.5 3t-31 -26q-23 -6 -46 0t-52 6t-45 -33q-31 23 -67.5 20t-64.5 -3t-46.5 8t-37.5 8t-44 -27l-4 -28h-8q-18 0 -26 17.5
t-22 17.5t-24 -11q-10 8 -21.5 18.5t-30.5 10.5t-44 -10q-16 11 -24 43.5t-21 42.5q4 25 4 37t3 18t14.5 9.5t31.5 9.5q24 8 32 21t37 13t37.5 7.5t13.5 16.5t9 16t19 7t26.5 -21.5t23.5 -21.5t15.5 7.5t7.5 13.5v8q-2 4 1 22.5t9 18.5q6 -6 11 -23q10 -8 12 -21t18 -13l6 2
q10 10 21.5 24.5t28.5 14.5h4q8 -10 15 -22.5t23 -12.5t25 12t21 12t15 -6t9 -20t29 -17q18 10 38.5 10.5t30.5 22.5q16 -4 29.5 -21.5t30.5 -17.5l12 2l8 23q11 -19 40.5 -23t48 -6.5t18.5 -9.5v-36q0 -29 22 -32q15 15 21 15z" />
    <glyph glyph-name="greater" unicode="&#x3e;" 
d="M295 424q22 0 22 24t13 31l18 -14h4q22 0 84 57t70 82q28 -16 47.5 4.5t31 33.5t25.5 20q24 -10 72.5 29t67.5 42v15q-12 0 -33 33.5t-33 48t-27 14.5l-6 -2q-12 5 -41.5 40.5t-62.5 18.5q-9 27 -70 83t-88 56l-16 -16q-15 6 -15 26t-3 25.5t-19 5.5q-4 16 -6.5 28.5
t-7.5 14.5l-37 19l-2 10q0 16 10 28.5t10 28.5l-2 11q18 14 35.5 37.5t39.5 23.5t39 -6t33.5 -12.5t31 -12.5t19.5 -6t38 6q0 -4 2 -13t5.5 -27.5t10.5 -18.5q16 0 26.5 13.5t20.5 13.5h4q0 -3 -6 -15q2 -12 -3 -22.5t9 -18.5q37 12 53 -4q-10 -43 11.5 -45t32 -3t10.5 -13
l-2 -11l6 -32q12 -2 22.5 -10.5t22.5 -8.5l14 2q10 -14 9 -32.5t18 -24.5l16 6q-3 -19 18.5 -39t24.5 -39l-24 -43l32 11q4 -20 21.5 -24.5t34.5 -6.5q10 -25 30.5 -45.5t20.5 -41.5t-8 -31.5t-8 -20.5t6 -19l-84 -53l-9 8l7 -57q-3 -6 -15 -6t-24.5 9t-20.5 9l-2 -2
q0 -13 -20.5 -36.5t-20.5 -39.5v-4l-18 8q-18 -6 -16.5 -25.5t-8.5 -33.5q-18 8 -30.5 -2t-28.5 -12l-8 -33q8 -16 1 -19.5t-18.5 -5.5t-23 -6t-11.5 -22l2 -21q-16 -8 -22 -8l-33 4q-8 -2 -8 -12l4 -27l4 -12q4 -4 0 -4q-12 0 -22.5 13t-26.5 13q-10 0 -10 -26t-8 -31
q-31 3 -79 -15t-76 -18t-45 23.5t-36 40.5q4 18 -7 33.5t-11 33.5l2 8q41 21 44 34.5t7 29.5z" />
    <glyph glyph-name="question" unicode="?" 
d="M449 170q0 26 4 37q20 14 30.5 36.5t34.5 30.5q12 -4 60 -4t64 -8t28 -30t25.5 -37t35 -42t21.5 -46q0 -26 -26 -84t-34 -64l-78 12l-24 -6q-25 0 -42.5 20.5t-41.5 22.5q-14 12 -13 29.5t-5 40.5t-22.5 44.5t-16.5 47.5zM801 569q-23 0 -36 -13t-32 -13l-12 2
q-6 8 -14.5 21.5t-21.5 13.5t-18 -8.5t-6.5 -18.5t0 -22.5t1.5 -34.5t-15.5 -56t-9.5 -73q-8 -6 -18.5 -4t-14.5 -11q-29 15 -26.5 57.5t2.5 58.5t-10.5 24t-33 25t-22.5 64q0 48 27 66l-4 19q0 12 11 15t35 6.5t21 31.5q43 27 68.5 69.5t60.5 77.5q2 23 6 43.5t4 54.5
t-36 56h-5q-23 0 -51.5 23.5t-48.5 23.5t-29.5 -7t-15.5 -16.5t-12 -18.5t-19 -13q-10 6 -19 15t-23 9t-23.5 -26.5t-9.5 -35.5q0 -19 14 -74.5t22 -72.5l-55 -53l-96 19q-10 23 -32.5 37t-47.5 12l-2 24l4 56q4 55 -2 79q8 6 8 17.5t1 22t5 16.5t21 6q22 12 20 34.5t-5 36
t-3 25.5q23 -6 35 -6q20 0 42.5 41.5t39.5 48.5q12 -4 23.5 -13t26.5 -9t21.5 12t10.5 25.5t8 25.5t18 12h7l16 -24l12 -2q16 0 26.5 10t19.5 10q15 0 98 -38t86 -44q20 -14 36.5 -34.5t44.5 -16.5q29 -23 39.5 -57.5t30.5 -63.5q0 -24 27.5 -54t27.5 -52q0 -21 -16 -37
q0 -92 -53 -145q0 -27 -16.5 -48.5t-14.5 -48.5l-92 -82h-6z" />
    <glyph glyph-name="at" unicode="@" 
d="M197 375q0 -20 18 -20.5t18 22.5q0 10 -7 19.5t-14 9.5t-15 -5v-26zM177 465q5 0 6 6t5 10q-4 6 -8 13.5t-14 7.5l-4 -27q10 -10 15 -10zM795.5 166q40.5 0 40.5 45q0 20 -18.5 32.5t-29.5 28.5h-8q-10 0 -21 7.5t-37 25t-58 17.5q-27 0 -27 -33t-7 -33l-67 6
q-18 0 -28 -10q-6 8 -7 8h-24q-20 0 -23 21q-12 6 -26 6t-29 -15q-10 8 -19.5 6t-24.5 -5t-29.5 11.5t-27 31t-24.5 31.5t-44 15t-32 -86q0 -15 37.5 -63t50.5 -45l19 4q31 0 41 -27.5l16 -44t19 -24.5h12q18 20 20 45.5t2 52.5q4 4 8.5 11.5t10.5 7.5t19 -31t34 -31
q22 0 28.5 15.5t23.5 15.5t26.5 -17.5t27.5 -17.5t26.5 21.5t21.5 29.5q18 -4 38.5 -5t36.5 -13q12 6 52.5 6zM264 655q0 12 -10.5 22.5t-23.5 10.5t-18 -6t-6 -15.5t-1 -19.5t-4 -18l-35 10q-14 -4 -14 -7v-25q0 -21 8 -38.5t19 -17.5t24.5 6t13.5 18l-4 27q0 16 23 16
q8 10 18 17.5t10 19.5zM575 409.5q0 20.5 -16 34t-16 36.5t16 32q12 -8 17.5 -22.5t21.5 -14.5q72 42 66.5 89.5t-5.5 96t41 84.5q14 57 -11 69.5t-52 19.5q-27 -10 -43 -27q-2 2 -8 2l-18 -3q-19 -3 -27 9q-16 -4 -20.5 -18.5t-20.5 -20.5v-10q0 -18 10 -39q-4 -10 -10 -6
t-15 4h-4q-35 -58 -35 -152q0 -37 -26.5 -60.5t-26.5 -31.5q0 -29 28 -26.5t36 2.5l18 -4v-11q-2 -23 9.5 -40t15.5 -37q27 -9 51 7.5t24 37zM986 193q-9 0 -9 -19v-8q0 -18 14 -21q4 4 10.5 8.5t6.5 10.5v8q0 6 -6.5 13.5t-15.5 7.5zM981 354l-4 -6l4 -4v10zM740 731
q-22 0 -36 -16.5t-14 -36.5t22.5 -33.5t32.5 -34.5l11 -2q12 0 17 17.5t18 23.5v8q2 25 -13.5 49.5t-37.5 24.5zM1024 412q0 10 -8 19t-20 9t-11 -16q4 -8 5.5 -22.5t17.5 -14.5t16 19v6zM755 1012q3 0 15 -6v-5q0 -16 10.5 -27t16.5 -26q16 4 30.5 17.5t22.5 13.5
q10 0 40 -28.5t66 -37.5q14 -24 39 -24h4v37q-16 10 -24 31.5t-16.5 44t-17.5 39t-25 16.5t-24.5 -7.5t-19.5 -15.5q-22 37 -95 92.5t-87 55.5t-21 -14.5t-10.5 -34t-5.5 -39t-14 -29.5q-14 20 -6 40.5t6 43.5v4q-12 18 -25.5 18t-18.5 -10t-15.5 -33.5t-36.5 -23.5l-15 18
h-20q-16 2 -36.5 -5t-29.5 -23q-10 -25 -23 -31t-52 -14t-41 -43t-19 -39q-23 12 -35 12t-19 -15.5t-13.5 -34t-16.5 -32.5t-33 -12q-14 -7 -14 -58t10 -96h11q14 0 20 -10l16 -4q24 0 38 38t24 46l14 -2q16 0 40 14t24 35t-19 31v6q0 12 8 28q12 0 17.5 -14t8.5 -22.5
t11 -10.5q43 17 43 39q0 16 -12 27.5t-12 31.5t28 32t42 12t17 -9.5t8.5 -31.5t25.5 -25q4 27 21.5 28t36.5 1t27.5 6t12.5 14t8 14.5t11 6.5t23.5 -25t35.5 -22q4 -4 14 -4t13 8t4.5 17t3.5 17.5t5 8.5zM1006 724l-48 1q-23 0 -36 14q-6 -4 -10.5 -12t-14.5 -4
q-22 -11 -16 -59l-33 -35q6 -10 6 -25l-4 -39q0 -18 12 -30q10 -4 17.5 -12.5t17.5 -8.5h4q8 14 39 14t40 14q11 17 16.5 50.5t23.5 48.5l4 39q0 8 -8 26t-10 18zM1092 469q12 0 12 17t-12 22q-17 -17 -17 -25q0 -14 17 -14zM1008 756q0 2 3 2t3 2q20 8 20 36t-24.5 28.5
t-24.5 -34t23 -34.5zM1094 866l-2 -18q0 -20 14 -27l20 19q0 14 -11 18t-21 8zM1047 -8.5q0 -44.5 -19 -44.5q-24 0 -51 35q-10 -18 -29.5 -27.5t-25.5 -32.5q-12 6 -23.5 20.5t-31.5 14.5q-31 0 -44 -63l27 -48h-6q-14 0 -18.5 16.5t-6.5 26.5l-45 29l-14 -45
q-10 8 -20.5 7t-21.5 -1t-19.5 3t-12.5 22l-29 4q-6 -6 -8 -16.5t-5.5 -28t-20.5 -17.5h-7q-14 14 -14 27.5t-1.5 33t-59.5 36.5q-10 -10 -18.5 -26.5t-24.5 -16.5t-20.5 9t-7.5 21.5t-7 22.5t-19 12l-14 53l-14 13q-14 -36 -10 -45l-21 2l-61 -11q0 -38 -19 -34h-10
q-10 16 -2 35.5t8 39.5t-21.5 50t-73.5 74t-97 32q2 23 -8.5 37t-34 44.5t-23.5 79.5q0 50 -20.5 100t-22.5 106l43 18q-6 8 -6 27t12 38t12 40t-22 45q14 42 14 66t-14 63q18 18 25.5 43t30.5 42t23 39t-14 44t-22 38l16 31q94 -3 95.5 27.5t1.5 51t24 36.5l33 -6
q27 0 43 14q0 35 5 35l60 -8q28 0 107 48t90 83q14 -3 16 -21t3.5 -26.5t17.5 -8.5t33.5 16.5t25.5 39.5q12 -4 20.5 -14.5t23.5 -25.5t40 3q25 -4 63.5 -21.5t84.5 -17.5q16 0 24 -23q20 -4 31.5 -24.5t30.5 -30.5l12 2q16 0 25.5 -11t25.5 -33t47 -13q23 -26 32.5 -78.5
t33.5 -81.5q-10 -21 -10 -35t7 -30.5t9 -24.5q35 -16 43 -47t16 -64q-21 -30 -8 -69t13 -53t-9.5 -30t-19.5 -22l4 -28q0 -33 -19.5 -60.5t-35.5 -54.5l14 -53q50 -24 52.5 -87t8.5 -83q-15 -6 -20 -28.5t-16 -29.5q-4 -16 -4.5 -40.5t-24.5 -28.5q0 -41 -25 -56l-4 -30
l-51 12q-20 -9 -20 -53.5z" />
    <glyph glyph-name="A" unicode="A" 
d="M160 96l-8 -10l8 6v4zM498 264q0 14 -7.5 25.5t-11.5 23.5q-20 8 -38.5 16.5t-41.5 8.5q-49 0 -49 -37l12 -63h23q12 0 17.5 6t19.5 6l49 -10q27 -1 27 24zM520 600q0 4 -2 5t-4 5v-12h6v2zM713 575q18 0 18 25q1 25 -22 25q-12 0 -23.5 -9.5t-11.5 -21.5q0 -19 39 -19z
M684 724q0 14 -6 23t-13.5 14t-13.5 8t-6 11t8.5 13.5t8.5 15.5q0 35 -33 35q-23 0 -37 -13q-2 -4 -2 -18t7 -21.5t7 -17.5t-21.5 -10t-21.5 -8t12 -19v-6q0 -25 -10 -51q4 -6 9.5 -12t5.5 -14.5t-9 -8.5l-18 4q-2 0 -2 -1t-2 -1h-4l-2 -6q0 -10 12 -27q23 0 35 -16t35 -16
h10q14 14 14 28q-10 6 -10 8l4 41q10 10 17.5 20.5t21.5 14.5q4 16 4 30zM1133 2v-31q0 -27 -7 -30q-16 0 -25 12t-23 12t-18 -15.5t-22 -15.5t-28.5 19.5t-22.5 19.5t-24 -8q-15 -30 -28 -26t-60.5 28.5t-71.5 14.5l-39 16q-14 0 -23.5 -12.5t-19.5 -12.5t-14.5 7.5
t-8.5 13.5q6 8 6 28t-6 32t-16 15t-22.5 4t-26.5 7l-6 -2q-18 0 -47.5 35t-57.5 0q-6 -15 -30.5 -29t-24.5 -28t10 -23l33 -4l-16 -45l-43 24q-4 -16 -17.5 -25.5t-11.5 -25.5h-6q-14 0 -29.5 16.5t-25 18.5t-21.5 -10l-39 -5q-6 37 -37 52q-12 -17 -38 -17t-47 16.5
t-50 14.5q0 -37 -14 -37q-4 0 -6.5 4t-4.5 6q8 31 6.5 64t2.5 65q20 -10 39 -10l14 4q3 19 22 30t25 19.5t0 22.5q6 10 18.5 21.5t28.5 29t2 45.5q22 13 41 41q-10 45 -10 70t9 36t26 30.5t14 56.5q-16 12 -16 23q0 14 26 34t19 43q12 9 12 36t12 36l-2 20q0 27 13.5 50.5
t3.5 52.5q4 18 9 37.5t21 33.5v6q0 23 12.5 42.5t6.5 41.5q41 34 2 111l39 33l10 45q51 16 68 59q-12 18 -9.5 42t-15.5 40q10 5 16 23t9.5 25t17.5 7t38.5 -29.5t37.5 -58.5q35 18 46 4t13 -24q-4 -12 -4 -29t11.5 -40t11.5 -51t11 -50.5t9 -44.5q5 -12 28 -21.5
t32.5 -15.5t9.5 -24t-14.5 -37t-14.5 -33t4 -27q61 -77 70 -213q29 -31 23.5 -59.5t-5.5 -67.5t37 -51q-6 -12 -6 -31t18.5 -38t18.5 -35t-5.5 -28.5t8.5 -49.5t28 -60.5t28 -34t32.5 -21.5t47.5 -50l-2 -23q0 -23 13.5 -35t31.5 -26q-11 -44 -6 -66q-14 -6 -14 -10z" />
    <glyph glyph-name="B" unicode="B" 
d="M933.5 405q-24.5 60 -32.5 72q-25 10 -42 32.5t-48.5 59.5t-89.5 15q-21 16 -49 16q-27 0 -34 -7t-13.5 -14.5t-13.5 -14.5t-15 -7t-16 8q-29 -10 -58.5 -2t-53.5 8t-32 -12t0 -29q-20 -29 -35.5 -50.5t-15.5 -47.5t-13.5 -39.5t-13.5 -30.5l11 -55q0 -39 -17 -121
q10 -29 51 -51.5t56 -46.5q14 -6 29.5 -5t39.5 1t34 -14.5t22 -14.5t17 7.5t13.5 23t24.5 18.5q25 25 40 0.5t29 -24.5q40 0 100 26t60 56l-12 47q0 12 10 12l31 -12q18 0 21.5 16.5t17.5 24.5l-2 10q0 18 12 35t12 33q0 17 -24.5 77zM387 890q0 -19 -11 -34.5t-11 -35.5
q0 -28 31 -35t36 -29q14 0 35.5 -24.5t38.5 -24.5q8 6 13 17t14.5 29t29.5 15h6q27 -40 78 -49.5t63 -9.5q16 0 27 24.5t23 26.5q27 4 73 48.5t46 66.5t-2 30q-25 11 -25 17l4 61q0 35 -26.5 40t-50.5 5q-51 0 -58 43q-12 2 -23.5 7t-22.5 5t-18.5 -9t-18.5 -9
q-13 0 -30 21.5t-37 21.5q-19 0 -17.5 -16.5t-4.5 -28.5h-4q-13 0 -29.5 20.5t-32.5 20.5l-51 -10q-20 0 -38 12t-34 12t-28 -8q-2 -6 -2 -25.5t17.5 -40.5t17.5 -36l-13 -60q0 -23 17.5 -31t17.5 -27zM872 1282q12 0 17 -12l-2 -23q0 -30 34.5 -56t41.5 -52q37 -6 51 -39
t30 -62l-2 -49q0 -37 16.5 -69t16.5 -54t-11 -36.5t-9 -30.5l-41 -39l14 -41q-18 -10 -37.5 -30.5t-19.5 -43.5l2 -6q31 -39 55.5 -54.5t51 -39t26.5 -107.5q0 -29 16.5 -48.5t16.5 -37.5t-5 -23l-44 -44q2 -18 12 -35t10 -35l-16 -31q-16 -8 -23.5 -25.5t-21.5 -48
t-54 -24.5q-10 -27 -29.5 -34t-39 -12t-38 -18.5t-26.5 -54.5q-26 26 -49 10t-41 -16t-29 10.5t-39 10.5t-39.5 -9.5t-13.5 -19.5t-3 -19.5t-13 -9.5h-6q-6 8 -8.5 42t-30.5 34q-23 0 -62.5 -28.5t-70.5 -22.5l-41 -21q-12 23 -20 45.5t-30 22.5t-30 -6t-22.5 -15.5
t-28.5 2.5l-15 3q-27 0 -45 -19.5t-26 -42.5q-15 0 -40 21.5t-60 21.5t-51.5 6t-24.5 25q24 63 38.5 70.5t31 8.5t44.5 7l49 12q8 17 37 39.5t29 41.5q0 26 -21 40.5t-24 30.5q22 0 32.5 18.5t16.5 30.5t16 18l-22 41h-8q-20 0 -39 31q8 20 21.5 38.5t13.5 34.5t-6.5 23.5
t-18.5 20t-12 26.5t8 25l10 55q-10 20 -55 68q59 35 59 78q0 21 -39 51q2 12 1 28.5t0.5 40t29.5 33.5l2 19q0 26 -15.5 56t-21.5 46t-2 37q-6 8 -8 18.5t-9 27.5t-22 17q-18 0 -33.5 -19.5t-27.5 -19.5h-6q-14 25 -31.5 22t-29 -7t-22.5 -4t-15.5 7t-8.5 13q37 10 31 66
q28 47 49 47h107q9 0 23.5 26t29.5 33q23 -44 62.5 -47.5t65 -2.5t50.5 -1q14 10 20.5 25.5t24.5 17.5q17 -14 58.5 -17t66.5 -22q8 -4 18 -4t21.5 7t29 22.5t34 15.5t26.5 -20q37 -15 145 -15q16 0 23.5 17.5t19.5 17.5z" />
    <glyph glyph-name="C" unicode="C" 
d="M448 41q-17 0 -28 20q-18 6 -27.5 32t-16 36t-18.5 10t-29.5 -9t-27.5 -13l-4 35q12 10 12 38t-12 50t-30.5 36.5t-41 26.5t-43.5 33q4 16 4 34.5t-4 35.5q26 47 13 104.5t-13 79.5t6 53q-14 13 -14 27t6 18t15 14.5t-5 81.5q23 0 36.5 13t13.5 35t-14.5 37.5t-14.5 32.5
t20 30q20 -12 46 -12t26 18t-10 33.5t-10 34.5v6q23 16 22.5 40.5t-0.5 56.5t27 50h14q17 -2 60 8l18 47q18 -12 31 -12q14 0 38.5 23t45.5 20q5 37 29 37t41.5 -20.5t37.5 -20.5t33 31q23 0 41.5 -14.5t36.5 -14.5t30.5 3t22.5 5l-12 37q17 7 58 20.5t54 41.5q28 8 55 8
q28 0 50 -29t22 -57l-30 -174q8 -8 8 -27t-13.5 -38t-13.5 -39t8.5 -40t-6.5 -36q-2 -18 8.5 -26.5t22.5 -15t23.5 -13.5t9.5 -25h-6q-20 2 -34 -16.5t-24 -33.5q0 -20 -15 -29t-28 -20l-37 29q-18 -6 -39 -6l-14 4l4 57q0 31 -37 92.5t-45 67.5q-12 27 -16 41t-11 25
t-69 26l-27 -28q-23 4 -35 25.5t-36 23.5q-31 -25 -57.5 -19t-46 12.5t-32 -3t-12.5 -66.5l-6 -4q-10 0 -17 8t-14 12q-31 0 -50 -45t-19 -75t-10.5 -48t-21.5 -33.5t-21.5 -26t-10.5 -20.5t13 -26q-11 -47 -2.5 -51t19.5 -3t27.5 1t22.5 -15l-14 -28q-12 -2 -24.5 4
t-22.5 6t-16.5 -7t-6.5 -13t10.5 -19.5t33 -46.5t22.5 -51.5t-29 -24.5l-27 -31v-6q0 -20 17.5 -37.5t26 -28t8.5 -22.5t-7 -20l-32 8l-11 -41q59 -19 65.5 -53.5t11.5 -58t28 -44.5h6q16 0 31.5 8.5t37.5 8.5t21.5 -15.5t-12.5 -22.5t-16 -18q2 -6 2 -34.5t22 -28.5
t32.5 26.5t16.5 42.5l10 5q20 0 31 -19.5t25 -19.5t21 10t21 10t25 -11t24 -11t21.5 8t15.5 20.5t12 24.5t11 20q12 -8 24.5 -8t31.5 22t36 19q23 12 21 35.5t-2 41.5t10 28t32.5 33.5t22.5 71.5t18.5 72.5t35.5 47.5q52 0 66 -52.5t24 -66.5l-2 -16q0 -25 19.5 -41.5
t19.5 -36.5t-29 -37q-8 -31 -19.5 -61.5t-17.5 -61.5l-43 -18v-6q4 -49 -43 -87l-14 3q-28 0 -48 -17.5t-32 -29t-25 -19.5l-14 4q-16 0 -28.5 -10t-34 -24.5t-43.5 14.5h-13q-33 4 -59 -27q-20 4 -40 14.5t-42 5.5l2 13q0 56 -44 53.5t-61 -2.5z" />
    <glyph glyph-name="D" unicode="D" 
d="M856 328q12 0 21.5 5t13.5 7q39 55 39 119q0 20 -6 43q4 10 4 42t-10.5 64.5t-2.5 81.5q-10 25 -12 53.5t-7 74t-54 69.5q-4 23 -13.5 41t-7.5 41q-23 20 -34 29.5t-33 9.5t-28.5 7t-20 24.5t-34.5 17.5t-33.5 -18.5t-23.5 -28.5q-10 12 -17 27.5t-20 38.5t-42 26
q-12 -16 -24.5 -31.5t-16.5 -36.5l-58 19q-28 -12 -21 -26.5t7 -24.5t-8 -20.5t-6 -25.5q-30 -11 -31.5 -33t0.5 -36.5t2 -28.5l-2 -22q-14 -11 -41 -11l-2 -39q6 -8 8 -20t7 -30.5t30 -12.5q22 -11 22 -26t-10 -28t-10 -33t9 -50.5t9 -59.5v-12q-6 -4 -21.5 -41
t-20.5 -55.5t-5 -27.5t23.5 -45.5t34.5 -33.5l14 -20q-6 -16 -20.5 -11t-25.5 5t-20.5 -14t-9.5 -21v-41q0 -12 12.5 -30.5t24.5 -22.5l12 24q31 0 47.5 -25.5t24 -38t17.5 -12.5t67.5 40t97.5 53q34 -25 50 -7.5t32.5 41.5t40.5 27q24 2 30.5 10t8.5 20.5t3 25t9 22.5
q19 -8 31 -8zM258 102q43 46 43 172q0 32 -6 43q-21 16 -21 33q0 18 10.5 33t10.5 35q0 22 -13 51.5t3 75.5q-16 27 -13.5 57.5t7 60t1 57.5t-33.5 50q18 20 18 54t-37 110q2 14 11.5 26.5t9.5 29.5t-18.5 34.5t-30.5 32.5l-35 -10q-22 29 -72 24l-20 -39l-33 27
q10 12 10 41t-17.5 55.5t-23.5 56.5l-35 19l4 14l5 -14l6 16q9 -38 34 -23t39 15t28.5 -14.5t30.5 -14.5t26 16q17 24 55 26t51 24q31 -16 65.5 -15t69.5 -8q14 -24 29 -24q14 0 21 8t20 26.5t32 18.5t24 -8t12.5 -25.5t25.5 -17.5h6q8 20 53 26l41 -32q19 11 23.5 37.5
t15.5 37.5q25 -9 32 -40t15 -46.5t29 -21.5q16 4 29.5 16.5t31.5 3.5q24 18 45 -8t49.5 -76t43.5 -59l6 -49l28 -21q6 -23 17.5 -45t29 -60t11.5 -81l20 -31q18 -4 40 -3t38 -15v-10q0 -12 -4 -29.5t-21 -15.5l-45 -35q2 -15 25 -43.5t23 -45.5t-5.5 -33.5t-10.5 -44
t16 -61.5l-7 -28q-50 -13 -52.5 -69t-4.5 -75q-25 -10 -35 -30.5t-21 -65t-42 -61.5l-6 2q-16 0 -61 -58t-36 -71l-4 -15q-8 2 -12 11.5t-12 25t-17 15.5q-10 0 -22 -4q-10 -23 -33 -27t-45 -10q-19 13 -30 8q-11 -4 -29.5 -13.5t-27.5 -9.5t-20.5 5.5t-29.5 12.5t-37 -5
q-14 14 -30.5 5t-32.5 -9t-23 20q-11 2 -35.5 -6t-34.5 8l-14 2q-27 0 -37 -18.5t-23 -36.5q-10 23 -31.5 33t-41.5 22l-39 -55q-4 23 -23.5 39t-42.5 18l-12 -4q-31 0 -41 23.5t-16 46.5q12 20 36.5 8t36.5 -12t19.5 7t24.5 22t69 5z" />
    <glyph glyph-name="E" unicode="E" 
d="M373 295q0 -22 -39 -55v-9q0 -19 33 -46.5t39 -45.5q8 -6 22 -6t37 14l-2 9q0 16 13 21t18 22q6 2 19 2t28 -10.5t33 -10.5t27 23.5t7 40.5l43 22q-4 27 -23.5 45.5t-19.5 42.5l10 47q0 31 -21.5 57.5t-27.5 55.5q-23 8 -42 28.5t-33 20.5t-24.5 -10t-20 -22.5
t-19.5 -22.5t-22.5 -10t-15.5 6t-4 15t-2 18.5t-9 15.5h-6q-30 0 -27.5 -36t-1.5 -44q10 -20 10 -41t-10 -45.5t-10 -31.5t6 -12t14 -10t14.5 -10.5t6.5 -27.5zM641 991q10 0 12 -7.5t7 -27.5t18.5 -24t35 -5.5t21.5 -66.5q0 -14 8 -22q-9 -27 5 -70t2 -72q2 -23 11 -40
t7 -40q-18 -31 -18 -67l4 -41q32 -14 22 -40t-10 -38t16 -24q16 4 34 -1.5t38 -5.5t35 23l-2 10q0 12 10 16.5t29.5 11.5t1.5 32l22 16q14 -11 72.5 -44t58.5 -52q0 -20 -11 -37t-11 -35t8 -33.5t31 -13.5l-2 -211q-25 -10 -25 -31t29 -88q-23 4 -41.5 16.5t-38.5 12.5
t-39.5 -17.5t-32.5 -27.5q-31 21 -64.5 22.5t-55 2.5t-42.5 5q-14 -4 -24 -18t-27 -14l-12 4q-8 41 -30 41q-21 0 -30.5 -11.5t-19.5 -11.5t-19 14t-28.5 14.5t-32.5 8.5q-12 -8 -13 -28.5t-16 -20.5t-29.5 27.5t-35.5 27.5t-34 -18.5t-31 -18.5t-23.5 15.5t-29.5 15.5
q-92 0 -124 -18l-2 -33q-16 -2 -21 8t-10.5 23.5t-13.5 24.5t-28 11t-31 -20q-14 26 -60 16q0 38 -24 76q6 23 25.5 36t37.5 24q51 -28 82 -20.5t41 9.5l2 56q-26 13 -26 24.5t5 14t12 1.5t15.5 -3.5t12.5 -2.5q14 0 22 19.5t6 32.5l-4 63q-34 15 -35.5 49.5t-0.5 56
t-1 40.5q-14 6 -14 20t13.5 31t13.5 33t-6.5 28t-8.5 17q-15 11 -28 57q10 6 27.5 25.5t17.5 36.5t-12.5 35t-12.5 37t23 30q6 14 6 39t-16.5 54.5t-16.5 46.5t16.5 30.5t16.5 31.5l-23 25h-10q6 18 6 23q0 22 -5 22l-58 -4q-18 0 -29 8l-45 -4q-29 29 -32 69t-7 79l25 2
q8 -8 11 -23.5t8 -42.5t28 -27l18 3q23 27 8 61l9 33q20 0 31.5 -19.5t31.5 -19.5q26 0 68 84q6 -8 17 -42t36 -34q14 0 44 20t52 11q29 10 59.5 1t61.5 -9q97 0 111 28l20 -10q24 14 37.5 2t22 -19.5t18.5 -7.5t41 23q12 -12 26 -12t28.5 12t33.5 14q32 28 64.5 8t52.5 -20
t35.5 10t25.5 10h14v-30h-18q-16 0 -27.5 -12.5t-11.5 -29.5t15.5 -26.5t19.5 -25.5l22 -9v-12q2 -16 -3 -34.5t3 -37.5q-12 -10 -29.5 -23.5t-17.5 -32.5t14.5 -34.5t8.5 -38.5l6 -6q-8 -29 -15.5 -59.5t3.5 -59.5l-25 -32q-19 6 -38.5 34.5t-43.5 28.5l-8 47
q-13 10 -18 43t-19 41l2 27q0 68 -45 86t-77.5 18t-63.5 -12l2 16q0 39 -29 39q-18 0 -44.5 -18.5t-84.5 -18.5q-25 0 -31 -22q8 -12 8 -26t-10 -15q-12 2 -14 21.5t-6 27.5t-18 8q-14 41 -33 49q-16 -2 -19.5 -12t-5.5 -34t-20 -29l-47 24q-45 -8 -45 -33q0 -4 6 -16t8 -18
l31 -11q-10 -20 -31 -41.5t-41 -29.5q2 -18 4 -38t12 -36l6 2q12 0 20.5 -14.5t8.5 -27.5t-17.5 -19.5t-17.5 -27.5t42 -54t69 -33q35 0 69 26.5t58 32.5q31 41 44 77t3 87q35 47 45 47z" />
    <glyph glyph-name="F" unicode="F" 
d="M238 -51v10q0 4 -5 4l-4 -14h9zM328 1257q0 9 -8 9t-11 -6q-33 0 -43 -29q6 -6 14 -6t16.5 13t17.5 13t14 -2v8zM248 109q51 0 51 37q0 19 -29 102q27 14 27 32q0 19 -19.5 37.5t-19.5 44.5t23 54q-20 12 -8 53t12 63t-11.5 51t-21.5 60q8 23 15 36t12 31t-13 62
q14 23 17.5 47.5t7.5 50.5q-43 26 -43 80l43 27v6q0 31 -20.5 55.5t-20.5 55.5l-29 34l-59 -30q-2 10 -20.5 23.5t-23.5 21.5t3 20q-4 49 -33 82l35 10l41 -16q33 23 32 40t-6 50q12 0 16.5 -9t11.5 -27.5t26 -18.5q18 0 27.5 14.5t27.5 14.5q9 -9 28 -7t28.5 2t17.5 -10
q15 13 34 1.5t29 -14.5t23 9q20 -4 33.5 -17.5t28.5 -13.5t27 11.5t32 11.5t39.5 -4t37.5 2l43 -6q16 10 28 1t28 -9t31.5 5t40 12t49.5 -3q14 10 44 10t59.5 -11t61.5 -9q8 -18 20.5 -28.5t31 -27.5t18.5 -45t9 -41.5t9 -29.5l-16 -29l27 -6l-4 -21q0 -16 10 -31.5
t10 -34.5t-22 -30v-6q0 -14 -12.5 -23.5t-12.5 -24t11.5 -21.5t11.5 -27.5t-11.5 -50t-34.5 -33.5q0 -21 -15 -26t-25.5 -7t-16.5 -10q-23 18 -52.5 34.5t-43.5 45.5q10 16 10 39.5t-30 23.5t-78 -12q-4 10 -15.5 21t-23.5 7v4q-2 10 2 25.5t16 15.5t28.5 -18t20.5 -25
q39 0 46.5 30t10.5 49.5t9 33.5q-91 174 -195 123l-33 22q-18 -14 -51 -11t-59 -7q-10 4 -21.5 9t-23.5 2t-81.5 -5.5t-92.5 -25.5q2 -23 1 -49.5t21 -41.5q-8 -8 -8 -11v-29q0 -27 -16 -35q-6 -18 -6 -29t16 -43l41 2q0 -14 -14.5 -25.5t-21.5 -17.5t-7 -16.5t9 -26.5
t13 -27h7q8 0 10 -5t7 -17t34 -12t46 12t46.5 38t77.5 23l16 43q-12 14 -29.5 23.5t-27.5 28.5q8 14 23.5 17t40.5 6.5t22 41.5q16 16 39 16l30 -4q38 -38 21 -61q6 -20 6 -33.5t1.5 -30t39.5 -32.5q12 -4 12 -16.5t-5 -26t1 -25.5q-20 -2 -27.5 -16.5t-13.5 -30.5
q26 -34 9 -68t-17 -57l2 -20q29 -19 29 -97q0 -12 -13.5 -23t-5.5 -30l-10 -31l-41 -28q-10 4 -21.5 6t-26.5 8.5t-15 30.5l-45 43q8 18 17 36t9 40t-10 32q-19 3 -49.5 25t-52.5 22q-62 0 -84 -12q0 -18 -26 -21t-32 -18q3 -18 -2 -53t15 -47q-2 -15 -22.5 -23t-30 -14
t-9.5 -18.5t10 -22.5q0 -22 32 -38t32 -40v-6q-16 -4 -39 -9t-23 -25q0 -27 42.5 -58.5t80.5 -44.5q10 -17 37 -17t44.5 7.5t27.5 14.5t14 12t10 5l11 -4l-4 -14q0 -16 20.5 -31.5t20.5 -27.5t-11.5 -27.5t-7.5 -58.5l-14 4q-10 0 -17.5 -6.5t-20 -13.5t-24.5 16l-57 -31
q-12 43 -29 53q-23 -4 -39 -22.5t-34 -34.5q-10 17 -52 37q-25 -6 -53.5 -8.5t-36.5 -34.5l-12 6q-12 0 -15 -16.5t-14 -16.5q-3 0 -14 22q-25 0 -31 12.5t-17 37t-75 24.5q-25 0 -29 21.5t-14 38.5l47 -2q10 8 27.5 12t42 14t14.5 43l4 19q12 -10 28.5 -27.5t39.5 -17.5z
" />
    <glyph glyph-name="G" unicode="G" 
d="M1059 103q0 -29 -13.5 -53.5t-33 -47t-40 -43t-34.5 -45.5q-12 23 -23.5 46.5t-35.5 33.5l-39 -17q-16 6 -31 13.5t-29 7.5t-30.5 -10.5t-26.5 -22.5t-24.5 -11t-28 4t-24.5 3t-21 -16q-31 10 -63 18t-64 -2q-10 23 -29.5 29t-40.5 10q-25 27 -29 41t-7 20.5t-6 6.5h-64
q-21 0 -33.5 54t-12.5 68t-10 26.5t-24.5 20t-30.5 12.5t-29 13q-12 29 -11 61.5t1 78.5t-20 83q12 45 6 91.5t-6 88.5t24 80l-12 95q0 31 -5 64.5t11 60.5q16 0 32 24t36 21q18 10 24 29.5t11.5 39t15.5 32.5t37 13q4 58 57 87.5t70 43.5l16 -2q18 0 49 31q18 2 36.5 -2
t41.5 -4t41 20l20 5q27 0 40.5 -12.5t20.5 -20.5t19 -15q23 2 35 12.5t38 28t74 17.5t86 -23.5t38 -61.5t-11.5 -60.5t-11.5 -51.5t-17.5 -56.5t-17.5 -53.5t8.5 -37t19.5 -20t19.5 -16t8.5 -21t-9.5 -23t-9.5 -29q0 -28 15.5 -47.5t15.5 -34.5v-6l-25 -31q-14 6 -26.5 14.5
t-26.5 8.5l-20 -4q-9 -22 -42 -16.5t-42 -2.5q0 18 -13.5 32.5t-25.5 29.5v8q2 28 -19.5 70.5t-30 66t-2.5 47.5q-12 14 -70 84t-95 70l-33 -4l-33 -47q-26 22 -59 22q-57 0 -95.5 -64.5t-33.5 -129.5q-47 -43 -70 -109.5t2 -130.5l-6 -22l-31 -29q0 -25 14.5 -45.5
t14.5 -36.5t-9.5 -27.5t-9.5 -27.5t12.5 -47t28 -60t27.5 -50.5t12 -28.5q0 -14 -35 -27q-3 -25 22.5 -46.5t35.5 -35t6 -33.5q8 -6 22.5 -18.5t24.5 -12.5t19.5 9.5t22.5 9.5t19.5 -8.5t11.5 -19.5t9 -22.5t14 -17.5q8 6 27 6t36.5 -14t35.5 -14t28.5 11t27 28.5t40.5 -7.5
l20 -2q23 0 44.5 22.5t35 32t33.5 7.5l25 24q24 25 24 42q0 16 -5 24t-15 15t-4 21t14 35t8 41q0 78 -65 121l-45 -6l-35 25q-6 18 -23.5 24t-35 10.5t-32 10.5t-14.5 26l2 15q25 12 43.5 13t44 6t50.5 57q28 -14 67 -23.5t49 -9.5t27.5 3t34.5 -1l8 35l12 2
q29 0 49.5 -19.5t42.5 -19.5t39 12q62 -16 77 4.5t28 38.5q18 -3 25.5 -30.5t17.5 -34.5q-23 -25 -17 -52.5t15 -56.5q-16 -10 -19.5 -25.5t-13.5 -29.5l-14 2q-41 0 -84 -43l4 -15q0 -23 -39 -39q0 -16 -11.5 -46t-3.5 -48q-6 -18 -6 -35l4 -73q19 -28 19 -57z" />
    <glyph glyph-name="H" unicode="H" 
d="M131 -18q-25 0 -25 30t2.5 65.5t24.5 61.5q25 -14 47.5 -14t37.5 20.5t15 42.5l-2 19q-18 9 -18 29t12.5 36.5t12.5 33.5t-13.5 38t-17.5 43q47 26 47 70v6q-14 6 -14 30t-7 35q15 9 15 39l-2 15q-23 20 -23 57l4 27l37 30l4 23q0 35 -8 66t-8 61t-17.5 44t-17.5 28
t21.5 35.5t21.5 47.5l-12 27q-18 40 -48 89.5t-36 49.5l-23 -2q-10 -12 -14 -35.5t-25 -23.5l-14 2q-6 12 -6 35l4 37q42 17 66 2l2 24q-6 2 -6.5 10.5t8 17.5t18.5 18.5t21.5 16.5t15.5 11q16 -14 28.5 -38.5t27.5 -24.5t31.5 7t56 22.5t53.5 15.5q21 0 45 -27.5t24 -46.5
q7 -7 23 -12t22 -9t6 -14v-6q-14 -4 -26.5 1t-29.5 5t-23 -20q-35 -13 -46 -52q0 47 -26 47q-11 0 -53 -14q0 -14 4 -29.5t9 -40.5t-13 -45q4 -16 2 -30.5t-2 -38.5t24 -41q-4 -16 -6 -32.5t-14 -29.5q4 -16 5 -33.5t5 -31.5t14 -24.5t33 -10.5t31 14l-4 21q0 23 16 29
q12 -41 82 -41t88 -2l29 26q14 -10 25.5 -26.5t28.5 -16.5t26.5 17.5t27.5 17.5l13 -2q17 -23 34 -23q16 0 27 7q2 12 8 24t15.5 35t-5.5 43q4 16 15.5 27.5t11.5 26.5t-11.5 22.5t-11.5 25.5t11.5 36t11.5 38q-14 12 -18.5 30.5t-9.5 37t-14.5 32t-27.5 13.5t-27 -10.5
t-23 -10.5t-28 12.5t-18 28.5q23 71 53.5 86t90.5 15q59 0 92 -15q16 10 29.5 3t27.5 -7t22.5 7t16.5 16.5t16 16.5t20.5 7t22.5 -6q2 -16 28 -50t26 -46t-14.5 -18.5t-40 -22.5t0.5 -80q-17 -6 -33 -6q-20 0 -38.5 19.5t-32.5 17.5l-10 -41q12 -18 12 -37t-21 -66
q8 -20 24.5 -36.5t16.5 -39t-19.5 -32.5t-25.5 -31q8 -14 23.5 -25.5t15.5 -23.5t-18.5 -38t-14.5 -58l3 -23q39 -36 37.5 -46.5t-7.5 -20t-6 -24.5t12 -28l7 -45l36 -28q-12 -12 -35.5 -20.5t-23.5 -34.5t15.5 -23.5t29.5 2.5t14 -12l-2 -15q-32 6 -43 -8l13 -27
q32 32 49 7l-15 -27q29 -16 35 -49t8 -62q32 -16 58 -63q-14 -23 -7 -46.5t7 -45.5q0 -35 -41 -41l-23 -41q-8 20 -35.5 38.5t-49.5 18.5t-35 -14.5t-33 -9.5q-8 -6 -40 -17.5t-28 -40.5l-20 -2q6 12 6 27q0 43 -17 43h-77q-41 0 -41 33v29q0 28 26 75l33 16q3 19 31 27
t40.5 16.5t12.5 26.5t-11.5 34.5t-11.5 30.5t21 29l2 31q0 33 -23 45q6 39 27 53l10 49q-20 10 -24 40t-9.5 44.5t-21.5 22.5q-24 -14 -67.5 -12t-68 2t-46.5 -7q-21 10 -53.5 -1t-50 -12t-31.5 13h-7q-27 2 -40 -21.5t-17 -43.5l-18 6q16 27 16 48t-16.5 28.5t-30.5 5.5h-2
l-14 -16q2 -18 -14.5 -26t-16.5 -22t4 -34.5t8 -44t9 -46t7 -34.5q10 -12 26 -4t28 8t12 -19v-6q-12 -14 -25.5 -7t-26.5 7t-20 -12l2 -12q0 -23 -10 -45.5t-10 -39.5q0 -38 39 -75.5t65 -24.5q18 -23 42 -49t24 -57l-6 -23q-23 -10 -80.5 -15.5t-73.5 -18.5q-13 4 -75 4
t-89 20h-4q-16 0 -26.5 -12t-22.5 -12z" />
    <glyph glyph-name="I" unicode="I" 
d="M906.5 -49q-31.5 0 -42.5 -14q-27 24 -35 24h-51q-43 0 -61 6q-25 -8 -49.5 -17t-51.5 -7h-12q-22 39 -49 39q-7 -9 -32 -12t-31 -11l-46 2q-2 -14 -15 -14t-20.5 2t-17.5 -2l-20 33l-31 -5q-27 0 -49.5 14.5t-44.5 28.5l2 37q0 27 -21 35q0 23 19.5 31t32 12t20.5 10h12
q27 -4 47.5 11.5t40.5 31.5l41 -22q18 4 14.5 17.5t-3.5 21.5t4 16l16 -4q23 0 35 21.5t29 33.5q-26 33 -48 33q20 16 35 49t19 58q-10 20 -24.5 39.5t-12.5 42.5l37 32q-10 16 -4 34t6 36t-27 27q31 65 31 93q0 29 -15.5 39.5t-15.5 24.5l29 78q-6 24 -6 80t16 84
q-16 27 -40.5 20.5t-51.5 -14.5q-6 8 -8.5 43t-34.5 35q-25 0 -43.5 -14.5t-33.5 -14.5t-14 16.5t1 26.5t-12.5 23.5t-38.5 13.5t-48 -29q-18 37 -18 75t18 67l43 -6q18 20 42 27t49 18q14 -14 53 -31q8 12 23 12t27.5 -5t32.5 -8t34 25q11 -14 19 -14h47q40 0 54 -4l131 29
q16 0 26.5 -13.5t29.5 -13.5t63 29q23 -10 44.5 -16.5t43.5 3.5l15 -28q-12 6 -28 6t-21 -10q3 -25 27 -82t28 -74q-11 -27 -26 -27t-24.5 10.5t-23.5 10.5t-21.5 -26.5t-7.5 -39.5l-10 -2q-10 0 -13 21t-16 24q-20 -14 -43.5 -11t-39.5 -17q-23 -4 -34.5 5t-29.5 9l-16 -4
q-12 -27 -29.5 -51.5t-17.5 -53.5t30 -69q-6 -16 -19 -30.5t-13 -30.5q0 -20 23.5 -45t23.5 -42l-2 -6l-33 -20v-6q0 -21 21.5 -49.5t21.5 -41.5t-20.5 -32t-20.5 -39q0 -50 14.5 -103t40.5 -79q-14 -16 -14 -42t12 -43.5t27 -35.5q10 10 26.5 10t28.5 -6t29 -4l24 -31
q47 0 73 -20.5t45 -29.5t56 -9q23 0 23 -31q8 -14 2 -26.5t-6 -23.5t6 -14.5t12 -7.5v-18q4 -33 -18 -55l-29 8q-20 -6 -37.5 -18.5t-40.5 -8.5q-12 -10 -43.5 -10z" />
    <glyph glyph-name="J" unicode="J" 
d="M1217 1214v-26q0 -35 -23 -55.5t-47 -40.5v-41q-10 8 -9 20.5t1 26.5t-19 22q-20 -16 -49 -13t-54.5 4t-44 -9t-18.5 -51q-41 -20 -41 -44t12.5 -47.5t12.5 -48.5l-2 -18q-21 -3 -24 -30t-23 -27l-6 -33q6 -10 29.5 -16.5t23.5 -16.5q0 -23 -18.5 -42t-18.5 -42l21 -33
v-6q0 -16 13 -27.5t13 -24.5q0 -18 -32.5 -28t-32.5 -20t8 -23q55 -24 55 -50q0 -18 -7 -25t-21.5 -26.5t-14.5 -72.5q0 -7 -33 -106q8 -8 8 -26t-15 -38t-32.5 -40.5t-31 -43t-6.5 -53.5q-20 -14 -45 -20.5t-35 -34.5l2 -15q0 -14 -7.5 -25t-9.5 -26q-4 -4 -7 -3t-15 1
t-33 23h-12q-31 0 -62.5 -10.5t-62.5 8.5l-37 -27q-16 6 -30.5 14.5t-38 20t-54.5 4.5q-41 18 -77 52t-83 42q-27 45 -45 67.5t-34.5 52t-16.5 138.5q0 20 14 33q-4 14 10.5 28.5t19.5 22.5t-3 21q41 10 41 67q0 18 17.5 20.5t25.5 18.5q18 -4 35.5 -15.5t37.5 -11.5
t38 13.5t43 17.5q23 -49 23 -95t-11.5 -67.5t-24 -36t-22.5 -25.5t-8 -30q-6 -10 -18.5 -9t-21.5 1q-16 0 -23 -30t-7 -39t6 -21q16 -7 68.5 -54t91.5 5q39 -25 87 -25t89 25q6 22 30.5 35.5t36 22.5t15.5 26l12 6q2 6 6 23.5t8.5 36t8.5 33.5t4 30t-18.5 27t-28.5 28l39 12
l-2 7q0 16 12 28t8 29q12 43 6 87t1 54t10 12l17 18q15 15 15 23t-5 22.5t-17.5 51t-12.5 75.5q0 38 -20 62q4 12 4 24t-11.5 27t-2.5 35q-18 18 -7 29.5t25 23t14 31.5q0 42 -42.5 61t-77.5 19q-34 0 -43 10q-41 6 -71 35t-54 58q12 64 82.5 73t95.5 17q43 -8 86 -2t86 4
l37 -2l10 -13q18 -2 35.5 6.5t34.5 8.5l6 -2q31 -49 67 -49q10 0 34 11t36 15q37 -54 100 15q52 -42 52 -89z" />
    <glyph glyph-name="K" unicode="K" 
d="M98 1241l38 -18q8 0 47 28.5t50 32.5q14 -14 15.5 -31.5t17.5 -29.5h6q17 0 33.5 13t27.5 14t29 -13l11 -2q14 0 24.5 9t22.5 -3l22 25q12 -6 17 -30t16 -24l12 5q2 16 10.5 34.5t28.5 14.5l9 -49q-14 -8 -15 -27l6 -27q17 -14 17 -49l-2 -16q-12 -2 -17.5 8t-10.5 22.5
t-12 23.5t-26 11t-31 -28q-12 14 -34.5 13t-38.5 1q-45 -49 -45 -98q0 -15 20 -45q-16 -27 -16 -46q0 -20 15.5 -62t-5.5 -71q0 -23 16.5 -37t26.5 -30q20 4 37.5 -2t44.5 -6t32 20.5t7 45t10 45t42 20.5t43 17.5t11 36.5t7.5 34.5t27.5 11.5q27 20 26 33.5t-9 42.5l32 -6
q29 0 34 19.5t9 43.5q-8 16 -23.5 34t-15.5 30t5.5 26.5t13.5 30.5t14 29.5t10 17.5q18 -4 31.5 -15.5t34.5 -11.5h6q11 17 53 23l25 -25h6q23 -2 43.5 14.5t45.5 16.5t36 -29h8q16 0 25.5 16.5t27.5 14.5l33 25l21 -47l1 -60q1 -61 -22 -86l2 -16q0 -25 -6 -49l-8 -2
q-14 0 -29 23.5t-33 23.5t-31.5 -10.5t-37.5 -27.5t-53 -3q-21 -9 -67.5 -60t-55.5 -45q-24 -24 -27.5 -63t-8.5 -60.5t-24 -35.5h-6q-13 0 -21.5 20.5t-14.5 20.5t-15 -9q0 -16 -2.5 -68.5t45.5 -66.5q0 -30 21 -73.5t18 -71.5l20 -41l9 2q27 0 46 -34t31 -40
q4 -16 4 -77.5t56 -61.5q14 0 21 -11.5t18.5 -31t38.5 -2.5q18 -6 13 -20.5t-5 -29t14 -20.5l21 -30l10 -3q10 0 13 11.5t13 11.5l13 -4q9 -26 30 -29.5t32 -6.5t26.5 -23.5t15.5 -110.5l-4 -37q-28 14 -43 8l-68 -20q-14 12 -26 28.5t-35 14.5q-10 -10 -28 -10t-54 12
q-14 -6 -45.5 -0.5t-46.5 -9.5q-46 32 -59 29t-23 -8t-33 -5t-32 27q18 48 0 77l8 43l26 -2l31 17q12 18 12 40q0 30 -29.5 77t-29.5 80q0 34 -11.5 56.5t-25.5 41t-29.5 40t-21.5 58.5q-20 23 -32.5 50.5t-43.5 37.5q-12 -4 -18 -15.5t-17 -26.5t-37 3q-29 -14 -37 -36.5
t-11 -44t-11 -37t-32 -15.5t-25 -23l12 -233q0 -47 28.5 -66.5t62.5 -31t62.5 -21.5t28.5 -36.5t-17.5 -44t-19.5 -44.5q-18 4 -31 21.5t-31 17.5t-60 -24l-50 20q-18 -6 -22 -27.5t-7 -30.5t-15 -9t-21.5 19t-27 51t-64.5 -11q-16 23 -34 18.5t-40 -4.5l-25 6l-6 60
q23 6 49.5 18t30.5 41q84 41 84 107q0 18 -10 32.5t-10 30.5l4 19q28 23 28 65t-32 92q32 45 32 422q0 16 -12.5 52.5t-30.5 54.5q23 12 19 32l-4 60q-12 7 -32 36t-36 29q-22 0 -36 -25.5t-24 -25.5q-8 0 -18 30t-10 50q0 21 12 45z" />
    <glyph glyph-name="L" unicode="L" 
d="M827 -86q-15 0 -29 17.5t-22 25.5t-20 8q-18 29 -57 29q-38 0 -54 -6t-14 -41q-66 55 -172 80q-14 -16 -32.5 -16.5t-38 0.5t-37 -2t-25.5 -25q-16 4 -28.5 13t-29 9t-29 -14.5t-25.5 -14.5t-35.5 18.5t-78.5 18.5q-22 0 -22 25q0 12 10 21.5t10 21.5t-30 35
q33 33 29.5 47t-3.5 33l15 10q2 -6 4 -17.5t5.5 -31t18.5 -19.5q78 0 105.5 16.5t39 27t29.5 14.5q4 16 9.5 30.5t5.5 30.5l-4 18q-27 27 -27 41l4 15q29 17 29 57q0 14 -22.5 33.5t-22.5 30.5q0 10 10 17t10 29t-14.5 39.5t-14.5 35.5t13.5 23t23.5 9l15 43
q-10 18 -22.5 37t-12.5 38t10 30.5t10 28.5t-6 34q-12 6 -10 37t6 47.5t4 22.5l-16 41q-27 10 -37 34.5t-19.5 46t-26 29.5t-59.5 -12q-38 20 -49 84q12 24 17.5 76t13.5 71l33 2q10 -16 3 -35.5t-7 -33.5q0 -24 26 -29q8 6 21.5 10t33.5 12t13 35q10 0 18.5 -13t13.5 -20.5
t17 -7.5h8l17 21l28 -27q12 6 27.5 7.5t40 6.5t24.5 35q13 13 49 13q49 0 86.5 -34t51.5 -34t29.5 10.5t22.5 17.5l38 38q-4 41 -33 67q14 14 34.5 9t37.5 12h6q43 0 30.5 -48t-12.5 -58t12.5 -32t12.5 -58t-9 -73.5t-1 -78.5q-18 -22 -47 -17h-6l-25 39
q-27 -16 -56.5 -28.5t-45.5 -40.5l-23 6l-37 -13l-12 47q-10 4 -20.5 17.5t-20.5 13.5t-19 -6q-2 -14 -19 -17t-17 -13t6 -15l24 -6q-8 -8 -27.5 -57.5t-19.5 -64.5q0 -17 13.5 -32t13.5 -50t24 -42l2 -31q-10 -14 -24 -3.5t-27 10.5q-8 0 -8 -15l2 -14q22 -14 25.5 -45
t6.5 -47.5t19 -26.5v-6q0 -4 -24.5 -30.5t-24.5 -96.5l12 -12l-22 -45q-55 -7 -70 -29l21 -27q-6 -25 -24.5 -45t-18.5 -49q0 -13 63.5 -56.5t67.5 -45.5q14 8 27.5 2t27.5 -6t19 20q29 14 58.5 14t57.5 13l17 -4q23 0 37 14t31 14t33.5 -6t29.5 -10l16 -33q83 35 98 74
t15 47v96q0 18 22 31q-3 21 15 32t29.5 17t19.5 14l-8 54q0 12 10 20t20 6l13 4q16 0 24 -12t25 -10q10 10 26 10t27.5 -21.5t30.5 -29.5q2 -17 24.5 -50t22.5 -48l-23 -37l2 -31q2 -20 -12 -47q4 -27 -4 -67t-10 -68l22 -21l-30 -8q-4 -10 -12.5 -20.5t-19 -28t8.5 -33.5
q-6 -6 -36 -47.5t-46 -46.5q-44 38 -129 57l-31 -20l-41 8l-36 -43h-7z" />
    <glyph glyph-name="M" unicode="M" 
d="M940 862q0 12 13.5 25t13.5 40t-31 81v4q0 16 -9 38.5t-30 22.5q-33 0 -30 -51t3 -84t-20 -55q-4 -31 -15.5 -58t-11.5 -53t11 -51q-21 -21 -31 -21q-2 -12 -2 -15v-32q0 -27 11 -50t11 -46t-18 -27q16 -72 16 -91t-11 -32.5t-22 -27.5q0 -138 17 -213q-17 -4 -17 -20
t6.5 -26.5t6.5 -25.5q25 25 22 43q-10 9 -10 17t20.5 9t23.5 15t10 18.5t14.5 6.5t15.5 4t14 10q11 -12 21 -12t14 4q12 41 8 72t-4 59t6.5 40.5t-4.5 27.5q12 29 6 55t-6 55q13 13 13 74l-21 207q14 21 14 30v9q-18 12 -18 24zM92 1176v-7l-8 7h8zM1075 519l-20 -261
q0 -47 6 -63.5t10 -32.5q20 -2 72 -33t71 -20q39 -45 39 -105q0 -22 -10 -47h-29q0 55 -33.5 55t-58 -11t-47.5 7q-12 -5 -26.5 -29.5t-34.5 -21.5q-17 27 -60 47q-20 -10 -52 -10t-69.5 22.5t-72.5 22.5t-52.5 -19.5t-36.5 -19.5t-32 16q-16 4 -35.5 -3t-50.5 -10.5
t-31 67.5q0 28 27 77l-33 43q16 27 16 62t-17 74.5t-17 69.5t-10.5 48.5t-26 48.5t5.5 50q-4 27 -5 53.5t-16 48.5v14q0 48 -26 68q10 31 10 50t-16 63l-45 20q16 10 16 34t-11.5 52.5t-35.5 38.5l-39 -18q-2 -68 -5 -138.5t-3 -122.5t18.5 -82t34.5 -63q-21 -24 -13.5 -66
t5.5 -63.5t-23 -38.5l-4 -24q0 -18 19 -60t16 -65q10 -15 12 -43.5t7.5 -41t21.5 -17.5t31.5 -9t36 -14t20.5 -34q0 -25 -7 -38.5t-13 -26.5q-29 -2 -44 -12t-43 -10t-41.5 -4t-27.5 -8q-5 -16 -25 -16q-23 -1 -64 20t-61 12q-56 24 -62.5 30.5t-11.5 17.5t-30 42
q12 35 49 55h6q20 -3 58 15q6 37 25.5 67.5t21.5 67.5q-24 24 -14 64t11 64t-18 42l-2 25q0 37 12.5 71.5t4.5 71.5q8 12 2 33.5t-4 41.5t8 43t6 43t-14 40q6 31 2 63.5t12 61.5q-12 16 -9 37.5t-14 37.5v13q0 78 -22.5 112.5t-100.5 34.5q-43 0 -43 27.5t46 62.5l26 -4
q29 0 40 17.5t17.5 25.5t19.5 8t27.5 -11t30.5 -15q11 -16 73 -31.5t69 -1.5q25 -6 33 -21.5t12 -35l8 -39t18 -33.5q-2 -16 6.5 -32.5t8.5 -33t-10.5 -28t-10.5 -33.5t8.5 -39.5t6.5 -40.5q31 -12 35.5 -40t11.5 -54q-17 -23 -17 -46q0 -24 5 -35l66 -132q61 -121 40 -164
q12 -17 12 -39t-3 -34.5t-6 -24t-3 -25.5t8 -39q10 -5 19 -24.5t26 -16.5q29 33 29 135q0 23 -11.5 42.5t-11.5 41.5l2 13q22 6 29.5 30.5t13.5 35.5t23 13q6 12 8.5 42.5t30.5 41.5v7q0 20 6 34.5t13 38.5t-1 48t-8 27v42q0 68 31 123q-6 20 -6 50q0 69 47 116q2 16 0 33.5
t-2 45.5t12 34t28.5 1.5t36 -8.5t31.5 13q14 -18 39 -18t45.5 19t46.5 19q38 -28 65 -24t34 18l38 -25q-2 -12 0.5 -47t-38.5 -35q-12 -16 -30 -8t-31 8q-24 0 -59.5 -88.5t-35.5 -123.5t8 -49.5t20.5 -37t0.5 -106.5q35 -18 15 -65t-20 -67t16.5 -41.5t16.5 -73.5z" />
    <glyph glyph-name="N" unicode="N" 
d="M874 694v90q0 89 -45 119q-2 16 3.5 31.5t5.5 32.5q0 59 -41 93t-95 27q11 13 4.5 40.5t-3.5 40t27 20.5t39 18t15 38t-10 46.5t-10 37.5t6 28q8 -14 32.5 -68.5t71.5 -54.5h71q71 0 87 29l27 2q37 0 69.5 -33t32.5 -59q0 -49 -36 -102t-66 -46q-4 -16 -15.5 -29.5
t-30.5 -41t-16 -68.5q15 -24 15 -74v-18l-35 -33v-6q0 -14 63 -119l13 -21q-6 -20 -11.5 -41.5t7.5 -40.5q-39 -92 -39 -126t17 -46t17 -33t-28 -38q4 -47 2 -81t-2 -66t11 -47t11 -35q0 -28 -37.5 -56.5t-37.5 -58.5q-20 -10 -38 -21.5t-40.5 -11.5t-27.5 31.5t-9 62.5
t-17.5 47.5t-50.5 -14.5q-8 20 2.5 36.5t10.5 34.5t-9.5 26.5t-18.5 18t-15.5 18.5t2.5 24q-23 66 -78 92q-4 23 -2 45t2 59.5t-37 65.5q-53 0 -46 35.5t7 69.5t-28.5 73t-82.5 29l-8 45l33 30q-14 14 -24.5 35t-27 53t-48.5 50l-33 -19q2 -23 10 -42t12 -40q-23 -6 -49 -9
t-37 -28l25 -36l39 4q4 -14 15.5 -25.5t11.5 -28t-17 -26.5q-6 -20 -26.5 -34.5t-18.5 -35.5v-6q42 -12 49 -39q-10 -14 -23.5 -29.5t-13.5 -34.5t13.5 -33t13.5 -27t-12.5 -31.5t-12.5 -45.5l4 -123q0 -16 23 -35.5t37 -19.5t28.5 9.5t26.5 13.5l37 -43q12 -4 23.5 2
t23.5 6q38 0 17 -51.5t-43 -55.5q-35 -50 -86 -57q-32 39 -60 39q-27 0 -55.5 -11.5t-77.5 -6.5l-10 -15q-16 6 -29.5 18.5t-32.5 8.5q-6 -15 -32 -15q-46 0 -46 15v80q-4 6 -4 18t9.5 26.5t22.5 14.5t23.5 -16.5t28.5 -16.5t29.5 26t17.5 42q39 20 39 51t-15 44t-15 33
t12 27t12 37t2.5 189t-20.5 254q-31 31 -31 55t16.5 46t16.5 42q0 44 -21 93.5t-53 49.5h-6q-8 -20 -27 -20l-51 68l-43 -15q-8 14 -8 30t6 21t14.5 2.5t17.5 -6.5t17 -4t18 34.5t66 78.5q0 -6 5 -16.5t14 2.5q8 -18 25.5 -22.5t31.5 -14.5q48 8 58 8h75q60 -47 80 -76
q-12 -35 -12 -49t14 -35h35q4 -12 15 -72.5t28 -72.5q-6 -10 -6 -24q0 -21 35.5 -47.5t35.5 -53.5q10 -10 17.5 -32.5t24 -61.5t46.5 -33l-26 -23l18 -32q24 0 36.5 -21.5t21 -33t22.5 -13.5q29 -31 35 -56.5t-2 -66.5l35 -14q32 11 32 55l-4 49q-25 8 -21.5 36l5.5 44
t-8 29v14q28 27 28 51z" />
    <glyph glyph-name="O" unicode="O" 
d="M932 752q0 39 -8.5 52t-18.5 17t-20.5 8.5t-14.5 24.5q-14 12 -46 12q-31 0 -40 6l11 17l32 -2q21 -4 21 31l-2 26q-33 23 -60.5 50.5t-62.5 45.5h-16q-29 -2 -46.5 14.5t-27 24.5t-23.5 8t-35.5 -12t-21.5 -23t8 -15.5t8 -12.5t-10 -8q-31 6 -60.5 19.5t-62.5 15.5
q-10 -8 -21.5 -18.5t-2.5 -26.5q-4 -25 -14 -23t-30 2t-26 -7t-4 -16.5t6 -20.5t4 -27t-21.5 -24.5t-41.5 -2.5q-30 -23 -18 -51.5t16 -44.5q-27 -14 -27 -45v-34q0 -33 12.5 -40.5t30.5 -16.5q4 -12 4 -18t-21.5 -9t-25.5 -5q-6 -9 -6 -23t7 -24.5t16.5 -18.5t17.5 -13.5
t8 -15.5t-8 -18t-8 -21q0 -20 21.5 -17t31.5 5l4 -12l-12 -43q0 -10 21.5 -62.5t21.5 -76.5q-6 -3 -6 -15t7 -18t18 -7t22.5 1t19.5 2l8 -2v-8q0 -16 23.5 -29t23.5 -27q14 -10 29 -10t29 20l39 5q27 2 33 -12.5t16 -14.5q54 0 73 23.5t27 32.5t27 5q12 8 25.5 18.5
t9.5 28.5q23 23 41 51.5t55 30.5q4 4 4 12t-10.5 13.5t-14.5 9.5l7 33q27 8 26.5 28.5t-12.5 37t-12 34.5q0 26 41 39q12 25 12 55t-17 52q-10 4 -25.5 3t-19.5 13q8 6 16.5 12.5t18.5 1.5q27 11 27 50zM1108 678.5q0 -19.5 6 -37.5q-14 -16 -11 -33.5t3 -29.5t-10.5 -24.5
t-10.5 -37.5t17 -51q-8 -12 -8 -27.5t1.5 -40t-24.5 -39.5q-15 -18 6 -47q-12 -16 -31.5 -25.5t-17.5 -31.5q-20 -8 -21 -24.5t-1 -42.5t-15 -42q4 -26 -22.5 -51.5t-43 -39t-24.5 -21.5l14 -37q-45 18 -87 18t-47 -8t-8.5 -24.5t-17.5 -16.5q-13 0 -23.5 10.5t-20.5 10.5
t-63 -9t-60 -2l-37 -38q-17 0 -41 21t-45 15q-20 16 -46 23.5t-34 36.5q-32 3 -70.5 30t-60.5 31q-6 18 -34 117.5t-79 110.5q4 16 12.5 31.5t8.5 25.5t-7.5 23.5t-9.5 17.5q-28 4 -20 28.5t6 34.5q6 12 6 29t-13 32t-13 35t20 35l2 17q0 25 -11 46t-11 46t12 46.5t12 49.5
t17 41q-8 31 14 62.5t32.5 50t6.5 43.5q8 10 10 23.5t5.5 34.5t33.5 28q6 14 30.5 30.5t33 26.5t8.5 29q29 16 56.5 26.5t47.5 36.5l12 -2q14 0 15.5 6.5t6.5 17t66 -2.5q18 16 24 16h66q60 0 76 47l6 -61l37 -31q23 -3 56 33v-6q0 -29 22.5 -46.5t35.5 -26.5t24 -21l47 -3
q12 -12 20 -26.5t16.5 -29.5t16.5 -30.5t22 -25.5q-4 -10 -4 -40t45 -87q23 -4 24 -20.5t1 -41.5t18 -32q-16 -21 -16 -39l4 -17q34 -17 35.5 -50.5t1.5 -53z" />
    <glyph glyph-name="P" unicode="P" 
d="M428 109l2 -29q0 -31 39 -31q-4 20 -7 44t-24 34q-10 -6 -10 -18zM647 757q-1 9 11 9t14 -6t8 -18.5t29 -12.5q24 0 37.5 12.5t24.5 29.5t20.5 35.5t21.5 31.5q42 7 59 71q-16 35 -35.5 71t-54.5 54h-10q-23 -2 -40 9.5t-40 15.5q-8 -4 -24 -4t-28.5 12t-41.5 4
q-16 16 -38.5 18.5t-45.5 4.5q-6 -6 -16.5 -15.5t-28.5 -28t-18 -32.5t17 -29.5t17 -24.5t-6 -9.5t-11 3t-11 3.5q-4 -20 -4 -39t11 -35.5t11 -38.5l-10 -74q20 -12 53 -16q12 18 32 18t37 -21.5t39 -21.5t21.5 7.5t-0.5 16.5zM754 1294q12 0 19 -8t21.5 -27.5t36.5 -19.5
l13 2q6 10 4 23.5t-2 27.5t12 15l14 -2q12 -18 31 -37t8 -45q8 -16 26.5 -18.5t35 -3.5t27 -9t1.5 -37l15 -27l-33 -14v-8q0 -15 33 -23q12 -23 22.5 -28.5t22.5 -14t18 -59.5l2 -39q26 -13 27.5 -39t1.5 -42.5t8 -29.5l-28 -32v-4q0 -15 -15 -35.5t-10 -36.5
q-16 -14 -31.5 -29.5t-17.5 -38.5q14 -14 14 -34l-4 -15l-18 2q-25 0 -34 -12t-35 -40t-120 -28q-20 0 -45 -10l-12 -16q-17 17 -40 14q-22 -4 -47.5 -8t-47.5 -14l-41 24l-19 -10q-8 -16 0 -26.5t8 -22.5t-6 -19h-6q-18 0 -38.5 36.5t-24.5 49.5l-8 2q-33 0 -42.5 -15
t-8.5 -36.5t8.5 -45t7.5 -46.5t-27 -43q14 -47 14 -78t5.5 -48t27 -24.5t80.5 -7.5q16 0 27 -22q16 4 31.5 13t31.5 7h6q10 -16 25.5 -24t28.5 -23q-2 -8 -5.5 -18.5t-1.5 -18.5l15 -49q12 6 28.5 6t16.5 -12l-4 -20q-14 10 -32 10t-16.5 -12.5t1.5 -22.5t-9.5 -25.5
t-29.5 -15.5t-40 16.5t-44 16.5t-32.5 -18.5t-14.5 -34.5q-9 2 -13 16t-7 20.5t-18 6.5t-28 -15.5t-29 -15.5t-21 10t-12 32.5t-28 22.5q-12 0 -23.5 -7t-31 -17.5t-37.5 4.5q-16 -4 -30.5 -14.5t-31.5 -10.5l-12 2q-18 23 -41.5 20t-48.5 -3t-37 22.5t-12 42.5l16 29
q76 18 154 70h20q6 12 16.5 21t28 25.5t17.5 37.5q0 20 -10.5 38.5t-10.5 35.5t11.5 26.5t7.5 25.5l-15 66l-16 6q18 41 18 86t-3 83t1 79q-16 24 -16 283q0 53 -28.5 87.5t-86.5 34.5q-12 0 -26 -28.5t-21 -32.5q6 12 6 28t-6 23q-29 8 -49 45.5t-20 57.5t7 26t15 12.5
t16.5 12.5t8.5 16l8 2q14 0 24.5 -17.5t27.5 -17.5t24.5 9.5t10.5 21.5t5 25.5t8 21.5q10 -6 12.5 -20.5t8 -38t34.5 -23.5q18 0 21.5 7.5t16 22t83.5 11.5l29 33q25 -12 52.5 -14t49.5 -19q16 4 32 -2t34 -6t29.5 26.5t21.5 43.5q24 -38 60 -45q12 6 24.5 16t24.5 10z" />
    <glyph glyph-name="Q" unicode="Q" 
d="M891 786h-6q-2 0 -2 2l8 3v-5zM635 270q-14 0 -26.5 -16t-37.5 -16t-24 28q0 12 8 33l-12 18l-13 2q-23 0 -29.5 -12t-9 -29.5t-4.5 -36t-12 -30.5q10 -12 14.5 -25.5t12.5 -31t17 -17.5l118 -16q35 0 41 39q-8 8 -8 22l8 45q0 16 -14.5 29.5t-28.5 13.5zM864 29
q-26 0 -26 -40t15 -40t24 14l4 62l-7 4h-10zM963 47q0 47 -25 47q-12 0 -25.5 -19.5t-13.5 -31.5t10.5 -22.5t21.5 -10.5t21.5 7.5t10.5 17.5v12zM276 866h-6q-2 -2 -2 -12t7 -10t8.5 5t5.5 9q0 8 -13 8zM897 721q25 31 25 37t-14.5 36.5t-14.5 58.5t-6 52
q-16 12 -33.5 23.5t-24.5 34.5v8q0 8 -7 14t-11 10l-10 2l-47 -10q-14 0 -17.5 21.5t-7.5 32t-18 10.5q-23 -16 -47.5 -18.5t-47.5 -18.5q-12 10 -30.5 13t-26.5 20q-22 2 -41.5 14t-33 15t-38.5 -5q-10 19 -22 19t-14 -5.5t0 -11.5t4 -13t4 -9q-4 -23 -4 -45.5t-11 -42.5
h-4q-16 0 -17 15t-7 26l-23 -5q0 -12 -17.5 -15t-17.5 -15l11 -37q0 -18 -8.5 -33.5t-16.5 -32.5q14 -16 14 -47t-15 -58.5t-21 -55.5q13 -10 15.5 -39t16.5 -40t14.5 -27.5t-14 -31t-18.5 -30.5q12 -29 16 -61t27 -54h4q13 0 18.5 16.5t18.5 16.5q14 0 14 -7l-4 -59
q0 -12 15.5 -12t23.5 -2q6 27 29.5 36t46.5 15q29 -10 54.5 -4t48.5 6q34 0 50 -23.5t33 -17.5q16 -27 44 -32t52 -19q0 33 25 49q28 -23 37 -23q10 0 18 9q24 16 19.5 40.5t-8.5 37.5q-15 15 -15 26t31 22.5t31 28.5v4q-6 4 -13.5 8.5t-7.5 13.5t20.5 29.5t20.5 45.5
t-18.5 47t-28.5 47zM631 1083.5q0 20.5 -12.5 30.5t-23.5 10t-21.5 -10t-10.5 -25t19.5 -21.5t33.5 -10.5q15 6 15 26.5zM688 -199q0 37 -20 43q8 12 8 26t-7 31t-5 38q-61 35 -136 20q-16 18 -51 29.5t-51 19.5t-27 27q-25 10 -53.5 20.5t-32.5 40.5l-47 35v6
q0 18 -17.5 39t-24.5 33t-1 29q-78 54 -78 278l-4 39q4 5 4 36t19 40q12 23 -1 47t-13 47t28 35q2 27 8.5 53.5t-2.5 52.5q6 16 16.5 32.5t24 42.5t2.5 58l72 127q23 0 42 13.5t51 38.5t69 16q12 25 33.5 42t40.5 38q56 -8 61 -8q6 0 23.5 8t25.5 10q6 14 -4 21.5t-10 15.5
t10 18l27 -16l-9 -33q12 -16 34 -21t40 5l35 -6q2 -12 22.5 -24.5t46 -28t48 -36t26.5 -53.5q73 -61 98 -108t21 -62q19 -19 13.5 -45.5t18 -70.5t23.5 -64t-15 -37.5t-15 -42.5l2 -6q14 -10 19 -29.5t9 -35.5q-16 -37 -25 -49.5t-12.5 -22.5t1 -27.5t14.5 -62.5l-27 -47
q23 -41 -8.5 -102.5t-34.5 -88.5l-35 -26q6 -18 4.5 -40t8.5 -40q16 -4 21 -4h50q53 0 88 -51t35 -96q0 -44 -24 -68l6 -78q-20 -2 -24.5 -22.5t-18.5 -30.5q-2 -7 -49.5 -65.5t-61.5 -63.5q-36 20 -78 24q-42 -12 -63.5 -12t-92.5 56t-71 93z" />
    <glyph glyph-name="R" unicode="R" 
d="M582 1055q-14 0 -27.5 19.5t-34.5 23.5l-53 -72q-8 6 -22.5 20.5t-24.5 14.5t-20.5 -12.5t-20.5 4.5q-36 0 -48 -55.5t-12 -81.5t21.5 -55.5t38.5 -63.5q-4 -10 -13.5 -9.5t-19.5 0.5t-10 -26t15 -26l65 1q4 2 10 2l43 -12l63 10q26 0 35 11l13 2q12 0 23 -4.5t22 -8.5
q15 -20 33 -20h52q51 0 62 16q29 4 46.5 27.5t45.5 34.5q25 32 58 57q-11 141 -84 188l-21 -4l-10 8q-13 30 -56.5 32.5t-56.5 10.5q-12 -4 -14 -4l-51 11q-21 0 -21 -31q-12 -8 -26 -8zM379 274q0 -14 -10.5 -34.5t-10.5 -35.5q0 -24 35.5 -57.5t57.5 -33.5t32.5 13
t32.5 13t38.5 -23.5t37.5 -39.5l45 8l12 -37q-12 -4 -25.5 -1t-27.5 3t-20.5 -9t-7.5 -22.5t1 -28t2 -24.5q0 -29 -22.5 -31t-42.5 -2q-21 37 -49 37l-6 -2l-29 -47l-25 -6q-22 0 -47 26.5t-45 26.5q-30 0 -61 -23.5t-54 -23.5q-33 0 -50 44.5t-34 53.5l9 41l8 -2
q36 0 37.5 26t0.5 42t5 29q12 -7 29.5 -35.5t35.5 -28.5t29.5 14t11.5 34t-10 45.5t8 47.5l-28 224q18 37 18 70t-11 50t-11 35t10 32.5t10 36.5t-17.5 43t-17.5 48t27 41q-21 51 -21 156q0 33 -32.5 56.5t-52.5 23.5t-33 3t-9 19q19 28 1.5 44.5t-17.5 33.5q0 39 37 55.5
t70 7.5q7 26 43 37q13 -4 29 -29.5t38 -25.5l12 4q13 47 42 47q28 0 38 -26q20 0 41.5 26.5t33.5 26.5q13 0 32 -29q25 18 52.5 15t55.5 -7q10 12 24 26.5t32 14.5t25 -9t21.5 -23.5t69.5 10.5q20 -12 46 -16.5t65.5 -14.5t56.5 -55q127 -98 127 -262q0 -59 -17.5 -106.5
t-17.5 -106.5l-2 -13q-32 13 -40 13q-7 0 -17 -17.5t-20.5 -40t-17.5 -43t-7 -29t5 -18.5t7 -20q33 -12 31 -34t-2 -42t12.5 -31.5t24.5 -13.5q10 -16 9 -37t-1 -35t3 -23.5t5 -19.5q14 -8 36 -38.5t44 -33.5q10 25 31 25q8 0 15 -20.5t11.5 -32t17.5 -15.5t30.5 -17
t33.5 -9q10 -10 6 -26.5t-4 -26.5q0 -20 23 -25l33 -31q-34 -34 -29 -55l-14 -25l6 -26l-35 45q-6 -2 -26.5 -5t-63 -9.5t-53.5 -2.5l-43 -34q-14 14 -33 22t-52 22.5t-44 47.5q-65 31 -84 86l26 71q-24 27 -26 81.5t-8.5 81t-28.5 44.5q-14 59 -82.5 97t-128.5 38l-19 5
q-15 38 -76 38t-74 -15t-20.5 -28.5t-23.5 -27.5q0 -33 9 -62.5t7 -60.5v-6l-31 -33q0 -20 8.5 -37t8.5 -31z" />
    <glyph glyph-name="S" unicode="S" 
d="M868 -12v-8q0 -5 2 -5q0 -4 -4 -4h-2l-6 2v4q0 10 8 11h2zM829 766q18 0 29 -25l8 2q35 0 62.5 -31.5t44.5 -37.5l88 -115q4 -43 25.5 -80t21.5 -63t-2 -36l-4 -20q-23 -18 -20 -44.5t-9 -49.5v-14q0 -35 -22 -68q0 -59 -29 -75q4 -25 -35 -25q-2 -23 -14 -32t-41 -22
t-37 -34q-20 -8 -37 14q-20 -10 -32.5 -30.5t-34.5 -28.5q-17 20 -47 20t-56 -6t-51 4l-35 -32q-18 12 -31.5 30.5t-38.5 22.5q-16 -6 -34 -6l-29 4q-14 20 -32.5 47.5t-38.5 27.5t-30 -9t-21 -9t-11 21l-60 4q-11 -28 -43 -47t-46.5 -31t-20.5 -35q-17 0 -22 15.5t-7 25.5
t-8 16q26 42 31.5 128.5t5.5 107t-12.5 37.5t-12.5 35t11 28q4 31 5 61.5t9 61.5l27 6q6 -4 19 -27.5t30 -23.5h6l22 33q2 -45 11.5 -81t9.5 -68t9 -44t30.5 -33.5t23.5 -39.5q33 -12 41 -42t27 -55l33 27q14 -4 27.5 -15.5t28.5 -11.5t21 4q23 39 46 33q18 -23 45.5 -27
t54.5 -10q7 24 20 19.5t20.5 -9t29.5 -4.5t40.5 25t47.5 41q4 27 22.5 43t39 32.5t36.5 37t16 51.5t-17.5 57.5t-14.5 59.5q-73 143 -175 143q-20 0 -37.5 17.5t-34.5 17.5t-39 -18.5t-44 -26.5q-10 14 -19.5 29.5t-25.5 21.5l-29 -21l-8 -34l-33 -19q-6 12 -8 26.5t-5 34.5
t-36 31q-18 -15 -29 -65q-16 4 -19 23.5t1 31.5q-14 16 -20.5 37.5t-30.5 26.5l-13 -5q-18 0 -33.5 14.5t-35.5 4.5q-47 69 -69.5 118.5t-37.5 80.5q27 57 27 112q20 20 34.5 48t39.5 72.5t79 53.5q10 24 45.5 37t47.5 25h6q23 0 40 25.5t33 39.5l21 -41q16 -8 26.5 -25.5
t30.5 -17.5l6 2q14 16 34 21.5t40 11.5q31 -39 82 -39t74.5 10.5t40 21.5t30 21.5t26.5 10.5q32 0 54 -11.5t19 -33.5q-4 -6 -4 -18t3 -19.5t-3 -18.5q6 -12 6 -16v-40q0 -36 26 -46q-18 -31 -30.5 -142.5t-14.5 -129.5q-14 -7 -25 -7q-18 0 -37.5 37.5t-35.5 44.5
q-25 74 -63.5 106t-80.5 48t-84 29.5t-73 52.5q-25 -2 -31 -24.5t-12 -41.5q-14 4 -21.5 16.5t-21.5 34t-39 21.5q-10 -23 -26.5 -42t-8.5 -48l-26 -23q-20 4 -15.5 19.5t4.5 26.5t-6 12l-14 -2q-26 -54 -2 -125q-13 -8 -25 -37.5t-24 -36.5q15 -5 27 -25t19 -30.5t19 -14.5
l41 39q15 -7 22.5 -33t18.5 -26q16 0 25.5 10t32.5 10l20 -4q4 -6 12.5 -41t30.5 -35q16 0 37.5 12.5t38.5 18.5q16 -4 25.5 -16t20.5 -12t16 8t11.5 19t10.5 22.5t6 15.5q12 -7 14 -32t6.5 -34.5t20.5 -9.5t31.5 14.5t33.5 14.5z" />
    <glyph glyph-name="T" unicode="T" 
d="M838 61v-8h4q4 4 4 6l-6 2h-2zM676 885q-33 0 -33 -41q0 -26 28.5 -46t28.5 -40q0 -21 -17 -34t-17 -35.5t16 -35.5t16 -37t-6 -42.5t-16.5 -51t-1.5 -59.5q-12 -18 -12 -45l4 -51q19 -12 21.5 -45.5t12.5 -47.5l-2 -12q0 -20 11 -45q23 -8 41 -12t30 -25q13 40 41 37
q7 -6 23 -6t34.5 9t27.5 9t13.5 -13t2.5 -26q-24 -31 -4 -51q23 -2 19.5 -19.5t-3.5 -33.5t12 -25q-8 -23 7.5 -40t15.5 -34t-12.5 -39t-16.5 -32q-28 20 -72 10t-66 -10t-41.5 21.5t-45.5 21.5q-100 0 -113 -29q-29 8 -69.5 6t-59.5 11q-7 33 -25 33t-35.5 -21.5
t-21.5 -36.5q-27 27 -41 25h-6l-29 -29l-28 111q0 14 5 28.5t11.5 36t-10.5 45.5l18 43q8 -6 13.5 -19t18.5 -38t54 -25q3 0 50 37t68.5 57.5t21.5 28.5t-9.5 24.5t-9.5 36.5t10.5 41t10.5 41t-11.5 38t-15.5 36q27 25 37 58q-10 23 -24.5 44t-12.5 48v6l33 25
q-6 14 -14.5 56.5t-51.5 47.5l6 20l13 -2q19 0 30 26t17 32l2 8q0 16 -24.5 32t-24.5 28q0 11 7 16.5t14 11.5q11 9 -1 38.5t10 43.5q-10 10 -15 31.5t-11 42t-15 36t-37 15.5t-65 -15.5t-74 -19.5l-18 -33q14 -42 14 -49q0 -25 -39 -43q37 -49 37 -71q0 -21 -6 -33l-37 -17
q17 -46 51 -59q-4 -28 -49 -39q-25 8 -51.5 3t-48.5 9v11q0 18 -26.5 46t-26.5 41q0 16 20.5 38t20.5 46t-16.5 43.5t-16.5 39.5t10 30q-7 20 9.5 57.5t6.5 57.5q16 16 13.5 34.5t-2.5 35.5l22 34q12 -24 35 -17t47 11t33 4h69q12 0 23 6q86 -7 186 15q18 -14 35 -15l107 9
q49 0 90 13t94 5q23 10 57 10h15q10 -12 20 -23.5t29 -13.5q6 -10 15 -17t20 -19.5t-2 -36.5q16 -14 18 -35t6 -35t12.5 -21.5t16.5 -13.5t15 -14t7 -20t-18.5 -25.5t-15.5 -28.5l12 -59q22 -22 22 -33.5t-10 -21t-18 -17.5q14 -18 14 -41t-10 -47.5t6 -48.5h-6
q-21 0 -31 -19.5t-16.5 -28.5t-24.5 -9t-35.5 9t-38.5 1q-14 18 -29.5 37.5t-15.5 46.5l-26 43q26 36 26 67t-15 36t-40 5t-25 15v12l43 8q23 34 23 54t-13.5 31t-31.5 20.5t-37.5 15.5t-30.5 14q-35 0 -71 -18q0 -24 -38 -49t-46 -31q6 -12 8.5 -48t34.5 -44q10 6 8 16.5
t-2 18.5t6 8q20 0 21 -21q0 -16 -7 -30z" />
    <glyph glyph-name="U" unicode="U" 
d="M1169 1155q0 -29 -22 -43v-45q-9 10 -25 10t-29.5 -6t-29.5 2q-35 -12 -43 -36.5t-7 -54.5t2 -62.5t-11 -59.5q20 -26 23 -163t9 -167q-18 -29 -8 -58.5t10 -51.5t-20 -51q-6 -16 5 -45.5t11 -41.5q0 -13 -6 -32t-8 -35q-34 -18 -39 -76t-30 -83q-24 -26 -46 -59.5
t-45 -68.5q-26 21 -45 21l-14 -6q-20 0 -36.5 -15.5t-37.5 -15.5q-23 20 -39 25.5t-51 5.5t-57 -25l-11 2q-16 0 -25 -10t-26 -10h-6q-8 35 -125 103.5t-135 64.5q-16 25 -27.5 52t-38.5 44q28 58 7 115t-11 98q-14 19 -14 37t20 67.5t17 65.5q-14 53 -13 113.5t-4 119.5
q7 7 13 106t6 107q0 21 -20 74t-36 53q-15 0 -20.5 -7t-8.5 -16.5t-6 -17.5t-14 -8q-37 59 -36 121l4 43q12 10 23 22.5t25 12.5t20.5 -7.5t13 -14.5t12.5 -14t16 -7h8q24 30 45 30l13 -2q8 -18 28 -18t32.5 18.5t25.5 36.5q23 -6 40 -30.5t42 -24.5l26 16l37 -26l2 -6
q2 -29 -19.5 -50.5t-29.5 -48.5l-12 2q-25 0 -40.5 -17t-37.5 -28q-6 -41 -5 -83t-20 -78q14 -23 12.5 -47.5t14.5 -45.5q-6 -10 -14.5 -21.5t-8.5 -25.5q0 -20 20.5 -43t20.5 -43l-2 -10q-18 -10 -38.5 -25t-20.5 -39t12.5 -34.5t30 -30t-9.5 -61.5q4 -29 17 -55.5
t11 -55.5v-6q-32 -31 -32 -59t15 -46t35.5 -34.5t40 -34t25.5 -39.5q16 -10 33 -19.5t33 -21.5q23 6 48.5 3t48 -1t37.5 14.5t18 52.5l18 -14l-2 -43q6 -8 26 -8t34 21.5t3 43.5l41 -6l6 29l-28 18l-21 -26l9 47q12 -6 24 -6q24 0 64.5 43t40.5 59t-15.5 28.5t-9.5 31.5
q-18 18 -18 84t9 110.5t24.5 127t-9.5 116.5q21 16 32 63t11 61q0 23 -33 50t-39 45q-97 17 -114 78q28 82 61 112l86 -4q29 0 51.5 5.5t55.5 13.5t84 -13q13 13 37 9t36.5 -2t18.5 20l31 -29q-16 -23 -11.5 -47t4.5 -53z" />
    <glyph glyph-name="V" unicode="V" 
d="M903 1253q10 0 21 -10q16 4 25 17.5t26 13.5l14 -4q5 -28 32.5 -25.5t37.5 0.5q12 8 20 22.5t25 14.5l16 -4q9 -14 40.5 -16.5t43.5 -14.5l8 2q12 0 12.5 -14t0.5 -30t18.5 -32.5t18.5 -38.5t-13.5 -36.5t-23.5 -24.5q-15 15 -33 11.5t-28.5 -3.5t-20.5 6l-33 -26
q-6 -23 -12 -49.5t-37 -28.5q-18 -18 -17.5 -56t-1.5 -63q-29 -15 -36 -37t-10 -34.5t-15 -26.5v-6q0 -35 -7 -66.5t-1 -66.5q-16 -6 -29.5 -3t-29.5 3t-23 -9q-4 -35 5 -65.5t9 -66.5t-26 -60q8 -30 -9.5 -64t-19.5 -69q10 -13 10 -29t-16.5 -30.5t-24.5 -30.5
q4 -16 11.5 -33.5t7.5 -35.5t-11 -32l-16 19q6 12 6 29t-7 35t-11 36q-15 -3 -28 -36t-19.5 -51.5t-10.5 -27.5q31 -40 31 -68t-6 -58l-41 -37v-49q-27 8 -31 17t-8 17t-86 -8q-4 18 -16.5 32.5t-31.5 39.5t-9 57l-94 244q-31 10 -29 27.5t2 31.5t-6 29.5t-8 21.5
q-29 14 -50.5 86t-52 192t-57.5 138q-8 20 -36.5 132t-111.5 98q-10 20 -26.5 22t-32.5 3t-28.5 9.5t-12.5 33.5t-10 39.5t-10 31t8 24.5q29 2 40 31t21 49q43 -16 43 -21t9.5 -4t62.5 1t96 -31l51 20q28 -24 47 -21t32 8t32 7q18 -12 19 -33.5t4.5 -40t14.5 -26.5t48 10
v-51l-23 -10l-34 16q-35 -18 -35 -28l8 -107q0 -47 12.5 -87t12.5 -82q0 -109 53 -159q10 -92 6 -131q29 -25 29 -57l-2 -14q-15 -12 -12 -43.5t-11 -42.5v-15q0 -23 9 -44t5 -44q10 -10 17.5 -24.5t21.5 -39t39 -24.5h8q10 20 27.5 38.5t17.5 43.5l-2 14l-41 23l9 -2
q33 0 42 16.5t8 39t-7.5 45t-6.5 42.5t21 33l-2 18q0 23 12 41.5t34 51t11 69.5q10 38 37 60q25 67 8 129q16 14 16.5 34.5t-1.5 57.5t22 55q-4 33 -20.5 54.5t-35 42t-35.5 45t-21 63.5q16 14 17 33.5t9 35.5l35 -18q41 18 51 41q31 -31 53.5 -29t32.5 2z" />
    <glyph glyph-name="W" unicode="W" 
d="M369 508q12 0 12 16t-12.5 23.5t-24.5 7.5q-25 1 -25 -23t50 -24zM592 535q0 -19 14 -19h4q4 4 11.5 6t7.5 8t-3 10q-3 3 -7.5 8t-10.5 5t-11 -7t-5 -11zM420 702q0 18 -18.5 43t-18.5 40t10 23.5t33 26t23 50.5q0 63 -20 121.5t-67 58.5q-27 0 -54 -16.5t-27 -44.5
l10 -74q0 -27 -11.5 -37t-11.5 -31t18.5 -37t22.5 -39q2 2 13 2t20 -14l-14 -18q-10 10 -16 10t-11 -4v-8q0 -25 9.5 -48.5t11.5 -41.5t-1.5 -25.5t-3.5 -17.5q0 -31 33 -31t33 4l-12 47q0 22 39 29q10 14 10 32zM881 786q0 24 -60 33l-16 -41q12 -18 12 -36t-4 -40
q9 -18 19 -18t18 4v29q-8 12 -8 22t19.5 19.5t19.5 27.5zM821 1032q-53 0 -53 -45q0 -31 30.5 -54.5t49.5 -45.5q19 0 29 -21q6 -2 17 -2t17 8q-8 18 -6 40t-20 34v6q0 18 -13.5 29.5t-9.5 32.5q-16 18 -41 18zM809 1237q8 0 27 16q20 -8 57.5 12t58.5 17q21 21 68 31
q10 -23 38.5 -47.5t53.5 -28.5q7 27 53 27q16 -25 13.5 -45.5t-2.5 -36t13 -24.5t66 -9l15 -41q-14 -7 -28.5 2.5t-22.5 9.5t-36 -42.5t-28 -59.5l-10 -2q-12 0 -21.5 10t-22.5 10q-26 0 -35 -70t-9 -115q0 -44 -27 -65v-6q0 -21 20.5 -51.5t20.5 -48.5t-13.5 -23.5
t-27.5 -7.5t-24.5 -8t-4.5 -29q-27 -16 -25.5 -43.5t5.5 -54.5q-31 -21 -9.5 -81t21.5 -87q-26 -32 -41 -90q25 -50 1.5 -107t-23.5 -88t16.5 -44t16.5 -35q0 -11 -57.5 -37.5t-63.5 -26.5q-35 0 -49.5 15.5t-22.5 37t-15 44t-23 31.5t-31 14.5t-15 21.5q31 124 31 149
q0 27 -23.5 72t-17.5 72q-6 16 -21.5 20t-31 7.5t-25.5 9.5t-6 26l8 41l-49 10q-20 -10 -22.5 -24t-2.5 -39t-14 -37l4 -36q4 -36 -29 -97q37 -15 37 -35l-2 -6q-63 -32 -63 -72q0 -23 23.5 -50t23.5 -52v-6l-33 4q-4 0 -18.5 -6t-18.5 -10v-5q0 -12 7.5 -21t14.5 -18.5
t14 -17.5t7 -19t-20 -24l-41 6l-27 -10q-27 39 -98 88q-4 16 -9 30.5t-5 31t26 61.5q-23 23 -37 48.5t-30 51.5q18 19 18 37t-7 39t-11 37q-4 4 -11.5 8t-7.5 15t14.5 18.5t14.5 24.5t-11.5 33t-28 44t6.5 51l4 37q-15 9 -9.5 32t-6.5 41t-20.5 19t-13.5 -0.5t-6 6t-1 41.5
q0 40 -15.5 83.5t-15.5 71.5t-3 42.5t-5 26.5q-28 10 -39 55q-20 8 -45 18.5t-33 34.5q-14 10 -32.5 14.5t-34.5 8.5v8q0 18 15 27.5t26 23.5v11q-2 47 12 51t36 4q32 0 53 31.5t17 48.5l11 2q12 0 22 -6.5t28.5 -16t37.5 7.5q25 -10 49 -30.5t42 -20.5q35 0 88 13t56 30
q39 4 79 3t75 22q37 0 72.5 2t72.5 -2q19 11 35 -4t25.5 -23t17.5 -8z" />
    <glyph glyph-name="X" unicode="X" 
d="M330 131v-6l6 4l-4 4q-2 0 -2 -2zM1042 154h9q6 6 6 10t-6.5 8t-10.5 4l-8 -18q8 -4 10 -4zM1087.5 -47q-18.5 0 -68 16t-81.5 4q-6 7 -24 7t-33 -12.5t-32 -12.5t-31.5 15.5t-29 35t-25.5 37.5t-20 27q7 15 30.5 18.5t34.5 7.5t17 17q25 6 21 28q-3 92 -57 154.5
t-78.5 89.5t-24.5 63t-26.5 58t-69.5 18l-21 -53q-12 6 -26 6q-23 0 -42.5 -40t-15.5 -62l-16 -23q-16 8 -33 8l-35 -22q-3 -29 -28 -77t-25 -90t14.5 -50t31 -7t30.5 -5.5t14 -36.5t11.5 -37.5t11.5 -21.5t-31 -29q-10 8 -22.5 19t-25.5 11t-24.5 -7t-29 -17.5t-39.5 8.5
l-51 -25v-36q-12 18 -36 14t-32 0t-8 22q-14 12 -35 16.5t-52.5 13.5t-31.5 49q0 41 27.5 49t60.5 8t43 17t21 42l41 -4q8 12 39.5 40t13.5 68q20 9 33.5 36.5t24.5 38.5t32 11q18 15 18 58q25 14 31 36.5t9 47t6 45t29 35.5t48.5 29t27.5 51t5 57t7 37.5t75 17.5
q29 0 32 27.5t5 50.5q46 28 51 94l-23 25q20 8 44 16t36 31l-2 14q0 14 10.5 25.5t16.5 23.5q-6 35 -7 48.5t-6.5 18.5t-19.5 10t-47 24q8 14 2 27.5t-6 27.5l4 10q27 -16 42 -16t33.5 17.5t28.5 25.5q29 -29 51 -29t27.5 8.5t16 25.5t17.5 17q12 0 24 -12q2 -16 13 -31.5
t28 -15.5l12 4q16 -4 24.5 11.5t21.5 15.5t25.5 -15.5t18.5 -21.5q45 17 57 49l27 -16l2 -129q4 -16 -10 -23l-8 -51q-19 6 -29 37.5t-35 31.5h-6q-13 -32 -35 -32q-13 0 -45 24q-23 -20 -46.5 -42.5t-55.5 -26.5q-14 -57 4 -86l-29 14l-43 -21v-14q0 -22 -22 -74
q-20 -6 -38 -16l-36 -20v-13q0 -23 -31 -46t-31 -41q0 -17 7 -29q-6 -27 -1 -53.5t1 -55.5q16 -23 37.5 -42t54 -51.5t37.5 -84.5q16 -23 32.5 -16.5t32.5 6.5t29 -7l-19 -26h-8q-14 2 -17 -13.5t-3 -33.5q0 -26 36 -42t27 -61q17 -27 60 -4q2 -2 84.5 -62t113.5 -104
q-6 -41 -37 -71l-6 4q-14 0 -25.5 -12.5t-19.5 -17.5t-26.5 -5zM451 1122q-25 0 -25 -28t12.5 -43t27.5 -24t30.5 -18.5t19.5 -27.5q23 -15 31 -71t8 -74t-12 -39l-11 -2q-14 0 -25 7t-24 11q-22 56 -67 80l-17 -2q-29 0 -23.5 26.5t5.5 34.5l-4 23q-16 14 -24.5 36.5
t-24 56t-62.5 30.5q-14 10 -22 28.5t-27 22.5q-14 -6 -30.5 -1t-26.5 -9q-4 16 -17.5 22t-25.5 13q-23 -14 -28 -18.5t-5 -31.5q0 -4 -8 -4q-12 4 -12 14t10 20.5t10 23.5v2q-16 14 -16 36t4 42t-6 40l16 15q12 -12 11 -28.5t-1 -38.5t21 -21q12 0 34.5 25.5t36.5 27.5
q8 -6 13.5 -17.5t16 -32t29.5 -20.5t27.5 10.5t11.5 23.5t6 24.5t15 15.5q36 -31 75 -31t56 17q8 -4 19 -4l57 10q25 0 31 -25q-22 -81 -6 -137q8 -2 8 -12l-4 -17q-16 0 -28.5 14.5t-29.5 14.5z" />
    <glyph glyph-name="Y" unicode="Y" 
d="M735 995q0 30 -33.5 90.5t-33.5 80.5t12 38q35 16 77 38t83 22l16 -4q12 -23 36 -23q35 0 63.5 18.5t43.5 18.5l31 39q20 -16 41 -20.5t46.5 -20t25.5 -86.5l-4 -23v-6q0 -16 -7.5 -31.5t-7.5 -31.5l-49 12q-21 -17 -26 -27t-7 -10h-41q-27 0 -47 -37t-30.5 -58.5
t-22.5 -29.5q-6 10 -18 10q-24 0 -39.5 -66.5t-7.5 -82.5q-14 -4 -40.5 -36.5t-45.5 -37.5q-13 -20 -24 -75.5t-11 -61.5q0 -25 -29 -25t-29 -82q0 -162 29 -223q-16 -27 -16 -53l10 -45h6q12 0 16.5 14.5t16.5 14.5t57 -50q28 25 41.5 20t21 -11.5t22.5 -6.5t31 14.5
t30 14.5t21 -8t28.5 -35.5t48.5 12.5q12 -14 20.5 -29.5t20.5 -25.5q5 -42 -6 -65t-11 -48q-6 -8 -13 -8t-15 2t-15.5 4t-15.5 -4q-6 9 -17 9t-19.5 -11.5t-21 -11.5t-22.5 9l-20 18q-8 -16 -37.5 -24t-38.5 -23q-18 8 -42.5 26.5t-72.5 18.5l-84 -31q-29 23 -64.5 24.5
t-70.5 10.5q-6 10 -20 10t-24.5 -12.5t-24.5 -16.5l-11 -14l-30 29q-16 4 -29.5 -4.5t-26.5 6.5q-27 -2 -49 -14.5t-49 -4.5l-18 -14l-3 10q0 18 8.5 35.5t4.5 36.5q18 23 42.5 33t45.5 26q33 -20 42 -20q13 0 33 30.5t31 38.5q25 -20 43 -20l49 6q0 17 22.5 44t16.5 48
q18 14 19 43l-4 131q0 13 -55 138.5t-72 130.5q-8 3 -62 98t-73 114q0 66 -39 156q-31 20 -66 33.5t-59 44.5h-4q-12 0 -19.5 -10.5t-17.5 -10.5t-17 7q-8 16 -21 29.5t-13 29.5q0 50 35.5 47.5t56.5 -2.5t35 33l26 16q4 -10 16.5 -26.5t30.5 -16.5t84 15q31 -23 44.5 -12.5
t37.5 26.5q33 -23 33 -90l-2 -13q-12 -10 -7 -29.5t-12 -27.5l17 -55l-23 20l-22 -10l-19 16q-10 -4 -10 -17t6 -28q49 -22 58 -90q18 -23 43.5 -37t31.5 -43q16 -12 20.5 -27.5t11 -39t67.5 -23.5q22 0 22 7l-6 69q0 23 16 27q29 12 47 41.5t32 37.5q17 11 19.5 40t20.5 34
z" />
    <glyph glyph-name="Z" unicode="Z" 
d="M848 1118q-4 0 -4 -12v-12q8 -4 12 -13.5t11.5 -26t23.5 -16.5q25 0 24 27v25q-4 23 -25.5 23.5t-37.5 4.5h-4zM889 184l8 70q0 28 7 41.5t11 28.5q17 -10 31 -10t37 20t21 35q8 -13 27.5 -8.5t27.5 3t14 -13.5q-2 -10 3 -20.5t5 -20.5t-12 -17t-12 -25.5t14 -31.5
t14 -29t-8 -24q8 -20 8 -34q0 -23 -28.5 -59.5t-18.5 -70.5q-25 -6 -41 -6t-31.5 -5.5t-29.5 -61.5q-31 10 -69 10t-68 -14q-12 20 -35 20t-39 14l-25 -36q-23 6 -37 21t-30 26l-72 -33q-18 0 -29.5 5t-27 10t-49.5 -13q-14 4 -26.5 12t-27.5 8q-18 -15 -51 -18.5t-37 -11.5
q-14 6 -30.5 18t-32.5 -4l-6 -2q-16 0 -26.5 20.5t-10.5 50.5t13 74.5t9 92.5l25 26q39 8 52 17.5t16 50.5q27 12 40 40.5t-2 57.5q2 33 19.5 29t40.5 -10q17 11 22 51q25 10 38.5 31.5t35.5 31.5v8q-2 16 13.5 30t31.5 26t21.5 35.5t9.5 44t15 33t46 1.5q10 8 12.5 25.5
t5.5 33t10 23.5t30 -2q29 12 48 24.5t11 49.5q14 11 29.5 41.5t27 42.5t23.5 14t24.5 4t12.5 13q-35 42 -29 67q-23 9 -30 34.5t-13 38.5t-20 19q-15 23 -31 23t-16 -3v-25q0 -21 -9 -27q-14 18 -53 18t-51 6l-14 -14l4 -21l-9 -2q-8 0 -21 23.5t-26 23.5q-14 0 -31.5 -19
t-39.5 -26q-18 29 -52 39.5t-65 18.5q-16 -16 -40 -28.5t-24 -37.5l5 -20q14 -4 14 -25l-4 -20q-12 -6 -31.5 -16.5t-19.5 -26.5q0 -83 18 -123q-4 -8 -7 -13.5t-51.5 -5.5t-74.5 13v6q0 38 -33 88q4 39 7 80t-15 78q9 60 53 149l17 -2q16 0 28.5 11.5t30.5 -3.5
q32 36 79.5 19t76.5 -4q27 -22 51 -16.5t39.5 11t29 9.5t15.5 6q15 -37 39 -31q8 21 36.5 9.5t40.5 -11.5t31 6l31 31q19 -2 40 -13.5t34.5 -12.5t38.5 9q18 -6 31.5 -23t33.5 -17l29 18l10 -18l39 12q16 -8 25.5 -22.5t29.5 -10.5q-6 -44 -6 -123q0 -35 39 -35l-45 -28
l-18 6q-61 0 -58.5 -57.5t2.5 -80.5t-22 -40q-16 2 -16.5 19t-14.5 17h-6q-8 -25 -23.5 -46t-13.5 -50l-45 -24q-4 0 -49 -90t-51 -106q-9 -24 -66.5 -81.5t-45 -82t12.5 -38.5t-26 -23t-41 -25.5t-43 -37.5v-12q-2 -39 17.5 -43t51.5 -2q-29 -10 -28 -35l30 -39l21 -4
q45 0 69 35q16 -8 34 -11t46.5 -8t48.5 -32q12 10 30 10t44.5 2t32.5 39z" />
    <glyph glyph-name="bracketleft" unicode="[" 
d="M977.5 1481q-12.5 0 -23.5 22q-14 -4 -27 -1t-31 3t-30 -26q-23 -6 -47 0t-54 6t-42 -33q-32 22 -78.5 23.5t-75 2.5t-49.5 7l-55 -25l4 -20l-8 2l-2 -12h-8q-28 0 -48 34l-6 -43q30 -37 15 -77.5t-11 -67.5q-16 -10 -16 -30.5t7 -40t18 -52t-2 -66.5l12 -26l-47 -37
q22 -52 -4 -70q0 -27 13 -48t17 -48q-19 14 -33 14t-18 -16q16 -31 20.5 -46t4.5 -48t14 -47q-6 -14 2 -27.5t8 -29.5t-35 -35q4 -29 7.5 -56.5t19.5 -50.5q-10 -10 -10 -24t14.5 -23t14.5 -21q0 -18 -23 -18l-31 31l-22 -12l16 -31q0 -20 17 -61t8 -68q21 -21 14.5 -41.5
t-11.5 -33.5t-5 -26l26 -145l-2 -90q12 0 23.5 -14.5t17.5 -21.5t16 -7q17 0 21.5 33.5t10.5 33.5q12 0 17.5 -26.5t16.5 -26.5q10 0 64 39l43 -35q23 23 41 23t22 -17l31 -24q52 0 69 33q40 -47 72 -37l8 22q14 -21 51.5 -23.5t51.5 -17.5v-14q-7 -47 26 -51l25 14
q-5 -15 -18.5 -42t-5.5 -27t10 -15q-19 3 -32 -8.5t-21.5 -18t-18.5 -6.5t-14 7.5t-9 15.5q-14 -4 -26.5 -1t-30.5 3t-31 -27q-23 -6 -47 0.5t-54 6.5t-42 -33q-31 21 -78 22.5t-75.5 2.5t-49.5 8l-57 -27l-4 -29h-6q-12 0 -19.5 8.5t-20.5 21.5t-34 -5q-6 8 -12.5 7t-21 -3
t-28.5 20l-34 -6q-16 11 -24 43t-21 43q4 29 5 47.5t36 26.5q-6 10 -21.5 19.5t-15.5 23.5q0 71 37 106q0 53 -21 101q33 41 33 49l-4 44q-2 38 10 56q-8 10 -12 27.5t12 28.5l-16 47q23 33 17.5 76t-21.5 71q29 45 24 113l-2 33q-16 5 -19 96.5t-1 99.5q-32 16 -12 92
t10 125q16 33 13 70t-5 70q8 10 8 27t-15.5 52t-21.5 54q22 22 14 66.5t0 66.5l-10 41q6 14 6 29.5t-1.5 43.5t20.5 43l-6 48l41 49l43 -4q2 -27 22.5 -39.5t38.5 -28.5q27 14 51 47q15 0 31.5 -21.5t26.5 -21.5q16 0 21.5 34t12.5 34q12 0 17 -26.5t16 -26.5t64 38l43 -34
q22 22 40 22t23 -16l31 -25q51 0 69 33q40 -47 72 -37l8 23q14 -22 50.5 -24.5t52.5 -16.5v-15q-7 -47 26 -51l25 14q-3 -10 -17.5 -39.5t-5.5 -29.5q8 0 9 -15q-19 3 -39 -14.5t-32.5 -17.5z" />
    <glyph glyph-name="backslash" unicode="\" 
d="M848 215q0 24 -12.5 37.5t-25.5 25t-21.5 23.5t-2.5 33q-19 16 -27 59.5t-20 63.5v35h-26l-11 -43l-14 -3q-18 0 -14 18.5t4 29.5q0 23 -23 26v8q0 27 -11 50.5t-21 46.5q-47 0 -50.5 17t-4.5 28.5t-13 21.5v8q0 31 -18.5 63t-20.5 71q-8 8 -18.5 8t-16.5 -12.5
t-10 -20.5q-10 23 -10 49.5t-15 48.5q-26 0 -40 58l-58 6l-4 30q-17 12 -33 66.5t-27.5 76t-29.5 21.5q-6 18 -42.5 52t-29.5 75l-37 35q-28 -11 -34 -55q-10 18 -7.5 39t2.5 37t-8 27t-22.5 34t0.5 47q-13 26 -13 36t6.5 24t17 39t-0.5 47l33 24l61 -22l19 -43
q25 -3 39 -26.5t22 -37.5t21 -22l14 -41q16 -16 27.5 -46t21.5 -43.5t31 -17.5q2 -12 7 -63t36 -66q18 -29 32.5 -61.5t45.5 -53.5q6 -16 26.5 -44.5t56.5 -79.5t27 -64q17 -17 30 -57.5t34 -55.5q4 -16 18 -30.5t2 -36.5q41 -84 94 -111q2 -35 19.5 -73.5t52.5 -55.5
l12 -49q18 2 23.5 -15.5t3.5 -33.5q20 -10 27.5 -23.5t21 -39.5t62.5 -44q6 -51 34 -96q78 -22 78 -124q0 -35 24.5 -63t24.5 -50l-2 -33q-5 -62 -39 -48.5t-51 19.5l-35 -45q-23 33 -34 71t-35 68l-33 -18q-17 24 16 63l-63 97l2 14q0 18 -22.5 42t-22.5 48z" />
    <glyph glyph-name="bracketright" unicode="]" 
d="M877 -297q-14 0 -22.5 -17.5t-27.5 -17.5h-6l-4 29l-57 27q-29 -20 -101.5 -22.5t-101.5 -10.5q-16 33 -25 33l-98 -9l-22 2q-10 27 -33 27l-53 -2q-4 -6 -9.5 -14.5t-14.5 -8.5q-11 0 -31.5 18t-39.5 15q0 10 5 15l10 2q0 18 -12.5 33.5t-16.5 33.5l23 -14q35 6 28 65
q16 16 51 18t50 23l10 -22h14q25 0 56 37q18 -33 69 -33l33 24q6 37 31.5 18.5t31.5 -24.5l41 35q49 -39 61 -39q13 0 19 8.5t9.5 17.5t5.5 17t5 8t5 -10t7.5 -32.5t19.5 -22.5q15 0 26.5 21.5t30.5 21.5l-2 90q25 25 16.5 111t-8.5 102t16 33q-8 25 1.5 52.5t15.5 42.5
t6 34l18 31l-22 12l-31 -31q-6 2 -14.5 4t-8.5 11t8.5 17.5t19.5 21t-9 32.5q16 23 19 50.5t8 56.5q-12 8 -23.5 14.5t-11.5 22.5t7 28t3 27q12 15 15 64.5t24 76.5q-6 20 -23.5 16t-27.5 -14q4 27 16 48.5t14 47.5q-28 18 -6 70l-47 37l14 26q-13 33 -2 66t18 52.5t7 40
t-16 30.5q2 18 -2.5 37.5t-10 52t16.5 55.5l-6 43q-23 -34 -50 -34h-6q2 7 -8.5 12t2.5 18l-55 25q-29 -20 -101.5 -22.5t-101.5 -10.5q-16 33 -26 33l-97 -8l-22 2q-10 27 -33 26l-53 -2q-15 -22 -24 -22q-11 0 -32.5 18t-38.5 14q0 10 5 15l10 2q0 18 -12.5 33.5
t-16.5 33.5l23 -14q35 6 28 66q14 14 50 16.5t51 24.5l10 -23h14q22 0 56 37q18 -33 69 -33l33 25q6 34 31.5 17t31.5 -23l41 34q47 -38 61 -38q13 0 19 8t9.5 17t5.5 17.5t5 8.5t5 -10.5t7.5 -33t20.5 -22.5t26 21.5t30 21.5q23 -32 53 -47q18 16 38.5 28.5t23.5 39.5l40 4
l43 -49l-6 -48q35 -29 27 -88t-12 -69q8 -21 0 -66t14 -67q-8 -23 -22.5 -55.5t-14.5 -50.5t8 -27q2 -35 -3 -70t12 -70q-10 -49 2 -98t12 -96q0 -14 -17 -23q4 -18 -3.5 -105t-18.5 -91v-41q-4 -57 25 -105q-16 -29 -22.5 -71.5t15.5 -75.5l-14 -47q16 -10 12 -27.5
t-14 -28.5q12 -18 12 -33.5t-2 -45t31 -70.5q-20 -41 -21 -94v-7q37 -37 37 -106q0 -14 -15 -23.5t-22 -19.5q35 -8 35 -26.5t6 -47.5q-13 -11 -18.5 -33t-9.5 -33.5t-17 -19.5l-34 6q-16 -22 -29.5 -20t-20 3t-12.5 -7q-10 10 -24 10z" />
    <glyph glyph-name="asciicircum" unicode="^" 
d="M377 1479q12 0 14 6t3 13t3 11t13 0l18 4q2 10 8 17.5t2 19.5q8 4 19.5 4t15.5 11l-4 10h2q14 0 22.5 11t22.5 13l27 -14l-6 21q12 2 18 32q14 8 26.5 19.5t25.5 11.5t22.5 -7t19.5 1l33 -51l-6 -4l35 4q2 -2 2 -10l-11 -25q0 -2 10 -2t16.5 -13.5t23.5 -11.5l-4 -10
q4 -10 15 -10t19 -6l-2 -8q0 -8 5.5 -13.5t7.5 -13.5l18 -4l6 2q6 0 9 -19.5t28 -13.5q8 -6 2 -33q4 -8 11 -4t14 2l10 2q0 -6 -8.5 -12t-8.5 -14t15.5 -10.5t19.5 -4.5l-2 -22q0 -8 10.5 -30t10.5 -39t-13.5 -27.5t-23.5 -22.5h-6q-10 2 -17.5 -4t-17.5 -6h-6
q-10 20 -13.5 23t-23.5 8q0 14 -15 14t-18 8l8 10q0 14 -33 51.5t-49 42.5q2 6 2 18t-16 22t-22 24l2 6q0 18 -21.5 41t-21.5 37h-11q0 -8 -31 -26.5t-24 -32.5q-8 -16 -27.5 -27.5t-9.5 -36.5q-13 -3 -47.5 -40t-34.5 -54l8 -10q-2 -9 -17 -9t-15 -14q-20 -4 -24.5 -7
t-14.5 -24h-4q-12 0 -21.5 7.5t-19.5 3.5q-10 12 -23.5 22t-13.5 33t11 41t7 45q4 6 19.5 5t15.5 8t-8 14.5t-8 10.5t1 5t1 -2l22 -4q6 0 11 4q-8 23 2 33h10z" />
    <glyph glyph-name="underscore" unicode="_" 
d="M840 -297q12 0 22 8t20 8t19 -4q34 14 31 31q-23 4 -42.5 10t-41.5 11q-27 -10 -55.5 -9.5t-55.5 -9.5q0 -17 33 -22.5t45 -14.5q13 -8 25 -8zM805 -319l-76 14q-16 0 -76 -14q-17 18 -35 18t-16 -7t2 -20q0 -8 -15 -8q-22 0 -35.5 17.5t-31.5 17.5t-29.5 -15.5
t-26.5 -15.5q-22 0 -29 13.5t-15 13.5t-24.5 -9.5t-29 -9.5t-25.5 14.5t-30 14.5l-10 -2q-11 -18 -27 -18t-21 7t-12.5 23.5t-30.5 16.5t-33.5 -14.5t-20.5 -14.5t-25 14h-45q-16 -16 -25 -16t-16.5 8t-13.5 20.5t-11.5 25t-13.5 18.5q2 20 7 33.5t5 37.5t15.5 32.5t34 14
t34 12.5t15.5 29q0 7 15 7t27.5 -8.5t38.5 -8.5t43 15.5t33 15.5t31 -14q16 -2 31.5 1t32.5 3l26 -4q-20 -10 -20 -27.5t36 -17.5t47.5 7t23.5 13t25 9t15 7q-24 0 -41.5 6.5t-17.5 10.5l2 2q35 5 62 -2.5t45 -7.5t23 -6.5t14.5 -19.5t28.5 -13q20 0 17.5 8t-2.5 18
t12.5 22.5t20.5 14.5l31 -10q-8 -21 -8 -37q0 -28 43 -27l12 2l6 25l-22 16q26 13 40 13t16.5 -8.5t6 -24.5t24.5 -16t44 14v4q0 10 -10.5 15t-10.5 16l4 8l27 -8l14 -33l17 -2l53 14q25 0 42 -13t48 -13t54 -10.5t47 -10.5t34 29q4 -51 74 -56q-8 -18 -15.5 -63t-52.5 -61
q-8 4 -28 4t-41 -17.5t-37.5 -17.5t-29 16.5t-34.5 16.5t-31.5 -14.5t-15.5 -30.5q-16 4 -29.5 16t-25.5 12t-25 -4q-14 -27 -33.5 -19.5t-31.5 7.5t-39 -14z" />
    <glyph glyph-name="grave" unicode="`" 
d="M889 1359v-26q0 -22 -2 -30q-4 4 -15 4l-26 -5q-27 -6 -30 2.5t-5 16.5q-14 2 -24.5 10t-24.5 8t-23 -12q-25 2 -44 18.5t-39 16.5t-35 -14q-2 4 -28 17t-79.5 41t-62.5 28q-10 0 -25 -11l-12 -20q-12 0 -16.5 9t-10 25t-27.5 7q-8 12 -15 24.5t-20 12.5t-34 4
q-10 16 -7 37.5t-3 40.5q10 18 15 33.5t16.5 35t52.5 19.5q12 0 21 7t19.5 7t18.5 -7t20 -7l19 6q11 16 23 16t16 -8t9.5 -25.5t13.5 -17.5t20 12q0 4 7 19.5t13 15.5q2 -2 2 -20q6 -10 4 -21.5t15 -13.5q27 16 38 16t13 -2q13 -37 15 -37l44 6q12 0 13.5 -7t1.5 -19t16 -21
l25 -2q26 -2 39 6q6 -4 10 -12t11 -20.5t22 -12.5l12 13q3 -17 35 -32.5t32 -27.5l-10 -41q0 -8 12 -16q8 8 15 8l8 -4q0 -12 -13.5 -17.5t-17.5 -17.5q-18 -11 -18 -15z" />
    <glyph glyph-name="a" unicode="a" 
d="M341 301q-3 0 -6 -9t-7 -13q4 -8 20 -13q6 4 7 9.5t3 11.5q-14 14 -17 14zM463 193q11 -1 25 13t14 37t-20.5 25t-35.5 4l-22 -34q12 -10 19.5 -27.5t19.5 -17.5zM485 512q0 29 -34.5 37t-42.5 8q-29 0 -29 -25q0 -2 2 -4v-4q0 -2 2 -2q12 -20 63 -45q39 13 39 35z
M731.5 538q12.5 24 36.5 21q14 10 13.5 27.5t9.5 31.5q-8 8 -9 19l11 43q0 43 -64 49q-6 -4 -9 -4l-56 4q-20 0 -33 -14q-29 16 -64 16q-16 -23 -30.5 -48.5t-12.5 -55.5q-28 -8 -28 -32t6 -38t2 -37l71 8q23 0 51 -22t64 12q12 -4 20 -4q9 0 21.5 24zM541 -68h-11
q-21 28 -72.5 30.5t-68.5 8.5l-43 -28q-10 6 -11 16t-4.5 29t-21.5 23q-18 5 -38.5 6t-26.5 22l-49 27l2 12q0 31 -18.5 57.5t-18.5 57.5l2 14q27 12 26.5 38.5t-0.5 50.5t24 52.5t35 40.5t11 15v20q0 19 23 16l24 -4q27 38 17.5 63t-11.5 33l-8 -2q-30 0 -37.5 34t-7.5 40
t-9 26.5t-19.5 44t-19.5 44t-11 20.5v4q0 26 21.5 52t28.5 41.5t1 37.5q16 6 25.5 9.5t15 9t20.5 41.5q4 -10 8.5 -25.5t12.5 -19.5q20 8 30 35q18 -12 50 -12t60 19t77 19t94 -35q29 4 59.5 1t59.5 10q13 -11 44.5 -15t45.5 -10t22 -24q25 -2 35.5 -22.5t18.5 -41.5
q-6 -12 -6 -31t14 -39t10 -45q6 -20 19.5 -40.5t-2.5 -41.5l-5 -45q0 -39 21 -65l16 2q25 0 25 -14t-9.5 -19.5t-28.5 -14t-19 -23.5t7 -24.5t7 -23.5t-13.5 -24.5t-13.5 -36.5l6 -68q12 -12 16.5 -27.5t14.5 -27.5h4q27 -4 45.5 14.5t40.5 28.5q10 0 18.5 -7.5t22 -19
t33.5 1.5q8 -6 8 -18l-12 -92q0 -14 -17.5 -36t-11.5 -38q-18 -10 -17 -19.5t2.5 -19.5t-38.5 -10q-41 0 -75 -19.5t-62 -25.5q-6 11 -25.5 20.5t-27 16t-9.5 20.5q-10 2 -29 27.5t-94 25.5q-6 0 -13 -2t-15 -4q-4 -4 -9.5 -29.5t-21.5 -25.5l-72 10q-10 -6 -17 -18.5
t-20 -33t-34 -20.5z" />
    <glyph glyph-name="b" unicode="b" 
d="M905 220q0 23 -20 48q10 23 6 47.5t-4 50.5t13 37t13 21.5t-18 34.5q4 5 4 25t-9 41.5t-9 46t18 40.5v6q4 14 -8 23q-3 37 -30 59.5t-44.5 35t-30.5 28.5q-32 6 -82.5 35.5t-72.5 29.5q-28 0 -59.5 -15t-36.5 -13q-31 -18 -66 -28.5t-63 -31.5q4 -6 4 -7v-19
q0 -29 -11.5 -51.5t-11.5 -48.5t12 -44q-4 -6 -11 -8t-18.5 -6t-11.5 -26t17.5 -37t17.5 -29t-9 -19.5t-29.5 -16t-20.5 -33.5t15.5 -33.5t23.5 -18.5l-6 -41q0 -37 62.5 -108.5t100.5 -63.5q24 -21 67.5 -28.5t66.5 -18.5q83 6 172 100q18 4 43.5 8.5t25.5 27.5z
M1085 526.5q0 -30.5 -22 -41.5q6 -33 25.5 -62t19.5 -55t-10.5 -40.5t-34 -41.5t-23.5 -61t-10 -49.5t-23.5 -29t-28.5 -25.5t-28 -23l2 -8q0 -31 -102 -75t-152 -44q-10 -10 -26.5 -10t-30.5 4q-28 -8 -63 3.5t-54.5 18.5t-40.5 7q-10 8 -21.5 18.5t-25.5 10.5t-20 -7v-8
q0 -37 -55.5 -45t-81.5 -8t-52 20q-6 23 -4 46.5t-16 39.5q-5 35 12 46.5t25 25.5t7 31.5t-4 37t-3 24.5l10 79q0 31 -17.5 56.5t-11.5 58.5l-18 39l26 20q-11 70 -53 148q20 13 21.5 41t2.5 45.5t7 31.5l-16 37q6 16 17 31.5t11 32.5l-4 18q-37 9 -37 26v83q0 33 2 56.5
t-2 57.5q-33 23 -50 39.5t-24 16.5h-77q-27 0 -51.5 11t-51.5 9q-6 12 -6 33t11.5 33t24.5 20t23.5 16.5t10.5 28.5l16 -4q18 0 33.5 8.5t32.5 12.5q26 -26 60 -20.5t54 11t52 5.5t52.5 -12.5t34 -32t26 -41t36.5 -39.5q-26 -50 -21 -66t10 -28.5t5 -31.5q0 -20 -21.5 -47.5
t-21.5 -49.5q0 -23 26.5 -33.5t53.5 -10.5l14 3q10 18 31 36.5t37 18.5t39.5 -15.5t46.5 -17.5q18 20 48 20.5t52 16.5q33 -10 63.5 -22.5t65.5 -16.5q15 -24 61 -32t66 -32q21 -24 17.5 -50.5t-4.5 -47t11.5 -33t65.5 -12.5q16 0 28.5 -47t19 -74t14.5 -39
q-11 -14 -11 -44.5z" />
    <glyph glyph-name="c" unicode="c" 
d="M1014 342q18 0 29.5 -30t11.5 -53q0 -24 -21 -30q-4 -28 17 -69q-12 0 -21.5 8t-30 8t-20.5 -12v-55q-31 -52 -59.5 -70.5t-40.5 -13.5l-50 -37q-21 4 -41 4t-47.5 -13.5t-56.5 -23.5q-22 15 -80.5 20t-83.5 21l-10 -2q-27 0 -80 41.5t-57 66.5q-20 8 -27.5 19.5
t-18.5 20.5t-59 -3q8 16 8 35l-8 133q0 52 -57 66q22 16 18 37q37 26 37 52q0 25 -11 42.5t-11 29.5t8 24.5t8 34.5t-31 62v7q0 8 4.5 11t14.5 15t10 36t2 32l19 -2q6 0 26 10l-2 16q0 20 17.5 28.5t27.5 20.5q14 -2 28.5 8.5t14.5 30.5t17.5 38t15.5 42q14 10 28 10t33 -18
q39 8 78 11t74 22q20 -2 34.5 -9.5t39 -17.5t59.5 -2q16 -4 26 -21.5t20 -17.5t52 21q4 -33 21.5 -46.5t40 -20.5t45 -13t37.5 -25q-11 -15 -11 -38q0 -24 11.5 -45.5t11.5 -37.5q0 -98 -25 -98q-19 -19 -30 -84q-16 -8 -37 -11t-32 -15t-18.5 -12.5t-15.5 1.5t-15 2t-13 -6
q-14 31 -34 57.5t-30 59.5q-23 6 -30 30.5t-11 38t-16 21.5q4 10 12 20.5t8 25.5t-8 21.5t-20.5 7.5t-25.5 -2t-23 -3t-14.5 6t-16 19.5t-48.5 13.5q-36 0 -57.5 -15.5t-32 -33t-17.5 -28.5t-30 -3q-10 -16 -19 -30.5t-5 -35.5l-23 4q-50 0 -56.5 -16.5t-5.5 -31.5t1 -33
t-21 -29q-6 -15 -6 -37t29 -80q-10 -16 -21.5 -34t-11.5 -36t4 -24q53 -37 53 -90l37 -18q37 -19 95.5 -49t79.5 -30q22 0 29 18.5t15 33.5q14 -3 19.5 -21t10 -26.5t18.5 -8.5t35.5 8.5t29.5 26.5q-6 51 25 80h12q24 0 51 21.5t42.5 29.5t35.5 4q16 8 32.5 25.5t33.5 17.5
l28 -16q11 6 23 6z" />
    <glyph glyph-name="d" unicode="d" 
d="M553 784q-18 0 -51 -26q-6 2 -30 2t-38 -27.5t-31 -46.5q-8 8 -15 8t-13 -7t-17 -9q-34 -49 -34 -88q-36 -29 -20.5 -68t20.5 -61q-23 -36 -4.5 -64t26.5 -49q-6 -10 -21.5 -22.5t-15.5 -25.5q0 -40 13.5 -80t33.5 -50h6q26 0 38 -32t18 -44t17 -5t22.5 14.5t28 7.5
t26.5 -10.5t23.5 -21.5t33 -21.5t54 -10.5t57.5 14v9q0 16 11 23t44.5 24.5t57.5 60.5l-5 15q0 23 12.5 42t-1.5 41q4 25 18 40.5t36 37t9 72.5q30 37 14 75t-18 62q-62 34 -78 101q-18 10 -40.5 49t-41.5 51q-6 -2 -13 -2t-16.5 14.5t-25.5 9.5l-37 -8q-10 -8 -10 -22
t10 -33l-16 -4q-4 14 -11.5 39.5t-25.5 25.5zM1062.5 166.5q38.5 -43.5 49.5 -43.5q12 0 25.5 9t31.5 9q57 0 76 -27.5t29 -72.5l-19 -31h-8q-22 0 -39 -22l-78 12q-27 0 -40 -18q-68 45 -136 28q-56 21 -72 21q-26 0 -80.5 -24.5t-66.5 -51.5q-31 25 -60 25t-44 -9.5
t-31 -9.5t-27.5 13.5t-24.5 13.5t-20.5 -8.5t-11.5 -12.5q-57 71 -88 92q-23 -4 -31 -23.5t-20 -35.5q-8 10 -14.5 35.5t-13.5 35t-23 13.5l-33 -25q-2 7 -2 41t-8.5 45t-19.5 17t-19 11t-8 15l2 9q28 11 28 34t-12 35l4 33q-37 26 -37 39l6 129q0 74 -41 100q10 98 54 152
q-10 16 -11 33q0 14 17 14q14 -21 25 -21q24 0 43.5 33.5t19.5 60.5q0 26 26 25q10 21 27 21l8 -2q4 -18 21 -19q12 0 23.5 7.5t23.5 -3.5q14 -2 24.5 4.5t39 23.5t67.5 17q40 0 56 9.5t28 20.5t20.5 19.5t10.5 8.5q13 -51 41 -51q20 0 42.5 13t22.5 31q0 28 -22.5 57
t-24.5 44q-14 10 -31.5 13t-47 8.5t-42.5 33.5q-29 8 -44 17.5t-43 9.5t-64 37q-2 20 17 27.5t24 23.5l159 55q27 0 50.5 -10t48.5 -14l26 18q23 -8 41.5 0t39 8t30.5 -8q29 6 42 -14.5t20 -33.5t18 -22l-2 -14q0 -18 4 -38.5t9 -53t-11 -61.5q12 -39 17 -78t15 -78l-14 -33
q4 -47 -13.5 -88t-17.5 -83t41 -75q7 -22 -0.5 -61t-7.5 -58.5t12 -37.5q-8 -23 -7 -44.5t-7 -43.5l19 -41q0 -27 -12.5 -51.5t-12.5 -44.5t38.5 -63.5z" />
    <glyph glyph-name="e" unicode="e" 
d="M614 776q-23 0 -45.5 17.5t-42.5 17.5q-27 0 -39 -29t-20 -61q-8 -4 -18 -4t-22.5 14t-36.5 14t-31 -18q-13 -35 -35.5 -51.5t-38.5 -30.5l-2 -18q0 -36 12 -52q25 -8 67 -8t91 29q16 -6 29.5 -3t26.5 3t21 -4q14 -35 32 -35t35 13.5t35 13.5t26 -5.5t13 -5.5t10 6.5
t20 19.5t31 13q17 0 28 -6q31 15 37 70q-10 12 -18.5 19t-2.5 26q-18 10 -38.5 22.5t-43.5 12.5q-6 21 -41 32q-16 -12 -39 -12zM1063 672l22 -113q-27 -7 -14 -47q-23 -20 -51.5 -36.5t-28.5 -51.5q-14 -10 -26 -10l-66 14q-22 0 -39 -18.5t-29 -18.5q-10 37 -20 43
t-21.5 3t-23.5 -8t-27 11q-20 -12 -39.5 -4t-35.5 8t-31 -10q-16 4 -39 0t-37 -4t-25.5 -9t-26.5 -9t-32.5 17t-59.5 17t-54.5 -8t-15.5 -19t-5 -23.5t-21 -20.5q-2 -10 -5 -17.5t-3 -17.5q15 -24 53 -51q2 -23 17.5 -36t35 -24.5t40 -21.5t32.5 -29q10 -12 22.5 -4t24.5 8
t17.5 -12t11.5 -25.5t14.5 -26t27 -12.5t21.5 12.5t46 12.5q26 0 82.5 53.5t56.5 60.5l-16 36q16 8 36.5 12t51.5 16t28 53q53 37 113 13q23 -25 30.5 -57.5t30.5 -59.5q-12 -16 -21 -27.5t-13 -23.5t-4 -25.5t10 -34.5q-8 -18 -25.5 -22t-35 -7t-32 -10.5t-16.5 -29.5
l-14 -15q24 -18 44 -18t28 -14l-15 -13q-18 -2 -32.5 10.5t-29.5 12.5q-35 0 -89 -19.5t-58 -48.5q-16 -8 -33.5 0.5t-34.5 8.5t-27.5 -14.5t-29.5 -14.5l-6 2q-6 25 -36 25t-59 16t-48 6q-14 8 -32.5 9t-36 4t-30 11.5t-14.5 32.5q-27 23 -61.5 28t-61.5 28q5 26 -4.5 43.5
t-26 45.5t0.5 58q-23 47 -97 57l-2 19q21 0 45 24q-4 14 -2 25.5t2 26.5v12q-36 24 -36 42q0 26 24.5 60.5t24.5 49.5l-4 18q-20 6 -37 39q4 12 15 16t22.5 8.5t19.5 10.5t6 22q7 14 29.5 70t36.5 63l-13 17q-12 4 -23 -2t-24 -6q-18 0 -18 26q0 4 29 4l63 -4q36 0 53 19
l-4 32q16 10 38 5t38 -5q35 0 39 39q23 6 45 5t48 -1t49 8.5t59 8.5t79.5 -8.5t90.5 -8.5q8 0 20 -18q28 0 52.5 -38t52.5 -38q-6 -31 13 -51.5t30 -38.5l6 2q15 0 27 -20t28 -17q14 -8 14 -18t-9 -17.5t-9 -27.5z" />
    <glyph glyph-name="f" unicode="f" 
d="M850 1022q0 16 -13.5 35t-13.5 35t6 26q-4 20 -20.5 33.5t-36.5 13.5t-48 -12t-30 -29h11q10 0 10 -13q-1 -13 -11 -13t-18 10t-20 10h-7q-12 -25 -12 -45t4 -29q19 -8 32 -29.5t22.5 -29.5t39.5 -8t37 31l6 2l31 -6q31 -5 31 18zM397 1045q0 15 13.5 19.5t43 13.5
t29.5 81q0 27 10.5 48.5t10.5 40.5t8 27.5t18.5 16.5t21.5 15.5t15 17.5q23 -2 37 -21.5t32 -19.5q21 0 45.5 20.5t47.5 10.5q18 10 33.5 19t37.5 9t39 11.5t50 -0.5q8 12 22 12t35 -35q16 -6 34.5 -4t41.5 2t53.5 -30.5t71.5 -102.5t41 -131v-45q-2 -29 -23.5 -27t-43.5 2
t-36 -32l-20 -7q-16 14 -48 13.5t-50 1.5q-12 -10 -26.5 -1t-20.5 19l-29 4l-33 -18l4 -57q3 -73 -25 -74.5t-47.5 4.5t-37.5 6l-31 -23h-23q-49 5 -59 -42.5t-10 -63t12 -57.5q-14 -32 -3 -56t18.5 -35t7.5 -29t-12.5 -35t-12.5 -37t13.5 -30t21.5 -24q0 -23 -12.5 -41.5
t-12.5 -40.5l4 -16q27 -11 27 -33q0 -23 -14.5 -39t-14.5 -33t15 -39q14 -10 27.5 -26.5t25.5 -16.5q14 0 57 18t53 33h7q16 0 25 -10t18.5 -23.5t19.5 -25.5t27 -14q10 -12 10 -31l-4 -47q-21 -5 -38 -28t-27.5 -32.5t-20.5 -9.5t-22.5 6.5t-41.5 20.5t-49 14
q-26 0 -48.5 -20t-45.5 -17q-14 -14 -24 -14t-22.5 14.5t-29.5 12.5q-38 -30 -68.5 -9t-46.5 21t-35 -13.5t-41 -13.5t-37.5 22.5t-31.5 39.5l-2 6q0 10 6 13t19.5 8.5t13.5 31.5t41 49h4q14 0 15 3l12 21q10 17 17 17t15 -8q4 -14 -6 -23.5t-10 -19.5t9 -18.5t19 -8.5
t20.5 9.5t23.5 11.5q24 40 24 182q0 10 -17.5 16.5t-17.5 12.5q0 33 18.5 85t18.5 99l-9 28q-9 29 -1 38q-8 12 -33.5 102t-25.5 111q0 32 -54 32q-29 0 -55 -15t-50 -15t-32 19.5t-22 29.5l-4 41q0 57 58 49t73 -8l45 14q23 -3 35 22.5t12 45.5q-6 6 -27.5 10t-30 6
t-8.5 17z" />
    <glyph glyph-name="g" unicode="g" 
d="M466 -395q30 0 42 18l10 2q12 0 20 -22.5t29 -22.5t31 16.5t15 23.5t15 7t20.5 -10t8.5 -27q3 -14 17 -14t25.5 7t25.5 5q18 22 68.5 27.5t74.5 14.5t42 22.5t31 30t25.5 36t32.5 43.5q11 -10 25 -10t37.5 21t23.5 37t-24 43q-27 -2 -40 13t-24.5 34.5t-23.5 39t-37 25.5
l-16 -2q-16 0 -22.5 11.5t-11.5 24.5t-12.5 25.5t-33.5 14.5t-61 15.5t-65 13.5t-52 -15q-15 6 -39 6l-138 13q-27 0 -45 -17.5t-40 -17.5t-35 9t-34.5 9t-18.5 -43t5 -49q-8 -16 -11 -16l-52 14q-7 0 -16 -18q-23 -6 -27 -20.5t-5 -31t-5 -31t-25 -20.5q-8 -16 -8 -36
t20.5 -45t20.5 -56q12 -12 29.5 -9t33.5 5q20 -16 26.5 -41t23.5 -43q23 4 71 45q9 0 26 -27.5t47 -27.5zM292 130q14 -30 34 -30t31.5 14.5t16.5 35t7 42t6 35.5v4q2 16 -21.5 27.5t-42.5 11.5t-40 -26l-72 28q-23 -10 -18 -32v-9q12 -16 17.5 -38.5t21.5 -29.5t22 -5t15 2
t23 -30zM387 782q-24 0 -71.5 -60.5t-47.5 -78.5t17 -41l2 -14q0 -17 -4 -37q-31 -9 -17 -51q10 -12 20.5 -27.5t30.5 -13.5q10 -23 30 -35t56.5 -30.5t53.5 -49.5q9 -6 27 -6t32 12t38 12q42 0 99.5 66.5t57.5 87.5q0 42 -37 55q-4 12 -4 17l14 63l-2 17q-31 25 -53.5 55.5
t-48.5 58.5q-23 2 -38.5 19.5t-36.5 17.5t-31.5 -7t-19 -16.5t-14.5 -16.5t-8 -7zM807.5 198.5q51.5 20.5 66.5 20.5q16 0 44.5 -23.5t51.5 -23.5t34.5 -13.5t39 -40t91.5 -14.5l122 -129l-2 -28q-2 -43 16.5 -84t18.5 -78t-16.5 -65.5t-39 -56.5t-46 -56.5t-37.5 -57.5h-8
q-23 0 -40.5 -14t-39.5 -14t-28.5 -13.5t-19 -36.5t-42.5 3l-17 2q-23 0 -44 -12.5t-42 -22.5q-20 14 -49 14t-59.5 -12t-63.5 0l-45 -35q-54 41 -153 41q-78 55 -170 62q-16 23 -43 42t-29 50l-47 16q-15 20 -38 28.5t-32.5 18.5t-14.5 34t-9 52.5t-21 38.5q27 44 32 143
t1 113q18 27 18 59t-15 66.5t-7 54.5l9 23q9 22 9 36t-13.5 33.5t-29.5 34.5t-19 16q36 -12 76 12t44 69q-10 20 -27.5 35.5t-17.5 34.5t14 49t14 61l-34 143q31 4 40 20.5t19 43.5l45 -7q40 50 35.5 59t-11 15.5t-6.5 22.5t16 16t19.5 -10t8.5 -33.5t30 -23.5q14 0 35 25.5
t27 30.5t46.5 5t53.5 16q37 0 68.5 -19.5t65.5 -19.5t64.5 10.5t63.5 6.5q18 31 35.5 45t55.5 14q128 0 239.5 -36.5t111.5 -139.5q0 -109 -136.5 -121.5t-143 -26.5t-6.5 -17l6 -50q0 -57 -10.5 -96t-14.5 -41l2 -8q0 -16 -7 -19.5t-23.5 -12.5t-16.5 -39q0 -29 -9 -41.5
t-23.5 -23t-29 -19.5t-22.5 -17q-41 -6 -64.5 -16.5t-27.5 -57.5q16 -31 43 -31t78.5 20.5zM81 370q-10 3 -15 13q6 -5 15 -13z" />
    <glyph glyph-name="h" unicode="h" 
d="M1042 653l-18 -79q0 -16 10 -32t10 -33t-13 -32.5t-13 -42.5t12 -82t12 -109t24 -75t52.5 -31t53 -18t26.5 -29q18 -10 18.5 -32.5t-11 -28.5t-26 -9.5t-27.5 -7.5t-17 -22l-146 -13q-25 0 -40 4.5t-28.5 8.5t-32 4t-48.5 -8q-41 10 -70 35.5t-29 31.5t25 25.5t79 71
t54 94.5q0 14 -15.5 24.5t-15.5 25.5t10.5 34.5t10.5 44.5t-29 49v12q0 20 18.5 29.5t18.5 30.5q18 24 18 34t-4 19q-30 11 -30 31t10 36t10 40t-70 104h-8q-16 12 -32.5 26.5t-38.5 14.5l-13 -2q-11 -19 -36 -21t-39.5 -4t-24.5 -14q-58 10 -124 -54.5t-54 -111.5
q-9 -14 -41.5 -27.5t-41.5 -29.5q-9 -15 -12.5 -29t-11 -41t-26.5 -35l-2 -10q0 -10 19.5 -21t19.5 -26q0 -14 -13.5 -29.5t-13.5 -33.5t15.5 -28t15.5 -26t-9.5 -29.5t-9.5 -26.5t10 -28q25 -2 33 -13.5t23.5 -35t87.5 -23.5q20 0 25.5 -18.5t9.5 -34.5l-33 -47q-8 8 -21 8
t-28 -10q-5 -26 -78 -2l-21 -19q-4 27 -16 32t-38.5 23.5t-29.5 127.5v14q-25 19 -23.5 44.5t3.5 40.5t0 32q4 8 4 25t-6 37t2 40q-18 16 -9 41t11 38q3 18 -13 61.5t-16 59.5q0 15 13.5 37.5t13.5 61.5t-19.5 97.5t-19.5 86.5t11.5 44t11.5 33.5t-27.5 52t-17.5 57.5
l-76 88q0 10 14 26.5t44 52t18 62.5l22 -39l59 -8q10 21 33 21l8 -4q28 -45 13 -76l30 -70q-4 -25 -15 -48.5t-11 -53.5t26 -45q-3 -20 -26 -43t-23 -41q0 -60 68 -60q11 0 41 6l18 29l15 -2q39 0 89 24.5t77.5 36t54.5 11.5t39 19.5t22 33.5q24 -24 69.5 -31.5t67 -13.5
t36.5 -24t26.5 -38t38.5 -18q29 -33 39.5 -103.5t31.5 -101.5z" />
    <glyph glyph-name="i" unicode="i" 
d="M723 826.5q0 -33.5 39 -74.5q-4 -18 -17.5 -32.5t-13.5 -35.5l19 -29v-43q0 -68 16 -72.5t39 9.5l4 -17q0 -6 -18.5 -15t-18.5 -19q-6 -10 -6 -20.5t1.5 -30t-7.5 -31.5q0 -14 12 -37t15.5 -35t-5.5 -27q8 -8 8 -18t-13 -13t-13 -16l4 -14q14 -2 15 -9t8.5 -21.5
t76.5 -14.5q23 0 29 -25q35 -9 66 19l16 -37l16 4q21 0 37.5 -29t34.5 -32q6 -12 6 -25.5t-20.5 -41t-3.5 -48.5q-15 -18 -33 6q-41 -14 -64 -39q-27 6 -54.5 4t-76.5 -2t-84 21q-11 -6 -47 -6t-92.5 12t-90.5 12t-52.5 -9t-35.5 -9q-47 0 -132.5 40.5t-85.5 75.5
q0 24 43 26.5t57 29.5h8q19 -3 35 16t27.5 23t29.5 -11q40 3 44 11t1.5 16.5t-2.5 22.5t7.5 16t16.5 1t19.5 -4t19.5 -3t17 8l13 41l-17 27q47 18 60 36q-4 37 -20.5 49.5t-47.5 28.5q8 16 8 29q0 23 -24.5 27t-40.5 8q6 17 33.5 22.5t40 11t12.5 17.5l-13 29q6 21 -10 26.5
t-24.5 8.5t-8.5 14l2 10l13 -2q28 0 43 37q-14 8 -18.5 23.5t-9.5 30.5t-13 26.5t-29 9.5q-12 12 -13 22.5t-8 19t-77 -10.5q-15 8 -46 33.5t-50 25.5q-4 16 -19.5 26.5t-15.5 28.5q0 27 12 27l96 -4l19 14l-4 27q4 2 26 2t33 10l2 47q0 23 -16.5 33t-32.5 25q0 8 11 30
t3 35q4 45 14.5 56.5t49.5 11.5t55 18h6q38 -3 84 43l41 4l21 -4q4 -16 -3.5 -31.5t-7.5 -25.5q0 -13 39 -40.5t47 -27.5l4 -35q-22 -14 2 -41l-38 -26l4 -45q-6 -4 -12.5 -10.5t-18 -16t-27.5 -2.5l-8 12l-31 -26l25 -29l10 4q23 0 36 -20.5t24 -34.5l28 -4
q-14 -25 -14 -58.5z" />
    <glyph glyph-name="j" unicode="j" 
d="M810 938q13 0 25.5 19.5t12.5 28.5t-2 13h-6q-41 6 -49 -26q4 -10 5 -22.5t14 -12.5zM942 698q4 -27 -7 -49t-11 -47t16 -41q-18 -41 -6 -83t12 -81t-11 -74.5t-11 -63.5t7 -47t-3 -42q20 -28 17 -116.5t3 -112.5q-27 -27 -25.5 -62t1.5 -67t-13.5 -55t-30 -43.5t-34 -43
t-23.5 -53.5h-6q-57 2 -87 -19.5t-58 -68.5q-16 49 -26 49l-107 -10q-95 0 -133.5 40t-51.5 40q-16 18 -26.5 42.5t-38.5 33.5q-24 54 -3 129t44 106q15 8 50.5 2.5t53.5 9.5q10 -6 24.5 -10t35 -11t16.5 -40l18 -10q4 12 11.5 25.5t21.5 8.5v-38q-35 -16 -43 -50l2 -12
q0 -20 -12 -36.5t-12 -37.5l4 -18h4q18 0 33.5 16.5t22 23.5t18.5 7t16 -14.5t8 -24.5l31 -4q23 0 31 8t14 31q25 -25 43 -25q59 0 41.5 57.5t-19.5 67.5q48 18 48 86q0 33 -31 64l45 45q-12 70 -12 84t11 28t11 38t-16.5 53.5t-16.5 54.5t21 57q-12 24 -12 45v158
q0 31 12 66.5t12 55.5q0 29 -37 61t-51 32q-16 0 -36 -21.5t-35 -21.5t-21 10.5t-20.5 32t-58.5 21.5t-48 19t-2 52q37 10 74.5 27.5t44.5 62.5h12q7 0 25 -22.5t28 -24.5l41 17l8 47q-55 20 -79.5 70.5t-34.5 103.5q18 37 20 53t4 22.5t14.5 4.5t45.5 -2t42 9t12 22.5
t3 28.5t6 28h6q14 0 23.5 -15.5t15.5 -21.5t19 -6q8 -4 20 -5t32.5 -3.5t25.5 -17.5t0 -40.5t-5 -52.5t25 -57q-5 -74 -49 -103q0 -50 40 -150.5t40 -130.5q0 -31 -23 -51z" />
    <glyph glyph-name="k" unicode="k" 
d="M729 72q0 14 29 28q8 16 16 30.5t8 31.5l-14 28q-20 12 -40.5 46t-43 69t-47.5 61.5t-51.5 26.5t-38.5 -18.5t-22.5 -41t-25 -40t-44.5 -14.5q-16 -12 -21.5 -31t-21.5 -31q0 -62 18.5 -87.5t34.5 -25.5t20 19.5t15 19.5l8 -4l-6 -12q0 -12 33 -27q6 -14 21 -14t26.5 9
t29.5 9t17 -19q0 -19 -9.5 -28.5t-25.5 -23.5t-10 -35q-20 16 -38 16t-25 -10t-22 -10t-28 19.5t-27 19.5t-21 -10.5t-11 -23.5t-8.5 -25.5t-6.5 -18.5q-15 59 -42 59t-37.5 -17t-24.5 -17t-27.5 21.5t-19.5 31.5q20 25 23 54.5t7 59.5l48 29q-9 72 -27 125q6 16 25.5 45
t19.5 40q0 13 -21 41t-12 50q-6 10 -6 13v30q0 28 -14 39q5 40 22 62q0 31 -11 158.5t9 185.5q-12 35 -10 66.5t-1 70.5t-91 39q-16 0 -31.5 9t-19.5 24l-41 4l-2 6q0 16 19.5 20t29.5 6q10 8 27 43.5t57 3.5q8 11 24.5 7t24.5 -4t14 10q23 -10 48.5 -10t39.5 -25l23 4
q16 0 24 -10q2 -20 7.5 -39t5.5 -38t-5.5 -28.5t-16.5 -36t-11 -112.5q0 -1 -8 -33q8 -23 -6.5 -40.5t-14.5 -37.5t17.5 -42.5t17.5 -65.5l-8 -215q0 -27 -9.5 -50t-9.5 -41t6.5 -33.5t8.5 -23.5l31 19q0 20 14 31.5t43 29t20 57.5q37 24 81 86t79 86q0 20 18.5 33t26.5 20
t8 25t-20.5 31.5t-42.5 11.5h-8l-39 -32l-8 96q0 41 18 65h6q16 0 27.5 -17t18.5 -24.5t25 -7.5t40 11.5t42 11.5t26.5 5t13 9t12.5 4t14 -10q11 14 33.5 12t32.5 -2t20 10q23 -2 40.5 -17t39.5 -15l72 45q16 -10 31.5 -20.5t37.5 -12.5q2 -4 4.5 -8t2.5 -12
q0 -10 -26 -27.5t-19 -38.5q-26 -33 -31 -33l-64 6q-49 0 -112.5 -75.5t-75.5 -81.5l-6 -43l-15 2q-27 0 -38 -26t-17 -41t-14 -26q25 -84 64.5 -126t39.5 -73q0 -53 28.5 -92t61.5 -6q17 -62 86 -129q24 24 44 6t38 -18h4q16 37 41 37q15 0 32.5 -31t21.5 -35
q-16 -14 -18.5 -35.5t-6.5 -41.5l-51 -9q-19 23 -38.5 16t-29.5 -9q-15 -18 -48.5 -9t-49.5 -2q-27 23 -61.5 16t-65.5 -3q-12 18 -33.5 21t-55.5 8t-34 57z" />
    <glyph glyph-name="l" unicode="l" 
d="M739 950q0 -16 -18.5 -34t-18.5 -42t8.5 -37.5t8.5 -29.5t-13.5 -30.5t-6.5 -36.5t11.5 -33t4.5 -35t-23 -51l2 -48q23 -2 29 -10t5 -20.5t-6 -26.5t-5 -24t9 -24t9 -30q0 -20 -20.5 -51t-20.5 -49q0 -41 28.5 -122t65.5 -81h13q8 8 16.5 17.5t22.5 9.5t24 -12.5
t32 -12.5t43.5 11.5t39.5 11.5t35 -8q8 -20 24.5 -26.5t44 -17.5t27.5 -56t-33 -83q-29 16 -59 17l-23 -4q-13 -21 -42 -21q-128 0 -150 25q-20 4 -42 10t-38 6t-26.5 -7t-19.5 -14.5t-19.5 -14.5t-22.5 -7t-29 12q-10 39 -41 39t-55.5 -10t-50.5 -6q-10 -4 -8 -11.5
t2 -17.5t-11 -10l-26 2q20 19 20 31q0 17 -56.5 28t-68.5 17l-32 -25l-3 -20l-8 -2q-21 0 -24.5 22.5t-5.5 36.5t-11 23q6 10 8.5 25.5t8 39t32.5 23.5q62 -30 86.5 -37.5t30.5 -9.5q4 25 26.5 26.5t41.5 5.5l28 -32q44 6 71.5 65.5t27.5 73.5t-4 31.5t-10 45.5t14 54
q-8 23 -21.5 44t-13.5 43t14.5 38t14.5 54t-3.5 65.5t5.5 68.5q-4 10 -14.5 22t-10.5 30t16.5 31t16.5 30l-8 14q0 13 -19.5 21.5t-19.5 17.5q0 8 15 36t15 46l-4 16q-31 10 -31.5 30t-0.5 38t-13.5 29.5t-66.5 3.5q0 34 -25.5 58t-43.5 24t-28 -12.5t-14 -28t-7 -27.5
t-18 -12t-24.5 8t-16 20.5t-11.5 24.5t-17 23l57 135q23 -10 37 -29.5t43 -15.5q8 -13 24.5 -15t26 -3t15.5 -9l30 14l11 37q18 -2 24 -19.5t20 -17.5t21.5 6.5t14.5 10.5l92 -6l55 -66l4 -63q0 -31 -22 -45v-52q8 -10 20 -20.5t12 -26.5z" />
    <glyph glyph-name="m" unicode="m" 
d="M547 805q0 29 -66 29q-19 0 -37 1t-34.5 -7t-16.5 -37t-6 -50q-60 0 -80 -47v-14q2 -12 -12 -53q8 -14 32.5 -19t30.5 -20q-10 -27 -36 -19q-19 -11 -15 -32t3 -33t7.5 -17.5t19.5 -9.5t20.5 -9t9.5 -19q-8 -6 -20.5 -9.5t-34 -10.5t-21.5 -34t19.5 -49t19.5 -40t-8 -34
q-25 -12 -25 -27q0 -18 28.5 -52t28.5 -52q23 -12 46.5 -38.5t43.5 -26.5q31 0 64.5 35t23.5 59q4 10 15.5 12t7.5 17q33 14 33 41t-16.5 58t8.5 64q-11 11 -16.5 41.5t-22.5 38.5q0 24 10 39t10 33t-8 35.5t-8 38.5t13 37t13 48t-12 64.5t-12 67.5zM700 612l17 -68
q0 -13 -10.5 -28.5t-10.5 -35.5t14.5 -40t8.5 -45l2 -24q0 -29 -21 -54q6 -23 15.5 -42t-4.5 -42q24 -47 63 -67l-4 -19q0 -23 12.5 -40t10.5 -39q6 -6 6 -16.5t-4 -22t0 -21.5q-17 -6 -40.5 -27t-47.5 -14l-13 -6q-27 4 -69.5 18t-98.5 3q-43 39 -98 38q-10 0 -19.5 -2
t-19.5 -4q-16 -16 -36.5 -37.5t-42.5 -21.5t-33 4t-27 7.5t-49 -11.5q-28 28 -85 45t-87 35q28 0 40.5 27.5t21.5 38t32 8.5q35 35 35 83t-17 91q2 10 9.5 16t20.5 17t13 26q0 14 -24.5 49t-5.5 90q-14 15 -14 35q-1 49 8 90.5t26 50.5q-14 63 -14 115t-9.5 64t-22.5 20
t-27.5 14.5t-26.5 16.5q4 29 27.5 43t45.5 26q14 -10 30 -16l44 -16.5t45 -30.5l37 -4q6 6 11 16t14.5 26.5t24.5 16.5t27 -9t26 -9q22 0 38.5 23.5t20.5 23.5t27.5 -10.5t81.5 -33t92 -22.5q33 0 65.5 17.5t69.5 17.5h16q11 -16 29 -16t33.5 13t35.5 13l31 -18l35 -6
q35 -6 45 2q49 -6 61 -27q-2 -29 4.5 -55.5t6.5 -54.5l-4 -33q-23 -14 -23 -42t2 -40t5 -32t-9 -60q23 -37 23 -80t2 -84v-27q18 -23 18 -44t-9 -43t-9 -70t7 -71.5t21.5 -27.5t34 -4t43.5 -24l35 -6q-4 -14 -2 -28.5t2 -28.5t-10 -27l-17 -50q-19 16 -77 10.5t-87.5 -8
t-37.5 4.5l-25 -7q-16 18 -42 17.5t-46 -0.5q-16 -8 -21 -8q-14 0 -14 12q10 14 16 59t21 62l-2 16q0 17 19.5 27t28.5 19t9 28l4 233q0 20 15.5 36t15.5 34t-13.5 36t-13.5 30t14 32.5t21 40.5q-12 20 -15 44t-13.5 61t-57.5 43q-23 56 -67 75q-8 -23 -24 -23.5t-34 -0.5
t-30.5 -14.5t-21.5 -34t-16 -40t-14 -32.5l19 -66q0 -11 -19 -49z" />
    <glyph glyph-name="n" unicode="n" 
d="M215 62q0 -8 10 -7q10 0 11 13q-1 4 -4 2t-10 -1t-7 -7zM276 88q0 -4 -6 -3t-6 -3l2 -2h10v8zM420 330q-51 -32 -51 -55q0 -30 26.5 -62.5t12.5 -65.5q23 -16 49 -10t53 4h8q10 -18 4 -38.5t10 -36.5l-18 -39l-65 12q-8 0 -35.5 -6t-61.5 -6t-40.5 -6.5t-10.5 -14.5
l-8 -2q-18 0 -32 18.5t-46 18.5t-52 3t-20 22q0 14 11.5 23t11.5 24l29 -15q7 19 34 38.5t38.5 31.5t8.5 31v6q-14 16 -20 34.5t-12 34.5q26 13 26 47t-8 62q-32 25 -21 81.5t5 78.5q6 7 6 27t-19.5 39.5t-19.5 42.5t27 38l2 12q0 10 -6.5 18.5t-15.5 22.5t9 29v16
q2 12 -6 16.5t-20.5 7.5t-24.5 5t-18 8q-10 4 -23.5 2t-23.5 -2q-31 0 -37 27l20 51q12 6 51.5 11t57.5 30q35 -7 43 -20q57 0 89 -41t46.5 -59.5t32.5 -18.5t30 6q0 8 67 56t81 48q33 12 67.5 14.5t69.5 6.5q29 41 57 41q8 0 24.5 -17.5t23.5 -23.5q10 -2 19 -1t23 1
t25 -12q2 -25 16.5 -42.5t44.5 -49t27 -66.5q19 -16 29.5 -53.5t21.5 -50.5q-2 -23 -15 -38.5t-13 -37.5l20 -31l-2 -16q0 -23 9.5 -42.5t9.5 -41.5t-31 -35q2 -14 1 -30.5t0.5 -42t29.5 -38.5q-4 -16 -15.5 -28.5t-11.5 -25.5t18.5 -30.5t42 -36t46 -35t32.5 -28.5
q-10 -25 -3 -51.5t7 -46.5q0 -31 -94.5 -65t-218.5 32q-23 -12 -50.5 -9t-49.5 -14q-4 27 -21.5 46t-17.5 41t10 32q10 6 14 17.5t10.5 23t25.5 6.5q18 -6 28.5 -6t25.5 10l9 33q-12 10 -33 12t-21 25q6 8 16.5 11t22 7t19.5 9.5t8 15.5t-13.5 29.5t-13.5 54.5q41 20 41 44
q0 26 -23.5 53t-23.5 47q0 19 14 38q-6 22 19 64q-6 10 -4 26.5t2 44t-29 27.5q-14 0 -23.5 -9t-23.5 -9l-12 4q4 16 5 33.5t17 27.5l-2 53q-26 20 -60 20t-47.5 -8t-19.5 -17t-15 -17t-40 -8t-40 -5.5t-11 -14.5t2 -22.5t8 -27.5q-10 -10 -26.5 -7t-32.5 3t-20.5 -16.5
t-12.5 -41t-26.5 -53t-67.5 -53.5l16 -37q22 15 32 15q9 0 15 -7q-6 -10 -18.5 -19t-24.5 -18.5t-21.5 -19.5t-9.5 -25t27 -35.5t33 -37.5z" />
    <glyph glyph-name="o" unicode="o" 
d="M795 436q0 20 11 36t11 34t-14.5 26.5t-14.5 24.5l13 45q0 16 -11.5 35.5t-27.5 24.5q-10 12 -24.5 27.5t-8.5 35.5q-38 69 -111 71.5t-101 2.5t-49.5 -15.5t-47.5 -13.5q-10 -20 -28.5 -34.5t-49.5 -42t-31 -68.5q0 -10 14.5 -16.5t14.5 -18.5q0 -16 -27.5 -21
t-27.5 -40t22 -70l23 6q14 -14 14 -25q0 -20 -18.5 -15t-28.5 5q-16 0 -24.5 -23.5t-8.5 -38.5t16.5 -22.5t35 -12.5t32.5 -10.5t9 -18.5t-12 -27.5t-7 -21.5q0 -15 31.5 -45t38.5 -30q10 0 25.5 20.5t30.5 20.5q28 0 28 -22q0 -17 -6 -17l-52 6q-4 -8 -4 -12q0 -37 39 -37
q25 0 66 33q25 -4 47 -23.5t39 -19.5q43 0 77 39l9 -2q12 0 21 6t20 10q5 7 36 99t31 116v4q-20 15 -20 35zM908.5 762q-13.5 0 -13.5 -28t20 -29q8 0 13.5 9t5.5 15t-6 19.5t-19.5 13.5zM1112 575.5q0 -10.5 -4 -20.5t-6 -20l-35 -27q14 -24 14 -74q0 -49 -6 -76
q-24 -18 -24 -31.5t8 -29.5t8 -33l-4 -55l-19 8l3 -8q0 -10 -8.5 -16.5t-4.5 -18.5q-25 -8 -35 -30.5t-30 -34.5h-6q-14 0 -18.5 -5.5t-13 -17.5t-40.5 -12t-44.5 -16.5t-29.5 -26.5q-12 -35 -14 -50.5t-8.5 -19.5t-21.5 -2t-50 2t-47 -20q-29 10 -55.5 4t-55 -6t-49.5 14
q-23 -6 -48.5 12.5t-40.5 28.5t-32 10q-42 -24 -57 -24t-27 6l-2 10q0 14 8.5 24t8.5 28t-14.5 23t-31 8t-30.5 12t-14 31t-9.5 30t-29.5 24.5t-23 36.5q6 7 6 23t-11 31.5t-29 41.5t7 51v11q0 25 -16 44t-16 41t13 33t13 30t-10 32t-10 27t14.5 27t46 64.5t37.5 176.5v6
q39 8 73 25.5t91.5 45t98.5 27.5t63 14.5t43 16.5l28 -18l21 6l102 -4q9 -17 103 -54t100 -32q16 -6 25.5 -23.5t17.5 -34t18.5 -30t32.5 -13.5q20 -55 -2 -108q14 -9 27.5 -31.5t22 -32.5t22.5 -14q6 -6 6 -16.5z" />
    <glyph glyph-name="p" unicode="p" 
d="M791 601.5q-22 20.5 -19 41.5q-14 25 -34.5 30t-29.5 45t-94 40h-59q-16 0 -19.5 -12.5t-9 -35.5t-41.5 -14q-22 -10 -49 -53q4 -11 4 -29t-19.5 -38.5t-19.5 -40.5t15 -46q-6 -10 -14.5 -3.5t-16.5 6.5q-27 0 -27 -6l7 -60q0 -16 -3 -20l-19 -21q-15 -18 -15 -35
t27.5 -36t50.5 -17q6 -47 50 -71.5t63.5 -36t19.5 -25.5l-13 -41q0 -10 10 -21.5t26 -11.5t36 7t48 7t46 19q2 23 35 71t27 87q4 12 12 12q9 0 24 -19.5t27 -19.5h4q31 26 31 49t-43 238q4 12 4 26t-22 34.5zM725 829q0 -10 5 -10t7 2v2q0 8 -3 8t-9 3v-5zM1069 584
q0 -22 6 -35.5t13.5 -27t13.5 -28t6 -31t-8 -29.5t-15 -25l-22 -11q2 -39 -8.5 -77.5t-10.5 -75.5t-24.5 -63.5t-30.5 -57.5q-40 -35 -102 -115l-60 6q-8 -6 -23.5 -32t-41.5 2q-23 -4 -45.5 0t-53.5 4t-53 -35h-32q-11 14 -46.5 29.5t-46.5 28.5q-10 13 -13 29.5t-21 22.5
q-33 -12 -52.5 -4.5t-31 9.5t-14.5 -14.5t-3 -58.5t-18 -52l14 -49q18 -2 25.5 -12.5t18 -32t42.5 -21.5q33 0 65.5 -16.5t77.5 -18.5q8 -29 24.5 -53.5t16.5 -52.5q-23 -2 -45 -9.5t-45 -9.5q-12 -18 -26.5 -36.5t-38.5 -22.5l-45 37q-25 -2 -48 10.5t-63 7.5
q-34 -51 -39 -80l-8 -2q-34 0 -22 42t12 48q0 20 -20.5 20.5t-35 -13t-32.5 -17.5q-20 18 -42 32.5t-38 37.5l31 22q14 -6 28 -6q45 0 56 41q6 -4 7 -4h19q21 0 41 8l14 49l-22 33q2 25 0 52.5t-0.5 72.5t31.5 78l-54 280q22 36 6 78.5t-16 83.5t-5 96.5t-9 108.5
q-9 11 -81.5 53.5t-72.5 46.5q0 18 20.5 25.5t24.5 23.5h8q18 0 46 -20q29 8 36 32.5t19 47.5h12q25 0 45.5 -21.5t31.5 -31t29.5 -9.5t60 29.5t58.5 22.5q16 16 20.5 29.5t11 28.5t59.5 26q11 -43 34 -60q20 0 39 11.5t39 5.5q64 28 80 45q20 -12 23.5 -20.5t6.5 -16.5
t38 -8q34 0 42.5 -7.5t24.5 -23.5t39 -10q42 -25 77.5 -89.5t59.5 -91.5q-4 -20 -4 -45l2 -24q29 -14 31 -41t2 -49z" />
    <glyph glyph-name="q" unicode="q" 
d="M525.5 106q24.5 -35 47.5 -32h9q16 14 35 9t45 -5t42.5 31.5t30.5 58.5q11 -4 21 -4q15 0 23.5 30.5t17.5 36.5l-2 9q0 14 7 20t21.5 21.5t14.5 34.5q0 30 32.5 40t32.5 31l-2 16q-17 9 -31.5 39t-40.5 37q-2 2 -5 4t-3 9t12.5 12.5t12.5 26.5t-29 57q4 6 4 24
t-18.5 30.5t-18.5 35.5q-14 6 -30.5 10t-41 19t-24.5 45q-12 4 -30 12t-38 8t-39.5 -19.5t-45.5 -17.5v-8q0 -22 -17 -22l-51 12q-29 0 -42.5 -31t-4.5 -57q-31 -21 -71 -66t-40 -52t7.5 -13t11.5 -15l-39 -41q24 -10 24 -29t-14 -36t-14 -47t53 -105h24q14 0 32 -8t18 -24
l-11 -37v-6q10 -8 21.5 -23.5t23.5 -15.5q18 30 36.5 30t43 -35zM993 172q0 14 -16 14q-6 0 -18.5 -9t-12.5 -18t9.5 -8t13.5 -4q24 5 24 25zM766 838q0 6 -2 6l-4 -8h6v2zM1112 -272q0 -42 55 -41q55 0 68 -64q-29 -4 -51 -26l-68 28q-27 -4 -43 -22.5t-43 -22.5
q-26 33 -41 33l-141 -6q-12 -4 -29 -4t-36 14t-44 8l-71 64q0 44 54 28t73 -16t21.5 17.5t6.5 33.5l15 -2q53 0 53 24.5t-1 39t11 22.5q-10 16 -18.5 40t-34.5 22q3 12 27 20.5t24 35.5q0 28 -15.5 37t-43.5 9q-78 0 -119 -43l-62 4q-21 0 -30.5 -19.5t-20.5 -19.5
q-12 0 -13 11.5t-5 35t-37 23.5q-16 0 -22.5 -15.5t-17.5 -15.5t-17 6q-6 29 -26.5 39t-45.5 16.5t-46.5 15.5t-29.5 36q6 8 4 25.5t0 25.5t15 12q-8 20 -23.5 25.5t-32 9.5t-30 11t-15.5 32q-10 12 -30.5 21.5t-18.5 27.5v6q25 12 25 43q0 156 -56 156l27 37q-5 18 2.5 57
t-6.5 62q23 16 21.5 41.5t0.5 48.5l-10 18q33 19 110.5 89.5t88.5 101.5q29 0 52.5 12t43.5 12t35.5 -4t42 -9t49.5 11q25 -19 95.5 -30t85.5 -11t52 19.5t70 19.5q60 0 97.5 -23.5t37.5 -64.5q0 -130 -18 -186q18 -10 17 -31t-1 -39q-63 -50 -4.5 -85.5t60.5 -43.5
q-55 -31 -67.5 -44t-8.5 -24.5t11 -28t-9 -50.5q8 -12 8 -31t-25 -47l9 -51q-20 -16 -21 -48l2 -18q10 -8 11 -11l11 -34q11 -31 38 -31v-6q0 -23 -14.5 -40t-12.5 -40q-14 -18 -29.5 -34.5t-23.5 -38.5l30 -31q2 -14 -3 -27.5t-5 -31.5t12.5 -25.5t25.5 -13t25.5 -11.5
t12.5 -26z" />
    <glyph glyph-name="r" unicode="r" 
d="M1010 532q-10 0 -31 -11t-43 -9q-6 18 -12 40t-36 28t-38 24.5t-9 41t-6.5 43t-31.5 32.5q-6 23 -29.5 27t-44.5 6q-20 -14 -82.5 -53.5t-52.5 -114.5q-8 -12 -20.5 -20.5t-33.5 -24.5t-24 -39q-14 -4 -28.5 -21t-14.5 -35t17.5 -35.5t17.5 -38.5t-25 -34q-4 -12 -4 -29
t13.5 -37t13.5 -40t-19 -33q2 -18 16.5 -27.5t26.5 -19.5q11 0 20 18t19 18l13 -4q22 -44 53 -48.5t43 5.5q16 -12 18 -33.5t13 -39.5q-2 -16 -16.5 -28.5t-8.5 -29.5l-12 2q-16 0 -27.5 -10t-28.5 -6q-10 -10 -25 -10t-31 9t-34 9t-32 -14q-7 -37 -25 -37q-6 0 -28 28.5
t-113 28.5q-31 -18 -45 -4l-43 -29l-27 33l8 135q42 42 70 15q16 0 30.5 23.5t14.5 40.5t-9.5 34.5t-9.5 35.5t12.5 26t12.5 32l-10 117q0 63 -8.5 118.5t8.5 121.5q-12 33 -58 77q-47 4 -87 29t-85 39q-2 10 -4 18.5t-2 18.5l4 14q27 19 70 30t65.5 17t45.5 23
q14 -39 23 -39l93 6q58 0 89.5 -37t45 -54t29.5 -17l221 143l33 4q17 -27 78 -27q12 0 16 8.5t9.5 17.5t11.5 17.5t20.5 8.5t20.5 -12.5t16.5 -34.5t40.5 -13q3 -16 24.5 -19t26.5 -14q-6 -11 -6 -37q0 -38 76 -38q29 0 29 -4l-7 -54q0 -25 13.5 -46.5t27.5 -41.5
q-14 -76 -74.5 -118t-127.5 -42z" />
    <glyph glyph-name="s" unicode="s" 
d="M242 735h-15v-8h15v8zM740.5 520q-0.5 -8 5.5 -10t38 -2t31 29q0 20 -9 38.5t-13 38.5q-12 7 -19.5 30.5t-13.5 32.5t-21 13q-29 78 -163 78q-20 0 -35 8l-31 4q-16 0 -27 -16h-6q-28 0 -53.5 -42.5t-52.5 -45.5q-4 -8 -4 -17q0 -20 20 -20q11 0 35 12q14 -4 14 -6
l-10 -35q0 -6 8 -14l-2 -10q0 -16 20.5 -23.5t30.5 -17.5h25q16 0 22 -2l-4 -19q25 -25 54 -20q14 14 51.5 14t52.5 10v4q0 18 24.5 20.5t30.5 8.5q23 -8 12.5 -20.5t-11 -20.5zM589 903q26 0 70 33q16 -2 29.5 -9t30.5 -7l10 2q8 12 64.5 18t66.5 6t17.5 -16.5t16.5 -16.5
t17 9q5 32 39.5 39.5t44.5 13.5q4 -4 4 -17t-11 -24.5t-15 -26.5l4 -14q0 -12 -13.5 -16.5t-13.5 -16.5t8.5 -14t18.5 1t20.5 7t16.5 4t12 -6q0 -18 -23.5 -23t-27.5 -16q10 -14 10 -34t-19.5 -40.5t-19.5 -34.5t13.5 -17t13.5 -10t-7.5 -10t-11.5 -5q-6 -12 2.5 -26
t8.5 -26t-11 -22q4 -29 -9 -56.5t-13 -58.5q0 -4 15.5 -27.5t38 -59t58.5 -83.5q-14 -10 -14 -15v-44q20 -14 20 -54t-13 -51.5t-28.5 -11.5t-27.5 -2.5t-12 -26.5t-7.5 -30.5t-16.5 -11.5t-19.5 -9t-14.5 -14q-18 -4 -46.5 -8.5t-37 -27t-22.5 -22.5t-27.5 8.5t-29.5 8.5
l-11 -2q-10 -25 -31.5 -24t-39.5 -7q-41 23 -67 31t-73 -4q-11 28 -42 34.5t-48.5 10.5t-29.5 16q-23 -12 -46.5 -10t-46.5 -2q-7 -20 -30.5 -39.5t-26.5 -40.5q-12 10 -25.5 6t-27.5 2q12 14 30.5 25.5t18.5 34t-8 29.5t-19.5 9t-20.5 4.5t-11 14.5q16 16 16 26t-10 17
l-6 20l8 2q12 0 20.5 -9t22.5 -9t23 21.5t14 31.5q-16 18 -39 31.5t-33 36.5q-25 5 -25 21t35 42q2 14 -12 19.5t-14 15.5q0 18 38.5 35.5t54.5 17.5q15 0 27 -6v-10q0 -20 28 -39.5t34 -33t-8 -34.5l18 -30l6 2q22 0 39 -23q-14 -14 -14 -39t10 -35t23.5 -12t30 2t29.5 4
t20.5 -10t23.5 -32.5t46 -22.5q29 0 52 18.5t107 18.5q61 0 61 69q0 39 -12 80q10 16 6 36t-22 30q-10 23 -26.5 26.5t-34 6t-33 8.5t-23.5 33q-18 -9 -42 -4.5t-37 4.5t-26 -9q-13 13 -23 10q-11 -3 -22.5 -5.5t-23 -9t5.5 -32.5h-6q-6 0 -21.5 15.5t-49 45t-62.5 13.5
l-25 35q-25 10 -44 29.5t-46 25.5q7 7 12.5 39.5t5.5 40.5t-14 14.5t-26 6.5t-17.5 12t-13.5 20l-2 5q0 12 5 23t9 21.5t4 21.5t-8 22q4 15 29.5 23.5t31.5 14.5v5q0 9 17 23.5t14 29.5h6q23 -2 40 12t22 37l28 14l23 -4q18 0 34.5 8.5t34.5 10.5l15 32l35 -12v-4
q-2 -23 12 -30t40 -7z" />
    <glyph glyph-name="t" unicode="t" 
d="M782 782q-14 0 -23 12.5t-19 12.5t-23 -8q-8 -23 -26.5 -33t-38 -19.5t-35 -22.5t-15.5 -39t15.5 -42.5t15.5 -32.5t-11.5 -27.5t-16.5 -22t-5 -26.5q0 -18 12 -39.5t2 -48.5q-10 -26 -10 -48t22.5 -65.5t4.5 -72.5q6 -8 15 -11t24.5 -9.5t11.5 -28.5q8 -16 4 -35.5
t16 -27.5t46 -6.5t36 -20.5h4q24 0 41.5 26.5t34.5 32.5v6q0 15 17.5 37.5t25.5 33.5t8 28q4 4 27 76.5t82 80.5q10 -6 25.5 -5t29 -1t21.5 -8t8 -27q16 -24 16 -102t-17.5 -113t-14.5 -61q-18 -20 -23.5 -46t-30.5 -42l-16 -43q-20 8 -41 8q-35 -16 -70 -47l2 -27h-6
q-10 0 -14 6.5t-14 24t-50.5 16t-60.5 17.5q-18 -2 -30.5 -14.5t-28.5 -12.5q-29 36 -52 31q-10 8 -36.5 10t-38 7t-15.5 22h-10q-12 -2 -15 7t-6.5 29t-29.5 17q6 12 6 20t-6 22.5t-13.5 30t-15.5 29t-13 19.5t-4 17.5t3 22.5t2 22.5t-8 21.5q18 18 7 36.5t-11 39t16 30
t16 31.5l-10 37q18 10 7 32.5t-21 32.5q14 56 14 74t-12 37q12 20 12 42v44q-23 31 -49.5 59.5t-67.5 34.5q-23 -12 -52.5 -10t-57.5 -8q-8 4 -6 11t2 15.5t-11 8.5q-8 14 -8 30q0 20 24 36t5 42h6q23 2 41 -10t43 -12q49 0 86 59.5t37 112.5q0 14 10 28l-6 39
q28 5 25.5 34.5t-0.5 37.5l-11 25q12 6 27.5 7t40 4.5t27.5 35.5l36 -23q-16 -8 -24 -47q20 -10 23 -29.5t10 -35.5q-16 -25 -14.5 -54.5t-0.5 -58.5q16 -25 39 -57.5t59 -32.5t46 -27l26 6q31 0 58.5 -14t60.5 -8q23 -23 23 -34t-7 -20q7 -11 -3.5 -38t-2.5 -41l-45 6
q-45 6 -56.5 -6.5t-25.5 -12.5z" />
    <glyph glyph-name="u" unicode="u" 
d="M726 846q-19 0 -29.5 -7.5t-18.5 -15.5t-14.5 -15t-14.5 -7l-10 4q0 24 26 51t35 49q20 6 31.5 15.5t28.5 22.5t50 13q32 0 44 18.5t35 18.5t52.5 -24.5t31.5 -50.5l28 -27h21l-2 -19q0 -27 8 -50t12 -50h-6q-27 0 -32 -27.5t-11 -33.5q4 -23 12.5 -42.5t8.5 -35.5
t-9.5 -27.5t-9.5 -39.5t13.5 -76t13.5 -80t7 -43t19 -33t3 -45q41 -71 63.5 -83.5t40.5 -10.5l35 -37q-18 -25 -9 -51.5t9 -44.5t-8.5 -31t-8.5 -37t-18 -39q-16 4 -32.5 8t-28.5 21l-140 16l-37 -2l-12 -18q-14 37 -41.5 32.5t-48.5 -4.5t-35 23l-33 4q-27 0 -60.5 -13.5
t-78.5 -13.5t-59 -39l-12 2q-16 0 -32 -9t-32 -7h-12q-8 8 -12.5 18.5t-14 24.5t-36.5 14q-28 0 -50 31t-42.5 72t-38 81t-36.5 60q23 62 4.5 93t-18.5 49t18.5 33t18.5 37t-8 40t-8 38t18 38q-12 23 -15 51.5t-9.5 78t-41.5 72.5q-20 -4 -32.5 -6t-19.5 -8t-11 -55
q-8 8 -8 10l10 57q0 17 -22.5 42.5t-28.5 27.5q0 11 18.5 45.5t36.5 34.5t31 -23q23 6 32 6.5t15 1.5t35 39l55 -55q55 -55 59 -55q10 -18 18.5 -37.5t33.5 -24.5q0 -16 -19.5 -25t-28 -16.5t-8.5 -21.5l-24 -27l30 -37h5q14 0 29.5 24t23.5 24t13 -16.5t5 -20.5
q0 -16 -18.5 -18.5t-28.5 1.5q-16 -25 -31.5 -49t-13.5 -55v-12q39 -34 39 -64.5t-13.5 -46.5t-13.5 -32t7.5 -29t11.5 -25q-10 -16 -10 -44t51 -87l20 12q-8 -20 -8 -31l23 -24q35 -4 66.5 -14.5t60.5 -10.5q56 0 99 43t23 86q51 15 74 86.5t35 87.5h8q10 -2 23.5 8.5
t13.5 27.5q0 49 -20 94.5t-58 58.5q0 20 33 20q29 25 29 58l-4 18q-23 4 -35.5 22.5t-21.5 40t-20.5 38t-30.5 16.5z" />
    <glyph glyph-name="v" unicode="v" 
d="M1155 909q0 -43 -102 -94h-37q-6 -8 -22.5 -22.5t-26.5 -6.5q-15 0 -84 -75q0 -10 9 -20.5t9 -32.5t-8 -51t-18.5 -52t-18.5 -39t-8 -34q0 -20 -27.5 -91t-21.5 -110q-31 -21 -31 -26l4 -58q0 -29 -18 -54q-12 -2 -18.5 -29.5t-15.5 -60.5t-24.5 -59.5t-44.5 -26.5l-12 4
q-8 18 -32.5 25.5t-36 13.5t-15.5 23l-33 24q6 12 6 29.5t-19.5 55t-16.5 55.5q-37 51 -39 65t-1 31t1 41q0 29 -33 80t-40 85q-24 114 -105 228t-187 82q0 25 -16.5 43t-16.5 42t33 73q14 -37 50 -37t71 13t70 13t64.5 9.5t52.5 9.5t36.5 -10.5t40.5 -31t49 -20.5l25 15
q4 -14 14 -27.5t8 -30.5v-6q-12 -14 -17 -13l-44 13q-54 -28 -61 -84.5t-13 -77.5q12 -18 6 -37.5t-6 -34.5t18.5 -26t18.5 -145q0 -27 16.5 -45.5t49 -47.5t20.5 -69l21 -37q18 0 36.5 19.5t28.5 29.5t25 13q16 21 16 40t-8 27.5t-8 20.5t7 20t15 15.5t16.5 15t13.5 25.5
t10 41t5 33v77q0 19 20.5 32t30 21t9.5 20q0 21 -35 68t-58 58q-2 16 -16 25t-14 28v6q53 25 82 74q35 -12 70.5 -3t72.5 9t61 -25q14 4 23.5 15.5t24 11.5t21.5 -11.5t25.5 -11.5t36 10.5t35.5 14.5q31 -12 31 -70z" />
    <glyph glyph-name="w" unicode="w" 
d="M422 397q0 15 -16 15t-33 -10.5t-17 -24.5v-2q10 -12 33 -13l8 5q23 10 23 26q0 2 1 2t1 2zM455 532q0 20 -12.5 41t-8.5 43l-53 7q-6 -6 -6 -14.5t6 -15.5t10 -13q-4 -16 -18.5 -23.5t-40 -20t-25.5 -26.5q0 -13 6 -31q18 -6 44 -4t36 -20q12 -4 17 -4q16 0 20 20.5
t14.5 30.5t10.5 30zM400 821q-70 0 -70 -51q0 -20 7 -44t3 -42q12 -4 26.5 -16.5t27.5 -12.5t21.5 9.5t8.5 21.5q27 16 27 41t-8.5 43t-8.5 41q-10 10 -34 10zM874 666q19 14 19 59v13q0 14 2 20q-13 22 -35 22t-25.5 -8t-4.5 -17.5t-4 -17.5t-17 -6q-23 -11 -23 -31
t11.5 -38.5t13.5 -38.5q9 -15 27 -15t30.5 14.5t12.5 25.5t-7 18zM359 922q25 0 51 28q68 -4 134 4.5t134 8.5q31 -23 149 -23q16 0 37 13.5t46 13.5t42 -11q12 -20 64 -20q51 0 75.5 11t50.5 11t48 -23.5t22 -38.5t-5 -22.5t-13 -20.5t-2 -28q-37 -8 -100.5 -58t-63.5 -83
q0 -12 24.5 -29.5t30.5 -40.5q-10 -20 -31.5 -27t-31.5 -30q4 -16 4 -32.5t10 -28.5v-7q0 -27 -19.5 -58.5t-19.5 -55.5q0 -23 25 -43q-10 -25 -16.5 -35.5t-6.5 -15.5v-50q0 -18 -21.5 -33.5t-21.5 -37.5t11.5 -42t11.5 -42l-21 -39l2 -12q0 -18 -54 -39t-62 -21
q-35 0 -55.5 26.5t-38.5 49.5q12 20 10 41.5t6 44.5q-5 22 -32 52t-37.5 42.5t-10.5 24.5t15.5 24.5t15.5 29.5t-11.5 28.5t-26.5 18.5t-30.5 13.5t-25.5 18.5h-9q-19 0 -39 -29q6 -18 23.5 -32.5t17.5 -36.5l-2 -11h-8q-34 0 -39.5 -60t-5.5 -77t-20 -22v-7
q0 -14 -17.5 -28.5t-23.5 -23.5t0 -25l-13 -35l-10 2q-29 0 -49 -20.5t-40 -20.5t-36 10l-6 43l-39 14q23 24 23 42q0 24 -28 51t-50 32q2 12 11 19.5t26.5 22t17.5 27.5q0 18 -15.5 34t-15.5 24t9.5 21t9.5 31t-9.5 35.5t-15.5 31.5l21 19q-4 25 -23.5 41t-25.5 38
q-10 8 -26.5 22.5t-6.5 31.5q-12 18 -16.5 40.5t-18.5 39.5v2q0 31 -18.5 37t-42.5 14q0 14 23.5 28.5t23.5 30.5v8q-14 10 -33 17.5t-46.5 21.5t-27.5 52q-32 13 -39 30q22 49 6 94q23 -6 42.5 0.5t41.5 6.5t37 -17q47 8 95.5 -3t74 -17t50.5 -6z" />
    <glyph glyph-name="x" unicode="x" 
d="M829 649q-16 0 -41 -22q2 -14 -6 -22.5t-27.5 -26t-19.5 -46.5q0 -67 16.5 -110t51.5 -43q14 0 20 -6l-2 -17q0 -18 12.5 -29.5t34 -29.5t4.5 -49l25 -31l16 2q12 -16 34 -25.5t22 -33.5q20 -16 33.5 -29.5t34 -30t43.5 -16.5q102 0 102 -41q0 -11 -27 -47
q-25 0 -47.5 13.5t-40.5 13.5q-25 0 -37.5 -17.5t-22.5 -17.5q-12 0 -67.5 13t-88.5 13q-32 0 -58 -18q-29 10 -39.5 15t-10.5 36t16.5 53t16.5 42q0 24 -19 52t-16 48q-15 19 -49 14q-6 12 -6 25.5t-3.5 32t-37.5 18.5q-35 0 -57.5 -17.5t-46.5 -29.5v-6q2 -12 -4.5 -14.5
t-23 -11.5t-24.5 -77l-43 -2q-18 -16 -18 -44t6 -28l38 2q32 2 39 -7t7 -11v-47q0 -45 -26 -45t-45 14.5t-43 14.5t-35 -16.5t-33 -16.5l-25 14q-65 -4 -149 10q-14 -8 -25 -39q-4 9 -21.5 19t-21.5 17t2 20q-8 8 -8 18q0 35 96 35q12 29 45 38t49.5 17t26.5 29
q47 4 77 31.5t30 68.5t24 51q0 27 29 49.5t42 35t13 30.5t-26 58h-2q14 14 14 48q0 59 -111.5 158t-165.5 99q-50 63 -118 67l-11 35q26 26 68 21q6 -6 24 -6t34 10t24 21t14 21.5t17 10.5h6q11 -57 35 -74l12 -2q36 0 99 24.5t102 24.5q20 0 20 -49t-19.5 -75.5
t-19.5 -57.5t16.5 -42t35 -18.5t31.5 -15.5t7 -33q2 -8 12 -8h12q11 0 17 7t18.5 16.5t30.5 25.5t11 43l38 21l3 12q0 16 -14.5 26.5t-10.5 28.5q-31 22 -21.5 53t7.5 48q25 18 51 7t48 -11t35 12t28 12t28.5 -7t26.5 5q29 -2 56.5 -15t51.5 -13h8l31 34q8 -12 25.5 -20
t17.5 -29t-13 -52.5t-16 -59.5l-10 -7l-110 23q-23 0 -41.5 -28.5t-27.5 -45t-21 -24.5q-4 -20 -18.5 -33.5t-22.5 -30.5h-7z" />
    <glyph glyph-name="y" unicode="y" 
d="M678 -30.5q0 -8.5 1.5 -23.5t-17.5 -18l8 -51q-12 -16 -47.5 -56t-8.5 -85q-10 -20 -25.5 -32.5t-31.5 -25.5q-10 -34 6 -75l-22 -25h-6q-34 3 -57 -24t-36.5 -43.5t-27.5 -26.5l-15 4q-20 0 -35.5 -15.5t-37.5 -9.5q-8 -51 -29 -51q-7 0 -23 12t-36.5 18.5t-40 8.5
t-40 3t-44.5 7q-14 14 -62 38t-55 65l-14 14l-9 57q-22 4 -22 30q0 27 20 87q23 8 55.5 38t53.5 46q23 -4 38 -20.5t40 -16.5l8 2q11 27 27 27t28 -6q-6 -10 -9 -28.5t-8.5 -51.5t-13.5 -35q12 -16 4 -30.5t-8 -28.5t11 -25l8 -37l12 -2q17 0 32 22t36 19q10 10 23.5 20.5
t33.5 29t10 46.5l41 25l-2 14q0 21 21.5 47.5t32 40.5t10.5 36t-20.5 38.5t-20.5 36.5t11 26.5t11 25.5t-7 34.5t-19.5 43.5t0.5 52q-40 46 -46 61t-6 20v57q0 8 -16 31.5t0 39.5q-37 103 -76 230q-30 24 -30 40t13 26.5t13 34.5t-31.5 50.5t-70.5 53t-73 56t-38 68.5
q30 49 92 36t95 -13t57 31q23 -20 55.5 -16.5t53 5.5t38.5 -6q4 -18 20.5 -29.5t43 -30t10.5 -50.5l4 -33l31 -31h-45q-4 8 -16.5 18.5t-22.5 6.5l-70 -21l-12 -37q14 -12 16 -32.5t19 -32.5q-14 -14 -14 -48t12 -48.5t43 -34.5q4 -27 13 -51.5t42 -22.5l2 -12
q0 -12 -6 -22.5t-23 -4.5l-20 -10q6 -25 6 -45.5t6.5 -44t67.5 -23.5q12 15 35 22t26 25q57 0 60 33q-12 18 -4 36.5t8 42.5t-28 36t-48 22q7 17 23 12.5t25.5 -7.5t29.5 -3t20 5l-2 34q-2 29 9.5 27t15.5 -2q18 10 9 22.5t-9 23.5t10 17q-4 16 7 28.5t11 29.5l-4 12
q-19 4 -54.5 41.5t-35.5 67.5t19.5 42.5t43 17.5t42 11t16.5 35q29 -18 55 -18l17 4q18 -4 24 11t20.5 15t26 -15t44.5 -15t92 26q29 -10 59.5 -15t60.5 -11l5 -31q2 -29 -11.5 -52.5t-23.5 -48.5q-59 -7 -117 -67q-95 -26 -162.5 -230.5t-62.5 -216.5q-68 -73 -68 -137
q-23 -12 -34 -61t-17 -62l10 -32q-12 -4 -12 -12.5z" />
    <glyph glyph-name="z" unicode="z" 
d="M829 115q16 -4 38 -4t73 34q-10 20 -2 40t8 38q0 27 -24.5 49t-24.5 37v6q8 4 22.5 16.5l29 25t36.5 32.5l10 -4q6 -16 16.5 -30.5t28 -40t17.5 -52.5q8 -8 8 -23q0 -21 -13.5 -40t-13.5 -37q0 -19 9.5 -37.5t9.5 -39.5t-25 -40q2 -20 -11 -25.5t-33.5 -4.5t-41 5.5
t-32.5 4.5t-16.5 -4.5l-12.5 -12.5q-11 -11 -76.5 -21t-93.5 -10q-28 -1 -86 5q-57 6 -66.5 12t-24 15t-30.5 -7q-55 2 -109.5 9t-109.5 3q-7 7 -24 9t-23 5.5t-6 23.5t15 27t51 22t42 98q10 18 19.5 39.5t27.5 33.5l19 -2q25 0 44 40t35 50q6 78 23.5 100t31.5 36
t14.5 32.5t4 46t43.5 15.5q8 6 9 18.5t3.5 23.5t7.5 18t23 5q14 12 13.5 32t1.5 38q-19 31 -68 31t-74.5 -11.5t-41 -23.5t-26 -23.5t-21.5 -11.5q-21 0 -38 -30t-20 -42l-35 -28q-11 16 -29 10t-27.5 -5t-13.5 17q-22 5 -30.5 28t-13.5 36.5t-17 21.5v8q20 0 20 18.5t-9 37
t-3 39.5q-8 16 -8 33q0 24 23.5 61.5t11.5 69.5q12 12 21 12t19 -16.5t28 -20.5t37.5 -5t31.5 -24q27 27 52.5 11.5t41.5 -13.5h10q16 23 41 24t47 -1q11 -8 27 -8t33.5 12t38.5 0l90 16q16 -16 38 -16t26.5 7t12.5 23.5t21 16.5q77 -67 133 -59q4 -20 4 -62t-39 -110
q-25 -12 -38 -35t-27 -46.5t-30.5 -42t-47.5 -20.5q-36 -45 -59 -90t-23 -63.5t-14 -26.5l-10 2q-17 0 -33 -22.5t-33 -22.5v-10q0 -30 -70 -2q-10 -14 -7 -32t3 -32t-11 -23.5t-21 -9.5q-3 -18 -29.5 -28.5t-26.5 -22.5q0 -4 5.5 -12t7.5 -12q12 -8 12 -20t-21 -42
q-15 41 -51 41q-18 -9 -18 -43v-20q12 -10 15 -27.5t19 -17.5t26.5 8t21.5 8h6q12 -31 33 -31t31.5 34t25.5 34q32 0 40.5 -38t18.5 -44q48 19 66 7.5t22 -21.5q40 11 88 90z" />
    <glyph glyph-name="braceleft" unicode="{" 
d="M494 338q-1 20 -19 20t-18 -20q0 -8 10 -17.5t14 -17.5v2zM430 178q-18 0 -18 11q0 27 18 34q14 -4 19.5 -20.5t17.5 -16.5t15 7.5t9.5 22.5t20.5 15l10 -2q12 -27 0 -51q25 -28 30 -76.5t11 -60.5q7 -14 38.5 -17t31.5 -18q0 -8 -4 -14t-2 -15q35 -25 58.5 -59.5
t64.5 -52.5q6 -12 6 -33t-15.5 -42t-15.5 -40t12 -43q-4 -6 -4 -16t-10 -13q-20 8 -37.5 21.5t-42.5 17.5q-29 39 -53.5 81t-54.5 81l4 60q0 33 -23 47l2 4q0 10 -7 15t-7 11t8 13q-6 20 -15.5 35.5t-23.5 42.5t-14 48t-6 25q-5 -2 -23 -2zM498 473q0 -19 18 -41l-29 -10
q2 -19 33 -57t31 -66q0 -27 -14 -27t-22.5 11.5t-18.5 11.5t-19 -12v-31q-51 16 -56 73.5t-11 77.5l2 13q0 20 -11.5 37.5t-11.5 37.5t23 35l-6 19q-18 -2 -24.5 -18.5t-21.5 -20.5l-8 2q-16 0 -37 -21q-2 0 -17 10.5t-32 21.5t-51 36q6 8 6 21t-10 24.5t-10 30.5
q0 33 30 40.5t37 24.5q23 4 36 25.5t24 38.5q17 3 37 -25l30 -6q0 41 16.5 77t16.5 77l-12 59q0 14 6 26.5t17 35.5t5 40q29 52 29 115q73 128 68 250q25 4 42 22.5t44 22.5q12 24 12 27l-14 49q0 12 4 16l41 -18q8 -39 36 -43t52 -4q35 0 52 -41.5t17 -83.5l-6 -88
q0 -31 -12 -51q-20 -6 -25.5 -28t-9.5 -34t-18 -16q0 -14 -18 -35t-15 -37q-20 -8 -25.5 -32.5t-9.5 -39t-16 -22.5q-8 -18 -25.5 -30.5t-44 -32t-14.5 -60.5q-18 -25 -24 -56.5t-28 -65.5t-57 -55.5t-63 -56.5q0 -14 51 -56t51 -56l-2 -2q-18 -10 -18 -29z" />
    <glyph glyph-name="bar" unicode="|" 
d="M707 1470h-9l-14 -49q16 -20 16 -46t-8 -49t-4 -50q-16 -10 -16 -30.5t7 -40t17 -52.5t-2 -66l13 -26l-48 -37q23 -53 -4 -70q0 -27 13.5 -48t17.5 -48q-21 14 -34 14t-17 -16q16 -31 20 -46.5t4 -47.5t15 -47q-6 -14 2 -27.5t8 -27.5t-12.5 -22.5t-22.5 -14.5
q4 -29 7 -56.5t20 -50.5q-10 -10 -10 -24t14 -23t14 -21q0 -18 -22 -18l-31 31l-23 -12l17 -31q0 -18 6 -33.5t17 -43.5t1 -52q22 -22 15.5 -42t-12 -33t-5.5 -26l27 -145l-4 -115l47 -47h-39q-4 -39 5 -75.5t9 -73.5l-2 -6l-53 20q-8 -10 -22.5 -30.5t-28.5 -20.5
q-59 0 -59 25v81q0 55 -25 80t-25 35q0 67 37 104q0 55 -20 101q34 42 31 71t-4 44.5t12 33.5q-30 37 0 56l-17 47q23 33 18 76t-22 71q30 46 25 113l-2 33q-20 10 -16.5 30.5t-0.5 36.5q9 24 0.5 68t-4.5 61q-16 8 -16 40t12 80t2 97q16 33 13 70t-5 70q18 23 -2 68.5
t-26 64.5q22 22 14 66.5t0 66.5l-10 41q6 14 6 29.5t-1.5 43.5t19.5 43l-6 48l41 49l43 -4q0 -20 14.5 -32.5t42.5 -32t25 -54.5q16 -12 36 -85t30 -91q-24 30 -49 30z" />
    <glyph glyph-name="braceright" unicode="}" 
d="M805 144v-29q0 -37 -16.5 -71t-22.5 -71q-10 -10 -10 -13v-36q0 -33 -25 -39l2 -10q0 -20 -24.5 -25.5t-30.5 -11.5v-61l-31 -45q16 -27 41 -39t47 -31l-35 14q-23 -14 -56.5 -11t-61.5 -3q-24 33 -60 41q-16 23 -31.5 47.5t-15.5 48.5q0 52 47 43l-26 19l-2 14
q0 19 35.5 31.5t35.5 40.5q27 34 17 90q6 12 14 23.5t20 30t5 44.5q14 9 24 38.5t18.5 40.5t26.5 15q10 23 8 38.5t-2 36.5t27 51.5t22 123.5q-4 4 -4 12.5t19.5 19.5t43 23.5t43 23.5t19.5 22q0 16 -23.5 23t-51 12.5t-51 12.5t-23.5 23q0 10 18.5 26.5t18.5 38.5
q0 25 -34 74t-28 80q-16 25 -23 54.5t-34 48.5l10 45l-49 31l2 36q0 23 -2 33q-27 8 -40 30.5t-40 33.5q-4 14 -13 29.5t-21.5 41t-0.5 54.5q-45 32 -45 110q0 22 27.5 59.5t32.5 55.5q21 -3 36 -26t23 -35.5t25 -14.5q4 -10 15 -15t31.5 -16.5t20.5 -27.5t-11 -28.5
t-11 -28.5t10 -23q45 -35 66.5 -76t60.5 -80q6 -49 34.5 -122.5t28.5 -118.5q0 -44 19.5 -68.5t29.5 -50.5l23 6q-27 -27 -27 -45.5t6.5 -32.5t10.5 -27q39 -11 55 17l37 -25l8 2q20 0 29.5 -15t25.5 -26q0 -23 11.5 -45t11.5 -36t-7 -28t-9 -20q-13 -6 -13 -14t-18 -8
q-39 -44 -88 -58l-33 13l-8 14l-4 -2q-8 -33 -1 -64.5t11 -64.5q-24 -16 -27.5 -52t-7.5 -55.5t-20 -31.5q0 -20 -16.5 -25.5t-22.5 -21.5q4 -10 4 -12z" />
    <glyph glyph-name="asciitilde" unicode="~" 
d="M874 1126q0 -14 -6 -16l-10 8h-8q-12 0 -43 -35.5t-33 -40.5q-21 10 -32 -7t-23 -23q-4 4 -11 4t-11.5 -8.5t-12.5 -12.5l2 -6q0 -8 -14.5 -8t-22.5 -4q-6 8 -8 16.5t-10 12.5t-15.5 4t-9.5 8q12 2 15 8q0 8 -8.5 13t-4.5 14q-20 12 -20 23t-15.5 16.5t-17.5 15.5
q6 2 6 10t-1 10t-1 7q-12 -10 -26.5 -20.5t-18.5 -27.5q-16 16 -29.5 -4t-23.5 -26q-8 4 -14 4t-10.5 -8.5t-10.5 -12.5v-6q0 -8 -14.5 -8t-22.5 -4q-6 8 -8 17.5t-14 11.5q-4 4 -11.5 4t-9.5 8l12 2q2 2 2 6l-12 23q0 12 12.5 19t10.5 22l8 -5q10 4 10 14.5t4 16.5h8l25 8
l2 19v6q0 6 5 6t15 1.5t7 25.5q3 2 28 2q8 4 5 9t-1 11q-4 4 -4 11h2q10 0 17 -15l8 -2q10 0 10 31l23 -2q6 0 24.5 9t34.5 9t24.5 -12t18.5 -21v-4q0 -10 10.5 -28.5t21.5 -18.5t16 -12t14 -20v-17q13 3 8 25q3 2 28 2q8 4 5 9t0 11q-4 4 -5 8l2 2q3 0 17 -14l6 -1
q6 -1 8 12.5t4 17.5l14 -1q15 -1 33.5 8t33.5 9t24.5 -12t19.5 -21v-4q-2 -10 4 -16t6 -14l-2 -7q-18 -10 -20 -12t-6 -20q-13 1 -13 -13z" />
    <glyph glyph-name="DEL" horiz-adv-x="0" 
 />
    <glyph glyph-name="nonbreakingspace" unicode="&#xa0;" 
 />
    <glyph glyph-name="exclamdown" unicode="&#xa1;" 
d="M713 852q0 -47 53 -70q0 -4 -6 -16q-27 4 -40 -11.5t-23.5 -35t-21.5 -35.5t-34 -16t-33 18q-12 4 -28 4t-36 -2t-40 12q3 16 -22 41t-25 53t16 54t16 46t-4 36q7 27 38.5 37.5t43.5 27.5l80 6h11q10 0 18 -2q-4 -20 9 -29t28.5 -16.5t30 -14.5t14.5 -21t-7.5 -20.5
t-22.5 -18t-15 -27.5zM557 494l-16 61q12 4 25.5 6t21.5 17q-4 18 17.5 26t29.5 17q14 -6 25.5 -34t11.5 -31l-10 -54q0 -14 14 -25q34 -115 31 -172l-2 -35q-12 -16 1 -28.5t23 -20.5q4 -6 4 -18l-12 -58q0 -23 18.5 -33t32.5 -24q10 -26 10 -52t9.5 -45t11.5 -44
q-10 -16 -12.5 -44.5t-6.5 -54.5t-13 -45.5t-21.5 -35t-27.5 -31t-32 -39.5q-16 2 -30.5 10t-28.5 8t-23 -8l6 -33l-14 -2q-10 21 -32.5 18t-32.5 1l-50 129q-23 18 -24.5 46t-9.5 50q4 23 3 50.5t9 45.5q-6 40 4 64t18.5 39.5t16.5 36.5q-13 26 -13 44t15 40q-12 24 -12 36
t7 25.5t16 25t16.5 23.5t7.5 28.5t-8.5 27t-8.5 24.5t29 43q6 11 6 25z" />
    <glyph glyph-name="cent" unicode="&#xa2;" 
d="M864 776v-12q10 4 10 10v2h-10zM485 -2q-102 -47 -102 -217q0 -40 -12 -55l-35 10q-21 -52 -51 -64q-23 14 -47.5 6t-47 -8t-32.5 23q4 39 12 76.5t37 66.5q12 52 59 95.5t62 66.5q-14 25 -4 50.5t10 54.5t-37 42l-10 -2q-23 1 -23 29t-9 44.5t-26.5 46.5t-11.5 59
q-18 18 -15 42.5t9 49t5 48t-30 42.5q2 18 13.5 34.5t30.5 45t-3 61.5q20 6 27.5 23.5t12.5 37t12.5 37t27.5 25.5q8 -6 23 -6q2 0 16 16.5t44.5 50t39.5 50.5q39 12 63.5 21t30.5 9h70q14 0 16 5l12 24q11 20 21 20l8 -2q4 -16 23.5 -37.5t42.5 -21.5t43 19.5t38 19.5
t25.5 9t14 20.5t12.5 22.5t10 16q-6 14 -6 34t9 41t11 43q47 12 72 85t33 91l70 -2q-23 -16 -23 -47l2 -45l19 -16q-23 -37 -24 -79t-9 -83q-8 -10 -10.5 -24.5t-7.5 -38.5t-35 -15q-47 -40 -52.5 -127.5t-15.5 -118.5q6 -16 6 -33t-25 -65q-51 0 -66 -7t-48 -48
q-14 10 -30 3t-34 -7t-20 14.5t-2 30.5t-17.5 27.5t-17.5 27.5l61 162l-26 33l-43 -13q-23 12 -49 13l-31 -4q0 -20 -28 -32t-31 -30q-10 -6 -17.5 -5t-18 1t-16.5 -8q-52 4 -88.5 -60.5t-11.5 -113.5q-37 -27 -51 -62q10 -35 18 -53t8 -43t13 -51q23 -2 36 -17.5t32 -46
t55 -30.5l36 51h9q34 0 34 -4l-8 -51q0 -16 7.5 -30.5t13.5 -30t6 -31t-14 -29.5l20 -25l14 19l-2 8q0 10 13.5 16t26.5 6t25 -14t26 -14t26 7t40.5 23.5t59.5 16.5l23 37q13 -25 31 -25t30.5 16.5t25.5 37t26.5 41t29.5 26.5q8 18 16.5 36.5t2.5 39.5l49 34
q-14 -28 -14 -50t14 -64q-16 -12 -16.5 -43t-0.5 -92.5t-47 -79.5l-22 -35l-53 6q-10 -23 -19.5 -24t-22 -4t-1.5 -72q-14 6 -26.5 22.5t-32.5 16.5t-138.5 -18.5t-153.5 -10.5z" />
    <glyph glyph-name="sterling" unicode="&#xa3;" 
d="M51 164v64q0 63 23.5 94.5t45.5 31.5t41 -5t35.5 -10t28 -10t17.5 -5t6 22t-25 107q14 20 17.5 43.5t7.5 45t16 39t47 25.5l15 43q-10 16 -22.5 34.5t-12.5 23.5l14 110q-10 5 -10 25q0 170 102.5 268t102.5 119q8 6 40 6t71.5 -11.5t91 -11.5t78 -31.5t40.5 -78.5
q-25 -34 -73 -111l-25 39q-27 -16 -56.5 -28.5t-45.5 -40.5l-23 6l-37 -13l-12 47q-10 4 -20.5 17.5t-20.5 13.5t-19 -6q-2 -14 -19 -16t-17 -17l6 -12l24 -6q-8 -8 -20 -66.5t-12 -69.5t16 -55q28 42 53 39l43 -35q23 23 40 23t24 -16l30 -25q18 10 39 10t31 23
q35 -4 56.5 -24.5t21.5 -40.5q0 -38 -14 -60t-27 4q-25 -6 -31 -30.5t-14 -45.5l-14 -2q-16 0 -29.5 10.5t-26.5 10.5t-28 -29q-69 15 -95 29t-49 28v-10q2 -35 -15.5 -65.5t-17.5 -65.5l2 -8q-5 -14 13 -43.5t16 -42.5l12 -12l-22 -46q6 -12 6 -34t-21.5 -41t-48 -31
t-48 -21.5t-21.5 -21.5q80 -60 94 -74q34 23 48 23q13 0 25.5 -21.5t24.5 -21.5t13 14q29 14 58.5 14t57.5 13l13 -4q23 0 40 14t36 14t59 -16l16 -33l33 17q-2 16 17.5 23t29.5 9q32 44 33.5 73.5t0.5 50t-1 41.5t22 34q-3 21 15 32t29.5 17t19.5 14l-8 54q0 12 10 20t20 6
l15 4q14 0 22 -12t25 -10q10 10 26 10t28.5 -21.5t29.5 -29.5q2 -17 24.5 -50t22.5 -48l-23 -37l2 -29q2 -23 -12 -49q4 -29 -4 -68t-10 -67q24 0 24 -13l-2 -8l-30 -8q-4 -10 -12.5 -20.5t-19 -28t8.5 -33.5q-6 -6 -36 -47.5t-46 -46.5q-44 38 -129 57l-31 -20l-41 8
l-36 -43h-7q-15 0 -29 17.5t-22 25.5t-20 8q-18 29 -57 29q-38 0 -54 -6t-14 -41q-66 55 -172 80q-17 -20 -67 -14.5t-81.5 4.5t-58.5 -17h-88l2 6q0 8 -57.5 50t-57.5 108z" />
    <glyph glyph-name="currency" unicode="&#xa4;" 
d="M430 808q0 -11 -8 -11t-12 5t-15 9q-10 -20 -8 -44t-8 -44v-18q0 -51 -14 -95q14 -16 21 -36.5t17 -36.5l-2 -17q0 -23 8.5 -44t12.5 -44l12 -12q27 -4 40 -25.5t40 -25.5q10 4 22.5 6t16.5 16q29 -18 74 -29l8 -16q8 -16 19.5 -16t39 27.5t49.5 21.5q16 6 13.5 23.5
t9.5 25.5q41 23 46 51.5t6 48.5t5 43q-12 12 -12 29l8 53q0 17 -10 27l2 20q0 51 -47 91v4q0 32 -28 67t-36 35t-16 -8t-14 -12q-14 21 -45 39t-42 18t-19.5 -15.5t-35.5 -15.5t-46 -12t-44 -4q-6 -4 -14 -19.5t-8 -25.5t7 -16.5t7 -17.5zM975 416q12 0 12 21t-16 22
q-6 0 -10.5 -9.5t-4.5 -14.5t6.5 -12t12.5 -7zM649 1059q16 0 29 35q12 -2 20.5 -12.5t20.5 -8.5h6q11 20 47 35q10 -16 10 -27.5t3.5 -28t41.5 -32.5l15 20q16 -2 17 -20.5t8 -31.5q8 -16 62 -92t54 -92q0 -17 -11 -25.5t-11 -19.5t15 -36.5t1 -50.5q6 -10 4 -32t-2 -32
t10 -17t10 -19t-7 -17.5t-17 -13.5l-2 -15q0 -18 12 -33.5t12 -42.5t-4 -59q-10 2 -17 -10t-18 -2q-10 -4 -19 -13.5t-21 -11.5q-11 -11 -15 -35t-9 -34.5t-22 -16.5q-3 -24 -28 -59l-25 14q-14 -6 -22 -24.5t-27 -26.5l-29 -12h-4q-10 0 -14 -10.5t-14 -8.5
q-4 12 -16.5 13.5t-14.5 15.5q-8 4 -17.5 9t-17.5 5q-23 0 -29 -26.5t-10 -42.5q-12 10 -22.5 29.5t-23.5 19.5t-26 -4q-4 -10 -12 -10t-20 4q-4 6 -15.5 19t-23.5 27.5t-24.5 25t-19 10.5t-13.5 -17.5t-17 -17.5h-4q-2 23 -6 49t-29 37h-8q-39 0 -39 96q-12 10 -26.5 8
t-24.5 8l-8 29q12 20 4 38.5t-8 39.5l12 29q-4 20 0 40.5t4 44.5t-23 44q2 18 9.5 28t11.5 19.5t4 21.5t-8 33q2 20 17.5 38.5t39.5 50.5t12 54q22 54 80 87.5t78 56.5l14 -4q20 0 46 24l-3 17q0 8 2.5 15t4.5 13q14 -2 17 -15t17 -13q9 10 23 10t25.5 -20.5t27.5 -20.5z
" />
    <glyph glyph-name="yen" unicode="&#xa5;" 
d="M346 1027q0 -13 6 -28q49 -22 58 -90q18 -23 43.5 -37t31.5 -43q10 -8 19.5 -27.5t23.5 -19.5h9q25 32 49 29l16 -18v12q0 8 30 43t45 53.5t23 23.5q11 7 14 36t21 34q0 30 -33.5 90.5t-33.5 80.5t12 38q33 14 75.5 37t68.5 23t32 -4q12 -23 37 -23q34 0 62.5 18.5
t43.5 18.5l31 39q20 -14 40 -18.5t46.5 -19.5t26.5 -89l-4 -23v-6q0 -16 -7.5 -31.5t-7.5 -31.5l-49 12q-20 -16 -24 -26.5t-7 -10.5h-43q-27 0 -47 -37t-30.5 -58.5t-22.5 -29.5q-6 10 -18 10q-24 0 -39.5 -66.5t-7.5 -82.5l-35 -27l33 -8l10 14q11 -14 34 -16t35.5 -3
t22.5 -9l-2 -13q0 -33 24 -36l23 10q-10 -20 -20.5 -35.5t-0.5 -15.5q11 0 7 -13q-18 4 -31.5 -10t-29.5 -14t-23 16q-12 -4 -24.5 -1t-28.5 3t-25 -18q-23 -6 -44.5 -1t-43.5 5q-2 -5 -2 -41q0 -23 -35 -23l47 -14l51 20l4 21l4 2q16 0 32 -17.5t36 -2.5l49 -21l37 8
q13 -8 22 -33t19 -32q-8 -35 -38.5 -59.5t-54.5 -24.5t-37 -3t-24 -5l-24 -23q-16 -2 -26.5 14.5t-21.5 16.5t-15.5 -8.5t-7.5 -17.5t-5 -16t-5 -7t-9 19.5t-23 19.5h-8l-16 -17q2 -39 3 -63.5t17 -61.5q-16 -27 -16 -53l10 -45h6q12 0 16.5 14.5t16.5 14.5t57 -50
q39 35 54.5 18.5t30.5 -16.5t30 14.5t31 14.5t22 -8t27.5 -35.5t48.5 12.5q12 -14 20.5 -29.5t20.5 -25.5q5 -43 -6 -65.5t-11 -47.5q-6 -8 -13 -8t-15 2t-15.5 4t-15.5 -4q-6 9 -17 9t-19.5 -11.5t-24 -11.5t-39.5 27q-8 -16 -37.5 -24t-38.5 -23q-18 8 -44.5 26.5
t-70.5 18.5l-84 -31q-29 23 -64.5 24.5t-70.5 10.5q-6 10 -20 10t-23.5 -12.5t-25.5 -16.5l-11 -14l-30 29q-16 4 -29.5 -4.5t-26.5 6.5q-27 -2 -49 -14.5t-49 -4.5l-18 -14l-3 10q0 18 8.5 35.5t4.5 36.5q18 23 42.5 33t45.5 26q25 -20 38 -20q17 0 37 30.5t31 38.5
q25 -20 43 -20l49 6q0 17 22.5 44t16.5 48q18 12 18 39t-3.5 33l-7 12t-3.5 22.5t11 63.5l-4 8l-29 19q-48 0 -64 -25q-16 4 -29.5 18.5t-33.5 8.5l-8 -15q-12 15 -47 18t-45 11l2 12q0 36 -27 39l-20 -12q2 6 7 14.5t12 22.5t0 14t-7 13q20 -4 32.5 10t28.5 14t25 -16
q12 4 24.5 1t27.5 -3t26 18q28 7 65 -2l-22 49l-4 17l-13 -11l-4 -20l-4 -2q-13 0 -30.5 16.5t-36.5 3.5l-50 21l-36 -8q-15 9 -22.5 33t-18.5 32q10 39 45.5 63.5t76.5 16.5q-31 59 -79 106q0 66 -39 156q-31 20 -66 33.5t-59 44.5h-4q-12 0 -20.5 -10.5t-17.5 -10.5t-16 7
q-8 16 -21 29.5t-13 31.5q0 48 35.5 45.5t56.5 -2.5t35 33l26 16q4 -10 16.5 -26.5t30.5 -16.5t84 15q29 -18 41 -13.5t20.5 12t20.5 15.5q33 -26 33 -84l-2 -19q-12 -10 -7 -29.5t-12 -27.5l17 -55l-23 20l-22 -10l-19 16q-10 -4 -10 -17z" />
    <glyph glyph-name="brokenbar" unicode="&#xa6;" 
d="M702 405q0 -13 21 -20h8q41 0 41 -12q-8 -8 -20 -8q-10 -10 -22.5 -13.5t-12.5 -19.5v-4q12 -10 26.5 -21.5t12.5 -30.5v-4q-10 -8 -22.5 -15t-12.5 -21.5t12 -26t12 -21.5t-6 -13t-19.5 -10.5t-17.5 -29.5q12 -16 11.5 -36.5t21.5 -32.5q-4 -16 -20.5 -28.5t-16.5 -29.5
l2 -12l21 -10q-22 -18 -24.5 -56t-12.5 -45q-10 -6 -20.5 -5t-28.5 1t-21 -24q4 -4 10.5 -8.5t6.5 -10.5l-2 -6h-6q-14 0 -22.5 11.5t-25.5 9.5q-10 10 -14 10l2 -6q0 -6 -7 -8.5t-11 -0.5l2 7q0 20 -17.5 33.5t-17.5 27.5t23 27q-4 12 -1 25.5t3 31.5t-25 29q-8 23 -1 47
t7 53t-35 45q23 29 20 65.5t-3 65.5t9 47.5t9 38.5t-26 41l-29 6l-2 6q0 18 17.5 27t17.5 21t-9 24q8 10 17.5 21.5t9.5 31.5t-10 45q11 16 43.5 24t42.5 21q25 -6 37 -6t19.5 -3.5t15.5 -35.5t14 -34t14 -7.5t8 -36.5q0 -30 7.5 -37t16.5 -13.5t16 -11.5t7 -18t-21.5 -25.5
t-21.5 -25.5zM702 1286q0 -12 21 -20h8q41 0 41 -13q-8 -8 -20 -8q-10 -10 -22.5 -13t-12.5 -20v-4q12 -10 26.5 -21t12.5 -30v-4q-10 -8 -22.5 -15.5t-12.5 -21.5t12 -25.5t12 -21.5t-19 -19.5t-24 -33.5q12 -16 11.5 -37t21.5 -33q-4 -16 -20.5 -28.5t-16.5 -28.5l2 -12
l21 -11q-22 -18 -24.5 -55.5t-12.5 -44.5q-10 -6 -20.5 -5t-28.5 1t-21 -25q4 -4 10.5 -8t6.5 -10l-2 -6h-6q-14 0 -22.5 11t-25.5 9q-10 10 -14 10l2 -6q0 -6 -7 -8t-11 0l2 6q0 20 -17.5 33.5t-17.5 27.5t23 27q-4 12 -1 25.5t3 31.5t-25 29q-8 23 -1 47.5t7 53.5t-35 45
q23 29 20 65.5t-3 65.5t9 47t9 39t-26 41l-29 6l-2 6q0 18 17.5 26.5t17.5 20.5t-9 25q8 10 17.5 21.5t9.5 31.5t-10 45q11 16 43.5 24t42.5 21q25 -6 37 -6t19 -3.5t16 -35.5q8 -32 14 -34.5t14 -7.5t8 -35q0 -31 7.5 -38.5t23.5 -18t16 -24.5t-21.5 -26.5t-21.5 -24.5z
" />
    <glyph glyph-name="section" unicode="&#xa7;" 
d="M827 559q20 0 29 -24h10q64 0 64 29t-36 66.5t-56.5 58t-28.5 36.5q-10 16 -20.5 13t-28.5 -3t-35.5 17.5t-40.5 17.5l-18 -4q-16 -25 -60 -41q-6 8 -20.5 29.5t-24.5 21.5q-31 0 -31 -39q0 -12 -6 -16l-4 2q-10 0 -28 -21q-8 12 -9.5 26.5t-5 35t-35.5 31.5
q-17 -15 -28 -66q-16 4 -16.5 17.5t-0.5 21.5q0 20 -18.5 48t-34.5 32l-18 -170q12 -4 46 -42t64 -38l17 4q14 16 30 16t29 -4q10 -30 16.5 -52.5t26.5 -22.5q12 0 36.5 13t39.5 17q14 -4 23.5 -16t26.5 -12t38 65q14 -7 16 -32t4.5 -34.5t20.5 -9.5t32.5 14.5t34.5 14.5z
M847 907q18 0 30 -24l8 2q-8 16 -27 24q-25 74 -63.5 106t-80.5 48t-84 30.5t-73 51.5q-27 -2 -32 -23.5t-11 -42.5q-14 4 -21.5 16.5t-19.5 34t-41 21.5q-10 -18 -40 -44t-42 -41t-12 -34v-4q-4 -9 16.5 -31t22.5 -28l37 37q13 -7 18.5 -25t9.5 -26.5t16 -8.5t21 10.5
t25 10.5t28 -4q18 -53 25.5 -64.5t18.5 -11.5t37 13t38 18q12 -4 22.5 -16.5t24.5 -12.5q22 0 41 65q15 -8 17 -32.5t5 -33.5t20 -9t32.5 14t33.5 14zM868 -12v-8q0 -5 2 -5q0 -4 -4 -4h-2l-6 2v4q0 10 8 11h2zM975 1192v-40q0 -36 26 -46q-11 -23 -21.5 -98.5t-16 -115.5
t-5.5 -56q50 -33 95 -121t45 -158t-15.5 -141.5t-15.5 -129.5t-16 -102q-20 -16 -19.5 -35.5t-9.5 -39.5q4 -25 -35 -25q-2 -23 -14 -32t-41 -22t-37 -34q-20 -8 -37 14q-20 -10 -32.5 -30.5t-34.5 -28.5q-17 20 -47 20t-56 -6t-51 4l-35 -32q-18 12 -31.5 30.5t-38.5 22.5
q-12 -6 -32 -6t-31 4q-14 20 -32.5 47.5t-38.5 27.5t-30 -9t-21 -9t-11 21l-60 4q-11 -28 -43 -47t-46.5 -31t-20.5 -35q-17 0 -22 15.5t-7 25.5t-8 16q26 42 31.5 128.5t5.5 107t-12.5 37.5t-12.5 35t11 28q4 31 5 61.5t9 61.5l27 6q10 -8 22 -29.5t27 -21.5h6l22 33
q2 -45 11.5 -81t9.5 -68t9 -44t30.5 -33.5t23.5 -39.5q33 -12 41 -42t27 -55l33 27q14 -4 27.5 -15.5t28.5 -11.5t21 4q23 39 46 33q18 -23 45.5 -27t54.5 -10q7 24 20 19.5t20.5 -9t29.5 -4.5t40.5 25t47.5 41q11 56 49 63q-27 14 -41.5 40t-26.5 51.5t-28.5 44t-42.5 18.5
t-43 17.5t-34 17.5t-39 -18.5t-44 -26.5q-10 14 -19.5 29.5t-25.5 21.5l-31 -20l-6 -35l-33 -19q-8 12 -10.5 46t-38.5 46q-18 -15 -29 -65q-16 4 -19 23.5t1 31.5q-14 16 -21.5 38t-29.5 26l-15 -4q-18 0 -32.5 14t-34.5 4q-29 41 -56.5 83t-27.5 84q0 61 40 124.5t40 91.5
q0 29 -11.5 54t-11.5 49q0 58 30.5 128.5t71.5 77.5q10 24 45.5 37t47.5 25h6q23 0 40 25.5t33 39.5l21 -41q16 -8 26.5 -25.5t30.5 -17.5l6 2q14 16 34 21.5t40 11.5q31 -39 83 -39t75.5 10.5t39 21.5t29 21.5t26.5 10.5q32 0 54 -11.5t19 -26.5q-4 -15 -4 -23t3 -18.5
t-3 -21.5q6 -12 6 -16z" />
    <glyph glyph-name="dieresis" unicode="&#xa8;" 
d="M545 1065q0 -8 -19 -8q-16 -4 -22 -19.5t-21 -19.5q-4 2 -18 2t-20.5 -11.5t-10.5 -11.5q-23 0 -30 16.5t-19 25.5t-27.5 11.5t-19.5 16.5q6 6 6 20t-10 25.5t-10 37.5t24.5 50.5t36.5 52.5q10 2 17.5 1t23.5 -1t25 19h4q9 0 15 -11.5t26 -11.5t30.5 -15t24.5 -26
q0 -23 11 -45t11 -46t-14 -34t-14 -18zM782.5 1251q12.5 0 22.5 11q14 -4 14 -18.5t10 -18.5q23 -6 29 -17.5t8.5 -21t10.5 -19.5q-6 -12 -5.5 -31.5t-3 -50t-25.5 -39.5q-22 -8 -22 -10t-1 -2h-25q-12 0 -21.5 -12t-23.5 -10h-2q-8 8 -22 8t-20 -5t-10 -5q-26 0 -26 43
q0 11 -21.5 26.5t-21.5 26.5q16 10 16 27l-6 34q0 27 28.5 47.5t45 30.5t26.5 21q10 -2 21.5 -8.5t24 -6.5z" />
    <glyph glyph-name="copyright" unicode="&#xa9;" 
d="M471 844q-43 0 -43 -88q0 -18 -18.5 -34t-18.5 -26t6 -18q-7 -28 -0.5 -31.5t15 -1.5t14.5 2t12 -10l-8 -16q-8 -2 -15 2t-17 4t-11 -13q0 -3 19.5 -30.5t19.5 -37.5q0 -11 -16 -16l-17 -18v-4q0 -16 15.5 -26.5t15.5 -22.5t-2 -17l-21 4l-6 -24q32 -8 37.5 -30.5
t8.5 -36t16 -25.5h4l39 10q14 0 14 -14q0 -3 -16 -19q4 -10 3 -24.5t12 -14.5t19.5 15.5t10.5 25.5l6 2q12 0 17 -11t16 -11l24 12l22 -6q21 -6 29.5 10.5t14.5 26.5q8 -4 18 -4t16.5 13t22.5 11q12 8 11 21.5t-1 24.5t6.5 16.5t13.5 12.5t13 21.5t6 37.5t33 63
q25 0 33 -18.5t11 -32t9 -21.5l-2 -8q0 -16 12.5 -26.5t12.5 -20.5t-19 -23q-4 -18 -10 -36.5t-10 -36.5l-27 -11v-4q2 -29 -26 -51h-9q-20 2 -32.5 -13.5t-28.5 -25.5l-10 2q-10 0 -29.5 -15.5t-34.5 3.5h-8q-23 4 -35 -16q-12 4 -23.5 10t-25.5 4l2 6q0 31 -5 31h-56
q-12 0 -19 12q-11 3 -16.5 19t-9.5 22t-14 6t-31 -14l-2 20q8 8 8 26t-7.5 30t-18.5 20t-25.5 15.5t-26.5 19.5q6 29 0 43q10 16 10 35l-5 45q-5 45 -1 63q-8 4 -8 14t3 12.5t8.5 10t-3.5 47.5q31 0 31 29q0 12 -8.5 21.5t-8.5 19.5t13 18q16 -8 29 -8t14 12q0 10 -7.5 20.5
t-5.5 20.5v2q12 10 12.5 24.5t0.5 35.5t16 31h8q16 -2 35 4l12 28q17 -8 27 -8t18.5 15.5t24.5 11.5q0 23 18 22q12 0 22.5 -12t22.5 -12t21 18q14 0 25.5 -9t21.5 -9t17.5 2t13.5 2l-6 24q16 8 36.5 12.5t30.5 24.5q20 4 34 4t28 -17.5t14 -32.5t-18 -105q4 -5 4 -17
l-15 -47q0 -12 5.5 -23.5t-5.5 -21.5q0 -12 13.5 -20.5t19.5 -12.5t6 -14h-4q-18 0 -35 -31q0 -12 -9 -17t-17 -11l-21 16q-16 -4 -24 -4l-9 2l5 35q0 7 -18.5 44t-33.5 52q-8 16 -10 25.5t-6 15.5t-41 14l-14 -16q-16 2 -22.5 14.5t-20.5 14.5q-23 -18 -49.5 -8t-33.5 3.5
t-7 -40.5l-3 -3q-5 0 -18 13zM1020 782q0 45 -10.5 60.5t-22.5 20.5t-24.5 10t-16.5 30q-14 14 -32 14.5t-38 0.5t-32 6l10 20l41 -2q25 -4 25 39l-5 33q-39 27 -72.5 59.5t-74.5 54.5l-20 -2q-37 0 -55.5 20.5t-30 30t-29.5 9.5t-44 -16.5t-26 -29.5t9.5 -16.5t9.5 -11.5
t-13 -14q-37 8 -72.5 23.5t-74.5 19.5q-12 -10 -25.5 -22.5t-5.5 -33.5q-4 -29 -16.5 -25.5t-30.5 3.5q-56 0 -43.5 -34t12.5 -42q0 -31 -25.5 -41t-49.5 -4q-33 -27 -20 -61.5t18 -55.5q-33 -18 -33 -55v-40q0 -39 15 -49.5t38 -18.5q4 -12 4 -18q0 -9 -27 -15t-30 -6
q-6 -13 -6 -29q0 -27 29.5 -50t29.5 -36q0 -12 -9 -22.5t-9 -24.5q0 -21 6 -21l57 6l4 -14q0 -14 -8 -26.5t-8 -22.5t26.5 -74.5t26.5 -97.5q-6 -6 -6 -18t9 -20.5t21.5 -9.5t27 1t24.5 2h8v-10q0 -18 18.5 -28.5t28.5 -19t10 -22.5q16 -10 38 -10t32 24l47 4q35 4 43.5 -14
t34.5 -18t48 13t34 28.5t21.5 26t31.5 5.5q16 10 30.5 22.5t10.5 35.5q14 14 25.5 30.5t33.5 42t60 25.5q4 12 4 19t-12.5 13.5t-18.5 12.5l8 39q31 10 31 34t-13.5 44.5t-13.5 42.5q0 34 48 47q16 25 16 63t-18 66q-14 6 -33 4t-25 14q25 25 43 19q31 18 31 63zM1153 919
q0 -29 23 -42q-18 -23 -19 -46l2 -18q40 -19 43.5 -59.5t3.5 -66.5t6 -46q-16 -16 -13 -37.5t3 -37.5t-12 -29t-12 -45t20 -60q-10 -16 -9 -34.5t1 -50t-31 -46.5q-14 -21 8 -55q-14 -16 -37.5 -28.5t-21.5 -39.5q-23 -10 -25 -28.5t-2 -53.5t-16 -49q5 -40 -45.5 -82.5
t-61.5 -50.5l17 -45q-69 22 -141 22q-20 0 -28 -29.5t-22 -29.5q-16 0 -30.5 11.5t-25.5 11.5t-71.5 -10.5t-74.5 -0.5l-45 -47q-16 0 -27.5 9.5t-32 25.5t-43.5 8q-12 10 -27.5 16.5t-38 18.5t-32.5 39q-40 3 -69 24t-45.5 32.5t-41.5 15.5q-68 259 -135 274q6 18 15.5 36
t9.5 30t-9.5 29.5t-11.5 21.5q-29 6 -25.5 23.5t7.5 29.5t2 23q6 13 6 33t-16.5 39.5t-16.5 41.5t27 43l2 21q0 29 -13.5 54t-13.5 55t15.5 56t15.5 60t18 47q-9 42 30.5 95.5t33.5 93.5q10 12 12 28.5t7.5 43t39.5 32.5q9 18 37.5 37.5t38.5 32t10 32.5q33 18 68 31.5
t57 44.5l17 -2q18 0 19 8.5t6 20.5t79 -4q23 18 52.5 19t59 1t53 9.5t36.5 48.5l6 -76l45 -37q31 -3 65 39v-8q0 -37 27 -56.5t43 -31t29 -23.5l55 -2q21 -19 45 -68t47 -69q-6 -18 -6 -52t55 -102q27 -4 28 -22.5t1 -47.5z" />
    <glyph glyph-name="ordfeminine" unicode="&#xaa;" 
d="M500 477q0 14 -15.5 16.5t-25.5 4.5l-17 -27q8 -8 13.5 -20.5t19.5 -12.5h6q19 25 19 39zM487 674q0 18 -22.5 27.5t-36.5 9.5q-20 0 -20 -19q2 -2 2 -5t2 -3q14 -23 47 -33q28 5 28 23zM496 740q0 -18 5 -29t1 -29q48 8 62 8t21 -11t24 -11t32 14q8 -4 14 -4q10 0 18 19
t25 16q10 8 10.5 20.5t6.5 22.5q-6 12 -6 14l10 33q0 31 -49 37q-4 -4 -6 -4l-43 4q-14 0 -25 -11q-23 12 -47 13q-12 -18 -23.5 -37t-9.5 -41q-20 -6 -20 -24zM1018 61h4l2 -8q0 -12 -11.5 -20.5t-12.5 -18.5t-4 -13t-5 -7h6q11 0 11 -17h-9q-20 0 -32.5 -16t-26.5 -16
t-18 8t-9 14q-14 -4 -26.5 -1t-30.5 3t-31 -26q-23 -6 -46 0t-52 6t-45 -33q-31 23 -67.5 19.5t-64.5 -3.5t-46.5 8.5t-36.5 8.5t-45 -27l-4 -28h-8q-18 0 -26 17t-22 17t-24 -10q-10 8 -21.5 18.5t-30.5 10.5t-44 -10q-16 11 -24 42.5t-21 43.5q4 25 4 37t3 18t14.5 9
t31.5 9q23 7 31.5 21t37.5 14t37.5 7t13.5 16.5t9 16.5t19 7t26.5 -21.5t23.5 -21.5t15.5 7.5t7.5 13.5v8q-2 4 1 22.5t9 18.5q6 -6 11 -23q10 -8 12 -21.5t18 -13.5l6 3q10 10 21.5 24t28.5 14h4q8 -10 15 -22t23 -12t25 12t21 12t15 -6t9 -20t29 -17q18 10 38.5 10
t30.5 23q16 -4 29.5 -21.5t30.5 -17.5l12 2l8 23q11 -19 40.5 -23t48 -6.5t18.5 -8.5v-36q0 -30 22 -33q14 14 21 14zM916 285q-24 0 -50 -15.5t-47 -19.5q-4 9 -24 19.5t-23 25.5q-6 0 -22.5 19.5t-69.5 19.5l-21 -4q-4 -6 -8 -24.5t-14 -16.5l-55 8q-14 -10 -24 -35
t-38 -18q-13 16 -38 18t-39.5 3t-26.5 5l-33 -20q-9 6 -11 26.5t-18 26.5q-12 2 -28.5 2t-20.5 17l-37 20l2 8q0 25 -13 45.5t-13 42.5v11q20 10 20 15v50q0 21 26 49q26 29 26 31v17q1 15 18 12l18 -2q20 24 13 44.5t-9 26.5l-6 -2q-18 -2 -26.5 20t-8.5 32
q0 13 -20.5 58.5t-24.5 45.5v4q0 16 16.5 36.5t22.5 33t0 28.5q32 11 33 14l14 31q10 -29 17 -35q18 8 22 27q16 -10 39 -10t43.5 15.5t56.5 15.5t72 -27q23 4 44.5 1t43.5 7q10 -8 22.5 -9t33 -4.5t28.5 -23.5q18 -2 26.5 -17t14.5 -30q-6 -10 -6 -23t11.5 -28.5t6.5 -36.5
q6 -14 16.5 -29.5t-3.5 -31.5l-2 -33q0 -33 16 -49l10 2q21 0 21 -11q0 -14 -28 -24.5t-16.5 -26.5t11.5 -26.5t-10 -18.5t-10 -28l4 -52q10 -10 13 -20t9 -21h4q20 -2 34.5 11.5t31.5 21.5q8 0 21 -15.5t34 -2.5q6 -6 6 -15l-10 -69q0 -16 -13.5 -27.5t-6.5 -27.5
q-20 -10 -15.5 -20.5t-1.5 -13.5t-30 -3z" />
    <glyph glyph-name="guillemotleft" unicode="&#xab;" 
d="M1147 162q0 -25 22 -25q9 -35 15.5 -41.5t36.5 -21.5l2 -8q0 -18 -11.5 -34t-7.5 -34q-18 -16 -35.5 -40t-43.5 -24t-75.5 18t-80.5 15q-8 5 -8 31.5t-11 26.5q-16 0 -26.5 -13.5t-22.5 -13.5q-4 0 0 4l4 12l4 27q0 10 -8 12l-33 -4q-6 0 -22 8l2 21q0 18 -11.5 22
t-22.5 6.5t-18.5 5.5t1.5 19l-9 33q-16 2 -28 12t-31 2q-10 14 -8 33.5t-16 26.5l-19 -9v4q0 17 -13.5 32.5t-20.5 23.5t-7 20l-2 2q-8 0 -20.5 -9t-24.5 -9t-14 6l6 57l-8 -8l-84 53q6 9 6 19t-8.5 20t-8.5 32t20.5 42.5t31.5 44.5q16 2 33.5 6t21.5 25l33 -10l-25 43
q3 17 24.5 38.5t18.5 38.5l17 -6q18 6 17 24.5t9 33.5l14 -2q12 0 22.5 8t23.5 10l6 33l-2 10q0 12 10 13t31.5 3t11.5 45q17 17 53 5q14 8 9 18t-3 23q-2 4 -4 7t-2 7h4q10 0 20.5 -13.5t20.5 -13.5t13.5 8.5t5.5 18.5t4 19.5t2 13.5q35 -7 39 -7t18 6.5t47.5 18.5t55.5 12
t39.5 -23.5t35.5 -37.5l-2 -10q0 -16 10.5 -28.5t10.5 -29.5l-2 -10q-16 -8 -25.5 -12t-13.5 -9.5t-6 -14.5t-7 -25q-16 0 -19 -6.5t-3 -26.5t-14 -25l-17 17q-39 0 -97 -63.5t-60 -76.5q-8 4 -22 4q-22 0 -46 -29t-37 -34l-6 2q-20 0 -41 -32.5t-31 -48t-20 -15.5v-15
q17 -3 66.5 -42t72.5 -29q14 -6 25.5 -19.5t31 -34t47.5 -4.5q3 -20 68 -79.5t86 -59.5h4l19 15q12 -6 12 -31zM696 162q0 -25 23 -25q4 -16 6 -25.5t8.5 -16t36.5 -21.5l2 -8q0 -18 -11 -34t-7 -34q-18 -16 -36 -40t-44 -24t-76 18t-80 15q-8 5 -8 31.5t-10 26.5
q-16 0 -26.5 -13.5t-22.5 -13.5q-4 0 0 4l4 12l4 27q0 10 -8 12l-33 -4q-7 0 -23 8l2 21q0 18 -11 22t-22.5 6.5t-18.5 5.5t1 19l-8 33q-16 2 -28.5 12t-30.5 2q-10 14 -8.5 33.5t-16.5 26.5l-18 -9v4q0 17 -20.5 40.5t-20.5 35.5l-2 2q-8 0 -20.5 -9t-24.5 -9t-15 6l6 57
l-8 -8l-84 53q6 9 6 19t-8 20t-8 32t20.5 42.5t30.5 44.5q16 2 33.5 6t21.5 25l33 -10l-24 43q3 16 24.5 38.5t18.5 38.5l16 -6q18 6 17 24.5t10 33.5l14 -2q12 0 22.5 8t22.5 10l6 33l-2 10q0 12 10.5 13l31.5 3t11 45q17 17 54 5q14 8 9 18t-3 23q-2 4 -4 7t-2 7h4
q10 0 20 -13.5t20 -13.5t13.5 8.5t5.5 18.5t4 19.5t2 13.5q35 -7 39 -7t18.5 6.5t48 18.5t55.5 12t39 -23.5t36 -37.5l-2 -10q0 -16 10 -28.5t10 -29.5l-2 -10q-16 -8 -25.5 -12t-13.5 -9.5t-6 -14.5t-6 -25q-16 0 -19.5 -6.5t-3.5 -26.5t-14 -25l-16 17q-40 0 -98 -63.5
t-60 -76.5q-9 4 -23 4t-24 -8t-19.5 -19t-18.5 -21.5t-20 -14.5l-6 2q-21 0 -41 -32.5t-30.5 -48t-20.5 -15.5v-15q17 -3 66.5 -42t72.5 -29q14 -6 25.5 -19.5t31.5 -33.5t48 -5q3 -21 67.5 -80t86.5 -59h4l18 15q12 -6 12 -31z" />
    <glyph glyph-name="logicalnot" unicode="&#xac;" 
d="M946 392q0 -17 -8 -25.5t-20.5 -12.5t-25.5 -6t-24 -6q-67 9 -67 14v24q0 19 -25 28q-2 10 2 20t4 22t-12 19v6q0 16 -13.5 28.5t-13.5 25.5t7 20q30 24 36.5 56t8.5 49.5t16 35.5l-72 107q-12 -8 -25.5 -23.5t-31.5 -15.5t-61 43q-18 -14 -36 -16.5t-48.5 -7.5
t-57.5 -38q-10 -6 -22 -6t-25.5 15.5t-32.5 11.5q-10 18 -24.5 12t-30.5 -6l-6 2q-6 12 -59 43t-70 51q18 41 36.5 68.5t67.5 27.5q16 0 28.5 9.5t27.5 13.5q3 -3 28 -10.5t36 -11t13 -3.5l62 11q14 0 29 -9q3 -18 24 -20t33 -3t20 -5l17 2q17 0 46.5 -10.5t44.5 -11.5
t32 10q57 0 77 -23q10 -4 22.5 -3t26.5 1q38 0 44 -27q-10 -12 -10 -42t16 -68.5t10 -73.5q4 -8 4 -20.5t2 -33.5t21 -24q10 -14 10 -28l-10 -62q0 -7 11 -41.5t13 -36.5q-5 -13 -25 -21t-20 -25z" />
    <glyph glyph-name="registered" unicode="&#xae;" 
d="M473 399l-14 -35q0 -8 3 -13t5 -9q14 -8 25.5 -21.5t24.5 -13.5t18.5 8.5t15.5 8.5l51 -39l19 8q8 0 12 -8.5t2 -12.5v-4q-6 -4 -13.5 -2t-15.5 2q-23 0 -20.5 -17.5t2.5 -29.5t-9.5 -19t-20.5 -7t-16.5 13t-15.5 13q-13 0 -18.5 -16.5t-22.5 -16.5q-18 0 -29.5 15.5
t-31.5 15.5t-34 -13t-28 -13t-26 12v-8q0 -41 35 -36t45 5h10v-8q-3 -18 17 -29.5t30 -20t10 -22.5q16 -10 38 -10t32 24l47 4q29 0 42 -16t20 -16l36 3q37 3 45.5 15t23.5 37t46 18q16 10 30.5 22.5t10.5 35.5l10 10q-16 10 -36.5 16.5t-28.5 28.5q-38 24 -51 53l16 43
q-14 16 -17.5 61.5t-19.5 61.5q-3 8 -41.5 48t-41.5 40l-27 -3q-23 -3 -29 -1q-6 25 -39 25q-44 0 -54.5 -17t-21.5 -28q0 -18 5 -36t3 -36v-4l-18 -21zM383 293q27 0 27 29q0 13 -6.5 28t4.5 29l-17 133q10 20 10 51v80q0 16 -10 29.5t-10 27.5t14 27q-6 18 -7 42t-8 60.5
t-54 36.5q-22 0 -19 15q6 6 6 15t-7 15.5t-7 24.5t21.5 26.5t41.5 2.5l25 24q14 -4 18.5 -19.5t20.5 -15.5l10 2l21 29h4q14 0 22 -16q16 2 24.5 17t22.5 15l17 -16q23 14 65 4q15 25 30 25t19.5 -6.5t14.5 -14.5t41 6q12 -6 27.5 -9t39.5 -8t31 -34q78 -59 78 -155
q0 -37 -10.5 -66t-10.5 -63l-2 -9q-22 15 -41.5 -12.5t-19.5 -45.5t8 -34q18 -8 17.5 -20.5t-0.5 -28.5t22 -25q6 -10 5 -19.5t-1 -19.5t6 -28q12 -10 21.5 -24.5t25.5 -18.5q14 14 19.5 14t17.5 -37l4 29q31 10 31 34t-13.5 46.5t-13.5 42.5q0 31 48 45q16 25 16 63t-18 66
q-14 6 -33 4t-25 14q25 25 43 19q31 17 31 63q0 45 -10.5 60.5t-22.5 20.5t-24.5 10t-16.5 30q-18 15 -48 15q-31 0 -43.5 2t-10.5 6q17 31 51 16q25 6 25 39l-5 33q-39 27 -72.5 59.5t-74.5 54.5l-20 -2q-37 0 -55.5 20.5t-30 30t-29.5 9.5t-44 -16.5t-26 -29.5t9.5 -17.5
t9.5 -11.5t-13 -13q-37 8 -72.5 23.5t-74.5 19.5q-12 -10 -25.5 -22.5t-5.5 -33.5q-4 -31 -18.5 -26.5t-28.5 4.5t-29.5 -12.5t-15.5 -22.5l14 -45q0 -29 -26.5 -38t-48.5 -3q-33 -27 -20 -61.5t18 -55.5q-33 -18 -33 -54v-40q0 -40 15 -49.5t38 -19.5q4 -12 4 -22t-11 -8.5
t-18 1.5q-35 0 -34 -37q0 -29 29.5 -52t29.5 -35q0 -11 -9 -21.5t-9 -24.5t6 -18.5t14 -3.5t17.5 4.5t17.5 3.5l8 -3q4 -8 4 -18l-16 -44q0 -23 19.5 -62t21.5 -48q14 4 12 24.5t4 33.5q12 -6 18.5 -22.5t18.5 -16.5zM498 877q-6 0 -11.5 -8.5t-13.5 1.5q-13 0 -24 -25
t-11 -48t13.5 -40.5t21.5 -37.5q-2 -6 -3 -6l-13 1q-11 0 -11 -16t20.5 -15t29.5 -1l6 2l7 -2h56q16 0 23 6h6q10 2 27 -6q8 -12 22 -12q61 0 66 10q18 4 29.5 17.5t27.5 19.5q10 17 33 35q-5 83 -51 112l-11 -2l-8 4q-7 18 -23 19.5t-26 2.5t-18 5q-2 -2 -9 -2l-19 3
q-18 3 -22 -9t-14 -12q-10 -1 -18.5 11.5t-20.5 14.5l-33 -43q-22 21 -28 21zM1153 919q0 -29 23 -42q-18 -23 -19 -46l2 -18q40 -19 43.5 -59.5t3.5 -66.5t6 -46q-16 -16 -13 -37.5t3 -37.5t-12 -29t-12 -45t20 -60q-10 -16 -9 -34.5t1 -50t-31 -46.5q-14 -21 8 -55
q-14 -16 -37.5 -28.5t-21.5 -39.5q-23 -10 -25 -28.5t-2 -53.5t-16 -49q5 -40 -45.5 -82.5t-61.5 -50.5l17 -45q-69 22 -141 22q-20 0 -28 -29.5t-22 -29.5q-16 0 -30.5 11.5t-25.5 11.5t-71.5 -10.5t-74.5 -0.5l-45 -47q-16 0 -27.5 9.5t-32 25.5t-43.5 8
q-12 10 -27.5 16.5t-38 18.5t-32.5 39q-40 3 -69 24t-45.5 32.5t-41.5 15.5q-68 259 -135 274q6 18 15.5 36t9.5 30t-9.5 29.5t-11.5 21.5q-29 6 -25.5 23.5t7.5 29.5t2 23q6 13 6 33t-16.5 39.5t-16.5 41.5t27 43l2 21q0 29 -13.5 54t-13.5 55t15.5 56t15.5 60t18 47
q-9 42 30.5 95.5t33.5 93.5q10 12 12 28.5t7.5 43t39.5 32.5q9 18 37.5 37.5t38.5 32t10 32.5q33 18 68 31.5t57 44.5l17 -2q18 0 19 8.5t6 20.5t79 -4q23 18 52.5 19t59 1t53 9.5t36.5 48.5l6 -76l45 -37q31 -3 65 39v-8q0 -37 27 -56.5t43 -31t29 -23.5l55 -2
q21 -19 45 -68t47 -69q-6 -18 -6 -52t55 -102q27 -4 28 -22.5t1 -47.5z" />
    <glyph glyph-name="macron" unicode="&#xaf;" 
d="M1018 1167h4l2 -8q0 -12 -11.5 -21.5t-12.5 -18.5t-4 -12t-5 -7h6q11 0 11 -17h-9q-20 0 -32.5 -16t-26.5 -16t-18 8t-9 14q-14 -4 -26.5 -1t-30.5 3t-31 -26q-23 -6 -46 0t-52 6t-45 -33q-31 23 -67.5 19.5t-64.5 -3.5t-46.5 8.5t-36.5 8.5t-45 -27l-4 -29h-8
q-18 0 -26 17.5t-22 17.5t-24 -10q-10 8 -22 18.5t-32 10.5t-42 -11q-16 11 -24 43t-21 43q4 25 4 37.5t3 18.5t14.5 9t31.5 9q23 7 31.5 21t37.5 14t37.5 7t13.5 16.5t9 16.5t19 7t26.5 -21.5t23.5 -21.5t15.5 7t7.5 14v8q-2 4 1 22.5t9 18.5q6 -6 11 -23q10 -8 12 -21.5
t18 -13.5l6 2q10 10 21.5 24.5t28.5 14.5h4q8 -10 15 -22t23 -12t25 12t21 12t15 -6t8.5 -20t29.5 -17q18 10 38.5 10t30.5 23q16 -4 29.5 -21.5t30.5 -17.5l12 2l8 23q11 -19 40.5 -23t43 -6t18.5 -10t5 -18.5v-28.5t22 -21q14 14 21 14z" />
    <glyph glyph-name="degree" unicode="&#xb0;" 
d="M621 909q15 0 34 19h4q4 0 9.5 3t13.5 10t19.5 52t11.5 49v2q-11 6 -11 18t6.5 18t6.5 16t-8.5 14t-8.5 12l7 23q0 22 -19 29q-6 8 -13 15t-3 17q-16 29 -47 33t-53 4t-32 -8t-22 -6q-12 -20 -33.5 -31.5t-21.5 -29.5t7 -20.5t7 -9.5t-14.5 -9.5t-14.5 -16.5t4.5 -22.5
t8.5 -16.5l12 4l6 -12q0 -10 -9 -8t-13 2q-19 -1 -19 -21t8.5 -23t18.5 -5t16 -4t4 -8t-5 -14.5t-3 -13.5t14.5 -20.5t21.5 -15.5t12 10t17 10t11 -13q0 -13 -29 -3l-2 -6q0 -18 19 -19q11 0 34 17q12 -2 22.5 -11.5t25.5 -9.5zM762 1196q10 0 10 14.5t-10 14.5t-10 -14.5
t10 -14.5zM846 1060q0 -26 -4 -34q-4 -6 -7.5 -11t-3.5 -10t4.5 -12.5t2.5 -17.5l-2 -27l-9 4l2 -4q0 -4 -5 -7t-3 -9q-12 -4 -16 -15.5t-14 -17.5h-5q-8 0 -14 -9t-22 -9t-21.5 -8.5t-13.5 -12.5q-6 -18 -8 -25.5t-4.5 -9.5t-10.5 -1t-24 1t-25 -12q-14 6 -27.5 3t-26.5 -3
t-26 8q-16 -4 -29.5 10.5t-31.5 14.5q-18 -12 -28 -12t-15 8l10 24q0 12 -7 14.5t-23.5 4t-16.5 24.5q0 12 -14.5 19.5t-13.5 16.5t1 17.5t-6 16.5t-14.5 20t4.5 25v6q0 12 -8.5 21.5t-8.5 20.5t7.5 17.5t7.5 16.5l-10 27q0 6 22.5 28.5t26.5 106.5v2q39 10 69.5 29.5
t67.5 19.5l47 14l12 -8q4 0 6.5 2t6.5 0l49 -2q8 -8 53 -25.5t49 -15.5q11 -5 20.5 -28t26.5 -23q11 -21 0 -53q10 -8 15.5 -21.5t19.5 -17.5q4 -4 4 -8l-6 -21l-16 -14q6 -12 6 -38z" />
    <glyph glyph-name="plusminus" unicode="&#xb1;" 
d="M1018 61h4l2 -8q0 -12 -11.5 -20.5t-12.5 -18.5t-4 -13t-5 -7h6q11 0 11 -17h-9q-20 0 -32.5 -16t-26.5 -16t-18 8t-9 14q-14 -4 -26.5 -1t-30.5 3t-31 -26q-23 -6 -46 0t-52 6t-45 -33q-31 23 -67.5 19.5t-64.5 -3.5t-46.5 8.5t-36.5 8.5t-45 -27l-4 -28h-8
q-18 0 -26 17t-22 17t-24 -10q-10 8 -21.5 18.5t-30.5 10.5t-44 -10q-16 11 -24 42.5t-21 43.5q4 25 4 37t3 18t14.5 9t31.5 9q23 7 31.5 21t37.5 14t37.5 7t13.5 16.5t9 16.5t19 7t26.5 -21.5t23.5 -21.5t15.5 7.5t7.5 13.5v8q-2 4 1 22.5t9 18.5q6 -6 11 -23
q10 -8 12 -21.5t18 -13.5l6 3q10 10 21.5 24t28.5 14h4q8 -10 15 -22t23 -12t25 12t21 12t15 -6t9 -20t29 -17q18 10 38.5 10t30.5 23q16 -4 29.5 -21.5t30.5 -17.5l12 2l8 23q11 -19 40.5 -23t48 -6.5t18.5 -8.5v-36q0 -30 22 -33q14 14 21 14zM1010 604q0 -12 -3 -18
t-36 -16q-33 -9 -36 -14t-8 -13t-39 -8t-46.5 -16.5t-24.5 -31.5q-13 0 -25 14.5t-18 21.5t-14 7t-12.5 -8t-8.5 -12v-10q2 -4 -1 -21.5t-9 -19.5q-6 6 -12 22.5t-15 26.5q-12 -24 -12 -40t27 -42l28 -4l3 -8q0 -14 -23.5 -31.5t-3.5 -40.5q-29 -42 -29 -43l10 -55
q-12 -15 -43 -22.5t-43 -20.5q-25 4 -37 4t-18 3t-9 14.5t-9 31.5q-7 23 -20 31t-13 41t-16.5 46t-30.5 25q0 17 14.5 27t21.5 16t7 14.5t-8.5 12.5t-12.5 8l-10 -2q-37 0 -41 12q4 4 11.5 6.5t12.5 7.5t19.5 9t14.5 16v6q-18 -12 -39 -11t-31 -21q-18 4 -29.5 20.5
t-32.5 16.5l-10 -3l-10 -20q-10 16 -39 20.5t-47 7.5t-18 10v36q0 29 -23 32q-4 -4 -8 -10t-10 -6l-7 2l-2 8q0 10 11.5 19.5t11.5 25.5q10 10 10 12.5t-8 2.5t-8 14h8q18 0 31.5 17.5t27.5 17.5t27 -23q14 4 27.5 1t31.5 -3t29 25q23 8 47 1t42 -7t30 6l2 2
q-12 18 -11 38.5t-22 31.5q4 18 20.5 29.5t16.5 31.5l-2 10l-21 8q17 12 21 41t6.5 47.5t9.5 18.5h36q31 0 34 22q-4 4 -10 8.5t-6 10.5l2 6l8 2q10 0 19 -11t26 -11q11 -11 12 -11l2 2v4q0 11 15 11v-8q0 -18 17 -32t17 -28t-8 -18t-14 -8q4 -14 1 -27.5t-3 -32.5t24 -29
q8 -23 1 -46t-7 -48v-4q14 -4 27 -10t29 -6t42 26l5 29l8 2q14 0 26.5 -16.5t20.5 -19.5t24 9q40 -28 42 -28l55 10q15 -10 23.5 -42.5t21.5 -43.5q-4 -25 -4 -37z" />
    <glyph glyph-name="twosuperior" unicode="&#xb2;" 
d="M563 682q-6 6 -14 6t-8 -6t8 -8q4 2 9 2t5 4v2zM713 705q0 4 -5 4t-6 -7l11 -4v7zM734.5 700.5q-0.5 -6.5 9.5 -6.5t10 8q0 7 -4 11q-4 0 -7 2q-8 -8 -8.5 -14.5zM635 928q0 8 -6 8t-6 -2v-4q0 -10 8 -12l4 4v6zM416 631q-19 30 -19 44q0 13 -1 33.5t1 26.5q7 -6 17 -6
t18 13.5t21 17.5q12 18 12 37.5t-9.5 19.5t-9.5 10t25 19q6 -4 10 -11.5t15 -7.5l6 2l6 19q-10 4 -17.5 10t-17.5 12q30 24 44 20q13 -5 18 -5l28 4l8 18q-12 4 -12 17q0 8 19.5 15t27.5 13l12 -2q16 0 31 11.5t29 21.5q8 16 19.5 26.5t17.5 26.5v6q0 10 7 15.5t7 14.5
t-8 13q-4 23 -16 35h-5q-10 -2 -18 6.5t-18 -0.5l-15 21q-31 -4 -33 -7.5t-2 -19.5t-10 -16h-4q-8 6 -10 17.5t-12 15.5q-12 -4 -22.5 1t-20.5 5q-18 0 -19 -17q0 -14 14 -28q-18 -4 -23 -6t-24 8l-14 -8l2 -11q0 -10 -4 -17t-2 -17q-38 -27 -49 -50l-15 -2q-12 18 -9 38
t-7 34t-10 17t6 9.5t14 13.5t15.5 13t10.5 26t15 30h2q10 0 21 16t24 16q4 4 2 11.5t-2 16.5q1 9 21 9t33 -12q24 -6 32 -6t21 4q4 12 15 14t18 12q10 -4 17 -13t17 -9l7 2l10 12q10 -4 17 -17t24 -5q24 -6 24 -19q14 0 23.5 -8t28 -23.5t31.5 -15.5t16.5 -8t10.5 -24.5
t28 -10.5q21 -17 16 -47v-12q-8 -4 -3 -14.5t-3 -10.5l-6 2l4 13l-6 -7q-13 32 -29 37q-14 -6 -8 -19.5t6 -21.5t-12 -16q-6 -19 4 -29v-24q-8 -6 -17.5 -9.5t-11.5 -13.5q4 -8 4 -15t-11 -15t-3 -48q-7 -6 -17 -6t-18 9.5t-23 2.5q-25 8 -31.5 -2t-10 -17t-5.5 -14t-10 -7
l-6 2q-12 16 -22 16t-17.5 -3t-7.5 1q0 -6 -46 -18.5t-50 -47.5l-35 -41q0 -20 41 -20l28 10l23 -10q2 0 15 8t24.5 5t28.5 5q0 20 12 25q10 -4 18 -13.5t26 -9.5t21.5 14.5t10.5 30.5q2 -6 4 -13t4 -13q4 -4 11 0t11 4l6 -2q4 -12 12.5 -17.5t18.5 -14t0 -32.5
q4 -16 17.5 -25t15.5 -26q6 -4 22 -4t37 10q13 -13 13 -17t-13 -20q4 -8 4 -14t-6 -6l-8 4l-8 23l-17 4q-8 -10 -7 -22.5t-7 -22.5l-10 -4q-48 49 -62 49t-19 -10.5t-9 -16.5q-10 2 -15.5 9t-15.5 7l-6 -2q-10 -12 -23.5 -7t-25.5 5t-19 -16q-20 4 -26 11t-31 -5
q-20 12 -47 4t-48 -8t-30 12l-6 -2q-16 0 -26.5 10.5t-24.5 10.5z" />
    <glyph glyph-name="threesuperior" unicode="&#xb3;" 
d="M834 752q0 -31 -17 -41q-12 -52 -35 -66q-7 -10 -34 -10l-9 -10q6 -5 6 -13t-11 -10t-11 -20q0 -13 -21.5 -13t-21.5 -16q-13 0 -26 -17t-25 -8l-35 4q-16 0 -26.5 -16t-18 -22.5t-17.5 -4.5t-17 5.5t-15 3.5q-25 -25 -60 2q-6 -4 -12 -9.5t-14 -5.5l-11 2q9 47 -6 62
l11 16q25 -4 25.5 -17t17.5 -30q8 8 8 14t-6.5 12.5t-6.5 16.5v2q12 0 15.5 14.5t11.5 14.5t9.5 -9.5t15.5 -9.5t16 7.5t5.5 17.5t37.5 2q10 17 33 35l6 -2q6 0 12 4t13 2q22 22 38 27q10 29 28 52t20 54q16 16 20 36.5t8 43.5q-8 16 -8 37.5t-22 32.5h-3q-10 -2 -16 7
t-16 9t-21 -12l-18 14q-14 -4 -23.5 -1t-20.5 3t-13.5 -9t-11.5 -9t-13 8t-17 8l-10 -2q-4 -14 -12 -14l-6 2l-8 30q10 5 14 21t9 21.5t18 0.5q10 6 11 14.5t3 25t19 22.5t27.5 27.5t23.5 31.5q0 35 -15.5 38t-37.5 3t-36 13l-28 -13q-12 10 -27.5 9t-32.5 6q-4 -6 -14 -6
t-16 14q-14 0 -29.5 12t-15.5 24t14 19q10 -4 16.5 -14.5t17.5 -10.5t16 11.5t16 11.5q73 0 83 -10q10 0 15.5 10t13.5 14l53 -22q14 0 27 12h2q12 0 22.5 8t21.5 8t16.5 -7t15.5 -7l22 12q30 -18 37 -32q6 6 15 6l14 -2q6 -10 17.5 -17.5t11.5 -17.5v-4
q-16 -12 -18.5 -28.5t-10.5 -33.5q-10 0 -13 -9t-9.5 -21.5t-22.5 2.5l-27 -45l-24 -6l-2 -7q0 -14 10 -24l6 2q10 0 15 -12.5t18 -8.5q4 -12 15 -16t13 -16q36 -16 38.5 -55.5t4.5 -53.5q10 -10 10.5 -21.5t6.5 -21.5q-12 -30 -12 -61z" />
    <glyph glyph-name="acute" unicode="&#xb4;" 
d="M534.5 1247.5q6.5 1.5 14.5 0.5t15.5 -3t17.5 -2t13 14.5t7 22.5q2 2 12.5 2t19.5 -6t19 -10q16 2 14.5 13t4.5 21v13q0 8 2 8q17 -23 24 -35t14 -12q10 0 18 25.5t18 25.5q16 0 26 -13.5t18 -9.5q24 14 40 15q16 0 26 -7t28 -7t29 -10.5t18 -24t13 -29t12 -25.5
q-8 -14 -5 -26t3 -26t-8 -25q-20 -4 -34 -4t-21.5 -13.5t-13.5 -23.5l-13 2q-10 0 -13 -6.5t-8.5 -21.5t-19.5 -15l-12 20q-13 10 -25 10t-24 -6q-12 -18 -32.5 -25t-59 -19t-54.5 -36q-33 33 -63.5 7.5t-54.5 -27.5q-12 12 -24 12t-23 -8t-25 -10q0 -23 -15 -23t-29.5 11.5
t-29.5 1.5q-8 16 -5 34.5t-17 28.5q-4 12 -17.5 17.5t-13.5 17.5q10 8 23 -4q12 6 12 18l-10 39q0 12 30.5 27t36.5 33l13 -13q15 0 21.5 12.5t10.5 20.5t11 12q10 -8 24 -8l39 4q16 8 16 26t6.5 19.5z" />
    <glyph glyph-name="mu" unicode="&#xb5;" 
d="M1020 410q0 -32 6 -44t19 -32.5t4 -44.5q41 -71 63.5 -83.5t40.5 -10.5l35 -37q-10 -12 -10 -35l10 -72q0 -27 -14.5 -49t-20.5 -47q-16 4 -32.5 8t-28.5 21q-33 0 -68 10t-72 6l-37 -2l-12 -18q-10 33 -33.5 30.5t-39.5 -2.5t-39 13.5t-49 13.5t-57.5 -13.5t-77.5 -13.5
t-60 -39q-23 6 -44.5 -6t-43.5 -8l-13 18q-12 -42 -12 -63t17.5 -34t33.5 -23q7 -32 7 -60t12 -44.5t12 -37.5q-10 -16 -12 -42.5t-7 -54.5t-14.5 -47.5t-21.5 -34.5t-26.5 -30.5t-31.5 -40.5q-16 2 -29.5 11.5t-27.5 9.5t-24 -10l6 -33l-15 -2q-15 30 -65 18l-49 129
q-23 18 -25 46t-10 51q12 23 6 48t6 48q-8 41 9.5 72.5t29.5 66.5q-12 18 -12 30t14 54q-18 27 -12 44t18.5 34.5t21.5 39t-5 56.5l14 49l-25 33q21 58 3.5 88.5t-17.5 46.5q0 22 19 42.5t16 42.5q-4 23 -7 34.5t-6 27t17 46.5q-13 25 -18 81t-14 80.5t-34 40.5
q-41 0 -50 -16t-13 -53q-16 16 -8 33.5t8 35.5t-49 68q7 38 47 78q12 -6 23.5 -13.5t35.5 -7.5t34.5 12.5t27.5 34.5l114 -110q10 -18 18.5 -39t33.5 -23q0 -16 -19.5 -25t-28 -16.5t-8.5 -21.5l-24 -27l30 -37h5q14 0 30 24t21 24q10 0 15 -15.5t5 -23.5q0 -16 -18.5 -17.5
t-28.5 2.5q-16 -25 -31.5 -49t-13.5 -53v-14q39 -29 39 -62t-25 -72q-5 -21 9 -49t17 -45.5t-9 -40.5l61 -47q-8 -19 -8 -31q0 -19 59 -34t90 -15q57 0 100 43t23 86q51 17 79 87.5t30 86.5l45 33q-7 67 -23.5 105t-54.5 51q62 32 62 76l-4 20q-25 4 -36.5 23.5t-20.5 40
t-20.5 37t-30.5 16.5t-34 -10q-23 -35 -47 -35l-6 4q0 24 26 51t35 49q20 6 31.5 15.5t28.5 22.5t50 13q32 0 44 18.5t35 18.5t52.5 -24.5t31.5 -50.5l28 -27h21l-2 -19q0 -27 8 -51t12 -49h-8q-25 0 -30 -27.5t-11 -33.5q4 -46 4 -51l-2 -76q0 -47 13.5 -94.5t13.5 -79.5z
" />
    <glyph glyph-name="paragraph" unicode="&#xb6;" 
d="M756 80v29q0 12 -8 18q-23 -10 -26 -33.5t-5 -44.5q39 0 39 31zM743 492.5q0 35.5 -47 35.5q-18 0 -23 -12t-7 -29q-10 -10 -18.5 -28.5t-24.5 -18.5h-9q-6 6 -6 16q0 -64 8 -92t32 -48t40.5 -49t44.5 -46q10 29 10.5 60.5t10.5 60.5q-27 20 -27 47t8 47.5t8 56z
M461 1049q-35 -18 -58 -15q-35 -18 -54 -54t-36 -71q11 -64 60 -71q10 -10 28.5 -44t29.5 -47.5t28 -17.5q-8 33 -8 64l-5 32l5 66l-5 45q0 29 5.5 56.5t9.5 56.5zM733 1016q0 12 -7 22.5t-17.5 20.5t-20.5 19.5t-16 15.5q-20 -2 -40 -3t-36 -12q4 -4 12 -8q2 -53 33 -102
q-6 -12 -6 -27l10 -59q0 -2 -17.5 -45.5t-17.5 -71.5q14 10 29 10t27 -18q33 4 53 16l-8 74q0 23 10 39t10 34t-4 40l-20 -7q-9 0 -9 10t17.5 25t17.5 27zM913 1210q16 0 23.5 10.5t9.5 23.5t4 27.5t15 20.5q6 -8 11 -43t32 -35l14 3q26 32 45 32l6 -2q0 -11 15.5 -23
t22.5 -18t7 -26t-19.5 -57.5t-49.5 -45.5q-16 -20 0 -51q-7 4 -17 24.5t-15 28.5t-16 8q-34 0 -68 -18t-34 -40q0 -21 -5 -83.5t-10.5 -136t-10.5 -103.5l-3 -24q6 -31 4 -62.5t-5.5 -87.5t18.5 -98l-17 -6q-2 -16 -8 -32t-6 -30t10.5 -28t10.5 -32t-10.5 -35t-10.5 -33
t7 -26.5t16.5 -20t19.5 -18.5t16 -21h21q12 -6 40 -19.5t79 -38.5t51 -41q0 -51 -20.5 -57t-38 -5t-31.5 1t-30 -11.5t-32 -11.5t-30.5 10.5t-30.5 14.5q-11 -8 -25 -8t-28.5 14t-33.5 14t-24.5 -10t-9.5 -22.5t-10 -22.5t-22 -10t-28 15.5t-28 15.5t-19 -6.5t-5.5 -13.5
t-4.5 -14t-10 -9l-12 32l-21 4q-10 -14 -17 -42.5t-20 -80t-24 -51.5q-29 0 -35 27q10 27 10 47l-4 14l-35 19q-22 -27 -43 -27l-8 2q-63 106 -63 307q0 24 21 63.5t18 67.5q10 23 8 73t3 72.5t28 39.5l4 12l-33 -14l-10 16q-34 6 -79 6q-44 0 -64.5 15.5t-36 33t-32 29.5
t-42.5 4q-15 22 12 49q-4 23 -19.5 38.5t-31.5 29.5l2 12q0 18 -14.5 31.5t-12.5 32.5l-28 32q8 12 8 29t2 43.5t26 38.5q4 20 0 34t-4 30t9.5 25t20.5 17.5t23.5 16.5t18.5 18q31 8 31 23v8l-31 14l14 27q-8 29 1.5 37t26.5 10t35.5 3t26.5 18l-4 18q0 20 16.5 34.5
t26.5 29.5l13 2q16 0 14 -20.5t-2 -31.5l2 -14l12 -2q25 0 39.5 20.5t30.5 32.5l59 -24q31 7 60 45q25 -76 53 -70q16 0 61 11.5t69 17.5t34 12l28 -33l58 4q17 0 28 -15t18 -22.5t23 -7.5zM621 496q0 23 -21 22l-4 -8q12 -25 12 -50q1 8 7 16.5t6 19.5z" />
    <glyph glyph-name="periodcentered" unicode="&#xb7;" 
d="M618 412q-18 0 -28 -18.5t-24 -18.5t-26 8t-20 19.5t-15 22.5t-21 21t-40 14.5t-34 26.5q12 12 12 35t-16.5 42.5t-16.5 47.5t12.5 52t28.5 46.5t33.5 44t28.5 46.5q14 2 27 1t39 -1t42 28l4 2q14 0 28 -19t37 -19t35.5 -8.5t21.5 -18.5t18.5 -22.5t21.5 -18.5
q0 -41 18.5 -77t18.5 -66t-7.5 -44t-16.5 -23t-16 -15t-7 -11l2 -2q0 -8 -14.5 -11t-23.5 -6q-19 -6 -33 -32.5t-34 -29.5q-17 4 -35 4z" />
    <glyph glyph-name="cedilla" unicode="&#xb8;" 
d="M600 -467q-18 -6 -26 -6t-15 8q-3 21 -25 21t-31 -12.5t-15.5 -26t-12.5 -23.5t-24 -6q-6 -2 -23 -2t-34 18.5t-42 18.5q-8 4 -15 8t-18 8q10 14 5 27.5t-5 27.5q0 21 22 33.5t28 32.5q18 14 43.5 20.5t67.5 20t42 63.5q0 9 -28.5 56t-32.5 55q16 95 50.5 150t106.5 55
q20 18 44 26.5t38 21.5t29 13q21 0 46.5 -32t45.5 -37l27 -74q-12 -23 -17.5 -63.5t-18 -112.5t-60.5 -88l-41 -101q-4 -10 -55.5 -32t-55.5 -68z" />
    <glyph glyph-name="onesuperior" unicode="&#xb9;" 
d="M662 1069q0 -18 -11.5 -32.5t-7.5 -32.5q-10 -23 -4 -49.5t-16 -43.5q-2 -4 -2 -14l5 -31q5 -32 -8 -41q-5 -24 2 -41.5t7 -33.5l-9 -119l9 -35q0 -12 -11.5 -20.5t-1.5 -20.5l-10 -14q-8 -2 -11 5t-5 13q-29 12 -29 36.5t-14 31.5q-4 29 -17 51q4 10 1 21.5t-3 19.5
t8.5 28.5t8.5 40.5l-2 66q0 33 10 53q-6 12 -6 25.5t-1.5 34.5t-12.5 32t-23 22t-24.5 25.5t-22.5 25.5t-10 21t10 27t14 33l6 4q5 -16 15 -16t13 7t10 21.5t24 6.5q7 11 15 48.5t15 37.5q20 0 16.5 -13.5t-3.5 -23.5l2 -6l16 -9q6 2 10 7.5t11 5.5h6q31 -56 31 -154z" />
    <glyph glyph-name="ordmasculine" unicode="&#xba;" 
d="M626 410q20 0 42 24l6 -2q6 0 12 4t14 6q11 23 27 79.5t16 60.5v4q-12 12 -12 22l14 47q0 10 -10 16.5t-10 16.5l8 29q0 27 -24 37q-8 10 -16.5 19t-4.5 24q-20 37 -60 42t-68 5t-42 -10.5t-31 -8.5q-8 -14 -20 -23t-31.5 -25t-19.5 -35t9 -22t9 -12t-5 -10.5t-17.5 -3.5
t-12.5 -24t15 -47l14 4q8 -8 8 -15q0 -14 -11 -11t-19 3t-14.5 -15.5t-6.5 -25.5t10.5 -14t22.5 -7t22 -7.5t6 -12.5t-8 -17t-4 -15q0 -10 20.5 -29t27.5 -19t13.5 13.5t23 13.5t16.5 -15t-15.5 -12.5t-23.5 4.5q-2 -2 -2 -8q0 -23 24 -22q18 0 43 20q16 -2 30.5 -14
t34.5 -12zM807 821q-12 0 -12 -19.5t12 -19.5t12 19.5t-12 19.5zM414 322l12 33q0 18 -29.5 21t-29.5 34q0 16 -18.5 25t-20.5 28q4 8 4 17q0 11 -20 36.5t-3 42.5v6q0 16 -10 28.5t-10 26.5t8 21.5t8 22.5l-12 36q0 8 27 37t36 137v5q39 9 89 36t79 27t43.5 10.5t28.5 10.5
l18 -13l13 4l67 -4q12 -12 69.5 -34.5t61.5 -20.5q14 -5 23.5 -26t16.5 -30.5t22 -9.5q12 -23 0 -69q14 -10 21.5 -27.5t23.5 -21.5q4 -3 4 -11t-2 -14t-4 -14l-23 -17q8 -21 8 -45v-22q0 -22 -9 -34.5t-9 -18.5l10 -39l-2 -35l-12 6l2 -6q0 -8 -6 -11.5t-4 -11.5
q-16 -4 -21.5 -19.5t-19.5 -23.5h-4q-13 0 -20 -11t-27 -11q-21 0 -29 -11.5t-19 -17.5q-8 -23 -10 -33t-5 -13t-13 -1t-32 2t-32 -14q-18 8 -36.5 4t-35.5 -4t-32 10q-17 -7 -42.5 13t-35.5 18t-19.5 -8.5t-18.5 -6.5t-17 4zM1018 61h4l2 -8q0 -12 -11.5 -20.5t-12.5 -18.5
t-4 -13t-5 -7h6q11 0 11 -17h-9q-20 0 -32.5 -16t-26.5 -16t-18 8t-9 14q-14 -4 -26.5 -1t-30.5 3t-31 -26q-23 -6 -46 0t-52 6t-45 -33q-31 23 -67.5 19.5t-64.5 -3.5t-46.5 8.5t-36.5 8.5t-45 -27l-4 -28h-8q-18 0 -26 17t-22 17t-24 -10q-10 8 -21.5 18.5t-30.5 10.5
t-44 -10q-16 11 -24 42.5t-21 43.5q4 25 4 37t3 18t14.5 9t31.5 9q23 7 31.5 21t37.5 14t37.5 7t13.5 16.5t9 16.5t19 7t26.5 -21.5t23.5 -21.5t15.5 7.5t7.5 13.5v8q-2 4 1 22.5t9 18.5q6 -6 11 -23q10 -8 12 -21.5t18 -13.5l6 3q10 10 21.5 24t28.5 14h4q8 -10 15 -22
t23 -12t25 12t21 12t15 -6t9 -20t29 -17q18 10 38.5 10t30.5 23q16 -4 29.5 -21.5t30.5 -17.5l12 2l8 23q11 -19 40.5 -23t48 -6.5t18.5 -8.5v-36q0 -30 22 -33q14 14 21 14z" />
    <glyph glyph-name="guillemotright" unicode="&#xbb;" 
d="M500 137q22 0 22 24t13 32l18 -15h4q20 0 82.5 56.5t71.5 82.5q28 -16 47.5 4.5t31 34t25.5 19.5q23 -10 72.5 29t66.5 42v15q-10 0 -20 15.5t-31 48t-41 32.5l-6 -2q-13 5 -36.5 34t-41.5 29t-26 -4q-9 28 -71.5 84t-86.5 56l-16 -17q-15 5 -15 25t-3 26.5t-19 6.5
q-8 33 -12.5 39t-13.5 10t-26 12l-2 10q0 16 10.5 28.5t10.5 29.5l-2 10q18 14 35 37.5t39 23.5t39.5 -6t34 -12t30.5 -12.5t18 -6.5t39 7q0 -18 7.5 -39t11.5 -21q16 0 26.5 13.5t20.5 13.5h4q0 -2 -6 -14q2 -12 -3 -22.5t9 -18.5q37 12 53 -5q-10 -43 11.5 -45t32 -3
t10.5 -13l-3 -10l7 -33q12 -2 22 -10t23 -8l14 2q10 -14 9 -33t18 -25l16 6q-3 -17 18.5 -38.5t24.5 -38.5l-25 -43l33 10q4 -20 21.5 -24.5t33.5 -6.5q10 -25 31 -45t21 -42t-8.5 -32t-8.5 -20t6 -19l-84 -53l-8 8l6 -57q-4 -6 -15 -6t-23.5 9t-20.5 9l-2 -2
q0 -12 -20.5 -35.5t-20.5 -40.5v-4l-18 9q-18 -6 -16.5 -25.5t-8.5 -34.5q-18 8 -30.5 -2t-28.5 -12l-9 -33q8 -16 1 -19t-18 -5.5t-22.5 -6.5t-11.5 -22l2 -21q-16 -8 -22 -8l-33 4q-8 -2 -8 -12l4 -27l4 -12q4 -4 0 -4q-12 0 -22.5 13.5t-26.5 13.5q-10 0 -10 -26.5
t-9 -31.5q-30 3 -80 -15t-76 -18t-43.5 24t-35.5 40q4 18 -7.5 33.5t-11.5 34.5l3 8q41 21 44 34t7 29zM49 137q23 0 23 24t12 32l18 -15h4q22 0 84 57t70 82q33 -18 61.5 17t43.5 41q23 -10 72.5 29t66.5 42v15q-12 0 -32.5 33.5t-33 48t-26.5 14.5l-6 -2q-11 5 -36.5 34
t-42.5 29t-26 -4q-9 27 -70.5 83.5t-87.5 56.5l-16 -17q-14 6 -14 25q0 20 -3.5 26.5t-19.5 6.5q-4 16 -6 25t-6 14.5t-13.5 9.5t-25.5 12l-2 10q0 16 10 28.5t10 29.5l-2 10q18 14 36 37.5t39 23.5t38.5 -6t34 -12t31 -12.5t18.5 -6.5t39 7q0 -4 2 -13.5t5.5 -28
t10.5 -18.5q16 0 26.5 13.5t20.5 13.5h4q0 -2 -6 -14q2 -12 -3 -22.5t9 -18.5q37 12 54 -5q-10 -43 11 -45l31.5 -3t10.5 -13l-2 -10l6 -33q12 -2 22.5 -10t22.5 -8l14 2q10 -14 9.5 -33t17.5 -25l16 6q-3 -16 18.5 -38.5t24.5 -38.5l-24 -43l33 10q4 -20 21.5 -24.5
t33.5 -6.5q10 -25 30.5 -45t20.5 -42t-8 -32t-8 -20t6 -19l-84 -53l-8 8l6 -57q-4 -6 -15 -6t-23.5 9t-21.5 9l-2 -2q0 -12 -20.5 -35.5t-20.5 -40.5v-4l-18 9q-18 -6 -16 -25.5t-9 -34.5q-18 8 -30.5 -2t-28.5 -12l-8 -33q8 -16 1 -19t-18.5 -5.5t-22.5 -6.5t-11 -22l2 -21
q-16 -8 -23 -8l-33 4q-8 -2 -8 -12l4 -27l4 -12q4 -4 0 -4q-12 0 -22 13.5t-27 13.5q-10 0 -10 -26.5t-8 -31.5q-30 3 -80.5 -15t-76.5 -18t-43 24t-36 40q4 18 -7 33.5t-11 34.5l2 8q30 15 36.5 21.5t8.5 16t6 25.5z" />
    <glyph glyph-name="onequarter" unicode="&#xbc;" 
d="M727 174q-8 23 -34 23t-37 -7.5t-27 -33.5q-8 11 -8 21.5t-31 35.5q17 17 26 47.5t16 44.5t27 27q4 10 10.5 17t17.5 19t11 26q0 15 7.5 36t17.5 27q18 52 18 110l7 72q0 7 10 27v6q-2 10 5 18t13 15q9 -7 30 -1.5t28.5 -22.5t7.5 -44l-8 -80q4 -8 4 -16l-11 -74l-2 -23
l-18 -2q-6 -10 -12.5 -20t-3.5 -23q-27 -9 -27 -24t-1 -21t-12 -8q-24 -4 -44.5 -31.5t-20.5 -43.5q0 -17 16 -29h3q12 0 20.5 11t18.5 11t11 -2l7 -14l10 -2q10 0 21.5 3t21.5 -1q14 0 21.5 13t23.5 7q25 27 29 41.5t4 39.5t-8 34q4 25 0 47t-4 42t18 44l33 4q2 0 6 -4
q14 4 18.5 -10t12.5 -21v-4l14 -45q0 -12 -6 -18q2 -25 -5 -53.5t-7 -46.5t13 -38t30 -14q10 -4 19 -8t20 2q15 -4 20.5 -23.5t9.5 -25.5v-4q2 -14 -5 -25.5t-11 -21.5q-10 4 -21.5 0t-21.5 4l-6 -8q-17 22 -37.5 -18t-20.5 -46v-90l-24 -8l-6 -12q-41 23 -41 44v103
q-10 4 -13.5 18.5t-19.5 14.5q-4 16 -25.5 14t-34 -2t-17.5 11.5t-16 11.5t-14.5 -11.5t-11.5 -11.5h-4zM592 573.5q0 -8.5 -1.5 -19.5t-35.5 -11q-23 -52 -23 -72q-16 -4 -14 -17.5t2 -24.5t-10 -11l-10 2l-6 31h-19v-25q-12 -20 -12 -44t-21 -40l2 -10q0 -13 -21.5 -31.5
t-21.5 -36.5q0 -19 -17.5 -39.5t-12.5 -36.5l-43 -65q14 -29 14 -33t-4 -12l-23 14q-16 -23 -23 -48.5t-24 -47.5l-24 31l-39 -15q-18 0 -20.5 20.5t-2.5 39.5t12.5 39t12.5 63q0 5 19.5 22t28.5 26t13 9q18 31 25 68q36 12 47.5 38.5t28.5 35.5v4q-6 29 18 29l8 32
q43 19 49 90q32 14 66 76l-4 10q0 10 7 18.5t11 18.5q18 14 21.5 37t19.5 39l-2 10q0 2 11.5 17.5t24.5 35t26.5 38t17.5 28.5q20 14 29.5 36.5t23.5 43.5q19 9 24 44.5t7 43.5q21 4 28 23.5t11 31t14 19.5l11 28q8 6 13 15.5t14 25.5t28 19l14 28l41 15l23 -17
q-4 -12 -4 -22t10 -25t10 -27t-8 -24l4 -14q0 -23 -12.5 -39.5t-12.5 -46.5l-4 -29q-5 33 -24 39l-25 -25v-10q2 -25 -19.5 -40t-29.5 -36q-18 0 -34 -51.5t-27 -60.5l-3 -21l-40 -4q-6 -38 -29 -41q-10 -16 -9 -33.5t-8 -33.5q-7 22 -18 22q-4 0 -12 -4q0 -10 -15 -49.5
t-12 -48.5q-10 -6 -10 -14.5zM395 987q0 -18 -11 -32.5t-7 -32.5q-10 -23 -4 -49.5t-17 -43.5q-2 -4 -2 -14l6 -31q5 -32 -8 -41q-5 -24 1.5 -41.5t6.5 -33.5l-8 -119l8 -35q0 -12 -11 -20.5t-1 -20.5l-10 -14q-8 -2 -11 5t-5 13q-29 12 -29 36.5t-14 31.5q-4 29 -17 51
q4 10 1 21.5t-3 19.5t8 28.5t8 41.5l-2 65q0 33 11 53q-6 12 -6 25.5t-2.5 35t-12.5 31.5q-10 11 -22.5 22t-24.5 25.5t-22.5 26t-10.5 21.5t10.5 26.5t14.5 32.5l6 4q4 -16 14 -16t13.5 7t10.5 21.5t23 6.5q9 13 16.5 49.5t14.5 36.5q20 0 16 -13.5t-4 -23.5l3 -6l16 -9
q6 2 10 7.5t10 5.5h7q30 -54 30 -154z" />
    <glyph glyph-name="onehalf" unicode="&#xbd;" 
d="M788 68q-6 6 -14 6t-8 -6t8 -9q4 2 9 2t5 5v2zM938 90q0 4 -5 4t-5 -6l10 -4v6zM979 90q0 4 -4 8q-4 0 -6 2q-8 -8 -8 -14t9 -6t9 10zM860 313q0 8 -8 9q-4 0 -4 -3v-4q0 -10 8 -12l4 4v6zM641 16q-18 29 -18 43q0 15 -1 35.5t1 26.5q6 -6 16 -6t18.5 13t20.5 17
q12 18 12 38t-9 20t-9 10t24 18q6 -4 10.5 -11t14.5 -7l6 2l6 18q-10 4 -17 10.5t-18 12.5q31 24 44 19q14 -5 18 -5l28 4l9 19q-12 4 -13 16q0 8 19.5 15.5t27.5 13.5l13 -2q17 0 59 33q8 16 19.5 26.5t17.5 26.5v6q0 10 7 15.5t7 14.5t-8 13q-4 23 -16 35h-4
q-10 -2 -18.5 6t-18.5 0l-15 20q-31 -4 -32.5 -7t-1.5 -19t-11 -17h-4q-8 6 -10 17.5t-12 15.5q-12 -4 -22.5 1t-20.5 5q-18 0 -19 -16q0 -14 15 -29q-18 -4 -23.5 -6t-23.5 8l-15 -8l2 -10q0 -10 -4 -17.5t-2 -17.5q-38 -27 -49 -49l-14 -2q-12 18 -9.5 37.5t-7.5 33.5
t-10 19l43 43q2 12 4 25.5t15 21.5h2q10 0 20 16.5t25 16.5q4 4 2 11t-2 13q0 13 20 13t33 -13q24 -6 32 -6t21 4q4 12 15.5 14.5t17.5 12.5q10 -4 17 -13t18 -9l6 2l10 12q10 -4 17.5 -17.5t23.5 -5.5q25 -6 25 -18q14 0 23 -8t26.5 -23.5t31.5 -15.5q15 0 18 -8.5
t10 -24.5t28 -10q21 -17 16 -47v-13q-8 -4 -3 -14t-3 -10l-6 2l4 12l-6 -6q-13 32 -29 37q-14 -6 -8 -19.5t6 -21.5t-12 -16q-6 -19 4 -29v-25q-8 -6 -17.5 -9t-11.5 -13q4 -8 4 -15t-4 -10.5t-10.5 -11.5t0.5 -41q-6 -6 -16 -6t-18.5 9t-22.5 3q-5 2 -17 2t-17 -7t-8 -14.5
t-5 -14.5t-11 -7l-6 2q-17 22 -32 16t-15 -1q0 -6 -46 -20.5t-50 -45.5l-35 -41q0 -20 41 -20l29 10l22 -10q2 0 15 8t24.5 5t28.5 5q0 20 12 25q10 -4 18.5 -13.5t26.5 -9.5t21.5 14.5t9.5 30.5q2 -6 8 -27q4 -4 11 0.5t12 4.5l6 -2q4 -12 12 -17.5t19 -14.5t-1 -32
q4 -16 17.5 -25.5t15.5 -25.5q7 -4 23 -4t37 10q12 -13 12 -19t-12 -18q4 -8 4 -14t-6 -6l-9 4l-8 22l-16 4q-8 -10 -7 -22t-8 -23l-10 -4q-49 49 -62 49t-18.5 -10t-9.5 -16q-10 2 -15 9t-16 7l-6 -2q-10 -12 -23.5 -7t-24.5 5t-19 -16q-20 4 -26.5 11t-31.5 -5
q-20 12 -46.5 4t-48.5 -8t-30 12l-6 -2q-16 0 -26.5 10t-24.5 10zM592 573.5q0 -8.5 -1.5 -19.5t-35.5 -11q-23 -52 -23 -72q-16 -4 -14 -17.5t2 -24.5t-10 -11l-10 2l-6 31h-19v-25q-12 -20 -12 -44t-21 -40l2 -10q0 -13 -21.5 -31.5t-21.5 -36.5q0 -19 -17.5 -39.5
t-12.5 -36.5l-43 -65q14 -29 14 -33t-4 -12l-23 14q-16 -23 -23 -48.5t-24 -47.5l-24 31l-39 -15q-18 0 -20.5 20.5t-2.5 39.5t12.5 39t12.5 63q0 5 19.5 22t28.5 26t13 9q18 31 25 68q36 12 47.5 38.5t28.5 35.5v4q-6 29 18 29l8 32q43 19 49 90q32 14 66 76l-4 10
q0 10 7 18.5t11 18.5q18 14 21.5 37t19.5 39l-2 10q0 2 11.5 17.5t24.5 35t26.5 38t17.5 28.5q20 14 29.5 36.5t23.5 43.5q19 9 24 44.5t7 43.5q21 4 28 23.5t11 31t14 19.5l11 28q8 6 13 15.5t14 25.5t28 19l14 28l41 15l23 -17q-4 -12 -4 -22t10 -25t10 -27t-8 -24l4 -14
q0 -23 -12.5 -39.5t-12.5 -46.5l-4 -29q-5 33 -24 39l-25 -25v-10q2 -25 -19.5 -40t-29.5 -36q-18 0 -34 -51.5t-27 -60.5l-3 -21l-40 -4q-6 -38 -29 -41q-10 -16 -9 -33.5t-8 -33.5q-7 22 -18 22q-4 0 -12 -4q0 -10 -15 -49.5t-12 -48.5q-10 -6 -10 -14.5zM395 1028
q0 -18 -11 -32.5t-7 -32.5q-10 -23 -4 -49.5t-17 -43.5q-2 -4 -2 -14l6 -32q5 -31 -8 -40q-5 -24 1.5 -41.5t6.5 -33.5l-8 -119l8 -35q0 -12 -11 -20.5t-1 -20.5l-10 -14q-8 -2 -11 5t-5 13q-29 12 -29 36.5t-14 31.5q-4 29 -17 51q4 10 1 21.5t-3 19.5t8 28.5t8 41.5l-2 65
q0 33 11 53q-6 12 -6 25.5t-2.5 35t-12.5 31.5q-10 11 -22.5 22t-24.5 25.5t-22.5 25.5t-10.5 21t10.5 27t14.5 33l6 4q4 -16 14 -16t17.5 15t12.5 20.5t17 -0.5q9 13 16.5 49.5t14.5 36.5q20 0 16 -13.5t-4 -23.5l3 -6l16 -9q6 2 10 7.5t10 5.5h7q30 -54 30 -154z" />
    <glyph glyph-name="threequarters" unicode="&#xbe;" 
d="M727 174q-8 23 -34 23t-37 -7.5t-27 -33.5q-8 11 -8 21.5t-31 35.5q17 17 26 47.5t16 44.5t27 27q4 10 10.5 17t17.5 19t11 26q0 15 7.5 36t17.5 27q18 52 18 110l7 72q0 7 10 27v6q-2 10 5 18t13 15q9 -7 30 -1.5t28.5 -22.5t7.5 -44l-8 -80q4 -8 4 -16l-11 -74l-2 -23
l-18 -2q-6 -10 -12.5 -20t-3.5 -23q-27 -9 -27 -24t-1 -21t-12 -8q-24 -4 -44.5 -31.5t-20.5 -43.5q0 -17 16 -29h3q12 0 20.5 11t18.5 11t11 -2l7 -14l10 -2q10 0 21.5 3t21.5 -1q14 0 21.5 13t23.5 7q25 27 29 41.5t4 39.5t-8 34q4 25 0 47t-4 42t18 44l33 4q2 0 6 -4
q14 4 18.5 -10t12.5 -21v-4l14 -45q0 -12 -6 -18q2 -25 -5 -53.5t-7 -46.5t13 -38t30 -14q10 -4 19 -8t20 2q15 -4 20.5 -23.5t9.5 -25.5v-4q2 -14 -5 -25.5t-11 -21.5q-10 4 -21.5 0t-21.5 4l-6 -8q-17 22 -37.5 -18t-20.5 -46v-90l-24 -8l-6 -12q-41 23 -41 44v103
q-10 4 -13.5 18.5t-19.5 14.5q-4 16 -25.5 14t-34 -2t-17.5 11.5t-16 11.5t-14.5 -11.5t-11.5 -11.5h-4zM547 732q0 -32 -17 -42q-11 -51 -34 -65q-7 -11 -35 -11l-8 -10q6 -4 6 -12t-11.5 -10t-11.5 -21q0 -12 -21.5 -12t-21.5 -17q-11 0 -25.5 -16t-25.5 -8l-35 4
q-14 0 -30 -23t-28 -20q-13 2 -20.5 5t-15.5 3q-13 -12 -27 -12t-32 14q-22 -15 -37 -12q4 19 4 35t-10 26l10 17q25 -4 25.5 -17.5t17.5 -29.5q8 8 8 14t-6 12t-6 17v2q12 0 15 14t11 14t10.5 -9t15.5 -9t15 7t5.5 18t37.5 2q9 15 33 34l6 -2q6 0 12.5 4.5t12.5 1.5
q22 22 39 27q10 29 27.5 52.5t19.5 54.5q16 16 20 36.5t9 42.5q-8 16 -8.5 38t-22.5 32h-2q-10 -2 -16.5 7.5t-13.5 9.5t-24 -13l-18 15q-14 -4 -23.5 -1t-20.5 3t-12.5 -9.5t-11.5 -9.5t-14 8.5t-16 8.5l-10 -2q-4 -14 -13 -15l-6 2l-8 31q11 5 16 27.5t25 15.5
q10 6 12 22.5t6 25.5t18 14t25 27t23 32q0 35 -16 38t-38 3t-34 12l-29 -12q-12 10 -27.5 9t-31.5 5q-4 -6 -14 -6t-17 14q-14 0 -29.5 12.5t-15.5 24.5t14 19q10 -4 16.5 -14.5t17.5 -10.5t16.5 11.5t15.5 11.5q2 0 15 -1.5t39 -3.5t30 -6q10 0 15 10.5t13 14.5l54 -23
q14 0 26 13h2q12 0 22.5 8t21.5 8t16.5 -7t15.5 -7l23 12q27 -16 37 -33q6 6 14 6l14 -2q6 -10 17.5 -17t11.5 -18v-4q-16 -12 -18.5 -28.5t-10.5 -32.5q-10 0 -13 -9.5t-8.5 -22t-23.5 2.5l-26 -45l-25 -6l-2 -6q0 -14 10 -25l6 2q10 0 15.5 -12t17.5 -8q4 -12 15.5 -16.5
t13.5 -16.5q36 -16 38.5 -55t4.5 -53q10 -10 10 -21.5t6 -21.5q-12 -29 -12 -61zM582 429q0 -11 -11 -11l-10 2l-6 31h-18v-25q-12 -20 -12.5 -44t-20.5 -40l2 -10q0 -14 -21.5 -31t-21.5 -36q0 -21 -18 -40.5t-13 -36.5l-43 -65q14 -29 14 -33t-4 -12l-22 14
q-16 -23 -23.5 -48.5t-23.5 -47.5l-25 31l-39 -15q-18 0 -20 20.5t-2 39.5t12 39t12 63q0 4 19.5 21.5t29 26.5t13.5 9q18 31 24 68q34 12 43 29.5t14 27t19 17.5v4q-6 29 19 29l8 32q43 19 49 90q31 13 65 76l-4 10q0 10 7.5 18.5t11.5 18.5q18 14 21 37t20 39l-2 10
q0 2 11 17.5t24.5 35t26.5 38t18 28.5q20 14 29 36.5t24 43.5q17 9 22.5 44.5t7.5 43.5q21 4 22 9l12 31q9 26 20 34l10 28q8 6 13 15.5t15 25.5t27 19l15 28l41 15l22 -17q-4 -12 -4 -22t10 -25t10 -27t-8 -24l4 -14q0 -23 -12 -39.5t-12 -46.5l-4 -29q-5 32 -25 39
l-24 -25v-10q2 -25 -19.5 -40t-30.5 -36q-17 0 -28 -33.5t-17 -52t-16 -26.5l-2 -21l-41 -4q-6 -38 -29 -41q-10 -16 -9 -33.5t-7 -33.5q-7 22 -19 22q-4 0 -12 -4q0 -10 -5 -24.5t-14 -41t-7 -32.5q-10 -6 -10.5 -14.5t-2 -19.5t-35.5 -11q-22 -50 -22 -72
q-16 -4 -14 -17.5t2 -24.5z" />
    </font>
</defs>
</svg>
