<?xml version="1.0" standalone="no"?>
<!DOCTYPE svg PUBLIC "-//W3C//DTD SVG 1.1//EN" "http://www.w3.org/Graphics/SVG/1.1/DTD/svg11.dtd" >
<svg xmlns="http://www.w3.org/2000/svg">
<metadata>
Created by FontPrep 20130207 at Tue Sep  9 17:50:40 2014
 By Alexander Gunnarson
Copyright (C) 2000, 2007 Hoefler &#38; Frere-Jones. http://www.typography.com
</metadata>
<defs>
<font id="46f98391d9844b845aff9f7c92eb29bd" horiz-adv-x='1024' >
  <font-face 
    font-family="Gotham-UltraItalic"
    font-weight="450"
    font-style="italic"
    font-stretch="normal"
    units-per-em="2048"
    panose-1="0 0 0 0 0 0 0 0 0 0"
    ascent="1638"
    descent="-410"
    x-height="1118"
    cap-height="1434"
    bbox="-315 -678 2816 2193"
    underline-thickness="102"
    underline-position="-102"
    slope="-15"
    unicode-range="U+0020-FB04"
  />
<missing-glyph 
d="M512 492l-367 -799h734zM922 1384l-353 -770l353 -770v1540zM102 -156l353 770l-353 770v-1540zM145 1536l367 -799l367 799h-734zM0 -410v2048h1024v-2048h-1024z" />
    <glyph glyph-name="f_f" unicode="ff" horiz-adv-x="1736" 
d="M809 1509q145 0 283 -41l-78 -288q-63 23 -127 22q-102 0 -125 -88l-2 -8h235l-92 -346h-227l-203 -760h-465l203 760h-131l96 358h131q55 211 174 301t328 90zM1677 1509q145 0 283 -41l-78 -288q-63 23 -127 22q-102 0 -125 -88l-2 -8h236l-92 -346h-228l-203 -760
h-464l202 760h-131l96 358h132q55 211 174 301t327 90z" />
    <glyph glyph-name="fi" unicode="fi" horiz-adv-x="1484" 
d="M795 0l299 1118h465l-299 -1118h-465zM809 1509q145 0 283 -41l-78 -288q-63 23 -127 22q-102 0 -125 -88l-2 -8h235l-92 -346h-227l-203 -760h-465l203 760h-131l96 358h131q55 211 174 301t328 90zM1108 1198l80 297h481l-80 -297h-481z" />
    <glyph glyph-name="fl" unicode="fl" horiz-adv-x="1484" 
d="M795 0l401 1495h465l-401 -1495h-465zM809 1509q145 0 283 -41l-78 -288q-63 23 -127 22q-102 0 -125 -88l-2 -8h235l-92 -346h-227l-203 -760h-465l203 760h-131l96 358h131q55 211 174 301t328 90z" />
    <glyph glyph-name="f_f_i" unicode="ffi" horiz-adv-x="2353" 
d="M1663 0l299 1118h465l-299 -1118h-465zM809 1509q145 0 283 -41l-78 -288q-63 23 -127 22q-102 0 -125 -88l-2 -8h235l-92 -346h-227l-203 -760h-465l203 760h-131l96 358h131q55 211 174 301t328 90zM1677 1509q145 0 283 -41l-78 -288q-63 23 -127 22q-102 0 -125 -88
l-2 -8h236l-92 -346h-228l-203 -760h-464l202 760h-131l96 358h132q55 211 174 301t327 90zM1976 1198l80 297h481l-79 -297h-482z" />
    <glyph glyph-name="f_f_l" unicode="ffl" horiz-adv-x="2353" 
d="M1663 0l401 1495h465l-401 -1495h-465zM809 1509q145 0 283 -41l-78 -288q-63 23 -127 22q-102 0 -125 -88l-2 -8h235l-92 -346h-227l-203 -760h-465l203 760h-131l96 358h131q55 211 174 301t328 90zM1677 1509q145 0 283 -41l-78 -288q-63 23 -127 22q-102 0 -125 -88
l-2 -8h236l-92 -346h-228l-203 -760h-464l202 760h-131l96 358h132q55 211 174 301t327 90z" />
    <glyph glyph-name=".notdef" 
d="M512 492l-367 -799h734zM922 1384l-353 -770l353 -770v1540zM102 -156l353 770l-353 770v-1540zM145 1536l367 -799l367 799h-734zM0 -410v2048h1024v-2048h-1024z" />
    <glyph glyph-name=".null" horiz-adv-x="0" 
 />
    <glyph glyph-name="nonmarkingreturn" horiz-adv-x="681" 
 />
    <glyph glyph-name="space" unicode=" " horiz-adv-x="520" 
 />
    <glyph glyph-name="exclam" unicode="!" horiz-adv-x="655" 
d="M-59 0l98 369h475l-98 -369h-475zM180 446l39 680l84 308h520l-84 -308l-325 -680h-234z" />
    <glyph glyph-name="quotedbl" unicode="&#x22;" horiz-adv-x="1128" 
d="M776 1434v-11l-454 -807h-250l219 818h485zM1343 1434v-11l-454 -807h-250l219 818h485z" />
    <glyph glyph-name="numbersign" unicode="#" horiz-adv-x="1437" 
d="M600 625h256l68 192h-256zM74 0l88 246h-170l78 395h231l57 160h-196l78 395h258l84 238h321l-84 -238h223l84 238h322l-84 -238h168l-78 -395h-229l-58 -160h195l-78 -395h-256l-88 -246h-322l89 246h-226l-86 -246h-321z" />
    <glyph glyph-name="dollar" unicode="$" horiz-adv-x="1384" 
d="M629 1012q0 -36 23 -53q24 -17 85 -33l45 159q-74 7 -114 -15t-39 -58zM748 350q152 -2 151 86q0 29 -20 48t-82 38zM680 0h-18l-56 -201h-213l62 219q-309 51 -523 218l246 303q201 -133 387 -166l56 182q-231 63 -337 155t-108 244q0 205 179 342t491 138h22l33 118
h213l-39 -139q244 -47 412 -172l-225 -323q-123 94 -299 137l-50 -168q223 -66 329 -153t106 -245q0 -217 -182 -353t-486 -136z" />
    <glyph glyph-name="percent" unicode="%" horiz-adv-x="1978" 
d="M1382 356q0 -130 112 -131q56 1 98 61t42 124q0 130 -112 131q-56 -1 -98 -61t-42 -124zM680 1078q0 132 -112 130q-56 0 -98 -60t-42 -124q0 -130 112 -131q56 0 98 60t42 125zM1483 -23q-183 1 -279 99t-96 266t122 307t304 139t278 -98t96 -266t-121 -308
q-122 -140 -304 -139zM154 0l1445 1434h310l-1446 -1434h-309zM528 645q-182 0 -278 98t-96 266t121 308q123 139 305 139t278 -98t96 -266t-121 -308q-123 -139 -305 -139z" />
    <glyph glyph-name="ampersand" unicode="&#x26;" horiz-adv-x="1439" 
d="M457 424q-1 -53 39 -85t110 -32t156 47l-170 250q-135 -63 -135 -180zM924 1073q0 45 -24 70t-64 25t-69 -34q-28 -34 -28 -94t35 -125q150 63 150 158zM526 -25q-242 0 -381 110t-139 296q0 324 420 463q-55 115 -55 225q0 170 126 282q127 111 327 111t326 -108
t126 -273q0 -264 -322 -389l90 -125q68 78 121 148l271 -189q-74 -115 -176 -219l92 -129l-291 -207l-84 125q-209 -121 -451 -121z" />
    <glyph glyph-name="quotesingle" unicode="'" horiz-adv-x="571" 
d="M786 1434v-11l-454 -807h-260l219 818h495z" />
    <glyph glyph-name="parenleft" unicode="(" horiz-adv-x="952" 
d="M66 459q0 377 249 640q250 263 627 361l117 -297q-279 -117 -418 -303t-139 -389q0 -135 55 -251t186 -261l-247 -252q-430 311 -430 752z" />
    <glyph glyph-name="parenright" unicode=")" horiz-adv-x="952" 
d="M463 700q0 135 -55 251t-187 261l248 252q430 -311 430 -751q1 -377 -249 -641t-627 -361l-117 297q279 117 418 303t139 389z" />
    <glyph glyph-name="asterisk" unicode="*" horiz-adv-x="903" 
d="M598 596l-254 68l143 268l-268 -146l-72 261l306 8l-260 162l192 186l160 -258l8 303l254 -68l-143 -268l268 145l72 -260l-306 -8l260 -162l-192 -186l-160 258z" />
    <glyph glyph-name="plus" unicode="+" horiz-adv-x="1310" 
d="M342 172l92 346h-350l109 406h350l92 344h422l-92 -344h350l-109 -406h-350l-92 -346h-422z" />
    <glyph glyph-name="comma" unicode="," horiz-adv-x="583" 
d="M-164 -344l-12 170q225 27 268 182h-186l127 471h475l-111 -413q-55 -202 -178 -300t-383 -110z" />
    <glyph glyph-name="hyphen" unicode="-" horiz-adv-x="864" 
d="M47 455l103 381h712l-102 -381h-713z" />
    <glyph glyph-name="period" unicode="." horiz-adv-x="583" 
d="M-96 0l127 471h475l-127 -471h-475z" />
    <glyph glyph-name="slash" unicode="/" horiz-adv-x="1105" 
d="M-315 -262l1398 1896h383l-1398 -1896h-383z" />
    <glyph glyph-name="zero" unicode="0" horiz-adv-x="1478" 
d="M711 383q129 0 211 151t82 320q0 96 -42 145t-110 50q-129 0 -211 -151t-82 -320q0 -96 42 -146t110 -49zM668 -33q-272 0 -431 164t-159 404q0 377 234 653t583 276q272 0 431 -164t159 -403q-1 -377 -235 -653t-582 -277z" />
    <glyph glyph-name="one" unicode="1" horiz-adv-x="872" 
d="M150 0l270 1010l-219 -56l-13 373l459 117h361l-387 -1444h-471z" />
    <glyph glyph-name="two" unicode="2" horiz-adv-x="1310" 
d="M883 967q0 88 -101 88q-127 0 -309 -178l-270 284q276 297 639 297q240 0 378 -117t138 -307q0 -143 -91 -266t-323 -250l-260 -143h541l-101 -375h-1196l97 356l733 451q125 78 125 160z" />
    <glyph glyph-name="three" unicode="3" horiz-adv-x="1263" 
d="M553 -31q-406 0 -616 279l305 272q123 -156 297 -155q94 0 152 41t59 98q0 94 -170 94h-183l-6 213l383 250h-532l100 373h1102l-90 -330l-416 -260q135 -41 207 -131t72 -209q-1 -250 -181 -392t-483 -143z" />
    <glyph glyph-name="four" unicode="4" horiz-adv-x="1429" 
d="M481 580h312l96 360zM637 0l65 248h-649l-55 348l958 848h533l-229 -858h172l-93 -338h-170l-67 -248h-465z" />
    <glyph glyph-name="five" unicode="5" horiz-adv-x="1257" 
d="M766 514q0 134 -180 133q-96 0 -195 -74l-244 152l230 709h1024l-103 -379h-667l-49 -152q102 39 219 39q201 0 319 -104t119 -283q1 -260 -187 -422t-495 -162q-188 0 -356 73t-273 177l279 281q158 -145 346 -146q98 0 156 47q57 47 57 111z" />
    <glyph glyph-name="six" unicode="6" horiz-adv-x="1359" 
d="M696 645q-68 0 -122 -62q-52 -62 -52 -132t37 -107t105 -37q68 1 121 63t53 130t-37 107q-37 38 -105 38zM654 -29q-269 0 -422 153t-152 388q0 193 73 382t209 327q242 242 605 241q299 0 481 -147l-213 -330q-129 111 -285 111t-270 -115q-61 -59 -94 -143
q139 104 313 104t287 -102t112 -275q0 -252 -188 -423t-456 -171z" />
    <glyph glyph-name="seven" unicode="7" horiz-adv-x="1265" 
d="M-35 0l840 1038h-635l106 396h1176l-98 -361l-850 -1073h-539z" />
    <glyph glyph-name="eight" unicode="8" horiz-adv-x="1363" 
d="M510 444q0 -64 48 -100q48 -35 112 -35t114 44q50 45 52 109q0 64 -46 99t-111 35t-117 -44t-52 -108zM786 854q60 0 110 42t50 103t-45 95t-105 34t-110 -42q-49 -42 -49 -103t44 -95q45 -34 105 -34zM1286 421q0 -197 -181 -319t-453 -122t-446 108q-173 108 -173 289
q0 141 86 241t248 148q-137 98 -137 266t161 295q163 127 427 127t416 -114t150 -281q0 -254 -301 -350q203 -92 203 -288z" />
    <glyph glyph-name="nine" unicode="9" horiz-adv-x="1359" 
d="M606 936q0 -68 37 -107q37 -38 105 -38t121 62q53 61 53 131t-37 108t-106 36q-69 0 -121 -62t-52 -130zM477 -27q-299 0 -481 148l213 330q129 -111 285 -111t270 115q59 61 94 143q-140 -104 -314 -104t-286 102t-113 274q-1 252 187 423t457 171t422 -152t153 -388
q0 -190 -73 -380t-210 -329q-242 -242 -604 -242z" />
    <glyph glyph-name="colon" unicode=":" horiz-adv-x="604" 
d="M-86 0l127 471h475l-127 -471h-475zM86 647l127 471h475l-127 -471h-475z" />
    <glyph glyph-name="semicolon" unicode=";" horiz-adv-x="604" 
d="M-156 -352l-12 170q225 27 268 182h-186l127 471h475l-110 -414q-54 -201 -178 -299t-384 -110zM86 647l127 471h475l-127 -471h-475z" />
    <glyph glyph-name="less" unicode="&#x3c;" horiz-adv-x="1310" 
d="M1047 123l-945 377l119 438l1145 377l-123 -453l-690 -164l604 -163z" />
    <glyph glyph-name="equal" unicode="=" horiz-adv-x="1310" 
d="M25 246l104 391h1094l-107 -391h-1091zM172 805l107 391h1093l-106 -391h-1094z" />
    <glyph glyph-name="greater" unicode="&#x3e;" horiz-adv-x="1310" 
d="M31 123l123 452l690 164l-604 164l110 412l944 -377l-118 -438z" />
    <glyph glyph-name="question" unicode="?" horiz-adv-x="1099" 
d="M98 0l101 369h475l-101 -369h-475zM719 975q0 76 -112 76t-253 -101l-155 346q219 160 510 160q213 0 342 -103t129 -277t-123 -299q-123 -126 -383 -169l-64 -162h-282l30 357l27 22q334 33 334 150z" />
    <glyph glyph-name="at" unicode="@" horiz-adv-x="1945" 
d="M1106 624q0 128 -124 128q-60 0 -106 -58t-46 -124t30 -97q32 -31 92 -31t107 58t47 124zM930 -315q-381 0 -615 219q-233 219 -233 575q0 265 130 491t363 360t517 134q381 0 599 -196t218 -504q0 -168 -45 -299t-120 -209q-150 -156 -347 -156q-115 0 -203 50t-135 131
q-141 -170 -324 -170q-131 0 -218 99t-87 259q0 256 141 435t347 179q174 0 258 -151l49 147l370 -102l-165 -526q-27 -87 3 -139q29 -52 121 -52t182 141q89 141 89 389t-196 420t-537 172q-262 0 -476 -124t-332 -330t-118 -449q0 -321 211 -517t555 -195q211 0 420 90
l32 -76q-212 -96 -454 -96z" />
    <glyph glyph-name="A" unicode="A" horiz-adv-x="1605" 
d="M676 532h262l-39 349zM-184 0l991 1444h475l217 -1444h-510l-24 193h-502l-125 -193h-522z" />
    <glyph glyph-name="B" unicode="B" horiz-adv-x="1458" 
d="M723 362q86 0 136 34t50 89q0 90 -153 90h-207l-57 -213h231zM850 870q88 0 133 34t45 83q0 84 -147 84h-199l-53 -201h221zM948 1434q547 0 547 -338q0 -134 -87 -234t-249 -143q104 -27 169 -102t65 -181q0 -196 -168 -316t-516 -120h-781l385 1434h635z" />
    <glyph glyph-name="C" unicode="C" horiz-adv-x="1488" 
d="M752 -31q-303 0 -492 171q-188 171 -188 473t226 564q110 127 291 207t406 80t382 -112t202 -305l-428 -187q-45 174 -223 174q-156 0 -255 -119t-99 -254t62 -201q64 -66 163 -65q158 0 278 150l332 -262q-237 -314 -657 -314z" />
    <glyph glyph-name="D" unicode="D" horiz-adv-x="1527" 
d="M760 1016h-80l-160 -598h84q226 0 336 110t111 250q0 238 -291 238zM821 1434q377 0 561 -185q156 -156 156 -420q0 -330 -235 -565q-264 -264 -752 -264h-623l385 1434h508z" />
    <glyph glyph-name="E" unicode="E" horiz-adv-x="1378" 
d="M-72 0l385 1434h1223l-106 -394h-752l-39 -145h700l-92 -346h-700l-43 -156h762l-105 -393h-1233z" />
    <glyph glyph-name="F" unicode="F" horiz-adv-x="1312" 
d="M-72 0l385 1434h1200l-110 -410h-721l-49 -182h670l-101 -373h-670l-124 -469h-480z" />
    <glyph glyph-name="G" unicode="G" horiz-adv-x="1523" 
d="M70 608q0 360 261 608t685 248q192 0 356 -70t244 -167l-299 -307q-139 129 -335 129t-314 -120t-117 -298q0 -127 80 -197t198 -69q74 0 125 22l47 154h-235l78 307h690l-205 -731q-248 -148 -540 -148t-498 150q-101 75 -161 201t-60 288z" />
    <glyph glyph-name="H" unicode="H" horiz-adv-x="1552" 
d="M-72 0l385 1434h480l-138 -506h439l137 506h479l-385 -1434h-479l137 514h-438l-137 -514h-480z" />
    <glyph glyph-name="I" unicode="I" horiz-adv-x="643" 
d="M-68 0l385 1434h480l-385 -1434h-480z" />
    <glyph glyph-name="J" unicode="J" horiz-adv-x="1150" 
d="M420 -29q-162 0 -296 70t-210 192l315 277q88 -135 201 -135q66 0 116 50t91 198l219 811h467l-238 -887q-76 -276 -215 -416q-159 -160 -450 -160z" />
    <glyph glyph-name="K" unicode="K" horiz-adv-x="1470" 
d="M-72 0l385 1434h480l-140 -514l477 514h584l-653 -656l299 -778h-510l-172 461l-201 -201l-69 -260h-480z" />
    <glyph glyph-name="L" unicode="L" horiz-adv-x="1247" 
d="M-72 0l385 1434h480l-275 -1024h653l-110 -410h-1133z" />
    <glyph glyph-name="M" unicode="M" horiz-adv-x="1769" 
d="M-72 0l385 1434h473l172 -504l443 504h526l-385 -1434h-477l190 711l-467 -510h-8l-192 510l-191 -711h-469z" />
    <glyph glyph-name="N" unicode="N" horiz-adv-x="1589" 
d="M-72 0l385 1434h449l325 -684l185 684h475l-385 -1434h-426l-340 713l-193 -713h-475z" />
    <glyph glyph-name="O" unicode="O" horiz-adv-x="1628" 
d="M559 676q-1 -131 69 -207t204 -76t228 117q93 117 93 248t-70 207q-69 75 -203 75t-228 -116q-93 -117 -93 -248zM791 -29q-313 -1 -513 185t-200 465q0 341 245 591t599 250q313 0 513 -185t199 -464q0 -340 -244 -591t-599 -251z" />
    <glyph glyph-name="P" unicode="P" horiz-adv-x="1361" 
d="M690 731q131 0 199 52t67 139q0 49 -40 89t-138 40h-90l-84 -320h86zM795 1434q375 0 532 -158q113 -113 113 -289q0 -272 -194 -435t-531 -163h-203l-104 -389h-480l385 1434h482z" />
    <glyph glyph-name="Q" unicode="Q" horiz-adv-x="1628" 
d="M819 377h25l-131 176l307 201l102 -152q31 78 31 160q0 123 -70 201q-69 77 -205 77t-230 -117q-93 -119 -93 -255q-1 -136 69 -214t195 -77zM791 -29q-313 -1 -513 185t-200 465q0 341 245 591t599 250q313 0 513 -185t199 -464q0 -317 -227 -565l104 -142l-307 -200
l-90 133q-158 -68 -323 -68z" />
    <glyph glyph-name="R" unicode="R" horiz-adv-x="1460" 
d="M782 752q115 0 180 46t64 117q0 45 -36 81t-136 36h-170l-76 -280h174zM872 1434q375 0 529 -154q113 -113 113 -294t-99 -313q-98 -132 -301 -196l199 -477h-516l-160 410h-119l-110 -410h-480l385 1434h559z" />
    <glyph glyph-name="S" unicode="S" horiz-adv-x="1337" 
d="M633 -29q-420 0 -707 260l275 328q242 -203 483 -203q104 0 104 64q0 34 -38 56t-224 90q-184 68 -274 156q-90 87 -90 239q0 213 179 357t466 144q387 0 639 -215l-275 -327q-197 160 -413 159q-104 0 -105 -57q0 -31 34 -48q33 -17 215 -84t281 -159t99 -246
q0 -223 -174 -369t-475 -145z" />
    <glyph glyph-name="T" unicode="T" horiz-adv-x="1372" 
d="M295 0l276 1028h-421l108 406h1323l-108 -406h-422l-277 -1028h-479z" />
    <glyph glyph-name="U" unicode="U" horiz-adv-x="1548" 
d="M698 -29q-300 0 -460 135t-160 381q0 115 31 232l192 715h487l-200 -746q-16 -66 -17 -113q0 -180 197 -180q94 1 154 61t102 208l207 770h487l-227 -844q-76 -281 -225 -430q-189 -189 -568 -189z" />
    <glyph glyph-name="V" unicode="V" horiz-adv-x="1544" 
d="M387 -10l-194 1444h526l61 -805l496 805h539l-969 -1444h-459z" />
    <glyph glyph-name="W" unicode="W" horiz-adv-x="2244" 
d="M297 -10l-82 1444h492l18 -689l416 693h413l48 -693l387 689h503l-856 -1444h-417l-62 712l-442 -712h-418z" />
    <glyph glyph-name="X" unicode="X" horiz-adv-x="1484" 
d="M-201 0l705 754l-289 680h518l133 -349l310 349h555l-656 -701l314 -733h-519l-153 406l-363 -406h-555z" />
    <glyph glyph-name="Y" unicode="Y" horiz-adv-x="1441" 
d="M307 0l146 547l-281 887h504l117 -480l372 480h568l-815 -947l-132 -487h-479z" />
    <glyph glyph-name="Z" unicode="Z" horiz-adv-x="1378" 
d="M-109 0l91 336l817 704h-604l106 394h1272l-90 -336l-819 -705h628l-104 -393h-1297z" />
    <glyph glyph-name="bracketleft" unicode="[" horiz-adv-x="964" 
d="M-86 -266l457 1700h753l-77 -285h-359l-303 -1131h358l-75 -284h-754z" />
    <glyph glyph-name="backslash" unicode="\" horiz-adv-x="1105" 
d="M627 -262l-420 1896h366l420 -1896h-366z" />
    <glyph glyph-name="bracketright" unicode="]" horiz-adv-x="964" 
d="M-147 -266l77 284h359l303 1131h-359l76 285h754l-457 -1700h-753z" />
    <glyph glyph-name="asciicircum" unicode="^" 
d="M190 1010l400 420h311l174 -420h-299l-82 157l-168 -157h-336z" />
    <glyph glyph-name="underscore" unicode="_" horiz-adv-x="1228" 
d="M-242 -328l64 238h1237l-64 -238h-1237z" />
    <glyph glyph-name="grave" unicode="`" 
d="M657 1188l-262 276l459 117l90 -393h-287z" />
    <glyph glyph-name="a" unicode="a" horiz-adv-x="1239" 
d="M438 328q0 -88 87 -88q44 0 97 51q52 51 72 129l13 47q-47 12 -86 12q-87 0 -135 -40t-48 -111zM756 700q0 109 -174 109t-303 -49l-62 315q195 59 463 59t404 -96t137 -268q0 -76 -21 -156l-164 -614h-465l31 113q-84 -70 -154 -104t-159 -34q-131 0 -215 82t-84 224
q0 178 133 283t366 106q129 0 254 -37q13 31 13 67z" />
    <glyph glyph-name="b" unicode="b" horiz-adv-x="1374" 
d="M510 528q0 -174 162 -174q79 0 143 76q63 76 63 162t-41 130q-42 44 -121 44q-78 0 -142 -76t-64 -162zM754 -27q-217 0 -328 170l-39 -143h-465l400 1495h464l-131 -491q61 63 147 102t173 39q156 0 261 -118t105 -318q-1 -305 -171 -521t-416 -215z" />
    <glyph glyph-name="c" unicode="c" horiz-adv-x="1157" 
d="M553 -29q-229 0 -377 128q-147 128 -147 350q1 291 199 493t487 201q197 1 325 -101t162 -264l-368 -147q-31 135 -144 135q-96 0 -158 -86t-61 -193q0 -61 36 -99t91 -38q88 0 170 94l313 -208q-182 -265 -528 -265z" />
    <glyph glyph-name="d" unicode="d" horiz-adv-x="1374" 
d="M496 526q0 -174 162 -174q79 0 143 76q63 76 63 162t-42 130t-120 44t-142 -76t-64 -162zM399 -27q-156 0 -261 118t-105 319q0 305 171 520t417 215q217 0 327 -170l139 520h465l-399 -1495h-465l31 115q-61 -63 -147 -103t-173 -39z" />
    <glyph glyph-name="e" unicode="e" horiz-adv-x="1220" 
d="M805 716q0 38 -33 72t-91 35q-57 0 -113 -41t-87 -127h316q8 23 8 61zM33 465q0 270 187 475t493 205q367 0 466 -309q58 -182 -8 -385h-718q9 -150 183 -150q91 0 210 90l215 -235q-205 -182 -468 -182t-411 134q-148 136 -149 357z" />
    <glyph glyph-name="f" unicode="f" horiz-adv-x="868" 
d="M809 1509q145 0 283 -41l-78 -288q-63 23 -127 22q-102 0 -125 -88l-2 -8h235l-92 -346h-227l-203 -760h-465l203 760h-131l96 358h131q55 211 174 301t328 90z" />
    <glyph glyph-name="g" unicode="g" horiz-adv-x="1361" 
d="M690 788q-80 0 -136 -66t-56 -142t42 -119t121 -43q80 0 137 67q56 67 56 141t-42 118t-122 44zM463 -332q-152 0 -315 43t-271 109l184 270q190 -109 390 -108q145 0 223 77q57 57 86 174q-137 -127 -330 -127q-152 0 -266 104t-115 279q0 258 155 456t406 198
q109 0 198 -47t140 -123l39 145h465l-235 -878q-72 -268 -203 -400q-172 -172 -551 -172z" />
    <glyph glyph-name="h" unicode="h" horiz-adv-x="1312" 
d="M983 1145q152 0 236 -92t84 -250q0 -90 -27 -189l-164 -614h-465l150 557q12 43 12 84q0 98 -98 98q-68 0 -109 -44t-65 -138l-150 -557h-465l402 1495h464l-139 -516q59 72 147 119t187 47z" />
    <glyph glyph-name="i" unicode="i" horiz-adv-x="616" 
d="M-74 0l299 1118h465l-299 -1118h-465zM240 1198l79 297h482l-80 -297h-481z" />
    <glyph glyph-name="j" unicode="j" horiz-adv-x="622" 
d="M246 1198l80 297h481l-80 -297h-481zM-123 -334q-74 0 -162 15l72 268h20q70 0 101 33t57 137l266 999h465l-284 -1061q-62 -225 -182 -308t-353 -83z" />
    <glyph glyph-name="k" unicode="k" horiz-adv-x="1243" 
d="M-78 0l402 1495h464l-186 -690l299 313h531l-490 -479l197 -639h-484l-84 324l-133 -134l-51 -190h-465z" />
    <glyph glyph-name="l" unicode="l" horiz-adv-x="616" 
d="M-74 0l402 1495h465l-402 -1495h-465z" />
    <glyph glyph-name="m" unicode="m" horiz-adv-x="2021" 
d="M979 1145q217 0 289 -184q174 184 409 184q166 0 251 -90t85 -248q0 -88 -28 -193l-164 -614h-465l149 557q12 43 13 84q0 98 -95 98q-121 0 -170 -182l-149 -557h-465l149 557q12 43 13 84q0 98 -94 98q-121 0 -170 -182l-150 -557h-465l299 1118h465l-35 -131
q139 158 328 158z" />
    <glyph glyph-name="n" unicode="n" horiz-adv-x="1312" 
d="M983 1145q152 0 236 -92t84 -250q0 -90 -27 -189l-164 -614h-465l150 557q12 43 12 84q0 98 -98 98q-68 0 -109 -44t-65 -138l-150 -557h-465l299 1118h465l-37 -139q59 72 147 119t187 47z" />
    <glyph glyph-name="o" unicode="o" horiz-adv-x="1302" 
d="M634 352q77 0 135 75t58 162t-41 132q-42 45 -118 45t-134 -75t-58 -162t40 -132q41 -45 118 -45zM1266 625q0 -262 -192 -457t-464 -195q-272 -1 -423 147t-150 374q1 262 193 456t464 195t422 -147t150 -373z" />
    <glyph glyph-name="p" unicode="p" horiz-adv-x="1374" 
d="M510 528q0 -174 162 -174q79 0 143 76q63 76 63 162t-41 130q-42 44 -121 44q-78 0 -142 -76t-64 -162zM975 1145q156 0 261 -118t105 -318q0 -305 -171 -521t-416 -215q-217 0 -328 170l-127 -471h-465l387 1446h465l-31 -114q61 63 147 102t173 39z" />
    <glyph glyph-name="q" unicode="q" horiz-adv-x="1374" 
d="M496 526q0 -174 162 -174q79 0 143 76q63 76 63 162t-42 130t-120 44t-142 -76t-64 -162zM399 -27q-156 0 -261 118t-105 319q0 305 171 520t417 215q217 0 327 -170l39 143h465l-387 -1446h-465l119 443q-61 -63 -147 -103t-173 -39z" />
    <glyph glyph-name="r" unicode="r" horiz-adv-x="903" 
d="M860 641q-162 0 -256 -88t-143 -274l-74 -279h-465l299 1118h465l-59 -225q174 252 413 242l-131 -494h-49z" />
    <glyph glyph-name="s" unicode="s" horiz-adv-x="1069" 
d="M496 -27q-352 0 -598 187l204 266q78 -60 194 -106t195 -46t78 39q0 27 -33 47q-34 20 -164 68t-206 120q-76 73 -76 195q0 174 140 288t384 114q328 0 529 -154l-205 -266q-70 47 -166 83t-172 36t-76 -37q0 -23 29 -39t159 -62t211 -120t81 -222t-124 -270
q-124 -121 -384 -121z" />
    <glyph glyph-name="t" unicode="t" horiz-adv-x="909" 
d="M481 -25q-389 0 -389 306q0 66 23 155l86 324h-131l96 358h131l76 281h465l-76 -281h258l-96 -358h-258l-64 -240q-14 -51 -14 -86q0 -72 94 -72q47 0 135 25l-100 -379q-127 -33 -236 -33z" />
    <glyph glyph-name="u" unicode="u" horiz-adv-x="1312" 
d="M342 -27q-152 1 -236 93t-83 249q0 90 26 189l164 614h465l-150 -557q-12 -43 -12 -84q0 -98 98 -98q68 0 109 44t65 138l150 557h465l-299 -1118h-465l37 139q-60 -72 -148 -119t-186 -47z" />
    <glyph glyph-name="v" unicode="v" horiz-adv-x="1331" 
d="M311 -8l-151 1126h477l31 -561l331 561h492l-754 -1126h-426z" />
    <glyph glyph-name="w" unicode="w" horiz-adv-x="1763" 
d="M199 -8l-37 1126h434l-6 -450l258 454h371l14 -458l240 454h448l-643 -1126h-383l-21 479l-282 -479h-393z" />
    <glyph glyph-name="x" unicode="x" horiz-adv-x="1226" 
d="M-152 0l525 575l-219 543h473l71 -229l189 229h506l-519 -567l224 -551h-473l-76 238l-195 -238h-506z" />
    <glyph glyph-name="y" unicode="y" horiz-adv-x="1335" 
d="M206 -334q-194 0 -327 84l180 342q94 -66 187 -65q37 0 73 12l-153 1079h471l39 -588l334 588h483l-690 -1079q-131 -205 -267 -289t-330 -84z" />
    <glyph glyph-name="z" unicode="z" horiz-adv-x="1144" 
d="M-106 0l77 291l584 463h-440l96 364h1059l-78 -291l-584 -462h461l-98 -365h-1077z" />
    <glyph glyph-name="braceleft" unicode="{" horiz-adv-x="1032" 
d="M254 334q0 115 -191 115h-43l74 278h43q174 0 234 69q59 69 86 244q12 86 31 142q20 56 66 115q136 170 593 167l31 -247q-201 -12 -271 -104q-35 -46 -49 -91q-14 -44 -24 -112t-18 -104t-33 -83q-68 -133 -300 -160q178 -39 179 -207q0 -61 -24 -143t-24 -135
q0 -114 187 -135l-113 -232q-276 16 -384 91t-107 194q1 63 29 174t28 164z" />
    <glyph glyph-name="bar" unicode="|" horiz-adv-x="739" 
d="M231 -262v1896h344v-1896h-344z" />
    <glyph glyph-name="braceright" unicode="}" horiz-adv-x="1032" 
d="M387 819q0 61 24 143q23 82 23 136t-41 88q-41 35 -145 47l112 231q276 -16 384 -91t108 -193q0 -63 -29 -174t-29 -164q1 -115 191 -115h43l-74 -278h-43q-174 0 -233 -69t-86 -245q-12 -86 -32 -142q-20 -57 -65 -115q-132 -168 -593 -167l-31 248q202 12 268 102
q35 47 49 91t26 113t19 105q8 36 32 83q69 135 300 159q-178 39 -178 207z" />
    <glyph glyph-name="asciitilde" unicode="~" 
d="M393 836q95 0 177 -56t114 -57q63 0 127 113l199 -84q-60 -160 -152 -238t-186 -78t-176 56t-115 57q-64 0 -127 -113l-199 84q61 160 153 238t185 78z" />
    <glyph glyph-name="uni00A0" unicode="&#xa0;" horiz-adv-x="520" 
 />
    <glyph glyph-name="exclamdown" unicode="&#xa1;" horiz-adv-x="655" 
d="M-82 0l84 307l326 680h233l-39 -680l-84 -307h-520zM227 1065l99 369h475l-99 -369h-475z" />
    <glyph glyph-name="cent" unicode="&#xa2;" horiz-adv-x="1198" 
d="M690 993q-102 -8 -167 -107q-65 -100 -65 -206t52 -148zM88 639q0 285 195 485t489 199h33l49 123h238l-68 -174q199 -92 246 -314l-324 -129q-12 84 -63 123l-183 -469q88 12 170 117l275 -182q-188 -266 -512 -266q-33 0 -49 2l-66 -166h-237l84 215q-131 57 -204 171
t-73 265z" />
    <glyph glyph-name="sterling" unicode="&#xa3;" horiz-adv-x="1267" 
d="M991 1460q133 0 256 -50t187 -128l-283 -309q-76 80 -159 80q-83 -1 -129 -47t-68 -129l-13 -48h383l-78 -288h-382l-50 -185h543l-96 -356h-1165l71 266l168 66l57 209h-151l78 288h151l11 43q68 276 224 432t445 156z" />
    <glyph glyph-name="yen" unicode="&#xa5;" horiz-adv-x="1482" 
d="M350 0l51 193h-376l71 268h377l21 80h-375l71 268h279l-244 625h498l127 -414l313 414h561l-569 -625h268l-71 -268h-375l-23 -80h375l-72 -268h-376l-52 -193h-479z" />
    <glyph glyph-name="section" unicode="&#xa7;" horiz-adv-x="1267" 
d="M836 604q80 0 79 51q0 27 -38 52q-39 25 -173 73t-188 49q-80 0 -80 -51q0 -28 39 -52t173 -73t188 -49zM569 -31q-171 1 -325 55t-246 140l209 256q72 -60 177 -106t181 -46t76 43q0 25 -36 42t-176 63t-229 114t-89 164q0 199 235 262q-59 72 -59 164q0 144 129 244
t366 100q170 0 325 -54t247 -140l-209 -256q-72 61 -177 106q-106 45 -182 45t-75 -43q-1 -25 35 -42t176 -63q318 -104 319 -278q0 -199 -235 -262q59 -72 59 -164q0 -145 -129 -245t-367 -99z" />
    <glyph glyph-name="dieresis" unicode="&#xa8;" 
d="M262 1188l84 307h377l-84 -307h-377zM721 1188l84 307h377l-84 -307h-377z" />
    <glyph glyph-name="copyright" unicode="&#xa9;" horiz-adv-x="1699" 
d="M911 319q-182 0 -301 115t-118 289v4q0 170 119 289q120 119 304 119q242 0 353 -203l-217 -129q-47 96 -144 96q-67 0 -107 -49t-40 -121v-4q0 -76 41 -123t106 -47q94 0 150 98l217 -123q-123 -211 -363 -211zM244 713q0 -274 188 -468t466 -194t467 196t189 470v4
q0 274 -188 468q-188 193 -466 193t-467 -196t-189 -469v-4zM897 -31q-309 0 -524 219t-215 525v4q0 305 217 526t526 221t524 -219t215 -524v-4q0 -305 -217 -527t-526 -221z" />
    <glyph glyph-name="ordfeminine" unicode="&#xaa;" horiz-adv-x="819" 
d="M485 956q31 0 60 28t39 69l6 24q-28 10 -60 10q-32 -1 -59 -23t-27 -65t41 -43zM82 541l49 178h631l-49 -178h-631zM618 1210q0 60 -89 60t-164 -27l-33 172q104 33 250 33t219 -52q74 -52 73 -147q0 -41 -12 -86l-90 -338h-256l19 62q-89 -76 -168 -76t-125 45t-45 133
q0 88 73 147q74 58 201 58q59 0 139 -25q8 22 8 41z" />
    <glyph glyph-name="guillemotleft" unicode="&#xab;" horiz-adv-x="1263" 
d="M250 53l-221 459l49 180l397 391l250 -227l-319 -309l172 -348zM774 41l-239 500l4 16l501 494l250 -228l-340 -329l152 -308z" />
    <glyph glyph-name="registered" unicode="&#xae;" horiz-adv-x="753" 
d="M483 1114h54q49 0 49 37t-47 37h-56v-74zM541 1292q172 0 172 -142q0 -74 -76 -106l88 -129h-143l-72 107h-27v-107h-127v377h185zM522 776q133 0 224 94t92 226v2q0 131 -92 224t-224 93q-133 0 -224 -94t-91 -225v-2q0 -130 91 -224t224 -94zM520 737q-148 1 -251 105
t-103 252v2q0 146 104 252t253 106t252 -104t104 -252v-2q0 -147 -105 -253q-106 -106 -254 -106z" />
    <glyph glyph-name="macron" unicode="&#xaf;" 
d="M285 1198l67 256h799l-68 -256h-798z" />
    <glyph glyph-name="degree" unicode="&#xb0;" horiz-adv-x="940" 
d="M576 899q66 0 110 58q43 58 43 125t-36 106q-37 39 -103 39q-66 -1 -109 -59t-43 -124t36 -106q36 -39 102 -39zM562 674q-173 0 -273 100t-101 248q0 182 122 306t295 124t273 -100t101 -265q0 -165 -122 -289t-295 -124z" />
    <glyph glyph-name="plusminus" unicode="&#xb1;" horiz-adv-x="1310" 
d="M1061 0h-1108l84 315h1108zM1264 762l-367 2l-86 -326h-377l90 326l-370 -2l94 348l368 -2l84 326h377l-88 -326l369 2z" />
    <glyph glyph-name="acute" unicode="&#xb4;" 
d="M395 1188l303 393l447 -117l-414 -276h-336z" />
    <glyph glyph-name="paragraph" unicode="&#xb6;" horiz-adv-x="1218" 
d="M829 1434h547l-383 -1434h-479l115 434q-522 39 -523 424q0 262 190 419t533 157z" />
    <glyph glyph-name="periodcentered" unicode="&#xb7;" horiz-adv-x="583" 
d="M12 410l127 471h475l-127 -471h-475z" />
    <glyph glyph-name="cedilla" unicode="&#xb8;" 
d="M332 -354l-336 153l258 242h301z" />
    <glyph glyph-name="ordmasculine" unicode="&#xba;" horiz-adv-x="823" 
d="M535 1012q42 0 74 41t32 88t-23 73q-22 26 -64 25q-42 0 -74 -41t-32 -89q0 -49 23 -73q22 -24 64 -24zM94 541l47 178h590l-47 -178h-590zM883 1149q1 -133 -105 -239t-256 -107q-150 0 -232 83q-83 83 -83 216t105 238q104 106 254 106t234 -82t83 -215z" />
    <glyph glyph-name="guillemotright" unicode="&#xbb;" horiz-adv-x="1263" 
d="M229 86l-249 227l339 330l-151 307l328 146l239 -500l-4 -16zM795 53l-250 228l319 309l-172 348l328 145l221 -458l-49 -181z" />
    <glyph glyph-name="questiondown" unicode="&#xbf;" horiz-adv-x="1099" 
d="M477 -23q-213 -1 -342 103t-129 277t123 299t383 169l63 162h283l-31 -356l-26 -23q-334 -33 -334 -149q-1 -76 111 -76t253 100l156 -346q-219 -160 -510 -160zM512 1065l100 369h475l-100 -369h-475z" />
    <glyph glyph-name="Agrave" unicode="&#xc0;" horiz-adv-x="1605" 
d="M1110 1878l104 -342h-317l-264 236zM676 532h262l-39 349zM-184 0l991 1444h475l217 -1444h-510l-24 193h-502l-125 -193h-522z" />
    <glyph glyph-name="Aacute" unicode="&#xc1;" horiz-adv-x="1605" 
d="M889 1536l289 342l469 -106l-392 -236h-366zM676 532h262l-39 349zM-184 0l991 1444h475l217 -1444h-510l-24 193h-502l-125 -193h-522z" />
    <glyph glyph-name="Acircumflex" unicode="&#xc2;" horiz-adv-x="1605" 
d="M612 1536l326 311h397l158 -311h-260l-133 104l-191 -104h-297zM676 532h262l-39 349zM-184 0l991 1444h475l217 -1444h-510l-24 193h-502l-125 -193h-522z" />
    <glyph glyph-name="Atilde" unicode="&#xc3;" horiz-adv-x="1605" 
d="M926 1903q68 0 194 -40t155 -40q58 0 105 90l209 -55q-61 -174 -132 -248t-173 -74q-68 0 -194 40t-155 40q-56 0 -106 -90l-208 55q61 174 132 248t173 74zM676 532h262l-39 349zM-184 0l991 1444h475l217 -1444h-510l-24 193h-502l-125 -193h-522z" />
    <glyph glyph-name="Adieresis" unicode="&#xc4;" horiz-adv-x="1605" 
d="M657 1536l84 307h377l-84 -307h-377zM1116 1536l84 307h377l-84 -307h-377zM676 532h262l-39 349zM-184 0l991 1444h475l217 -1444h-510l-24 193h-502l-125 -193h-522z" />
    <glyph glyph-name="Aring" unicode="&#xc5;" horiz-adv-x="1605" 
d="M676 532h262l-39 349zM887 1496q1 -60 41 -96t116 -36t128 54t52 114t-40 97q-41 36 -117 36t-128 -54q-52 -55 -52 -115zM727 1475q0 133 109 230t247 97t220 -72q81 -72 81 -183q0 -112 -88 -204l203 -1343h-510l-24 193h-502l-125 -193h-522l938 1366q-27 53 -27 109z
" />
    <glyph glyph-name="AE" unicode="&#xc6;" horiz-adv-x="2254" 
d="M729 532h270l144 537h-17zM-186 0l1097 1434h1502l-107 -394h-711l-39 -145h660l-92 -346h-660l-43 -156h721l-104 -393h-1182l51 193h-430l-141 -193h-522z" />
    <glyph glyph-name="Ccedilla" unicode="&#xc7;" horiz-adv-x="1488" 
d="M995 1464q225 0 382 -112t202 -305l-428 -187q-45 174 -223 174q-156 0 -255 -119t-99 -254t62 -201q64 -66 163 -65q158 0 278 150l332 -262q-227 -295 -610 -312l-183 -325l-335 153l219 205q-199 61 -314 217t-114 377q0 152 58 301q132 341 459 485q181 80 406 80z
" />
    <glyph glyph-name="Egrave" unicode="&#xc8;" horiz-adv-x="1378" 
d="M981 1858l104 -342h-317l-264 235zM-72 0l385 1434h1223l-106 -394h-752l-39 -145h700l-92 -346h-700l-43 -156h762l-105 -393h-1233z" />
    <glyph glyph-name="Eacute" unicode="&#xc9;" horiz-adv-x="1378" 
d="M760 1516l289 342l469 -107l-392 -235h-366zM-72 0l385 1434h1223l-106 -394h-752l-39 -145h700l-92 -346h-700l-43 -156h762l-105 -393h-1233z" />
    <glyph glyph-name="Ecircumflex" unicode="&#xca;" horiz-adv-x="1378" 
d="M483 1516l326 311h397l158 -311h-260l-133 104l-191 -104h-297zM-72 0l385 1434h1223l-106 -394h-752l-39 -145h700l-92 -346h-700l-43 -156h762l-105 -393h-1233z" />
    <glyph glyph-name="Edieresis" unicode="&#xcb;" horiz-adv-x="1378" 
d="M528 1516l84 307h377l-84 -307h-377zM987 1516l84 307h377l-84 -307h-377zM-72 0l385 1434h1223l-106 -394h-752l-39 -145h700l-92 -346h-700l-43 -156h762l-105 -393h-1233z" />
    <glyph glyph-name="Igrave" unicode="&#xcc;" horiz-adv-x="643" 
d="M614 1858l105 -342h-318l-264 235zM-68 0l385 1434h480l-385 -1434h-480z" />
    <glyph glyph-name="Iacute" unicode="&#xcd;" horiz-adv-x="643" 
d="M393 1516l289 342l469 -107l-391 -235h-367zM-68 0l385 1434h480l-385 -1434h-480z" />
    <glyph glyph-name="Icircumflex" unicode="&#xce;" horiz-adv-x="643" 
d="M117 1516l325 311h398l157 -311h-260l-133 104l-190 -104h-297zM-68 0l385 1434h480l-385 -1434h-480z" />
    <glyph glyph-name="Idieresis" unicode="&#xcf;" horiz-adv-x="643" 
d="M162 1516l84 307h377l-84 -307h-377zM621 1516l84 307h376l-84 -307h-376zM-68 0l385 1434h480l-385 -1434h-480z" />
    <glyph glyph-name="Eth" unicode="&#xd0;" horiz-adv-x="1642" 
d="M893 1036h-86l-39 -141h178l-92 -346h-176l-41 -154h90q238 0 358 120t119 267q0 254 -311 254zM944 1434q377 0 561 -185q156 -156 156 -420q0 -330 -236 -565q-264 -264 -751 -264h-602l147 549h-174l92 346h174l146 539h487z" />
    <glyph glyph-name="Ntilde" unicode="&#xd1;" horiz-adv-x="1589" 
d="M901 1882q68 0 194 -40q125 -40 155 -40q58 0 106 90l209 -55q-61 -174 -132 -248t-173 -73q-68 0 -194 40t-156 39q-30 0 -54 -20q-24 -21 -51 -70l-209 56q61 173 132 247t173 74zM-72 0l385 1434h449l325 -684l185 684h475l-385 -1434h-426l-340 713l-193 -713h-475z
" />
    <glyph glyph-name="Ograve" unicode="&#xd2;" horiz-adv-x="1628" 
d="M1096 1878l104 -342h-317l-265 236zM559 676q-1 -131 69 -207t204 -76t228 117q93 117 93 248t-70 207q-69 75 -203 75t-228 -116q-93 -117 -93 -248zM791 -29q-313 -1 -513 185t-200 465q0 341 245 591t599 250q313 0 513 -185t199 -464q0 -340 -244 -591t-599 -251z
" />
    <glyph glyph-name="Oacute" unicode="&#xd3;" horiz-adv-x="1628" 
d="M854 1536l289 342l469 -106l-391 -236h-367zM559 676q-1 -131 69 -207t204 -76t228 117q93 117 93 248t-70 207q-69 75 -203 75t-228 -116q-93 -117 -93 -248zM791 -29q-313 -1 -513 185t-200 465q0 341 245 591t599 250q313 0 513 -185t199 -464q0 -340 -244 -591
t-599 -251z" />
    <glyph glyph-name="Ocircumflex" unicode="&#xd4;" horiz-adv-x="1628" 
d="M598 1536l326 311h397l158 -311h-260l-134 104l-190 -104h-297zM559 676q-1 -131 69 -207t204 -76t228 117q93 117 93 248t-70 207q-69 75 -203 75t-228 -116q-93 -117 -93 -248zM791 -29q-313 -1 -513 185t-200 465q0 341 245 591t599 250q313 0 513 -185t199 -464
q0 -340 -244 -591t-599 -251z" />
    <glyph glyph-name="Otilde" unicode="&#xd5;" horiz-adv-x="1628" 
d="M909 1903q68 0 194 -40q125 -40 155 -40q59 0 106 90l209 -55q-61 -174 -132 -248t-173 -74q-68 0 -194 40t-156 40q-56 0 -105 -90l-209 55q61 174 132 248t173 74zM559 676q-1 -131 69 -207t204 -76t228 117q93 117 93 248t-70 207q-69 75 -203 75t-228 -116
q-93 -117 -93 -248zM791 -29q-313 -1 -513 185t-200 465q0 341 245 591t599 250q313 0 513 -185t199 -464q0 -340 -244 -591t-599 -251z" />
    <glyph glyph-name="Odieresis" unicode="&#xd6;" horiz-adv-x="1628" 
d="M641 1536l84 307h377l-84 -307h-377zM1100 1536l84 307h377l-84 -307h-377zM559 676q-1 -131 69 -207t204 -76t228 117q93 117 93 248t-70 207q-69 75 -203 75t-228 -116q-93 -117 -93 -248zM791 -29q-313 -1 -513 185t-200 465q0 341 245 591t599 250q313 0 513 -185
t199 -464q0 -340 -244 -591t-599 -251z" />
    <glyph glyph-name="multiply" unicode="&#xd7;" horiz-adv-x="1310" 
d="M864 156l-209 297l-368 -297l-226 301l373 288l-219 289l328 252l209 -297l368 297l228 -301l-375 -289l219 -288z" />
    <glyph glyph-name="Oslash" unicode="&#xd8;" horiz-adv-x="1628" 
d="M823 383q147 0 244 121q96 121 96 268q0 41 -8 72l-477 -428q65 -33 145 -33zM549 662q0 -43 10 -91l488 437q-70 43 -158 43q-147 0 -243 -121t-97 -268zM78 621q0 341 245 591t599 250q270 0 464 -145l142 127h301l-305 -273q111 -162 110 -358q0 -340 -244 -591
t-599 -251q-266 0 -453 135l-131 -116h-301l289 260q-117 162 -117 371z" />
    <glyph glyph-name="Ugrave" unicode="&#xd9;" horiz-adv-x="1548" 
d="M1071 1858l105 -342h-318l-264 235zM698 -29q-300 0 -460 135t-160 381q0 115 31 232l192 715h487l-200 -746q-16 -66 -17 -113q0 -180 197 -180q94 1 154 61t102 208l207 770h487l-227 -844q-76 -281 -225 -430q-189 -189 -568 -189z" />
    <glyph glyph-name="Uacute" unicode="&#xda;" horiz-adv-x="1548" 
d="M850 1516l289 342l469 -107l-391 -235h-367zM698 -29q-300 0 -460 135t-160 381q0 115 31 232l192 715h487l-200 -746q-16 -66 -17 -113q0 -180 197 -180q94 1 154 61t102 208l207 770h487l-227 -844q-76 -281 -225 -430q-189 -189 -568 -189z" />
    <glyph glyph-name="Ucircumflex" unicode="&#xdb;" horiz-adv-x="1548" 
d="M573 1516l326 311h397l158 -311h-260l-133 104l-191 -104h-297zM698 -29q-300 0 -460 135t-160 381q0 115 31 232l192 715h487l-200 -746q-16 -66 -17 -113q0 -180 197 -180q94 1 154 61t102 208l207 770h487l-227 -844q-76 -281 -225 -430q-189 -189 -568 -189z" />
    <glyph glyph-name="Udieresis" unicode="&#xdc;" horiz-adv-x="1548" 
d="M616 1516l84 307h377l-84 -307h-377zM1075 1516l84 307h377l-84 -307h-377zM698 -29q-300 0 -460 135t-160 381q0 115 31 232l192 715h487l-200 -746q-16 -66 -17 -113q0 -180 197 -180q94 1 154 61t102 208l207 770h487l-227 -844q-76 -281 -225 -430
q-189 -189 -568 -189z" />
    <glyph glyph-name="Yacute" unicode="&#xdd;" horiz-adv-x="1441" 
d="M764 1516l289 342l469 -107l-392 -235h-366zM307 0l146 547l-281 887h504l117 -480l372 480h568l-815 -947l-132 -487h-479z" />
    <glyph glyph-name="Thorn" unicode="&#xde;" horiz-adv-x="1382" 
d="M645 561q131 0 199 52t67 139q1 49 -39 89t-139 40h-90l-84 -320h86zM756 1233q369 0 522 -154q111 -111 111 -282q-1 -266 -191 -427t-520 -161h-217l-53 -209h-480l385 1434h480l-52 -201h15z" />
    <glyph glyph-name="germandbls" unicode="&#xdf;" horiz-adv-x="1323" 
d="M809 467q0 57 -39 91t-115 38l58 209q215 41 215 211q0 53 -30 85t-75 32q-125 0 -182 -215l-246 -918h-465l250 932q76 283 209 416q166 166 453 165q231 -1 373 -113t143 -302q0 -156 -82 -268t-248 -154q106 -33 164 -105t59 -179q0 -106 -79 -206q-78 -100 -254 -156
t-422 -36l84 319q113 5 171 51t58 103z" />
    <glyph glyph-name="agrave" unicode="&#xe0;" horiz-adv-x="1239" 
d="M651 1204l-262 277l459 116l90 -393h-287zM438 328q0 -88 87 -88q44 0 97 51q52 51 72 129l13 47q-47 12 -86 12q-87 0 -135 -40t-48 -111zM756 700q0 109 -174 109t-303 -49l-62 315q195 59 463 59t404 -96t137 -268q0 -76 -21 -156l-164 -614h-465l31 113
q-84 -70 -154 -104t-159 -34q-131 0 -215 82t-84 224q0 178 133 283t366 106q129 0 254 -37q13 31 13 67z" />
    <glyph glyph-name="aacute" unicode="&#xe1;" horiz-adv-x="1239" 
d="M621 1204l303 393l446 -116l-414 -277h-335zM438 328q0 -88 87 -88q44 0 97 51q52 51 72 129l13 47q-47 12 -86 12q-87 0 -135 -40t-48 -111zM756 700q0 109 -174 109t-303 -49l-62 315q195 59 463 59t404 -96t137 -268q0 -76 -21 -156l-164 -614h-465l31 113
q-84 -70 -154 -104t-159 -34q-131 0 -215 82t-84 224q0 178 133 283t366 106q129 0 254 -37q13 31 13 67z" />
    <glyph glyph-name="acircumflex" unicode="&#xe2;" horiz-adv-x="1239" 
d="M340 1204l367 352h335l179 -352h-240l-152 115l-213 -115h-276zM438 328q0 -88 87 -88q44 0 97 51q52 51 72 129l13 47q-47 12 -86 12q-87 0 -135 -40t-48 -111zM756 700q0 109 -174 109t-303 -49l-62 315q195 59 463 59t404 -96t137 -268q0 -76 -21 -156l-164 -614h-465
l31 113q-84 -70 -154 -104t-159 -34q-131 0 -215 82t-84 224q0 178 133 283t366 106q129 0 254 -37q13 31 13 67z" />
    <glyph glyph-name="atilde" unicode="&#xe3;" horiz-adv-x="1239" 
d="M659 1571q68 0 182 -40q113 -40 143 -40t52 19t49 71l209 -57q-61 -174 -130 -247t-171 -73q-67 0 -181 40t-144 40t-51 -19q-21 -20 -50 -71l-209 57q61 174 130 247t171 73zM438 328q0 -88 87 -88q44 0 97 51q52 51 72 129l13 47q-47 12 -86 12q-87 0 -135 -40
t-48 -111zM756 700q0 109 -174 109t-303 -49l-62 315q195 59 463 59t404 -96t137 -268q0 -76 -21 -156l-164 -614h-465l31 113q-84 -70 -154 -104t-159 -34q-131 0 -215 82t-84 224q0 178 133 283t366 106q129 0 254 -37q13 31 13 67z" />
    <glyph glyph-name="adieresis" unicode="&#xe4;" horiz-adv-x="1239" 
d="M379 1204l84 307h377l-84 -307h-377zM838 1204l84 307h376l-84 -307h-376zM438 328q0 -88 87 -88q44 0 97 51q52 51 72 129l13 47q-47 12 -86 12q-87 0 -135 -40t-48 -111zM756 700q0 109 -174 109t-303 -49l-62 315q195 59 463 59t404 -96t137 -268q0 -76 -21 -156
l-164 -614h-465l31 113q-84 -70 -154 -104t-159 -34q-131 0 -215 82t-84 224q0 178 133 283t366 106q129 0 254 -37q13 31 13 67z" />
    <glyph glyph-name="aring" unicode="&#xe5;" horiz-adv-x="1239" 
d="M886 1645q-60 1 -105 -51q-46 -52 -46 -116t34 -98q33 -34 93 -34t106 51t46 115t-34 98q-34 35 -94 35zM853 1214q-128 0 -202 70q-73 70 -73 188t95 211t223 93t202 -70t74 -188t-96 -212q-95 -92 -223 -92zM438 328q0 -88 87 -88q44 0 97 51q52 51 72 129l13 47
q-47 12 -86 12q-87 0 -135 -40t-48 -111zM756 700q0 109 -174 109t-303 -49l-62 315q195 59 463 59t404 -96t137 -268q0 -76 -21 -156l-164 -614h-465l31 113q-84 -70 -154 -104t-159 -34q-131 0 -215 82t-84 224q0 178 133 283t366 106q129 0 254 -37q13 31 13 67z" />
    <glyph glyph-name="ae" unicode="&#xe6;" horiz-adv-x="1890" 
d="M621 479q-87 0 -135 -40t-48 -96t27 -81t72 -24q94 0 188 81q-23 72 -23 148q-43 12 -81 12zM1352 823q-58 0 -114 -41t-87 -127h315q28 79 -24 133q-33 34 -90 35zM1122 451q9 -150 183 -150q91 0 211 90l215 -235q-205 -182 -485 -182t-435 188q-197 -186 -461 -187
q-162 0 -261 82t-99 224q0 178 133 283t366 106q129 0 254 -37q13 31 13 67q0 109 -174 109t-303 -49l-62 315q195 59 451 59t370 -102q170 113 365 113q347 0 445 -310q26 -83 26 -183t-33 -201h-719z" />
    <glyph glyph-name="ccedilla" unicode="&#xe7;" horiz-adv-x="1157" 
d="M715 1143q197 1 325 -101t162 -264l-368 -147q-31 135 -144 135q-96 0 -158 -86t-61 -193q0 -61 36 -99t91 -38q88 0 170 94l313 -208q-172 -248 -483 -263l-184 -327l-336 153l231 217q-131 53 -206 165t-74 268q1 291 199 493t487 201z" />
    <glyph glyph-name="egrave" unicode="&#xe8;" horiz-adv-x="1220" 
d="M805 716q0 38 -33 72t-91 35q-57 0 -113 -41t-87 -127h316q8 23 8 61zM645 1204l-262 277l459 116l90 -393h-287zM33 465q0 270 187 475t493 205q367 0 466 -309q58 -182 -8 -385h-718q9 -150 183 -150q91 0 210 90l215 -235q-205 -182 -468 -182t-411 134
q-148 136 -149 357z" />
    <glyph glyph-name="eacute" unicode="&#xe9;" horiz-adv-x="1220" 
d="M805 716q0 38 -33 72t-91 35q-57 0 -113 -41t-87 -127h316q8 23 8 61zM614 1204l304 393l446 -116l-414 -277h-336zM33 465q0 270 187 475t493 205q367 0 466 -309q58 -182 -8 -385h-718q9 -150 183 -150q91 0 210 90l215 -235q-205 -182 -468 -182t-411 134
q-148 136 -149 357z" />
    <glyph glyph-name="ecircumflex" unicode="&#xea;" horiz-adv-x="1220" 
d="M805 716q0 38 -33 72t-91 35q-57 0 -113 -41t-87 -127h316q8 23 8 61zM334 1204l366 352h336l178 -352h-239l-152 115l-213 -115h-276zM33 465q0 270 187 475t493 205q367 0 466 -309q58 -182 -8 -385h-718q9 -150 183 -150q91 0 210 90l215 -235q-205 -182 -468 -182
t-411 134q-148 136 -149 357z" />
    <glyph glyph-name="edieresis" unicode="&#xeb;" horiz-adv-x="1220" 
d="M805 716q0 38 -33 72t-91 35q-57 0 -113 -41t-87 -127h316q8 23 8 61zM834 1204l84 307h376l-84 -307h-376zM375 1204l84 307h377l-84 -307h-377zM33 465q0 270 187 475t493 205q367 0 466 -309q58 -182 -8 -385h-718q9 -150 183 -150q91 0 210 90l215 -235
q-205 -182 -468 -182t-411 134q-148 136 -149 357z" />
    <glyph glyph-name="igrave" unicode="&#xec;" horiz-adv-x="616" 
d="M330 1188l-262 276l458 117l90 -393h-286zM-74 0l299 1118h465l-299 -1118h-465z" />
    <glyph glyph-name="iacute" unicode="&#xed;" horiz-adv-x="616" 
d="M299 1188l303 393l447 -117l-414 -276h-336zM-74 0l299 1118h465l-299 -1118h-465z" />
    <glyph glyph-name="icircumflex" unicode="&#xee;" horiz-adv-x="616" 
d="M18 1188l367 352h336l178 -352h-240l-151 115l-213 -115h-277zM-74 0l299 1118h465l-299 -1118h-465z" />
    <glyph glyph-name="idieresis" unicode="&#xef;" horiz-adv-x="616" 
d="M57 1188l84 307h377l-84 -307h-377zM516 1188l84 307h377l-84 -307h-377zM-74 0l299 1118h465l-299 -1118h-465z" />
    <glyph glyph-name="eth" unicode="&#xf0;" horiz-adv-x="1323" 
d="M634 352q77 0 135 75t58 162t-41 132q-42 45 -118 45t-134 -75t-58 -162t40 -132q41 -45 118 -45zM1300 795q0 -189 -62 -353t-173 -274q-195 -195 -462 -195q-267 -1 -417 147t-150 380t163 423q162 191 401 191q166 0 268 -106q-41 106 -116 211l-230 -50l-53 168
l162 35q-51 57 -121 123h506l26 -33l205 45l53 -168l-143 -32q143 -236 143 -512z" />
    <glyph glyph-name="ntilde" unicode="&#xf1;" horiz-adv-x="1312" 
d="M705 1571q67 0 181 -40t144 -40t50 19q22 19 50 71l209 -57q-61 -174 -130 -247t-171 -73q-68 0 -182 40t-142 40q-30 0 -52 -20t-50 -70l-209 57q61 174 131 247t171 73zM983 1145q152 0 236 -92t84 -250q0 -90 -27 -189l-164 -614h-465l150 557q12 43 12 84
q0 98 -98 98q-68 0 -109 -44t-65 -138l-150 -557h-465l299 1118h465l-37 -139q59 72 147 119t187 47z" />
    <glyph glyph-name="ograve" unicode="&#xf2;" horiz-adv-x="1302" 
d="M678 1204l-262 277l458 116l91 -393h-287zM634 352q77 0 135 75t58 162t-41 132q-42 45 -118 45t-134 -75t-58 -162t40 -132q41 -45 118 -45zM1266 625q0 -262 -192 -457t-464 -195q-272 -1 -423 147t-150 374q1 262 193 456t464 195t422 -147t150 -373z" />
    <glyph glyph-name="oacute" unicode="&#xf3;" horiz-adv-x="1302" 
d="M627 1204l303 393l446 -116l-413 -277h-336zM634 352q77 0 135 75t58 162t-41 132q-42 45 -118 45t-134 -75t-58 -162t40 -132q41 -45 118 -45zM1266 625q0 -262 -192 -457t-464 -195q-272 -1 -423 147t-150 374q1 262 193 456t464 195t422 -147t150 -373z" />
    <glyph glyph-name="ocircumflex" unicode="&#xf4;" horiz-adv-x="1302" 
d="M367 1204l366 352h336l178 -352h-239l-152 115l-213 -115h-276zM634 352q77 0 135 75t58 162t-41 132q-42 45 -118 45t-134 -75t-58 -162t40 -132q41 -45 118 -45zM1266 625q0 -262 -192 -457t-464 -195q-272 -1 -423 147t-150 374q1 262 193 456t464 195t422 -147
t150 -373z" />
    <glyph glyph-name="otilde" unicode="&#xf5;" horiz-adv-x="1302" 
d="M686 1571q68 0 182 -40t143 -40t51 19t50 71l209 -57q-61 -174 -130 -247t-171 -73q-68 0 -182 40t-143 40q-30 0 -51 -20t-50 -70l-209 57q61 174 130 247t171 73zM634 352q77 0 135 75t58 162t-41 132q-42 45 -118 45t-134 -75t-58 -162t40 -132q41 -45 118 -45z
M1266 625q0 -262 -192 -457t-464 -195q-272 -1 -423 147t-150 374q1 262 193 456t464 195t422 -147t150 -373z" />
    <glyph glyph-name="odieresis" unicode="&#xf6;" horiz-adv-x="1302" 
d="M408 1204l84 307h376l-84 -307h-376zM866 1204l84 307h377l-84 -307h-377zM634 352q77 0 135 75t58 162t-41 132q-42 45 -118 45t-134 -75t-58 -162t40 -132q41 -45 118 -45zM1266 625q0 -262 -192 -457t-464 -195q-272 -1 -423 147t-150 374q1 262 193 456t464 195
t422 -147t150 -373z" />
    <glyph glyph-name="divide" unicode="&#xf7;" horiz-adv-x="1310" 
d="M322 76l98 364h409l-98 -364h-409zM1212 541h-1122l96 360h1123zM569 1001l99 365h409l-98 -365h-410z" />
    <glyph glyph-name="oslash" unicode="&#xf8;" horiz-adv-x="1302" 
d="M623 334q93 0 159 82t66 192v10l-305 -268q37 -16 80 -16zM455 512q0 -25 2 -35l317 281q-41 29 -94 28q-94 0 -160 -81q-65 -82 -65 -193zM37 506q1 254 193 446t477 193q213 0 362 -113l109 96h272l-260 -229q76 -127 76 -285q0 -254 -193 -446t-477 -193
q-205 0 -348 99l-96 -84h-273l242 213q-84 131 -84 303z" />
    <glyph glyph-name="ugrave" unicode="&#xf9;" horiz-adv-x="1312" 
d="M682 1188l-262 276l459 117l90 -393h-287zM342 -27q-152 1 -236 93t-83 249q0 90 26 189l164 614h465l-150 -557q-12 -43 -12 -84q0 -98 98 -98q68 0 109 44t65 138l150 557h465l-299 -1118h-465l37 139q-60 -72 -148 -119t-186 -47z" />
    <glyph glyph-name="uacute" unicode="&#xfa;" horiz-adv-x="1312" 
d="M651 1188l303 393l447 -117l-414 -276h-336zM342 -27q-152 1 -236 93t-83 249q0 90 26 189l164 614h465l-150 -557q-12 -43 -12 -84q0 -98 98 -98q68 0 109 44t65 138l150 557h465l-299 -1118h-465l37 139q-60 -72 -148 -119t-186 -47z" />
    <glyph glyph-name="ucircumflex" unicode="&#xfb;" horiz-adv-x="1312" 
d="M371 1188l366 352h336l178 -352h-239l-152 115l-213 -115h-276zM342 -27q-152 1 -236 93t-83 249q0 90 26 189l164 614h465l-150 -557q-12 -43 -12 -84q0 -98 98 -98q68 0 109 44t65 138l150 557h465l-299 -1118h-465l37 139q-60 -72 -148 -119t-186 -47z" />
    <glyph glyph-name="udieresis" unicode="&#xfc;" horiz-adv-x="1312" 
d="M410 1188l84 307h376l-84 -307h-376zM868 1188l84 307h377l-84 -307h-377zM342 -27q-152 1 -236 93t-83 249q0 90 26 189l164 614h465l-150 -557q-12 -43 -12 -84q0 -98 98 -98q68 0 109 44t65 138l150 557h465l-299 -1118h-465l37 139q-60 -72 -148 -119t-186 -47z" />
    <glyph glyph-name="yacute" unicode="&#xfd;" horiz-adv-x="1335" 
d="M662 1188l303 393l446 -117l-414 -276h-335zM206 -334q-194 0 -327 84l180 342q94 -66 187 -65q37 0 73 12l-153 1079h471l39 -588l334 588h483l-690 -1079q-131 -205 -267 -289t-330 -84z" />
    <glyph glyph-name="thorn" unicode="&#xfe;" horiz-adv-x="1374" 
d="M510 528q0 -174 162 -174q79 0 143 76q63 76 63 162t-41 130q-42 44 -121 44q-78 0 -142 -76t-64 -162zM975 1145q156 0 261 -118t105 -318q0 -305 -171 -521t-416 -215q-217 0 -328 170l-127 -471h-465l488 1823h464l-131 -491q61 63 147 102t173 39z" />
    <glyph glyph-name="ydieresis" unicode="&#xff;" horiz-adv-x="1335" 
d="M420 1188l84 307h377l-84 -307h-377zM879 1188l84 307h376l-84 -307h-376zM206 -334q-194 0 -327 84l180 342q94 -66 187 -65q37 0 73 12l-153 1079h471l39 -588l334 588h483l-690 -1079q-131 -205 -267 -289t-330 -84z" />
    <glyph glyph-name="Amacron" unicode="&#x100;" horiz-adv-x="1605" 
d="M653 1556l72 261h852l-72 -261h-852zM676 532h262l-39 349zM-184 0l991 1444h475l217 -1444h-510l-24 193h-502l-125 -193h-522z" />
    <glyph glyph-name="amacron" unicode="&#x101;" horiz-adv-x="1239" 
d="M401 1214l68 256h799l-68 -256h-799zM438 328q0 -88 87 -88q44 0 97 51q52 51 72 129l13 47q-47 12 -86 12q-87 0 -135 -40t-48 -111zM756 700q0 109 -174 109t-303 -49l-62 315q195 59 463 59t404 -96t137 -268q0 -76 -21 -156l-164 -614h-465l31 113q-84 -70 -154 -104
t-159 -34q-131 0 -215 82t-84 224q0 178 133 283t366 106q129 0 254 -37q13 31 13 67z" />
    <glyph glyph-name="Abreve" unicode="&#x102;" horiz-adv-x="1605" 
d="M1079 1532q-180 0 -268 79t-72 236h248q13 -86 137 -86t187 86h262q-134 -315 -494 -315zM676 532h262l-39 349zM-184 0l991 1444h475l217 -1444h-510l-24 193h-502l-125 -193h-522z" />
    <glyph glyph-name="abreve" unicode="&#x103;" horiz-adv-x="1239" 
d="M829 1202q-173 0 -277 89q-103 89 -103 265h249q12 -114 150 -114t199 114h249q-42 -168 -168 -261t-299 -93zM438 328q0 -88 87 -88q44 0 97 51q52 51 72 129l13 47q-47 12 -86 12q-87 0 -135 -40t-48 -111zM756 700q0 109 -174 109t-303 -49l-62 315q195 59 463 59
t404 -96t137 -268q0 -76 -21 -156l-164 -614h-465l31 113q-84 -70 -154 -104t-159 -34q-131 0 -215 82t-84 224q0 178 133 283t366 106q129 0 254 -37q13 31 13 67z" />
    <glyph glyph-name="Aogonek" unicode="&#x104;" horiz-adv-x="1605" 
d="M676 532h262l-39 349zM987 -197q0 92 143 197h-141l-24 193h-502l-125 -193h-522l991 1444h475l217 -1444h-82q-59 -53 -59 -87t32 -44t105 -8l-51 -195q-82 -12 -160 -12q-297 -1 -297 149z" />
    <glyph glyph-name="aogonek" unicode="&#x105;" horiz-adv-x="1239" 
d="M438 328q0 -88 87 -88q44 0 97 51q52 51 72 129l13 47q-47 12 -86 12q-87 0 -135 -40t-48 -111zM756 700q0 109 -174 109t-303 -49l-62 315q195 59 463 59t404 -96t137 -268q0 -76 -21 -156l-164 -614h-86q-59 -53 -59 -87t32 -44t105 -8l-51 -195q-84 -12 -160 -12
q-297 -1 -297 149q0 92 144 197h-93l31 113q-84 -70 -154 -104t-159 -34q-131 0 -215 82t-84 224q0 178 133 283t366 106q129 0 254 -37q13 31 13 67z" />
    <glyph glyph-name="Cacute" unicode="&#x106;" horiz-adv-x="1488" 
d="M858 1536l289 342l469 -106l-391 -236h-367zM752 -31q-303 0 -492 171q-188 171 -188 473t226 564q110 127 291 207t406 80t382 -112t202 -305l-428 -187q-45 174 -223 174q-156 0 -255 -119t-99 -254t62 -201q64 -66 163 -65q158 0 278 150l332 -262
q-237 -314 -657 -314z" />
    <glyph glyph-name="cacute" unicode="&#x107;" horiz-adv-x="1157" 
d="M586 1204l303 393l446 -116l-413 -277h-336zM553 -29q-229 0 -377 128q-147 128 -147 350q1 291 199 493t487 201q197 1 325 -101t162 -264l-368 -147q-31 135 -144 135q-96 0 -158 -86t-61 -193q0 -61 36 -99t91 -38q88 0 170 94l313 -208q-182 -265 -528 -265z" />
    <glyph glyph-name="Cdotaccent" unicode="&#x10a;" horiz-adv-x="1488" 
d="M848 1536l84 307h389l-84 -307h-389zM752 -31q-303 0 -492 171q-188 171 -188 473t226 564q110 127 291 207t406 80t382 -112t202 -305l-428 -187q-45 174 -223 174q-156 0 -255 -119t-99 -254t62 -201q64 -66 163 -65q158 0 278 150l332 -262q-237 -314 -657 -314z" />
    <glyph glyph-name="cdotaccent" unicode="&#x10b;" horiz-adv-x="1157" 
d="M571 1204l84 307h385l-84 -307h-385zM553 -29q-229 0 -377 128q-147 128 -147 350q1 291 199 493t487 201q197 1 325 -101t162 -264l-368 -147q-31 135 -144 135q-96 0 -158 -86t-61 -193q0 -61 36 -99t91 -38q88 0 170 94l313 -208q-182 -265 -528 -265z" />
    <glyph glyph-name="Ccaron" unicode="&#x10c;" horiz-adv-x="1488" 
d="M1573 1847l-326 -311h-397l-158 311h260l133 -104l191 104h297zM752 -31q-303 0 -492 171q-188 171 -188 473t226 564q110 127 291 207t406 80t382 -112t202 -305l-428 -187q-45 174 -223 174q-156 0 -255 -119t-99 -254t62 -201q64 -66 163 -65q158 0 278 150l332 -262
q-237 -314 -657 -314z" />
    <glyph glyph-name="ccaron" unicode="&#x10d;" horiz-adv-x="1157" 
d="M1251 1556l-366 -352h-336l-178 352h239l152 -114l213 114h276zM553 -29q-229 0 -377 128q-147 128 -147 350q1 291 199 493t487 201q197 1 325 -101t162 -264l-368 -147q-31 135 -144 135q-96 0 -158 -86t-61 -193q0 -61 36 -99t91 -38q88 0 170 94l313 -208
q-182 -265 -528 -265z" />
    <glyph glyph-name="Dcaron" unicode="&#x10e;" horiz-adv-x="1527" 
d="M1477 1827l-326 -311h-397l-158 311h260l133 -105l191 105h297zM760 1016h-80l-160 -598h84q226 0 336 110t111 250q0 238 -291 238zM821 1434q377 0 561 -185q156 -156 156 -420q0 -330 -235 -565q-264 -264 -752 -264h-623l385 1434h508z" />
    <glyph glyph-name="dcaron" unicode="&#x10f;" horiz-adv-x="1374" 
d="M1511 1040l121 455h334l-2 -8l-266 -447h-187zM496 526q0 -174 162 -174q79 0 143 76q63 76 63 162t-42 130t-120 44t-142 -76t-64 -162zM399 -27q-156 0 -261 118t-105 319q0 305 171 520t417 215q217 0 327 -170l139 520h465l-399 -1495h-465l31 115q-61 -63 -147 -103
t-173 -39z" />
    <glyph glyph-name="Dcroat" unicode="&#x110;" horiz-adv-x="1642" 
d="M893 1036h-86l-39 -141h178l-92 -346h-176l-41 -154h90q238 0 358 120t119 267q0 254 -311 254zM944 1434q377 0 561 -185q156 -156 156 -420q0 -330 -236 -565q-264 -264 -751 -264h-602l147 549h-174l92 346h174l146 539h487z" />
    <glyph glyph-name="dcroat" unicode="&#x111;" horiz-adv-x="1374" 
d="M496 526q0 -174 162 -174q79 0 143 76q63 76 63 162t-42 130t-120 44t-142 -76t-64 -162zM399 -27q-156 0 -261 118t-105 319q0 305 171 520t417 215q217 0 327 -170l66 244h-297l51 194h297l22 82h465l-22 -82h119l-52 -194h-118l-326 -1219h-465l31 115
q-61 -63 -147 -103t-173 -39z" />
    <glyph glyph-name="Emacron" unicode="&#x112;" horiz-adv-x="1378" 
d="M524 1536l72 260h852l-72 -260h-852zM-72 0l385 1434h1223l-106 -394h-752l-39 -145h700l-92 -346h-700l-43 -156h762l-105 -393h-1233z" />
    <glyph glyph-name="emacron" unicode="&#x113;" horiz-adv-x="1220" 
d="M805 716q0 38 -33 72t-91 35q-57 0 -113 -41t-87 -127h316q8 23 8 61zM395 1214l68 256h799l-68 -256h-799zM33 465q0 270 187 475t493 205q367 0 466 -309q58 -182 -8 -385h-718q9 -150 183 -150q91 0 210 90l215 -235q-205 -182 -468 -182t-411 134q-148 136 -149 357z
" />
    <glyph glyph-name="Ebreve" unicode="&#x114;" horiz-adv-x="1378" 
d="M950 1511q-180 0 -268 79t-72 237h248q12 -86 136 -86t188 86h262q-134 -316 -494 -316zM-72 0l385 1434h1223l-106 -394h-752l-39 -145h700l-92 -346h-700l-43 -156h762l-105 -393h-1233z" />
    <glyph glyph-name="ebreve" unicode="&#x115;" horiz-adv-x="1220" 
d="M805 716q0 38 -33 72t-91 35q-57 0 -113 -41t-87 -127h316q8 23 8 61zM822 1202q-173 0 -276 89t-104 265h250q12 -114 150 -114t198 114h250q-43 -168 -169 -261t-299 -93zM33 465q0 270 187 475t493 205q367 0 466 -309q58 -182 -8 -385h-718q9 -150 183 -150
q91 0 210 90l215 -235q-205 -182 -468 -182t-411 134q-148 136 -149 357z" />
    <glyph glyph-name="Edotaccent" unicode="&#x116;" horiz-adv-x="1378" 
d="M752 1516l84 307h389l-84 -307h-389zM-72 0l385 1434h1223l-106 -394h-752l-39 -145h700l-92 -346h-700l-43 -156h762l-105 -393h-1233z" />
    <glyph glyph-name="edotaccent" unicode="&#x117;" horiz-adv-x="1220" 
d="M805 716q0 38 -33 72t-91 35q-57 0 -113 -41t-87 -127h316q8 23 8 61zM600 1204l84 307h385l-84 -307h-385zM33 465q0 270 187 475t493 205q367 0 466 -309q58 -182 -8 -385h-718q9 -150 183 -150q91 0 210 90l215 -235q-205 -182 -468 -182t-411 134q-148 136 -149 357z
" />
    <glyph glyph-name="Eogonek" unicode="&#x118;" horiz-adv-x="1378" 
d="M1004 -87q0 -34 32 -44t105 -8l-51 -195q-82 -12 -160 -12q-297 0 -297 149q0 92 143 197h-848l385 1434h1223l-106 -394h-752l-39 -145h700l-92 -346h-700l-43 -156h762l-105 -393h-98q-59 -53 -59 -87z" />
    <glyph glyph-name="eogonek" unicode="&#x119;" horiz-adv-x="1220" 
d="M805 716q0 38 -33 72t-91 35q-57 0 -113 -41t-87 -127h316q8 23 8 61zM453 451q9 -150 183 -150q91 0 210 90l215 -235q-123 -94 -152 -121q-96 -84 -96 -120t32 -46t105 -8l-51 -195q-82 -12 -160 -12q-297 0 -297 149q0 80 111 172q-233 3 -377 137t-143 353
q0 270 187 475t493 205q367 0 466 -309q58 -182 -8 -385h-718z" />
    <glyph glyph-name="Ecaron" unicode="&#x11a;" horiz-adv-x="1378" 
d="M1475 1827l-326 -311h-397l-158 311h260l133 -105l191 105h297zM-72 0l385 1434h1223l-106 -394h-752l-39 -145h700l-92 -346h-700l-43 -156h762l-105 -393h-1233z" />
    <glyph glyph-name="ecaron" unicode="&#x11b;" horiz-adv-x="1220" 
d="M805 716q0 38 -33 72t-91 35q-57 0 -113 -41t-87 -127h316q8 23 8 61zM1278 1556l-367 -352h-336l-178 352h240l151 -114l213 114h277zM33 465q0 270 187 475t493 205q367 0 466 -309q58 -182 -8 -385h-718q9 -150 183 -150q91 0 210 90l215 -235q-205 -182 -468 -182
t-411 134q-148 136 -149 357z" />
    <glyph glyph-name="Gbreve" unicode="&#x11e;" horiz-adv-x="1523" 
d="M1057 1532q-180 0 -269 79q-88 79 -71 236h248q12 -86 136 -86t187 86h262q-133 -315 -493 -315zM70 608q0 360 261 608t685 248q192 0 356 -70t244 -167l-299 -307q-139 129 -335 129t-314 -120t-117 -298q0 -127 80 -197t198 -69q74 0 125 22l47 154h-235l78 307h690
l-205 -731q-248 -148 -540 -148t-498 150q-101 75 -161 201t-60 288z" />
    <glyph glyph-name="gbreve" unicode="&#x11f;" horiz-adv-x="1361" 
d="M902 1202q-173 0 -276 89t-104 265h250q12 -114 150 -114t198 114h250q-43 -168 -169 -261t-299 -93zM690 788q-80 0 -136 -66t-56 -142t42 -119t121 -43q80 0 137 67q56 67 56 141t-42 118t-122 44zM463 -332q-152 0 -315 43t-271 109l184 270q190 -109 390 -108
q145 0 223 77q57 57 86 174q-137 -127 -330 -127q-152 0 -266 104t-115 279q0 258 155 456t406 198q109 0 198 -47t140 -123l39 145h465l-235 -878q-72 -268 -203 -400q-172 -172 -551 -172z" />
    <glyph glyph-name="Gdotaccent" unicode="&#x120;" horiz-adv-x="1523" 
d="M858 1536l84 307h389l-84 -307h-389zM70 608q0 360 261 608t685 248q192 0 356 -70t244 -167l-299 -307q-139 129 -335 129t-314 -120t-117 -298q0 -127 80 -197t198 -69q74 0 125 22l47 154h-235l78 307h690l-205 -731q-248 -148 -540 -148t-498 150q-101 75 -161 201
t-60 288z" />
    <glyph glyph-name="gdotaccent" unicode="&#x121;" horiz-adv-x="1361" 
d="M680 1204l84 307h385l-84 -307h-385zM690 788q-80 0 -136 -66t-56 -142t42 -119t121 -43q80 0 137 67q56 67 56 141t-42 118t-122 44zM463 -332q-152 0 -315 43t-271 109l184 270q190 -109 390 -108q145 0 223 77q57 57 86 174q-137 -127 -330 -127q-152 0 -266 104
t-115 279q0 258 155 456t406 198q109 0 198 -47t140 -123l39 145h465l-235 -878q-72 -268 -203 -400q-172 -172 -551 -172z" />
    <glyph glyph-name="Gcommaaccent" unicode="&#x122;" horiz-adv-x="1523" 
d="M362 -678l21 137q94 8 136 37t54 84h-147l86 320h379l-74 -279q-43 -161 -157 -229t-298 -70zM70 608q0 360 261 608t685 248q192 0 356 -70t244 -167l-299 -307q-139 129 -335 129t-314 -120t-117 -298q0 -127 80 -197t198 -69q74 0 125 22l47 154h-235l78 307h690
l-205 -731q-248 -148 -540 -148t-498 150q-101 75 -161 201t-60 288z" />
    <glyph glyph-name="gcommaaccent" unicode="&#x123;" horiz-adv-x="1361" 
d="M1210 1782l-20 -137q-94 -8 -136 -37t-55 -84h148l-86 -320h-379l74 279q42 161 156 229t298 70zM690 788q-80 0 -136 -66t-56 -142t42 -119t121 -43q80 0 137 67q56 67 56 141t-42 118t-122 44zM463 -332q-152 0 -315 43t-271 109l184 270q190 -109 390 -108
q145 0 223 77q57 57 86 174q-137 -127 -330 -127q-152 0 -266 104t-115 279q0 258 155 456t406 198q109 0 198 -47t140 -123l39 145h465l-235 -878q-72 -268 -203 -400q-172 -172 -551 -172z" />
    <glyph glyph-name="Hbar" unicode="&#x126;" horiz-adv-x="1552" 
d="M655 928h439l39 145h-439zM115 1069l57 215h100l41 150h480l-41 -150h438l41 150h479l-41 -150h105l-58 -215h-104l-287 -1069h-479l137 514h-438l-137 -514h-480l287 1069h-100z" />
    <glyph glyph-name="hbar" unicode="&#x127;" horiz-adv-x="1312" 
d="M983 1145q152 0 236 -92t84 -250q0 -90 -27 -189l-164 -614h-465l150 557q12 43 12 84q0 98 -98 98q-68 0 -109 -44t-65 -138l-150 -557h-465l328 1219h-119l53 194h117l23 82h464l-22 -82h299l-53 -194h-299l-64 -240q59 72 147 119t187 47z" />
    <glyph glyph-name="Imacron" unicode="&#x12a;" horiz-adv-x="643" 
d="M158 1536l71 260h852l-71 -260h-852zM-68 0l385 1434h480l-385 -1434h-480z" />
    <glyph glyph-name="imacron" unicode="&#x12b;" horiz-adv-x="616" 
d="M80 1198l67 256h799l-67 -256h-799zM-74 0l299 1118h465l-299 -1118h-465z" />
    <glyph glyph-name="Ibreve" unicode="&#x12c;" horiz-adv-x="643" 
d="M584 1511q-180 0 -269 79q-88 79 -71 237h248q12 -86 136 -86t187 86h262q-133 -316 -493 -316zM-68 0l385 1434h480l-385 -1434h-480z" />
    <glyph glyph-name="ibreve" unicode="&#x12d;" horiz-adv-x="616" 
d="M507 1186q-173 0 -277 89q-103 89 -103 265h250q12 -115 149 -115t199 115h250q-43 -168 -169 -261t-299 -93zM-74 0l299 1118h465l-299 -1118h-465z" />
    <glyph glyph-name="Iogonek" unicode="&#x12e;" horiz-adv-x="643" 
d="M256 -87q0 -34 32 -44t105 -8l-51 -195q-84 -12 -160 -12q-297 0 -297 149q0 90 144 197h-97l385 1434h480l-385 -1434h-97q-59 -53 -59 -87z" />
    <glyph glyph-name="iogonek" unicode="&#x12f;" horiz-adv-x="616" 
d="M240 1198l79 297h482l-80 -297h-481zM248 -87q0 -34 32 -44t105 -8l-51 -195q-82 -12 -160 -12q-297 0 -297 149q0 90 143 197h-94l299 1118h465l-299 -1118h-84q-59 -53 -59 -87z" />
    <glyph glyph-name="Idotaccent" unicode="&#x130;" horiz-adv-x="643" 
d="M385 1516l84 307h389l-84 -307h-389zM-68 0l385 1434h480l-385 -1434h-480z" />
    <glyph glyph-name="dotlessi" unicode="&#x131;" horiz-adv-x="616" 
d="M-74 0l299 1118h465l-299 -1118h-465z" />
    <glyph glyph-name="Kcommaaccent" unicode="&#x136;" horiz-adv-x="1470" 
d="M276 -657l21 137q94 8 136 37t54 84h-147l86 319h379l-74 -278q-43 -162 -157 -230t-298 -69zM-72 0l385 1434h480l-140 -514l477 514h584l-653 -656l299 -778h-510l-172 461l-201 -201l-69 -260h-480z" />
    <glyph glyph-name="kcommaaccent" unicode="&#x137;" horiz-adv-x="1243" 
d="M123 -657l20 137q94 8 137 37q42 29 54 84h-148l86 319h379l-73 -278q-43 -162 -157 -230t-298 -69zM-78 0l402 1495h464l-186 -690l299 313h531l-490 -479l197 -639h-484l-84 324l-133 -134l-51 -190h-465z" />
    <glyph glyph-name="Lacute" unicode="&#x139;" horiz-adv-x="1247" 
d="M412 1516l288 342l469 -107l-391 -235h-366zM-72 0l385 1434h480l-275 -1024h653l-110 -410h-1133z" />
    <glyph glyph-name="lacute" unicode="&#x13a;" horiz-adv-x="616" 
d="M393 1567l289 342l469 -107l-391 -235h-367zM-74 0l402 1495h465l-402 -1495h-465z" />
    <glyph glyph-name="Lcommaaccent" unicode="&#x13b;" horiz-adv-x="1247" 
d="M125 -657l20 137q94 8 137 37q42 29 54 84h-148l86 319h379l-73 -278q-43 -162 -157 -230t-298 -69zM-72 0l385 1434h480l-275 -1024h653l-110 -410h-1133z" />
    <glyph glyph-name="lcommaaccent" unicode="&#x13c;" horiz-adv-x="616" 
d="M-195 -657l21 137q94 8 136 37t54 84h-147l86 319h379l-74 -278q-43 -162 -157 -230t-298 -69zM-74 0l402 1495h465l-402 -1495h-465z" />
    <glyph glyph-name="Lcaron" unicode="&#x13d;" horiz-adv-x="1247" 
d="M770 979l121 455h334l-2 -9l-267 -446h-186zM-72 0l385 1434h480l-275 -1024h653l-110 -410h-1133z" />
    <glyph glyph-name="lcaron" unicode="&#x13e;" horiz-adv-x="616" 
d="M752 1040l120 455h334l-2 -8l-266 -447h-186zM-74 0l402 1495h465l-402 -1495h-465z" />
    <glyph glyph-name="Ldot" unicode="&#x13f;" horiz-adv-x="1247" 
d="M-72 0l385 1434h480l-275 -1024h653l-110 -410h-1133zM811 692l96 359h357l-97 -359h-356z" />
    <glyph glyph-name="ldot" unicode="&#x140;" horiz-adv-x="911" 
d="M-74 0l402 1495h465l-402 -1495h-465zM623 590l98 368h303l-98 -368h-303z" />
    <glyph glyph-name="Lslash" unicode="&#x141;" horiz-adv-x="1366" 
d="M1057 705l-357 -97l-53 -198h643l-110 -410h-1123l125 467l-170 -45l113 416l170 45l147 551h480l-111 -410l358 96z" />
    <glyph glyph-name="lslash" unicode="&#x142;" horiz-adv-x="892" 
d="M893 686l-195 -51l-170 -635h-465l136 506l-193 -49l109 403l192 49l158 586h465l-123 -455l194 52z" />
    <glyph glyph-name="Nacute" unicode="&#x143;" horiz-adv-x="1589" 
d="M866 1516l289 342l469 -107l-391 -235h-367zM-72 0l385 1434h449l325 -684l185 684h475l-385 -1434h-426l-340 713l-193 -713h-475z" />
    <glyph glyph-name="nacute" unicode="&#x144;" horiz-adv-x="1312" 
d="M666 1204l303 393l446 -116l-414 -277h-335zM983 1145q152 0 236 -92t84 -250q0 -90 -27 -189l-164 -614h-465l150 557q12 43 12 84q0 98 -98 98q-68 0 -109 -44t-65 -138l-150 -557h-465l299 1118h465l-37 -139q59 72 147 119t187 47z" />
    <glyph glyph-name="Ncommaaccent" unicode="&#x145;" horiz-adv-x="1589" 
d="M293 -657l20 137q94 8 137 37q42 29 54 84h-148l86 319h379l-73 -278q-43 -162 -157 -230t-298 -69zM-72 0l385 1434h449l325 -684l185 684h475l-385 -1434h-426l-340 713l-193 -713h-475z" />
    <glyph glyph-name="ncommaaccent" unicode="&#x146;" horiz-adv-x="1312" 
d="M166 -657l20 137q94 8 137 37q42 29 54 84h-148l86 319h379l-73 -278q-43 -162 -157 -230t-298 -69zM983 1145q152 0 236 -92t84 -250q0 -90 -27 -189l-164 -614h-465l150 557q12 43 12 84q0 98 -98 98q-68 0 -109 -44t-65 -138l-150 -557h-465l299 1118h465l-37 -139
q59 72 147 119t187 47z" />
    <glyph glyph-name="Ncaron" unicode="&#x147;" horiz-adv-x="1589" 
d="M1581 1827l-326 -311h-397l-158 311h261l133 -105l190 105h297zM-72 0l385 1434h449l325 -684l185 684h475l-385 -1434h-426l-340 713l-193 -713h-475z" />
    <glyph glyph-name="ncaron" unicode="&#x148;" horiz-adv-x="1312" 
d="M1329 1556l-366 -352h-336l-178 352h239l152 -114l213 114h276zM983 1145q152 0 236 -92t84 -250q0 -90 -27 -189l-164 -614h-465l150 557q12 43 12 84q0 98 -98 98q-68 0 -109 -44t-65 -138l-150 -557h-465l299 1118h465l-37 -139q59 72 147 119t187 47z" />
    <glyph glyph-name="Omacron" unicode="&#x14c;" horiz-adv-x="1628" 
d="M639 1556l72 261h852l-72 -261h-852zM559 676q-1 -131 69 -207t204 -76t228 117q93 117 93 248t-70 207q-69 75 -203 75t-228 -116q-93 -117 -93 -248zM791 -29q-313 -1 -513 185t-200 465q0 341 245 591t599 250q313 0 513 -185t199 -464q0 -340 -244 -591t-599 -251z
" />
    <glyph glyph-name="omacron" unicode="&#x14d;" horiz-adv-x="1302" 
d="M428 1214l68 256h798l-67 -256h-799zM634 352q77 0 135 75t58 162t-41 132q-42 45 -118 45t-134 -75t-58 -162t40 -132q41 -45 118 -45zM1266 625q0 -262 -192 -457t-464 -195q-272 -1 -423 147t-150 374q1 262 193 456t464 195t422 -147t150 -373z" />
    <glyph glyph-name="Obreve" unicode="&#x14e;" horiz-adv-x="1628" 
d="M1063 1532q-180 0 -268 79t-72 236h248q12 -86 136 -86t187 86h262q-133 -315 -493 -315zM559 676q-1 -131 69 -207t204 -76t228 117q93 117 93 248t-70 207q-69 75 -203 75t-228 -116q-93 -117 -93 -248zM791 -29q-313 -1 -513 185t-200 465q0 341 245 591t599 250
q313 0 513 -185t199 -464q0 -340 -244 -591t-599 -251z" />
    <glyph glyph-name="obreve" unicode="&#x14f;" horiz-adv-x="1302" 
d="M855 1202q-173 0 -276 89t-104 265h250q12 -114 149 -114t199 114h250q-43 -168 -169 -261t-299 -93zM634 352q77 0 135 75t58 162t-41 132q-42 45 -118 45t-134 -75t-58 -162t40 -132q41 -45 118 -45zM1266 625q0 -262 -192 -457t-464 -195q-272 -1 -423 147t-150 374
q1 262 193 456t464 195t422 -147t150 -373z" />
    <glyph glyph-name="Ohungarumlaut" unicode="&#x150;" horiz-adv-x="1628" 
d="M1044 1536l121 154l-231 -154h-311l266 342l354 -90l70 90l416 -106l-371 -236h-314zM559 676q-1 -131 69 -207t204 -76t228 117q93 117 93 248t-70 207q-69 75 -203 75t-228 -116q-93 -117 -93 -248zM791 -29q-313 -1 -513 185t-200 465q0 341 245 591t599 250
q313 0 513 -185t199 -464q0 -340 -244 -591t-599 -251z" />
    <glyph glyph-name="ohungarumlaut" unicode="&#x151;" horiz-adv-x="1302" 
d="M634 352q77 0 135 75t58 162t-41 132q-42 45 -118 45t-134 -75t-58 -162t40 -132q41 -45 118 -45zM322 1204l282 393l357 -102l67 102l406 -116l-363 -277h-305l139 209l-278 -209h-305zM1266 625q0 -262 -192 -457t-464 -195q-272 -1 -423 147t-150 374q1 262 193 456
t464 195t422 -147t150 -373z" />
    <glyph glyph-name="OE" unicode="&#x152;" horiz-adv-x="2228" 
d="M852 418h80l160 598h-84q-226 0 -336 -110t-111 -251q0 -237 291 -237zM791 0q-377 0 -562 184q-156 156 -155 420q0 330 235 565q264 264 752 265h1325l-107 -394h-710l-39 -145h659l-92 -346h-659l-43 -156h721l-105 -393h-1220z" />
    <glyph glyph-name="oe" unicode="&#x153;" horiz-adv-x="1998" 
d="M634 354q77 0 135 74t58 161t-41 132q-42 45 -118 45t-134 -74t-58 -161t40 -132q41 -45 118 -45zM1583 716q0 38 -33 72t-90 35q-57 0 -113 -41t-87 -127h315q8 23 8 61zM707 1145q233 0 378 -150q180 150 416 150q353 0 455 -310q58 -179 -6 -384h-719q9 -150 183 -150
q91 0 210 90l215 -235q-205 -182 -493 -183q-211 0 -357 146q-174 -143 -393 -144q-258 0 -409 150q-151 151 -151 393t194 434q192 192 477 193z" />
    <glyph glyph-name="Racute" unicode="&#x154;" horiz-adv-x="1460" 
d="M752 1516l288 342l469 -107l-391 -235h-366zM782 752q115 0 180 46t64 117q0 45 -36 81t-136 36h-170l-76 -280h174zM872 1434q375 0 529 -154q113 -113 113 -294t-99 -313q-98 -132 -301 -196l199 -477h-516l-160 410h-119l-110 -410h-480l385 1434h559z" />
    <glyph glyph-name="racute" unicode="&#x155;" horiz-adv-x="903" 
d="M449 1188l303 393l446 -117l-414 -276h-335zM860 641q-162 0 -256 -88t-143 -274l-74 -279h-465l299 1118h465l-59 -225q174 252 413 242l-131 -494h-49z" />
    <glyph glyph-name="Rcommaaccent" unicode="&#x156;" horiz-adv-x="1460" 
d="M219 -657l21 137q94 8 136 37t54 84h-147l86 319h379l-74 -278q-43 -162 -157 -230t-298 -69zM782 752q115 0 180 46t64 117q0 45 -36 81t-136 36h-170l-76 -280h174zM872 1434q375 0 529 -154q113 -113 113 -294t-99 -313q-98 -132 -301 -196l199 -477h-516l-160 410
h-119l-110 -410h-480l385 1434h559z" />
    <glyph glyph-name="rcommaaccent" unicode="&#x157;" horiz-adv-x="903" 
d="M-180 -657l20 137q94 8 136 37t55 84h-148l86 319h379l-74 -278q-43 -162 -156 -230q-114 -67 -298 -69zM860 641q-162 0 -256 -88t-143 -274l-74 -279h-465l299 1118h465l-59 -225q174 252 413 242l-131 -494h-49z" />
    <glyph glyph-name="Rcaron" unicode="&#x158;" horiz-adv-x="1460" 
d="M1466 1827l-325 -311h-398l-157 311h260l133 -105l190 105h297zM782 752q115 0 180 46t64 117q0 45 -36 81t-136 36h-170l-76 -280h174zM872 1434q375 0 529 -154q113 -113 113 -294t-99 -313q-98 -132 -301 -196l199 -477h-516l-160 410h-119l-110 -410h-480l385 1434
h559z" />
    <glyph glyph-name="rcaron" unicode="&#x159;" horiz-adv-x="903" 
d="M1112 1540l-367 -352h-335l-179 352h240l152 -115l213 115h276zM860 641q-162 0 -256 -88t-143 -274l-74 -279h-465l299 1118h465l-59 -225q174 252 413 242l-131 -494h-49z" />
    <glyph glyph-name="Sacute" unicode="&#x15a;" horiz-adv-x="1337" 
d="M717 1536l289 342l469 -106l-392 -236h-366zM633 -29q-420 0 -707 260l275 328q242 -203 483 -203q104 0 104 64q0 34 -38 56t-224 90q-184 68 -274 156q-90 87 -90 239q0 213 179 357t466 144q387 0 639 -215l-275 -327q-197 160 -413 159q-104 0 -105 -57q0 -31 34 -48
q33 -17 215 -84t281 -159t99 -246q0 -223 -174 -369t-475 -145z" />
    <glyph glyph-name="sacute" unicode="&#x15b;" horiz-adv-x="1069" 
d="M524 1204l303 393l447 -116l-414 -277h-336zM496 -27q-352 0 -598 187l204 266q78 -60 194 -106t195 -46t78 39q0 27 -33 47q-34 20 -164 68t-206 120q-76 73 -76 195q0 174 140 288t384 114q328 0 529 -154l-205 -266q-70 47 -166 83t-172 36t-76 -37q0 -23 29 -39
t159 -62t211 -120t81 -222t-124 -270q-124 -121 -384 -121z" />
    <glyph glyph-name="Scedilla" unicode="&#x15e;" horiz-adv-x="1337" 
d="M684 356q104 0 104 64q0 34 -38 56t-224 90q-184 68 -274 156q-90 87 -90 239q0 213 179 357t466 144q387 0 639 -215l-275 -327q-197 160 -413 159q-104 0 -105 -57q0 -31 34 -48q33 -17 215 -84t281 -159t99 -246q0 -223 -174 -368t-475 -146h-12l-185 -325l-336 153
l228 213q-229 63 -402 219l275 328q242 -203 483 -203z" />
    <glyph glyph-name="scedilla" unicode="&#x15f;" horiz-adv-x="1069" 
d="M491 274q79 0 78 39q0 27 -33 47q-34 20 -164 68t-206 120q-76 73 -76 195q0 174 140 288t384 114q328 0 529 -154l-205 -266q-70 47 -166 83t-172 36t-76 -37q0 -23 29 -39t159 -62t211 -120t81 -222t-122 -267q-122 -120 -374 -124l-184 -327l-336 153l223 211
q-182 47 -313 150l204 266q78 -60 194 -106t195 -46z" />
    <glyph glyph-name="Scaron" unicode="&#x160;" horiz-adv-x="1337" 
d="M1432 1847l-326 -311h-397l-158 311h260l133 -104l191 104h297zM633 -29q-420 0 -707 260l275 328q242 -203 483 -203q104 0 104 64q0 34 -38 56t-224 90q-184 68 -274 156q-90 87 -90 239q0 213 179 357t466 144q387 0 639 -215l-275 -327q-197 160 -413 159
q-104 0 -105 -57q0 -31 34 -48q33 -17 215 -84t281 -159t99 -246q0 -223 -174 -369t-475 -145z" />
    <glyph glyph-name="scaron" unicode="&#x161;" horiz-adv-x="1069" 
d="M1188 1556l-367 -352h-336l-178 352h240l151 -114l213 114h277zM496 -27q-352 0 -598 187l204 266q78 -60 194 -106t195 -46t78 39q0 27 -33 47q-34 20 -164 68t-206 120q-76 73 -76 195q0 174 140 288t384 114q328 0 529 -154l-205 -266q-70 47 -166 83t-172 36t-76 -37
q0 -23 29 -39t159 -62t211 -120t81 -222t-124 -270q-124 -121 -384 -121z" />
    <glyph glyph-name="Tcommaaccent" unicode="&#x162;" horiz-adv-x="1372" 
d="M184 -657l21 137q94 8 136 37t54 84h-147l86 319h379l-74 -278q-43 -162 -157 -230t-298 -69zM295 0l276 1028h-421l108 406h1323l-108 -406h-422l-277 -1028h-479z" />
    <glyph glyph-name="tcommaaccent" unicode="&#x163;" horiz-adv-x="909" 
d="M23 -674l20 137q94 8 136 37t54 84h-147l86 320h379l-74 -279q-43 -161 -157 -229t-297 -70zM481 -25q-389 0 -389 306q0 66 23 155l86 324h-131l96 358h131l76 281h465l-76 -281h258l-96 -358h-258l-64 -240q-14 -51 -14 -86q0 -72 94 -72q47 0 135 25l-100 -379
q-127 -33 -236 -33z" />
    <glyph glyph-name="Tcaron" unicode="&#x164;" horiz-adv-x="1372" 
d="M1473 1827l-326 -311h-397l-158 311h260l133 -105l191 105h297zM295 0l276 1028h-421l108 406h1323l-108 -406h-422l-277 -1028h-479z" />
    <glyph glyph-name="tcaron" unicode="&#x165;" horiz-adv-x="909" 
d="M854 1192l121 455h334l-2 -9l-267 -446h-186zM481 -25q-389 0 -389 306q0 66 23 155l86 324h-131l96 358h131l76 281h465l-76 -281h258l-96 -358h-258l-64 -240q-14 -51 -14 -86q0 -72 94 -72q47 0 135 25l-100 -379q-127 -33 -236 -33z" />
    <glyph glyph-name="Umacron" unicode="&#x16a;" horiz-adv-x="1548" 
d="M614 1536l72 260h852l-72 -260h-852zM698 -29q-300 0 -460 135t-160 381q0 115 31 232l192 715h487l-200 -746q-16 -66 -17 -113q0 -180 197 -180q94 1 154 61t102 208l207 770h487l-227 -844q-76 -281 -225 -430q-189 -189 -568 -189z" />
    <glyph glyph-name="umacron" unicode="&#x16b;" horiz-adv-x="1312" 
d="M432 1198l68 256h798l-67 -256h-799zM342 -27q-152 1 -236 93t-83 249q0 90 26 189l164 614h465l-150 -557q-12 -43 -12 -84q0 -98 98 -98q68 0 109 44t65 138l150 557h465l-299 -1118h-465l37 139q-60 -72 -148 -119t-186 -47z" />
    <glyph glyph-name="Ubreve" unicode="&#x16c;" horiz-adv-x="1548" 
d="M1032 1495q-180 0 -268 79t-72 236h248q12 -86 136 -86t188 86h262q-134 -315 -494 -315zM698 -29q-300 0 -460 135t-160 381q0 115 31 232l192 715h487l-200 -746q-16 -66 -17 -113q0 -180 197 -180q94 1 154 61t102 208l207 770h487l-227 -844q-76 -281 -225 -430
q-189 -189 -568 -189z" />
    <glyph glyph-name="ubreve" unicode="&#x16d;" horiz-adv-x="1312" 
d="M859 1186q-173 0 -276 89t-104 265h250q12 -115 149 -115t199 115h250q-43 -168 -169 -261t-299 -93zM342 -27q-152 1 -236 93t-83 249q0 90 26 189l164 614h465l-150 -557q-12 -43 -12 -84q0 -98 98 -98q68 0 109 44t65 138l150 557h465l-299 -1118h-465l37 139
q-60 -72 -148 -119t-186 -47z" />
    <glyph glyph-name="Uring" unicode="&#x16e;" horiz-adv-x="1548" 
d="M922 1754q0 -60 40 -96t117 -36q76 0 128 54q53 54 53 114t-41 97q-41 36 -117 36t-128 -54q-52 -55 -52 -115zM1064 1485q-138 -1 -220 71t-82 191t108 216q109 97 247 97t220 -72t82 -190q0 -119 -108 -216q-109 -97 -247 -97zM698 -29q-300 0 -460 135t-160 381
q0 115 31 232l192 715h487l-200 -746q-16 -66 -17 -113q0 -180 197 -180q94 1 154 61t102 208l207 770h487l-227 -844q-76 -281 -225 -430q-189 -189 -568 -189z" />
    <glyph glyph-name="uring" unicode="&#x16f;" horiz-adv-x="1312" 
d="M900 1612q-60 0 -104 -51q-46 -51 -46 -115t34 -98q34 -35 92 -35q60 0 106 51q46 50 46 114t-34 99t-94 35zM867 1182q-127 0 -201 70t-74 188t95 210t223 93q128 0 202 -70q74 -71 74 -189t-96 -210t-223 -92zM342 -27q-152 1 -236 93t-83 249q0 90 26 189l164 614h465
l-150 -557q-12 -43 -12 -84q0 -98 98 -98q68 0 109 44t65 138l150 557h465l-299 -1118h-465l37 139q-60 -72 -148 -119t-186 -47z" />
    <glyph glyph-name="Uhungarumlaut" unicode="&#x170;" horiz-adv-x="1548" 
d="M1020 1516l121 153l-232 -153h-311l266 342l355 -91l69 91l416 -107l-371 -235h-313zM698 -29q-300 0 -460 135t-160 381q0 115 31 232l192 715h487l-200 -746q-16 -66 -17 -113q0 -180 197 -180q94 1 154 61t102 208l207 770h487l-227 -844q-76 -281 -225 -430
q-189 -189 -568 -189z" />
    <glyph glyph-name="uhungarumlaut" unicode="&#x171;" horiz-adv-x="1312" 
d="M326 1188l282 393l357 -102l67 102l406 -117l-363 -276h-305l139 209l-278 -209h-305zM342 -27q-152 1 -236 93t-83 249q0 90 26 189l164 614h465l-150 -557q-12 -43 -12 -84q0 -98 98 -98q68 0 109 44t65 138l150 557h465l-299 -1118h-465l37 139q-60 -72 -148 -119
t-186 -47z" />
    <glyph glyph-name="Uogonek" unicode="&#x172;" horiz-adv-x="1548" 
d="M346 -197q0 88 133 191q-197 45 -299 171t-102 322q0 115 31 232l192 715h487l-200 -746q-16 -66 -17 -113q0 -180 197 -180q94 1 154 61t102 208l207 770h487l-227 -844q-76 -281 -225 -430q-172 -172 -516 -187q-33 -39 -33 -67t32 -37q32 -10 105 -8l-51 -195
q-82 -12 -160 -12q-297 -1 -297 149z" />
    <glyph glyph-name="uogonek" unicode="&#x173;" horiz-adv-x="1312" 
d="M592 -197q0 92 143 197h-96l37 139q-60 -72 -148 -119t-186 -47q-152 1 -236 93t-83 249q0 90 26 189l164 614h465l-150 -557q-12 -43 -12 -84q0 -98 98 -98q68 0 109 44t65 138l150 557h465l-299 -1118h-82q-59 -53 -59 -87q-1 -34 31 -44t106 -8l-51 -195
q-82 -12 -160 -12q-297 -1 -297 149z" />
    <glyph glyph-name="Wcircumflex" unicode="&#x174;" horiz-adv-x="2244" 
d="M911 1516l326 311h397l158 -311h-260l-133 104l-191 -104h-297zM297 -10l-82 1444h492l18 -689l416 693h413l48 -693l387 689h503l-856 -1444h-417l-62 712l-442 -712h-418z" />
    <glyph glyph-name="wcircumflex" unicode="&#x175;" horiz-adv-x="1763" 
d="M606 1188l367 352h336l178 -352h-240l-151 115l-213 -115h-277zM199 -8l-37 1126h434l-6 -450l258 454h371l14 -458l240 454h448l-643 -1126h-383l-21 479l-282 -479h-393z" />
    <glyph glyph-name="Ycircumflex" unicode="&#x176;" horiz-adv-x="1441" 
d="M487 1516l326 311h397l158 -311h-260l-133 104l-191 -104h-297zM307 0l146 547l-281 887h504l117 -480l372 480h568l-815 -947l-132 -487h-479z" />
    <glyph glyph-name="ycircumflex" unicode="&#x177;" horiz-adv-x="1335" 
d="M381 1188l367 352h335l179 -352h-240l-152 115l-213 -115h-276zM206 -334q-194 0 -327 84l180 342q94 -66 187 -65q37 0 73 12l-153 1079h471l39 -588l334 588h483l-690 -1079q-131 -205 -267 -289t-330 -84z" />
    <glyph glyph-name="Ydieresis" unicode="&#x178;" horiz-adv-x="1441" 
d="M532 1516l84 307h377l-84 -307h-377zM991 1516l84 307h377l-84 -307h-377zM307 0l146 547l-281 887h504l117 -480l372 480h568l-815 -947l-132 -487h-479z" />
    <glyph glyph-name="Zacute" unicode="&#x179;" horiz-adv-x="1378" 
d="M735 1516l289 342l469 -107l-391 -235h-367zM-109 0l91 336l817 704h-604l106 394h1272l-90 -336l-819 -705h628l-104 -393h-1297z" />
    <glyph glyph-name="zacute" unicode="&#x17a;" horiz-adv-x="1144" 
d="M557 1188l303 393l447 -117l-414 -276h-336zM-106 0l77 291l584 463h-440l96 364h1059l-78 -291l-584 -462h461l-98 -365h-1077z" />
    <glyph glyph-name="Zdotaccent" unicode="&#x17b;" horiz-adv-x="1378" 
d="M727 1516l84 307h389l-84 -307h-389zM-109 0l91 336l817 704h-604l106 394h1272l-90 -336l-819 -705h628l-104 -393h-1297z" />
    <glyph glyph-name="zdotaccent" unicode="&#x17c;" horiz-adv-x="1144" 
d="M541 1188l84 307h385l-84 -307h-385zM-106 0l77 291l584 463h-440l96 364h1059l-78 -291l-584 -462h461l-98 -365h-1077z" />
    <glyph glyph-name="Zcaron" unicode="&#x17d;" horiz-adv-x="1378" 
d="M1450 1827l-326 -311h-397l-158 311h260l134 -105l190 105h297zM-109 0l91 336l817 704h-604l106 394h1272l-90 -336l-819 -705h628l-104 -393h-1297z" />
    <glyph glyph-name="zcaron" unicode="&#x17e;" horiz-adv-x="1144" 
d="M1221 1540l-367 -352h-336l-178 352h240l151 -115l213 115h277zM-106 0l77 291l584 463h-440l96 364h1059l-78 -291l-584 -462h461l-98 -365h-1077z" />
    <glyph glyph-name="florin" unicode="&#x192;" horiz-adv-x="1177" 
d="M102 -31q-113 0 -221 25l62 317q59 -16 115 -16t97 33q40 33 83 127l86 190h-111l63 330h195l64 139q84 190 220 270t363 80q137 0 242 -24l-62 -318q-72 16 -129 17q-150 0 -202 -129l-17 -35h236l-64 -330h-319l-125 -283q-98 -217 -230 -305t-346 -88z" />
    <glyph glyph-name="Aringacute" unicode="&#x1fa;" horiz-adv-x="1605" 
d="M676 532h262l-39 349zM887 1496q1 -60 41 -96t116 -36t128 54t52 114t-40 97q-41 36 -117 36t-128 -54q-52 -55 -52 -115zM963 1845l309 342l440 -116l-418 -226h-331zM727 1475q0 133 109 230t247 97t220 -72q81 -72 81 -183q0 -112 -88 -204l203 -1343h-510l-24 193
h-502l-125 -193h-522l938 1366q-27 53 -27 109z" />
    <glyph glyph-name="aringacute" unicode="&#x1fb;" horiz-adv-x="1239" 
d="M884 1645q-60 1 -105 -51q-46 -52 -46 -116t34 -98q33 -34 93 -34t106 51t46 115t-34 98q-34 35 -94 35zM851 1214q-128 0 -202 70t-74 188q-1 118 95 211t224 93t202 -70t74 -188t-96 -212q-95 -92 -223 -92zM438 328q0 -88 87 -88q44 0 97 51q52 51 72 129l13 47
q-47 12 -86 12q-87 0 -135 -40t-48 -111zM756 700q0 109 -174 109t-303 -49l-62 315q195 59 463 59t404 -96t137 -268q0 -76 -21 -156l-164 -614h-465l31 113q-84 -70 -154 -104t-159 -34q-131 0 -215 82t-84 224q0 178 133 283t366 106q129 0 254 -37q13 31 13 67z
M772 1841l313 352l431 -112l-408 -240h-336z" />
    <glyph glyph-name="AEacute" unicode="&#x1fc;" horiz-adv-x="2254" 
d="M1270 1516l289 342l469 -107l-392 -235h-366zM729 532h270l144 537h-17zM-186 0l1097 1434h1502l-107 -394h-711l-39 -145h660l-92 -346h-660l-43 -156h721l-104 -393h-1182l51 193h-430l-141 -193h-522z" />
    <glyph glyph-name="aeacute" unicode="&#x1fd;" horiz-adv-x="1890" 
d="M907 1188l303 393l447 -117l-414 -276h-336zM621 479q-87 0 -135 -40t-48 -96t27 -81t72 -24q94 0 188 81q-23 72 -23 148q-43 12 -81 12zM1352 823q-58 0 -114 -41t-87 -127h315q28 79 -24 133q-33 34 -90 35zM1122 451q9 -150 183 -150q91 0 211 90l215 -235
q-205 -182 -485 -182t-435 188q-197 -186 -461 -187q-162 0 -261 82t-99 224q0 178 133 283t366 106q129 0 254 -37q13 31 13 67q0 109 -174 109t-303 -49l-62 315q195 59 451 59t370 -102q170 113 365 113q347 0 445 -310q26 -83 26 -183t-33 -201h-719z" />
    <glyph glyph-name="Oslashacute" unicode="&#x1fe;" horiz-adv-x="1628" 
d="M823 383q147 0 244 121q96 121 96 268q0 41 -8 72l-477 -428q65 -33 145 -33zM549 662q0 -43 10 -91l488 437q-70 43 -158 43q-147 0 -243 -121t-97 -268zM854 1536l289 342l469 -106l-391 -236h-367zM78 621q0 341 245 591t599 250q270 0 464 -145l142 127h301
l-305 -273q111 -162 110 -358q0 -340 -244 -591t-599 -251q-266 0 -453 135l-131 -116h-301l289 260q-117 162 -117 371z" />
    <glyph glyph-name="oslashacute" unicode="&#x1ff;" horiz-adv-x="1302" 
d="M623 334q93 0 159 82t66 192v10l-305 -268q37 -16 80 -16zM455 512q0 -25 2 -35l317 281q-41 29 -94 28q-94 0 -160 -81q-65 -82 -65 -193zM627 1204l303 393l446 -116l-413 -277h-336zM37 506q1 254 193 446t477 193q213 0 362 -113l109 96h272l-260 -229
q76 -127 76 -285q0 -254 -193 -446t-477 -193q-205 0 -348 99l-96 -84h-273l242 213q-84 131 -84 303z" />
    <glyph glyph-name="Scommaaccent" unicode="&#x218;" horiz-adv-x="1337" 
d="M170 -678l20 137q94 8 137 37q42 29 54 84h-148l86 320h379l-73 -279q-43 -161 -157 -229t-298 -70zM633 -29q-420 0 -707 260l275 328q242 -203 483 -203q104 0 104 64q0 34 -38 56t-224 90q-184 68 -274 156q-90 87 -90 239q0 213 179 357t466 144q387 0 639 -215
l-275 -327q-197 160 -413 159q-104 0 -105 -57q0 -31 34 -48q33 -17 215 -84t281 -159t99 -246q0 -223 -174 -369t-475 -145z" />
    <glyph glyph-name="scommaaccent" unicode="&#x219;" horiz-adv-x="1069" 
d="M37 -674l20 137q94 8 137 37q42 29 54 84h-148l86 320h379l-73 -279q-43 -161 -157 -229t-298 -70zM496 -27q-352 0 -598 187l204 266q78 -60 194 -106t195 -46t78 39q0 27 -33 47q-34 20 -164 68t-206 120q-76 73 -76 195q0 174 140 288t384 114q328 0 529 -154
l-205 -266q-70 47 -166 83t-172 36t-76 -37q0 -23 29 -39t159 -62t211 -120t81 -222t-124 -270q-124 -121 -384 -121z" />
    <glyph glyph-name="schwa" unicode="&#x259;" horiz-adv-x="1220" 
d="M539 295q57 0 113 41t87 127h-315q-8 -23 -8 -61t33 -72q33 -35 90 -35zM16 465q0 100 33 203h719q-4 68 -48 108t-135 41q-91 0 -210 -90l-215 236q205 182 468 182t411 -135t149 -357q0 -270 -188 -475t-492 -205q-134 0 -232 42t-153 114t-81 154t-26 182z" />
    <glyph glyph-name="circumflex" unicode="&#x2c6;" 
d="M240 1188l366 352h336l178 -352h-239l-152 115l-213 -115h-276z" />
    <glyph glyph-name="caron" unicode="&#x2c7;" 
d="M1214 1540l-366 -352h-336l-178 352h239l152 -115l213 115h276z" />
    <glyph glyph-name="breve" unicode="&#x2d8;" 
d="M730 1186q-173 0 -276 89t-104 265h250q12 -115 149 -115t199 115h250q-43 -168 -169 -261t-299 -93z" />
    <glyph glyph-name="dotaccent" unicode="&#x2d9;" 
d="M485 1188l84 307h385l-84 -307h-385z" />
    <glyph glyph-name="ring" unicode="&#x2da;" 
d="M742 1329q60 0 105 51q46 50 46 114t-34 99q-33 35 -93 35t-106 -51t-46 -115t34 -98q34 -35 94 -35zM775 1759q128 1 202 -69t74 -189q1 -119 -95 -211t-224 -92t-202 70t-74 188t96 211q95 92 223 92z" />
    <glyph glyph-name="ogonek" unicode="&#x2db;" 
d="M113 -197q0 96 172 217h280q-82 -74 -82 -108t32 -43q32 -10 106 -8l-52 -195q-82 -12 -159 -12q-297 -1 -297 149z" />
    <glyph glyph-name="tilde" unicode="&#x2dc;" 
d="M895 1188q-67 0 -181 40t-144 40t-50 -20q-22 -20 -51 -70l-209 57q61 174 130 247t171 72q67 0 181 -40t144 -40t52 20q22 19 49 71l209 -58q-61 -175 -130 -247t-171 -72z" />
    <glyph glyph-name="hungarumlaut" unicode="&#x2dd;" 
d="M203 1188l282 393l357 -102l67 102l406 -117l-363 -276h-305l139 209l-278 -209h-305z" />
    <glyph glyph-name="commaaccent" unicode="&#x326;" 
d="M10 -657l21 137q94 8 136 37t54 84h-147l86 319h379l-74 -278q-43 -162 -157 -230t-298 -69z" />
    <glyph glyph-name="Wgrave" unicode="&#x1e80;" horiz-adv-x="2244" 
d="M1411 1858l105 -342h-318l-264 235zM297 -10l-82 1444h492l18 -689l416 693h413l48 -693l387 689h503l-856 -1444h-417l-62 712l-442 -712h-418z" />
    <glyph glyph-name="wgrave" unicode="&#x1e81;" horiz-adv-x="1763" 
d="M915 1188l-262 276l459 117l90 -393h-287zM199 -8l-37 1126h434l-6 -450l258 454h371l14 -458l240 454h448l-643 -1126h-383l-21 479l-282 -479h-393z" />
    <glyph glyph-name="Wacute" unicode="&#x1e82;" horiz-adv-x="2244" 
d="M1190 1516l289 342l469 -107l-392 -235h-366zM297 -10l-82 1444h492l18 -689l416 693h413l48 -693l387 689h503l-856 -1444h-417l-62 712l-442 -712h-418z" />
    <glyph glyph-name="wacute" unicode="&#x1e83;" horiz-adv-x="1763" 
d="M885 1188l303 393l446 -117l-413 -276h-336zM199 -8l-37 1126h434l-6 -450l258 454h371l14 -458l240 454h448l-643 -1126h-383l-21 479l-282 -479h-393z" />
    <glyph glyph-name="Wdieresis" unicode="&#x1e84;" horiz-adv-x="2244" 
d="M956 1516l84 307h377l-84 -307h-377zM1415 1516l84 307h377l-84 -307h-377zM297 -10l-82 1444h492l18 -689l416 693h413l48 -693l387 689h503l-856 -1444h-417l-62 712l-442 -712h-418z" />
    <glyph glyph-name="wdieresis" unicode="&#x1e85;" horiz-adv-x="1763" 
d="M645 1188l84 307h377l-84 -307h-377zM1104 1188l84 307h377l-84 -307h-377zM199 -8l-37 1126h434l-6 -450l258 454h371l14 -458l240 454h448l-643 -1126h-383l-21 479l-282 -479h-393z" />
    <glyph glyph-name="Ygrave" unicode="&#x1ef2;" horiz-adv-x="1441" 
d="M985 1858l105 -342h-318l-264 235zM307 0l146 547l-281 887h504l117 -480l372 480h568l-815 -947l-132 -487h-479z" />
    <glyph glyph-name="ygrave" unicode="&#x1ef3;" horiz-adv-x="1335" 
d="M692 1188l-262 276l459 117l90 -393h-287zM206 -334q-194 0 -327 84l180 342q94 -66 187 -65q37 0 73 12l-153 1079h471l39 -588l334 588h483l-690 -1079q-131 -205 -267 -289t-330 -84z" />
    <glyph glyph-name="enspace" unicode="&#x2002;" 
 />
    <glyph glyph-name="emspace" unicode="&#x2003;" horiz-adv-x="2048" 
 />
    <glyph glyph-name="threeperemspace" unicode="&#x2004;" horiz-adv-x="681" 
 />
    <glyph glyph-name="fourperemspace" unicode="&#x2005;" horiz-adv-x="512" 
 />
    <glyph glyph-name="thinspace" unicode="&#x2009;" horiz-adv-x="272" 
 />
    <glyph glyph-name="hairspace" unicode="&#x200a;" horiz-adv-x="153" 
 />
    <glyph glyph-name="endash" unicode="&#x2013;" horiz-adv-x="1067" 
d="M47 459l100 372h918l-100 -372h-918z" />
    <glyph glyph-name="emdash" unicode="&#x2014;" horiz-adv-x="1824" 
d="M47 459l100 372h1676l-101 -372h-1675z" />
    <glyph glyph-name="quoteleft" unicode="&#x2018;" horiz-adv-x="583" 
d="M68 625l110 413q53 201 176 299t385 111l13 -170q-225 -27 -269 -182h187l-127 -471h-475z" />
    <glyph glyph-name="quoteright" unicode="&#x2019;" horiz-adv-x="583" 
d="M94 610l-12 170q225 27 268 183h-186l127 471h475l-111 -414q-55 -202 -178 -300t-383 -110z" />
    <glyph glyph-name="quotesinglbase" unicode="&#x201a;" horiz-adv-x="583" 
d="M-166 -352l-12 170q225 27 268 182h-186l127 471h475l-111 -414q-55 -201 -178 -299t-383 -110z" />
    <glyph glyph-name="quotedblleft" unicode="&#x201c;" horiz-adv-x="1142" 
d="M70 623l110 413q53 203 172 300t379 110l12 -170q-215 -27 -258 -182h177l-127 -471h-465zM639 623l111 413q53 203 172 300t378 110l13 -170q-215 -27 -258 -182h176l-127 -471h-465z" />
    <glyph glyph-name="quotedblright" unicode="&#x201d;" horiz-adv-x="1142" 
d="M94 610l-12 170q215 27 258 183h-176l127 471h465l-111 -414q-55 -202 -173 -300t-378 -110zM664 610l-13 170q215 27 258 183h-176l127 471h465l-111 -414q-54 -202 -172 -300t-378 -110z" />
    <glyph glyph-name="quotedblbase" unicode="&#x201e;" horiz-adv-x="1142" 
d="M-166 -352l-12 170q215 27 258 182h-176l127 471h465l-111 -414q-55 -203 -173 -300t-378 -109zM403 -352l-12 170q215 27 258 182h-176l127 471h465l-111 -414q-55 -203 -173 -300t-378 -109z" />
    <glyph glyph-name="dagger" unicode="&#x2020;" horiz-adv-x="843" 
d="M268 426l170 553l-274 -31l67 252l256 -31l33 265h271l-107 -265l272 31l-67 -252l-258 31l-129 -553h-234z" />
    <glyph glyph-name="daggerdbl" unicode="&#x2021;" horiz-adv-x="884" 
d="M156 0l106 264l-270 -31l67 252l260 -30l37 262l107 262l-281 -31l68 252l258 -31l33 265h270l-106 -265l270 31l-68 -252l-260 31l-37 -262l-106 -262l280 30l-67 -252l-258 31l-33 -264h-270z" />
    <glyph glyph-name="bullet" unicode="&#x2022;" horiz-adv-x="1028" 
d="M504 328q-143 0 -228 87q-84 87 -83 226q0 180 118 327q119 146 301 146q144 0 228 -87t84 -226q0 -181 -119 -327t-301 -146z" />
    <glyph glyph-name="ellipsis" unicode="&#x2026;" horiz-adv-x="1730" 
d="M-96 0l125 467h471l-125 -467h-471zM479 0l125 467h471l-125 -467h-471zM1055 0l125 467h471l-125 -467h-471z" />
    <glyph glyph-name="perthousand" unicode="&#x2030;" horiz-adv-x="2885" 
d="M1382 356q0 -130 112 -131q56 1 98 61t42 124q0 130 -112 131q-56 -1 -98 -61t-42 -124zM2542 410q0 130 -112 131q-56 -1 -98 -61t-42 -124q0 -130 112 -131q56 1 98 61t42 124zM680 1078q0 132 -112 130q-56 0 -98 -60t-42 -124q0 -130 112 -131q56 0 98 60t42 125z
M1483 -23q-183 1 -279 99t-96 266t122 307t304 139t278 -98t96 -266t-121 -308q-122 -140 -304 -139zM2441 788q183 0 279 -98t96 -266t-122 -308t-304 -139t-278 99t-97 266q0 168 122 307t304 139zM154 0l1445 1434h310l-1446 -1434h-309zM528 645q-182 0 -278 98t-96 266
t121 308q123 139 305 139t278 -98t96 -266t-121 -308q-123 -139 -305 -139z" />
    <glyph glyph-name="guilsinglleft" unicode="&#x2039;" horiz-adv-x="698" 
d="M231 41l-211 438l50 180l407 402l250 -227l-330 -320l162 -328z" />
    <glyph glyph-name="guilsinglright" unicode="&#x203a;" horiz-adv-x="698" 
d="M215 41l-250 227l330 320l-162 327l328 146l211 -438l-49 -181z" />
    <glyph glyph-name="fraction" unicode="&#x2044;" horiz-adv-x="1171" 
d="M-291 -201l1421 1753h373l-1421 -1753h-373z" />
    <glyph glyph-name="Euro" unicode="&#x20ac;" horiz-adv-x="1300" 
d="M768 -31q-236 0 -396 136t-177 364h-164l57 217h123q6 29 16 70h-121l58 217h119q90 225 269 358t437 133q330 0 490 -268l-314 -252q-82 125 -213 125t-213 -102h297l-55 -209h-319q-12 -49 -17 -74h318l-56 -209h-272q29 -111 153 -111t232 101l244 -301
q-207 -195 -496 -195z" />
    <glyph glyph-name="published" unicode="&#x2117;" horiz-adv-x="1699" 
d="M854 737h70q51 0 82 23t30 63v4q0 86 -110 86h-72v-176zM590 336v788h354q162 0 257 -72t95 -210v-4q0 -137 -97 -213t-259 -76h-86v-213h-264zM244 713q0 -274 188 -468t466 -194t467 196t189 470v4q0 274 -188 468q-188 193 -466 193t-467 -196t-189 -469v-4zM897 -31
q-309 0 -524 219t-215 525v4q0 305 217 526t526 221t524 -219t215 -524v-4q0 -305 -217 -527t-526 -221z" />
    <glyph glyph-name="servicemark" unicode="&#x2120;" horiz-adv-x="1433" 
d="M434 791q-186 0 -311 114l121 144q106 -88 213 -88q45 0 45 26q0 15 -18 25t-98 41q-81 31 -120 69t-39 117q0 80 78 143q79 64 227 64t259 -94l-121 -144q-88 70 -183 70q-45 0 -45 -25q0 -24 101 -55q88 -35 132 -75t44 -107q0 -98 -77 -162t-208 -63zM735 803l168 631
h209l76 -222l194 222h232l-168 -631h-211l84 313l-207 -225h-2l-84 225l-84 -313h-207z" />
    <glyph glyph-name="trademark" unicode="&#x2122;" horiz-adv-x="1413" 
d="M252 803l121 450h-187l47 181h582l-47 -181h-186l-121 -450h-209zM715 803l168 631h209l75 -222l195 222h231l-168 -631h-211l84 313l-206 -225h-2l-84 225l-84 -313h-207z" />
    <glyph glyph-name="minus" unicode="&#x2212;" horiz-adv-x="1310" 
d="M1204 520h-1120l109 402h1120z" />
    <glyph glyph-name="Q.alt" horiz-adv-x="1628" 
d="M819 377h25l-131 176l307 201l102 -152q31 78 31 160q0 123 -70 201q-69 77 -205 77t-230 -117q-93 -119 -93 -255q-1 -136 69 -214t195 -77zM791 -29q-313 -1 -513 185t-200 465q0 341 245 591t599 250q313 0 513 -185t199 -464q0 -317 -227 -565l104 -142l-307 -200
l-90 133q-158 -68 -323 -68z" />
    <glyph glyph-name="a.alt" horiz-adv-x="1374" 
d="M496 526q0 -174 162 -174q79 0 143 76q63 76 63 162t-42 130t-120 44t-142 -76t-64 -162zM399 -27q-156 0 -261 118t-105 319q0 305 171 520t417 215q217 0 327 -170l39 143h465l-299 -1118h-465l31 115q-61 -63 -147 -103t-173 -39z" />
    <glyph glyph-name="aacute.alt" horiz-adv-x="1374" 
d="M692 1204l303 393l447 -116l-414 -277h-336zM496 526q0 -174 162 -174q79 0 143 76q63 76 63 162t-42 130t-120 44t-142 -76t-64 -162zM399 -27q-156 0 -261 118t-105 319q0 305 171 520t417 215q217 0 327 -170l39 143h465l-299 -1118h-465l31 115q-61 -63 -147 -103
t-173 -39z" />
    <glyph glyph-name="abreve.alt" horiz-adv-x="1374" 
d="M900 1202q-173 0 -276 89t-104 265h250q12 -114 149 -114t199 114h250q-43 -168 -169 -261t-299 -93zM496 526q0 -174 162 -174q79 0 143 76q63 76 63 162t-42 130t-120 44t-142 -76t-64 -162zM399 -27q-156 0 -261 118t-105 319q0 305 171 520t417 215q217 0 327 -170
l39 143h465l-299 -1118h-465l31 115q-61 -63 -147 -103t-173 -39z" />
    <glyph glyph-name="acircumflex.alt" horiz-adv-x="1374" 
d="M412 1204l366 352h336l178 -352h-239l-152 115l-213 -115h-276zM496 526q0 -174 162 -174q79 0 143 76q63 76 63 162t-42 130t-120 44t-142 -76t-64 -162zM399 -27q-156 0 -261 118t-105 319q0 305 171 520t417 215q217 0 327 -170l39 143h465l-299 -1118h-465l31 115
q-61 -63 -147 -103t-173 -39z" />
    <glyph glyph-name="adieresis.alt" horiz-adv-x="1374" 
d="M453 1204l84 307h376l-84 -307h-376zM911 1204l84 307h377l-84 -307h-377zM496 526q0 -174 162 -174q79 0 143 76q63 76 63 162t-42 130t-120 44t-142 -76t-64 -162zM399 -27q-156 0 -261 118t-105 319q0 305 171 520t417 215q217 0 327 -170l39 143h465l-299 -1118h-465
l31 115q-61 -63 -147 -103t-173 -39z" />
    <glyph glyph-name="agrave.alt" horiz-adv-x="1374" 
d="M723 1204l-262 277l459 116l90 -393h-287zM496 526q0 -174 162 -174q79 0 143 76q63 76 63 162t-42 130t-120 44t-142 -76t-64 -162zM399 -27q-156 0 -261 118t-105 319q0 305 171 520t417 215q217 0 327 -170l39 143h465l-299 -1118h-465l31 115q-61 -63 -147 -103
t-173 -39z" />
    <glyph glyph-name="amacron.alt" horiz-adv-x="1374" 
d="M473 1214l68 256h798l-67 -256h-799zM496 526q0 -174 162 -174q79 0 143 76q63 76 63 162t-42 130t-120 44t-142 -76t-64 -162zM399 -27q-156 0 -261 118t-105 319q0 305 171 520t417 215q217 0 327 -170l39 143h465l-299 -1118h-465l31 115q-61 -63 -147 -103t-173 -39z
" />
    <glyph glyph-name="aogonek.alt" horiz-adv-x="1374" 
d="M496 526q0 -174 162 -174q79 0 143 76q63 76 63 162t-42 130t-120 44t-142 -76t-64 -162zM641 -197q0 92 143 197h-96l31 115q-61 -63 -147 -103t-173 -39q-156 0 -261 118t-105 319q0 305 171 520t417 215q217 0 327 -170l39 143h465l-299 -1118h-82q-59 -53 -59 -87
t32 -44t105 -8l-51 -195q-84 -12 -160 -12q-297 -1 -297 149z" />
    <glyph glyph-name="aring.alt" horiz-adv-x="1374" 
d="M958 1645q-60 1 -105 -51q-46 -52 -46 -116t34 -98q33 -34 93 -34t106 51t45 115q0 64 -33 98q-34 35 -94 35zM1243 1518q0 -118 -95 -212q-95 -92 -223 -92t-202 70t-74 188t95 211q96 93 224 93t202 -70t73 -188zM496 526q0 -174 162 -174q79 0 143 76q63 76 63 162
t-42 130t-120 44t-142 -76t-64 -162zM399 -27q-156 0 -261 118t-105 319q0 305 171 520t417 215q217 0 327 -170l39 143h465l-299 -1118h-465l31 115q-61 -63 -147 -103t-173 -39z" />
    <glyph glyph-name="aring.alt2" horiz-adv-x="1239" 
d="M844 1432q-60 0 -106 -52t-46 -114q0 -64 34 -98t94 -35q60 0 105 51q46 50 46 114t-34 99q-33 35 -93 35zM438 328q0 -88 87 -88q44 0 97 51q52 51 72 129l13 47q-47 12 -86 12q-87 0 -135 -40t-48 -111zM756 700q0 109 -174 109t-303 -49l-62 315q150 45 352 55
q-35 53 -34 125q0 125 96 216t223 91t201 -69q74 -70 73 -176q0 -152 -122 -236q215 -90 215 -311q0 -76 -21 -156l-164 -614h-465l31 113q-84 -70 -154 -104t-159 -34q-131 0 -215 82t-84 224q0 178 133 283t366 106q129 0 254 -37q13 31 13 67z" />
    <glyph glyph-name="aringacute.alt" horiz-adv-x="1374" 
d="M958 1645q-60 1 -105 -51q-46 -52 -46 -116t34 -98q33 -34 93 -34t106 51t45 115q0 64 -33 98q-34 35 -94 35zM1243 1518q0 -118 -95 -212q-95 -92 -223 -92t-202 70t-74 188t95 211q96 93 224 93t202 -70t73 -188zM496 526q0 -174 162 -174q79 0 143 76q63 76 63 162
t-42 130t-120 44t-142 -76t-64 -162zM399 -27q-156 0 -261 118t-105 319q0 305 171 520t417 215q217 0 327 -170l39 143h465l-299 -1118h-465l31 115q-61 -63 -147 -103t-173 -39zM846 1841l313 352l430 -112l-407 -240h-336z" />
    <glyph glyph-name="aringacute.alt2" horiz-adv-x="1239" 
d="M844 1432q-60 0 -106 -52t-46 -114q0 -64 34 -98t94 -35q60 0 105 51q46 50 46 114t-34 99q-33 35 -93 35zM438 328q0 -88 87 -88q44 0 97 51q52 51 72 129l13 47q-47 12 -86 12q-87 0 -135 -40t-48 -111zM756 700q0 109 -174 109t-303 -49l-62 315q150 45 352 55
q-35 53 -34 125q0 125 96 216t223 91t201 -69q74 -70 73 -176q0 -152 -122 -236q215 -90 215 -311q0 -76 -21 -156l-164 -614h-465l31 113q-84 -70 -154 -104t-159 -34q-131 0 -215 82t-84 224q0 178 133 283t366 106q129 0 254 -37q13 31 13 67zM731 1628l313 352l431 -112
l-408 -240h-336z" />
    <glyph glyph-name="atilde.alt" horiz-adv-x="1374" 
d="M731 1571q67 0 181 -40t144 -40t52 19t49 71l209 -57q-61 -174 -130 -247t-171 -73q-67 0 -181 40t-144 40t-51 -19q-21 -20 -50 -71l-209 57q61 174 130 247t171 73zM496 526q0 -174 162 -174q79 0 143 76q63 76 63 162t-42 130t-120 44t-142 -76t-64 -162zM399 -27
q-156 0 -261 118t-105 319q0 305 171 520t417 215q217 0 327 -170l39 143h465l-299 -1118h-465l31 115q-61 -63 -147 -103t-173 -39z" />
    <glyph glyph-name="three.alt" horiz-adv-x="1282" 
d="M561 -31q-422 0 -624 271l294 280q133 -164 316 -164q82 0 131 35t49 84q0 80 -127 80h-141l90 336h113q182 0 182 104q0 37 -30 60t-75 22q-145 0 -315 -129l-227 297q106 95 263 157t343 62q236 0 375 -108t139 -258q0 -295 -348 -385q231 -78 231 -287t-184 -333
t-455 -124z" />
    <glyph glyph-name="registered.alt" horiz-adv-x="1699" 
d="M817 758h113q102 0 102 76v4q0 74 -100 73h-115v-153zM553 344v789h385q195 0 285 -91q72 -72 71 -188v-4q0 -164 -155 -238l184 -268h-299l-152 225h-55v-225h-264zM244 713q0 -274 188 -468t466 -194t467 196t189 470v4q0 274 -188 468q-188 193 -466 193t-467 -196
t-189 -469v-4zM897 -31q-309 0 -524 219t-215 525v4q0 305 217 526t526 221t524 -219t215 -524v-4q0 -305 -217 -527t-526 -221z" />
    <glyph glyph-name="NUL" horiz-adv-x="0" 
 />
    <glyph glyph-name="hfjslug" horiz-adv-x="1421" 
d="M872 580q-33 0 -32 34q0 12 9 24t23 11q14 0 24 -11t9 -24q0 -34 -33 -34zM997 612h-22v35h22q20 0 21 -16q-1 -19 -21 -19zM659 823q-33 0 -33 45t33 78l41 -80q-16 -43 -41 -43zM645 1056q0 30 29 29q27 -1 27 -35t-31 -69q-25 45 -25 75zM494 662l28 -97h17l22 70h2
l23 -70h16l29 97h-17l-20 -72h-2l-23 72h-14l-23 -72h-2l-20 72h-16zM270 662v-95h17v66l51 -66h14v95h-16v-66l-51 66h-15zM395 662v-95h70v15h-53v26h47v15h-47v24h53v15h-70zM750 567h16v35l37 60h-19l-26 -46l-27 46h-18l37 -60v-35zM872 565q20 1 34 15q33 33 1 68
q-15 16 -35 16t-34 -16t-14 -34q0 -20 14 -34t34 -15zM1034 631q0 31 -35 31h-41v-95h17v31h24l21 -31h18l-24 35q20 8 20 29zM1071 662v-95h16v25l17 16l31 -41h20l-41 54l37 41h-21l-40 -50h-3v50h-16zM729 1047q0 63 -55 63q-25 0 -41 -18q-35 -39 12 -125
q-47 -37 -47 -83q0 -91 59 -89q39 0 60 49h2l24 -49l25 12l-35 65q13 29 27 80l-27 6q-8 -37 -16 -61h-2l-33 64q47 43 47 86zM985 799q63 0 64 73v281h-33v-281q0 -45 -33 -45q-16 0 -41 11v-31q20 -8 43 -8zM377 1153v-352h31v162h96v-162h31v352h-31v-162h-96v162h-31z
M819 1153v-352h31v160h78v28h-78v135h88v29h-119zM1319 -410h-426l-16 29h-334l-17 -29h-424v621q29 0 48 19q18 19 18 46q0 26 -20 46t-46 20v1135h205l62 161h684l59 -161h207v-1887z" />
    <glyph glyph-name="i.dot" horiz-adv-x="616" 
d="M-74 0l299 1118h465l-299 -1118h-465zM240 1198l79 297h482l-80 -297h-481z" />
    <glyph glyph-name="caron.alt" 
d="M545 1184l121 454h333l-2 -8l-266 -446h-186z" />
    <glyph glyph-name="acute.cap" 
d="M479 1516l289 342l469 -107l-391 -235h-367z" />
    <glyph glyph-name="hungarumlaut.cap" 
d="M690 1516l121 153l-231 -153h-312l267 342l354 -91l69 91l416 -107l-370 -235h-314z" />
    <glyph glyph-name="grave.cap" 
d="M944 1858l105 -342h-318l-264 235z" />
    <glyph glyph-name="circumflex.cap" 
d="M336 1516l326 311h397l158 -311h-261l-133 104l-190 -104h-297z" />
    <glyph glyph-name="caron.cap" 
d="M1300 1827l-325 -311h-397l-158 311h260l133 -105l191 105h296z" />
    <glyph glyph-name="breve.cap" 
d="M782 1511q-180 0 -268 79t-72 237h248q12 -86 136 -86t188 86h262q-134 -316 -494 -316z" />
    <glyph glyph-name="tilde.cap" 
d="M635 1882q67 0 193 -40t156 -40q56 0 106 90l208 -55q-61 -174 -132 -248t-173 -73q-67 0 -193 40t-156 39q-55 0 -105 -90l-209 56q61 173 132 247t173 74z" />
    <glyph glyph-name="macron.cap" 
d="M356 1536l72 260h852l-72 -260h-852z" />
    <glyph glyph-name="dieresis.cap" 
d="M358 1516l84 307h377l-84 -307h-377zM817 1516l84 307h377l-84 -307h-377z" />
    <glyph glyph-name="dotaccent.cap" 
d="M582 1516l84 307h389l-84 -307h-389z" />
    <glyph glyph-name="ring.cap" 
d="M846 1663q76 0 128 54q52 55 52 115t-41 96t-117 36t-128 -54t-52 -114t41 -97q41 -36 117 -36zM884 2101q138 1 220 -71t82 -191t-108 -216t-248 -97q-138 0 -220 72t-82 190q0 119 109 216t247 97z" />
    </font>
</defs>
</svg>
