<?xml version="1.0" encoding="UTF-8" standalone="no"?>
<!DOCTYPE svg PUBLIC "-//W3C//DTD SVG 1.1//EN"
 "http://www.w3.org/Graphics/SVG/1.1/DTD/svg11.dtd">
<!-- Generated by graphviz version 2.38.0 (20140413.2041)
 -->
<!-- Title: %3 Pages: 1 -->
<svg width="1707pt" height="531pt"
 viewBox="0.00 0.00 2458.79 764.00" xmlns="http://www.w3.org/2000/svg" xmlns:xlink="http://www.w3.org/1999/xlink">
<g id="graph0" class="graph" transform="scale(0.694444 0.694444) rotate(0) translate(4 760)">
<title>%3</title>
<polygon fill="white" stroke="none" points="-4,4 -4,-760 2454.79,-760 2454.79,4 -4,4"/>
<!-- node80974 -->
<g id="node1" class="node"><title>node80974</title>
<ellipse fill="none" stroke="black" cx="693" cy="-378" rx="29.5361" ry="18"/>
<text text-anchor="middle" x="693" y="-373.8" font-family="Monospace" font-size="14.00">:num</text>
</g>
<!-- node80975 -->
<g id="node2" class="node"><title>node80975</title>
<ellipse fill="none" stroke="black" cx="1199" cy="-18" rx="27" ry="18"/>
<text text-anchor="middle" x="1199" y="-13.8" font-family="Monospace" font-size="14.00">:fn</text>
</g>
<!-- node80974&#45;&gt;node80975 -->
<g id="edge3" class="edge"><title>node80974&#45;&gt;node80975</title>
<path fill="none" stroke="black" d="M693,-359.951C693,-333.292 693,-280.115 693,-235 693,-235 693,-235 693,-161 693,-63.5629 1045.21,-29.8691 1161.93,-21.3784"/>
<polygon fill="black" stroke="black" points="1162.42,-24.8522 1172.15,-20.6557 1161.93,-17.8696 1162.42,-24.8522"/>
</g>
<!-- node80977 -->
<g id="node4" class="node"><title>node80977</title>
<ellipse fill="none" stroke="black" cx="915" cy="-306" rx="41.6111" ry="18"/>
<text text-anchor="middle" x="915" y="-301.8" font-family="Monospace" font-size="14.00">:macros</text>
</g>
<!-- node80974&#45;&gt;node80977 -->
<g id="edge4" class="edge"><title>node80974&#45;&gt;node80977</title>
<path fill="none" stroke="black" d="M717.077,-367.289C723.511,-364.807 730.487,-362.215 737,-360 790.523,-341.797 804.841,-340.211 859,-324 863.333,-322.703 867.852,-321.343 872.362,-319.981"/>
<polygon fill="black" stroke="black" points="873.587,-323.268 882.144,-317.021 871.559,-316.568 873.587,-323.268"/>
</g>
<!-- node80983 -->
<g id="node10" class="node"><title>node80983</title>
<ellipse fill="none" stroke="black" cx="1199" cy="-162" rx="29.06" ry="18"/>
<text text-anchor="middle" x="1199" y="-157.8" font-family="Monospace" font-size="14.00">:type</text>
</g>
<!-- node80974&#45;&gt;node80983 -->
<g id="edge2" class="edge"><title>node80974&#45;&gt;node80983</title>
<path fill="none" stroke="black" d="M714.392,-365.027C774.14,-331.716 942.251,-238.895 1001,-216 1055.29,-194.842 1121.14,-179.067 1161.54,-170.445"/>
<polygon fill="black" stroke="black" points="1162.43,-173.836 1171.49,-168.357 1160.99,-166.985 1162.43,-173.836"/>
</g>
<!-- node80998 -->
<g id="node25" class="node"><title>node80998</title>
<ellipse fill="none" stroke="black" cx="1368" cy="-90" rx="30.5053" ry="18"/>
<text text-anchor="middle" x="1368" y="-85.8" font-family="Monospace" font-size="14.00">:logic</text>
</g>
<!-- node80974&#45;&gt;node80998 -->
<g id="edge1" class="edge"><title>node80974&#45;&gt;node80998</title>
<path fill="none" stroke="black" d="M697.803,-360.117C712.067,-311.221 755.527,-171.245 793,-144 835.989,-112.745 1202.34,-96.9024 1326.81,-92.3854"/>
<polygon fill="black" stroke="black" points="1327.2,-95.874 1337.06,-92.0192 1326.95,-88.8785 1327.2,-95.874"/>
</g>
<!-- node80976 -->
<g id="node3" class="node"><title>node80976</title>
<ellipse fill="none" stroke="black" cx="292" cy="-378" rx="27" ry="18"/>
<text text-anchor="middle" x="292" y="-373.8" font-family="Monospace" font-size="14.00">:vec</text>
</g>
<!-- node80976&#45;&gt;node80983 -->
<g id="edge5" class="edge"><title>node80976&#45;&gt;node80983</title>
<path fill="none" stroke="black" d="M302.778,-361.458C327.129,-327.805 390.145,-248.604 465,-216 591.305,-160.986 1025.71,-161.049 1159.47,-162.435"/>
<polygon fill="black" stroke="black" points="1159.63,-165.937 1169.67,-162.55 1159.71,-158.938 1159.63,-165.937"/>
</g>
<!-- node80977&#45;&gt;node80975 -->
<g id="edge11" class="edge"><title>node80977&#45;&gt;node80975</title>
<path fill="none" stroke="black" d="M920.44,-288.015C927.047,-269.124 939.516,-238.332 957,-216 1020.04,-135.485 1121.68,-66.6044 1170.73,-35.9721"/>
<polygon fill="black" stroke="black" points="1172.58,-38.9379 1179.25,-30.7034 1168.9,-32.9833 1172.58,-38.9379"/>
</g>
<!-- node80982 -->
<g id="node9" class="node"><title>node80982</title>
<ellipse fill="none" stroke="black" cx="501" cy="-234" rx="27" ry="18"/>
<text text-anchor="middle" x="501" y="-229.8" font-family="Monospace" font-size="14.00">:err</text>
</g>
<!-- node80977&#45;&gt;node80982 -->
<g id="edge8" class="edge"><title>node80977&#45;&gt;node80982</title>
<path fill="none" stroke="black" d="M876.794,-298.54C797.262,-285.093 614.869,-254.253 537.148,-241.112"/>
<polygon fill="black" stroke="black" points="537.341,-237.595 526.898,-239.379 536.174,-244.497 537.341,-237.595"/>
</g>
<!-- node80977&#45;&gt;node80983 -->
<g id="edge12" class="edge"><title>node80977&#45;&gt;node80983</title>
<path fill="none" stroke="black" d="M937.427,-290.732C966.945,-272.26 1020.75,-239.64 1069,-216 1100.63,-200.501 1137.99,-185.608 1164.52,-175.578"/>
<polygon fill="black" stroke="black" points="1165.98,-178.767 1174.12,-171.981 1163.53,-172.211 1165.98,-178.767"/>
</g>
<!-- node80997 -->
<g id="node24" class="node"><title>node80997</title>
<ellipse fill="none" stroke="black" cx="1746" cy="-90" rx="27" ry="18"/>
<text text-anchor="middle" x="1746" y="-85.8" font-family="Monospace" font-size="14.00">:set</text>
</g>
<!-- node80977&#45;&gt;node80997 -->
<g id="edge9" class="edge"><title>node80977&#45;&gt;node80997</title>
<path fill="none" stroke="black" d="M956.662,-304.56C1039.66,-302.759 1230.9,-293.969 1385,-252 1514.79,-216.653 1657.46,-141.046 1717.2,-107.555"/>
<polygon fill="black" stroke="black" points="1719.08,-110.517 1726.06,-102.554 1715.64,-104.421 1719.08,-110.517"/>
</g>
<!-- node80977&#45;&gt;node80998 -->
<g id="edge10" class="edge"><title>node80977&#45;&gt;node80998</title>
<path fill="none" stroke="black" d="M927.478,-288.728C942.998,-269.36 971.117,-237.006 1001,-216 1105.71,-142.397 1257.34,-109.171 1328.43,-96.9474"/>
<polygon fill="black" stroke="black" points="1329.03,-100.395 1338.31,-95.2941 1327.87,-93.4913 1329.03,-100.395"/>
</g>
<!-- node81001 -->
<g id="node28" class="node"><title>node81001</title>
<ellipse fill="none" stroke="black" cx="1349" cy="-234" rx="27" ry="18"/>
<text text-anchor="middle" x="1349" y="-229.8" font-family="Monospace" font-size="14.00">:pr</text>
</g>
<!-- node80977&#45;&gt;node81001 -->
<g id="edge7" class="edge"><title>node80977&#45;&gt;node81001</title>
<path fill="none" stroke="black" d="M953.515,-298.788C1036.6,-285.387 1231.71,-253.918 1312.73,-240.85"/>
<polygon fill="black" stroke="black" points="1313.62,-244.252 1322.94,-239.204 1312.51,-237.341 1313.62,-244.252"/>
</g>
<!-- node81002 -->
<g id="node29" class="node"><title>node81002</title>
<ellipse fill="none" stroke="black" cx="188" cy="-234" rx="27" ry="18"/>
<text text-anchor="middle" x="188" y="-229.8" font-family="Monospace" font-size="14.00">:log</text>
</g>
<!-- node80977&#45;&gt;node81002 -->
<g id="edge6" class="edge"><title>node80977&#45;&gt;node81002</title>
<path fill="none" stroke="black" d="M874.878,-301.137C746.599,-288.785 347.659,-250.373 224.553,-238.52"/>
<polygon fill="black" stroke="black" points="224.795,-235.027 214.505,-237.552 224.124,-241.995 224.795,-235.027"/>
</g>
<!-- node80978 -->
<g id="node5" class="node"><title>node80978</title>
<ellipse fill="none" stroke="black" cx="910" cy="-594" rx="37.3114" ry="18"/>
<text text-anchor="middle" x="910" y="-589.8" font-family="Monospace" font-size="14.00">:queue</text>
</g>
<!-- node80978&#45;&gt;node80974 -->
<g id="edge13" class="edge"><title>node80978&#45;&gt;node80974</title>
<path fill="none" stroke="black" d="M872.683,-593.261C830.302,-591.419 762.107,-581.591 724,-540 690.366,-503.292 688.221,-441.589 690.236,-406.181"/>
<polygon fill="black" stroke="black" points="693.735,-406.319 690.965,-396.093 686.754,-405.815 693.735,-406.319"/>
</g>
<!-- node80984 -->
<g id="node11" class="node"><title>node80984</title>
<ellipse fill="none" stroke="black" cx="934" cy="-522" rx="33.9117" ry="18"/>
<text text-anchor="middle" x="934" y="-517.8" font-family="Monospace" font-size="14.00">:loops</text>
</g>
<!-- node80978&#45;&gt;node80984 -->
<g id="edge14" class="edge"><title>node80978&#45;&gt;node80984</title>
<path fill="none" stroke="black" d="M915.81,-576.055C918.551,-568.059 921.887,-558.331 924.949,-549.4"/>
<polygon fill="black" stroke="black" points="928.311,-550.384 928.244,-539.789 921.69,-548.113 928.311,-550.384"/>
</g>
<!-- node80979 -->
<g id="node6" class="node"><title>node80979</title>
<ellipse fill="none" stroke="black" cx="976" cy="-378" rx="27" ry="18"/>
<text text-anchor="middle" x="976" y="-373.8" font-family="Monospace" font-size="14.00">:arr</text>
</g>
<!-- node80980 -->
<g id="node7" class="node"><title>node80980</title>
<ellipse fill="none" stroke="black" cx="2014" cy="-738" rx="76.9106" ry="18"/>
<text text-anchor="middle" x="2014" y="-733.8" font-family="Monospace" font-size="14.00">:nondeterministic</text>
</g>
<!-- node80981 -->
<g id="node8" class="node"><title>node80981</title>
<ellipse fill="none" stroke="black" cx="738" cy="-666" rx="27" ry="18"/>
<text text-anchor="middle" x="738" y="-661.8" font-family="Monospace" font-size="14.00">:coll</text>
</g>
<!-- node80981&#45;&gt;node80974 -->
<g id="edge18" class="edge"><title>node80981&#45;&gt;node80974</title>
<path fill="none" stroke="black" d="M731.676,-648.47C719.323,-615.023 692.613,-536.659 686,-468 684.006,-447.303 686.025,-423.856 688.398,-406.226"/>
<polygon fill="black" stroke="black" points="691.898,-406.48 689.888,-396.077 684.972,-405.463 691.898,-406.48"/>
</g>
<!-- node80981&#45;&gt;node80975 -->
<g id="edge24" class="edge"><title>node80981&#45;&gt;node80975</title>
<path fill="none" stroke="black" d="M711.207,-662.967C641.897,-657.36 458.382,-640.193 405,-612 211.403,-509.755 -12.7059,-395.951 112,-216 235.247,-38.1539 985.701,-20.7724 1161.96,-19.151"/>
<polygon fill="black" stroke="black" points="1162.06,-22.6504 1172.04,-19.0701 1162.01,-15.6506 1162.06,-22.6504"/>
</g>
<!-- node80981&#45;&gt;node80976 -->
<g id="edge19" class="edge"><title>node80981&#45;&gt;node80976</title>
<path fill="none" stroke="black" d="M710.963,-664.39C642.178,-661.312 459.249,-643.307 364,-540 328.394,-501.382 337.501,-479.925 316,-432 312.035,-423.161 307.672,-413.507 303.766,-404.888"/>
<polygon fill="black" stroke="black" points="306.915,-403.357 299.596,-395.696 300.54,-406.249 306.915,-403.357"/>
</g>
<!-- node80981&#45;&gt;node80977 -->
<g id="edge17" class="edge"><title>node80981&#45;&gt;node80977</title>
<path fill="none" stroke="black" d="M735.065,-647.947C734.071,-598.448 751.466,-452.41 822,-360 834.829,-343.192 854.641,-330.325 872.792,-321.481"/>
<polygon fill="black" stroke="black" points="874.453,-324.57 882.087,-317.223 871.538,-318.206 874.453,-324.57"/>
</g>
<!-- node80981&#45;&gt;node80977 -->
<g id="edge23" class="edge"><title>node80981&#45;&gt;node80977</title>
<path fill="none" stroke="black" d="M743.065,-648.299C751.988,-599.144 769.298,-452.63 840,-360 851.003,-345.584 867.143,-334.068 881.718,-325.502"/>
<polygon fill="black" stroke="black" points="883.527,-328.5 890.531,-320.55 880.098,-322.397 883.527,-328.5"/>
</g>
<!-- node80981&#45;&gt;node80982 -->
<g id="edge22" class="edge"><title>node80981&#45;&gt;node80982</title>
<path fill="none" stroke="black" d="M721.778,-651.59C672.52,-609.628 525.168,-474.614 478,-324 471.32,-302.669 478.834,-278.038 487.01,-260.103"/>
<polygon fill="black" stroke="black" points="490.268,-261.411 491.535,-250.892 483.985,-258.324 490.268,-261.411"/>
</g>
<!-- node80981&#45;&gt;node80983 -->
<g id="edge16" class="edge"><title>node80981&#45;&gt;node80983</title>
<path fill="none" stroke="black" d="M764.976,-663.101C834.289,-657.845 1016.82,-641.508 1069,-612 1123.64,-581.101 1109.82,-541.707 1160,-504 1191.49,-480.334 1219.53,-501.033 1241,-468 1270.73,-422.255 1226.34,-255.529 1207.13,-189.851"/>
<polygon fill="black" stroke="black" points="1210.37,-188.455 1204.18,-179.86 1203.66,-190.442 1210.37,-188.455"/>
</g>
<!-- node80988 -->
<g id="node15" class="node"><title>node80988</title>
<ellipse fill="none" stroke="black" cx="1364" cy="-594" rx="27" ry="18"/>
<text text-anchor="middle" x="1364" y="-589.8" font-family="Monospace" font-size="14.00">:str</text>
</g>
<!-- node80981&#45;&gt;node80988 -->
<g id="edge25" class="edge"><title>node80981&#45;&gt;node80988</title>
<path fill="none" stroke="black" d="M764.464,-662.261C837.814,-654.641 1049.92,-632.406 1226,-612 1260.45,-608.008 1299.69,-603.143 1327.49,-599.642"/>
<polygon fill="black" stroke="black" points="1328.08,-603.097 1337.56,-598.372 1327.2,-596.152 1328.08,-603.097"/>
</g>
<!-- node80981&#45;&gt;node80997 -->
<g id="edge20" class="edge"><title>node80981&#45;&gt;node80997</title>
<path fill="none" stroke="black" d="M765.027,-664.712C883.765,-662.03 1365.4,-636.187 1640,-396 1724.21,-322.341 1741.54,-178.159 1745.09,-118.182"/>
<polygon fill="black" stroke="black" points="1748.6,-118.163 1745.61,-107.999 1741.61,-117.809 1748.6,-118.163"/>
</g>
<!-- node80981&#45;&gt;node80998 -->
<g id="edge15" class="edge"><title>node80981&#45;&gt;node80998</title>
<path fill="none" stroke="black" d="M764.974,-663.489C839.105,-658.963 1044.31,-643.814 1103,-612 1159.2,-581.533 1142.23,-535.251 1198,-504 1279.46,-458.351 1331.37,-525.429 1405,-468 1494.07,-398.532 1450.33,-328.282 1438,-216 1434.42,-183.415 1437.91,-172.662 1422,-144 1415.11,-131.584 1404.41,-120.203 1394.34,-111.197"/>
<polygon fill="black" stroke="black" points="1396.38,-108.331 1386.5,-104.51 1391.84,-113.659 1396.38,-108.331"/>
</g>
<!-- node80981&#45;&gt;node81002 -->
<g id="edge21" class="edge"><title>node80981&#45;&gt;node81002</title>
<path fill="none" stroke="black" d="M711.528,-662.099C628.391,-651.386 378,-606.233 378,-451 378,-451 378,-451 378,-377 378,-300.434 277.778,-260.182 222.913,-243.883"/>
<polygon fill="black" stroke="black" points="223.807,-240.499 213.231,-241.115 221.883,-247.229 223.807,-240.499"/>
</g>
<!-- node80983&#45;&gt;node80975 -->
<g id="edge26" class="edge"><title>node80983&#45;&gt;node80975</title>
<path fill="none" stroke="black" d="M1199,-143.871C1199,-119.67 1199,-75.2108 1199,-46.3932"/>
<polygon fill="black" stroke="black" points="1202.5,-46.1892 1199,-36.1893 1195.5,-46.1893 1202.5,-46.1892"/>
</g>
<!-- node80983&#45;&gt;node80997 -->
<g id="edge28" class="edge"><title>node80983&#45;&gt;node80997</title>
<path fill="none" stroke="black" d="M1227.64,-157.335C1319.57,-145.571 1607.15,-108.769 1709.44,-95.6789"/>
<polygon fill="black" stroke="black" points="1710.11,-99.1216 1719.58,-94.3805 1709.22,-92.1782 1710.11,-99.1216"/>
</g>
<!-- node80983&#45;&gt;node80998 -->
<g id="edge27" class="edge"><title>node80983&#45;&gt;node80998</title>
<path fill="none" stroke="black" d="M1222.86,-151.119C1252,-139.045 1301.5,-118.542 1334.47,-104.886"/>
<polygon fill="black" stroke="black" points="1335.82,-108.118 1343.72,-101.057 1333.14,-101.65 1335.82,-108.118"/>
</g>
<!-- node80984&#45;&gt;node80975 -->
<g id="edge29" class="edge"><title>node80984&#45;&gt;node80975</title>
<path fill="none" stroke="black" d="M901.85,-516.282C843.007,-505.871 718.152,-475.23 654,-396 628.548,-364.565 635,-347.447 635,-307 635,-307 635,-307 635,-161 635,-102.164 679.404,-96.2743 733,-72 809.496,-37.3537 1065.25,-24.1309 1161.73,-20.3008"/>
<polygon fill="black" stroke="black" points="1162.04,-23.7918 1171.89,-19.9091 1161.77,-16.797 1162.04,-23.7918"/>
</g>
<!-- node80984&#45;&gt;node80977 -->
<g id="edge32" class="edge"><title>node80984&#45;&gt;node80977</title>
<path fill="none" stroke="black" d="M929.065,-503.799C922.482,-479.872 911.172,-435.075 907,-396 905.301,-380.09 905.803,-375.955 907,-360 907.637,-351.518 908.838,-342.336 910.121,-334.036"/>
<polygon fill="black" stroke="black" points="913.584,-334.547 911.752,-324.112 906.676,-333.412 913.584,-334.547"/>
</g>
<!-- node80984&#45;&gt;node80979 -->
<g id="edge36" class="edge"><title>node80984&#45;&gt;node80979</title>
<path fill="none" stroke="black" d="M943.677,-504.322C949.207,-494.129 955.847,-480.66 960,-468 966.636,-447.769 970.732,-423.996 973.116,-406.11"/>
<polygon fill="black" stroke="black" points="976.603,-406.43 974.357,-396.076 969.656,-405.571 976.603,-406.43"/>
</g>
<!-- node80984&#45;&gt;node80983 -->
<g id="edge33" class="edge"><title>node80984&#45;&gt;node80983</title>
<path fill="none" stroke="black" d="M933.817,-503.916C933.518,-465.071 933.507,-372.505 940,-360 965.929,-310.061 1108.33,-218.558 1170.24,-180.414"/>
<polygon fill="black" stroke="black" points="1172.07,-183.396 1178.77,-175.184 1168.41,-177.429 1172.07,-183.396"/>
</g>
<!-- node80990 -->
<g id="node17" class="node"><title>node80990</title>
<ellipse fill="none" stroke="black" cx="1369" cy="-450" rx="27" ry="18"/>
<text text-anchor="middle" x="1369" y="-445.8" font-family="Monospace" font-size="14.00">:red</text>
</g>
<!-- node80984&#45;&gt;node80990 -->
<g id="edge34" class="edge"><title>node80984&#45;&gt;node80990</title>
<path fill="none" stroke="black" d="M965.987,-515.853C1045.11,-503.121 1249.59,-470.215 1332.89,-456.811"/>
<polygon fill="black" stroke="black" points="1333.57,-460.246 1342.89,-455.201 1332.46,-453.335 1333.57,-460.246"/>
</g>
<!-- node80984&#45;&gt;node80998 -->
<g id="edge30" class="edge"><title>node80984&#45;&gt;node80998</title>
<path fill="none" stroke="black" d="M917.397,-506.196C882.972,-473.777 807,-392.541 807,-307 807,-307 807,-307 807,-233 807,-125.63 1198.07,-98.5635 1327.19,-92.5534"/>
<polygon fill="black" stroke="black" points="1327.61,-96.0383 1337.44,-92.0952 1327.29,-89.0453 1327.61,-96.0383"/>
</g>
<!-- node80984&#45;&gt;node81002 -->
<g id="edge31" class="edge"><title>node80984&#45;&gt;node81002</title>
<path fill="none" stroke="black" d="M900.523,-519.416C845.727,-515.826 734.351,-504.308 648,-468 519.785,-414.089 518.222,-346.424 392,-288 336.284,-262.211 265.973,-247.46 224.131,-240.356"/>
<polygon fill="black" stroke="black" points="224.568,-236.881 214.132,-238.713 223.432,-243.789 224.568,-236.881"/>
</g>
<!-- node81003 -->
<g id="node30" class="node"><title>node81003</title>
<ellipse fill="none" stroke="black" cx="1198" cy="-450" rx="34.3788" ry="18"/>
<text text-anchor="middle" x="1198" y="-445.8" font-family="Monospace" font-size="14.00">:ccore</text>
</g>
<!-- node80984&#45;&gt;node81003 -->
<g id="edge35" class="edge"><title>node80984&#45;&gt;node81003</title>
<path fill="none" stroke="black" d="M963.516,-513.174C1011.04,-500.572 1104.6,-475.765 1158.05,-461.592"/>
<polygon fill="black" stroke="black" points="1159.1,-464.937 1167.86,-458.99 1157.3,-458.17 1159.1,-464.937"/>
</g>
<!-- node80985 -->
<g id="node12" class="node"><title>node80985</title>
<ellipse fill="none" stroke="black" cx="2165" cy="-738" rx="56.1388" ry="18"/>
<text text-anchor="middle" x="2165" y="-733.8" font-family="Monospace" font-size="14.00">:component</text>
</g>
<!-- node80986 -->
<g id="node13" class="node"><title>node80986</title>
<ellipse fill="none" stroke="black" cx="2268" cy="-738" rx="28.5754" ry="18"/>
<text text-anchor="middle" x="2268" y="-733.8" font-family="Monospace" font-size="14.00">:java</text>
</g>
<!-- node80987 -->
<g id="node14" class="node"><title>node80987</title>
<ellipse fill="none" stroke="black" cx="1385" cy="-666" rx="27" ry="18"/>
<text text-anchor="middle" x="1385" y="-661.8" font-family="Monospace" font-size="14.00">:hex</text>
</g>
<!-- node80987&#45;&gt;node80988 -->
<g id="edge37" class="edge"><title>node80987&#45;&gt;node80988</title>
<path fill="none" stroke="black" d="M1379.92,-648.055C1377.52,-640.059 1374.6,-630.331 1371.92,-621.4"/>
<polygon fill="black" stroke="black" points="1375.26,-620.362 1369.04,-611.789 1368.56,-622.373 1375.26,-620.362"/>
</g>
<!-- node80988&#45;&gt;node80974 -->
<g id="edge44" class="edge"><title>node80988&#45;&gt;node80974</title>
<path fill="none" stroke="black" d="M1336.88,-591.963C1248.93,-588.29 972.63,-574.238 891,-540 815.412,-508.296 745.666,-438.33 712.796,-401.963"/>
<polygon fill="black" stroke="black" points="715.251,-399.456 705.985,-394.319 710.025,-404.113 715.251,-399.456"/>
</g>
<!-- node80988&#45;&gt;node80975 -->
<g id="edge38" class="edge"><title>node80988&#45;&gt;node80975</title>
<path fill="none" stroke="black" d="M1391.38,-593.137C1447.61,-592.418 1579.05,-585.548 1677,-540 1848.97,-460.032 1867.54,-331.015 1836,-144 1830.37,-110.598 1837.73,-92.8087 1811,-72 1765.62,-36.6699 1362.18,-23.2489 1236.33,-19.8997"/>
<polygon fill="black" stroke="black" points="1236.13,-16.3936 1226.05,-19.6322 1235.95,-23.3912 1236.13,-16.3936"/>
</g>
<!-- node80988&#45;&gt;node80977 -->
<g id="edge40" class="edge"><title>node80988&#45;&gt;node80977</title>
<path fill="none" stroke="black" d="M1340.89,-584.515C1295.07,-567.048 1190.62,-523.971 1115,-468 1061.69,-428.539 1064.62,-400.383 1012,-360 993.637,-345.907 971.044,-333.329 952.283,-323.966"/>
<polygon fill="black" stroke="black" points="953.664,-320.745 943.142,-319.504 950.593,-327.035 953.664,-320.745"/>
</g>
<!-- node80988&#45;&gt;node80983 -->
<g id="edge45" class="edge"><title>node80988&#45;&gt;node80983</title>
<path fill="none" stroke="black" d="M1374.64,-576.952C1380.91,-566.767 1388.48,-553.085 1393,-540 1408.78,-494.356 1419.43,-478.088 1405,-432 1370.92,-323.178 1270.32,-224.912 1223.5,-183.618"/>
<polygon fill="black" stroke="black" points="1225.51,-180.731 1215.67,-176.807 1220.91,-186.012 1225.51,-180.731"/>
</g>
<!-- node80988&#45;&gt;node80984 -->
<g id="edge41" class="edge"><title>node80988&#45;&gt;node80984</title>
<path fill="none" stroke="black" d="M1338.07,-588.779C1266.2,-577.079 1063.95,-544.154 975.868,-529.816"/>
<polygon fill="black" stroke="black" points="976.39,-526.355 965.957,-528.202 975.265,-533.264 976.39,-526.355"/>
</g>
<!-- node80988&#45;&gt;node80990 -->
<g id="edge43" class="edge"><title>node80988&#45;&gt;node80990</title>
<path fill="none" stroke="black" d="M1369.68,-576.038C1372.82,-565.745 1376.41,-552.269 1378,-540 1380.68,-519.339 1378.08,-495.891 1375,-478.251"/>
<polygon fill="black" stroke="black" points="1378.37,-477.261 1373.06,-468.095 1371.5,-478.574 1378.37,-477.261"/>
</g>
<!-- node80988&#45;&gt;node80997 -->
<g id="edge39" class="edge"><title>node80988&#45;&gt;node80997</title>
<path fill="none" stroke="black" d="M1390.16,-589.18C1476.81,-575.801 1749,-527.674 1749,-451 1749,-451 1749,-451 1749,-377 1749,-272.472 1811.07,-244.108 1781,-144 1777.81,-133.387 1771.73,-122.938 1765.52,-114.161"/>
<polygon fill="black" stroke="black" points="1768.19,-111.878 1759.37,-105.996 1762.6,-116.09 1768.19,-111.878"/>
</g>
<!-- node80988&#45;&gt;node80998 -->
<g id="edge42" class="edge"><title>node80988&#45;&gt;node80998</title>
<path fill="none" stroke="black" d="M1382.73,-580.856C1422.48,-553.642 1513.39,-483.261 1535,-396 1556.81,-307.967 1530.99,-209.373 1477,-144 1458.95,-122.137 1429.7,-108.606 1406.04,-100.692"/>
<polygon fill="black" stroke="black" points="1406.89,-97.2885 1396.3,-97.6369 1404.79,-103.968 1406.89,-97.2885"/>
</g>
<!-- node80989 -->
<g id="node16" class="node"><title>node80989</title>
<ellipse fill="none" stroke="black" cx="510" cy="-738" rx="37.7785" ry="18"/>
<text text-anchor="middle" x="510" y="-733.8" font-family="Monospace" font-size="14.00">:thread</text>
</g>
<!-- node80989&#45;&gt;node80974 -->
<g id="edge46" class="edge"><title>node80989&#45;&gt;node80974</title>
<path fill="none" stroke="black" d="M518.581,-720.213C547.946,-662.766 644.545,-473.792 679.893,-404.642"/>
<polygon fill="black" stroke="black" points="683.213,-405.836 684.648,-395.339 676.98,-402.65 683.213,-405.836"/>
</g>
<!-- node80989&#45;&gt;node80975 -->
<g id="edge47" class="edge"><title>node80989&#45;&gt;node80975</title>
<path fill="none" stroke="black" d="M545.591,-731.81C573.836,-727.902 614.36,-722.761 650,-720 886.094,-701.71 1486.37,-745.66 1715,-684 1853.69,-646.596 1939,-594.649 1939,-451 1939,-451 1939,-451 1939,-161 1939,-100.5 1891.78,-95.4378 1836,-72 1726.64,-26.0434 1355.65,-19.8819 1236.31,-19.0993"/>
<polygon fill="black" stroke="black" points="1236.23,-15.5989 1226.21,-19.0422 1236.19,-22.5988 1236.23,-15.5989"/>
</g>
<!-- node80989&#45;&gt;node80976 -->
<g id="edge51" class="edge"><title>node80989&#45;&gt;node80976</title>
<path fill="none" stroke="black" d="M492.491,-722.026C457.738,-691.378 379.725,-617.799 337,-540 313.152,-496.575 301.1,-439.476 295.716,-406.247"/>
<polygon fill="black" stroke="black" points="299.112,-405.303 294.138,-395.948 292.192,-406.363 299.112,-405.303"/>
</g>
<!-- node80989&#45;&gt;node80981 -->
<g id="edge52" class="edge"><title>node80989&#45;&gt;node80981</title>
<path fill="none" stroke="black" d="M540.749,-727.559C583.375,-714.473 660.145,-690.903 704.29,-677.35"/>
<polygon fill="black" stroke="black" points="705.448,-680.655 713.981,-674.374 703.394,-673.964 705.448,-680.655"/>
</g>
<!-- node80989&#45;&gt;node80982 -->
<g id="edge49" class="edge"><title>node80989&#45;&gt;node80982</title>
<path fill="none" stroke="black" d="M495.556,-721.377C478.545,-695.805 454,-643.041 454,-595 454,-595 454,-595 454,-521 454,-424.435 475.551,-311.114 490.037,-261.039"/>
<polygon fill="black" stroke="black" points="493.425,-261.929 493.011,-251.342 486.733,-259.876 493.425,-261.929"/>
</g>
<!-- node80989&#45;&gt;node80982 -->
<g id="edge53" class="edge"><title>node80989&#45;&gt;node80982</title>
<path fill="none" stroke="black" d="M506.081,-719.68C495.495,-693.525 472,-642.002 472,-595 472,-595 472,-595 472,-521 472,-425.337 493.15,-313.23 500.155,-262.459"/>
<polygon fill="black" stroke="black" points="503.657,-262.667 501.455,-252.304 496.714,-261.779 503.657,-262.667"/>
</g>
<!-- node80989&#45;&gt;node80988 -->
<g id="edge48" class="edge"><title>node80989&#45;&gt;node80988</title>
<path fill="none" stroke="black" d="M545.601,-731.937C573.852,-728.099 614.379,-722.99 650,-720 692.73,-716.413 1391.39,-715.02 1421,-684 1441.4,-662.627 1413.59,-632.932 1390.14,-613.838"/>
<polygon fill="black" stroke="black" points="1392.15,-610.965 1382.12,-607.557 1387.84,-616.477 1392.15,-610.965"/>
</g>
<!-- node80989&#45;&gt;node80998 -->
<g id="edge50" class="edge"><title>node80989&#45;&gt;node80998</title>
<path fill="none" stroke="black" d="M545.6,-731.927C573.851,-728.083 614.377,-722.971 650,-720 922.142,-697.301 1863,-796.087 1863,-523 1863,-523 1863,-523 1863,-449 1863,-224.053 1523.22,-126.106 1406.68,-99.1278"/>
<polygon fill="black" stroke="black" points="1407.28,-95.6751 1396.75,-96.8775 1405.73,-102.502 1407.28,-95.6751"/>
</g>
<!-- node80990&#45;&gt;node80974 -->
<g id="edge57" class="edge"><title>node80990&#45;&gt;node80974</title>
<path fill="none" stroke="black" d="M1342.56,-445.208C1316.7,-441.567 1276.19,-436.037 1241,-432 1050.78,-410.176 822.712,-390.055 732.5,-382.334"/>
<polygon fill="black" stroke="black" points="732.705,-378.839 722.444,-381.476 732.11,-385.814 732.705,-378.839"/>
</g>
<!-- node80990&#45;&gt;node80975 -->
<g id="edge54" class="edge"><title>node80990&#45;&gt;node80975</title>
<path fill="none" stroke="black" d="M1396.09,-449.514C1447.37,-449.293 1560.59,-443.018 1640,-396 1758.21,-326.006 1851.3,-277.528 1819,-144 1810.54,-109.031 1811.83,-92.1177 1782,-72 1736.81,-41.5215 1357.96,-24.9063 1236.39,-20.3226"/>
<polygon fill="black" stroke="black" points="1236.23,-16.8142 1226.1,-19.9404 1235.97,-23.8094 1236.23,-16.8142"/>
</g>
<!-- node80990&#45;&gt;node80976 -->
<g id="edge60" class="edge"><title>node80990&#45;&gt;node80976</title>
<path fill="none" stroke="black" d="M1342.59,-444.894C1316.76,-441.019 1276.26,-435.322 1241,-432 1059.11,-414.867 481.845,-387.719 329.281,-380.701"/>
<polygon fill="black" stroke="black" points="329.191,-377.193 319.041,-380.23 328.87,-384.186 329.191,-377.193"/>
</g>
<!-- node80990&#45;&gt;node80977 -->
<g id="edge56" class="edge"><title>node80990&#45;&gt;node80977</title>
<path fill="none" stroke="black" d="M1347.9,-438.749C1310.04,-420.691 1227.71,-382.951 1155,-360 1089.85,-339.436 1012.31,-323.863 963.368,-315.082"/>
<polygon fill="black" stroke="black" points="963.83,-311.609 953.373,-313.312 962.61,-318.502 963.83,-311.609"/>
</g>
<!-- node80990&#45;&gt;node80983 -->
<g id="edge58" class="edge"><title>node80990&#45;&gt;node80983</title>
<path fill="none" stroke="black" d="M1356.71,-433.884C1338.49,-411.027 1303.9,-365.881 1280,-324 1253.97,-278.376 1256.61,-262.407 1232,-216 1226.95,-206.476 1220.84,-196.353 1215.26,-187.534"/>
<polygon fill="black" stroke="black" points="1218.06,-185.411 1209.7,-178.895 1212.17,-189.199 1218.06,-185.411"/>
</g>
<!-- node80990&#45;&gt;node80997 -->
<g id="edge59" class="edge"><title>node80990&#45;&gt;node80997</title>
<path fill="none" stroke="black" d="M1395.45,-446.084C1450.98,-439.513 1577.33,-422.059 1611,-396 1658.06,-359.585 1716.56,-185.087 1737.81,-117.667"/>
<polygon fill="black" stroke="black" points="1741.25,-118.392 1740.89,-107.803 1734.57,-116.304 1741.25,-118.392"/>
</g>
<!-- node80990&#45;&gt;node80998 -->
<g id="edge55" class="edge"><title>node80990&#45;&gt;node80998</title>
<path fill="none" stroke="black" d="M1387.15,-436.506C1399.26,-426.99 1414.17,-412.706 1421,-396 1427.05,-381.189 1421.17,-375.999 1421,-360 1420,-263.595 1438.04,-233.01 1401,-144 1396.92,-134.196 1391.13,-124.134 1385.54,-115.447"/>
<polygon fill="black" stroke="black" points="1388.33,-113.325 1379.86,-106.961 1382.51,-117.218 1388.33,-113.325"/>
</g>
<!-- node80991 -->
<g id="node18" class="node"><title>node80991</title>
<ellipse fill="none" stroke="black" cx="2345" cy="-738" rx="30.0207" ry="18"/>
<text text-anchor="middle" x="2345" y="-733.8" font-family="Monospace" font-size="14.00">:ftree</text>
</g>
<!-- node80992 -->
<g id="node19" class="node"><title>node80992</title>
<ellipse fill="none" stroke="black" cx="1882" cy="-738" rx="36.7923" ry="18"/>
<text text-anchor="middle" x="1882" y="-733.8" font-family="Monospace" font-size="14.00">:crypto</text>
</g>
<!-- node80992&#45;&gt;node80988 -->
<g id="edge63" class="edge"><title>node80992&#45;&gt;node80988</title>
<path fill="none" stroke="black" d="M1850.76,-728.437C1759.38,-703.386 1493.04,-630.373 1398.1,-604.349"/>
<polygon fill="black" stroke="black" points="1398.99,-600.964 1388.43,-601.696 1397.14,-607.715 1398.99,-600.964"/>
</g>
<!-- node80993 -->
<g id="node20" class="node"><title>node80993</title>
<ellipse fill="none" stroke="black" cx="1250" cy="-666" rx="33.903" ry="18"/>
<text text-anchor="middle" x="1250" y="-661.8" font-family="Monospace" font-size="14.00">:bytes</text>
</g>
<!-- node80992&#45;&gt;node80993 -->
<g id="edge61" class="edge"><title>node80992&#45;&gt;node80993</title>
<path fill="none" stroke="black" d="M1846.03,-734.309C1759.94,-727.678 1535.37,-709.236 1349,-684 1329.93,-681.418 1308.91,-677.903 1291.16,-674.74"/>
<polygon fill="black" stroke="black" points="1291.59,-671.261 1281.12,-672.928 1290.34,-678.15 1291.59,-671.261"/>
</g>
<!-- node80992&#45;&gt;node80998 -->
<g id="edge62" class="edge"><title>node80992&#45;&gt;node80998</title>
<path fill="none" stroke="black" d="M1883.93,-719.941C1888.76,-675.639 1901,-553.261 1901,-451 1901,-451 1901,-451 1901,-377 1901,-153.786 1533.56,-104.074 1408.84,-93.6291"/>
<polygon fill="black" stroke="black" points="1408.82,-90.1161 1398.57,-92.8126 1408.26,-97.0941 1408.82,-90.1161"/>
</g>
<!-- node80993&#45;&gt;node80977 -->
<g id="edge66" class="edge"><title>node80993&#45;&gt;node80977</title>
<path fill="none" stroke="black" d="M1216.2,-665.742C1130.75,-666.819 909.681,-664.382 864,-612 793.306,-530.936 864.499,-389.951 898.794,-332.483"/>
<polygon fill="black" stroke="black" points="901.938,-334.048 904.148,-323.686 895.959,-330.409 901.938,-334.048"/>
</g>
<!-- node80993&#45;&gt;node80979 -->
<g id="edge68" class="edge"><title>node80993&#45;&gt;node80979</title>
<path fill="none" stroke="black" d="M1235.27,-649.623C1189.62,-601.974 1050.39,-456.649 997.077,-401"/>
<polygon fill="black" stroke="black" points="999.588,-398.562 990.143,-393.762 994.533,-403.404 999.588,-398.562"/>
</g>
<!-- node80993&#45;&gt;node80988 -->
<g id="edge64" class="edge"><title>node80993&#45;&gt;node80988</title>
<path fill="none" stroke="black" d="M1271.44,-651.834C1289.68,-640.637 1315.99,-624.478 1335.91,-612.25"/>
<polygon fill="black" stroke="black" points="1337.86,-615.156 1344.55,-606.94 1334.2,-609.19 1337.86,-615.156"/>
</g>
<!-- node80993&#45;&gt;node80998 -->
<g id="edge65" class="edge"><title>node80993&#45;&gt;node80998</title>
<path fill="none" stroke="black" d="M1280.67,-658.244C1374.42,-637.289 1652.39,-572.84 1677,-540 1705.79,-501.573 1539.48,-176.354 1504,-144 1476.87,-119.256 1436.87,-105.542 1407.27,-98.3003"/>
<polygon fill="black" stroke="black" points="1407.8,-94.8313 1397.27,-96.0011 1406.24,-101.653 1407.8,-94.8313"/>
</g>
<!-- node80993&#45;&gt;node81003 -->
<g id="edge67" class="edge"><title>node80993&#45;&gt;node81003</title>
<path fill="none" stroke="black" d="M1256.63,-648.095C1262.78,-630.062 1270.13,-600.747 1264,-576 1254.68,-538.403 1231.77,-499.65 1215.56,-475.459"/>
<polygon fill="black" stroke="black" points="1218.26,-473.205 1209.72,-466.933 1212.49,-477.161 1218.26,-473.205"/>
</g>
<!-- node80994 -->
<g id="node21" class="node"><title>node80994</title>
<ellipse fill="none" stroke="black" cx="686" cy="-738" rx="27" ry="18"/>
<text text-anchor="middle" x="686" y="-733.8" font-family="Monospace" font-size="14.00">:sh</text>
</g>
<!-- node80994&#45;&gt;node80981 -->
<g id="edge69" class="edge"><title>node80994&#45;&gt;node80981</title>
<path fill="none" stroke="black" d="M697.54,-721.465C704.273,-712.402 712.901,-700.786 720.46,-690.612"/>
<polygon fill="black" stroke="black" points="723.338,-692.606 726.492,-682.492 717.719,-688.432 723.338,-692.606"/>
</g>
<!-- node80995 -->
<g id="node22" class="node"><title>node80995</title>
<ellipse fill="none" stroke="black" cx="1086" cy="-378" rx="27" ry="18"/>
<text text-anchor="middle" x="1086" y="-373.8" font-family="Monospace" font-size="14.00">:sys</text>
</g>
<!-- node80995&#45;&gt;node80981 -->
<g id="edge71" class="edge"><title>node80995&#45;&gt;node80981</title>
<path fill="none" stroke="black" d="M1081.66,-395.897C1069.66,-439.125 1031.77,-554.378 956,-612 902.502,-652.685 822.076,-662.603 775.332,-664.746"/>
<polygon fill="black" stroke="black" points="774.918,-661.258 765.05,-665.116 775.169,-668.254 774.918,-661.258"/>
</g>
<!-- node80995&#45;&gt;node80988 -->
<g id="edge70" class="edge"><title>node80995&#45;&gt;node80988</title>
<path fill="none" stroke="black" d="M1094.11,-395.193C1105.09,-415.414 1126.63,-449.585 1155,-468 1211.42,-504.622 1246.53,-465.95 1302,-504 1325.06,-519.817 1342.23,-547.227 1352.58,-567.461"/>
<polygon fill="black" stroke="black" points="1349.44,-569.015 1356.98,-576.459 1355.73,-565.939 1349.44,-569.015"/>
</g>
<!-- node80996 -->
<g id="node23" class="node"><title>node80996</title>
<ellipse fill="none" stroke="black" cx="2422" cy="-738" rx="28.5754" ry="18"/>
<text text-anchor="middle" x="2422" y="-733.8" font-family="Monospace" font-size="14.00">:json</text>
</g>
<!-- node80998&#45;&gt;node80975 -->
<g id="edge72" class="edge"><title>node80998&#45;&gt;node80975</title>
<path fill="none" stroke="black" d="M1343.43,-78.8214C1313.72,-66.5192 1263.67,-45.7877 1230.99,-32.2493"/>
<polygon fill="black" stroke="black" points="1232.02,-28.8892 1221.44,-28.296 1229.34,-35.3564 1232.02,-28.8892"/>
</g>
<!-- node80999 -->
<g id="node26" class="node"><title>node80999</title>
<ellipse fill="none" stroke="black" cx="790" cy="-738" rx="59.0204" ry="18"/>
<text text-anchor="middle" x="790" y="-733.8" font-family="Monospace" font-size="14.00">:serialization</text>
</g>
<!-- node80999&#45;&gt;node80981 -->
<g id="edge73" class="edge"><title>node80999&#45;&gt;node80981</title>
<path fill="none" stroke="black" d="M777.412,-720.055C770.81,-711.167 762.619,-700.14 755.417,-690.446"/>
<polygon fill="black" stroke="black" points="758.18,-688.297 749.408,-682.356 752.561,-692.471 758.18,-688.297"/>
</g>
<!-- node81000 -->
<g id="node27" class="node"><title>node81000</title>
<ellipse fill="none" stroke="black" cx="217" cy="-738" rx="27" ry="18"/>
<text text-anchor="middle" x="217" y="-733.8" font-family="Monospace" font-size="14.00">:xml</text>
</g>
<!-- node81000&#45;&gt;node80974 -->
<g id="edge78" class="edge"><title>node81000&#45;&gt;node80974</title>
<path fill="none" stroke="black" d="M234.222,-724.047C305.849,-670.177 580.441,-463.655 666.825,-398.686"/>
<polygon fill="black" stroke="black" points="669.156,-401.313 675.044,-392.505 664.948,-395.718 669.156,-401.313"/>
</g>
<!-- node81000&#45;&gt;node80975 -->
<g id="edge76" class="edge"><title>node81000&#45;&gt;node80975</title>
<path fill="none" stroke="black" d="M190.432,-734.608C154.885,-730.171 91.5226,-717.793 50,-684 14.8106,-655.361 0,-640.37 0,-595 0,-595 0,-595 0,-161 0,-40.9815 959.65,-22.0557 1161.87,-19.3999"/>
<polygon fill="black" stroke="black" points="1162.04,-22.8982 1171.99,-19.2725 1161.95,-15.8988 1162.04,-22.8982"/>
</g>
<!-- node81000&#45;&gt;node80976 -->
<g id="edge80" class="edge"><title>node81000&#45;&gt;node80976</title>
<path fill="none" stroke="black" d="M211.342,-720.385C208,-693.873 208,-640.361 208,-595 208,-595 208,-595 208,-521 208,-472.994 241.93,-425.325 266.886,-399.258"/>
<polygon fill="black" stroke="black" points="269.675,-401.42 274.295,-391.886 264.737,-396.458 269.675,-401.42"/>
</g>
<!-- node81000&#45;&gt;node80976 -->
<g id="edge84" class="edge"><title>node81000&#45;&gt;node80976</title>
<path fill="none" stroke="black" d="M222.658,-720.385C226,-693.873 226,-640.361 226,-595 226,-595 226,-595 226,-521 226,-475.412 256.598,-430.128 276.362,-403.358"/>
<polygon fill="black" stroke="black" points="279.412,-405.124 282.589,-395.016 273.802,-400.936 279.412,-405.124"/>
</g>
<!-- node81000&#45;&gt;node80981 -->
<g id="edge79" class="edge"><title>node81000&#45;&gt;node80981</title>
<path fill="none" stroke="black" d="M243.166,-733.036C329.124,-720.883 602.089,-684.201 701.475,-671.436"/>
<polygon fill="black" stroke="black" points="702.154,-674.878 711.63,-670.139 701.267,-667.934 702.154,-674.878"/>
</g>
<!-- node81000&#45;&gt;node80981 -->
<g id="edge83" class="edge"><title>node81000&#45;&gt;node80981</title>
<path fill="none" stroke="black" d="M243.411,-733.856C329.685,-722.896 602.437,-686.286 701.612,-672.402"/>
<polygon fill="black" stroke="black" points="702.329,-675.835 711.744,-670.977 701.354,-668.904 702.329,-675.835"/>
</g>
<!-- node81000&#45;&gt;node80982 -->
<g id="edge74" class="edge"><title>node81000&#45;&gt;node80982</title>
<path fill="none" stroke="black" d="M207.938,-720.96C194.28,-695.234 170,-642.781 170,-595 170,-595 170,-595 170,-521 170,-439.876 198.099,-416.821 256,-360 317.985,-299.171 415.557,-261.681 466.864,-245.071"/>
<polygon fill="black" stroke="black" points="468.006,-248.381 476.484,-242.027 465.894,-241.707 468.006,-248.381"/>
</g>
<!-- node81000&#45;&gt;node80983 -->
<g id="edge77" class="edge"><title>node81000&#45;&gt;node80983</title>
<path fill="none" stroke="black" d="M194.969,-727.32C155.312,-708.227 76,-661.704 76,-595 76,-595 76,-595 76,-521 76,-381.299 44.1306,-304.772 152,-216 191.612,-183.401 973.803,-167.109 1159.64,-163.69"/>
<polygon fill="black" stroke="black" points="1159.84,-167.187 1169.78,-163.505 1159.71,-160.188 1159.84,-167.187"/>
</g>
<!-- node81000&#45;&gt;node80988 -->
<g id="edge81" class="edge"><title>node81000&#45;&gt;node80988</title>
<path fill="none" stroke="black" d="M243.69,-734.479C287.704,-730.899 377.491,-724.302 454,-720 546.163,-714.818 1201.72,-725.837 1284,-684 1311.6,-669.969 1332,-639.792 1345.75,-618.478"/>
<polygon fill="black" stroke="black" points="1348.76,-620.262 1351.23,-609.959 1342.87,-616.473 1348.76,-620.262"/>
</g>
<!-- node81000&#45;&gt;node80988 -->
<g id="edge85" class="edge"><title>node81000&#45;&gt;node80988</title>
<path fill="none" stroke="black" d="M243.79,-735.312C290.562,-732.021 389.079,-724.663 472,-720 564.163,-714.818 1219.72,-725.837 1302,-684 1328.31,-670.621 1348.09,-642.562 1358.21,-621.504"/>
<polygon fill="black" stroke="black" points="1361.52,-622.68 1362.28,-612.113 1355.1,-619.896 1361.52,-622.68"/>
</g>
<!-- node81000&#45;&gt;node80998 -->
<g id="edge75" class="edge"><title>node81000&#45;&gt;node80998</title>
<path fill="none" stroke="black" d="M191.765,-731.573C164.121,-724.557 119.761,-710.033 90,-684 55.5184,-653.837 38,-640.812 38,-595 38,-595 38,-595 38,-377 38,-298.248 47.1425,-260.67 112,-216 214.441,-145.446 1123.18,-101.715 1327.38,-92.727"/>
<polygon fill="black" stroke="black" points="1327.55,-96.2232 1337.39,-92.2898 1327.24,-89.2298 1327.55,-96.2232"/>
</g>
<!-- node81000&#45;&gt;node81002 -->
<g id="edge82" class="edge"><title>node81000&#45;&gt;node81002</title>
<path fill="none" stroke="black" d="M195.085,-727.295C179.38,-717.742 159.452,-701.998 147,-684 122.996,-649.307 114,-637.187 114,-595 114,-595 114,-595 114,-521 114,-422.391 151.197,-309.307 173.209,-260.078"/>
<polygon fill="black" stroke="black" points="176.464,-261.38 177.526,-250.838 170.122,-258.417 176.464,-261.38"/>
</g>
<!-- node81000&#45;&gt;node81002 -->
<g id="edge86" class="edge"><title>node81000&#45;&gt;node81002</title>
<path fill="none" stroke="black" d="M203.112,-722.461C191.425,-712.844 175.537,-699.229 165,-684 140.996,-649.307 132,-637.187 132,-595 132,-595 132,-595 132,-521 132,-423.548 168.329,-311.958 182.907,-261.837"/>
<polygon fill="black" stroke="black" points="186.307,-262.677 185.667,-252.101 179.572,-260.768 186.307,-262.677"/>
</g>
<!-- node81001&#45;&gt;node80975 -->
<g id="edge87" class="edge"><title>node81001&#45;&gt;node80975</title>
<path fill="none" stroke="black" d="M1337.97,-217.264C1312.02,-180.24 1246.95,-87.4139 1215.95,-43.1761"/>
<polygon fill="black" stroke="black" points="1218.65,-40.9388 1210.05,-34.759 1212.92,-44.9567 1218.65,-40.9388"/>
</g>
<!-- node81001&#45;&gt;node80983 -->
<g id="edge89" class="edge"><title>node81001&#45;&gt;node80983</title>
<path fill="none" stroke="black" d="M1327.51,-222.971C1302.33,-211.219 1260.35,-191.63 1231.26,-178.053"/>
<polygon fill="black" stroke="black" points="1232.47,-174.757 1221.93,-173.699 1229.51,-181.1 1232.47,-174.757"/>
</g>
<!-- node81001&#45;&gt;node80998 -->
<g id="edge88" class="edge"><title>node81001&#45;&gt;node80998</title>
<path fill="none" stroke="black" d="M1351.29,-215.871C1354.53,-191.67 1360.48,-147.211 1364.33,-118.393"/>
<polygon fill="black" stroke="black" points="1367.84,-118.565 1365.7,-108.189 1360.9,-117.637 1367.84,-118.565"/>
</g>
<!-- node81002&#45;&gt;node80975 -->
<g id="edge90" class="edge"><title>node81002&#45;&gt;node80975</title>
<path fill="none" stroke="black" d="M209.452,-222.684C271.496,-193.365 457.164,-109.276 621,-72 821.339,-26.419 1069.2,-19.8244 1161.81,-19.0282"/>
<polygon fill="black" stroke="black" points="1161.84,-22.5282 1171.81,-18.9601 1161.79,-15.5284 1161.84,-22.5282"/>
</g>
<!-- node81003&#45;&gt;node80974 -->
<g id="edge96" class="edge"><title>node81003&#45;&gt;node80974</title>
<path fill="none" stroke="black" d="M1165.25,-444.461C1075.93,-432.08 828.318,-397.757 732.02,-384.409"/>
<polygon fill="black" stroke="black" points="732.23,-380.904 721.844,-382.998 731.269,-387.838 732.23,-380.904"/>
</g>
<!-- node81003&#45;&gt;node80975 -->
<g id="edge99" class="edge"><title>node81003&#45;&gt;node80975</title>
<path fill="none" stroke="black" d="M1227.02,-440.246C1326.97,-408.545 1645.8,-293.688 1553,-144 1485.43,-35.0111 1312.63,-19.7151 1236.26,-18.4733"/>
<polygon fill="black" stroke="black" points="1236.17,-14.9725 1226.14,-18.383 1236.11,-21.9722 1236.17,-14.9725"/>
</g>
<!-- node81003&#45;&gt;node80977 -->
<g id="edge91" class="edge"><title>node81003&#45;&gt;node80977</title>
<path fill="none" stroke="black" d="M1188.4,-432.512C1175.77,-412.307 1151.66,-378.485 1122,-360 1095.66,-343.582 1015.3,-325.981 962.805,-315.76"/>
<polygon fill="black" stroke="black" points="963.183,-312.268 952.702,-313.816 961.86,-319.142 963.183,-312.268"/>
</g>
<!-- node81003&#45;&gt;node80979 -->
<g id="edge92" class="edge"><title>node81003&#45;&gt;node80979</title>
<path fill="none" stroke="black" d="M1169.43,-439.992C1128.47,-427.077 1053.21,-403.345 1009.62,-389.601"/>
<polygon fill="black" stroke="black" points="1010.63,-386.251 1000.04,-386.581 1008.53,-392.927 1010.63,-386.251"/>
</g>
<!-- node81003&#45;&gt;node80981 -->
<g id="edge95" class="edge"><title>node81003&#45;&gt;node80981</title>
<path fill="none" stroke="black" d="M1176.12,-463.871C1160.22,-473.772 1138.66,-488.369 1122,-504 1077.26,-545.988 1088.72,-580.602 1036,-612 992.306,-638.024 844.32,-654.994 774.735,-661.724"/>
<polygon fill="black" stroke="black" points="774.287,-658.25 764.663,-662.679 774.948,-665.219 774.287,-658.25"/>
</g>
<!-- node81003&#45;&gt;node80982 -->
<g id="edge101" class="edge"><title>node81003&#45;&gt;node80982</title>
<path fill="none" stroke="black" d="M1193.88,-431.942C1188.26,-412.112 1176.37,-379.605 1155,-360 1088.76,-299.233 1053.34,-309.256 966,-288 809.79,-249.982 617.264,-239.071 537.88,-236.077"/>
<polygon fill="black" stroke="black" points="538.004,-232.579 527.885,-235.719 537.754,-239.574 538.004,-232.579"/>
</g>
<!-- node81003&#45;&gt;node80983 -->
<g id="edge98" class="edge"><title>node81003&#45;&gt;node80983</title>
<path fill="none" stroke="black" d="M1198.06,-431.966C1198.23,-384.291 1198.7,-249.185 1198.9,-190.63"/>
<polygon fill="black" stroke="black" points="1202.4,-190.319 1198.94,-180.306 1195.4,-190.294 1202.4,-190.319"/>
</g>
<!-- node81003&#45;&gt;node80988 -->
<g id="edge94" class="edge"><title>node81003&#45;&gt;node80988</title>
<path fill="none" stroke="black" d="M1231.28,-454.685C1263.58,-460.027 1311.75,-472.963 1340,-504 1355.27,-520.775 1360.99,-546.26 1363.05,-565.666"/>
<polygon fill="black" stroke="black" points="1359.57,-566.04 1363.86,-575.728 1366.55,-565.48 1359.57,-566.04"/>
</g>
<!-- node81003&#45;&gt;node80995 -->
<g id="edge100" class="edge"><title>node81003&#45;&gt;node80995</title>
<path fill="none" stroke="black" d="M1176.67,-435.669C1158.81,-424.505 1133.19,-408.492 1113.74,-396.334"/>
<polygon fill="black" stroke="black" points="1115.35,-393.215 1105.01,-390.883 1111.64,-399.151 1115.35,-393.215"/>
</g>
<!-- node81003&#45;&gt;node80998 -->
<g id="edge97" class="edge"><title>node81003&#45;&gt;node80998</title>
<path fill="none" stroke="black" d="M1219.08,-435.695C1260.94,-407.801 1353.26,-338.556 1385,-252 1401.5,-206.996 1388.47,-150.502 1377.93,-117.8"/>
<polygon fill="black" stroke="black" points="1381.16,-116.414 1374.64,-108.063 1374.53,-118.657 1381.16,-116.414"/>
</g>
<!-- node81003&#45;&gt;node81001 -->
<g id="edge93" class="edge"><title>node81003&#45;&gt;node81001</title>
<path fill="none" stroke="black" d="M1209.35,-432.915C1235.66,-395.63 1300.93,-303.13 1332.01,-259.072"/>
<polygon fill="black" stroke="black" points="1335.02,-260.878 1337.93,-250.69 1329.3,-256.843 1335.02,-260.878"/>
</g>
</g>
</svg>