<?xml version="1.0" standalone="no"?>
<!DOCTYPE svg PUBLIC "-//W3C//DTD SVG 1.1//EN" "http://www.w3.org/Graphics/SVG/1.1/DTD/svg11.dtd" >
<svg xmlns="http://www.w3.org/2000/svg">
<metadata>
Created by FontPrep 20130207 at Mon Dec  8 19:39:54 2014
 By Alexander Gunnarson
Copyright (c) 1991, 1992 Adobe Systems Incorporated.  All Rights Reserved.Berthold Bodoni is a registered trademark of H. Berthold AG.
</metadata>
<defs>
<font id="6be3edb020c0dbf4b7afb1998ff60251" horiz-adv-x='1024' >
  <font-face 
    font-family="BodoniBE-Regular"
    font-weight="400"
    font-stretch="normal"
    units-per-em="2048"
    panose-1="2 0 5 4 8 0 0 2 0 3"
    ascent="1638"
    descent="-410"
    x-height="844"
    cap-height="1446"
    bbox="-250 -596 2370 1870"
    underline-thickness="102"
    underline-position="-102"
    unicode-range="U+000D-FB02"
  />
<missing-glyph 
 />
    <glyph glyph-name=".notdef" 
 />
    <glyph glyph-name=".null" horiz-adv-x="0" 
 />
    <glyph glyph-name="nonmarkingreturn" unicode="&#xd;" 
 />
    <glyph glyph-name="NULL" horiz-adv-x="0" 
 />
    <glyph glyph-name="NULL" horiz-adv-x="0" 
 />
    <glyph glyph-name="space" unicode=" " 
 />
    <glyph glyph-name="exclam" unicode="!" 
d="M195 114.5q0 53.5 36.5 90.5t90 37t90.5 -37t37 -90.5t-37 -90t-90.5 -36.5t-90 36.5t-36.5 90zM408.5 1426.5q37.5 -37.5 37.5 -105.5t-22 -172l-29 -139q-12 -70 -22.5 -129t-14.5 -105t-6 -85.5t-7 -116t-5 -148.5h-35q0 90 -5 164t-10 155.5t-40 264.5l-27 139
q-24 113 -24 179q0 67 41 101.5t86 34.5t82.5 -37.5z" />
    <glyph glyph-name="quotedbl" unicode="&#x22;" horiz-adv-x="811" 
d="M154 1460q0 21 20.5 47.5t65.5 26.5t60 -28.5t13 -59.5l-63 -520h-35l-57 493q-4 20 -4 41zM570 1534q24 0 48 -10q38 -16 37 -78l-65 -520h-35l-57 493l-2 31q0 41 25 62.5t49 21.5z" />
    <glyph glyph-name="numbersign" unicode="#" horiz-adv-x="1366" 
d="M545 623h237l35 227h-239zM96 539v84h363l30 227h-346v84h359l69 512h91l-72 -512h237l72 512h84l-70 -512h351v-84h-363l-33 -227h353v-84h-363l-80 -537h-82l78 537h-239l-76 -537h-88l75 537h-350z" />
    <glyph glyph-name="dollar" unicode="$" horiz-adv-x="1067" 
d="M773 446.5q-58 58.5 -195 128.5v-546q113 11 183 91.5t70 173.5q0 94 -58 152.5zM345 975.5q73 -65.5 161 -103.5v496q-105 -12 -169.5 -75t-64.5 -158q0 -94 73 -159.5zM252 760q-135 111 -135 263t111 269.5t278 128.5v181h69v-179q183 -4 291.5 -85.5t108.5 -182.5
q0 -73 -36 -95t-75 -22t-77.5 40t-38.5 126l2 49q-8 67 -44 87q-53 29 -131 32v-538l82 -39q51 -27 187.5 -102t136.5 -283q0 -154 -104 -285q-92 -107 -177.5 -125t-121.5 -25v-192h-70v192q-176 12 -303 109.5t-127 218.5q0 68 36 108t85 40t80.5 -40t31.5 -106l-4 -86
q-1 -85 33 -121q59 -64 168 -71v587l-115 58q-92 45 -141 88z" />
    <glyph glyph-name="percent" unicode="%" horiz-adv-x="1705" 
d="M1233 1399l-672 -1397h-86l674 1397h84zM1257.5 63.5q25.5 -36.5 98.5 -36.5t104 82q17 51 20 145.5t6 262.5t-18 245q-27 115 -117 115q-56 0 -85 -30t-45.5 -90.5t-16.5 -300.5t14 -298t39.5 -94.5zM1551 116q-94 -130 -214 -130t-206.5 145t-86.5 328q0 182 92 321.5
t210 139.5t208.5 -132t90.5 -337t-94 -335zM370 1372q-56 0 -85 -29.5t-45.5 -91.5t-16.5 -216q0 -326 15 -387q13 -53 38.5 -90.5t98.5 -37.5t104 82q17 51 20 145.5t6 262.5t-13 229q-15 61 -40.5 97t-81.5 36zM569.5 609q-94.5 -130 -207.5 -130q-63 0 -118.5 40
t-118 145t-62.5 289q0 183 92 322.5t211 139.5t208.5 -133t89.5 -338t-94.5 -335z" />
    <glyph glyph-name="ampersand" unicode="&#x26;" horiz-adv-x="1236" 
d="M233 456q-1 -88 53 -190t113.5 -158.5t156.5 -56.5t204 107l-328 501q-77 -31 -138 -88q-61 -58 -61 -115zM711 1001q0 88 -32 121t-101 33q-148 0 -148 -100q0 -54 57 -150l88 -133q136 49 136 229zM55 301q0 236 351 397l-84 133q-18 35 -37 72t-19 82t22.5 84
t62.5 67.5t97.5 45t160 16.5t178 -58.5t75.5 -127.5q0 -68 -47.5 -137t-216.5 -136l283 -434q81 81 99.5 210.5t20.5 182.5h-180v43h400v-43h-174q-21 -305 -140 -434l146 -223h157v-43h-350l-78 123q-14 -12 -42.5 -37t-105.5 -67t-203 -42q-209 0 -292.5 107.5
t-83.5 218.5z" />
    <glyph glyph-name="quotesingle" unicode="'" horiz-adv-x="425" 
d="M133 1453.5q0 16.5 8 34.5t30 32t46 14q76 0 76 -88l-66 -520h-34l-58 493q-2 18 -2 34.5z" />
    <glyph glyph-name="parenleft" unicode="(" horiz-adv-x="641" 
d="M369 578q0 -475 107.5 -692.5t144.5 -286.5l-54 -31q-89 120 -139 210q-113 203 -180.5 388t-67.5 430q0 441 387 995l56 -37q-254 -426 -254 -976z" />
    <glyph glyph-name="parenright" unicode=")" horiz-adv-x="641" 
d="M270 582q0 469 -107.5 689t-144.5 290l56 30q18 -27 59 -86t84 -135q100 -175 171 -369.5t71 -436.5t-110.5 -503.5t-276.5 -492.5l-56 37q254 426 254 977z" />
    <glyph glyph-name="asterisk" unicode="*" horiz-adv-x="894" 
d="M535 714q0 -100 -81 -100t-81 86q0 39 14 93l51 196l-26 15l-172 -148q-27 -20 -54.5 -37.5t-62.5 -17.5t-53.5 30.5t-18.5 64.5t34 51.5t93 33.5l219 57l-2 23l-196 72q-57 16 -91 34.5t-34 56.5t21.5 63.5t62.5 25.5t92 -62l168 -157l20 10l-51 201q-8 35 -12 51t-4 30
t3 27.5t12 26t25.5 21.5t52.5 9t51 -27.5t15 -52.5t-12 -90l-45 -196l23 -17l163 150q35 31 57.5 46t54.5 15t54.5 -23t22.5 -53t-10.5 -46.5t-26.5 -26.5t-76 -29l-223 -61l-2 -27l197 -63q89 -31 110 -59.5t21 -56.5t-25 -52.5t-53 -24.5t-49 15.5t-56 46.5l-163 163
l-21 -10l47 -200q17 -59 17 -77z" />
    <glyph glyph-name="plus" unicode="+" horiz-adv-x="1366" 
d="M727 551v-551h-90v551h-549v90h549v551h90v-551h551v-90h-551z" />
    <glyph glyph-name="comma" unicode="," horiz-adv-x="468" 
d="M336 4q0 89 -53 115l2 -21q0 -32 -24 -68t-78 -36t-84.5 33.5t-30.5 90.5t46 91.5t97 34.5q91 0 138.5 -60t47.5 -147q0 -88 -51 -183.5t-172 -181.5l-33 43q41 31 66.5 52.5t63.5 70.5t51.5 99.5t13.5 66.5z" />
    <glyph glyph-name="hyphen" unicode="-" horiz-adv-x="724" 
d="M649 688v-145h-573v145h573z" />
    <glyph glyph-name="period" unicode="." horiz-adv-x="468" 
d="M106 114.5q0 53.5 37 90.5t90.5 37t90 -37t36.5 -90.5t-36.5 -90t-90 -36.5t-90.5 36.5t-37 90z" />
    <glyph glyph-name="slash" unicode="/" horiz-adv-x="811" 
d="M770 1446l-604 -1446h-125l606 1446h123z" />
    <glyph glyph-name="zero" unicode="0" horiz-adv-x="1067" 
d="M534 1374q-84 0 -131 -48t-69.5 -134t-26.5 -204t-4 -253q1 -354 15 -443t23 -122t48.5 -91.5t147.5 -58.5q66 0 98.5 25t50.5 43q36 36 57 141.5t22 372.5q1 266 -4 393t-27.5 211t-69 126t-130.5 42zM995 692q0 -168 -43 -302t-109.5 -226t-148.5 -140.5t-171 -48.5
t-173 62.5t-181 220t-97 445.5t103.5 446t188.5 215t174 57t171 -52t146.5 -147.5t102 -228.5t37.5 -301z" />
    <glyph glyph-name="one" unicode="1" horiz-adv-x="1067" 
d="M674 43h215v-43h-645v43h227v1264q0 16 -5 26t-28 10l-205 -6v43l441 25v-1362z" />
    <glyph glyph-name="two" unicode="2" horiz-adv-x="1067" 
d="M74 0v102l315 326q189 193 239 274.5t67.5 146.5t17.5 119q0 95 -22 200t-104.5 149.5t-144.5 44.5q-113 0 -188.5 -73.5t-75.5 -160.5q0 -10 4 -29.5t25 -19.5q21 1 41 9t52 8t63.5 -27t31.5 -70t-31.5 -71.5t-73.5 -28.5q-76 0 -119.5 60t-43.5 127q0 137 104.5 237
t291.5 100t296 -107t109 -247q0 -174 -135.5 -318.5t-198.5 -209.5l-375 -369h506q82 5 109.5 21.5t33.5 64t9.5 66t6.5 35t5 22.5h39l-13 -381h-841z" />
    <glyph glyph-name="three" unicode="3" horiz-adv-x="1067" 
d="M244 731v49h59q63 2 197.5 21t134.5 307q0 105 -32.5 182.5t-153.5 77.5q-65 0 -116.5 -27.5t-51.5 -56.5q0 -12 16 -24q51 -41 51 -94t-30.5 -73t-67.5 -20t-64.5 35t-27.5 80q0 96 93.5 164.5t240.5 68.5t252.5 -90t105.5 -221t-109.5 -231t-259.5 -121
q203 -20 324 -107t121 -253t-128.5 -294.5t-353.5 -128.5q-169 0 -267.5 79.5t-98.5 176.5q0 55 30.5 90t78.5 35t74 -28.5t26 -74.5t-49 -89q-27 -18 -27 -39.5t63 -64t140 -42.5q139 0 217 101q61 82 61 223t-29.5 214t-82 112t-124 50t-155.5 13h-57z" />
    <glyph glyph-name="four" unicode="4" horiz-adv-x="1067" 
d="M84 434h465v746l-465 -744v-2zM756 1423v-989h192v164h49v-381h-49v160h-192v-334h168v-43h-570v43h195v334h-510v84l602 962h115z" />
    <glyph glyph-name="five" unicode="5" horiz-adv-x="1067" 
d="M456 842q107 0 197 -31t155.5 -87t104.5 -135t39 -219t-141 -267.5t-342 -127.5q-158 0 -264.5 76.5t-106.5 179.5q0 55 32 95.5t72 40.5t71.5 -24t31.5 -70q0 -74 -61 -115q-10 -8 -19.5 -13.5t-9.5 -16.5t19.5 -29.5t72.5 -47t142 -28.5t179.5 74.5t90.5 332.5
t-113.5 307t-207.5 49t-201 -63l32 590q4 57 35.5 71.5t116.5 14.5h352q35 0 50.5 3t27.5 25l14 27h33q-12 -125 -28 -156q-15 -30 -26 -42.5t-37 -20.5t-122 -8h-362l-25 -422q91 37 198 37z" />
    <glyph glyph-name="six" unicode="6" horiz-adv-x="1067" 
d="M753 699q-19 75 -51 114q-59 64 -154 64t-165 -79t-70 -326t57.5 -348t182.5 -101t172 97t47 301q0 203 -19 278zM338 827q93 101 253 101t285 -124t125 -336t-131.5 -352.5t-321.5 -140.5t-329 145.5t-139 451.5q0 307 138 493t293 281.5t376 136.5l2 -47
q-254 -53 -388 -201t-163 -408z" />
    <glyph glyph-name="seven" unicode="7" horiz-adv-x="1067" 
d="M977 1399q31 0 31 -21q0 -6 -2 -12l-166 -348q-57 -131 -92 -209t-54.5 -124t-31.5 -71.5t-38 -107.5t-26 -123q0 -40 6 -94l10 -53q25 -102 25 -140t-32 -79.5t-90 -41.5t-91 39.5t-33 91.5q0 86 44.5 201.5t127.5 286.5l301 629h-538q-81 0 -114.5 -18t-59.5 -91
l-41 -110l-43 10l106 385h801z" />
    <glyph glyph-name="eight" unicode="8" horiz-adv-x="1067" 
d="M535 705q-86 0 -133.5 -48.5t-72 -119.5t-24.5 -169q0 -354 225 -354q120 0 174 95.5t54 243.5t-34 221q-61 131 -189 131zM432 1346.5q-39 -31.5 -62.5 -88t-23.5 -188.5q0 -131 21.5 -185t59.5 -86.5t108 -32.5q104 0 149 78t47 225q4 309 -176 309q-84 0 -123 -31.5z
M202 84.5q-132 109.5 -132 262.5q0 152 112 257q100 89 273 129q-154 29 -241 118t-87 230t123.5 240.5t294.5 99.5t288 -105t117 -246.5t-89 -226.5t-214 -108l-22 -4l22 -4q159 -33 253.5 -133.5t94.5 -252.5q0 -151 -134 -258.5t-330.5 -107.5t-328.5 109.5z" />
    <glyph glyph-name="nine" unicode="9" horiz-adv-x="1067" 
d="M716 1265.5q-44 112.5 -184 112.5q-207 0 -220 -193.5t-13 -280.5q0 -196 40.5 -299t163.5 -103q122 0 189.5 96.5t67.5 325.5t-44 341.5zM731 571q-76 -114 -240 -114t-292.5 128.5t-128.5 332.5t137.5 354.5t329.5 150.5t322 -153t130 -418q0 -209 -76.5 -379
t-196.5 -292t-266.5 -191.5t-287.5 -81.5l10 45q264 36 401 213q59 74 101.5 184.5t56.5 220.5z" />
    <glyph glyph-name="colon" unicode=":" 
d="M193 114.5q0 53.5 36.5 90.5t90 37t90 -37t36.5 -90.5t-36.5 -90t-90 -36.5t-90 36.5t-36.5 90zM193 729q0 53 36.5 90t90 37t90 -37t36.5 -90t-36.5 -90t-90 -37t-90 37t-36.5 90z" />
    <glyph glyph-name="semicolon" unicode=";" 
d="M420 4q0 89 -53 115l2 -21q0 -32 -24 -68t-78 -36t-84.5 33.5t-30.5 90.5t46 91.5t97 34.5q91 0 138.5 -60t47.5 -147q0 -88 -51 -183.5t-172 -181.5l-33 43q41 31 66.5 52.5t63.5 70.5t51.5 99.5t13.5 66.5zM168 729q0 53 37 90t90 37t90 -37t37 -90t-37 -90t-90 -37
t-90 37t-37 90z" />
    <glyph glyph-name="less" unicode="&#x3c;" horiz-adv-x="1366" 
d="M1364 94v-100l-1364 672v120l1364 666v-100l-1272 -625z" />
    <glyph glyph-name="equal" unicode="=" horiz-adv-x="1366" 
d="M1366 467v-92h-1366v92h1366zM1366 825v-92h-1366v92h1366z" />
    <glyph glyph-name="greater" unicode="&#x3e;" horiz-adv-x="1366" 
d="M1366 666l-1364 -672v100l1272 633l-1272 625v100l1364 -666v-120z" />
    <glyph glyph-name="question" unicode="?" horiz-adv-x="811" 
d="M225 114.5q0 53.5 37 90.5t90.5 37t90 -37t36.5 -90.5t-36.5 -90t-90 -36.5t-90.5 36.5t-37 90zM315 548q0 80 14.5 149t40 120t60.5 89t76 79l53 47q37 37 76 85.5t39 96.5q0 90 -60 148.5t-171 58.5t-174.5 -44.5t-63.5 -82.5q0 -21 35 -43q23 -12 43 -31.5t20 -63.5
t-24.5 -70.5t-60.5 -26.5t-70.5 31.5t-34.5 89.5q0 115 89 199.5t240 84.5t242.5 -104t91.5 -238t-71 -233q-35 -51 -82.5 -87t-94.5 -69l-34 -31q-41 -35 -68 -60.5t-48.5 -67.5t-17.5 -140l-34 -20q-11 54 -11 134z" />
    <glyph glyph-name="at" unicode="@" horiz-adv-x="1835" 
d="M1012 1008q-66 0 -108 -35t-74 -76q-63 -82 -104.5 -219t-41.5 -250t52 -158t102 -45q76 0 165 70.5t154 325t-7 321t-138 66.5zM1225 308q0 -28 15 -58.5t59 -30.5t100.5 45t138.5 175.5t82 346.5q0 255 -164.5 430t-413.5 175t-396 -116.5t-260.5 -311.5t-113.5 -455
q0 -318 183 -506t516 -188q258 0 408.5 88.5t265.5 199.5l41 -51q-122 -122 -288 -213.5t-446 -91.5q-375 0 -592 207.5t-217 540.5q0 233 114.5 457t320 365.5t456.5 141.5q304 0 481 -199t177 -457q0 -259 -95.5 -403.5t-173 -200t-163.5 -55.5q-115 0 -135.5 67.5
t-20.5 95.5t4 48q-76 -148 -167 -178.5t-135 -30.5q-102 0 -177.5 90t-75.5 233q0 142 39 247.5t102.5 184.5t142.5 124t149 45q115 0 162 -51t77 -125l28 119h111l-55 -252q-6 -33 -20.5 -97.5t-29 -134t-24.5 -131t-10 -89.5z" />
    <glyph glyph-name="A" unicode="A" horiz-adv-x="1236" 
d="M295 506h405l-202 598zM328 43v-43h-385v43h139l487 1407h66l469 -1407h151l2 -43h-591v43h190l-141 418h-436l-140 -418h189z" />
    <glyph glyph-name="B" unicode="B" horiz-adv-x="1280" 
d="M465 731v-688h76q189 0 245 19q97 33 129.5 126t32.5 194t-22.5 178t-87.5 120q-45 32 -119.5 41.5t-222.5 9.5h-31zM465 1403v-629h53q161 0 221 17q98 29 135 104.5t37 233t-108 227.5q-49 33 -113.5 39t-167.5 8h-57zM66 43h182v1360h-191v43h383q150 0 254.5 -5
t188.5 -32q150 -48 209 -134t59 -173q0 -152 -118.5 -241t-260.5 -103q186 -13 311 -107.5t125 -269.5q0 -176 -149 -283q-129 -94 -274.5 -96t-223.5 -2h-495v43z" />
    <glyph glyph-name="C" unicode="C" horiz-adv-x="1236" 
d="M694 1417q-45 0 -107.5 -22.5t-101.5 -58.5q-75 -69 -102 -201t-27 -354t1 -305t15 -177t83 -170q91 -104 251 -104q161 0 273 112q57 57 87 119.5t64 149.5h35l-8 -406h-31l-75 102q-57 -45 -148.5 -86t-208 -41t-227.5 52.5t-198 147.5t-140 230.5t-53 312.5
t59.5 319.5t152.5 238.5t206.5 145t224.5 49t187.5 -37.5t150.5 -84.5l67 98h31l4 -379h-43q-33 131 -92 202.5t-120.5 104.5t-113 38t-96.5 5z" />
    <glyph glyph-name="D" unicode="D" horiz-adv-x="1449" 
d="M481 1401v-1356h111q138 0 228.5 16.5t156.5 79.5q81 74 103 201t22 367q0 241 -10 319t-26 140.5t-60 110.5q-74 81 -158.5 99t-308.5 23h-58zM63 43h183v1360h-170v43h461q111 0 205 -4t182 -31q193 -59 320.5 -241t127.5 -443q0 -326 -207 -541
q-162 -167 -319.5 -176.5t-218.5 -9.5h-564v43z" />
    <glyph glyph-name="E" unicode="E" horiz-adv-x="1236" 
d="M68 0v43h182v1360h-178v43h1034l16 -397h-28q-12 36 -20.5 71t-15.5 59t-39 79q-56 97 -132.5 121t-251.5 24h-162v-649h66q136 0 185.5 36t56.5 95t12 135h34v-596h-32q-8 180 -57 232.5t-201 52.5h-64v-666h234q164 0 209 14.5t74.5 40t73.5 96.5t89 257h29l-39 -451
h-1075z" />
    <glyph glyph-name="F" unicode="F" horiz-adv-x="1150" 
d="M565 709h-90v-666h184v-43h-596v43h185v1360h-185v43h1043l24 -410h-34q-16 92 -45 173t-87 129t-113 56.5t-181 8.5h-195v-649h86q135 0 184.5 15.5t67.5 76.5q21 49 21 184h38v-590h-36q-7 186 -55 223t-98 41.5t-118 4.5z" />
    <glyph glyph-name="G" unicode="G" horiz-adv-x="1366" 
d="M1339 457h-135q-13 -129 -40 -188q-55 -119 -175 -206.5t-300 -87.5t-294 82t-192 196q-129 189 -129 462q0 138 55 337.5t243.5 308.5t312.5 109t200 -32.5t137 -73.5l68 82h34l13 -428h-39q-57 287 -187.5 347t-200.5 60q-213 0 -294 -161q-62 -116 -62 -539v-165
q0 -164 21.5 -261.5t75 -186.5t209.5 -89q155 0 229 118q41 68 48 149t7 167h-213v47h608v-47z" />
    <glyph glyph-name="H" unicode="H" horiz-adv-x="1536" 
d="M1055 713h-572v-670h187v-43h-602v43h176v1360h-178v43h598v-43h-181v-635h572v635h-187v43h594v-43h-172v-1360h178v-43h-596v43h183v670z" />
    <glyph glyph-name="I" unicode="I" horiz-adv-x="724" 
d="M664 1403h-181v-1360h181v-43h-594v43h176v1360h-178v43h596v-43z" />
    <glyph glyph-name="J" unicode="J" horiz-adv-x="811" 
d="M807 1403h-180l-4 -1045q0 -102 -11 -207t-114 -213t-262 -108q-102 0 -160 53.5t-58 112.5t33 94t78 35t74.5 -31.5t29.5 -73.5t-22 -75l-12 -19q-6 -6 -6 -15t14 -24.5t48 -15.5t65.5 23.5t47.5 63.5t18.5 87t4.5 137v1221h-180v43h596v-43z" />
    <glyph glyph-name="K" unicode="K" horiz-adv-x="1409" 
d="M645 1403h-170v-1360h182v-43h-598v43h185v1360h-187v43h588v-43zM1411 43v-43h-569v43h184l-528 711l577 649h-211v43h463v-43h-182l-461 -520l625 -840h102z" />
    <glyph glyph-name="L" unicode="L" horiz-adv-x="1236" 
d="M61 0v43h185v1360h-185v43h596v-43h-174v-1360h236q135 0 221.5 21.5t127 121t52.5 144.5l29 116h35l-39 -446h-1084z" />
    <glyph glyph-name="M" unicode="M" horiz-adv-x="1662" 
d="M1589 1403h-176v-1360h193v-43h-598v43h186v1319l-416 -1362h-55l-430 1378v-1335h186v-43h-405v43h170v1360h-178v43h450l326 -1067l319 1067h428v-43z" />
    <glyph glyph-name="N" unicode="N" horiz-adv-x="1409" 
d="M1223 1403v-1403h-39l-760 1163q-93 139 -125 195v-1315h188v-43h-430v43h189v1360h-183v43h455l424 -653q59 -88 106.5 -164t66 -105.5t34.5 -57.5t22 -38v975h-172v43h385v-43h-161z" />
    <glyph glyph-name="O" unicode="O" horiz-adv-x="1409" 
d="M1057 734q0 363 -42 478t-136 159t-147 44q-264 0 -341 -207q-41 -108 -41 -491q0 -150 5 -261.5t39 -230t172 -167.5t261 -5q82 29 128 80t69 131t28 191.5t5 278.5zM76 723q0 145 33 248q69 215 226 357t370 142q164 0 278 -76t177 -159q63 -82 94.5 -147.5t48 -129
t22.5 -123t6 -149t-38 -236t-158 -271t-228 -164.5t-197 -40q-89 1 -163 23t-157 77.5t-198.5 203.5t-115.5 444z" />
    <glyph glyph-name="P" unicode="P" horiz-adv-x="1236" 
d="M477 1401v-658h148q90 2 150.5 10.5t100.5 53.5t54 102t14 189t-26 184t-54 73t-77 33.5t-214 12.5h-96zM608 1446q92 0 169 -3t145 -24q135 -39 209.5 -133t74.5 -219t-75 -207.5t-172 -117.5q-97 -36 -183 -41t-178 -5h-121v-653h185v-43h-594v43h180v1362h-185v41h545
z" />
    <glyph glyph-name="Q" unicode="Q" horiz-adv-x="1409" 
d="M1055 734q0 363 -42 478t-136 159t-148 44q-264 0 -340 -207q-41 -108 -41 -491q0 -150 5 -261.5t38 -229.5t172 -168q138 -50 262 -5q82 29 128 80t68.5 131t28 191.5t5.5 278.5zM1249 -471q-502 0 -576.5 147t-79.5 212t-5 100q-91 24 -176.5 70t-180.5 171
q-157 211 -157 494q0 145 33 248q69 215 226 357t369 142q164 0 311.5 -98t231.5 -270t84 -379q0 -145 -40 -275t-159.5 -271t-306.5 -187q0 -139 15.5 -198.5t42.5 -104.5t67 -67q63 -35 122.5 -43.5t178.5 -16.5v-31z" />
    <glyph glyph-name="R" unicode="R" horiz-adv-x="1323" 
d="M477 1401v-608h74q144 0 236.5 26.5t119.5 113.5t27 147q0 145 -53 220q-72 96 -179.5 98.5t-154.5 2.5h-70zM479 43h183v-43h-596v43h184v1360h-191v43h568q153 0 254.5 -16t174.5 -69q128 -94 128 -248t-125 -246.5t-318 -104.5q168 -24 279 -123q72 -64 94.5 -148.5
t22.5 -201.5v-58q-9 -190 98 -190q27 0 86 22l14 -36q-115 -61 -210 -34t-136 64q-70 63 -89 142.5t-19 183.5l-4 90q-6 88 -30 151.5t-102 95.5t-266 23v-700z" />
    <glyph glyph-name="S" unicode="S" horiz-adv-x="1067" 
d="M885 348q0 136 -70 188t-119 67t-92 28l-82 22q-157 35 -232 86q-147 100 -147 284t109 315.5t293 131.5q113 0 182.5 -38.5t85.5 -51.5l74 90h31l12 -378h-56q-12 66 -31.5 124t-74.5 108q-102 93 -217 93t-203 -67.5t-88 -185.5t61.5 -157.5t114.5 -56t119 -35.5
l78 -18q51 -14 115.5 -36.5t158.5 -100t94 -286.5t-113.5 -354t-308.5 -145q-194 0 -333 131l-78 -106h-47l-12 446h59q25 -162 62 -212q38 -51 62.5 -79t90.5 -74t166 -46q171 0 253.5 88.5t82.5 224.5z" />
    <glyph glyph-name="T" unicode="T" horiz-adv-x="1280" 
d="M958 43v-43h-641v43h207v1360h-57q-140 0 -175.5 -16.5t-65.5 -40.5q-58 -48 -100.5 -153.5t-57.5 -201.5h-37l18 455h1174l32 -455h-32q-45 167 -115 287t-163 122.5t-132 2.5h-53v-1360h198z" />
    <glyph glyph-name="U" unicode="U" horiz-adv-x="1366" 
d="M1317 1403h-158v-887q2 -88 -6 -189t-55 -173q-79 -122 -183 -150.5t-230 -28.5t-223.5 42.5t-141.5 90.5q-71 75 -91 167t-20 202v926h-182v43h589v-43h-186v-965q0 -70 7 -145.5t48 -133.5t114 -96t153 -38q127 0 195.5 45.5t94.5 89.5q51 74 59.5 160t8.5 163v920
h-180v43h387v-43z" />
    <glyph glyph-name="V" unicode="V" horiz-adv-x="1323" 
d="M20 1405v43h576v-43h-199l361 -1063l342 1063h-209v43h407v-43h-143l-461 -1428h-49l-493 1428h-132z" />
    <glyph glyph-name="W" unicode="W" horiz-adv-x="1792" 
d="M1008 1038l129 367h-260zM889 705l-252 700h-254l371 -1079zM23 1405v43h1296v-43h-129l-156 -444l217 -623l336 1067h-194v43h366v-43h-114l-453 -1428h-49l-230 646l-231 -646h-43l-498 1428h-118z" />
    <glyph glyph-name="X" unicode="X" horiz-adv-x="1323" 
d="M1305 43v-43h-576v43h184l-329 569l-351 -569h201v-43h-414v43h154l381 616l-432 744h-113v43h584v-43h-203l303 -518l320 518h-193v43h410v-43h-156l-350 -565l459 -795h121z" />
    <glyph glyph-name="Y" unicode="Y" horiz-adv-x="1323" 
d="M780 43h209v-43h-639v43h203v639l-426 721h-115v43h566v-43h-183l344 -594q10 -18 21 -43l334 637h-215v43h421v-43h-147l-373 -719v-641z" />
    <glyph glyph-name="Z" unicode="Z" horiz-adv-x="1150" 
d="M662 43q137 0 181 14.5t72.5 37t76.5 94.5t89 266h31l-41 -455h-1061v51l834 1352h-344q-66 0 -120 -7t-109 -56t-88 -143.5t-62 -197.5h-33l43 447h1004l-861 -1403h388z" />
    <glyph glyph-name="bracketleft" unicode="[" horiz-adv-x="724" 
d="M741 -356v-54h-512v1977h512v-54h-321v-1869h321z" />
    <glyph glyph-name="backslash" unicode="\" horiz-adv-x="811" 
d="M770 0h-125l-604 1446h123z" />
    <glyph glyph-name="bracketright" unicode="]" horiz-adv-x="724" 
d="M-16 1513v54h512v-1977h-512v54h321v1869h-321z" />
    <glyph glyph-name="asciicircum" unicode="^" horiz-adv-x="1366" 
d="M739 1448l344 -705h-114l-283 590l-289 -590h-112l352 705h102z" />
    <glyph glyph-name="underscore" unicode="_" horiz-adv-x="1024" 
d="M1044 -154v-102h-1064v102h1064z" />
    <glyph glyph-name="grave" unicode="`" 
d="M494 1001q0 -12 -10 -12t-19 6l-391 371q-4 4 -9.5 9t-5.5 11q0 13 21 13h188l219 -379q7 -14 7 -19z" />
    <glyph glyph-name="a" unicode="a" horiz-adv-x="937" 
d="M586 430q-217 0 -267.5 -77t-50.5 -147t40 -103t97 -33t107 47q49 47 59.5 104.5t14.5 134.5v74zM821 35q33 0 66 37l24 -29q-16 -16 -51.5 -42t-103.5 -26t-110 34t-51 70t-13 66q-35 -68 -102.5 -119t-169.5 -51t-168 52.5t-66 147.5t97 193.5t413 98.5v205
q-6 73 -31.5 114t-117.5 41t-127.5 -36.5t-35.5 -52.5t21.5 -38t21.5 -57t-26.5 -61.5t-67.5 -26.5t-65.5 28.5t-24.5 66.5q0 83 96.5 150.5t243.5 67.5q162 0 248 -86q41 -41 48 -91t7 -109v-428q0 -53 6 -86t39 -33z" />
    <glyph glyph-name="b" unicode="b" horiz-adv-x="1067" 
d="M358 423q0 -309 100.5 -357t146.5 -48t96.5 40.5t50.5 164.5v29l2 186l-6 221q-2 8 -8.5 35t-35.5 77t-121 50t-156 -106t-66.5 -187.5t-2.5 -104.5zM609 868q162 0 269 -124t107 -309t-109 -322.5t-268 -137.5q-98 0 -158.5 51.5t-89.5 116.5l2 -143h-327v43h133v1360
h-133v43h325v-752q33 78 98.5 126t150.5 48z" />
    <glyph glyph-name="c" unicode="c" horiz-adv-x="894" 
d="M500 -25q-172 0 -295 127t-123 317t131 319.5t315 129.5q133 0 220.5 -69t87.5 -152q0 -49 -30 -82t-75 -33t-70.5 34t-25.5 82t41 89q10 15 10 21q0 14 -40 41.5t-126 27.5t-135 -47t-60.5 -119.5t-15.5 -141t-4 -144.5t2.5 -130.5t18.5 -101.5t60 -85t116 -38
q125 0 206 76t103 178h51q-35 -195 -155.5 -247t-206.5 -52z" />
    <glyph glyph-name="d" unicode="d" horiz-adv-x="1067" 
d="M698 403q0 188 -57 289q-73 127 -176 127q-81 0 -112.5 -58.5t-34.5 -116.5t-5 -91t-2 -41v-86q-6 -181 6.5 -244t39 -112.5t111.5 -49.5t157.5 97.5t72.5 285.5zM446 -25q-57 0 -121.5 26t-153.5 116.5t-89 303.5t112.5 330t249.5 117q106 0 167.5 -57.5t90.5 -118.5
v711h-155v43h352v-1403h135v-43h-332v160q-80 -185 -256 -185z" />
    <glyph glyph-name="e" unicode="e" horiz-adv-x="937" 
d="M643 612q0 91 -29.5 151t-130.5 60q-73 0 -116 -39q-43 -35 -51.5 -82t-8.5 -94l-2 -76h338v80zM210.5 102q-128.5 127 -128.5 312q0 184 122 319t276 135t266.5 -95.5t123.5 -283.5h-563v-137q0 -136 25.5 -234t177.5 -98q113 0 194.5 79.5t98.5 181.5h49
q-17 -117 -111.5 -211.5t-248.5 -94.5q-153 0 -281.5 127z" />
    <glyph glyph-name="f" unicode="f" horiz-adv-x="598" 
d="M517 1438q-23 0 -52 -6.5t-51 -43.5t-25.5 -72.5t-3.5 -74.5v-395h199v-43h-197v-760h178v-43h-549v43h181v760h-174v43h174v198q0 306 126.5 365t198.5 59t125 -42t53 -91t-24.5 -79.5t-62.5 -30.5t-63.5 25.5t-25.5 71.5t43 89q-27 27 -50 27z" />
    <glyph glyph-name="g" unicode="g" horiz-adv-x="937" 
d="M250 -147q-72 -78 -72 -140q0 -110 64.5 -182t185.5 -72t195.5 33t118.5 81t62.5 100.5t18.5 88.5q0 70 -43 82.5t-131 10.5l-172 -7h-91q-91 0 -136 5zM313 465q0 -72 25 -119t113 -47q89 0 114 51.5t25 164.5v106q0 106 -10 137q-22 69 -134 69t-120.5 -70.5
t-10.5 -99.5l-1 -19zM139 119q0 -80 27 -80h143l305 2q126 0 201.5 -38.5t75.5 -201.5t-124.5 -280t-310.5 -117t-298.5 77.5t-112.5 184.5q0 63 45 117.5t123 77.5q-162 55 -162 190q0 102 96 195q42 39 97 69q-135 92 -135 241t102.5 229.5t245.5 80.5t241 -90
q80 80 139.5 80t89 -25.5t29.5 -59.5t-20.5 -59.5t-68.5 -25.5t-62 57q-5 22 -9.5 31.5t-19 9.5t-27 -12t-22.5 -22q70 -88 70 -176q0 -152 -101.5 -234t-225.5 -82t-187 37q-61 -47 -102.5 -88t-41.5 -88z" />
    <glyph glyph-name="h" unicode="h" horiz-adv-x="1150" 
d="M383 723q109 145 321 145q76 0 133 -25t81 -51q36 -40 45.5 -88t9.5 -110v-551h135v-43h-467v43h131v563q0 94 -23 147.5t-124 53.5t-170 -88q-45 -56 -56 -117t-16 -213v-346h131v-43h-467v43h137v1360h-127v43h326v-723z" />
    <glyph glyph-name="i" unicode="i" 
d="M41 844h332v-801h133v-43h-467v43h141v758h-139v43zM147 1292q0 51 35 86t86 35t86 -35t35 -86t-35 -86t-86 -35t-86 35t-35 86z" />
    <glyph glyph-name="j" unicode="j" horiz-adv-x="512" 
d="M33 844h334v-948q0 -111 -4.5 -183.5t-36.5 -142.5t-99 -113t-123 -43q-100 0 -158.5 41.5t-58.5 102.5t28.5 84.5t61.5 23.5t58.5 -24.5t25.5 -53.5t-4 -49l-2 -22q-8 -60 41 -60q73 0 75.5 80t2.5 115v1149h-141v43zM150 1290q0 51 34.5 86t86 35t86 -35t34.5 -86
t-34.5 -86t-86 -35t-86 35t-34.5 86z" />
    <glyph glyph-name="k" unicode="k" horiz-adv-x="1067" 
d="M1069 43v-43h-465v43h109l-310 412l363 346h-213v43h436v-43h-147l-273 -256l402 -502h98zM45 1446h334v-1403h141v-43h-473v43h131v1360h-133v43z" />
    <glyph glyph-name="l" unicode="l" 
d="M27 1446h354v-1403h156v-43h-506v43h151v1360h-155v43z" />
    <glyph glyph-name="m" unicode="m" horiz-adv-x="1622" 
d="M1196 868q129 0 197 -71q35 -37 42 -84t7 -88v-582h137v-43h-463v43h129v565q0 102 -21.5 151.5t-109.5 49.5t-149 -80q-37 -53 -44.5 -112.5t-9.5 -149.5v-424h125v-43h-461v43h134v549q0 118 -19 151q-12 35 -45 49.5t-69 14.5t-77.5 -22.5t-72.5 -63.5t-39 -101.5
t-12 -152.5v-424h127v-43h-463v43h139v758h-141v43h334v-90q29 22 111 76q22 14 74 26t103 12q174 0 238 -125q125 125 299 125z" />
    <glyph glyph-name="n" unicode="n" horiz-adv-x="1110" 
d="M653 868q131 0 211 -84q34 -41 51 -80.5t17 -138.5v-522h135v-43h-459v43h129v551q0 88 -8 120q-14 56 -49.5 75.5t-88.5 19.5t-102 -40t-80.5 -101.5t-31.5 -266.5v-358h137v-43h-465v43h133v758h-133v43h328v-123q108 147 276 147z" />
    <glyph glyph-name="o" unicode="o" horiz-adv-x="1024" 
d="M303 366q0 -108 9.5 -178.5t62.5 -117.5t131 -47q137 0 171 73t37 155.5t3 146.5v104q0 104 -10.5 164.5t-40.5 92.5q-58 62 -148 62q-210 0 -212.5 -173.5t-2.5 -281.5zM206 105q-130 130 -130 317t129.5 316.5t308.5 129.5t306.5 -127.5t127.5 -318.5t-129.5 -319
t-305.5 -128q-177 0 -307 130z" />
    <glyph glyph-name="p" unicode="p" horiz-adv-x="1067" 
d="M612 823q-91 0 -163 -101t-72 -298t70.5 -299t161.5 -102q92 0 120.5 97.5t28.5 276.5t-6 254q-14 172 -140 172zM41 844h328v-152q44 76 103.5 126t147.5 50q164 0 267.5 -124t103.5 -308t-105.5 -322.5t-252.5 -138.5q-188 0 -264 189v-701h157v-43h-487v43h133v1338
h-131v43z" />
    <glyph glyph-name="q" unicode="q" horiz-adv-x="1067" 
d="M690 420q0 84 -8 148.5t-41 121.5t-80 92t-104.5 35t-95.5 -40t-49 -107.5t-12 -239.5t8 -240q9 -69 45 -119.5t106 -50.5t133 60q63 66 80.5 161t17.5 179zM1026 801h-133v-1338h141v-43h-506v43h168v691q-39 -78 -90.5 -128.5t-140.5 -50.5q-170 0 -280.5 127.5
t-110.5 322.5q0 194 106.5 318.5t249.5 124.5t196.5 -71.5t67.5 -104.5v152h332v-43z" />
    <glyph glyph-name="r" unicode="r" horiz-adv-x="768" 
d="M41 844h336v-199q45 130 113.5 173.5t126.5 43.5t96.5 -33t38.5 -83t-30 -80.5t-74 -30.5t-69.5 24.5t-29.5 61.5t-5.5 47t-11.5 10q-48 0 -91 -96q-40 -90 -52 -183.5t-12 -205.5v-250h133v-43h-467v43h139v758h-141v43z" />
    <glyph glyph-name="s" unicode="s" horiz-adv-x="724" 
d="M70 0v322h36l31 -99q31 -88 94.5 -141t151.5 -53t143.5 49.5t55.5 98.5q0 50 -16.5 74.5t-42 39t-55.5 21.5t-56 14l-64 10q-114 20 -158 47t-78 83t-34 122q0 123 71.5 201.5t188.5 78.5t207 -80l37 68h34v-254h-38q-14 90 -79 152.5t-155 62.5t-141 -47t-51 -92
t20.5 -65.5t48 -32t57 -16.5t48.5 -11l73 -14q105 -22 184 -75.5t79 -186.5t-79 -217.5t-200 -84.5t-233 93l-52 -68h-28z" />
    <glyph glyph-name="t" unicode="t" horiz-adv-x="598" 
d="M141 285v516h-133v28q96 42 172 134t94.5 140t26.5 81h31v-340h219v-43h-219v-611q0 -70 16 -109.5t102.5 -39.5t104.5 117h45q-16 -73 -62 -128t-167 -55q-76 0 -148 37.5t-77 116t-5 156.5z" />
    <glyph glyph-name="u" unicode="u" horiz-adv-x="1110" 
d="M156 297v504h-133v43h329v-596q0 -108 24 -162.5t111 -54.5t146 49q86 65 92 176t6 180v365h-137v43h330v-801h139v-43h-332v113q-82 -138 -287 -138q-145 0 -221 76q-45 45 -56 105t-11 141z" />
    <glyph glyph-name="v" unicode="v" horiz-adv-x="937" 
d="M29 801v43h452v-43h-157l82 -203q18 -50 74 -193q57 -144 71 -196l223 592h-164v43h308v-43h-87l-313 -826h-76l-327 826h-86z" />
    <glyph glyph-name="w" unicode="w" horiz-adv-x="1366" 
d="M20 801v43h455v-43h-143l92 -240q48 -133 111 -319l188 602h76l98 -273q78 -207 121 -338l174 568h-141v43h295v-43h-99l-260 -826h-67l-230 592l-186 -592h-64l-319 826h-101z" />
    <glyph glyph-name="x" unicode="x" horiz-adv-x="980" 
d="M956 43v-43h-407v43h96l-213 303l-229 -303h166v-43h-349v43h119l264 346l-284 412h-96v43h454v-43h-131l178 -254l193 254h-139v43h321v-43h-117l-227 -297l315 -461h86z" />
    <glyph glyph-name="y" unicode="y" horiz-adv-x="937" 
d="M920 801h-84l-426 -1157q-37 -102 -88.5 -166t-123.5 -64q-73 0 -101.5 38t-28.5 77t28.5 67.5t83.5 28.5t86 -49q12 -22 30 -22t28 19t32 81l123 334l-364 813h-92v43h464v-43h-155l241 -561l203 561h-153v43h297v-43z" />
    <glyph glyph-name="z" unicode="z" horiz-adv-x="854" 
d="M774 0h-743l520 801h-90q-135 0 -177 -22.5t-69 -62.5t-39 -80t-16 -54.5t-9.5 -27.5t-8.5 -24.5t-5 -15.5h-31v330h699l-529 -801h148q119 0 170 16.5t84 77.5q39 81 53 143t19 78h24v-358z" />
    <glyph glyph-name="braceleft" unicode="{" horiz-adv-x="724" 
d="M248 207q0 170 -15.5 223t-43 85t-76.5 46v39q16 6 71.5 24t58.5 135.5t3 172.5v237q0 144 21.5 231.5t103.5 143.5q39 27 93 35t157 12v-39q-16 -6 -88 -26.5t-84.5 -120.5t-12.5 -193v-165q0 -129 -3 -211t-18.5 -132.5t-45 -78t-82.5 -47.5q57 -20 92 -58
q42 -56 50.5 -130t8.5 -255v-188q0 -76 5 -133.5t33 -105.5t69 -68.5t76 -32.5v-39q-135 5 -241.5 37t-119 152t-12.5 206v244z" />
    <glyph glyph-name="bar" unicode="|" horiz-adv-x="468" 
d="M279 1536v-2048h-91v2048h91z" />
    <glyph glyph-name="braceright" unicode="}" horiz-adv-x="724" 
d="M477 948q0 -170 15.5 -223t43 -85t76.5 -46v-39q-35 -10 -62.5 -26.5t-40.5 -50.5q-20 -53 -25 -98.5t-5 -156.5v-237q0 -146 -22 -232.5t-103 -142.5q-39 -27 -93 -35t-157 -12v39q33 10 78.5 29.5t69.5 67.5t30.5 99t6.5 144v166q0 129 3 210.5t18.5 132t45 78
t82.5 48.5q-95 33 -123 105t-28 337v188q0 76 -5.5 133.5t-33.5 105.5t-68.5 68.5t-75.5 32.5v39q115 -4 190 -20.5t121 -76.5t54 -136t8 -162v-244z" />
    <glyph glyph-name="asciitilde" unicode="~" horiz-adv-x="1366" 
d="M233 569q101 152 215 152q70 0 124.5 -19.5t127.5 -54.5l64 -31q89 -38 127 -38q102 0 192 131l52 -80q-100 -131 -160 -142.5t-102 -11.5q-42 -1 -151 51q-110 52 -161 73.5t-105 21.5t-91 -35t-82 -94z" />
    <glyph glyph-name="exclamdown" unicode="&#xa1;" 
d="M231 -18q-43 0 -82.5 34.5t-39.5 106.5t22 176l29 139q37 192 45 354.5t8 227.5h37q0 -190 13.5 -311t41.5 -271l27 -139q24 -113 24 -180q0 -68 -41 -102.5t-84 -34.5zM104 1331q0 53 37 90t90.5 37t90 -37t36.5 -90t-36.5 -90t-90 -37t-90.5 37t-37 90z" />
    <glyph glyph-name="cent" unicode="&#xa2;" horiz-adv-x="897" 
d="M348 89q47 -58 125 -69v803q-109 -18 -143 -127q-29 -90 -29 -319q0 -230 47 -288zM532 -229h-59v204q-154 13 -274.5 133.5t-120.5 304.5t113 308.5t284 144.5v191h60v-189q140 -11 211 -79.5t71 -128.5t-28.5 -92.5t-81.5 -32.5t-72 37.5t-19 75.5t26 69t26 41
t-27 35.5t-106 33.5v-804q82 10 153 69t105 180h55q-37 -119 -118 -202.5t-198 -92.5v-206z" />
    <glyph glyph-name="sterling" unicode="&#xa3;" horiz-adv-x="1193" 
d="M236 231q-62 0 -86.5 -27.5t-24.5 -57.5t38.5 -64.5t104.5 -34.5q156 0 232 76l-94 53q-108 55 -170 55zM670 419q0 -66 -35 -194l78 -43q128 -65 184 -65q57 0 93 24q59 40 75 97.5t16 111.5v25h62q0 -257 -103.5 -328.5t-200 -71.5t-190.5 52l-90 55
q-39 -33 -114 -63.5t-149 -30.5q-124 0 -184.5 48t-60.5 114q0 104 88 133.5t152 29.5q139 0 276 -61q8 40 8 100q0 90 -98 201h-317v74h262l-82 100q-75 93 -112.5 157.5t-37.5 136.5q0 151 136 276.5t340 125.5q157 0 269 -92t112 -205q0 -66 -40.5 -109.5t-90.5 -43.5
t-80.5 31.5t-30.5 65.5q0 69 43 99q25 23 31 31t6 44.5t-55 85t-142 48.5q-149 0 -225 -93t-76 -216q0 -81 25.5 -132.5t53.5 -93.5t66 -100l78 -116h322v-74h-291q29 -68 29 -134z" />
    <glyph glyph-name="currency" unicode="&#xa4;" horiz-adv-x="1366" 
d="M981 995.5q-119 120.5 -299 120.5t-298 -123.5t-118 -299.5t124 -297.5t297 -121.5t293 121t120 300.5t-119 300zM358 1087q150 117 301 117q143 0 212.5 -32t136.5 -85l147 146l68 -68l-146 -147q62 -90 88.5 -153t26.5 -171q0 -183 -119 -323l150 -150l-70 -67
l-147 147q-147 -115 -327 -115t-319 117l-149 -147l-68 67l150 148q-63 85 -91 151.5t-28 148.5q0 125 28.5 194t90.5 155l-146 145l68 68z" />
    <glyph glyph-name="yen" unicode="&#xa5;" horiz-adv-x="1323" 
d="M989 43v-43h-639v43h203v416h-371v53h371v123l-49 84h-322v53h289l-344 584h-115v43h566v-43h-183l365 -639l334 639h-213v43h422v-43h-150l-301 -584h274v-53h-305l-41 -84v-123h346v-53h-346v-416h209z" />
    <glyph glyph-name="brokenbar" unicode="&#xa6;" horiz-adv-x="468" 
d="M190 -391v780h91v-780h-91zM281 631h-91v780h91v-780z" />
    <glyph glyph-name="section" unicode="&#xa7;" horiz-adv-x="980" 
d="M614 764l-151 76q-74 41 -122 41q-80 0 -124.5 -51t-44.5 -101q0 -79 49.5 -119.5t155.5 -89.5l164 -82q81 -39 134 -39q54 0 97 48.5t43 114.5t-45 106t-156 96zM250 1251q0 -74 43 -112.5t135 -83.5l213 -107q154 -79 210 -138t56 -165q0 -147 -72.5 -205.5
t-129.5 -77.5q84 -49 140 -113.5t56 -147.5q0 -156 -121.5 -250.5t-306.5 -94.5q-184 0 -290.5 80.5t-106.5 183.5q0 59 39 104.5t88 45.5t89 -28.5t40 -90.5q0 -97 -61.5 -119t-100.5 -18q50 -64 133 -89.5t151 -25.5q136 0 229 54t93 159q0 78 -54 121t-151 90l-249 129
q-125 61 -163 99t-57.5 81t-19.5 129t61.5 158.5t141.5 91.5q-148 95 -148 233t94 232t263 94t260.5 -69.5t91.5 -159.5q0 -59 -40 -95t-90 -36t-81 32t-31 76t38 74.5t91 40.5q-77 97 -216 97q-140 0 -203.5 -52.5t-63.5 -126.5z" />
    <glyph glyph-name="dieresis" unicode="&#xa8;" 
d="M-39 1194q0 47 32 79t79 32t78.5 -32t31.5 -79t-31.5 -79t-78.5 -32t-79 32t-32 79zM371 1194q0 47 31.5 79t78.5 32t79 -32t32 -79t-32 -79t-79 -32t-78.5 32t-31.5 79z" />
    <glyph glyph-name="copyright" unicode="&#xa9;" horiz-adv-x="1705" 
d="M758.5 1114.5q-95.5 -26.5 -130 -145t-34.5 -189.5q0 -147 24.5 -255.5t94.5 -173.5q70 -66 203 -66t178 61.5t55 105.5t16 80h43v-256l-194 -20q-43 -4 -85.5 -8t-96.5 -4q-129 0 -206 45t-143.5 136.5t-66.5 287.5t55 288q57 100 153.5 141.5t178.5 41.5t188 -13l43 -4
q61 -7 137 -10l29 -256h-43q-27 112 -77.5 176t-137.5 64q-88 0 -183.5 -26.5zM1518 722q0 136 -50.5 258t-138.5 212t-209 142t-262 52t-264 -52t-212 -143t-140.5 -212t-51.5 -260t53.5 -260t143.5 -210t211 -139.5t260 -50.5t260 53.5t210 143.5t139.5 210t50.5 256z
M1583 718q0 -151 -57.5 -283t-155.5 -230.5t-231 -154.5t-283 -56t-281 53t-231 150.5t-159.5 231.5t-59.5 292q0 310 212.5 520.5t516.5 210.5q160 0 294 -58.5t230.5 -158.5t150.5 -233t54 -284z" />
    <glyph glyph-name="ordfeminine" unicode="&#xaa;" horiz-adv-x="641" 
d="M197 1050q-1 -98 81 -98q32 0 68 29q29 29 35 62.5t10 86.5v41q-78 0 -136 -30.5t-58 -90.5zM391 1331q-1 94 -83 94q-48 0 -77.5 -19.5t-29.5 -30.5t13 -22t13 -37t-17 -45.5t-46 -19.5t-46.5 20.5t-17.5 46.5t16.5 51.5t65.5 59t149.5 33.5t153.5 -55q29 -29 33 -62.5
t4 -70.5v-275q0 -35 3 -52t20 -17t43 26l22 -26q-47 -47 -104 -47q-96 0 -115 96q-10 -12 -23.5 -29.5t-48 -42t-101.5 -24.5t-111 34.5t-44 86.5q0 91 78 146q78 56 250 56v125z" />
    <glyph glyph-name="guillemotleft" unicode="&#xab;" horiz-adv-x="724" 
d="M303 475l240 232h135l-242 -232l242 -223h-135zM53 475l248 232h129l-244 -232l242 -223h-135z" />
    <glyph glyph-name="logicalnot" unicode="&#xac;" horiz-adv-x="1366" 
d="M1276 0v549h-1276v94h1366v-643h-90z" />
    <glyph glyph-name="registered" unicode="&#xae;" horiz-adv-x="1705" 
d="M811 799q110 0 184 30.5t74 120.5q0 164 -194 164q-105 0 -127.5 -26t-22.5 -121v-168h86zM1121.5 1129.5q84.5 -46.5 84.5 -165.5q0 -120 -82 -162t-147 -52q59 -16 88.5 -62.5t46.5 -116.5l18 -77q14 -59 26 -88t36 -29q38 0 52.5 29t27.5 83l51 -8q-23 -133 -69 -175
t-88 -42t-68.5 16.5t-45 47t-30.5 76t-26 104.5q-33 135 -61 174t-122 47h-88v-262q0 -82 17 -107t89 -36v-52q-47 4 -56 4h-87q-78 0 -184 -4v52q67 11 80.5 32t13.5 113v537q0 70 -13.5 90t-80.5 28v52q95 -5 166 -5l28 1l197 4q142 0 226.5 -46.5zM1518 719
q0 137 -49.5 258t-138.5 212t-211 144t-263 53t-262 -52t-211 -142t-141.5 -211t-51.5 -259t52.5 -260t142.5 -211t210 -140.5t259 -51.5t260 52.5t210 141.5t141.5 209t52.5 257zM1583 718q0 -151 -57.5 -283t-155.5 -230.5t-231 -154.5t-281 -56t-280 53t-232 149.5
t-160.5 230.5t-60.5 294t58.5 293t157.5 230t232 152.5t285 55.5t286 -58.5t232.5 -158.5t152.5 -233t54 -284z" />
    <glyph glyph-name="macron" unicode="&#xaf;" 
d="M551 1253v-116h-547v116h547z" />
    <glyph glyph-name="degree" unicode="&#xb0;" horiz-adv-x="724" 
d="M164 1231q0 -84 57.5 -141.5t141 -57.5t141 57.5t57.5 141.5t-57.5 141.5t-141 57.5t-141 -57.5t-57.5 -141.5zM72 1230.5q0 59.5 22.5 113t62.5 93.5t93 62.5t112.5 22.5t112.5 -22.5t93 -62.5t62.5 -93.5t22.5 -113t-22.5 -112.5t-62.5 -93t-93 -62.5t-112.5 -22.5
t-112.5 22.5t-93 62.5t-62.5 93t-22.5 112.5z" />
    <glyph glyph-name="plusminus" unicode="&#xb1;" horiz-adv-x="1366" 
d="M1282 94v-94h-1198v94h1198zM733 780v-542h-94v542h-555v92h555v543h94v-543h549v-92h-549z" />
    <glyph glyph-name="twosuperior" unicode="&#xb2;" horiz-adv-x="724" 
d="M207 1206q31 0 52.5 -19.5t21.5 -48t-21.5 -49t-62.5 -20.5t-70 41t-29 84t16.5 81t48.5 68.5t80 50t139.5 19.5t165 -68t73.5 -173t-87.5 -197t-127.5 -133l-228 -226h307q61 0 71.5 17.5t14.5 38.5l13 78h37l-9 -256h-546v75l202 209q113 117 147 171.5t45 94.5t11 82
t-6 86.5t-38 86.5q-48 63 -118 63t-118 -43.5t-48 -97.5q0 -25 15 -25l10 2z" />
    <glyph glyph-name="threesuperior" unicode="&#xb3;" horiz-adv-x="724" 
d="M166 961v43h43q98 0 152.5 39t54.5 156t-35 144t-79 27t-72.5 -18.5t-28.5 -26.5t7 -13t21.5 -22.5t14.5 -38.5q0 -20 -12.5 -45.5t-48.5 -25.5t-54 24.5t-18 57.5q0 59 56.5 106t158.5 47t170.5 -58.5t68.5 -142.5t-57 -144t-146 -85q105 -16 162 -55q90 -68 90 -176
t-82 -191.5t-212 -83.5t-194.5 52.5t-64.5 117.5q0 37 21.5 60.5t55.5 23.5t51.5 -20.5t17.5 -54.5t-35 -58q-12 -10 -12 -18t33.5 -36t93.5 -28q90 0 128 62.5t38 144.5q0 148 -57.5 188.5t-186.5 47.5h-43z" />
    <glyph glyph-name="acute" unicode="&#xb4;" 
d="M457 1399q24 0 24 -19q0 -10 -16 -26l-363 -359q-12 -6 -21 -5.5t-9 14.5t10 24l209 371h166z" />
    <glyph glyph-name="mu" unicode="&#xb5;" horiz-adv-x="1110" 
d="M731 0v115q-37 -68 -103 -104t-136 -36t-96.5 13.5t-43.5 27.5v-553h158v-43h-487v43h133v1338h-133v43h329v-572q6 -126 31 -183.5t119 -57.5q122 0 190 115q28 46 32.5 126t6.5 164v365h-137v43h330v-801h139v-43h-332z" />
    <glyph glyph-name="paragraph" unicode="&#xb6;" horiz-adv-x="1366" 
d="M1010 1370v-1712h-80v1712h-334v-1712h-80v1034q-129 11 -221 94q-105 102 -105 278.5t119 278.5q109 103 338 103h430v-76h-67z" />
    <glyph glyph-name="periodcentered" unicode="&#xb7;" horiz-adv-x="468" 
d="M111 612.5q0 53.5 35.5 89t89 35.5t89 -35.5t35.5 -89t-35.5 -89.5t-89 -36t-89 36t-35.5 89.5z" />
    <glyph glyph-name="cedilla" unicode="&#xb8;" 
d="M311 -111q129 0 158 -44.5t29 -72.5q0 -63 -63 -116t-172 -53t-158.5 41t-49.5 88t35 47q16 0 30.5 -17.5t14.5 -50.5l-4 -28q0 -10 24.5 -26.5t71.5 -16.5t78 29.5t31 70.5q0 69 -33.5 92t-73.5 35l29 113h51l-26 -91h28z" />
    <glyph glyph-name="onesuperior" unicode="&#xb9;" horiz-adv-x="724" 
d="M317 1335q0 17 -14 17l-137 -4v38l295 17v-871h137v-38h-424v38h143v803z" />
    <glyph glyph-name="ordmasculine" unicode="&#xba;" horiz-adv-x="681" 
d="M346 1423q-87 0 -121 -75q-12 -36 -12 -51v-158q0 -72 6 -115t39 -73q33 -29 80 -29q106 1 117.5 67.5t11.5 137.5v62q0 62 -2 89q0 145 -119 145zM540 964.5q-85 -81.5 -198 -81.5q-114 0 -199.5 83.5t-85.5 205.5q0 123 85.5 206.5t201.5 83.5t198.5 -84.5t82.5 -208.5
q0 -123 -85 -204.5z" />
    <glyph glyph-name="guillemotright" unicode="&#xbb;" horiz-adv-x="724" 
d="M424 483l-242 -231h-135l242 231l-242 224h135zM672 483l-248 -231h-127l242 231l-242 224h135z" />
    <glyph glyph-name="onequarter" unicode="&#xbc;" horiz-adv-x="1705" 
d="M317 1335q0 17 -14 17l-137 -4v38l295 17v-871h137v-38h-424v38h143v803zM1348 289v448l-281 -448h281zM1280 1397l-670 -1397h-86l672 1397h84zM1491 920v-631h111v104h43v-256h-43v105h-111v-203h108v-39h-376v39h125v203h-326v59l387 619h82z" />
    <glyph glyph-name="onehalf" unicode="&#xbd;" horiz-adv-x="1705" 
d="M1190 713q29 0 51.5 -18.5t22.5 -48.5t-20.5 -50.5t-62.5 -20.5t-71 40.5t-29 84.5t16.5 81.5t48.5 68.5t80 50.5t139.5 19.5t165 -69t73.5 -161q0 -118 -87 -210.5t-128 -131.5l-228 -225h307q45 0 62 9.5t24 45.5l13 78h37l-9 -256h-546v76l202 209q118 122 160.5 190
t42.5 171q0 102 -46 162t-116 60q-71 0 -118.5 -43t-47.5 -98q0 -25 15 -25l9 3zM1235 1397l-674 -1397h-86l676 1397h84zM317 1335q0 17 -14 17l-137 -4v38l295 17v-871h137v-38h-424v38h143v803z" />
    <glyph glyph-name="threequarters" unicode="&#xbe;" horiz-adv-x="1705" 
d="M166 961v43h43q98 0 152.5 39t54.5 156t-35 144t-79 27t-72.5 -18.5t-28.5 -26.5t5 -11t21.5 -20.5t16.5 -39.5t-12.5 -48t-48.5 -26t-54 24.5t-18 57.5q0 59 56.5 106t158.5 47t170.5 -58.5t68.5 -142.5t-57 -144t-146 -85q105 -16 162 -55q90 -68 90 -177t-84 -191.5
t-213 -82.5t-193.5 52.5t-64.5 117.5q0 37 21.5 60.5t55.5 23.5t51.5 -20.5t17.5 -54.5t-35 -58q-12 -10 -12 -18t33.5 -36t109.5 -28t114 62.5t38 144.5q0 149 -58.5 189t-187.5 47h-41zM1348 289v448l-279 -448h279zM1257 1401l-671 -1401h-86l674 1401h83zM1491 920v-631
h113v104h43v-256h-43v105h-113v-203h108v-39h-374v39h123v203h-324v59l385 619h82z" />
    <glyph glyph-name="questiondown" unicode="&#xbf;" horiz-adv-x="811" 
d="M496 898q0 -160 -45.5 -251t-145.5 -186l-53 -47q-117 -110 -117 -182q0 -90 59.5 -148.5t171.5 -58.5t175 44.5t63 82.5q0 21 -33 43q-23 12 -43 31.5t-20 63.5t23.5 70.5t59.5 26.5t70.5 -31.5t34.5 -89.5q0 -114 -87.5 -199t-240.5 -85t-244 104t-91 238t71 233
q35 51 82 87t95 69l36 30q87 70 112.5 121t21.5 150l34 18q11 -54 11 -134zM330 1331q0 53 36.5 90t90 37t90.5 -37t37 -90t-37 -90t-90.5 -37t-90 37t-36.5 90z" />
    <glyph glyph-name="Agrave" unicode="&#xc0;" horiz-adv-x="1236" 
d="M766 1597q0 -18 -18 -18q-8 0 -13.5 2t-11.5 4l-522 189q-16 6 -28.5 13t-12.5 23.5t8 19.5t18 3h222l335 -209q23 -15 23 -27zM295 506h405l-202 598zM328 43v-43h-385v43h139l487 1407h66l469 -1407h151l2 -43h-591v43h190l-141 418h-436l-140 -418h189z" />
    <glyph glyph-name="Aacute" unicode="&#xc1;" horiz-adv-x="1236" 
d="M469 1595q0 10 7 15.5t11 9.5l342 213h218q26 0 26 -22t-41 -37l-518 -191q-12 -6 -28 -6t-17 18zM295 506h405l-202 598zM328 43v-43h-385v43h139l487 1407h66l469 -1407h151l2 -43h-591v43h190l-141 418h-436l-140 -418h189z" />
    <glyph glyph-name="Acircumflex" unicode="&#xc2;" horiz-adv-x="1236" 
d="M995 1588q0 -19 -22 -13l-359 100l-346 -98q-8 -4 -12 -4q-14 0 -14 13t22 24l352 227l363 -233q16 -8 16 -16zM295 506h405l-202 598zM328 43v-43h-385v43h139l487 1407h66l469 -1407h151l2 -43h-591v43h190l-141 418h-436l-140 -418h189z" />
    <glyph glyph-name="Atilde" unicode="&#xc3;" horiz-adv-x="1236" 
d="M729 1604q-38 0 -125 30l-65 23q-23 6 -45.5 12t-63.5 6t-70.5 -25.5t-48.5 -47.5l-35 18q58 114 124.5 154.5t112.5 40.5t79 -10.5t63 -20.5l72 -27q58 -20 101 -20t106 71l31 -14q-105 -190 -236 -190zM295 506h405l-202 598zM328 43v-43h-385v43h139l487 1407h66
l469 -1407h151l2 -43h-591v43h190l-141 418h-436l-140 -418h189z" />
    <glyph glyph-name="Adieresis" unicode="&#xc4;" horiz-adv-x="1236" 
d="M367 1599q-43 0 -75 31t-32 76t32 77t79 32t78.5 -33t29.5 -80t-35.5 -75t-76.5 -28zM827 1599q-43 0 -74.5 31t-31.5 76t31.5 77t79 32t79 -33t29.5 -80t-36 -75t-77 -28zM295 506h405l-202 598zM328 43v-43h-385v43h139l487 1407h66l469 -1407h151l2 -43h-591v43h190
l-141 418h-436l-140 -418h189z" />
    <glyph glyph-name="Aring" unicode="&#xc5;" horiz-adv-x="1236" 
d="M599 1810q-44 0 -75.5 -30.5t-31.5 -76.5t32.5 -77t76.5 -31t77 32t32 78t-34 75.5t-77 29.5zM768 1705q0 -71 -48 -119t-119 -48t-119 48t-48 117t48 118t118 49t119 -47t49 -118zM295 506h405l-202 598zM328 43v-43h-385v43h139l487 1407h66l469 -1407h151l2 -43h-591
v43h190l-141 418h-436l-140 -418h189z" />
    <glyph glyph-name="AE" unicode="&#xc6;" horiz-adv-x="1835" 
d="M856 506v878l-424 -878h424zM670 0v43h186v412h-450l-199 -412h215v-43h-440v43h165l658 1360h-213v43h1126l15 -406h-31q-42 262 -153.5 311t-225 50.5t-238.5 1.5v-647h56q45 2 74.5 3t54.5 5t64 33q38 28 50.5 89.5t16.5 131.5h35v-590h-37q-7 139 -25 178
q-32 70 -86 86.5t-147 16.5h-56v-666h166q205 0 253 16.5t109.5 62t95.5 162.5t50 171h25l-25 -455h-1089z" />
    <glyph glyph-name="Ccedilla" unicode="&#xc7;" horiz-adv-x="1236" 
d="M470 -221q26 0 40 -18.5t14 -51.5l-4 -28q0 -10 25.5 -26.5t71.5 -16.5t77 29.5t31 71.5q0 66 -32 90.5t-75 37.5l29 110q-139 18 -209 62q-70 45 -126 93t-146 183t-90 392q0 188 59.5 330.5t152.5 238.5t206.5 145t195.5 49q127 0 203 -32.5t164 -89.5l67 98h31l4 -379
h-43q-33 131 -123.5 240.5t-255.5 109.5t-254 -84q-73 -65 -100 -197.5t-27 -354.5t2 -385.5t94 -266.5q92 -104 252 -104q161 0 273 112q59 57 89 119.5t64 149.5h35l-8 -406h-31l-75 102q-156 -121 -355 -127l-24 -86h28q129 0 158 -44.5t29 -72.5q0 -62 -62 -116.5
t-172 -54.5t-159.5 41t-49.5 89t26 48z" />
    <glyph glyph-name="Egrave" unicode="&#xc8;" horiz-adv-x="1236" 
d="M766 1597q0 -18 -18 -18q-8 0 -13.5 2t-11.5 4l-522 189q-16 6 -28.5 13t-12.5 23.5t8 19.5t18 3h222l335 -209q23 -15 23 -27zM68 0v43h182v1360h-178v43h1034l16 -397h-28q-12 36 -20.5 71t-15.5 59t-39 79q-56 97 -132.5 121t-251.5 24h-162v-649h66q136 0 185.5 36
t56.5 95t12 135h34v-596h-32q-8 180 -57 232.5t-201 52.5h-64v-666h234q164 0 209 14.5t74.5 40t73.5 96.5t89 257h29l-39 -451h-1075z" />
    <glyph glyph-name="Eacute" unicode="&#xc9;" horiz-adv-x="1236" 
d="M469 1595q0 10 7 15.5t11 9.5l342 213h218q26 0 26 -22t-41 -37l-518 -191q-12 -6 -28 -6t-17 18zM68 0v43h182v1360h-178v43h1034l16 -397h-28q-12 36 -20.5 71t-15.5 59t-39 79q-56 97 -132.5 121t-251.5 24h-162v-649h66q136 0 185.5 36t56.5 95t12 135h34v-596h-32
q-8 180 -57 232.5t-201 52.5h-64v-666h234q164 0 209 14.5t74.5 40t73.5 96.5t89 257h29l-39 -451h-1075z" />
    <glyph glyph-name="Ecircumflex" unicode="&#xca;" horiz-adv-x="1236" 
d="M995 1588q0 -19 -22 -13l-359 100l-346 -98q-8 -4 -12 -4q-14 0 -14 13t22 24l352 227l363 -233q16 -8 16 -16zM68 0v43h182v1360h-178v43h1034l16 -397h-28q-12 36 -20.5 71t-15.5 59t-39 79q-56 97 -132.5 121t-251.5 24h-162v-649h66q136 0 185.5 36t56.5 95t12 135
h34v-596h-32q-8 180 -57 232.5t-201 52.5h-64v-666h234q164 0 209 14.5t74.5 40t73.5 96.5t89 257h29l-39 -451h-1075z" />
    <glyph glyph-name="Edieresis" unicode="&#xcb;" horiz-adv-x="1236" 
d="M381 1599q-43 0 -75 31t-32 76t32 77t79 32t79 -33t30 -80t-36 -75t-77 -28zM842 1599q-43 0 -75 31t-32 76t32 77t79 32t78.5 -33t29.5 -80t-35.5 -75t-76.5 -28zM68 0v43h182v1360h-178v43h1034l16 -397h-28q-12 36 -20.5 71t-15.5 59t-39 79q-56 97 -132.5 121
t-251.5 24h-162v-649h66q136 0 185.5 36t56.5 95t12 135h34v-596h-32q-8 180 -57 232.5t-201 52.5h-64v-666h234q164 0 209 14.5t74.5 40t73.5 96.5t89 257h29l-39 -451h-1075z" />
    <glyph glyph-name="Igrave" unicode="&#xcc;" horiz-adv-x="724" 
d="M510 1597q0 -18 -18 -18q-8 0 -13.5 2t-11.5 4l-522 189q-16 6 -28.5 13t-12.5 23.5t8 19.5t18 3h222l335 -209q23 -15 23 -27zM664 1403h-181v-1360h181v-43h-594v43h176v1360h-178v43h596v-43z" />
    <glyph glyph-name="Iacute" unicode="&#xcd;" horiz-adv-x="724" 
d="M213 1595q0 10 7 15.5t11 9.5l342 213h218q26 0 26 -22t-41 -37l-518 -191q-12 -6 -28 -6t-17 18zM664 1403h-181v-1360h181v-43h-594v43h176v1360h-178v43h596v-43z" />
    <glyph glyph-name="Icircumflex" unicode="&#xce;" horiz-adv-x="724" 
d="M739 1588q0 -19 -22 -13l-359 100l-346 -98q-8 -4 -12 -4q-14 0 -14 13t22 24l352 227l363 -233q16 -8 16 -16zM664 1403h-181v-1360h181v-43h-594v43h176v1360h-178v43h596v-43z" />
    <glyph glyph-name="Idieresis" unicode="&#xcf;" horiz-adv-x="724" 
d="M125 1599q-43 0 -75 31t-32 76t32 77t79 32t79 -33t30 -80t-36 -75t-77 -28zM586 1599q-43 0 -75 31t-32 76t32 77t79 32t78.5 -33t29.5 -80t-35.5 -75t-76.5 -28zM664 1403h-181v-1360h181v-43h-594v43h176v1360h-178v43h596v-43z" />
    <glyph glyph-name="Eth" unicode="&#xd0;" horiz-adv-x="1449" 
d="M585 1403q-62 0 -104 -4v-555h334v-62h-334v-737l111 -2q76 0 261 14t230 308q14 90 15.5 186t2.5 142.5t1 126.5q0 346 -103 466q-103 108 -227.5 112.5t-186.5 4.5zM63 41h183v741h-183v62h183v559h-170v43h512q183 0 294 -23.5t222 -103.5q268 -207 268 -613
q0 -130 -52 -270t-138 -230t-155 -127.5t-149 -58t-251 -20.5h-564v41z" />
    <glyph glyph-name="Ntilde" unicode="&#xd1;" horiz-adv-x="1409" 
d="M815 1604q-38 0 -125 30l-65 23q-23 6 -45.5 12t-63.5 6t-70.5 -25.5t-48.5 -47.5l-35 18q58 114 124.5 154.5t112.5 40.5t79 -10.5t63 -20.5l72 -27q58 -20 101 -20t106 71l31 -14q-105 -190 -236 -190zM1223 1403v-1403h-39l-760 1163q-93 139 -125 195v-1315h188v-43
h-430v43h189v1360h-183v43h455l424 -653q59 -88 106.5 -164t66 -105.5t34.5 -57.5t22 -38v975h-172v43h385v-43h-161z" />
    <glyph glyph-name="Ograve" unicode="&#xd2;" horiz-adv-x="1409" 
d="M852 1597q0 -18 -18 -18q-8 0 -13.5 2t-11.5 4l-522 189q-16 6 -28.5 13t-12.5 23.5t8 19.5t18 3h222l335 -209q23 -15 23 -27zM1057 734q0 363 -42 478t-136 159t-147 44q-264 0 -341 -207q-41 -108 -41 -491q0 -150 5 -261.5t39 -230t172 -167.5t261 -5q82 29 128 80
t69 131t28 191.5t5 278.5zM76 723q0 145 33 248q69 215 226 357t370 142q164 0 278 -76t177 -159q63 -82 94.5 -147.5t48 -129t22.5 -123t6 -149t-38 -236t-158 -271t-228 -164.5t-197 -40q-89 1 -163 23t-157 77.5t-198.5 203.5t-115.5 444z" />
    <glyph glyph-name="Oacute" unicode="&#xd3;" horiz-adv-x="1409" 
d="M555 1595q0 10 7 15.5t11 9.5l342 213h218q26 0 26 -22t-41 -37l-518 -191q-12 -6 -28 -6t-17 18zM1057 734q0 363 -42 478t-136 159t-147 44q-264 0 -341 -207q-41 -108 -41 -491q0 -150 5 -261.5t39 -230t172 -167.5t261 -5q82 29 128 80t69 131t28 191.5t5 278.5z
M76 723q0 145 33 248q69 215 226 357t370 142q164 0 278 -76t177 -159q63 -82 94.5 -147.5t48 -129t22.5 -123t6 -149t-38 -236t-158 -271t-228 -164.5t-197 -40q-89 1 -163 23t-157 77.5t-198.5 203.5t-115.5 444z" />
    <glyph glyph-name="Ocircumflex" unicode="&#xd4;" horiz-adv-x="1409" 
d="M1081 1588q0 -19 -22 -13l-359 100l-346 -98q-8 -4 -12 -4q-14 0 -14 13t22 24l352 227l363 -233q16 -8 16 -16zM1057 734q0 363 -42 478t-136 159t-147 44q-264 0 -341 -207q-41 -108 -41 -491q0 -150 5 -261.5t39 -230t172 -167.5t261 -5q82 29 128 80t69 131t28 191.5
t5 278.5zM76 723q0 145 33 248q69 215 226 357t370 142q164 0 278 -76t177 -159q63 -82 94.5 -147.5t48 -129t22.5 -123t6 -149t-38 -236t-158 -271t-228 -164.5t-197 -40q-89 1 -163 23t-157 77.5t-198.5 203.5t-115.5 444z" />
    <glyph glyph-name="Otilde" unicode="&#xd5;" horiz-adv-x="1409" 
d="M815 1604q-38 0 -125 30l-65 23q-23 6 -45.5 12t-63.5 6t-70.5 -25.5t-48.5 -47.5l-35 18q58 114 124.5 154.5t112.5 40.5t79 -10.5t63 -20.5l72 -27q58 -20 101 -20t106 71l31 -14q-105 -190 -236 -190zM1057 734q0 363 -42 478t-136 159t-147 44q-264 0 -341 -207
q-41 -108 -41 -491q0 -150 5 -261.5t39 -230t172 -167.5t261 -5q82 29 128 80t69 131t28 191.5t5 278.5zM76 723q0 145 33 248q69 215 226 357t370 142q164 0 278 -76t177 -159q63 -82 94.5 -147.5t48 -129t22.5 -123t6 -149t-38 -236t-158 -271t-228 -164.5t-197 -40
q-89 1 -163 23t-157 77.5t-198.5 203.5t-115.5 444z" />
    <glyph glyph-name="Odieresis" unicode="&#xd6;" horiz-adv-x="1409" 
d="M471 1599q-43 0 -74.5 31t-31.5 76t31.5 77t78.5 32t79 -33t30 -80t-36 -75t-77 -28zM932 1599q-43 0 -75 31t-32 76t32 77t79 32t79 -33t29.5 -80t-36 -75t-76.5 -28zM1057 734q0 363 -42 478t-136 159t-147 44q-264 0 -341 -207q-41 -108 -41 -491q0 -150 5 -261.5
t39 -230t172 -167.5t261 -5q82 29 128 80t69 131t28 191.5t5 278.5zM76 723q0 145 33 248q69 215 226 357t370 142q164 0 278 -76t177 -159q63 -82 94.5 -147.5t48 -129t22.5 -123t6 -149t-38 -236t-158 -271t-228 -164.5t-197 -40q-89 1 -163 23t-157 77.5t-198.5 203.5
t-115.5 444z" />
    <glyph glyph-name="multiply" unicode="&#xd7;" horiz-adv-x="1366" 
d="M1184 158l-66 -64l-436 438l-436 -438l-66 64l436 440l-436 434l66 64l436 -434l436 434l66 -64l-434 -434z" />
    <glyph glyph-name="Oslash" unicode="&#xd8;" horiz-adv-x="1409" 
d="M674 31q248 0 327 198q56 146 56 631q0 23 -1 59.5t-2.5 102t-11.5 125.5l-653 -934q35 -73 107 -127.5t178 -54.5zM539 1374.5q-91 -40.5 -138 -157.5q-55 -150 -55 -644q0 -204 23 -301l655 938q-65 156 -167.5 180.5t-164.5 24.5t-153 -40.5zM696 -25q-216 0 -370 146
l-82 -117l-41 29l86 125q-92 99 -153.5 226t-61.5 299q0 171 45.5 322t165 272t225.5 157t190 36q143 0 230.5 -46.5t163.5 -112.5l75 106l43 -31l-82 -112q25 -31 60 -76t87 -156.5t52 -279.5t-45 -321.5t-165.5 -272.5t-226.5 -156t-196 -37z" />
    <glyph glyph-name="Ugrave" unicode="&#xd9;" horiz-adv-x="1366" 
d="M829 1597q0 -18 -18 -18q-8 0 -13 2t-12 4l-522 189q-16 6 -28.5 13t-12.5 23.5t8.5 19.5t18.5 3h221l336 -209q22 -15 22 -27zM1317 1403h-158v-887q2 -88 -6 -189t-55 -173q-79 -122 -183 -150.5t-230 -28.5t-223.5 42.5t-141.5 90.5q-71 75 -91 167t-20 202v926h-182
v43h589v-43h-186v-965q0 -70 7 -145.5t48 -133.5t114 -96t153 -38q127 0 195.5 45.5t94.5 89.5q51 74 59.5 160t8.5 163v920h-180v43h387v-43z" />
    <glyph glyph-name="Uacute" unicode="&#xda;" horiz-adv-x="1366" 
d="M1110 1833q27 0 27 -22t-41 -37l-518 -191q-12 -6 -28 -6t-18 18q0 10 7.5 15.5t11.5 9.5l342 213h217zM1317 1403h-158v-887q2 -88 -6 -189t-55 -173q-79 -122 -183 -150.5t-230 -28.5t-223.5 42.5t-141.5 90.5q-71 75 -91 167t-20 202v926h-182v43h589v-43h-186v-965
q0 -70 7 -145.5t48 -133.5t114 -96t153 -38q127 0 195.5 45.5t94.5 89.5q51 74 59.5 160t8.5 163v920h-180v43h387v-43z" />
    <glyph glyph-name="Ucircumflex" unicode="&#xdb;" horiz-adv-x="1366" 
d="M1059 1588q0 -19 -23 -13l-358 100l-346 -98q-8 -4 -13 -4q-14 0 -14 13t23 24l352 227l362 -233q17 -9 17 -16zM1317 1403h-158v-887q2 -88 -6 -189t-55 -173q-79 -122 -183 -150.5t-230 -28.5t-223.5 42.5t-141.5 90.5q-71 75 -91 167t-20 202v926h-182v43h589v-43
h-186v-965q0 -70 7 -145.5t48 -133.5t114 -96t153 -38q127 0 195.5 45.5t94.5 89.5q51 74 59.5 160t8.5 163v920h-180v43h387v-43z" />
    <glyph glyph-name="Udieresis" unicode="&#xdc;" horiz-adv-x="1366" 
d="M512 1599q-43 0 -74.5 31t-31.5 76t31.5 77t78.5 32t79 -33t30 -80t-36 -75t-77 -28zM973 1599q-43 0 -75 31t-32 76t32 77t79 32t78.5 -33t29.5 -80t-35.5 -75t-76.5 -28zM1317 1403h-158v-887q2 -88 -6 -189t-55 -173q-79 -122 -183 -150.5t-230 -28.5t-223.5 42.5
t-141.5 90.5q-71 75 -91 167t-20 202v926h-182v43h589v-43h-186v-965q0 -70 7 -145.5t48 -133.5t114 -96t153 -38q127 0 195.5 45.5t94.5 89.5q51 74 59.5 160t8.5 163v920h-180v43h387v-43z" />
    <glyph glyph-name="Yacute" unicode="&#xdd;" horiz-adv-x="1323" 
d="M512 1595q0 10 7 15.5t11 9.5l342 213h218q26 0 26 -22t-41 -37l-518 -191q-13 -6 -29 -6t-16 18zM780 43h209v-43h-639v43h203v639l-426 721h-115v43h566v-43h-183l344 -594q10 -18 21 -43l334 637h-215v43h421v-43h-147l-373 -719v-641z" />
    <glyph glyph-name="Thorn" unicode="&#xde;" horiz-adv-x="1236" 
d="M477 1106v-657h148q90 2 150.5 10t100.5 53t54 102.5t14 189.5t-26 182q-26 52 -54 73.5t-77 34t-214 12.5h-96zM608 1151q92 0 169 -3t145 -24q135 -39 209.5 -133t74.5 -219t-75 -207.5t-172 -117.5q-97 -36 -183 -41t-178 -5h-121v-358h185v-43h-594v43h180v1360h-185
v43h601v-43h-187v-252h131z" />
    <glyph glyph-name="germandbls" unicode="&#xdf;" horiz-adv-x="1067" 
d="M707 870q115 0 182 -46t67 -130t-71 -133q-47 -35 -99.5 -43t-105.5 -10q221 -20 269 -115.5t48 -143.5q0 -100 -79 -180.5t-186 -80.5t-167.5 50t-60.5 108t28.5 81t60.5 23t58.5 -22.5t26.5 -58.5q0 -37 -12 -59t-18.5 -31t-6.5 -13.5t12.5 -20.5t48.5 -16
q58 0 78.5 69t20.5 145q1 75 -23 127t-44.5 71.5t-48.5 31t-112 16.5l-36 3v40q98 -4 160.5 33.5t62.5 116.5q0 78 -42 104.5t-85 26.5t-148.5 -38t-112.5 -157.5t-7 -150.5v-424h96v-43h-422v43h139v764q0 201 19.5 315.5t107.5 220.5q108 127 268 127q104 0 151.5 -47
t47.5 -95t-26.5 -79.5t-67.5 -31.5t-68.5 22.5t-27.5 57.5t11 58t11 36q0 39 -41 39q-75 0 -123 -72q-49 -72 -61 -164t-12 -197v-274q111 147 340 147z" />
    <glyph glyph-name="agrave" unicode="&#xe0;" horiz-adv-x="937" 
d="M586 430q-217 0 -291 -113q-27 -41 -27 -111t40 -103q40 -34 97 -33t107 47q49 47 59 104t15 135v74zM819 35q31 0 68 37l24 -29q-16 -16 -52 -42q-35 -26 -103 -26t-110 34t-51 70t-13 66q-35 -69 -103 -119t-169 -50t-168 52q-66 52 -66 147t63 160q128 132 447 132
v205q-6 74 -22 98q-35 57 -111 57t-127 -29q-50 -29 -51 -52t21 -46q22 -24 22 -58t-28 -60q-26 -26 -67 -27q-41 0 -65 29q-24 28 -25 66q0 81 95 150q95 68 245 68q162 0 248 -86q41 -41 48 -91t7 -109v-428q0 -53 6 -86t37 -33zM608 989q-10 0 -18 6l-391 371q-4 4 -10 9
q-5 5 -5 11q0 13 21 13h188l219 -379q6 -12 6 -22t-10 -9z" />
    <glyph glyph-name="aacute" unicode="&#xe1;" horiz-adv-x="937" 
d="M586 430q-217 0 -291 -113q-27 -41 -27 -111t40 -103q40 -34 97 -33t107 47q49 47 59 104t15 135v74zM819 35q31 0 68 37l24 -29q-16 -16 -52 -42q-35 -26 -103 -26t-110 34t-51 70t-13 66q-35 -69 -103 -119t-169 -50t-168 52q-66 52 -66 147t63 160q128 132 447 132
v205q-6 74 -22 98q-35 57 -111 57t-127 -29q-50 -29 -51 -52t21 -46q22 -24 22 -58t-28 -60q-26 -26 -67 -27q-41 0 -65 29q-24 28 -25 66q0 81 95 150q95 68 245 68q162 0 248 -86q41 -41 48 -91t7 -109v-428q0 -53 6 -86t37 -33zM766 1399q24 0 25 -19q0 -9 -17 -26
l-362 -359q-12 -6 -17 -6q-14 1 -14 15t10 24l209 371h166z" />
    <glyph glyph-name="acircumflex" unicode="&#xe2;" horiz-adv-x="937" 
d="M586 430q-217 0 -291 -113q-27 -41 -27 -111t40 -103q40 -34 97 -33t107 47q49 47 59 104t15 135v74zM819 35q31 0 68 37l24 -29q-16 -16 -52 -42q-35 -26 -103 -26t-110 34t-51 70t-13 66q-35 -69 -103 -119t-169 -50t-168 52q-66 52 -66 147t63 160q128 132 447 132
v205q-6 74 -22 98q-35 57 -111 57t-127 -29q-50 -29 -51 -52t21 -46q22 -24 22 -58t-28 -60q-26 -26 -67 -27q-41 0 -65 29q-24 28 -25 66q0 81 95 150q95 68 245 68q162 0 248 -86q41 -41 48 -91t7 -109v-428q0 -53 6 -86t37 -33zM209 1030q-8 0 -8 10t5 16t9 13l252 287
l252 -289q12 -13 12 -25t-11 -12t-18 6l-233 138l-244 -140q-8 -4 -16 -4z" />
    <glyph glyph-name="atilde" unicode="&#xe3;" horiz-adv-x="937" 
d="M586 430q-217 0 -291 -113q-27 -41 -27 -111t40 -103q40 -34 97 -33t107 47q49 47 59 104t15 135v74zM819 35q31 0 68 37l24 -29q-16 -16 -52 -42q-35 -26 -103 -26t-110 34t-51 70t-13 66q-35 -69 -103 -119t-169 -50t-168 52q-66 52 -66 147t63 160q128 132 447 132
v205q-6 74 -22 98q-35 57 -111 57t-127 -29q-50 -29 -51 -52t21 -46q22 -24 22 -58t-28 -60q-26 -26 -67 -27q-41 0 -65 29q-24 28 -25 66q0 81 95 150q95 68 245 68q162 0 248 -86q41 -41 48 -91t7 -109v-428q0 -53 6 -86t37 -33zM283 1165q-57 0 -101 -71l-28 10
q46 116 126 165q50 32 128 15q27 -6 73 -20l103 -31q61 -16 88 -16q76 0 106 75l31 -6q-18 -55 -59 -102q-82 -97 -148 -97q-46 0 -147 33l-97 29q-59 16 -75 16z" />
    <glyph glyph-name="adieresis" unicode="&#xe4;" horiz-adv-x="937" 
d="M586 430q-217 0 -291 -113q-27 -41 -27 -111t40 -103q40 -34 97 -33t107 47q49 47 59 104t15 135v74zM819 35q31 0 68 37l24 -29q-16 -16 -52 -42q-35 -26 -103 -26t-110 34t-51 70t-13 66q-35 -69 -103 -119t-169 -50t-168 52q-66 52 -66 147t63 160q128 132 447 132
v205q-6 74 -22 98q-35 57 -111 57t-127 -29q-50 -29 -51 -52t21 -46q22 -24 22 -58t-28 -60q-26 -26 -67 -27q-41 0 -65 29q-24 28 -25 66q0 81 95 150q95 68 245 68q162 0 248 -86q41 -41 48 -91t7 -109v-428q0 -53 6 -86t37 -33zM109 1194q0 47 31 79q32 32 79 32t79 -32
t32 -79t-32 -79t-79 -32t-79 32q-31 32 -31 79zM518 1194q0 47 32 79t79 32t79 -32t32 -79t-32 -79t-79 -32t-79 32t-32 79z" />
    <glyph glyph-name="aring" unicode="&#xe5;" horiz-adv-x="937" 
d="M586 430q-217 0 -291 -113q-27 -41 -27 -111t40 -103q40 -34 97 -33t107 47q49 47 59 104t15 135v74zM819 35q31 0 68 37l24 -29q-16 -16 -52 -42q-35 -26 -103 -26t-110 34t-51 70t-13 66q-35 -69 -103 -119t-169 -50t-168 52q-66 52 -66 147t63 160q128 132 447 132
v205q-6 74 -22 98q-35 57 -111 57t-127 -29q-50 -29 -51 -52t21 -46q22 -24 22 -58t-28 -60q-26 -26 -67 -27q-41 0 -65 29q-24 28 -25 66q0 81 95 150q95 68 245 68q162 0 248 -86q41 -41 48 -91t7 -109v-428q0 -53 6 -86t37 -33zM360 1196q0 -45 31 -76q31 -30 76 -30
t76 30t30 76q0 45 -30 76q-31 31 -76 31t-76 -31t-31 -76zM303 1196q0 70 48 118t118 48t118 -48t48 -118t-48 -118t-118 -48t-118 48t-48 118z" />
    <glyph glyph-name="ae" unicode="&#xe6;" horiz-adv-x="1366" 
d="M274 230q0 -81 36 -117.5t88 -36.5t85 28t44 52t19.5 59t8.5 55v156q-121 -4 -201 -59.5t-80 -136.5zM1071 610q0 92 -29 152.5t-131 60.5q-63 0 -96 -25.5t-51 -51.5q-19 -26 -19 -142v-74h326v80zM700 772q77 96 230 96q154 0 257 -107t111 -280h-553l3 -164
q5 -129 21 -171q27 -73 81.5 -100.5t100.5 -27.5q129 0 197 95.5t87 167.5h47q-33 -147 -125 -226.5t-207 -79.5t-214.5 60t-139.5 153q-41 -109 -114 -161t-174 -52t-164.5 56.5t-63.5 142.5q0 155 148.5 221t326.5 72v166q-5 115 -24.5 149.5t-76.5 34.5
q-84 0 -129.5 -25.5t-45.5 -46.5q0 -10 19 -38q19 -29 19 -71t-30.5 -64.5t-62.5 -22.5t-58.5 23.5t-26.5 67.5q0 88 92.5 158t239.5 70q148 0 229 -96z" />
    <glyph glyph-name="ccedilla" unicode="&#xe7;" horiz-adv-x="897" 
d="M283.5 -219q25.5 0 40 -18.5t14.5 -51.5l-4 -28q0 -10 25.5 -26.5t71.5 -16.5t77 29.5t31 71.5q0 66 -30.5 89.5t-76.5 38.5l31 111q-155 13 -268 134.5t-113 307.5t131 316t315 130q133 0 220.5 -69t87.5 -152q0 -49 -30 -80.5t-75 -31.5t-70.5 32.5t-25.5 80.5t41 89
q10 15 10 23q0 14 -39 40.5t-126 26.5t-136 -47t-60.5 -118.5t-15.5 -140t-4 -144.5t2.5 -129.5t18.5 -101.5t59 -85.5t115 -37.5q129 0 208 75.5t101 175.5h51q-25 -130 -118 -213.5t-232 -83.5l-25 -88h29q130 0 158 -44.5t28 -72.5q0 -61 -62.5 -115t-171.5 -54
t-158.5 41t-49.5 89t25.5 48z" />
    <glyph glyph-name="egrave" unicode="&#xe8;" horiz-adv-x="937" 
d="M643 612q0 91 -18 128q-40 84 -142 83q-73 0 -116 -39q-43 -35 -51 -82t-9 -94l-2 -76h338v80zM501 -25q-77 0 -152 32q-156 67 -230 230q-37 81 -37 174q0 186 122 322q122 135 290 135q225 0 332 -203q38 -73 44 -176h-563v-165q-1 -110 11 -154q23 -87 91 -126
q38 -24 99 -24q113 0 196 79q82 79 99 182h49q-17 -117 -112 -212q-94 -94 -239 -94zM586 989q-10 0 -19 6q-391 371 -398 378t-7 13q0 13 20 13h189l219 -379q6 -12 6 -22t-10 -9z" />
    <glyph glyph-name="eacute" unicode="&#xe9;" horiz-adv-x="937" 
d="M643 612q0 91 -18 128q-40 84 -142 83q-73 0 -116 -39q-43 -35 -51 -82t-9 -94l-2 -76h338v80zM501 -25q-77 0 -152 32q-156 67 -230 230q-37 81 -37 174q0 186 122 322q122 135 290 135q225 0 332 -203q38 -73 44 -176h-563v-165q-1 -110 11 -154q23 -87 91 -126
q38 -24 99 -24q113 0 196 79q82 79 99 182h49q-17 -117 -112 -212q-94 -94 -239 -94zM766 1399q24 0 25 -19q0 -9 -17 -26l-362 -359q-12 -6 -17 -6q-14 1 -14 15t10 24l209 371h166z" />
    <glyph glyph-name="ecircumflex" unicode="&#xea;" horiz-adv-x="937" 
d="M643 612q0 91 -18 128q-40 84 -142 83q-73 0 -116 -39q-43 -35 -51 -82t-9 -94l-2 -76h338v80zM501 -25q-77 0 -152 32q-156 67 -230 230q-37 81 -37 174q0 186 122 322q122 135 290 135q225 0 332 -203q38 -73 44 -176h-563v-165q-1 -110 11 -154q23 -87 91 -126
q38 -24 99 -24q113 0 196 79q82 79 99 182h49q-17 -117 -112 -212q-94 -94 -239 -94zM233 1030q-12 0 -12 10t15 29l251 287l252 -289q13 -13 13 -25t-15 -12q-8 0 -14 6l-234 138l-243 -140q-8 -4 -13 -4z" />
    <glyph glyph-name="edieresis" unicode="&#xeb;" horiz-adv-x="937" 
d="M643 612q0 91 -18 128q-40 84 -142 83q-73 0 -116 -39q-43 -35 -51 -82t-9 -94l-2 -76h338v80zM501 -25q-77 0 -152 32q-156 67 -230 230q-37 81 -37 174q0 186 122 322q122 135 290 135q225 0 332 -203q38 -73 44 -176h-563v-165q-1 -110 11 -154q23 -87 91 -126
q38 -24 99 -24q113 0 196 79q82 79 99 182h49q-17 -117 -112 -212q-94 -94 -239 -94zM174 1194q0 47 32 79t79 32t79 -32t32 -79t-32 -79t-79 -32t-79 32t-32 79zM584 1194q0 47 31 79q32 32 79 32t79 -32t32 -79t-32 -79t-79 -32t-79 32q-31 32 -31 79z" />
    <glyph glyph-name="igrave" unicode="&#xec;" 
d="M41 844h332v-801h133v-43h-467v43h141v758h-139v43zM393 989q-8 0 -16 6l-391 371q-4 4 -10 9q-5 5 -5 11q0 13 21 13h188l219 -379q16 -31 -6 -31z" />
    <glyph glyph-name="iacute" unicode="&#xed;" 
d="M41 844h332v-801h133v-43h-467v43h141v758h-139v43zM561 1399q24 0 25 -19q0 -12 -17 -26l-362 -359q-12 -6 -17 -6q-14 1 -14 15t10 24l209 371h166z" />
    <glyph glyph-name="icircumflex" unicode="&#xee;" 
d="M41 844h332v-801h133v-43h-467v43h141v758h-139v43zM20 1030q-12 0 -12 10t15 29l251 287l252 -289q13 -13 13 -25t-15 -12q-8 0 -14 6l-234 138l-243 -140q-8 -4 -13 -4z" />
    <glyph glyph-name="idieresis" unicode="&#xef;" 
d="M41 844h332v-801h133v-43h-467v43h141v758h-139v43zM-39 1194q0 47 32 79t79 32t79 -32q31 -32 31 -79t-32 -79t-78 -32q-47 0 -79 32t-32 79zM371 1194q0 47 31 79q32 32 79 32t79 -32t32 -79t-32 -79t-79 -32t-79 32q-31 32 -31 79z" />
    <glyph glyph-name="eth" unicode="&#xf0;" horiz-adv-x="1024" 
d="M652 771q-50 54 -139 54t-129 -33t-55.5 -61.5t-24.5 -79t-9 -187.5q0 -207 12.5 -273t67.5 -117t141 -51t141 49q44 35 58 99t14 194q0 129 -4 189t-13.5 111.5t-59.5 105.5zM950 563q0 -239 -109 -412.5t-333 -173.5q-189 0 -311.5 131.5t-122.5 324.5t128 315t298 122
q114 0 196 -53q-12 162 -84 307l-278 -75l-17 49l271 71q-97 164 -217 256l30 35q212 -118 326 -254l176 49l15 -47l-158 -43q190 -269 190 -602z" />
    <glyph glyph-name="ntilde" unicode="&#xf1;" horiz-adv-x="1110" 
d="M653 868q131 0 211 -84l22 -27q46 -55 46 -192v-522h135v-43h-459v43h129v551q0 84 -8 118q-23 96 -121 97q-70 0 -119 -40t-68 -78q-44 -88 -44 -290v-358h137v-43h-465v43h133v758h-133v43h328v-123q108 147 276 147zM369 1165q-57 0 -101 -71l-28 10q46 116 126 165
q50 32 128 15q27 -6 73 -20l103 -31q61 -16 88 -16q76 0 106 75l31 -6q-18 -55 -59 -102q-82 -97 -148 -97q-46 0 -147 33l-97 29q-59 16 -75 16z" />
    <glyph glyph-name="ograve" unicode="&#xf2;" horiz-adv-x="1024" 
d="M518 821q-174 0 -206 -172q-9 -55 -9 -223t9 -239t63 -115q53 -49 131 -49q136 0 183 98q22 51 25 132t3 145v105q0 102 -10 163q-17 102 -106 140q-36 15 -83 15zM948 422q0 -190 -133 -323q-126 -124 -302 -124q-85 0 -165 34q-163 69 -236 236q-36 81 -36 176t36 177
q73 166 236 236q164 71 328 3q163 -68 236 -235q36 -82 36 -180zM608 989q-10 0 -18 6l-391 371q-4 4 -10 9q-5 5 -5 11q0 13 21 13h188l219 -379q6 -12 6 -22t-10 -9z" />
    <glyph glyph-name="oacute" unicode="&#xf3;" horiz-adv-x="1024" 
d="M518 821q-174 0 -206 -172q-9 -55 -9 -223t9 -239t63 -115q53 -49 131 -49q136 0 183 98q22 51 25 132t3 145v105q0 102 -10 163q-17 102 -106 140q-36 15 -83 15zM948 422q0 -190 -133 -323q-126 -124 -302 -124q-85 0 -165 34q-163 69 -236 236q-36 81 -36 176t36 177
q73 166 236 236q164 71 328 3q163 -68 236 -235q36 -82 36 -180zM809 1399q24 0 25 -19q0 -9 -17 -26l-362 -359q-12 -6 -17 -6q-14 1 -14 15t10 24l209 371h166z" />
    <glyph glyph-name="ocircumflex" unicode="&#xf4;" horiz-adv-x="1024" 
d="M518 821q-174 0 -206 -172q-9 -55 -9 -223t9 -239t63 -115q53 -49 131 -49q136 0 183 98q22 51 25 132t3 145v105q0 102 -10 163q-17 102 -106 140q-36 15 -83 15zM948 422q0 -190 -133 -323q-126 -124 -302 -124q-85 0 -165 34q-163 69 -236 236q-36 81 -36 176t36 177
q73 166 236 236q164 71 328 3q163 -68 236 -235q36 -82 36 -180zM252 1030q-8 0 -8 10t5 16t9 13l252 287l252 -289q12 -13 12 -25t-11 -12t-18 6l-233 138l-244 -140q-8 -4 -16 -4z" />
    <glyph glyph-name="otilde" unicode="&#xf5;" horiz-adv-x="1024" 
d="M518 821q-174 0 -206 -172q-9 -55 -9 -223t9 -239t63 -115q53 -49 131 -49q136 0 183 98q22 51 25 132t3 145v105q0 102 -10 163q-17 102 -106 140q-36 15 -83 15zM948 422q0 -190 -133 -323q-126 -124 -302 -124q-85 0 -165 34q-163 69 -236 236q-36 81 -36 176t36 177
q73 166 236 236q164 71 328 3q163 -68 236 -235q36 -82 36 -180zM326 1165q-57 0 -101 -71l-28 10q46 116 126 165q50 32 128 15q27 -6 73 -20l103 -31q61 -16 88 -16q76 0 106 75l31 -6q-18 -55 -59 -102q-82 -97 -148 -97q-46 0 -147 33l-97 29q-59 16 -75 16z" />
    <glyph glyph-name="odieresis" unicode="&#xf6;" horiz-adv-x="1024" 
d="M518 821q-174 0 -206 -172q-9 -55 -9 -223t9 -239t63 -115q53 -49 131 -49q136 0 183 98q22 51 25 132t3 145v105q0 102 -10 163q-17 102 -106 140q-36 15 -83 15zM948 422q0 -190 -133 -323q-126 -124 -302 -124q-85 0 -165 34q-163 69 -236 236q-36 81 -36 176t36 177
q73 166 236 236q164 71 328 3q163 -68 236 -235q36 -82 36 -180zM199 1194q0 47 31 79q32 32 79 32t79 -32t32 -79t-32 -79t-79 -32t-79 32q-31 32 -31 79zM608 1194q0 47 32 79t79 32t79 -32t32 -79t-32 -79t-79 -32t-79 32t-32 79z" />
    <glyph glyph-name="divide" unicode="&#xf7;" horiz-adv-x="1366" 
d="M606 348q0 35 22.5 57.5t57.5 22.5t57.5 -22.5t22.5 -57.5t-22.5 -57.5t-57.5 -22.5t-57.5 22.5t-22.5 57.5zM1366 643v-94h-1366v94h1366zM606 844q0 35 22.5 57.5t57.5 22.5t57.5 -22.5t22.5 -57.5t-22.5 -57.5t-57.5 -22.5t-57.5 22.5t-22.5 57.5z" />
    <glyph glyph-name="oslash" unicode="&#xf8;" horiz-adv-x="1024" 
d="M719 288v259q0 41 -1 63.5t-1 38.5l-381 -540q55 -86 187 -86t171 124q25 84 25 141zM702 709q-42 112 -196 112q-68 0 -119 -43t-63.5 -94t-14.5 -83t-4 -77t-3 -90t-2 -82t-1 -77t14 -117zM795 764q153 -137 153 -336t-132.5 -326t-301.5 -127q-86 0 -139 22.5
t-88 43.5l-86 -121l-39 21l86 127q-172 143 -172 342t129.5 328.5t308.5 129.5q137 0 246 -77l65 96l39 -25z" />
    <glyph glyph-name="ugrave" unicode="&#xf9;" horiz-adv-x="1110" 
d="M156 297v504h-133v43h329v-596q0 -108 16 -144q32 -73 119 -73t146 49q86 65 95 232q3 54 3 124v365h-137v43h330v-801h139v-43h-332v113q-82 -138 -287 -138q-145 0 -214 69t-73 193q-1 32 -1 60zM649 989q-8 0 -16 6l-391 371q-4 4 -10 9q-5 5 -5 11q0 13 21 13h188
l219 -379q16 -31 -6 -31z" />
    <glyph glyph-name="uacute" unicode="&#xfa;" horiz-adv-x="1110" 
d="M156 297v504h-133v43h329v-596q0 -108 16 -144q32 -73 119 -73t146 49q86 65 95 232q3 54 3 124v365h-137v43h330v-801h139v-43h-332v113q-82 -138 -287 -138q-145 0 -214 69t-73 193q-1 32 -1 60zM852 1399q24 0 25 -19q0 -9 -17 -26l-362 -359q-12 -6 -17 -6
q-14 1 -14 15t10 24l209 371h166z" />
    <glyph glyph-name="ucircumflex" unicode="&#xfb;" horiz-adv-x="1110" 
d="M156 297v504h-133v43h329v-596q0 -108 16 -144q32 -73 119 -73t146 49q86 65 95 232q3 54 3 124v365h-137v43h330v-801h139v-43h-332v113q-82 -138 -287 -138q-145 0 -214 69t-73 193q-1 32 -1 60zM295 1030q-8 0 -8 10t5 16t9 13l252 287l252 -289q12 -13 12 -25
t-11 -12t-18 6l-233 138l-244 -140q-8 -4 -16 -4z" />
    <glyph glyph-name="udieresis" unicode="&#xfc;" horiz-adv-x="1110" 
d="M156 297v504h-133v43h329v-596q0 -108 16 -144q32 -73 119 -73t146 49q86 65 95 232q3 54 3 124v365h-137v43h330v-801h139v-43h-332v113q-82 -138 -287 -138q-145 0 -214 69t-73 193q-1 32 -1 60zM238 1194q0 47 31 79q32 32 79 32t79 -32t32 -79t-32 -79t-79 -32
t-79 32q-31 32 -31 79zM647 1194q0 47 32 79t79 32t79 -32q31 -32 31 -79t-32 -79t-78 -32q-47 0 -79 32t-32 79z" />
    <glyph glyph-name="yacute" unicode="&#xfd;" horiz-adv-x="937" 
d="M920 801h-84l-426 -1157q-38 -105 -71 -146q-69 -84 -142 -84q-72 0 -101 38q-28 38 -28 77t28 68q29 29 85 28t85 -49q12 -22 30 -22t28 19t32 81l123 334l-364 813h-92v43h464v-43h-155l241 -561l203 561h-153v43h297v-43zM766 1399q24 0 25 -19q0 -9 -17 -26
l-362 -359q-12 -6 -17 -6q-14 1 -14 15t10 24l209 371h166z" />
    <glyph glyph-name="thorn" unicode="&#xfe;" horiz-adv-x="1067" 
d="M758 397v55q0 54 -1 84.5t-2 61.5t-5 80t-36 97t-112 48t-153.5 -100t-73.5 -299q0 -198 70.5 -299.5t162.5 -101.5q93 0 121.5 97.5t28.5 276.5zM39 1446h330v-754q46 80 103.5 128t146.5 48q164 0 268 -122.5t104 -307.5q0 -186 -105.5 -324.5t-253.5 -138.5
q-149 0 -200 77t-63 112v-701h157v-43h-487v43h133v1940h-133v43z" />
    <glyph glyph-name="ydieresis" unicode="&#xff;" horiz-adv-x="937" 
d="M920 801h-84l-426 -1157q-38 -105 -71 -146q-69 -84 -142 -84q-72 0 -101 38q-28 38 -28 77t28 68q29 29 85 28t85 -49q12 -22 30 -22t28 19t32 81l123 334l-364 813h-92v43h464v-43h-155l241 -561l203 561h-153v43h297v-43zM186 1194q0 47 32 79t79 32t79 -32t32 -79
t-32 -79t-79 -32t-79 32t-32 79zM596 1194q0 47 32 79t79 32t79 -32t31 -79q0 -47 -32 -79q-33 -32 -79 -32t-78 32t-32 79z" />
    <glyph glyph-name="dotlessi" unicode="&#x131;" 
d="M41 844h332v-801h133v-43h-467v43h141v758h-139v43z" />
    <glyph glyph-name="Lslash" unicode="&#x141;" horiz-adv-x="1236" 
d="M61 0v43h185v492l-180 -166v96l180 170v768h-185v43h596v-43h-176v-551l344 326v-99l-344 -321v-715h238q135 0 221.5 21.5t127 121t52.5 144.5l29 116h35l-37 -446h-1086z" />
    <glyph glyph-name="lslash" unicode="&#x142;" 
d="M29 1446h354v-580l145 164v-102l-145 -160v-725h156v-43h-508v43h151v504l-151 -166v96l151 168v758h-153v43z" />
    <glyph glyph-name="OE" unicode="&#x152;" horiz-adv-x="1961" 
d="M766 1407q-156 0 -258 -76q-102 -74 -127 -216q-23 -132 -23 -408t34 -417.5t136.5 -198t219.5 -56.5t217 28v1317q-117 27 -199 27zM770 1464q77 0 176 -18h893l12 -406h-32q-16 72 -35 135.5t-62 116.5q-67 74 -152 92.5t-251 18.5h-119v-643h86q103 0 160 33.5
t70 160.5l4 68h36v-596h-36q-11 129 -22 168q-20 71 -67 92t-143 27h-88v-670h209q90 0 161.5 7t157 64.5t142.5 329.5h31l-33 -444h-918l-87 -13q-116 -17 -235 6q-236 45 -393 245t-157 475q0 160 52 298t144.5 238.5t219.5 157.5t276 57z" />
    <glyph glyph-name="oe" unicode="&#x153;" horiz-adv-x="1536" 
d="M1237 532v102q0 101 -29.5 132t-59 44t-82.5 13q-52 0 -87 -24.5t-54.5 -61.5t-19.5 -112v-93h332zM696 310v94q0 75 -1 110t-2 72t-3 55q-20 184 -188 184q-90 0 -142.5 -60t-52.5 -298q0 -313 51 -381t148 -68q59 0 118.5 37.5t65.5 137t6 117.5zM801 127
q-100 -152 -327 -152q-52 0 -127 31t-171 123t-96 282t125 323.5t305 133.5q74 0 158 -31.5t145 -109.5q100 141 277 141q140 0 254 -100t118 -283h-555v-100q0 -188 23.5 -248.5t64.5 -89.5t126 -29t167 67t113 206h53q-17 -108 -101.5 -212t-247.5 -104t-226.5 63.5
t-77.5 88.5z" />
    <glyph glyph-name="Scaron" unicode="&#x160;" horiz-adv-x="1067" 
d="M154 1820q0 20 24 15l357 -100l346 98q8 4 12 4q16 -1 16 -13t-24 -24l-353 -227l-362 233q-16 8 -16 14zM885 348q0 136 -70 188t-119 67t-92 28l-82 22q-157 35 -232 86q-147 100 -147 284t109 315.5t293 131.5q113 0 182.5 -38.5t85.5 -51.5l74 90h31l12 -378h-56
q-12 66 -31.5 124t-74.5 108q-102 93 -217 93t-203 -67.5t-88 -185.5t61.5 -157.5t114.5 -56t119 -35.5l78 -18q51 -14 115.5 -36.5t158.5 -100t94 -286.5t-113.5 -354t-308.5 -145q-194 0 -333 131l-78 -106h-47l-12 446h59q25 -162 62 -212q38 -51 62.5 -79t90.5 -74
t166 -46q171 0 253.5 88.5t82.5 224.5z" />
    <glyph glyph-name="scaron" unicode="&#x161;" horiz-adv-x="724" 
d="M616 856v-254h-38q-14 90 -79 152t-156 63q-91 0 -141 -47t-50 -92t27 -72t78 -37t69 -16l73 -14q106 -22 154 -55q109 -75 109 -207q0 -131 -78 -216q-78 -86 -201 -86q-80 0 -136 30t-97 63l-52 -68h-28v322h36l31 -99q31 -88 94 -141t152 -53t143 49t55 99t-22 84
t-72 46t-75 19l-64 10q-114 20 -158 47t-78 83t-34 122q0 123 73 203q73 79 188 78q116 -1 206 -81l37 68h34zM653 1356q14 0 15 -12t-15 -25l-254 -289l-249 289q-13 13 -13 25t15 12q2 0 14 -4l231 -138l244 138q8 4 12 4z" />
    <glyph glyph-name="Ydieresis" unicode="&#x178;" horiz-adv-x="1323" 
d="M457 1599q-43 0 -75 31t-32 76t32 77t79 32t78.5 -33t29.5 -80t-35.5 -75t-76.5 -28zM918 1599q-43 0 -75 31t-32 76t31.5 77t79 32t79 -33t29.5 -80t-35.5 -75t-76.5 -28zM780 43h209v-43h-639v43h203v639l-426 721h-115v43h566v-43h-183l344 -594q10 -18 21 -43
l334 637h-215v43h421v-43h-147l-373 -719v-641z" />
    <glyph glyph-name="Zcaron" unicode="&#x17d;" horiz-adv-x="1150" 
d="M197 1820q0 20 24 15l357 -100l346 98q8 4 12 4q16 -1 16 -13t-24 -24l-353 -227l-362 233q-16 8 -16 14zM662 43q137 0 181 14.5t72.5 37t76.5 94.5t89 266h31l-41 -455h-1061v51l834 1352h-344q-66 0 -120 -7t-109 -56t-88 -143.5t-62 -197.5h-33l43 447h1004
l-861 -1403h388z" />
    <glyph glyph-name="zcaron" unicode="&#x17e;" horiz-adv-x="854" 
d="M774 0h-743l520 801h-90q-135 -1 -178 -23t-69 -62t-38 -80t-16 -54t-9 -28t-9 -24q-4 -12 -5 -16h-31v330h699l-529 -801h148q118 0 154 11q67 20 95 75q27 55 44 107q16 54 22 80t11 42h24v-358zM715 1356q14 0 14 -12t-14 -25l-254 -289l-250 289q-12 12 -12 24t14 13
q2 0 14 -4l232 -138l243 138q8 4 13 4z" />
    <glyph glyph-name="florin" unicode="&#x192;" horiz-adv-x="894" 
d="M-45 -518q0 -29 51 -29q92 0 129 94t53 244l115 1000h-190l4 53h192q35 279 158 438q112 141 260 141q80 0 122 -40t42 -80t-23.5 -66.5t-62.5 -26.5t-63.5 23.5t-24.5 52.5t12.5 41.5t21.5 19.5t9 15q0 24 -32 24t-77 -30q-83 -68 -106 -207t-33 -229l-8 -76h194l-4 -53
h-196l-84 -705q-47 -391 -178 -549q-101 -119 -234 -119q-80 0 -127 38t-47 79t21.5 60.5t55.5 19.5t52 -21.5t18 -45.5t-10 -42t-10 -24z" />
    <glyph glyph-name="circumflex" unicode="&#x2c6;" 
d="M21 1030q-9 0 -9 10t5.5 16.5t9.5 12.5l252 287l251 -289q13 -13 13 -25t-15 -12q-8 0 -14 6l-233 138l-244 -140q-8 -4 -16 -4z" />
    <glyph glyph-name="caron" unicode="&#x2c7;" 
d="M528 1356q14 0 15 -11t-15 -26l-254 -289l-249 289q-13 13 -13 25t15 12q2 0 14 -4l231 -138l244 138q8 4 12 4z" />
    <glyph glyph-name="breve" unicode="&#x2d8;" 
d="M276 1200q136 0 191 127h45q-4 -132 -71.5 -205t-159.5 -73q-91 0 -160 69t-80 209h49q25 -76 79.5 -101.5t106.5 -25.5z" />
    <glyph glyph-name="dotaccent" unicode="&#x2d9;" 
d="M156 1192q0 51 34.5 86t86 35t86 -35t34.5 -86t-34.5 -86t-86 -35t-86 35t-34.5 86z" />
    <glyph glyph-name="ring" unicode="&#x2da;" 
d="M168 1196q0 -45 30.5 -75.5t75.5 -30.5t76 30.5t31 75.5t-31 76t-76 31t-75.5 -31t-30.5 -76zM111 1196q0 70 48 118t117.5 48t117.5 -48t48 -118t-48 -118t-117.5 -48t-117.5 48t-48 118z" />
    <glyph glyph-name="ogonek" unicode="&#x2db;" 
d="M360 -248q53 0 86 15l3 -35q-38 -25 -94 -38t-89 -13q-80 0 -120 41.5t-40 81.5q0 62 26 98t104 112l77 -6q-33 -35 -53 -63.5t-20 -72.5t33.5 -82t86.5 -38z" />
    <glyph glyph-name="tilde" unicode="&#x2dc;" 
d="M80 1165q-56 0 -100 -71l-29 10q45 114 102.5 150t96.5 36t129 -26l102 -31q61 -16 88 -16q76 0 106 75l31 -6q-18 -55 -79 -127t-128 -72q-46 0 -147 33l-96 29q-59 16 -76 16z" />
    <glyph glyph-name="hungarumlaut" unicode="&#x2dd;" 
d="M612 1399q29 0 29 -19q0 -8 -18 -26l-365 -355q-10 -10 -16 -10q-17 0 -17 14t11 27l213 369h163zM303 1399q27 0 27 -19q0 -9 -17 -26l-364 -355q-10 -10 -17 -10q-16 0 -16 13t10 28l213 369h164z" />
    <glyph glyph-name="endash" unicode="&#x2013;" horiz-adv-x="1067" 
d="M991 688v-145h-915v145h915z" />
    <glyph glyph-name="emdash" unicode="&#x2014;" horiz-adv-x="1323" 
d="M1247 688v-145h-1171v145h1171z" />
    <glyph glyph-name="quoteleft" unicode="&#x2018;" horiz-adv-x="468" 
d="M121 1126q0 -91 53 -114q-2 8 -2 31.5t24.5 58.5t77.5 35t84 -32.5t31 -90.5t-45 -92.5t-96 -34.5q-90 0 -139.5 60t-49.5 147q0 88 52.5 183t171.5 181l32 -43q-148 -112 -171 -192.5t-23 -96.5z" />
    <glyph glyph-name="quoteright" unicode="&#x2019;" horiz-adv-x="468" 
d="M295 1333l2 -18q0 -65 -36.5 -86t-76.5 -21t-72 34t-32 90t46 91t118 35t119 -61.5t47 -147.5t-52.5 -181t-171.5 -181l-32 43q41 31 66.5 52.5t61.5 71.5t51 99t15 77q0 74 -53 103z" />
    <glyph glyph-name="quotesinglbase" unicode="&#x201a;" horiz-adv-x="468" 
d="M326.5 69q-7.5 30 -43.5 50l2 -21q0 -32 -24 -68t-78 -36t-84.5 33t-30.5 89t45 92t96 36q90 0 139 -59.5t49 -147.5t-52 -183.5t-171 -181.5l-33 43q41 31 65.5 52.5t62.5 70.5t51.5 99.5t13.5 76.5q0 25 -7.5 55z" />
    <glyph glyph-name="quotedblleft" unicode="&#x201c;" horiz-adv-x="937" 
d="M121 1126q0 -91 53 -114q-2 8 -2 31.5t24.5 58.5t77.5 35t84 -32.5t31 -90.5t-45 -92.5t-96 -34.5q-90 0 -139.5 60t-49.5 147q0 88 52.5 183t171.5 181l32 -43q-148 -112 -171 -192.5t-23 -96.5zM590 1126q0 -91 53 -114q-2 8 -2 32t26 58.5t78 34.5q51 0 82 -32.5
t31 -90.5t-45 -92.5t-96 -34.5q-90 0 -139.5 60t-49.5 147q0 88 52.5 183t171.5 181l32 -43q-148 -112 -171 -192.5t-23 -96.5z" />
    <glyph glyph-name="quotedblright" unicode="&#x201d;" horiz-adv-x="937" 
d="M295 1333l2 -18q0 -65 -35.5 -86t-77.5 -21t-73 34t-31 90t46 91t118 35t119 -61.5t47 -147.5t-52.5 -181t-171.5 -181l-32 43q41 31 65.5 52.5t62.5 71.5t52 99t14 77q0 74 -53 103zM809.5 1284.5q-7.5 28.5 -43.5 48.5v-18q0 -65 -36 -86t-76 -21t-72.5 34t-32.5 90
t45.5 91t119.5 35t119.5 -61.5t45.5 -147.5t-52.5 -181t-171.5 -181l-32 43q41 31 66.5 52.5t53.5 61.5q47 59 60.5 108.5t13.5 76.5t-7.5 55.5z" />
    <glyph glyph-name="quotedblbase" unicode="&#x201e;" horiz-adv-x="937" 
d="M295 119l2 -21q0 -63 -35.5 -83.5t-77.5 -20.5t-73 33t-31 89t46 92t97 36q88 0 137.5 -60t49.5 -147q0 -88 -52.5 -183.5t-171.5 -181.5l-32 43q41 31 65.5 52.5t62.5 70.5t52 99.5t14 76.5q0 76 -53 105zM809.5 69q-7.5 30 -43.5 50v-21q0 -63 -36 -83.5t-78 -20.5
t-72.5 33t-30.5 89t46 92t97 36q91 0 139 -60.5t48 -147.5t-52.5 -182.5t-171.5 -181.5l-32 43q41 31 66 52.5t63 70.5t51.5 99.5t13.5 76.5q0 25 -7.5 55z" />
    <glyph glyph-name="dagger" unicode="&#x2020;" horiz-adv-x="1193" 
d="M1008 868q58 0 104.5 -27.5t46.5 -91.5t-44 -96t-99 -32t-154 34l-237 78q4 -63 10 -121.5t8 -81.5l27 -213q8 -53 13 -107t21 -209t17 -269q0 -114 -25 -172q-40 -78 -112 -78t-107 76q-20 46 -20 104q0 264 55 655q12 98 28 203.5t21 212.5l-225 -74q-110 -36 -171 -36
t-98.5 36.5t-37.5 92.5t41 86t85 30t79.5 -8t105.5 -24l221 -54l-61 299q-37 176 -37 244t42.5 106.5t104.5 38.5t90.5 -50t28.5 -125t-37 -214l-71 -297l243 64q86 20 144 20z" />
    <glyph glyph-name="daggerdbl" unicode="&#x2021;" horiz-adv-x="1193" 
d="M172 739q-68 0 -104.5 39t-36.5 84t35.5 84t90.5 39t181 -29l221 -49l-61 226q-27 97 -27 165t27.5 119t93.5 51q140 0 139 -163q0 -51 -26 -158l-74 -240l221 54q107 26 168 26q62 0 102.5 -33.5t40.5 -89t-41 -90.5t-100 -35t-168 37l-219 72q10 -153 29.5 -253.5
t23.5 -123.5q-43 -128 -55 -356l231 73q113 33 146 33q66 0 109.5 -29.5t43.5 -88.5q0 -60 -40 -94t-96 -34t-167 25l-227 55l69 -225q10 -47 19.5 -89.5t9.5 -102.5t-31.5 -111t-105.5 -51t-99.5 56t-25.5 113t29 171l65 239l-227 -49q-113 -26 -168 -26t-95 30.5t-40 90
t41 91t103 31.5t149 -30l237 -76q-4 187 -47 358q0 1 16.5 77t32.5 296l-211 -70q-114 -39 -182 -39z" />
    <glyph glyph-name="bullet" unicode="&#x2022;" horiz-adv-x="681" 
d="M111 723q0 47 18 89t49 72.5t73 49t89 18.5t89 -18.5t72.5 -49t49 -72.5t18.5 -89t-18.5 -89t-49 -73t-72.5 -49t-89 -18t-89 18t-73 49t-49 73t-18 89z" />
    <glyph glyph-name="ellipsis" unicode="&#x2026;" horiz-adv-x="2048" 
d="M215 114.5q0 53.5 37 90.5t90 37t90 -37t37 -90.5t-37 -90t-90 -36.5t-90 36.5t-37 90zM897 114.5q0 53.5 37 90.5t90 37t90 -37t37 -90.5t-37 -90t-90 -36.5t-90 36.5t-37 90zM1579 114.5q0 53.5 37 90.5t90 37t90 -37t37 -90.5t-37 -90t-90 -36.5t-90 36.5t-37 90z" />
    <glyph glyph-name="perthousand" unicode="&#x2030;" horiz-adv-x="2433" 
d="M1233 1399l-672 -1399h-86l674 1399h84zM1351 877q-56 0 -85 -30t-45.5 -90.5t-16.5 -214.5q0 -326 15 -387q13 -55 38.5 -91.5t98.5 -36.5t104 82q17 51 20 145.5t6 261.5t-13 228q-15 61 -40.5 97t-81.5 36zM1551 116q-94 -130 -214 -130t-206.5 145t-86.5 328
q0 182 92 321.5t210 139.5t208.5 -132t90.5 -337t-94 -335zM2076 877q-56 0 -85 -30t-45.5 -90.5t-16.5 -214.5q0 -326 15 -387q13 -55 38.5 -91.5t98.5 -36.5t104 82q17 51 20 145.5t6 261.5t-13 228q-15 61 -40.5 97t-81.5 36zM2276 116q-94 -130 -214 -130t-206.5 145
t-86.5 328q0 182 92 321.5t210 139.5t208.5 -132t90.5 -337t-94 -335zM370 1372q-56 0 -85 -29.5t-45.5 -90.5t-16.5 -215q0 -328 15 -389q13 -53 38.5 -90.5t98.5 -37.5t104 82q17 51 20 145.5t6 262.5t-13 229q-15 61 -40.5 97t-81.5 36zM569.5 609
q-94.5 -130 -207.5 -130q-63 0 -118.5 40t-118 145t-62.5 289q0 183 92 322.5t211 139.5q118 0 208 -131.5t90 -338.5q0 -206 -94.5 -336z" />
    <glyph glyph-name="guilsinglleft" unicode="&#x2039;" horiz-adv-x="468" 
d="M49 475l242 232h135l-242 -232l240 -223h-133z" />
    <glyph glyph-name="guilsinglright" unicode="&#x203a;" horiz-adv-x="468" 
d="M420 483l-242 -231h-133l240 231l-240 224h133z" />
    <glyph glyph-name="fraction" unicode="&#x2044;" horiz-adv-x="256" 
d="M508 1446l-694 -1446h-64l696 1446h62z" />
    <glyph glyph-name="trademark" unicode="&#x2122;" horiz-adv-x="1579" 
d="M621 1390q0 -4 8 -112h-51q-23 68 -44.5 88t-74.5 23h-66v-467q0 -57 10 -73.5t46 -23.5l38 -2v-57q-78 4 -153.5 4t-153.5 -4v57l37 2q43 8 50 24.5t7 72.5v467h-65q-53 -2 -74.5 -22.5t-44.5 -88.5h-49q8 124 8 168h71h501v-56zM1381 770q-62 0 -128 -4v55
q43 7 54.5 15t13.5 34v406l-217 -510h-37l-217 514v-350q0 -66 12 -84t72 -25v-55h-28h-204v55q55 8 65.5 29.5t10.5 79.5v434q-17 23 -65 27v57q46 -4 57 -4l125 2l213 -522l223 522h182v-55h-14q-51 -6 -59 -31t-6 -86v-344q0 -72 7 -86t60 -23v-55q-58 4 -120 4z" />
    <glyph glyph-name="minus" unicode="&#x2212;" horiz-adv-x="1366" 
d="M1366 643v-94h-1366v94h1366z" />
    <glyph glyph-name="fi" unicode="&#xfb01;" horiz-adv-x="1110" 
d="M741 1386q-43 48 -114 48q-72 0 -122 -35q-82 -57 -101 -137.5t-19 -206.5v-211h549v-801h131v-43h-457v43h133v758h-356v-758h170v-43h-539v43h177v758h-173v43h173v117q2 59 10 127.5t45 144.5q59 117 163.5 177t221.5 60t195.5 -54.5t78.5 -135.5q0 -39 -24.5 -77
t-78.5 -38t-83 31t-29 75t15.5 68.5t33.5 46.5z" />
    <glyph glyph-name="fl" unicode="&#xfb02;" horiz-adv-x="1110" 
d="M624 1434q-53 0 -106.5 -26t-79.5 -70q-39 -67 -45 -137t-6 -146v-211h352v360q-14 2 -40.5 17.5t-26.5 60.5t45 104q-40 48 -93 48zM610 1470q102 0 183 -49l145 25v-1403h156v-43h-506v43h151v758h-352v-758h178v-43h-549v43h181v758h-174v43h174v117q2 63 10 129.5
t43 142.5q57 121 157.5 179t202.5 58z" />
  </font>
</defs>
</svg>
