<?xml version="1.0" standalone="no"?>
<!DOCTYPE svg PUBLIC "-//W3C//DTD SVG 1.1//EN" "http://www.w3.org/Graphics/SVG/1.1/DTD/svg11.dtd" >
<svg xmlns="http://www.w3.org/2000/svg">
<metadata>
Created by FontPrep 20130207 at Tue Dec  9 01:54:17 2014
 By Alexander Gunnarson
Design and data by The Monotype Corporation. (c) 1993-1999. Microsoft Corporation. All rights reserved.
</metadata>
<defs>
<font id="457e5443fd7024600bafcb7b77b14f96" horiz-adv-x='1024' >
  <font-face 
    font-family="EngraversMT"
    font-weight="500"
    font-stretch="expanded"
    units-per-em="2048"
    panose-1="2 9 7 7 8 5 5 2 3 4"
    ascent="1638"
    descent="-410"
    x-height="1397"
    cap-height="1397"
    bbox="-377 -457 3306 1917"
    underline-thickness="102"
    underline-position="-154"
    unicode-range="U+0020-F002"
  />
<missing-glyph horiz-adv-x="1024" 
d="M123 1324v-1283h778v1283h-778zM82 1365h860v-1365h-860v1365z" />
    <glyph glyph-name=".notdef" horiz-adv-x="1024" 
d="M123 1324v-1283h778v1283h-778zM82 1365h860v-1365h-860v1365z" />
    <glyph glyph-name=".null" horiz-adv-x="0" 
 />
    <glyph glyph-name="nonmarkingreturn" horiz-adv-x="662" 
 />
    <glyph glyph-name="space" unicode=" " horiz-adv-x="662" 
 />
    <glyph glyph-name="exclam" unicode="!" horiz-adv-x="831" 
d="M428 305q58 0 106 -47.5t48 -117.5t-48 -118.5t-116 -48.5t-118 49.5t-50 105.5t22.5 94t60 60.5t95.5 22.5zM250 1236q0 70 46 129.5t120 59.5t121 -59t47 -152q0 -92 -58 -248t-73 -219.5t-19 -156.5h-35q-5 116 -30 196t-59 176t-47 150t-13 124z" />
    <glyph glyph-name="quotedbl" unicode="&#x22;" horiz-adv-x="1217" 
d="M414 1061q0 19 -14 33t-60 38q-92 48 -92 124q0 75 45 120t112 45t110.5 -56.5t43.5 -136.5q0 -157 -113 -263q-65 -60 -182 -107l-20 33q170 91 170 170zM809 1061q-1 33 -61 65t-82.5 62t-22.5 86t45.5 101.5t111.5 45.5t110 -56t44 -146q0 -148 -112 -254
q-38 -35 -74.5 -56.5t-108.5 -50.5l-20 33q170 90 170 170z" />
    <glyph glyph-name="numbersign" unicode="#" horiz-adv-x="1024" 
d="M308 509h339l72 343h-341zM37 427v82h187l69 343h-256v80h275l91 455h83l-91 -455h337l97 455h83l-95 -455h170v-80h-185l-70 -343h255v-82h-272l-93 -455h-81l91 455h-339l-95 -455h-83l93 455h-171z" />
    <glyph glyph-name="dollar" unicode="$" horiz-adv-x="1323" 
d="M1096 279q0 84 -73 150t-245 120v-533q200 15 259 97t59 166zM682 14h61v547l-53 17q-24 9 -54.5 18.5t-76.5 24.5v-603q43 -4 123 -4zM262 1149q0 -76 61 -127t201 -90v440q-262 -53 -262 -223zM743 1389h-36q-65 0 -148 -9v-460q64 -21 184 -58v527zM123 1020
q0 165 153 287q97 73 248 106v72h35v-68q47 6 103 6t81 -2v64h35v-66q148 -21 291 -91t143 -234q0 -61 -38.5 -101.5t-97.5 -40.5t-97.5 36t-38.5 91q0 91 104 129q43 15 43 33q0 27 -57 66q-95 60 -252 77v-534q142 -48 224 -86q274 -128 274 -365q0 -205 -186 -329
q-63 -40 -130 -60.5t-182 -32.5v-180h-35v176h-26q-18 0 -158 4v-180h-35v187q-129 14 -202.5 37.5t-133.5 68.5q-102 81 -102 195q0 69 43 112t109 43t106.5 -39t40.5 -91t-20.5 -81.5t-70.5 -55.5t-50 -48q0 -28 78 -60t202 -40v608q-209 70 -305 162.5t-96 224.5z" />
    <glyph glyph-name="percent" unicode="%" horiz-adv-x="2410" 
d="M1880 1432l-1257 -1452h-64l1253 1452h68zM2308 356q0 -235 -159 -305.5t-297 -70.5t-239 47t-155.5 132t-54.5 185q0 190 120.5 292.5t339.5 102.5q218 0 341 -118q104 -106 104 -265zM1854 702q-98 0 -142.5 -78.5t-44.5 -258.5t45 -264.5t144 -84.5t143.5 80.5
t44.5 260.5t-46 262.5t-144 82.5zM575 1427q340 0 399.5 -149t59.5 -267.5t-110 -228.5t-344 -110q-282 0 -366.5 132t-84.5 246t54 199.5t155 131.5t237 46zM393 1034q0 -332 191 -332q98 0 143 81t45 261t-45 264.5t-143 84.5q-98 1 -144 -77t-47 -282z" />
    <glyph glyph-name="ampersand" unicode="&#x26;" 
d="M1122 1059q0 55 -21 124.5t-52 114.5q-55 84 -121 84t-108 -43t-42 -98t30 -116.5t116 -186.5l39 -55q159 65 159 176zM377 428q-1 -163 109 -273t282 -110q77 0 146 20.5t180 77.5l36 21q-107 102 -212 239t-144.5 199t-75.5 137q-160 -53 -240 -122q-81 -69 -81 -189z
M1413 348q186 -207 310 -207t192 109q52 81 63 250h35q-9 -127 -31 -201.5t-80 -152.5t-157.5 -126.5t-205.5 -48.5t-186.5 36t-195.5 128q-275 -162 -555 -162q-127 0 -241.5 28t-182.5 77q-123 82 -123 208t92 221t204 143t241 91l90 31q-57 142 -57 254t44.5 203.5
t121.5 143.5t183 52t181.5 -79t75.5 -206t-78 -189t-166 -99l47 -57q151 -196 350 -416q95 110 138 189.5t43 153.5t-58.5 120.5t-160.5 46.5h-52v37h678v-37q-114 -6 -192 -58q-52 -33 -89.5 -78.5t-110.5 -169.5t-167 -235z" />
    <glyph glyph-name="quotesingle" unicode="'" horiz-adv-x="831" 
d="M424 1061q0 39 -64 65q-54 29 -77 61.5t-23 88.5t44 99.5t98 43.5t111.5 -39t57.5 -155q0 -153 -120 -264q-36 -35 -71 -55.5t-108 -47.5l-20 31q172 87 172 172z" />
    <glyph glyph-name="parenleft" unicode="(" horiz-adv-x="725" 
d="M137 698q0 284 195 516q61 75 135.5 136t196.5 135l18 -29q-55 -69 -140 -212.5t-85 -543.5q0 -303 82 -520q25 -70 55 -119.5t88 -119.5l-20 -31q-156 97 -214 151.5t-110 114.5q-201 238 -201 522z" />
    <glyph glyph-name="parenright" unicode=")" horiz-adv-x="725" 
d="M604 698q0 -382 -204 -548.5t-320 -235.5l-21 27q59 74 89 124t55 123q82 215 82 515t-90 530q-39 111 -134 223l21 29q109 -63 177.5 -117.5t137.5 -134.5q207 -246 207 -535z" />
    <glyph glyph-name="asterisk" unicode="*" horiz-adv-x="1323" 
d="M877 850q96 -52 96 -115t-45.5 -91t-81.5 -28t-66.5 33t-38.5 88v13q-9 88 -25 132.5t-46 75.5q-64 -73 -70 -176q-9 -164 -111 -164q-48 0 -86 35.5t-38 77.5t24.5 69.5t90.5 57.5t98.5 56.5t64.5 70.5q-67 21 -115 21l-157 -21q-119 0 -119 102q0 52 30 87.5t70 35.5
t68 -18t60 -54t70 -69t101 -51q-4 87 -19 122.5t-46 87.5t-31 97q0 44 30.5 72t80.5 28t82 -29.5t32 -71.5t-36 -106t-47 -102.5t-9 -97.5q54 17 88 40.5t78 71.5t69.5 63t62.5 15t68 -38t31 -85t-31.5 -75.5t-84.5 -28.5l-172 23q-47 0 -99 -23q66 -82 134 -111
q30 -13 36 -15.5t9 -4.5z" />
    <glyph glyph-name="plus" unicode="+" horiz-adv-x="1155" 
d="M535 141v499h-498v82h498v497h80v-497h500v-82h-500v-499h-80z" />
    <glyph glyph-name="comma" unicode="," horiz-adv-x="831" 
d="M426 -70q0 39 -61 66q-56 29 -79.5 60.5t-23.5 89.5t44 100.5t112 42.5t111.5 -54.5t43.5 -140.5q0 -152 -120 -264q-70 -64 -179 -102l-18 30q170 89 170 172z" />
    <glyph glyph-name="hyphen" unicode="-" horiz-adv-x="1087" 
d="M213 600h686v-254h-686v254z" />
    <glyph glyph-name="period" unicode="." horiz-adv-x="831" 
d="M416 303q68 0 117 -47t49 -116t-49 -117t-115 -48t-115 48.5t-49 114.5t47 115.5t115 49.5z" />
    <glyph glyph-name="slash" unicode="/" horiz-adv-x="1194" 
d="M911 1667h234l-862 -1706h-234z" />
    <glyph glyph-name="zero" unicode="0" horiz-adv-x="1323" 
d="M664 -25q-144 0 -284 95.5t-220 262.5t-80 365t79 365.5t214 263.5t299 96q213 0 379 -166q101 -99 156 -243t55 -282q0 -479 -322 -675q-132 -82 -276 -82zM410 827v-260q0 -286 64 -422.5t198 -136.5q260 0 260 516v267q0 254 -27 360q-51 235 -235 235
q-92 0 -176 -85.5t-84 -473.5z" />
    <glyph glyph-name="one" unicode="1" horiz-adv-x="1323" 
d="M135 37h144q138 0 201 65t63 211v623q0 100 -11.5 145.5t-46.5 77.5q-69 66 -204 66h-107v35q243 12 359.5 52t209.5 89h68v-1122q0 -242 260 -242h133v-37h-1069v37z" />
    <glyph glyph-name="two" unicode="2" horiz-adv-x="1323" 
d="M893 1018q0 176 -86.5 270t-245.5 94q-120 0 -221 -49t-159 -133t-58 -188t49 -105q20 1 24 27t22 70t60 72t98 28t118.5 -34t62.5 -140q0 -56 -45 -127.5t-164 -71.5t-191.5 78t-72.5 199q0 157 111 268q146 149 450 149q258 0 417 -118t159 -301q0 -131 -91 -234
q-38 -46 -88 -82q-96 -64 -326 -160t-339 -180q-25 -18 -96 -82h653q91 0 138.5 16.5t74.5 59.5t47 129l14 66h37l-100 -537h-1059q6 98 102 209t351 295q160 118 204 162q80 83 115 165t35 185z" />
    <glyph glyph-name="three" unicode="3" horiz-adv-x="1323" 
d="M883 1057q0 332 -279 332q-158 0 -223.5 -44.5t-65.5 -67.5t10 -33t47 -30q79 -42 79 -120q0 -77 -43.5 -119.5t-110.5 -42.5t-113.5 48t-46.5 130t66.5 158t186.5 117.5t276 41.5t274 -43.5t183 -124t65 -188.5q0 -230 -293 -301l-98 -22q157 -23 235 -55t164 -102.5
t86 -201.5q0 -130 -81.5 -221t-231 -141t-297.5 -50q-277 0 -420 78q-67 40 -107.5 103t-40.5 132t48 118t120 49t116 -44.5t44 -98.5t-19.5 -86t-63.5 -60t-44 -51q0 -45 87.5 -74t217.5 -29q183 0 267 82q91 94 79 286t-92 267q-80 76 -229 76l-189 -12q-57 1 -57 35
t64 34l184 -14q174 0 210 90.5t36 198.5z" />
    <glyph glyph-name="four" unicode="4" horiz-adv-x="1323" 
d="M991 1425v-923h303v-158h-303v-76q0 -109 64 -169t178 -60h47v-37h-874v37h43q195 0 238.5 83.5t43.5 174.5v47h-647v158l829 923h78zM731 500v669l-600 -669h600z" />
    <glyph glyph-name="five" unicode="5" horiz-adv-x="1323" 
d="M745 1370q278 0 478 55l4 -24q-51 -75 -99 -117t-133 -86t-197.5 -68t-240.5 -24t-276 22l-60 -405q141 81 229.5 109t202.5 28q334 0 498 -164q119 -117 119 -275q0 -159 -115 -269q-180 -177 -534 -177q-106 0 -209.5 22.5t-167.5 58.5t-101 92t-37 125t49 117t109 48
t119 -32.5t59 -122.5t-92 -140q-39 -22 -39 -41q0 -33 83.5 -60.5t185.5 -27.5q187 0 274.5 100.5t87.5 315.5q0 253 -115 322t-201 69t-173.5 -22t-237.5 -125h-35l107 756q180 -60 458 -60z" />
    <glyph glyph-name="six" unicode="6" horiz-adv-x="1323" 
d="M434 883v-209h4q121 190 355 190q132 0 241.5 -56t173.5 -154t64 -222t-71.5 -230.5t-197 -166.5t-264.5 -60q-262 0 -430 162q-207 207 -207 582q0 136 51 273.5t149 233.5t223 147.5t247 51.5t214.5 -41t147 -112.5t54.5 -147.5t-45 -123t-114 -47t-115 43t-46 100
t23 90t73 59t50 50q0 22 -51 57.5t-175 35.5q-179 0 -266.5 -124.5t-87.5 -381.5zM434 489v-127q0 -232 92.5 -292t178.5 -60q134 0 192 101q21 32 35 94t14 219t-17 225t-63 116t-137 48q-90 0 -156 -41t-102.5 -114.5t-36.5 -168.5z" />
    <glyph glyph-name="seven" unicode="7" horiz-adv-x="1323" 
d="M1284 1399v-37l-29 -45q-182 -292 -241.5 -436.5t-110.5 -309.5q-100 -324 -125 -571h-327q38 201 173 431q135 231 369 546l119 160h-618q-103 0 -158.5 -25.5t-84 -89t-44.5 -191.5h-35l68 568h1044z" />
    <glyph glyph-name="eight" unicode="8" horiz-adv-x="1323" 
d="M137 1025q0 124 65.5 214t190 138t291.5 48q272 0 401 -129q89 -83 89 -209t-89 -193.5t-190 -111.5q164 -61 248 -129q137 -114 137 -262t-104 -250q-173 -166 -523 -166q-142 0 -266 29t-201 82q-127 87 -127 233t123 219.5t262 120.5q-164 70 -235.5 156t-71.5 210z
M287 317q0 -309 389 -309q114 0 204.5 34.5t141.5 95t51 138.5t-59 132q-26 22 -58 43q-138 72 -271.5 120t-151.5 54.5t-46 15.5q-143 -86 -171.5 -167.5t-28.5 -156.5zM979 1087q0 302 -320 302q-218 0 -286 -83.5t-68 -141.5q0 -102 64 -160q17 -16 57 -41
q106 -57 222 -95t196 -65q73 54 104 121.5t31 162.5z" />
    <glyph glyph-name="nine" unicode="9" horiz-adv-x="1323" 
d="M899 725q-119 -186 -339 -186q-213 0 -353.5 125t-140.5 301q0 130 71 235t198 165t293 60t309 -91t221.5 -254t78.5 -371q0 -330 -201 -537q-95 -95 -218.5 -146t-256.5 -51q-206 0 -325 117q-86 84 -86 171t45 135t115 48t116.5 -43t46.5 -101t-22.5 -90.5t-72.5 -57.5
t-50 -50q0 -36 68.5 -64t156.5 -28q172 0 261 124t89 364v225h-4zM641 1391q-139 0 -199 -99q-34 -62 -41.5 -148t-7.5 -200q1 -198 53 -278t170 -80t193 76q96 92 96 346q0 383 -264 383z" />
    <glyph glyph-name="colon" unicode=":" horiz-adv-x="831" 
d="M416 303q67 0 115.5 -47.5t48.5 -115.5t-49 -116.5t-115 -48.5t-115 48.5t-49 114.5t48.5 115.5t115.5 49.5zM417 1014q68 0 115.5 -47t47.5 -115t-48 -116t-115 -48t-115 48t-48 114t47.5 115t115.5 49z" />
    <glyph glyph-name="semicolon" unicode=";" horiz-adv-x="831" 
d="M417 1014q68 0 115.5 -47t47.5 -115t-48 -116t-115 -48t-115 48t-48 114t47.5 115t115.5 49zM426 -74q0 38 -64 66q-55 28 -77.5 60t-22.5 89t44 100.5t110 43.5t111.5 -55.5t45.5 -139.5q0 -151 -120 -266q-64 -55 -179 -103l-20 33q172 88 172 172z" />
    <glyph glyph-name="less" unicode="&#x3c;" horiz-adv-x="1155" 
d="M37 706l1076 466v-87l-926 -402l926 -406v-90l-1076 470v49z" />
    <glyph glyph-name="equal" unicode="=" horiz-adv-x="1155" 
d="M37 557h1079v-82h-1079v82zM37 883h1079v-82h-1079v82z" />
    <glyph glyph-name="greater" unicode="&#x3e;" horiz-adv-x="1155" 
d="M1113 653l-1076 -466v86l927 402l-927 406v91l1076 -470v-49z" />
    <glyph glyph-name="question" unicode="?" horiz-adv-x="1323" 
d="M706 305q58 0 106 -47.5t48 -117.5t-49 -117.5t-115 -47.5t-116 48.5t-50 104.5t22 94t59 60.5t95 22.5zM879 1077q0 312 -230 312q-158 0 -280 -107q-31 -29 -31 -52t14 -31t52 -13t72 -20t55.5 -50.5t21.5 -91.5t-48 -101.5t-119 -45.5t-119 55.5t-48 137.5t47.5 158.5
t147.5 136.5t240 60q256 0 404 -99.5t148 -258.5q0 -106 -68 -184t-218 -143t-174 -113t-29 -107l-39 -2q9 67 23 104.5t51 86.5l14 22q84 114 98.5 192.5t14.5 153.5z" />
    <glyph glyph-name="at" unicode="@" horiz-adv-x="1706" 
d="M629 291q1 -115 61 -115q24 0 72 47q84 81 147 232.5t63 273.5q0 68 -22 98.5t-46 30.5t-53 -21.5t-79 -109t-96.5 -227.5t-46.5 -209zM908.5 928q85.5 0 107.5 -151l33 116l235 8l-177 -605q-29 -100 -29 -140t22.5 -63t56.5 -23q65 0 170.5 76t175 218.5t69.5 303.5
q0 266 -171.5 437t-446.5 171q-237 0 -431 -111.5t-307.5 -323.5t-113.5 -455q0 -333 212.5 -545.5t541.5 -212.5q271 0 485.5 145.5t304.5 385.5h59q-114 -283 -336 -434t-515 -151q-371 0 -612 239.5t-241 606.5q0 253 120 469t336.5 332t452.5 116t396.5 -85.5
t240 -239.5t79.5 -339t-85.5 -350t-214.5 -244t-278 -79q-97 0 -146.5 48t-49.5 110t23 146q-79 -132 -131 -191q-100 -113 -202 -113q-68 0 -114.5 54.5t-46.5 176.5t78 325.5t305 336.5q59 35 144.5 35z" />
    <glyph glyph-name="A" unicode="A" horiz-adv-x="1792" 
d="M1040 39q152 0 152 88q0 46 -40 133q-40 86 -46.5 100t-13.5 27l-23 51h-592l-45 -104q-22 -53 -22 -103t25.5 -94.5t59.5 -64.5t55.5 -25.5t61.5 -7.5v-39h-569v39q62 7 159 47t228 334l444 1005h37l562 -1222q55 -116 116.5 -140t118.5 -24h37v-39h-811v39h106z
M768 1098l-274 -623h555z" />
    <glyph glyph-name="B" unicode="B" horiz-adv-x="1792" 
d="M63 1397h1024q119 0 230 -23.5t181 -65.5t113.5 -108t43.5 -141q0 -122 -135 -211q-54 -36 -116 -60t-175 -55v-4q144 -27 237 -65q254 -112 254 -308q0 -108 -118 -232t-512 -124h-1027v39h41q129 0 191.5 62.5t62.5 191.5v813q0 130 -62.5 193t-191.5 63h-41v35z
M653 711v-676h314q199 0 305 88.5t106 239.5t-86 233q-65 65 -159 90t-275 25h-205zM653 1362v-612h303q373 0 373 325q0 146 -79.5 216.5t-245.5 70.5h-351z" />
    <glyph glyph-name="C" unicode="C" horiz-adv-x="1749" 
d="M952 -29q-214 0 -399 99.5t-294 268t-109 363.5q0 241 199.5 482t541.5 241q149 0 233 -40t148 -86t96 -46q71 0 178 148h35l29 -672h-33q-31 132 -74 215q-141 287 -310 368t-297 81t-259 -110.5t-131 -596.5q0 -285 64 -436.5t185 -196.5t217 -45q290 0 478 213
q50 58 81 116.5t62 154.5h35q-24 -89 -53 -148t-80 -123q-203 -250 -543 -250z" />
    <glyph glyph-name="D" unicode="D" horiz-adv-x="2028" 
d="M68 1397h927q452 0 678 -230q217 -211 217 -495q0 -140 -61 -265.5t-233 -266t-535 -140.5h-993v39h51q129 0 191.5 62.5t62.5 191.5v813q0 130 -62 192t-192 62h-51v37zM668 1360v-1321h270q222 0 308.5 42.5t131.5 90.5q166 169 166 523t-178 532q-97 95 -215 114
t-231 19h-252z" />
    <glyph glyph-name="E" unicode="E" horiz-adv-x="1686" 
d="M68 1397h1486v-541h-30q-41 142 -73.5 212.5t-90.5 139.5t-131 101q-123 51 -299 51h-275v-664h74q165 0 262 142q50 73 74 174q12 43 22 127h35v-916h-35q-28 170 -57 228.5t-61 99.5q-90 111 -256 111h-58v-625h230q203 0 299 45t153 94q98 83 152 207q31 71 65 192h37
v-575h-1521l-2 37h38q254 0 254 256v813q0 130 -62 192t-192 62h-38v37z" />
    <glyph glyph-name="F" unicode="F" horiz-adv-x="1686" 
d="M662 293q0 -254 253 -254h89v-39h-926v39h35q129 0 191.5 62.5t62.5 191.5v813q0 130 -62 192t-192 62h-35v37h1528v-604h-33q-33 171 -75 262q-142 305 -505 305h-331v-606h88q139 0 217 91t112 294h35v-801h-37q-16 104 -68 241.5t-278 137.5h-69v-424z" />
    <glyph glyph-name="G" unicode="G" 
d="M1518 1266q70 0 151 123h37l10 -603h-33q-60 194 -127 287q-98 143 -247.5 226t-307.5 83q-82 0 -163 -30t-131 -80q-83 -83 -120.5 -229t-37.5 -363t47.5 -376t173.5 -227.5t236 -68.5q217 0 333 78q99 68 99 182v72q0 254 -254 254h-121v37h956v-37h-32
q-129 0 -191.5 -62.5t-62.5 -191.5v-328h-37q-45 42 -78.5 56t-97.5 14t-172 -45q-109 -39 -173 -52.5t-157 -13.5q-359 0 -532.5 150.5t-235.5 282.5t-62 254t35.5 254t169.5 270q154 152 314 196.5t310 44.5t376 -112q89 -45 125 -45z" />
    <glyph glyph-name="H" unicode="H" 
d="M659 293q0 -254 254 -254h31v-39h-878v39h45q129 0 191.5 62.5t62.5 191.5v849q-9 64 -25 101.5t-49 63.5q-60 53 -180 53h-48v37h881v-37h-31q-129 0 -191.5 -62.5t-62.5 -191.5v-375h752v375q0 130 -62 192t-192 62h-29v37h873v-37h-41q-254 0 -254 -254v-813
q0 -254 254 -254h41v-39h-873v39h29q129 0 191.5 62.5t62.5 191.5v397h-752v-397z" />
    <glyph glyph-name="I" unicode="I" horiz-adv-x="1087" 
d="M705 293q0 -254 253 -254h39v-39h-880v39h39q129 0 191.5 62.5t62.5 191.5v844q-15 123 -74 170q-60 53 -180 53h-39v37h880v-37h-39q-129 0 -191 -62t-62 -192v-813z" />
    <glyph glyph-name="J" unicode="J" horiz-adv-x="1450" 
d="M436 1397h963v-37h-41q-256 0 -256 -254v-678q0 -314 -208 -386.5t-333 -72.5q-250 0 -383 133q-88 95 -88 181q0 87 54.5 142.5t131.5 55.5t125 -49t48 -125q0 -121 -134 -168q-41 -14 -41 -30q0 -27 63 -65t167 -38t204.5 50.5t100.5 228.5v821q0 254 -256 254h-117v37
z" />
    <glyph glyph-name="K" unicode="K" 
d="M408 1106q0 256 -256 256h-41v35h884v-35h-41q-254 0 -254 -256v-608l662 530q66 55 88.5 89.5t22.5 80.5q0 75 -64 119.5t-174 44.5h-33v35h817v-35h-20q-169 0 -481 -252l-275 -219l422 -647q70 -108 147.5 -156.5t180.5 -48.5h26v-39h-862v39h45q191 0 191 90
q0 26 -43 94l-320 494l-330 -264v-160q0 -254 254 -254h41v-39h-882v39h39q256 0 256 254v813z" />
    <glyph glyph-name="L" unicode="L" horiz-adv-x="1686" 
d="M63 1397h953v-37h-101q-129 0 -191 -62t-62 -192v-1069h362q107 0 202 47.5t151 116.5t102 144t104 273h37v-618h-1557l-2 37h52q254 0 254 256v813q0 254 -254 254h-50v37z" />
    <glyph glyph-name="M" unicode="M" horiz-adv-x="2284" 
d="M1389 39q253 0 253 254v950h-4l-600 -1243h-34l-607 1239h-4v-901q0 -188 106 -242t206 -57v-39h-656v39h14q135 0 212 79t77 214v774q0 130 -62 192t-192 62h-49v37h584l526 -1069l522 1069h551v-37h-51q-129 0 -191.5 -62.5t-62.5 -191.5v-813q0 -254 254 -254h51v-39
h-903v39h60z" />
    <glyph glyph-name="N" unicode="N" horiz-adv-x="2005" 
d="M84 1397h561l971 -1006v602q0 230 -146 318q-64 40 -184 49v37h692v-37h-14q-151 0 -230 -96t-79 -279v-999h-33l-1206 1239v-830q0 -231 117 -303q59 -36 118 -44t137 -11v-37h-729v37q222 12 271 108.5t49 194.5v790q0 146 -94.5 188t-182.5 42h-18v37z" />
    <glyph glyph-name="O" unicode="O" horiz-adv-x="1962" 
d="M506 696q0 -310 131.5 -498t351.5 -188q148 0 257.5 84.5t168 241.5t58.5 335t-32 300t-130 270t-330 148q-71 0 -186 -45t-202 -222.5t-87 -425.5zM962 1425q409 0 654 -245q101 -102 156 -227.5t55 -256.5q0 -197 -111.5 -363t-303 -263t-392.5 -97t-354.5 55
t-270.5 155.5t-182.5 234.5t-65.5 280q0 194 113 362t303 266.5t399 98.5z" />
    <glyph glyph-name="P" unicode="P" horiz-adv-x="1729" 
d="M49 1397h834q275 0 438 -35t250.5 -125.5t87.5 -224.5q0 -185 -166.5 -286t-464.5 -101h-383v-332q0 -256 254 -256h70v-37h-922v37h49q254 0 254 256v813q0 254 -254 254h-47v37zM645 1360v-696h279q207 0 306 85.5t99 279.5q0 268 -159 299.5t-257 31.5h-268z" />
    <glyph glyph-name="Q" unicode="Q" horiz-adv-x="1962" 
d="M994 465q79 0 150 -20.5t253 -153.5q76 182 76 411q0 309 -132.5 498t-350.5 189q-219 0 -351.5 -190.5t-132.5 -502.5q0 -207 59.5 -362t170.5 -239.5t257 -84.5t275 103q-125 129 -207 183t-154 54q-36 0 -55 -11t-45 -44l-27 10q15 78 75 119t139 41zM968 -29
q-206 0 -400.5 97.5t-307.5 263.5t-113 364q0 148 66 283t180.5 233.5t270 154.5t327.5 56t324.5 -56.5t268 -157t179.5 -233t64 -276.5t-68 -290q-36 -75 -79 -128.5t-121 -117.5q106 -68 179 -68t140 113l31 -19q-34 -99 -97.5 -197.5t-189.5 -98.5t-279 143
q-169 -66 -375 -66z" />
    <glyph glyph-name="R" unicode="R" 
d="M696 721h398q278 0 344.5 105t66.5 216q0 318 -405 318h-404v-639zM696 293q0 -254 254 -254h41v-39h-882v39h38q129 0 191.5 62.5t62.5 191.5v813q0 130 -62 192t-192 62h-38v37h1083q220 0 385.5 -41.5t212.5 -150.5t47 -167q0 -158 -164 -254q-61 -33 -166 -58.5
t-197 -33.5t-253 -8v-4q154 -100 248 -133.5t178 -52.5l33 -50q37 -54 122 -182t154 -180q65 -43 186 -43h39v-39h-524l-483 684h-314v-391z" />
    <glyph glyph-name="S" unicode="S" horiz-adv-x="1599" 
d="M1421 1370v-479h-35q-63 173 -132 255t-206.5 163.5t-365.5 81.5q-167 0 -258 -91q-70 -70 -70 -144t52 -126q52 -51 218.5 -100.5t229.5 -59.5l127 -32q198 -51 289 -89.5t148 -94.5q112 -109 112 -255q0 -72 -31 -144.5t-88 -127.5q-148 -152 -430 -152q-173 0 -369 81
q-102 42 -144 53.5t-96 11.5t-103.5 -37.5t-65.5 -106.5h-35v646h35q21 -172 139 -312q71 -82 242.5 -191.5t400.5 -109.5q97 0 177.5 32t125.5 89t45 131q0 116 -109.5 172.5t-332.5 116.5l-100 27q-233 63 -329 99t-153.5 73t-99.5 94q-62 80 -62 186t69 198.5t193 144.5
t275 52q228 0 473 -127q86 -43 117 -43q78 0 112 115h35z" />
    <glyph glyph-name="T" unicode="T" horiz-adv-x="1792" 
d="M80 1397h1638v-709l-32 -2q-25 266 -160 457q-160 217 -406 217h-73v-1067q0 -254 253 -254h211v-39h-1220v39h209q254 0 254 254v1067h-90q-250 0 -406 -234q-77 -115 -117 -274q-13 -54 -26 -164h-35v709z" />
    <glyph glyph-name="U" unicode="U" 
d="M942 1360q-254 0 -254 -254v-709q0 -245 161 -317t297 -72t246 36.5t175 100.5q119 122 119 342v500q0 240 -140 326q-40 25 -84 35t-127 12v37h678v-37q-63 -5 -100 -16.5t-85 -47.5t-78 -107.5t-30 -168.5v-557q0 -222 -121 -340q-67 -64 -143 -92q-160 -60 -352 -60
q-364 0 -545 123q-164 113 -164 324v688q0 254 -254 254h-57v37h969v-37h-111z" />
    <glyph glyph-name="V" unicode="V" horiz-adv-x="1792" 
d="M47 1397h817v-37h-100q-68 0 -107 -28t-39 -78t29 -115l381 -836l320 721q38 83 38 156t-53.5 124t-148.5 56v37h563v-37q-157 -18 -233.5 -121.5t-129.5 -220.5l-464 -1045l-35 -2l-541 1180q-96 209 -248 209h-49v37z" />
    <glyph glyph-name="W" unicode="W" horiz-adv-x="2410" 
d="M772 1360q-172 -2 -172 -96q0 -48 18 -101l295 -817l285 709q-35 102 -61.5 150.5t-64.5 86.5t-77 53t-94 15v37h758v-37h-37q-90 0 -140 -31t-50 -79t14 -83l301 -821l295 752q22 61 22 123t-58.5 99t-180.5 40l-2 37h561v-37q-56 -4 -141.5 -37.5t-167.5 -237.5
l-439 -1116h-37l-382 1041l-416 -1041h-39l-404 1106q-53 151 -119 218t-161 67h-35v37h727z" />
    <glyph glyph-name="X" unicode="X" 
d="M68 1397h911v-37h-18q-75 0 -120.5 -23.5t-45.5 -55.5q0 -60 53 -128l282 -326l220 224q80 83 80 153t-59 111.5t-171 44.5v37h750v-37q-133 -22 -228 -70q-174 -87 -319 -235l-250 -256l465 -543q89 -103 185 -161t179 -58h25v-37h-930v37h80q86 0 133 24.5t47 69.5
t-49 98l-323 379l-230 -235q-72 -76 -85 -113.5t-13 -66.5q0 -72 59.5 -114t165.5 -42h41v-37h-835v37q322 42 594 311l280 285l-463 534q-164 193 -375 193h-36v37z" />
    <glyph glyph-name="Y" unicode="Y" 
d="M1194 293q0 -254 254 -254h94v-39h-995v39h98q129 0 191.5 62.5t62.5 191.5v301l-418 571q-80 110 -157 152.5t-199 42.5h-25v37h895v-35h-104q-62 0 -96.5 -23t-34.5 -55t10 -50t59 -89l347 -479l311 409q63 79 63 141t-55 103t-143 41h-92v37h718v-35
q-137 -15 -233.5 -74.5t-198.5 -191.5l-352 -465v-338z" />
    <glyph glyph-name="Z" unicode="Z" horiz-adv-x="1686" 
d="M254 1397h1235v-37l-1000 -1323h447q235 0 373 164q63 76 101.5 152.5t86.5 226.5h37v-580h-1384v39l1005 1323h-299q-263 0 -401 -160q-56 -63 -89 -126t-77 -189h-35v510z" />
    <glyph glyph-name="bracketleft" unicode="[" horiz-adv-x="725" 
d="M152 1456h534v-37h-31q-121 -1 -153 -35q-58 -63 -58 -215v-968q0 -106 48 -155.5t153 -49.5h39v-33h-532v1493z" />
    <glyph glyph-name="backslash" unicode="\" horiz-adv-x="569" 
d="M2 1387h126l447 -1418h-129z" />
    <glyph glyph-name="bracketright" unicode="]" horiz-adv-x="725" 
d="M59 1458h531v-1491h-533v37h43q104 0 151.5 49.5t47.5 159.5v1006q0 152 -65 179t-144 27h-31v33z" />
    <glyph glyph-name="asciicircum" unicode="^" horiz-adv-x="1190" 
d="M147 666l411 718h82l404 -718h-159l-295 512l-290 -512h-153z" />
    <glyph glyph-name="underscore" unicode="_" horiz-adv-x="1024" 
d="M-12 -256v105h1048v-105h-1048z" />
    <glyph glyph-name="grave" unicode="`" horiz-adv-x="682" 
d="M-31 1747h412l194 -274h-43z" />
    <glyph glyph-name="a" unicode="a" horiz-adv-x="1792" 
d="M1040 39q152 0 152 88q0 46 -40 133q-40 86 -46.5 100t-13.5 27l-23 51h-592l-45 -104q-22 -53 -22 -103t25.5 -94.5t59.5 -64.5t55.5 -25.5t61.5 -7.5v-39h-569v39q62 7 159 47t228 334l444 1005h37l562 -1222q55 -116 116.5 -140t118.5 -24h37v-39h-811v39h106z
M768 1098l-274 -623h555z" />
    <glyph glyph-name="b" unicode="b" horiz-adv-x="1792" 
d="M63 1397h1024q119 0 230 -23.5t181 -65.5t113.5 -108t43.5 -141q0 -122 -135 -211q-54 -36 -116 -60t-175 -55v-4q144 -27 237 -65q254 -112 254 -308q0 -108 -118 -232t-512 -124h-1027v39h41q129 0 191.5 62.5t62.5 191.5v813q0 130 -62.5 193t-191.5 63h-41v35z
M653 711v-676h314q199 0 305 88.5t106 239.5t-86 233q-65 65 -159 90t-275 25h-205zM653 1362v-612h303q373 0 373 325q0 146 -79.5 216.5t-245.5 70.5h-351z" />
    <glyph glyph-name="c" unicode="c" horiz-adv-x="1749" 
d="M952 -29q-214 0 -399 99.5t-294 268t-109 363.5q0 241 199.5 482t541.5 241q149 0 233 -40t148 -86t96 -46q71 0 178 148h35l29 -672h-33q-31 132 -74 215q-141 287 -310 368t-297 81t-259 -110.5t-131 -596.5q0 -285 64 -436.5t185 -196.5t217 -45q290 0 478 213
q50 58 81 116.5t62 154.5h35q-24 -89 -53 -148t-80 -123q-203 -250 -543 -250z" />
    <glyph glyph-name="d" unicode="d" horiz-adv-x="2028" 
d="M68 1397h927q452 0 678 -230q217 -211 217 -495q0 -140 -61 -265.5t-233 -266t-535 -140.5h-993v39h51q129 0 191.5 62.5t62.5 191.5v813q0 130 -62 192t-192 62h-51v37zM668 1360v-1321h270q222 0 308.5 42.5t131.5 90.5q166 169 166 523t-178 532q-97 95 -215 114
t-231 19h-252z" />
    <glyph glyph-name="e" unicode="e" horiz-adv-x="1686" 
d="M68 1397h1486v-541h-30q-41 142 -73.5 212.5t-90.5 139.5t-131 101q-123 51 -299 51h-275v-664h74q165 0 262 142q50 73 74 174q12 43 22 127h35v-916h-35q-28 170 -57 228.5t-61 99.5q-90 111 -256 111h-58v-625h230q203 0 299 45t153 94q98 83 152 207q31 71 65 192h37
v-575h-1521l-2 37h38q254 0 254 256v813q0 130 -62 192t-192 62h-38v37z" />
    <glyph glyph-name="f" unicode="f" horiz-adv-x="1686" 
d="M662 293q0 -254 253 -254h89v-39h-926v39h35q129 0 191.5 62.5t62.5 191.5v813q0 130 -62 192t-192 62h-35v37h1528v-604h-33q-33 171 -75 262q-142 305 -505 305h-331v-606h88q139 0 217 91t112 294h35v-801h-37q-16 104 -68 241.5t-278 137.5h-69v-424z" />
    <glyph glyph-name="g" unicode="g" 
d="M1518 1266q70 0 151 123h37l10 -603h-33q-60 194 -127 287q-98 143 -247.5 226t-307.5 83q-82 0 -163 -30t-131 -80q-83 -83 -120.5 -229t-37.5 -363t47.5 -376t173.5 -227.5t236 -68.5q217 0 333 78q99 68 99 182v72q0 254 -254 254h-121v37h956v-37h-32
q-129 0 -191.5 -62.5t-62.5 -191.5v-328h-37q-45 42 -78.5 56t-97.5 14t-172 -45q-109 -39 -173 -52.5t-157 -13.5q-359 0 -532.5 150.5t-235.5 282.5t-62 254t35.5 254t169.5 270q154 152 314 196.5t310 44.5t376 -112q89 -45 125 -45z" />
    <glyph glyph-name="h" unicode="h" 
d="M659 293q0 -254 254 -254h31v-39h-878v39h45q129 0 191.5 62.5t62.5 191.5q21 116 19 289q-7 428 -17 526q-11 98 -27 135.5t-49 63.5q-60 53 -180 53h-48v37h881v-37h-31q-129 0 -191.5 -62.5t-62.5 -191.5v-375h752v375q0 130 -62 192t-192 62h-29v37h873v-37h-41
q-254 0 -254 -254v-813q0 -254 254 -254h41v-39h-873v39h29q129 0 191.5 62.5t62.5 191.5v397h-752v-397z" />
    <glyph glyph-name="i" unicode="i" horiz-adv-x="1087" 
d="M705 293q0 -254 253 -254h39v-39h-880v39h39q129 0 191.5 62.5t62.5 191.5q20 137 17 402t-14 387t-27.5 160.5t-49.5 64.5q-60 53 -180 53h-39v37h880v-37h-39q-129 0 -191 -62t-62 -192v-813z" />
    <glyph glyph-name="j" unicode="j" horiz-adv-x="1450" 
d="M436 1397h963v-37h-41q-256 0 -256 -254v-678q0 -314 -208 -386.5t-333 -72.5q-250 0 -383 133q-88 95 -88 181q0 87 54.5 142.5t131.5 55.5t125 -49t48 -125q0 -121 -134 -168q-41 -14 -41 -30q0 -27 63 -65t167 -38t204.5 50.5t100.5 228.5v821q0 254 -256 254h-117v37
z" />
    <glyph glyph-name="k" unicode="k" 
d="M408 1106q0 256 -256 256h-41v35h884v-35h-41q-254 0 -254 -256v-608l662 530q66 55 88.5 89.5t22.5 80.5q0 75 -64 119.5t-174 44.5h-33v35h817v-35h-20q-169 0 -481 -252l-275 -219l422 -647q70 -108 147.5 -156.5t180.5 -48.5h26v-39h-862v39h45q191 0 191 90
q0 26 -43 94l-320 494l-330 -264v-160q0 -254 254 -254h41v-39h-882v39h39q256 0 256 254v813z" />
    <glyph glyph-name="l" unicode="l" horiz-adv-x="1686" 
d="M63 1397h953v-37h-101q-129 0 -191 -62t-62 -192v-1069h362q107 0 202 47.5t151 116.5t102 144t104 273h37v-618h-1557l-2 37h52q254 0 254 256v813q0 254 -254 254h-50v37z" />
    <glyph glyph-name="m" unicode="m" horiz-adv-x="2284" 
d="M1389 39q253 0 253 254v950h-4l-600 -1243h-34l-607 1239h-4v-901q0 -188 106 -242t206 -57v-39h-656v39h14q135 0 212 79t77 214v774q0 130 -62 192t-192 62h-49v37h584l526 -1069l522 1069h551v-37h-51q-129 0 -191.5 -62.5t-62.5 -191.5v-813q0 -254 254 -254h51v-39
h-903v39h60z" />
    <glyph glyph-name="n" unicode="n" horiz-adv-x="2005" 
d="M84 1397h561l971 -1006v602q0 230 -146 318q-64 40 -184 49v37h692v-37h-14q-151 0 -230 -96t-79 -279v-999h-33l-1206 1239v-830q0 -231 117 -303q59 -36 118 -44t137 -11v-37h-729v37q222 12 271 108.5t49 194.5v790q0 146 -94.5 188t-182.5 42h-18v37z" />
    <glyph glyph-name="o" unicode="o" horiz-adv-x="1962" 
d="M506 696q0 -310 132 -498t351 -188q147 0 257 84t168 242q58 157 59 335q0 178 -32 300q-32 123 -92 213q-136 206 -368 205q-71 1 -151 -31q-149 -58 -237 -236q-87 -178 -87 -426zM962 1425q409 0 654 -245q101 -102 156 -228t55 -256q1 -197 -111 -363t-304 -263
t-392 -97t-354 55q-154 56 -271 156t-183 234t-65 280q0 194 113 362t303 266t399 99z" />
    <glyph glyph-name="p" unicode="p" horiz-adv-x="1729" 
d="M49 1397h834q275 0 438 -35t250.5 -125.5t87.5 -224.5q0 -185 -166.5 -286t-464.5 -101h-383v-332q0 -256 254 -256h70v-37h-922v37h49q254 0 254 256v813q0 254 -254 254h-47v37zM645 1360v-696h279q207 0 306 85.5t99 279.5q0 268 -159 299.5t-257 31.5h-268z" />
    <glyph glyph-name="q" unicode="q" horiz-adv-x="1962" 
d="M994 465q79 0 150 -20.5t253 -153.5q76 182 76 411q0 309 -132.5 498t-350.5 189q-219 0 -351.5 -190.5t-132.5 -502.5q0 -207 59.5 -362t170.5 -239.5t257 -84.5t275 103q-125 129 -207 183t-154 54q-36 0 -55 -11t-45 -44l-27 10q15 78 75 119t139 41zM968 -29
q-206 0 -400.5 97.5t-307.5 263.5t-113 364q0 148 66 283t180.5 233.5t270 154.5t327.5 56t324.5 -56.5t268 -157t179.5 -233t64 -276.5t-68 -290q-36 -75 -79 -128.5t-121 -117.5q106 -68 179 -68t140 113l31 -19q-34 -99 -97.5 -197.5t-189.5 -98.5t-279 143
q-169 -66 -375 -66z" />
    <glyph glyph-name="r" unicode="r" 
d="M696 721h398q278 0 344.5 105t66.5 216q0 318 -405 318h-404v-639zM696 293q0 -254 254 -254h41v-39h-882v39h38q129 0 191.5 62.5t62.5 191.5v813q0 130 -62 192t-192 62h-38v37h1083q220 0 385.5 -41.5t212.5 -150.5t47 -167q0 -158 -164 -254q-61 -33 -166 -58.5
t-197 -33.5t-253 -8v-4q154 -100 248 -133.5t178 -52.5l33 -50q37 -54 122 -182t154 -180q65 -43 186 -43h39v-39h-524l-483 684h-314v-391z" />
    <glyph glyph-name="s" unicode="s" horiz-adv-x="1599" 
d="M1421 1370v-479h-35q-63 173 -132 255t-206.5 163.5t-365.5 81.5q-167 0 -258 -91q-70 -70 -70 -144t52 -126q52 -51 218.5 -100.5t229.5 -59.5l127 -32q198 -51 289 -89.5t148 -94.5q112 -109 112 -255q0 -72 -31 -144.5t-88 -127.5q-148 -152 -430 -152q-173 0 -369 81
q-102 42 -144 53.5t-96 11.5t-103.5 -37.5t-65.5 -106.5h-35v646h35q21 -172 139 -312q71 -82 242.5 -191.5t400.5 -109.5q97 0 177.5 32t125.5 89t45 131q0 116 -109.5 172.5t-332.5 116.5l-100 27q-233 63 -329 99t-153.5 73t-99.5 94q-62 80 -62 186t69 198.5t193 144.5
t275 52q228 0 473 -127q86 -43 117 -43q78 0 112 115h35z" />
    <glyph glyph-name="t" unicode="t" horiz-adv-x="1792" 
d="M80 1397h1638v-709l-32 -2q-25 266 -160 457q-160 217 -406 217h-73v-1067q0 -254 253 -254h211v-39h-1220v39h209q254 0 254 254v1067h-90q-250 0 -406 -234q-77 -115 -117 -274q-13 -54 -26 -164h-35v709z" />
    <glyph glyph-name="u" unicode="u" 
d="M942 1360q-254 0 -254 -254v-709q0 -245 161 -317t297 -72t246 36.5t175 100.5q119 122 119 342v500q0 240 -140 326q-40 25 -84 35t-127 12v37h678v-37q-63 -5 -100 -16.5t-85 -47.5t-78 -107.5t-30 -168.5v-557q0 -222 -121 -340q-67 -64 -143 -92q-160 -60 -352 -60
q-364 0 -545 123q-164 113 -164 324v688q0 254 -254 254h-57v37h969v-37h-111z" />
    <glyph glyph-name="v" unicode="v" horiz-adv-x="1792" 
d="M47 1397h817v-37h-100q-68 0 -107 -28t-39 -78t29 -115l381 -836l320 721q38 83 38 156t-53.5 124t-148.5 56v37h563v-37q-157 -18 -233.5 -121.5t-129.5 -220.5l-464 -1045l-35 -2l-541 1180q-96 209 -248 209h-49v37z" />
    <glyph glyph-name="w" unicode="w" horiz-adv-x="2410" 
d="M772 1360q-172 -2 -172 -96q0 -48 18 -101l295 -817l285 709q-35 102 -61.5 150.5t-64.5 86.5t-77 53t-94 15v37h758v-37h-37q-90 0 -140 -31t-50 -79t14 -83l301 -821l295 752q22 61 22 123t-58.5 99t-180.5 40l-2 37h561v-37q-56 -4 -141.5 -37.5t-167.5 -237.5
l-439 -1116h-37l-382 1041l-416 -1041h-39l-404 1106q-53 151 -119 218t-161 67h-35v37h727z" />
    <glyph glyph-name="x" unicode="x" 
d="M68 1397h911v-37h-18q-75 0 -120.5 -23.5t-45.5 -55.5q0 -60 53 -128l282 -326l220 224q80 83 80 153t-59 111.5t-171 44.5v37h750v-37q-133 -22 -228 -70q-174 -87 -319 -235l-250 -256l465 -543q89 -103 185 -161t179 -58h25v-37h-930v37h80q86 0 133 24.5t47 69.5
t-49 98l-323 379l-230 -235q-72 -76 -85 -113.5t-13 -66.5q0 -72 59.5 -114t165.5 -42h41v-37h-835v37q322 42 594 311l280 285l-463 534q-164 193 -375 193h-36v37z" />
    <glyph glyph-name="y" unicode="y" 
d="M1194 293q0 -254 254 -254h94v-39h-995v39h98q129 0 191.5 62.5t62.5 191.5v301l-418 571q-80 110 -157 152.5t-199 42.5h-25v37h895v-35h-104q-62 0 -96.5 -23t-34.5 -55t10 -50t59 -89l347 -479l311 409q63 79 63 141t-55 103t-143 41h-92v37h718v-35
q-137 -15 -233.5 -74.5t-198.5 -191.5l-352 -465v-338z" />
    <glyph glyph-name="z" unicode="z" horiz-adv-x="1686" 
d="M254 1397h1235v-37l-1000 -1323h447q235 0 373 164q63 76 101.5 152.5t86.5 226.5h37v-580h-1384v39l1005 1323h-299q-263 0 -401 -160q-56 -63 -89 -126t-77 -189h-35v510z" />
    <glyph glyph-name="braceleft" unicode="{" horiz-adv-x="807" 
d="M717 1565q-195 -35 -195 -203q0 -54 24 -151t25 -161q0 -124 -90 -214q-43 -47 -94 -73t-143 -48v-4q329 -96 329 -330q-1 -57 -25 -156t-24 -160q0 -119 84 -169q35 -26 109 -39v-47h-35q-102 1 -188.5 44.5t-137.5 118.5t-51 150q1 75 27 175t26 180t-50 133.5
t-144 68.5v61q194 32 194 226q0 63 -26 161t-25 166q0 68 48 143t112 111t114.5 47.5t135.5 14.5v-45z" />
    <glyph glyph-name="bar" unicode="|" horiz-adv-x="410" 
d="M244 1422v-1864h-83v1864h83z" />
    <glyph glyph-name="braceright" unicode="}" horiz-adv-x="807" 
d="M285 55q-1 49 -25 151t-24 173q0 114 90 207q45 47 94 72t143 49v4q-105 32 -151.5 56.5t-88.5 68.5q-90 94 -90 204q0 53 25 156t25 162q0 116 -84 168q-34 21 -109 39v45l35 2q102 -1 188.5 -45t137.5 -118.5t51 -150.5t-26 -175q-26 -98 -27 -173q0 -179 194 -211v-59
q-70 -13 -115 -43q-79 -63 -79 -185q-1 -60 25 -162q26 -100 26 -167t-47 -139.5t-125 -118.5q-96 -50 -238 -55v45q195 36 195 200z" />
    <glyph glyph-name="asciitilde" unicode="~" horiz-adv-x="1065" 
d="M246 566q-144 0 -176 -179h-58q8 164 81.5 243.5t178.5 79.5t292 -80q188 -80 228 -92q40 -11 75 -11q71 0 119.5 47t57.5 135h57q-6 -159 -82.5 -241t-186.5 -82q-53 0 -112.5 17t-233.5 90t-240 73z" />
    <glyph glyph-name="nonbreakingspace" unicode="&#xa0;" horiz-adv-x="662" 
 />
    <glyph glyph-name="exclamdown" unicode="&#xa1;" horiz-adv-x="831" 
d="M357 1425q68 0 117.5 -48.5t49.5 -116.5t-48.5 -117t-117.5 -49t-117 48t-48 116t48 117.5t116 49.5zM478 31.5q-46 -58.5 -120 -58.5t-121 60.5t-47 132.5t15.5 133t57.5 173t57 175t20 162h35q4 -86 21.5 -159t62.5 -193q65 -197 65 -282t-46 -143.5z" />
    <glyph glyph-name="cent" unicode="&#xa2;" horiz-adv-x="874" 
d="M549 602q0 75 51 103q21 11 21 28t-32.5 30t-94.5 13t-90 -40t-38 -103.5t-12 -210.5v-16q1 -153 13.5 -226.5t40.5 -101.5l163 448q-22 36 -22 76zM508 829q78 0 162 -30l125 338h51l-131 -361q110 -65 110 -176q0 -58 -38.5 -94.5t-90.5 -36.5t-86 20l-157 -436
q37 -10 71 -10q103 0 167.5 52.5t99.5 168.5h55q-31 -187 -147 -238t-216 -51q-19 0 -57 5l-147 -406h-54l150 416q-94 22 -169 81.5t-117 144t-42 188.5t61 205t166 160t228 60h6z" />
    <glyph glyph-name="sterling" unicode="&#xa3;" horiz-adv-x="1323" 
d="M237 389q88 0 224 -59q-3 109 -21 181.5t-65 168.5h-248v133h197q-60 129 -60 235t64 193t179 135.5t253 48.5t239.5 -36t157 -100.5t55.5 -144.5t-45.5 -128.5t-115.5 -48.5t-116 43t-46 108q0 90 96 146q41 24 41 41q0 35 -66.5 59.5t-149.5 24.5t-173 -43t-90 -185
q1 -62 41 -174q40 -111 55 -174h395v-133h-366q4 -29 4 -66q0 -129 -86 -325q163 -60 319 -60q287 0 353 207l32 -2q-6 -125 -78.5 -292t-322.5 -167q-101 0 -182.5 41t-192.5 144q-64 -95 -129 -139t-149 -44t-143.5 60t-59.5 150t56 146t144 56zM212 338q-58 0 -97 -42
t-39 -110t44 -114.5t114 -46.5t125 55.5t83 152.5q-73 58 -122.5 81.5t-107.5 23.5z" />
    <glyph glyph-name="currency" unicode="&#xa4;" horiz-adv-x="1024" 
d="M510 987q-130 0 -221.5 -91.5t-91.5 -221.5t91.5 -221t221.5 -91t221.5 91t91.5 221t-91.5 221.5t-221.5 91.5zM69 677q0 150 88 258l-136 135l93 92l133 -135q123 90 259 90t273 -90l138 135l89 -87l-140 -140q87 -123 87 -259t-87 -266l129 -128l-92 -91l-130 129
q-80 -50 -136.5 -67.5t-128.5 -17.5t-130.5 19t-130.5 66l-133 -129l-88 91l131 128q-88 117 -88 267z" />
    <glyph glyph-name="yen" unicode="&#xa5;" 
d="M1425 997h-485l238 -325zM1548 1222q0 62 -55 102t-147 40h-86v37h718v-37q-185 -21 -276 -100.5t-162 -171.5l-43 -58h481v-37h-508l-276 -364h784v-37h-784v-326q0 -113 67 -173t191 -60h92v-37h-995v37h47q163 0 233 56.5t70 189.5v313h-799v37h770l-264 364h-506v37
h480l-93 125q-84 115 -162.5 160t-195.5 45h-29v37h895v-37h-104q-60 0 -96.5 -23t-36.5 -59t33 -82l122 -166h541l49 66q45 60 45 122z" />
    <glyph glyph-name="brokenbar" unicode="&#xa6;" horiz-adv-x="410" 
d="M244 300v-742h-83v742h83zM244 1422v-742h-83v742h83z" />
    <glyph glyph-name="section" unicode="&#xa7;" horiz-adv-x="934" 
d="M715 435q0 54 -42.5 115.5t-170.5 157.5t-182 150q-68 -48 -95 -94t-27 -104t38 -116t160 -146t198 -154q121 76 121 191zM799 -95q0 -151 -92.5 -243.5t-238.5 -92.5t-240 92.5t-114 268.5l149 26q24 -132 75 -183.5t132 -51.5t130.5 50t49.5 117t-39 114
q-59 75 -241 211t-228 201q-78 108 -78 219t50.5 187.5t133.5 106.5q-105 125 -105 254t86 219.5t223 90.5t226 -86.5t107 -260.5l-153 -19q-18 124 -62 171t-115 47t-119.5 -47.5t-48.5 -107.5q1 -60 45 -119t222 -192t228 -197q73 -96 73 -210t-55 -192q-36 -51 -132 -100
q131 -122 131 -273z" />
    <glyph glyph-name="dieresis" unicode="&#xa8;" horiz-adv-x="682" 
d="M680 1731q44 0 91.5 -26t47.5 -101t-46.5 -102t-90.5 -27t-81.5 38.5t-37.5 89.5t36.5 89.5t80.5 38.5zM159 1695.5q38 -37.5 38 -82.5t-27.5 -91.5t-90.5 -46.5q-64 0 -102 38.5t-38 90.5t37.5 90.5t90.5 38.5q54 0 92 -37.5z" />
    <glyph glyph-name="copyright" unicode="&#xa9;" horiz-adv-x="1556" 
d="M779 1325q-176 0 -325 -87t-236 -236t-87 -303q0 -289 189.5 -478.5t457.5 -189.5q176 0 325 86.5t235.5 235.5t86.5 324t-86 324t-235 236.5t-325 87.5zM778 1386q192 0 355.5 -95.5t258.5 -258t95 -354.5t-95.5 -355t-258.5 -258.5t-355 -95.5t-354.5 95t-258 258.5
t-95.5 355.5t95 355t258 258t355 95zM807 1090q-96 0 -209 -72.5t-113 -312.5q0 -239 115 -340q87 -76 217 -76q199 0 311 162l37 -21q-138 -203 -383 -203q-129 0 -235.5 59t-167 160.5t-60.5 227.5t66 233.5t180 167.5t252 60q75 -1 143 -23t80 -22q31 0 50 45h38l21 -281
h-39q-71 236 -303 236z" />
    <glyph glyph-name="ordfeminine" unicode="&#xaa;" horiz-adv-x="662" 
d="M316 983q57 0 57 111v77q-89 -5 -122.5 -27t-33.5 -68t21 -69.5t78 -23.5zM43 1032q0 160 330 170v109q0 46 -14.5 62t-55.5 16q-82 0 -82 -31q-1 -6 15 -22t16 -41q0 -26 -26 -48t-62 -22t-62 21.5t-26 51.5q0 57 73 92t189 35t164.5 -27t48.5 -93v-252q0 -66 39 -66
q8 0 33 12l16 -28q-61 -58 -133 -58t-123 72q-90 -72 -195 -72q-64 0 -104.5 33.5t-40.5 85.5z" />
    <glyph glyph-name="guillemotleft" unicode="&#xab;" horiz-adv-x="1087" 
d="M811 1229h254l-256 -527l256 -528h-252l-256 526zM301 1229h254l-256 -529l254 -526h-252l-254 526z" />
    <glyph glyph-name="logicalnot" unicode="&#xac;" horiz-adv-x="1460" 
d="M31 477v113h1362v-590h-113v477h-1249z" />
    <glyph glyph-name="sfthyphen" unicode="&#xad;" horiz-adv-x="1087" 
d="M213 600h686v-254h-686v254z" />
    <glyph glyph-name="registered" unicode="&#xae;" horiz-adv-x="1556" 
d="M779 1325q-176 0 -325 -87t-236 -236t-87 -303q0 -289 189.5 -478.5t457.5 -189.5q176 0 325 86.5t235.5 235.5t86.5 324t-86 324t-235 236.5t-325 87.5zM778 1386q192 0 355.5 -95.5t258.5 -258t95 -354.5t-95.5 -355t-258.5 -258.5t-355 -95.5t-354.5 95t-258 258.5
t-95.5 355.5t95 355t258 258t355 95zM623 696h30q121 0 187.5 48.5t66.5 134.5q0 114 -71 152t-121 38t-92 -14v-359zM1069 891q0 -164 -223 -223l211 -297q35 -50 60 -68.5t61 -19.5v-35h-185l-295 405h-75v-309q8 -37 32 -49t86 -12v-35h-366v35q64 0 80 20t20 30t4 87
v522q0 81 -4.5 91.5t-18.5 26.5t-71 19v35h387q182 0 239.5 -78.5t57.5 -144.5z" />
    <glyph glyph-name="glyph113" unicode="&#xaf;" horiz-adv-x="1024" 
d="M-12 1443v105h1048v-105h-1048z" />
    <glyph glyph-name="degree" unicode="&#xb0;" horiz-adv-x="819" 
d="M635 1096q0 60 -31 112t-83 82.5t-129 30.5t-142.5 -65.5t-65.5 -159.5t66 -160t144 -66t129.5 31t81.5 83t30 112zM717 1085q0 -72 -42 -143.5t-112.5 -112.5t-152.5 -41t-153.5 41.5t-113 112t-41.5 144.5q0 139 91 228t218 89q126 0 216 -90t90 -228z" />
    <glyph glyph-name="plusminus" unicode="&#xb1;" horiz-adv-x="1124" 
d="M1104 0h-1084v113h1084v-113zM20 836h486v485h112v-485h486v-113h-486v-485h-112v485h-486v113z" />
    <glyph glyph-name="twosuperior" unicode="&#xb2;" horiz-adv-x="918" 
d="M535 1231q0 170 -173 170q-93 0 -159 -53t-66 -129q0 -25 17 -25q8 0 10.5 3.5t11.5 27.5q33 86 117 86q58 0 92.5 -37.5t34.5 -97.5t-39.5 -96t-93.5 -36t-112 33.5t-58 134.5q0 138 110.5 178t214.5 40t183.5 -25.5t123.5 -72.5t44 -118t-73 -130.5t-190 -82.5
t-206 -71v-4h389q30 0 44.5 12t26.5 51h21l-55 -272h-644q21 68 64 118.5t131 108.5l39 27q82 55 138.5 107t56.5 153z" />
    <glyph glyph-name="threesuperior" unicode="&#xb3;" horiz-adv-x="918" 
d="M262 770q0 -49 156 -49t157 178q0 178 -149 178l-78 -6q-16 -1 -16 19t22 20l76 -8q115 0 115 150t-142 151q-48 0 -82 -13.5t-34 -30.5t26 -30q60 -32 60 -87t-37.5 -88.5t-89.5 -33.5t-83.5 32.5t-31.5 86.5t59.5 119t240.5 65q349 0 349 -166q0 -45 -35.5 -84
t-89.5 -55l-102 -24v-4l172 -37q47 -18 75.5 -60t28.5 -90q0 -96 -100.5 -149.5t-293.5 -53.5t-253.5 70t-60.5 128t32.5 91t86.5 33t86 -33t32 -77t-14 -65t-48 -41t-34 -36z" />
    <glyph glyph-name="acute" unicode="&#xb4;" horiz-adv-x="682" 
d="M178 1470l195 277h411l-563 -277h-43z" />
    <glyph glyph-name="mu" unicode="&#xb5;" horiz-adv-x="1180" 
d="M125 1024h176v-682q0 -169 107 -217q87 -37 167 -2q40 18 85.5 56.5t64.5 82.5v762h176v-786q0 -95 48 -144t108 -16q39 23 49.5 72t13.5 57h41q-18 -77 -42.5 -125.5t-93.5 -85.5t-126 -30.5t-85 28.5t-47.5 47.5t-22.5 36.5l-17 88q-49 -73 -137 -137t-199 -64
q-74 0 -126 43.5t-66 54.5v-47q3 -68 28 -148t33 -124q17 -94 -15 -147.5t-79 -53.5t-78.5 53.5t-19.5 123.5t34.5 147t22.5 149v1008z" />
    <glyph glyph-name="paragraph" unicode="&#xb6;" horiz-adv-x="901" 
d="M337 -407v1045q-148 9 -240 117t-92 289q0 133 71.5 277.5t316.5 144.5h518v-173h-117v-1700h-140v1700h-182v-1700h-135z" />
    <glyph glyph-name="cedilla" unicode="&#xb8;" horiz-adv-x="682" 
d="M141 -84v23q146 25 228 75q127 -17 177 -47t50 -90q0 -97 -174 -133q-70 -14 -295 -14h-64v34h35q203 0 203 84q0 32 -32.5 50t-86.5 18h-41z" />
    <glyph glyph-name="onesuperior" unicode="&#xb9;" horiz-adv-x="918" 
d="M629 1411v-549q0 -60 33.5 -94.5t93.5 -34.5h67v-18h-655v18h70q59 0 96 30.5t37 80.5v352q0 57 -33 91t-88 34h-62v16q255 6 387 74h54z" />
    <glyph glyph-name="ordmasculine" unicode="&#xba;" horiz-adv-x="725" 
d="M246 1186v-25q0 -104 4.5 -140t17.5 -50q22 -29 70 -29t63 33q17 23 17 158v6q0 112 -2 162t-22 72t-68 22t-64 -31q-16 -30 -16 -178zM334 913h-4q-119 0 -197 66q-44 41 -62.5 80.5t-25.5 107.5q6 65 20.5 100t49.5 72q82 86 215 86q81 0 147.5 -33t103.5 -92.5
t37 -131.5t-37 -130.5t-102 -91.5t-145 -33z" />
    <glyph glyph-name="guillemotright" unicode="&#xbb;" horiz-adv-x="1087" 
d="M553 1229h254l256 -527l-256 -528h-254l254 528zM43 1229h254l254 -524l-252 -531h-256l256 528z" />
    <glyph glyph-name="onequarter" unicode="&#xbc;" horiz-adv-x="1708" 
d="M1430 231v263l-230 -263h230zM1430 -31v154h-383v123l405 474h122v-489h104v-108h-104v-154h-144zM331 733v554q-102 -81 -224 -113v123q62 20 138 73t123 114h108v-751h-145zM252 -57l1102 1548h156l-1101 -1548h-157z" />
    <glyph glyph-name="onehalf" unicode="&#xbd;" horiz-adv-x="1708" 
d="M1511 494q0 46 -34.5 76.5t-102.5 30.5t-100 -23.5t-53 -89.5l-151 15q29 112 101 164.5t214 52.5t212.5 -59t70.5 -143t-52 -150t-174 -154t-156 -124h386v-121h-623q6 56 48 113q62 87 206 191t176 140q32 35 32 81zM331 733v554q-102 -81 -224 -113v123q62 20 138 73
t123 114h108v-751h-145zM228 -57l1101 1548h157l-1101 -1548h-157z" />
    <glyph glyph-name="threequarters" unicode="&#xbe;" horiz-adv-x="1708" 
d="M1429 231v263l-229 -263h229zM1429 -31v154h-382v123l404 474h123v-489h104v-108h-104v-154h-145zM646 946q0 -93 -79 -162t-222 -69q-268 0 -312 214l146 15q37 -112 154 -112q71 0 114 39t43 94q0 110 -156 110q-50 -3 -58 -3l22 110q81 -1 118.5 29t37.5 70t-30 66
t-88 26t-89 -22t-54 -80l-143 23q41 106 103.5 148t194.5 42t197.5 -53t65.5 -121q0 -133 -138 -173q173 -43 173 -191zM252 -57l1101 1548h157l-1101 -1548h-157z" />
    <glyph glyph-name="questiondown" unicode="&#xbf;" horiz-adv-x="1323" 
d="M691 1423q68 0 116.5 -47.5t48.5 -117.5t-48 -117t-117 -47t-117 48t-48 115t48.5 116.5t116.5 49.5zM508 292q0 -125 59 -204.5t172 -79.5q78 0 153 29.5t116 67.5q41 37 41 61t-12 33t-49 13t-62 13q-92 40 -92 137q0 68 47.5 114t117.5 46t119 -55t49 -137
q0 -128 -96 -224q-131 -131 -363 -131t-380 101t-148 245t84 212.5t180 113.5l50 25q99 46 135 88t41 119h39q-9 -75 -24 -111t-55 -90t-46 -64q-42 -63 -59 -130t-17 -192z" />
    <glyph glyph-name="Agrave" unicode="&#xc0;" horiz-adv-x="1792" 
d="M524 1747h412l194 -274h-43zM1040 39q152 0 152 88q0 46 -40 133q-40 86 -46.5 100t-13.5 27l-23 51h-592l-45 -104q-22 -53 -22 -103t25.5 -94.5t59.5 -64.5t55.5 -25.5t61.5 -7.5v-39h-569v39q62 7 159 47t228 334l444 1005h37l562 -1222q55 -116 116.5 -140t118.5 -24
h37v-39h-811v39h106zM768 1098l-274 -623h555z" />
    <glyph glyph-name="Aacute" unicode="&#xc1;" horiz-adv-x="1792" 
d="M1040 39q152 0 152 88q0 46 -40 133q-40 86 -47 100q-6 14 -13 27l-23 51h-592l-45 -104q-22 -53 -22 -103t26 -95q26 -44 59 -64t55 -26t62 -7v-39h-569v39q63 7 99 22q158 65 288 359l444 1005h37l562 -1222q55 -115 136 -147q42 -16 99 -17h37v-39h-811v39h106z
M768 1098l-274 -623h555zM733 1470l195 277h411l-563 -277h-43z" />
    <glyph glyph-name="Acircumflex" unicode="&#xc2;" horiz-adv-x="1792" 
d="M1040 39q152 0 152 88q0 46 -40 133q-40 86 -47 100q-6 14 -13 27l-23 51h-592l-45 -104q-22 -53 -22 -103t26 -95q26 -44 59 -64t55 -26t62 -7v-39h-569v39q63 7 99 22q158 65 288 359l444 1005h37l562 -1222q55 -115 136 -147q42 -16 99 -17h37v-39h-811v39h106z
M768 1098l-274 -623h555zM770 1753h313l242 -278l-57 2l-344 159l-338 -155h-56z" />
    <glyph glyph-name="Atilde" unicode="&#xc3;" horiz-adv-x="1792" 
d="M1040 39q152 0 152 88q0 46 -40 133q-40 86 -47 100q-6 14 -13 27l-23 51h-592l-45 -104q-22 -53 -22 -103t26 -95q26 -44 59 -64t55 -26t62 -7v-39h-569v39q63 7 99 22q158 65 288 359l444 1005h37l562 -1222q55 -115 136 -147q42 -16 99 -17h37v-39h-811v39h106z
M768 1098l-274 -623h555zM1217 1620q104 0 135 111l37 -2q-13 -169 -145 -227q-64 -28 -139 -27q-75 0 -246 60t-219 60q-48 1 -80 -23t-64 -81h-35q21 120 93 183t178 63q106 -1 265 -59t220 -58z" />
    <glyph glyph-name="Adieresis" unicode="&#xc4;" horiz-adv-x="1792" 
d="M1040 39q152 0 152 88q0 46 -40 133q-40 86 -47 100q-6 14 -13 27l-23 51h-592l-45 -104q-22 -53 -22 -103t26 -95q26 -44 59 -64t55 -26t62 -7v-39h-569v39q63 7 99 22q158 65 288 359l444 1005h37l562 -1222q55 -115 136 -147q42 -16 99 -17h37v-39h-811v39h106z
M768 1098l-274 -623h555zM1235 1731q44 -1 74 -17q65 -36 65 -110q0 -75 -64 -112q-30 -17 -73 -17q-43 1 -81 39t-38 89t36 89t81 39zM714 1696q38 -37 38 -83q0 -45 -17 -74q-38 -64 -101 -64q-64 0 -102 38q-38 39 -38 91t38 90t90 39q54 0 92 -37z" />
    <glyph glyph-name="Aring" unicode="&#xc5;" horiz-adv-x="1792" 
d="M1040 39q152 0 152 88q0 46 -40 133q-40 86 -47 100q-6 14 -13 27l-23 51h-592l-45 -104q-22 -53 -22 -103t26 -95q26 -44 59 -64t55 -26t62 -7v-39h-569v39q63 7 99 22q158 65 288 359l444 1005h37l562 -1222q55 -115 136 -147q42 -16 99 -17h37v-39h-811v39h106z
M768 1098l-274 -623h555zM933 1821q-51 -1 -87 -37t-37 -88q0 -52 36 -88q35 -37 87 -37q52 1 88 37t37 87q-1 51 -37 89t-87 37zM929 1917q59 0 111 -29t82 -80t29 -127q0 -76 -65 -140t-139 -64q-74 -1 -125 29t-81 80t-30 110q-1 58 29 108t80 82q50 31 109 31z" />
    <glyph glyph-name="AE" unicode="&#xc6;" horiz-adv-x="2347" 
d="M668 1397h1536v-535h-27q-38 137 -69 205.5t-91 141.5q-124 151 -403 151h-219v-664h30q165 0 263 148q65 98 92 299h30v-914h-30q-17 122 -74 279.5t-293 157.5h-18v-627h182q312 0 469 199q74 93 106 173t56 169h37v-580h-1434v39h37q129 0 191.5 62.5t62.5 191.5v143
h-617l-18 -33q-76 -131 -76 -200q0 -152 211 -164v-39h-563v39q149 12 212.5 89t96.5 136l526 930q44 80 44 113q0 53 -95 53h-155v37zM1102 469v891h-98l-498 -891h596z" />
    <glyph glyph-name="Ccedilla" unicode="&#xc7;" horiz-adv-x="1749" 
d="M1131 -118q0 -65 -64 -101q-39 -23 -109 -37t-296 -14h-64v34h35q203 0 203 84q0 32 -32 50t-87 18h-41v23q90 15 155 40q-147 19 -278 91q-185 100 -294 268t-109 364q0 240 168 444q231 278 573 279q149 -1 259 -53q58 -28 122 -73q64 -46 96 -46q71 0 178 148h35
l29 -672h-33q-31 132 -74 215q-141 287 -368 396q-111 53 -239 53q-128 -1 -217 -75q-173 -146 -173 -632q0 -284 62 -430q90 -212 334 -243q1 1 24 -2q108 -12 228 21q172 48 296 189q50 59 81 117t62 154h35q-24 -89 -53 -148t-80 -123q-170 -209 -435 -243q71 -31 71 -96
z" />
    <glyph glyph-name="Egrave" unicode="&#xc8;" horiz-adv-x="1686" 
d="M68 1397h1486v-541h-30q-42 142 -74 212t-90 140q-58 69 -131 101q-123 51 -299 51h-275v-664h74q165 0 262 142q50 73 74 174q12 43 22 127h35v-916h-35q-28 170 -57 229q-29 58 -61 99q-90 111 -256 111h-58v-625h230q203 -1 330 59q65 30 122 80q98 83 152 207
q31 71 65 192h37v-575h-1521l-2 37h38q254 0 254 256v813q0 130 -62 192t-192 62h-38v37zM471 1747h412l194 -274h-43z" />
    <glyph glyph-name="Eacute" unicode="&#xc9;" horiz-adv-x="1686" 
d="M68 1397h1486v-541h-30q-42 142 -74 212t-90 140q-58 69 -131 101q-123 51 -299 51h-275v-664h74q165 0 262 142q50 73 74 174q12 43 22 127h35v-916h-35q-28 170 -57 229q-29 58 -61 99q-90 111 -256 111h-58v-625h230q203 -1 330 59q65 30 122 80q98 83 152 207
q31 71 65 192h37v-575h-1521l-2 37h38q254 0 254 256v813q0 130 -62 192t-192 62h-38v37zM680 1470l195 277h411l-563 -277h-43z" />
    <glyph glyph-name="Ecircumflex" unicode="&#xca;" horiz-adv-x="1686" 
d="M68 1397h1486v-541h-30q-42 142 -74 212t-90 140q-58 69 -131 101q-123 51 -299 51h-275v-664h74q165 0 262 142q50 73 74 174q12 43 22 127h35v-916h-35q-28 170 -57 229q-29 58 -61 99q-90 111 -256 111h-58v-625h230q203 -1 330 59q65 30 122 80q98 83 152 207
q31 71 65 192h37v-575h-1521l-2 37h38q254 0 254 256v813q0 130 -62 192t-192 62h-38v37zM717 1753h313l242 -278l-57 2l-344 159l-338 -155h-56z" />
    <glyph glyph-name="Edieresis" unicode="&#xcb;" horiz-adv-x="1686" 
d="M68 1397h1486v-541h-30q-42 142 -74 212t-90 140q-58 69 -131 101q-123 51 -299 51h-275v-664h74q165 0 262 142q50 73 74 174q12 43 22 127h35v-916h-35q-28 170 -57 229q-29 58 -61 99q-90 111 -256 111h-58v-625h230q203 -1 330 59q65 30 122 80q98 83 152 207
q31 71 65 192h37v-575h-1521l-2 37h38q254 0 254 256v813q0 130 -62 192t-192 62h-38v37zM1182 1731q44 -1 74 -17q65 -36 65 -110q1 -75 -63 -112q-30 -17 -74 -17q-44 1 -82 39t-37 89t37 89t80 39zM661 1696q38 -37 38 -83q0 -45 -17 -74q-38 -64 -101 -64q-64 0 -102 38
q-38 39 -38 91q-1 52 37 90t91 39q54 0 92 -37z" />
    <glyph glyph-name="Igrave" unicode="&#xcc;" horiz-adv-x="1087" 
d="M705 293q0 -254 253 -254h39v-39h-880v39h39q130 1 192 63t62 191v844q-15 123 -74 170q-60 53 -180 53h-39v37h880v-37h-39q-129 0 -191 -62t-62 -192v-813zM172 1747h412l194 -274h-43z" />
    <glyph glyph-name="Iacute" unicode="&#xcd;" horiz-adv-x="1087" 
d="M705 293q0 -254 253 -254h39v-39h-880v39h39q130 1 192 63t62 191v844q-15 123 -74 170q-60 53 -180 53h-39v37h880v-37h-39q-129 0 -191 -62t-62 -192v-813zM381 1470l195 277h411l-563 -277h-43z" />
    <glyph glyph-name="Icircumflex" unicode="&#xce;" horiz-adv-x="1087" 
d="M705 293q0 -254 253 -254h39v-39h-880v39h39q130 1 192 63t62 191v844q-15 123 -74 170q-60 53 -180 53h-39v37h880v-37h-39q-129 0 -191 -62t-62 -192v-813zM418 1753h313l242 -278l-57 2l-344 159l-338 -155h-56z" />
    <glyph glyph-name="Idieresis" unicode="&#xcf;" horiz-adv-x="1087" 
d="M705 293q0 -254 253 -254h39v-39h-880v39h39q130 1 192 63t62 191v844q-15 123 -74 170q-60 53 -180 53h-39v37h880v-37h-39q-129 0 -191 -62t-62 -192v-813zM883 1731q44 -1 74 -17q65 -36 65 -110q0 -75 -64 -112q-30 -17 -73 -17q-43 1 -81 39t-38 89t36 89t81 39z
M362 1696q38 -37 38 -83q0 -45 -17 -74q-38 -64 -101 -64q-64 0 -102 38q-38 39 -38 91t38 90t90 39q54 0 92 -37z" />
    <glyph glyph-name="Eth" unicode="&#xd0;" horiz-adv-x="2028" 
d="M68 1401h923q161 0 369.5 -48.5t369 -241.5t160.5 -435q0 -292 -234 -484t-595 -192h-993v37h59q120 0 183 59.5t63 173.5v412h-295v37h295v407q0 122 -67.5 180t-209.5 58h-28v37zM668 1364v-645h506v-37h-506v-647h286q157 0 254.5 32t167.5 107q168 177 168 528
t-176 525q-75 73 -177.5 105t-270.5 32h-252z" />
    <glyph glyph-name="Ntilde" unicode="&#xd1;" horiz-adv-x="2005" 
d="M84 1397h561l971 -1006v602q0 230 -146 318q-64 40 -184 49v37h692v-37h-14q-151 0 -230 -96t-79 -279v-999h-33l-1206 1239v-830q0 -231 117 -303q59 -36 118 -44t137 -11v-37h-729v37q223 12 287 139q34 66 33 164v790q0 146 -127 202q-62 28 -150 28h-18v37z
M1324 1620q104 0 135 111l37 -2q-14 -169 -146 -227q-64 -28 -138 -27q-75 0 -246 60q-170 60 -218 60q-48 1 -82 -23q-32 -24 -63 -81h-35q20 120 92 183t179 63q106 -1 265 -59t220 -58z" />
    <glyph glyph-name="Ograve" unicode="&#xd2;" horiz-adv-x="1962" 
d="M506 696q0 -310 132 -498t351 -188q147 0 257 84t168 242q58 157 59 335q0 178 -32 300q-32 123 -92 213q-136 206 -368 205q-71 1 -151 -31q-149 -58 -237 -236q-87 -178 -87 -426zM962 1425q409 0 654 -245q101 -102 156 -228t55 -256q1 -197 -111 -363t-304 -263
t-392 -97t-354 55q-154 56 -271 156t-183 234t-65 280q0 194 113 362t303 266t399 99zM610 1747h412l194 -274h-43z" />
    <glyph glyph-name="Oacute" unicode="&#xd3;" horiz-adv-x="1962" 
d="M506 696q0 -310 132 -498t351 -188q147 0 257 84t168 242q58 157 59 335q0 178 -32 300q-32 123 -92 213q-136 206 -368 205q-71 1 -151 -31q-149 -58 -237 -236q-87 -178 -87 -426zM962 1425q409 0 654 -245q101 -102 156 -228t55 -256q1 -197 -111 -363t-304 -263
t-392 -97t-354 55q-154 56 -271 156t-183 234t-65 280q0 194 113 362t303 266t399 99zM819 1470l195 277h411l-563 -277h-43z" />
    <glyph glyph-name="Ocircumflex" unicode="&#xd4;" horiz-adv-x="1962" 
d="M506 696q0 -310 132 -498t351 -188q147 0 257 84t168 242q58 157 59 335q0 178 -32 300q-32 123 -92 213q-136 206 -368 205q-71 1 -151 -31q-149 -58 -237 -236q-87 -178 -87 -426zM962 1425q409 0 654 -245q101 -102 156 -228t55 -256q1 -197 -111 -363t-304 -263
t-392 -97t-354 55q-154 56 -271 156t-183 234t-65 280q0 194 113 362t303 266t399 99zM856 1753h313l242 -278l-57 2l-344 159l-338 -155h-56z" />
    <glyph glyph-name="Otilde" unicode="&#xd5;" horiz-adv-x="1962" 
d="M506 696q0 -310 132 -498t351 -188q147 0 257 84t168 242q58 157 59 335q0 178 -32 300q-32 123 -92 213q-136 206 -368 205q-71 1 -151 -31q-149 -58 -237 -236q-87 -178 -87 -426zM962 1425q409 0 654 -245q101 -102 156 -228t55 -256q1 -197 -111 -363t-304 -263
t-392 -97t-354 55q-154 56 -271 156t-183 234t-65 280q0 194 113 362t303 266t399 99zM1303 1620q104 0 135 111l37 -2q-13 -169 -145 -227q-64 -28 -139 -27q-75 0 -246 60t-219 60q-48 1 -80 -23t-64 -81h-35q21 120 93 183t178 63q106 -1 265 -59t220 -58z" />
    <glyph glyph-name="Odieresis" unicode="&#xd6;" horiz-adv-x="1962" 
d="M506 696q0 -310 132 -498t351 -188q147 0 257 84t168 242q58 157 59 335q0 178 -32 300q-32 123 -92 213q-136 206 -368 205q-71 1 -151 -31q-149 -58 -237 -236q-87 -178 -87 -426zM962 1425q409 0 654 -245q101 -102 156 -228t55 -256q1 -197 -111 -363t-304 -263
t-392 -97t-354 55q-154 56 -271 156t-183 234t-65 280q0 194 113 362t303 266t399 99zM1321 1731q44 -1 74 -17q65 -36 65 -110q0 -75 -64 -112q-30 -17 -73 -17q-43 1 -81 39t-38 89t36 89t81 39zM800 1696q38 -37 38 -83q0 -45 -17 -74q-38 -64 -101 -64q-64 0 -102 38
q-38 39 -38 91t38 90t90 39q54 0 92 -37z" />
    <glyph glyph-name="multiply" unicode="&#xd7;" horiz-adv-x="1155" 
d="M165 328l353 353l-352 352l58 58l352 -352l352 352l56 -57l-352 -352l354 -354l-57 -58l-354 354l-353 -353z" />
    <glyph glyph-name="Oslash" unicode="&#xd8;" 
d="M1050 1395q-156 0 -267 -87t-170.5 -247t-59.5 -369t72 -389l809 825q-46 92 -105 148q-123 119 -279 119zM1034 14q182 0 299 123q81 84 115 178q68 180 68 422q0 98 -13 169t-55 190l-809 -826q136 -256 395 -256zM1868 710q0 -278 -209 -487q-247 -243 -633 -243
q-147 0 -264.5 36t-251.5 123l-158 -157l-24 20l155 158q-87 75 -133 131.5t-96 160.5t-49 248q0 198 111.5 365.5t304 263.5t404.5 96t332.5 -51t209.5 -108l157 159l25 -22l-156 -160q77 -62 120 -115.5t79 -128.5q76 -151 76 -289z" />
    <glyph glyph-name="Ugrave" unicode="&#xd9;" 
d="M942 1360q-254 0 -254 -254v-709q0 -245 217 -342q105 -47 241 -47t246 36t175 101q119 122 119 342v500q0 240 -140 326q-40 25 -84 35t-127 12v37h678v-37q-63 -5 -100 -17q-37 -11 -85 -47t-78 -108t-30 -168v-557q0 -222 -121 -340q-67 -64 -143 -92
q-160 -60 -352 -60q-364 0 -545 123q-164 113 -164 324v688q0 254 -254 254h-57v37h969v-37h-111zM653 1747h412l194 -274h-43z" />
    <glyph glyph-name="Uacute" unicode="&#xda;" 
d="M942 1360q-254 0 -254 -254v-709q0 -245 217 -342q105 -47 241 -47t246 36t175 101q119 122 119 342v500q0 240 -140 326q-40 25 -84 35t-127 12v37h678v-37q-63 -5 -100 -17q-37 -11 -85 -47t-78 -108t-30 -168v-557q0 -222 -121 -340q-67 -64 -143 -92
q-160 -60 -352 -60q-364 0 -545 123q-164 113 -164 324v688q0 254 -254 254h-57v37h969v-37h-111zM862 1470l195 277h411l-563 -277h-43z" />
    <glyph glyph-name="Ucircumflex" unicode="&#xdb;" 
d="M942 1360q-254 0 -254 -254v-709q0 -245 217 -342q105 -47 241 -47t246 36t175 101q119 122 119 342v500q0 240 -140 326q-40 25 -84 35t-127 12v37h678v-37q-63 -5 -100 -17q-37 -11 -85 -47t-78 -108t-30 -168v-557q0 -222 -121 -340q-67 -64 -143 -92
q-160 -60 -352 -60q-364 0 -545 123q-164 113 -164 324v688q0 254 -254 254h-57v37h969v-37h-111zM899 1753h313l242 -278l-57 2l-344 159l-338 -155h-56z" />
    <glyph glyph-name="Udieresis" unicode="&#xdc;" 
d="M942 1360q-254 0 -254 -254v-709q0 -245 217 -342q105 -47 241 -47t246 36t175 101q119 122 119 342v500q0 240 -140 326q-40 25 -84 35t-127 12v37h678v-37q-63 -5 -100 -17q-37 -11 -85 -47t-78 -108t-30 -168v-557q0 -222 -121 -340q-67 -64 -143 -92
q-160 -60 -352 -60q-364 0 -545 123q-164 113 -164 324v688q0 254 -254 254h-57v37h969v-37h-111zM1364 1731q44 -1 74 -17q65 -36 65 -110q1 -75 -63 -112q-30 -17 -74 -17q-44 1 -82 39t-37 89t37 89t80 39zM843 1696q38 -37 38 -83q0 -45 -17 -74q-38 -64 -101 -64
q-64 0 -102 38q-38 39 -38 91q-1 52 37 90t91 39q54 0 92 -37z" />
    <glyph glyph-name="Yacute" unicode="&#xdd;" 
d="M1194 293q0 -254 254 -254h94v-39h-995v39h98q129 1 191 63t63 191v301l-418 571q-80 111 -157 153t-199 42h-25v37h895v-35h-104q-63 0 -97 -23t-34 -55t10 -50t59 -89l347 -479l311 409q63 79 63 141t-55 103t-143 41h-92v37h718v-35q-137 -15 -233 -75
q-96 -59 -199 -191l-352 -465v-338zM862 1470l195 277h411l-563 -277h-43z" />
    <glyph glyph-name="Thorn" unicode="&#xde;" horiz-adv-x="1729" 
d="M645 295q0 -258 250 -258h74v-37h-922v37h39q127 0 195.5 57.5t68.5 165.5v832q0 190 -83.5 230t-174.5 40h-43v37h869v-37h-41q-171 0 -211 -64q-21 -37 -21 -182v-33h273q315 0 458 -49q283 -91 283 -336q0 -115 -70 -203t-202 -135t-304 -47h-438v-18zM645 1047v-697
h287q397 0 397 348q0 179 -98 264t-307 85h-279z" />
    <glyph glyph-name="germandbls" unicode="&#xdf;" horiz-adv-x="3198" 
d="M1421 1370v-479h-35q-63 173 -132 255q-68 82 -156 134q-188 110 -416 111q-167 0 -258 -91q-70 -70 -70 -144t52 -126q52 -51 160 -83q225 -67 288 -77l127 -32q198 -51 289 -90q91 -38 148 -94q112 -109 112 -255q0 -73 -31 -145t-88 -127q-148 -152 -430 -152
q-173 0 -369 81q-102 42 -144 54t-96 11q-54 1 -104 -37t-65 -107h-35v646h35q21 -172 139 -312q72 -83 182 -153q233 -148 461 -148q97 0 177 32t126 89q45 57 45 131q1 116 -133 185q-85 44 -309 104l-100 27q-233 63 -329 99t-154 73t-99 94q-62 80 -62 186t69 198
t193 145q124 52 275 52q228 0 473 -127q86 -43 117 -43q78 0 112 115h35zM3020 1370v-479h-35q-63 173 -132 255t-157 134q-188 110 -415 111q-167 0 -258 -91q-70 -70 -70 -144t52 -126q52 -51 160 -83q225 -67 288 -77l127 -32q198 -51 289 -90q91 -38 148 -94
q112 -109 112 -255q0 -73 -31 -145t-88 -127q-148 -152 -430 -152q-174 0 -370 81q-102 42 -143 54q-42 12 -96 11q-53 1 -103 -37t-66 -107h-35v646h35q21 -172 139 -312q71 -83 181 -153q233 -148 462 -148q98 0 178 32t125 89t45 131q0 116 -134 185q-85 44 -308 104
l-100 27q-234 63 -330 99t-152 73q-58 37 -100 94q-62 80 -62 186t69 198t193 145q124 52 275 52q228 0 473 -127q86 -43 117 -43q78 0 112 115h35z" />
    <glyph glyph-name="agrave" unicode="&#xe0;" horiz-adv-x="1792" 
d="M524 1747h412l194 -274h-43zM1040 39q152 0 152 88q0 46 -40 133q-40 86 -46.5 100t-13.5 27l-23 51h-592l-45 -104q-22 -53 -22 -103t25.5 -94.5t59.5 -64.5t55.5 -25.5t61.5 -7.5v-39h-569v39q62 7 159 47t228 334l444 1005h37l562 -1222q55 -116 116.5 -140t118.5 -24
h37v-39h-811v39h106zM768 1098l-274 -623h555z" />
    <glyph glyph-name="aacute" unicode="&#xe1;" horiz-adv-x="1792" 
d="M1040 39q152 0 152 88q0 46 -40 133q-40 86 -47 100q-6 14 -13 27l-23 51h-592l-45 -104q-22 -53 -22 -103t26 -95q26 -44 59 -64t55 -26t62 -7v-39h-569v39q63 7 99 22q158 65 288 359l444 1005h37l562 -1222q55 -115 136 -147q42 -16 99 -17h37v-39h-811v39h106z
M768 1098l-274 -623h555zM733 1470l195 277h411l-563 -277h-43z" />
    <glyph glyph-name="acircumflex" unicode="&#xe2;" horiz-adv-x="1792" 
d="M1040 39q152 0 152 88q0 46 -40 133q-40 86 -47 100q-6 14 -13 27l-23 51h-592l-45 -104q-22 -53 -22 -103t26 -95q26 -44 59 -64t55 -26t62 -7v-39h-569v39q63 7 99 22q158 65 288 359l444 1005h37l562 -1222q55 -115 136 -147q42 -16 99 -17h37v-39h-811v39h106z
M768 1098l-274 -623h555zM770 1753h313l242 -278l-57 2l-344 159l-338 -155h-56z" />
    <glyph glyph-name="atilde" unicode="&#xe3;" horiz-adv-x="1792" 
d="M1040 39q152 0 152 88q0 46 -40 133q-40 86 -47 100q-6 14 -13 27l-23 51h-592l-45 -104q-22 -53 -22 -103t26 -95q26 -44 59 -64t55 -26t62 -7v-39h-569v39q63 7 99 22q158 65 288 359l444 1005h37l562 -1222q55 -115 136 -147q42 -16 99 -17h37v-39h-811v39h106z
M768 1098l-274 -623h555zM1217 1620q104 0 135 111l37 -2q-13 -169 -145 -227q-64 -28 -139 -27q-75 0 -246 60t-219 60q-48 1 -80 -23t-64 -81h-35q21 120 93 183t178 63q106 -1 265 -59t220 -58z" />
    <glyph glyph-name="adieresis" unicode="&#xe4;" horiz-adv-x="1792" 
d="M1040 39q152 0 152 88q0 46 -40 133q-40 86 -47 100q-6 14 -13 27l-23 51h-592l-45 -104q-22 -53 -22 -103t26 -95q26 -44 59 -64t55 -26t62 -7v-39h-569v39q63 7 99 22q158 65 288 359l444 1005h37l562 -1222q55 -115 136 -147q42 -16 99 -17h37v-39h-811v39h106z
M768 1098l-274 -623h555zM1235 1731q44 -1 74 -17q65 -36 65 -110q0 -75 -64 -112q-30 -17 -73 -17q-43 1 -81 39t-38 89t36 89t81 39zM714 1696q38 -37 38 -83q0 -45 -17 -74q-38 -64 -101 -64q-64 0 -102 38q-38 39 -38 91t38 90t90 39q54 0 92 -37z" />
    <glyph glyph-name="aring" unicode="&#xe5;" horiz-adv-x="1792" 
d="M1040 39q152 0 152 88q0 46 -40 133q-40 86 -47 100q-6 14 -13 27l-23 51h-592l-45 -104q-22 -53 -22 -103t26 -95q26 -44 59 -64t55 -26t62 -7v-39h-569v39q63 7 99 22q158 65 288 359l444 1005h37l562 -1222q55 -115 136 -147q42 -16 99 -17h37v-39h-811v39h106z
M768 1098l-274 -623h555zM903 1821q-51 -1 -87 -37t-37 -88q0 -52 36 -88q35 -37 87 -37q52 1 88 37t37 87q-1 51 -37 89t-87 37zM899 1917q59 0 111 -29t82 -80t29 -127q0 -76 -65 -140t-139 -64q-74 -1 -125 29t-81 80t-30 110q-1 58 29 108t80 82q50 31 109 31z" />
    <glyph glyph-name="ae" unicode="&#xe6;" horiz-adv-x="2347" 
d="M668 1397h1536v-535h-27q-38 137 -69 205.5t-91 141.5q-124 151 -403 151h-219v-664h30q165 0 263 148q65 98 92 299h30v-914h-30q-17 122 -74 279.5t-293 157.5h-18v-627h182q312 0 469 199q74 93 106 173t56 169h37v-580h-1434v39h37q129 0 191.5 62.5t62.5 191.5v143
h-617l-18 -33q-76 -131 -76 -200q0 -152 211 -164v-39h-563v39q149 12 212.5 89t96.5 136l526 930q44 80 44 113q0 53 -95 53h-155v37zM1102 469v891h-98l-498 -891h596z" />
    <glyph glyph-name="ccedilla" unicode="&#xe7;" horiz-adv-x="1749" 
d="M1131 -118q0 -65 -64 -101q-39 -23 -109 -37t-296 -14h-64v34h35q203 0 203 84q0 32 -32 50t-87 18h-41v23q90 15 155 40q-147 19 -278 91q-185 100 -294 268t-109 364q0 240 168 444q231 278 573 279q149 -1 259 -53q58 -28 122 -73q64 -46 96 -46q71 0 178 148h35
l29 -672h-33q-31 132 -74 215q-141 287 -368 396q-111 53 -239 53q-128 -1 -217 -75q-173 -146 -173 -632q0 -284 62 -430q90 -212 334 -243q1 1 24 -2q108 -12 228 21q172 48 296 189q50 59 81 117t62 154h35q-24 -89 -53 -148t-80 -123q-170 -209 -435 -243q71 -31 71 -96
z" />
    <glyph glyph-name="egrave" unicode="&#xe8;" horiz-adv-x="1686" 
d="M68 1397h1486v-541h-30q-42 142 -74 212t-90 140q-58 69 -131 101q-123 51 -299 51h-275v-664h74q165 0 262 142q50 73 74 174q12 43 22 127h35v-916h-35q-28 170 -57 229q-29 58 -61 99q-90 111 -256 111h-58v-625h230q203 -1 330 59q65 30 122 80q98 83 152 207
q31 71 65 192h37v-575h-1521l-2 37h38q254 0 254 256v813q0 130 -62 192t-192 62h-38v37zM471 1747h412l194 -274h-43z" />
    <glyph glyph-name="eacute" unicode="&#xe9;" horiz-adv-x="1686" 
d="M68 1397h1486v-541h-30q-42 142 -74 212t-90 140q-58 69 -131 101q-123 51 -299 51h-275v-664h74q165 0 262 142q50 73 74 174q12 43 22 127h35v-916h-35q-28 170 -57 229q-29 58 -61 99q-90 111 -256 111h-58v-625h230q203 -1 330 59q65 30 122 80q98 83 152 207
q31 71 65 192h37v-575h-1521l-2 37h38q254 0 254 256v813q0 130 -62 192t-192 62h-38v37zM680 1470l195 277h411l-563 -277h-43z" />
    <glyph glyph-name="ecircumflex" unicode="&#xea;" horiz-adv-x="1686" 
d="M68 1397h1486v-541h-30q-42 142 -74 212t-90 140q-58 69 -131 101q-123 51 -299 51h-275v-664h74q165 0 262 142q50 73 74 174q12 43 22 127h35v-916h-35q-28 170 -57 229q-29 58 -61 99q-90 111 -256 111h-58v-625h230q203 -1 330 59q65 30 122 80q98 83 152 207
q31 71 65 192h37v-575h-1521l-2 37h38q254 0 254 256v813q0 130 -62 192t-192 62h-38v37zM717 1753h313l242 -278l-57 2l-344 159l-338 -155h-56z" />
    <glyph glyph-name="edieresis" unicode="&#xeb;" horiz-adv-x="1686" 
d="M68 1397h1486v-541h-30q-42 142 -74 212t-90 140q-58 69 -131 101q-123 51 -299 51h-275v-664h74q165 0 262 142q50 73 74 174q12 43 22 127h35v-916h-35q-28 170 -57 229q-29 58 -61 99q-90 111 -256 111h-58v-625h230q203 -1 330 59q65 30 122 80q98 83 152 207
q31 71 65 192h37v-575h-1521l-2 37h38q254 0 254 256v813q0 130 -62 192t-192 62h-38v37zM1182 1731q44 -1 74 -17q65 -36 65 -110q1 -75 -63 -112q-30 -17 -74 -17q-44 1 -82 39t-37 89t37 89t80 39zM661 1696q38 -37 38 -83q0 -45 -17 -74q-38 -64 -101 -64q-64 0 -102 38
q-38 39 -38 91q-1 52 37 90t91 39q54 0 92 -37z" />
    <glyph glyph-name="igrave" unicode="&#xec;" horiz-adv-x="1087" 
d="M705 293q0 -254 253 -254h39v-39h-880v39h39q130 1 192 63t62 191v844q-15 123 -74 170q-60 53 -180 53h-39v37h880v-37h-39q-129 0 -191 -62t-62 -192v-813zM152 1747h412l194 -274h-43z" />
    <glyph glyph-name="iacute" unicode="&#xed;" horiz-adv-x="1087" 
d="M705 293q0 -254 253 -254h39v-39h-880v39h39q130 1 192 63t62 191v844q-15 123 -74 170q-60 53 -180 53h-39v37h880v-37h-39q-129 0 -191 -62t-62 -192v-813zM381 1470l195 277h411l-563 -277h-43z" />
    <glyph glyph-name="icircumflex" unicode="&#xee;" horiz-adv-x="1087" 
d="M705 293q0 -254 253 -254h39v-39h-880v39h39q130 1 192 63t62 191v844q-15 123 -74 170q-60 53 -180 53h-39v37h880v-37h-39q-129 0 -191 -62t-62 -192v-813zM418 1753h313l242 -278l-57 2l-344 159l-338 -155h-56z" />
    <glyph glyph-name="idieresis" unicode="&#xef;" horiz-adv-x="1087" 
d="M705 293q0 -254 253 -254h39v-39h-880v39h39q130 1 192 63t62 191v844q-15 123 -74 170q-60 53 -180 53h-39v37h880v-37h-39q-129 0 -191 -62t-62 -192v-813zM883 1731q44 -1 74 -17q65 -36 65 -110q0 -75 -64 -112q-30 -17 -73 -17q-43 1 -81 39t-38 89t36 89t81 39z
M362 1696q38 -37 38 -83q0 -45 -17 -74q-38 -64 -101 -64q-64 0 -102 38q-38 39 -38 91t38 90t90 39q54 0 92 -37z" />
    <glyph glyph-name="eth" unicode="&#xf0;" horiz-adv-x="2028" 
d="M68 1401h923q161 0 369.5 -48.5t369 -241.5t160.5 -435q0 -292 -234 -484t-595 -192h-993v37h59q120 0 183 59.5t63 173.5v412h-295v37h295v407q0 122 -67.5 180t-209.5 58h-28v37zM668 1364v-645h506v-37h-506v-647h286q157 0 254.5 32t167.5 107q168 177 168 528
t-176 525q-75 73 -177.5 105t-270.5 32h-252z" />
    <glyph glyph-name="ntilde" unicode="&#xf1;" horiz-adv-x="2005" 
d="M84 1397h561l971 -1006v602q0 230 -146 318q-64 40 -184 49v37h692v-37h-14q-151 0 -230 -96t-79 -279v-999h-33l-1206 1239v-830q0 -231 117 -303q59 -36 118 -44t137 -11v-37h-729v37q223 12 287 139q34 66 33 164v790q0 146 -127 202q-62 28 -150 28h-18v37z
M1324 1620q104 0 135 111l37 -2q-14 -169 -146 -227q-64 -28 -138 -27q-75 0 -246 60q-170 60 -218 60q-48 1 -82 -23q-32 -24 -63 -81h-35q20 120 92 183t179 63q106 -1 265 -59t220 -58z" />
    <glyph glyph-name="ograve" unicode="&#xf2;" horiz-adv-x="1962" 
d="M506 696q0 -310 132 -498t351 -188q147 0 257 84t168 242q58 157 59 335q0 178 -32 300q-32 123 -92 213q-136 206 -368 205q-71 1 -151 -31q-149 -58 -237 -236q-87 -178 -87 -426zM962 1425q409 0 654 -245q101 -102 156 -228t55 -256q1 -197 -111 -363t-304 -263
t-392 -97t-354 55q-154 56 -271 156t-183 234t-65 280q0 194 113 362t303 266t399 99zM610 1747h412l194 -274h-43z" />
    <glyph glyph-name="oacute" unicode="&#xf3;" horiz-adv-x="1962" 
d="M506 696q0 -310 132 -498t351 -188q147 0 257 84t168 242q58 157 59 335q0 178 -32 300q-32 123 -92 213q-136 206 -368 205q-71 1 -151 -31q-149 -58 -237 -236q-87 -178 -87 -426zM962 1425q409 0 654 -245q101 -102 156 -228t55 -256q1 -197 -111 -363t-304 -263
t-392 -97t-354 55q-154 56 -271 156t-183 234t-65 280q0 194 113 362t303 266t399 99zM819 1470l195 277h411l-563 -277h-43z" />
    <glyph glyph-name="ocircumflex" unicode="&#xf4;" horiz-adv-x="1962" 
d="M506 696q0 -310 132 -498t351 -188q147 0 257 84t168 242q58 157 59 335q0 178 -32 300q-32 123 -92 213q-136 206 -368 205q-71 1 -151 -31q-149 -58 -237 -236q-87 -178 -87 -426zM962 1425q409 0 654 -245q101 -102 156 -228t55 -256q1 -197 -111 -363t-304 -263
t-392 -97t-354 55q-154 56 -271 156t-183 234t-65 280q0 194 113 362t303 266t399 99zM856 1753h313l242 -278l-57 2l-344 159l-338 -155h-56z" />
    <glyph glyph-name="otilde" unicode="&#xf5;" horiz-adv-x="1962" 
d="M506 696q0 -310 132 -498t351 -188q147 0 257 84t168 242q58 157 59 335q0 178 -32 300q-32 123 -92 213q-136 206 -368 205q-71 1 -151 -31q-149 -58 -237 -236q-87 -178 -87 -426zM962 1425q409 0 654 -245q101 -102 156 -228t55 -256q1 -197 -111 -363t-304 -263
t-392 -97t-354 55q-154 56 -271 156t-183 234t-65 280q0 194 113 362t303 266t399 99zM1303 1620q104 0 135 111l37 -2q-13 -169 -145 -227q-64 -28 -139 -27q-75 0 -246 60t-219 60q-48 1 -80 -23t-64 -81h-35q21 120 93 183t178 63q106 -1 265 -59t220 -58z" />
    <glyph glyph-name="odieresis" unicode="&#xf6;" horiz-adv-x="1962" 
d="M506 696q0 -310 132 -498t351 -188q147 0 257 84t168 242q58 157 59 335q0 178 -32 300q-32 123 -92 213q-136 206 -368 205q-71 1 -151 -31q-149 -58 -237 -236q-87 -178 -87 -426zM962 1425q409 0 654 -245q101 -102 156 -228t55 -256q1 -197 -111 -363t-304 -263
t-392 -97t-354 55q-154 56 -271 156t-183 234t-65 280q0 194 113 362t303 266t399 99zM1321 1731q44 -1 74 -17q65 -36 65 -110q0 -75 -64 -112q-30 -17 -73 -17q-43 1 -81 39t-38 89t36 89t81 39zM800 1696q38 -37 38 -83q0 -45 -17 -74q-38 -64 -101 -64q-64 0 -102 38
q-38 39 -38 91t38 90t90 39q54 0 92 -37z" />
    <glyph glyph-name="divide" unicode="&#xf7;" horiz-adv-x="1124" 
d="M434 261q0 47 33.5 80.5t72.5 33.5t81.5 -24t42.5 -81t-34 -91t-82 -34t-81 34.5t-33 81.5zM434 820q0 47 33.5 80.5t72.5 33.5t81.5 -24t42.5 -81t-35 -90.5t-81 -33.5t-80 34t-34 81zM20 483v113h1078v-113h-1078z" />
    <glyph glyph-name="oslash" unicode="&#xf8;" 
d="M1050 1395q-156 0 -267 -87t-170.5 -247t-59.5 -369t72 -389l809 825q-46 92 -105 148q-123 119 -279 119zM1034 14q182 0 299 123q81 84 115 178q68 180 68 422q0 98 -13 169t-55 190l-809 -826q136 -256 395 -256zM1868 710q0 -278 -209 -487q-247 -243 -633 -243
q-147 0 -264.5 36t-251.5 123l-158 -157l-24 20l155 158q-87 75 -133 131.5t-96 160.5t-49 248q0 198 111.5 365.5t304 263.5t404.5 96t332.5 -51t209.5 -108l157 159l25 -22l-156 -160q77 -62 120 -115.5t79 -128.5q76 -151 76 -289z" />
    <glyph glyph-name="ugrave" unicode="&#xf9;" 
d="M942 1360q-254 0 -254 -254v-709q0 -245 217 -342q105 -47 241 -47t246 36t175 101q119 122 119 342v500q0 240 -140 326q-40 25 -84 35t-127 12v37h678v-37q-63 -5 -100 -17q-37 -11 -85 -47t-78 -108t-30 -168v-557q0 -222 -121 -340q-67 -64 -143 -92
q-160 -60 -352 -60q-364 0 -545 123q-164 113 -164 324v688q0 254 -254 254h-57v37h969v-37h-111zM653 1747h412l194 -274h-43z" />
    <glyph glyph-name="uacute" unicode="&#xfa;" 
d="M942 1360q-254 0 -254 -254v-709q0 -245 217 -342q105 -47 241 -47t246 36t175 101q119 122 119 342v500q0 240 -140 326q-40 25 -84 35t-127 12v37h678v-37q-63 -5 -100 -17q-37 -11 -85 -47t-78 -108t-30 -168v-557q0 -222 -121 -340q-67 -64 -143 -92
q-160 -60 -352 -60q-364 0 -545 123q-164 113 -164 324v688q0 254 -254 254h-57v37h969v-37h-111zM862 1470l195 277h411l-563 -277h-43z" />
    <glyph glyph-name="ucircumflex" unicode="&#xfb;" 
d="M942 1360q-254 0 -254 -254v-709q0 -245 217 -342q105 -47 241 -47t246 36t175 101q119 122 119 342v500q0 240 -140 326q-40 25 -84 35t-127 12v37h678v-37q-63 -5 -100 -17q-37 -11 -85 -47t-78 -108t-30 -168v-557q0 -222 -121 -340q-67 -64 -143 -92
q-160 -60 -352 -60q-364 0 -545 123q-164 113 -164 324v688q0 254 -254 254h-57v37h969v-37h-111zM899 1753h313l242 -278l-57 2l-344 159l-338 -155h-56z" />
    <glyph glyph-name="udieresis" unicode="&#xfc;" 
d="M942 1360q-254 0 -254 -254v-709q0 -245 217 -342q105 -47 241 -47t246 36t175 101q119 122 119 342v500q0 240 -140 326q-40 25 -84 35t-127 12v37h678v-37q-63 -5 -100 -17q-37 -11 -85 -47t-78 -108t-30 -168v-557q0 -222 -121 -340q-67 -64 -143 -92
q-160 -60 -352 -60q-364 0 -545 123q-164 113 -164 324v688q0 254 -254 254h-57v37h969v-37h-111zM1364 1731q44 -1 74 -17q65 -36 65 -110q1 -75 -63 -112q-30 -17 -74 -17q-44 1 -82 39t-37 89t37 89t80 39zM843 1696q38 -37 38 -83q0 -45 -17 -74q-38 -64 -101 -64
q-64 0 -102 38q-38 39 -38 91q-1 52 37 90t91 39q54 0 92 -37z" />
    <glyph glyph-name="yacute" unicode="&#xfd;" 
d="M1194 293q0 -254 254 -254h94v-39h-995v39h98q129 1 191 63t63 191v301l-418 571q-80 111 -157 153t-199 42h-25v37h895v-35h-104q-63 0 -97 -23t-34 -55t10 -50t59 -89l347 -479l311 409q63 79 63 141t-55 103t-143 41h-92v37h718v-35q-137 -15 -233 -75
q-96 -59 -199 -191l-352 -465v-338zM862 1470l195 277h411l-563 -277h-43z" />
    <glyph glyph-name="thorn" unicode="&#xfe;" horiz-adv-x="1729" 
d="M645 295q0 -258 250 -258h74v-37h-922v37h39q127 0 195.5 57.5t68.5 165.5v832q0 190 -83.5 230t-174.5 40h-43v37h869v-37h-41q-171 0 -211 -64q-21 -37 -21 -182v-33h273q315 0 458 -49q283 -91 283 -336q0 -115 -70 -203t-202 -135t-304 -47h-438v-18zM645 1047v-697
h287q397 0 397 348q0 179 -98 264t-307 85h-279z" />
    <glyph glyph-name="ydieresis" unicode="&#xff;" 
d="M1194 293q0 -254 254 -254h94v-39h-995v39h98q129 1 191 63t63 191v301l-418 571q-80 111 -157 153t-199 42h-25v37h895v-35h-104q-63 0 -97 -23t-34 -55t10 -50t59 -89l347 -479l311 409q63 79 63 141t-55 103t-143 41h-92v37h718v-35q-137 -15 -233 -75
q-96 -59 -199 -191l-352 -465v-338zM1364 1731q44 -1 74 -17q65 -36 65 -110q1 -75 -63 -112q-30 -17 -74 -17q-44 1 -82 39t-37 89t37 89t80 39zM843 1696q38 -37 38 -83q0 -45 -17 -74q-38 -64 -101 -64q-64 0 -102 38q-38 39 -38 91q-1 52 37 90t91 39q54 0 92 -37z" />
    <glyph glyph-name="dotlessi" unicode="&#x131;" horiz-adv-x="1087" 
d="M705 293q0 -254 253 -254h39v-39h-880v39h39q130 1 192 63t62 191v844q-15 123 -74 170q-60 53 -180 53h-39v37h880v-37h-39q-129 0 -191 -62t-62 -192v-813z" />
    <glyph glyph-name="OE" unicode="&#x152;" horiz-adv-x="2347" 
d="M1802 229q-60 435 -360 435h-25v-629h123q364 0 518 188q60 72 95 142.5t79 212.5h35v-578h-1110l-319 -23q-271 0 -469 142q-273 194 -273 575q0 416 320 611q189 114 420 114l294 -22h1096v-537h-28q-47 181 -99 264q-84 145 -233 203q-92 37 -277 37h-172v-668h43
q146 0 240 131q46 68 74 162q14 59 28 152h33v-912h-33zM1124 1087q0 295 -302 295q-108 0 -240.5 -104.5t-132.5 -491.5v-172q0 -123 24 -244t64 -186q100 -172 293 -172t243.5 100t50.5 193v782z" />
    <glyph glyph-name="oe" unicode="&#x153;" horiz-adv-x="2347" 
d="M1802 229q-60 435 -360 435h-25v-629h123q364 0 518 188q60 72 95 142.5t79 212.5h35v-578h-1110l-319 -23q-271 0 -469 142q-273 194 -273 575q0 416 320 611q189 114 420 114l294 -22h1096v-537h-28q-47 181 -99 264q-84 145 -233 203q-92 37 -277 37h-172v-668h43
q146 0 240 131q46 68 74 162q14 59 28 152h33v-912h-33zM1124 1087q0 295 -302 295q-108 0 -240.5 -104.5t-132.5 -491.5v-172q0 -123 24 -244t64 -186q100 -172 293 -172t243.5 100t50.5 193v782z" />
    <glyph glyph-name="Scaron" unicode="&#x160;" horiz-adv-x="1599" 
d="M1421 1370v-479h-35q-63 173 -132 255q-68 82 -156 134q-188 110 -416 111q-167 0 -258 -91q-70 -70 -70 -144t52 -126q52 -51 160 -83q225 -67 288 -77l127 -32q198 -51 289 -90q91 -38 148 -94q112 -109 112 -255q0 -73 -31 -145t-88 -127q-148 -152 -430 -152
q-173 0 -369 81q-102 42 -144 54t-96 11q-54 1 -104 -37t-65 -107h-35v646h35q21 -172 139 -312q72 -83 182 -153q233 -148 461 -148q97 0 177 32t126 89q45 57 45 131q1 116 -133 185q-85 44 -309 104l-100 27q-233 63 -329 99t-154 73t-99 94q-62 80 -62 186t69 198
t193 145q124 52 275 52q228 0 473 -127q86 -43 117 -43q78 0 112 115h35zM443 1751h55l344 -164l338 160h59l-237 -274h-316z" />
    <glyph glyph-name="scaron" unicode="&#x161;" horiz-adv-x="1599" 
d="M1421 1370v-479h-35q-63 173 -132 255q-68 82 -156 134q-188 110 -416 111q-167 0 -258 -91q-70 -70 -70 -144t52 -126q52 -51 160 -83q225 -67 288 -77l127 -32q198 -51 289 -90q91 -38 148 -94q112 -109 112 -255q0 -73 -31 -145t-88 -127q-148 -152 -430 -152
q-173 0 -369 81q-102 42 -144 54t-96 11q-54 1 -104 -37t-65 -107h-35v646h35q21 -172 139 -312q72 -83 182 -153q233 -148 461 -148q97 0 177 32t126 89q45 57 45 131q1 116 -133 185q-85 44 -309 104l-100 27q-233 63 -329 99t-154 73t-99 94q-62 80 -62 186t69 198
t193 145q124 52 275 52q228 0 473 -127q86 -43 117 -43q78 0 112 115h35zM443 1751h55l344 -164l338 160h59l-237 -274h-316z" />
    <glyph glyph-name="Ydieresis" unicode="&#x178;" 
d="M1194 293q0 -254 254 -254h94v-39h-995v39h98q129 1 191 63t63 191v301l-418 571q-80 111 -157 153t-199 42h-25v37h895v-35h-104q-63 0 -97 -23t-34 -55t10 -50t59 -89l347 -479l311 409q63 79 63 141t-55 103t-143 41h-92v37h718v-35q-137 -15 -233 -75
q-96 -59 -199 -191l-352 -465v-338zM1364 1731q44 -1 74 -17q65 -36 65 -110q1 -75 -63 -112q-30 -17 -74 -17q-44 1 -82 39t-37 89t37 89t80 39zM843 1696q38 -37 38 -83q0 -45 -17 -74q-38 -64 -101 -64q-64 0 -102 38q-38 39 -38 91q-1 52 37 90t91 39q54 0 92 -37z" />
    <glyph glyph-name="florin" unicode="&#x192;" horiz-adv-x="1024" 
d="M154 -442q-64 0 -109 34t-45 79t29.5 73.5t71.5 28.5t68 -21.5t26 -47.5t-5 -34l-8 -28q0 -9 10 -16t19 -7q35 0 55.5 34.5t20.5 74.5t-2 77l-6 129q0 72 7.5 128t32.5 186l109 536h-141l24 121q71 0 113.5 18.5t73 66.5t72.5 161q87 238 292 238q74 0 118 -35.5
t44 -89.5t-30 -86.5t-71 -32.5t-67.5 24.5t-26.5 50.5q-1 26 15 62q16 35 16 37q0 22 -34 22t-60.5 -39t-26.5 -100l9 -174q0 -45 -13 -123h154l-25 -121h-153l-101 -499q-74 -364 -141 -499.5t-191 -197.5q-60 -30 -124 -30z" />
    <glyph glyph-name="circumflex" unicode="&#x2c6;" horiz-adv-x="682" 
d="M215 1753h313l242 -278l-57 2l-344 159l-338 -155h-56z" />
    <glyph glyph-name="caron" unicode="&#x2c7;" horiz-adv-x="682" 
d="M-16 1751h55l344 -164l338 160h59l-237 -274h-316z" />
    <glyph glyph-name="macron" unicode="&#x2c9;" horiz-adv-x="682" 
d="M23 1602h636v-129h-636v129z" />
    <glyph glyph-name="breve" unicode="&#x2d8;" horiz-adv-x="682" 
d="M404 1608q100 0 169.5 28.5t126.5 98.5h27q-26 -89 -70 -140q-98 -125 -282 -125q-132 0 -223.5 70.5t-124.5 200.5h26q77 -95 164 -114t187 -19z" />
    <glyph glyph-name="dotaccent" unicode="&#x2d9;" horiz-adv-x="682" 
d="M466 1695.5q38 -37.5 38 -90.5q0 -54 -38 -92t-90 -38t-90 38t-38 91t37 91t90 38t91 -37.5z" />
    <glyph glyph-name="ring" unicode="&#x2da;" horiz-adv-x="682" 
d="M378 1821q-51 0 -87.5 -36.5t-36.5 -88.5t36 -88.5t88 -36.5t88 36.5t36 87.5t-36.5 88.5t-87.5 37.5zM374 1917q59 0 111 -29t81.5 -80t29.5 -127t-65 -140t-139 -64t-125 29.5t-81 80.5t-30 109t29.5 108.5t79.5 81.5t109 31z" />
    <glyph glyph-name="ogonek" unicode="&#x2db;" horiz-adv-x="682" 
d="M147 -160q0 101 80 176h54q-27 -50 -27 -100q0 -90 66 -142t132 -53q66 0 134 23l22 -31q-87 -48 -129.5 -61.5t-124.5 -13.5t-144.5 50.5t-62.5 151.5z" />
    <glyph glyph-name="tilde" unicode="&#x2dc;" horiz-adv-x="682" 
d="M662 1620q104 0 135 111l37 -2q-13 -169 -111 -211.5t-173 -42.5t-246 60q-170 60 -218 60t-81 -23.5t-64 -80.5h-35q20 120 92.5 183t178.5 63q106 -1 265 -59t220 -58z" />
    <glyph glyph-name="hungarumlaut" unicode="&#x2dd;" horiz-adv-x="682" 
d="M305 1470l195 277h409l-561 -277h-43zM-227 1470l194 277h412l-563 -277h-43z" />
    <glyph glyph-name="pi" unicode="&#x3c0;" horiz-adv-x="1124" 
d="M233 821q-41 0 -78 -19.5t-57 -45.5l-43 -64h-35q50 140 89 195q77 110 196 110h764v-176h-258q-25 -239 -25 -481q0 -99 55 -152q25 -24 66 -32t73 18t42.5 49t13.5 44l6 42h43q-2 -158 -73.5 -245.5t-138.5 -94t-107 20.5q-152 111 -115 502l35 329h-231
q-38 -448 -95 -719q-26 -116 -108 -138q-44 -12 -83.5 14t-46.5 58q-11 49 4 78.5t61.5 84.5t62.5 85.5t20 67.5l60 469h-97z" />
    <glyph glyph-name="endash" unicode="&#x2013;" horiz-adv-x="1024" 
d="M-23 545h1070v-62h-1070v62z" />
    <glyph glyph-name="emdash" unicode="&#x2014;" horiz-adv-x="2093" 
d="M-23 545h2137v-62h-2137v62z" />
    <glyph glyph-name="quoteleft" unicode="&#x2018;" horiz-adv-x="831" 
d="M412 1217q0 -18 11 -31t73 -41q77 -47 77 -121q0 -75 -42.5 -119.5t-110.5 -44.5t-112 53.5t-44 136.5q0 162 117 269q36 34 72.5 56t107.5 48l21 -32q-170 -86 -170 -174z" />
    <glyph glyph-name="quoteright" unicode="&#x2019;" horiz-adv-x="831" 
d="M424 1061q0 39 -64 65q-54 29 -77 61.5t-23 88.5t44 99.5t98 43.5t111.5 -39t57.5 -155q0 -153 -120 -264q-36 -35 -71 -55.5t-108 -47.5l-20 31q172 87 172 172z" />
    <glyph glyph-name="quotesinglbase" unicode="&#x201a;" horiz-adv-x="831" 
d="M426 -70q0 36 -60 66t-82 61.5t-22 86.5t45 101t112 46t110.5 -56.5t43.5 -146.5q0 -148 -112 -254q-38 -35 -75.5 -57t-109.5 -49l-18 32q168 91 168 170z" />
    <glyph glyph-name="quotedblleft" unicode="&#x201c;" horiz-adv-x="1217" 
d="M414 1223q0 -36 56 -64t80.5 -60.5t24.5 -90.5t-42.5 -102t-110.5 -44t-112 56t-44 140t54 194t241 171l23 -32q-78 -37 -124 -84.5t-46 -83.5zM797 1223q1 -36 57 -64t80 -60.5t24 -90.5t-42 -102t-110 -44t-112.5 56t-44.5 140t54 194t241 171l23 -32
q-78 -37 -124 -84.5t-46 -83.5z" />
    <glyph glyph-name="quotedblright" unicode="&#x201d;" horiz-adv-x="1217" 
d="M414 1061q0 19 -14 33t-60 38q-92 48 -92 124q0 75 45 120t112 45t110.5 -56.5t43.5 -136.5q0 -157 -113 -263q-65 -60 -182 -107l-20 33q170 91 170 170zM809 1061q-1 33 -61 65t-82.5 62t-22.5 86t45.5 101.5t111.5 45.5t110 -56t44 -146q0 -148 -112 -254
q-38 -35 -74.5 -56.5t-108.5 -50.5l-20 33q170 90 170 170z" />
    <glyph glyph-name="quotedblbase" unicode="&#x201e;" horiz-adv-x="1217" 
d="M426 -70q0 38 -64 66q-56 31 -79 61.5t-23 86.5t45 101.5t112 45.5t110.5 -56.5t43.5 -146.5q0 -147 -112 -254q-65 -60 -183 -106l-20 32q170 92 170 170zM811 -70q0 38 -63 66q-56 29 -79.5 60.5t-23.5 87.5t45.5 100.5t112.5 44.5t111 -55t44 -146q0 -148 -112 -254
q-62 -59 -184 -106l-21 30q170 93 170 172z" />
    <glyph glyph-name="dagger" unicode="&#x2020;" horiz-adv-x="934" 
d="M385 -346v1212h-328v160h328v406h147v-406h330v-160h-330v-1212h-147z" />
    <glyph glyph-name="daggerdbl" unicode="&#x2021;" horiz-adv-x="934" 
d="M387 -346v370h-330v161h330v725h-330v161h330v375h147v-375h331v-161h-331v-725h331v-161h-331v-370h-147z" />
    <glyph glyph-name="bullet" unicode="&#x2022;" horiz-adv-x="831" 
d="M428 893q58 0 106 -47.5t48 -117.5t-49 -117.5t-116 -47.5t-116 49t-49 104t22 93.5t59 61t95 22.5z" />
    <glyph glyph-name="ellipsis" unicode="&#x2026;" horiz-adv-x="2499" 
d="M2082 303q68 0 115.5 -47.5t47.5 -115.5t-49 -116.5t-115 -48.5t-115 48.5t-49 114.5t48.5 115.5t116.5 49.5zM1249 303q67 0 115.5 -47.5t48.5 -115.5t-49 -116.5t-115 -48.5t-115 48.5t-49 114.5t48.5 115.5t115.5 49.5zM416 303q68 0 117 -47t49 -116t-49 -117
t-115 -48t-115 48.5t-49 114.5t47 115.5t115 49.5z" />
    <glyph glyph-name="perthousand" unicode="&#x2030;" horiz-adv-x="1679" 
d="M1412 592q-112 0 -112 -264q0 -150 32 -204t88 -54q108 0 108 261q0 151 -32 206t-84 55zM1178 334q0 202 65 292t169 90t170.5 -91t66.5 -296t-64.5 -294t-168.5 -89t-171 93t-67 295zM858 592q-111 0 -111 -264q0 -150 31.5 -204t88.5 -54q108 0 108 261q0 151 -32 206
t-85 55zM625 334q0 202 65.5 292t169.5 90t170 -91t66 -296t-65 -294t-169 -89t-170.5 93t-66.5 295zM264 1355q-112 0 -112 -264q0 -150 32 -204t88 -54q108 0 108 205.5t-32 261t-84 55.5zM30 1096q0 202 65 292.5t169 90.5t170.5 -91t66.5 -296t-64.5 -294.5
t-168.5 -89.5t-171 93t-67 295zM262 -54l493 1545h108l-493 -1545h-108z" />
    <glyph glyph-name="guilsinglleft" unicode="&#x2039;" horiz-adv-x="575" 
d="M299 1229h252l-254 -527l252 -528h-248l-258 526z" />
    <glyph glyph-name="guilsinglright" unicode="&#x203a;" horiz-adv-x="575" 
d="M41 1229h254l252 -529l-254 -526h-252l254 528z" />
    <glyph glyph-name="Euro" unicode="&#x20ac;" horiz-adv-x="1323" 
d="M150 641v45q0 45 2 66h-105l10 49h99q45 288 200.5 454t358.5 166q100 0 154 -24t153 -101q32 -22 44 -22t23 24.5t31 98.5h35l21 -467h-33q-47 207 -163 330.5t-243 123.5t-188 -144t-68 -439h584l-10 -49h-574v-111h557l-10 -49h-545q12 -300 82.5 -442t231.5 -142
q131 0 228.5 91t141.5 261h35q-44 -192 -161.5 -290.5t-276.5 -98.5q-223 0 -400 172.5t-210 448.5h-107l10 49h93z" />
    <glyph glyph-name="trademark" unicode="&#x2122;" horiz-adv-x="2007" 
d="M1972 1356v-37q-51 -2 -72.5 -11t-28.5 -35t-7 -89v-467q0 -85 14.5 -102.5t34.5 -22.5t59 -8v-35h-397v35q52 2 76.5 12t33.5 36.5t9 82.5v491h-4l-301 -657h-33l-305 649h-4v-481q0 -84 18 -108.5t76 -24.5h37v-35h-308v35q51 0 74 9t31 37t8 85v467q0 67 -7.5 93.5
t-31 35t-74.5 8.5v37h287l273 -572l264 572h278zM573 1296h-73v-579q0 -103 28.5 -116.5t75.5 -16.5v-35h-375v35q46 5 67 15t27.5 34t6.5 82v581h-76q-93 0 -134 -30.5t-57 -110.5h-32l20 201h729l21 -201h-33q-13 79 -56 110t-139 31z" />
    <glyph glyph-name="Omega" unicode="&#x2126;" horiz-adv-x="1573" 
d="M70 0v332h30q20 -78 45.5 -101.5t90.5 -23.5h323l-4 57q-167 51 -235 107.5t-122 137.5t-86 243.5t68 339.5q52 95 106.5 139.5t125.5 86.5q155 90 377 91q222 0 374 -90q73 -42 127 -85.5t102 -131.5t76.5 -252t-104.5 -363q-60 -87 -137.5 -135.5t-204.5 -87.5l-4 -57
h323q65 0 91.5 24.5t44.5 100.5h30v-332h-604l33 311q85 38 137 74.5t97 141.5q45 104 55.5 233.5t-22.5 261t-118 215.5q-106 106 -297 106t-296 -106q-85 -84 -118 -215.5t-22.5 -260.5t42.5 -205q57 -132 113.5 -172.5t133.5 -72.5l33 -311h-604z" />
    <glyph glyph-name="partialdiff" unicode="&#x2202;" horiz-adv-x="1012" 
d="M229 300q0 -188 95 -253q78 -49 175 -7q98 42 161 192t90 380q-59 67 -101 99.5t-121 31.5q-117 -3 -196 -110q-103 -145 -103 -333zM946 802q0 -44 -17.5 -213.5t-77.5 -296.5q-59 -126 -102.5 -184t-133.5 -108t-224 -40.5t-229.5 117.5t-105.5 230q-17 210 109 366
q126 155 294 150q88 -3 147 -31t160 -108q41 228 10.5 369t-54.5 197t-84 114.5t-130 64.5t-103.5 4t-56.5 -9t-64 -26t-71 -32l-80 102q76 34 176.5 52t198.5 -5q212 -50 340 -274q98 -171 98 -439z" />
    <glyph glyph-name="Delta" unicode="&#x2206;" horiz-adv-x="1253" 
d="M594 1059l-447 -959h844zM668 1409l577 -1409h-1233z" />
    <glyph glyph-name="product" unicode="&#x220f;" horiz-adv-x="1686" 
d="M1446 1288v-1282q0 -127 67 -146.5t132 -19.5v-47h-627v47q100 0 148 33t48 133v1419h-733v-1419q0 -127 67 -146.5t132 -19.5v-47h-629v47q102 0 150.5 33t48.5 133v1282q0 203 -195 203v47h1583v-47q-192 0 -192 -203z" />
    <glyph glyph-name="summation" unicode="&#x2211;" horiz-adv-x="1460" 
d="M922 1434h-539l559 -734l-602 -694h760q83 0 128 19.5t77 66t71 146.5h47q-45 -185 -56 -245t-32 -214q-123 22 -157 22h-1031q-14 0 -36.5 -1.5l-45 -3t-36.5 -1.5l714 815l-710 930l213 -14h1018l12 -326h-41q-32 102 -50.5 139t-79 66t-183.5 29z" />
    <glyph glyph-name="fraction" unicode="&#x2215;" horiz-adv-x="342" 
d="M718 1384l-963 -1443h-132l963 1443h132z" />
    <glyph glyph-name="periodcentered" unicode="&#x2219;" horiz-adv-x="831" 
d="M416 862q68 0 117 -46.5t49 -116.5t-48 -117t-116 -47t-116 48.5t-48 114.5t47 115t115 49z" />
    <glyph glyph-name="radical" unicode="&#x221a;" horiz-adv-x="1124" 
d="M53 854l-33 68l299 147l404 -825l260 1634l72 -10l-307 -1946l-498 1028z" />
    <glyph glyph-name="infinity" unicode="&#x221e;" horiz-adv-x="1460" 
d="M799 541q125 -123 169 -146.5t100 -36.5t111 6t91 64.5t38 97.5t-30 106t-93 78.5t-127 1.5t-119 -60.5t-140 -110.5zM664 541q-161 137 -233 163q-127 45 -201 -20.5t-74 -137.5t36.5 -117.5t91 -64.5t122.5 -3t111 47.5t147 132.5zM731 608q133 119 176 146t101 53
t129.5 21.5t131.5 -41t97 -93.5t44 -129t-30.5 -148.5t-109.5 -123t-152 -38.5t-144 35.5t-109 61t-87.5 76t-46.5 45.5q-85 -85 -163 -144.5t-214 -72.5q-89 -9 -161.5 37.5t-110.5 123.5t-30 149q15 147 157 231.5t265.5 7t256.5 -196.5z" />
    <glyph glyph-name="integral" unicode="&#x222b;" horiz-adv-x="561" 
d="M246 795v295q0 367 36 573t129 210.5t130 -19.5t50.5 -67t-7.5 -69t-67.5 -45t-87.5 24t-62 16.5t0.5 -289t21.5 -425.5l-2 -442q-2 -364 -70 -600q-21 -76 -59 -125q-17 -22 -75.5 -42t-92.5 -4q-59 28 -83 95t52 103q34 17 60.5 5t56.5 -44t58 6.5t24 194.5t-8 265.5
t-4 383.5z" />
    <glyph glyph-name="approxequal" unicode="&#x2248;" horiz-adv-x="1124" 
d="M1004 498l75 -49q-58 -99 -163.5 -139t-200.5 -13l-307 88q-170 49 -226 -24t-65 -85l-88 56q79 105 182.5 142t216.5 5l309 -86q68 -21 148 13t119 92zM1004 807l75 -49q-58 -97 -163.5 -138t-200.5 -14l-307 88q-122 35 -180.5 -3t-78.5 -64t-32 -41l-88 55
q79 105 182.5 142t216.5 5l309 -86q68 -20 148 14t119 91z" />
    <glyph glyph-name="notequal" unicode="&#x2260;" horiz-adv-x="1124" 
d="M1106 788v-112h-399l-160 -285h559v-112h-621l-184 -330l-100 57l151 273h-321v112h385l157 285h-542v112h606l186 336l101 -57l-156 -279h338z" />
    <glyph glyph-name="lessequal" unicode="&#x2264;" horiz-adv-x="1124" 
d="M59 711v127l1018 471v-127l-887 -408l887 -407v-127zM59 0v113h1018v-113h-1018z" />
    <glyph glyph-name="greaterequal" unicode="&#x2265;" horiz-adv-x="1124" 
d="M1077 838v-127l-1018 -471v127l887 407l-887 408v127zM1077 113v-113h-1018v113h1018z" />
    <glyph glyph-name="lozenge" unicode="&#x25ca;" horiz-adv-x="1012" 
d="M831 772l-335 643l-336 -643l336 -661zM557 0h-123l-397 772l397 754h123l397 -754z" />
    <glyph glyph-name="fi" unicode="&#xf001;" horiz-adv-x="2773" 
d="M662 293q0 -254 253 -254h89v-39h-926v39h35q129 1 191 63t63 191v813q0 130 -62 192t-192 62h-35v37h1528v-604h-33q-33 171 -75 262q-142 305 -505 305h-331v-606h88q139 0 217 91t112 294h35v-801h-37q-16 104 -39 165q-81 214 -307 214h-69v-424zM2391 293
q0 -254 253 -254h39v-39h-880v39h39q130 1 192 63t62 191v844q-15 123 -74 170q-60 53 -180 53h-39v37h880v-37h-39q-129 0 -191 -62t-62 -192v-813z" />
    <glyph glyph-name="fl" unicode="&#xf002;" horiz-adv-x="3372" 
d="M662 293q0 -254 253 -254h89v-39h-926v39h35q129 1 191 63t63 191v813q0 130 -62 192t-192 62h-35v37h1528v-604h-33q-33 171 -75 262q-142 305 -505 305h-331v-606h88q139 0 217 91t112 294h35v-801h-37q-16 104 -39 165q-81 214 -307 214h-69v-424zM1749 1397h953v-37
h-101q-129 0 -191 -62t-62 -192v-1069h362q107 -1 202 47t151 117t102 144t104 273h37v-618h-1557l-2 37h52q254 0 254 256v813q0 254 -254 254h-50v37z" />
    </font>
</defs>
</svg>
