<?xml version="1.0" standalone="no"?>
<!DOCTYPE svg PUBLIC "-//W3C//DTD SVG 1.1//EN" "http://www.w3.org/Graphics/SVG/1.1/DTD/svg11.dtd" >
<svg xmlns="http://www.w3.org/2000/svg">
<metadata>
Created by FontPrep 20130207 at Tue Dec  9 01:47:55 2014
 By Alexander Gunnarson
(c) 2005 Adobe Systems Incorporated. All Rights Reserved.
</metadata>
<defs>
<font id="22545e3aa1f73eddb89cb87389eb8840" horiz-adv-x='1024' >
  <font-face 
    font-family="GaramondPremrPro"
    font-weight="400"
    font-stretch="normal"
    units-per-em="2048"
    panose-1="2 2 4 2 6 5 6 2 4 3"
    ascent="1485"
    descent="-563"
    x-height="805"
    cap-height="1323"
    bbox="-436 -688 2877 1880"
    underline-thickness="102"
    underline-position="-102"
    unicode-range="U+0020-FB04"
  />
<missing-glyph horiz-adv-x="1024" 
d="M102 1239v-1044l349 522zM164 102h696l-348 523zM573 717l349 -522v1044zM512 809l348 522h-696zM0 0v1434h1024v-1434h-1024z" />
    <glyph glyph-name="T_h" unicode="Th" horiz-adv-x="2148" 
d="M442 -14q-61 0 -61 20q0 29 39 37q100 23 125 61t28 162q14 424 15 697v243q0 27 -17 27q-55 8 -245 8q-106 0 -152 -47q-28 -18 -58 -82t-49 -65q-19 0 -20 45q0 10 20 104q19 94 19 166q0 10 10 21t19 12t16 -9q6 -10 14 -18q43 -43 74 -45q71 -8 487 -8t457 4
q148 0 199 42q52 42 72 42q20 1 19 -17t-17 -142t-17 -523q0 -6 4 -11t11 -1q131 119 258 118q274 0 274 -315l8 -379q0 -37 18 -53t70 -28q51 -12 52 -32q0 -27 -56 -26l-162 6l-149 -4q-39 0 -39 24q0 18 40 30t51 26q11 16 18 74v296q0 168 -35 205q-57 68 -165 68
t-163 -47q-31 -32 -34 -96t-4 -222t1 -207q3 -49 21 -66t60 -29t42 -34q0 -23 -49 -22l-168 4l-158 -6q-47 0 -47 26q0 18 52 34t68 39q17 24 22 79q18 258 18 727v270q0 58 -52 64q-16 2 -214 4t-238 -4q-6 -2 -11 -12t-5 -15l-2 -501q0 -414 8 -498t32 -110t97 -42t74 -41
q0 -25 -58 -24l-231 10q-60 0 -146 -7t-90 -7z" />
    <glyph glyph-name="Tcaron_h" unicode="&#x164;h" horiz-adv-x="2148" 
d="M676 1409q-25 0 -57 27t-99 81q-66 54 -96 82q-14 7 -20 21q-13 32 22 33q27 0 240 -109q16 -6 36 4t81 40q60 30 89 44l58 19q59 0 0 -56q-14 -10 -82 -68t-108 -88q-39 -30 -64 -30zM442 -14q-61 0 -61 20q0 29 39 37q100 23 125 61t28 162q14 424 15 697v243
q0 27 -17 27q-55 8 -245 8q-106 0 -152 -47q-28 -18 -58 -82t-49 -65q-19 0 -20 45q0 10 20 104q19 94 19 166q0 10 10 21t19 12t16 -9q6 -10 14 -18q43 -43 74 -45q71 -8 487 -8t457 4q148 0 199 42q52 42 72 42q20 1 19 -17t-17 -142t-17 -523q0 -6 4 -11t11 -1
q131 119 258 118q274 0 274 -315l8 -379q0 -37 18 -53t70 -28q51 -12 52 -32q0 -27 -56 -26l-162 6l-149 -4q-39 0 -39 24q0 18 40 30t51 26q11 16 18 74v296q0 168 -35 205q-57 68 -165 68t-163 -47q-31 -32 -34 -96t-4 -222t1 -207q3 -49 21 -66t60 -29t42 -34
q0 -23 -49 -22l-168 4l-158 -6q-47 0 -47 26q0 18 52 34t68 39q17 24 22 79q18 258 18 727v270q0 58 -52 64q-16 2 -214 4t-238 -4q-6 -2 -11 -12t-5 -15l-2 -501q0 -414 8 -498t32 -110t97 -42t74 -41q0 -25 -58 -24l-231 10q-60 0 -146 -7t-90 -7z" />
    <glyph glyph-name="Tcommaaccent_h" unicode="&#x162;h" horiz-adv-x="2148" 
d="M553 -156q1 38 29 58t72 20t85 -43t41 -119t-45 -129q-74 -87 -157 -90q-29 1 -29 17q1 16 33 30t66 50t34 76q0 42 -49 59q-80 23 -80 71zM442 -14q-61 0 -61 20q0 29 39 37q100 23 125 61t28 162q14 424 15 697v243q0 27 -17 27q-55 8 -245 8q-106 0 -152 -47
q-28 -18 -58 -82t-49 -65q-19 0 -20 45q0 10 20 104q19 94 19 166q0 10 10 21t19 12t16 -9q6 -10 14 -18q43 -43 74 -45q71 -8 487 -8t457 4q148 0 199 42q52 42 72 42q20 1 19 -17t-17 -142t-17 -523q0 -6 4 -11t11 -1q131 119 258 118q274 0 274 -315l8 -379q0 -37 18 -53
t70 -28q51 -12 52 -32q0 -27 -56 -26l-162 6l-149 -4q-39 0 -39 24q0 18 40 30t51 26q11 16 18 74v296q0 168 -35 205q-57 68 -165 68t-163 -47q-31 -32 -34 -96t-4 -222t1 -207q3 -49 21 -66t60 -29t42 -34q0 -23 -49 -22l-168 4l-158 -6q-47 0 -47 26q0 18 52 34t68 39
q17 24 22 79q18 258 18 727v270q0 58 -52 64q-16 2 -214 4t-238 -4q-6 -2 -11 -12t-5 -15l-2 -501q0 -414 8 -498t32 -110t97 -42t74 -41q0 -25 -58 -24l-231 10q-60 0 -146 -7t-90 -7z" />
    <glyph glyph-name="f_f_b" unicode="ffb" horiz-adv-x="2134" 
d="M1898 380q0 68 -25 142q-26 74 -77 125q-84 88 -223 88q-74 0 -117 -28q-20 -13 -20 -168q0 -154 14 -310q6 -66 45 -104q37 -41 94 -63t98 -22t99 56q58 54 86 134q26 82 26 150zM360 799h359q12 0 12 16q0 221 88 387q3 3 -4 21q-76 98 -233 98q-92 0 -162 -98
q-78 -98 -78 -400q0 -24 18 -24zM588 18q0 20 56 34t71 39q16 24 16 97v500q0 19 -12 19h-361q-18 0 -18 -48v-512q0 -43 22 -59t77 -32q54 -16 55 -38q0 -27 -52 -26l-192 8l-152 -8q-45 0 -45 21t52 35t67 39q14 24 18 99v490q0 18 -24 22l-66 13q-23 0 -22 34q0 7 39 25
t57 30t19 31q0 152 61 285t195 215q125 80 249 80t209 -76q10 -6 17 0q125 129 278 129q59 0 133 -34q8 -4 35 10t47 14t21 -33v-78q-4 -161 -4 -357t4 -213t8 -17q111 72 248 72t239 -91q135 -117 135 -309q0 -223 -178 -360q-115 -92 -276 -93q-51 1 -137 15t-123 26
q-18 10 -34 -1t-30 -11t-14 27q12 193 12 631t-9 531t-24 107q-57 62 -154 62t-147 -86q-66 -111 -65 -461q0 -16 14 -16h195l32 2q10 0 20 -27t11 -59q0 -5 -12 -13t-21 -8l-231 6q-4 0 -10 -6t-6 -14l2 -508q0 -62 20 -82t91 -35t71 -40q0 -24 -55 -23l-207 8l-166 -8
q-18 0 -34 8q-15 8 -15 18z" />
    <glyph glyph-name="f_f_h" unicode="ffh" horiz-adv-x="2148" 
d="M360 799h353q18 0 18 18q0 207 94 383q3 3 -4 21q-29 39 -95 71t-134 33q-250 0 -250 -502q0 -8 6 -16t12 -8zM190 308v368q0 16 -16 19q-16 4 -46 6t-36 16q-8 25 -8 31t31 22q78 39 78 61q6 322 221 480q150 100 284 100t211 -80q8 -8 17 0q55 57 135 94t152 37
t145 -41q8 -7 40 9t36 16q12 0 12 -25q-25 -174 -25 -700q0 -6 4 -11t11 -1q129 118 264 118t202 -85t66 -230l8 -379q0 -27 20 -46t34 -25t50 -15q36 -10 36 -27q0 -27 -56 -26l-164 6l-145 -4q-43 0 -43 24q0 16 42 28t56 35q14 22 15 144l-2 213q0 154 -41 216t-154 62
t-168 -46q-29 -20 -34 -94t-5 -226q0 -150 3 -212t83 -91q41 -14 41 -29q0 -25 -51 -24h-4l-170 4l-150 -6q-47 0 -47 26q0 15 24 22q23 8 38 15q70 29 78 115q20 288 20 696t-16 430q-70 70 -159 70t-146 -92q-35 -54 -58 -200t-18 -261q0 -16 18 -16h223q20 -8 21 -70
q0 -27 -35 -27q-172 0 -211 3q-18 0 -18 -25v-528q0 -29 1 -40t14 -28t78 -31q66 -14 66 -38t-55 -23l-190 8l-168 -8q-18 0 -34 8q-15 8 -15 18q0 18 56 32t71 39q16 24 16 97l8 504q0 12 -18 17h-353q-20 0 -20 -48v-458q0 -86 16 -108t76 -38t62 -37q0 -27 -52 -26h-2
l-151 6l-43 2l-148 -8q-18 0 -33 8q-45 24 24 43q68 20 83 44q14 24 16 77t2 144z" />
    <glyph glyph-name="f_f_j" unicode="ffj" horiz-adv-x="1591" 
d="M365 799h348q18 0 18 16q0 215 90 381q4 10 -4 23q-78 100 -235 100q-92 0 -162 -94q-78 -98 -78 -402q0 -24 23 -24zM588 18q0 23 54 36t70 37q15 23 17 95t2 502q0 6 -6 12t-12 7h-353q-20 0 -20 -48q0 -426 7 -489q7 -62 25 -80t72 -34q56 -16 56 -36q0 -29 -56 -28
l-194 8l-154 -12q-45 0 -45 22t52 36t67 39q18 31 18 230l2 361q0 18 -22 22q-57 10 -68 13q-16 0 -16 34q0 7 36 25t54 30t19 31q1 150 63 286t193 216q119 76 249 76t211 -80q6 -8 15 0q57 57 136 95t159 38q143 0 208 -86q17 -24 17 -52t-40 -62t-65 -33q-6 0 -77 61
q-68 68 -158 70q-63 0 -119 -64q-98 -111 -98 -473q0 -23 35 -22l161 -2q201 -2 250 20q49 23 63 23t13 -41v-731q-4 -225 -92 -381q-68 -117 -191 -209q-54 -39 -78 -39t-38 12q-8 14 4 23q88 51 131 104q115 139 115 492q0 526 -7 596q-6 37 -30 37h-318q-20 0 -20 -41
q0 -442 3 -471t7 -66t14 -41t24 -13t69 -20q55 -12 55 -37t-53 -24l-201 8l-166 -8q-18 0 -34 8q-15 8 -15 18z" />
    <glyph glyph-name="f_f_k" unicode="ffk" horiz-adv-x="2093" 
d="M365 799h348q18 0 18 16q0 213 90 383q3 3 -4 21q-78 100 -231 100q-98 0 -168 -94q-76 -96 -76 -402q0 -24 23 -24zM584 18q0 20 56 34t71 38q14 23 17 134t3 464q0 6 -6 12t-12 7h-353q-20 0 -20 -48q0 -436 7 -495q7 -58 27 -76t71 -34q52 -16 53 -36q0 -27 -56 -26
l-192 8l-154 -10q-43 0 -43 26q0 18 52 32t67 39q14 24 18 99v490q0 18 -22 22l-68 13q-18 0 -18 34q0 5 39 25t55 32t17 29q-1 150 63 288t190 216q114 74 252 74t209 -76q8 -8 17 0q125 129 274 129q55 0 133 -39q6 -4 36 13q30 16 48 16t23 -33q-8 -75 -8 -501t6 -444
t16 -19q10 0 41 26q176 166 215 221q2 6 5 14t-10 16q-13 9 -52 15t-39 29t43 23h88q78 0 164 12t107 12t22 -14q0 -15 -16 -29t-27 -16q-78 -18 -120 -38t-118 -71q-41 -31 -100 -87t-65 -68t-3 -21q154 -184 332 -362q55 -55 121 -71t67 -38q0 -23 -51 -22l-258 12h-90
q-51 0 -51 27q0 18 51 30t21 56q-8 10 -85 93t-132 148q-54 66 -69 66t-15 -128q-2 -128 6 -166t23 -51t57 -25t42 -32q0 -21 -47 -20l-172 4l-170 -8q-47 0 -47 22q0 16 47 31q59 13 79 31t30 72q12 54 12 512t-7 538t-24 98q-57 66 -155 66t-146 -88q-70 -117 -69 -459
q0 -16 14 -16h199l33 2q10 0 19 -27t9 -59q0 -5 -11 -13t-20 -8l-225 6q-23 0 -22 -20v-508q-1 -61 21 -85t112 -42q37 -8 37 -31t-45 -22l-205 8l-166 -8q-53 0 -53 26z" />
    <glyph glyph-name="f_f_t" unicode="fft" horiz-adv-x="1658" 
d="M713 707h-353q-20 0 -20 -48v-2q0 -423 1 -483t18 -82t79 -37q62 -16 62 -37q0 -27 -58 -26h-4l-192 8l-148 -8q-47 0 -47 26q0 14 46 28q45 14 63 32q18 20 24 72t9 237l-3 291q0 22 -46 26q-46 5 -53 13t-7 21q0 12 11 20t34 19t43 23t21 31q0 317 227 486
q141 94 276 94t211 -80q8 -8 17 0q100 106 254 127q95 13 154 -23q60 -36 60 -75t-29 -69q-30 -30 -54 -31q-23 4 -52 30q-78 72 -159 76q-70 9 -135 -92q-33 -54 -56 -192t-22 -265q0 -18 18 -18h287q18 0 35 15q16 14 62 70t53 56q8 0 20 -10t12 -15q-4 -32 -4 -100
q0 -16 16 -16l252 8l6 2q20 -8 21 -94q0 -23 -53 -23h-224q-12 0 -17 -77t-5 -379q0 -137 164 -138q51 0 86 20t43 21q10 -4 10 -22q0 -51 -83 -97q-82 -46 -152 -45q-70 0 -119 29t-74 68t-25 135l9 461q-1 14 -11 26t-311 13q-6 1 -13 -7t-7 -18q0 -531 12 -571
q12 -39 123 -62q39 -8 39 -33t-45 -24l-213 8l-168 -8q-16 0 -32 8q-15 8 -15 18q0 20 54 34t73 39q18 26 18 97l4 500q0 6 -6 12t-12 7zM365 799h348q18 0 18 16q0 221 90 387q3 3 -4 21q-29 39 -93 69t-134 31q-248 0 -248 -500q0 -24 23 -24z" />
    <glyph glyph-name="f_h" unicode="fh" horiz-adv-x="1613" 
d="M1581 20q0 -27 -53 -26l-166 6l-145 -4q-43 0 -43 24q0 16 42 28t53 28t17 74v296q0 164 -35 205q-61 68 -153 68t-152 -31q-20 -10 -24 -16q-29 -29 -33 -99q-4 -71 -4 -221t2 -202t19 -69q16 -17 60 -29t44 -34q0 -23 -52 -22l-167 4l-156 -6q-49 0 -49 26q0 18 51 34
t69 39q17 24 21 79q18 258 18 591t-8 426t-22 107q-66 66 -160 66t-143 -82q-72 -121 -72 -465q0 -16 18 -16h199l33 2q10 0 19 -27t9 -59q0 -5 -11 -13t-19 -8l-226 6q-20 0 -20 -22q-4 -133 2 -467q2 -90 22 -117t78 -40q56 -13 56 -27q0 -13 -12 -23t-27 -10l-174 6
l-189 -8q-45 0 -45 22q0 16 47 31q76 20 84 84q6 45 6 533q0 33 -20 34q-42 8 -62 12t-20 13q0 27 50 54q24 13 38 23t14 29q4 150 27 236q53 195 181 296t247 101q70 0 139 -35q12 -6 25 0q49 29 70 29q16 0 16 -33l-2 -135l-4 -565q0 -6 4 -11t10 -1q125 119 264 119
t203 -88q64 -87 64 -228l8 -379q0 -37 18 -53t70 -28t51 -32z" />
    <glyph glyph-name="f_j" unicode="fj" horiz-adv-x="1009" 
d="M57 23q0 20 44 32q45 11 61 27t22 57t6 535q2 20 -17 23t-39 5t-30 4q-26 3 -26 26q0 18 94 63q18 15 18 23t8 86t11 94q4 17 11 53t26 77q66 150 182 236q125 98 260 98t199 -88q16 -24 16 -52t-40 -62t-64 -33q-8 0 -80 61q-66 70 -158 72q-66 0 -117 -64
q-102 -119 -102 -475q0 -14 9 -18t168 -5t203 3t73 22t51 19q18 0 18 -41v-731q-4 -226 -84 -364t-200 -226q-51 -39 -76 -39t-37 12t2 23q90 53 131 104q113 137 113 492q0 528 -4 598q-6 35 -31 35h-318q-20 0 -20 -41q0 -455 4 -537q2 -29 22 -44t65 -29q46 -14 46 -38
q0 -23 -47 -22l-166 6l-166 -6q-41 0 -41 29z" />
    <glyph glyph-name="f_k" unicode="fk" horiz-adv-x="1550" 
d="M910 455q9 0 40 26q176 166 215 221q25 31 -43 43q-51 8 -51 31t43 23h88q76 0 163 12t107 12t21 -15q0 -14 -15 -28t-26 -16q-78 -16 -119 -36t-119 -73q-41 -31 -99 -87t-65 -68t-3 -21q109 -133 329 -362q61 -57 142 -74q47 -12 47 -35t-49 -22l-259 12h-94
q-49 0 -49 27q0 18 43 28q63 14 27 58q-16 20 -102 115q-86 96 -128 144t-51 48q-10 0 -10 -17q-8 -18 -7 -129q1 -110 8 -148t21 -51q13 -13 57 -25t44 -32q0 -21 -51 -20l-168 4l-172 -8q-49 0 -50 22q1 16 55 30t73 32t28 59q14 90 14 514q0 425 -9 531t-23 123
q-59 59 -155 59t-146 -86q-72 -121 -72 -461q0 -16 18 -16h199l33 2q10 0 19 -27t9 -59q0 -5 -11 -13t-19 -8l-228 6q-18 0 -19 -32t-1 -207q0 -174 2 -259t17 -110t69 -38t55 -27q0 -13 -13 -23t-28 -10l-155 6l-189 -8q-45 0 -45 22q0 16 47 31q76 20 84 84q6 45 6 533
q0 33 -20 34q-40 8 -62 12t-22 13q0 27 51 54q25 13 39 23t14 29q2 143 27 230q55 201 199 317q111 86 239 86q63 0 138 -37q12 -2 26 4q49 27 63 27t13 -33l-2 -135l-2 -565q0 -236 5 -251t14 -15z" />
    <glyph glyph-name="f_t" unicode="ft" horiz-adv-x="1173" 
d="M808 934q9 0 19 -9t11 -14l-2 -96q0 -16 12 -16l254 4q26 0 26 -82q0 -23 -53 -23h-225q-14 0 -16 -24q-4 -70 -5 -438q0 -139 162 -140q23 0 76 22t59 22t7 -23q0 -51 -83 -97q-82 -46 -152 -45q-70 0 -120 30t-71 67q-27 37 -27 135l8 465q0 33 -18 33h-314
q-13 0 -15 -22q-1 -21 1 -259t7 -278t29 -60t89 -32t65 -35q0 -24 -53 -23l-129 4h-45l-201 -10q-51 0 -51 22q0 16 43 33q63 18 77 41q13 24 16 144t4 393q0 80 -21 79q-63 0 -86 -4q-8 0 -15 12t-3 23l30 19q33 18 65 43t32 36q6 199 56 317t163 216t254 98q59 0 110 -30
t51 -73q-1 -44 -29 -71t-63 -26q-3 0 -71 51t-123 53q-65 0 -103 -47q-55 -68 -75 -171t-21 -331q0 -18 12 -18h126l180 2q18 0 28 8q10 9 59 67q50 58 59 58z" />
    <glyph glyph-name="gamma_gamma" unicode="&#x3b3;&#x3b3;" horiz-adv-x="1562" 
d="M1494 850q15 0 19 -4q103 -65 60 -163q-20 -46 -97 -173q-247 -408 -247 -572q0 -28 -8 -189q-7 -161 -11 -174t-19 -25t-24 -11q-74 27 -108 96q-18 41 -10 68q35 158 96 336q10 31 11 109q2 169 -77 373q-29 75 -77 122t-98 47t-83 -24q-80 -58 -164 -244t-127 -377
q-8 -41 -10 -99t-21 -232q-19 -175 -23 -191q-4 -17 -21 -29q-16 -12 -25 -10q-76 25 -104 90q-18 41 -11 70q68 250 125 403q24 69 10 189t-38 204q-25 84 -82 158t-133 74q-49 0 -93 -29t-56 -49q-23 -36 -36 14q-10 53 31 107q86 119 197 119q49 0 86 -14q36 -14 78 -78
t71 -198t29 -311q0 -14 16 -4l8 11q133 393 252 514q25 30 76 56t78 26q186 0 244 -273q37 -174 36 -330q0 -14 10 -7t11 14q135 268 177 368t67 236q0 6 15 6z" />
    <glyph glyph-name="lambda_lambda" unicode="&#x3bb;&#x3bb;" horiz-adv-x="1554" 
d="M190 1384q91 0 145 -66t99 -233q14 -47 76 -318t82 -349q78 -289 166 -289q29 0 59 59t122 251q93 192 115 246q22 53 40 73t10 76q-92 479 -313 479q-104 0 -175 -53q-4 -2 -12 4t-8 26t25 51q86 119 213 119q92 0 149 -68t113 -241q10 -35 103 -430t109 -441t30 -66
q13 -20 45 -46q32 -25 77 -25t88 11q8 4 8 -25q4 -8 -6 -41q-45 -125 -141 -125q-43 0 -78 39t-51 107q-106 410 -123 495q-4 14 -13 10t-13 -17t-116 -269t-122 -273q-39 -90 -109 -90q-111 0 -168 119q-22 50 -47 135q-86 328 -96 385q-4 14 -13 10t-12 -16
q-4 -12 -104 -263t-108 -263q-51 -111 -70 -111q-12 0 -48 11q-36 12 -58 26t-14 34t143 290q136 272 161 317q47 106 68 131q16 10 10 45q-45 225 -104 327t-170 103q-66 0 -127 -31q-3 -2 -13 6t-10 22q0 16 29 56q66 86 157 86z" />
    <glyph glyph-name="longs_b" unicode="&#x17f;b" horiz-adv-x="1552" 
d="M1319 385q0 150 -89 250t-229 100q-84 0 -127 -28q-20 -13 -20 -182t12 -300q2 -72 56 -121q61 -61 144 -61t146 57q107 95 107 285zM55 13q0 21 45 36q78 19 84 73t6 537q0 33 -18 35l-72 13q-12 4 -12 16q0 23 51 55l31 17q23 16 23 30q2 147 28 232q51 181 175 287
t255 106q72 0 117 -27q14 -6 25 7q35 41 51 41t16 -35q0 -346 -3 -503t1 -166t10 -3q119 63 252 63t234 -90q135 -115 135 -311q0 -129 -49 -211t-131 -147q-106 -86 -277 -93q-117 -4 -262 41q-14 6 -30 -3t-28 -9q-13 0 -14 27q23 910 7 1194q0 61 -27 84q-47 47 -115 47
q-100 0 -153 -90q-61 -106 -66 -463v-592q2 -88 16 -113t74 -39t60 -34q0 -13 -18 -21t-36 -8l-151 4l-191 -8q-43 0 -43 21z" />
    <glyph glyph-name="longs_h" unicode="&#x17f;h" horiz-adv-x="1572" 
d="M57 13q0 21 43 36q78 23 84 75t6 535q0 33 -18 35q-56 9 -70 13t-14 16q0 23 51 55l31 17q23 16 23 30q2 154 28 236q51 181 174 287t256 106q74 0 117 -27q16 -6 35 23t41 33q16 0 16 -35q0 -287 -8 -696q0 -14 6 -20t12 -1q51 39 124 68t130 28q147 0 213 -94
q59 -80 61 -215t1 -385q0 -37 20 -52q21 -15 71 -25t50 -33q0 -29 -51 -29l-168 6l-147 -6q-45 0 -46 31q0 18 40 28q40 9 56 29t20 74q5 54 5 307q0 145 -48 201q-47 56 -151 57q-104 0 -176 -41q-23 -12 -22 -35q-4 -88 -4 -267q0 -180 2 -230t16 -65t56 -27t41 -33
q0 -29 -41 -29l-168 6l-152 -6q-45 0 -45 24t50 39q50 14 68 37q17 23 25 151t9 486v475q0 80 -31 107q-47 47 -115 47q-100 0 -157 -98t-62 -459v-592q2 -98 15 -121t67 -32t53 -29q0 -13 -13 -23t-28 -10l-149 4l-191 -8q-41 0 -41 21z" />
    <glyph glyph-name="longs_i" unicode="&#x17f;i" horiz-adv-x="1038" 
d="M573 18q0 18 62 36t71 50t9 270t-4 285q-6 31 -62 54q-27 10 -26 28q0 18 45 33q41 8 182 53q18 0 18 -22l-6 -397q0 -129 4 -273q0 -53 36 -73q11 -5 46 -15t35 -32t-39 -21l-166 6l-160 -6q-45 0 -45 24zM59 20q0 20 47 34q48 14 64 34t19 143t4 449q1 6 -7 13t-18 7
h-68q-14 0 -14 27q0 4 82 68q23 18 22 30q0 173 63 313t177 226q126 98 268 98t203 -92q19 -28 19 -54t-41 -60t-59 -34t-85 64q-68 72 -153 73t-136 -63q-42 -49 -74 -181t-32 -327l2 -634q0 -52 18 -70t70 -28t53 -36q0 -27 -43 -26l-192 6l-146 -6q-43 0 -43 26z" />
    <glyph glyph-name="longs_k" unicode="&#x17f;k" horiz-adv-x="1515" 
d="M57 13q0 21 43 36q78 19 84 73t6 537q0 33 -18 35q-2 0 -33 5t-41 9t-10 15q0 23 51 55l31 17q23 16 23 30q2 160 30 234q51 181 174 287t254 106q72 0 119 -27q6 -7 16 7t30 31t28 18q16 0 16 -42t-5 -481t-1 -470t16 -31q29 0 54 24q145 127 211 221q2 6 2 12
q1 16 -55 25q-56 8 -56 34t41 26h104q80 0 154 9q73 9 105 9q32 1 32 -23t-43 -34q-92 -18 -124 -32q-82 -37 -271 -232q-10 -14 2 -27q123 -154 332 -354q50 -45 118 -57t68 -31q0 -33 -55 -33l-250 6l-113 -2q-53 0 -53 29q0 23 41 30q74 18 37 58q-23 29 -227 256
q-32 41 -52 41t-20 -17q0 -267 3 -287t18 -29t59 -23t45 -33q0 -29 -45 -29l-174 6l-172 -6q-43 0 -43 22t53 36q52 14 72 30t30 66t11 417v639q0 80 -31 107q-47 47 -115 47q-100 0 -157 -98t-62 -457v-592q2 -96 17 -121t71 -34t55 -29q0 -11 -18 -21t-35 -10l-145 4
l-191 -8q-41 0 -41 21z" />
    <glyph glyph-name="longs_l" unicode="&#x17f;l" horiz-adv-x="1032" 
d="M51 13q0 21 49 36q78 19 84 73t6 537q0 33 -18 35q-10 2 -39 7t-37 7t-8 15q0 23 51 55l31 17q23 16 23 30q2 160 30 234q51 181 174 287t254 106q72 0 119 -27q12 -6 32 23t42 33q16 0 16 -35q0 -266 -4 -680l4 -629q2 -33 22 -49t72 -32t52 -33q0 -9 -14 -19t-34 -10
l-190 6l-162 -6q-53 0 -53 29q-1 18 55 33q56 14 71 34t27 179t3 935q0 80 -31 107q-47 47 -115 47q-100 0 -157 -98t-62 -457v-592q2 -96 16 -119t70 -37t55 -28q0 -15 -16 -23t-31 -8l-149 4l-191 -8q-47 0 -47 21z" />
    <glyph glyph-name="longs_longs" unicode="&#x17f;s" horiz-adv-x="1040" 
d="M193 829q0 201 75 322q61 106 156 172q117 88 240 88q12 0 18 -6q119 0 201 -74q9 0 37 8q121 121 262 119q63 0 110 -34t48 -72t-27 -62q-29 -20 -56 -20q-5 0 -63 45t-128 45t-124 -80q-78 -119 -78 -473v-633q2 -59 22 -85t70 -37t50 -36t-45 -24l-197 8l-148 -8
q-47 0 -47 24q0 16 53 34t71 41q17 24 22 97v131l2 363q0 24 -48 29q-19 2 -38 6q-16 2 -17 31q0 4 26 19t42 28q33 18 35 43q12 246 71 358q16 20 5 33q-93 92 -199 92t-166 -80q-86 -106 -86 -475v-623q0 -41 22 -58t74 -31t54 -31q0 -31 -48 -31l-192 8l-148 -6
q-47 0 -47 26q0 16 44 28q75 21 82 69q7 42 7 204l3 353q-1 18 -23 21t-68 10q-16 2 -16 26q2 4 54 41t53 57z" />
    <glyph glyph-name="longs_longs_i" unicode="&#x17f;si" horiz-adv-x="1562" 
d="M1133 735q0 23 44 32q43 9 119 38t83 30t13 -9t7 -13l-13 -405q0 -276 8 -295t11 -26q4 -7 17 -14l18 -9t24 -8q70 -18 70 -42q0 -20 -49 -20l-158 6l-176 -8q-51 0 -51 20t49 35q74 18 82 57t8 211v17l2 104q0 33 1 66q3 112 -7 135t-56 55t-46 43zM190 396q0 149 3 278
q0 18 -25 22l-66 9q-16 2 -16 26q2 4 54 41t53 57q-1 195 69 311t178 194t234 77q125 0 213 -84q6 -8 18 4q121 131 269 131q68 0 118 -34t51 -74q-1 -40 -27 -62t-45 -22t-75 45t-128 45t-124 -80q-80 -121 -80 -496v-610q2 -59 20 -85t70 -37q51 -11 52 -38q0 -23 -48 -22
l-194 8l-150 -8q-45 0 -45 24q0 16 52 34t71 42q18 25 23 96v129l2 365q0 20 -23 25l-63 10q-16 2 -17 31q0 4 26 19t42 28q33 20 35 43q14 242 78 366q10 20 2 25q-92 92 -213 92q-90 0 -154 -82q-88 -111 -88 -451v-645q0 -41 22 -58t74 -31t54 -31q0 -31 -48 -31l-192 8
l-150 -8q-18 0 -32 9t-17 19q0 16 52 30t67 41q14 26 16 91t2 214z" />
    <glyph glyph-name="longs_longs_l" unicode="&#x17f;sl" horiz-adv-x="1546" 
d="M193 829q0 199 75 320q61 111 156 174q117 88 245 88t214 -82q6 -6 18 4q123 129 273 129q78 0 124 -32q10 -2 18 10t27 25q18 13 23 14q16 0 16 -33l-6 -711q-2 -135 0 -361t2 -248t20 -41t74 -35q56 -16 56 -32q0 -25 -53 -24l-172 6l-179 -6q-59 0 -59 22q-1 22 55 34
q56 11 73 40q32 55 34 631v487q0 156 -144 156q-86 0 -139 -80q-80 -121 -80 -496v-614q2 -59 20 -85t70 -37q51 -11 52 -38q0 -23 -48 -22l-194 8l-156 -8q-39 0 -39 26q0 16 35 29q66 20 86 45q20 26 24 94t3 496q0 20 -23 25l-63 10q-16 2 -17 31q0 4 26 19t42 28
q33 20 35 43q4 219 80 366q8 18 2 25q-76 92 -215 92q-94 0 -158 -82q-84 -106 -84 -446v-650q0 -41 23 -58t75 -31t52 -36q0 -27 -48 -26l-192 8l-154 -8q-18 0 -32 9q-43 27 32 48q57 16 72 42q14 26 18 99q-4 84 5 484q0 18 -25 22l-66 9q-16 2 -16 26q2 4 54 41t53 57z
" />
    <glyph glyph-name="longs_t" unicode="&#x17f;t" horiz-adv-x="1191" 
d="M59 20q0 10 35 25q63 16 77 39q13 24 16 144t3 452q1 18 -30 20t-60 2q-16 0 -16 25q0 2 90 70q18 12 19 41q0 301 190 460q123 98 235 98t176 -66q62 -67 62 -173v-328q0 -4 8 -13t22 -9h64l142 2q33 0 34 -25l4 -63v-2q0 -23 -51 -23l-200 4q-25 0 -25 -24v-420
q0 -72 40 -119t103 -47q31 0 65 13t42 24q16 14 30 14t15 -35q1 -4 -19 -28t-32 -33q-74 -70 -180 -70q-58 0 -112 32t-75 69q-29 45 -29 133l7 477q0 12 -38 12t-67 4q-25 0 -24 25q0 10 10 18q14 9 51 27t41 23q23 15 28 69t5 266q0 170 -176 170q-201 0 -201 -426l2 -724
q0 -52 17 -70t71 -28t55 -32q0 -10 -15 -18t-32 -8l-190 6l-144 -6q-43 0 -43 26z" />
    <glyph glyph-name="f_f" unicode="ff" horiz-adv-x="1144" 
d="M358 799h361q12 0 12 16q0 219 88 385q3 3 -4 21q-29 37 -97 71t-148 33q-78 0 -153 -99t-75 -403q0 -24 16 -24zM588 18q0 23 54 36t72 38q17 25 17 96v500q0 19 -12 19h-361q-18 0 -18 -52v-508q0 -43 22 -59t79 -32q56 -16 57 -40q0 -25 -56 -24l-192 8l-152 -8
q-47 0 -47 24q0 14 53 30t68 39q14 24 18 101v490q0 18 -24 22l-60 13q-23 0 -22 34q0 7 36 25t54 30t19 31q-1 156 61 290t192 214q119 76 246 76t213 -82q4 -2 9 -2t8 2q129 133 290 133q72 0 123 -30t51 -78q0 -14 -15 -42t-28 -36q-33 -16 -44 -16t-52 34
q-77 74 -153 74t-138 -90q-34 -54 -56 -200t-15 -265q0 -14 12 -14h229q20 -8 21 -70q0 -27 -35 -27q-176 0 -215 3q-4 1 -10 -7t-6 -14l2 -512q1 -57 23 -81t86 -37t63 -38q0 -25 -54 -24l-198 8l-168 -8q-16 0 -32 8q-15 8 -15 18z" />
    <glyph glyph-name="f_i" unicode="fi" horiz-adv-x="1052" 
d="M877 444q0 -256 4 -304t23 -61q20 -13 58 -25t46 -18q8 -7 8 -20q0 -23 -47 -22l-158 6l-176 -8q-39 0 -39 22q0 16 43 32t59 34q16 16 19 41q10 211 10 549q0 8 -9 18t-16 12q-46 6 -158 8t-150 -4q-38 -4 -46 -12t-8 -18q0 -395 6 -518q4 -50 20 -68t87 -37
q43 -16 43 -37t-45 -20l-185 6l-170 -10q-41 0 -41 24q0 18 46 32q47 14 61 30t21 60t7 538q0 4 -7 12q-12 14 -91 20q-6 0 -10 9q-4 8 -2 14q6 23 92 68q18 14 18 26q0 179 62 319t172 222q124 98 270 98t207 -92q19 -24 19 -52t-41 -62t-59 -34t-85 64q-68 70 -168 74
q-225 0 -225 -539q0 -6 10 -13t28 -8t178 -2t230 20q68 21 84 22q10 0 8 -70q-3 -70 -3 -326z" />
    <glyph glyph-name="f_l" unicode="fl" horiz-adv-x="1058" 
d="M729 825q0 20 -10 342q-4 115 -23 133q-20 18 -28 27q-8 7 -41 21t-72 14q-96 0 -147 -86q-66 -111 -66 -459q0 -16 20 -16h37l84 -2h154l74 2q18 4 18 24zM53 14q0 16 47 31q76 20 84 84q6 45 6 533q0 33 -20 34l-76 11q-12 4 -12 15q0 21 40 43q40 23 54 33t14 29
q2 109 27 211q49 217 195 336q110 86 247 86q43 0 113 -35q12 -6 42 12t54 17q14 0 15 -33l-2 -131l-4 -557q0 -551 2 -589t20 -60q17 -22 65 -32q48 -11 48 -27q0 -29 -45 -29l-168 4q-45 2 -91 -2t-53 -4q-55 0 -55 24q0 18 45 30t60 37q14 23 16 49t8 544q0 25 -16 24
q-95 7 -353 7q-18 0 -18 -29q-4 -133 2 -469q2 -92 20 -118t72 -40q55 -14 56 -30q0 -13 -16 -21t-34 -8l-155 6l-189 -8q-45 0 -45 22z" />
    <glyph glyph-name="f_f_i" unicode="ffi" horiz-adv-x="1593" 
d="M362 799h351q18 0 18 16q0 213 94 385q4 10 -4 23q-78 96 -235 96q-92 0 -162 -98q-82 -104 -82 -398q0 -24 20 -24zM713 707h-353q-20 0 -20 -48q0 -436 6 -486t28 -77t74 -42t54 -36q0 -27 -60 -26l-192 8l-154 -10q-47 0 -47 22q1 22 55 38t68 38q14 23 18 98v490
q0 18 -22 22l-74 2q-23 0 -22 37q0 5 43 29t61 36t19 29q0 150 60 282t198 216q121 80 253 80t207 -78q6 -10 17 0q55 57 137 94t160 37q150 0 215 -92q16 -24 16 -52t-40 -62t-64 -33q-8 0 -78 63q-68 72 -151 73t-138 -61q-102 -119 -102 -475q0 -20 16 -20l197 -2
q166 -2 232 19q66 22 77 22q10 0 10 -326t4 -374q3 -48 23 -61t59 -25t46 -19q7 -6 7 -19q0 -23 -47 -22l-159 6l-174 -8q-39 0 -39 24q0 16 43 32t59 32t18 41q10 160 11 549q0 8 -7 17t-14 11q-47 6 -164 8q-175 4 -188 -5q-14 -9 -14 -21q0 -505 3 -538q3 -34 14 -52
t36 -26t71 -18t46 -34q0 -23 -52 -22l-196 8l-174 -8q-45 0 -45 22t54 36q54 13 72 39q17 26 17 99l4 500q0 6 -7 12t-11 7z" />
    <glyph glyph-name="f_f_l" unicode="ffl" horiz-adv-x="1593" 
d="M1088 1362q-86 0 -136 -88q-72 -121 -71 -457q1 -16 19 -16h35l85 -2h103l122 4q20 4 21 24q-6 60 -6 340q-2 106 -25 129q-61 66 -147 66zM365 799h356q10 0 10 16q0 221 90 389q3 3 -4 21q-78 96 -235 96q-92 0 -160 -96q-80 -102 -80 -402q0 -24 23 -24zM584 18
q0 23 56 36t73 38q18 25 18 96v502q0 17 -10 17h-363q-18 0 -18 -48l6 -499q0 -45 23 -68t77 -38t54 -36q0 -27 -58 -26l-192 8l-152 -8q-45 0 -45 20t51 34t67 40q15 25 19 100v490q0 18 -22 22t-68 13q-16 0 -16 34q0 6 37 23q37 18 55 30t17 29q0 147 62 287t200 223
q111 74 237 74q58 0 118 -20t91 -54q10 -10 14 0q123 123 261 123q63 0 104 -22t51 -15q43 31 72 31q14 0 14 -33l-2 -131q-4 -262 -4 -685t2 -461q3 -38 21 -60t65 -32q47 -11 47 -27q0 -29 -45 -29l-168 4q-43 2 -90 -2t-53 -4q-55 0 -55 22t45 36t60 36q16 24 18 48
t8 544q0 25 -11 25q-67 2 -175 2t-187 2q-12 0 -12 -27l2 -510q0 -64 19 -84t108 -39q43 -12 43 -35t-49 -22l-201 8l-170 -8q-18 0 -34 8q-15 8 -15 18z" />
    <glyph glyph-name=".notdef" horiz-adv-x="1024" 
d="M102 1239v-1044l349 522zM164 102h696l-348 523zM573 717l349 -522v1044zM512 809l348 522h-696zM0 0v1434h1024v-1434h-1024z" />
    <glyph glyph-name=".null" horiz-adv-x="0" 
 />
    <glyph glyph-name="nonmarkingreturn" horiz-adv-x="681" 
 />
    <glyph glyph-name="space" unicode=" " horiz-adv-x="407" 
 />
    <glyph glyph-name="exclam" unicode="!" horiz-adv-x="595" 
d="M201 105q0 63 44 97t95 34t83 -42t32 -92t-36 -89q-36 -38 -88 -38t-91 33t-39 97zM340 1253q47 0 76 -52t26 -108t-35 -335q-32 -278 -34 -296q-1 -18 -13 -42t-27 -25q-15 0 -28 24q-12 24 -13 47t-32 273t-38 340t32 132t86 42z" />
    <glyph glyph-name="quotedbl" unicode="&#x22;" horiz-adv-x="618" 
d="M512 1425q27 0 27 -43q0 -145 -54 -366q-10 -68 -43 -68q-13 0 -18 20l-10 33q-19 201 -29 258t-10 77t31 36q88 53 106 53zM212 1411q20 0 28 -15t8 -28q0 -80 -55 -362q-20 -61 -46 -62q-20 0 -26 51q-35 295 -35 316t14 28q92 72 112 72z" />
    <glyph glyph-name="numbersign" unicode="#" horiz-adv-x="995" 
d="M631 780q6 23 -6 21l-205 -6q-12 0 -17 -17l-55 -219q-2 -4 2 -11t10 -5l201 8q12 0 17 16zM480 35q-14 0 -24 6q-9 6 -5 16l88 351q4 18 -9 18l-198 -8q-4 0 -12 -7t-9 -10l-94 -354q-6 -23 -47 -22q-10 0 -22 10q-11 10 -9 16l88 344q6 20 -12 21l-145 -4q-4 0 -10 14
q-5 14 -5 18q18 88 45 88l150 9q16 0 18 14l56 221q0 16 -9 17l-170 -5l-2 9q0 8 -1 21t1 34q16 55 35 59l166 9q2 0 7 4t5 6l82 317q12 23 62 23q4 0 12 -7t8 -12l-80 -315q0 -12 6 -12l211 6q8 0 13 16l82 322q6 20 63 20q7 0 11 -9t3 -19l-79 -310q-4 -18 4 -18l155 2
q14 -35 6 -53q-18 -70 -32 -70l-156 -6q-6 0 -12 -21l-56 -219q-2 -4 0 -9t7 -3l165 6q7 0 13 -26q6 -27 -14 -63t-33 -36l-162 -6q-10 0 -12 -14l-93 -351q-2 -12 -19 -20t-31 -8z" />
    <glyph glyph-name="dollar" unicode="$" horiz-adv-x="995" 
d="M574 1423q12 0 30 -6t19 -14l-13 -121q0 -12 8 -12q49 -6 177 -43q16 -4 34 -64q29 -168 -4 -170q-20 0 -34 37q-47 129 -181 172q-4 2 -9 -3t-5 -11l-45 -457q0 -10 8 -18q182 -86 256 -172t74 -205q0 -147 -150 -260q-33 -28 -111 -50t-145 -28q-14 0 -14 -16l-20 -154
q-1 -6 -15 -11q-28 -10 -49 9l16 158q0 14 -8 14q-63 6 -101 16t-126 37q-31 2 -39 49q-6 23 -18 105t-13 88q0 35 19 35q27 0 75 -88q78 -143 207 -177q12 -2 13 9l51 485q0 14 -6 18q-135 66 -217 152t-83 213t95 219q100 106 285 111q6 0 10 10l16 137q0 6 13 6zM295 981
q0 -141 178 -223q12 -4 12 8l47 424q0 16 -10 16q-100 -4 -164 -63t-63 -162zM526 528l-47 -458q0 -10 8 -11q105 13 177 73t72 150t-46 143q-45 54 -151 114q-13 -1 -13 -11z" />
    <glyph glyph-name="percent" unicode="%" horiz-adv-x="1484" 
d="M1120 25q55 0 87 61q48 92 48 250q0 159 -62 255q-40 62 -96 62t-89 -57q-50 -86 -51 -245q-1 -160 68 -265q40 -61 95 -61zM817 330q0 154 76 266t215 113q139 0 214 -115q75 -116 75 -256t-75 -254t-220 -113q-96 -1 -163 57q-122 104 -122 302zM1112 1290q15 27 36 27
q21 -1 33 -19q13 -18 11 -20q-524 -838 -844 -1337q-4 -4 -19 -2t-22 6q-27 25 -10 51q129 207 406 645q278 438 409 649zM225 940q0 -164 67 -268q40 -62 89 -62q92 0 119 118q22 95 22 166t-7 119q-33 226 -155 226q-41 0 -77 -40t-53 -169q-5 -45 -5 -90zM84 923
q0 149 76 259t215 110t214 -114t75 -254t-76 -254t-218 -113q-142 0 -214 109t-72 257z" />
    <glyph glyph-name="ampersand" unicode="&#x26;" horiz-adv-x="1576" 
d="M541 98q77 0 159 54t138 129q14 20 -9 47q-70 96 -193 215q-124 119 -169 143q-20 14 -45 -4q-176 -133 -176 -305q0 -121 91 -200t204 -79zM395 1040q0 -74 48 -136t114 -101q13 -8 31 3t54 53t36 124q0 83 -39 147t-119 66q-39 0 -82 -41t-43 -115zM1221 786
q0 26 -88 41q-41 6 -41 29t51 23q152 0 247 12t105 12q45 0 45 -20q0 -21 -58 -37t-109 -54q-49 -38 -101 -96t-146 -170q-94 -113 -120 -143q-10 -13 2 -29q50 -65 108 -155q74 -106 225 -111q82 0 154 45q20 12 23 -8q0 -29 -47 -74t-126 -67t-149 -20q-70 1 -122 23
t-85 81q-76 137 -96 168l-2 2q-8 2 -10 0q-135 -160 -238 -222q-98 -55 -194 -55q-150 1 -258 105q-107 104 -107 264t188 307q82 61 123 86q10 4 2 12q-137 109 -137 235t96 210q94 75 202 74t184 -82t77 -175q0 -94 -112 -168q-57 -38 -91 -55q-6 -6 0 -12
q62 -39 166 -139t172 -183q12 -18 31 0q76 76 211 283q25 37 25 63z" />
    <glyph glyph-name="quotesingle" unicode="'" horiz-adv-x="356" 
d="M231 1419q29 0 29 -43q2 -102 -53 -364q-20 -63 -47 -64q-10 0 -20 18t-13 38q-20 229 -39 309q0 19 16 35t60 44t67 27z" />
    <glyph glyph-name="parenleft" unicode="(" horiz-adv-x="698" 
d="M264 578q0 -182 18 -312t67 -244q50 -116 92 -182t141 -207q18 -23 4 -41q-28 -22 -50 -22t-57 37q-326 365 -325 925q0 299 107 552q108 253 247 397q37 37 57 37q19 0 35 -10t16 -22q0 -13 -20 -34q-150 -134 -241 -374t-91 -500z" />
    <glyph glyph-name="parenright" unicode=")" horiz-adv-x="698" 
d="M432 492q0 428 -150 695q-65 114 -178 255q-14 24 7 44t51 20t61 -40q315 -383 316 -911q-1 -297 -107 -545t-246 -393q-38 -39 -64 -39t-34 23q-6 10 16 39q147 152 238 383q90 231 90 469z" />
    <glyph glyph-name="asterisk" unicode="*" horiz-adv-x="669" 
d="M387 808q0 -75 -25 -79q-26 0 -40 49t-27 160q-4 12 -12 10q-211 -124 -211 -71q0 25 22 38q31 25 137 99q6 14 -2 18q-88 43 -143 84q-25 16 -25 35q0 31 48 14q12 -4 163 -61q6 0 11 10q-8 160 -3 190t18 33q13 4 32 -28q4 -10 41 -187q4 -10 14 -2q92 61 147 88
q49 14 50 -10q0 -14 -23 -37q-39 -45 -133 -108q-8 -8 2 -17q189 -108 186 -131q0 -29 -60 -15t-159 64q-2 2 -6 -3t-3 -37t1 -106z" />
    <glyph glyph-name="plus" unicode="+" horiz-adv-x="1277" 
d="M580 1022q0 10 34 19q87 23 93 -13l-7 -444q0 -12 13 -13l424 4q4 0 10 -10q6 -9 6 -31t-9 -44t-20 -21l-411 -6q-12 0 -13 -19l-4 -442q0 -12 -26 -22t-58 -11q-30 -1 -30 23l-2 448q0 23 -13 23l-401 2q-43 0 -43 51q0 20 9 38t22 19l413 -2q12 0 13 15v436z" />
    <glyph glyph-name="comma" unicode="," horiz-adv-x="419" 
d="M88 129q0 51 30 75t79 25q47 0 95 -52t48 -138q0 -119 -90 -187t-136 -69q-46 0 -46 18q0 16 36 33q121 72 121 150q0 45 -59 65q-78 29 -78 80z" />
    <glyph glyph-name="hyphen" unicode="-" horiz-adv-x="598" 
d="M520 484q0 -18 -10 -52q-10 -33 -27 -35q-57 -6 -379 -39q-32 -4 -32 42q0 24 12 48t22 25q100 14 398 45q4 0 10 -8t6 -26z" />
    <glyph glyph-name="period" unicode="." horiz-adv-x="419" 
d="M220 211q48 0 76 -39t28 -84t-33 -80t-79 -35t-81 30t-35 88t38 89t86 31z" />
    <glyph glyph-name="slash" unicode="/" horiz-adv-x="825" 
d="M682 1350q19 0 42 -10t17 -29q-98 -254 -286 -724q-189 -471 -235 -589t-55 -126t-35 -8q-26 1 -34 18q-8 16 -6 20q417 1054 557 1417q16 31 35 31z" />
    <glyph glyph-name="zero" unicode="0" horiz-adv-x="995" 
d="M739 641q0 225 -50 369q-49 144 -105 183q-56 38 -114 38t-116 -78q-104 -158 -104 -506q0 -202 59 -392q31 -99 87 -161t130 -63q31 0 69 28t64 70q80 154 80 512zM522 1292q108 0 191 -66q136 -108 187 -378q19 -100 20 -195q0 -231 -69 -395t-163 -225t-196 -59
t-188 66q-85 64 -132 164q-96 203 -95 426q1 224 71 382t168 219t206 61z" />
    <glyph glyph-name="one" unicode="1" horiz-adv-x="995" 
d="M219 12q0 22 72 38q71 17 99 43t39 117q11 90 11 466t-7 414t-46 45q-12 2 -41 6t-59 12q-31 8 -31 27q0 8 13 18t107 30t136 42l78 39q10 2 16 -5q6 -6 6 -12t-4 -78t-3 -401t2 -503t21 -206t94 -48q72 -17 73 -42q0 -23 -50 -22l-198 8l-277 -10q-51 0 -51 22z" />
    <glyph glyph-name="two" unicode="2" horiz-adv-x="995" 
d="M633 897q0 127 -67 189t-169 63q-154 0 -252 -127q-33 -43 -40 -43t-16 11t-9 30t26 55q141 217 369 217q137 0 233 -102t95 -256q0 -154 -162 -348q-299 -346 -371 -426q-8 -8 4 -17q66 -6 243 -6t225 8q48 7 78 23t64 54t44 38q38 0 -16 -114q-32 -66 -42 -136
q-4 -18 -30 -18l-521 8q-132 0 -188 -5t-61 21q-6 18 26 47q90 82 326 377q211 270 211 457z" />
    <glyph glyph-name="three" unicode="3" horiz-adv-x="995" 
d="M484 1292q138 0 214 -84t76 -176t-64 -160t-128 -112q-10 -14 4 -21q174 -39 248 -129q57 -72 57 -192t-81 -240q-81 -118 -220 -200t-297 -82q-86 0 -147 29q-60 30 -60 73q0 22 22 54t44 32t55 -29q83 -73 193 -73t181 56t103 134q33 78 33 147q-1 143 -69 219t-189 74
q-80 0 -160 -34q-8 -2 -13 3t-3 13q-1 29 29 51q30 23 120 69q178 91 178 249q0 84 -58 143t-140 59q-131 0 -226 -114q-29 -37 -45 -37t-16 23t33 71t80 88q108 96 246 96z" />
    <glyph glyph-name="four" unicode="4" horiz-adv-x="995" 
d="M420 14q0 24 66 37q66 12 90 46q22 34 22 114q6 123 6 155t-15 34t-247 2q-232 -1 -280 -6t-48 16q0 14 56 90l657 899q20 29 39 29h22q29 0 29 -17q0 -8 -10 -22l-649 -877q-8 -12 4 -16q61 -6 237 -6t197 2q10 10 10 14l2 391q0 33 78 55q43 12 68 13q18 -1 18 -54
v-403q0 -16 10 -16l185 4q12 0 12 -18t-10 -47q-10 -28 -23 -34l-162 2q-2 0 -7 -5t-5 -9v-168q4 -104 22 -130t74 -38q58 -12 58 -36t-47 -23l-193 8l-213 -10q-53 0 -53 24z" />
    <glyph glyph-name="five" unicode="5" horiz-adv-x="995" 
d="M237 -117q-87 0 -85 19q0 6 14 22t27 19q209 17 357 123t148 282q0 96 -55 175t-151 122q-168 72 -330 100q-6 3 -16 21t-11 43q0 25 36 145t67 190q31 71 45 73q41 16 218 45t273 28q2 0 9 -8t8 -10q0 -56 -41 -108t-64 -54q-379 -27 -394 -27t-20 -18
q-39 -113 -43 -133t15 -25q96 -20 222 -67t185 -84q103 -61 159 -156t56 -199q0 -207 -182 -358q-92 -76 -226 -118t-221 -42z" />
    <glyph glyph-name="six" unicode="6" horiz-adv-x="995" 
d="M639 748q137 0 213 -94t76 -228q0 -231 -185 -365q-115 -88 -251 -88q-188 0 -299 132t-111 362q0 231 146 449t358 352t327 135q41 0 41 -23q0 -12 -41 -32q-179 -72 -333 -210t-239 -315q-85 -176 -85 -346t83 -297t220 -127q66 0 111 33q104 78 104 250q0 135 -66 209
q-67 74 -169 73q-59 0 -150 -45q-4 -3 -11 3t-7 20q-1 14 31 49t108 66q66 37 129 37z" />
    <glyph glyph-name="seven" unicode="7" horiz-adv-x="995" 
d="M458 1120q-192 0 -233 -8q-39 -2 -63 -24t-64 -82q-25 -45 -43 -45t-18 23q0 24 16 66q17 42 25 70t12 46q4 17 7 39q3 23 6 41t17 30t40 1q28 -11 244 -12t411 7l107 4q31 0 34 -12q0 -12 -20 -42t-172 -331t-304 -619t-161 -343q-11 -25 -29 -25t-33 13t-15 27t22 58
q23 43 240 472q218 429 304 618q2 2 -2 8t-6 6q-130 14 -322 14z" />
    <glyph glyph-name="eight" unicode="8" horiz-adv-x="995" 
d="M491 1274q-77 0 -137 -56t-61 -154q0 -98 60 -167q60 -70 182 -154q14 -10 24 -4q63 49 92 95q59 102 60 204q0 31 -19 82q-18 50 -71 102t-130 52zM509 31q97 0 150 63q53 62 53 146t-41 152q-42 68 -87 108q-137 119 -152 104q-64 -43 -114 -133t-50 -176t66 -180
q78 -84 175 -84zM513 1329q151 0 250 -86t99 -210t-112 -218q-20 -18 -140 -98q-6 -2 -7 -9t3 -10q272 -203 272 -372t-147 -275q-102 -78 -265 -78q-163 -1 -259 95t-96 221t143 243q102 84 131 103q4 4 -2 12q-104 74 -172 158t-68 196q0 145 111 234q108 94 259 94z" />
    <glyph glyph-name="nine" unicode="9" horiz-adv-x="995" 
d="M518 1292q188 0 290 -145t103 -350q0 -205 -146 -448t-357 -374q-145 -92 -246 -92q-12 0 -26 7q-13 6 -13 16t29 20q203 100 352 281q100 115 164 277t63 291q0 131 -36 235q-71 205 -244 207q-93 0 -155 -80t-63 -179q0 -145 71 -223t190 -78q45 0 120 35q23 6 23 -14
q0 -33 -44 -71q-45 -37 -105 -59t-101 -22q-135 0 -219 96t-84 218q0 272 221 397q94 55 213 55z" />
    <glyph glyph-name="colon" unicode=":" horiz-adv-x="505" 
d="M264 209q47 0 74 -38t27 -82t-33 -78t-78 -34t-80 29t-35 87t39 87t86 29zM139 627q0 59 39 87t86 27q47 0 74 -38q27 -37 27 -81t-33 -78t-78 -34t-80 29t-35 88z" />
    <glyph glyph-name="semicolon" unicode=";" horiz-adv-x="505" 
d="M129 136q-1 36 31 60t79 25q47 0 93 -50t47 -134q0 -85 -50 -147q-51 -62 -101 -85t-82 -23t-31 19q0 18 26 33q119 68 119 150q0 39 -45 55q-86 21 -86 97zM139 622q0 58 39 88t86 29q47 0 74 -38q27 -37 27 -81t-33 -78t-77 -34t-80 28t-36 86z" />
    <glyph glyph-name="less" unicode="&#x3c;" horiz-adv-x="1200" 
d="M1014 144q0 -40 -37 -74q-12 -12 -31 -2l-674 374q-86 47 -86 66q0 8 18 36t60 50l662 371q27 16 41 4q70 -70 34 -90l-632 -342q-19 -19 -2 -23l643 -350q4 -6 4 -20z" />
    <glyph glyph-name="equal" unicode="=" horiz-adv-x="1277" 
d="M1153 352q0 -76 -29 -76l-972 3q-12 0 -20 15t-9 34q0 19 9 39t22 20l976 -2q6 0 14 -10t9 -23zM1153 748q0 -90 -20 -91h-983q-27 0 -27 28q0 27 9 53t22 26l979 8q20 0 20 -24z" />
    <glyph glyph-name="greater" unicode="&#x3e;" horiz-adv-x="1200" 
d="M1010 528q0 -14 -15 -32q-20 -33 -63 -56l-662 -372q-25 -14 -41 -2q-25 22 -37 48t5 42q88 47 309 167t330 179q10 10 -5 16q-422 229 -645 352q-10 16 9 60q19 45 43 45q10 0 12 -2q289 -162 676 -383q84 -48 84 -62z" />
    <glyph glyph-name="question" unicode="?" horiz-adv-x="731" 
d="M360 221q51 0 80 -40t29 -87t-35 -84t-84 -37t-86 32t-37 92t41 92t92 32zM283 1229q78 0 196 -101q37 -30 99 -118t63 -174q0 -129 -76 -209q-45 -31 -119 -71t-86 -52q-14 -12 -14 -68q-4 -53 -33 -53q-20 0 -34 57q-27 113 -27 161t43 80t146 77q103 44 103 120
t-30 122q-31 46 -129 47l-96 -9q-29 0 -58 37q-58 74 -5 129q24 25 57 25z" />
    <glyph glyph-name="at" unicode="@" horiz-adv-x="1789" 
d="M1067 784q57 0 88 -34q12 -8 17 4t14 31q8 19 13 33t7 18q14 21 45 19q31 -1 54 -17q6 -2 9 -12t1 -15q-190 -459 -217 -616q-8 -45 8 -65t65 -19q154 0 287 133t133 338q0 248 -167 395q-166 147 -410 147t-421 -120t-265 -306t-88 -414t147 -408q74 -91 200 -147
t287 -57q276 0 500 199q8 8 20 8q12 -1 13 -25q0 -24 -27 -55q-94 -106 -248 -161q-296 -106 -574 -12q-278 93 -390 350q-61 142 -62 327q0 250 130 457q130 206 334 320q206 114 436 114q324 0 498 -178t175 -432q0 -217 -172 -386t-426 -169q-67 0 -103 20q-36 21 -37 41
t17 74l56 162q4 6 -4 10l-11 -4q-299 -303 -432 -303q-31 -1 -51 25t-20 61q-4 129 194 370q92 113 206 206t171 93zM1016 686q-66 0 -152 -94t-144 -200t-58 -179q0 -45 30 -45q58 0 154 86t166 183q132 182 100 214q-30 35 -96 35z" />
    <glyph glyph-name="A" unicode="A" horiz-adv-x="1384" 
d="M496 614q211 0 319 7q2 0 5 6t1 10q-133 399 -159 440q-8 18 -17 0q-141 -377 -160 -448q-4 -14 11 -15zM8 10q0 27 45 41q84 29 116 55t70 111q38 86 211 532q174 445 174 459t32 60q31 46 34 61q23 25 35 25q11 0 27 -46t152 -428q136 -380 210 -560t110 -216
q36 -35 97 -51t61 -37q0 -27 -65 -26l-258 10l-146 -4q-63 0 -63 24t47 34q95 18 88 62q-2 18 -9 64t-110 328q-6 20 -69 20q-279 0 -313 -4t-46 -20q-106 -266 -106 -359q0 -57 100 -88q55 -16 55 -37q0 -27 -57 -26l-162 6l-213 -10q-47 0 -47 20z" />
    <glyph glyph-name="B" unicode="B" horiz-adv-x="1206" 
d="M922 369q0 180 -170 266q-76 39 -184 39t-124 -15q-19 -31 -17 -224q3 -194 10 -242t34 -72q29 -33 72 -51t67 -19q133 0 223 87q89 88 89 231zM852 999q0 125 -79 197t-220 72q-43 0 -88 -17q-18 -10 -25 -32q-12 -98 -12 -455q0 -27 23 -27q77 1 165 15t130 42t74 84
q32 58 32 121zM1024 1014q0 -180 -166 -271q-4 -2 -2 -8t6 -8q252 -113 252 -338q0 -197 -164 -305q-68 -47 -172 -71t-194 -23l-348 8l-132 -2q-59 0 -59 25t51 34q100 18 124 41t30 84q16 114 16 524t-10 460t-32 67q-22 16 -87 25t-65 35t55 26h137l326 14q195 0 289 -59
q73 -44 109 -114t36 -144z" />
    <glyph glyph-name="C" unicode="C" horiz-adv-x="1468" 
d="M883 1354q102 0 241 -33q29 -5 85 -21t71 -18q31 0 31 -61q0 -20 14 -179q2 -31 -8 -49q-9 -18 -23 -18t-32 53q-29 111 -84 154q-143 106 -328 106q-240 0 -390 -171t-151 -410q0 -195 76 -349t224 -235q147 -82 283 -82t230 55q111 57 191 199q33 53 45 53t16 -24
t0 -52t-31 -94t-51 -104q-12 -30 -56 -50t-155 -40t-225 -21q-194 0 -350 75t-232 165q-172 199 -172 471q0 158 72 291t154 200q231 189 555 189z" />
    <glyph glyph-name="D" unicode="D" horiz-adv-x="1546" 
d="M604 1272q-115 0 -138 -14t-26 -29q-8 -49 -8 -389v-297q0 -233 8 -355q6 -72 45 -96q77 -53 193 -53q60 0 170 34q111 34 188 99q211 180 211 512q0 133 -60 263q-59 131 -147 195t-204 97t-232 33zM1446 684q0 -206 -100 -364t-228 -228q-199 -115 -487 -115
q-185 -1 -313 9t-196 10t-67 31q0 25 45 28q102 12 128 51t31 175t5 327t-10 471q-4 104 -22 135t-109 43q-47 8 -47 34t49 26h57l510 18q193 0 339 -61t229 -137q82 -80 134 -206t52 -247z" />
    <glyph glyph-name="E" unicode="E" horiz-adv-x="1153" 
d="M758 1317q144 0 168 4t30 -4t9 -17l4 -194q0 -53 -31 -53q-23 1 -37 63t-46 90q-33 28 -113 39q-80 12 -174 8t-100 -8q-16 -13 -21 -54q-5 -40 -7 -242t0 -224q6 -20 15 -20h133q102 0 142 7t57 25q17 17 35 65t41 48q22 0 16 -66q-7 -66 -7 -97q0 -32 7 -155
q4 -59 -21 -59q-24 1 -42 59t-47 78t-312 19q-17 0 -21 -26t-4 -314q0 -197 60 -215q82 -14 204 -14t176 14q106 27 170 151q29 57 48 58q10 -1 15 -19t2 -36t-34 -112q-31 -95 -45 -114t-31 -18l-100 4q-294 12 -565 12l-232 -10q-61 0 -61 26q1 18 71 36t100 43
q30 26 36 104q16 229 16 563t-3 384q-3 48 -25 75t-85 41t-63 34q0 29 57 29l314 -8h301z" />
    <glyph glyph-name="F" unicode="F" horiz-adv-x="1079" 
d="M958 1047q-26 1 -48 69t-46 92t-72 30q-48 7 -170 8t-150 -3t-32 -26q-8 -98 -8 -453q0 -76 21 -76q270 0 306 3t56 21q19 18 41 70q22 51 41 52q18 0 18 -46l-10 -129l4 -161q0 -47 -30 -47q-17 0 -31 48t-32 66q-36 37 -181 37t-189 -6q-10 0 -16 -25q-4 -59 3 -241
t13 -202q15 -47 132 -71q49 -10 49 -37t-58 -26l-194 6l-244 -12q-57 0 -57 20q0 27 53 40q53 14 81 34t32 34q22 74 22 520t-4 500t-33 83t-88 43t-59 38t57 23l227 -6h267l327 6q8 2 16 -5q8 -8 8 -32q-1 -24 0 -46t4 -68t4 -68t-7 -40t-23 -17z" />
    <glyph glyph-name="G" unicode="G" horiz-adv-x="1482" 
d="M1417 526q0 -18 -38 -30t-54 -24t-19 -20q-4 -7 -12 -30t-8 -248q0 -43 32 -60q32 -16 32 -36t-31 -29q-10 -4 -76 -20t-110 -29q-131 -37 -283 -37q-338 0 -545 187q-211 204 -211 510t232 509q96 85 235 135t301 50t410 -62q8 0 16 -13t8 -33t14 -103q14 -82 15 -126
q0 -44 -27 -44q-18 -1 -42 65t-68 120q-43 54 -131 93t-201 39q-254 0 -406 -178t-151 -416q0 -238 86 -380q86 -144 220 -218t282 -73q31 0 89 12t95 37q12 8 28 47q15 39 15 59q0 176 -7 209t-18 48t-53 31t-103 21q-62 4 -63 35q0 29 62 29l246 -8l184 8q55 0 55 -27z
" />
    <glyph glyph-name="H" unicode="H" horiz-adv-x="1671" 
d="M1073 1300q0 24 64 23l209 -4l186 6q57 0 57 -25q0 -20 -60 -34q-61 -14 -81 -41t-25 -76q-16 -168 -16 -676l8 -303q3 -58 23 -76t94 -39q47 -16 47 -39t-57 -22l-170 6l-240 -12q-51 0 -51 24q-1 24 63 42t84 50q33 54 33 474q0 43 -24 43l-762 2q-7 1 -15 -11t-8 -24
v-375q2 -74 25 -107t84 -51t63 -43q0 -20 -59 -20l-213 8l-203 -8q-61 0 -61 20q0 27 62 43t86 39q22 23 28 84q18 252 18 649l2 207q0 68 -3 116t-21 73t-78 36t-60 39q0 23 60 23l186 -4l195 4q66 0 65 -23q0 -26 -64 -38t-81 -39q-19 -27 -23 -85t-6 -226q-2 -167 2 -181
t8 -16t13 -2l762 6q16 -1 20 33t3 188t-5 209q-3 55 -23 75t-80 38q-60 16 -61 40z" />
    <glyph glyph-name="I" unicode="I" horiz-adv-x="694" 
d="M72 25q0 23 68 37t86 41q20 29 28 127t8 492t-7 433t-18 61t-35 29t-74 17t-50 36t51 25l223 -6l219 6q51 0 52 -25q-1 -26 -49 -34t-72 -20t-37 -38q-12 -24 -13 -30q0 -6 -10 -66t-10 -423q0 -364 5 -458t31 -128t100 -47t73 -40q0 -27 -55 -26l-305 12l-156 -4
q-53 0 -53 29z" />
    <glyph glyph-name="J" unicode="J" horiz-adv-x="675" 
d="M-16 -422q-50 0 -92 26t-42 57q0 32 38 69t62 37q26 0 77 -34t94 -34t78 39q49 51 57 170q12 190 12 642t-7 539t-14 104t-35 37t-84 30t-56 36t55 27l227 -6l215 6q55 0 56 -20q0 -29 -64 -41q-63 -12 -89 -43t-26 -107l-8 -928q-2 -172 -68 -306t-153 -202
q-129 -98 -233 -98z" />
    <glyph glyph-name="K" unicode="K" horiz-adv-x="1398" 
d="M262 717q0 283 -8 430q-2 53 -26 76t-82 38t-58 35q0 27 55 27l201 -6l191 4q55 0 55 -25q0 -20 -58 -32t-77 -35t-23 -79t-5 -240t3 -199q4 -17 11 -17t22 6q60 45 239 219q178 173 230 230q76 84 -23 111q-47 16 -47 30q0 27 53 27l78 -2l303 10q53 0 54 -25
q0 -22 -70 -38t-124 -46q-137 -78 -381 -305q-146 -135 -165 -163q-4 -14 0 -21q33 -41 547 -569q83 -83 146 -98q20 -5 65 -14t45 -28q0 -31 -51 -30l-299 16l-143 -2q-20 0 -32 12q-11 12 -11 26t88 34q6 2 10 9t0 11q-98 125 -443 475q-10 9 -21 23t-18 20t-15 16
q-22 28 -39 27q-18 0 -5 -489q4 -78 113 -105q57 -14 57 -41t-53 -26l-252 6l-199 -6q-18 0 -33 8t-16 18q0 20 70 36q71 16 101 48q30 33 34 121q6 209 6 492z" />
    <glyph glyph-name="L" unicode="L" horiz-adv-x="1150" 
d="M430 686q0 -408 14 -526q2 -20 29 -48t41 -30q66 -10 182 -10t160 6q45 6 82 39q66 66 117 137q27 45 51 45t8 -55q-47 -145 -63 -221q-3 -15 -21 -25t-26 -10t-36 1t-79 3t-155 5t-273 3q-170 0 -260 -4l-90 -6q-59 0 -60 22q-1 29 65 41t97 43t39 94q10 127 10 512
q0 386 -2 440t-22 79t-82 37t-62 37q0 26 62 26l151 -4l268 6q51 0 52 -23q-1 -24 -65 -38t-90 -32t-30 -44q-12 -92 -12 -500z" />
    <glyph glyph-name="M" unicode="M" horiz-adv-x="1820" 
d="M43 23q-1 19 65 37t93 52t40 132t39 430t29 450q0 92 -92 119q-69 20 -95 27t-26 30q0 14 12 18t48 3l274 -4q13 0 28 -45t72 -168q340 -717 381 -772q12 -18 21 -6q402 760 418 804t36 92t25 61q4 13 12 23t13 11l258 6q53 0 53 -24q0 -23 -51 -31t-94 -27
q-63 -25 -64 -158q0 -618 29 -886q8 -68 34 -94t99 -48q55 -12 55 -39t-59 -26l-256 10l-156 -6q-55 0 -55 29q0 23 47 35q74 20 91 80q15 68 13 421q-2 352 -6 438q-5 24 -16 13q-20 -37 -150 -291q-238 -466 -285 -593q-47 -126 -61 -129q-4 -1 -14 -1q-20 0 -31 39
q-58 203 -231 567q-174 363 -199 418q-12 27 -14 -6q-13 -66 -25 -359t-8 -403t26 -140t99 -55q55 -14 55 -39t-55 -24l-205 6l-164 -6q-53 0 -53 29z" />
    <glyph glyph-name="N" unicode="N" horiz-adv-x="1579" 
d="M39 18q0 22 50 39q50 15 72 27q55 29 62 162q39 631 39 768t-14 157q-37 45 -65 59q-29 14 -65 24t-42 12q-45 12 -45 32q0 25 67 25l250 -6q16 0 43 -27q82 -98 170 -211t672 -749q8 -8 14 -1t8 25t2 344t-6 400t-31 104q-26 31 -92 50t-65 48q0 18 53 19l176 -2l193 8
q47 0 47 -22q0 -27 -49 -41q-72 -16 -100 -44t-31 -106q-23 -406 -23 -829l14 -273q0 -43 -28 -43q-20 0 -48 22t-43 41t-80 105t-374 442q-309 355 -405 470q-7 8 -15 6q-8 -1 -8 -13t-5 -79t-5 -164t-1 -241t-2 -216t3 -138t28 -98q24 -31 88 -47q62 -16 62 -42t-66 -25
l-219 10l-133 -4q-53 0 -53 22z" />
    <glyph glyph-name="O" unicode="O" horiz-adv-x="1599" 
d="M745 1286q-69 0 -151 -33q-292 -118 -293 -565q0 -244 160 -450t393 -205q180 0 270 98q72 63 123 189t51 294q0 166 -66 318q-110 248 -330 324q-88 30 -157 30zM788 1354q297 0 504 -195t207 -483q0 -200 -83 -352t-208 -242q-170 -119 -403 -119q-156 1 -297 63
t-236 171q-170 188 -170 462q0 338 267 551q77 60 195 102t224 42z" />
    <glyph glyph-name="P" unicode="P" horiz-adv-x="1116" 
d="M662 528q-70 0 -107 14t-37 33q0 18 25 19h51q96 0 178 85t82 237t-96 254q-96 103 -238 104q-31 0 -54 -16t-26 -82l-4 -533l4 -410q2 -98 22 -128t88 -48t68 -43t-67 -24l-215 8l-207 -8q-57 0 -57 28q0 20 41 33q83 18 111 51t32 101q10 165 10 453t-3 404t-5 129
t-12 31t-34 26t-77 16t-53 28q0 25 47 29h68l342 16q256 0 379 -118t122 -281q0 -195 -143 -318q-106 -90 -235 -90z" />
    <glyph glyph-name="Q" unicode="Q" horiz-adv-x="1597" 
d="M739 1282q-131 0 -231 -80q-207 -164 -207 -532q0 -242 158 -434q61 -80 178 -140t188 -59q150 0 256 69q99 70 159 214t60 294t-56 291t-159 236q-63 63 -161 102t-185 39zM811 1354q281 0 483 -197t203 -495q0 -384 -353 -598q-85 -52 -155 -74q-16 -6 -4 -21
q59 -77 261 -203t351 -126q33 0 142 20q27 4 26 -14q0 -23 -30 -45q-88 -70 -215 -70q-215 0 -451 154q-96 57 -295 211q-109 84 -231 122q-197 62 -319 240t-122 378t77 346t202 237q190 135 430 135z" />
    <glyph glyph-name="R" unicode="R" horiz-adv-x="1292" 
d="M463 674q81 0 155 18t113 43t81 91t42 132q0 64 -26 125q-51 119 -160 159q-57 22 -117 22t-78 -8q-17 -8 -27 -26q-10 -17 -12 -48t-5 -240q-3 -208 3 -238t31 -30zM1036 980q0 -79 -48 -164t-146 -133q-27 -13 -38 -22t-5 -28q21 -47 127 -209t189 -257t202 -120
q12 -2 22 -12q11 -9 11 -19t-32 -24t-107 -14t-153 37q-78 38 -122 96q-104 143 -258 385q-57 86 -82 102q-6 6 -54 16q-116 24 -116 -14q-6 -119 8 -414q4 -66 28 -94t84 -42q60 -15 60 -36q0 -27 -49 -26l-264 12l-166 -8q-53 0 -53 28q0 14 49 30t71 28q53 25 58 92
q12 190 12 528t-9 424t-29 102t-80 30q-62 15 -62 39t55 24h115l332 10q229 0 334 -86q52 -43 84 -113t32 -148z" />
    <glyph glyph-name="S" unicode="S" horiz-adv-x="968" 
d="M836 1057q-38 0 -52 46t-46 89t-52 55q-61 47 -154 47t-160 -68t-67 -171q0 -66 45 -143q24 -41 137 -118q23 -15 133 -89t181 -162q72 -88 71 -215q0 -80 -44 -159q-78 -140 -253 -183q-80 -20 -141 -20t-146 14q-85 16 -130 38q-14 8 -31 33q-16 25 -18 43
q-1 18 -15 88q-14 72 -14 86t11 30t18 17q23 0 75 -116q37 -78 118 -121t149 -43q106 -1 177 69t70 179q0 73 -53 147t-201 168t-223 188q-76 94 -76 231t113 236q110 101 303 101q86 0 163 -18t83 -20t14 -18t8 -20l21 -166q0 -55 -14 -55z" />
    <glyph glyph-name="T" unicode="T" horiz-adv-x="1366" 
d="M451 -14q-61 0 -62 24q0 10 12 20t27 15q102 23 126 61t28 160q14 424 14 697v243q0 27 -16 27q-68 10 -254 10q-111 0 -152 -47q-20 -16 -48 -71t-37 -65t-21 -11q-20 0 -21 47q0 10 20 105q19 95 19 165q0 10 10 22t18 11t16 -13q9 -12 20 -20q37 -37 69 -39
q106 -12 443 -12t505 4q94 6 140 37q21 12 31 12t10 -16t-17 -68t-33 -197q-2 -14 -12 -26t-22 -12q-20 -1 -28 71t-39 92q-29 20 -91 24t-184 2q-122 -1 -134 -4t-18 -13t-6 -15v-501q0 -432 8 -507t32 -101t98 -42t73 -41q0 -25 -57 -24l-234 10q-61 0 -145 -7t-88 -7z
" />
    <glyph glyph-name="U" unicode="U" horiz-adv-x="1560" 
d="M1524 1300q0 -22 -45 -38q-70 -20 -101 -58q-30 -38 -32 -110q-4 -167 -19 -443q-14 -483 -256 -618q-117 -66 -267 -66t-251 39q-100 39 -147 82q-88 84 -126 217t-38 449t-9 422q-6 66 -110 88q-47 11 -47 35t59 24l211 -6l199 4q63 0 63 -25q0 -24 -60 -36t-89 -36
t-37 -79t-8 -574q0 -159 30 -243t84 -148q43 -47 130 -80t167 -32q123 0 236 68t147 218q45 200 45 440t-6 320t-30 107q-25 27 -107 45q-16 4 -30 15t-13 22q0 20 47 20l174 -6l185 4q51 1 51 -21z" />
    <glyph glyph-name="V" unicode="V" horiz-adv-x="1343" 
d="M653 -43q-10 0 -20 11q-9 11 -25 88t-94 274q-174 465 -295 755q-31 80 -69 121q-40 40 -96 58t-56 36q0 27 61 27l215 -10l203 4q49 0 49 -27q0 -28 -50 -36t-75 -26t-23 -34q2 -18 3 -37q27 -79 151 -401t179 -455q14 -14 20 -2q7 19 69 165t144 342t110 260t28 94
q2 48 -54 74q-20 10 -62 22t-42 36t59 25l164 -4l184 8q59 0 60 -27q0 -22 -60 -36q-59 -14 -99 -52t-69 -101q-29 -62 -98 -206t-204 -469q-134 -325 -165 -430q-16 -47 -43 -47z" />
    <glyph glyph-name="W" unicode="W" horiz-adv-x="2021" 
d="M2052 1299q0 -23 -56 -35t-94 -45t-94 -142q-55 -109 -109 -214t-169 -361q-147 -338 -207 -484q-5 -16 -23 -31t-33 -15t-29 44q-14 45 -48 130q-35 85 -92 211t-78 175q-10 14 -16 5q-199 -416 -238 -531q-6 -16 -22 -32t-25 -15q-20 0 -37 39q-59 166 -127 326
q-223 545 -342 774q-8 14 -32 65t-53 69q-29 19 -79 32q-53 7 -53 36q0 23 53 23l219 -6l172 6q51 0 52 -25q0 -23 -56 -38q-84 -23 -63 -82q197 -483 401 -922q6 -11 17 -2q53 86 176 362q6 14 -2 29q-220 520 -266 572q-24 27 -79 42t-55 37t60 23l168 -2q55 0 125 2l69 4
q51 0 51 -23q0 -30 -56 -40t-68 -28t14 -78q25 -59 145 -327q4 -12 17 0q63 127 129 281q33 86 19 114t-83 44q-16 4 -30 14q-13 10 -13 16q0 25 59 25l144 -4l168 4q45 0 45 -23q0 -22 -56 -36t-88 -42q-31 -28 -73 -106q-68 -115 -195 -364q-6 -20 6 -35
q133 -315 205 -447q8 -25 23 0q119 254 374 836q31 70 18 104q-14 34 -72 52t-58 36q0 25 53 25l139 -4l195 6q53 0 53 -24z" />
    <glyph glyph-name="X" unicode="X" horiz-adv-x="1421" 
d="M-14 12q0 33 72 46q72 14 139 54q66 40 106 85q164 180 326 403q12 18 3 40t-130 209t-194 287t-206 130q-55 12 -55 37t59 24l248 -10l176 4q49 0 50 -23q0 -23 -48 -34q-72 -20 -38 -78q49 -86 141 -232t112 -165q20 -20 25 -9q52 58 152 194t125 183t5 67t-78 34
q-56 12 -56 38t59 25l182 -4l215 6q18 0 34 -7t13 -16q0 -25 -45 -36q-82 -16 -138 -50t-114 -102q-238 -279 -317 -389q-4 -10 2 -29t131 -205t174 -256q51 -67 73 -91q58 -64 173 -91q49 -12 49 -38t-61 -25l-287 12l-170 -8q-51 0 -51 24t54 39q54 13 73 27t4 35
q-41 73 -151 243t-126 186t-22 7q-260 -318 -281 -410q-8 -39 8 -54q17 -15 65 -31t48 -38q0 -27 -51 -26l-211 6l-213 -10q-53 0 -53 22z" />
    <glyph glyph-name="Y" unicode="Y" horiz-adv-x="1273" 
d="M553 569q0 25 -18 74q-57 123 -196 332t-174 243t-97 47t-62 38t55 24l234 -10l156 4q45 0 45 -25q0 -24 -48 -36t-52 -34t24 -61q45 -86 268 -448q2 -4 10 -3t11 7q53 78 264 422q31 55 17 79t-68 37q-52 13 -52 41q0 18 48 19l133 -2l227 8q43 0 43 -20t-53 -37
q-119 -31 -224 -160q-57 -72 -160 -232t-112 -169q-51 -74 -51 -125q0 -336 12 -435q6 -35 35 -55q30 -20 98 -38t68 -40q0 -23 -62 -22l-178 8l-286 -12q-51 0 -52 22q0 27 58 37q129 29 133 98q6 84 6 424z" />
    <glyph glyph-name="Z" unicode="Z" horiz-adv-x="1269" 
d="M100 -2q-12 0 -23 8t-11 18t10 26q10 15 37 50q27 34 61 82t334 500q298 452 320 492q22 38 19 46t-11 11q-100 10 -286 10t-235 -10q-115 -27 -184 -156q-23 -45 -45 -45q-17 0 -19 22q-1 22 4 38q5 14 21 58l36 99q20 55 26 88t26 33t40 -22t97 -27q167 -6 433 -6
t322 8q56 9 54 -11q0 -20 -19 -41t-185 -257q-177 -263 -372 -571q-196 -308 -205 -320t9 -25q36 -22 282 -22t304 8t100 39t134 155l12 18q8 11 12 15t11 12t18 9q18 0 18 -40t-102 -265q-18 -35 -119 -35l-729 8h-195z" />
    <glyph glyph-name="bracketleft" unicode="[" horiz-adv-x="700" 
d="M287 1473h264q49 0 49 -29q0 -12 -16 -24t-35 -13l-187 -14q-12 -1 -21 -17t-11 -35q-8 -154 -8 -456t14 -1086q2 -98 37 -102q141 -16 175 -16q34 -1 52 -11q20 -10 21 -24q0 -29 -60 -29l-176 -4l-127 -2q-20 0 -27 14q-6 14 -6 58v1505l-2 221q0 47 15 57q6 7 49 7z
" />
    <glyph glyph-name="backslash" unicode="\" horiz-adv-x="743" 
d="M670 -102q2 -6 -5 -21t-51 -14q-25 -4 -32 24q-344 956 -504 1424q-6 23 12 28q35 11 52 11t30 -25q228 -661 498 -1427z" />
    <glyph glyph-name="bracketright" unicode="]" horiz-adv-x="700" 
d="M479 -342q0 -29 -8 -37t-55 -8l-244 -2q-29 0 -49 10q-41 20 -2 45q17 12 39 14t90 8q68 5 92 8t27 42q8 156 8 454t-15 1092q0 102 -38 106q-67 6 -179 19q-59 8 -59 33q0 31 66 33l163 -2l134 2q29 0 28 -72v-1247l2 -438v-60z" />
    <glyph glyph-name="asciicircum" unicode="^" horiz-adv-x="960" 
d="M483 1315q23 0 68 -78l305 -596q16 -31 -1 -48t-46 -29t-41 5l-274 564q-14 20 -23 2l-283 -572q-17 -11 -43 1q-27 12 -41 28t-2 43l308 596q40 84 73 84z" />
    <glyph glyph-name="underscore" unicode="_" horiz-adv-x="1013" 
d="M0 -254h1014v-100h-1014v100z" />
    <glyph glyph-name="grave" unicode="`" 
d="M279 1335q23 0 53 -71q82 -170 125 -299q16 -51 -8 -52q-25 0 -48 33q-102 133 -190 287q-18 31 -18 55t32 35q25 12 54 12z" />
    <glyph glyph-name="a" unicode="a" horiz-adv-x="813" 
d="M366 86q44 0 109 35q9 6 19 30t10 181q0 16 -17 16q-84 0 -211 -61q-40 -29 -40 -83t43 -86t87 -32zM821 102q0 -34 -60 -80t-124 -47q-98 0 -131 103q0 2 -5 6t-7 2q-150 -106 -267 -106q-55 0 -98 57t-43 123t39 114q16 20 82 52q57 19 239 71q59 18 60 37q4 37 4 168
q0 45 -45 91t-107 46t-92 -22q-23 -10 -14 -84q0 -10 -12 -23q-14 -12 -70 -40t-64 -28t-16 10q-8 9 -8 17q0 80 154 181q43 31 101 54t89 23q119 0 184 -96q41 -57 41 -170l-8 -360q1 -43 19 -68q51 -69 141 -4q6 4 12 -4t6 -23z" />
    <glyph glyph-name="b" unicode="b" horiz-adv-x="995" 
d="M760 380q0 66 -26 141t-75 128q-88 88 -223 88q-82 0 -123 -30q-20 -13 -20 -158q0 -144 16 -320q2 -66 41 -102q39 -41 97 -64q59 -23 101 -23t118 71q42 39 68 121t26 148zM930 414q0 -209 -178 -346q-111 -92 -279 -93q-51 1 -137 15t-112 24t-46 0t-32 -10t-13 27
q12 193 12 664t-10 542q-6 33 -49 67t-43 39t10 17t15 14q154 55 180 72q26 16 36 16q9 0 17 -10t8 -16q-18 -406 -18 -527t2 -133t7 -16t7 -2q104 70 245 70t243 -91q135 -114 135 -323z" />
    <glyph glyph-name="c" unicode="c" horiz-adv-x="802" 
d="M532 821q131 0 191 -47q31 -20 31 -52t-30 -62t-46 -30t-46 22q-32 22 -47 33t-19 14t-18 13q-90 66 -180 18q-38 -20 -61 -50q-86 -96 -86 -228t53 -212q39 -62 109 -100q71 -38 157 -38t175 62q17 14 28 10t11 -10q0 -33 -27 -60q-53 -59 -133 -93t-168 -34
q-88 1 -167 45t-130 119q-63 104 -63 240q0 221 198 354q55 39 137 63t131 23z" />
    <glyph glyph-name="d" unicode="d" horiz-adv-x="1021" 
d="M481 760q-92 0 -164 -72q-33 -34 -59 -106t-27 -152q0 -131 83 -242t208 -110q82 0 150 49q9 9 20 58q12 49 13 77q2 197 -7 340q-4 37 -45 78q-80 80 -172 80zM420 -20q-150 0 -256 112q-98 111 -98 281q0 248 217 377q127 77 270 77q81 0 109 -5t32 2q12 21 12 207
t-8 229q-8 37 -96 83q-20 13 -20 19t13 19t21 16q90 11 158 37t76 26t14 -10t4 -23q-18 -195 -18 -677t4 -582t33 -100l110 16q28 0 -1 -42q-13 -19 -21 -22q-127 -20 -185 -40t-68 -20t-20 8q-8 9 -8 18l4 84q0 12 -12 12q-116 -102 -266 -102z" />
    <glyph glyph-name="e" unicode="e" horiz-adv-x="802" 
d="M440 772q-62 0 -115 -40q-54 -40 -83 -111q-2 -7 1 -15t7 -8q90 -4 196 -2t122 12t16 48t-41 77t-103 39zM211 455q0 -131 78 -234q35 -49 97 -81t132 -31q137 0 187 73q16 25 26 25q17 0 17 -25t-15 -49q-104 -154 -297 -153q-166 0 -267 114t-101 293q0 127 64 238
q65 111 181 163q80 37 156 37q125 -1 200 -73t74 -177q0 -10 -11 -22t-27 -12q-373 0 -467 2q-27 0 -27 -88z" />
    <glyph glyph-name="f" unicode="f" horiz-adv-x="602" 
d="M53 12q0 16 43 33q63 18 77 41q13 24 16 144t4 393q0 76 -21 75q-63 0 -86 -4q-8 0 -15 12q-12 21 11 35q113 65 113 90q6 199 51 306q66 157 182 241t218 84t143 -34q66 -55 23 -124q-26 -42 -70 -42q-18 0 -60 41q-72 63 -146 63t-117 -75t-59 -175t-16 -299
q0 -18 12 -18h207l35 2q10 0 19 -27t10 -59q1 -5 -11 -13t-20 -8l-240 6q-2 0 -8 -6t-7 -22t1 -251q2 -234 7 -275q5 -40 29 -60t89 -32t65 -35q0 -24 -53 -23l-170 4l-205 -10q-51 0 -51 22z" />
    <glyph glyph-name="g" unicode="g" horiz-adv-x="851" 
d="M456 -481q106 0 175 37q113 74 112 190q0 143 -137 170q-55 10 -171 10q-115 0 -153 -26t-62 -73q-24 -48 -23 -89q0 -94 71 -156q82 -63 188 -63zM403 786q-27 0 -57 -16q-98 -51 -98 -217q0 -88 55 -172t148 -84q23 0 63 26t61 89q54 169 -24 284q-62 90 -148 90z
M881 -164q0 -190 -193 -315q-135 -88 -292 -88t-259 75q-43 33 -68 83q-26 49 -26 93t13 74q12 30 20 37q8 6 43 36t125 95q6 6 -6 15l-33 14q-117 53 -117 178q0 7 10 17t72 50t80 58q4 4 -8 18q-156 88 -156 261q0 141 125 233q88 66 209 66q76 0 132 -14t80 -18
q24 -5 130 -10t131 -12q18 -4 18 -23t-14 -42t-23 -23q-86 0 -114 2t-33 -4q-4 -6 5 -32t9 -80q0 -170 -107 -253t-231 -83l-71 2q-20 4 -34 -3t-38 -32q-25 -25 -24 -37q0 -34 30 -62t56 -30q24 -2 174 -5t195 -10q46 -7 104 -51q86 -74 86 -180z" />
    <glyph glyph-name="h" unicode="h" horiz-adv-x="1050" 
d="M322 721q0 -12 6 -12h8q132 118 270 118t205 -94q59 -80 59 -221q9 -306 9 -361t18 -71t68 -28t51 -32q0 -27 -55 -26l-162 6l-148 -4q-41 0 -41 24q0 18 41 30t55 33q14 22 15 147l-2 216q0 166 -33 205q-57 68 -166 68t-164 -47q-32 -32 -34 -96q-10 -265 -3 -431
q3 -47 21 -64t61 -29t43 -34q0 -23 -51 -22l-168 4l-155 -6q-47 0 -47 26q0 18 50 34t67 39q17 24 22 79q20 288 20 650t-5 404t-15 55t-53 42q-20 10 -21 41l6 10q172 49 205 72q29 14 40 14t11 -22q-12 -94 -20 -354t-8 -363z" />
    <glyph glyph-name="i" unicode="i" horiz-adv-x="518" 
d="M273 1243q45 0 71 -34q26 -33 25 -69q0 -36 -33 -67t-68 -31t-63 25q-31 35 -31 76t25 74q29 26 74 26zM92 731q0 27 43 36t119 38t82 30t12 -9t6 -13l-12 -405q0 -279 7 -296q7 -18 11 -25t18 -14t17 -9q5 -2 25 -8q70 -17 69 -42q0 -20 -47 -20l-159 6l-174 -8
q-53 0 -54 22q0 18 49 33q74 18 82 57q8 38 8 278t-1 254q-2 14 -84 73q-17 10 -17 22z" />
    <glyph glyph-name="j" unicode="j" horiz-adv-x="481" 
d="M256 1260q43 0 70 -36q26 -36 26 -76t-33 -67q-65 -53 -130 4q-35 31 -35 75t39 79q20 21 63 21zM-24 -557q-26 0 -39 10q-8 12 2 23q98 61 131 102q111 139 110 512q0 483 -8 543q-4 29 -84 72q-20 10 -20 20q0 18 34 31q145 43 178 60q32 18 42 18t16 -10t6 -13
q-10 -330 -10 -741q-6 -238 -85 -372t-198 -218q-49 -37 -75 -37z" />
    <glyph glyph-name="k" unicode="k" horiz-adv-x="980" 
d="M8 14q0 16 47 31q59 13 79 31t30 72q12 54 12 536q0 480 -12 586q0 16 -62 53q-27 20 -26 29q0 16 26 26q19 0 59 14q41 14 71 26q30 10 55 26t32 16t13 -10t4 -16q-18 -88 -18 -515t6 -445t16 -19q10 0 41 26q182 172 217 221q2 6 4 14q5 19 -82 32q-18 2 -18 12t12 24
t23 15h96q76 0 163 12t107 12t21 -14q0 -15 -16 -29t-25 -16q-80 -18 -122 -38q-41 -20 -99 -60q-58 -42 -116 -98t-66 -68t-3 -21q49 -59 163 -184t170 -179t120 -70t65 -38q0 -23 -51 -22l-256 12h-92q-51 0 -51 27q0 18 45 28q59 14 26 58q-8 12 -94 105t-131 148
q-45 54 -56 54t-11 -17q-8 -18 -8 -129q0 -110 8 -148q6 -38 21 -51t58 -25t43 -32q0 -21 -49 -20l-170 4l-172 -8q-47 0 -47 22z" />
    <glyph glyph-name="l" unicode="l" horiz-adv-x="499" 
d="M84 1352q0 20 29 28q27 10 98 32t113 48q4 2 11 -6t7 -14q-18 -154 -18 -712t6 -592t24 -53t72 -33t55 -36q0 -21 -53 -20l-174 6l-180 -6q-57 0 -58 22q0 20 56 32t72 41q17 30 22 116q14 272 14 622l-6 428q0 27 -49 58q-41 29 -41 39z" />
    <glyph glyph-name="m" unicode="m" horiz-adv-x="1560" 
d="M51 15q0 21 48 33t65 38q16 26 22 106t7 398q0 41 -15 55q-72 68 -72 74q0 14 41 37q67 28 116 60q50 32 56 32q25 -8 25 -21l-8 -108q0 -4 3 -10t9 -2q49 41 129 81t164 39q84 0 141 -41q38 -29 56 -57q18 -29 25 -29t75 41t80 45q63 31 123 31q106 0 176 -69
q61 -70 67 -197q4 -53 5 -410q4 -74 88 -96q39 -12 39 -29q0 -23 -58 -22l-147 6l-140 -4q-51 0 -51 27q0 14 46 27t60 36q13 23 13 80l-4 338q0 84 -33 135q-45 74 -145 74t-168 -58q-4 -5 -12 -27t-9 -32v-444q4 -50 20 -70t62 -32q47 -12 47 -30q0 -25 -49 -24l-153 4
l-146 -4q-53 0 -53 24q0 18 46 30t59 32t14 78v403q0 70 -27 105q-47 61 -144 61t-173 -57q-19 -16 -23 -60t-4 -467q0 -70 74 -92q55 -17 55 -37t-55 -20l-162 4l-154 -6q-51 0 -51 21z" />
    <glyph glyph-name="n" unicode="n" horiz-adv-x="1067" 
d="M109 729q0 25 36 41q107 38 141 60t43 22t16 -11t7 -20l-8 -102q0 -6 12 -6q166 113 280 113t184 -82q70 -80 69 -246q0 -287 6 -373q6 -53 76 -72q51 -14 51 -36t-61 -21l-152 4l-141 -4q-47 0 -47 24q0 18 42 34t54 34t16 95t4 349q0 52 -19 94t-42 58q-52 39 -146 39
t-168 -66q-20 -20 -20 -49q0 -468 2 -492t16 -37t56 -25t41 -31q0 -25 -51 -25l-125 2l-170 -6q-53 0 -54 26q0 18 46 32t63 36q16 24 23 102t8 424q0 39 -50 80q-38 27 -38 35z" />
    <glyph glyph-name="o" unicode="o" horiz-adv-x="987" 
d="M473 766q-63 0 -133 -59q-41 -39 -71 -112q-29 -73 -29 -164t30 -185t106 -152q75 -59 143 -59t136 67q37 41 65 122t28 149q0 195 -103 313q-74 80 -172 80zM506 827q168 -1 292 -117t124 -300q0 -117 -56 -213t-123 -140q-113 -82 -256 -82t-270 107q-66 53 -108 144
q-43 91 -43 169q0 199 143 320q129 112 297 112z" />
    <glyph glyph-name="p" unicode="p" horiz-adv-x="1015" 
d="M520 719q-121 0 -166 -37q-18 -14 -26 -60t-10 -230t34 -234q38 -49 98 -79t109 -30t90 35q68 57 104 149t35 152q0 241 -175 311q-54 23 -93 23zM326 754q0 -40 16 -29q70 47 130 73t134 25q140 0 248 -114q96 -109 96 -269q0 -90 -42 -187t-132 -165
q-133 -104 -325 -104q-61 0 -115 8q-14 0 -14 -27q0 -263 6 -323t25 -80t75 -38t57 -38q0 -27 -53 -27l-244 11l-131 -7q-61 0 -61 25t64 37t83 43q21 31 27 136t6 450v413q0 94 -16 105q-76 55 -76 64q0 8 11 22t18 16q61 16 155 72q37 18 41 18q3 0 13 -9t10 -15
q-6 -60 -6 -86z" />
    <glyph glyph-name="q" unicode="q" horiz-adv-x="1001" 
d="M458 764q-64 0 -110 -43q-112 -97 -112 -277t102 -288q88 -88 231 -88q23 0 64 10t53 18t20 33q7 25 7 37q0 262 -10 355t-38 136q-27 43 -85 75t-122 32zM546 827q78 1 146 -21t80 -22t45 30t44 30q30 0 18 -41q-23 -76 -23 -553t4 -572q4 -94 22 -114t73 -30
q56 -10 59 -34q0 -26 -72 -26t-206 -12t-176 -13q-42 0 -42 25q0 24 48 32q116 18 131 79q15 60 15 258q1 198 -2 204t-8 4q-152 -76 -235 -76q-180 0 -299 123q-47 49 -75 128t-27 155q0 145 67 239q68 93 148 138q112 69 265 69z" />
    <glyph glyph-name="r" unicode="r" horiz-adv-x="696" 
d="M68 16q0 12 50 30t63 45q13 28 16 122v391q0 47 -23 62q-12 10 -41 29t-29 26q0 25 27 35q97 30 143 60t51 30t11 -9t6 -16l-4 -112q0 -7 5 -9t9 0q133 127 234 127q55 1 79 -23q23 -24 23 -39t-12 -36q-55 -80 -84 -94q-10 -6 -29 6q-49 45 -112 45t-87 -26t-24 -48
q0 -258 12 -442q6 -96 54 -104q14 -4 94 -25q37 -11 37 -31t-50 -20l-241 10l-135 -8q-43 0 -43 24z" />
    <glyph glyph-name="s" unicode="s" horiz-adv-x="657" 
d="M547 606q-14 0 -31 35q-63 137 -164 137q-57 0 -90 -43t-33 -88t47 -90t156 -104q160 -94 160 -230q0 -115 -119 -200q-71 -47 -147 -47q-166 -1 -224 44q-6 10 -18 64t-12 94q0 41 16 41t43 -47q80 -145 186 -145q39 -1 84 33t45 112t-92 135q-86 61 -125 86
q-127 80 -127 202t113 189q67 43 145 43q118 0 189 -34q16 -8 16 -29l6 -121q0 -37 -24 -37z" />
    <glyph glyph-name="t" unicode="t" horiz-adv-x="659" 
d="M290 934q7 0 18 -9t11 -14v-96q1 -16 17 -16l252 8q2 0 12 -6t10 -10l6 -76v-2q0 -23 -53 -23h-223q-6 0 -12 -5t-6 -9q-4 -82 -5 -440q0 -140 160 -140q49 0 87 22t46 21q10 -1 10 -23t-28 -50q-94 -90 -219 -91q-59 0 -109 30t-71 67q-27 41 -27 135l8 455q0 18 -78 40
q-29 10 -28 23q0 10 12 23q139 110 171 148t39 38z" />
    <glyph glyph-name="u" unicode="u" horiz-adv-x="1019" 
d="M498 78q80 0 161 72q31 27 31 49l4 471q0 8 -12 24t-23 21q-82 23 -94 24q-41 12 -41 33q0 6 16 12t31 7q133 0 190 15t79 15q14 1 12 -41q-18 -374 -18 -669q0 -5 7 -17t17 -12l103 10q12 0 24 -39q0 -4 -8 -12q-7 -8 -37 -10q-30 -3 -128 -29t-106 -26q-6 0 -14 8
q-8 10 -8 22t4 52t1 44t-7 2q-131 -90 -179 -110t-126 -19q-119 0 -180 97q-29 45 -29 96q0 478 -4 498t-10 27t-10 13q-8 13 -50 26q-43 14 -43 40q0 18 35 19l217 22q16 0 16 -31l-6 -549q0 -78 52 -114q53 -41 133 -41z" />
    <glyph glyph-name="v" unicode="v" horiz-adv-x="866" 
d="M877 786q0 -14 -47 -32t-99 -78q-32 -53 -90 -198q-59 -146 -80 -195t-90 -269q-17 -53 -51 -53q-14 0 -25 37q-144 438 -286 690q-27 52 -76 66t-49 32q0 23 49 23l170 -10l127 4q47 0 47 -23q0 -16 -45 -30q-63 -16 -45 -70q41 -122 105 -272t77 -160q6 -10 16 8
q117 281 156 412q12 39 -1 54q-13 14 -54 30t-41 30q0 23 41 23l110 -6l140 10q41 0 41 -23z" />
    <glyph glyph-name="w" unicode="w" horiz-adv-x="1339" 
d="M383 784q0 -22 -51 -34q-63 -12 -37 -80q18 -58 91 -246t84 -208t19 -1q45 90 144 311q10 23 10 41q-11 68 -56 139q-21 33 -65 47q-43 13 -43 32t49 20l138 -6l143 6q49 0 49 -24t-49 -31q-59 -14 -59 -44t182 -485q6 -23 21 9t134 335q35 92 35 123q0 45 -80 64
q-47 16 -47 34t47 19l127 -6l152 10q43 1 43 -19t-36 -30t-50 -16t-30 -25q-16 -17 -17 -21t-45 -80t-147 -330t-112 -285q-9 -30 -27 -30t-40 31l-12 36q-29 88 -66 178t-61 152q-25 62 -41 99q-2 4 -7 3t-7 -5q-126 -260 -172 -379t-66 -119q-27 0 -37 28q-10 29 -61 179
t-176 438q-29 66 -53 97q-25 31 -69 41t-44 30q0 25 59 25l139 -8l144 6q53 1 53 -21z" />
    <glyph glyph-name="x" unicode="x" horiz-adv-x="872" 
d="M-6 13q0 21 74 41t131 87q23 27 84 112t77 105t9 31q-41 90 -142 244q-66 97 -131 117t-65 43q0 18 53 18l178 -12l121 4q45 0 45 -19q0 -25 -39 -34q-41 -12 -41 -43q0 -8 43 -82t66 -107q4 -8 14 2q67 86 95 140t24 63t-42 25t-38 32q0 23 41 23l88 -4l178 10
q43 0 43 -23q0 -12 -39 -28q-127 -35 -178 -99q-80 -98 -143 -188q-6 -12 -2 -22q63 -139 170 -291q63 -90 155 -113q47 -10 47 -33t-49 -22l-221 10l-104 -4q-43 0 -43 27q0 16 31 25q30 9 38 14q8 4 8 22t-52 114t-62 107q-10 10 -19 2q-27 -27 -77 -105t-52 -98
q0 -37 54 -57q29 -10 28 -31q0 -20 -43 -20l-88 4l-166 -8q-59 0 -59 21z" />
    <glyph glyph-name="y" unicode="y" horiz-adv-x="847" 
d="M-10 780q0 25 49 25l160 -8l143 4q45 0 45 -23t-45 -35t-52 -25q-6 -12 12 -68t90 -232q81 -199 88 -199q6 1 18 25t80 200t78 211t-5 57t-67 34t-52 30q0 25 52 25l121 -4l129 8q41 0 40 -19q0 -20 -53 -37t-92 -104q-157 -355 -286 -706q-130 -351 -144 -392
q-26 -75 -115 -75q-48 0 -70 30t-22 66q0 34 26 64t64 30l74 -2q16 0 31 35q12 23 49 123t49 141q12 59 8 67t-35 96q-31 87 -126 314t-109 246q-14 20 -28 35t-59 31q-46 16 -46 32z" />
    <glyph glyph-name="z" unicode="z" horiz-adv-x="802" 
d="M231 739q-14 0 -54 -43t-66 -86q-16 -33 -31 -32q-6 0 -17 17t11 86t22 103t11 45q11 10 18 5q47 -35 106 -35h187l284 8q8 0 22 -10q14 -9 5 -21q-8 -12 -52 -68t-80 -108t-308 -496q-14 -14 9 -21q9 -3 103 -9t156 -6q46 0 150 145q31 45 43 45q23 0 16 -39
q-2 -10 -25 -86q-23 -77 -27 -101t-14 -33t-16 -9l-408 10q-2 0 -190 -8q-6 0 -16 10t-11 18q1 8 99 150t344 541q8 12 -6 16q-43 12 -265 12z" />
    <glyph glyph-name="braceleft" unicode="{" horiz-adv-x="700" 
d="M274 792q0 52 -26 196q-27 144 -27 183t32 111t95 123q123 94 246 94q37 0 37 -18q0 -7 -9 -23q-10 -16 -14 -17l-16 -4t-30 -7t-30 -7q-178 -45 -178 -252q0 -41 28 -157t28 -180q0 -62 -58 -125t-145 -111q-16 -10 -2 -18q113 -57 160 -126t47 -157q0 -89 -34 -231
t-34 -164q0 -182 254 -238q27 -4 27 -18q-1 -14 -17 -24t-33 -11q-168 1 -266 109t-98 245q0 19 26 157q25 138 25 212t-31 120q-31 48 -116 74q-29 10 -46 28t-18 30q0 16 25 22q104 23 151 77q47 55 47 107z" />
    <glyph glyph-name="bar" unicode="|" horiz-adv-x="530" 
d="M203 1522h125v-2030h-125v2030z" />
    <glyph glyph-name="braceright" unicode="}" horiz-adv-x="700" 
d="M395 360q0 -54 26 -222q25 -170 25 -206t-30 -106t-92 -121q-119 -94 -234 -94q-14 0 -25 8q-31 23 11 45q25 14 82 31q156 39 155 244q0 41 -25 179q-26 138 -26 202t60 131q60 68 147 110q12 8 0 14q-117 57 -163 125t-46 159t43 237q20 90 21 112q0 98 -62 146
t-190 90q-25 10 -25 19q-1 9 17 23t30 13q168 1 266 -107t99 -247q0 -16 -25 -134q-24 -119 -24 -191t29 -121q30 -48 116 -74q63 -23 63 -52q1 -16 -22 -26q-106 -23 -154 -78t-47 -109z" />
    <glyph glyph-name="asciitilde" unicode="~" horiz-adv-x="1277" 
d="M432 692q68 0 150 -57t156 -115t120 -59q74 0 113 47t88 168q7 18 27 18t47 -18t18 -39q-45 -133 -124 -215t-165 -82t-167 58t-153 116t-125 59q-52 0 -96 -47t-94 -155q-14 -31 -26 -31q-18 0 -48 17t-24 36q41 125 117 212t186 87z" />
    <glyph glyph-name="uni00A0" unicode="&#xa0;" horiz-adv-x="407" 
 />
    <glyph glyph-name="exclamdown" unicode="&#xa1;" horiz-adv-x="552" 
d="M379 794q0 -62 -41 -93t-91 -31t-81 41t-31 88t35 84t85 37t87 -32t37 -94zM242 -360q-51 0 -76 54t-24 104q1 70 69 628q8 70 45 72q33 0 37 -70q2 -18 33 -272q30 -254 36 -344t-32 -130q-38 -42 -88 -42z" />
    <glyph glyph-name="cent" unicode="&#xa2;" horiz-adv-x="995" 
d="M123 600q0 250 213 389q94 59 213 80q12 4 12 12l19 148q0 12 12 12q49 0 49 -14l-10 -137q0 -14 8 -15q117 -2 195 -55q65 -51 11 -105q-24 -23 -38 -23q-15 0 -71 49q-56 48 -109 58l-9 -6l-63 -655q0 -18 14 -22t31 -3q117 0 242 101q6 6 13 1t7 -12q0 -39 -31 -69
q-102 -111 -278 -131q-12 0 -12 -17l-17 -159q-14 -15 -40 -15t-25 13l18 163q0 4 -5 10t-11 7q-82 12 -156 57t-117 111q-65 102 -65 227zM276 678q0 -244 199 -338q14 -4 14 12l62 643q-4 10 -8 11q-107 0 -187 -102t-80 -226z" />
    <glyph glyph-name="sterling" unicode="&#xa3;" horiz-adv-x="995" 
d="M666 1239q-166 0 -226 -541q0 -16 13 -16l254 10q8 0 15 -13t-3 -33q-10 -21 -17 -21l-253 -17q-5 0 -13 -7t-10 -13q-26 -125 -58 -202t-96 -146q-4 -2 -3 -10t10 -7q100 0 190 -47q35 -16 121 -71t137 -56q80 0 109 34q30 35 30 89t-10 131q0 7 7 17t27 10t44 -29
t22 -78q-4 -107 -110 -205t-240 -98q-78 0 -175 84q-75 60 -119 97q-44 38 -105 38q-12 0 -39 -43q-77 -119 -133 -121q-23 1 -40 15t-15 30q0 36 47 94t118 89q10 4 33 26q68 68 88 346q0 18 -10 19l-133 -2q-14 -5 -14 30q0 34 16 37l137 11q14 4 14 18q25 223 79 346
q54 122 142 190q87 68 191 68t156 -46t53 -106q0 -60 -30 -93t-54 -33t-25 14l3 37q0 70 -35 122t-90 52z" />
    <glyph glyph-name="currency" unicode="&#xa4;" horiz-adv-x="995" 
d="M254 616q0 -110 73 -180t174 -70t175 72q74 70 74 176t-77 182t-177 76t-171 -72t-71 -184zM856 620q0 -111 -70 -210l-4 -13l109 -118q8 -7 4 -25q-5 -18 -17 -30t-27 -17q-15 -6 -20 0l-124 112q-6 6 -21 -2q-100 -61 -193 -61t-180 53q-8 4 -24 -2l-105 -102
q-14 -18 -51 10q-37 37 -16 66l94 104q6 12 0 21q-68 102 -68 199t70 212q2 2 3 11t-3 14l-104 121q-16 20 18 57q33 31 51 14l105 -106q4 -4 14 -5t14 1q89 53 189 53t196 -57q12 -6 21 2l102 106q20 20 58 -14q36 -28 18 -53l-102 -111q-4 -10 0 -23q63 -96 63 -207z" />
    <glyph glyph-name="yen" unicode="&#xa5;" horiz-adv-x="995" 
d="M266 12q0 20 56 34t76 50q20 35 20 275q0 25 -12 24h-211q-17 -1 -17 17t6 33t13 16h204q16 0 17 14v129q0 20 -10 21h-193q-14 0 -14 15q0 14 7 32t11 18l178 -2q8 0 -2 25t-94 188t-150 264q-28 37 -80 53q-53 17 -53 36t48 20l139 -6l182 6q43 0 43 -20t-40 -33
q-66 -20 -41 -75q135 -294 190 -394q6 -14 16 2q78 139 135 264t58 143q0 35 -76 60q-41 12 -41 32t49 21l123 -6q29 -2 79 2t80 4t31 -20q0 -20 -39 -33q-39 -12 -56 -24q-18 -13 -26 -19t-21 -22t-17 -22q-4 -5 -20 -29q-16 -25 -36 -55t-102 -180t-85 -166q-4 -16 5 -16
l217 -2q8 0 8 -15t-8 -31t-16 -15h-215q-8 0 -9 -17v-131q1 -2 5 -9t6 -7h211q12 0 12 -30t-23 -32l-196 -4q-14 0 -15 -20v-80q-1 -141 9 -178t47 -49q31 -12 69 -20t37 -30q0 -8 -14 -15t-33 -7l-176 4l-207 -8q-39 0 -39 20z" />
    <glyph glyph-name="brokenbar" unicode="&#xa6;" horiz-adv-x="530" 
d="M203 1368h125v-709h-125v709zM203 -354v708h125v-708h-125z" />
    <glyph glyph-name="section" unicode="&#xa7;" horiz-adv-x="866" 
d="M682 229q0 82 -37 164t-64 118q-95 122 -207 244q-113 122 -147 189q-6 6 -14 -2q-37 -59 -37 -141q0 -178 236 -426q168 -168 221 -291q0 -4 5 -4t7 4q37 63 37 145zM535 1305q68 0 116 -35q23 -23 23 -37q0 -35 -60 -84q-10 -8 -49 2q-84 57 -123 57q-117 0 -116 -131
q0 -66 164 -237q48 -49 61 -64q215 -225 215 -411q0 -107 -34 -209q-17 -60 -32 -87q-16 -28 -32 -57q-64 -117 -149 -188q-85 -72 -139 -87q-101 -28 -158 -4q-58 24 -58 56q0 14 26 49q27 35 60 53q14 8 45 -14q53 -43 117 -43q117 0 116 133q0 39 -69 132
q-70 93 -133 157q-145 152 -209 279q-33 77 -33 165t42 184t95 160q18 90 109 173q105 88 205 88z" />
    <glyph glyph-name="dieresis" unicode="&#xa8;" 
d="M584 1227q36 0 62 -29q26 -28 26 -64t-28 -63t-64 -27t-62 26t-26 66t28 66t64 25zM147 1133q0 39 26 67t63 29q38 0 62 -29q24 -28 24 -68t-27 -64t-60 -24t-61 25t-27 64z" />
    <glyph glyph-name="copyright" unicode="&#xa9;" horiz-adv-x="1417" 
d="M745 1010q76 0 144 -16t83 -22q15 -5 17 -40t2 -84t-22 -49q-15 1 -29 43t-66 80t-116 36q-111 0 -183 -76t-71 -198q0 -164 82 -241t180 -76q53 0 94 20q41 19 56 39t41 58t42 38q10 0 11 -26q-8 -122 -76 -156q-84 -35 -183 -35t-179 37t-121 84q-93 102 -93 248
t123 241q108 95 264 95zM707 1225q-229 0 -389 -165t-160 -403q0 -237 167 -407t392 -170t384 166t159 406t-162 407q-162 166 -391 166zM714 1286q265 0 443 -184t178 -448t-182 -449q-182 -187 -447 -187q-264 0 -444 186t-180 448q0 263 183 449q184 185 449 185z" />
    <glyph glyph-name="ordfeminine" unicode="&#xaa;" horiz-adv-x="557" 
d="M164 709q0 -29 24 -52t59 -23q34 0 64 36q17 14 19 28t2 86q-2 18 -15 13q-85 -19 -119 -39t-34 -49zM286 1096q77 0 120 -54t43 -129q0 -18 -7 -190q-4 -80 50 -80q23 0 51 21q10 -4 11 -20t-15 -36q-47 -51 -114 -51t-89 66q-4 12 -12 6q-109 -72 -153 -72t-81 38
q-37 39 -37 101t70 86q4 2 85 26t114 36q14 12 15 25t1 61t-31 75t-71 27t-58 -9q-16 -9 -16 -41t-7 -36t-40 -18t-49 -18t-17 12q0 43 60 98q100 76 177 76z" />
    <glyph glyph-name="guillemotleft" unicode="&#xab;" horiz-adv-x="1411" 
d="M1186 770q25 0 18 -22q-23 -83 -313 -314q-23 -18 -6 -35q236 -193 303 -305q10 -16 12 -34t-14 -21q-14 0 -43 22q-213 181 -463 318q-16 11 -18 27t6 20q289 158 456 303q48 41 62 41zM744 770q24 0 6 -37q-22 -65 -314 -299q-27 -20 -6 -35q12 -12 60 -54
q211 -184 251 -265q14 -28 9 -34q-4 -7 -20 -7t-44 22q-217 185 -461 318q-16 8 -19 25t5 22q311 174 461 303q48 41 72 41z" />
    <glyph glyph-name="logicalnot" unicode="&#xac;" horiz-adv-x="1277" 
d="M154 715h940q25 0 24 -43v-561q0 -21 -32 -31t-64 -10q-25 0 -25 30v465q0 41 -34 41h-797q-29 0 -36 5t-7 28q-1 23 9 49t22 27z" />
    <glyph glyph-name="uni00AD" unicode="&#xad;" horiz-adv-x="598" 
d="M520 484q0 -18 -10 -52q-10 -33 -27 -35q-57 -6 -379 -39q-32 -4 -32 42q0 24 12 48t22 25q100 14 398 45q4 0 10 -8t6 -26z" />
    <glyph glyph-name="registered" unicode="&#xae;" horiz-adv-x="477" 
d="M78 1094q0 -82 52 -136t131 -55q79 0 129 54q50 53 50 135t-53 136t-129 55t-128 -53t-52 -136zM260 1319q96 0 161 -65q65 -64 65 -156t-63 -164q-61 -72 -161 -72t-165 67t-65 161t66 162t162 67zM240 1176v-62q0 -8 18 -8q39 0 39 37q-1 39 -39 41q-18 0 -18 -8z
M188 1040v105q0 21 -6 27t-16 10q-23 9 -2 20q63 6 101 6t63 -16q24 -16 24 -43t-37 -45q-4 -4 -2 -8q39 -76 59 -87t19 -19q0 -8 -33 -9q-32 0 -56 39t-28 49t-19 10t-15 -8v-22q0 -23 4 -28t25 -13t14 -15q-6 -6 -11 -6h-108q-6 0 -9 6t5 11q28 11 28 36z" />
    <glyph glyph-name="macron" unicode="&#xaf;" 
d="M649 1134q0 -20 -12 -46t-31 -25h-418q-16 -1 -16 27t10 56q11 28 21 28l428 8q6 0 12 -14t6 -34z" />
    <glyph glyph-name="degree" unicode="&#xb0;" horiz-adv-x="577" 
d="M430 1065q0 72 -40 119t-104 47q-62 0 -100 -47t-39 -119q0 -72 44 -117q45 -45 105 -45t97 45t37 117zM295 1303q96 1 163 -63q66 -64 66 -173t-70 -173t-167 -65q-98 -1 -167 63t-69 170t74 174q74 67 170 67z" />
    <glyph glyph-name="plusminus" unicode="&#xb1;" horiz-adv-x="1277" 
d="M1122 8q18 0 24 -5t7 -31q0 -26 -9 -50q-9 -25 -20 -24h-958q-29 0 -36 5t-7 27t9 51q9 28 22 27h968zM700 170q0 -43 -96 -43q-25 0 -24 31v393q0 23 -8 29t-25 6h-383q-27 0 -34 5t-7 27t9 50q9 27 22 26h399q10 0 18 8t9 17v397q0 12 32 22t56 9q22 0 27 -6t5 -35
v-387q0 -25 23 -25h399q18 0 24 -5t7 -31q0 -26 -9 -49q-9 -24 -20 -23h-403q-20 0 -21 -27v-389z" />
    <glyph glyph-name="two.superior" unicode="&#xb2;" horiz-adv-x="612" 
d="M296 877h-85l-125 -3q-37 0 -37 18t17 30q96 86 200 206q90 109 90 228q0 55 -33 86q-34 31 -85 31q-84 0 -140 -64q-25 -20 -38 -20q-13 1 -13 21t19 42q94 131 219 131q86 0 145 -60q59 -59 59 -147t-80 -174t-198 -198q-6 -8 -2 -12t8 -5h234q27 0 73 60q18 23 33 22
q10 0 12 -16t-4 -31q-33 -66 -47 -137q-4 -12 -16 -13h-39q-103 5 -167 5z" />
    <glyph glyph-name="three.superior" unicode="&#xb3;" horiz-adv-x="612" 
d="M303 1587q74 0 119 -44t45 -93q0 -78 -105 -145q-4 -3 -3 -7t6 -6q166 -20 165 -157q0 -76 -51 -144q-51 -67 -128 -105t-136 -38t-101 22t-42 46t15 41q34 38 52 20q68 -57 148 -57q49 0 89 49t40 106t-35 101t-100 43q-14 1 -57 -9t-44 -2q0 43 58 66q68 30 90 54
t22 67t-28 73t-74 31q-44 0 -98 -44t-56 -17q0 14 6 26q74 123 203 123z" />
    <glyph glyph-name="acute" unicode="&#xb4;" 
d="M565 1323q63 0 75 -15t-7 -57q-80 -152 -182 -303q-27 -39 -53 -39t-9 56q43 131 127 315q20 43 49 43z" />
    <glyph glyph-name="mu" unicode="&#xb5;" horiz-adv-x="927" 
d="M188 834q39 0 93 -37q2 -1 11 -21t9 -40q-1 -20 -21 -130t-34 -212t-18 -124t8 -75q14 -74 90 -74t150 77q116 121 128 257q8 152 29 323q4 18 14 38t19 20q70 0 120 -52q10 -10 4 -74t-46 -197q-40 -132 -59 -175t-19 -74q-2 -72 34 -110t76 -37q84 0 137 65q5 6 11 3
t10 -13q12 -43 -19 -102q-55 -106 -153 -107q-57 0 -98 56t-43 182l-11 2l-2 -2q-133 -223 -239 -224q-90 0 -156 146q-2 8 -10 -4l-2 -6q-4 -35 -8 -174t0 -195q27 -145 139 -215q8 -4 2 -31q-8 -20 -48 -40t-72 -19q-30 0 -58 48t-29 180q0 132 9 348t3 268
q-18 150 -14 510q0 41 63 41z" />
    <glyph glyph-name="paragraph" unicode="&#xb6;" horiz-adv-x="1118" 
d="M596 -242q0 -42 -32 -68t-62 -26t-48 12q-19 12 -30 13q-23 0 -23 -27q0 -57 38 -92t106 -35q178 0 182 359q4 204 4 323q0 25 -16 29q-362 9 -526 227q-87 117 -87 281q0 205 156 360q60 63 156 101t178 51q139 16 348 16h72q35 0 35 -43q-1 -8 -9 -18t-12 -11l-209 -4
q-14 0 -14 -32l8 -1217q0 -265 -69 -378q-68 -111 -221 -111q-85 0 -144 63t-59 138t48 134q50 59 108 59t90 -30q32 -32 32 -74z" />
    <glyph glyph-name="periodcentered" unicode="&#xb7;" horiz-adv-x="419" 
d="M84 400q0 66 42 96t95 30t84 -42t31 -92t-36 -87t-87 -37t-90 33t-39 99z" />
    <glyph glyph-name="cedilla" unicode="&#xb8;" 
d="M539 -279q-1 -90 -93 -160q-155 -117 -196 -42q-6 10 -6 43t26 35q61 -13 91 -13t50 24q19 24 19 60t-35 63t-67 27t-42 -1q-12 -1 -24 11t-12 21q0 10 168 221h65q-78 -100 -88 -110q-6 -12 13 -25q46 -23 68 -37t42 -45t21 -72z" />
    <glyph glyph-name="one.superior" unicode="&#xb9;" horiz-adv-x="612" 
d="M510 897q0 -25 -36 -25t-124 2t-139 0l-51 -2q-39 0 -39 22t48 32t62 24q13 14 21 64t8 208q0 156 -2 192t-25 44q-51 18 -77 26t-25 22q0 15 35 20q113 8 199 57q20 15 20 -14l-4 -164q0 -392 4 -418t22 -39t72 -28q31 -12 31 -23z" />
    <glyph glyph-name="ordmasculine" unicode="&#xba;" horiz-adv-x="657" 
d="M312 1051q-66 0 -100 -65q-32 -64 -32 -150t47 -156t119 -70t103 62t31 146q0 85 -51 159t-117 74zM328 1096q114 0 196 -75t82 -192t-83 -195t-195 -77q-112 0 -195 80q-82 81 -82 191t82 189t195 79z" />
    <glyph glyph-name="guillemotright" unicode="&#xbb;" horiz-adv-x="1411" 
d="M224 39q-28 0 -19 28q22 70 315 308q23 16 6 33q-236 195 -309 307q-10 15 -10 35t16 20t45 -22q201 -175 461 -320q15 -10 19 -26t-5 -21q-133 -70 -262 -157t-185 -136t-72 -49zM737 80q-47 -41 -75 -41q-28 -1 23 73q50 74 290 261q27 20 6 35q-44 33 -162 145
t-147 162q-37 55 6 55q20 0 47 -22q191 -168 459 -320q16 -8 19 -26t-5 -21q-301 -166 -461 -301z" />
    <glyph glyph-name="onequarter" unicode="&#xbc;" horiz-adv-x="1345" 
d="M1087 301l9 248q0 4 -5 5t-8 -1q-174 -205 -194 -233q-20 -27 -2 -27l184 -2q16 0 16 10zM1073 223q-180 0 -299 -8q-14 1 -14 15t7 21l16 16q9 9 154 179t171 213q14 18 40 38t42 20t16 -23l2 -257v-130q0 -14 11 -14l114 4q10 0 10 -15t-7 -37t-13 -24l-104 2
q-8 0 -9 -16l2 -193q0 -20 -22 -28t-58 -8t-42 6t-7 14q0 174 2 213q0 12 -12 12zM1140 1317q19 0 32 -13t4 -30q-750 -1206 -842 -1331q-6 -13 -33 7t-8 48l647 1032q139 222 160 255q21 32 40 32zM121 591q0 22 48 32t62 24q13 15 21 65t8 206t-2 193q-2 36 -25 44
q-51 17 -77 25t-25 23q0 15 35 20q113 8 199 57q20 15 20 -14l-4 -164q0 -392 4 -418t22 -38t60 -27q43 -15 43 -25q0 -25 -37 -25l-164 4q-47 0 -98 -2l-51 -2q-39 0 -39 22z" />
    <glyph glyph-name="onehalf" unicode="&#xbd;" horiz-adv-x="1390" 
d="M1084 0h-95l-125 -2q-37 0 -37 17t17 30q96 86 193 201t98 233q0 55 -34 86t-85 31q-84 0 -139 -64q-25 -20 -38 -20t-13 20t18 43q94 132 219 132q86 -1 145 -61q60 -60 60 -147t-80 -173t-199 -199q-6 -8 -2 -12t8 -4h234q27 0 59 41t47 41q11 -1 13 -17t-18 -56
t-34 -112q-4 -12 -16 -12h-39q-83 4 -157 4zM1101 1317q19 0 33 -13t3 -30q-750 -1206 -842 -1331q-6 -13 -33 7t-8 48l647 1032q139 222 160 255q21 32 40 32zM121 591q0 22 48 32t62 24q13 15 21 65t8 206t-2 193q-2 36 -25 44q-51 17 -77 25t-25 23q0 15 35 20
q113 8 199 57q20 15 20 -14l-4 -164q0 -392 4 -418t22 -38t60 -27q43 -15 43 -25q0 -25 -37 -25l-164 4q-47 0 -98 -2l-51 -2q-39 0 -39 22z" />
    <glyph glyph-name="threequarters" unicode="&#xbe;" horiz-adv-x="1298" 
d="M1038 301l9 248q1 4 -5 5t-8 -1q-174 -205 -194 -232t-2 -28l184 -2q16 0 16 10zM1034 -2q0 174 2 213q0 12 -12 12q-180 0 -299 -8q-14 1 -14 15t7 21l16 16q9 9 11 14q287 334 314 378q14 18 40 38t42 20t16 -23l2 -257v-130q0 -14 10 -14l115 4q10 0 10 -15t-7 -37
t-13 -24l-105 2q-8 0 -8 -16l2 -193q-1 -20 -23 -28t-58 -8t-42 6t-6 14zM1097 1317q19 0 32 -13t4 -30q-750 -1206 -842 -1331q-6 -13 -33 7t-8 48l647 1032q139 222 160 255q21 32 40 32zM303 1284q74 0 119 -44t45 -93q0 -78 -105 -146q-4 -2 -3 -6t6 -6
q166 -20 165 -158q0 -75 -51 -143t-128 -106t-136 -37t-101 23t-42 45t15 41q33 39 52 20q68 -57 148 -58q49 0 89 50t40 106q0 57 -35 100t-100 43q-14 0 -57 -9t-44 -1q0 43 58 66q68 29 90 53t22 68t-28 74t-74 30q-44 0 -98 -44t-56 -17q0 14 6 26q74 123 203 123z" />
    <glyph glyph-name="questiondown" unicode="&#xbf;" horiz-adv-x="688" 
d="M370 676q-44 0 -76 39t-32 84t34 80t81 35t82 -30t35 -89t-40 -89t-84 -30zM444 -336q-82 0 -198 98q-66 60 -113 148t-47 149q0 131 76 207q33 23 180 105q36 19 38 43t3 43q4 53 31 53q21 0 35 -55q25 -129 25 -169t-42 -72q-41 -32 -145 -80q-105 -48 -105 -118
t20 -106q34 -62 138 -64l98 9q23 0 54 -33q30 -33 30 -71q0 -39 -22 -63t-56 -24z" />
    <glyph glyph-name="Agrave" unicode="&#xc0;" horiz-adv-x="1384" 
d="M467 1679q29 0 297 -217q29 -29 20 -43q-20 -25 -67 0q-326 146 -326 189q0 20 37 47q25 24 39 24zM496 614q211 0 319 7q2 0 5 6t1 10q-133 399 -159 440q-8 18 -17 0q-141 -377 -160 -448q-4 -14 11 -15zM8 10q0 27 45 41q84 29 116 55t70 111q38 86 211 532
q174 445 174 459t32 60q31 46 34 61q23 25 35 25q11 0 27 -46t152 -428q136 -380 210 -560t110 -216q36 -35 97 -51t61 -37q0 -27 -65 -26l-258 10l-146 -4q-63 0 -63 24t47 34q95 18 88 62q-2 18 -9 64t-110 328q-6 20 -69 20q-279 0 -313 -4t-46 -20q-106 -266 -106 -359
q0 -57 100 -88q55 -16 55 -37q0 -27 -57 -26l-162 6l-213 -10q-47 0 -47 20z" />
    <glyph glyph-name="Aacute" unicode="&#xc1;" horiz-adv-x="1384" 
d="M1042 1613q0 -24 -41 -48q-182 -100 -307 -148q-49 -20 -69 0q-2 0 -2 13t26 36q121 103 277 207q31 20 53 11q23 -9 43 -28t20 -43zM496 614q211 0 319 7q2 0 5 6t1 10q-133 399 -159 440q-8 18 -17 0q-141 -377 -160 -448q-4 -14 11 -15zM8 10q0 27 45 41q84 29 116 55
t70 111q38 86 211 532q174 445 174 459t32 60q31 46 34 61q23 25 35 25q11 0 27 -46t152 -428q136 -380 210 -560t110 -216q36 -35 97 -51t61 -37q0 -27 -65 -26l-258 10l-146 -4q-63 0 -63 24t47 34q95 18 88 62q-2 18 -9 64t-110 328q-6 20 -69 20q-279 0 -313 -4t-46 -20
q-106 -266 -106 -359q0 -57 100 -88q55 -16 55 -37q0 -27 -57 -26l-162 6l-213 -10q-47 0 -47 20z" />
    <glyph glyph-name="Acircumflex" unicode="&#xc2;" horiz-adv-x="1384" 
d="M716 1630q24 0 79 -45q143 -123 173 -145t17 -43q-4 -8 -28 -8q-24 -1 -81 29t-93 47t-53 25t-36 1q-68 -31 -142 -67t-89 -35q-55 0 0 49q39 39 191 161q38 31 62 31zM496 614q211 0 319 7q2 0 5 6t1 10q-133 399 -159 440q-8 18 -17 0q-141 -377 -160 -448
q-4 -14 11 -15zM8 10q0 27 45 41q84 29 116 55t70 111q38 86 211 532q174 445 174 459t32 60q31 46 34 61q23 25 35 25q11 0 27 -46t152 -428q136 -380 210 -560t110 -216q36 -35 97 -51t61 -37q0 -27 -65 -26l-258 10l-146 -4q-63 0 -63 24t47 34q95 18 88 62q-2 18 -9 64
t-110 328q-6 20 -69 20q-279 0 -313 -4t-46 -20q-106 -266 -106 -359q0 -57 100 -88q55 -16 55 -37q0 -27 -57 -26l-162 6l-213 -10q-47 0 -47 20z" />
    <glyph glyph-name="Atilde" unicode="&#xc3;" horiz-adv-x="1384" 
d="M963 1659q16 -1 27 -23t-2 -36t-54 -66t-52 -64t-28 -12q-285 0 -302 -5t-46 -45t-49 -13q-9 10 -9 19q-1 22 91 142q14 18 51 19q254 0 287 8t67 62q14 14 19 14zM496 614q211 0 319 7q2 0 5 6t1 10q-133 399 -159 440q-8 18 -17 0q-141 -377 -160 -448q-4 -14 11 -15z
M8 10q0 27 45 41q84 29 116 55t70 111q38 86 211 532q174 445 174 459t32 60q31 46 34 61q23 25 35 25q11 0 27 -46t152 -428q136 -380 210 -560t110 -216q36 -35 97 -51t61 -37q0 -27 -65 -26l-258 10l-146 -4q-63 0 -63 24t47 34q95 18 88 62q-2 18 -9 64t-110 328
q-6 20 -69 20q-279 0 -313 -4t-46 -20q-106 -266 -106 -359q0 -57 100 -88q55 -16 55 -37q0 -27 -57 -26l-162 6l-213 -10q-47 0 -47 20z" />
    <glyph glyph-name="Adieresis" unicode="&#xc4;" horiz-adv-x="1384" 
d="M1008 1495q0 -37 -28 -63t-64 -27q-36 0 -62 26q-26 27 -27 67q0 40 28 66t65 27q36 1 62 -29t26 -67zM509 1593q39 1 65 -29t26 -71t-29 -65t-65 -24t-62 26t-26 66t26 69q27 28 65 28zM496 614q211 0 319 7q2 0 5 6t1 10q-133 399 -159 440q-8 18 -17 0
q-141 -377 -160 -448q-4 -14 11 -15zM8 10q0 27 45 41q84 29 116 55t70 111q38 86 211 532q174 445 174 459t32 60q31 46 34 61q23 25 35 25q11 0 27 -46t152 -428q136 -380 210 -560t110 -216q36 -35 97 -51t61 -37q0 -27 -65 -26l-258 10l-146 -4q-63 0 -63 24t47 34
q95 18 88 62q-2 18 -9 64t-110 328q-6 20 -69 20q-279 0 -313 -4t-46 -20q-106 -266 -106 -359q0 -57 100 -88q55 -16 55 -37q0 -27 -57 -26l-162 6l-213 -10q-47 0 -47 20z" />
    <glyph glyph-name="Aring" unicode="&#xc5;" horiz-adv-x="1384" 
d="M713 1653q-37 0 -62 -29t-25 -74q0 -44 26 -72q24 -28 62 -28t62 28t23 74t-25 73q-24 28 -61 28zM713 1708q69 0 113 -46t44 -111t-44 -111t-114 -47q-70 0 -113 47q-44 47 -44 111q0 65 44 111t114 46zM496 614q211 0 319 7q2 0 5 6t1 10q-133 399 -159 440
q-8 18 -17 0q-141 -377 -160 -448q-4 -14 11 -15zM8 10q0 27 45 41q84 29 116 55t70 111q38 86 211 532q174 445 174 459t32 60q31 46 34 61q23 25 35 25q11 0 27 -46t152 -428q136 -380 210 -560t110 -216q36 -35 97 -51t61 -37q0 -27 -65 -26l-258 10l-146 -4
q-63 0 -63 24t47 34q95 18 88 62q-2 18 -9 64t-110 328q-6 20 -69 20q-279 0 -313 -4t-46 -20q-106 -266 -106 -359q0 -57 100 -88q55 -16 55 -37q0 -27 -57 -26l-162 6l-213 -10q-47 0 -47 20z" />
    <glyph glyph-name="AE" unicode="&#xc6;" horiz-adv-x="1849" 
d="M958 670q18 0 19 32l4 476q0 36 -5 36t-20 -22l-16 -25q-113 -176 -260 -471q-6 -20 14 -24q31 -2 264 -2zM1444 1317q98 0 142 8t48 8t14 -10t9 -35q0 -25 31 -201q2 -12 -6 -25t-17 -13q-25 0 -45 45q-63 133 -137 143q-12 2 -312 2q-8 0 -14 -8t-6 -14v-496
q0 -45 20 -45q238 0 278 9t75 89q8 12 23 24t23 11q8 0 14 -14q5 -14 -1 -45t-6 -271q0 -39 -24 -39t-42 49q-16 61 -37 80q-22 18 -88 19l-208 2q-20 0 -28 -41t5 -352q4 -104 96 -119q100 -12 258 -8q59 2 101 32t102 100t70 70t19 -16t5 -31q-31 -94 -86 -207
q-16 -29 -73 -28l-541 10l-272 -10q-20 0 -34 7q-13 7 -14 15q0 27 65 41t87 40q22 25 31 93q8 68 8 369q0 23 -14 23q-59 4 -177 4t-139 -1t-35 -13t-18 -19q-211 -397 -211 -431t90 -59q41 -10 41 -24q0 -13 -13 -27t-38 -14l-184 6l-242 -12q-18 0 -36 8q-17 8 -17 18
q0 29 78 41t131 48t133 150t555 953q13 23 -9 29t-87 15t-80 14q-39 12 -39 32q0 25 59 25l307 -4h412z" />
    <glyph glyph-name="Ccedilla" unicode="&#xc7;" horiz-adv-x="1468" 
d="M883 1354q102 0 241 -33q29 -5 85 -21t71 -18q31 0 31 -61q0 -20 14 -179q2 -31 -8 -49q-9 -18 -23 -18t-32 53q-29 111 -84 154q-143 106 -328 106q-240 0 -390 -171t-151 -410q0 -195 77 -347t224 -236q146 -83 280 -83t234 55q109 57 189 199q35 49 45 51q29 0 16 -65
q-8 -76 -80 -207q-14 -32 -55 -50t-137 -36t-203 -23q-11 -15 -25 -33t-20 -27t-10 -17t16 -21q106 -51 127 -105q10 -25 10 -57q0 -90 -106 -178q-88 -68 -150 -68q-31 0 -51 31q-18 32 -3 58t32 24q75 -14 99 -14t46 26t21 63q0 37 -39 67q-38 30 -72 30t-46 -1t-29 15
q-18 16 8 43q10 14 127 162q-188 6 -336 80t-224 160q-172 199 -172 471q0 158 72 291t154 200q231 189 555 189z" />
    <glyph glyph-name="Egrave" unicode="&#xc8;" horiz-adv-x="1153" 
d="M369 1694q29 0 297 -217q29 -29 20 -43q-20 -25 -68 0q-325 145 -325 188q0 20 37 47q25 25 39 25zM758 1317q144 0 168 4t30 -4t9 -17l4 -194q0 -53 -31 -53q-23 1 -37 63t-46 90q-33 28 -113 39q-80 12 -174 8t-100 -8q-16 -13 -21 -54q-5 -40 -7 -242t0 -224
q6 -20 15 -20h133q102 0 142 7t57 25q17 17 35 65t41 48q22 0 16 -66q-7 -66 -7 -97q0 -32 7 -155q4 -59 -21 -59q-24 1 -42 59t-47 78t-312 19q-17 0 -21 -26t-4 -314q0 -197 60 -215q82 -14 204 -14t176 14q106 27 170 151q29 57 48 58q10 -1 15 -19t2 -36t-34 -112
q-31 -95 -45 -114t-31 -18l-100 4q-294 12 -565 12l-232 -10q-61 0 -61 26q1 18 71 36t100 43q30 26 36 104q16 229 16 563t-3 384q-3 48 -25 75t-85 41t-63 34q0 29 57 29l314 -8h301z" />
    <glyph glyph-name="Eacute" unicode="&#xc9;" horiz-adv-x="1153" 
d="M901 1609q0 -24 -41 -48q-182 -100 -307 -148q-49 -20 -70 0q-2 0 -2 14t27 35q120 103 276 207q32 20 54 11t42 -28t21 -43zM758 1317q144 0 168 4t30 -4t9 -17l4 -194q0 -53 -31 -53q-23 1 -37 63t-46 90q-33 28 -113 39q-80 12 -174 8t-100 -8q-16 -13 -21 -54
q-5 -40 -7 -242t0 -224q6 -20 15 -20h133q102 0 142 7t57 25q17 17 35 65t41 48q22 0 16 -66q-7 -66 -7 -97q0 -32 7 -155q4 -59 -21 -59q-24 1 -42 59t-47 78t-312 19q-17 0 -21 -26t-4 -314q0 -197 60 -215q82 -14 204 -14t176 14q106 27 170 151q29 57 48 58
q10 -1 15 -19t2 -36t-34 -112q-31 -95 -45 -114t-31 -18l-100 4q-294 12 -565 12l-232 -10q-61 0 -61 26q1 18 71 36t100 43q30 26 36 104q16 229 16 563t-3 384q-3 48 -25 75t-85 41t-63 34q0 29 57 29l314 -8h301z" />
    <glyph glyph-name="Ecircumflex" unicode="&#xca;" horiz-adv-x="1153" 
d="M586 1657q24 0 80 -45q143 -123 173 -146t17 -43q-4 -8 -26 -8q-22 -1 -80 29l-96 48t-53 26q-17 10 -61 -10t-118 -57q-75 -36 -88 -36q-55 0 0 49q44 44 190 162q38 31 62 31zM758 1317q144 0 168 4t30 -4t9 -17l4 -194q0 -53 -31 -53q-23 1 -37 63t-46 90
q-33 28 -113 39q-80 12 -174 8t-100 -8q-16 -13 -21 -54q-5 -40 -7 -242t0 -224q6 -20 15 -20h133q102 0 142 7t57 25q17 17 35 65t41 48q22 0 16 -66q-7 -66 -7 -97q0 -32 7 -155q4 -59 -21 -59q-24 1 -42 59t-47 78t-312 19q-17 0 -21 -26t-4 -314q0 -197 60 -215
q82 -14 204 -14t176 14q106 27 170 151q29 57 48 58q10 -1 15 -19t2 -36t-34 -112q-31 -95 -45 -114t-31 -18l-100 4q-294 12 -565 12l-232 -10q-61 0 -61 26q1 18 71 36t100 43q30 26 36 104q16 229 16 563t-3 384q-3 48 -25 75t-85 41t-63 34q0 29 57 29l314 -8h301z" />
    <glyph glyph-name="Edieresis" unicode="&#xcb;" horiz-adv-x="1153" 
d="M696 1522q0 42 28 68t65 26t63 -30t25 -66q0 -36 -28 -64q-28 -26 -64 -26q-37 0 -63 26t-26 66zM378 1618q38 0 64 -30t27 -70q0 -40 -29 -65q-28 -23 -64 -23t-63 24t-27 66t28 70q26 28 64 28zM758 1317q144 0 168 4t30 -4t9 -17l4 -194q0 -53 -31 -53q-23 1 -37 63
t-46 90q-33 28 -113 39q-80 12 -174 8t-100 -8q-16 -13 -21 -54q-5 -40 -7 -242t0 -224q6 -20 15 -20h133q102 0 142 7t57 25q17 17 35 65t41 48q22 0 16 -66q-7 -66 -7 -97q0 -32 7 -155q4 -59 -21 -59q-24 1 -42 59t-47 78t-312 19q-17 0 -21 -26t-4 -314q0 -197 60 -215
q82 -14 204 -14t176 14q106 27 170 151q29 57 48 58q10 -1 15 -19t2 -36t-34 -112q-31 -95 -45 -114t-31 -18l-100 4q-294 12 -565 12l-232 -10q-61 0 -61 26q1 18 71 36t100 43q30 26 36 104q16 229 16 563t-3 384q-3 48 -25 75t-85 41t-63 34q0 29 57 29l314 -8h301z" />
    <glyph glyph-name="Igrave" unicode="&#xcc;" horiz-adv-x="694" 
d="M137 1700q29 0 297 -217q29 -29 21 -43q-20 -25 -68 0q-326 146 -326 188q0 20 37 47q25 25 39 25zM72 25q0 23 68 37t86 41q20 29 28 127t8 492t-7 433t-18 61t-35 29t-74 17t-50 36t51 25l223 -6l219 6q51 0 52 -25q-1 -26 -49 -34t-72 -20t-37 -38q-12 -24 -13 -30
q0 -6 -10 -66t-10 -423q0 -364 5 -458t31 -128t100 -47t73 -40q0 -27 -55 -26l-305 12l-156 -4q-53 0 -53 29z" />
    <glyph glyph-name="Iacute" unicode="&#xcd;" horiz-adv-x="694" 
d="M256 1447q0 13 27 36q120 103 276 207q31 20 53 11t42 -29q52 -50 -19 -91q-182 -100 -307 -147q-49 -20 -70 0q-2 0 -2 13zM72 25q0 23 68 37t86 41q20 29 28 127t8 492t-7 433t-18 61t-35 29t-74 17t-50 36t51 25l223 -6l219 6q51 0 52 -25q-1 -26 -49 -34t-72 -20
t-37 -38q-12 -24 -13 -30q0 -6 -10 -66t-10 -423q0 -364 5 -458t31 -128t100 -47t73 -40q0 -27 -55 -26l-305 12l-156 -4q-53 0 -53 29z" />
    <glyph glyph-name="Icircumflex" unicode="&#xce;" horiz-adv-x="694" 
d="M362 1671q24 0 78 -45q143 -124 173 -146t18 -42q-4 -8 -28 -8t-81 30t-93 46q-36 18 -53 26t-36 0q-68 -31 -176 -84l-55 -18q-55 0 0 49q29 29 180 153q49 39 73 39zM72 25q0 23 68 37t86 41q20 29 28 127t8 492t-7 433t-18 61t-35 29t-74 17t-50 36t51 25l223 -6
l219 6q51 0 52 -25q-1 -26 -49 -34t-72 -20t-37 -38q-12 -24 -13 -30q0 -6 -10 -66t-10 -423q0 -364 5 -458t31 -128t100 -47t73 -40q0 -27 -55 -26l-305 12l-156 -4q-53 0 -53 29z" />
    <glyph glyph-name="Idieresis" unicode="&#xcf;" horiz-adv-x="694" 
d="M467 1522q-1 42 27 68t65 26t63 -30t26 -66t-28 -64q-28 -26 -64 -26t-62 26t-27 66zM57 1520q0 42 27 70t65 28q39 0 65 -30t26 -70t-29 -65q-29 -23 -65 -23t-62 24t-27 66zM72 25q0 23 68 37t86 41q20 29 28 127t8 492t-7 433t-18 61t-35 29t-74 17t-50 36t51 25
l223 -6l219 6q51 0 52 -25q-1 -26 -49 -34t-72 -20t-37 -38q-12 -24 -13 -30q0 -6 -10 -66t-10 -423q0 -364 5 -458t31 -128t100 -47t73 -40q0 -27 -55 -26l-305 12l-156 -4q-53 0 -53 29z" />
    <glyph glyph-name="Eth" unicode="&#xd0;" horiz-adv-x="1546" 
d="M1247 684q0 133 -60 263t-159 206q-76 55 -192 87t-232 32q-115 0 -137 -14q-21 -14 -25 -28q-4 -13 -5 -95t-2 -206t-3 -192q0 -20 14 -20h353q33 0 32 -17q0 -20 -8 -40t-18 -19l-361 -4q-12 0 -12 -21q6 -379 11 -440t42 -84q77 -53 193 -53q60 0 170 34
q109 34 188 99q211 180 211 512zM76 1288q0 29 49 29h59l508 18q193 0 339 -61t229 -137q82 -80 134 -206t52 -247q0 -206 -100 -364t-228 -228q-199 -115 -487 -115q-185 -1 -313 9t-196 10t-67 31q0 23 43 30q104 11 131 51t29 164l4 342q0 23 -12 23l-150 2q-26 0 -26 38
t16 38l156 2q16 0 16 22q-8 220 -8 340q-4 104 -22 135t-109 43q-47 8 -47 31z" />
    <glyph glyph-name="Ntilde" unicode="&#xd1;" horiz-adv-x="1579" 
d="M692 1595q254 1 287 9t68 61q14 14 18 14q15 0 27 -22q12 -21 -1 -35t-55 -68t-52 -64q-11 -11 -28 -11q-285 0 -302 -5q-18 -5 -40 -37t-34 -32t-21 10q-9 9 -9 19q-1 23 91 143q14 18 51 18zM39 18q0 22 50 39q50 15 72 27q55 29 62 162q39 631 39 768t-14 157
q-37 45 -65 59q-29 14 -65 24t-42 12q-45 12 -45 32q0 25 67 25l250 -6q16 0 43 -27q82 -98 170 -211t672 -749q8 -8 14 -1t8 25t2 344t-6 400t-31 104q-26 31 -92 50t-65 48q0 18 53 19l176 -2l193 8q47 0 47 -22q0 -27 -49 -41q-72 -16 -100 -44t-31 -106
q-23 -406 -23 -829l14 -273q0 -43 -28 -43q-20 0 -48 22t-43 41t-80 105t-374 442q-309 355 -405 470q-7 8 -15 6q-8 -1 -8 -13t-5 -79t-5 -164t-1 -241t-2 -216t3 -138t28 -98q24 -31 88 -47q62 -16 62 -42t-66 -25l-219 10l-133 -4q-53 0 -53 22z" />
    <glyph glyph-name="Ograve" unicode="&#xd2;" horiz-adv-x="1599" 
d="M614 1720q29 0 297 -217q29 -29 21 -43q-20 -25 -68 0q-197 88 -286 146q-39 23 -39 43t36 47q25 24 39 24zM745 1286q-69 0 -151 -33q-292 -118 -293 -565q0 -244 160 -450t393 -205q180 0 270 98q72 63 123 189t51 294q0 166 -66 318q-110 248 -330 324q-88 30 -157 30
zM788 1354q297 0 504 -195t207 -483q0 -200 -83 -352t-208 -242q-170 -119 -403 -119q-156 1 -297 63t-236 171q-170 188 -170 462q0 338 267 551q77 60 195 102t224 42z" />
    <glyph glyph-name="Oacute" unicode="&#xd3;" horiz-adv-x="1599" 
d="M672 1465q0 13 26 36q121 103 277 207q31 20 53 11t42 -28q52 -48 -19 -92q-182 -100 -308 -147q-49 -20 -69 0q-2 0 -2 13zM745 1286q-69 0 -151 -33q-292 -118 -293 -565q0 -244 160 -450t393 -205q180 0 270 98q72 63 123 189t51 294q0 166 -66 318q-110 248 -330 324
q-88 30 -157 30zM788 1354q297 0 504 -195t207 -483q0 -200 -83 -352t-208 -242q-170 -119 -403 -119q-156 1 -297 63t-236 171q-170 188 -170 462q0 338 267 551q77 60 195 102t224 42z" />
    <glyph glyph-name="Ocircumflex" unicode="&#xd4;" horiz-adv-x="1599" 
d="M812 1686q24 0 79 -46q143 -124 173 -146t17 -42q-4 -8 -27 -8t-100 39t-131 65q-14 8 -57 -12t-117 -56t-90 -36q-55 0 0 49q45 44 191 162q38 31 62 31zM745 1286q-69 0 -151 -33q-292 -118 -293 -565q0 -244 160 -450t393 -205q180 0 270 98q72 63 123 189t51 294
q0 166 -66 318q-110 248 -330 324q-88 30 -157 30zM788 1354q297 0 504 -195t207 -483q0 -200 -83 -352t-208 -242q-170 -119 -403 -119q-156 1 -297 63t-236 171q-170 188 -170 462q0 338 267 551q77 60 195 102t224 42z" />
    <glyph glyph-name="Otilde" unicode="&#xd5;" horiz-adv-x="1599" 
d="M666 1634q254 0 286 8t68 62q14 14 18 14q16 0 28 -22t-2 -36q-13 -14 -54 -66q-40 -54 -52 -65t-28 -11q-283 0 -301 -6t-41 -36q-23 -32 -35 -32t-21 10q-8 10 -8 26t90 136q16 18 52 18zM745 1286q-69 0 -151 -33q-292 -118 -293 -565q0 -244 160 -450t393 -205
q180 0 270 98q72 63 123 189t51 294q0 166 -66 318q-110 248 -330 324q-88 30 -157 30zM788 1354q297 0 504 -195t207 -483q0 -200 -83 -352t-208 -242q-170 -119 -403 -119q-156 1 -297 63t-236 171q-170 188 -170 462q0 338 267 551q77 60 195 102t224 42z" />
    <glyph glyph-name="Odieresis" unicode="&#xd6;" horiz-adv-x="1599" 
d="M1012 1636q36 0 62 -30t26 -66q0 -38 -28 -64t-64 -26t-62 26t-26 66t27 68q28 26 65 26zM601 1638q38 0 65 -30q26 -30 26 -70t-28 -64t-65 -24t-63 25t-26 65t26 70q26 28 65 28zM745 1286q-69 0 -151 -33q-292 -118 -293 -565q0 -244 160 -450t393 -205q180 0 270 98
q72 63 123 189t51 294q0 166 -66 318q-110 248 -330 324q-88 30 -157 30zM788 1354q297 0 504 -195t207 -483q0 -200 -83 -352t-208 -242q-170 -119 -403 -119q-156 1 -297 63t-236 171q-170 188 -170 462q0 338 267 551q77 60 195 102t224 42z" />
    <glyph glyph-name="multiply" unicode="&#xd7;" horiz-adv-x="1277" 
d="M627 434q-8 0 -23 -16l-321 -326q-19 -18 -29 -20t-26 11t-26 40q-11 27 -3 35l336 338q18 18 0 34l-345 344q-14 12 46 72q27 29 57 -2l330 -332q18 -16 36 -2l336 346q20 23 37 5q57 -55 37 -76l-340 -348q-6 -7 -4 -21t8 -20l342 -340q29 -33 -33 -95q-18 -18 -41 5
l-350 352q-16 16 -24 16z" />
    <glyph glyph-name="Oslash" unicode="&#xd8;" horiz-adv-x="1599" 
d="M846 31q164 0 272 94q72 68 126 196t54 266q0 266 -129 466q-8 14 -16 2q-281 -381 -651 -848q-2 -2 -2 -8t2 -11q66 -66 163 -112t181 -45zM737 1282q-69 0 -145 -31t-127 -82q-160 -150 -160 -479q0 -231 137 -424q6 -8 15 2q123 160 361 467q239 307 296 381
q6 10 0 17q-160 149 -377 149zM788 1354q219 0 404 -117q8 -4 20 8q10 13 44 59t51 46q18 0 32 -25q3 -2 5 -11t-3 -11q-6 -10 -77 -105q-6 -6 0 -12q235 -200 235 -539q0 -171 -84 -323q-200 -361 -614 -361q-205 0 -377 109q-18 6 -25 -2q-22 -28 -54 -66q-31 -38 -41 -52
t-28 -11q-20 2 -28 10t-10 21t8 27q10 15 40 53t50 65q6 10 -4 20q-230 207 -230 533t263 534q75 62 197 106t226 44z" />
    <glyph glyph-name="Ugrave" unicode="&#xd9;" horiz-adv-x="1560" 
d="M606 1692q27 0 297 -217q29 -29 21 -43q-20 -25 -68 0q-326 146 -326 188q0 20 37 47q25 25 39 25zM1524 1300q0 -22 -45 -38q-70 -20 -101 -58q-30 -38 -32 -110q-4 -167 -19 -443q-14 -483 -256 -618q-117 -66 -267 -66t-251 39q-100 39 -147 82q-88 84 -126 217
t-38 449t-9 422q-6 66 -110 88q-47 11 -47 35t59 24l211 -6l199 4q63 0 63 -25q0 -24 -60 -36t-89 -36t-37 -79t-8 -574q0 -159 30 -243t84 -148q43 -47 130 -80t167 -32q123 0 236 68t147 218q45 200 45 440t-6 320t-30 107q-25 27 -107 45q-16 4 -30 15t-13 22q0 20 47 20
l174 -6l185 4q51 1 51 -21z" />
    <glyph glyph-name="Uacute" unicode="&#xda;" horiz-adv-x="1560" 
d="M717 1430q0 13 26 36q121 103 277 207q31 20 53 11q23 -9 43 -28q53 -49 -20 -91q-182 -100 -308 -148q-49 -20 -69 0q-2 0 -2 13zM1524 1300q0 -22 -45 -38q-70 -20 -101 -58q-30 -38 -32 -110q-4 -167 -19 -443q-14 -483 -256 -618q-117 -66 -267 -66t-251 39
q-100 39 -147 82q-88 84 -126 217t-38 449t-9 422q-6 66 -110 88q-47 11 -47 35t59 24l211 -6l199 4q63 0 63 -25q0 -24 -60 -36t-89 -36t-37 -79t-8 -574q0 -159 30 -243t84 -148q43 -47 130 -80t167 -32q123 0 236 68t147 218q45 200 45 440t-6 320t-30 107
q-25 27 -107 45q-16 4 -30 15t-13 22q0 20 47 20l174 -6l185 4q51 1 51 -21z" />
    <glyph glyph-name="Ucircumflex" unicode="&#xdb;" horiz-adv-x="1560" 
d="M826 1671q24 0 79 -45q143 -124 173 -146t18 -42q-4 -8 -28 -8t-81 30t-93 46q-36 18 -53 26t-36 0q-68 -31 -176 -84l-56 -18q-57 0 13 60q131 112 173 146q43 35 67 35zM1524 1300q0 -22 -45 -38q-70 -20 -101 -58q-30 -38 -32 -110q-4 -167 -19 -443
q-14 -483 -256 -618q-117 -66 -267 -66t-251 39q-100 39 -147 82q-88 84 -126 217t-38 449t-9 422q-6 66 -110 88q-47 11 -47 35t59 24l211 -6l199 4q63 0 63 -25q0 -24 -60 -36t-89 -36t-37 -79t-8 -574q0 -159 30 -243t84 -148q43 -47 130 -80t167 -32q123 0 236 68
t147 218q45 200 45 440t-6 320t-30 107q-25 27 -107 45q-16 4 -30 15t-13 22q0 20 47 20l174 -6l185 4q51 1 51 -21z" />
    <glyph glyph-name="Udieresis" unicode="&#xdc;" horiz-adv-x="1560" 
d="M1035 1427q-37 0 -63 26t-26 67q0 42 28 68t64 26q37 0 63 -30q25 -30 25 -66t-28 -64q-28 -27 -63 -27zM628 1616q38 0 64 -30t27 -70q0 -40 -29 -65q-28 -24 -64 -24t-63 25t-27 66q0 42 28 70q26 28 64 28zM1524 1300q0 -22 -45 -38q-70 -20 -101 -58
q-30 -38 -32 -110q-4 -167 -19 -443q-14 -483 -256 -618q-117 -66 -267 -66t-251 39q-100 39 -147 82q-88 84 -126 217t-38 449t-9 422q-6 66 -110 88q-47 11 -47 35t59 24l211 -6l199 4q63 0 63 -25q0 -24 -60 -36t-89 -36t-37 -79t-8 -574q0 -159 30 -243t84 -148
q43 -47 130 -80t167 -32q123 0 236 68t147 218q45 200 45 440t-6 320t-30 107q-25 27 -107 45q-16 4 -30 15t-13 22q0 20 47 20l174 -6l185 4q51 1 51 -21z" />
    <glyph glyph-name="Yacute" unicode="&#xdd;" horiz-adv-x="1273" 
d="M584 1426q0 13 26 36q121 103 277 207q31 20 53 11t42 -28q53 -49 -19 -91q-182 -100 -308 -148q-49 -20 -69 0q-2 0 -2 13zM553 569q0 25 -18 74q-57 123 -196 332t-174 243t-97 47t-62 38t55 24l234 -10l156 4q45 0 45 -25q0 -24 -48 -36t-52 -34t24 -61
q45 -86 268 -448q2 -4 10 -3t11 7q53 78 264 422q31 55 17 79t-68 37q-52 13 -52 41q0 18 48 19l133 -2l227 8q43 0 43 -20t-53 -37q-119 -31 -224 -160q-57 -72 -160 -232t-112 -169q-51 -74 -51 -125q0 -336 12 -435q6 -35 35 -55q30 -20 98 -38t68 -40q0 -23 -62 -22
l-178 8l-286 -12q-51 0 -52 22q0 27 58 37q129 29 133 98q6 84 6 424z" />
    <glyph glyph-name="Thorn" unicode="&#xde;" horiz-adv-x="1124" 
d="M860 684q0 152 -94 226t-227 75q-84 0 -97 -31q-10 -37 -10 -67v-465q0 -29 21 -35q57 -16 108 -16q115 0 207 81q92 80 92 232zM76 20q0 26 45 37q87 25 105 55t26 158t8 490t-2 384t-3 37t-8 26t-9 17t-18 13q-16 6 -19 8q-4 2 -27 9t-31 10q-41 12 -41 32q0 25 50 25
l194 -4l205 4q51 0 51 -27q0 -20 -70 -37t-84 -43q-16 -26 -16 -151q0 -16 14 -19l170 7q174 0 300 -89q126 -90 126 -272t-124 -288q-125 -105 -308 -105q-100 0 -161 22q-16 4 -17 -10q0 -133 11 -171t44 -52q49 -18 101 -27t51 -34q0 -31 -66 -31l-237 6l-213 -6
q-47 0 -47 26z" />
    <glyph glyph-name="germandbls" unicode="&#xdf;" horiz-adv-x="1028" 
d="M193 850q0 301 157 475q130 137 284 137t228 -93t74 -198q0 -48 -5 -68q-5 -21 -8 -33t-11 -26t-10 -21q-4 -7 -16 -22t-25 -29t-19 -20q-6 -8 -68 -64t-74 -68l-15 -15q-3 -4 -13 -14q-39 -39 -39 -83t51 -77q190 -137 234 -188q45 -51 46 -147q0 -97 -62 -173
t-146 -112t-120 -36q-38 -1 -61 5t-47 28t-24 45q0 24 11 50t22 36q29 18 41 8q30 -25 76 -43t71 -18q67 0 99 33t32 77t-12 74t-60 68q-48 39 -157 113q-127 80 -127 200q0 49 39 92q61 61 136 131q140 131 140 291q0 78 -58 148q-59 69 -163 69t-152 -60t-76 -180
q-26 -120 -26 -514t10 -507q2 -29 18 -43t55 -28q40 -14 40 -30q0 -25 -57 -24l-144 4l-158 -8q-51 0 -51 20t48 34q49 14 63 32q14 16 21 50t8 343l-3 195q0 31 -28 34q-8 2 -34 6t-34 5q-8 2 -9 22t19 34q44 28 67 45q22 17 22 38z" />
    <glyph glyph-name="agrave" unicode="&#xe0;" horiz-adv-x="813" 
d="M366 86q44 0 109 35q9 6 19 30t10 181q0 16 -17 16q-84 0 -211 -61q-40 -29 -40 -83t43 -86t87 -32zM821 102q0 -34 -60 -80t-124 -47q-98 0 -131 103q0 2 -5 6t-7 2q-150 -106 -267 -106q-55 0 -98 57t-43 123t39 114q16 20 82 52q57 19 239 71q59 18 60 37q4 37 4 168
q0 45 -45 91t-107 46t-92 -22q-23 -10 -14 -84q0 -10 -12 -23q-14 -12 -70 -40t-64 -28t-16 10q-8 9 -8 17q0 80 154 181q43 31 101 54t89 23q119 0 184 -96q41 -57 41 -170l-8 -360q1 -43 19 -68q51 -69 141 -4q6 4 12 -4t6 -23zM274 1335q23 0 54 -71q82 -170 125 -299
q16 -51 -9 -51t-47 32q-102 133 -190 287q-41 70 14 90q24 12 53 12z" />
    <glyph glyph-name="aacute" unicode="&#xe1;" horiz-adv-x="813" 
d="M366 86q44 0 109 35q9 6 19 30t10 181q0 16 -17 16q-84 0 -211 -61q-40 -29 -40 -83t43 -86t87 -32zM821 102q0 -34 -60 -80t-124 -47q-98 0 -131 103q0 2 -5 6t-7 2q-150 -106 -267 -106q-55 0 -98 57t-43 123t39 114q16 20 82 52q57 19 239 71q59 18 60 37q4 37 4 168
q0 45 -45 91t-107 46t-92 -22q-23 -10 -14 -84q0 -10 -12 -23q-14 -12 -70 -40t-64 -28t-16 10q-8 9 -8 17q0 80 154 181q43 31 101 54t89 23q119 0 184 -96q41 -57 41 -170l-8 -360q1 -43 19 -68q51 -69 141 -4q6 4 12 -4t6 -23zM530 1323q64 0 76 -15t-8 -57
q-80 -152 -182 -303q-27 -39 -53 -39t-9 56q43 131 127 315q23 43 49 43z" />
    <glyph glyph-name="acircumflex" unicode="&#xe2;" horiz-adv-x="813" 
d="M366 86q44 0 109 35q9 6 19 30t10 181q0 16 -17 16q-84 0 -211 -61q-40 -29 -40 -83t43 -86t87 -32zM821 102q0 -34 -60 -80t-124 -47q-98 0 -131 103q0 2 -5 6t-7 2q-150 -106 -267 -106q-55 0 -98 57t-43 123t39 114q16 20 82 52q57 19 239 71q59 18 60 37q4 37 4 168
q0 45 -45 91t-107 46t-92 -22q-23 -10 -14 -84q0 -10 -12 -23q-14 -12 -70 -40t-64 -28t-16 10q-8 9 -8 17q0 80 154 181q43 31 101 54t89 23q119 0 184 -96q41 -57 41 -170l-8 -360q1 -43 19 -68q51 -69 141 -4q6 4 12 -4t6 -23zM388 1305q19 0 58 -78q66 -119 136 -256
q31 -70 -4 -70q-20 0 -50 39q-14 24 -65 92t-70 96q-8 16 -18 2q-76 -117 -137 -194q-20 -31 -36 -31q-16 -1 -20 15t14 58t136 259q37 68 56 68z" />
    <glyph glyph-name="atilde" unicode="&#xe3;" horiz-adv-x="813" 
d="M366 86q44 0 109 35q9 6 19 30t10 181q0 16 -17 16q-84 0 -211 -61q-40 -29 -40 -83t43 -86t87 -32zM821 102q0 -34 -60 -80t-124 -47q-98 0 -131 103q0 2 -5 6t-7 2q-150 -106 -267 -106q-55 0 -98 57t-43 123t39 114q16 20 82 52q57 19 239 71q59 18 60 37q4 37 4 168
q0 45 -45 91t-107 46t-92 -22q-23 -10 -14 -84q0 -10 -12 -23q-14 -12 -70 -40t-64 -28t-16 10q-8 9 -8 17q0 80 154 181q43 31 101 54t89 23q119 0 184 -96q41 -57 41 -170l-8 -360q1 -43 19 -68q51 -69 141 -4q6 4 12 -4t6 -23zM254 1049q-18 0 -44 -30t-34 -30
q-8 1 -19 15t-11 17t16 26t49 57q67 68 96 61q68 -18 153 -18q86 0 106 15t46 48q6 6 24 -7t19 -21q0 -8 -6 -13l-127 -127q-12 -14 -21 -14t-105 10t-142 11z" />
    <glyph glyph-name="adieresis" unicode="&#xe4;" horiz-adv-x="813" 
d="M366 86q44 0 109 35q9 6 19 30t10 181q0 16 -17 16q-84 0 -211 -61q-40 -29 -40 -83t43 -86t87 -32zM821 102q0 -34 -60 -80t-124 -47q-98 0 -131 103q0 2 -5 6t-7 2q-150 -106 -267 -106q-55 0 -98 57t-43 123t39 114q16 20 82 52q57 19 239 71q59 18 60 37q4 37 4 168
q0 45 -45 91t-107 46t-92 -22q-23 -10 -14 -84q0 -10 -12 -23q-14 -12 -70 -40t-64 -28t-16 10q-8 9 -8 17q0 80 154 181q43 31 101 54t89 23q119 0 184 -96q41 -57 41 -170l-8 -360q1 -43 19 -68q51 -69 141 -4q6 4 12 -4t6 -23zM565 1227q35 0 62 -29q27 -28 27 -64
t-28 -63t-64 -27t-62 26t-27 66q1 40 29 66t63 25zM129 1133q-1 39 25 67t63 29q37 0 62 -29q25 -28 25 -68t-28 -64t-60 -24t-60 25t-27 64z" />
    <glyph glyph-name="aring" unicode="&#xe5;" horiz-adv-x="813" 
d="M366 86q44 0 109 35q9 6 19 30t10 181q0 16 -17 16q-84 0 -211 -61q-40 -29 -40 -83t43 -86t87 -32zM821 102q0 -34 -60 -80t-124 -47q-98 0 -131 103q0 2 -5 6t-7 2q-150 -106 -267 -106q-55 0 -98 57t-43 123t39 114q16 20 82 52q57 19 239 71q59 18 60 37q4 37 4 168
q0 45 -45 91t-107 46t-92 -22q-23 -10 -14 -84q0 -10 -12 -23q-14 -12 -70 -40t-64 -28t-16 10q-8 9 -8 17q0 80 154 181q43 31 101 54t89 23q119 0 184 -96q41 -57 41 -170l-8 -360q1 -43 19 -68q51 -69 141 -4q6 4 12 -4t6 -23zM383 1227q-39 0 -65 -31t-26 -77t28 -75
q26 -28 66 -28t66 28t26 76q0 47 -28 77t-67 30zM385 1288q74 0 120 -49t46 -117t-46 -118t-120 -50t-120 50t-46 118t46 117t120 49z" />
    <glyph glyph-name="ae" unicode="&#xe6;" horiz-adv-x="1150" 
d="M358 86q42 0 84 22t60 52q8 23 8 57v143q0 16 -29 11q-135 -45 -186 -75t-51 -85t36 -90t78 -35zM946 637q0 50 -41 80q-41 31 -103 31t-124 -56q-25 -20 -25 -65v-123q0 -4 7 -7t10 -1q160 39 227 71q49 20 49 70zM375 737q-113 0 -109 -72q2 -34 -6 -42
q-115 -78 -154 -78q-8 0 -16 8t-8 18q0 45 63 101q196 161 297 160q102 -1 179 -105q8 -8 16 0q141 104 245 104q104 1 161 -71q58 -72 59 -156q0 -12 -11 -27t-26 -20q-221 -61 -393 -115q-18 -8 -19 -24q0 -139 6 -182q19 -135 203 -136q79 0 137 35q20 11 45 29t33 23
q9 5 19 4t10 -7q0 -29 -14 -49q-43 -67 -129 -113t-183 -47q-160 0 -237 119q-12 12 -19 6q-172 -125 -244 -125q-72 -1 -130 59t-60 148q0 111 131 156q33 10 118 42t120 42t43 18t8 31v54l2 84q0 59 -18 77q-55 51 -119 51z" />
    <glyph glyph-name="ccedilla" unicode="&#xe7;" horiz-adv-x="802" 
d="M442 -25q-201 0 -315 166q-61 104 -61 236q0 227 202 364q121 86 261 86t208 -51q29 -23 29 -52t-25 -57t-40 -28t-25 5t-32 22q-23 18 -70 51t-130 35q-34 0 -72 -20t-61 -50q-86 -102 -86 -250t89 -238q90 -90 216 -92q126 0 203 70q9 8 17 5t8 -29t-27 -50
q-82 -84 -199 -110q-14 -20 -30 -40t-26 -34q-10 -12 -13 -19q-4 -7 14 -20q45 -23 68 -37t43 -45t20 -72q0 -86 -91 -158q-91 -73 -137 -73t-63 29q-14 31 -2 61q14 18 29 17q61 -13 89 -13t47 24q20 24 20 60t-35 63t-67 27t-44 -1t-23 11t-11 24q0 13 141 183h-19z" />
    <glyph glyph-name="egrave" unicode="&#xe8;" horiz-adv-x="802" 
d="M440 772q-62 0 -115 -40q-54 -40 -83 -111q-2 -7 1 -15t7 -8q90 -4 196 -2t122 12t16 48t-41 77t-103 39zM211 455q0 -131 78 -234q35 -49 97 -81t132 -31q137 0 187 73q16 25 26 25q17 0 17 -25t-15 -49q-104 -154 -297 -153q-166 0 -267 114t-101 293q0 127 64 238
q65 111 181 163q80 37 156 37q125 -1 200 -73t74 -177q0 -10 -11 -22t-27 -12q-373 0 -467 2q-27 0 -27 -88zM322 1335q23 0 53 -71q82 -170 125 -299q16 -51 -8 -52q-25 0 -48 33q-102 133 -190 287q-18 31 -18 55t32 35q25 12 54 12z" />
    <glyph glyph-name="eacute" unicode="&#xe9;" horiz-adv-x="802" 
d="M440 772q-62 0 -115 -40q-54 -40 -83 -111q-2 -7 1 -15t7 -8q90 -4 196 -2t122 12t16 48t-41 77t-103 39zM211 455q0 -131 78 -234q35 -49 97 -81t132 -31q137 0 187 73q16 25 26 25q17 0 17 -25t-15 -49q-104 -154 -297 -153q-166 0 -267 114t-101 293q0 127 64 238
q65 111 181 163q80 37 156 37q125 -1 200 -73t74 -177q0 -10 -11 -22t-27 -12q-373 0 -467 2q-27 0 -27 -88zM565 1323q63 0 75 -15t-7 -57q-80 -152 -182 -303q-27 -39 -53 -39t-9 56q43 131 127 315q20 43 49 43z" />
    <glyph glyph-name="ecircumflex" unicode="&#xea;" horiz-adv-x="802" 
d="M440 772q-62 0 -115 -40q-54 -40 -83 -111q-2 -7 1 -15t7 -8q90 -4 196 -2t122 12t16 48t-41 77t-103 39zM211 455q0 -131 78 -234q35 -49 97 -81t132 -31q137 0 187 73q16 25 26 25q17 0 17 -25t-15 -49q-104 -154 -297 -153q-166 0 -267 114t-101 293q0 127 64 238
q65 111 181 163q80 37 156 37q125 -1 200 -73t74 -177q0 -10 -11 -22t-27 -12q-373 0 -467 2q-27 0 -27 -88zM431 1313q19 0 58 -78q66 -119 136 -256q31 -70 -4 -70q-20 0 -50 39q-14 24 -65 92q-50 68 -64 90t-24 9q-76 -117 -137 -195q-21 -31 -37 -31q-16 -1 -20 15
t3 33q29 68 148 284q37 68 56 68z" />
    <glyph glyph-name="edieresis" unicode="&#xeb;" horiz-adv-x="802" 
d="M440 772q-62 0 -115 -40q-54 -40 -83 -111q-2 -7 1 -15t7 -8q90 -4 196 -2t122 12t16 48t-41 77t-103 39zM211 455q0 -131 78 -234q35 -49 97 -81t132 -31q137 0 187 73q16 25 26 25q17 0 17 -25t-15 -49q-104 -154 -297 -153q-166 0 -267 114t-101 293q0 127 64 238
q65 111 181 163q80 37 156 37q125 -1 200 -73t74 -177q0 -10 -11 -22t-27 -12q-373 0 -467 2q-27 0 -27 -88zM612 1227q35 0 62 -29q26 -28 26 -64t-28 -63t-63 -27q-37 0 -63 26t-26 66t28 66t64 25zM176 1133q0 39 26 67t62 29q37 0 62 -29q24 -28 24 -68t-26 -64t-60 -24
q-32 0 -60 25t-28 64z" />
    <glyph glyph-name="igrave" unicode="&#xec;" horiz-adv-x="518" 
d="M92 735q0 23 43 32t119 38t82 30t12 -9t6 -13l-12 -405q0 -279 7 -296q7 -18 11 -25t18 -14t17 -9q5 -2 25 -8q70 -17 69 -42q0 -20 -47 -20l-159 6l-174 -8q-53 0 -54 22q0 18 49 33q74 18 82 57q8 38 8 278t-1 256q-2 16 -80 71q-21 12 -21 26zM123 1335q23 0 53 -71
q82 -170 125 -299q16 -51 -8 -52q-25 0 -47 33q-102 133 -191 287q-18 31 -18 55t33 35q24 12 53 12z" />
    <glyph glyph-name="iacute" unicode="&#xed;" horiz-adv-x="518" 
d="M92 735q0 23 43 32t119 38t82 30t12 -9t6 -13l-12 -405q0 -279 7 -296q7 -18 11 -25t18 -14t17 -9q5 -2 25 -8q70 -17 69 -42q0 -20 -47 -20l-159 6l-174 -8q-53 0 -54 22q0 18 49 33q74 18 82 57q8 38 8 278t-1 256q-2 16 -80 71q-21 12 -21 26zM381 1323q63 0 75 -15
t-7 -57q-80 -152 -183 -303q-26 -39 -52 -39t-9 56q43 131 127 315q20 43 49 43z" />
    <glyph glyph-name="icircumflex" unicode="&#xee;" horiz-adv-x="518" 
d="M92 735q0 23 43 32t119 38t82 30t12 -9t6 -13l-12 -405q0 -279 7 -296q7 -18 11 -25t18 -14t17 -9q5 -2 25 -8q70 -17 69 -42q0 -20 -47 -20l-159 6l-174 -8q-53 0 -54 22q0 18 49 33q74 18 82 57q8 38 8 278t-1 256q-2 16 -80 71q-21 12 -21 26zM263 1313q19 -1 72 -99
t122 -235q31 -70 -4 -70q-20 0 -50 39q-14 24 -65 92q-50 68 -64 90t-24 9q-76 -117 -137 -195q-21 -31 -37 -31q-16 -1 -20 15t3 33q29 68 148 284q37 68 56 68z" />
    <glyph glyph-name="idieresis" unicode="&#xef;" horiz-adv-x="518" 
d="M92 735q0 23 43 32t119 38t82 30t12 -9t6 -13l-12 -405q0 -279 7 -296q7 -18 11 -25t18 -14t17 -9q5 -2 25 -8q70 -17 69 -42q0 -20 -47 -20l-159 6l-174 -8q-53 0 -54 22q0 18 49 33q74 18 82 57q8 38 8 278t-1 256q-2 16 -80 71q-21 12 -21 26zM440 1227q35 0 62 -29
q26 -28 26 -64t-28 -63t-63 -27q-37 0 -63 26t-26 66t28 66t64 25zM4 1133q0 39 26 67t62 29q37 0 62 -29q24 -28 24 -68t-26 -64t-60 -24q-32 0 -60 25t-28 64z" />
    <glyph glyph-name="eth" unicode="&#xf0;" horiz-adv-x="983" 
d="M484 760q-108 0 -175 -100t-67 -242t78 -259q78 -118 198 -118q90 0 160 121q61 114 61 276t-57 228q-90 94 -198 94zM131 1434q0 10 11 19t28 9q88 0 216 -61t224 -144q4 -4 14 -5t97 46q87 48 107 59q34 19 38 -19t-30 -60q-111 -57 -146 -78q-14 -8 -2 -20
q211 -260 211 -652q0 -330 -194 -477q-102 -76 -220 -76q-176 0 -298 120t-121 306q0 125 71 236q55 84 163 138t210 54t178 -32q8 -4 15 0t6 12q-33 174 -131 305q-12 16 -27 8q-201 -94 -245 -116t-44 4q-4 39 16 51q19 12 222 117q10 6 6 16q-74 76 -168 133t-172 78
q-35 6 -35 29z" />
    <glyph glyph-name="ntilde" unicode="&#xf1;" horiz-adv-x="1067" 
d="M109 729q0 25 36 41q107 38 141 60t43 22t16 -11t7 -20l-8 -102q0 -6 12 -6q166 113 280 113t184 -82q70 -80 69 -246q0 -287 6 -373q6 -53 76 -72q51 -14 51 -36t-61 -21l-152 4l-141 -4q-47 0 -47 24q0 18 42 34t54 34t16 95t4 349q0 52 -19 94t-42 58q-52 39 -146 39
t-168 -66q-20 -20 -20 -49q0 -468 2 -492t16 -37t56 -25t41 -31q0 -25 -51 -25l-125 2l-170 -6q-53 0 -54 26q0 18 46 32t63 36q16 24 23 102t8 424q0 39 -50 80q-38 27 -38 35zM387 1051q-19 1 -45 -29t-34 -30t-18 14q-11 14 -11 17t16 26t49 57q68 69 96 61
q68 -18 153 -18t105 15t47 48q7 6 25 -7t18 -21t-6 -13l-127 -127q-12 -14 -22 -14q-11 0 -105 10t-141 11z" />
    <glyph glyph-name="ograve" unicode="&#xf2;" horiz-adv-x="987" 
d="M473 766q-63 0 -133 -59q-41 -39 -71 -112q-29 -73 -29 -164t30 -185t106 -152q75 -59 143 -59t136 67q37 41 65 122t28 149q0 195 -103 313q-74 80 -172 80zM506 827q168 -1 292 -117t124 -300q0 -117 -56 -213t-123 -140q-113 -82 -256 -82t-270 107q-66 53 -108 144
q-43 91 -43 169q0 199 143 320q129 112 297 112zM377 1339q23 0 53 -71q82 -170 125 -299q15 -51 -9 -51t-46 32q-102 133 -191 287q-18 31 -18 55t33 35q24 12 53 12z" />
    <glyph glyph-name="oacute" unicode="&#xf3;" horiz-adv-x="987" 
d="M473 766q-63 0 -133 -59q-41 -39 -71 -112q-29 -73 -29 -164t30 -185t106 -152q75 -59 143 -59t136 67q37 41 65 122t28 149q0 195 -103 313q-74 80 -172 80zM506 827q168 -1 292 -117t124 -300q0 -117 -56 -213t-123 -140q-113 -82 -256 -82t-270 107q-66 53 -108 144
q-43 91 -43 169q0 199 143 320q129 112 297 112zM612 1323q64 0 76 -15t-8 -57q-80 -152 -182 -303q-27 -39 -53 -39t-9 56q43 131 127 315q23 43 49 43z" />
    <glyph glyph-name="ocircumflex" unicode="&#xf4;" horiz-adv-x="987" 
d="M473 766q-63 0 -133 -59q-41 -39 -71 -112q-29 -73 -29 -164t30 -185t106 -152q75 -59 143 -59t136 67q37 41 65 122t28 149q0 195 -103 313q-74 80 -172 80zM506 827q168 -1 292 -117t124 -300q0 -117 -56 -213t-123 -140q-113 -82 -256 -82t-270 107q-66 53 -108 144
q-43 91 -43 169q0 199 143 320q129 112 297 112zM491 1313q19 0 58 -78q66 -119 135 -256q31 -70 -4 -70q-20 0 -42 31q-22 32 -72 100q-52 68 -65 90t-24 9q-76 -117 -137 -195q-20 -31 -36 -31q-16 -1 -20 15q-3 16 3 33q29 68 147 284q38 68 57 68z" />
    <glyph glyph-name="otilde" unicode="&#xf5;" horiz-adv-x="987" 
d="M473 766q-63 0 -133 -59q-41 -39 -71 -112q-29 -73 -29 -164t30 -185t106 -152q75 -59 143 -59t136 67q37 41 65 122t28 149q0 195 -103 313q-74 80 -172 80zM506 827q168 -1 292 -117t124 -300q0 -117 -56 -213t-123 -140q-113 -82 -256 -82t-270 107q-66 53 -108 144
q-43 91 -43 169q0 199 143 320q129 112 297 112zM346 1036q-18 0 -44 -30t-34 -29q-8 0 -19 14q-11 13 -11 17t16 26q51 72 115 111q14 12 30 8q68 -18 153 -18q86 0 106 15t47 48q6 6 31 -12t5 -29l-127 -127q-12 -14 -22 -14t-104 10t-142 10z" />
    <glyph glyph-name="odieresis" unicode="&#xf6;" horiz-adv-x="987" 
d="M473 766q-63 0 -133 -59q-41 -39 -71 -112q-29 -73 -29 -164t30 -185t106 -152q75 -59 143 -59t136 67q37 41 65 122t28 149q0 195 -103 313q-74 80 -172 80zM506 827q168 -1 292 -117t124 -300q0 -117 -56 -213t-123 -140q-113 -82 -256 -82t-270 107q-66 53 -108 144
q-43 91 -43 169q0 199 143 320q129 112 297 112zM672 1227q36 0 62 -29q26 -28 26 -64t-28 -63t-64 -27t-62 26t-26 66t28 66t64 25zM324 1229q38 0 62 -29q24 -28 24 -68t-27 -64t-59 -24t-61 25q-28 25 -27 64q0 39 26 67t62 29z" />
    <glyph glyph-name="divide" unicode="&#xf7;" horiz-adv-x="1277" 
d="M1122 573q20 0 26 -4q6 -3 5 -29q0 -26 -9 -50t-20 -23h-958q-29 0 -36 5t-7 27q0 23 9 49t22 25h968zM640 745q-44 0 -76 32t-32 76t32 77t76 33t75 -33t31 -77t-32 -76q-30 -32 -74 -32zM636 285q44 0 75 -32t31 -76t-30 -77q-30 -32 -75 -32t-77 32t-32 77q0 44 32 76
t76 32z" />
    <glyph glyph-name="oslash" unicode="&#xf8;" horiz-adv-x="987" 
d="M481 766q-82 0 -132 -45t-82 -122t-31 -155q0 -147 51 -231q6 -13 20 -4q119 154 342 459q2 4 -6 22q-80 76 -162 76zM516 35q80 0 143 65q37 43 65 127q28 85 28 183t-47 192q-5 12 -11 12t-8 -2q-53 -70 -168 -224t-176 -232q-8 -13 2 -29q92 -92 172 -92zM516 827
q96 0 193 -51q10 -10 18 0l53 64q18 18 30 18t24 -15t3 -27t-25 -35q-16 -22 -30 -42q-4 -10 4 -18q135 -129 136 -326q0 -102 -58 -201t-121 -141q-106 -78 -254 -78q-100 0 -210 64q-16 8 -23 0l-70 -84q-8 -8 -18 -2q-37 27 -23 41q37 49 64 80q6 6 -8 20
q-135 127 -135 295q0 205 141 324q131 114 309 114z" />
    <glyph glyph-name="ugrave" unicode="&#xf9;" horiz-adv-x="1019" 
d="M498 78q80 0 161 72q31 27 31 49l4 471q0 8 -12 24t-23 21q-82 23 -94 24q-41 12 -41 33q0 6 16 12t31 7q133 0 190 15t79 15q14 1 12 -41q-18 -374 -18 -669q0 -5 7 -17t17 -12l103 10q12 0 24 -39q0 -4 -8 -12q-7 -8 -37 -10q-30 -3 -128 -29t-106 -26q-6 0 -14 8
q-8 10 -8 22t4 52t1 44t-7 2q-131 -90 -179 -110t-126 -19q-119 0 -180 97q-29 45 -29 96q0 478 -4 498t-10 27t-10 13q-8 13 -50 26q-43 14 -43 40q0 18 35 19l217 22q16 0 16 -31l-6 -549q0 -78 52 -114q53 -41 133 -41zM369 1335q23 0 53 -71q82 -170 125 -299
q16 -51 -8 -52q-25 0 -47 33q-102 133 -191 287q-18 31 -18 55t32 35q25 12 54 12z" />
    <glyph glyph-name="uacute" unicode="&#xfa;" horiz-adv-x="1019" 
d="M498 78q80 0 161 72q31 27 31 49l4 471q0 8 -12 24t-23 21q-82 23 -94 24q-41 12 -41 33q0 6 16 12t31 7q133 0 190 15t79 15q14 1 12 -41q-18 -374 -18 -669q0 -5 7 -17t17 -12l103 10q12 0 24 -39q0 -4 -8 -12q-7 -8 -37 -10q-30 -3 -128 -29t-106 -26q-6 0 -14 8
q-8 10 -8 22t4 52t1 44t-7 2q-131 -90 -179 -110t-126 -19q-119 0 -180 97q-29 45 -29 96q0 478 -4 498t-10 27t-10 13q-8 13 -50 26q-43 14 -43 40q0 18 35 19l217 22q16 0 16 -31l-6 -549q0 -78 52 -114q53 -41 133 -41zM604 1325q64 0 76 -15t-8 -57q-80 -152 -183 -303
q-27 -39 -53 -39t-8 56q43 131 127 315q23 43 49 43z" />
    <glyph glyph-name="ucircumflex" unicode="&#xfb;" horiz-adv-x="1019" 
d="M498 78q80 0 161 72q31 27 31 49l4 471q0 8 -12 24t-23 21q-82 23 -94 24q-41 12 -41 33q0 6 16 12t31 7q133 0 190 15t79 15q14 1 12 -41q-18 -374 -18 -669q0 -5 7 -17t17 -12l103 10q12 0 24 -39q0 -4 -8 -12q-7 -8 -37 -10q-30 -3 -128 -29t-106 -26q-6 0 -14 8
q-8 10 -8 22t4 52t1 44t-7 2q-131 -90 -179 -110t-126 -19q-119 0 -180 97q-29 45 -29 96q0 478 -4 498t-10 27t-10 13q-8 13 -50 26q-43 14 -43 40q0 18 35 19l217 22q16 0 16 -31l-6 -549q0 -78 52 -114q53 -41 133 -41zM491 1313q19 0 58 -78q66 -119 135 -256
q31 -70 -4 -70q-20 0 -42 31q-22 32 -72 100q-52 68 -65 90t-24 9q-76 -117 -137 -195q-20 -31 -36 -31q-16 -1 -20 15q-3 16 3 33q29 68 147 284q38 68 57 68z" />
    <glyph glyph-name="udieresis" unicode="&#xfc;" horiz-adv-x="1019" 
d="M498 78q80 0 161 72q31 27 31 49l4 471q0 8 -12 24t-23 21q-82 23 -94 24q-41 12 -41 33q0 6 16 12t31 7q133 0 190 15t79 15q14 1 12 -41q-18 -374 -18 -669q0 -5 7 -17t17 -12l103 10q12 0 24 -39q0 -4 -8 -12q-7 -8 -37 -10q-30 -3 -128 -29t-106 -26q-6 0 -14 8
q-8 10 -8 22t4 52t1 44t-7 2q-131 -90 -179 -110t-126 -19q-119 0 -180 97q-29 45 -29 96q0 478 -4 498t-10 27t-10 13q-8 13 -50 26q-43 14 -43 40q0 18 35 19l217 22q16 0 16 -31l-6 -549q0 -78 52 -114q53 -41 133 -41zM657 1227q35 0 62 -29q27 -28 27 -64t-28 -63
t-64 -27t-62 26t-27 66q1 40 29 66t63 25zM221 1133q-1 39 25 67t63 29q37 0 62 -29q25 -28 25 -68t-28 -64q-26 -24 -59 -24t-61 25t-27 64z" />
    <glyph glyph-name="yacute" unicode="&#xfd;" horiz-adv-x="847" 
d="M-10 780q0 25 49 25l160 -8l143 4q45 0 45 -23t-45 -35t-52 -25q-6 -12 12 -68t90 -232q81 -199 88 -199q6 1 18 25t80 200t78 211t-5 57t-67 34t-52 30q0 25 52 25l121 -4l129 8q41 0 40 -19q0 -20 -53 -37t-92 -104q-157 -355 -286 -706q-130 -351 -144 -392
q-26 -75 -115 -75q-48 0 -70 30t-22 66q0 34 26 64t64 30l74 -2q16 0 31 35q12 23 49 123t49 141q12 59 8 67t-35 96q-31 87 -126 314t-109 246q-14 20 -28 35t-59 31q-46 16 -46 32zM590 1323q64 0 76 -15t-9 -57q-80 -152 -182 -303q-27 -39 -53 -39t-8 56q43 131 127 315
q20 43 49 43z" />
    <glyph glyph-name="thorn" unicode="&#xfe;" horiz-adv-x="978" 
d="M483 723q-121 0 -157 -27q-20 -16 -26 -61t-8 -177q-1 -132 4 -196t23 -90q39 -55 99 -88t110 -33q49 0 86 35q70 57 104 147t34 152q0 233 -177 312q-55 26 -92 26zM145 6v569q0 483 -8 682q0 31 -10 41q-15 10 -29 20q-19 14 -37 26t-18 19t16 19t23 15l65 16
q68 17 98 33t36 16t15 -8t9 -13t-8 -689q1 -22 33 -2t102 46t142 25q144 1 243 -111q98 -112 98 -270q0 -88 -43 -186t-133 -166q-131 -102 -315 -102q-72 0 -109 6q-4 0 -12 -9t-8 -18q0 -283 5 -333q4 -50 24 -72t73 -39q59 -14 60 -35q0 -27 -54 -27l-243 11l-133 -5
q-59 0 -60 29q-1 21 65 36t84 41q29 45 29 435z" />
    <glyph glyph-name="ydieresis" unicode="&#xff;" horiz-adv-x="847" 
d="M-10 780q0 25 49 25l160 -8l143 4q45 0 45 -23t-45 -35t-52 -25q-6 -12 12 -68t90 -232q81 -199 88 -199q6 1 18 25t80 200t78 211t-5 57t-67 34t-52 30q0 25 52 25l121 -4l129 8q41 0 40 -19q0 -20 -53 -37t-92 -104q-157 -355 -286 -706q-130 -351 -144 -392
q-26 -75 -115 -75q-48 0 -70 30t-22 66q0 34 26 64t64 30l74 -2q16 0 31 35q12 23 49 123t49 141q12 59 8 67t-35 96q-31 87 -126 314t-109 246q-14 20 -28 35t-59 31q-46 16 -46 32zM627 1227q35 0 61 -29q26 -28 27 -64q0 -36 -28 -63q-27 -27 -63 -27t-63 26t-27 66
t30 66q28 26 63 25zM190 1133q0 39 26 67t63 29q37 0 61 -29q24 -28 25 -68q0 -40 -27 -64t-60 -24q-32 0 -60 25t-28 64z" />
    <glyph glyph-name="Amacron" unicode="&#x100;" horiz-adv-x="1384" 
d="M469 1482q0 26 11 56q12 31 20 31l440 12q6 0 19 -28t-6 -60q-19 -33 -31 -33l-435 -4q-18 0 -18 26zM496 614q211 0 319 7q2 0 5 6t1 10q-133 399 -159 440q-8 18 -17 0q-141 -377 -160 -448q-4 -14 11 -15zM8 10q0 27 45 41q84 29 116 55t70 111q38 86 211 532
q174 445 174 459t32 60q31 46 34 61q23 25 35 25q11 0 27 -46t152 -428q136 -380 210 -560t110 -216q36 -35 97 -51t61 -37q0 -27 -65 -26l-258 10l-146 -4q-63 0 -63 24t47 34q95 18 88 62q-2 18 -9 64t-110 328q-6 20 -69 20q-279 0 -313 -4t-46 -20q-106 -266 -106 -359
q0 -57 100 -88q55 -16 55 -37q0 -27 -57 -26l-162 6l-213 -10q-47 0 -47 20z" />
    <glyph glyph-name="amacron" unicode="&#x101;" horiz-adv-x="813" 
d="M366 86q44 0 109 35q9 6 19 30t10 181q0 16 -17 16q-84 0 -211 -61q-40 -29 -40 -83t43 -86t87 -32zM821 102q0 -34 -60 -80t-124 -47q-98 0 -131 103q0 2 -5 6t-7 2q-150 -106 -267 -106q-55 0 -98 57t-43 123t39 114q16 20 82 52q57 19 239 71q59 18 60 37q4 37 4 168
q0 45 -45 91t-107 46t-92 -22q-23 -10 -14 -84q0 -10 -12 -23q-14 -12 -70 -40t-64 -28t-16 10q-8 9 -8 17q0 80 154 181q43 31 101 54t89 23q119 0 184 -96q41 -57 41 -170l-8 -360q1 -43 19 -68q51 -69 141 -4q6 4 12 -4t6 -23zM633 1134q0 -20 -12 -46t-31 -25h-418
q-16 -1 -16 27t10 56t20 28l428 8q6 0 12 -14t7 -34z" />
    <glyph glyph-name="Abreve" unicode="&#x102;" horiz-adv-x="1384" 
d="M714 1419q-106 1 -172 55t-79 138q-2 12 4 26q14 32 49 -10q78 -92 202 -92t195 86q23 27 40 27t12 -31q-14 -74 -79 -136q-66 -62 -172 -63zM496 614q211 0 319 7q2 0 5 6t1 10q-133 399 -159 440q-8 18 -17 0q-141 -377 -160 -448q-4 -14 11 -15zM8 10q0 27 45 41
q84 29 116 55t70 111q38 86 211 532q174 445 174 459t32 60q31 46 34 61q23 25 35 25q11 0 27 -46t152 -428q136 -380 210 -560t110 -216q36 -35 97 -51t61 -37q0 -27 -65 -26l-258 10l-146 -4q-63 0 -63 24t47 34q95 18 88 62q-2 18 -9 64t-110 328q-6 20 -69 20
q-279 0 -313 -4t-46 -20q-106 -266 -106 -359q0 -57 100 -88q55 -16 55 -37q0 -27 -57 -26l-162 6l-213 -10q-47 0 -47 20z" />
    <glyph glyph-name="abreve" unicode="&#x103;" horiz-adv-x="813" 
d="M366 86q44 0 109 35q9 6 19 30t10 181q0 16 -17 16q-84 0 -211 -61q-40 -29 -40 -83t43 -86t87 -32zM821 102q0 -34 -60 -80t-124 -47q-98 0 -131 103q0 2 -5 6t-7 2q-150 -106 -267 -106q-55 0 -98 57t-43 123t39 114q16 20 82 52q57 19 239 71q59 18 60 37q4 37 4 168
q0 45 -45 91t-107 46t-92 -22q-23 -10 -14 -84q0 -10 -12 -23q-14 -12 -70 -40t-64 -28t-16 10q-8 9 -8 17q0 80 154 181q43 31 101 54t89 23q119 0 184 -96q41 -57 41 -170l-8 -360q1 -43 19 -68q51 -69 141 -4q6 4 12 -4t6 -23zM396 973q-197 0 -218 215q-2 29 8 43t23 14
q18 0 31 -41q34 -121 154 -121t165 125q5 14 19 24t25 11q11 0 11 -49q-10 -84 -68 -152t-150 -69z" />
    <glyph glyph-name="Aogonek" unicode="&#x104;" horiz-adv-x="1384" 
d="M504 614q197 0 305 7q2 0 8 6t4 10q-133 399 -159 440q-8 18 -17 0q-137 -369 -158 -444q0 -18 17 -19zM8 8q0 27 45 41q84 29 116 55t70 113q38 86 211 532q174 445 174 459t32 60q31 46 34 61q23 25 35 25q11 0 27 -46t152 -428q136 -380 212 -562q74 -182 109 -217
q35 -36 96 -51t61 -40q0 -24 -48 -24t-142 8q-86 -78 -132 -161t-46 -135t32 -81t86 -29t111 31q8 4 14 -1q7 -4 7 -24t-15 -34q-61 -100 -202 -101q-87 1 -137 53t-50 132t77 179t193 175q-25 2 -71 2l-146 -4q-63 0 -63 24t47 34q95 18 88 62q-2 18 -9 64t-110 328
q-6 20 -82 20q-264 0 -321 -8q-12 0 -27 -22q-104 -260 -104 -353q0 -59 100 -90q55 -16 55 -37q0 -27 -57 -26l-162 8l-213 -12q-47 0 -47 20z" />
    <glyph glyph-name="aogonek" unicode="&#x105;" horiz-adv-x="813" 
d="M372 88q52 0 115 39q25 16 28 59t3 146q0 16 -28 13t-173 -40q-74 -20 -73 -98q0 -49 38 -84t90 -35zM584 -265q0 -108 110 -108q54 0 103 41q10 10 15 5t5 -18q-1 -13 -19 -47t-69 -69t-126 -35t-120 52t-45 125q0 135 211 294q-88 4 -123 93q-8 23 -24 12
q-49 -28 -133 -66t-131 -38q-46 0 -96 62t-50 134t24 103t89 55q16 8 127 35q112 27 150 37t40 30t2 176q0 45 -42 85t-107 40t-105 -22q-8 -6 -8 -43t-6 -44t-72 -38t-72 -31t-19 11q-11 11 -11 20q0 66 170 176q98 65 186 65q123 0 187 -92q45 -63 45 -172l-8 -360
q0 -57 24 -81t58 -24q32 0 52 16q44 33 44 -12q0 -36 -82 -98t-128 -140t-46 -129z" />
    <glyph glyph-name="Cacute" unicode="&#x106;" horiz-adv-x="1468" 
d="M682 1468q0 14 27 35q120 103 276 207q31 20 53 11t42 -28q53 -49 -19 -91q-182 -100 -307 -148q-49 -20 -70 0q-2 0 -2 14zM883 1354q102 0 241 -33q29 -5 85 -21t71 -18q31 0 31 -61q0 -20 14 -179q2 -31 -8 -49q-9 -18 -23 -18t-32 53q-29 111 -84 154
q-143 106 -328 106q-240 0 -390 -171t-151 -410q0 -195 76 -349t224 -235q147 -82 283 -82t230 55q111 57 191 199q33 53 45 53t16 -24t0 -52t-31 -94t-51 -104q-12 -30 -56 -50t-155 -40t-225 -21q-194 0 -350 75t-232 165q-172 199 -172 471q0 158 72 291t154 200
q231 189 555 189z" />
    <glyph glyph-name="cacute" unicode="&#x107;" horiz-adv-x="802" 
d="M532 821q131 0 191 -47q31 -20 31 -52t-30 -62t-46 -30t-46 22q-32 22 -47 33t-19 14t-18 13q-90 66 -180 18q-38 -20 -61 -50q-86 -96 -86 -228t53 -212q39 -62 109 -100q71 -38 157 -38t175 62q17 14 28 10t11 -10q0 -33 -27 -60q-53 -59 -133 -93t-168 -34
q-88 1 -167 45t-130 119q-63 104 -63 240q0 221 198 354q55 39 137 63t131 23zM571 1323q63 0 75 -15t-7 -57q-80 -152 -182 -303q-27 -39 -53 -39t-9 56q43 131 127 315q23 43 49 43z" />
    <glyph glyph-name="Ccircumflex" unicode="&#x108;" horiz-adv-x="1468" 
d="M830 1686q24 0 79 -46q143 -124 173 -146t18 -42q-4 -8 -28 -8t-81 30t-93 46q-36 18 -53 27t-61 -11t-151 -74l-55 -18q-55 0 0 49q34 34 180 154q48 39 72 39zM883 1354q102 0 241 -33q29 -5 85 -21t71 -18q31 0 31 -61q0 -20 14 -179q2 -31 -8 -49q-9 -18 -23 -18
t-32 53q-29 111 -84 154q-143 106 -328 106q-240 0 -390 -171t-151 -410q0 -195 76 -349t224 -235q147 -82 283 -82t230 55q111 57 191 199q33 53 45 53t16 -24t0 -52t-31 -94t-51 -104q-12 -30 -56 -50t-155 -40t-225 -21q-194 0 -350 75t-232 165q-172 199 -172 471
q0 158 72 291t154 200q231 189 555 189z" />
    <glyph glyph-name="ccircumflex" unicode="&#x109;" horiz-adv-x="802" 
d="M532 821q131 0 191 -47q31 -20 31 -52t-30 -62t-46 -30t-46 22q-32 22 -47 33t-19 14t-18 13q-90 66 -180 18q-38 -20 -61 -50q-86 -96 -86 -228t53 -212q39 -62 109 -100q71 -38 157 -38t175 62q17 14 28 10t11 -10q0 -33 -27 -60q-53 -59 -133 -93t-168 -34
q-88 1 -167 45t-130 119q-63 104 -63 240q0 221 198 354q55 39 137 63t131 23zM448 1313q19 0 58 -78q66 -119 135 -256q31 -70 -4 -70q-19 0 -41 31q-22 32 -74 100t-64 90q-13 22 -24 9q-76 -117 -137 -195q-21 -31 -37 -31q-16 -1 -19 15t3 33q29 68 147 284q38 68 57 68
z" />
    <glyph glyph-name="Cdotaccent" unicode="&#x10a;" horiz-adv-x="1468" 
d="M854 1669q45 0 72 -35q26 -36 26 -78t-32 -72t-70 -30q-37 0 -70 29q-32 29 -32 75t30 78t76 33zM883 1354q102 0 241 -33q29 -5 85 -21t71 -18q31 0 31 -61q0 -20 14 -179q2 -31 -8 -49q-9 -18 -23 -18t-32 53q-29 111 -84 154q-143 106 -328 106q-240 0 -390 -171
t-151 -410q0 -195 76 -349t224 -235q147 -82 283 -82t230 55q111 57 191 199q33 53 45 53t16 -24t0 -52t-31 -94t-51 -104q-12 -30 -56 -50t-155 -40t-225 -21q-194 0 -350 75t-232 165q-172 199 -172 471q0 158 72 291t154 200q231 189 555 189z" />
    <glyph glyph-name="cdotaccent" unicode="&#x10b;" horiz-adv-x="802" 
d="M532 821q131 0 191 -47q31 -20 31 -52t-30 -62t-46 -30t-46 22q-32 22 -47 33t-19 14t-18 13q-90 66 -180 18q-38 -20 -61 -50q-86 -96 -86 -228t53 -212q39 -62 109 -100q71 -38 157 -38t175 62q17 14 28 10t11 -10q0 -33 -27 -60q-53 -59 -133 -93t-168 -34
q-88 1 -167 45t-130 119q-63 104 -63 240q0 221 198 354q55 39 137 63t131 23zM473 1239q43 0 68 -33q25 -32 25 -72t-32 -69q-30 -29 -65 -29t-67 26t-32 71t30 75t73 31z" />
    <glyph glyph-name="Ccaron" unicode="&#x10c;" horiz-adv-x="1468" 
d="M829 1450q-25 0 -57 27t-98 81t-96 82q-14 8 -20 22q-12 31 22 32l55 -19q66 -29 184 -90q16 -6 36 4l80 40q60 30 91 44l57 19q59 0 0 -56q-14 -10 -82 -68t-108 -88q-39 -30 -64 -30zM883 1354q102 0 241 -33q29 -5 85 -21t71 -18q31 0 31 -61q0 -20 14 -179
q2 -31 -8 -49q-9 -18 -23 -18t-32 53q-29 111 -84 154q-143 106 -328 106q-240 0 -390 -171t-151 -410q0 -195 76 -349t224 -235q147 -82 283 -82t230 55q111 57 191 199q33 53 45 53t16 -24t0 -52t-31 -94t-51 -104q-12 -30 -56 -50t-155 -40t-225 -21q-194 0 -350 75
t-232 165q-172 199 -172 471q0 158 72 291t154 200q231 189 555 189z" />
    <glyph glyph-name="ccaron" unicode="&#x10d;" horiz-adv-x="802" 
d="M532 821q131 0 191 -47q31 -20 31 -52t-30 -62t-46 -30t-46 22q-32 22 -47 33t-19 14t-18 13q-90 66 -180 18q-38 -20 -61 -50q-86 -96 -86 -228t53 -212q39 -62 109 -100q71 -38 157 -38t175 62q17 14 28 10t11 -10q0 -33 -27 -60q-53 -59 -133 -93t-168 -34
q-88 1 -167 45t-130 119q-63 104 -63 240q0 221 198 354q55 39 137 63t131 23zM452 907q-22 0 -61 80q-70 127 -133 256q-33 68 4 68q20 0 48 -37t132 -189q14 -14 23 -4q23 37 135 197q18 29 36 29q34 0 18 -42q-25 -67 -82 -171q-58 -105 -64 -117q-34 -70 -56 -70z" />
    <glyph glyph-name="Dcaron" unicode="&#x10e;" horiz-adv-x="1546" 
d="M688 1436q-24 0 -56 26t-81 66q-49 39 -115 98q-14 8 -19 22q-12 32 21 31l56 -18q66 -29 184 -90q16 -6 36 4l80 40q60 30 91 44l57 18q57 0 0 -55q-14 -10 -82 -68t-108 -88q-39 -30 -64 -30zM604 1272q-115 0 -138 -14t-26 -29q-8 -49 -8 -389v-297q0 -233 8 -355
q6 -72 45 -96q77 -53 193 -53q60 0 170 34q111 34 188 99q211 180 211 512q0 133 -60 263q-59 131 -147 195t-204 97t-232 33zM1446 684q0 -206 -100 -364t-228 -228q-199 -115 -487 -115q-185 -1 -313 9t-196 10t-67 31q0 25 45 28q102 12 128 51t31 175t5 327t-10 471
q-4 104 -22 135t-109 43q-47 8 -47 34t49 26h57l510 18q193 0 339 -61t229 -137q82 -80 134 -206t52 -247z" />
    <glyph glyph-name="dcaron" unicode="&#x10f;" horiz-adv-x="1021" 
d="M1068 1446q22 0 23 -42t-21 -138t-35 -135q-29 -86 -58 -84q-8 0 -14 16t-5 33q8 147 -12 262q0 14 12 27t50 37t60 24zM481 760q-92 0 -164 -72q-33 -34 -59 -106t-27 -152q0 -131 83 -242t208 -110q82 0 150 49q9 9 20 58q12 49 13 77q2 197 -7 340q-4 37 -45 78
q-80 80 -172 80zM420 -20q-150 0 -256 112q-98 111 -98 281q0 248 217 377q127 77 270 77q81 0 109 -5t32 2q12 21 12 207t-8 229q-8 37 -96 83q-20 13 -20 19t13 19t21 16q90 11 158 37t76 26t14 -10t4 -23q-18 -195 -18 -677t4 -582t33 -100l110 16q28 0 -1 -42
q-13 -19 -21 -22q-127 -20 -185 -40t-68 -20t-20 8q-8 9 -8 18l4 84q0 12 -12 12q-116 -102 -266 -102z" />
    <glyph glyph-name="Dcroat" unicode="&#x110;" horiz-adv-x="1546" 
d="M1247 684q0 133 -60 263t-159 206q-76 55 -192 87t-232 32q-115 0 -137 -14q-21 -14 -25 -28q-4 -13 -5 -95t-2 -206t-3 -192q0 -20 14 -20h353q33 0 32 -17q0 -20 -8 -40t-18 -19l-361 -4q-12 0 -12 -21q6 -379 11 -440t42 -84q77 -53 193 -53q60 0 170 34
q109 34 188 99q211 180 211 512zM76 1288q0 29 49 29h59l508 18q193 0 339 -61t229 -137q82 -80 134 -206t52 -247q0 -206 -100 -364t-228 -228q-199 -115 -487 -115q-185 -1 -313 9t-196 10t-67 31q0 23 43 30q104 11 131 51t29 164l4 342q0 23 -12 23l-150 2q-26 0 -26 38
t16 38l156 2q16 0 16 22q-8 220 -8 340q-4 104 -22 135t-109 43q-47 8 -47 31z" />
    <glyph glyph-name="dcroat" unicode="&#x111;" horiz-adv-x="1021" 
d="M469 752q-47 0 -92 -23t-68 -53q-73 -94 -73 -238t78 -249q79 -105 206 -105q98 0 160 45q23 20 25 94v365q0 41 -39 90q-64 74 -197 74zM850 492q0 -241 6 -363q4 -55 37 -55q18 0 58 10t46 7q7 -3 7 -17t-12 -32t-25 -22q-106 -12 -173 -36t-75 -23q-25 0 -25 27l6 67
q0 14 -16 15q-166 -94 -262 -95q-152 0 -248 113q-109 115 -108 281q0 250 219 379q129 80 268 79q72 0 133 -16q6 -2 11 6t10 111q8 172 -13 174l-217 2q-14 0 -14 18t8 34t14 18h213q8 0 9 22v70q1 35 -15 50t-57 26t-41 47q0 18 39 22q119 20 157 36q38 15 56 15t18 -39
l-6 -229q0 -16 10 -16h138q16 0 12 -31t-10 -37t-21 -6l-119 -2q-12 0 -12 -25q-6 -344 -6 -585z" />
    <glyph glyph-name="Emacron" unicode="&#x112;" horiz-adv-x="1153" 
d="M342 1506q0 25 12 56t19 31l440 13q6 0 19 -28t-6 -61t-31 -32l-435 -4q-18 0 -18 25zM758 1317q144 0 168 4t30 -4t9 -17l4 -194q0 -53 -31 -53q-23 1 -37 63t-46 90q-33 28 -113 39q-80 12 -174 8t-100 -8q-16 -13 -21 -54q-5 -40 -7 -242t0 -224q6 -20 15 -20h133
q102 0 142 7t57 25q17 17 35 65t41 48q22 0 16 -66q-7 -66 -7 -97q0 -32 7 -155q4 -59 -21 -59q-24 1 -42 59t-47 78t-312 19q-17 0 -21 -26t-4 -314q0 -197 60 -215q82 -14 204 -14t176 14q106 27 170 151q29 57 48 58q10 -1 15 -19t2 -36t-34 -112q-31 -95 -45 -114
t-31 -18l-100 4q-294 12 -565 12l-232 -10q-61 0 -61 26q1 18 71 36t100 43q30 26 36 104q16 229 16 563t-3 384q-3 48 -25 75t-85 41t-63 34q0 29 57 29l314 -8h301z" />
    <glyph glyph-name="emacron" unicode="&#x113;" horiz-adv-x="802" 
d="M440 772q-62 0 -115 -40q-54 -40 -83 -111q-2 -7 1 -15t7 -8q90 -4 196 -2t122 12t16 48t-41 77t-103 39zM211 455q0 -131 78 -234q35 -49 97 -81t132 -31q137 0 187 73q16 25 26 25q17 0 17 -25t-15 -49q-104 -154 -297 -153q-166 0 -267 114t-101 293q0 127 64 238
q65 111 181 163q80 37 156 37q125 -1 200 -73t74 -177q0 -10 -11 -22t-27 -12q-373 0 -467 2q-27 0 -27 -88zM680 1134q0 -20 -12 -46t-31 -25h-418q-16 -1 -16 27t10 56t20 28l429 8q6 0 12 -14t6 -34z" />
    <glyph glyph-name="Ebreve" unicode="&#x114;" horiz-adv-x="1153" 
d="M584 1419q-106 1 -174 55q-66 54 -78 138q-2 12 4 26q14 32 49 -10q78 -92 202 -92t195 86q23 27 40 27t12 -31q-14 -74 -79 -136t-171 -63zM758 1317q144 0 168 4t30 -4t9 -17l4 -194q0 -53 -31 -53q-23 1 -37 63t-46 90q-33 28 -113 39q-80 12 -174 8t-100 -8
q-16 -13 -21 -54q-5 -40 -7 -242t0 -224q6 -20 15 -20h133q102 0 142 7t57 25q17 17 35 65t41 48q22 0 16 -66q-7 -66 -7 -97q0 -32 7 -155q4 -59 -21 -59q-24 1 -42 59t-47 78t-312 19q-17 0 -21 -26t-4 -314q0 -197 60 -215q82 -14 204 -14t176 14q106 27 170 151
q29 57 48 58q10 -1 15 -19t2 -36t-34 -112q-31 -95 -45 -114t-31 -18l-100 4q-294 12 -565 12l-232 -10q-61 0 -61 26q1 18 71 36t100 43q30 26 36 104q16 229 16 563t-3 384q-3 48 -25 75t-85 41t-63 34q0 29 57 29l314 -8h301z" />
    <glyph glyph-name="ebreve" unicode="&#x115;" horiz-adv-x="802" 
d="M440 772q-62 0 -115 -40q-54 -40 -83 -111q-2 -7 1 -15t7 -8q90 -4 196 -2t122 12t16 48t-41 77t-103 39zM211 455q0 -131 78 -234q35 -49 97 -81t132 -31q137 0 187 73q16 25 26 25q17 0 17 -25t-15 -49q-104 -154 -297 -153q-166 0 -267 114t-101 293q0 127 64 238
q65 111 181 163q80 37 156 37q125 -1 200 -73t74 -177q0 -10 -11 -22t-27 -12q-373 0 -467 2q-27 0 -27 -88zM442 973q-197 0 -217 215q-2 29 8 43t23 14q18 0 31 -41q35 -121 155 -121t164 125q4 14 18 24t26 11q11 0 12 -49q-10 -84 -68 -152q-60 -68 -152 -69z" />
    <glyph glyph-name="Edotaccent" unicode="&#x116;" horiz-adv-x="1153" 
d="M592 1632q45 0 72 -35q26 -35 26 -77t-33 -73q-33 -30 -69 -30t-70 29q-33 29 -33 75q0 47 31 79t76 32zM758 1317q144 0 168 4t30 -4t9 -17l4 -194q0 -53 -31 -53q-23 1 -37 63t-46 90q-33 28 -113 39q-80 12 -174 8t-100 -8q-16 -13 -21 -54q-5 -40 -7 -242t0 -224
q6 -20 15 -20h133q102 0 142 7t57 25q17 17 35 65t41 48q22 0 16 -66q-7 -66 -7 -97q0 -32 7 -155q4 -59 -21 -59q-24 1 -42 59t-47 78t-312 19q-17 0 -21 -26t-4 -314q0 -197 60 -215q82 -14 204 -14t176 14q106 27 170 151q29 57 48 58q10 -1 15 -19t2 -36t-34 -112
q-31 -95 -45 -114t-31 -18l-100 4q-294 12 -565 12l-232 -10q-61 0 -61 26q1 18 71 36t100 43q30 26 36 104q16 229 16 563t-3 384q-3 48 -25 75t-85 41t-63 34q0 29 57 29l314 -8h301z" />
    <glyph glyph-name="edotaccent" unicode="&#x117;" horiz-adv-x="802" 
d="M440 772q-62 0 -115 -40q-54 -40 -83 -111q-2 -7 1 -15t7 -8q90 -4 196 -2t122 12t16 48t-41 77t-103 39zM211 455q0 -131 78 -234q35 -49 97 -81t132 -31q137 0 187 73q16 25 26 25q17 0 17 -25t-15 -49q-104 -154 -297 -153q-166 0 -267 114t-101 293q0 127 64 238
q65 111 181 163q80 37 156 37q125 -1 200 -73t74 -177q0 -10 -11 -22t-27 -12q-373 0 -467 2q-27 0 -27 -88zM459 1239q43 0 67 -33q24 -32 25 -72q0 -40 -31 -69q-32 -29 -66 -29t-66 26t-32 71t30 75t73 31z" />
    <glyph glyph-name="Eogonek" unicode="&#x118;" horiz-adv-x="1153" 
d="M758 1317q135 0 167 5t40 -22l4 -194q0 -53 -31 -53q-23 1 -37 63t-46 90q-33 28 -113 39q-80 12 -174 8t-100 -8q-16 -13 -21 -54q-5 -40 -7 -241t0 -223q8 -23 19 -22h176q106 0 133 9t47 66q6 16 10 27q16 43 38 43t16 -66q-7 -66 -7 -97q0 -32 7 -155q4 -59 -23 -59
q-18 -1 -28 29l-18 54q-16 54 -48 58q-16 2 -59 8t-244 7q-19 0 -23 -26q-4 -25 -4 -227t18 -248t42 -54q82 -14 204 -14t176 14q106 27 172 155q25 49 48 50q16 0 16 -31t-33 -129t-47 -117t-31 -18l-71 4q-172 -164 -172 -297q0 -45 32 -74t84 -29q53 0 111 31q8 4 14 -1
t6 -19t-12 -39q-66 -100 -205 -101q-88 1 -136 53t-48 132t73 175t187 171q-211 10 -528 10l-232 -10q-61 0 -61 26q1 18 71 36t100 43q30 26 36 104q16 229 16 563t-3 384q-3 48 -25 75t-85 41t-63 34q0 29 57 29l314 -8h301z" />
    <glyph glyph-name="eogonek" unicode="&#x119;" horiz-adv-x="802" 
d="M592 659q0 39 -32 77t-101 38q-70 0 -125 -47t-84 -123q-6 -16 8 -20q86 -4 252 0q82 4 82 75zM469 827q125 -1 206 -73t81 -187q0 -12 -22 -26t-38 -15q-344 0 -442 2q-14 0 -25 -20q-6 -18 -6 -74q0 -145 79 -237q79 -93 211 -93t202 70q14 12 24 12q11 0 11 -18
t-15 -43q-33 -37 -110 -98q-195 -154 -195 -301q0 -43 27 -71t82 -28t104 41q10 10 15 5q15 -15 -7 -56q-72 -113 -196 -113q-82 0 -127 52t-45 125q0 137 219 301q-31 -6 -64 -7q-162 0 -266 120t-104 292q0 129 65 241q66 112 182 165q76 34 154 34z" />
    <glyph glyph-name="Ecaron" unicode="&#x11a;" horiz-adv-x="1153" 
d="M588 1409q-25 0 -57 27t-99 81q-66 54 -96 82q-14 7 -20 21q-13 32 22 33q27 0 240 -109q16 -6 36 4t81 40q60 30 89 44l58 19q59 0 0 -56l-180 -147q-49 -39 -74 -39zM758 1317q144 0 168 4t30 -4t9 -17l4 -194q0 -53 -31 -53q-23 1 -37 63t-46 90q-33 28 -113 39
q-80 12 -174 8t-100 -8q-16 -13 -21 -54q-5 -40 -7 -242t0 -224q6 -20 15 -20h133q102 0 142 7t57 25q17 17 35 65t41 48q22 0 16 -66q-7 -66 -7 -97q0 -32 7 -155q4 -59 -21 -59q-24 1 -42 59t-47 78t-312 19q-17 0 -21 -26t-4 -314q0 -197 60 -215q82 -14 204 -14t176 14
q106 27 170 151q29 57 48 58q10 -1 15 -19t2 -36t-34 -112q-31 -95 -45 -114t-31 -18l-100 4q-294 12 -565 12l-232 -10q-61 0 -61 26q1 18 71 36t100 43q30 26 36 104q16 229 16 563t-3 384q-3 48 -25 75t-85 41t-63 34q0 29 57 29l314 -8h301z" />
    <glyph glyph-name="ecaron" unicode="&#x11b;" horiz-adv-x="802" 
d="M440 772q-62 0 -115 -40q-54 -40 -83 -111q-2 -7 1 -15t7 -8q90 -4 196 -2t122 12t16 48t-41 77t-103 39zM211 455q0 -131 78 -234q35 -49 97 -81t132 -31q137 0 187 73q16 25 26 25q17 0 17 -25t-15 -49q-104 -154 -297 -153q-166 0 -267 114t-101 293q0 127 64 238
q65 111 181 163q80 37 156 37q125 -1 200 -73t74 -177q0 -10 -11 -22t-27 -12q-373 0 -467 2q-27 0 -27 -88zM432 907q-22 0 -61 80q-70 127 -133 256q-33 68 4 68q20 1 40 -27t70 -99q49 -71 70 -100q14 -14 22 -4q23 37 136 197q18 29 36 29q34 0 18 -42
q-35 -95 -147 -288q-33 -70 -55 -70z" />
    <glyph glyph-name="Gcircumflex" unicode="&#x11c;" horiz-adv-x="1482" 
d="M832 1675q24 0 79 -45q143 -124 173 -146t18 -42q-4 -8 -28 -8t-81 30t-93 46q-36 18 -53 26t-36 0q-68 -31 -176 -84l-55 -18q-55 0 0 49q8 8 80 69q72 62 110 92t62 31zM1417 526q0 -18 -38 -30t-54 -24t-19 -20q-4 -7 -12 -30t-8 -248q0 -43 32 -60q32 -16 32 -36
t-31 -29q-10 -4 -76 -20t-110 -29q-131 -37 -283 -37q-338 0 -545 187q-211 204 -211 510t232 509q96 85 235 135t301 50t410 -62q8 0 16 -13t8 -33t14 -103q14 -82 15 -126q0 -44 -27 -44q-18 -1 -42 65t-68 120q-43 54 -131 93t-201 39q-254 0 -406 -178t-151 -416
q0 -238 86 -380q86 -144 220 -218t282 -73q31 0 89 12t95 37q12 8 28 47q15 39 15 59q0 176 -7 209t-18 48t-53 31t-103 21q-62 4 -63 35q0 29 62 29l246 -8l184 8q55 0 55 -27z" />
    <glyph glyph-name="gcircumflex" unicode="&#x11d;" horiz-adv-x="851" 
d="M456 -481q106 0 175 37q113 74 112 190q0 143 -137 170q-55 10 -171 10q-115 0 -153 -26t-62 -73q-24 -48 -23 -89q0 -94 71 -156q82 -63 188 -63zM403 786q-27 0 -57 -16q-98 -51 -98 -217q0 -88 55 -172t148 -84q23 0 63 26t61 89q54 169 -24 284q-62 90 -148 90z
M881 -164q0 -190 -193 -315q-135 -88 -292 -88t-259 75q-43 33 -68 83q-26 49 -26 93t13 74q12 30 20 37q8 6 43 36t125 95q6 6 -6 15l-33 14q-117 53 -117 178q0 7 10 17t72 50t80 58q4 4 -8 18q-156 88 -156 261q0 141 125 233q88 66 209 66q76 0 132 -14t80 -18
q24 -5 130 -10t131 -12q18 -4 18 -23t-14 -42t-23 -23q-86 0 -114 2t-33 -4q-4 -6 5 -32t9 -80q0 -170 -107 -253t-231 -83l-71 2q-20 4 -34 -3t-38 -32q-25 -25 -24 -37q0 -34 30 -62t56 -30q24 -2 174 -5t195 -10q46 -7 104 -51q86 -74 86 -180zM448 1313q19 0 58 -78
q66 -119 135 -256q31 -70 -4 -70q-19 0 -41 31q-22 32 -74 100t-64 90q-13 22 -24 9q-76 -117 -137 -195q-21 -31 -37 -31q-16 -1 -19 15t3 33q29 68 147 284q38 68 57 68z" />
    <glyph glyph-name="Gbreve" unicode="&#x11e;" horiz-adv-x="1482" 
d="M834 1460q-106 0 -174 54q-67 54 -78 139q-2 12 4 26q14 32 49 -10q77 -92 201 -92t196 86q23 27 40 27t11 -31q-15 -75 -79 -137t-170 -62zM1417 526q0 -18 -38 -30t-54 -24t-19 -20q-4 -7 -12 -30t-8 -248q0 -43 32 -60q32 -16 32 -36t-31 -29q-10 -4 -76 -20t-110 -29
q-131 -37 -283 -37q-338 0 -545 187q-211 204 -211 510t232 509q96 85 235 135t301 50t410 -62q8 0 16 -13t8 -33t14 -103q14 -82 15 -126q0 -44 -27 -44q-18 -1 -42 65t-68 120q-43 54 -131 93t-201 39q-254 0 -406 -178t-151 -416q0 -238 86 -380q86 -144 220 -218
t282 -73q31 0 89 12t95 37q12 8 28 47q15 39 15 59q0 176 -7 209t-18 48t-53 31t-103 21q-62 4 -63 35q0 29 62 29l246 -8l184 8q55 0 55 -27z" />
    <glyph glyph-name="gbreve" unicode="&#x11f;" horiz-adv-x="851" 
d="M456 -481q106 0 175 37q113 74 112 190q0 143 -137 170q-55 10 -171 10q-115 0 -153 -26t-62 -73q-24 -48 -23 -89q0 -94 71 -156q82 -63 188 -63zM403 786q-27 0 -57 -16q-98 -51 -98 -217q0 -88 55 -172t148 -84q23 0 63 26t61 89q54 169 -24 284q-62 90 -148 90z
M881 -164q0 -190 -193 -315q-135 -88 -292 -88t-259 75q-43 33 -68 83q-26 49 -26 93t13 74q12 30 20 37q8 6 43 36t125 95q6 6 -6 15l-33 14q-117 53 -117 178q0 7 10 17t72 50t80 58q4 4 -8 18q-156 88 -156 261q0 141 125 233q88 66 209 66q76 0 132 -14t80 -18
q24 -5 130 -10t131 -12q18 -4 18 -23t-14 -42t-23 -23q-86 0 -114 2t-33 -4q-4 -6 5 -32t9 -80q0 -170 -107 -253t-231 -83l-71 2q-20 4 -34 -3t-38 -32q-25 -25 -24 -37q0 -34 30 -62t56 -30q24 -2 174 -5t195 -10q46 -7 104 -51q86 -74 86 -180zM446 973q-197 0 -217 215
q-1 29 9 43t22 14q18 0 31 -41q35 -121 155 -121t164 125q4 14 18 24t26 11q11 0 12 -49q-10 -84 -68 -152q-60 -68 -152 -69z" />
    <glyph glyph-name="Gdotaccent" unicode="&#x120;" horiz-adv-x="1482" 
d="M838 1683q46 -1 72 -35t26 -77t-33 -73t-69 -30t-70 29q-33 29 -33 75t31 78t76 33zM1417 526q0 -18 -38 -30t-54 -24t-19 -20q-4 -7 -12 -30t-8 -248q0 -43 32 -60q32 -16 32 -36t-31 -29q-10 -4 -76 -20t-110 -29q-131 -37 -283 -37q-338 0 -545 187q-211 204 -211 510
t232 509q96 85 235 135t301 50t410 -62q8 0 16 -13t8 -33t14 -103q14 -82 15 -126q0 -44 -27 -44q-18 -1 -42 65t-68 120q-43 54 -131 93t-201 39q-254 0 -406 -178t-151 -416q0 -238 86 -380q86 -144 220 -218t282 -73q31 0 89 12t95 37q12 8 28 47q15 39 15 59
q0 176 -7 209t-18 48t-53 31t-103 21q-62 4 -63 35q0 29 62 29l246 -8l184 8q55 0 55 -27z" />
    <glyph glyph-name="gdotaccent" unicode="&#x121;" horiz-adv-x="851" 
d="M456 -481q106 0 175 37q113 74 112 190q0 143 -137 170q-55 10 -171 10q-115 0 -153 -26t-62 -73q-24 -48 -23 -89q0 -94 71 -156q82 -63 188 -63zM403 786q-27 0 -57 -16q-98 -51 -98 -217q0 -88 55 -172t148 -84q23 0 63 26t61 89q54 169 -24 284q-62 90 -148 90z
M881 -164q0 -190 -193 -315q-135 -88 -292 -88t-259 75q-43 33 -68 83q-26 49 -26 93t13 74q12 30 20 37q8 6 43 36t125 95q6 6 -6 15l-33 14q-117 53 -117 178q0 7 10 17t72 50t80 58q4 4 -8 18q-156 88 -156 261q0 141 125 233q88 66 209 66q76 0 132 -14t80 -18
q24 -5 130 -10t131 -12q18 -4 18 -23t-14 -42t-23 -23q-86 0 -114 2t-33 -4q-4 -6 5 -32t9 -80q0 -170 -107 -253t-231 -83l-71 2q-20 4 -34 -3t-38 -32q-25 -25 -24 -37q0 -34 30 -62t56 -30q24 -2 174 -5t195 -10q46 -7 104 -51q86 -74 86 -180zM432 1239q43 0 68 -33
q24 -32 24 -72t-30 -69t-66 -29q-35 0 -67 26q-31 26 -31 71t30 75t72 31z" />
    <glyph glyph-name="Gcommaaccent" unicode="&#x122;" horiz-adv-x="1482" 
d="M721 -205q1 39 29 59t72 19q44 0 85 -43t41 -119t-45 -129q-74 -87 -158 -90q-29 0 -28 16q0 16 24 29q41 16 75 51t34 78t-49 58q-80 23 -80 71zM1417 526q0 -18 -38 -30t-54 -24t-19 -20q-4 -7 -12 -30t-8 -248q0 -43 32 -60q32 -16 32 -36t-31 -29q-10 -4 -76 -20
t-110 -29q-131 -37 -283 -37q-338 0 -545 187q-211 204 -211 510t232 509q96 85 235 135t301 50t410 -62q8 0 16 -13t8 -33t14 -103q14 -82 15 -126q0 -44 -27 -44q-18 -1 -42 65t-68 120q-43 54 -131 93t-201 39q-254 0 -406 -178t-151 -416q0 -238 86 -380
q86 -144 220 -218t282 -73q31 0 89 12t95 37q12 8 28 47q15 39 15 59q0 176 -7 209t-18 48t-53 31t-103 21q-62 4 -63 35q0 29 62 29l246 -8l184 8q55 0 55 -27z" />
    <glyph glyph-name="gcommaaccent" unicode="&#x123;" horiz-adv-x="851" 
d="M456 -481q106 0 175 37q113 74 112 190q0 143 -137 170q-55 10 -171 10q-115 0 -153 -26t-62 -73q-24 -48 -23 -89q0 -94 71 -156q82 -63 188 -63zM403 786q-27 0 -57 -16q-98 -51 -98 -217q0 -88 55 -172t148 -84q23 0 63 26t61 89q54 169 -24 284q-62 90 -148 90z
M881 -164q0 -190 -193 -315q-135 -88 -292 -88t-259 75q-43 33 -68 83q-26 49 -26 93t13 74q12 30 20 37q8 6 43 36t125 95q6 6 -6 15l-33 14q-117 53 -117 178q0 7 10 17t72 50t80 58q4 4 -8 18q-156 88 -156 261q0 141 125 233q88 66 209 66q76 0 132 -14t80 -18
q24 -5 130 -10t131 -12q18 -4 18 -23t-14 -42t-23 -23q-86 0 -114 2t-33 -4q-4 -6 5 -32t9 -80q0 -170 -107 -253t-231 -83l-71 2q-20 4 -34 -3t-38 -32q-25 -25 -24 -37q0 -34 30 -62t56 -30q24 -2 174 -5t195 -10q46 -7 104 -51q86 -74 86 -180zM431 952q-44 0 -86 46
t-42 138t76 146t117 55q41 0 41 -14t-23 -29q-111 -43 -111 -131q0 -57 50 -59q27 -2 53 -18t24 -55q0 -39 -28 -59t-71 -20z" />
    <glyph glyph-name="Hcircumflex" unicode="&#x124;" horiz-adv-x="1671" 
d="M868 1683q24 0 80 -45q143 -124 173 -146t18 -42q-4 -8 -28 -8t-81 30t-93 46q-36 18 -53 26t-36 0q-68 -31 -176 -84l-56 -18q-58 0 12 60q10 8 76 64q64 56 102 86t62 31zM1073 1300q0 24 64 23l209 -4l186 6q57 0 57 -25q0 -20 -60 -34q-61 -14 -81 -41t-25 -76
q-16 -168 -16 -676l8 -303q3 -58 23 -76t94 -39q47 -16 47 -39t-57 -22l-170 6l-240 -12q-51 0 -51 24q-1 24 63 42t84 50q33 54 33 474q0 43 -24 43l-762 2q-7 1 -15 -11t-8 -24v-375q2 -74 25 -107t84 -51t63 -43q0 -20 -59 -20l-213 8l-203 -8q-61 0 -61 20q0 27 62 43
t86 39q22 23 28 84q18 252 18 649l2 207q0 68 -3 116t-21 73t-78 36t-60 39q0 23 60 23l186 -4l195 4q66 0 65 -23q0 -26 -64 -38t-81 -39q-19 -27 -23 -85t-6 -226q-2 -167 2 -181t8 -16t13 -2l762 6q16 -1 20 33t3 188t-5 209q-3 55 -23 75t-80 38q-60 16 -61 40z" />
    <glyph glyph-name="hcircumflex" unicode="&#x125;" horiz-adv-x="1050" 
d="M322 721q0 -12 6 -12h8q132 118 270 118t205 -94q59 -80 59 -221q9 -306 9 -361t18 -71t68 -28t51 -32q0 -27 -55 -26l-162 6l-148 -4q-41 0 -41 24q0 18 41 30t55 33q14 22 15 147l-2 216q0 166 -33 205q-57 68 -166 68t-164 -47q-32 -32 -34 -96q-10 -265 -3 -431
q3 -47 21 -64t61 -29t43 -34q0 -23 -51 -22l-168 4l-155 -6q-47 0 -47 26q0 18 50 34t67 39q17 24 22 79q20 288 20 650t-5 404t-15 55t-53 42q-20 10 -21 41l6 10q172 49 205 72q29 14 40 14t11 -22q-12 -94 -20 -354t-8 -363zM262 1694q20 0 50 -24t182 -140
q33 -20 22 -39q-8 -6 -16 -6q-36 0 -230 88q-16 8 -32 0q-106 -47 -166 -74l-54 -14q-51 0 2 47q25 16 86 63q60 47 98 73t58 26z" />
    <glyph glyph-name="Hbar" unicode="&#x126;" horiz-adv-x="1671" 
d="M446 924q-12 0 -12 -13q-11 -204 5 -242q3 -7 16 -7l764 6q16 0 22 53l2 182q0 16 -16 21h-781zM1589 1300q0 -22 -60 -36q-61 -14 -81 -40t-24 -66t-9 -144q0 -12 15 -17h98q16 2 17 -18q1 -19 -7 -37t-20 -18h-86q-20 -6 -21 -25q-4 -225 -4 -428l8 -301q2 -58 24 -76
t81 -36t59 -41q0 -24 -57 -23l-172 6l-238 -12q-51 0 -51 24q0 18 45 35q82 27 104 61t23 140l8 280q0 29 -5 37t-19 8h-764q-5 0 -13 -12q-8 -13 -9 -31t-1 -81l2 -236q0 -71 24 -105t85 -52t63 -42q0 -22 -59 -22l-211 8l-205 -8q-61 0 -61 20q0 27 62 43t86 39
q22 23 26 84q23 383 22 733q0 12 -12 13h-117q-14 2 -17 4t-3 16t9 34t19 19h109q14 0 14 13q0 104 -2 144t-25 65q-24 25 -80 41t-57 38q0 23 58 23l188 -4l197 4q63 0 63 -25q0 -26 -61 -38t-81 -39t-24 -73t-8 -136q0 -8 15 -13h774q18 0 18 19l-4 129q0 55 -22 77
t-82 38t-60 40t64 23l209 -6l186 6q57 0 57 -23z" />
    <glyph glyph-name="hbar" unicode="&#x127;" horiz-adv-x="1050" 
d="M39 1112q0 49 18 53l117 2q6 0 6 21v61q0 29 -12 44t-59 46q-15 9 -15 23t21 22q143 51 171 70t41 5q13 -13 13 -19q-10 -212 -11 -242t9 -31l240 -2q10 0 10 -17q0 -18 -8 -34t-15 -16l-225 -2q-8 0 -11 -20t-3 -339q4 -8 12 -10q53 39 129 70t131 30q146 0 210 -87
t64 -228q0 -276 2 -346t22 -85t70 -25t50 -33q0 -29 -53 -29l-166 6l-148 -6q-43 0 -43 31q0 18 40 28q40 11 53 29t19 72t5 309q0 150 -41 199q-52 59 -152 59t-182 -41q-23 -14 -22 -35q-4 -88 -4 -267q0 -180 2 -230t16 -65t59 -29t45 -31q0 -29 -47 -29l-168 6l-151 -6
q-45 0 -45 24t49 39q49 14 66 37t22 78q10 143 10 571l2 326q0 27 -10 27l-119 2q-4 0 -9 5t-5 9z" />
    <glyph glyph-name="Itilde" unicode="&#x128;" horiz-adv-x="694" 
d="M246 1597q254 1 287 9t67 61q14 14 18 14q16 0 28 -22q12 -21 -2 -35q-13 -14 -54 -68t-52 -64q-11 -11 -28 -11q-285 0 -302 -5q-18 -5 -40 -37t-34 -32t-21 10q-9 9 -9 19q-1 23 91 143q14 18 51 18zM72 25q0 23 68 37t86 41q20 29 28 127t8 492t-7 433t-18 61t-35 29
t-74 17t-50 36t51 25l223 -6l219 6q51 0 52 -25q-1 -26 -49 -34t-72 -20t-37 -38q-12 -24 -13 -30q0 -6 -10 -66t-10 -423q0 -364 5 -458t31 -128t100 -47t73 -40q0 -27 -55 -26l-305 12l-156 -4q-53 0 -53 29z" />
    <glyph glyph-name="itilde" unicode="&#x129;" horiz-adv-x="518" 
d="M92 735q0 23 43 32t119 38t82 30t12 -9t6 -13l-12 -405q0 -279 7 -296q7 -18 11 -25t18 -14t17 -9q5 -2 25 -8q70 -17 69 -42q0 -20 -47 -20l-159 6l-174 -8q-53 0 -54 22q0 18 49 33q74 18 82 57q8 38 8 278t-1 256q-2 16 -80 71q-21 12 -21 26zM119 1055q-18 1 -45 -29
t-34 -30t-18 14q-12 14 -12 17t17 26q16 23 49 57q67 68 96 61q68 -18 153 -18t105 15t47 49q7 7 25 -7t18 -22t-6 -12l-127 -127q-12 -15 -21 -15q-10 0 -106 10t-141 11z" />
    <glyph glyph-name="Imacron" unicode="&#x12a;" horiz-adv-x="694" 
d="M594 1558q0 -22 -13 -46t-26 -23l-434 -4q-19 -1 -19 25t12 56t19 31l440 13q5 0 13 -16q8 -14 8 -36zM72 25q0 23 68 37t86 41q20 29 28 127t8 492t-7 433t-18 61t-35 29t-74 17t-50 36t51 25l223 -6l219 6q51 0 52 -25q-1 -26 -49 -34t-72 -20t-37 -38q-12 -24 -13 -30
q0 -6 -10 -66t-10 -423q0 -364 5 -458t31 -128t100 -47t73 -40q0 -27 -55 -26l-305 12l-156 -4q-53 0 -53 29z" />
    <glyph glyph-name="imacron" unicode="&#x12b;" horiz-adv-x="518" 
d="M92 735q0 23 43 32t119 38t82 30t12 -9t6 -13l-12 -405q0 -279 7 -296q7 -18 11 -25t18 -14t17 -9q5 -2 25 -8q70 -17 69 -42q0 -20 -47 -20l-159 6l-174 -8q-53 0 -54 22q0 18 49 33q74 18 82 57q8 38 8 278t-1 256q-2 16 -80 71q-21 12 -21 26zM489 1134q0 -20 -12 -46
t-31 -25h-417q-17 -1 -17 27t11 56q10 28 20 28l428 8q6 0 12 -14t6 -34z" />
    <glyph glyph-name="Ibreve" unicode="&#x12c;" horiz-adv-x="694" 
d="M356 1432q-106 0 -173 54t-79 138q-2 12 4 26t18 15q11 0 32 -25q78 -92 202 -92t195 86q23 27 40 27t11 -31q-14 -74 -78 -136q-66 -62 -172 -62zM72 25q0 23 68 37t86 41q20 29 28 127t8 492t-7 433t-18 61t-35 29t-74 17t-50 36t51 25l223 -6l219 6q51 0 52 -25
q-1 -26 -49 -34t-72 -20t-37 -38q-12 -24 -13 -30q0 -6 -10 -66t-10 -423q0 -364 5 -458t31 -128t100 -47t73 -40q0 -27 -55 -26l-305 12l-156 -4q-53 0 -53 29z" />
    <glyph glyph-name="ibreve" unicode="&#x12d;" horiz-adv-x="518" 
d="M92 735q0 23 43 32t119 38t82 30t12 -9t6 -13l-12 -405q0 -279 7 -296q7 -18 11 -25t18 -14t17 -9q5 -2 25 -8q70 -17 69 -42q0 -20 -47 -20l-159 6l-174 -8q-53 0 -54 22q0 18 49 33q74 18 82 57q8 38 8 278t-1 256q-2 16 -80 71q-21 12 -21 26zM260 973
q-197 0 -217 215q-2 29 8 43t23 14q18 0 30 -41q35 -121 155 -121t165 125q4 14 18 24t26 11q12 0 11 -49q-10 -84 -68 -152q-59 -68 -151 -69z" />
    <glyph glyph-name="Iogonek" unicode="&#x12e;" horiz-adv-x="694" 
d="M72 25q0 16 66 32t87 45q21 30 29 128t8 492t-7 433t-18 61t-34 29t-74 17t-51 36t51 25l223 -6l219 6q51 0 52 -25q-1 -26 -49 -34t-72 -20t-37 -38q-12 -24 -13 -30q0 -6 -10 -66t-10 -423q0 -364 5 -458t31 -128t100 -47t73 -40q-1 -26 -67 -26t-142 6
q-141 -166 -141 -303q1 -49 29 -79t80 -30t114 35q8 4 16 -1t8 -12t-14 -50q-23 -41 -78 -71t-135 -30t-128 53q-48 52 -48 132t67 179t169 179q-78 4 -90 4l-156 -4q-53 0 -53 29z" />
    <glyph glyph-name="iogonek" unicode="&#x12f;" horiz-adv-x="518" 
d="M275 1241q43 0 65 -33q22 -34 22 -70t-30 -64t-66 -28q-34 0 -62 26t-28 68t28 72t71 29zM55 18q-1 18 61 34t70 50q10 34 10 278t-6 278t-59 53q-29 12 -29 30q0 25 70 38t158 48q8 2 13 -5t5 -17l-6 -393q0 -133 4 -277q0 -54 38 -73q11 -5 46 -13t35 -32t-39 -23
q-8 0 -102 4q-115 -137 -115 -268q0 -49 28 -76q27 -27 77 -27t108 41q6 6 13 4t7 -16t-18 -48t-71 -69q-52 -35 -127 -35t-120 52t-45 121q1 69 61 161t144 162h-20l-146 -6q-45 0 -45 24z" />
    <glyph glyph-name="Idotaccent" unicode="&#x130;" horiz-adv-x="694" 
d="M348 1645q45 0 72 -35q26 -35 26 -78t-32 -73q-67 -62 -140 -1q-32 29 -32 75t30 79q31 33 76 33zM72 25q0 23 68 37t86 41q20 29 28 127t8 492t-7 433t-18 61t-35 29t-74 17t-50 36t51 25l223 -6l219 6q51 0 52 -25q-1 -26 -49 -34t-72 -20t-37 -38q-12 -24 -13 -30
q0 -6 -10 -66t-10 -423q0 -364 5 -458t31 -128t100 -47t73 -40q0 -27 -55 -26l-305 12l-156 -4q-53 0 -53 29z" />
    <glyph glyph-name="dotlessi" unicode="&#x131;" horiz-adv-x="518" 
d="M92 735q0 23 43 32t119 38t82 30t12 -9t6 -13l-12 -405q0 -279 7 -296q7 -18 11 -25t18 -14t17 -9q5 -2 25 -8q70 -17 69 -42q0 -20 -47 -20l-159 6l-174 -8q-53 0 -54 22q0 18 49 33q74 18 82 57q8 38 8 278t-1 256q-2 16 -80 71q-21 12 -21 26z" />
    <glyph glyph-name="IJ" unicode="&#x132;" horiz-adv-x="1370" 
d="M678 -422q-51 0 -92 26t-41 57q0 32 37 69q36 37 62 37t78 -34t94 -34t77 39q49 51 57 170q12 190 12 642t-6 539q-8 87 -15 104t-35 37t-84 30t-56 36t55 27l228 -6l215 6q55 0 55 -20q0 -29 -64 -41q-63 -12 -89 -43t-25 -107l-8 -928q-2 -172 -68 -306t-154 -202
q-129 -98 -233 -98zM72 25q0 23 68 37t86 41q20 29 28 127t8 492t-7 433t-18 61t-35 29t-74 17t-50 36t51 25l223 -6l219 6q51 0 52 -25q-1 -26 -49 -34t-72 -20t-37 -38q-12 -24 -13 -30q0 -6 -10 -66t-10 -423q0 -364 5 -458t31 -128t100 -47t73 -40q0 -27 -55 -26
l-305 12l-156 -4q-53 0 -53 29z" />
    <glyph glyph-name="ij" unicode="&#x133;" horiz-adv-x="1001" 
d="M774 1260q43 0 70 -36q26 -36 26 -76t-32 -67q-65 -54 -130 4q-34 31 -35 75t38 79q20 21 63 21zM494 -557q-26 0 -39 10q-8 12 2 23q98 61 131 102q111 139 110 512q0 483 -8 543q-4 29 -84 72q-20 10 -20 20q0 18 35 31q145 43 177 60q32 18 42 18t16 -10t6 -13
q-10 -330 -10 -741q-6 -238 -85 -372t-198 -218q-49 -37 -75 -37zM273 1243q45 0 71 -34q26 -33 25 -69q0 -36 -33 -67t-68 -31t-63 25q-31 35 -31 76t25 74q29 26 74 26zM92 731q0 27 43 36t119 38t82 30t12 -9t6 -13l-12 -405q0 -279 7 -296q7 -18 11 -25t18 -14t17 -9
q5 -2 25 -8q70 -17 69 -42q0 -20 -47 -20l-159 6l-174 -8q-53 0 -54 22q0 18 49 33q74 18 82 57q8 38 8 278t-1 254q-2 14 -84 73q-17 10 -17 22z" />
    <glyph glyph-name="Jcircumflex" unicode="&#x134;" horiz-adv-x="675" 
d="M352 1671q24 0 80 -45q143 -124 173 -146t18 -42q-4 -8 -27 -8t-82 30q-58 30 -94 46l-52 26q-17 8 -36 0q-68 -31 -176 -84l-56 -18q-55 0 0 49q38 39 190 161q38 31 62 31zM-16 -422q-50 0 -92 26t-42 57q0 32 38 69t62 37q26 0 77 -34t94 -34t78 39q49 51 57 170
q12 190 12 642t-7 539t-14 104t-35 37t-84 30t-56 36t55 27l227 -6l215 6q55 0 56 -20q0 -29 -64 -41q-63 -12 -89 -43t-26 -107l-8 -928q-2 -172 -68 -306t-153 -202q-129 -98 -233 -98z" />
    <glyph glyph-name="jcircumflex" unicode="&#x135;" horiz-adv-x="481" 
d="M241 1313q19 0 58 -78q66 -119 135 -256q31 -70 -4 -70q-20 0 -42 31q-22 32 -72 100q-52 68 -65 90t-24 9q-76 -117 -137 -195q-20 -31 -36 -31q-16 -1 -20 15q-3 16 3 33q29 68 147 284q38 68 57 68zM68 729q0 14 34 27q145 43 178 60q32 18 42 18t16 -10t6 -13
q-10 -293 -10 -741q0 -102 -26 -208t-64 -173q-70 -119 -193 -209q-51 -39 -76 -39t-38 12q-8 12 2 23q86 49 135 104q106 133 106 492q0 502 -8 561q-4 29 -84 72q-20 10 -20 24z" />
    <glyph glyph-name="Kcommaaccent" unicode="&#x136;" horiz-adv-x="1398" 
d="M629 -166q1 38 29 58t72 20t85 -43t41 -119t-45 -129q-76 -90 -158 -90q-29 0 -28 16q0 16 24 29q41 16 75 51t34 77t-49 58q-80 23 -80 72zM262 717q0 283 -8 430q-2 53 -26 76t-82 38t-58 35q0 27 55 27l201 -6l191 4q55 0 55 -25q0 -20 -58 -32t-77 -35t-23 -79
t-5 -240t3 -199q4 -17 11 -17t22 6q60 45 239 219q178 173 230 230q76 84 -23 111q-47 16 -47 30q0 27 53 27l78 -2l303 10q53 0 54 -25q0 -22 -70 -38t-124 -46q-137 -78 -381 -305q-146 -135 -165 -163q-4 -14 0 -21q33 -41 547 -569q83 -83 146 -98q20 -5 65 -14t45 -28
q0 -31 -51 -30l-299 16l-143 -2q-20 0 -32 12q-11 12 -11 26t88 34q6 2 10 9t0 11q-98 125 -443 475q-10 9 -21 23t-18 20t-15 16q-22 28 -39 27q-18 0 -5 -489q4 -78 113 -105q57 -14 57 -41t-53 -26l-252 6l-199 -6q-18 0 -33 8t-16 18q0 20 70 36q71 16 101 48
q30 33 34 121q6 209 6 492z" />
    <glyph glyph-name="kcommaaccent" unicode="&#x137;" horiz-adv-x="980" 
d="M371 -164q0 78 101 78q44 0 85 -43t41 -119t-45 -129q-76 -90 -158 -90q-29 0 -28 16q0 16 24 29q41 16 75 51t34 78t-49 57q-80 23 -80 72zM8 14q0 16 47 31q59 13 79 31t30 72q12 54 12 536q0 480 -12 586q0 16 -62 53q-27 20 -26 29q0 16 26 26q19 0 59 14
q41 14 71 26q30 10 55 26t32 16t13 -10t4 -16q-18 -88 -18 -515t6 -445t16 -19q10 0 41 26q182 172 217 221q2 6 4 14q5 19 -82 32q-18 2 -18 12t12 24t23 15h96q76 0 163 12t107 12t21 -14q0 -15 -16 -29t-25 -16q-80 -18 -122 -38q-41 -20 -99 -60q-58 -42 -116 -98
t-66 -68t-3 -21q49 -59 163 -184t170 -179t120 -70t65 -38q0 -23 -51 -22l-256 12h-92q-51 0 -51 27q0 18 45 28q59 14 26 58q-8 12 -94 105t-131 148q-45 54 -56 54t-11 -17q-8 -18 -8 -129q0 -110 8 -148q6 -38 21 -51t58 -25t43 -32q0 -21 -49 -20l-170 4l-172 -8
q-47 0 -47 22z" />
    <glyph glyph-name="kgreenlandic" unicode="&#x138;" horiz-adv-x="974" 
d="M49 18q0 24 51 36q52 14 68 28t20 82t8 279q4 210 -3 243q-9 33 -61 50t-52 34q0 31 63 31q111 0 193 14q8 2 11 -5q3 -8 -3 -118t-6 -237q0 -18 14 -19q20 0 54 25q102 84 233 244q25 25 -31 37t-55 32q0 29 57 29q12 0 81 -3t112 2t84 5t41 -25q0 -18 -47 -32
q-113 -26 -185 -96q-36 -34 -92 -86q-56 -50 -90 -89q-10 -12 0 -30q102 -135 295 -334q41 -41 129 -58q25 -4 37 -15t12 -19q0 -29 -53 -29l-227 6l-119 -4q-18 0 -37 8t-19 21t16 22q16 10 42 15q27 6 35 16t-9 33q-102 133 -204 241q-34 37 -54 37t-20 -16q0 -225 5 -256
t23 -42t57 -21q38 -10 38 -29q0 -31 -55 -31l-158 6l-144 -6q-55 0 -55 24z" />
    <glyph glyph-name="Lacute" unicode="&#x139;" horiz-adv-x="1150" 
d="M289 1446q0 12 26 37q121 103 277 207q31 20 53 11q23 -9 43 -29q52 -50 -20 -91q-182 -100 -308 -147q-49 -20 -69 0q-2 0 -2 12zM430 686q0 -408 14 -526q2 -20 29 -48t41 -30q66 -10 182 -10t160 6q45 6 82 39q66 66 117 137q27 45 51 45t8 -55q-47 -145 -63 -221
q-3 -15 -21 -25t-26 -10t-36 1t-79 3t-155 5t-273 3q-170 0 -260 -4l-90 -6q-59 0 -60 22q-1 29 65 41t97 43t39 94q10 127 10 512q0 386 -2 440t-22 79t-82 37t-62 37q0 26 62 26l151 -4l268 6q51 0 52 -23q-1 -24 -65 -38t-90 -32t-30 -44q-12 -92 -12 -500z" />
    <glyph glyph-name="lacute" unicode="&#x13a;" horiz-adv-x="499" 
d="M565 1717q0 -24 -41 -48q-182 -100 -307 -147q-49 -20 -70 0q-2 0 -2 12t27 37q121 103 277 207q31 20 53 11t42 -29t21 -43zM84 1352q0 20 29 28q27 10 98 32t113 48q4 2 11 -6t7 -14q-18 -154 -18 -712t6 -592t24 -53t72 -33t55 -36q0 -21 -53 -20l-174 6l-180 -6
q-57 0 -58 22q0 20 56 32t72 41q17 30 22 116q14 272 14 622l-6 428q0 27 -49 58q-41 29 -41 39z" />
    <glyph glyph-name="Lcommaaccent" unicode="&#x13b;" horiz-adv-x="1150" 
d="M502 -176q0 38 28 58t73 20q44 0 85 -43t41 -119t-45 -129q-76 -90 -158 -90q-29 0 -28 16q0 16 24 29q41 16 75 51t34 78t-49 57q-80 23 -80 72zM430 686q0 -408 14 -526q2 -20 29 -48t41 -30q66 -10 182 -10t160 6q45 6 82 39q66 66 117 137q27 45 51 45t8 -55
q-47 -145 -63 -221q-3 -15 -21 -25t-26 -10t-36 1t-79 3t-155 5t-273 3q-170 0 -260 -4l-90 -6q-59 0 -60 22q-1 29 65 41t97 43t39 94q10 127 10 512q0 386 -2 440t-22 79t-82 37t-62 37q0 26 62 26l151 -4l268 6q51 0 52 -23q-1 -24 -65 -38t-90 -32t-30 -44
q-12 -92 -12 -500z" />
    <glyph glyph-name="lcommaaccent" unicode="&#x13c;" horiz-adv-x="499" 
d="M143 -164q1 38 29 58t72 20t86 -43t41 -119q0 -76 -45 -129q-76 -90 -158 -90q-29 0 -29 16t25 29q41 16 75 51q33 35 33 78t-49 57q-80 23 -80 72zM84 1352q0 20 29 28q27 10 98 32t113 48q4 2 11 -6t7 -14q-18 -154 -18 -712t6 -592t24 -53t72 -33t55 -36
q0 -21 -53 -20l-174 6l-180 -6q-57 0 -58 22q0 20 56 32t72 41q17 30 22 116q14 272 14 622l-6 428q0 27 -49 58q-41 29 -41 39z" />
    <glyph glyph-name="Lcaron" unicode="&#x13d;" horiz-adv-x="1150" 
d="M788 965q-22 0 -16 98t-14 213q0 14 12 27t50 37t60 24q42 0 4 -169t-61 -200q-22 -31 -35 -30zM430 686q0 -408 14 -526q2 -20 29 -48t41 -30q66 -10 182 -10t160 6q45 6 82 39q66 66 117 137q27 45 51 45t8 -55q-47 -145 -63 -221q-3 -15 -21 -25t-26 -10t-36 1t-79 3
t-155 5t-273 3q-170 0 -260 -4l-90 -6q-59 0 -60 22q-1 29 65 41t97 43t39 94q10 127 10 512q0 386 -2 440t-22 79t-82 37t-62 37q0 26 62 26l151 -4l268 6q51 0 52 -23q-1 -24 -65 -38t-90 -32t-30 -44q-12 -92 -12 -500z" />
    <glyph glyph-name="lcaron" unicode="&#x13e;" horiz-adv-x="499" 
d="M552 1446q42 0 4 -169t-61 -200q-22 -31 -32 -31t-17 17q-6 16 -1 98t-15 197q0 14 12 27t50 37t60 24zM84 1352q0 20 29 28q27 10 98 32t113 48q4 2 11 -6t7 -14q-18 -154 -18 -712t6 -592t24 -53t72 -33t55 -36q0 -21 -53 -20l-174 6l-180 -6q-57 0 -58 22q0 20 56 32
t72 41q17 30 22 116q14 272 14 622l-6 428q0 27 -49 58q-41 29 -41 39z" />
    <glyph glyph-name="Ldot" unicode="&#x13f;" horiz-adv-x="1150" 
d="M840 842q46 0 72 -35t26 -78t-33 -73q-68 -62 -139 -1q-33 29 -33 75t31 79t76 33zM430 686q0 -408 14 -526q2 -20 29 -48t41 -30q66 -10 182 -10t160 6q45 6 82 39q66 66 117 137q27 45 51 45t8 -55q-47 -145 -63 -221q-3 -15 -21 -25t-26 -10t-36 1t-79 3t-155 5
t-273 3q-170 0 -260 -4l-90 -6q-59 0 -60 22q-1 29 65 41t97 43t39 94q10 127 10 512q0 386 -2 440t-22 79t-82 37t-62 37q0 26 62 26l151 -4l268 6q51 0 52 -23q-1 -24 -65 -38t-90 -32t-30 -44q-12 -92 -12 -500z" />
    <glyph glyph-name="ldot" unicode="&#x140;" horiz-adv-x="499" 
d="M84 1352q0 20 29 28q27 10 98 32t113 48q4 2 11 -6t7 -14q-18 -154 -18 -712t6 -592t24 -53t72 -33t55 -36q0 -21 -53 -20l-174 6l-180 -6q-57 0 -58 22q0 20 56 32t72 41q17 30 22 116q14 272 14 622l-6 428q0 27 -49 58q-41 29 -41 39zM516 827q43 -1 68 -33
q24 -32 24 -72t-30 -69q-61 -58 -133 -3q-31 26 -31 71t29 76q30 30 73 30z" />
    <glyph glyph-name="Lslash" unicode="&#x141;" horiz-adv-x="1150" 
d="M47 12q0 22 49 36q50 14 68 20t41 20t31 36t13 64t9 359q0 8 -4 12t-32 -5t-109 -34q-10 -4 -19 10q-14 16 -14 32t26 28q26 10 73 27q46 17 67 26q14 9 14 19q0 396 -2 462t-21 93t-81 39t-64 38q0 25 55 25l199 -2l227 6q49 0 50 -23q0 -23 -45 -34q-84 -18 -109 -36
t-31 -68t-6 -439q0 -17 24 -8q24 8 142 48q117 40 152 50q10 8 22 -10t12 -27q0 -18 -38 -34t-306 -113q-8 0 -8 -19q0 -297 8 -434q2 -40 35 -68t66 -30q296 -19 359 13q17 9 29 15t65 74t72 93q20 26 33 26t17 -13t0 -28q-33 -94 -72 -248q-8 -20 -47 -20q-4 0 -180 5
t-440 5l-275 -10q-55 0 -55 22z" />
    <glyph glyph-name="lslash" unicode="&#x142;" horiz-adv-x="540" 
d="M72 641q0 21 16 29l64 32t57 30q8 7 8 30q0 211 -6 493q0 33 -45 58t-45 43q0 6 9 15t24 13q141 39 206 78q6 2 14 -5t5 -13q-17 -135 -17 -384t3 -253t59 23q56 28 64 31t22 -3q14 -23 14 -35t-17 -22t-73 -39t-63 -33q-8 -4 -9 -18q-2 -103 -1 -309t5 -250t23 -64
q17 -20 73 -36t56 -38q0 -21 -55 -20l-189 6l-163 -6q-57 0 -58 22q0 20 55 32t72 36q28 45 33 306q4 261 2 264t-20 -7t-89 -41q-6 -2 -18 4q-16 10 -16 31z" />
    <glyph glyph-name="Nacute" unicode="&#x143;" horiz-adv-x="1579" 
d="M1067 1627q0 -24 -41 -48q-182 -100 -307 -147q-49 -20 -70 0q-2 0 -2 13t27 36q120 103 276 207q32 20 54 11t42 -29t21 -43zM39 18q0 22 50 39q50 15 72 27q55 29 62 162q39 631 39 768t-14 157q-37 45 -65 59q-29 14 -65 24t-42 12q-45 12 -45 32q0 25 67 25l250 -6
q16 0 43 -27q82 -98 170 -211t672 -749q8 -8 14 -1t8 25t2 344t-6 400t-31 104q-26 31 -92 50t-65 48q0 18 53 19l176 -2l193 8q47 0 47 -22q0 -27 -49 -41q-72 -16 -100 -44t-31 -106q-23 -406 -23 -829l14 -273q0 -43 -28 -43q-20 0 -48 22t-43 41t-80 105t-374 442
q-309 355 -405 470q-7 8 -15 6q-8 -1 -8 -13t-5 -79t-5 -164t-1 -241t-2 -216t3 -138t28 -98q24 -31 88 -47q62 -16 62 -42t-66 -25l-219 10l-133 -4q-53 0 -53 22z" />
    <glyph glyph-name="nacute" unicode="&#x144;" horiz-adv-x="1067" 
d="M109 729q0 25 36 41q107 38 141 60t43 22t16 -11t7 -20l-8 -102q0 -6 12 -6q166 113 280 113t184 -82q70 -80 69 -246q0 -287 6 -373q6 -53 76 -72q51 -14 51 -36t-61 -21l-152 4l-141 -4q-47 0 -47 24q0 18 42 34t54 34t16 95t4 349q0 52 -19 94t-42 58q-52 39 -146 39
t-168 -66q-20 -20 -20 -49q0 -468 2 -492t16 -37t56 -25t41 -31q0 -25 -51 -25l-125 2l-170 -6q-53 0 -54 26q0 18 46 32t63 36q16 24 23 102t8 424q0 39 -50 80q-38 27 -38 35zM668 1323q63 0 75 -15t-8 -57q-80 -152 -182 -303q-27 -39 -53 -39t-8 56q42 131 126 315
q20 43 50 43z" />
    <glyph glyph-name="Ncommaaccent" unicode="&#x145;" horiz-adv-x="1579" 
d="M694 -145q0 39 28 58t73 19q43 0 85 -43t42 -119t-45 -128q-75 -88 -158 -91q-29 1 -29 17t25 29q41 16 75 51q34 34 34 76t-50 59q-80 23 -80 72zM39 18q0 22 50 39q50 15 72 27q55 29 62 162q39 631 39 768t-14 157q-37 45 -65 59q-29 14 -65 24t-42 12q-45 12 -45 32
q0 25 67 25l250 -6q16 0 43 -27q82 -98 170 -211t672 -749q8 -8 14 -1t8 25t2 344t-6 400t-31 104q-26 31 -92 50t-65 48q0 18 53 19l176 -2l193 8q47 0 47 -22q0 -27 -49 -41q-72 -16 -100 -44t-31 -106q-23 -406 -23 -829l14 -273q0 -43 -28 -43q-20 0 -48 22t-43 41
t-80 105t-374 442q-309 355 -405 470q-7 8 -15 6q-8 -1 -8 -13t-5 -79t-5 -164t-1 -241t-2 -216t3 -138t28 -98q24 -31 88 -47q62 -16 62 -42t-66 -25l-219 10l-133 -4q-53 0 -53 22z" />
    <glyph glyph-name="ncommaaccent" unicode="&#x146;" horiz-adv-x="1067" 
d="M430 -164q0 38 28 58t73 20q44 0 85 -43t41 -119t-45 -129t-88 -71q-42 -18 -70 -19q-28 0 -28 16t25 29q41 16 75 51t33 78q0 43 -49 57q-80 23 -80 72zM109 729q0 25 36 41q107 38 141 60t43 22t16 -11t7 -20l-8 -102q0 -6 12 -6q166 113 280 113t184 -82
q70 -80 69 -246q0 -287 6 -373q6 -53 76 -72q51 -14 51 -36t-61 -21l-152 4l-141 -4q-47 0 -47 24q0 18 42 34t54 34t16 95t4 349q0 52 -19 94t-42 58q-52 39 -146 39t-168 -66q-20 -20 -20 -49q0 -468 2 -492t16 -37t56 -25t41 -31q0 -25 -51 -25l-125 2l-170 -6
q-53 0 -54 26q0 18 46 32t63 36q16 24 23 102t8 424q0 39 -50 80q-38 27 -38 35z" />
    <glyph glyph-name="Ncaron" unicode="&#x147;" horiz-adv-x="1579" 
d="M799 1415q-25 0 -57 27t-99 81q-66 54 -96 83q-33 19 -20 44q5 9 17 9q33 0 244 -109q16 -6 36 4l80 40q126 63 149 63q57 0 0 -55q-28 -20 -93 -76q-64 -56 -100 -84t-61 -27zM39 18q0 22 50 39q50 15 72 27q55 29 62 162q39 631 39 768t-14 157q-37 45 -65 59
q-29 14 -65 24t-42 12q-45 12 -45 32q0 25 67 25l250 -6q16 0 43 -27q82 -98 170 -211t672 -749q8 -8 14 -1t8 25t2 344t-6 400t-31 104q-26 31 -92 50t-65 48q0 18 53 19l176 -2l193 8q47 0 47 -22q0 -27 -49 -41q-72 -16 -100 -44t-31 -106q-23 -406 -23 -829l14 -273
q0 -43 -28 -43q-20 0 -48 22t-43 41t-80 105t-374 442q-309 355 -405 470q-7 8 -15 6q-8 -1 -8 -13t-5 -79t-5 -164t-1 -241t-2 -216t3 -138t28 -98q24 -31 88 -47q62 -16 62 -42t-66 -25l-219 10l-133 -4q-53 0 -53 22z" />
    <glyph glyph-name="ncaron" unicode="&#x148;" horiz-adv-x="1067" 
d="M109 729q0 25 36 41q107 38 141 60t43 22t16 -11t7 -20l-8 -102q0 -6 12 -6q166 113 280 113t184 -82q70 -80 69 -246q0 -287 6 -373q6 -53 76 -72q51 -14 51 -36t-61 -21l-152 4l-141 -4q-47 0 -47 24q0 18 42 34t54 34t16 95t4 349q0 52 -19 94t-42 58q-52 39 -146 39
t-168 -66q-20 -20 -20 -49q0 -468 2 -492t16 -37t56 -25t41 -31q0 -25 -51 -25l-125 2l-170 -6q-53 0 -54 26q0 18 46 32t63 36q16 24 23 102t8 424q0 39 -50 80q-38 27 -38 35zM538 920q-22 0 -76 103q-55 103 -118 232q-33 68 4 68q20 1 40 -27t70 -99t70 -99
q14 -14 23 -4q23 37 135 196q18 29 36 29q33 0 14 -54t-78 -159q-58 -105 -64 -117q-34 -69 -56 -69z" />
    <glyph glyph-name="napostrophe" unicode="&#x149;" horiz-adv-x="1067" 
d="M256 1278q43 0 85 -46t42 -127t-70 -130q-69 -49 -109 -49t-40 12q0 20 26 33q102 49 103 116q0 47 -60 56q-76 6 -75 59q0 36 28 56t70 20zM109 729q0 25 36 41q107 38 141 60t43 22t16 -11t7 -20l-8 -102q0 -6 12 -6q166 113 280 113t184 -82q70 -80 69 -246
q0 -287 6 -373q6 -53 76 -72q51 -14 51 -36t-61 -21l-152 4l-141 -4q-47 0 -47 24q0 18 42 34t54 34t16 95t4 349q0 52 -19 94t-42 58q-52 39 -146 39t-168 -66q-20 -20 -20 -49q0 -468 2 -492t16 -37t56 -25t41 -31q0 -25 -51 -25l-125 2l-170 -6q-53 0 -54 26q0 18 46 32
t63 36q16 24 23 102t8 424q0 39 -50 80q-38 27 -38 35z" />
    <glyph glyph-name="Eng" unicode="&#x14a;" horiz-adv-x="1579" 
d="M1532 1303q0 -27 -49 -41q-72 -16 -100 -44t-31 -106q-31 -553 -31 -861q0 -309 -15 -409q-28 -185 -125 -251q-42 -27 -75 -27t-70 28t-49 54q-6 8 -4 23t14 18q123 12 164 50t60 84q18 46 18 138q0 33 -27 64q-44 65 -114 149t-349 417q-280 333 -384 458q-7 8 -15 6
t-8 -11q-10 -134 -10 -238t-1 -248t-2 -216t3 -138t28 -98q24 -31 88 -47q62 -16 62 -42t-66 -25l-219 10l-133 -4q-53 0 -53 22t50 39q50 15 72 27q55 29 62 162q39 632 39 744v129l-6 41q0 3 -6 7q-13 22 -30 36q-17 13 -22 19q-4 6 -16 10q-12 5 -16 7t-20 7
q-17 6 -45 12q-70 16 -70 40q0 25 67 25l250 -6q16 0 43 -27q82 -98 162 -203q166 -209 680 -770q8 -8 14 -1t8 25q2 19 2 351t-6 406t-31 104q-26 31 -92 50t-65 48q0 18 53 19l176 -2l193 8q47 0 47 -22z" />
    <glyph glyph-name="eng" unicode="&#x14b;" horiz-adv-x="1034" 
d="M625 827q115 0 189 -85t75 -255v-301q0 -485 -158 -661q-82 -92 -147 -92q-41 0 -75 16t-34 48q1 31 13 53t26 20q98 -23 129 -23t47 29q41 75 43 421q2 347 -1 487t-60 188q-55 51 -145 51t-169 -74q-16 -16 -16 -39q0 -470 2 -494t15 -36t61 -24t49 -33q0 -29 -51 -29
l-137 6l-179 -6q-41 0 -41 29q0 20 45 32t62 34q16 23 22 91t7 445q0 25 -56 71q-66 42 2 72q115 42 145 64t50 22q14 0 14 -33l-10 -100q2 -12 8 -14q160 120 275 120z" />
    <glyph glyph-name="Omacron" unicode="&#x14c;" horiz-adv-x="1599" 
d="M1040 1572q0 -22 -13 -46t-26 -23l-434 -4q-18 -1 -18 25t11 57q12 31 20 31l440 12q6 0 13 -15t7 -37zM745 1286q-69 0 -151 -33q-292 -118 -293 -565q0 -244 160 -450t393 -205q180 0 270 98q72 63 123 189t51 294q0 166 -66 318q-110 248 -330 324q-88 30 -157 30z
M788 1354q297 0 504 -195t207 -483q0 -200 -83 -352t-208 -242q-170 -119 -403 -119q-156 1 -297 63t-236 171q-170 188 -170 462q0 338 267 551q77 60 195 102t224 42z" />
    <glyph glyph-name="omacron" unicode="&#x14d;" horiz-adv-x="987" 
d="M473 766q-63 0 -133 -59q-41 -39 -71 -112q-29 -73 -29 -164t30 -185t106 -152q75 -59 143 -59t136 67q37 41 65 122t28 149q0 195 -103 313q-74 80 -172 80zM506 827q168 -1 292 -117t124 -300q0 -117 -56 -213t-123 -140q-113 -82 -256 -82t-270 107q-66 53 -108 144
q-43 91 -43 169q0 199 143 320q129 112 297 112zM733 1134q0 -20 -12 -46t-31 -25h-418q-16 -1 -16 27t10 56q11 28 21 28l428 8q6 0 12 -14t6 -34z" />
    <glyph glyph-name="Obreve" unicode="&#x14e;" horiz-adv-x="1599" 
d="M798 1458q-106 0 -172 54t-79 139q-2 12 4 26q14 32 49 -10q78 -92 202 -92t195 86q23 27 40 27t12 -31q-14 -75 -79 -137q-66 -62 -172 -62zM745 1286q-69 0 -151 -33q-292 -118 -293 -565q0 -244 160 -450t393 -205q180 0 270 98q72 63 123 189t51 294q0 166 -66 318
q-110 248 -330 324q-88 30 -157 30zM788 1354q297 0 504 -195t207 -483q0 -200 -83 -352t-208 -242q-170 -119 -403 -119q-156 1 -297 63t-236 171q-170 188 -170 462q0 338 267 551q77 60 195 102t224 42z" />
    <glyph glyph-name="obreve" unicode="&#x14f;" horiz-adv-x="987" 
d="M473 766q-63 0 -133 -59q-41 -39 -71 -112q-29 -73 -29 -164t30 -185t106 -152q75 -59 143 -59t136 67q37 41 65 122t28 149q0 195 -103 313q-74 80 -172 80zM506 827q168 -1 292 -117t124 -300q0 -117 -56 -213t-123 -140q-113 -82 -256 -82t-270 107q-66 53 -108 144
q-43 91 -43 169q0 199 143 320q129 112 297 112zM484 973q-197 0 -218 215q-2 29 8 43t23 14q18 0 31 -41q34 -121 154 -121t165 125q5 14 19 24t25 11q11 0 11 -49q-10 -84 -68 -152t-150 -69z" />
    <glyph glyph-name="Ohungarumlaut" unicode="&#x150;" horiz-adv-x="1599" 
d="M1019 1745q21 0 49 -12q28 -13 28 -29t-6 -33q-52 -92 -150 -205q-23 -35 -51 -34q-20 0 -6 55q27 84 98 221q16 37 38 37zM602 1425q-49 0 82 261q25 58 95 25q24 -11 24 -26q-1 -15 -21 -51t-131 -174q-23 -35 -49 -35zM745 1286q-69 0 -151 -33q-292 -118 -293 -565
q0 -244 160 -450t393 -205q180 0 270 98q72 63 123 189t51 294q0 166 -66 318q-110 248 -330 324q-88 30 -157 30zM788 1354q297 0 504 -195t207 -483q0 -200 -83 -352t-208 -242q-170 -119 -403 -119q-156 1 -297 63t-236 171q-170 188 -170 462q0 338 267 551
q77 60 195 102t224 42z" />
    <glyph glyph-name="ohungarumlaut" unicode="&#x151;" horiz-adv-x="987" 
d="M473 766q-63 0 -133 -59q-41 -39 -71 -112q-29 -73 -29 -164t30 -185t106 -152q75 -59 143 -59t136 67q37 41 65 122t28 149q0 195 -103 313q-74 80 -172 80zM506 827q168 -1 292 -117t124 -300q0 -117 -56 -213t-123 -140q-113 -82 -256 -82t-270 107q-66 53 -108 144
q-43 91 -43 169q0 199 143 320q129 112 297 112zM680 1292q78 0 78 -28q0 -16 -52 -123t-98 -185q-31 -41 -49 -41q-25 0 -6 58q35 125 92 284q12 35 35 35zM307 903q-8 1 -12 17t0 32q90 316 129 316q63 0 76 -28t-146 -294q-27 -43 -47 -43z" />
    <glyph glyph-name="OE" unicode="&#x152;" horiz-adv-x="2170" 
d="M1284 1317h479l179 4q6 0 16 -8q10 -7 11 -17t3 -91t0 -105q-4 -53 -35 -53q-16 0 -34 62q-35 119 -88 124q-63 10 -340 10q-18 0 -25 -31q-14 -82 -14 -481q0 -8 6 -17t16 -9h168q113 0 147 20t60 100q12 33 35 33t22 -41l-8 -131q-2 -40 3 -106t5 -76q0 -47 -28 -47
q-23 0 -34 38q-30 103 -68 114q-34 12 -310 14q-14 0 -14 -21q0 -352 6 -416t21 -85q15 -23 55 -31t142 -8q101 0 143 4t81 11t79 48t83 110q43 70 55 70q25 0 25 -47q0 -12 -43 -126t-58 -130t-47 -16l-516 14l-174 -4q-16 0 -21 13t-5 52l4 142q0 23 -13 4
q-84 -113 -212 -177t-281 -65q-276 0 -467 204q-190 204 -191 486q0 336 256 547q80 66 193 108t219 42q287 0 481 -226q4 -4 10 -1q5 3 5 12l-4 133q0 47 22 47zM774 1282q-186 0 -301 -104q-168 -154 -168 -490q1 -160 61 -304t186 -242t274 -99q148 0 251 78
q82 63 133 195q52 132 52 316t-36 297q-36 114 -122 201q-144 152 -330 152z" />
    <glyph glyph-name="oe" unicode="&#x153;" horiz-adv-x="1423" 
d="M1206 645q0 31 -30 73q-31 42 -104 42t-123 -47t-72 -121q-6 -16 10 -25l256 8q27 -1 45 19t18 51zM461 764q-61 0 -113 -47q-45 -37 -77 -116t-31 -177q0 -143 70 -264t202 -121q82 0 131 55q70 90 70 309q1 153 -57 257t-195 104zM885 508q-27 0 -27 -78
q0 -137 66 -230q66 -94 190 -94t219 87q11 10 21 9t10 -23t-25 -52q-115 -143 -301 -143q-80 0 -148 34t-106 76q-10 10 -18 -4q-115 -115 -288 -115t-293 130t-119 290q0 236 176 350q120 82 270 82q84 1 160 -37t112 -75q14 -14 29 -2q133 109 277 109t216 -85
q71 -84 70 -170q0 -18 -27 -39q-28 -20 -67 -20h-397z" />
    <glyph glyph-name="Racute" unicode="&#x154;" horiz-adv-x="1292" 
d="M465 1427q-2 0 -2 13t26 37q121 102 277 206q31 19 53 11q23 -8 43 -28q52 -50 -20 -91q-182 -100 -307 -148q-49 -20 -70 0zM463 674q81 0 155 18t113 43t81 91t42 132q0 64 -26 125q-51 119 -160 159q-57 22 -117 22t-78 -8q-17 -8 -27 -26q-10 -17 -12 -48t-5 -240
q-3 -208 3 -238t31 -30zM1036 980q0 -79 -48 -164t-146 -133q-27 -13 -38 -22t-5 -28q21 -47 127 -209t189 -257t202 -120q12 -2 22 -12q11 -9 11 -19t-32 -24t-107 -14t-153 37q-78 38 -122 96q-104 143 -258 385q-57 86 -82 102q-6 6 -54 16q-116 24 -116 -14
q-6 -119 8 -414q4 -66 28 -94t84 -42q60 -15 60 -36q0 -27 -49 -26l-264 12l-166 -8q-53 0 -53 28q0 14 49 30t71 28q53 25 58 92q12 190 12 528t-9 424t-29 102t-80 30q-62 15 -62 39t55 24h115l332 10q229 0 334 -86q52 -43 84 -113t32 -148z" />
    <glyph glyph-name="racute" unicode="&#x155;" horiz-adv-x="696" 
d="M68 16q0 12 50 30t63 45q13 28 16 122v391q0 47 -23 62q-12 10 -41 29t-29 26q0 25 27 35q97 30 143 60t51 30t11 -9t6 -16l-4 -112q0 -7 5 -9t9 0q133 127 234 127q55 1 79 -23q23 -24 23 -39t-12 -36q-55 -80 -84 -94q-10 -6 -29 6q-49 45 -112 45t-87 -26t-24 -48
q0 -258 12 -442q6 -96 54 -104q14 -4 94 -25q37 -11 37 -31t-50 -20l-241 10l-135 -8q-43 0 -43 24zM500 1323q64 0 76 -15t-9 -57q-80 -152 -182 -303q-27 -39 -53 -39t-8 56q43 131 127 315q20 43 49 43z" />
    <glyph glyph-name="Rcommaaccent" unicode="&#x156;" horiz-adv-x="1292" 
d="M635 -154q1 38 29 58t72 20t85 -43t41 -119t-45 -129q-74 -87 -158 -90q-29 1 -29 17t34 30q32 14 66 50t34 76q0 42 -49 59q-80 23 -80 71zM463 674q81 0 155 18t113 43t81 91t42 132q0 64 -26 125q-51 119 -160 159q-57 22 -117 22t-78 -8q-17 -8 -27 -26
q-10 -17 -12 -48t-5 -240q-3 -208 3 -238t31 -30zM1036 980q0 -79 -48 -164t-146 -133q-27 -13 -38 -22t-5 -28q21 -47 127 -209t189 -257t202 -120q12 -2 22 -12q11 -9 11 -19t-32 -24t-107 -14t-153 37q-78 38 -122 96q-104 143 -258 385q-57 86 -82 102q-6 6 -54 16
q-116 24 -116 -14q-6 -119 8 -414q4 -66 28 -94t84 -42q60 -15 60 -36q0 -27 -49 -26l-264 12l-166 -8q-53 0 -53 28q0 14 49 30t71 28q53 25 58 92q12 190 12 528t-9 424t-29 102t-80 30q-62 15 -62 39t55 24h115l332 10q229 0 334 -86q52 -43 84 -113t32 -148z" />
    <glyph glyph-name="rcommaaccent" unicode="&#x157;" horiz-adv-x="696" 
d="M164 -164q0 38 28 58t73 20q44 0 85 -43t41 -119t-45 -129q-76 -90 -158 -90q-29 0 -28 16q0 16 24 29q41 16 75 51t34 78t-49 57q-80 23 -80 72zM68 16q0 12 50 30t63 45q13 28 16 122v391q0 47 -23 62q-12 10 -41 29t-29 26q0 25 27 35q97 30 143 60t51 30t11 -9t6 -16
l-4 -112q0 -7 5 -9t9 0q133 127 234 127q55 1 79 -23q23 -24 23 -39t-12 -36q-55 -80 -84 -94q-10 -6 -29 6q-49 45 -112 45t-87 -26t-24 -48q0 -258 12 -442q6 -96 54 -104q14 -4 94 -25q37 -11 37 -31t-50 -20l-241 10l-135 -8q-43 0 -43 24z" />
    <glyph glyph-name="Rcaron" unicode="&#x158;" horiz-adv-x="1292" 
d="M561 1421q-25 1 -57 27t-91 74q-60 48 -104 90q-14 8 -19 21q-12 32 21 32l56 -18q66 -29 184 -91q16 -6 37 4l81 41q60 30 89 44l57 18q57 0 0 -55q-15 -11 -87 -71q-70 -61 -106 -89t-61 -27zM463 674q81 0 155 18t113 43t81 91t42 132q0 64 -26 125q-51 119 -160 159
q-57 22 -117 22t-78 -8q-17 -8 -27 -26q-10 -17 -12 -48t-5 -240q-3 -208 3 -238t31 -30zM1036 980q0 -79 -48 -164t-146 -133q-27 -13 -38 -22t-5 -28q21 -47 127 -209t189 -257t202 -120q12 -2 22 -12q11 -9 11 -19t-32 -24t-107 -14t-153 37q-78 38 -122 96
q-104 143 -258 385q-57 86 -82 102q-6 6 -54 16q-116 24 -116 -14q-6 -119 8 -414q4 -66 28 -94t84 -42q60 -15 60 -36q0 -27 -49 -26l-264 12l-166 -8q-53 0 -53 28q0 14 49 30t71 28q53 25 58 92q12 190 12 528t-9 424t-29 102t-80 30q-62 15 -62 39t55 24h115l332 10
q229 0 334 -86q52 -43 84 -113t32 -148z" />
    <glyph glyph-name="rcaron" unicode="&#x159;" horiz-adv-x="696" 
d="M68 16q0 12 50 30t63 45q13 28 16 122v391q0 47 -23 62q-12 10 -41 29t-29 26q0 25 27 35q97 30 143 60t51 30t11 -9t6 -16l-4 -112q0 -7 5 -9t9 0q133 127 234 127q55 1 79 -23q23 -24 23 -39t-12 -36q-55 -80 -84 -94q-10 -6 -29 6q-49 45 -112 45t-87 -26t-24 -48
q0 -258 12 -442q6 -96 54 -104q14 -4 94 -25q37 -11 37 -31t-50 -20l-241 10l-135 -8q-43 0 -43 24zM354 907q-22 0 -61 80q-70 127 -133 256q-33 68 4 68q20 1 40 -27t70 -99q49 -71 70 -100q14 -14 23 -4q23 37 135 197q18 29 36 29q34 0 18 -42q-25 -67 -82 -171
q-58 -105 -64 -117q-34 -70 -56 -70z" />
    <glyph glyph-name="Sacute" unicode="&#x15a;" horiz-adv-x="968" 
d="M823 1637q0 -24 -41 -48q-182 -100 -307 -147q-49 -20 -69 0q-2 0 -2 12t26 37q121 103 277 207q31 20 53 11t42 -29t21 -43zM836 1057q-38 0 -52 46t-46 89t-52 55q-61 47 -154 47t-160 -68t-67 -171q0 -66 45 -143q24 -41 137 -118q23 -15 133 -89t181 -162
q72 -88 71 -215q0 -80 -44 -159q-78 -140 -253 -183q-80 -20 -141 -20t-146 14q-85 16 -130 38q-14 8 -31 33q-16 25 -18 43q-1 18 -15 88q-14 72 -14 86t11 30t18 17q23 0 75 -116q37 -78 118 -121t149 -43q106 -1 177 69t70 179q0 73 -53 147t-201 168t-223 188
q-76 94 -76 231t113 236q110 101 303 101q86 0 163 -18t83 -20t14 -18t8 -20l21 -166q0 -55 -14 -55z" />
    <glyph glyph-name="sacute" unicode="&#x15b;" horiz-adv-x="657" 
d="M547 606q-14 0 -31 35q-63 137 -164 137q-57 0 -90 -43t-33 -88t47 -90t156 -104q160 -94 160 -230q0 -115 -119 -200q-71 -47 -147 -47q-166 -1 -224 44q-6 10 -18 64t-12 94q0 41 16 41t43 -47q80 -145 186 -145q39 -1 84 33t45 112t-92 135q-86 61 -125 86
q-127 80 -127 202t113 189q67 43 145 43q118 0 189 -34q16 -8 16 -29l6 -121q0 -37 -24 -37zM487 1323q63 0 75 -15t-7 -57q-80 -152 -182 -303q-27 -39 -53 -39t-9 56q43 131 127 315q20 43 49 43z" />
    <glyph glyph-name="Scircumflex" unicode="&#x15c;" horiz-adv-x="968" 
d="M524 1686q24 0 80 -46q143 -124 173 -146t18 -42q-4 -8 -27 -8t-82 30q-58 30 -94 46q-36 18 -52 27t-60 -11t-152 -74l-56 -18q-55 0 0 49q44 44 190 162q38 31 62 31zM836 1057q-38 0 -52 46t-46 89t-52 55q-61 47 -154 47t-160 -68t-67 -171q0 -66 45 -143
q24 -41 137 -118q23 -15 133 -89t181 -162q72 -88 71 -215q0 -80 -44 -159q-78 -140 -253 -183q-80 -20 -141 -20t-146 14q-85 16 -130 38q-14 8 -31 33q-16 25 -18 43q-1 18 -15 88q-14 72 -14 86t11 30t18 17q23 0 75 -116q37 -78 118 -121t149 -43q106 -1 177 69t70 179
q0 73 -53 147t-201 168t-223 188q-76 94 -76 231t113 236q110 101 303 101q86 0 163 -18t83 -20t14 -18t8 -20l21 -166q0 -55 -14 -55z" />
    <glyph glyph-name="scircumflex" unicode="&#x15d;" horiz-adv-x="657" 
d="M547 606q-14 0 -31 35q-63 137 -164 137q-57 0 -90 -43t-33 -88t47 -90t156 -104q160 -94 160 -230q0 -115 -119 -200q-71 -47 -147 -47q-166 -1 -224 44q-6 10 -18 64t-12 94q0 41 16 41t43 -47q80 -145 186 -145q39 -1 84 33t45 112t-92 135q-86 61 -125 86
q-127 80 -127 202t113 189q67 43 145 43q118 0 189 -34q16 -8 16 -29l6 -121q0 -37 -24 -37zM343 1313q19 0 58 -78q66 -119 136 -256q31 -70 -5 -70q-20 0 -42 31q-22 32 -72 100t-64 90t-24 9q-76 -117 -137 -195q-21 -31 -37 -31q-16 -1 -20 15t3 33q29 68 148 284
q37 68 56 68z" />
    <glyph glyph-name="Scedilla" unicode="&#x15e;" horiz-adv-x="968" 
d="M836 1057q-38 0 -52 46t-46 89t-52 55q-61 47 -154 47t-160 -68t-67 -171q0 -66 45 -143q24 -41 137 -118q23 -15 133 -89t181 -162q72 -88 71 -215q0 -80 -44 -159q-85 -153 -302 -194q-14 -18 -29 -37q-15 -18 -23 -30t-14 -20q-5 -8 15 -21q110 -54 129 -104
q10 -26 10 -58q0 -90 -106 -178q-90 -68 -138 -68t-63 31q-20 32 -5 58t32 24q76 -14 100 -14t45 26t21 63t-38 67t-72 30t-46 -1t-24 10t-13 21q0 10 15 27q12 16 129 164h-25q-53 -1 -138 15t-130 38q-14 8 -31 33q-16 25 -18 43q-1 18 -15 88q-14 72 -14 86t11 30t18 17
q23 0 75 -116q37 -78 118 -121t149 -43q106 -1 177 69t70 179q0 73 -53 147t-201 168t-223 188q-76 94 -76 231t113 236q110 101 303 101q86 0 163 -18t83 -20t14 -18t8 -20l21 -166q0 -55 -14 -55z" />
    <glyph glyph-name="scedilla" unicode="&#x15f;" horiz-adv-x="657" 
d="M547 606q-14 0 -31 35q-63 137 -164 137q-57 0 -90 -43t-33 -88t47 -90t156 -104q160 -94 160 -230q0 -115 -119 -200q-29 -20 -90 -37q-15 -20 -31 -40t-24 -32t-11 -14q-6 -14 13 -25q46 -23 68 -37t42 -45t21 -72q1 -90 -91 -160q-92 -71 -138 -71t-64 31t2 59
q10 18 27 17q65 -13 91 -13t44 23t18 59t-35 65q-35 27 -66 27t-43 -1t-22 11q-12 12 -12 21q0 10 68 97q68 86 71 89h-10q-51 1 -113 13t-86 32q-6 10 -18 64t-12 94q0 41 16 41t43 -47q80 -145 186 -145q39 -1 84 33t45 112t-92 135q-86 61 -125 86q-127 80 -127 202
t113 189q67 43 145 43q118 0 189 -34q16 -8 16 -29l6 -121q0 -37 -24 -37z" />
    <glyph glyph-name="Scaron" unicode="&#x160;" horiz-adv-x="968" 
d="M534 1446q-25 0 -57 27t-98 81t-96 82q-13 8 -19 22q-12 31 21 32l55 -19q66 -29 184 -90q16 -6 37 4t81 40t89 44l57 19q59 0 0 -56q-14 -10 -53 -43l-71 -61q-32 -28 -69 -54q-36 -28 -61 -28zM836 1057q-38 0 -52 46t-46 89t-52 55q-61 47 -154 47t-160 -68t-67 -171
q0 -66 45 -143q24 -41 137 -118q23 -15 133 -89t181 -162q72 -88 71 -215q0 -80 -44 -159q-78 -140 -253 -183q-80 -20 -141 -20t-146 14q-85 16 -130 38q-14 8 -31 33q-16 25 -18 43q-1 18 -15 88q-14 72 -14 86t11 30t18 17q23 0 75 -116q37 -78 118 -121t149 -43
q106 -1 177 69t70 179q0 73 -53 147t-201 168t-223 188q-76 94 -76 231t113 236q110 101 303 101q86 0 163 -18t83 -20t14 -18t8 -20l21 -166q0 -55 -14 -55z" />
    <glyph glyph-name="scaron" unicode="&#x161;" horiz-adv-x="657" 
d="M547 606q-14 0 -31 35q-63 137 -164 137q-57 0 -90 -43t-33 -88t47 -90t156 -104q160 -94 160 -230q0 -115 -119 -200q-71 -47 -147 -47q-166 -1 -224 44q-6 10 -18 64t-12 94q0 41 16 41t43 -47q80 -145 186 -145q39 -1 84 33t45 112t-92 135q-86 61 -125 86
q-127 80 -127 202t113 189q67 43 145 43q118 0 189 -34q16 -8 16 -29l6 -121q0 -37 -24 -37zM358 907q-22 0 -61 80q-70 127 -133 256q-33 68 4 68q20 0 48 -37t132 -189q14 -14 23 -4q23 37 135 197q18 29 36 29q34 0 18 -42q-25 -67 -82 -171q-58 -105 -64 -117
q-34 -70 -56 -70z" />
    <glyph glyph-name="Tcommaaccent" unicode="&#x162;" horiz-adv-x="1366" 
d="M571 -168q1 38 29 58t72 20t86 -43t41 -119q0 -76 -45 -129q-76 -90 -158 -90q-29 0 -29 16t25 29q41 16 75 51q33 35 33 78t-49 57q-80 23 -80 72zM451 -14q-61 0 -62 24q0 10 12 20t27 15q102 23 126 61t28 160q14 424 14 697v243q0 27 -16 27q-68 10 -254 10
q-111 0 -152 -47q-20 -16 -48 -71t-37 -65t-21 -11q-20 0 -21 47q0 10 20 105q19 95 19 165q0 10 10 22t18 11t16 -13q9 -12 20 -20q37 -37 69 -39q106 -12 443 -12t505 4q94 6 140 37q21 12 31 12t10 -16t-17 -68t-33 -197q-2 -14 -12 -26t-22 -12q-20 -1 -28 71t-39 92
q-29 20 -91 24t-184 2q-122 -1 -134 -4t-18 -13t-6 -15v-501q0 -432 8 -507t32 -101t98 -42t73 -41q0 -25 -57 -24l-234 10q-61 0 -145 -7t-88 -7z" />
    <glyph glyph-name="tcommaaccent" unicode="&#x163;" horiz-adv-x="659" 
d="M254 -184q0 38 28 58t73 20q44 0 85 -44t41 -118q0 -76 -45 -129t-88 -71q-42 -18 -70 -19q-28 0 -28 16t24 29q41 16 75 51t34 78t-49 57q-80 23 -80 72zM290 934q7 0 18 -9t11 -14v-96q1 -16 17 -16l252 8q2 0 12 -6t10 -10l6 -76v-2q0 -23 -53 -23h-223q-6 0 -12 -5
t-6 -9q-4 -82 -5 -440q0 -140 160 -140q49 0 87 22t46 21q10 -1 10 -23t-28 -50q-94 -90 -219 -91q-59 0 -109 30t-71 67q-27 41 -27 135l8 455q0 18 -78 40q-29 10 -28 23q0 10 12 23q139 110 171 148t39 38z" />
    <glyph glyph-name="Tcaron" unicode="&#x164;" horiz-adv-x="1366" 
d="M686 1415q-24 1 -56 27t-92 74t-104 90q-14 8 -19 21q-12 32 21 32q29 0 240 -109q16 -6 37 4t81 40q126 63 146 63q59 0 0 -55q-15 -11 -87 -71q-71 -61 -107 -89t-60 -27zM451 -14q-61 0 -62 24q0 10 12 20t27 15q102 23 126 61t28 160q14 424 14 697v243q0 27 -16 27
q-68 10 -254 10q-111 0 -152 -47q-20 -16 -48 -71t-37 -65t-21 -11q-20 0 -21 47q0 10 20 105q19 95 19 165q0 10 10 22t18 11t16 -13q9 -12 20 -20q37 -37 69 -39q106 -12 443 -12t505 4q94 6 140 37q21 12 31 12t10 -16t-17 -68t-33 -197q-2 -14 -12 -26t-22 -12
q-20 -1 -28 71t-39 92q-29 20 -91 24t-184 2q-122 -1 -134 -4t-18 -13t-6 -15v-501q0 -432 8 -507t32 -101t98 -42t73 -41q0 -25 -57 -24l-234 10q-61 0 -145 -7t-88 -7z" />
    <glyph glyph-name="tcaron" unicode="&#x165;" horiz-adv-x="659" 
d="M550 1391q42 0 4 -169t-60 -200q-23 -31 -33 -31q-11 1 -17 17t-1 98t-15 197q0 14 12 27t50 37t60 24zM290 934q7 0 18 -9t11 -14v-96q1 -16 17 -16l252 8q2 0 12 -6t10 -10l6 -76v-2q0 -23 -53 -23h-223q-6 0 -12 -5t-6 -9q-4 -82 -5 -440q0 -140 160 -140q49 0 87 22
t46 21q10 -1 10 -23t-28 -50q-94 -90 -219 -91q-59 0 -109 30t-71 67q-27 41 -27 135l8 455q0 18 -78 40q-29 10 -28 23q0 10 12 23q139 110 171 148t39 38z" />
    <glyph glyph-name="Tbar" unicode="&#x166;" horiz-adv-x="1366" 
d="M1022 721q10 0 10 -24t-7 -36t-11 -12l-240 -4q-10 0 -10 -18q0 -348 8 -426t32 -104t98 -42t73 -41q0 -25 -57 -24l-234 10q-61 0 -145 -7t-88 -7q-61 0 -62 20q0 29 37 37q102 23 127 61t29 172q4 133 8 351q0 18 -12 18l-226 4q-16 -1 -16 17t8 35t16 18l222 2
q12 0 14 14v471q0 27 -16 27q-68 10 -254 10q-111 0 -152 -47q-28 -20 -58 -84t-49 -63q-19 0 -20 47q0 10 20 105q19 95 19 165q0 10 10 22t18 11t16 -13q9 -12 20 -20q37 -37 69 -39q106 -12 443 -12t505 4q94 6 140 37q25 12 28 12q13 0 13 -16t-18 -76t-32 -189
q-2 -14 -12 -26t-22 -12q-20 0 -28 59t-28 87q-20 27 -74 33q-54 5 -72 8t-130 3t-150 -6q-6 -2 -12 -12t-6 -15l2 -463q0 -20 12 -20z" />
    <glyph glyph-name="tbar" unicode="&#x167;" horiz-adv-x="659" 
d="M154 504q10 0 10 16q2 72 2 160q0 20 -78 29q-25 0 -25 30q0 8 11 17q104 84 148 141t51 57t23 -9t15 -15v-107q-1 -6 5 -14t12 -8l231 4q31 0 33 -25l6 -63v-2q0 -23 -53 -23l-217 2q-14 0 -15 -14v-158q0 -18 9 -18h167q9 0 11 -18t-6 -37q-8 -18 -21 -19h-149
q-10 0 -11 -20v-154q0 -80 34 -119t126 -39q27 0 61 16t48 28q14 13 24 14q14 0 15 -41q0 -14 -56 -70q-88 -70 -190 -70q-59 0 -111 30t-79 71q-26 41 -25 133l2 207q0 14 -8 14l-86 4q-18 0 -19 15q0 14 9 34t18 21h78z" />
    <glyph glyph-name="Utilde" unicode="&#x168;" horiz-adv-x="1560" 
d="M991 1489q-283 0 -301 -5q-18 -4 -40 -36t-36 -32q-12 0 -20 9t-8 19q-1 23 90 143q16 18 51 19q254 0 287 8t67 61q14 14 19 15q16 0 27 -22t-2 -36t-54 -67t-52 -65t-28 -11zM1524 1300q0 -22 -45 -38q-70 -20 -101 -58q-30 -38 -32 -110q-4 -167 -19 -443
q-14 -483 -256 -618q-117 -66 -267 -66t-251 39q-100 39 -147 82q-88 84 -126 217t-38 449t-9 422q-6 66 -110 88q-47 11 -47 35t59 24l211 -6l199 4q63 0 63 -25q0 -24 -60 -36t-89 -36t-37 -79t-8 -574q0 -159 30 -243t84 -148q43 -47 130 -80t167 -32q123 0 236 68
t147 218q45 200 45 440t-6 320t-30 107q-25 27 -107 45q-16 4 -30 15t-13 22q0 20 47 20l174 -6l185 4q51 1 51 -21z" />
    <glyph glyph-name="utilde" unicode="&#x169;" horiz-adv-x="1019" 
d="M498 78q80 0 161 72q31 27 31 49l4 471q0 8 -12 24t-23 21q-82 23 -94 24q-41 12 -41 33q0 6 16 12t31 7q133 0 190 15t79 15q14 1 12 -41q-18 -374 -18 -669q0 -5 7 -17t17 -12l103 10q12 0 24 -39q0 -4 -8 -12q-7 -8 -37 -10q-30 -3 -128 -29t-106 -26q-6 0 -14 8
q-8 10 -8 22t4 52t1 44t-7 2q-131 -90 -179 -110t-126 -19q-119 0 -180 97q-29 45 -29 96q0 478 -4 498t-10 27t-10 13q-8 13 -50 26q-43 14 -43 40q0 18 35 19l217 22q16 0 16 -31l-6 -549q0 -78 52 -114q53 -41 133 -41zM365 1055q-18 1 -45 -29t-34 -30q-6 0 -18 14
t-12 17t16 26t50 57q68 68 96 61q68 -18 152 -18t106 15q21 15 47 49q7 7 25 -7t18 -22t-6 -12l-127 -127q-11 -15 -21 -15t-106 10t-141 11z" />
    <glyph glyph-name="Umacron" unicode="&#x16a;" horiz-adv-x="1560" 
d="M1071 1552q0 -22 -13 -46t-26 -23l-434 -4q-18 0 -18 25t11 56t19 31l441 13q6 0 13 -16q7 -14 7 -36zM1524 1300q0 -22 -45 -38q-70 -20 -101 -58q-30 -38 -32 -110q-4 -167 -19 -443q-14 -483 -256 -618q-117 -66 -267 -66t-251 39q-100 39 -147 82q-88 84 -126 217
t-38 449t-9 422q-6 66 -110 88q-47 11 -47 35t59 24l211 -6l199 4q63 0 63 -25q0 -24 -60 -36t-89 -36t-37 -79t-8 -574q0 -159 30 -243t84 -148q43 -47 130 -80t167 -32q123 0 236 68t147 218q45 200 45 440t-6 320t-30 107q-25 27 -107 45q-16 4 -30 15t-13 22q0 20 47 20
l174 -6l185 4q51 1 51 -21z" />
    <glyph glyph-name="umacron" unicode="&#x16b;" horiz-adv-x="1019" 
d="M498 78q80 0 161 72q31 27 31 49l4 471q0 8 -12 24t-23 21q-82 23 -94 24q-41 12 -41 33q0 6 16 12t31 7q133 0 190 15t79 15q14 1 12 -41q-18 -374 -18 -669q0 -5 7 -17t17 -12l103 10q12 0 24 -39q0 -4 -8 -12q-7 -8 -37 -10q-30 -3 -128 -29t-106 -26q-6 0 -14 8
q-8 10 -8 22t4 52t1 44t-7 2q-131 -90 -179 -110t-126 -19q-119 0 -180 97q-29 45 -29 96q0 478 -4 498t-10 27t-10 13q-8 13 -50 26q-43 14 -43 40q0 18 35 19l217 22q16 0 16 -31l-6 -549q0 -78 52 -114q53 -41 133 -41zM729 1134q0 -20 -12 -46t-31 -25h-418
q-16 -1 -16 27t10 56q11 28 21 28l428 8q6 0 12 -14t6 -34z" />
    <glyph glyph-name="Ubreve" unicode="&#x16c;" horiz-adv-x="1560" 
d="M826 1409q-106 0 -174 54q-67 54 -79 139q-1 12 5 26t17 14t32 -24q77 -92 201 -92t196 86q23 26 40 26t11 -30q-15 -74 -79 -136t-170 -63zM1524 1300q0 -22 -45 -38q-70 -20 -101 -58q-30 -38 -32 -110q-4 -167 -19 -443q-14 -483 -256 -618q-117 -66 -267 -66t-251 39
q-100 39 -147 82q-88 84 -126 217t-38 449t-9 422q-6 66 -110 88q-47 11 -47 35t59 24l211 -6l199 4q63 0 63 -25q0 -24 -60 -36t-89 -36t-37 -79t-8 -574q0 -159 30 -243t84 -148q43 -47 130 -80t167 -32q123 0 236 68t147 218q45 200 45 440t-6 320t-30 107
q-25 27 -107 45q-16 4 -30 15t-13 22q0 20 47 20l174 -6l185 4q51 1 51 -21z" />
    <glyph glyph-name="ubreve" unicode="&#x16d;" horiz-adv-x="1019" 
d="M498 78q80 0 161 72q31 27 31 49l4 471q0 8 -12 24t-23 21q-82 23 -94 24q-41 12 -41 33q0 6 16 12t31 7q133 0 190 15t79 15q14 1 12 -41q-18 -374 -18 -669q0 -5 7 -17t17 -12l103 10q12 0 24 -39q0 -4 -8 -12q-7 -8 -37 -10q-30 -3 -128 -29t-106 -26q-6 0 -14 8
q-8 10 -8 22t4 52t1 44t-7 2q-131 -90 -179 -110t-126 -19q-119 0 -180 97q-29 45 -29 96q0 478 -4 498t-10 27t-10 13q-8 13 -50 26q-43 14 -43 40q0 18 35 19l217 22q16 0 16 -31l-6 -549q0 -78 52 -114q53 -41 133 -41zM484 973q-197 0 -218 215q-2 29 8 43t23 14
q18 0 31 -41q34 -121 154 -121t165 125q5 14 19 24t25 11q11 0 11 -49q-10 -84 -68 -152t-150 -69z" />
    <glyph glyph-name="Uring" unicode="&#x16e;" horiz-adv-x="1560" 
d="M823 1653q-37 0 -61 -29t-25 -74q0 -44 25 -72q24 -28 62 -28t62 28t24 74t-25 73q-25 28 -62 28zM823 1708q70 0 114 -46t44 -111t-44 -111t-114 -47q-69 0 -113 47t-44 111q0 65 44 111t113 46zM1524 1300q0 -22 -45 -38q-70 -20 -101 -58q-30 -38 -32 -110
q-4 -167 -19 -443q-14 -483 -256 -618q-117 -66 -267 -66t-251 39q-100 39 -147 82q-88 84 -126 217t-38 449t-9 422q-6 66 -110 88q-47 11 -47 35t59 24l211 -6l199 4q63 0 63 -25q0 -24 -60 -36t-89 -36t-37 -79t-8 -574q0 -159 30 -243t84 -148q43 -47 130 -80t167 -32
q123 0 236 68t147 218q45 200 45 440t-6 320t-30 107q-25 27 -107 45q-16 4 -30 15t-13 22q0 20 47 20l174 -6l185 4q51 1 51 -21z" />
    <glyph glyph-name="uring" unicode="&#x16f;" horiz-adv-x="1019" 
d="M498 78q80 0 161 72q31 27 31 49l4 471q0 8 -12 24t-23 21q-82 23 -94 24q-41 12 -41 33q0 6 16 12t31 7q133 0 190 15t79 15q14 1 12 -41q-18 -374 -18 -669q0 -5 7 -17t17 -12l103 10q12 0 24 -39q0 -4 -8 -12q-7 -8 -37 -10q-30 -3 -128 -29t-106 -26q-6 0 -14 8
q-8 10 -8 22t4 52t1 44t-7 2q-131 -90 -179 -110t-126 -19q-119 0 -180 97q-29 45 -29 96q0 478 -4 498t-10 27t-10 13q-8 13 -50 26q-43 14 -43 40q0 18 35 19l217 22q16 0 16 -31l-6 -549q0 -78 52 -114q53 -41 133 -41zM492 1227q-39 0 -65 -31t-26 -77t27 -75
q27 -28 67 -28q39 0 65 28t26 76q0 47 -28 77t-66 30zM494 1288q74 0 120 -49t45 -117q0 -68 -46 -118q-45 -50 -119 -50t-120 50t-46 118t46 117t120 49z" />
    <glyph glyph-name="Uhungarumlaut" unicode="&#x170;" horiz-adv-x="1560" 
d="M911 1417q-23 0 -1 70t94 207q16 37 38 37q22 -1 49 -13t27 -29q-2 -60 -155 -237q-23 -35 -52 -35zM624 1411q-51 0 83 260q16 37 44 37q27 0 51 -11t24 -27t-21 -50q-20 -35 -131 -174q-24 -35 -50 -35zM1524 1300q0 -22 -45 -38q-70 -20 -101 -58q-30 -38 -32 -110
q-4 -167 -19 -443q-14 -483 -256 -618q-117 -66 -267 -66t-251 39q-100 39 -147 82q-88 84 -126 217t-38 449t-9 422q-6 66 -110 88q-47 11 -47 35t59 24l211 -6l199 4q63 0 63 -25q0 -24 -60 -36t-89 -36t-37 -79t-8 -574q0 -159 30 -243t84 -148q43 -47 130 -80t167 -32
q123 0 236 68t147 218q45 200 45 440t-6 320t-30 107q-25 27 -107 45q-16 4 -30 15t-13 22q0 20 47 20l174 -6l185 4q51 1 51 -21z" />
    <glyph glyph-name="uhungarumlaut" unicode="&#x171;" horiz-adv-x="1019" 
d="M498 78q80 0 161 72q31 27 31 49l4 471q0 8 -12 24t-23 21q-82 23 -94 24q-41 12 -41 33q0 6 16 12t31 7q133 0 190 15t79 15q14 1 12 -41q-18 -374 -18 -669q0 -5 7 -17t17 -12l103 10q12 0 24 -39q0 -4 -8 -12q-7 -8 -37 -10q-30 -3 -128 -29t-106 -26q-6 0 -14 8
q-8 10 -8 22t4 52t1 44t-7 2q-131 -90 -179 -110t-126 -19q-119 0 -180 97q-29 45 -29 96q0 478 -4 498t-10 27t-10 13q-8 13 -50 26q-43 14 -43 40q0 18 35 19l217 22q16 0 16 -31l-6 -549q0 -78 52 -114q53 -41 133 -41zM721 1311q78 0 78 -29q-1 -16 -53 -122t-97 -185
q-31 -41 -49 -41q-25 0 -6 57q35 125 92 285q12 35 35 35zM465 1286q63 0 77 -29t-147 -292q-27 -43 -47 -43q-8 0 -12 16t0 33q90 315 129 315z" />
    <glyph glyph-name="Uogonek" unicode="&#x172;" horiz-adv-x="1560" 
d="M1524 1300q0 -22 -45 -38q-70 -20 -101 -58t-32 -131q-12 -514 -66 -733t-209 -307q-151 -94 -221 -211q-47 -80 -47 -129q1 -49 29 -79t82 -30t118 47q6 4 14 -1t7 -15q1 -47 -59 -100t-152 -53t-140 52t-49 132q0 147 267 334q-214 -34 -367 26q-100 39 -147 82
q-88 84 -126 217t-38 385v4q0 375 -9 482q-6 66 -110 88q-47 11 -47 35t59 24l207 -6l72 2q50 2 122 2t72 -25t-61 -36q-99 -18 -117 -86t-17 -296t1 -347q0 -218 114 -351q52 -51 134 -82q151 -57 311 -8q71 24 141 92t94 174q43 182 45 502v98l-2 137q0 111 -33 133
q-44 25 -98 38q-53 13 -53 39q0 20 47 20l174 -6l185 4q51 1 51 -21z" />
    <glyph glyph-name="uogonek" unicode="&#x173;" horiz-adv-x="1019" 
d="M498 78q80 0 161 72q31 27 31 49l4 471q0 8 -12 24t-23 21q-82 23 -94 24q-41 12 -41 33q0 6 16 12t31 7q133 0 190 15t79 15q14 1 12 -41q-18 -374 -18 -669q0 -5 7 -17t17 -12l103 10q12 0 24 -39q0 -4 -8 -12t-14 -8l-21 -2q-96 -76 -149 -160t-53 -137t27 -80
q29 -27 85 -27t100 41q10 10 16 5q5 -5 5 -18q-1 -13 -19 -47t-69 -69t-125 -35t-120 47t-46 126t79 171t191 168l-159 -41q-5 -1 -13 9t-8 22t4 52t1 44t-7 2q-131 -90 -179 -110t-126 -19q-119 0 -180 97q-29 45 -29 96q0 478 -4 498t-10 27t-10 13q-8 13 -50 26
q-43 14 -43 40q0 18 35 19l217 22q16 0 16 -31l-6 -549q0 -78 52 -114q53 -41 133 -41z" />
    <glyph glyph-name="Wcircumflex" unicode="&#x174;" horiz-adv-x="2021" 
d="M1052 1671q24 0 78 -45q143 -124 173 -146t18 -42q-4 -8 -28 -8t-81 30t-93 46q-36 18 -53 26t-36 0q-68 -31 -176 -84l-55 -18q-55 0 0 49q29 29 180 153q49 39 73 39zM2052 1299q0 -23 -56 -35t-94 -45t-94 -142q-55 -109 -109 -214t-169 -361q-147 -338 -207 -484
q-5 -16 -23 -31t-33 -15t-29 44q-14 45 -48 130q-35 85 -92 211t-78 175q-10 14 -16 5q-199 -416 -238 -531q-6 -16 -22 -32t-25 -15q-20 0 -37 39q-59 166 -127 326q-223 545 -342 774q-8 14 -32 65t-53 69q-29 19 -79 32q-53 7 -53 36q0 23 53 23l219 -6l172 6
q51 0 52 -25q0 -23 -56 -38q-84 -23 -63 -82q197 -483 401 -922q6 -11 17 -2q53 86 176 362q6 14 -2 29q-220 520 -266 572q-24 27 -79 42t-55 37t60 23l168 -2q55 0 125 2l69 4q51 0 51 -23q0 -30 -56 -40t-68 -28t14 -78q25 -59 145 -327q4 -12 17 0q63 127 129 281
q33 86 19 114t-83 44q-16 4 -30 14q-13 10 -13 16q0 25 59 25l144 -4l168 4q45 0 45 -23q0 -22 -56 -36t-88 -42q-31 -28 -73 -106q-68 -115 -195 -364q-6 -20 6 -35q133 -315 205 -447q8 -25 23 0q119 254 374 836q31 70 18 104q-14 34 -72 52t-58 36q0 25 53 25l139 -4
l195 6q53 0 53 -24z" />
    <glyph glyph-name="wcircumflex" unicode="&#x175;" horiz-adv-x="1339" 
d="M383 784q0 -22 -51 -34q-63 -12 -37 -80q18 -58 91 -246t84 -208t19 -1q45 90 144 311q10 23 10 41q-11 68 -56 139q-21 33 -65 47q-43 13 -43 32t49 20l138 -6l143 6q49 0 49 -24t-49 -31q-59 -14 -59 -44t182 -485q6 -23 21 9t134 335q35 92 35 123q0 45 -80 64
q-47 16 -47 34t47 19l127 -6l152 10q43 1 43 -19t-36 -30t-50 -16t-30 -25q-16 -17 -17 -21t-45 -80t-147 -330t-112 -285q-9 -30 -27 -30t-40 31l-12 36q-29 88 -66 178t-61 152q-25 62 -41 99q-2 4 -7 3t-7 -5q-126 -260 -172 -379t-66 -119q-27 0 -37 28q-10 29 -61 179
t-176 438q-29 66 -53 97q-25 31 -69 41t-44 30q0 25 59 25l139 -8l144 6q53 1 53 -21zM671 1313q19 0 58 -78q66 -119 135 -256q31 -70 -4 -70q-20 0 -42 31q-22 32 -72 100q-52 68 -65 90t-24 9q-76 -117 -137 -195q-20 -31 -36 -31q-16 -1 -20 15q-3 16 3 33
q29 68 147 284q38 68 57 68z" />
    <glyph glyph-name="Ycircumflex" unicode="&#x176;" horiz-adv-x="1273" 
d="M688 1669q24 0 80 -45q143 -124 173 -146t18 -42t-69 5q-58 25 -114 52q-54 27 -72 37t-61 -10t-151 -74l-56 -19q-55 0 0 50q29 29 180 153q48 39 72 39zM553 569q0 25 -18 74q-57 123 -196 332t-174 243t-97 47t-62 38t55 24l234 -10l156 4q45 0 45 -25q0 -24 -48 -36
t-52 -34t24 -61q45 -86 268 -448q2 -4 10 -3t11 7q53 78 264 422q31 55 17 79t-68 37q-52 13 -52 41q0 18 48 19l133 -2l227 8q43 0 43 -20t-53 -37q-119 -31 -224 -160q-57 -72 -160 -232t-112 -169q-51 -74 -51 -125q0 -336 12 -435q6 -35 35 -55q30 -20 98 -38t68 -40
q0 -23 -62 -22l-178 8l-286 -12q-51 0 -52 22q0 27 58 37q129 29 133 98q6 84 6 424z" />
    <glyph glyph-name="ycircumflex" unicode="&#x177;" horiz-adv-x="847" 
d="M-10 780q0 25 49 25l160 -8l143 4q45 0 45 -23t-45 -35t-52 -25q-6 -12 12 -68t90 -232q81 -199 88 -199q6 1 18 25t80 200t78 211t-5 57t-67 34t-52 30q0 25 52 25l121 -4l129 8q41 0 40 -19q0 -20 -53 -37t-92 -104q-157 -355 -286 -706q-130 -351 -144 -392
q-26 -75 -115 -75q-48 0 -70 30t-22 66q0 34 26 64t64 30l74 -2q16 0 31 35q12 23 49 123t49 141q12 59 8 67t-35 96q-31 87 -126 314t-109 246q-14 20 -28 35t-59 31q-46 16 -46 32zM456 1313q19 0 58 -78q66 -119 135 -256q31 -70 -4 -70q-19 0 -41 31q-22 32 -74 100
t-64 90q-13 22 -24 9q-76 -117 -137 -195q-21 -31 -37 -31q-16 -1 -19 15t3 33q29 68 147 284q38 68 57 68z" />
    <glyph glyph-name="Ydieresis" unicode="&#x178;" horiz-adv-x="1273" 
d="M807 1522q-1 42 27 68t65 26t63 -30t26 -66t-29 -64q-27 -26 -63 -26t-62 26t-27 66zM397 1520q1 42 27 70t64 28t65 -30t27 -70t-29 -65q-29 -23 -65 -23t-62 24t-27 66zM553 569q0 25 -18 74q-57 123 -196 332t-174 243t-97 47t-62 38t55 24l234 -10l156 4q45 0 45 -25
q0 -24 -48 -36t-52 -34t24 -61q45 -86 268 -448q2 -4 10 -3t11 7q53 78 264 422q31 55 17 79t-68 37q-52 13 -52 41q0 18 48 19l133 -2l227 8q43 0 43 -20t-53 -37q-119 -31 -224 -160q-57 -72 -160 -232t-112 -169q-51 -74 -51 -125q0 -336 12 -435q6 -35 35 -55
q30 -20 98 -38t68 -40q0 -23 -62 -22l-178 8l-286 -12q-51 0 -52 22q0 27 58 37q129 29 133 98q6 84 6 424z" />
    <glyph glyph-name="Zacute" unicode="&#x179;" horiz-adv-x="1269" 
d="M508 1423q-2 0 -2 13t26 37q121 102 277 206q31 19 53 11t42 -28q52 -50 -19 -91q-182 -100 -307 -148q-49 -20 -70 0zM100 -2q-12 0 -23 8t-11 18t10 26q10 15 37 50q27 34 61 82t334 500q298 452 320 492q22 38 19 46t-11 11q-100 10 -286 10t-235 -10
q-115 -27 -184 -156q-23 -45 -45 -45q-17 0 -19 22q-1 22 4 38q5 14 21 58l36 99q20 55 26 88t26 33t40 -22t97 -27q167 -6 433 -6t322 8q56 9 54 -11q0 -20 -19 -41t-185 -257q-177 -263 -372 -571q-196 -308 -205 -320t9 -25q36 -22 282 -22t304 8t100 39t134 155l12 18
q8 11 12 15t11 12t18 9q18 0 18 -40t-102 -265q-18 -35 -119 -35l-729 8h-195z" />
    <glyph glyph-name="zacute" unicode="&#x17a;" horiz-adv-x="802" 
d="M231 739q-14 0 -54 -43t-66 -86q-16 -33 -31 -32q-6 0 -17 17t11 86t22 103t11 45q11 10 18 5q47 -35 106 -35h187l284 8q8 0 22 -10q14 -9 5 -21q-8 -12 -52 -68t-80 -108t-308 -496q-14 -14 9 -21q9 -3 103 -9t156 -6q46 0 150 145q31 45 43 45q23 0 16 -39
q-2 -10 -25 -86q-23 -77 -27 -101t-14 -33t-16 -9l-408 10q-2 0 -190 -8q-6 0 -16 10t-11 18q1 8 99 150t344 541q8 12 -6 16q-43 12 -265 12zM539 1323q63 0 75 -15t-8 -57q-80 -152 -182 -303q-26 -39 -52 -39t-10 56q43 131 127 315q23 43 50 43z" />
    <glyph glyph-name="Zdotaccent" unicode="&#x17b;" horiz-adv-x="1269" 
d="M641 1636q45 0 72 -34t27 -78q0 -43 -34 -73q-32 -30 -69 -30t-70 29t-33 75t31 79q31 32 76 32zM100 -2q-12 0 -23 8t-11 18t10 26q10 15 37 50q27 34 61 82t334 500q298 452 320 492q22 38 19 46t-11 11q-100 10 -286 10t-235 -10q-115 -27 -184 -156q-23 -45 -45 -45
q-17 0 -19 22q-1 22 4 38q5 14 21 58l36 99q20 55 26 88t26 33t40 -22t97 -27q167 -6 433 -6t322 8q56 9 54 -11q0 -20 -19 -41t-185 -257q-177 -263 -372 -571q-196 -308 -205 -320t9 -25q36 -22 282 -22t304 8t100 39t134 155l12 18q8 11 12 15t11 12t18 9q18 0 18 -40
t-102 -265q-18 -35 -119 -35l-729 8h-195z" />
    <glyph glyph-name="zdotaccent" unicode="&#x17c;" horiz-adv-x="802" 
d="M231 739q-14 0 -54 -43t-66 -86q-16 -33 -31 -32q-6 0 -17 17t11 86t22 103t11 45q11 10 18 5q47 -35 106 -35h187l284 8q8 0 22 -10q14 -9 5 -21q-8 -12 -52 -68t-80 -108t-308 -496q-14 -14 9 -21q9 -3 103 -9t156 -6q46 0 150 145q31 45 43 45q23 0 16 -39
q-2 -10 -25 -86q-23 -77 -27 -101t-14 -33t-16 -9l-408 10q-2 0 -190 -8q-6 0 -16 10t-11 18q1 8 99 150t344 541q8 12 -6 16q-43 12 -265 12zM418 1239q44 0 68 -33q24 -32 24 -72t-31 -69t-65 -29t-67 26q-32 26 -32 71t30 75t73 31z" />
    <glyph glyph-name="Zcaron" unicode="&#x17d;" horiz-adv-x="1269" 
d="M635 1421q-25 1 -57 27t-91 74q-60 48 -104 90q-14 8 -19 21q-12 32 21 32l55 -18q66 -29 185 -91q17 -6 37 4q91 46 169 85l58 18q57 0 0 -55q-15 -11 -87 -71q-70 -61 -106 -89t-61 -27zM100 -2q-12 0 -23 8t-11 18t10 26q10 15 37 50q27 34 61 82t334 500
q298 452 320 492q22 38 19 46t-11 11q-100 10 -286 10t-235 -10q-115 -27 -184 -156q-23 -45 -45 -45q-17 0 -19 22q-1 22 4 38q5 14 21 58l36 99q20 55 26 88t26 33t40 -22t97 -27q167 -6 433 -6t322 8q56 9 54 -11q0 -20 -19 -41t-185 -257q-177 -263 -372 -571
q-196 -308 -205 -320t9 -25q36 -22 282 -22t304 8t100 39t134 155l12 18q8 11 12 15t11 12t18 9q18 0 18 -40t-102 -265q-18 -35 -119 -35l-729 8h-195z" />
    </font>
</defs>
</svg>
