<?xml version="1.0" standalone="no"?>
<!DOCTYPE svg PUBLIC "-//W3C//DTD SVG 1.1//EN" "http://www.w3.org/Graphics/SVG/1.1/DTD/svg11.dtd" >
<svg xmlns="http://www.w3.org/2000/svg">
<metadata>
Created by FontPrep 20130207 at Tue Dec  9 01:48:03 2014
 By Alexander Gunnarson
Copr. 1994 The Hoefler Type Foundry, Inc. http://www.typography.com
</metadata>
<defs>
<font id="7de635eae8270c135d6dc4d2429e1cb8" horiz-adv-x='1024' >
  <font-face 
    font-family="Historical-EnglishTextura"
    font-weight="500"
    font-stretch="normal"
    units-per-em="2048"
    panose-1="0 0 0 0 0 0 0 0 0 0"
    ascent="1638"
    descent="-410"
    x-height="1124"
    cap-height="1530"
    bbox="-220.904 -608.762 2705 2296.97"
    underline-thickness="40"
    underline-position="-252"
    unicode-range="U+0020-FB02"
  />
<missing-glyph horiz-adv-x="1024" 
 />
    <glyph glyph-name=".notdef" horiz-adv-x="1024" 
 />
    <glyph glyph-name=".null" horiz-adv-x="0" 
 />
    <glyph glyph-name="nonmarkingreturn" horiz-adv-x="681" 
 />
    <glyph glyph-name="space" unicode=" " horiz-adv-x="327" 
 />
    <glyph glyph-name="exclam" unicode="!" horiz-adv-x="483" 
d="M365 61q-22 -15 -59 -67t-81 -19q-8 6 -50 35t-62 45q-65 52 -68 90q-10 80 68 160t151 49q52 -10 102 -62t58 -115t-59 -116zM145 854q0 47 -20 80q-20 61 -21 160q-4 26 -17 76q-44 172 -21 225l-9 56q0 15 9 24q84 51 154 60q71 9 104 -11t43 -84t-17 -207t-26 -199
q-6 -42 -12 -200t-27 -238q0 -37 -60 -16q-83 23 -93 106q-5 43 4 82t9 86z" />
    <glyph glyph-name="quotedbl" unicode="&#x22;" horiz-adv-x="749" 
d="M379 1284q9 -44 -19 -77q-10 -13 -28 -36t-26 -35t-22 -46q-13 -33 -24 -52q-14 -14 -32 -49t-33 -51q6 -10 0 -18l-13 -9q-4 -27 -26 -43q-37 -33 -60 -20q-45 23 10 113q2 2 5 23t14 38l16 16q-4 14 6 28q9 12 8 26t7 25t22 52l13 11l16 49q4 10 8 10q8 10 11 35t10 35
q23 18 43 16t94 -41zM682 1284q9 -43 -10 -66q-18 -24 -36 -47t-28 -35q-8 -12 -21 -46q-13 -33 -24 -52q-13 -14 -33 -49t-32 -51q6 -10 0 -18l-13 -9q-4 -27 -26 -43q-37 -33 -60 -20q-45 23 11 113q2 2 4 21t14 40l16 16q-4 14 6 28q9 12 8 26t7 25t22 52l13 11l16 49
q4 10 8 10q8 10 12 35q3 25 9 35q23 18 43 16t94 -41z" />
    <glyph glyph-name="numbersign" unicode="#" horiz-adv-x="1382" 
d="M877 834q-12 4 -15 4l-291 -7q-2 -2 -14 -6q-59 -190 -94 -333l250 6q49 -6 53 -6q11 35 111 342zM948 838q0 -16 -57 -183q0 -27 -12 -65t-15 -53l-4 -50q69 0 144 9q6 0 18 12h88q20 10 45 -5t25 -46q0 -80 -152 -43l-27 -6q-37 8 -170 8v-27q-48 -144 -114 -381
q-4 -29 -29 -42t-43 -5t-24 16q-5 7 -11 13t-3 29t15 50q11 27 15 39t34 62t33 76t17 84q24 24 8 49l16 29v2h-14l-145 -7q-10 0 -51 4t-70 -10q-14 0 -21 2q-33 -63 -79 -272q-2 -4 6 -21q-2 -16 -25 -86q4 -18 -18 -40t-52 -11q-78 23 3 158v27q16 31 61 180q-4 8 -4 33
q12 14 18 34q-53 -8 -78 -8h-45q-134 -34 -163 27q-16 70 22 75t100 -1q63 -6 86 -7l101 2q8 31 32 89t31 88q0 18 49 165q-25 4 -79 -8t-84 -2l-13 -6q-16 10 -51 -1q-66 -21 -76 28q-4 25 7 43q29 25 32 24l289 4q18 39 12 72q8 25 17 35q12 27 21 93t24 97q10 102 32 125
t39 27q29 -2 49 -11t15 -40q-4 -31 -28 -89t-29 -81q-31 -80 -80 -228l119 2q53 12 75 11q33 -14 76 0q33 0 49 -2q18 57 23 77q-2 3 -2 15v20q0 19 26 45q10 23 14 78q3 55 21 82q0 4 -2 8t6 11q8 8 7 44q-2 36 12 52t37 13t38 -19q16 -29 15 -37q-48 -200 -80 -276
q-31 -76 -43 -113h278q29 4 49 -16t16 -40q-3 -20 -9 -29t-6 -12q-27 -18 -48 -16l-44 4q-21 2 -33 3q-12 0 -70 14t-90 12q-23 -6 -72 -6z" />
    <glyph glyph-name="dollar" unicode="$" horiz-adv-x="1351" 
d="M389 141q4 15 -3 25t-14 12q-6 2 -20 5t-44 13t-48 11q-63 -12 -86 -36t-53 -114q4 -14 9 -24q5 -11 8 -17q4 -6 12 -10t13 -7t20 -8t33 -12t32 5q100 -1 141 157zM686 594q-40 -8 -65 -8q-8 -30 -21 -61q-12 -31 -21 -54t-15 -37t-11 -26l59 -13q2 -2 62 -39
q16 48 44 130t34 100zM1037 311q6 65 -56 164q-2 2 -11 9t-14 18q-53 45 -104 71l-18 -4q-12 -31 -41 -115t-50 -130q41 -18 93 -64t104 -67q22 -8 48 9q26 16 31 34q16 56 18 75zM686 991q-4 17 -38 29t-42 18q-22 4 -34 13q-12 8 -70 8q-66 -61 -72 -111v-6q12 -25 55 -82
q8 -6 30 -10t26 -6q31 0 42 -1t16 5t40 22q6 14 28 50t19 71zM891 987q-141 -4 -143 -8v-18q-4 -5 -8 -23t-14 -37q-11 -19 -11 -33q8 -19 26 -15q19 3 39 0t62 -3q10 27 27 78q18 51 22 59zM1307 354q0 -31 -33 -55q-40 -15 -58 -33t-33 -29t-24 -20q-41 -18 -53 -20
q-49 -24 -130 -83q-80 -59 -104 -74t-59 -43t-59 -42q-31 -8 -54 6q-10 13 -34 29t-29 20q-28 -48 -39 -83q-11 -36 -21 -56t-16 -36t-29 -23q-29 -25 -47 -15q-6 7 -2 35q5 28 11 46t16 40q10 23 22 56t24 56t11 38q-43 59 -90 71q-2 -4 -16 -45q-18 -52 -50 -108
q-32 -55 -100 -78q-154 -37 -221 35q-6 6 -18 20t-19 21q-57 86 19 184q6 4 6 12q51 51 117 101q12 7 62 39q49 32 79 40t63 22t52 19l4 9q52 80 64 126q13 46 16 46l2 4h-9l-32 4q-35 2 -63 2t-36 -8q-12 8 -46 17t-48 20q-37 35 -90 104q-14 37 0 72q8 12 81 99t97 144
q2 6 12 14q11 8 23 28t111 216l15 15t23 10q51 -39 138 -51q4 0 84 -10q23 33 50 103t33 85t29 25q31 27 45 14t2 -55q-12 -43 -23 -67t-26 -68t-22 -44l94 -6q20 53 26 78t14 43q19 40 26 59q5 19 35 32t37 7t3 -42t-17 -67q-20 -47 -38 -112q83 0 109 6q26 7 50 21t40 18
t24 -11t4 -32q-60 -99 -133 -252q0 -4 -186 -8q-37 -115 -49 -149q27 0 59 -9q147 -27 211 -118q53 -89 83 -191t30 -168z" />
    <glyph glyph-name="percent" unicode="%" horiz-adv-x="1875" 
d="M1634 467q-23 53 -54 85q-32 32 -93 42q-57 20 -125 0q-127 -35 -172 -141q-33 -59 -26 -143t65 -130q6 -4 21 -18q48 -45 93 -45q63 -8 121 10q70 14 123 94q37 49 51 120t-4 126zM1774 432q23 -92 -45 -227q-43 -77 -115 -131t-119 -64q-101 -31 -199 -7
q-163 40 -241 214q-38 138 35 323q16 46 57 76q96 76 166 103q170 33 248 -8q84 -29 155 -101q36 -36 51 -134q7 -40 7 -44zM698 1026q-18 41 -27 59t-36 40t-62 22q-25 8 -86 9t-89 -7t-52 -30t-37 -39q-12 -17 -39 -60q-40 -52 -32 -146t73 -141q3 0 13 -9t13 -10t13 -7
q32 -19 80 -19q139 -18 223 100t45 238zM842 1012q10 -123 -43 -236q-45 -86 -131 -151q-51 -41 -101 -52q-78 -25 -159 -14q-156 0 -241 128q-11 17 -16 29l-15 34q-9 23 -13 30l-8 64q-10 81 -6 101q4 21 12 44t10 31q39 119 92 160q12 10 61 49t123 57q73 18 87 16t45 -6
t39 -5t54 -8q63 -10 105 -52q12 -21 42 -59q31 -38 45 -72t18 -88zM1423 1339q-53 -102 -98 -170t-108 -157q-126 -204 -272 -430q-146 -225 -163 -254l-41 -62q-43 -47 -62 -84q-19 -38 -89 -168q-4 -10 -12 -32q-24 -69 -61 -87q-36 -17 -60 -1q-78 41 45 151
q22 69 100 174t96 130t96 155t104 172q24 42 138 225q125 217 162 246q35 41 68 137t80 125q33 16 49 16q23 -5 31 -31t-3 -55z" />
    <glyph glyph-name="ampersand" unicode="&#x26;" 
d="M483 842q0 65 -109 65q-40 0 -61 8q-76 0 -88 -14q-2 -10 -15 -44t-15 -48l-9 -127q0 -84 11 -117q14 1 41 15q26 14 28 21q30 142 72 159q6 0 30 -1t30 1t32 6q25 4 33 6q34 17 20 70zM881 602q0 -90 -47 -102q-76 0 -86 -33q-6 -12 -2 -81t12 -81q2 -14 36 -7t42 5
q66 -27 49 -160q-2 -12 -2 -26t-2 -29t-35 -47q-32 -31 -114 -69t-92 -38t-34 19q-63 43 -121 151q-8 14 -17 28t-15 26q-6 11 -2 28q4 16 20 42t18 39t3 192q0 57 -109 43q-12 -2 -54 -4t-71 -7q-29 -6 -41 -17t-10 -30l10 -96q9 -96 23 -122t51 -110t80 -132q6 -4 21 -16
q14 -12 22 -19q39 -31 50 -66t8 -52t-32 -35q-30 -18 -60 -8q-30 9 -48 38q-18 30 -54 62t-48 50t-26 63q-13 44 -31 73t-30 83t-18 66q-84 254 -29 482q0 11 -5 37t-1 40t9 58t19 76t16 59q3 27 56 90q20 35 64 63t86 31q41 4 159 -29q119 -34 145 -38t46 0t46 12t41 12
t33 14t24 12t28 -1q20 -8 21 -20q2 -13 2 -24q1 -11 -13 -35q-14 -26 -20 -38t-59 -97t-68 -136q0 -41 25 -48q10 0 36 2t56 0q29 -2 47 -30q10 -29 8 -40t-9 -33t-7 -40z" />
    <glyph glyph-name="quotesingle" unicode="'" horiz-adv-x="446" 
d="M379 1284q9 -44 -19 -77q-10 -13 -28 -36t-26 -35t-22 -46q-13 -33 -24 -52q-14 -14 -32 -49t-33 -51q6 -10 0 -18l-13 -9q-4 -27 -26 -43q-37 -33 -60 -20q-45 23 10 113q2 2 5 23t14 38l16 16q-4 14 6 28q9 12 8 26t7 25t22 52l13 11l16 49q4 10 8 10q8 10 11 35t10 35
q23 18 43 16t94 -41z" />
    <glyph glyph-name="parenleft" unicode="(" horiz-adv-x="559" 
d="M139 104l-12 15v26q-47 88 -69 198t-18 208q3 98 7 209q88 301 121 379q96 205 170 301q33 39 45 47q12 14 39 53q43 61 98 82q59 36 89 25q30 -10 36 -39t-29 -69t-38 -50q-4 -4 -10 -8l-9 -6q-23 -41 -81 -122t-83 -132l-12 -7l-6 -26q-8 -25 -32 -65t-27 -50
q-4 -10 -30 -80t-33 -103t-22 -56q2 -25 -12 -86l8 -33q-8 -43 -4 -178q-4 -45 15 -181q8 -24 20 -45q7 -69 34 -124q27 -54 65 -121t38 -93q10 -29 66 -84q33 -47 88 -112q0 -13 6 -19t30 -28q61 -54 56 -103q0 -16 -27 -43q-82 -2 -143 39q-4 5 -39 17t-47 28t-34 56
q-22 41 -50 65q-6 8 -14 31q-7 23 -17 32t-20 22t-26 36q-16 22 -48 100q-31 78 -39 94z" />
    <glyph glyph-name="parenright" unicode=")" horiz-adv-x="559" 
d="M471 1120l12 -14v-27q47 -87 69 -197t18 -208t-7 -209q-88 -301 -121 -379q-96 -205 -170 -301q-33 -39 -45 -47q-12 -16 -38 -54q-56 -82 -99 -94q-16 -12 -51 -15t-66 14t-25 53t34 55q29 20 36 39q4 4 10 8l9 6q23 41 81 122t83 132l12 6l6 27q8 25 32 65t27 50
q4 10 30 80t32 99q6 30 22 60q-2 25 13 86l-8 33q8 43 4 178q4 45 -15 180q-10 30 -20 45q-7 66 -34 123q-27 56 -65 123t-38 92q-10 29 -66 84q-33 47 -88 113q0 12 -5 17t-16 17t-24 24q-13 13 -19 21q-5 9 -17 29q-25 40 11 76q74 45 170 -18q3 -6 23 -18t32 -25t45 -61
q34 -48 62 -74q7 -8 15 -31t17 -32t19 -22t27 -36t47 -101t39 -94z" />
    <glyph glyph-name="asterisk" unicode="*" horiz-adv-x="1089" 
d="M113 845q0 30 14 46q31 45 68 27t88 -30t63 -18t45 -28t44 -23q11 -2 48 2q36 18 7 99q-3 10 -8 25t-9 32t-47 77t-29 100q13 40 63 48t80 -32t32 -146t30 -156q18 -18 33 -12q17 6 29 12t28 15t70 71q121 142 156 54q18 -49 -11 -80q-23 -31 -101 -78t-101 -92
q-6 -18 7 -32t27 -19q33 0 49 -13q34 -4 138 -41q47 -8 35 -86q-12 -31 -54 -30q-25 6 -115 56t-147 34q-1 -63 15 -129t34 -96t22 -43t-3 -46q-14 -35 -51 -31t-60 31q-39 37 -40 149t-44 148q-4 -4 -81 -62t-107 -97q-8 -8 -18 -37q-21 -63 -58 -58q-60 18 -72 72t37 88
q11 10 31 22t31 21q70 86 168 111q18 14 18 37q-43 51 -129 51q-12 2 -49 11t-70 5q-25 -8 -53 -1t-39 28q-14 14 -14 44z" />
    <glyph glyph-name="plus" unicode="+" horiz-adv-x="823" 
d="M350 820q0 47 -4 65q43 31 53 35q51 -6 57 -66t-14 -102q12 4 14 -4t-9 -46q-10 -36 -11 -69l6 -92l146 4q6 0 12 8t49 6t45 -2q18 10 39 0q31 -20 31 -51q0 -80 -152 -43l-26 -6q-33 10 -40 3t-40 -7q-35 12 -74 2q10 -72 10 -88q-14 -43 -2 -82t8 -67t-5 -51
q-3 -63 -33 -65q-25 0 -32 12t-9 16q-2 3 -4 12t-3 11q-1 1 -8 55q-6 54 -4 108t4 126q-41 -4 -67 11q-45 6 -67 -4q-22 -9 -48 -7t-65 4q-38 2 -41 13q-18 82 26 90q28 4 56 2t55 -2l153 -6l4 202q-10 28 -10 75z" />
    <glyph glyph-name="comma" unicode="," horiz-adv-x="604" 
d="M242 -54q16 14 16 38t-16 41l-11 8q-14 25 -59 55t-55 64q-4 4 1 21t13 20q33 29 141 133q51 51 83 29q32 -23 81 -77t64 -69q34 -49 20 -76q-6 -16 -12 -45t-23 -45q-18 -16 -54 -56t-69 -65q-16 -6 -38 -28t-33 -27q-10 -6 -34 -23t-64 -32l-74 -37q-15 7 -23 21t-2 22
q74 43 127 108q5 6 21 20z" />
    <glyph glyph-name="hyphen" unicode="-" horiz-adv-x="604" 
d="M488 528q29 0 49 -20q23 -14 19 -52t-32 -53q-26 -8 -90 -27q-159 -47 -215 -110q-31 -35 -63 -33q-80 27 -72 91q2 10 4 52t23 50q58 38 140 42q83 5 107 9q59 18 76 35q25 16 54 16zM154 596q-29 0 -45 2q-2 8 -11 31t-5 42q5 19 9 41t10 30t23 8q43 -6 122 5t105 11
l56 29q6 0 53 14l48 4q29 0 36 -22q20 -51 -41 -78q-26 -10 -96 -36t-94 -35t-46 -17q-24 -7 -34 -11t-36 -11q-25 -7 -54 -7z" />
    <glyph glyph-name="period" unicode="." horiz-adv-x="604" 
d="M514 133q-30 -37 -94 -95t-82 -82t-35 -24h-27q-61 57 -98 115q-88 72 -104 123q-6 4 -1 20t13 21q100 70 158 147q55 55 93 32t98 -87q59 -65 79 -86q25 -35 0 -84z" />
    <glyph glyph-name="slash" unicode="/" horiz-adv-x="839" 
d="M51 31v20q13 46 53 107q41 61 70 95t45 54q41 70 62 111q2 2 18 21q17 19 27 27t22 36q12 27 33 49q22 22 40 54t72 105q54 74 69 101t42 72t35 58t15 17t12 9q33 66 45 82q32 43 71 36q29 0 31 -35q1 -34 -25 -64t-75 -104t-72 -102q-72 -111 -80 -123q-7 -12 -33 -33
q-25 -21 -104 -163q-2 -2 -9 -6q-7 -3 -11 -7t-6 -14q-4 -12 -20 -25t-24 -30t-39 -55t-41 -58q-4 -18 -38 -76q-49 -49 -62 -69q-61 -61 -61 -84q-12 -27 -50 -14q-12 4 -12 8z" />
    <glyph glyph-name="zero" unicode="0" horiz-adv-x="1148" 
d="M852 645q-53 100 -193 168q-76 25 -149 0q-158 -45 -225 -178q-72 -124 -17 -260q29 -70 94 -115q90 -59 142 -76q57 -8 155 27q123 25 177 111q90 143 16 323zM1042 297q-49 -121 -165 -217q-68 -57 -138 -72q-139 -43 -283 -9t-249 132q-76 70 -123 172q-12 41 -17 107
q-5 65 -8 86q-16 82 0 149q27 131 131 217q150 121 242 158q10 2 53 16t63 12t56 -6l70 -8t71 -22q106 -37 142 -70q16 -26 46 -49q29 -22 54 -43q38 -33 87 -199q50 -166 -32 -354z" />
    <glyph glyph-name="one" unicode="1" horiz-adv-x="694" 
d="M462 1141q36 0 36 -31q0 -127 -14 -375t-15 -377q0 -72 43 -92q16 -6 56 -8t56 -12t9 -41q0 -40 -73 -55q-38 -8 -67 -22q-30 -12 -108 -74t-122 -80t-77 -1q-33 18 -36 64q0 5 19 71t14 183t7 182q16 43 3 152q-14 109 -11 151v31q-20 23 -87 29t-91 36q10 6 9 20t3 17
q66 53 196 111t172 90q42 31 78 31z" />
    <glyph glyph-name="two" unicode="2" horiz-adv-x="1038" 
d="M487 -4q-201 0 -301 -4q-30 -6 -54 8t-15 45q16 82 69 102q227 96 320 377q78 211 -57 289q-74 43 -163 35t-147 -72q-12 -22 -52 -26t-42 26q27 144 168 234t293 90q123 0 229 -131q59 -87 59 -183t-59 -172q-16 -22 -64 -72t-67 -79q-94 -109 -121 -148q90 -84 305 -10
q27 6 62 53t51 60q31 20 53 -2t17 -67q-4 -44 -49 -133q-44 -90 -50 -110t-14 -32t-13 -22q-27 -50 -57 -50q-100 -6 -301 -6z" />
    <glyph glyph-name="three" unicode="3" horiz-adv-x="858" 
d="M776 133q-27 -174 -104 -258q-106 -119 -236 -201q-76 -59 -209 -106q-37 -12 -77 -2t-60 37q-41 53 -24 126q16 73 73 93q45 20 111 -26t90 -52q92 -20 158 137q39 88 14 201t-117 164q-100 66 -245 -25q-16 -8 -38 0q-22 9 -29 23t7 30q41 46 170 138t181 174t21 171
q-32 89 -122 136q-35 15 -51 12q-15 -2 -27 -4t-26 -11t-22 -14q-23 -14 -46 -36l-46 -46q-24 -24 -50 -6q-27 14 -34 42t7 53q16 41 51 75t78 62q43 27 143 70q76 55 175 30q18 -8 58 -26t64 -27q100 -78 120 -187t-55 -195q-54 -62 -153 -142q-4 -5 2 -17t-2 -16
q124 -12 196 -131t54 -246z" />
    <glyph glyph-name="four" unicode="4" horiz-adv-x="1310" 
d="M664 303q-4 59 0 113t-4 120q-7 67 -31 113q-123 -43 -174 -141q-55 -74 -123 -221q64 -26 159 -30q94 -5 121 -7q2 0 29 18q23 27 23 35zM942 1016l6 -504q0 -123 -6 -229q37 -43 122 -39t134 -6q74 -17 35 -179q-12 -37 -58 -49t-87 3q-40 15 -94 6t-60 -48
q-10 -61 -3 -192t-13 -185q-27 -59 -108 -17q-139 72 -146 192q-4 51 1 95t-1 97q-8 18 -52 45q-219 8 -522 -10q-30 -6 -58 20t-3 58q88 131 258 347t229 298q16 18 58 49t55 55q18 27 26 54q14 16 43 52t45 54q46 52 107 76q32 8 62 -7t30 -36z" />
    <glyph glyph-name="five" unicode="5" horiz-adv-x="862" 
d="M838 1014q-27 -38 -87 -98t-82 -84t-58 -19q-36 4 -72 29q-8 2 -34 12t-36 12t-39 8t-41 0q-31 -6 -46 -38t-5 -60q13 -22 67 -49q54 -26 64 -33q139 -78 195 -240t14 -329q-18 -88 -113 -225q-10 -14 -29 -54t-40 -61q-27 -18 -61 -61q-34 -42 -48 -54t-54 -39
q-76 -51 -136 -28q-27 14 -22 45t34 51q178 104 235 233q40 98 22 218q-7 45 -22 114q-14 41 -58 96t-56 80q-18 29 -45 43q-27 13 -69 25t-58 18q-41 25 -66 60q-25 36 -2 72t114 122t120 148q2 8 10 45t12 53q27 109 124 101q48 -3 84 -19q114 -51 177 -41q8 2 30 14
q22 13 32 13t34 -11q27 -16 11 -69z" />
    <glyph glyph-name="six" unicode="6" horiz-adv-x="1150" 
d="M770 340q12 53 -12 182q-16 111 -53 185q-21 42 -91 70q-26 11 -53 1t-47 -18t-27 -10q-35 -29 -67 -78q-10 -35 -28 -102t-23 -81q-18 -81 -2 -157t28 -117t44 -85t75 -60q53 -25 104 7t87 89q40 57 65 174zM1116 1368q18 -28 8 -64t-43 -51q-31 -10 -92 -48t-100 -46
q-43 -13 -101 -71t-74 -70t-56 -54t-66 -57q33 -18 0 -37q43 -10 76 -5q92 14 143 -19q18 -12 82 -50t92 -83q68 -106 80 -207q23 -152 -80 -326q-82 -147 -305 -198q-154 -44 -296 32t-216 219q-142 258 16 541q41 96 95 150q31 26 88 78t88 79q141 106 434 260q6 2 43 21
t49 22q11 2 31 8t27 3q7 -2 26 -2l26 -13q17 -8 25 -12z" />
    <glyph glyph-name="seven" unicode="7" horiz-adv-x="999" 
d="M84 764q-22 0 -31 13q-8 13 -8 22q43 186 133 307q10 17 48 12q37 -4 46 -4q122 -20 310 -18t301 -2q35 0 57 -28t4 -56q-16 -35 -56 -101q-40 -65 -60 -105t-78 -173q-59 -133 -79 -175t-37 -56t-20 -23q-16 -98 -54 -170t-85 -196t-95 -220t-116 -170q-37 -45 -80 43
q-6 25 19 88q33 57 94 179q61 123 95 183t89 169t81 157t70 147t72 146t-40 78q-176 20 -392 6q-34 -1 -100 -27t-88 -26z" />
    <glyph glyph-name="eight" unicode="8" horiz-adv-x="1089" 
d="M766 236q12 133 -35 237q-37 73 -116 108q-21 9 -29 14t-32 12t-31 10t-33 11t-31 9q-33 12 -78 -41q-63 -109 -41 -291q2 -8 8 -39t12 -42t24 -36q18 -24 24 -30t22 -24t35 -35q19 -16 66 -29q46 -14 128 36q97 54 107 130zM752 1049q26 209 -120 304q-78 50 -145 15
q-76 -31 -94 -49q-78 -92 -65 -270q10 -39 40 -67t92 -58t87 -46q25 -18 41 -27t44 -10t46 23q58 99 74 185zM313 719q0 4 -14 4t-20 10l-27 35q-96 78 -140 188t-24 222q0 24 4 46t9 50q5 29 38 72q17 14 55 58t64 62q139 55 236 80q43 2 57 2t92 -39l35 11q14 -6 61 -24
t72 -38q39 -49 94 -87q54 -38 70 -52q10 -12 33 -78q0 -18 2 -65t0 -100t-19 -93q-16 -39 -45 -71t-43 -43t-36 -30t-56 -26q10 -10 -1 -21t-11 -16q16 -14 98 -78q183 -208 102 -393q-53 -152 -129 -199q-59 -55 -86 -69q-109 -37 -141 -45q-158 -27 -250 0
q-162 59 -235 158q-135 164 -64 356q10 14 27 45t33 51t74 56q58 34 85 61z" />
    <glyph glyph-name="nine" unicode="9" horiz-adv-x="1095" 
d="M715 389q55 229 49 328q-12 154 -127 223q-88 53 -160 -25q-71 -78 -101 -208t-5 -211q63 -236 202 -236q47 -8 87 31t55 98zM156 -367l-43 -4q-10 0 -19 4q-32 19 -22 59t34 66t47 40q24 13 86 44t105 69t92 92t65 71t21 37q4 20 6 28q-24 9 -96 21t-104 30
q-166 100 -200 229q-11 46 -17 60q-63 139 -25 294q39 155 172 237q72 51 143 51q19 2 61 14q42 13 64 17t64 -2q20 -12 61 -20t56 -15q178 -130 233 -206q55 -77 59 -169q37 -256 -39 -413t-133 -204q-31 -25 -105 -99t-149 -114q-43 -16 -128 -64t-124 -62t-88 -47
q-49 -32 -77 -44z" />
    <glyph glyph-name="colon" unicode=":" horiz-adv-x="604" 
d="M518 219q6 -6 5 -20q-1 -13 -8 -23t-16 -20t-23 -31t-62 -77q-49 -56 -74 -92t-61 -13q-12 12 -41 53q-25 25 -74 76q-49 52 -72 74t-2 55q10 12 30 29t32 28q47 66 143 125q33 33 166 -94q10 -8 25 -34t32 -36zM534 955q13 -21 10 -41t-27 -36q-24 -15 -28 -24
q-119 -165 -145 -169q-6 -1 -25 1q-51 23 -116 104q-33 40 -43 52q-43 38 -34 70t26 46q14 14 57 65t104 103q31 12 56 -12q12 -10 38 -37t46 -39q10 -10 39 -36t42 -47z" />
    <glyph glyph-name="semicolon" unicode=";" horiz-adv-x="604" 
d="M242 -54q16 14 16 38t-16 41l-11 8q-14 25 -59 55t-55 64q-4 4 1 21t13 20q33 29 141 133q51 51 83 29q32 -23 81 -77t64 -69q34 -49 20 -76q-6 -16 -12 -45t-23 -45q-18 -16 -54 -56t-69 -65q-16 -6 -38 -28t-33 -27q-10 -6 -34 -23t-64 -32l-74 -37q-15 7 -23 21t-2 22
q74 43 127 108q5 6 21 20zM534 955q13 -21 10 -41t-27 -36q-24 -15 -28 -24q-119 -165 -145 -169q-6 -1 -25 1q-51 23 -116 104q-33 40 -43 52q-43 38 -34 70t26 46q14 14 57 65t104 103q31 12 56 -12q12 -10 38 -37t46 -39q10 -10 39 -36t42 -47z" />
    <glyph glyph-name="less" unicode="&#x3c;" horiz-adv-x="1058" 
d="M41 418q0 43 22 54q87 44 108 70q21 27 64 41t70 33t45 29t53 2t70 31q15 16 35 26t38 24q18 13 42 26q25 13 54 29t61 21t48 28q15 24 27 29t35 -9t32 -34q9 -19 7 -45t-17 -34t-39 -10q-46 -4 -74 -32t-79 -48q-50 -20 -87 -42t-72 -27q-34 -5 -60 -25q-46 -36 -92 -44
t-59 -34q-26 -50 -65 -41q-18 4 -28 2t-7 -20t11 -24t28 -12q20 -5 36 -13q16 -9 36 -17t42 -18l73 -37q18 -10 51 -16t54 -29q22 -22 42 -32t38 -23q20 -13 38 -21t34 -20t34 -20t43 -3q25 6 41 -2l66 -33q12 -6 13 -32t-11 -46q-12 -30 -40 -18t-54 10q-27 -2 -46 8
l-81 37q-19 9 -35 21t-34 22t-32 28q-24 33 -73 38q-48 4 -67 32q-18 28 -38 38t-46 7t-45 6t-33 25t-32 24q-16 8 -32 20q-26 18 -56 30t-44 20t-13 50z" />
    <glyph glyph-name="equal" unicode="=" horiz-adv-x="1218" 
d="M283 289l-86 -10q-14 0 -47 8q-27 27 -29 35q-23 63 16 71q60 3 117 -3q57 -5 80 -7l39 2q123 6 239 6l31 6q100 -18 293 2q10 -4 12 2q32 11 77 11q46 0 62 4q31 -44 35 -54q-6 -51 -65 -57t-103 14q3 -5 -22 -20q-41 14 -182 14l-29 -10q-45 10 -49 14q-47 -10 -96 -9
q-50 1 -61 -5t-36 -6q-6 10 -76 1t-73 -9q-39 6 -47 0zM337 551q-11 0 -31 3t-26 0q-5 -3 -51 -11t-74 4t-36 31q-15 70 23 74t98 0q60 -5 84 -4q22 1 48 2t119 5t113 2h27q80 -16 291 -2q6 0 18 13h88q20 10 39 0q31 -21 31 -52q0 -80 -152 -43l-26 -6q-44 10 -99 8t-90 0
q-12 -12 -33 -12q-18 6 -50 4t-68 0t-62 -10q-27 0 -39 6q-29 4 -80 -4t-62 -8z" />
    <glyph glyph-name="greater" unicode="&#x3e;" horiz-adv-x="1058" 
d="M781 393q15 0 21 4q5 5 1 23t-8 24q-3 6 -21 12t-34 13q-16 8 -50 8q-35 -1 -59 23q-54 53 -131 82q-76 28 -98 56t-55 38t-51 20t-41 8q-22 -2 -38 7q-15 8 -33 15t-32 13t-17 33q-2 27 10 47q6 16 29 26t56 -18q33 -29 81 -48q48 -18 73 -36q47 -34 89 -34
q41 -1 62 -27q22 -26 40 -36t41 -12q24 -3 52 -17q28 -13 56 -27t53 -33q24 -19 53 -30q30 -11 46 -19t46 -8t30 -25l-6 -55q0 -43 -12 -51q-20 -11 -38 -25q-35 -27 -81 -40q-45 -14 -79 -40t-72 -31t-63 -26q-43 -38 -86 -49t-67 -34q-42 -40 -78 -44q-36 -3 -68 -20
q-30 -17 -46 -24q-16 -8 -30 -18t-30 -19q-17 -9 -34 30q-18 31 1 41t33 32t35 31q19 11 37 23q47 33 83 30t61 23q43 43 87 51t72 39q27 30 76 54t69 25t36 8q14 7 29 7z" />
    <glyph glyph-name="question" unicode="?" horiz-adv-x="870" 
d="M406 328q12 -23 75 -104t24 -114q-13 -11 -33 -21t-46 -28q-27 -18 -66 -53t-61 -53q-37 -21 -59 19t-72 102t-64 84q-14 35 -2 55q25 27 77 66t67 51q51 57 82 57l14 6q2 -2 13 -7t17 -18t34 -42zM659 1507q0 -94 3 -102q23 -61 49 -117v-26q4 -4 9 -16t12 -20
q7 -7 14 -33t14 -36q26 -49 16 -137q-6 -53 -82 -117q-41 -29 -67 -37q-20 0 -35 -24q-14 -24 -26 -34t-64 -50q-51 -39 -77 -63q-58 -56 -84 -51q-26 6 -70 43t-59 61t-37 53t-23 33q-20 31 24 61t84 81q38 52 54 68t42 13q26 -5 40 -21t54 -64t66 -71t62 -35q31 0 34 8
q20 53 8 117q-12 63 -45 152l-2 47q-6 14 -26 46t-24 46q-3 14 1 51q11 44 60 105t63 84q12 -12 12 -15z" />
    <glyph glyph-name="at" unicode="@" horiz-adv-x="1861" 
d="M1069 765q0 13 -29 42q-12 8 -38 19t-37 22q-43 18 -76 4q-37 -246 -23 -467q23 -61 99 -74q33 -3 61 15t34 63q5 45 8 145t7 128t-1 59t-5 44zM1364 920q0 -29 -39 -68q-4 -143 -25 -449l11 -65q3 -10 29 -42t28 -34q39 -35 55 -22q49 37 105 137q55 100 55 143
q16 22 12 46t-2 30q12 18 3 94t-9 86t1 42t0 43t-3 39t-17 70q-21 58 -73 134q-43 49 -154 115q-114 77 -157 88q-42 12 -76 18t-90 20q-55 14 -97 11q-153 -7 -174 -23q-22 -16 -61 -20q-125 -33 -222 -135t-124 -246q-16 -86 -33 -110q-17 -23 -21 -125q-5 -101 -7 -107
t2 -15l6 -51q19 -255 102 -295q102 -162 225 -260q40 -31 130 -71q162 -71 323 -70q163 0 271 54t141 81q8 6 20 -7q13 -14 17 -32t-3 -28q-29 -31 -53 -36t-65 -46q-16 -6 -33 -17t-141 -32q-125 -21 -150 -21t-37 -3t-70 9t-157 24t-117 14q-18 3 -28 6t-14 4l-8 2
q-9 3 -17 3h-25q-59 23 -192 131t-170 177q-8 14 -30 54t-45 81q-47 84 -71 194q-51 283 57 506q68 164 134 211q47 35 69 63t29 34q8 6 16 14q9 8 13 12t11 10t12 9t13 9q26 18 70 33q119 55 204 75t179 20q94 2 167 6t118 -8q221 -55 282 -125q127 -37 210 -161
q171 -256 89 -566q-68 -205 -221 -320q-20 -14 -28 -24t-37 -31q-186 -109 -193 -113q-49 -35 -87 -10t-78 81t-58 75l-21 30q-16 2 -47 -28q-96 -100 -162 -144q-2 0 -10 -3t-16 -1q-27 20 -79 56t-68 47q-16 12 -31 21q-14 9 -27 20t-10 41l16 24q12 18 17 29q10 86 8 154
t6 196q8 129 -4 145q0 12 -7 36t1 61l35 6q63 25 225 108q12 10 52 45t50 35l25 -4q10 0 22 -6q53 -53 148 -88l26 -19q27 -4 61 -21l52 -26q25 0 38 -21q3 -5 3 -13z" />
    <glyph glyph-name="A" unicode="A" horiz-adv-x="1282" 
d="M500 285q8 0 24 -6t27 0q49 0 108 77q20 35 22 104q1 69 5 89l-8 26q16 166 12 195q-20 49 -28 53t-14 -2t-12 -17q-7 -11 -15 -16q-4 -35 -38 -86t-42 -71q-80 -76 -150 -203v-41q5 -6 15 -19t14 -22q6 -4 20 -17t33 -29t27 -15zM303 862q49 0 49 52q0 30 -19 75t-37 68
q-17 23 -58 71q-37 37 -68 27q-10 -2 -47 -22q-37 -19 -61 -11t-27 36q-5 67 93 148q38 30 108 78v13q66 70 102 71q16 0 49 -14q57 -51 174 -205q12 -20 40 -83t65 -101q10 -10 25 -1t24 21q4 12 12 44t27 67q23 29 102 154q6 8 22 23q15 15 19 26v12q17 27 60 67t54 51
t24 13t18 -4q29 -41 2 -131q-4 -33 -20 -74q-17 -41 -21 -61t-14 -66q-10 -45 -11 -69q0 -88 2 -129q-33 -240 -32 -290t-3 -191q-4 -142 15 -175q8 -33 55 -47q10 0 18 8t9 19q18 209 18 215q-4 117 -4 350t-4 352q14 23 23 71t18 66l-2 21q39 94 82 133q10 8 30 8t25 -8
q25 -47 -18 -137t-47 -117t-18 -114t-16 -159q-2 -71 -24 -734q0 -35 21 -56q7 -2 23 -2t31 14t28 23q8 -6 14 -6l6 8q27 -38 2 -63q-18 -14 -79 -57t-93 -89q-25 -8 -108 -78q-31 -20 -62 7q-16 18 -77 77t-89 112q-29 52 -98 62q-20 0 -49 -28q-20 -29 -82 -99t-88 -116
q-20 -29 -58 -25t-59 37q-76 102 -131 143q-14 11 -45 7t-39 6q-14 35 -8 49q29 39 78 86t84 81q90 88 116 181q10 27 -13 40q-73 40 -214 5q-20 0 -36 17q-15 17 -4 38t41 69t54 86t121 54z" />
    <glyph glyph-name="B" unicode="B" horiz-adv-x="1724" 
d="M473 307q37 0 45 1t21 12t15 47q1 35 -2 55t-10 51q-6 31 -8 46t-14 28q-23 8 -63 -21q0 -14 -6 -20t-32 -31t-45 -48t-18 -67q0 -59 117 -53zM524 754q14 152 -10 207q-68 39 -123 -91q43 -106 119 -122zM1403 365q-3 16 -23 27q-47 27 -155 -51q-37 -26 -48 -32
t-55 -24t-69 -35q-61 -37 -27 -55q201 -98 283 -121q43 4 61 37q66 154 33 254zM836 1198q-16 0 -35 -27q-27 -147 -26 -224t18 -224q0 -109 -7 -145q6 -84 2 -103q-14 -31 -61 -69t-61 -56q-35 -49 8 -76q76 -47 172 -32q20 8 20 34q14 252 10 298t3 88q6 44 4 69
q-8 27 -9 82q12 94 -4 283q0 84 -14 102h-20zM1032 774q-18 0 -25 16t-1 31q49 63 102 90q14 37 61 87t60 81q3 9 -13 49t-60 91t-53 66q-56 93 -105 58q-9 -6 -23 -22t-23 -24t-10 -35q-2 -27 -4 -35l2 -137q4 -41 -2 -127t-2 -127q18 -47 29 -56q14 0 14 -6v-29
q-61 -90 -18 -233q6 -8 14 -8l61 22l15 -6q76 49 170 84q9 2 23 2t19 -1l-1 -1q0 -14 -7 -20q-49 -39 -154 -84t-140 -64q-8 -12 -21 -20q-41 -111 16 -160q46 20 136 70t139 71h26q27 15 117 78q8 43 -16 78q-25 35 -68 51l-12 7q-1 0 -2 1q16 27 5 53t-40 42
q-103 67 -209 67zM1614 660q0 -46 6 -72t16 -100q10 -75 29 -113q10 -80 -12 -131q-4 -6 -14 -23t-27 -33q-68 -43 -158 -112q-6 -2 -18 -5t-31 -20t-94 -65q-37 -39 -82 -78q-43 -23 -117 -84q-23 -10 -38 -1t-46 34t-74 41q-46 8 -122 36t-102 34q-26 5 -128 36h-49
q-182 59 -393 37q-8 0 -45 -8t-45 14q-8 35 -1 50t31 43q25 28 32 42q8 14 24 28t30 38t71 91t77 108t-29 85q-10 10 -43 44q-32 34 -74 66q-42 30 -55 46q-63 76 -22 123q28 35 94 66q65 31 81 39t36 28q18 12 61 34t65 44q21 22 31 29q145 87 187 125t46 40q5 2 13 5
q8 2 14 4q18 14 62 59t88 59q33 37 107 93q93 72 116 106q23 33 75 37t79 -25q29 -38 85 -104t89 -108t0 -89q-6 -6 -60 -58q-146 -139 -94 -191q25 -25 83 -52q59 -27 73 -40t27 -17t18 -6q90 -78 119 -164q8 -19 8 -65zM1276 612q-4 0 -13 -7q11 2 13 7z" />
    <glyph glyph-name="C" unicode="C" horiz-adv-x="1419" 
d="M492 891q-6 31 -32 55t-68 -6q-42 -29 -60 -127q-4 -20 -6 -27q-8 -109 65 -200q55 -74 96 -39q13 229 5 344zM760 844v-39q20 -70 5 -122t-51 -81q-36 -28 -87 -54t-76 -48q-16 -22 -4 -44t42 -34t38 -12q23 -10 63 -37q81 -56 137 -49q32 0 38 27t4 52q-1 25 1 43
t2 140q-4 92 6 300t1 318q-12 31 -43 38q-58 13 -60 -107q-6 -33 -4 -109t0 -95t-7 -49t-5 -38zM1372 254q-47 -57 -158 -98l-6 -15q-87 -31 -203 -102t-174 -80q-76 39 -220 107t-210 100q-68 56 -94 66t-54 39q-27 30 -42 52q-16 21 -69 88q-52 67 -76 131t-15 158
q6 39 32 70t68 65t58 52q227 133 313 196q29 29 41 35q29 29 139 123t162 156q35 12 75 64q40 51 51 61q12 10 22 14t14 8q8 -23 60 -62q14 -11 79 -26q23 0 71 -15t66 -12t22 9q5 6 8 10t7 13t7 12q29 -20 14 -70q-45 -121 -88 -166q-6 -8 -14 -35t-21 -35q-45 -12 -61 -8
q-70 27 -166 47q-43 10 -54 -35q-2 -29 0 -111t-4 -102t-8 -48t-6 -42q-23 -344 -20 -551q0 -23 15 -43t37 -23t92 -19q69 -16 103 -9q27 18 49 29q42 13 123 49q25 9 36 -11t-1 -36z" />
    <glyph glyph-name="D" unicode="D" horiz-adv-x="1822" 
d="M498 717q14 100 -64 108q-47 4 -61 -20q-73 -99 -53 -203q12 -64 52 -109q42 -46 93 -32q29 57 30 146q1 90 3 110zM901 954q20 96 -16 158q-15 31 -63 29t-68 -17q5 -104 -23 -440q-8 -90 -115 -154v-12q-4 -4 -26 -20q-59 -42 -62 -84q3 -30 43 -47q39 -17 47 -21
t20 -9t26 -13t24 -13q127 -43 152 -45q6 -4 15 9t5 32v35q16 98 17 330v55q6 18 4 57t0 54q6 14 20 116zM1364 223q45 70 48 219q1 50 7 90t-12 99q-7 18 -27 24t-32 -3t-37 -22t-35 -22q-84 -43 -194 -83t-134 -79q-39 -61 -26 -180q2 -35 34 -55t76 -18q18 -3 51 -23
q79 -47 129 -31q98 10 152 84zM1346 854q-12 0 -17 -4q-63 -18 -147 -65t-140 -75t-84 -51q-23 -37 -18 -90q8 -49 61 -32q41 18 123 60t106 52q24 9 40 21q14 12 18 14l29 6q41 12 64 46t7 64t-24 50q-6 4 -18 4zM1315 891q29 88 -64 158q-143 90 -270 71q-27 -4 -27 -26
q-14 -244 -5 -314t118 -14q5 2 27 13t101 50t120 62zM686 1110l-2 17q0 3 -5 7t-8 6q-3 3 -11 5q-9 2 -15 4t-8 2l-21 -6q-42 10 -93 7q-52 -3 -66 -3l-21 -6q-23 8 -82 12t-90 21q-78 -12 -142 36t-67 125q0 39 47 90q8 6 9 21q45 86 163 51q18 -4 52 -23t45 -24
q45 -12 132 -21t107 -13t79 -3q79 3 124 -10q46 -13 76 -10q133 20 162 15t89 -11q60 -7 82 -13t53 -19q29 -13 49 -14t60 -14q104 -73 169 -141t83 -160q0 -6 10 -16t15 -32q4 -22 18 -81q5 -51 17 -151t20 -152q-10 -43 -5 -81q14 -104 -34 -154q-42 -60 -195 -156
t-261 -186h-15q-10 -6 -41 -29t-49 -30t-28 -17q-10 -9 -30 -23t-76 -15t-174 49t-144 59h-29q-51 25 -178 73t-195 86q-92 66 -119 103q-88 172 -65 303q8 49 61 90q14 0 21 6q55 45 96 70q10 8 24 30t26 29q13 7 48 25q34 18 52 30t82 68t107 78q42 20 77 69q14 14 14 27z
" />
    <glyph glyph-name="E" unicode="E" horiz-adv-x="1679" 
d="M496 616q8 162 -4 338q-16 72 -56 56q-102 -43 -149 -183q-10 -47 2 -88q41 -100 133 -172q20 -20 53 2q9 9 15 27t6 20zM553 478q0 -4 20 -25q13 -5 93 -49t129 -52q33 0 26 56q23 93 21 208t-2 129q16 246 -6 455q0 18 -14 32t-42 -4q-27 -20 -26 -65q-12 -82 -12 -255
t-17 -255q-8 -18 -27 -26q-66 -27 -137 -99q-12 -12 -9 -29t3 -21zM909 1165l-6 -26q0 -12 3 -54t-9 -86l8 -26q-12 -220 -11 -225q1 -6 16 -16q14 -10 26 -5t28 25t38 48t110 116q88 89 129 143q7 8 23 17t18 11q49 79 12 132h-20q-63 39 -227 114q-8 2 -33 8t-37 11
q-10 0 -21 -15q-72 -72 -47 -172zM1579 366q8 -8 8 -21t-47 -54h-20q-380 -218 -611 -330q-41 -14 -102 47q-7 6 -25 16t-32 23q-14 12 -97 41q-6 4 -20 14l-21 15q-8 0 -14 -2q-26 16 -134 84t-171 100q-173 101 -221 275q-27 98 2 217q18 55 76 112q22 16 82 44t87 54
q17 11 55 23q49 15 60 33q12 17 23 20q26 17 69 38t132 87t141 86q49 41 157 116t162 122q68 49 111 42t61 -20q97 -75 244 -104q22 -4 27 -17q6 -23 -21 -61q-43 -37 -74 -90q-12 -14 -62 -75t-101 -99q-6 -27 -34 -68t-34 -63q0 -7 9 -15t20 -6q223 -14 295 2
q23 -12 8 -61q-3 -7 -11 -19t-10 -16q-39 -131 -80 -172q-10 0 -131 -1t-131 11q-40 4 -104 -6t-88 -10q-30 -7 -64 -34q-33 -27 -45 -36q-20 -20 -20 -49l-13 -233q0 -10 15 -29q162 -81 210 -87q48 -7 59 -8t62 15t164 80q36 6 94 38t93 40q4 -1 12 -9z" />
    <glyph glyph-name="F" unicode="F" horiz-adv-x="1409" 
d="M766 1225q0 -18 3 -85t-8 -130q-11 -64 15 -115q23 -23 49 -14q84 47 109 84q114 47 143 147q-23 50 -58 89q-36 38 -82 82t-49 47q-46 46 -83 46l-12 -6q-12 -12 -27 -76v-69zM398 1290q12 0 19 6t11 7l76 22q20 10 246 107q55 33 110 43q31 10 89 42t89 42q61 14 79 14
t18 -14q0 -63 43 -112q14 -17 46 -51t44 -48q49 -49 116 -41q4 6 17 0q12 -7 12 -13q-12 -42 -78 -76t-74 -44t-12 -16q-4 -7 -8 -11q-51 -25 -127 -95t-118 -98t-48 -42q-6 -13 -6 -23q-8 -8 27 -27q233 -43 331 -31q29 12 35 21q12 -12 27 0v-21q-8 -18 -38 -61t-36 -70
q-10 -24 -22 -32t-13 -23q-29 -33 -32 -49q-35 -61 -131 -14q-6 -8 -15 -9q-113 18 -268 19q-37 -10 -47 -64q-2 -63 3 -194t1 -197q-12 -55 -47 -63q-61 -8 -36 100q13 57 13 141q29 573 17 971q0 12 -15 27q-51 27 -102 -29q-16 -63 -13 -194t-18 -191q-4 -38 15 -82
q4 -205 -11 -332q0 -35 8 -47q10 -119 -24 -297q-2 -29 -17 -51q-16 -22 -50 -50q-34 -30 -41 -37t-7 -21q-78 -84 -157 -160q-6 -8 -7 -21q-31 -27 -82 -87q-100 -117 -158 -117q-20 0 -26 16q-2 12 -6 21t25 29q30 21 36 27q83 90 115 117q59 66 73 152q13 86 5 207
q-8 66 -111 82q-2 2 -11 8t-9 12q9 59 71 128q7 10 26 32q20 22 26 32t7 25t2 23t-2 26t-4 23q-1 4 -7 26t-6 23q-8 53 -91 82q-16 20 -8 48t20 43q11 15 32 41t39 56t18 89q6 41 -9 82t-59 55t-45 18q-18 33 3 60q22 27 59 39q47 10 184 69q7 2 19 2z" />
    <glyph glyph-name="G" unicode="G" horiz-adv-x="2039" 
d="M535 891q-36 -1 -77 -29t-67 -46t-41 -38q-33 -61 -4 -157q23 -57 68 -97t98 -41q18 -3 30 13t19 45q24 131 10 303q0 47 -36 47zM1584 5q80 98 26 237q-74 22 -216 -8q-40 -8 -108 -24l-125 -26q-31 -8 -24 -30q0 -27 87 -89q64 -49 107 -96q14 0 21 2q4 -2 34 -24
q49 -36 91 -23q63 27 107 81zM973 628q0 16 12 40q13 68 17 184t8 162q0 70 -15 108q-14 14 -34 15q-82 0 -91 -70q-10 -59 -4 -172t-1 -153t-8 -84t-10 -74q-17 -55 -120 -99q-51 -23 -70 -34q-34 -34 9 -76q16 -11 41 -19q49 -49 132 -76q82 -26 111 -38l13 6
q23 100 12 168t-6 132q4 64 4 80zM1622 346q4 25 1 34q-3 10 -17 30t-22 34t-42 12q-35 -2 -51 5q-47 -13 -135 -27q-126 -21 -139 -31q-9 -2 -73 -9q-64 -6 -98 -32t-14 -92q27 -70 152 -32q190 39 397 73q35 15 41 35zM1489 551q0 33 -41 61q-113 68 -212 93t-161 -50
q-26 -35 -28 -90q-1 -55 -3 -68t12 -27t34 -12q22 1 92 3t108 5q116 9 193 50q6 21 6 35zM1112 1145q-14 0 -20 -6q-31 -80 -25 -192t6 -131q-1 -18 17 -30t32 -6q70 29 185 103t143 89t33 42q3 27 -13 33q-66 35 -145 45q-10 0 -33 16t-31 17t-87 20h-62zM1976 1368
q15 0 15 -14q0 -70 -103 -117q-133 -106 -178 -133q-47 -39 -205 -154q-25 -18 29 -55q8 -4 51 -29t69 -33t49 -26q23 -19 33 -25t23 -23t19 -23t21 -26q15 -22 17 -24t19 -29l18 -26l9 -35q49 -98 69 -207q17 -66 17 -126t-33 -163q-29 -74 -164 -118q-33 -12 -90 -45
t-68 -39q-44 0 -120 -46t-119 -47q-88 -61 -193 -86q-20 -10 -47 9q-12 12 -40 43t-58 51q-4 11 -14 18q-11 6 -13 8q-96 76 -212 138t-298 144q-182 83 -201 99q-18 17 -32 31l-21 21q-6 8 -20 8q-26 19 -50 55q-24 35 -34 47q-10 35 -27 62q-57 147 92 309q59 25 287 156
q49 20 131 90q14 12 47 26t53 28t56 52q4 2 17 6t18 8l20 21q89 23 147 73t119 81q10 10 35 24q25 13 32 21t24 13t26 11q43 53 164 133q88 49 123 23q20 -8 -12 -55q-7 -11 -45 -25t-37 -39q-4 -4 3 -16t17 -17q86 -43 215 -67q209 -35 227 -39q27 12 60 49t49 49h14z" />
    <glyph glyph-name="H" unicode="H" horiz-adv-x="1640" 
d="M1124 633q20 23 8 64t-26 59t-39 14q-23 -8 -57 -36t-48 -36q-13 -8 -60 -17t-66 -38q-4 -16 -22 -53t-19 -53q-2 -16 8 -58q6 -8 26 -8q170 57 295 162zM1016 1016l-21 8q-119 -43 -157 -106q-68 -139 -4 -220h40q52 23 74 37q22 13 34 21t37 26l32 24q9 5 37 28t32 26
q27 12 15 55t-44 73t-75 28zM1446 496q0 -111 5 -129t5 -60q-8 -25 -4 -102q4 -12 41 -49q8 -37 -29 -62t-153 -95t-187 -128q-14 -9 -47 -25t-47 -24q-55 -42 -150 -100t-126 -80t-56 -35q-25 -14 -52 -16q-28 -1 -36 11q-21 30 29 64q141 82 216 123t133 86t108 160
q12 31 12 117v69q6 14 6 35q-16 35 -6 123t4 123q-16 43 -49 35q-70 -16 -164 -78q-10 -8 -41 -25t-41 -30t-14 -15q-35 -67 -24 -107q24 -90 124 -27q25 15 39 19q29 -29 -20 -63q-58 -27 -72 -27t-31 -22q-53 -20 -145 -74t-157 -78q-65 -25 -101 4q-147 119 -242 156v20
q6 6 42 26t39 38q3 20 9 58t11 87q7 72 -17 136q-20 16 -66 25t-65 28q20 51 61 82q12 0 21 8q8 16 40 43t36 53q10 59 -29 90q-22 15 -54 15l-63 -2q-6 0 -22 12v14q61 74 143 105q30 35 41 87q10 52 12 58v68q-8 41 -90 41q-20 2 -81 5t-95 12q-35 9 -78 14t-55 7
q-23 -2 -41 12t-15 28t9 22t12 12q7 4 15 11t12 10q55 68 88 118q26 27 60 16q122 -40 227 -40h53l223 16q20 0 49 33q30 33 46 35t16 -5v-12l-2 -14q4 -55 -4 -96q-6 -61 -8 -180t-12 -194q-9 -75 -21 -308q-5 -26 -15 -92t-18 -101q10 -45 3 -139t7 -141q4 -2 33 -22
q43 -30 78 -5q23 30 27 98t12 89v41q8 440 40 659q-2 29 -2 59t-3 120q-3 88 0 106q7 44 13 120q1 14 11 17q10 4 10 12q45 -23 35 -69q-12 -25 -12 -41q-27 -221 -23 -467q0 -27 14 -35q14 0 25 -3t38 20t32 26q135 135 211 180q33 78 90 70l20 -6q41 -41 70 -54l6 -14
q37 -16 49 -27q28 -31 90 -72t80 -57t6 -24t-26 -14t-24 -14q-10 -7 -19 -41q-7 -34 -7 -97t-6 -98t-20 -125v-127z" />
    <glyph glyph-name="I" unicode="I" horiz-adv-x="1193" 
d="M825 90q0 -28 -26 -90v-20q-27 -56 -74 -101q-68 -64 -233 -158q-14 -14 -21 -14q-53 -35 -117 -69q-14 -6 -57 -14t-66 -21q-23 16 -24 47q-2 31 22 49q141 76 144 78q43 25 69 90l13 6q26 88 41 163t-10 172t-44 126q-94 133 -206 115q-12 0 -23 10q-10 10 -6 24
q10 18 29 27q125 45 155 127q12 72 6 111q-10 43 -75 38q-16 -2 -70 -24t-88 -10v12q31 37 59 57q27 20 69 45t62 39q61 45 135 146q72 104 82 118l35 35q0 2 6 10q19 26 0 37q-4 4 -9 4l-25 -4q-50 -23 -154 -55t-156 -51q-10 10 -40 34l-45 36q-47 41 -68 79q-26 13 -47 7
q-21 -7 -31 -10q-9 -3 -25 -13t-32 -19t-35 -28q-27 -19 -57 -25t-40 17q-13 18 -3 40q9 23 25 33t26 16t27 15q17 8 141 87q124 80 156 98q34 18 64 18t42 -12q92 -121 182 -191q37 -31 110 -12q16 6 72 17t86 32q76 68 150 104l14 -6q18 -26 8 -61q-35 -82 -108 -305
q-10 -37 -10 -112t-11 -138q-10 -63 -6 -357q-4 -80 4 -225q8 -146 8 -174zM1188 1409v-33q-8 -24 -37 -68t-37 -71q-61 -254 -65 -338q0 -4 -19 -49q-10 -43 -8 -123t-2 -118q-4 -37 6 -103t8 -96q-8 -31 8 -82q29 -193 17 -289q0 -12 3 -60t-7 -85q-12 -20 -39 -32t-51 -3
q-4 225 -1 318t0 132t9 72q-27 84 -17 221q0 25 -6 136t11 188q4 39 30 192q4 8 8 20t7 15v21q12 20 25 66t23 58t47 58q36 45 73 53h14z" />
    <glyph glyph-name="J" unicode="J" horiz-adv-x="1193" 
d="M825 90q0 -28 -26 -90v-20q-27 -56 -74 -101q-68 -64 -233 -158q-14 -14 -21 -14q-53 -35 -117 -69q-14 -6 -57 -14t-66 -21q-23 16 -24 47q-2 31 22 49q141 76 144 78q43 25 69 90l13 6q26 88 41 163t-10 172t-44 126q-94 133 -206 115q-12 0 -23 10q-10 10 -6 24
q10 18 29 27q125 45 155 127q12 72 6 111q-10 43 -75 38q-16 -2 -70 -24t-88 -10v12q31 37 59 57q27 20 69 45t62 39q61 45 135 146q72 104 82 118l35 35q0 2 6 10q19 26 0 37q-4 4 -9 4l-25 -4q-50 -23 -154 -55t-156 -51q-10 10 -40 34l-45 36q-47 41 -68 79q-26 13 -47 7
q-21 -7 -31 -10q-9 -3 -25 -13t-32 -19t-35 -28q-27 -19 -57 -25t-40 17q-13 18 -3 40q9 23 25 33t26 16t27 15q17 8 141 87q124 80 156 98q34 18 64 18t42 -12q92 -121 182 -191q37 -31 110 -12q16 6 72 17t86 32q76 68 150 104l14 -6q18 -26 8 -61q-35 -82 -108 -305
q-10 -37 -10 -112t-11 -138q-10 -63 -6 -357q-4 -80 4 -225q8 -146 8 -174zM1188 1409v-33q-8 -24 -37 -68t-37 -71q-61 -254 -65 -338q0 -4 -19 -49q-10 -43 -8 -123t-2 -118q-4 -37 6 -103t8 -96q-8 -31 8 -82q29 -193 17 -289q0 -12 3 -60t-7 -85q-12 -20 -39 -32t-51 -3
q-4 225 -1 318t0 132t9 72q-27 84 -17 221q0 25 -6 136t11 188q4 39 30 192q4 8 8 20t7 15v21q12 20 25 66t23 58t47 58q36 45 73 53h14z" />
    <glyph glyph-name="K" unicode="K" horiz-adv-x="1689" 
d="M831 667q1 -7 9 -15t18 -7q10 2 62 34t81 36q107 82 289 182q29 16 14 48t-51 46q0 14 -6 23q-80 63 -145 100q-33 -4 -78 -38t-59 -40q-18 -33 -54 -64q-35 -32 -45 -44t-14 -30t-6 -42q-2 -23 -5 -32t-9 -25q-6 -17 -10 -31q-3 -14 3 -54t6 -47zM805 471q0 -16 -3 -59
t-1 -69q1 -26 23 -33q40 -13 85 24q57 70 111 43q8 -39 -74 -90q-14 -10 -39 -40t-40 -36t-21 -12t-31 -35t-41 -45q-26 -45 -62 -71t-87 -83q-20 -20 -56 -6q-93 82 -238 111q-50 10 -134 22q-12 25 -1 45t38 44q101 87 83 229q-14 49 -43 61q-16 8 -63 6t-53 21v14
q39 53 149 125q0 12 6 52t-14 65q-21 17 -39 19q-18 1 -28 2t-25 0t-27 -1t-21 12t-5 29q23 27 83 65t75 59q37 51 33 148q-2 64 -23 74q-170 31 -295 31q-68 0 -29 96q6 27 38 67t39 52t22 49t50 47q25 6 68 -6q227 -109 358 -24q14 6 41 24t41 25q7 -14 15 -5t21 3t10 -38
t-4 -39t-11 -37t-15 -58t-4 -97t-16 -153t-16 -230q8 -14 8 -41q-25 -322 -14 -483q0 -33 47 -47q47 0 55 14q8 19 13 63q6 44 8 64t-4 142q-6 121 6 151q37 231 39 262l-9 29q8 53 14 161q5 108 11 154q0 84 -2 125q-14 61 14 90q27 18 41 -14q16 -26 6 -98t-5 -105t-5 -93
t-13 -96t15 -95q14 -23 49 -9q150 127 191 168q89 76 143 119q92 96 158 127q13 -30 -13 -64q-50 -65 -14 -106q57 -70 84 -72q8 -6 46 -41t79 -47q25 -10 18 -36t-30 -39q-13 1 -21 -9t-25 -23t-24 -24q-8 -8 -33 -26q-82 -59 -80 -105q1 -20 19 -43q14 0 14 -6
q0 -14 6 -20q72 -29 91 -54q4 -18 1 -27q-3 -10 -15 -28t-13 -29l2 -26q-29 -57 -20 -84v-90q-14 -127 -11 -158q8 -49 76 -74l6 -14q6 0 18 -5t18 -1q7 4 14 14t14 12q8 8 16 37t23 39q28 -41 16 -129q-10 -32 -42 -54t-86 -72t-112 -83q-23 -15 -57 9t-109 60
q-76 36 -110 64q-14 33 -14 50q10 70 19 206t17 207q-29 41 -110 94q-35 14 -49 7q-31 -18 -85 -60t-85 -59q-35 -28 -35 -76z" />
    <glyph glyph-name="L" unicode="L" horiz-adv-x="1277" 
d="M213 95q-12 -3 -28 -3t-31 6q-2 6 -2 15q4 4 11 14t9 12q102 47 193 78q30 42 30 110t2 85q10 47 -35 82q-20 12 -52 11t-50 2t-21 20t11 34q42 28 90 64q47 61 47 110q6 23 -2 51t-29 32q-22 5 -68 7t-61 4q-10 35 27 62q104 55 135 153q16 35 7 83q-9 47 -14 75
q-10 58 -59 41q-49 -18 -99 -61q-50 -44 -62 -52q-36 -16 -54 -5t-55 52t-57 42q-70 49 -57 81q19 45 89 83q19 11 27 16q11 8 31 33q40 49 78 43q20 -14 80 -67t114 -75q14 9 45 27t47 30t62 31t62 31t68 55t108 52q12 0 12 -9q-6 -16 -4 -58t0 -58q-20 -66 -24 -86t-1 -94
q2 -75 0 -103q-14 -33 -14 -47q8 -20 8 -55q-12 -93 -8 -133t4 -103q-8 -17 -6 -71t-1 -70t-5 -47t-6 -45q-7 -10 -3 -110t5 -112q-6 -12 -7 -32q6 -12 10 -39t13 -37q19 -28 47 -16t37 32q8 20 8 60q0 48 16 84q11 82 5 278t16 279q-4 297 8 448v68q0 84 47 90h17
q12 1 12 -21v-26q6 -45 -6 -131q-2 -31 -5 -198t-12 -257q-4 -117 -16 -330l8 -14q-27 -209 -31 -352q0 -16 16 -32t35 3q19 18 25 23q24 8 54 28q137 127 260 183q36 0 27 -31t-31 -47q-22 -15 -50 -29t-58 -40t-237 -167q-8 -8 -28 -26t-31 -31q-29 -12 -38 -18t-37 -35
q-28 -28 -62 -48q-33 -20 -53 -19t-43 15q-68 47 -91 62q-26 12 -92 52t-108 54h-29q-7 -8 -23 -16t-29 -15q-13 -8 -19 -10t-19 -5z" />
    <glyph glyph-name="M" unicode="M" horiz-adv-x="2557" 
d="M2079 905q-8 45 -35 35q-55 -16 -70 -24t-76 -46t-120 -63q-25 -36 -85 -60q-59 -24 -73 -32q-53 -39 -27 -117q61 8 179 84q45 27 147 73t154 83q22 16 6 67zM2056 1048q0 16 -20 37q-39 16 -47 27q-19 14 -53 50t-62 52t-82 12q-52 -4 -109 -63q-14 -12 -43 -21
t-38 -14q5 -19 -7 -90q0 -22 -5 -96t1 -96q10 -45 70 -35q39 12 105 55t100 58q51 16 65 26t54 32t56 36q15 14 15 30zM1559 364q4 -63 4 -71t10 -17q14 -12 28 -15t20 -22q7 -18 -12 -36q-68 -64 -89 -81q-22 -18 -48 -28t-36 -20t-33 -41t-43 -43q-49 -33 -68 -15
q-84 80 -250 142q-12 8 -20 20v15q53 84 58 116t9 120q3 87 17 136q-15 20 -7 68q7 49 2 124t1 118q8 6 8 26q-6 31 -1 89t-1 91q-25 57 -78 88q-20 6 -59 26t-66 34q-69 32 -117 -14q-16 -188 -6 -550t-2 -552q-2 0 -6 -2q-27 -8 -33 12q-2 2 -3 9t-6 35t-8 54t-1 105
t1 109t11 42q0 14 -14 76q0 55 7 133t4 171t5 130l-8 35q0 68 12 207q-2 37 -31 54q-30 17 -67 -7q-16 -12 -33 -64q-2 -35 -5 -99t-8 -114q-5 -48 6 -188t-1 -205l8 -47q-4 -57 -4 -197t-12 -217q-16 -16 -72 -63t-84 -76q-47 -41 -140 -116t-140 -115q-4 -4 -14 -22
t-19 -19q-25 -10 -33 10t-2 45q18 35 71 94q52 58 62 70t23 51q2 27 12 93t10 92t-12 90q-20 14 -68 14t-71 12q-4 4 -4 16t12 30t60 56t69 64q33 53 18 125q-9 42 -70 57q-34 8 -40 11q-16 35 -3 73t53 61t59 71t3 100q-18 47 -88 47q-31 4 -41 36q-11 32 11 49
q22 16 63 34t62 32q74 59 178 107q5 2 31 16t62 28t126 77q90 62 120 80t76 57t62 49q14 10 32 12t23 -4q55 -55 201 -135h20q139 -70 201 -88q23 -16 23 -20q8 -162 -6 -467t-13 -428l-6 -27q4 -14 5 -40t8 -42t30 -22l12 8q45 86 45 262q6 61 13 182q6 121 10 170t12 152
t3 168t-4 113q2 71 20 83q8 0 20 21q28 -53 20 -103q-13 -91 3 -103t54 4q38 17 56 17q33 27 107 66t104 61q0 4 7 14t8 13q106 70 178 72h12q38 -73 132 -164q30 -29 36 -35q29 -12 77 -42t97 -58q29 -20 21 -50q-6 -12 -37 -23t-37 -26q-44 -98 -24 -300q9 -93 7 -140
q0 -10 -14 -20q-113 -68 -225 -162q-18 -18 0 -41q8 -6 54 -28t58 -46q25 -6 100 -49t122 -39q14 2 20 -10t-3 -32q-9 -18 -28 -28q-20 -10 -58 -41t-58 -44t-119 -95q-33 -14 -47 -14q-49 27 -125 102q-10 6 -35 12t-39 18t-61 30t-68 41v28q10 15 62 41l55 55q16 21 38 71
q21 50 27 70t11 97q4 76 10 108q6 33 -4 63t-39 34q-46 -34 -143 -86q-96 -52 -117 -62q-4 -4 -12 -11t-9 -11q-135 -53 -178 -119q-26 -46 -22 -109z" />
    <glyph glyph-name="N" unicode="N" horiz-adv-x="1779" 
d="M1276 823q-27 115 -98 115q-29 6 -103 -43l-20 -21q-47 -18 -88 -63q-19 -13 -61 -31t-62 -30q-51 -43 -62 -113q0 -25 12 -45t36 -18t124 38q30 14 92 56t86 52q24 11 54 19q29 7 39 17t34 25t17 42zM1096 1000q0 32 -35 67q-47 33 -73 67q-25 34 -44 59t-51 79
q-31 31 -76 20q-13 0 -18 -16t-11 -25q-2 -31 -2 -165t-6 -207q-12 -51 41 -62q141 84 248 133q27 18 27 50zM1722 242q35 -10 35 -39t-11 -48q-11 -20 -22 -24q-47 -14 -67 -27q-14 -16 -76 -49q-51 -55 -88 -78q-43 -13 -56 1t-55 60t-66 58q-26 12 -46 16t-78 27
q-58 22 -100 13q-8 -2 -30 -6t-34 -9q-23 -1 -40 15t-7 41q25 49 94 83q106 31 152 119q2 4 39 73q79 145 32 224q-8 6 -49 6l-40 -16q-30 -12 -43 -18l-39 -18q-47 -20 -117 -75q-14 -10 -46 -20q-37 -12 -61 -30q-24 -19 -55 -26t-47 -19t-29 -52q0 -25 -5 -155t1 -154
q0 -2 -20 -29q-16 -4 -34 1t-22 19q-12 76 19 138l-6 28q4 42 3 176t13 183q0 61 -2 88q-12 98 18 338q-14 14 -6 48t6 42t-5 24t-8 33q-8 29 -38 25q-47 -18 -88 -64q-20 -25 -35 -90q-8 -57 -11 -163t-7 -183q-4 -76 -3 -294t-1 -351q-175 -207 -326 -350q-35 -34 -53 -52
t-49 -30q-14 0 -21 8q-23 53 12 102q104 86 115 222q-1 6 11 34t12 42l-4 63q-10 43 -76 39q-25 0 -35 20v15q27 35 94 90q12 12 27 75q0 117 -35 158q-14 10 -70 27q-8 4 -8 28q10 17 53 59t50 73q29 76 6 172q-15 50 -78 61q-10 2 -35 6q-17 25 -2 42t31 28q16 12 30 18
t54 31q56 34 141 57q98 61 137 78q31 18 53 55q13 13 47 21t44 14q68 47 206 112t154 73q14 8 89 55t138 69q35 0 49 -6t15 -34q-17 -19 -71 -53t-72 -64q52 -82 156 -173q38 -35 63 -71q25 -35 85 -87q60 -53 74 -71q54 -74 68 -110q2 -12 12 -53q18 -74 24 -127t-14 -103
q-67 -26 -142 -84q-75 -59 -89 -69q-4 -8 -14 -22t-13 -19l-14 -9q0 -18 18 -39q18 -22 23 -28q31 -23 90 -47t77 -36q86 -54 124 -58z" />
    <glyph glyph-name="O" unicode="O" horiz-adv-x="2011" 
d="M592 862v49q6 13 6 33q-4 12 -5 40t-8 45t-30 20q-84 10 -170 -113q-40 -57 -25 -177q4 -32 7 -44q8 -49 55 -82q12 -3 37 -17t37 -19t38 -9t39 6q20 59 21 131q-8 14 -8 41q11 30 9 60q-3 29 -3 36zM885 1155q0 -17 -7 -27t-8 -14q-12 -111 -12 -166q-6 -45 -12 -162
t-15 -128q-8 -11 -19 -15t-17 -5q-7 -1 -23 -4q-16 -4 -59 -16t-55 -32t-9 -34q2 -14 -1 -29q-3 -16 16 -25q40 -14 124 -60t132 -61q22 23 30 49t9 75q1 48 2 56q12 29 12 35l-6 33q12 45 12 55q-8 29 -8 145q6 35 8 101t4 86q4 2 0 24l-2 23q16 43 6 69q-2 16 4 46t1 44
q-5 13 -4 47t-9 42q-12 16 -43 -8t-37 -57t-10 -52t-4 -35zM1587 481q0 27 3 79t4 86q3 91 -46 151q-36 0 -75 -33q-41 -33 -99 -68t-268 -186q-20 -20 -62 -49q-27 -33 -26 -131q0 -27 43 -58t53 -45q25 -3 62 -33t50 -37t38 -12q48 -11 99 14q111 54 130 72q76 117 74 201
q0 2 20 49zM1028 647l-14 -29q-12 -51 22 -73h21q27 12 79 51t78 51t50 43q25 31 35 39q11 8 45 36t55 32q6 4 45 21t66 45q28 28 18 79q-16 47 -92 74h-27q-80 -37 -164 -125q-12 -8 -54 -43t-89 -55q-10 -7 -28 -25t-27 -25q-18 -39 -19 -96zM1376 1096q0 23 -16 36
t-58 50q-112 99 -198 112q-23 0 -27 -4t-13 -12t-9 -26q0 -19 -13 -89q-2 -29 0 -105t-4 -108q0 -51 21 -96q43 12 106 59t77 55t22 22q6 12 15 18t39 20t44 30q14 15 14 38zM1903 567q2 -37 6 -56t-16 -92q-19 -72 -20 -80q-1 -9 -15 -28q-80 -51 -206 -101t-172 -62
q-44 -12 -79 -34t-47 -26t-34 -5t-32 -5q-178 -88 -252 -107q-29 -12 -43 -20h-41q-37 17 -85 75t-89 74q-6 0 -17 12t-30 21q-19 8 -74 38t-86 44q-68 22 -140 57q-73 34 -93 44t-72 61q-17 8 -36 25q-19 16 -35 29t-35 29t-47 60v27q-63 150 -2 276v21q27 36 95 68t106 63
t100 69t143 81q83 43 113 63t74 57t87 61q44 24 59 38t21 18q14 0 21 6q12 18 54 48t177 120q37 18 84 8q113 -53 207 -108q16 -10 44 -40t34 -35t34 -21t35 -33q14 0 21 -7q94 -70 125 -129q84 -141 119 -245q33 -120 31 -188q-1 -68 8 -89q0 -33 -7 -47q1 -21 7 -35z" />
    <glyph glyph-name="P" unicode="P" horiz-adv-x="1785" 
d="M1368 397q0 82 -29 152q-10 27 -9 80t-11 91t-57 54q-31 12 -73 -6q-43 -18 -147 -78q-104 -61 -151 -84q-14 -8 -39 -35t-37 -36q-29 -29 29 -68q139 -43 297 -121q143 -61 207 -10q13 13 15 34q3 21 5 27zM1225 905q0 27 -23 51t-47 17q-84 -26 -181 -85t-134 -77
q-59 -43 -60 -160q18 -29 64 -10t59 33q33 20 115 74t131 81q76 33 76 76zM1167 1124q-9 42 -46 87t-46 57q-6 4 -18 16t-27 23t-34 10q-19 -2 -45 0t-33 -2q-76 -23 -117 -98q-13 -27 -17 -77t-8 -69q0 -31 15 -67q1 -20 -9 -70t-2 -64t39 -10q86 41 150 96q105 51 113 55
q8 5 20 13t15 11t15 11t13 13q2 4 11 14q9 9 8 15t4 17t-1 19zM717 656v120q4 16 1 110t-3 109q10 150 10 277q4 31 -2 91t-4 84t26 31q37 10 49 -42q3 -18 5 -32q5 -35 35 -36q33 8 90 49q92 86 153 126t119 30q8 -4 24 -10q80 -29 109 -72q19 -10 27 -13q32 -13 63 -64
q31 -52 56 -66q16 -31 33 -67t39 -81q22 -46 31 -68t37 -84t36 -100t11 -104q4 -83 23 -181q19 -99 19 -163t-68 -92q-47 -14 -91 -45q-43 -31 -77 -51t-43 -31q-70 -41 -96 -70q-25 -18 -91 -55q-66 -36 -85 -52q-18 -16 -24 -16l-25 4q-14 -2 -35 -2q-49 14 -136 48
t-115 41t-50 19q-20 12 -34 12q-14 1 -60 13q-18 12 -35 29q-34 23 -68 -8q-20 -47 -20 -57t-6 -100t30 -146q18 -32 64 -41q47 -10 69 -21t89 -33t96 -23t41 -24q10 -31 -9 -55t-45 -18t-72 16t-73 14q-18 12 -49 21q-55 25 -158 12q-135 -29 -198 -65q-16 -8 -56 -35
t-61 -35q-23 -4 -30 18t1 43q94 283 70 553v32q0 53 -35 62q-10 4 -46 10t-54 16q-18 11 -19 36q20 29 68 71t70 68q32 47 12 99t-76 59q-4 23 7 40t61 50q6 10 6 70q-6 28 -37 36q-30 7 -39 11q-6 4 -6 16t8 26t44 38q36 25 42 30q37 55 10 160q-4 53 -64 82t-114 12
q-12 14 -11 40t15 36q72 51 88 71t23 34q14 11 42 41t46 42q27 12 55 -2t86 -61t72 -58t19 -15t17 -15q28 -24 36 -59q0 -27 3 -121t-8 -162q0 -61 9 -96q0 -14 -6 -27q-2 -14 2 -63t-9 -62l9 -14q-14 -100 -13 -172q4 -39 39 -64t78 -24q33 41 33 115z" />
    <glyph glyph-name="Q" unicode="Q" horiz-adv-x="2099" 
d="M569 1057q-47 0 -87 -37t-48 -88l-14 -6q-6 -18 -16 -58t-18 -64q-7 -26 -8 -37t5 -38t7 -36t40 -64q57 -94 119 -109q18 31 55 15q4 -8 6 -38t15 -38q31 -16 99 -49t136 -70t87 -48t32 -7q33 8 34 42t-5 93t-7 91q0 32 15 89v49q-4 262 2 393q12 41 12 62q0 31 41 41
q12 -60 10 -114t0 -91q-4 -6 -4 -15l4 -34q-6 -14 -6 -49q-4 -18 19 -28t43 -5q37 18 113 49t114 49h20q8 2 76 43q-16 45 -104 86t-99 49q-33 33 -131 103h-55q-21 11 -33 39t-16 35l-14 8l-26 39q-21 25 -31 22q-11 -2 -25 -8q-12 -86 -18 -285t-25 -307q-8 -70 -115 -113
q-92 -27 -143 -49q-23 0 -23 13q-6 32 2 104t-4 102q8 25 7 73t5 83t-22 107q-6 6 -21 6zM1614 635q0 35 -35 35q-78 -26 -227 -93q-150 -67 -196 -86t-77 -55q-13 -26 -14 -64q-2 -39 -4 -53q-8 -39 55 -102q12 -12 76 -27q39 -6 104 9q51 20 129 110q20 23 71 70
q50 47 73 78q49 82 45 178zM1626 785q0 48 -43 84t-84 28t-223 -80q-127 -43 -131 -43q-61 -12 -68 -49q-18 -100 -12 -131q10 -70 41 -53q143 47 178 69h27q45 25 137 54t135 51t43 70zM1651 416q0 -10 8 -15q33 -5 78 -33t60 -33t72 -25t107 -21q27 8 47 41h15
q49 -45 2 -109q-23 -29 -80 -89q-58 -60 -74 -84t-51 -79q-27 -27 -68 -14q-51 25 -149 82t-150 80h-26q-86 63 -160 -2h-20q-96 -45 -164 -113q-6 -6 -22 -9t-25 -11q-61 -62 -109 -56t-98 80q-37 18 -127 80t-144 84q-65 5 -124 41q-61 36 -101 70t-59 43q-63 53 -96 102
q-8 8 -15 8q-12 18 -35 62t-37 61q-12 143 -2 205q10 45 62 84q102 72 117 84q80 43 91 53t43 32t44 34q98 53 114 71q29 23 137 107q108 85 144 115t53 37q28 11 127 93q98 82 162 123q20 20 53 21q31 -14 23 -35q-39 -37 0 -88q20 -14 53 -47t44 -39t29 -15q18 -8 25 -12
q5 -4 21 -13q66 -38 92 -85q10 -4 102 -49t140 -86q43 -29 69 -62q78 -86 95 -268q8 -63 -27 -143q-8 -29 -37 -42l-30 -15q-46 -22 -65 -41q-20 -19 -37 -34q-18 -16 -24 -22t-20 -19t-22 -23t-19 -23q-10 -12 -18 -25q6 -4 6 -14z" />
    <glyph glyph-name="R" unicode="R" horiz-adv-x="1624" 
d="M668 277q0 -35 14 -62q14 -19 43 -27t61 5t112 61q81 48 120 68q62 11 76 40q16 48 21 68t1 59t-31 66q-8 8 -34 8q-43 -18 -120 -65q-77 -46 -110 -58t-73 -37t-54 -30q-12 -16 -20 -21q4 -8 -1 -24t-5 -51zM618 420l-8 20q4 25 20 104t14 132q-3 53 -3 149q4 5 7 17
t5 18q12 180 4 268q-4 23 -17 30q-14 7 -32 -9t-18 -27q-53 -307 -62 -757q-10 -51 15 -76q25 -14 49 6q16 57 26 125zM1090 680q0 20 -12 27q-12 6 -46 26q-33 19 -64 35q-31 15 -79 12q-113 -25 -178 -98q-16 -18 -27 -55q0 -14 -2 -42t-4 -61t22 -69h21q229 119 356 190
q13 15 13 35zM827 1282q-63 0 -88 -61q-6 -31 -20 -76q-14 -149 -10 -179t-2 -80t-5 -79l9 -14q6 -6 34 -7q55 23 139 85t128 83q61 25 67 29q41 31 32 66t-46 65q-8 6 -21 6q-6 6 -20 24t-68 55q-54 38 -94 77q-4 6 -35 6zM166 446q-43 0 -51 3q-21 3 -21 31t21 38
q66 25 114 105q13 15 11 37t-17 30q-16 12 -48 26t-40 17t1 21q10 18 24 26t40 32t36 32t13 56q2 48 -34 61q-12 4 -38 10t-37 10t-22 16t-3 23q33 29 145 57q10 5 24 15t26 13q13 3 93 36q129 66 521 289q20 12 61 42t68 41q61 12 61 -14q29 -162 238 -258q12 -2 42 3
t42 -3q10 -4 10 -17t-10 -24q-14 -10 -58 -34t-65 -44q-14 0 -21 -6q-30 -29 -58 -41t-33 -49t30 -61q14 -9 108 -63t136 -93v-21q-48 -36 -54 -65q-6 -28 -3 -57t3 -37l-6 -15l15 -131l-7 -12q9 -35 7 -105t13 -107q15 -38 54 -68t94 -7q21 9 41 6q33 -31 -26 -75
q-88 -55 -176 -148q-44 -44 -90 -24q-48 20 -120 78q-73 57 -96 73q-23 23 -14 43l6 13q-8 16 -3 62t3 62l-8 13q-23 23 -55 8q-164 -98 -246 -156q-33 -14 -41 -14q-53 -27 -139 -93t-127 -89q-29 -8 -64 14q-2 2 -8 12t-74 49q-67 40 -133 88q-8 4 -33 14q-24 10 -36 20
q-12 11 -7 34q3 6 19 17t22 18q18 43 21 47q20 90 12 160q-10 30 -53 30z" />
    <glyph glyph-name="S" unicode="S" horiz-adv-x="1820" 
d="M555 -164l6 47q0 12 -6 21q-2 12 4 42q14 71 -35 98l-16 8t-37 16q-16 2 -55 14t-62 12q-80 -16 -123 -49q-33 -33 -51 -91q-18 -57 -22 -69q31 -117 174 -176q35 -10 55 2q10 1 40 13t58 21t37 28q27 41 33 63zM930 662q72 0 55 -41q-14 -21 -41 -59t-41 -62t-55 -71
q-41 -48 -57 -77q-8 -23 20 -47q14 -8 54 -35t86 -41t181 -74q136 -59 171 -73t65 5t33 41q2 22 7 70t-1 64v125q6 27 6 82q-4 16 -8 54t-13 75t-65 131q-2 2 -11 8t-18 19q-20 18 -80 40q-60 21 -83 21l-97 -10h-26l-35 6q-190 -25 -508 -6q-16 0 -47 -27q-25 -35 -53 -63
q-6 -5 2 -17t20 -17t42 -8t44 -11h55q141 20 351 -2h47zM844 1229q32 96 -86 96q-12 -8 -47 -8q-195 27 -275 24q-74 -74 -80 -124v-13q20 -35 62 -88q13 -13 95 -23t165 4q84 15 117 29q6 12 23 45t26 58zM1749 281q2 -33 -39 -62q-36 -15 -54 -31t-95 -82q-27 -16 -62 -26
q-69 -37 -155 -99q-86 -63 -112 -78t-64 -48q-40 -33 -64 -48q-37 -10 -62 7q-25 27 -61 47q-229 117 -311 141q-37 -22 -20 -108q7 -38 2 -54t-13 -59t-27 -68q-68 -78 -170 -112q-86 -23 -170 2t-133 98q-33 45 -49 61q-80 117 25 254q8 6 8 21q111 98 168 139
q117 63 225 90q44 16 96 56q52 39 68 49l6 14q-52 27 -114 29t-78 4q-164 12 -228 -6t-147 -60q-31 -16 -41 19q-2 15 11 26q13 12 55 85t114 165q8 11 14 31t12 28t16 14q9 7 13 11q27 47 6 68q-14 10 -52 20t-52 21q-51 49 -104 121q-20 45 0 81q18 25 97 119t105 158
q2 8 23 29q23 22 139 262q15 19 19 21q4 1 14 6t15 0q50 -50 81 -54q225 -33 365 -10q12 4 38 21q26 18 44 22t28 -13t6 -34q-135 -256 -161 -318v-20q-8 -8 -14 -30q-6 -21 -12 -29q-7 -8 -7 -17q8 -33 55 -47q20 -4 55 2t48 6q109 18 268 -18q65 -12 103 -22t84 -37
q46 -28 66 -57t55 -76q36 -47 50 -91q70 -217 74 -534z" />
    <glyph glyph-name="T" unicode="T" horiz-adv-x="1765" 
d="M645 928l-14 -8q-44 0 -87 -38t-55 -44t-19 -20q-8 -16 -16 -105t0 -124q9 -35 23 -55t52 -39q39 -19 51 -33t30 -20q18 -4 27 11q27 51 34 113t8 141t7 124q0 80 -41 97zM975 944l6 -35q-6 -23 -8 -71t-9 -74q-7 -27 -3 -81q5 -53 -1 -71t-7 -35t-14 -29t-55 -34
q-42 -20 -48 -25q-55 -47 -103 -71q-47 -27 0 -88q35 -35 111 -62q18 -18 34 -27t73 -29q58 -20 87 -38q14 0 21 8q14 40 14 94l-4 216q14 61 12 81q-6 14 -6 35l12 29q11 96 11 336q20 100 20 145q-16 54 -56 54t-62 -18t-21 -50q8 -49 -4 -160zM1214 1448q172 0 265 12
q26 -15 48 -9q21 5 39 10t29 7q63 6 138 84q27 14 33 -6q7 -25 -17 -63t-37 -47q-27 -47 -84 -122q-56 -76 -74 -102t-30 -26l-202 6q-114 0 -135 -42q-13 -26 -6 -56t7 -72q-18 -289 -19 -295l9 -35q-18 -135 -19 -262v-55q-2 -6 -18 -178q2 -63 98 -88h21q66 -33 131 0
q53 0 131 49t219 100l26 -6q0 -6 3 -18t-4 -19q-39 -45 -65 -56q-25 -11 -38 -20t-38 -13q-26 -5 -48 -15q-156 -59 -479 -217q-14 -8 -42 -28t-44 -28q-16 -10 -44 -17t-39 4t-22 34q-10 23 -15 29t-15 19q-10 14 -47 28q-38 15 -142 81t-158 90q-94 39 -174 130
q-125 51 -188 210q-37 84 -18 167q18 83 76 131t212 147q68 37 209 100t215 105q25 0 49 14q23 23 7 47q-139 25 -345 10q-37 0 -155 2t-209 -12q-27 -4 -66 -37t-57 -41q-8 -4 -11 -14t-9 -14q-27 -8 -50 14v27q25 41 82 77q12 8 31 40q18 32 37 42q14 -1 23 11t70 93
q60 81 103 113q8 6 20 28q11 22 15 28q49 49 88 20q-28 -55 2 -82q23 -14 66 -17t55 -8t62 -2t59 3q12 6 33 6q69 -13 174 -5q106 9 278 9z" />
    <glyph glyph-name="U" unicode="U" horiz-adv-x="1693" 
d="M125 727q-22 0 -23 12q-6 15 2 33t25 23q82 33 102 112q8 63 -2 144q-11 34 -77 67q-2 2 -10 14q-32 48 -142 62q0 6 -3 31t11 46t55 59t51 56t68 91q35 29 97 -19q20 -14 49 -52q30 -38 52 -56t60 -35q20 -16 56 -54t55 -55q21 -14 44 -10t32 4l6 -6q-6 -20 -34 -40
t-40 -38q-12 -17 -20 -47q0 -6 3 -52t-1 -52v-123q-2 -14 -5 -38t-8 -38q-14 -133 -10 -338q0 -68 96 -68q18 0 22 16q5 16 7 19q2 33 14 420l15 29q0 33 -8 53q-4 34 7 66q11 33 13 45q0 82 -37 172q-4 14 -14 14l14 6q0 29 47 76l246 147q213 129 367 -16q0 -12 6 -21
q8 -6 25 -16q55 -32 122 -147q12 -23 30 -74t34 -76v-35l43 -123q29 -178 22 -256q8 -207 -5 -242q-3 -7 -7 -23q-9 -36 -49 -50q-12 -4 -27 -18t-81 -61q-66 -48 -101 -83q-6 -6 -27 -6q-18 -12 -46 -37t-42 -35q-56 -27 -145 -98q-90 -70 -119 -84t-77 20t-58 35
q-231 80 -518 152q-20 8 -75 -3t-73 25q-8 17 -4 31q11 20 29 56t32 60q14 23 16 69q1 45 2 71t-28 48q-29 24 -67 14q-14 28 -1 54t40 42v14q41 41 41 70q8 33 -22 40t-52 7zM1260 657q0 83 -4 97t-12 29q-9 15 -27 12q-213 -94 -398 -239q-55 -44 -88 -64
q-45 -104 -6 -152q53 -29 109 -45t184 -53t156 -40q29 -2 46 10t18 34t10 84t12 87q2 26 7 92q6 65 -7 148zM1235 911q0 74 -49 97q-6 4 -47 -15q-23 -25 -80 -53t-78 -53q-82 -35 -225 -139q-41 -41 -49 -77t16 -83l27 2q47 28 118 67q72 39 115 78q45 33 219 127
q33 33 33 49zM1145 1081q-10 31 -33 61t-41 44t-57 42t-51 38q-37 53 -103 20q-4 -2 -22 -8t-27 -14v-13q-8 -14 -42 -46t-38 -58q-18 -121 -4 -283q0 -16 14 -27t35 -8q25 10 69 35t66 37l166 105q29 33 53 49q15 14 15 26z" />
    <glyph glyph-name="V" unicode="V" horiz-adv-x="1693" 
d="M125 727q-22 0 -23 12q-6 15 2 33t25 23q82 33 102 112q8 63 -2 144q-11 34 -77 67q-2 2 -10 14q-32 48 -142 62q0 6 -3 31t11 46t55 59t51 56t68 91q35 29 97 -19q20 -14 49 -52q30 -38 52 -56t60 -35q20 -16 56 -54t55 -55q21 -14 44 -10t32 4l6 -6q-6 -20 -34 -40
t-40 -38q-12 -17 -20 -47q0 -6 3 -52t-1 -52v-123q-2 -14 -5 -38t-8 -38q-14 -133 -10 -338q0 -68 96 -68q18 0 22 16q5 16 7 19q2 33 14 420l15 29q0 33 -8 53q-4 34 7 66q11 33 13 45q0 82 -37 172q-4 14 -14 14l14 6q0 29 47 76l246 147q213 129 367 -16q0 -12 6 -21
q8 -6 25 -16q55 -32 122 -147q12 -23 30 -74t34 -76v-35l43 -123q29 -178 22 -256q8 -207 -5 -242q-3 -7 -7 -23q-9 -36 -49 -50q-12 -4 -27 -18t-81 -61q-66 -48 -101 -83q-6 -6 -27 -6q-18 -12 -46 -37t-42 -35q-56 -27 -145 -98q-90 -70 -119 -84t-77 20t-58 35
q-231 80 -518 152q-20 8 -75 -3t-73 25q-8 17 -4 31q11 20 29 56t32 60q14 23 16 69q1 45 2 71t-28 48q-29 24 -67 14q-14 28 -1 54t40 42v14q41 41 41 70q8 33 -22 40t-52 7zM1260 657q0 83 -4 97t-12 29q-9 15 -27 12q-213 -94 -398 -239q-55 -44 -88 -64
q-45 -104 -6 -152q53 -29 109 -45t184 -53t156 -40q29 -2 46 10t18 34t10 84t12 87q2 26 7 92q6 65 -7 148zM1235 911q0 74 -49 97q-6 4 -47 -15q-23 -25 -80 -53t-78 -53q-82 -35 -225 -139q-41 -41 -49 -77t16 -83l27 2q47 28 118 67q72 39 115 78q45 33 219 127
q33 33 33 49zM1145 1081q-10 31 -33 61t-41 44t-57 42t-51 38q-37 53 -103 20q-4 -2 -22 -8t-27 -14v-13q-8 -14 -42 -46t-38 -58q-18 -121 -4 -283q0 -16 14 -27t35 -8q25 10 69 35t66 37l166 105q29 33 53 49q15 14 15 26z" />
    <glyph glyph-name="W" unicode="W" horiz-adv-x="2277" 
d="M868 872l-2 68q0 170 -4 192t-12 29q-29 23 -55 76q-20 29 -62 39q-16 12 -44 -6q-27 -18 -32 -21l-122 -147q-18 -31 -7 -103l2 -104q-2 -92 -10 -274t-12 -277q-12 -66 -12 -102q6 -41 47 -63q41 -21 69 -9t58 36q29 24 43 34t41 42t39 41t22 15t16 10q28 32 30 85
q1 53 3 61v137q-4 190 4 241zM1155 1096l-6 -111q-6 -86 0 -598q19 -39 75 -47t91 14q-4 26 -3 94t-7 99q0 20 6 26q0 29 -6 43q-2 61 3 254t-10 254q-4 25 -30 29t-38 -4t-32 -14q-40 -12 -43 -39zM1341 360q-1 -6 13 -21t16 -20q82 -45 124 -52t101 -29t81 -24
q22 -3 42 -13t31 -15q49 -8 61 50q2 25 33 192v35q1 7 11 25t10 30l-9 21q0 66 -13 74q-37 25 -180 -36t-161 -66q-97 -27 -133 -60q-27 -35 -27 -91zM1860 795q0 70 -125 53q-40 -12 -129 -64q-82 -29 -123 -49q-14 -10 -55 -25t-62 -53q-51 -80 -12 -137q90 -27 137 29
q35 14 145 57t197 90q27 13 27 99zM1790 909q22 17 -5 60q-7 11 -19 29t-64 76q-51 58 -74 95q-12 5 -55 19t-57 15t-70 -3t-92 -20q-14 -39 -7 -206t6 -201t11 -34q53 4 140 47q87 42 157 60t129 63zM1450 -51q-55 0 -146 55q-92 54 -106 60t-254 100h-20q-27 12 -90 12
q-12 0 -13 14q-4 49 -22 62h-15q-22 -14 -60 -49t-62 -49q-25 -34 -27 -35q-98 -78 -184 -139q-45 -35 -82 -15q-94 59 -209 150q-6 6 -6 32q57 135 45 291q-18 48 -60 72q-16 10 -24 16v15q12 20 73 82q37 41 27 84q-4 20 -22 33t-39 14q-37 0 -23 49q8 18 44 46t47 58
q11 31 15 58l4 36q1 9 0 47t-1 44q-29 39 -42 55t-45 39q-31 22 -51 22t-36 -17t-27 -17q-8 6 -8 32q41 74 108 125q10 10 33 41q47 63 90 72q31 -24 128 -100t157 -111q25 -8 55 22q52 59 114 105q62 45 83 61q4 25 40 49t42 29q27 12 55 0q16 -12 119 -115q16 -23 53 -61
t62 -75q69 -98 135 -54q28 18 34 20q25 23 109 64l20 20q25 16 80 41t84 45q72 31 146 0q12 -4 24 -17t17 -15q90 -37 133 -88q16 -25 51 -66t53 -65q51 -100 55 -115q29 -98 30 -127t8 -39t8 -14q10 -162 4 -365q-4 -6 -4 -12l4 -29q-5 -12 -9 -48t-18 -48
q-49 -33 -240 -148q-26 0 -131 -63q-8 -5 -28 -23t-33 -26q-160 -88 -217 -127h-35z" />
    <glyph glyph-name="X" unicode="X" horiz-adv-x="1257" 
d="M901 276q5 0 17 4t16 4q4 1 17 7t15 7t19 10q15 9 105 50t139 50q4 -1 22 -15q11 -37 -21 -59t-75 -25q-45 -31 -135 -75t-120 -62t-98 -44t-100 -58q-55 -45 -108 -35q-45 3 -88 44q-44 40 -52 46t-26 11t-22 14q-3 12 -20 24t-28 20q-39 28 -55 3q-70 -119 -65 -269
q-14 -34 -28 -104t-30 -108t-57 -38q-33 -14 -41 13q-10 47 7 80t85 211v28q18 45 37 133q30 145 43 194q14 49 24 148q9 99 11 125t-19 47q-59 29 -186 13q-14 0 -14 14v12q29 45 103 108q119 100 121 138q7 253 -3 266q0 55 -70 97q-35 18 -92 -13q-74 -40 -89 -25
q-5 5 -5 17v25q12 31 67 77q131 84 213 160q37 29 88 29h15q40 -37 108 -105t80 -79q72 -55 123 -39q61 28 169 94t153 88h28q125 -109 154 -184q8 -31 0 -62q-2 -6 -33 -41q-31 -20 -82 -69q-50 -50 -68 -62t-36 -4t-40 30q-21 21 -28 34q-96 182 -215 120h-20
q-57 -23 -70 -75q0 -34 -8 -79q-25 -140 -2 -177q19 -15 49 -17t141 1t143 -4t52 -2t30 9t66 19q18 -1 30 -15t7 -34q-24 -66 -33 -176q-2 -24 10 -93q12 -70 7 -110q-3 -3 -5 -13q-4 -27 -33 -17q-28 9 -31 21t-8 59q-5 46 -19 56q-15 10 -39 11t-116 10q-91 9 -206 6
q-35 -6 -62 -70q-12 -14 -4 -72t6 -79l-6 -15q13 -44 96 -86q22 -10 29 -14l6 -14q23 -12 78 -30t65 -20h17z" />
    <glyph glyph-name="Y" unicode="Y" horiz-adv-x="1476" 
d="M1004 440l6 27q-16 37 -44 26q-28 -10 -51 -28l-28 -21q-69 -41 -97 -99t3 -128q74 -43 190 78q45 63 21 145zM721 401q0 25 14 35q1 24 9 212t20 284q16 72 -37 158q-4 10 -55 6q-37 0 -33 -47q-28 -256 -36 -562q-7 -305 -8 -347t13 -50q48 -14 64 14q29 49 34 103
q5 55 10 79t5 115zM1014 633l12 83q0 48 -35 68q-27 -4 -61 -34t-64 -40q-28 -9 -46 -47q-18 -37 -18 -69q1 -32 12 -52t30 -16q96 16 133 41t37 66zM819 818q0 -20 15 -36q46 -3 107 54q32 29 44 36q12 0 21 9q27 27 26 90q14 119 7 143t-21 38t-16 20t-10 12q-7 6 -14 15
t-25 12q-17 3 -26 5t-25 -4t-22 -13q-24 -24 -40 -41t-17 -32v-20q-2 -4 -6 -15t-8 -20q-6 -51 2 -142t8 -111zM322 1064q0 13 -15 28l-69 69q-39 30 -71 9t-57 -50q-26 -28 -36 -37h-29q-32 38 41 111q12 0 20 6q20 25 48 43q14 18 45 49t43 47q18 14 49 42t40 36
q9 9 16 23q26 54 87 12q6 -6 49 -68q100 -111 154 -178q39 -39 88 -26q78 35 193 139q8 4 20 11t20 10q8 2 14 14t12 14q5 2 36 25t47 39q47 39 139 -19q92 -78 166 -149q2 -6 12 -16t9 -19q-30 -113 -38 -267q-9 -154 -12 -182q11 -16 5 -61t0 -65t4 -62t1 -60t18 -50
t11 -52q-6 -33 -82 -49q-76 -35 -178 -92q-36 -25 -100 -60t-98 -59q-35 -31 -87 -59q-53 -27 -71 -39l-21 -21q-7 -4 -39 -17t-49 -26q-66 -59 -198 -145q-5 -7 -23 -21t-24 -22q-55 -33 -95 -69q-39 -36 -57 -50q-25 -86 43 -102q80 -13 96 -25q17 -12 17 -32t-15 -31
q-55 -23 -104 -23l-69 -4q-16 0 -52 10t-51 21q-41 35 -50 86t21 92q10 12 62 57q51 45 66 79t28 97q12 64 18 82q13 42 6 101q-14 47 -28 61q-43 33 -103 33q-57 16 -43 47q18 31 72 72t72 61q51 37 41 90l2 54q0 27 -25 42q-16 9 -65 15t-72 24v15q18 27 67 66t54 54
q6 15 8 19q63 63 68 96q4 14 1 104t-3 102z" />
    <glyph glyph-name="Z" unicode="Z" horiz-adv-x="2088" 
d="M2064 324q0 -53 -41 -82q-44 -24 -66 -48q-23 -24 -38 -38t-51 -62q-11 -11 -29 -20q-14 -25 -48 -67t-45 -60q-12 -18 -32 -40t-28 -32t-103 -147v-15q-56 -78 -131 -49q-31 33 -17 73q13 39 57 67t81 67q8 13 15 29l26 61q2 11 -6 19t-14 8h-21q-88 8 -193 -17
q-8 0 -18 3t-16 -3q-41 -6 -125 6q-51 4 -220 5h-90q-29 8 -116 4q-6 4 -14 4l-27 -4l-21 6q-29 -11 -57 -9q-28 1 -39 1q-113 12 -160 0q-27 -2 -109 0t-110 -11q-23 4 -82 6t-98 27q-4 0 -4 14t4 21q14 6 14 20q18 8 87 38t78 51l5 10q39 12 55 28q180 154 238 195
q41 41 61 63q35 23 62 48q10 6 30 17t31 19q61 61 91 85t98 75q67 51 147 119q12 8 34 19q22 12 32 20t42 30q53 36 111 91q59 55 103 71q4 16 26 32q23 15 30 27t12 20q5 7 5 11q-6 25 -61 41h-63q-29 -6 -152 -10h-68q-41 2 -224 2q-184 0 -260 6q-76 5 -230 17t-244 26
q-10 0 -21 15q-6 21 16 43q21 22 25 33l62 61q2 4 13 11t19 21t47 52q38 37 52 56t51 79t82 103q12 14 30 47q17 33 23 43q49 49 74 55t45 -5t5 -35t-71 -93t-77 -123q-4 -13 10 -27q13 -14 31 -14t64 -8t87 2q23 -2 131 -8t166 -23l35 8q39 0 252 -8t307 -6t233 17
q140 15 214 16q26 -17 19 -35q-14 -35 -181 -146t-180 -138q-4 -7 -20 -16q-63 -35 -299 -240q-237 -204 -267 -228q-68 -47 -71 -50t-13 -7t-12 -7q-129 -113 -273 -202q-16 -10 -40 -33t-36 -31q-4 -6 -16 -17q-54 -50 6 -66q18 -5 25 -7l28 8q53 -16 153 -7t157 -3
q43 25 83 17t90 -1q50 8 69 1t46 -7q12 4 35 8q47 -14 82 -14q80 10 223 13t185 6q21 14 41 22q43 20 129 8q2 -2 15 -10t13 -18z" />
    <glyph glyph-name="bracketleft" unicode="[" horiz-adv-x="841" 
d="M53 594q0 255 21 455q0 272 -17 424q-9 45 11 87t65 64q53 14 167 -10t167 -6q74 31 225 30q53 -12 78 -36q24 -25 14 -78q-33 -59 -61 -76q-76 -14 -166 -10q-248 11 -276 -43q-7 -13 -9 -33t-7 -44t-10 -98t-9 -104q0 -862 14 -1255q4 -6 13 -27t24 -31q8 -12 201 -4
t256 2q63 -12 58 -82t-54 -79q-152 -27 -234 -38q-82 -10 -204 -8t-214 37q-53 20 -60 87q-7 66 6 132t-9 125q-8 27 3 82t11 70z" />
    <glyph glyph-name="backslash" unicode="\" horiz-adv-x="839" 
d="M797 31q0 -4 -13 -8q-37 -12 -49 14q0 23 -61 84q-12 20 -62 69q-35 57 -39 76q-10 20 -41 58t-40 61l-35 35q-2 4 -6 15t-18 20q-7 4 -9 6q-76 140 -102 162q-27 22 -35 34t-80 123q-23 29 -72 103t-75 103q-26 28 -25 64q2 36 31 35q37 6 61 -25q24 -32 55 -93
q7 -7 13 -10t8 -5q12 -26 39 -70t37 -62t70 -102q59 -84 77 -114t38 -50t34 -50t24 -37t26 -27t19 -22q20 -41 62 -111q16 -20 45 -54q93 -109 123 -202v-20z" />
    <glyph glyph-name="bracketright" unicode="]" horiz-adv-x="841" 
d="M754 1049q20 -208 20 -455l-4 -467q0 -13 11 -69t3 -83q-24 -59 -10 -125t7 -132t-60 -87q-92 -35 -214 -38t-204 9t-233 38q-48 10 -54 80t58 81q63 6 256 -2t200 4q14 7 24 29q9 22 13 29q14 393 15 1255q-4 29 -10 104q-5 75 -10 98q-5 24 -7 44t-8 33q-28 54 -277 43
q-90 -4 -166 10q-29 16 -61 76q-10 53 14 78q25 25 78 36q152 0 225 -30q53 -16 167 8t167 8q45 -23 66 -64q20 -42 10 -87q-16 -152 -16 -424z" />
    <glyph glyph-name="asciicircum" unicode="^" horiz-adv-x="1505" 
d="M657 1253q79 -23 115 -45q21 0 39 8t25 11q72 -4 106 10q76 38 93 41q18 2 30 4t16 -14q10 -23 0 -43l-12 -6q-20 -29 -102 -95q-11 -10 -27 -41t-26 -42t-11 -17q-31 -31 -44 -69t-13 -52q-20 -31 -27 -43q-27 -115 12 -151q5 -9 23 -17t37 -3t81 15t111 39h33
q90 33 133 82q27 -6 82 49q12 0 19 7q0 6 2 12q20 23 43 26t39 -20q12 -37 -9 -63q-4 -8 -12 -28q-9 -20 -27 -46q-18 -27 -30 -115q-27 -88 4 -203q6 -28 32 -70q55 -90 23 -114q-18 -10 -37 2q-18 18 -29 28t-40 54q-39 82 -144 133l-6 12q-18 3 -50 19l-40 20h-25
q-40 24 -74 27q-34 2 -72 1t-48 -1t-18 -6t-9 -12q-32 -83 74 -254v-19q25 -58 31 -69q10 -10 23 -33t22 -31q0 -18 6 -25h12q7 -2 13 -12t12 -14q39 -66 57 -82q8 -10 8 -26q0 -34 -42 -39q-23 -1 -105 40h-21l-43 27h-18l-33 18l-99 4q-24 0 -43 -6t-51 -11t-49 -9
t-106 -45q-29 -10 -49 14q-10 10 -2 27l15 30q7 13 11 19q12 12 57 54q43 42 73 86t81 161l21 82v88q0 14 -16 30q-30 30 -85 13t-75 -23h-33q-65 -22 -73 -33q-7 -11 -9 -16q-33 -16 -63 -37q-16 -16 -60 -46t-61 -54q-22 -45 -41 -58q-18 -13 -23 -18q-23 -12 -45 0
q-57 50 11 149q13 19 33 43t34 118q18 68 8 157q-2 10 -55 121q-25 59 0 100q22 22 70 -36q14 -18 24 -27q18 -6 41 -30q22 -23 42 -33t24 -25l12 -2q4 -21 27 -35t43 -14l69 -33h19q35 -20 139 -33q27 0 39 37q6 29 -3 79t-9 66q-16 27 -46 111q-29 84 -61 119q0 12 -9 23
t-38 37t-41 42h-12l-12 18q-13 20 -13 31q0 10 6 21q47 70 172 -21h49z" />
    <glyph glyph-name="underscore" unicode="_" horiz-adv-x="1024" 
d="M231 8q-2 0 -53 -3t-53 3q-6 -4 -12 -2q-5 2 -25 6t-31 13q-20 27 10 45t64 18q227 -4 268 -4q23 8 38 4t29 -3t44 0t53 3h35q18 4 56 3t61 2t63 3h39q37 6 107 -6t75 -29q4 -6 2 -18q-8 -33 -34 -39q-41 4 -55 0t-58 6q-55 0 -106 2l-70 -4l-66 -2q0 -6 -149 -2l-150 2
l-39 2h-43z" />
    <glyph glyph-name="grave" unicode="`" horiz-adv-x="720" 
d="M500 1079q-29 -23 -64 13q-4 4 -14 8t-19 26q-18 20 -18 27q-14 12 -49 56q-35 43 -50 59t-42 56q-36 54 -67 82q-68 63 -64 107q27 41 72 53t67 -3q8 -8 17 -33t28 -39q8 -14 16 -55q12 -14 21 -15q12 -29 23 -39t15 -26t7 -20q2 -4 13 -23q11 -18 9 -27q17 0 28 -24
t15 -31q0 -10 18 -32t40 -64t-2 -56z" />
    <glyph glyph-name="a" unicode="a" 
d="M524 248q61 113 -8 221q-25 41 -80 51t-102 -18q-2 0 -21 -43q-2 -21 0 -71t-3 -68t20 -60q57 -59 131 -47q43 0 63 35zM553 635q0 14 6 81t-14 115q-12 6 -66 43t-100 41q-47 5 -85 -29t-50 -79q-29 -100 41 -164q70 -59 125 -70q92 -12 131 31q12 17 12 31zM983 147
q-6 -18 -31 -52t-32 -48q-59 -66 -123 -115q-20 -12 -46 4t-62 47q-36 32 -56 46q-70 76 -80 92q-19 18 -37 6q-36 -23 -76 -73q-48 -59 -88 -85q-41 -26 -51 -24t-29 2q-42 14 -120 55t-109 55q-6 4 -6 35q20 70 29 258q0 18 -33 84q-12 37 0 49q20 25 90 59t84 72
q2 4 -2 14t-4 15q-51 88 -35 176q5 37 34 68q29 29 33 35t5 20q23 32 71 60t64 40q27 29 129 109q20 12 48 -3t113 -58t130 -70q33 8 98 -21q25 -29 12 -57q-43 -47 -51 -121q-8 -27 -5 -89t1 -89q-20 -106 -10 -178v-113q18 -72 106 -98q51 -19 39 -107z" />
    <glyph glyph-name="b" unicode="b" horiz-adv-x="1034" 
d="M606 236q18 0 19 18q-1 58 30 334q0 20 -5 39t1 69t2 78q-16 53 -69 82t-105 2q-20 -20 -33 -35q-2 -5 -12 -27t-14 -42t-17 -158q-12 -137 13 -231q16 -82 162 -125q10 -4 28 -4zM542 -59q-6 0 -26 -3t-22 1q-76 57 -310 141q-8 4 -51 23t-50 43t8 50t19 34t6 41
q1 35 3 57t3 119t5 143t0 213q0 20 -29 45t-32 31q-31 66 53 137q12 29 20 41q14 154 -1 197q-15 42 -54 86t-46 56t-7 54q10 37 47 27q10 -6 49 -62q31 -14 46 -9t115 47t154 34q14 1 20 -19t-2 -58q-9 -38 -9 -73q-20 -207 -2 -346q0 -37 6 -41q10 -4 55 23q90 82 143 151
q82 41 203 -90q8 -8 26 -18t22 -16q6 -6 16 -7q10 -2 17 -8q43 -37 35 -79q-3 -15 -4 -24t-14 -46q-20 -90 -18 -241t-6 -207t-2 -100q6 -42 6 -57l14 -34q0 -45 -26 -64q-23 -10 -94 -33t-88 -34t-27 -18t-13 -9q-41 -16 -96 -57t-62 -41z" />
    <glyph glyph-name="c" unicode="c" horiz-adv-x="704" 
d="M573 1133q8 0 17 -5q8 0 39 4t37 -2q37 -18 22 -69q-14 -31 -30 -91t-23 -81q-16 -29 -39 -31t-101 7t-98 -15q-21 -31 -14 -184q-25 -252 -4 -365q8 -74 153 -102q57 -16 123 37q24 11 29 5q6 -6 6 -26q-10 -33 -108 -111t-116 -87q-17 -9 -22 -13q-43 -66 -116 -55
q-47 14 -111 74q-9 8 -29 14t-26 12q-4 12 -35 29q-45 0 -45 54l16 54q12 35 9 80q-11 167 -2 231t1 281q-4 18 -18 49t-16 46t12 30q135 90 211 139q6 6 27 32q20 26 34 38q6 2 15 11t20 10q109 4 144 -5q20 0 28 7q2 -2 10 -2z" />
    <glyph glyph-name="d" unicode="d" horiz-adv-x="1030" 
d="M401 376q0 -60 41 -73q10 -4 57 -28t68 -22q20 3 35 13q41 188 37 471q0 3 -8 23t-14 55t-27 53q-56 35 -104 42t-56 -11q-41 -108 -38 -262q1 -53 5 -142t4 -119zM928 903q-20 -143 -10 -252v-61q-12 -76 -12 -216t-11 -210q-6 -14 -33 -27q-213 -84 -301 -192
q-25 -31 -82 0q-15 6 -35 26q-20 21 -36 27t-52 29t-57 26q-8 5 -18 15q-11 10 -21 15t-75 32t-82 45q-32 33 -16 96q16 62 18 98q3 36 -1 134q-4 97 5 141q4 39 -12 101q-15 62 -13 88t24 36q22 12 74 30q53 18 89 40q36 20 44 51q6 14 -28 49q-7 4 -59 27t-78 43t-44 51
q-10 31 16 55t69 80q44 55 71 81t76 -7q23 -22 50 -39t52 -44q25 -28 37 -38q63 -25 81 -38t44 -38q109 -61 277 -110q14 -4 41 -35q17 -24 13 -63q-5 -38 -5 -46z" />
    <glyph glyph-name="e" unicode="e" horiz-adv-x="931" 
d="M641 745q0 18 -14 29q-111 74 -172 109q-8 3 -49 -15q0 -42 -8 -152t-5 -144q2 -34 17 -48q20 -29 48 0t68 63q41 34 62 56q6 11 22 31t24 36t7 35zM907 928q-18 -31 -66 -77q-49 -45 -59 -57t-10 -26q-6 -12 -27 -20q-79 -107 -189 -218q-110 -112 -140 -148t-32 -78
q-1 -42 30 -68h26q106 -70 160 -41q72 43 240 141q14 16 17 18t30 -4l6 6q20 -16 18 -36t-23 -38q-20 -18 -80 -56t-86 -58t-72 -49q-48 -29 -62 -40t-26 -15q-19 -7 -79 -58q-61 -50 -114 -47q-27 0 -45 12t-49 39q-32 27 -103 64q-72 37 -98 59t-19 43q34 52 37 95
q10 112 10 145q25 262 2 393q0 10 -8 49t20 58q13 10 36 18q22 8 34 16t43 26t45 28q156 82 226 147q23 16 48 6q26 -10 40 -25t22 -22q16 -8 78 -37t94 -63q37 -27 105 -27q14 -5 20 -23t0 -32z" />
    <glyph glyph-name="f" unicode="f" horiz-adv-x="702" 
d="M633 836q0 -39 -104 -35q-54 2 -83 -8q0 -15 -8 -31t-10 -25l-4 -40q0 -9 4 -15v-82q-10 -88 -10 -206t-1 -138q-3 -59 23 -82l21 -20q29 -16 55 -9q10 6 48 27t54 45q8 6 29 6q65 -58 -85 -135q-58 -31 -79 -45q-59 -61 -137 -104q-3 -10 -41 -2q-23 11 -65 39t-81 38
q-40 10 -58 30q-17 20 2 51q18 30 22 40q14 82 12 214t2 212v139q0 12 -8 27q0 47 -10 57t-60 25q-18 11 -20 31t5 34t23 39q15 25 19 33q57 37 60 114q1 28 -1 74t1 67t53 71q33 25 146 102t140 121q8 8 52 8q43 1 135 -29t117 -36q34 -15 22 -56q-72 -129 -143 -153
q-37 -14 -111 -1t-110 -1q-12 -125 2 -187q23 -10 159 -24q6 0 27 -21q12 -37 11 -55t-8 -55t-7 -49z" />
    <glyph glyph-name="g" unicode="g" horiz-adv-x="1122" 
d="M778 -180q-23 78 -51 248q-10 31 -39 89t-39 89q-37 16 -82 -23v-12q-10 -8 -20 -30t-21 -27q-127 -80 -164 -195q16 -39 90 -63t85 -31q68 -43 186 -94q23 -3 41 13t14 36zM672 797q0 4 -23 43q-5 8 -34 10q-27 2 -77 12t-66 9t-26 -10q-12 -9 -20 -13t-11 -20
q-3 -15 -5 -19q-33 -205 -2 -518q0 -31 32 -39t64 -2q22 10 58 50t65 48q2 16 18 43t17 41q22 203 10 365zM1059 -12l6 -47l14 -27q14 -49 -12 -64q-27 -27 -123 -83t-110 -56q-27 -16 -69 -53t-60 -51q-80 -39 -138 -72h-61q-25 12 -70 36t-109 53t-101 40q-36 12 -56 4
t-43 -28t-34 -26t-23 -4q-12 3 -13 9q-23 67 42 133t126 166q8 12 8 41q-35 86 -133 123q-16 -2 -34 8t-15 25q47 106 53 186q14 356 2 469q0 34 -28 90q-6 20 6 36t32 24t49 17q30 9 42 13q57 31 117 72l55 55q4 3 16 21t20 26q7 8 17 20t28 19t62 -17t56 -26
q94 -18 265 -28t244 -21q16 -4 17 -20q2 -17 3 -31t-4 -80t1 -90q0 -16 -14 -27q-12 -4 -43 -6t-49 -12t-23 -39q-63 -420 84 -778z" />
    <glyph glyph-name="h" unicode="h" horiz-adv-x="1095" 
d="M578 850q-34 0 -74 -23t-51 -26q-33 -23 -38 -56t-3 -101t-7 -133q-9 -64 -7 -96t-2 -79q-5 -47 14 -59q66 -48 98 -62l27 2q70 41 94 57t33 29q8 14 14 41t8 33l-2 27q0 7 9 154t0 192q-9 44 -44 72t-69 28zM135 838q0 49 -29 75q-6 5 -28 11t-27 16q-4 32 24 62
q27 30 31 38t20 30q15 22 19 36q6 70 -8 180q-8 53 -98 135q-33 33 6 56q6 2 11 2t13 -2t20 -14q13 -13 19 -18t7 -7q63 -53 118 -35q5 4 17 8t17 7t23 0q18 -4 80 20t103 30q4 0 12 -8t9 -12q-4 -24 -26 -58t-28 -53q0 -20 6 -34q2 -88 2 -130t-10 -235q0 -14 13 -27
q23 -8 63 21q53 29 150 125q10 6 32 24q22 17 31 25q10 8 35 17t39 -3q39 -14 113 -63t122 -64q14 -5 16 -25t-10 -30q-29 -20 -38 -55q-27 -186 -35 -697q82 -111 2 -157q-82 -51 -205 -174q-16 -14 -74 -57t-75 -61q-17 -19 -56 -36v-14q-20 -10 -47 -42t-47 -42
q-53 -23 -82 -70q-6 -10 -21 -12q-14 -2 -24 10q-36 45 40 122q17 17 28 29q12 12 50 40t54 47q4 2 14 6q15 6 36 33t40 36l19 43q5 17 -3 51t-4 51t20 61t11 80t-20 52q-11 0 -13 1t-14 -7t-14 -8q-63 -53 -123 -90q-20 -14 -53 -52t-64 -60t-68 -15q-20 -1 -40 27t-34 38
t-66 28q-114 41 -75 97q31 35 33 43q12 62 16 168t15 186q10 80 10 300z" />
    <glyph glyph-name="i" unicode="i" horiz-adv-x="618" 
d="M43 880q0 24 10 40q35 41 105 104t88 82q-2 8 -2 14q27 37 55 29q14 0 60 -46t65 -77q18 -14 49 -45t49 -43q4 -4 4 -16q0 -14 -26 -42q-26 -27 -25 -53q-16 -96 -20 -273q-5 -177 -11 -228t52 -97q14 -6 42 -16t42 -18q24 -10 22 -37t-22 -39q-51 -68 -97 -90
q-23 -18 -67 -76q-16 -16 -42 -12q-24 4 -32 5t-21 14t-23 20t-61 54q-50 47 -98 72q-2 2 -31 26t-21 42q7 18 29 44t21 40q2 80 20 257q17 177 15 273q-3 44 -59 60q-16 4 -52 8q-18 0 -18 24zM584 1538q27 -37 -13 -76q-37 -32 -87 -100t-76 -94q-7 -5 -62 -23
q-14 -4 -23 7t1 29t57 68q45 51 57 71t26 30q13 10 25 28t48 52q24 28 47 8z" />
    <glyph glyph-name="j" unicode="j" horiz-adv-x="618" 
d="M545 115q-68 -85 -206 -223t-202 -214q-18 -20 -72 -60t-77 -71q-16 -14 -32 -12q-15 2 -17 19q-10 25 14 47q149 139 194 297q3 30 21 108t17 120t4 264t10 241q20 55 9 111t-71 90q-60 32 -100 6q-14 -8 -21 20q-12 50 -5 68t9 18q65 32 120 90t77 76q45 25 88 -20
q5 -4 17 -8t24 -9q12 -6 34 -30q22 -25 32 -31t23 -22t20 -19q6 -3 18 -11l15 -10q2 -2 14 -9t13 -10t11 -11t10 -12t6 -15q7 -10 3 -15t-2 -18q-1 -10 -19 -20q-38 -22 -41 -123q10 -51 2 -161t9 -155q-12 -31 -13 -102q-6 0 -2 -20l2 -21q-6 -8 -6 -29q15 -68 40 -86
q26 -18 30 -28zM438 1428q-16 -26 -23 -46t-50 -79q-33 -33 -68 -89q-29 -29 -41 -28q-41 0 -55 26q-12 18 35 70q23 31 53 106t46 88q15 13 29 17t22 7q10 3 28 5t24 4q51 0 0 -81z" />
    <glyph glyph-name="k" unicode="k" horiz-adv-x="1077" 
d="M657 293q0 74 -8 90q-2 20 4 58q11 69 -12 85l-6 15q-12 4 -43 22t-53 19q-70 -2 -97 -73t-18 -151q0 -12 -6 -65q-10 -87 48 -116q6 -3 26 -12t22 -11q127 45 143 139zM541 918q-49 0 -76 -27q-15 -19 -23 -63t-16 -62q10 -18 8 -62t12 -63q18 -16 43 -6q59 39 150 133
q14 15 12 35q-19 49 -54 77q-34 28 -42 38h-14zM318 -53q-18 0 -27 4q-121 57 -154 96q-16 11 -41 19l-20 20q-8 24 7 62q54 134 48 436q10 125 -2 239q0 13 -9 25t-11 16q-18 13 -44 21t-26 28q-7 34 50 67q28 15 38 24q27 35 27 102q4 4 7 16t5 19q8 70 -35 137
q-10 14 -50 48t-48 63q0 33 12 41h23q6 -4 38 -34t64 -34q31 -4 88 35t70 43h28q46 25 67 19q21 -7 21 -25q14 -54 4 -192t-8 -172t10 -54t34 -18q24 2 33 5q9 5 29 23t36 30q18 12 69 40t88 53t74 27q3 -23 -12 -54t-4 -47q12 -16 22 -31t34 -24l37 -15q12 -5 15 -8
q10 -2 68 15q6 -14 8 -24t-16 -24q-19 -14 -33 -22l-21 -12q-11 -22 -19 -30t-54 -38q-47 -31 -56 -57q29 -43 101 -77q73 -34 94 -46q27 -26 10 -44t-31 -32t-20 -39t-5 -79t-5 -82q-3 -39 5 -72q7 -33 9 -45q12 -31 28 -48t64 -39t64 -53q16 -30 -43 -79q-29 -16 -72 -54
t-81 -60t-81 9q-12 13 -40 33t-35 28l-42 48q-91 72 -131 47q-16 -5 -36 -25t-25 -24q-33 -18 -164 -119q-10 -6 -28 -6z" />
    <glyph glyph-name="l" unicode="l" horiz-adv-x="581" 
d="M139 582q0 116 6 166q0 122 -16 141q-15 19 -35 29t-26 14q8 29 46 78t45 96t1 121t-47 119q-2 2 -32 24t-37 39q-7 19 5 33t35 12q24 -2 64 -21t53 -24q25 8 111 34t134 46q23 4 37 -6q14 -9 9 -23t-12 -24t-11 -17q-12 -49 -12 -145v-76q-3 -24 -11 -108t-7 -145
t-14 -321t1 -335q0 -45 87 -74q30 -10 41 -14t13 -29t-8 -39q-51 -78 -176 -182q-8 -6 -29 -6l-12 -6q-16 0 -36 12t-27 14q-33 29 -97 65t-76 42q-35 23 -22 63q29 43 35 55q10 39 9 106t1 107q10 63 10 179z" />
    <glyph glyph-name="m" unicode="m" horiz-adv-x="1753" 
d="M154 645v62q6 27 6 61t-11 46t-43 29q-31 17 -41 44q-11 27 5 55t57 85q41 56 55 81q26 46 97 20q13 -10 30 -29q19 -19 27 -25t73 -59q65 -52 105 -63q53 -8 125 49q16 19 51 47q34 28 62 56t63 37q62 10 127 -79q31 -42 43 -52l30 -25q17 -14 26 -19t39 -23t48 -5
q73 25 179 131q35 35 53 51q47 39 125 -20q61 -53 145 -94q35 -18 8 -76q-12 -35 -26 -172q-6 -23 -4 -80t0 -80q-27 -102 -21 -158q8 -35 8 -102q-6 -23 -6 -55q0 -57 84 -82q29 -9 31 -47t-12 -54t-39 -52q-52 -75 -101 -91q-61 8 -94 33q-91 65 -128 87q-37 21 -56 36
t-13 41q7 26 28 64q22 38 24 54q14 117 6 131q-20 53 0 109q0 43 -8 63q0 35 6 48q10 119 -8 206q-10 37 -43 59t-68 15q-123 -39 -139 -117q-15 -78 -25 -220t-16 -187q12 -14 9 -58t0 -64t26 -35t49 -15q45 -8 28 -62q-12 -29 -32 -49t-58 -47t-47 -35q-12 -28 -22 -32
t-27 -16t-53 -6q-37 8 -61 30t-86 54t-89 62v35q39 12 51 32q12 19 16 49t0 68q-3 38 -1 58q6 10 6 41q-10 33 1 95t5 91q-8 14 -8 48l14 28q4 25 -16 137q-4 29 -41 64t-43 45l-21 8q-137 -45 -143 -119q-37 -356 -20 -530q4 -16 23 -28t24 -21q25 -35 16 -62
q-115 -141 -213 -188q-12 -5 -63 17q-52 22 -66 36t-30 26q-52 39 -48 77q4 13 24 35t24 40q3 18 1 61q-3 45 5 79t9 86t-3 130q-4 79 -4 101z" />
    <glyph glyph-name="n" unicode="n" horiz-adv-x="1185" 
d="M1139 151q-1 -47 -23 -65t-50 -55t-52 -57q-25 -19 -60 -17h-28q-6 2 -22 17t-86 52q-70 38 -107 80q-6 6 -6 56q12 41 12 53q33 236 14 573q0 76 -104 115h-27q-70 -29 -104 -49q-29 -33 -33 -49q-10 -102 -10 -371l-15 -51l6 -80q0 -45 18 -56t47 -17q81 -16 64 -78
q-68 -84 -196 -201q-51 -12 -128 35t-106 49t-48 14t-9 35q49 84 52 104t4 67q1 46 10 71q0 23 -9 34q0 41 13 140q10 152 -2 288q-4 23 -41 40q-37 16 -44 30t-8 33l7 82q55 47 102 131q31 41 76 29q27 -11 126 -89t171 -86q31 20 89 66t89 66q16 49 88 63q27 -16 123 -79
t122 -69q28 -6 36 -11t12 -17v-12q-4 -6 -31 -40t-31 -62q-4 -27 -7 -93t-5 -96l8 -15q-20 -39 -6 -75v-97q-10 -46 -7 -101q3 -56 2 -72q-2 -41 85 -101q29 -16 29 -62z" />
    <glyph glyph-name="o" unicode="o" horiz-adv-x="1032" 
d="M629 762q0 31 -35 55q-16 8 -64 33q-95 51 -131 27q-20 -133 -16 -303t2 -259q0 -43 82 -73h20q11 -4 31 -12q63 -26 88 -1q37 289 23 533zM98 547q0 162 6 227q0 18 -16 60t-14 59q2 16 14 33q104 43 131 69q36 6 61 21q25 14 33 18q9 4 23 16t18 17q29 29 47 44t29 32
q35 35 82 14q182 -113 270 -149q54 -12 72 -20t32 -10q14 -1 37 -7q22 -6 27 -28q6 -22 4 -36t-12 -44q-10 -31 -17 -99t-3 -457q-3 -17 18 -40q20 -23 25 -34l10 -21q0 -17 -10 -22q-55 -35 -164 -94q-109 -58 -143 -80t-54 -46t-37 -31h-32q-86 33 -195 94q-47 23 -141 55
t-136 51q-8 7 -7 17t18 62q16 52 14 81q10 86 10 248z" />
    <glyph glyph-name="p" unicode="p" horiz-adv-x="1198" 
d="M760 573q-10 37 -2 114t-2 120q-2 25 -22 41t-57 32q-36 16 -46 21q-45 -8 -96 -55q-45 0 -54 -120q-6 -77 -12 -95q12 -45 4 -162t-1 -152q8 -35 26 -46t49 -18t42 -11t29 -8t26 -5q8 -2 28 -9t31 -4q26 7 40 168q13 160 17 189zM1098 989q32 -21 24 -45t-30 -53
t-27 -47q-9 -254 -19 -364t5 -214q4 -16 20 -36t23 -33v-33q-25 -18 -81 -40q-123 -48 -200 -136q-2 -4 -11 -28t-39 -30t-67 15q-137 53 -207 59q-22 0 -30 -26t-10 -29q1 -25 -9 -93t-2 -106q29 -96 105 -178q10 -8 -6 -29q-29 -16 -56 6q-52 61 -92 95q-39 34 -54 39
t-61 -12q-47 -17 -61 -20t-63 -28q-27 -6 -35 17t0 45q41 123 37 378q0 3 -4 15t-4 17q-5 25 -27 36q-8 8 -35 6q-70 -5 -56 42q10 32 25 51q16 19 44 44t40 37q0 2 21 34t27 107q5 76 0 176t-5 117q6 51 -84 95q-10 4 -25 -3t-22 -3q-14 0 -18 28t41 84q45 55 53 72
q8 18 32 56q25 38 33 57t31 21t37 -13q76 -63 133 -129q27 0 61 -35t50 -41q45 -8 82 29q8 8 45 46t58 53t55 49t67 34q8 6 35 -6q76 -55 256 -150z" />
    <glyph glyph-name="q" unicode="q" horiz-adv-x="1042" 
d="M625 748q0 18 -35 49q-14 10 -45 23t-45 24q-49 27 -90 6q-41 -295 -27 -551q14 -35 47 -59t70 -29q38 -11 72 13t41 76t12 172q4 120 8 154t-2 69t-6 53zM604 118q0 24 -14 40q-23 6 -53 -29q-113 -115 -193 -168q-2 0 -12 -5t-21 -1q-35 27 -97 68t-78 52t-30 20
q-16 9 -20 13t-16 17q-12 12 -11 20q2 8 0 27q3 10 17 30t18 31q14 94 12 177t8 237q9 154 -5 172q1 23 -9 51t-5 45q5 18 5 21l41 8q111 39 267 127q20 14 54 45t54 45q0 6 21 2l22 -2q14 0 27 -12q55 -53 174 -102l6 -13q33 -8 90 -33t70 -28q38 -25 34 -59t-32 -64
q-2 -78 -29 -531q0 -35 6 -55q0 -23 -12 -76l8 -28q-2 -23 -4 -97q-2 -75 -8 -115t8 -104q22 -49 39 -67l42 -42t32 -34q4 -17 -5 -29t-24 -12q-14 4 -38 24t-38 23q-55 14 -131 -51q-100 -55 -164 -49q-12 0 -15 7q-3 6 -1 26t0 34t8 72q10 57 6 88q-24 102 -14 181t10 103
z" />
    <glyph glyph-name="r" unicode="r" horiz-adv-x="901" 
d="M920 938l-33 -90q-111 -111 -152 -146q-43 -29 -76 -22q-12 6 -41 35q-14 23 -45 63t-45 66q-22 22 -46 8t-29 -43q-11 -69 -11 -185t-6 -167q0 -127 8 -158q8 -63 131 -109q47 -8 97 29q10 8 38 42t52 42q8 6 25 3t22 -17q14 -35 -39 -76q-269 -177 -286 -193t-22 -19
q-6 -3 -18 -13q-67 -53 -120 -21q-53 43 -133 91q-80 47 -109 65v20q4 7 20 25t21 31q39 322 27 606q0 29 -42 55t-49 33q-37 61 7 104q14 14 51 58t62 62q57 44 83 20q119 -127 209 -156q28 -11 56 17l32 32q14 0 35 14q18 8 50 36q65 57 114 42q14 -16 76 -76
q61 -60 86 -108z" />
    <glyph glyph-name="s" unicode="s" horiz-adv-x="1099" 
d="M563 508q-47 0 -76 -37t-71 -66q-42 -30 -56 -43q-20 -54 38 -89q35 -21 120 -53t113 -40q10 0 20 15v20q14 31 23 93q8 62 16 87q-6 47 -43 80t-84 33zM397 709l2 -70q10 -45 35 -68q66 -47 123 0q8 8 38 33t40 46t36 42q25 21 29 39q0 35 -20 55q-14 10 -71 55t-108 45
q-50 1 -71 -20q-33 -61 -33 -157zM565 1157l27 -6q12 -8 66 -45t108 -57q29 -6 86 -32t86 -34q29 11 53 41q24 31 29 35q31 18 49 0q33 -11 -126 -166q-50 -49 -71 -70q-57 -57 -20 -90q82 -68 166 -88q27 -12 14 -41q-35 -41 -47 -49q-12 -16 -9 -50t3 -38l-14 -29
q6 -125 2 -151q0 -4 14 -33v-23q2 -1 17 -23q16 -22 14 -35t-23 -30q-244 -59 -330 -100q-18 -27 -68 -57q-51 -30 -63 -43t-38 -13t-50 15q-41 31 -200 106q-80 29 -138 21q-11 0 -29 -10q-17 -10 -27 -12q-10 -1 -16 11q-5 12 3 23q137 156 196 235q0 37 -25 59
q-26 22 -71 40t-63 31q-6 6 -7 40q2 6 22 35q19 29 19 49q16 111 2 254v50q-4 29 6 53t35 22q207 30 359 161q37 32 59 44z" />
    <glyph glyph-name="t" unicode="t" horiz-adv-x="780" 
d="M504 874q-41 0 -41 -63q-8 -80 -13 -245t-16 -251q-8 -27 37 -55q85 -39 107 -51t44 -1t68 33q47 22 70 38q26 -35 -24 -67t-126 -85t-95 -65t-36 -34q-16 -22 -25 -27q-10 -5 -26 -15q-52 -32 -80 -29q-28 2 -102 82q-18 15 -58 31t-66 32t-16 52q25 36 34 64t8 85t4 92
l-7 15q20 129 17 335q12 84 -29 132q-12 14 -47 18t-43 8v29q-2 30 54 56t69 40q65 27 143 104q78 76 103 99q12 8 41 20q12 0 12 -6q8 -14 3 -51q-12 -86 40 -100q96 -5 256 -17q27 -92 -53 -200q-60 -12 -123 -7q-62 4 -84 4z" />
    <glyph glyph-name="u" unicode="u" horiz-adv-x="1230" 
d="M475 874q0 -14 -1 -49t9 -65q-24 -82 -19 -192t3 -146q-20 -39 -16 -90q4 -50 4 -60t10 -21t12 -15q19 -25 67 -37t91 18q10 9 34 27q23 18 29 24t33 54q2 37 8 133l9 144q2 48 2 159t-13 131t-35 41q-22 20 -28 24q-47 47 -6 76q74 49 225 119q25 21 72 -30
q14 -15 24 -23q20 -10 133 -103q23 -18 6 -47q-6 -6 -28 -22t-25 -41q-12 -250 -31 -371q-10 -98 3 -186q11 -41 61 -75q51 -34 63 -69q16 -59 -45 -125q-14 -10 -59 -49t-78 -55h-28q-55 35 -135 117t-101 100q-39 26 -63 12t-68 -52q-42 -38 -62 -51t-59 -53t-70 -53
q-31 -8 -75 7q-23 12 -85 54t-102 60q-20 0 -28 15v26q47 89 41 211q-2 56 -3 74t-1 61q20 129 16 379q0 25 -10 32t-20 13t-26 8q-16 3 -30 5t-19 2q-18 2 -15 26t15 43q13 8 47 43t58 46t60 43t55 42q20 0 26 -6q62 -62 94 -75q31 -13 41 -22q53 -48 68 -59q12 -16 12 -34
q-4 -12 -26 -45q-22 -34 -21 -48z" />
    <glyph glyph-name="v" unicode="v" horiz-adv-x="1142" 
d="M621 934l-72 8q-16 0 -33 -10q-53 -33 -53 -111q-41 -258 -8 -502q0 -14 10 -24t18 -10q47 -27 146 -68q57 -10 67 49q10 94 16 412q1 50 -7 72q0 33 6 47q8 49 -29 110q-14 12 -61 27zM1020 574q0 -42 -2 -62q-23 -90 -12 -152v-63q6 -19 28 -37q21 -18 27 -24
q16 -28 4 -48t-37 -28q-281 -80 -418 -197q-35 -35 -75 -14q-80 63 -283 133q-4 2 -16 9t-20 10q-11 4 -66 16t-59 34q-1 11 1 33q6 18 31 48t29 57q0 82 -9 102q-4 20 15 82q0 16 3 183t-7 184q0 52 -100 111q-22 13 -27 18v82q14 29 75 55l41 41q29 29 47 43q43 35 76 2
q55 -55 84 -95t57 -68q28 -27 46 -47t43 -9q43 29 286 155h35l35 -6q147 -70 207 -121q14 -16 2 -36t-35 -33q-18 -80 -4 -172v-125q-2 -19 -2 -61z" />
    <glyph glyph-name="w" unicode="w" horiz-adv-x="1656" 
d="M702 779q0 93 -4 118t-31 44q-28 19 -71 19t-82 -29q-39 -30 -49 -75q-43 -223 -29 -504q0 -53 15 -67q85 -68 159 -61q43 5 68 48q20 40 26 126t6 93q1 7 -4 54t3 51q0 20 -7 29v154zM1245 645q13 19 6 30q-6 11 -6 17q16 74 6 152q-6 32 -44 54t-85 28t-106 -72
q-12 -10 -8 -44t-1 -60t-15 -108q-10 -83 -19 -124q10 -37 7 -114t9 -113q4 -31 28 -53t47 -24q23 -1 59 -13q61 -20 77 -5t23 51q6 35 6 40q18 92 18 295zM813 1204q31 0 62 -49q32 -49 71 -90t45 -50q5 -9 13 -19t12 -17q18 -31 55 -21q39 16 89 66t78 71q28 20 34 21
q6 2 24 10t24 4t23 -4q117 -23 250 -141v-35q-4 -6 -20 -27t-21 -34q-8 -90 -8 -208t-10 -216t-9 -133t25 -64t25 -32v-15q-27 -44 -84 -61q-20 -6 -65 -18t-85 -42q-78 -29 -266 -133q-43 -21 -99 5t-189 98q-134 72 -148 77q-73 3 -173 -90q-68 -63 -111 -66
q-43 -2 -96 41q-17 13 -46 37t-54 35t-36 19q-33 20 -23 53q29 50 36 150t18 133q-8 63 -3 187t-1 185q-8 37 -64 73t-61 42q-4 49 20 90q25 41 74 89t67 71q27 27 56 14q102 -80 174 -217q14 -25 42 -27t44 12q16 15 49 43t48 41q110 95 194 142h20z" />
    <glyph glyph-name="x" unicode="x" horiz-adv-x="952" 
d="M903 258q0 -10 -9 -18t-14 -12t-81 -60q-77 -56 -103 -72t-36 -29t-28 -25q-16 -12 -69 -49q-53 -36 -78 -56q-42 -5 -70 12q-67 40 -108 76q-6 2 -17 9q-12 7 -18 10q-24 11 -38 11q-15 0 -31 -12q-4 -43 -47 -172q4 -49 2 -55q-41 -100 -54 -152q0 -49 -34 -84
q-23 -16 -47 21q45 174 65 215q14 49 21 75v33q55 145 57 373l12 29q0 115 -4 364l8 21q-4 18 -9 72t-34 85q-23 20 -110 47q-20 0 -2 41q16 27 59 58t57 47q61 51 88 63q33 10 70 -12q123 -119 195 -158q35 23 93 81t91 81q46 15 78 -11q10 -9 18 -9q10 -6 28 -31t27 -31
q59 -25 70 -47l4 -39q0 -10 -4 -16q-20 -68 -121 -160q-25 -23 -104 -8q-12 4 -25 20q-12 16 -16 21q-4 2 -26 7t-29 13q-45 45 -82 27q-25 -90 -27 -173t1 -167t3 -109l6 -88q0 -18 23 -34q133 -76 145 -80l28 -4q7 0 83 46q75 46 123 50q6 0 20 -21v-14z" />
    <glyph glyph-name="y" unicode="y" horiz-adv-x="1134" 
d="M483 748q0 -32 -6 -62l6 -20q-14 -117 -10 -297q0 -2 8 -27q-11 -48 -9 -101q3 -53 3 -65q8 -41 84 -26q78 35 94 57q64 95 50 265q-4 60 8 134q-6 35 -1 104q5 70 0 104t-33 62t-61 32t-114 -42q-14 -18 -15 -20q6 -12 1 -39t-5 -59zM999 475q0 -61 -4 -92q-1 -9 13 -29
t10 -32q0 -36 -31 -56t-93 -39t-81 -47q-49 -14 -135 -59t-125 -59t-91 -48q-52 -35 -88 -54t-48 -32q-20 -14 -78 -43t-71 -45t-22 -26t-14 -26q-8 -25 15 -42q68 -41 69 -61q2 -14 -12 -27q-72 -55 -166 39q-35 41 -22 117q10 30 43 56t38 34q74 92 46 270v62
q20 104 10 186q-6 12 -6 47q6 61 2 324q-8 29 -47 55q-6 2 -23 10t-32 13q-14 6 -23 24q-18 49 61 96q29 23 69 75t66 73q74 43 111 -6q8 -10 47 -68q55 -80 121 -117q16 10 67 31t76 53q18 16 52 36t62 39q28 18 44 17l27 -6q16 -14 61 -49t92 -88h15q75 -45 63 -88
q-31 -31 -41 -55q-8 -48 -13 -138t-9 -127t-5 -98z" />
    <glyph glyph-name="z" unicode="z" horiz-adv-x="800" 
d="M776 942q-29 -31 -84 -80t-80 -74q-2 -4 -5 -14q-4 -13 -63 -71t-81 -117q55 -115 72 -144l20 -20q12 -39 29 -55q72 -76 133 -197q12 -41 -21 -64q-76 -47 -149 -124q-10 -10 -35 -24t-33 -24q-8 -8 -18 -25t-17 -26q-18 -14 -49 -42q-52 -47 -89 -69q-78 -46 -56 -91
q2 -5 13 -21t11 -18q12 -33 -26 -50q-84 -14 -131 41q-25 42 55 114q41 38 53 52q53 31 60 41q6 10 9 16t5 7q74 47 86 76q8 16 2 34q-25 96 -76 158q-4 2 -12 14q-8 11 -16 19t-45 75t-74 83q-14 -6 -43 -41t-53 -23q-25 8 6 64q18 18 58 66t78 74t104 96t73 77
q31 27 21 61q-59 92 -195 162q-18 3 -32 -8q-13 -10 -20 -15t-35 -34t-56 -39q-14 0 -15 6q-3 32 13 56t51 54t43 39t18 25t19 21q14 18 44 63t57 73q28 28 69 38q23 4 47 -21q35 -20 96 -74t98 -75q10 -6 56 -6q10 4 35 23t47 20q18 -8 29 -27t-1 -35z" />
    <glyph glyph-name="braceleft" unicode="{" horiz-adv-x="901" 
d="M990 -432q-81 0 -122 18q-64 17 -135 64q-71 48 -105 68t-104 89q-6 7 -25 15t-28 16q-12 16 -40 53t-49 65q-22 28 -46 50q-104 242 -123 305v29q-68 162 -12 461q18 125 94 276q53 96 94 158q41 55 66 98l45 45q104 72 184 144q35 26 107 54t86 36q78 35 162 35
t104 -39q10 -16 2 -47t-25 -41q-24 -12 -72 -24t-65 -17q-258 -74 -453 -324q-12 -25 -60 -123t-71 -155v-23q-2 -6 -15 -26t-13 -33l-14 -230q1 -55 11 -85t24 -78q15 -49 18 -58q4 -10 4 -33q24 -84 88 -174q62 -89 72 -105t21 -20t15 -10q12 -29 54 -72t51 -61
q37 -17 103 -69t102 -70q23 -8 97 -20t113 -52q12 -22 -24 -56t-116 -34z" />
    <glyph glyph-name="bar" unicode="|" horiz-adv-x="352" 
d="M199 40q0 -22 8 -32q4 -31 -33 -41h-14q-2 4 -6 8t-12 24t-15 165q10 110 9 146t-11 106q2 6 4 30t6 37q2 12 -2 37t-4 35l6 72q-4 11 -4 276q-6 43 -14 160q8 16 9 24t-4 42q-5 35 -6 53t8 40t30 29q23 15 43 -11t20 -54q-6 -51 -5 -135t-1 -131l6 -148q2 -12 -7 -49
t7 -188l-8 -25l4 -29q0 -6 -4 -23q-4 -18 -1 -32t0 -66t-1 -71q6 -16 12 -84q-12 -61 -10 -92q-10 -51 -10 -73z" />
    <glyph glyph-name="braceright" unicode="}" horiz-adv-x="901" 
d="M711 422q-18 -125 -95 -277q-53 -96 -94 -157q-41 -55 -65 -99l-45 -45q-104 -72 -185 -143q-55 -41 -184 -98q-72 -29 -116 -39q-104 -24 -144 47q-18 29 47 72q82 43 133 61q264 76 457 324q12 24 60 122t71 156v23q2 6 15 26q14 20 14 44t11 134t-16 189
q-12 58 -36 119q-2 8 -2 30q-25 88 -89 176q-63 87 -72 103q-8 16 -20 20t-16 11q-12 29 -53 71t-51 62q-12 6 -88 52t-112 55t-91 21t-113 58q0 2 -13 21t-13 36t12 25q53 41 101 42t122 -34q87 -21 150 -64t95 -62t101 -89q5 -6 25 -14q20 -9 30 -21t57 -74t76 -89
q104 -242 123 -306v-28q68 -162 13 -461z" />
    <glyph glyph-name="asciitilde" unicode="~" horiz-adv-x="1171" 
d="M446 769q0 -318 -8 -513q0 -20 21 -41q65 -33 91 -41t54 21q9 18 29 33t26 22q27 49 27 78q14 80 25 224q10 144 18 202q-33 66 -98 96q-6 -14 -13 -14l-8 6q10 61 56 69q14 31 59 77t60 70t55 26t71 -17q106 -80 133 -158q4 -55 6 -60t-4 -58t-16 -109t-22 -262
q0 -27 8 -41q2 -15 -11 -63t5 -62q14 -16 59 -30t59 -29q16 -27 10 -58t-29 -45q-25 -14 -47 -32t-33 -29q-11 -10 -38 -38t-33 -34q-37 -31 -81 4q-121 117 -162 152q-55 39 -88 12q-31 -33 -100 -78t-99 -78t-68 -34q-39 10 -84 55q-137 74 -145 80q-45 45 -29 75
q27 47 41 105q2 68 8 205q5 137 7 209q17 25 18 46q2 21 -33 70q-10 12 -41 20t-43 21q-20 33 -6 68q10 18 34 50t31 44q8 11 30 27t25 36t15 79q12 60 14 93t21 54q19 20 23 23t19 15t33 26q18 12 120 73t157 107q29 12 49 13t78 -25q60 -26 74 -28t74 -18t92 -10
q31 6 70 36t65 36q14 0 15 -6q-4 -23 -26 -58t-28 -53l-14 -6q-47 -82 -94 -203q-8 -18 -34 -28t-71 -2q-45 10 -157 60t-146 62q-47 0 -47 -6q-29 -195 -29 -513z" />
    <glyph glyph-name="exclamdown" unicode="&#xa1;" horiz-adv-x="520" 
d="M322 131q0 -47 20 -80q20 -61 20 -160q4 -25 20 -83t23 -126q7 -67 -4 -92l9 -56q-1 -15 -9 -23q-81 -50 -182 -64t-117 84q-12 78 15 221t26 199q6 43 12 201q5 158 27 237q0 37 60 17q83 -22 93 -107q5 -43 -4 -82t-9 -86zM204 1024q18 0 32 -10t56 -39
q126 -87 130 -135q10 -80 -68 -160t-151 -49q-51 10 -102 63q-50 53 -57 119t58 111q22 15 52 58q31 42 50 42z" />
    <glyph glyph-name="cent" unicode="&#xa2;" horiz-adv-x="847" 
d="M500 319q-20 66 -8 222q0 25 -7 135t11 188q-65 6 -78 -14q-20 -30 -15 -184q-25 -252 -4 -365q8 -61 95 -88q-4 77 6 106zM621 1348v-33q-11 -27 -19 -73t-13 -63t-9 -46q2 0 2 1t2 0t10 -1t16 -5q131 0 158 -6q37 -18 23 -69q-13 -31 -29 -91t-28 -85t-32 -26t-118 7
v-20q4 -27 -6 -50q-10 -42 -8 -122t-4 -118q-5 -38 1 -104t0 -96t11 -82q4 -25 8 -65q80 25 172 96q23 11 29 5t6 -26q-6 -20 -37 -50t-158 -126q4 -72 -4 -123q0 -12 3 -60t-7 -85q-10 -20 -45 -32t-60 -3q-2 76 2 219q-16 -6 -22 -12q-43 -66 -117 -55q-47 14 -110 74
q-8 8 -28 14t-28 12q-4 12 -35 29q-25 0 -35 18t-10 36l17 54q12 35 9 80q-11 167 -5 208q6 42 7 91t-1 118t-2 95l-37 96q0 14 14 29q135 90 211 139q6 6 27 32q20 26 35 38q6 2 12 8q22 22 119 15q2 12 -1 57t11 51q16 14 28 55q11 41 46 50h29z" />
    <glyph glyph-name="sterling" unicode="&#xa3;" horiz-adv-x="1277" 
d="M89 -139q-25 0 -32 16q-2 12 -6 21t12 21q17 11 30 21t19 15q6 6 49 51q42 45 66 66q59 66 73 152t5 206q-32 32 -90 37l-25 2q-14 4 -17 20t9 31q14 10 42 28t40 27q43 57 43 101q4 22 -3 46t-34 31t-108 7q-8 33 24 55q94 51 121 139q10 27 8 60t0 65q4 20 54 70
q33 25 146 102t140 121q8 8 52 8q43 0 211 -49t186 -53q34 -14 22 -55q-72 -129 -143 -154q-37 -15 -183 17t-184 18q-12 -115 -2 -154q-14 -76 -10 -112t4 -93q-6 -25 -5 -65t-1 -56t-4 -44t-6 -43q5 -70 1 -110q-5 -40 -5 -50q-16 -66 -86 -139q-6 -6 -6 -21
q-27 -29 -58 -63q-57 -61 -81 -79q-25 -18 -25 -22q-27 -23 -84 -79q-58 -56 -96 -84t-63 -29zM731 961q0 76 43 81q12 4 20 -4t7 -22v-17q-4 -106 12 -122q41 -31 92 -31q19 -4 33 -16t2 -32q-12 -22 -60 -59t-65 -55q-43 -33 -37 -80l-2 -25q0 -9 22 -21q22 -11 70 -15
t60 -7q12 -2 15 -12t-8 -22t-56 -43q-113 -78 -113 -109q0 -39 14 -59q23 -23 49 -15q6 -2 31 -8t31 -10q89 -16 111 -18t112 8q47 14 70 57q12 14 30 11t13 -21q3 -45 -17 -87t-38 -52q-45 -26 -64 -50q-8 -6 -8 -20q-4 -4 -20 -19t-19 -30q-18 -33 -46 -35t-71 16
q-64 3 -92 9q-27 6 -38 3t-85 16t-108 7q-8 -6 -26 -24t-81 -64q-62 -47 -113 -33q-2 12 -6 21t25 30q30 21 36 27t49 51q42 45 63 63q22 18 36 32l26 26q11 12 20 26t16 24q6 8 10 22t7 22t4 20t3 23q2 10 3 26t14 32q10 75 5 183t13 183q-2 56 6 158v60z" />
    <glyph glyph-name="currency" unicode="&#xa4;" horiz-adv-x="1220" 
d="M694 297v47q12 98 13 137q-8 14 -9 35q6 20 7 62q-9 24 -7 58t-2 52q-18 39 -116 68q-33 57 59 104q62 46 76 64q47 84 -8 157q-39 43 -160 88q-29 0 -41 -8q-31 -14 -27 -41q4 -68 -8 -206t-8 -207v-56q-8 -49 -6 -129t-3 -115q-5 -36 -8 -74t10 -84t19 -52q6 -2 44 -24
t49 -15q11 6 32 6q94 35 94 133zM1378 1362q34 0 62 31q16 0 27 -18t-28 -84q-38 -66 -42 -72t-29 -50t-57 -67q-25 -12 -42 -5t-81 39t-98 46q-43 0 -48 -8q-16 -46 -19 -108t-5 -87t-1 -163t-9 -173v-41q0 -160 -19 -233q0 -49 8 -62l-6 -14q5 -8 15 -41t26 -49
q22 -14 52 -10t53 26h26q17 -29 15 -71t-27 -66q-78 -82 -190 -176q-43 -12 -62 6q-113 123 -217 164q-19 10 -31 6t-21 -6t-30 -21q-21 -20 -92 -64q-72 -45 -91 -63t-37 -22q-50 -11 -157 96q-12 8 -54 26t-61 38t-18 51q52 41 58 73t7 101q1 70 9 108q-8 32 -8 35
q14 248 10 303q-10 39 -76 56l-8 -9q-6 0 -16 3t-17 4q-16 6 -20 23t6 32q37 28 114 120q29 34 32 103q3 68 7 88q0 25 15 35q63 57 184 119q6 4 16 17t17 18q27 12 80 57t92 55q48 -29 113 -55q65 -25 106 -31t57 -13t76 -7q37 10 123 71q35 14 111 15q43 -3 136 -59
q30 -17 64 -17z" />
    <glyph glyph-name="yen" unicode="&#xa5;" horiz-adv-x="1476" 
d="M709 420q0 29 -4 33q-6 -2 -16 -2t-64 -54q-25 -25 -25 -82q-2 -20 -8 -29t3 -32q9 -22 4 -44t-5 -42t14 -29q41 -6 76 31q9 9 23 51v19q8 24 12 30q6 45 -2 83t-8 67zM727 591q0 43 4 77t-8 34q-59 -8 -90 -28q-16 -10 -17 -56q-14 -88 5 -135q68 12 94 47q12 17 12 61z
M969 535l4 24q-12 32 -34 25q-21 -8 -31 -14t-25 -17q-16 -12 -21 -14q-57 -35 -87 -130t3 -157q68 -41 172 70q18 28 24 104t-5 109zM625 793l-4 -25q21 -50 76 0q19 16 37 42t20 90t-29 130q-55 30 -69 7q-5 -9 -13 -31q-18 -27 -23 -104t5 -109zM977 709q0 4 8 46
q12 64 -29 89q-22 -4 -54 -31t-48 -33q-70 -25 -70 -118q2 -18 12 -36t27 -14q84 12 119 35t35 62zM805 1069v-18q-8 -25 -12 -31q-6 -45 2 -83q8 -39 8 -61t12 -34q44 -4 85 36q40 40 50 46q12 0 19 6q25 25 24 82q2 20 11 34t-13 36t-24 29t-10 11q-7 4 -9 11q-8 8 -25 12
t-23 6q-25 9 -57 -30l-26 -27q-12 -12 -12 -25zM354 1011q0 9 -12 27l-63 64q-31 27 -56 12q-25 -16 -37 -28t-28 -30q-16 -17 -27 -26h-27q-26 35 14 75q3 3 12 13t11 12q12 0 28 16t34 30q12 14 40 43t40 43q25 25 57 51q33 27 39 39l8 16q27 27 68 -6q16 -16 45 -59
q90 -100 139 -162q31 -35 78 -23q70 31 174 125q16 11 30 17q13 6 18 16t39 32t46 35q12 12 25 14t31 -14q19 -16 30 -22q51 -43 150 -133q2 -6 10 -16t13 -47q5 -38 13 -46q41 -31 93 -30q18 -3 32 -15t2 -34t-60 -58q-48 -37 -65 -55q-43 -33 -36 -80l-2 -40q0 -32 22 -48
q14 -8 59 -13t66 -22v-12q-15 -25 -69 -68t-61 -52t-11 -18q-4 -8 -11 -16t-5 -25t-3 -36q-31 -57 -59 -67t-59 -37q-31 -26 -57 -42t-85 -47t-91 -56t-79 -51t-63 -36l-19 -19q-2 0 -34 -14t-46 -25q-57 -53 -178 -131q-2 -2 -18 -16t-23 -22q-43 -24 -82 -60
q-39 -35 -55 -47q-23 -78 39 -92q72 -15 86 -25t15 -27t-13 -28q-51 -20 -94 -21h-92q-49 16 -62 25q-39 33 -46 78q-6 45 12 69t64 66q46 41 59 71t24 86q10 56 19 81t6 50t-3 34q-14 45 -24 55q-41 31 -92 31q-90 20 25 106q48 37 65 55q43 33 37 80l2 40q0 31 -18 43
t-64 18q-45 6 -66 22v12q16 25 54 56t46 40t11 17q2 8 6 12q57 57 61 86q4 15 1 95t-3 89z" />
    <glyph glyph-name="section" unicode="&#xa7;" horiz-adv-x="1597" 
d="M476 28q-15 8 -17 7q-48 -10 -121 35q-56 32 -78 32q-12 6 -30 26t-33 32q20 -66 24 -101q20 -20 39 -24q4 -9 7 -25t7 -22q33 -37 43 -58h5q49 -47 124 -71q0 -10 20 -20q20 -9 56 -25t63 -11q28 6 40 0q106 -35 155 -10q16 -2 50 4t50 3q16 -2 48 -24q33 -22 57 -18
q49 12 92 78h10q23 18 33 20t40 15q30 14 50 15q20 2 39 18t36 42t27 34t13 28q4 20 4 24q0 3 -3 7t-5 7t-12 13q-45 88 -103 99q-12 10 -55 10q-18 8 -39 8l-88 -8q-28 -21 -68 -35q-41 -14 -55 -20v-2l-14 -11h-15q-82 -47 -122 -49q-25 -29 -95 -41q-53 0 -75 5t-56 5
q-33 0 -48 8zM907 735h-28q-86 -47 -123 -49q-16 -16 -94 -41q-54 0 -76 5t-56 6t-47 3l-20 11q-14 -4 -35 0t-25 -1t-7 -11t-9 -13q-25 -10 -70 -31q-13 -45 -32 -63t-15 -21q29 -45 62 -102q43 -29 147 -76q20 -4 56 -4q170 27 202 27q70 47 131 61q18 6 50 20t47 21
q6 0 12 -6q18 10 43 10q38 25 74 20q37 -5 44 -5q8 0 32 13t44 14t38 17t37 41q19 26 34 37q5 11 7 23q1 12 3 18q2 5 -1 11t-10 13t-9 11q-39 88 -103 101q-10 6 -30 8t-38 6t-30 5t-42 -4t-42 -5q-23 -14 -123 -55q2 -2 2 -15zM1214 1118l91 -57h16q37 -12 44 -9t1 27
t-20 46t-24 56q-12 34 -22 43t-26 15t-23 12q-19 1 -41 25t-30 29q-14 20 -17 22l-16 14q-59 -6 -152 13q-27 29 -71 43q-12 0 -64 -11q-10 0 -33 8t-53 0q-30 -7 -65 -8l-23 -14q-51 0 -95 -16t-76 -15q-33 0 -51 -7t-29 -9q-12 -2 -24 -20q-17 -22 -87 -54q-5 -21 -23 -45
t-22 -32l-3 -3q-4 -2 3 -12t27 -44t32 -50q31 -23 145 -78q23 -4 56 -4q158 29 204 29q59 43 131 61q12 4 56 23t51 12q18 10 45 10q25 8 37 17q68 8 139 -17h12zM1414 401q3 0 10 -2t8 -10q2 -8 5 -17q3 -8 6 -18q13 -40 18 -66q6 -25 20 -71q-2 -94 -15 -129v-20
q-12 -84 -71 -156q-12 -45 -62 -74q-6 -12 -14 -24q-8 -6 -28 -27t-74 -49t-91 -29q-46 -27 -116 -31t-121 3h-45q-28 -4 -84 -1t-109 3h-82q-4 2 -24 -2q-53 12 -117 45l-25 6q-8 0 -22 14l-29 29q-27 27 -43 37q-55 47 -82 94l-12 12q-2 10 -12 22t-10 20q0 7 -11 17
q-2 2 0 -6l2 -8q-4 -10 1 -26q5 -17 2 -31t-2 -62t-3 -62q-4 -13 -6 -35t-6 -32q-8 -4 -18 -10t-17 -8h-4q-35 -8 -43 -4q-49 25 -41 51q2 4 9 24t29 50q22 31 20 120q-1 89 8 117q-4 33 -5 99q-2 66 -8 108t4 100q22 22 18 66q-5 43 -3 57q4 14 14 37t14 37v33q4 4 11 15
q6 11 10 16q10 2 25 23q14 22 20 26q6 0 25 12q8 2 11 16t5 17q4 2 9 5t18 6q12 2 12 7q-6 2 -29 2q-12 6 -30 29t-37 33l4 8q-31 15 -66 79t-24 115q22 22 17 64q-5 43 -3 57t13 36t14 36v37q7 2 18 29q16 2 31 24q14 23 16 25q7 0 21 6t14 20q0 13 6 19t20 12t21 14
q6 0 6 6l2 5q15 6 35 19t31 15q45 27 123 40t90 22l24 -2q19 0 27 8q12 4 44 1t44 -1q19 10 37 10q26 0 55 -6q30 -6 66 4q12 -10 36 -11t56 -8t64 -7q32 -1 55 -17t57 -16q12 -10 47 -28t51 -36q20 -14 49 -53t43 -53q10 -16 15 -15q6 8 3 35q-3 28 0 46t13 106
q10 37 27 47q59 33 80 25q27 -2 40 -26t-3 -54q-48 -48 -54 -60t-5 -30t-1 -27l-14 -57q6 -49 4 -58l4 -192q6 -16 9 -45t7 -41t0 -43t-4 -41l8 -19q0 -4 6 -48t-3 -50v-23q-18 -90 -72 -153q-2 -9 -3 -21t-3 -20t-21 -21q-8 -16 -17 -24t-20 -21l56 -34l12 -4z" />
    <glyph glyph-name="dieresis" unicode="&#xa8;" horiz-adv-x="1054" 
d="M289 1231h-23q-45 43 -80 92q-97 80 -86 117q4 12 13 14q76 53 127 119q41 45 71 31q40 -26 85 -77q44 -51 64 -72t-3 -62q-23 -31 -75 -79t-68 -66t-25 -17zM786 1231h-22q-45 43 -80 92q-97 80 -86 117q4 12 12 14q76 53 127 119q41 45 72 31q42 -27 86 -78
q43 -50 63 -71t-4 -62q-22 -31 -74 -79t-68 -66t-26 -17z" />
    <glyph glyph-name="copyright" unicode="&#xa9;" horiz-adv-x="1513" 
d="M561 885q0 6 4 6t6 2q20 47 47 57l7 8q14 10 108 48q0 2 26 1t40 1t49 -12q35 -13 46 -15q12 -2 26 9q14 10 21 14t13 0t7 -9q16 -145 -11 -233q0 -6 -11 -3t-13 9q-14 88 -56 123q-2 2 -4 9t-6 9q-35 45 -88 40t-78 -34q-51 -84 -57 -202l-6 -47l10 -19q-2 -13 8 -33
t10 -24q16 -88 80 -115l4 -10q70 -20 80 -19q41 10 78 62q8 0 14 4q6 16 19 29q10 35 26 23t19 -32q2 -20 -12 -34q-27 -45 -43 -62q-45 -61 -86 -65q-55 -12 -148 -4q-29 4 -88 49q0 8 -6 12q-82 68 -74 147q0 9 -9 21t-9 14q-8 115 20 178v21q8 8 17 31q8 23 20 30v15z
M170 750l-10 -84q2 -37 -4 -88q9 -22 20 -58q10 -36 24 -61t17 -33q35 -55 64 -84q3 -16 27 -43q24 -26 42 -52t29 -36q18 -12 48 -28t53 -37t32 -27q16 -1 46 -15t37 -16t89 -2q27 -12 82 -6q47 -10 84 0q35 0 78 26q18 0 71 39q4 3 41 9t54 20q12 6 26 35t19 35
q10 6 37 16t34 16q12 16 22 44t26 55q14 26 22 63q4 4 13 14t19 22q10 11 11 31q2 20 17 85q16 64 14 80q6 49 -11 84q4 10 2 46q-3 36 -4 38q-35 68 -41 84t-25 35t-26 34q-8 8 -24 37t-31 41q-10 17 -70 47q-16 27 -65 47q-27 27 -66 33q-53 39 -71 41q-16 8 -48 9t-41 3
q-11 2 -37 9t-46 6q-35 6 -76 -15q-63 8 -133 -31q-27 -14 -38 -20t-67 -49q-54 -29 -66 -42t-37 -25t-40 -33q-9 -7 -17 -34t-10 -32q-23 -27 -33 -72q-33 -59 -34 -90q-18 -29 -29 -71zM844 1350l84 -17q8 -4 37 -12t39 -18q31 -2 79 -33q14 -6 36 -26t36 -27q8 -9 34 -21
t42 -27t34 -36q17 -21 34 -48t30 -34q5 -12 17 -38t16 -42q14 -13 18 -40t7 -33t21 -34t26 -50q6 -22 -2 -79l14 -65q-8 -37 -13 -92t-11 -76t-10 -62q-5 -41 -44 -76q-14 -14 -17 -20t-9 -36t-18 -45q-11 -15 -35 -29t-33 -23q-9 -10 -21 -36t-18 -34q-10 -8 -38 -24
t-42 -29q-10 -4 -37 -10t-34 -10t-35 -26t-46 -30q-31 -6 -70 -10q-12 -4 -77 -37l-84 12q-16 1 -44 13t-30 12l-92 -10q-10 4 -39 21q-62 37 -109 53q-16 12 -51 19t-47 13q-27 31 -53 52q-9 12 -21 38t-19 35t-33 29t-32 37q-16 12 -51 63q-12 39 -37 70q-6 49 -18 86
q-8 56 -8 78v46q0 24 -2 38q6 31 2 80q8 32 8 86q6 16 18 42t15 35q45 78 61 110t84 101l26 26q22 22 29 34q14 6 31 33q16 27 25 32q10 5 40 11t42 16q14 4 50 24t105 37q53 10 86 4q16 3 18 5t21 -3l21 -6q78 13 94 13z" />
    <glyph glyph-name="ordfeminine" unicode="&#xaa;" horiz-adv-x="802" 
d="M420 930q45 78 -4 153q-18 29 -58 36t-71 -13q-4 -2 -15 -29q-2 -14 0 -50t-1 -48t14 -41q39 -43 92 -33q29 0 43 25zM440 1200q0 10 3 58t-9 79q-73 55 -110 58q-38 4 -66 -20t-33 -54q-23 -72 27 -114t88 -50q66 -8 92 21q8 12 8 22zM741 858q-4 -14 -22 -38t-23 -32
q-39 -43 -86 -79q-14 -10 -30 0q-16 9 -42 33t-42 34q-50 58 -60 68t-32 -6t-72 -80q-4 -2 -21 -16t-39 -22q-22 -9 -28 -1q-31 10 -85 40t-75 38q-4 2 -4 22q10 41 20 182q0 12 -24 58q-8 27 3 39t61 36t59 52q2 2 -1 10t-3 10q-35 61 -25 123q2 23 45 70q4 6 4 16
q20 27 52 44t44 26q20 23 91 76q14 8 34 -3t78 -41q59 -30 90 -49q20 6 70 -14q16 -16 8 -39q-44 -46 -39 -146q2 -44 0 -63q-14 -74 -8 -125v-80q12 -47 76 -67q34 -15 26 -76z" />
    <glyph glyph-name="guillemotleft" unicode="&#xab;" horiz-adv-x="905" 
d="M421 137l-15 -2q-60 64 -70 80q-10 15 -24 29t-28 36q-15 22 -36 37q-22 15 -40 33t-34 36t-24 32t-16 21t-9 21t21 34l83 88q12 14 28 39t37 38q20 13 34 27t24 27q10 12 21 22q8 9 23 29t29 20q13 0 32 -14t-21 -57q-18 -21 -32 -49t-22 -40q-9 -12 -14 -28
q-4 -16 -14 -32t-21 -29q-11 -15 -17 -25t-23 -22q-37 -29 10 -71q10 -9 18 -23t26 -37q18 -22 26 -37t20 -32t35 -67q6 -7 16 -19t15 -23q6 -11 -15 -32q-4 -2 -9 -4t-8 -4t-6 -2zM750 135h-13q-12 13 -22 29q-11 16 -23 28t-22 27t-24 29l-26 26q-14 12 -26 24t-31 27
q-19 14 -36 37t-27 34q-10 10 -18 24t-17 24q-18 12 -19 15q0 12 13 20q12 13 23 27q27 36 52 56q24 21 48 49t50 53q27 24 41 45q15 20 24 29l15 15q5 5 7 8t8 8t11 10q4 5 10 5t24 -14q16 -15 12 -27q-10 -16 -27 -38t-27 -53q-9 -31 -27 -52q-29 -34 -38 -63t-29 -47
q-18 -17 -18 -32q0 -16 6 -24t17 -16q10 -8 17 -22q6 -14 14 -27t16 -29t18 -30t18 -28q7 -14 18 -28q12 -14 20 -28t10 -27q2 -15 9 -31t-3 -24t-28 -9z" />
    <glyph glyph-name="logicalnot" unicode="&#xac;" horiz-adv-x="1681" 
d="M745 1131q0 31 -24 53q-20 23 -43 33t-66 18t-51 10q-35 20 -76 12q-33 -10 -32 -55q-9 -96 -9 -263t-4 -229t-15 -207q-11 -146 -9 -222q16 -27 68 -47t63 -27q96 4 155 92q18 241 18 355t-7 127q-6 13 -20 20q-15 8 -20 11t-19 8t-19 7q-35 16 -21 68q10 20 41 38
q31 17 41 25q2 6 12 11t19 36q10 31 14 63t4 63zM1182 881q-38 1 -65 -19q-29 -20 -59 -53t-50 -47q-25 -25 -15 -62q14 -20 6 -75t-4 -76l6 -14q-2 -25 -9 -73q-23 -156 22 -184q18 -14 53 -24t49 -18q57 -47 111 -56q9 -9 20 5q11 13 13 34t12 79t14 89l-8 29
q0 161 31 356q-17 45 -53 77t-74 32zM184 1237q0 10 15 25h12q16 8 52 32t65 33q28 10 108 82t144 70q94 -6 96 -6q55 -20 166 -33q66 -14 164 37q14 0 20 -7q8 -12 8 -63q-27 -154 -4 -342h47q18 18 74 69t70 70q41 49 -29 164l-8 25q0 4 -1 13t20 27q22 17 72 41t73 39
q51 25 84 3q0 -48 34 -92t41 -58q16 -39 -47 -84q-162 -82 -313 -188q-10 -14 -80 -64q-37 -37 -43 -49q-6 -39 7 -72q20 -51 99 2q25 16 58 40t47 33t56 45t73 49t66 5q27 -29 102 -98q112 -104 92 -127q-2 -10 -12 -23t-15 -26q-4 -45 -27 -238t-16 -325q10 -35 64 -62
q16 -16 6 -26q-25 -20 -90 -31t-104 -27q-38 -16 -53 -20t-74 -35q-17 -20 -25 -21t-20 -4t-84 -59q-28 -19 -59 -25l-36 -7q-9 -2 -14 2q-6 5 -32 25t-44 33q-18 14 -41 29q-24 15 -44 28t-55 31q-34 18 -84 28q-51 11 -73 35t-45 22q-23 -4 -35 -12q-90 -60 -147 -115
q-11 -27 -23 -33t-22 -13t-18 -11q-60 -36 -177 54q-57 44 -88 51q-31 8 -35 15q-4 6 -12 14t-5 13q3 6 1 16q4 8 34 53t26 62q-5 18 -7 43q14 74 11 309v41q12 43 12 137q-16 55 -21 62q-23 20 -104 20q-25 6 -24 26t17 36t55 40t63 48q45 44 38 172q-2 37 -2 47z" />
    <glyph glyph-name="registered" unicode="&#xae;" horiz-adv-x="1513" 
d="M868 918v14q-12 35 -65 53q-63 8 -96 -24q3 -7 -3 -27t3 -29q-16 -47 -11 -119q10 -47 11 -57q6 -37 51 -29q43 14 76 43q69 79 34 175zM705 614q0 -12 -4 -64t4 -76q8 -26 17 -30t23 -7t21 -7q30 -25 12 -34q-29 -15 -65 -15l-62 2q-25 8 -61 -4l-10 6q-8 -4 -76 -4
q-23 6 -23 29q0 4 6 11t13 7q51 0 66 22q16 22 16 44t-4 59t0 45v70q-4 14 -5 49q8 42 7 76q-2 34 0 61v55l4 15q-10 26 -18 32q-7 5 -29 17q-72 0 -84 33q0 24 45 21q44 -3 72 3t157 17q109 0 166 -17q63 -8 80 -51q4 -6 14 -6v-15q18 -33 19 -36l2 -84q0 -58 -35 -89
q-8 -7 -12 -12q-8 0 -15 -4q-8 -10 -30 -16t-25 -17q-22 -22 20 -65q17 -17 20 -27q5 -18 30 -33q4 -4 11 -16t11 -16v-11q10 -23 47 -51q43 -25 58 -34t28 -9q35 -24 19 -49l-43 -12q-35 -2 -107 3t-99 4q-26 -1 -36 16q-10 18 -4 28t18 18t16 20t-20 44q-45 49 -61 86h-8
q-8 20 -54 43q-12 2 -22 -5q-10 -8 -10 -20zM168 586l6 -97q40 -59 54 -81t46 -64q14 -29 58 -65q27 -47 45 -58q10 -10 32 -27t29 -28q16 -4 40 -18t34 -17q53 -33 80 -35q14 -8 46 -12t44 -8h82l76 -4q10 2 41 11t45 11q23 10 69 51q10 3 48 9t57 16q6 6 18 35t20 37
t37 19q27 11 37 23t21 40q9 28 25 58t20 44q6 14 27 41q20 27 26 45q6 59 12 76q-2 14 8 43q9 29 11 39q-8 57 -6 94q-14 33 -19 88q-25 33 -30 78q-55 49 -66 65l-16 29q-14 29 -27 39q-14 23 -65 47q-19 26 -67 54t-66 36t-44 24q-24 16 -40 20q-16 5 -76 -5
q-70 29 -86 27q-41 4 -82 -15q-43 2 -86 -18q-23 -4 -82 -37q-23 -8 -62 -43q-16 -8 -43 -21t-41 -22q-8 -14 -32 -28t-31 -25q-9 -10 -21 -42t-19 -42t-17 -34t-16 -34t-34 -78q0 -3 -6 -33t-8 -49q-14 -51 -10 -81q-8 -51 4 -78zM1438 625v-43q-10 -29 -11 -78
q-6 -16 -12 -47t-14 -43q-3 -14 -21 -38t-22 -38q-10 -12 -18 -40t-11 -34q-12 -14 -42 -30t-36 -19q-8 -12 -19 -41t-18 -39q-63 -35 -74 -43t-40 -15q-37 -9 -65 -30q-29 -21 -48 -24q-23 -15 -57 -21t-60 -18q-27 -12 -39 -17q-71 6 -77 6q-6 -1 -39 11t-46 14t-44 0
t-43 4q-14 2 -42 16l-42 21l-25 10q-25 13 -39 21t-44 14t-34 8q-61 49 -77 55q-4 10 -14 39q-9 29 -17 39q-8 11 -33 27t-31 29q-20 23 -53 71q-12 37 -39 84q-4 41 -22 74v41q0 29 2 43q-4 10 6 78q-8 55 -2 80q4 72 12 84q0 26 22 76q22 49 50 85q14 45 92 131
q45 37 57 56q16 6 34 34q17 28 28 37q1 1 31 5t40 14q27 8 70 45q41 2 92 24q25 -2 82 13q4 0 37 -8t68 -1t47 3q29 0 90 -27q68 -6 86 -10q75 -37 99 -67q25 -30 31 -34t33 -13q56 -20 99 -91q16 -12 34 -43t34 -51t23 -34t14 -46q7 -33 11 -41t19 -32q16 -24 23 -40
q6 -70 10 -82q-4 -20 -8 -69q2 -16 2 -45z" />
    <glyph glyph-name="macron" unicode="&#xaf;" horiz-adv-x="827" 
d="M384 1495q38 0 69 -2q33 -8 105 -2t90 4t40 0t39 -11q18 -13 8 -40q-39 -100 -67 -141q-16 -21 -34 -27t-59 -2q-53 0 -153 4h-213q-101 4 -101 14q-1 4 4 18t3 29q57 132 75 147q17 15 56 15l57 -2q43 -4 81 -4z" />
    <glyph glyph-name="degree" unicode="&#xb0;" 
d="M528 1112q35 0 49 35q13 35 7 76q-24 61 -44 85t-46 31q-12 -1 -35 5t-35 2q-35 0 -47 -15q-56 -78 24 -172q43 -47 127 -47zM772 1391l14 -15q11 -32 7 -149q-3 -24 -31 -41q-28 -16 -34 -22t-7 -15q-2 -10 -4 -12q-27 -16 -97 -82q-156 -148 -278 -133q-9 9 -54 29
q-44 20 -57 29q-11 8 -27 34t-26 160q13 57 101 134q39 34 46 41t9 17t4 12q139 162 219 170q66 0 76 -8t44 -35q74 -59 95 -114z" />
    <glyph glyph-name="plusminus" unicode="&#xb1;" horiz-adv-x="1427" 
d="M647 493l-4 56q18 115 -2 235q-23 66 -98 88q-34 10 -90 19q-15 0 -54 -21q-11 -55 -9 -114q3 -58 3 -72q-29 -281 4 -457q8 -39 65 -59q21 -8 25 -10q59 -10 91 28q6 12 21 34t18 33t11 100q7 89 13 107t6 33zM1165 666q10 31 -14 55q-10 6 -61 40t-99 40q-16 4 -35 -15
q-10 -18 0 -41q2 -27 2 -81q-8 -39 -6 -106t9 -81q29 -18 57 1t39 54q8 8 13 10t13 16q8 12 39 51t43 57zM346 1290q0 -29 29 -44q189 -98 289 -126q18 -6 46 -23t44 -24q118 -39 152 -39t75 29q125 88 143 98q25 0 29 -6q4 -17 1 -37q-8 -53 25 -70q35 -16 107 -54t102 -53
t35 -47q6 -32 -12 -54q-123 -139 -199 -201q-6 -8 -6 -21q-52 -67 -135 -141q-84 -74 -123 -102q-14 -19 -3 -75t24 -67q70 -41 98 -67q82 -57 143 -41q53 23 158 78h21q14 -39 -19 -62q-10 -4 -39 -13q-29 -8 -41 -20t-32 -30t-31 -29q-137 -80 -193 -125q-20 -14 -76 -2
q-28 10 -76 38t-94 48t-70 44q-24 26 -65 43t-81 2t-123 -91q-18 -8 -41 -28q-22 -20 -46 -31q-24 -12 -51 4q-137 96 -229 141q-14 6 -14 41q4 14 19 40q15 25 16 55t10 201t4 294l-27 68q-9 40 32 52t62 15q21 2 35 16q68 20 82 30t13 26t-13 28q-106 59 -186 68
q-29 12 -41 18q-14 12 -10 28t38 52q35 35 66 74q54 96 76 126t53 54t35 23q16 -8 18 -8q18 -28 7 -64q-11 -35 -11 -39z" />
    <glyph glyph-name="acute" unicode="&#xb4;" horiz-adv-x="720" 
d="M571 1513q4 -39 -30 -75q-10 -10 -34 -32t-32 -32t-35 -50t-42 -55t-50 -59t-49 -57l-18 -27q-7 -20 -18 -25t-15 -9q-35 -35 -61 -17q-44 31 49 139q4 6 4 17q4 6 11 21q16 34 32 34q-2 8 11 29t17 39q3 18 15 28t24 39l21 15q12 63 26 63q8 8 18 32q9 24 17 32
q24 15 68 3t71 -53z" />
    <glyph glyph-name="mu" unicode="&#xb5;" horiz-adv-x="1748" 
d="M489 940q-63 0 -63 -22q-20 -37 -24 -110t-15 -103q-6 -39 16 -97v-190q6 -16 1 -58t-5 -59q16 -66 117 -96q61 -14 158 57q14 14 14 29l17 409q7 45 -7 118t-71 81q-35 3 -80 20q-44 17 -58 21zM1315 421q0 24 4 36q18 131 -16 348q0 37 -29 53q-75 53 -103 33
q-4 -2 -54 -24t-70 -38q-27 -31 -27 -55q6 -210 -7 -284q-30 -173 27 -244q20 -31 62 -37t76 18q8 8 39 35t44 39q54 50 54 120zM1153 -471q-4 0 -16 8q-29 20 6 55q8 12 26 26t23 17q29 59 34 79t36 73q31 54 35 92q5 37 8 47q20 41 20 47q-18 207 -45 269q-26 -4 -56 -48
t-38 -51q-73 -43 -104 -76q-71 -77 -107 -118q-47 -33 -90 0q-152 133 -264 188q-54 -20 -85 -45q-32 -26 -63 -52t-43 -36t-49 -27q-6 -4 -12 -14t-15 -14h-35q-53 35 -70 53t-40 41l-35 35q-10 10 -44 25t-46 36q-29 41 -23 62q39 72 41 82q23 393 24 427t-7 74l6 21
q-4 26 -26 45q-21 20 -23 22v21q30 40 48 48q49 23 95 46q45 23 153 95t128 85q45 -19 77 -36q81 -42 123 -25q17 4 21 29q4 24 6 28q31 61 18 123q-2 4 -6 16t-8 19l-6 82q-2 6 -17 45q-31 80 8 83q11 1 13 3q7 -10 19 -57q20 -81 108 -41q10 4 30 15t29 15q47 39 117 64
q20 0 21 -6l-4 -97q-9 -41 -15 -123t-12 -124l8 -50q-6 -20 -6 -131q-10 -41 23 -73q20 -4 33 -7t40 16t44 37t76 58q59 41 114 90q60 41 85 25t48 -52t33 -46q16 -13 69 -47t76 -62q24 -37 8 -53q-5 -2 -23 -10t-18 -19q-28 -94 -19 -342q3 -86 3 -96l2 -201q0 -18 19 -49
t21 -40t-1 -15q-4 -6 -2 -11q-309 -350 -363 -418t-65 -74q-10 -7 -15 -9q-6 -8 -18 -31t-24 -32q-13 -9 -17 -9z" />
    <glyph glyph-name="paragraph" unicode="&#xb6;" horiz-adv-x="1683" 
d="M1257 -248q20 0 33 29q23 59 19 180q-10 51 -10 378q1 327 1 378q28 149 21 326q-8 178 -6 239v82l6 20q-10 25 -5 44q15 55 -17 75q-61 38 -117 -10q-22 -16 -23 -119q-2 -102 -7 -144t-1 -135t2 -139q4 -178 16 -219q0 -20 -6 -28v-68q2 -43 2 -119q20 -178 -2 -446
q0 -86 -18 -117q-10 -47 -2 -78t28 -80q19 -49 86 -49zM1559 -328q-104 0 -150 6l-14 -6q-36 24 -156 22q-119 -3 -161 1t-136 11t-145 22q-225 78 -377 276q-9 9 -21 14q-8 14 -54 80t-61 114q-14 48 -29 71t-17 30v21q-41 84 -50 172l7 26q-23 193 35 378t190 321
q8 6 8 20l94 84q14 0 47 30t76 52q41 22 87 46t65 34q20 6 55 6q92 29 143 37q68 16 188 22q121 6 169 9q48 4 168 2t178 2q12 8 47 5t49 -11v-21q-68 -16 -190 -22t-174 -15q-4 -4 -12 -11t-13 -14q-6 -7 -10 -33q-8 -49 2 -67q0 -14 -5 -58t-1 -110t2 -345q-2 -280 8 -388
q-16 -43 -8 -155t4 -156q-6 -14 -6 -41l18 -101q0 -15 -4 -50l-19 -166q17 -97 159 -78q46 6 63 -2q20 0 34 8q63 8 146 -12q2 -2 12 -10t15 -11q6 -10 2 -23q-3 -14 -17 -20t-82 -6q-55 10 -159 10z" />
    <glyph glyph-name="periodcentered" unicode="&#xb7;" horiz-adv-x="604" 
d="M303 369h-27q-61 57 -98 114q-88 72 -104 123q-6 4 -1 20t13 21q100 70 158 148q55 55 93 32t98 -88q59 -65 79 -86q25 -35 0 -84q-30 -37 -94 -95t-82 -82t-35 -23z" />
    <glyph glyph-name="cedilla" unicode="&#xb8;" horiz-adv-x="704" 
d="M74 -233q-14 0 -21 12q-6 12 -2 28q23 39 34 44t60 21t72 34q15 8 105 72t90 75l53 -6q22 -22 15 -38q-8 -17 -24 -26t-44 -34t-43 -35q8 -14 40 -39t35 -43q16 -39 24 -56q47 -107 7 -171q-16 -12 -41 -13q-20 -8 -61 -36q-18 -16 -73 -74t-112 -86q-47 -10 -85 1
t-46 38q-27 78 19 125h78q49 0 94 28q0 4 5 24t8 40q3 21 2 31t-2 26t-12 25q-11 8 -79 55q-18 6 -50 -8t-46 -14z" />
    <glyph glyph-name="ordmasculine" unicode="&#xba;" horiz-adv-x="786" 
d="M307 957q0 -28 58 -54h14q8 -2 21 -8t28 -11t33 11q26 195 16 373q0 20 -24 39q-12 4 -34 16q-80 44 -102 25q-13 -78 -12 -220q2 -143 2 -171zM106 1118q0 113 5 158q0 12 -12 42q-11 30 -10 41t9 23q74 31 92 50q28 5 45 15q17 11 24 15q20 11 60 54l19 18q25 25 57 10
q125 -78 189 -104q37 -8 59 -19q55 -8 57 -22q9 -28 0 -54q-10 -26 -12 -38q-10 -101 -9 -233t6 -140t14 -18q32 -37 14 -48q-39 -24 -116 -66t-99 -58t-38 -30q-15 -15 -26 -22h-22q-66 25 -138 66q-59 27 -192 73q-6 6 -6 11q25 74 22 102q8 61 8 174z" />
    <glyph glyph-name="guillemotright" unicode="&#xbb;" horiz-adv-x="905" 
d="M471 463q0 -16 -8 -19q-55 -55 -76 -86t-70 -77q-10 -13 -19 -27q-8 -14 -20 -26t-25 -22t-25 -24t-21 -24l-21 -21q-2 -2 -10 -2t-24 12q-12 13 -4 27t20 43q13 29 25 45t20 30t26 41q18 28 24 46q10 28 27 44q17 17 16 37t-22 39q-21 18 -31 43t-36 67q-25 43 -33 59
t-16 28t-14 24t-13 23q-6 20 9 33q20 10 30 10t31 -33q22 -33 67 -77q46 -44 58 -58q12 -12 20 -26t20 -26t25 -24q11 -10 23 -22t23 -20t17 -14t7 -23zM801 460q0 -17 -2 -20l-99 -106q-12 -12 -23 -26t-24 -29l-45 -50q-10 -10 -23 -21q-13 -10 -25 -24t-23 -24
q-12 -10 -23 -21h-2l-6 2q-23 0 -27 2q-16 16 -10 31q37 68 59 95q21 27 34 53q13 27 28 51q16 23 21 33t21 24q15 14 13 33t-18 34q-15 15 -23 28t-18 27q-21 28 -44 75q-24 47 -44 74q-21 28 -29 40q-4 12 14 27q21 12 23 12t6 -4l49 -53q67 -53 101 -96t46 -57t27 -23
t25 -21t19 -23t15 -19t7 -24z" />
    <glyph glyph-name="questiondown" unicode="&#xbf;" horiz-adv-x="870" 
d="M475 680q-12 23 -63 89t-51 108q2 19 40 38q57 29 107 75q49 46 74 63q37 20 59 -20q21 -40 71 -102t64 -83q14 -35 2 -55q-25 -27 -77 -66t-66 -51q-51 -57 -82 -58l-14 -6q-1 2 -13 8t-17 18q-5 13 -34 42zM221 -500q0 94 -2 103q-23 61 -49 116v27q-4 4 -9 16t-12 20
t-15 33q-7 26 -13 35q-27 50 -17 138q6 53 82 116q41 29 68 37q17 1 33 25t22 31q18 14 71 54t82 68q28 28 36 32q8 3 23 10t54 -14q40 -22 69 -59q28 -36 34 -44t28 -37t23 -33q20 -31 -25 -61t-84 -82q-38 -53 -54 -69t-42 -12t-40 21q-15 17 -54 65q-40 48 -66 70t-61 35
q-31 0 -35 -8q-30 -80 19 -216q16 -44 18 -52l2 -47q7 -14 27 -46t23 -46t-1 -52q-12 -45 -60 -106q-49 -60 -63 -82q-12 12 -12 14z" />
    <glyph glyph-name="Agrave" unicode="&#xc0;" horiz-adv-x="1282" 
d="M709 1497q-29 -23 -64 12q-4 4 -14 9t-19 26q-18 20 -18 27q-14 12 -49 56q-35 43 -50 59t-42 56q-36 54 -67 82q-68 63 -64 107q27 41 72 53t67 -4q8 -8 17 -32t28 -39q8 -14 16 -56q12 -14 21 -14q12 -29 23 -39q12 -10 16 -26t6 -20t13 -23q11 -18 9 -27q17 0 28 -24
t15 -31q0 -10 4 -17q31 -37 53 -79t-1 -56zM500 285q8 0 24 -6t27 0q49 0 108 77q20 35 22 104q1 69 5 89l-8 26q16 166 12 195q-20 49 -28 53t-14 -2t-12 -17q-7 -11 -15 -16q-4 -35 -38 -86t-42 -71q-80 -76 -150 -203v-41q5 -6 15 -19t14 -22q6 -4 20 -17t33 -29t27 -15z
M303 862q49 0 49 52q0 30 -19 75t-37 68q-17 23 -58 71q-37 37 -68 27q-10 -2 -47 -22q-37 -19 -61 -11t-27 36q-5 67 93 148q38 30 108 78v13q66 70 102 71q16 0 49 -14q57 -51 174 -205q12 -20 40 -83t65 -101q10 -10 25 -1t24 21q4 12 12 44t27 67q23 29 102 154
q6 8 22 23q15 15 19 26v12q17 27 60 67t54 51t24 13t18 -4q29 -41 2 -131q-4 -33 -20 -74q-17 -41 -21 -61t-14 -66q-10 -45 -11 -69q0 -88 2 -129q-33 -240 -32 -290t-3 -191q-4 -142 15 -175q8 -33 55 -47q10 0 18 8t9 19q18 209 18 215q-4 117 -4 350t-4 352q14 23 23 71
t18 66l-2 21q39 94 82 133q10 8 30 8t25 -8q25 -47 -18 -137t-47 -117t-18 -114t-16 -159q-2 -71 -24 -734q0 -35 21 -56q7 -2 23 -2t31 14t28 23q8 -6 14 -6l6 8q27 -38 2 -63q-18 -14 -79 -57t-93 -89q-25 -8 -108 -78q-31 -20 -62 7q-16 18 -77 77t-89 112q-29 52 -98 62
q-20 0 -49 -28q-20 -29 -82 -99t-88 -116q-20 -29 -58 -25t-59 37q-76 102 -131 143q-14 11 -45 7t-39 6q-14 35 -8 49q29 39 78 86t84 81q90 88 116 181q10 27 -13 40q-73 40 -214 5q-20 0 -36 17q-15 17 -4 38t41 69t54 86t121 54z" />
    <glyph glyph-name="Aacute" unicode="&#xc1;" horiz-adv-x="1282" 
d="M977 1931q3 -41 -31 -75q-10 -10 -34 -32t-32 -32t-34 -50q-27 -40 -42 -55t-50 -59t-49 -57l-19 -27q-8 -22 -18 -26t-15 -9q-35 -35 -63 -12q-39 24 51 135q4 6 4 17q4 6 13 25q14 30 30 30q-2 9 11 31q14 23 18 39t15 26t24 39l20 14q12 64 27 64q8 8 17 32
q20 52 75 38q55 -15 82 -56zM500 285q8 0 24 -6t27 0q49 0 108 77q20 35 22 104q1 69 5 89l-8 26q16 166 12 195q-20 49 -28 53t-14 -2t-12 -17q-7 -11 -15 -16q-4 -35 -38 -86t-42 -71q-80 -76 -150 -203v-41q5 -6 15 -19t14 -22q6 -4 20 -17t33 -29t27 -15zM303 862
q49 0 49 52q0 30 -19 75t-37 68q-17 23 -58 71q-37 37 -68 27q-10 -2 -47 -22q-37 -19 -61 -11t-27 36q-5 67 93 148q38 30 108 78v13q66 70 102 71q16 0 49 -14q57 -51 174 -205q12 -20 40 -83t65 -101q10 -10 25 -1t24 21q4 12 12 44t27 67q23 29 102 154q6 8 22 23
q15 15 19 26v12q17 27 60 67t54 51t24 13t18 -4q29 -41 2 -131q-4 -33 -20 -74q-17 -41 -21 -61t-14 -66q-10 -45 -11 -69q0 -88 2 -129q-33 -240 -32 -290t-3 -191q-4 -142 15 -175q8 -33 55 -47q10 0 18 8t9 19q18 209 18 215q-4 117 -4 350t-4 352q14 23 23 71t18 66
l-2 21q39 94 82 133q10 8 30 8t25 -8q25 -47 -18 -137t-47 -117t-18 -114t-16 -159q-2 -71 -24 -734q0 -35 21 -56q7 -2 23 -2t31 14t28 23q8 -6 14 -6l6 8q27 -38 2 -63q-18 -14 -79 -57t-93 -89q-25 -8 -108 -78q-31 -20 -62 7q-16 18 -77 77t-89 112q-29 52 -98 62
q-20 0 -49 -28q-20 -29 -82 -99t-88 -116q-20 -29 -58 -25t-59 37q-76 102 -131 143q-14 11 -45 7t-39 6q-14 35 -8 49q29 39 78 86t84 81q90 88 116 181q10 27 -13 40q-73 40 -214 5q-20 0 -36 17q-15 17 -4 38t41 69t54 86t121 54z" />
    <glyph glyph-name="Acircumflex" unicode="&#xc2;" horiz-adv-x="1282" 
d="M973 1614q-29 -23 -64 12l-51 62q-14 12 -49 56t-44 53l-19 19q-16 16 -23 36t-27 37t-26 26q-57 -64 -86 -108t-33 -50q-17 -14 -35 -41t-33 -39l-18 -26q-8 -23 -18 -27q-11 -4 -15 -8q-35 -35 -63 -12q-39 27 45 122q14 23 14 35q4 6 10 22q11 27 29 27q-2 8 9 26
t11 22q17 25 47 83t36 70t12 12q8 7 18 27t18 29q4 2 23 20t31 19q12 0 55 -29q8 -7 13 -27t27 -44t26 -42q18 -43 43 -63q6 -7 10 -23t11 -34t38 -48q4 -6 11 -21t12 -22q0 -10 4 -16q30 -37 52 -79t-1 -56zM500 285q8 0 24 -6t27 0q49 0 108 77q20 35 22 104q1 69 5 89
l-8 26q16 166 12 195q-20 49 -28 53t-14 -2t-12 -17q-7 -11 -15 -16q-4 -35 -38 -86t-42 -71q-80 -76 -150 -203v-41q5 -6 15 -19t14 -22q6 -4 20 -17t33 -29t27 -15zM303 862q49 0 49 52q0 30 -19 75t-37 68q-17 23 -58 71q-37 37 -68 27q-10 -2 -47 -22q-37 -19 -61 -11
t-27 36q-5 67 93 148q38 30 108 78v13q66 70 102 71q16 0 49 -14q57 -51 174 -205q12 -20 40 -83t65 -101q10 -10 25 -1t24 21q4 12 12 44t27 67q23 29 102 154q6 8 22 23q15 15 19 26v12q17 27 60 67t54 51t24 13t18 -4q29 -41 2 -131q-4 -33 -20 -74q-17 -41 -21 -61
t-14 -66q-10 -45 -11 -69q0 -88 2 -129q-33 -240 -32 -290t-3 -191q-4 -142 15 -175q8 -33 55 -47q10 0 18 8t9 19q18 209 18 215q-4 117 -4 350t-4 352q14 23 23 71t18 66l-2 21q39 94 82 133q10 8 30 8t25 -8q25 -47 -18 -137t-47 -117t-18 -114t-16 -159q-2 -71 -24 -734
q0 -35 21 -56q7 -2 23 -2t31 14t28 23q8 -6 14 -6l6 8q27 -38 2 -63q-18 -14 -79 -57t-93 -89q-25 -8 -108 -78q-31 -20 -62 7q-16 18 -77 77t-89 112q-29 52 -98 62q-20 0 -49 -28q-20 -29 -82 -99t-88 -116q-20 -29 -58 -25t-59 37q-76 102 -131 143q-14 11 -45 7t-39 6
q-14 35 -8 49q29 39 78 86t84 81q90 88 116 181q10 27 -13 40q-73 40 -214 5q-20 0 -36 17q-15 17 -4 38t41 69t54 86t121 54z" />
    <glyph glyph-name="Atilde" unicode="&#xc3;" horiz-adv-x="1282" 
d="M696 1638l-118 13l-76 4q-30 -1 -43 -19t-21 -34l-12 -24q-4 -9 -6 -14t-6 -13t-29 -1q-20 57 -17 81q3 23 14 53t71 153q21 37 60 37l73 -6q36 -2 68 -7t81 -11t72 -5q22 2 59 -2t57 11q19 15 46 57q8 31 18 33q20 4 33 -15l6 -4q23 -41 -20 -129q-4 -6 -28 -61t-38 -73
t-32 -26q-18 -6 -58 -2q-53 0 -154 4zM500 285q8 0 24 -6t27 0q49 0 108 77q20 35 22 104q1 69 5 89l-8 26q16 166 12 195q-20 49 -28 53t-14 -2t-12 -17q-7 -11 -15 -16q-4 -35 -38 -86t-42 -71q-80 -76 -150 -203v-41q5 -6 15 -19t14 -22q6 -4 20 -17t33 -29t27 -15z
M303 862q49 0 49 52q0 30 -19 75t-37 68q-17 23 -58 71q-37 37 -68 27q-10 -2 -47 -22q-37 -19 -61 -11t-27 36q-5 67 93 148q38 30 108 78v13q66 70 102 71q16 0 49 -14q57 -51 174 -205q12 -20 40 -83t65 -101q10 -10 25 -1t24 21q4 12 12 44t27 67q23 29 102 154
q6 8 22 23q15 15 19 26v12q17 27 60 67t54 51t24 13t18 -4q29 -41 2 -131q-4 -33 -20 -74q-17 -41 -21 -61t-14 -66q-10 -45 -11 -69q0 -88 2 -129q-33 -240 -32 -290t-3 -191q-4 -142 15 -175q8 -33 55 -47q10 0 18 8t9 19q18 209 18 215q-4 117 -4 350t-4 352q14 23 23 71
t18 66l-2 21q39 94 82 133q10 8 30 8t25 -8q25 -47 -18 -137t-47 -117t-18 -114t-16 -159q-2 -71 -24 -734q0 -35 21 -56q7 -2 23 -2t31 14t28 23q8 -6 14 -6l6 8q27 -38 2 -63q-18 -14 -79 -57t-93 -89q-25 -8 -108 -78q-31 -20 -62 7q-16 18 -77 77t-89 112q-29 52 -98 62
q-20 0 -49 -28q-20 -29 -82 -99t-88 -116q-20 -29 -58 -25t-59 37q-76 102 -131 143q-14 11 -45 7t-39 6q-14 35 -8 49q29 39 78 86t84 81q90 88 116 181q10 27 -13 40q-73 40 -214 5q-20 0 -36 17q-15 17 -4 38t41 69t54 86t121 54z" />
    <glyph glyph-name="Adieresis" unicode="&#xc4;" horiz-adv-x="1282" 
d="M442 1608h-22q-45 43 -80 92q-97 80 -86 117q4 12 12 14q76 53 127 119q41 45 72 30q44 -28 87 -78q42 -48 62 -70t-4 -63q-22 -31 -74 -79t-66 -64q-14 -18 -28 -18zM940 1608h-22q-45 43 -80 92q-97 80 -86 117q4 12 12 14q76 53 127 119q41 45 72 30q44 -28 87 -78
q42 -48 62 -70t-4 -63q-23 -31 -75 -79t-67 -64q-15 -18 -26 -18zM500 285q8 0 24 -6t27 0q49 0 108 77q20 35 22 104q1 69 5 89l-8 26q16 166 12 195q-20 49 -28 53t-14 -2t-12 -17q-7 -11 -15 -16q-4 -35 -38 -86t-42 -71q-80 -76 -150 -203v-41q5 -6 15 -19t14 -22
q6 -4 20 -17t33 -29t27 -15zM303 862q49 0 49 52q0 30 -19 75t-37 68q-17 23 -58 71q-37 37 -68 27q-10 -2 -47 -22q-37 -19 -61 -11t-27 36q-5 67 93 148q38 30 108 78v13q66 70 102 71q16 0 49 -14q57 -51 174 -205q12 -20 40 -83t65 -101q10 -10 25 -1t24 21q4 12 12 44
t27 67q23 29 102 154q6 8 22 23q15 15 19 26v12q17 27 60 67t54 51t24 13t18 -4q29 -41 2 -131q-4 -33 -20 -74q-17 -41 -21 -61t-14 -66q-10 -45 -11 -69q0 -88 2 -129q-33 -240 -32 -290t-3 -191q-4 -142 15 -175q8 -33 55 -47q10 0 18 8t9 19q18 209 18 215
q-4 117 -4 350t-4 352q14 23 23 71t18 66l-2 21q39 94 82 133q10 8 30 8t25 -8q25 -47 -18 -137t-47 -117t-18 -114t-16 -159q-2 -71 -24 -734q0 -35 21 -56q7 -2 23 -2t31 14t28 23q8 -6 14 -6l6 8q27 -38 2 -63q-18 -14 -79 -57t-93 -89q-25 -8 -108 -78q-31 -20 -62 7
q-16 18 -77 77t-89 112q-29 52 -98 62q-20 0 -49 -28q-20 -29 -82 -99t-88 -116q-20 -29 -58 -25t-59 37q-76 102 -131 143q-14 11 -45 7t-39 6q-14 35 -8 49q29 39 78 86t84 81q90 88 116 181q10 27 -13 40q-73 40 -214 5q-20 0 -36 17q-15 17 -4 38t41 69t54 86t121 54z
" />
    <glyph glyph-name="Aring" unicode="&#xc5;" horiz-adv-x="1282" 
d="M797 1661q35 0 48 35t7 76q-24 60 -44 84t-46 32q-12 0 -35 5t-35 1q-35 0 -47 -14q-56 -77 25 -172q43 -47 127 -47zM1061 1776q-3 -25 -31 -41q-28 -15 -34 -21t-7 -16q-2 -10 -4 -12q-27 -16 -97 -82q-155 -148 -278 -134q-11 11 -62 34t-69 46q-23 39 -33 172
q13 59 101 135q39 34 45 41t8 17t6 12q139 162 219 170q66 0 76 -8t49 -39t60 -58q22 -28 26 -42t12 -17q8 -4 7 -8q10 -32 6 -149zM500 285q8 0 24 -6t27 0q49 0 108 77q20 35 22 104q1 69 5 89l-8 26q16 166 12 195q-20 49 -28 53t-14 -2t-12 -17q-7 -11 -15 -16
q-4 -35 -38 -86t-42 -71q-80 -76 -150 -203v-41q5 -6 15 -19t14 -22q6 -4 20 -17t33 -29t27 -15zM303 862q49 0 49 52q0 30 -19 75t-37 68q-17 23 -58 71q-37 37 -68 27q-10 -2 -47 -22q-37 -19 -61 -11t-27 36q-5 67 93 148q38 30 108 78v13q66 70 102 71q16 0 49 -14
q57 -51 174 -205q12 -20 40 -83t65 -101q10 -10 25 -1t24 21q4 12 12 44t27 67q23 29 102 154q6 8 22 23q15 15 19 26v12q17 27 60 67t54 51t24 13t18 -4q29 -41 2 -131q-4 -33 -20 -74q-17 -41 -21 -61t-14 -66q-10 -45 -11 -69q0 -88 2 -129q-33 -240 -32 -290t-3 -191
q-4 -142 15 -175q8 -33 55 -47q10 0 18 8t9 19q18 209 18 215q-4 117 -4 350t-4 352q14 23 23 71t18 66l-2 21q39 94 82 133q10 8 30 8t25 -8q25 -47 -18 -137t-47 -117t-18 -114t-16 -159q-2 -71 -24 -734q0 -35 21 -56q7 -2 23 -2t31 14t28 23q8 -6 14 -6l6 8
q27 -38 2 -63q-18 -14 -79 -57t-93 -89q-25 -8 -108 -78q-31 -20 -62 7q-16 18 -77 77t-89 112q-29 52 -98 62q-20 0 -49 -28q-20 -29 -82 -99t-88 -116q-20 -29 -58 -25t-59 37q-76 102 -131 143q-14 11 -45 7t-39 6q-14 35 -8 49q29 39 78 86t84 81q90 88 116 181
q10 27 -13 40q-73 40 -214 5q-20 0 -36 17q-15 17 -4 38t41 69t54 86t121 54z" />
    <glyph glyph-name="AE" unicode="&#xc6;" horiz-adv-x="2195" 
d="M500 285q8 0 24 -6t27 0q49 0 108 77q20 35 22 104q1 69 5 89l-8 26q16 166 12 195q-20 49 -28 53t-14 -2t-12 -17q-7 -11 -15 -16q-4 -35 -38 -86t-42 -71q-80 -76 -150 -203v-41q5 -6 15 -19t14 -22q6 -4 20 -17t33 -29t27 -15zM1139 1165l-6 -26q0 -12 3 -56t-10 -84
l9 -26l-13 -221q2 -10 18 -20t26 -5q12 5 28 25t38 48t109 116q88 89 129 143l24 24q72 77 30 136h-21q-63 39 -227 114q-8 2 -33 8t-37 11q-10 0 -20 -15q-72 -72 -47 -172zM303 862q49 0 49 52q0 30 -19 75t-37 68q-17 23 -58 71q-37 37 -68 27q-10 -2 -47 -22
q-37 -19 -61 -11t-27 36q-5 67 93 148q38 30 108 78v13q66 70 102 71q16 0 49 -14q57 -51 174 -205q12 -20 40 -83t65 -101q10 -10 25 -1t24 21q4 12 12 44t27 67q23 29 102 154q6 8 22 23q15 15 19 26v12q17 27 60 67t54 51t24 13t18 -4q29 -41 2 -131q-4 -21 -26 -55
q-22 -35 -29 -97q-7 -63 -11 -89t2 -158q-34 -244 -24 -318l-9 -35q-4 -20 2 -56t5 -40q-6 -98 2 -143q12 -33 8 -55q-8 -45 36 -49t44 24q16 186 16 211q-4 117 -4 350t-4 352q14 23 23 71t18 66l-2 21q39 94 82 133q10 8 30 8q38 0 24 -40q-7 -19 -21 -45t-19 -48
q33 16 150 111q99 72 172 22q98 -75 243 -104q54 -11 6 -78q-43 -37 -73 -90q-12 -12 -64 -86t-92 -103q-6 -25 -38 -59t-38 -57q0 -7 10 -15t19 -6q223 -14 295 2q23 -12 8 -61q-4 -7 -11 -19t-9 -16q-39 -131 -80 -172q-10 0 -131 -1t-131 11q-39 4 -104 -6t-89 -10
q-43 -10 -113 -76q-16 -14 -16 -43l-12 -264q0 -10 14 -29q92 -41 236 -61q24 -2 34 -3q15 -1 71 19q57 21 155 76q35 6 93 38t93 40q4 -1 12 -9t9 -21q0 -13 -48 -54h-20q-541 -295 -717 -346q-43 -10 -57 2q-13 12 -61 48q-146 111 -178 168q-32 58 -101 68q-20 0 -49 -28
q-20 -29 -82 -99t-88 -116q-20 -29 -58 -25t-59 37q-76 102 -131 143q-14 11 -45 7t-39 6q-14 35 -8 49q29 39 78 86t84 81q90 88 116 181q10 27 -13 40q-73 40 -214 5q-20 0 -36 17q-15 17 -4 38t41 69t54 86t121 54z" />
    <glyph glyph-name="Ccedilla" unicode="&#xc7;" horiz-adv-x="1419" 
d="M492 891q-6 31 -32 55t-68 -6q-42 -29 -60 -127q-4 -20 -6 -27q-8 -109 65 -200q55 -74 96 -39q13 229 5 344zM760 844v-39q20 -70 5 -122t-51 -81q-36 -28 -87 -54t-76 -48q-16 -22 -4 -44t42 -34t38 -12q23 -10 63 -37q81 -56 137 -49q32 0 38 27t4 52q-1 25 1 43
t2 140q-4 92 6 300t1 318q-12 31 -43 38q-58 13 -60 -107q-6 -33 -4 -109t0 -95t-7 -49t-5 -38zM524 -233q-14 0 -20 12t-2 28q24 39 34 44t73 26t171 109q-55 27 -183 86t-196 94q-68 56 -94 66t-54 39q-27 30 -42 52q-16 21 -69 88q-52 67 -76 131t-15 158q6 39 32 70
t68 65t58 52q227 133 313 196q29 29 41 35q29 29 139 123t162 156q35 12 75 64q40 51 51 61q12 10 22 14t14 8q8 -23 60 -62q14 -11 79 -26q23 0 71 -15t66 -12t22 9q5 6 8 10t7 13t7 12q29 -20 14 -70q-45 -121 -88 -166q-6 -8 -14 -35t-21 -35q-45 -12 -61 -8
q-70 27 -166 47q-43 10 -54 -35q-2 -29 0 -111t-4 -102t-8 -48t-6 -42q-23 -344 -20 -551q0 -23 15 -43t37 -23t92 -19q69 -16 103 -9q27 18 49 29q42 13 123 49q25 9 36 -11t-1 -36q-47 -57 -158 -98l-6 -15q-118 -41 -278 -145l-33 -19q-14 -9 -39 -31t-39 -32
q8 -14 40 -39t42 -53q9 -28 17 -46q46 -105 8 -171q-16 -12 -41 -13q-20 -8 -62 -36q-18 -16 -72 -73t-112 -87q-47 -10 -85 1t-46 38q-27 78 18 125h80q50 0 92 28q0 8 9 42t8 48q-2 15 -3 32t-13 24q-11 8 -78 55q-19 6 -51 -8t-46 -14z" />
    <glyph glyph-name="Egrave" unicode="&#xc8;" horiz-adv-x="1679" 
d="M1298 1612q-29 -23 -63 12q-4 4 -15 9t-18 26q-18 20 -18 27q-14 12 -49 56t-52 58q-21 24 -77 111q-6 5 -30 27t-34 33q-33 36 -31 75q27 41 72 53t68 -4q8 -8 17 -32t28 -40q8 -14 16 -55q12 -14 21 -14q12 -29 23 -39q11 -11 15 -27t18 -38t11 -31q16 -1 28 -25
q11 -24 15 -31q0 -10 4 -16q31 -37 53 -79t-2 -56zM496 616q8 162 -4 338q-16 72 -56 56q-102 -43 -149 -183q-10 -47 2 -88q41 -100 133 -172q20 -20 53 2q9 9 15 27t6 20zM553 478q0 -4 20 -25q13 -5 93 -49t129 -52q33 0 26 56q23 93 21 208t-2 129q16 246 -6 455
q0 18 -14 32t-42 -4q-27 -20 -26 -65q-12 -82 -12 -255t-17 -255q-8 -18 -27 -26q-66 -27 -137 -99q-12 -12 -9 -29t3 -21zM909 1165l-6 -26q0 -12 3 -54t-9 -86l8 -26q-12 -220 -11 -225q1 -6 16 -16q14 -10 26 -5t28 25t38 48t110 116q88 89 129 143q7 8 23 17t18 11
q49 79 12 132h-20q-63 39 -227 114q-8 2 -33 8t-37 11q-10 0 -21 -15q-72 -72 -47 -172zM1579 366q8 -8 8 -21t-47 -54h-20q-380 -218 -611 -330q-41 -14 -102 47q-7 6 -25 16t-32 23q-14 12 -97 41q-6 4 -20 14l-21 15q-8 0 -14 -2q-26 16 -134 84t-171 100
q-173 101 -221 275q-27 98 2 217q18 55 76 112q22 16 82 44t87 54q17 11 55 23q49 15 60 33q12 17 23 20q26 17 69 38t132 87t141 86q49 41 157 116t162 122q68 49 111 42t61 -20q97 -75 244 -104q22 -4 27 -17q6 -23 -21 -61q-43 -37 -74 -90q-12 -14 -62 -75t-101 -99
q-6 -27 -34 -68t-34 -63q0 -7 9 -15t20 -6q223 -14 295 2q23 -12 8 -61q-3 -7 -11 -19t-10 -16q-39 -131 -80 -172q-10 0 -131 -1t-131 11q-40 4 -104 -6t-88 -10q-30 -7 -64 -34q-33 -27 -45 -36q-20 -20 -20 -49l-13 -233q0 -10 15 -29q162 -81 210 -87q48 -7 59 -8t62 15
t164 80q36 6 94 38t93 40q4 -1 12 -9z" />
    <glyph glyph-name="Eacute" unicode="&#xc9;" horiz-adv-x="1679" 
d="M1485 2046q4 -40 -31 -75q-10 -11 -34 -33t-32 -32t-34 -49q-27 -40 -41 -57q-16 -14 -51 -58t-50 -56l-18 -27q-8 -23 -18 -27q-11 -4 -15 -8q-35 -35 -63 -12q-39 24 51 135q4 6 4 16q4 6 12 24t22 28q7 4 9 4q-2 8 9 26q11 19 13 23t7 20q4 16 15 26t24 40l20 14
q12 61 27 64q8 8 17 32t18 31q24 16 68 4t71 -53zM496 616q8 162 -4 338q-16 72 -56 56q-102 -43 -149 -183q-10 -47 2 -88q41 -100 133 -172q20 -20 53 2q9 9 15 27t6 20zM553 478q0 -4 20 -25q13 -5 93 -49t129 -52q33 0 26 56q23 93 21 208t-2 129q16 246 -6 455
q0 18 -14 32t-42 -4q-27 -20 -26 -65q-12 -82 -12 -255t-17 -255q-8 -18 -27 -26q-66 -27 -137 -99q-12 -12 -9 -29t3 -21zM909 1165l-6 -26q0 -12 3 -54t-9 -86l8 -26q-12 -220 -11 -225q1 -6 16 -16q14 -10 26 -5t28 25t38 48t110 116q88 89 129 143q7 8 23 17t18 11
q49 79 12 132h-20q-63 39 -227 114q-8 2 -33 8t-37 11q-10 0 -21 -15q-72 -72 -47 -172zM1579 366q8 -8 8 -21t-47 -54h-20q-380 -218 -611 -330q-41 -14 -102 47q-7 6 -25 16t-32 23q-14 12 -97 41q-6 4 -20 14l-21 15q-8 0 -14 -2q-26 16 -134 84t-171 100
q-173 101 -221 275q-27 98 2 217q18 55 76 112q22 16 82 44t87 54q17 11 55 23q49 15 60 33q12 17 23 20q26 17 69 38t132 87t141 86q49 41 157 116t162 122q68 49 111 42t61 -20q97 -75 244 -104q22 -4 27 -17q6 -23 -21 -61q-43 -37 -74 -90q-12 -14 -62 -75t-101 -99
q-6 -27 -34 -68t-34 -63q0 -7 9 -15t20 -6q223 -14 295 2q23 -12 8 -61q-3 -7 -11 -19t-10 -16q-39 -131 -80 -172q-10 0 -131 -1t-131 11q-40 4 -104 -6t-88 -10q-30 -7 -64 -34q-33 -27 -45 -36q-20 -20 -20 -49l-13 -233q0 -10 15 -29q162 -81 210 -87q48 -7 59 -8t62 15
t164 80q36 6 94 38t93 40q4 -1 12 -9z" />
    <glyph glyph-name="Ecircumflex" unicode="&#xca;" horiz-adv-x="1679" 
d="M1489 1614q-29 -23 -64 12l-51 62q-14 12 -42 47t-53 63q-25 27 -29 32t-12 24q-7 19 -26 35q-20 17 -26 26q-57 -64 -86 -108t-33 -50q-17 -14 -35 -41t-33 -39l-18 -26q-8 -23 -18 -27q-11 -4 -15 -8q-35 -35 -63 -12q-39 27 45 122q14 23 14 35q4 7 9 19q12 30 30 30
q-3 11 18 42t50 94q29 53 35 65t12 12q8 7 18 27t19 29q4 2 22 20t31 19q12 0 55 -29q8 -7 13 -27t27 -44t26 -42q18 -43 43 -63q6 -7 10 -23t11 -34t38 -48q4 -6 11 -21t12 -22q0 -10 4 -16q30 -37 52 -79t-1 -56zM496 616q8 162 -4 338q-16 72 -56 56q-102 -43 -149 -183
q-10 -47 2 -88q41 -100 133 -172q20 -20 53 2q9 9 15 27t6 20zM553 478q0 -4 20 -25q13 -5 93 -49t129 -52q33 0 26 56q23 93 21 208t-2 129q16 246 -6 455q0 18 -14 32t-42 -4q-27 -20 -26 -65q-12 -82 -12 -255t-17 -255q-8 -18 -27 -26q-66 -27 -137 -99q-12 -12 -9 -29
t3 -21zM909 1165l-6 -26q0 -12 3 -54t-9 -86l8 -26q-12 -220 -11 -225q1 -6 16 -16q14 -10 26 -5t28 25t38 48t110 116q88 89 129 143q7 8 23 17t18 11q49 79 12 132h-20q-63 39 -227 114q-8 2 -33 8t-37 11q-10 0 -21 -15q-72 -72 -47 -172zM1579 366q8 -8 8 -21t-47 -54
h-20q-380 -218 -611 -330q-41 -14 -102 47q-7 6 -25 16t-32 23q-14 12 -97 41q-6 4 -20 14l-21 15q-8 0 -14 -2q-26 16 -134 84t-171 100q-173 101 -221 275q-27 98 2 217q18 55 76 112q22 16 82 44t87 54q17 11 55 23q49 15 60 33q12 17 23 20q26 17 69 38t132 87t141 86
q49 41 157 116t162 122q68 49 111 42t61 -20q97 -75 244 -104q22 -4 27 -17q6 -23 -21 -61q-43 -37 -74 -90q-12 -14 -62 -75t-101 -99q-6 -27 -34 -68t-34 -63q0 -7 9 -15t20 -6q223 -14 295 2q23 -12 8 -61q-3 -7 -11 -19t-10 -16q-39 -131 -80 -172q-10 0 -131 -1
t-131 11q-40 4 -104 -6t-88 -10q-30 -7 -64 -34q-33 -27 -45 -36q-20 -20 -20 -49l-13 -233q0 -10 15 -29q162 -81 210 -87q48 -7 59 -8t62 15t164 80q36 6 94 38t93 40q4 -1 12 -9z" />
    <glyph glyph-name="Edieresis" unicode="&#xcb;" horiz-adv-x="1679" 
d="M1126 1761q-22 -31 -74 -79t-68 -65t-26 -18h-22q-45 43 -80 93q-98 81 -86 116q4 12 12 15q76 53 127 119q41 45 72 30q40 -26 85 -76q44 -50 64 -72t-4 -63zM1624 1761q-23 -31 -75 -79t-67 -65t-26 -18h-22q-45 43 -80 93q-98 81 -86 116q4 12 12 15q76 53 127 119
q41 45 72 30q40 -26 85 -76q44 -50 64 -72t-4 -63zM496 616q8 162 -4 338q-16 72 -56 56q-102 -43 -149 -183q-10 -47 2 -88q41 -100 133 -172q20 -20 53 2q9 9 15 27t6 20zM553 478q0 -4 20 -25q13 -5 93 -49t129 -52q33 0 26 56q23 93 21 208t-2 129q16 246 -6 455
q0 18 -14 32t-42 -4q-27 -20 -26 -65q-12 -82 -12 -255t-17 -255q-8 -18 -27 -26q-66 -27 -137 -99q-12 -12 -9 -29t3 -21zM909 1165l-6 -26q0 -12 3 -54t-9 -86l8 -26q-12 -220 -11 -225q1 -6 16 -16q14 -10 26 -5t28 25t38 48t110 116q88 89 129 143q7 8 23 17t18 11
q49 79 12 132h-20q-63 39 -227 114q-8 2 -33 8t-37 11q-10 0 -21 -15q-72 -72 -47 -172zM1579 366q8 -8 8 -21t-47 -54h-20q-380 -218 -611 -330q-41 -14 -102 47q-7 6 -25 16t-32 23q-14 12 -97 41q-6 4 -20 14l-21 15q-8 0 -14 -2q-26 16 -134 84t-171 100
q-173 101 -221 275q-27 98 2 217q18 55 76 112q22 16 82 44t87 54q17 11 55 23q49 15 60 33q12 17 23 20q26 17 69 38t132 87t141 86q49 41 157 116t162 122q68 49 111 42t61 -20q97 -75 244 -104q22 -4 27 -17q6 -23 -21 -61q-43 -37 -74 -90q-12 -14 -62 -75t-101 -99
q-6 -27 -34 -68t-34 -63q0 -7 9 -15t20 -6q223 -14 295 2q23 -12 8 -61q-3 -7 -11 -19t-10 -16q-39 -131 -80 -172q-10 0 -131 -1t-131 11q-40 4 -104 -6t-88 -10q-30 -7 -64 -34q-33 -27 -45 -36q-20 -20 -20 -49l-13 -233q0 -10 15 -29q162 -81 210 -87q48 -7 59 -8t62 15
t164 80q36 6 94 38t93 40q4 -1 12 -9z" />
    <glyph glyph-name="Igrave" unicode="&#xcc;" horiz-adv-x="1193" 
d="M653 1497q-29 -23 -63 12q-4 4 -15 10t-18 25q-18 20 -18 27q-14 12 -50 56q-35 43 -50 59t-46 63t-67 79q-64 60 -60 103q27 41 72 53t68 -4q8 -8 18 -33t27 -38q8 -14 16 -56q12 -14 20 -14q11 -29 23 -39t16 -26t6 -20t14 -23q11 -18 9 -27q15 0 27 -24t16 -31
q0 -10 4 -17q30 -37 52 -79t-1 -56zM825 90q0 -28 -26 -90v-20q-27 -56 -74 -101q-68 -64 -233 -158q-14 -14 -21 -14q-53 -35 -117 -69q-14 -6 -57 -14t-66 -21q-23 16 -24 47q-2 31 22 49q141 76 144 78q43 25 69 90l13 6q26 88 41 163t-10 172t-44 126q-94 133 -206 115
q-12 0 -23 10q-10 10 -6 24q10 18 29 27q125 45 155 127q12 72 6 111q-10 43 -75 38q-16 -2 -70 -24t-88 -10v12q31 37 59 57q27 20 69 45t62 39q61 45 135 146q72 104 82 118l35 35q0 2 6 10q19 26 0 37q-4 4 -9 4l-25 -4q-50 -23 -154 -55t-156 -51q-10 10 -40 34l-45 36
q-47 41 -68 79q-26 13 -47 7q-21 -7 -31 -10q-9 -3 -25 -13t-32 -19t-35 -28q-27 -19 -57 -25t-40 17q-13 18 -3 40q9 23 25 33t26 16t27 15q17 8 141 87q124 80 156 98q34 18 64 18t42 -12q92 -121 182 -191q37 -31 110 -12q16 6 72 17t86 32q76 68 150 104l14 -6
q18 -26 8 -61q-35 -82 -108 -305q-10 -37 -10 -112t-11 -138q-10 -63 -6 -357q-4 -80 4 -225q8 -146 8 -174zM1188 1409v-33q-8 -24 -37 -68t-37 -71q-61 -254 -65 -338q0 -4 -19 -49q-10 -43 -8 -123t-2 -118q-4 -37 6 -103t8 -96q-8 -31 8 -82q29 -193 17 -289
q0 -12 3 -60t-7 -85q-12 -20 -39 -32t-51 -3q-4 225 -1 318t0 132t9 72q-27 84 -17 221q0 25 -6 136t11 188q4 39 30 192q4 8 8 20t7 15v21q12 20 25 66t23 58t47 58q36 45 73 53h14z" />
    <glyph glyph-name="Iacute" unicode="&#xcd;" horiz-adv-x="1193" 
d="M930 1931q4 -41 -30 -75q-10 -10 -35 -32q-23 -22 -31 -32t-35 -50t-42 -55t-50 -59t-50 -57l-18 -27q-7 -21 -18 -26q-11 -4 -15 -9q-35 -35 -63 -12q-39 24 51 135q4 6 4 17q4 6 13 25q14 30 30 30q-2 9 11 31q14 23 18 39t15 26t24 39l20 14q12 64 27 64q8 8 17 32
q20 52 75 38q55 -15 82 -56zM825 90q0 -28 -26 -90v-20q-27 -56 -74 -101q-68 -64 -233 -158q-14 -14 -21 -14q-53 -35 -117 -69q-14 -6 -57 -14t-66 -21q-23 16 -24 47q-2 31 22 49q141 76 144 78q43 25 69 90l13 6q26 88 41 163t-10 172t-44 126q-94 133 -206 115
q-12 0 -23 10q-10 10 -6 24q10 18 29 27q125 45 155 127q12 72 6 111q-10 43 -75 38q-16 -2 -70 -24t-88 -10v12q31 37 59 57q27 20 69 45t62 39q61 45 135 146q72 104 82 118l35 35q0 2 6 10q19 26 0 37q-4 4 -9 4l-25 -4q-50 -23 -154 -55t-156 -51q-10 10 -40 34l-45 36
q-47 41 -68 79q-26 13 -47 7q-21 -7 -31 -10q-9 -3 -25 -13t-32 -19t-35 -28q-27 -19 -57 -25t-40 17q-13 18 -3 40q9 23 25 33t26 16t27 15q17 8 141 87q124 80 156 98q34 18 64 18t42 -12q92 -121 182 -191q37 -31 110 -12q16 6 72 17t86 32q76 68 150 104l14 -6
q18 -26 8 -61q-35 -82 -108 -305q-10 -37 -10 -112t-11 -138q-10 -63 -6 -357q-4 -80 4 -225q8 -146 8 -174zM1188 1409v-33q-8 -24 -37 -68t-37 -71q-61 -254 -65 -338q0 -4 -19 -49q-10 -43 -8 -123t-2 -118q-4 -37 6 -103t8 -96q-8 -31 8 -82q29 -193 17 -289
q0 -12 3 -60t-7 -85q-12 -20 -39 -32t-51 -3q-4 225 -1 318t0 132t9 72q-27 84 -17 221q0 25 -6 136t11 188q4 39 30 192q4 8 8 20t7 15v21q12 20 25 66t23 58t47 58q36 45 73 53h14z" />
    <glyph glyph-name="Icircumflex" unicode="&#xce;" horiz-adv-x="1193" 
d="M958 1614q-29 -23 -63 12l-51 62q-14 12 -38 43t-54 62q-29 32 -33 37t-9 19q-4 13 -10 21t-22 22t-23 23q-51 -57 -83 -104q-32 -48 -35 -54q-17 -14 -35 -41t-33 -39l-18 -26q-7 -22 -18 -26q-11 -5 -15 -9q-35 -35 -64 -12q-39 27 45 122q14 23 15 35q4 7 9 19
q12 30 30 30q-2 8 9 26t11 22q18 25 47 88q42 77 47 77q9 7 19 27t18 29q4 2 23 20t31 19q11 0 55 -29q8 -7 13 -27q4 -20 26 -44t26 -42q18 -43 43 -63q6 -6 13 -36t47 -69q4 -6 11 -21t11 -22q0 -10 4 -16q31 -37 53 -79t-2 -56zM825 90q0 -28 -26 -90v-20
q-27 -56 -74 -101q-68 -64 -233 -158q-14 -14 -21 -14q-53 -35 -117 -69q-14 -6 -57 -14t-66 -21q-23 16 -24 47q-2 31 22 49q141 76 144 78q43 25 69 90l13 6q26 88 41 163t-10 172t-44 126q-94 133 -206 115q-12 0 -23 10q-10 10 -6 24q10 18 29 27q125 45 155 127
q12 72 6 111q-10 43 -75 38q-16 -2 -70 -24t-88 -10v12q31 37 59 57q27 20 69 45t62 39q61 45 135 146q72 104 82 118l35 35q0 2 6 10q19 26 0 37q-4 4 -9 4l-25 -4q-50 -23 -154 -55t-156 -51q-10 10 -40 34l-45 36q-47 41 -68 79q-26 13 -47 7q-21 -7 -31 -10
q-9 -3 -25 -13t-32 -19t-35 -28q-27 -19 -57 -25t-40 17q-13 18 -3 40q9 23 25 33t26 16t27 15q17 8 141 87q124 80 156 98q34 18 64 18t42 -12q92 -121 182 -191q37 -31 110 -12q16 6 72 17t86 32q76 68 150 104l14 -6q18 -26 8 -61q-35 -82 -108 -305q-10 -37 -10 -112
t-11 -138q-10 -63 -6 -357q-4 -80 4 -225q8 -146 8 -174zM1188 1409v-33q-8 -24 -37 -68t-37 -71q-61 -254 -65 -338q0 -4 -19 -49q-10 -43 -8 -123t-2 -118q-4 -37 6 -103t8 -96q-8 -31 8 -82q29 -193 17 -289q0 -12 3 -60t-7 -85q-12 -20 -39 -32t-51 -3q-4 225 -1 318
t0 132t9 72q-27 84 -17 221q0 25 -6 136t11 188q4 39 30 192q4 8 8 20t7 15v21q12 20 25 66t23 58t47 58q36 45 73 53h14z" />
    <glyph glyph-name="Idieresis" unicode="&#xcf;" horiz-adv-x="1193" 
d="M504 1761q-23 -31 -75 -79q-53 -48 -67 -65t-26 -18h-23q-45 43 -80 93q-98 81 -86 116q4 12 13 15q76 53 127 119q41 46 69 30q43 -24 87 -76q45 -50 65 -72t-4 -63zM1001 1761q-23 -31 -75 -79t-66 -65q-16 -17 -26 -18h-23q-45 43 -80 93q-98 81 -86 116q4 12 12 15
q76 53 127 119q41 45 72 30q40 -26 85 -76q43 -50 63 -72t-3 -63zM825 90q0 -28 -26 -90v-20q-27 -56 -74 -101q-68 -64 -233 -158q-14 -14 -21 -14q-53 -35 -117 -69q-14 -6 -57 -14t-66 -21q-23 16 -24 47q-2 31 22 49q141 76 144 78q43 25 69 90l13 6q26 88 41 163
t-10 172t-44 126q-94 133 -206 115q-12 0 -23 10q-10 10 -6 24q10 18 29 27q125 45 155 127q12 72 6 111q-10 43 -75 38q-16 -2 -70 -24t-88 -10v12q31 37 59 57q27 20 69 45t62 39q61 45 135 146q72 104 82 118l35 35q0 2 6 10q19 26 0 37q-4 4 -9 4l-25 -4
q-50 -23 -154 -55t-156 -51q-10 10 -40 34l-45 36q-47 41 -68 79q-26 13 -47 7q-21 -7 -31 -10q-9 -3 -25 -13t-32 -19t-35 -28q-27 -19 -57 -25t-40 17q-13 18 -3 40q9 23 25 33t26 16t27 15q17 8 141 87q124 80 156 98q34 18 64 18t42 -12q92 -121 182 -191
q37 -31 110 -12q16 6 72 17t86 32q76 68 150 104l14 -6q18 -26 8 -61q-35 -82 -108 -305q-10 -37 -10 -112t-11 -138q-10 -63 -6 -357q-4 -80 4 -225q8 -146 8 -174zM1188 1409v-33q-8 -24 -37 -68t-37 -71q-61 -254 -65 -338q0 -4 -19 -49q-10 -43 -8 -123t-2 -118
q-4 -37 6 -103t8 -96q-8 -31 8 -82q29 -193 17 -289q0 -12 3 -60t-7 -85q-12 -20 -39 -32t-51 -3q-4 225 -1 318t0 132t9 72q-27 84 -17 221q0 25 -6 136t11 188q4 39 30 192q4 8 8 20t7 15v21q12 20 25 66t23 58t47 58q36 45 73 53h14z" />
    <glyph glyph-name="Eth" unicode="&#xd0;" horiz-adv-x="1822" 
d="M686 1110l-2 17q0 3 -5 7t-8 6q-3 3 -11 5q-9 2 -15 4t-8 2l-35 -6q-68 8 -147 8q-11 -8 -31 -14t-43 -21t-27 -16q-24 -24 -68 -50t-71 -28q-51 0 -57 4q-33 37 6 67t121 74q-109 2 -168 46t-62 122q0 39 47 90q8 6 9 21q45 86 163 51q18 -4 52 -23t45 -24
q47 -12 164 -26t124 -15l82 59q2 0 41 24t47 33t40 27t36 21q10 16 48 18t46 -30q6 -20 -35 -63q-42 -42 -64 -54t-36 -20l-28 -16q-14 -7 -13 -11q25 -4 103 7t116 5t98 -12q60 -7 82 -13t53 -19q29 -13 49 -14t60 -14q104 -73 169 -141t83 -160q0 -6 10 -16t15 -32
q4 -22 18 -81q5 -51 17 -150t20 -153q-10 -43 -5 -81q14 -104 -34 -154q-42 -60 -195 -156t-261 -186h-15q-10 -6 -41 -29t-49 -30t-28 -17q-10 -9 -30 -23t-76 -15t-174 49t-144 59h-29q-51 25 -178 73t-195 86q-92 66 -119 103q-88 172 -65 303q8 49 61 90q14 0 21 6
q55 45 96 70q10 8 24 30t26 29q13 7 48 25q34 18 52 30t82 68t107 78q42 20 77 69q14 14 14 27zM498 717q14 100 -64 108q-47 4 -61 -20q-73 -99 -53 -203q12 -64 52 -109q42 -46 93 -32q29 57 30 146q1 90 3 110zM901 954q20 96 -16 158q-15 31 -63 29t-68 -17
q5 -104 -23 -440q-8 -90 -115 -154v-12q-4 -4 -26 -20q-59 -42 -62 -84q3 -30 43 -47q39 -17 47 -21t20 -9t26 -13t24 -13q127 -43 152 -45q6 -4 15 9t5 32v35q16 98 17 330v55q6 18 4 57t0 54q6 14 20 116zM1364 223q45 70 48 219q1 50 7 90t-12 99q-7 18 -27 24t-32 -3
t-37 -22t-35 -22q-84 -43 -194 -83t-134 -79q-39 -61 -26 -180q2 -35 34 -55t76 -18q18 -3 51 -23q79 -47 129 -31q98 10 152 84zM1346 854q-12 0 -17 -4q-63 -18 -147 -65t-140 -75t-84 -51q-23 -37 -18 -90q8 -49 61 -32q41 18 123 60t106 52q24 9 40 21q14 12 18 14l29 6
q41 12 64 46t7 64t-24 50q-6 4 -18 4zM1315 891q29 88 -64 158q-143 90 -270 71q-27 -4 -27 -26q-14 -244 -5 -314t118 -14q5 2 27 13t101 50t120 62z" />
    <glyph glyph-name="Ntilde" unicode="&#xd1;" horiz-adv-x="1779" 
d="M877 1638l-119 13l-76 4q-30 -1 -43 -19t-21 -34l-12 -24q-4 -9 -6 -14q-6 -16 -11 -17t-24 3q-20 57 -17 81q3 23 15 53t70 153q21 37 60 37l73 -6q35 -2 68 -7q34 -5 70 -9t56 -6q20 -1 35 0q13 1 51 -3t57 11t46 57q8 31 18 33q20 4 33 -15l6 -4q23 -41 -20 -129
q-4 -6 -28 -61t-38 -73t-31 -26q-17 -6 -59 -2q-53 0 -153 4zM1276 823q-27 115 -98 115q-29 6 -103 -43l-20 -21q-47 -18 -88 -63q-19 -13 -61 -31t-62 -30q-51 -43 -62 -113q0 -25 12 -45t36 -18t124 38q30 14 92 56t86 52q24 11 54 19q29 7 39 17t34 25t17 42zM1096 1000
q0 32 -35 67q-47 33 -73 67q-25 34 -44 59t-51 79q-31 31 -76 20q-13 0 -18 -16t-11 -25q-2 -31 -2 -165t-6 -207q-12 -51 41 -62q141 84 248 133q27 18 27 50zM1722 242q35 -10 35 -39t-11 -48q-11 -20 -22 -24q-47 -14 -67 -27q-14 -16 -76 -49q-51 -55 -88 -78
q-43 -13 -56 1t-55 60t-66 58q-26 12 -46 16t-78 27q-58 22 -100 13q-8 -2 -30 -6t-34 -9q-23 -1 -40 15t-7 41q25 49 94 83q106 31 152 119q2 4 39 73q79 145 32 224q-8 6 -49 6l-40 -16q-30 -12 -43 -18l-39 -18q-47 -20 -117 -75q-14 -10 -46 -20q-37 -12 -61 -30
q-24 -19 -55 -26t-47 -19t-29 -52q0 -25 -5 -155t1 -154q0 -2 -20 -29q-16 -4 -34 1t-22 19q-12 76 19 138l-6 28q4 42 3 176t13 183q0 61 -2 88q-12 98 18 338q-14 14 -6 48t6 42t-5 24t-8 33q-8 29 -38 25q-47 -18 -88 -64q-20 -25 -35 -90q-8 -57 -11 -163t-7 -183
q-4 -76 -3 -294t-1 -351q-175 -207 -326 -350q-35 -34 -53 -52t-49 -30q-14 0 -21 8q-23 53 12 102q104 86 115 222q-1 6 11 34t12 42l-4 63q-10 43 -76 39q-25 0 -35 20v15q27 35 94 90q12 12 27 75q0 117 -35 158q-14 10 -70 27q-8 4 -8 28q10 17 53 59t50 73q29 76 6 172
q-15 50 -78 61q-10 2 -35 6q-17 25 -2 42t31 28q16 12 30 18t54 31q56 34 141 57q98 61 137 78q31 18 53 55q13 13 47 21t44 14q68 47 206 112t154 73q14 8 89 55t138 69q35 0 49 -6t15 -34q-17 -19 -71 -53t-72 -64q52 -82 156 -173q38 -35 63 -71q25 -35 85 -87
q60 -53 74 -71q54 -74 68 -110q2 -12 12 -53q18 -74 24 -127t-14 -103q-67 -26 -142 -84q-75 -59 -89 -69q-4 -8 -14 -22t-13 -19l-14 -9q0 -18 18 -39q18 -22 23 -28q31 -23 90 -47t77 -36q86 -54 124 -58z" />
    <glyph glyph-name="Ograve" unicode="&#xd2;" horiz-adv-x="2011" 
d="M1270 1612q-29 -23 -64 12q-4 4 -15 9t-17 26q-18 20 -19 27q-14 12 -49 56t-50 59t-42 55t-35 51q-8 9 -32 31t-34 33q-34 37 -30 75q27 41 72 53t67 -4q8 -8 17 -31t28 -41q8 -14 16 -55q12 -14 21 -14q12 -29 24 -39t15 -27q4 -17 17 -39t11 -30q16 -1 28 -25
q11 -24 15 -31q0 -9 18 -31t40 -64t-2 -56zM592 862v49q6 13 6 33q-4 12 -5 40t-8 45t-30 20q-84 10 -170 -113q-40 -57 -25 -177q4 -32 7 -44q8 -49 55 -82q12 -3 37 -17t37 -19t38 -9t39 6q20 59 21 131q-8 14 -8 41q11 30 9 60q-3 29 -3 36zM885 1155q0 -17 -7 -27
t-8 -14q-12 -111 -12 -166q-6 -45 -12 -162t-15 -128q-8 -11 -19 -15t-17 -5q-7 -1 -23 -4q-16 -4 -59 -16t-55 -32t-9 -34q2 -14 -1 -29q-3 -16 16 -25q40 -14 124 -60t132 -61q22 23 30 49t9 75q1 48 2 56q12 29 12 35l-6 33q12 45 12 55q-8 29 -8 145q6 35 8 101t4 86
q4 2 0 24l-2 23q16 43 6 69q-2 16 4 46t1 44q-5 13 -4 47t-9 42q-12 16 -43 -8t-37 -57t-10 -52t-4 -35zM1587 481q0 27 3 79t4 86q3 91 -46 151q-36 0 -75 -33q-41 -33 -99 -68t-268 -186q-20 -20 -62 -49q-27 -33 -26 -131q0 -27 43 -58t53 -45q25 -3 62 -33t50 -37
t38 -12q48 -11 99 14q111 54 130 72q76 117 74 201q0 2 20 49zM1028 647l-14 -29q-12 -51 22 -73h21q27 12 79 51t78 51t50 43q25 31 35 39q11 8 45 36t55 32q6 4 45 21t66 45q28 28 18 79q-16 47 -92 74h-27q-80 -37 -164 -125q-12 -8 -54 -43t-89 -55q-10 -7 -28 -25
t-27 -25q-18 -39 -19 -96zM1376 1096q0 23 -16 36t-58 50q-112 99 -198 112q-23 0 -27 -4t-13 -12t-9 -26q0 -19 -13 -89q-2 -29 0 -105t-4 -108q0 -51 21 -96q43 12 106 59t77 55t22 22q6 12 15 18t39 20t44 30q14 15 14 38zM1903 567q2 -37 6 -56t-16 -92q-19 -72 -20 -80
q-1 -9 -15 -28q-80 -51 -206 -101t-172 -62q-44 -12 -79 -34t-47 -26t-34 -5t-32 -5q-178 -88 -252 -107q-29 -12 -43 -20h-41q-37 17 -85 75t-89 74q-6 0 -17 12t-30 21q-19 8 -74 38t-86 44q-68 22 -140 57q-73 34 -93 44t-72 61q-17 8 -36 25q-19 16 -35 29t-35 29
t-47 60v27q-63 150 -2 276v21q27 36 95 68t106 63t100 69t143 81q83 43 113 63t74 57t87 61q44 24 59 38t21 18q14 0 21 6q12 18 54 48t177 120q37 18 84 8q113 -53 207 -108q16 -10 44 -40t34 -35t34 -21t35 -33q14 0 21 -7q94 -70 125 -129q84 -141 119 -245
q33 -120 31 -188q-1 -68 8 -89q0 -33 -7 -47q1 -21 7 -35z" />
    <glyph glyph-name="Oacute" unicode="&#xd3;" horiz-adv-x="2011" 
d="M1182 1931q4 -39 -31 -74q-10 -11 -34 -33t-32 -32q-9 -10 -35 -50t-41 -55t-51 -59t-49 -57l-18 -27q-7 -21 -18 -26q-11 -4 -15 -9q-35 -35 -63 -12q-39 24 51 135q4 6 4 17q4 6 11 21q16 34 32 34q-2 8 11 29t17 39q5 18 16 28t24 39l20 14q12 64 27 64q8 8 17 32
t17 31q23 16 54 9q59 -17 86 -58zM592 862v49q6 13 6 33q-4 12 -5 40t-8 45t-30 20q-84 10 -170 -113q-40 -57 -25 -177q4 -32 7 -44q8 -49 55 -82q12 -3 37 -17t37 -19t38 -9t39 6q20 59 21 131q-8 14 -8 41q11 30 9 60q-3 29 -3 36zM885 1155q0 -17 -7 -27t-8 -14
q-12 -111 -12 -166q-6 -45 -12 -162t-15 -128q-8 -11 -19 -15t-17 -5q-7 -1 -23 -4q-16 -4 -59 -16t-55 -32t-9 -34q2 -14 -1 -29q-3 -16 16 -25q40 -14 124 -60t132 -61q22 23 30 49t9 75q1 48 2 56q12 29 12 35l-6 33q12 45 12 55q-8 29 -8 145q6 35 8 101t4 86q4 2 0 24
l-2 23q16 43 6 69q-2 16 4 46t1 44q-5 13 -4 47t-9 42q-12 16 -43 -8t-37 -57t-10 -52t-4 -35zM1587 481q0 27 3 79t4 86q3 91 -46 151q-36 0 -75 -33q-41 -33 -99 -68t-268 -186q-20 -20 -62 -49q-27 -33 -26 -131q0 -27 43 -58t53 -45q25 -3 62 -33t50 -37t38 -12
q48 -11 99 14q111 54 130 72q76 117 74 201q0 2 20 49zM1028 647l-14 -29q-12 -51 22 -73h21q27 12 79 51t78 51t50 43q25 31 35 39q11 8 45 36t55 32q6 4 45 21t66 45q28 28 18 79q-16 47 -92 74h-27q-80 -37 -164 -125q-12 -8 -54 -43t-89 -55q-10 -7 -28 -25t-27 -25
q-18 -39 -19 -96zM1376 1096q0 23 -16 36t-58 50q-112 99 -198 112q-23 0 -27 -4t-13 -12t-9 -26q0 -19 -13 -89q-2 -29 0 -105t-4 -108q0 -51 21 -96q43 12 106 59t77 55t22 22q6 12 15 18t39 20t44 30q14 15 14 38zM1903 567q2 -37 6 -56t-16 -92q-19 -72 -20 -80
q-1 -9 -15 -28q-80 -51 -206 -101t-172 -62q-44 -12 -79 -34t-47 -26t-34 -5t-32 -5q-178 -88 -252 -107q-29 -12 -43 -20h-41q-37 17 -85 75t-89 74q-6 0 -17 12t-30 21q-19 8 -74 38t-86 44q-68 22 -140 57q-73 34 -93 44t-72 61q-17 8 -36 25q-19 16 -35 29t-35 29
t-47 60v27q-63 150 -2 276v21q27 36 95 68t106 63t100 69t143 81q83 43 113 63t74 57t87 61q44 24 59 38t21 18q14 0 21 6q12 18 54 48t177 120q37 18 84 8q113 -53 207 -108q16 -10 44 -40t34 -35t34 -21t35 -33q14 0 21 -7q94 -70 125 -129q84 -141 119 -245
q33 -120 31 -188q-1 -68 8 -89q0 -33 -7 -47q1 -21 7 -35z" />
    <glyph glyph-name="Ocircumflex" unicode="&#xd4;" horiz-adv-x="2011" 
d="M1513 1614q-29 -23 -63 12l-51 62q-14 12 -38 43t-54 62q-29 32 -33 37t-9 19q-5 13 -11 21t-21 22q-16 14 -23 23q-51 -57 -83 -104q-32 -48 -35 -54q-16 -14 -34 -41t-34 -39l-18 -26q-7 -22 -18 -26q-11 -5 -15 -9q-35 -35 -64 -12q-39 27 45 122q14 23 15 35
q4 7 9 19q12 30 30 30q-2 8 9 26t11 22q18 25 47 88q42 77 47 77q8 7 18 27t19 29q4 2 23 20t31 19q11 0 55 -29q8 -7 13 -27t27 -44t25 -42q18 -43 43 -63q6 -6 13 -36t47 -69q4 -6 11 -21t11 -22q0 -10 4 -16q30 -37 52 -79t-1 -56zM592 862v49q6 13 6 33q-4 12 -5 40
t-8 45t-30 20q-84 10 -170 -113q-40 -57 -25 -177q4 -32 7 -44q8 -49 55 -82q12 -3 37 -17t37 -19t38 -9t39 6q20 59 21 131q-8 14 -8 41q11 30 9 60q-3 29 -3 36zM885 1155q0 -17 -7 -27t-8 -14q-12 -111 -12 -166q-6 -45 -12 -162t-15 -128q-8 -11 -19 -15t-17 -5
q-7 -1 -23 -4q-16 -4 -59 -16t-55 -32t-9 -34q2 -14 -1 -29q-3 -16 16 -25q40 -14 124 -60t132 -61q22 23 30 49t9 75q1 48 2 56q12 29 12 35l-6 33q12 45 12 55q-8 29 -8 145q6 35 8 101t4 86q4 2 0 24l-2 23q16 43 6 69q-2 16 4 46t1 44q-5 13 -4 47t-9 42q-12 16 -43 -8
t-37 -57t-10 -52t-4 -35zM1587 481q0 27 3 79t4 86q3 91 -46 151q-36 0 -75 -33q-41 -33 -99 -68t-268 -186q-20 -20 -62 -49q-27 -33 -26 -131q0 -27 43 -58t53 -45q25 -3 62 -33t50 -37t38 -12q48 -11 99 14q111 54 130 72q76 117 74 201q0 2 20 49zM1028 647l-14 -29
q-12 -51 22 -73h21q27 12 79 51t78 51t50 43q25 31 35 39q11 8 45 36t55 32q6 4 45 21t66 45q28 28 18 79q-16 47 -92 74h-27q-80 -37 -164 -125q-12 -8 -54 -43t-89 -55q-10 -7 -28 -25t-27 -25q-18 -39 -19 -96zM1376 1096q0 23 -16 36t-58 50q-112 99 -198 112
q-23 0 -27 -4t-13 -12t-9 -26q0 -19 -13 -89q-2 -29 0 -105t-4 -108q0 -51 21 -96q43 12 106 59t77 55t22 22q6 12 15 18t39 20t44 30q14 15 14 38zM1903 567q2 -37 6 -56t-16 -92q-19 -72 -20 -80q-1 -9 -15 -28q-80 -51 -206 -101t-172 -62q-44 -12 -79 -34t-47 -26
t-34 -5t-32 -5q-178 -88 -252 -107q-29 -12 -43 -20h-41q-37 17 -85 75t-89 74q-6 0 -17 12t-30 21q-19 8 -74 38t-86 44q-68 22 -140 57q-73 34 -93 44t-72 61q-17 8 -36 25q-19 16 -35 29t-35 29t-47 60v27q-63 150 -2 276v21q27 36 95 68t106 63t100 69t143 81
q83 43 113 63t74 57t87 61q44 24 59 38t21 18q14 0 21 6q12 18 54 48t177 120q37 18 84 8q113 -53 207 -108q16 -10 44 -40t34 -35t34 -21t35 -33q14 0 21 -7q94 -70 125 -129q84 -141 119 -245q33 -120 31 -188q-1 -68 8 -89q0 -33 -7 -47q1 -21 7 -35z" />
    <glyph glyph-name="Otilde" unicode="&#xd5;" horiz-adv-x="2011" 
d="M1196 1638l-119 13l-76 4q-40 -1 -64 -53q-14 -31 -16 -37q-7 -17 -13 -18t-23 3q-20 57 -18 81q3 23 15 53t70 153q21 37 61 37l72 -6q35 -2 68 -7t82 -11t72 -5q22 2 59 -2t56 11t46 57q8 31 21 35q17 0 31 -17l6 -4q23 -41 -21 -129q-3 -6 -27 -61t-38 -73t-32 -26
q-18 -6 -58 -2q-53 0 -154 4zM592 862v49q6 13 6 33q-4 12 -5 40t-8 45t-30 20q-84 10 -170 -113q-40 -57 -25 -177q4 -32 7 -44q8 -49 55 -82q12 -3 37 -17t37 -19t38 -9t39 6q20 59 21 131q-8 14 -8 41q11 30 9 60q-3 29 -3 36zM885 1155q0 -17 -7 -27t-8 -14
q-12 -111 -12 -166q-6 -45 -12 -162t-15 -128q-8 -11 -19 -15t-17 -5q-7 -1 -23 -4q-16 -4 -59 -16t-55 -32t-9 -34q2 -14 -1 -29q-3 -16 16 -25q40 -14 124 -60t132 -61q22 23 30 49t9 75q1 48 2 56q12 29 12 35l-6 33q12 45 12 55q-8 29 -8 145q6 35 8 101t4 86q4 2 0 24
l-2 23q16 43 6 69q-2 16 4 46t1 44q-5 13 -4 47t-9 42q-12 16 -43 -8t-37 -57t-10 -52t-4 -35zM1587 481q0 27 3 79t4 86q3 91 -46 151q-36 0 -75 -33q-41 -33 -99 -68t-268 -186q-20 -20 -62 -49q-27 -33 -26 -131q0 -27 43 -58t53 -45q25 -3 62 -33t50 -37t38 -12
q48 -11 99 14q111 54 130 72q76 117 74 201q0 2 20 49zM1028 647l-14 -29q-12 -51 22 -73h21q27 12 79 51t78 51t50 43q25 31 35 39q11 8 45 36t55 32q6 4 45 21t66 45q28 28 18 79q-16 47 -92 74h-27q-80 -37 -164 -125q-12 -8 -54 -43t-89 -55q-10 -7 -28 -25t-27 -25
q-18 -39 -19 -96zM1376 1096q0 23 -16 36t-58 50q-112 99 -198 112q-23 0 -27 -4t-13 -12t-9 -26q0 -19 -13 -89q-2 -29 0 -105t-4 -108q0 -51 21 -96q43 12 106 59t77 55t22 22q6 12 15 18t39 20t44 30q14 15 14 38zM1903 567q2 -37 6 -56t-16 -92q-19 -72 -20 -80
q-1 -9 -15 -28q-80 -51 -206 -101t-172 -62q-44 -12 -79 -34t-47 -26t-34 -5t-32 -5q-178 -88 -252 -107q-29 -12 -43 -20h-41q-37 17 -85 75t-89 74q-6 0 -17 12t-30 21q-19 8 -74 38t-86 44q-68 22 -140 57q-73 34 -93 44t-72 61q-17 8 -36 25q-19 16 -35 29t-35 29
t-47 60v27q-63 150 -2 276v21q27 36 95 68t106 63t100 69t143 81q83 43 113 63t74 57t87 61q44 24 59 38t21 18q14 0 21 6q12 18 54 48t177 120q37 18 84 8q113 -53 207 -108q16 -10 44 -40t34 -35t34 -21t35 -33q14 0 21 -7q94 -70 125 -129q84 -141 119 -245
q33 -120 31 -188q-1 -68 8 -89q0 -33 -7 -47q1 -21 7 -35z" />
    <glyph glyph-name="Odieresis" unicode="&#xd6;" horiz-adv-x="2011" 
d="M1151 1761q-23 -31 -75 -79t-67 -65t-26 -18h-22q-45 43 -80 93q-98 81 -86 116q4 12 12 15q76 53 127 119q41 45 72 30q40 -26 85 -76q43 -50 63 -72t-3 -63zM1649 1761q-23 -31 -75 -79t-68 -65t-25 -18h-23q-45 43 -80 93q-98 81 -86 116q4 12 13 15q76 53 127 119
q41 45 74 26t80 -71q46 -51 66 -73t-3 -63zM592 862v49q6 13 6 33q-4 12 -5 40t-8 45t-30 20q-84 10 -170 -113q-40 -57 -25 -177q4 -32 7 -44q8 -49 55 -82q12 -3 37 -17t37 -19t38 -9t39 6q20 59 21 131q-8 14 -8 41q11 30 9 60q-3 29 -3 36zM885 1155q0 -17 -7 -27
t-8 -14q-12 -111 -12 -166q-6 -45 -12 -162t-15 -128q-8 -11 -19 -15t-17 -5q-7 -1 -23 -4q-16 -4 -59 -16t-55 -32t-9 -34q2 -14 -1 -29q-3 -16 16 -25q40 -14 124 -60t132 -61q22 23 30 49t9 75q1 48 2 56q12 29 12 35l-6 33q12 45 12 55q-8 29 -8 145q6 35 8 101t4 86
q4 2 0 24l-2 23q16 43 6 69q-2 16 4 46t1 44q-5 13 -4 47t-9 42q-12 16 -43 -8t-37 -57t-10 -52t-4 -35zM1587 481q0 27 3 79t4 86q3 91 -46 151q-36 0 -75 -33q-41 -33 -99 -68t-268 -186q-20 -20 -62 -49q-27 -33 -26 -131q0 -27 43 -58t53 -45q25 -3 62 -33t50 -37
t38 -12q48 -11 99 14q111 54 130 72q76 117 74 201q0 2 20 49zM1028 647l-14 -29q-12 -51 22 -73h21q27 12 79 51t78 51t50 43q25 31 35 39q11 8 45 36t55 32q6 4 45 21t66 45q28 28 18 79q-16 47 -92 74h-27q-80 -37 -164 -125q-12 -8 -54 -43t-89 -55q-10 -7 -28 -25
t-27 -25q-18 -39 -19 -96zM1376 1096q0 23 -16 36t-58 50q-112 99 -198 112q-23 0 -27 -4t-13 -12t-9 -26q0 -19 -13 -89q-2 -29 0 -105t-4 -108q0 -51 21 -96q43 12 106 59t77 55t22 22q6 12 15 18t39 20t44 30q14 15 14 38zM1903 567q2 -37 6 -56t-16 -92q-19 -72 -20 -80
q-1 -9 -15 -28q-80 -51 -206 -101t-172 -62q-44 -12 -79 -34t-47 -26t-34 -5t-32 -5q-178 -88 -252 -107q-29 -12 -43 -20h-41q-37 17 -85 75t-89 74q-6 0 -17 12t-30 21q-19 8 -74 38t-86 44q-68 22 -140 57q-73 34 -93 44t-72 61q-17 8 -36 25q-19 16 -35 29t-35 29
t-47 60v27q-63 150 -2 276v21q27 36 95 68t106 63t100 69t143 81q83 43 113 63t74 57t87 61q44 24 59 38t21 18q14 0 21 6q12 18 54 48t177 120q37 18 84 8q113 -53 207 -108q16 -10 44 -40t34 -35t34 -21t35 -33q14 0 21 -7q94 -70 125 -129q84 -141 119 -245
q33 -120 31 -188q-1 -68 8 -89q0 -33 -7 -47q1 -21 7 -35z" />
    <glyph glyph-name="Oslash" unicode="&#xd8;" horiz-adv-x="2011" 
d="M592 862v49q6 13 6 33q-4 12 -5 40t-8 45t-30 20q-84 10 -170 -113q-40 -57 -25 -177q4 -32 7 -44q8 -49 55 -82q12 -3 37 -17t37 -19t38 -9t39 6q20 59 21 131q-8 14 -8 41q11 30 9 60q-3 29 -3 36zM885 1155q0 -17 -7 -27t-8 -14q-12 -111 -12 -166q-6 -45 -12 -162
t-15 -128q-8 -11 -19 -15t-17 -5q-7 -1 -23 -4q-16 -4 -59 -16t-55 -32t-9 -34q2 -14 -1 -29q-3 -16 16 -25q40 -14 124 -60t132 -61q22 23 30 49t9 75q1 48 2 56q12 29 12 35l-6 33q12 45 12 55q-8 29 -8 145q6 35 8 101t4 86q4 2 0 24l-2 23q16 43 6 69q-2 16 4 46t1 44
q-5 13 -4 47t-9 42q-12 16 -43 -8t-37 -57t-10 -52t-4 -35zM1587 481q0 27 3 79t4 86q3 91 -46 151q-36 0 -75 -33q-41 -33 -99 -68t-268 -186q-20 -20 -62 -49q-27 -33 -26 -131q0 -27 43 -58t53 -45q25 -3 62 -33t50 -37t38 -12q48 -11 99 14q111 54 130 72q76 117 74 201
q0 2 20 49zM1028 647l-14 -29q-12 -51 22 -73h21q27 12 79 51t78 51t50 43q25 31 35 39q11 8 45 36t55 32q6 4 45 21t66 45q28 28 18 79q-16 47 -92 74h-27q-80 -37 -164 -125q-12 -8 -54 -43t-89 -55q-10 -7 -28 -25t-27 -25q-18 -39 -19 -96zM1376 1096q0 23 -16 36
t-58 50q-112 99 -198 112q-23 0 -27 -4t-13 -12t-9 -26q0 -19 -13 -89q-2 -29 0 -105t-4 -108q0 -51 21 -96q43 12 106 59t77 55t22 22q6 12 15 18t39 20t44 30q14 15 14 38zM573 213q-7 -1 -62 23q-56 24 -104 47q-49 23 -69 33t-72 61q-17 8 -36 25q-19 16 -35 29t-35 29
t-47 60v27q-63 150 -2 276v21q27 36 95 68t106 63t100 69t143 81q83 43 113 63t74 57t87 61q44 24 59 38t21 18q14 0 21 6q12 18 54 48t177 120q37 18 84 8q113 -53 207 -108q16 -10 44 -40t34 -35t34 -21t35 -33q14 -1 27 -11q12 -10 16 -12l82 72q8 6 62 37t65 53
q11 6 17 2t16 -20t17 -23q-90 -43 -207 -164q31 -29 51 -70q84 -141 119 -245q33 -120 31 -188q-1 -68 8 -89q0 -33 -7 -47q1 -21 7 -35q2 -37 6 -56t-16 -92q-19 -72 -20 -80q-1 -9 -15 -28q-80 -51 -206 -101t-172 -62q-44 -12 -79 -34t-47 -26t-34 -5t-32 -5
q-178 -88 -252 -107q-29 -12 -43 -20h-41q-37 17 -85 75t-89 74q-6 0 -17 12t-40 26q-29 12 -66 34q-143 -90 -315 -215q-18 -18 -33 16q-15 35 17 60t80 49t64 38t36 32t28 24t50 35q-2 2 -9 2z" />
    <glyph glyph-name="Ugrave" unicode="&#xd9;" horiz-adv-x="1693" 
d="M766 1497q-29 -23 -64 12q-4 4 -15 9t-17 26q-18 20 -19 27q-14 12 -49 56q-35 43 -50 59t-42 56q-36 54 -70 85q-65 60 -61 104q27 41 72 53t67 -4q8 -8 18 -33t27 -38q8 -14 17 -56q12 -14 20 -14q12 -29 24 -39t15 -26q4 -16 6 -20t13 -23q11 -18 10 -27q16 0 27 -24
t16 -31q0 -10 4 -17q31 -37 53 -79t-2 -56zM125 727q-22 0 -23 12q-6 15 2 33t25 23q82 33 102 112q8 63 -2 144q-11 34 -77 67q-2 2 -10 14q-32 48 -142 62q0 6 -3 31t11 46t55 59t51 56t68 91q35 29 97 -19q20 -14 49 -52q30 -38 52 -56t60 -35q20 -16 56 -54t55 -55
q21 -14 44 -10t32 4l6 -6q-6 -20 -34 -40t-40 -38q-12 -17 -20 -47q0 -6 3 -52t-1 -52v-123q-2 -14 -5 -38t-8 -38q-14 -133 -10 -338q0 -68 96 -68q18 0 22 16q5 16 7 19q2 33 14 420l15 29q0 33 -8 53q-4 34 7 66q11 33 13 45q0 82 -37 172q-4 14 -14 14l14 6q0 29 47 76
l246 147q213 129 367 -16q0 -12 6 -21q8 -6 25 -16q55 -32 122 -147q12 -23 30 -74t34 -76v-35l43 -123q29 -178 22 -256q8 -207 -5 -242q-3 -7 -7 -23q-9 -36 -49 -50q-12 -4 -27 -18t-81 -61q-66 -48 -101 -83q-6 -6 -27 -6q-18 -12 -46 -37t-42 -35q-56 -27 -145 -98
q-90 -70 -119 -84t-77 20t-58 35q-231 80 -518 152q-20 8 -75 -3t-73 25q-8 17 -4 31q11 20 29 56t32 60q14 23 16 69q1 45 2 71t-28 48q-29 24 -67 14q-14 28 -1 54t40 42v14q41 41 41 70q8 33 -22 40t-52 7zM1260 657q0 83 -4 97t-12 29q-9 15 -27 12q-213 -94 -398 -239
q-55 -44 -88 -64q-45 -104 -6 -152q53 -29 109 -45t184 -53t156 -40q29 -2 46 10t18 34t10 84t12 87q2 26 7 92q6 65 -7 148zM1235 911q0 74 -49 97q-6 4 -47 -15q-23 -25 -80 -53t-78 -53q-82 -35 -225 -139q-41 -41 -49 -77t16 -83l27 2q47 28 118 67q72 39 115 78
q45 33 219 127q33 33 33 49zM1145 1081q-10 31 -33 61t-41 44t-57 42t-51 38q-37 53 -103 20q-4 -2 -22 -8t-27 -14v-13q-8 -14 -42 -46t-38 -58q-18 -121 -4 -283q0 -16 14 -27t35 -8q25 10 69 35t66 37l166 105q29 33 53 49q15 14 15 26z" />
    <glyph glyph-name="Uacute" unicode="&#xda;" horiz-adv-x="1693" 
d="M928 1931q4 -41 -30 -75q-10 -10 -35 -32q-23 -22 -31 -32t-35 -50t-42 -55t-50 -59t-50 -57l-18 -27q-7 -21 -18 -26q-11 -4 -15 -9q-35 -35 -63 -12q-39 24 51 135q4 6 4 17q4 6 11 21q16 34 32 34q-2 8 11 29t17 39q5 18 16 28t24 39l20 14q12 64 27 64q8 8 17 32
t17 31q23 16 54 9q59 -17 86 -58zM125 727q-22 0 -23 12q-6 15 2 33t25 23q82 33 102 112q8 63 -2 144q-11 34 -77 67q-2 2 -10 14q-32 48 -142 62q0 6 -3 31t11 46t55 59t51 56t68 91q35 29 97 -19q20 -14 49 -52q30 -38 52 -56t60 -35q20 -16 56 -54t55 -55q21 -14 44 -10
t32 4l6 -6q-6 -20 -34 -40t-40 -38q-12 -17 -20 -47q0 -6 3 -52t-1 -52v-123q-2 -14 -5 -38t-8 -38q-14 -133 -10 -338q0 -68 96 -68q18 0 22 16q5 16 7 19q2 33 14 420l15 29q0 33 -8 53q-4 34 7 66q11 33 13 45q0 82 -37 172q-4 14 -14 14l14 6q0 29 47 76l246 147
q213 129 367 -16q0 -12 6 -21q8 -6 25 -16q55 -32 122 -147q12 -23 30 -74t34 -76v-35l43 -123q29 -178 22 -256q8 -207 -5 -242q-3 -7 -7 -23q-9 -36 -49 -50q-12 -4 -27 -18t-81 -61q-66 -48 -101 -83q-6 -6 -27 -6q-18 -12 -46 -37t-42 -35q-56 -27 -145 -98
q-90 -70 -119 -84t-77 20t-58 35q-231 80 -518 152q-20 8 -75 -3t-73 25q-8 17 -4 31q11 20 29 56t32 60q14 23 16 69q1 45 2 71t-28 48q-29 24 -67 14q-14 28 -1 54t40 42v14q41 41 41 70q8 33 -22 40t-52 7zM1260 657q0 83 -4 97t-12 29q-9 15 -27 12q-213 -94 -398 -239
q-55 -44 -88 -64q-45 -104 -6 -152q53 -29 109 -45t184 -53t156 -40q29 -2 46 10t18 34t10 84t12 87q2 26 7 92q6 65 -7 148zM1235 911q0 74 -49 97q-6 4 -47 -15q-23 -25 -80 -53t-78 -53q-82 -35 -225 -139q-41 -41 -49 -77t16 -83l27 2q47 28 118 67q72 39 115 78
q45 33 219 127q33 33 33 49zM1145 1081q-10 31 -33 61t-41 44t-57 42t-51 38q-37 53 -103 20q-4 -2 -22 -8t-27 -14v-13q-8 -14 -42 -46t-38 -58q-18 -121 -4 -283q0 -16 14 -27t35 -8q25 10 69 35t66 37l166 105q29 33 53 49q15 14 15 26z" />
    <glyph glyph-name="Ucircumflex" unicode="&#xdb;" horiz-adv-x="1693" 
d="M1004 1614q-29 -23 -64 12l-51 62q-14 12 -38 43t-54 62q-29 32 -33 37t-11 24t-26 35q-20 17 -27 26q-51 -57 -83 -104q-32 -48 -35 -54q-16 -14 -34 -41t-34 -39l-18 -26q-7 -22 -18 -26q-11 -5 -15 -9q-35 -35 -64 -12q-39 27 45 122q14 23 15 35q4 7 9 19
q12 30 30 30q-2 8 9 26t11 22q18 25 47 88q42 77 47 77q8 7 18 27t19 29q4 2 23 20t31 19q12 0 55 -29q8 -7 13 -27t27 -44t25 -42q18 -43 43 -63q6 -7 10 -23t12 -34q7 -18 38 -48q4 -6 11 -21t11 -22q0 -10 4 -16q31 -37 53 -79t-1 -56zM125 727q-22 0 -23 12q-6 15 2 33
t25 23q82 33 102 112q8 63 -2 144q-11 34 -77 67q-2 2 -10 14q-32 48 -142 62q0 6 -3 31t11 46t55 59t51 56t68 91q35 29 97 -19q20 -14 49 -52q30 -38 52 -56t60 -35q20 -16 56 -54t55 -55q21 -14 44 -10t32 4l6 -6q-6 -20 -34 -40t-40 -38q-12 -17 -20 -47q0 -6 3 -52
t-1 -52v-123q-2 -14 -5 -38t-8 -38q-14 -133 -10 -338q0 -68 96 -68q18 0 22 16q5 16 7 19q2 33 14 420l15 29q0 33 -8 53q-4 34 7 66q11 33 13 45q0 82 -37 172q-4 14 -14 14l14 6q0 29 47 76l246 147q213 129 367 -16q0 -12 6 -21q8 -6 25 -16q55 -32 122 -147
q12 -23 30 -74t34 -76v-35l43 -123q29 -178 22 -256q8 -207 -5 -242q-3 -7 -7 -23q-9 -36 -49 -50q-12 -4 -27 -18t-81 -61q-66 -48 -101 -83q-6 -6 -27 -6q-18 -12 -46 -37t-42 -35q-56 -27 -145 -98q-90 -70 -119 -84t-77 20t-58 35q-231 80 -518 152q-20 8 -75 -3t-73 25
q-8 17 -4 31q11 20 29 56t32 60q14 23 16 69q1 45 2 71t-28 48q-29 24 -67 14q-14 28 -1 54t40 42v14q41 41 41 70q8 33 -22 40t-52 7zM1260 657q0 83 -4 97t-12 29q-9 15 -27 12q-213 -94 -398 -239q-55 -44 -88 -64q-45 -104 -6 -152q53 -29 109 -45t184 -53t156 -40
q29 -2 46 10t18 34t10 84t12 87q2 26 7 92q6 65 -7 148zM1235 911q0 74 -49 97q-6 4 -47 -15q-23 -25 -80 -53t-78 -53q-82 -35 -225 -139q-41 -41 -49 -77t16 -83l27 2q47 28 118 67q72 39 115 78q45 33 219 127q33 33 33 49zM1145 1081q-10 31 -33 61t-41 44t-57 42
t-51 38q-37 53 -103 20q-4 -2 -22 -8t-27 -14v-13q-8 -14 -42 -46t-38 -58q-18 -121 -4 -283q0 -16 14 -27t35 -8q25 10 69 35t66 37l166 105q29 33 53 49q15 14 15 26z" />
    <glyph glyph-name="Udieresis" unicode="&#xdc;" horiz-adv-x="1693" 
d="M440 1608h-22q-45 43 -80 92q-97 80 -86 117q4 12 12 14q76 53 127 119q41 45 72 30q44 -28 87 -78q42 -48 62 -70t-4 -63q-22 -31 -74 -79t-68 -64q-16 -18 -26 -18zM938 1608h-23q-45 43 -79 92q-97 80 -86 117q4 12 12 14q76 53 127 119q41 45 72 30q44 -28 87 -78
q42 -48 62 -70t-4 -63q-23 -31 -75 -79q-53 -48 -67 -64q-14 -18 -26 -18zM125 727q-22 0 -23 12q-6 15 2 33t25 23q82 33 102 112q8 63 -2 144q-11 34 -77 67q-2 2 -10 14q-32 48 -142 62q0 6 -3 31t11 46t55 59t51 56t68 91q35 29 97 -19q20 -14 49 -52q30 -38 52 -56
t60 -35q20 -16 56 -54t55 -55q21 -14 44 -10t32 4l6 -6q-6 -20 -34 -40t-40 -38q-12 -17 -20 -47q0 -6 3 -52t-1 -52v-123q-2 -14 -5 -38t-8 -38q-14 -133 -10 -338q0 -68 96 -68q18 0 22 16q5 16 7 19q2 33 14 420l15 29q0 33 -8 53q-4 34 7 66q11 33 13 45q0 82 -37 172
q-4 14 -14 14l14 6q0 29 47 76l246 147q213 129 367 -16q0 -12 6 -21q8 -6 25 -16q55 -32 122 -147q12 -23 30 -74t34 -76v-35l43 -123q29 -178 22 -256q8 -207 -5 -242q-3 -7 -7 -23q-9 -36 -49 -50q-12 -4 -27 -18t-81 -61q-66 -48 -101 -83q-6 -6 -27 -6q-18 -12 -46 -37
t-42 -35q-56 -27 -145 -98q-90 -70 -119 -84t-77 20t-58 35q-231 80 -518 152q-20 8 -75 -3t-73 25q-8 17 -4 31q11 20 29 56t32 60q14 23 16 69q1 45 2 71t-28 48q-29 24 -67 14q-14 28 -1 54t40 42v14q41 41 41 70q8 33 -22 40t-52 7zM1260 657q0 83 -4 97t-12 29
q-9 15 -27 12q-213 -94 -398 -239q-55 -44 -88 -64q-45 -104 -6 -152q53 -29 109 -45t184 -53t156 -40q29 -2 46 10t18 34t10 84t12 87q2 26 7 92q6 65 -7 148zM1235 911q0 74 -49 97q-6 4 -47 -15q-23 -25 -80 -53t-78 -53q-82 -35 -225 -139q-41 -41 -49 -77t16 -83l27 2
q47 28 118 67q72 39 115 78q45 33 219 127q33 33 33 49zM1145 1081q-10 31 -33 61t-41 44t-57 42t-51 38q-37 53 -103 20q-4 -2 -22 -8t-27 -14v-13q-8 -14 -42 -46t-38 -58q-18 -121 -4 -283q0 -16 14 -27t35 -8q25 10 69 35t66 37l166 105q29 33 53 49q15 14 15 26z" />
    <glyph glyph-name="Yacute" unicode="&#xdd;" horiz-adv-x="1476" 
d="M1042 1923q4 -38 -30 -75q-10 -10 -34 -32t-32 -32t-35 -50t-41 -57q-16 -14 -51 -58t-49 -56l-18 -27q-6 -19 -18 -25q-11 -6 -15 -10q-35 -35 -64 -12q-23 14 -1 56t53 79q4 6 4 16q4 6 12 25t18 25t13 6q-2 8 9 26t13 22t6 21t16 27t23 39l21 14q12 64 26 64
q8 7 18 31t17 32q23 16 67 4t72 -53zM1004 440l6 27q-16 37 -44 26q-28 -10 -51 -28l-28 -21q-69 -41 -97 -99t3 -128q74 -43 190 78q45 63 21 145zM721 401q0 25 14 35q1 24 9 212t20 284q16 72 -37 158q-4 10 -55 6q-37 0 -33 -47q-28 -256 -36 -562q-7 -305 -8 -347
t13 -50q48 -14 64 14q29 49 34 103q5 55 10 79t5 115zM1014 633l12 83q0 48 -35 68q-27 -4 -61 -34t-64 -40q-28 -9 -46 -47q-18 -37 -18 -69q1 -32 12 -52t30 -16q96 16 133 41t37 66zM819 818q0 -20 15 -36q46 -3 107 54q32 29 44 36q12 0 21 9q27 27 26 90q14 119 7 143
t-21 38t-16 20t-10 12q-7 6 -14 15t-25 12q-17 3 -26 5t-25 -4t-22 -13q-24 -24 -40 -41t-17 -32v-20q-2 -4 -6 -15t-8 -20q-6 -51 2 -142t8 -111zM322 1064q0 13 -15 28l-69 69q-39 30 -71 9t-57 -50q-26 -28 -36 -37h-29q-32 38 41 111q12 0 20 6q20 25 48 43q14 18 45 49
t43 47q18 14 49 42t40 36q9 9 16 23q26 54 87 12q6 -6 49 -68q100 -111 154 -178q39 -39 88 -26q78 35 193 139q8 4 20 11t20 10q8 2 14 14t12 14q5 2 36 25t47 39q47 39 139 -19q92 -78 166 -149q2 -6 12 -16t9 -19q-30 -113 -38 -267q-9 -154 -12 -182q11 -16 5 -61t0 -65
t4 -62t1 -60t18 -50t11 -52q-6 -33 -82 -49q-76 -35 -178 -92q-36 -25 -100 -60t-98 -59q-35 -31 -87 -59q-53 -27 -71 -39l-21 -21q-7 -4 -39 -17t-49 -26q-66 -59 -198 -145q-5 -7 -23 -21t-24 -22q-55 -33 -95 -69q-39 -36 -57 -50q-25 -86 43 -102q80 -13 96 -25
q17 -12 17 -32t-15 -31q-55 -23 -104 -23l-69 -4q-16 0 -52 10t-51 21q-41 35 -50 86t21 92q10 12 62 57q51 45 66 79t28 97q12 64 18 82q13 42 6 101q-14 47 -28 61q-43 33 -103 33q-57 16 -43 47q18 31 72 72t72 61q51 37 41 90l2 54q0 27 -25 42q-16 9 -65 15t-72 24v15
q18 27 67 66t54 54q6 15 8 19q63 63 68 96q4 14 1 104t-3 102z" />
    <glyph glyph-name="Thorn" unicode="&#xde;" horiz-adv-x="2039" 
d="M975 516v121q4 16 1 109t-3 110q10 150 12 168t-6 115q-8 99 -6 121t26 29q25 7 36 -9t15 -61t13 -79q8 -34 29 -34q33 8 90 49q92 85 134 113t78 68t60 36q102 0 170 -90q20 -10 28 -13q34 -14 61 -71q28 -57 52 -72q13 -28 33 -62t41 -75q6 -19 34 -81t36 -100t11 -113
t23 -172q19 -98 19 -162t-68 -93q-47 -14 -91 -44t-99 -62q-12 -8 -21 -21q-70 -41 -96 -69q-25 -18 -91 -56t-85 -52q-18 -15 -23 -15l-26 4q-14 -2 -35 -2q-49 14 -135 48t-117 42t-80 31q-18 0 -63 12q-18 12 -35 29q-35 24 -68 -9q-20 -46 -20 -60t-3 -29t-1 -24t20 -39
q19 -28 35 -38t50 -17t56 -18t89 -33t97 -23t40 -24q10 -31 -9 -55t-45 -18t-72 16t-73 14q-33 16 -49 21q-55 25 -158 12q-135 -29 -198 -65q-16 -8 -56 -35t-61 -35q-23 -4 -30 18t0 42q7 18 23 68l21 62q24 72 26 96q1 23 5 67t0 90q-4 45 -4 57q0 61 -35 69q-10 4 -46 9
q-36 4 -54 16t-19 37q20 27 68 69t70 70q32 47 12 98t-76 60q-4 22 5 36t33 32t30 22q6 10 6 69q-7 30 -37 37q-30 6 -39 10q-6 4 -6 16t8 26q8 13 44 38t42 31q33 51 21 158l4 92l-2 88q-8 41 -101 41q-20 2 -81 5t-95 12q-35 9 -78 15t-55 7q-23 -2 -41 12t-14 31t15 26
t19 16t13 9q55 68 88 119q27 28 61 16q67 -23 107 -29q39 -5 61 -9t58 -3h53l223 17q20 0 49 32t47 36q18 3 33 -1q16 -4 17 -8q0 -25 -8 -49t-17 -59q-43 -84 -51 -154q-8 -71 -8 -141t4 -134t-3 -112q-7 -49 5 -105q0 -14 -6 -26q-2 -13 2 -63t-9 -62l9 -14
q-14 -100 -13 -173q4 -39 39 -63t78 -25q33 41 33 115zM1626 258q0 82 -29 152q-10 28 -9 80t-11 90t-57 55q-31 13 -73 -5q-43 -18 -147 -79t-151 -84q-14 -8 -39 -35t-37 -37q-29 -29 29 -67q139 -43 297 -121q143 -61 207 -10q13 13 15 34q3 21 5 27zM1483 766
q0 26 -23 50t-47 18q-84 -26 -181 -85t-134 -77q-59 -43 -60 -160q18 -29 64 -10t59 33q33 20 115 74t131 81q76 33 76 76zM1047 908q0 -16 -5 -38q0 -51 7 -67q3 -23 -9 -39t-3 -32t40 -11q86 41 150 96q105 50 113 56q6 5 18 13t15 9q31 21 40 57q0 44 -11 54
q-12 10 -30 14t-26 6q-62 47 -102 41t-68 -14q-76 -23 -117 -99q-12 -30 -12 -46z" />
    <glyph glyph-name="germandbls" unicode="&#xdf;" horiz-adv-x="1114" 
d="M449 909q49 51 77 78q27 21 54 39q28 18 40 32t46 62q33 49 41 60q-57 23 -102 48q-46 25 -111 32q-4 4 -16 -4t-12 -30q-12 -252 -17 -317zM442 803v-105q-8 -236 -6 -424q0 -35 21 -69q6 -3 22 -15q17 -12 21 -13t16 3q66 59 111 176q10 25 44 64t44 61q8 29 0 56
q-37 88 -205 206q-24 16 -68 60zM948 1438q-28 -37 -66 -107t-43 -79q-5 -8 -25 -30t-24 -31t-47 -71t-51 -86q-12 -66 51 -108q27 -12 85 -64q56 -53 76 -64t33 -5t38 24q25 17 42 19t32 -19q8 -49 -28 -75t-76 -78t-114 -125q-23 -29 -21 -74t36 -64q24 -55 92 -116
q14 -14 14 -35q8 -18 52 -78t47 -98q-4 -27 -34 -75t-48 -65q-78 -132 -105 -162t-91 -117t-116 -116q-39 -18 -96 12q-12 4 -45 31t-27 51q29 48 46 63q18 15 32 24q15 8 19 12t21 14t27 16t48 -1q39 -7 55 -1q61 33 61 104q-1 71 -42 124q-66 61 -140 149q-14 10 -26 -10
q-80 -63 -193 -143q-43 -31 -67 -21q-43 10 -114 52t-107 55q-27 16 -15 41q51 100 64 215q12 116 3 268t-5 221q-2 35 -24 62t-48 27t-33 10q-6 11 -2 24q18 37 90 96q12 16 13 29q10 8 4 99t-6 100q45 45 151 94t129 61l6 13q31 18 35 22q74 88 143 70q35 -10 107 -40
t106 -40q27 20 63 23t58 -27z" />
    <glyph glyph-name="agrave" unicode="&#xe0;" 
d="M606 1210q-29 -23 -63 13q-4 4 -15 8t-18 26q-18 20 -18 27q-14 12 -50 56q-35 44 -50 60t-46 62q-31 47 -59 72q-72 68 -68 111q27 41 72 53t67 -4q8 -8 18 -33t27 -39q8 -14 17 -55q12 -14 20 -15q12 -29 24 -39t16 -28q5 -18 17 -39q13 -20 11 -29q15 -1 27 -25
t16 -30q0 -10 4 -16q31 -38 53 -80t-2 -56zM524 248q61 113 -8 221q-25 41 -80 51t-102 -18q-2 0 -21 -43q-2 -21 0 -71t-3 -68t20 -60q57 -59 131 -47q43 0 63 35zM553 635q0 14 6 81t-14 115q-12 6 -66 43t-100 41q-47 5 -85 -29t-50 -79q-29 -100 41 -164q70 -59 125 -70
q92 -12 131 31q12 17 12 31zM983 147q-6 -18 -31 -52t-32 -48q-59 -66 -123 -115q-20 -12 -46 4t-62 47q-36 32 -56 46q-70 76 -80 92q-19 18 -37 6q-36 -23 -76 -73q-48 -59 -88 -85q-41 -26 -51 -24t-29 2q-42 14 -120 55t-109 55q-6 4 -6 35q20 70 29 258q0 18 -33 84
q-12 37 0 49q20 25 90 59t84 72q2 4 -2 14t-4 15q-51 88 -35 176q5 37 34 68q29 29 33 35t5 20q23 32 71 60t64 40q27 29 129 109q20 12 48 -3t113 -58t130 -70q33 8 98 -21q25 -29 12 -57q-43 -47 -51 -121q-8 -27 -5 -89t1 -89q-20 -106 -10 -178v-113q18 -72 106 -98
q51 -19 39 -107z" />
    <glyph glyph-name="aacute" unicode="&#xe1;" 
d="M719 1642q4 -39 -31 -74q-10 -11 -34 -33t-32 -32t-34 -50q-27 -40 -42 -55q-15 -16 -50 -60t-50 -56l-18 -27q-8 -21 -18 -25t-15 -9q-35 -35 -63 -13q-23 14 -1 56t52 79q4 6 4 17q4 6 13 25q14 30 30 30q-2 9 11 31q14 22 18 38t15 27q11 10 24 39l20 15q12 63 27 63
q8 8 17 32t18 32q24 16 68 4t71 -54zM524 248q61 113 -8 221q-25 41 -80 51t-102 -18q-2 0 -21 -43q-2 -21 0 -71t-3 -68t20 -60q57 -59 131 -47q43 0 63 35zM553 635q0 14 6 81t-14 115q-12 6 -66 43t-100 41q-47 5 -85 -29t-50 -79q-29 -100 41 -164q70 -59 125 -70
q92 -12 131 31q12 17 12 31zM983 147q-6 -18 -31 -52t-32 -48q-59 -66 -123 -115q-20 -12 -46 4t-62 47q-36 32 -56 46q-70 76 -80 92q-19 18 -37 6q-36 -23 -76 -73q-48 -59 -88 -85q-41 -26 -51 -24t-29 2q-42 14 -120 55t-109 55q-6 4 -6 35q20 70 29 258q0 18 -33 84
q-12 37 0 49q20 25 90 59t84 72q2 4 -2 14t-4 15q-51 88 -35 176q5 37 34 68q29 29 33 35t5 20q23 32 71 60t64 40q27 29 129 109q20 12 48 -3t113 -58t130 -70q33 8 98 -21q25 -29 12 -57q-43 -47 -51 -121q-8 -27 -5 -89t1 -89q-20 -106 -10 -178v-113q18 -72 106 -98
q51 -19 39 -107z" />
    <glyph glyph-name="acircumflex" unicode="&#xe2;" 
d="M817 1212q-29 -23 -63 13l-52 61q-14 12 -49 56q-39 49 -58 68t-27 39t-27 38q-20 18 -27 26q-57 -64 -119 -157q-17 -14 -35 -41t-32 -39l-19 -27q-7 -21 -17 -25t-16 -10q-35 -35 -63 -12q-39 27 45 123q14 23 14 35q4 6 11 22q12 27 28 27q-2 10 18 41q21 31 50 94
q43 78 49 82t16 24t19 27q4 2 22 21t33 16q10 2 53 -26q7 -8 13 -28t28 -43q22 -25 32 -55t26 -44t20 -29q4 -16 11 -34t38 -48q3 -5 11 -21t12 -22q0 -10 4 -16q30 -38 52 -80t-1 -56zM524 248q61 113 -8 221q-25 41 -80 51t-102 -18q-2 0 -21 -43q-2 -21 0 -71t-3 -68
t20 -60q57 -59 131 -47q43 0 63 35zM553 635q0 14 6 81t-14 115q-12 6 -66 43t-100 41q-47 5 -85 -29t-50 -79q-29 -100 41 -164q70 -59 125 -70q92 -12 131 31q12 17 12 31zM983 147q-6 -18 -31 -52t-32 -48q-59 -66 -123 -115q-20 -12 -46 4t-62 47q-36 32 -56 46
q-70 76 -80 92q-19 18 -37 6q-36 -23 -76 -73q-48 -59 -88 -85q-41 -26 -51 -24t-29 2q-42 14 -120 55t-109 55q-6 4 -6 35q20 70 29 258q0 18 -33 84q-12 37 0 49q20 25 90 59t84 72q2 4 -2 14t-4 15q-51 88 -35 176q5 37 34 68q29 29 33 35t5 20q23 32 71 60t64 40
q27 29 129 109q20 12 48 -3t113 -58t130 -70q33 8 98 -21q25 -29 12 -57q-43 -47 -51 -121q-8 -27 -5 -89t1 -89q-20 -106 -10 -178v-113q18 -72 106 -98q51 -19 39 -107z" />
    <glyph glyph-name="atilde" unicode="&#xe3;" 
d="M504 1278l-119 12l-76 4q-41 0 -64 -52q-7 -16 -11 -24l-7 -14q-5 -15 -11 -17q-6 -1 -23 3q-20 57 -18 81q3 23 15 53t70 153q20 36 61 36l72 -6q35 -2 68 -7t74 -7q52 -9 77 -8q25 2 62 -2t56 11t46 56q8 31 21 35q19 0 30 -16l7 -4q23 -41 -21 -129q-4 -6 -28 -62
q-23 -56 -37 -73q-14 -19 -32 -25t-59 -2q-53 0 -153 4zM524 248q61 113 -8 221q-25 41 -80 51t-102 -18q-2 0 -21 -43q-2 -21 0 -71t-3 -68t20 -60q57 -59 131 -47q43 0 63 35zM553 635q0 14 6 81t-14 115q-12 6 -66 43t-100 41q-47 5 -85 -29t-50 -79q-29 -100 41 -164
q70 -59 125 -70q92 -12 131 31q12 17 12 31zM983 147q-6 -18 -31 -52t-32 -48q-59 -66 -123 -115q-20 -12 -46 4t-62 47q-36 32 -56 46q-70 76 -80 92q-19 18 -37 6q-36 -23 -76 -73q-48 -59 -88 -85q-41 -26 -51 -24t-29 2q-42 14 -120 55t-109 55q-6 4 -6 35q20 70 29 258
q0 18 -33 84q-12 37 0 49q20 25 90 59t84 72q2 4 -2 14t-4 15q-51 88 -35 176q5 37 34 68q29 29 33 35t5 20q23 32 71 60t64 40q27 29 129 109q20 12 48 -3t113 -58t130 -70q33 8 98 -21q25 -29 12 -57q-43 -47 -51 -121q-8 -27 -5 -89t1 -89q-20 -106 -10 -178v-113
q18 -72 106 -98q51 -19 39 -107z" />
    <glyph glyph-name="adieresis" unicode="&#xe4;" 
d="M254 1231h-23q-45 43 -79 92q-97 80 -86 117q4 12 12 14q76 53 127 119q41 45 71 31q45 -29 87 -78q43 -50 63 -71t-4 -62q-23 -31 -75 -79q-51 -48 -67 -66t-26 -17zM752 1231h-23q-45 43 -80 92q-97 80 -86 117q4 12 12 14q76 53 127 119q41 45 72 31q42 -27 86 -78
q43 -50 63 -71t-3 -62q-23 -31 -75 -79q-51 -48 -67 -66t-26 -17zM524 248q61 113 -8 221q-25 41 -80 51t-102 -18q-2 0 -21 -43q-2 -21 0 -71t-3 -68t20 -60q57 -59 131 -47q43 0 63 35zM553 635q0 14 6 81t-14 115q-12 6 -66 43t-100 41q-47 5 -85 -29t-50 -79
q-29 -100 41 -164q70 -59 125 -70q92 -12 131 31q12 17 12 31zM983 147q-6 -18 -31 -52t-32 -48q-59 -66 -123 -115q-20 -12 -46 4t-62 47q-36 32 -56 46q-70 76 -80 92q-19 18 -37 6q-36 -23 -76 -73q-48 -59 -88 -85q-41 -26 -51 -24t-29 2q-42 14 -120 55t-109 55
q-6 4 -6 35q20 70 29 258q0 18 -33 84q-12 37 0 49q20 25 90 59t84 72q2 4 -2 14t-4 15q-51 88 -35 176q5 37 34 68q29 29 33 35t5 20q23 32 71 60t64 40q27 29 129 109q20 12 48 -3t113 -58t130 -70q33 8 98 -21q25 -29 12 -57q-43 -47 -51 -121q-8 -27 -5 -89t1 -89
q-20 -106 -10 -178v-113q18 -72 106 -98q51 -19 39 -107z" />
    <glyph glyph-name="aring" unicode="&#xe5;" 
d="M528 1423q35 0 49 35q13 35 7 76q-24 61 -44 85t-46 32q-12 0 -35 5t-35 1q-35 0 -47 -15q-56 -78 24 -172q43 -47 127 -47zM793 1538q-3 -24 -31 -41q-28 -16 -34 -21q-6 -6 -7 -16q-2 -10 -4 -12q-27 -16 -97 -82q-155 -147 -278 -133q-2 2 -24 13q-22 12 -37 20
q-17 8 -27 12q-29 11 -47 42q-19 32 -29 165q13 57 101 134q39 34 46 40t9 16t4 15q139 162 219 170q66 0 76 -8t44 -36q34 -26 56 -48t31 -45q8 -23 15 -27t7 -8q11 -33 7 -150zM524 248q61 113 -8 221q-25 41 -80 51t-102 -18q-2 0 -21 -43q-2 -21 0 -71t-3 -68t20 -60
q57 -59 131 -47q43 0 63 35zM553 635q0 14 6 81t-14 115q-12 6 -66 43t-100 41q-47 5 -85 -29t-50 -79q-29 -100 41 -164q70 -59 125 -70q92 -12 131 31q12 17 12 31zM983 147q-6 -18 -31 -52t-32 -48q-59 -66 -123 -115q-20 -12 -46 4t-62 47q-36 32 -56 46q-70 76 -80 92
q-19 18 -37 6q-36 -23 -76 -73q-48 -59 -88 -85q-41 -26 -51 -24t-29 2q-42 14 -120 55t-109 55q-6 4 -6 35q20 70 29 258q0 18 -33 84q-12 37 0 49q20 25 90 59t84 72q2 4 -2 14t-4 15q-51 88 -35 176q5 37 34 68q29 29 33 35t5 20q23 32 71 60t64 40q27 29 129 109
q20 12 48 -3t113 -58t130 -70q33 8 98 -21q25 -29 12 -57q-43 -47 -51 -121q-8 -27 -5 -89t1 -89q-20 -106 -10 -178v-113q18 -72 106 -98q51 -19 39 -107z" />
    <glyph glyph-name="ae" unicode="&#xe6;" horiz-adv-x="1384" 
d="M555 117q-23 23 -45 7q-44 -33 -81 -80l-32 -40q-18 -18 -52 -39q-35 -22 -45 -20t-28 2q-42 14 -120 55t-109 55q-6 4 -6 35q20 70 29 258q0 18 -33 84q-12 37 0 49q20 25 90 59t84 72q2 4 -2 14t-4 15q-51 88 -35 176q5 37 34 68q29 29 33 35t5 20q23 32 71 60t64 40
q27 29 129 109q20 12 48 -3t104 -54t122 -66q18 12 70 43t104 80q22 16 48 6t42 -28t89 -52q73 -35 104 -67q37 -27 104 -27q15 -4 21 -22t0 -33q-18 -31 -66 -77q-48 -45 -59 -57q-10 -12 -10 -26q-4 -9 -27 -20q-79 -107 -189 -218q-110 -112 -141 -148q-32 -36 -32 -78
t30 -68h27q106 -70 160 -41q72 43 239 141q14 16 18 18t29 -4l6 6q21 -16 19 -36t-24 -38t-80 -56q-60 -38 -86 -58t-72 -49q-47 -29 -62 -40t-41 -22q-12 -8 -59 -47q-90 -75 -143 -71q-27 0 -45 12t-35 27q-18 15 -36 29q-17 14 -57 54t-67 56zM870 874l-24 -323
q0 -12 14 -27q20 -29 48 0t68 63q42 34 62 56q6 10 29 39t24 55t-14 37q-111 74 -172 109q-12 3 -35 -9zM524 248q61 113 -8 221q-25 41 -80 51t-102 -18q-2 0 -21 -43q-2 -21 0 -71t-3 -68t20 -60q57 -59 131 -47q43 0 63 35zM553 635q0 14 6 81t-14 115q-12 6 -66 43
t-100 41q-47 5 -85 -29t-50 -79q-29 -100 41 -164q70 -59 125 -70q92 -12 131 31q12 17 12 31z" />
    <glyph glyph-name="ccedilla" unicode="&#xe7;" horiz-adv-x="704" 
d="M262 -393q80 0 113 33q5 15 8 39q2 24 4 40q2 17 1 27t-2 27t-18 34q-17 18 -63 54q-18 8 -47 -8t-41 -17q-29 0 -20 45q23 45 31 49t69 31q-29 14 -59 42t-50 34t-26 12q-4 12 -35 29q-45 0 -45 54l16 54q12 35 9 80q-11 167 -2 231t1 281q-4 18 -18 49t-16 46t12 30
q135 90 211 139q6 6 27 32q20 26 34 38q6 2 15 11t20 10q109 4 144 -5q20 0 28 7q2 -2 10 -2t17 -5q8 0 39 4t37 -2q37 -18 22 -69q-14 -31 -30 -91t-23 -81q-16 -29 -39 -31t-101 7t-98 -15q-21 -31 -14 -184q-25 -252 -4 -365q8 -74 153 -102q57 -16 123 37q24 11 29 5
q6 -6 6 -26q-11 -36 -108 -111q0 -16 -14 -23t-21 -15q-8 -8 -30 -32t-34 -34q8 -16 36 -43t32 -47q63 -178 29 -252q-14 -14 -37 -14q-25 -14 -56 -41q-16 -18 -68 -85t-97 -93q-45 -10 -76 0q-35 16 -43 43q-23 90 16 139h43z" />
    <glyph glyph-name="egrave" unicode="&#xe8;" horiz-adv-x="931" 
d="M641 1214q-29 -23 -63 13q-4 4 -15 8t-18 27q-18 20 -19 26q-14 12 -49 56t-50 60q-15 15 -42 55q-36 54 -67 82q-69 63 -64 108q27 41 72 53t67 -4q8 -8 18 -33t27 -39q8 -14 17 -55q12 -14 20 -15q11 -29 23 -39t17 -28t17 -39q13 -20 11 -29q16 0 27 -24t16 -31
q0 -10 4 -16q30 -38 52 -80t-1 -56zM641 745q0 18 -14 29q-111 74 -172 109q-8 3 -49 -15q0 -42 -8 -152t-5 -144q2 -34 17 -48q20 -29 48 0t68 63q41 34 62 56q6 11 22 31t24 36t7 35zM907 928q-18 -31 -66 -77q-49 -45 -59 -57t-10 -26q-6 -12 -27 -20q-79 -107 -189 -218
q-110 -112 -140 -148t-32 -78q-1 -42 30 -68h26q106 -70 160 -41q72 43 240 141q14 16 17 18t30 -4l6 6q20 -16 18 -36t-23 -38q-20 -18 -80 -56t-86 -58t-72 -49q-48 -29 -62 -40t-26 -15q-19 -7 -79 -58q-61 -50 -114 -47q-27 0 -45 12t-49 39q-32 27 -103 64
q-72 37 -98 59t-19 43q34 52 37 95q10 112 10 145q25 262 2 393q0 10 -8 49t20 58q13 10 36 18q22 8 34 16t43 26t45 28q156 82 226 147q23 16 48 6q26 -10 40 -25t22 -22q16 -8 78 -37t94 -63q37 -27 105 -27q14 -5 20 -23t0 -32z" />
    <glyph glyph-name="eacute" unicode="&#xe9;" horiz-adv-x="931" 
d="M840 1647q4 -37 -31 -75q-10 -11 -34 -33t-32 -32q-9 -10 -35 -50t-41 -55q-15 -16 -51 -60t-49 -56l-18 -26q-8 -23 -18 -27q-11 -4 -15 -8q-35 -35 -63 -13q-40 24 51 136q4 6 4 16q4 6 11 21q16 34 32 34q-2 8 11 29t17 39q5 18 16 28t23 39l21 15q12 63 27 63
q8 8 17 32t17 32q23 16 68 4t72 -53zM641 745q0 18 -14 29q-111 74 -172 109q-8 3 -49 -15q0 -42 -8 -152t-5 -144q2 -34 17 -48q20 -29 48 0t68 63q41 34 62 56q6 11 22 31t24 36t7 35zM907 928q-18 -31 -66 -77q-49 -45 -59 -57t-10 -26q-6 -12 -27 -20
q-79 -107 -189 -218q-110 -112 -140 -148t-32 -78q-1 -42 30 -68h26q106 -70 160 -41q72 43 240 141q14 16 17 18t30 -4l6 6q20 -16 18 -36t-23 -38q-20 -18 -80 -56t-86 -58t-72 -49q-48 -29 -62 -40t-26 -15q-19 -7 -79 -58q-61 -50 -114 -47q-27 0 -45 12t-49 39
q-32 27 -103 64q-72 37 -98 59t-19 43q34 52 37 95q10 112 10 145q25 262 2 393q0 10 -8 49t20 58q13 10 36 18q22 8 34 16t43 26t45 28q156 82 226 147q23 16 48 6q26 -10 40 -25t22 -22q16 -8 78 -37t94 -63q37 -27 105 -27q14 -5 20 -23t0 -32z" />
    <glyph glyph-name="ecircumflex" unicode="&#xea;" horiz-adv-x="931" 
d="M786 1212q-29 -23 -63 13l-51 61q-14 12 -49 56t-45 54l-18 18q-15 15 -22 34t-27 38q-21 19 -28 27q-53 -60 -84 -105q-31 -46 -34 -52q-17 -14 -35 -41t-33 -39l-18 -27q-7 -20 -18 -25t-15 -10q-35 -35 -64 -12q-39 27 45 123q14 23 15 35q4 6 11 22q11 27 28 27
q-3 11 18 41q20 31 49 94q43 78 49 82q7 4 17 24t16 24q6 5 24 24t33 16q10 2 54 -26q8 -8 13 -28q4 -20 26 -43q22 -25 33 -55t27 -44t23 -43q8 -30 46 -68q4 -5 11 -21t11 -22q0 -10 4 -16q31 -38 53 -80t-2 -56zM641 745q0 18 -14 29q-111 74 -172 109q-8 3 -49 -15
q0 -42 -8 -152t-5 -144q2 -34 17 -48q20 -29 48 0t68 63q41 34 62 56q6 11 22 31t24 36t7 35zM907 928q-18 -31 -66 -77q-49 -45 -59 -57t-10 -26q-6 -12 -27 -20q-79 -107 -189 -218q-110 -112 -140 -148t-32 -78q-1 -42 30 -68h26q106 -70 160 -41q72 43 240 141
q14 16 17 18t30 -4l6 6q20 -16 18 -36t-23 -38q-20 -18 -80 -56t-86 -58t-72 -49q-48 -29 -62 -40t-26 -15q-19 -7 -79 -58q-61 -50 -114 -47q-27 0 -45 12t-49 39q-32 27 -103 64q-72 37 -98 59t-19 43q34 52 37 95q10 112 10 145q25 262 2 393q0 10 -8 49t20 58
q13 10 36 18q22 8 34 16t43 26t45 28q156 82 226 147q23 16 48 6q26 -10 40 -25t22 -22q16 -8 78 -37t94 -63q37 -27 105 -27q14 -5 20 -23t0 -32z" />
    <glyph glyph-name="edieresis" unicode="&#xeb;" horiz-adv-x="931" 
d="M227 1231h-22q-45 43 -80 92q-97 80 -86 117q4 12 12 14q76 53 127 119q41 45 72 31q42 -27 86 -78q42 -50 62 -71t-3 -62q-23 -31 -75 -79t-66 -66q-16 -18 -27 -17zM725 1231h-23q-45 43 -79 92q-97 80 -86 117q4 12 12 14q76 53 127 119q41 45 72 31q42 -27 86 -78
q42 -50 62 -71t-3 -62q-23 -31 -75 -79t-66 -66t-27 -17zM641 745q0 18 -14 29q-111 74 -172 109q-8 3 -49 -15q0 -42 -8 -152t-5 -144q2 -34 17 -48q20 -29 48 0t68 63q41 34 62 56q6 11 22 31t24 36t7 35zM907 928q-18 -31 -66 -77q-49 -45 -59 -57t-10 -26
q-6 -12 -27 -20q-79 -107 -189 -218q-110 -112 -140 -148t-32 -78q-1 -42 30 -68h26q106 -70 160 -41q72 43 240 141q14 16 17 18t30 -4l6 6q20 -16 18 -36t-23 -38q-20 -18 -80 -56t-86 -58t-72 -49q-48 -29 -62 -40t-26 -15q-19 -7 -79 -58q-61 -50 -114 -47q-27 0 -45 12
t-49 39q-32 27 -103 64q-72 37 -98 59t-19 43q34 52 37 95q10 112 10 145q25 262 2 393q0 10 -8 49t20 58q13 10 36 18q22 8 34 16t43 26t45 28q156 82 226 147q23 16 48 6q26 -10 40 -25t22 -22q16 -8 78 -37t94 -63q37 -27 105 -27q14 -5 20 -23t0 -32z" />
    <glyph glyph-name="igrave" unicode="&#xec;" horiz-adv-x="618" 
d="M399 1210q-29 -23 -63 13q-4 4 -15 9t-18 25q-18 20 -18 27q-14 12 -49 56q-34 44 -50 60t-47 62q-31 47 -59 72q-27 25 -37 36q-33 36 -31 75q27 41 72 53t68 -4q8 -8 18 -34t27 -38q8 -14 16 -55q12 -14 20 -15q11 -29 23 -39t16 -26q4 -17 6 -21t14 -22q11 -18 9 -27
q6 0 21 -12q4 -5 11 -21t11 -22q0 -10 4 -16q30 -38 52 -80t-1 -56zM43 880q0 24 10 40q35 41 105 104t88 82q-2 8 -2 14q27 37 55 29q14 0 60 -46t65 -77q18 -14 49 -45t49 -43q4 -4 4 -16q0 -14 -26 -42q-26 -27 -25 -53q-16 -96 -20 -273q-5 -177 -11 -228t52 -97
q14 -6 42 -16t42 -18q24 -10 22 -37t-22 -39q-51 -68 -97 -90q-23 -18 -67 -76q-16 -16 -42 -12q-24 4 -32 5t-21 14t-23 20t-61 54q-50 47 -98 72q-2 2 -31 26t-21 42q7 18 29 44t21 40q2 80 20 257q17 177 15 273q-3 44 -59 60q-16 4 -52 8q-18 0 -18 24z" />
    <glyph glyph-name="iacute" unicode="&#xed;" horiz-adv-x="618" 
d="M565 1642q4 -37 -30 -74q-10 -11 -34 -33t-32 -32t-35 -50t-42 -55q-15 -16 -50 -60t-49 -56l-19 -27q-8 -21 -18 -25t-14 -9q-35 -35 -61 -17q-43 30 48 139q4 6 4 17q4 6 12 21q16 34 31 34q-2 8 11 29t18 39q4 18 15 28t24 39l21 15q12 63 26 63q8 8 18 32q9 24 17 32
q24 16 68 4t71 -54zM43 880q0 24 10 40q35 41 105 104t88 82q-2 8 -2 14q27 37 55 29q14 0 60 -46t65 -77q18 -14 49 -45t49 -43q4 -4 4 -16q0 -14 -26 -42q-26 -27 -25 -53q-16 -96 -20 -273q-5 -177 -11 -228t52 -97q14 -6 42 -16t42 -18q24 -10 22 -37t-22 -39
q-51 -68 -97 -90q-23 -18 -67 -76q-16 -16 -42 -12q-24 4 -32 5t-21 14t-23 20t-61 54q-50 47 -98 72q-2 2 -31 26t-21 42q7 18 29 44t21 40q2 80 20 257q17 177 15 273q-3 44 -59 60q-16 4 -52 8q-18 0 -18 24z" />
    <glyph glyph-name="icircumflex" unicode="&#xee;" horiz-adv-x="618" 
d="M592 1212q-29 -23 -64 13l-51 61q-14 12 -49 56t-44 54t-18 18q-17 17 -24 36t-27 37t-26 26q-60 -67 -87 -109l-32 -48q-16 -14 -34 -41t-34 -39l-18 -27q-7 -21 -18 -26q-11 -4 -15 -9q-35 -35 -63 -12q-39 27 45 123q14 23 14 35q4 6 11 22q11 27 28 27q-3 11 18 41
q20 31 50 89q30 59 36 71t11 12q8 8 18 28t19 27q4 2 22 21t33 16q10 2 53 -26q8 -8 13 -28t27 -43q22 -25 33 -55t27 -44t19 -29q4 -16 11 -34t38 -48q4 -5 11 -21t12 -22q0 -10 4 -16q31 -38 53 -80t-2 -56zM43 880q0 24 10 40q35 41 105 104t88 82q-2 8 -2 14
q27 37 55 29q14 0 60 -46t65 -77q18 -14 49 -45t49 -43q4 -4 4 -16q0 -14 -26 -42q-26 -27 -25 -53q-16 -96 -20 -273q-5 -177 -11 -228t52 -97q14 -6 42 -16t42 -18q24 -10 22 -37t-22 -39q-51 -68 -97 -90q-23 -18 -67 -76q-16 -16 -42 -12q-24 4 -32 5t-21 14t-23 20
t-61 54q-50 47 -98 72q-2 2 -31 26t-21 42q7 18 29 44t21 40q2 80 20 257q17 177 15 273q-3 44 -59 60q-16 4 -52 8q-18 0 -18 24z" />
    <glyph glyph-name="idieresis" unicode="&#xef;" horiz-adv-x="618" 
d="M57 1231h-22q-45 43 -80 92q-97 80 -86 117q4 12 12 14q76 53 127 119q41 45 72 31q42 -27 86 -78q42 -50 62 -71t-3 -62q-23 -31 -75 -79t-66 -66q-16 -18 -27 -17zM555 1231h-23q-45 43 -79 92q-97 80 -86 117q4 12 12 14q76 53 127 119q41 45 72 31q42 -27 86 -78
q42 -50 62 -71t-3 -62q-23 -31 -75 -79t-68 -66t-25 -17zM43 880q0 24 10 40q35 41 105 104t88 82q-2 8 -2 14q27 37 55 29q14 0 60 -46t65 -77q18 -14 49 -45t49 -43q4 -4 4 -16q0 -14 -26 -42q-26 -27 -25 -53q-16 -96 -20 -273q-5 -177 -11 -228t52 -97q14 -6 42 -16
t42 -18q24 -10 22 -37t-22 -39q-51 -68 -97 -90q-23 -18 -67 -76q-16 -16 -42 -12q-24 4 -32 5t-21 14t-23 20t-61 54q-50 47 -98 72q-2 2 -31 26t-21 42q7 18 29 44t21 40q2 80 20 257q17 177 15 273q-3 44 -59 60q-16 4 -52 8q-18 0 -18 24z" />
    <glyph glyph-name="eth" unicode="&#xf0;" horiz-adv-x="1030" 
d="M418 1276l63 41q3 0 23 14q20 13 28 23t36 23t36 20q6 16 38 18t46 -28q14 -31 -20 -67t-74 -48q-2 -2 -20 -10t-21 -13q-15 -4 -31 -16t-18 -12q45 -19 57 -27t41 -37q109 -61 277 -110q14 -4 41 -35q17 -24 13 -63q-5 -38 -5 -46q-20 -143 -10 -252v-61
q-12 -76 -12 -216t-11 -210q-6 -14 -33 -27q-213 -84 -301 -192q-25 -31 -82 0q-15 6 -35 26q-20 21 -36 27t-52 29t-57 26q-8 5 -18 15q-11 10 -21 15t-75 32t-82 45q-32 33 -16 96q16 62 18 98q3 36 -1 134q-4 97 5 141q4 39 -12 101q-15 62 -13 88t24 36q22 12 74 30
q53 18 89 40q36 20 44 51q6 14 -28 49l-29 14q-21 10 -31 15q-8 -6 -57 -31q-39 -25 -43 -27q-57 -53 -107 -54t-57 3q-37 41 -4 67t54 35t44 21l72 37q-100 57 -121 98q-10 32 16 56t69 79q44 55 71 81t76 -7q18 -17 38 -31t70 -53q49 -39 70 -51zM401 376q0 -60 41 -73
q10 -4 57 -28t68 -22q20 3 35 13q41 188 37 471q0 3 -8 23t-14 55t-27 53q-56 35 -104 42t-56 -11q-41 -108 -38 -262q1 -53 5 -142t4 -119z" />
    <glyph glyph-name="ntilde" unicode="&#xf1;" horiz-adv-x="1185" 
d="M604 1278l-119 12l-75 4q-42 0 -65 -52q-15 -32 -19 -45q-5 -13 -15 -11t-18 4q-20 57 -18 81q3 23 15 53t70 153q20 36 61 36l73 -6q36 -2 68 -7t73 -7q52 -9 77 -8q25 2 62 -2t56 11t47 56q8 31 20 35q17 0 37 -20q23 -41 -21 -129q-3 -6 -27 -62t-38 -73
q-14 -19 -32 -25t-58 -2q-53 0 -154 4zM1139 151q-1 -47 -23 -65t-50 -55t-52 -57q-25 -19 -60 -17h-28q-6 2 -22 17t-86 52q-70 38 -107 80q-6 6 -6 56q12 41 12 53q33 236 14 573q0 76 -104 115h-27q-70 -29 -104 -49q-29 -33 -33 -49q-10 -102 -10 -371l-15 -51l6 -80
q0 -45 18 -56t47 -17q81 -16 64 -78q-68 -84 -196 -201q-51 -12 -128 35t-106 49t-48 14t-9 35q49 84 52 104t4 67q1 46 10 71q0 23 -9 34q0 41 13 140q10 152 -2 288q-4 23 -41 40q-37 16 -44 30t-8 33l7 82q55 47 102 131q31 41 76 29q27 -11 126 -89t171 -86q31 20 89 66
t89 66q16 49 88 63q27 -16 123 -79t122 -69q28 -6 36 -11t12 -17v-12q-4 -6 -31 -40t-31 -62q-4 -27 -7 -93t-5 -96l8 -15q-20 -39 -6 -75v-97q-10 -46 -7 -101q3 -56 2 -72q-2 -41 85 -101q29 -16 29 -62z" />
    <glyph glyph-name="ograve" unicode="&#xf2;" horiz-adv-x="1032" 
d="M582 1210q-29 -23 -64 13q-4 4 -14 8t-19 26q-18 20 -18 27q-14 12 -49 56t-50 60t-42 55q-27 40 -35 50t-32 32t-34 33q-34 37 -30 75q27 41 72 53t67 -4q8 -8 17 -33t28 -39q8 -14 16 -55q12 -14 21 -15q12 -29 23 -39t15 -26q4 -17 7 -21q2 -4 13 -22t9 -27
q17 -1 28 -25t15 -30q0 -10 4 -16q31 -38 53 -80t-1 -56zM629 762q0 31 -35 55q-16 8 -64 33q-95 51 -131 27q-20 -133 -16 -303t2 -259q0 -43 82 -73h20q11 -4 31 -12q63 -26 88 -1q37 289 23 533zM98 547q0 162 6 227q0 18 -16 60t-14 59q2 16 14 33q104 43 131 69
q36 6 61 21q25 14 33 18q9 4 23 16t18 17q29 29 47 44t29 32q35 35 82 14q182 -113 270 -149q54 -12 72 -20t32 -10q14 -1 37 -7q22 -6 27 -28q6 -22 4 -36t-12 -44q-10 -31 -17 -99t-3 -457q-3 -17 18 -40q20 -23 25 -34l10 -21q0 -17 -10 -22q-55 -35 -164 -94
q-109 -58 -143 -80t-54 -46t-37 -31h-32q-86 33 -195 94q-47 23 -141 55t-136 51q-8 7 -7 17t18 62q16 52 14 81q10 86 10 248z" />
    <glyph glyph-name="oacute" unicode="&#xf3;" horiz-adv-x="1032" 
d="M774 1645q4 -40 -31 -75q-9 -11 -33 -33t-32 -32t-35 -50t-42 -55q-15 -16 -50 -60t-49 -56l-19 -27q-7 -21 -17 -25t-15 -9q-35 -35 -61 -17q-42 29 48 140q4 6 4 16q4 6 12 21q16 34 31 34q-2 8 11 29t18 39q4 18 15 28t24 39l20 15q12 63 27 63q8 8 17 32t18 32
q23 16 67 4t72 -53zM629 762q0 31 -35 55q-16 8 -64 33q-95 51 -131 27q-20 -133 -16 -303t2 -259q0 -43 82 -73h20q11 -4 31 -12q63 -26 88 -1q37 289 23 533zM98 547q0 162 6 227q0 18 -16 60t-14 59q2 16 14 33q104 43 131 69q36 6 61 21q25 14 33 18q9 4 23 16t18 17
q29 29 47 44t29 32q35 35 82 14q182 -113 270 -149q54 -12 72 -20t32 -10q14 -1 37 -7q22 -6 27 -28q6 -22 4 -36t-12 -44q-10 -31 -17 -99t-3 -457q-3 -17 18 -40q20 -23 25 -34l10 -21q0 -17 -10 -22q-55 -35 -164 -94q-109 -58 -143 -80t-54 -46t-37 -31h-32
q-86 33 -195 94q-47 23 -141 55t-136 51q-8 7 -7 17t18 62q16 52 14 81q10 86 10 248z" />
    <glyph glyph-name="ocircumflex" unicode="&#xf4;" horiz-adv-x="1032" 
d="M772 1212q-29 -23 -63 13l-52 61q-14 12 -49 56t-44 54t-18 18q-17 17 -24 36t-30 41q-16 14 -23 22q-60 -67 -87 -109l-32 -48q-16 -14 -34 -41t-33 -39l-19 -27q-8 -21 -18 -25t-15 -10q-35 -35 -63 -12q-39 27 45 123q14 23 14 35q4 6 11 22q12 27 28 27q-3 12 18 42
t50 93q43 78 49 82t16 24t19 27q4 2 22 21t33 16q10 2 53 -26q8 -8 14 -28t26 -43q22 -25 33 -55t27 -44t19 -29q4 -16 11 -34t38 -48q4 -5 12 -21l11 -22q0 -10 4 -16q31 -38 53 -80t-2 -56zM629 762q0 31 -35 55q-16 8 -64 33q-95 51 -131 27q-20 -133 -16 -303t2 -259
q0 -43 82 -73h20q11 -4 31 -12q63 -26 88 -1q37 289 23 533zM98 547q0 162 6 227q0 18 -16 60t-14 59q2 16 14 33q104 43 131 69q36 6 61 21q25 14 33 18q9 4 23 16t18 17q29 29 47 44t29 32q35 35 82 14q182 -113 270 -149q54 -12 72 -20t32 -10q14 -1 37 -7q22 -6 27 -28
q6 -22 4 -36t-12 -44q-10 -31 -17 -99t-3 -457q-3 -17 18 -40q20 -23 25 -34l10 -21q0 -17 -10 -22q-55 -35 -164 -94q-109 -58 -143 -80t-54 -46t-37 -31h-32q-86 33 -195 94q-47 23 -141 55t-136 51q-8 7 -7 17t18 62q16 52 14 81q10 86 10 248z" />
    <glyph glyph-name="otilde" unicode="&#xf5;" horiz-adv-x="1032" 
d="M512 1278l-119 12l-76 4q-41 0 -64 -52q-15 -32 -17 -38q-5 -15 -12 -17q-6 -2 -23 3q-20 57 -18 81q3 23 15 53t70 153q20 36 61 36l72 -6q35 -2 68 -7t74 -7q52 -9 77 -8q25 2 62 -2t56 11t46 56q8 31 21 35q18 0 31 -16l6 -4q23 -41 -21 -129q-3 -6 -27 -62t-38 -73
q-14 -19 -32 -25t-58 -2q-53 0 -154 4zM629 762q0 31 -35 55q-16 8 -64 33q-95 51 -131 27q-20 -133 -16 -303t2 -259q0 -43 82 -73h20q11 -4 31 -12q63 -26 88 -1q37 289 23 533zM98 547q0 162 6 227q0 18 -16 60t-14 59q2 16 14 33q104 43 131 69q36 6 61 21q25 14 33 18
q9 4 23 16t18 17q29 29 47 44t29 32q35 35 82 14q182 -113 270 -149q54 -12 72 -20t32 -10q14 -1 37 -7q22 -6 27 -28q6 -22 4 -36t-12 -44q-10 -31 -17 -99t-3 -457q-3 -17 18 -40q20 -23 25 -34l10 -21q0 -17 -10 -22q-55 -35 -164 -94q-109 -58 -143 -80t-54 -46t-37 -31
h-32q-86 33 -195 94q-47 23 -141 55t-136 51q-8 7 -7 17t18 62q16 52 14 81q10 86 10 248z" />
    <glyph glyph-name="odieresis" unicode="&#xf6;" horiz-adv-x="1032" 
d="M244 1231h-23q-45 43 -80 92q-97 80 -86 117q4 12 13 14q76 53 127 119q41 45 71 31q40 -26 85 -77t65 -72t-4 -62q-23 -31 -75 -79q-51 -48 -67 -66t-26 -17zM741 1231h-22q-45 43 -80 92q-97 80 -86 117q4 12 12 14q76 53 127 119q41 45 72 31q42 -27 86 -78
q42 -50 62 -71t-3 -62q-23 -31 -75 -79t-66 -66t-27 -17zM629 762q0 31 -35 55q-16 8 -64 33q-95 51 -131 27q-20 -133 -16 -303t2 -259q0 -43 82 -73h20q11 -4 31 -12q63 -26 88 -1q37 289 23 533zM98 547q0 162 6 227q0 18 -16 60t-14 59q2 16 14 33q104 43 131 69
q36 6 61 21q25 14 33 18q9 4 23 16t18 17q29 29 47 44t29 32q35 35 82 14q182 -113 270 -149q54 -12 72 -20t32 -10q14 -1 37 -7q22 -6 27 -28q6 -22 4 -36t-12 -44q-10 -31 -17 -99t-3 -457q-3 -17 18 -40q20 -23 25 -34l10 -21q0 -17 -10 -22q-55 -35 -164 -94
q-109 -58 -143 -80t-54 -46t-37 -31h-32q-86 33 -195 94q-47 23 -141 55t-136 51q-8 7 -7 17t18 62q16 52 14 81q10 86 10 248z" />
    <glyph glyph-name="divide" unicode="&#xf7;" horiz-adv-x="1245" 
d="M526 805q-24 0 -37 -12q-12 -14 -12 -56v-49q-16 -118 -16 -373q0 -4 -11 -20t0 -29q11 -12 19 -12l123 -53q4 8 15 9t14 5q20 35 41 55q111 100 135 166q10 26 44 64t44 61q16 59 -42 119q-34 36 -87 72q-52 37 -92 47t-77 8t-61 -2zM98 188q44 34 50 60t8 72t5 66
q3 19 8 48q5 28 1 62t1 138t3 154q-12 72 -98 82q-14 -2 -20 14t-1 34q10 45 54 55q6 4 16 17q11 13 37 29q26 17 72 55t74 65t77 80t72 75q8 8 20 -7t5 -63t-5 -60t6 -51q4 -38 27 -51q22 -13 110 -8q89 5 121 3l29 -8q6 2 32 8t41 20t50 47q35 34 49 48t30 11t23 -14v-20
q-5 -8 -29 -41t-32 -57q-14 -78 37 -103q29 -11 72 -47q43 -37 60 -30t42 25q49 36 74 1q8 -49 -28 -75t-76 -78t-114 -126q-23 -30 -21 -74t36 -63q24 -55 92 -116q14 -14 14 -35q8 -18 52 -78t47 -98q-4 -27 -34 -75t-48 -65q-78 -132 -105 -162t-75 -95t-78 -97
q-9 -6 -25 -20t-29 -21q-39 -18 -96 12q-12 4 -45 31t-27 51q29 48 46 63q18 15 32 24q15 8 19 12t21 14t27 16t48 -1q39 -7 55 -1q61 33 61 104q-1 71 -42 124q-66 61 -140 149q-23 18 -34 6q-35 -8 -88 -45t-76 -47q-33 -19 -80 -67t-61 -62t-50 -24q-37 -11 -49 -15
q-53 27 -143 93q-91 66 -107 78q-16 11 -16 25q0 13 16 29z" />
    <glyph glyph-name="oslash" unicode="&#xf8;" horiz-adv-x="1257" 
d="M29 33q0 4 6 28q19 35 61 74q42 40 50 49t32 27q18 63 17 88q10 86 10 248t6 227q0 18 -16 60q-17 42 -15 59q2 16 15 33q104 43 131 69q39 6 62 21q24 14 32 18t22 16t18 17q4 4 20 19q14 16 18 18t20 19t19 20q35 35 81 14q182 -113 271 -149q76 -17 88 -29
q27 34 53 63q23 10 25 11q73 97 102 95q12 -1 33 -3q26 -8 22 -39t-24 -51q-41 -31 -129 -119q6 -20 -7 -64t-16 -55q-12 -121 -8 -510q-3 -18 18 -40q21 -23 25 -34l10 -21q0 -16 -10 -22q-53 -35 -164 -94q-111 -58 -143 -80t-53 -46q-20 -24 -37 -31h-33q-88 33 -195 94
q-70 34 -243 92q-11 -7 -21 -25t-12 -20q-43 -29 -51 -41q-20 -10 -23 -21q-12 -18 -53 2q-2 2 -8 6q-6 3 -6 7zM735 762q0 31 -35 55q-16 8 -64 33q-95 51 -130 27q-18 -111 -14 -373h2q8 8 22 27t24 29t58 44q33 39 137 137v21zM492 315q0 -43 81 -73h21q10 -4 41 -17
q51 -21 78 4q24 187 24 408q-6 -6 -14 -12q-8 -7 -13 -11q-6 -4 -52 -52t-70 -79q-2 -2 -10 -4t-15 -6q-2 -4 -6 -13q-4 -10 -11 -16t-54 -41v-88z" />
    <glyph glyph-name="ugrave" unicode="&#xf9;" horiz-adv-x="1230" 
d="M649 1210q-29 -23 -63 13q-4 4 -15 8t-18 26q-18 20 -18 27q-14 12 -50 56q-35 44 -50 60t-46 62q-31 47 -59 72q-72 68 -68 111q27 41 72 53t67 -4q8 -8 18 -33t27 -39q8 -14 17 -55q12 -14 20 -15q11 -29 23 -39t17 -28t17 -39q13 -20 11 -29q15 -1 27 -25t16 -30
q0 -10 4 -16q30 -38 52 -80t-1 -56zM475 874q0 -14 -1 -49t9 -65q-24 -82 -19 -192t3 -146q-20 -39 -16 -90q4 -50 4 -60t10 -21t12 -15q19 -25 67 -37t91 18q10 9 34 27q23 18 29 24t33 54q2 37 8 133l9 144q2 48 2 159t-13 131t-35 41q-22 20 -28 24q-47 47 -6 76
q74 49 225 119q25 21 72 -30q14 -15 24 -23q20 -10 133 -103q23 -18 6 -47q-6 -6 -28 -22t-25 -41q-12 -250 -31 -371q-10 -98 3 -186q11 -41 61 -75q51 -34 63 -69q16 -59 -45 -125q-14 -10 -59 -49t-78 -55h-28q-55 35 -135 117t-101 100q-39 26 -63 12t-68 -52
q-42 -38 -62 -51t-59 -53t-70 -53q-31 -8 -75 7q-23 12 -85 54t-102 60q-20 0 -28 15v26q47 89 41 211q-2 56 -3 74t-1 61q20 129 16 379q0 25 -10 32t-20 13t-26 8q-16 3 -30 5t-19 2q-18 2 -15 26t15 43q13 8 47 43t58 46t60 43t55 42q20 0 26 -6q62 -62 94 -75
q31 -13 41 -22q53 -48 68 -59q12 -16 12 -34q-4 -12 -26 -45q-22 -34 -21 -48z" />
    <glyph glyph-name="uacute" unicode="&#xfa;" horiz-adv-x="1230" 
d="M907 1645q4 -38 -30 -75q-10 -11 -34 -33t-32 -32t-35 -50t-42 -55q-15 -16 -50 -60t-49 -56l-19 -27q-8 -21 -18 -25t-14 -9q-35 -35 -61 -17q-42 29 48 140q4 6 4 16q4 6 12 21q16 34 31 34q-2 8 11 29t18 39q4 18 15 28t24 39l21 15q12 63 26 63q8 8 18 32q9 24 17 32
q24 16 68 4t71 -53zM475 874q0 -14 -1 -49t9 -65q-24 -82 -19 -192t3 -146q-20 -39 -16 -90q4 -50 4 -60t10 -21t12 -15q19 -25 67 -37t91 18q10 9 34 27q23 18 29 24t33 54q2 37 8 133l9 144q2 48 2 159t-13 131t-35 41q-22 20 -28 24q-47 47 -6 76q74 49 225 119
q25 21 72 -30q14 -15 24 -23q20 -10 133 -103q23 -18 6 -47q-6 -6 -28 -22t-25 -41q-12 -250 -31 -371q-10 -98 3 -186q11 -41 61 -75q51 -34 63 -69q16 -59 -45 -125q-14 -10 -59 -49t-78 -55h-28q-55 35 -135 117t-101 100q-39 26 -63 12t-68 -52q-42 -38 -62 -51t-59 -53
t-70 -53q-31 -8 -75 7q-23 12 -85 54t-102 60q-20 0 -28 15v26q47 89 41 211q-2 56 -3 74t-1 61q20 129 16 379q0 25 -10 32t-20 13t-26 8q-16 3 -30 5t-19 2q-18 2 -15 26t15 43q13 8 47 43t58 46t60 43t55 42q20 0 26 -6q62 -62 94 -75q31 -13 41 -22q53 -48 68 -59
q12 -16 12 -34q-4 -12 -26 -45q-22 -34 -21 -48z" />
    <glyph glyph-name="ucircumflex" unicode="&#xfb;" horiz-adv-x="1230" 
d="M926 1212q-29 -23 -64 13l-51 61q-14 12 -53 61t-53 62q-21 19 -28 40q-7 20 -28 38q-20 18 -26 26q-92 -104 -119 -157q-16 -14 -34 -41t-34 -39l-18 -27q-7 -21 -18 -26q-11 -4 -15 -9q-35 -35 -63 -12q-39 27 45 123q14 23 14 35q4 6 9 18q13 31 30 31q-3 11 18 41
q20 31 49 94q29 54 36 66t12 12q8 8 18 28t18 27q4 2 23 21t33 16q10 2 53 -26q8 -8 13 -28t27 -43q22 -24 25 -42q17 -43 33 -57t20 -29q4 -16 12 -34q7 -18 38 -48q4 -5 11 -21t11 -22q0 -10 4 -16q31 -38 53 -80t-1 -56zM475 874q0 -14 -1 -49t9 -65q-24 -82 -19 -192
t3 -146q-20 -39 -16 -90q4 -50 4 -60t10 -21t12 -15q19 -25 67 -37t91 18q10 9 34 27q23 18 29 24t33 54q2 37 8 133l9 144q2 48 2 159t-13 131t-35 41q-22 20 -28 24q-47 47 -6 76q74 49 225 119q25 21 72 -30q14 -15 24 -23q20 -10 133 -103q23 -18 6 -47q-6 -6 -28 -22
t-25 -41q-12 -250 -31 -371q-10 -98 3 -186q11 -41 61 -75q51 -34 63 -69q16 -59 -45 -125q-14 -10 -59 -49t-78 -55h-28q-55 35 -135 117t-101 100q-39 26 -63 12t-68 -52q-42 -38 -62 -51t-59 -53t-70 -53q-31 -8 -75 7q-23 12 -85 54t-102 60q-20 0 -28 15v26
q47 89 41 211q-2 56 -3 74t-1 61q20 129 16 379q0 25 -10 32t-20 13t-26 8q-16 3 -30 5t-19 2q-18 2 -15 26t15 43q13 8 47 43t58 46t60 43t55 42q20 0 26 -6q62 -62 94 -75q31 -13 41 -22q53 -48 68 -59q12 -16 12 -34q-4 -12 -26 -45q-22 -34 -21 -48z" />
    <glyph glyph-name="udieresis" unicode="&#xfc;" horiz-adv-x="1230" 
d="M383 1231h-23q-45 43 -79 92q-97 80 -86 117q4 12 12 14q76 53 127 119q41 45 72 31q42 -27 86 -78q42 -50 62 -71t-3 -62q-23 -31 -75 -79t-68 -66t-25 -17zM881 1231h-23q-45 43 -80 92q-97 80 -86 117q4 12 13 14q76 53 126 119q41 45 72 31q40 -26 85 -77
q44 -51 64 -72t-3 -62q-23 -31 -75 -79t-66 -66t-27 -17zM475 874q0 -14 -1 -49t9 -65q-24 -82 -19 -192t3 -146q-20 -39 -16 -90q4 -50 4 -60t10 -21t12 -15q19 -25 67 -37t91 18q10 9 34 27q23 18 29 24t33 54q2 37 8 133l9 144q2 48 2 159t-13 131t-35 41q-22 20 -28 24
q-47 47 -6 76q74 49 225 119q25 21 72 -30q14 -15 24 -23q20 -10 133 -103q23 -18 6 -47q-6 -6 -28 -22t-25 -41q-12 -250 -31 -371q-10 -98 3 -186q11 -41 61 -75q51 -34 63 -69q16 -59 -45 -125q-14 -10 -59 -49t-78 -55h-28q-55 35 -135 117t-101 100q-39 26 -63 12
t-68 -52q-42 -38 -62 -51t-59 -53t-70 -53q-31 -8 -75 7q-23 12 -85 54t-102 60q-20 0 -28 15v26q47 89 41 211q-2 56 -3 74t-1 61q20 129 16 379q0 25 -10 32t-20 13t-26 8q-16 3 -30 5t-19 2q-18 2 -15 26t15 43q13 8 47 43t58 46t60 43t55 42q20 0 26 -6q62 -62 94 -75
q31 -13 41 -22q53 -48 68 -59q12 -16 12 -34q-4 -12 -26 -45q-22 -34 -21 -48z" />
    <glyph glyph-name="yacute" unicode="&#xfd;" horiz-adv-x="1134" 
d="M852 1645q4 -40 -31 -75q-10 -11 -34 -33q-23 -22 -31 -32t-35 -50t-42 -55q-15 -16 -50 -60t-49 -56l-19 -27q-7 -21 -17 -25t-16 -9q-35 -35 -63 -13q-40 24 51 136q4 6 4 16q4 6 13 25q14 30 30 30q-2 9 11 31q14 22 18 38t15 27q11 10 24 39l20 15q12 63 27 63
q8 8 17 32t18 32q23 16 67 4t72 -53zM483 748q0 -32 -6 -62l6 -20q-14 -117 -10 -297q0 -2 8 -27q-11 -48 -9 -101q3 -53 3 -65q8 -41 84 -26q78 35 94 57q64 95 50 265q-4 60 8 134q-6 35 -1 104q5 70 0 104t-33 62t-61 32t-114 -42q-14 -18 -15 -20q6 -12 1 -39t-5 -59z
M999 475q0 -61 -4 -92q-1 -9 13 -29t10 -32q0 -36 -31 -56t-93 -39t-81 -47q-49 -14 -135 -59t-125 -59t-91 -48q-52 -35 -88 -54t-48 -32q-20 -14 -78 -43t-71 -45t-22 -26t-14 -26q-8 -25 15 -42q68 -41 69 -61q2 -14 -12 -27q-72 -55 -166 39q-35 41 -22 117q10 30 43 56
t38 34q74 92 46 270v62q20 104 10 186q-6 12 -6 47q6 61 2 324q-8 29 -47 55q-6 2 -23 10t-32 13q-14 6 -23 24q-18 49 61 96q29 23 69 75t66 73q74 43 111 -6q8 -10 47 -68q55 -80 121 -117q16 10 67 31t76 53q18 16 52 36t62 39q28 18 44 17l27 -6q16 -14 61 -49t92 -88
h15q75 -45 63 -88q-31 -31 -41 -55q-8 -48 -13 -138t-9 -127t-5 -98z" />
    <glyph glyph-name="thorn" unicode="&#xfe;" horiz-adv-x="1198" 
d="M188 498l-6 147q3 42 -17 62q-21 20 -28 28q-15 38 1 48q17 10 28 14q10 4 14 6q4 8 20 16t19 15q6 47 1 212q-5 166 -18 204t-52 82q-38 44 -46 55t-8 55q10 37 47 26q10 -6 50 -61q31 -14 46 -9t115 47t154 34q14 1 20 -19t-3 -58t-9 -73q-20 -207 -2 -346q0 -37 6 -41
q32 8 58 28t59 51q33 32 51 44t52 46t67 34q8 6 35 -6q76 -55 256 -150q32 -23 24 -46t-30 -52t-27 -47q-9 -254 -19 -364t5 -214q4 -16 20 -36t23 -33v-33q-25 -18 -81 -40q-123 -48 -200 -136q-2 -4 -11 -28t-39 -30t-67 15q-137 53 -207 59q-22 0 -30 -26t-10 -29
q1 -25 -9 -93t-2 -106q29 -96 105 -178q10 -8 -6 -29q-29 -16 -56 6q-52 61 -92 95q-39 34 -54 39t-61 -12q-47 -17 -61 -20t-63 -28q-27 -6 -35 17t0 45q41 123 37 378q0 3 -4 15t-4 17q-5 25 -27 36q-8 8 -35 6q-70 -5 -56 42q10 32 25 51q16 19 44 44t40 37q0 3 11 19
q10 16 26 62t16 106zM760 573q-10 37 -2 114t-2 120q-2 25 -22 41t-57 32q-36 16 -46 21q-45 -8 -96 -55q-45 0 -54 -120q-6 -77 -12 -95q12 -45 4 -162t-1 -152q8 -35 26 -46t49 -18t42 -11t29 -8t26 -5q8 -2 28 -9t31 -4q26 7 40 168q13 160 17 189z" />
    </font>
</defs>
</svg>
