<?xml version="1.0" standalone="no"?>
<!DOCTYPE svg PUBLIC "-//W3C//DTD SVG 1.1//EN" "http://www.w3.org/Graphics/SVG/1.1/DTD/svg11.dtd" >
<svg xmlns="http://www.w3.org/2000/svg">
<metadata>
Created by FontPrep 20130207 at Tue Dec  9 01:48:07 2014
 By Alexander Gunnarson
Copr. 1994 The Hoefler Type Foundry, Inc. http://www.typography.com
</metadata>
<defs>
<font id="71f0ce1482b97abc8589116de70aa183" horiz-adv-x='1024' >
  <font-face 
    font-family="Historical-FellTypeRoman"
    font-weight="500"
    font-stretch="normal"
    units-per-em="2048"
    panose-1="0 0 0 0 0 0 0 0 0 0"
    ascent="1638"
    descent="-410"
    x-height="842"
    cap-height="1303"
    bbox="-319.01 -539.2 3863.8 1829.09"
    underline-thickness="40"
    underline-position="-252"
    unicode-range="U+0020-FB02"
  />
<missing-glyph horiz-adv-x="1024" 
 />
    <glyph glyph-name=".notdef" horiz-adv-x="1024" 
 />
    <glyph glyph-name=".null" horiz-adv-x="0" 
 />
    <glyph glyph-name="nonmarkingreturn" horiz-adv-x="681" 
 />
    <glyph glyph-name="space" unicode=" " horiz-adv-x="348" 
 />
    <glyph glyph-name="exclam" unicode="!" horiz-adv-x="464" 
d="M246 205q54 0 76 -33q55 -117 -15 -158q-6 -6 -6 -18q-14 2 -64 -1t-75 11t-33 49t6 78t47 66q10 6 64 6zM287 555q0 -17 12 -53q0 -10 -20 -58q-10 -31 -43 -30l-27 6q-37 61 -37 164q-4 2 -1 19t3 20q-12 98 -24 290q-2 17 -14 67t-11 79q8 12 8 31q-14 47 -13 54t3 46
t5 57q10 61 50 82q12 -2 47 2q77 9 92 -33l13 -2q10 -16 15 -52t9 -48q-12 -33 -15 -90q-3 -56 -5 -74v-51q-8 -31 -6 -95t-9 -93q-6 -39 -8 -107t-4 -83t-11 -23t-9 -25z" />
    <glyph glyph-name="quotedbl" unicode="&#x22;" horiz-adv-x="749" 
d="M379 1284q9 -44 -19 -77q-10 -13 -28 -36t-26 -35t-22 -46q-13 -33 -24 -52q-14 -14 -32 -49t-33 -51q6 -10 0 -18l-13 -9q-4 -27 -26 -43q-37 -33 -60 -20q-45 23 10 113q2 2 5 23t14 38l16 16q-4 14 6 28q9 12 8 26t7 25t22 52l13 11l16 49q4 10 8 10q8 10 11 35t10 35
q23 18 43 16t94 -41zM682 1284q9 -43 -10 -66q-18 -24 -36 -47t-28 -35q-8 -12 -21 -46q-13 -33 -24 -52q-13 -14 -33 -49t-32 -51q6 -10 0 -18l-13 -9q-4 -27 -26 -43q-37 -33 -60 -20q-45 23 11 113q2 2 4 21t14 40l16 16q-4 14 6 28q9 12 8 26t7 25t22 52l13 11l16 49
q4 10 8 10q8 10 12 35q3 25 9 35q23 18 43 16t94 -41z" />
    <glyph glyph-name="numbersign" unicode="#" horiz-adv-x="1382" 
d="M877 834q-12 4 -15 4l-291 -7q-2 -2 -14 -6q-59 -190 -94 -333l250 6q49 -6 53 -6q11 35 111 342zM948 838q0 -16 -57 -183q0 -27 -12 -65t-15 -53l-4 -50q69 0 144 9q6 0 18 12h88q20 10 45 -5t25 -46q0 -80 -152 -43l-27 -6q-37 8 -170 8v-27q-48 -144 -114 -381
q-4 -29 -29 -42t-43 -5t-24 16q-5 7 -11 13t-3 29t15 50q11 27 15 39t34 62t33 76t17 84q24 24 8 49l16 29v2h-14l-145 -7q-10 0 -51 4t-70 -10q-14 0 -21 2q-33 -63 -79 -272q-2 -4 6 -21q-2 -16 -25 -86q4 -18 -18 -40t-52 -11q-78 23 3 158v27q16 31 61 180q-4 8 -4 33
q12 14 18 34q-53 -8 -78 -8h-45q-134 -34 -163 27q-16 70 22 75t100 -1q63 -6 86 -7l101 2q8 31 32 89t31 88q0 18 49 165q-25 4 -79 -8t-84 -2l-13 -6q-16 10 -51 -1q-66 -21 -76 28q-4 25 7 43q29 25 32 24l289 4q18 39 12 72q8 25 17 35q12 27 21 93t24 97q10 102 32 125
t39 27q29 -2 49 -11t15 -40q-4 -31 -28 -89t-29 -81q-31 -80 -80 -228l119 2q53 12 75 11q33 -14 76 0q33 0 49 -2q18 57 23 77q-2 3 -2 15v20q0 19 26 45q10 23 14 78q3 55 21 82q0 4 -2 8t6 11q8 8 7 44q-2 36 12 52t37 13t38 -19q16 -29 15 -37q-48 -200 -80 -276
q-31 -76 -43 -113h278q29 4 49 -16t16 -40q-3 -20 -9 -29t-6 -12q-27 -18 -48 -16l-44 4q-21 2 -33 3q-12 0 -70 14t-90 12q-23 -6 -72 -6z" />
    <glyph glyph-name="dollar" unicode="$" horiz-adv-x="1052" 
d="M774 219l6 31q25 55 23 67q-23 89 -30 97t-18 21t-16 24q0 -6 -8 -4q-29 29 -71 54t-54 34l-10 2q-4 -227 12 -330q-10 -49 -10 -119q16 2 37 6q70 27 139 117zM508 1139l8 67q-66 4 -104 -10q-41 0 -70 -33q-20 -16 -27 -18q-15 -23 -20 -36q-4 -13 -10 -27t-4 -21
q2 -6 4 -23q-12 -47 24 -98q68 -63 97 -72l6 -12q20 -4 45 -18t39 -19q12 4 26 -4q-4 88 2 135q0 16 -12 70q0 8 4 50q5 42 -8 69zM567 -252q-80 0 -43 152l-6 26q4 20 8 70q-10 0 -14 2q-41 -18 -63 4q-18 4 -89 26t-129 19q-31 -10 -43 -41q-35 -4 -47 2q-33 2 -32 39
q0 19 8 32t8 15q10 88 10 273q4 20 -6 34q4 6 11 22t20 31q12 15 18 13t19 -8q29 -131 75 -191q8 -12 18 -40t19 -38q33 -12 37 -12q61 -68 123 -74l57 -10v21q-12 12 -12 32q6 18 6 50q-10 10 -1 134t9 132q-12 70 -12 102q-4 0 -131 43q-20 8 -43 -2l-47 33q-49 35 -70 57
q-10 18 -47 69t-49 112q-6 8 -3 54t1 62q6 17 17 61q23 94 71 128q8 16 6 16q111 94 232 113q10 -2 51 -2q-2 6 -2 14q0 7 3 27t0 25t-7 27t-10 45t10 53t30 38q70 16 75 -24t0 -102q-7 -87 -7 -116q53 -16 82 -28q27 0 27 -19q2 0 14 -4q23 -25 47 -23t38 15q15 14 39 39
t34 33q12 20 18 4q2 -8 -2 -17q31 -125 6 -223q-4 -10 -7 -23l-4 -16t2 -43t-4 -58t-33 -25t-42 10t-31 48q-14 32 -24 44q-62 110 -113 145q-20 20 -53 35q-2 -174 4 -286t4 -124q12 -8 18 -10q82 -12 115 -55q37 -2 85 -43t58 -47q10 -19 39 -63t39 -76t2 -70
q19 -14 17 -34t0 -23t-10 -33t-13 -33q3 -20 -14 -72q2 -4 6 -4q-74 -103 -125 -137t-104 -50q-53 -18 -69 -24t-40 -8q0 -25 4 -74q0 -6 12 -18v-88q10 -18 0 -39q-20 -31 -51 -31z" />
    <glyph glyph-name="percent" unicode="%" horiz-adv-x="1587" 
d="M469 782q41 68 48 88t33 66t28 72q2 28 16 70t1 98t-67 51q-49 2 -120 -78q-34 -11 -48 -33q-14 -33 -19 -46t-29 -42t-29 -39q-47 -98 -72 -213q-2 -6 -23 -53v-66q4 -31 20 -53t44 -16q100 23 168 127q33 51 49 67zM1004 117q11 -83 63 -70q100 23 168 127q33 51 49 68
q41 68 48 88t33 65t28 73t16 69t1 97t-67 52q-49 2 -120 -78q-35 -12 -47 -33q-14 -33 -20 -45t-29 -42q-24 -30 -29 -39q-47 -98 -72 -213q-2 -6 -22 -54v-65zM111 590q1 8 -11 30t-15 62q-3 41 3 96t6 80q16 29 29 133q4 11 14 19t13 12q74 131 124 186v13q8 16 28 29
q135 86 200 75q111 -29 143 -60t51 -110q18 -80 0 -143q-20 -121 -78 -269q-18 -9 -33 -39t-21 -35t-13 -9q-6 -4 -10 -11q-3 -8 -13 -18q-10 -9 -17 -19t-19 -19t-23 -19t-45 -25q-35 -15 -54 -26t-32 -11q-8 -6 -47 -4t-51 0q-53 -10 -127 70q-2 4 -2 12zM489 2
q-15 -35 -47 -76q0 -20 -28 -34t-50 0q-67 44 42 153q0 12 6 27q38 38 106 157q-2 12 4 33q56 68 72 90t90 154q127 225 231 395l86 129q29 35 31 68q10 16 25 28q18 25 40 74t37 72q15 24 16 28t7 20l10 28q19 46 45 62q27 15 45 15q68 -20 53 -57t-73 -113t-166 -243
q-53 -106 -71 -136t-68 -117q-49 -87 -55 -97t-78 -127t-86 -144q-16 -20 -39 -63l-39 -62q-49 -55 -148 -243q-2 -2 2 -21zM926 50q0 9 -18 42t-8 117q9 84 9 108q16 29 29 134q4 10 14 18t13 12q74 131 125 187v12q17 33 131 87q55 24 96 17q111 -29 143 -60t51 -110
q18 -80 0 -143q-20 -121 -77 -268q-18 -8 -34 -39t-22 -36t-12 -8t-10 -11q-4 -9 -14 -19t-16 -19q-7 -9 -19 -19q-13 -10 -19 -15q-6 -6 -21 -14t-27 -15t-29 -13q-17 -7 -36 -15t-25 -12t-44 -1q-39 2 -51 0q-53 -10 -127 70q-2 4 -2 13z" />
    <glyph glyph-name="ampersand" unicode="&#x26;" horiz-adv-x="1574" 
d="M556 686q-7 0 -17 14q-45 83 -109 52q-25 -12 -33 -25t-49 -45v-18q-8 -20 -33 -66t-31 -70t0 -65q5 -41 5 -53l12 -19q14 -76 25 -88q57 -57 88 -90q102 -76 196 -51q113 23 134 34q22 11 34 21t41 25q7 14 19 20q12 14 6 36t-15 32q-8 10 -30 36t-28 47q-7 21 -13 29
q-14 19 -33 35q-19 17 -68 103q-14 20 -50 50t-44 38q0 18 -7 18zM750 1071v76l-16 32q-9 19 -15 31q-45 41 -94 33q-82 -20 -115 -94q-29 -74 22 -145q-4 -27 27 -59t37 -44q2 0 26 -10t31 4q47 35 95 119q2 4 2 57zM1493 842v-29q-6 -4 -45 -22t-57 -33q-66 3 -142 -75
q-37 -38 -50 -47q-13 -10 -25 -24t-23 -18q-8 -35 -44 -86q-36 -50 -46 -66q-20 -20 -21 -24l-12 -6v-39l19 -37h12q88 -96 215 -148q29 -14 43 -6q63 16 127 68q10 4 24 4t15 -4q33 -53 0 -107q-20 -14 -21 -24l-12 -8q0 -12 -6 -19q-8 -6 -49 -30t-62 -39t-47 -18t-33 -5
q-53 -16 -114 12h-25q-4 2 -21 12t-23 15q-51 32 -69 76l-12 6q-6 8 -9 26q-3 19 -7 23t-11 8q-6 4 -16 16t-33 10t-37 -32q-14 -32 -50 -62t-98 -65t-81 -47q-31 0 -113 -12t-128 -6q-68 23 -113 45q-70 59 -82 75q-17 32 -39 46q-30 20 -43 81q-2 11 -25 84q-2 12 2 76
q0 117 7 139q45 121 77 164q43 63 101 80v14q16 8 51 24t51 26q6 6 6 57q-4 10 -22 22t-21 15q-4 8 -15 22t-14 30q-3 15 -14 75t13 102l12 12q2 4 13 28t26 28v12q10 4 22 17q11 12 17 16t16 17t21 13h14q31 37 125 37q27 4 74 1t71 -1q7 -3 63 -29t70 -61q12 0 13 -6v-12
q31 -31 55 -133q6 -27 -18 -76v-21q-10 -33 -27 -49q-12 -6 -12 -18q-66 -55 -127 -70q-55 -27 -39 -69q10 -20 26 -31q11 -10 15 -39t10 -37l25 -8q109 -109 137 -158q31 -31 51 -26q6 0 18 12q29 45 70 76v18q10 8 32 34t46 30q0 10 7 30t8 32t-9 32h-10q-86 0 -90 39
q-4 23 13 41t42 23t72 6t66 9q20 8 36 1q16 -6 25 -7q74 18 151 19q37 0 37 -47z" />
    <glyph glyph-name="quotesingle" unicode="'" horiz-adv-x="415" 
d="M379 1284q9 -44 -19 -77q-10 -13 -28 -36t-26 -35t-22 -46q-13 -33 -24 -52q-14 -14 -32 -49t-33 -51q6 -10 0 -18l-13 -9q-4 -27 -26 -43q-37 -33 -60 -20q-45 23 10 113q2 2 5 23t14 38l16 16q-4 14 6 28q9 12 8 26t7 25t22 52l13 11l16 49q4 10 8 10q8 10 11 35t10 35
q23 18 43 16t94 -41z" />
    <glyph glyph-name="parenleft" unicode="(" horiz-adv-x="595" 
d="M504 -246l12 -6q31 18 57 0q31 -12 36 -38t-6 -48q-11 -23 -32 -26q-21 -2 -63 6t-60 6t-60 3t-56 -1q-10 0 -26 3t-56 -1q-137 -13 -154 59q-14 31 -4 132t5 159t-5 293l6 27q-8 16 -10 49t-7 47t0 29q5 14 8 23t0 93t-7 132t0 252t2 247t-11 77t16 59q25 24 69 26
t116 4q70 2 90 4t29 2l33 -2q10 6 33 6q4 -6 20 -6q10 4 76 4q23 -6 30 -39t-32 -67l-120 -7q-30 0 -56 9l-23 -13q-12 0 -53 4t-65 -3t-37 -35q0 -25 -6 -108t3 -103q9 -22 15 -38t6 -96l-10 -20q-4 -70 1 -91t-4 -49t-1 -58t7 -92q-1 -64 8 -115t-7 -109q-6 -31 1 -83
t7 -73l-10 -16q2 -22 -5 -94t3 -95v-32q2 -13 -5 -53t-1 -64q6 -55 57 -66q25 -2 92 5t111 -17q4 4 43 4z" />
    <glyph glyph-name="parenright" unicode=")" horiz-adv-x="595" 
d="M463 1290q0 -12 3 -21t-4 -31t-7 -30q-4 -274 26 -473q6 -51 -6 -111t1 -109t7 -119t4 -105q-10 -40 -8 -84q2 -43 1 -197t2 -204t3 -65v-22q0 -52 -26 -71q-59 10 -82 6q-14 -8 -44 -10t-42 -6q-20 12 -85 6t-85 -4l-12 6q-8 -4 -64 -4l-10 4l-6 -4q-4 4 -33 22t-28 30
q1 7 7 17q5 5 9 13t8 10q45 8 76 8q18 6 79 4t79 1t48 5q28 2 48 5t35 19t12 34q-10 32 -3 72t7 59l-2 77q4 6 0 32t-1 42t-3 62q-6 45 -5 63q6 16 7 43l-11 21q0 77 8 119t-6 171l7 514l2 64v53q-12 35 -60 45q-20 4 -50 -1t-56 14q-152 -14 -215 22q-16 10 -17 32
q0 48 90 40q47 -4 74 2q52 -11 141 -10q88 2 115 2q64 -16 70 -38q2 -8 2 -20z" />
    <glyph glyph-name="asterisk" unicode="*" horiz-adv-x="733" 
d="M375 926q0 -145 -135 -238q-10 -6 -27 6q-16 12 -16 21q6 73 51 139t110 104q17 1 17 -32zM711 975q-23 -45 -66 -47t-105 18t-89 21q-8 0 -9 -17q8 -18 38 -43t35 -36t28 -59t16 -89q-6 -12 -27 -21t-47 24q-26 32 -27 48t-27 76t-15 100q4 18 -27 28t-57 -3
q-150 -29 -271 -8q-16 16 -16 34q86 104 303 9q8 0 17 13q8 13 2 19q-47 41 -75 72t-48 79t-13 95q3 0 13 6t20 2q49 -18 72 -62t38 -99t42 -84q4 0 12 14t14 20q35 139 101 177q12 8 32 4t27 -21q0 -69 -50 -122t-101 -97q8 0 10 -12t6 -13q90 55 219 9q25 -12 25 -35z" />
    <glyph glyph-name="plus" unicode="+" horiz-adv-x="2039" 
d="M362 502l5 20q10 8 92 90q57 41 65 54q6 4 6 16q37 37 45 53q7 15 5 31l-7 12q-59 29 -133 23q-27 -10 -45 -11q-17 -2 -37 -14t-30 -12q-25 -12 -33 -21q-16 -27 -27 -36q-108 -173 -63 -285q3 -19 10 -24q6 -5 20 -1t38 27t35 30q12 7 28 23t26 25zM862 -256
q-28 0 -176 12q-145 33 -164 34t-55 24q-31 25 -160 98q-10 6 -33 43q-4 2 -14 10t-16 12q-66 86 -84 136q-6 4 -17 14q-10 16 -17 49t-9 39q-45 164 10 342v33q6 12 27 61t45 76q61 82 108 113q47 23 61 33t39 22q26 12 46 29q13 0 79 4t80 0q72 -4 125 -19q47 20 119 111
q9 14 36 38q26 24 38 38t52 50q59 53 81 103q-2 14 1 24t-18 22q-20 13 -47 24q-37 21 9 69q24 24 54 30t50 22t34 18t47 9q32 7 42 11t19 -1q10 -4 18 -2t88 2q25 -4 28 -35t-8 -51q-8 -35 -53 -69t-67 -71q-6 -6 -22 -11t-22 -11q-7 -6 -33 -31t-38 -37q-50 -50 -117 -88
q-72 -90 -125 -127l-43 -43q-6 -8 -12 -24t-10 -25q-53 -47 -66 -74q-49 -55 -145 -121q-6 -6 -17 -32q-14 -12 -43 -48t-49 -53q-92 -62 -104 -74t-15 -22q-2 -10 -20 -19q-19 -9 -46 -38t-87 -90q-12 -31 -10 -33q16 -37 47 -76q0 -10 8 -20t55 -43q5 -8 17 -18
q12 -11 16 -15q57 -31 87 -41t96 -42q67 -32 126 -28q25 -18 62 -15t48 1t29 -3q21 -1 81 7q60 9 94 14q34 4 100 29q45 8 100 44t78 49t32 21t24 22q15 13 24 22q44 57 50 82q7 26 24 51q16 25 20 37q0 26 11 76t12 76q0 26 -21 73q-16 20 -29 61q-12 41 -22 58
q-35 35 -113 76q-82 29 -155 28q-10 0 -37 -16q-66 -8 -86 -25q-62 -51 -80 -124t12 -111q57 -57 103 -23q6 6 27 34q22 28 36 40q45 27 82 0q37 -37 41 -43q10 -39 6 -66q-16 -55 -72 -90q-29 -14 -89 -14t-83 16h-14q-14 6 -37 29t-28 27q-98 111 -50 268q18 39 27 63
q31 66 115 101q2 2 4 7t37 31t71 35l60 7q94 10 114 4q20 -7 31 -13q37 0 53 -7q98 -43 105 -50q8 -8 14 -16t19 -9q10 -8 41 -38t51 -41q20 -12 40 -37q21 -24 27 -31q16 -6 33 -16q53 -66 96 -66q39 -8 80 16q35 35 27 74q0 26 -20 42t-54 34q-31 25 -25 70q5 45 27 61
t80 29q23 0 53 -18t43 -42q70 -193 -35 -262q0 -12 -10 -22t-12 -15q-10 -12 -32 -24t-32 -25q-23 -15 -52 -17q-29 -1 -49 -3q-65 -7 -121 20t-69 31t-25 -7t-11 -24q6 -195 -58 -327q-2 -3 -10 -5t-12 -6q-10 -38 -28 -58q-19 -20 -47 -64t-44 -64q-38 -33 -58 -45
t-60 -48t-61 -37t-32 -18q-42 -14 -86 -47h-22l-54 -26q-6 -3 -57 -17q-50 -14 -78 -14z" />
    <glyph glyph-name="comma" unicode="," horiz-adv-x="485" 
d="M356 178q0 -12 6 -18l9 -4q67 -115 16 -234q-11 -39 -23 -49t-12 -25q-40 -57 -111 -95q-17 -9 -71 -36q-25 2 -78 -2t-76 2q-43 12 -28 64q10 20 51 35q147 20 188 102l13 6l14 27q12 25 8 41q-10 37 -45 26q-23 -4 -31 -1t-22 11t-25 11q-33 45 -34 97t38 89
q59 8 140 -2q43 -8 53 -39q8 -6 20 -6z" />
    <glyph glyph-name="hyphen" unicode="-" horiz-adv-x="514" 
d="M218 383q-12 0 -72 -3q-61 -3 -105 17q-27 57 43 107q6 4 59 14q27 2 151 0t150 -2q27 -24 17 -56t-39 -57q-55 -41 -146 -10q-10 4 -28 -3t-30 -7z" />
    <glyph glyph-name="period" unicode="." horiz-adv-x="423" 
d="M295 35v-12q-29 -41 -102 -19q-11 4 -31 22t-30 22q-10 5 -12 15q-3 10 -9 17q-25 29 2 90q10 43 47 66t80 8q55 -10 82 -45q45 -78 -9 -140q-18 -18 -18 -24z" />
    <glyph glyph-name="slash" unicode="/" horiz-adv-x="829" 
d="M193 -193v27q16 31 61 180q-4 8 -4 33q41 86 48 110t45 168q38 145 43 159t38 137t41 145l49 147q18 39 12 72q8 25 17 35q12 27 21 93t24 97q10 102 32 125t39 27q29 -2 49 -11t15 -40q-4 -31 -28 -89t-29 -81q-31 -80 -80 -228q-25 -117 -50 -202t-38 -145t-53 -188
t-46 -152t-20 -76l-21 -70q-33 -63 -79 -273q-2 -4 6 -20q-2 -16 -25 -86q4 -18 -18 -40t-52 -11q-78 23 3 157z" />
    <glyph glyph-name="zero" unicode="0" horiz-adv-x="1013" 
d="M252 375l-2 -51q0 -35 33 -68v-20q20 -49 57 -76q12 -6 41 -12t41 -13q106 -29 209 41h24q45 29 52 57l12 7q3 8 19 28t20 35v25q76 160 -74 303q0 14 -6 20q-10 3 -24 17t-27 14l-6 14q-74 31 -132 25q-123 -12 -190 -113l-14 -6v-18q-6 -6 -25 -43q-14 -104 -8 -166z
M459 -31l-33 13h-18q-49 29 -70 38q-44 0 -60 14q-15 14 -22 13q-41 27 -57 51q0 14 -5 18q-6 4 -12 7q-25 15 -88 166q-10 23 -13 53t-5 44t4 51q6 36 2 66t18 75q23 45 27 57l12 6l14 28q9 19 15 28l15 23q9 14 21 21q12 9 32 27q18 18 26 25q12 0 19 6l6 12q3 2 29 18
t40 19q29 0 78 11t70 14q22 3 62 -10t54 -15t44 -18t41 -21q45 -10 61 -45q20 0 27 -6l6 -13q14 -4 31 -22t24 -23q41 -41 64 -120q57 -206 -23 -342q0 -25 -6 -37q-45 -45 -64 -76l-12 -6q0 -18 -6 -25q-9 -4 -23 -19t-28 -20l-6 -12q-23 -13 -65 -25t-60 -22t-84 -27h-82z
" />
    <glyph glyph-name="one" unicode="1" horiz-adv-x="784" 
d="M84 -33q0 51 5 55q36 33 58 27q98 -16 127 31q8 12 4 44q-5 32 -4 44q6 12 7 76q-6 40 1 114t7 95q-13 12 -13 30t5 96t-15 134q-39 18 -121 18q-45 20 -49 33q0 2 -5 14t-9 25t14 24q61 31 127 13q19 -10 69 -1t68 2t72 9h62q40 -8 76 -3q100 14 132 -50q-6 -6 -6 -13
l6 -6q-14 -23 -57 -37q-31 0 -121 -12q-31 -6 -43 -57q-8 -25 -2 -75t0 -77q0 -82 6 -125q0 -20 -14 -63q0 -63 5 -90t-1 -69q-6 -41 -3 -71t32 -40t73 -11q44 0 64 -12q45 -14 37 -57q-6 -18 -45 -31q-25 0 -37 6q-27 4 -77 2t-75 0l-57 -12q-100 0 -151 -6l-33 6
q-20 -8 -33 -8l-68 10q-4 0 -11 7t-7 11z" />
    <glyph glyph-name="two" unicode="2" horiz-adv-x="831" 
d="M624 -31q-18 0 -73 8q-51 -10 -132 -9t-134 -1q-49 -12 -72 -12t-35 25q0 29 19 38l14 7q2 2 4 9q6 21 21 21q0 12 6 21q14 14 57 43v12l13 19q9 14 14 20q51 51 63 119q4 23 6 30v21q1 3 13 31v18q29 49 8 139l6 19q-4 27 -17 37q-14 10 -26 20q-13 10 -21 15t-36 5
t-41 -8q-15 -10 -25 -10t-10 -12q-14 -8 -62 -28t-71 -42v-12q-23 -8 -36 7t-9 38q20 123 122 201q74 59 94 62t73 13q61 11 130 -14q16 -15 41 -25q25 -11 41 -32v-12q12 -12 37 -64q18 -18 19 -20q2 -22 1 -88t5 -89q-11 -16 -27 -59q-35 -91 -82 -117q-4 -25 -43 -61
q-39 -37 -41 -59q0 -2 2 -7q12 -42 37 -36t76 6q82 -8 240 -9q10 0 45 31q18 0 20 11t22 15t27 -1q20 -20 6 -51q-10 -12 -50 -56t-46 -55q-6 -10 -16 -35t-29 -24q-130 -13 -148 -13z" />
    <glyph glyph-name="three" unicode="3" horiz-adv-x="737" 
d="M180 758q25 0 25 24l45 31h18q82 47 204 11t157 -134q29 -74 -8 -194q-1 -6 -9 -24t-12 -28q-29 -35 -63 -88l-13 -6v-12q-41 -27 -45 -31t-38 -37t-38 -57q17 -18 61 -45t50 -32t8 -11t6 -8h15q78 -89 98 -230q3 -3 -6 -30q0 -121 -90 -222h-13q-51 -47 -114 -67
q-14 -6 -101 -6l-45 -2q-10 0 -21 5t-46 13q-68 16 -74 60q-2 23 16 26q29 0 33 1t35 -13t39 -17t31 1t33 8t31 15q22 11 32 15l12 19q19 0 21 7t13 20t11 24l13 6q45 125 2 191l-13 6q-25 88 -133 114q-61 13 -77 13t-48 20h-32q-14 14 0 43q37 43 139 94q8 6 20 19h13
q12 6 63 57q12 0 18 6q82 78 91 176q10 76 -37 127q-25 25 -37 31q-80 37 -146 21q-32 -10 -72 -50t-60 -50q-20 -9 -29 6q-10 15 -11 38q16 68 45 82q5 2 7 14t14 25q12 12 12 25z" />
    <glyph glyph-name="four" unicode="4" horiz-adv-x="1042" 
d="M504 395v70q-2 4 -6 25t-25 26h-12q-63 -43 -90 -108q-6 -6 -13 -7q-14 -16 -26 -49l-13 -6q-5 -28 -25 -48q-20 -22 -24 -28t-28 -43t-25 -69q0 -2 19 -21q4 -14 40 -6t46 6t32 -4t33 -16q15 14 21 14t22 -2t29 -4t37 16q12 21 9 57t-3 46l6 12q-10 34 -7 80q3 47 3 59z
M610 807q14 0 29 -8q31 -10 18 -64q-31 -74 -14 -133q10 -53 -6 -94v-25q25 -53 15 -99t1 -155q0 -51 19 -88q96 -23 180 -7t131 61q2 2 6 10t9 14q4 5 12 23q23 55 49 55q12 -1 17 -19t1 -28t-7 -20l-8 -28q-5 -18 -7 -98t-23 -118q-34 -4 -102 -4t-101 -7q-10 0 -24 7
q-6 0 -52 2t-60 -13q-13 -15 -14 -39t5 -38l-2 -50q0 -152 7 -182t-7 -72q-35 -47 -154 -18q-4 2 -18 33q0 4 3 38t-1 38q-4 45 3 145t2 114q-5 13 -10 20t-7 11q-18 12 -70 13q-47 -6 -185 -3t-169 1t-40 8t-9 16q-23 47 39 94q8 10 23 38t34 38q6 6 6 19q15 9 35 39t30 39
t11 36q6 13 25 31q20 18 26 30t19 32q13 19 20 32l12 6q1 16 17 36q16 21 16 28q6 12 31 24v13q6 12 59 75q0 2 8 14t17 17q12 0 18 6q10 37 33 52v12q9 9 27 34q40 56 77 56z" />
    <glyph glyph-name="five" unicode="5" horiz-adv-x="808" 
d="M352 123q0 92 -88 239q-6 8 -18 21q0 13 -22 35t-91 92h-12q-27 28 -31 60t25 55q8 4 49 19t59 30q8 12 34 27t36 28q35 62 57 121q14 28 32 20q31 -13 62 -53q18 -14 60 -16t49 -4q115 -33 188 0h64q0 -25 3 -42t-19 -53t-35 -63l-6 -27l-19 -12q0 -18 -8 -18
q-35 0 -48 -3t-48 4t-46 9t-74 19t-99 18l-7 12q-49 12 -69 -6q-19 -19 -19 -29q1 -10 9 -28t10 -19q53 -47 157 -190q0 -6 -2 -13q4 -6 19 -26t26 -88q12 -27 8 -117t-3 -117q-10 -16 -38 -82t-71 -94v-14q-10 -10 -33 -22t-27 -18t-12 -14t-19 -17t-18 -15h-12
q-23 -14 -40 -20t-35 -22t-31 -16q-12 0 -55 -8t-60 17q-29 29 0 49l31 6q12 6 36 16q23 10 33 18t44 28q61 40 68 78q3 18 10 20t8 7t11 24q27 57 27 194z" />
    <glyph glyph-name="six" unicode="6" horiz-adv-x="946" 
d="M430 666q-26 0 -54 -18t-28 -44q-12 0 -18 -6q-64 -109 -64 -153q0 -15 -4 -39t11 -106q15 -81 32 -132q4 -12 14 -12v-15q2 -6 31 -49q39 -47 115 -57q27 -2 49 12q43 20 73 55t29 76q53 61 46 107q0 12 6 45t1 49t-5 48t-6 44t-20 54q-14 43 -26 57q-57 71 -82 86
q-25 16 -55 16l-31 -6q-14 0 -14 -12zM637 1006q-8 0 -20 -14q-11 -14 -51 -51q-40 -38 -58 -60q-4 -5 -12 -7t-13 -6l-14 -24l-12 -6v-15q-47 -47 -25 -82q12 -12 37 -9q24 3 51 3t88 -26h25q25 -25 39 -25l6 -12q33 -14 49 -39q12 0 18 -6q76 -86 95 -197q6 -14 18 -39
q0 -18 1 -22q1 -5 -6 -21t-8 -24t2 -30t0 -32t-13 -37t-15 -43l-12 -12q-25 -63 -57 -82v-12q-86 -94 -230 -125q-14 -4 -43 2t-33 6q-154 12 -200 88q-6 0 -13 2q-76 47 -127 182q-4 3 -1 51t3 58q-16 147 46 297q6 4 20 49q14 25 49 94t78 103v12q4 4 20 12q16 29 58 67
q41 38 57 58q19 0 24 12t7 15q47 18 76 55q58 46 135 81q78 35 94 44q144 77 191 18q12 -18 -15 -45q-76 -41 -164 -100q-18 -14 -26 -31q-14 -12 -49 -27q-35 -16 -45 -24t-14 -16q-3 -8 -11 -8z" />
    <glyph glyph-name="seven" unicode="7" horiz-adv-x="903" 
d="M670 860q10 0 32 -14q37 0 58 6l69 -6q19 0 31 -25q6 -29 -20 -76v-20q-25 -43 -32 -82q-8 -39 -22 -65t-16 -35q-12 -100 -65 -201q-2 -10 -6 -36t-27 -60q-12 -61 -25 -88v-25q-17 -33 -35 -94t-22 -73t-14 -25q-10 -14 -13 -23v-37q-47 -135 -53 -170q-8 -57 -82 -45
q-23 10 -29 34t2 41q56 119 60 165q13 27 26 33q3 40 52 137q1 12 39 101t74 189t48 132t14 55q3 23 5 35q12 12 12 24q6 33 -18 39q-14 5 -41 13t-41 12q-63 4 -187 -9t-137 -13q-12 0 -52 2q-40 3 -48 -1t-25 -17t-51 -28q-16 0 -45 -49q0 -6 -14 -20t-26 2q-13 16 15 73
v27q12 18 30 59q17 41 30 60q14 14 29 46q14 32 22 42v20q47 94 82 68q12 -14 7 -34q-14 -56 24 -66q33 -6 111 9t110 -5q86 18 164 18z" />
    <glyph glyph-name="eight" unicode="8" horiz-adv-x="954" 
d="M297 281l-6 -19q16 -81 26 -98q10 -18 25 -29q4 -63 119 -96q94 -20 170 24q12 12 45 76l12 6q0 14 12 48q16 45 4 91t-14 61q-8 61 -70 116q-19 16 -49 36t-39 29l-6 13q-12 2 -45 20t-45 15t-21 -6t-16 -23q-6 -19 -30 -43q-16 -8 -19 -14q-4 -7 -20 -31
q-29 -66 -33 -176zM535 672q25 0 41 17t33 53t28 49q25 49 27 78t6 51t-25 122q-6 12 -51 78q-6 6 -31 19l-6 12h-18q-39 31 -93 29q-53 -2 -59 -2q-98 -72 -123 -146q-37 -134 88 -278h13q37 -38 56 -48t48 -19t41 -15h25zM872 301v-49l-24 -57v-31q-12 -14 -35 -46
t-33 -42t-24 -26t-17 -19q-14 0 -20 -6q-6 -12 -31 -25q-41 -14 -57 -25h-19q-10 -4 -29 -13t-28 -11q-143 -12 -215 6q-6 8 -6 14q-6 6 -19 6q-47 45 -108 64q-6 6 -6 12q-6 6 -19 6q-67 105 -67 217q4 16 7 65t32 87l6 25q6 10 22 25q16 16 26 28t91 59q12 17 3 31t-21 20
q-45 10 -62 37q-12 14 -50 51t-50 70l-15 8q-2 8 -13 35t-11 41l2 70v55q2 23 24 61t27 60l12 6q8 25 45 49v15q57 45 127 73q106 35 177 19q12 -2 67 -6t98 -27h19q8 -4 20 -16t23 -17q4 -4 6 -10q1 -6 15 -12q44 -20 80 -114q14 -40 18 -47t4 -32t3 -40t-8 -47t-12 -46
q-12 -27 -26 -51q-33 -43 -109 -107h-12q-2 -2 -16 -9t-15 -13q0 -6 4 -27q16 -16 21 -27h12q6 -12 12 -18q12 0 19 -6q33 -33 57 -51l19 -6q12 -16 36 -52q7 -20 23 -61t22 -59q-2 -18 -2 -64z" />
    <glyph glyph-name="nine" unicode="9" horiz-adv-x="919" 
d="M213 496q0 -145 88 -179q13 -18 25 -62t24 -62q46 -68 110 -75q122 -13 169 91l12 6q4 12 16 35q13 23 17 35q24 169 -25 258v20q-12 23 -40 71t-40 75q-8 6 -32 18l-7 12q-4 2 -22 13t-41 8q-51 -14 -75 -32t-62 -38q-39 -20 -54 -31q-63 -63 -63 -163zM291 786l12 13
h19q31 22 75 27t58 10q12 0 26 -7q86 0 146 -32h18q125 -80 164 -172q-2 -6 -2 -25q37 -72 43 -154q0 -214 -64 -333q-14 -25 -20 -37v-27l-12 -6q0 -37 -27 -49v-21q-2 -4 -13 -12t-12 -18l-12 -6q0 -12 -8 -19l-12 -6v-14q-14 -18 -47 -66q-71 -103 -138 -141v-13
q-10 0 -26 -24q-36 -12 -59 -39t-33 -35t-72 -39l-19 -18q-10 0 -19 -9q-62 -62 -140 -10q-25 18 26 70q47 25 121 88q0 12 6 19q76 61 106 95t52 57q23 22 33 36q12 25 26 31v18q16 14 41 46t37 47t1 33t-34 13q-27 -12 -69 -9q-41 3 -51 3q-21 -10 -44 2t-63 25
q-31 14 -63 57q-12 0 -19 6l-6 13q-6 8 -18 8q-7 4 -17 16t-15 16t-11 13q-6 10 -9 12q-4 2 -4 14t-2 17q-33 51 -43 127q-18 76 0 151q4 10 22 52t20 52q2 11 10 15t8 8q41 92 133 131z" />
    <glyph glyph-name="colon" unicode=":" horiz-adv-x="423" 
d="M215 -6q-61 0 -100 39v24q-41 98 20 140q0 29 36 33q9 1 15 2t18 -2t24 -5q13 -2 28 -10h18q38 -14 50 -63q0 -45 -25 -107q-23 -51 -84 -51zM309 709q-16 -41 -51 -67t-78 -22t-61 31q-5 11 -15 27t-10 18q-10 59 6 82q0 2 8 14t15 23q6 12 27 17q20 6 29 10t48 -15h27
q69 -59 55 -118z" />
    <glyph glyph-name="semicolon" unicode=";" horiz-adv-x="485" 
d="M442 10q0 -90 -32 -145v-25q-27 -66 -45 -88q-66 -74 -209 -131q-25 -4 -43 15q-19 19 -17 35t6 18t10 4t12 19q7 17 33 30q25 14 41 22t20 14q5 6 23 36q17 29 35 41q0 18 3 24q39 66 18 107q-12 4 -107 20q-44 8 -68 48t-18 88t68 73q59 18 115 -2q66 -10 82 -63
l18 -13q0 -18 7 -18t12 -8q4 -9 6 -17t16 -37t14 -47zM214 600q-48 0 -85 43q-66 77 16 172q15 15 31 39q41 18 76 -2q2 -2 6 -8t8 -10q70 -48 80 -134q3 -24 -21 -46q-23 -22 -43 -38t-68 -16z" />
    <glyph glyph-name="less" unicode="&#x3c;" horiz-adv-x="1058" 
d="M41 418q0 43 22 54q87 44 108 70q21 27 64 41t70 33t45 29t53 2t70 31q15 16 35 26t38 24q18 13 42 26q25 13 54 29t61 21t48 28q15 24 27 29t35 -9t32 -34q9 -19 7 -45t-17 -34t-39 -10q-46 -4 -74 -32t-79 -48q-50 -20 -87 -42t-72 -27q-34 -5 -60 -25q-46 -36 -92 -44
t-59 -34q-26 -50 -65 -41q-18 4 -28 2t-7 -20t11 -24t28 -12q20 -5 36 -13q16 -9 36 -17t42 -18l73 -37q18 -10 51 -16t54 -29q22 -22 42 -32t38 -23q20 -13 38 -21t34 -20t34 -20t43 -3q25 6 41 -2l66 -33q12 -6 13 -32t-11 -46q-12 -30 -40 -18t-54 10q-27 -2 -46 8
l-81 37q-19 9 -35 21t-34 22t-32 28q-24 33 -73 38q-48 4 -67 32q-18 28 -38 38t-46 7t-45 6t-33 25t-32 24q-16 8 -32 20q-26 18 -56 30t-44 20t-13 50z" />
    <glyph glyph-name="equal" unicode="=" horiz-adv-x="1218" 
d="M283 289l-86 -10q-14 0 -47 8q-27 27 -29 35q-23 63 16 71q60 3 117 -3q57 -5 80 -7l39 2q123 6 239 6l31 6q100 -18 293 2q10 -4 12 2q32 11 77 11q46 0 62 4q31 -44 35 -54q-6 -51 -65 -57t-103 14q3 -5 -22 -20q-41 14 -182 14l-29 -10q-45 10 -49 14q-47 -10 -96 -9
q-50 1 -61 -5t-36 -6q-6 10 -76 1t-73 -9q-39 6 -47 0zM337 551q-11 0 -31 3t-26 0q-5 -3 -51 -11t-74 4t-36 31q-15 70 23 74t98 0q60 -5 84 -4q22 1 48 2t119 5t113 2h27q80 -16 291 -2q6 0 18 13h88q20 10 39 0q31 -21 31 -52q0 -80 -152 -43l-26 -6q-44 10 -99 8t-90 0
q-12 -12 -33 -12q-18 6 -50 4t-68 0t-62 -10q-27 0 -39 6q-29 4 -80 -4t-62 -8z" />
    <glyph glyph-name="greater" unicode="&#x3e;" horiz-adv-x="1058" 
d="M781 393q15 0 21 4q5 5 1 23t-8 24q-3 6 -21 12t-34 13q-16 8 -50 8q-35 -1 -59 23q-54 53 -131 82q-76 28 -98 56t-55 38t-51 20t-41 8q-22 -2 -38 7q-15 8 -33 15t-32 13t-17 33q-2 27 10 47q6 16 29 26t56 -18q33 -29 81 -48q48 -18 73 -36q47 -34 89 -34
q41 -1 62 -27q22 -26 40 -36t41 -12q24 -3 52 -17q28 -13 56 -27t53 -33q24 -19 53 -30q30 -11 46 -19t46 -8t30 -25l-6 -55q0 -43 -12 -51q-20 -11 -38 -25q-35 -27 -81 -40q-45 -14 -79 -40t-72 -31t-63 -26q-43 -38 -86 -49t-67 -34q-42 -40 -78 -44q-36 -3 -68 -20
q-30 -17 -46 -24q-16 -8 -30 -18t-30 -19q-17 -9 -34 30q-18 31 1 41t33 32t35 31q19 11 37 23q47 33 83 30t61 23q43 43 87 51t72 39q27 30 76 54t69 25t36 8q14 7 29 7z" />
    <glyph glyph-name="question" unicode="?" horiz-adv-x="555" 
d="M199 -4q-53 0 -95 82q-10 33 0 63q19 19 19 33l39 31h49q35 8 70 -27q2 -8 11 -24t13 -27q8 -45 -12 -88q-14 -43 -94 -43zM371 1227q0 -12 6 -19q41 -31 57 -63q12 0 12 -6q4 -10 18 -36t13 -54q7 -22 25 -43q6 -14 6 -45q16 -113 -27 -265q-18 -42 -39 -69
q-16 -27 -51 -39q-6 -4 -47 -1t-47 3q-57 -14 -64 -51q-1 -25 5 -108t-7 -107q-3 -6 -37 -6t-44 32q-4 27 2 158v176q0 25 26 51q39 21 112 17t116 2q4 8 18 28t14 39q29 104 -37 191q-12 0 -20 6q-70 74 -137 65l-27 7q-21 -10 -48 -3q-28 7 -40 15q-53 30 -63 74t14 79
q47 68 121 50q33 -8 69 -27h19q41 -20 55 -36t27 -15z" />
    <glyph glyph-name="at" unicode="@" horiz-adv-x="1472" 
d="M911 780q17 30 23 44t15 52t-11 56q-4 6 -27 6q-2 -2 -59 -27q-14 -11 -36 -33t-34 -30q-10 0 -17 -8q-45 -52 -60 -65q-14 -13 -15 -36q-4 -12 -27 -35q-23 -24 -29 -36q-35 -80 -56 -107q2 -10 -5 -41t13 -49q36 -34 107 37q70 70 91 88q4 6 29 38t32 47t24 29t22 21
q4 18 20 49zM979 1325q31 0 45 -6l78 -39q43 -20 69 -43l58 -57q5 -4 29 -22t33 -30t17 -40t24 -58q18 -30 31 -74q21 -70 21 -101v-107q0 -14 10 -44t9 -47q-1 -16 -17 -46t-21 -42t-39 -70t-54 -81q-20 -22 -71 -60q-50 -38 -52 -39q-57 -25 -73 -27t-42 2q-27 5 -37 5
q-9 0 -35 7t-40 3t-55 24q-40 27 -44 29q-66 27 -28 96q10 19 11 28t-5 32l-8 4q-25 -10 -41 -35q-8 -8 -28 -19t-28 -17q-94 -102 -221 -80q-80 47 -61 157q18 68 88 181q23 33 51 63q4 2 11 7t11 7q4 4 29 30t40 36t39 38t36 31t14 5q86 78 219 84q53 -35 70 -11
q37 55 78 50q51 -47 -6 -154q-2 -4 -5 -18q-3 -15 -30 -67t-32 -67t-42 -90v-14q-18 -35 -47 -109l-27 -88q0 -47 62 -73q14 -7 64 -7t95 16q44 16 58 28q14 10 30 34t38 50q21 27 38 74q17 48 29 75t14 40t2 49t-10 64t-12 38t4 42q6 31 -1 56t-26 69q-48 79 -110 121
l-24 24q-31 31 -63 40q-33 10 -55 19t-46 17t-48 25q-23 19 -36 21q-12 2 -38 -3t-44 -5t-42 1q-26 -1 -64 3t-60 -2t-64 -27q-53 -16 -78 -29q-59 -39 -66 -44t-55 -58q-5 -6 -31 -22t-38 -33q-12 -16 -28 -48t-18 -61q-3 -29 -14 -67t-26 -132l-8 -67q0 -78 11 -119
t14 -52t2 -43t5 -45t24 -36t50 -74q31 -51 59 -76q27 -26 80 -59q7 -6 27 -29t34 -29t45 -12t65 -15t45 -11t35 6t34 8l90 6q42 4 70 9t61 1t46 1t37 21t40 27q16 10 45 48q7 4 23 0t24 -13q14 -27 -8 -41q-10 -8 -35 -20q-25 -11 -35 -19t-29 -27q-27 -27 -71 -38
q-43 -11 -72 -29t-42 -21q-12 -3 -36 -3h-40l-68 -11q-136 0 -215 38q-27 13 -68 29t-51 22t-28 27t-52 45t-42 32t-36 21t-37 23t-18 40q-8 29 -14 39t-30 28q-23 19 -29 33t-16 41q-9 27 -14 39t-6 42t-4 43t-6 42q-2 29 -4 37l-10 74q0 6 -2 43t1 51t32 74q2 12 -2 53
t39 113q6 12 27 32t41 48t34 44t38 30q24 16 32 24t42 32t52 46q20 24 32 30t43 7q30 1 41 5q10 4 34 22t38 22t44 -4t42 -5l72 11q14 0 50 5t70 -9t46 -17q12 -2 43 -2z" />
    <glyph glyph-name="A" unicode="A" horiz-adv-x="1210" 
d="M455 588q0 -45 6 -50t24 0t39 2q20 -3 86 -2t97 -10q38 0 38 62l-12 28t-22 78t-39 90q0 20 -12 58t-13 57q-14 29 -24 39q-31 20 -43 0q-35 -76 -39 -94q0 -27 -27 -94v-21q-31 -53 -39 -119q-20 -14 -20 -24zM324 139q0 -23 16 -41t34 -21t52 -2q60 2 66 -46
q2 -25 -25 -35q-29 -16 -126 -6t-115 8t-36 -7q-20 -5 -25 -5h-26q-27 6 -86 5t-86 9q-23 16 -18 50q4 34 26 38q19 6 57 9q107 8 122 67q10 20 84 194q0 12 12 37q23 16 40 91q17 74 38 107q20 33 20 66q77 154 90 215q0 4 10 15q10 13 15 27q6 14 32 58t35 64q4 22 19 68
q0 31 -25 84v24q80 9 125 29q45 21 53 23t25 -2q2 -2 9 -12t12 -15q18 -45 42 -133t41 -133v-31q25 -66 25 -96q4 -10 7 -32t5 -32q23 -57 60 -172t57 -170v-30q49 -127 59 -197q6 -14 19 -39v-25q11 -35 31 -46t64 -25t56 -22q12 -9 22 -28q11 -20 -2 -29t-28 -9
q-92 -12 -157 14q-43 -12 -135 -11t-138 -12q-25 -12 -43 -12q-29 5 -48 21t-2 38t75 42t78 36q23 23 19 64q-5 41 -7 56t-23 59q-2 14 -13 47t-11 53q-12 53 -51 45q-10 -2 -30 2t-40 2q-21 -2 -109 -6t-139 -13t-61 -57v-45q-47 -86 -47 -170z" />
    <glyph glyph-name="B" unicode="B" horiz-adv-x="1159" 
d="M899 354q0 63 -18 82q0 5 -7 33q-43 82 -188 145l-158 9q-6 -1 -16 -9t-22 -14t-12 -20t-6 -52q-7 -38 5 -49q-8 -23 -8 -96q6 -37 4 -126t0 -126q12 -35 31 -45q72 -49 151 -20q76 12 109 30q66 38 76 58t19 32t13 23q0 14 13 38q12 24 14 32v75zM831 1023q0 45 -28 83
t-35 53q-12 12 -36 12t-80 28t-85 32q-70 0 -90 -107q-10 -154 8 -387q16 -51 39 -51q74 0 119 37q43 4 82 34t53 72q18 19 18 29t13 34q12 24 14 32l8 68v31zM193 -18q-12 0 -34 13t-34 13q-10 26 -1 48q10 22 24 22t31 -1q68 -4 85 25q16 16 21 43q0 25 4 124t-15 180
q0 14 10 44q10 29 5 73q-6 44 -1 68t-12 68l3 89q8 86 2 184q-2 6 -7 15q-4 9 -7 24q-3 16 11 74t-8 81q-22 33 -60 23t-118 6q-23 8 -37 37q-8 27 14 42t44 16t62 6t53 5t55 -8h39q55 -4 189 0t189 -4q36 0 56 -5t72 -11t72 -24t34 -33q0 -12 6 -19q20 -5 38 -32t25 -78
q7 -50 11 -62v-106q4 -35 -27 -88q-2 -6 0 -18t-2 -21q-63 -74 -127 -105q-6 -2 -6 -39q0 -12 18 -12q14 -6 25 -33q8 -6 32 -15t31 -16l7 -14h18q39 -18 51 -76q12 -25 20 -33t4 -21q-3 -13 7 -29t10 -89q4 -20 -1 -57q-5 -38 -7 -58t-15 -44t-42 -55q-29 -32 -42 -49
t-60 -29q-46 -13 -68 -22t-92 -15q-68 -6 -181 8q-27 0 -51 -12l-260 2h-63z" />
    <glyph glyph-name="C" unicode="C" horiz-adv-x="1253" 
d="M1100 31q0 -19 -16 -19q-28 0 -47 47q-18 47 -31 50q-123 -77 -254 -113q-74 -16 -222 -4q-26 8 -64 18t-78 36t-60 32q-4 4 -6 10t-7 8q-168 102 -198 318v32q-5 18 -11 58t-19 84q-13 45 -1 140t24 129q11 34 13 44l12 6q45 160 148 246v12q21 0 26 17q2 6 9 10t35 24
t43 24q15 3 71 30h20q86 39 285 35q18 0 64 -22t143 -56q33 -10 57 12q37 49 70 43q24 -8 24 -45q4 -29 -3 -86t-5 -84v-82l-6 -18q27 -57 -2 -121h-31l-20 20q-13 14 -21 52t-18 52q-10 13 -32 37t-27 37l-13 7q0 25 -30 45q-137 98 -279 90q-63 -4 -88 -25h-18
q-18 -6 -40 -31t-32 -30l-37 -19q-6 -6 -13 -23t-14 -28l-12 -6v-18q-6 -6 -18 -28t-27 -28q-10 -91 -31 -159q-21 -69 -16 -80q0 -11 -3 -67t3 -78t15 -88q9 -65 20 -97q14 -29 24 -39q0 -18 10 -30q85 -97 146 -148q20 -14 66 -18t64 -14q18 -11 38 -12t51 1t53 5t82 40
q88 66 162 246q25 47 70 30q26 -12 24 -34t-14 -74q-12 -51 -12 -82q8 -138 6 -170t-2 -51z" />
    <glyph glyph-name="D" unicode="D" horiz-adv-x="1429" 
d="M459 842q0 -200 -10 -260q20 -52 13 -86t-5 -90t-11 -76q6 -12 7 -84l-2 -82q0 -81 38 -95q8 -3 19 -6q158 -16 233 23h19q14 8 55 24t66 44q27 14 32 24q8 6 37 23t36 29t41 59t46 75t23 62q12 33 17 74t12 47q8 6 8 8q0 178 -35 285q-37 141 -107 196q-2 4 -5 14
q-10 32 -101 83q-63 45 -189 77q-8 0 -37 15q-39 10 -91 6t-81 -37q-37 -209 -28 -352zM1350 729q4 -1 1 -23t-3 -26q27 -92 -15 -191q-2 -6 0 -21t0 -22q-12 -20 -26 -63q-6 -11 -37 -65t-48 -73t-18 -26q-10 -16 -38 -42t-44 -43t-67 -41t-68 -36h-18q-23 -12 -97 -24
q-12 0 -12 -13q-25 -2 -86 -16t-96 -12l-27 -12q-61 -6 -176 6t-143 10t-44 4q-17 6 -28 2q-39 -25 -108 2q-27 -16 -63 -10t-44 37q23 41 101 49q38 4 51 6q43 -4 51 31q18 123 12 153t-2 55q4 24 0 31q0 16 -3 79t11 104l13 51q-16 106 2 215l-13 57q16 80 17 291
q0 12 -6 18q-37 37 -75 41t-69 25q-35 29 -6 55q11 15 34 15l42 -2q399 20 600 0h82q14 -5 56 -17q103 -28 120 -61h12q76 -53 101 -90q12 -23 44 -65t44 -62l6 -33q4 -12 23 -36t21 -41t20 -76q16 -60 16 -95z" />
    <glyph glyph-name="E" unicode="E" horiz-adv-x="1331" 
d="M922 -8q-80 0 -121 -29q-14 -8 -43 6q-43 34 -113 26q-27 -3 -57 1q-38 0 -182 1t-242 -9q-8 -6 -26 -4q-32 4 -34 29l9 40q0 8 14 8q14 1 22 9q9 8 45 7t45 6t9 12t10 13t13 16q3 9 4 21t4 19q0 27 -7 39q-4 43 6 139q9 96 -2 139q0 18 7 31q0 18 -7 31q-10 100 15 184
q4 6 -4 19t-9 27q-1 15 2 93q2 78 -4 98t0 51q30 152 -36 187q-39 -10 -90 -9t-80 30q-4 6 -11 15q-6 9 -8 15q-14 61 19 70q18 12 80 4t97 -5t57 0t63 -11t63 -11q34 18 152 22t196 -7h39q18 -4 53 -1t54 1q74 -19 102 -15t52 -6t28 -32q33 -115 29 -261q8 -17 -3 -41
q-12 -24 -24 -16t-25 21q-2 8 -8 23t-12 31t-23 34q-6 12 -28 29q-23 17 -27 22q-31 51 -133 104q-186 0 -328 9q-12 0 -24 -13q-8 -16 -12 -45t-8 -40q-5 -11 -4 -41t1 -38q-14 -111 6 -151q-20 -45 -2 -94v-70q12 -39 37 -39q16 0 90 -4t137 14q27 12 27 19q14 37 30 103
t22 84q8 20 24 32t36 7t30 -28t6 -49q-20 -53 -21 -125q-10 -86 -10 -354q1 -23 -15 -38t-30 -15q-50 0 -41 101q2 24 -2 48l-13 25q0 70 -30 84q-23 8 -73 6t-73 6q-10 -12 -51 -4t-52 7t-30 -19q-35 -137 -16 -322q4 -27 0 -78t-2 -73q20 -50 113 -43q54 4 83 -4
q20 8 88 4l25 -13q78 25 178 11h88q43 8 82 36q18 23 33 95l27 39l6 30q35 53 76 37q20 -21 19 -39t3 -88q4 -71 -6 -139q-8 -27 -43 -35t-106 -2t-99 -2q-26 -8 -106 -8z" />
    <glyph glyph-name="F" unicode="F" horiz-adv-x="1202" 
d="M881 423q0 34 -3 46t-30 55q-31 39 -87 50q-15 3 -59 14l-30 -6q-51 2 -152 2q-18 -4 -36 -20t-21 -36q0 -20 6 -32q2 -29 -9 -139t5 -140q2 -12 -4 -40q-12 -57 19 -77t81 -20t59 -1q13 -1 27 -22q6 -20 -5 -42q-11 -21 -44 -19t-152 -2q-118 -4 -156 2t-104 -4t-102 -4
q-31 10 -18 45q16 31 30 30q111 12 154 43q12 12 12 40t4 114q4 87 -8 150q14 52 12 96q-2 45 -5 90t-3 59v45q10 23 8 50q-2 28 0 45q-6 12 -6 32q6 12 6 31q-6 18 -6 51q6 11 4 31t-5 104t-27 125q-8 11 -20 13t-58 -1q-47 -3 -72 6t-33 40q0 6 6 19q5 12 7 20t10 12t22 7
t26 6t52 -5q41 -8 62 -4h88l18 -8q41 8 136 10q96 2 142 16t121 3q31 -9 91 -5t108 -6q50 -10 94 -2t74 -4t37 -39q8 -68 8 -99l-12 -192l-19 -18h-12q-16 13 -29 42q-14 29 -21 39t-38 46q0 12 -6 18q-62 55 -86 65t-46 17q-22 5 -29 9t-20 13t-20 13q-37 0 -57 -6
q-45 -6 -129 1q-85 7 -109 5t-36 -14t-17 -15q-18 -29 -18 -75q-7 -399 26 -410q55 -27 146 -2q20 4 60 6q41 2 67 9t36 8q57 8 72 63q0 2 19 94q0 90 28 104q15 7 31 1q28 -11 22 -60l-6 -26q16 -90 -8 -209q19 -74 16 -150q-4 -76 1 -129l-7 -18q-29 -18 -57 0
q-16 12 -16 46z" />
    <glyph glyph-name="G" unicode="G" horiz-adv-x="1320" 
d="M630 -10q-58 0 -82 8t-77 24t-88 31q-35 14 -47 25q-12 10 -30 20t-23 21q-5 10 -17 11t-14 7v15q-2 12 -22 27t-22 25q-3 10 -15 20q-12 9 -17 16q-88 145 -104 274q-16 94 2 201q16 131 59 203l6 30q31 68 114 163t130 126q6 6 27 6q18 12 118 55h39q117 33 197 11
q6 -2 26 1t28 0q9 -3 25 -7t27 -15q23 -14 71 -30t69 -27l6 -14q41 -25 100 49q10 10 28 6t23 -19q5 -7 7 -31t6 -32q0 -27 1 -120t-4 -119q-5 -25 -25 -33t-40 2q-23 16 -43 66t-37 67q-25 12 -31 24q-15 0 -39 30t-40 42t-30 12t-14 3q-2 3 -4 8l-4 10q-57 29 -159 20
q-21 -2 -63 -18t-64 -20t-54 -26q-33 -22 -60 -36t-44 -31q-29 -43 -33 -55l-6 -33l-18 -18q-5 -9 -17 -27t-16 -29l-8 -39q-20 -41 -31 -82q-18 -146 -16 -174t7 -107t10 -110t28 -83t59 -83q6 -82 131 -120q54 -21 127 -24q72 -3 94 -5q14 10 46 23q65 26 75 65
q12 38 18 102t12 116q7 52 -14 149q-6 51 -118 51q-51 12 -51 45q8 6 26 24q57 6 180 3q123 -2 165 4t92 -4t75 -9q14 -41 0 -55q-39 -23 -90 -31q-83 -13 -67 -130q7 -44 -11 -85q0 -18 6 -24q2 -18 -5 -64t16 -76q15 -15 36 -16q21 -2 34 -9t9 -27t-22 -38q-20 0 -21 -6
q0 -13 -11 -17q-11 -5 -53 -25t-75 -32q-12 -2 -42 1t-46 -1q-40 -19 -73 -24q-32 -4 -52 -10t-65 6q-23 2 -81 2z" />
    <glyph glyph-name="H" unicode="H" horiz-adv-x="1630" 
d="M1325 154q0 -30 6 -50t31 -22q102 -4 151 -35l25 -24q10 -18 -25 -31q0 -14 -6 -15h-41q-86 0 -123 23q-37 -2 -125 0t-152 -8t-89 -2q-12 0 -27 10q-14 10 -18 23q-16 31 39 49h12q113 0 140 31q15 17 20 44q0 31 -5 47t-2 42q3 25 1 36l2 90l6 25q-10 35 -4 74t-6 75
t-52 42h-133q-49 -4 -157 -5q-10 10 -142 7t-148 -9q-17 -6 -20 -12q-14 -33 -12 -57t-4 -81q-6 -58 -6 -65l12 -32q0 -57 -14 -144q0 -55 24 -90l33 -12q115 0 142 -8t34 -19l-6 -14l6 -6q-2 -1 -4 -11t-8 -14q-88 -25 -127 -18q-29 18 -39 8q-20 -2 -59 5t-60 1
q-11 -11 -26 -4q-76 25 -164 -6q-39 -10 -76 2q-10 0 -14 9t-11 9v22q0 36 25 42q36 6 78 18h18q25 12 31 25q25 88 16 221q-6 12 -6 37q6 51 7 148t10 149q-25 31 0 96q4 12 0 34t0 61t2 50q-23 66 -6 113l8 70q1 51 -9 65q-10 15 -18 21t-21 10t-21 7q-14 5 -46 5h-55
q-25 27 -27 57t29 46q45 18 85 8t79 -10h57q12 -9 70 -9t75 7q11 0 25 -7q41 12 139 -2q19 0 33 -14t10 -37q-12 -35 -45 -43q-12 -2 -43 -2q-99 0 -108 -47q-6 -16 -14 -51t-13 -51q12 -21 9 -57t-3 -44l-2 -88v-45l12 -24q2 -11 -2 -53t9 -50q12 -12 61 -12l51 12
q76 6 255 -2t257 8q14 5 14 133q-8 37 -1 146t6 145q-8 33 -58 45q-96 20 -164 45q-10 25 -6 55t27 27q113 14 138 8t80 1t91 -17q23 -2 70 10q19 0 75 5t89 1q55 -12 36 -83q-6 1 -11 -9t-13 -12t-55 -5t-72 -30q-9 -9 -21 -37l-6 -78q0 -19 6 -36q0 -25 -4 -37t-4 -59
t-14 -238l12 -19q2 -20 -4 -63t6 -80t-12 -104v-152q6 -12 6 -43l-8 -14q6 -16 6 -47z" />
    <glyph glyph-name="I" unicode="I" horiz-adv-x="833" 
d="M672 1208q-8 0 -27 -18q-55 -7 -76 -22q-20 -15 -28 -53t-7 -125t-6 -134q10 -18 1 -68t-3 -67q6 -16 6 -35q-37 -195 -30 -412l-2 -103q0 -26 2 -48q6 -57 94 -57q92 -12 125 -52q10 -35 -19 -45q-82 -10 -125 3q-43 14 -83 16t-52 4l-18 12q-125 4 -240 -22
q-51 -10 -90 20q-10 18 2 43q43 43 152 43q57 16 45 94q-6 20 -6 51q22 153 29 368q6 215 10 321q18 41 22 196l-18 37q-17 31 -127 44q-43 5 -64 15q-18 6 -18 52q12 37 45 37q90 0 170 -21h70q53 -4 190 9t155 -11q5 -8 5 -16l-2 -43q0 -7 -12 -9t-15 -4h-55z" />
    <glyph glyph-name="J" unicode="J" horiz-adv-x="833" 
d="M16 -283q34 0 80 -14q23 -10 61 -47q39 -38 63 -56t63 -4t65 48q47 70 33 120q-8 20 -8 70t-17 76q4 240 -2 360l-18 37v64q4 131 -10 178q-2 18 8 52t6 54l-12 25q2 31 -7 121t3 121q0 18 -7 24l7 25q2 16 2 184q0 17 -29 33t-90 8t-90 -2t-41 34t-2 56q10 18 84 19
q188 -20 366 -5q12 0 58 4t59 -1q14 -5 54 -1t62 0t35 -24t1 -47q-27 -61 -110 -41q-42 10 -87 4t-61 -45q6 -65 7 -183t3 -159l-6 -33q10 -43 10 -131q-6 -25 -1 -131t3 -130t5 -70t7 -62q-12 -40 -7 -60t-3 -51t-3 -48t5 -62q-6 -23 -4 -55t-8 -52l-13 -55q-8 -15 -6 -61
t-1 -66t-44 -90q-66 -94 -190 -156q-10 -8 -36 -13t-28 -5l-30 2q-7 -4 -17 -6t-14 -6t-55 -3q-51 2 -54 2l-24 13q-90 -6 -121 78q-33 102 47 151q25 12 59 12z" />
    <glyph glyph-name="K" unicode="K" horiz-adv-x="1339" 
d="M293 322q0 26 -8 126t-6 222q14 126 11 170t-8 76t1 46t6 44q-9 22 -15 80t-26 82t-68 29t-58 13q-8 8 -18 14q-10 5 -14 11v39q39 24 165 8t169 -12q20 6 63 6q47 -20 19 -76q-2 -12 -20 -35t-19 -35q0 -12 -4 -69t-5 -75q-9 -171 17 -286q0 -6 19 -6q49 21 103 105
q19 31 32 45q29 55 55 91t53 103l15 6q2 12 14 40t13 39t-15 36q-8 5 -41 19t-45 29t-7 33t17 28q12 9 33 11q23 3 35 5t54 -6t58 -7q160 10 176 -1q16 -4 56 4t55 2q14 -6 32 -9q18 -4 24 -11q26 -36 -3 -64q-14 -2 -39 -11t-39 -14q-61 0 -88 -6q-92 -45 -151 -80
q-6 -6 -6 -18q-25 -23 -67 -69t-68 -68v-15q-10 -12 -54 -56t-44 -82q1 -38 26 -75l12 -6q4 -12 31 -39q6 -10 15 -28t16 -29l18 -18q0 -14 6 -21q21 -11 33 -31t18 -26q0 -12 21 -33t35 -49l23 -23q29 -27 48 -62q19 -34 78 -93q0 -14 6 -21q31 -10 45 -37
q84 -119 226 -129q6 0 39 -14l30 -31q12 -29 -14 -39q-129 -6 -221 11q-18 2 -76 3t-113 17q-43 49 -137 215q-4 6 -49 51v15q-8 11 -31 33t-40 48t-42 58q-12 6 -18 12q-13 27 -43 59q-30 33 -36 39t-15 11q-10 4 -13 6l-6 14q-41 0 -45 -6q-8 -23 -10 -66t4 -55
q-2 -49 -2 -145q-10 -76 10 -158q3 -32 46 -52t61 -44q8 0 41 7t47 -19v-21q-9 -17 -25 -15q-17 3 -33 3l-18 -13q-90 4 -106 9q-16 12 -83 9t-78 -2t-24 -11h-37q-49 -27 -96 -19q-2 0 -43 21q-27 31 45 82q14 8 49 14t52 16q14 63 14 113l-6 24q10 20 8 41q-2 22 -2 48z
" />
    <glyph glyph-name="L" unicode="L" horiz-adv-x="1366" 
d="M1249 314q-1 6 13 22t29 54t28 52h14q13 -8 13 -30t3 -37q3 -14 0 -45t1 -47v-62q-14 -33 -20 -97t-9 -87q-12 -25 -25 -25q-82 0 -163 -10q-33 0 -209 -16q-20 14 -98 7t-97 -5q-18 2 -41 12t-31 12l-24 -6l-180 8q-140 0 -181 -16q-16 -2 -58 0t-62 -4q-70 -12 -107 18
q-20 23 6 64q0 12 27 26q14 2 49 -2t61 4t52 10q24 2 34 26t0 48v31q-4 16 2 43t5 39q-18 139 -2 227q0 115 2 161t-7 116q-8 70 -6 104q18 156 11 213q0 4 2 34t-33 50q-14 6 -45 6q-35 -12 -52 -16q-55 -13 -88 31q-25 45 9 94q25 2 82 0t86 3t92 -2q62 -7 82 -5t40 11
t29 13l175 4q40 -1 77 -12q16 -18 11 -49q-9 -59 -117 -42q-45 7 -84 -6q-39 -14 -48 -74t-7 -180t-2 -174t6 -136t-3 -138t1 -84t9 -72t-4 -60t-5 -98q-6 -83 12 -97t92 -14q129 -14 203 4q18 2 56 -4t56 -5h127q2 2 20 6t25 13q0 6 13 18q10 6 37 20t45 29q14 18 29 54
t22 47q20 16 20 23z" />
    <glyph glyph-name="M" unicode="M" horiz-adv-x="1910" 
d="M1732 -20q-80 0 -100 5t-66 2t-57 9q-98 -20 -166 -4q-11 2 -37 -1t-41 -2t-22 15q-25 68 21 82q18 4 83 2t80 16q27 55 15 170l12 25q0 2 -5 20t1 25q10 48 8 101t0 87q-6 14 -6 39q10 9 2 55t-8 72t2 43l-12 39q25 57 -13 170l-12 6q-6 -6 -18 -12q-6 -25 -39 -67
q0 -27 -6 -33l-13 -6q-37 -94 -41 -101l-12 -6q-4 -6 -12 -34q-8 -29 -28 -49t-30 -62q-2 -4 -10 -7t-10 -6v-18q-14 -14 -34 -56t-26 -57q-8 -15 -18 -40t-31 -42q0 -22 -24 -64q-25 -42 -29 -55t-13 -25t-29 -64q-20 -51 -21 -62q-4 -53 -27 -82q-20 -16 -43 -6t-28 30
t-17 50q-12 32 -19 52t-32 82t-31 84t-20 46q-14 23 -15 37q-18 27 -24 45q1 12 -7 26t-13 18q-5 2 -14 32t-40 82v14q-121 201 -168 336q-2 8 -11 21q-10 13 -14 23t-15 13q-11 4 -15 0q-29 -31 -15 -145l-20 -37l-8 -99q0 -24 8 -46l-23 -279q6 -33 5 -141t24 -137
q70 0 131 -21q33 0 45 -12q14 -26 9 -50t-29 -32q-18 0 -31 6h-70l-51 2q-25 -6 -70 -6q-12 6 -43 6q-88 -18 -165 -10q-20 4 -22 30q-1 26 11 39q6 20 64 31q25 0 49 25q45 68 41 121l12 24q2 49 16 199q13 150 15 231v37q10 27 1 76t5 85t29 187q6 33 -19 94q-14 3 -46 15
t-54 12l-18 12q-61 12 -70 52q0 39 14 45q12 2 47 0t54 4q38 0 68 -6t118 1t129 -3q6 -5 12 -17q7 -12 13 -17t6 -24q31 -57 50 -109t45 -106t33 -72q7 -20 15 -33t12 -24q-1 -13 7 -27t13 -17t5 -7l6 -37l74 -190q33 -57 53 -110t33 -75q14 -63 55 -63q10 0 22 9
q11 9 11 15l65 144l7 32q6 14 25 40t32 61t23 65q11 31 51 109q39 78 55 121q20 41 36 56t17 26l12 6q14 51 46 127v31q10 8 29 37t44 33q26 5 92 5t90 8t60 19q35 12 50 14t54 0q23 -7 37 -33t19 -32v-13q-11 3 -20 -4q-9 -6 -17 -10t-39 -3t-45 -5q-102 -47 -96 -107
q1 -10 -5 -36t0 -58q6 -34 6 -140t7 -159q-10 -45 -9 -123t-6 -123l7 -26q-6 -12 -7 -31q8 -38 1 -108t4 -107q3 -12 -3 -47t0 -54t31 -26q51 0 94 -20h33q23 -16 31 -41t-6 -36q-13 -11 -93 -11z" />
    <glyph glyph-name="N" unicode="N" horiz-adv-x="1579" 
d="M328 257v103l8 64v49q14 33 8 45q0 55 -18 100q-4 14 12 76q4 45 -10 242q-12 37 -17 57q-16 31 -60 65t-52 44q0 12 -6 18q-8 6 -21 19q-4 27 -24 49t-34 32q-15 9 -48 27q-6 7 -16 23t-15 22v13q11 -4 31 4t26 8q47 -10 139 -14t140 -15l37 -18q20 -39 63 -70
q6 -6 19 -20t24 -19q6 -84 119 -160q43 -43 49 -57h14q16 -26 56 -64t57 -65q16 -27 37 -55h12q0 -14 12 -29t54 -59t56 -60q15 -18 54 -56t62 -64q18 -6 23 -12q67 -87 120 -118q7 6 21 10l23 8q24 8 26 34l-19 49q-6 27 -3 86t-6 87t-11 98t-19 104l6 24q-6 33 -6 96
t-4 88t-7 51t-6 37t-15 22t-15 18q-16 10 -54 10t-54 8q-6 -6 -19 -6q-14 6 -52 9t-54 17q-4 0 -19 27v31l19 18q16 10 51 6t51 6q147 -31 213 -20q33 -2 90 -2q8 4 31 -2t41 0t92 6q18 -4 23 -16q3 -13 -12 -22t-44 -17q-8 -20 -51 -45q-16 -4 -76 -4q-18 -4 -35 -24
t-22 -40q-4 -47 3 -145q7 -97 2 -137t9 -148l-14 -100q0 -4 10 -30t2 -40q18 -37 -8 -108q0 -5 -8 -16t-10 -21q-2 -9 -1 -57t-8 -64v-70q18 -74 -2 -158q-61 -37 -112 72q-10 0 -16 12t-13 12q-6 0 -10 14q-4 13 -25 13q0 12 -6 19q-12 8 -74 69q-23 49 -57 78q0 12 -6 19
q-15 11 -49 51q-25 12 -51 51q-3 4 -13 6t-18 13t-33 51t-41 57q-25 23 -83 87t-93 81q-66 66 -119 139q-35 25 -54 17t-22 -29q-8 -109 17 -322q-4 -53 -7 -70q-3 -16 -2 -22t6 -23t7 -24q0 -125 4 -158q25 -78 55 -108h27q45 -29 104 -41q58 -12 78 -18q14 -59 -20 -76
q-12 -4 -41 0t-41 2h-82q-23 2 -117 0t-117 8q-30 -6 -78 -7t-68 -2t-34 18t-7 41t48 22l90 30h25q42 23 53 52q25 71 25 103z" />
    <glyph glyph-name="O" unicode="O" horiz-adv-x="1392" 
d="M1063 836l-12 24v37q-2 2 -3 9q-3 18 -16 18q-14 74 -91 181q-5 7 -22 20t-24 22q-80 74 -219 78q-37 0 -115 -37q-98 -61 -160 -144q-31 -55 -39 -94q-6 -14 -16 -46t-16 -48v-20q-12 -20 -18 -66t-9 -59l6 -21q-20 -41 -2 -82q9 -31 15 -93q6 -61 12 -83t9 -47
q9 -73 63 -137q0 -15 24 -39q8 -27 24 -44t54 -43q37 -26 41 -28q33 -33 51 -39q12 0 51 -12t150 16q27 6 71 37q88 80 148 195q27 70 30 83t21 68q18 113 23 164t-11 129t-20 101zM141 971q0 12 27 24q6 6 6 21l12 6q53 100 166 180l39 39q25 12 37 12q115 49 178 47
q8 2 32 16t39 9q15 -4 42 -7t40 -6t78 -11t84 -25q19 -18 27 -23q84 -41 144 -102q18 -6 36 -21q0 -12 7 -18q12 -6 23 -26t16 -25q8 -3 17 -17t19 -16q0 -14 12 -40t13 -36q53 -100 61 -184l13 -25q0 -80 4 -100v-102q-3 -17 -17 -53t-15 -55t-21 -68q-47 -129 -199 -277
l-30 -18q-19 -12 -27 -19q-16 0 -46 -12q-6 -10 -25 -14t-41 -20t-97 -28q-109 -23 -254 11l-19 12q-49 0 -88 33h-31q-86 74 -106 84l-6 12q-10 0 -27 12q0 14 -6 19q-66 63 -123 205v18q-70 153 -57 247q6 44 10 92q4 50 8 79l13 24q0 33 15 72t17 49v25z" />
    <glyph glyph-name="P" unicode="P" horiz-adv-x="1085" 
d="M481 727q0 -10 21 -27q80 -31 194 43h15q73 40 114 175q20 119 -53 223q-14 20 -36 26q-22 5 -40 17t-28 14t-69 2h-69q-24 0 -30 -24l-13 -27q0 -51 -4 -61t-7 -38t-9 -41t-1 -48t5 -46q10 -46 10 -188zM868 690l-123 -67h-24q-25 -23 -105 -15t-95 6t-34 -20
q-31 -92 -22 -246q6 -20 6 -51q-10 -27 -10 -51l14 -121q0 -35 6 -37q46 -29 112 -21q66 7 80 7t25 -10q12 -10 17 -11q23 -31 0 -76q-27 -4 -74 0t-72 3q-20 -6 -51 -7q-25 6 -76 5t-69 10q-37 -8 -111 -4t-110 -7q-12 7 -52 7t-49 26q-8 31 11 50q33 33 101 24t91 12
q10 16 14 64q16 112 16 318t4 236q3 30 -2 69q-5 40 -5 53l6 12q-6 16 1 50t-5 71q6 8 6 19l-6 44q4 6 8 37q-2 10 -3 44t-22 52q-22 17 -72 25t-62 12t-37 3q-24 -1 -32 5q-10 14 -10 34t10 24q45 25 148 12l25 6q12 -8 36 -8q39 12 52 6q18 -2 69 -1t70 -7l24 12
q15 2 51 2t56 4t66 -2t63 -6l18 -12q84 0 113 -14q31 -8 82 -46q68 -72 80 -186t-39 -243q-10 -23 -27 -40q-49 -35 -69 -55h-13z" />
    <glyph glyph-name="Q" unicode="Q" horiz-adv-x="1351" 
d="M1061 690l-12 25q0 25 4 37t-2 30q-5 18 -7 26t-11 24t-7 22q-68 143 -76 172l-12 6q0 12 -8 20t-20 30q-12 24 -21 30q-8 6 -44 35t-54 42q-53 38 -115 36q-18 -3 -47 -13t-53 -15t-60 -40q-45 -61 -57 -70v-12q-14 -14 -37 -47t-31 -43q-8 -9 -11 -29t-5 -26
q-52 -85 -57 -193q-1 -41 -3 -59v-37q-8 -16 -8 -45q4 -20 12 -80t25 -102v-27q41 -81 50 -119t48 -78q4 -4 6 -13t7 -11q15 0 20 -19q2 -6 4 -8h15q16 -21 57 -39t57 -34t41 -17q25 -6 69 1t64 3q117 104 166 189q14 27 36 79t36 78q33 100 37 129t4 162zM1257 684v-49
l-8 -92q0 -2 -18 -39q-16 -111 -35 -158l-12 -12q-51 -86 -121 -156q-7 -4 -17 -22t-16 -17q-12 -6 -25 -22t-26 -21v-12q-41 -27 -12 -40t95 -37t99 -40q23 2 34 0t48 -33l37 -18q49 0 94 -27h21q18 -14 59 -20q41 -7 52 -15q10 -8 24 -14t32 -13t69 -12t71 -9t56 -17
q36 -12 50 -12t52 -19l120 -8q10 0 26 -12t26 -13q8 -1 65 -11t66 3q18 4 55 -7q36 -11 62 -15t108 -5t123 -9q-13 -21 -31 -31t-20 -12h-58q-37 -18 -39 -19q-12 6 -63 1t-62 -5l-235 -10q-6 0 -31 12q-20 2 -94 3t-104 10q-30 8 -64 12q-35 4 -51 8t-100 17t-128 27
t-65 13q-113 33 -125 33q-15 15 -113 39t-139 51q-16 8 -49 10t-48 10t-106 46h-24q-4 2 -18 11t-17 10q-4 1 -19 6t-22 -1l-6 12q-68 25 -170 72l-18 19q-61 27 -87 48t-53 46t-38 35t-42 43t-36 38t-8 17t-7 16q-41 43 -61 109q-25 47 -31 76v18q-4 11 -13 27t-12 24
q-8 180 11 309q2 5 10 19t8 20q-4 33 33 95q2 2 59 106l13 6q8 16 24 25q10 10 27 33q16 23 24 30q15 11 33 29t34 28t50 25q35 15 48 23t36 9t36 7t32 11q38 9 106 3q98 0 114 -5q125 -40 165 -60q68 -29 131 -117q0 -15 10 -21q10 -7 14 -10q6 -15 28 -41t28 -42v-25
q61 -139 61 -215q18 -45 18 -80z" />
    <glyph glyph-name="R" unicode="R" horiz-adv-x="1230" 
d="M807 980q0 62 -36 120t-116 86t-155 2l-13 -12l-12 -7q-8 -59 -26 -127q0 -31 6 -43l-2 -81q-10 -57 6 -103q4 -17 3 -69t13 -70q37 -33 70 -27q14 7 61 21q48 14 68 27t46 42t42 41q25 72 35 105t10 95zM950 754l-6 -27q-12 -12 -24 -18v-13l-24 -21q-10 -9 -52 -29
q-41 -20 -53 -42q0 -20 26 -20q97 -141 117 -169t30 -57t19 -41h14q68 -90 80 -102q0 -20 6 -27l13 -6q0 -33 28 -64q28 -30 35 -36q17 -23 67 -28t58 -7q26 -8 28 -32t-16 -44q-20 -8 -31 -8l-63 10q-20 -6 -51 -6q-25 10 -67 8t-66 0q-12 6 -43 7q-27 -6 -70 -7l-14 9
q-23 -13 -87 -18q-14 -1 -26 11q-16 35 0 52q43 25 96 24q12 0 25 25v12q-12 20 -44 49t-44 47q-2 8 -14 24t-17 28q0 12 -6 18l-18 18q0 12 -15 30t-32 57t-33 47v14l-31 51q-86 82 -121 102q-22 -2 -30 -19t-10 -52t-5 -43l-12 -19q-6 -281 -4 -315q8 -41 63 -51
q82 -4 119 -33q-12 -57 -37 -57q-150 -18 -284 10q-63 -16 -127 0q-23 0 -47 12t-29 33q20 14 61 23q60 14 68 23q7 8 11 26q5 18 9 27t-2 43t0 53q0 45 2 63q-10 129 9 227q0 47 -7 58q0 10 7 24q-9 150 -15 176t12 84q0 231 2 265q2 52 -83 47q-31 -2 -37 0q-46 15 -62 45
q-6 6 -18 6q-24 11 -14 31t24 22t34 -2t42 1t92 -1t100 -4l187 4q45 0 78 -5t94 -6q126 -2 178 -57q12 -25 18 -30q51 -39 74 -121q35 -94 12 -152q-4 -6 1 -20t6 -19q-30 -89 -54 -118z" />
    <glyph glyph-name="S" unicode="S" horiz-adv-x="1052" 
d="M135 228q0 87 4 132v39q29 86 64 50q20 -117 67 -191q10 -8 22 -35q19 -42 54 -53q74 -66 125 -66q4 -4 15 -7t18 -5q53 -10 128 12t138 105q10 15 23 57t10 56q-20 82 -31 96l-31 31h-12q-41 49 -127 83q-2 2 -8 12t-21 9q-15 0 -46 5t-83 26q-51 22 -61 26l-33 2
q-78 33 -119 82q-10 16 -48 65t-56 107q-2 16 -1 60t-5 61q10 19 23 63q29 97 73 126l8 24q113 90 221 107q27 -2 89 -2q61 -8 145 -39q27 0 33 -21h12q31 -39 62 -19q30 20 53 46q22 26 33 36t19 5q8 -6 9 -19q23 -137 -2 -227q-2 -6 -5 -16t-7 -15l6 -80q0 -44 -33 -51
q-33 -8 -48 8q-14 17 -28 49t-21 41t-19 33t-21 33q-43 57 -76 82q-37 33 -94 47q-92 10 -136 1t-79 -44l-19 -18q-45 -68 -40 -101q0 -51 30 -96q6 -6 36 -35t65 -41l6 -12q16 -4 41 -16t34 -14t70 -23q39 -27 64 -27q84 -29 106 -57q37 -4 87 -46t65 -51q10 -24 36 -62
q53 -78 44 -140l12 -21q4 -30 -7 -65q-10 -36 -12 -46t-5 -18t-9 -17t-8 -18v-24q-49 -74 -89 -110t-192 -89q-43 -18 -145 -18q-34 -10 -54 -2t-44 17t-34 12q-11 3 -35 11t-35 10q-11 1 -37 5q-25 4 -45 -2t-38 -35q-24 -12 -50 -4t-25 49q0 14 20 45q4 45 4 132z" />
    <glyph glyph-name="T" unicode="T" horiz-adv-x="1296" 
d="M553 210q0 38 6 56q0 31 -6 43l8 27q0 16 -5 70t-1 86t6 161t10 187l-6 12l6 18q-12 14 -4 58t4 59q-4 16 -4 53l6 21q-2 4 -7 37t-16 40t-16 12t-20 6t-79 13t-132 9q-66 -14 -127 -113q-4 -4 -20 -12q-12 -31 -19 -33v-12q-25 -47 -57 -31q-18 11 -21 41l2 53l15 27
q2 8 7 49t19 63v31q10 14 16 46q5 32 9 44q10 19 34 21t36 -8t26 -38t37 -31t82 9q31 0 86 -8q54 -8 116 -7t83 -7q25 0 39 6h67q174 -4 223 2h56q76 0 102 24q18 29 39 37q51 27 68 -12q6 -29 6 -86t6 -86q18 -61 -14 -125v-33q-18 -39 -39 -24q-37 27 -37 120
q-21 31 -60 44q-39 12 -98 22q-11 12 -35 14t-135 -6q-20 -4 -33 -25q-12 -22 -13 -39t-21 -470q-10 -7 4 -64q4 -33 -3 -93t-6 -91q6 -41 -1 -117t1 -117q9 -41 47 -52t76 -5t78 -8q-2 -12 6 -19q12 0 13 -6q16 -53 -10 -64q-25 -11 -103 -3t-114 3t-167 -1l-24 6
q-80 -14 -197 -10q-35 12 -45 30q-12 51 27 70q31 10 92 11t86 7q45 12 45 108z" />
    <glyph glyph-name="U" unicode="U" horiz-adv-x="1462" 
d="M299 160q0 14 -14 46q-15 32 -13 46t-16 51q-10 55 -9 142t-1 143q-4 2 -1 22t0 34t-2 61t-1 71q-16 70 -13 84q25 72 17 182v45q16 27 8 62t-39 39q-70 8 -158 39q-12 10 -15 25q-3 16 6 22q31 22 70 22h79l32 -14q37 0 57 5t58 1q39 -4 158 4q120 8 137 -2q29 0 41 -22
t4 -54q-16 -2 -56 -10t-91 -6q-12 6 -43 6q-37 -11 -53 -54q-3 -10 -8 -28t7 -69q4 -31 -3 -81t-5 -77l6 -12q-6 -14 -6 -82l14 -418l-6 -18q2 -9 5 -25t9 -26t11 -34q6 -22 12 -30q12 -6 12 -19q9 -14 23 -25q14 -10 20 -16t30 -17t28 -14t6 -9t6 -9q33 -8 82 -32
q8 -3 47 -5t60 -10q39 -8 75 0q86 25 166 92q12 0 19 7q53 53 53 133q2 23 11 89t4 110t1 69t6 35q-12 37 -12 51v37q6 12 6 57q-10 25 -9 157t1 152l-12 39q-4 14 -22 28t-23 24q-16 10 -50 8t-51 4l-6 12q-63 6 -69 33q-12 14 -11 37q2 24 33 28t115 -5t123 1q18 0 32 -8
q35 -4 97 1q141 11 207 -28q18 -25 4 -45q-17 -35 -59 -51t-81 2q-47 -10 -64 -48t-21 -99t-11 -86q8 -14 3 -56t-2 -118t-9 -126t-10 -63q2 -12 -4 -38t-1 -53t-8 -72q-12 -44 -13 -51t-13 -36v-18q-14 -20 -27 -63q-47 -86 -108 -138v-12q-5 -6 -19 -15t-19 -13t-17 -8
q-12 -3 -22 -14q-11 -11 -53 -35l-49 -28h-26q-68 -28 -165 -21q-98 7 -112 7q-18 13 -68 31t-71 39q-18 0 -24 8q-4 10 -20 18q-16 7 -18 11q-3 4 -44 65q-2 2 -14 8q-12 7 -11 21z" />
    <glyph glyph-name="V" unicode="V" horiz-adv-x="1349" 
d="M478 1194q-32 0 -48 -12q-27 -27 -20 -65q8 -38 8 -48q12 -29 12 -45q10 -24 17 -62t13 -56t36 -103q10 -59 36 -115v-26q4 -6 10 -16t9 -20q2 -10 8 -30t15 -43t14 -37v-24q39 -80 49 -121q20 -53 63 -70q6 0 19 12q4 9 18 67t33 85q16 117 53 182q14 29 27 82
q6 57 39 145v44q10 16 20 38v19q49 70 27 176q-2 19 -16 31t-28 14t-43 3q-28 1 -38 3q-41 18 -31 51q4 27 31 41t51 11q6 -5 16 -9l15 -6h102q18 -4 127 -4h158q49 0 51 -2t7 -5t4 -8t-1 -27t-6 -27q-10 -5 -29 -15q-18 -10 -28 -16t-32 -4t-45 -11q-23 -12 -37 -16
t-28 -19q-14 -16 -20 -23t-24 -43t-37 -52q-12 -29 -13 -51l-14 -19q-2 -16 -39 -94v-20q-47 -96 -51 -107v-31q-12 -18 -21 -31q-10 -13 -15 -35t-11 -26t-10 -20q-5 -16 -11 -24l-10 -15q-4 -29 -72 -234l-12 -6l-8 -49q-49 -98 -57 -133q-12 -12 -13 -19
q-35 -106 -77 -118q-25 -10 -50 3t-31 37t-8 60q0 37 -6 51q-37 77 -44 103t-18 44t-32 89q-21 72 -30 92t-19 62t-29 67q-20 43 -16 84q-16 49 -37 100l-6 51q-27 53 -32 74t-23 70t-22 71t-40 109q-20 13 -80 27t-84 39q-16 29 -1 51t42 24t127 -11t123 7q14 4 43 -4
t39 -8q37 18 53 17t58 -2t61 -11q10 -8 8 -32t-16 -31q-41 -25 -73 -25z" />
    <glyph glyph-name="W" unicode="W" horiz-adv-x="1792" 
d="M1120 719l19 -31v-20q15 -23 21 -37t22 -80t37 -98v-25q4 -6 19 -36q16 -30 28 -41t28 5q2 8 17 44q14 36 10 59q37 57 65 213q14 21 26 74q13 53 13 90q8 45 33 125t33 114v45l14 25q-14 45 -39 51q-16 6 -51 11q-75 11 -92 48q-29 29 0 50q18 8 39 0q63 -6 227 -1
q286 9 252 -42l-19 -19q-22 -20 -50 -27q-28 -6 -39 -16h-19q-43 -10 -51 -37q-57 -88 -66 -151q-2 -16 -16 -41t-15 -38q0 -13 -12 -27t-14 -21l-6 -31q-8 -16 -14 -48t-13 -46q-23 -35 -42 -115t-36 -126q-18 -46 -22 -54t-14 -33t-17 -37v-20l-12 -6q-4 -19 -22 -53
t-17 -54q-10 -35 -33 -82v-18q-10 -18 -23 -70t-29 -70q-16 -20 -42 -22q-25 -2 -35 16q-29 55 -67 217q-4 29 -43 95q-4 4 -1 28t3 29l-19 33q0 4 -20 53t-27 75l-12 39q-16 54 -59 87q-16 6 -32 -16q-14 -23 -28 -54t-22 -43q-10 -9 -20 -27t-19 -24q-18 -25 -41 -80
t-31 -72q-6 -6 -12 -6q-6 -6 -6 -31q-35 -61 -47 -95t-34 -82t-32 -80t-38 -59q-28 -26 -62 -17q-21 16 -33 66q-11 51 -19 63t-4 27t-5 35t-24 92t-28 96q-12 24 -16 34v31q-8 12 -19 45q2 18 2 51q-4 18 -20 73t-17 91l-18 39q-4 27 -13 73q-10 46 -12 59t-5 40t-11 43v19
q-12 35 -21 76t-22 63v18q-11 23 -19 33q-12 23 -45 33q-31 0 -57 14t-31 37q-12 18 -8 47t33 28t79 1t93 -8q45 0 70 -2q84 8 165 0q18 -8 43 -33q8 -18 -1 -34t-39 -20q-30 -3 -59 -25q-30 -22 -21 -58q2 -7 5 -17t7 -14t1 -34t-3 -32l18 -37q0 -57 6 -90q33 -101 48 -192
q14 -90 25 -105q11 -14 8 -31t-3 -20q25 -59 36 -118t26 -85q14 -11 18 -18h12q8 0 27 18q5 18 19 54t20 53l12 6q37 80 41 87t4 46q3 8 13 20t14 23q3 47 34 97q31 49 38 61q12 37 18 57q10 82 -35 189v26q-27 82 -46 93q-19 10 -61 24t-62 32t-19 48q4 50 94 35
q35 -6 61 -5t45 1q18 0 85 -15q14 0 43 8t42 6t61 4q48 5 56 -1q47 -8 19 -64q-9 -15 -44 -24t-54 -18q-38 -18 -24 -96q7 -40 7 -50l12 -25q0 -32 14 -58t12 -43q-3 -17 -3 -20l26 -45l-2 -18q25 -33 37 -127z" />
    <glyph glyph-name="X" unicode="X" horiz-adv-x="1478" 
d="M1147 256q6 0 18 -12q0 -14 6 -21q18 -10 43 -40t33 -36h13q10 -6 49 -43t69 -41l6 -12q43 -13 43 -33t-30 -30q-53 0 -107 10t-143 2q-90 -8 -129 4q-14 4 -84 -12q-14 0 -54 -4t-56 -2t-27 14q-10 41 24 63q19 11 75 5t65 20q33 33 -15 106q-16 26 -20 33q0 19 -4 23
t-14 7t-9 11q0 8 -6 17h-12q-45 90 -62 106q0 14 -6 21q-14 8 -76 69q0 12 -6 19q-31 25 -57 -11q-3 -19 -25 -42t-51 -97q-4 -10 -19 -25t-19 -21t-16 -42q-13 -35 -24 -49q-61 -76 -20 -127q14 -14 45 -14t43 -6q76 -12 63 -58q-8 -18 -33 -18q-29 -10 -100 8l-26 -6
q-18 6 -107 6q-10 6 -38 1t-38 -5l-12 6q-33 -10 -88 -15t-78 -11t-51 6t-37 34q-14 45 14 64h19q10 4 26 12t25 12q57 6 129 36t188 132v13q4 4 10 7t11 5q12 37 31 49v14q4 2 8 6t7 4q3 1 10 8t7 15t8 11t11 6q68 106 79 128t11 54l-4 33q-10 27 -43 65t-42 58t-33 47
t-34 39t-22 35q-17 35 -45 67q0 12 -13 26t-112 127h-13q-4 5 -15 21t-21 25q-18 10 -52 18t-51 16q-16 8 -42 36t-40 41t2 48q33 34 86 10t72 -24q20 6 57 18q29 -2 74 0t84 -8q54 -3 97 6q43 8 61 11l26 12q68 12 82 -33q4 -27 -13 -44t-33 -20q-16 -4 -34 -6l-25 -3
q-60 -9 -73 -44q-6 -37 43 -90q7 -8 21 -37t28 -39q0 -19 12 -24q12 -4 13 -9q0 -5 12 -30q5 -6 15 -22t18 -23q8 -2 17 -16t20 -17q0 -10 14 -22t17 -21l24 -8q23 0 45 27q13 26 23 34t10 21l12 6q14 41 39 57q6 6 6 25q6 12 36 52q57 75 42 130q-6 47 -113 66
q-31 8 -18 63q12 12 32 12t88 -8q68 -10 107 -8q164 12 248 10q74 13 113 -20q42 -42 -27 -94q-6 -2 -22 0t-74 -18q-59 -21 -75 -28t-53 -29q-39 -22 -53 -26t-17 -7t-6 -8t-5 -7q-78 -45 -102 -107q-25 -12 -25 -30q-33 -12 -57 -76q-20 -27 -45 -43q-39 -47 -34 -71
t14 -50q9 -25 11 -37q12 -23 50 -61t56 -74t38 -60t23 -37t8 -18l12 -6v-18q24 -24 37 -52q6 -8 22 -21t23 -24q0 -18 6 -18z" />
    <glyph glyph-name="Y" unicode="Y" horiz-adv-x="1218" 
d="M419 82q63 0 70 43q10 55 -4 233l-12 21q11 56 6 118q-4 62 -4 85q0 6 -24 30q-57 90 -71 118t-39 89q-24 61 -44 92q-4 51 -23 87q-20 36 -42 72t-29 50q-12 0 -13 8q-16 36 -63 52q-14 4 -50 10t-47 11t-22 24q0 76 39 75q147 23 215 -10q27 6 80 3q54 -3 106 5t99 -4
q33 -8 18 -63q-11 -26 -62 -31q-51 -4 -65 -18q-6 -10 -6 -64q27 -66 43 -82q8 -12 12 -36t33 -79t47 -120q7 -35 27 -64t53 -12q10 4 22 27q11 23 23 28q-4 18 10 48t20 45t30 51q23 36 32 51q2 12 22 40q19 27 23 36v18q1 5 11 25q27 56 2 84q-14 10 -51 14t-45 6t-41 37
q-4 14 -3 20q2 7 10 21t11 22q57 10 168 6t168 5q113 10 127 10q34 -6 18 -76q-25 -37 -102 -49q-29 -6 -76 -43q-20 -20 -55 -57t-53 -56q-2 -6 -21 -32l-12 -7q0 -12 -6 -18l-13 -6q-41 -86 -45 -94q-45 -51 -71 -101v-18q-4 -14 -20 -40t-19 -42q-4 -51 2 -203t-6 -203
q8 -25 2 -87t14 -76q2 -1 10 -7q7 -6 59 -9t70 -5l27 6q9 0 33 -23t16 -46q-10 -33 -55 -47t-158 -2t-168 2q-23 10 -53 8q-31 -2 -47 0q-31 -6 -95 -6q-24 4 -40 19t-17 32q0 43 33 49h81z" />
    <glyph glyph-name="Z" unicode="Z" horiz-adv-x="1173" 
d="M158 1207q0 18 10 27t10 17q12 125 78 170q6 -2 12 -2q20 -10 48 -59t56 -50t175 -5t219 -23q41 -6 132 -3t132 -7q54 -69 -26 -144q-4 -2 -10 -20t-21 -25v-18q-3 -4 -15 -19t-12 -32l-12 -6q0 -12 -10 -24t-35 -50q-8 -20 -43 -55t-45 -75t-35 -59q-6 -6 -6 -26l-12 -6
q-4 -25 -26 -67t-28 -58l-12 -6q-77 -149 -168 -289q-59 -111 -84 -164q-16 -51 6 -51q60 -14 132 -11q73 3 89 3q61 -8 158 16q59 27 78 51q18 0 18 6t13 19q27 14 54 50t55 60q28 22 38 52q10 18 27 18q35 25 55 -6q12 -37 12 -51l-12 -25v-31q-29 -53 -33 -69l-12 -6
q-2 -8 -14 -32t-12 -54t-21 -66q-12 0 -19 -6v-12q-70 -12 -212 -6t-212 -9q-24 -4 -66 8t-60 13q-48 -6 -176 -4t-177 0q-4 6 -17 16t-16 15q-2 5 0 20q10 18 42 57t42 64q4 6 23 20q18 14 23 29q0 29 12 46t30 37t23 38q6 18 31 63t33 68l12 6q9 35 40 82t38 55
q4 14 32 57q0 6 7 19q28 38 66 108t56 99q77 159 136 264q3 10 -16 26q-19 15 -39 15l-40 -2l-24 14h-21q-6 -2 -15 -6t-23 -6t-78 -1q-62 1 -80 -3t-43 3q-62 17 -102 -34q-23 -31 -29 -53t-17 -74q-20 -51 -75 -43q-25 12 -31 27q-12 65 13 121q26 56 26 74z" />
    <glyph glyph-name="bracketleft" unicode="[" horiz-adv-x="595" 
d="M504 -246l12 -6q31 18 57 0q31 -12 36 -38t-6 -48q-11 -23 -32 -26q-21 -2 -63 6t-60 6t-60 3t-56 -1q-10 0 -26 3t-56 -1q-137 -13 -154 59q-14 31 -4 132t5 159t-5 293l6 27q-8 16 -10 49t-7 47t0 29q5 14 8 23t0 93t-7 132t0 252t2 247t-11 77t16 59q25 24 69 26
t116 4q70 2 90 4t29 2l33 -2q10 6 33 6q4 -6 20 -6q10 4 76 4q23 -6 30 -39t-32 -67l-120 -7q-30 0 -56 9l-23 -13q-12 0 -53 4t-65 -3t-37 -35q0 -25 -6 -108t3 -103q9 -22 15 -38t6 -96l-10 -20q-4 -70 1 -91t-4 -49t-1 -58t7 -92q-1 -64 8 -115t-7 -109q-6 -31 1 -83
t7 -73l-10 -16q2 -22 -5 -94t3 -95v-32q2 -13 -5 -53t-1 -64q6 -55 57 -66q25 -2 92 5t111 -17q4 4 43 4z" />
    <glyph glyph-name="backslash" unicode="\" horiz-adv-x="829" 
d="M655 -166v-27q80 -134 2 -157q-29 -10 -51 11t-18 40q-23 69 -25 86q8 16 6 20q-47 209 -80 273q-8 26 -15 52t-14 50l-11 39q-6 29 -47 157q-40 128 -63 227t-36 132l-41 176q-71 214 -102 291q-31 76 -35 107t15 40t48 11q16 -4 38 -26t34 -126q0 -2 9 -30t17 -81
q8 -52 19 -79q8 -10 17 -35q-6 -33 12 -72q47 -134 85 -274q38 -141 43 -155t43 -159q38 -144 45 -168t48 -110q0 -25 -4 -33q45 -150 61 -180z" />
    <glyph glyph-name="bracketright" unicode="]" horiz-adv-x="595" 
d="M463 1290q0 -12 3 -21t-4 -31t-7 -30q-4 -274 26 -473q6 -51 -6 -111t1 -109t7 -119t4 -105q-10 -40 -8 -84q2 -43 1 -197t2 -204t3 -65v-22q0 -52 -26 -71q-59 10 -82 6q-14 -8 -44 -10t-42 -6q-20 12 -85 6t-85 -4l-12 6q-8 -4 -64 -4l-10 4l-6 -4q-4 4 -33 22t-28 30
q1 7 7 17q5 5 9 13t8 10q45 8 76 8q18 6 79 4t79 1t48 5q28 2 48 5t35 19t12 34q-10 32 -3 72t7 59l-2 77q4 6 0 32t-1 42t-3 62q-6 45 -5 63q6 16 7 43l-11 21q0 77 8 119t-6 171l7 514l2 64v53q-12 35 -60 45q-20 4 -50 -1t-56 14q-152 -14 -215 22q-16 10 -17 32
q0 48 90 40q47 -4 74 2q52 -11 141 -10q88 2 115 2q64 -16 70 -38q2 -8 2 -20z" />
    <glyph glyph-name="asciicircum" unicode="^" horiz-adv-x="1505" 
d="M657 1253q79 -23 115 -45q21 0 39 8t25 11q72 -4 106 10q76 38 93 41q18 2 30 4t16 -14q10 -23 0 -43l-12 -6q-20 -29 -102 -95q-11 -10 -27 -41t-26 -42t-11 -17q-31 -31 -44 -69t-13 -52q-20 -31 -27 -43q-27 -115 12 -151q5 -9 23 -17t37 -3t81 15t111 39h33
q90 33 133 82q27 -6 82 49q12 0 19 7q0 6 2 12q20 23 43 26t39 -20q12 -37 -9 -63q-4 -8 -12 -28q-9 -20 -27 -46q-18 -27 -30 -115q-27 -88 4 -203q6 -28 32 -70q55 -90 23 -114q-18 -10 -37 2q-18 18 -29 28t-40 54q-39 82 -144 133l-6 12q-18 3 -50 19l-40 20h-25
q-40 24 -74 27q-34 2 -72 1t-48 -1t-18 -6t-9 -12q-32 -83 74 -254v-19q25 -58 31 -69q10 -10 23 -33t22 -31q0 -18 6 -25h12q7 -2 13 -12t12 -14q39 -66 57 -82q8 -10 8 -26q0 -34 -42 -39q-23 -1 -105 40h-21l-43 27h-18l-33 18l-99 4q-24 0 -43 -6t-51 -11t-49 -9
t-106 -45q-29 -10 -49 14q-10 10 -2 27l15 30q7 13 11 19q12 12 57 54q43 42 73 86t81 161l21 82v88q0 14 -16 30q-30 30 -85 13t-75 -23h-33q-65 -22 -73 -33q-7 -11 -9 -16q-33 -16 -63 -37q-16 -16 -60 -46t-61 -54q-22 -45 -41 -58q-18 -13 -23 -18q-23 -12 -45 0
q-57 50 11 149q13 19 33 43t34 118q18 68 8 157q-2 10 -55 121q-25 59 0 100q22 22 70 -36q14 -18 24 -27q18 -6 41 -30q22 -23 42 -33t24 -25l12 -2q4 -21 27 -35t43 -14l69 -33h19q35 -20 139 -33q27 0 39 37q6 29 -3 79t-9 66q-16 27 -46 111q-29 84 -61 119q0 12 -9 23
t-38 37t-41 42h-12l-12 18q-13 20 -13 31q0 10 6 21q47 70 172 -21h49z" />
    <glyph glyph-name="underscore" unicode="_" horiz-adv-x="2045" 
d="M867 2q-50 0 -72 -10h-21q-10 7 -26 12h-93l-43 12q-141 -14 -299 -14l-39 2h-43q-2 0 -54 -4t-52 4q-6 -4 -10 -4q-49 23 -60 33q-20 33 11 57t65 23q242 -6 268 -4q41 16 60 9t20 -9q47 0 103 10l16 -6q20 6 56 4t80 4t52 6q10 -6 31 -6q59 14 129 4h43q8 -2 23 4
q16 2 49 -5t53 -5t100 2l23 -4q20 8 86 8q172 14 358 -4q37 16 113 16q57 14 123 -2q71 -13 63 -76q-8 -41 -36 -49q-20 2 -45 -5t-64 7q-25 4 -65 -2t-75 0q-34 6 -53 0q-27 0 -36 4q-16 0 -30 -4t-54 2q-39 6 -62 0q-27 0 -37 4q-23 0 -35 -3t-72 1q-62 4 -75 -6
q-33 20 -71 8t-86 -10q-46 2 -59 -1t-40 3t-39 4q-29 -10 -79 -10z" />
    <glyph glyph-name="grave" unicode="`" horiz-adv-x="716" 
d="M496 1206q0 -12 6 -18q23 -10 35 -47t14 -41q10 -33 -19 -51q-24 -12 -34 -2t-41 34t-38 35q-7 10 -15 11t-12 7q-62 68 -93 80q-15 35 -71 71t-66 48q-10 11 -14 23t-6 20t8 22t6 25q12 0 18 7q57 57 96 45q29 -16 49 -58q11 -14 49 -46q38 -31 58 -67t57 -98h13z" />
    <glyph glyph-name="a" unicode="a" horiz-adv-x="821" 
d="M515 335q-1 39 -1 49t-20 40q-166 -33 -215 -166q-23 -84 38 -113q45 -18 107 -4q88 20 91 125q1 31 0 69zM184 354q8 0 37 13q47 41 145 79t136 62q12 0 25 25t6 52t-15 51t-10 34q4 43 -25 63q-35 29 -73 29t-70 -27q-29 -29 -47 -129q-8 -16 -37 -31q-2 0 -69 -5
t-68 5q-37 16 -37 87q0 12 13 25t52 39t58 44q66 37 96 49h21l45 27q72 0 110 12q23 4 98 -14q90 -20 115 -162l-12 -53q-2 -27 -3 -127t-13 -156q8 -24 3 -90t-3 -92q16 -53 36 -60q25 -6 64 6t61 7q33 -7 6 -66q-16 -12 -34 -31q-12 0 -19 -6l-6 -12q-25 -16 -59 -29
q-18 0 -25 11q-12 4 -28 -2t-25 -7q-66 23 -78 33q-4 8 -13 14t-12 13q-8 29 -32 65q-6 6 -13 6q-18 -6 -45 -34t-47 -31q-55 -78 -188 -49q-43 6 -74 39t-36 61t-15 65q-10 36 22 93q33 57 39 80q26 0 30 12q5 12 13 12z" />
    <glyph glyph-name="b" unicode="b" horiz-adv-x="913" 
d="M670 394q0 74 -6 81q-4 17 -14 59t-11 60q-15 35 -32 55t-23 29q-74 59 -146 51q-55 -10 -82 -31q0 -12 -8 -12q-18 -4 -27 -31t-16 -32q4 -63 -7 -167t-11 -194q0 -88 26 -164q143 -98 203 -26q94 16 133 155q1 27 11 60t10 107zM307 1046q0 -14 -7 -72
q-14 -116 26 -175q14 -16 43 -4t71 22t150 -33q12 -4 69 -18q5 -2 19 -15t24 -18l9 -12q12 0 18 -6q4 -12 31 -39q0 -12 6 -19q14 -6 22 -26t25 -49q16 -29 23 -45q49 -139 4 -222q6 -6 6 -39q-31 -94 -40 -107q-8 -13 -26 -40t-26 -35t-28 -26t-28 -29q-12 0 -18 -6
q-6 -12 -29 -22t-26 -16q-3 -7 -11 -8t-30 -13t-37 -11q-18 6 -58 6q-47 -11 -160 -3q-15 2 -39 14l-40 20q-51 26 -82 -2q-20 -12 -39 25q-4 23 2 61t6 53q18 422 13 955q0 16 -25 45q-16 16 -88 30q-23 7 -27 25t8 33q39 51 113 37q33 23 80 37t58 19t34 -7
q37 -37 12 -113q-10 -52 -1 -76t1 -44t-8 -32z" />
    <glyph glyph-name="c" unicode="c" horiz-adv-x="788" 
d="M242 485q0 -82 43 -202q6 -10 15 -35t37 -61t48 -50q33 -31 79 -36t85 22h18q94 51 121 82h25q10 -43 -3 -85t-55 -54q-8 -35 -63 -50q-20 -10 -70 -39q-59 -25 -108 -15t-95 11l-30 19h-21l-49 33q-49 37 -69 57q-68 92 -74 166q-12 78 -9 104t2 65q-1 40 1 78t26 74v19
q16 37 76 106q2 4 8 22t13 23q12 8 54 37t66 39q0 12 6 12h19q35 18 96 31q70 10 108 2t113 -35q76 -51 86 -84q12 -47 -6 -82q-14 -41 -56 -51t-77 27q-12 27 -37 76q-29 43 -133 84q-10 3 -13 -7t-5 -12q-68 -37 -114 -95t-46 -126l-12 -31v-39z" />
    <glyph glyph-name="d" unicode="d" horiz-adv-x="942" 
d="M618 571q0 37 -30 82q-51 51 -76 70q-92 53 -182 2q-66 -53 -66 -94l-18 -72q0 -10 6 -37q-29 -61 -2 -127q2 -6 -1 -22t5 -42t8 -36q4 -8 11 -34t26 -48v-27q6 -6 20 -34t31 -35q55 -27 70 -31q51 -8 139 43q25 25 33 40t10 55t6 52t4 23l-2 43q8 43 8 229zM635 1151
q0 26 -51 50q-10 5 -56 12t-59 25q-12 18 -2 34q20 32 46 22q26 -9 118 9t128 15t48 -28q12 -60 8 -141q-4 -80 -4 -93q0 -12 -8 -22t-4 -16q23 -37 -8 -121q-2 -10 3 -34t-3 -36l6 -24q-6 -23 -4 -75t-9 -71q11 -26 4 -76q-6 -51 -7 -98t0 -86t-1 -88v-37q-6 -18 -6 -63
q6 -14 4 -47t8 -41q17 -34 63 -41q46 -6 55 -9t10 -11t-1 -18q-2 -11 -2 -17q-47 8 -100 -25h-39l-18 -12q-6 0 -36 -2q-82 -5 -91 41q0 35 -25 51q-12 -16 -31 -24q-20 -9 -26 -13q-76 -84 -228 -55q-35 0 -88 57q-12 12 -30 12q-61 31 -93 135q-10 34 -21 61t-11 89
q-16 49 -12 59q4 11 10 27t11 52t21 90q16 52 20 60q5 8 14 18q9 9 14 16q37 55 102 106q25 18 119 45q35 14 111 0t110 -8q25 6 39 49q2 14 -3 49t0 46t1 21t0 26q4 18 4 155z" />
    <glyph glyph-name="e" unicode="e" horiz-adv-x="808" 
d="M449 766q-104 0 -134 -18q-78 -55 -108 -134q-3 -8 7 -16t22 -19q11 -11 40 -12l123 13q7 0 21 -7q23 7 81 7t72 18q49 51 -47 127q-12 0 -18 6q-25 35 -59 35zM702 186l-6 -32q0 -4 -9 -10t-11 -11q-12 -33 -48 -66t-59 -44h-20q-7 -5 -17 -15t-17 -12t-40 -4t-47 -8
h-27q-25 12 -32 12q-121 -8 -217 115q-35 47 -72 165q-6 23 -9 67q-3 45 -9 63t-1 49q6 31 7 41l14 26q0 46 47 140q0 12 12 40q31 39 74 58q14 0 21 8q94 80 186 72q119 -12 125 -15q57 -25 86 -47q90 -129 92 -133v-20q26 -39 6 -66q-25 -41 -92 -41q-2 -4 -26 -1t-27 3
q-121 -14 -166 -12q-61 12 -107 14q-27 -8 -80 -20q-14 -4 -22 -20t-4 -27q0 -39 12 -105q18 -53 60 -94q94 -84 178 -106q4 0 18 -6t21 -3q90 8 168 86v13q23 27 43 0t8 -47z" />
    <glyph glyph-name="f" unicode="f" horiz-adv-x="604" 
d="M127 82h51q20 4 35 21q14 17 10 40q-16 92 -6 209v58q-6 32 -4 114t1 102t-13 38q-12 12 -51 12q-41 10 -50 45q0 29 31 49q68 25 78 70q2 20 1 72t4 70t14 67q9 48 24 70q65 96 78 107q14 11 14 23q113 45 127 56h18q7 2 21 14t32 12t64 9t74 8q53 10 100 -19h19
q6 -4 19 -13l26 -18t18 -32q16 -45 -12 -97q-22 -22 -48 -24t-52 -1t-33 1q-27 72 -64 78q-2 0 -75 18q-43 8 -95 -31q-12 -12 -20 -12q-70 -49 -70 -139q0 -6 -12 -31q0 -49 4 -63q4 -13 -3 -49t-3 -52q12 -61 51 -69l87 4q17 -1 37 -11t26 -32q-21 -44 -83 -60
q-19 -4 -57 -9t-49 -7q4 -6 -2 -16t-6 -15q12 -18 5 -72t-5 -73l6 -19q-14 -68 -14 -172q-4 -12 2 -41t2 -41t-4 -30q12 -41 12 -51l-6 -13q0 -53 43 -63q66 0 82 -15q31 -31 12 -43q-25 -12 -43 -12q-229 -33 -381 -16q-18 0 -26 20t10 47t49 27z" />
    <glyph glyph-name="g" unicode="g" horiz-adv-x="851" 
d="M381 -4l-92 -19q-17 0 -25 -16t-12 -20q-57 -57 -57 -146q2 -6 5 -25t12 -30q10 -10 28 -33t28 -33q16 -10 64 -26q18 -18 24 -19q33 0 76 -14q10 0 139 18q20 8 91 52q6 4 20 24t29 25q22 77 2 157q0 39 -70 52l-12 12q-109 51 -228 41h-22zM559 524l12 27q8 51 -12 113
q-57 119 -162 102q-59 -10 -84 -49q-7 -14 -29 -50q-60 -96 -16 -184q2 -6 4 -25t9 -26q12 0 12 -6q14 -35 63 -70q8 -6 70 -7t97 54q36 55 36 121zM717 575l2 -39q0 -9 -2 -18q-12 -12 -12 -18q-12 -135 -154 -189q-15 -16 -117 -13t-117 1q-51 -12 -75 -37
q-20 -41 -21 -45q5 -23 23 -45t41 -31q70 -16 138 -8t189 -6q31 0 64 -14h39q27 -6 61 -58q14 0 21 -6q2 -8 20 -21t23 -24q43 -110 43 -194q-8 -80 -70 -152q-8 -6 -20 -18q-12 -4 -39 -22t-38 -22q-10 -4 -20 -13t-18 -13q-180 -84 -467 -35q-76 8 -131 93t-31 186
q12 35 31 60q20 25 26 36q35 4 61 30t21 56q0 20 -36 33l-19 18q-4 2 -13 6q-58 26 -44 142q10 35 84 106q2 2 18 9t22 26q5 18 -26 46t-33 32q-57 109 -18 229v25q4 14 18 36q15 22 21 31q6 10 57 45q15 4 59 22t60 20t52 10t44 6t45 -9q74 -27 170 -26q11 4 29 16t29 15
l81 12q21 -5 58 -12q35 -29 24 -82q-4 -20 -21 -32t-29 -8q-12 3 -35 12q-74 30 -85 15q-8 -4 -8 -45q37 -66 25 -119z" />
    <glyph glyph-name="h" unicode="h" horiz-adv-x="1026" 
d="M324 158q0 -40 -1 -58t6 -30t22 -16t52 -5q37 -2 50 -4q39 -16 39 -51q-14 -33 -46 -33q-28 4 -76 8t-69 6q-18 18 -31 21l-184 -6q-60 0 -68 40t50 68q10 4 28 -4t29 -4q12 0 25 27q8 29 11 83t9 81v63q0 14 9 72t5 86v63q12 18 10 88q-3 70 -1 88q4 5 6 15t6 16l8 303
q5 31 -69 59q-42 16 -56 25q-37 25 -31 45q5 8 41 32q35 24 80 24q53 10 88 36q0 14 6 13q16 -4 50 4t45 8l32 -12l2 -31q0 -9 -13 -122t-11 -175v-57q-6 -12 -6 -33q6 -18 6 -49q-6 -14 -6 -82q-16 -39 24 -39q25 8 51 31q25 37 50 45q2 2 51 18h18q47 33 105 33t104 -29
l6 -12q14 0 21 -6q6 -10 28 -30t39 -54q6 -23 10 -72t8 -78q5 -29 -14 -127q0 -27 7 -39l-15 -290q2 -3 4 -15t12 -17t43 -12q64 -14 74 -53q0 -12 -8 -24q0 -31 -37 -30t-140 3t-138 8t-61 1t-33 -5q-33 8 -19 51l12 7q8 37 70 36q23 6 39 58l-6 18q12 33 14 96t8 83t0 38
t-2 29v197q14 45 -30 75q-6 6 -19 7q-33 35 -82 45q-61 25 -114 -19q-25 -25 -37 -31q-63 -59 -64 -112q-18 -131 -14 -166t-2 -87t-8 -73t-2 -61z" />
    <glyph glyph-name="i" unicode="i" horiz-adv-x="520" 
d="M49 27q0 31 35 31q34 0 64 16t34 47q2 31 6 94t9 94q0 51 -7 78q0 18 13 68q4 133 -17 209q-4 4 -13 11t-11 9q-76 29 -88 39q4 3 11 17t28 16q22 2 74 26t63 27h18q50 14 66 7t24 -7q6 -43 8 -124t3 -101q2 -20 -4 -39q-6 -20 1 -54t4 -102q-3 -67 -3 -81q-1 -14 -9 -41
q-8 -26 -3 -42t3 -64q-2 -47 1 -63t15 -26t23 -11q49 12 82 -12q27 -27 19 -45q-25 -31 -61 -35t-82 3t-72 3q-12 -6 -33 -6q-20 8 -66 7q-46 0 -58 8q-14 8 -24 2t-16 -4t-15 10t-16 10q-6 2 -6 25zM354 1239q10 -43 -20 -79t-76 -36q-86 4 -100 60v76q10 31 39 49
q41 31 108 6q22 -13 49 -76z" />
    <glyph glyph-name="j" unicode="j" horiz-adv-x="512" 
d="M203 606q0 28 -15 53q-18 7 -58 9t-58 12q-8 0 -24 17t1 34q17 19 29 21q64 13 100 26l10 -6q43 13 77 30t54 14q19 -3 31 -4t22 -18q10 -16 4 -32q-5 -16 -2 -56t1 -57l-6 -14q6 -61 2 -215l-6 -21q6 -14 2 -59q-11 -59 -9 -169t-6 -169l-8 -70q-2 -12 -16 -38
q-14 -25 -19 -35q-19 -1 -23 -27q-5 -26 -10 -35q-25 -18 -57 -47q-66 -84 -205 -158q-18 -8 -77 -16t-107 12t-49 68q-4 96 59 121q36 13 91 -17t79 -32q41 4 111 65q2 2 10 4t10 6q21 8 24 29q1 6 3 20t6 32t1 100t11 112q0 20 -4 33q0 23 8 41q0 39 -4 55l2 64
q10 152 6 185q-4 32 3 68q6 36 6 64zM395 1229q2 -70 -59 -115q-20 -14 -49 -7t-43 8q-47 3 -56 28q-16 45 -8 90q14 37 62 74q72 27 112 -11q4 -6 19 -22t22 -45z" />
    <glyph glyph-name="k" unicode="k" horiz-adv-x="866" 
d="M344 112q0 -9 18 -28q16 -4 24 -16q9 -13 15 -20q7 -7 5 -26t-13 -20q-100 -12 -297 -12l-33 -13q-10 1 -14 11t-10 10q12 12 0 25l12 6q-9 17 8 30t23 18t36 12t36 22q37 59 26 145l-6 12q12 12 5 50t-5 51q16 46 16 117l-2 118q-6 12 -6 37q12 98 10 188t1 154v113
q-13 41 -35 55q-22 13 -66 23t-51 12q-6 0 -9 9t-9 9q12 12 0 27q6 2 15 11t17 13q137 51 146 56h18q29 24 67 24h66q0 -12 13 -24q6 -25 -1 -70t-6 -63q10 -40 6 -178t-4 -177q6 -33 -5 -103t-1 -112q0 -72 17 -95q17 -22 42 3q7 8 18 22t18 19q12 0 15 4t5 13t4 14
q35 41 47 70t17 38q6 9 6 15v11q0 11 -6 17q-11 5 -25 17t-20 16q-8 8 -4 28t20 23q28 12 106 7t103 -3q68 16 84 13q39 -12 41 -27q-2 -2 -17 -18q-104 -45 -131 -59q-71 -39 -110 -109q-8 -8 -15 -11q-4 -6 -8 -22q-10 -2 -19 -16t-16 -19q-8 0 -23 -14q-15 -15 -21 -29
t-5 -21q3 -7 15 -23t18 -23q0 -25 25 -25q53 -68 81 -96q2 -4 6 -16t7 -15q22 -11 45 -57q2 -2 12 -8t12 -11q14 -37 66 -84t65 -63q25 6 52 -39q16 -25 -27 -43q-14 -6 -50 2t-50 -2q-18 0 -31 6q-31 2 -51 -4l-33 12q-84 -14 -107 -6q-16 0 -25 10t2 29t39 31t30 12l4 12
q6 10 0 20t-41 51q-35 40 -45 68h-13q-33 23 -75 84q-12 17 -30 23t-34 -23q-2 -14 -1 -57t-4 -61t0 -48t5 -39z" />
    <glyph glyph-name="l" unicode="l" horiz-adv-x="516" 
d="M186 1014v45q8 47 -32 71t-95 17q-25 -1 -33 17t9 34q39 18 116 59t127 62t68 -16q18 -18 19 -50q-7 -55 -7 -143t-2 -138t-3 -226t-13 -271v-51q6 -168 -2 -315q0 -23 37 -39q14 -2 62 3t71 -22q14 -25 -14 -63q-30 2 -132 1t-130 4t-98 -2q-69 -7 -89 5q-8 2 -12 16
q-12 40 61 64q50 16 60 23t12 17t11 18q9 10 11 30t-3 49t-5 43q12 141 4 479q0 57 5 87t1 98t-4 94z" />
    <glyph glyph-name="m" unicode="m" horiz-adv-x="1581" 
d="M969 -23h-95q-34 9 -120 5t-110 -3t-54 21q-10 10 -11 28t11 27q14 9 48 13t42 18q14 27 17 76q4 68 22 127v121q-2 18 5 57t3 61q-10 22 -13 58q-3 35 -5 42t-4 18t-9 16q-16 8 -24 26q-33 31 -103 31q-33 8 -94 -17q-90 -47 -108 -133q-3 -16 -7 -59t-8 -68v-188
q-12 -76 -2 -158q6 -27 51 -35t56 -16q0 -10 20 -20q-8 -8 -8 -25q-33 -25 -94 -25q-31 5 -81 5q-62 -1 -94 9q-42 12 -78 -1q-36 -14 -54 -10t-24 20t-3 31q12 12 12 18q14 17 53 19t48 6q39 18 39 106q-6 14 -7 33q10 57 10 161t7 160q6 6 -6 33q1 31 -7 38q-23 22 -29 27
q-5 5 -23 11t-23 12q-19 38 -18 49q3 37 53 69q10 7 14 9t16 10t17 9q0 12 10 12t16 6q27 43 82 43q10 2 28 2t22 -21q3 -21 -2 -71t4 -58q9 -9 30 -10q9 6 29 16t28 15q37 37 64 58l6 12q8 4 34 19t59 32t47 12q13 -4 42 -2q78 -29 97 -33q16 -8 24 -24h12q22 -13 31 -56
q10 -43 23 -55t55 21q41 32 68 37q18 48 67 70q86 39 199 5h18q8 -4 36 -14t40 -31q0 -14 13 -26t15 -24t5 -39q2 -26 5 -35t17 -85q2 -25 -5 -95t5 -95q0 -25 -4 -36t-4 -109v-45l-2 -61q0 -31 21 -52q14 -12 45 -24t43 -21q22 -22 12 -45q-41 -27 -76 -19q-14 9 -45 11
t-45 7t-42 5l-107 -8q-5 0 -15 -6q-39 -23 -72 0q-33 22 -28 57q6 2 28 19t35 14q37 -16 58 4q10 18 15 53t11 53t6 43l-6 105v63q8 12 8 31q-6 37 -9 120t-21 101q-35 31 -53 45t-61 28t-87 -14q-44 -27 -84 -57q-6 0 -18 -12l-6 -25q-14 -24 -22 -64t-17 -57
q12 -63 2 -186t0 -192q0 -15 13 -23t53 -17t54 -30q14 -31 7 -39q-25 -25 -39 -25z" />
    <glyph glyph-name="n" unicode="n" horiz-adv-x="1026" 
d="M346 410q0 -109 -6 -170l6 -134q10 -53 64 -63q47 0 63 -20q14 -11 6 -27t-26 -16h-107q-10 0 -60 8t-80 -5t-138 -1q-16 0 -20 22t7 41q11 12 23 12t38 -6t46 12q20 27 20 64q8 74 11 211q2 137 4 168l-7 31l9 12q-13 63 -29 75t-44 22q-28 11 -42 24q-27 31 8 51
q18 12 74 47t78 55q24 21 55 19t39 -29v-100q14 -41 37 -31q12 4 27 14t18 11q55 63 84 81l6 13q178 115 297 4q31 -34 44 -95t17 -77v-43q-6 -35 6 -109q2 -31 -9 -123t-3 -110t2 -32t-4 -23t3 -53t15 -58q32 -31 80 -31q18 -5 20 -27t-13 -30q-76 -14 -88 -25q-8 12 -38 5
t-35 -5q-5 3 -16 9t-26 6q-18 -6 -55 -7l-21 7q-55 -33 -100 -7q-23 23 0 58q14 12 46 20t48 24q16 15 20 51t-1 67t1 65q24 36 15 98q-10 62 -3 80t2 48t-4 40t1 50q-17 84 -45 114q-29 18 -68 19l-20 12q-4 0 -27 3t-33 -6t-51 -31t-59 -34q-45 -41 -52 -75
q-10 -61 -10 -170z" />
    <glyph glyph-name="o" unicode="o" 
d="M465 731q-96 0 -160 -119l-12 -8q-7 -16 -23 -48t-22 -50t-6 -62q0 -43 -6 -65q-3 -39 20 -116t92 -141q25 -23 48 -33q22 -9 32 -15h21q33 -16 71 -12t60 30q2 2 15 3t16 6t7 15t7 13q88 74 96 158l12 18q1 9 15 70q0 47 -19 94q-39 176 -151 229q-4 2 -29 16t-34 16
q-9 1 -50 1zM409 844q13 0 40 6t36 0q8 0 41 2t40 -1q6 -3 22 -9t22 -11q115 -16 152 -77q80 -48 122 -142t40 -194q10 -96 -33 -170v-21q-37 -74 -70 -106l-6 -25q-43 -39 -63 -45q-43 -27 -58 -31h-18q-68 -43 -115 -49q-80 -18 -158 0q-69 19 -83 21t-48 32t-59 25
q-96 100 -119 154q-2 10 -11 39t-12 42t-2 51t-3 47t-8 20q-3 11 -7 16q0 18 10 57t11 62q4 4 7 15t5 17v19q6 12 32 49t34 57l24 25q86 59 100 66t68 33t67 26z" />
    <glyph glyph-name="p" unicode="p" horiz-adv-x="933" 
d="M336 656q0 -26 -7 -108t4 -123q11 -42 5 -67q-15 -63 3 -118t79 -117q37 -26 80 -14t53 12q27 0 70 57q12 18 22 60t23 59q10 29 8 62t2 67t-8 125q-14 35 -25 88q-11 26 -30 52q-19 25 -24 35t-15 12q-9 1 -18 7q-8 7 -26 13t-46 10t-40 8t-59 -26l-20 -21
q-3 -6 -17 -27q-14 -20 -14 -46zM328 -162q0 -106 -6 -164q23 -51 133 -51q19 0 37 -11t18 -43t-12 -42q-43 -25 -152 2q-10 2 -65 2t-86 12q-57 -18 -170 -18q-23 0 -52 33q-6 12 -6 32t3 25q3 6 24 21q20 16 62 8t58 -5t30 19t14 40v240t2 236t14 45q6 33 3 105t5 104
q0 44 -4 60t-1 40t-1 39q0 59 -37 82l-37 10q-70 24 -45 86q65 45 83 51t55 19q37 14 53 11t38 -18t39 -15q17 1 41 25t60 32q115 18 213 -8q84 -33 170 -133v-15q23 -30 43 -94t27 -82q-7 -24 -7 -66t-2 -67q-12 -37 -12 -63q-8 -25 -51 -125q-16 -27 -33 -33v-12
q-4 -4 -14 -18t-19 -19q-90 -82 -157 -76l-39 -19h-49l-27 15q-14 -2 -59 5q-46 7 -56 -1q-10 -7 -12 -19t-8 -44t-6 -138z" />
    <glyph glyph-name="q" unicode="q" horiz-adv-x="880" 
d="M586 688q0 16 -8 24t-74 44l-43 6q-50 0 -87 -35q-16 -14 -22 -20q-8 -8 -33 -39q-26 -31 -30 -43q-33 -55 -58 -170l13 -21q-12 -86 16 -176v-18q4 -8 11 -31t28 -41q0 -6 -2 -12q33 -52 92 -68t111 4q47 10 69 68q12 29 27 102v100q-4 16 -1 136t3 137q-12 37 -12 53z
M758 782q10 0 12 -10q23 -57 -8 -127q-6 -18 6 -55q4 -16 -12 -82q-12 -426 -6 -854q0 -25 51 -39q10 -4 29 1t26 5q66 -14 77 -42q11 -27 -22 -49t-63 -8t-63 13l-138 -8q-14 0 -57 -4t-70 6q-10 -6 -22 -6t-20 3t-20 11q-13 8 -20 10q-14 9 -14 29t10 29q26 18 62 15
t63 -3q33 0 33 64q8 51 -12 112q0 27 6 39q4 31 2 82q-2 50 -1 70t-8 32t-22 13q-6 -2 -33 -21q-6 2 -24 2q-127 -51 -254 15l-6 12q-39 6 -65 33t-51 82q-26 55 -34 69v19q-18 37 -18 45t-5 54t-1 73v67l-7 15l12 24q7 16 9 19q0 14 12 51v24q14 16 30 48q15 32 28 47
l57 57q99 53 191 70t196 -5q26 -4 64 -24q38 -21 52 -25t26 -1t22 3z" />
    <glyph glyph-name="r" unicode="r" horiz-adv-x="710" 
d="M375 596q1 -14 -7 -48t-7 -85t-7 -66q0 -39 6 -57v-70q-4 -14 2 -42t4 -37t-8 -41q4 -8 8 -32t14 -36q9 -12 30 -14q78 0 100 -39h12q-6 -6 -6 -25q-12 0 -12 -20q-18 -12 -76 -8t-76 4q-20 -2 -92 2t-92 -9q-16 10 -59 5q-43 -6 -57 8t-15 20q-8 37 19 55q28 18 69 15
q39 0 39 76l18 36q4 31 3 106t5 109q0 27 -6 41t3 54t-3 57q0 2 4 12q16 40 -12 72q-27 33 -65 37q-5 0 -8 8t-5 10q-20 0 -20 7t-4 25t6 19q27 17 83 45t87 50q59 27 82 -15q12 -25 13 -75t17 -76q18 10 37 40t78 93q27 22 84 55q37 16 75 3t56 -48v-18q43 -80 6 -127
q-20 -25 -56 -29t-56 2t-66 23q-66 29 -119 -25q0 -2 -13 -18q-13 -15 -13 -29z" />
    <glyph glyph-name="s" unicode="s" horiz-adv-x="688" 
d="M557 846q0 -168 -27 -228q-22 -4 -36 12t-15 38q-27 70 -37 77q-82 51 -133 33q-2 -2 -6 -4t-10 -6t-8 -4q-51 6 -71 -34t-19 -86q-1 -46 37 -73t90 -28l18 -13q23 0 63 -12h31q8 -4 36 -17q66 -31 97 -67q87 -104 55 -242t-153 -200q-49 -29 -95 -20q-46 10 -96 10
t-75 6l-37 18q-39 4 -51 27h-13q-30 30 -30 57q6 29 3 82q-3 54 2 74t20 25t26 1q45 -45 61 -100q0 -41 45 -78q51 -35 107 -38t102 38q4 20 30 62t27 68t-9 42q-11 16 -16 26t-32 36h-18l-43 26q-25 0 -68 12t-65 15q-22 4 -42 25q-21 20 -33 25t-25 16q-13 12 -19 16
q-2 6 -12 18t-15 19q-18 80 -18 84l20 61v27q15 61 58 112q14 18 18 25q22 22 109 51q86 8 157 -26q23 -6 58 8t45 16q12 0 12 -12z" />
    <glyph glyph-name="t" unicode="t" horiz-adv-x="641" 
d="M160 621v45l-19 18q-6 8 -18 8q-78 -41 -109 6q6 6 6 13l-6 6q12 12 13 26q27 34 108 95q75 84 99 131t52 64t46 8q16 -9 19 -29t-4 -94t9 -89q61 -29 140 17q41 23 82 12q20 -10 32 -30t19 -27l6 -25l-12 -6q-13 -41 -33 -52t-62 -12t-59 -12q-131 39 -133 -37
q0 -14 -7 -105t-6 -103q9 -108 1 -174t4 -85q27 -68 73 -75l70 12q18 2 53 19t56 18q26 -31 18 -66t-39 -55q-12 0 -18 -6l-19 -19q-14 -4 -36 -19t-33 -17h-58l-24 -13h-70q-14 3 -42 17t-38 17t-20 9t-15 8q-7 7 -21 35q-15 29 -15 68q-25 246 16 373q-12 31 -9 73t3 52z
" />
    <glyph glyph-name="u" unicode="u" horiz-adv-x="970" 
d="M932 96q0 -25 -39 -37q-20 -20 -39 -25t-23 -12q-4 -8 -12 -7t-26 1q-72 -43 -134 -30q-23 0 -29 17t-6 45q-1 28 -8 38q-43 0 -102 -68h-18q-35 -14 -121 -57q-35 -14 -107 14q-88 29 -127 121q-6 14 -2 50t-2 57l6 26q0 86 -6 101q10 41 7 124t8 130q6 47 -7 137
q0 25 -42 33t-52 26q-7 16 9 32t44 20q28 6 41 10q14 4 44 -1t40 -3q11 2 31 -4t33 -7l12 7q2 -2 13 -4t12 -9q0 -131 -21 -170q2 -49 -6 -193t4 -192q0 -59 37 -108q14 -11 19 -19t15 -12t23 -5q11 -1 53 -2q42 0 88 22t62 38q39 51 39 103l14 270v145q-5 52 -94 64
q-31 4 -44 8t-19 22t2 21q33 37 100 18q20 -12 95 -8t89 3t22 -5q7 -4 10 -7t9 -14q5 -12 9 -18t-1 -30t-6 -29q6 -45 -4 -122t-14 -162t-14 -170t8 -140q18 -10 55 -5t53 -1q19 -19 19 -27z" />
    <glyph glyph-name="v" unicode="v" horiz-adv-x="843" 
d="M315 768q-41 -10 -26 -72q8 -32 39 -116t43 -123q29 -43 41 -81t24 -60t14 -34q2 -13 9 -22q16 -14 30 0q47 72 60 170q4 10 13 26t11 25l7 45q18 32 29 96t24 93q-4 6 -9 22q-12 38 -36 41q-6 4 -22 -1t-20 -4q-3 1 -23 8q-19 7 -23 24v31q66 14 104 13t115 -7
q78 -6 108 3t52 7l20 -6q0 -51 -8 -58q-9 -2 -21 -13t-22 -11q-39 0 -84 -57q-12 0 -19 -7q-45 -68 -57 -106q-8 -39 -33 -82v-18q-4 -12 -16 -35q-11 -23 -39 -105t-111 -264q6 -86 -59 -158q-16 -16 -43 25v20q-17 35 -39 101t-30 70q-8 3 -7 6q-37 102 -49 147
q-25 59 -31 94q-6 16 -21 44t-22 44q-50 202 -125 273q-14 12 -43 14t-38 6l-13 -6l6 31q8 1 10 7t9 13q27 18 56 15t46 -5l70 13l121 2l79 -2q33 0 33 -27q0 -49 -84 -49z" />
    <glyph glyph-name="w" unicode="w" horiz-adv-x="1161" 
d="M227 287q-18 31 -18 81q0 8 -15 31t-36 81t-23 84t-14 26v20q-25 61 -25 83t-12 38q-12 0 -12 6q0 12 -6 19h-13q-24 24 -39 24q4 14 -7 34t-11 30q12 39 52 22t57 -21q18 -3 58 1t48 -8q23 11 87 2q12 -2 11 -25l-4 -37q-10 0 -19 -14t-18 -16q-12 -12 -12 -31
q-2 -80 61 -203v-33q-1 -6 9 -14t10 -10q0 -33 13 -61t25 -67q12 -40 25 -48q40 -24 62 22q55 115 60 137t13 30q7 9 11 17v19q49 74 0 133q6 39 -31 100q-25 27 -70 27q-26 4 -34 24t4 39q11 11 31 14q19 3 51 7t120 -16q31 -6 87 4t83 8q33 -16 25 -34q-9 -18 -23 -30
q-14 -10 -43 -22t-34 -15q-6 -67 38 -172t57 -165t19 -70t21 -37l12 -6q20 6 33 31q47 147 57 170v20q4 14 17 42q12 28 15 40t16 57q18 60 -1 95h-12q-4 0 -8 4q-3 8 -20 15t-25 13t-9 25t11 24q37 12 57 7q23 -12 95 -10t94 0q22 -4 24 -24t-10 -26q-106 -55 -141 -207
q-23 -20 -40 -73t-24 -66q0 -18 -2 -31q-12 -11 -12 -31t-25 -69v-20q-14 -19 -34 -63t-25 -56v-19q-15 -25 -29 -75t-22 -70l-19 -18h-33q-12 0 -12 12v6q-12 23 -30 75q-17 52 -37 77q5 27 -3 57t-16 67q-8 36 -15 48t-15 28q-27 61 -46 57q-8 -3 -24 -10q-12 -12 -13 -30
q-4 -8 -26 -31q-2 -6 -5 -20t-7 -19q-43 -53 -97 -182v-33l-18 -19q-4 -5 -18 -35t-24 -44q-40 -50 -67 10q-10 22 -12 26v25q-4 9 -13 29t-12 28q-8 82 -49 166v19z" />
    <glyph glyph-name="x" unicode="x" horiz-adv-x="823" 
d="M20 -18q-10 0 -16 9t-8 11v12q8 27 33 37q90 25 127 51q31 31 63 80l12 8q6 25 38 60t36 44t15 27t8 31q-22 53 -50 100t-32 54q-23 68 -62 106q0 72 -106 129q-80 55 -39 88q13 -1 73 5q158 15 238 -13q27 -8 21 -23q-7 -14 -13 -24t-15 -22t-13 -19v-20
q66 -115 76 -127h18q18 -53 22 -58q0 27 42 99q42 73 44 80q0 39 -5 42t-22 8t-23 8t-18 11q-13 8 -10 16t3 21q5 13 33 21t39 12t38 -2t45 -7t82 6q120 13 124 -28q4 -23 -19 -41h-15q-12 0 -12 -12q-20 -12 -76 -32t-82 -44v-12q-12 -8 -75 -108t-66 -101q5 -18 19 -48
t18 -40l14 -6q4 -9 12 -29t16 -37q7 -17 34 -43q0 -15 10 -21q10 -7 14 -10q8 -14 26 -63t50 -70l40 -20q32 -16 39 -28t7 -30t-4 -18q-48 -21 -95 -17q-47 3 -77 1l-107 -6q-69 0 -69 24q16 35 51 51q6 6 6 25q-49 127 -88 178q-16 4 -38 -18t-32 -25q-5 -20 -29 -61
t-28 -66q-6 -4 -4 -15t10 -16q4 0 14 -3t24 -6q13 -3 18 -8q4 -5 11 -11q7 -7 5 -13t-2 -16q-20 -20 -27 -20q-18 4 -56 2t-56 0h-179z" />
    <glyph glyph-name="y" unicode="y" horiz-adv-x="811" 
d="M291 158q0 6 -9 15q-8 9 -10 18t-6 47t-18 57q-14 18 -19 27q-1 24 -23 76t-21 72t-11 34q-12 12 -14 20v33q-6 16 -22 45q-15 29 -21 43q-10 68 -37 96q-55 33 -76 70q-4 11 5 21t25 10t74 5q60 5 78 2t33 -9q13 -6 19 -6h20q49 16 64 12q25 -12 24 -43q-6 -18 -45 -45
q-12 -12 -12 -25q0 -90 61 -196q4 -5 1 -25t3 -35t22 -61q33 -98 48 -107q0 -37 33 -39q24 0 38 44q15 44 24 64t13 32v18q0 6 10 15q9 9 10 26t21 59t23 52l14 6q4 12 7 52t18 60q-51 76 -75 88t-36 15q-12 2 -22 10t-17 8v27q141 7 331 -21q14 -2 18 -8q18 -35 -52 -69
l-8 -13q-10 0 -18 -11t-16 -12t-15 -7q-55 -110 -61 -137q-5 -27 -23 -64q-6 -27 -41 -93t-37 -104q-4 -15 -17 -35t-16 -28v-19q-2 -8 -11 -24t-13 -27q-16 -72 -84 -240q-4 -6 -14 -19t-13 -17l2 -31q0 -8 -4 -18q-4 -9 -20 -53q-15 -44 -29 -68t-46 -61q-32 -36 -42 -52
q-35 -51 -109 -76q-94 -35 -145 21q-12 12 -12 57q-6 18 6 55q10 23 39 19q7 0 17 14q9 14 14 19q12 16 61 6t66 -9q8 5 22 17t23 16v13q2 4 13 12t11 18l14 6q10 29 43 93q33 63 34 73t-4 26t-15 30t-12 18v27l-31 63v25z" />
    <glyph glyph-name="z" unicode="z" horiz-adv-x="843" 
d="M772 -3q-16 -3 -16 -13q-20 0 -45 -13q-47 -6 -139 -2t-120 -1q-30 -5 -48 1t-27 4q-19 -12 -77 -7t-77 3h-43l-18 -6q-8 2 -34 3t-36 16q-43 55 45 139q6 6 6 24q55 100 58 103l12 6q16 25 42 75t42 74q27 55 33 82l12 7q8 14 27 63q18 49 37 70q6 12 16 38q10 27 18 41
t-14 41q-34 34 -116 26q-30 -3 -52 -1t-47 -10q-51 -33 -70 -88q-2 -4 -6 -7t-8 -7t-8 -9q-4 -4 -4 -16q-29 -43 -52 -31q-23 23 -9 55q14 31 14 77q-2 46 11 104q22 95 64 104h13q14 -10 27 -39t22 -37q27 -18 63 -18q46 6 180 3t181 -1h51q78 -16 49 -64q-16 -16 -18 -28
t-7 -16q-6 -4 -16 -19q-10 -14 -16 -18q-6 -5 -20 -19t-25 -18q-8 -55 -39 -101q-14 -29 -50 -87t-53 -89q-2 -6 -1 -20t-5 -19l-12 -6q-74 -141 -90 -182l-12 -6q-3 -14 -23 -40t-16 -42l6 -13q27 -12 119 -9t114 1q2 1 45 19t58 37q12 25 12 39q10 20 33 43q6 9 16 33
t16 33q5 9 21 19t31 -6q15 -15 13 -33q-3 -19 -9 -39t-6 -110q0 -89 -23 -93z" />
    <glyph glyph-name="braceleft" unicode="{" horiz-adv-x="739" 
d="M88 488q0 -24 39 -42q219 -55 303 -114q56 -41 62 -121t-33 -137q-72 -98 -84 -217q-13 -72 53 -113t156 -41q20 8 32 -17t6 -49q-7 -23 -33 -43t-41 -16q-41 11 -56 18t-35 15q-19 8 -27 12l-24 12q-16 9 -26 17t-24 20q-15 12 -30 41q-51 137 -19 228q6 31 26 93
q19 62 22 91t1 90t-77 117q-41 32 -150 70t-154 92q31 20 98 36t85 26l54 30t58 30q98 72 113 181q0 73 -59 230q-18 48 -24 117q-5 69 26 120q40 70 112 112t146 31q22 -8 28 -44t-20 -42q-18 -6 -64 -17q-46 -10 -72 -20q-24 -10 -50 -35t-31 -61q-6 -36 9 -76
q15 -41 20 -55t32 -52q27 -37 31 -57t17 -63q14 -43 18 -65q14 -66 -33 -107v-29q-90 -102 -295 -154q-86 0 -86 -42z" />
    <glyph glyph-name="bar" unicode="|" horiz-adv-x="784" 
d="M199 -410q-92 0 -49 172l-7 29q8 41 9 213q-14 18 -15 37q8 20 8 57q-10 27 -1 150t10 149q-12 85 -12 105t6 32q8 12 10 26q2 16 -17 81q0 29 9 43q4 35 -3 128q-6 93 5 136q0 10 -15 78q0 12 4 57t-10 78q0 29 8 43q4 31 -5 89t-9 83l4 34q0 9 -3 17t-7 32t-9 49t9 61
q18 33 37 43q78 16 86 -31q4 -39 -2 -110t-7 -97q-20 -233 3 -577q0 -35 -9 -58l9 -28q0 -57 -2 -91q-15 -343 12 -501q-20 -94 -2 -330q0 -8 9 -15q9 -8 6 -56t-3 -50q10 -18 0 -43q-25 -35 -57 -35zM655 530q0 -80 -2 -108q8 -20 6 -70t0 -65q14 -49 15 -86q-2 -4 -8 -49
q-4 -4 2 -20t4 -32t-2 -210v-224q6 -33 -25 -62t-71 -1q-9 6 -11 6q-18 25 -18 67l4 68q2 18 18 84t13 102q-6 20 -7 86q15 35 -8 58l8 35q-25 213 -4 370q0 14 6 51q7 37 1 68q-6 32 -8 104t-5 99q6 369 4 401q-7 3 -12 28t3 40q7 16 10 34t-11 78q-14 61 -2 99l-8 14
q12 18 0 57q-25 80 32 86q35 5 67 -27q9 -9 9 -18q16 -324 8 -653q-8 -330 -8 -410z" />
    <glyph glyph-name="braceright" unicode="}" horiz-adv-x="739" 
d="M127 1286q-23 0 -40 36t3 50q61 56 143 18t123 -112q2 -6 28 -61t20 -100q-7 -46 -49 -165t-38 -188q23 -96 144 -180q35 -18 130 -50t136 -65q-43 -27 -126 -57t-142 -67q-59 -36 -94 -95q-66 -90 10 -238q51 -135 28 -227q-27 -162 -208 -229q-51 -14 -90 32
q-38 47 4 82q23 27 83 30t78 9q78 37 66 84q-7 92 -54 210t-60 157t5 90t62 86q14 8 43 18t43 21q16 5 115 27t133 67q-20 18 -29 29q-12 4 -96 27t-136 48q-71 34 -123 88q-52 53 -36 179q8 45 40 103t54 96q23 39 31 95t-29 97q-33 55 -172 55z" />
    <glyph glyph-name="asciitilde" unicode="~" horiz-adv-x="1064" 
d="M893 625l6 -31q0 -29 -3 -174t1 -174q-33 -78 18 -164q16 4 27 -12q22 -37 6 -65q-16 -27 -39 -32q-18 -1 -49 9t-45 12t-61 -3t-66 3q-76 14 -96 33q-6 14 9 32t17 25q78 0 92 28q24 47 25 108l-2 110v37q14 20 15 45q-12 36 -8 64q6 34 -2 114t-15 86q-31 14 -95 15
t-87 5q-15 6 -15 20t15 25h24q97 28 103 31h24q16 4 58 31h18q43 25 109 24h12q25 -25 19 -56q-5 -31 -1 -52v-68zM866 1309v-15q0 -6 14 -13t13 -17q0 -52 -5 -64t-48 -49t-75 -27q-47 15 -104 66t-109 51t-83 -45q-3 -5 -9 -26t-24 -29v-13q-27 -31 -26 -45
q10 -123 -13 -202q-4 -15 0 -51t-1 -48t3 -36q9 -24 9 -30t-13 -30q-2 -18 4 -76t-6 -75q0 -19 5 -33t0 -40t-5 -98t-8 -133q10 -18 10 -58t2 -55q4 -30 58 -34q55 -4 55 -45q0 -6 -25 -31q-10 -6 -75 -6q-59 -10 -103 8q-84 -29 -215 -6q-10 0 -26 19t-2 39t24 18
q14 8 46 9t40 2t15 14t18 14q14 86 16 245q2 160 6 200t-4 122q-10 45 -45 45q-8 0 -53 -6t-60 4q-14 11 -26 29q6 6 6 12l-6 6l20 25q15 6 63 19t71 32q57 41 45 152l12 24q0 20 33 119q0 29 50 71t64 56q51 41 95 49q36 13 102 21t94 16q59 8 121 -14l6 -13h19
q4 -2 12 -13t18 -11z" />
    <glyph glyph-name="exclamdown" unicode="&#xa1;" horiz-adv-x="464" 
d="M147 280q0 16 -12 54q0 10 21 57q10 31 43 31l26 -6q37 -61 37 -164q4 -2 1 -20t3 -67q6 -50 19 -243q2 -18 13 -67t11 -78q-8 -12 -8 -31q14 -47 13 -54t-3 -46q-2 -40 -5 -58q-10 -62 -50 -82q-12 2 -47 -2q-75 -9 -92 33l-13 2q-10 16 -15 52t-9 49q11 33 15 89
q3 56 5 74v52q8 31 6 95t9 93q6 39 8 107t4 83t11 23t9 24zM188 631q-54 0 -75 33q-55 117 14 157q6 6 6 19q14 -2 64 1t75 -11q25 -15 33 -50t-6 -78t-47 -65q-10 -6 -64 -6z" />
    <glyph glyph-name="cent" unicode="&#xa2;" horiz-adv-x="788" 
d="M242 526l8 -41q-6 -43 20 -123q0 -4 17 -88q8 -10 17 -32t17 -32q7 -8 23 -28t23 -26v8q-2 51 17 144t22 118l8 156q11 54 12 73q2 19 -4 47q4 29 10 37q6 22 6 47q-10 6 -12 3q-8 -11 -14 -11q-156 -106 -146 -223zM436 856l8 78q0 8 -2 31q-9 106 47 131q70 6 72 -35
q-2 -37 -14 -99t-15 -83l-2 -23q27 0 42 -3t90 -34q74 -47 88 -86q4 -49 -19 -80q-10 -39 -51 -48t-68 26t-41 84q-18 18 -53 39l-61 -582q-12 -45 -17 -68q61 -23 119 7q0 8 19 10q92 53 116 82q2 2 14 1t13 3q6 -49 -6 -90t-47 -47q-23 -49 -74 -54q-39 -29 -73 -44
t-97 -15l-2 -74q-2 -8 10 -20q0 -28 -12 -88q10 -20 -8 -43t-50 -21q-82 12 -26 158q0 2 -2 11t3 25t13 64l-22 2q-10 -3 -22 9t-15 14q-10 -10 -10 -12q-31 25 -62 34q-51 51 -59 70q-74 74 -83 160t-3 123l-2 99q0 51 24 91l2 16q23 51 78 111q18 51 21 53q8 4 48 29
t79 37q-4 2 -5 10q0 8 7 8z" />
    <glyph glyph-name="sterling" unicode="&#xa3;" horiz-adv-x="1507" 
d="M995 -346q49 0 66 16q35 46 43 64t-10 34t-40 26q-48 19 -57 52q-8 57 23 76q63 25 80 21q37 0 69 -33q51 -63 42 -139t-66 -129q-4 -4 -4 -21q-88 -96 -168 -96q-11 0 -39 -14q-25 -4 -117 22q-43 8 -80 49q-4 4 -6 14t-8 15q-6 4 -30 52t-66 91q-12 10 -37 18t-33 11
l-20 -6q-88 23 -146 -19q-23 -16 -45 -65l-10 -4q0 -23 -33 -64q-63 -63 -113 -63q-74 -14 -96 26q-2 8 -12 31t-10 30t2 32q8 21 14 54q5 32 35 42q84 8 113 41q16 24 24 40t18 31q9 17 12 25t12 29t12 40t5 33q12 18 36 72t30 66q20 45 -4 71q-11 7 -31 11t-28 6t-48 -3
t-59 19q-12 23 4 49q29 27 60 15q135 -26 160 -8t37 44q14 26 24 44t18 80t21 89q65 108 85 169t72 167q52 105 74 144q10 10 16 10q14 16 35 49q43 70 90 90q6 4 7 10q2 4 10 6t11 6q3 3 5 8t4 7q57 41 66 53q16 -18 37 -6q66 20 98 21l27 10q2 0 86 14l20 -10q18 0 45 -13
t35 -16q51 -6 79 -42q50 -64 32 -125q-18 -62 -60 -68q-61 -12 -90 26q-27 57 -28 63t2 41q3 34 -15 54q-31 23 -63 13q-31 -10 -69 -29q-38 -20 -50 -25q-14 -18 -62 -68q-117 -122 -135 -192q-10 -37 -41 -105q-31 -69 -37 -89t-75 -158l-2 -23q-6 -16 -38 -64t-38 -79
q-25 -55 -23 -70q8 -37 53 -43q44 0 56 5t44 -4t40 -9q16 -10 20 -20q-2 -9 0 -13t-5 -10t-10 -8t-11 -6t-11 -6l-26 6q-16 0 -86 2t-86 0q-43 -8 -43 -70l-13 -6q-27 -106 -71 -186v-17q-18 -40 0 -74q23 -6 94 -8t115 -33q90 -82 149 -98q27 -16 31 -26q25 -72 106 -72z
" />
    <glyph glyph-name="yen" unicode="&#xa5;" horiz-adv-x="1218" 
d="M481 432q0 20 -10 133q-57 4 -84 -8q-27 0 -39 6q-29 4 -80 -4t-62 -8q-12 0 -32 3t-25 0t-51 -11t-74 4t-36 31q-16 70 24 74t100 0q62 -5 85 -5l227 4q-33 63 -41 88q-18 27 -43 84t-43 82q-6 62 -31 104q-41 71 -69 109q4 2 0 4h-7q-4 2 -6 2q-10 29 -25 38t-29 16
t-33 10q-19 2 -39 5t-25 3q-12 10 -33 37q0 16 15 42q15 27 30 23q143 29 215 0q27 4 81 -2t79 -4q76 16 127 8q37 -16 12 -69q-1 -24 -55 -28q-54 -3 -70 -15q-4 -12 -5 -35t-3 -29q35 -74 53 -92q8 -14 8 -61q61 -109 76 -160q29 -111 86 -88q10 6 19 30q8 24 16 29
q0 14 14 44t13 46q55 72 77 107q0 10 39 68q4 20 9 24q4 14 13 40q23 65 -32 79q-21 6 -74 6q-18 12 -29 34t-11 28q1 6 11 18t11 16q63 14 165 12t163 1q84 16 135 14q20 -2 20 -28t-10 -40q-16 -43 -98 -55q-25 -6 -78 -45q-78 -82 -107 -107q-2 -8 -8 -20t-8 -23
q-2 3 -10 3t-12 4q10 -16 -7 -33q2 4 -2 4t-4 2q-23 -66 -49 -104q-47 -55 -63 -95q-2 -8 2 -26q-4 -6 -21 -30t-22 -48v-21h26q80 -16 291 -2q6 1 14 9t50 6l43 -2q20 10 45 -5t24 -47q0 -80 -151 -43l-27 -6q-44 10 -99 8t-89 0q-12 -12 -33 -12q-18 6 -50 4t-44 -2
l2 -127h20q100 -18 293 2q10 -4 12 2q32 11 77 11t63 4q30 -44 34 -54q-6 -51 -65 -57t-103 14q3 -5 -22 -20q-41 14 -182 14l-29 -10q-45 10 -49 14q-18 -4 -51 -8q-4 -53 -11 -78q10 -23 8 -84t21 -82q0 2 6 -3t15 -7q58 4 88 0t53 8q16 -10 33 -36q6 -2 12 -14t2 -21
q-10 -41 -51 -47q-49 -18 -161 -4t-161 4l-104 10l-96 -19q-58 23 -56 54q-8 45 27 50q34 5 64 2t56 8t27 44q16 59 4 213q-6 0 -51 1t-49 -5q-14 -6 -39 -6q-6 10 -76 1t-73 -9q-39 6 -47 0l-86 -11q-14 0 -48 9q-27 27 -28 34q-23 63 16 72q60 3 117 -3q57 -5 80 -7l39 2
q123 6 239 6z" />
    <glyph glyph-name="section" unicode="&#xa7;" horiz-adv-x="843" 
d="M215 772q-41 0 0 -127q27 -61 82 -127q25 -12 29 -21t13 -21t13 -21q12 -8 34 -28t42 -36q12 -12 35 -38t35 -38q117 -79 143 -114q5 -6 17 -4t16 10q23 53 -12 127v18q-2 8 -8 24t-11 27q-27 45 -82 76l-6 13q-12 0 -18 6q-14 20 -82 77q-3 7 -17 23t-20 29q-2 2 -11 5
t-9 11t-7 14h-12q-23 23 -31 27q-4 4 -6 10t-13 11t-40 33t-47 34h-27zM121 -182q2 10 2 31t14 40t17 25q18 18 29 21t104 4q10 -23 37 -26q28 -3 44 -7t113 12q63 16 64 88q12 49 -43 82q-2 2 -6 12t-7 13q-100 88 -145 120q-29 23 -61 72q-12 0 -19 6q-78 86 -127 178
q-2 3 -14 15t-17 22q-4 23 -13 64q-9 42 -12 64t-1 63t-1 69t-1 42q2 15 9 46q7 32 8 48t20 51q18 35 20 41v30q4 6 24 41q19 35 34 54q43 39 51 51q26 20 70 50t62 42t116 45q51 12 88 -8q30 -8 68 -48t14 -141q-14 -43 -56 -56t-78 11q-63 51 -108 45q-14 -4 -44 -10
t-38 -8q-51 -20 -70 -68q-6 -37 31 -90h12q41 -37 45 -57h13q18 -18 30 -25q10 -14 37 -32t34 -28t30 -26t32 -28q0 -12 7 -19q42 -28 82 -84h12q6 -4 8 -13t4 -11q45 -33 68 -103q33 -70 32 -88l19 -39q0 -18 5 -68t-7 -95l6 -19q-6 -12 -20 -62t-31 -77v-31
q-16 -35 -51 -69q-4 -6 -9 -24t-24 -28v-12q-7 -7 -19 -12q-24 -49 -78 -94q-55 -46 -62 -51t-29 -9t-27 -16q-12 -8 -41 -12t-41 -13q-46 -20 -68 -14t-31 2t-16 0q-76 41 -94 78z" />
    <glyph glyph-name="dieresis" unicode="&#xa8;" horiz-adv-x="686" 
d="M299 1178q0 -59 -27 -84q-12 -10 -64 -10t-83 36q-19 20 -19 58t33 65q6 3 22 23t34 20q59 0 86 -31q18 -18 18 -77zM428 1180q0 106 100 104q57 0 84 -31q11 -12 11 -60t-34 -78t-61 -30q-60 -1 -80 21t-20 74z" />
    <glyph glyph-name="copyright" unicode="&#xa9;" horiz-adv-x="1513" 
d="M561 885q0 6 4 6t6 2q20 47 47 57l7 8q14 10 108 48q0 2 26 1t40 1t49 -12q35 -13 46 -15q12 -2 26 9q14 10 21 14t13 0t7 -9q16 -145 -11 -233q0 -6 -11 -3t-13 9q-14 88 -56 123q-2 2 -4 9t-6 9q-35 45 -88 40t-78 -34q-51 -84 -57 -202l-6 -47l10 -19q-2 -13 8 -33
t10 -24q16 -88 80 -115l4 -10q70 -20 80 -19q41 10 78 62q8 0 14 4q6 16 19 29q10 35 26 23t19 -32q2 -20 -12 -34q-27 -45 -43 -62q-45 -61 -86 -65q-55 -12 -148 -4q-29 4 -88 49q0 8 -6 12q-82 68 -74 147q0 9 -9 21t-9 14q-8 115 20 178v21q8 8 17 31q8 23 20 30v15z
M170 750l-10 -84q2 -37 -4 -88q9 -22 20 -58q10 -36 24 -61t17 -33q35 -55 64 -84q3 -16 27 -43q24 -26 42 -52t29 -36q18 -12 48 -28t53 -37t32 -27q16 -1 46 -15t37 -16t89 -2q27 -12 82 -6q47 -10 84 0q35 0 78 26q18 0 71 39q4 3 41 9t54 20q12 6 26 35t19 35
q10 6 37 16t34 16q12 16 22 44t26 55q14 26 22 63q4 4 13 14t19 22q10 11 11 31q2 20 17 85q16 64 14 80q6 49 -11 84q4 10 2 46q-3 36 -4 38q-35 68 -41 84t-25 35t-26 34q-8 8 -24 37t-31 41q-10 17 -70 47q-16 27 -65 47q-27 27 -66 33q-53 39 -71 41q-16 8 -48 9t-41 3
q-11 2 -37 9t-46 6q-35 6 -76 -15q-63 8 -133 -31q-27 -14 -38 -20t-67 -49q-54 -29 -66 -42t-37 -25t-40 -33q-9 -7 -17 -34t-10 -32q-23 -27 -33 -72q-33 -59 -34 -90q-18 -29 -29 -71zM844 1350l84 -17q8 -4 37 -12t39 -18q31 -2 79 -33q14 -6 36 -26t36 -27q8 -9 34 -21
t42 -27t34 -36q17 -21 34 -48t30 -34q5 -12 17 -38t16 -42q14 -13 18 -40t7 -33t21 -34t26 -50q6 -22 -2 -79l14 -65q-8 -37 -13 -92t-11 -76t-10 -62q-5 -41 -44 -76q-14 -14 -17 -20t-9 -36t-18 -45q-11 -15 -35 -29t-33 -23q-9 -10 -21 -36t-18 -34q-10 -8 -38 -24
t-42 -29q-10 -4 -37 -10t-34 -10t-35 -26t-46 -30q-31 -6 -70 -10q-12 -4 -77 -37l-84 12q-16 1 -44 13t-30 12l-92 -10q-10 4 -39 21q-62 37 -109 53q-16 12 -51 19t-47 13q-27 31 -53 52q-9 12 -21 38t-19 35t-33 29t-32 37q-16 12 -51 63q-12 39 -37 70q-6 49 -18 86
q-8 56 -8 78v46q0 24 -2 38q6 31 2 80q8 32 8 86q6 16 18 42t15 35q45 78 61 110t84 101l26 26q22 22 29 34q14 6 31 33q16 27 25 32q10 5 40 11t42 16q14 4 50 24t105 37q53 10 86 4q16 3 18 5t21 -3l21 -6q78 13 94 13z" />
    <glyph glyph-name="ordfeminine" unicode="&#xaa;" horiz-adv-x="1544" 
d="M893 186q0 -72 6 -84q6 -10 16 -21t15 -20q24 4 48 -9q24 -12 28 -32t-12 -27t-33 -1q-49 4 -175 -2t-174 10q-12 0 -12 18q8 23 21 27q0 18 6 18q55 0 75 31q18 20 10 78t-1 84q6 25 5 72t1 75l6 19q-6 8 -6 27q8 14 3 44t1 46t1 61t-4 71t-36 36q-16 4 -68 6t-71 20v21
q71 37 83 37t37 24t31 43l15 8q18 47 18 101l12 30q0 18 2 33l19 37v18q-12 19 -43 29t-44 22t-29 34t-23 30q-27 20 -76 20t-113 -42q-37 -37 -45 -102q-8 -66 -14 -89q10 -23 2 -75t-2 -76l12 -25q6 -33 -1 -90t-3 -79t-2 -46q-6 -26 -1 -54t5 -116q4 -8 -2 -39
q8 -47 4 -148t8 -149h19q10 -2 75 -33q29 -14 19 -43q-10 -20 -34 -26t-42 8q-28 -2 -104 -1t-128 -9t-77 6q-14 6 -27 31q0 14 9 26t18 10q59 35 82 39q12 195 2 410l8 27q-12 14 -3 50t5 47t-6 35t-14 38q-15 10 -53 15t-54 11q-14 9 -16 25t7 23t65 39t65 69q2 16 -3 58
t3 56q27 53 27 82q24 25 24 33q0 10 14 15t13 22q48 42 88 82q12 0 18 6q9 20 56 37q47 16 60 17t50 20q80 10 158 0q76 -31 100 -48q24 -18 45 -18q12 4 47 30t56 28q20 2 45 8q179 43 346 -12q0 -12 6 -19q12 0 12 -6q12 -67 0 -100l-14 -9q-6 -63 -113 -49q-27 6 -57 51
q-6 6 -19 7l-6 12q-113 76 -190 20q-5 -6 -21 -9q-58 -11 -69 -146q-4 -52 -6 -64q-14 -98 6 -241q2 -23 -6 -92t4 -91q4 -14 1 -39q-3 -26 -1 -40t-3 -100t7 -105q6 -25 6 -97zM1348 850q22 0 22 -21q6 -139 2 -727q0 -14 14 -22t31 -4q45 0 94 -19q-2 -7 5 -31t-5 -26
q-16 -10 -37 -10l-90 10q-57 -10 -215 -10q-29 -4 -37 22t7 47q27 1 45 21t18 43q25 154 8 221q0 18 7 31q8 29 3 95t-4 86q1 21 -4 62q-4 42 -2 58t-9 30t-18 21q-7 8 -34 -4h-37q-14 0 -27 27h-12l12 18q57 27 103 34t139 46q10 2 21 2z" />
    <glyph glyph-name="guillemotleft" unicode="&#xab;" horiz-adv-x="905" 
d="M421 137l-15 -2q-60 64 -70 80q-10 15 -24 29t-28 36q-15 22 -36 37q-22 15 -40 33t-34 36t-24 32t-16 21t-9 21t21 34l83 88q12 14 28 39t37 38q20 13 34 27t24 27q10 12 21 22q8 9 23 29t29 20q13 0 32 -14t-21 -57q-18 -21 -32 -49t-22 -40q-9 -12 -14 -28
q-4 -16 -14 -32t-21 -29q-11 -15 -17 -25t-23 -22q-37 -29 10 -71q10 -9 18 -23t26 -37q18 -22 26 -37t20 -32t35 -67q6 -7 16 -19t15 -23q6 -11 -15 -32q-4 -2 -9 -4t-8 -4t-6 -2zM750 135h-13q-12 13 -22 29q-11 16 -23 28t-22 27t-24 29l-26 26q-14 12 -26 24t-31 27
q-19 14 -36 37t-27 34q-10 10 -18 24t-17 24q-18 12 -19 15q0 12 13 20q12 13 23 27q27 36 52 56q24 21 48 49t50 53q27 24 41 45q15 20 24 29l15 15q5 5 7 8t8 8t11 10q4 5 10 5t24 -14q16 -15 12 -27q-10 -16 -27 -38t-27 -53q-9 -31 -27 -52q-29 -34 -38 -63t-29 -47
q-18 -17 -18 -32q0 -16 6 -24t17 -16q10 -8 17 -22q6 -14 14 -27t16 -29t18 -30t18 -28q7 -14 18 -28q12 -14 20 -28t10 -27q2 -15 9 -31t-3 -24t-28 -9z" />
    <glyph glyph-name="registered" unicode="&#xae;" horiz-adv-x="1513" 
d="M868 918v14q-12 35 -65 53q-63 8 -96 -24q3 -7 -3 -27t3 -29q-16 -47 -11 -119q10 -47 11 -57q6 -37 51 -29q43 14 76 43q69 79 34 175zM705 614q0 -12 -4 -64t4 -76q8 -26 17 -30t23 -7t21 -7q30 -25 12 -34q-29 -15 -65 -15l-62 2q-25 8 -61 -4l-10 6q-8 -4 -76 -4
q-23 6 -23 29q0 4 6 11t13 7q51 0 66 22q16 22 16 44t-4 59t0 45v70q-4 14 -5 49q8 42 7 76q-2 34 0 61v55l4 15q-10 26 -18 32q-7 5 -29 17q-72 0 -84 33q0 24 45 21q44 -3 72 3t157 17q109 0 166 -17q63 -8 80 -51q4 -6 14 -6v-15q18 -33 19 -36l2 -84q0 -58 -35 -89
q-8 -7 -12 -12q-8 0 -15 -4q-8 -10 -30 -16t-25 -17q-22 -22 20 -65q17 -17 20 -27q5 -18 30 -33q4 -4 11 -16t11 -16v-11q10 -23 47 -51q43 -25 58 -34t28 -9q35 -24 19 -49l-43 -12q-35 -2 -107 3t-99 4q-26 -1 -36 16q-10 18 -4 28t18 18t16 20t-20 44q-45 49 -61 86h-8
q-8 20 -54 43q-12 2 -22 -5q-10 -8 -10 -20zM168 586l6 -97q40 -59 54 -81t46 -64q14 -29 58 -65q27 -47 45 -58q10 -10 32 -27t29 -28q16 -4 40 -18t34 -17q53 -33 80 -35q14 -8 46 -12t44 -8h82l76 -4q10 2 41 11t45 11q23 10 69 51q10 3 48 9t57 16q6 6 18 35t20 37
t37 19q27 11 37 23t21 40q9 28 25 58t20 44q6 14 27 41q20 27 26 45q6 59 12 76q-2 14 8 43q9 29 11 39q-8 57 -6 94q-14 33 -19 88q-25 33 -30 78q-55 49 -66 65l-16 29q-14 29 -27 39q-14 23 -65 47q-19 26 -67 54t-66 36t-44 24q-24 16 -40 20q-16 5 -76 -5
q-70 29 -86 27q-41 4 -82 -15q-43 2 -86 -18q-23 -4 -82 -37q-23 -8 -62 -43q-16 -8 -43 -21t-41 -22q-8 -14 -32 -28t-31 -25q-9 -10 -21 -42t-19 -42t-17 -34t-16 -34t-34 -78q0 -3 -6 -33t-8 -49q-14 -51 -10 -81q-8 -51 4 -78zM1438 625v-43q-10 -29 -11 -78
q-6 -16 -12 -47t-14 -43q-3 -14 -21 -38t-22 -38q-10 -12 -18 -40t-11 -34q-12 -14 -42 -30t-36 -19q-8 -12 -19 -41t-18 -39q-63 -35 -74 -43t-40 -15q-37 -9 -65 -30q-29 -21 -48 -24q-23 -15 -57 -21t-60 -18q-27 -12 -39 -17q-71 6 -77 6q-6 -1 -39 11t-46 14t-44 0
t-43 4q-14 2 -42 16l-42 21l-25 10q-25 13 -39 21t-44 14t-34 8q-61 49 -77 55q-4 10 -14 39q-9 29 -17 39q-8 11 -33 27t-31 29q-20 23 -53 71q-12 37 -39 84q-4 41 -22 74v41q0 29 2 43q-4 10 6 78q-8 55 -2 80q4 72 12 84q0 26 22 76q22 49 50 85q14 45 92 131
q45 37 57 56q16 6 34 34q17 28 28 37q1 1 31 5t40 14q27 8 70 45q41 2 92 24q25 -2 82 13q4 0 37 -8t68 -1t47 3q29 0 90 -27q68 -6 86 -10q75 -37 99 -67q25 -30 31 -34t33 -13q56 -20 99 -91q16 -12 34 -43t34 -51t23 -34t14 -46q7 -33 11 -41t19 -32q16 -24 23 -40
q6 -70 10 -82q-4 -20 -8 -69q2 -16 2 -45z" />
    <glyph glyph-name="macron" unicode="&#xaf;" horiz-adv-x="679" 
d="M610 1156q0 -56 -14 -56l-76 10l-98 10h-84l-100 -8l-64 -6l-65 2q-23 0 -23 55t20 56l76 -7l99 -6l174 8h73l68 -2q14 0 14 -56z" />
    <glyph glyph-name="degree" unicode="&#xb0;" horiz-adv-x="538" 
d="M184 1106q0 -43 33 -83t79 -40t80 43t34 85t-37 79q-41 49 -77 49t-74 -45t-38 -88zM485 1100q0 -64 -6 -78q-23 -41 -41 -56q-18 -16 -50 -26t-56 -21q-52 -23 -127 9q-23 9 -55 49q-44 45 -50 58t-1 38t5 45t12 42t20 49q9 27 32 46q22 19 52 29t65 10t93 -24t74 -40
t31 -61q2 -5 2 -69z" />
    <glyph glyph-name="plusminus" unicode="&#xb1;" horiz-adv-x="1462" 
d="M922 876q0 149 -41 220h-13q-9 16 -30 25t-27 14l-18 18q-9 15 -27 28t-23 17q-4 -16 -45 -10t-49 4t-19 -7t-14 -5q-72 6 -139 -64q-58 -68 -71 -129q-4 -18 -7 -26q-14 -102 50 -127q33 0 51 6q37 4 114 -9q41 -14 82 -75q18 -43 -6 -88t-72 -45q-4 2 -24 4t-38 13
t-69 79q-29 12 -38 12q-96 -31 -107 -43q-72 -80 -66 -133q-47 -86 25 -264q23 -47 37 -70q8 -8 26 -30q54 -64 99 -78q10 -2 96 -2l25 12q88 12 127 51q14 14 34 55t35 58h13q16 -61 12 -76q-37 -88 -82 -119q-93 -78 -107 -86t-36 -8t-31 -9q-8 -9 -10 -9
q-178 -12 -267 14q-53 10 -61 57q-31 10 -50 33q-19 22 -39 62t-30 54t-26 79q-12 82 -17 114l12 25v51q0 60 27 94v25q27 31 31 45v18q6 8 25 27t32 45q14 25 27 35q12 0 37 12q8 8 32 21q39 27 39 55q0 10 -5 44t-2 51t0 75t7 78q20 16 21 24v12q6 10 19 26t19 28
q6 14 34 36t36 35q55 18 119 19q18 18 96 18t105 5q28 5 68 -4t55 -9q37 -12 53 -14t44 -20t36 -23q49 -11 65 -29t29 -53q2 -18 -1 -86t3 -86q6 -17 0 -59t-4 -64q4 -44 54 -45q19 0 48 3t45 -2t48 -5q4 2 23 15t34 9q33 -12 37 -50q9 -83 -39 -89q-25 -2 -43 8l-6 13h-27
q-8 -3 -20 -19t-26 -19t-52 2q-37 5 -48 5t-24 -12q-16 -90 -2 -342q0 -92 26 -134t54 -49q27 0 39 -8q42 1 68 17q70 44 89 44t19 -4q23 -34 13 -74t-44 -59q-8 -4 -18 -10t-18 -9t-37 -14q-28 -11 -90 -21q-62 -9 -90 -17t-77 28q-70 35 -88 58q-10 16 -24 96l6 12
q-16 62 -11 78t5 55q-12 35 -1 116q25 181 -27 197q-23 7 -64 5t-58 6q-2 23 14 38t44 30q29 15 39 26q45 45 44 72t-1 75z" />
    <glyph glyph-name="acute" unicode="&#xb4;" horiz-adv-x="716" 
d="M274 1208q0 8 12 23q12 14 14 27q3 13 9 20q16 10 39 47l14 6q2 8 14 24q11 15 15 21l10 6q8 8 18 32q9 24 19 32q28 14 46 7t81 -64q0 -48 -63 -93q-35 -24 -45 -34t-32 -39t-36 -43q-16 -12 -43 -41t-43 -41q0 -12 -6 -19l-12 -4q-10 -23 -37 -35q-43 -25 -64 -6
q-39 31 37 107q6 6 6 16q5 5 13 19q20 32 34 32z" />
    <glyph glyph-name="paragraph" unicode="&#xb6;" horiz-adv-x="1409" 
d="M983 636q0 366 -16 562q-7 54 -103 66t-116 -37q-51 -123 -37 -248q2 -12 17 -87q15 -76 13 -100q-3 -24 9 -103t-2 -91q-2 -4 -12 -31t-9 -33q0 -6 2 -30q12 -12 12 -49l-2 -19q1 -76 7 -104t4 -80t10 -76q12 -23 -12 -90q-12 -49 -10 -163t-19 -161q-6 -35 -52 -43
t-53 29v14q0 18 21 56q29 109 18 200q0 47 12 130q11 83 12 128t-15 132q-6 29 -66 49q-194 39 -257 63t-95 41q-66 41 -123 113q-80 135 -47 305q14 84 58 154t112 102q111 76 180 86q152 14 432 -2t406 -8q49 -1 69 -19t6 -28q-54 -41 -183 -23q-58 8 -91 4
q-23 -9 -23 -51l2 -16q0 -50 8 -226t3 -273q-6 -97 4 -292q10 -198 5 -325t9 -187v-57q10 -10 -3 -44t-15 -40q-14 -20 -45 -18t-31 26q-10 78 1 226t7 212v29q-2 61 -2 427z" />
    <glyph glyph-name="periodcentered" unicode="&#xb7;" horiz-adv-x="423" 
d="M330 573q-16 -41 -51 -67t-78 -21q-43 4 -62 31q-4 12 -14 28t-10 17q-10 59 6 82q0 2 8 13q8 10 13 20q4 10 14 15t22 8t22 7t48 -14h26q70 -60 56 -119z" />
    <glyph glyph-name="cedilla" unicode="&#xb8;" horiz-adv-x="477" 
d="M434 -172q0 -31 -26 -74t-44 -55t-50 -14t-50 -6q-78 -17 -149 27q-15 9 -15 28q0 18 14 34t34 17t52 -25t68 -26q51 0 51 53q0 23 -47 66q-6 5 -28 27t-37 30q-17 8 -17 22t10 28t36 50q27 37 32 64q5 26 31 43q66 45 74 -2q4 -23 -6 -34q-9 -11 -29 -23t-32 -27
q-12 -17 -11 -25q0 -8 29 -33q50 -33 80 -73t30 -72z" />
    <glyph glyph-name="ordmasculine" unicode="&#xba;" horiz-adv-x="1232" 
d="M438 977q0 -12 4 -47t-6 -60q-10 -24 -13 -68t-11 -67q-6 -4 -1 -21q5 -16 2 -28t-2 -42t-1 -46q-12 -29 -13 -33l13 -63q-31 -192 -28 -234t-1 -80t0 -53v-24q5 -12 25 -29q20 -16 62 -20t58 -21q10 -13 8 -33t-22 -24q-127 0 -152 6q-49 4 -88 -4h-106q-12 0 -27 6
l-50 -4q-26 0 -32 30v26q0 24 21 24q113 0 139 57q0 254 29 403q6 29 6 179q-6 25 -49 24q-15 33 -59 26q-17 -3 -38 1q-20 10 -15 23t23 21t61 26q42 19 67 30q26 45 36 123q9 78 15 104q47 125 178 207h27q31 10 43 19q14 2 57 0t57 6q47 2 71 0t112 -27q66 -18 75 -90
q6 -33 2 -92t3 -90q-25 -59 -25 -146q0 -16 31 -32q18 -16 90 -7t84 7t22 5t13 7q49 -4 69 -45q6 -12 4 -42t0 -40l-24 -12q-36 -23 -87 -21t-59 2q-53 18 -63 25q-19 4 -39 -3t-25 -22q-18 -84 -19 -231t-9 -211l6 -70q0 -10 14 -22q13 -12 23 -24t34 -12q24 1 37 19h13
q41 51 133 0h37q20 -12 6 -57q-29 -57 -121 -106q-45 -25 -152 -25q-45 14 -57 20h-25q-45 14 -57 37h-18l-18 18q-32 32 -34 60q-18 78 3 170q0 20 12 70q4 42 5 114t3 107v31q8 14 3 48t0 47t5 44q-12 39 -45 39q-84 -12 -119 33q10 13 30 22q21 10 27 15q6 4 19 4
q11 0 19 4t27 13t30 15q43 39 20 109q-4 6 1 22t2 65q-3 48 -7 60t-8 29t-11 23t-10 15q-2 9 -8 12t-25 17q-58 41 -83 23h-12q-20 -4 -42 -28t-42 -35v-13q-24 -27 -38 -71q-15 -44 -20 -56v-61z" />
    <glyph glyph-name="guillemotright" unicode="&#xbb;" horiz-adv-x="905" 
d="M471 463q0 -16 -8 -19q-55 -55 -76 -86t-70 -77q-10 -13 -19 -27q-8 -14 -20 -26t-25 -22t-25 -24t-21 -24l-21 -21q-2 -2 -10 -2t-24 12q-12 13 -4 27t20 43q13 29 25 45t20 30t26 41q18 28 24 46q10 28 27 44q17 17 16 37t-22 39q-21 18 -31 43t-36 67q-25 43 -33 59
t-16 28t-14 24t-13 23q-6 20 9 33q20 10 30 10t31 -33q22 -33 67 -77q46 -44 58 -58q12 -12 20 -26t20 -26t25 -24q11 -10 23 -22t23 -20t17 -14t7 -23zM801 460q0 -17 -2 -20l-99 -106q-12 -12 -23 -26t-24 -29l-45 -50q-10 -10 -23 -21q-13 -10 -25 -24t-23 -24
q-12 -10 -23 -21h-2l-6 2q-23 0 -27 2q-16 16 -10 31q37 68 59 95q21 27 34 53q13 27 28 51q16 23 21 33t21 24q15 14 13 33t-18 34q-15 15 -23 28t-18 27q-21 28 -44 75q-24 47 -44 74q-21 28 -29 40q-4 12 14 27q21 12 23 12t6 -4l49 -53q67 -53 101 -96t46 -57t27 -23
t25 -21t19 -23t15 -19t7 -24z" />
    <glyph glyph-name="questiondown" unicode="&#xbf;" horiz-adv-x="555" 
d="M360 -246q12 6 37 6t52 -18q53 -31 63 -75t-14 -79q-47 -68 -121 -49q-33 8 -70 27h-18q-41 20 -55 36t-27 15q0 12 -6 18q-41 31 -58 64q-12 0 -12 6q-3 10 -17 38t-14 52q-19 29 -24 43q-6 14 -6 45q-16 113 26 264q39 92 90 109q6 4 47 1t48 -3q57 14 63 51
q2 25 -4 108t6 107q2 6 37 6t45 -32q4 -27 -2 -158v-176q0 -25 -27 -51q-39 -21 -111 -17t-116 -2q-4 -8 -18 -29t-15 -38q-29 -104 37 -191q12 0 21 -6q70 -74 137 -66zM379 848q53 0 94 -82q10 -33 0 -64q-18 -18 -18 -32l-39 -31h-49q-35 -8 -70 27q-2 8 -11 24t-14 27
q-8 45 13 88q14 43 94 43z" />
    <glyph glyph-name="Agrave" unicode="&#xc0;" horiz-adv-x="1210" 
d="M653 1493q0 -12 6 -18q23 -9 35 -47t15 -42q10 -33 -19 -51q-25 -12 -39 2t-42 37q-27 22 -33 30t-14 10q-7 1 -42 38t-63 49q-15 35 -71 71t-66 48t-14 24q-3 12 -5 18q-2 7 6 22t6 26q12 0 19 6q57 57 96 45q29 -16 49 -57q12 -14 49 -46t52 -56q25 -49 63 -109h12z
M455 588q0 -45 6 -50t24 0t39 2q20 -3 86 -2t97 -10q38 0 38 62l-12 28t-22 78t-39 90q0 20 -12 58t-13 57q-14 29 -24 39q-31 20 -43 0q-35 -76 -39 -94q0 -27 -27 -94v-21q-31 -53 -39 -119q-20 -14 -20 -24zM324 139q0 -23 16 -41t34 -21t52 -2q60 2 66 -46
q2 -25 -25 -35q-29 -16 -126 -6t-115 8t-36 -7q-20 -5 -25 -5h-26q-27 6 -86 5t-86 9q-23 16 -18 50q4 34 26 38q19 6 57 9q107 8 122 67q10 20 84 194q0 12 12 37q23 16 40 91q17 74 38 107q20 33 20 66q77 154 90 215q0 4 10 15q10 13 15 27q6 14 32 58t35 64q4 22 19 68
q0 31 -25 84v24q80 9 125 29q45 21 53 23t25 -2q2 -2 9 -12t12 -15q18 -45 42 -133t41 -133v-31q25 -66 25 -96q4 -10 7 -32t5 -32q23 -57 60 -172t57 -170v-30q49 -127 59 -197q6 -14 19 -39v-25q11 -35 31 -46t64 -25t56 -22q12 -9 22 -28q11 -20 -2 -29t-28 -9
q-92 -12 -157 14q-43 -12 -135 -11t-138 -12q-25 -12 -43 -12q-29 5 -48 21t-2 38t75 42t78 36q23 23 19 64q-5 41 -7 56t-23 59q-2 14 -13 47t-11 53q-12 53 -51 45q-10 -2 -30 2t-40 2q-21 -2 -109 -6t-139 -13t-61 -57v-45q-47 -86 -47 -170z" />
    <glyph glyph-name="Aacute" unicode="&#xc1;" horiz-adv-x="1210" 
d="M612 1495q0 8 11 22t15 27q3 14 9 21q16 10 39 47l14 6q2 8 13 22t16 23l10 6q8 8 18 32q9 24 19 32q28 15 46 7t81 -65q0 -27 -14 -47t-49 -45t-45 -35t-32 -39t-36 -43q-16 -12 -43 -41t-43 -41q0 -12 -6 -18l-12 -4q-10 -23 -37 -35q-43 -25 -64 -6q-39 31 37 106
q6 6 6 17q34 51 47 51zM455 588q0 -45 6 -50t24 0t39 2q20 -3 86 -2t97 -10q38 0 38 62l-12 28t-22 78t-39 90q0 20 -12 58t-13 57q-14 29 -24 39q-31 20 -43 0q-35 -76 -39 -94q0 -27 -27 -94v-21q-31 -53 -39 -119q-20 -14 -20 -24zM324 139q0 -23 16 -41t34 -21t52 -2
q60 2 66 -46q2 -25 -25 -35q-29 -16 -126 -6t-115 8t-36 -7q-20 -5 -25 -5h-26q-27 6 -86 5t-86 9q-23 16 -18 50q4 34 26 38q19 6 57 9q107 8 122 67q10 20 84 194q0 12 12 37q23 16 40 91q17 74 38 107q20 33 20 66q77 154 90 215q0 4 10 15q10 13 15 27q6 14 32 58t35 64
q4 22 19 68q0 31 -25 84v24q80 9 125 29q45 21 53 23t25 -2q2 -2 9 -12t12 -15q18 -45 42 -133t41 -133v-31q25 -66 25 -96q4 -10 7 -32t5 -32q23 -57 60 -172t57 -170v-30q49 -127 59 -197q6 -14 19 -39v-25q11 -35 31 -46t64 -25t56 -22q12 -9 22 -28q11 -20 -2 -29
t-28 -9q-92 -12 -157 14q-43 -12 -135 -11t-138 -12q-25 -12 -43 -12q-29 5 -48 21t-2 38t75 42t78 36q23 23 19 64q-5 41 -7 56t-23 59q-2 14 -13 47t-11 53q-12 53 -51 45q-10 -2 -30 2t-40 2q-21 -2 -109 -6t-139 -13t-61 -57v-45q-47 -86 -47 -170z" />
    <glyph glyph-name="Acircumflex" unicode="&#xc2;" horiz-adv-x="1210" 
d="M658 1657q10 1 22 -17t31 -43t47 -66q27 -42 46 -60q18 -17 34 -41t32 -44q16 -22 15 -27q0 -5 -2 -7t-7 -5q-7 -4 -15 -14t-11 -10q-4 0 -16 14q-12 15 -20 21t-12 10q-5 4 -8 7q-33 33 -58 44q-26 12 -66 65q-6 7 -17 6t-118 -101l-54 -46q-4 -2 -7 -5t-5 -3
q-17 13 -24 16t-7 7t-6 15t19 34q24 21 36 39q11 18 27 36t30 36t25 32t23 28t23 32t21 32t22 15zM455 588q0 -45 6 -50t24 0t39 2q20 -3 86 -2t97 -10q38 0 38 62l-12 28t-22 78t-39 90q0 20 -12 58t-13 57q-14 29 -24 39q-31 20 -43 0q-35 -76 -39 -94q0 -27 -27 -94v-21
q-31 -53 -39 -119q-20 -14 -20 -24zM324 139q0 -23 16 -41t34 -21t52 -2q60 2 66 -46q2 -25 -25 -35q-29 -16 -126 -6t-115 8t-36 -7q-20 -5 -25 -5h-26q-27 6 -86 5t-86 9q-23 16 -18 50q4 34 26 38q19 6 57 9q107 8 122 67q10 20 84 194q0 12 12 37q23 16 40 91
q17 74 38 107q20 33 20 66q77 154 90 215q0 4 10 15q10 13 15 27q6 14 32 58t35 64q4 22 19 68q0 31 -25 84v24q80 9 125 29q45 21 53 23t25 -2q2 -2 9 -12t12 -15q18 -45 42 -133t41 -133v-31q25 -66 25 -96q4 -10 7 -32t5 -32q23 -57 60 -172t57 -170v-30q49 -127 59 -197
q6 -14 19 -39v-25q11 -35 31 -46t64 -25t56 -22q12 -9 22 -28q11 -20 -2 -29t-28 -9q-92 -12 -157 14q-43 -12 -135 -11t-138 -12q-25 -12 -43 -12q-29 5 -48 21t-2 38t75 42t78 36q23 23 19 64q-5 41 -7 56t-23 59q-2 14 -13 47t-11 53q-12 53 -51 45q-10 -2 -30 2t-40 2
q-21 -2 -109 -6t-139 -13t-61 -57v-45q-47 -86 -47 -170z" />
    <glyph glyph-name="Atilde" unicode="&#xc3;" horiz-adv-x="1210" 
d="M932 1632q14 0 30 -14q15 -15 11 -25q-4 -9 -5 -31q0 -22 -16 -58t-18 -40q-47 -66 -93 -62q-47 5 -57 5h-79l-80 2l-68 2q-37 0 -65 -11q-28 -12 -39 -24q-10 -12 -37 -73q-2 -5 -16 -5t-17 5q0 4 -2 6q-29 47 -11 93t38 69q19 23 48 32q30 11 42 17t53 6l55 -6l62 -9
l92 -4q49 0 98 31q30 14 50 54t24 40zM455 588q0 -45 6 -50t24 0t39 2q20 -3 86 -2t97 -10q38 0 38 62l-12 28t-22 78t-39 90q0 20 -12 58t-13 57q-14 29 -24 39q-31 20 -43 0q-35 -76 -39 -94q0 -27 -27 -94v-21q-31 -53 -39 -119q-20 -14 -20 -24zM324 139q0 -23 16 -41
t34 -21t52 -2q60 2 66 -46q2 -25 -25 -35q-29 -16 -126 -6t-115 8t-36 -7q-20 -5 -25 -5h-26q-27 6 -86 5t-86 9q-23 16 -18 50q4 34 26 38q19 6 57 9q107 8 122 67q10 20 84 194q0 12 12 37q23 16 40 91q17 74 38 107q20 33 20 66q77 154 90 215q0 4 10 15q10 13 15 27
q6 14 32 58t35 64q4 22 19 68q0 31 -25 84v24q80 9 125 29q45 21 53 23t25 -2q2 -2 9 -12t12 -15q18 -45 42 -133t41 -133v-31q25 -66 25 -96q4 -10 7 -32t5 -32q23 -57 60 -172t57 -170v-30q49 -127 59 -197q6 -14 19 -39v-25q11 -35 31 -46t64 -25t56 -22q12 -9 22 -28
q11 -20 -2 -29t-28 -9q-92 -12 -157 14q-43 -12 -135 -11t-138 -12q-25 -12 -43 -12q-29 5 -48 21t-2 38t75 42t78 36q23 23 19 64q-5 41 -7 56t-23 59q-2 14 -13 47t-11 53q-12 53 -51 45q-10 -2 -30 2t-40 2q-21 -2 -109 -6t-139 -13t-61 -57v-45q-47 -86 -47 -170z" />
    <glyph glyph-name="Adieresis" unicode="&#xc4;" horiz-adv-x="1210" 
d="M637 1464q0 -59 -27 -84q-12 -10 -64 -10t-83 37q-19 20 -19 57t33 66q6 4 23 24t32 19q57 0 81 -25t24 -84zM766 1466q0 105 100 105q55 0 84 -31q11 -13 11 -61q0 -47 -34 -77t-61 -30q-60 0 -80 22t-20 72zM455 588q0 -45 6 -50t24 0t39 2q20 -3 86 -2t97 -10
q38 0 38 62l-12 28t-22 78t-39 90q0 20 -12 58t-13 57q-14 29 -24 39q-31 20 -43 0q-35 -76 -39 -94q0 -27 -27 -94v-21q-31 -53 -39 -119q-20 -14 -20 -24zM324 139q0 -23 16 -41t34 -21t52 -2q60 2 66 -46q2 -25 -25 -35q-29 -16 -126 -6t-115 8t-36 -7q-20 -5 -25 -5h-26
q-27 6 -86 5t-86 9q-23 16 -18 50q4 34 26 38q19 6 57 9q107 8 122 67q10 20 84 194q0 12 12 37q23 16 40 91q17 74 38 107q20 33 20 66q77 154 90 215q0 4 10 15q10 13 15 27q6 14 32 58t35 64q4 22 19 68q0 31 -25 84v24q80 9 125 29q45 21 53 23t25 -2q2 -2 9 -12t12 -15
q18 -45 42 -133t41 -133v-31q25 -66 25 -96q4 -10 7 -32t5 -32q23 -57 60 -172t57 -170v-30q49 -127 59 -197q6 -14 19 -39v-25q11 -35 31 -46t64 -25t56 -22q12 -9 22 -28q11 -20 -2 -29t-28 -9q-92 -12 -157 14q-43 -12 -135 -11t-138 -12q-25 -12 -43 -12q-29 5 -48 21
t-2 38t75 42t78 36q23 23 19 64q-5 41 -7 56t-23 59q-2 14 -13 47t-11 53q-12 53 -51 45q-10 -2 -30 2t-40 2q-21 -2 -109 -6t-139 -13t-61 -57v-45q-47 -86 -47 -170z" />
    <glyph glyph-name="Aring" unicode="&#xc5;" horiz-adv-x="1210" 
d="M455 588q0 -45 6 -50t24 0t39 2q20 -3 86 -2t97 -10q38 0 38 62l-12 28t-22 78t-39 90q0 20 -12 58t-13 57q-14 29 -24 39q-31 20 -43 0q-35 -76 -39 -94q0 -27 -27 -94v-21q-31 -53 -39 -119q-20 -14 -20 -24zM614 1503q-37 0 -80 -52q-42 -52 -42 -81t39 -76t85 -47
t79 44q34 44 34 85t-37 78q-41 49 -78 49zM424 1382q0 20 11 42t18 40q21 64 92 84q4 6 33 1t61 -5t74 -18t58 -32q16 -16 32 -60q2 -4 2 -69t-6 -79t-30 -30q-25 -15 -28 -17q2 0 7 -4q18 -45 42 -133t41 -133v-31q25 -66 25 -96q4 -10 7 -32t5 -32q23 -57 60 -172t57 -170
v-30q49 -127 59 -197q6 -14 19 -39v-25q11 -35 31 -46t64 -25t56 -22q12 -9 22 -28q11 -20 -2 -29t-28 -9q-92 -12 -157 14q-43 -12 -135 -11t-138 -12q-25 -12 -43 -12q-29 5 -48 21t-2 38t75 42t78 36q23 23 19 64q-5 41 -7 56t-23 59q-2 14 -13 47t-11 53q-12 53 -51 45
q-10 -2 -30 2t-40 2q-21 -2 -109 -6t-139 -13t-61 -57v-45q-47 -86 -47 -170q0 -23 16 -41t34 -21t52 -2q60 2 66 -46q2 -25 -25 -35q-29 -16 -126 -6t-115 8t-36 -7q-20 -5 -25 -5h-26q-27 6 -86 5t-86 9q-23 16 -18 50q4 34 26 38q19 6 57 9q107 8 122 67q10 20 84 194
q0 12 12 37q23 16 40 91q17 74 38 107q20 33 20 66q77 154 90 215q0 4 10 15q10 13 15 27q6 14 32 58t35 64q4 22 19 68q0 31 -25 84v18q-36 14 -68 47t-37 46t0 38t5 45z" />
    <glyph glyph-name="AE" unicode="&#xc6;" horiz-adv-x="2146" 
d="M1116 1145q0 27 -26 26q-4 0 -18 -2l-21 -3q-37 -5 -43 -33q-7 -70 -35 -115q-29 -44 -41 -61t-39 -50t-35 -45t-29 -33q-49 -88 -53 -94q0 -31 4 -33q10 -14 90 -12t98 -3t29 -4t47 5t48 22t6 66q-6 50 -2 62t10 59q-8 59 -7 86t8 81t9 81zM919 4q-28 0 -38 2
q-23 12 -21 33q0 40 95 37q58 -2 82 3t34 21q25 41 19 64t1 88t5 100t-2 78v66l6 10q2 37 -26 57t-68 33q-33 6 -104 2t-103 6q-8 -2 -30 -5t-44 -9t-41 -29q-49 -74 -111 -182q-4 -6 -12 -10t-10 -11q-10 -10 -41 -90q0 -6 -12 -45t-6 -63q9 -39 70 -68q14 -6 60 -16
t52 -13q33 -14 24 -45q-16 -34 -55 -34t-76 16t-106 -8q-80 12 -268 0q-104 -4 -160 22q-6 0 -21 39q4 25 23 37q25 12 67 22t64 21l22 -2q102 59 144 107q20 29 123 135q53 131 202 334q10 23 29 36q47 86 83 132t45 64t15 24l17 16q4 4 41 62t71 73q49 18 52 45
q4 13 -8 29t-24 18q-13 2 -39 -1t-36 1q-51 25 -50 61t30 54t57 8q109 -27 258 -22q102 -4 163 4t165 4q10 -6 30 -6q25 6 43 2q25 2 73 -5q48 -8 91 -6t105 0q33 -10 57 -24q9 -6 19 -24t18 -25q0 -27 7 -88q14 -126 -19 -191q-6 -10 -20 -6t-27 19q-83 123 -89 129t-24 43
q-14 20 -72 55q-10 0 -26 6t-91 12q-76 6 -85 6l-156 -4q-2 -2 -13 -2t-20 -16t-15 -61q-7 -46 -12 -62q-4 -41 2 -73t-4 -104t-3 -90t2 -26t-3 -15t4 -37t19 -38q27 -18 115 -9t114 5q29 0 51 19t32 65q11 46 11 84q12 29 17 37v16q8 23 33 27t39 -8q31 -10 15 -94
t-42 -388q0 -10 5 -35t2 -43t-22 -28t-42 2q-17 45 -20 109q-3 63 -8 97t-32 38q-43 0 -126 6t-126 4q-39 -8 -49 -41q-16 -125 -4 -189q0 -27 -6 -36q-12 -109 6 -220q6 -18 33 -28q14 -2 50 -3t56 -8q59 -1 65 3t25 -2q18 -6 27 -5l23 11q10 2 53 -15q20 0 85 7t107 -15
q68 -29 115 33q15 22 29 64t28 63q10 10 19 23q8 12 18 28t17 27q31 39 65 28q12 -4 8 -26q14 -100 4 -172q-6 -10 -6 -31q10 -53 8 -59q-10 -47 -55 -48q-28 2 -152 -6t-149 9q-84 16 -96 14l-23 -8q-74 -8 -112 -13q-46 4 -58 4h-39q-13 9 -26 13h-17q-22 -10 -32 -8
t-54 3t-82 10q-36 9 -71 -5q-13 -2 -33 4t-33 4q-63 -18 -97 -6t-61 12z" />
    <glyph glyph-name="Ccedilla" unicode="&#xc7;" horiz-adv-x="1253" 
d="M1100 31q0 -19 -16 -19q-28 0 -47 47q-18 47 -31 50q-123 -77 -200 -98t-97 -21q-62 -45 -62 -66q0 -8 29 -33q49 -33 72 -61q38 -53 38 -84t-26 -74t-43 -55q-18 -12 -50 -14q-33 -2 -51 -6q-79 -17 -149 27q-14 9 -14 27q0 19 13 35q14 16 34 17t52 -25t69 -26
q51 0 51 53q0 23 -47 66q-48 48 -65 57q-17 8 -17 26q1 18 25 49q45 57 53 83q-29 2 -91 6q-26 8 -64 18t-78 36t-60 32q-4 4 -6 10t-7 8q-168 102 -198 318v32q-5 18 -11 58t-19 84q-13 45 -1 140t24 129q11 34 13 44l12 6q45 160 148 246v12q21 0 26 17q2 6 9 10t35 24
t43 24q15 3 71 30h20q86 39 285 35q18 0 64 -22t143 -56q33 -10 57 12q37 49 70 43q24 -8 24 -45q4 -29 -3 -86t-5 -84v-82l-6 -18q27 -57 -2 -121h-31l-20 20q-13 14 -21 52t-18 52q-10 13 -32 37t-27 37l-13 7q0 25 -30 45q-137 98 -279 90q-63 -4 -88 -25h-18
q-18 -6 -40 -31t-32 -30l-37 -19q-6 -6 -13 -23t-14 -28l-12 -6v-18q-6 -6 -18 -28t-27 -28q-10 -91 -31 -159q-21 -69 -16 -80q0 -11 -3 -67t3 -78t15 -88q9 -65 20 -97q14 -29 24 -39q0 -18 10 -30q85 -97 146 -148q20 -14 66 -18t64 -14q18 -11 38 -12t51 1t53 5t82 40
q88 66 162 246q25 47 70 30q26 -12 24 -34t-14 -74q-12 -51 -12 -82q8 -138 6 -170t-2 -51z" />
    <glyph glyph-name="Egrave" unicode="&#xc8;" horiz-adv-x="1331" 
d="M735 1559q0 -12 6 -19q23 -10 35 -47t15 -41q10 -33 -19 -51q-25 -12 -35 -2t-40 35t-38 35t-15 11t-12 6l-21 21q-42 45 -72 60q-15 35 -71 71t-66 48t-16 31q-5 19 3 33q8 15 6 26q12 0 19 6q57 57 96 45q29 -16 49 -58q12 -14 49 -46q36 -33 56 -69t59 -95h12zM922 -8
q-80 0 -121 -29q-14 -8 -43 6q-43 34 -113 26q-27 -3 -57 1q-38 0 -182 1t-242 -9q-8 -6 -26 -4q-32 4 -34 29l9 40q0 8 14 8q14 1 22 9q9 8 45 7t45 6t9 12t10 13t13 16q3 9 4 21t4 19q0 27 -7 39q-4 43 6 139q9 96 -2 139q0 18 7 31q0 18 -7 31q-10 100 15 184q4 6 -4 19
t-9 27q-1 15 2 93q2 78 -4 98t0 51q30 152 -36 187q-39 -10 -90 -9t-80 30q-4 6 -11 15q-6 9 -8 15q-14 61 19 70q18 12 80 4t97 -5t57 0t63 -11t63 -11q34 18 152 22t196 -7h39q18 -4 53 -1t54 1q74 -19 102 -15t52 -6t28 -32q33 -115 29 -261q8 -17 -3 -41
q-12 -24 -24 -16t-25 21q-2 8 -8 23t-12 31t-23 34q-6 12 -28 29q-23 17 -27 22q-31 51 -133 104q-186 0 -328 9q-12 0 -24 -13q-8 -16 -12 -45t-8 -40q-5 -11 -4 -41t1 -38q-14 -111 6 -151q-20 -45 -2 -94v-70q12 -39 37 -39q16 0 90 -4t137 14q27 12 27 19q14 37 30 103
t22 84q8 20 24 32t36 7t30 -28t6 -49q-20 -53 -21 -125q-10 -86 -10 -354q1 -23 -15 -38t-30 -15q-50 0 -41 101q2 24 -2 48l-13 25q0 70 -30 84q-23 8 -73 6t-73 6q-10 -12 -51 -4t-52 7t-30 -19q-35 -137 -16 -322q4 -27 0 -78t-2 -73q20 -50 113 -43q54 4 83 -4
q20 8 88 4l25 -13q78 25 178 11h88q43 8 82 36q18 23 33 95l27 39l6 30q35 53 76 37q20 -21 19 -39t3 -88q4 -71 -6 -139q-8 -27 -43 -35t-106 -2t-99 -2q-26 -8 -106 -8z" />
    <glyph glyph-name="Eacute" unicode="&#xc9;" horiz-adv-x="1331" 
d="M637 1518q34 51 47 51q0 8 11 22q11 13 15 27t9 20q16 10 39 48l14 6q3 12 14 25t15 20l10 6q8 8 17 32t20 31q28 14 46 7t81 -64q0 -27 -14 -47q-13 -20 -49 -45t-46 -35t-32 -39t-35 -43q-16 -12 -43 -41t-43 -41q0 -12 -6 -18l-13 -4q-10 -23 -37 -35q-43 -25 -63 -6
q-39 31 37 106q6 6 6 17zM922 -8q-80 0 -121 -29q-14 -8 -43 6q-43 34 -113 26q-27 -3 -57 1q-38 0 -182 1t-242 -9q-8 -6 -26 -4q-32 4 -34 29l9 40q0 8 14 8q14 1 22 9q9 8 45 7t45 6t9 12t10 13t13 16q3 9 4 21t4 19q0 27 -7 39q-4 43 6 139q9 96 -2 139q0 18 7 31
q0 18 -7 31q-10 100 15 184q4 6 -4 19t-9 27q-1 15 2 93q2 78 -4 98t0 51q30 152 -36 187q-39 -10 -90 -9t-80 30q-4 6 -11 15q-6 9 -8 15q-14 61 19 70q18 12 80 4t97 -5t57 0t63 -11t63 -11q34 18 152 22t196 -7h39q18 -4 53 -1t54 1q74 -19 102 -15t52 -6t28 -32
q33 -115 29 -261q8 -17 -3 -41q-12 -24 -24 -16t-25 21q-2 8 -8 23t-12 31t-23 34q-6 12 -28 29q-23 17 -27 22q-31 51 -133 104q-186 0 -328 9q-12 0 -24 -13q-8 -16 -12 -45t-8 -40q-5 -11 -4 -41t1 -38q-14 -111 6 -151q-20 -45 -2 -94v-70q12 -39 37 -39q16 0 90 -4
t137 14q27 12 27 19q14 37 30 103t22 84q8 20 24 32t36 7t30 -28t6 -49q-20 -53 -21 -125q-10 -86 -10 -354q1 -23 -15 -38t-30 -15q-50 0 -41 101q2 24 -2 48l-13 25q0 70 -30 84q-23 8 -73 6t-73 6q-10 -12 -51 -4t-52 7t-30 -19q-35 -137 -16 -322q4 -27 0 -78t-2 -73
q20 -50 113 -43q54 4 83 -4q20 8 88 4l25 -13q78 25 178 11h88q43 8 82 36q18 23 33 95l27 39l6 30q35 53 76 37q20 -21 19 -39t3 -88q4 -71 -6 -139q-8 -27 -43 -35t-106 -2t-99 -2q-26 -8 -106 -8z" />
    <glyph glyph-name="Ecircumflex" unicode="&#xca;" horiz-adv-x="1331" 
d="M901 1424q0 -5 -2 -7t-7 -5q-7 -4 -14 -13q-8 -10 -12 -10t-16 15q-13 15 -25 24q-12 10 -19 17q-21 21 -50 37t-52 45t-34 28t-119 -101l-53 -45q-4 -2 -8 -5t-5 -3q-18 13 -24 15q-6 3 -6 7t-5 14t18 35t36 41q12 15 27 33t29 36t24 32q12 14 24 30t25 33q12 17 21 31
q8 14 20 14t23 -18t25 -34t24 -32q12 -16 25 -36t27 -38t27 -30q13 -14 29 -38t32 -46t15 -26zM922 -8q-80 0 -121 -29q-14 -8 -43 6q-43 34 -113 26q-27 -3 -57 1q-38 0 -182 1t-242 -9q-8 -6 -26 -4q-32 4 -34 29l9 40q0 8 14 8q14 1 22 9q9 8 45 7t45 6t9 12t10 13t13 16
q3 9 4 21t4 19q0 27 -7 39q-4 43 6 139q9 96 -2 139q0 18 7 31q0 18 -7 31q-10 100 15 184q4 6 -4 19t-9 27q-1 15 2 93q2 78 -4 98t0 51q30 152 -36 187q-39 -10 -90 -9t-80 30q-4 6 -11 15q-6 9 -8 15q-14 61 19 70q18 12 80 4t97 -5t57 0t63 -11t63 -11q34 18 152 22
t196 -7h39q18 -4 53 -1t54 1q74 -19 102 -15t52 -6t28 -32q33 -115 29 -261q8 -17 -3 -41q-12 -24 -24 -16t-25 21q-2 8 -8 23t-12 31t-23 34q-6 12 -28 29q-23 17 -27 22q-31 51 -133 104q-186 0 -328 9q-12 0 -24 -13q-8 -16 -12 -45t-8 -40q-5 -11 -4 -41t1 -38
q-14 -111 6 -151q-20 -45 -2 -94v-70q12 -39 37 -39q16 0 90 -4t137 14q27 12 27 19q14 37 30 103t22 84q8 20 24 32t36 7t30 -28t6 -49q-20 -53 -21 -125q-10 -86 -10 -354q1 -23 -15 -38t-30 -15q-50 0 -41 101q2 24 -2 48l-13 25q0 70 -30 84q-23 8 -73 6t-73 6
q-10 -12 -51 -4t-52 7t-30 -19q-35 -137 -16 -322q4 -27 0 -78t-2 -73q20 -50 113 -43q54 4 83 -4q20 8 88 4l25 -13q78 25 178 11h88q43 8 82 36q18 23 33 95l27 39l6 30q35 53 76 37q20 -21 19 -39t3 -88q4 -71 -6 -139q-8 -27 -43 -35t-106 -2t-99 -2q-26 -8 -106 -8z
" />
    <glyph glyph-name="Edieresis" unicode="&#xcb;" horiz-adv-x="1331" 
d="M555 1538q0 -59 -27 -84q-12 -10 -64 -10t-83 37q-19 20 -19 57t33 66q6 4 22 23t34 20q59 0 81 -25t23 -84zM684 1540q0 105 100 105q55 0 84 -31q11 -13 11 -61q0 -47 -34 -77t-61 -30q-60 0 -80 21t-20 73zM922 -8q-80 0 -121 -29q-14 -8 -43 6q-43 34 -113 26
q-27 -3 -57 1q-38 0 -182 1t-242 -9q-8 -6 -26 -4q-32 4 -34 29l9 40q0 8 14 8q14 1 22 9q9 8 45 7t45 6t9 12t10 13t13 16q3 9 4 21t4 19q0 27 -7 39q-4 43 6 139q9 96 -2 139q0 18 7 31q0 18 -7 31q-10 100 15 184q4 6 -4 19t-9 27q-1 15 2 93q2 78 -4 98t0 51
q30 152 -36 187q-39 -10 -90 -9t-80 30q-4 6 -11 15q-6 9 -8 15q-14 61 19 70q18 12 80 4t97 -5t57 0t63 -11t63 -11q34 18 152 22t196 -7h39q18 -4 53 -1t54 1q74 -19 102 -15t52 -6t28 -32q33 -115 29 -261q8 -17 -3 -41q-12 -24 -24 -16t-25 21q-2 8 -8 23t-12 31t-23 34
q-6 12 -28 29q-23 17 -27 22q-31 51 -133 104q-186 0 -328 9q-12 0 -24 -13q-8 -16 -12 -45t-8 -40q-5 -11 -4 -41t1 -38q-14 -111 6 -151q-20 -45 -2 -94v-70q12 -39 37 -39q16 0 90 -4t137 14q27 12 27 19q14 37 30 103t22 84q8 20 24 32t36 7t30 -28t6 -49
q-20 -53 -21 -125q-10 -86 -10 -354q1 -23 -15 -38t-30 -15q-50 0 -41 101q2 24 -2 48l-13 25q0 70 -30 84q-23 8 -73 6t-73 6q-10 -12 -51 -4t-52 7t-30 -19q-35 -137 -16 -322q4 -27 0 -78t-2 -73q20 -50 113 -43q54 4 83 -4q20 8 88 4l25 -13q78 25 178 11h88q43 8 82 36
q18 23 33 95l27 39l6 30q35 53 76 37q20 -21 19 -39t3 -88q4 -71 -6 -139q-8 -27 -43 -35t-106 -2t-99 -2q-26 -8 -106 -8z" />
    <glyph glyph-name="Igrave" unicode="&#xcc;" horiz-adv-x="833" 
d="M489 1518q0 -12 7 -19q23 -10 35 -47t14 -41q10 -33 -19 -51q-25 -12 -35 -2t-41 35t-37 35q-7 10 -15 11t-12 6q-5 5 -20 21q-43 46 -73 60q-15 34 -71 70t-66 48q-28 36 -17 58q12 22 11 33q12 0 18 6q57 57 96 45q29 -16 49 -57q12 -15 49 -47t57 -68t58 -96h12z
M672 1208q-8 0 -27 -18q-55 -7 -76 -22q-20 -15 -28 -53t-7 -125t-6 -134q10 -18 1 -68t-3 -67q6 -16 6 -35q-37 -195 -30 -412l-2 -103q0 -26 2 -48q6 -57 94 -57q92 -12 125 -52q10 -35 -19 -45q-82 -10 -125 3q-43 14 -83 16t-52 4l-18 12q-125 4 -240 -22
q-51 -10 -90 20q-10 18 2 43q43 43 152 43q57 16 45 94q-6 20 -6 51q22 153 29 368q6 215 10 321q18 41 22 196l-18 37q-17 31 -127 44q-43 5 -64 15q-18 6 -18 52q12 37 45 37q90 0 170 -21h70q53 -4 190 9t155 -11q5 -8 5 -16l-2 -43q0 -7 -12 -9t-15 -4h-55z" />
    <glyph glyph-name="Iacute" unicode="&#xcd;" horiz-adv-x="833" 
d="M500 1544q0 10 11 23q11 14 14 27t10 20q16 10 38 47l15 6q2 8 12 22t16 23l11 6q8 8 17 32t20 32q28 14 46 6t81 -64q-1 -27 -15 -47t-49 -45q-35 -24 -45 -34t-32 -39t-36 -43q-16 -12 -43 -41t-43 -41q0 -12 -6 -19l-12 -4q-10 -23 -37 -35q-43 -25 -63 -6
q-39 31 36 107q6 6 7 16q4 6 12 19q20 32 35 32zM672 1208q-8 0 -27 -18q-55 -7 -76 -22q-20 -15 -28 -53t-7 -125t-6 -134q10 -18 1 -68t-3 -67q6 -16 6 -35q-37 -195 -30 -412l-2 -103q0 -26 2 -48q6 -57 94 -57q92 -12 125 -52q10 -35 -19 -45q-82 -10 -125 3
q-43 14 -83 16t-52 4l-18 12q-125 4 -240 -22q-51 -10 -90 20q-10 18 2 43q43 43 152 43q57 16 45 94q-6 20 -6 51q22 153 29 368q6 215 10 321q18 41 22 196l-18 37q-17 31 -127 44q-43 5 -64 15q-18 6 -18 52q12 37 45 37q90 0 170 -21h70q53 -4 190 9t155 -11q5 -8 5 -16
l-2 -43q0 -7 -12 -9t-15 -4h-55z" />
    <glyph glyph-name="Icircumflex" unicode="&#xce;" horiz-adv-x="833" 
d="M470 1706q10 0 22 -18t29 -38t45 -64q29 -45 48 -64q19 -18 35 -42q15 -24 31 -46t16 -26q0 -7 -8 -11q-8 -5 -15 -15t-14 -10t-28 31l-18 15t-21 21t-36 25q-32 15 -56 45q-24 31 -35 30t-119 -101l-53 -45q-4 -2 -7 -5t-5 -4q-19 14 -25 16q-6 3 -6 7t-4 12q-4 7 3 19
t22 27t27 31t28 34t28 36t26 32q13 14 23 30q11 16 23 32t22 32q10 14 22 14zM672 1208q-8 0 -27 -18q-55 -7 -76 -22q-20 -15 -28 -53t-7 -125t-6 -134q10 -18 1 -68t-3 -67q6 -16 6 -35q-37 -195 -30 -412l-2 -103q0 -26 2 -48q6 -57 94 -57q92 -12 125 -52
q10 -35 -19 -45q-82 -10 -125 3q-43 14 -83 16t-52 4l-18 12q-125 4 -240 -22q-51 -10 -90 20q-10 18 2 43q43 43 152 43q57 16 45 94q-6 20 -6 51q22 153 29 368q6 215 10 321q18 41 22 196l-18 37q-17 31 -127 44q-43 5 -64 15q-18 6 -18 52q12 37 45 37q90 0 170 -21h70
q53 -4 190 9t155 -11q5 -8 5 -16l-2 -43q0 -7 -12 -9t-15 -4h-55z" />
    <glyph glyph-name="Idieresis" unicode="&#xcf;" horiz-adv-x="833" 
d="M432 1530q0 -59 -26 -84q-12 -10 -64 -10t-84 37q-18 20 -18 57t32 65q6 3 22 23t34 20q56 0 80 -24t24 -84zM756 1545q0 -48 -34 -78q-34 -29 -78 -29t-62 21q-20 21 -21 73q0 106 101 104q55 0 83 -30q11 -13 11 -61zM672 1208q-8 0 -27 -18q-55 -7 -76 -22
q-20 -15 -28 -53t-7 -125t-6 -134q10 -18 1 -68t-3 -67q6 -16 6 -35q-37 -195 -30 -412l-2 -103q0 -26 2 -48q6 -57 94 -57q92 -12 125 -52q10 -35 -19 -45q-82 -10 -125 3q-43 14 -83 16t-52 4l-18 12q-125 4 -240 -22q-51 -10 -90 20q-10 18 2 43q43 43 152 43
q57 16 45 94q-6 20 -6 51q22 153 29 368q6 215 10 321q18 41 22 196l-18 37q-17 31 -127 44q-43 5 -64 15q-18 6 -18 52q12 37 45 37q90 0 170 -21h70q53 -4 190 9t155 -11q5 -8 5 -16l-2 -43q0 -7 -12 -9t-15 -4h-55z" />
    <glyph glyph-name="Eth" unicode="&#xd0;" horiz-adv-x="1429" 
d="M1133 555q0 178 -35 285q-37 141 -107 196q-2 4 -5 14q-10 32 -101 83q-63 45 -189 77q-8 0 -37 15q-39 10 -91 6t-81 -37q-37 -209 -28 -352q0 -98 -4 -148h12q58 -10 91 -10q32 0 120 8q6 0 18 13h88q18 10 39 0q31 -20 31 -52q0 -80 -152 -43l-26 -6q-29 6 -109 8
q-12 -12 -32 -12q-18 6 -50 6q-25 -4 -34 -4l-2 -20q20 -52 13 -86t-5 -90t-11 -76q6 -12 7 -84l-2 -82q0 -81 38 -95q8 -3 19 -6q158 -16 233 23h19q14 8 55 24t66 44q27 14 32 24q8 6 37 23t36 29t41 59t46 75t23 62q12 33 17 74t12 47q8 6 8 8zM1350 729q4 -1 1 -23
t-3 -26q27 -92 -15 -191q-2 -6 0 -21t0 -22q-12 -20 -26 -63q-6 -11 -37 -65t-48 -73t-18 -26q-10 -16 -38 -42t-44 -43t-67 -41t-68 -36h-18q-23 -12 -97 -24q-12 0 -12 -13q-25 -2 -86 -16t-96 -12l-27 -12q-61 -6 -176 6t-143 10t-44 4q-17 6 -28 2q-39 -25 -108 2
q-27 -16 -63 -10t-44 37q23 41 101 49q38 4 51 6q43 -4 51 31q18 123 12 153t-2 55q4 24 0 31q0 16 -3 79t11 104l13 51q0 4 -3 10q-31 -6 -47 -6t-36 3q-19 3 -25 0q-7 -4 -53 -11q-45 -7 -73 4q-28 12 -36 31q-16 71 24 75t101 -1q91 -7 139 -5q0 53 11 115l-13 57
q16 80 17 291q0 12 -6 18q-37 37 -75 41t-69 25q-35 29 -6 55q11 15 34 15l42 -2q399 20 600 0h82q14 -5 56 -17q103 -28 120 -61h12q76 -53 101 -90q12 -23 44 -65t44 -62l6 -33q4 -12 23 -36t21 -41t20 -76q16 -60 16 -95z" />
    <glyph glyph-name="Ntilde" unicode="&#xd1;" horiz-adv-x="1579" 
d="M1020 1706q14 0 30 -14q15 -15 11 -25t-5 -32q0 -22 -16 -58t-18 -39q-47 -66 -93 -62q-47 5 -57 5h-79l-80 2l-68 2q-37 0 -65 -11q-28 -12 -39 -24q-10 -12 -37 -74q-2 -4 -16 -4t-17 4q0 4 -2 6q-29 47 -7 103t46 72t44 23t34 13q12 6 53 6l55 -6l62 -8l92 -4
q49 0 98 31q30 14 50 54t24 40zM328 257v103l8 64v49q14 33 8 45q0 55 -18 100q-4 14 12 76q4 45 -10 242q-12 37 -17 57q-16 31 -60 65t-52 44q0 12 -6 18q-8 6 -21 19q-4 27 -24 49t-34 32q-15 9 -48 27q-6 7 -16 23t-15 22v13q11 -4 31 4t26 8q47 -10 139 -14t140 -15
l37 -18q20 -39 63 -70q6 -6 19 -20t24 -19q6 -84 119 -160q43 -43 49 -57h14q16 -26 56 -64t57 -65q16 -27 37 -55h12q0 -14 12 -29t54 -59t56 -60q15 -18 54 -56t62 -64q18 -6 23 -12q67 -87 120 -118q7 6 21 10l23 8q24 8 26 34l-19 49q-6 27 -3 86t-6 87t-11 98t-19 104
l6 24q-6 33 -6 96t-4 88t-7 51t-6 37t-15 22t-15 18q-16 10 -54 10t-54 8q-6 -6 -19 -6q-14 6 -52 9t-54 17q-4 0 -19 27v31l19 18q16 10 51 6t51 6q147 -31 213 -20q33 -2 90 -2q8 4 31 -2t41 0t92 6q18 -4 23 -16q3 -13 -12 -22t-44 -17q-8 -20 -51 -45q-16 -4 -76 -4
q-18 -4 -35 -24t-22 -40q-4 -47 3 -145q7 -97 2 -137t9 -148l-14 -100q0 -4 10 -30t2 -40q18 -37 -8 -108q0 -5 -8 -16t-10 -21q-2 -9 -1 -57t-8 -64v-70q18 -74 -2 -158q-61 -37 -112 72q-10 0 -16 12t-13 12q-6 0 -10 14q-4 13 -25 13q0 12 -6 19q-12 8 -74 69
q-23 49 -57 78q0 12 -6 19q-15 11 -49 51q-25 12 -51 51q-3 4 -13 6t-18 13t-33 51t-41 57q-25 23 -83 87t-93 81q-66 66 -119 139q-35 25 -54 17t-22 -29q-8 -109 17 -322q-4 -53 -7 -70q-3 -16 -2 -22t6 -23t7 -24q0 -125 4 -158q25 -78 55 -108h27q45 -29 104 -41
q58 -12 78 -18q14 -59 -20 -76q-12 -4 -41 0t-41 2h-82q-23 2 -117 0t-117 8q-30 -6 -78 -7t-68 -2t-34 18t-7 41t48 22l90 30h25q42 23 53 52q25 71 25 103z" />
    <glyph glyph-name="Ograve" unicode="&#xd2;" horiz-adv-x="1392" 
d="M745 1542q0 -12 7 -18q23 -10 35 -47t14 -41q10 -33 -19 -52q-25 -12 -35 -2t-41 37t-38 35q-6 8 -14 9t-28 23q-19 22 -35 38t-42 26q-15 35 -71 71t-66 48q-10 11 -14 23t-6 20q-3 8 7 22t7 25q12 0 18 6q57 57 96 45q29 -16 49 -57q12 -14 49 -46q37 -31 57 -67
t58 -98h12zM1063 836l-12 24v37q-2 2 -3 9q-3 18 -16 18q-14 74 -91 181q-5 7 -22 20t-24 22q-80 74 -219 78q-37 0 -115 -37q-98 -61 -160 -144q-31 -55 -39 -94q-6 -14 -16 -46t-16 -48v-20q-12 -20 -18 -66t-9 -59l6 -21q-20 -41 -2 -82q9 -31 15 -93q6 -61 12 -83t9 -47
q9 -73 63 -137q0 -15 24 -39q8 -27 24 -44t54 -43q37 -26 41 -28q33 -33 51 -39q12 0 51 -12t150 16q27 6 71 37q88 80 148 195q27 70 30 83t21 68q18 113 23 164t-11 129t-20 101zM141 971q0 12 27 24q6 6 6 21l12 6q53 100 166 180l39 39q25 12 37 12q115 49 178 47
q8 2 32 16t39 9q15 -4 42 -7t40 -6t78 -11t84 -25q19 -18 27 -23q84 -41 144 -102q18 -6 36 -21q0 -12 7 -18q12 -6 23 -26t16 -25q8 -3 17 -17t19 -16q0 -14 12 -40t13 -36q53 -100 61 -184l13 -25q0 -80 4 -100v-102q-3 -17 -17 -53t-15 -55t-21 -68q-47 -129 -199 -277
l-30 -18q-19 -12 -27 -19q-16 0 -46 -12q-6 -10 -25 -14t-41 -20t-97 -28q-109 -23 -254 11l-19 12q-49 0 -88 33h-31q-86 74 -106 84l-6 12q-10 0 -27 12q0 14 -6 19q-66 63 -123 205v18q-70 153 -57 247q6 44 10 92q4 50 8 79l13 24q0 33 15 72t17 49v25z" />
    <glyph glyph-name="Oacute" unicode="&#xd3;" horiz-adv-x="1392" 
d="M748 1544q0 10 11 23q11 14 14 27t9 20q16 10 39 47l15 6q2 8 12 22t16 23l10 6q8 8 18 32q9 24 19 32q27 14 45 6t82 -64q0 -27 -14 -47t-49 -45q-35 -24 -45 -34t-32 -39t-36 -43q-16 -12 -43 -41t-43 -41q0 -12 -6 -19l-12 -4q-10 -23 -37 -35q-43 -25 -64 -6
q-39 31 37 107q6 6 6 16q34 51 48 51zM1063 836l-12 24v37q-2 2 -3 9q-3 18 -16 18q-14 74 -91 181q-5 7 -22 20t-24 22q-80 74 -219 78q-37 0 -115 -37q-98 -61 -160 -144q-31 -55 -39 -94q-6 -14 -16 -46t-16 -48v-20q-12 -20 -18 -66t-9 -59l6 -21q-20 -41 -2 -82
q9 -31 15 -93q6 -61 12 -83t9 -47q9 -73 63 -137q0 -15 24 -39q8 -27 24 -44t54 -43q37 -26 41 -28q33 -33 51 -39q12 0 51 -12t150 16q27 6 71 37q88 80 148 195q27 70 30 83t21 68q18 113 23 164t-11 129t-20 101zM141 971q0 12 27 24q6 6 6 21l12 6q53 100 166 180l39 39
q25 12 37 12q115 49 178 47q8 2 32 16t39 9q15 -4 42 -7t40 -6t78 -11t84 -25q19 -18 27 -23q84 -41 144 -102q18 -6 36 -21q0 -12 7 -18q12 -6 23 -26t16 -25q8 -3 17 -17t19 -16q0 -14 12 -40t13 -36q53 -100 61 -184l13 -25q0 -80 4 -100v-102q-3 -17 -17 -53t-15 -55
t-21 -68q-47 -129 -199 -277l-30 -18q-19 -12 -27 -19q-16 0 -46 -12q-6 -10 -25 -14t-41 -20t-97 -28q-109 -23 -254 11l-19 12q-49 0 -88 33h-31q-86 74 -106 84l-6 12q-10 0 -27 12q0 14 -6 19q-66 63 -123 205v18q-70 153 -57 247q6 44 10 92q4 50 8 79l13 24
q0 33 15 72t17 49v25z" />
    <glyph glyph-name="Ocircumflex" unicode="&#xd4;" horiz-adv-x="1392" 
d="M710 1698q10 0 22 -18q11 -18 29 -40q18 -21 47 -67q30 -45 47 -62q17 -15 33 -39t32 -46t16 -26q0 -5 -2 -7t-7 -5q-5 -4 -7 -6t-9 -10t-11 -8q-3 0 -15 14q-11 14 -19 20t-13 11q-5 4 -12 11q-28 28 -56 43t-64 62q-6 7 -17 6t-118 -101l-54 -46q-4 -2 -7 -5t-5 -3
q-20 14 -25 17q-5 2 -5 6t-5 12q-4 8 3 19q6 12 22 26t28 32t28 34l28 36t33 42q19 23 35 46q16 24 27 38t21 14zM1063 836l-12 24v37q-2 2 -3 9q-3 18 -16 18q-14 74 -91 181q-5 7 -22 20t-24 22q-80 74 -219 78q-37 0 -115 -37q-98 -61 -160 -144q-31 -55 -39 -94
q-6 -14 -16 -46t-16 -48v-20q-12 -20 -18 -66t-9 -59l6 -21q-20 -41 -2 -82q9 -31 15 -93q6 -61 12 -83t9 -47q9 -73 63 -137q0 -15 24 -39q8 -27 24 -44t54 -43q37 -26 41 -28q33 -33 51 -39q12 0 51 -12t150 16q27 6 71 37q88 80 148 195q27 70 30 83t21 68q18 113 23 164
t-11 129t-20 101zM141 971q0 12 27 24q6 6 6 21l12 6q53 100 166 180l39 39q25 12 37 12q115 49 178 47q8 2 32 16t39 9q15 -4 42 -7t40 -6t78 -11t84 -25q19 -18 27 -23q84 -41 144 -102q18 -6 36 -21q0 -12 7 -18q12 -6 23 -26t16 -25q8 -3 17 -17t19 -16q0 -14 12 -40
t13 -36q53 -100 61 -184l13 -25q0 -80 4 -100v-102q-3 -17 -17 -53t-15 -55t-21 -68q-47 -129 -199 -277l-30 -18q-19 -12 -27 -19q-16 0 -46 -12q-6 -10 -25 -14t-41 -20t-97 -28q-109 -23 -254 11l-19 12q-49 0 -88 33h-31q-86 74 -106 84l-6 12q-10 0 -27 12q0 14 -6 19
q-66 63 -123 205v18q-70 153 -57 247q6 44 10 92q4 50 8 79l13 24q0 33 15 72t17 49v25z" />
    <glyph glyph-name="Otilde" unicode="&#xd5;" horiz-adv-x="1392" 
d="M975 1706q14 0 30 -14q15 -15 11 -25t-5 -32t-17 -58t-17 -39q-47 -66 -93 -62q-47 5 -57 5h-79l-80 2l-68 2q-38 0 -66 -11q-28 -12 -38 -24t-37 -74q-3 -4 -17 -4t-16 4q0 4 -2 6q-29 47 -7 103t46 72q25 16 45 23t32 13t54 6l55 -6l62 -8l92 -4q49 0 98 31
q29 14 49 54t25 40zM1063 836l-12 24v37q-2 2 -3 9q-3 18 -16 18q-14 74 -91 181q-5 7 -22 20t-24 22q-80 74 -219 78q-37 0 -115 -37q-98 -61 -160 -144q-31 -55 -39 -94q-6 -14 -16 -46t-16 -48v-20q-12 -20 -18 -66t-9 -59l6 -21q-20 -41 -2 -82q9 -31 15 -93
q6 -61 12 -83t9 -47q9 -73 63 -137q0 -15 24 -39q8 -27 24 -44t54 -43q37 -26 41 -28q33 -33 51 -39q12 0 51 -12t150 16q27 6 71 37q88 80 148 195q27 70 30 83t21 68q18 113 23 164t-11 129t-20 101zM141 971q0 12 27 24q6 6 6 21l12 6q53 100 166 180l39 39q25 12 37 12
q115 49 178 47q8 2 32 16t39 9q15 -4 42 -7t40 -6t78 -11t84 -25q19 -18 27 -23q84 -41 144 -102q18 -6 36 -21q0 -12 7 -18q12 -6 23 -26t16 -25q8 -3 17 -17t19 -16q0 -14 12 -40t13 -36q53 -100 61 -184l13 -25q0 -80 4 -100v-102q-3 -17 -17 -53t-15 -55t-21 -68
q-47 -129 -199 -277l-30 -18q-19 -12 -27 -19q-16 0 -46 -12q-6 -10 -25 -14t-41 -20t-97 -28q-109 -23 -254 11l-19 12q-49 0 -88 33h-31q-86 74 -106 84l-6 12q-10 0 -27 12q0 14 -6 19q-66 63 -123 205v18q-70 153 -57 247q6 44 10 92q4 50 8 79l13 24q0 33 15 72t17 49
v25z" />
    <glyph glyph-name="Odieresis" unicode="&#xd6;" horiz-adv-x="1392" 
d="M688 1530q0 -59 -26 -84q-12 -10 -64 -10t-84 37q-18 20 -18 57t32 65q6 3 22 23t34 20q60 0 82 -24t22 -84zM1012 1545q0 -48 -34 -78q-34 -29 -78 -29t-62 21q-20 21 -21 73q0 106 101 104q57 0 83 -30q11 -13 11 -61zM1063 836l-12 24v37q-2 2 -3 9q-3 18 -16 18
q-14 74 -91 181q-5 7 -22 20t-24 22q-80 74 -219 78q-37 0 -115 -37q-98 -61 -160 -144q-31 -55 -39 -94q-6 -14 -16 -46t-16 -48v-20q-12 -20 -18 -66t-9 -59l6 -21q-20 -41 -2 -82q9 -31 15 -93q6 -61 12 -83t9 -47q9 -73 63 -137q0 -15 24 -39q8 -27 24 -44t54 -43
q37 -26 41 -28q33 -33 51 -39q12 0 51 -12t150 16q27 6 71 37q88 80 148 195q27 70 30 83t21 68q18 113 23 164t-11 129t-20 101zM141 971q0 12 27 24q6 6 6 21l12 6q53 100 166 180l39 39q25 12 37 12q115 49 178 47q8 2 32 16t39 9q15 -4 42 -7t40 -6t78 -11t84 -25
q19 -18 27 -23q84 -41 144 -102q18 -6 36 -21q0 -12 7 -18q12 -6 23 -26t16 -25q8 -3 17 -17t19 -16q0 -14 12 -40t13 -36q53 -100 61 -184l13 -25q0 -80 4 -100v-102q-3 -17 -17 -53t-15 -55t-21 -68q-47 -129 -199 -277l-30 -18q-19 -12 -27 -19q-16 0 -46 -12
q-6 -10 -25 -14t-41 -20t-97 -28q-109 -23 -254 11l-19 12q-49 0 -88 33h-31q-86 74 -106 84l-6 12q-10 0 -27 12q0 14 -6 19q-66 63 -123 205v18q-70 153 -57 247q6 44 10 92q4 50 8 79l13 24q0 33 15 72t17 49v25z" />
    <glyph glyph-name="Oslash" unicode="&#xd8;" horiz-adv-x="1392" 
d="M1063 836l-12 24v37q-2 2 -3 9q-3 18 -16 18q-10 51 -53 120q-16 -29 -21 -32q-54 -106 -72 -136t-67 -117t-55 -97t-78 -127t-86 -144q-16 -20 -39 -63l-39 -62q-33 -35 -69 -98q22 -25 96 -74q33 -33 51 -39q12 0 51 -12t150 16q27 6 71 37q88 80 148 195q27 70 30 83
t21 68q18 113 23 164t-11 129t-20 101zM303 711l6 -21q-20 -41 -2 -82q9 -31 15 -93q6 -61 12 -83t9 -47q9 -73 63 -137q1 8 4 14q57 68 72 90t89 154q147 261 232 395l86 129q29 35 31 68q8 12 12 16q-31 27 -37 33q-80 74 -219 78q-37 0 -115 -37q-98 -61 -160 -144
q-31 -55 -39 -94q-6 -14 -16 -46t-16 -48v-20q-12 -20 -18 -66t-9 -59zM141 971q0 12 27 24q6 6 6 21l12 6q53 100 166 180l39 39q25 12 37 12q115 49 178 47q8 2 32 16t39 9q15 -4 42 -7t40 -6t78 -11t84 -25q19 -18 39 -28t37 -21q6 16 23 42t18 36t17 45q35 75 90 75
q69 -20 53 -57t-55 -89q-39 -53 -45 -63t-31 -42q8 -6 25 -23q18 -6 36 -21q0 -12 7 -18q12 -6 23 -26t16 -25q8 -3 17 -17t19 -16q0 -14 12 -40t13 -36q53 -100 61 -184l13 -25q0 -80 4 -100v-102q-3 -17 -17 -53t-15 -55t-21 -68q-47 -129 -199 -277l-30 -18
q-19 -12 -27 -19q-16 0 -46 -12q-6 -10 -25 -14t-41 -20t-97 -28q-109 -23 -254 11l-19 12q-49 0 -88 33h-31q-2 2 -8 7t-8 7l-12 -24q-2 -2 2 -21q-13 -30 -27 -48q-14 -19 -20 -28q0 -20 -29 -34t-50 0q-60 40 10 118q15 18 32 35q0 28 31 53q-4 4 -14 10t-13 9l-6 12
q-10 0 -27 12q0 14 -6 19q-66 63 -123 205v18q-70 153 -57 247q6 44 10 92q4 50 8 79l13 24q0 33 15 72t17 49v25z" />
    <glyph glyph-name="Ugrave" unicode="&#xd9;" horiz-adv-x="1462" 
d="M801 1493q0 -12 6 -18q23 -9 35 -47t14 -42q10 -33 -18 -51q-25 -11 -38 1q-13 13 -42 36q-29 24 -35 32t-14 10q-8 1 -42 38q-33 37 -63 49q-16 35 -72 71t-65 48q-10 12 -13 24t-5 18q-2 7 6 22t6 26q12 0 18 6q57 57 96 45q29 -16 50 -57q12 -14 49 -46q36 -32 56 -68
t58 -97h13zM299 160q0 14 -14 46q-15 32 -13 46t-16 51q-10 55 -9 142t-1 143q-4 2 -1 22t0 34t-2 61t-1 71q-16 70 -13 84q25 72 17 182v45q16 27 8 62t-39 39q-70 8 -158 39q-12 10 -15 25q-3 16 6 22q31 22 70 22h79l32 -14q37 0 57 5t58 1q39 -4 158 4q120 8 137 -2
q29 0 41 -22t4 -54q-16 -2 -56 -10t-91 -6q-12 6 -43 6q-37 -11 -53 -54q-3 -10 -8 -28t7 -69q4 -31 -3 -81t-5 -77l6 -12q-6 -14 -6 -82l14 -418l-6 -18q2 -9 5 -25t9 -26t11 -34q6 -22 12 -30q12 -6 12 -19q9 -14 23 -25q14 -10 20 -16t30 -17t28 -14t6 -9t6 -9
q33 -8 82 -32q8 -3 47 -5t60 -10q39 -8 75 0q86 25 166 92q12 0 19 7q53 53 53 133q2 23 11 89t4 110t1 69t6 35q-12 37 -12 51v37q6 12 6 57q-10 25 -9 157t1 152l-12 39q-4 14 -22 28t-23 24q-16 10 -50 8t-51 4l-6 12q-63 6 -69 33q-12 14 -11 37q2 24 33 28t115 -5
t123 1q18 0 32 -8q35 -4 97 1q141 11 207 -28q18 -25 4 -45q-17 -35 -59 -51t-81 2q-47 -10 -64 -48t-21 -99t-11 -86q8 -14 3 -56t-2 -118t-9 -126t-10 -63q2 -12 -4 -38t-1 -53t-8 -72q-12 -44 -13 -51t-13 -36v-18q-14 -20 -27 -63q-47 -86 -108 -138v-12q-5 -6 -19 -15
t-19 -13t-17 -8q-12 -3 -22 -14q-11 -11 -53 -35l-49 -28h-26q-68 -28 -165 -21q-98 7 -112 7q-18 13 -68 31t-71 39q-18 0 -24 8q-4 10 -20 18q-16 7 -18 11q-3 4 -44 65q-2 2 -14 8q-12 7 -11 21z" />
    <glyph glyph-name="Uacute" unicode="&#xda;" horiz-adv-x="1462" 
d="M825 1520q-1 7 11 22q12 14 15 28t9 19q16 10 39 47l14 6q2 8 14 24q11 15 15 22l10 6q8 8 18 32t19 31q27 14 45 7t82 -64q0 -27 -14 -47t-49 -45t-45 -35t-32 -39t-36 -43q-16 -12 -43 -41t-43 -41q0 -12 -6 -18l-12 -5q-10 -23 -37 -34q-43 -25 -64 -6q-39 31 37 106
q6 6 6 16q4 6 18 29q15 23 29 23zM299 160q0 14 -14 46q-15 32 -13 46t-16 51q-10 55 -9 142t-1 143q-4 2 -1 22t0 34t-2 61t-1 71q-16 70 -13 84q25 72 17 182v45q16 27 8 62t-39 39q-70 8 -158 39q-12 10 -15 25q-3 16 6 22q31 22 70 22h79l32 -14q37 0 57 5t58 1
q39 -4 158 4q120 8 137 -2q29 0 41 -22t4 -54q-16 -2 -56 -10t-91 -6q-12 6 -43 6q-37 -11 -53 -54q-3 -10 -8 -28t7 -69q4 -31 -3 -81t-5 -77l6 -12q-6 -14 -6 -82l14 -418l-6 -18q2 -9 5 -25t9 -26t11 -34q6 -22 12 -30q12 -6 12 -19q9 -14 23 -25q14 -10 20 -16t30 -17
t28 -14t6 -9t6 -9q33 -8 82 -32q8 -3 47 -5t60 -10q39 -8 75 0q86 25 166 92q12 0 19 7q53 53 53 133q2 23 11 89t4 110t1 69t6 35q-12 37 -12 51v37q6 12 6 57q-10 25 -9 157t1 152l-12 39q-4 14 -22 28t-23 24q-16 10 -50 8t-51 4l-6 12q-63 6 -69 33q-12 14 -11 37
q2 24 33 28t115 -5t123 1q18 0 32 -8q35 -4 97 1q141 11 207 -28q18 -25 4 -45q-17 -35 -59 -51t-81 2q-47 -10 -64 -48t-21 -99t-11 -86q8 -14 3 -56t-2 -118t-9 -126t-10 -63q2 -12 -4 -38t-1 -53t-8 -72q-12 -44 -13 -51t-13 -36v-18q-14 -20 -27 -63q-47 -86 -108 -138
v-12q-5 -6 -19 -15t-19 -13t-17 -8q-12 -3 -22 -14q-11 -11 -53 -35l-49 -28h-26q-68 -28 -165 -21q-98 7 -112 7q-18 13 -68 31t-71 39q-18 0 -24 8q-4 10 -20 18q-16 7 -18 11q-3 4 -44 65q-2 2 -14 8q-12 7 -11 21z" />
    <glyph glyph-name="Ucircumflex" unicode="&#xdb;" horiz-adv-x="1462" 
d="M1040 1424q0 -5 -2 -7t-7 -5q-7 -4 -14 -13q-8 -10 -11 -10q-4 0 -17 15t-25 24q-12 10 -26 24q-15 14 -44 31q-29 16 -51 45q-21 28 -32 27q-10 -1 -51 -38t-70 -63l-53 -45q-4 -2 -7 -5t-5 -3q-20 13 -25 16q-6 2 -6 6t-5 14t18 35t36 41q11 15 27 33t29 36t25 32
t24 30q10 16 23 33t23 31t20 14t22 -18t25 -34t25 -32t24 -36t26 -38t28 -30q14 -14 29 -38t31 -46t16 -26zM299 160q0 14 -14 46q-15 32 -13 46t-16 51q-10 55 -9 142t-1 143q-4 2 -1 22t0 34t-2 61t-1 71q-16 70 -13 84q25 72 17 182v45q16 27 8 62t-39 39q-70 8 -158 39
q-12 10 -15 25q-3 16 6 22q31 22 70 22h79l32 -14q37 0 57 5t58 1q39 -4 158 4q120 8 137 -2q29 0 41 -22t4 -54q-16 -2 -56 -10t-91 -6q-12 6 -43 6q-37 -11 -53 -54q-3 -10 -8 -28t7 -69q4 -31 -3 -81t-5 -77l6 -12q-6 -14 -6 -82l14 -418l-6 -18q2 -9 5 -25t9 -26t11 -34
q6 -22 12 -30q12 -6 12 -19q9 -14 23 -25q14 -10 20 -16t30 -17t28 -14t6 -9t6 -9q33 -8 82 -32q8 -3 47 -5t60 -10q39 -8 75 0q86 25 166 92q12 0 19 7q53 53 53 133q2 23 11 89t4 110t1 69t6 35q-12 37 -12 51v37q6 12 6 57q-10 25 -9 157t1 152l-12 39q-4 14 -22 28
t-23 24q-16 10 -50 8t-51 4l-6 12q-63 6 -69 33q-12 14 -11 37q2 24 33 28t115 -5t123 1q18 0 32 -8q35 -4 97 1q141 11 207 -28q18 -25 4 -45q-17 -35 -59 -51t-81 2q-47 -10 -64 -48t-21 -99t-11 -86q8 -14 3 -56t-2 -118t-9 -126t-10 -63q2 -12 -4 -38t-1 -53t-8 -72
q-12 -44 -13 -51t-13 -36v-18q-14 -20 -27 -63q-47 -86 -108 -138v-12q-5 -6 -19 -15t-19 -13t-17 -8q-12 -3 -22 -14q-11 -11 -53 -35l-49 -28h-26q-68 -28 -165 -21q-98 7 -112 7q-18 13 -68 31t-71 39q-18 0 -24 8q-4 10 -20 18q-16 7 -18 11q-3 4 -44 65q-2 2 -14 8
q-12 7 -11 21z" />
    <glyph glyph-name="Udieresis" unicode="&#xdc;" horiz-adv-x="1462" 
d="M711 1530q0 -59 -27 -84q-12 -10 -64 -10t-83 37q-19 20 -19 57t33 65q6 3 22 23t33 20q57 0 81 -24t24 -84zM840 1532q0 106 100 104q55 0 84 -30q10 -13 10 -61t-34 -78q-34 -29 -78 -29t-62 21q-20 21 -20 73zM299 160q0 14 -14 46q-15 32 -13 46t-16 51
q-10 55 -9 142t-1 143q-4 2 -1 22t0 34t-2 61t-1 71q-16 70 -13 84q25 72 17 182v45q16 27 8 62t-39 39q-70 8 -158 39q-12 10 -15 25q-3 16 6 22q31 22 70 22h79l32 -14q37 0 57 5t58 1q39 -4 158 4q120 8 137 -2q29 0 41 -22t4 -54q-16 -2 -56 -10t-91 -6q-12 6 -43 6
q-37 -11 -53 -54q-3 -10 -8 -28t7 -69q4 -31 -3 -81t-5 -77l6 -12q-6 -14 -6 -82l14 -418l-6 -18q2 -9 5 -25t9 -26t11 -34q6 -22 12 -30q12 -6 12 -19q9 -14 23 -25q14 -10 20 -16t30 -17t28 -14t6 -9t6 -9q33 -8 82 -32q8 -3 47 -5t60 -10q39 -8 75 0q86 25 166 92
q12 0 19 7q53 53 53 133q2 23 11 89t4 110t1 69t6 35q-12 37 -12 51v37q6 12 6 57q-10 25 -9 157t1 152l-12 39q-4 14 -22 28t-23 24q-16 10 -50 8t-51 4l-6 12q-63 6 -69 33q-12 14 -11 37q2 24 33 28t115 -5t123 1q18 0 32 -8q35 -4 97 1q141 11 207 -28q18 -25 4 -45
q-17 -35 -59 -51t-81 2q-47 -10 -64 -48t-21 -99t-11 -86q8 -14 3 -56t-2 -118t-9 -126t-10 -63q2 -12 -4 -38t-1 -53t-8 -72q-12 -44 -13 -51t-13 -36v-18q-14 -20 -27 -63q-47 -86 -108 -138v-12q-5 -6 -19 -15t-19 -13t-17 -8q-12 -3 -22 -14q-11 -11 -53 -35l-49 -28
h-26q-68 -28 -165 -21q-98 7 -112 7q-18 13 -68 31t-71 39q-18 0 -24 8q-4 10 -20 18q-16 7 -18 11q-3 4 -44 65q-2 2 -14 8q-12 7 -11 21z" />
    <glyph glyph-name="Yacute" unicode="&#xdd;" horiz-adv-x="1218" 
d="M596 1518q34 51 47 51q0 8 11 22q10 13 14 27t10 20q16 10 39 48l14 6q3 12 14 25t15 20l10 6q8 8 17 32t20 31q27 14 45 7t82 -64q0 -27 -14 -47t-50 -45t-45 -35t-31 -39t-36 -43q-16 -12 -43 -41t-43 -41q0 -12 -6 -18l-13 -4q-10 -23 -37 -35q-43 -25 -63 -6
q-39 31 37 106q6 6 6 17zM419 82q63 0 70 43q10 55 -4 233l-12 21q11 56 6 118q-4 62 -4 85q0 6 -24 30q-57 90 -71 118t-39 89q-24 61 -44 92q-4 51 -23 87q-20 36 -42 72t-29 50q-12 0 -13 8q-16 36 -63 52q-14 4 -50 10t-47 11t-22 24q0 76 39 75q147 23 215 -10
q27 6 80 3q54 -3 106 5t99 -4q33 -8 18 -63q-11 -26 -62 -31q-51 -4 -65 -18q-6 -10 -6 -64q27 -66 43 -82q8 -12 12 -36t33 -79t47 -120q7 -35 27 -64t53 -12q10 4 22 27q11 23 23 28q-4 18 10 48t20 45t30 51q23 36 32 51q2 12 22 40q19 27 23 36v18q1 5 11 25q27 56 2 84
q-14 10 -51 14t-45 6t-41 37q-4 14 -3 20q2 7 10 21t11 22q57 10 168 6t168 5q113 10 127 10q34 -6 18 -76q-25 -37 -102 -49q-29 -6 -76 -43q-20 -20 -55 -57t-53 -56q-2 -6 -21 -32l-12 -7q0 -12 -6 -18l-13 -6q-41 -86 -45 -94q-45 -51 -71 -101v-18q-4 -14 -20 -40
t-19 -42q-4 -51 2 -203t-6 -203q8 -25 2 -87t14 -76q2 -1 10 -7q7 -6 59 -9t70 -5l27 6q9 0 33 -23t16 -46q-10 -33 -55 -47t-158 -2t-168 2q-23 10 -53 8q-31 -2 -47 0q-31 -6 -95 -6q-24 4 -40 19t-17 32q0 43 33 49h81z" />
    <glyph glyph-name="Thorn" unicode="&#xde;" horiz-adv-x="1085" 
d="M522 449q0 -12 21 -27q80 -31 194 43h15q73 39 114 174q20 119 -53 223q-15 20 -37 26t-40 18t-27 14q-10 2 -69 2h-69q-24 0 -30 -25l-13 -27q0 -51 -4 -61t-7 -38t-10 -43t4 -76t11 -203zM909 412l-123 -68h-24q-25 -22 -105 -14t-95 6t-34 -21q-8 -27 -26 -18v-23
l-2 -103q0 -26 2 -48q6 -57 94 -57q92 -12 125 -52q10 -35 -19 -45q-82 -10 -125 3q-43 14 -83 16t-52 4l-18 12q-125 4 -240 -22q-51 -10 -90 20q-10 18 2 43q43 43 152 43q57 16 45 94q-6 20 -6 51q22 153 29 368q6 215 10 321q18 41 22 196l-18 37q-17 31 -127 44
q-43 5 -64 15q-18 6 -18 52q12 37 45 37q90 0 170 -21h70q53 -4 190 9t155 -11q5 -8 5 -16l-2 -43q0 -7 -12 -9t-15 -4h-55q-8 0 -27 -18q-55 -7 -76 -22q-20 -15 -26 -40t-11 -118q16 2 50 2t54 4t66 -2t62 -6l18 -13q84 0 113 -14q31 -8 82 -45q68 -72 81 -191t-40 -238
q-12 -26 -26 -38q-15 -13 -38 -31t-32 -26h-13z" />
    <glyph glyph-name="germandbls" unicode="&#xdf;" horiz-adv-x="1075" 
d="M879 100q0 -6 18 -24q16 -10 48 -11t51 -9q18 -8 20 -39q2 -30 -31 -37q-51 0 -76 14q-12 2 -38 0t-45 2t-77 -4t-79 4q-31 14 -19 70q20 -2 64 36q24 39 18 94q-6 56 -9 98t1 178t-1 210t-144 41q-4 0 -22 -4t-29 -1q-9 3 -7 17q0 18 39 31l6 14q23 10 67 35t66 33
q20 35 33 139q4 5 10 21t9 22l2 48q0 23 -13 42q-6 6 -19 12t-20 13q-72 98 -160 89t-104 -69q-16 -8 -20 -12q-6 -16 -12 -54t-15 -59q0 -27 6 -39l-6 -145q0 -37 6 -70q0 -31 -8 -43l6 -26q-18 -162 -18 -164q16 -33 12 -101t10 -102v-18q-12 -25 -12 -32t-5 -91t3 -92
q8 -51 88 -51q27 0 39 -25q10 -45 -33 -45l-164 8q-8 0 -45 -18q-43 0 -63 6q-8 0 -32 -5t-38 -1q-35 10 -43 39q0 11 10 31t32 20l34 -2q12 0 23 9q10 9 10 17q18 100 18 261t4 264v82q-2 4 -6 25t-24 26q-14 2 -62 -3t-65 27q8 33 64 58t63 30q0 6 12 19q10 23 15 73
q6 50 14 64t8 30t3 25t13 23t12 24q0 31 7 33q14 12 37 39q24 27 38 36q85 54 124 70q40 15 129 25t128 0t71 -29t50 -26q31 0 31 12q16 -8 45 6q12 0 12 15l82 24q39 0 47 4q45 33 156 52q55 18 99 9t52 -23l11 -18q2 -5 7 -21t7 -19l12 -6q31 -53 -31 -101
q-33 -41 -69 -30q-12 4 -47 9t-49 15q-74 78 -164 62q-55 -10 -88 -47q-3 -3 -21 -15q-47 -31 -63 -155q0 -31 -5 -141t9 -187q-10 -39 -8 -177t0 -172t-2 -272z" />
    <glyph glyph-name="agrave" unicode="&#xe0;" horiz-adv-x="821" 
d="M481 246q10 74 5 114t-5 43q2 25 -24 31q-11 2 -23 -5t-21 -8t-27 -13t-30 -17q-39 -8 -77 -57q-51 -90 -39 -144q16 -39 69 -51q32 -4 70 13q16 3 39 17q22 15 31 19q20 19 32 58zM391 76q-20 0 -31 -15q-76 -74 -178 -55q-63 25 -82 72q-26 41 -26 74t-4 45
q0 104 141 194q4 2 17 12t20 15q12 0 20 6q86 57 170 74q29 10 39 30q29 51 22 117t-53 107q-22 18 -60 17t-52 -24q-39 -57 -39 -114q-12 -27 -27 -31v-12q-35 -35 -75 -25q-82 27 -82 70q-6 67 42 113q81 79 238 100l25 -6q27 18 78 -1q51 -18 61 -20q45 -16 88 -121
q6 -20 2 -65t2 -68q-12 -51 -11 -150t-9 -153q4 -10 5 -49t18 -56q47 -47 98 -13q27 19 43 16q32 0 19 -40t-19 -48q-14 0 -21 -6v-13q-84 -41 -152 -24q-38 -1 -66 21t-58 87q-12 12 -21 13q-6 -6 -21 -18t-22 -19l-6 -13q-19 0 -24 -12t-9 -12zM436 1079q17 -17 25 -32
t21 -38t6 -44t-14 -32t-37 19l-83 83q-53 54 -82 83q0 12 -6 19l-12 2q-12 27 -51 67t-49 72q-12 51 0 76q12 12 12 18q49 26 94 6t69 -84t33 -75q10 -5 20 -25t18 -30t18 -40q10 -31 18 -45z" />
    <glyph glyph-name="aacute" unicode="&#xe1;" horiz-adv-x="821" 
d="M438 1085q0 8 12 23q12 14 14 28q3 14 9 19q16 10 39 47l14 6q2 8 14 24q11 15 15 21q16 12 27 37q10 25 20 33q28 14 46 7t81 -64q0 -27 -14 -47t-49 -45t-45 -35t-32 -39t-36 -43q-16 -12 -43 -41t-43 -41q0 -12 -6 -19l-12 -4q-10 -23 -37 -34q-43 -25 -64 -7
q-39 31 37 107q6 6 6 16q4 6 12 20q19 32 35 31zM515 335q-1 39 -1 49t-20 40q-166 -33 -215 -166q-23 -84 38 -113q45 -18 107 -4q88 20 91 125q1 31 0 69zM184 354q8 0 37 13q47 41 145 79t136 62q12 0 25 25t6 52t-15 51t-10 34q4 43 -25 63q-35 29 -73 29t-70 -27
q-29 -29 -47 -129q-8 -16 -37 -31q-2 0 -69 -5t-68 5q-37 16 -37 87q0 12 13 25t52 39t58 44q66 37 96 49h21l45 27q72 0 110 12q23 4 98 -14q90 -20 115 -162l-12 -53q-2 -27 -3 -127t-13 -156q8 -24 3 -90t-3 -92q16 -53 36 -60q25 -6 64 6t61 7q33 -7 6 -66
q-16 -12 -34 -31q-12 0 -19 -6l-6 -12q-25 -16 -59 -29q-18 0 -25 11q-12 4 -28 -2t-25 -7q-66 23 -78 33q-4 8 -13 14t-12 13q-8 29 -32 65q-6 6 -13 6q-18 -6 -45 -34t-47 -31q-55 -78 -188 -49q-43 6 -74 39t-36 61t-15 65q-10 36 22 93q33 57 39 80q26 0 30 12
q5 12 13 12z" />
    <glyph glyph-name="acircumflex" unicode="&#xe2;" horiz-adv-x="821" 
d="M690 1007q0 -5 -2 -7t-7 -6q-7 -4 -14 -13q-8 -10 -12 -10t-17 15t-24 24q-12 10 -19 17q-27 27 -53 40t-49 42q-22 30 -33 29t-120 -102l-53 -45q-4 -2 -7 -5t-6 -3q-18 13 -24 15q-6 4 -6 8t-5 15t18 33t35 40t29 35q15 17 27 35t32 42q20 23 44 60q25 37 38 38
q13 2 24 -16t30 -42t50 -70q30 -47 46 -61q16 -13 32 -37l30 -45q16 -21 16 -26zM515 335q-1 39 -1 49t-20 40q-166 -33 -215 -166q-23 -84 38 -113q45 -18 107 -4q88 20 91 125q1 31 0 69zM184 354q8 0 37 13q47 41 145 79t136 62q12 0 25 25t6 52t-15 51t-10 34
q4 43 -25 63q-35 29 -73 29t-70 -27q-29 -29 -47 -129q-8 -16 -37 -31q-2 0 -69 -5t-68 5q-37 16 -37 87q0 12 13 25t52 39t58 44q66 37 96 49h21l45 27q72 0 110 12q23 4 98 -14q90 -20 115 -162l-12 -53q-2 -27 -3 -127t-13 -156q8 -24 3 -90t-3 -92q16 -53 36 -60
q25 -6 64 6t61 7q33 -7 6 -66q-16 -12 -34 -31q-12 0 -19 -6l-6 -12q-25 -16 -59 -29q-18 0 -25 11q-12 4 -28 -2t-25 -7q-66 23 -78 33q-4 8 -13 14t-12 13q-8 29 -32 65q-6 6 -13 6q-18 -6 -45 -34t-47 -31q-55 -78 -188 -49q-43 6 -74 39t-36 61t-15 65q-10 36 22 93
q33 57 39 80q26 0 30 12q5 12 13 12z" />
    <glyph glyph-name="atilde" unicode="&#xe3;" horiz-adv-x="821" 
d="M672 1313q14 -1 30 -15t11 -24q-4 -10 -5 -37t-34 -92q-47 -67 -94 -63q-46 5 -56 5h-80l-79 3l-68 2q-37 0 -65 -12t-39 -23q-10 -12 -37 -74q-2 -4 -16 -4t-16 4q-1 4 -3 6q-29 47 -11 93t37 68q18 22 48 33t42 17t54 6l55 -6l62 -8l92 -4q49 0 98 31q30 14 50 54
t24 40zM515 335q-1 39 -1 49t-20 40q-166 -33 -215 -166q-23 -84 38 -113q45 -18 107 -4q88 20 91 125q1 31 0 69zM184 354q8 0 37 13q47 41 145 79t136 62q12 0 25 25t6 52t-15 51t-10 34q4 43 -25 63q-35 29 -73 29t-70 -27q-29 -29 -47 -129q-8 -16 -37 -31q-2 0 -69 -5
t-68 5q-37 16 -37 87q0 12 13 25t52 39t58 44q66 37 96 49h21l45 27q72 0 110 12q23 4 98 -14q90 -20 115 -162l-12 -53q-2 -27 -3 -127t-13 -156q8 -24 3 -90t-3 -92q16 -53 36 -60q25 -6 64 6t61 7q33 -7 6 -66q-16 -12 -34 -31q-12 0 -19 -6l-6 -12q-25 -16 -59 -29
q-18 0 -25 11q-12 4 -28 -2t-25 -7q-66 23 -78 33q-4 8 -13 14t-12 13q-8 29 -32 65q-6 6 -13 6q-18 -6 -45 -34t-47 -31q-55 -78 -188 -49q-43 6 -74 39t-36 61t-15 65q-10 36 22 93q33 57 39 80q26 0 30 12q5 12 13 12z" />
    <glyph glyph-name="adieresis" unicode="&#xe4;" horiz-adv-x="821" 
d="M385 1079q0 -59 -27 -84q-12 -10 -64 -10t-83 37q-18 20 -18 57t32 66q6 3 23 23t33 20q59 0 81 -25t23 -84zM514 1081q0 105 100 105q57 0 84 -31q11 -13 11 -61t-34 -78t-61 -29q-60 -1 -80 21t-20 73zM515 335q-1 39 -1 49t-20 40q-166 -33 -215 -166q-23 -84 38 -113
q45 -18 107 -4q88 20 91 125q1 31 0 69zM184 354q8 0 37 13q47 41 145 79t136 62q12 0 25 25t6 52t-15 51t-10 34q4 43 -25 63q-35 29 -73 29t-70 -27q-29 -29 -47 -129q-8 -16 -37 -31q-2 0 -69 -5t-68 5q-37 16 -37 87q0 12 13 25t52 39t58 44q66 37 96 49h21l45 27
q72 0 110 12q23 4 98 -14q90 -20 115 -162l-12 -53q-2 -27 -3 -127t-13 -156q8 -24 3 -90t-3 -92q16 -53 36 -60q25 -6 64 6t61 7q33 -7 6 -66q-16 -12 -34 -31q-12 0 -19 -6l-6 -12q-25 -16 -59 -29q-18 0 -25 11q-12 4 -28 -2t-25 -7q-66 23 -78 33q-4 8 -13 14t-12 13
q-8 29 -32 65q-6 6 -13 6q-18 -6 -45 -34t-47 -31q-55 -78 -188 -49q-43 6 -74 39t-36 61t-15 65q-10 36 22 93q33 57 39 80q26 0 30 12q5 12 13 12z" />
    <glyph glyph-name="aring" unicode="&#xe5;" horiz-adv-x="821" 
d="M377 1190q0 -43 33 -83q32 -40 78 -40t80 44t34 85t-37 78q-41 49 -77 49t-74 -45t-37 -88zM678 1184q0 -64 -6 -78q-23 -41 -41 -56q-18 -16 -50 -26t-57 -22q-26 -12 -52 -11q-74 0 -130 70q-45 45 -50 58t0 38t5 45t11 42t18 40q21 64 92 84q26 10 60 10t92 -24
t74 -40t32 -61q2 -5 2 -69zM515 335q-1 39 -1 49t-20 40q-166 -33 -215 -166q-23 -84 38 -113q45 -18 107 -4q88 20 91 125q1 31 0 69zM184 354q8 0 37 13q47 41 145 79t136 62q12 0 25 25t6 52t-15 51t-10 34q4 43 -25 63q-35 29 -73 29t-70 -27q-29 -29 -47 -129
q-8 -16 -37 -31q-2 0 -69 -5t-68 5q-37 16 -37 87q0 12 13 25t52 39t58 44q66 37 96 49h21l45 27q72 0 110 12q23 4 98 -14q90 -20 115 -162l-12 -53q-2 -27 -3 -127t-13 -156q8 -24 3 -90t-3 -92q16 -53 36 -60q25 -6 64 6t61 7q33 -7 6 -66q-16 -12 -34 -31q-12 0 -19 -6
l-6 -12q-25 -16 -59 -29q-18 0 -25 11q-12 4 -28 -2t-25 -7q-66 23 -78 33q-4 8 -13 14t-12 13q-8 29 -32 65q-6 6 -13 6q-18 -6 -45 -34t-47 -31q-55 -78 -188 -49q-43 6 -74 39t-36 61t-15 65q-10 36 22 93q33 57 39 80q26 0 30 12q5 12 13 12z" />
    <glyph glyph-name="ae" unicode="&#xe6;" horiz-adv-x="1290" 
d="M515 335q-1 39 -1 49t-20 40q-166 -33 -215 -166q-23 -84 38 -113q45 -18 107 -4q88 20 91 125q1 31 0 69zM928 766q-104 0 -133 -18q-78 -55 -109 -134q-3 -10 21 -26q20 -20 49 -21l123 13q6 0 20 -7q23 7 81 7t73 18q49 51 -47 127q-12 0 -19 6q-25 35 -59 35z
M184 354q8 0 37 13q47 41 145 79t136 62q12 0 25 25t6 52t-15 51t-10 34q4 43 -25 63q-35 29 -73 29t-70 -27q-29 -29 -47 -129q-8 -16 -37 -31q-2 0 -69 -5t-68 5q-37 16 -37 87q0 12 13 25t52 39t58 44q66 37 96 49h21l45 27q72 0 110 12q35 6 87 -10q87 -27 92 -53
q6 -26 16 -47l22 12q14 0 21 8q94 80 186 72q119 -12 125 -15q57 -25 86 -47q90 -129 92 -133v-20q26 -39 6 -66q-25 -41 -92 -41q-2 -4 -26 -1t-27 3q-121 -14 -166 -12q-61 12 -106 14q-27 -8 -80 -20q-15 -4 -23 -20t-4 -27q0 -39 12 -105q18 -53 60 -94q94 -84 178 -106
q4 0 18 -6t21 -3q90 8 168 86v13q23 27 43 0t8 -47l-12 -7l-6 -32q0 -4 -10 -10t-11 -11q-12 -33 -68 -84q-14 -14 -38 -26h-21q-8 -5 -17 -15t-17 -12t-40 -4q-33 -2 -47 -8h-26q-6 -2 -45 1t-43 9q-2 0 -27 10t-37 10q-23 8 -57 39q-4 9 -26 19t-23 16q-8 29 -33 66
q-6 6 -18 3t-66 -53t-76 -55q-26 -39 -98 -54t-121 -6t-80 42t-36 61t-15 65q-10 36 22 93q33 57 39 80q26 0 30 12q5 12 13 12z" />
    <glyph glyph-name="ccedilla" unicode="&#xe7;" horiz-adv-x="788" 
d="M242 485q0 -82 43 -202q6 -10 15 -35t37 -61t48 -50q33 -31 79 -36t85 22h18q94 51 121 82h25q10 -43 -3 -85t-55 -54q-8 -35 -63 -50q-20 -10 -70 -39q-43 -16 -84 -16q-6 -4 -16 -18q-10 -15 -10 -23t28 -33q49 -33 72 -61q39 -53 39 -84t-26 -74t-44 -55t-50 -14
q-33 -3 -51 -7t-50 -4t-56 10t-29 14q-5 3 -17 10t-11 25q0 19 13 35q14 16 34 17t52 -25t69 -26q51 0 51 53q0 23 -47 66q-48 48 -65 57q-16 8 -17 25t33 60q33 44 34 47t3 6t2 5q-18 6 -60 6l-30 19h-21l-49 33q-49 37 -69 57q-68 92 -74 166q-12 78 -9 104t2 65
q-1 40 1 78t26 74v19q16 37 76 106q2 4 8 22t13 23q12 8 54 37t66 39q0 12 6 12h19q35 18 96 31q70 10 108 2t113 -35q76 -51 86 -84q12 -47 -6 -82q-14 -41 -56 -51t-77 27q-12 27 -37 76q-29 43 -133 84q-10 3 -13 -7t-5 -12q-68 -37 -114 -95t-46 -126l-12 -31v-39z" />
    <glyph glyph-name="egrave" unicode="&#xe8;" horiz-adv-x="808" 
d="M528 569q20 0 31 27q23 57 -24 101t-107 46t-121 -33q-59 -36 -82 -94l-4 -24q-1 -33 143 -28t164 5zM389 502q-14 0 -43 -8t-47 -5q-18 11 -43 3q-72 -22 -14 -142q27 -84 94 -151q6 -3 15 -9t19 -12t40 -15q29 -9 39 -16q37 -8 73 -3t49 14q13 10 25 19t19 14t21 23
q33 42 60 32q25 -16 18 -44q-6 -28 -22 -42t-16 -27q-43 -63 -121 -100q-2 -2 -5 -10q-3 -9 -13 -9q-9 0 -27 -3t-40 -8t-34 -7q-113 -29 -190 57q-27 0 -58 39h-12q-6 2 -10 13t-14 18q-20 47 -25 51q-1 4 -21 55t-23 73t-5 32q0 10 -5 52t-1 67l12 26q0 107 90 226l27 26
q47 35 82 49q154 41 215 31q4 -2 14 -6t16 -8h21q76 -29 124 -95t56 -147q0 -49 -88 -49q-55 -4 -252 -4zM424 944h-39q-27 8 -37 31q-12 14 -46 48t-48 54h-14q-16 23 -56 55t-57 54q-27 47 8 100q11 14 35 22t37 4q27 -6 49 -53q8 -16 11 -19l15 -20t29 -16q10 -31 44 -80
t44 -73q3 -6 21 -21t22 -31q12 -35 -18 -55z" />
    <glyph glyph-name="eacute" unicode="&#xe9;" horiz-adv-x="808" 
d="M233 584q88 0 150 -23q27 15 84 19t76 8t27 25t1 44q-20 47 -67 75t-94 20q-102 -23 -123 -33q-14 -12 -33 -31q-6 -10 -15 -35t-15 -35t-2 -22q5 -12 11 -12zM448 162q12 0 21 -7q10 -7 14 -8q70 -2 129 58q2 4 16 6t19 6q35 64 84 33q14 -88 -92 -182q-14 0 -36 -20
t-62 -36q-23 -2 -68 -5t-65 -7t-99 12q-16 4 -41 20t-30 19q-29 29 -35 41q-78 78 -103 117q-24 49 -24 83t-7 94t-2 91t12 57t14 39q7 12 11 19v24q31 54 44 74q12 20 46 51t74 43q12 12 13 25q-8 70 41 119q6 6 6 18q6 6 17 25t22 25q10 5 14 8q0 14 12 26q11 12 15 28
t12 23q16 10 43 52l16 6q4 10 31 51l12 6q10 10 21 36q10 26 20 36q29 14 50 6t92 -72q0 -49 -72 -100q-37 -27 -49 -39t-36 -44t-40 -48q-18 -12 -48 -45t-48 -45q0 -14 -6 -21l-15 -6q0 -39 78 -41q79 -2 101 -7t36 -16t23 -14q12 -8 25 -26t16 -21q16 -10 43 -51
q57 -102 14 -150h-78q-12 4 -53 -24q-18 0 -25 -6l-77 12q-78 -4 -234 -4q-55 -20 -46 -79t32 -107q24 -48 31 -54t30 -30t41 -29l6 -12q16 -5 49 -19t45 -14z" />
    <glyph glyph-name="ecircumflex" unicode="&#xea;" horiz-adv-x="808" 
d="M642 1042q16 -22 15 -27q0 -5 -7 -11q-9 -6 -16 -16q-7 -9 -11 -9t-17 14q-12 14 -14 17q-12 10 -18 14t-21 20q-16 16 -36 26q-32 16 -56 47q-24 30 -35 29t-119 -102l-53 -45q-4 -2 -7 -5t-5 -3l-24 16q-7 3 -7 7t-4 12t3 18t22 26q16 16 28 32q12 18 28 36t28 36
q13 18 26 31q12 13 22 29q14 19 48 64q22 29 41 -4q12 -16 25 -33q12 -17 24 -33t37 -53q25 -38 41 -52q16 -13 31 -37q15 -22 31 -44zM449 766q-104 0 -134 -18q-78 -55 -108 -134q-3 -8 7 -16t22 -19q11 -11 40 -12l123 13q7 0 21 -7q23 7 81 7t72 18q49 51 -47 127
q-12 0 -18 6q-25 35 -59 35zM702 186l-6 -32q0 -4 -9 -10t-11 -11q-12 -33 -48 -66t-59 -44h-20q-7 -5 -17 -15t-17 -12t-40 -4t-47 -8h-27q-25 12 -32 12q-121 -8 -217 115q-35 47 -72 165q-6 23 -9 67q-3 45 -9 63t-1 49q6 31 7 41l14 26q0 46 47 140q0 12 12 40
q31 39 74 58q14 0 21 8q94 80 186 72q119 -12 125 -15q57 -25 86 -47q90 -129 92 -133v-20q26 -39 6 -66q-25 -41 -92 -41q-2 -4 -26 -1t-27 3q-121 -14 -166 -12q-61 12 -107 14q-27 -8 -80 -20q-14 -4 -22 -20t-4 -27q0 -39 12 -105q18 -53 60 -94q94 -84 178 -106
q4 0 18 -6t21 -3q90 8 168 86v13q23 27 43 0t8 -47z" />
    <glyph glyph-name="edieresis" unicode="&#xeb;" horiz-adv-x="808" 
d="M360 1096q0 -59 -26 -84q-12 -10 -64 -10t-84 36q-18 20 -18 58t33 65q6 3 22 23t33 20q60 0 82 -24t22 -84zM684 1111q0 -48 -34 -78q-34 -29 -78 -29t-62 21q-20 21 -21 73q0 106 101 104q57 0 84 -31q10 -12 10 -60zM449 766q-104 0 -134 -18q-78 -55 -108 -134
q-3 -8 7 -16t22 -19q11 -11 40 -12l123 13q7 0 21 -7q23 7 81 7t72 18q49 51 -47 127q-12 0 -18 6q-25 35 -59 35zM702 186l-6 -32q0 -4 -9 -10t-11 -11q-12 -33 -48 -66t-59 -44h-20q-7 -5 -17 -15t-17 -12t-40 -4t-47 -8h-27q-25 12 -32 12q-121 -8 -217 115
q-35 47 -72 165q-6 23 -9 67q-3 45 -9 63t-1 49q6 31 7 41l14 26q0 46 47 140q0 12 12 40q31 39 74 58q14 0 21 8q94 80 186 72q119 -12 125 -15q57 -25 86 -47q90 -129 92 -133v-20q26 -39 6 -66q-25 -41 -92 -41q-2 -4 -26 -1t-27 3q-121 -14 -166 -12q-61 12 -107 14
q-27 -8 -80 -20q-14 -4 -22 -20t-4 -27q0 -39 12 -105q18 -53 60 -94q94 -84 178 -106q4 0 18 -6t21 -3q90 8 168 86v13q23 27 43 0t8 -47z" />
    <glyph glyph-name="igrave" unicode="&#xec;" horiz-adv-x="520" 
d="M183 -27h-50q-70 14 -55 50q3 27 41 39q37 12 47 18q12 12 16 38t5 107q1 82 8 127q6 94 -7 271q0 9 -18 27t-25 18l-6 12q-25 8 -63 8q-6 4 -9 16t-10 15q12 0 13 18q4 6 14 8q10 3 16 7t35 2t80 32h21q10 2 40 20t54 13q18 -18 18 -26q8 -61 0 -121l12 -19
q2 -39 0 -141t5 -143q0 -37 -7 -58q0 -31 7 -49q0 -23 -9 -39q-4 -20 1 -63t5 -56q10 -34 51 -37q40 -3 50 -8l6 -14h20q15 -31 14 -38t-9 -11q-44 -29 -98 -33t-122 3t-91 7zM352 904q0 -13 -16 -23q-23 -23 -49 8q-10 8 -35 20q-25 13 -36 25t-37 32t-40 31t-50 31t-54 33
q-51 39 -67 91t30 99q14 14 76 -2q43 -16 69 -69q17 -29 55 -66t52 -55q4 -18 31 -39q2 -4 6 -13t6 -13t8 -5q6 -2 10 -6q5 -12 23 -39t18 -40z" />
    <glyph glyph-name="iacute" unicode="&#xed;" horiz-adv-x="520" 
d="M285 1122q0 10 11 23q11 14 14 27t9 20q16 10 39 47l15 6q3 10 13 25q11 14 15 20l11 6q8 8 17 32t20 32q27 14 45 7t81 -64q0 -48 -63 -93q-35 -24 -45 -34t-32 -39t-36 -43q-16 -12 -43 -41t-43 -41q0 -12 -6 -19l-12 -4q-10 -23 -37 -35q-43 -25 -63 -6q-39 31 36 107
q6 6 7 16q4 5 12 19q19 32 35 32zM49 27q0 31 35 31q34 0 64 16t34 47q2 31 6 94t9 94q0 51 -7 78q0 18 13 68q4 133 -17 209q-4 4 -13 11t-11 9q-76 29 -88 39q4 3 11 17t28 16q22 2 74 26t63 27h18q50 14 66 7t24 -7q6 -43 8 -124t3 -101q2 -20 -4 -39q-6 -20 1 -54
t4 -102q-3 -67 -3 -81q-1 -14 -9 -41q-8 -26 -3 -42t3 -64q-2 -47 1 -63t15 -26t23 -11q49 12 82 -12q27 -27 19 -45q-25 -31 -61 -35t-82 3t-72 3q-12 -6 -33 -6q-20 8 -66 7q-46 0 -58 8q-14 8 -24 2t-16 -4t-15 10t-16 10q-6 2 -6 25z" />
    <glyph glyph-name="icircumflex" unicode="&#xee;" horiz-adv-x="520" 
d="M284 1296q10 0 22 -17q11 -17 30 -42t48 -68q29 -44 46 -59q18 -16 34 -40t30 -46q16 -22 16 -26q0 -5 -2 -7t-7 -5t-14 -13t-13 -10q-3 0 -15 14q-11 14 -19 20q-12 9 -22 19q-29 29 -55 42t-44 36q-18 22 -24 29t-17 6t-118 -101l-54 -45q-4 -2 -7 -5t-5 -3
q-18 13 -24 15q-6 3 -6 7t-6 16q-5 12 18 34q24 22 36 39t31 38q18 21 47 59t46 61q18 23 28 40q10 12 20 12zM49 27q0 31 35 31q34 0 64 16t34 47q2 31 6 94t9 94q0 51 -7 78q0 18 13 68q4 133 -17 209q-4 4 -13 11t-11 9q-76 29 -88 39q4 3 11 17t28 16q22 2 74 26t63 27
h18q50 14 66 7t24 -7q6 -43 8 -124t3 -101q2 -20 -4 -39q-6 -20 1 -54t4 -102q-3 -67 -3 -81q-1 -14 -9 -41q-8 -26 -3 -42t3 -64q-2 -47 1 -63t15 -26t23 -11q49 12 82 -12q27 -27 19 -45q-25 -31 -61 -35t-82 3t-72 3q-12 -6 -33 -6q-20 8 -66 7q-46 0 -58 8q-14 8 -24 2
t-16 -4t-15 10t-16 10q-6 2 -6 25z" />
    <glyph glyph-name="idieresis" unicode="&#xef;" horiz-adv-x="520" 
d="M238 1047q0 -59 -27 -84q-13 -11 -65 -11t-83 37q-18 19 -18 57t33 66q6 4 22 24t33 19q59 0 86 -31q19 -18 19 -77zM561 1062q0 -48 -34 -78t-60 -30q-61 0 -81 22t-19 76q0 102 100 101q57 0 84 -31q10 -12 10 -60zM49 27q0 31 35 31q34 0 64 16t34 47q2 31 6 94t9 94
q0 51 -7 78q0 18 13 68q4 133 -17 209q-4 4 -13 11t-11 9q-76 29 -88 39q4 3 11 17t28 16q22 2 74 26t63 27h18q50 14 66 7t24 -7q6 -43 8 -124t3 -101q2 -20 -4 -39q-6 -20 1 -54t4 -102q-3 -67 -3 -81q-1 -14 -9 -41q-8 -26 -3 -42t3 -64q-2 -47 1 -63t15 -26t23 -11
q49 12 82 -12q27 -27 19 -45q-25 -31 -61 -35t-82 3t-72 3q-12 -6 -33 -6q-20 8 -66 7q-46 0 -58 8q-14 8 -24 2t-16 -4t-15 10t-16 10q-6 2 -6 25z" />
    <glyph glyph-name="eth" unicode="&#xf0;" horiz-adv-x="864" 
d="M262 428q0 -31 -5 -48t1 -50t6 -45q-8 -45 45 -107q0 -41 30 -76q61 -72 122 -67q76 10 114 57q29 43 31 49v15q11 0 18 24t16 64q8 41 18 90q10 48 6 72t-5 39q0 45 -63 153q-6 6 -18 6q0 25 -28 43t-54 19q0 12 -15 12l-30 6q-51 0 -86 -41q-5 -6 -23 -28t-23 -25
q-16 -23 -31 -65q-14 -42 -20 -54t-6 -43zM37 766q-31 0 -43 8q-47 51 -16 76q32 24 86 50t77 40l-51 -33q27 15 60 35q32 20 70 43t56 33q-18 18 -55 35q-37 16 -51 28q-19 37 -190 131q-27 27 -15 45q47 59 191 -18q16 -8 100 -47t129 -78q8 -10 25 -27q18 7 76 47t60 43
q7 21 41 37t42 23q6 16 37 18q30 1 50 -33t-20 -63t-92 -45q-2 -2 -10 -9t-12 -11q-16 -6 -99 -45q0 -6 -6 -15q4 -2 15 -2q16 -20 57 -58t57 -67q16 -8 21 -12v-12q40 -32 77 -102q36 -70 50 -95q14 -45 20 -49q61 -150 45 -297q0 -10 3 -58t-1 -51q-51 -135 -127 -182
l-12 -2q-47 -76 -201 -88q-5 0 -33 -6t-42 -2q-143 31 -230 125v12q-33 18 -57 82q0 2 -6 6q-7 4 -9 13t-12 36t-13 37t0 32t1 34q-16 51 -12 63q12 25 18 39q18 111 94 197q6 6 19 6q16 25 49 39l6 12q22 0 39 25h24q61 27 88 27t51 -4q24 -3 38 9q23 35 -25 82v15l-12 6
q0 6 -7 12t-8 12q-4 4 -13 6t-16 12t-69 70l-29 -14q-27 -10 -67 -43q-47 -39 -72 -49q-25 -9 -41 -26t-24 -23q-8 -7 -26 -21q-17 -14 -48 -14z" />
    <glyph glyph-name="ntilde" unicode="&#xf1;" horiz-adv-x="1026" 
d="M754 1321q14 -1 30 -15t11 -24q-4 -10 -5 -32t-17 -58t-17 -39q-47 -66 -93 -62q-47 5 -57 5h-80l-80 2l-67 2q-37 0 -66 -11t-39 -23t-36 -75q-2 -4 -16 -4t-16 4q-1 4 -3 6q-29 47 -6 104t56 79q13 8 33 15t33 13q12 6 54 6l55 -6l61 -8l93 -4q49 0 98 31q30 14 50 54
t24 40zM346 410q0 -109 -6 -170l6 -134q10 -53 64 -63q47 0 63 -20q14 -11 6 -27t-26 -16h-107q-10 0 -60 8t-80 -5t-138 -1q-16 0 -20 22t7 41q11 12 23 12t38 -6t46 12q20 27 20 64q8 74 11 211q2 137 4 168l-7 31l9 12q-13 63 -29 75t-44 22q-28 11 -42 24q-27 31 8 51
q18 12 74 47t78 55q24 21 55 19t39 -29v-100q14 -41 37 -31q12 4 27 14t18 11q55 63 84 81l6 13q178 115 297 4q31 -34 44 -95t17 -77v-43q-6 -35 6 -109q2 -31 -9 -123t-3 -110t2 -32t-4 -23t3 -53t15 -58q32 -31 80 -31q18 -5 20 -27t-13 -30q-76 -14 -88 -25q-8 12 -38 5
t-35 -5q-5 3 -16 9t-26 6q-18 -6 -55 -7l-21 7q-55 -33 -100 -7q-23 23 0 58q14 12 46 20t48 24q16 15 20 51t-1 67t1 65q24 36 15 98q-10 62 -3 80t2 48t-4 40t1 50q-17 84 -45 114q-29 18 -68 19l-20 12q-4 0 -27 3t-33 -6t-51 -31t-59 -34q-45 -41 -52 -75
q-10 -61 -10 -170z" />
    <glyph glyph-name="ograve" unicode="&#xf2;" 
d="M641 139q83 109 91 177q3 26 6 48t4 33q1 10 -6 44t-8 43t-13 22q-18 74 -64 139q-2 7 -5 17t-7 14q-82 88 -170 72q-8 -2 -41 -6q-32 -4 -62 -24t-42 -40q-90 -135 -97 -213q-16 -242 123 -336l6 -12q6 0 52 -21l6 -12q47 -24 103 -18t93 43zM603 -6q-3 0 -59 -12
t-88 -7q-32 4 -49 2t-31 4q-15 7 -30 11t-59 31q-14 0 -19 12q-33 3 -62 33t-38 36q0 12 -6 19q-135 158 -92 387q12 76 45 106v21l12 6q13 29 53 66t52 49t52 30q40 17 52 23t38 9t39 7t42 4q29 1 53 7t51 -2q16 -10 57 -22t62 -23h24q28 -9 40 -21t24 -21t18 -16
q0 -14 7 -20q14 -6 29 -29t28 -29q10 -9 19 -31t17 -30t7 -39l12 -27q6 -36 8 -102t3 -81t-11 -31t-14 -25v-31q-10 -6 -33 -57q-18 -55 -57 -101q-12 0 -19 -6q-19 -39 -121 -64q-4 0 -18 -10q-13 -10 -21 -13t-11 -8t-6 -5zM623 1030q0 -12 6 -18q23 -10 35 -47t14 -41
q10 -33 -19 -52q-25 -12 -35 -2t-40 36q-31 26 -38 35t-15 10t-28 23q-19 22 -36 38t-41 26q-16 35 -72 71t-65 48q-9 11 -13 23t-7 20t7 22t7 25q12 0 18 6q57 57 96 45q29 -16 49 -57q12 -14 50 -46q38 -31 56 -67q20 -36 58 -98h13z" />
    <glyph glyph-name="oacute" unicode="&#xf3;" 
d="M508 1116q0 10 11 23q11 14 15 27q3 13 9 20q16 10 39 47l14 6q2 8 7 15q5 8 11 16t11 14l10 6q8 8 17 32t20 32q28 14 46 6t81 -64q-1 -27 -15 -47t-49 -45q-35 -24 -45 -34t-32 -40t-35 -43q-16 -13 -43 -41t-43 -40q0 -12 -7 -19l-12 -4q-10 -23 -45 -41t-55 0
q-39 31 37 107q6 6 6 16q4 7 18 29t29 22zM465 731q-96 0 -160 -119l-12 -8q-7 -16 -23 -48t-22 -50t-6 -62q0 -43 -6 -65q-3 -39 20 -116t92 -141q25 -23 48 -33q22 -9 32 -15h21q33 -16 71 -12t60 30q2 2 15 3t16 6t7 15t7 13q88 74 96 158l12 18q1 9 15 70q0 47 -19 94
q-39 176 -151 229q-4 2 -29 16t-34 16q-9 1 -50 1zM409 844q13 0 40 6t36 0q8 0 41 2t40 -1q6 -3 22 -9t22 -11q115 -16 152 -77q80 -48 122 -142t40 -194q10 -96 -33 -170v-21q-37 -74 -70 -106l-6 -25q-43 -39 -63 -45q-43 -27 -58 -31h-18q-68 -43 -115 -49
q-80 -18 -158 0q-69 19 -83 21t-48 32t-59 25q-96 100 -119 154q-2 10 -11 39t-12 42t-2 51t-3 47t-8 20q-3 11 -7 16q0 18 10 57t11 62q4 4 7 15t5 17v19q6 12 32 49t34 57l24 25q86 59 100 66t68 33t67 26z" />
    <glyph glyph-name="ocircumflex" unicode="&#xf4;" 
d="M720 1042q16 -22 15 -27q0 -5 -7 -11q-9 -6 -16 -16q-7 -9 -15 -9q-7 0 -27 31q-12 10 -18 14t-21 20q-16 16 -36 26q-32 16 -56 47q-24 30 -37 29t-117 -102l-53 -45q-4 -2 -7 -5t-6 -3q-20 14 -25 17q-5 2 -5 6t-4 12t3 18t22 26q16 16 28 32q12 18 28 36t28 36
q13 18 39 49t56 77q7 12 19 12t22 -18q12 -16 35 -46t50 -70q26 -41 42 -55q15 -13 31 -37zM465 731q-96 0 -160 -119l-12 -8q-7 -16 -23 -48t-22 -50t-6 -62q0 -43 -6 -65q-3 -39 20 -116t92 -141q25 -23 48 -33q22 -9 32 -15h21q33 -16 71 -12t60 30q2 2 15 3t16 6t7 15
t7 13q88 74 96 158l12 18q1 9 15 70q0 47 -19 94q-39 176 -151 229q-4 2 -29 16t-34 16q-9 1 -50 1zM409 844q13 0 40 6t36 0q8 0 41 2t40 -1q6 -3 22 -9t22 -11q115 -16 152 -77q80 -48 122 -142t40 -194q10 -96 -33 -170v-21q-37 -74 -70 -106l-6 -25q-43 -39 -63 -45
q-43 -27 -58 -31h-18q-68 -43 -115 -49q-80 -18 -158 0q-69 19 -83 21t-48 32t-59 25q-96 100 -119 154q-2 10 -11 39t-12 42t-2 51t-3 47t-8 20q-3 11 -7 16q0 18 10 57t11 62q4 4 7 15t5 17v19q6 12 32 49t34 57l24 25q86 59 100 66t68 33t67 26z" />
    <glyph glyph-name="otilde" unicode="&#xf5;" 
d="M750 1321q14 -1 30 -15t11 -24q-3 -10 -5 -32t-18 -58t-16 -39q-47 -66 -93 -62q-47 5 -57 5h-80l-80 2l-67 2q-37 0 -66 -11t-39 -23t-37 -75q-2 -4 -16 -4t-15 4t-3 6q-29 47 -7 104t57 79q13 8 33 15t33 13q12 6 54 6l55 -6l61 -8l93 -4q49 0 98 31q30 14 50 54t24 40
zM465 731q-96 0 -160 -119l-12 -8q-7 -16 -23 -48t-22 -50t-6 -62q0 -43 -6 -65q-3 -39 20 -116t92 -141q25 -23 48 -33q22 -9 32 -15h21q33 -16 71 -12t60 30q2 2 15 3t16 6t7 15t7 13q88 74 96 158l12 18q1 9 15 70q0 47 -19 94q-39 176 -151 229q-4 2 -29 16t-34 16
q-9 1 -50 1zM409 844q13 0 40 6t36 0q8 0 41 2t40 -1q6 -3 22 -9t22 -11q115 -16 152 -77q80 -48 122 -142t40 -194q10 -96 -33 -170v-21q-37 -74 -70 -106l-6 -25q-43 -39 -63 -45q-43 -27 -58 -31h-18q-68 -43 -115 -49q-80 -18 -158 0q-69 19 -83 21t-48 32t-59 25
q-96 100 -119 154q-2 10 -11 39t-12 42t-2 51t-3 47t-8 20q-3 11 -7 16q0 18 10 57t11 62q4 4 7 15t5 17v19q6 12 32 49t34 57l24 25q86 59 100 66t68 33t67 26z" />
    <glyph glyph-name="odieresis" unicode="&#xf6;" 
d="M455 1104q0 -59 -27 -84q-12 -10 -64 -10t-83 37q-19 20 -19 57t33 65q6 3 22 23t33 20q59 0 82 -24t23 -84zM584 1106q0 106 100 104q57 0 84 -30q10 -13 10 -61t-34 -78q-34 -29 -78 -29t-62 21q-20 21 -20 73zM465 731q-96 0 -160 -119l-12 -8q-7 -16 -23 -48t-22 -50
t-6 -62q0 -43 -6 -65q-3 -39 20 -116t92 -141q25 -23 48 -33q22 -9 32 -15h21q33 -16 71 -12t60 30q2 2 15 3t16 6t7 15t7 13q88 74 96 158l12 18q1 9 15 70q0 47 -19 94q-39 176 -151 229q-4 2 -29 16t-34 16q-9 1 -50 1zM409 844q13 0 40 6t36 0q8 0 41 2t40 -1
q6 -3 22 -9t22 -11q115 -16 152 -77q80 -48 122 -142t40 -194q10 -96 -33 -170v-21q-37 -74 -70 -106l-6 -25q-43 -39 -63 -45q-43 -27 -58 -31h-18q-68 -43 -115 -49q-80 -18 -158 0q-69 19 -83 21t-48 32t-59 25q-96 100 -119 154q-2 10 -11 39t-12 42t-2 51t-3 47t-8 20
q-3 11 -7 16q0 18 10 57t11 62q4 4 7 15t5 17v19q6 12 32 49t34 57l24 25q86 59 100 66t68 33t67 26z" />
    <glyph glyph-name="oslash" unicode="&#xf8;" 
d="M465 731q-96 0 -160 -119l-12 -8q-7 -16 -23 -48t-22 -50t-6 -62q0 -43 -6 -65q-3 -39 25 -133q9 -30 48 -84v-2q8 12 21 33q-2 12 4 32q57 68 91 116t105 216l25 55q11 16 23 28t28 42q-30 17 -56 32t-35 16t-50 1zM721 287l12 18q1 9 15 70q0 47 -19 94q-18 90 -61 152
l-183 -330l-39 -62q-41 -47 -84 -120q10 -10 33 -19q23 -10 33 -16h21q33 -16 71 -12t60 30q2 2 15 3t16 6t7 15t7 13q88 74 96 158zM409 844q13 0 40 6t36 0q8 0 41 2t40 -1q6 -3 22 -9t22 -11q25 -2 64 -14q29 86 59 107q29 16 47 16q68 -20 51 -61q-8 -14 -75 -115
q6 -6 6 -10q80 -48 122 -142t40 -194q10 -96 -33 -170v-21q-37 -74 -70 -106l-6 -25q-43 -39 -63 -45q-43 -27 -58 -31h-18q-68 -43 -115 -49q-80 -18 -158 0q-67 21 -77 21t-21 6l-6 -12q-2 -2 2 -21q-7 -15 -47 -76q0 -20 -29 -34t-50 0q-67 44 42 153q0 12 6 27l13 12
q-14 4 -23 2q-96 100 -119 154q-2 10 -11 39t-12 42t-2 51t-3 47t-8 20q-3 11 -7 16q0 18 10 57t11 62q4 4 7 15t5 17v19q6 12 32 49t34 57l24 25q86 59 100 66t68 33t67 26z" />
    <glyph glyph-name="ugrave" unicode="&#xf9;" horiz-adv-x="970" 
d="M313 718q0 -12 -11 -114t3 -125v-51q-12 -154 19 -240q6 -27 53 -47t59 -30q8 4 29 17t48 16q28 3 93 42q27 22 27 46t12 61q0 14 3 61t-7 84q0 27 12 88q8 78 -4 197q0 6 -18 25q-17 10 -65 15t-62 30q-8 27 24 26q182 8 248 4q69 -7 50 -101q-7 -36 5 -71
q-6 -16 -6 -47t-6 -47q12 -45 -2 -130t-6 -128q6 -14 6 -33q-16 -23 -8 -30q2 -14 -1 -38t-3 -40q0 -33 44 -37q19 -2 37 1t38 -1q2 -17 4 -25t-9 -18t-17 -16t-19 -12q-14 -7 -28 -15q-15 -7 -61 -23t-66 -25t-66 -10q-18 1 -26 19t-9 56q0 38 -21 46q-12 9 -31 -10
q-20 -18 -26 -22q-13 0 -19 -6l-22 -22q-16 -15 -23 -22h-24q-29 -25 -58 -32t-75 -17q-82 -10 -133 33q-46 61 -50 121q-4 61 -6 74q-8 199 17 456q-4 8 -11 41q-6 33 -20 47q-10 5 -34 9q-28 4 -47 20q-19 15 -13 27t39 23t84 6q52 -5 84 -4t51 -13q29 -11 25 -62
q-1 -16 -1 -27zM580 893q-10 -31 -50 -19q-19 8 -75 52q-16 8 -39 32q-22 24 -54 46t-53 45q-23 16 -69 36q-16 0 -25 21q-4 4 -13 6t-12 6q-2 6 -12 16t-16 28q-6 20 3 34t28 48t49 44q35 6 82 -33q42 -41 106 -123t76 -98q0 -14 6 -20q82 -68 68 -121z" />
    <glyph glyph-name="uacute" unicode="&#xfa;" horiz-adv-x="970" 
d="M475 1122q-1 8 11 23q12 14 15 27t9 20q16 10 39 47l14 6q3 13 14 26t15 19l10 6q8 8 18 32q9 24 19 32q27 14 45 7t82 -64q0 -49 -64 -93q-34 -24 -44 -34t-32 -39t-36 -43q-16 -12 -43 -41t-43 -41q0 -12 -6 -19l-13 -4q-10 -23 -36 -35q-43 -25 -64 -6q-39 31 37 107
q6 6 6 16q4 5 12 19q19 32 35 32zM932 96q0 -25 -39 -37q-20 -20 -39 -25t-23 -12q-4 -8 -12 -7t-26 1q-72 -43 -134 -30q-23 0 -29 17t-6 45q-1 28 -8 38q-43 0 -102 -68h-18q-35 -14 -121 -57q-35 -14 -107 14q-88 29 -127 121q-6 14 -2 50t-2 57l6 26q0 86 -6 101
q10 41 7 124t8 130q6 47 -7 137q0 25 -42 33t-52 26q-7 16 9 32t44 20q28 6 41 10q14 4 44 -1t40 -3q11 2 31 -4t33 -7l12 7q2 -2 13 -4t12 -9q0 -131 -21 -170q2 -49 -6 -193t4 -192q0 -59 37 -108q14 -11 19 -19t15 -12t23 -5q11 -1 53 -2q42 0 88 22t62 38q39 51 39 103
l14 270v145q-5 52 -94 64q-31 4 -44 8t-19 22t2 21q33 37 100 18q20 -12 95 -8t89 3t22 -5q7 -4 10 -7t9 -14q5 -12 9 -18t-1 -30t-6 -29q6 -45 -4 -122t-14 -162t-14 -170t8 -140q18 -10 55 -5t53 -1q19 -19 19 -27z" />
    <glyph glyph-name="ucircumflex" unicode="&#xfb;" horiz-adv-x="970" 
d="M715 1031q0 -5 -2 -7t-7 -5q-10 -6 -17 -15t-10 -9q-3 1 -15 15t-24 24t-16 14q-19 24 -52 42t-50 38q-16 21 -22 28t-17 6t-118 -101l-54 -45q-4 -2 -7 -5t-5 -3q-18 13 -24 15q-7 3 -7 7t-6 15t19 35q24 24 36 40q11 16 27 34t32 41q16 24 46 56q49 78 67 78
q9 0 21 -17q12 -18 26 -34t24 -32l25 -38q34 -52 50 -68q16 -15 29 -30q20 -30 36 -52t15 -27zM932 96q0 -25 -39 -37q-20 -20 -39 -25t-23 -12q-4 -8 -12 -7t-26 1q-72 -43 -134 -30q-23 0 -29 17t-6 45q-1 28 -8 38q-43 0 -102 -68h-18q-35 -14 -121 -57q-35 -14 -107 14
q-88 29 -127 121q-6 14 -2 50t-2 57l6 26q0 86 -6 101q10 41 7 124t8 130q6 47 -7 137q0 25 -42 33t-52 26q-7 16 9 32t44 20q28 6 41 10q14 4 44 -1t40 -3q11 2 31 -4t33 -7l12 7q2 -2 13 -4t12 -9q0 -131 -21 -170q2 -49 -6 -193t4 -192q0 -59 37 -108q14 -11 19 -19
t15 -12t23 -5q11 -1 53 -2q42 0 88 22t62 38q39 51 39 103l14 270v145q-5 52 -94 64q-31 4 -44 8t-19 22t2 21q33 37 100 18q20 -12 95 -8t89 3t22 -5q7 -4 10 -7t9 -14q5 -12 9 -18t-1 -30t-6 -29q6 -45 -4 -122t-14 -162t-14 -170t8 -140q18 -10 55 -5t53 -1
q19 -19 19 -27z" />
    <glyph glyph-name="udieresis" unicode="&#xfc;" horiz-adv-x="970" 
d="M418 1128q0 -59 -27 -84q-13 -10 -65 -10t-82 37q-18 20 -18 57t32 66q6 4 22 24t33 19q59 0 86 -31q19 -19 19 -78zM741 1143q1 -47 -33 -77t-61 -30q-61 0 -81 22t-19 75q0 102 100 102q57 0 84 -31q10 -13 10 -61zM932 96q0 -25 -39 -37q-20 -20 -39 -25t-23 -12
q-4 -8 -12 -7t-26 1q-72 -43 -134 -30q-23 0 -29 17t-6 45q-1 28 -8 38q-43 0 -102 -68h-18q-35 -14 -121 -57q-35 -14 -107 14q-88 29 -127 121q-6 14 -2 50t-2 57l6 26q0 86 -6 101q10 41 7 124t8 130q6 47 -7 137q0 25 -42 33t-52 26q-7 16 9 32t44 20q28 6 41 10
q14 4 44 -1t40 -3q11 2 31 -4t33 -7l12 7q2 -2 13 -4t12 -9q0 -131 -21 -170q2 -49 -6 -193t4 -192q0 -59 37 -108q14 -11 19 -19t15 -12t23 -5q11 -1 53 -2q42 0 88 22t62 38q39 51 39 103l14 270v145q-5 52 -94 64q-31 4 -44 8t-19 22t2 21q33 37 100 18q20 -12 95 -8
t89 3t22 -5q7 -4 10 -7t9 -14q5 -12 9 -18t-1 -30t-6 -29q6 -45 -4 -122t-14 -162t-14 -170t8 -140q18 -10 55 -5t53 -1q19 -19 19 -27z" />
    <glyph glyph-name="yacute" unicode="&#xfd;" horiz-adv-x="811" 
d="M383 1143q0 8 11 22t14 27q4 14 10 20q16 10 39 48l14 6q2 10 13 24t16 21l10 6q8 8 17 32t20 31q27 14 45 7t82 -64q0 -27 -14 -47t-50 -45q-35 -25 -45 -35q-9 -10 -31 -39t-36 -43q-16 -12 -43 -41t-43 -41q0 -12 -6 -18l-13 -4q-10 -23 -37 -35q-43 -25 -63 -6
q-39 31 37 106q6 6 6 17q4 6 18 28t29 23zM291 158q0 6 -9 15q-8 9 -10 18t-6 47t-18 57q-14 18 -19 27q-1 24 -23 76t-21 72t-11 34q-12 12 -14 20v33q-6 16 -22 45q-15 29 -21 43q-10 68 -37 96q-55 33 -76 70q-4 11 5 21t25 10t74 5q60 5 78 2t33 -9q13 -6 19 -6h20
q49 16 64 12q25 -12 24 -43q-6 -18 -45 -45q-12 -12 -12 -25q0 -90 61 -196q4 -5 1 -25t3 -35t22 -61q33 -98 48 -107q0 -37 33 -39q24 0 38 44q15 44 24 64t13 32v18q0 6 10 15q9 9 10 26t21 59t23 52l14 6q4 12 7 52t18 60q-51 76 -75 88t-36 15q-12 2 -22 10t-17 8v27
q141 7 331 -21q14 -2 18 -8q18 -35 -52 -69l-8 -13q-10 0 -18 -11t-16 -12t-15 -7q-55 -110 -61 -137q-5 -27 -23 -64q-6 -27 -41 -93t-37 -104q-4 -15 -17 -35t-16 -28v-19q-2 -8 -11 -24t-13 -27q-16 -72 -84 -240q-4 -6 -14 -19t-13 -17l2 -31q0 -8 -4 -18q-4 -9 -20 -53
q-15 -44 -29 -68t-46 -61q-32 -36 -42 -52q-35 -51 -109 -76q-94 -35 -145 21q-12 12 -12 57q-6 18 6 55q10 23 39 19q7 0 17 14q9 14 14 19q12 16 61 6t66 -9q8 5 22 17t23 16v13q2 4 13 12t11 18l14 6q10 29 43 93q33 63 34 73t-4 26t-15 30t-12 18v27l-31 63v25z" />
    <glyph glyph-name="thorn" unicode="&#xfe;" horiz-adv-x="933" 
d="M336 656q0 -26 -7 -108t4 -123q11 -42 5 -67q-15 -63 3 -118t79 -117q37 -26 80 -14t53 12q27 0 70 57q12 18 22 60t23 59q10 29 8 62t2 67t-8 125q-14 35 -25 88q-11 26 -30 52q-19 25 -24 35t-15 12q-9 1 -18 7q-8 7 -26 13t-46 10t-40 8t-59 -26l-20 -21
q-3 -6 -17 -27q-14 -20 -14 -46zM328 -162q0 -106 -6 -164q23 -51 133 -51q19 0 37 -11t18 -43t-12 -42q-43 -25 -152 2q-10 2 -65 2t-86 12q-57 -18 -170 -18q-23 0 -52 33q-6 12 -6 32t3 25q3 6 24 21q20 16 62 8t58 -5t30 19t14 40v240t2 236t14 45q6 33 3 105t5 104
q0 44 -4 60t-1 40t-1 39q0 254 -4 525q0 16 -25 45q-16 16 -88 30q-23 7 -27 25t9 33q39 51 113 37q33 23 80 37t58 19t34 -7q37 -37 12 -113q-10 -52 -1 -76t1 -44t-8 -42t3 -113t3 -141q40 57 90 68q115 18 213 -8q84 -33 170 -133v-15q23 -30 43 -94t27 -82
q-7 -24 -7 -66t-2 -67q-12 -37 -12 -63q-8 -25 -51 -125q-16 -27 -33 -33v-12q-4 -4 -14 -18t-19 -19q-90 -82 -157 -76l-39 -19h-49l-27 15q-14 -2 -59 5q-46 7 -56 -1q-10 -7 -12 -19t-8 -44t-6 -138z" />
    <glyph glyph-name="ydieresis" unicode="&#xff;" horiz-adv-x="811" 
d="M387 1104q0 -59 -27 -84q-12 -10 -64 -10t-83 37q-18 20 -18 57t32 65q6 3 22 23t34 20q57 0 81 -24t23 -84zM711 1119q0 -48 -34 -78q-34 -29 -78 -29t-63 21t-20 73q0 106 100 104q55 0 84 -30q11 -13 11 -61zM291 158q0 6 -9 15q-8 9 -10 18t-6 47t-18 57
q-14 18 -19 27q-1 24 -23 76t-21 72t-11 34q-12 12 -14 20v33q-6 16 -22 45q-15 29 -21 43q-10 68 -37 96q-55 33 -76 70q-4 11 5 21t25 10t74 5q60 5 78 2t33 -9q13 -6 19 -6h20q49 16 64 12q25 -12 24 -43q-6 -18 -45 -45q-12 -12 -12 -25q0 -90 61 -196q4 -5 1 -25t3 -35
t22 -61q33 -98 48 -107q0 -37 33 -39q24 0 38 44q15 44 24 64t13 32v18q0 6 10 15q9 9 10 26t21 59t23 52l14 6q4 12 7 52t18 60q-51 76 -75 88t-36 15q-12 2 -22 10t-17 8v27q141 7 331 -21q14 -2 18 -8q18 -35 -52 -69l-8 -13q-10 0 -18 -11t-16 -12t-15 -7
q-55 -110 -61 -137q-5 -27 -23 -64q-6 -27 -41 -93t-37 -104q-4 -15 -17 -35t-16 -28v-19q-2 -8 -11 -24t-13 -27q-16 -72 -84 -240q-4 -6 -14 -19t-13 -17l2 -31q0 -8 -4 -18q-4 -9 -20 -53q-15 -44 -29 -68t-46 -61q-32 -36 -42 -52q-35 -51 -109 -76q-94 -35 -145 21
q-12 12 -12 57q-6 18 6 55q10 23 39 19q7 0 17 14q9 14 14 19q12 16 61 6t66 -9q8 5 22 17t23 16v13q2 4 13 12t11 18l14 6q10 29 43 93q33 63 34 73t-4 26t-15 30t-12 18v27l-31 63v25z" />
    <glyph glyph-name="dotlessi" unicode="&#x131;" horiz-adv-x="520" 
d="M49 27q0 31 35 31q34 0 64 16t34 47q2 31 6 94t9 94q0 51 -7 78q0 18 13 68q4 133 -17 209q-4 4 -13 11t-11 9q-76 29 -88 39q4 3 11 17t28 16q22 2 74 26t63 27h18q50 14 66 7t24 -7q6 -43 8 -124t3 -101q2 -20 -4 -39q-6 -20 1 -54t4 -102q-3 -67 -3 -81q-1 -14 -9 -41
q-8 -26 -3 -42t3 -64q-2 -47 1 -63t15 -26t23 -11q49 12 82 -12q27 -27 19 -45q-25 -31 -61 -35t-82 3t-72 3q-12 -6 -33 -6q-20 8 -66 7q-46 0 -58 8q-14 8 -24 2t-16 -4t-15 10t-16 10q-6 2 -6 25z" />
    <glyph glyph-name="Lslash" unicode="&#x141;" horiz-adv-x="1366" 
d="M1249 314q-1 6 13 22t29 54t28 52h14q13 -8 13 -30t3 -37q3 -14 0 -45t1 -47v-62q-14 -33 -20 -97t-9 -87q-12 -25 -25 -25q-82 0 -163 -10q-33 0 -209 -16q-20 14 -98 7t-97 -5q-18 2 -41 12t-31 12l-24 -6l-180 8q-140 0 -181 -16q-16 -2 -58 0t-62 -4q-70 -12 -107 18
q-20 23 6 64q0 12 27 26q14 2 49 -2t61 4t52 10q24 2 34 26t0 48v31q-4 16 2 43t5 39q-18 139 -2 227v60q-47 -16 -51 -18t-19 -3q-15 -2 -23 -6q-125 -67 -168 -20q-31 61 7 80q35 12 96 23q90 16 160 38v18q2 35 -7 105q-8 70 -6 104q18 156 11 213q0 4 2 34t-33 50
q-14 6 -45 6q-35 -12 -52 -16q-55 -13 -88 31q-25 45 9 94q25 2 82 0t86 3t92 -2q62 -7 82 -5t40 11t29 13l175 4q40 -1 77 -12q16 -18 11 -49q-9 -59 -117 -42q-45 7 -84 -6q-39 -14 -48 -74t-7 -180t-1 -196q-4 -25 0 -51q44 7 89 24t61 21t25 21q22 11 48 15t38 7
q16 12 36 11q35 -14 43 -43t-23 -52t-112 -28q-4 -2 -13 -6t-11 -7q-27 -2 -107 -20q-6 -12 -28 -21q-18 2 -37 -4q4 -66 -8 -120q-12 -55 2 -83t9 -72t-4 -60t-5 -98q-6 -83 12 -97t92 -14q129 -14 203 4q18 2 56 -4t56 -5h127q2 2 20 6t25 13q0 6 13 18q10 6 37 20t45 29
q14 18 29 54t22 47q20 16 20 23z" />
    <glyph glyph-name="lslash" unicode="&#x142;" horiz-adv-x="516" 
d="M186 1014v45q8 47 -32 71t-95 17q-25 -1 -33 17t9 34q39 18 116 59t127 62t68 -16q18 -18 19 -50q-7 -55 -7 -143t-3 -163t-3 -228q2 1 22 7t27 22q22 11 49 15q27 5 37 7q16 12 37 10q35 -14 43 -43t-21 -51t-114 -29q-2 0 -11 -5t-13 -7q-37 -2 -56 -8v-8
q-6 -100 -12 -154v-51q6 -168 -2 -315q0 -23 37 -39q14 -2 63 3t70 -22q14 -25 -14 -63q-30 2 -132 1t-130 4t-98 -2q-69 -7 -89 5q-8 2 -12 16q-12 40 61 64q50 16 60 23t12 17t11 18q9 10 11 30t-3 49t-5 43q12 141 8 305q-2 0 -49 -24q-46 -24 -79 -15q-32 8 -42 19
q-31 61 7 80q45 14 94 23t67 13l-2 78q0 57 5 87t1 98t-4 94z" />
    <glyph glyph-name="OE" unicode="&#x152;" horiz-adv-x="2248" 
d="M1137 95q0 5 12 14t14 29q4 48 0 61q-43 -55 -102 -111q-26 -13 -43 -27q8 1 18 9t46 7t46 6t9 12zM1063 836l-12 24v37q-2 2 -3 9q-3 18 -16 18q-14 74 -91 181q-5 7 -22 20t-24 22q-80 74 -219 78q-37 0 -115 -37q-98 -61 -160 -144q-31 -55 -39 -94q-6 -14 -16 -46
t-16 -48v-20q-12 -20 -18 -66t-9 -59l6 -21q-20 -41 -2 -82q9 -31 15 -93q6 -61 12 -83t9 -47q9 -73 63 -137q0 -15 24 -39q8 -27 24 -44t54 -43q37 -26 41 -28q33 -33 51 -39q12 0 51 -12t150 16q27 6 71 37q88 80 148 195q27 70 30 83t21 68q18 113 23 164t-11 129
t-20 101zM1171 1063q14 111 -43 139q-8 0 -38 -4t-46 -4q27 -20 48 -43q18 -6 36 -21q0 -12 10 -19t21 -27q12 -20 12 -21zM1810 -8q-80 0 -120 -29q-14 -8 -43 6q-43 34 -113 26q-27 -3 -57 1q-39 0 -183 1t-241 -9q-7 -6 -25 -4t-26 11t-9 17l8 39q-14 0 -43 -12
q-6 -10 -25 -14t-41 -20t-97 -28q-109 -23 -254 11l-19 12q-49 0 -88 33h-31q-86 74 -106 84l-6 12q-10 0 -27 12q0 14 -6 19q-66 63 -123 205v18q-70 153 -57 247q6 44 10 92q4 50 8 79l13 24q0 33 15 72t17 49v25q0 12 27 24q6 6 6 21l12 6q53 100 166 180l39 39
q25 12 37 12q115 49 178 47q8 2 32 16t39 9q15 -4 42 -7t40 -6t75 -11q71 -9 104 -41q-8 55 20 63q18 12 80 4t103 -5q40 3 97 -8q58 -11 81 -14q33 18 151 22t197 -7h39q18 -4 53 -1t53 1q74 -19 103 -15t53 -6t27 -32q33 -115 28 -261q8 -17 -3 -41t-23 -16t-25 21
q-2 8 -8 23t-12 31t-23 34q-6 12 -28 29q-23 17 -27 22q-31 51 -133 104q-186 0 -328 9q-12 0 -24 -13q-7 -16 -11 -45t-9 -40t-4 -41t1 -38q-14 -111 6 -151q-20 -45 -2 -94v-70q12 -39 37 -39q16 0 90 -4t137 14q27 12 27 19q13 37 29 103t23 84q7 20 23 32t36 7t30 -28
t6 -49q-20 -53 -20 -125q-10 -86 -10 -354q0 -23 -16 -38t-29 -15q-50 0 -41 101q2 24 -2 48l-13 25q0 70 -30 84q-23 8 -73 6t-73 6q-10 -12 -51 -4t-52 7t-30 -19q-35 -137 -16 -322q4 -27 0 -78t-2 -73q20 -50 113 -43q54 4 83 -4q20 8 88 4l25 -13q78 25 178 11h88
q43 8 82 36q18 23 33 95l26 39l7 30q35 53 75 37q21 -21 20 -39t3 -88q4 -71 -6 -139q-8 -27 -43 -35t-106 -2q-70 6 -98 -2t-108 -8z" />
    <glyph glyph-name="oe" unicode="&#x153;" horiz-adv-x="1470" 
d="M279 467q10 -56 10 -109t14 -88q-4 -58 9 -76t42 -62t56 -62q122 -67 186 47q12 23 17 40l26 89q51 139 18 225q16 35 -20 129v16q-61 139 -154 144q-49 2 -98 -49q-8 -12 -27 -38t-54 -88t-25 -118zM1208 635q-20 53 -69 100q-33 27 -85 19t-73 -27q-23 -33 -43 -40
q-27 -10 -45 -53l-8 -20q-6 -16 14 -49q12 -17 46 -15q34 3 66 7l48 6q6 2 13 4t13 4q118 10 122 38q1 7 0 13t1 13zM85 265q-15 28 -15 44q-31 186 65 340q66 97 165 155t206 46q2 -4 20 -10t54 -5t110 -28q12 -6 36 -31q24 -26 40 -26t21 -1t19 7t17 11q5 3 17 12t16 14
q16 4 49 24q16 0 23 -2q68 35 148 31t104 -16t58 -26q34 -15 52 -24q10 0 27 -16q8 -26 33 -53q26 -27 32 -37q27 -37 33 -92q-4 -49 -16 -70q-19 -20 -105 -20t-106 -11h-305q-43 0 -21 -86l-6 -16l13 -52q9 -36 14 -57q8 -72 43 -98q66 -47 131 -72q45 -10 84 -4
q113 29 184 109q43 37 64 8q6 -20 7 -28t-16 -48q-18 -61 -82 -102q-8 -3 -27 -17t-27 -18t-26 -15q-20 -11 -28 -11t-28 -7q-20 -6 -32 0q-16 -8 -54 -8t-54 -6q-12 4 -48 10q-36 5 -53 15t-69 40t-82 39q-22 -9 -58 -31t-46 -27t-32 -8t-30 -11q0 -10 -6 -11q-10 2 -34 -8
t-52 8q-8 4 -32 1t-29 -2t-52 1q-33 12 -50 16t-60 21q-17 8 -37 32t-45 38t-56 55q-31 40 -47 57q-4 8 -4 28q0 21 -15 49z" />
    <glyph glyph-name="Scaron" unicode="&#x160;" horiz-adv-x="1052" 
d="M293 1718q8 5 15 15t11 10q5 0 17 -14t14 -17l18 -15t21 -21t36 -25q32 -15 56 -45q24 -31 35 -30t119 101l53 45q4 2 7 5t5 4q19 -14 25 -16q6 -3 6 -7t4 -12t-3 -19q-7 -10 -22 -25q-16 -14 -28 -32t-28 -36t-27 -36t-25 -32t-46 -60t-44 -47q-12 0 -24 18t-29 39
q-18 21 -47 68q-29 46 -46 61q-18 16 -34 40q-16 23 -32 45t-15 28q0 5 8 10zM135 228q0 87 4 132v39q29 86 64 50q20 -117 67 -191q10 -8 22 -35q19 -42 54 -53q74 -66 125 -66q4 -4 15 -7t18 -5q53 -10 128 12t138 105q10 15 23 57t10 56q-20 82 -31 96l-31 31h-12
q-41 49 -127 83q-2 2 -8 12t-21 9q-15 0 -46 5t-83 26q-51 22 -61 26l-33 2q-78 33 -119 82q-10 16 -48 65t-56 107q-2 16 -1 60t-5 61q10 19 23 63q29 97 73 126l8 24q113 90 221 107q27 -2 89 -2q61 -8 145 -39q27 0 33 -21h12q31 -39 62 -19q30 20 53 46q22 26 33 36
t19 5q8 -6 9 -19q23 -137 -2 -227q-2 -6 -5 -16t-7 -15l6 -80q0 -44 -33 -51q-33 -8 -48 8q-14 17 -28 49t-21 41t-19 33t-21 33q-43 57 -76 82q-37 33 -94 47q-92 10 -136 1t-79 -44l-19 -18q-45 -68 -40 -101q0 -51 30 -96q6 -6 36 -35t65 -41l6 -12q16 -4 41 -16t34 -14
t70 -23q39 -27 64 -27q84 -29 106 -57q37 -4 87 -46t65 -51q10 -24 36 -62q53 -78 44 -140l12 -21q4 -30 -7 -65q-10 -36 -12 -46t-5 -18t-9 -17t-8 -18v-24q-49 -74 -89 -110t-192 -89q-43 -18 -145 -18q-34 -10 -54 -2t-44 17t-34 12q-11 3 -35 11t-35 10q-11 1 -37 5
q-25 4 -45 -2t-38 -35q-24 -12 -50 -4t-25 49q0 14 20 45q4 45 4 132z" />
    <glyph glyph-name="scaron" unicode="&#x161;" horiz-adv-x="688" 
d="M142 1222q-16 22 -15 26q0 5 7 11q7 5 16 15t13 10q3 0 15 -14t20 -20t12 -11q5 -4 12 -11q28 -28 56 -43t64 -62q6 -7 19 -6t116 102l53 45q4 2 8 5t5 3q20 -14 25 -17q5 -2 5 -6t5 -14t-18 -34q-24 -25 -36 -41t-27 -34t-29 -36t-26 -33q-12 -14 -29 -39t-39 -55
q-22 -31 -43 5q-11 18 -31 43q-20 24 -47 67q-28 43 -46 60q-17 18 -33 40zM557 846q0 -168 -27 -228q-22 -4 -36 12t-15 38q-27 70 -37 77q-82 51 -133 33q-2 -2 -6 -4t-10 -6t-8 -4q-51 6 -71 -34t-19 -86q-1 -46 37 -73t90 -28l18 -13q23 0 63 -12h31q8 -4 36 -17
q66 -31 97 -67q87 -104 55 -242t-153 -200q-49 -29 -95 -20q-46 10 -96 10t-75 6l-37 18q-39 4 -51 27h-13q-30 30 -30 57q6 29 3 82q-3 54 2 74t20 25t26 1q45 -45 61 -100q0 -41 45 -78q51 -35 107 -38t102 38q4 20 30 62t27 68t-9 42q-11 16 -16 26t-32 36h-18l-43 26
q-25 0 -68 12t-65 15q-22 4 -42 25q-21 20 -33 25t-25 16q-13 12 -19 16q-2 6 -12 18t-15 19q-18 80 -18 84l20 61v27q15 61 58 112q14 18 18 25q22 22 109 51q86 8 157 -26q23 -6 58 8t45 16q12 0 12 -12z" />
    <glyph glyph-name="Ydieresis" unicode="&#x178;" horiz-adv-x="1218" 
d="M578 1538q0 -59 -27 -84q-13 -10 -65 -10t-83 37q-18 20 -18 57t33 66q6 4 22 23t33 20q59 0 86 -31q19 -19 19 -78zM901 1553q0 -47 -34 -77t-60 -30q-61 0 -81 21t-19 75q0 102 100 103q57 0 84 -31q10 -13 10 -61zM419 82q63 0 70 43q10 55 -4 233l-12 21q11 56 6 118
q-4 62 -4 85q0 6 -24 30q-57 90 -71 118t-39 89q-24 61 -44 92q-4 51 -23 87q-20 36 -42 72t-29 50q-12 0 -13 8q-16 36 -63 52q-14 4 -50 10t-47 11t-22 24q0 76 39 75q147 23 215 -10q27 6 80 3q54 -3 106 5t99 -4q33 -8 18 -63q-11 -26 -62 -31q-51 -4 -65 -18
q-6 -10 -6 -64q27 -66 43 -82q8 -12 12 -36t33 -79t47 -120q7 -35 27 -64t53 -12q10 4 22 27q11 23 23 28q-4 18 10 48t20 45t30 51q23 36 32 51q2 12 22 40q19 27 23 36v18q1 5 11 25q27 56 2 84q-14 10 -51 14t-45 6t-41 37q-4 14 -3 20q2 7 10 21t11 22q57 10 168 6
t168 5q113 10 127 10q34 -6 18 -76q-25 -37 -102 -49q-29 -6 -76 -43q-20 -20 -55 -57t-53 -56q-2 -6 -21 -32l-12 -7q0 -12 -6 -18l-13 -6q-41 -86 -45 -94q-45 -51 -71 -101v-18q-4 -14 -20 -40t-19 -42q-4 -51 2 -203t-6 -203q8 -25 2 -87t14 -76q2 -1 10 -7q7 -6 59 -9
t70 -5l27 6q9 0 33 -23t16 -46q-10 -33 -55 -47t-158 -2t-168 2q-23 10 -53 8q-31 -2 -47 0q-31 -6 -95 -6q-24 4 -40 19t-17 32q0 43 33 49h81z" />
    <glyph glyph-name="Zcaron" unicode="&#x17d;" horiz-adv-x="1173" 
d="M408 1723q0 5 2 7t7 6q7 4 14 13q8 10 11 10q4 0 16 -14t20 -20q7 -7 12 -11q6 -4 8 -6l14 -14t34 -25q39 -23 60 -51q21 -27 33 -26q11 1 119 102l53 45q4 2 7 5t5 3q20 -13 25 -16q6 -3 6 -7t5 -13t-18 -35t-35 -42t-28 -33t-28 -35t-31 -39q-19 -22 -36 -48
q-17 -27 -34 -47t-33 4t-35 48t-45 64q-26 41 -45 60q-20 20 -36 44q-15 24 -31 45t-16 26zM158 1207q0 18 10 27t10 17q12 125 78 170q6 -2 12 -2q20 -10 48 -59t56 -50t175 -5t219 -23q41 -6 132 -3t132 -7q54 -69 -26 -144q-4 -2 -10 -20t-21 -25v-18q-3 -4 -15 -19
t-12 -32l-12 -6q0 -12 -10 -24t-35 -50q-8 -20 -43 -55t-45 -75t-35 -59q-6 -6 -6 -26l-12 -6q-4 -25 -26 -67t-28 -58l-12 -6q-77 -149 -168 -289q-59 -111 -84 -164q-16 -51 6 -51q60 -14 132 -11q73 3 89 3q61 -8 158 16q59 27 78 51q18 0 18 6t13 19q27 14 54 50t55 60
q28 22 38 52q10 18 27 18q35 25 55 -6q12 -37 12 -51l-12 -25v-31q-29 -53 -33 -69l-12 -6q-2 -8 -14 -32t-12 -54t-21 -66q-12 0 -19 -6v-12q-70 -12 -212 -6t-212 -9q-24 -4 -66 8t-60 13q-48 -6 -176 -4t-177 0q-4 6 -17 16t-16 15q-2 5 0 20q10 18 42 57t42 64
q4 6 23 20q18 14 23 29q0 29 12 46t30 37t23 38q6 18 31 63t33 68l12 6q9 35 40 82t38 55q4 14 32 57q0 6 7 19q28 38 66 108t56 99q77 159 136 264q3 10 -16 26q-19 15 -39 15l-40 -2l-24 14h-21q-6 -2 -15 -6t-23 -6t-78 -1q-62 1 -80 -3t-43 3q-62 17 -102 -34
q-23 -31 -29 -53t-17 -74q-20 -51 -75 -43q-25 12 -31 27q-12 65 13 121q26 56 26 74z" />
    <glyph glyph-name="zcaron" unicode="&#x17e;" horiz-adv-x="843" 
d="M438 1032q-10 0 -21 18t-25 34q-13 16 -24 32l-25 37q-32 49 -50 66q-17 19 -33 41l-32 44t-15 26q0 5 2 7t7 5q5 4 13 14t13 10q4 0 16 -14t20 -20t12 -11q5 -4 20 -19t46 -33q32 -19 66 -64q6 -7 17 -6t118 101l53 46q4 2 8 5t5 3q17 -14 24 -16q6 -3 6 -7t5 -14
t-18 -34q-24 -25 -36 -41t-27 -34t-29 -36t-26 -31q-12 -14 -22 -31q-26 -30 -47 -66q-11 -12 -21 -12zM772 -3q-16 -3 -16 -13q-20 0 -45 -13q-47 -6 -139 -2t-120 -1q-30 -5 -48 1t-27 4q-19 -12 -77 -7t-77 3h-43l-18 -6q-8 2 -34 3t-36 16q-43 55 45 139q6 6 6 24
q55 100 58 103l12 6q16 25 42 75t42 74q27 55 33 82l12 7q8 14 27 63q18 49 37 70q6 12 16 38q10 27 18 41t-14 41q-34 34 -116 26q-30 -3 -52 -1t-47 -10q-51 -33 -70 -88q-2 -4 -6 -7t-8 -7t-8 -9q-4 -4 -4 -16q-29 -43 -52 -31q-23 23 -9 55q14 31 14 77q-2 46 11 104
q22 95 64 104h13q14 -10 27 -39t22 -37q27 -18 63 -18q46 6 180 3t181 -1h51q78 -16 49 -64q-16 -16 -18 -28t-7 -16q-6 -4 -16 -19q-10 -14 -16 -18q-6 -5 -20 -19t-25 -18q-8 -55 -39 -101q-14 -29 -50 -87t-53 -89q-2 -6 -1 -20t-5 -19l-12 -6q-74 -141 -90 -182l-12 -6
q-3 -14 -23 -40t-16 -42l6 -13q27 -12 119 -9t114 1q2 1 45 19t58 37q12 25 12 39q10 20 33 43q6 9 16 33t16 33q5 9 21 19t31 -6q15 -15 13 -33q-3 -19 -9 -39t-6 -110q0 -89 -23 -93z" />
    <glyph glyph-name="florin" unicode="&#x192;" 
d="M862 792q0 -19 -8 -32q-26 -25 -62 -29t-86 1t-68 4t-32 -21q-24 -41 -50 -120t-48 -125t-26 -80q-5 -34 -16 -52q-11 -20 -13 -31q-10 -63 -45 -110q-10 -31 -12 -42t-19 -31q-16 -20 -19 -34q-12 -64 -63 -166t-57 -119l-7 -26q-59 -94 -172 -164q-73 -17 -111 -25
t-102 -6t-110 25q-76 41 -47 86q6 6 12 19q6 14 10 18t11 6t10 4q24 -47 62 -76t83 -16q111 23 166 110q25 41 60 121q36 80 51 109v20q28 37 30 48q2 12 5 20t4 14q35 66 104 260q10 14 16 23q6 27 26 75q19 48 26 74l10 4q6 18 29 74t16 98q0 33 -70 23h-86q-39 0 -20 59
q4 14 37 27q27 2 81 -1t80 -1l33 16q14 6 23 41q8 35 14 43q33 86 49 103q6 35 38 85t40 68q49 100 131 160q10 0 16 6q62 62 299 29q16 -6 39 -29q74 -36 74 -102q-2 -29 -20 -53t-45 -27q-25 -8 -49 3t-27 36q-20 66 -64 82q-93 17 -139 -31q-45 -51 -88 -166
q-2 -12 -20 -37t-19 -45q-2 -20 -47 -84q-4 -8 -7 -26t-5 -27q0 -20 26 -21q88 -4 113 -2q55 0 55 -37z" />
    <glyph glyph-name="circumflex" unicode="&#x2c6;" horiz-adv-x="573" 
d="M322 1370q10 0 21 -18t25 -34t26 -35q13 -20 37 -55q23 -36 39 -49t30 -36q16 -23 32 -45t15 -26q0 -5 -2 -7t-7 -5q-10 -6 -17 -15t-10 -9t-15 14t-25 26q-13 11 -27 25q-13 15 -43 31t-47 37q-16 21 -22 28t-17 6t-118 -101l-54 -45q-4 -2 -7 -5t-5 -3q-18 13 -24 15
q-7 3 -7 7t-6 16t19 33q25 22 37 40t27 34q15 18 39 50t37 47t25 33t23 32t21 14z" />
    <glyph glyph-name="caron" unicode="&#x2c7;" horiz-adv-x="573" 
d="M306 1032q-10 0 -22 18q-11 18 -32 45q-21 26 -47 65q-25 40 -44 59t-35 41t-30 44q-16 22 -16 26q0 5 2 7t7 5q5 4 13 14t16 10q7 0 27 -31q11 -10 17 -14t21 -19t46 -33q32 -19 66 -64q6 -7 17 -6t118 101l53 46q4 2 7 5t6 3q17 -14 24 -16q6 -3 6 -7t5 -13t-18 -35
q-23 -25 -35 -41t-28 -34l-28 -36t-26 -31t-23 -29q-9 -16 -23 -34t-24 -34q-10 -12 -20 -12z" />
    <glyph glyph-name="breve" unicode="&#x2d8;" horiz-adv-x="669" 
d="M582 1331q0 -55 -10 -91t-40 -79q-16 -27 -62 -57t-74 -35q-28 -6 -66 -6t-92 16q-18 6 -70 47q-45 32 -57 52t-25 84v73h2q2 -2 4 -2h43q2 -10 2 -45q-1 -35 13 -51q14 -15 50 -25t68 -22q70 -28 152 6q53 24 79 62t27 73q0 2 28 2t28 -2z" />
    <glyph glyph-name="dotaccent" unicode="&#x2d9;" horiz-adv-x="372" 
d="M303 1177q0 -46 -41 -83q-12 -10 -64 -10t-83 36q-19 20 -19 58t33 65q6 3 22 23t33 20q59 0 86 -31q33 -32 33 -78z" />
    <glyph glyph-name="ring" unicode="&#x2da;" horiz-adv-x="538" 
d="M184 1231q0 -43 33 -83t79 -40t80 44t34 85t-37 78q-41 49 -77 49t-74 -45t-38 -88zM485 1226q0 -64 -6 -79q-23 -41 -41 -56t-50 -25t-56 -22t-52 -12q-72 0 -115 52q-11 13 -35 38t-30 38t-1 38q5 24 5 44t12 42t20 50q9 27 32 46q22 19 52 29t65 10q35 -1 93 -25
t74 -40t31 -60q2 -4 2 -68z" />
    <glyph glyph-name="ogonek" unicode="&#x2db;" horiz-adv-x="550" 
d="M261 -340q-24 0 -65 22q-77 40 -77 136q0 27 14 73q31 76 36 82q5 7 25 27t27 30q9 10 29 27q20 18 31 29l49 43q16 12 26 3t0 -23q-32 -33 -66 -82t-46 -83t-13 -85q0 -100 113 -103q23 0 49 22q25 22 33 27q8 4 24 -3t20 -16q5 -9 -9 -32q-33 -41 -46 -49t-52 -15
q-39 -6 -59 -18t-43 -12z" />
    <glyph glyph-name="tilde" unicode="&#x2dc;" horiz-adv-x="665" 
d="M446 1120h-79l-80 2l-68 2q-37 0 -65 -11t-39 -23q-10 -12 -37 -74q-2 -4 -16 -4t-16 4q-1 4 -3 6q-29 47 -11 93t37 68q18 22 48 33q31 11 43 17t53 6l55 -6l62 -8l92 -4q49 0 98 30q30 14 50 54t24 41q14 0 30 -14t11 -25q-4 -10 -5 -32q0 -23 -16 -59q-33 -79 -84 -98
q-14 -4 -44 -1t-40 3z" />
    <glyph glyph-name="hungarumlaut" unicode="&#x2dd;" horiz-adv-x="815" 
d="M451 1290q0 -20 -15 -33q-18 -10 -38 -32t-58 -36t-67 -43q-28 -29 -53 -34q-25 -6 -40 -16l-57 -33q-2 -2 -12 -2h-27q-12 16 -12 30t39 45q39 32 58 51l34 34q12 12 38 22t39 37q13 26 25 38t29 32q17 19 22 17q18 -9 38 -9t38 -24t19 -44zM754 1290q0 -20 -15 -33
q-18 -10 -37 -32t-49 -32q-50 -18 -77 -47t-52 -34q-26 -6 -41 -16l-57 -33q-2 -2 -12 -2h-27q-12 16 -12 30t39 45q39 32 71 64q33 33 59 43t39 36q13 27 25 39t29 32q17 19 23 17q20 -9 24 -9q34 0 52 -24t18 -44z" />
    <glyph glyph-name="Delta" unicode="&#x394;" horiz-adv-x="4046" 
d="M2808 100q0 -12 37 -12q98 0 159 46t43 118q-8 26 -44 52q-37 26 -71 36t-122 20t-129 31q-66 29 -93 103q-28 74 -8 151q23 133 152 189q35 11 156 -8q25 -3 47 20q8 14 8 27q0 40 -53 69q-18 10 -32 18t-38 17q-23 8 -37 13q-15 5 -35 12t-28 10q-174 70 -370 19
q-91 -23 -158 -89t-81 -160q0 -26 69 2q9 4 34 13q74 14 176 -64q102 -115 76 -265t-152 -228q-26 -20 -52 -12t-42 24q-51 55 -94 63q-10 0 -18 -19t-9 -32q100 -172 -24 -252q-147 -98 -228 13q-33 47 -51 127q0 12 16 54t11 69t-27 28q-20 -4 -80 -41t-96 -22
q-90 51 -139 176q-51 102 -12 227q40 125 151 191q31 12 62 15t75 -27q44 -29 89 -58t56 -21q11 7 21 27q-31 114 -107 190t-184 76q-25 0 -39 13q-131 41 -258 8t-221 -135q-27 -35 -38 -72t11 -53q27 -15 91 -21t95 -21q33 -15 55 -65t13 -96q0 -74 -54 -137t-136 -103
q-29 -10 -44 -50t-5 -77q35 -72 112 -102q18 -6 41 4t30 17t32 30q14 29 -19 67t-32 60q8 47 47 49t65 -37q6 -11 20 -35q48 -78 32 -104q-14 -125 -203 -176q-52 -22 -136 11q-24 9 -64 27q-39 18 -69 28q-30 12 -66 60t-56 62q-46 59 -64 129t-24 86q-23 94 12 164
q0 25 24 103q31 63 121 171t121 171q-131 37 -254 -27q-106 -65 -221 -170l-75 -69q-50 -46 -70 -64q-88 -88 -113 -152q-8 -20 -14 -58t-13 -56q-39 -121 64 -201q47 -18 114 25q33 36 28 110t9 117q21 30 43 22q82 -29 108 -73q16 -26 15 -82l-2 -94q8 -10 1 -32t-9 -31
q-5 -25 -36 -60t-44 -54q-65 -49 -143 -39t-135 76q-154 223 -89 418q0 33 52 139q35 102 110 182q76 79 205 173q240 178 506 213l51 -25q170 100 404 39q334 -68 481 -278q18 18 81 85t146 130q41 20 134 23t170 24t159 10q82 -10 108 -13q25 -2 113 -22t138 -29t139 -45
q23 -14 63 -11t64 -1q49 -22 122 -94t105 -96q143 -92 190 -201q12 -25 58 -94t55 -135v-177q31 -135 -60 -233t-231 -70q-117 39 -176 140q-29 84 4 176t109 139q47 18 90 -24t24 -89q-12 -16 -38 -49t-37 -53q-10 -39 8 -72t55 -42t84 8t68 55q26 68 4 178t-67 184
q-44 74 -128 182q-12 13 -44 25t-44 27q-81 100 -189 153t-216 35q41 -137 127 -240q29 -45 38 -96t13 -115t13 -123q9 -58 -23 -167q-33 -109 -41 -144l-52 -12q-43 -47 -124 -100q-78 -63 -203 -15q-141 86 -127 179q0 27 -37 100q-8 35 21 48q30 13 55 3q88 -92 88 -203z
" />
    <glyph glyph-name="Omega" unicode="&#x3a9;" horiz-adv-x="1120" 
d="M535 1223q-33 0 -58 -31q-12 0 -18 -6l-6 -12q-27 -16 -39 -64q-2 -8 -10 -39t-10 -39q-1 -8 -5 -39t4 -41v-32l-2 -49q0 -42 33 -52q80 -8 242 4q33 6 51 64q0 61 12 188q-31 90 -143 148h-51zM1069 1352q19 0 68 12q14 8 44 13t31 5q45 6 140 -32q6 -4 8 -18t4 -15
q33 -25 43 -76q4 -16 -7 -42t-11 -40q-12 0 -21 -6q-8 -21 -36 -25t-46 7q-106 74 -176 108h-57q-20 -6 -64 -31l-31 -30v-13q-12 -6 -18 -12q-33 -60 -35 -106t-6 -58l6 -14q-29 -102 6 -139l25 -13q16 2 57 -3t73 5t67 -16q16 -25 5 -53t-38 -47q-18 2 -56 -4t-57 -2
q-100 37 -108 -31q-4 -18 -1 -53t1 -54v-45l-9 -18l7 -12q-6 -12 -7 -33q12 -15 6 -67t-6 -72q6 -25 4 -81t0 -77q12 -25 27 -37v-12q29 -47 65 -37t47 6t39 -13t31 -28v-45q-8 -8 -25 -12q-18 -4 -22 -6t-26 3t-35 -3q-25 -6 -70 5t-69 9q-41 -10 -76 6l-12 -6q-10 8 -34 3
t-55 5l-18 18q-14 30 -5 40t34 30t27 40q3 22 6 64t5 56t12 133q9 119 -1 131q-6 29 -5 81t-6 78t-40 35t-91 9t-90 6q-51 0 -64 -13t-32 -55v-45q0 -29 3 -169t-11 -248q0 -49 6 -76q10 -23 48 -35t49 -19q10 -7 12 -32t-17 -35q-6 -4 -46 -1q-39 3 -55 1t-60 1t-66 1
q-18 -6 -49 -6q-14 6 -45 6q-25 -12 -39 -6q-20 2 -34 19q-13 17 3 32q2 4 4 19t8 14q68 0 97 37q18 43 6 100q0 70 2 76q14 27 8 95t-2 95q8 16 8 43l-6 27q6 12 6 76l-6 18l6 19q0 2 -5 28t-13 35l-19 6q-27 -14 -102 -10q-18 0 -19 24q-11 21 6 42q3 5 12 9t15 9
q6 4 16 7t17 5q6 2 16 5q49 15 66 67q0 43 25 108q0 36 12 58t14 30v19q3 22 24 42q21 18 27 26t6 20q39 49 84 82q49 29 77 35t59 14t47 12q111 10 190 -26q8 -2 107 -58q8 -3 19 10q11 12 28 14q16 3 22 7l6 12q12 0 24 12t60 33q2 1 5 7t22 6z" />
    <glyph glyph-name="pi" unicode="&#x3c0;" horiz-adv-x="1513" 
d="M754 856l4 -104q0 -43 4 -62q14 -33 33 -33q29 7 57 15t56 42q30 34 30 79l-12 57q-8 29 -20 39q-17 14 -33 33q-15 19 -51 24q-36 6 -58 -18q-4 -8 -4 -15l4 -4q-10 -51 -10 -53zM535 383q0 17 10 25t49 18t39 33q12 37 9 175t-1 171q4 10 4 24q-6 12 -3 45t-11 46
q-8 12 -56 32q-14 0 -25 12t-7 31q46 27 115 24t87 -1l21 8q66 4 160 -18q41 -12 57 -31q51 -61 61 -84q17 -67 5 -122q-2 -9 -3 -18q-2 -9 -12 -34t-35 -39v-10q-50 -50 -83 -58t-66 -7t-43 0t-20 5t-25 0q-18 -49 0 -118q0 -4 -3 -25t7 -33q12 -10 38 -11t38 -7
q18 -14 0 -47q-10 -10 -58 -11q-4 -2 -11 -4t-13 -4h-66q-24 2 -68 0t-65 0q-26 15 -26 33zM1350 584l14 106q0 30 -14 62q2 35 -11 96q-23 49 -28 82q-10 10 -34 29t-28 24q-35 74 -44 85t-64 42q-31 33 -78 55q-23 23 -70 35q-57 41 -67 44t-39 3t-39 6q-30 1 -53 11
t-25 10q-52 -8 -82 -14t-61 -12q-31 -5 -39 -7q-63 -33 -78 -35q-39 -33 -59 -57q-57 -23 -84 -51q-6 -4 -28 -16t-34 -27q-14 -12 -26 -44t-15 -36l-37 -74q-20 -57 -20 -72q-25 -47 -21 -84q-6 -10 -26 -73q14 -81 16 -86q-4 -53 12 -86q2 -14 45 -78q5 -16 21 -45t20 -41
q39 -35 50 -53q8 -8 30 -32t35 -30q12 -20 68 -51q53 -37 67 -39q35 -27 70 -45q20 -2 88 2q32 -14 96 -14t74 2t39 8t43 8q25 12 67 55q10 2 44 7t55 22q10 4 25 32t25 37t38 17q27 8 37 14q4 10 12 41t17 44t23 38q13 25 21 39q2 10 14 30t17 36q4 14 10 42t11 38zM78 712
v46q0 2 5 35t13 49q0 22 18 58t30 63q11 27 18 38l92 121q12 12 44 37t48 51q16 27 28 36q12 10 48 14q35 4 41 6q37 37 72 41q27 20 67 24q46 13 68 17t86 -11q4 1 42 9t54 6t44 -12q39 -13 95 -21q56 -9 90 -53q19 -3 31 -15l25 -25q12 -13 14 -18q72 -25 84 -30
q7 -14 33 -44t44 -63q28 -52 62 -86q7 -16 12 -48q5 -31 7 -39t20 -33q29 -39 29 -91v-29q10 -67 10 -69q-10 -63 -8 -92q-6 -20 -12 -82q-6 -18 -12 -54t-18 -52q-14 -17 -30 -31t-20 -19q-2 -10 -5 -36t-10 -42q-12 -14 -41 -32t-37 -28t-20 -33q-11 -24 -23 -34
q-12 -11 -46 -31t-64 -32q-29 -12 -39 -18t-35 -22q-25 -17 -41 -26q-53 -12 -67 -20q-18 0 -52 -11t-41 -14q-58 12 -65 15q-25 -4 -55 9q-29 13 -37 15q-70 -10 -85 -6t-41 18t-56 28t-56 32q-10 4 -40 7t-42 9q-41 41 -57 62q-17 13 -27 40t-14 33q-10 7 -36 23t-38 31
q-4 9 -18 33t-31 56t-31 56q-8 49 -24 88q0 37 -8 84l6 64q2 18 2 48z" />
    <glyph glyph-name="endash" unicode="&#x2013;" horiz-adv-x="2045" 
d="M231 397q-2 0 -54 -4t-52 4q-6 -4 -10 -4q-49 23 -60 33q-20 32 11 56t65 24q242 -6 268 -4q41 16 60 9t20 -9q47 0 103 10l16 -6q20 6 56 4t80 4t52 6q10 -6 31 -6q59 14 129 4h43q8 -2 23 4q16 2 49 -5t53 -5t100 2l23 -4q20 8 86 8q172 14 358 -4q37 16 113 16
q57 14 123 -2q71 -12 63 -75q-8 -41 -36 -50q-20 2 -45 -5t-64 8q-25 4 -65 -2t-75 -1q-34 6 -53 0q-27 0 -36 5q-16 0 -30 -4t-54 2q-39 6 -62 0q-27 0 -37 4q-23 0 -35 -3t-72 1q-62 4 -75 -7q-33 20 -71 8t-86 -10q-46 2 -59 -1t-40 3t-39 5q-29 -10 -79 -10t-72 -11h-21
q-16 5 -26 12h-93l-43 13q-141 -14 -299 -15l-39 2h-43z" />
    </font>
</defs>
</svg>
