<?xml version="1.0" standalone="no"?>
<!DOCTYPE svg PUBLIC "-//W3C//DTD SVG 1.1//EN" "http://www.w3.org/Graphics/SVG/1.1/DTD/svg11.dtd" >
<svg xmlns="http://www.w3.org/2000/svg">
<metadata>
Created by FontPrep 20130207 at Tue Dec  9 01:49:32 2014
 By Alexander Gunnarson
Copr.1991 Letterror, Just van Rossum
</metadata>
<defs>
<font id="5c9721f055e9f8cd555deee5f6c5abe8" horiz-adv-x='1024' >
  <font-face 
    font-family="Miniscule"
    font-weight="700"
    font-stretch="normal"
    units-per-em="2048"
    panose-1="2 0 8 6 5 0 0 2 0 4"
    ascent="1638"
    descent="-410"
    x-height="928"
    cap-height="926"
    bbox="-304.8 -625 2318 1498.54"
    underline-thickness="40"
    underline-position="-254"
    unicode-range="U+0006-2122"
  />
<missing-glyph horiz-adv-x="364" 
 />
    <glyph glyph-name=".notdef" horiz-adv-x="364" 
 />
    <glyph glyph-name=".null" horiz-adv-x="0" 
 />
    <glyph glyph-name="nonmarkingreturn" horiz-adv-x="681" 
 />
    <glyph glyph-name="uni0006" horiz-adv-x="0" 
 />
    <glyph glyph-name="space" unicode=" " horiz-adv-x="364" 
 />
    <glyph glyph-name="exclam" unicode="!" horiz-adv-x="555" 
d="M267 -31q-79 0 -107 33q-18 16 -33 102q-12 48 43 93q39 43 100 30q38 8 80 -22l19 -12q18 -23 26 -66l4 -39q10 -45 -30 -92v2q-23 -29 -102 -29zM403 999v2l3 -2h-3zM186 1044q6 0 7 3zM266 1057q22 0 96 -17q27 -9 41 -41q10 -41 11 -59l-23 -162l-6 -67
q-4 -47 -8 -162v-51q-1 -39 -15 -67q-14 -29 -30 -35t-48 -7q-30 0 -71 14v-2q-16 6 -23 21v-2q-21 34 -18 78l2 51q2 18 -3 107t-5 112l-14 227q0 22 39 50q1 1 27 7t48 5z" />
    <glyph glyph-name="quotedbl" unicode="&#x22;" horiz-adv-x="684" 
d="M424 1264q0 -4 -2 -7zM451 1288h2q12 0 57 6t78 -6q4 2 14 -11t12 -31t-16 -89q-18 -73 -19 -107t-18 -135l-10 -69q0 -14 -25 -23h4q-41 -16 -63 0h2q-11 9 -27 15t-20 20l2 -2q-8 46 2 108t10 86t-15 98q-15 75 4 107q18 33 26 33zM115 1057q0 47 -3 107t4 85t27 41
q33 10 86 -6q37 -6 45 -6t16 -6t7 -12q-1 -66 -25 -161t-32 -212l-4 -41q2 -10 -4 -20t-15 -9l-24 -2q-29 -2 -54 2q-31 14 -26 43l2 78v119z" />
    <glyph glyph-name="numbersign" unicode="#" horiz-adv-x="1259" 
d="M561 262l25 -2q81 -15 131 16q18 12 24 25q45 166 66 346q0 41 -41 55q-63 14 -139 -2l-33 -10l2 2q-31 -5 -34 -16q-3 -10 -1 -21q-47 -264 -57 -354l31 -47q20 -20 26 4v4zM555 1249q45 0 98 -4q6 0 15 -14q-6 -79 -29 -193t-27 -138q-9 -54 41 -58q75 -4 158 8
q57 -5 49 39q27 172 66 334q2 16 22 26l19 8q39 14 75 -4q33 -16 27 -26q-6 -61 -43 -219l-22 -115q-18 -18 22 -49q33 -11 103 -6q71 4 87 2t29 -17q10 -37 3 -83t-11 -46q-43 -2 -121 6t-110 0l-31 -30l-12 -15q-61 -178 -70 -356q23 -37 47 -40t91 2t81 5q21 0 31 -35
q14 -63 0 -108l2 2q-3 -17 -94 -19l-136 5q-27 10 -52 -17t-33 -109q-7 -81 -14 -107t-22 -96q-15 -71 -32 -97q-6 -14 -50 -38t-75 -7q-27 10 -24 25t21 94t18 101q1 22 21 88t17 115q-4 3 -12 13t-14 16t-9 10q-33 6 -63 3t-74 -3q-31 8 -53 -22l-12 -19v2
q-23 -39 -28 -98t-15 -100q-4 -133 -29 -193q-4 -8 -37 -24q-66 -14 -100 -6q-10 0 -17 9t13 86q20 76 22 117t16 92t23 99q2 23 -12 40t-29 17l6 2q-8 2 -72 -5t-104 5l2 -2q-16 6 -20 27v-6l-4 16q-28 75 -7 113q6 10 41 9q34 -1 100 -5t111 6q20 18 33 41q63 215 72 340
q0 29 -11 41q-30 33 -124 10q-47 -12 -76 -4q-35 16 -39 41q-16 43 -2 90q4 23 24 19h78q91 -5 173 18q20 6 25 36t26 148q20 139 30 172q23 35 33 35zM260 102q-6 0 -10 -4z" />
    <glyph glyph-name="dollar" unicode="$" horiz-adv-x="1032" 
d="M522 994q0 52 -4 77q6 34 -21 32q-11 -1 -17 -1t-1 -4q-31 27 -69 6q-61 -44 -71 -93q-5 -24 -7 -30l-6 -31q-4 -20 10 -51t35 -45q-4 2 -1 -5t11 -15q17 -25 29 -31t16 -10l-4 2q31 -27 49 -9q39 0 39 35l6 66q6 55 6 107zM584 502v-4q-14 -137 -4 -291q-2 -20 24 -45h2
q31 -18 62 10t57 66q35 70 42 108t-12 79q-19 42 -59 75l-16 14q-39 31 -57 27q-19 -11 -27 -17t-12 -22zM461 -25v5q-25 16 -99 16h-18q-73 0 -139 31l-35 12l-16 4q-13 27 -37 59q4 82 35 125q4 4 32 13l23 8l-2 -2q2 0 26 -21q31 -21 83 -39t89 -18h3q40 -20 59 -10
l-2 -2q14 8 25 14t13 15q1 9 2 81t1 130t-4 145q9 21 -15 39v-2q-18 22 -59 34l-29 9q-29 23 -67 31q-79 16 -148 85q-35 35 -53 88q0 2 -1 2t-1 2q-25 74 -8 127l9 27q7 19 15 53t27 76q6 12 72 74h-2l39 37q41 41 188 57q33 -2 41 33l-2 -2q0 3 7 19t3 44t0 39q6 3 11 15
t12 18h6q23 -8 55 2q-8 -4 -4 -16l-2 2q6 -16 -2 -31q-6 -33 2 -57l12 -21q14 -18 29 -25q68 -23 121 -19t129 -32l22 -14q18 -37 17 -49q-10 -66 -33 -99q-29 -29 -44 -27t-33 10q-18 9 -30 13q-36 3 -68 17t-54 14h-13q-20 6 -42 -4t-15 -35l-6 -96q-6 -68 -6 -128t2 -85
q4 -4 4 -2q8 -23 32 -29l29 -12l-4 4q4 -2 17 -8q12 -6 26 -14q14 -7 52 -19t46 -18l35 -23q40 -28 82 -61q2 0 21 -33q9 -25 28 -41q35 -41 27 -98q-4 -88 -16 -149q-13 -61 -49 -106t-109 -96q-20 -17 -78 -43l-31 -12q-33 -12 -59 -12q-15 6 -35 -6t-27 -23
q-10 -18 -10 -65q0 -46 -4 -56t-16 -22l-51 6l4 22q8 63 -2 101q-4 14 -31 24h-2zM492 -172v-6q-6 -10 -14 -7q-7 3 -3 9z" />
    <glyph glyph-name="percent" unicode="%" horiz-adv-x="1701" 
d="M1491 184v-6q16 33 22 86l7 47q8 34 8 51v29l-6 117q0 23 -15 67v11q-2 6 -2 8q-7 50 -47 61q-4 0 -8 4q-11 18 -35 13h-8q-25 12 -66 -2q-37 -4 -63 -50t-30 -74t-10 -48q-7 -20 -7 -82l-2 -27q-2 -18 4 -100l2 -23l8 -47l8 -33q8 -63 58 -75q33 0 63 -11q37 -6 66 15
q31 27 42 47t11 22zM283 1140q-23 -30 -25 -32q-39 -66 -38 -96t-2 -70q-3 -41 3 -59l-2 2q4 -23 4 -62v-57q-8 -31 13 -90q16 -53 61 -53q14 -4 31 -13l18 -10q20 -8 72 10q6 0 10 4q18 2 29 33q8 17 22 23t25 59l6 25q4 20 8 61l4 45q4 31 0 90l-2 31q0 18 -12 86l-10 25
l-19 38l-4 -22q2 29 -16 45l-25 16q-20 14 -45 7q-17 10 -37 2t-33 -9q-13 1 -36 -29zM1653 205q0 -16 -27 -62q-10 -7 -14 -18l-10 -19q-19 -33 -50 -51q-9 -9 -34 -24q-10 -10 -43 -31h2q-10 -8 -62 -16l-26 -9q-49 -10 -80 13q-18 8 -50 17t-38 13q-49 45 -56 60l-22 33
l-41 77q-31 61 -27 107l2 45q4 62 3 82t7 55t9 55q4 12 16 50t21 55l12 25q13 31 29 43t36 32t50 39h-3q35 18 79 10t102 11q8 1 26 -9t41 -11t72 -38q11 -10 29 -39l16 -20q6 -12 12 -45t25 -57q25 -43 21 -120t3 -134q2 -8 -14 -56t-16 -63zM571 -2l-82 -4q-4 0 -12 8
t-8 16q8 34 59 125q35 39 127 226l27 55q47 84 63 123q35 94 97 172q23 35 49 92t57 111t48 90q16 35 28 53t23 45q10 27 16 38t21 46t36 57q29 23 57 38t59 6t36 -19q-8 -23 -45 -76q-43 -70 -57 -109t-42 -93q-30 -54 -49 -107q-19 -52 -86 -152v2q-16 -23 -61 -105
t-66 -120v2q-47 -88 -65 -138t-84 -161l-15 -24q-4 -6 -61 -115l-41 -74q-5 -15 -29 -8zM66 909l2 21v45q-2 29 6 55q8 14 17 52t20 51h-2q18 18 43 51l26 33q26 30 58 53q54 39 159 30l27 -2l33 -6q14 -8 39 -12q14 -6 31 -19t44 -28q4 -2 27 -33l18 -33q29 -47 35 -84
q0 -27 15 -61q20 -66 7 -147t-17 -111t-7 -47l-14 -29q0 -2 -23 -51l-12 -29q-19 -34 -35 -47l-35 -26q-50 -30 -76 -37q-26 -6 -38 -11l-27 -6q-59 -10 -94 6q-6 7 -36 19q-31 12 -53 26t-63 56h2q-37 41 -40 74t-29 104l-8 35q-8 51 0 108z" />
    <glyph glyph-name="ampersand" unicode="&#x26;" horiz-adv-x="1341" 
d="M287 362v-2l-2 -4zM324 414h4q-26 -19 -39 -43q-31 -45 -16 -105t42 -78l31 -18q4 -8 30 -17t84 11t103 41l21 10l-2 -2q30 6 36 10t2 11q-6 8 -30 26t-47 41q-33 41 -77 65t-73 48q-44 18 -69 0zM377 594q12 -19 47 -7t74 29l59 31q16 25 43 51q49 55 31 84l4 -6
q-10 37 -53 71q-44 34 -60 31q-16 -4 -55 -6t-63 -19t-42 -65q-44 -128 15 -194zM1139 168q0 -8 2 -14q-6 -57 -74 -148q-10 -12 -23 -12h-10q-40 -2 -66 7t-48 14t-27 10q-35 8 -76 30l2 -2l-20 13q-63 39 -84 45h-8q-45 27 -101 -29q-16 -16 -51 -28t-66 -34
q-91 -46 -139 -28q-27 10 -47 12q-63 4 -100 55q-27 35 -41 68l-27 51q-16 33 -20 45l-13 41q0 34 -1 60t17 52t30 62t14 38q2 3 2 7l-2 -2q0 4 36 30q36 27 40 47q2 20 -12 37t-18 33q-3 16 -15 54q4 20 8 68t13 62q10 15 20 48t22 68q20 37 63 61q73 53 201 36
q52 -7 64 -6t58 -45t73 -52h-4q16 -12 41 -54q24 -42 28 -88t-16 -69q-8 -39 -62 -109v2q-20 -20 -34 -49l-11 -6q-2 -7 -37 -25t-49 -30t-16 -32t27 -38q20 -16 44 -40t40 -38q33 -29 63 8l27 15q14 6 34 35t25 45l10 20q3 4 19 13t18 12q26 6 68 47q47 35 58 33
q-12 0 11 -50q4 -47 -36 -170v-2q-4 -12 -17 0q-51 30 -76 -39l-14 -24q-8 -23 -12 -29l-15 -27q3 -2 19 -12q16 -11 46 -31t62 -30v2q30 -10 94 7t87 13q2 -6 2 -14zM988 574q1 0 1 -1z" />
    <glyph glyph-name="quotesingle" unicode="'" horiz-adv-x="413" 
d="M299 1288q34 0 32 -55q-1 -31 -22 -113l-12 -59q-8 -57 -13 -105t-22 -100l2 2q-18 -41 -22 -41q-49 -10 -99 0q-12 12 -24 51h2q-10 36 -4 98t4 93l-4 39q-12 111 -8 166q-1 14 32 24h2q45 10 85 10t71 -10z" />
    <glyph glyph-name="parenleft" unicode="(" horiz-adv-x="618" 
d="M317 184q-1 -137 17 -186t29 -95t23 -79t58 -78q27 -33 33 -41l88 -72l-24 -43q-39 -59 -54 -69l-10 -4l-63 32h2l-49 27v-2q-63 41 -115 133q-51 106 -82 201q-37 133 -31 282q2 50 -2 138t-2 132t2 120t5 168t53 229q14 43 63 125l18 33q14 29 58 74t57 63v-2
q25 29 80 61h-2q7 7 23 15t20 12q0 -4 6 -4h2q43 -37 68 -103q2 -6 12 -2l-106 -98l-33 -47q-64 -79 -96 -195h2l-15 -39q-14 -45 -22 -157l-4 -51q-17 -177 -9 -422v-56zM565 -367l4 -4q-4 0 -4 4zM600 1249l27 27q0 -15 -27 -27z" />
    <glyph glyph-name="parenright" unicode=")" horiz-adv-x="618" 
d="M313 314q-1 48 7 96t-1 127q-4 76 -4 90v2q4 147 -18 256q-4 24 -37 106l-24 60l2 -2q-20 78 -76 120l-31 17q-41 28 -61 51q-6 14 -2 12q0 -4 4 0q45 74 71 101q2 0 15 6q42 0 104 -58l35 -34q74 -70 88 -103l29 -55q45 -88 54 -139t21 -170l13 -113q4 -39 0 -137
t-2 -131q2 -34 2 -104t-10 -177q-16 -96 -54 -215h4l-10 -18q-10 -35 -61 -144l-15 -26q-35 -61 -118 -140q-26 -20 -42 -30q-25 -15 -67 -47q0 2 -4 6q-49 41 -72 100v12l-2 7q16 16 40 32q89 60 136 178l9 23q26 75 58 141t23 199q-4 53 -4 101z" />
    <glyph glyph-name="asterisk" unicode="*" horiz-adv-x="659" 
d="M444 1008h-2l2 -2v2zM618 1036l-12 -20l-2 -2q-55 -16 -160 -6l-10 16l-14 14v2l10 21h-4q18 12 51 45t74 51q33 0 35 -6q27 -57 32 -115zM541 799v6l2 4zM223 748h-2q-18 12 -45 22q-41 23 -55 37q-6 2 -10 10t-2 14q49 59 122 97q12 2 22 7t30 -5l16 -27
q-9 -25 -25 -61t-18 -43l-25 -64q0 5 -8 13zM229 1054q0 -16 17 -30l-4 2l-17 -16l-67 -6q-25 0 -99 8q-4 0 -4 16q-8 56 31 121q13 8 13 10q57 -31 102 -65q12 -16 30 -25q-2 1 -2 -15zM338 1104h-2q-20 16 -41 20h-2q-44 69 -37 142q5 14 23 22h4q53 14 110 2q18 0 19 -24
q-6 -82 -43 -150l-11 -18q-12 6 -20 6zM545 822v-5l-4 -12q-41 -55 -95 -66q-6 -4 -24 28t-41 122q-11 16 -8 26l8 5q16 4 29 16l6 2q31 -20 67 -53q37 -33 64 -56q-2 -3 -2 -7zM99 1159h-1h1zM358 1098v-2l2 2h-2z" />
    <glyph glyph-name="plus" unicode="+" horiz-adv-x="1079" 
d="M23 559q0 -2 -3 -4zM1069 448q0 -23 -10 -18q-123 -4 -173 -4t-114 6t-108 -6q-33 -18 -33 -56v-134q0 -139 -8 -205q-4 -25 -29 -33v2q-41 -12 -105 -6q-28 17 -28 18l-2 60q-2 24 -2 66t9 108t4 113t-20 62t-103 9q-89 -6 -119 -4t-86 -5q-126 -16 -126 30q-13 66 2 97
q14 30 31 34q22 4 93 0t100 0q76 0 112 -3t60 -4q16 -8 41 27l8 8q10 28 10 92t7 98t3 87t-1 79q6 55 102 48l39 -2q7 0 20 -39q4 -23 4 -78t-11 -157t-11 -105q-8 -25 11 -44q18 -19 36 -19t101 5q83 6 89 7l53 -2q82 0 116 -4t44 -21l6 -6q8 -14 -2 -46t-10 -55z" />
    <glyph glyph-name="comma" unicode="," horiz-adv-x="397" 
d="M140 -4q-34 0 -38 6v-4l-14 33q-23 29 -29 73t39 89q29 33 103 32q31 0 65 -17t47 -40q27 -54 31 -114q6 -88 -37 -158q-12 -46 -57 -92t-96 -78l-13 -11q-10 -5 -26 17l-15 22l11 45q6 0 10 2h4q31 19 36 37t17 31q18 29 25 47v2q16 39 -15 64h2q-16 14 -50 14z" />
    <glyph glyph-name="hyphen" unicode="-" horiz-adv-x="684" 
d="M473 600q35 0 90 -10t62 -35q12 -49 12 -69t-10 -56q-14 -25 -64 -29q-43 -8 -103 -8t-108 8q-14 0 -100 -11t-127 -3q-41 29 -45 43q-8 41 -8 70q0 87 53 100q31 6 71 6t83 -6l71 -6l35 2q53 4 88 4z" />
    <glyph glyph-name="period" unicode="." horiz-adv-x="397" 
d="M100 197v2q31 39 99 30q49 6 102 -30q29 -13 25 -91q-8 -149 -131 -137q-82 8 -116 42t-26 81q4 54 47 103z" />
    <glyph glyph-name="slash" unicode="/" horiz-adv-x="954" 
d="M797 1288q116 13 141 6q12 -6 16 -26q-12 -35 -40 -70t-58 -86q-8 -23 -55 -94l-35 -53q-49 -80 -66 -113l-20 -37q-14 -20 -33 -63l-24 -43q-23 -43 -38 -62t-51 -80t-47 -71v2q-49 -57 -77 -118t-84 -153l-23 -37q-47 -82 -102 -151q-12 -25 -43 -33l-29 -4
q-67 -11 -98 0q-14 8 -15 25q14 31 48 79t40 68l60 92t37 62l16 30q45 94 76 128t69 112l21 41l109 188q50 88 90 133t88 156l18 29q42 88 62 116t47 27z" />
    <glyph glyph-name="zero" unicode="0" horiz-adv-x="1110" 
d="M782 332q20 53 20 96q0 44 -9 150q-10 106 -41 139q-59 59 -111 74q-88 23 -129 10q-79 -10 -113 -64v2q-68 -89 -81 -165t-1 -117h-2q4 -16 2 -79t13 -110q29 -72 78 -110q86 -57 143 -47t111 45h-3l33 20q16 11 24 19q7 8 11 12t10 16t12 23q5 10 10 24t9 21zM1026 538
q0 -170 -47 -307q-12 -45 -61 -102l-33 -39q-47 -68 -117 -82q-162 -35 -209 -35q-133 -4 -237 35q-68 37 -123 92q-68 78 -84 172l-15 88l-10 68q-4 37 8 92l4 23q-8 -29 -2 0q12 51 15 86t19 61q62 108 95 146q68 63 127 82q92 25 236 34q90 10 201 -37q74 -33 131 -118
q63 -113 84 -154q18 -51 18 -105z" />
    <glyph glyph-name="one" unicode="1" horiz-adv-x="817" 
d="M625 582q-1 -106 -7 -160t2 -110t5 -83q-2 -27 -2 -99v-90q0 -17 -19 -39t-87 -21q-69 0 -115 27q-15 10 -15 101q0 92 10 148t11 205v106q-4 72 -2 107q23 35 -44 59q-31 -2 -122 -31v3q-72 -23 -86 -23q-31 8 -31 10l-2 25q-19 111 26 119l3 2q20 8 89 19q94 15 142 36
l-2 -2q16 4 100 40t117 36q25 -8 45 -37q8 -20 -7 -82t-11 -100t4 -64l-2 -78v-24z" />
    <glyph glyph-name="two" unicode="2" horiz-adv-x="1110" 
d="M236 696q-10 0 -21 4l-10 21q-29 53 -28 82t22 61q10 12 61 27t117 28q67 13 82 17h-6l18 4q94 27 131 27h12q100 -4 150 -27q8 -4 19 -8t19 -7t11 -3v2q41 -12 72 -37q20 -25 43 -41q22 -16 44 -54t23 -77l6 -39q12 -47 5 -70q-25 -64 -40 -78q-14 -14 -34 -46t-43 -54
q-66 -53 -129 -82q-31 -10 -80 -37q-33 -23 -54 -29t-32 -10v2q-55 -18 -86 -32q-29 -2 -28 -34t32 -46q47 -10 84 -10t98 8l47 8q101 8 149 8t78 -3t38 -24l-2 3q16 -52 -19 -146q-4 -10 -2 -10q-74 -4 -115 -4l-190 6h-88l-86 -2q-64 -4 -98 0t-104 0q-126 -7 -126 26
q-8 53 -8 84l6 74q0 10 7 23q8 12 16 14l41 18q147 80 159 89l-2 -3l74 37q88 41 116 66q29 24 67 46t58 42t36 29q18 9 21 21l5 20v75l-2 -4q6 29 -16 80q-4 0 -4 -2q-20 25 -35 29l-25 10q-25 14 -38 16t-40 13q-27 6 -47 2l-22 -4q-63 -11 -90 -15t-69 -25t-54 -23
t-38 -19t-36 -17h-20z" />
    <glyph glyph-name="three" unicode="3" horiz-adv-x="1110" 
d="M991 20q0 -36 -8 -94l-6 -53q-4 -31 -12 -63l2 2q-12 -29 -62 -64l-24 -18q-41 -29 -62 -49q-14 -7 -61 -47t-123 -46q-11 0 -59 -15t-80 -10t-110 12q-79 7 -128 34q-18 8 -58 12t-48 12q-7 13 -19 25q-14 10 -10 23q25 115 47 129q7 4 16 -3l31 -16q47 -31 90 -33h9
q16 0 36 -8q68 -14 101 -14h18q116 0 195 43q43 21 79 63q29 27 37 70t-16 133q-10 29 -55 96l-6 11q-16 29 -68 36q-20 4 -25 9q-31 33 -118 32q-33 -4 -74 0q-20 -2 -27 23q-12 47 0 115l10 4q25 4 35 14q19 5 64 2l22 -2q86 -4 117 31q8 8 37 22q37 25 49 41q13 25 19 45
t18 50t1 58t-11 42q6 37 -39 63v-2q-33 23 -97 47h-4l-4 2h6q-27 12 -92 4l-32 -4q-30 -4 -60 -6t-59 -15t-41 -26q-37 -27 -51 -30l-19 20q-55 51 -59 98q4 18 23 42q20 24 108 38q55 13 91 27t81 18t77 11q33 7 103 2q31 -7 40 -11t51 -11t83 -48t47 -45v-2l33 -33
q37 -51 38 -83t7 -72q15 -100 -119 -234q-23 -18 -59 -36t-56 -40q-20 -21 -16 -31t17 -20q58 -39 104 -51t72 -51l10 -13h-2q55 -61 55 -162z" />
    <glyph glyph-name="four" unicode="4" horiz-adv-x="1110" 
d="M637 302q0 63 10 112t10 123l-2 69v17l-6 -15q-3 -8 -23 -6t-30 21l2 20q-24 -39 -58 -82q-35 -43 -57 -76t-73 -94q-50 -61 -115 -158q-33 -2 -14 -30q10 -16 38 -33q74 -8 105 -8l168 14q29 0 39 8t4 35q2 20 2 83zM836 -283q0 -106 -5 -106l-34 -4q-45 -10 -76 -10
t-57 10q-10 10 -24 15t-17 1l8 158q4 61 8 168q14 33 -43 61q-6 0 -14 4h4q-73 20 -191 11q-31 -6 -61 -7l-74 -6q-47 -6 -91 -6t-71 6q-12 6 -18 21l2 -2q-6 21 -3 51t1 60t24 55q37 53 68 90q54 72 84 116t55 74q35 51 59 83t58 89h-2q46 70 76 114t116 140l19 19
q11 12 21 20l10 8l-6 -2l73 13q33 0 94 -15q29 -3 29 -119q0 -55 -4 -145l-2 -29q-12 -133 -8 -186t1 -113t-3 -121q-6 -23 12 -42t36 -24t52 -1q32 4 56 4t44 -39t-2 -78q-2 -2 -13 -20t-13 -19q-26 -2 -56 1t-69 3l14 -10q-10 2 -37 -11t-28 -26q-4 -61 -4 -98l2 -70v-86z
M903 8l6 -2q-4 2 -6 2z" />
    <glyph glyph-name="five" unicode="5" horiz-adv-x="1110" 
d="M202 936h72q72 0 142 -8t142 -2q73 6 122 6q48 0 100 3q130 8 140 -24q8 -63 -6 -107t-19 -42q-74 -8 -211 -8h-33q-55 0 -86 2l-71 2q-31 0 -84 -4q-41 -10 -54 -37q-33 -92 -24 -211q8 -61 53 -45l37 12q29 15 43 12l133 -4l35 2q61 4 101 -11t102 -54t90 -91
q29 -52 32 -78t11 -64t4 -88t-8 -158q-4 -33 -47 -121l-17 -27q-16 -33 -95 -105t-142 -79l-195 -21q-27 -4 -70 -4t-75 -1t-91 18q-33 16 -52 16t-19 -3v-5q-20 35 -25 59q-4 66 23 111q10 10 61 33h-2q16 5 41 -7l41 -16q14 0 58 -11q43 -11 67 -8t74 9q35 0 89 10t103 59
q6 6 22 48t27 59q10 18 15 74l4 28v4q9 30 -5 68q-14 37 -16 45t-41 51q-20 17 -28 29t-42 28t-86 11q-52 -4 -83 -2q-94 12 -178 -13l-31 -12q-27 -16 -64 -16q-37 24 -47 39q-11 35 5 117t16 165l12 236q0 105 5 118t25 13z" />
    <glyph glyph-name="six" unicode="6" horiz-adv-x="1110" 
d="M625 649q-45 0 -65 6t-116 -18h7l-2 -2h-5q-8 -4 -53 -29l-20 -14q-23 -14 -27 -45l-4 -21q-25 -45 4 -106q12 -27 18 -88l9 -19q18 -66 47 -84l10 -8q49 -49 80 -50t49 -9q84 -23 135 7q52 31 66 57t25 37t30 59t6 110q-6 53 -24 84l-7 25q-8 33 -17 37t-15 4
q-12 7 -56 36q-31 31 -75 31zM881 1124h-4q-39 -6 -73 -6t-91 4q-104 0 -172 -35l-25 -12l2 2q-61 -35 -80 -65q8 8 -3 -20q-21 -52 -29 -72t-25 -49q-18 -30 -23 -87q-2 -20 18 -38t41 -5q22 12 60 45q63 29 75 28t46 3q41 12 68 4l61 -12q72 -16 86 -21q70 -33 107 -69
l75 -76q13 -16 17 -56t10 -59q23 -41 16 -112l-6 -35q-4 -61 -12 -80l-14 -37q-16 -45 -30 -61t-46 -53q-33 -37 -39 -50q-41 -51 -60 -59v2l-131 -41q-63 -26 -140 -20t-132 26q-125 61 -145 82q-55 49 -101 129q-18 37 -39 96h2q-6 10 -16 47q-25 59 -29 168q0 135 21 222
l6 28q37 143 70 195l22 35h-2q66 111 119 151q98 71 150 99t113 33q60 5 82 7q21 2 61 2t84 11q44 10 96 -13q7 -6 20 -32q4 -20 -22 -82l-19 -37q0 -9 -7 -17t-13 -8z" />
    <glyph glyph-name="seven" unicode="7" horiz-adv-x="1110" 
d="M1032 909l-4 -45q0 -6 -6 -24v-4q-14 -27 -14 -54q-10 -43 -56 -127l-20 -34q-6 -13 -37 -69t-65 -132t-66 -136q-43 -78 -82 -169q14 35 -4 -2q-31 -59 -31 -62q-39 -63 -56 -113t-45 -94q-28 -46 -46 -110t-72 -150q-6 -12 -43 -8q-96 16 -131 49q-21 40 -18 49
q14 80 68 167t89 169l45 90q25 37 37 72t41 96q29 62 45 86v-2q8 12 40 80q31 68 69 132q38 63 59 130l-2 -2q4 10 -5 37t-30 25q-66 0 -142 -8t-108 -4t-120 6q-88 0 -136 6q-16 4 -24 22l-4 27q-8 70 4 94q17 17 47 37q27 8 99 0t110 -2t114 6l187 -4h88l63 2q71 4 125 -4
q37 -10 37 -23z" />
    <glyph glyph-name="eight" unicode="8" horiz-adv-x="1110" 
d="M694 807q14 20 48 55t24 82q0 4 5 33t2 48t-23 35t-23 23q-12 27 -55 45l2 -2l-21 13q-29 18 -94 10q-12 -5 -24 -7t-55 -16q-44 -14 -58 -39q-65 -65 -57 -104l10 -37l-2 2q8 -37 18 -55q27 -31 41 -41l27 -18l16 -17q79 -63 119 -52q18 5 36 2t38 11t26 29zM489 152h-6
q163 -40 252 41v-3q23 18 45 62l11 22q20 31 14 58l-21 84l2 -2q-16 57 -55 69h4q-10 4 -36 21t-59 34q-32 17 -46 27q-16 31 -45 2h-4q-82 -12 -129 -63q-14 -14 -27 -25v2q-27 -22 -37 -51l-10 -24q-10 -49 -14 -78t24 -88q16 -23 39 -41l21 -15l69 -30q4 -2 8 -2zM274 31
l5 -2h4q9 -12 -9 2zM651 1298q41 0 49 -4l41 -14q61 -14 88 -31q73 -55 83 -69t16 -22q49 -73 60 -106q11 -32 3 -80t-22 -76q-15 -28 -21 -56t-61 -70q-2 0 -41 -22h2q-43 -23 -66 -52q0 -4 -4 -14t-4 -27q31 -33 81 -51t71 -37l16 -16q41 -37 43 -47l10 -33h-2
q2 -10 4 -32t25 -62q6 -12 0 -49t-5 -73t-36 -81q-8 -16 -51 -49l-49 -43q-31 -33 -90 -60t-99 -26q-98 -25 -128 -24t-109 20l-95 18q-54 8 -78 22t-42 29h2q-23 23 -56 41q-43 35 -55 78q0 6 -10 35l2 -2q-14 41 -11 63t-1 51q-4 30 2 56l16 39q14 36 18 56t39 50l25 23
q6 6 31 16q25 9 41 23t41 23q26 9 38 23t10 16q-2 3 -1 5l6 13q-19 24 -78 63q-41 18 -55 35q-12 20 -28 38t-32 42l-16 57l-16 70q0 31 12 61t26 70q14 39 41 65q135 116 234 125h10q86 6 111 4q24 -2 65 -2z" />
    <glyph glyph-name="nine" unicode="9" horiz-adv-x="1110" 
d="M813 516l-2 2q-20 61 -27 90l-16 35l4 -2q-14 45 -43 64l-31 22q-51 33 -63 37l2 -2q-35 16 -111 20q-18 2 -65 -26l2 2l-35 -17l2 2q-43 -12 -70 -94q-6 -33 -18 -46t-7 -41q6 -27 -3 -52q-8 -43 16 -90v2l12 -23q8 -35 27 -43l2 -8q51 -36 88 -58t109 -18h12
q66 4 104 23l25 12q4 2 23 7t29 23q9 19 25 37t12 36t0 48q5 30 -3 58zM186 -408q0 8 -2 15v2l-2 2q-6 63 31 153q2 12 27 19q38 6 82 -1t71 -1q45 4 99 6t86 27l36 18q74 39 91 74l16 35q33 61 47 114l-2 -2l14 37q14 47 13 70q-10 47 -50 39q-17 -3 -37 -21t-36 -21
t-47 -23t-37 -21l-37 -4q-49 -8 -57 -5q-27 12 -83 22t-77 19l-27 15q-61 37 -72 47l-22 24q-18 16 -45 60q-35 68 -45 94l-2 2v4q-16 47 -10 115v35q4 57 20 84q9 25 19 57t22 49q37 61 68 78q24 18 50 44q26 25 52 45t70 26q46 6 88 18v-2q66 23 84 16q126 -18 260 -106
l26 -14h-2q41 -29 76 -93l23 -34q35 -51 57 -139t14 -194q-8 -108 -16 -182t-57 -225l-7 -14q-25 -80 -147 -207q-31 -39 -111 -74q-6 -2 -18 -9t-23 -11q-90 -45 -172 -45h-32l-232 -17h-35z" />
    <glyph glyph-name="colon" unicode=":" horiz-adv-x="397" 
d="M307 715q-28 -28 -104 -15q-76 8 -107 30t-20 83q0 6 8 42t29 67v-2q27 29 92 28q68 6 110 -33q33 -37 33 -90q-4 -78 -41 -110zM186 -18l-22 2q-51 4 -76 20q-18 18 -20 58t-5 49q-12 59 31 82v2q51 35 105 36q49 6 106 -38q15 -12 23 -39t4 -50l-4 -22q-12 -68 -35 -82
q-47 -33 -107 -18z" />
    <glyph glyph-name="semicolon" unicode=";" horiz-adv-x="397" 
d="M68 90q0 80 26 105q47 49 107 34q49 -16 104 -67q85 -85 4 -271q-8 -20 -47 -67l-20 -29q-16 -29 -80 -65q-12 0 -25 -13q-6 7 -21 17q-14 10 -20 16t11 24t33 26q16 9 30 34l16 27q23 37 24 70q0 33 -16 46t-53 17t-53 22t-20 66v8zM109 918h-3q23 12 82 20l31 6
q61 8 98 -24q33 -37 21 -84h2l-10 -45q-12 -59 -19 -64l-2 -4q-35 -29 -98 -23l-33 7q-55 10 -80 24q-33 37 -24 92q6 75 35 95z" />
    <glyph glyph-name="less" unicode="&#x3c;" horiz-adv-x="845" 
d="M250 469v2l4 -2h-4zM782 862q0 -27 -10 -33q-76 -57 -166 -94q-37 -19 -90 -41t-94 -52t-76 -44q-69 -39 -102 -68q-33 -45 6 -61q31 -23 80 -50t68 -41t36 -20q17 -8 84 -49h-2q68 -52 133 -77q66 -25 119 -62q18 -18 16 -29q-31 -88 -57 -112h-25q-66 23 -110 55
t-104 60t-92 52t-59 44q-28 18 -41 27t-81 36q-95 45 -107 59q-43 46 -53 74q-10 72 -2 99t43 75q47 49 166 105l33 16q53 27 115 65t88 50q28 12 94 57t103 59t36 13q12 -23 32 -53t19 -43v-17z" />
    <glyph glyph-name="equal" unicode="=" horiz-adv-x="966" 
d="M717 403h41q20 -1 70 3t88 -12q71 -30 47 -105q0 -41 -15 -41h-4q-66 -12 -184 -8q-51 10 -158 10h-24l-181 -8q-20 2 -83 2q-64 0 -90 3t-92 -1t-90 -2q-23 2 -35 37q-13 35 5 86q6 18 39 28v-2q39 12 89 8t88 -1t108 -7l63 -4l56 -2q96 -4 138 6t124 10zM491 750
q41 0 85 4t106 0t94 1t61 5q30 0 95 -8q18 -6 43 -37q16 -41 4 -78l-14 -25q-7 -10 -13 -10h-2q-86 -8 -122 -8t-64 3q-29 3 -117 -1l-57 -2l-184 8l-187 -8h-69q-68 -4 -95 4l-30 14q-1 2 -9 24t-2 48l9 42t14 19q57 7 152 7t133 3t83 -1t86 -4z" />
    <glyph glyph-name="greater" unicode="&#x3e;" horiz-adv-x="845" 
d="M129 967q2 2 17 2t89 -44t83 -48t27 -17q19 -12 46 -24t39 -21q74 -35 114 -63t109 -65q70 -38 109 -64q16 -14 43 -68h-2q6 -29 -4 -65q-9 -36 -9 -56t-30 -49q-121 -92 -197 -123q-41 -20 -99 -59t-87 -53q-29 -15 -103 -62q-78 -57 -114 -72v2q-12 -2 -26 6t-21 17
q-27 27 -33 64q-6 36 2 51q63 55 149 90l31 14q6 4 62 28t118 68q57 35 99 57t59 33q25 8 32 35t-16 49q-29 22 -92 48q-64 26 -74 36t-80 48t-78 42q-10 4 -20 11q-10 6 -17 9t-142 91l-27 21q-10 2 -10 36q23 63 53 95z" />
    <glyph glyph-name="question" unicode="?" horiz-adv-x="761" 
d="M324 -27l-33 2q-63 10 -76 23q-41 50 -31 110t39 89h2q23 29 99 32q66 14 104 -28q20 -16 31 -103q4 -72 -35 -90l-12 -8l4 4q-68 -35 -92 -31zM434 410q8 -17 -3 -23t-30 -25v3q-31 -27 -37 -28q-42 -8 -49 -3q-47 28 -65 64t-25 73l-4 39q-4 29 7 40t18 23
q28 55 116 87t111 65q53 73 12 116q-18 19 -65 44q-48 25 -108 19t-101 -27l-23 -13q-54 -32 -74 -29q-19 3 -22 9q-8 18 -12 26q-31 57 -27 93v4q2 2 4 11t21 23q51 41 98 43t76 13q96 16 174 6l45 -6q45 -2 98 -43l19 -15l2 -2q53 -43 65 -77l13 -41q16 -49 15 -57
t-17 -58l2 2q4 8 2 2l-13 -33q-10 -31 -41 -53q-4 -6 -19 -16t-51 -40t-44 -34h2l-29 -19l10 2q-6 0 -10 -2h-4q-49 -29 -59 -59l41 -6v-6q2 -113 -13 -88l-6 12v-16z" />
    <glyph glyph-name="at" unicode="@" horiz-adv-x="1673" 
d="M729 383l-31 -16h2q-37 -18 -45 -45l-10 -31q0 -4 -3 -11t-5 -14l2 2q-6 -25 16 -65l7 -8l12 -17q18 -27 40 -37t72 -10q25 2 99 47q39 18 61 51q16 18 16 38t8 33q7 12 8 58t-26 58t-67 -2l2 2q-35 -8 -67 -3t-93 -30h2zM145 1052q1 24 11 36q10 14 24 40l-2 -6
q47 51 156 80q38 10 114 36t134 28l75 8q185 18 233 17t114 -27t90 -31l57 -8q118 -14 154 -58q16 -20 34 -47v2q27 -45 58 -73q53 -39 110 -123q17 -23 31 -75t39 -103l12 -27q43 -93 45 -137t-9 -107t-11 -105t4 -85l6 -74q0 -33 -10 -68q-84 -205 -152 -284
q-111 -131 -239 -185t-312 -77q-55 -2 -117 5t-73 7h-53q-80 -4 -125 10q-166 59 -243 103q-146 84 -189 182q-59 127 -52 299q18 184 47 282h-2q25 70 123 193l33 37v-2q45 51 127 96l70 41q53 37 145 49q45 0 49 7t13 12q61 20 79 20l160 8q27 0 82 -12t71 -14t58 -45
l33 -31q14 -14 29 -72l4 -22q10 -43 4 -88l-2 -50l2 -82q0 -80 -7 -138t-7 -135t-5 -108q-4 -31 4 -73t9 -58v-6q0 -23 -7 -24v2q-37 -10 -67 -10t-68 10l-30 16l-17 4v56l-8 -15q2 5 -23 25t-40 11t-41 -36v2q-33 -27 -62 -43t-127 -39q-37 -8 -123 25q-87 33 -121 81
q-61 85 -36 234q21 81 92 126q10 7 46 34t74 33t181 37q12 2 57 -4t72 4v-2q16 6 36 25t19 38q0 56 -8 72q-9 42 -27 64t-73 28q-17 14 -59 18t-87 -12t-85 -19t-111 -46l-27 -13q-94 -51 -135 -88q-76 -68 -97 -145q0 -4 -4 -14l-2 -15q-91 -268 -12 -407q20 -41 58 -86
t71 -64q141 -71 203 -84q172 -47 301 -33l24 2q160 18 246 54t146 118q125 190 127 332q0 52 -4 84t0 89q9 127 -56 358q-45 129 -178 239h2q-94 82 -299 105q-53 8 -197 -21l-86 -16q-68 -12 -137 -36t-87 -28t-64 -38q-47 -34 -76 -39h-10q-53 -4 -64 14l-4 6l4 -4
q-33 49 -33 73z" />
    <glyph glyph-name="A" unicode="A" horiz-adv-x="980" 
d="M295 430q0 -70 9 -96t12 -37q3 -10 6 -14h-3q11 -41 25 -55t39 -25l20 -13h3l20 -12q41 -29 74 -26t106 30l23 17q14 9 23 11q10 2 20 13q10 10 24 21l2 78q4 41 0 100q8 35 4 104l-2 47l-12 48q-14 53 -36 79q-57 68 -126 68q-12 0 -42 4t-81 -22q-20 -18 -24 -24
t-7 -10q-3 -3 -6 -7t-10 -9q-35 -33 -50 -108t-11 -135v-27zM797 928q20 0 90 -13q20 -3 29 -47t3 -76t-6 -100q4 -51 0 -96t-4 -74v-14l-4 -272l2 -72q0 -18 -5 -74t-5 -84q0 6 -14 6l-23 -6q-47 -10 -78 -10t-80 12v-2q-4 2 -4 18t-4 25q-20 43 -63 0q-10 -2 -53 -24h-7
l-69 -13q-40 -4 -70 -11t-86 0t-78 25t-36 34q-14 18 -23 29t-17 19t-12 13h-2q-25 20 -49 84l-12 28q-35 80 -35 225q0 44 12 109v6q2 5 9 47t15 58t14 26q4 10 24 42q20 30 26 47q23 34 82 75l33 21q35 27 53 22q43 5 71 9t80 3t83 -16l28 -10q30 -9 58 -29t41 -9t-11 44
l-2 -4l-4 14q2 -4 6 -10q10 25 97 25z" />
    <glyph glyph-name="B" unicode="B" 
d="M466 768q-7 0 -9 2q-50 18 -76 0q-18 -29 -16 -29l-15 -16q-14 -61 -12 -107l2 -69l14 -6q6 -20 25 -31q31 -12 63 -8h15q23 -4 39 4q45 0 87 24t56 35l16 13q19 9 31 65q0 27 -11 43l-28 41l8 -18q-19 33 -41 38t-40 16q-41 24 -87 -1l-2 -2q-12 6 -19 6zM518 156h2
l17 -2q31 4 69 34q10 10 6 9l29 14q25 12 51 41v29q0 23 -20 53t-39 44q-20 12 -34 16t-17 7q-4 15 -11 19q-8 4 -24 4q-17 0 -31 4t-19 2t-24 -2h-37q-35 4 -67 -6q-5 -4 -13 -10t-14 -13t-7 -25t-12 -66t3 -122l24 -14h-2q25 -20 35 -16l33 -2q46 -4 70 -1t32 3zM270 -4
q-53 0 -102 8q-41 0 -37 19q-2 39 2 96t2 102t-5 61t1 51q4 36 4 106t8 116l7 51q4 20 0 59t-4 75q1 36 1 71t13 82l-2 -2q12 33 26 35q46 12 84 12t107 -4h16l53 -2q50 -8 101 0h2q14 4 51 -10q59 -16 93 -18t77 -21q20 -17 38 -37t31 -26t17 -23l-2 2q4 -27 18 -39l7 -55
q4 -20 0 -54l2 2q-7 -14 -9 -27q-2 -14 -12 -24t-22 -28t-20 -22q-7 -5 -25 -28l-23 -22l12 4q-8 -4 -10 -38q-2 -35 2 -40q15 -8 39 -29l29 -22q12 -6 30 -41l9 -14l10 -52q8 -49 -33 -106q-4 -12 -25 -29q-23 -23 -35 -42t-48 -36l-39 -18q-18 -12 -45 -19l-27 -6
q-96 -20 -148 -11t-139 -5q-27 -2 -80 -2z" />
    <glyph glyph-name="C" unicode="C" horiz-adv-x="806" 
d="M72 580q0 42 34 104q48 69 65 85q17 15 37 49t40 44v-2q35 23 90 45l31 13q3 2 39 11t56 18t63 -2q44 -11 67 -10t63 -15l50 -13q16 -2 65 -18q6 -6 -22 -70q-14 -51 -17 -61q1 -8 -24 -4h-2q-10 2 -35 2t-33 7t-35 9t-37 6h-4q-61 23 -114 -4q-2 -2 -28 -8t-50 -33
l-17 -14q-45 -45 -49 -72l-2 -4v-6l-22 -98q-23 -82 2 -142l10 -47q6 -35 24 -78q51 -94 201 -131q40 -5 86 13t54 20t36 12q27 10 33 -8q16 -35 27 -98q2 -14 -13 -33q-6 -6 -34 -10l-50 -19q-66 -33 -110 -34q-8 -2 -74 4l-27 2q-59 6 -129 22l-24 6q-66 10 -78 41
q-17 23 -41 45t-50 66t-34 90q-8 45 -15 99t-9 66q-2 11 2 61q4 52 4 94z" />
    <glyph glyph-name="D" unicode="D" horiz-adv-x="952" 
d="M436 154q16 0 48 9t62 13t45 19t32 51l20 28q4 4 37 54q8 76 18 130t-2 99q-35 113 -71 137l-15 6q-12 18 -36 28t-115 22q-92 14 -140 2q-47 -45 -38 -125q4 -49 -5 -152l-4 -63l-2 -82q0 -84 11 -140q26 -63 120 -40q19 4 35 4zM205 934q49 0 94 -6q92 -4 139 -2
q23 11 72 2q50 -10 70 -20t56 -17q36 -6 48 -17t55 -31t55 -38t29 -60q10 -39 31 -65v2q33 -57 39 -115l-4 -84q-8 -162 -49 -209q-22 -30 -36 -79t-16 -54q-39 -57 -110 -80q-35 -12 -61 -36t-76 -26q-50 -3 -64 -4q-15 -1 -31 -5t-69 -4q-43 6 -86 2l-35 -2
q-158 -3 -180 8q-22 12 -21 24q-2 68 3 126t5 87l5 50q10 78 7 118t0 98t3 121l8 181q0 49 -8 75q8 27 41 48q37 12 86 12z" />
    <glyph glyph-name="E" unicode="E" horiz-adv-x="954" 
d="M413 492q41 0 109 10t127 14q17 2 31 39t7 61q-6 24 -3 39q-8 39 -22 54l-5 2l-12 14q-15 31 -29 37t-19 9t-7 5t-20 10t-23 11q-27 2 -73 4t-79 -27q-27 -18 -37 -44t-49 -68q-6 -6 -7 -58t7 -69q8 -25 33 -37q31 -6 71 -6zM801 193q18 -9 47 -9q14 -18 21 -48t1 -44
q-16 -25 -16 -35q-12 -31 -53 -37l-62 -12q-33 0 -69 -12l-27 -8q-76 -25 -88 -23h-55q-96 0 -150 13q-95 23 -192 145l-6 6q-25 45 -48 107t-24 67q-31 55 -14 146q26 105 36 197q6 50 58 95h-2q16 10 28 40t34 48q22 17 58 33t44 20t17 8q9 3 20 8t17 6t52 20q18 12 56 6
t67 -2q43 0 100 -17l25 -6q41 -12 84 -51q45 -31 63 -68l-2 11l4 -13q39 -90 39 -146t8 -77t-3 -44t-12 -29t-5 -13q-4 -8 -6 -14q-17 -51 -31 -51h-4q-33 -4 -55 -13v2q-31 -10 -61 -8t-84 -5t-107 -7l-172 -8q-39 -33 -45 -49t6 -50h-2q14 -53 47 -65l18 -14
q60 -72 172 -62q44 4 74 2t90 19l41 14q23 8 41 17t27 10z" />
    <glyph glyph-name="F" unicode="F" horiz-adv-x="782" 
d="M424 913l196 -10q58 0 86 -4t27 -20q23 -61 2 -97l-14 -16q-2 -4 -19 -21q-47 -16 -110 -10l-27 4q-61 6 -121 6t-84 -2q-23 -2 -41 -41q0 -2 -2 -10t-6 -26l-6 -27q-4 -20 0 -49l6 -53q8 0 13 -5q20 -43 41 -22l184 8q41 0 86 -6q25 -6 41 -45q8 -59 -2 -86
q-5 -2 -22 -18q-17 -15 -36 -25q-36 -6 -66 -6t-110 5t-102 3l10 -2q10 -4 5 -32t-13 -32l-29 25l-10 -29q-6 -44 -2 -112t-2 -100t-41 -62q-24 -10 -60 -10t-81 8q-29 0 -52 49l3 -2q-14 48 -1 112t13 238q0 23 -17 43l19 2q-4 74 -4 115l10 151v27q2 31 -4 82t17 83
q12 15 28 15h2q132 12 201 2q34 2 94 2zM61 434l-22 -2q0 14 12 10q6 -2 10 -8z" />
    <glyph glyph-name="G" unicode="G" horiz-adv-x="958" 
d="M532 754q-75 0 -94 -25l-20 -24q-76 -86 -80 -93l-14 -16q-18 -20 -22 -32t-6 -56q-1 -45 10 -65t17 -81q5 -60 33 -86q10 -10 33 -36q20 -39 51 -58q-4 -8 -4 -14q0 -14 39 -23q39 -8 57 -5t38 2q22 -1 118 34h17v39q0 51 6 61q8 39 -2 62q-11 23 -25 28t-32 7
q-18 1 -28 7t-10 14t1 36q1 27 26 41q33 12 87 12q141 0 165 -65l-6 -47q0 -74 2 -109l2 -94q0 -37 -4 -78l-2 -2q-12 -29 -23 -33l-26 -12q-35 -20 -52 -18q-63 3 -106 -9t-51 -30v4l-127 -8q-51 0 -78 12q-26 12 -38 18t-15 6l-50 21q-63 20 -92 50t-92 118q-6 10 -10 59
t-16 74l-15 31q-6 12 -8 22l-8 41q-18 61 10 133q4 7 15 61t36 74v-2q25 16 47 50q39 43 62 61v-2q18 9 55 35t55 33v-3q8 2 42 18t59 23l26 11l27 2q27 6 67 -3q39 -9 89 -9t92 -19q42 -18 58 -23q17 -5 47 -28t24 -43v-4q-10 -66 -55 -117q0 -4 -24 -3t-62 21
q-36 20 -46 20q-12 1 -60 17q-47 16 -83 17h-27zM440 182l11 11l-5 -7q0 -2 -2 -6q-4 0 -4 2z" />
    <glyph glyph-name="H" unicode="H" 
d="M309 895v-4q0 -39 -8 -99t-4 -92t0 -60t14 -81l6 -2q6 -14 29 -25q47 -8 126 -4t119 0t59 4t59 9q25 -8 35 1t16 40l6 39q6 23 0 79l-4 35q-6 61 -6 81t12 56q6 0 10 17q12 16 15 16l36 6q53 12 101 2q27 -6 39 -43q8 -39 -1 -79q-8 -41 -12 -75t1 -58t0 -52
q-5 -29 -2 -88t1 -106l-4 -45q-6 -61 -4 -144l8 -114q0 -86 -30 -99h2q-38 -25 -90 -19q-52 7 -65 7t-38 39q-6 25 -6 68t12 141l4 37l7 30l-9 27l2 -2q-4 20 -11 30q-8 10 -42 8q-34 -3 -52 -9t-59 -3q-40 3 -137 3h-104q-14 3 -26 -11t-17 -30l-8 -31q-4 -39 0 -115
q0 -106 -13 -145q-8 -8 -18 -23l-18 -22q-16 -6 -69 -6t-73 19t-18 32l-2 92q0 57 6 103t2 98t0 96l6 94q4 68 9 96t0 46t-5 57q4 25 4 73t9 93l-3 -2q8 20 25 30q49 13 76 13t80 -17l-2 2q24 -10 24 -14z" />
    <glyph glyph-name="I" unicode="I" horiz-adv-x="436" 
d="M131 586q0 44 -6 82l-6 53q-8 67 -8 93t8 58h-2q16 44 45 46h2q33 8 74 8t63 -6q37 -25 35 -35q4 -38 0 -98t-4 -123v-35l-8 -295l2 -90q2 -22 2 -82q0 -149 -47 -168v2q-31 -8 -57 -8t-68 12v-2q-49 18 -50 27q-4 31 0 111t5 104l2 43q0 98 9 178q9 81 9 125z" />
    <glyph glyph-name="J" unicode="J" horiz-adv-x="579" 
d="M305 384q0 48 2 62q-14 32 -8 60t1 66q-5 36 0 58t5 50l-2 55l-2 62q1 78 19 99t30 26q45 12 75 12q31 0 59 -11t42 -53h-2q6 -28 -1 -86t-5 -94l-8 -149q10 -90 10 -113v-16q4 -29 0 -43l2 2q-4 -12 -3 -53t-40 -121l-18 -39q-20 -41 -43 -64q-45 -33 -51 -37l-48 -30
q-16 -12 -83 -17l-29 -2q-5 0 -53 8h-7q-29 4 -45 19t-28 24q-33 20 -29 45q-8 25 -9 59t13 44q18 2 39 26l14 15l31 -6q8 -8 53 -18t58 -2q12 6 23 28t12 26v-6q6 10 9 24t10 27q7 15 7 63zM279 276l2 3q0 -3 -2 -3z" />
    <glyph glyph-name="K" unicode="K" horiz-adv-x="913" 
d="M373 730q0 -12 -27 -3q27 8 27 3zM328 645q0 -48 -6 -84v-2l-3 -29l27 21q9 1 28 19t23 14t-16 -64l37 55v3q53 86 85 122q33 36 63 92q30 54 69 89l37 14l24 12q40 4 94 4t80 1t37 1q-14 -23 -54 -71t-54 -68v2l-94 -112q-41 -45 -95 -115q-20 -25 -4 -53q2 -6 2 -17
q18 -57 82 -143l17 -23q6 -8 32 -55l66 -100q59 -66 96 -156q2 -2 -4 -10t-65 -8q-143 0 -173 36q-49 63 -135 216q-37 61 -84 119t-65 91l-45 -6q-2 -32 -2 -102t-4 -111q10 -78 -11 -196q0 -25 -26 -29q-92 -18 -146 -6q-31 8 -39 41h2q-10 37 1 97t9 101t-3 76q0 35 8 84
t5 65t-3 49q0 34 -4 71t1 88q-12 -92 -21 -48t-9 123q2 -2 11 -2q9 -1 19 7t11 20l-4 113q0 6 41 39h-2q25 16 96 -2l39 -7q16 0 47 -30q7 -29 -6 -68q-8 -37 -8 -59t14 -27q-18 -8 -18 -29v-53zM907 913q0 2 4 7l7 -7h-11z" />
    <glyph glyph-name="L" unicode="L" horiz-adv-x="831" 
d="M464 156q44 0 77 8l65 6l39 2q103 5 115 -37l-2 2q26 -74 12 -121q-12 -18 -55 -26t-84 2l-33 8q-46 10 -114 4t-102 -5t-87 -3t-76 -4q-92 0 -92 37q-10 51 -6 135l2 59v49q0 39 8 80t8 69q0 27 3 51t-2 59t-4 62t1 51t6 66q6 40 0 73t4 77q11 44 45 58q34 13 103 0
l33 -7q33 0 51 -51l-2 2q14 -33 0 -67q-8 -33 -8 -76q4 -37 2 -61l-4 -48l-7 -63l-4 -80l-4 -35q-4 -51 4 -93t4 -106v-14q-14 -39 29 -55q31 -8 75 -8z" />
    <glyph glyph-name="M" unicode="M" horiz-adv-x="1323" 
d="M1229 2q-19 -10 -73 -10q-127 0 -142 35l8 32l2 2q2 16 0 27l-12 111q0 4 -5 29t-1 94q4 70 2 110q-6 37 -2 66t-2 59l-7 23q-4 16 -4 30t-2 29q4 23 -9 42t-34 5l-14 -29v5q-23 -40 -30 -94t-29 -96t-30 -120q-9 -78 -17 -93t-21 -72q-14 -57 -28 -102q-15 -43 -20 -61
t-14 -22q-39 -12 -106 -8l-35 2q-29 -4 -45 39q-23 43 -44 132t-37 124t-17 93q0 58 -23 79q-4 4 -12 33q-14 34 -14 54t-6 38q2 14 -15 30q-12 92 -37 99q-20 3 -24 -59t-12 -118t-7 -100l2 -67q0 -72 -6 -113q-20 -23 -8 -104q4 -88 -2 -107q-6 -45 -45 -55v2
q-51 -14 -84 -14q-32 0 -62 20t-28 33q-4 97 10 155t12 58q29 29 29 205v34q2 76 8 113l4 33q3 31 9 47t10 57t-4 73t2 50q43 51 53 55l33 5q68 14 94 14t64 -8t45 -12q13 -6 22 -46l41 -71l18 -56q12 -57 18 -99t56 -177q12 -33 12 -93t21 -122l16 20q5 2 21 4t15 6t-1 19
q6 16 23 88l18 72q27 76 41 163t18 91l29 61q16 42 34 60t25 28l17 21q27 33 41 32l104 11q14 0 101 -11q18 0 26 -45v-12q10 -49 13 -92l2 -31l6 -45q4 -23 0 -74t7 -97q10 -46 5 -118q-6 -73 0 -122q4 -21 24 -19q19 2 19 4v-160q14 -43 15 -62t-17 -34q-2 -29 -8 -6z" />
    <glyph glyph-name="N" unicode="N" 
d="M109 61v187q-2 94 5 172t7 152t3 107t-1 111t0 105q-2 11 12 17t39 10h2q63 12 117 0q29 -2 53 -35v-2q-4 0 -10 -25t2 -32t20 -7t30 -1t48 38q12 4 34 26t44 34q55 25 90 24h98q25 2 79 -28t69 -62l12 -31h-2q10 -41 22 -61t9 -60q-4 -40 4 -57l-2 2q8 -35 8 -104
t-8 -113q-16 -165 -4 -213q6 -43 6 -89t-10 -79l2 2q-22 -51 -29 -51q-39 -6 -77 -6q-120 0 -115 33q-4 29 6 133l4 47q6 55 6 106l4 154q0 76 2 90q10 25 -2 78l-2 20q0 66 -15 69t-30 27q-13 25 -55 28t-63 -4t-43 -7t-52 -21l-33 -22l4 4q-35 -18 -35 -45l-8 -25
q-12 -45 -15 -63t-3 -82l-8 -211q0 -47 2 -68l10 -129q0 -25 -8 -57q-29 -37 -39 -41l2 2q-80 -25 -148 -8l3 -2q-43 18 -42 30t1 33z" />
    <glyph glyph-name="O" unicode="O" horiz-adv-x="1005" 
d="M743 351q0 53 5 77v61q-4 19 1 65t-26 103q-10 25 -16 47t-23 35v-4q-25 20 -55 35l-31 16q-22 14 -60 16t-63 -6q-25 -9 -79 -38t-64 -41l-13 -19q-10 -14 -38 -65q-26 -60 -11 -109q4 -16 0 -40t-1 -50t3 -72t13 -78t55 -83q18 -20 78 -43q121 -47 196 -2l21 14h2
q55 27 74 68q32 60 32 113zM956 623q0 -41 8 -80t3 -92q-5 -104 -15 -132t-22 -56t-21 -56h2l-10 -35q-4 -27 -55 -66l-21 -22q-29 -33 -59 -41q-75 -37 -109 -46q-35 -9 -106 -13h-25q-39 -4 -79 -1t-67 2q-28 -1 -66 15t-64 23t-68 36q-41 29 -63 86l-15 37q-22 50 -32 86
t-11 117v66q0 81 -2 107t17 81l8 25v-5q54 93 78 119t66 53t54 40t60 33q49 20 80 28q198 21 240 2l36 -16q53 -21 80 -40t33 -22q39 -23 66 -72h-3q10 -17 76 -106q6 -14 6 -55z" />
    <glyph glyph-name="P" unicode="P" horiz-adv-x="942" 
d="M553 772q-35 11 -68 6l-39 -2q-28 0 -40 -2t-36 -24t-20 -43q-9 -86 0 -175q5 -53 58 -61q55 -14 80 -7q24 7 28 5l33 -2q20 4 33 25l18 20q8 8 22 19t20 22q5 11 13 63q9 20 -1 60q-9 39 -36 45q-6 0 -16 8q-10 4 -20 21q-10 12 -29 22zM592 903h31q17 3 29 -5t44 -20
t62 -30v2q10 -4 20 -31t38 -47t31 -62q3 -41 12 -56t7 -33q-4 -76 -39 -142q-14 -33 -43 -47h2l-20 -12l-29 -29q-46 -41 -61 -49q-20 -6 -60 -15t-63 -21q-24 -12 -68 -13l-88 10l-37 2l-12 -47l2 2q-4 -12 -4 -22v-168q-30 -66 -58 -79q-53 -25 -122 -1q-23 8 -27 39
l-4 34q-6 31 -6 84v48l2 6l4 35q6 45 2 83q-4 37 1 81t1 112v92q2 40 -1 54t3 46t2 77q-4 46 9 71q0 2 10 27l-2 -2q8 27 14 26l92 10q145 19 244 11q6 -2 16 -5t22 -9t44 -7z" />
    <glyph glyph-name="Q" unicode="Q" horiz-adv-x="1085" 
d="M774 371q0 33 4 57v61q-4 19 1 65t-23 103q-5 11 -16 39q-11 29 -25 43v-4l-21 21q-27 23 -41 30v-2q-37 23 -106 23t-82 -10q-75 -29 -99 -59t-35 -60t-15 -37q-4 -6 -3 -8q-28 -58 -10 -109q4 -15 -1 -38t-1 -50t4 -84t10 -88q31 -72 61 -110t103 -41q100 0 144 20
l32 17q68 32 86 66t27 87l4 25q2 10 2 43zM92 385v66q0 82 -2 108t16 80l39 78l58 94q16 16 41 29l67 49q27 33 76 39l35 6q82 8 114 11t130 -8q97 -11 135 -50q31 -25 43 -31h-2q39 -23 65 -72h-2q10 -20 34 -49t42 -57q6 -14 6 -55t8 -80t2 -92q-4 -104 -15 -133
q-10 -29 -24 -64t-18 -47h4l-12 -37l-43 -35q-18 -16 -29 -24l-24 -27q-29 -33 -60 -41l-10 -37q20 -20 84 -13q143 16 147 -3q4 -47 -4 -88l-6 -27q-10 -39 -35 -51q-31 -5 -37 -4l-26 10l-25 8q-8 8 -37 19h4q-45 23 -67 27t-49 12q-27 4 -57 23t-72 32l-66 10
q-14 4 -57 12q-43 7 -57 11t-25 8q-13 4 -21 6t-25 10q-17 6 -46 13t-82 42q-35 27 -57 82l-15 37q-14 28 -35 88q-8 35 -8 115z" />
    <glyph glyph-name="R" unicode="R" horiz-adv-x="980" 
d="M319 698l-4 -63q0 -60 4 -84q20 -57 64 -39q25 0 41 -4t46 1q28 5 52 12t25 7q37 2 63 52l15 22l12 27q8 33 -2 57q0 16 -21 33v-2q-2 2 -8 5t-15 14t-40 12h-10q-12 16 -42 13t-40 1h-45q-40 2 -56 0q-38 -5 -39 -64zM115 771q0 64 13 99t30 41l-2 -2q95 16 227 6l98 -6
h45q37 4 74 -8q45 -6 109 -49l6 -6q70 -42 98 -107q4 -14 18 -43q9 -89 -45 -159q-22 -29 -53 -78l4 2q-2 -4 -37 -21q-39 -14 -57 -39q12 -32 21 -41q6 -49 59 -106q24 -35 59 -64t58 -71q12 -35 45 -64t45 -53l12 -2l-65 -6q-49 -6 -89 -6t-71 6q-14 8 -29 8l-18 6
q-14 37 -41 60q-23 23 -35 58t-39 58v-2q-31 27 -39 51l2 -2q-2 20 -35 48q-9 2 -18 24q-8 35 -29 45l-12 8q-25 16 -68 -2q-31 -18 -37 -53l-2 -29q-6 -20 -2 -65l-6 -184q4 -12 -18 -29q-37 -12 -85 -12t-93 14l2 -2q-14 6 -15 20l-2 37q-4 79 2 107t7 39t-15 39
q12 0 12 10q-2 35 2 102v105l9 159q0 35 -9 43l5 27q4 25 4 89z" />
    <glyph glyph-name="S" unicode="S" horiz-adv-x="833" 
d="M135 23l-20 55q0 68 24 90h-2q7 4 21 4t32 4h3l12 -8q59 -21 92 -29l33 -10l30 -8h31q37 0 60 12l22 6q33 0 47 23l15 12q25 18 24 45l2 2q12 46 2 80q-10 16 -35 29h2q-27 16 -41 28t-69 25l-25 6q-6 4 -52 12q-46 7 -65 23q-18 16 -48 30t-42 29q-18 16 -38 29l2 -2
l-19 10l-2 6q-29 70 -31 96t4 60t6 48q0 16 25 44l15 19q49 99 182 131q80 25 151 20q26 0 51 3t52 -5l-2 2l51 -20q45 -14 47 -17h-2l41 -12l8 -8q12 -23 10 -33l-12 -35q-12 -45 -25 -57v2q-2 -2 -24 -6t-39 -13q-69 46 -109 46q-10 0 -45 4t-69 2t-76 -39
q-39 -26 -39 -50t6 -44l6 -35q-4 -38 52 -47q7 -2 33 -8t46 -17h2q31 -20 70 -27l47 -12l92 -43q16 -8 45 -41q6 -10 13 -14q12 -15 22 -60q8 -59 10 -81l5 -46q6 -25 -21 -88t-72 -92l7 2q-76 -42 -86 -43q-11 -2 -41 -12t-47 -9t-48 -8t-53 -5t-58 4t-48 7t-70 23l-41 8
q-8 4 -22 4t-15 -1z" />
    <glyph glyph-name="T" unicode="T" horiz-adv-x="970" 
d="M372 922q24 0 80 5q55 5 105 1q49 -4 78 -4h67l70 2q36 0 58 5t49 -3q-6 0 1 -6t27 -21v2l15 -10q28 -43 -15 -107q-18 -27 -30 -30l2 2q-53 -10 -113 -6t-96 4q-35 0 -47 -35l2 -2q-21 -24 -21 -144l6 -180v-69q2 -53 -9 -132t-7 -112t2 -53q0 -27 -35 -35
q-67 -12 -91 -12t-46 10q-37 37 -37 39q-2 29 2 59t-1 60q-5 32 -5 82t14 87q2 33 -4 84t3 123t5 176q-2 10 -17 30t-26 26q-68 10 -163 6h-103q4 4 -10 12l-6 6q-8 24 4 123q0 4 13 15q33 23 118 6q69 -6 103 -5t58 1z" />
    <glyph glyph-name="U" unicode="U" 
d="M356 819q0 -33 -12 -106l-6 -47q-16 -150 -10 -228q6 -20 -2 -69v-7q-10 -27 4 -50t10 -48l-2 -33q2 -23 27 -38q4 -2 10 -15q14 -31 63 -37l4 -2h9q31 -6 55 4h2l27 15l2 2q10 0 18 8q26 7 55 29q29 12 41 30q12 33 17 43q-2 4 8 23q8 29 8 99t4 101t0 105t-4 96v17
q0 212 41 207q21 0 71 6t89 -9q10 -16 16 -26t8 -12q8 -31 1 -110t-7 -89v-64l-2 -67q0 -47 5 -81t-5 -126t-2 -129l6 -102q0 -99 -38 -108t-107 -1l-51 4q-8 0 -23 14v5q9 73 -55 71q-5 -4 -17 -14t-16 -14l-20 -21l-31 -20l-41 -23q-37 -18 -65 -15q-27 3 -59 -1t-52 0
h-21q-47 0 -63 13t-58 58l-16 19q-12 12 -31 63l2 -2l-8 29q-8 10 -8 31l2 18q-4 37 -16 78q3 11 7 37t2 53t-1 115v135l-10 158q0 55 12 96q23 29 47 39t96 0l47 -4q10 -3 39 -41l-8 8q12 -37 12 -70z" />
    <glyph glyph-name="V" unicode="V" horiz-adv-x="913" 
d="M123 922q79 4 145 -13q19 -8 27 -24q15 -43 23 -99t18 -116l10 -60q14 -82 32 -130t30 -129t30 -124q12 -16 29 -14t31 23q20 55 37 120l22 86h-2q12 37 27 121q23 94 24 101q16 37 28 100t30 113q14 29 55 36q86 31 139 13q25 -16 25 -25q-6 -51 -29 -101t-25 -68
t-24 -79q-29 -66 -32 -85t-30 -99q-35 -81 -39 -101t-22 -78q-20 -58 -43 -138t-39 -111q-4 -23 -53 -37l-21 -4q-86 -18 -141 -4l2 -2q-51 16 -63 43q-36 70 -54 154t-43 147l-12 35q-29 74 -39 178q-6 41 -26 80t-39 92l-19 61q-26 68 -26 103t10 33z" />
    <glyph glyph-name="W" unicode="W" horiz-adv-x="1228" 
d="M857 -10q-29 0 -63 6t-36 16q-10 33 -27 140l-12 75l-10 76q0 18 -19 127l-10 49q-24 83 -28 122q-5 38 -26 40q-22 2 -32 -8q-14 -145 -34 -193t-40 -164l-14 -81q-32 -193 -74 -197q-28 -8 -88 -8t-89 29q-7 7 -7 16l-6 28q-20 92 -24 142t-27 125q-23 74 -33 110
t-13 45l-20 76q-8 20 -23 127l-4 33q-4 25 -27 74t-24 94q6 16 25 20h2q12 2 71 2h64q23 9 39 -20q16 -35 20 -101t24 -122q20 -54 22 -168t40 -219q14 8 29 2q47 79 66 215q12 72 25 118q14 46 20 71t16 96t22 98l37 20h-2l25 14q31 16 108 5l35 -5q8 0 15 -14l12 -27
q14 -31 18 -89t17 -91q8 -35 24 -153l6 -45l4 -41q8 -102 25 -162l4 -2l35 -10q31 68 43 159l8 58q14 92 49 188l25 88q20 88 27 107q12 12 20 16h-2q32 23 94 18l45 -2q14 2 21 -18q0 -35 -27 -95t-29 -74q-3 -14 -25 -80q-22 -65 -30 -120q-8 -54 -30 -122t-29 -97
q-29 -90 -35 -103t-27 -102l-22 -79q-2 -6 -47 -25q-37 -8 -67 -8z" />
    <glyph glyph-name="X" unicode="X" horiz-adv-x="954" 
d="M792 926q30 0 97 -8h4l6 -3q-39 -61 -80 -111t-63 -91v2l-51 -76q-74 -109 -84 -125q-29 -33 0 -61q23 -35 51 -77t47 -80t47 -77q35 -39 44 -61t48 -82l37 -64l4 -10l-22 -2q-53 -4 -93 -4t-75 8l2 -2q-49 23 -58 34q-10 11 -58 103t-93 158q-14 12 -34 12t-24 -16
l-16 -33q-106 -184 -145 -233q-23 -23 -41 -21l-66 -4q-80 -6 -141 -4l65 84q4 6 37 48t76 112l31 53q17 28 66 88t42 86l-2 20q-47 109 -137 218q-90 104 -131 200q0 5 4 9t8 2h4l66 2q66 0 133 -11q35 4 41 -12q36 -57 72 -134t65 -112q11 -6 28 11q17 16 17 17l12 -30
q68 115 140 246q6 27 48 29t72 2zM899 915h14q4 3 -1 5t-11 -2zM520 679v1v-1z" />
    <glyph glyph-name="Y" unicode="Y" horiz-adv-x="954" 
d="M131 913q22 0 96 -10t80 -24q27 -43 53 -66q18 -23 36 -52t65 -95q32 -34 57 -93l64 97q62 153 92 204q16 23 55 32t131 9h37l4 -8q0 -6 -2 -8q-10 -49 -41 -96h2q-29 -43 -36 -63q-8 -20 -38 -63q-30 -42 -40 -73t-37 -74l-25 -34q-8 -23 -64 -107t-63 -129
q-8 -45 -78 -154v3q-23 -33 -28 -64q-15 -51 -103 -61q-6 -2 -26 2q-66 0 -66 12q-27 20 -27 25l-6 22q2 7 2 31q-1 24 17 48t24 40l33 63q4 12 50 72t61 96q10 37 -25 78l-27 43l-75 88q-47 52 -79 96t-50 62t-31 46q-12 26 -21 38l-26 45q0 10 2 12v2q31 8 53 8z" />
    <glyph glyph-name="Z" unicode="Z" horiz-adv-x="872" 
d="M200 -8h-104q-42 0 -41 16q-18 37 -4 76l8 20q14 39 23 50l47 59q41 53 70 92t112 133l107 137q26 31 30 36t20 23t31 37q16 18 33 62q-2 5 1 15t-11 24l-10 6q-33 6 -68 6l-120 -8q-20 0 -81 -6t-96 0q-25 16 -45 37q-16 31 -6 61t20 43q10 12 17 11q78 12 133 12
t104 -9t212 -10l172 17q16 0 53 -8q12 -12 18 -21l-4 2q10 -53 0 -82q-8 -63 -18 -71l-27 -31q-63 -59 -93 -109t-101 -141q-74 -78 -104 -127t-66 -84t-56 -58q-20 -22 -10 -42t38 -24t102 -3q74 0 108 2l137 4q41 0 61 -3t33 -40q12 -37 -21 -86q-9 -12 -18 -10
q-94 -4 -157 -4l-80 -2q-33 -2 -107 2t-118 0q-46 -4 -124 -4z" />
    <glyph glyph-name="bracketleft" unicode="[" horiz-adv-x="555" 
d="M115 434q0 60 6 96t3 84q-3 49 -3 127q4 43 0 102t2 95t2 97q-4 60 3 88t3 102q-4 73 4 99q9 26 39 36t82 1t92 -7q39 2 80 9t77 1t42 -24t0 -48q-6 -28 -6 -45q6 -14 -19 -24l2 2q-39 -10 -91 1q-51 11 -73 9t-47 -51q-6 -20 -6 -82t2 -82v-211q6 -63 -8 -172
q-2 -29 2 -87t4 -93q-8 -103 -5 -151t-7 -150l-6 -78q-2 -40 2 -98t4 -84q-12 -147 -12 -172q-4 -20 15 -43t38 -17l47 2q74 4 111 -4q4 -4 12 -24h2q23 -49 6 -91q-4 -4 -10 -15t-10 -9l-74 -2q-33 0 -78 3t-112 -4t-93 1q-20 16 -33 47l2 -2q-10 31 -2 93t4 92t-4 95
l9 170l-4 134q0 34 5 110t3 94q-2 20 -2 80z" />
    <glyph glyph-name="backslash" unicode="\" horiz-adv-x="954" 
d="M61 1288q69 0 99 -5t53 -21h-2q20 -25 57 -93q14 -35 36 -67t56 -103l25 -53q20 -42 49 -78t53 -77q63 -119 85 -145t53 -82q31 -57 55 -85q47 -70 61 -110l19 -43q16 -29 55 -78t55 -86t45 -83t37 -67q-2 0 -13 -5t-50 -2t-86 3q-37 -4 -41 10l-29 58q-36 72 -65 114h2
q-14 27 -33 52v-2l-68 102l-18 33q-53 80 -76 133t-69 109t-66 92q-20 35 -30 51t-18 32q-10 16 -38 56q-28 39 -61 113q-37 63 -62 104t-37 67t-33 50q-45 70 -51 98v-6l-12 14h63z" />
    <glyph glyph-name="bracketright" unicode="]" horiz-adv-x="555" 
d="M272 213v39q0 45 -3 89q-3 43 1 103t4 152t2 125l3 88v59q-4 68 6 116t10 101t-6 101q-14 51 -60 41q-104 0 -157 6q0 4 -6 15t-11 14q-16 24 -1 57t30 37l-2 -2q35 8 68 8t69 -6l37 -4q37 -2 97 6t91 2l-2 2q25 -6 27 -37q8 -31 4 -94q-8 -59 0 -98q6 -74 -4 -160
l-2 -39l-6 -51q-10 -85 -6 -145t-4 -150l-2 -39q-4 -82 -5 -121l2 -86q0 -34 4 -90t3 -100l-4 -46q-10 -127 -9 -157l-4 -131q0 -49 4 -79t-4 -126l-4 -64l-2 -2q-12 -6 -14 -8h2l-12 -8q-34 -12 -84 -7t-91 5l-190 -4q-8 0 -21 35q0 18 13 59l-2 -2q4 12 4 21q12 33 80 25
q68 -9 86 -9q23 -6 45 20q2 4 10 13q18 49 12 111t-4 81t-5 81t3 111t10 142z" />
    <glyph glyph-name="asciicircum" unicode="^" horiz-adv-x="679" 
d="M485 1114q-8 8 -22 37q-35 53 -62 68q-12 16 -45 11q-32 -5 -52 -28q-20 -22 -40 -48t-40 -38t-62 -20t-92 26l-15 15q43 78 146 163l28 21q88 68 117 84h-4l23 8q31 -11 34 -10l-2 2q12 -4 41 -39t35 -44t25 -22q94 -84 141 -155q4 -2 1 -10t-9 -11h6l-12 -4
q-61 -29 -93 -22l3 -2l-25 8z" />
    <glyph glyph-name="underscore" unicode="_" horiz-adv-x="974" 
d="M508 -47q74 0 94 3t80 -1q62 -4 104 2t96 0q52 -6 67 -5t28 -15l14 -19q8 -30 -15 -90q-3 -8 -30 -35q-25 -12 -77 -12t-99 10q-37 4 -87 -1t-85 -3q-52 8 -112 8t-84 -3t-92 2t-102 5t-79 -10t-96 -4q-21 9 -37 50q-16 40 12 93q12 19 37 31l-2 -2q23 6 88 2t89 -2
t81 -4h2q75 -10 103 -5t102 5z" />
    <glyph glyph-name="grave" unicode="`" horiz-adv-x="516" 
d="M231 1446l2 -2q59 -33 179 -195q47 -66 49 -67q12 -4 -2 -33v-4q-6 -10 -62 -41h-6q-45 -20 -63 0q-37 18 -82 68t-60 64q-14 13 -38 43t-68 69q-4 4 -4 10q41 63 94 80q10 0 23 6l-3 -2q35 6 41 4z" />
    <glyph glyph-name="a" unicode="a" horiz-adv-x="980" 
d="M702 246l3 180q8 37 4 106l-2 48l-2 10l-9 26q-11 62 -39 93q-27 31 -69 53q-22 16 -46 16t-52 4t-84 -24q-23 -18 -30 -30t-20 -19q-35 -33 -50 -110t-11 -136v-29q0 -58 6 -82t23 -65h-2q12 -43 26 -58l37 -24l21 -12h2l20 -13q41 -29 75 -26t107 30l23 17q18 12 26 14
q7 2 17 11t26 20zM803 940q23 0 92 -12q19 -2 29 -48t4 -79t-6 -101q4 -51 0 -98t-4 -74v-14q-5 -141 -5 -183v-93l2 -72q0 -14 -5 -74t-5 -86q0 6 -14 6l-25 -6q-44 -10 -76 -10t-81 12v-2q-4 2 -4 18t-5 25q-23 42 -65 0q-4 0 -49 -20h-4q-4 -2 -7 -2l-69 -15
q-38 -4 -70 -11t-90 0t-78 25t-46 49q-26 32 -42 48h-2q-20 16 -51 84l-12 29q-35 84 -35 240q0 54 7 82t15 71t16 58t11 21q2 6 24 37q22 32 29 58q23 34 82 76l33 20q35 31 53 25q120 11 163 10q44 0 75 -14l28 -13q34 -7 62 -29t39 -11q10 11 -10 48l-2 -6l-5 17
q2 -4 7 -11q10 25 96 25z" />
    <glyph glyph-name="b" unicode="b" 
d="M471 778q-8 0 -12 2h4q-53 18 -80 0l-10 -18q-10 -12 -8 -12l-15 -15q-12 -63 -10 -110l2 -70l12 -4q6 -23 27 -33q31 -12 63 -8h15q25 -4 35 2h2q61 8 100 33q29 12 47 28l19 15q16 9 28 65q0 27 -10 43t-18 27v-4q-20 33 -43 38t-35 13q-37 33 -95 4l-2 -4q-8 8 -16 8z
M698 285q0 23 -20 53t-40 44q-21 13 -30 13q-20 10 -22 13q-5 20 -28 20q-24 0 -38 5t-20 2t-23 -3h-39q-46 5 -76 -12q-24 -16 -25 -38t-13 -69t4 -125l22 -14h-2q25 -20 37 -16l33 -2q46 -4 70 -1t34 3l2 -2q8 0 28 2t58 32q10 10 6 9h-2l31 16q25 10 53 39v31zM272 -4
q-54 0 -106 8q-39 0 -37 21q-2 39 3 96t-1 112q0 37 -4 51t2 52q6 37 6 108t8 117l7 53q4 30 0 64t-4 71q1 37 1 72t11 82l-2 -2q12 35 28 37q44 10 84 10t109 -4h16l53 -2q58 -4 101 0h2q18 4 64 -10t80 -15t81 -24q28 -23 42 -40t28 -23t18 -23l-2 2q4 -27 17 -41l8 -55
q4 -20 0 -54l2 3l-8 -21q-1 -23 -9 -29t-32 -39q-29 -27 -39 -43l-25 -22l12 4q-8 -4 -10 -40q-2 -35 2 -40q17 -8 39 -26l31 -25q12 -8 29 -41l10 -14l10 -52q6 -45 -18 -85t-42 -54q-17 -14 -34 -39q-12 -23 -49 -39l-39 -18q-8 -4 -45 -19l-29 -6q-94 -20 -149 -11
t-142 -5q-24 -2 -78 -2z" />
    <glyph glyph-name="c" unicode="c" horiz-adv-x="806" 
d="M70 586q0 78 92 182q34 40 49 65q14 25 37 41v-2q81 45 92 47q10 3 14 5t8 3t12 5t42 11q33 7 54 17t65 -6q41 -10 65 -9t64 -13l49 -12q6 0 65 -21q6 -6 -10 -44q-16 -37 -29 -89q1 -8 -24 -4h-2q-10 2 -35 2t-29 2q-14 14 -57 18l-21 2q-56 28 -120 -2q-2 -2 -26 -7
t-52 -34l-17 -14q-47 -51 -51 -74l-2 -4v-6l-20 -98q-25 -86 2 -144q0 -6 9 -51t23 -76q33 -55 84 -88q53 -29 121 -45q39 -6 109 23q20 6 31 9t38 13t33 -8q21 -36 25 -76t-8 -57q-6 -6 -23 -8t-78 -27q-57 -26 -83 -28t-89 4l-28 2q-55 6 -132 22l-22 6q-70 14 -80 41
q-6 10 -39 43q-35 41 -45 54q-42 77 -52 165q-11 88 -13 97v4q-6 6 -1 64q5 56 5 100z" />
    <glyph glyph-name="d" unicode="d" horiz-adv-x="952" 
d="M440 156q16 0 50 9t62 13t43 19t32 51l22 31q17 26 37 53q8 78 18 132t-2 99q-33 113 -73 139l-15 7q-14 23 -32 26h4q-33 11 -125 25t-139 0q-49 -45 -41 -125q4 -51 -5 -154l-4 -63l-2 -84q0 -86 11 -141q23 -63 122 -41q21 4 37 4zM56 146q5 60 5 82q-1 22 7 78t5 98
q-3 41 0 99t3 122l8 184q0 49 -8 76q10 31 43 49q35 10 77 10t120 -4t124 -2q30 10 78 1t70 -20t55 -17t53 -21q20 -14 56 -31t48 -35t31 -61q10 -41 29 -66v2q35 -55 41 -117l-4 -86q-8 -162 -49 -208q-20 -31 -36 -81t-17 -55q-29 -51 -111 -82q-32 -11 -56 -29t-51 -26
t-55 -9t-39 -2t-31 -5t-73 -4q-43 6 -88 2l-33 -2q-163 -3 -184 8q-22 12 -21 24q-2 68 3 128z" />
    <glyph glyph-name="e" unicode="e" horiz-adv-x="954" 
d="M311 670q-8 -6 -8 -58t8 -74t31 -34q35 -6 75 -6q41 0 109 10t127 14q17 2 31 40t12 48l-5 25t-1 29q-8 39 -24 53l-4 2l-11 16q-17 29 -31 36t-19 10t-7 5t-20 11t-36 11q-16 2 -63 2q-47 1 -77 -24t-41 -51t-46 -65zM504 -35q-98 0 -155 14t-116 64q-20 16 -77 82l-6 6
q-8 16 -27 57q-18 41 -21 45q-18 57 -24 74q-31 55 -14 147q18 92 24 120t12 78t58 98h-2q18 10 32 42t33 50q28 20 62 35q27 8 38 14t30 14q19 9 27 11t38 15t70 9t69 0q43 0 100 -16l27 -6q43 -16 84 -54q45 -31 65 -67l-2 10q43 -103 43 -160t8 -79t-6 -52
q-16 -30 -22 -51q-23 -51 -29 -49h-4q-31 -4 -57 -13v3q-38 -12 -60 -10t-82 -6q-60 -7 -112 -7l-176 -8q-39 -33 -45 -49t6 -50h-2q14 -49 47 -67l20 -14q60 -73 174 -62q44 4 73 2t93 19l41 14q19 6 37 16t31 11q8 -4 29 -5q12 -4 18 -4q18 -20 24 -50t1 -42
q-18 -27 -19 -37q-10 -29 -53 -37l-62 -12q-35 0 -71 -12l-25 -8q-70 -25 -90 -23h-55z" />
    <glyph glyph-name="f" unicode="f" horiz-adv-x="782" 
d="M127 922h2q86 8 120 8t83 -6q33 2 88 2l209 -11q114 0 112 -26q18 -63 2 -96l-16 -17q-2 -6 -18 -22q-70 -20 -140 -6q-61 6 -123 6t-84 -2t-40 -40t-17 -65q-4 -23 0 -49l8 -53q8 0 13 -4q18 -47 41 -25l186 8q41 0 88 -6q27 -6 39 -45q12 -55 -2 -88q-8 -8 -57 -43
q-31 -6 -66 -6t-115 5t-100 3l10 -2q10 -4 5 -32t-13 -31l-29 22l-12 -27q-6 -46 -2 -114t-2 -103t-41 -61q-26 -10 -60 -10t-83 8q-24 0 -50 47q-8 27 -8 53q-1 26 11 93q12 68 12 208q0 20 -19 43l21 2q-4 78 -4 117l10 154v28q2 29 -2 65t3 77t40 41zM59 438l-22 -2
q0 17 12 11q6 -3 10 -9z" />
    <glyph glyph-name="g" unicode="g" horiz-adv-x="958" 
d="M674 928q52 0 92 -20t60 -24q19 -5 47 -28q28 -22 24 -45v-2q-10 -66 -55 -119q0 -4 -33 -4q-12 2 -54 23t-53 22l-53 14q-61 16 -86 17h-28q-72 0 -95 -23l-20 -26q-7 -8 -61 -70q-53 -62 -57 -73t-6 -56q-1 -45 8 -57t9 -23q9 -18 13 -74t32 -79q6 -4 33 -39
q25 -41 51 -58q-4 -8 -4 -14q0 -14 39 -23q39 -8 57 -5t38 2q19 -1 122 34h17v41q0 51 7 76t-3 47q-11 22 -25 28q-14 5 -32 7q-18 1 -30 7q-10 6 -10 14t1 38q1 29 27 40t88 11q146 0 167 -65l-6 -47q0 -76 2 -109l2 -96q0 -72 -6 -84v4q-12 -31 -23 -35l-26 -12
q-37 -18 -78 -15q-41 2 -82 -10t-53 -32v4l-127 -8q-53 0 -80 12q-26 12 -38 18t-15 6l-49 21q-66 18 -103 59t-84 111q-6 12 -10 61t-19 74l-14 31q-6 12 -8 24l-8 39q-18 61 10 135q6 21 16 69t37 69v-2q20 16 47 49t62 63v-4q2 2 45 31t67 39v-2q10 2 41 18t62 25l24 10
l29 2q31 4 69 -4q37 -8 89 -8zM442 184l13 11l-4 -7q0 -2 -2 -6q-7 0 -7 2z" />
    <glyph glyph-name="h" unicode="h" 
d="M98 800q0 50 8 93l-2 -2q8 20 25 33q53 12 79 12t81 -16l-2 2l12 -7l10 -10v-4q0 -39 -8 -101t-4 -92t0 -59t14 -84l6 -2q4 -10 31 -22q47 -10 131 -6t120 0q37 -4 57 4t59 10q25 -10 35 0t16 41l6 37q6 27 2 61l-2 21l-4 36q-6 55 -6 78t12 60q6 0 10 16q14 18 17 19
l35 6q55 12 104 2q25 -6 36 -43t1 -78t-13 -78t2 -61t0 -52q-5 -29 -2 -90t1 -106l-4 -47q-6 -61 -5 -144l9 -118q0 -39 -11 -76l2 2q-8 -18 -22 -25h2l-14 -10q-34 -12 -80 -7t-61 5t-40 39q-6 25 -6 57t10 154l7 39l6 30l-10 27l4 -2q-12 36 -20 39q-8 2 -38 -1
q-32 -3 -50 -9t-59 -3q-40 3 -139 3h-104q-16 5 -28 -9t-17 -32l-6 -33q-4 -35 0 -115q0 -109 -15 -147q-10 -10 -18 -23l-18 -22q-16 -6 -70 -6t-74 19t-18 32l-2 94q0 57 6 105t2 99q-4 52 0 95l6 96q4 70 9 97t0 46t-5 60q4 23 4 73z" />
    <glyph glyph-name="i" unicode="i" horiz-adv-x="436" 
d="M133 592q0 30 -8 84l-6 55q-8 61 -8 90t8 62h-2q16 45 45 47h2q35 8 77 8t62 -6q37 -25 35 -37q4 -38 1 -98t-3 -125v-35l-8 -299l2 -92q2 -20 2 -82q0 -151 -49 -170v2q-31 -8 -57 -8t-70 12v-2q-2 0 -10 3t-21 8q-14 5 -16 10q-7 26 -3 113t5 110l2 45q0 100 10 188
q10 87 10 117z" />
    <glyph glyph-name="j" unicode="j" horiz-adv-x="579" 
d="M35 165q0 32 12 44q23 9 55 41l31 -6q17 -17 66 -23q48 -6 65 22t17 38v-7q8 12 10 24t9 28q7 14 7 62t2 65q-14 32 -8 61q6 28 1 64t0 60t5 50l-4 119q0 81 25 109t78 28q54 0 82 -10t42 -53h-2q6 -30 -1 -88t-5 -95l-8 -149l6 -60q4 -39 4 -57v-14q4 -31 0 -45l2 2
q-4 -12 -3 -54t-40 -122l-18 -39q-20 -41 -43 -64q-49 -37 -53 -39l-47 -28q-16 -14 -86 -19l-29 -2q-21 0 -45 8q-40 0 -57 17q-18 17 -41 33t-21 38q-8 29 -8 61zM281 281l2 2q0 -2 -2 -2z" />
    <glyph glyph-name="k" unicode="k" horiz-adv-x="913" 
d="M359 739h12q4 0 4 -6t-29 4q6 2 13 2zM324 561q0 -10 -2 -24l24 20q4 0 39 29q14 14 12 -2q0 -14 -14 -58l37 56v2q53 86 84 122t59 82q39 74 76 103l37 14q8 3 19 11t84 8t99 1t37 1q-28 -42 -63 -84t-47 -58v2l-94 -114q-47 -49 -97 -117q-16 -23 -9 -41t7 -29
q16 -55 84 -145l17 -23q6 -8 16 -27t16 -28l66 -102q59 -61 98 -158q2 -2 -4 -10t-66 -8q-59 0 -110 10t-63 26q-51 66 -110 168t-105 158q-70 97 -74 107l-45 -7q-2 -34 -2 -104t-4 -113q12 -84 -13 -196q0 -9 -8 -19t-18 -12q-170 -33 -187 35h2q-8 37 2 98t8 102t-3 76
q0 35 8 87t5 66q-3 15 -3 49t-4 70t-2 59t2 32q-11 -94 -20 -50t-9 126q2 0 11 -1t20 7q10 8 10 20l-4 113q0 6 41 41h-2q29 16 98 -2l39 -6q20 0 47 -33q8 -25 -2 -65t-10 -62t12 -27q-16 -8 -16 -26v-58q0 -50 -6 -86v-6zM915 926q-1 2 3 5t7 0t3 -5h-13z" />
    <glyph glyph-name="l" unicode="l" horiz-adv-x="831" 
d="M464 158q42 0 81 8l65 6l39 2q107 5 119 -37l-2 2q24 -76 10 -123q-8 -16 -39 -24q-59 -10 -100 0l-35 8q-44 10 -112 4t-105 -5t-90 -3t-76 -4q-94 0 -94 39q-8 55 -4 135l2 61v49q0 43 7 83t7 68q0 27 3 51t-2 58t-4 62t1 55t8 66q4 41 -2 73t2 80q16 45 52 60
q33 10 102 -2l31 -6q33 -1 53 -52l-2 2q14 -35 0 -69q-8 -33 -8 -76q4 -39 2 -63t-4 -50l-7 -63l-4 -80l-4 -37q-4 -51 4 -93t4 -107v-13q-14 -41 29 -57q31 -8 73 -8z" />
    <glyph glyph-name="m" unicode="m" horiz-adv-x="1323" 
d="M1239 2q-22 -10 -113 -10q-90 0 -104 37l8 30l2 2q2 18 0 29l-12 111q0 6 -6 32t-1 96q5 69 1 107t0 68q4 29 -2 59l-4 25q-6 16 -6 30t-3 29q4 23 -9 42t-36 5l-12 -28v4q-23 -42 -31 -96t-29 -98t-31 -121q-9 -77 -15 -92t-19 -58q-22 -121 -47 -158q-2 -7 -8 -25
t-12 -20q-37 -12 -107 -8l-35 2q-31 -4 -47 39q-25 46 -46 136q-21 91 -37 125t-15 94q0 60 -25 79q-4 4 -14 36q-10 31 -10 51t-6 40q4 4 1 10t-3 7t-6 5t-9 7q-12 94 -37 100q-20 4 -24 -59q-4 -64 -12 -120t-7 -100l2 -69q0 -74 -6 -113q-18 -25 -10 -106q4 -88 -2 -109
q-4 -45 -45 -55v2q-48 -14 -82 -14t-62 16q-33 27 -30 37q-4 99 10 157t14 59t1 4t4 13t13 37t9 154v35q2 76 8 114l4 33q2 35 8 49q7 14 11 58t-4 74t2 50q49 54 53 56l33 4q61 12 96 12t92 -14q23 0 29 -11t12 -40l41 -72l18 -57q14 -59 17 -76q9 -79 59 -203
q12 -35 12 -95t21 -124q0 2 16 22q3 2 19 4t16 5v18q4 14 23 90l20 74q19 63 37 157t23 99l28 63q16 43 35 62t25 28l16 19q29 35 43 35l25 2q73 8 83 8t97 -10q20 0 29 -47v-11q10 -53 12 -94l2 -31l8 -47q4 -23 0 -64t5 -101q10 -60 6 -130q-5 -69 -1 -120q4 -25 35 -19
q10 2 10 4v-164q15 -39 17 -59t-19 -37q-2 -18 -4 -17t-6 11z" />
    <glyph glyph-name="n" unicode="n" 
d="M106 63v187q-2 96 6 175t7 154q0 75 3 107t-1 114q-4 81 0 105q-4 19 51 29h2q66 10 119 0q35 -2 53 -37v-2q-2 1 -6 -17t-2 -29t6 -14t16 -3t33 -2q21 -1 45 40q20 6 47 33q10 14 33 27q57 23 90 22h101q27 2 84 -28q53 -34 62 -58t13 -35h-2q8 -33 22 -57t11 -64
q-4 -40 4 -59l-2 2q8 -39 8 -91q0 -61 -12 -179t0 -164q6 -47 6 -92t-10 -80l2 2q-22 -51 -31 -51q-37 -6 -76 -6q-123 0 -118 35q-2 33 6 133l4 47q6 55 6 108l4 156q0 72 4 90q12 29 -4 80l-2 21q0 67 -15 70t-24 22q-19 32 -61 34t-63 -5t-43 -7t-54 -22l-33 -21l4 4
q-37 -20 -37 -47l-8 -24q-16 -62 -16 -148l-8 -215q0 -47 2 -67l10 -132q0 -25 -8 -57q-33 -39 -41 -41l2 2q-80 -25 -148 -8l3 -2q-44 18 -44 32v33z" />
    <glyph glyph-name="o" unicode="o" horiz-adv-x="1005" 
d="M272 368q0 -87 60 -151l10 -14q16 -20 78 -43q124 -46 198 -2l21 14h2q53 25 75 69t26 66q4 23 6 29t2 40t4 56v64q-4 18 1 64t-26 106q-10 25 -17 46t-24 36v-3q-2 2 -55 35l-27 15q-24 14 -64 17t-65 -6t-79 -38t-64 -41l-15 -20q-14 -18 -39 -72t-10 -105q4 -14 0 -39
t-1 -51q3 -24 3 -72zM59 457q0 83 -2 109t17 81l8 25v-4q49 90 88 131q25 23 41 30q61 41 70 50q12 19 62 39t97 26q171 22 228 0l37 -14q45 -16 60 -28t31 -20q16 -10 21 -14q33 -20 66 -73h-2q27 -39 51 -71t28 -42t4 -51t10 -87q9 -46 1 -87q-4 -106 -21 -150l-36 -98h2
l-11 -35q-2 -20 -55 -68l-23 -20q-29 -35 -57 -43t-63 -27q-43 -18 -65 -23t-93 -9h-23q-41 -4 -81 -1t-66 2q-27 -1 -67 15t-72 28t-70 35q-35 29 -57 84l-15 37q-24 50 -33 88t-10 117v68z" />
    <glyph glyph-name="p" unicode="p" horiz-adv-x="942" 
d="M487 788l-38 -2q-27 0 -40 -2t-38 -24t-21 -45q-9 -86 0 -174q5 -56 60 -64q55 -14 81 -7q25 7 29 5l33 -2q20 4 33 25l18 20q8 8 24 19t20 23q5 12 8 32q3 22 10 41t-9 63q-6 29 -34 35q-19 -1 -34 21t-43 33q-28 10 -59 3zM346 240v-168q-37 -94 -110 -97q-25 0 -72 15
q-20 6 -25 41l-4 32q-6 33 -6 87v47l2 6l4 35q6 47 2 84q-4 38 1 82t1 114v94q2 42 -1 56t3 46t2 76q-3 44 3 60t10 26t4 13l-2 -2q10 29 14 28l94 11q111 14 176 14t94 -12q30 -12 62 -13h29q16 2 28 -6l-2 2q18 -12 49 -22q35 -16 62 -31v2q6 -2 20 -30t40 -50
q28 -22 31 -62t11 -55t5 -65t-27 -98q-24 -46 -51 -64h2l-23 -12q-12 -8 -29 -29q-43 -39 -62 -48t-60 -15q-35 -10 -63 -24t-71 -13l-88 12l-39 2l-12 -47l2 2q-4 -14 -4 -24z" />
    <glyph glyph-name="q" unicode="q" horiz-adv-x="1085" 
d="M780 376q0 34 4 56v64q-4 18 0 63t-22 107q-10 16 -18 42t-23 40v-3l-23 19q-16 18 -41 33v-2q-35 20 -105 20t-85 -8q-76 -29 -96 -53q-29 -41 -40 -70t-15 -35t-3 -8q-28 -64 -10 -111q4 -14 0 -39t-1 -51t3 -84q0 -59 10 -88q25 -61 58 -108q37 -43 110 -47
q94 0 144 22l32 17q71 32 89 66t26 89l4 25q2 10 2 44zM90 389v68q0 83 -2 111t18 79l9 23l28 57v-4q45 82 59 97q14 16 32 26q16 10 42 26t35 27q27 35 78 41l35 4q80 8 114 11t107 -4q74 -7 106 -19t59 -35t51 -37t54 -65h-2q14 -27 32 -48t44 -61q8 -14 8 -55t8 -81
q7 -40 3 -120t-28 -140q-24 -61 -30 -81h2l-12 -37q0 4 -72 -61l-26 -25q-27 -35 -60 -43l-10 -37q20 -20 84 -13q148 16 152 -3q4 -47 -4 -88l-7 -29q-12 -39 -36 -51q-31 -6 -37 -4l-29 10l-23 10q-10 6 -38 17h4q-46 23 -58 25t-59 16q-27 4 -63 26t-68 29l-68 10
q-100 17 -144 33t-71 22q-61 20 -100 47q-29 23 -60 84l-14 37q-14 32 -35 90q-8 35 -8 115z" />
    <glyph glyph-name="r" unicode="r" horiz-adv-x="980" 
d="M618 727q-28 28 -65 29h-8q-12 16 -41 13t-43 1h-45q-57 4 -77 -5t-20 -58l-4 -64q0 -62 4 -86q23 -55 66 -39q25 0 41 -4t53 0q42 13 53 16q10 4 17 5q41 2 65 53l15 22l12 27q8 33 -2 57q0 14 -21 35v-2zM113 780q0 64 6 82q23 55 39 62l-2 -2q60 10 110 10t119 -4
l98 -6h47q37 4 74 -11q47 -6 111 -49l6 -6q37 -23 78 -68q6 -8 16 -33t23 -50q8 -51 -2 -72q-16 -57 -41 -88t-54 -78q-3 -5 -37 -21t-57 -38q12 -32 23 -43q6 -51 59 -109l-2 6q29 -41 64 -72q33 -25 57 -69q14 -43 47 -68q33 -29 43 -51l12 -2l-67 -6q-47 -6 -89 -6t-71 6
q-14 8 -31 8l-16 6q-14 35 -43 60q-20 27 -25 36q-25 61 -51 82v-2q-29 29 -37 52l2 -3q-2 20 -23 36t-31 45t-42 46q-25 16 -70 -2q-33 -20 -37 -55l-2 -27q-6 -23 -2 -67l-6 -184q4 -14 -18 -31q-37 -12 -84 -12t-96 14l2 -2q-14 6 -15 20l-2 37q-4 81 2 109t8 42t-16 36
q12 0 12 10q-2 35 2 106v105l9 159q0 37 -9 46l5 26q4 26 4 90z" />
    <glyph glyph-name="s" unicode="s" horiz-adv-x="833" 
d="M393 123q39 0 55 9t38 9t38 21l15 14q27 18 26 47q0 2 4 15q4 45 -2 63t-35 33h3q-29 18 -41 28t-70 25l-27 6q-8 7 -52 15q-45 8 -73 26t-50 29q-22 10 -37 26t-35 29l2 -2q-20 12 -21 10l-2 6q-27 64 -29 94t4 64t6 50t23 44l17 19q4 4 7 10q21 42 48 61q53 43 132 64
q79 20 127 18t73 3q24 5 53 -7l-2 2l51 -18q39 -12 49 -18l39 -13l8 -8q14 -25 10 -33t-6 -17t-6 -16v-2q-12 -45 -24 -59v4q-6 -6 -35 -12l-31 -8q-12 8 -29 20h-4q-4 2 -8 2h8q-45 25 -67 25t-56 4t-68 2t-77 -41q-39 -25 -39 -59q0 -6 4 -35l6 -35q-4 -38 54 -47
q4 -2 14 -2q61 -23 65 -25h3q31 -16 71 -26l47 -13l95 -43q18 -10 45 -43q6 -10 14 -17t14 -34q6 -28 11 -58t8 -46l4 -47q4 -25 -26 -99t-89 -94q-47 -29 -61 -32t-42 -12t-46 -8t-52 -7q-25 -12 -57 -9q-16 7 -52 7q-35 0 -51 9t-69 21l-41 8q-8 6 -24 6t-15 -1
q-2 16 -11 29t-9 26q0 68 24 90q7 4 21 4t32 4h3l12 -8q59 -21 94 -29l33 -10l30 -8h31z" />
    <glyph glyph-name="t" unicode="t" horiz-adv-x="970" 
d="M372 934q24 0 92 4q67 4 107 1q39 -3 69 -3h69l69 2q28 0 56 4t53 -2q-8 0 14 -18q10 -6 14 -11v4l15 -12q27 -41 -8 -98l6 4l-13 -12q-20 -29 -30 -33l2 2q-51 -10 -113 -6t-99 4q-36 0 -48 -33l2 -2q-20 -33 -21 -147l6 -181v-71q2 -49 -8 -129t-6 -113t2 -57
q0 -29 -37 -37q-65 -12 -91 -12t-48 10q-35 35 -37 41q-2 27 2 57t-1 62q-5 33 -5 83t14 89q2 31 -2 84q-8 51 1 125t5 178q-2 10 -17 30t-28 25q-66 12 -163 8h-105q4 4 -10 12l-6 7q-7 20 4 125q0 4 20 18t101 5t115 -8t58 1z" />
    <glyph glyph-name="u" unicode="u" 
d="M356 838q0 -24 -10 -117l-6 -47q-16 -150 -10 -232q6 -18 -2 -69v-6q-12 -25 6 -54q11 -32 8 -45l-2 -35q4 -25 18 -33t19 -20q14 -31 63 -37h6q27 -14 62 2h4l27 15q4 4 20 10h-4q14 4 49 20l10 9q27 10 43 30q12 31 15 41v2q0 4 8 29t8 97t4 98t0 106t-4 100v17
q0 119 14 166t29 45q19 0 71 6t91 -8q21 -39 25 -41q8 -31 1 -113t-8 -88v-65l-2 -68q0 -45 5 -81t-5 -128t-2 -129l6 -106q1 -65 -15 -86q-16 -19 -38 -25t-94 2l-51 4q-10 0 -25 14v7q10 73 -55 71q-16 -12 -31 -30l-22 -21l-74 -43q-36 -18 -65 -15t-61 -1t-50 0h-23
q-47 0 -62 11t-59 60l-18 21q-8 8 -29 63l2 -2q-2 6 -10 29q-10 10 -6 51q-4 37 -16 76q3 14 7 40q4 25 2 53t-1 116v137l-6 86q-4 49 -4 89t12 81q27 33 47 43q21 5 98 -2l47 -4q8 -2 35 -35l4 -8l-6 8q10 -37 10 -61z" />
    <glyph glyph-name="v" unicode="v" horiz-adv-x="913" 
d="M63 890q1 26 3 32t4 9t4 1l49 2q82 4 145 -12q17 -8 27 -27q19 -45 27 -113t14 -102l10 -64q23 -96 39 -146q17 -50 27 -122t28 -119q21 -29 56 0l6 9q14 41 35 122l24 89h-2q4 14 29 120q14 80 28 114q14 33 26 101t26 103q18 31 55 39q86 29 143 12q25 -16 25 -27
q-6 -51 -27 -94q-20 -43 -24 -73t-30 -89t-30 -88l-30 -92q-35 -83 -39 -103q-3 -20 -21 -71t-45 -153t-60 -128q-17 -12 -34 -16l-23 -4q-86 -18 -141 -4l2 -2q-55 18 -63 43q-42 81 -54 149t-45 156l-12 35q-27 75 -35 143t-26 108t-30 69q-11 28 -15 36l-19 62
q-27 68 -27 95z" />
    <glyph glyph-name="w" unicode="w" horiz-adv-x="1228" 
d="M865 -10q-31 0 -65 6t-36 16q-14 39 -29 142l-20 153q-4 19 -10 63t-11 64l-10 51q-19 66 -33 144q-1 18 -23 20t-30 -8q-14 -147 -34 -195t-40 -165l-10 -48l-6 -36q-18 -110 -35 -152q-23 -45 -39 -47q-30 -8 -90 -8t-89 29q-7 7 -7 16l-8 28q-20 93 -24 145t-36 150
l2 -2q-11 31 -23 75q-11 44 -16 58l-20 78q-4 10 -25 129l-4 35q-2 23 -28 84q-23 45 -23 84q8 18 27 23h2q12 2 71 2h66q19 8 39 -23q16 -33 20 -100t13 -96q31 -80 33 -197t40 -223q16 8 31 2q49 83 63 189t28 149t20 71t16 96t25 99q0 2 36 20h-2l25 17q35 16 109 4
l34 -4q8 0 15 -17l14 -26q14 -31 18 -87t14 -96t27 -153l7 -47l4 -41q8 -106 26 -166l2 -2l37 -8q27 63 43 161l8 58q16 96 50 190l24 90q16 76 29 107q8 10 18 16h-2l17 13q27 12 79 8l45 -2q18 2 23 -21q0 -29 -26 -88q-25 -59 -27 -73t-27 -86t-31 -101q-10 -79 -32 -143
t-36 -120q-12 -56 -24 -80q-12 -22 -33 -112l-22 -77q-2 -8 -49 -27q-33 -8 -65 -8z" />
    <glyph glyph-name="x" unicode="x" horiz-adv-x="954" 
d="M798 938q30 0 99 -8h4q4 -2 6 -2q-20 -33 -76 -111q-33 -41 -69 -96v2l-51 -76q-74 -109 -86 -127q-29 -33 0 -61l32 -49q47 -68 69 -113t48 -74q38 -53 58 -91t34 -54l37 -66l4 -10l-22 -2q-57 -4 -96 -4t-74 8l2 -2q-51 24 -60 36q-9 11 -47 80t-104 181q-14 12 -34 12
t-23 -16l-19 -31q-96 -172 -147 -235q-20 -25 -41 -23l-66 -4q-80 -6 -143 -4l65 86q4 6 24 29t91 131l31 53q6 10 22 33t25 37q25 27 55 79q14 12 8 29l-2 21q-47 115 -140 220t-132 204q0 4 4 8t8 2h4l66 2q70 0 135 -10q35 2 41 -15q32 -45 68 -123t71 -125q8 -4 27 12
q19 15 20 17l11 -31q80 135 141 248q8 29 50 31t72 2zM907 928h15q4 4 -2 5t-13 -5z" />
    <glyph glyph-name="y" unicode="y" horiz-adv-x="954" 
d="M130 926q23 0 95 -8q78 -20 82 -29q35 -49 55 -66q18 -23 44 -63q14 -33 55 -80t61 -100l64 100q58 143 92 205q18 20 59 35q37 8 129 8h39l4 -10q0 -4 -2 -9q-10 -51 -43 -98h2q-26 -41 -32 -61t-39 -63q-33 -44 -43 -76t-37 -74l-25 -35q-20 -45 -55 -92
q-66 -104 -72 -131q-10 -63 -82 -173v3q-18 -31 -26 -64q-20 -52 -107 -61q-6 -2 -24 2q-68 0 -68 12q-27 20 -27 27l-6 20q2 7 2 31q-1 24 17 50t26 40l31 63q4 10 51 72q48 63 60 99t-23 79l-27 43l-77 90q-63 74 -81 101t-46 53q-23 26 -35 52t-21 38l-26 45q0 10 2 14v3
q31 8 54 8z" />
    <glyph glyph-name="z" unicode="z" horiz-adv-x="872" 
d="M257 944q58 0 111 -8t218 -8l78 6q61 8 91 8t60 -6q10 -11 14 -18q6 -55 0 -101t-18 -57l-29 -29q-68 -67 -102 -125t-94 -129q-74 -80 -117 -145q-18 -33 -58 -73t-57 -62q-18 -15 -7 -35t39 -24t102 -3q74 0 110 2l139 4q41 0 63 -3t25 -19q20 -65 -14 -109
q-10 -12 -18 -10q-94 -4 -158 -4l-82 -2q-33 -2 -108 2t-121 0t-126 -4h-104q-42 0 -41 16q-19 45 4 96q12 41 23 52l47 61q7 7 51 65t133 160l109 140q2 2 12 15t48 58t57 88q-1 3 1 13t-12 26l-12 6q-31 6 -68 7l-122 -9q-20 0 -81 -6t-96 0q-6 2 -45 35q-29 48 14 108
q9 13 15 11q68 10 126 10z" />
    <glyph glyph-name="braceleft" unicode="{" horiz-adv-x="659" 
d="M647 1174v-13q0 -14 4 -35q12 -29 6 -39t-22 -17t-21 -11q-10 0 -34 4t-45 0q-49 -4 -72 -37q-7 -14 -19 -28t-14 -37l-12 -56l-10 -55q-2 -39 4 -53q6 -15 7 -49t5 -56t2 -55q-12 -57 -25 -88q-12 -35 -55 -43l-22 -6q-33 -14 -78 -19v-35q35 -37 90 -36q10 -2 29 -21
l36 -22q8 -10 23 -70q4 -43 -4 -78l-6 -45q-4 -34 -14 -62t-11 -73l2 -29q0 -55 6 -84q6 -49 47 -73l27 -13q22 -22 65 -12t70 -16q0 -2 8 -11q10 -35 -6 -77q-2 -2 -13 -10t-15 -11q-35 -8 -95 0l-26 2q-57 4 -111 39q-82 35 -88 61q-39 102 -46 171t-5 87v48q-2 27 14 73
q15 46 17 58q2 10 4 12q9 54 -13 76l-8 8q-10 27 -30 37l2 -2q-20 12 -38 12t-27 4q-8 4 -30 1t-49 -3q-6 6 -21 13t-11 40q3 33 4 64q0 4 20 8q19 8 28 8l35 -2h17q26 -3 82 27q35 10 39 39q4 16 0 38t0 44q4 20 -1 51t-2 67t-2 56q-5 21 1 47q12 114 39 180l2 2
q16 47 90 76q106 57 231 51q39 -2 42 -8t3 -14z" />
    <glyph glyph-name="bar" unicode="|" horiz-adv-x="438" 
d="M289 -236q0 -74 -1 -92q-3 -53 -32 -57q-49 -4 -111 4q-27 2 -45 41v-4q-12 37 -3 88t9 101t8 113q8 62 3 92q-4 30 -4 91t7 112t7 91l-8 76q-8 86 -2 127q23 101 19 161t-1 84q4 24 0 62t0 98q4 58 4 92t-5 88q-5 56 1 111q0 27 45 33l2 2q49 14 94 -8q18 -2 30 -7
t9 -14q14 -126 6 -180q-8 -55 -8 -96t-4 -99t0 -80t1 -40t-3 -98t-3 -110t2 -116t-5 -116t-8 -68t2 -99l6 -182q0 -57 -6 -92t-6 -109z" />
    <glyph glyph-name="braceright" unicode="}" horiz-adv-x="659" 
d="M258 718q0 42 7 66q17 57 11 164v8q0 66 -49 80q-29 2 -53 16t-50 7q-26 -6 -32 -4l-10 10q-23 12 -25 20q-10 16 -2 84q0 18 25 19q84 8 114 -2t48 -14t24 -5l76 -18q39 -14 76 -97t37 -130v-76q1 -18 -9 -62t-15 -56q-5 -11 -5 -52v-23q0 -43 10 -63t53 -45l17 -13
q24 -11 41 -6q25 0 55 -4t51 -4l-8 -8l17 -16q4 -24 -4 -46t-7 -38q0 -8 -22 -9l-25 -6q-37 -8 -49 -8q-51 4 -82 -20q-2 -4 -14 -11l-19 -10q-14 -16 -17 -48t7 -48q4 -25 -3 -72t5 -104q13 -115 -29 -252q-10 -35 -96 -92v2q-20 -12 -106 -29l-31 -6q-61 -12 -125 6
q-6 2 -16 16q-23 51 -15 71t31 30q10 8 41 4t53 0q63 4 76 41l8 12q3 9 9 17t18 28q18 55 4 123v117l-10 106q6 20 6 51q6 41 12 48v2q25 31 64 43l36 10q29 8 44 10l-23 23q4 29 16 28q-15 11 -33 11t-23 5t-58 29l-23 37q-31 45 -12 97q8 14 8 56z" />
    <glyph glyph-name="asciitilde" unicode="~" horiz-adv-x="614" 
d="M600 1128q0 -12 -72 -53h4q-20 -6 -22 -12q-7 -3 -31 -5t-33 -11q2 2 1 3t-25 5t-35 0q-10 -4 -39 4l2 -2l-22 6q-18 4 -23 10l-24 25q-43 26 -67 10t-60 -23q-12 6 -37 -12l-19 -12q-8 -6 -20 0h4q-41 20 -51 37q2 8 2 26t4 25l24 29q6 10 19 20l82 33q16 6 42 6t44 8
q4 0 20 -9q16 -10 50 -26t57 -8q11 -4 25 -9t29 -3t28 2h20q29 16 35 22l20 17q4 2 31 -4q18 -10 47 -58q-10 -20 -10 -41z" />
    <glyph glyph-name="uni007F" horiz-adv-x="0" 
 />
    <glyph glyph-name="nbspace" unicode="&#xa0;" horiz-adv-x="1792" 
 />
    <glyph glyph-name="exclamdown" unicode="&#xa1;" horiz-adv-x="555" 
d="M375 727q-39 -43 -101 -31q-39 -8 -79 21l-19 14q-18 23 -26 66l-5 39q-10 43 31 90q24 26 104 26t102 -24t36 -111q12 -45 -43 -90zM379 138q0 -34 8 -110t5 -98t-42 -55q-34 -8 -70 -8t-98 14q-29 11 -43 41q-8 53 -8 62l23 161l6 68q4 47 8 162v51q0 26 12 57l8 19
q8 20 26 25t46 5t72 -12v2q14 -6 20 -16t13 -21q10 -31 8 -59l-2 -51q-2 -27 3 -115t5 -122z" />
    <glyph glyph-name="cent" unicode="&#xa2;" horiz-adv-x="806" 
d="M475 293q0 65 -2 88l-2 25q-4 66 -4 100t2 57l4 47q6 53 2 129q-6 21 -16 27l-4 8q-14 8 -41 -4t-37 -15t-21 -15q-10 -12 -16 -15q-6 -4 -18 -28t-14 -26q-2 -3 -15 -31t-15 -85q-2 -55 -7 -89t3 -71l9 -33q6 -44 19 -74t54 -71q6 -10 31 -22l19 -11q16 -5 38 10
q23 16 23 18l6 -17q2 33 2 98zM532 1118h31q0 -34 -3 -64t-1 -42l10 -35l-2 2q2 -6 1 -21t7 -19q9 -5 23 5l104 -12q14 -4 29 -6t21 -15q14 -16 18 -47v-2q-2 -35 -27 -106h-41q-16 0 -26 10t-48 25q-36 14 -63 2q-20 -14 -20 -31v-8q-2 -35 2 -91q4 -57 -3 -99t-7 -140
l-2 -45l-9 -119q0 -51 11 -84q18 -10 18 -18q10 -8 39 -6t45 16q31 18 70 18l22 -14h-2q15 -18 21 -46t12 -48q8 -12 -4 -29l-21 -4q-49 -12 -73 -29q-41 -18 -93 -24q-18 4 -23 0t-24 -41q-6 -17 -1 -45t1 -38t-10 -26q4 -2 12 -4l-22 -4q-8 -2 -21 -2l-16 18q-8 4 -10 0
l2 21q8 51 -6 88q2 -2 2 0q1 23 -7 34t-28 7h-43q-29 -2 -68 6q-63 31 -86 62q-12 20 -45 41q-29 25 -43 47l-16 32q-33 74 -39 100t-10 87l-4 43q-9 84 8 153l-2 -2q27 79 35 123t61 86q23 14 70 70l16 24q25 27 86 52l33 12q16 6 35 8l26 4q14 0 49 35q14 33 8 73t-2 58
q2 -8 9 -2l18 14q0 -8 16 -8zM467 212v1v-1z" />
    <glyph glyph-name="sterling" unicode="&#xa3;" horiz-adv-x="1148" 
d="M795 744q0 -10 10 -42h-2q12 -39 6 -47t-8 -8l-4 -2q-16 -21 -27 -27q-25 -6 -82 -2t-80 -2q-51 -37 -28 -55l10 -27q6 -14 20 -46t17 -238q-4 -16 7 -34t34 -15q32 -5 62 -17t64 -11t76 -7q92 -17 162 14q23 10 29 10q0 -4 7 -6t10 -8t18 -12q12 -23 8 -84l-2 -23v-8
q0 -33 -2 -33q-18 -8 -76 -24l-39 -15l2 5q-39 -12 -149 6q-100 8 -152 20t-108 12t-88 8t-84 7q-52 0 -91 -13h4l-30 -8q-72 -18 -123 -22q-10 -2 -29 22q-24 58 -18 119q6 31 28 53h-2q23 18 105 31q75 3 98 -1q24 -5 29 -5l-21 14q-4 8 16 34t31 19l15 -16q-4 40 -4 94
t-19 99l-16 43q-16 47 -31 69q2 23 -8 29t-28 9t-32 7q-16 4 -66 0t-67 4q-33 18 -41 41q-4 10 0 41l3 37q-2 20 24 33h-4q14 6 55 -1t52 -6t25 21q13 20 7 45l-8 58q-4 25 -7 63t15 109h-2q14 29 15 39q8 56 57 102q90 72 135 86q20 10 98 18q77 8 95 12q18 5 56 2t86 -2
q50 1 91 -24h-2q16 -14 47 -18q30 -4 50 -13t14 -27t-12 -60q-6 -44 -17 -61q-12 -17 -45 -22q-18 0 -47 21q-57 29 -62 29q-63 18 -178 22q-27 4 -59 -7t-49 -34q-53 -57 -60 -119q-10 -100 49 -221q10 0 14 -3t31 -17q45 0 101 6t94 0l2 -2h2q23 -8 23 -18z" />
    <glyph glyph-name="section" unicode="&#xa7;" horiz-adv-x="1032" 
d="M301 643h2q-27 -31 -33 -45q-20 -27 0 -78l6 -26q6 -35 25 -56q47 -43 115 -63l-2 2q32 -12 114 -50t131 -57q18 -12 38 -7t28 13q37 12 55 46v-3q20 25 25 70v17q2 43 -19 75q-12 27 -51 66q-23 29 -57 37l-25 10q-214 83 -253 95q-38 13 -52 -1zM256 754v20
q0 25 -12 30t-20 6t-11 -2q-2 -3 -6 1q-3 19 -17 31t-16 28v-8l-4 27q-12 43 -6 64t10 63t10 57q8 6 19 37t46 57q35 25 69 57t64 38t82 22q50 16 68 12l41 -4q47 -10 86 -6q94 0 132 -8l59 -29q4 -2 11 -7t20 -14q12 -9 12 -28q-1 -18 -19 -50t-24 -54q0 -6 -26 -10t-46 14
q-22 20 -43 20l-63 6l-56 4q-20 2 -63 2h-41q-35 6 -86 -36q-10 -6 -35 -39q-2 -10 -8 -15v-86q18 -35 43 -43q0 -2 1 -3t4 -7q7 -14 28 -14q127 -45 168 -74h-2q31 -21 87 -31t103 -32q57 -33 90 -80l13 -19q23 -45 45 -69q6 -8 14 -56l6 -32q4 -16 -4 -68l2 2
q-6 -12 -6 -25l-14 -41l-15 -30q-31 -63 -45 -72q-33 -14 -55 -37q-33 -22 -12 -53v2q16 -25 40 -44t27 -32l6 -18h-2q16 -57 15 -78t-17 -49q-16 -35 -19 -52q-2 -17 -14 -33t-21 -34q-9 -16 -13 -20v2q-20 -43 -76 -70l-41 -20q-39 -18 -70 -27h6l-22 -6q-92 -18 -172 -23
q-20 2 -72 2l-104 6q-33 0 -54 11q-14 12 -34 12l-15 4q-6 12 -18 29v-2q-16 18 -12 28q12 70 22 92q25 31 40 31t32 -10q27 -23 46 -25q18 -2 36 -5t22 -3q48 -16 126 -17t94 6q15 7 56 38q40 31 43 55t15 58q12 32 -41 79q-31 29 -111 56l-75 26q-157 49 -299 154
q-35 29 -37 37l-15 43q-24 41 -28 83t26 111q30 70 52 99q6 14 38 34t39 27h-2q25 13 25 27z" />
    <glyph glyph-name="dieresis" unicode="&#xa8;" horiz-adv-x="690" 
d="M672 1225v-39q4 -61 -17 -80q-41 -47 -98 -35l-39 4q-53 4 -74 15q-35 39 -20 96l8 33q9 51 21 59q47 27 108 22l29 -2q61 -4 76 -20h-2q8 -10 8 -53zM262 1240q0 -26 4 -40h-2q4 -18 -4 -51t-18 -47q-23 -33 -101 -33h-14q-76 0 -92 16q-11 15 -13 55t-4 52q0 70 29 88
q49 37 111 31q53 4 92 -35q12 -10 12 -36z" />
    <glyph glyph-name="copyright" unicode="&#xa9;" horiz-adv-x="1867" 
d="M453 448q0 52 -4 74t3 54q7 34 13 96t42 132q36 72 82 118q130 129 240 149q14 0 54 7t63 1q53 -4 84 -6l84 -6q12 -2 45 -18q43 -16 47 -17h6q50 -4 68 -15t18 -38v-14q-4 -61 -26 -80l-27 -13q-16 -4 -39 -20h-2q-4 -4 -18 3t-21 15q-33 2 -45 13q-32 14 -68 12t-81 9
t-92 -21l-35 -23q-37 -18 -47 -26l-17 -17v4q-65 -61 -93 -166q-27 -103 -15 -157t24 -125l4 -37q6 -68 34 -104t89 -76q61 -33 133 -29q18 0 60 4l59 6q49 4 82 17l27 12q8 6 36 13t35 -5q64 -86 15 -135q-25 -31 -62 -35l-143 -41q-102 -18 -162 -16q-98 8 -184 51
q-37 16 -121 82q-74 53 -92 113q-12 31 -31 110l-12 59q-10 34 -10 86zM215 489q0 -127 37 -221q128 -333 412 -444q145 -56 275 -64q131 -8 293 58q339 137 441 458q25 90 25 184t-2 118q-8 142 -106 298t-193 230q-150 111 -291 125q-102 12 -166 12t-137 -18
q-158 -39 -276 -117t-216 -225q-68 -96 -92 -305q-4 -53 -4 -89zM965 1389q27 -2 114 -25l47 -12q143 -14 193 -39q41 -16 145 -107l56 -39q74 -51 88 -71q23 -25 65 -107v2l33 -61q0 -2 10 -12q60 -88 68 -124t14 -84t8 -61l4 -57q2 -35 15 -78q16 -74 11 -116
q-4 -42 -34 -113q-30 -70 -55 -141t-39 -96q-13 -25 -88 -101l-18 -19q-12 -12 -60 -71t-100 -83q-18 -10 -45 -20t-35 -14l-105 -43q-114 -60 -192 -62q-23 -1 -79 9t-121 1t-91 -1l2 -2q-109 40 -155 70t-99 44v-2q-53 14 -86 39h2q-45 41 -84 92l-35 41q-25 28 -63 62
t-53 75q-37 133 -99 249q-24 44 -26 98t16 149l8 39q8 33 4 90t7 82q27 53 59 94l49 76l33 59q51 84 59 93q27 33 138 106h-2q33 16 65 49v-2q66 51 84 55l47 15q209 70 320 74z" />
    <glyph glyph-name="ordfeminine" unicode="&#xaa;" horiz-adv-x="659" 
d="M205 971q0 -47 6 -74l8 -27q4 -23 21 -36l20 -17l12 -6l15 -10q23 -18 55 -17t56 17t26 17t8 5q14 2 19 13l16 6l2 53q0 37 -2 61q6 35 2 78v15l-2 10l-8 20q-17 45 -25 55t-36 27q-28 16 -46 17h-10q-25 4 -72 -17l-26 -28q-23 -21 -33 -69t-6 -85v-8zM475 1249
q1 0 23 4t73 -4q4 0 11 -16q4 -33 0 -59t0 -54l-4 -100v-55q0 -23 -3 -62v-51l3 -51l-7 -84q-67 -15 -104 -4v2q0 8 -8 26l4 -6q-16 33 -51 2l-23 -8q-21 -11 -59 -14l-25 -2q-27 -8 -43 -6t-18 2l-2 2q-31 4 -40 11t-26 30l-29 30h3q-18 12 -29 47q-37 78 -19 230
q12 51 15 57q31 49 37 62h-2q12 25 51 45l16 10q14 18 29 14l74 6q41 0 57 -4q17 -10 31 -14t18 -8v2q41 -29 53 -22t-10 42h4zM463 1245l-2 19q6 -6 10 -15zM416 739l-2 -1q0 1 2 1zM175 637q42 0 80 -7t83 -12l143 9q51 0 92 -9q16 -8 35 -28t19 -28l2 5v-16
q0 -55 -15 -74l-12 -12q-20 -29 -52 -32t-112 1t-108 2l-158 -8q-31 0 -67 5q-37 5 -63 42t5 90q23 48 59 60q27 12 69 12z" />
    <glyph glyph-name="guillemotleft" unicode="&#xab;" horiz-adv-x="729" 
d="M674 801l2 2q-35 -90 -154 -297q-10 -21 -2 -51q29 -78 66 -133q59 -104 76 -168q-2 -27 -23 -43q-9 0 -23 3t-30 1t-47 16q-21 19 -49 81t-37 77l-27 37q-94 134 -72 172q45 94 97 161q35 57 49 90t45 64l16 10h2l47 17q28 4 46 -14t18 -25zM336 834q15 0 31 -7l22 -16
l-4 -6q-9 -25 -59 -114t-95 -179v-14q-4 -37 9 -56l45 -86q72 -141 86 -196q-6 -25 -15 -35q-80 -41 -96 0q-14 18 -45 82l-45 86q-6 13 -22 33t-19 28q-38 45 -53 84q0 21 -10 51q23 49 44 80t35 55t21 33v-2l74 125l20 27q14 31 49 31q12 -4 27 -4z" />
    <glyph glyph-name="registered" unicode="&#xae;" horiz-adv-x="1867" 
d="M801 778q0 -96 4 -170l6 10q-4 -16 7 -40t28 -25q82 -4 139 8q27 16 55 12q28 2 82 45q23 23 29 70l12 57l4 25q5 30 -32 76q-12 23 -19 28q-8 5 -26 17q-25 25 -52 29l-12 4l-12 2h-21q-21 0 -51 3t-104 -7q-4 -4 -16 -13t-17 -22q-4 -13 -4 -109zM1360 823v-2
q12 -45 7 -65t-5 -56t-10 -55h2q-4 -8 -51 -70q-17 -14 -29 -44t-21 -37q-6 0 -16 -5q-39 -4 -47 -30v2q-25 -20 -12 -47v-4q10 -45 41 -84v2q35 -53 77 -148l37 -78q17 -31 29 -50q12 -20 12 -32v-24q0 -23 -12 -23q-27 -8 -64 -8t-71 6h-2l-4 2q-68 23 -74 35v-6
q-22 28 -66 137q-43 109 -61 143t-33 80t-41 58q-8 8 -10 8q-49 20 -107 -2l-8 -16q-2 -2 -4 -6q-4 -8 -12 -17q-12 -47 -12 -108l14 -187q0 -47 -8 -72q-27 -39 -35 -36l-150 -4q-20 0 -22 40t-2 81q0 42 7 81q7 38 7 98t-8 116t0 114q6 96 2 130t1 86q5 54 5 83l-12 135
q0 73 21 99t159 26l219 -6h2l123 -6l55 -25q17 -8 61 -22t73 -66q55 -100 55 -121zM215 465q0 -119 33 -199q78 -184 166 -278t224 -156q134 -62 305 -68q171 -4 315 60t245 188l27 35q100 125 135 227t35 236l-2 61q-6 176 -94 301v-2q-100 154 -205 238q-125 88 -267 116
t-210 28q-66 0 -117 -15q-133 -27 -281 -130t-211 -230v2q-98 -165 -98 -414zM1815 645v-47q2 -34 13 -92t2 -108t-52 -165q-8 -33 -18 -89t-34 -83q-74 -81 -110 -115t-71 -88q-36 -54 -62 -65q-61 -31 -174 -69l-101 -48q-14 -6 -31 -16t-29 -16l-18 -9q-29 -14 -100 -2
q-68 6 -76 7l-55 -2q-76 -4 -133 9t-133 58l-33 14h4q-44 15 -63 25q-63 20 -103 61l-35 35v-2q-45 39 -79 86v-2q-10 16 -60 66q-35 29 -65 71q-35 59 -56 170q-6 25 -34 82q-52 89 -26 192q15 58 15 97l2 47q4 92 23 129q33 76 96 154q6 10 42 76q35 66 55 95
q20 28 106 75h-2l39 20q27 16 57 51q55 51 84 60q162 55 367 82h2q45 8 143 -31q20 -12 27 -12q92 -8 184 -35q29 -6 78 -60q27 -35 63 -59q111 -59 142 -100l43 -74v2q39 -70 65 -104t78 -140q23 -39 23 -131z" />
    <glyph glyph-name="macron" unicode="&#xaf;" horiz-adv-x="772" 
d="M715 1159h-2q-25 -4 -34 -7t-36 -1h-10q-47 10 -135 10h-25l-180 -8q-18 2 -50 2t-62 3q-29 3 -53 -1t-44 -2t-32 38q-13 37 5 83q6 20 39 31v-2q41 10 48 6t40 0q47 0 88 -4l64 -7q24 0 64 -4t87 6t109 11h35q10 0 31 2l30 -12q27 -10 35 -33q14 -29 4 -70l-6 -26
q-4 -15 -10 -15z" />
    <glyph glyph-name="degree" unicode="&#xb0;" horiz-adv-x="608" 
d="M285 1368q-17 0 -52 -16t-51 -52q0 -10 -9 -34t-1 -45q29 -51 33 -56q35 -14 45 -16l33 -10l2 -2q35 -23 67 -4l29 8q29 12 41 28v-2q29 20 27 56q6 57 -15 86q-10 10 -24 18t-15 19q-23 43 -102 22h-8zM260 1063q-27 0 -44 15t-36 26l2 -2q-44 21 -59 51q-29 33 -27 47
q4 49 0 100q0 2 19 35l18 31q8 23 39 35h6l53 22q25 16 41 13q62 -17 105 -11q49 0 84 -22l18 -27q16 -27 37 -39q14 -23 10 -55l-2 -29q0 -49 -11 -81t-52 -74q-20 -12 -35 -15l-51 -20q-12 -6 -50 -3t-65 3z" />
    <glyph glyph-name="plusminus" unicode="&#xb1;" horiz-adv-x="1705" 
d="M285 401l-62 -2q-63 0 -123 9q-39 0 -41 22q-18 68 6 104t57 46t132 -7l31 -2q57 0 105 -3t84 2q34 5 81 2t102 -3l72 2q80 4 117 0t96 1q58 5 74 1t28 -5t25 -21q13 -38 -6 -98l-4 -21q-8 -16 -21 -16l-45 -4q-100 -8 -143 -7l-51 2q-98 4 -140 0l-188 9q-68 0 -133 -6z
" />
    <glyph glyph-name="acute" unicode="&#xb4;" horiz-adv-x="516" 
d="M492 1356l-9 -2q-29 -25 -118 -119q-94 -106 -152 -139q-24 -9 -57 6l-25 14q-39 23 -49 39q-14 16 -4 21q33 25 135 145q61 84 111 123q18 23 51 6q66 -35 98 -82q11 -14 19 -12z" />
    <glyph glyph-name="paragraph" unicode="&#xb6;" horiz-adv-x="1046" 
d="M870 1284q8 -8 40 -8h19q8 0 9 2l-2 -8q4 -33 4 -59t-14 -210l-8 -86q-4 -39 0 -110q4 -14 4 -76q-4 -21 -4 -77t-4 -86t-2 -80q3 -50 2 -94t-1 -103t-3 -87t1 -92t0 -96q-7 -20 -21 -19t-46 -7q-41 12 -41 49t10 101t8 95l-6 56q-12 90 2 173t10 187v203q-4 37 4 125
t3 166q-4 77 0 112q0 10 30 27l-8 -2l8 4h6zM479 184q0 64 3 146t1 127q-12 68 -69 51h-8l-105 33l2 -4q-70 27 -117 59l-36 29q-31 27 -37 37v-3l-21 37q-27 45 -31 80l-6 45q-18 101 15 244q12 37 57 86l16 18q47 63 140 91q37 10 57 21t50 11q32 0 77 -4h74q77 4 108 -8
l17 -10l30 -15q4 -27 -8 -86t-3 -139t2 -144t-6 -156q1 -91 -5 -187l-2 -25q-4 -45 -4 -81q0 -35 6 -79t-1 -94t-5 -78q2 -26 2 -67v-115q0 -39 2 -55l2 -60q0 -93 -43 -106q-88 -37 -133 -33q-16 0 -33 47h2q-8 25 0 67t12 83l2 67l-2 70q-2 36 -2 100z" />
    <glyph glyph-name="periodcentered" unicode="&#xb7;" horiz-adv-x="436" 
d="M362 496l-6 -25q-12 -68 -30 -86v2q-23 -17 -58 -29t-57 -6l-31 6q-76 14 -92 27h2q-43 37 -31 113t45 104q27 16 111 35q74 6 121 -37q14 -16 22 -49t4 -55z" />
    <glyph glyph-name="cedilla" unicode="&#xb8;" horiz-adv-x="454" 
d="M90 -418h6v-8q0 8 -6 8zM216 -430q-26 2 -47 2h-50q-6 10 -23 10q0 6 -18 25h-2q0 12 6 18q6 25 6 35l2 -8q2 0 22 -9t33 1q0 -2 24 -5t31 5q8 8 28 8t40 16q33 25 4 60q-14 27 -45 43l13 -4q-10 8 -33 8h-23q0 24 -12 21q-4 -1 -29 -11q-6 -4 0 -8l-4 2l-14 18l-14 15
q-4 84 18 122l21 13q25 16 43 35l10 -2l49 -35l2 -2q-25 -38 -16 -66q0 -2 4 -14q-11 0 -9 10q-5 -19 3 -28t32 1q10 0 27 -8q10 -10 36 -12t54 -19h-2q18 -14 23 -67l-15 -74q-12 -39 -35 -59h2q-24 -19 -70 -29t-72 -8z" />
    <glyph glyph-name="ordmasculine" unicode="&#xba;" horiz-adv-x="706" 
d="M461 878q0 16 5 30t8 26l6 24t10 30q7 16 4 28q-6 12 -8 43t-29 74q-16 16 -19 33t-41 39q-39 21 -78 -3q-8 -2 -12 -4l2 2q-25 -4 -49 -39t-31 -55l2 2q-8 -25 -8 -39q0 -15 -8 -53t-2 -55l8 -23q6 -22 10 -49v-2q6 -25 27 -49l10 -17q45 -45 92 -35q16 4 25 5
q27 2 61 55q0 2 5 2q10 14 10 30zM111 584h4q20 4 61 4h178q47 -8 127 -10q79 -2 99 -4q20 -1 26 -1q-4 -3 7 -31t-1 -40q-16 -25 -26 -31q-37 -6 -80 -6t-118 10t-166 0t-126 -8q-10 16 -18 31h2q-16 29 0 51l12 18q13 17 19 17zM70 1072q0 23 20 65q42 72 53 90
q23 18 43 30l23 13h-2q31 20 63 20l39 6q43 8 54 4t54 1q43 4 71 -22q27 -26 46 -30t33 -22l25 -21q10 -10 22 -44t11 -58q0 -25 8 -43t8 -44q0 -27 5 -47t-17 -61q-15 -18 -21 -42t-18 -42t-22 -38t-13 -23q-6 -16 -43 -25l-43 -18l-49 -16q-14 -7 -40 -7t-42 -2
q-17 -2 -59 9h-23q-31 0 -35 4q-33 26 -69 47h2q-25 14 -45 51q-29 43 -27 65t-10 64l-11 35q-3 27 3 53t6 48z" />
    <glyph glyph-name="guillemotright" unicode="&#xbb;" horiz-adv-x="729" 
d="M92 115l-16 47q10 44 47 110t92 179q0 7 6 24t-5 37q-118 214 -136 285q10 26 8 26q37 12 59 13l56 -11q23 -18 49 -86l31 -71q19 -38 43 -70h2q33 -53 51 -90t4 -47l-61 -101q-6 -12 -27 -43t-48 -91q-28 -60 -63 -91v2q-31 -25 -55 -26q-37 18 -37 4zM453 840
q25 0 26 -9q21 -33 51 -90q31 -57 48 -82v3q14 -20 75 -136l17 -30q8 -8 -12 -56t-83 -145v2l-43 -66q-41 -72 -61 -98q0 -2 -55 -20q-20 0 -37 16h2q-16 16 -16 29q14 51 67 153q31 51 66 129q16 23 12 49v9q-25 68 -78 160t-67 139l16 41q23 6 63 2h9z" />
    <glyph glyph-name="questiondown" unicode="&#xbf;" horiz-adv-x="761" 
d="M430 954l31 -2q61 -4 80 -20q37 -54 27 -112t-40 -87h-2q-23 -27 -100 -33q-63 -14 -102 29q-20 16 -31 102q-4 68 37 91l12 8l-4 -4q68 35 92 28zM305 520q6 0 12 -16v16q-4 15 0 21q14 10 35 26v-2q31 27 35 28t26 3t23 0q80 -55 90 -137l4 -39q4 -29 -7 -40t-17 -24
q-20 -47 -84 -73q-12 -9 -48 -23t-65 -33q-50 -20 -57 -84q-4 -35 14 -54t68 -45q89 -46 207 9l22 10q57 42 89 29q5 -2 10 -14t10 -19q31 -51 26 -92l-26 -41q-51 -39 -103 -41q-109 -18 -152 -21q-44 -3 -91 3l-45 6q-45 2 -99 43l-20 16q-53 43 -66 78l-12 41
q-16 47 -14 55t4 17q2 8 6 20t6 23l8 27q12 37 41 55q6 6 38 28t45 36q13 13 32 26h-2l26 16l2 2l-8 -2h6l2 2h5q47 27 59 60l-41 6q0 98 6 98z" />
    <glyph glyph-name="Agrave" unicode="&#xc0;" horiz-adv-x="980" 
d="M457 1446l2 -2q59 -33 178 -195q47 -66 49 -67q12 -4 -2 -33v-4q-6 -10 -61 -41h-7q-45 -20 -63 0q-31 16 -51 36q-20 21 -30 32l-32 33q-20 22 -31 33t-36 41t-68 69q-4 4 -4 10q41 63 94 80q10 0 23 6l-2 -2q35 6 41 4zM295 430q0 -70 9 -96t12 -37q3 -10 6 -14h-3
q11 -41 25 -55t39 -25l43 -25q41 -29 74 -26t106 30l23 17q23 13 29 15t20 15l18 15l2 78q4 41 0 100q8 35 4 104l-2 47l-12 48q-14 53 -36 79q-57 68 -126 68q-12 0 -42 4t-81 -22q-20 -18 -26 -29t-31 -32q-25 -22 -40 -97t-11 -135v-27zM797 928q20 0 90 -13
q20 -3 29 -47t3 -76t-6 -100q4 -51 0 -96t-4 -74v-14l-4 -272l2 -72q0 -18 -5 -74t-5 -84q0 6 -14 6l-23 -6q-47 -10 -78 -10t-80 12v-2q-4 2 -4 18t-4 25q-20 43 -63 0q-25 -6 -49 -22q-8 -2 -11 -2l-69 -13q-40 -4 -70 -11t-86 0t-78 25t-36 34q-14 18 -23 29t-17 19
t-12 13h-2q-25 20 -49 84l-12 28q-35 80 -35 225q0 44 12 109v6q2 5 9 47t15 58t14 26q4 10 24 42q20 30 26 47q23 34 82 75l33 21q35 27 53 22l64 7q35 6 87 5t83 -16l30 -10q28 -9 56 -29t41 -9t-11 44q10 25 97 25zM698 899l-4 14q2 -4 6 -10z" />
    <glyph glyph-name="AE" unicode="&#xc6;" horiz-adv-x="1466" 
d="M1157 541q17 0 37 10q20 11 22 21t4 32t-16 54t-18 49q-2 4 -21 22q-18 10 -20 27q-6 22 -76 39q-39 18 -86 -7h-16q-45 4 -54 -20v2q-19 -28 -31 -40t-26 -30q-14 -20 -18 -28t-7 -10q-31 -51 -2 -80l2 -4q8 -25 37 -27q103 -10 289 -10zM582 227q34 57 34 70v31l2 43
q2 23 -20 36t-129 -1q-130 -26 -156 -78q-20 -23 -28 -58l-2 -2v-4q-8 -59 18 -76q12 -12 21 -18q8 -16 38 -29q20 -4 30 -4t30 -6t40 4t35 13q14 3 62 36h-2q23 8 26 26t1 17zM635 102v7l2 4zM513 539q46 0 69 4q8 6 10 6q25 0 38 27t-7 88q6 31 -39 61l-21 18
q-61 49 -123 38q-61 -11 -73 -15l-72 -14q-33 -4 -53 -25h2q-9 -5 -23 -16q-7 4 -29 6t-26 8l-14 23q-27 31 -23 49l-2 -2q19 47 37 65t57 33l21 6q43 16 114 25l45 8q85 10 104 10t48 -10l20 -8q78 -18 113 -33l16 -17q23 -23 27 -24q45 -25 96 14l23 17l-8 -2l32 14
q45 23 74 23q28 0 68 8q40 10 57 8q117 -24 139 -35q51 -16 64 -35l26 -20q36 -32 42 -50t13 -33t14 -29t15 -44l11 -41q21 -71 22 -102q-4 -15 4 -39t-4 -39q0 -2 -2 -6v4q-14 -29 -33 -31q-49 -10 -141 -6h-119q-66 4 -98 2h-41q-84 4 -158 -10q0 -8 -2 -15q-8 -8 -8 -44
t12 -60v-6q14 -53 68 -103q53 -43 85 -47t76 -4q42 0 52 -2q74 -8 168 31l24 14l33 15q22 -1 45 -15t15 -53q-2 -10 -2 -37t-11 -39h2q-2 -2 -32 -10l-37 -16q-26 -9 -53 -17t-36 -11q-8 -3 -18 -6t-26 -9t-74 -7h-33l-125 -6q-30 0 -104 29q-57 14 -84 37v4q-35 65 -80 80
q-43 20 -45 -12q-16 -33 -154 -103q-3 0 -7 -2q-95 -39 -132 -31q-109 16 -162 31v-2q-27 8 -71 68q-41 51 -55 104q-14 54 -7 90q6 36 10 43q12 37 72 117q36 36 83 52q46 16 52 20l-2 -2q25 8 125 28l64 13q16 4 62 4z" />
    <glyph glyph-name="Ccedilla" unicode="&#xc7;" horiz-adv-x="806" 
d="M384 -354q11 0 35 -5t42 13h8q41 0 55 24l2 11q18 20 -3 46t-29 44q-18 18 -78 8q-2 1 -11 -3t-26 3q-6 4 -10 20q0 33 12 70q14 72 14 82q-7 30 -24 47q-18 12 -60 12h-8l-35 23q-41 15 -54 29t-43 36t-38 44l-29 65q-18 36 -34 98t-6 94q8 32 8 132v39q-6 55 28 110
l23 25q29 35 54 75t60 58q37 18 75 36t57 29q51 41 95 38t89 -10t65 -7l113 -23q12 0 10 15l19 -39q10 -27 10 -41q-4 -12 -4 -33q-6 -35 -14 -41q-27 -20 -41 -20q-13 0 -33 10q-52 27 -141 20h-19q-36 0 -80 -14v2q-49 -12 -65 -35l-25 -24q-64 -64 -66 -107
q-2 -44 -8 -74t-2 -86l2 -41q0 -38 23 -90l14 -39l-2 2q16 -72 94 -92v2l43 -14q41 -18 70 -25q49 -18 102 11l17 12q35 25 41 24l21 -4q15 -2 22 -14q40 -48 43 -96l-6 -25l-13 -22q-8 0 -12 -2h-2q-21 -5 -29 -9t-53 -10q-31 0 -42 -5t-37 -7t-44 -16q-16 0 -23 -8t-2 -19
q5 -10 -12 -57l-2 -9q-2 -3 -2 -8l6 13q-3 -2 -5 -18q-1 -15 16 -28q16 -5 26 -8q10 -2 27 -8l29 -6q-2 2 -11 6l21 -6q26 -8 48 -20t16 -48q-6 -35 -2 -54q3 -19 -7 -46t-37 -47q-2 0 -35 -14q-25 -4 -36 -17q-15 -4 -53 -6t-48 -4t-36 5t-56 7q-3 15 -22 27l-2 2
q4 18 6 20l12 31l2 4q16 -8 24 -14q7 -6 18 -6zM342 -334h-6l-6 2l8 4q4 0 4 -6zM524 -18l-2 -2q0 2 2 2z" />
    <glyph glyph-name="Egrave" unicode="&#xc8;" horiz-adv-x="954" 
d="M413 492q41 0 109 10t127 14q17 2 31 39t7 61q-6 24 -3 39q-8 39 -22 54l-5 2l-12 14q-15 31 -29 37t-19 9t-7 5t-20 10t-23 11q-27 2 -73 4t-79 -27q-27 -18 -37 -44t-49 -68q-6 -6 -7 -58t7 -69q8 -25 33 -37q31 -6 71 -6zM801 193q18 -9 47 -9q14 -18 21 -48t1 -44
q-16 -25 -16 -35q-12 -31 -53 -37l-62 -12q-33 0 -69 -12l-27 -8q-76 -25 -88 -23h-55q-96 0 -150 13q-95 23 -192 145l-6 6q-25 45 -48 107t-24 67q-31 55 -14 146q26 105 36 197q6 50 58 95h-2q16 10 28 40t34 48q22 17 58 33t44 20t17 8q9 3 20 8t17 6t52 20q18 12 56 6
t67 -2q43 0 100 -17l25 -6q41 -12 84 -51q45 -31 63 -68l-2 11l4 -13q39 -90 39 -146t8 -77t-3 -44t-12 -29t-5 -13q-4 -8 -6 -14q-17 -51 -31 -51h-4q-33 -4 -55 -13v2q-31 -10 -61 -8t-84 -5t-107 -7l-172 -8q-39 -33 -45 -49t6 -50h-2q14 -53 47 -65l18 -14
q60 -72 172 -62q44 4 74 2t90 19l41 14q23 8 41 17t27 10zM430 1425q61 -29 152 -159q57 -74 80 -97q10 -4 -6 -30t-46 -39l-30 -13q-12 -6 -48 7l-2 2q-62 30 -136 112t-130 127q2 6 6 13v-2q31 39 88 67q10 0 17 4l-2 -2q49 14 57 10z" />
    <glyph glyph-name="Eacute" unicode="&#xc9;" horiz-adv-x="954" 
d="M413 492q41 0 109 10t127 14q17 2 31 39t7 61q-6 24 -3 39q-8 39 -22 54l-5 2l-12 14q-15 31 -29 37t-19 9t-7 5t-20 10t-23 11q-27 2 -73 4t-79 -27q-27 -18 -37 -44t-49 -68q-6 -6 -7 -58t7 -69q8 -25 33 -37q31 -6 71 -6zM801 193q18 -9 47 -9q14 -18 21 -48t1 -44
q-16 -25 -16 -35q-12 -31 -53 -37l-62 -12q-33 0 -69 -12l-27 -8q-76 -25 -88 -23h-55q-96 0 -150 13q-95 23 -192 145l-6 6q-25 45 -48 107t-24 67q-31 55 -14 146q26 105 36 197q6 50 58 95h-2q16 10 28 40t34 48q22 17 58 33t44 20t17 8q9 3 20 8t17 6t52 20q18 12 56 6
t67 -2q43 0 100 -17l25 -6q41 -12 84 -51q45 -31 63 -68l-2 11l4 -13q39 -90 39 -146t8 -77t-3 -44t-12 -29t-5 -13q-4 -8 -6 -14q-17 -51 -31 -51h-4q-33 -4 -55 -13v2q-31 -10 -61 -8t-84 -5t-107 -7l-172 -8q-39 -33 -45 -49t6 -50h-2q14 -53 47 -65l18 -14
q60 -72 172 -62q44 4 74 2t90 19l41 14q23 8 41 17t27 10zM801 1335q-6 -8 -40 -43t-52 -55q-113 -125 -161 -145t-56 -15l-23 13q-49 22 -55 33t-12 19t-6 9t18 19t97 118t130 129q23 14 55 6l-2 2q45 -16 101 -79h-2z" />
    <glyph glyph-name="Ecircumflex" unicode="&#xca;" horiz-adv-x="954" 
d="M653 1090q-24 8 -27 11t-20 36q-33 53 -61 67q-12 16 -44 11t-48 -21q-63 -79 -80 -91q-19 -11 -63 -19t-93 24l-14 16q47 78 143 160l29 21q47 37 114 84h-4l23 8q31 -9 35 -11q11 -10 63 -65q19 -25 71 -71t103 -117q4 -1 0 -11t-10 -12h8l-14 -4q-55 -27 -90 -21l2 -2
zM413 492q41 0 109 10t127 14q17 2 31 39t7 61q-6 24 -3 39q-8 39 -22 54l-5 2l-12 14q-15 31 -29 37t-19 9t-7 5t-20 10t-23 11q-27 2 -73 4t-79 -27q-27 -18 -37 -44t-49 -68q-6 -6 -7 -58t7 -69q8 -25 33 -37q31 -6 71 -6zM801 193q18 -9 47 -9q14 -18 21 -48t1 -44
q-16 -25 -16 -35q-12 -31 -53 -37l-62 -12q-33 0 -69 -12l-27 -8q-76 -25 -88 -23h-55q-96 0 -150 13q-95 23 -192 145l-6 6q-25 45 -48 107t-24 67q-31 55 -14 146q26 105 36 197q6 50 58 95h-2q16 10 28 40t34 48q22 17 58 33t44 20t17 8q9 3 20 8t17 6t52 20q18 12 56 6
t67 -2q43 0 100 -17l25 -6q41 -12 84 -51q45 -31 63 -68l-2 11l4 -13q39 -90 39 -146t8 -77t-3 -44t-12 -29t-5 -13q-4 -8 -6 -14q-17 -51 -31 -51h-4q-33 -4 -55 -13v2q-31 -10 -61 -8t-84 -5t-107 -7l-172 -8q-39 -33 -45 -49t6 -50h-2q14 -53 47 -65l18 -14
q60 -72 172 -62q44 4 74 2t90 19l41 14q23 8 41 17t27 10z" />
    <glyph glyph-name="Edieresis" unicode="&#xcb;" horiz-adv-x="954" 
d="M413 492q41 0 109 10t127 14q17 2 31 39t7 61q-6 24 -3 39q-8 39 -22 54l-5 2l-12 14q-15 31 -29 37t-19 9t-7 5t-20 10t-23 11q-27 2 -73 4t-79 -27q-27 -18 -37 -44t-49 -68q-6 -6 -7 -58t7 -69q8 -25 33 -37q31 -6 71 -6zM801 193q18 -9 47 -9q14 -18 21 -48t1 -44
q-16 -25 -16 -35q-12 -31 -53 -37l-62 -12q-33 0 -69 -12l-27 -8q-76 -25 -88 -23h-55q-96 0 -150 13q-95 23 -192 145l-6 6q-25 45 -48 107t-24 67q-31 55 -14 146q26 105 36 197q6 50 58 95h-2q16 10 28 40t34 48q22 17 58 33t44 20t17 8q9 3 20 8t17 6t52 20q18 12 56 6
t67 -2q43 0 100 -17l25 -6q41 -12 84 -51q45 -31 63 -68l-2 11l4 -13q39 -90 39 -146t8 -77t-3 -44t-12 -29t-5 -13q-4 -8 -6 -14q-17 -51 -31 -51h-4q-33 -4 -55 -13v2q-31 -10 -61 -8t-84 -5t-107 -7l-172 -8q-39 -33 -45 -49t6 -50h-2q14 -53 47 -65l18 -14
q60 -72 172 -62q44 4 74 2t90 19l41 14q23 8 41 17t27 10zM586 1200q2 6 7 40t24 51t54 19t54 9q43 -2 84 -34t33 -75q-16 -76 -37 -100v2q-12 -14 -62 -18q-18 -4 -45 -11v2q-20 -6 -54 -1q-82 12 -58 108v8zM212 1287q26 26 99 26q102 15 116 -56q5 -23 1 -35t-8 -54
q-4 -44 -17 -64v2q-29 -29 -101 -23t-106 34q-32 28 -21 86t37 84z" />
    <glyph glyph-name="Igrave" unicode="&#xcc;" horiz-adv-x="436" 
d="M135 1425q55 -27 164 -174q35 -49 66 -84q16 -6 -9 -26q-31 -31 -77 -64q-10 -8 -46 15q-66 35 -215 188h2q-14 16 -45 43q-8 23 0 31l15 14q39 43 82 54t63 3zM109 281q1 43 -1 81t6 88t3 112q-6 62 2 101q8 40 4 109t7 104t44 42q16 0 53 6t52 -6q49 -8 58 -52t5 -112
t-2 -96t-5 -84t-7 -109l-6 -139q0 -50 9 -104t9 -94t-8 -67q-27 -68 -60 -71q-24 -4 -56 -4t-46 8q-57 35 -55 49q-4 43 -4 137l-2 72v29z" />
    <glyph glyph-name="Iacute" unicode="&#xcd;" horiz-adv-x="436" 
d="M524 1333q-2 0 -2 2q-43 -31 -128 -124t-130 -119l10 2q-54 -22 -67 -11q-81 45 -72 86q16 18 68 88q94 135 162 173q27 4 47 -5q80 -29 108 -69q0 -2 4 -15q3 2 21 0l-15 -2l-6 -4v-2zM344 813q0 -27 -6 -69t-2 -77q4 -36 -3 -112q-7 -75 -6 -103t-3 -88t0 -108l6 -59
q6 -43 6 -80t-8 -68q-6 -29 -62 -55q-25 -10 -98 4l-2 2h-4q-39 8 -60 47v-4q-8 29 -8 53t8 86l7 62q2 36 2 80v141l12 205l-14 145q0 27 10 53q35 38 71 56t93 -11q31 -4 49 -39l-2 11q14 -45 14 -72z" />
    <glyph glyph-name="Icircumflex" unicode="&#xce;" horiz-adv-x="436" 
d="M356 1100q-4 4 -20 37q-41 57 -62 67q-12 16 -45 11t-51 -27q-66 -81 -79 -89q-13 -7 -58 -15t-96 24l-15 16q47 76 144 160l30 21q59 49 115 84h-4l23 8q31 -11 34 -11q11 -10 64 -65q19 -27 72 -73t100 -115q4 -1 1 -11t-9 -12h6l-12 -4q-55 -27 -91 -21l3 -2l-25 7z
M350 804q0 -32 -8 -93l-4 -33q-24 -149 -12 -217q2 -20 2 -101q-4 -68 2 -104t6 -114q0 -79 -32 -125q-20 -29 -91 -29q-28 0 -55 8q-25 10 -43 55l2 -2q-8 27 -8 60l8 139v43l10 381l-4 151q0 37 4 58q0 2 37 24h-2l22 15q14 10 88 -7l23 -4q27 -4 47 -45v4q8 -32 8 -64z
" />
    <glyph glyph-name="Idieresis" unicode="&#xcf;" horiz-adv-x="436" 
d="M329 1143q-7 27 -3 44t6 51t21 50t75 25l35 6q80 8 96 -21h-2q23 -47 16 -90q-4 -68 -22 -100q-35 -39 -100 -29q-13 0 -55 8t-54 19h4q-10 10 -17 37zM-84 1206q-10 50 42 88q24 18 74 22q50 5 95 -18l31 -14q14 -4 18 -33t-1 -38t-8 -49t-9 -50q-41 -29 -107 -33
q-88 0 -106 21q-16 25 -29 104zM113 254l2 47q6 143 8 177t-2 92t-1 101t-4 107t5 94q22 42 55 46h2q30 6 58 0t49 -7q49 -4 57 -39q12 -35 3 -101q-9 -65 -7 -95t2 -78l-8 -225l-6 -211q0 -80 -4 -94l-7 -13q0 -2 -11 -26t-32 -35l2 2q-35 -18 -102 -4h-4q-6 2 -8 2
q-56 11 -54 47q-2 47 2 113t5 100z" />
    <glyph glyph-name="Eth" unicode="&#xd0;" horiz-adv-x="978" 
d="M57 520l2 -2q-2 -2 -2 2zM371 408q-2 0 -6 -2h-5q-24 0 -32 -4t-18 -24q-10 -22 -9 -65q0 -43 6 -123q12 -37 50 -43q39 -5 65 1t42 7t50 9q33 8 63 12t46 26q16 21 28 44l21 28l16 24t21 30q8 76 18 130t-2 99q-35 111 -72 137l-16 6q-12 18 -35 28t-115 22
q-92 14 -139 2q-49 -43 -41 -125l2 -23q4 -29 2 -47l-2 -53q31 -14 51 -8l-2 -2q4 2 27 -10q23 -14 29 -34t-1 -29t-40 -13h-2zM233 934q45 0 95 -6q88 -4 137 -2q37 8 80 0t61 -18t47 -13q45 -10 59 -22q14 -11 55 -29q40 -18 58 -47q10 -12 27 -52q10 -39 29 -65v2
q35 -55 41 -117l-4 -82q-8 -162 -50 -209q-22 -30 -32 -74t-21 -59q-35 -55 -110 -80q-31 -10 -58 -35t-76 -27q-49 -3 -64 -4t-31 -5t-70 -4q-43 6 -89 2l-32 -2q-160 -3 -182 8q-21 12 -19 24q-2 68 3 126t7 90q2 30 8 67t2 96h-88q-37 15 -12 64q12 35 28 42t24 2
q9 -5 24 -5l-21 18q12 12 33 94q20 82 20 158t-8 107q20 57 129 57z" />
    <glyph glyph-name="Ntilde" unicode="&#xd1;" 
d="M366 1292q26 0 59 -4q32 -4 75 -21t52 -20t11 -4q66 -16 105 -2q10 4 28 29q14 14 23 14h24q14 0 21 -4v2q37 -23 39 -35l-6 -30q-4 -25 -4 -35q-17 -38 -64 -54q-78 -37 -135 -28q-41 12 -78 33l-41 18q-25 10 -61 8t-56 -12h2l-20 -19q-12 -20 -29 -26q-4 -4 -11 4
t-24 12h5q-33 18 -41 41q-4 33 4 41q48 71 69 82q27 10 53 10zM655 940q27 0 40 -7t57 -20l43 -10q6 -2 24 -29q14 -29 39 -38h-2q14 -10 35 -64v6q11 -43 5 -80q-5 -36 -4 -54t-5 -81t1 -116t7 -121l-2 -90q0 -119 -14 -199q0 -14 -33 -43l-8 -8q-33 -18 -127 6
q-31 5 -39 46q-4 22 6 130l4 35v65q-4 62 0 102t4 97q-4 53 0 81t0 42q-6 14 -6 28v31q0 35 -8 59t-45 49q-37 26 -74 19l-33 -4q-33 -13 -37 -6l-43 -16q-33 -12 -39 -19l7 2q-23 -17 -49 -59q-26 -41 -23 -62l-2 -45q-2 -25 -2 -77t4 -77t-4 -83t-7 -116q3 -182 -15 -200
q-30 -32 -177 -12q-23 0 -31 25q-6 51 0 117t6 100q0 32 7 104q8 72 8 111l4 151l-10 160q0 57 12 113q4 21 51 41q18 10 74 -4v2q26 -10 52 -14t44 -27q-12 -24 -12 -27l20 16l7 -14q4 -16 11 -30t9 -15q19 9 31 31t12 30q43 16 47 19l47 18l27 13q37 20 65 18h41zM408 733
l6 4q-4 -4 -6 -4z" />
    <glyph glyph-name="Ograve" unicode="&#xd2;" horiz-adv-x="1005" 
d="M633 170q106 52 106 201q0 33 4 57v61q-4 19 1 65t-25 103q-10 25 -16 47t-23 35v-4q-25 20 -55 35l-31 16q-22 14 -60 16t-63 -6q-25 -9 -79 -38t-64 -41l-13 -19q-10 -14 -39 -65q-26 -60 -10 -109q4 -16 0 -40t-1 -50t3 -72t13 -78t55 -83q18 -20 78 -43
q121 -47 196 -2l21 14h2zM952 623q0 -41 8 -80t4 -117t-16 -107q-10 -28 -25 -62t-18 -50h2l-10 -35q-4 -27 -55 -66l-21 -22q-29 -33 -59 -41q-71 -36 -108 -45q-36 -10 -107 -14h-25q-39 -4 -79 -1q-39 3 -67 2t-66 15t-64 23t-68 36q-41 29 -63 86l-15 37q-41 74 -43 203
v66q0 81 -2 107t17 81l8 25v-5q54 93 78 119t66 53t53 40t61 33t80 28q198 21 239 2l37 -16q63 -25 85 -41q21 -17 30 -21h-2q31 -18 65 -72h-2q10 -17 76 -106q6 -14 6 -55zM356 1423q35 8 41 2q54 -28 196 -218q11 -15 18 -25t12 -15q12 -4 -2 -32v-2q-8 -12 -62 -43h-6
q-45 -16 -61 0q-38 20 -138 126t-106 113q-6 6 -6 12q45 66 92 78q12 0 24 6z" />
    <glyph glyph-name="Oacute" unicode="&#xd3;" horiz-adv-x="1005" 
d="M633 170q106 52 106 201q0 33 4 57v61q-4 19 1 65t-25 103q-10 25 -16 47t-23 35v-4q-25 20 -55 35l-31 16q-22 14 -60 16t-63 -6q-25 -9 -79 -38t-64 -41l-13 -19q-10 -14 -39 -65q-26 -60 -10 -109q4 -16 0 -40t-1 -50t3 -72t13 -78t55 -83q18 -20 78 -43
q121 -47 196 -2l21 14h2zM952 623q0 -41 8 -80t4 -117t-16 -107q-10 -28 -25 -62t-18 -50h2l-10 -35q-4 -27 -55 -66l-21 -22q-29 -33 -59 -41q-71 -36 -108 -45q-36 -10 -107 -14h-25q-39 -4 -79 -1q-39 3 -67 2t-66 15t-64 23t-68 36q-41 29 -63 86l-15 37q-41 74 -43 203
v66q0 81 -2 107t17 81l8 25v-5q54 93 78 119t66 53t53 40t61 33t80 28q198 21 239 2l37 -16q63 -25 85 -41q21 -17 30 -21h-2q31 -18 65 -72h-2q10 -17 76 -106q6 -14 6 -55zM831 1341l-12 -4q-45 -31 -141 -131q-86 -94 -125 -119q-16 -6 -72 3q-16 2 -39 28v-2l-18 23
q-14 14 16 44q30 29 104 121t128 123l18 -4h27q35 -10 88 -77q0 -4 6 -11q0 6 20 6z" />
    <glyph glyph-name="Ocircumflex" unicode="&#xd4;" horiz-adv-x="1005" 
d="M674 1090q-25 8 -28 11t-19 36q-33 53 -62 67q-12 16 -44 11t-48 -21q-63 -79 -80 -91q-18 -11 -62 -19t-93 24l-15 16q47 78 144 160l28 21q47 37 115 84h-4l22 8q31 -9 35 -11q11 -10 64 -65q19 -25 71 -71t103 -117q4 -1 0 -11t-10 -12h8l-15 -4q-55 -27 -90 -21l2 -2
zM633 170q106 52 106 201q0 33 4 57v61q-4 19 1 65t-25 103q-10 25 -16 47t-23 35v-4q-25 20 -55 35l-31 16q-22 14 -60 16t-63 -6q-25 -9 -79 -38t-64 -41l-13 -19q-10 -14 -39 -65q-26 -60 -10 -109q4 -16 0 -40t-1 -50t3 -72t13 -78t55 -83q18 -20 78 -43q121 -47 196 -2
l21 14h2zM952 623q0 -41 8 -80t4 -117t-16 -107q-10 -28 -25 -62t-18 -50h2l-10 -35q-4 -27 -55 -66l-21 -22q-29 -33 -59 -41q-71 -36 -108 -45q-36 -10 -107 -14h-25q-39 -4 -79 -1q-39 3 -67 2t-66 15t-64 23t-68 36q-41 29 -63 86l-15 37q-41 74 -43 203v66q0 81 -2 107
t17 81l8 25v-5q54 93 78 119t66 53t53 40t61 33t80 28q198 21 239 2l37 -16q63 -25 85 -41q21 -17 30 -21h-2q31 -18 65 -72h-2q10 -17 76 -106q6 -14 6 -55z" />
    <glyph glyph-name="Otilde" unicode="&#xd5;" horiz-adv-x="1005" 
d="M741 375q0 29 4 53v61q-4 19 1 65t-25 103q-10 25 -17 47t-22 35v-4q-25 20 -55 35l-31 16q-20 14 -60 16t-64 -6q-24 -9 -78 -38t-64 -41l-13 -19q-10 -14 -38 -65q-26 -60 -11 -109q4 -16 0 -40t-1 -50t3 -72t11 -77q18 -32 57 -84q18 -20 78 -43q121 -47 196 -2l21 14
h2q106 52 106 205zM954 623q0 -41 8 -80t4 -117t-16 -107q-10 -28 -25 -62t-18 -50h2l-10 -35q-4 -27 -55 -66l-21 -22q-29 -33 -59 -41q-71 -36 -108 -45q-36 -10 -107 -14h-25q-39 -4 -79 -1q-39 3 -67 2t-66 15t-64 23t-68 36q-41 29 -63 86l-15 37q-41 74 -43 203v66
q0 81 -2 107t17 81l8 25v-5q54 93 78 119t66 53t53 40t61 33t80 28q198 21 239 2l37 -16q56 -22 81 -40q25 -19 32 -22q39 -23 65 -72h-2q10 -17 76 -106q6 -14 6 -55zM328 1116h-31q-8 8 -13 11q-6 3 -10 9t-9 11q-5 6 -9 12t-10 12q-6 18 10 46t64 56t124 17q18 -2 56 -22
v2q38 -27 76 -29l76 -4q38 -1 50 19t17 20q47 6 51 0q35 -32 46 -48t-9 -36h-2q-31 -35 -76 -62q-119 -50 -194 0q-47 20 -68 26t-86 -5h-2q-2 -2 -17 -9t-34 -26z" />
    <glyph glyph-name="Odieresis" unicode="&#xd6;" horiz-adv-x="1005" 
d="M633 170q106 52 106 201q0 33 4 57v61q-4 19 1 65t-25 103q-10 25 -16 47t-23 35v-4q-25 20 -55 35l-31 16q-22 14 -60 16t-63 -6q-25 -9 -79 -38t-64 -41l-13 -19q-10 -14 -39 -65q-26 -60 -10 -109q4 -16 0 -40t-1 -50t3 -72t13 -78t55 -83q18 -20 78 -43
q121 -47 196 -2l21 14h2zM952 623q0 -41 8 -80t4 -117t-16 -107q-10 -28 -25 -62t-18 -50h2l-10 -35q-4 -27 -55 -66l-21 -22q-29 -33 -59 -41q-71 -36 -108 -45q-36 -10 -107 -14h-25q-39 -4 -79 -1q-39 3 -67 2t-66 15t-64 23t-68 36q-41 29 -63 86l-15 37q-41 74 -43 203
v66q0 81 -2 107t17 81l8 25v-5q54 93 78 119t66 53t53 40t61 33t80 28q198 21 239 2l37 -16q63 -25 85 -41q21 -17 30 -21h-2q31 -18 65 -72h-2q10 -17 76 -106q6 -14 6 -55zM627 1288h2q25 18 98 25q82 0 94 -21v4l13 -24q18 -33 14 -51l-6 -43q-8 -49 -19 -60
q-59 -45 -102 -41q-86 4 -109 29q-45 41 -26 84q2 6 12 45q11 40 29 53zM273 1092q-41 0 -56 10q-31 27 -31 98q4 59 41 88h2q31 25 105 21q59 6 91 -21t24 -78l-3 -26q-4 -45 -16 -64q-53 -27 -108 -30q-8 2 -49 2z" />
    <glyph glyph-name="multiply" unicode="&#xd7;" horiz-adv-x="935" 
d="M590 486q0 -20 12 -27q14 -27 43 -60q39 -53 52 -75t71 -80q60 -63 72 -92t22 -38q10 -8 16 -22t-40 -45q-18 -14 -97 -37l-10 -6l-20 10q-23 8 -33 24t-43 57q-33 42 -47 63q-78 98 -105 141q-22 27 -50 18q-11 -4 -9 -22q-49 -82 -143 -191l-64 -75q-14 -23 -41 -23
q-36 12 -62 32t-69 42q-10 10 14 41q39 31 125 166q13 14 62 75q49 52 65 74t17 60q-27 70 -133 194l-23 25h2q-43 45 -69 92t-13 63q39 14 53 23q117 49 127 14q25 -39 134 -180l49 -68q6 -3 26 12t21 16l8 -30q4 6 87 110t99 138q6 29 43 29q59 6 107 -31l18 -12
q10 -27 -65 -141q-5 -6 -23 -37t-71 -76q-66 -66 -99 -113q-16 -18 -16 -38zM502 687v1v-1z" />
    <glyph glyph-name="Oslash" unicode="&#xd8;" horiz-adv-x="1005" 
d="M352 287h6l15 22q16 27 57 95t59 98q16 31 56 80q70 104 86 137q0 9 -9 29t-26 22q-4 2 -4 4q-51 34 -121 23q-39 -4 -88 -49l-18 -19q-49 -39 -50 -100q0 -29 -8 -70l-4 -24q-4 -23 0 -54t-1 -49t2 -73q7 -56 6 -59q-3 -8 11 -9q13 -2 20 -3t11 -1zM526 115q29 1 72 21
q105 50 115 194v24l8 80q8 66 -16 131l4 8q4 25 -9 52q-16 0 -28 -4q8 2 16 -7t-10 -28l-33 28q-93 -136 -119 -194t-77 -139l-48 -82q-6 -8 1 -28t30 -36q23 -29 44 -25t50 5zM401 -23l-79 27v-2q-27 8 -50 -12q-27 -28 -39 -60t-28 -57q-1 -8 -27 -8t-26 4q0 8 -13 25
q-4 4 -12 -3q4 5 18 27l21 33v-2q31 57 33 59q25 16 6 51l2 2q-4 31 -35 66v-2l-25 29q-5 16 -29 56t-24 56q0 104 -4 152q0 66 -10 143q0 45 18 82l13 27q33 76 88 145v-2q51 53 104 72q55 13 103 39t126 18h9q6 -2 44 -7t58 -1l4 -2q4 -4 12 -8l-2 2q76 -47 99 -2
q16 30 29 62t36 58q6 6 22 -3t28 -9t12 2q2 -8 2 -16l2 -14q-4 -23 -35 -58q-27 -38 -35 -60t-10 -26q-6 -31 18 -41l31 -39q10 -8 39 -59q6 -20 20 -39q29 -53 21 -117q-2 -10 3 -58t4 -62t-12 -47q-11 -34 -19 -80t-23 -91l-17 -57q-2 -8 -41 -47l-47 -47q-31 -36 -53 -45
l-29 -11q-46 -20 -82 -21t-56 -6q-116 -28 -163 -16z" />
    <glyph glyph-name="Ugrave" unicode="&#xd9;" 
d="M678 1163l-14 -30q-10 -16 -52 -33l-26 -10q-26 -14 -56 1t-120 115t-119 123q-11 4 -16 11t-3 8q80 66 104 74t62 3h4q2 -2 7 -2l-5 2q0 -2 8 -4q33 -9 102 -106t124 -152zM354 820q0 -34 -12 -94q-12 -61 -6 -144l2 -62q0 -20 -4 -63q-14 -63 4 -117q-4 4 -8 -14
l-4 -21q-2 -23 10 -51l6 -23q0 -37 43 -61q56 -42 100 -25l21 7l-2 -2l26 8q25 10 29 10q32 0 74 35v-2q29 25 29 49l4 8v2q14 27 12 45v37q-4 86 7 153t11 173v22q0 24 -6 84t-1 103t46 47q39 12 162 -6q16 0 17 -28t1 -81l-12 -244q0 -41 4 -102q0 -139 -5 -189t-1 -112
q3 -64 -9 -110t-28 -54q-45 -10 -112 -4l-52 2q-5 -2 -14 12q-10 21 -8 23q10 23 12 28q2 20 -23 30q-26 9 -32 5t-35 -26q-16 -16 -36 -26t-32 -19t-24 -11t-20 -4q-9 -2 -19 -9q-9 -7 -31 -13q-61 -6 -109 -8t-87 28q-63 43 -76 70l2 -2q-4 12 -27 53l-14 35
q-14 36 -13 80t1 71t6 52q4 41 4 117t5 134t2 106t-3 92q0 42 3 66t32 42l12 12l-4 -6q39 23 127 -6h6q31 -2 45 -39l-4 2q8 -31 8 -65z" />
    <glyph glyph-name="Uacute" unicode="&#xda;" 
d="M778 1339l-6 -2q-37 -31 -119 -116q-88 -106 -149 -138h2q-15 -10 -57 4l-25 15q-37 18 -49 39q-13 16 3 26q38 23 119 127q81 103 117 131q20 25 50 7q66 -33 98 -80q10 -15 16 -13zM897 333q0 -56 2 -79l6 -53q6 -39 6 -79t-6 -71q-20 -47 -41 -47h-16
q-158 -12 -172 19q4 -4 6 2l-2 -2q12 37 -4 61l-8 -2q-6 0 -6 18q-71 -13 -79 -34q-2 -7 -18 -19l-53 -37q-91 -48 -178 -24q-14 6 -45 6t-49 10q-40 30 -58 62t-34 52q-36 44 -25 150q10 49 -6 105q-6 59 0 141t6 121v76q0 111 10 180q9 37 29 37q7 0 82 10q25 -2 61 -16
q33 -2 39 -37q10 -37 -1 -105t-12 -106q-1 -40 -1 -100t-6 -117q0 -45 3 -64t-1 -37t3 -32t5 -34t9 -48t17 -36q6 -7 8 -7q1 0 5 -8q3 -7 21 -15l40 -18q14 -12 45 -16t40 6t23 10t35 15t39 24q20 4 39 36q5 8 11 32q6 25 14 45t8 88t3 108q3 39 -2 101t-5 99q0 36 -3 86
t9 91q8 20 31 30l-8 -2q33 13 73 19l17 -2l65 -4l19 -2q12 0 20 -48t8 -102l-10 -201l-4 -102q-4 -78 -4 -134z" />
    <glyph glyph-name="Ucircumflex" unicode="&#xdb;" 
d="M674 1090q-25 8 -28 11t-19 36q-33 53 -62 67q-12 16 -44 11t-48 -21q-63 -79 -79 -91q-17 -11 -62 -19t-94 24l-15 16q47 78 144 160l28 21q47 37 115 84h-4l22 8q31 -9 35 -11q11 -10 64 -65q19 -25 71 -71t103 -117q4 -1 0 -11t-10 -12h8l-15 -4q-55 -27 -90 -21l2 -2
zM488 145q13 0 38 11q2 4 35 15t55 30l41 30q25 17 27 55t2 93t-6 123l10 186q0 47 -2 68l-2 63q0 31 8 64l-2 -2q16 39 37 41q66 12 84 12t80 -12q12 -3 12 -31q6 -17 6 -63t-6 -97l-4 -47q-2 -50 1 -106t3 -88t-6 -110q-6 -77 2 -149q8 -73 8 -113t-6 -67l2 2
q-18 -49 -49 -49l-49 -6q-61 -12 -100 -6q-10 4 -23 16q11 55 -7 73q-17 19 -26 19q-25 -10 -61 -37h2l-88 -57q-31 -12 -64 -18l-30 -4q-55 -12 -86 -2l-37 16q-25 10 -59 21t-62 53q-3 7 -17 31q-13 24 -13 57t-7 63l-6 49q-2 12 -2 48t-3 66t6 120t2 158t-7 110
q0 43 4 109q2 35 43 43h2q59 20 143 -11q41 0 27 -129q-6 -84 -3 -128t-1 -110q-4 -67 0 -102q8 -20 -3 -73t5 -78q2 -2 0 -8t-2 -11q-4 -43 16 -59q2 0 10 -14l17 -25l10 -8q31 -35 59 -30t42 5z" />
    <glyph glyph-name="Udieresis" unicode="&#xdc;" 
d="M768 1311q61 0 82 -19q20 -27 13 -83t-34 -107q-7 -14 -37 -22t-49 -1v-2q-23 6 -67 12t-51 15q-25 25 -15 92q6 110 92 112q38 0 48 3h18zM207 1200q0 49 35 88t102 35q47 4 102 -35q23 -14 15 -80l-6 -28q-7 -52 -21 -70t-94 -27q-84 -4 -113 19q-12 18 -14 48t-6 50z
M899 358q0 -78 2 -101t-3 -100t-4 -101t-10 -40q-11 -14 -35 -18q-23 -4 -69 1t-75 5q-19 -6 -21 5t0 18l-2 -2q4 29 4 34v4q0 49 -38 36t-68 -40h2l-19 -16q-8 -8 -22 -8q-23 -5 -40 -23t-61 -22l-34 -4q-31 -6 -78 -6q-12 4 -41 6t-41 12l-27 22q-43 38 -50 56t-25 44
t-22 40q-5 14 -2 46q6 68 1 118v118q0 110 7 170t-2 152t-4 116q10 50 38 46l41 6q68 12 112 -6q12 0 31 -37q12 -37 12 -55t-12 -123l-4 -43l-12 -179l-2 -43q0 -30 3 -52t1 -32l2 3q-6 -16 -2 -35q4 -20 3 -36t11 -40l8 -23q2 -12 21 -47q3 -24 27 -32t51 2v-2q5 2 31 -6
t42 1l25 11l18 10q-4 -4 2 -1t13 5l-2 -2q37 4 45 33q2 8 16 18l8 10v-2q33 29 27 74l6 96q4 71 4 121t6 135l2 31q2 39 -2 106t2 101q-3 10 35 29l-2 -2q57 12 110 12t66 -14q12 -14 10 -23v-57l2 -74q0 -42 -10 -110t-6 -195v-101z" />
    <glyph glyph-name="Yacute" unicode="&#xdd;" horiz-adv-x="954" 
d="M809 1341q-50 -25 -133 -124q-84 -99 -137 -127q-39 -10 -66 2l2 -2q-27 16 -47 36l-31 23q-4 2 -2 11t11 14q51 51 100 108q96 104 137 139q10 14 43 9h10q25 -10 101 -80zM131 913q22 0 96 -10t80 -24q27 -43 53 -66q18 -23 36 -52t65 -95q32 -34 57 -93l64 97
q62 153 92 204q16 23 55 32t131 9h37l4 -8q0 -6 -2 -8q-10 -49 -41 -96h2q-29 -43 -36 -63q-8 -20 -38 -63q-30 -42 -40 -73t-37 -74l-25 -34q-8 -23 -64 -107t-63 -129q-8 -45 -78 -154v3q-23 -33 -28 -64q-15 -51 -103 -61q-6 -2 -26 2q-66 0 -66 12q-27 20 -27 25l-6 22
q2 7 2 31q-1 24 17 48t24 40l33 63q4 12 50 72t61 96q10 37 -25 78l-27 43l-75 88q-47 52 -79 96t-50 62t-31 46q-12 26 -21 38l-26 45q0 10 2 12v2q31 8 53 8z" />
    <glyph glyph-name="Thorn" unicode="&#xde;" horiz-adv-x="966" 
d="M346 446q0 -8 4 -40q5 -54 58 -62q55 -14 80 -7q24 7 28 5l31 -2q37 2 86 59q14 20 19 55t-11 62v2q-18 35 -49 45l-37 19q-24 11 -70 6l-39 -2q-28 0 -40 -2t-36 -24t-20 -44l-2 -31l-2 -13v-26zM592 756h31q16 2 31 -8t51 -23q36 -14 53 -25v2q10 -4 20 -30t38 -48
q28 -20 30 -61t14 -55q8 -16 6 -37q-4 -74 -39 -139q-14 -31 -43 -49h2l-20 -13q-8 -6 -38 -36t-51 -38t-59 -16q-38 -10 -63 -23q-26 -13 -70 -14l-88 11l-32 2q-18 -53 -19 -72v-14q-30 -66 -58 -79q-53 -25 -122 -1q-23 8 -27 39l-4 34q-6 31 -6 84v48l2 6l4 35
q6 45 2 83q-4 37 1 81t1 112v92q2 40 -1 54t2 44t-1 56l2 -2q-4 10 6 35l5 2q10 57 -17 61q12 0 17 10l-5 -2q18 43 50 49q15 0 51 6t53 -6q49 -8 57 -49q6 -25 15 -24q-10 -10 -6 -70q98 10 110 6q18 0 35 2q10 -2 27 -8q20 -12 53 -12z" />
    <glyph glyph-name="germandbls" unicode="&#xdf;" horiz-adv-x="1062" 
d="M471 778q-8 0 -12 2h4q-53 18 -80 0l-10 -18q-10 -12 -8 -12l-15 -15q-12 -63 -10 -110l2 -70l12 -4q6 -23 27 -33q31 -12 63 -8h15q25 -4 35 2h2q61 8 100 33q29 12 47 28l19 15q16 9 28 65q0 27 -10 43t-18 27v-4q-20 33 -43 38t-35 13q-37 33 -95 4l-2 -4q-8 8 -16 8z
M330 130l2 -94q0 -20 9 -66q9 -44 8 -64t-16 -30t-27 -8q-12 1 -68 -8t-91 -1l-6 22q-2 12 -12 29q0 12 6 27q4 51 -6 94q0 79 4 113t-2 89q0 37 -4 51t2 52q6 37 6 108t8 117l7 53q4 30 0 64t-4 71q1 37 1 72t11 82l-2 -2q12 35 28 37q44 10 84 10t109 -4h16l53 -2
q59 -4 91 0t77 -10t79 -15t81 -24q28 -23 42 -40t28 -23t18 -23l-2 2q4 -27 17 -41l8 -55q4 -20 0 -54l2 3q-8 -20 -9 -30q0 -10 -8 -18t-32 -41q-29 -27 -39 -43l-25 -22l12 4q-8 -4 -10 -40q-2 -35 2 -40q17 -8 39 -26l31 -25q12 -8 29 -41l10 -14l10 -52q6 -45 -18 -85
t-42 -54q-17 -14 -34 -39q-12 -23 -49 -39l-39 -18q-8 -4 -45 -19l-56 -12q-86 -20 -102 -14q-23 2 -50 -7t-42 5q-10 27 -10 91t28 69q20 4 84 4h19q31 4 69 34q10 10 6 9h-2l31 16q25 10 53 39v31q0 23 -20 53t-40 44q-21 13 -30 13q-20 10 -22 13q-5 20 -28 20
q-24 0 -38 5t-20 2t-23 -3h-39q-46 5 -73 -11q-29 -17 -29 -39t-12 -69t-3 -87t9 -96zM352 37q-12 0 -20 18z" />
    <glyph glyph-name="agrave" unicode="&#xe0;" horiz-adv-x="980" 
d="M457 1446l2 -2q59 -33 178 -195q47 -66 49 -67q12 -4 -2 -33v-4q-6 -10 -61 -41h-7q-45 -20 -63 0q-31 16 -51 36q-20 21 -30 32l-32 33q-20 22 -31 33t-36 41t-68 69q-4 4 -4 10q41 63 94 80q10 0 23 6l-2 -2q35 6 41 4zM295 430q0 -70 9 -96t12 -37q3 -10 6 -14h-3
q11 -41 25 -55t39 -25l43 -25q41 -29 74 -26t106 30l23 17q23 13 29 15t20 15l18 15l2 78q4 41 0 100q8 35 4 104l-2 47l-12 48q-14 53 -36 79q-57 68 -126 68q-12 0 -42 4t-81 -22q-20 -18 -26 -29t-31 -32q-25 -22 -40 -97t-11 -135v-27zM797 928q20 0 90 -13
q20 -3 29 -47t3 -76t-6 -100q4 -51 0 -96t-4 -74v-14l-4 -272l2 -72q0 -18 -5 -74t-5 -84q0 6 -14 6l-23 -6q-47 -10 -78 -10t-80 12v-2q-4 2 -4 18t-4 25q-20 43 -63 0q-25 -6 -49 -22q-8 -2 -11 -2l-69 -13q-40 -4 -70 -11t-86 0t-78 25t-36 34q-14 18 -23 29t-17 19
t-12 13h-2q-25 20 -49 84l-12 28q-35 80 -35 225q0 44 12 109v6q2 5 9 47t15 58t14 26q4 10 24 42q20 30 26 47q23 34 82 75l33 21q35 27 53 22l64 7q35 6 87 5t83 -16l30 -10q28 -9 56 -29t41 -9t-11 44q10 25 97 25zM698 899l-4 14q2 -4 6 -10z" />
    <glyph glyph-name="ae" unicode="&#xe6;" horiz-adv-x="1466" 
d="M1167 549q53 0 62 39q0 2 3 24t-9 37q-25 49 -27 66q-6 12 -22 24t-19 25q-8 26 -78 41q-39 14 -88 -6h-14q-47 4 -55 -21v2q-10 -20 -22 -32t-30 -36q-20 -24 -24 -32t-6 -10q-31 -51 -2 -80q10 -31 38 -33q103 -8 293 -8zM563 420q-29 0 -94 -8q-130 -28 -156 -80
q-23 -25 -30 -58v-2q-2 -2 -2 -4q-8 -61 20 -78q12 -12 21 -18q8 -16 38 -29q20 -4 30 -4t33 -6q22 -6 39 4t34 13t63 36h-2q31 10 31 37q0 6 -2 6l35 70v33l2 43q1 25 -15 35t-45 10zM639 102v7l2 4zM514 547q47 0 72 4q6 4 8 4q27 0 40 28t-7 89q6 27 -39 63l-23 17
q-62 49 -123 39t-75 -15l-72 -16q-29 -4 -55 -23h2l-18 -12t-5 -6q-8 4 -26 4q-29 10 -29 12l-17 21q-25 35 -20 51l-2 -2q15 45 35 65t59 33l21 6q43 16 116 27l45 6q85 10 105 10t49 -10l23 -6q74 -16 112 -35l17 -16q6 -5 15 -15q9 -9 11 -10q39 -23 98 17l23 14l-8 -2
l33 14q45 25 75 25t65 8q36 8 60 6q93 -14 109 -20t33 -15q53 -18 65 -33l25 -22q37 -29 46 -55t19 -47t21 -56l10 -41q23 -66 25 -102q-4 -16 3 -42t-3 -38l-2 -4v2q-14 -31 -49 -37t-130 -2h-121q-63 4 -98 2h-43q-84 4 -158 -10l-10 -35q0 -37 5 -59t5 -29l3 -4
q14 -51 65 -98t107 -54q16 -2 58 -2t52 -2q76 -8 172 31l23 14l35 15q20 -1 44 -15q23 -14 15 -53q-2 -10 -2 -38t-10 -40h2q-2 -2 -33 -10l-37 -14q-28 -12 -74 -25l-49 -16q-37 -12 -88 -13h-33l-125 -6q-31 1 -54 11t-68 23t-68 34v4q-39 68 -82 82q-43 20 -45 -14
q-4 -6 -43 -41q-71 -47 -133 -68l-4 -2q-90 -31 -117 -27q-141 27 -164 33v-2q-29 8 -72 70q-37 41 -61 121q-10 39 4 102q0 37 78 133q39 39 125 70q6 0 12 4l-2 -2q31 10 127 28l64 15q14 4 61 4z" />
    <glyph glyph-name="ccedilla" unicode="&#xe7;" horiz-adv-x="806" 
d="M344 -338q85 -43 121 -14h8q41 0 55 26l2 11q16 23 -4 45q-29 41 -30 45q-14 18 -76 8h-6q-15 -7 -33 0q-6 4 -10 22q0 33 12 70q14 72 14 84q-7 30 -24 47q-18 12 -62 12h-8q4 -4 -1 -1t-7 8l-27 16q-43 16 -55 33q-12 12 -37 28q-37 33 -45 50l-27 67q-20 36 -36 98
t-7 96q8 34 9 134v37q-6 59 30 112l21 25q35 43 58 80t71 61q109 53 121 62q55 41 100 37q45 -3 89 -11t79 -10t58 -10t39 -8t14 14l16 -41q10 -27 10 -41q-4 -12 -4 -33q-11 -65 -61 -63q-11 0 -27 10q-44 28 -143 23h-19q-35 0 -82 -15v2q-53 -20 -65 -35l-25 -26
q-37 -37 -51 -63t-16 -58q-3 -34 -9 -62t-2 -85l4 -41q0 -40 23 -93l12 -39l-2 3q16 -74 97 -95v2l43 -14q45 -18 71 -25q49 -18 105 11q43 37 53 36t27 -1q14 -4 20 -17l10 -14l-2 6q33 -49 35 -88q0 -2 -6 -27l-10 -20q-8 0 -15 -2h-2q-20 -5 -28 -11q-9 -6 -47 -8t-50 -7
t-38 -7t-44 -16q-16 0 -24 -8t-3 -20q5 -11 -12 -54l-6 -27q2 2 4 6q0 -18 15 -33q6 -2 37 -8l47 -14q-2 2 -11 6l21 -6q24 -6 48 -20t15 -60q-2 -25 1 -44t-9 -47q-13 -28 -25 -38t-46 -25q-19 -4 -31 -11q-11 -7 -55 -9t-53 -4t-35 5t-58 7q4 0 0 -12q3 14 -24 41
q4 18 6 20l12 31zM344 -338h-6q-6 2 -8 2l8 4q6 0 6 -6zM487 -121q0 10 7 15q-3 -3 -7 -15zM528 -18l-2 -2q0 2 2 2z" />
    <glyph glyph-name="egrave" unicode="&#xe8;" horiz-adv-x="954" 
d="M311 670q-8 -6 -8 -58t8 -74t31 -34q35 -6 75 -6q41 0 109 10t127 14q17 2 31 40t12 48l-5 25t-1 29q-8 39 -24 53l-4 2l-11 16q-17 29 -31 36t-19 10t-7 5t-20 11t-36 11q-16 2 -63 2q-47 1 -77 -24t-41 -51t-46 -65zM504 -35q-98 0 -155 14t-116 64q-20 16 -77 82l-6 6
q-8 16 -27 57q-18 41 -21 45q-18 57 -24 74q-31 55 -14 147q18 92 24 120t12 78t58 98h-2q18 10 32 42t33 50q28 20 62 35q27 8 38 14t30 14q19 9 27 11t38 15t70 9t69 0q43 0 100 -16l27 -6q43 -16 84 -54q45 -31 65 -67l-2 10q43 -103 43 -160t8 -79t-6 -52
q-16 -30 -22 -51q-23 -51 -29 -49h-4q-31 -4 -57 -13v3q-38 -12 -60 -10t-82 -6q-60 -7 -112 -7l-176 -8q-39 -33 -45 -49t6 -50h-2q14 -49 47 -67l20 -14q60 -73 174 -62q44 4 73 2t93 19l41 14q19 6 37 16t31 11q8 -4 29 -5q12 -4 18 -4q18 -20 24 -50t1 -42
q-18 -27 -19 -37q-10 -29 -53 -37l-62 -12q-35 0 -71 -12l-25 -8q-70 -25 -90 -23h-55zM432 1444q63 -33 156 -164q53 -70 78 -96q10 -4 -6 -32t-46 -38l-28 -12q-13 -8 -66 15q-54 24 -143 128q-80 80 -113 107q2 6 6 12v-2q25 35 90 70q10 0 17 4l-2 -2q49 14 57 10z" />
    <glyph glyph-name="eacute" unicode="&#xe9;" horiz-adv-x="954" 
d="M311 670q-8 -6 -8 -58t8 -74t31 -34q35 -6 75 -6q41 0 109 10t127 14q17 2 31 40t12 48l-5 25t-1 29q-8 39 -24 53l-4 2l-11 16q-17 29 -31 36t-19 10t-7 5t-20 11t-36 11q-16 2 -63 2q-47 1 -77 -24t-41 -51t-46 -65zM504 -35q-98 0 -155 14t-116 64q-20 16 -77 82l-6 6
q-8 16 -27 57q-18 41 -21 45q-18 57 -24 74q-31 55 -14 147q18 92 24 120t12 78t58 98h-2q18 10 32 42t33 50q28 20 62 35q27 8 38 14t30 14q19 9 27 11t38 15t70 9t69 0q43 0 100 -16l27 -6q43 -16 84 -54q45 -31 65 -67l-2 10q43 -103 43 -160t8 -79t-6 -52
q-16 -30 -22 -51q-23 -51 -29 -49h-4q-31 -4 -57 -13v3q-38 -12 -60 -10t-82 -6q-60 -7 -112 -7l-176 -8q-39 -33 -45 -49t6 -50h-2q14 -49 47 -67l20 -14q60 -73 174 -62q44 4 73 2t93 19l41 14q19 6 37 16t31 11q8 -4 29 -5q12 -4 18 -4q18 -20 24 -50t1 -42
q-18 -27 -19 -37q-10 -29 -53 -37l-62 -12q-35 0 -71 -12l-25 -8q-70 -25 -90 -23h-55zM807 1352q-6 -8 -40 -43t-52 -56q-121 -131 -165 -150t-54 -13l-25 14h2q-53 27 -61 37q-2 6 -8 14q-5 8 -6 10q-1 3 8 11t100 114q88 113 141 146q20 14 55 6l-2 2q41 -16 101 -82h-2z
" />
    <glyph glyph-name="ecircumflex" unicode="&#xea;" horiz-adv-x="954" 
d="M633 1114q-6 4 -23 37q-33 53 -61 68q-12 16 -45 11q-32 -5 -52 -28q-20 -22 -40 -48t-40 -38t-62 -20t-93 26l-16 15q49 82 145 163l31 21q88 68 117 84h-5l23 8q31 -11 35 -10l-2 2q12 -5 48 -49t91 -92t102 -119q4 -2 1 -10t-9 -11h6l-12 -4q-61 -29 -92 -22l2 -2
l-25 8zM311 670q-8 -6 -8 -58t8 -74t31 -34q35 -6 75 -6q41 0 109 10t127 14q17 2 31 40t12 48l-5 25t-1 29q-8 39 -24 53l-4 2l-11 16q-17 29 -31 36t-19 10t-7 5t-20 11t-36 11q-16 2 -63 2q-47 1 -77 -24t-41 -51t-46 -65zM504 -35q-98 0 -155 14t-116 64q-20 16 -77 82
l-6 6q-8 16 -27 57q-18 41 -21 45q-18 57 -24 74q-31 55 -14 147q18 92 24 120t12 78t58 98h-2q18 10 32 42t33 50q28 20 62 35q27 8 38 14t30 14q19 9 27 11t38 15t70 9t69 0q43 0 100 -16l27 -6q43 -16 84 -54q45 -31 65 -67l-2 10q43 -103 43 -160t8 -79t-6 -52
q-16 -30 -22 -51q-23 -51 -29 -49h-4q-31 -4 -57 -13v3q-38 -12 -60 -10t-82 -6q-60 -7 -112 -7l-176 -8q-39 -33 -45 -49t6 -50h-2q14 -49 47 -67l20 -14q60 -73 174 -62q44 4 73 2t93 19l41 14q19 6 37 16t31 11q8 -4 29 -5q12 -4 18 -4q18 -20 24 -50t1 -42
q-18 -27 -19 -37q-10 -29 -53 -37l-62 -12q-35 0 -71 -12l-25 -8q-70 -25 -90 -23h-55z" />
    <glyph glyph-name="edieresis" unicode="&#xeb;" horiz-adv-x="954" 
d="M311 670q-8 -6 -8 -58t8 -74t31 -34q35 -6 75 -6q41 0 109 10t127 14q17 2 31 40t12 48l-5 25t-1 29q-8 39 -24 53l-4 2l-11 16q-17 29 -31 36t-19 10t-7 5t-20 11t-36 11q-16 2 -63 2q-47 1 -77 -24t-41 -51t-46 -65zM504 -35q-98 0 -155 14t-116 64q-20 16 -77 82l-6 6
q-8 16 -27 57q-18 41 -21 45q-18 57 -24 74q-31 55 -14 147q18 92 24 120t12 78t58 98h-2q18 10 32 42t33 50q28 20 62 35q27 8 38 14t30 14q19 9 27 11t38 15t70 9t69 0q43 0 100 -16l27 -6q43 -16 84 -54q45 -31 65 -67l-2 10q43 -103 43 -160t8 -79t-6 -52
q-16 -30 -22 -51q-23 -51 -29 -49h-4q-31 -4 -57 -13v3q-38 -12 -60 -10t-82 -6q-60 -7 -112 -7l-176 -8q-39 -33 -45 -49t6 -50h-2q14 -49 47 -67l20 -14q60 -73 174 -62q44 4 73 2t93 19l41 14q19 6 37 16t31 11q8 -4 29 -5q12 -4 18 -4q18 -20 24 -50t1 -42
q-18 -27 -19 -37q-10 -29 -53 -37l-62 -12q-35 0 -71 -12l-25 -8q-70 -25 -90 -23h-55zM621 1307q23 18 61 20t49 8q45 -6 90 -37q33 -29 27 -73q-12 -76 -37 -101v2q-13 -14 -47 -18t-59 -12v2q-23 -6 -57 -1t-52 27t-6 82v6q2 8 8 42t23 53zM199 1126q-35 32 -25 90t37 86
t102 27q67 10 99 -20t18 -74q-4 -10 -8 -54t-16 -63v2q-29 -30 -100 -24t-107 30z" />
    <glyph glyph-name="igrave" unicode="&#xec;" horiz-adv-x="436" 
d="M135 1444q57 -31 168 -178q20 -31 66 -84q16 -8 -9 -27q-39 -37 -79 -65q-10 -8 -45 16q-72 35 -218 190h2l-23 23q-15 14 -22 20q-8 23 0 31l13 16q43 42 85 54t62 4zM344 128q0 -30 -10 -67q-29 -70 -60 -71q-22 -4 -56 -4t-52 10t-34 23q-17 13 -18 41t-1 122l-2 72
v31l-2 77q0 40 6 89t2 113t3 105q7 43 3 113t4 99q16 43 49 49q12 0 50 6t55 -6q47 -8 58 -52t7 -118t-2 -90q2 -18 -6 -80t-8 -119l-6 -141q0 -48 10 -110t10 -92z" />
    <glyph glyph-name="iacute" unicode="&#xed;" horiz-adv-x="436" 
d="M528 1350q-2 0 -2 2q-31 -23 -131 -127q-84 -92 -131 -119l12 2l-18 -6q-37 -18 -51 -6q-53 35 -65 53t-7 35q16 18 68 88q98 137 166 176q25 4 47 -4q80 -29 108 -72q0 -2 4 -14q3 2 21 0l-21 -6v-2zM346 824q0 -28 -7 -70t-2 -78q5 -35 -2 -111q-7 -77 -6 -105t-3 -90
t0 -110l6 -61q6 -43 6 -80t-8 -69t-64 -56q-23 -10 -98 4l-2 2h-4q-37 8 -60 47v-4q-8 29 -8 55t8 86l7 62q2 38 2 82v143l6 98l6 111l-14 145q0 27 10 54q41 41 75 57t91 -10q29 -4 49 -41l-2 10q14 -43 14 -71z" />
    <glyph glyph-name="icircumflex" unicode="&#xee;" horiz-adv-x="436" 
d="M385 1104q-9 4 -17 6t-11 5t-19 36q-33 53 -62 68q-12 16 -45 11t-53 -28q-20 -24 -38 -48q-81 -104 -197 -32l-15 15q49 82 146 163l30 21q86 66 115 84h-4l25 8q31 -11 34 -10q13 -12 64 -66q19 -25 74 -73t102 -119q4 -2 1 -10t-11 -11h8l-14 -4q-57 -29 -92 -22l2 -2
zM352 814q0 -34 -8 -95l-4 -33q-22 -161 -10 -219q2 -20 2 -102q-4 -68 1 -104t5 -119t-26 -119q-26 -35 -99 -35q-28 0 -55 8q-23 12 -43 55l2 -2q-8 31 -8 60l8 141v43l10 389l-4 152q0 56 7 61q7 6 17 12t17 11h-2l26 16l-2 -2q16 10 88 -6l23 -4q29 -4 47 -45
q8 -29 8 -63z" />
    <glyph glyph-name="idieresis" unicode="&#xef;" horiz-adv-x="436" 
d="M356 1305q18 16 76 24l35 6q80 8 96 -20h-2q25 -47 20 -103t-26 -90q-31 -41 -100 -30q-15 0 -59 11t-50 17h2q-8 10 -16 37t-3 42t7 53t20 53zM-86 1221q-12 49 44 89q24 18 99 21q27 6 70 -16l31 -15q14 -4 18 -32t-1 -39q-5 -10 -8 -52t-9 -49q-43 -30 -120 -32
t-95 20q-16 23 -29 105zM113 256l2 47q6 147 8 181t-2 94t-1 101t-4 107t5 97q22 43 55 47h2q28 4 58 -1t50 -6t38 -13t24 -34t-1 -92t-5 -100t2 -78l-16 -444q0 -84 -4 -94l-7 -13q0 -2 -11 -26t-32 -35l2 2q-35 -18 -104 -4h-4q-6 2 -8 2q-56 11 -54 47q-2 49 2 115t5 100
z" />
    <glyph glyph-name="eth" unicode="&#xf0;" horiz-adv-x="978" 
d="M55 526l2 -2q-2 -2 -2 2zM303 337q0 -64 6 -144q18 -63 117 -43q29 6 39 6t49 9t64 13q45 6 77 70l23 31q4 6 10 14t13 20t12 19q10 78 20 132t-2 99q-39 117 -74 139l-14 7q-14 22 -37 30q-23 7 -116 21t-140 0q-49 -43 -41 -125l2 -23q4 -31 2 -49l-2 -53q29 -16 51 -8
l-2 -2q4 2 19 -4l8 -7l-4 5q27 -16 33 -38t-3 -32t-46 -10l-5 -2q-22 0 -32 -3q-26 -8 -27 -72zM113 780q0 78 -11 107q8 25 43 47q39 10 80 10t117 -4t125 -2q27 8 76 0t69 -19t56 -17t45 -15q39 -25 71 -39t46 -34q12 -20 20 -38t14 -40t25 -48v2q35 -55 41 -119l-4 -84
q-8 -162 -49 -208q-27 -39 -39 -85t-15 -51q-33 -53 -112 -82q-27 -10 -62 -35t-80 -28q-45 -2 -60 -3t-31 -5t-70 -4q-43 6 -89 2l-34 -2q-159 -3 -182 8q-23 12 -21 24q-2 68 3 128t7 92t8 68t2 97h-90q-36 16 -12 64q12 33 27 41q18 8 26 3t25 -5l-21 18q12 12 34 96
q22 82 22 160z" />
    <glyph glyph-name="ntilde" unicode="&#xf1;" 
d="M725 1300h25q14 0 20 -4v2q35 -20 39 -34l-6 -33q-4 -25 -4 -33q-12 -44 -66 -57q-78 -35 -133 -27q-43 12 -80 31l-43 20q-25 11 -61 9t-56 -13l-18 -20q-29 -38 -39 -23q-8 8 -22 15q-33 14 -41 41q-4 33 4 40l8 13q51 68 61 71q46 15 138 5q16 -3 37 -13t49 -20
t62 -18q35 -8 61 0t39 28t26 20zM662 950q24 0 40 -7t56 -17l43 -11q7 -5 27 -33t36 -36h-2q16 -10 37 -64v6l4 -18q8 -18 2 -59t-5 -59t-5 -83t1 -117t7 -122l-2 -92q0 -117 -14 -201q0 -10 -41 -51q-31 -17 -97 -2q-65 15 -71 43q-10 49 6 149l2 29v67q-4 66 1 105t5 96
q-6 47 0 79t-2 46q-6 14 -6 27v32q0 35 -8 61t-45 48q-33 27 -74 20l-33 -4q-10 -4 -24 -6t-15 0l-43 -18q-26 -9 -41 -20t-36 -50q-29 -41 -27 -70l-2 -45q-2 -23 -2 -77t3 -78q3 -22 -4 -82t-6 -118t-8 -185q2 -7 -8 -17q-37 -35 -178 -14q-29 0 -33 27q-6 49 0 117t5 101
q-1 35 7 105t9 113l2 80l2 71l-10 164q0 57 12 113q9 25 41 39t86 0v2q28 -10 52 -12t44 -31q-2 0 -10 -27l18 16q0 -2 6 -15t14 -28q7 -15 9 -16q23 10 39 47q4 8 4 15q41 16 47 18l76 33q41 18 65 16h44zM358 880v1v-1z" />
    <glyph glyph-name="ograve" unicode="&#xf2;" horiz-adv-x="1005" 
d="M637 172q108 51 108 202q0 36 5 58v64q-4 18 1 64t-26 106q-10 25 -17 46t-24 36v-3q-2 2 -55 35l-31 17l2 -2q-20 14 -61 17t-66 -6t-79 -38t-64 -41l-15 -20q-14 -18 -39 -72t-10 -105q4 -14 0 -39t-1 -51t3 -72q0 -87 60 -151l10 -14q16 -20 78 -43q124 -46 198 -2
l21 14h2zM55 389v68q0 83 -2 109t17 81l8 25v-4q48 90 76 118t71 56t53 42t60 34t98 26q171 22 228 0l36 -14q44 -16 60 -28t32 -20q16 -10 21 -14q33 -20 66 -73h-2q27 -39 35 -51t22 -31q14 -17 20 -29t6 -53t9 -81q8 -40 2 -93q-4 -106 -21 -150l-37 -98h2l-10 -35
q-2 -20 -55 -68l-23 -20q-29 -35 -57 -43t-63 -27q-43 -18 -65 -23t-93 -9h-23q-43 -4 -82 -1q-40 3 -66 2t-66 15t-72 28t-70 35q-35 29 -57 84l-15 37q-43 81 -43 205zM397 1446l2 -2q59 -33 179 -195q45 -67 53 -69t-6 -31v-4q-6 -10 -62 -41h-6q-45 -20 -63 0
q-37 18 -82 68t-60 64q-14 13 -40 45t-48 51q-22 20 -22 26q41 63 94 80q10 0 22 6l-2 -2q35 6 41 4z" />
    <glyph glyph-name="oacute" unicode="&#xf3;" horiz-adv-x="1005" 
d="M637 172q108 51 108 202q0 36 5 58v64q-4 18 1 64t-26 106q-10 25 -17 46t-24 36v-3q-2 2 -55 35l-31 17l2 -2q-20 14 -61 17t-66 -6t-79 -38t-64 -41l-15 -20q-14 -18 -39 -72t-10 -105q4 -14 0 -39t-1 -51t3 -72q0 -87 60 -151l10 -14q16 -20 78 -43q124 -46 198 -2
l21 14h2zM55 389v68q0 83 -2 109t17 81l8 25v-4q48 90 76 118t71 56t53 42t60 34t98 26q171 22 228 0l36 -14q44 -16 60 -28t32 -20q16 -10 21 -14q33 -20 66 -73h-2q27 -39 35 -51t22 -31q14 -17 20 -29t6 -53t9 -81q8 -40 2 -93q-4 -106 -21 -150l-37 -98h2l-10 -35
q-2 -20 -55 -68l-23 -20q-29 -35 -57 -43t-63 -27q-43 -18 -65 -23t-93 -9h-23q-43 -4 -82 -1q-40 3 -66 2t-66 15t-72 28t-70 35q-35 29 -57 84l-15 37q-43 81 -43 205zM840 1358l-15 -4q-33 -23 -143 -133q-86 -94 -125 -119q-18 -10 -74 2q-16 2 -39 29v-3l-18 23
q-15 15 9 38q23 24 105 123t136 132l18 -4h29q43 -12 88 -80q0 -4 6 -10q0 6 23 6z" />
    <glyph glyph-name="ocircumflex" unicode="&#xf4;" horiz-adv-x="1005" 
d="M653 1114q-6 4 -22 37q-33 53 -62 68q-12 16 -45 11q-32 -5 -52 -28q-20 -22 -40 -48t-40 -38t-62 -20t-92 26l-17 15q49 82 146 163l30 21q88 68 117 84h-4l22 8q31 -11 35 -10l-2 2q13 -5 49 -49t91 -92t102 -119q4 -2 1 -10t-9 -11h6l-12 -4q-61 -29 -93 -22l2 -2
l-24 8zM637 172q108 51 108 202q0 36 5 58v64q-4 18 1 64t-26 106q-10 25 -17 46t-24 36v-3q-2 2 -55 35l-31 17l2 -2q-20 14 -61 17t-66 -6t-79 -38t-64 -41l-15 -20q-14 -18 -39 -72t-10 -105q4 -14 0 -39t-1 -51t3 -72q0 -87 60 -151l10 -14q16 -20 78 -43
q124 -46 198 -2l21 14h2zM55 389v68q0 83 -2 109t17 81l8 25v-4q48 90 76 118t71 56t53 42t60 34t98 26q171 22 228 0l36 -14q44 -16 60 -28t32 -20q16 -10 21 -14q33 -20 66 -73h-2q27 -39 35 -51t22 -31q14 -17 20 -29t6 -53t9 -81q8 -40 2 -93q-4 -106 -21 -150l-37 -98
h2l-10 -35q-2 -20 -55 -68l-23 -20q-29 -35 -57 -43t-63 -27q-43 -18 -65 -23t-93 -9h-23q-43 -4 -82 -1q-40 3 -66 2t-66 15t-72 28t-70 35q-35 29 -57 84l-15 37q-43 81 -43 205z" />
    <glyph glyph-name="otilde" unicode="&#xf5;" horiz-adv-x="1005" 
d="M270 368q0 -87 60 -151l10 -14q16 -20 78 -43q124 -46 198 -2l21 14h2q85 40 102 147q6 19 6 55q1 36 5 58v64q-4 18 1 64t-26 106q-10 25 -17 46t-24 36v-3q-2 2 -55 35l-27 15q-53 33 -125 12q-29 -10 -83 -39t-64 -41l-15 -20q-14 -18 -39 -72t-10 -105q4 -14 0 -39
t-1 -51q3 -24 3 -72zM57 457q0 83 -2 109t17 81l8 25v-4q48 90 76 118t71 56t52 37q12 19 62 39t97 26q171 22 228 0l36 -14q44 -16 60 -28t32 -20q16 -10 21 -14q33 -20 66 -73h-2q27 -39 51 -71t28 -42t4 -51t10 -87q9 -46 1 -87q-4 -106 -21 -150l-37 -98h3l-11 -35
q-2 -20 -55 -68l-23 -20q-29 -35 -57 -43t-63 -27q-43 -18 -65 -23t-93 -9h-23q-43 -4 -82 -1q-40 3 -66 2t-66 15t-72 28t-70 35q-35 29 -57 84l-15 37q-24 50 -33 88t-10 117v68zM330 1130h-33q-7 11 -14 11l-37 45q-6 18 8 41q16 31 66 61t126 19q23 -2 56 -25v2
q40 -25 78 -27t94 -2q23 -4 41 23q6 14 10 14q47 7 51 0q35 -30 46 -48t-9 -38h-2q-27 -31 -76 -63q-74 -27 -115 -25t-76 22q-73 41 -127 31q-54 -9 -73 -28q-2 -1 -7 -5q-4 -4 -7 -8z" />
    <glyph glyph-name="odieresis" unicode="&#xf6;" horiz-adv-x="1005" 
d="M637 172q108 51 108 202q0 36 5 58v64q-4 18 1 64t-26 106q-10 25 -17 46t-24 36v-3q-2 2 -55 35l-31 17l2 -2q-20 14 -61 17t-66 -6t-79 -38t-64 -41l-15 -20q-14 -18 -39 -72t-10 -105q4 -14 0 -39t-1 -51t3 -72q0 -87 60 -151l10 -14q16 -20 78 -43q124 -46 198 -2
l21 14h2zM55 389v68q0 83 -2 109t17 81l8 25v-4q48 90 76 118t71 56t53 42t60 34t98 26q171 22 228 0l36 -14q44 -16 60 -28t32 -20q16 -10 21 -14q33 -20 66 -73h-2q27 -39 35 -51t22 -31q14 -17 20 -29t6 -53t9 -81q8 -40 2 -93q-4 -106 -21 -150l-37 -98h2l-10 -35
q-2 -20 -55 -68l-23 -20q-29 -35 -57 -43t-63 -27q-43 -18 -65 -23t-93 -9h-23q-43 -4 -82 -1q-40 3 -66 2t-66 15t-72 28t-70 35q-35 29 -57 84l-15 37q-43 81 -43 205zM631 1305h2q27 18 100 24q82 0 94 -20v4l15 -25q18 -35 14 -53l-6 -43q-8 -51 -21 -59
q-61 -45 -102 -43q-88 4 -111 30q-18 14 -26 41t-3 37t10 32t9 27q9 38 25 48zM273 1106q-41 0 -56 10q-31 24 -30 90t38 99h4q29 25 107 20q59 6 91 -21t24 -79l-2 -25q-4 -49 -17 -65q-53 -27 -108 -31q-10 2 -51 2z" />
    <glyph glyph-name="divide" unicode="&#xf7;" horiz-adv-x="397" 
d="M307 715q-28 -28 -104 -15q-76 8 -107 30t-20 83q0 6 8 42t29 67v-2q27 29 92 28q68 6 110 -33q33 -37 33 -90q-4 -78 -41 -110zM186 -18l-22 2q-51 4 -76 20q-18 18 -20 58t-5 49q-12 59 31 82v2q51 35 105 36q49 6 106 -38q15 -12 23 -39t4 -50l-4 -22q-12 -68 -35 -82
q-47 -33 -107 -18zM-72 379l-61 -2q-63 0 -123 8q-37 0 -39 25q-21 68 3 104t53 44q28 8 68 3q40 -4 65 -6l36 -4q56 0 104 -3t83 2t81 2t103 -3l72 2q80 4 117 0t96 1q58 5 74 1t32 -4q10 -4 21 -25q11 -35 -6 -98q1 -8 -7 -22t-18 -15l-45 -4q-100 -8 -143 -6l-52 2
q-98 4 -139 0l-188 8q-70 0 -133 -6z" />
    <glyph glyph-name="oslash" unicode="&#xf8;" horiz-adv-x="1005" 
d="M352 291h6l17 22q12 20 64 109t111 172q58 82 85 135q0 9 -9 29t-26 22q-4 2 -4 4l-12 9q-44 20 -98 15t-101 -52l-20 -17q-49 -45 -50 -102q0 -27 -8 -72l-4 -22q-4 -25 0 -56t-1 -49t2 -74q7 -57 6 -61t4 -6q4 -2 12 -3t15 -2t11 -1zM529 115q30 0 53 12q70 35 96 76
q35 43 41 131v24l8 80q8 70 -16 133q13 26 -4 62q-18 0 -31 -6q16 6 16 -11q2 -12 -10 -22l-31 27q-96 -133 -128 -203t-72 -133l-48 -84q-6 -8 1 -28t30 -36q25 -33 45 -27t50 5zM92 270q0 187 -14 297q0 43 18 84l13 29q33 78 90 145v-2q51 53 104 72q51 12 105 43
q49 22 129 14l6 -2h8q72 -10 85 -8t30 -6q21 -16 41 -18q41 -12 55 18q6 10 17 33t16 28q12 37 32 62q6 6 22 -4q16 -11 29 -11t13 3q2 -8 2 -17l2 -14q-2 -10 -43 -69t-41 -95q0 -15 20 -23l33 -38q12 -12 39 -60q6 -23 21 -41q29 -53 20 -119q-2 -10 3 -58t4 -56t-17 -74
q-8 -17 -16 -63t-21 -91l-18 -57q-2 -10 -39 -47l-47 -47q-33 -37 -56 -45l-28 -13q-49 -20 -85 -21t-60 -7t-62 -10q-61 -16 -99 -7l-79 29v-2q-29 8 -43 -6l-9 -6q-25 -27 -40 -63t-22 -50q-6 -14 -32 -14t-26 4q0 10 -13 27q-4 4 -14 -3q13 15 39 60v-2q21 42 35 59
q25 16 6 51l2 2q-4 31 -37 68v-2l-23 29q-3 10 -29 56t-26 58z" />
    <glyph glyph-name="ugrave" unicode="&#xf9;" 
d="M440 1444l4 -2h7l-5 2q0 -2 8 -4t21 -16q13 -13 25 -24q12 -12 17 -18t17 -21q17 -20 61 -81q43 -60 87 -102q4 0 -4 -14t-8 -19q-10 -12 -54 -31l-26 -10q-29 -20 -51 0q-37 16 -133 125q-102 109 -115 117q-14 8 -19 18q74 66 102 75t66 5zM113 320q0 29 6 49
q4 43 4 119t5 136q5 58 2 108t-3 92q0 44 3 66t40 50q29 18 123 -4l6 -2h6q35 -2 45 -41l-2 2q6 -31 6 -58t-11 -100t-5 -147l2 -64q0 -20 -4 -63q-14 -66 4 -119q-4 4 -8 -14l-4 -21q-2 -20 10 -53l6 -23q0 -41 43 -61q10 -10 43 -22t57 -3l21 7l-2 -2l29 8q20 10 40 10
t62 35v-2q31 27 31 49v2q2 2 4 8v2q12 29 10 45v37q-4 86 8 154t12 176v22q0 35 -6 60q-13 142 14 165q13 11 46 17t149 -10q15 0 17 -28t2 -85l-13 -246q0 -41 4 -102q0 -141 -5 -191t-1 -114t-10 -113t-31 -55l2 2q-41 -10 -112 -4l-51 2q-7 -2 -17 12l-8 19q-2 2 4 11
q24 36 -7 48q-32 12 -43 8t-30 -26q-25 -18 -31 -23l-32 -16q-14 -15 -32 -17t-46 -18l-25 -8q-26 -2 -68 -5t-65 -5t-78 38q-55 41 -65 64l2 -2q-4 12 -25 53l-16 33q-14 41 -13 85t1 73z" />
    <glyph glyph-name="uacute" unicode="&#xfa;" 
d="M784 1356l-6 -2q-41 -33 -127 -129t-145 -129q-20 -9 -55 6l-25 14q-37 18 -49 39q-16 16 -4 21q38 28 58 54q21 25 43 52t61 76t83 86q18 20 52 6q61 -33 98 -82q10 -14 16 -12zM905 336q0 -55 2 -80l6 -53q13 -88 0 -152q-10 -23 -19 -36t-24 -11h-14q-167 -13 -176 21
q4 -6 6 2l-2 -2q12 35 -4 61l-6 -2q-6 0 -6 16q-75 -14 -81 -33q-3 -9 -18 -20l-53 -37q-95 -48 -180 -24q-16 6 -47 6t-49 10q-41 31 -68 78q-2 4 -22 35t-25 43q-10 54 -4 112q10 49 -6 105q-6 61 0 143t6 123v76q0 113 10 182q9 39 29 39h4q4 2 16 2t49 6h15
q35 -4 61 -14q35 -2 41 -39q8 -41 -2 -105t-11 -106q-1 -41 -1 -101t-6 -120q0 -45 3 -66t-2 -36t3 -31t6 -36q-2 -18 9 -49t24 -44v-2q9 -13 27 -21l40 -18q14 -12 45 -16t41 6t24 10t33 13t37 21t46 41q6 8 11 34q5 25 12 45t7 90t4 103t-2 103t-6 106t-3 86t9 91
q12 25 33 33l-8 -2q34 13 76 18l16 -2l63 -4l21 -2q26 0 29 -152l-11 -205l-4 -102q-4 -82 -4 -137z" />
    <glyph glyph-name="ucircumflex" unicode="&#xfb;" 
d="M653 1114q-6 4 -22 37q-33 53 -62 68q-12 16 -45 11q-32 -5 -52 -28l-40 -48t-40 -37t-62 -21t-92 26l-17 15q49 82 146 163l30 21q88 68 117 84h-6l24 8q31 -11 35 -10l-2 2q13 -5 49 -49t91 -92t102 -119q4 -2 1 -10t-9 -11h6l-12 -4q-61 -29 -93 -22l2 -2l-24 8z
M451 142q31 5 44 5t52 21q48 14 74 35q10 12 43 30q20 19 23 57t3 94t-6 124l10 188q0 49 -2 68l-2 65q0 35 10 64l-2 -2q18 41 37 43q55 10 83 10t83 -10q12 -3 12 -33q15 -45 0 -160l-4 -49q-2 -48 1 -106t3 -92t-6 -112q-6 -77 5 -176q12 -100 -1 -155l2 2
q-18 -49 -49 -49l-51 -6q-61 -12 -100 -6q-12 4 -25 16q11 56 -5 74q-17 18 -26 18q-31 -8 -63 -37h2l-25 -18l-32 -18l-33 -21q-31 -14 -64 -18l-30 -4q-54 -15 -86 -2l-39 16q-25 10 -41 14q-57 25 -82 62l-14 28q-16 33 -16 62t-7 63l-6 49q-2 12 -2 48t-3 67t6 123
t2 158t-7 111q0 44 4 110q2 35 43 45h2q61 16 145 -10q43 0 29 -131q-6 -88 -3 -131t-1 -111t0 -102q6 -20 -3 -76t-1 -69t6 -18t-2 -9q-4 -45 14 -60q2 -2 10 -16l19 -25l10 -8q31 -35 62 -30z" />
    <glyph glyph-name="udieresis" unicode="&#xfc;" 
d="M708 1325q36 0 48 2h18q63 0 84 -18q18 -27 13 -87t-35 -106q-8 -16 -37 -23t-49 -1v-2q-12 4 -63 13t-58 15q-23 24 -17 90t37 99q23 18 59 18zM207 1214q0 52 35 91t104 34q47 4 103 -34q27 -16 14 -82l-6 -27q-9 -58 -21 -72t-94 -28q-86 -4 -117 20q-10 18 -12 48
t-6 50zM907 362q0 -78 2 -102t-3 -103t-4 -103t-10 -38t-36 -18q-24 -4 -70 1t-75 5q-21 -6 -23 5t0 20l-2 -2q6 27 4 32v4q0 25 -9 34t-39 0t-58 -38h2l-19 -16q-9 -8 -27 -9q-18 0 -36 -20t-62 -24l-34 -4q-31 -6 -78 -6q-16 4 -44 6t-40 12l-27 22q-45 42 -52 58t-26 51
q-28 28 -24 70q7 78 2 129v121q0 111 7 171t-2 153t-4 117t16 38q12 12 22 10l43 4q68 12 112 -4q19 0 31 -35q12 -25 12 -61t-10 -123l-4 -43l-12 -180l-2 -43q0 -31 3 -55t1 -31l2 2q-6 -13 -2 -33t3 -36t11 -44l6 -23q3 -20 23 -47q3 -24 27 -32t51 2v-2q5 2 31 -7t36 -2
t14 9t10 3q5 1 7 3l20 10q-4 -6 1 -3l14 7l-2 -2q37 4 45 33q2 9 26 28v-2q33 29 25 76l6 99q4 66 4 119t6 139l4 30q2 49 -3 113t3 96q-2 7 12 17t23 14l-2 -2q47 10 85 10t62 -3q44 -5 42 -34v-57l2 -74q0 -46 -10 -114t-7 -195v-103z" />
    <glyph glyph-name="yacute" unicode="&#xfd;" horiz-adv-x="954" 
d="M815 1358q-44 -22 -139 -131q-80 -95 -125 -117t-76 -4l2 -2q-29 18 -47 35l-31 24q-4 1 -2 11t11 14q26 26 112 120t129 132q10 12 43 8h10q31 -12 101 -82zM130 926q23 0 95 -8q78 -20 82 -29q35 -49 55 -66q18 -23 44 -63q14 -33 55 -80t61 -100l64 100q58 143 92 205
q18 20 59 35q37 8 129 8h39l4 -10q0 -4 -2 -9q-10 -51 -43 -98h2q-26 -41 -32 -61t-39 -63q-33 -44 -43 -76t-37 -74l-25 -35q-20 -45 -55 -92q-66 -104 -72 -131q-10 -63 -82 -173v3q-18 -31 -26 -64q-20 -52 -107 -61q-6 -2 -24 2q-68 0 -68 12q-27 20 -27 27l-6 20
q2 7 2 31q-1 24 17 50t26 40l31 63q4 10 51 72q48 63 60 99t-23 79l-27 43l-77 90q-63 74 -81 101t-46 53q-23 26 -35 52t-21 38l-26 45q0 10 2 14v3q31 8 54 8z" />
    <glyph glyph-name="thorn" unicode="&#xfe;" horiz-adv-x="966" 
d="M346 453q0 -12 4 -41q5 -52 60 -64q55 -14 81 -7q25 7 29 5l31 -2q39 2 86 62q16 18 21 54t-11 62v2q-20 35 -49 45l-39 21q-27 12 -51 8l-21 -2l-38 -2q-27 0 -40 -2t-38 -25t-21 -45l-2 -30l-2 -14v-25zM598 764h29q16 2 28 -4l-2 2q18 -12 51 -24t60 -29v2
q6 -2 20 -30q14 -27 40 -49q28 -22 31 -63t11 -56t5 -65t-28 -99q-25 -48 -50 -62h2l-23 -13q-12 -8 -29 -28q-45 -41 -63 -49q-18 -7 -55 -15t-62 -22q-34 -14 -76 -15l-88 11l-32 2q-20 -53 -21 -72v-14q-37 -94 -110 -97q-25 0 -72 15q-20 6 -25 41l-4 32q-6 33 -6 87v47
l2 6l4 35q6 47 2 84q-4 38 1 82t1 114v94q2 42 -1 56t2 44t-1 54l2 -2q-4 10 6 37l3 2q10 57 -15 61q12 0 15 13l-3 -3q16 43 50 50q11 0 49 6t55 -6q47 -8 57 -50q8 -29 17 -26q-10 -10 -6 -70q98 10 110 6q18 0 37 2q12 -2 30 -12t52 -10z" />
    <glyph glyph-name="ydieresis" unicode="&#xff;" horiz-adv-x="954" 
d="M130 926q23 0 95 -8q78 -20 82 -29q35 -49 55 -66q18 -23 44 -63q14 -33 55 -80t61 -100l64 100q58 143 92 205q18 20 59 35q37 8 129 8h39l4 -10q0 -4 -2 -9q-10 -51 -43 -98h2q-26 -41 -32 -61t-39 -63q-33 -44 -43 -76t-37 -74l-25 -35q-20 -45 -55 -92
q-66 -104 -72 -131q-10 -63 -82 -173v3q-18 -31 -26 -64q-20 -52 -107 -61q-6 -2 -24 2q-68 0 -68 12q-27 20 -27 27l-6 20q2 7 2 31q-1 24 17 50t26 40l31 63q4 10 51 72q48 63 60 99t-23 79l-27 43l-77 90q-63 74 -81 101t-46 53q-23 26 -35 52t-21 38l-26 45q0 10 2 14v3
q31 8 54 8zM678 1325h72q55 0 79 -20q7 -6 7 -36t2 -42q12 -66 -21 -109q-7 -12 -43 -14t-65 -8q-72 -12 -105 26q-18 18 -22 82v13q0 39 39 92q10 16 57 16zM324 1094l-29 -2q-61 -12 -97 28t-26 98q22 133 147 117q27 4 74 -20l29 -15q31 -12 16 -67q-6 -18 -9 -59
t-21 -59t-84 -21z" />
    <glyph glyph-name="Aogonek" unicode="&#x104;" horiz-adv-x="980" 
d="M897 6q0 6 -14 6l-25 -6q-22 -5 -41 -7q18 -14 29 -36v2q14 -20 -4 -53l-6 -16q4 -8 4 -46v-26q6 -12 8 -12q16 -27 24 -29q24 -5 41 -19h2q4 10 21 6t18 -3l-10 4q7 -3 31 -15t41 -37q10 -23 10 -63v-10q0 -20 -15 -38t-29 -22t-48 -20q-35 -16 -49 -4l-49 12
q-95 16 -167 95q-46 50 -51 114l-4 90v8q0 78 31 101l23 14q4 4 15 8t16 8q-1 4 -1 16t-4 21q-23 40 -63 0q-23 -4 -49 -22l-4 -2h-7l-69 -13q-38 -4 -70 -11t-88 0t-80 27t-49 53q-25 32 -35 40h-2q-25 18 -49 84l-12 28q-35 72 -35 188t12 152v9q14 80 24 96t14 27
q5 11 23 41q18 29 25 45q25 39 84 77l31 21q39 27 53 22q45 5 73 9t79 3t84 -16l26 -10q28 -9 58 -29t41 -11t-9 46l-2 -4l-4 14q2 -4 6 -10q10 25 95 25q23 0 92 -13q20 -2 28 -38q6 -53 2 -85t-4 -100q4 -51 0 -96t-4 -74v-14l-4 -272l2 -72q0 -18 -5 -74t-5 -84z
M936 -227q2 0 4 -1l-2 -1zM536 768q-22 0 -54 4t-79 -22q-20 -18 -26 -29q-10 -10 -32 -31t-39 -97t-13 -136v-27q0 -89 29 -147h-3q11 -41 23 -53t41 -27l20 -13h3l18 -12q45 -29 83 -25t97 29l25 17q14 9 23 11q8 2 18 13q10 10 26 21l2 78q4 41 0 100q8 35 4 104l-2 47
l-2 9l-12 39q-14 55 -34 78t-56 46q-38 23 -60 23z" />
    <glyph glyph-name="aogonek" unicode="&#x105;" horiz-adv-x="980" 
d="M905 6q0 6 -16 6l-23 -6q-23 -5 -41 -7q17 -13 27 -36v2q16 -20 -4 -55l-6 -14q4 -10 4 -48v-26q6 -12 8 -13t10 -15t24 -17q17 -2 34 -15h2q4 10 20 6t19 -4l-9 5q2 -2 4 -3q47 -19 66 -51q10 -23 10 -63v-10q0 -20 -14 -40t-28 -22t-44 -14q-39 -23 -57 -8l-49 12
q-39 8 -81 26t-87 68q-45 51 -49 115l-7 92v8q0 80 31 103l25 14q3 3 29 17q-1 3 -1 15t-4 21q-19 44 -63 0q-14 -4 -49 -20h-6l-76 -17q-42 -4 -72 -11t-88 0t-84 32q-20 14 -38 40t-44 50h-2q-25 18 -49 84l-12 29q-35 75 -35 242q0 44 10 95v7q2 6 9 46t17 58t14 28
t26 46t24 45q23 36 84 76l33 20q33 29 53 25q119 11 162 10q43 0 76 -14l26 -13q29 -9 59 -29t43 -10t-11 47l-3 -6l-4 17q2 -4 7 -11q10 25 96 25q27 0 92 -12q23 -2 31 -41q6 -53 2 -86t-4 -101q4 -51 0 -98t-4 -74v-14q-5 -141 -5 -183v-93l2 -72q0 -14 -5 -74t-5 -86z
M946 -229q2 0 4 -1zM540 778q-24 0 -34 2q-49 6 -100 -22q-27 -23 -33 -32t-17 -17q-35 -31 -50 -112t-13 -134v-29q0 -78 29 -147h-3q13 -43 23 -53t41 -29l23 -12h2l18 -13q45 -29 83 -25t99 29l25 17q4 2 10 7t14 7q9 2 19 11t24 20l2 80q2 43 0 100q8 37 5 106l-2 48
l-11 36q-11 63 -41 95q-18 25 -54 46q-35 21 -59 21z" />
    <glyph glyph-name="Cacute" unicode="&#x106;" horiz-adv-x="806" 
d="M809 1341q-44 -22 -131 -123q-88 -102 -139 -128q-37 -12 -66 2q-20 14 -45 34l-29 23q-10 10 20 39q29 30 103 112t123 121q10 12 41 9h12q33 -14 99 -80zM72 580q0 42 34 104q46 66 64 83t38 51t40 44v-2q37 24 75 40q39 14 43 16t43 13q40 11 57 19t61 -3t67 -10
t63 -15l50 -13q6 0 65 -18q8 -8 -6 -37q-14 -28 -22 -56t-11 -38q1 -8 -24 -4h-2q-10 2 -35 2t-34 7t-42 11t-35 4q-57 23 -112 -4q-2 -2 -28 -8t-52 -33l-15 -14q-47 -47 -51 -72v-4q-2 -4 -2 -6l-20 -98q-23 -82 2 -142l10 -47q20 -110 106 -164q47 -27 119 -45
q39 -8 107 23l28 8q14 4 41 14t33 -8q19 -38 23 -76t-9 -55q-6 -6 -34 -10l-50 -19q-66 -33 -110 -34q-10 -2 -74 4l-27 2q-59 6 -129 22l-24 6q-66 10 -78 41q-6 9 -36 39q-29 31 -55 74t-34 88t-15 99t-9 66q-2 11 2 61q4 52 4 94z" />
    <glyph glyph-name="cacute" unicode="&#x107;" horiz-adv-x="806" 
d="M817 1358q-44 -22 -139 -131q-80 -95 -125 -117t-76 -4l2 -2q-23 12 -47 35l-31 24q-11 11 15 34q27 22 94 101q96 104 139 142q10 14 43 8h10q35 -14 103 -82zM70 586q0 78 92 182q34 40 50 66t36 40v-2q63 35 90 45l31 13q15 6 47 13t52 17t64 -4q44 -12 68 -11t64 -13
l49 -12q6 0 65 -21q6 -6 -15 -54t-24 -79q1 -8 -24 -4h-2q-12 2 -37 2t-27 2q-14 14 -57 18l-21 2q-56 28 -120 -2q-2 -2 -26 -7t-54 -34l-15 -14q-47 -47 -51 -74l-2 -4v-6l-22 -98q-23 -86 2 -144q0 -5 12 -47q8 -49 22 -80q33 -55 84 -88q53 -29 121 -45q39 -6 109 23
q20 6 32 9t38 12t32 -7q21 -42 25 -80t-6 -48t-25 -13q-15 -2 -78 -27q-57 -26 -83 -28t-89 4l-28 2q-55 6 -132 22l-22 6q-70 14 -80 41q-14 23 -39 43q-35 41 -45 54q-37 70 -44 112t-13 91q-6 50 -8 59v4q-6 6 -1 64q5 56 5 100z" />
    <glyph glyph-name="Ccircumflex" unicode="&#x108;" horiz-adv-x="806" 
d="M633 1090q-25 8 -28 11t-19 36q-33 53 -62 67q-12 16 -44 11t-52 -27t-40 -48t-37 -37t-61 -19t-93 24l-15 16q47 78 144 160l28 21q47 37 115 84h-4l22 8q29 -9 35 -11l-2 3q12 -4 48 -49q36 -44 88 -90t104 -117q4 -1 0 -11t-10 -12h8l-15 -4q-53 -27 -90 -21l2 -2z
M72 580q0 42 34 104q48 69 65 85q17 15 37 49t40 44v-2q35 23 90 45l31 13q3 2 39 11t56 18t63 -2q44 -11 67 -10t63 -15l50 -13q16 -2 65 -18q6 -6 -22 -70q-14 -51 -17 -61q1 -8 -24 -4h-2q-10 2 -35 2t-33 7t-35 9t-37 6h-4q-61 23 -114 -4q-2 -2 -28 -8t-50 -33l-17 -14
q-45 -45 -49 -72l-2 -4v-6l-22 -98q-23 -82 2 -142l10 -47q6 -35 24 -78q51 -94 201 -131q40 -5 86 13t54 20t36 12q27 10 33 -8q16 -35 27 -98q2 -14 -13 -33q-6 -6 -34 -10l-50 -19q-66 -33 -110 -34q-8 -2 -74 4l-27 2q-59 6 -129 22l-24 6q-66 10 -78 41q-17 23 -41 45
t-50 66t-34 90q-8 45 -15 99t-9 66q-2 11 2 61q4 52 4 94z" />
    <glyph glyph-name="ccircumflex" unicode="&#x109;" horiz-adv-x="806" 
d="M612 1114q-8 8 -22 37q-33 53 -62 68q-12 16 -45 11t-53 -28q-20 -22 -40 -48t-40 -38t-60 -20q-42 -8 -93 26l-17 15q49 84 148 163l28 21q88 68 117 84h-4l23 8q31 -11 34 -10l-2 2q12 -5 48 -49t92 -92q55 -48 102 -119q4 -2 1 -10t-9 -11h6l-12 -4q-61 -29 -93 -22
l3 -2l-25 8zM70 586q0 78 92 182q34 40 49 65q14 25 37 41v-2q81 45 92 47q10 3 14 5t8 3t12 5t42 11q33 7 54 17t65 -6q41 -10 65 -9t64 -13l49 -12q6 0 65 -21q6 -6 -10 -44q-16 -37 -29 -89q1 -8 -24 -4h-2q-10 2 -35 2t-29 2q-14 14 -57 18l-21 2q-56 28 -120 -2
q-2 -2 -26 -7t-52 -34l-17 -14q-47 -51 -51 -74l-2 -4v-6l-20 -98q-25 -86 2 -144q0 -6 9 -51t23 -76q33 -55 84 -88q53 -29 121 -45q39 -6 109 23q20 6 31 9t38 13t33 -8q21 -36 25 -76t-8 -57q-6 -6 -23 -8t-78 -27q-57 -26 -83 -28t-89 4l-28 2q-55 6 -132 22l-22 6
q-70 14 -80 41q-6 10 -39 43q-35 41 -45 54q-42 77 -52 165q-11 88 -13 97v4q-6 6 -1 64q5 56 5 100z" />
    <glyph glyph-name="Cdotaccent" unicode="&#x10a;" horiz-adv-x="806" 
d="M614 1253l-2 -28q-2 -12 -2 -21l-2 -39q0 -6 2 -6q-169 -106 -256 -29q-24 24 -26 102t43 107h-2q23 16 100 27l4 2h6q80 6 117 -22q31 -35 18 -93zM72 580q0 42 34 104q48 69 65 85q17 15 37 49t40 44v-2q35 23 90 45l31 13q3 2 39 11t56 18t63 -2q44 -11 67 -10t63 -15
l50 -13q16 -2 65 -18q6 -6 -22 -70q-14 -51 -17 -61q1 -8 -24 -4h-2q-10 2 -35 2t-33 7t-35 9t-37 6h-4q-61 23 -114 -4q-2 -2 -28 -8t-50 -33l-17 -14q-45 -45 -49 -72l-2 -4v-6l-22 -98q-23 -82 2 -142l10 -47q6 -35 24 -78q51 -94 201 -131q40 -5 86 13t54 20t36 12
q27 10 33 -8q16 -35 27 -98q2 -14 -13 -33q-6 -6 -34 -10l-50 -19q-66 -33 -110 -34q-8 -2 -74 4l-27 2q-59 6 -129 22l-24 6q-66 10 -78 41q-17 23 -41 45t-50 66t-34 90q-8 45 -15 99t-9 66q-2 11 2 61q4 52 4 94z" />
    <glyph glyph-name="cdotaccent" unicode="&#x10b;" horiz-adv-x="806" 
d="M621 1268l-5 -49l-2 -39q0 -6 2 -6q-167 -108 -260 -31q-24 27 -26 105t43 108h-2q18 12 102 28h4q4 2 6 2q80 6 117 -24q31 -35 21 -94zM70 586q0 78 92 182q34 40 49 65q14 25 37 41v-2q81 45 92 47q10 3 14 5t8 3t12 5t42 11q33 7 54 17t65 -6q41 -10 65 -9t64 -13
l49 -12q6 0 65 -21q6 -6 -10 -44q-16 -37 -29 -89q1 -8 -24 -4h-2q-10 2 -35 2t-29 2q-14 14 -57 18l-21 2q-56 28 -120 -2q-2 -2 -26 -7t-52 -34l-17 -14q-47 -51 -51 -74l-2 -4v-6l-20 -98q-25 -86 2 -144q0 -6 9 -51t23 -76q33 -55 84 -88q53 -29 121 -45q39 -6 109 23
q20 6 31 9t38 13t33 -8q21 -36 25 -76t-8 -57q-6 -6 -23 -8t-78 -27q-57 -26 -83 -28t-89 4l-28 2q-55 6 -132 22l-22 6q-70 14 -80 41q-6 10 -39 43q-35 41 -45 54q-42 77 -52 165q-11 88 -13 97v4q-6 6 -1 64q5 56 5 100z" />
    <glyph glyph-name="Ccaron" unicode="&#x10c;" horiz-adv-x="806" 
d="M307 1386q27 -8 28 -10t19 -35q41 -57 62 -67q14 -18 45 -13t47 25v-2q24 28 40 50t36 37t66 25t93 -28l17 -14q-55 -94 -146 -160l-28 -23q-106 -78 -115 -81h4l-22 -9q-31 11 -35 11q-11 10 -64 65q-24 29 -32 37q-92 78 -140 152q-4 2 -1 10t9 10h-6l13 4q57 29 90 23
l-2 2zM72 580q0 42 34 104q48 69 65 85q17 15 37 49t40 44v-2q35 23 90 45l31 13q3 2 39 11t56 18t63 -2q44 -11 67 -10t63 -15l50 -13q16 -2 65 -18q6 -6 -22 -70q-14 -51 -17 -61q1 -8 -24 -4h-2q-10 2 -35 2t-33 7t-35 9t-37 6h-4q-61 23 -114 -4q-2 -2 -28 -8t-50 -33
l-17 -14q-45 -45 -49 -72l-2 -4v-6l-22 -98q-23 -82 2 -142l10 -47q6 -35 24 -78q51 -94 201 -131q40 -5 86 13t54 20t36 12q27 10 33 -8q16 -35 27 -98q2 -14 -13 -33q-6 -6 -34 -10l-50 -19q-66 -33 -110 -34q-8 -2 -74 4l-27 2q-59 6 -129 22l-24 6q-66 10 -78 41
q-17 23 -41 45t-50 66t-34 90q-8 45 -15 99t-9 66q-2 11 2 61q4 52 4 94z" />
    <glyph glyph-name="ccaron" unicode="&#x10d;" horiz-adv-x="806" 
d="M374 1335q24 -32 46 -45q12 -18 44 -13t48 26v-3q66 78 78 91q82 46 162 -5l14 -16q-53 -90 -145 -162l-31 -22q-106 -78 -115 -82h4l-24 -10q-1 0 -7 4t-26 8l2 -2q-12 4 -52 49t-50 55q-92 82 -142 154q-4 2 0 11t10 11h-6q80 31 105 25l-2 2l20 -8q4 -2 16 -4t20 -17
q7 -15 31 -47zM70 586q0 78 92 182q34 40 49 65q14 25 37 41v-2q81 45 92 47q10 3 14 5t8 3t12 5t42 11q33 7 54 17t65 -6q41 -10 65 -9t64 -13l49 -12q6 0 65 -21q6 -6 -10 -44q-16 -37 -29 -89q1 -8 -24 -4h-2q-10 2 -35 2t-29 2q-14 14 -57 18l-21 2q-56 28 -120 -2
q-2 -2 -26 -7t-52 -34l-17 -14q-47 -51 -51 -74l-2 -4v-6l-20 -98q-25 -86 2 -144q0 -6 9 -51t23 -76q33 -55 84 -88q53 -29 121 -45q39 -6 109 23q20 6 31 9t38 13t33 -8q21 -36 25 -76t-8 -57q-6 -6 -23 -8t-78 -27q-57 -26 -83 -28t-89 4l-28 2q-55 6 -132 22l-22 6
q-70 14 -80 41q-6 10 -39 43q-35 41 -45 54q-42 77 -52 165q-11 88 -13 97v4q-6 6 -1 64q5 56 5 100z" />
    <glyph glyph-name="Dcaron" unicode="&#x10e;" horiz-adv-x="952" 
d="M436 154q16 0 48 9t62 13t45 19t32 51l20 28q4 4 37 54q8 76 18 130t-2 99q-35 113 -71 137l-15 6q-12 18 -36 28t-115 22q-92 14 -140 2q-47 -45 -38 -125q4 -49 -5 -152l-4 -63l-2 -82q0 -84 11 -140q26 -63 120 -40q19 4 35 4zM205 934q49 0 94 -6q92 -4 139 -2
q23 11 72 2q50 -10 70 -20t56 -17q36 -6 48 -17t55 -31t55 -38t29 -60q10 -39 31 -65v2q33 -57 39 -115l-4 -84q-8 -162 -49 -209q-22 -30 -36 -79t-16 -54q-39 -57 -110 -80q-35 -12 -61 -36t-76 -26q-50 -3 -64 -4q-15 -1 -31 -5t-69 -4q-43 6 -86 2l-35 -2
q-158 -3 -180 8q-22 12 -21 24q-2 68 3 126t5 87l5 50q10 78 7 118t0 98t3 121l8 181q0 49 -8 75q8 27 41 48q37 12 86 12zM334 1376q2 -2 20 -35q35 -53 62 -67q12 -18 44 -13t46 25v-2q24 28 42 52t38 37t66 23q44 10 91 -28l15 -14q-51 -92 -144 -160l-30 -23
q-86 -66 -113 -81h4l-24 -9l-33 11l2 -2q-12 4 -51 49t-50 55q-90 80 -139 152q-4 2 -1 10t9 10h-6l13 4q59 29 92 23l-2 2l20 -9z" />
    <glyph glyph-name="dcaron" unicode="&#x10f;" horiz-adv-x="952" 
d="M440 156q16 0 50 9t62 13t43 19t32 51l22 31q17 26 37 53q8 78 18 132t-2 99q-33 113 -73 139l-15 7q-14 23 -32 26h4q-33 11 -125 25t-139 0q-49 -45 -41 -125q4 -51 -5 -154l-4 -63l-2 -84q0 -86 11 -141q23 -63 122 -41q21 4 37 4zM56 146q5 60 5 82q-1 22 7 78t5 98
q-3 41 0 99t3 122l8 184q0 49 -8 76q10 31 43 49q35 10 77 10t120 -4t124 -2q30 10 78 1t70 -20t55 -17t53 -21q20 -14 56 -31t48 -35t31 -61q10 -41 29 -66v2q35 -55 41 -117l-4 -86q-8 -162 -49 -208q-20 -31 -36 -81t-17 -55q-29 -51 -111 -82q-32 -11 -56 -29t-51 -26
t-55 -9t-39 -2t-31 -5t-73 -4q-43 6 -88 2l-33 -2q-163 -3 -184 8q-22 12 -21 24q-2 68 3 128zM332 1397q4 -3 11 -17q35 -67 75 -90q12 -18 45 -13t47 26v-3q24 28 42 52t37 38t64 21q45 8 97 -25l14 -16q-47 -86 -146 -162l-28 -22q-102 -74 -117 -82h4l-22 -10q-1 0 -9 4
t-26 8l2 -2q-25 9 -78 82q-8 10 -22 22q-92 82 -142 154q-4 2 -1 11t9 11h-6q77 30 105 25l-2 2l22 -8q4 -2 9 -3l8 -2t8 -1z" />
    <glyph glyph-name="Dcroat" unicode="&#x110;" horiz-adv-x="978" 
d="M57 520l2 -2q-2 -2 -2 2zM371 408q-2 0 -6 -2h-5q-24 0 -32 -4t-18 -24q-10 -22 -9 -65q0 -43 6 -123q12 -37 50 -43q39 -5 65 1t42 7t50 9q33 8 63 12t46 26q16 21 28 44l21 28l16 24t21 30q8 76 18 130t-2 99q-35 111 -72 137l-16 6q-12 18 -35 28t-115 22
q-92 14 -139 2q-49 -43 -41 -125l2 -23q4 -29 2 -47l-2 -53q31 -14 51 -8l-2 -2q4 2 27 -10q23 -14 29 -34t-1 -29t-40 -13h-2zM233 934q45 0 95 -6q88 -4 137 -2q37 8 80 0t61 -18t47 -13q45 -10 59 -22q14 -11 55 -29q40 -18 58 -47q10 -12 27 -52q10 -39 29 -65v2
q35 -55 41 -117l-4 -82q-8 -162 -50 -209q-22 -30 -32 -74t-21 -59q-35 -55 -110 -80q-31 -10 -58 -35t-76 -27q-49 -3 -64 -4t-31 -5t-70 -4q-43 6 -89 2l-32 -2q-160 -3 -182 8q-21 12 -19 24q-2 68 3 126t7 90q2 30 8 67t2 96h-88q-37 15 -12 64q12 35 28 42t24 2
q9 -5 24 -5l-21 18q12 12 33 94q20 82 20 158t-8 107q20 57 129 57z" />
    <glyph glyph-name="dcroat" unicode="&#x111;" horiz-adv-x="978" 
d="M55 526l2 -2q-2 -2 -2 2zM303 337q0 -64 6 -144q18 -63 117 -43q29 6 39 6t49 9t64 13q45 6 77 70l23 31q4 6 10 14t13 20t12 19q10 78 20 132t-2 99q-39 117 -74 139l-14 7q-14 22 -37 30q-23 7 -116 21t-140 0q-49 -43 -41 -125l2 -23q4 -31 2 -49l-2 -63q46 0 62 4
q-16 -6 8 -8q24 -4 33 -34q8 -30 -2 -39t-45 -9l-5 -2q-22 0 -32 -3q-26 -8 -27 -72zM113 780q0 78 -11 107q8 25 43 47q39 10 80 10t117 -4t125 -2q27 8 76 0t69 -19t56 -17t45 -15q39 -25 71 -39t46 -34q12 -20 20 -38t14 -40t25 -48v2q35 -55 41 -119l-4 -84
q-8 -162 -49 -208q-27 -39 -39 -85t-15 -51q-33 -53 -112 -82q-27 -10 -62 -35t-80 -28q-45 -2 -60 -3t-31 -5t-70 -4q-43 6 -89 2l-34 -2q-159 -3 -182 8q-23 12 -21 24q-2 68 3 128t7 92t8 68t2 97h-90q-31 14 -14 60q0 2 4 10v-4q10 33 20 36t13 7l2 2q4 -6 39 -8l-19 18
q12 12 34 96q22 82 22 160z" />
    <glyph glyph-name="Emacron" unicode="&#x112;" horiz-adv-x="954" 
d="M813 1145h-2q-25 -4 -34 -7t-36 -1h-8q-47 10 -135 10h-25l-176 -8q-20 2 -51 2q-32 0 -62 3t-50 -1q-61 -12 -70 22q-16 48 0 97q6 18 39 28v-2q39 10 47 6t39 0q49 0 86 -4l63 -6q24 0 64 -4t86 6t89 10h66l15 2h2l31 -12q53 -20 36 -102l-4 -25q-4 -14 -10 -14z
M413 492q41 0 109 10t127 14q17 2 31 39t7 61q-6 24 -3 39q-8 39 -22 54l-5 2l-12 14q-15 31 -29 37t-19 9t-7 5t-20 10t-23 11q-27 2 -73 4t-79 -27q-27 -18 -37 -44t-49 -68q-6 -6 -7 -58t7 -69q8 -25 33 -37q31 -6 71 -6zM801 193q18 -9 47 -9q14 -18 21 -48t1 -44
q-16 -25 -16 -35q-12 -31 -53 -37l-62 -12q-33 0 -69 -12l-27 -8q-76 -25 -88 -23h-55q-96 0 -150 13q-95 23 -192 145l-6 6q-25 45 -48 107t-24 67q-31 55 -14 146q26 105 36 197q6 50 58 95h-2q16 10 28 40t34 48q22 17 58 33t44 20t17 8q9 3 20 8t17 6t52 20q18 12 56 6
t67 -2q43 0 100 -17l25 -6q41 -12 84 -51q45 -31 63 -68l-2 11l4 -13q39 -90 39 -146t8 -77t-3 -44t-12 -29t-5 -13q-4 -8 -6 -14q-17 -51 -31 -51h-4q-33 -4 -55 -13v2q-31 -10 -61 -8t-84 -5t-107 -7l-172 -8q-39 -33 -45 -49t6 -50h-2q14 -53 47 -65l18 -14
q60 -72 172 -62q44 4 74 2t90 19l41 14q23 8 41 17t27 10z" />
    <glyph glyph-name="emacron" unicode="&#x113;" horiz-adv-x="954" 
d="M821 1159h-2q-25 -4 -34 -7t-37 -1h-9q-47 10 -137 10h-24l-179 -8q-20 2 -51 2q-32 0 -62 3t-52 -1q-63 -12 -70 23q-20 50 0 96q6 20 37 31v-2q41 10 50 6t38 0q51 0 88 -4l65 -7q20 0 62 -4t89 6q53 11 157 11l14 2h2l31 -12q56 -19 39 -103q0 -41 -15 -41zM311 670
q-8 -6 -8 -58t8 -74t31 -34q35 -6 75 -6q41 0 109 10t127 14q17 2 31 40t12 48l-5 25t-1 29q-8 39 -24 53l-4 2l-11 16q-17 29 -31 36t-19 10t-7 5t-20 11t-36 11q-16 2 -63 2q-47 1 -77 -24t-41 -51t-46 -65zM504 -35q-98 0 -155 14t-116 64q-20 16 -77 82l-6 6
q-8 16 -27 57q-18 41 -21 45q-18 57 -24 74q-31 55 -14 147q18 92 24 120t12 78t58 98h-2q18 10 32 42t33 50q28 20 62 35q27 8 38 14t30 14q19 9 27 11t38 15t70 9t69 0q43 0 100 -16l27 -6q43 -16 84 -54q45 -31 65 -67l-2 10q43 -103 43 -160t8 -79t-6 -52
q-16 -30 -22 -51q-23 -51 -29 -49h-4q-31 -4 -57 -13v3q-38 -12 -60 -10t-82 -6q-60 -7 -112 -7l-176 -8q-39 -33 -45 -49t6 -50h-2q14 -49 47 -67l20 -14q60 -73 174 -62q44 4 73 2t93 19l41 14q19 6 37 16t31 11q8 -4 29 -5q12 -4 18 -4q18 -20 24 -50t1 -42
q-18 -27 -19 -37q-10 -29 -53 -37l-62 -12q-35 0 -71 -12l-25 -8q-70 -25 -90 -23h-55z" />
    <glyph glyph-name="Ebreve" unicode="&#x114;" horiz-adv-x="954" 
d="M651 1346v2q8 2 19 4l37 10q25 14 45 -6l12 -25q25 -38 15 -51q-11 -14 -11 -33q-6 -12 -26 -26t-35 -37v4q-27 -33 -82 -58q-45 -25 -127 -6q-23 4 -62 -3t-82 30q-22 15 -52 29t-48 45v-4l-14 32q-16 29 -17 43q0 14 29 50h-2q12 10 69 10h21q33 0 39 -8q8 -16 4 -58
q10 -4 16 -16q6 -39 32 -36q9 1 13 -3q26 -26 60 -19t48 9t36 18q33 31 45 49l-4 -4q22 33 22 58zM413 492q41 0 109 10t127 14q17 2 31 39t7 61q-6 24 -3 39q-8 39 -22 54l-5 2l-12 14q-15 31 -29 37t-19 9t-7 5t-20 10t-23 11q-27 2 -73 4t-79 -27q-27 -18 -37 -44
t-49 -68q-6 -6 -7 -58t7 -69q8 -25 33 -37q31 -6 71 -6zM801 193q18 -9 47 -9q14 -18 21 -48t1 -44q-16 -25 -16 -35q-12 -31 -53 -37l-62 -12q-33 0 -69 -12l-27 -8q-76 -25 -88 -23h-55q-96 0 -150 13q-95 23 -192 145l-6 6q-25 45 -48 107t-24 67q-31 55 -14 146
q26 105 36 197q6 50 58 95h-2q16 10 28 40t34 48q22 17 58 33t44 20t17 8q9 3 20 8t17 6t52 20q18 12 56 6t67 -2q43 0 100 -17l25 -6q41 -12 84 -51q45 -31 63 -68l-2 11l4 -13q39 -90 39 -146t8 -77t-3 -44t-12 -29t-5 -13q-4 -8 -6 -14q-17 -51 -31 -51h-4
q-33 -4 -55 -13v2q-31 -10 -61 -8t-84 -5t-107 -7l-172 -8q-39 -33 -45 -49t6 -50h-2q14 -53 47 -65l18 -14q60 -72 172 -62q44 4 74 2t90 19l41 14q23 8 41 17t27 10z" />
    <glyph glyph-name="ebreve" unicode="&#x115;" horiz-adv-x="954" 
d="M655 1362v2q8 2 19 4l39 10q25 18 45 -6l14 -24q0 -2 19 -33q1 -13 -7 -25t-8 -26q-2 -4 -28 -31q-16 -12 -35 -33v2q-20 -25 -82 -59q-47 -20 -101 -11t-84 5q-28 -4 -59 6q-14 10 -40 26t-30 19q-47 25 -61 51v-4l-16 33q-16 29 -16 44t28 50h-2q12 10 72 10h18
q35 0 41 -8q8 -16 4 -57q14 -6 18 -28t13 -23q10 -1 20 -1l21 -10q27 -20 54 -14t43 8t44 26t41 44l-4 -4q20 30 20 57zM311 670q-8 -6 -8 -58t8 -74t31 -34q35 -6 75 -6q41 0 109 10t127 14q17 2 31 40t12 48l-5 25t-1 29q-8 39 -24 53l-4 2l-11 16q-17 29 -31 36t-19 10
t-7 5t-20 11t-36 11q-16 2 -63 2q-47 1 -77 -24t-41 -51t-46 -65zM504 -35q-98 0 -155 14t-116 64q-20 16 -77 82l-6 6q-8 16 -27 57q-18 41 -21 45q-18 57 -24 74q-31 55 -14 147q18 92 24 120t12 78t58 98h-2q18 10 32 42t33 50q28 20 62 35q27 8 38 14t30 14q19 9 27 11
t38 15t70 9t69 0q43 0 100 -16l27 -6q43 -16 84 -54q45 -31 65 -67l-2 10q43 -103 43 -160t8 -79t-6 -52q-16 -30 -22 -51q-23 -51 -29 -49h-4q-31 -4 -57 -13v3q-38 -12 -60 -10t-82 -6q-60 -7 -112 -7l-176 -8q-39 -33 -45 -49t6 -50h-2q14 -49 47 -67l20 -14
q60 -73 174 -62q44 4 73 2t93 19l41 14q19 6 37 16t31 11q8 -4 29 -5q12 -4 18 -4q18 -20 24 -50t1 -42q-18 -27 -19 -37q-10 -29 -53 -37l-62 -12q-35 0 -71 -12l-25 -8q-70 -25 -90 -23h-55z" />
    <glyph glyph-name="Edotaccent" unicode="&#x116;" horiz-adv-x="954" 
d="M657 1253l-2 -28q-2 -12 -2 -21l-2 -39q0 -6 2 -6q-82 -51 -141 -57q-72 -14 -115 28q-27 24 -29 102t44 107h-2q20 14 100 27l4 2h8q78 6 115 -22q33 -35 20 -93zM413 492q41 0 109 10t127 14q17 2 31 39t7 61q-6 24 -3 39q-8 39 -22 54l-5 2l-12 14q-15 31 -29 37
t-19 9t-7 5t-20 10t-23 11q-27 2 -73 4t-79 -27q-27 -18 -37 -44t-49 -68q-6 -6 -7 -58t7 -69q8 -25 33 -37q31 -6 71 -6zM801 193q18 -9 47 -9q14 -18 21 -48t1 -44q-16 -25 -16 -35q-12 -31 -53 -37l-62 -12q-33 0 -69 -12l-27 -8q-76 -25 -88 -23h-55q-96 0 -150 13
q-95 23 -192 145l-6 6q-25 45 -48 107t-24 67q-31 55 -14 146q26 105 36 197q6 50 58 95h-2q16 10 28 40t34 48q22 17 58 33t44 20t17 8q9 3 20 8t17 6t52 20q18 12 56 6t67 -2q43 0 100 -17l25 -6q41 -12 84 -51q45 -31 63 -68l-2 11l4 -13q39 -90 39 -146t8 -77t-3 -44
t-12 -29t-5 -13q-4 -8 -6 -14q-17 -51 -31 -51h-4q-33 -4 -55 -13v2q-31 -10 -61 -8t-84 -5t-107 -7l-172 -8q-39 -33 -45 -49t6 -50h-2q14 -53 47 -65l18 -14q60 -72 172 -62q44 4 74 2t90 19l41 14q23 8 41 17t27 10z" />
    <glyph glyph-name="edotaccent" unicode="&#x117;" horiz-adv-x="954" 
d="M662 1268l-3 -29q-2 -12 -2 -20l-2 -39q0 -6 2 -6q-75 -50 -145 -60t-113 29q-27 27 -29 105t44 108h-2q18 12 102 28h4q4 2 6 2q80 6 119 -24q29 -35 19 -94zM311 670q-8 -6 -8 -58t8 -74t31 -34q35 -6 75 -6q41 0 109 10t127 14q17 2 31 40t12 48l-5 25t-1 29
q-8 39 -24 53l-4 2l-11 16q-17 29 -31 36t-19 10t-7 5t-20 11t-36 11q-16 2 -63 2q-47 1 -77 -24t-41 -51t-46 -65zM504 -35q-98 0 -155 14t-116 64q-20 16 -77 82l-6 6q-8 16 -27 57q-18 41 -21 45q-18 57 -24 74q-31 55 -14 147q18 92 24 120t12 78t58 98h-2q18 10 32 42
t33 50q28 20 62 35q27 8 38 14t30 14q19 9 27 11t38 15t70 9t69 0q43 0 100 -16l27 -6q43 -16 84 -54q45 -31 65 -67l-2 10q43 -103 43 -160t8 -79t-6 -52q-16 -30 -22 -51q-23 -51 -29 -49h-4q-31 -4 -57 -13v3q-38 -12 -60 -10t-82 -6q-60 -7 -112 -7l-176 -8
q-39 -33 -45 -49t6 -50h-2q14 -49 47 -67l20 -14q60 -73 174 -62q44 4 73 2t93 19l41 14q19 6 37 16t31 11q8 -4 29 -5q12 -4 18 -4q18 -20 24 -50t1 -42q-18 -27 -19 -37q-10 -29 -53 -37l-62 -12q-35 0 -71 -12l-25 -8q-70 -25 -90 -23h-55z" />
    <glyph glyph-name="Eogonek" unicode="&#x118;" horiz-adv-x="954" 
d="M657 -119q0 53 13 66l24 14q2 2 19 12q33 12 63 0t33 -26v-2q2 -3 -8 -23t-8 -39q4 -5 4 -37t18 -59l-4 4q23 -45 55 -51q18 -4 39 -13t58 7l-9 -8q29 -12 29 -70v-10q0 -10 -18 -21q-20 -5 -60 -24q-31 12 -67 18q-77 13 -136 74q-33 39 -40 84l-5 96v8zM414 492
q40 0 108 10t125 14q17 2 31 39t12 48t-5 25t-1 27q-8 37 -25 54l-4 2l-10 14q-15 31 -33 38q-20 7 -26 15q-8 8 -39 19q-29 2 -75 4t-79 -27q-25 -18 -37 -46t-47 -66q-6 -6 -7 -58t7 -74q8 -20 31 -32q33 -6 74 -6zM799 193q27 -9 47 -9q16 -23 23 -51t1 -41
q-18 -23 -18 -35q-12 -31 -53 -37l-60 -12q-68 -12 -71 -12l-25 -8q-76 -25 -88 -23h-55q-98 0 -140 12q-70 14 -127 66q-23 16 -77 80l-6 6q-30 55 -49 111q-19 57 -23 63q-29 57 -12 146q0 6 18 94l18 92q6 61 56 106h-2q18 12 31 42t32 48q25 17 59 31t42 20t17 8
q9 3 21 8t20 6t18 7q12 6 32 13q18 12 56 6t67 -2q45 0 98 -17l27 -6q37 -10 84 -51q47 -35 63 -68l-2 11l4 -13q37 -88 37 -145t9 -80t-3 -44t-13 -27t-5 -13t-16 -37t-19 -28h-4q-33 -4 -55 -13v2q-35 -10 -63 -8t-81 -5t-108 -7l-174 -8q-39 -33 -44 -49t7 -50h-2
q14 -51 45 -65l20 -14q56 -73 174 -62q44 4 71 2t91 19l39 14q25 8 40 17t28 10zM963 -266l16 12q0 -23 -18 -22q2 2 2 10z" />
    <glyph glyph-name="eogonek" unicode="&#x119;" horiz-adv-x="954" 
d="M664 -121q0 55 12 68l22 14q6 4 12 7t11 5l-2 -2q31 14 69 -4q21 -4 27 -20v-2q4 -2 -2 -8q-14 -43 -11 -53t3 -41q0 -32 16 -60l-4 4q25 -43 50 -49t46 -15t58 7l-8 -9q10 -6 24 -22q6 -14 6 -47v-10q0 -12 -20 -21q-31 -8 -43 -16h2l-19 -11q-33 14 -67 20t-66 20
t-67 51t-45 88l-4 98v8zM414 498q40 0 110 10t127 14q17 2 33 42t10 57v-5q-10 20 -6 48q-8 39 -22 53l-4 2l-13 16q-17 29 -31 36t-29 18t-40 18q-27 2 -75 3t-78 -26t-40 -49t-47 -65q-6 -6 -7 -59t7 -74t33 -33q31 -6 72 -6zM807 195q18 -9 47 -9q16 -20 22 -50t-4 -49
q-11 -18 -12 -30q-10 -27 -53 -37l-64 -12q-33 0 -69 -12l-27 -8q-66 -25 -90 -23h-55q-98 0 -155 14t-116 64q-29 20 -75 82l-6 6q-18 29 -48 102q-12 41 -26 74q-33 64 -3 201q7 37 16 78t11 57q6 61 58 107h-2q12 8 30 43t33 49q35 24 63 34t38 15q10 6 30 14q20 9 28 11
t24 9q14 7 29 13t55 2t67 0q45 0 102 -16l25 -6q41 -14 86 -54q41 -29 63 -67l-2 10l4 -12q39 -83 39 -144t4 -76q12 -27 -3 -60t-19 -50q-23 -51 -31 -49h-4q-35 -4 -55 -13v3q-40 -12 -62 -10t-80 -6q-58 -7 -114 -7l-174 -8q-41 -33 -47 -49t8 -50h-2q12 -51 47 -67
l18 -14q64 -72 176 -62q44 4 74 2t90 19l41 14q25 8 40 17t30 10zM971 -270l18 14q0 -25 -20 -25q2 3 2 11z" />
    <glyph glyph-name="Ecaron" unicode="&#x11a;" horiz-adv-x="954" 
d="M348 1386q27 -8 28 -10t4 -7t8 -13t9 -15q35 -53 62 -67q12 -18 44 -13t46 25v-2q23 28 45 54t37 37q14 11 60 19t95 -26l15 -14q-53 -92 -144 -160l-30 -23q-88 -68 -115 -81h4l-22 -9l-33 11l2 -2q-19 8 -53 49q-33 42 -48 55q-92 78 -139 152q-4 2 -1 10t9 10h-6l13 4
q59 29 92 23l-2 2zM413 492q41 0 109 10t127 14q17 2 31 39t7 61q-6 24 -3 39q-8 39 -22 54l-5 2l-12 14q-15 31 -29 37t-19 9t-7 5t-20 10t-23 11q-27 2 -73 4t-79 -27q-27 -18 -37 -44t-49 -68q-6 -6 -7 -58t7 -69q8 -25 33 -37q31 -6 71 -6zM801 193q18 -9 47 -9
q14 -18 21 -48t1 -44q-16 -25 -16 -35q-12 -31 -53 -37l-62 -12q-33 0 -69 -12l-27 -8q-76 -25 -88 -23h-55q-96 0 -150 13q-95 23 -192 145l-6 6q-25 45 -48 107t-24 67q-31 55 -14 146q26 105 36 197q6 50 58 95h-2q16 10 28 40t34 48q22 17 58 33t44 20t17 8q9 3 20 8
t17 6t52 20q18 12 56 6t67 -2q43 0 100 -17l25 -6q41 -12 84 -51q45 -31 63 -68l-2 11l4 -13q39 -90 39 -146t8 -77t-3 -44t-12 -29t-5 -13q-4 -8 -6 -14q-17 -51 -31 -51h-4q-33 -4 -55 -13v2q-31 -10 -61 -8t-84 -5t-107 -7l-172 -8q-39 -33 -45 -49t6 -50h-2
q14 -53 47 -65l18 -14q60 -72 172 -62q44 4 74 2t90 19l41 14q23 8 41 17t27 10z" />
    <glyph glyph-name="ecaron" unicode="&#x11b;" horiz-adv-x="954" 
d="M377 1395q2 -1 9 -15q35 -67 75 -90q12 -18 44 -13t48 26v-3q23 28 41 52t38 38q19 14 64 21q45 8 97 -25l14 -16q-47 -86 -145 -162l-29 -22q-102 -74 -117 -82h4l-22 -10q-2 0 -10 4t-25 8l2 -2q-25 9 -78 82q-8 10 -22 22q-92 82 -142 154q-4 2 -1 11t9 11h-6
q77 30 105 25l-2 2l22 -8q4 -2 9 -3t9 -2t5 -1zM311 670q-8 -6 -8 -58t8 -74t31 -34q35 -6 75 -6q41 0 109 10t127 14q17 2 31 40t12 48l-5 25t-1 29q-8 39 -24 53l-4 2l-11 16q-17 29 -31 36t-19 10t-7 5t-20 11t-36 11q-16 2 -63 2q-47 1 -77 -24t-41 -51t-46 -65z
M504 -35q-98 0 -155 14t-116 64q-20 16 -77 82l-6 6q-8 16 -27 57q-18 41 -21 45q-18 57 -24 74q-31 55 -14 147q18 92 24 120t12 78t58 98h-2q18 10 32 42t33 50q28 20 62 35q27 8 38 14t30 14q19 9 27 11t38 15t70 9t69 0q43 0 100 -16l27 -6q43 -16 84 -54q45 -31 65 -67
l-2 10q43 -103 43 -160t8 -79t-6 -52q-16 -30 -22 -51q-23 -51 -29 -49h-4q-31 -4 -57 -13v3q-38 -12 -60 -10t-82 -6q-60 -7 -112 -7l-176 -8q-39 -33 -45 -49t6 -50h-2q14 -49 47 -67l20 -14q60 -73 174 -62q44 4 73 2t93 19l41 14q19 6 37 16t31 11q8 -4 29 -5
q12 -4 18 -4q18 -20 24 -50t1 -42q-18 -27 -19 -37q-10 -29 -53 -37l-62 -12q-35 0 -71 -12l-25 -8q-70 -25 -90 -23h-55z" />
    <glyph glyph-name="Gcircumflex" unicode="&#x11c;" horiz-adv-x="958" 
d="M670 1100q-2 2 -5 7l-18 30q-35 53 -61 67q-12 16 -44 11t-50 -27q-65 -79 -79 -88q-13 -8 -59 -16t-96 24l-14 16q47 76 143 160l31 21q59 49 114 84h-4l23 8q1 0 5 -2t11 -4q8 -2 17 -5l-2 3q10 -5 50 -51t50 -54q92 -82 139 -151q4 -1 1 -11t-9 -12h6l-12 -4
q-57 -27 -92 -21l-21 5zM532 754q-75 0 -94 -25l-20 -24q-76 -86 -80 -93l-14 -16q-18 -20 -22 -32t-6 -56q-1 -45 10 -65t17 -81q5 -60 33 -86q10 -10 33 -36q20 -39 51 -58q-4 -8 -4 -14q0 -14 39 -23q39 -8 57 -5t38 2q22 -1 118 34h17v39q0 51 6 61q8 39 -2 62
q-11 23 -25 28t-32 7q-18 1 -28 7t-10 14t1 36q1 27 26 41q33 12 87 12q141 0 165 -65l-6 -47q0 -74 2 -109l2 -94q0 -37 -4 -78l-2 -2q-12 -29 -23 -33l-26 -12q-35 -20 -52 -18q-63 3 -106 -9t-51 -30v4l-127 -8q-51 0 -78 12q-26 12 -38 18t-15 6l-50 21q-63 20 -92 50
t-92 118q-6 10 -10 59t-16 74l-15 31q-6 12 -8 22l-8 41q-18 61 10 133q4 7 15 61t36 74v-2q25 16 47 50q39 43 62 61v-2q18 9 55 35t55 33v-3q8 2 42 18t59 23l26 11l27 2q27 6 67 -3q39 -9 89 -9t92 -19q42 -18 58 -23q17 -5 47 -28t24 -43v-4q-10 -66 -55 -117
q0 -4 -24 -3t-62 21q-36 20 -46 20q-12 1 -60 17q-47 16 -83 17h-27zM440 182l11 11l-5 -7q0 -2 -2 -6q-4 0 -4 2z" />
    <glyph glyph-name="gcircumflex" unicode="&#x11d;" horiz-adv-x="958" 
d="M700 1104q-8 4 -18 6t-29 41q-33 53 -61 68q-12 16 -45 11t-53 -28q-20 -24 -38 -48q-20 -24 -40 -38t-62 -21q-41 -7 -96 27l-14 15q49 82 145 163l31 21q86 66 115 84h-5l25 8q31 -11 35 -10q13 -12 63 -66q19 -25 74 -73t102 -119q4 -2 1 -10t-11 -11h8l-14 -4
q-57 -29 -92 -22l2 -2zM674 928q52 0 92 -20t60 -24q19 -5 47 -28q28 -22 24 -45v-2q-10 -66 -55 -119q0 -4 -33 -4q-12 2 -54 23t-53 22l-53 14q-61 16 -86 17h-28q-72 0 -95 -23l-20 -26q-7 -8 -61 -70q-53 -62 -57 -73t-6 -56q-1 -45 8 -57t9 -23q9 -18 13 -74t32 -79
q6 -4 33 -39q25 -41 51 -58q-4 -8 -4 -14q0 -14 39 -23q39 -8 57 -5t38 2q19 -1 122 34h17v41q0 51 7 76t-3 47q-11 22 -25 28q-14 5 -32 7q-18 1 -30 7q-10 6 -10 14t1 38q1 29 27 40t88 11q146 0 167 -65l-6 -47q0 -76 2 -109l2 -96q0 -72 -6 -84v4q-12 -31 -23 -35
l-26 -12q-37 -18 -78 -15q-41 2 -82 -10t-53 -32v4l-127 -8q-53 0 -80 12q-26 12 -38 18t-15 6l-49 21q-66 18 -103 59t-84 111q-6 12 -10 61t-19 74l-14 31q-6 12 -8 24l-8 39q-18 61 10 135q6 21 16 69t37 69v-2q20 16 47 49t62 63v-4q2 2 45 31t67 39v-2q10 2 41 18
t62 25l24 10l29 2q31 4 69 -4q37 -8 89 -8zM442 184l13 11l-4 -7q0 -2 -2 -6q-7 0 -7 2z" />
    <glyph glyph-name="Gbreve" unicode="&#x11e;" horiz-adv-x="958" 
d="M244 1298q0 16 30 48h-2q10 10 70 10h18q33 0 41 -8q8 -16 5 -58q8 -4 14 -16q4 -27 13 -32t22 -3l20 -10q29 -16 55 -11t42 7q14 2 36 18q35 33 47 49l-6 -4q22 26 23 58v2q8 2 18 4l39 10q23 14 43 -6l14 -25q0 -2 19 -33q0 -12 -7 -23t-7 -28q-5 -10 -27 -26t-35 -37
v4q-31 -37 -84 -58q-45 -25 -127 -6q-25 4 -63 -3t-80 30q-23 17 -53 29t-46 45v-4l-16 32q-16 29 -16 45zM532 754q-75 0 -94 -25l-20 -24q-76 -86 -80 -93l-14 -16q-18 -20 -22 -32t-6 -56q-1 -45 10 -65t17 -81q5 -60 33 -86q10 -10 33 -36q20 -39 51 -58q-4 -8 -4 -14
q0 -14 39 -23q39 -8 57 -5t38 2q22 -1 118 34h17v39q0 51 6 61q8 39 -2 62q-11 23 -25 28t-32 7q-18 1 -28 7t-10 14t1 36q1 27 26 41q33 12 87 12q141 0 165 -65l-6 -47q0 -74 2 -109l2 -94q0 -37 -4 -78l-2 -2q-12 -29 -23 -33l-26 -12q-35 -20 -52 -18q-63 3 -106 -9
t-51 -30v4l-127 -8q-51 0 -78 12q-26 12 -38 18t-15 6l-50 21q-63 20 -92 50t-92 118q-6 10 -10 59t-16 74l-15 31q-6 12 -8 22l-8 41q-18 61 10 133q4 7 15 61t36 74v-2q25 16 47 50q39 43 62 61v-2q18 9 55 35t55 33v-3q8 2 42 18t59 23l26 11l27 2q27 6 67 -3
q39 -9 89 -9t92 -19q42 -18 58 -23q17 -5 47 -28t24 -43v-4q-10 -66 -55 -117q0 -4 -24 -3t-62 21q-36 20 -46 20q-12 1 -60 17q-47 16 -83 17h-27zM440 182l11 11l-5 -7q0 -2 -2 -6q-4 0 -4 2z" />
    <glyph glyph-name="gbreve" unicode="&#x11f;" horiz-adv-x="958" 
d="M676 1362v2l20 4l39 10q20 18 45 -6l13 -24q0 -2 18 -33l-14 -51q-6 -12 -29 -31q-20 -12 -33 -33v2q-20 -25 -84 -59q-47 -20 -101 -11t-82 5q-30 -4 -52 5t-42 24t-52 32t-46 41v-4l-14 33q-18 27 -18 42t30 52h-2q10 10 70 10h20q33 0 41 -8q8 -16 5 -57q8 -4 14 -17
q4 -22 10 -30t20 -6t17 -3q28 -28 61 -21q34 7 48 9t34 21q35 27 47 49l-4 -4q21 28 21 57zM674 928q52 0 92 -20t60 -24q19 -5 47 -28q28 -22 24 -45v-2q-10 -66 -55 -119q0 -4 -33 -4q-12 2 -54 23t-53 22l-53 14q-61 16 -86 17h-28q-72 0 -95 -23l-20 -26q-7 -8 -61 -70
q-53 -62 -57 -73t-6 -56q-1 -45 8 -57t9 -23q9 -18 13 -74t32 -79q6 -4 33 -39q25 -41 51 -58q-4 -8 -4 -14q0 -14 39 -23q39 -8 57 -5t38 2q19 -1 122 34h17v41q0 51 7 76t-3 47q-11 22 -25 28q-14 5 -32 7q-18 1 -30 7q-10 6 -10 14t1 38q1 29 27 40t88 11q146 0 167 -65
l-6 -47q0 -76 2 -109l2 -96q0 -72 -6 -84v4q-12 -31 -23 -35l-26 -12q-37 -18 -78 -15q-41 2 -82 -10t-53 -32v4l-127 -8q-53 0 -80 12q-26 12 -38 18t-15 6l-49 21q-66 18 -103 59t-84 111q-6 12 -10 61t-19 74l-14 31q-6 12 -8 24l-8 39q-18 61 10 135q6 21 16 69t37 69
v-2q20 16 47 49t62 63v-4q2 2 45 31t67 39v-2q10 2 41 18t62 25l24 10l29 2q31 4 69 -4q37 -8 89 -8zM442 184l13 11l-4 -7q0 -2 -2 -6q-7 0 -7 2z" />
    <glyph glyph-name="Gdotaccent" unicode="&#x120;" horiz-adv-x="958" 
d="M657 1253l-2 -28q-12 -70 -4 -66q-172 -108 -256 -29q-25 24 -27 102t44 107h-2q20 14 100 27l4 2h6q80 6 117 -22q33 -35 20 -93zM532 754q-75 0 -94 -25l-20 -24q-76 -86 -80 -93l-14 -16q-18 -20 -22 -32t-6 -56q-1 -45 10 -65t17 -81q5 -60 33 -86q10 -10 33 -36
q20 -39 51 -58q-4 -8 -4 -14q0 -14 39 -23q39 -8 57 -5t38 2q22 -1 118 34h17v39q0 51 6 61q8 39 -2 62q-11 23 -25 28t-32 7q-18 1 -28 7t-10 14t1 36q1 27 26 41q33 12 87 12q141 0 165 -65l-6 -47q0 -74 2 -109l2 -94q0 -37 -4 -78l-2 -2q-12 -29 -23 -33l-26 -12
q-35 -20 -52 -18q-63 3 -106 -9t-51 -30v4l-127 -8q-51 0 -78 12q-26 12 -38 18t-15 6l-50 21q-63 20 -92 50t-92 118q-6 10 -10 59t-16 74l-15 31q-6 12 -8 22l-8 41q-18 61 10 133q4 7 15 61t36 74v-2q25 16 47 50q39 43 62 61v-2q18 9 55 35t55 33v-3q8 2 42 18t59 23
l26 11l27 2q27 6 67 -3q39 -9 89 -9t92 -19q42 -18 58 -23q17 -5 47 -28t24 -43v-4q-10 -66 -55 -117q0 -4 -24 -3t-62 21q-36 20 -46 20q-12 1 -60 17q-47 16 -83 17h-27zM440 182l11 11l-5 -7q0 -2 -2 -6q-4 0 -4 2z" />
    <glyph glyph-name="gdotaccent" unicode="&#x121;" horiz-adv-x="958" 
d="M662 1268l-3 -29q-2 -12 -2 -20l-2 -39q0 -6 2 -6q-167 -108 -260 -31q-25 27 -27 105t44 108h-2q18 12 102 28h4q4 2 6 2q80 6 119 -24q29 -35 19 -94zM674 928q52 0 92 -20t60 -24q19 -5 47 -28q28 -22 24 -45v-2q-10 -66 -55 -119q0 -4 -33 -4q-12 2 -54 23t-53 22
l-53 14q-61 16 -86 17h-28q-72 0 -95 -23l-20 -26q-7 -8 -61 -70q-53 -62 -57 -73t-6 -56q-1 -45 8 -57t9 -23q9 -18 13 -74t32 -79q6 -4 33 -39q25 -41 51 -58q-4 -8 -4 -14q0 -14 39 -23q39 -8 57 -5t38 2q19 -1 122 34h17v41q0 51 7 76t-3 47q-11 22 -25 28q-14 5 -32 7
q-18 1 -30 7q-10 6 -10 14t1 38q1 29 27 40t88 11q146 0 167 -65l-6 -47q0 -76 2 -109l2 -96q0 -72 -6 -84v4q-12 -31 -23 -35l-26 -12q-37 -18 -78 -15q-41 2 -82 -10t-53 -32v4l-127 -8q-53 0 -80 12q-26 12 -38 18t-15 6l-49 21q-66 18 -103 59t-84 111q-6 12 -10 61
t-19 74l-14 31q-6 12 -8 24l-8 39q-18 61 10 135q6 21 16 69t37 69v-2q20 16 47 49t62 63v-4q2 2 45 31t67 39v-2q10 2 41 18t62 25l24 10l29 2q31 4 69 -4q37 -8 89 -8zM442 184l13 11l-4 -7q0 -2 -2 -6q-7 0 -7 2z" />
    <glyph glyph-name="Gcommaaccent" unicode="&#x122;" horiz-adv-x="958" 
d="M381 -250q0 78 27 105q47 47 98 33t110 -66q56 -60 46 -138q-6 -40 -41 -130q-12 -27 -48 -66l-20 -29q-16 -31 -78 -63q-12 0 -26 -14l-37 30q-8 8 8 25l20 20q31 16 43 41l15 27q23 37 24 70t-22 47q-10 10 -46 14t-52 22t-21 64v8zM532 754q-75 0 -94 -25l-20 -24
q-76 -86 -80 -93l-14 -16q-18 -20 -22 -32t-6 -56q-1 -45 10 -65t17 -81q5 -60 33 -86q10 -10 33 -36q20 -39 51 -58q-4 -8 -4 -14q0 -14 39 -23q39 -8 57 -5t38 2q22 -1 118 34h17v39q0 51 6 61q8 39 -2 62q-11 23 -25 28t-32 7q-18 1 -28 7t-10 14t1 36q1 27 26 41
q33 12 87 12q141 0 165 -65l-6 -47q0 -74 2 -109l2 -94q0 -37 -4 -78l-2 -2q-12 -29 -23 -33l-26 -12q-35 -20 -52 -18q-63 3 -106 -9t-51 -30v4l-127 -8q-51 0 -78 12q-26 12 -38 18t-15 6l-50 21q-63 20 -92 50t-92 118q-6 10 -10 59t-16 74l-15 31q-6 12 -8 22l-8 41
q-18 61 10 133q4 7 15 61t36 74v-2q25 16 47 50q39 43 62 61v-2q18 9 55 35t55 33v-3q8 2 42 18t59 23l26 11l27 2q27 6 67 -3q39 -9 89 -9t92 -19q42 -18 58 -23q17 -5 47 -28t24 -43v-4q-10 -66 -55 -117q0 -4 -24 -3t-62 21q-36 20 -46 20q-12 1 -60 17q-47 16 -83 17
h-27zM440 182l11 11l-5 -7q0 -2 -2 -6q-4 0 -4 2z" />
    <glyph glyph-name="gcommaaccent" unicode="&#x123;" horiz-adv-x="958" 
d="M383 -252q0 78 27 105q47 49 106 34q53 -20 105 -67q23 -25 37 -63q26 -74 -33 -210q-12 -27 -47 -65l-21 -31q-20 -33 -80 -63q-12 0 -24 -13l-39 29q-8 10 8 26t20 19q27 14 43 43l17 27q23 37 24 71t-22 48q-4 4 -47 14q-37 4 -53 22t-21 64v10zM674 928q52 0 92 -20
t60 -24q19 -5 47 -28q28 -22 24 -45v-2q-10 -66 -55 -119q0 -4 -33 -4q-12 2 -54 23t-53 22l-53 14q-61 16 -86 17h-28q-72 0 -95 -23l-20 -26q-7 -8 -61 -70q-53 -62 -57 -73t-6 -56q-1 -45 8 -57t9 -23q9 -18 13 -74t32 -79q6 -4 33 -39q25 -41 51 -58q-4 -8 -4 -14
q0 -14 39 -23q39 -8 57 -5t38 2q19 -1 122 34h17v41q0 51 7 76t-3 47q-11 22 -25 28q-14 5 -32 7q-18 1 -30 7q-10 6 -10 14t1 38q1 29 27 40t88 11q146 0 167 -65l-6 -47q0 -76 2 -109l2 -96q0 -72 -6 -84v4q-12 -31 -23 -35l-26 -12q-37 -18 -78 -15q-41 2 -82 -10
t-53 -32v4l-127 -8q-53 0 -80 12q-26 12 -38 18t-15 6l-49 21q-66 18 -103 59t-84 111q-6 12 -10 61t-19 74l-14 31q-6 12 -8 24l-8 39q-18 61 10 135q6 21 16 69t37 69v-2q20 16 47 49t62 63v-4q2 2 45 31t67 39v-2q10 2 41 18t62 25l24 10l29 2q31 4 69 -4q37 -8 89 -8z
M442 184l13 11l-4 -7q0 -2 -2 -6q-7 0 -7 2z" />
    <glyph glyph-name="Hcircumflex" unicode="&#x124;" 
d="M694 1090q-8 4 -18 6t-29 41q-35 53 -61 67q-12 16 -44 11t-52 -27t-40 -48t-37 -37t-61 -19t-94 24l-14 16q47 78 143 160l29 21q47 37 114 84h-4l25 8q3 -1 11 -5t22 -6l-2 3q12 -5 48 -49t90 -92t101 -115q4 -1 1 -11t-9 -12h6l-12 -4q-57 -27 -92 -21l2 -2zM309 895
v-4q0 -39 -8 -99t-4 -92t0 -60t14 -81l6 -2q6 -14 29 -25q47 -8 126 -4t119 0t59 4t59 9q25 -8 35 1t16 40l6 39q6 23 0 79l-4 35q-6 61 -6 81t12 56q6 0 10 17q12 16 15 16l36 6q53 12 101 2q27 -6 39 -43q8 -39 -1 -79q-8 -41 -12 -75t1 -58t0 -52q-5 -29 -2 -88t1 -106
l-4 -45q-6 -61 -4 -144l8 -114q0 -86 -30 -99h2q-38 -25 -90 -19q-52 7 -65 7t-38 39q-6 25 -6 68t12 141l4 37l7 30l-9 27l2 -2q-4 20 -11 30q-8 10 -42 8q-34 -3 -52 -9t-59 -3q-40 3 -137 3h-104q-14 3 -26 -11t-17 -30l-8 -31q-4 -39 0 -115q0 -106 -13 -145
q-8 -8 -18 -23l-18 -22q-16 -6 -69 -6t-73 19t-18 32l-2 92q0 57 6 103t2 98t0 96l6 94q4 68 9 96t0 46t-5 57q4 25 4 73t9 93l-3 -2q8 20 25 30q49 13 76 13t80 -17l-2 2q24 -10 24 -14z" />
    <glyph glyph-name="hcircumflex" unicode="&#x125;" 
d="M674 1114q-2 2 -10 16q-41 70 -74 89q-12 16 -45 11t-51 -28q-57 -71 -76 -84q-82 -46 -160 4l-14 15q43 78 145 163l29 21q88 68 117 84h-5l23 8q31 -9 35 -10l-2 2q12 -5 51 -51t49 -54q94 -84 141 -155q4 -2 1 -10t-9 -11h6l-12 -4q-59 -29 -92 -22l2 -2l-25 8z
M98 800q0 50 8 93l-2 -2q8 20 25 33q53 12 79 12t81 -16l-2 2l12 -7l10 -10v-4q0 -39 -8 -101t-4 -92t0 -59t14 -84l6 -2q4 -10 31 -22q47 -10 131 -6t120 0q37 -4 57 4t59 10q25 -10 35 0t16 41l6 37q6 27 2 61l-2 21l-4 36q-6 55 -6 78t12 60q6 0 10 16q14 18 17 19l35 6
q55 12 104 2q25 -6 36 -43t1 -78t-13 -78t2 -61t0 -52q-5 -29 -2 -90t1 -106l-4 -47q-6 -61 -5 -144l9 -118q0 -39 -11 -76l2 2q-8 -18 -22 -25h2l-14 -10q-34 -12 -80 -7t-61 5t-40 39q-6 25 -6 57t10 154l7 39l6 30l-10 27l4 -2q-12 36 -20 39q-8 2 -38 -1q-32 -3 -50 -9
t-59 -3q-40 3 -139 3h-104q-16 5 -28 -9t-17 -32l-6 -33q-4 -35 0 -115q0 -109 -15 -147q-10 -10 -18 -23l-18 -22q-16 -6 -70 -6t-74 19t-18 32l-2 94q0 57 6 105t2 99q-4 52 0 95l6 96q4 70 9 97t0 46t-5 60q4 23 4 73z" />
    <glyph glyph-name="Hbar" unicode="&#x126;" 
d="M380 696q-40 0 -95 9q8 -45 8 -69t16 -77q8 -6 8 -2q8 -16 29 -25q47 -8 126 -4t119 0t59 4t59 9q27 -10 35 -1t16 38l10 51q4 16 0 55l-20 18l-48 -2q-198 -6 -240 -5t-82 1zM2 797q8 0 30 6q20 6 66 10l8 47q4 49 9 51q82 23 172 -4l-2 2q24 -10 24 -14v-35l-4 -57
q53 2 79 2h31l27 -6l41 -2l107 -2q117 0 174 14v31q0 28 4 30t10 23v-4q12 16 15 16l36 6q53 14 103 2q10 -3 18 -39t8 -38l3 -5l20 -20q14 0 44 -12t34 -27q0 -10 2 -18v-2l-6 -27q-4 -16 -15 -16l-24 -9l-53 2q-8 -66 0 -75q-13 0 -9 -84t2 -131l-4 -45q-6 -61 -4 -144
l8 -114q0 -86 -30 -99h2q-38 -25 -88 -19q-50 7 -65 7t-40 39q-6 25 -6 68t12 141l4 37l7 30l-9 27l2 -2q-4 20 -11 30q-8 10 -42 8q-34 -3 -52 -9t-59 -3q-40 3 -137 3h-104q-14 3 -26 -11t-17 -30l-6 -31q-8 -45 0 -115q0 -100 -15 -145q-8 -8 -18 -23l-18 -22
q-14 -6 -68 -6t-74 19t-18 32l-2 92q0 57 6 103t2 98t0 96l16 188l4 80q-23 -3 -67 0q-43 4 -45 8q-18 48 0 95q0 2 8 2zM963 627q2 -2 4 -2z" />
    <glyph glyph-name="hbar" unicode="&#x127;" 
d="M293 645q0 -29 16 -80q8 -6 8 -2q6 -14 31 -22q47 -10 131 -6t120 0q37 -4 57 4t59 10q29 -8 36 -1t15 36l10 53q4 16 0 55l-20 19l-47 -2q-328 -10 -422 4q6 -39 6 -68zM971 635q-12 0 -8 -86t2 -131l-4 -47q-6 -61 -5 -144l9 -118q0 -39 -11 -76l2 2q-6 -18 -20 -25h2
l-16 -10q-34 -12 -80 -7t-61 5t-40 39q-6 25 -6 57t10 154l7 39l6 30l-8 27l2 -2q-12 36 -20 39q-8 2 -36 0q-30 -2 -50 -9t-61 -4q-40 3 -139 3h-104q-16 5 -28 -9t-17 -32l-6 -33q-4 -35 0 -115q0 -109 -15 -147q-10 -10 -18 -23l-18 -22q-16 -6 -70 -6t-74 19t-18 32
l-2 94q0 57 6 105t2 99q-4 52 0 95l16 190l4 82q-53 -7 -90 5q-23 0 -24 4q-18 50 0 96q0 2 10 2t29 6l-2 -2q31 10 69 12l8 49q4 49 9 52q35 10 79 10t97 -14l-2 2l12 -7l10 -10v-33l-4 -61q57 2 139 -2l41 -2l109 -2q117 0 176 12v33q0 20 2 31q11 5 12 18q14 18 17 19
l35 6q57 14 104 2q10 -4 18 -41t9 -41l24 -23q4 0 39 -12t37 -27q0 -12 2 -20v-2l-4 -25q-4 -18 -21 -20t-20 -6l-53 2q-8 -66 0 -76zM971 635q2 -2 4 -2z" />
    <glyph glyph-name="Itilde" unicode="&#x128;" horiz-adv-x="436" 
d="M496 1225l-13 -33q-18 -49 -55 -53q-76 -30 -129 -15l-57 19q-48 20 -64 21t-60 10t-79 -3q-6 -4 -19 -26q-4 -14 -18 -25q-16 -10 -25 6l-16 19l-27 26q-4 37 -2 60q16 41 72 69q20 10 66 6t65 -1q21 1 65 -21t46 -22q41 -12 108 -2q23 4 45 26q16 24 50 10q6 -6 12 -6
l4 -4q20 -10 30 -29t1 -32zM131 586q0 44 -6 82l-6 53q-8 67 -8 93t8 58h-2q14 44 45 46h2q33 8 74 8t63 -6q37 -25 35 -35q4 -38 1 -98t-3 -123v-35l-10 -295l2 -90q2 -22 2 -82q0 -149 -47 -168v2q-31 -8 -57 -8t-68 12v-2q-49 18 -50 27q-4 31 0 111t5 104l2 43
q0 98 9 178q9 81 9 125z" />
    <glyph glyph-name="itilde" unicode="&#x129;" horiz-adv-x="436" 
d="M500 1239l-13 -33q-18 -49 -55 -53q-72 -32 -131 -16l-57 20q-54 19 -68 21t-60 11t-77 -3q-8 -4 -21 -27q-4 -16 -18 -25t-25 5l-16 20l-27 27q-4 37 -2 61q18 43 74 70q20 10 66 6t66 -2q20 1 64 -21t66 -29t69 0q46 7 65 32t53 10q6 -6 12 -6l4 -4q20 -10 33 -35v2
q10 -15 -2 -31zM133 601q0 38 -8 75l-6 55q-8 61 -8 90t8 62h-2q16 45 45 47h2q35 8 77 8t62 -6q37 -25 35 -37q4 -38 1 -98t-3 -125v-35l-8 -299l2 -92q2 -20 2 -81t-12 -111t-37 -60v2q-31 -8 -57 -8t-70 12v-2q-2 0 -10 3t-21 8q-14 5 -16 10q-7 26 -3 113t5 110l2 45
q0 100 10 188t10 126z" />
    <glyph glyph-name="uni012A" unicode="&#x12a;" horiz-adv-x="436" 
d="M500 1145h-2q-25 -4 -34 -7t-36 -1h-8q-47 10 -94 10h-23l-178 -8q-14 2 -27 2t-39 3q-27 3 -51 -1t-45 -2t-29 24q-16 48 0 97q6 18 39 28v-2q39 10 48 6t38 0l109 -10q20 0 61 -4t85 5t70 10t46 1l14 2h2l31 -12q54 -20 37 -102l-4 -25q-4 -14 -10 -14zM131 586
q0 44 -6 82l-6 53q-8 67 -8 93t8 58h-2q16 44 45 46h2q33 8 74 8t63 -6q37 -25 35 -35q4 -38 0 -98t-4 -123v-35l-8 -295l2 -90q2 -22 2 -82q0 -149 -47 -168v2q-31 -8 -57 -8t-68 12v-2q-49 18 -50 27q-4 31 0 111t5 104l2 43q0 98 9 178q9 81 9 125z" />
    <glyph glyph-name="imacron" unicode="&#x12b;" horiz-adv-x="436" 
d="M504 1159h-2q-25 -4 -34 -7t-36 -1h-8q-47 10 -94 10h-25l-180 -8q-14 2 -27 2t-41 3q-29 3 -53 -1t-44 -2q-21 2 -33 38q-13 37 5 83q6 20 39 31v-2q41 10 49 6t39 0l109 -11q24 0 64 -4t84 5t71 11t47 1l15 2h2l30 -12q55 -23 39 -103l-4 -26q-4 -15 -12 -15zM131 591
q0 44 -6 85l-6 55q-8 61 -8 90t8 62h-2q16 45 45 47h2q35 8 77 8t62 -6q37 -25 35 -37q4 -38 1 -98t-3 -125v-35l-8 -299l2 -92q2 -20 2 -82q0 -151 -49 -170v2q-31 -8 -57 -8t-70 12v-2q-49 18 -50 29q-4 29 0 111t5 104l2 45q0 100 9 180t9 124z" />
    <glyph glyph-name="Ibreve" unicode="&#x12c;" horiz-adv-x="436" 
d="M358 1346v2q8 2 19 4l39 10q20 14 45 -6l12 -25q0 -2 19 -33q0 -12 -8 -23t-7 -28q-8 -14 -28 -28t-33 -35v4q-29 -35 -82 -58q-47 -25 -127 -6q-27 4 -60 -2t-71 20t-67 38t-46 45v-4l-14 32q-19 27 -19 41t31 52h-2q10 10 70 10h18q35 0 41 -8q8 -16 4 -58q8 -4 14 -16
q4 -26 13 -31q10 -6 24 -4q6 -2 27 -14t47 -7t42 7t36 18q37 35 50 56t13 47zM131 586q0 44 -6 82l-6 53q-8 67 -8 93t8 58h-2q14 44 45 46h2q33 8 74 8t63 -6q37 -25 35 -35q4 -38 1 -98t-3 -123v-35q0 -119 -5 -169t-5 -126l2 -90q4 -22 4 -78q0 -153 -49 -172v2
q-31 -8 -57 -8t-68 12v-2q-49 18 -50 27q-4 31 0 111t5 104l2 43q0 98 9 178q9 81 9 125z" />
    <glyph glyph-name="uni012D" unicode="&#x12d;" horiz-adv-x="436" 
d="M362 1362v2q8 2 19 4l39 10q10 6 24 4t21 -10l12 -24q0 -2 19 -33q0 -13 -8 -25t-7 -26q-6 -12 -28 -31q-20 -12 -33 -33v2q-20 -25 -84 -59q-46 -20 -100 -11t-84 5t-58 6l-33 22q-23 16 -55 33t-45 41v-4l-14 33q-19 27 -19 42t31 52h-2q10 10 70 10h20q35 0 41 -8
q8 -16 4 -57q8 -4 14 -17q4 -22 10 -30t27 -5q6 -2 28 -15t48 -8t42 7t36 21q35 27 47 49l-4 -4q22 33 22 57zM133 586q0 52 -8 90l-6 55q-8 61 -8 90t8 62h-2q16 45 45 47h2q35 8 77 8t62 -6q39 -23 35 -37q4 -38 1 -98t-3 -125v-35l-8 -299l2 -92q2 -20 2 -81t-12 -111
t-37 -60v2q-31 -8 -57 -8t-70 12v-2q-2 0 -10 3t-21 8q-14 5 -16 10q-7 26 -3 113t5 110l2 45q0 100 10 190q10 57 10 109z" />
    <glyph glyph-name="Iogonek" unicode="&#x12e;" horiz-adv-x="436" 
d="M90 -119q0 53 14 66l23 14q2 2 18 12q35 12 64 0t33 -26v-2q4 -2 -2 -8q-14 -39 -13 -54q4 -6 4 -38t17 -58l-4 4q23 -45 55 -51q18 -4 39 -13t57 7l-8 -8q31 -13 31 -70v-10q0 -10 -21 -21q-31 -8 -41 -16l-18 -8q-33 12 -68 18q-75 13 -135 74q-31 35 -39 84l-6 96v8z
M131 586q0 44 -6 82l-6 53q-8 67 -8 93t8 58h-2q16 44 45 46h2q33 8 74 8t63 -6q35 -25 33 -35q4 -38 1 -98t-3 -123v-35l-8 -295l2 -90q2 -22 2 -82q0 -150 -49 -168v2q-27 -8 -53 -8t-72 12v-2q-47 18 -48 27q-4 31 0 111t5 104l2 43q0 98 9 178q9 81 9 125zM395 -266
l17 12q0 -23 -19 -22q2 2 2 10z" />
    <glyph glyph-name="iogonek" unicode="&#x12f;" horiz-adv-x="436" 
d="M391 -279q29 -14 29 -69v-10q0 -10 -19 -21q-35 -10 -43 -16h2l-18 -11q-36 14 -72 20q-74 13 -135 75q-31 37 -41 84l-4 98v8q0 55 14 68l23 14q3 2 27 13t63 -7q19 -4 27 -20v-2q4 -4 -4 -8q-14 -43 -13 -56q4 -6 4 -39t9 -45l10 -14l-4 4q25 -43 49 -49t45 -15t59 7z
M131 591q0 44 -6 85l-6 55q-8 61 -8 90t8 62h-2q16 45 45 47h2q33 8 74 8t65 -6q37 -25 35 -37q4 -38 0 -98t-4 -125v-35l-8 -299l2 -92q2 -20 2 -81q0 -154 -49 -171v2q-27 -8 -55 -8t-70 12v-2q-49 18 -50 29q-4 23 0 107t5 108l2 45q0 100 9 180t9 124zM399 -270l17 14
q0 -25 -19 -25q2 3 2 11z" />
    <glyph glyph-name="Idotaccent" unicode="&#x130;" horiz-adv-x="436" 
d="M365 1200v-41q-84 -51 -140 -57q-74 -14 -116 28q-25 25 -29 113q0 67 43 96h-2q25 16 102 27l4 2h6q78 6 117 -22q31 -35 19 -93l-2 -28q-2 -11 -2 -25zM131 586q0 44 -6 82l-6 53q-8 67 -8 93t8 58h-2q16 44 45 46h2q33 8 74 8t63 -6q37 -25 33 -35q8 -46 3 -102
t-5 -119v-35l-8 -295l2 -90q2 -22 2 -82q0 -149 -47 -168v2q-31 -8 -57 -8t-68 12v-2q-49 18 -50 27q-4 31 0 111t5 104l2 43q0 98 9 178q9 81 9 125z" />
    <glyph glyph-name="dotlessi" unicode="&#x131;" horiz-adv-x="436" 
d="M373 1268l-2 -29q-12 -70 -4 -65q-76 -48 -145 -60t-113 29q-27 27 -31 117q0 65 45 96h-2q18 12 102 28h6q4 2 7 2q78 6 116 -24q31 -35 21 -94zM131 591q0 44 -6 85l-6 55q-8 61 -8 90t8 62h-2q16 45 45 47h2q35 8 77 8t62 -6q37 -25 35 -37q4 -38 1 -98t-3 -125v-35
l-8 -299l2 -92q2 -20 2 -82q0 -151 -49 -170v2q-31 -8 -57 -8t-70 12v-2q-49 18 -50 29q-4 29 0 111t5 104l2 45q0 100 9 180t9 124z" />
    <glyph glyph-name="IJ" unicode="&#x132;" horiz-adv-x="1015" 
d="M475 166q0 35 14 41q18 2 39 26l15 15l30 -6q8 -8 53 -18t58 -2q12 6 24 28t11 26v-6q6 10 9 24t10 27q7 15 7 63t3 62q-12 28 -8 62t0 66q-5 30 0 60t5 46l-4 55l-2 62q0 37 9 67q2 20 23 45t74 25q52 0 80 -11t42 -53h-2q6 -28 -1 -86t-6 -94l-8 -149q9 -81 11 -113
v-16q4 -29 0 -43l2 2q-3 -12 -3 -53t-40 -121l-19 -39q-20 -41 -43 -64q-43 -33 -53 -37l-45 -30q-16 -12 -86 -17l-27 -2q-23 0 -47 8h-12q-29 4 -44 20t-32 25l2 -2q-33 20 -31 45q-8 27 -8 62zM127 586q0 44 -6 82l-6 53q-9 67 -9 93t9 58h-2q16 44 43 46h2q35 8 75 8
t64 -6q35 -25 33 -35q4 -38 1 -98t-3 -123v-35q0 -119 -4 -179t-5 -116l3 -90q2 -22 2 -82q0 -150 -50 -168v2q-26 -8 -52 -8t-72 12v-2q-7 4 -16 6t-14 4t-8 4q-2 2 -6 4q-11 6 -6 146q6 39 6 78l3 43q0 98 9 178q9 81 9 125zM719 276l2 3q0 -3 -2 -3z" />
    <glyph glyph-name="ij" unicode="&#x133;" horiz-adv-x="1015" 
d="M725 281v-7q8 12 10 24t8 24q7 12 7 63t2 68q-10 28 -6 59t0 65t0 59t4 52l-2 57l-3 62q0 114 54 128q35 9 69 9t62 -8q31 -12 45 -55h-2q6 -30 -1 -88t-5 -95l-9 -149q11 -110 11 -117v-14q4 -31 0 -45l2 2q-4 -12 -3 -54t-40 -122l-19 -39q-20 -41 -43 -64
q-49 -37 -53 -39l-47 -28q-18 -14 -86 -19l-29 -2q-23 0 -47 8h-12q-31 6 -46 22t-32 23q-29 21 -27 43q-25 92 5 105q16 6 40 27l15 14l31 -6q17 -17 64 -23q46 -5 65 21q18 27 18 39zM125 591q0 44 -6 85l-6 55q-13 103 0 152h-2q16 45 45 47h2q33 8 74 8t65 -6
q39 -27 33 -37q8 -47 3 -103t-5 -120v-35q0 -121 -4 -183t-5 -116l3 -92q2 -20 2 -81q0 -154 -50 -171v2q-26 -8 -54 -8t-70 12v-2q-4 0 -16 5t-25 10q-12 5 -9 14q-8 39 -2 115t6 100l2 45q0 91 10 175t9 129zM725 281l2 2q0 -2 -2 -2z" />
    <glyph glyph-name="Jcircumflex" unicode="&#x134;" horiz-adv-x="579" 
d="M559 1100q-3 2 -11 16q-38 69 -71 88q-12 16 -45 11q-34 -5 -52 -27q-65 -79 -78 -88q-13 -8 -58 -16t-97 24l-14 16q47 76 143 160l31 21q59 49 115 84h-4l22 8l4 -2q4 -2 12 -4t17 -5l-2 3q11 -5 51 -51t49 -54q94 -82 140 -151q4 -1 1 -11t-10 -12h7l-13 -4
q-57 -27 -90 -21l2 -2l-24 7zM47 164q0 33 12 43q16 2 41 26l15 15l28 -6q6 -6 37 -15q61 -12 75 -5q13 6 25 28t11 26v-6q6 10 9 24t9 26t6 62t2 64q-10 28 -6 58t0 66q-4 34 0 58t4 52l-2 55l-2 62q1 78 19 99q33 38 84 38t80 -11t43 -53h-2q7 -24 -1 -84t-6 -96l-8 -149
q10 -90 10 -113v-16q4 -29 0 -43l2 2q-4 -12 -3 -51t-37 -123l-21 -39q-18 -39 -41 -64q-41 -31 -53 -37l-47 -30q-16 -12 -84 -17l-29 -2q-3 0 -51 8h-6q-31 4 -46 20t-32 25l2 -2q-31 18 -29 45q-8 27 -8 60zM291 276l2 3q0 -3 -2 -3z" />
    <glyph glyph-name="jcircumflex" unicode="&#x135;" horiz-adv-x="579" 
d="M590 1104q-25 8 -28 11t-19 36q-41 57 -64 68q-12 16 -44 11t-48 -22q-46 -58 -78 -90q-31 -16 -69 -23t-93 27l-14 15q49 82 146 163l30 21q68 55 115 84h-4l22 8q4 -1 14 -5t21 -5q13 -10 66 -66q19 -26 32 -37q100 -88 142 -155q4 -2 1 -10t-9 -11h6l-13 -4
q-59 -29 -92 -22l2 -2zM45 165q0 32 12 44q20 6 41 27l15 14l30 -6q8 -8 37 -15q35 -16 59 -8q23 7 29 15q22 31 23 45v-7q2 2 8 20t12 30q6 14 6 63t2 66q-10 28 -6 59t0 65t0 59t4 52l-4 119q0 81 25 109t77 28t83 -8q25 -10 45 -55h-2q6 -30 -2 -86t-7 -97l-8 -149l6 -60
q4 -39 5 -57v-14q8 -35 0 -45l4 2q-5 -12 -5 -52t-38 -124l-21 -39q-22 -45 -43 -64q-49 -37 -53 -39l-47 -28q-16 -14 -86 -19l-27 -2q-5 0 -53 8h-8q-29 4 -44 20t-39 30q-24 16 -22 38q-8 29 -8 61zM291 281l2 2q0 -2 -2 -2z" />
    <glyph glyph-name="Kcommaaccent" unicode="&#x136;" horiz-adv-x="913" 
d="M338 -250q0 78 27 105q47 47 104 32q53 -18 104 -65q23 -23 37 -61q14 -37 8 -77t-40 -130q-12 -27 -48 -66l-20 -29q-16 -31 -78 -63q-8 0 -26 -14l-37 30q-8 8 8 25l20 20q29 14 43 41l15 27q25 41 26 57q1 46 -24 60q-10 10 -46 14t-49 16q-20 25 -24 70v8zM373 730
q0 -12 -27 -3q27 8 27 3zM328 645q0 -48 -6 -84v-2l-3 -29l27 21q9 1 28 19t23 14t-16 -64l37 55v3q53 86 85 122q33 36 63 92q30 54 69 89l37 14l24 12q40 4 94 4t80 1t37 1q-14 -23 -54 -71t-54 -68v2l-94 -112q-41 -45 -95 -115q-20 -25 -4 -53q2 -6 2 -17
q18 -57 82 -143l17 -23q6 -8 32 -55l66 -100q59 -66 96 -156q2 -2 -4 -10t-65 -8q-143 0 -173 36q-49 63 -135 216q-37 61 -84 119t-65 91l-45 -6q-2 -32 -2 -102t-4 -111q10 -78 -11 -196q0 -25 -26 -29q-92 -18 -146 -6q-31 8 -39 41h2q-10 37 1 97t9 101t-3 76q0 35 8 84
t5 65t-3 49q0 34 -4 71t1 88q-12 -92 -21 -48t-9 123q2 -2 11 -2q9 -1 19 7t11 20l-4 113q0 6 41 39h-2q25 16 96 -2l39 -7q16 0 47 -30q7 -29 -6 -68q-8 -37 -8 -59t14 -27q-18 -8 -18 -29v-53zM907 913q0 2 4 7l7 -7h-11z" />
    <glyph glyph-name="kcommaaccent" unicode="&#x137;" horiz-adv-x="913" 
d="M340 -252q0 78 27 105q47 49 106 34q45 -16 105 -67q22 -25 36 -63q26 -74 -32 -210q-12 -27 -47 -65l-21 -31q-25 -37 -80 -63q-12 0 -26 -13l-37 29q-10 8 7 26t21 19q27 14 43 43l17 27q23 37 24 71t-22 48q-4 4 -47 14q-37 4 -52 16q-18 23 -22 70v10zM359 739h12
q4 0 4 -6t-29 4q6 2 13 2zM324 561q0 -10 -2 -24l24 20q4 0 39 29q14 14 12 -2q0 -14 -14 -58l37 56v2q53 86 84 122t59 82q39 74 76 103l37 14q8 3 19 11t84 8t99 1t37 1q-28 -42 -63 -84t-47 -58v2l-94 -114q-47 -49 -97 -117q-16 -23 -9 -41t7 -29q16 -55 84 -145l17 -23
q6 -8 16 -27t16 -28l66 -102q59 -61 98 -158q2 -2 -4 -10t-66 -8q-59 0 -110 10t-63 26q-51 66 -110 168t-105 158q-70 97 -74 107l-45 -7q-2 -34 -2 -104t-4 -113q12 -84 -13 -196q0 -9 -8 -19t-18 -12q-170 -33 -187 35h2q-8 37 2 98t8 102t-3 76q0 35 8 87t5 66
q-3 15 -3 49t-4 70t-2 59t2 32q-11 -94 -20 -50t-9 126q2 0 11 -1t20 7q10 8 10 20l-4 113q0 6 41 41h-2q29 16 98 -2l39 -6q20 0 47 -33q8 -25 -2 -65t-10 -62t12 -27q-16 -8 -16 -26v-58q0 -50 -6 -86v-6zM915 926q-1 2 3 5t7 0t3 -5h-13z" />
    <glyph glyph-name="Lacute" unicode="&#x139;" horiz-adv-x="831" 
d="M578 1341l-11 -4q-51 -37 -129 -125q-76 -94 -133 -122q-35 -12 -65 2q-23 16 -43 34l-31 23q-11 11 10 28q20 17 110 117t126 127q10 12 43 9h10q33 -14 98 -80zM464 156q44 0 77 8l65 6l39 2q103 5 115 -37l-2 2q26 -74 12 -121q-12 -18 -55 -26t-84 2l-33 8
q-46 10 -114 4t-102 -5t-87 -3t-76 -4q-92 0 -92 37q-10 51 -6 135l2 59v49q0 39 8 80t8 69q0 27 3 51t-2 59t-4 62t1 51t6 66q6 40 0 73t4 77q11 44 45 58q34 13 103 0l33 -7q33 0 51 -51l-2 2q14 -33 0 -67q-8 -33 -8 -76q4 -37 2 -61l-4 -48l-7 -63l-4 -80l-4 -35
q-4 -51 4 -93t4 -106v-14q-14 -39 29 -55q31 -8 75 -8z" />
    <glyph glyph-name="lacute" unicode="&#x13a;" horiz-adv-x="831" 
d="M582 1358q-42 -18 -140 -131q-133 -159 -190 -127q-22 12 -57 39l-29 24q-11 11 10 30q22 21 108 115t130 132q10 14 43 8h10q39 -16 100 -82zM464 158q42 0 81 8l65 6l39 2q107 5 119 -37l-2 2q24 -76 10 -123q-8 -16 -39 -24q-59 -10 -100 0l-35 8q-44 10 -112 4
t-105 -5t-90 -3t-76 -4q-94 0 -94 39q-8 55 -4 135l2 61v49q0 43 7 83t7 68q0 27 3 51t-2 58t-4 62t1 55t8 66q4 41 -2 73t2 80q16 45 52 60q33 10 102 -2l31 -6q33 -1 53 -52l-2 2q14 -35 0 -69q-8 -33 -8 -76q4 -39 2 -63t-4 -50l-7 -63l-4 -80l-4 -37q-4 -51 4 -93
t4 -107v-13q-14 -41 29 -57q31 -8 73 -8z" />
    <glyph glyph-name="Lcommaaccent" unicode="&#x13b;" horiz-adv-x="831" 
d="M295 -250q0 78 27 105q47 47 98 33t110 -66q23 -25 37 -62t11 -61q-12 -70 -43 -145q-6 -14 -48 -66l-20 -29q-16 -31 -78 -63q-12 0 -27 -14l-36 30q-8 8 8 25l20 20q31 16 43 41l15 27q23 37 24 70t-22 47q-10 10 -46 14t-49 16q-20 23 -24 70v8zM464 156q44 0 77 8
l65 6l39 2q103 5 115 -37l-2 2q26 -74 12 -121q-12 -18 -55 -26t-84 2l-33 8q-46 10 -114 4t-102 -5t-87 -3t-76 -4q-92 0 -92 37q-10 51 -6 135l2 59v49q0 39 8 80t8 69q0 27 3 51t-2 59t-4 62t1 51t6 66q6 40 0 73t4 77q11 44 45 58q34 13 103 0l33 -7q33 0 51 -51l-2 2
q14 -33 0 -67q-8 -33 -8 -76q4 -37 2 -61l-4 -48l-7 -63l-4 -80l-4 -35q-4 -51 4 -93t4 -106v-14q-14 -39 29 -55q31 -8 75 -8z" />
    <glyph glyph-name="lcommaaccent" unicode="&#x13c;" horiz-adv-x="831" 
d="M297 -252q0 78 25 105q49 49 106 34q47 -16 107 -67q57 -68 48 -126t-44 -147q-6 -14 -47 -65l-23 -31q-18 -33 -78 -63q-14 0 -26 -13q-9 9 -22 15t-17 14q-10 10 8 27l22 18q29 16 43 43l15 27q26 41 26 57t-8 37q-14 37 -54 37t-59 18q-18 23 -22 70v10zM464 158
q42 0 81 8l65 6l39 2q107 5 119 -37l-2 2q24 -76 10 -123q-8 -16 -39 -24q-59 -10 -100 0l-35 8q-44 10 -112 4t-105 -5t-90 -3t-76 -4q-94 0 -94 39q-8 55 -4 135l2 61v49q0 43 7 83t7 68q0 27 3 51t-2 58t-4 62t1 55t8 66q4 41 -2 73t2 80q16 45 52 60q33 10 102 -2l31 -6
q33 -1 53 -52l-2 2q14 -35 0 -69q-8 -33 -8 -76q4 -39 2 -63t-4 -50l-7 -63l-4 -80l-4 -37q-4 -51 4 -93t4 -107v-13q-14 -41 29 -57q31 -8 73 -8z" />
    <glyph glyph-name="Lcaron" unicode="&#x13d;" horiz-adv-x="831" 
d="M96 1386q27 -8 28 -10t19 -35q41 -57 62 -67q14 -18 45 -13t47 25v-2q23 28 39 50t37 37q20 15 66 25t93 -28l17 -14q-55 -94 -146 -160l-28 -23q-109 -80 -115 -81h4l-22 -9q-31 11 -35 11q-11 10 -64 65q-24 29 -32 37q-92 78 -140 152q-4 2 -1 10t10 10h-7l13 4
q57 29 90 23l-2 2zM464 156q42 0 79 8l65 6l37 2q43 2 76 -4t41 -33l-2 2q24 -76 10 -121q-8 -18 -53 -26t-84 2l-35 8q-42 10 -110 4t-104 -5t-90 -3t-73 -4q-94 0 -94 37q-8 55 -4 135l2 59v49q0 43 7 82t7 67q0 27 3 51t-2 59t-4 62t1 51t6 66q6 40 0 73t2 77
q13 45 47 58t105 0l31 -7q35 0 53 -51l-2 2q10 -32 1 -66t-9 -77q4 -37 2 -61l-4 -48l-7 -63l-4 -80l-4 -35q-4 -51 4 -93t4 -106v-14q-14 -39 27 -55q33 -8 75 -8z" />
    <glyph glyph-name="lcaron" unicode="&#x13e;" horiz-adv-x="831" 
d="M128 1386q34 -74 77 -96q12 -18 45 -13t47 26v-3q25 26 40 48t40 43q82 46 162 -5l14 -16q-53 -90 -145 -162l-31 -22q-106 -78 -115 -82h4l-24 -10q-1 0 -7 4t-26 8l2 -2q-12 4 -52 49t-50 55q-92 82 -142 154q-4 2 0 11t10 11h-8l15 5q61 27 92 20l-2 2l20 -8
q4 -2 16 -4q13 -2 18 -13zM466 158q42 0 81 8l65 6l39 2q43 2 75 -4t44 -33l-4 2q28 -74 12 -123q-8 -16 -39 -24q-61 -10 -100 0l-35 8q-44 10 -112 4t-105 -5t-90 -3t-76 -4q-94 0 -94 39q-8 55 -4 135l2 61v49q0 43 7 83t7 68q0 27 3 51t-2 58t-4 62t1 55t8 66
q4 41 -2 73t2 80q23 86 152 58l33 -6q33 -1 53 -52l-2 2q10 -34 1 -68t-9 -77q4 -39 2 -63t-4 -50l-6 -63l-5 -80l-4 -37q-4 -51 4 -93t5 -107v-13q-14 -41 26 -57q33 -8 75 -8z" />
    <glyph glyph-name="Ldot" unicode="&#x13f;" horiz-adv-x="831" 
d="M403 1253l-2 -28q-2 -12 -2 -21l-2 -39q0 -6 2 -6q-82 -51 -139 -57q-74 -14 -117 28q-27 26 -29 102t44 107h-2q23 14 102 27l4 2h6q78 6 117 -22q31 -35 18 -93zM464 156q44 0 77 8l65 6l39 2q103 5 115 -37l-2 2q26 -74 12 -121q-12 -18 -55 -26t-84 2l-33 8
q-46 10 -112 4t-102 -5t-89 -3t-76 -4q-92 0 -92 37q-10 51 -6 135l4 59v49q0 49 7 85t7 64q0 27 3 51t-2 59t-4 62t1 51t6 66q6 40 0 73t4 77q11 44 45 58q34 13 103 0l33 -7q30 0 53 -51l-4 2q14 -33 0 -67q-8 -33 -8 -76q4 -37 2 -61l-4 -48l-7 -63l-4 -80l-4 -35
q-4 -51 4 -93t4 -106v-14q-14 -39 29 -55q31 -8 75 -8z" />
    <glyph glyph-name="ldot" unicode="&#x140;" horiz-adv-x="831" 
d="M406 1268l-3 -29q-2 -12 -2 -20l-2 -39q0 -6 2 -6q-167 -108 -260 -31q-25 27 -27 105t44 108h-2q18 12 102 28h4q4 2 6 2q80 6 119 -24q29 -35 19 -94zM464 158q42 0 81 8l65 6l39 2q107 5 119 -37l-2 2q24 -76 10 -123q-8 -16 -39 -24q-59 -10 -100 0l-35 8
q-44 10 -112 4t-105 -5t-90 -3t-76 -4q-94 0 -94 39q-8 55 -4 135l2 61v49q0 43 7 83t7 68q0 27 3 51t-2 58t-4 62t1 55t7 64t0 73t1 82q16 47 54 60h-4q33 10 104 -2l31 -6q28 -1 55 -52l-4 2q14 -35 0 -69q-8 -33 -8 -76q4 -39 2 -63t-4 -50l-7 -63l-4 -80l-4 -37
q-4 -51 4 -93t4 -107v-13q-14 -41 29 -57q31 -8 73 -8z" />
    <glyph glyph-name="Lslash" unicode="&#x141;" horiz-adv-x="831" 
d="M221 -8q-94 0 -94 37q-4 35 -4 37v16q9 69 4 103q-4 34 2 81l-31 21q-35 -18 -35 -33q-2 4 -13 -1t-32 9v-2q-24 19 -28 37v-4l-2 6v6q-4 16 12 43q39 41 84 72l55 37q4 45 0 77t-3 59t1 51t6 66q6 40 0 73t4 77q11 44 45 58q34 13 105 0l31 -7q35 0 53 -51l-2 2
q10 -37 -3 -104t-14 -156l68 55q26 19 54 27t46 -2t31 -47q8 -10 0 -19l-26 -28q-4 -6 -23 -17h2q-59 -34 -96 -67t-60 -49q-2 -12 -4 -39l-2 -6q-2 -27 6 -70t4 -107v-14q-14 -39 27 -55q33 -8 75 -8t79 8l65 6l37 2q43 2 76 -4t41 -33l-2 2q24 -76 10 -121q-8 -18 -53 -26
t-84 2l-35 8q-43 10 -110 4q-68 -6 -104 -5t-90 -3t-73 -4z" />
    <glyph glyph-name="lslash" unicode="&#x142;" horiz-adv-x="831" 
d="M137 653q0 27 8 66q4 41 -2 73t2 80q23 86 152 58l33 -6q33 0 53 -52l-2 2q10 -37 -3 -106t-13 -158l67 56q61 42 105 24q14 -8 19 -22t11 -26t-2 -19l-24 -27q-6 -6 -25 -18h2l-14 -9q-33 -16 -88 -61q-18 -18 -56 -47q-2 -12 -4 -39l-2 -6q-2 -29 6 -72t5 -108v-13
q-14 -41 26 -57q33 -8 75 -8t81 8l65 6l39 2q43 2 76 -4t41 -33l-2 2q28 -74 12 -123q-12 -18 -56 -26t-83 2l-35 8q-45 10 -112 4q-66 -6 -104 -5t-91 -3t-76 -4q-94 0 -94 39q-4 33 -4 35l2 43q4 61 1 87t3 74l-33 21q-35 -18 -35 -35q-2 6 -14 0t-31 10v-2q-30 24 -30 45
q-4 16 12 45q51 51 86 70l55 39q4 43 0 75t-3 60t1 55z" />
    <glyph glyph-name="Nacute" unicode="&#x143;" 
d="M809 1341q-50 -25 -133 -124q-84 -99 -137 -127q-36 -10 -64 0q-27 16 -47 36l-31 23q-11 11 10 28t108 113t128 131q10 14 43 9h10q27 -12 101 -80zM109 61v187q-2 94 5 172t7 152t3 107t-1 111t0 105q-2 11 12 17t39 10h2q63 12 117 0q29 -2 53 -35v-2q-4 0 -10 -25
t2 -32t20 -7t30 -1t48 38q12 4 34 26t44 34q55 25 90 24h98q25 2 79 -28t69 -62l12 -31h-2q10 -41 22 -61t9 -60q-4 -40 4 -57l-2 2q8 -35 8 -104t-8 -113q-16 -165 -4 -213q6 -43 6 -89t-10 -79l2 2q-22 -51 -29 -51q-39 -6 -77 -6q-120 0 -115 33q-4 29 6 133l4 47
q6 55 6 106l4 154q0 76 2 90q10 25 -2 78l-2 20q0 66 -15 69t-30 27q-13 25 -55 28t-63 -4t-43 -7t-52 -21l-33 -22l4 4q-35 -18 -35 -45l-8 -25q-12 -45 -15 -63t-3 -82l-8 -211q0 -47 2 -68l10 -129q0 -25 -8 -57q-29 -37 -39 -41l2 2q-80 -25 -148 -8l3 -2q-43 18 -42 30
t1 33z" />
    <glyph glyph-name="nacute" unicode="&#x144;" 
d="M815 1358q-44 -22 -139 -131q-80 -95 -125 -117t-76 -4l2 -2q-23 12 -47 35l-31 24q-11 11 10 30q21 17 109 113t131 134q10 12 41 8h12q33 -14 101 -82zM106 63v187q-2 96 6 175t7 154q0 75 3 107t-1 114q-4 81 0 105q-4 19 51 29h2q66 10 119 0q35 -2 53 -37v-2
q-2 1 -6 -17t-2 -29t6 -14t16 -3t33 -2q21 -1 45 40q20 6 47 33q10 14 33 27q57 23 90 22h101q27 2 84 -28q53 -34 62 -58t13 -35h-2q8 -33 22 -57t11 -64q-4 -40 4 -59l-2 2q8 -39 8 -91q0 -61 -12 -179t0 -164q6 -47 6 -92t-10 -80l2 2q-22 -51 -31 -51q-37 -6 -76 -6
q-123 0 -118 35q-2 33 6 133l4 47q6 55 6 108l4 156q0 72 4 90q12 29 -4 80l-2 21q0 67 -15 70t-24 22q-19 32 -61 34t-63 -5t-43 -7t-54 -22l-33 -21l4 4q-37 -20 -37 -47l-8 -24q-16 -62 -16 -148l-8 -215q0 -47 2 -67l10 -132q0 -25 -8 -57q-33 -39 -41 -41l2 2
q-80 -25 -148 -8l3 -2q-44 18 -44 32v33z" />
    <glyph glyph-name="Ncommaaccent" unicode="&#x145;" 
d="M338 -250q0 78 27 105q47 47 104 32q53 -18 104 -65q23 -23 37 -61q14 -37 8 -77t-40 -130q-12 -27 -48 -66l-20 -29q-16 -31 -78 -63q-8 0 -26 -14l-37 30q-8 8 8 25l20 20q29 14 43 41l15 27q25 41 26 57q1 46 -24 60q-10 10 -46 14t-49 16q-20 23 -24 70v8zM109 61
v187q-2 94 5 172t7 152t3 107t-1 111t0 105q-2 11 12 17t39 10h2q63 12 117 0q29 -2 53 -35v-2q-4 0 -10 -25t2 -32t20 -7t30 -1t48 38q12 4 34 26t44 34q55 25 90 24h98q25 2 79 -28t69 -62l12 -31h-2q10 -41 22 -61t9 -60q-4 -40 4 -57l-2 2q8 -35 8 -104t-8 -113
q-16 -165 -4 -213q6 -43 6 -89t-10 -79l2 2q-22 -51 -29 -51q-39 -6 -77 -6q-120 0 -115 33q-4 29 6 133l4 47q6 55 6 106l4 154q0 76 2 90q10 25 -2 78l-2 20q0 66 -15 69t-30 27q-13 25 -55 28t-63 -4t-43 -7t-52 -21l-33 -22l4 4q-35 -18 -35 -45l-8 -25q-12 -45 -15 -63
t-3 -82l-8 -211q0 -47 2 -68l10 -129q0 -25 -8 -57q-29 -37 -39 -41l2 2q-80 -25 -148 -8l3 -2q-43 18 -42 30t1 33z" />
    <glyph glyph-name="ncommaaccent" unicode="&#x146;" 
d="M340 -252q0 78 27 105q47 49 106 34q45 -16 105 -67q22 -25 36 -63q26 -74 -32 -210q-6 -14 -47 -65l-21 -31q-25 -37 -80 -63q-12 0 -26 -13l-37 29q-10 8 7 26t21 19q27 14 43 43l19 29l-4 -2q25 35 26 70t-22 49q-4 4 -47 14q-37 4 -52 16q-18 23 -22 70v10zM106 63
v187q-2 96 6 175t7 154q0 75 3 107t-1 114q-4 81 0 105q-4 19 51 29h2q66 10 119 0q35 -2 53 -37v-2q-2 1 -6 -17t-2 -29t6 -14t16 -3t33 -2q21 -1 45 40q20 6 47 33q10 14 33 27q57 23 90 22h101q27 2 84 -28q53 -34 62 -58t13 -35h-2q8 -33 22 -57t11 -64q-4 -40 4 -59
l-2 2q8 -39 8 -91q0 -61 -12 -179t0 -164q6 -47 6 -92t-10 -80l2 2q-22 -51 -31 -51q-37 -6 -76 -6q-123 0 -118 35q-2 33 6 133l4 47q6 55 6 108l4 156q0 72 4 90q12 29 -4 80l-2 21q0 67 -15 70t-24 22q-19 32 -61 34t-63 -5t-43 -7t-54 -22l-33 -21l4 4q-37 -20 -37 -47
l-8 -24q-16 -62 -16 -148l-8 -215q0 -47 2 -67l10 -132q0 -25 -8 -57q-33 -39 -41 -41l2 2q-80 -25 -148 -8l3 -2q-44 18 -44 32v33z" />
    <glyph glyph-name="Ncaron" unicode="&#x147;" 
d="M348 1386q27 -8 28 -10t19 -35q41 -57 62 -67q12 -18 44 -13t48 25v-2q23 28 39 50t37 37q20 15 66 25t93 -28l17 -14q-55 -94 -146 -160l-28 -23q-106 -78 -115 -81h4l-22 -9q-31 11 -35 11q-11 10 -64 65q-24 29 -33 37q-92 78 -139 152q-4 2 -1 10t9 10h-6l13 4
q57 29 90 23l-2 2zM109 61v187q-2 94 5 172t7 152t3 107t-1 111t0 105q-2 11 12 17t39 10h2q63 12 117 0q29 -2 53 -35v-2q-4 0 -10 -25t2 -32t20 -7t30 -1t48 38q12 4 34 26t44 34q55 25 90 24h98q25 2 79 -28t69 -62l12 -31h-2q10 -41 22 -61t9 -60q-4 -40 4 -57l-2 2
q8 -35 8 -104t-8 -113q-16 -165 -4 -213q6 -43 6 -89t-10 -79l2 2q-22 -51 -29 -51q-39 -6 -77 -6q-120 0 -115 33q-4 29 6 133l4 47q6 55 6 106l4 154q0 76 2 90q10 25 -2 78l-2 20q0 66 -15 69t-30 27q-13 25 -55 28t-63 -4t-43 -7t-52 -21l-33 -22l4 4q-35 -18 -35 -45
l-8 -25q-12 -45 -15 -63t-3 -82l-8 -211q0 -47 2 -68l10 -129q0 -25 -8 -57q-29 -37 -39 -41l2 2q-80 -25 -148 -8l3 -2q-43 18 -42 30t1 33z" />
    <glyph glyph-name="ncaron" unicode="&#x148;" 
d="M414 1335q24 -32 47 -45q12 -18 44 -13t46 26v-3q25 26 49 54t31 37q82 46 162 -5l14 -16q-53 -90 -145 -162l-31 -22q-106 -78 -115 -82h4l-24 -10q-1 0 -7 4t-26 8l2 -2q-12 4 -52 49t-51 55q-92 82 -141 154q-4 2 0 11t10 11h-8l15 5q61 27 92 20l-2 2l20 -8
q4 -2 16 -4t20 -17q6 -15 30 -47zM106 63v187q-2 96 6 175t7 154q0 75 3 107t-1 114q-4 81 0 105q-4 19 51 29h2q66 10 119 0q35 -2 53 -37v-2q-2 1 -6 -17t-2 -29t6 -14t16 -3t33 -2q21 -1 45 40q20 6 47 33q10 14 33 27q57 23 90 22h101q27 2 84 -28q53 -34 62 -58t13 -35
h-2q8 -33 22 -57t11 -64q-4 -40 4 -59l-2 2q8 -39 8 -91q0 -61 -12 -179t0 -164q6 -47 6 -92t-10 -80l2 2q-22 -51 -31 -51q-37 -6 -76 -6q-123 0 -118 35q-2 33 6 133l4 47q6 55 6 108l4 156q0 72 4 90q12 29 -4 80l-2 21q0 67 -15 70t-24 22q-19 32 -61 34t-63 -5t-43 -7
t-54 -22l-33 -21l4 4q-37 -20 -37 -47l-8 -24q-16 -62 -16 -148l-8 -215q0 -47 2 -67l10 -132q0 -25 -8 -57q-33 -39 -41 -41l2 2q-80 -25 -148 -8l3 -2q-44 18 -44 32v33z" />
    <glyph glyph-name="napostrophe" unicode="&#x149;" horiz-adv-x="1140" 
d="M193 1128l-5 -41q-14 -75 -29 -106t-53 -80l-18 -24q-27 -39 -80 -70q-23 -4 -39 8l-22 19q0 20 6 26l16 17q52 25 74 106l8 25q14 18 -6 51l-2 6q-23 18 -62 22t-40 9l-13 22q-24 33 -24 77t41 85q29 33 109 25t106 -50q43 -61 33 -127zM274 579q0 75 4 107t-2 114
q-4 81 0 105q-2 13 12 19t40 10h2q66 10 119 0q31 -2 53 -37v-2q-2 0 -2 -2t-5 -10t-6 -27q7 -18 11 -21t15 -3t29 -2q18 -1 50 40q16 6 47 33q10 14 31 27q57 23 90 22h100q29 2 82 -28t70 -62q6 -20 10 -31h-2q8 -39 27 -71q12 -12 6 -50t2 -57q8 -39 8 -91
q0 -77 -15 -181t-3 -153q12 -50 12 -98t-12 -83l2 2l-7 -14q-14 -37 -22 -37q-41 -6 -77 -6q-35 0 -61 2q-58 5 -57 33q-4 27 6 133l5 47q6 55 6 108l4 156q0 76 2 90q10 23 -2 80l-2 21q0 67 -18 70t-23 22q-19 32 -59 34t-63 -5t-43 -7t-56 -22l-31 -21l4 4
q-37 -18 -37 -47l-8 -24q-18 -70 -18 -148l-9 -215q0 -47 2 -67l4 -56l9 -76q0 -16 -11 -57q-33 -39 -38 -41l2 2q-80 -25 -150 -8l2 -2q-16 6 -30 14q-13 8 -11 15v223q-4 80 4 167t8 162z" />
    <glyph glyph-name="Eng" unicode="&#x14a;" 
d="M690 474q0 66 2 81q10 25 -2 78l-2 20q0 66 -18 69q-10 2 -25 27t-57 28t-63 -4t-41 -6t-54 -22l-33 -22l4 4q-35 -18 -34 -45l-9 -25q-12 -45 -15 -63t-3 -82l-8 -211q0 -47 2 -68l10 -129q0 -25 -8 -57q-29 -37 -39 -41l2 2q-80 -25 -147 -8q-7 3 -23 9t-16 16v223
q-2 94 5 172t7 152t3 107t-1 111t0 105q-2 10 12 16q76 33 158 11q29 -2 53 -35v-2q-2 0 -7 -11q-5 -10 -3 -28t6 -22t16 -3q12 0 31 -1q18 -1 47 38q12 4 34 26t44 34q55 25 90 24h99q25 2 79 -28t68 -62l12 -31h-2q10 -41 22 -61t9 -60q-4 -40 4 -57l-2 2q8 -35 8 -104
t-8 -113q-12 -126 -6 -198t6 -146t-2 -94q2 -51 -39 -131l-18 -39q-23 -47 -45 -66l4 2q-23 -23 -54 -37l-47 -30q-39 -31 -114 -39q-3 0 -13 -3t-12 -1l-14 6q-61 23 -58 67q-8 21 -7 55t18 36q29 16 47 17q92 5 131 103q16 26 13 71q-3 44 -2 102t-5 106q0 76 4 125l4 49
q2 25 2 91z" />
    <glyph glyph-name="eng" unicode="&#x14b;" 
d="M696 482q0 68 2 79q10 23 -2 80l-4 21q0 67 -15 70t-24 22q-20 32 -61 34q-40 2 -62 -5t-42 -6t-56 -23l-33 -21l4 4q-35 -18 -34 -47l-11 -24q-16 -62 -16 -148l-8 -215q0 -47 2 -67l10 -132q0 -25 -8 -57q-33 -39 -41 -41l2 2q-80 -25 -147 -8l2 -2q-45 18 -43 29v223
q-2 96 5 175t7 154t3 107t-1 114q-4 81 0 105q-4 19 57 29q60 10 115 0q35 -2 53 -37v-2q-2 1 -6 -17t-2 -29t6 -14t16 -3t33 -2q20 -1 45 40q20 6 47 33q10 14 33 27q57 23 90 22h101q27 2 84 -28q53 -34 62 -58t13 -35h-2q8 -33 22 -57t11 -64q-4 -40 4 -59l-2 2
q8 -39 8 -91t-3 -86t-10 -101t-1 -141t6 -149t-2 -95q2 -53 -39 -133l-18 -39q-25 -46 -43 -64q-45 -35 -53 -39l-48 -30q-45 -33 -116 -41h-6q-15 -6 -19 -2l-16 4q-61 27 -58 69q-8 23 -6 57t17 35q31 15 49 17t35 6q66 16 96 98l8 15q8 14 5 58t-2 101t-5 111q0 76 4 125
l4 49q4 27 4 95z" />
    <glyph glyph-name="Omacron" unicode="&#x14c;" horiz-adv-x="1005" 
d="M854 1145h-2q-25 -4 -33 -7t-37 -1h-8q-47 10 -135 10h-23l-178 -8q-18 2 -49 2t-61 3t-52 -1q-63 -11 -75 29q-12 41 4 90q6 18 39 28v-2q39 10 48 6t38 0q47 0 88 -4l63 -6q23 0 63 -4t84 6q46 10 109 10h35l27 2h4l28 -12q25 -10 37 -31q10 -33 2 -71l-4 -25
q-4 -14 -12 -14zM743 351q0 53 5 77v61q-4 19 1 65t-26 103q-10 25 -16 47t-23 35v-4q-25 20 -55 35l-31 16q-22 14 -60 16t-63 -6q-25 -9 -79 -38t-64 -41l-13 -19q-10 -14 -38 -65q-26 -60 -11 -109q4 -16 0 -40t-1 -50t3 -72t13 -78t55 -83q18 -20 78 -43q121 -47 196 -2
l21 14h2q55 27 74 68q32 60 32 113zM956 623q0 -41 8 -80t3 -92q-5 -104 -15 -132t-22 -56t-21 -56h2l-10 -35q-4 -27 -55 -66l-21 -22q-29 -33 -59 -41q-75 -37 -109 -46q-35 -9 -106 -13h-25q-39 -4 -79 -1t-67 2q-28 -1 -66 15t-64 23t-68 36q-41 29 -63 86l-15 37
q-22 50 -32 86t-11 117v66q0 81 -2 107t17 81l8 25v-5q54 93 78 119t66 53t54 40t60 33q49 20 80 28q198 21 240 2l36 -16q53 -21 80 -40t33 -22q39 -23 66 -72h-3q10 -17 76 -106q6 -14 6 -55z" />
    <glyph glyph-name="omacron" unicode="&#x14d;" horiz-adv-x="1005" 
d="M862 1159h-2q-29 -4 -36 -7t-36 -1h-8q-47 10 -137 10h-22l-181 -8q-18 2 -50 2t-62 3t-52 -1t-42 -3q-20 0 -34 38q-13 38 5 84q6 20 39 31v-2q41 10 48 6t40 0q47 0 88 -4l63 -7q25 0 65 -4t86 6q48 10 107 11h37q10 0 31 2l31 -12q52 -19 37 -103l-5 -26
q-4 -15 -10 -15zM272 368q0 -87 60 -151l10 -14q16 -20 78 -43q124 -46 198 -2l21 14h2q53 25 75 69t26 66q4 23 6 29t2 40t4 56v64q-4 18 1 64t-26 106q-10 25 -17 46t-24 36v-3q-2 2 -55 35l-27 15q-24 14 -64 17t-65 -6t-79 -38t-64 -41l-15 -20q-14 -18 -39 -72
t-10 -105q4 -14 0 -39t-1 -51q3 -24 3 -72zM59 457q0 83 -2 109t17 81l8 25v-4q49 90 88 131q25 23 41 30q61 41 70 50q12 19 62 39t97 26q171 22 228 0l37 -14q45 -16 60 -28t31 -20q16 -10 21 -14q33 -20 66 -73h-2q27 -39 51 -71t28 -42t4 -51t10 -87q9 -46 1 -87
q-4 -106 -21 -150l-36 -98h2l-11 -35q-2 -20 -55 -68l-23 -20q-29 -35 -57 -43t-63 -27q-43 -18 -65 -23t-93 -9h-23q-41 -4 -81 -1t-66 2q-27 -1 -67 15t-72 28t-70 35q-35 29 -57 84l-15 37q-24 50 -33 88t-10 117v68z" />
    <glyph glyph-name="Obreve" unicode="&#x14e;" horiz-adv-x="1005" 
d="M244 1296q0 14 28 50h-2q10 10 70 10h20q33 0 39 -8q8 -16 4 -58q10 -4 17 -16q6 -39 32 -36q10 1 13 -3q25 -25 60 -19q35 7 48 9t35 18q33 31 45 49l-4 -4q22 33 23 58v2q8 2 18 4l37 10q25 14 45 -6l12 -25q0 -8 21 -33q0 -12 -8 -23t-9 -28q-6 -12 -25 -26t-36 -37v4
q-27 -33 -82 -58q-45 -25 -127 -6q-23 4 -62 -3t-81 30q-23 15 -53 29t-48 45v-4l-14 32q-16 29 -16 43zM743 351q0 53 5 77v61q-4 19 1 65t-26 103q-10 25 -16 47t-23 35v-4q-25 20 -55 35l-31 16q-22 14 -60 16t-63 -6q-25 -9 -79 -38t-64 -41l-13 -19q-10 -14 -38 -65
q-26 -60 -11 -109q4 -16 0 -40t-1 -50t3 -72t13 -78t55 -83q18 -20 78 -43q121 -47 196 -2l21 14h2q55 27 74 68q32 60 32 113zM956 623q0 -41 8 -80t3 -92q-5 -104 -15 -132t-22 -56t-21 -56h2l-10 -35q-4 -27 -55 -66l-21 -22q-29 -33 -59 -41q-75 -37 -109 -46
q-35 -9 -106 -13h-25q-39 -4 -79 -1t-67 2q-28 -1 -66 15t-64 23t-68 36q-41 29 -63 86l-15 37q-22 50 -32 86t-11 117v66q0 81 -2 107t17 81l8 25v-5q54 93 78 119t66 53t54 40t60 33q49 20 80 28q198 21 240 2l36 -16q53 -21 80 -40t33 -22q39 -23 66 -72h-3
q10 -17 76 -106q6 -14 6 -55z" />
    <glyph glyph-name="obreve" unicode="&#x14f;" horiz-adv-x="1005" 
d="M676 1362v2q8 2 18 4l39 10q25 18 45 -6l15 -24q0 -2 18 -33l-14 -51q-2 -4 -29 -31q-23 -16 -35 -33v2q-23 -29 -76 -54t-135 -11q-28 4 -56 0t-58 6q-14 10 -40 26t-30 19q-47 25 -64 51v-4l-14 33q-16 29 -16 44t28 50h-2q12 10 72 10h18q35 0 41 -8q8 -16 5 -57
q14 -6 18 -28t16 -24h17l20 -10q27 -18 55 -13t42 7q16 2 44 26t41 44l-4 -4q21 28 21 57zM272 368q0 -87 60 -151l10 -14q16 -20 78 -43q124 -46 198 -2l21 14h2q53 25 75 69t26 66q4 23 6 29t2 40t4 56v64q-4 18 1 64t-26 106q-10 25 -17 46t-24 36v-3q-2 2 -55 35l-27 15
q-24 14 -64 17t-65 -6t-79 -38t-64 -41l-15 -20q-14 -18 -39 -72t-10 -105q4 -14 0 -39t-1 -51q3 -24 3 -72zM59 457q0 83 -2 109t17 81l8 25v-4q49 90 88 131q25 23 41 30q61 41 70 50q12 19 62 39t97 26q171 22 228 0l37 -14q45 -16 60 -28t31 -20q16 -10 21 -14
q33 -20 66 -73h-2q27 -39 51 -71t28 -42t4 -51t10 -87q9 -46 1 -87q-4 -106 -21 -150l-36 -98h2l-11 -35q-2 -20 -55 -68l-23 -20q-29 -35 -57 -43t-63 -27q-43 -18 -65 -23t-93 -9h-23q-41 -4 -81 -1t-66 2q-27 -1 -67 15t-72 28t-70 35q-35 29 -57 84l-15 37
q-24 50 -33 88t-10 117v68z" />
    </font>
</defs>
</svg>
