<?xml version="1.0" standalone="no"?>
<!DOCTYPE svg PUBLIC "-//W3C//DTD SVG 1.1//EN" "http://www.w3.org/Graphics/SVG/1.1/DTD/svg11.dtd" >
<svg xmlns="http://www.w3.org/2000/svg">
<metadata>
Created by FontPrep 20130207 at Tue Dec  9 01:49:37 2014
 By Alexander Gunnarson
Copyright (c) 1990 Esselte Letraset, Ltd. All rights reserved.
</metadata>
<defs>
<font id="94b95a3c3db29c14acd94464f8305900" horiz-adv-x='1024' >
  <font-face 
    font-family="PrincetownLET"
    font-weight="400"
    font-stretch="normal"
    units-per-em="2048"
    panose-1="0 0 4 0 0 0 0 0 0 0"
    ascent="1638"
    descent="-410"
    x-height="1366"
    cap-height="1366"
    bbox="-461 -410 2181 1888"
    underline-thickness="0"
    underline-position="0"
    unicode-range="U+0020-2044"
  />
<missing-glyph horiz-adv-x="1024" 
d="M256 128h512v1436h-512v-1436zM128 0v1692h768v-1692h-768z" />
    <glyph glyph-name=".notdef" horiz-adv-x="1024" 
d="M256 128h512v1436h-512v-1436zM128 0v1692h768v-1692h-768z" />
    <glyph glyph-name=".null" horiz-adv-x="0" 
 />
    <glyph glyph-name="nonmarkingreturn" horiz-adv-x="711" 
 />
    <glyph glyph-name="space" unicode=" " horiz-adv-x="711" 
 />
    <glyph glyph-name="exclam" unicode="!" horiz-adv-x="567" 
d="M362 98v162h-161v-162h161zM401 1247h-233l68 -721h96zM471 0h-379v365h379v-365zM526 1366l-90 -940h-307l-88 940h485z" />
    <glyph glyph-name="quotedbl" unicode="&#x22;" horiz-adv-x="735" 
d="M246 1278h-96l18 -360h51zM586 1278h-97l21 -360h49zM346 1366l-51 -545h-203l-45 545h299zM688 1366l-51 -545h-203l-45 545h299z" />
    <glyph glyph-name="dollar" unicode="$" horiz-adv-x="1085" 
d="M737 1030h164v51l-164 166h-151v139h-97v-139h-153l-166 -166v-290l119 -129h403l45 -48v-290l-75 -78h-254l-74 78v55h-164v-84l168 -176h151v-135h97v135h153l174 176v367l-112 110h-428l-39 45v234l74 67h254l75 -67v-21zM680 0v-111h-287v111h-106l-240 246v235h410
v-116h176v190h-404l-182 188v387l240 236h106v121h287v-121h111l225 -215v-221h-383v69h-176v-118h403l176 -179v-456l-243 -246h-113z" />
    <glyph glyph-name="percent" unicode="%" horiz-adv-x="1548" 
d="M362 938v180h-59v-180h59zM1245 246v188h-61v-188h61zM449 907l-52 -51h-127l-53 51v248l53 53h127l52 -53v-248zM1331 217l-53 -57h-123l-55 57v240l55 57h123l53 -57v-240zM522 891v285l-88 90h-201l-90 -90v-285l90 -90h201zM1278 1278h-94l-914 -1182h92zM1405 199
v274l-94 96h-197l-88 -84v-286l88 -103h197zM623 856l-156 -162h-266l-160 162v352l160 158h266l156 -158v-352zM1464 1366l-1036 -1366h-348l1042 1366h342zM1507 160l-164 -160h-262l-157 160v354l157 160h262l164 -160v-354z" />
    <glyph glyph-name="ampersand" unicode="&#x26;" horiz-adv-x="1126" 
d="M594 365v196h-143v-196h143zM719 246h-305l-86 84v256l86 80h305v-420zM965 666v108h-95v70h-151v-70h-307l-70 70v213l70 61h157v129h-227l-152 -145v-285l97 -96l-123 -119v-309l176 -174h530v547h95zM1085 561h-92v-561h-708l-244 246v405l72 70l-45 53v381l217 211
h407v-367h-241v-125h143v80h387v-80h104v-313z" />
    <glyph glyph-name="quotesingle" unicode="'" horiz-adv-x="395" 
d="M246 1278h-96l18 -360h51zM346 1366l-51 -545h-203l-45 545h299z" />
    <glyph glyph-name="parenleft" unicode="(" horiz-adv-x="743" 
d="M600 -94v125h-119l-71 88v1141l71 79h119v123h-182l-172 -174v-1204l172 -178h182zM723 -211h-361l-239 242v1308l239 238h361v-356h-191v-1076h191v-356z" />
    <glyph glyph-name="parenright" unicode=")" horiz-adv-x="739" 
d="M143 1462v-123h109l78 -79v-1141l-78 -88h-109v-125h183l168 178v1204l-168 174h-183zM20 -211v356h187v1076h-187v356h357l239 -238v-1308l-239 -242h-357z" />
    <glyph glyph-name="asterisk" unicode="*" horiz-adv-x="659" 
d="M373 1257h-84v-104l-90 53l-43 -71l92 -54l-92 -53l43 -72l90 43v-96h84v96l90 -43l41 72l-90 53l90 54l-41 71l-90 -53v104zM426 797h-197v106l-96 -49l-98 174l98 53l-98 54l98 176l96 -64v119h197v-119l102 64l99 -176l-99 -54l99 -53l-99 -174l-102 49v-106z" />
    <glyph glyph-name="comma" unicode="," horiz-adv-x="526" 
d="M158 246v-365h80l90 365h-170zM41 -223v588h444l-143 -588h-301z" />
    <glyph glyph-name="hyphen" unicode="-" horiz-adv-x="627" 
d="M455 612v138h-283v-138h283zM563 504h-500v352h500v-352z" />
    <glyph glyph-name="hyphen" unicode="&#x2010;" horiz-adv-x="627" 
d="M455 612v138h-283v-138h283zM563 504h-500v352h500v-352z" />
    <glyph glyph-name="period" unicode="." horiz-adv-x="506" 
d="M334 98v164h-162v-164h162zM451 0h-396v365h396v-365z" />
    <glyph glyph-name="slash" unicode="/" horiz-adv-x="1022" 
d="M926 1481h-92l-732 -1592h95zM1077 1577l-819 -1788h-315l825 1788h309z" />
    <glyph glyph-name="zero" unicode="0" horiz-adv-x="1118" 
d="M645 365v634h-172v-634h172zM768 324l-78 -78h-268l-72 78v723l72 71h268l78 -71v-723zM932 293v784l-162 170h-412l-172 -170v-784l172 -174h398zM1055 246l-244 -246h-510l-238 246v872l238 248h520l234 -248v-872z" />
    <glyph glyph-name="one" unicode="1" horiz-adv-x="834" 
d="M614 119v127h-108v1001h-193l-94 -92v-53h123v-856h-111v-127h383zM737 0h-628v365h110v616h-123v227l158 158h375v-1001h108v-365z" />
    <glyph glyph-name="two" unicode="2" horiz-adv-x="1118" 
d="M186 963h164v81l80 74h264l74 -74v-225l-582 -510v-190h732v127h-588l602 536v293l-166 172h-406l-174 -172v-112zM1038 365v-365h-975v365l582 505v129h-172v-153h-410v272l242 248h514l236 -248v-391l-406 -362h389z" />
    <glyph glyph-name="three" unicode="3" horiz-adv-x="1106" 
d="M213 999h135v60l68 59h262l74 -74v-186l-41 -47h-99v-123h99l41 -47v-324l-74 -71h-262l-68 71v142h-162v-170l166 -170h400l168 170v375l-91 90l91 90v231l-168 172h-400l-139 -145v-103zM63 565h404v-200h166v219h-125v313h125v123h-166v-123h-377v248l213 221h498
l241 -248v-307l-61 -63l61 -60v-442l-241 -246h-498l-240 246v319z" />
    <glyph glyph-name="four" unicode="4" horiz-adv-x="1143" 
d="M553 739v135l-96 -135h96zM653 637h-379l359 493h20v-493zM993 530v107h-174v610h-264l-418 -571v-146h516v-284h-98v-127h354v127h-90v284h174zM1102 426h-172v-61h96v-365h-594v365h121v61h-539v266l510 674h418v-627h160v-313z" />
    <glyph glyph-name="five" unicode="5" horiz-adv-x="1118" 
d="M377 829v289h491v129h-655v-520h471l84 -88v-317l-84 -76h-258l-76 76v118h-164v-151l164 -170h412l170 170v379l-160 161h-395zM63 547h410v-182h172v247h-555v754h901v-348h-491v-96h356l199 -195v-481l-240 -246h-516l-236 246v301z" />
    <glyph glyph-name="six" unicode="6" horiz-adv-x="1120" 
d="M647 365v190h-174v-190h174zM346 664h387l37 -41v-299l-82 -78h-260l-82 78v340zM346 774v275l82 69h268l74 -69v-19h164v49l-166 168h-408l-174 -168v-786l174 -174h398l176 174v360l-119 121h-469zM1057 934h-410v65h-174v-118h408l176 -181v-454l-244 -246h-510
l-240 246v891l240 229h520l234 -229v-203z" />
    <glyph glyph-name="seven" unicode="7" horiz-adv-x="942" 
d="M793 1247h-643v-190h139v61h379l-449 -999h141l433 968v160zM395 999v-59h-368v426h888v-309l-475 -1057h-401l453 999h-97z" />
    <glyph glyph-name="eight" unicode="8" horiz-adv-x="1116" 
d="M645 365v217h-174v-217h174zM612 893v125h-116v-125h116zM768 322l-72 -76h-274l-74 76v321l49 47h320l51 -47v-321zM731 844l-45 -45h-266l-45 45v215l65 59h219l72 -59v-215zM932 289v354l-113 115l64 86v274l-131 129h-390l-137 -129v-274l76 -86l-115 -115v-356
l172 -168h400zM1055 246l-240 -246h-514l-238 246v420l93 92l-54 59v348l203 201h502l199 -201v-348l-50 -59l99 -92v-420z" />
    <glyph glyph-name="nine" unicode="9" horiz-adv-x="1120" 
d="M647 881v118h-174v-118h174zM770 774h-381l-39 45v230l72 69h272l76 -69v-275zM770 664v-342l-82 -86h-250l-73 86v55h-164v-84l170 -174h385l178 174v786l-164 168h-414l-170 -168v-291l119 -124h465zM78 479h393v-114h176v190h-399l-185 184v379l242 248h514l238 -248
v-882l-238 -236h-514l-227 236v243z" />
    <glyph glyph-name="colon" unicode=":" horiz-adv-x="506" 
d="M334 98v164h-164v-164h164zM334 629v164h-164v-164h164zM451 0h-398v365h398v-365zM451 528h-398v361h398v-361z" />
    <glyph glyph-name="semicolon" unicode=";" horiz-adv-x="518" 
d="M158 246v-365h80l90 365h-170zM328 629v164h-164v-164h164zM41 -223v588h436l-143 -588h-293zM444 530h-385v359h385v-359z" />
    <glyph glyph-name="question" unicode="?" horiz-adv-x="942" 
d="M461 96v162h-160v-162h160zM137 999h150v43l75 76h218l75 -76v-225l-75 -76h-207l-72 -71v-146h150v70l28 27h154l172 172v276l-191 178h-338l-139 -143v-105zM569 0h-379v365h379v-365zM569 510v-88h-381v299l138 131h206v147h-139v-100h-379v256l217 211h441l256 -248
v-377l-238 -231h-121z" />
    <glyph glyph-name="A" unicode="A" horiz-adv-x="1333" 
d="M707 709l-43 141l-48 -141h91zM834 616h-349l166 502h25zM1178 119v127h-86l-318 1001h-207l-331 -1001h-78v-127h309v127h-107l91 266h415l86 -266h-104v-127h330zM1300 0h-575v344h88l-22 78h-261l-24 -78h84v-344h-555v365h121l325 1001h385l312 -1001h122v-365z" />
    <glyph glyph-name="B" unicode="B" horiz-adv-x="1198" 
d="M725 365v157h-160v-157h160zM725 872v127h-160v-127h160zM442 246v389h326l80 -80v-229l-80 -80h-326zM442 754v364h326l80 -71v-220l-80 -73h-326zM184 1247v-129h92v-872h-92v-127h641l189 190v281l-109 108l109 109v254l-189 186h-641zM61 0v365h95v634h-95v367h842
l234 -248v-348l-64 -68l64 -67v-389l-246 -246h-830z" />
    <glyph glyph-name="C" unicode="C" horiz-adv-x="1116" 
d="M932 444h-164v-118l-78 -80h-262l-80 80v723l80 69h262l78 -69v-97h164v127l-168 168h-414l-166 -168v-780l166 -180h400l182 180v145zM1055 834h-410v165h-174v-634h174v198h410v-317l-258 -246h-496l-240 246v887l240 233h520l234 -248v-284z" />
    <glyph glyph-name="D" unicode="D" horiz-adv-x="1210" 
d="M739 365v634h-172v-634h172zM444 246v872h347l71 -78v-725l-71 -69h-347zM184 1247v-129h97v-872h-97v-127h674l168 168v788l-168 172h-674zM61 0v365h97v634h-97v367h852l236 -248v-872l-236 -246h-852z" />
    <glyph glyph-name="E" unicode="E" horiz-adv-x="1198" 
d="M1026 119v219h-164v-92h-418v393h324v109h-324v370h418v-74h164v203h-842v-129h97v-872h-97v-127h842zM1149 0h-1088v365h95v634h-95v367h1088v-438h-410v71h-172v-135h322v-346h-322v-153h172v92h410v-457z" />
    <glyph glyph-name="F" unicode="F" horiz-adv-x="1184" 
d="M1026 1030v217h-842v-129h92v-872h-92v-127h353v127h-93v362h306v111h-306v399h418v-88h164zM1149 913h-410v86h-172v-161h301v-346h-301v-127h92v-365h-598v365h97v634h-97v367h1088v-453z" />
    <glyph glyph-name="G" unicode="G" horiz-adv-x="1116" 
d="M932 119v573h-232v-96h68v-350h-344l-76 76v725l76 71h276l68 -71v-48h164v78l-187 170h-395l-166 -170v-784l166 -174h582zM1055 0h-752l-242 246v872l242 248h502l250 -236v-239h-410v108h-174v-634h174v114h-65v332h475v-811z" />
    <glyph glyph-name="H" unicode="H" horiz-adv-x="1290" 
d="M1106 119v127h-80v872h80v129h-297v-129h53v-356h-418v356h52v129h-312v-129h97v-872h-97v-127h312v127h-52v391h418v-391h-53v-127h297zM1229 0h-541v344h51v166h-172v-166h49v-344h-555v365h97v634h-97v367h555v-342h-49v-145h172v145h-51v342h541v-367h-80v-634h80
v-365z" />
    <glyph glyph-name="I" unicode="I" horiz-adv-x="723" 
d="M539 119v127h-95v872h95v129h-355v-129h97v-872h-97v-127h355zM662 0h-601v365h97v634h-97v367h601v-367h-95v-634h95v-365z" />
    <glyph glyph-name="J" unicode="J" horiz-adv-x="1040" 
d="M891 1118v129h-391v-129h131v-796l-80 -76h-160l-84 76v137h-164v-172l168 -168h320l164 168v831h96zM1014 999h-96v-753l-242 -246h-412l-244 246v329h406v-210h82v634h-131v367h637v-367z" />
    <glyph glyph-name="K" unicode="K" horiz-adv-x="1315" 
d="M1151 119v127h-84l-262 585l262 287h84v129h-346v-129h117l-478 -520v520h62v129h-322v-129h97v-872h-97v-127h322v127h-62v192l261 289l217 -481h-117v-127h346zM1274 0h-592v348h82l-82 184l-133 -137v-47h78v-348h-566v365h97v634h-97v367h566v-334h-60v-158l140 158
h-25v334h592v-367h-162l-178 -186l205 -448h135v-365z" />
    <glyph glyph-name="L" unicode="L" horiz-adv-x="1190" 
d="M1026 119v342h-176v-215h-406v872h127v129h-387v-129h97v-872h-97v-127h842zM1149 0h-1088v365h97v634h-97v367h633v-367h-127v-634h174v213h408v-578z" />
    <glyph glyph-name="M" unicode="M" horiz-adv-x="1546" 
d="M1362 119v127h-90v872h90v129h-283l-307 -514l-299 514h-289v-129h92v-872h-92v-127h322v127h-92v858l321 -553h72l323 553v-858h-92v-127h324zM1485 0h-570v365h99v317l-152 -252h-180l-150 252v-317h97v-365h-568v365h97v634h-97v367h471l240 -420l242 420h471v-367
h-94v-634h94v-365z" />
    <glyph glyph-name="N" unicode="N" horiz-adv-x="1366" 
d="M1204 1118v129h-303v-129h84v-768l-504 897h-297v-129h97v-870h-97v-129h314v129h-95v833l541 -962h168v999h92zM1325 999h-92v-999h-359l-376 684v-334h114v-350h-551v365h97v634h-97v367h496l328 -614v270h-97v344h537v-367z" />
    <glyph glyph-name="O" unicode="O" horiz-adv-x="1116" 
d="M645 365v634h-174v-634h174zM768 322l-70 -76h-272l-78 76v722l78 74h272l70 -74v-722zM932 293v782l-168 172h-399l-181 -172v-782l166 -174h414zM1055 246l-242 -246h-514l-238 246v884l238 236h514l242 -248v-872z" />
    <glyph glyph-name="P" unicode="P" horiz-adv-x="1198" 
d="M727 797v202h-160v-202h160zM442 676v442h334l74 -71v-299l-74 -72h-334zM184 1247v-129h97v-872h-97v-127h359v127h-99v305h402l168 168v356l-168 172h-662zM563 432v-67h103v-365h-605v365h97v634h-97v367h842l234 -248v-442l-234 -244h-340z" />
    <glyph glyph-name="Q" unicode="Q" horiz-adv-x="1128" 
d="M645 365v634h-174v-634h174zM768 319l-72 -73h-276l-72 73v723l80 76h268l72 -76v-723zM1006 133l-113 113l39 45v786l-172 170h-404l-172 -170v-786l172 -172h404l49 39l113 -111zM1169 137l-251 -252l-117 115h-500l-240 246v872l240 248h500l254 -248v-872z" />
    <glyph glyph-name="R" unicode="R" horiz-adv-x="1272" 
d="M727 868v131h-160v-131h160zM444 745v373h324l82 -69v-218l-82 -86h-324zM1116 119v129h-67l-185 389l150 147v295l-168 168h-662v-129h92v-870h-92v-129h326v129h-66v373h265l174 -373h-76v-129h309zM1237 0h-549v338h39l-88 174h-72v-174h66v-338h-572v365h95v634h-95
v367h838l238 -236v-385l-136 -124l115 -256h121v-365z" />
    <glyph glyph-name="S" unicode="S" horiz-adv-x="1133" 
d="M768 1028h164v51l-166 168h-418l-164 -168v-288l115 -129h426l43 -48v-292l-78 -86h-266l-76 86v55h-164v-84l164 -174h416l168 174v356l-121 121h-418l-45 47v232l76 69h266l78 -69v-21zM61 479h410v-114h174v188h-405l-179 188v389l236 236h543l215 -221v-221h-410v75
h-174v-120h426l166 -179v-464l-236 -236h-530l-236 236v243z" />
    <glyph glyph-name="T" unicode="T" horiz-adv-x="1233" 
d="M1083 979v268h-940v-268h111v139h276v-872h-94v-127h352v127h-94v872h279v-139h110zM1206 864h-340v135h-49v-634h94v-365h-598v365h97v634h-50v-135h-333v502h1179v-502z" />
    <glyph glyph-name="U" unicode="U" horiz-adv-x="1266" 
d="M1102 1118v129h-338v-129h63v-801l-75 -71h-269l-71 71v801h57v129h-317v-129h96v-831l166 -168h413l166 168v831h109zM1225 999h-107v-753l-241 -246h-504l-236 246v753h-96v367h549v-344h-55v-657h163v657h-53v344h580v-367z" />
    <glyph glyph-name="V" unicode="V" horiz-adv-x="1360" 
d="M1202 1118v129h-368v-129h100l-258 -803l-262 803h96v129h-352v-129h110l330 -999h158l321 999h125zM1325 999h-156l-321 -999h-338l-334 999h-141v367h598v-367h-70l113 -333l106 333h-71v367h614v-367z" />
    <glyph glyph-name="W" unicode="W" horiz-adv-x="1825" 
d="M1669 1118v129h-342v-129h92l-215 -860l-252 989h-75l-246 -989l-223 860h100v129h-350v-129h100l252 -999h215l190 758l187 -758h215l252 999h100zM1790 999h-131l-248 -999h-377l-121 489l-118 -489h-379l-246 999h-135v367h596v-367h-84l84 -313l164 680h239l170 -680
l76 313h-76v367h586v-367z" />
    <glyph glyph-name="X" unicode="X" horiz-adv-x="1391" 
d="M1229 119v127h-82l-359 444l359 428h65v129h-340v-129h105l-277 -330l-278 330h113v129h-371v-129h82l358 -428l-368 -444h-72v-127h342v127h-111l289 348l293 -348h-105v-127h357zM1350 0h-611v324h49l-104 122l-100 -122h55v-324h-598v365h137l285 325l-270 309h-136
v367h596v-328h-41l88 -106l88 106h-34v328h579v-367h-149l-262 -309l274 -325h154v-365z" />
    <glyph glyph-name="Y" unicode="Y" horiz-adv-x="1235" 
d="M1079 1118v129h-299v-129h70l-232 -432l-233 432h70v129h-297v-129h71l308 -569v-303h-93v-127h351v127h-97v303l308 569h73zM1202 999h-121l-260 -483v-151h94v-365h-593v365h94v151l-260 483h-121v367h543v-338h-41l84 -156l77 156h-34v338h538v-367z" />
    <glyph glyph-name="Z" unicode="Z" horiz-adv-x="1169" 
d="M1006 119v311h-138v-184h-577l676 813v188h-746v-188h139v59h463l-659 -799v-200h842zM1128 0h-1087v365l537 657h-144v-82h-336v426h989v-344l-550 -674h219v187h372v-535z" />
    <glyph glyph-name="bracketleft" unicode="[" horiz-adv-x="743" 
d="M600 -94v125h-190v1308h190v123h-354v-1556h354zM723 -211h-600v1788h600v-356h-191v-1076h191v-356z" />
    <glyph glyph-name="backslash" unicode="\" horiz-adv-x="1022" 
d="M920 -111l-732 1592h-92l729 -1592h95zM1077 -211h-313l-821 1788h311z" />
    <glyph glyph-name="bracketright" unicode="]" horiz-adv-x="743" 
d="M498 -94v1556h-355v-123h191v-1308h-191v-125h355zM621 -211h-601v356h191v1076h-191v356h601v-1788z" />
    <glyph glyph-name="underscore" unicode="_" horiz-adv-x="1024" 
d="M1024 -383h-1024v109h1024v-109z" />
    <glyph glyph-name="grave" unicode="`" horiz-adv-x="545" 
d="M350 1550l-31 179h-94l70 -179h55zM457 1456h-221l-148 367h305z" />
    <glyph glyph-name="a" unicode="a" horiz-adv-x="1333" 
d="M707 709l-43 141l-48 -141h91zM834 616h-349l166 502h25zM1178 119v127h-86l-318 1001h-207l-331 -1001h-78v-127h309v127h-107l91 266h415l86 -266h-104v-127h330zM1300 0h-575v344h88l-22 78h-261l-24 -78h84v-344h-555v365h121l325 1001h385l312 -1001h122v-365z" />
    <glyph glyph-name="b" unicode="b" horiz-adv-x="1198" 
d="M725 365v157h-160v-157h160zM725 872v127h-160v-127h160zM442 246v389h326l80 -80v-229l-80 -80h-326zM442 754v364h326l80 -71v-220l-80 -73h-326zM184 1247v-129h92v-872h-92v-127h641l189 190v281l-109 108l109 109v254l-189 186h-641zM61 0v365h95v634h-95v367h842
l234 -248v-348l-64 -68l64 -67v-389l-246 -246h-830z" />
    <glyph glyph-name="c" unicode="c" horiz-adv-x="1116" 
d="M932 444h-164v-118l-78 -80h-262l-80 80v723l80 69h262l78 -69v-97h164v127l-168 168h-414l-166 -168v-780l166 -180h400l182 180v145zM1055 834h-410v165h-174v-634h174v198h410v-317l-258 -246h-496l-240 246v887l240 233h520l234 -248v-284z" />
    <glyph glyph-name="d" unicode="d" horiz-adv-x="1210" 
d="M739 365v634h-172v-634h172zM444 246v872h347l71 -78v-725l-71 -69h-347zM184 1247v-129h97v-872h-97v-127h674l168 168v788l-168 172h-674zM61 0v365h97v634h-97v367h852l236 -248v-872l-236 -246h-852z" />
    <glyph glyph-name="e" unicode="e" horiz-adv-x="1198" 
d="M1026 119v219h-164v-92h-418v393h324v109h-324v370h418v-74h164v203h-842v-129h97v-872h-97v-127h842zM1149 0h-1088v365h95v634h-95v367h1088v-438h-410v71h-172v-135h322v-346h-322v-153h172v92h410v-457z" />
    <glyph glyph-name="f" unicode="f" horiz-adv-x="1184" 
d="M1026 1030v217h-842v-129h92v-872h-92v-127h353v127h-93v362h306v111h-306v399h418v-88h164zM1149 913h-410v86h-172v-161h301v-346h-301v-127h92v-365h-598v365h97v634h-97v367h1088v-453z" />
    <glyph glyph-name="g" unicode="g" horiz-adv-x="1116" 
d="M932 119v573h-232v-96h68v-350h-344l-76 76v725l76 71h276l68 -71v-48h164v78l-187 170h-395l-166 -170v-784l166 -174h582zM1055 0h-752l-242 246v872l242 248h502l250 -236v-239h-410v108h-174v-634h174v114h-65v332h475v-811z" />
    <glyph glyph-name="h" unicode="h" horiz-adv-x="1290" 
d="M1106 119v127h-80v872h80v129h-297v-129h53v-356h-418v356h52v129h-312v-129h97v-872h-97v-127h312v127h-52v391h418v-391h-53v-127h297zM1229 0h-541v344h51v166h-172v-166h49v-344h-555v365h97v634h-97v367h555v-342h-49v-145h172v145h-51v342h541v-367h-80v-634h80
v-365z" />
    <glyph glyph-name="i" unicode="i" horiz-adv-x="723" 
d="M539 119v127h-95v872h95v129h-355v-129h97v-872h-97v-127h355zM662 0h-601v365h97v634h-97v367h601v-367h-95v-634h95v-365z" />
    <glyph glyph-name="j" unicode="j" horiz-adv-x="1040" 
d="M891 1118v129h-391v-129h131v-796l-80 -76h-160l-84 76v137h-164v-172l168 -168h320l164 168v831h96zM1014 999h-96v-753l-242 -246h-412l-244 246v329h406v-210h82v634h-131v367h637v-367z" />
    <glyph glyph-name="k" unicode="k" horiz-adv-x="1315" 
d="M1151 119v127h-84l-262 585l262 287h84v129h-346v-129h117l-478 -520v520h62v129h-322v-129h97v-872h-97v-127h322v127h-62v192l261 289l217 -481h-117v-127h346zM1274 0h-592v348h82l-82 184l-133 -137v-47h78v-348h-566v365h97v634h-97v367h566v-334h-60v-158l140 158
h-25v334h592v-367h-162l-178 -186l205 -448h135v-365z" />
    <glyph glyph-name="l" unicode="l" horiz-adv-x="1190" 
d="M1026 119v342h-176v-215h-406v872h127v129h-387v-129h97v-872h-97v-127h842zM1149 0h-1088v365h97v634h-97v367h633v-367h-127v-634h174v213h408v-578z" />
    <glyph glyph-name="m" unicode="m" horiz-adv-x="1546" 
d="M1362 119v127h-90v872h90v129h-283l-307 -514l-299 514h-289v-129h92v-872h-92v-127h322v127h-92v858l321 -553h72l323 553v-858h-92v-127h324zM1485 0h-570v365h99v317l-152 -252h-180l-150 252v-317h97v-365h-568v365h97v634h-97v367h471l240 -420l242 420h471v-367
h-94v-634h94v-365z" />
    <glyph glyph-name="n" unicode="n" horiz-adv-x="1366" 
d="M1204 1118v129h-303v-129h84v-768l-504 897h-297v-129h97v-870h-97v-129h314v129h-95v833l541 -962h168v999h92zM1325 999h-92v-999h-359l-376 684v-334h114v-350h-551v365h97v634h-97v367h496l328 -614v270h-97v344h537v-367z" />
    <glyph glyph-name="o" unicode="o" horiz-adv-x="1116" 
d="M645 365v634h-174v-634h174zM768 322l-70 -76h-272l-78 76v722l78 74h272l70 -74v-722zM932 293v782l-168 172h-399l-181 -172v-782l166 -174h414zM1055 246l-242 -246h-514l-238 246v884l238 236h514l242 -248v-872z" />
    <glyph glyph-name="p" unicode="p" horiz-adv-x="1198" 
d="M727 797v202h-160v-202h160zM442 676v442h334l74 -71v-299l-74 -72h-334zM184 1247v-129h97v-872h-97v-127h359v127h-99v305h402l168 168v356l-168 172h-662zM563 432v-67h103v-365h-605v365h97v634h-97v367h842l234 -248v-442l-234 -244h-340z" />
    <glyph glyph-name="q" unicode="q" horiz-adv-x="1128" 
d="M645 365v634h-174v-634h174zM768 319l-72 -73h-276l-72 73v723l80 76h268l72 -76v-723zM1006 133l-113 113l39 45v786l-172 170h-404l-172 -170v-786l172 -172h404l49 39l113 -111zM1169 137l-251 -252l-117 115h-500l-240 246v872l240 248h500l254 -248v-872z" />
    <glyph glyph-name="r" unicode="r" horiz-adv-x="1272" 
d="M727 868v131h-160v-131h160zM444 745v373h324l82 -69v-218l-82 -86h-324zM1116 119v129h-67l-185 389l150 147v295l-168 168h-662v-129h92v-870h-92v-129h326v129h-66v373h265l174 -373h-76v-129h309zM1237 0h-549v338h39l-88 174h-72v-174h66v-338h-572v365h95v634h-95
v367h838l238 -236v-385l-136 -124l115 -256h121v-365z" />
    <glyph glyph-name="s" unicode="s" horiz-adv-x="1133" 
d="M768 1028h164v51l-166 168h-418l-164 -168v-288l115 -129h426l43 -48v-292l-78 -86h-266l-76 86v55h-164v-84l164 -174h416l168 174v356l-121 121h-418l-45 47v232l76 69h266l78 -69v-21zM61 479h410v-114h174v188h-405l-179 188v389l236 236h543l215 -221v-221h-410v75
h-174v-120h426l166 -179v-464l-236 -236h-530l-236 236v243z" />
    <glyph glyph-name="t" unicode="t" horiz-adv-x="1233" 
d="M1083 979v268h-940v-268h111v139h276v-872h-94v-127h352v127h-94v872h279v-139h110zM1206 864h-340v135h-49v-634h94v-365h-598v365h97v634h-50v-135h-333v502h1179v-502z" />
    <glyph glyph-name="u" unicode="u" horiz-adv-x="1266" 
d="M1102 1118v129h-338v-129h63v-801l-75 -71h-269l-71 71v801h57v129h-317v-129h96v-831l166 -168h413l166 168v831h109zM1225 999h-107v-753l-241 -246h-504l-236 246v753h-96v367h549v-344h-55v-657h163v657h-53v344h580v-367z" />
    <glyph glyph-name="v" unicode="v" horiz-adv-x="1360" 
d="M1202 1118v129h-368v-129h100l-258 -803l-262 803h96v129h-352v-129h110l330 -999h158l321 999h125zM1325 999h-156l-321 -999h-338l-334 999h-141v367h598v-367h-70l113 -333l106 333h-71v367h614v-367z" />
    <glyph glyph-name="w" unicode="w" horiz-adv-x="1825" 
d="M1669 1118v129h-342v-129h92l-215 -860l-252 989h-75l-246 -989l-223 860h100v129h-350v-129h100l252 -999h215l190 758l187 -758h215l252 999h100zM1790 999h-131l-248 -999h-377l-121 489l-118 -489h-379l-246 999h-135v367h596v-367h-84l84 -313l164 680h239l170 -680
l76 313h-76v367h586v-367z" />
    <glyph glyph-name="x" unicode="x" horiz-adv-x="1391" 
d="M1229 119v127h-82l-359 444l359 428h65v129h-340v-129h105l-277 -330l-278 330h113v129h-371v-129h82l358 -428l-368 -444h-72v-127h342v127h-111l289 348l293 -348h-105v-127h357zM1350 0h-611v324h49l-104 122l-100 -122h55v-324h-598v365h137l285 325l-270 309h-136
v367h596v-328h-41l88 -106l88 106h-34v328h579v-367h-149l-262 -309l274 -325h154v-365z" />
    <glyph glyph-name="y" unicode="y" horiz-adv-x="1235" 
d="M1079 1118v129h-299v-129h70l-232 -432l-233 432h70v129h-297v-129h71l308 -569v-303h-93v-127h351v127h-97v303l308 569h73zM1202 999h-121l-260 -483v-151h94v-365h-593v365h94v151l-260 483h-121v367h543v-338h-41l84 -156l77 156h-34v338h538v-367z" />
    <glyph glyph-name="z" unicode="z" horiz-adv-x="1169" 
d="M1006 119v311h-138v-184h-577l676 813v188h-746v-188h139v59h463l-659 -799v-200h842zM1128 0h-1087v365l537 657h-144v-82h-336v426h989v-344l-550 -674h219v187h372v-535z" />
    <glyph glyph-name="nonbreakingspace" unicode="&#xa0;" horiz-adv-x="711" 
 />
    <glyph glyph-name="exclamdown" unicode="&#xa1;" horiz-adv-x="567" 
d="M401 119l-69 721h-96l-68 -721h233zM362 1104v164h-161v-164h161zM526 0h-485l88 940h307zM471 999h-379v367h379v-367z" />
    <glyph glyph-name="cent" unicode="&#xa2;" horiz-adv-x="983" 
d="M825 514h-163v-80l-76 -86h-183l-81 86v465l81 74h183l76 -74v-59h163v90l-166 170h-120v137h-99v-137h-110l-172 -170v-522l172 -181h110v-139h101v139h100l184 181v106zM631 117v-117h-287v117h-70l-239 231v625l239 241h70v111h287v-111h82l235 -241v-238h-409v123
h-95v-385h95v145h409v-270l-258 -231h-59z" />
    <glyph glyph-name="sterling" unicode="&#xa3;" horiz-adv-x="1120" 
d="M967 119v307h-125v-180h-428v377h125v125h-125v294l82 76h211l81 -76v-43h152v78l-168 170h-350l-172 -170v-329h-96v-125h96v-377h-96v-127h813zM1090 0h-1059v365h96v155h-96v326h96v272l240 248h458l236 -248v-225h-387v106h-144v-153h132v-326h-132v-155h193v172h367
v-537z" />
    <glyph glyph-name="yen" unicode="&#xa5;" horiz-adv-x="1221" 
d="M1073 1118v129h-309v-129h78l-232 -436l-231 436h72v129h-301v-129h75l240 -442h-240v-123h305v-307h-94v-127h348v127h-94v307h305v123h-235l235 442h78zM1194 999h-121l-127 -221h154v-327h-287v-86h94v-365h-594v365h97v86h-287v327h153l-129 221h-120v367h546v-338
h-43l84 -156l76 156h-49v338h553v-367z" />
    <glyph glyph-name="dieresis" unicode="&#xa8;" horiz-adv-x="760" 
d="M252 1597v80h-82v-80h82zM592 1597v80h-82v-80h82zM336 1569l-55 -56h-138l-55 56v139l55 53h138l55 -53v-139zM672 1569l-54 -56h-137l-51 56v139l51 53h137l54 -53v-139z" />
    <glyph glyph-name="guillemotleft" unicode="&#xab;" horiz-adv-x="926" 
d="M352 420l-82 274l82 254h-88l-114 -254l114 -274h88zM752 420l-82 274l82 254h-90l-115 -254l115 -274h90zM485 326h-288l-156 368l156 350h288l-108 -350zM885 326h-291l-156 368l156 350h291l-107 -350z" />
    <glyph glyph-name="acute" unicode="&#xb4;" horiz-adv-x="545" 
d="M319 1729h-92l-32 -179h55zM457 1823l-148 -367h-221l64 367h305z" />
    <glyph glyph-name="periodcentered" unicode="&#xb7;" horiz-adv-x="506" 
d="M334 598v164h-164v-164h164zM451 500h-398v364h398v-364z" />
    <glyph glyph-name="periodcentered" unicode="&#x2219;" horiz-adv-x="506" 
d="M334 598v164h-164v-164h164zM451 500h-398v364h398v-364z" />
    <glyph glyph-name="guillemotright" unicode="&#xbb;" horiz-adv-x="926" 
d="M379 694l-115 254h-90l82 -254l-82 -274h90zM776 694l-112 254h-89l80 -254l-80 -274h89zM487 694l-155 -368h-291l106 368l-106 350h291zM885 694l-156 -368h-289l109 368l-109 350h289z" />
    <glyph glyph-name="questiondown" unicode="&#xbf;" horiz-adv-x="942" 
d="M805 365h-150v-41l-75 -76h-218l-75 76v223l75 76h207l72 73v146h-149v-70l-29 -27h-154l-172 -172v-278l191 -176h338l139 143v103zM641 1106v164h-160v-164h160zM373 856v90h381v-301l-138 -133h-206v-147h139v102h379v-256l-217 -211h-441l-256 248v375l238 233h121z
M752 999h-379v367h379v-367z" />
    <glyph glyph-name="Agrave" unicode="&#xc0;" horiz-adv-x="1333" 
d="M707 709l-43 141l-48 -141h91zM834 616h-349l166 502h25zM1178 119v127h-86l-318 1001h-207l-331 -1001h-78v-127h309v127h-107l91 266h415l86 -266h-104v-127h330zM1300 0h-575v344h88l-22 78h-261l-24 -78h84v-344h-555v365h121l325 1001h385l312 -1001h122v-365z
M680 1550l-31 179h-94l70 -179h55zM787 1456h-221l-148 367h305z" />
    <glyph glyph-name="Aacute" unicode="&#xc1;" horiz-adv-x="1333" 
d="M707 709l-43 141l-48 -141h91zM834 616h-349l166 502h25zM1178 119v127h-86l-318 1001h-207l-331 -1001h-78v-127h309v127h-107l91 266h415l86 -266h-104v-127h330zM1300 0h-575v344h88l-22 78h-261l-24 -78h84v-344h-555v365h121l325 1001h385l312 -1001h122v-365z
M784 1729h-92l-32 -179h55zM922 1823l-148 -367h-221l64 367h305z" />
    <glyph glyph-name="Acircumflex" unicode="&#xc2;" horiz-adv-x="1333" 
d="M707 709l-43 141l-48 -141h91zM834 616h-349l166 502h25zM1178 119v127h-86l-318 1001h-207l-331 -1001h-78v-127h309v127h-107l91 266h415l86 -266h-104v-127h330zM1300 0h-575v344h88l-22 78h-261l-24 -78h84v-344h-555v365h121l325 1001h385l312 -1001h122v-365z
M825 1542l-123 197h-69l-123 -197h59l98 96l89 -96h69zM983 1460h-252l-64 64l-65 -64h-250l227 367h177z" />
    <glyph glyph-name="Atilde" unicode="&#xc3;" horiz-adv-x="1333" 
d="M707 709l-43 141l-48 -141h91zM834 616h-349l166 502h25zM1178 119v127h-86l-318 1001h-207l-331 -1001h-78v-127h309v127h-107l91 266h415l86 -266h-104v-127h330zM1300 0h-575v344h88l-22 78h-261l-24 -78h84v-344h-555v365h121l325 1001h385l312 -1001h122v-365z
M877 1751h-66v-68h-299l-43 -38v-99h70v68h301l37 31v106zM608 1518v-56h-231v221l92 93h275v53h215v-215l-82 -96h-269z" />
    <glyph glyph-name="Adieresis" unicode="&#xc4;" horiz-adv-x="1333" 
d="M707 709l-43 141l-48 -141h91zM834 616h-349l166 502h25zM1178 119v127h-86l-318 1001h-207l-331 -1001h-78v-127h309v127h-107l91 266h415l86 -266h-104v-127h330zM1300 0h-575v344h88l-22 78h-261l-24 -78h84v-344h-555v365h121l325 1001h385l312 -1001h122v-365z
M535 1597v80h-82v-80h82zM875 1597v80h-82v-80h82zM619 1569l-55 -56h-138l-55 56v139l55 53h138l55 -53v-139zM955 1569l-54 -56h-137l-51 56v139l51 53h137l54 -53v-139z" />
    <glyph glyph-name="Aring" unicode="&#xc5;" horiz-adv-x="1333" 
d="M707 709l-43 141l-48 -141h91zM834 616h-349l166 502h25zM1178 119v127h-86l-318 1001h-207l-331 -1001h-78v-127h309v127h-107l91 266h415l86 -266h-104v-127h330zM1300 0h-575v344h88l-22 78h-261l-24 -78h84v-344h-555v365h121l325 1001h385l312 -1001h122v-365z
M724 1618v65h-67v-65h67zM778 1602l-39 -39h-103l-32 39v98l32 35h103l39 -35v-98zM849 1563v172l-71 73h-174l-72 -73v-172l72 -70h174zM927 1530l-119 -117h-241l-117 117v239l117 119h241l119 -119v-239z" />
    <glyph glyph-name="AE" unicode="&#xc6;" horiz-adv-x="1872" 
d="M881 711v190l-103 -190h103zM995 621h-393l279 497h114v-497zM1700 119v219h-148v-92h-393v391h328v111h-328v370h393v-74h148v203h-907l-553 -1001h-76v-127h328v127h-97l150 266h450v-266h-67v-127h772zM1825 0h-1016v348h72v72h-265l-38 -72h38v-348h-575v365h127
l549 1001h1108v-438h-367v71h-178v-137h328v-348h-328v-149h178v90h367v-455z" />
    <glyph glyph-name="Ccedilla" unicode="&#xc7;" horiz-adv-x="1116" 
d="M932 444h-164v-118l-78 -80h-260l-82 80v725l82 79h260l78 -79v-103h164v131l-168 168h-406l-174 -168v-782l174 -178h154l-82 -295h125l66 295h129l182 178v147zM1055 831h-410v168h-174v-634h174v198h410v-317l-258 -246h-105l-59 -272h-328l80 272h-80l-244 246v884
l244 236h516l234 -236v-299z" />
    <glyph glyph-name="Egrave" unicode="&#xc8;" horiz-adv-x="1198" 
d="M1026 119v219h-164v-92h-418v393h324v109h-324v370h418v-74h164v203h-842v-129h97v-872h-97v-127h842zM1149 0h-1088v365h95v634h-95v367h1088v-438h-410v71h-172v-135h322v-346h-322v-153h172v92h410v-457zM596 1550l-31 179h-94l70 -179h55zM703 1456h-221l-148 367
h305z" />
    <glyph glyph-name="Eacute" unicode="&#xc9;" horiz-adv-x="1198" 
d="M1026 119v219h-164v-92h-418v393h324v109h-324v370h418v-74h164v203h-842v-129h97v-872h-97v-127h842zM1149 0h-1088v365h95v634h-95v367h1088v-438h-410v71h-172v-135h322v-346h-322v-153h172v92h410v-457zM716 1729h-92l-32 -179h55zM854 1823l-148 -367h-221l64 367
h305z" />
    <glyph glyph-name="Ecircumflex" unicode="&#xca;" horiz-adv-x="1198" 
d="M1026 119v219h-164v-92h-418v393h324v109h-324v370h418v-74h164v203h-842v-129h97v-872h-97v-127h842zM1149 0h-1088v365h95v634h-95v367h1088v-438h-410v71h-172v-135h322v-346h-322v-153h172v92h410v-457zM756 1542l-123 197h-69l-123 -197h59l98 96l89 -96h69z
M914 1460h-252l-64 64l-65 -64h-250l227 367h177z" />
    <glyph glyph-name="Edieresis" unicode="&#xcb;" horiz-adv-x="1198" 
d="M1026 119v219h-164v-92h-418v393h324v109h-324v370h418v-74h164v203h-842v-129h97v-872h-97v-127h842zM1149 0h-1088v365h95v634h-95v367h1088v-438h-410v71h-172v-135h322v-346h-322v-153h172v92h410v-457zM471 1597v80h-82v-80h82zM811 1597v80h-82v-80h82zM555 1569
l-55 -56h-138l-55 56v139l55 53h138l55 -53v-139zM891 1569l-54 -56h-137l-51 56v139l51 53h137l54 -53v-139z" />
    <glyph glyph-name="Igrave" unicode="&#xcc;" horiz-adv-x="723" 
d="M539 119v127h-95v872h95v129h-355v-129h97v-872h-97v-127h355zM662 0h-601v365h97v634h-97v367h601v-367h-95v-634h95v-365zM364 1550l-31 179h-94l70 -179h55zM471 1456h-221l-148 367h305z" />
    <glyph glyph-name="Iacute" unicode="&#xcd;" horiz-adv-x="723" 
d="M539 119v127h-95v872h95v129h-355v-129h97v-872h-97v-127h355zM662 0h-601v365h97v634h-97v367h601v-367h-95v-634h95v-365zM471 1729h-92l-32 -179h55zM609 1823l-148 -367h-221l64 367h305z" />
    <glyph glyph-name="Icircumflex" unicode="&#xce;" horiz-adv-x="723" 
d="M539 119v127h-95v872h95v129h-355v-129h97v-872h-97v-127h355zM662 0h-601v365h97v634h-97v367h601v-367h-95v-634h95v-365zM535 1542l-123 197h-69l-123 -197h59l98 96l89 -96h69zM693 1460h-252l-64 64l-65 -64h-250l227 367h177z" />
    <glyph glyph-name="Idieresis" unicode="&#xcf;" horiz-adv-x="723" 
d="M539 119v127h-95v872h95v129h-355v-129h97v-872h-97v-127h355zM662 0h-601v365h97v634h-97v367h601v-367h-95v-634h95v-365zM235 1597v80h-82v-80h82zM575 1597v80h-82v-80h82zM319 1569l-55 -56h-138l-55 56v139l55 53h138l55 -53v-139zM655 1569l-54 -56h-137l-51 56
v139l51 53h137l54 -53v-139z" />
    <glyph glyph-name="Ntilde" unicode="&#xd1;" horiz-adv-x="1366" 
d="M1204 1118v129h-303v-129h84v-768l-504 897h-297v-129h97v-870h-97v-129h314v129h-95v833l541 -962h168v999h92zM1325 999h-92v-999h-359l-376 684v-334h114v-350h-551v365h97v634h-97v367h496l328 -614v270h-97v344h537v-367zM891 1751h-66v-68h-299l-43 -38v-99h70v68
h301l37 31v106zM622 1518v-56h-231v221l92 93h275v53h215v-215l-82 -96h-269z" />
    <glyph glyph-name="Ograve" unicode="&#xd2;" horiz-adv-x="1116" 
d="M645 365v634h-174v-634h174zM768 322l-70 -76h-272l-78 76v722l78 74h272l70 -74v-722zM932 293v782l-168 172h-399l-181 -172v-782l166 -174h414zM1055 246l-242 -246h-514l-238 246v884l238 236h514l242 -248v-872zM569 1550l-31 179h-94l70 -179h55zM676 1456h-221
l-148 367h305z" />
    <glyph glyph-name="Oacute" unicode="&#xd3;" horiz-adv-x="1116" 
d="M645 365v634h-174v-634h174zM768 322l-70 -76h-272l-78 76v722l78 74h272l70 -74v-722zM932 293v782l-168 172h-399l-181 -172v-782l166 -174h414zM1055 246l-242 -246h-514l-238 246v884l238 236h514l242 -248v-872zM675 1729h-92l-32 -179h55zM813 1823l-148 -367h-221
l64 367h305z" />
    <glyph glyph-name="Ocircumflex" unicode="&#xd4;" horiz-adv-x="1116" 
d="M645 365v634h-174v-634h174zM768 322l-70 -76h-272l-78 76v722l78 74h272l70 -74v-722zM932 293v782l-168 172h-399l-181 -172v-782l166 -174h414zM1055 246l-242 -246h-514l-238 246v884l238 236h514l242 -248v-872zM715 1542l-123 197h-69l-123 -197h59l98 96l89 -96
h69zM873 1460h-252l-64 64l-65 -64h-250l227 367h177z" />
    <glyph glyph-name="Otilde" unicode="&#xd5;" horiz-adv-x="1116" 
d="M645 365v634h-174v-634h174zM768 322l-70 -76h-272l-78 76v722l78 74h272l70 -74v-722zM932 293v782l-168 172h-399l-181 -172v-782l166 -174h414zM1055 246l-242 -246h-514l-238 246v884l238 236h514l242 -248v-872zM766 1751h-66v-68h-299l-43 -38v-99h70v68h301l37 31
v106zM497 1518v-56h-231v221l92 93h275v53h215v-215l-82 -96h-269z" />
    <glyph glyph-name="Odieresis" unicode="&#xd6;" horiz-adv-x="1116" 
d="M645 365v634h-174v-634h174zM768 322l-70 -76h-272l-78 76v722l78 74h272l70 -74v-722zM932 293v782l-168 172h-399l-181 -172v-782l166 -174h414zM1055 246l-242 -246h-514l-238 246v884l238 236h514l242 -248v-872zM430 1597v80h-82v-80h82zM770 1597v80h-82v-80h82z
M514 1569l-55 -56h-138l-55 56v139l55 53h138l55 -53v-139zM850 1569l-54 -56h-137l-51 56v139l51 53h137l54 -53v-139z" />
    <glyph glyph-name="Oslash" unicode="&#xd8;" horiz-adv-x="1145" 
d="M657 362v642h-165v-642h165zM780 311l-65 -65h-273l-71 69v719l82 78h254l73 -65v-736zM995 1225l-63 63l-96 -86l-56 49h-409l-160 -172v-790l51 -58l-92 -96l68 -67l90 88l43 -39h409l166 159v809l-47 48zM1118 1245l-84 -84l37 -43v-872l-231 -246h-504l-29 25
l-98 -95l-174 174l96 97l-43 49v862l234 254h518l20 -23l90 80z" />
    <glyph glyph-name="Ugrave" unicode="&#xd9;" horiz-adv-x="1266" 
d="M1102 1118v129h-338v-129h63v-801l-75 -71h-269l-71 71v801h57v129h-317v-129h96v-831l166 -168h413l166 168v831h109zM1225 999h-107v-753l-241 -246h-504l-236 246v753h-96v367h549v-344h-55v-657h163v657h-53v344h580v-367zM624 1550l-31 179h-94l70 -179h55z
M731 1456h-221l-148 367h305z" />
    <glyph glyph-name="Uacute" unicode="&#xda;" horiz-adv-x="1266" 
d="M1102 1118v129h-338v-129h63v-801l-75 -71h-269l-71 71v801h57v129h-317v-129h96v-831l166 -168h413l166 168v831h109zM1225 999h-107v-753l-241 -246h-504l-236 246v753h-96v367h549v-344h-55v-657h163v657h-53v344h580v-367zM729 1729h-92l-32 -179h55zM867 1823
l-148 -367h-221l64 367h305z" />
    <glyph glyph-name="Ucircumflex" unicode="&#xdb;" horiz-adv-x="1266" 
d="M1102 1118v129h-338v-129h63v-801l-75 -71h-269l-71 71v801h57v129h-317v-129h96v-831l166 -168h413l166 168v831h109zM1225 999h-107v-753l-241 -246h-504l-236 246v753h-96v367h549v-344h-55v-657h163v657h-53v344h580v-367zM790 1542l-123 197h-69l-123 -197h59l98 96
l89 -96h69zM948 1460h-252l-64 64l-65 -64h-250l227 367h177z" />
    <glyph glyph-name="Udieresis" unicode="&#xdc;" horiz-adv-x="1266" 
d="M1102 1118v129h-338v-129h63v-801l-75 -71h-269l-71 71v801h57v129h-317v-129h96v-831l166 -168h413l166 168v831h109zM1225 999h-107v-753l-241 -246h-504l-236 246v753h-96v367h549v-344h-55v-657h163v657h-53v344h580v-367zM506 1597v80h-82v-80h82zM846 1597v80h-82
v-80h82zM590 1569l-55 -56h-138l-55 56v139l55 53h138l55 -53v-139zM926 1569l-54 -56h-137l-51 56v139l51 53h137l54 -53v-139z" />
    <glyph glyph-name="agrave" unicode="&#xe0;" horiz-adv-x="1333" 
d="M707 709l-43 141l-48 -141h91zM834 616h-349l166 502h25zM1178 119v127h-86l-318 1001h-207l-331 -1001h-78v-127h309v127h-107l91 266h415l86 -266h-104v-127h330zM1300 0h-575v344h88l-22 78h-261l-24 -78h84v-344h-555v365h121l325 1001h385l312 -1001h122v-365z
M680 1550l-31 179h-94l70 -179h55zM787 1456h-221l-148 367h305z" />
    <glyph glyph-name="aacute" unicode="&#xe1;" horiz-adv-x="1333" 
d="M707 709l-43 141l-48 -141h91zM834 616h-349l166 502h25zM1178 119v127h-86l-318 1001h-207l-331 -1001h-78v-127h309v127h-107l91 266h415l86 -266h-104v-127h330zM1300 0h-575v344h88l-22 78h-261l-24 -78h84v-344h-555v365h121l325 1001h385l312 -1001h122v-365z
M784 1729h-92l-32 -179h55zM922 1823l-148 -367h-221l64 367h305z" />
    <glyph glyph-name="acircumflex" unicode="&#xe2;" horiz-adv-x="1333" 
d="M707 709l-43 141l-48 -141h91zM834 616h-349l166 502h25zM1178 119v127h-86l-318 1001h-207l-331 -1001h-78v-127h309v127h-107l91 266h415l86 -266h-104v-127h330zM1300 0h-575v344h88l-22 78h-261l-24 -78h84v-344h-555v365h121l325 1001h385l312 -1001h122v-365z
M825 1542l-123 197h-69l-123 -197h59l98 96l89 -96h69zM983 1460h-252l-64 64l-65 -64h-250l227 367h177z" />
    <glyph glyph-name="atilde" unicode="&#xe3;" horiz-adv-x="1333" 
d="M707 709l-43 141l-48 -141h91zM834 616h-349l166 502h25zM1178 119v127h-86l-318 1001h-207l-331 -1001h-78v-127h309v127h-107l91 266h415l86 -266h-104v-127h330zM1300 0h-575v344h88l-22 78h-261l-24 -78h84v-344h-555v365h121l325 1001h385l312 -1001h122v-365z
M877 1751h-66v-68h-299l-43 -38v-99h70v68h301l37 31v106zM608 1518v-56h-231v221l92 93h275v53h215v-215l-82 -96h-269z" />
    <glyph glyph-name="adieresis" unicode="&#xe4;" horiz-adv-x="1333" 
d="M707 709l-43 141l-48 -141h91zM834 616h-349l166 502h25zM1178 119v127h-86l-318 1001h-207l-331 -1001h-78v-127h309v127h-107l91 266h415l86 -266h-104v-127h330zM1300 0h-575v344h88l-22 78h-261l-24 -78h84v-344h-555v365h121l325 1001h385l312 -1001h122v-365z
M535 1597v80h-82v-80h82zM875 1597v80h-82v-80h82zM619 1569l-55 -56h-138l-55 56v139l55 53h138l55 -53v-139zM955 1569l-54 -56h-137l-51 56v139l51 53h137l54 -53v-139z" />
    <glyph glyph-name="aring" unicode="&#xe5;" horiz-adv-x="1333" 
d="M707 709l-43 141l-48 -141h91zM834 616h-349l166 502h25zM1178 119v127h-86l-318 1001h-207l-331 -1001h-78v-127h309v127h-107l91 266h415l86 -266h-104v-127h330zM1300 0h-575v344h88l-22 78h-261l-24 -78h84v-344h-555v365h121l325 1001h385l312 -1001h122v-365z
M724 1618v65h-67v-65h67zM778 1602l-39 -39h-103l-32 39v98l32 35h103l39 -35v-98zM849 1563v172l-71 73h-174l-72 -73v-172l72 -70h174zM927 1530l-119 -117h-241l-117 117v239l117 119h241l119 -119v-239z" />
    <glyph glyph-name="ae" unicode="&#xe6;" horiz-adv-x="1872" 
d="M881 711v190l-103 -190h103zM995 621h-393l279 497h114v-497zM1700 119v219h-148v-92h-393v391h328v111h-328v370h393v-74h148v203h-907l-553 -1001h-76v-127h328v127h-97l150 266h450v-266h-67v-127h772zM1825 0h-1016v348h72v72h-265l-38 -72h38v-348h-575v365h127
l549 1001h1108v-438h-367v71h-178v-137h328v-348h-328v-149h178v90h367v-455z" />
    <glyph glyph-name="ccedilla" unicode="&#xe7;" horiz-adv-x="1116" 
d="M932 444h-164v-118l-78 -80h-260l-82 80v725l82 79h260l78 -79v-103h164v131l-168 168h-406l-174 -168v-782l174 -178h154l-82 -295h125l66 295h129l182 178v147zM1055 831h-410v168h-174v-634h174v198h410v-317l-258 -246h-105l-59 -272h-328l80 272h-80l-244 246v884
l244 236h516l234 -236v-299z" />
    <glyph glyph-name="egrave" unicode="&#xe8;" horiz-adv-x="1198" 
d="M1026 119v219h-164v-92h-418v393h324v109h-324v370h418v-74h164v203h-842v-129h97v-872h-97v-127h842zM1149 0h-1088v365h95v634h-95v367h1088v-438h-410v71h-172v-135h322v-346h-322v-153h172v92h410v-457zM596 1550l-31 179h-94l70 -179h55zM703 1456h-221l-148 367
h305z" />
    <glyph glyph-name="eacute" unicode="&#xe9;" horiz-adv-x="1198" 
d="M1026 119v219h-164v-92h-418v393h324v109h-324v370h418v-74h164v203h-842v-129h97v-872h-97v-127h842zM1149 0h-1088v365h95v634h-95v367h1088v-438h-410v71h-172v-135h322v-346h-322v-153h172v92h410v-457zM716 1729h-92l-32 -179h55zM854 1823l-148 -367h-221l64 367
h305z" />
    <glyph glyph-name="ecircumflex" unicode="&#xea;" horiz-adv-x="1198" 
d="M1026 119v219h-164v-92h-418v393h324v109h-324v370h418v-74h164v203h-842v-129h97v-872h-97v-127h842zM1149 0h-1088v365h95v634h-95v367h1088v-438h-410v71h-172v-135h322v-346h-322v-153h172v92h410v-457zM756 1542l-123 197h-69l-123 -197h59l98 96l89 -96h69z
M914 1460h-252l-64 64l-65 -64h-250l227 367h177z" />
    <glyph glyph-name="edieresis" unicode="&#xeb;" horiz-adv-x="1198" 
d="M1026 119v219h-164v-92h-418v393h324v109h-324v370h418v-74h164v203h-842v-129h97v-872h-97v-127h842zM1149 0h-1088v365h95v634h-95v367h1088v-438h-410v71h-172v-135h322v-346h-322v-153h172v92h410v-457zM471 1597v80h-82v-80h82zM811 1597v80h-82v-80h82zM555 1569
l-55 -56h-138l-55 56v139l55 53h138l55 -53v-139zM891 1569l-54 -56h-137l-51 56v139l51 53h137l54 -53v-139z" />
    <glyph glyph-name="igrave" unicode="&#xec;" horiz-adv-x="723" 
d="M539 119v127h-95v872h95v129h-355v-129h97v-872h-97v-127h355zM662 0h-601v365h97v634h-97v367h601v-367h-95v-634h95v-365zM364 1550l-31 179h-94l70 -179h55zM471 1456h-221l-148 367h305z" />
    <glyph glyph-name="iacute" unicode="&#xed;" horiz-adv-x="723" 
d="M539 119v127h-95v872h95v129h-355v-129h97v-872h-97v-127h355zM662 0h-601v365h97v634h-97v367h601v-367h-95v-634h95v-365zM471 1729h-92l-32 -179h55zM609 1823l-148 -367h-221l64 367h305z" />
    <glyph glyph-name="icircumflex" unicode="&#xee;" horiz-adv-x="723" 
d="M539 119v127h-95v872h95v129h-355v-129h97v-872h-97v-127h355zM662 0h-601v365h97v634h-97v367h601v-367h-95v-634h95v-365zM535 1542l-123 197h-69l-123 -197h59l98 96l89 -96h69zM693 1460h-252l-64 64l-65 -64h-250l227 367h177z" />
    <glyph glyph-name="idieresis" unicode="&#xef;" horiz-adv-x="723" 
d="M539 119v127h-95v872h95v129h-355v-129h97v-872h-97v-127h355zM662 0h-601v365h97v634h-97v367h601v-367h-95v-634h95v-365zM235 1597v80h-82v-80h82zM575 1597v80h-82v-80h82zM319 1569l-55 -56h-138l-55 56v139l55 53h138l55 -53v-139zM655 1569l-54 -56h-137l-51 56
v139l51 53h137l54 -53v-139z" />
    <glyph glyph-name="ntilde" unicode="&#xf1;" horiz-adv-x="1366" 
d="M1204 1118v129h-303v-129h84v-768l-504 897h-297v-129h97v-870h-97v-129h314v129h-95v833l541 -962h168v999h92zM1325 999h-92v-999h-359l-376 684v-334h114v-350h-551v365h97v634h-97v367h496l328 -614v270h-97v344h537v-367zM891 1751h-66v-68h-299l-43 -38v-99h70v68
h301l37 31v106zM622 1518v-56h-231v221l92 93h275v53h215v-215l-82 -96h-269z" />
    <glyph glyph-name="ograve" unicode="&#xf2;" horiz-adv-x="1116" 
d="M645 365v634h-174v-634h174zM768 322l-70 -76h-272l-78 76v722l78 74h272l70 -74v-722zM932 293v782l-168 172h-399l-181 -172v-782l166 -174h414zM1055 246l-242 -246h-514l-238 246v884l238 236h514l242 -248v-872zM569 1550l-31 179h-94l70 -179h55zM676 1456h-221
l-148 367h305z" />
    <glyph glyph-name="oacute" unicode="&#xf3;" horiz-adv-x="1116" 
d="M645 365v634h-174v-634h174zM768 322l-70 -76h-272l-78 76v722l78 74h272l70 -74v-722zM932 293v782l-168 172h-399l-181 -172v-782l166 -174h414zM1055 246l-242 -246h-514l-238 246v884l238 236h514l242 -248v-872zM675 1729h-92l-32 -179h55zM813 1823l-148 -367h-221
l64 367h305z" />
    <glyph glyph-name="ocircumflex" unicode="&#xf4;" horiz-adv-x="1116" 
d="M645 365v634h-174v-634h174zM768 322l-70 -76h-272l-78 76v722l78 74h272l70 -74v-722zM932 293v782l-168 172h-399l-181 -172v-782l166 -174h414zM1055 246l-242 -246h-514l-238 246v884l238 236h514l242 -248v-872zM715 1542l-123 197h-69l-123 -197h59l98 96l89 -96
h69zM873 1460h-252l-64 64l-65 -64h-250l227 367h177z" />
    <glyph glyph-name="otilde" unicode="&#xf5;" horiz-adv-x="1116" 
d="M645 365v634h-174v-634h174zM768 322l-70 -76h-272l-78 76v722l78 74h272l70 -74v-722zM932 293v782l-168 172h-399l-181 -172v-782l166 -174h414zM1055 246l-242 -246h-514l-238 246v884l238 236h514l242 -248v-872zM766 1751h-66v-68h-299l-43 -38v-99h70v68h301l37 31
v106zM497 1518v-56h-231v221l92 93h275v53h215v-215l-82 -96h-269z" />
    <glyph glyph-name="odieresis" unicode="&#xf6;" horiz-adv-x="1116" 
d="M645 365v634h-174v-634h174zM768 322l-70 -76h-272l-78 76v722l78 74h272l70 -74v-722zM932 293v782l-168 172h-399l-181 -172v-782l166 -174h414zM1055 246l-242 -246h-514l-238 246v884l238 236h514l242 -248v-872zM430 1597v80h-82v-80h82zM770 1597v80h-82v-80h82z
M514 1569l-55 -56h-138l-55 56v139l55 53h138l55 -53v-139zM850 1569l-54 -56h-137l-51 56v139l51 53h137l54 -53v-139z" />
    <glyph glyph-name="oslash" unicode="&#xf8;" horiz-adv-x="1145" 
d="M657 362v642h-165v-642h165zM780 311l-65 -65h-273l-71 69v719l82 78h254l73 -65v-736zM995 1225l-63 63l-96 -86l-56 49h-409l-160 -172v-790l51 -58l-92 -96l68 -67l90 88l43 -39h409l166 159v809l-47 48zM1118 1245l-84 -84l37 -43v-872l-231 -246h-504l-29 25
l-98 -95l-174 174l96 97l-43 49v862l234 254h518l20 -23l90 80z" />
    <glyph glyph-name="ugrave" unicode="&#xf9;" horiz-adv-x="1266" 
d="M1102 1118v129h-338v-129h63v-801l-75 -71h-269l-71 71v801h57v129h-317v-129h96v-831l166 -168h413l166 168v831h109zM1225 999h-107v-753l-241 -246h-504l-236 246v753h-96v367h549v-344h-55v-657h163v657h-53v344h580v-367zM624 1550l-31 179h-94l70 -179h55z
M731 1456h-221l-148 367h305z" />
    <glyph glyph-name="uacute" unicode="&#xfa;" horiz-adv-x="1266" 
d="M1102 1118v129h-338v-129h63v-801l-75 -71h-269l-71 71v801h57v129h-317v-129h96v-831l166 -168h413l166 168v831h109zM1225 999h-107v-753l-241 -246h-504l-236 246v753h-96v367h549v-344h-55v-657h163v657h-53v344h580v-367zM729 1729h-92l-32 -179h55zM867 1823
l-148 -367h-221l64 367h305z" />
    <glyph glyph-name="ucircumflex" unicode="&#xfb;" horiz-adv-x="1266" 
d="M1102 1118v129h-338v-129h63v-801l-75 -71h-269l-71 71v801h57v129h-317v-129h96v-831l166 -168h413l166 168v831h109zM1225 999h-107v-753l-241 -246h-504l-236 246v753h-96v367h549v-344h-55v-657h163v657h-53v344h580v-367zM790 1542l-123 197h-69l-123 -197h59l98 96
l89 -96h69zM948 1460h-252l-64 64l-65 -64h-250l227 367h177z" />
    <glyph glyph-name="udieresis" unicode="&#xfc;" horiz-adv-x="1266" 
d="M1102 1118v129h-338v-129h63v-801l-75 -71h-269l-71 71v801h57v129h-317v-129h96v-831l166 -168h413l166 168v831h109zM1225 999h-107v-753l-241 -246h-504l-236 246v753h-96v367h549v-344h-55v-657h163v657h-53v344h580v-367zM506 1597v80h-82v-80h82zM846 1597v80h-82
v-80h82zM590 1569l-55 -56h-138l-55 56v139l55 53h138l55 -53v-139zM926 1569l-54 -56h-137l-51 56v139l51 53h137l54 -53v-139z" />
    <glyph glyph-name="ydieresis" unicode="&#xff;" horiz-adv-x="1235" 
d="M1079 1118v129h-299v-129h70l-232 -432l-233 432h70v129h-297v-129h71l308 -569v-303h-93v-127h351v127h-97v303l308 569h73zM1202 999h-121l-260 -483v-151h94v-365h-593v365h94v151l-260 483h-121v367h543v-338h-41l84 -156l77 156h-34v338h538v-367zM492 1597v80h-82
v-80h82zM832 1597v80h-82v-80h82zM576 1569l-55 -56h-138l-55 56v139l55 53h138l55 -53v-139zM912 1569l-54 -56h-137l-51 56v139l51 53h137l54 -53v-139z" />
    <glyph glyph-name="dotlessi" unicode="&#x131;" horiz-adv-x="723" 
d="M539 119v127h-95v872h95v129h-355v-129h97v-872h-97v-127h355zM662 0h-601v365h97v634h-97v367h601v-367h-95v-634h95v-365z" />
    <glyph glyph-name="OE" unicode="&#x152;" horiz-adv-x="1653" 
d="M645 365v634h-174v-634h174zM768 246h-340l-80 76v722l80 74h340v-872zM1483 119v219h-135v-92h-410v389h326v113h-326v370h410v-74h135v203h-1127l-172 -168v-788l172 -172h1127zM1604 0h-1303l-240 246v872l240 248h1303v-438h-381v71h-164v-137h327v-344h-327v-153
h164v90h381v-455z" />
    <glyph glyph-name="oe" unicode="&#x153;" horiz-adv-x="1653" 
d="M645 365v634h-174v-634h174zM768 246h-340l-80 76v722l80 74h340v-872zM1483 119v219h-135v-92h-410v389h326v113h-326v370h410v-74h135v203h-1127l-172 -168v-788l172 -172h1127zM1604 0h-1303l-240 246v872l240 248h1303v-438h-381v71h-164v-137h327v-344h-327v-153
h164v90h381v-455z" />
    <glyph glyph-name="Ydieresis" unicode="&#x178;" horiz-adv-x="1235" 
d="M1079 1118v129h-299v-129h70l-232 -432l-233 432h70v129h-297v-129h71l308 -569v-303h-93v-127h351v127h-97v303l308 569h73zM1202 999h-121l-260 -483v-151h94v-365h-593v365h94v151l-260 483h-121v367h543v-338h-41l84 -156l77 156h-34v338h538v-367zM492 1597v80h-82
v-80h82zM832 1597v80h-82v-80h82zM576 1569l-55 -56h-138l-55 56v139l55 53h138l55 -53v-139zM912 1569l-54 -56h-137l-51 56v139l51 53h137l54 -53v-139z" />
    <glyph glyph-name="florin" unicode="&#x192;" horiz-adv-x="1327" 
d="M1180 1118v160l-99 88h-327l-105 -88l-82 -479h-207v-109h191l-139 -827l-52 -33h-180l-39 33v104h-151v-164l100 -94h344l103 94l149 887h221v109h-205l72 422l49 26h172l35 -26v-103h150zM1292 999h-364v138h-64l-41 -238h197v-311h-244l-139 -834l-180 -164h-402
l-178 164v328h373v-133h67l107 639h-174v311h227l72 430l184 166h387l172 -166v-330z" />
    <glyph glyph-name="circumflex" unicode="&#x2c6;" horiz-adv-x="807" 
d="M561 1542l-123 197h-69l-123 -197h59l98 96l89 -96h69zM719 1460h-252l-64 64l-65 -64h-250l227 367h177z" />
    <glyph glyph-name="ring" unicode="&#x2da;" horiz-adv-x="610" 
d="M362 1618v65h-67v-65h67zM416 1602l-39 -39h-103l-32 39v98l32 35h103l39 -35v-98zM487 1563v172l-71 73h-174l-72 -73v-172l72 -70h174zM565 1530l-119 -117h-241l-117 117v239l117 119h241l119 -119v-239z" />
    <glyph glyph-name="tilde" unicode="&#x2dc;" horiz-adv-x="760" 
d="M588 1751h-66v-68h-299l-43 -38v-99h70v68h301l37 31v106zM319 1518v-56h-231v221l92 93h275v53h215v-215l-82 -96h-269z" />
    <glyph glyph-name="endash" unicode="&#x2013;" horiz-adv-x="1104" 
d="M932 612v138h-760v-138h760zM1040 504h-977v352h977v-352z" />
    <glyph glyph-name="emdash" unicode="&#x2014;" horiz-adv-x="2177" 
d="M2003 612v138h-1831v-138h1831zM2111 504h-2048v352h2048v-352z" />
    <glyph glyph-name="quoteleft" unicode="&#x2018;" horiz-adv-x="442" 
d="M279 983v293h-56l-78 -293h134zM387 893h-373l127 473h246v-473z" />
    <glyph glyph-name="quoteright" unicode="&#x2019;" horiz-adv-x="442" 
d="M164 1276v-293h55l78 293h-133zM55 893v473h373l-127 -473h-246z" />
    <glyph glyph-name="quotedblleft" unicode="&#x201c;" horiz-adv-x="825" 
d="M281 985v293h-62l-80 -293h142zM674 985v293h-58l-81 -293h139zM375 897h-361l131 469h230v-469zM770 897h-360l131 469h229v-469z" />
    <glyph glyph-name="quotedblright" unicode="&#x201d;" horiz-adv-x="825" 
d="M164 1278v-293h47l80 293h-127zM559 1278v-293h47l80 293h-127zM55 897v469h361l-129 -469h-232zM451 897v469h360l-131 -469h-229z" />
    <glyph glyph-name="quotedblbase" unicode="&#x201e;" horiz-adv-x="825" 
d="M164 276v-292h47l80 292h-127zM559 276v-292h47l80 292h-127zM55 -104v469h361l-129 -469h-232zM451 -104v469h360l-131 -469h-229z" />
    <glyph glyph-name="bullet" unicode="&#x2022;" horiz-adv-x="874" 
d="M696 440v486h-518v-486h518zM819 332h-764v702h764v-702z" />
    <glyph glyph-name="ellipsis" unicode="&#x2026;" horiz-adv-x="2048" 
d="M422 98v164h-162v-164h162zM1106 98v164h-164v-164h164zM1788 98v164h-164v-164h164zM539 0h-396v365h396v-365zM1223 0h-398v365h398v-365zM1905 0h-398v365h398v-365z" />
    <glyph glyph-name="perthousand" unicode="&#x2030;" horiz-adv-x="2222" 
d="M362 938v180h-59v-180h59zM1245 246v188h-61v-188h61zM1919 246v188h-61v-188h61zM449 907l-52 -51h-127l-53 51v248l53 53h127l52 -53v-248zM1331 217l-53 -57h-123l-55 57v240l55 57h123l53 -57v-240zM2005 217l-53 -57h-121l-57 57v240l57 57h121l53 -57v-240z
M522 891v285l-88 90h-201l-90 -90v-285l90 -90h201zM1278 1278h-94l-914 -1182h92zM1405 199v274l-94 96h-197l-88 -84v-286l88 -103h197zM2079 199v274l-92 96h-197l-90 -84v-286l90 -103h197zM623 856l-156 -162h-266l-160 162v352l160 158h266l156 -158v-352zM1464 1366
l-1036 -1366h-348l1042 1366h342zM1507 160l-164 -160h-262l-157 160v354l157 160h262l164 -160v-354zM2181 160l-164 -160h-260l-160 160v354l160 160h260l164 -160v-354z" />
    <glyph glyph-name="guilsinglleft" unicode="&#x2039;" horiz-adv-x="526" 
d="M352 420l-82 274l82 254h-88l-114 -254l114 -274h88zM485 326h-288l-156 368l156 350h288l-108 -350z" />
    <glyph glyph-name="guilsinglright" unicode="&#x203a;" horiz-adv-x="526" 
d="M377 694l-113 254h-90l82 -254l-82 -274h90zM485 694l-155 -368h-289l109 368l-109 350h289z" />
    <glyph glyph-name="fraction" unicode="&#x2044;" horiz-adv-x="465" 
d="M737 1278h-94l-913 -1182h94zM924 1366l-1037 -1366h-348l1043 1366h342z" />
    <glyph glyph-name="NULL" horiz-adv-x="0" 
 />
    <glyph glyph-name="a6" 
d="M737 14v1338h-655v-1338h655zM752 0h-684v1366h684v-1366z" />
    <glyph glyph-name="a14" 
d="M737 14v1338h-655v-1338h655zM752 0h-684v1366h684v-1366z" />
    <glyph glyph-name="a31" 
d="M737 14v1338h-655v-1338h655zM752 0h-684v1366h684v-1366z" />
    <glyph glyph-name="a32" 
d="M737 14v1338h-655v-1338h655zM752 0h-684v1366h684v-1366z" />
    <glyph glyph-name="a33" 
d="M737 14v1338h-655v-1338h655zM752 0h-684v1366h684v-1366z" />
    <glyph glyph-name="a35" 
d="M737 14v1338h-655v-1338h655zM752 0h-684v1366h684v-1366z" />
    <glyph glyph-name="a65" 
d="M737 14v1338h-655v-1338h655zM752 0h-684v1366h684v-1366z" />
    <glyph glyph-name="a94" 
d="M737 14v1338h-655v-1338h655zM752 0h-684v1366h684v-1366z" />
    <glyph glyph-name="a95" 
d="M737 14v1338h-655v-1338h655zM752 0h-684v1366h684v-1366z" />
    <glyph glyph-name="a96" 
d="M737 14v1338h-655v-1338h655zM752 0h-684v1366h684v-1366z" />
    <glyph glyph-name="a97" 
d="M737 14v1338h-655v-1338h655zM752 0h-684v1366h684v-1366z" />
    <glyph glyph-name="a130" 
d="M737 14v1338h-655v-1338h655zM752 0h-684v1366h684v-1366z" />
    <glyph glyph-name="a131" 
d="M737 14v1338h-655v-1338h655zM752 0h-684v1366h684v-1366z" />
    <glyph glyph-name="a134" 
d="M737 14v1338h-655v-1338h655zM752 0h-684v1366h684v-1366z" />
    <glyph glyph-name="a136" 
d="M737 14v1338h-655v-1338h655zM752 0h-684v1366h684v-1366z" />
    <glyph glyph-name="a137" 
d="M737 14v1338h-655v-1338h655zM752 0h-684v1366h684v-1366z" />
    <glyph glyph-name="a138" 
d="M737 14v1338h-655v-1338h655zM752 0h-684v1366h684v-1366z" />
    <glyph glyph-name="a139" 
d="M737 14v1338h-655v-1338h655zM752 0h-684v1366h684v-1366z" />
    <glyph glyph-name="a140" 
d="M737 14v1338h-655v-1338h655zM752 0h-684v1366h684v-1366z" />
    <glyph glyph-name="a143" 
d="M737 14v1338h-655v-1338h655zM752 0h-684v1366h684v-1366z" />
    <glyph glyph-name="a146" 
d="M737 14v1338h-655v-1338h655zM752 0h-684v1366h684v-1366z" />
    <glyph glyph-name="a147" 
d="M737 14v1338h-655v-1338h655zM752 0h-684v1366h684v-1366z" />
    <glyph glyph-name="a148" 
d="M737 14v1338h-655v-1338h655zM752 0h-684v1366h684v-1366z" />
    <glyph glyph-name="a149" 
d="M737 14v1338h-655v-1338h655zM752 0h-684v1366h684v-1366z" />
    <glyph glyph-name="a151" 
d="M737 14v1338h-655v-1338h655zM752 0h-684v1366h684v-1366z" />
    <glyph glyph-name="a152" 
d="M737 14v1338h-655v-1338h655zM752 0h-684v1366h684v-1366z" />
    <glyph glyph-name="a153" 
d="M737 14v1338h-655v-1338h655zM752 0h-684v1366h684v-1366z" />
    <glyph glyph-name="a154" 
d="M737 14v1338h-655v-1338h655zM752 0h-684v1366h684v-1366z" />
    <glyph glyph-name="a155" 
d="M737 14v1338h-655v-1338h655zM752 0h-684v1366h684v-1366z" />
    <glyph glyph-name="a156" 
d="M737 14v1338h-655v-1338h655zM752 0h-684v1366h684v-1366z" />
    <glyph glyph-name="a157" 
d="M737 14v1338h-655v-1338h655zM752 0h-684v1366h684v-1366z" />
    <glyph glyph-name="a158" 
d="M737 14v1338h-655v-1338h655zM752 0h-684v1366h684v-1366z" />
    <glyph glyph-name="a159" 
d="M737 14v1338h-655v-1338h655zM752 0h-684v1366h684v-1366z" />
    <glyph glyph-name="a164" 
d="M737 14v1338h-655v-1338h655zM752 0h-684v1366h684v-1366z" />
    <glyph glyph-name="a165" 
d="M737 14v1338h-655v-1338h655zM752 0h-684v1366h684v-1366z" />
    <glyph glyph-name="a167" 
d="M737 14v1338h-655v-1338h655zM752 0h-684v1366h684v-1366z" />
    <glyph glyph-name="a168" 
d="M737 14v1338h-655v-1338h655zM752 0h-684v1366h684v-1366z" />
    <glyph glyph-name="a184" 
d="M737 14v1338h-655v-1338h655zM752 0h-684v1366h684v-1366z" />
    <glyph glyph-name="a185" 
d="M737 14v1338h-655v-1338h655zM752 0h-684v1366h684v-1366z" />
    <glyph glyph-name="a189" 
d="M737 14v1338h-655v-1338h655zM752 0h-684v1366h684v-1366z" />
    <glyph glyph-name="a192" 
d="M737 14v1338h-655v-1338h655zM752 0h-684v1366h684v-1366z" />
    <glyph glyph-name="a193" 
d="M737 14v1338h-655v-1338h655zM752 0h-684v1366h684v-1366z" />
    <glyph glyph-name="a194" 
d="M737 14v1338h-655v-1338h655zM752 0h-684v1366h684v-1366z" />
    <glyph glyph-name="a196" 
d="M737 14v1338h-655v-1338h655zM752 0h-684v1366h684v-1366z" />
    <glyph glyph-name="a210" 
d="M737 14v1338h-655v-1338h655zM752 0h-684v1366h684v-1366z" />
    <glyph glyph-name="a218" 
d="M737 14v1338h-655v-1338h655zM752 0h-684v1366h684v-1366z" />
    <glyph glyph-name="a219" 
d="M737 14v1338h-655v-1338h655zM752 0h-684v1366h684v-1366z" />
    <glyph glyph-name="a220" 
d="M737 14v1338h-655v-1338h655zM752 0h-684v1366h684v-1366z" />
    <glyph glyph-name="a222" 
d="M737 14v1338h-655v-1338h655zM752 0h-684v1366h684v-1366z" />
    <glyph glyph-name="a223" 
d="M737 14v1338h-655v-1338h655zM752 0h-684v1366h684v-1366z" />
    <glyph glyph-name="a224" 
d="M737 14v1338h-655v-1338h655zM752 0h-684v1366h684v-1366z" />
    <glyph glyph-name="a225" 
d="M737 14v1338h-655v-1338h655zM752 0h-684v1366h684v-1366z" />
    <glyph glyph-name="a226" horiz-adv-x="1024" 
 />
  </font>
</defs>
</svg>
