<?xml version="1.0" standalone="no"?>
<!DOCTYPE svg PUBLIC "-//W3C//DTD SVG 1.1//EN" "http://www.w3.org/Graphics/SVG/1.1/DTD/svg11.dtd" >
<svg xmlns="http://www.w3.org/2000/svg">
<metadata>
Created by FontPrep 20130207 at Tue Dec  9 01:50:29 2014
 By Alexander Gunnarson
(c) 1993-2014 Apple Inc.
</metadata>
<defs>
<font id="34ed10621d949505e63f263b97fd670c" horiz-adv-x='1024' >
  <font-face 
    font-family="Skia-Regular"
    font-weight="5"
    font-stretch="normal"
    units-per-em="2048"
    panose-1="2 13 5 2 2 2 4 2 2 4"
    ascent="1624"
    descent="-424"
    x-height="1011"
    cap-height="1339"
    bbox="-7491 -7853 2788 1891"
    underline-thickness="0"
    underline-position="0"
    unicode-range="U+0008-FB04"
  />
<missing-glyph horiz-adv-x="1488" 
d="M161 0v1469h915l31 -184h-762v-1101h798v893l184 -1077h-1166zM1143 1285v-208l-36 208h36z" />
    <glyph glyph-name=".notdef" horiz-adv-x="1488" 
d="M161 0v1469h915l31 -184h-762v-1101h798v893l184 -1077h-1166zM1143 1285v-208l-36 208h36z" />
    <glyph glyph-name=".null" 
 />
    <glyph glyph-name="nonmarkingreturn" unicode="&#x9;" horiz-adv-x="512" 
 />
    <glyph glyph-name="nonmarkingreturn" unicode="&#xd;" horiz-adv-x="512" 
 />
    <glyph glyph-name="nonmarkingreturn" unicode="&#xa;" horiz-adv-x="512" 
 />
    <glyph glyph-name="NULL" 
 />
    <glyph glyph-name="NULL" 
 />
    <glyph glyph-name="NULL" 
 />
    <glyph glyph-name="space" unicode=" " horiz-adv-x="512" 
 />
    <glyph glyph-name="exclam" unicode="!" horiz-adv-x="824" 
d="M544 0h-251v224h251v-224zM544 1339q-9 -699 -33 -884h-184q-22 159 -35 884h252z" />
    <glyph glyph-name="quotedbl" unicode="&#x22;" horiz-adv-x="698" 
d="M277 1422l-12 -512h-158l-22 512h192zM614 1422l-25 -512h-157l-11 512h193z" />
    <glyph glyph-name="numbersign.oldstyle" unicode="#" horiz-adv-x="1333" 
d="M832 639h-258q-15 -54 -35.5 -127.5t-33.5 -120.5h259q16 58 34.5 123.5t33.5 124.5zM1186 755v-133h-242q-15 -53 -30 -110t-28 -104h202v-133h-238l-86 -314l-127 40q14 42 77 277h-225q-52 -178 -87 -317l-127 40q4 15 28 101t48 173h-200v133h242q35 125 58 214h-200
v133h236q30 105 37 129l47 174l127 -37q-3 -12 -25.5 -91.5t-49.5 -177.5h226q11 38 84 306l127 -37q-3 -11 -27 -95.5t-47 -170.5h200z" />
    <glyph glyph-name="dollar.oldstyle" unicode="$" horiz-adv-x="892" 
d="M768 863q-42 2 -146 2t-168 -30q-85 -34 -85 -100t89 -116q47 -25 103 -51t113 -60q126 -76 126 -220q0 -143 -157 -227q-119 -64 -336 -68h-62l2 -352h-159l2 244l-1 269q69 -3 151 -3q311 0 311 142q0 66 -89 116q-34 19 -94 47t-116 62q-128 78 -129 217
q0 139 154 224q115 63 165 63h170l-2 338l159 -1l-2 -237z" />
    <glyph glyph-name="percent.oldstyle" unicode="%" horiz-adv-x="1997" 
d="M1720 360q0 184 -87 219t-133 35q-88 0 -153 -60q-66 -60 -66 -188t66 -191t155 -63t153 63q65 62 65 185zM330 743q55 -55 146 -55t138 46q81 78 81 205t-67 189t-154 62q-86 0 -152 -61t-66 -188q0 -128 74 -198zM1792 72q-115 -103 -293 -103q-177 0 -293 107
q-117 107 -117 284q0 176 113 287q114 110 296 110t298 -108t116 -287q0 -178 -120 -290zM1494 1269q-106 -161 -227 -334t-255 -374t-264 -412.5t-159 -254.5l-141 91q75 98 453 676q219 324 453 697zM177 1223q115 109 297 109t297 -108q116 -108 116 -288t-118 -285
q-118 -106 -296 -106t-293 107q-116 107 -116 283q0 175 113 288z" />
    <glyph glyph-name="ampersand" unicode="&#x26;" horiz-adv-x="1511" 
d="M335 366q0 -111 71.5 -173.5t178.5 -62.5q178 0 321 176v2q-206 155 -433 341h-1q-137 -128 -137 -283zM846 1007q0 98 -58 155t-154 57t-158.5 -53.5t-62.5 -140.5t67 -157.5t194 -167.5h2q170 145 170 307zM104 351q0 227 232 398v3q-135 113 -135 273q0 159 122.5 254
t306.5 95t300 -92.5t115 -247.5q0 -110 -70 -221t-183 -202l-1 -2q42 -38 127.5 -103.5t99.5 -76.5h2q88 119 183.5 266.5t105.5 171.5l166 -108q-14 -27 -121.5 -182.5t-172.5 -238.5v-2l302 -234l-127 -142l-311 239h-2q-219 -232 -480 -232q-217 0 -338 107.5t-121 276.5
z" />
    <glyph glyph-name="quotesingle" unicode="'" horiz-adv-x="382" 
d="M298 1422l-25 -512h-166l-23 512h214z" />
    <glyph glyph-name="parenleft" unicode="(" horiz-adv-x="859" 
d="M295 -103q-193 239 -193 540t174 552q90 130 219.5 231.5t265.5 165.5l89 -160q-248 -118 -389 -329q-140 -210 -140 -454t156 -436q67 -89 168 -161.5t207 -111.5l-88 -163q-131 43 -254.5 127t-214.5 199z" />
    <glyph glyph-name="parenright" unicode=")" horiz-adv-x="859" 
d="M563 1062q195 -240 195 -544t-173 -548q-91 -131 -221 -234.5t-266 -165.5l-89 160q251 118 394 338q135 204 135 448t-157 436q-67 87 -165.5 158t-207.5 112l88 163q132 -44 254.5 -127.5t212.5 -195.5z" />
    <glyph glyph-name="asterisk" unicode="*" horiz-adv-x="722" 
d="M451 741h-180l24 243h132zM288 998l-239 -22v172l239 -22v-128zM673 976l-240 22v128l240 23v-173zM450 1376l-23 -240h-132l-23 240h178z" />
    <glyph glyph-name="plus.oldstyle" unicode="+" horiz-adv-x="1333" 
d="M1152 435h-412v-411h-149v411h-411v149h411v409h149v-409h412v-149z" />
    <glyph glyph-name="comma.oldstyle" unicode="," horiz-adv-x="510" 
d="M12 -232q68 127 234 546l192 -87v-10l-267 -517z" />
    <glyph glyph-name="hyphen.oldstyle" unicode="-" horiz-adv-x="722" 
d="M658 489h-595v191h595v-191z" />
    <glyph glyph-name="period.oldstyle" unicode="." horiz-adv-x="513" 
d="M388 0h-264v273h264v-273z" />
    <glyph glyph-name="slash" unicode="/" horiz-adv-x="657" 
d="M724 1333q-60 -152 -145 -383.5t-181 -489.5t-195 -546t-119 -343l-159 54q70 176 334 915q90 243 168.5 467.5t134.5 378.5z" />
    <glyph glyph-name="zero.oldstyleproportional" unicode="0" horiz-adv-x="1238" 
d="M832 217q108 102 108 289t-106 287q-85 81 -213 81t-217 -82q-50 -46 -77 -123t-27 -163q0 -185 108 -289q84 -80 213 -80t211 80zM241 107q-163 153 -163 393t148 390q148 151 390 151t393 -147q152 -147 152 -391q0 -245 -156 -388t-385 -143q-230 0 -379 135z" />
    <glyph glyph-name="one.oldstyleproportional" unicode="1" horiz-adv-x="794" 
d="M389 0q3 126 3 410t-2 397l-3 2q-68 -37 -290 -171l-80 130q224 143 444 274l149 -99q-3 -414 -3 -460l3 -483h-221z" />
    <glyph glyph-name="two.oldstyleproportional" unicode="2" horiz-adv-x="1032" 
d="M49 141q565 255 565 479q0 238 -370 238q-40 0 -76 -1.5t-64 -2.5l24 172q100 4 175 4q190 0 314 -54q229 -100 229 -298q0 -170 -139 -298q-105 -99 -329 -216l2 -7q179 11 648 11v-166l-469 1q-120 0 -263 -1t-186 0z" />
    <glyph glyph-name="three.oldstyleproportional" unicode="3" horiz-adv-x="940" 
d="M571 662q0 197 -351 197h-50q-49 0 -71 -1l34 173h123q206 0 338 -59q201 -86 201 -282q0 -98 -57.5 -172.5t-151.5 -110.5v-4q123 -25 201.5 -99t78.5 -187q0 -228 -240 -339q-170 -82 -464 -82q-67 0 -121 3l-28 170l146 -1q483 5 483 239q0 190 -348 190l-91 -2
l-25 142q181 13 287 68.5t106 156.5z" />
    <glyph glyph-name="four.oldstyleproportional" unicode="4" horiz-adv-x="1234" 
d="M624 281q19 0 58 1l1 507l-2 1l-451 -506l1 -2l211 -1h182zM670 -313q0 145 2 443l-572 -4l-80 152q241 257 447.5 486t255.5 278l168 -90q-2 -161 -2 -218v-442q92 0 340 2v-167q-202 2 -340 2l2 -442h-221z" />
    <glyph glyph-name="five.oldstyleproportional" unicode="5" horiz-adv-x="949" 
d="M881 119q0 -104 -61.5 -194.5t-160.5 -137.5q-183 -87 -441 -89h-106l-28 173h63q509 0 509 248q0 127 -162 190q-95 35 -286 41l-66 1l2 319l-2 335l374 -1l388 1v-168l-558 1v-337q206 -12 318 -65q217 -101 217 -317z" />
    <glyph glyph-name="six.oldstyleproportional" unicode="6" horiz-adv-x="1174" 
d="M311 444q0 -141 81 -228q81 -81 202 -81t199 84q79 84 79 217q0 187 -178 277q-99 55 -246 69q-137 -155 -137 -338zM1095 444q0 -210 -145 -342q-145 -133 -365 -133q-221 0 -359 127q-139 127 -139 328q0 107 39 211t140 232t239.5 279.5t236.5 243.5l187 -117
q-87 -88 -195 -196t-170 -178v-3q74 -7 164 -35t151 -67q106 -62 161 -153t55 -197z" />
    <glyph glyph-name="seven.oldstyleproportional" unicode="7" horiz-adv-x="1002" 
d="M731 833l-710 -3v176l424 -2q361 0 453 2l95 -133q-366 -654 -646 -1191l-189 89q129 232 574 1060z" />
    <glyph glyph-name="eight.oldstyleproportional" unicode="8" horiz-adv-x="1168" 
d="M482 631q-173 -112 -173 -279q0 -90 75.5 -157.5t197.5 -67.5t198 61t76 176t-139 183q-77 39 -235 84zM828 958q0 105 -64 162.5t-174 57.5t-174 -54.5t-64 -159.5t126 -163q68 -34 210 -73q140 94 140 230zM1078 355q0 -173 -139 -279.5t-359 -106.5t-354.5 103
t-134.5 271q0 193 227 346v3q-185 103 -185 291q0 154 128 252.5t330 98.5t327.5 -91t125.5 -248q0 -196 -194 -325v-2q228 -105 228 -313z" />
    <glyph glyph-name="nine.oldstyleproportional" unicode="9" horiz-adv-x="1175" 
d="M786 792q-80 84 -204 84t-203 -88q-78 -82 -78 -234q0 -76 47 -147.5t113 -105.5q124 -64 262 -76q143 156 143 320q0 163 -80 247zM920 157q-88 -113 -268 -299.5t-215 -227.5l-189 117q72 82 190.5 195.5t166.5 167.5v3q-79 7 -177 39t-175 86q-175 124 -175 340
q0 187 141 322q144 142 370 142q227 0 363 -128t136 -335q0 -206 -168 -422z" />
    <glyph glyph-name="colon" unicode=":" horiz-adv-x="609" 
d="M436 0h-264v246h264v-246zM172 770v246h264l1 -246h-265z" />
    <glyph glyph-name="semicolon" unicode=";" horiz-adv-x="609" 
d="M42 -227q95 194 233 534l190 -87v-10l-267 -505zM441 770h-264v246h264v-246z" />
    <glyph glyph-name="less.oldstyle" unicode="&#x3c;" horiz-adv-x="1333" 
d="M1111 183l-67 -140l-824 399v136l824 399l68 -138l-693 -326v-5z" />
    <glyph glyph-name="equal.oldstyle" unicode="=" horiz-adv-x="1333" 
d="M1118 257h-903v145h903v-145zM1118 619h-903v145h903v-145z" />
    <glyph glyph-name="greater.oldstyle" unicode="&#x3e;" horiz-adv-x="1333" 
d="M1116 442l-825 -399l-66 140l692 325v5l-693 326l68 138l824 -399v-136z" />
    <glyph glyph-name="question" unicode="?" horiz-adv-x="1126" 
d="M581 0h-252v223h252v-223zM986 986q0 -169 -138 -285q-100 -85 -288 -171l1 -156h-224v260q176 67 255 116q79 50 114 98t35 116t-44.5 114t-129.5 67t-330 18l32 185q36 2 136 2q220 0 358 -66q106 -46 164.5 -124t58.5 -174z" />
    <glyph glyph-name="at" unicode="@" horiz-adv-x="1808" 
d="M747 304q0 -53 50 -112.5t231 -59.5q50 0 77 3v353q-154 -5 -254 -49q-104 -42 -104 -135zM548 294q0 266 561 312q-13 113 -99 149q-67 27 -152 27t-207 -6l17 151q91 7 191 7q323 0 376 -148.5t53 -260.5v-396q131 31 207.5 155.5t76.5 294.5q0 269 -183 425.5
t-479 156.5t-479 -189.5t-185 -490.5t217 -504.5t576 -232.5l-17 -116q-392 29 -650.5 257.5t-258.5 615.5q0 339 233.5 559t571.5 220t560.5 -187.5t222.5 -518.5q0 -248 -165.5 -413t-459.5 -165q-233 0 -339 48t-147.5 107t-41.5 143z" />
    <glyph glyph-name="A" unicode="A" horiz-adv-x="1333" 
d="M657 1101l-226 -522l2 -1h454l2 1q-120 287 -227 522h-5zM-17 45q138 307 571 1302h232q149 -354 345 -799t219 -499l-228 -75q-29 78 -186 447h-550q-22 -49 -189 -447z" />
    <glyph glyph-name="B" unicode="B" horiz-adv-x="1291" 
d="M574 165q284 0 340.5 93.5t56.5 149.5q0 165 -111.5 199t-179.5 34l-88 -1l-22 103q200 10 244.5 94.5t44.5 140.5q0 111 -105 167q-82 42 -222 42l-126 -3q-3 -171 -3 -501l2 -514q88 -4 169 -4zM1100 1023q0 -99 -57 -175.5t-155 -116.5v-6q143 -18 226 -98
q101 -89 101 -236q0 -109 -62 -192.5t-165 -126.5q-180 -75 -496 -75q-130 0 -316 6q0 32 3 691q-3 615 -3 644l299 8q264 0 386 -42q239 -82 239 -281z" />
    <glyph glyph-name="C" unicode="C" horiz-adv-x="1155" 
d="M1035 -17q-492 0 -744 230q-203 180 -203 460q0 279 213 460q128 108 315 162.5t394 55.5h50q3 -26 9 -82t14 -117h-93t-188 -26t-224 -79t-175.5 -149t-69.5 -230q0 -255 252 -386q186 -100 464 -102h20q20 0 34 1q-10 -59 -25 -198h-43z" />
    <glyph glyph-name="D" unicode="D" horiz-adv-x="1428" 
d="M410 739q0 -291 2 -557h92q70 0 179 24t189 73q227 137 227 388t-208 382q-171 107 -437 107h-42q-2 -126 -2 -417zM1342 663q0 -167 -80 -300t-210 -213t-274.5 -117.5t-335.5 -37.5l-266 4l3 682q-3 501 -3 658l233 2q409 0 651 -153q282 -183 282 -525z" />
    <glyph glyph-name="E" unicode="E" horiz-adv-x="1191" 
d="M738 179l338 1v-179l-474 1l-426 -1l3 682l-3 654l413 -1l474 1v-179l-366 2l-292 -1l-1 -396l285 -1l369 1v-151l-364 2l-290 -2l1 -432z" />
    <glyph glyph-name="F" unicode="F" horiz-adv-x="1119" 
d="M589 1336l453 1v-183l-349 1l-287 -1l-1 -428l231 -1l393 2v-161l-399 1h-219l2 -567h-237l3 683l-3 654z" />
    <glyph glyph-name="G" unicode="G" horiz-adv-x="1334" 
d="M88 686q0 160 85.5 296.5t245.5 228.5q238 141 619 141l81 -1l24 -197h-125q-226 0 -426 -95q-112 -53 -186.5 -156t-74.5 -241t64 -244t157 -156q176 -95 425 -99q0 238 -3 521h229q-2 -178 -2 -327l2 -359q-33 -10 -227 -9q-434 1 -684 219q-204 175 -204 478z" />
    <glyph glyph-name="H" unicode="H" horiz-adv-x="1538" 
d="M1124 0l2 595l-354 1l-360 -1l2 -595h-237l2 714l-2 625h237l-2 -550l362 -1l352 1l-2 550h237q-3 -624 -3 -654l3 -686z" />
    <glyph glyph-name="I" unicode="I" horiz-adv-x="587" 
d="M407 697l3 -697h-233l2 675l-2 664h233z" />
    <glyph glyph-name="J" unicode="J" horiz-adv-x="791" 
d="M620 492q0 -471 -559 -520l-43 187q168 15 260 90q58 46 84 108.5t26 157.5v370l-2 454h235l-1 -434v-413z" />
    <glyph glyph-name="K" unicode="K" horiz-adv-x="1302" 
d="M1242 1264q-444 -535 -504 -599v-3q123 -123 551 -582l-206 -101q-150 182 -369.5 407.5t-254.5 261.5v3q418 505 578 704zM411 671l3 -672h-238l3 727l-3 613h237q-2 -300 -2 -668z" />
    <glyph glyph-name="L" unicode="L" horiz-adv-x="1072" 
d="M651 194l401 1v-194l-458 1l-418 -1l3 694l-3 644h237l-2 -562l2 -582z" />
    <glyph glyph-name="M" unicode="M" horiz-adv-x="1878" 
d="M1822 26l-230 -41l-194 1021h-5q-40 -104 -155 -369.5t-203 -493.5h-188q-96 240 -212 514t-147 349h-6q-7 -35 -80.5 -383t-126.5 -636l-224 38q91 408 179.5 834.5t96.5 468.5l237 24q9 -31 129.5 -333t252.5 -594h6q100 231 238 568.5t145 359.5l237 -20
q11 -76 250 -1307z" />
    <glyph glyph-name="N" unicode="N" horiz-adv-x="1548" 
d="M1153 376l-5 963h223l-2 -628l2 -659l-177 -65q-239 321 -492.5 636.5t-303.5 384.5l-3 -2l5 -1006h-224l3 629l-3 651l198 71q50 -64 312.5 -401t463.5 -575z" />
    <glyph glyph-name="O" unicode="O" horiz-adv-x="1510" 
d="M1024 257q152 150 152 413t-152 409q-110 108 -269 108t-272 -111q-149 -145 -149 -408q0 -262 152 -410q109 -107 268.5 -107t269.5 106zM1217 1195q202 -202 202 -527t-203 -525q-182 -180 -460 -180t-459 179q-206 204 -206 525t200 527q182 180 463 180
q280 0 463 -179z" />
    <glyph glyph-name="P" unicode="P" horiz-adv-x="1190" 
d="M404 554h66q140 0 225 40q175 84 175 271q0 186 -165 260q-87 42 -260 42h-40l-1 -341v-272zM1114 873q0 -150 -91 -259.5t-239 -159.5t-373 -52l2 -402h-237l3 724q0 15 -3 615l186 1q335 0 503 -82q249 -120 249 -385z" />
    <glyph glyph-name="Q" unicode="Q" horiz-adv-x="1482" 
d="M1226 666q0 138 -43.5 261t-119.5 197q-141 137 -324 137q-184 0 -313 -129q-172 -170 -172 -466t176 -465q125 -125 310 -125q149 0 259 78q-12 12 -109 108q-96 97 -145 150l116 80q43 -51 132 -150t95 -106q138 165 138 430zM308 141q-198 202 -198 525t190 526
q174 182 438 182t440 -180q193 -203 193 -445t-54 -377t-147 -228q122 -137 244 -277l-76 -73q-129 143 -257 275q-150 -106 -341 -106q-258 0 -432 178z" />
    <glyph glyph-name="R" unicode="R" horiz-adv-x="1298" 
d="M856 924q0 243 -362 243l-81 -1q-2 -300 -2 -514l2 -652h-237l3 679l-2 659q80 4 238 4q297 0 428 -48q130 -48 192.5 -134t62.5 -200t-61.5 -208.5t-170.5 -150.5v-5q87 -108 233.5 -283t187.5 -236l-211 -98q-23 36 -168 215.5t-325 407.5l3 16q112 29 192 109t78 197z
" />
    <glyph glyph-name="S" unicode="S" horiz-adv-x="1076" 
d="M733 1164q-130 0 -232 -51q-42 -20 -70.5 -56.5t-28.5 -88.5q0 -98 146 -172q55 -27 112 -53.5t106 -54.5q214 -114 214 -313t-200 -306q-160 -86 -434 -88q-155 0 -236 9l-22 194q66 -11 183 -11q427 0 431 205q2 112 -147 186q-42 21 -108.5 53.5t-140.5 72.5
t-128.5 114t-54.5 162q0 161 128 258q158 130 461 130q127 0 211 -6l24 -192q-160 8 -214 8z" />
    <glyph glyph-name="T" unicode="T" horiz-adv-x="1147" 
d="M569 1336l583 1v-194l-462 1l-2 -551l3 -593h-236l3 593q0 213 -2 551l-461 -1v194z" />
    <glyph glyph-name="U" unicode="U" horiz-adv-x="1498" 
d="M406 505q0 -182 94 -265t252 -83t249.5 83.5t91.5 259.5l1 318l-2 521h236l-3 -506l1 -342q0 -254 -154 -387q-166 -137 -428 -137t-422 139q-76 67 -113.5 159t-37.5 229l2 341l-3 504h238l-2 -518v-316z" />
    <glyph glyph-name="V" unicode="V" horiz-adv-x="1333" 
d="M217 1360l450 -1075h7q102 257 272 654.5t177 419.5l216 -69q-12 -31 -225.5 -506t-338.5 -796h-227q-138 342 -322 751.5t-238 546.5z" />
    <glyph glyph-name="W" unicode="W" horiz-adv-x="2060" 
d="M2019 1297q-235 -621 -448 -1300h-208q-9 34 -103 317t-222 637h-6q-123 -311 -229 -615.5t-116 -338.5h-209q-9 33 -139.5 425.5t-301.5 871.5l235 66q7 -27 109 -348t220 -661h7q117 310 221.5 616.5t111.5 329.5h200q9 -34 105 -326t209 -615h6q125 355 224.5 661
t107.5 343z" />
    <glyph glyph-name="X" unicode="X" horiz-adv-x="1268" 
d="M263 1363q24 -51 377 -532h4q114 164 237 334.5t136 196.5l207 -83q-16 -28 -165.5 -230.5t-253.5 -357.5v-3q138 -191 273 -377t168 -243l-214 -91q-20 39 -126.5 183t-274.5 379h-3q-374 -510 -398 -561l-206 87q52 94 441 614v3q-104 154 -251.5 355t-167.5 236z" />
    <glyph glyph-name="Y" unicode="Y" horiz-adv-x="1193" 
d="M715 0h-239q0 45 2 201.5t1 379.5q-105 158 -281 406t-199 288l215 89q19 -38 149 -221t237 -340h1q106 158 241 346t147 214l202 -87q-16 -30 -198 -280t-281 -404q-1 -184 1 -362.5t2 -229.5z" />
    <glyph glyph-name="Z" unicode="Z" horiz-adv-x="1217" 
d="M371 193h814v-192l-564 1l-519 -1l-65 143q272 327 785 999l-1 3l-297 1l-427 -1v191l485 -1l508 1l67 -140q-156 -209 -786 -1001v-3z" />
    <glyph glyph-name="bracketleft" unicode="[" horiz-adv-x="859" 
d="M801 -237v-158h-633l2 879l-2 883h634v-159h-427q-2 -324 -2 -718l3 -727h425z" />
    <glyph glyph-name="backslash" unicode="\" horiz-adv-x="657" 
d="M735 -375l-160 -54q-23 65 -114 327.5t-193 538.5t-190 517.5t-143 378.5l162 53q50 -139 133.5 -376.5t179.5 -496.5t198 -543.5t127 -344.5z" />
    <glyph glyph-name="bracketright" unicode="]" horiz-adv-x="859" 
d="M59 -395v158h425l2 727l-1 718h-428v159h634l-1 -883l1 -879h-632z" />
    <glyph glyph-name="asciicircum" unicode="^" horiz-adv-x="1333" 
d="M1131 477l-144 -58l-322 667h-5l-319 -667l-143 59l392 812h146z" />
    <glyph glyph-name="underscore" unicode="_" horiz-adv-x="1086" 
d="M1086 -271h-1086v106h1086v-106z" />
    <glyph glyph-name="grave" unicode="`" horiz-adv-x="842" 
d="M637 1238l-62 -117l-494 218l73 143z" />
    <glyph glyph-name="a" unicode="a" horiz-adv-x="1048" 
d="M286 312q0 -186 333 -186q48 0 87 4l1 201l-1 193q-174 -10 -265 -44q-91 -35 -123 -77.5t-32 -90.5zM64 300q0 240 256.5 284.5t377.5 55.5q-8 136 -116 184q-88 38 -240 39q-55 0 -92.5 -1.5t-69.5 -2.5l20 166q60 3 188 3q271 0 405 -121q65 -58 95 -140t30 -216
l-1 -552q-326 -25 -463.5 -6t-216.5 55t-126 101t-47 151z" />
    <glyph glyph-name="b" unicode="b" horiz-adv-x="1132" 
d="M357 722l2 -565q205 2 303 58q97 56 139 127.5t42 175.5q0 202 -195 286q-110 53 -258 53h-33v-135zM1066 523q0 -157 -77 -270t-191 -167q-206 -97 -466 -97h-187l2 767q0 480 -2 710h222l-3 -453q302 -6 478 -111q224 -129 224 -379z" />
    <glyph glyph-name="c" unicode="c" horiz-adv-x="901" 
d="M780 846q-142 0 -257 -44q-229 -88 -229 -292q0 -102 54 -173t136 -106q146 -62 322 -62h58l-21 -176h-55q-300 0 -488 116q-233 139 -233 392t215 393q195 128 503 128h43l19 -176h-67z" />
    <glyph glyph-name="d" unicode="d" horiz-adv-x="1135" 
d="M777 845q-320 0 -404 -128t-84 -226q0 -191 169 -283q118 -65 297 -65h21l1 497v205zM66 488q0 304 299 440q174 79 405 85l-2 453h221l-2 -780l2 -697l-126 -1q-357 0 -531 92q-266 135 -266 408z" />
    <glyph glyph-name="e" unicode="e" horiz-adv-x="1045" 
d="M544 896q-103 0 -171.5 -64.5t-92.5 -193.5h502q-12 124 -73.5 191t-164.5 67zM992 526h-705q2 -203 169 -299q119 -70 303 -70q114 0 160 4l-25 -163q-57 -6 -189 -6q-132 1 -258.5 39t-210.5 113q-170 150 -169 378q0 119 31.5 207t102.5 164q138 148 343 148
q204 0 320 -118q128 -134 128 -397z" />
    <glyph glyph-name="f" unicode="f" horiz-adv-x="748" 
d="M24 854v162h189v42q0 188 120 298q120 111 349 111h67l22 -161h-69q-44 0 -163 -33t-119 -224v-33h328v-162h-321l2 -855h-220l2 855h-187z" />
    <glyph glyph-name="g" unicode="g" horiz-adv-x="1134" 
d="M289 511q0 -193 170 -283q120 -63 287 -63h29l1 338l-1 351q-314 0 -400 -121t-86 -222zM763 16h-149q-148 0 -338 117q-90 56 -149.5 153.5t-59.5 235.5q0 276 284 413q176 88 487 88h151l-2 -502l1 -443q0 -307 -231 -428q-209 -107 -552 -105l-25 164q427 0 505 109.5
t78 197.5z" />
    <glyph glyph-name="h" unicode="h" horiz-adv-x="1185" 
d="M650 861q-101 0 -285 -104l2 -757h-222l2 771l-2 695h222l-3 -547l3 -1q76 43 186.5 83t200.5 40q141 0 217 -82t76 -223l-1 -321l2 -415h-222l2 401q0 192 -2 278t-38 134t-138 48z" />
    <glyph glyph-name="i" unicode="i" horiz-adv-x="518" 
d="M367 511l2 -511h-221l2 506q0 224 -2 510h221zM376 1214h-234v186h234v-186z" />
    <glyph glyph-name="j" unicode="j" horiz-adv-x="529" 
d="M166 61q0 559 -3 955h221l-1 -449l1 -513q0 -258 -158 -378q-130 -103 -368 -130l-47 165q183 23 262 87q43 36 68 92t25 171zM390 1214h-234v186h234v-186z" />
    <glyph glyph-name="k" unicode="k" horiz-adv-x="1087" 
d="M1086 18l-173 -88q-186 225 -335.5 384.5t-176.5 195.5v2q39 53 176.5 210.5t255.5 314.5l192 -85q-104 -119 -208.5 -247t-146.5 -176v-1l130 -156q130 -156 286 -354zM365 766l2 -767h-222l2 776l-2 691h222q-2 -294 -2 -700z" />
    <glyph glyph-name="l" unicode="l" horiz-adv-x="517" 
d="M367 768l2 -768h-221l2 761l-2 705h221z" />
    <glyph glyph-name="m" unicode="m" horiz-adv-x="1812" 
d="M1285 861q-97 0 -267 -95l2 -61v-78v-627h-221l2 366q0 225 -2 311t-38 134q-32 50 -126 50t-270 -102l-1 -333l2 -426h-221l2 495q0 251 -2 521h218l-1 -98l3 -2q213 125 380 125t236 -132h3q227 132 383 132q157 0 232 -81.5t75 -218.5l-1 -333l2 -408h-222l2 371
q1 219 -1 307t-37 135.5t-132 47.5z" />
    <glyph glyph-name="n" unicode="n" horiz-adv-x="1185" 
d="M652 861q-98 0 -287 -104l-1 -313l3 -444h-222l2 495l-2 521h218l-1 -100l1 -1q81 46 191 86t206 40q136 0 211.5 -81t75.5 -218l-1 -335l2 -407h-222l2 360q0 211 -1 306t-39 145t-136 50z" />
    <glyph glyph-name="o" unicode="o" horiz-adv-x="1145" 
d="M758 217q99 101 99 295t-105 293q-70 70 -180 70t-188 -78q-96 -96 -96 -290t109 -298q70 -68 180 -68q109 0 181 76zM229 103q-162 154 -162 398t143 392t360.5 148t362.5 -145t145 -391t-161 -402q-138 -128 -345 -128t-343 128z" />
    <glyph glyph-name="p" unicode="p" horiz-adv-x="1127" 
d="M840 509q0 192 -151 279q-111 65 -298 65h-33v-133q0 -133 -1 -237l1 -328q329 4 405.5 130t76.5 224zM1063 524q0 -138 -67.5 -247.5t-173.5 -166.5q-196 -106 -457 -108l2 -457h-222l2 800l-2 677l145 1q341 0 527 -95q246 -129 246 -404z" />
    <glyph glyph-name="q" unicode="q" horiz-adv-x="1143" 
d="M289 514q0 -194 176 -286q116 -61 283 -61h29v273l-1 427q-190 0 -310 -62q-80 -43 -128.5 -118t-48.5 -173zM340 929q188 95 509 95h141l-2 -661l2 -818h-222l2 457q-270 4 -417 79q-287 145 -287 426t274 422z" />
    <glyph glyph-name="r" unicode="r" horiz-adv-x="793" 
d="M365 675l-1 -255l3 -420h-222l2 485l-2 531h218l-2 -155l2 -1q106 66 224 116.5t173 66.5l59 -187q-222 -66 -454 -181z" />
    <glyph glyph-name="s" unicode="s" horiz-adv-x="855" 
d="M638 863q-300 0 -300 -131q0 -64 96 -116q49 -24 107.5 -49t119.5 -58q131 -71 131 -216t-153 -231q-125 -71 -383 -73q-99 0 -183 6l-18 164q81 -6 182 -6q306 0 306 139q0 66 -93 115q-35 18 -99.5 46.5t-126.5 62.5q-133 74 -133 220t166 227q118 61 337 63l158 -2
l18 -164q-54 3 -132 3z" />
    <glyph glyph-name="t" unicode="t" horiz-adv-x="771" 
d="M692 156q21 0 36.5 0.5t25.5 0.5l-22 -162q-42 -3 -106 -3q-217 0 -329.5 85.5t-112.5 272.5l3 503h-168v163h172v253h213v-253h349v-163h-349l-2 -229l2 -229q0 -127 63.5 -183t224.5 -56z" />
    <glyph glyph-name="u" unicode="u" horiz-adv-x="1185" 
d="M359 368q-1 -214 149 -214q76 0 162.5 33.5t149.5 72.5l1 323l-3 433h222l-2 -468l2 -548h-217v101l-1 1q-79 -45 -188.5 -86.5t-207.5 -41.5q-137 0 -212.5 82t-75.5 232l1 342l-2 386h222l-2 -353z" />
    <glyph glyph-name="v" unicode="v" horiz-adv-x="1022" 
d="M409 0q-79 209 -403 969l217 64l293 -749h5l287 749l209 -62q-224 -509 -400 -971h-208z" />
    <glyph glyph-name="w" unicode="w" horiz-adv-x="1610" 
d="M808 710q-214 -596 -246 -710h-199q-13 44 -109.5 326t-233.5 648l217 60l245 -741h5l244 709h167l227 -707h4l250 737l211 -57q-321 -875 -351 -975h-197q-61 210 -230 710h-4z" />
    <glyph glyph-name="x" unicode="x" horiz-adv-x="1022" 
d="M977 958q-18 -25 -307 -430v-3q85 -131 193.5 -278t130.5 -188l-197 -84q-16 31 -112.5 164t-178.5 251h-3q-74 -110 -174.5 -247t-116.5 -168l-185 77q22 37 128.5 182.5t194.5 276.5v2q-74 99 -148 208.5t-161 236.5l198 78q74 -113 140.5 -204t135.5 -188h3
q66 89 137.5 186t138.5 206z" />
    <glyph glyph-name="y" unicode="y" horiz-adv-x="1055" 
d="M1037 972l-598 -1426l-203 57l178 415q-16 41 -151 355.5t-248 598.5l218 61q73 -209 180 -461.5t118 -280.5h5q12 34 111.5 269.5t183.5 471.5z" />
    <glyph glyph-name="z" unicode="z" horiz-adv-x="939" 
d="M566 167l344 2v-165l-437 1l-384 -1l-52 107q371 475 553 737l-1 2h-205l-317 -1v162l371 -1l390 1l60 -102q-517 -684 -554 -740l1 -2h231z" />
    <glyph glyph-name="braceleft" unicode="{" horiz-adv-x="859" 
d="M519 179v-204q0 -121 80 -176.5t228 -57.5l-12 -169q-229 4 -363.5 96t-134.5 295v178q0 143 -65 196t-211 62v152q135 7 205 57q71 58 71 200v181q0 195 134 291.5t362 98.5l11 -168q-150 -1 -227.5 -56t-77.5 -178v-205q0 -121 -60.5 -194.5t-150.5 -99.5v-8
q211 -57 211 -291z" />
    <glyph glyph-name="bar" unicode="|" horiz-adv-x="547" 
d="M355 -456h-161v1922h161v-1922z" />
    <glyph glyph-name="braceright" unicode="}" horiz-adv-x="859" 
d="M341 179q0 234 211 291v8q-90 26 -150.5 99t-60.5 195v205q0 123 -77 177.5t-228 56.5l11 168q225 -2 360 -96t135 -294v-181q0 -145 68 -198q68 -52 208 -59v-152q-139 -9 -191 -47q-51 -38 -67.5 -89t-16.5 -109v-191q0 -200 -135 -294t-364 -97l-12 169
q152 2 230.5 58t78.5 176v204z" />
    <glyph glyph-name="asciitilde" unicode="~" horiz-adv-x="1333" 
d="M455 536q-121 0 -180 -239l-141 26q30 165 117.5 270.5t202.5 104.5t201 -65q24 -18 60 -51.5t76 -63.5t98 -30q57 0 103 67t72 173l140 -26q-31 -165 -118.5 -271t-216.5 -105q-95 0 -184 64q-26 19 -63.5 52.5t-74.5 63.5q-38 30 -92 30z" />
    <glyph glyph-name="uni00A0" unicode="&#xa0;" horiz-adv-x="258" 
 />
    <glyph glyph-name="exclamdown" unicode="&#xa1;" horiz-adv-x="824" 
d="M292 0q10 710 35 885h183q26 -169 34 -885h-252zM543 1115h-251v224h251v-224z" />
    <glyph glyph-name="cent.oldstyle" unicode="&#xa2;" horiz-adv-x="952" 
d="M273 140q-184 139 -184 367t195 371q156 114 420 136l-2 346h158q-2 -140 -2 -257l3 -256q-201 0 -338 -52q-96 -38 -151 -113.5t-55 -173.5t85.5 -217.5t419.5 -123.5h22q21 0 33 1l-1 -288l2 -244h-161l2 364q-281 12 -446 140z" />
    <glyph glyph-name="sterling.oldstyle" unicode="&#xa3;" horiz-adv-x="1077" 
d="M110 171h131l54 407h-191v144h208q4 29 26 158q21 130 102 290.5t429 160.5q56 0 104 -2l32 -178q-43 3 -47 3h-69q-155 0 -227 -64t-95 -194q-14 -80 -27 -174h330v-144h-357l-55 -408h210l405 2v-170l-451 1l-512 -1v169z" />
    <glyph glyph-name="currency" unicode="&#xa4;" horiz-adv-x="1200" 
d="M861 632q0 106 -76 182t-183 76t-183 -76t-76 -182t76 -183.5t183 -77.5t183 77.5t76 183.5zM964 633q0 -120 -70 -218l191 -190l-78 -73l-186 188q-55 -39 -104.5 -55.5t-117.5 -16.5q-121 0 -216 72l-189 -189l-77 72l193 191q-72 98 -72 215t72 217l-193 192l77 73
l189 -192q95 72 218 72t219 -69l187 189l79 -74l-190 -188q68 -96 68 -216z" />
    <glyph glyph-name="yen.oldstyle" unicode="&#xa5;" horiz-adv-x="1181" 
d="M704 372l2 -372h-229l3 372l-332 -1v142l330 -1v77l-446 636l210 85q18 -32 141.5 -209t212.5 -319h2q77 122 207.5 307.5t152.5 221.5l198 -81l-451 -634v-84l331 1v-142z" />
    <glyph glyph-name="brokenbar" unicode="&#xa6;" horiz-adv-x="547" 
d="M194 -456v830h161l-1 -830h-160zM194 641v825h160l1 -825h-161z" />
    <glyph glyph-name="section" unicode="&#xa7;" horiz-adv-x="961" 
d="M689 479q0 97 -112 149q-45 20 -71.5 31.5t-48.5 21.5q-104 -47 -144.5 -106t-40.5 -113t35.5 -91t87.5 -62t108 -46q186 85 186 216zM294 737q-172 86 -172 250t177 258q177 95 536 95l17 -165h-142q-143 0 -274 -56q-103 -50 -103 -128q0 -77 123 -135
q155 -68 238 -107t132 -100t49 -149t-56 -164.5t-152 -126.5v-4q11 -6 92 -49.5t81 -190.5q0 -169 -181 -266q-126 -71 -299 -82q-172 -12 -233 -12l-17 165q299 0 414 56q105 56 105 123q0 84 -124 139q-123 50 -224 97q-195 92 -195 259q0 90 57.5 164.5t150.5 124.5v4z
" />
    <glyph glyph-name="dieresis" unicode="&#xa8;" horiz-adv-x="842" 
d="M304 1196h-200v185h200v-185zM738 1196h-200v185h200v-185z" />
    <glyph glyph-name="copyright" unicode="&#xa9;" horiz-adv-x="1965" 
d="M754 491q0 -88 80 -194t387 -106h25q25 0 37 1l-21 -168h-110q-82 0 -195 26.5t-207 84.5q-202 124 -203 348q0 224 197 356q171 116 459 116l43 -1l17 -165h-43q-310 -4 -388 -107t-78 -191zM1702 492q0 296 -211 509.5t-509 213.5t-510.5 -212.5t-212.5 -511.5
t210.5 -512.5t510.5 -213.5t511 215.5t211 511.5zM1783 491q0 -332 -236.5 -568t-566.5 -236t-566.5 238.5t-236.5 566.5t237.5 565t567.5 237t565.5 -235.5t235.5 -567.5z" />
    <glyph glyph-name="ordfeminine" unicode="&#xaa;" horiz-adv-x="860" 
d="M276 739q0 -113 222 -113q42 0 66 2l1 120l-1 114q-288 -10 -288 -123zM732 205h-601v102h601v-102zM556 946q-13 129 -203 129q-112 0 -162 -4l19 118l119 2q301 0 345.5 -109.5t44.5 -197.5l-1 -349q-66 -11 -225 -11t-237 32t-111 73t-33 101q0 166 188 189t256 27z
" />
    <glyph glyph-name="guillemotleft" unicode="&#xab;" horiz-adv-x="1064" 
d="M984 200l-109 -95l-405 425v26l404 426l110 -95l-329 -344zM600 193l-123 -104l-412 440v28l413 440l122 -102l-330 -352z" />
    <glyph glyph-name="logicalnot.oldstyle" unicode="&#xac;" horiz-adv-x="1366" 
d="M1142 57h-159v400h-778v146h937v-546z" />
    <glyph glyph-name="registered" unicode="&#xae;" horiz-adv-x="1965" 
d="M1137 670q0 140 -228 140l-73 -1q-1 -61 -1 -87v-240l2 -436h-171l3 444q0 100 -2 454l255 3q254 0 323.5 -92t69.5 -171q0 -149 -150 -233v-5l295 -313l-118 -112l-382 408v53q78 20 115 55t49.5 63t12.5 70zM1702 492q0 298 -211 510.5t-509 212.5t-510.5 -212.5
t-212.5 -512.5t210.5 -512.5t510.5 -212.5t511 214.5t211 512.5zM1783 490q0 -332 -236.5 -567.5t-566.5 -235.5t-566.5 238.5t-236.5 566.5t237 565t568 237t566 -236t235 -568z" />
    <glyph glyph-name="macron" unicode="&#xaf;" horiz-adv-x="842" 
d="M418 1349l355 1v-125l-351 1l-353 -1v125z" />
    <glyph glyph-name="macron" unicode="&#x2c9;" horiz-adv-x="842" 
d="M418 1349l355 1v-125l-351 1l-353 -1v125z" />
    <glyph glyph-name="degree" unicode="&#xb0;" horiz-adv-x="831" 
d="M615 1030q0 74 -57.5 126t-141.5 52t-142 -52t-58 -127t57.5 -129t143.5 -54t142 55t56 129zM741 1028q0 -124 -96 -212.5t-231 -88.5t-229.5 87.5t-94.5 213.5t96.5 212.5t230.5 86.5t229 -87.5t95 -211.5z" />
    <glyph glyph-name="plusminus.oldstyle" unicode="&#xb1;" horiz-adv-x="1333" 
d="M1129 85h-926v143h392v320h-392v144h388v379h147v-379h391v-144h-394v-320h394v-143z" />
    <glyph glyph-name="two.superior" unicode="&#xb2;" horiz-adv-x="860" 
d="M805 537h-693l-43 111q156 70 286 168q162 111 162 214t-98 151q-74 38 -224 38q-27 0 -48 -0.5t-34 -0.5l19 145l92 2q201 0 321 -64q156 -78 156 -234q0 -130 -136 -247q-105 -88 -222 -148l1 -4q41 1 99 1t87 1l275 1v-134z" />
    <glyph glyph-name="three.superior" unicode="&#xb3;" horiz-adv-x="860" 
d="M525 1119q0 112 -288 112h-105l28 135h96q185 0 291 -42q70 -26 113.5 -71t43.5 -106t-40 -103.5t-101 -65.5v-3q83 -14 139 -60.5t56 -114.5q0 -144 -165 -214q-139 -63 -401 -65l-76 2l-24 135q8 0 30.5 -0.5t126.5 1.5t185 24q82 22 112 49.5t30 64.5q0 100 -253 100
l-90 -1l-19 100q201 5 256 45.5t55 77.5z" />
    <glyph glyph-name="acute" unicode="&#xb4;" horiz-adv-x="842" 
d="M760 1339l-493 -218l-62 116l483 245z" />
    <glyph glyph-name="mu" unicode="&#xb5;" horiz-adv-x="1275" 
d="M612 -5q-144 0 -242 88l-1 -1l2 -537h-222q3 519 3 776l-2 696h221l-2 -738q96 -107 243 -107q146 0 225 110l1 352l-2 383h221l-2 -363q-1 -53 -0.5 -145.5t0.5 -177.5t41.5 -125t172.5 -40l-21 -170q-164 0 -239 33t-110 97h-2q-102 -131 -285 -131z" />
    <glyph glyph-name="paragraph" unicode="&#xb6;" horiz-adv-x="1097" 
d="M87 856q0 123 65.5 219.5t163.5 154.5q188 110 522 110l124 -1q-3 -235 -3 -273v-406l3 -1114h-161l3 785q-106 2 -227.5 27t-211.5 72q-278 141 -278 426z" />
    <glyph glyph-name="periodcentered" unicode="&#xb7;" horiz-adv-x="523" 
d="M386 380h-250v259h250v-259z" />
    <glyph glyph-name="cedilla" unicode="&#xb8;" horiz-adv-x="842" 
d="M584 -3v27h128q-2 -112 -42 -211.5t-152.5 -131.5t-189.5 -34l-24 117q159 6 219 60q61 54 61 173z" />
    <glyph glyph-name="one.superior" unicode="&#xb9;" horiz-adv-x="860" 
d="M438 1124q0 27 -1 75l-3 2l-261 -148l-70 108q259 145 385 219l122 -76q-3 -136 -3 -359l2 -410h-174l3 358v231z" />
    <glyph glyph-name="ordmasculine" unicode="&#xba;" horiz-adv-x="860" 
d="M556 683q68 64 68 179t-71 179q-48 42 -120 42t-115 -38q-76 -67 -76 -185t74 -180q46 -42 117 -42t123 45zM737 205h-608v102h608v-102zM787 858q-1 -157 -105 -247q-104 -91 -249 -91t-249 90q-105 90 -105 247t101 250q101 94 253 94t253 -93t101 -250z" />
    <glyph glyph-name="guillemotright" unicode="&#xbb;" horiz-adv-x="1064" 
d="M594 530l-405 -425l-109 95l329 343l-329 344l110 95l404 -426v-26zM999 529l-412 -440l-123 104l330 350l-330 352l122 102l413 -440v-28z" />
    <glyph glyph-name="onequarter" unicode="&#xbc;" horiz-adv-x="1238" 
d="M563 1144q0 27 -1 58l-4 2l-255 -139l-68 107q298 157 381 204l128 -70q-3 -134 -3 -332l2 -366h-183l3 318v218zM580 -109q11 0 59 1l1 279l-4 1l-295 -277l2 -3l132 -1h105zM927 -100q13 0 80 1v-118q-75 1 -86 1h-116l1 -236h-177l2 237l-391 -1l-59 113
q317 287 484 443l144 -59l-4 -381h122zM1094 410h-949v93h949v-93z" />
    <glyph glyph-name="onehalf" unicode="&#xbd;" horiz-adv-x="1238" 
d="M1092 413h-949v93h949v-93zM568 -311q129 3 184 3h282v-123h-715l-46 102q155 59 290 147q170 104 170 194q0 167 -329 167q-25 0 -47 -0.5t-37 -0.5l20 130q34 2 114 2q191 0 310 -56q161 -69 161 -216q0 -148 -155 -235.5t-203 -108.5zM560 1136q0 25 -1 69l-4 2
l-255 -139l-68 107q249 131 381 204l128 -70q-3 -134 -3 -333l2 -366h-183l3 324v202z" />
    <glyph glyph-name="threequarters" unicode="&#xbe;" horiz-adv-x="1238" 
d="M647 -108v279l-3 1l-295 -277l1 -3h297zM813 148v-247h202v-118q-75 1 -86 1h-116l1 -236h-177l1 237l-391 -1l-59 113l485 443l143 -59q-3 -103 -3 -133zM731 1145q0 97 -295 97h-104l30 126h95q303 0 381 -71t78 -127t-40.5 -95t-95.5 -58v-3q81 -13 136.5 -53.5
t55.5 -105.5q0 -127 -171 -193q-144 -56 -431 -56l-55 1l-25 124l76 1q415 0 415 123q0 89 -255 89l-92 -1l-20 94q317 7 317 108zM1094 410h-949v93h949v-93z" />
    <glyph glyph-name="questiondown" unicode="&#xbf;" horiz-adv-x="1126" 
d="M840 -9h-114q-222 0 -356 65q-223 98 -223 311t174 310.5t252 132.5l-2 156h224v-260q-180 -62 -275 -122q-129 -90 -129 -202q0 -145 170 -185q97 -22 334 -20l-32 -185q-13 -1 -23 -1zM803 1116h-252v223h252v-223z" />
    <glyph glyph-name="Agrave" unicode="&#xc0;" horiz-adv-x="1360" 
d="M657 1101l-226 -522l2 -1h454l2 1q-120 287 -227 522h-5zM-17 45q138 307 571 1302h232q149 -354 345 -799t219 -499l-228 -75q-29 78 -186 447h-550q-22 -49 -189 -447zM922 1554l-48 -126l-536 165l57 154z" />
    <glyph glyph-name="Aacute" unicode="&#xc1;" horiz-adv-x="1252" 
d="M657 1101l-226 -522l2 -1h454l2 1q-120 287 -227 522h-5zM-17 45q138 307 571 1302h232q149 -354 345 -799t219 -499l-228 -75q-29 78 -186 447h-550q-22 -49 -189 -447zM1082 1593l-536 -165l-47 126l526 193z" />
    <glyph glyph-name="Acircumflex" unicode="&#xc2;" horiz-adv-x="1319" 
d="M657 1101l-226 -522l2 -1h454l2 1q-120 287 -227 522h-5zM-17 45q138 307 571 1302h232q149 -354 345 -799t219 -499l-228 -75q-29 78 -186 447h-550q-22 -49 -189 -447zM1076 1512l-97 -106l-272 199h-3l-272 -199l-97 106l301 219h139z" />
    <glyph glyph-name="Atilde" unicode="&#xc3;" horiz-adv-x="1297" 
d="M657 1101l-226 -522l2 -1h454l2 1q-120 287 -227 522h-5zM-17 45q138 307 571 1302h232q149 -354 345 -799t219 -499l-228 -75q-29 78 -186 447h-550q-22 -49 -189 -447zM586 1567q-38 -1 -62 -33t-42 -108l-135 27q23 111 86 179t155 68t146 -43t81 -61q26 -18 64 -18
q72 0 104 142l135 -26q-24 -111 -86 -181t-151 -70q-90 0 -153 45q-20 14 -40 30t-42 32q-24 16 -60 17z" />
    <glyph glyph-name="Adieresis" unicode="&#xc4;" horiz-adv-x="1316" 
d="M657 1101l-226 -522l2 -1h454l2 1q-120 287 -227 522h-5zM-17 45q138 307 571 1302h232q149 -354 345 -799t219 -499l-228 -75q-29 78 -186 447h-550q-22 -49 -189 -447zM563 1456h-217v196h217v-196zM1068 1456h-217v196h217v-196z" />
    <glyph glyph-name="Aring" unicode="&#xc5;" horiz-adv-x="1320" 
d="M657 1101l-226 -522l2 -1h454l2 1q-120 287 -227 522h-5zM-17 45q138 307 571 1302h232q149 -354 345 -799t219 -499l-228 -75q-29 78 -186 447h-550q-22 -49 -189 -447zM819 1580q0 44 -31 72t-80 29q-49 -1 -81 -29t-32 -72t32 -73q32 -30 81 -30t80 30q31 29 31 73z
M953 1580q0 -88 -73 -150q-72 -62 -174 -61q-102 0 -173 61t-71 150q0 88 72 148t174 60q100 0 172 -60t73 -148z" />
    <glyph glyph-name="AE" unicode="&#xc6;" horiz-adv-x="1841" 
d="M755 1056l-221 -389l1 -1h344l1 1q-61 197 -123 389h-2zM1738 180v-179l-396 1l-254 -1l-162 517h-464q-283 -497 -307 -543l-194 104q14 25 279.5 463.5t459.5 794.5l551 -1l439 1v-179l-346 2q-176 -2 -398 -2l-1 -1l128 -412h221l378 1v-150l-357 1l-193 -1l-1 -1
q22 -71 134 -416l210 -1q230 2 273 2z" />
    <glyph glyph-name="Ccedilla" unicode="&#xc7;" horiz-adv-x="1156" 
d="M298 206q-210 189 -210 460t200 451q125 113 312.5 173t409.5 61h50q3 -33 23 -199h-93t-188.5 -26t-223.5 -79t-175 -149.5t-70 -229.5q0 -255 252 -386q190 -102 464 -102h24t25 1l-3 -177q-2 -228 -169 -322q-114 -60 -245 -66l-23 -1l-28 129q171 8 246 64
q38 31 56 70.5t18 109.5q-211 7 -379.5 65.5t-272.5 152.5z" />
    <glyph glyph-name="Egrave" unicode="&#xc8;" horiz-adv-x="1181" 
d="M738 179l338 1v-179l-474 1l-426 -1l3 682l-3 654l413 -1l474 1v-179l-366 2l-292 -1l-1 -396l285 -1l369 1v-151l-364 2l-290 -2l1 -432zM964 1554l-48 -126l-536 165l57 154z" />
    <glyph glyph-name="Eacute" unicode="&#xc9;" horiz-adv-x="1185" 
d="M738 179l338 1v-179l-474 1l-426 -1l3 682l-3 654l413 -1l474 1v-179l-366 2l-292 -1l-1 -396l285 -1l369 1v-151l-364 2l-290 -2l1 -432zM1020 1593l-536 -165l-47 126l526 193z" />
    <glyph glyph-name="Ecircumflex" unicode="&#xca;" horiz-adv-x="1180" 
d="M738 179l338 1v-179l-474 1l-426 -1l3 682l-3 654l413 -1l474 1v-179l-366 2l-292 -1l-1 -396l285 -1l369 1v-151l-364 2l-290 -2l1 -432zM1049 1516l-97 -106l-272 199h-3l-272 -199l-97 106l301 219h139z" />
    <glyph glyph-name="Edieresis" unicode="&#xcb;" horiz-adv-x="1179" 
d="M738 179l338 1v-179l-474 1l-426 -1l3 682l-3 654l413 -1l474 1v-179l-366 2l-292 -1l-1 -396l285 -1l369 1v-151l-364 2l-290 -2l1 -432zM541 1456h-217v196h217v-196zM1046 1456h-217v196h217v-196z" />
    <glyph glyph-name="Igrave" unicode="&#xcc;" horiz-adv-x="587" 
d="M407 697l3 -697h-233l2 675l-2 664h233zM517 1554l-48 -126l-473 158l58 153z" />
    <glyph glyph-name="Iacute" unicode="&#xcd;" horiz-adv-x="587" 
d="M407 697l3 -697h-233l2 675l-2 664h233zM585 1586l-473 -158l-48 126l464 185z" />
    <glyph glyph-name="Icircumflex" unicode="&#xce;" horiz-adv-x="587" 
d="M407 697l3 -697h-233l2 675l-2 664h233zM601 1515l-91 -104l-217 195h-4l-216 -195l-91 104l252 219h114z" />
    <glyph glyph-name="Idieresis" unicode="&#xcf;" horiz-adv-x="587" 
d="M407 697l3 -697h-233l2 675l-2 664h233zM207 1456h-205v196h205v-196zM582 1456h-206v196h206v-196z" />
    <glyph glyph-name="Eth" unicode="&#xd0;" horiz-adv-x="1497" 
d="M518 182q71 0 180 24q246 54 356 235q60 97 60 223q0 254 -208 385q-171 107 -437 107h-45q-2 -134 -2 -414l265 1v-109l-265 1l2 -453h94zM1356 663q0 -167 -80 -301t-209 -212q-131 -80 -275 -118t-335 -37l-266 4l2 618h-182v143h182l-2 579l232 2q410 0 652 -153
q281 -183 281 -525z" />
    <glyph glyph-name="Ntilde" unicode="&#xd1;" horiz-adv-x="1551" 
d="M1153 376l-5 963h223l-2 -628l2 -659l-177 -65q-238 321 -492 637t-304 384l-3 -2l5 -1006h-224l3 629l-3 651l198 71q50 -64 312 -401t464 -575zM565 1632q63 68 155 68t146 -43t81 -61q26 -18 64 -18q72 0 104 142l135 -26q-24 -111 -86 -181t-151 -70q-90 0 -153 45
q-20 14 -40 30t-41 32q-22 16 -60 17q-39 -1 -63 -33t-42 -108l-135 27q23 111 86 179z" />
    <glyph glyph-name="Ograve" unicode="&#xd2;" horiz-adv-x="1495" 
d="M1024 257q152 150 152 413t-152 409q-110 108 -269 108t-272 -111q-149 -145 -149 -408q0 -262 152 -410q109 -107 269 -107q159 0 269 106zM1217 1195q202 -202 202 -527t-203 -525q-182 -180 -460 -180t-459 179q-206 204 -206 525t200 527q182 180 463 180
q280 0 463 -179zM1044 1554l-48 -126l-536 165l57 154z" />
    <glyph glyph-name="Oacute" unicode="&#xd3;" horiz-adv-x="1503" 
d="M1024 257q152 150 152 413t-152 409q-110 108 -269 108t-272 -111q-149 -145 -149 -408q0 -262 152 -410q109 -107 269 -107q159 0 269 106zM1217 1195q202 -202 202 -527t-203 -525q-182 -180 -460 -180t-459 179q-206 204 -206 525t200 527q182 180 463 180
q280 0 463 -179zM1130 1593l-536 -165l-47 126l526 193z" />
    <glyph glyph-name="Ocircumflex" unicode="&#xd4;" horiz-adv-x="1506" 
d="M1024 257q152 150 152 413t-152 409q-110 108 -269 108t-272 -111q-149 -145 -149 -408q0 -262 152 -410q109 -107 269 -107q159 0 269 106zM1217 1195q202 -202 202 -527t-203 -525q-182 -180 -460 -180t-459 179q-206 204 -206 525t200 527q182 180 463 180
q280 0 463 -179zM1162 1512l-97 -106l-272 199h-3l-272 -199l-97 106l301 219h139z" />
    <glyph glyph-name="Otilde" unicode="&#xd5;" horiz-adv-x="1504" 
d="M1024 257q152 150 152 413t-152 409q-110 108 -269 108t-272 -111q-149 -145 -149 -408q0 -262 152 -410q109 -107 269 -107q159 0 269 106zM1217 1195q202 -202 202 -527t-203 -525q-182 -180 -460 -180t-459 179q-206 204 -206 525t200 527q182 180 463 180
q280 0 463 -179zM494 1632q63 68 155 68t146 -43t81 -61q26 -18 64 -18q72 0 104 142l135 -26q-23 -111 -85 -181t-152 -70t-153 45q-19 14 -39 30t-43 32q-23 17 -60 17q-37 -1 -61 -33t-43 -108l-135 27q23 111 86 179z" />
    <glyph glyph-name="Odieresis" unicode="&#xd6;" horiz-adv-x="1502" 
d="M1024 257q152 150 152 413t-152 409q-110 108 -269 108t-272 -111q-149 -145 -149 -408q0 -262 152 -410q109 -107 269 -107q159 0 269 106zM1217 1195q202 -202 202 -527t-203 -525q-182 -180 -460 -180t-459 179q-206 204 -206 525t200 527q182 180 463 180
q280 0 463 -179zM650 1456h-217v196h217v-196zM1155 1456h-217v196h217v-196z" />
    <glyph glyph-name="multiply" unicode="&#xd7;" horiz-adv-x="1687" 
d="M1315 948l-364 -370l365 -376l-111 -105l-363 370l-361 -369l-111 104l365 374l-363 371l112 105l359 -366l360 366z" />
    <glyph glyph-name="Oslash" unicode="&#xd8;" horiz-adv-x="1510" 
d="M1042 1144q-28 -128 -123 -271q-94 -142 -203 -315t-254 -386q118 -95 291 -95q172 0 299 125q175 171 175 469q0 299 -185 473zM1151 1219q220 -205 220 -541t-192 -531q-178 -184 -439 -184q-199 0 -346 103q-81 -130 -133 -200l-67 45q69 101 136 207
q-101 90 -160.5 232t-59.5 309q0 327 190 533q176 182 440 182q198 0 350 -104q44 70 113 170l67 -44q-43 -59 -119 -177zM757 1261q-200 0 -331 -129q-172 -170 -172 -453q0 -284 152 -454q204 293 278 421q74 127 169 269t115 285q-102 61 -211 61z" />
    <glyph glyph-name="Ugrave" unicode="&#xd9;" horiz-adv-x="1503" 
d="M406 505q0 -182 94 -265t252 -83q158 -1 250 83t91 260l1 318l-2 521h236l-3 -506l1 -342q0 -254 -154 -387q-166 -137 -428 -137t-422 139q-76 67 -114 159t-37 229l2 341l-3 504h238l-2 -518v-316zM1041 1554l-48 -126l-536 165l57 154z" />
    <glyph glyph-name="Uacute" unicode="&#xda;" horiz-adv-x="1497" 
d="M406 505q0 -182 94 -265t252 -83q158 -1 250 83t91 260l1 318l-2 521h236l-3 -506l1 -342q0 -254 -154 -387q-166 -137 -428 -137t-422 139q-76 67 -114 159t-37 229l2 341l-3 504h238l-2 -518v-316zM1138 1593l-536 -165l-47 126l526 193z" />
    <glyph glyph-name="Ucircumflex" unicode="&#xdb;" horiz-adv-x="1502" 
d="M406 505q0 -182 94 -265t252 -83q158 -1 250 83t91 260l1 318l-2 521h236l-3 -506l1 -342q0 -254 -154 -387q-166 -137 -428 -137t-422 139q-76 67 -114 159t-37 229l2 341l-3 504h238l-2 -518v-316zM1165 1512l-97 -106l-272 199h-3l-272 -199l-97 106l301 219h139z" />
    <glyph glyph-name="Udieresis" unicode="&#xdc;" horiz-adv-x="1503" 
d="M406 505q0 -182 94 -265t252 -83q158 -1 250 83t91 260l1 318l-2 521h236l-3 -506l1 -342q0 -254 -154 -387q-166 -137 -428 -137t-422 139q-76 67 -114 159t-37 229l2 341l-3 504h238l-2 -518v-316zM651 1456h-217v196h217v-196zM1156 1456h-217v196h217v-196z" />
    <glyph glyph-name="Yacute" unicode="&#xdd;" horiz-adv-x="1124" 
d="M715 0h-239q0 46 2 202t1 379q-105 158 -281 406t-199 288l215 89q19 -38 149 -221t237 -340h1q106 158 241 346t147 214l202 -87q-16 -30 -198 -280t-281 -404q-1 -184 1 -362t2 -230zM1028 1593l-536 -165l-47 126l526 193z" />
    <glyph glyph-name="Thorn" unicode="&#xde;" horiz-adv-x="1191" 
d="M404 375q200 1 287 41q179 83 179 268q0 186 -165 263q-89 41 -260 41h-40l-1 -340v-273zM1114 686q0 -142 -84 -245t-224 -154q-160 -67 -395 -69l2 -218h-237l3 704l-3 635h237l-1 -185q304 0 463 -84q239 -122 239 -384z" />
    <glyph glyph-name="germandbls" unicode="&#xdf;" horiz-adv-x="1288" 
d="M1100 879q-290 0 -290 -98.5t92 -152.5q39 -22 87 -48t106 -61q127 -77 127 -220t-138 -226q-138 -82 -387 -82q-90 0 -138 5l-18 161q54 -4 161 -4t167 23t85.5 49.5t25.5 64.5q0 70 -89 120q-137 68 -197 108q-124 81 -123 224q0 144 163 220q88 43 226 50
q-8 147 -98 231q-71 69 -203 69t-203 -73q-84 -82 -85 -281t-1 -413l2 -545h-222l2 537v440q0 227 124 355q53 57 148.5 95.5t223.5 38.5q245 0 378 -137q145 -145 145 -450h-71z" />
    <glyph glyph-name="agrave" unicode="&#xe0;" horiz-adv-x="1074" 
d="M286 312q0 -186 333 -186q48 0 87 4l1 201l-1 193q-174 -10 -265 -44q-91 -36 -123 -78t-32 -90zM64 300q0 240 407 310q106 18 227 30q-8 136 -116 184q-88 38 -240 39q-54 1 -92 -1t-70 -3l20 166q60 3 188 3q271 0 405 -121q65 -58 95 -140t30 -216l-1 -552
q-325 -25 -463 -6t-217 55t-126 100q-47 66 -47 152zM720 1238l-62 -117l-494 218l73 143z" />
    <glyph glyph-name="aacute" unicode="&#xe1;" horiz-adv-x="1046" 
d="M286 312q0 -186 333 -186q48 0 87 4l1 201l-1 193q-174 -10 -265 -44q-91 -36 -123 -78t-32 -90zM64 300q0 240 407 310q106 18 227 30q-8 136 -116 184q-88 38 -240 39q-54 1 -92 -1t-70 -3l20 166q60 3 188 3q271 0 405 -121q65 -58 95 -140t30 -216l-1 -552
q-325 -25 -463 -6t-217 55t-126 100q-47 66 -47 152zM841 1339l-493 -218l-62 116l483 245z" />
    <glyph glyph-name="acircumflex" unicode="&#xe2;" horiz-adv-x="1049" 
d="M286 312q0 -186 333 -186q48 0 87 4l1 201l-1 193q-174 -10 -265 -44q-91 -36 -123 -78t-32 -90zM64 300q0 240 407 310q106 18 227 30q-8 136 -116 184q-88 38 -240 39q-54 1 -92 -1t-70 -3l20 166q60 3 188 3q271 0 405 -121q65 -58 95 -140t30 -216l-1 -552
q-325 -25 -463 -6t-217 55t-126 100q-47 66 -47 152zM853 1202l-98 -97l-246 235h-3l-245 -235l-98 97l277 268h135z" />
    <glyph glyph-name="atilde" unicode="&#xe3;" horiz-adv-x="1030" 
d="M286 312q0 -186 333 -186q48 0 87 4l1 201l-1 193q-174 -10 -265 -44q-91 -36 -123 -78t-32 -90zM64 300q0 240 407 310q106 18 227 30q-8 136 -116 184q-88 38 -240 39q-54 1 -92 -1t-70 -3l20 166q60 3 188 3q271 0 405 -121q65 -58 95 -140t30 -216l-1 -552
q-325 -25 -463 -6t-217 55t-126 100q-47 66 -47 152zM397 1294q-37 0 -60 -34t-38 -107l-127 26q51 250 235 250q77 0 134 -45q73 -62 92 -70t48 -8q62 0 91 143l127 -25q-53 -253 -236 -253q-76 0 -131 45q-21 16 -37 30t-38 30q-23 18 -60 18z" />
    <glyph glyph-name="adieresis" unicode="&#xe4;" horiz-adv-x="1029" 
d="M286 312q0 -186 333 -186q48 0 87 4l1 201l-1 193q-174 -10 -265 -44q-91 -36 -123 -78t-32 -90zM64 300q0 240 407 310q106 18 227 30q-8 136 -116 184q-88 38 -240 39q-54 1 -92 -1t-70 -3l20 166q60 3 188 3q271 0 405 -121q65 -58 95 -140t30 -216l-1 -552
q-325 -25 -463 -6t-217 55t-126 100q-47 66 -47 152zM407 1196h-200v185h200v-185zM841 1196h-200v185h200v-185z" />
    <glyph glyph-name="aring" unicode="&#xe5;" horiz-adv-x="1035" 
d="M286 312q0 -186 333 -186q48 0 87 4l1 201l-1 193q-174 -10 -265 -44q-91 -36 -123 -78t-32 -90zM64 300q0 240 407 310q106 18 227 30q-8 136 -116 184q-88 38 -240 39q-54 1 -92 -1t-70 -3l20 166q60 3 188 3q271 0 405 -121q65 -58 95 -140t30 -216l-1 -552
q-325 -25 -463 -6t-217 55t-126 100q-47 66 -47 152zM642 1280q0 40 -30 66t-74 26q-46 0 -76 -26t-30 -67q0 -39 30 -67t76 -28t75 28t29 68zM770 1279q0 -82 -69 -140t-165 -58q-96 -1 -164 57t-68 141t69 139t165 57q96 0 164 -57t68 -139z" />
    <glyph glyph-name="ae" unicode="&#xe6;" horiz-adv-x="1645" 
d="M1387 640q-27 257 -237 257q-104 0 -171 -66.5t-89 -190.5h497zM283 314q0 -181 312 -181q113 0 161 6l-22 -137q-51 -8 -151 -8q-229 0 -334 49q-104 49 -146.5 111.5t-42.5 148.5q0 246 269.5 288.5t355.5 48.5q-5 142 -111 186q-90 37 -207 38q-118 0 -208 -6l21 164
q63 6 218 6q306 0 409 -171h3q59 91 152.5 137.5t196.5 46.5q197 0 316 -124q118 -124 118 -390h-690q0 -208 171 -302q116 -69 293 -69q69 0 144 5l-26 -162q-32 -5 -162 -5q-293 0 -467 155q-68 61 -115 158t-48 220q-410 -24 -410 -213z" />
    <glyph glyph-name="ccedilla" unicode="&#xe7;" horiz-adv-x="905" 
d="M779 846q-141 0 -256 -44q-229 -88 -229 -292q0 -102 54 -173t136 -106q144 -62 321 -62h55l-2 -145q-4 -230 -151 -316q-99 -55 -233 -61l-23 117q153 8 216 63t63 168q-264 10 -429 114q-234 142 -234 392q0 249 204 385t514 136h43l19 -176h-68z" />
    <glyph glyph-name="egrave" unicode="&#xe8;" horiz-adv-x="1036" 
d="M544 896q-104 0 -172 -64t-92 -194h502q-12 124 -74 191t-164 67zM992 526h-705q2 -203 169 -299q119 -70 303 -70q114 0 160 4l-25 -163q-57 -6 -189 -6q-132 1 -258 39q-127 38 -211 113q-170 150 -169 378q-1 119 31 207t103 164q138 148 343 148q204 0 320 -118
q128 -134 128 -397zM788 1238l-62 -117l-494 218l73 143z" />
    <glyph glyph-name="eacute" unicode="&#xe9;" horiz-adv-x="998" 
d="M544 896q-104 0 -172 -64t-92 -194h502q-12 124 -74 191t-164 67zM992 526h-705q2 -203 169 -299q119 -70 303 -70q114 0 160 4l-25 -163q-57 -6 -189 -6q-132 1 -258 39q-127 38 -211 113q-170 150 -169 378q-1 119 31 207t103 164q138 148 343 148q204 0 320 -118
q128 -134 128 -397zM911 1339l-493 -218l-62 116l483 245z" />
    <glyph glyph-name="ecircumflex" unicode="&#xea;" horiz-adv-x="1018" 
d="M544 896q-104 0 -172 -64t-92 -194h502q-12 124 -74 191t-164 67zM992 526h-705q2 -203 169 -299q119 -70 303 -70q114 0 160 4l-25 -163q-57 -6 -189 -6q-132 1 -258 39q-127 38 -211 113q-170 150 -169 378q-1 119 31 207t103 164q138 148 343 148q204 0 320 -118
q128 -134 128 -397zM912 1202l-98 -97l-246 235h-3l-245 -235l-98 97l277 268h135z" />
    <glyph glyph-name="edieresis" unicode="&#xeb;" horiz-adv-x="1015" 
d="M544 896q-104 0 -172 -64t-92 -194h502q-12 124 -74 191t-164 67zM992 526h-705q2 -203 169 -299q119 -70 303 -70q114 0 160 4l-25 -163q-57 -6 -189 -6q-132 1 -258 39q-127 38 -211 113q-170 150 -169 378q-1 119 31 207t103 164q138 148 343 148q204 0 320 -118
q128 -134 128 -397zM455 1196h-200v185h200v-185zM889 1196h-200v185h200v-185z" />
    <glyph glyph-name="igrave" unicode="&#xec;" horiz-adv-x="518" 
d="M367 511l2 -511h-221l2 506q0 224 -2 510h221zM460 1237l-65 -114l-410 212l78 139z" />
    <glyph glyph-name="iacute" unicode="&#xed;" horiz-adv-x="518" 
d="M367 511l2 -511h-221l2 506q0 224 -2 510h221zM535 1335l-410 -212l-65 114l397 237z" />
    <glyph glyph-name="icircumflex" unicode="&#xee;" horiz-adv-x="518" 
d="M367 511l2 -511h-221l2 506q0 224 -2 510h221zM545 1200l-105 -92l-182 225h-4l-182 -225l-105 92l230 272h118z" />
    <glyph glyph-name="idieresis" unicode="&#xef;" horiz-adv-x="518" 
d="M367 511l2 -511h-221l2 506q0 224 -2 510h221zM192 1196h-176v185h176v-185zM502 1196h-176v185h176v-185z" />
    <glyph glyph-name="eth" unicode="&#xf0;" horiz-adv-x="1142" 
d="M840 480q0 93 -44.5 186.5t-104.5 160.5q-122 -26 -214 -84q-79 -44 -129.5 -119.5t-50.5 -157.5q0 -156 81 -249q75 -79 188 -79q114 0 192 78q82 86 82 264zM1063 460q0 -226 -139 -357t-357 -131q-217 0 -355 135q-137 135 -137 333q0 237 226 380q127 83 301 117l1 2
q-68 87 -155 182l-176 -134l-61 81l170 124q-31 35 -137 150l162 127q76 -81 140 -156q150 113 167 128l68 -87q-16 -11 -57 -42t-106 -79q110 -112 235 -277q124 -164 167 -273.5t43 -222.5z" />
    <glyph glyph-name="ntilde" unicode="&#xf1;" horiz-adv-x="1161" 
d="M652 861q-98 0 -287 -104l-1 -313l3 -444h-222l2 495l-2 521h218l-1 -100l1 -1q81 46 191 86t206 40q136 0 212 -81t75 -218l-1 -335l2 -407h-222l2 360q0 211 -1 306t-39 145t-136 50zM488 1294q-37 0 -60 -34t-38 -107l-127 26q51 250 235 250q77 0 134 -45
q73 -62 92 -70t48 -8q62 0 91 143l127 -25q-53 -253 -236 -253q-76 0 -131 45q-21 16 -37 30t-38 30q-23 18 -60 18z" />
    <glyph glyph-name="ograve" unicode="&#xf2;" horiz-adv-x="1148" 
d="M758 217q99 101 99 295t-105 293q-70 70 -180 70t-188 -78q-96 -96 -96 -290t109 -298q70 -68 180 -68q109 0 181 76zM229 103q-162 154 -162 398t143 392t361 148q217 0 362 -145t145 -391t-161 -402q-138 -128 -345 -128t-343 128zM820 1238l-62 -117l-494 218l73 143z
" />
    <glyph glyph-name="oacute" unicode="&#xf3;" horiz-adv-x="1119" 
d="M758 217q99 101 99 295t-105 293q-70 70 -180 70t-188 -78q-96 -96 -96 -290t109 -298q70 -68 180 -68q109 0 181 76zM229 103q-162 154 -162 398t143 392t361 148q217 0 362 -145t145 -391t-161 -402q-138 -128 -345 -128t-343 128zM943 1339l-493 -218l-62 116l483 245
z" />
    <glyph glyph-name="ocircumflex" unicode="&#xf4;" horiz-adv-x="1131" 
d="M758 217q99 101 99 295t-105 293q-70 70 -180 70t-188 -78q-96 -96 -96 -290t109 -298q70 -68 180 -68q109 0 181 76zM229 103q-162 154 -162 398t143 392t361 148q217 0 362 -145t145 -391t-161 -402q-138 -128 -345 -128t-343 128zM949 1202l-98 -97l-246 235h-3
l-245 -235l-98 97l277 268h135z" />
    <glyph glyph-name="otilde" unicode="&#xf5;" horiz-adv-x="1131" 
d="M758 217q99 101 99 295t-105 293q-70 70 -180 70t-188 -78q-96 -96 -96 -290t109 -298q70 -68 180 -68q109 0 181 76zM229 103q-162 154 -162 398t143 392t361 148q217 0 362 -145t145 -391t-161 -402q-138 -128 -345 -128t-343 128zM733 1171q-76 0 -131 45
q-21 16 -37 30t-38 30q-22 18 -60 18q-37 0 -60 -34t-38 -107l-127 26q51 250 235 250q77 0 134 -45q73 -62 92 -70t48 -8q62 0 91 143l127 -25q-53 -253 -236 -253z" />
    <glyph glyph-name="odieresis" unicode="&#xf6;" horiz-adv-x="1126" 
d="M758 217q99 101 99 295t-105 293q-70 70 -180 70t-188 -78q-96 -96 -96 -290t109 -298q70 -68 180 -68q109 0 181 76zM229 103q-162 154 -162 398t143 392t361 148q217 0 362 -145t145 -391t-161 -402q-138 -128 -345 -128t-343 128zM487 1196h-200v185h200v-185z
M921 1196h-200v185h200v-185z" />
    <glyph glyph-name="divide.oldstyle" unicode="&#xf7;" horiz-adv-x="1333" 
d="M776 44h-218v214h218v-214zM1146 437h-958v145h958v-145zM776 761h-218v213h218v-213z" />
    <glyph glyph-name="oslash" unicode="&#xf8;" horiz-adv-x="1114" 
d="M775 174q118 118 118 325t-103 323q-34 -77 -92 -165q-57 -88 -145 -220t-185 -291q80 -62 202 -62q121 0 205 90zM870 915q160 -154 160 -406t-154 -406q-129 -127 -320 -127q-141 0 -253 72q-60 -88 -100 -154l-61 42q86 129 103 157q-163 151 -163 401t136 396
t338 146q145 0 257 -74l96 145l61 -39q-10 -14 -100 -153zM572 928q-84 0 -137.5 -22.5t-105.5 -74.5q-110 -110 -110 -315t97 -319q100 154 186 284t147 223t85 169q-78 55 -162 55z" />
    <glyph glyph-name="ugrave" unicode="&#xf9;" horiz-adv-x="1185" 
d="M359 368q-1 -214 149 -214q76 0 163 34q86 34 149 72l1 323l-3 433h222l-2 -468l2 -548h-217v101l-1 1q-78 -44 -188 -86t-208 -42q-136 0 -212 82t-76 232l1 342l-2 386h222l-2 -353zM830 1238l-62 -117l-494 218l73 143z" />
    <glyph glyph-name="uacute" unicode="&#xfa;" horiz-adv-x="1151" 
d="M359 368q-1 -214 149 -214q76 0 163 34q86 34 149 72l1 323l-3 433h222l-2 -468l2 -548h-217v101l-1 1q-78 -44 -188 -86t-208 -42q-136 0 -212 82t-76 232l1 342l-2 386h222l-2 -353zM953 1339l-493 -218l-62 116l483 245z" />
    <glyph glyph-name="ucircumflex" unicode="&#xfb;" horiz-adv-x="1164" 
d="M359 368q-1 -214 149 -214q76 0 163 34q86 34 149 72l1 323l-3 433h222l-2 -468l2 -548h-217v101l-1 1q-78 -44 -188 -86t-208 -42q-136 0 -212 82t-76 232l1 342l-2 386h222l-2 -353zM960 1202l-98 -97l-246 235h-3l-245 -235l-98 97l277 268h135z" />
    <glyph glyph-name="udieresis" unicode="&#xfc;" horiz-adv-x="1161" 
d="M359 368q-1 -214 149 -214q76 0 163 34q86 34 149 72l1 323l-3 433h222l-2 -468l2 -548h-217v101l-1 1q-78 -44 -188 -86t-208 -42q-136 0 -212 82t-76 232l1 342l-2 386h222l-2 -353zM497 1196h-200v185h200v-185zM931 1196h-200v185h200v-185z" />
    <glyph glyph-name="yacute" unicode="&#xfd;" horiz-adv-x="1052" 
d="M1037 972l-598 -1426l-203 57l178 415q-16 42 -151 356t-248 598l218 61q73 -209 180 -461t118 -281h5q12 33 112 269t183 472zM937 1339l-493 -218l-62 116l483 245z" />
    <glyph glyph-name="thorn" unicode="&#xfe;" horiz-adv-x="1127" 
d="M840 509q0 190 -151 279q-114 65 -298 65h-33v-131q0 -131 -1 -239l1 -328q329 4 405.5 130t76.5 224zM1063 535q0 -295 -260 -435q-177 -96 -438 -98l2 -457h-222l2 937l-2 984h222l-2 -445q284 -4 452 -94q246 -127 246 -392z" />
    <glyph glyph-name="ydieresis" unicode="&#xff;" horiz-adv-x="1040" 
d="M1037 972l-598 -1426l-203 57l178 415q-16 42 -151 356t-248 598l218 61q73 -209 180 -461t118 -281h5q12 33 112 269t183 472zM468 1196h-200v185h200v-185zM902 1196h-200v185h200v-185z" />
    <glyph glyph-name="Amacron" unicode="&#x100;" horiz-adv-x="1318" 
d="M657 1101l-226 -522l2 -1h454l2 1q-120 287 -227 522h-5zM-17 45q138 307 571 1302h232q149 -354 345 -799t219 -499l-228 -75q-29 78 -186 447h-550q-22 -49 -189 -447zM706 1615l377 1v-126l-372 1l-379 -1v126z" />
    <glyph glyph-name="amacron" unicode="&#x101;" horiz-adv-x="1044" 
d="M286 312q0 -186 333 -186q48 0 87 4l1 201l-1 193q-174 -10 -265 -44q-91 -36 -123 -78t-32 -90zM64 300q0 240 407 310q106 18 227 30q-8 136 -116 184q-88 38 -240 39q-54 1 -92 -1t-70 -3l20 166q60 3 188 3q271 0 405 -121q65 -58 95 -140t30 -216l-1 -552
q-325 -25 -463 -6t-217 55t-126 100q-47 66 -47 152zM530 1349l355 1v-125l-351 1l-353 -1v125z" />
    <glyph glyph-name="Abreve" unicode="&#x102;" horiz-adv-x="1325" 
d="M657 1101l-226 -522l2 -1h454l2 1q-120 287 -227 522h-5zM-17 45q138 307 571 1302h232q149 -354 345 -799t219 -499l-228 -75q-29 78 -186 447h-550q-22 -49 -189 -447zM708 1417q-226 0 -320 186q-24 48 -36 93l136 40q52 -194 217 -194t217 193l136 -39
q-30 -109 -82 -165q-106 -114 -268 -114z" />
    <glyph glyph-name="abreve" unicode="&#x103;" horiz-adv-x="1045" 
d="M286 312q0 -186 333 -186q48 0 87 4l1 201l-1 193q-174 -10 -265 -44q-91 -36 -123 -78t-32 -90zM64 300q0 240 407 310q106 18 227 30q-8 136 -116 184q-88 38 -240 39q-54 1 -92 -1t-70 -3l20 166q60 3 188 3q271 0 405 -121q65 -58 95 -140t30 -216l-1 -552
q-325 -25 -463 -6t-217 55t-126 100q-47 66 -47 152zM534 1249q168 0 212 212l131 -37q-26 -126 -110 -212t-231 -86q-146 0 -232 84t-114 214l131 37q21 -97 75 -155t138 -57z" />
    <glyph glyph-name="Aogonek" unicode="&#x104;" horiz-adv-x="1333" 
d="M1257 -63q0 -87 56 -127q56 -39 182 -41l-42 -129q-157 0 -246 68q-90 68 -90 191q0 40 7 73h-1q-47 124 -187 449h-550q-135 -309 -189 -447l-214 71q92 196 571 1302h232q151 -355 344.5 -790.5t216.5 -490.5l-75 -32q-15 -52 -15 -97zM657 1101l-226 -522l1 -1h455
l1 1q-90 216 -226 522h-5z" />
    <glyph glyph-name="aogonek" unicode="&#x105;" horiz-adv-x="1048" 
d="M771 -76q0 -69 48 -112q48 -42 181 -44l-41 -122q-231 0 -276 98t-45 150t10 93q-15 -1 -18 -1h-40q-217 2 -325 50q-201 89 -201 266q0 178 224 262q142 52 410 76q-8 136 -116 184q-88 38 -240 39q-55 0 -92.5 -1.5t-69.5 -2.5l20 166q60 3 188 3q271 0 405 -121
q65 -58 95 -140t30 -216l-1 -552q-14 -1 -53 -4t-86 -5q-7 -35 -7 -66zM286 312q0 -186 333 -186q48 0 87 4l1 201l-1 193q-174 -10 -265 -44q-91 -35 -123 -77.5t-32 -90.5z" />
    <glyph glyph-name="Cacute" unicode="&#x106;" horiz-adv-x="1086" 
d="M1035 -17q-492 0 -744 230q-203 180 -203 460q0 279 213 460q128 109 315 163t394 55h50q3 -26 9 -82t14 -117h-93t-188 -26t-224 -79t-176 -149t-69 -230q0 -255 252 -386q186 -100 464 -102h27q14 0 27 1q-10 -59 -25 -198h-43zM1144 1593l-536 -165l-47 126l526 193z
" />
    <glyph glyph-name="cacute" unicode="&#x107;" horiz-adv-x="912" 
d="M780 846q-142 0 -257 -44q-229 -88 -229 -292q0 -102 54 -173t136 -106q146 -62 322 -62h58l-21 -176h-55q-300 0 -488 116q-233 139 -233 392t215 393q195 128 503 128h43l19 -176h-67zM885 1339l-493 -218l-62 116l483 245z" />
    <glyph glyph-name="Ccaron" unicode="&#x10c;" horiz-adv-x="1125" 
d="M1035 -17q-492 0 -744 230q-203 180 -203 460q0 279 213 460q128 109 315 163t394 55h50q3 -26 9 -82t14 -117h-93t-188 -26t-224 -79t-176 -149t-69 -230q0 -255 252 -386q186 -100 464 -102h27q14 0 27 1q-10 -59 -25 -198h-43zM1185 1632l-303 -214h-139l-304 214
l97 106l274 -195h4l274 195z" />
    <glyph glyph-name="ccaron" unicode="&#x10d;" horiz-adv-x="905" 
d="M780 846q-142 0 -257 -44q-229 -88 -229 -292q0 -102 54 -173t136 -106q146 -62 322 -62h58l-21 -176h-55q-300 0 -488 116q-233 139 -233 392t215 393q195 128 503 128h43l19 -176h-67zM928 1373l-278 -268h-135l-277 268l98 97l245 -235h3l246 235z" />
    <glyph glyph-name="Dcaron" unicode="&#x10e;" horiz-adv-x="1428" 
d="M410 739q0 -291 2 -557h92q70 0 179 24t189 73q227 137 227 388t-208 382q-171 107 -437 107h-42q-2 -126 -2 -417zM1342 663q0 -167 -80 -301t-210 -212q-130 -80 -274 -118t-336 -37l-266 4l3 682q-3 501 -3 658l233 2q409 0 651 -153q282 -183 282 -525zM1048 1632
l-303 -214h-139l-304 214l97 106l274 -195h4l274 195z" />
    <glyph glyph-name="dcaron" unicode="&#x10f;" horiz-adv-x="1273" 
d="M1395 1410l-193 -429l-140 49l156 441zM777 845q-320 0 -404 -128t-84 -226q0 -191 169 -283q118 -65 297 -65h21l1 497v205zM66 488q0 304 299 440q174 79 405 85l-2 453h221l-2 -780l2 -697l-126 -1q-353 0 -531 92q-266 135 -266 408z" />
    <glyph glyph-name="Dcroat" unicode="&#x110;" horiz-adv-x="1443" 
d="M518 182q71 0 248.5 39t262.5 178t85 265q0 254 -208 385q-171 107 -437 107h-45q-2 -134 -2 -414l265 1v-109l-265 1l2 -453h94zM1356 663q0 -167 -79.5 -300t-209.5 -213t-274.5 -117.5t-335.5 -37.5l-266 4l2 618h-182v143h182l-2 579l232 2q410 0 652 -153
q281 -183 281 -525z" />
    <glyph glyph-name="dcroat" unicode="&#x111;" horiz-adv-x="1135" 
d="M777 845q-320 0 -404 -128t-84 -226q0 -191 169 -283q118 -65 297 -65h21l1 486v216zM987 1015v-329l2 -697l-126 -1q-355 0 -531 92q-266 135 -266 408q0 304 299 440q173 79 407 85v147l-343 -1v112l342 -1l-1 196h219l-1 -196l175 1v-112l-175 1q-1 -114 -1 -145z" />
    <glyph glyph-name="Emacron" unicode="&#x112;" horiz-adv-x="1170" 
d="M738 179l338 1v-179l-474 1l-426 -1l3 682l-3 654l413 -1l474 1v-179l-366 2l-292 -1l-1 -396l285 -1l369 1v-151l-364 2l-290 -2l1 -432zM688 1624l377 1v-126l-372 1l-379 -1v126z" />
    <glyph glyph-name="emacron" unicode="&#x113;" horiz-adv-x="1001" 
d="M544 896q-104 0 -172 -64t-92 -194h502q-12 124 -74 191t-164 67zM992 526h-705q2 -203 169 -299q119 -70 303 -70q114 0 160 4l-25 -163q-57 -6 -189 -6q-132 1 -258 39q-127 38 -211 113q-170 150 -169 378q-1 119 31 207t103 164q138 148 343 148q204 0 320 -118
q128 -134 128 -397zM580 1349l355 1v-125l-351 1l-353 -1v125z" />
    <glyph glyph-name="Edotaccent" unicode="&#x116;" horiz-adv-x="1178" 
d="M738 179l338 1v-179l-474 1l-426 -1l3 682l-3 654l413 -1l474 1v-179l-366 2l-292 -1l-1 -396l285 -1l369 1v-151l-364 2l-290 -2l1 -432zM816 1462h-248v197h248v-197z" />
    <glyph glyph-name="edotaccent" unicode="&#x117;" horiz-adv-x="1022" 
d="M544 896q-104 0 -172 -64t-92 -194h502q-12 124 -74 191t-164 67zM992 526h-705q2 -203 169 -299q119 -70 303 -70q114 0 160 4l-25 -163q-57 -6 -189 -6q-132 1 -258 39q-127 38 -211 113q-170 150 -169 378q-1 119 31 207t103 164q138 148 343 148q204 0 320 -118
q128 -134 128 -397zM685 1195h-225v188h225v-188z" />
    <glyph glyph-name="Eogonek" unicode="&#x118;" horiz-adv-x="1191" 
d="M1078 175q-38 -128 -38 -249q0 -70 45 -106q61 -51 193 -51l-43 -129q-148 0 -241 65q-94 65 -94 199q0 48 13 98h-311l-426 -1l3 682l-3 654l413 -1l474 1v-179l-366 2l-292 -1l-1 -396l285 -1l369 1v-151l-364 2l-290 -2l1 -432l333 -1l340 1v-5z" />
    <glyph glyph-name="eogonek" unicode="&#x119;" horiz-adv-x="1045" 
d="M506 -105q0 51 14 117q-175 33 -288 135q-165 148 -165 381q0 220 137 367q137 146 349 146q316 0 377.5 -193.5t61.5 -321.5h-705q2 -203 169 -299q119 -70 303 -70q114 0 160 4l-25 -163q-126 -13 -250 -2q-16 -131 38 -179q55 -47 187 -49l-41 -122q-232 3 -277 100.5
t-45 148.5zM544 896q-103 0 -171.5 -64.5t-92.5 -193.5h502q-12 124 -73.5 191t-164.5 67z" />
    <glyph glyph-name="Ecaron" unicode="&#x11a;" horiz-adv-x="1185" 
d="M738 179l338 1v-179l-474 1l-426 -1l3 682l-3 654l413 -1l474 1v-179l-366 2l-292 -1l-1 -396l285 -1l369 1v-151l-364 2l-290 -2l1 -432zM1067 1632l-303 -214h-139l-304 214l97 106l274 -195h4l274 195z" />
    <glyph glyph-name="ecaron" unicode="&#x11b;" horiz-adv-x="1019" 
d="M544 896q-104 0 -172 -64t-92 -194h502q-12 124 -74 191t-164 67zM992 526h-705q2 -203 169 -299q119 -70 303 -70q114 0 160 4l-25 -163q-57 -6 -189 -6q-132 1 -258 39q-127 38 -211 113q-170 150 -169 378q-1 119 31 207t103 164q138 148 343 148q204 0 320 -118
q128 -134 128 -397zM918 1373l-278 -268h-135l-277 268l98 97l245 -235h3l246 235z" />
    <glyph glyph-name="Gbreve" unicode="&#x11e;" horiz-adv-x="1308" 
d="M88 686q0 160 86 297q86 136 245 228q238 141 619 141l81 -1l24 -197h-125q-226 0 -426 -95q-112 -53 -186 -157q-75 -104 -75 -240q0 -138 64 -244t157 -156q176 -95 425 -99q0 238 -3 521h229q-2 -178 -2 -327l2 -359q-33 -10 -227 -9q-434 1 -684 219
q-204 175 -204 478zM892 1417q-226 0 -320 186q-24 48 -36 93l136 40q52 -194 217 -194t217 193l136 -39q-30 -109 -82 -165q-106 -114 -268 -114z" />
    <glyph glyph-name="gbreve" unicode="&#x11f;" horiz-adv-x="1106" 
d="M289 511q0 -193 170 -283q120 -63 287 -63h29l1 338l-1 351q-313 0 -433 -168q-52 -74 -53 -175zM763 16h-19q-278 0 -468 117q-90 56 -150 153q-60 98 -59 236q0 276 284 413q176 88 487 88h151l-2 -502l1 -443q0 -307 -231 -428q-209 -107 -552 -105l-25 164
q427 1 537 155q46 64 46 152zM640 1249q168 0 212 212l131 -37q-26 -126 -110 -212t-231 -86q-146 0 -232 84t-114 214l131 37q21 -97 75 -155t138 -57z" />
    <glyph glyph-name="uni0122" unicode="&#x122;" horiz-adv-x="1334" 
d="M88 686q0 160 85.5 296.5t245.5 228.5q238 141 619 141l81 -1l24 -197h-125q-84 0 -201 -22t-227 -74t-184.5 -155t-74.5 -241t64 -244t157 -156q176 -95 425 -99q0 238 -3 521h229q-2 -178 -2 -327l2 -359q-84 -8 -218 -8q-4 -144 -61 -212t-135 -113.5t-227 -45.5
l-26 128q171 8 237 66t68 184q-345 32 -549 211q-204 175 -204 478z" />
    <glyph glyph-name="uni0123" unicode="&#x123;" horiz-adv-x="1134" 
d="M289 511q0 -193 170 -283q120 -63 287 -63h29l1 338l-1 351q-313 0 -433 -168q-52 -74 -53 -175zM763 16h-19q-278 0 -468 117q-90 56 -150 153q-60 98 -59 236q0 276 284 413q176 88 487 88h151l-2 -502l1 -443q0 -307 -231 -428q-209 -107 -552 -105l-25 164
q427 1 537 155q46 64 46 152zM973 1339l-493 -218l-62 116l483 245z" />
    <glyph glyph-name="uni0123" unicode="&#x1f5;" horiz-adv-x="1134" 
d="M289 511q0 -193 170 -283q120 -63 287 -63h29l1 338l-1 351q-313 0 -433 -168q-52 -74 -53 -175zM763 16h-19q-278 0 -468 117q-90 56 -150 153q-60 98 -59 236q0 276 284 413q176 88 487 88h151l-2 -502l1 -443q0 -307 -231 -428q-209 -107 -552 -105l-25 164
q427 1 537 155q46 64 46 152zM973 1339l-493 -218l-62 116l483 245z" />
    <glyph glyph-name="Imacron" unicode="&#x12a;" horiz-adv-x="587" 
d="M407 697l3 -697h-233l2 675l-2 664h233zM290 1624l316 1v-126l-312 1l-318 -1v126z" />
    <glyph glyph-name="imacron" unicode="&#x12b;" horiz-adv-x="518" 
d="M254 1349l286 1v-125l-281 1l-284 -1v125zM367 511l2 -511h-221l2 506q0 224 -2 510h221z" />
    <glyph glyph-name="Iogonek" unicode="&#x12e;" horiz-adv-x="587" 
d="M306 -72q0 -73 43 -108q58 -51 194 -51l-43 -129q-148 0 -241 65q-94 65 -94 199q0 46 12 96l2 675l-2 664h233l-3 -642l3 -697h-99q-5 -37 -5 -72z" />
    <glyph glyph-name="iogonek" unicode="&#x12f;" horiz-adv-x="518" 
d="M276 0q-7 -35 -7 -89t34 -84q63 -55 195 -57l-41 -122q-144 2 -226 59q-95 71 -95 199q0 41 12 94l2 506q0 224 -2 510h221l-2 -505l2 -511h-93zM376 1214h-234v186h234v-186z" />
    <glyph glyph-name="Idotaccent" unicode="&#x130;" horiz-adv-x="587" 
d="M407 697l3 -697h-233l2 675l-2 664h233zM422 1462h-256v197h256v-197z" />
    <glyph glyph-name="dotlessi" unicode="&#x131;" horiz-adv-x="518" 
d="M367 511l2 -511h-221l2 506q0 224 -2 510h221z" />
    <glyph glyph-name="uni0136" unicode="&#x136;" horiz-adv-x="1302" 
d="M269 -1h-93l3 699l-3 641h237l-2 -668l3 -664q0 -358 -403 -388h-21l-26 128q167 7 236 66t69 186zM459 651q335 399 578 704l207 -91q-120 -144 -294 -343.5t-212 -255.5v-3q2 -2 200.5 -210.5t350.5 -371.5l-206 -101q-144 172 -357 386t-267 283v3z" />
    <glyph glyph-name="uni0137" unicode="&#x137;" horiz-adv-x="1087" 
d="M1025 952l-355 -423v-1l130 -156q130 -156 286 -354l-173 -88q-171 196 -326 367t-186 213v2q39 53 177 210.5t255 314.5zM238 -1h-93l2 776l-2 691h222l-2 -702l1 -759q0 -214 -151 -301q-96 -53 -233 -57l-23 117q159 6 219 59q60 54 60 176z" />
    <glyph glyph-name="Lacute" unicode="&#x139;" horiz-adv-x="1043" 
d="M651 194l401 1v-194l-458 1l-418 -1l3 694l-3 644h237l-2 -562l2 -582zM789 1593l-536 -165l-47 126l526 193z" />
    <glyph glyph-name="lacute" unicode="&#x13a;" horiz-adv-x="517" 
d="M367 768l2 -768h-221l2 761l-2 705h221zM598 1741l-487 -189l-52 121l478 218z" />
    <glyph glyph-name="uni013B" unicode="&#x13b;" horiz-adv-x="1072" 
d="M755 2q-2 -226 -177 -326q-98 -56 -245 -57l-26 128q171 8 238 67t67 188l-436 -1l3 694l-3 644h237l-2 -562l2 -582l238 -1l401 1v-194z" />
    <glyph glyph-name="uni013C" unicode="&#x13c;" horiz-adv-x="517" 
d="M241 0h-93l2 761l-2 705h221l-2 -698l2 -760q0 -218 -151 -305q-94 -50 -233 -56l-23 117q158 6 214 56q37 33 51 74.5t14 105.5z" />
    <glyph glyph-name="Lcaron" unicode="&#x13d;" horiz-adv-x="1081" 
d="M651 194l401 1v-194l-458 1l-418 -1l3 694l-3 644h237l-2 -562l2 -582zM988 1363l-212 -449l-151 52l175 461z" />
    <glyph glyph-name="lcaron" unicode="&#x13e;" horiz-adv-x="656" 
d="M775 1410l-193 -429l-140 49l156 441zM367 768l2 -768h-221l2 761l-2 705h221z" />
    <glyph glyph-name="Ldot" unicode="&#x13f;" horiz-adv-x="1080" 
d="M960 583h-235v229h235v-229zM651 194l401 1v-194l-458 1l-418 -1l3 694l-3 644h237l-2 -562l2 -582z" />
    <glyph glyph-name="ldot" unicode="&#x140;" horiz-adv-x="671" 
d="M704 425h-219v222h219v-222zM367 768l2 -768h-221l2 761l-2 705h221z" />
    <glyph glyph-name="Lslash" unicode="&#x141;" horiz-adv-x="1080" 
d="M418 540l2 -345l238 -1l402 1v-194l-458 1l-418 -1q0 86 1 213t1 237l-130 -60l-54 125l184 78v118l-2 627h236l-2 -560v-96q148 64 312 143l56 -126z" />
    <glyph glyph-name="lslash" unicode="&#x142;" horiz-adv-x="522" 
d="M150 0q0 39 1 205t2 442l-141 -68l-52 118q23 9 192 86q0 359 -2 683h222q-2 -190 -2 -598q115 52 164 79l52 -119l-217 -98l3 -730h-222z" />
    <glyph glyph-name="Nacute" unicode="&#x143;" horiz-adv-x="1513" 
d="M1153 376l-5 963h223l-2 -628l2 -659l-177 -65q-238 321 -492 637t-304 384l-3 -2l5 -1006h-224l3 629l-3 651l198 71q50 -64 312 -401t464 -575zM1228 1574l-536 -165l-47 126l526 193z" />
    <glyph glyph-name="nacute" unicode="&#x144;" horiz-adv-x="1153" 
d="M652 861q-98 0 -287 -104l-1 -313l3 -444h-222l2 495l-2 521h218l-1 -100l1 -1q81 46 191 86t206 40q136 0 212 -81t75 -218l-1 -335l2 -407h-222l2 360q0 211 -1 306t-39 145t-136 50zM953 1339l-493 -218l-62 116l483 245z" />
    <glyph glyph-name="uni0145" unicode="&#x145;" horiz-adv-x="1548" 
d="M255 0h-79q3 138 3 421t-3 859l198 71q484 -634 775 -976l3 1l-4 963h223l-2 -632l3 -655l-178 -65q-263 343 -503 645.5t-293 375.5l-3 -1l5 -999q0 -289 -170.5 -339t-252.5 -50l-27 128q171 9 238 67q67 59 67 186z" />
    <glyph glyph-name="uni0146" unicode="&#x146;" horiz-adv-x="1185" 
d="M655 861q-95 0 -290 -104l-1 -313l2 -436q0 -345 -384 -361l-23 117q159 6 219 59q60 54 60 177h-93l2 495l-2 521h218l-1 -100l1 -1q77 44 188.5 85t208.5 41q136 0 211.5 -81t75.5 -220l-1 -333l2 -407h-222l2 360q0 211 -1 306t-39 145t-133 50z" />
    <glyph glyph-name="Ncaron" unicode="&#x147;" horiz-adv-x="1542" 
d="M1153 376l-5 963h223l-2 -628l2 -659l-177 -65q-238 321 -492 637t-304 384l-3 -2l5 -1006h-224l3 629l-3 651l198 71q50 -64 312 -401t464 -575zM1227 1613l-303 -214h-139l-304 214l97 106l274 -195h4l274 195z" />
    <glyph glyph-name="ncaron" unicode="&#x148;" horiz-adv-x="1165" 
d="M652 861q-98 0 -287 -104l-1 -313l3 -444h-222l2 495l-2 521h218l-1 -100l1 -1q81 46 191 86t206 40q136 0 212 -81t75 -218l-1 -335l2 -407h-222l2 360q0 211 -1 306t-39 145t-136 50zM970 1373l-278 -268h-135l-277 268l98 97l245 -235h3l246 235z" />
    <glyph glyph-name="napostrophe" unicode="&#x149;" horiz-adv-x="1122" 
d="M652 861q-98 0 -287 -104l-1 -313l3 -444h-222l2 495l-2 521h218l-1 -100l1 -1q81 46 191 86t206 40q136 0 212 -81t75 -218l-1 -335l2 -407h-222l2 360q0 211 -1 306t-39 145t-136 50zM914 -202l-445 -212l-60 120l433 237z" />
    <glyph glyph-name="Omacron" unicode="&#x14c;" horiz-adv-x="1504" 
d="M1024 257q152 150 152 413t-152 409q-110 108 -269 108t-272 -111q-149 -145 -149 -408q0 -262 152 -410q109 -107 269 -107q159 0 269 106zM1217 1195q202 -202 202 -527t-203 -525q-182 -180 -460 -180t-459 179q-206 204 -206 525t200 527q182 180 463 180
q280 0 463 -179zM789 1624l377 1v-126l-372 1l-379 -1v126z" />
    <glyph glyph-name="omacron" unicode="&#x14d;" horiz-adv-x="1132" 
d="M758 217q99 101 99 295t-105 293q-70 70 -180 70t-188 -78q-96 -96 -96 -290t109 -298q70 -68 180 -68q109 0 181 76zM229 103q-162 154 -162 398t143 392t361 148q217 0 362 -145t145 -391t-161 -402q-138 -128 -345 -128t-343 128zM601 1349l355 1v-125l-351 1l-353 -1
v125z" />
    <glyph glyph-name="Ohungarumlaut" unicode="&#x150;" horiz-adv-x="1486" 
d="M1024 257q152 150 152 413t-152 409q-110 108 -269 108t-272 -111q-149 -145 -149 -408q0 -262 152 -410q109 -107 269 -107q159 0 269 106zM1217 1195q202 -202 202 -527t-203 -525q-182 -180 -460 -180t-459 179q-206 204 -206 525t200 527q182 180 463 180
q280 0 463 -179zM1314 1709l-327 -270l-118 63l307 288zM927 1711l-319 -268l-118 63l306 288z" />
    <glyph glyph-name="ohungarumlaut" unicode="&#x151;" horiz-adv-x="1133" 
d="M758 217q99 101 99 295t-105 293q-70 70 -180 70t-188 -78q-96 -96 -96 -290t109 -298q70 -68 180 -68q109 0 181 76zM229 103q-162 154 -162 398t143 392t361 148q217 0 362 -145t145 -391t-161 -402q-138 -128 -345 -128t-343 128zM1108 1407l-313 -293l-114 65
l295 307zM732 1411l-306 -291l-114 65l293 307z" />
    <glyph glyph-name="OE" unicode="&#x152;" horiz-adv-x="1988" 
d="M961 1161q-260 0 -422 -106q-204 -137 -204 -388q0 -127 58.5 -228t155.5 -159t199.5 -81t238.5 -23l2 578q0 223 -2 407h-26zM1872 180v-179l-422 1l-460 -2q-377 0 -602 140q-297 185 -297 525.5t286 524.5q228 148 658 148l431 -2l393 1v-179l-352 2l-291 -1l-2 -395
l233 -1l407 1v-152l-401 2l-239 -1l2 -434l331 -1q198 2 325 2z" />
    <glyph glyph-name="oe" unicode="&#x153;" horiz-adv-x="1807" 
d="M752 216q100 104 100 294q0 191 -105 294q-72 70 -180 70t-184 -78q-96 -100 -96 -292t109 -295q68 -68 178 -68q109 0 178 75zM1312 896q-104 0 -172 -65t-91 -190h499q-13 122 -72.5 188.5t-163.5 66.5zM565 1041q257 0 388 -198h4q53 89 150.5 143.5t205.5 54.5
q321 0 382 -192t61 -321h-695q0 -208 168 -303q118 -68 277 -68t176 3l-26 -162q-32 -4 -151 -4q-367 0 -528 213h-3q-59 -108 -165.5 -170t-223.5 -62q-221 0 -358 127q-162 154 -162 397t146 400q138 142 354 142z" />
    <glyph glyph-name="Racute" unicode="&#x154;" horiz-adv-x="1230" 
d="M856 924q0 243 -362 243l-81 -1q-2 -300 -2 -514l2 -652h-237l3 679l-2 659q80 4 238 4q297 0 428 -48t193 -134t62 -200t-62 -208t-170 -151v-5q88 -108 234 -283t187 -236l-211 -98q-23 35 -168 215t-325 408l3 16q112 29 192 109t78 197zM998 1593l-536 -165l-47 126
l526 193z" />
    <glyph glyph-name="racute" unicode="&#x155;" horiz-adv-x="795" 
d="M365 675l-1 -255l3 -420h-222l2 485l-2 531h218l-2 -155l2 -1q106 66 224 116t173 67l59 -187q-222 -66 -454 -181zM754 1339l-493 -218l-62 116l483 245z" />
    <glyph glyph-name="uni0156" unicode="&#x156;" horiz-adv-x="1298" 
d="M856 924q0 243 -362 243l-81 -1q-2 -300 -2 -514l2 -645q0 -227 -167 -324q-92 -54 -237 -64h-19l-26 128q170 8 237 67t67 186h-92l3 679l-2 659q84 4 241 4t251.5 -11t194.5 -47t167 -120t67 -200t-62.5 -211.5t-173.5 -152.5v-5q78 -95 230 -274.5t196 -245.5
l-212 -96q-33 52 -172 222.5t-321 400.5l3 16q109 26 190 107q82 82 80 199z" />
    <glyph glyph-name="uni0157" unicode="&#x157;" horiz-adv-x="793" 
d="M238 0h-93l2 485l-2 531h218l-2 -155l2 -1q105 66 221 116t176 67l59 -187q-202 -54 -454 -181l-1 -255l3 -412q0 -346 -385 -361l-23 117q160 6 214 56q65 56 65 180z" />
    <glyph glyph-name="Rcaron" unicode="&#x158;" horiz-adv-x="1261" 
d="M856 924q0 243 -362 243l-81 -1q-2 -300 -2 -514l2 -652h-237l3 679l-2 659q80 4 238 4q297 0 428 -48t193 -134t62 -200t-62 -208t-170 -151v-5q88 -108 234 -283t187 -236l-211 -98q-23 35 -168 215t-325 408l3 16q112 29 192 109t78 197zM1010 1632l-303 -214h-139
l-304 214l97 106l274 -195h4l274 195z" />
    <glyph glyph-name="rcaron" unicode="&#x159;" horiz-adv-x="801" 
d="M365 675l-1 -255l3 -420h-222l2 485l-2 531h218l-2 -155l2 -1q106 66 224 116t173 67l59 -187q-222 -66 -454 -181zM788 1373l-278 -268h-135l-277 268l98 97l245 -235h3l246 235z" />
    <glyph glyph-name="Sacute" unicode="&#x15a;" horiz-adv-x="1035" 
d="M733 1164q-130 0 -232 -51q-43 -20 -71 -57q-28 -36 -28 -88q0 -98 146 -172q55 -28 112 -54t106 -54q214 -114 214 -313t-200 -306q-160 -86 -434 -88q-155 0 -236 9l-22 194q66 -11 183 -11q427 0 431 205q2 112 -147 186q-43 22 -109 54t-140 72t-128 114
q-55 74 -55 162q0 161 128 258q158 130 461 130q127 0 211 -6l24 -192q-160 8 -214 8zM914 1593l-536 -165l-47 126l526 193z" />
    <glyph glyph-name="sacute" unicode="&#x15b;" horiz-adv-x="818" 
d="M638 863q-300 0 -300 -131q0 -64 96 -116q50 -24 108 -49t119 -58q131 -71 131 -216t-153 -231q-125 -71 -383 -73q-99 0 -183 6l-18 164q81 -6 182 -6q306 0 306 139q0 66 -93 115q-36 18 -100 46q-64 29 -126 63q-133 74 -133 220t166 227q118 61 337 63l158 -2
l18 -164q-54 3 -132 3zM776 1339l-493 -218l-62 116l483 245z" />
    <glyph glyph-name="Scedilla" unicode="&#x15e;" horiz-adv-x="1076" 
d="M777 1164q-264 0 -319.5 -73.5t-55.5 -124.5q0 -98 146 -170q55 -27 112 -53.5t106 -54.5q214 -113 214 -313q0 -225 -140.5 -283.5t-168.5 -66.5q0 -246 -167 -343q-97 -53 -234 -62l-23 -1l-26 128q172 8 237 67q66 59 68 181q-141 -20 -270 -13.5t-146 8.5l-22 194
q93 -11 197 -11q195 0 295 46q120 52 122 161t-147 185q-41 20 -108 52.5t-115 58.5q-209 114 -209 291t175 288q77 48 189.5 73.5t243.5 25.5t192 -6l24 -192q-75 8 -170 8z" />
    <glyph glyph-name="scedilla" unicode="&#x15f;" horiz-adv-x="855" 
d="M634 863q-211 0 -253.5 -48.5t-42.5 -82.5q0 -65 96 -116q49 -24 108 -49t119 -58q131 -73 131 -217q0 -145 -153 -230q-48 -26 -97 -37q1 -118 -55 -242.5t-329 -135.5l-24 117q155 6 217 59q63 53 63 176q-68 -10 -180 -10t-161 6l-18 164q72 -6 182 -6q306 0 306 139
q0 66 -93 115q-35 18 -99.5 46t-126.5 63t-97.5 92t-35.5 127q0 146 166 228q118 61 337 63l158 -2l18 -164q-60 3 -136 3z" />
    <glyph glyph-name="Scaron" unicode="&#x160;" horiz-adv-x="1007" 
d="M733 1164q-130 0 -232 -51q-43 -20 -71 -57q-28 -36 -28 -88q0 -98 146 -172q55 -28 112 -54t106 -54q214 -114 214 -313t-200 -306q-160 -86 -434 -88q-155 0 -236 9l-22 194q66 -11 183 -11q427 0 431 205q2 112 -147 186q-43 22 -109 54t-140 72t-128 114
q-55 74 -55 162q0 161 128 258q158 130 461 130q127 0 211 -6l24 -192q-160 8 -214 8zM985 1632l-303 -214h-139l-304 214l97 106l274 -195h4l274 195z" />
    <glyph glyph-name="scaron" unicode="&#x161;" horiz-adv-x="823" 
d="M638 863q-300 0 -300 -131q0 -64 96 -116q50 -24 108 -49t119 -58q131 -71 131 -216t-153 -231q-125 -71 -383 -73q-99 0 -183 6l-18 164q81 -6 182 -6q306 0 306 139q0 66 -93 115q-36 18 -100 46q-64 29 -126 63q-133 74 -133 220t166 227q118 61 337 63l158 -2
l18 -164q-54 3 -132 3zM823 1373l-278 -268h-135l-277 268l98 97l245 -235h3l246 235z" />
    <glyph glyph-name="uni0162" unicode="&#x162;" horiz-adv-x="1147" 
d="M546 0h-91l3 593q0 213 -2 551l-461 -1v194l574 -1l583 1v-194l-462 1l-2 -551l3 -586q0 -294 -175.5 -341t-247.5 -47l-26 128q170 8 237 66q67 59 67 187z" />
    <glyph glyph-name="uni0162" unicode="&#x21a;" horiz-adv-x="1147" 
d="M546 0h-91l3 593q0 213 -2 551l-461 -1v194l574 -1l583 1v-194l-462 1l-2 -551l3 -586q0 -294 -175.5 -341t-247.5 -47l-26 128q170 8 237 66q67 59 67 187z" />
    <glyph glyph-name="uni0163" unicode="&#x163;" horiz-adv-x="771" 
d="M744 15q0 -357 -384 -368l-24 117q157 6 218 60q62 54 62 170q-432 6 -432 353l3 506h-168v163h172v253h213v-253h349v-163h-349l-2 -229l2 -231q0 -127 64 -182t224 -55l52 1v-142z" />
    <glyph glyph-name="Tcaron" unicode="&#x164;" horiz-adv-x="1134" 
d="M569 1336l583 1v-194l-462 1l-2 -551l3 -593h-236l3 593q0 213 -2 551l-461 -1v194zM978 1632l-303 -214h-139l-304 214l97 106l274 -195h4l274 195z" />
    <glyph glyph-name="tcaron" unicode="&#x165;" horiz-adv-x="801" 
d="M800 1439l-178 -361l-136 44l149 376zM19 853v163h172v253h208v-258h354v-158h-349l-2 -229l2 -231q0 -119 61.5 -178t226.5 -59q21 0 37 0.5t25 0.5l-22 -162l-106 -3q-442 0 -442 355l3 506h-168z" />
    <glyph glyph-name="Umacron" unicode="&#x16a;" horiz-adv-x="1508" 
d="M406 505q0 -182 94 -265t252 -83q158 -1 250 83t91 260l1 318l-2 521h236l-3 -506l1 -342q0 -254 -154 -387q-166 -137 -428 -137t-422 139q-76 67 -114 159t-37 229l2 341l-3 504h238l-2 -518v-316zM788 1615l377 1v-126l-372 1l-379 -1v126z" />
    <glyph glyph-name="umacron" unicode="&#x16b;" horiz-adv-x="1157" 
d="M359 368q-1 -214 149 -214q76 0 163 34q86 34 149 72l1 323l-3 433h222l-2 -468l2 -548h-217v101l-1 1q-78 -44 -188 -86t-208 -42q-136 0 -212 82t-76 232l1 342l-2 386h222l-2 -353zM619 1349l355 1v-125l-351 1l-353 -1v125z" />
    <glyph glyph-name="Uring" unicode="&#x16e;" horiz-adv-x="1507" 
d="M406 505q0 -182 94 -265t252 -83q158 -1 250 83t91 260l1 318l-2 521h236l-3 -506l1 -342q0 -254 -154 -387q-166 -137 -428 -137t-422 139q-76 67 -114 159t-37 229l2 341l-3 504h238l-2 -518v-316zM906 1532q0 44 -31 72t-80 28t-81 -28t-32 -72t32 -74t81 -30t80 30
t31 74zM1040 1530q0 -88 -73 -148q-73 -62 -175 -62t-172 61q-71 61 -71 150q1 89 73 149t172 59t174 -61q72 -60 72 -148z" />
    <glyph glyph-name="uring" unicode="&#x16f;" horiz-adv-x="1162" 
d="M359 368q-1 -214 149 -214q76 0 163 34q86 34 149 72l1 323l-3 433h222l-2 -468l2 -548h-217v101l-1 1q-78 -44 -188 -86t-208 -42q-136 0 -212 82t-76 232l1 342l-2 386h222l-2 -353zM725 1270q1 40 -29 66t-76 27q-46 -1 -75 -27q-30 -26 -30 -66t30 -68t76 -27
q46 0 75 28q29 27 29 67zM853 1270q0 -82 -69 -140q-70 -58 -166 -58t-164 58t-67 140q0 84 69 140q68 56 164 56t164 -57t69 -139z" />
    <glyph glyph-name="Uhungarumlaut" unicode="&#x170;" horiz-adv-x="1482" 
d="M406 505q0 -182 94 -265t252 -83q158 -1 250 83t91 260l1 318l-2 521h236l-3 -506l1 -342q0 -254 -154 -387q-166 -137 -428 -137t-422 139q-76 67 -114 159t-37 229l2 341l-3 504h238l-2 -518v-316zM1316 1709l-327 -270l-118 63l307 288zM929 1711l-319 -268l-118 63
l306 288z" />
    <glyph glyph-name="uhungarumlaut" unicode="&#x171;" horiz-adv-x="1178" 
d="M359 368q-1 -214 149 -214q76 0 163 34q86 34 149 72l1 323l-3 433h222l-2 -468l2 -548h-217v101l-1 1q-78 -44 -188 -86t-208 -42q-136 0 -212 82t-76 232l1 342l-2 386h222l-2 -353zM1098 1407l-313 -293l-114 65l295 307zM722 1411l-306 -291l-114 65l293 307z" />
    <glyph glyph-name="Uogonek" unicode="&#x172;" horiz-adv-x="1498" 
d="M781 -86q0 -145 243 -145l-43 -129q-151 0 -246 66t-95 198q0 17 2 35l4 36q-195 19 -324 131q-76 67 -113.5 159t-37.5 229l2 341l-3 504h238l-2 -518v-316q0 -182 94 -265t252 -83t249.5 83.5t91.5 259.5l1 318l-2 521h236l-3 -506l1 -342q0 -256 -154 -387
q-155 -128 -388 -134q-1 -12 -2 -22.5t-1 -33.5z" />
    <glyph glyph-name="uogonek" unicode="&#x173;" horiz-adv-x="1185" 
d="M359 368q-1 -214 149 -214q76 0 162.5 33.5t149.5 72.5l1 323l-3 433h222l-2 -468l2 -548h-89q-7 -35 -7 -89t34 -84q65 -57 195 -57l-41 -122q-141 0 -226 59q-95 72 -95 188q0 51 12 105v101l-1 1q-79 -45 -188.5 -86.5t-207.5 -41.5q-137 0 -212.5 82t-75.5 232l1 342
l-2 386h222l-2 -353z" />
    <glyph glyph-name="Ydieresis" unicode="&#x178;" horiz-adv-x="1151" 
d="M715 0h-239q0 46 2 202t1 379q-105 158 -281 406t-199 288l215 89q19 -38 149 -221t237 -340h1q106 158 241 346t147 214l202 -87q-16 -30 -198 -280t-281 -404q-1 -184 1 -362t2 -230zM478 1456h-217v196h217v-196zM983 1456h-217v196h217v-196z" />
    <glyph glyph-name="Zacute" unicode="&#x179;" horiz-adv-x="1199" 
d="M371 193h814v-192l-564 1l-519 -1l-65 143q272 327 785 999l-1 3l-297 1l-427 -1v191l485 -1l508 1l67 -140q-156 -209 -786 -1001v-3zM988 1593l-536 -165l-47 126l526 193z" />
    <glyph glyph-name="zacute" unicode="&#x17a;" horiz-adv-x="950" 
d="M566 167l344 2v-165l-437 1l-384 -1l-52 107q371 475 553 737l-1 2h-205l-317 -1v162l371 -1l390 1l60 -102q-517 -684 -554 -740l1 -2h231zM823 1339l-493 -218l-62 116l483 245z" />
    <glyph glyph-name="Zdotaccent" unicode="&#x17b;" horiz-adv-x="1206" 
d="M371 193h814v-192l-564 1l-519 -1l-65 143q272 327 785 999l-1 3l-297 1l-427 -1v191l485 -1l508 1l67 -140q-156 -209 -786 -1001v-3zM767 1462h-248v197h248v-197z" />
    <glyph glyph-name="zdotaccent" unicode="&#x17c;" horiz-adv-x="943" 
d="M566 167l344 2v-165l-437 1l-384 -1l-52 107q371 475 553 737l-1 2h-205l-317 -1v162l371 -1l390 1l60 -102q-517 -684 -554 -740l1 -2h231zM627 1195h-225v188h225v-188z" />
    <glyph glyph-name="Zcaron" unicode="&#x17d;" horiz-adv-x="1208" 
d="M371 193h814v-192l-564 1l-519 -1l-65 143q272 327 785 999l-1 3l-297 1l-427 -1v191l485 -1l508 1l67 -140q-156 -209 -786 -1001v-3zM1015 1632l-303 -214h-139l-304 214l97 106l274 -195h4l274 195z" />
    <glyph glyph-name="zcaron" unicode="&#x17e;" horiz-adv-x="942" 
d="M566 167l344 2v-165l-437 1l-384 -1l-52 107q371 475 553 737l-1 2h-205l-317 -1v162l371 -1l390 1l60 -102q-517 -684 -554 -740l1 -2h231zM858 1373l-278 -268h-135l-277 268l98 97l245 -235h3l246 235z" />
    <glyph glyph-name="florin.oldstyle" unicode="&#x192;" horiz-adv-x="1051" 
d="M962 1154q-188 0 -236 -102t-64.5 -211t-17.5 -120l297 1v-144l-320 1q-5 -31 -27.5 -186t-43.5 -265q-40 -207 -153 -305q-140 -123 -375 -123q-41 0 -85 2l-29 177q58 -4 115 -4t115.5 18.5t92.5 49.5q77 70 100 204q24 133 43.5 269.5t23.5 162.5l-219 -1v144l240 -1
q2 11 10.5 63.5t22.5 135.5q50 286 225 348.5t294 62.5l98 -2l29 -178q-80 3 -136 3z" />
    <glyph glyph-name="uni0218" unicode="&#x218;" horiz-adv-x="1002" 
d="M733 1164q-130 0 -232 -51q-43 -20 -71 -57q-28 -36 -28 -88q0 -98 146 -172q55 -28 112 -54t106 -54q214 -114 214 -313t-200 -306q-160 -86 -434 -88q-155 0 -236 9l-22 194q66 -11 183 -11q427 0 431 205q2 112 -147 186q-43 22 -109 54t-140 72t-128 114
q-55 74 -55 162q0 161 128 258q158 130 461 130q127 0 211 -6l24 -192q-160 8 -214 8zM797 -202l-445 -212l-60 120l433 237z" />
    <glyph glyph-name="uni0219" unicode="&#x219;" horiz-adv-x="745" 
d="M638 863q-300 0 -300 -131q0 -64 96 -116q50 -24 108 -49t119 -58q131 -71 131 -216t-153 -231q-125 -71 -383 -73q-99 0 -183 6l-18 164q81 -6 182 -6q306 0 306 139q0 66 -93 115q-36 18 -100 46q-64 29 -126 63q-133 74 -133 220t166 227q118 61 337 63l158 -2
l18 -164q-54 3 -132 3zM767 -202l-445 -212l-60 120l433 237z" />
    <glyph glyph-name="uni021B" unicode="&#x21b;" horiz-adv-x="676" 
d="M692 156h36t26 1l-22 -162q-42 -3 -106 -3q-218 0 -330 86t-112 272l3 503h-168v163h172v253h213v-253h349v-163h-349l-2 -229l2 -229q0 -127 64 -183t224 -56zM857 -202l-445 -212l-60 120l433 237z" />
    <glyph glyph-name="circumflex" unicode="&#x2c6;" horiz-adv-x="842" 
d="M766 1202l-98 -97l-246 235h-3l-245 -235l-98 97l277 268h135z" />
    <glyph glyph-name="caron" unicode="&#x2c7;" horiz-adv-x="842" 
d="M767 1373l-278 -268h-135l-277 268l98 97l245 -235h3l246 235z" />
    <glyph glyph-name="breve" unicode="&#x2d8;" horiz-adv-x="842" 
d="M420 1249q168 0 212 212l131 -37q-26 -127 -110 -212.5t-231 -85.5t-232.5 83.5t-113.5 214.5l131 37q21 -97 74.5 -154.5t138.5 -57.5z" />
    <glyph glyph-name="dotaccent" unicode="&#x2d9;" horiz-adv-x="842" 
d="M534 1195h-225v188h225v-188z" />
    <glyph glyph-name="ring" unicode="&#x2da;" horiz-adv-x="842" 
d="M526 1280q0 40 -29 66t-75 26t-76 -26.5t-30 -66.5t30 -67.5t76 -27.5t75 28t29 68zM654 1279q0 -82 -69 -140t-165 -58t-164 57.5t-68 140.5t69 139.5t165 56.5t164 -57t68 -139z" />
    <glyph glyph-name="ogonek" unicode="&#x2db;" horiz-adv-x="842" 
d="M683 22q-8 -53 -8 -109t33 -86q64 -57 195 -57l-40 -122q-141 0 -226 59q-96 71 -96 199q0 53 17 116h125z" />
    <glyph glyph-name="tilde" unicode="&#x2dc;" horiz-adv-x="842" 
d="M550 1171q-76 0 -131 45q-21 16 -37 29t-38 31t-60 18q-37 0 -60 -34.5t-38 -106.5l-127 26q51 250 235 250q77 0 134 -45q73 -62 92 -70t48 -8q62 0 91 143l127 -25q-53 -253 -236 -253z" />
    <glyph glyph-name="hungarumlaut" unicode="&#x2dd;" horiz-adv-x="842" 
d="M925 1407l-313 -293l-114 65l295 307zM549 1411l-306 -291l-114 65l293 307z" />
    <glyph glyph-name="gravecomb" unicode="&#x300;" 
d="M637 1238l-62 -117l-494 218l73 143z" />
    <glyph glyph-name="acutecomb" unicode="&#x301;" 
d="M760 1339l-493 -218l-62 116l483 245z" />
    <glyph glyph-name="uni0302" unicode="&#x302;" 
d="M766 1202l-98 -97l-246 235h-3l-245 -235l-98 97l277 268h135z" />
    <glyph glyph-name="tildecomb" unicode="&#x303;" 
d="M550 1171q-76 0 -131 45q-21 16 -37 30t-38 30q-22 18 -60 18q-37 0 -60 -34t-38 -107l-127 26q51 250 235 250q77 0 134 -45q73 -62 92 -70t48 -8q62 0 91 143l127 -25q-53 -253 -236 -253z" />
    <glyph glyph-name="uni0304" unicode="&#x304;" 
d="M418 1349l355 1v-125l-351 1l-353 -1v125z" />
    <glyph glyph-name="uni0306" unicode="&#x306;" 
d="M420 1249q168 0 212 212l131 -37q-26 -126 -110 -212t-231 -86q-146 0 -232 84t-114 214l131 37q21 -97 75 -155t138 -57z" />
    <glyph glyph-name="uni0307" unicode="&#x307;" 
d="M534 1195h-225v188h225v-188z" />
    <glyph glyph-name="uni0308" unicode="&#x308;" 
d="M304 1196h-200v185h200v-185zM738 1196h-200v185h200v-185z" />
    <glyph glyph-name="uni030A" unicode="&#x30a;" 
d="M526 1280q0 40 -30 66t-74 26q-46 0 -76 -26t-30 -67q0 -39 30 -67t76 -28t75 28t29 68zM654 1279q0 -82 -69 -140t-165 -58q-96 -1 -164 57t-68 141t69 139t165 57q96 0 164 -57t68 -139z" />
    <glyph glyph-name="uni030B" unicode="&#x30b;" 
d="M925 1407l-313 -293l-114 65l295 307zM549 1411l-306 -291l-114 65l293 307z" />
    <glyph glyph-name="uni030C" unicode="&#x30c;" 
d="M767 1373l-278 -268h-135l-277 268l98 97l245 -235h3l246 235z" />
    <glyph glyph-name="uni0326" unicode="&#x326;" 
d="M-474 -160l-352 -275l-75 81l338 293z" />
    <glyph glyph-name="uni0327" unicode="&#x327;" 
d="M584 -3v27h128q-2 -112 -34 -192q-48 -118 -214 -166q-60 -17 -136 -19l-24 117q159 6 219 60q61 54 61 173z" />
    <glyph glyph-name="uni0328" unicode="&#x328;" 
d="M683 22q-8 -53 -8 -109t33 -86q64 -57 195 -57l-40 -122q-141 0 -226 59q-96 71 -96 199q0 53 17 116h125z" />
    <glyph glyph-name="uni0338" unicode="&#x338;" 
d="M724 1333q-60 -151 -145 -383t-181 -490t-195 -546t-119 -343l-159 54q70 176 334 915q91 244 169 468t134 378z" />
    <glyph glyph-name="uni03A9" unicode="&#x3a9;" horiz-adv-x="1516" 
d="M1172 712q0 225 -129 360q-107 115 -283 115t-286 -113q-131 -133 -131 -343t107 -362q75 -114 199 -195l-58 -173l-264 2l-290 -2v188q95 -5 355 -5v9q-126 96 -205 242t-79 288q0 268 164 452q87 98 214 148.5t271 50.5t267.5 -49t209.5 -137q174 -179 175 -447
q0 -158 -80.5 -305t-206.5 -244v-8l356 5v-188l-289 2l-260 -2l-57 174q118 78 193 196q107 162 107 341z" />
    <glyph glyph-name="uni03A9" unicode="&#x2126;" horiz-adv-x="1516" 
d="M1172 712q0 225 -129 360q-107 115 -283 115t-286 -113q-131 -133 -131 -343t107 -362q75 -114 199 -195l-58 -173l-264 2l-290 -2v188q95 -5 355 -5v9q-126 96 -205 242t-79 288q0 268 164 452q87 98 214 148.5t271 50.5t267.5 -49t209.5 -137q174 -179 175 -447
q0 -158 -80.5 -305t-206.5 -244v-8l356 5v-188l-289 2l-260 -2l-57 174q118 78 193 196q107 162 107 341z" />
    <glyph glyph-name="pi" unicode="&#x3c0;" horiz-adv-x="1344" 
d="M814 339v186q0 186 1 332h-375l2 -867h-218l3 867h-198v160l638 -2l629 2v-160h-265l-3 -249l1 -221q0 -136 58 -187t219 -54l-26 -164q-244 -5 -355 79.5t-111 277.5z" />
    <glyph glyph-name="endash" unicode="&#x2013;" horiz-adv-x="1103" 
d="M1103 493h-1103v159h1103v-159z" />
    <glyph glyph-name="emdash" unicode="&#x2014;" horiz-adv-x="2006" 
d="M1784 493h-1562v159h1562v-159z" />
    <glyph glyph-name="quoteleft" unicode="&#x2018;" horiz-adv-x="399" 
d="M351 983l-156 -54l-212 431l200 68z" />
    <glyph glyph-name="quoteright" unicode="&#x2019;" horiz-adv-x="399" 
d="M416 1360l-211 -431l-157 54l169 445z" />
    <glyph glyph-name="quotesinglbase" unicode="&#x201a;" horiz-adv-x="429" 
d="M374 184l-212 -431l-156 54l168 445z" />
    <glyph glyph-name="quotedblleft" unicode="&#x201c;" horiz-adv-x="700" 
d="M343 983l-148 -54l-212 431l180 68zM653 984l-143 -47l-199 430l170 60z" />
    <glyph glyph-name="quotedblright" unicode="&#x201d;" horiz-adv-x="700" 
d="M390 1367l-199 -430l-143 47l172 443zM718 1360l-212 -431l-149 54l181 445z" />
    <glyph glyph-name="quotedblbase" unicode="&#x201e;" horiz-adv-x="700" 
d="M348 193l-199 -431l-143 48l172 443zM676 185l-211 -430l-149 53l180 446z" />
    <glyph glyph-name="dagger" unicode="&#x2020;" horiz-adv-x="734" 
d="M433 498l2 -498h-136l2 489q0 219 -2 485h136q-2 -332 -2 -476zM292 989l-243 -21v177l243 -23v-133zM685 967l-244 22v133l244 24v-179zM459 1376l-23 -243h-138l-23 243h184z" />
    <glyph glyph-name="daggerdbl" unicode="&#x2021;" horiz-adv-x="734" 
d="M459 0h-184l23 243h138zM292 253l-243 -22v177l243 -21v-134zM685 230l-244 23v134l244 22v-179zM434 710l2 -309h-138l2 308l-2 265h138zM292 989l-243 -21v177l243 -23v-133zM685 967l-244 22v133l244 24v-179zM459 1376l-23 -243h-138l-23 243h184z" />
    <glyph glyph-name="bullet" unicode="&#x2022;" horiz-adv-x="1080" 
d="M879 510q0 -140 -100.5 -240.5t-240.5 -100.5t-240 100.5t-100 240.5t101.5 240t240.5 100t239 -100t100 -240z" />
    <glyph glyph-name="ellipsis" unicode="&#x2026;" horiz-adv-x="1794" 
d="M423 0h-247v257h247v-257zM1021 0h-247v257h247v-257zM1618 0h-247v257h247v-257z" />
    <glyph glyph-name="perthousand.oldstyle" unicode="&#x2030;" horiz-adv-x="2875" 
d="M1494 1269q-106 -161 -227 -334t-255 -374t-261.5 -407.5t-161.5 -259.5l-141 91q135 188 453 676q219 324 453 697zM1720 360q0 184 -87 219t-133 35q-88 0 -153 -60q-66 -60 -66 -188t66 -191t155 -63t153 63q65 62 65 185zM2596 360q0 130 -73 200q-60 54 -148 54
q-87 0 -152 -60q-66 -60 -66 -189q0 -128 67 -190q67 -63 152 -63q47 0 133.5 34t86.5 214zM695 939q0 127 -67 189t-154 62q-86 0 -152 -60t-66 -189t74 -198q57 -55 147 -55t137 46q81 78 81 205zM1202 647q114 110 296 110t298 -108t116 -287t-118 -286t-294 -107
t-294 108q-117 108 -117 283q0 176 113 287zM2086 72q-121 113 -121 289t113 286t297 110t298 -108q115 -108 115 -287q0 -178 -120 -290q-115 -103 -291 -103q-175 0 -291 103zM185 648q-121 113 -121 287q0 175 113 288q115 109 297 109t297 -108q116 -108 116 -288
q0 -179 -117 -285t-293 -106t-292 103z" />
    <glyph glyph-name="guilsinglleft" unicode="&#x2039;" horiz-adv-x="685" 
d="M605 202l-124 -105l-416 432v29l416 431l124 -104l-336 -342z" />
    <glyph glyph-name="guilsinglright" unicode="&#x203a;" horiz-adv-x="685" 
d="M620 529l-416 -432l-124 105l336 341l-336 342l124 104l416 -431v-29z" />
    <glyph glyph-name="fraction" unicode="&#x2044;" horiz-adv-x="345" 
d="M675 1301q-310 -449 -460 -688q-142 -215 -268 -422t-153 -250l-136 89q46 63 291 442q245 380 351 547.5t238 368.5z" />
    <glyph glyph-name="zero.superior" unicode="&#x2070;" horiz-adv-x="860" 
d="M631 939q0 48 -23.5 177t-177.5 129q-101 0 -151 -82t-50 -218.5t50 -219.5q50 -84 152 -84t151 84t49 214zM802 942q0 -84 -24.5 -175t-77.5 -148q-102 -110 -270 -110q-167 0 -268 107q-55 60 -79.5 150.5t-24.5 239.5t101 260t271 111t271 -111q101 -110 101 -324z
" />
    <glyph glyph-name="four.superior" unicode="&#x2074;" horiz-adv-x="860" 
d="M421 906q11 0 59 1v294l-3 2l-284 -293l1 -3l125 -1h102zM639 1088.5q0 -127.5 -1 -172.5h196v-123q-73 1 -84 1h-112l2 -259h-169l1 259h-382l-57 115l474 473l135 -63q-3 -103 -3 -230.5z" />
    <glyph glyph-name="five.superior" unicode="&#x2075;" horiz-adv-x="860" 
d="M746 805q0 -147 -180 -226q-137 -58 -275.5 -58t-155.5 1l-22 133h65q192 4 264 29t98 50.5t26 65.5q0 76 -117 108q-77 19 -281 21l1 207l-1 215l303 -1l280 1v-130l-424 1v-186q419 -12 419 -231z" />
    <glyph glyph-name="six.superior" unicode="&#x2076;" horiz-adv-x="860" 
d="M632 806q0 46 -52 107.5t-250 85.5q-32 -29 -62.5 -84t-30.5 -105q0 -133 80 -157.5t122 -24.5q86 0 139 48q54 48 54 130zM798 803q0 -128 -103 -211t-264 -83t-262 79t-101 216t131 279q77 84 315 306l135 -83l-223 -204v-4q125 -18 203 -58q169 -87 169 -237z" />
    <glyph glyph-name="seven.superior" unicode="&#x2077;" horiz-adv-x="860" 
d="M203 569q379 624 390 643l-2 2h-177l-340 -1v138l333 -1l325 1l74 -96q-234 -378 -457 -758z" />
    <glyph glyph-name="eight.superior" unicode="&#x2078;" horiz-adv-x="860" 
d="M625 740q0 83 -98 124q-67 28 -163 53q-41 -20 -84.5 -66t-43.5 -102t57 -93t139 -37t137.5 35.5t55.5 85.5zM604 1150q0 50 -49 84t-124 34t-122.5 -31t-47.5 -78q0 -75 83 -109q83 -33 156 -50q104 60 104 150zM100 1151q0 101 98 164t238 63t235 -58.5t95 -160.5
q0 -63 -43 -116.5t-96 -82.5v-6q75 -28 120.5 -78t45.5 -120q0 -111 -106 -180t-260 -69t-256.5 65t-102.5 181t165 210v5q-133 60 -133 183z" />
    <glyph glyph-name="nine.superior" unicode="&#x2079;" horiz-adv-x="860" 
d="M534 883q93 91 93 187t-57 142q-57 45 -146 45q-130 0 -162.5 -66t-32.5 -112t33 -86t102 -71q68 -32 170 -39zM62 1076q0 128 102 214q102 87 267 87t265 -79q99 -79 99 -215t-128 -274q-70 -76 -172.5 -176.5t-143.5 -135.5l-134 82l223 204l-1 3q-238 33 -307.5 125.5
t-69.5 164.5z" />
    <glyph glyph-name="parenleft.superior" unicode="&#x207d;" horiz-adv-x="554" 
d="M75 892q0 184 107 336q107 151 298 242l69 -107q-232 -107 -277.5 -250t-45.5 -215q0 -151 94 -265q83 -108 230 -163l-68 -107q-177 56 -292 201q-115 144 -115 328z" />
    <glyph glyph-name="parenright.superior" unicode="&#x207e;" horiz-adv-x="554" 
d="M479 940q0 -286 -160.5 -411.5t-244.5 -165.5l-69 106q233 111 278 252t45 213q0 152 -94 265q-83 110 -230 163l68 108q178 -59 292 -203q115 -143 115 -327z" />
    <glyph glyph-name="n.superior" unicode="&#x207f;" horiz-adv-x="855" 
d="M586 688v116v160q-1 112 -109 112q-76 0 -204 -64v-201l1 -276h-163l1 325l-1 326h161v-60l2 -3q156 78 260 78t158.5 -53.5t54.5 -142.5l-1 -217l2 -253h-164q2 36 2 153z" />
    <glyph glyph-name="zero.inferior" unicode="&#x2080;" horiz-adv-x="840" 
d="M631 403q0 48 -12 114q-35 192 -189 192q-101 0 -151 -82t-50 -218q0 -137 50 -220q50 -84 152 -84t151 84t49 214zM802 406q0 -84 -24 -176q-24 -90 -78 -147q-102 -110 -270 -110q-167 0 -268 107q-56 60 -80 150t-24 177q0 212 101 323t271 111t271 -111
q101 -110 101 -324z" />
    <glyph glyph-name="one.inferior" unicode="&#x2081;" horiz-adv-x="840" 
d="M438 506q0 110 -1 157l-3 2l-261 -148l-70 108q259 145 385 219l122 -76q-3 -136 -3 -359l2 -410h-174l3 358v149z" />
    <glyph glyph-name="two.inferior" unicode="&#x2082;" horiz-adv-x="840" 
d="M805 1h-693l-43 111q156 70 286 168q162 111 162 214t-98 151q-74 38 -224 38q-27 -1 -48 -1h-34l19 145l92 2q201 0 321 -64q156 -78 156 -234q0 -130 -136 -247q-105 -88 -222 -148l1 -4q41 1 99 1t87 1l275 1v-134z" />
    <glyph glyph-name="three.inferior" unicode="&#x2083;" horiz-adv-x="840" 
d="M525 583q0 112 -288 112h-105l28 135h96q185 0 291 -42q69 -26 113 -71t44 -106t-40 -103t-101 -66v-3q83 -15 139 -61t56 -114q0 -144 -165 -214q-139 -63 -401 -65l-76 2l-24 135h30t127 1q104 2 185 24q82 21 112 49t30 65q0 100 -253 100l-90 -1l-19 100
q201 6 275 60q36 26 36 63z" />
    <glyph glyph-name="four.inferior" unicode="&#x2084;" horiz-adv-x="840" 
d="M388 370q44 0 92 1v294l-3 2l-284 -293l1 -3l125 -1h69zM639 552q0 -128 -1 -172h196v-123q-73 1 -115 1h-81l2 -259h-169l1 259h-382l-57 115l474 473l135 -63q-3 -103 -3 -231z" />
    <glyph glyph-name="five.inferior" unicode="&#x2085;" horiz-adv-x="840" 
d="M746 269q0 -147 -180 -226q-137 -58 -384 -58q-30 0 -47 1l-22 133h65q192 4 264 29q72 24 98 50t26 66q0 76 -117 108q-77 19 -281 21l1 207l-1 215l303 -1l280 1v-130l-424 1v-186q419 -12 419 -231z" />
    <glyph glyph-name="six.inferior" unicode="&#x2086;" horiz-adv-x="840" 
d="M632 270q0 46 -33 85q-71 84 -269 108q-32 -29 -62 -83t-31 -106q1 -132 123 -170q38 -12 79 -12q86 0 139 48q54 48 54 130zM798 267q0 -128 -103 -211t-264 -83t-262 79t-101 216t131 279q77 84 315 306l135 -83l-223 -204v-4q125 -18 203 -58q169 -87 169 -237z" />
    <glyph glyph-name="seven.inferior" unicode="&#x2087;" horiz-adv-x="840" 
d="M203 33q379 624 390 643l-2 2h-177l-340 -1v138l333 -1l325 1l74 -96q-234 -378 -457 -758z" />
    <glyph glyph-name="eight.inferior" unicode="&#x2088;" horiz-adv-x="840" 
d="M625 204q0 83 -98 124q-67 28 -163 53q-40 -20 -84 -66t-44 -102t56 -93t140 -37q82 -1 138 35t55 86zM604 614q0 50 -49 84t-124 34t-123 -31t-47 -78q0 -75 83 -109q83 -33 156 -50q104 60 104 150zM100 615q0 101 98 164t238 63t234 -58q96 -58 96 -161
q0 -63 -43 -117t-96 -82v-6q75 -28 121 -78t45 -120q0 -111 -106 -180t-260 -69q-155 0 -257 65t-102 181t165 210v5q-133 60 -133 183z" />
    <glyph glyph-name="nine.inferior" unicode="&#x2089;" horiz-adv-x="840" 
d="M534 347q93 91 93 187t-57 142q-57 45 -146 45q-130 1 -179 -99q-16 -32 -16 -79q0 -46 33 -86t102 -71q68 -32 170 -39zM62 540q0 128 102 214q102 87 267 87t265 -79q99 -79 99 -215t-128 -274q-71 -77 -173 -177t-143 -135l-134 82l223 204l-1 3q-238 33 -335 162
q-42 56 -42 128z" />
    <glyph glyph-name="parenleft.inferior" unicode="&#x208d;" horiz-adv-x="570" 
d="M75 356q0 184 107 336q107 151 298 242l69 -107q-231 -107 -301 -325q-22 -68 -22 -140q0 -151 94 -265q83 -108 230 -163l-68 -107q-177 56 -292 201q-115 144 -115 328z" />
    <glyph glyph-name="parenright.inferior" unicode="&#x208e;" horiz-adv-x="570" 
d="M479 404q1 -286 -241 -475q-80 -62 -164 -102l-69 106q233 111 301 326q22 67 22 139q0 152 -94 265q-83 110 -230 163l68 108q178 -59 292 -203q115 -143 115 -327z" />
    <glyph glyph-name="colonmonetary" unicode="&#x20a1;" horiz-adv-x="1218" 
d="M-1558 -1078q64 40 -161 -214q-83 -82 -164 -161q-83 -93 -263 -283q79 90 133 156q-181 -178 -351 -344q189 206 319 353q85 80 139 129q12 18 16 28q160 162 332 336zM-1558 -1078q-48 -30 -253 -220q-32 -41 -83 -100q11 1 4 -16q-148 -150 -154 -155q-5 -6 -293 -298
t-692 -707q306 298 665 650q-358 -391 -926 -996q-262 -242 -595 -557q-246 -277 21 -51q-200 -211 -417 -441q-212 -158 159 268q-1248 -1182 -3369 -3241q1062 1080 1904 1938l976 963q413 415 758 762q-625 -616 -1420 -1405q1429 1458 2154 2207q483 452 777 715
q56 57 98 99q113 123 201 220q339 307 278 209l2888 2848q-1586 -1586 -2681 -2692zM-3510 -3216q72 65 155 141q-291 -304 -409 -428t-123 -129q147 167 377 416zM-3384 -3079q-129 -139 -143 -152q73 78 143 152zM-1999 -2024q670 738 395 534l-1064 -1045
q-257 -293 -714 -786q517 475 1383 1297zM-3480 -3844q93 88 184 174q-24 -25 -239 -253t-494 -530q200 230 549 609zM-3480 -3844q-464 -439 -977 -931q407 425 743 780q310 287 716 670q-269 -287 -482 -519zM-3059 -3723l-250 -254q-502 -521 -715 -753
q-183 -172 -267 -243l-2840 -2880q33 196 742 1040q1123 1105 1974 1937q-588 -657 310 204q-303 -252 -127 -25q1572 1536 2139 2068q362 373 782 804q513 466 902 802q400 399 838 837l-755 -766q739 634 996 767q180 178 367 363q-181 -182 -356 -357q141 70 126 -24
l-3626 -3576q-950 -955 -2549 -2557q683 696 1241 1267l-2806 -2767q4493 4493 5046 5128q104 103 213 210q-20 -8 -140 -118q74 128 -1242 -1105q-2 -1 -3 -2zM-4029 -4453q-136 -157 -203 -244q-90 -88 -183 -179q146 164 386 423zM-2256 -2536q403 466 76 203
q227 274 -92 0q-458 -480 -467 -488q228 242 414 443q-327 -286 -1101 -1022q-130 -124 -247 -234q-188 -203 -343 -373q-1173 -1106 -3041 -2904q689 712 1286 1333l-731 -718q1284 1340 2221 2327q43 32 108 87q-2 -15 82 57q39 41 77 80q59 52 127 113q-11 -12 -21 -23
q15 16 31 33q320 288 853 790q253 242 562 539q-11 -13 -23 -28q370 352 812 777q-40 -33 -91 -76q1174 1135 2922 2839l-2072 -2033q719 694 1587 1538q-1330 -1369 -2433 -2520q1077 1026 2640 2535q-1927 -1997 -3136 -3275zM-2256 -2536q-188 -217 -535 -593
q-107 -101 -207 -196q329 353 742 789zM-3296 -3670q284 302 505 541q1272 1205 3378 3246q-1063 -1086 -1898 -1942q-830 -753 -1985 -1845zM-2739 -2821q-733 -779 -1909 -1998q-326 -238 632 812q800 753 1277 1186zM-3384 -3079q214 230 487 519q-151 -136 -343 -313
q115 120 458 473q342 353 636 664q-252 -288 -750 -823q25 27 51 54q824 872 1126 1213q887 870 2034 1997q-1801 -1841 -2961 -3042q-107 -93 -251 -223q-219 -235 -487 -519zM-3527 -3231q-228 -241 -487 -514q-91 -80 -159 -137q4 27 310 354q118 99 336 297z
M-4172 -3360q-204 -221 -208 -245q786 795 2856 2867q-1868 -1872 -2597 -2619q-123 -122 -253 -250q7 3 24 14q-116 -121 -176 -186q-547 -534 -200 -178q-905 -899 -2085 -2079zM-4172 -3360q824 892 4918 4989zM-2624 -2075q-269 -262 -606 -592q-103 -104 -236 -238
q-133 -135 -269 -273l1035 1021q39 42 76 82zM-2723 -2807q372 337 543 474q-297 -359 -1534 -1662q-539 -499 -792 -711q777 839 1783 1899zM-5371 -5652q475 458 914 877q-740 -773 -1711 -1778q339 393 797 901zM-5371 -5652q-627 -604 -1318 -1274q1148 1181 2041 2107
q53 39 142 113q-476 -514 -865 -946zM-2350 -2144q381 350 586 524q-379 -366 -698 -673q84 102 112 149zM-2350 -2144q-185 -170 -470 -436q-286 -266 -535 -495q318 332 709 738q377 327 296 193zM-1814 -2616q-13 -23 -73 -92q-2897 -2847 -2137 -2022q336 315 1125 1080
t1085 1034zM-3386 -4440q-1426 -1402 706 752q51 52 101 101q2275 2257 -153 -193q-386 -390 -654 -660zM-3386 -4440q1135 1117 4523 4486q-6880 -6871 -4523 -4486zM-2579 -3587q-1277 -1267 -4036 -4018q598 608 1123 1143q6284 6281 2913 2875zM-5368 -6336
q-113 -116 -1132 -1134q602 602 1132 1134zM-3272 -4192q761 783 1161 1204q-3100 -3122 -1161 -1204zM-6389 -6813q-304 -299 -627 -617q444 459 848 877q-118 -137 -221 -260zM-3681 -3210q207 226 478 516q-616 -604 -1505 -1483q-275 -298 1027 967zM-3240 -2873
q-208 -216 -369 -386q167 177 319 339q25 24 50 47zM-3863 -3528q1 2 3 3q-2 -1 -3 -3zM-3860 -3525q107 115 251 266q-121 -129 -251 -266zM-2043 -1443q-286 -260 -858 -809q-211 -218 -230 -236q-256 -240 -459 -429q-1249 -1203 -936 -862q106 104 246 241
q-45 -38 -70 -55q95 99 229 236q3239 3205 2078 1914zM-1524 -738q816 818 1850 1852q-1027 -1027 -1850 -1852zM-5273 -4684q-153 -156 -314 -320l-1031 -1017q724 721 1345 1337z" />
    <glyph glyph-name="uni20A2" unicode="&#x20a2;" horiz-adv-x="1238" 
d="M1021 166h43q44 0 58 1l-25 -184h-44q-486 0 -742 230q-201 178 -201 458t214 462q123 104 312.5 161t396.5 57h48q3 -45 22 -187h-87q-64 0 -276.5 -44t-307.5 -183t-95 -261q0 -239 197 -381q62 -40 146 -67l3 2v206q0 144 -2 360h166v-113q143 81 276 129l16 -150
q-109 -28 -288 -116l-1 -176l1 -183q115 -21 170 -21z" />
    <glyph glyph-name="franc" unicode="&#x20a3;" horiz-adv-x="1238" 
d="M74 278v124h196l1 280l-4 655l417 -1l430 1v-171l-320 2l-298 -1l-2 -372l260 -1l347 1v-148l-352 2l-255 -1l1 -246h414v-124l-410 1l1 -279h-233l2 278h-195z" />
    <glyph glyph-name="peseta" unicode="&#x20a7;" horiz-adv-x="1238" 
d="M1200 931v-140h-125q-17 -104 -79 -185t-142 -124q-163 -87 -422 -87l2 -395h-230l2 646l1 146l-153 -1v141l152 -1q0 182 -2 408l183 1q311 0 477 -91q92 -51 149.5 -134t68.5 -184h118zM789 915q15 0 69 1q-7 68 -48 123.5t-100 84.5q-94 46 -285 46l-3 -254l218 -1
h149zM422 812l1 -271q181 0 264 40q161 78 174 231h-439z" />
    <glyph glyph-name="uni20A8" unicode="&#x20a8;" horiz-adv-x="2021" 
d="M820 924q0 69 -58.5 158t-298.5 89h-50q-2 -278 -2 -520l3 -651h-233l3 678q0 258 -3 661l225 4q256 0 382 -47t188 -134.5t62 -201.5t-71 -214.5t-181 -159.5v-6q163 -147 377 -352l5 3q0 317 -2 661l111 1q160 0 264 -18t198 -67t150 -138.5t56 -213.5t-60 -218
t-147 -144q-162 -93 -368 -93l2 -363h-206l2 326q-17 18 -236 228.5t-404 380.5l6 28q101 26 194 114q92 88 92 209zM1737 450q0 150 -116 226q-92 59 -258 59l-1 -334l1 -253q139 0 220 46q80 46 117 107t37 149z" />
    <glyph glyph-name="Euro" unicode="&#x20ac;" horiz-adv-x="1524" 
d="M926 0q-268 0 -458 190q-131 131 -172 305h-196l48 110h132q-2 27 -2 55t2 55h-180l48 110h148q41 174 172 305q190 190 470 190t476 -196l-48 -111q-182 197 -420 197t-398 -160q-99 -99 -137 -225h876l-46 -110h-851q-2 -27 -2 -55t2 -55h805l-48 -110h-736
q38 -126 137 -225q160 -160 400 -160t418 201v-162q-172 -149 -440 -149z" />
    <glyph glyph-name="trademark" unicode="&#x2122;" horiz-adv-x="1225" 
d="M853 987l164 357l78 -6q29 -149 110 -505l-91 -15l-76 378h-7q-4 -7 -152 -328h-69l-148 330l-7 -1q-22 -85 -83 -379l-90 14q43 171 80 324.5t43 176.5l82 11l161 -357h5zM19 1339h483v-78l-190 1l-1 -202l1 -235h-92l1 237v74q0 74 -1 126l-201 -1v78z" />
    <glyph glyph-name="partialdiff" unicode="&#x2202;" horiz-adv-x="1250" 
d="M643 750q-133 0 -222 -107.5t-89 -275.5q0 -107 57 -170t141 -63q160 0 254 175q89 175 121 364q-42 28 -112.5 52.5t-149.5 24.5zM722 1466q201 0 307 -121t106 -352t-109.5 -624t-489.5 -393q-190 0 -298 110t-108 289q0 230 147.5 381.5t362.5 151.5q145 0 288 -68
q12 6 12 128q9 339 -232 339q-159 0 -356 -162l-99 124q229 197 469 197z" />
    <glyph glyph-name="Delta" unicode="&#x2206;" horiz-adv-x="1418" 
d="M672 186q138 0 468 3v4q-47 105 -426 920h-6q-90 -191 -230.5 -483t-203.5 -436l1 -5q258 -3 397 -3zM1345 1l-640 2l-630 -1l-56 141q444 835 603 1210h192q116 -281 337 -714t251 -495z" />
    <glyph glyph-name="product" unicode="&#x220f;" horiz-adv-x="1773" 
d="M902 1463l780 1v-192l-238 1q-4 -344 -4 -681l4 -792h-230l3 795l-3 681l-317 1l-338 -1l-4 -662l4 -814h-230l4 811l-4 662l-239 -1v193z" />
    <glyph glyph-name="summation" unicode="&#x2211;" horiz-adv-x="1773" 
d="M1468 -198q-254 2 -576 2l-534 -2l-74 145q333 378 589 694v7q-134 169 -334 399t-227 262l83 157l495 -2q300 0 510 2v-192l-404 2l-390 -1l-1 -2q121 -140 243 -286t286 -326v-22q-30 -35 -220 -245t-342 -396q2 -4 428 -4l468 4v-196z" />
    <glyph glyph-name="minus" unicode="&#x2212;" horiz-adv-x="1687" 
d="M1335 507h-983v160h983v-160z" />
    <glyph glyph-name="radical.oldstyle" unicode="&#x221a;" horiz-adv-x="1197" 
d="M1303 1477l-622 -1541h-106l-334 722l-162 -107l-61 94l285 189h52l291 -625h5l529 1312z" />
    <glyph glyph-name="infinity" unicode="&#x221e;" horiz-adv-x="1741" 
d="M1395 508q0 110 -55.5 185.5t-152.5 75.5q-122 0 -189 -133q-36 -72 -69 -220q31 -71 98 -119.5t143 -48.5q110 0 167.5 75t57.5 185zM571 774q-106 0 -165.5 -73t-59.5 -183t56.5 -187.5t154.5 -77.5q120 0 186 134q36 70 69 220q-33 72 -101 119.5t-140 47.5zM1203 63
q-226 0 -341 186h-4q-44 -82 -122 -134t-192 -52q-165 0 -270.5 127.5t-105.5 321.5t104.5 320.5t265.5 126.5q117 0 203 -50.5t138 -135.5h4q46 83 124.5 134.5t189.5 51.5q165 0 270.5 -126.5t105.5 -320.5t-103.5 -321.5t-266.5 -127.5z" />
    <glyph glyph-name="integral" unicode="&#x222b;" horiz-adv-x="1212" 
d="M986 1309q-98 0 -152 -86t-88 -303l-117 -774q-45 -290 -148 -410.5t-269 -120.5t-288 86l85 143q93 -66 192 -66t152.5 93.5t82.5 280.5l121 789q46 295 145 413.5t266 118.5t292 -87l-84 -143q-92 66 -190 66z" />
    <glyph glyph-name="approxequal.oldstyle" unicode="&#x2248;" horiz-adv-x="1333" 
d="M277.5 410.5q78.5 71.5 184.5 71.5t186 -52q22 -14 56 -38.5t81 -50.5t98 -26t89.5 39.5t70.5 126.5l129 -38q-40 -126 -116 -196.5t-178 -70.5t-186 50q-32 18 -68.5 43t-77.5 49t-93 24q-53 0 -91.5 -38.5t-70.5 -124.5l-127 40q35 120 113.5 191.5zM453 710
q-53 0 -92 -40t-70 -124l-127 37q35 119 113.5 192.5t186.5 73.5t184 -52q22 -14 93.5 -64.5t142.5 -50.5q97 0 159 167l129 -42q-39 -126 -115.5 -195t-178.5 -69t-186 51q-32 17 -68.5 42.5t-76.5 49.5q-41 24 -94 24z" />
    <glyph glyph-name="notequal.oldstyle" unicode="&#x2260;" horiz-adv-x="1333" 
d="M1117 764v-145h-350q-19 -52 -39 -107.5t-40 -109.5h429v-145h-474l-108 -305l-121 44q8 23 39 108t55 153h-291v145h349q25 68 43 116.5t36 100.5h-428v145h471q49 140 105 294l122 -41q-6 -17 -36 -97.5t-56 -155.5h294z" />
    <glyph glyph-name="lessequal.oldstyle" unicode="&#x2264;" horiz-adv-x="1333" 
d="M1120 85h-914v144h914v-144zM1106 447l-53 -135l-846 319v145l841 332l58 -140l-691 -261v-5z" />
    <glyph glyph-name="greaterequal.oldstyle" unicode="&#x2265;" horiz-adv-x="1333" 
d="M1122 85h-913v144h913v-144zM1122 631l-846 -319l-53 135l691 255v5l-691 261l58 140l841 -332v-145z" />
    <glyph glyph-name="lozenge.oldstyle" unicode="&#x25ca;" horiz-adv-x="1352" 
d="M1042 522l-366 368l-367 -369l365 -367zM1244 521l-570 -573l-567 574l568 574z" />
    <glyph glyph-name="uniF8FF" unicode="&#xf8ff;" horiz-adv-x="1462" 
d="M1093 1597q0 -44 -30 -120t-91 -137t-104 -75q-44 -14 -117 -20q2 152 79.5 263t256.5 152q6 -19 6 -63zM780 1204q-8 0 136.5 35t149.5 35q161 0 236 -51t128 -118q-81 -69 -115 -119q-69 -99 -69 -220t71 -223t162 -129q-37 -122 -115 -240q-77 -118 -143 -168
t-125 -50t-150.5 33t-154.5 33t-146.5 -34.5t-148.5 -34.5t-141.5 66.5t-152.5 198.5q-152 264 -152 508t115.5 392t291.5 148q75 0 181.5 -31t141.5 -31z" />
    <glyph glyph-name="f_f" unicode="&#xfb00;" horiz-adv-x="1411" 
d="M24 854v162h189v42q0 188 122 299q122 110 347 110h62l22 -160h-65q-43 0 -162 -33t-119 -224v-34h456v42q0 190 120 300q120 109 349 109h66l22 -161h-69q-44 0 -163 -33t-119 -224v-33h328v-162h-321q2 -490 2 -855h-221l3 855l-216 1l-230 -1l2 -855h-221l3 855h-187z
" />
    <glyph glyph-name="fi" unicode="&#xfb01;" horiz-adv-x="1250" 
d="M213 1058q0 188 121 298t348 110h58l12 -157h-58q-42 0 -158 -33.5t-116 -223.5v-36h319l365 1q-2 -280 -2 -531l2 -486h-221l2 464q0 192 -2 392l-226 1l-230 -1l2 -857h-220l2 855l-186 -1v164l188 -1v42zM1110 1214h-206v186h206v-186z" />
    <glyph glyph-name="fl" unicode="&#xfb02;" horiz-adv-x="1262" 
d="M1113 768l2 -768h-217l2 761q0 341 -2 705h217q-2 -268 -2 -698zM25 854v162h188v42q0 189 121 299q121 109 353 109h72l17 -152h-73q-46 0 -165.5 -31.5t-119.5 -230.5v-44h340v-154h-331l2 -855h-220l2 855h-186z" />
    <glyph glyph-name="f_f_i" unicode="&#xfb03;" horiz-adv-x="1903" 
d="M24 854v162h189v42q0 189 121 297q54 50 144.5 80.5t162.5 30.5h104l21 -157h-68q-45 0 -161.5 -33t-116.5 -227v-33h455v42q0 189 121 299q121 109 348 109h54l13 -157h-56q-40 0 -156.5 -32.5t-116.5 -227.5v-33h672l-2 -521l2 -495h-221l2 473l-1 383l-197 1l-248 -1
l2 -857h-221l3 855l-216 1l-230 -1l2 -855h-221l3 855h-187zM1761 1214h-206v186h206v-186z" />
    <glyph glyph-name="f_f_l" unicode="&#xfb04;" horiz-adv-x="1914" 
d="M24 854v162h189v42q0 188 121 298t348 110h63l21 -157h-68q-45 0 -161.5 -33t-116.5 -227v-33h455v42q0 289 179.5 348.5t254.5 59.5h110l17 -152h-70q-46 0 -107.5 -16t-97.5 -48q-81 -62 -81 -198v-44h338v-154h-328l2 -855h-221l2 855l-216 1l-230 -1l2 -855h-221
l3 855h-187zM1764 768l2 -768h-219l2 761q0 341 -2 705h219z" />
    <glyph glyph-name="empty.1" 
 />
    <glyph glyph-name="empty.2" 
 />
    <glyph glyph-name="empty.3" 
 />
    <glyph glyph-name="empty.4" 
 />
    <glyph glyph-name="empty.5" 
 />
    <glyph glyph-name="empty.6" 
 />
    <glyph glyph-name="empty.7" 
 />
    <glyph glyph-name="empty.8" 
 />
    <glyph glyph-name="empty.9" 
 />
    <glyph glyph-name="empty.10" 
 />
    <glyph glyph-name="empty.11" 
 />
    <glyph glyph-name="empty.12" 
 />
    <glyph glyph-name="empty.13" 
 />
    <glyph glyph-name="empty.14" 
 />
    <glyph glyph-name="empty.15" 
 />
    <glyph glyph-name="empty.16" 
 />
    <glyph glyph-name="empty.17" 
 />
    <glyph glyph-name="empty.18" 
 />
    <glyph glyph-name="empty.19" 
 />
    <glyph glyph-name="empty.20" 
 />
    <glyph glyph-name="empty.21" 
 />
    <glyph glyph-name="empty.22" 
 />
    <glyph glyph-name="empty.23" 
 />
    <glyph glyph-name="empty.24" 
 />
    <glyph glyph-name="empty.25" 
 />
    <glyph glyph-name="empty.26" 
 />
    <glyph glyph-name="empty.27" 
 />
    <glyph glyph-name="empty.28" 
 />
    <glyph glyph-name="empty.29" 
 />
    <glyph glyph-name="empty.30" 
 />
    <glyph glyph-name="comma.accent.spacing" horiz-adv-x="842" 
d="M767 -202l-445 -212l-60 120l433 237z" />
    <glyph glyph-name="minus.oldstyle" horiz-adv-x="1333" 
d="M1150 436h-958v147h958v-147z" />
    <glyph glyph-name="multiply.oldstyle" horiz-adv-x="1333" 
d="M1115 858l-338 -348l337 -348l-107 -103l-334 345l-334 -344l-108 100l339 349l-339 349l109 101l334 -344l334 344z" />
    <glyph glyph-name="G_comma.accent" horiz-adv-x="1242" 
d="M88 686q0 160 86 297q86 136 245 228q238 141 619 141l81 -1l24 -197h-125q-226 0 -426 -95q-112 -53 -186 -157q-75 -104 -75 -240q0 -138 64 -244t157 -156q176 -95 425 -99q0 238 -3 521h229q-2 -178 -2 -327l2 -359q-33 -10 -227 -9q-434 1 -684 219
q-204 175 -204 478zM1197 -202l-445 -212l-60 120l433 237z" />
    <glyph glyph-name="I.dotless" horiz-adv-x="635" 
d="M407 697l3 -697h-233l2 675l-2 664h233z" />
    <glyph glyph-name="K_comma.accent" horiz-adv-x="1154" 
d="M1242 1264q-444 -535 -504 -599v-3q123 -123 551 -582l-206 -101q-149 181 -369 407t-255 262v3q418 505 578 704zM411 671l3 -672h-238l3 727l-3 613h237q-2 -300 -2 -668zM1037 -202l-445 -212l-60 120l433 237z" />
    <glyph glyph-name="L_comma.accent" horiz-adv-x="960" 
d="M651 194l401 1v-194l-458 1l-418 -1l3 694l-3 644h237l-2 -562l2 -582zM973 -202l-445 -212l-60 120l433 237z" />
    <glyph glyph-name="N_comma.accent" horiz-adv-x="1474" 
d="M1153 376l-5 963h223l-2 -628l2 -659l-177 -65q-238 321 -492 637t-304 384l-3 -2l5 -1006h-224l3 629l-3 651l198 71q50 -64 312 -401t464 -575zM1151 -202l-445 -212l-60 120l433 237z" />
    <glyph glyph-name="R_comma.accent" horiz-adv-x="1136" 
d="M856 924q0 243 -362 243l-81 -1q-2 -300 -2 -514l2 -652h-237l3 679l-2 659q80 4 238 4q297 0 428 -48t193 -134t62 -200t-62 -208t-170 -151v-5q88 -108 234 -283t187 -236l-211 -98q-23 35 -168 215t-325 408l3 16q112 29 192 109t78 197zM1049 -202l-445 -212l-60 120
l433 237z" />
    <glyph glyph-name="T_comma.accent" horiz-adv-x="1082" 
d="M569 1336l583 1v-194l-462 1l-2 -551l3 -593h-236l3 593q0 213 -2 551l-461 -1v194zM877 -202l-445 -212l-60 120l433 237z" />
    <glyph glyph-name="grave.capheight" horiz-adv-x="842" 
d="M680 1554l-48 -126l-536 165l57 154z" />
    <glyph glyph-name="acute.capheight" horiz-adv-x="842" 
d="M752 1593l-536 -165l-47 126l526 193z" />
    <glyph glyph-name="dieresis.capheight" horiz-adv-x="842" 
d="M277 1456h-217v196h217v-196zM782 1456h-217v196h217v-196z" />
    <glyph glyph-name="circumflex.capheight" horiz-adv-x="842" 
d="M791 1516l-97 -106l-272 199h-3l-272 -199l-97 106l301 219h139z" />
    <glyph glyph-name="tilde.capheight" horiz-adv-x="842" 
d="M274 1567q-38 0 -62.5 -32.5t-42.5 -108.5l-135 27q23 111 86 179t155 68t146 -43t81 -61q26 -18 64 -18q72 0 104 142l135 -26q-24 -111 -85.5 -181t-151.5 -70t-153 45q-20 15 -39.5 30.5t-41.5 31.5t-60 17z" />
    <glyph glyph-name="macron.capheight" horiz-adv-x="842" 
d="M420 1624l377 1v-126l-372 1l-379 -1v126z" />
    <glyph glyph-name="breve.capheight" horiz-adv-x="842" 
d="M424 1417q-225 0 -285 117t-72 162l136 40q52 -194 217.5 -194t216.5 193l136 -39q-30 -109 -82 -165q-105 -114 -267 -114z" />
    <glyph glyph-name="dot.accent.capheight" horiz-adv-x="842" 
d="M545 1462h-248v197h248v-197z" />
    <glyph glyph-name="ring.capheight" horiz-adv-x="842" 
d="M534 1580q0 44 -31 72.5t-80 28.5t-81 -28.5t-32 -72.5t32 -73.5t81 -29.5t80 29.5t31 73.5zM668 1580q0 -88 -73 -149.5t-175 -61.5t-172.5 61t-70.5 150t72.5 148.5t172.5 59.5t173 -60t73 -148z" />
    <glyph glyph-name="umlaut.hungarian.capheight" horiz-adv-x="842" 
d="M928 1709l-327 -270l-118 63l307 288zM541 1711l-319 -268l-118 63l306 288z" />
    <glyph glyph-name="caron.capheight" horiz-adv-x="842" 
d="M793 1632l-303 -214h-139l-304 214l97 106l274 -195h4l274 195z" />
    <glyph glyph-name="percent" horiz-adv-x="2003" 
d="M1716 400q0 143 -54 221q-45 70 -137 70t-144 -75q-51 -75 -51 -215q0 -139 51 -214q51 -76 143 -76q46 0 119 38.5t73 250.5zM1791 74q-98 -104 -269.5 -104t-273.5 112t-102 316q0 205 102 320t275 115q172 0 275 -113t103 -319q0 -207 -110 -327zM1517 1296
q-107 -161 -233 -339t-261 -381t-260.5 -409.5t-152.5 -246.5l-140 92q63 83 443 667q279 410 464 707zM615 713q53 79 53 218t-51 215q-51 75 -143 75t-142 -75t-50 -214t50 -215t144 -76t139 72zM208 604q-111 119 -111 324t102 320t274 115t276 -113t104 -320
q1 -208 -103 -319t-276 -111t-266 104z" />
    <glyph glyph-name="perthousand" horiz-adv-x="2830" 
d="M1517 1296q-107 -161 -233 -339t-261 -381t-261 -409.5t-152 -246.5l-140 92q63 83 443 667q279 410 464 707zM2546 400q0 143 -54 221q-45 70 -137 70t-144 -75q-51 -75 -51 -215q0 -139 51 -214q51 -76 143 -76q46 0 119 38.5t73 250.5zM2621 74q-98 -104 -269.5 -104
t-273.5 112t-102 316q0 205 102 320t275 115q172 0 275 -113t103 -319q0 -207 -110 -327zM1661 183q53 79 53 219q0 141 -54 219q-45 70 -138 70t-144 -75q-50 -75 -50 -215q0 -139 54 -218q46 -72 140 -72t139 72zM1789 74q-98 -104 -269.5 -104t-273.5 112t-102 317
q0 206 106 323q97 111 270 111t276 -113t103 -319q0 -207 -110 -327zM615 713q53 79 53 218t-51 215q-51 75 -143 75t-142 -75t-50 -214t50 -215t144 -76t139 72zM208 604q-111 119 -111 324t102 320t274 115t276 -113t104 -320q1 -208 -103 -319t-276 -111t-266 104z" />
    <glyph glyph-name="dollar" horiz-adv-x="1238" 
d="M602 802q62 -30 131.5 -59.5t150.5 -70.5t134.5 -112.5t53.5 -173.5t-102 -244.5t-530 -153.5l-74 -1l3 -351h-163l2 255l-2 290q24 -2 128 -2q218 0 331 50q129 53 129 159t-140 171q-44 22 -128.5 57.5t-157.5 75.5t-123.5 110t-50.5 156q0 157 127 252
q144 119 432 137q32 2 47 2t36 1l-3 295h164q-2 -94 -2 -251l1 -240l-122 2q-175 0 -289 -49t-114 -146q-1 -96 131 -159z" />
    <glyph glyph-name="cent" horiz-adv-x="1238" 
d="M430 814q0 -324 549 -324l-2 -270l1 -221h-163l2 325q-289 15 -452 145q-162 130 -162 349t189 352q75 54 185 87t224 40l-2 317h164q-2 -136 -2 -233l2 -247q-215 0 -323 -44q-210 -86 -210 -276z" />
    <glyph glyph-name="florin" horiz-adv-x="1238" 
d="M1060 722v-144l-360 1q-73 -493 -146 -651.5t-217.5 -207.5t-254.5 -52h-34q-33 0 -55 1l-29 178q144 -10 215 13.5t109 57.5q75 66 104 210t53.5 286.5t28.5 164.5l-229 -1v144h254q4 15 13.5 65.5t25.5 134.5q58 294 241 364.5t270.5 68.5t119.5 -2l28 -178
q-83 3 -137 1q-129 -4 -204 -73q-74 -70 -99 -203q-10 -49 -21 -108.5t-13 -69.5h337z" />
    <glyph glyph-name="sterling" horiz-adv-x="1238" 
d="M155 170h144l55 416h-203v144h219q5 49 27 174q23 124 59 196.5t98 128.5q137 124 375 126q26 1 57.5 0.5t56.5 -0.5l32 -178q-43 2 -49 2h-78q-156 -4 -228 -70q-71 -65 -94 -195q-16 -85 -29 -184h348v-144h-374l-55 -416h205l439 2v-171l-483 2l-522 -2v169z" />
    <glyph glyph-name="yen" horiz-adv-x="1238" 
d="M735 402l2 -402h-233l3 402l-340 -1v138l339 -1v97q-108 140 -273 383.5t-188 275.5l217 89q35 -65 365 -547h2l368 547l201 -84q-14 -23 -174.5 -261t-288.5 -398v-102l340 1v-138z" />
    <glyph glyph-name="numbersign" horiz-adv-x="1687" 
d="M1039 719h-286q-16 -57 -40.5 -141.5t-39.5 -136.5h286q18 64 40 138.5t40 139.5zM1425 849v-137h-259q-17 -59 -39.5 -135.5t-37.5 -128.5h230v-136h-266l-99 -350l-127 42q4 15 29.5 103.5t58.5 206.5h-275l-98 -352l-127 42q2 10 28.5 99.5t58.5 208.5h-217v136h260
q19 64 39.5 131.5t38.5 132.5h-231v137h268l97 335l127 -39q-3 -14 -30 -102t-58 -197h275l99 338l127 -39q-3 -13 -30 -102.5t-56 -193.5h214z" />
    <glyph glyph-name="hyphen" horiz-adv-x="762" 
d="M379 598h-202l-110 -1v191h110q109 0 201 -1q92 1 204 1h113v-191l-112 1h-204z" />
    <glyph glyph-name="zero" horiz-adv-x="1238" 
d="M918 668q0 95 -36 306t-263 211q-150 0 -224 -136t-74 -376t74 -380q74 -141 225 -141q78 0 188 73t110 443zM1156 674q0 -145 -37 -295.5t-113 -240.5t-165.5 -132.5t-220.5 -42.5t-222.5 44.5t-161.5 128.5t-111.5 228.5t-41.5 299.5t38.5 300.5t109.5 233.5
q146 176 388 176q131 0 223 -44t164 -130t111 -233.5t39 -292.5z" />
    <glyph glyph-name="one" horiz-adv-x="1238" 
d="M618 962q0 45 -2 163l-4 2q-26 -14 -375 -224l-87 152q379 220 541 323l162 -112q-4 -308 -4 -596l3 -670h-237l3 602v360z" />
    <glyph glyph-name="two" horiz-adv-x="1238" 
d="M759 824q0 167 -141 250q-119 77 -357 77q-65 0 -113 -2l24 205q78 3 172 3q95 0 219.5 -25.5t216.5 -80.5q232 -123 232 -379q0 -223 -200 -410q-169 -160 -376 -271l2 -6q223 10 746 10v-194l-511 1l-528 -1l-61 164q212 96 430 277q245 187 245 382z" />
    <glyph glyph-name="three" horiz-adv-x="1238" 
d="M780 968q0 202 -458 202q-39 0 -76 -0.5t-56 -0.5l37 188h128q81 0 208.5 -15.5t224.5 -55.5t163.5 -111.5t66.5 -174.5t-67 -174.5t-165 -103.5v-6q146 -23 235 -99.5t89 -186.5q0 -224 -236 -343q-198 -107 -579 -107q-62 0 -134 3l-40 186q104 -4 192 -4
q373 0 462.5 90.5t89.5 156.5q0 120 -161 169q-81 27 -222 27q-15 0 -135 -4l-26 143q163 5 257 30q93 25 147.5 74t54.5 117z" />
    <glyph glyph-name="four" horiz-adv-x="1238" 
d="M604 607q16 0 82 1v196q0 196 1 327l-2 1l-456 -522l1 -2l219 -1h155zM901 619q156 0 317 3v-176q-176 3 -317 3l2 -450h-233l3 450l-568 -3l-76 179q253 268 685 752l192 -100q-5 -194 -5 -658z" />
    <glyph glyph-name="five" horiz-adv-x="1238" 
d="M1085 434q0 -109 -117.5 -274t-629.5 -179l-154 -1l-30 187l144 1q267 7 390 68q149 71 149 200t-196 188q-133 36 -406 36l1 330l-1 347l455 -1l416 1v-183l-649 2v-347q259 -6 388 -59q128 -52 184 -129.5t56 -186.5z" />
    <glyph glyph-name="six" horiz-adv-x="1238" 
d="M921 454q0 76 -49 142.5t-134 111.5q-102 61 -265 81q-57 -59 -105 -154t-48 -179q0 -151 85 -235q85 -83 219 -83q133 0 209 85q88 89 88 231zM1157 448q0 -212 -155 -349t-388 -137t-380 130q-148 130 -148 337q0 116 47 223.5t148 231.5t245.5 273.5t222.5 230.5
l193 -122q-86 -86 -342 -355l1 -3q183 -24 343 -117q94 -55 153.5 -144t59.5 -199z" />
    <glyph glyph-name="seven" horiz-adv-x="1238" 
d="M886 1145l-770 -3v195l480 -1l474 1l106 -149q-229 -415 -433 -797.5t-234 -437.5l-215 95q106 191 593 1094z" />
    <glyph glyph-name="eight" horiz-adv-x="1238" 
d="M320 358q0 -97 86 -164t210 -67t209.5 63.5t86.5 169.5q0 129 -155 201q-86 41 -245 86q-79 -46 -135.5 -119t-56.5 -170zM882 988q0 106 -71.5 165.5t-181.5 59.5t-187.5 -55t-77.5 -153q0 -59 40 -104.5t113 -78.5t209 -73q156 107 156 239zM1107 1024
q0 -192 -211 -335v-2q111 -49 179 -132t68 -195q0 -182 -149.5 -290.5t-377.5 -108.5t-375 105t-147 284q0 201 248 358v2q-204 107 -204 303q0 160 142 261.5t350 101.5t342.5 -97.5t134.5 -254.5z" />
    <glyph glyph-name="nine" horiz-adv-x="1238" 
d="M921 889q0 143 -93 234q-83 75 -212 75t-210 -86q-89 -87 -89 -200q0 -208 204 -299q114 -56 250 -73q150 168 150 349zM81 890q0 198 152 341q152 144 392 144q239 0 385 -132q145 -132 145 -340q0 -117 -47 -224.5t-141 -224.5t-254 -289.5t-210 -218.5l-193 123
l334 347l-1 3q-196 25 -324 105t-183 168t-55 198z" />
    <glyph glyph-name="zero.oldstyle" horiz-adv-x="1238" 
d="M828 217q106 100 106 288t-104 288q-83 81 -209 81t-214 -82q-50 -46 -76.5 -123t-26.5 -163q0 -184 107 -289q84 -80 211 -80q126 0 206 80zM1156 501q0 -246 -155 -387q-155 -142 -384 -142q-230 0 -382 144q-153 144 -153 385q0 240 148 390t388 150q239 0 389 -147
q149 -147 149 -393z" />
    <glyph glyph-name="one.oldstyle" horiz-adv-x="1238" 
d="M629 0q3 126 3 415t-2 401l-4 2q-169 -85 -353 -197l-78 133l501 288l154 -99q-3 -414 -3 -460l3 -483h-221z" />
    <glyph glyph-name="two.oldstyle" horiz-adv-x="1238" 
d="M1165 168v-166l-497 1q-126 0 -278 -1t-197 0l-64 138q199 82 346 174q146 92 203 163t57 143q0 134 -114 186t-284 52q-78 0 -153 -5l25 172q65 5 165 5q219 0 350 -54q243 -100 243 -300q0 -167 -137 -286t-364 -226l1 -6q227 10 698 10z" />
    <glyph glyph-name="three.oldstyle" horiz-adv-x="1238" 
d="M762 663q0 196 -420 196h-127l34 172h127q402 0 506 -119t104 -220t-67 -175.5t-164 -105.5v-6q133 -21 222.5 -95.5t89.5 -187.5q0 -228 -255 -342q-187 -84 -518 -84q-76 0 -133 3l-32 172l158 -2q556 0 556 242q0 163 -166.5 175.5t-230.5 12.5l-102 -2l-28 142
q201 11 323.5 65t122.5 159z" />
    <glyph glyph-name="four.oldstyle" horiz-adv-x="1238" 
d="M632 280q19 0 59 1l1 510l-2 1l-447 -509l1 -2l207 -1h181zM898 291q143 0 329 3v-167q-204 2 -329 2q-2 -280 2 -442h-222l2 443l-563 -4l-81 151q241 259 444 487.5t252 277.5l168 -88q-2 -107 -2 -663z" />
    <glyph glyph-name="five.oldstyle" horiz-adv-x="1238" 
d="M303 -129q534 0 534 248q0 129 -178 190q-103 36 -331 41l-70 1q2 46 2 319l-2 335l410 -1l421 1v-168l-621 1v-338q234 -9 357 -63q237 -103 237 -318q0 -104 -66.5 -195t-173.5 -138q-196 -86 -479 -88h-121l-30 173h111z" />
    <glyph glyph-name="six.oldstyle" horiz-adv-x="1238" 
d="M335 444q0 -141 83 -228q81 -81 207 -81t206 86q81 81 81 215q0 187 -183 277q-107 57 -255 69q-139 -155 -139 -338zM1135 433q0 -95 -39.5 -182t-109.5 -150q-146 -132 -369.5 -132t-364.5 125t-141 330q0 107 40 211.5t142 232.5t244.5 279t240.5 243l186 -115
q-295 -292 -373 -377v-3q77 -7 168.5 -34t155.5 -67q220 -127 220 -361z" />
    <glyph glyph-name="seven.oldstyle" horiz-adv-x="1238" 
d="M882 833l-767 -3v176l458 -2q385 0 475 2l95 -133q-251 -436 -436 -777t-228 -414l-190 89l594 1060z" />
    <glyph glyph-name="eight.oldstyle" horiz-adv-x="1238" 
d="M336 352q0 -90 77 -157.5t203 -67.5t204.5 61.5t78.5 175.5t-144 184q-84 40 -241 84q-78 -48 -128 -119t-50 -161zM870 959q0 104 -67 161.5t-179 57.5t-178.5 -55t-66.5 -149q0 -114 131 -173q59 -31 216 -75q66 43 105 104t39 129zM1121 355q0 -173 -142 -279.5
t-365 -106.5t-359.5 103t-136.5 271q0 193 231 347v2q-188 104 -188 291q0 153 129.5 252t334.5 99t332.5 -91t127.5 -248q0 -196 -197 -326v-2q233 -104 233 -312z" />
    <glyph glyph-name="nine.oldstyle" horiz-adv-x="1238" 
d="M906 565q0 139 -82 225t-211 86t-208 -88q-80 -82 -80 -217q0 -93 77.5 -206.5t360.5 -140.5q143 154 143 341zM1128 582q0 -110 -39.5 -210t-129.5 -214t-272 -300t-219 -227l-188 116q70 76 188.5 187.5t174.5 176.5v3q-84 7 -183.5 38t-177.5 85q-178 123 -179 341
q0 187 145 326q145 138 373 138q229 0 371 -132q136 -121 136 -328z" />
    <glyph glyph-name="zero.proportional" horiz-adv-x="1249" 
d="M927 668q0 95 -37 306t-265 211q-152 0 -227 -138t-75 -376q0 -239 74 -379t228 -140q79 0 190.5 72.5t111.5 443.5zM1165 674q0 -145 -37.5 -295.5t-113.5 -240.5t-166 -132.5t-222 -42.5t-224.5 43.5t-163.5 128.5t-112 229.5t-41 299.5t38.5 300.5t110.5 233.5
q148 176 391 176q131 0 224 -44t165 -130t111.5 -233.5t39.5 -292.5z" />
    <glyph glyph-name="one.proportional" horiz-adv-x="949" 
d="M481 962q0 45 -2 163l-4 2q-1 0 -373 -221l-87 152q369 212 539 320l162 -112q-4 -308 -4 -596l3 -670h-237l3 602v360z" />
    <glyph glyph-name="two.proportional" horiz-adv-x="1146" 
d="M1123 195v-194l-500 1l-529 -1l-61 164q208 94 431 277q244 188 244 382q0 168 -141 250q-122 77 -357 77q-65 0 -113 -2l24 205q81 3 175 3q93 0 217 -25.5t216 -80.5q233 -123 233 -379q0 -221 -200 -410q-163 -156 -377 -271l2 -6q223 10 736 10z" />
    <glyph glyph-name="three.proportional" horiz-adv-x="1125" 
d="M702 968q0 202 -457 202q-39 0 -76.5 -0.5t-55.5 -0.5l36 188h128q81 0 209 -15.5t224 -55.5t163 -111.5t67 -174.5t-67 -174.5t-165 -103.5v-6q146 -23 235.5 -99.5t89.5 -186.5q0 -224 -237 -343q-196 -107 -579 -107q-59 0 -131 3l-41 186q104 -4 190 -4
q372 0 462 90.5t90 156.5q0 120 -161 169q-81 27 -221 27q-19 0 -135 -4l-26 143q299 10 378.5 81.5t79.5 139.5z" />
    <glyph glyph-name="four.proportional" horiz-adv-x="1243" 
d="M608 607q17 0 83 1v196q0 196 1 327l-2 1l-461 -522l2 -2l223 -1h154zM906 619q156 0 317 3v-176q-175 3 -317 3l2 -450h-233l3 450l-572 -3l-76 179q305 322 689 752l192 -100q-5 -194 -5 -658z" />
    <glyph glyph-name="five.proportional" horiz-adv-x="1143" 
d="M1031 434q0 -109 -124 -281.5t-270 -172.5h-507l-31 187l144 1q267 7 390 68q149 71 149 201q0 129 -196 187q-131 36 -405 36l1 330l-1 347l454 -1l414 1v-183l-647 2v-347q259 -6 388 -59q128 -52 184.5 -129.5t56.5 -186.5z" />
    <glyph glyph-name="six.proportional" horiz-adv-x="1233" 
d="M918 454q0 76 -48.5 142.5t-134.5 111.5q-102 61 -265 81q-57 -59 -105 -154t-48 -179q0 -151 86 -235q86 -83 219 -83q132 0 208 85q88 86 88 231zM1154 448q0 -212 -155 -349t-388 -137t-380 130t-147 337q0 116 46.5 223.5t156.5 242.5t460 493l193 -122
q-56 -54 -342 -355v-3q183 -24 344 -117q95 -55 153.5 -144t58.5 -199z" />
    <glyph glyph-name="seven.proportional" horiz-adv-x="1107" 
d="M795 1145l-764 -3v195l474 -1l474 1l106 -149q-229 -415 -433 -797.5t-234 -437.5l-215 95q316 569 593 1094z" />
    <glyph glyph-name="eight.proportional" horiz-adv-x="1255" 
d="M327 358q0 -97 86.5 -164t212.5 -67t210.5 63.5t85.5 169.5q2 129 -156 201q-88 42 -246 86q-79 -46 -136 -119t-57 -170zM892 988q0 106 -72 165.5t-182 59.5t-188.5 -55t-78.5 -153q0 -59 40.5 -104.5t114.5 -79.5t210 -72q156 105 156 239zM1117 1024
q0 -194 -212 -335v-2q112 -49 180.5 -132t68.5 -195q0 -182 -151 -290.5t-379 -108.5t-375.5 105t-147.5 284q0 200 249 358v2q-205 107 -205 303q0 160 142.5 261.5t350.5 101.5t343.5 -97.5t135.5 -254.5z" />
    <glyph glyph-name="nine.proportional" horiz-adv-x="1233" 
d="M919 889q0 144 -87 226q-87 83 -218 83q-130 0 -210 -86q-89 -85 -89 -199q0 -115 53.5 -186t150.5 -114q114 -56 250 -73q150 171 150 349zM965 454q-94 -117 -254 -289.5t-210 -218.5l-193 123q51 54 164 169.5t169 177.5v3q-198 26 -361 128q-201 126 -201 352
q0 189 152 332q152 144 392 144q239 0 385 -132q145 -132 145 -343q0 -212 -188 -446z" />
    <glyph glyph-name="plus" horiz-adv-x="1687" 
d="M1368 513h-448v-448h-154v448h-447v151h447v446h154v-446h448v-151z" />
    <glyph glyph-name="divide" horiz-adv-x="1687" 
d="M951 108h-217v215h217v-215zM951 852h-217v214h217v-214zM1365 513h-1043v149h1043v-149z" />
    <glyph glyph-name="equal" horiz-adv-x="1687" 
d="M1354 317h-1020v147h1020v-147zM1354 699h-1020v147h1020v-147z" />
    <glyph glyph-name="notequal" horiz-adv-x="1687" 
d="M1347 315h-531l-113 -340l-126 41l101 299h-351v147h401l78 240h-479v146h529l110 334l127 -39l-100 -295h354v-146h-403l-79 -240h482v-147z" />
    <glyph glyph-name="plusminus" horiz-adv-x="1687" 
d="M1367 130h-1048v150h449v367h-449v151h446v429h156v-429h446v-151h-450v-367h450v-150z" />
    <glyph glyph-name="less" horiz-adv-x="1687" 
d="M1325 218l-68 -143l-898 430v141l897 431l70 -140l-765 -358v-6z" />
    <glyph glyph-name="greater" horiz-adv-x="1687" 
d="M1336 505l-897 -430l-69 143l765 355v6l-766 358l70 140l897 -431v-141z" />
    <glyph glyph-name="lessequal" horiz-adv-x="1687" 
d="M1375 93h-1025v146h1025v-146zM1349 460l-55 -138l-938 383v140l934 398l60 -143l-774 -321v-6z" />
    <glyph glyph-name="greaterequal" horiz-adv-x="1687" 
d="M1359 93h-1025v146h1025v-146zM1354 705l-939 -383l-55 138l774 313v6l-775 321l60 143l935 -398v-140z" />
    <glyph glyph-name="logicalnot" horiz-adv-x="1687" 
d="M1358 148h-165v414h-897v150h1062v-564z" />
    <glyph glyph-name="approxequal" horiz-adv-x="1687" 
d="M1099 338q126 0 188 178l131 -37q-39 -128 -126 -204t-196 -76t-215 65q-105 65 -156 96t-109 31q-122 0 -188 -176l-128 39q35 123 121.5 199.5t194.5 76.5t195 -54q32 -19 88 -52.5t100 -59.5t100 -26zM423.5 840.5q86.5 76.5 194.5 76.5t195 -57q127 -77 179 -106
q52 -30 111 -30q58 0 106.5 45.5t77.5 131.5l132 -35q-38 -128 -125.5 -204t-194.5 -76t-194 52l-73 44q-72 44 -113 70t-102 26q-125 0 -188 -174l-127 37q35 123 121.5 199.5z" />
    <glyph glyph-name="tilde.ascii" horiz-adv-x="1687" 
d="M601 607q-141 2 -201 -250l-144 27q30 167 128.5 276.5t234.5 108.5q96 -2 186 -70q31 -24 75.5 -57.5t92.5 -70.5t110 -37q63 -1 116.5 67t79.5 187l144 -28q-30 -166 -124 -276t-225 -110t-230 83q-136 114 -172.5 132t-70.5 18z" />
    <glyph glyph-name="circumflex.ascii.oldstyle" horiz-adv-x="1687" 
d="M1341 562l-145 -67l-358 685h-4l-353 -685l-145 68l427 824h147z" />
    <glyph glyph-name="lozenge" horiz-adv-x="1687" 
d="M1155 667l-315 527h-4l-316 -527l316 -528h4zM1329 667l-425 -692h-135l-421 692l421 692h135z" />
    <glyph glyph-name="radical" horiz-adv-x="1687" 
d="M1611 1579l-679 -1658h-113l-344 774l-270 -174l-63 100l397 256h54l298 -672h6l583 1419z" />
    <glyph glyph-name="period" horiz-adv-x="589" 
d="M427 0h-264v273h264v-273z" />
    <glyph glyph-name="comma" horiz-adv-x="589" 
d="M39 -232q68 127 234 546l192 -87v-10l-267 -517z" />
    <glyph glyph-name="period.centered" horiz-adv-x="589" 
d="M422 446h-250v259h250v-259z" />
    <glyph glyph-name="dollar.superior" horiz-adv-x="840" 
d="M524 778q0 30 -18.5 45.5t-59.5 30.5q-36 27 -88.5 49t-91.5 25q-119 62 -119 180q0 52 37 98.5t100 72.5q43 25 114.5 31.5t107.5 10.5t52.5 4t21.5 1l-2 191l122 11l-1 -151l1 -171q-16 -10 -123 -5.5t-162 -29.5q-34 -9 -55 -30t-21 -47q0 -48 80 -72q34 -23 86 -46.5
t90 -24.5q124 -71 124 -182q0 -49 -67.5 -141.5t-353.5 -85.5q-27 -1 -57 -2l2 -217l-122 -2l2 165q-1 101 -2 132t0 50q38 1 74.5 0.5t108.5 1.5t125 18q54 16 74.5 38t20.5 52z" />
    <glyph glyph-name="cent.superior" horiz-adv-x="830" 
d="M730 278h-123l2 253q-346 16 -428 142t-82 216q0 171 163 274q123 79 340 90l-2 234h123q-1 -34 -1 -49v-135l1 -183h-75q-231 0 -303 -80t-72 -147t77.5 -147t319.5 -80h60l-2 -181q-1 -44 0.5 -98t1.5 -109z" />
    <glyph glyph-name="period.superior" horiz-adv-x="423" 
d="M311 535h-197v199h197v-199z" />
    <glyph glyph-name="comma.superior" horiz-adv-x="423" 
d="M19 389q113 222 180 381l155 -69l-214 -367z" />
    <glyph glyph-name="plus.superior" horiz-adv-x="875" 
d="M792 901h-295v-293h-122v293h-294v117h294v292h122v-292h295v-117z" />
    <glyph glyph-name="minus.superior" horiz-adv-x="875" 
d="M785 899h-695v121h695v-121z" />
    <glyph glyph-name="dollar.inferior" horiz-adv-x="840" 
d="M524 242q0 30 -18 45q-18 16 -60 31q-36 27 -88 49t-92 25q-119 62 -119 180q0 52 37 98t100 73q42 25 114 31t108 11q36 4 52 4t22 1l-2 191l122 11l-1 -151l1 -171q-16 -10 -52 -8q-177 7 -233 -27q-34 -9 -55 -30t-21 -47q0 -48 80 -72q34 -22 86 -46t90 -25
q124 -71 124 -182q0 -49 -34 -95q-101 -138 -387 -132q-27 -1 -57 -2l2 -217l-122 -2l2 165q-1 101 -2 132t0 50h75t108 2t125 18q55 16 75 38t20 52z" />
    <glyph glyph-name="cent.inferior" horiz-adv-x="840" 
d="M730 -258h-123l2 253q-346 16 -461 193q-49 75 -49 165q0 171 163 274q123 79 340 90l-2 234h123q-1 -35 -1 -93v-91l1 -183h-75q-231 0 -330 -110q-45 -50 -45 -117q1 -67 47 -115q109 -112 350 -112h60l-2 -181q-2 -44 0 -98t2 -109z" />
    <glyph glyph-name="period.inferior" horiz-adv-x="420" 
d="M311 -1h-197v199h197v-199z" />
    <glyph glyph-name="comma.inferior" horiz-adv-x="420" 
d="M19 -147q113 222 180 381l155 -69l-214 -367z" />
    <glyph glyph-name="plus.inferior" horiz-adv-x="840" 
d="M792 365h-295v-293h-122v293h-294v117h294v292h122v-292h295v-117z" />
    <glyph glyph-name="minus.inferior" horiz-adv-x="840" 
d="M785 363h-695v121h695v-121z" />
    <glyph glyph-name="a.superior" horiz-adv-x="758" 
d="M217 739q0 -115 217 -115l66 1v240q-133 -5 -185 -24q-98 -36 -98 -102zM494 948q-9 127 -205 127q-71 0 -99 -1t-60 -2l17 118l122 2q300 0 343.5 -108.5t43.5 -198.5l-1 -350q-53 -10 -218 -10q-164 0 -239 30q-146 58 -146 176q0 117 156 173q92 32 286 44z" />
    <glyph glyph-name="b.superior" horiz-adv-x="821" 
d="M597 866q0 127 -139 177q-70 30 -171 30h-18l-1 -211l1 -213q218 0 273 75.5t55 141.5zM273 1185q489 -12 489 -323q0 -91 -53 -164.5t-135 -109.5q-142 -62 -368 -61l-95 1l1 489v191q0 190 -1 258h163z" />
    <glyph glyph-name="c.superior" horiz-adv-x="661" 
d="M557 1063q-209 0 -269.5 -71.5t-60.5 -132.5q0 -118 136 -171q88 -32 209 -32h48l-16 -126h-84q-169 0 -315 81q-147 81 -147 243q0 161 143 248q143 86 357 86h37l14 -125h-52z" />
    <glyph glyph-name="d.superior" horiz-adv-x="822" 
d="M553 1066q-126 0 -195 -32q-134 -62 -134 -181q0 -118 114 -174q84 -40 205 -40h9l1 238v189zM59 848q0 90 54 165t132 109q132 57 304 63l-2 281h164l-2 -491q0 -305 2 -447l-94 -1q-247 0 -373 59q-84 39 -134.5 105.5t-50.5 156.5z" />
    <glyph glyph-name="e.superior" horiz-adv-x="757" 
d="M392 1098q-69 0 -118 -44.5t-60 -120.5h337q-8 78 -49 121.5t-110 43.5zM707 854h-486q6 -115 121 -168q80 -39 204 -39q42 0 72.5 1.5t47.5 1.5l-21 -115q-16 -1 -46 -3t-108 -2t-167.5 25.5t-145.5 71.5q-119 98 -119 242t95 238t238 94t229 -84q86 -83 86 -263z" />
    <glyph glyph-name="f.superior" horiz-adv-x="538" 
d="M18 1068v113h134v23q0 184 121 223.5t169 39.5h97l16 -114h-47q-201 0 -201 -155v-22h232v-108h-228l2 -533h-165l2 533h-132z" />
    <glyph glyph-name="g.superior" horiz-adv-x="820" 
d="M552 1002q0 15 -1 68q-133 0 -198 -30q-130 -58 -130 -177t120 -173q78 -37 195 -37h13l1 195v154zM59 867q0 90 54 159.5t133 103.5q136 60 353 59h111l-2 -320q-1 -65 0 -132t1 -151q0 -189 -161 -265q-138 -68 -394 -66l-17 115q190 4 264 28t107.5 58.5t35.5 90.5
q-193 0 -319 62q-166 86 -166 258z" />
    <glyph glyph-name="h.superior" horiz-adv-x="855" 
d="M586 695v111q0 111 -1 161q-2 109 -108 109q-76 0 -204 -64l1 -477h-163l1 492l-1 439h163l-1 -339l2 -3q154 77 259 77t159 -54t54 -143l-1 -210l2 -259h-164q2 50 2 160z" />
    <glyph glyph-name="i.superior" horiz-adv-x="385" 
d="M273 865l2 -330h-164l2 321q0 139 -2 327h164q-2 -172 -2 -318zM280 1303h-174v128h174v-128z" />
    <glyph glyph-name="j.superior" horiz-adv-x="391" 
d="M282 876l1 -290q0 -180 -112 -255q-89 -64 -263 -77l-31 114q126 13 179 49q31 24 48 61t17 110l-1 595h163zM288 1303h-174v128h174v-128z" />
    <glyph glyph-name="k.superior" horiz-adv-x="763" 
d="M730 1138q-114 -119 -240 -261v-3q25 -32 92 -109.5t182 -212.5l-127 -64q-190 219 -333 365v20q131 141 287 328zM112 1326q0 28 -1 140h163q-1 -105 -1 -138v-309l1 -484h-163l1 491v300z" />
    <glyph glyph-name="l.superior" horiz-adv-x="385" 
d="M273 1028l2 -493h-164l2 486q0 231 -2 445h164q-2 -224 -2 -438z" />
    <glyph glyph-name="m.superior" horiz-adv-x="1283" 
d="M703 1117q146 84 283 84q83 0 136.5 -52.5t53.5 -140.5l-2 -206q0 -159 3 -267h-165q2 62 2 235l-1 181q-1 125 -99 125q-89 0 -192 -59q2 -14 2 -18v-51q-1 -48 -1 -59v-95q0 -185 2 -259h-164l2 235l-1 180q-2 68 -27 96.5t-91 28.5t-171 -62l-1 -204l1 -274h-163
q2 66 2 236v159q0 159 -2 256h161v-63l2 -1q146 79 263.5 79t163.5 -84h3z" />
    <glyph glyph-name="o.superior" horiz-adv-x="827" 
d="M535 1041q-50 42 -121 42t-131 -52q-61 -52 -61 -170t72 -182q49 -43 102 -43q93 0 151 55t58 171q0 117 -70 179zM655 602q-96 -84 -242 -84q-147 0 -250 91q-104 91 -104 246q0 154 103 255q97 91 250.5 91t254.5 -93t101 -251t-113 -255z" />
    <glyph glyph-name="p.superior" horiz-adv-x="821" 
d="M269 644q330 6 330 220q0 206 -309 205h-21l-1 -190zM255 1189q351 0 429.5 -115t78.5 -204t-48.5 -160.5t-120.5 -106.5q-136 -66 -321 -68l1 -279h-163l1 509l-1 424h144z" />
    <glyph glyph-name="q.superior" horiz-adv-x="822" 
d="M223 864q0 -120 117 -175q76 -38 203 -38h11l1 160l-1 266q-227 0 -279 -76.5t-52 -136.5zM59 863q0 88 51 157.5t130 105.5q137 64 371 63h101q-2 -196 -2 -425l2 -508h-164l2 279q-186 2 -289 48q-202 89 -202 280z" />
    <glyph glyph-name="r.superior" horiz-adv-x="585" 
d="M112 1066q0 23 -1 120h160v-96l3 -2q136 73 283 117l44 -134q-150 -31 -328 -110v-163l2 -263h-164l1 310v221z" />
    <glyph glyph-name="s.superior" horiz-adv-x="625" 
d="M441 1077q-182 0 -182 -79q0 -39 61 -65q32 -14 65 -26.5t77 -32.5q110 -51 110 -145q0 -99 -102 -150t-274 -51l-132 3l-12 116q75 -5 118 -5q217 0 217 64t-84 97t-129 56q-98 50 -98 143q0 94 121 150q85 39 232 39l116 -1l14 -115z" />
    <glyph glyph-name="t.superior" horiz-adv-x="586" 
d="M21 1073v113h124v166h157v-166h247v-113h-246q-2 -46 -2 -146l1 -138q0 -75 41.5 -107.5t145.5 -32.5h29q28 0 35 1l-16 -117l-90 -3q-152 0 -229.5 55.5t-77.5 180.5l2 307h-121z" />
    <glyph glyph-name="u.superior" horiz-adv-x="855" 
d="M742 904q0 -224 2 -369h-161v61l-3 3q-150 -80 -256 -80t-161.5 53.5t-55.5 145.5l1 209q0 199 -2 259h164l-2 -226l1 -183q1 -70 25 -101.5t74 -31.5q94 0 213 65l1 202l-2 275h164q-2 -58 -2 -282z" />
    <glyph glyph-name="v.superior" horiz-adv-x="755" 
d="M302 535q-43 110 -284 615l158 47l202 -466h6l199 466l150 -44q-220 -462 -281 -618h-150z" />
    <glyph glyph-name="w.superior" horiz-adv-x="1157" 
d="M273 535l-240 618l160 44l166 -460h6l164 438h118l153 -437h6l169 459l156 -41q-154 -369 -246 -621h-145q-40 135 -153 436h-6q-145 -370 -163 -436h-145z" />
    <glyph glyph-name="x.superior" horiz-adv-x="727" 
d="M687 1143q-63 -97 -206 -268v-3q71 -95 136.5 -181.5t80.5 -109.5l-145 -61q-22 41 -191 255h-6q-168 -212 -191 -256l-133 57q43 64 214 284v3q-152 194 -205 276l144 60q126 -175 179 -241h6q134 168 183 241z" />
    <glyph glyph-name="y.superior" horiz-adv-x="760" 
d="M389 735q53 111 201 462l153 -40q-371 -788 -417 -906l-150 42l122 260q-21 45 -98.5 217.5t-178.5 378.5l160 48q65 -154 201 -462h7z" />
    <glyph glyph-name="z.superior" horiz-adv-x="693" 
d="M60 1181h541l43 -72q-333 -406 -377 -453l1 -4l145 -1l241 1v-115l-309 1l-268 -1l-39 77q19 23 144.5 168t230.5 282l-2 4h-128l-223 -1v114z" />
    <glyph glyph-name="e_grave.superior" horiz-adv-x="757" 
d="M392 1098q-70 0 -118.5 -44.5t-59.5 -120.5h337q-8 77 -48.5 121t-110.5 44zM707 854h-486q6 -115 121 -168q80 -39 178 -39t146 3l-21 -115q-40 -5 -136 -5q-211 0 -335 99q-115 97 -115 241q0 143 95 237t238 94t229 -84q86 -83 86 -263zM547 1322l-42 -69l-328 126
l51 92z" />
    <glyph glyph-name="g_cedilla" horiz-adv-x="1046" 
d="M289 511q0 -193 170 -283q120 -63 287 -63h29l1 338l-1 351q-313 0 -433 -168q-52 -74 -53 -175zM763 16h-19q-278 0 -468 117q-90 56 -150 153q-60 98 -59 236q0 276 284 413q176 88 487 88h151l-2 -502l1 -443q0 -307 -231 -428q-209 -107 -552 -105l-25 164
q427 1 537 155q46 64 46 152zM947 -569l-445 -212l-60 120l433 237z" />
    <glyph glyph-name="i_turk" horiz-adv-x="545" 
d="M367 511l2 -511h-221l2 506q0 224 -2 510h221zM376 1214h-234v186h234v-186z" />
    <glyph glyph-name="i.dotless.2" horiz-adv-x="545" 
d="M367 511l2 -511h-221l2 506q0 224 -2 510h221z" />
    <glyph glyph-name="k_comma.accent" horiz-adv-x="934" 
d="M1086 18l-173 -88q-185 224 -335 384t-177 196v2q39 52 177 210t255 315l192 -85q-105 -119 -209 -247t-146 -176v-1l130 -156q130 -156 286 -354zM365 766l2 -767h-222l2 776l-2 691h222q-2 -294 -2 -700zM907 -202l-445 -212l-60 120l433 237z" />
    <glyph glyph-name="l_comma.accent" horiz-adv-x="433" 
d="M367 768l2 -768h-221l2 761l-2 705h221zM638 -202l-445 -212l-60 120l433 237z" />
    <glyph glyph-name="r_comma.accent" horiz-adv-x="686" 
d="M365 675l-1 -255l3 -420h-222l2 485l-2 531h218l-2 -155l2 -1q106 66 224 116t173 67l59 -187q-222 -66 -454 -181zM767 -202l-445 -212l-60 120l433 237z" />
    <glyph glyph-name="A_V" horiz-adv-x="1890" 
d="M-17 45q352 821 571 1302h234q77 -154 215.5 -487t238.5 -572h6q98 252 257.5 638.5t176.5 432.5l215 -69q-15 -34 -209.5 -476.5t-338.5 -823.5h-226l-184 431h-553q-130 -297 -189 -447zM657 1103l-226 -524l2 -1h457l1 1q-73 169 -229 524h-5z" />
    <glyph glyph-name="C_A" horiz-adv-x="2314" 
d="M1036 -17q-242 0 -432.5 59.5t-311.5 170.5q-204 181 -204 460t213 460q254 216 709 218h44q0 -14 22 -199h-88q-69 0 -184.5 -25t-223.5 -79t-177.5 -151t-69.5 -232q0 -256 252 -390q183 -95 424 -100q19 43 182.5 408t332.5 764h232q121 -291 325.5 -755.5
t237.5 -542.5l-227 -75q-149 358 -187 447h-552q-73 -173 -124 -294.5t-60 -139.5q-56 -4 -133 -4zM1627 1101l-226 -522l1 -1h455l1 1q-194 447 -227 522h-4z" />
    <glyph glyph-name="C_C" horiz-adv-x="1182" 
d="M1036 -17q-492 0 -744 230q-203 180 -203 460q0 279 213 460q128 110 314 163.5t395 54.5h50l16 -154h-40q-300 -2 -503 -118q-246 -144 -246 -411t237 -410q201 -121 530 -123q10 0 20 -0.5t21 0.5q-1 -5 -18 -152h-42zM660 403q-152 102 -152 262t145 261
q145 97 401 99h41l16 -134h-59q-229 0 -295.5 -78.5t-66.5 -144.5q0 -124 140 -183q93 -41 242 -41q10 0 24.5 0.5t25.5 0.5l-16 -135h-91t-173.5 22.5t-181.5 70.5z" />
    <glyph glyph-name="C_O" horiz-adv-x="1373" 
d="M1032 487q67 67 67 182t-71 180q-44 42 -100 42q-148 0 -177.5 -85.5t-29.5 -139.5q0 -117 72 -183q49 -43 101 -43q91 0 138 47zM1035 -17q-490 0 -744 230q-203 182 -203 461q0 278 213 459q251 216 709 218h50q3 -26 7 -64t10 -90h-58q-287 0 -486 -113
q-246 -145 -246 -416t236 -413q196 -118 510 -120h22q22 0 40 1l-18 -153h-42zM1175 400q-102 -87 -263.5 -87t-267.5 86q-124 104 -124 264t111 257q111 98 278 98q168 0 279 -96t111 -259t-124 -263z" />
    <glyph glyph-name="C_T" horiz-adv-x="2070" 
d="M1074 1144q-291 0 -481 -86q-121 -59 -190.5 -155.5t-69.5 -230.5q0 -254 252 -388q97 -53 226 -78.5t191 -25.5t71 -0.5t20 -0.5l-24 -196h-34q-494 4 -744 232q-203 184 -203 462t216 459q237 199 730 199l457 1l584 1v-195l-462 2l-2 -551l2 -593h-236l4 593l-2 551
h-305z" />
    <glyph glyph-name="H_E" horiz-adv-x="2136" 
d="M1126 789l-3 548l419 -1l465 1v-179l-351 2l-304 -1l-1 -396l293 -1l358 1v-151l-350 2l-301 -2l1 -432q170 -3 346 -1l322 1v-179l-463 1l-434 -1l3 594l-353 1l-361 -1l2 -595h-237l2 713l-2 626h237l-2 -550l363 -2z" />
    <glyph glyph-name="L_A" horiz-adv-x="2231" 
d="M1554 1101l-226 -522l2 -1h454l2 1l-227 522h-5zM1103 1l-469 1l-458 -1l3 694l-3 644h237l-2 -562l2 -585l230 -1l300 1q39 99 198 448.5t311 706.5h232q141 -341 336.5 -782.5t227.5 -515.5l-228 -75q-50 127 -186 447h-553q-118 -275 -178 -420z" />
    <glyph glyph-name="L_E" horiz-adv-x="1277" 
d="M1196 462h-552q1 79 1 106v331l-1 438l280 -1l264 1v-134h-384l-1 -236h173l186 1v-114l-192 2l-167 -1l1 -260l183 -1l209 1v-133zM669 187l403 2v-188l-463 1l-433 -1l3 694l-3 644h219l-2 -562l2 -589z" />
    <glyph glyph-name="L_I" horiz-adv-x="1102" 
d="M956 612q0 -29 1 -148h-216l1 442l-1 432h216l-1 -408v-318zM651 190l401 2v-191l-458 1l-418 -1l3 694l-3 644h237l-2 -562l2 -586z" />
    <glyph glyph-name="L_L" horiz-adv-x="1193" 
d="M658 602v299l-1 438h174l-1 -369l1 -365l154 -1l211 2v-142l-247 1l-292 -1q1 111 1 138zM666 190l403 2v-191l-460 2l-433 -2l3 694l-3 644h218l-2 -560l2 -588z" />
    <glyph glyph-name="M_B" horiz-adv-x="2544" 
d="M2110 980q0 56 -53.5 131.5t-284.5 75.5q-102 0 -184 -5q6 -35 32 -190.5t52 -309.5t54.5 -321.5t34.5 -195.5q247 -2 355 61t108 188q0 95 -65 154q-75 73 -226 73l-80 -1l-20 104q114 5 173 49q60 45 82 88t22 99zM1752 1345q242 0 362 -42q235 -82 235 -281
q0 -104 -58.5 -178t-148.5 -111v-8q141 -18 225 -98q101 -89 101 -234q0 -110 -61.5 -194.5t-163.5 -126.5q-181 -75 -499 -75q-125 0 -184 4l-165 992h-4q-38 -99 -151 -350.5t-211 -503.5h-187q-97 251 -208.5 517t-145.5 350h-6q-107 -475 -207 -1019l-224 38
q88 396 174 811.5t102 491.5l237 24q22 -65 140.5 -367t240.5 -571h5q96 218 232.5 547t156.5 376q92 2 194.5 5t218.5 3z" />
    <glyph glyph-name="M_D" horiz-adv-x="2669" 
d="M1593 1157l165 -974q222 16 355 96q227 137 227 388t-208 382q-173 108 -460 108q-14 0 -34 -0.5t-45 0.5zM1648 1341q413 0 654 -153q281 -185 281 -525q0 -169 -80.5 -303t-208.5 -212q-250 -152 -612 -152q-75 0 -121 2l-166 995h-4q-38 -99 -151 -350.5t-211 -503.5
h-187q-97 251 -208.5 517t-145.5 350h-6q-10 -55 -82 -393t-125 -626l-224 38q91 406 177.5 827.5t98.5 475.5l237 24q20 -57 139.5 -363t241.5 -575h5q204 465 389 923q156 4 309 4z" />
    <glyph glyph-name="M_E" horiz-adv-x="2455" 
d="M1339 1337l506 -1l472 1v-179l-374 2h-350l63 -397l292 -1l367 1v-151l-355 2q-41 0 -124.5 -1t-151.5 -1l72 -432l253 -1l330 1v-179l-447 1l-331 -1l-166 992h-4q-38 -99 -151 -350.5t-211 -503.5h-187q-97 251 -208.5 517t-145.5 350h-6q-19 -81 -86.5 -406
t-120.5 -613l-224 38q81 362 173 806t103 497l237 24q19 -53 139 -361t242 -577h5q206 471 389 923z" />
    <glyph glyph-name="M_P" horiz-adv-x="2448" 
d="M1659 1340q265 0 428 -67q139 -53 212 -155.5t73 -239.5t-72 -235t-195 -152q-155 -78 -384 -87l66 -378l-224 -39l-168 1006h-4q-38 -99 -151 -350.5t-211 -503.5h-187q-97 251 -208.5 517t-145.5 350h-6q-10 -51 -81.5 -388t-125.5 -631l-224 38q114 508 276 1303
l237 24q18 -50 138.5 -359.5t242.5 -578.5h5q96 218 232 545t157 377q213 4 320 4zM2129 857q0 310 -407 310q-49 0 -81 -1t-49 -1l100 -611q163 0 269 45q168 80 168 258z" />
    <glyph glyph-name="N_K" horiz-adv-x="2265" 
d="M1422 651q385 464 578 704l205 -91q-122 -147 -290.5 -341.5t-214.5 -257.5v-3q42 -53 219 -233.5t333 -348.5l-207 -101q-151 183 -358.5 392.5t-264.5 276.5v3zM1153 376l-5 963h228l-2 -662l2 -631l-182 -59q-239 321 -492.5 636.5t-303.5 384.5l-3 -2l5 -1006h-224
l3 629l-3 651l198 71q43 -58 313 -402.5t463 -573.5z" />
    <glyph glyph-name="N_T" horiz-adv-x="1850" 
d="M1412 1144q-3 -471 -3 -490l3 -628l-214 -30q-236 305 -494 625.5t-306 386.5l-3 -2l5 -1006h-224l3 629l-3 651l198 71q61 -78 339.5 -426.5t476.5 -582.5l3 1q0 258 -3 804l-436 -1l-1 191l545 -1l553 1v-194z" />
    <glyph glyph-name="R_A" horiz-adv-x="2471" 
d="M856 924q0 243 -360 243l-83 -1q-2 -300 -2 -514l2 -652h-237l3 679l-2 659q76 4 235 4t255.5 -11t197.5 -47t167 -121t66 -201t-62 -211t-176 -152v-5q52 -63 166.5 -184t170.5 -190l495 1127h232q131 -317 324.5 -754t238.5 -544l-227 -75q-50 128 -187 447h-552
l-169 -392l-230 -44q-210 261 -538 612l2 21q114 31 193 109t77 197zM1795 1101l-226 -522l1 -1h455l1 1l-226 522h-5z" />
    <glyph glyph-name="S_T" horiz-adv-x="1969" 
d="M767 1336h624l583 1v-194l-462 1l-2 -551l3 -593h-236l3 593q1 126 0 258.5t-2 295.5h-478q-208 0 -294 -45q-101 -48 -101 -145t135 -164q56 -28 119 -57t112 -57q207 -114 207 -303q0 -103 -97.5 -248.5t-527.5 -145.5q-187 0 -245 10l-22 192q74 -12 234 -12
q159 0 261 45q117 47 119 159t-141 182q-44 22 -111.5 56t-141.5 74t-127 114t-53 166q1 170 177 276q151 92 464 92z" />
    <glyph glyph-name="T_E" horiz-adv-x="1446" 
d="M772 179h248l310 1v-179l-440 1l-422 -1l3 619q1 123 0 245t-2 279q-212 1 -321.5 0.5t-160.5 -0.5v193l704 -1l626 1v-178l-323 1l-299 -1l-1 -396l271 -1l347 1v-151l-339 2l-279 -2l1 -432q53 -1 77 -1z" />
    <glyph glyph-name="V_A" horiz-adv-x="1916" 
d="M1239 1102l-226 -523l2 -1h454l2 1q-100 231 -226 523h-6zM671 284q193 488 459 1063h238q122 -293 318 -735.5t246 -562.5l-227 -75q-120 291 -187 447h-558l-185 -433h-228q-145 362 -342 805t-217 493l230 74q17 -46 181 -441.5t267 -634.5h5z" />
    <glyph glyph-name="I.2" horiz-adv-x="587" 
d="M407 832l3 -832h-233l2 809q0 347 -2 787h233q-3 -534 -3 -764z" />
    <glyph glyph-name="L.2" horiz-adv-x="1071" 
d="M651 194l400 1v-194l-457 1l-418 -1q3 438 3 779l-3 816h237l-2 -718l2 -683z" />
    <glyph glyph-name="T.2" horiz-adv-x="968" 
d="M1063 1402h-462l-2 -741l3 -661h-236l3 663q1 156 -2 739q-163 1 -287 0.5t-174 -0.5v194l574 -1l583 1v-194z" />
    <glyph glyph-name="Y.2" horiz-adv-x="1042" 
d="M640 0h-239q0 74 2 341t1 493q-105 158 -272 395t-211 302l216 89q30 -54 156 -231.5t232 -332.5h1l389 563l202 -87q-50 -79 -215 -306t-265 -381q-1 -196 1 -486.5t2 -358.5z" />
    <glyph glyph-name="c_t" horiz-adv-x="1571" 
d="M1492 156q21 0 34 0.5t28 0.5l-22 -162q-45 -3 -106 -3q-442 0 -442 355l3 506h-155q-362 0 -450.5 -121.5t-88.5 -219.5t54.5 -171t136.5 -109q148 -64 321 -63h42l-22 -176h-38q-296 0 -486 118q-234 142 -234 390t216 391q188 124 519 124h189v255h213v-255h349v-163
h-349l-2 -229l2 -231q0 -128 65.5 -182.5t222.5 -54.5z" />
    <glyph glyph-name="f_j" horiz-adv-x="1251" 
d="M25 854v162h188v42q0 188 121 298t348 110h61l13 -157h-61q-42 0 -158.5 -32.5t-116.5 -227.5v-33h686l-2 -507l2 -455q0 -259 -158 -378q-128 -103 -368 -130l-46 160q182 23 261 87q45 37 68.5 95t23.5 168q2 316 -2 800l-220 1l-238 -1l2 -857h-221l3 855h-186z
M1112 1214h-206v186h206v-186z" />
    <glyph glyph-name="f_t" horiz-adv-x="1446" 
d="M1367 156h24q24 0 38 1l-22 -162q-45 -3 -106 -3q-442 0 -442 355l3 508h-435l2 -856h-220l2 855h-186v162h188v42q0 98 26.5 167t87.5 125q128 116 360 116h71l17 -152h-75q-49 0 -113.5 -16.5t-102.5 -51.5t-52 -81t-14 -122v-35h456v263h205v-255h349v-162h-349
l-2 -230l2 -231q0 -124 63.5 -180.5t224.5 -56.5z" />
    <glyph glyph-name="r.2" horiz-adv-x="1075" 
d="M702 709q0 42 -23.5 78t-74.5 63t-166 27l-73 -1q-1 -124 -1 -154v-245l2 -477h-221l2 516q0 231 -2 505q116 4 300 4t282 -38q200 -77 200 -260q0 -80 -45.5 -149.5t-129.5 -110.5v-5q296 -300 348 -348l-155 -146q-43 40 -172.5 174.5t-280.5 281.5v68q210 57 210 217z
" />
    <glyph glyph-name="s_t" horiz-adv-x="1551" 
d="M1473 156q21 0 35 0.5t26 0.5l-22 -162q-54 -3 -105 -3q-442 0 -442 355l2 508h-323q-306 0 -306 -127q0 -65 96 -116q53 -26 108 -49t117 -57q133 -72 133 -215t-153 -230q-123 -70 -383 -72q-121 0 -183 6l-18 164q84 -6 182 -6q306 0 306 139q0 66 -93 115
q-35 18 -99.5 45.5t-126.5 62.5q-132 75 -133 218q0 143 168 226q108 57 345 57h367v260h214v-260h349v-163h-350l-1 -229l1 -231q0 -127 65 -182t224 -55z" />
    <glyph glyph-name="t.2" horiz-adv-x="763" 
d="M5 853v163h768v-163h-360l-2 -229l2 -231q0 -127 64.5 -182t206.5 -55q22 0 32.5 0.5t19.5 0.5l-22 -162q-24 -3 -96 -3q-202 0 -313.5 87.5t-111.5 267.5l3 506h-191z" />
    <glyph glyph-name="t_y" horiz-adv-x="1739" 
d="M692 156q18 0 31.5 0.5t24.5 0.5l-22 -162q-45 -3 -100 -3q-217 0 -329.5 86t-112.5 269l3 506h-168v163h172v253h213v-253h521q175 -460 291 -725h4q11 27 111.5 266.5t183.5 474.5l206 -60q-161 -395 -364 -871t-234 -555l-203 57l180 419l-350 835h-346l-2 -233
l2 -231q0 -125 64 -181t224 -56z" />
    <glyph glyph-name="a.inferior" horiz-adv-x="765" 
d="M217 203q0 -115 217 -115l66 1v240q-133 -5 -185 -24q-98 -36 -98 -102zM494 412q-9 127 -205 127q-71 0 -99 -1t-60 -2l17 118l122 2q301 0 367 -166q20 -51 20 -141l-1 -350q-53 -10 -218 -10q-164 0 -239 30q-146 58 -146 176q0 117 156 173q92 32 286 44z" />
    <glyph glyph-name="b.inferior" horiz-adv-x="825" 
d="M597 330q0 127 -139 177q-70 30 -171 30h-18l-1 -211l1 -213q218 1 297 109q31 42 31 108zM273 649q489 -12 489 -323q0 -90 -53 -164t-135 -110q-142 -62 -368 -61l-95 1l1 489v259q0 122 -1 190h163z" />
    <glyph glyph-name="c.inferior" horiz-adv-x="680" 
d="M557 527q-209 1 -291 -97q-38 -46 -39 -107q0 -118 136 -171q88 -32 209 -32h48l-16 -126h-84q-169 0 -315 81q-147 81 -147 243q0 161 143 248q143 86 357 86h37l14 -125h-52z" />
    <glyph glyph-name="d.inferior" horiz-adv-x="826" 
d="M553 530q-126 0 -195 -32q-134 -62 -134 -181q0 -118 114 -174q84 -40 205 -40h9l1 238v189zM59 312q0 90 54 166q54 74 132 108q132 57 304 63l-2 281h164l-2 -491q0 -305 2 -447l-94 -1q-247 0 -373 59q-84 40 -134 106t-51 156z" />
    <glyph glyph-name="e.inferior" horiz-adv-x="761" 
d="M392 562q-69 0 -118 -44t-60 -121h337q-8 77 -49 121t-110 44zM707 318h-486q6 -115 121 -168q80 -39 204 -39q42 -1 72 1t48 2l-21 -115q-16 -1 -46 -3t-108 -2q-77 0 -167 26t-146 71q-119 98 -119 242t95 238t238 94t229 -84q86 -83 86 -263z" />
    <glyph glyph-name="f.inferior" horiz-adv-x="550" 
d="M18 532v113h134v23q0 184 179 242q63 20 111 21h97l16 -114h-47q-201 0 -201 -155v-22h232v-108h-228l2 -533h-165l2 533h-132z" />
    <glyph glyph-name="g.inferior" horiz-adv-x="821" 
d="M552 418q0 62 -1 116q-133 0 -198 -30q-130 -58 -130 -177t120 -173q78 -37 195 -37h13l1 195v106zM59 331q0 90 54 159q54 70 133 104q136 60 353 59h111l-2 -320q-1 -65 0 -133t1 -150q0 -189 -161 -265q-138 -68 -394 -66l-17 115q190 4 264 28q73 24 107 58t36 91
q-193 0 -319 62q-166 86 -166 258z" />
    <glyph glyph-name="h.inferior" horiz-adv-x="865" 
d="M586 159v166q0 56 -1 106q-2 109 -108 109q-76 0 -204 -64l1 -477h-163l1 492l-1 439h163l-1 -339l2 -3q154 77 259 77t159 -54t54 -143l-1 -210l2 -259h-164q2 50 2 160z" />
    <glyph glyph-name="i.inferior" horiz-adv-x="407" 
d="M273 329l2 -330h-164l2 321q0 139 -2 327h164q-2 -172 -2 -318zM280 767h-174v128h174v-128z" />
    <glyph glyph-name="j.inferior" horiz-adv-x="420" 
d="M282 340l1 -290q0 -180 -112 -255q-89 -64 -263 -77l-31 114q126 13 179 49q31 24 48 61t17 110l-1 595h163zM288 767h-174v128h174v-128z" />
    <glyph glyph-name="k.inferior" horiz-adv-x="783" 
d="M730 602q-114 -119 -240 -261v-3q25 -32 92 -110t182 -212l-127 -64q-190 219 -333 365v20q131 141 287 328zM112 706q0 112 -1 224h163q-1 -104 -1 -234v-213l1 -484h-163l1 491v216z" />
    <glyph glyph-name="l.inferior" horiz-adv-x="408" 
d="M273 492l2 -493h-164l2 486q0 231 -2 445h164q-2 -224 -2 -438z" />
    <glyph glyph-name="m.inferior" horiz-adv-x="1294" 
d="M703 581q146 84 283 84q82 -1 136 -53t54 -140l-2 -206q0 -159 3 -267h-165q2 62 2 235l-1 181q-1 125 -99 125q-89 0 -192 -59q2 -14 2 -30v-39q-1 -48 -1 -91v-63q0 -185 2 -259h-164l2 235l-1 180q-2 68 -27 96t-91 29q-66 0 -171 -62l-1 -204l1 -274h-163q2 66 2 236
v244q0 74 -2 171h161v-63l2 -1q146 79 263 79t164 -84h3z" />
    <glyph glyph-name="n.inferior" horiz-adv-x="865" 
d="M586 152v174v102q-1 112 -109 112q-76 0 -204 -64v-201l1 -276h-163l1 325l-1 326h161v-60l2 -3q156 78 260 78q104 1 159 -53q54 -54 54 -143l-1 -217l2 -253h-164q2 36 2 153z" />
    <glyph glyph-name="o.inferior" horiz-adv-x="847" 
d="M535 505q-50 42 -121 42t-131 -52q-61 -52 -61 -170t72 -182q49 -43 102 -43q93 0 151 55t58 171q0 117 -70 179zM655 66q-96 -84 -242 -84q-147 0 -250 91q-104 91 -104 246q0 154 103 255q97 91 251 91q153 0 254 -93t101 -251t-113 -255z" />
    <glyph glyph-name="p.inferior" horiz-adv-x="827" 
d="M269 108q330 6 330 220q0 206 -309 205h-21l-1 -190zM255 653q351 0 463 -164q45 -66 45 -155q0 -88 -48 -160q-49 -72 -121 -107q-136 -66 -321 -68l1 -279h-163l1 509l-1 424h144z" />
    <glyph glyph-name="q.inferior" horiz-adv-x="824" 
d="M223 328q0 -120 117 -175q76 -38 203 -38h11l1 160l-1 266q-227 1 -300 -107q-31 -46 -31 -106zM59 327q0 88 51 157q51 70 130 106q137 64 371 63h101q-2 -196 -2 -425l2 -508h-164l2 279q-186 2 -289 48q-202 89 -202 280z" />
    <glyph glyph-name="r.inferior" horiz-adv-x="586" 
d="M112 462q0 90 -1 188h160v-96l3 -2q136 73 283 117l44 -134q-150 -31 -328 -110v-163l2 -263h-164l1 310v153z" />
    <glyph glyph-name="s.inferior" horiz-adv-x="611" 
d="M441 541q-182 0 -182 -79q0 -39 61 -65q32 -15 64 -27t78 -32q110 -51 110 -145q0 -99 -102 -150t-274 -51l-132 3l-12 116q75 -5 118 -5q217 0 217 85q0 43 -84 76t-129 56q-98 50 -98 143q0 94 121 150q85 39 232 39l116 -1l14 -115z" />
    <glyph glyph-name="t.inferior" horiz-adv-x="590" 
d="M21 537v113h124v166h157v-166h247v-113h-246q-2 -46 -2 -146l1 -138q0 -75 42 -107t145 -33h35q22 0 29 1l-16 -117l-90 -3q-151 0 -229 56t-78 180l2 307h-121z" />
    <glyph glyph-name="u.inferior" horiz-adv-x="865" 
d="M742 368q0 -224 2 -369h-161v61l-3 3q-150 -80 -256 -80q-106 -1 -162 53q-55 54 -55 146l1 209q0 199 -2 259h164l-2 -226l1 -183q1 -69 25 -101t74 -32q94 0 213 65l1 202l-2 275h164q-2 -58 -2 -282z" />
    <glyph glyph-name="v.inferior" horiz-adv-x="795" 
d="M302 -1q-43 110 -284 615l158 47l202 -466h6l199 466l150 -44q-220 -462 -281 -618h-150z" />
    <glyph glyph-name="w.inferior" horiz-adv-x="1188" 
d="M273 -1l-240 618l160 44l166 -460h6l164 438h118l153 -437h6l169 459l156 -41q-154 -369 -246 -621h-145q-40 135 -153 436h-6q-145 -370 -163 -436h-145z" />
    <glyph glyph-name="x.inferior" horiz-adv-x="750" 
d="M687 607q-63 -97 -206 -268v-3q71 -96 137 -182t80 -109l-145 -61q-22 41 -191 255h-6q-168 -212 -191 -256l-133 57q43 64 214 284v3q-152 194 -205 276l144 60q126 -175 179 -241h6q134 168 183 241z" />
    <glyph glyph-name="y.inferior" horiz-adv-x="798" 
d="M389 199q53 111 201 462l153 -40q-371 -788 -417 -906l-150 42l122 260q-20 45 -98 217t-179 379l160 48q65 -154 201 -462h7z" />
    <glyph glyph-name="z.inferior" horiz-adv-x="714" 
d="M60 645h541l43 -72q-333 -406 -377 -453l1 -4l145 -1l241 1v-115l-309 1l-268 -1l-39 77q18 23 144 168t231 282l-2 4h-128l-223 -1v114z" />
    <glyph glyph-name="e_grave.inferior" horiz-adv-x="761" 
d="M392 562q-70 0 -118 -44t-60 -121h337q-9 77 -49 121t-110 44zM707 318h-486q6 -115 121 -168q80 -39 178 -39t146 3l-21 -115q-40 -5 -136 -5q-211 0 -335 99q-115 97 -115 241q0 143 95 237t238 94t229 -84q86 -83 86 -263zM547 786l-42 -69l-328 126l51 92z" />
    <glyph glyph-name="empty.31" 
d="M0 -459v2050l1024 -1591z" />
    <glyph glyph-name="C_dot.accent" horiz-adv-x="1182" 
d="M1035 -17q-492 0 -744 230q-203 180 -203 460q0 279 213 460q128 109 315 163t394 55h50q3 -26 9 -82t14 -117h-93t-188 -26t-224 -79t-176 -149t-69 -230q0 -255 252 -386q186 -100 464 -102h27q14 0 27 1q-10 -59 -25 -198h-43zM825 1502h-225v188h225v-188z" />
    <glyph glyph-name="c_dot.accent" horiz-adv-x="930" 
d="M780 846q-142 0 -257 -44q-229 -88 -229 -292q0 -102 54 -173t136 -106q146 -62 322 -62h58l-21 -176h-55q-300 0 -488 116q-233 139 -233 392t215 393q195 128 503 128h43l19 -176h-67zM672 1157h-225v188h225v-188z" />
    <glyph glyph-name="G_dot.accent" horiz-adv-x="1410" 
d="M88 686q0 160 86 297q86 136 245 228q238 141 619 141l81 -1l24 -197h-125q-226 0 -426 -95q-112 -53 -186 -157q-75 -104 -75 -240q0 -138 64 -244t157 -156q176 -95 425 -99q0 238 -3 521h229q-2 -178 -2 -327l2 -359q-33 -10 -227 -9q-434 1 -684 219
q-204 175 -204 478zM877 1493h-225v188h225v-188z" />
    <glyph glyph-name="g_dot.accent" horiz-adv-x="1128" 
d="M289 511q0 -193 170 -283q120 -63 287 -63h29l1 338l-1 351q-313 0 -433 -168q-52 -74 -53 -175zM763 16h-19q-278 0 -468 117q-90 56 -150 153q-60 98 -59 236q0 276 284 413q176 88 487 88h151l-2 -502l1 -443q0 -307 -231 -428q-209 -107 -552 -105l-25 164
q427 1 537 155q46 64 46 152zM672 1202h-225v188h225v-188z" />
    <glyph glyph-name="H_bar" horiz-adv-x="1599" 
d="M414 1339q0 -76 -1 -310h712q-1 227 -1 310h237q-1 -168 -2 -310h31v-159h-31q-1 -108 -1 -185l3 -686l-237 1l2 595l-354 1l-360 -1l2 -595h-237l2 714l-2 625h237zM412 789l362 -1l352 1v81h-714v-81z" />
    <glyph glyph-name="h_bar" horiz-adv-x="1190" 
d="M650 861q-101 0 -285 -104l2 -757h-222l2 771q0 163 -1 325h-379v159h378v211h222l-1 -211h504v-159h-505l-1 -177l3 -1q77 43 187 83t200 40q141 0 217 -82t76 -223l-1 -321l2 -415h-222l2 401q0 192 -2 278t-38 134t-138 48z" />
    </font>
</defs>
</svg>
