<?xml version="1.0" standalone="no"?>
<!DOCTYPE svg PUBLIC "-//W3C//DTD SVG 1.1//EN" "http://www.w3.org/Graphics/SVG/1.1/DTD/svg11.dtd" >
<svg xmlns="http://www.w3.org/2000/svg">
<metadata>
Created by FontPrep 20130207 at Tue Dec  9 01:51:05 2014
 By Alexander Gunnarson
Topaza Copyright (C) 1997-2003 Hoefler &#38; Frere-Jones Typography, Inc. www.typography.com
</metadata>
<defs>
<font id="2a5b236b2e22821b9b34c1e57127ff95" horiz-adv-x='1024' >
  <font-face 
    font-family="Topaz-Shaded"
    font-weight="550"
    font-stretch="normal"
    units-per-em="2048"
    panose-1="2 0 6 3 2 0 0 2 0 4"
    ascent="1638"
    descent="-410"
    x-height="1450"
    cap-height="1450"
    bbox="-131 -543.009 3158 2036"
    underline-thickness="40"
    underline-position="-231"
    unicode-range="U+0020-FB02"
  />
<missing-glyph horiz-adv-x="1024" 
 />
    <glyph glyph-name="fi" unicode="fi" horiz-adv-x="1732" 
d="M1415 1024v-612q0 -229 -2 -332h43v1280q-14 -2 -43 -2q2 -102 2 -334zM662 1372q-194 0 -340 6q6 -111 6 -344v-622q0 -231 -4 -332h45v639h493l2 35h-495v317l-2 270q84 -2 270 -2h315l2 35q-98 -2 -292 -2zM609 1274q-136 0 -195 -2q-4 -37 -4 -121v-328h483
q-6 -76 -6 -170h-477v-358q0 -219 8 -295h-228q14 137 15 494v464q0 356 -15 494q201 -10 406 -10t405 10q-12 -82 -14 -182q-242 4 -378 4zM1292 494v452q0 356 -14 494q143 0 227 10q-8 -80 -8 -303v-852q0 -219 8 -295h-227q14 137 14 494z" />
    <glyph glyph-name="fl" unicode="fl" horiz-adv-x="2125" 
d="M1698 102q-193 0 -277 -4q4 127 4 273v694q0 201 -2 293h-43q4 -209 4 -334v-616q0 -198 -8 -345q256 11 686 3l2 36h-366zM662 1372q-194 0 -340 6q6 -111 6 -344v-622q0 -231 -4 -332h45v639h493l2 35h-495v317l-2 270q84 -2 270 -2h315l2 35q-98 -2 -292 -2zM1666 2
q-267 0 -419 -10q14 137 15 493v461q0 356 -15 494q143 0 228 10q-8 -80 -9 -303v-852q0 -84 4 -123l183 -2q240 0 448 6q-10 -82 -14 -184q-154 10 -421 10zM609 1274q-136 0 -195 -2q-4 -37 -4 -121v-328h483q-6 -76 -6 -170h-477v-358q0 -219 8 -295h-228q14 137 15 494
v464q0 356 -15 494q201 -10 406 -10t405 10q-12 -82 -14 -182q-242 4 -378 4z" />
    <glyph glyph-name=".notdef" horiz-adv-x="1024" 
 />
    <glyph glyph-name=".null" horiz-adv-x="0" 
 />
    <glyph glyph-name="nonmarkingreturn" horiz-adv-x="681" 
 />
    <glyph glyph-name="space" unicode=" " horiz-adv-x="456" 
 />
    <glyph glyph-name="exclam" unicode="!" horiz-adv-x="493" 
d="M279 41q18 0 31 14q14 15 14 33t-12 30t-31 13q-19 0 -31 -14q-12 -15 -12 -33t11 -31q12 -12 30 -12zM262 1356l-2 -885l37 2l25 887zM365 88q0 -49 -34 -87t-86 -38t-84 35t-32 85t34 88t85 38t84 -36t33 -85zM381 1450q-12 -84 -16 -225l-29 -609q-6 -156 0 -221
l-174 -10q-6 293 -8 365l-13 376q-8 211 -18 304q197 12 258 20z" />
    <glyph glyph-name="quotedbl" unicode="&#x22;" horiz-adv-x="659" 
d="M260 1358l-49 8q-18 -62 -88 -248l35 -14q61 152 102 254zM551 1358l-47 8q-35 -105 -88 -248l33 -14q53 125 102 254zM334 1411q-131 -299 -182 -387l-117 47q14 45 40 174t34 197q194 -31 225 -31zM627 1411q-131 -299 -183 -387l-116 47q14 45 40 175t31 196
q205 -31 228 -31z" />
    <glyph glyph-name="numbersign" unicode="#" horiz-adv-x="1562" 
d="M754 549q108 0 190 2l47 344h-377l-45 -344q77 -2 185 -2zM1034 481h-512l64 482h512zM481 481l-301 2l-6 -37q150 0 303 3l-6 -39q-12 -98 -45 -330h45q25 174 37 289l10 80q14 -2 41 -3h471l-4 -36q-12 -98 -45 -330h45q25 174 37 289l10 77h299l6 37q-78 -2 -301 -2
l64 482h301l8 36q-80 -2 -305 -2l8 64q8 47 41 297q-31 0 -45 -2q-27 -221 -43 -334l-2 -25h-512l8 64q6 39 20 147t19 150q-31 0 -45 -2q-14 -160 -41 -334l-4 -25l-297 2l-6 -36h299zM819 1065q111 0 193 2q35 279 37 371q119 0 204 10q-16 -72 -51 -309l-10 -72
q107 0 201 2t114 2q-25 -78 -37 -180l-301 2l-45 -342q105 0 199 2t115 2q-25 -78 -37 -180l-299 2l-12 -90q-27 -233 -29 -287h-203q20 88 64 379h-375l-10 -86q-29 -211 -31 -293h-205q27 104 64 379q-99 0 -195 -2t-115 -2q25 121 31 180l303 -4l45 344q-99 0 -195 -2
t-114 -2q23 111 33 180l299 -4q33 307 35 371q121 0 204 10q-18 -74 -47 -303l-12 -80h182z" />
    <glyph glyph-name="dollar" unicode="$" horiz-adv-x="1204" 
d="M903 381q0 135 -203 225l-30 -434v-2q106 20 170 74t63 137zM346 1092q0 -111 184 -193l9 102q6 76 18 275q-211 -29 -211 -184zM1024 385q0 -129 -108 -212t-287 -91q7 125 14 190l31 449q152 -61 224 -113q72 -51 99 -104t27 -119zM307 1083q0 123 96 199q97 76 277 78
q-16 -238 -18 -256l-23 -324q-149 64 -216 109q-66 45 -91 91t-25 103zM584 80q-166 0 -371 100v-45q203 -94 371 -94q-2 -41 -15 -164h45q4 47 13 164q201 10 321 106t119 238q0 200 -243 315q-54 27 -146 64l29 391q12 168 14 205q133 -8 278 -78l15 39q-137 70 -291 78
q8 106 12 155l-45 -2q-6 -127 -8 -153q-198 -2 -308 -92t-110 -234t162 -238q57 -35 96 -51t113 -47l-29 -413q-4 -47 -18 -244h-4zM651 -205h-211q2 16 21 174q-221 27 -377 117l18 227q72 -53 174 -96t201 -55q16 207 21 262l18 256q-156 61 -265 146q-110 85 -110 243
q-1 159 111 271t313 130q6 109 4 162q139 0 213 13q-2 -12 -20 -179q184 -23 303 -100l-80 -195q-102 72 -240 101v-12l-30 -437q162 -70 265 -153q126 -104 126 -273q0 -171 -120 -287t-329 -141q-6 -104 -6 -174z" />
    <glyph glyph-name="percent" unicode="%" horiz-adv-x="1597" 
d="M1356 510q0 129 -105 129q-81 0 -155 -125t-74 -253t104 -128q82 0 156 124t74 253zM573 1161q0 129 -106 129q-78 0 -153 -125q-74 -125 -74 -253t104 -128q82 0 156 124q73 124 73 253zM1468 510q0 -156 -98 -301t-213 -146q-76 -1 -121 53t-45 146q-1 154 97 299
t212 146q78 -1 123 -53t45 -144zM684 1161q0 -154 -97 -299t-212 -145q-76 0 -121 52t-45 144q0 154 97 299t212 146q78 0 122 -52t44 -145zM1307 741q-131 -1 -241 -157t-110 -326q0 -104 54 -166t143 -61q131 -1 241 155t109 326q0 104 -53 166t-143 63zM1331 1380
l-1014 -1317l25 -18l1014 1317zM522 1393q-132 0 -240 -157t-108 -325q0 -105 53 -167t144 -62q131 0 241 157t109 326q0 104 -53 166q-54 62 -146 62zM1534 518q0 -201 -132 -378t-300 -177q-117 0 -187 81t-69 208q0 201 131 379t299 178q118 0 188 -82t70 -209z
M1423 1403l-1134 -1473l-117 90l1131 1475zM752 1171q0 -201 -132 -379t-301 -178q-117 0 -187 82t-69 209q-1 201 131 378t298 177q120 0 190 -81t70 -208z" />
    <glyph glyph-name="ampersand" unicode="&#x26;" horiz-adv-x="1511" 
d="M299 393q0 -109 61 -179t175 -71q114 0 195 36t181 116q-248 219 -374 383q-238 -106 -238 -285zM887 1135q0 78 -41 126t-114 48q-73 1 -122 -53t-49 -146t86 -225q240 94 240 250zM576 72q-138 0 -230 89t-92 222q0 260 364 381q140 -193 451 -463q-137 -119 -246 -174
t-247 -55zM518 1103q0 126 79 200q79 73 185 73t165 -68q60 -68 61 -165q0 -225 -365 -340q-125 174 -125 300zM600 788q-387 -127 -387 -411q0 -148 106 -245t279 -97q123 1 241 61t257 183q72 -61 260 -218l28 31q-137 111 -258 213q104 98 250 270l-28 23
q-143 -174 -248 -270q-295 254 -438 448q208 66 296 164t88 206t-68 185q-69 78 -192 78t-217 -84t-94 -220t125 -317zM572 -37q-212 0 -349 115t-137 307q0 139 92 250t264 180q-90 153 -90 303t122 253t278 103t245 -96q88 -96 88 -221q0 -262 -342 -403
q123 -147 320 -324q102 104 235 281l146 -119q-131 -160 -248 -277q86 -72 266 -211l-139 -157l-276 231q-263 -215 -475 -215z" />
    <glyph glyph-name="quotesingle" unicode="'" horiz-adv-x="333" 
d="M260 1358l-49 8q-18 -62 -88 -248l35 -14q61 152 102 254zM334 1411q-131 -299 -182 -387l-117 47q14 45 40 174t34 197q194 -31 225 -31z" />
    <glyph glyph-name="parenleft" unicode="(" horiz-adv-x="792" 
d="M293 714q0 292 143 523t367 375l-19 26q-229 -143 -380 -387q-150 -243 -150 -539t150 -535t380 -380l17 29q-223 140 -365 368t-143 520zM133 709q0 324 183 600t450 411l88 -129q-522 -325 -522 -871t522 -870l-88 -143q-262 133 -448 405t-185 597z" />
    <glyph glyph-name="parenright" unicode=")" horiz-adv-x="792" 
d="M621 717q0 297 -151 535t-380 380l-18 -28q223 -142 366 -368q144 -226 144 -519t-144 -525t-366 -374l16 -27q231 143 382 386t151 540zM463 708q0 548 -522 869l86 143q262 -131 447 -404t185 -597q0 -323 -183 -599t-449 -413l-86 131q522 322 522 870z" />
    <glyph glyph-name="asterisk" unicode="*" horiz-adv-x="755" 
d="M518 825l33 13q-96 235 -96 237q98 10 258 19l-2 36q-43 -4 -137 -13t-123 -11q29 100 77 248q-4 2 -16 5t-16 5q-55 -184 -72 -252q-53 37 -213 152q-12 -20 -21 -31q25 -17 103 -69t113 -74q-133 -104 -209 -160q12 -16 22 -27q137 111 207 166q82 -217 92 -244z
M152 1366q63 -58 131 -108q69 -49 73 -52q10 39 58 246q121 -35 174 -43q-23 -47 -70 -176l-20 -62q96 8 247 33q1 -28 7 -100t6 -76q-92 4 -142 1t-78 -4t-36 -3q57 -143 106 -229q-87 -29 -164 -66q-23 105 -50 175t-27 75q-18 -14 -201 -174q-63 88 -113 137
q111 65 217 145q-135 90 -217 134q80 109 99 147z" />
    <glyph glyph-name="plus" unicode="+" horiz-adv-x="972" 
d="M512 616v-75q-2 -51 -2 -166h35v332h307l2 34h-199q-63 0 -110 -2v328q-23 0 -35 -2q4 -180 4 -293v-33h-55l-250 2l-2 -34h307q-2 -29 -2 -91zM606 641h-31v-51q0 -199 11 -297h-187q14 113 15 348h-49q-98 0 -283 -4q6 55 6 174q147 -6 326 -6q0 203 -15 340
q98 0 187 10q-10 -98 -11 -303v-47q183 0 328 6q-6 -45 -12 -174q-197 4 -285 4z" />
    <glyph glyph-name="comma" unicode="," horiz-adv-x="456" 
d="M281 102l-48 9q-35 -105 -88 -248l33 -15q96 236 103 254zM356 156q-133 -301 -182 -389l-117 49q14 45 40 175t32 193q190 -28 227 -28z" />
    <glyph glyph-name="hyphen" unicode="-" horiz-adv-x="780" 
d="M397 739l-188 2l-2 -34h450l2 34h-137q-23 -2 -125 -2zM457 641h-144q-96 0 -231 -4q6 59 6 174q150 -6 310 -6t311 6q-10 -68 -11 -174q-160 4 -241 4z" />
    <glyph glyph-name="period" unicode="." horiz-adv-x="456" 
d="M270 41q18 0 31 14q12 15 12 33t-11 30q-12 12 -30 13q-18 0 -31 -14q-13 -15 -13 -33t12 -30t30 -13zM238 211q52 0 84 -36t32 -86t-34 -88t-86 -38t-84 36t-31 86q0 50 34 88t85 38z" />
    <glyph glyph-name="slash" unicode="/" horiz-adv-x="673" 
d="M580 1399q-21 0 -33 4q-22 -89 -65 -250q-44 -162 -50 -186l-135 -506q-72 -262 -125 -451l31 -6q10 39 114 418l152 565q56 207 111 412zM639 1468q-74 -233 -127 -442l-182 -682q-6 -25 -56 -210t-57 -222l-162 35q78 219 174 592l105 389q106 403 139 567
q84 -19 166 -27z" />
    <glyph glyph-name="zero" unicode="0" horiz-adv-x="1310" 
d="M301 718q0 -268 94 -424t257 -155q163 0 259 157q97 156 97 424t-94 424t-258 156q-163 0 -259 -158q-96 -156 -96 -424zM691 68q-197 0 -315 177t-118 468t123 474t320 183t315 -177t117 -468q0 -291 -122 -474t-320 -183zM1176 728q0 304 -129 490t-344 187
q-215 0 -351 -196q-136 -197 -137 -499q0 -302 130 -490t344 -187q215 -1 351 195t136 500zM1219 734q0 -326 -163 -548t-411 -223q-249 0 -401 208q-152 209 -152 535t162 547t411 221t401 -207t153 -533z" />
    <glyph glyph-name="one" unicode="1" horiz-adv-x="874" 
d="M569 776q0 486 6 604l-126 -47q-154 -57 -263 -88l15 -33q70 16 225 76l106 39q-4 -127 -4 -589t-6 -523v-135h47q-4 47 -4 170q4 40 4 526zM610 236q0 -158 11 -236h-232q16 139 17 399v822l-302 -105l-71 170q123 33 416 137l139 52l33 -19q-10 -80 -11 -258v-962z" />
    <glyph glyph-name="two" unicode="2" horiz-adv-x="1177" 
d="M973 1011q0 175 -108 285q-109 110 -275 109q-166 0 -330 -84l10 -35q162 84 316 84t248 -99q96 -99 96 -266t-177 -375t-593 -550l528 6q152 0 334 -6l4 39q-186 4 -376 1t-396 -3q381 315 550 517t169 377zM560 14q-308 0 -497 -10l-38 78q467 400 623 580t157 330
q0 150 -72 230q-73 80 -217 78q-144 0 -336 -122l-49 176q235 121 429 121t325 -129t131 -325t-178 -410q-90 -108 -191 -203t-248 -218q416 0 676 7q-16 -92 -18 -193q-189 10 -497 10z" />
    <glyph glyph-name="three" unicode="3" horiz-adv-x="1095" 
d="M956 376q0 150 -113 244q-114 93 -333 107q198 33 306 143t108 236q0 127 -106 213t-273 86q-168 0 -320 -82l15 -31q138 78 298 78t252 -77t93 -193q0 -116 -124 -223q-124 -106 -339 -144l6 -28q225 -5 356 -95t131 -227t-128 -226t-334 -89q-130 -1 -269 30l2 -37
q147 -29 267 -28q227 0 366 97q139 96 139 246zM758 1086q0 98 -67 156t-183 58q-182 0 -344 -106l-74 152q201 129 436 129q178 1 308 -105t131 -240q0 -262 -263 -385q301 -100 302 -372q0 -182 -164 -296t-434 -114q-172 0 -340 47l-13 183q183 -55 355 -55t275 71
q103 73 103 187t-122 180t-332 65l-35 145q245 41 353 122t108 178z" />
    <glyph glyph-name="four" unicode="4" horiz-adv-x="1280" 
d="M780 508v557l-463 -557h463zM899 444h-63q-475 0 -619 -6l424 514q223 268 260 318q-2 -27 -2 -140v-686zM938 1196q0 135 4 174q-203 -252 -307 -377l-488 -587q162 6 660 6h92v-123q0 -78 -4 -217h45q-2 57 -2 200v140q209 -4 244 -4l2 34l-246 2v752zM975 1188v-678
q61 0 149 1t109 1q-12 -76 -19 -176q-70 4 -239 8v-106q0 -180 8 -246h-217q14 115 14 330v26h-71q-418 0 -646 -12l-38 70l553 671q254 307 315 389l90 -18q-8 -84 -8 -260z" />
    <glyph glyph-name="five" unicode="5" horiz-adv-x="1155" 
d="M324 995q0 -92 -17 -207q51 2 195 -4q453 -27 452 -356q0 -166 -131 -263t-370 -97q-96 0 -207 18v-35q111 -18 209 -18q256 0 399 106t143 291q0 409 -645 395q6 18 6 88t7 95l6 98l4 233q53 0 138 -2t219 0t249 2l4 37l-307 -4q-59 0 -342 4l-4 -266zM1012 1266
q-147 2 -596 2l-15 -318l-2 -51q183 0 323 -44t231 -152t91 -269q0 -221 -168 -346t-460 -125q-133 0 -291 31l-10 182q164 -39 297 -39q203 0 309 78t106 211q0 295 -462 295q-72 0 -152 -6l-33 16q18 94 23 242l8 145q10 215 0 299l35 33q348 -8 393 -8t397 8
q-16 -61 -24 -184z" />
    <glyph glyph-name="six" unicode="6" horiz-adv-x="1200" 
d="M918 454q0 142 -76 231t-213 89t-231 -95t-93 -239q0 -144 84 -232q84 -89 223 -89t223 97q83 96 83 238zM678 836q168 0 264 -108t96 -273q0 -164 -108 -281t-277 -117q-170 1 -276 107q-107 106 -107 280t120 283t288 109zM1079 456q0 175 -106 295t-285 119
q-330 0 -434 -299q27 305 217 515t469 272l-8 33q-313 -70 -517 -311t-204 -568q0 -223 118 -355t312 -132t316 128t122 303zM1120 456q0 -198 -147 -345t-379 -147t-367 152q-135 153 -135 406q0 354 248 624t616 329l41 -172q-219 -23 -387 -148t-266 -330
q124 107 322 107t326 -140q128 -138 128 -336z" />
    <glyph glyph-name="seven" unicode="7" horiz-adv-x="1122" 
d="M498 1374q-122 0 -287 2l-4 -37q195 0 324 1t272 2t215 4q-25 -35 -103 -191l-165 -319q-172 -338 -248 -469q-46 -87 -144 -277l37 -16q109 216 179 340t229 446l166 322q78 156 106 198q-455 -6 -577 -6zM582 1442q138 0 487 8l47 -66q-33 -51 -125 -229l-448 -883
q-125 -240 -148 -307l-190 88q158 270 401 733l256 490q-322 0 -786 -12q20 143 20 186q348 -8 486 -8z" />
    <glyph glyph-name="eight" unicode="8" horiz-adv-x="1191" 
d="M293 362q0 -110 84 -172t218 -61q134 0 219 68t85 171q1 103 -81 185t-232 117q-131 -31 -212 -114q-81 -84 -81 -194zM350 1081q0 -180 281 -260q109 35 177 102t66 162q0 95 -72 159t-188 65q-116 0 -190 -65t-74 -163zM1020 375q0 -133 -110 -222t-280 -89t-274 80
q-104 81 -104 218q0 264 383 369q295 -108 354 -222q31 -58 31 -134zM313 1080q-1 126 99 211t246 85t240 -85q95 -85 95 -210q0 -215 -350 -317q-158 53 -244 122q-86 68 -86 194zM629 29q186 -1 309 101t123 241t-85 223t-280 151q336 104 336 342q0 133 -106 227t-267 95
q-161 0 -273 -95t-112 -236t104 -221q76 -59 208 -109q-373 -106 -373 -390q0 -147 115 -238t301 -91zM1069 1098q0 -248 -270 -346q139 -46 220 -148t81 -221q0 -172 -148 -296t-368 -124q-219 0 -356 110q-136 110 -136 277q0 129 86 239t232 152q-254 104 -254 344
q0 158 137 274t329 116t319 -115q128 -115 128 -262z" />
    <glyph glyph-name="nine" unicode="9" horiz-adv-x="1204" 
d="M569 694q137 0 233 88q95 88 95 226t-91 224q-91 87 -226 87q-134 0 -218 -92t-84 -230t77 -221q77 -82 214 -82zM592 629q-160 0 -257 101t-97 264t109 276q110 112 281 112t276 -108q106 -108 106 -264t-129 -268t-289 -113zM1067 942q0 217 -118 344t-312 127
q-193 0 -317 -122t-124 -297q0 -174 108 -286t275 -112t285 81t164 222q-10 -287 -191 -503t-462 -312l14 -31q303 105 491 331t187 558zM546 530q-216 0 -344 132t-128 330q0 200 148 341t379 141t371 -152q140 -153 140 -407q0 -337 -228 -589t-585 -361l-63 162
q242 55 416 195t231 327q-121 -119 -337 -119z" />
    <glyph glyph-name="colon" unicode=":" horiz-adv-x="456" 
d="M270 41q18 0 31 14q12 15 12 33t-11 30q-12 12 -30 13q-18 0 -31 -14q-13 -15 -13 -33t12 -30t30 -13zM270 651q18 1 30 15t13 32q0 18 -11 30q-12 12 -30 13q-18 0 -31 -14q-13 -15 -13 -33t12 -30t30 -13zM238 209q52 0 84 -35t32 -86t-34 -88t-86 -37t-84 35t-33 85
q0 50 35 88t86 38zM238 819q52 0 84 -35t32 -85t-34 -88t-86 -38t-84 35t-33 86q0 51 35 88t86 37z" />
    <glyph glyph-name="semicolon" unicode=";" horiz-adv-x="456" 
d="M281 102l-48 9q-35 -105 -88 -248l33 -15q96 236 103 254zM270 651q18 1 30 15t13 32q0 18 -11 30q-12 12 -30 13q-18 0 -31 -14q-13 -15 -13 -33t12 -30t30 -13zM356 156q-133 -301 -182 -389l-117 49q14 45 40 175t32 193q190 -28 227 -28zM238 819q52 0 84 -35t32 -85
t-34 -88t-86 -38t-84 35t-33 86q0 51 35 88t86 37z" />
    <glyph glyph-name="less" unicode="&#x3c;" horiz-adv-x="911" 
d="M707 309l18 29l-442 385q307 272 442 391l-18 29l-474 -422q333 -289 474 -412zM688 1251l98 -139q-8 -6 -280 -235l-172 -150l172 -152q180 -161 280 -233l-94 -145l-569 505l-4 35z" />
    <glyph glyph-name="equal" unicode="=" horiz-adv-x="911" 
d="M424 578q-158 0 -219 2v-37h563l2 37l-166 -2h-180zM424 903q-158 0 -219 2v-37h563l2 37l-166 -2h-180zM510 479h-143q-152 0 -287 -4q6 57 6 174q152 -6 368 -6t365 6q-10 -68 -10 -174q-160 4 -299 4zM510 805h-143q-152 0 -287 -4q6 59 6 174q152 -6 368 -6t365 6
q-10 -68 -10 -174q-160 4 -299 4z" />
    <glyph glyph-name="greater" unicode="&#x3e;" horiz-adv-x="911" 
d="M289 1139l-19 -27l443 -387q-307 -272 -443 -391l19 -29l473 422q-332 289 -473 412zM225 197l-98 139q8 6 281 235l174 152l-174 149q-187 166 -281 234l94 145l570 -503l4 -35z" />
    <glyph glyph-name="question" unicode="?" horiz-adv-x="927" 
d="M444 41q18 0 32 14q13 13 13 31t-12 32q-13 14 -31 13q-18 0 -30 -14q-12 -15 -12 -33t10 -30q12 -12 30 -13zM502 1368q130 0 212 -64q81 -64 81 -169q-1 -68 -53 -119t-126 -84t-148 -67t-125 -87q-52 -53 -52 -139q-1 -86 69 -141t195 -56q35 0 100 9l-6 36
q-39 -8 -90 -8q-227 0 -227 174q0 117 178 194q74 31 148 65t125 89q52 55 53 132q0 123 -94 197t-236 73q-143 0 -281 -66l4 -39q143 70 273 70zM414 209q52 0 84 -36t32 -85t-34 -87t-85 -38q-52 0 -84 35t-32 85t34 88t85 38zM371 657q0 -106 141 -106q69 0 145 22
l37 -180q-86 -23 -188 -22q-152 1 -244 75t-92 203q0 87 52 151t126 101t148 69t126 72t52 104q0 62 -56 106t-150 44t-194 -39t-151 -88l-10 213q59 41 161 67t193 26q171 -1 289 -95t118 -250q0 -90 -52 -154t-126 -100t-148 -65q-178 -70 -177 -154z" />
    <glyph glyph-name="at" unicode="@" horiz-adv-x="1691" 
d="M774 502q45 0 97 37t90 88q12 82 47 243q-48 50 -136 50t-156 -94t-69 -195q0 -129 127 -129zM795 434q-80 0 -135 50q-54 50 -54 147q0 133 97 246t221 113t190 -109q-35 -159 -51 -263q-133 -184 -268 -184zM236 694q0 276 196 478q196 204 474 204t453 -163t175 -418
q0 -171 -91 -275t-181 -104t-135 41q-44 41 -35 114q18 158 90 435l-45 -37q-2 -10 -13 -51q-82 106 -206 106t-237 -122q-112 -122 -112 -271q-1 -109 63 -169t154 -61q135 0 275 168q-10 -86 46 -135t136 -49q121 0 223 116t103 298q1 268 -187 439t-476 171t-497 -214
q-208 -214 -208 -503q-1 -289 193 -477t489 -188q231 0 432 106l-15 29q-199 -104 -413 -105q-289 1 -470 181t-181 456zM1434 786q0 229 -153 379t-429 150q-230 -1 -408 -187t-178 -433t159 -409t413 -163q254 0 446 121l80 -135q-240 -145 -534 -145t-512 203
q-216 205 -216 523t228 550t539 232t521 -186t209 -479q-1 -203 -121 -344t-280 -141q-70 0 -127 34t-86 95q-98 -115 -246 -115q-115 0 -197 79t-81 216q0 182 139 322t307 141q96 0 174 -70q39 27 97 92l53 -59q-82 -297 -103 -494q-8 -82 99 -84q63 0 135 79t72 228z" />
    <glyph glyph-name="A" unicode="A" horiz-adv-x="1415" 
d="M922 575l-228 510l-225 -510h453zM733 1262l346 -754h-680l166 366q158 357 168 388zM1096 475l86 -192q43 -107 98 -211l43 4q-23 47 -66 139t-53 113l-471 1022q-51 -133 -180 -420l-203 -441q-27 -57 -184 -409h45q137 322 164 375l10 20h711zM393 408l-168 -408h-225
l487 1049q121 260 179 411l53 15l491 -1055q98 -217 203 -420l-225 -16l-191 424h-604z" />
    <glyph glyph-name="B" unicode="B" horiz-adv-x="1255" 
d="M954 426q0 114 -95 182t-284 68q-94 0 -165 -10v-471q123 -12 204 -13q340 0 340 244zM410 834h200q131 0 202 59t71 163t-70 156q-69 52 -195 54q-126 0 -208 -4v-428zM631 739q221 0 335 -88t114 -230t-112 -227q-110 -85 -320 -85t-286 8q6 98 7 258v364h262zM637 770
h-268v297q0 166 -7 266l269 6q193 -1 285 -77t94 -200q0 -124 -104 -208t-269 -84zM328 414q0 -236 -9 -336q37 -6 345 -6q216 0 336 97t120 239t-86 233q-86 92 -268 119q129 22 208 110t79 208q-1 120 -105 209t-317 89l-312 -8q8 -104 9 -342v-612zM1098 1079
q0 -209 -191 -309q256 -90 256 -350q0 -176 -141 -298t-393 -122h-439q14 137 15 494v452q0 356 -15 494l400 10q252 0 380 -114t128 -257z" />
    <glyph glyph-name="C" unicode="C" horiz-adv-x="1392" 
d="M893 1399q-287 0 -476 -201t-189 -493t180 -480q182 -188 456 -188q215 0 398 125l4 43q-184 -133 -400 -133q-258 0 -427 178t-169 460t176 467t445 185q186 0 342 -94l12 37q-166 94 -352 94zM819 -37q-309 0 -513 212t-204 507q0 334 215 563t541 230q100 0 222 -36
t204 -93l-57 -193q-150 137 -382 137t-382 -158t-150 -416q1 -260 147 -414t385 -155q239 0 458 207l-15 -227q-211 -164 -469 -164z" />
    <glyph glyph-name="D" unicode="D" horiz-adv-x="1472" 
d="M1161 688q0 268 -134 423t-359 155q-152 0 -258 -4v-1067q123 -12 245 -13q236 0 371 142t135 364zM1286 715q0 -271 -163 -439t-437 -167q-213 0 -324 6q6 102 7 258v692q0 164 -7 266l347 6q261 0 419 -175t158 -447zM328 412q0 -231 -9 -336q49 -4 351 -4t480 179
q177 179 177 467t-171 472t-447 184l-390 -8q8 -104 9 -342v-612zM1370 726q0 -316 -205 -522q-205 -204 -536 -204h-439q14 137 15 494v452q0 356 -15 494l478 10q310 0 506 -204t196 -520z" />
    <glyph glyph-name="E" unicode="E" horiz-adv-x="1126" 
d="M328 410q0 -248 -9 -347q260 11 674 3q0 25 2 36h-352q-195 0 -278 -4q4 127 4 273v370h491l2 35h-493v297q0 147 -4 270q84 -2 272 -2h313l2 35l-315 -2q-170 0 -318 6q8 -100 9 -346v-624zM609 2q-267 0 -419 -10q14 137 15 493v473q0 356 -15 494q201 -10 405 -10
t409 10q-12 -76 -17 -182q-242 4 -378 4t-195 -2q-4 -37 -4 -121v-307h497q-6 -78 -6 -170h-491v-379q0 -86 4 -123l182 -2q240 0 448 6q-10 -82 -14 -184q-154 10 -421 10z" />
    <glyph glyph-name="F" unicode="F" horiz-adv-x="1056" 
d="M662 1372q-194 0 -340 6q6 -111 6 -344v-622q0 -231 -4 -332h45v639h493l2 35h-495v317l-2 270q84 -2 270 -2h315l2 35q-98 -2 -292 -2zM609 1274q-136 0 -195 -2q-4 -37 -4 -121v-328h483q-6 -76 -6 -170h-477v-358q0 -219 8 -295h-228q14 137 15 494v464q0 356 -15 494
q201 -10 406 -10t405 10q-12 -82 -14 -182q-242 4 -378 4z" />
    <glyph glyph-name="G" unicode="G" horiz-adv-x="1495" 
d="M920 1401q-289 0 -491 -202t-202 -493t193 -480t471 -189q240 0 424 117v194q0 250 6 344q-193 -4 -275 -4t-153 2l2 -37h190q20 0 193 4q-4 -111 -4 -270v-213q-168 -102 -381 -102q-262 0 -443 179q-182 179 -182 457t188 468q188 188 462 188q193 0 360 -90l10 37
q-170 90 -368 90zM1068 756q140 0 302 8q-14 -109 -14 -492v-157q-229 -152 -525 -152t-513 213q-216 213 -216 506q0 332 228 562t555 231q102 0 238 -37t216 -92l-59 -193q-70 63 -184 100t-224 37q-236 0 -398 -158t-163 -397q0 -276 159 -432t388 -156q174 0 293 66v250
q0 86 -4 123q-59 2 -127 2t-244 -6q-4 113 -14 182q166 -8 306 -8z" />
    <glyph glyph-name="H" unicode="H" horiz-adv-x="1570" 
d="M1284 496q0 -332 -4 -416h45v1284l-45 -2q4 -82 4 -418v-178h-915v598l-47 -2q6 -123 6 -418v-448q0 -291 -6 -416h47v653h915v-237zM410 295q0 -219 8 -295h-228q14 137 15 494v452q0 356 -15 494q143 0 228 10q-8 -80 -8 -303v-313h753v112q0 362 -16 494q143 0 229 10
q-10 -74 -10 -303v-852q0 -223 10 -295h-229q16 131 16 494v172h-753v-371z" />
    <glyph glyph-name="I" unicode="I" horiz-adv-x="675" 
d="M358 1024v-612q0 -229 -2 -332h43v1280q-14 -2 -43 -2q2 -102 2 -334zM236 946q0 356 -15 494q143 0 228 10q-8 -80 -9 -303v-852q1 -219 9 -295h-228q14 137 15 494v452z" />
    <glyph glyph-name="J" unicode="J" horiz-adv-x="645" 
d="M29 -352q178 0 274 101t96 286v1323h-43q2 -104 2 -334v-995q0 -174 -87 -260t-238 -86l-43 2l-4 -35q14 -2 43 -2zM440 47q0 -231 -114 -350t-340 -119q-61 0 -117 10l22 183q61 -8 101 -9q119 0 182 65t64 189v930q0 362 -17 494q144 0 230 10q-10 -74 -11 -303v-1100z
" />
    <glyph glyph-name="K" unicode="K" horiz-adv-x="1361" 
d="M1184 70q-141 156 -312 346l-294 329l268 287q14 16 131 142t170 186h-51q-115 -127 -295 -322l-275 -295l609 -677zM369 80v1284l-47 -2q6 -123 6 -338v-612q0 -207 -6 -332h47zM410 295q0 -219 8 -295h-228q14 137 15 494v452q0 356 -15 494q143 0 228 10
q-8 -80 -8 -303v-383l264 289q145 158 348 391h266l-653 -692l297 -332q217 -244 381 -420l-246 -16l-657 731v-420z" />
    <glyph glyph-name="L" unicode="L" horiz-adv-x="1083" 
d="M641 102q-193 0 -276 -4q4 127 4 273v694q0 201 -2 293h-43q4 -209 4 -334v-616q-1 -198 -9 -345q255 11 687 3l2 36h-367zM609 2q-267 0 -419 -10q14 137 15 493v461q0 356 -15 494q143 0 228 10q-8 -80 -8 -303v-852q0 -84 4 -123l182 -2q240 0 448 6q-10 -82 -14 -184
q-154 10 -421 10z" />
    <glyph glyph-name="M" unicode="M" horiz-adv-x="1781" 
d="M281 80q4 45 51 377l33 241q1 6 29 228t30 248q6 -14 28 -62t54 -119t56 -119q22 -48 117 -252t169 -361t80 -175q26 63 238 509t268 576q2 -27 30 -241t31 -232l33 -241q47 -330 53 -385l43 4q-45 272 -63 420l-39 284q-2 8 -33 244t-35 276q-25 -63 -210 -456
t-314 -672q-4 12 -196 419t-333 714q-6 -88 -61 -525l-39 -284q-14 -119 -63 -416h43zM911 -20l-53 -15l-432 946l-84 -616q-29 -219 -31 -295h-209q39 170 84 494l62 452q45 315 59 514l53 15q20 -53 142 -306l393 -823l385 823q106 231 137 306h49q41 -338 68 -529
l61 -452q39 -281 84 -494l-215 -16q-4 127 -32 311l-82 616q-400 -833 -439 -931z" />
    <glyph glyph-name="N" unicode="N" horiz-adv-x="1591" 
d="M354 80q4 78 4 377l4 399q0 338 -2 377l1000 -1153q-2 18 -2 217l8 688q2 100 2 379l-43 -2q8 -172 4 -418l-6 -600q0 -8 5 -90t-3 -82l-1003 1163q4 -39 4 -409l-4 -430q-7 -332 -11 -416h43zM1212 946q0 362 -16 494q135 0 221 10q-10 -76 -16 -303l-15 -864
q0 -264 5 -303l-54 -15l-942 1063v-733q0 -219 8 -295h-223q18 156 25 494l8 493q6 342 -8 473l55 15l952 -1121v592z" />
    <glyph glyph-name="O" unicode="O" 
d="M313 716q-1 -262 141 -420t368 -157q226 0 371 161q144 161 144 423t-141 420q-142 157 -368 157t-370 -160q-144 -162 -145 -424zM873 1370q261 0 425 -179t164 -463t-171 -472t-432 -188t-425 179t-164 464t170 472q171 187 433 187zM227 707q0 -295 175 -485t455 -189
q280 -1 463 201t183 497t-174 484q-175 189 -455 189t-464 -200q-184 -202 -183 -497zM814 -37q-316 0 -514 211t-198 508q0 336 209 564t525 228t514 -210q197 -211 196 -508q0 -336 -208 -564t-524 -229z" />
    <glyph glyph-name="P" unicode="P" horiz-adv-x="1196" 
d="M909 981q0 285 -321 285q-72 0 -178 -4v-553q57 -6 112 -7q182 0 285 70q102 70 102 209zM1034 994q0 -165 -121 -262t-352 -97q-74 0 -192 18v414q0 166 -7 266l265 6q199 0 303 -90t104 -255zM1077 1000q0 176 -116 276q-117 100 -334 100q-45 0 -308 -8q8 -104 9 -342
v-612q0 -129 -4 -334h45v538q115 -16 192 -16q254 0 385 111t131 287zM1120 1034q0 -223 -148 -361t-452 -138q-32 0 -110 4v-244q0 -219 8 -295h-228q14 137 15 494v452q0 356 -15 494l398 10q252 0 392 -120t140 -296z" />
    <glyph glyph-name="Q" unicode="Q" 
d="M313 716q-1 -262 141 -420t368 -157q226 0 371 161q144 161 144 423t-141 420q-142 157 -368 157t-370 -160q-144 -162 -145 -424zM270 712q0 284 170 471t432 187t426 -179t164 -463t-170 -471t-432 -187t-426 179t-164 463zM1632 -162q-43 12 -173 48t-150 42l-381 111
q258 27 418 223t160 480t-176 473t-456 189t-463 -200q-183 -202 -183 -492t166 -480q167 -190 431 -197l428 -127q113 -37 353 -101zM102 682q0 336 209 564t525 228t515 -210q198 -211 197 -508q0 -242 -114 -437t-312 -286l256 -70q266 -66 342 -80l-133 -166l-801 246
q-300 8 -492 218t-192 501z" />
    <glyph glyph-name="R" unicode="R" horiz-adv-x="1267" 
d="M410 735h206q137 0 215 71t78 175q0 285 -321 285q-72 0 -178 -4v-527zM1034 1001q0 -106 -66 -188t-142 -114t-138 -31h-319v399q0 166 -7 266l265 6q199 0 303 -90t104 -248zM369 80v555h348l174 -268q2 -2 75 -115t117 -174l50 6q-21 26 -99 138t-102 151l-174 268
q143 35 231 138t88 250t-116 247q-117 100 -334 100q-45 0 -308 -8q8 -104 9 -342v-530q0 -291 -6 -416h47zM1120 1048q0 -312 -301 -436l209 -307q164 -229 215 -293l-242 -26l-368 579h-223v-270q0 -219 8 -295h-228q14 137 15 494v452q0 356 -15 494l398 10
q252 0 392 -120t140 -282z" />
    <glyph glyph-name="S" unicode="S" horiz-adv-x="1060" 
d="M544 37q168 0 276 97t108 251q0 102 -64 182t-154 132q-90 53 -182 103q-217 120 -219 267q0 125 88 210q87 85 225 85t257 -68l14 35q-119 70 -271 70t-253 -99q-100 -99 -101 -237q0 -90 64 -163t155 -124t183 -102t155 -126t64 -169q0 -139 -97 -223t-255 -84t-330 96
l-4 -41q173 -92 341 -92zM502 147q114 1 189 59t75 169q0 68 -46 124t-115 95t-149 86t-150 93q-69 46 -115 119t-46 161q0 166 125 294t326 128t338 -109l-68 -180q-51 45 -128 75t-148 29q-113 0 -176 -56t-64 -153q0 -59 46 -110t115 -88q182 -97 297 -181
q69 -49 115 -130t46 -179q0 -184 -130 -307t-347 -123q-96 0 -214 37t-190 84l12 217q66 -59 178 -107q110 -48 224 -47z" />
    <glyph glyph-name="T" unicode="T" horiz-adv-x="1284" 
d="M686 1374q-193 0 -504 4q0 -25 -2 -37h484q2 -84 2 -243v-684q0 -129 -4 -334h45v1261h483q2 7 2 19t2 18q-315 -4 -508 -4zM748 1141v-846q0 -219 8 -295h-228q14 137 15 494v444q0 164 -6 336q-168 0 -484 -4q8 72 8 182q311 -10 590 -10t592 10q-12 -76 -16 -182
q-315 4 -477 4q-2 -43 -2 -133z" />
    <glyph glyph-name="U" unicode="U" horiz-adv-x="1529" 
d="M307 944v-440q0 -225 133 -348t362 -123q230 0 366 137t137 381v813l-45 -2q4 -82 4 -418v-409q0 -225 -127 -347t-336 -120q-209 0 -331 112t-122 330v854l-47 -2q6 -123 6 -418zM1346 1147v-567q0 -293 -162 -455t-425 -162q-263 1 -419 145t-156 384v454
q0 356 -14 494q143 0 227 10q-8 -80 -8 -303v-623q0 -385 371 -385q182 -1 282 97t101 270v440q0 362 -17 494q143 0 230 10q-10 -74 -10 -303z" />
    <glyph glyph-name="V" unicode="V" horiz-adv-x="1329" 
d="M1202 1356q-20 -47 -56 -136t-65 -157t-39 -92l-165 -391q-139 -338 -158 -392l-416 971q-37 90 -88 205l-45 -2q68 -147 111 -250l438 -1020q49 145 170 424l178 418q2 6 74 174t104 248h-43zM651 -37l-458 1053q-94 221 -193 420l227 16l449 -1075l276 670
q66 160 150 391h227l-459 -1049q-115 -264 -165 -412z" />
    <glyph glyph-name="W" unicode="W" horiz-adv-x="2007" 
d="M209 1366l-45 -4q41 -106 94 -254l358 -1022q18 57 215 565q209 584 216 600l428 -1163q16 55 89 271q74 216 104 295t259 702h-45q-25 -70 -111 -304q-219 -599 -296 -857l-426 1146q-11 -27 -103 -283t-101 -276q-9 -22 -111 -290t-113 -304l-336 967q-56 160 -76 211z
M2007 1438l-399 -1049q-131 -346 -150 -412l-51 -14l-406 1079l-239 -667q-12 -37 -78 -192t-88 -220h-49l-383 1053q-102 281 -162 420l227 16l359 -1063l250 676q29 78 147 393l51 15l400 -1084l217 658q6 23 55 169t72 222h227z" />
    <glyph glyph-name="X" unicode="X" horiz-adv-x="1433" 
d="M272 1368l457 -641q-250 -346 -467 -647h47q55 78 166 232t191 265q80 112 86 119q365 -514 448 -628l47 2q-422 594 -471 661q182 256 457 629h-49q-372 -514 -428 -598q-162 229 -437 610zM1120 -16l-407 596l-133 -189q-102 -145 -269 -391h-245l528 719l-213 303
q-154 221 -301 420l239 16l398 -575l119 170q184 266 268 391h246l-516 -701l227 -323q229 -324 301 -420z" />
    <glyph glyph-name="Y" unicode="Y" horiz-adv-x="1259" 
d="M653 412q0 -127 -4 -332h45v555l156 239q143 217 317 486h-47q-66 -102 -286 -447l-158 -241l-215 336q-37 59 -232 364l-43 -4q88 -135 240 -377l227 -358v-221zM733 295q0 -223 10 -295h-229q16 158 16 494v129l-215 335q-160 256 -313 484l225 16l410 -651l119 184
q117 184 280 453h236l-539 -811v-338z" />
    <glyph glyph-name="Z" unicode="Z" horiz-adv-x="1280" 
d="M682 102q-311 0 -412 -2l899 1280q-167 -6 -405 -6t-504 4v-37h438q295 0 400 2l-901 -1280q393 14 946 5l4 34h-465zM646 2q-390 0 -566 -10l-41 39l883 1241q-86 2 -285 2t-506 -4q8 72 8 182q303 -10 575 -10t488 10l39 -37l-870 -1243l264 -2q356 0 561 6
q-12 -76 -16 -184q-144 10 -534 10z" />
    <glyph glyph-name="bracketleft" unicode="[" horiz-adv-x="706" 
d="M484 1628q-100 0 -230 4q6 -90 6 -356v-1126q0 -272 -2 -357q66 2 220 2t198 -2l2 33h-379q-2 72 -2 324v1126q0 285 -4 323l168 -2q121 0 211 2l2 33q-90 -4 -190 -4zM446 -266q-182 0 -286 -8l-25 14q12 121 12 410v1124q0 279 -12 399l27 29q130 -10 284 -10t275 8
q-6 -53 -10 -166q-180 4 -258 4t-121 -2v-1386q0 -195 8 -261l90 -2q121 0 301 4q-14 -76 -16 -165q-87 8 -269 8z" />
    <glyph glyph-name="backslash" unicode="\" horiz-adv-x="673" 
d="M154 1401q274 -1016 374 -1393l31 8q-39 161 -108 402l-156 577q-92 346 -111 414q-16 -8 -30 -8zM618 -45l-159 -43q-31 152 -121 481l-156 580q-96 348 -143 491q72 14 160 43q31 -141 125 -495l155 -580q92 -336 139 -477z" />
    <glyph glyph-name="bracketright" unicode="]" horiz-adv-x="706" 
d="M489 -176h-378l-2 -33q45 2 199 2t220 -2l-2 356v1127q0 266 6 356q-131 -4 -185 -4t-230 4v-33q88 -2 209 -2l168 2q-4 -78 -5 -323v-1450zM375 150v1386q-45 2 -127 2t-262 -4q8 98 8 166q122 -8 272 -8t279 10l26 -29q-12 -121 -12 -399v-1124q0 -289 12 -410l-26 -14
q-104 8 -291 8t-277 -8q12 100 11 165q180 -4 288 -4l91 2q8 66 8 261z" />
    <glyph glyph-name="asciicircum" unicode="^" horiz-adv-x="749" 
d="M647 1190l-241 233l-238 -233l25 -21l215 211l215 -211q4 3 12 11t12 10zM713 1184l-125 -103l-213 217l-213 -217l-127 103l305 291l66 -5z" />
    <glyph glyph-name="underscore" unicode="_" horiz-adv-x="1366" 
d="M498 -66q-319 0 -379 3v-37h1206l2 37l-326 -3h-503zM745 -164h-266q-350 0 -485 -4q6 55 6 174q152 -6 688 -6t688 6q-10 -68 -10 -174q-160 4 -621 4z" />
    <glyph glyph-name="grave" unicode="`" horiz-adv-x="557" 
d="M205 1868l-21 -33q49 -29 291 -176l17 22zM483 1571q-205 115 -444 227q66 82 108 166q186 -145 408 -289z" />
    <glyph glyph-name="a" unicode="a" horiz-adv-x="1415" 
d="M922 575l-228 510l-225 -510h453zM733 1262l346 -754h-680l166 366q158 357 168 388zM1096 475l86 -192q43 -107 98 -211l43 4q-23 47 -66 139t-53 113l-471 1022q-51 -133 -180 -420l-203 -441q-27 -57 -184 -409h45q137 322 164 375l10 20h711zM393 408l-168 -408h-225
l487 1049q121 260 179 411l53 15l491 -1055q98 -217 203 -420l-225 -16l-191 424h-604z" />
    <glyph glyph-name="b" unicode="b" horiz-adv-x="1255" 
d="M954 426q0 114 -95 182t-284 68q-94 0 -165 -10v-471q123 -12 204 -13q340 0 340 244zM410 834h200q131 0 202 59t71 163t-70 156q-69 52 -195 54q-126 0 -208 -4v-428zM631 739q221 0 335 -88t114 -230t-112 -227q-110 -85 -320 -85t-286 8q6 98 7 258v364h262zM637 770
h-268v297q0 166 -7 266l269 6q193 -1 285 -77t94 -200q0 -124 -104 -208t-269 -84zM328 414q0 -236 -9 -336q37 -6 345 -6q216 0 336 97t120 239t-86 233q-86 92 -268 119q129 22 208 110t79 208q-1 120 -105 209t-317 89l-312 -8q8 -104 9 -342v-612zM1098 1079
q0 -209 -191 -309q256 -90 256 -350q0 -176 -141 -298t-393 -122h-439q14 137 15 494v452q0 356 -15 494l400 10q252 0 380 -114t128 -257z" />
    <glyph glyph-name="c" unicode="c" horiz-adv-x="1392" 
d="M893 1399q-287 0 -476 -201t-189 -493t180 -480q182 -188 456 -188q215 0 398 125l4 43q-184 -133 -400 -133q-258 0 -427 178t-169 460t176 467t445 185q186 0 342 -94l12 37q-166 94 -352 94zM819 -37q-309 0 -513 212t-204 507q0 334 215 563t541 230q100 0 222 -36
t204 -93l-57 -193q-150 137 -382 137t-382 -158t-150 -416q1 -260 147 -414t385 -155q239 0 458 207l-15 -227q-211 -164 -469 -164z" />
    <glyph glyph-name="d" unicode="d" horiz-adv-x="1472" 
d="M1161 688q0 268 -134 423t-359 155q-152 0 -258 -4v-1067q123 -12 245 -13q236 0 371 142t135 364zM1286 715q0 -271 -163 -439t-437 -167q-213 0 -324 6q6 102 7 258v692q0 164 -7 266l347 6q261 0 419 -175t158 -447zM328 412q0 -231 -9 -336q49 -4 351 -4t480 179
q177 179 177 467t-171 472t-447 184l-390 -8q8 -104 9 -342v-612zM1370 726q0 -316 -205 -522q-205 -204 -536 -204h-439q14 137 15 494v452q0 356 -15 494l478 10q310 0 506 -204t196 -520z" />
    <glyph glyph-name="e" unicode="e" horiz-adv-x="1126" 
d="M328 410q0 -248 -9 -347q260 11 674 3q0 25 2 36h-352q-195 0 -278 -4q4 127 4 273v370h491l2 35h-493v297q0 147 -4 270q84 -2 272 -2h313l2 35l-315 -2q-170 0 -318 6q8 -100 9 -346v-624zM609 2q-267 0 -419 -10q14 137 15 493v473q0 356 -15 494q201 -10 405 -10
t409 10q-12 -76 -17 -182q-242 4 -378 4t-195 -2q-4 -37 -4 -121v-307h497q-6 -78 -6 -170h-491v-379q0 -86 4 -123l182 -2q240 0 448 6q-10 -82 -14 -184q-154 10 -421 10z" />
    <glyph glyph-name="f" unicode="f" horiz-adv-x="1056" 
d="M662 1372q-194 0 -340 6q6 -111 6 -344v-622q0 -231 -4 -332h45v639h493l2 35h-495v317l-2 270q84 -2 270 -2h315l2 35q-98 -2 -292 -2zM609 1274q-136 0 -195 -2q-4 -37 -4 -121v-328h483q-6 -76 -6 -170h-477v-358q0 -219 8 -295h-228q14 137 15 494v464q0 356 -15 494
q201 -10 406 -10t405 10q-12 -82 -14 -182q-242 4 -378 4z" />
    <glyph glyph-name="g" unicode="g" horiz-adv-x="1495" 
d="M920 1401q-289 0 -491 -202t-202 -493t193 -480t471 -189q240 0 424 117v194q0 250 6 344q-193 -4 -275 -4t-153 2l2 -37h190q20 0 193 4q-4 -111 -4 -270v-213q-168 -102 -381 -102q-262 0 -443 179q-182 179 -182 457t188 468q188 188 462 188q193 0 360 -90l10 37
q-170 90 -368 90zM1068 756q140 0 302 8q-14 -109 -14 -492v-157q-229 -152 -525 -152t-513 213q-216 213 -216 506q0 332 228 562t555 231q102 0 238 -37t216 -92l-59 -193q-70 63 -184 100t-224 37q-236 0 -398 -158t-163 -397q0 -276 159 -432t388 -156q174 0 293 66v250
q0 86 -4 123q-59 2 -127 2t-244 -6q-4 113 -14 182q166 -8 306 -8z" />
    <glyph glyph-name="h" unicode="h" horiz-adv-x="1570" 
d="M1284 496q0 -332 -4 -416h45v1284l-45 -2q4 -82 4 -418v-178h-915v598l-47 -2q6 -123 6 -418v-448q0 -291 -6 -416h47v653h915v-237zM410 295q0 -219 8 -295h-228q14 137 15 494v452q0 356 -15 494q143 0 228 10q-8 -80 -8 -303v-313h753v112q0 362 -16 494q143 0 229 10
q-10 -74 -10 -303v-852q0 -223 10 -295h-229q16 131 16 494v172h-753v-371z" />
    <glyph glyph-name="i" unicode="i" horiz-adv-x="675" 
d="M358 1024v-612q0 -229 -2 -332h43v1280q-14 -2 -43 -2q2 -102 2 -334zM236 946q0 356 -15 494q143 0 228 10q-8 -80 -9 -303v-852q1 -219 9 -295h-228q14 137 15 494v452z" />
    <glyph glyph-name="j" unicode="j" horiz-adv-x="645" 
d="M29 -352q178 0 274 101t96 286v1323h-43q2 -104 2 -334v-995q0 -174 -87 -260t-238 -86l-43 2l-4 -35q14 -2 43 -2zM440 47q0 -231 -114 -350t-340 -119q-61 0 -117 10l22 183q61 -8 101 -9q119 0 182 65t64 189v930q0 362 -17 494q144 0 230 10q-10 -74 -11 -303v-1100z
" />
    <glyph glyph-name="k" unicode="k" horiz-adv-x="1361" 
d="M1184 70q-141 156 -312 346l-294 329l268 287q14 16 131 142t170 186h-51q-115 -127 -295 -322l-275 -295l609 -677zM369 80v1284l-47 -2q6 -123 6 -338v-612q0 -207 -6 -332h47zM410 295q0 -219 8 -295h-228q14 137 15 494v452q0 356 -15 494q143 0 228 10
q-8 -80 -8 -303v-383l264 289q145 158 348 391h266l-653 -692l297 -332q217 -244 381 -420l-246 -16l-657 731v-420z" />
    <glyph glyph-name="l" unicode="l" horiz-adv-x="1083" 
d="M641 102q-193 0 -276 -4q4 127 4 273v694q0 201 -2 293h-43q4 -209 4 -334v-616q-1 -198 -9 -345q255 11 687 3l2 36h-367zM609 2q-267 0 -419 -10q14 137 15 493v461q0 356 -15 494q143 0 228 10q-8 -80 -8 -303v-852q0 -84 4 -123l182 -2q240 0 448 6q-10 -82 -14 -184
q-154 10 -421 10z" />
    <glyph glyph-name="m" unicode="m" horiz-adv-x="1781" 
d="M281 80q4 45 51 377l33 241q1 6 29 228t30 248q6 -14 28 -62t54 -119t56 -119q22 -48 117 -252t169 -361t80 -175q26 63 238 509t268 576q2 -27 30 -241t31 -232l33 -241q47 -330 53 -385l43 4q-45 272 -63 420l-39 284q-2 8 -33 244t-35 276q-25 -63 -210 -456
t-314 -672q-4 12 -196 419t-333 714q-6 -88 -61 -525l-39 -284q-14 -119 -63 -416h43zM911 -20l-53 -15l-432 946l-84 -616q-29 -219 -31 -295h-209q39 170 84 494l62 452q45 315 59 514l53 15q20 -53 142 -306l393 -823l385 823q106 231 137 306h49q41 -338 68 -529
l61 -452q39 -281 84 -494l-215 -16q-4 127 -32 311l-82 616q-400 -833 -439 -931z" />
    <glyph glyph-name="n" unicode="n" horiz-adv-x="1591" 
d="M354 80q4 78 4 377l4 399q0 338 -2 377l1000 -1153q-2 18 -2 217l8 688q2 100 2 379l-43 -2q8 -172 4 -418l-6 -600q0 -8 5 -90t-3 -82l-1003 1163q4 -39 4 -409l-4 -430q-7 -332 -11 -416h43zM1212 946q0 362 -16 494q135 0 221 10q-10 -76 -16 -303l-15 -864
q0 -264 5 -303l-54 -15l-942 1063v-733q0 -219 8 -295h-223q18 156 25 494l8 493q6 342 -8 473l55 15l952 -1121v592z" />
    <glyph glyph-name="o" unicode="o" 
d="M313 716q-1 -262 141 -420t368 -157q226 0 371 161q144 161 144 423t-141 420q-142 157 -368 157t-370 -160q-144 -162 -145 -424zM873 1370q261 0 425 -179t164 -463t-171 -472t-432 -188t-425 179t-164 464t170 472q171 187 433 187zM227 707q0 -295 175 -485t455 -189
q280 -1 463 201t183 497t-174 484q-175 189 -455 189t-464 -200q-184 -202 -183 -497zM814 -37q-316 0 -514 211t-198 508q0 336 209 564t525 228t514 -210q197 -211 196 -508q0 -336 -208 -564t-524 -229z" />
    <glyph glyph-name="p" unicode="p" horiz-adv-x="1196" 
d="M909 981q0 285 -321 285q-72 0 -178 -4v-553q57 -6 112 -7q182 0 285 70q102 70 102 209zM1034 994q0 -165 -121 -262t-352 -97q-74 0 -192 18v414q0 166 -7 266l265 6q199 0 303 -90t104 -255zM1077 1000q0 176 -116 276q-117 100 -334 100q-45 0 -308 -8q8 -104 9 -342
v-612q0 -129 -4 -334h45v538q115 -16 192 -16q254 0 385 111t131 287zM1120 1034q0 -223 -148 -361t-452 -138q-32 0 -110 4v-244q0 -219 8 -295h-228q14 137 15 494v452q0 356 -15 494l398 10q252 0 392 -120t140 -296z" />
    <glyph glyph-name="q" unicode="q" 
d="M313 716q-1 -262 141 -420t368 -157q226 0 371 161q144 161 144 423t-141 420q-142 157 -368 157t-370 -160q-144 -162 -145 -424zM270 712q0 284 170 471t432 187t426 -179t164 -463t-170 -471t-432 -187t-426 179t-164 463zM1632 -162q-43 12 -173 48t-150 42l-381 111
q258 27 418 223t160 480t-176 473t-456 189t-463 -200q-183 -202 -183 -492t166 -480q167 -190 431 -197l428 -127q113 -37 353 -101zM102 682q0 336 209 564t525 228t515 -210q198 -211 197 -508q0 -242 -114 -437t-312 -286l256 -70q266 -66 342 -80l-133 -166l-801 246
q-300 8 -492 218t-192 501z" />
    <glyph glyph-name="r" unicode="r" horiz-adv-x="1267" 
d="M410 735h206q137 0 215 71t78 175q0 285 -321 285q-72 0 -178 -4v-527zM1034 1001q0 -106 -66 -188t-142 -114t-138 -31h-319v399q0 166 -7 266l265 6q199 0 303 -90t104 -248zM369 80v555h348l174 -268q2 -2 75 -115t117 -174l50 6q-21 26 -99 138t-102 151l-174 268
q143 35 231 138t88 250t-116 247q-117 100 -334 100q-45 0 -308 -8q8 -104 9 -342v-530q0 -291 -6 -416h47zM1120 1048q0 -312 -301 -436l209 -307q164 -229 215 -293l-242 -26l-368 579h-223v-270q0 -219 8 -295h-228q14 137 15 494v452q0 356 -15 494l398 10
q252 0 392 -120t140 -282z" />
    <glyph glyph-name="s" unicode="s" horiz-adv-x="1060" 
d="M544 37q168 0 276 97t108 251q0 102 -64 182t-154 132q-90 53 -182 103q-217 120 -219 267q0 125 88 210q87 85 225 85t257 -68l14 35q-119 70 -271 70t-253 -99q-100 -99 -101 -237q0 -90 64 -163t155 -124t183 -102t155 -126t64 -169q0 -139 -97 -223t-255 -84t-330 96
l-4 -41q173 -92 341 -92zM502 147q114 1 189 59t75 169q0 68 -46 124t-115 95t-149 86t-150 93q-69 46 -115 119t-46 161q0 166 125 294t326 128t338 -109l-68 -180q-51 45 -128 75t-148 29q-113 0 -176 -56t-64 -153q0 -59 46 -110t115 -88q182 -97 297 -181
q69 -49 115 -130t46 -179q0 -184 -130 -307t-347 -123q-96 0 -214 37t-190 84l12 217q66 -59 178 -107q110 -48 224 -47z" />
    <glyph glyph-name="t" unicode="t" horiz-adv-x="1284" 
d="M686 1374q-193 0 -504 4q0 -25 -2 -37h484q2 -84 2 -243v-684q0 -129 -4 -334h45v1261h483q2 7 2 19t2 18q-315 -4 -508 -4zM748 1141v-846q0 -219 8 -295h-228q14 137 15 494v444q0 164 -6 336q-168 0 -484 -4q8 72 8 182q311 -10 590 -10t592 10q-12 -76 -16 -182
q-315 4 -477 4q-2 -43 -2 -133z" />
    <glyph glyph-name="u" unicode="u" horiz-adv-x="1529" 
d="M307 944v-440q0 -225 133 -348t362 -123q230 0 366 137t137 381v813l-45 -2q4 -82 4 -418v-409q0 -225 -127 -347t-336 -120q-209 0 -331 112t-122 330v854l-47 -2q6 -123 6 -418zM1346 1147v-567q0 -293 -162 -455t-425 -162q-263 1 -419 145t-156 384v454
q0 356 -14 494q143 0 227 10q-8 -80 -8 -303v-623q0 -385 371 -385q182 -1 282 97t101 270v440q0 362 -17 494q143 0 230 10q-10 -74 -10 -303z" />
    <glyph glyph-name="v" unicode="v" horiz-adv-x="1329" 
d="M1202 1356q-20 -47 -56 -136t-65 -157t-39 -92l-165 -391q-139 -338 -158 -392l-416 971q-37 90 -88 205l-45 -2q68 -147 111 -250l438 -1020q49 145 170 424l178 418q2 6 74 174t104 248h-43zM651 -37l-458 1053q-94 221 -193 420l227 16l449 -1075l276 670
q66 160 150 391h227l-459 -1049q-115 -264 -165 -412z" />
    <glyph glyph-name="w" unicode="w" horiz-adv-x="2007" 
d="M209 1366l-45 -4q41 -106 94 -254l358 -1022q18 57 215 565q209 584 216 600l428 -1163q16 55 89 271q74 216 104 295t259 702h-45q-25 -70 -111 -304q-219 -599 -296 -857l-426 1146q-11 -27 -103 -283t-101 -276q-9 -22 -111 -290t-113 -304l-336 967q-56 160 -76 211z
M2007 1438l-399 -1049q-131 -346 -150 -412l-51 -14l-406 1079l-239 -667q-12 -37 -78 -192t-88 -220h-49l-383 1053q-102 281 -162 420l227 16l359 -1063l250 676q29 78 147 393l51 15l400 -1084l217 658q6 23 55 169t72 222h227z" />
    <glyph glyph-name="x" unicode="x" horiz-adv-x="1433" 
d="M272 1368l457 -641q-250 -346 -467 -647h47q55 78 166 232t191 265q80 112 86 119q365 -514 448 -628l47 2q-422 594 -471 661q182 256 457 629h-49q-372 -514 -428 -598q-162 229 -437 610zM1120 -16l-407 596l-133 -189q-102 -145 -269 -391h-245l528 719l-213 303
q-154 221 -301 420l239 16l398 -575l119 170q184 266 268 391h246l-516 -701l227 -323q229 -324 301 -420z" />
    <glyph glyph-name="y" unicode="y" horiz-adv-x="1259" 
d="M653 412q0 -127 -4 -332h45v555l156 239q143 217 317 486h-47q-66 -102 -286 -447l-158 -241l-215 336q-37 59 -232 364l-43 -4q88 -135 240 -377l227 -358v-221zM733 295q0 -223 10 -295h-229q16 158 16 494v129l-215 335q-160 256 -313 484l225 16l410 -651l119 184
q117 184 280 453h236l-539 -811v-338z" />
    <glyph glyph-name="z" unicode="z" horiz-adv-x="1280" 
d="M682 102q-311 0 -412 -2l899 1280q-167 -6 -405 -6t-504 4v-37h438q295 0 400 2l-901 -1280q393 14 946 5l4 34h-465zM646 2q-390 0 -566 -10l-41 39l883 1241q-86 2 -285 2t-506 -4q8 72 8 182q303 -10 575 -10t488 10l39 -37l-870 -1243l264 -2q356 0 561 6
q-12 -76 -16 -184q-144 10 -534 10z" />
    <glyph glyph-name="braceleft" unicode="{" horiz-adv-x="706" 
d="M309 85q0 99 71 249t71 209t-36 114t-102 70q66 13 102 69t36 116t-71 194t-71 230t75 174t189 87l-4 33q-127 -14 -211 -102t-84 -192t72 -239q72 -134 72 -198t-46 -111t-120 -47h-51l-2 -32h53q88 1 127 -51t39 -109t-72 -207t-72 -238q0 -131 78 -216t209 -99l4 33
q-121 14 -189 89t-67 174zM346 1336q0 -79 68 -211t67 -203q0 -139 -96 -191q96 -55 96 -194q1 -69 -67 -217t-68 -228t45 -134t120 -66t112 -13l-27 -160q-31 2 -74 7q-152 12 -253 118t-101 269q0 97 75 247t75 194t-22 70t-78 26t-138 -5q6 117 6 162q40 -2 114 -2
q74 -1 96 25q51 59 -16 181q-38 67 -75 147t-37 155q0 151 106 263t256 124q43 4 74 6l27 -164l-99 -8q-84 -8 -135 -64t-51 -134z" />
    <glyph glyph-name="bar" unicode="|" horiz-adv-x="491" 
d="M254 1044v-743q0 -231 -2 -334h35v1413l-35 -2q2 -102 2 -334zM170 379v586q0 356 -14 493q82 0 170 10q-8 -80 -9 -303v-983q1 -219 9 -295h-170q14 137 14 492z" />
    <glyph glyph-name="braceright" unicode="}" horiz-adv-x="706" 
d="M473 1342q0 -100 -71 -231q-70 -132 -70 -191q0 -58 35 -114t102 -71q-65 -12 -101 -68q-36 -55 -36 -117t70 -213t71 -247q0 -96 -75 -174t-189 -88l4 -31q129 13 212 101t83 211q0 87 -72 239t-72 216t46 110q45 47 120 47h52l2 33h-54q-90 0 -128 51t-38 109t72 190
q72 131 72 219q0 129 -77 212t-210 103l-6 -32q119 -14 189 -89t69 -175zM367 1339q0 79 -44 133t-120 66t-113 14l27 158q37 -4 73 -6q152 -12 253 -118t102 -269q0 -94 -75 -226t-75 -177q0 -97 99 -97q57 0 139 4q-6 -111 -6 -162q-39 3 -113 3t-97 -26q-22 -26 -22 -70
t75 -198t75 -249q-1 -151 -107 -263t-256 -124q-43 -2 -73 -6l-29 161q68 4 100 9q84 10 135 65t51 133t-67 226q-68 148 -68 221q0 137 97 190q-96 55 -97 195q0 70 68 202t68 211z" />
    <glyph glyph-name="asciitilde" unicode="~" horiz-adv-x="882" 
d="M642 670q-64 0 -148 53t-158 53t-158 -88l21 -20q74 78 138 78t148 -54q84 -53 158 -53t168 88l-23 21q-82 -78 -146 -78zM307 682q-78 0 -164 -113l-98 93q129 178 260 178q78 0 162 -54t121 -53q80 0 174 115l104 -98q-133 -174 -270 -175q-80 -1 -165 53t-124 54z" />
    <glyph glyph-name="nbspace" unicode="&#xa0;" horiz-adv-x="456" 
 />
    <glyph glyph-name="exclamdown" unicode="&#xa1;" horiz-adv-x="493" 
d="M315 80l-14 885h-37l-6 -889zM281 1395q-19 1 -31 -13t-12 -33t11 -31t29 -13q18 0 32 14q14 15 14 33t-12 30t-31 13zM111 -12q12 80 16 223l29 608q4 152 2 221l172 11q4 -207 10 -365l12 -375q10 -246 17 -305q-203 -12 -258 -18zM129 1349q0 50 34 88t86 38t84 -36
t32 -86t-34 -88t-85 -38t-84 36t-33 86z" />
    <glyph glyph-name="cent" unicode="&#xa2;" horiz-adv-x="1005" 
d="M264 736q0 -134 56 -224t149 -123q4 41 9 115t7 100l17 236q10 164 14 237q-116 -23 -184 -115t-68 -226zM627 1151h2q-4 -41 -15 -221l-28 -414q-7 -90 -17 -211q-155 16 -247 129t-92 293t110 302q111 122 287 122zM590 125q0 43 10 143h8q164 0 295 72l2 39
q-129 -76 -295 -76h-8q10 133 12 168l35 504q2 18 13 176q127 -6 229 -70l10 35q-104 59 -237 70q2 14 5 64t5 71l-37 -2q-2 -43 -6 -133h-2q-193 0 -316 -135t-123 -325t104 -316q104 -125 273 -140q-11 -128 -14 -145h37zM72 720q0 198 126 352q126 155 326 179
q4 119 4 142q102 0 185 12q-4 -39 -17 -158q131 -23 242 -100l-55 -172q-88 80 -201 100v-10l-49 -682v-8q168 16 303 131l-10 -205q-156 -92 -303 -100q-6 -92 -7 -150h-182q8 47 19 160q-172 37 -277 174q-104 137 -104 335z" />
    <glyph glyph-name="sterling" unicode="&#xa3;" horiz-adv-x="1136" 
d="M883 741q-129 -6 -346 -6q-14 27 -48 80q-94 150 -96 234q0 141 87 221q88 80 224 80t287 -58l8 35q-141 59 -293 59t-254 -90q-101 -90 -102 -245q0 -85 94 -241q35 -58 45 -77l-272 -2l-2 -41q70 0 279 4h16q53 -100 53 -180q0 -244 -356 -446q279 4 503 4t371 -6l4 38
q-123 2 -317 2t-442 -4q130 76 204 187t74 209t-47 196q93 6 324 6zM436 1042q0 -68 115 -241q152 2 379 14q-6 -43 -12 -182h-287q14 -51 14 -127t-42 -172t-114 -158q404 0 646 6q-18 -127 -21 -192q-180 10 -510 10t-508 -10l-39 106q168 72 277 180t108 230
q0 55 -28 121q-198 -6 -324 -6q8 57 8 180q49 0 119 -2t98 -2q-92 154 -92 260q0 186 130 295t337 108q94 0 164 -19t184 -69l-41 -180q-182 84 -319 84q-242 0 -242 -234z" />
    <glyph glyph-name="currency" unicode="&#xa4;" horiz-adv-x="1515" 
d="M715 557h-287q-14 70 -14 154t16 166h694l2 41h-411q-25 -2 -125 -3h-148q57 201 217 324q161 123 361 123t356 -94l13 37q-166 94 -374 94t-381 -133t-235 -351q-86 2 -202 3l-2 -41h194q-18 -83 -18 -167t12 -153q-156 0 -186 2l-2 -43h198q55 -215 221 -347t388 -132
t403 125l4 43q-184 -133 -396 -133t-367 120t-208 324h135l132 2q346 0 393 -2l2 43q-43 -2 -385 -2zM246 686q0 43 8 125q-156 0 -182 -2q6 59 6 178q86 -4 221 -4q84 221 271 356t431 136q101 0 223 -36t203 -93l-57 -193q-150 137 -381 137q-166 0 -294 -83t-189 -226
h137q377 0 528 6q-10 -68 -10 -178q-160 4 -459 4h-241q-4 -49 -4 -93t6 -99h180q352 0 502 6q-10 -68 -10 -178q-160 4 -445 4h-182q61 -147 185 -227t282 -79q252 0 471 207l-14 -227q-211 -164 -461 -164t-433 136t-255 352q-182 0 -211 -2q6 59 6 178l170 -4
q-2 20 -2 63z" />
    <glyph glyph-name="yen" unicode="&#xa5;" horiz-adv-x="1341" 
d="M244 741h379l69 -108v-164h-14q-373 0 -434 2v-41h448v-18q0 -127 -4 -332h45v350h453l2 41q-43 -2 -385 -2h-70v166l70 106h383l2 41h-359l60 92q143 217 317 486h-47q-66 -102 -287 -447l-157 -241l-215 336q-37 59 -232 364l-43 -4q88 -135 240 -377l133 -211l-354 2
v-41zM774 532q342 0 459 7q-10 -68 -10 -179q-139 4 -449 5v-70q0 -223 10 -295h-229q10 88 14 365q-328 0 -450 -5q6 59 6 179q121 -6 446 -7v91l-34 53q-303 0 -418 -4q6 57 6 180q53 -2 303 -6l-72 112q-160 256 -313 484l225 16l410 -651l119 184q117 184 280 453h236
l-398 -598q272 4 318 6q-10 -68 -10 -180q-131 4 -420 4l-29 -43v-101z" />
    <glyph glyph-name="section" unicode="&#xa7;" horiz-adv-x="1017" 
d="M764 451q0 80 -69 139t-232 145q-82 -16 -129 -72t-47 -127t40 -120t95 -85t170 -93q172 59 172 213zM248 537q0 96 70 172q71 76 212 98q193 -106 254 -160q98 -92 100 -192t-55 -174q-56 -74 -208 -127q-69 42 -152 88t-118 81q-35 33 -59 63q-44 54 -44 151zM209 530
q0 -186 218 -310l182 -104t155 -122t63 -156q0 -129 -87 -202q-87 -72 -234 -72t-309 86v-39q159 -82 317 -82t255 85t97 228q0 90 -54 158t-150 129q150 59 206 139t56 180t-64 177q-64 78 -154 130q-92 52 -184 100q-218 113 -218 237q-1 124 78 200t205 76t247 -63l14 32
q-122 66 -264 66t-231 -87t-89 -220q0 -82 58 -143t167 -122q-139 -31 -209 -113t-71 -188zM963 452q-1 -112 -53 -198t-148 -133q143 -105 143 -275t-119 -280t-319 -109q-94 0 -207 33t-178 80l2 211q63 -55 172 -100t199 -46q254 0 254 195q0 126 -220 244
q-92 49 -183 104t-154 141q-64 87 -64 191t54 194t153 138q-152 102 -152 254t112 265q113 114 305 114t327 -101l-62 -176q-123 98 -266 98q-105 0 -161 -49t-56 -123t64 -128q64 -52 155 -98q92 -46 183 -100t155 -144t64 -202z" />
    <glyph glyph-name="dieresis" unicode="&#xa8;" horiz-adv-x="663" 
d="M182 1720q18 0 30 14t13 33q0 19 -11 31q-10 12 -30 12t-32 -13t-12 -31t12 -32t30 -14zM549 1720q19 0 31 14t12 33t-11 31t-31 12t-32 -13t-12 -31t12 -32t31 -14zM150 1890q52 0 84 -36t32 -85q0 -51 -34 -89t-86 -38t-84 36t-32 86t35 88q34 38 85 38zM516 1890
q51 0 84 -36t33 -85q0 -51 -34 -89t-86 -38t-84 36t-32 86t34 88t85 38z" />
    <glyph glyph-name="copyright" unicode="&#xa9;" horiz-adv-x="1718" 
d="M580 724q0 -150 98 -248t260 -99q86 0 156 31l2 34q-78 -33 -158 -32q-145 0 -233 88q-89 88 -89 227t90 232t226 94q88 0 158 -29l10 31q-74 31 -168 30q-152 0 -252 -104q-100 -105 -100 -255zM906 983q-110 0 -179 -71q-70 -70 -70 -184t69 -182q70 -68 192 -69
q122 0 223 84l-6 -182q-98 -70 -236 -70q-190 0 -309 118t-119 293t121 303t289 128t270 -70l-49 -155q-86 57 -196 57zM859 2q296 0 505 210t209 509t-209 509t-505 210t-505 -211t-209 -508t209 -508t505 -211zM1616 719q0 -313 -221 -535t-535 -221q-314 0 -536 221
q-222 220 -222 534t222 536t535 222t535 -222t222 -535z" />
    <glyph glyph-name="ordfeminine" unicode="&#xaa;" horiz-adv-x="677" 
d="M387 1096l-49 100l-47 -100h96zM500 1049h-269l134 264q61 -123 135 -264zM512 1024q29 -53 39 -74h33l-219 420l-213 -418h32l37 72h291zM446 977h-210l-43 -92h-173l226 422q70 139 80 161l20 7l219 -420q84 -156 92 -170l-163 -4z" />
    <glyph glyph-name="guillemotleft" unicode="&#xab;" horiz-adv-x="1093" 
d="M526 397l17 25l-346 299q244 213 346 301l-17 22l-368 -325q262 -230 368 -322zM967 397l16 25l-346 299q244 213 346 301l-16 22l-369 -325q263 -230 369 -322zM508 1141q9 -18 90 -121q-55 -41 -225 -186l-129 -111l129 -113q186 -159 225 -186l-90 -121l-453 385l4 66
zM1038 424l-90 -121l-452 385l4 66l448 387q12 -24 46 -65q34 -42 44 -56q-55 -41 -225 -186l-129 -111l129 -113q186 -159 225 -186z" />
    <glyph glyph-name="registered" unicode="&#xae;" horiz-adv-x="1718" 
d="M772 922v-164h80q145 0 145 119q0 104 -147 104l-76 -2q-2 -25 -2 -57zM1106 876q0 -78 -60 -130t-161 -52h-154v197q0 115 -2 149l152 4q111 0 168 -44t57 -124zM694 874v-315q0 -106 -2 -149h39v254h160q14 0 22 2l170 -256l41 2l-174 258q86 16 140 76q53 60 53 140
t-68 135q-68 54 -194 54l-191 -4q4 -41 4 -197zM1184 901q0 -95 -48 -159t-122 -97l215 -309l-207 -12l-180 278h-70v-104q0 -121 6 -168h-200q10 86 10 270v240q0 207 -10 293l272 6q166 0 250 -72t84 -166zM859 2q296 0 505 210t209 509t-209 509t-505 210t-505 -211
t-209 -508t209 -508t505 -211zM1616 719q0 -313 -221 -535t-535 -221q-314 0 -536 221q-222 220 -222 534t222 536t535 222t535 -222t222 -535z" />
    <glyph glyph-name="macron" unicode="&#xaf;" horiz-adv-x="712" 
d="M346 1741l-188 2l-2 -35h485l2 35h-137q-23 -2 -160 -2zM440 1653h-178q-96 0 -231 -4q6 59 6 153q151 -6 327 -6t328 6q-10 -68 -10 -153q-160 4 -242 4z" />
    <glyph glyph-name="degree" unicode="&#xb0;" horiz-adv-x="780" 
d="M225 1147q0 -89 44 -141t120 -52t120 52t44 142q0 91 -43 142t-119 51t-121 -52t-45 -142zM427 1399q105 0 167 -68q62 -69 63 -181q0 -112 -65 -182q-64 -70 -170 -71q-106 0 -169 68q-63 67 -63 179t66 184t171 71zM420 868q120 0 196 81t76 204t-72 199
q-73 76 -193 76t-196 -82q-75 -80 -75 -203t72 -199t192 -76zM729 1154q0 -144 -97 -244q-98 -99 -248 -99t-242 92q-91 93 -91 237t97 243q96 99 246 99t243 -91q92 -93 92 -237z" />
    <glyph glyph-name="acute" unicode="&#xb4;" horiz-adv-x="557" 
d="M479 1833q-4 4 -20 33q-268 -164 -301 -185l16 -24q172 102 305 176zM547 1812q-227 -111 -441 -235l-73 109q219 147 405 292q43 -84 109 -166z" />
    <glyph glyph-name="paragraph" unicode="&#xb6;" horiz-adv-x="1441" 
d="M612 1268q-323 0 -323 -270q0 -136 97 -211t278 -70v549zM651 1339q94 0 142 -2q-6 -104 -7 -270v-420q-26 -2 -81 -2q-225 -2 -343 94q-116 96 -116 256t104 252t301 92zM1196 1065q0 35 -1 140t-1 155q-14 -2 -43 -2q4 -205 4 -334v-612q0 -127 -4 -332h43l2 293v692z
M827 1028q0 246 11 344q-131 4 -187 4q-215 0 -332 -104t-117 -278t127 -279q126 -106 376 -107q55 0 81 2v-528h43q-2 102 -2 332v614zM1032 492v452q0 356 -14 494q143 0 227 10q-8 -80 -8 -303v-852q0 -219 8 -293h-227q14 135 14 492zM868 946v-452q0 -356 15 -494h-228
q8 80 9 297v240q-297 4 -442 130q-144 126 -144 343q0 178 142 309t392 131l271 -6q-15 -150 -15 -498z" />
    <glyph glyph-name="periodcentered" unicode="&#xb7;" horiz-adv-x="471" 
d="M270 674q43 0 43 47q0 19 -11 31q-12 12 -30 12t-31 -14t-13 -32t12 -32q12 -12 30 -12zM238 842q52 0 84 -35t32 -85t-34 -88t-86 -38t-84 35t-33 86q0 51 35 88t86 37z" />
    <glyph glyph-name="cedilla" unicode="&#xb8;" horiz-adv-x="503" 
d="M371 236l-35 10q-68 -186 -172 -426l29 -10q106 250 178 426zM438 299q-24 -70 -116 -281t-138 -305l-121 41q27 62 103 292t90 294q51 -18 182 -41z" />
    <glyph glyph-name="ordmasculine" unicode="&#xba;" horiz-adv-x="690" 
d="M469 1180q0 70 -34 112t-89 43q-131 0 -131 -168q0 -73 33 -115t90 -42q131 0 131 170zM565 1177q0 -95 -54 -159q-53 -64 -143 -64t-141 58t-51 155q0 95 54 159t142 64t141 -58q52 -60 52 -155zM373 1419q-102 0 -166 -72q-63 -73 -63 -179t58 -174q60 -66 164 -66
t169 72t65 178t-62 174q-63 67 -165 67zM641 1180q0 -127 -86 -217q-86 -91 -217 -91t-210 84t-79 210t85 217t215 91t211 -83q81 -84 81 -211z" />
    <glyph glyph-name="guillemotright" unicode="&#xbb;" horiz-adv-x="1093" 
d="M207 399l371 320q-264 233 -371 325l-17 -22l347 -301q-244 -213 -347 -299zM647 399l371 320q-264 233 -371 325l-16 -22l346 -301q-244 -213 -346 -299zM55 1018l90 123l453 -385l-4 -66l-449 -387q-2 4 -90 119q94 70 224 188l129 111l-129 113q-25 22 -111 94
t-113 90zM496 1018l90 123l452 -385l-4 -66l-448 -387q-2 4 -90 119q39 29 225 188l127 111l-127 113q-174 149 -225 184z" />
    <glyph glyph-name="questiondown" unicode="&#xbf;" horiz-adv-x="927" 
d="M213 305q0 68 52 118t126 83q74 32 148 66t126 87t52 139t-69 142t-193 55q-37 0 -103 -8l6 -35q47 6 93 6q111 0 169 -45t58 -120t-52 -123t-126 -79q-74 -32 -148 -66t-126 -89t-52 -131q0 -123 93 -197t235 -73q142 0 280 65l-4 39q-135 -67 -268 -67t-215 63t-82 170
zM549 1397q-43 0 -43 -47q0 -18 11 -30t29 -13q18 0 33 14q13 15 13 33t-12 30t-31 13zM557 784q0 103 -146 103q-76 0 -143 -23l-37 180q77 23 209 23t224 -76t92 -203q0 -88 -52 -151t-126 -100t-148 -68q-178 -75 -178 -166q0 -72 57 -116t151 -44t192 39q99 39 151 86
l12 -213q-59 -41 -163 -67t-193 -25q-170 0 -288 94t-118 250q0 90 52 155q52 64 126 100t148 66t126 68t52 88zM397 1351q0 50 34 88t86 38t84 -36t32 -86t-34 -88t-85 -38t-84 36t-33 86z" />
    <glyph glyph-name="Agrave" unicode="&#xc0;" horiz-adv-x="1415" 
d="M723 1681q-83 49 -287 187q-13 -26 -20 -33q49 -29 291 -176zM715 1571q-205 115 -445 227q66 82 109 166q186 -145 407 -289zM922 575l-228 510l-225 -510h453zM733 1262l346 -754h-680l166 366q158 357 168 388zM1096 475l86 -192q43 -107 98 -211l43 4q-23 47 -66 139
t-53 113l-471 1022q-51 -133 -180 -420l-203 -441q-27 -57 -184 -409h45q137 322 164 375l10 20h711zM393 408l-168 -408h-225l487 1049q121 260 179 411l53 15l491 -1055q98 -217 203 -420l-225 -16l-191 424h-604z" />
    <glyph glyph-name="Aacute" unicode="&#xc1;" horiz-adv-x="1415" 
d="M1042 1833q-4 4 -20 33q-268 -164 -301 -185l16 -24q172 102 305 176zM1110 1812q-227 -111 -440 -235l-74 109q219 147 405 292q43 -84 109 -166zM922 575l-228 510l-225 -510h453zM733 1262l346 -754h-680l166 366q158 357 168 388zM1096 475l86 -192q43 -107 98 -211
l43 4q-23 47 -66 139t-53 113l-471 1022q-51 -133 -180 -420l-203 -441q-27 -57 -184 -409h45q137 322 164 375l10 20h711zM393 408l-168 -408h-225l487 1049q121 260 179 411l53 15l491 -1055q98 -217 203 -420l-225 -16l-191 424h-604z" />
    <glyph glyph-name="Acircumflex" unicode="&#xc2;" horiz-adv-x="1415" 
d="M954 1671l25 21l-242 233l-237 -233l24 -21l215 211zM1044 1686l-124 -103l-213 217l-213 -217l-127 103l305 290l65 -4zM922 575l-228 510l-225 -510h453zM733 1262l346 -754h-680l166 366q158 357 168 388zM1096 475l86 -192q43 -107 98 -211l43 4q-23 47 -66 139
t-53 113l-471 1022q-51 -133 -180 -420l-203 -441q-27 -57 -184 -409h45q137 322 164 375l10 20h711zM393 408l-168 -408h-225l487 1049q121 260 179 411l53 15l491 -1055q98 -217 203 -420l-225 -16l-191 424h-604z" />
    <glyph glyph-name="Atilde" unicode="&#xc3;" horiz-adv-x="1415" 
d="M908 1700q-64 0 -148 53t-158 53t-158 -88l21 -20q74 78 138 78q65 0 149 -54t158 -53q74 0 167 88l-22 21q-83 -78 -147 -78zM862 1606q-80 0 -165 53t-124 53q-78 0 -163 -113l-99 93q129 178 260 178q78 0 162 -53t121 -54q80 0 174 115l105 -98q-133 -174 -271 -174z
M922 575l-228 510l-225 -510h453zM733 1262l346 -754h-680l166 366q158 357 168 388zM1096 475l86 -192q43 -107 98 -211l43 4q-23 47 -66 139t-53 113l-471 1022q-51 -133 -180 -420l-203 -441q-27 -57 -184 -409h45q137 322 164 375l10 20h711zM393 408l-168 -408h-225
l487 1049q121 260 179 411l53 15l491 -1055q98 -217 203 -420l-225 -16l-191 424h-604z" />
    <glyph glyph-name="Adieresis" unicode="&#xc4;" horiz-adv-x="1415" 
d="M557 1720q19 0 31 14t12 33t-11 31t-31 12t-32 -13t-12 -31t12 -32t31 -14zM924 1720q18 0 30 14t13 33t-11 31t-31 12t-31 -13t-13 -31q1 -18 13 -32t30 -14zM524 1890q51 0 84 -36t33 -85q0 -51 -34 -89t-86 -38t-84 36q-31 36 -31 86t33 88q34 38 85 38zM891 1890
q51 0 84 -36t33 -85q0 -51 -34 -89t-86 -38t-84 36t-32 86t34 88t85 38zM922 575l-228 510l-225 -510h453zM733 1262l346 -754h-680l166 366q158 357 168 388zM1096 475l86 -192q43 -107 98 -211l43 4q-23 47 -66 139t-53 113l-471 1022q-51 -133 -180 -420l-203 -441
q-27 -57 -184 -409h45q137 322 164 375l10 20h711zM393 408l-168 -408h-225l487 1049q121 260 179 411l53 15l491 -1055q98 -217 203 -420l-225 -16l-191 424h-604z" />
    <glyph glyph-name="Aring" unicode="&#xc5;" horiz-adv-x="1415" 
d="M922 575l-228 510l-225 -510h453zM733 1262l346 -754h-680l166 366q158 357 168 388zM801 1615q-1 -38 -21 -63q-20 -24 -55 -24t-57 26t-23 61q0 35 23 61q22 26 58 26t56 -24t19 -63zM1096 475l86 -192q43 -107 98 -211l43 4q-23 47 -66 139t-53 113l-471 1022
q-51 -133 -180 -420l-203 -441q-27 -57 -184 -409h45q137 322 164 375l10 20h711zM836 1617q0 52 -30 85t-80 33t-83 -36t-33 -85t33 -84t82 -35t80 35t31 87zM545 1618q0 62 48 111t118 49q71 0 113 -47t42 -111t-38 -110q-38 -48 -99 -56l481 -1034q98 -217 203 -420
l-225 -16l-191 424h-604l-168 -408h-225l487 1049q122 255 177 407q-53 14 -86 57t-33 105z" />
    <glyph glyph-name="AE" unicode="&#xc6;" horiz-adv-x="1828" 
d="M909 573v371q0 96 -2 154l-362 -525h364zM1030 506h-571q63 96 201 286t366 533q4 -176 4 -291v-528zM1071 774v299q0 143 -4 270q168 -4 272 -4h314q0 12 4 37q-99 -2 -321 -2t-318 4q-137 -211 -316 -460t-376 -532q-197 -284 -211 -306h49q20 29 270 393h596v-65
q0 -246 -8 -345q399 8 674 3l2 36h-352q-111 0 -279 -4q4 127 4 271v372h492l2 33h-494zM1327 1440q201 0 379 10q-14 -104 -14 -182q-246 4 -382 4t-194 -2q-4 -37 -4 -121v-307h498q-6 -78 -6 -170h-492v-379q0 -86 4 -123l184 -2q238 0 447 6q-10 -82 -14 -182
q-152 10 -419 10t-421 -10q16 154 16 414h-481q-28 -42 -268 -406h-234l742 1047q233 327 280 403q178 -10 379 -10z" />
    <glyph glyph-name="Ccedilla" unicode="&#xc7;" horiz-adv-x="1392" 
d="M270 713q0 279 176 464t445 185q186 0 342 -94l12 37q-166 94 -352 94q-287 0 -476 -201t-189 -489q0 -287 170 -473q171 -186 436 -199q-66 -160 -91 -217l27 -10q88 202 98 227q213 0 394 125l4 43q-174 -127 -383 -133q63 154 67 164l-35 10l-67 -174q-252 8 -415 185
t-163 456zM102 682q0 334 215 563t541 230q100 0 222 -36t204 -93l-57 -193q-150 137 -382 137t-382 -158t-150 -407t129 -403t334 -172q45 145 58 190q51 -16 182 -41q-21 -55 -58 -139q176 35 345 194l-15 -227q-193 -147 -414 -162q-27 -63 -67 -158l-43 -94l-121 41
q31 86 74 215q-270 37 -443 241q-172 204 -172 472z" />
    <glyph glyph-name="Egrave" unicode="&#xc8;" horiz-adv-x="1126" 
d="M457 1868l-21 -33q49 -29 291 -176l16 22q-75 45 -286 187zM735 1571q-205 115 -444 227q66 82 108 166q186 -145 408 -289zM328 410q0 -248 -9 -347q260 11 674 3q0 25 2 36h-352q-195 0 -278 -4q4 127 4 273v370h491l2 35h-493v297q0 147 -4 270q84 -2 272 -2h313l2 35
l-315 -2q-170 0 -318 6q8 -100 9 -346v-624zM609 2q-267 0 -419 -10q14 137 15 493v473q0 356 -15 494q201 -10 405 -10t409 10q-12 -76 -17 -182q-242 4 -378 4t-195 -2q-4 -37 -4 -121v-307h497q-6 -78 -6 -170h-491v-379q0 -86 4 -123l182 -2q240 0 448 6
q-10 -82 -14 -184q-154 10 -421 10z" />
    <glyph glyph-name="Eacute" unicode="&#xc9;" horiz-adv-x="1126" 
d="M877 1833q-4 4 -21 33q-268 -164 -301 -185l16 -24q173 102 306 176zM944 1812q-227 -111 -440 -235l-74 109q219 147 406 292q42 -84 108 -166zM328 410q0 -248 -9 -347q260 11 674 3q0 25 2 36h-352q-195 0 -278 -4q4 127 4 273v370h491l2 35h-493v297q0 147 -4 270
q84 -2 272 -2h313l2 35l-315 -2q-170 0 -318 6q8 -100 9 -346v-624zM609 2q-267 0 -419 -10q14 137 15 493v473q0 356 -15 494q201 -10 405 -10t409 10q-12 -76 -17 -182q-242 4 -378 4t-195 -2q-4 -37 -4 -121v-307h497q-6 -78 -6 -170h-491v-379q0 -86 4 -123l182 -2
q240 0 448 6q-10 -82 -14 -184q-154 10 -421 10z" />
    <glyph glyph-name="Ecircumflex" unicode="&#xca;" horiz-adv-x="1126" 
d="M858 1671l25 21l-242 233l-238 -233l25 -21l215 211zM948 1686l-125 -103l-213 217l-213 -217l-127 103l305 290l66 -4zM328 410q0 -248 -9 -347q260 11 674 3q0 25 2 36h-352q-195 0 -278 -4q4 127 4 273v370h491l2 35h-493v297q0 147 -4 270q84 -2 272 -2h313l2 35
l-315 -2q-170 0 -318 6q8 -100 9 -346v-624zM609 2q-267 0 -419 -10q14 137 15 493v473q0 356 -15 494q201 -10 405 -10t409 10q-12 -76 -17 -182q-242 4 -378 4t-195 -2q-4 -37 -4 -121v-307h497q-6 -78 -6 -170h-491v-379q0 -86 4 -123l182 -2q240 0 448 6
q-10 -82 -14 -184q-154 10 -421 10z" />
    <glyph glyph-name="Edieresis" unicode="&#xcb;" horiz-adv-x="1126" 
d="M459 1720q18 0 30 14t13 33q0 19 -12 31t-30 12q-20 0 -32 -13t-12 -31t12 -32t31 -14zM825 1720q19 0 31 14t12 33t-11 31t-31 12t-31 -13q-13 -13 -13 -31t12 -32t31 -14zM426 1890q51 0 84 -36t33 -85q0 -51 -34 -89t-86 -38t-84 36t-32 86t34 88t85 38zM793 1890
q51 0 83 -36t33 -85q0 -50 -33 -89q-34 -38 -86 -38t-84 36t-32 86t34 88t85 38zM328 410q0 -248 -9 -347q260 11 674 3q0 25 2 36h-352q-195 0 -278 -4q4 127 4 273v370h491l2 35h-493v297q0 147 -4 270q84 -2 272 -2h313l2 35l-315 -2q-170 0 -318 6q8 -100 9 -346v-624z
M609 2q-267 0 -419 -10q14 137 15 493v473q0 356 -15 494q201 -10 405 -10t409 10q-12 -76 -17 -182q-242 4 -378 4t-195 -2q-4 -37 -4 -121v-307h497q-6 -78 -6 -170h-491v-379q0 -86 4 -123l182 -2q240 0 448 6q-10 -82 -14 -184q-154 10 -421 10z" />
    <glyph glyph-name="Igrave" unicode="&#xcc;" horiz-adv-x="675" 
d="M92 1835q49 -29 291 -176l16 22l-286 187q-9 -9 -21 -33zM391 1571q-205 115 -444 227q66 82 108 166q186 -145 408 -289zM358 1024v-612q0 -229 -2 -332h43v1280q-14 -2 -43 -2q2 -102 2 -334zM236 946q0 356 -15 494q143 0 228 10q-8 -80 -9 -303v-852q1 -219 9 -295
h-228q14 137 15 494v452z" />
    <glyph glyph-name="Iacute" unicode="&#xcd;" horiz-adv-x="675" 
d="M670 1833q-4 4 -21 33q-268 -164 -301 -185l17 -24q172 102 305 176zM737 1812q-227 -111 -440 -235l-74 109q219 147 406 292q42 -84 108 -166zM358 1024v-612q0 -229 -2 -332h43v1280q-14 -2 -43 -2q2 -102 2 -334zM236 946q0 356 -15 494q143 0 228 10q-8 -80 -9 -303
v-852q1 -219 9 -295h-228q14 137 15 494v452z" />
    <glyph glyph-name="Icircumflex" unicode="&#xce;" horiz-adv-x="675" 
d="M586 1671l24 21l-241 233l-238 -233l25 -21l215 211zM676 1686l-125 -103l-213 217l-213 -217l-127 103l305 290l66 -4zM358 1024v-612q0 -229 -2 -332h43v1280q-14 -2 -43 -2q2 -102 2 -334zM236 946q0 356 -15 494q143 0 228 10q-8 -80 -9 -303v-852q1 -219 9 -295
h-228q14 137 15 494v452z" />
    <glyph glyph-name="Idieresis" unicode="&#xcf;" horiz-adv-x="675" 
d="M188 1720q18 0 30 14t13 33q0 19 -11 31q-10 12 -30 12t-32 -13t-12 -31t12 -32t30 -14zM555 1720q19 0 31 14t12 33t-11 31t-31 12t-32 -13t-12 -31t12 -32t31 -14zM156 1890q52 0 84 -36t32 -85q0 -50 -33 -89q-34 -38 -86 -38t-84 36t-32 86t34 88t85 38zM522 1890
q51 0 84 -36t33 -85q0 -51 -34 -89t-86 -38t-84 36t-32 86t34 88t85 38zM358 1024v-612q0 -229 -2 -332h43v1280q-14 -2 -43 -2q2 -102 2 -334zM236 946q0 356 -15 494q143 0 228 10q-8 -80 -9 -303v-852q1 -219 9 -295h-228q14 137 15 494v452z" />
    <glyph glyph-name="Eth" unicode="&#xd0;" horiz-adv-x="1472" 
d="M410 805q147 0 266 6q-10 -68 -10 -174q-160 4 -242 4h-14v-446q123 -12 245 -13q236 0 371 142t135 364q0 268 -134 423t-359 155q-152 0 -258 -4v-457zM1286 715q0 -271 -163 -439t-437 -167q-213 0 -324 6q6 102 7 258v334h256l2 34h-138q-16 -2 -120 -2v326
q0 164 -7 266l347 6q261 0 419 -175t158 -447zM328 739h-4l-189 2l-2 -34h195v-295q0 -231 -9 -336q49 -4 351 -4t480 179q177 179 177 467t-171 472t-447 184l-390 -8q8 -104 9 -342v-285zM629 0h-439q14 137 15 494v147q-82 0 -197 -4q6 59 6 174q139 -4 191 -6v141
q0 356 -15 494l478 10q311 0 507 -204t195 -503q0 -335 -205 -539t-536 -204z" />
    <glyph glyph-name="Ntilde" unicode="&#xd1;" horiz-adv-x="1591" 
d="M996 1700q-64 0 -148 53t-158 53t-158 -88l21 -20q74 78 138 78q65 0 149 -54t158 -53q74 0 167 88l-22 21q-83 -78 -147 -78zM950 1606q-80 0 -165 53t-123 53q-78 0 -164 -113l-99 93q129 178 260 178q78 0 162 -53t121 -54q80 0 174 115l105 -98q-133 -174 -271 -174z
M354 80q4 78 4 377l4 399q0 338 -2 377l1000 -1153q-2 18 -2 217l8 688q2 100 2 379l-43 -2q8 -172 4 -418l-6 -600q0 -8 5 -90t-3 -82l-1003 1163q4 -39 4 -409l-4 -430q-7 -332 -11 -416h43zM1212 946q0 362 -16 494q135 0 221 10q-10 -76 -16 -303l-15 -864
q0 -264 5 -303l-54 -15l-942 1063v-733q0 -219 8 -295h-223q18 156 25 494l8 493q6 342 -8 473l55 15l952 -1121v592z" />
    <glyph glyph-name="Ograve" unicode="&#xd2;" 
d="M885 1681q-83 49 -287 187q-7 -7 -20 -33q49 -29 290 -176zM877 1571q-205 115 -445 227q66 82 109 166q186 -145 407 -289zM313 716q-1 -262 141 -420t368 -157q226 0 371 161q144 161 144 423t-141 420q-142 157 -368 157t-370 -160q-144 -162 -145 -424zM873 1370
q261 0 425 -179t164 -463t-171 -472t-432 -188t-425 179t-164 464t170 472q171 187 433 187zM227 707q0 -295 175 -485t455 -189q280 -1 463 201t183 497t-174 484q-175 189 -455 189t-464 -200q-184 -202 -183 -497zM814 -37q-316 0 -514 211t-198 508q0 336 209 564
t525 228t514 -210q197 -211 196 -508q0 -336 -208 -564t-524 -229z" />
    <glyph glyph-name="Oacute" unicode="&#xd3;" 
d="M1155 1833q-4 4 -20 33q-268 -164 -301 -185l16 -24q172 102 305 176zM1223 1812q-227 -111 -441 -235l-73 109q219 147 405 292q43 -84 109 -166zM313 716q-1 -262 141 -420t368 -157q226 0 371 161q144 161 144 423t-141 420q-142 157 -368 157t-370 -160
q-144 -162 -145 -424zM873 1370q261 0 425 -179t164 -463t-171 -472t-432 -188t-425 179t-164 464t170 472q171 187 433 187zM227 707q0 -295 175 -485t455 -189q280 -1 463 201t183 497t-174 484q-175 189 -455 189t-464 -200q-184 -202 -183 -497zM814 -37
q-316 0 -514 211t-198 508q0 336 209 564t525 228t514 -210q197 -211 196 -508q0 -336 -208 -564t-524 -229z" />
    <glyph glyph-name="Ocircumflex" unicode="&#xd4;" 
d="M1096 1671l24 21l-241 233l-238 -233l25 -21l215 211zM1186 1686l-125 -103l-213 217l-213 -217l-127 103l305 290l66 -4zM313 716q-1 -262 141 -420t368 -157q226 0 371 161q144 161 144 423t-141 420q-142 157 -368 157t-370 -160q-144 -162 -145 -424zM873 1370
q261 0 425 -179t164 -463t-171 -472t-432 -188t-425 179t-164 464t170 472q171 187 433 187zM227 707q0 -295 175 -485t455 -189q280 -1 463 201t183 497t-174 484q-175 189 -455 189t-464 -200q-184 -202 -183 -497zM814 -37q-316 0 -514 211t-198 508q0 336 209 564
t525 228t514 -210q197 -211 196 -508q0 -336 -208 -564t-524 -229z" />
    <glyph glyph-name="Otilde" unicode="&#xd5;" 
d="M1025 1700q-64 0 -148 53t-158 53t-158 -88l21 -20q74 78 138 78t148 -54t158 -53q74 0 168 88l-23 21q-82 -78 -146 -78zM979 1606q-80 0 -165 53t-124 53q-78 0 -164 -113l-98 93q129 178 260 178q78 0 162 -53t121 -54q80 0 174 115l104 -98q-133 -174 -270 -174z
M313 716q-1 -262 141 -420t368 -157q226 0 371 161q144 161 144 423t-141 420q-142 157 -368 157t-370 -160q-144 -162 -145 -424zM873 1370q261 0 425 -179t164 -463t-171 -472t-432 -188t-425 179t-164 464t170 472q171 187 433 187zM227 707q0 -295 175 -485t455 -189
q280 -1 463 201t183 497t-174 484q-175 189 -455 189t-464 -200q-184 -202 -183 -497zM814 -37q-316 0 -514 211t-198 508q0 336 209 564t525 228t514 -210q197 -211 196 -508q0 -336 -208 -564t-524 -229z" />
    <glyph glyph-name="Odieresis" unicode="&#xd6;" 
d="M674 1720q18 0 30 14t13 33q0 19 -11 31q-10 12 -30 12t-32 -13t-13 -31q1 -18 13 -32t30 -14zM1040 1720q18 0 30 14t13 33q0 19 -11 31q-10 12 -30 12t-32 -13t-12 -31t12 -32t30 -14zM641 1890q51 0 84 -36t33 -85q0 -51 -34 -89t-86 -38t-84 36t-32 86t34 88t85 38z
M1008 1890q52 0 84 -36t32 -85q0 -50 -33 -89q-34 -38 -86 -38t-84 36t-32 86t34 88t85 38zM313 716q-1 -262 141 -420t368 -157q226 0 371 161q144 161 144 423t-141 420q-142 157 -368 157t-370 -160q-144 -162 -145 -424zM873 1370q261 0 425 -179t164 -463t-171 -472
t-432 -188t-425 179t-164 464t170 472q171 187 433 187zM227 707q0 -295 175 -485t455 -189q280 -1 463 201t183 497t-174 484q-175 189 -455 189t-464 -200q-184 -202 -183 -497zM814 -37q-316 0 -514 211t-198 508q0 336 209 564t525 228t514 -210q197 -211 196 -508
q0 -336 -208 -564t-524 -229z" />
    <glyph glyph-name="Oslash" unicode="&#xd8;" 
d="M1223 1110q-756 -827 -758 -827q139 -143 361 -143t367 160q145 162 145 406t-115 404zM436 317l758 828q-132 155 -362 155t-374 -160t-144 -413q0 -252 122 -410zM873 1370q261 0 425 -179t164 -463t-171 -472t-432 -188t-425 179t-164 464t170 472q171 187 433 187z
M227 707q0 -295 175 -485t455 -189q280 -1 463 201t183 497t-174 484q-175 189 -455 189t-464 -200q-184 -202 -183 -497zM1546 756q0 -336 -209 -564t-532 -229q-272 0 -469 176l-172 -186l-33 31l172 188q-201 210 -201 528t209 546t535 229q283 0 479 -187l162 174
l29 -32q-158 -173 -160 -173q190 -207 190 -501z" />
    <glyph glyph-name="Ugrave" unicode="&#xd9;" horiz-adv-x="1529" 
d="M563 1868l-20 -33q49 -29 291 -176l16 22zM842 1571q-205 115 -445 227q66 82 109 166q186 -145 407 -289zM307 944v-440q0 -225 133 -348t362 -123q230 0 366 137t137 381v813l-45 -2q4 -82 4 -418v-409q0 -225 -127 -347t-336 -120q-209 0 -331 112t-122 330v854
l-47 -2q6 -123 6 -418zM1346 1147v-567q0 -293 -162 -455t-425 -162q-263 1 -419 145t-156 384v454q0 356 -14 494q143 0 227 10q-8 -80 -8 -303v-623q0 -385 371 -385q182 -1 282 97t101 270v440q0 362 -17 494q143 0 230 10q-10 -74 -10 -303z" />
    <glyph glyph-name="Uacute" unicode="&#xda;" horiz-adv-x="1529" 
d="M1026 1833q-4 4 -20 33q-268 -164 -301 -185l16 -24q172 102 305 176zM1094 1812q-227 -111 -441 -235l-73 109q219 147 405 292q43 -84 109 -166zM307 944v-440q0 -225 133 -348t362 -123q230 0 366 137t137 381v813l-45 -2q4 -82 4 -418v-409q0 -225 -127 -347
t-336 -120q-209 0 -331 112t-122 330v854l-47 -2q6 -123 6 -418zM1346 1147v-567q0 -293 -162 -455t-425 -162q-263 1 -419 145t-156 384v454q0 356 -14 494q143 0 227 10q-8 -80 -8 -303v-623q0 -385 371 -385q182 -1 282 97t101 270v440q0 362 -17 494q143 0 230 10
q-10 -74 -10 -303z" />
    <glyph glyph-name="Ucircumflex" unicode="&#xdb;" horiz-adv-x="1529" 
d="M1012 1671l24 21l-241 233l-238 -233l25 -21l215 211zM1102 1686l-125 -103l-213 217l-213 -217l-127 103l305 290l66 -4zM307 944v-440q0 -225 133 -348t362 -123q230 0 366 137t137 381v813l-45 -2q4 -82 4 -418v-409q0 -225 -127 -347t-336 -120q-209 0 -331 112
t-122 330v854l-47 -2q6 -123 6 -418zM1346 1147v-567q0 -293 -162 -455t-425 -162q-263 1 -419 145t-156 384v454q0 356 -14 494q143 0 227 10q-8 -80 -8 -303v-623q0 -385 371 -385q182 -1 282 97t101 270v440q0 362 -17 494q143 0 230 10q-10 -74 -10 -303z" />
    <glyph glyph-name="Udieresis" unicode="&#xdc;" horiz-adv-x="1529" 
d="M614 1720q18 0 30 14t13 33q0 19 -11 31q-10 12 -30 12t-32 -13t-12 -31t12 -32t30 -14zM981 1720q19 0 31 14t12 33t-11 31t-31 12t-32 -13t-12 -31t12 -32t31 -14zM582 1890q52 0 84 -36t32 -85q0 -50 -33 -89q-34 -38 -86 -38t-84 36t-32 86t34 88t85 38zM948 1890
q51 0 84 -36t33 -85q0 -51 -34 -89t-86 -38t-84 36t-32 86t34 88t85 38zM307 944v-440q0 -225 133 -348t362 -123q230 0 366 137t137 381v813l-45 -2q4 -82 4 -418v-409q0 -225 -127 -347t-336 -120q-209 0 -331 112t-122 330v854l-47 -2q6 -123 6 -418zM1346 1147v-567
q0 -293 -162 -455t-425 -162q-263 1 -419 145t-156 384v454q0 356 -14 494q143 0 227 10q-8 -80 -8 -303v-623q0 -385 371 -385q182 -1 282 97t101 270v440q0 362 -17 494q143 0 230 10q-10 -74 -10 -303z" />
    <glyph glyph-name="Yacute" unicode="&#xdd;" horiz-adv-x="1259" 
d="M944 1833q-4 4 -20 33q-268 -164 -301 -185l16 -24q172 102 305 176zM1012 1812q-227 -111 -441 -235l-73 109q219 147 405 292q43 -84 109 -166zM653 412q0 -127 -4 -332h45v555l156 239q143 217 317 486h-47q-66 -102 -286 -447l-158 -241l-215 336q-37 59 -232 364
l-43 -4q88 -135 240 -377l227 -358v-221zM733 295q0 -223 10 -295h-229q16 158 16 494v129l-215 335q-160 256 -313 484l225 16l410 -651l119 184q117 184 280 453h236l-539 -811v-338z" />
    <glyph glyph-name="Thorn" unicode="&#xde;" horiz-adv-x="1155" 
d="M369 80v258q115 -16 192 -16q254 0 385 110t131 287q0 176 -116 276q-117 100 -334 101q-25 0 -258 -6v274l-41 -420v-270q-2 -510 -6 -594h47zM522 422q182 0 285 70q102 70 102 208q0 285 -321 285q-72 0 -178 -4v-553q59 -6 112 -6zM1034 714q0 -165 -121 -262
t-352 -98q-74 0 -192 19v413l-2 267l260 6q199 0 303 -90t104 -255zM205 946q0 356 -15 494q143 0 228 10l-8 -285q139 4 178 4q252 1 392 -119t140 -296q0 -224 -148 -362t-452 -138q-33 0 -110 4q2 -201 8 -258h-228q14 137 15 494v452z" />
    <glyph glyph-name="germandbls" unicode="&#xdf;" horiz-adv-x="2121" 
d="M544 37q168 0 276 97t108 251q0 102 -64 182t-154 132q-90 53 -182 103q-217 120 -219 267q0 125 88 210q87 85 225 85t257 -68l14 35q-119 70 -271 70t-253 -99q-100 -99 -101 -237q0 -90 64 -163t155 -124t183 -102t155 -126t64 -169q0 -139 -97 -223t-255 -84t-330 96
l-4 -41q173 -92 341 -92zM1606 37q168 0 275 97q108 97 108 251q1 102 -63 182t-156 132q-92 53 -182 103q-216 120 -218 267q0 125 88 210t226 85t255 -68l15 35q-120 70 -272 70t-252 -99t-101 -237q-1 -90 63 -163t156 -124l184 -102t154 -126q63 -75 64 -169
q0 -139 -98 -223t-254 -84q-158 0 -330 96l-4 -41q174 -92 342 -92zM502 147q114 1 189 59t75 169q0 68 -46 124t-115 95t-149 86t-150 93q-69 46 -115 119t-46 161q0 166 125 294t326 128t338 -109l-68 -180q-51 45 -128 75t-148 29q-113 0 -176 -56t-64 -153
q0 -59 46 -110t115 -88q182 -97 297 -181q69 -49 115 -130t46 -179q0 -184 -130 -307t-347 -123q-96 0 -214 37t-190 84l12 217q66 -59 178 -107q110 -48 224 -47zM1564 147q114 1 188 59q75 58 75 169q0 68 -46 124t-115 95q-70 39 -150 86t-149 93t-115 119t-46 161
q0 166 125 294t326 128t338 -109l-68 -180q-51 45 -128 75t-148 29q-113 0 -176 -56t-64 -153q0 -59 46 -110t115 -88q182 -97 297 -181q69 -49 115 -130t46 -179q0 -184 -130 -307t-348 -123q-96 0 -214 37t-189 84l12 217q65 -59 177 -107t226 -47z" />
    <glyph glyph-name="agrave" unicode="&#xe0;" horiz-adv-x="1415" 
d="M723 1681q-83 49 -287 187q-13 -26 -20 -33q49 -29 291 -176zM715 1571q-205 115 -445 227q66 82 109 166q186 -145 407 -289zM922 575l-228 510l-225 -510h453zM733 1262l346 -754h-680l166 366q158 357 168 388zM1096 475l86 -192q43 -107 98 -211l43 4q-23 47 -66 139
t-53 113l-471 1022q-51 -133 -180 -420l-203 -441q-27 -57 -184 -409h45q137 322 164 375l10 20h711zM393 408l-168 -408h-225l487 1049q121 260 179 411l53 15l491 -1055q98 -217 203 -420l-225 -16l-191 424h-604z" />
    <glyph glyph-name="aacute" unicode="&#xe1;" horiz-adv-x="1415" 
d="M1042 1833q-4 4 -20 33q-268 -164 -301 -185l16 -24q172 102 305 176zM1110 1812q-227 -111 -440 -235l-74 109q219 147 405 292q43 -84 109 -166zM922 575l-228 510l-225 -510h453zM733 1262l346 -754h-680l166 366q158 357 168 388zM1096 475l86 -192q43 -107 98 -211
l43 4q-23 47 -66 139t-53 113l-471 1022q-51 -133 -180 -420l-203 -441q-27 -57 -184 -409h45q137 322 164 375l10 20h711zM393 408l-168 -408h-225l487 1049q121 260 179 411l53 15l491 -1055q98 -217 203 -420l-225 -16l-191 424h-604z" />
    <glyph glyph-name="acircumflex" unicode="&#xe2;" horiz-adv-x="1415" 
d="M954 1671l25 21l-242 233l-237 -233l24 -21l215 211zM1044 1686l-124 -103l-213 217l-213 -217l-127 103l305 290l65 -4zM922 575l-228 510l-225 -510h453zM733 1262l346 -754h-680l166 366q158 357 168 388zM1096 475l86 -192q43 -107 98 -211l43 4q-23 47 -66 139
t-53 113l-471 1022q-51 -133 -180 -420l-203 -441q-27 -57 -184 -409h45q137 322 164 375l10 20h711zM393 408l-168 -408h-225l487 1049q121 260 179 411l53 15l491 -1055q98 -217 203 -420l-225 -16l-191 424h-604z" />
    <glyph glyph-name="atilde" unicode="&#xe3;" horiz-adv-x="1415" 
d="M908 1700q-64 0 -148 53t-158 53t-158 -88l21 -20q74 78 138 78q65 0 149 -54t158 -53q74 0 167 88l-22 21q-83 -78 -147 -78zM862 1606q-80 0 -165 53t-124 53q-78 0 -163 -113l-99 93q129 178 260 178q78 0 162 -53t121 -54q80 0 174 115l105 -98q-133 -174 -271 -174z
M922 575l-228 510l-225 -510h453zM733 1262l346 -754h-680l166 366q158 357 168 388zM1096 475l86 -192q43 -107 98 -211l43 4q-23 47 -66 139t-53 113l-471 1022q-51 -133 -180 -420l-203 -441q-27 -57 -184 -409h45q137 322 164 375l10 20h711zM393 408l-168 -408h-225
l487 1049q121 260 179 411l53 15l491 -1055q98 -217 203 -420l-225 -16l-191 424h-604z" />
    <glyph glyph-name="adieresis" unicode="&#xe4;" horiz-adv-x="1415" 
d="M557 1720q19 0 31 14t12 33t-11 31t-31 12t-32 -13t-12 -31t12 -32t31 -14zM924 1720q18 0 30 14t13 33t-11 31t-31 12t-31 -13t-13 -31q1 -18 13 -32t30 -14zM524 1890q51 0 84 -36t33 -85q0 -51 -34 -89t-86 -38t-84 36q-31 36 -31 86t33 88q34 38 85 38zM891 1890
q51 0 84 -36t33 -85q0 -51 -34 -89t-86 -38t-84 36t-32 86t34 88t85 38zM922 575l-228 510l-225 -510h453zM733 1262l346 -754h-680l166 366q158 357 168 388zM1096 475l86 -192q43 -107 98 -211l43 4q-23 47 -66 139t-53 113l-471 1022q-51 -133 -180 -420l-203 -441
q-27 -57 -184 -409h45q137 322 164 375l10 20h711zM393 408l-168 -408h-225l487 1049q121 260 179 411l53 15l491 -1055q98 -217 203 -420l-225 -16l-191 424h-604z" />
    <glyph glyph-name="aring" unicode="&#xe5;" horiz-adv-x="1415" 
d="M922 575l-228 510l-225 -510h453zM733 1262l346 -754h-680l166 366q158 357 168 388zM801 1615q-1 -38 -21 -63q-20 -24 -55 -24t-57 26t-23 61q0 35 23 61q22 26 58 26t56 -24t19 -63zM1096 475l86 -192q43 -107 98 -211l43 4q-23 47 -66 139t-53 113l-471 1022
q-51 -133 -180 -420l-203 -441q-27 -57 -184 -409h45q137 322 164 375l10 20h711zM836 1617q0 52 -30 85t-80 33t-83 -36t-33 -85t33 -84t82 -35t80 35t31 87zM545 1618q0 62 48 111t118 49q71 0 113 -47t42 -111t-38 -110q-38 -48 -99 -56l481 -1034q98 -217 203 -420
l-225 -16l-191 424h-604l-168 -408h-225l487 1049q122 255 177 407q-53 14 -86 57t-33 105z" />
    <glyph glyph-name="ae" unicode="&#xe6;" horiz-adv-x="1828" 
d="M909 573v371q0 96 -2 154l-362 -525h364zM1030 506h-571q63 96 201 286t366 533q4 -176 4 -291v-528zM1071 774v299q0 143 -4 270q168 -4 272 -4h314q0 12 4 37q-99 -2 -321 -2t-318 4q-137 -211 -316 -460t-376 -532q-197 -284 -211 -306h49q20 29 270 393h596v-65
q0 -246 -8 -345q399 8 674 3l2 36h-352q-111 0 -279 -4q4 127 4 271v372h492l2 33h-494zM1327 1440q201 0 379 10q-14 -104 -14 -182q-246 4 -382 4t-194 -2q-4 -37 -4 -121v-307h498q-6 -78 -6 -170h-492v-379q0 -86 4 -123l184 -2q238 0 447 6q-10 -82 -14 -182
q-152 10 -419 10t-421 -10q16 154 16 414h-481q-28 -42 -268 -406h-234l742 1047q233 327 280 403q178 -10 379 -10z" />
    <glyph glyph-name="ccedilla" unicode="&#xe7;" horiz-adv-x="1392" 
d="M270 713q0 279 176 464t445 185q186 0 342 -94l12 37q-166 94 -352 94q-287 0 -476 -201t-189 -489q0 -287 170 -473q171 -186 436 -199q-66 -160 -91 -217l27 -10q88 202 98 227q213 0 394 125l4 43q-174 -127 -383 -133q63 154 67 164l-35 10l-67 -174q-252 8 -415 185
t-163 456zM102 682q0 334 215 563t541 230q100 0 222 -36t204 -93l-57 -193q-150 137 -382 137t-382 -158t-150 -407t129 -403t334 -172q45 145 58 190q51 -16 182 -41q-21 -55 -58 -139q176 35 345 194l-15 -227q-193 -147 -414 -162q-27 -63 -67 -158l-43 -94l-121 41
q31 86 74 215q-270 37 -443 241q-172 204 -172 472z" />
    <glyph glyph-name="egrave" unicode="&#xe8;" horiz-adv-x="1126" 
d="M457 1868l-21 -33q49 -29 291 -176l16 22q-75 45 -286 187zM735 1571q-205 115 -444 227q66 82 108 166q186 -145 408 -289zM328 410q0 -248 -9 -347q260 11 674 3q0 25 2 36h-352q-195 0 -278 -4q4 127 4 273v370h491l2 35h-493v297q0 147 -4 270q84 -2 272 -2h313l2 35
l-315 -2q-170 0 -318 6q8 -100 9 -346v-624zM609 2q-267 0 -419 -10q14 137 15 493v473q0 356 -15 494q201 -10 405 -10t409 10q-12 -76 -17 -182q-242 4 -378 4t-195 -2q-4 -37 -4 -121v-307h497q-6 -78 -6 -170h-491v-379q0 -86 4 -123l182 -2q240 0 448 6
q-10 -82 -14 -184q-154 10 -421 10z" />
    <glyph glyph-name="eacute" unicode="&#xe9;" horiz-adv-x="1126" 
d="M877 1833q-4 4 -21 33q-268 -164 -301 -185l16 -24q173 102 306 176zM944 1812q-227 -111 -440 -235l-74 109q219 147 406 292q42 -84 108 -166zM328 410q0 -248 -9 -347q260 11 674 3q0 25 2 36h-352q-195 0 -278 -4q4 127 4 273v370h491l2 35h-493v297q0 147 -4 270
q84 -2 272 -2h313l2 35l-315 -2q-170 0 -318 6q8 -100 9 -346v-624zM609 2q-267 0 -419 -10q14 137 15 493v473q0 356 -15 494q201 -10 405 -10t409 10q-12 -76 -17 -182q-242 4 -378 4t-195 -2q-4 -37 -4 -121v-307h497q-6 -78 -6 -170h-491v-379q0 -86 4 -123l182 -2
q240 0 448 6q-10 -82 -14 -184q-154 10 -421 10z" />
    <glyph glyph-name="ecircumflex" unicode="&#xea;" horiz-adv-x="1126" 
d="M858 1671l25 21l-242 233l-238 -233l25 -21l215 211zM948 1686l-125 -103l-213 217l-213 -217l-127 103l305 290l66 -4zM328 410q0 -248 -9 -347q260 11 674 3q0 25 2 36h-352q-195 0 -278 -4q4 127 4 273v370h491l2 35h-493v297q0 147 -4 270q84 -2 272 -2h313l2 35
l-315 -2q-170 0 -318 6q8 -100 9 -346v-624zM609 2q-267 0 -419 -10q14 137 15 493v473q0 356 -15 494q201 -10 405 -10t409 10q-12 -76 -17 -182q-242 4 -378 4t-195 -2q-4 -37 -4 -121v-307h497q-6 -78 -6 -170h-491v-379q0 -86 4 -123l182 -2q240 0 448 6
q-10 -82 -14 -184q-154 10 -421 10z" />
    <glyph glyph-name="edieresis" unicode="&#xeb;" horiz-adv-x="1126" 
d="M459 1720q18 0 30 14t13 33q0 19 -12 31t-30 12q-20 0 -32 -13t-12 -31t12 -32t31 -14zM825 1720q19 0 31 14t12 33t-11 31t-31 12t-31 -13q-13 -13 -13 -31t12 -32t31 -14zM426 1890q51 0 84 -36t33 -85q0 -51 -34 -89t-86 -38t-84 36t-32 86t34 88t85 38zM793 1890
q51 0 83 -36t33 -85q0 -50 -33 -89q-34 -38 -86 -38t-84 36t-32 86t34 88t85 38zM328 410q0 -248 -9 -347q260 11 674 3q0 25 2 36h-352q-195 0 -278 -4q4 127 4 273v370h491l2 35h-493v297q0 147 -4 270q84 -2 272 -2h313l2 35l-315 -2q-170 0 -318 6q8 -100 9 -346v-624z
M609 2q-267 0 -419 -10q14 137 15 493v473q0 356 -15 494q201 -10 405 -10t409 10q-12 -76 -17 -182q-242 4 -378 4t-195 -2q-4 -37 -4 -121v-307h497q-6 -78 -6 -170h-491v-379q0 -86 4 -123l182 -2q240 0 448 6q-10 -82 -14 -184q-154 10 -421 10z" />
    <glyph glyph-name="igrave" unicode="&#xec;" horiz-adv-x="675" 
d="M92 1835q49 -29 291 -176l16 22l-286 187q-9 -9 -21 -33zM391 1571q-205 115 -444 227q66 82 108 166q186 -145 408 -289zM358 1024v-612q0 -229 -2 -332h43v1280q-14 -2 -43 -2q2 -102 2 -334zM236 946q0 356 -15 494q143 0 228 10q-8 -80 -9 -303v-852q1 -219 9 -295
h-228q14 137 15 494v452z" />
    <glyph glyph-name="iacute" unicode="&#xed;" horiz-adv-x="675" 
d="M670 1833q-4 4 -21 33q-268 -164 -301 -185l17 -24q172 102 305 176zM737 1812q-227 -111 -440 -235l-74 109q219 147 406 292q42 -84 108 -166zM358 1024v-612q0 -229 -2 -332h43v1280q-14 -2 -43 -2q2 -102 2 -334zM236 946q0 356 -15 494q143 0 228 10q-8 -80 -9 -303
v-852q1 -219 9 -295h-228q14 137 15 494v452z" />
    <glyph glyph-name="icircumflex" unicode="&#xee;" horiz-adv-x="675" 
d="M586 1671l24 21l-241 233l-238 -233l25 -21l215 211zM676 1686l-125 -103l-213 217l-213 -217l-127 103l305 290l66 -4zM358 1024v-612q0 -229 -2 -332h43v1280q-14 -2 -43 -2q2 -102 2 -334zM236 946q0 356 -15 494q143 0 228 10q-8 -80 -9 -303v-852q1 -219 9 -295
h-228q14 137 15 494v452z" />
    <glyph glyph-name="idieresis" unicode="&#xef;" horiz-adv-x="675" 
d="M188 1720q18 0 30 14t13 33q0 19 -11 31q-10 12 -30 12t-32 -13t-12 -31t12 -32t30 -14zM555 1720q19 0 31 14t12 33t-11 31t-31 12t-32 -13t-12 -31t12 -32t31 -14zM156 1890q52 0 84 -36t32 -85q0 -50 -33 -89q-34 -38 -86 -38t-84 36t-32 86t34 88t85 38zM522 1890
q51 0 84 -36t33 -85q0 -51 -34 -89t-86 -38t-84 36t-32 86t34 88t85 38zM358 1024v-612q0 -229 -2 -332h43v1280q-14 -2 -43 -2q2 -102 2 -334zM236 946q0 356 -15 494q143 0 228 10q-8 -80 -9 -303v-852q1 -219 9 -295h-228q14 137 15 494v452z" />
    <glyph glyph-name="eth" unicode="&#xf0;" horiz-adv-x="1472" 
d="M410 805q147 0 266 6q-10 -68 -10 -174q-160 4 -242 4h-14v-446q123 -12 245 -13q236 0 371 142t135 364q0 268 -134 423t-359 155q-152 0 -258 -4v-457zM1286 715q0 -271 -163 -439t-437 -167q-213 0 -324 6q6 102 7 258v334h256l2 34h-138q-16 -2 -120 -2v326
q0 164 -7 266l347 6q261 0 419 -175t158 -447zM328 739h-4l-189 2l-2 -34h195v-295q0 -231 -9 -336q49 -4 351 -4t480 179q177 179 177 467t-171 472t-447 184l-390 -8q8 -104 9 -342v-285zM629 0h-439q14 137 15 494v147q-82 0 -197 -4q6 59 6 174q139 -4 191 -6v141
q0 356 -15 494l478 10q311 0 507 -204t195 -503q0 -335 -205 -539t-536 -204z" />
    <glyph glyph-name="ntilde" unicode="&#xf1;" horiz-adv-x="1591" 
d="M996 1700q-64 0 -148 53t-158 53t-158 -88l21 -20q74 78 138 78q65 0 149 -54t158 -53q74 0 167 88l-22 21q-83 -78 -147 -78zM950 1606q-80 0 -165 53t-123 53q-78 0 -164 -113l-99 93q129 178 260 178q78 0 162 -53t121 -54q80 0 174 115l105 -98q-133 -174 -271 -174z
M354 80q4 78 4 377l4 399q0 338 -2 377l1000 -1153q-2 18 -2 217l8 688q2 100 2 379l-43 -2q8 -172 4 -418l-6 -600q0 -8 5 -90t-3 -82l-1003 1163q4 -39 4 -409l-4 -430q-7 -332 -11 -416h43zM1212 946q0 362 -16 494q135 0 221 10q-10 -76 -16 -303l-15 -864
q0 -264 5 -303l-54 -15l-942 1063v-733q0 -219 8 -295h-223q18 156 25 494l8 493q6 342 -8 473l55 15l952 -1121v592z" />
    <glyph glyph-name="ograve" unicode="&#xf2;" 
d="M885 1681q-83 49 -287 187q-7 -7 -20 -33q49 -29 290 -176zM877 1571q-205 115 -445 227q66 82 109 166q186 -145 407 -289zM313 716q-1 -262 141 -420t368 -157q226 0 371 161q144 161 144 423t-141 420q-142 157 -368 157t-370 -160q-144 -162 -145 -424zM873 1370
q261 0 425 -179t164 -463t-171 -472t-432 -188t-425 179t-164 464t170 472q171 187 433 187zM227 707q0 -295 175 -485t455 -189q280 -1 463 201t183 497t-174 484q-175 189 -455 189t-464 -200q-184 -202 -183 -497zM814 -37q-316 0 -514 211t-198 508q0 336 209 564
t525 228t514 -210q197 -211 196 -508q0 -336 -208 -564t-524 -229z" />
    <glyph glyph-name="oacute" unicode="&#xf3;" 
d="M1155 1833q-4 4 -20 33q-268 -164 -301 -185l16 -24q172 102 305 176zM1223 1812q-227 -111 -441 -235l-73 109q219 147 405 292q43 -84 109 -166zM313 716q-1 -262 141 -420t368 -157q226 0 371 161q144 161 144 423t-141 420q-142 157 -368 157t-370 -160
q-144 -162 -145 -424zM873 1370q261 0 425 -179t164 -463t-171 -472t-432 -188t-425 179t-164 464t170 472q171 187 433 187zM227 707q0 -295 175 -485t455 -189q280 -1 463 201t183 497t-174 484q-175 189 -455 189t-464 -200q-184 -202 -183 -497zM814 -37
q-316 0 -514 211t-198 508q0 336 209 564t525 228t514 -210q197 -211 196 -508q0 -336 -208 -564t-524 -229z" />
    <glyph glyph-name="ocircumflex" unicode="&#xf4;" 
d="M1096 1671l24 21l-241 233l-238 -233l25 -21l215 211zM1186 1686l-125 -103l-213 217l-213 -217l-127 103l305 290l66 -4zM313 716q-1 -262 141 -420t368 -157q226 0 371 161q144 161 144 423t-141 420q-142 157 -368 157t-370 -160q-144 -162 -145 -424zM873 1370
q261 0 425 -179t164 -463t-171 -472t-432 -188t-425 179t-164 464t170 472q171 187 433 187zM227 707q0 -295 175 -485t455 -189q280 -1 463 201t183 497t-174 484q-175 189 -455 189t-464 -200q-184 -202 -183 -497zM814 -37q-316 0 -514 211t-198 508q0 336 209 564
t525 228t514 -210q197 -211 196 -508q0 -336 -208 -564t-524 -229z" />
    <glyph glyph-name="otilde" unicode="&#xf5;" 
d="M1025 1700q-64 0 -148 53t-158 53t-158 -88l21 -20q74 78 138 78t148 -54t158 -53q74 0 168 88l-23 21q-82 -78 -146 -78zM979 1606q-80 0 -165 53t-124 53q-78 0 -164 -113l-98 93q129 178 260 178q78 0 162 -53t121 -54q80 0 174 115l104 -98q-133 -174 -270 -174z
M313 716q-1 -262 141 -420t368 -157q226 0 371 161q144 161 144 423t-141 420q-142 157 -368 157t-370 -160q-144 -162 -145 -424zM873 1370q261 0 425 -179t164 -463t-171 -472t-432 -188t-425 179t-164 464t170 472q171 187 433 187zM227 707q0 -295 175 -485t455 -189
q280 -1 463 201t183 497t-174 484q-175 189 -455 189t-464 -200q-184 -202 -183 -497zM814 -37q-316 0 -514 211t-198 508q0 336 209 564t525 228t514 -210q197 -211 196 -508q0 -336 -208 -564t-524 -229z" />
    <glyph glyph-name="odieresis" unicode="&#xf6;" 
d="M674 1720q18 0 30 14t13 33q0 19 -11 31q-10 12 -30 12t-32 -13t-13 -31q1 -18 13 -32t30 -14zM1040 1720q18 0 30 14t13 33q0 19 -11 31q-10 12 -30 12t-32 -13t-12 -31t12 -32t30 -14zM641 1890q51 0 84 -36t33 -85q0 -51 -34 -89t-86 -38t-84 36t-32 86t34 88t85 38z
M1008 1890q52 0 84 -36t32 -85q0 -50 -33 -89q-34 -38 -86 -38t-84 36t-32 86t34 88t85 38zM313 716q-1 -262 141 -420t368 -157q226 0 371 161q144 161 144 423t-141 420q-142 157 -368 157t-370 -160q-144 -162 -145 -424zM873 1370q261 0 425 -179t164 -463t-171 -472
t-432 -188t-425 179t-164 464t170 472q171 187 433 187zM227 707q0 -295 175 -485t455 -189q280 -1 463 201t183 497t-174 484q-175 189 -455 189t-464 -200q-184 -202 -183 -497zM814 -37q-316 0 -514 211t-198 508q0 336 209 564t525 228t514 -210q197 -211 196 -508
q0 -336 -208 -564t-524 -229z" />
    <glyph glyph-name="oslash" unicode="&#xf8;" 
d="M1223 1110q-756 -827 -758 -827q139 -143 361 -143t367 160q145 162 145 406t-115 404zM436 317l758 828q-132 155 -362 155t-374 -160t-144 -413q0 -252 122 -410zM873 1370q261 0 425 -179t164 -463t-171 -472t-432 -188t-425 179t-164 464t170 472q171 187 433 187z
M227 707q0 -295 175 -485t455 -189q280 -1 463 201t183 497t-174 484q-175 189 -455 189t-464 -200q-184 -202 -183 -497zM1546 756q0 -336 -209 -564t-532 -229q-272 0 -469 176l-172 -186l-33 31l172 188q-201 210 -201 528t209 546t535 229q283 0 479 -187l162 174
l29 -32q-158 -173 -160 -173q190 -207 190 -501z" />
    <glyph glyph-name="ugrave" unicode="&#xf9;" horiz-adv-x="1529" 
d="M563 1868l-20 -33q49 -29 291 -176l16 22zM842 1571q-205 115 -445 227q66 82 109 166q186 -145 407 -289zM307 944v-440q0 -225 133 -348t362 -123q230 0 366 137t137 381v813l-45 -2q4 -82 4 -418v-409q0 -225 -127 -347t-336 -120q-209 0 -331 112t-122 330v854
l-47 -2q6 -123 6 -418zM1346 1147v-567q0 -293 -162 -455t-425 -162q-263 1 -419 145t-156 384v454q0 356 -14 494q143 0 227 10q-8 -80 -8 -303v-623q0 -385 371 -385q182 -1 282 97t101 270v440q0 362 -17 494q143 0 230 10q-10 -74 -10 -303z" />
    <glyph glyph-name="uacute" unicode="&#xfa;" horiz-adv-x="1529" 
d="M1026 1833q-4 4 -20 33q-268 -164 -301 -185l16 -24q172 102 305 176zM1094 1812q-227 -111 -441 -235l-73 109q219 147 405 292q43 -84 109 -166zM307 944v-440q0 -225 133 -348t362 -123q230 0 366 137t137 381v813l-45 -2q4 -82 4 -418v-409q0 -225 -127 -347
t-336 -120q-209 0 -331 112t-122 330v854l-47 -2q6 -123 6 -418zM1346 1147v-567q0 -293 -162 -455t-425 -162q-263 1 -419 145t-156 384v454q0 356 -14 494q143 0 227 10q-8 -80 -8 -303v-623q0 -385 371 -385q182 -1 282 97t101 270v440q0 362 -17 494q143 0 230 10
q-10 -74 -10 -303z" />
    <glyph glyph-name="ucircumflex" unicode="&#xfb;" horiz-adv-x="1529" 
d="M1012 1671l24 21l-241 233l-238 -233l25 -21l215 211zM1102 1686l-125 -103l-213 217l-213 -217l-127 103l305 290l66 -4zM307 944v-440q0 -225 133 -348t362 -123q230 0 366 137t137 381v813l-45 -2q4 -82 4 -418v-409q0 -225 -127 -347t-336 -120q-209 0 -331 112
t-122 330v854l-47 -2q6 -123 6 -418zM1346 1147v-567q0 -293 -162 -455t-425 -162q-263 1 -419 145t-156 384v454q0 356 -14 494q143 0 227 10q-8 -80 -8 -303v-623q0 -385 371 -385q182 -1 282 97t101 270v440q0 362 -17 494q143 0 230 10q-10 -74 -10 -303z" />
    <glyph glyph-name="udieresis" unicode="&#xfc;" horiz-adv-x="1529" 
d="M614 1720q18 0 30 14t13 33q0 19 -11 31q-10 12 -30 12t-32 -13t-12 -31t12 -32t30 -14zM981 1720q19 0 31 14t12 33t-11 31t-31 12t-32 -13t-12 -31t12 -32t31 -14zM582 1890q52 0 84 -36t32 -85q0 -50 -33 -89q-34 -38 -86 -38t-84 36t-32 86t34 88t85 38zM948 1890
q51 0 84 -36t33 -85q0 -51 -34 -89t-86 -38t-84 36t-32 86t34 88t85 38zM307 944v-440q0 -225 133 -348t362 -123q230 0 366 137t137 381v813l-45 -2q4 -82 4 -418v-409q0 -225 -127 -347t-336 -120q-209 0 -331 112t-122 330v854l-47 -2q6 -123 6 -418zM1346 1147v-567
q0 -293 -162 -455t-425 -162q-263 1 -419 145t-156 384v454q0 356 -14 494q143 0 227 10q-8 -80 -8 -303v-623q0 -385 371 -385q182 -1 282 97t101 270v440q0 362 -17 494q143 0 230 10q-10 -74 -10 -303z" />
    <glyph glyph-name="yacute" unicode="&#xfd;" horiz-adv-x="1259" 
d="M944 1833q-4 4 -20 33q-268 -164 -301 -185l16 -24q172 102 305 176zM1012 1812q-227 -111 -441 -235l-73 109q219 147 405 292q43 -84 109 -166zM653 412q0 -127 -4 -332h45v555l156 239q143 217 317 486h-47q-66 -102 -286 -447l-158 -241l-215 336q-37 59 -232 364
l-43 -4q88 -135 240 -377l227 -358v-221zM733 295q0 -223 10 -295h-229q16 158 16 494v129l-215 335q-160 256 -313 484l225 16l410 -651l119 184q117 184 280 453h236l-539 -811v-338z" />
    <glyph glyph-name="thorn" unicode="&#xfe;" horiz-adv-x="1155" 
d="M369 80v258q115 -16 192 -16q254 0 385 110t131 287q0 176 -116 276q-117 100 -334 101q-25 0 -258 -6v274l-41 -420v-270q-2 -510 -6 -594h47zM522 422q182 0 285 70q102 70 102 208q0 285 -321 285q-72 0 -178 -4v-553q59 -6 112 -6zM1034 714q0 -165 -121 -262
t-352 -98q-74 0 -192 19v413l-2 267l260 6q199 0 303 -90t104 -255zM205 946q0 356 -15 494q143 0 228 10l-8 -285q139 4 178 4q252 1 392 -119t140 -296q0 -224 -148 -362t-452 -138q-33 0 -110 4q2 -201 8 -258h-228q14 137 15 494v452z" />
    <glyph glyph-name="ydieresis" unicode="&#xff;" horiz-adv-x="1259" 
d="M479 1720q19 0 31 14t12 33t-11 31t-31 12t-31 -13q-13 -13 -13 -31t12 -32t31 -14zM846 1720q18 0 30 14t13 33q0 19 -11 31q-10 12 -30 12t-32 -13t-13 -31q1 -18 13 -32t30 -14zM446 1890q52 0 84 -36t33 -85q0 -51 -34 -89t-86 -38t-84 36q-31 36 -31 86t33 88t85 38
zM813 1890q51 0 84 -36t33 -85q0 -51 -34 -89t-86 -38t-84 36t-32 86t34 88t85 38zM653 412q0 -127 -4 -332h45v555l156 239q143 217 317 486h-47q-66 -102 -286 -447l-158 -241l-215 336q-37 59 -232 364l-43 -4q88 -135 240 -377l227 -358v-221zM733 295q0 -223 10 -295
h-229q16 158 16 494v129l-215 335q-160 256 -313 484l225 16l410 -651l119 184q117 184 280 453h236l-539 -811v-338z" />
    <glyph glyph-name="dotlessi" unicode="&#x131;" horiz-adv-x="675" 
d="M358 1024v-612q0 -229 -2 -332h43v1280q-14 -2 -43 -2q2 -102 2 -334zM236 946q0 356 -15 494q143 0 228 10q-8 -80 -9 -303v-852q1 -219 9 -295h-228q14 137 15 494v452z" />
    <glyph glyph-name="Lslash" unicode="&#x141;" horiz-adv-x="1069" 
d="M369 1065q0 201 -2 293h-43q4 -209 4 -334v-393l-189 -107l17 -30q10 6 172 98v-184q0 -197 -9 -345q255 11 687 3l2 36h-367q-193 0 -276 -4q4 127 4 273v245q77 44 387 224l-15 30q-144 -82 -372 -217v412zM609 2q-267 0 -419 -10q14 131 15 477q-33 -20 -135 -82
q-31 66 -82 154q53 29 217 118v287q0 356 -15 494q143 0 228 10q-8 -80 -8 -303v-371q246 147 325 197q25 -59 78 -156q-236 -133 -317 -180l-86 -49v-293q0 -84 4 -123l182 -2q240 0 448 6q-10 -82 -14 -184q-154 10 -421 10z" />
    <glyph glyph-name="lslash" unicode="&#x142;" horiz-adv-x="1069" 
d="M369 1065q0 201 -2 293h-43q4 -209 4 -334v-393l-189 -107l17 -30q10 6 172 98v-184q0 -197 -9 -345q255 11 687 3l2 36h-367q-193 0 -276 -4q4 127 4 273v245q77 44 387 224l-15 30q-144 -82 -372 -217v412zM609 2q-267 0 -419 -10q14 131 15 477q-33 -20 -135 -82
q-31 66 -82 154q53 29 217 118v287q0 356 -15 494q143 0 228 10q-8 -80 -8 -303v-371q246 147 325 197q25 -59 78 -156q-236 -133 -317 -180l-86 -49v-293q0 -84 4 -123l182 -2q240 0 448 6q-10 -82 -14 -184q-154 10 -421 10z" />
    <glyph glyph-name="OE" unicode="&#x152;" horiz-adv-x="1929" 
d="M313 754q0 -258 150 -418t354 -160q111 0 191 6l2 113v852l-2 102q-102 10 -179 11q-215 0 -365 -144t-151 -362zM1130 1034v-626q0 -219 -4 -306l-268 2q-240 0 -414 178t-174 445q0 266 180 436t433 170l243 2q4 -176 4 -301zM227 723q-1 -281 187 -468t444 -187h590
q240 0 348 -2l2 36h-629q2 63 2 269v370h492l2 33h-494v299q0 135 -4 262l273 4q217 0 313 2q0 10 4 35q-98 -2 -317 -2l-551 -4q-274 0 -468 -183t-194 -464zM104 698q0 328 220 537t534 209l541 -4q203 0 407 10q-14 -100 -16 -182q-242 4 -378 4t-195 -2q-4 -37 -5 -121
v-307h498q-6 -78 -6 -170h-492v-379q0 -86 5 -123l182 -2q239 0 448 6q-10 -82 -14 -182q-152 10 -420 10l-596 -6q-291 0 -502 206t-211 496z" />
    <glyph glyph-name="oe" unicode="&#x153;" horiz-adv-x="1929" 
d="M313 754q0 -258 150 -418t354 -160q111 0 191 6l2 113v852l-2 102q-102 10 -179 11q-215 0 -365 -144t-151 -362zM1130 1034v-626q0 -219 -4 -306l-268 2q-240 0 -414 178t-174 445q0 266 180 436t433 170l243 2q4 -176 4 -301zM227 723q-1 -281 187 -468t444 -187h590
q240 0 348 -2l2 36h-629q2 63 2 269v370h492l2 33h-494v299q0 135 -4 262l273 4q217 0 313 2q0 10 4 35q-98 -2 -317 -2l-551 -4q-274 0 -468 -183t-194 -464zM104 698q0 328 220 537t534 209l541 -4q203 0 407 10q-14 -100 -16 -182q-242 4 -378 4t-195 -2q-4 -37 -5 -121
v-307h498q-6 -78 -6 -170h-492v-379q0 -86 5 -123l182 -2q239 0 448 6q-10 -82 -14 -182q-152 10 -420 10l-596 -6q-291 0 -502 206t-211 496z" />
    <glyph glyph-name="Scaron" unicode="&#x160;" horiz-adv-x="1060" 
d="M360 1868l242 -234l238 234l-25 20l-215 -211l-215 211q-9 -8 -25 -20zM227 1874l125 102l215 -217l211 217l127 -102l-307 -293l-66 4zM544 37q168 0 276 97t108 251q0 102 -64 182t-154 132q-90 53 -182 103q-217 120 -219 267q0 125 88 210q87 85 225 85t257 -68
l14 35q-119 70 -271 70t-253 -99q-100 -99 -101 -237q0 -90 64 -163t155 -124t183 -102t155 -126t64 -169q0 -139 -97 -223t-255 -84t-330 96l-4 -41q173 -92 341 -92zM502 147q114 1 189 59t75 169q0 68 -46 124t-115 95t-149 86t-150 93q-69 46 -115 119t-46 161
q0 166 125 294t326 128t338 -109l-68 -180q-51 45 -128 75t-148 29q-113 0 -176 -56t-64 -153q0 -59 46 -110t115 -88q182 -97 297 -181q69 -49 115 -130t46 -179q0 -184 -130 -307t-347 -123q-96 0 -214 37t-190 84l12 217q66 -59 178 -107q110 -48 224 -47z" />
    <glyph glyph-name="scaron" unicode="&#x161;" horiz-adv-x="1060" 
d="M360 1868l242 -234l238 234l-25 20l-215 -211l-215 211q-9 -8 -25 -20zM227 1874l125 102l215 -217l211 217l127 -102l-307 -293l-66 4zM544 37q168 0 276 97t108 251q0 102 -64 182t-154 132q-90 53 -182 103q-217 120 -219 267q0 125 88 210q87 85 225 85t257 -68
l14 35q-119 70 -271 70t-253 -99q-100 -99 -101 -237q0 -90 64 -163t155 -124t183 -102t155 -126t64 -169q0 -139 -97 -223t-255 -84t-330 96l-4 -41q173 -92 341 -92zM502 147q114 1 189 59t75 169q0 68 -46 124t-115 95t-149 86t-150 93q-69 46 -115 119t-46 161
q0 166 125 294t326 128t338 -109l-68 -180q-51 45 -128 75t-148 29q-113 0 -176 -56t-64 -153q0 -59 46 -110t115 -88q182 -97 297 -181q69 -49 115 -130t46 -179q0 -184 -130 -307t-347 -123q-96 0 -214 37t-190 84l12 217q66 -59 178 -107q110 -48 224 -47z" />
    <glyph glyph-name="Ydieresis" unicode="&#x178;" horiz-adv-x="1259" 
d="M479 1720q19 0 31 14t12 33t-11 31t-31 12t-31 -13q-13 -13 -13 -31t12 -32t31 -14zM846 1720q18 0 30 14t13 33q0 19 -11 31q-10 12 -30 12t-32 -13t-13 -31q1 -18 13 -32t30 -14zM446 1890q52 0 84 -36t33 -85q0 -51 -34 -89t-86 -38t-84 36q-31 36 -31 86t33 88t85 38
zM813 1890q51 0 84 -36t33 -85q0 -51 -34 -89t-86 -38t-84 36t-32 86t34 88t85 38zM653 412q0 -127 -4 -332h45v555l156 239q143 217 317 486h-47q-66 -102 -286 -447l-158 -241l-215 336q-37 59 -232 364l-43 -4q88 -135 240 -377l227 -358v-221zM733 295q0 -223 10 -295
h-229q16 158 16 494v129l-215 335q-160 256 -313 484l225 16l410 -651l119 184q117 184 280 453h236l-539 -811v-338z" />
    <glyph glyph-name="Zcaron" unicode="&#x17d;" horiz-adv-x="1280" 
d="M432 1868l242 -234l237 234l-24 20l-215 -211l-215 211q-9 -8 -25 -20zM299 1874l125 102l215 -217l211 217l127 -102l-307 -293l-66 4zM682 102q-311 0 -412 -2l899 1280q-167 -6 -405 -6t-504 4v-37h438q295 0 400 2l-901 -1280q393 14 946 5l4 34h-465zM646 2
q-390 0 -566 -10l-41 39l883 1241q-86 2 -285 2t-506 -4q8 72 8 182q303 -10 575 -10t488 10l39 -37l-870 -1243l264 -2q356 0 561 6q-12 -76 -16 -184q-144 10 -534 10z" />
    <glyph glyph-name="zcaron" unicode="&#x17e;" horiz-adv-x="1280" 
d="M432 1868l242 -234l237 234l-24 20l-215 -211l-215 211q-9 -8 -25 -20zM299 1874l125 102l215 -217l211 217l127 -102l-307 -293l-66 4zM682 102q-311 0 -412 -2l899 1280q-167 -6 -405 -6t-504 4v-37h438q295 0 400 2l-901 -1280q393 14 946 5l4 34h-465zM646 2
q-390 0 -566 -10l-41 39l883 1241q-86 2 -285 2t-506 -4q8 72 8 182q303 -10 575 -10t488 10l39 -37l-870 -1243l264 -2q356 0 561 6q-12 -76 -16 -184q-144 10 -534 10z" />
    <glyph glyph-name="florin" unicode="&#x192;" horiz-adv-x="860" 
d="M160 10q137 0 212 112t99 390q12 147 18 262h213l3 35q-10 -2 -213 -2q4 45 6 80q25 256 97 358q73 102 216 98l8 39q-166 2 -254 -116t-112 -459h-31l-160 2l-8 -35h197q-6 -123 -19 -262q-23 -258 -85 -361t-185 -104q-39 0 -72 6l-6 -35q33 -8 76 -8zM778 1458
q33 0 82 -4l-35 -194q-61 6 -65 6q-106 0 -154 -74t-69 -305q0 -9 -2 -15q188 4 210 7q-10 -68 -10 -174q-36 4 -211 4q-2 -35 -14 -197q-29 -326 -126 -451t-263 -124q-76 0 -154 24l35 184q57 -25 121 -24q96 0 134 86t58 305q4 51 15 197q-55 0 -125 -2t-82 -2
q31 115 41 174q33 -2 176 -7q2 6 2 15q29 297 134 434t302 137z" />
    <glyph glyph-name="circumflex" unicode="&#x2c6;" horiz-adv-x="749" 
d="M623 1671l24 21l-241 233l-238 -233l25 -21l215 211zM713 1686l-125 -103l-213 217l-213 -217l-127 103l305 290l66 -4z" />
    <glyph glyph-name="caron" unicode="&#x2c7;" horiz-adv-x="749" 
d="M168 1868l242 -234l237 234l-24 20l-215 -211l-215 211q-9 -8 -25 -20zM35 1874l125 102l215 -217l211 217l127 -102l-307 -293l-66 4z" />
    <glyph glyph-name="breve" unicode="&#x2d8;" horiz-adv-x="694" 
d="M141 1841q42 -172 249 -172q104 0 173 70q46 45 60 106l-35 -2q-14 -49 -49 -84q-59 -59 -160 -59q-168 0 -203 145zM354 1761q72 0 109 39t37 107l168 12q0 -141 -89 -226t-227 -85t-228 82q-89 82 -89 208l178 25q0 -86 35 -124q34 -38 106 -38z" />
    <glyph glyph-name="dotaccent" unicode="&#x2d9;" horiz-adv-x="296" 
d="M182 1720q18 0 30 14t13 33q0 19 -11 31q-10 12 -30 12t-32 -13t-12 -31t12 -32t30 -14zM150 1890q52 0 84 -36t32 -85q0 -51 -34 -89t-86 -38t-84 36t-32 86t35 88q34 38 85 38z" />
    <glyph glyph-name="ring" unicode="&#x2da;" horiz-adv-x="485" 
d="M334 1740q0 -38 -20 -63t-56 -25t-58 26t-22 62t23 62t59 25t54 -25q20 -24 20 -62zM369 1742q0 52 -30 85t-80 33t-83 -36t-33 -85t33 -84t82 -35t80 35t31 87zM78 1736q0 66 48 116t118 50t112 -46q42 -48 43 -116q0 -68 -45 -115q-44 -48 -114 -48t-116 46t-46 113z
" />
    <glyph glyph-name="ogonek" unicode="&#x2db;" horiz-adv-x="516" 
d="M172 -260q0 154 195 276l2 37q-231 -141 -232 -317q-1 -78 55 -130t134 -52q43 0 82 12l2 31q-117 -38 -191 31q-47 44 -47 112zM205 -240q-1 -53 29 -83q30 -29 86 -29t139 53l-13 -160q-82 -51 -180 -51t-171 67t-72 169q0 262 397 442l-14 -176q-94 -47 -148 -113
t-53 -119z" />
    <glyph glyph-name="tilde" unicode="&#x2dc;" horiz-adv-x="882" 
d="M642 1700q-64 0 -148 53t-158 53t-158 -88l21 -20q74 78 138 78t148 -54t158 -53q74 0 168 88l-23 21q-82 -78 -146 -78zM596 1606q-80 0 -165 53t-124 53q-78 0 -164 -113l-98 93q129 178 260 178q78 0 162 -53t121 -54q80 0 174 115l104 -98q-133 -174 -270 -174z" />
    <glyph glyph-name="hungarumlaut" unicode="&#x2dd;" horiz-adv-x="747" 
d="M684 1886q-16 12 -29 21q-76 -94 -190 -219l22 -19q129 137 197 217zM352 1905q-24 16 -28 20q-117 -137 -191 -219l21 -18q87 90 198 217zM772 1909q-67 -79 -183 -191q-116 -111 -138 -133l-93 78q39 41 126 163t132 191q72 -57 156 -108zM438 1927q-62 -74 -181 -187
q-118 -114 -140 -136l-92 77q39 43 128 165t132 190q61 -52 153 -109z" />
    <glyph glyph-name="Omega" unicode="&#x3a9;" horiz-adv-x="2113" 
d="M662 1372q-194 0 -340 6q6 -111 6 -344v-622q0 -231 -4 -332h45v639h493l2 35h-495v317l-2 270q84 -2 270 -2h315l2 35q-98 -2 -292 -2zM1718 1372q-194 0 -340 6q6 -111 6 -344v-622q0 -231 -4 -332h45v639h494l2 35h-496v317l-2 270q84 -2 271 -2h315l2 35
q-99 -2 -293 -2zM609 1274q-136 0 -195 -2q-4 -37 -4 -121v-328h483q-6 -76 -6 -170h-477v-358q0 -219 8 -295h-228q14 137 15 494v464q0 356 -15 494q201 -10 406 -10t405 10q-12 -82 -14 -182q-242 4 -378 4zM1666 1274q-136 0 -196 -2q-4 -37 -4 -121v-328h484
q-6 -78 -6 -170h-478v-358q0 -219 9 -295h-228q14 137 15 494v464q0 356 -15 494q201 -10 406 -10t405 10q-12 -82 -14 -182q-242 4 -378 4z" />
    <glyph glyph-name="Omega" unicode="&#x2126;" horiz-adv-x="2113" 
d="M662 1372q-194 0 -340 6q6 -111 6 -344v-622q0 -231 -4 -332h45v639h493l2 35h-495v317l-2 270q84 -2 270 -2h315l2 35q-98 -2 -292 -2zM1718 1372q-194 0 -340 6q6 -111 6 -344v-622q0 -231 -4 -332h45v639h494l2 35h-496v317l-2 270q84 -2 271 -2h315l2 35
q-99 -2 -293 -2zM609 1274q-136 0 -195 -2q-4 -37 -4 -121v-328h483q-6 -76 -6 -170h-477v-358q0 -219 8 -295h-228q14 137 15 494v464q0 356 -15 494q201 -10 406 -10t405 10q-12 -82 -14 -182q-242 4 -378 4zM1666 1274q-136 0 -196 -2q-4 -37 -4 -121v-328h484
q-6 -78 -6 -170h-478v-358q0 -219 9 -295h-228q14 137 15 494v464q0 356 -15 494q201 -10 406 -10t405 10q-12 -82 -14 -182q-242 4 -378 4z" />
    <glyph glyph-name="pi" unicode="&#x3c0;" horiz-adv-x="1718" 
d="M1030 854q0 59 -39 93t-110 34l-78 -2v-246l43 -4q184 0 184 125zM1139 860q0 -190 -256 -190q-80 0 -119 6v215q0 80 -4 149l151 4q106 0 167 -52t61 -132zM727 874v-315q0 -106 -4 -149h39q2 39 2 129v106q61 -6 121 -6q291 0 291 223q0 90 -70 152t-195 61l-190 -4
q6 -61 6 -197zM1217 866q0 -289 -365 -288q-27 0 -49 2v-82q0 -106 4 -168h-197q8 68 8 270v240q0 225 -8 293l267 6q158 0 249 -80t91 -193zM859 2q296 0 505 210t209 509t-209 509t-505 210t-505 -211t-209 -508t209 -508t505 -211zM1616 719q0 -313 -221 -535t-535 -221
q-314 0 -536 221q-222 220 -222 534t222 536t535 222t535 -222t222 -535z" />
    <glyph glyph-name="endash" unicode="&#x2013;" horiz-adv-x="1024" 
d="M459 739l-250 2l-2 -34h694l2 34h-198q-23 -2 -246 -2zM578 641h-265q-96 0 -231 -4q6 59 6 174q150 -6 431 -6t433 6q-10 -68 -10 -174q-160 4 -364 4z" />
    <glyph glyph-name="emdash" unicode="&#x2014;" horiz-adv-x="1536" 
d="M207 707h1206l2 34h-328q-23 -2 -501 -2l-379 2v-34zM834 641h-267q-350 0 -485 -4q6 59 6 174q150 -6 688 -6t688 6q-10 -68 -10 -174q-160 4 -620 4z" />
    <glyph glyph-name="quoteleft" unicode="&#x2018;" horiz-adv-x="333" 
d="M221 1090q52 206 66 258l-33 12q-41 -115 -80 -262q20 -2 47 -8zM33 1047q145 326 182 389l117 -47q-45 -158 -72 -371q-182 29 -227 29z" />
    <glyph glyph-name="quoteright" unicode="&#x2019;" horiz-adv-x="333" 
d="M260 1358l-49 8q-18 -62 -88 -248l35 -14q61 152 102 254zM334 1411q-131 -299 -182 -387l-117 47q14 45 40 174t34 197q194 -31 225 -31z" />
    <glyph glyph-name="quotesinglbase" unicode="&#x201a;" horiz-adv-x="333" 
d="M260 102l-49 9q-18 -62 -88 -248l35 -15q61 152 102 254zM334 156q-131 -299 -182 -387l-117 47q14 45 40 174t34 196q194 -30 225 -30z" />
    <glyph glyph-name="quotedblleft" unicode="&#x201c;" horiz-adv-x="659" 
d="M221 1090q52 206 66 258l-33 12q-41 -115 -80 -262q20 -2 47 -8zM514 1090q52 206 66 258l-35 12q-43 -133 -78 -262q20 -2 47 -8zM33 1047q145 326 182 389l117 -47q-45 -158 -72 -371q-182 29 -227 29zM326 1047q123 283 182 389l117 -47q-14 -45 -39 -175t-33 -196
q-182 29 -227 29z" />
    <glyph glyph-name="quotedblright" unicode="&#x201d;" horiz-adv-x="659" 
d="M260 1358l-49 8q-18 -62 -88 -248l35 -14q61 152 102 254zM551 1358l-47 8q-35 -105 -88 -248l33 -14q53 125 102 254zM334 1411q-131 -299 -182 -387l-117 47q14 45 40 174t34 197q194 -31 225 -31zM627 1411q-131 -299 -183 -387l-116 47q14 45 40 175t31 196
q205 -31 228 -31z" />
    <glyph glyph-name="quotedblbase" unicode="&#x201e;" horiz-adv-x="659" 
d="M260 102l-49 9q-18 -62 -88 -248l35 -15q61 152 102 254zM551 102l-47 9q-35 -105 -88 -248l33 -15q53 125 102 254zM334 156q-131 -299 -182 -387l-117 47q14 45 40 174t34 196q194 -30 225 -30zM627 156q-131 -299 -183 -387l-116 47q14 45 40 175t31 195
q205 -30 228 -30z" />
    <glyph glyph-name="dagger" unicode="&#x2020;" horiz-adv-x="1175" 
d="M651 1012v440l-41 -2q4 -156 4 -377v-61h-71l-254 4h-111v-39l121 2h315v-688q0 -291 -4 -373h39v334l2 727h318l116 -2l2 39h-110l-254 -4h-72zM504 330v590q-74 0 -152 -5l-159 -6q-86 -4 -142 -10q2 41 8 199q41 -8 91 -8l260 -15q47 -4 92 0q0 311 -17 455
q92 0 209 10q-10 -74 -10 -301v-164q45 -4 94 0l258 15q53 0 94 8q-6 -178 -6 -199q-63 6 -131 10l-159 6q-78 4 -152 5l-2 -787q0 -217 8 -297h-196q12 119 12 494z" />
    <glyph glyph-name="daggerdbl" unicode="&#x2021;" horiz-adv-x="1175" 
d="M967 356q84 0 116 -4l2 41q-29 -2 -110 -2l-254 -4h-70v592h318l116 -2l2 39h-110l-254 -4h-72v440l-41 -2q4 -156 4 -377v-61h-71l-254 4h-111v-39l121 2h315v-592h-73l-254 4q-82 0 -111 2v-41q28 4 178 3t189 1h71v-65q0 -291 -4 -373h39v334l2 104h316zM504 920
q-74 0 -152 -5l-159 -6q-86 -4 -142 -10q2 41 8 199q41 -8 91 -8l260 -15q47 -4 92 0q0 311 -17 455q92 0 209 10q-10 -74 -10 -301v-164q45 -4 94 0l258 15q53 0 94 8q-6 -178 -6 -199q-63 6 -131 10l-159 6q-78 4 -152 5v-467q23 -2 94 -2l258 14q69 6 96 10
q-8 -119 -8 -201q-49 8 -129 13l-159 6q-10 0 -68 2t-84 0l-2 -162q0 -217 8 -297h-196q12 135 12 459l-152 -2l-159 -6q-94 -4 -142 -13q2 39 8 201q23 -4 91 -10l260 -14q70 0 94 2v467z" />
    <glyph glyph-name="bullet" unicode="&#x2022;" horiz-adv-x="892" 
d="M696 728q0 106 -59 174t-153 67q-94 0 -152 -73q-60 -73 -60 -173t58 -172t151 -72q92 0 154 71q61 72 61 178zM451 1024q125 0 207 -83t81 -213q0 -130 -85 -217t-210 -87q-126 0 -208 86t-82 211t86 214t211 89z" />
    <glyph glyph-name="ellipsis" unicode="&#x2026;" horiz-adv-x="1472" 
d="M270 41q18 0 31 14q12 15 12 33t-11 30q-12 12 -30 13q-18 0 -31 -14q-13 -15 -13 -33t12 -30t30 -13zM778 41q18 0 31 14q12 15 12 33t-11 30q-12 12 -30 13q-18 0 -31 -14q-13 -15 -13 -33t12 -30t30 -13zM1286 41q18 0 31 14q12 15 12 33t-11 30q-12 12 -30 13
q-18 0 -32 -14q-14 -15 -13 -33q0 -18 12 -31q13 -12 31 -12zM238 211q52 0 84 -36t32 -86t-34 -88t-86 -38t-84 36t-31 86q0 50 34 88t85 38zM746 211q52 0 84 -36t32 -86t-34 -88t-86 -38t-84 36t-32 86t34 88t86 38zM1370 89q0 -50 -34 -88t-86 -38t-84 36t-32 86t34 88
t85 38t84 -36t33 -86z" />
    <glyph glyph-name="perthousand" unicode="&#x2030;" horiz-adv-x="2338" 
d="M1356 510q0 129 -105 129q-81 0 -155 -125t-74 -253t104 -128q82 0 156 124t74 253zM1868 133q82 0 156 124t73 253q0 129 -104 129q-80 0 -155 -125t-75 -253t105 -128zM573 1161q0 129 -106 129q-78 0 -153 -125q-74 -125 -74 -253t104 -128q82 0 156 124
q73 124 73 253zM1468 510q0 -156 -98 -301t-213 -146q-76 -1 -121 53t-45 146q-1 154 97 299t212 146q78 -1 123 -53t45 -144zM2210 510q0 -156 -98 -301t-214 -146q-76 -1 -120 53t-45 146q0 154 97 299t212 146q78 -1 123 -53t45 -144zM684 1161q0 -154 -97 -299
t-212 -145q-76 0 -121 52t-45 144q0 154 97 299t212 146q78 0 122 -52t44 -145zM1307 741q-131 -1 -241 -157t-110 -326q0 -104 54 -166t143 -61q131 -1 241 155t109 326q0 104 -53 166t-143 63zM2048 741q-131 -1 -241 -157t-109 -326q0 -104 53 -166t143 -61
q131 -1 241 155t110 326q1 104 -53 166t-144 63zM1331 1380l-1014 -1317l25 -18l1014 1317zM522 1393q-132 0 -240 -157t-108 -325q0 -105 53 -167t144 -62q131 0 241 157t109 326q0 104 -53 166q-54 62 -146 62zM1534 518q0 -201 -132 -378t-300 -177q-117 0 -187 81
t-69 208q0 201 131 379t299 178q118 0 188 -82t70 -209zM2275 518q0 -201 -132 -378t-300 -177q-117 0 -187 81t-69 208q0 201 131 379t299 178q117 0 187 -82t71 -209zM1423 1403l-1134 -1473l-117 90l1131 1475zM752 1171q0 -201 -132 -379t-301 -178q-117 0 -187 82
t-69 209q-1 201 131 378t298 177q120 0 190 -81t70 -208z" />
    <glyph glyph-name="guilsinglleft" unicode="&#x2039;" horiz-adv-x="653" 
d="M526 397l17 25l-346 299q244 213 346 301l-17 22l-368 -325q262 -230 368 -322zM508 1141q9 -18 90 -121q-55 -41 -225 -186l-129 -111l129 -113q186 -159 225 -186l-90 -121l-453 385l4 66z" />
    <glyph glyph-name="guilsinglright" unicode="&#x203a;" horiz-adv-x="653" 
d="M207 399l371 320q-264 233 -371 325l-17 -22l347 -301q-244 -213 -347 -299zM55 1018l90 123l453 -385l-4 -66l-449 -387q-2 4 -90 119q94 70 224 188l129 111l-129 113q-25 22 -111 94t-113 90z" />
    <glyph glyph-name="fraction" unicode="&#x2044;" horiz-adv-x="1177" 
d="M1122 1382l-1024 -1327l25 -18l1024 1327zM1214 1405l-1144 -1483l-119 90l1143 1487z" />
    <glyph glyph-name="trademark" unicode="&#x2122;" horiz-adv-x="1759" 
d="M1241 752q31 63 260 481q55 -442 66 -488l39 3q-23 113 -88 581q-264 -489 -275 -516q-2 6 -102 188t-172 324q-12 -80 -46 -285t-44 -290h36q4 20 70 479q43 -82 127 -234q84 -153 129 -243zM457 1241q0 61 2 92q147 0 229 2l2 35q-92 -2 -251 -2t-251 2v-35
q82 -2 230 -2v-377q0 -166 -2 -206h43l-2 186v305zM498 1200v-385q0 -104 6 -147h-199q8 63 8 245v187q0 111 -2 166q-152 0 -233 -2q4 53 4 176q98 -4 328 -4t327 4q-8 -64 -8 -176q-84 2 -229 2q-2 -20 -2 -66zM1665 668l-197 -9q0 49 -10 142l-26 233
q-162 -270 -209 -377l-27 -8q-4 10 -205 377l-30 -229q-12 -104 -13 -129h-188q25 129 43 252l41 229q49 274 53 303l35 8q6 -12 74 -141l208 -381l205 381q31 55 74 141h33q4 -30 28 -154t27 -157l41 -229q27 -176 43 -252z" />
    <glyph glyph-name="radical" unicode="&#x221a;" horiz-adv-x="2789" 
d="M2472 1024v-612q0 -229 -2 -332h43v1280q-14 -2 -43 -2q2 -102 2 -334zM662 1372q-194 0 -340 6q6 -111 6 -344v-622q0 -231 -4 -332h45v639h493l2 35h-495v317l-2 270q84 -2 270 -2h315l2 35q-98 -2 -292 -2zM1718 1372q-194 0 -340 6q6 -111 6 -344v-622
q0 -231 -4 -332h45v639h494l2 35h-496v317l-2 270q84 -2 271 -2h315l2 35q-99 -2 -293 -2zM609 1274q-136 0 -195 -2q-4 -37 -4 -121v-328h483q-6 -76 -6 -170h-477v-358q0 -219 8 -295h-228q14 137 15 494v464q0 356 -15 494q201 -10 406 -10t405 10q-12 -82 -14 -182
q-242 4 -378 4zM1666 1274q-136 0 -196 -2q-4 -37 -4 -121v-328h484q-6 -78 -6 -170h-478v-358q0 -219 9 -295h-228q14 137 15 494v464q0 356 -15 494q201 -10 406 -10t405 10q-12 -82 -14 -182q-242 4 -378 4zM2349 494v452q0 356 -14 494q143 0 227 10q-8 -80 -8 -303
v-852q0 -219 8 -295h-227q14 137 14 494z" />
    <glyph glyph-name="approxequal" unicode="&#x2248;" horiz-adv-x="3182" 
d="M2755 102q-193 0 -277 -4q4 127 4 273v694q0 201 -2 293h-43q4 -209 4 -334v-616q0 -198 -8 -345q256 11 686 3l2 36h-366zM662 1372q-194 0 -340 6q6 -111 6 -344v-622q0 -231 -4 -332h45v639h493l2 35h-495v317l-2 270q84 -2 270 -2h315l2 35q-98 -2 -292 -2z
M1718 1372q-194 0 -340 6q6 -111 6 -344v-622q0 -231 -4 -332h45v639h494l2 35h-496v317l-2 270q84 -2 271 -2h315l2 35q-99 -2 -293 -2zM2723 2q-267 0 -419 -10q14 137 14 493v461q0 356 -14 494q143 0 227 10q-8 -80 -8 -303v-852q0 -84 4 -123l183 -2q240 0 448 6
q-10 -82 -14 -184q-154 10 -421 10zM609 1274q-136 0 -195 -2q-4 -37 -4 -121v-328h483q-6 -76 -6 -170h-477v-358q0 -219 8 -295h-228q14 137 15 494v464q0 356 -15 494q201 -10 406 -10t405 10q-12 -82 -14 -182q-242 4 -378 4zM1666 1274q-136 0 -196 -2q-4 -37 -4 -121
v-328h484q-6 -78 -6 -170h-478v-358q0 -219 9 -295h-228q14 137 15 494v464q0 356 -15 494q201 -10 406 -10t405 10q-12 -82 -14 -182q-242 4 -378 4z" />
    <glyph glyph-name="lessequal" unicode="&#x2264;" horiz-adv-x="1583" 
d="M1456 739l-326 -2l-501 -2q-297 0 -400 2l428 377l-18 29l-473 -422q332 -289 473 -412l20 29q-127 106 -428 371h381l508 -2h334zM344 795l473 2q487 0 688 12q-10 -68 -10 -172q-199 10 -618 10l-267 2h-258l86 -74q250 -211 281 -233l-94 -145l-570 505l-4 35l570 514
l98 -139q-14 -12 -281 -235z" />
    <glyph glyph-name="greaterequal" unicode="&#x2265;" horiz-adv-x="1583" 
d="M1438 711l-428 -377l18 -29l473 422q-332 289 -473 412l-18 -27q242 -214 426 -373q-281 0 -379 2h-842l-2 -32q43 2 324 2l501 2q297 0 400 -2zM1243 653l-473 -2q-438 0 -688 -10q10 68 10 170q399 -10 619 -10l264 -2h258l-84 73q-246 207 -283 234l95 145l569 -503
l4 -35l-569 -516l-99 139q31 23 283 235z" />
    <glyph glyph-name="NUL" horiz-adv-x="0" 
 />
    <glyph glyph-name="apple" horiz-adv-x="1421" 
d="M598 884q0 -92 68 -90q32 0 51 50h2l24 -49l23 16l-33 61q20 47 27 80l-27 6q-4 -18 -18 -61l-33 64q47 43 47 77q0 72 -55 72q-25 0 -41 -19q-17 -19 -17 -45t29 -79q-47 -37 -47 -83zM872 580q-31 0 -30 34q0 12 9 24t22 11q13 0 23 -11q10 -10 9 -24q1 -14 -9 -24
t-24 -10zM999 612h-24v35h22q20 0 21 -16q-1 -19 -19 -19zM664 823q-35 1 -35 47t30 76l41 -80q-12 -43 -36 -43zM645 1056q0 30 29 29q27 -1 27 -35t-31 -69q-25 45 -25 75zM494 662l30 -97h17l20 70h2l23 -70h16l29 97h-17l-20 -72h-2l-21 72h-16l-23 -72h-2l-20 72h-16z
M270 662v-95h17v66l51 -66h14v95h-16v-66l-51 66h-15zM395 662v-95h68v15h-51v26h45v15h-45v24h51v15h-68zM750 567h16v35l37 60h-19l-26 -46l-27 46h-18l37 -60v-35zM874 565q22 0 34 15q32 34 0 68q-14 16 -36 16q-20 0 -33 -16t-13 -34q0 -20 12 -34q14 -14 36 -15z
M1034 626q0 34 -33 36h-43v-95h17v31h24l21 -31h18l-24 35q20 6 20 24zM1071 662v-95h16v27l15 14l33 -41h18l-39 54l37 41h-21l-43 -50v50h-16zM985 799q63 0 64 73v281h-33v-281q0 -45 -33 -45q-20 0 -41 13v-33q16 -8 43 -8zM377 1153v-352h31v162h96v-162h31v352h-31
v-162h-96v162h-31zM819 1153v-352h31v160h78v28h-78v135h88v29h-119zM1319 -410h-426l-16 29h-334l-17 -29h-424v621q29 0 48 19q18 19 18 46q0 26 -20 46t-46 20v1135h205l62 161h684l59 -161h207v-1887z" />
    </font>
</defs>
</svg>
