<?xml version="1.0" standalone="no"?>
<!DOCTYPE svg PUBLIC "-//W3C//DTD SVG 1.1//EN" "http://www.w3.org/Graphics/SVG/1.1/DTD/svg11.dtd" >
<svg xmlns="http://www.w3.org/2000/svg">
<metadata>
Created by FontPrep 20130207 at Tue Dec  9 01:51:39 2014
 By Alexander Gunnarson
(c) Copyright 1994-1996 International Typeface Corporation  All rights reserved.
</metadata>
<defs>
<font id="daf52f69ccdde4182629e02d00fb6038" horiz-adv-x='1024' >
  <font-face 
    font-family="VintageITCTT"
    font-weight="400"
    font-stretch="normal"
    units-per-em="2048"
    panose-1="0 0 4 0 0 0 0 0 0 0"
    ascent="1638"
    descent="-410"
    x-height="977"
    cap-height="1436"
    bbox="-184 -541 2519 1876"
    underline-thickness="116"
    underline-position="-98"
    unicode-range="U+0020-F002"
  />
<missing-glyph 
d="M256 129h512v1382h-512v-1382zM129 0v1638h768v-1638h-768z" />
    <glyph glyph-name=".notdef" 
d="M256 129h512v1382h-512v-1382zM129 0v1638h768v-1638h-768z" />
    <glyph glyph-name=".null" horiz-adv-x="0" 
 />
    <glyph glyph-name="nonmarkingreturn" horiz-adv-x="446" 
 />
    <glyph glyph-name="space" unicode=" " horiz-adv-x="446" 
 />
    <glyph glyph-name="exclam" unicode="!" horiz-adv-x="616" 
d="M416 59q-55 -33 -109 -96q-35 61 -106 123q66 39 110 90q31 -54 105 -117zM383 1329q0 -23 -27.5 -296t-27.5 -480t6 -262q-20 4 -26 4t-21 -4q14 115 14 186q0 416 -127 826q103 88 150 180q59 -59 59 -154z" />
    <glyph glyph-name="quotedbl" unicode="&#x22;" horiz-adv-x="669" 
d="M180 1430q28 0 86 6q-20 -119 -76 -566h-4q-55 446 -75 566q41 -6 69 -6zM473 1430q29 0 86 6q-20 -121 -76 -566h-4q-61 481 -76 566q41 -6 70 -6z" />
    <glyph glyph-name="numbersign" unicode="#" horiz-adv-x="1247" 
d="M702 860q-113 0 -213 -2l-90 -268q260 0 357 2l90 268h-144zM1036 524q0 -30 4 -51h-282l-129 -385h-41l129 385h-168q-63 0 -189 -2l-129 -383h-41l129 383q-84 -2 -243 -8q4 41 4 67l-4 60h282l91 268l-244 -8q4 45 4 68l-4 59h282l127 377h41l-127 -377h113
q170 0 246 2l125 375h41l-125 -375l243 8q-4 -45 -4 -63t4 -64h-284l-90 -268q117 4 243 8q-4 -46 -4 -76z" />
    <glyph glyph-name="dollar" unicode="$" horiz-adv-x="1007" 
d="M780 369q0 131 -153 231l-103 68v-553q256 47 256 254zM272 1124q0 -63 42 -112t141 -117l32 -23v461q-215 -55 -215 -209zM524 -80h-37v164q-18 -2 -45 -2q-147 0 -331 92q27 8 36 41q143 -106 304 -106q18 0 36 2v577l-122 82q-170 113 -170 277q0 229 292 309v155h37
v-151q16 2 35 2q88 0 232 -49q-23 -14 -29 -43q-100 68 -221 67h-17v-483l191 -127q158 -104 157 -287q0 -135 -92 -229t-256 -123v-168z" />
    <glyph glyph-name="percent" unicode="%" horiz-adv-x="1517" 
d="M1346 298q0 128 -62.5 213t-150.5 85t-146.5 -71.5t-58.5 -203.5t58 -215t154 -83t151 73.5t55 201.5zM614 1112q0 129 -62.5 214t-150.5 85t-146 -71.5t-58 -203.5t58.5 -215t154.5 -83t150 72.5t54 201.5zM1448 311q0 -127 -92 -219t-227 -92t-231.5 89t-96.5 222
t91 220t230 87t232.5 -90t93.5 -217zM322 -25q-20 0 -31 -6l872 1495q12 -6 28 -6t36 6l-453 -768q-113 -190 -420 -727q-12 6 -32 6zM717 1126q0 -127 -92.5 -219t-226.5 -92t-231 89t-97 222t91 220.5t230 87.5t232.5 -90.5t93.5 -217.5z" />
    <glyph glyph-name="ampersand" unicode="&#x26;" horiz-adv-x="1542" 
d="M301 416q0 -196 111.5 -300t314.5 -104q416 0 416 475q0 80 -10 299l-412 7q-217 0 -318.5 -90.5t-101.5 -286.5zM1274 659q0 -322 -163 -505t-425 -183t-414.5 124.5t-152.5 298.5t118.5 280t335.5 133q-166 29 -254 115t-88 216t119.5 227t281.5 97t310 -61
q-27 -12 -29 -39q-115 76 -256 76t-220 -82t-79 -236t93.5 -229.5t293.5 -75.5q51 0 385 6q-12 162 -24 266q42 -6 76 -6t92 11v-267q94 0 242 6q-6 -14 -6 -26.5t6 -24.5q-41 0 -242 4v-125z" />
    <glyph glyph-name="quotesingle" unicode="'" horiz-adv-x="376" 
d="M180 1430q28 0 86 6q-20 -119 -76 -566h-4q-55 446 -75 566q41 -6 69 -6z" />
    <glyph glyph-name="parenleft" unicode="(" horiz-adv-x="679" 
d="M174 693q0 527 440 935l4 -4q-311 -393 -311 -932t311 -932l-4 -4q-440 410 -440 937z" />
    <glyph glyph-name="parenright" unicode=")" horiz-adv-x="679" 
d="M506 693q0 -527 -440 -937l-5 4q311 394 311 930t-311 934l5 4q440 -408 440 -935z" />
    <glyph glyph-name="asterisk" unicode="*" horiz-adv-x="679" 
d="M565 1096h10q20 -92 54 -131q-12 -6 -35 -7q-66 0 -126 57.5t-124 117.5q10 -109 70 -218q-57 -49 -82 -112q-45 29 -45 85q1 56 23 134t26 113q-90 -66 -156 -168q-44 16 -82 16t-55 -2q6 72 86 102q98 31 197 60q-117 51 -213 51h-9q-12 72 -55 127q16 10 39 10
q51 0 116 -58t132 -120q-8 98 -70 217q53 45 82 113q47 -35 47 -99q-1 -30 -23 -106t-28 -127q80 57 154 168q60 -16 88 -16t51 2q-6 -72 -84 -103q-100 -29 -201 -59q100 -47 213 -47z" />
    <glyph glyph-name="plus" unicode="+" horiz-adv-x="1619" 
d="M1300 741l-194 2q-66 0 -248 -18q6 11 6 25t-6 26q211 -10 386 -10t229 2q-8 -29 -11 -66l-2 -69v-246q0 -92 15 -278h-19q-84 0 -199 -46q-236 -92 -378 -92q-268 0 -537 203q-109 82 -176.5 224t-67.5 316t84 338.5t238 270.5q203 139 469 139q215 0 446 -135l31 -88
q-234 197 -494 197t-424 -199t-163 -537q1 -278 165 -488t433 -210q209 0 430 148v163q0 150 -13 428z" />
    <glyph glyph-name="comma" unicode="," horiz-adv-x="399" 
d="M301 39q0 -150 -248 -309q-8 25 -26 39q186 72 186 176q0 78 -109 133q62 41 111 100q86 -61 86 -139z" />
    <glyph glyph-name="hyphen" unicode="-" horiz-adv-x="696" 
d="M643 596q-63 -70 -63 -137l-424 -88q-68 -14 -101 -31q61 68 64 137l424 88q61 13 100 31z" />
    <glyph glyph-name="hyphen" unicode="&#x2010;" horiz-adv-x="696" 
d="M643 596q-63 -70 -63 -137l-424 -88q-68 -14 -101 -31q61 68 64 137l424 88q61 13 100 31z" />
    <glyph glyph-name="period" unicode="." horiz-adv-x="399" 
d="M307 59q-55 -33 -108 -96q-35 61 -107 123q66 39 111 90q30 -54 104 -117z" />
    <glyph glyph-name="slash" unicode="/" horiz-adv-x="884" 
d="M64 4q-16 0 -64 -6l379 698q133 244 393 740q24 -6 52 -6t61 6l-772 -1438q-33 6 -49 6z" />
    <glyph glyph-name="zero" unicode="0" horiz-adv-x="1193" 
d="M948 699q0 337 -99 539t-237 202t-230 -176q-91 -176 -91 -514t95 -544q94 -206 244 -206t234 181t84 518zM596 1462q201 0 343 -209t142 -549t-174 -569q-125 -164 -286 -164q-197 0 -352.5 213t-155.5 531q0 379 221 614q125 133 262 133z" />
    <glyph glyph-name="one" unicode="1" horiz-adv-x="806" 
d="M460 4q-42 0 -85 -6l-2 1225q-113 -115 -232 -289q-14 31 -39 39q276 293 430 510v-752q1 -463 13 -733q-43 6 -85 6z" />
    <glyph glyph-name="two" unicode="2" horiz-adv-x="1056" 
d="M690 995q0 205 -94 325t-246 120q-109 0 -262 -94q-6 27 -22 43q172 74 284 73q227 0 372.5 -133t145.5 -323t-150 -410q-150 -219 -442 -440q111 -6 276 -6t376 10q-8 -33 -8 -70t8 -86l-445 6q-106 0 -479 -14q362 214 524 444t162 555z" />
    <glyph glyph-name="three" unicode="3" horiz-adv-x="1011" 
d="M371 -31q-154 0 -308 80l-26 80q164 -133 325 -133t257 116.5t96 307.5q0 383 -340 389v4q256 45 256 324q0 139 -69.5 220t-187.5 81t-263 -95q-6 23 -27 41q152 76 316 76t278.5 -88t114.5 -211q-1 -240 -316 -342q189 -31 299 -141t111 -256q0 -193 -145.5 -323
t-370.5 -130z" />
    <glyph glyph-name="four" unicode="4" horiz-adv-x="1165" 
d="M88 504l320 -2q88 0 256 4v192l-2 525q-145 -160 -574 -719zM664 479l-461 2h-193q442 516 811 1002l2 -973l314 10q-6 -8 -6 -22t6 -27q-20 0 -314 6q4 -334 11 -479q-43 6 -83 6t-87 -6v481z" />
    <glyph glyph-name="five" unicode="5" horiz-adv-x="1114" 
d="M463 874q238 0 382 -121.5t144 -315.5t-151.5 -330t-380.5 -136q-164 0 -328 84l-25 82q166 -139 353 -139q147 0 248.5 123t101.5 313t-92 304t-244 114q-121 0 -266 -90q35 383 41 659q381 -14 446 -14q115 0 162 80h4q-6 -217 -145 -217l-330 6q-8 0 -111 -4
q-30 -304 -30 -443q123 45 221 45z" />
    <glyph glyph-name="six" unicode="6" horiz-adv-x="1091" 
d="M623 -4q129 0 200.5 79t71.5 203t-72.5 197.5t-216.5 73.5t-303 -98q16 -221 103.5 -338t216.5 -117zM644 582q171 0 275.5 -80t104.5 -206t-111 -225t-272 -100q-201 0 -350 138q-176 161 -176 419t175 508t509 449q6 -27 28 -39q-528 -188 -528 -903v-45q174 84 345 84
z" />
    <glyph glyph-name="seven" unicode="7" horiz-adv-x="919" 
d="M309 1434h606q-573 -1292 -641 -1479q-14 8 -26 8t-29 -6q43 78 598 1331q-88 6 -178 6l-426 -8q-154 0 -182 -78h-4l43 236q168 -10 239 -10z" />
    <glyph glyph-name="eight" unicode="8" horiz-adv-x="1097" 
d="M162 377q0 -168 113.5 -272.5t293.5 -104.5q125 0 217.5 94t92.5 226t-111 247q-63 68 -303 250q-303 -133 -303 -440zM788 1204q0 100 -59 167t-149 67t-159 -63.5t-69 -152.5q0 -90 60 -158t200 -144q176 80 176 284zM971 426q0 -195 -124 -325t-306 -130t-308.5 122
t-126.5 286q0 264 332 461q-176 145 -176 313q0 127 92 218t210 91t195 -73.5t77 -180.5q0 -188 -195 -311q330 -197 330 -471z" />
    <glyph glyph-name="nine" unicode="9" horiz-adv-x="1089" 
d="M475 1440q-121 0 -201.5 -82t-80.5 -207t71.5 -201t192.5 -76q171 0 321 111q-25 455 -303 455zM427 842q-165 0 -264.5 76.5t-99.5 209.5t118.5 233.5t312.5 100.5t332.5 -156.5t138.5 -408.5q0 -205 -147 -455t-425 -483q-10 18 -35 33q197 100 309.5 333.5
t112.5 561.5v57q-188 -102 -353 -102z" />
    <glyph glyph-name="colon" unicode=":" horiz-adv-x="399" 
d="M307 59q-55 -33 -108 -96q-35 61 -107 123q66 39 111 90q30 -54 104 -117zM307 678q-61 -37 -108 -96q-29 51 -107 123q59 35 111 90q30 -51 104 -117z" />
    <glyph glyph-name="semicolon" unicode=";" horiz-adv-x="399" 
d="M301 39q0 -150 -248 -309q-8 25 -26 39q186 72 186 176q0 78 -109 133q62 41 111 100q86 -61 86 -139zM307 678q-61 -37 -108 -96q-29 51 -107 123q59 35 111 90q30 -51 104 -117z" />
    <glyph glyph-name="less" unicode="&#x3c;" horiz-adv-x="718" 
d="M616 280q0 -132 -93 -217.5t-227 -85.5t-255 64q20 12 25 39q110 -80 224 -80t183.5 55t69.5 133t-111 166l-174 138q-135 106 -135 245q0 113 78 186.5t196 73.5q68 0 154 -22q-20 -16 -21 -39q-78 41 -154 41t-131 -47.5t-55 -105.5t28 -94t97 -89l172 -131
q129 -98 129 -230z" />
    <glyph glyph-name="equal" unicode="=" horiz-adv-x="1183" 
d="M1061 72q-68 0 -207 -47.5t-215 -47.5q-231 0 -393 145.5t-162 360.5t162 364.5t407 149.5q160 0 316 -88l24 -75q-174 141 -354 141t-287.5 -131.5t-107.5 -351.5t115.5 -354t281.5 -134t285 100v103q0 55 -13 297h-79q-78 0 -209 -17q6 18 6 24.5t-6 20.5
q100 -8 196 -8h53q58 -2 110 -2t83 2q-8 -39 -8 -90v-115q0 -97 10 -247h-8z" />
    <glyph glyph-name="greater" unicode="&#x3e;" horiz-adv-x="974" 
d="M844 396q0 -188 -128 -306.5t-320 -118.5t-357 95q29 16 35 45q156 -113 320 -113t267 84t103 215q0 76 -40 134t-132 136l-246 207q-186 158 -186 340q0 152 107.5 251t275.5 99q90 0 215 -32q-23 -14 -27 -46q-90 54 -210 54t-208 -73t-88 -159t56 -151
q31 -37 145 -131l246 -201q172 -141 172 -329z" />
    <glyph glyph-name="question" unicode="?" horiz-adv-x="854" 
d="M446 59q-55 -33 -108 -96q-35 61 -107 123q66 39 111 90q32 -56 104 -117zM303 1462q205 0 340 -117.5t135 -291.5q0 -135 -65 -219t-209 -172q-144 -89 -168 -107q-57 -45 -57 -92q0 -74 114 -146q-23 -12 -28 -34q-172 176 -172 288q0 66 45 111q8 6 180 128t184 132
q96 84 96 203t-109.5 206t-281.5 87q-119 0 -268 -101q-6 27 -29 39q170 86 293 86z" />
    <glyph glyph-name="at" unicode="@" horiz-adv-x="1615" 
d="M981 676q-115 0 -222 -102t-165 -222q-58 -119 -57 -209q0 -90 84 -90q93 0 205 118t202 329l51 121q-39 55 -98 55zM88 219q0 324 256 573.5t576 249.5q268 0 438 -149.5t170 -376.5q0 -127 -61.5 -244.5t-183.5 -208.5t-292 -92q-139 0 -139 107q0 27 12 59l23 62l-4 2
q-180 -229 -317.5 -229.5t-137.5 163.5q0 98 71 221t195 224q150 119 291 118q53 0 111 -43l22 56q41 -27 105 -47l-246 -590q-10 -25 -10 -41q0 -31 57 -31q127 0 248 86q229 162 229 428q0 215 -163.5 359.5t-417.5 144.5q-291 0 -503 -250t-212 -547t153.5 -450.5
t444.5 -153.5q215 0 391 68l4 -4q-186 -90 -420 -91q-315 0 -502.5 171t-187.5 456z" />
    <glyph glyph-name="A" unicode="A" horiz-adv-x="1425" 
d="M993 504q-250 539 -344 727q-96 -272 -252 -727h596zM227 -2q-24 8 -55 0q6 14 176 475q-14 0 -348 -10q6 12 6 24t-6 25q6 0 358 -8q125 348 344 962q258 -550 378 -804t329 -664q-82 6 -99 6t-85 -6q-154 346 -219 483h-121q-260 0 -498 -6q-37 -100 -160 -477z" />
    <glyph glyph-name="B" unicode="B" horiz-adv-x="1234" 
d="M618 10q164 0 267.5 104.5t103.5 280.5t-112.5 287t-313.5 117v6q141 12 219 92t78 216t-88 223t-227 87q-53 0 -142 -16l-4 -655q1 -359 13 -707q121 -35 206 -35zM989 1110q0 -104 -85.5 -186t-241.5 -117q213 -31 335.5 -143.5t122.5 -260.5q0 -180 -137 -297.5
t-360 -117.5l-252 12h-129v698q0 352 -9 736h84l248 14q184 0 304 -98.5t120 -239.5z" />
    <glyph glyph-name="C" unicode="C" horiz-adv-x="1445" 
d="M98 692q0 172 67 320t173 235q266 215 553 215q236 0 467 -106q-29 -20 -35 -47q-217 127 -430 127q-276 0 -442 -193.5t-166 -521.5q0 -401 286 -610q155 -113 355 -113t489 203l-26 -84q-227 -145 -489 -145t-476 137q-154 100 -240 255.5t-86 327.5z" />
    <glyph glyph-name="D" unicode="D" horiz-adv-x="1531" 
d="M655 10q307 0 473 187.5t166 522.5t-173 519t-470 184q-57 0 -248 -22l-4 -615q1 -452 13 -731q166 -45 243 -45zM242 0v698q0 352 -9 736h109l332 14q217 0 354 -76q193 -106 295 -277t102 -378q-1 -323 -211 -527t-563 -204l-278 14h-131z" />
    <glyph glyph-name="E" unicode="E" horiz-adv-x="1406" 
d="M563 4q-96 0 -252 -4v741h-278l20 27h258q0 303 -10 668l207 -9h100q158 0 588 11l49 -49q-436 12 -776 12v-633q719 4 840 14q-6 -12 -6 -26t6 -25l-781 12h-34q-20 -2 -25 -2v-116q0 -223 10 -592q119 -2 273 -2t548 12l-51 -51q-340 12 -422 12h-264z" />
    <glyph glyph-name="F" unicode="F" horiz-adv-x="1298" 
d="M467 741v-96q0 -293 10 -647q-43 6 -85 6t-85 -6l2 743h-258l21 27h237q0 324 -10 668q158 -8 207 -9h100q233 0 592 11l47 -49q-446 12 -778 12v-633q608 2 784 14q-6 -12 -6 -26t6 -25l-721 12q-63 0 -63 -2z" />
    <glyph glyph-name="G" unicode="G" horiz-adv-x="1615" 
d="M1460 109q-84 0 -274.5 -69t-306.5 -69q-268 0 -537 203q-109 82 -176.5 224t-67.5 316t84 338.5t238 270.5q203 139 469 139q215 0 446 -135l31 -88q-234 197 -494 197t-424 -199t-163 -537q1 -278 165 -488t433 -210q209 0 430 148v163q0 63 -19 459q43 -6 85 -6t81 6
v-303q1 -102 15 -360h-15z" />
    <glyph glyph-name="H" unicode="H" horiz-adv-x="1769" 
d="M1473 741v-110q0 -362 12 -633q-43 6 -85 6t-85 -6v743h-342q-109 0 -469 -6v-88q0 -393 12 -649q-43 6 -85 6t-85 -6v733q-150 0 -346 -6l6 23q0 14 -6 26l346 -4q0 354 -10 666q37 -6 81 -6t87 6v-668h811q0 367 -10 668q37 -6 81 -6t87 6v-668h180l-21 -27h-159z" />
    <glyph glyph-name="I" unicode="I" horiz-adv-x="671" 
d="M341 4q-42 0 -85 -6v700q0 313 -10 738q37 -6 81 -6t87 6v-738q0 -450 12 -700q-43 6 -85 6z" />
    <glyph glyph-name="J" unicode="J" horiz-adv-x="634" 
d="M-61 -297q329 0 329 470t-43 1263q37 -6 84 -6t90 6v-559l17 -666q0 -227 -147.5 -377.5t-405.5 -187.5l-39 69q61 -12 115 -12z" />
    <glyph glyph-name="K" unicode="K" horiz-adv-x="1306" 
d="M329 4q-42 0 -85 -6v700q0 313 -11 738q37 -6 81 -6t87 6v-738q1 -450 13 -700q-43 6 -85 6zM1282 -23q-205 0 -344 324l-45 105q-152 350 -461 350h-6q539 547 643 680q31 -6 43 -6t27 6q-227 -219 -654 -660q233 -25 371.5 -135.5t214.5 -331.5l39 -112
q70 -203 193 -203q47 0 75 12l4 -4q-49 -25 -100 -25z" />
    <glyph glyph-name="L" unicode="L" horiz-adv-x="1044" 
d="M496 4q-106 0 -252 -6v700q0 313 -11 738q35 -6 79 -6t87 6v-738q0 -211 13 -665q133 -2 265 -2t451 8l-51 -51l-356 16h-225z" />
    <glyph glyph-name="M" unicode="M" horiz-adv-x="1820" 
d="M180 -2q-21 9 -51 0l178 1468l602 -1253q209 473 510 1253q96 -655 256 -1468q-43 6 -85 6t-85 -6q-96 680 -178 1124q-88 -197 -465 -1163q-379 815 -559 1176q-43 -346 -123 -1137z" />
    <glyph glyph-name="N" unicode="N" horiz-adv-x="1611" 
d="M1376 774v-815q-846 961 -1110 1210l2 -561q0 -539 13 -610q-14 6 -31 6q10 0 -21 -6l7 1468q711 -811 1110 -1204v94q0 166 -15 1080q13 -6 25 -6t26 6q-6 -156 -6 -662z" />
    <glyph glyph-name="O" unicode="O" horiz-adv-x="1759" 
d="M1528 686q0 307 -178 529q-178 223 -446 223t-444.5 -188t-176.5 -510t175.5 -530t455.5 -208t447 188.5t167 495.5zM885.5 1462q343.5 0 572.5 -243q203 -215 203 -518t-240 -527q-217 -203 -537 -203t-553 212.5t-233 528.5t222 533t565.5 217z" />
    <glyph glyph-name="P" unicode="P" horiz-adv-x="1189" 
d="M1098 954q0 -104 -45 -201.5t-113 -148.5q-180 -137 -346 -137q-39 0 -100 12v6q43 -2 79 -2q174 0 283 123t109 330t-125 348t-303 141q-59 0 -134 -18l-4 -709q0 -336 15 -700q-43 6 -86 6t-86 -6v700q0 352 -9 736h84l234 14q229 0 388 -146.5t159 -347.5z" />
    <glyph glyph-name="Q" unicode="Q" horiz-adv-x="1759" 
d="M1528 686q0 307 -178 529q-178 223 -446 223t-444.5 -188t-176.5 -510t175.5 -530t455.5 -208t447 188.5t167 495.5zM1518 -334q-184 0 -324 101l-127 92q-143 104 -235.5 104t-184.5 -74l-4 5q59 57 129 86q-311 53 -492.5 254.5t-181.5 497.5t221 513t565 217t574 -243
q203 -213 203 -491t-164 -478.5t-450 -265.5q90 -25 174 -82l139 -95q160 -109 228 -109t134 40l4 -4q-84 -68 -208 -68z" />
    <glyph glyph-name="R" unicode="R" horiz-adv-x="1288" 
d="M266 1432l74 2l227 14q182 0 299 -101.5t117 -250.5q0 -117 -85 -205t-243 -127q324 -45 428 -389l31 -103q82 -276 221 -276q41 0 72 14l4 -4q-45 -29 -106 -29q-221 0 -324 320l-39 121q-106 330 -364 340v6q276 55 276 330q0 137 -93 233t-216 96q-53 0 -142 -16
q-6 -309 -6 -425l2 -474q0 -148 15 -510q-43 6 -84 6t-88 -6v700q0 244 -9 736q13 -2 33 -2z" />
    <glyph glyph-name="S" unicode="S" horiz-adv-x="933" 
d="M877 1434q-147 0 -211 -158q-46 -115 -96 -507t-173 -591q-125 -207 -344 -207q-113 0 -188 45q20 14 26 43q66 -59 187 -59q143 0 207 168q47 119 98 494q111 801 510 800q80 0 143 -35q-25 -14 -32 -38q-57 45 -127 45z" />
    <glyph glyph-name="T" unicode="T" horiz-adv-x="1015" 
d="M686 1401h-102v-703q0 -414 12 -700q-43 6 -85 6t-85 -6v700q0 279 -10 703q-238 0 -545 -15l6 23q0 12 -6 25q104 -6 315 -7h408q170 1 524 17l-51 -51q-188 8 -381 8z" />
    <glyph glyph-name="U" unicode="U" horiz-adv-x="1550" 
d="M793 -29q-264 0 -421 154t-157 401v371q0 123 -8 539q37 -6 86 -6t88 6q-16 -542 -16 -782t45 -347q129 -303 421 -303q233 0 359.5 194.5t126.5 569.5q0 252 -29 668q16 -6 28.5 -6t26.5 6l7 -602q0 -379 -84 -564q-137 -299 -473 -299z" />
    <glyph glyph-name="V" unicode="V" horiz-adv-x="1243" 
d="M98 1430q50 0 92 6q150 -420 498 -1227q147 348 481 1227q12 -6 27 -6t29 6q-47 -84 -607 -1477q-291 745 -618 1477q48 -6 98 -6z" />
    <glyph glyph-name="W" unicode="W" horiz-adv-x="1697" 
d="M78 1430q53 0 78 6q35 -133 448 -1221l225 571q-92 219 -276 650q41 -6 94 -6t78 6q76 -207 186 -482q102 262 183 482q16 -6 25 -6t28 6q-158 -360 -219 -525q84 -213 293 -702q92 250 428 1227q11 -6 27 -6t28 6q-180 -492 -541 -1477q-121 311 -317 784
q-88 -205 -303 -784q-147 428 -555 1477q37 -6 90 -6z" />
    <glyph glyph-name="X" unicode="X" horiz-adv-x="1163" 
d="M1072 4q-42 0 -89 -6q-276 428 -465 700q-272 -391 -469 -700q-19 6 -35 6t-34 -6q53 59 520 727q-358 530 -496 711q46 -6 96 -6t101 6q188 -285 397 -592q254 358 399 592q9 -6 31 -6t37 6q-100 -119 -449 -621q363 -553 560 -817q-62 6 -104 6z" />
    <glyph glyph-name="Y" unicode="Y" horiz-adv-x="1101" 
d="M653 477q0 -246 13 -479q-43 6 -85 6t-85 -6v616q-303 440 -590 822q121 -19 213 0q262 -399 526 -756q176 272 473 756q12 -6 20 -6t40 6q-80 -106 -525 -801v-158z" />
    <glyph glyph-name="Z" unicode="Z" horiz-adv-x="1081" 
d="M645 4h-170q-39 0 -510 -16q371 563 871 1413h-224q-217 0 -546 -12q6 18 6 29t-6 24q520 -16 784 -15l192 3q-436 -670 -856 -1399q435 0 914 14l-56 -53q-303 12 -399 12z" />
    <glyph glyph-name="bracketleft" unicode="[" horiz-adv-x="679" 
d="M244 682q0 365 -8 913q115 -6 143 -6h31q137 0 303 8l49 -41q-242 10 -400 11v-885q0 -528 11 -862q153 0 397 14l-49 -41l-334 4q-20 0 -143 -6v891z" />
    <glyph glyph-name="backslash" unicode="\" horiz-adv-x="884" 
d="M826 4q-26 0 -54 -6q-66 127 -373 698l-399 740q29 -6 61 -6t52 6q209 -399 393 -740l379 -698q-33 6 -59 6z" />
    <glyph glyph-name="bracketright" unicode="]" horiz-adv-x="679" 
d="M436 682v-891q-123 6 -143 6h-31l-303 -4l-49 41q244 -14 397 -14q10 494 10 862v885q-158 0 -399 -11l49 41q166 -8 303 -8h31q24 0 143 6q-8 -465 -8 -913z" />
    <glyph glyph-name="asciicircum" unicode="^" horiz-adv-x="1146" 
d="M264 283q0 -133 72 -204t203 -71q266 0 266 303q0 102 -8 219l-291 5q-127 0 -184.5 -59.5t-57.5 -192.5zM932 449q0 -217 -118 -344.5t-303 -127.5t-291.5 85t-106.5 205t78.5 192.5t224.5 89.5q-229 41 -230 223q0 92 87 158.5t201 66.5t220 -43q-18 -14 -20 -39
q-94 59 -184 59t-141.5 -55t-51.5 -165t69 -156q69 -45 232 -45q47 0 199 8q-6 84 -19 180q70 -4 94 -4t60 6v-180q139 0 182 4q-4 -16 -4 -20l4 -21q-43 0 -182 4v-81z" />
    <glyph glyph-name="underscore" unicode="_" horiz-adv-x="473" 
d="M344 59q-55 -33 -108 -96q-35 61 -107 123q66 39 111 90q32 -56 104 -117zM258 342q0 -35 4 -78q-20 4 -22 4t-23 -4q14 72 14 105q0 207 -92 503q98 80 133 146q53 -47 54 -125q0 -20 -34 -205.5t-34 -345.5z" />
    <glyph glyph-name="grave" unicode="`" 
d="M670 1098l-4 -4l-492 237q88 12 156 80z" />
    <glyph glyph-name="a" unicode="a" horiz-adv-x="1054" 
d="M694 336q-96 207 -223 461q-82 -229 -164 -461h387zM929 4q-11 0 -83 -6q-31 74 -141 315h-70q-174 0 -338 -6q-37 -104 -107 -309q-18 6 -28 6l-21 -6q45 109 119 309q-74 -2 -268 -10l6 20l-6 25q147 -6 280 -6q16 39 248 665q318 -671 496 -1003q-76 6 -87 6z" />
    <glyph glyph-name="b" unicode="b" horiz-adv-x="948" 
d="M500 12q104 0 164.5 67.5t60.5 193.5t-69.5 199t-196.5 75v4q182 14 182 205q0 92 -54.5 149.5t-140.5 57.5q-41 0 -90 -13l-2 -438q0 -238 8 -469q84 -31 138 -31zM836 262q0 -113 -92.5 -191.5t-245.5 -78.5l-187 8h-98v477q0 268 -8 498h69l172 10q131 0 217.5 -66.5
t86.5 -158.5q-1 -156 -228 -207q145 -23 229.5 -100.5t84.5 -190.5z" />
    <glyph glyph-name="c" unicode="c" horiz-adv-x="1052" 
d="M84 478q0 220 162 369.5t401 149.5q143 0 314 -75q-23 -16 -23 -45q-170 98 -295 98q-188 0 -293.5 -127.5t-105.5 -351.5t116 -359t290 -135t358 148l-21 -74q-156 -98 -323 -99q-260 0 -420 140.5t-160 360.5z" />
    <glyph glyph-name="d" unicode="d" horiz-adv-x="1150" 
d="M510 12q207 0 320.5 127t113.5 347t-122 347.5t-316 127.5q-39 0 -148 -15v-252q-5 -299 9 -651q98 -31 143 -31zM213 0v475q0 264 -6 500h80l235 10q233 0 385 -145.5t152 -359.5t-149.5 -352t-403.5 -138l-199 10h-94z" />
    <glyph glyph-name="e" unicode="e" horiz-adv-x="1052" 
d="M610 500h-221v-27q0 -215 12 -440q61 -2 199 -2t352 8l-37 -47q-246 12 -303 12h-186l-180 -4v500h-228l17 24h211q-2 328 -13 453q115 -6 150 -6h72q158 0 419 10l35 -45q-260 8 -520 8v-420q313 0 572 15q-4 -10 -4 -22t4 -28l-230 9q-78 2 -121 2z" />
    <glyph glyph-name="f" unicode="f" horiz-adv-x="993" 
d="M387 500v-27q0 -252 12 -477q-37 6 -69 6t-86 -6v504h-213l14 24h199q-2 252 -13 453q117 -6 150 -6h72q158 0 424 10l34 -45q-262 8 -524 8v-420q227 0 535 15q-4 -10 -4 -22t4 -28q-104 10 -287 11h-248z" />
    <glyph glyph-name="g" unicode="g" horiz-adv-x="1175" 
d="M1061 72q-68 0 -207 -47.5t-215 -47.5q-231 0 -393 145.5t-162 360.5t162 364.5t407 149.5q160 0 316 -88l24 -75q-174 141 -354 141t-287.5 -131.5t-107.5 -351.5t115.5 -354t280.5 -134t288 100v107q0 125 -17 315q53 -4 73 -4t75 4v-200q0 -80 10 -254h-8z" />
    <glyph glyph-name="h" unicode="h" horiz-adv-x="1361" 
d="M1110 500v-27q0 -252 12 -477q-38 6 -70 6t-87 -6v504h-205q-59 0 -322 -4v-23q0 -197 15 -477q-37 6 -70 6t-88 -6v496l-272 -9l4 23q0 2 -4 22l542 -6q-23 1 -90 2h490q0 211 -11 453q41 -6 76 -6t80 6v-453h154l-15 -24h-139zM438 525v-1h37q-17 1 -37 1zM295 526
q0 86 -10 451q37 -6 73 -6t80 6v-452q-59 1 -143 1z" />
    <glyph glyph-name="i" unicode="i" horiz-adv-x="595" 
d="M306 2q-38 0 -81 -6v477q0 207 -10 504q37 -6 73 -6t81 6v-504q0 -188 14 -477q-39 6 -77 6z" />
    <glyph glyph-name="j" unicode="j" horiz-adv-x="546" 
d="M6 -215q219 0 219 354q0 217 -35 838q80 -6 90 -6t68 6v-352l12 -453q0 -166 -111.5 -283.5t-301.5 -150.5l-29 59q51 -12 88 -12z" />
    <glyph glyph-name="k" unicode="k" horiz-adv-x="1011" 
d="M294 2q-38 0 -81 -6v477q0 207 -10 504q37 -6 73 -6t80 6v-504q1 -188 15 -477q-39 6 -77 6zM979 -18q-145 0 -254 223l-35 71q-117 242 -305 242h-6q59 57 432 459q9 -4 27 -4t32 4q-37 -29 -446 -445q301 -27 410 -323l28 -78q49 -133 131 -133q31 0 56 8l6 -4
q-45 -20 -76 -20z" />
    <glyph glyph-name="l" unicode="l" horiz-adv-x="825" 
d="M565 4h-172l-180 -4v473q0 207 -10 504q37 -6 73 -6t80 6v-504q0 -162 15 -440q55 -2 169 -2t312 8l-37 -47q-199 12 -250 12z" />
    <glyph glyph-name="m" unicode="m" horiz-adv-x="1331" 
d="M1233 -2q-45 4 -82 4l-68 -4q-31 233 -137 717q-76 -170 -311 -744q-199 430 -373 754q-49 -344 -90 -727l-20 4q-8 0 -29 -4q98 655 141 1001q135 -276 414 -819q186 408 348 819q64 -378 207 -1001z" />
    <glyph glyph-name="n" unicode="n" horiz-adv-x="1251" 
d="M1018 977h6q15 2 23 4q-7 -116 -7 -1010q-451 467 -798 789q0 -311 12 -762l-27 4q-6 0 -22 -4q6 424 6 1003q313 -348 799 -782q0 289 -13 762q16 -4 21 -4z" />
    <glyph glyph-name="o" unicode="o" horiz-adv-x="1269" 
d="M1071 475q0 219 -118.5 360.5t-296.5 141.5t-295 -126t-117 -321q0 -242 116 -384t304 -142t297.5 126t109.5 345zM641 996.5q240 -0.5 392 -156.5q153 -156 153 -361t-157 -353t-383 -148t-394 145t-168 361t158.5 364.5t398.5 148z" />
    <glyph glyph-name="p" unicode="p" horiz-adv-x="917" 
d="M831 646q0 -132 -105 -232.5t-245 -100.5q-16 0 -69 13v4h41q25 -2 34 -2q98 0 167 86t69 225t-84 232.5t-205 93.5q-29 0 -76 -13q-2 -61 -2 -355t15 -601q-39 6 -77 6t-81 -6v477q0 291 -8 502h61l189 10q154 0 265 -103.5t111 -235.5z" />
    <glyph glyph-name="q" unicode="q" horiz-adv-x="1269" 
d="M1071 475q0 219 -118.5 360.5t-296.5 141.5t-295 -126t-117 -321q0 -242 116 -384t304 -142t297.5 126t109.5 345zM84 483q0 217 158.5 365.5t398.5 148t392 -156.5q153 -156 153 -344t-114 -325.5t-304 -182.5q61 -18 96 -43l94 -68q123 -88 189 -88q35 0 82 29l4 -4
q-66 -53 -152 -54q-139 0 -254 82l-71 52q-106 76 -170 76t-140 -58l-4 4q51 49 115 70q-219 39 -346 176t-127 321z" />
    <glyph glyph-name="r" unicode="r" horiz-adv-x="1001" 
d="M750 750q0 -172 -242 -232q225 -31 311 -270l25 -68q68 -184 141 -184q31 0 55 12l4 -4q-39 -23 -71 -22q-166 0 -248 221l-31 84q-39 109 -92 161t-145 66v4q184 37 184 225q0 96 -61.5 161t-147.5 65q-8 0 -74 -15q-2 -61 -2 -356t15 -602q-39 6 -77 6t-81 -6v477
q0 291 -8 502h61l172 10q137 0 228 -70q84 -68 84 -165z" />
    <glyph glyph-name="s" unicode="s" horiz-adv-x="735" 
d="M647 975q-90 0 -131 -105q-28 -76 -66 -343t-130 -408t-257 -142q-86 0 -135 31q14 18 19 41q53 -47 139 -47t130 96t72 350t129 401q101 148 253 148q59 1 100 -22q-16 -16 -22 -37q-49 37 -101 37z" />
    <glyph glyph-name="t" unicode="t" horiz-adv-x="800" 
d="M471 473q0 -252 12 -477q-37 6 -75 6t-80 -6v477q0 199 -13 471q-215 0 -370 -14q4 8 4 19t-4 26q74 -6 225 -6h289q137 0 383 14l-37 -47q-109 4 -334 8v-471z" />
    <glyph glyph-name="u" unicode="u" horiz-adv-x="1114" 
d="M168 356v252q0 14 -3 134t-5 235q35 -6 76 -6t86 6q-10 -276 -11 -522q0 -442 299 -443q319 0 320 496q0 94 -27 471q16 -6 26.5 -6t24.5 6l7 -438q0 -563 -388 -564q-180 0 -292.5 108t-112.5 271z" />
    <glyph glyph-name="v" unicode="v" horiz-adv-x="923" 
d="M88 971q32 0 102 6q137 -358 336 -793q86 197 326 793q8 -4 22 -4l27 6q-262 -592 -440 -1014q-207 506 -445 1012q40 -6 72 -6z" />
    <glyph glyph-name="w" unicode="w" horiz-adv-x="1257" 
d="M102 971q46 0 76 6q109 -322 303 -791q92 225 135 344q-133 305 -200 447q37 -6 84 -6t73 6q25 -57 119 -295q16 41 107 295l22 -4q12 2 25 4q-98 -229 -139 -332q47 -111 200 -467q121 330 271 797q20 -4 28 -4t25 6q-35 -78 -375 -1012l-223 531q-51 -129 -209 -531
q-209 549 -406 1012q38 -6 84 -6z" />
    <glyph glyph-name="x" unicode="x" horiz-adv-x="905" 
d="M790 4q-20 0 -73 -6q-113 182 -303 463q-88 -119 -318 -465q-27 9 -63 0q145 188 362 491q-172 250 -354 494q91 -10 111 -10t71 6q47 -76 252 -387q162 221 268 393q7 -6 25 -6t37 6q-139 -178 -313 -420q219 -325 401 -569q-83 10 -103 10z" />
    <glyph glyph-name="y" unicode="y" horiz-adv-x="878" 
d="M530 324q0 -172 9 -328q-43 6 -83 6t-69 -6v418q-229 342 -410 563q49 -6 103 -6t88 6q180 -281 350 -510q170 262 307 510l25 -4l31 6q-98 -137 -351 -547v-108z" />
    <glyph glyph-name="z" unicode="z" horiz-adv-x="825" 
d="M508 4h-125q-33 0 -375 -10q281 408 604 952q-195 0 -526 -12l4 22q0 6 -4 25q395 -10 571 -10h140q-416 -631 -596 -942q301 4 635 14l-37 -47q-174 8 -291 8z" />
    <glyph glyph-name="braceleft" unicode="{" horiz-adv-x="679" 
d="M264 66q0 39 6 84l35 260q12 92 12 114q0 88 -34.5 124t-122.5 44v4q90 8 123.5 44t33.5 128q0 18 -12 111l-35 260q-6 45 -6 102q0 268 289 275v-4q-94 -16 -128 -72.5t-34 -177.5q0 -2 10 -131l21 -258q4 -51 4 -78q0 -152 -184 -199v-4q184 -47 184 -209q0 -12 -4 -67
l-21 -258q-10 -129 -10 -146q0 -111 36 -165t126 -70v-4q-289 6 -289 293z" />
    <glyph glyph-name="bar" unicode="|" horiz-adv-x="706" 
d="M539 248q0 94 -109 151l-61 33v-352q170 35 170 168zM186 764q0 -78 121 -141l31 -17v299q-152 -37 -152 -141zM369 -72h-31v125q-16 -2 -39 -2q-111 0 -244 64q18 16 25 37q115 -78 227 -78q14 0 31 2v366l-70 39q-152 84 -151 217q0 164 221 226v114h31v-110h20
q63 0 172 -37q-18 -14 -20 -39q-63 45 -172 55v-313l116 -64q137 -74 138 -223q0 -94 -68 -161.5t-186 -88.5v-129z" />
    <glyph glyph-name="braceright" unicode="}" horiz-adv-x="679" 
d="M362 520q0 -18 13 -110l35 -260q6 -45 6 -103q0 -270 -289 -274v4q94 18 128 73.5t34 176.5q0 2 -10 131l-21 258q-4 51 -4 88q0 141 184 188v4q-184 47 -184 199q0 27 4 78l27 334q4 51 4 69q0 111 -36 165t-126 71v4q289 -6 289 -275q0 -57 -6 -102l-35 -260
q-13 -93 -13 -149t35 -90.5t123 -43.5v-4q-90 -8 -124 -44t-34 -128z" />
    <glyph glyph-name="asciitilde" unicode="~" horiz-adv-x="780" 
d="M449 793q-94 0 -152.5 -81t-58.5 -216t81 -238l246 496q-57 39 -116 39zM457 193q119 0 229 104l-22 -66q-90 -59 -186 -59t-159 21l-110 -222l-27 13l111 219q-201 98 -201 282q0 131 104.5 229.5t249.5 98.5q63 0 138 -25l78 158l26 -12l-78 -156q29 -12 70 -35
q-31 -18 -49 -63q-14 23 -43 53l-246 -495q53 -45 115 -45z" />
    <glyph glyph-name="nonbreakingspace" unicode="&#xa0;" horiz-adv-x="446" 
 />
    <glyph glyph-name="exclamdown" unicode="&#xa1;" horiz-adv-x="616" 
d="M250 -387q0 29 27.5 299t27.5 506l-6 233q19 -4 25 -4t22 4q-14 -74 -14 -202q0 -403 127 -809q-100 -88 -150 -181q-59 59 -59 154zM432 856q-59 -33 -110 -90q-37 59 -105 117q57 33 109 96q32 -57 106 -123z" />
    <glyph glyph-name="cent" unicode="&#xa2;" horiz-adv-x="1099" 
d="M614 1163q-150 0 -249 -124.5t-99 -324.5t156 -358l369 750q-90 57 -177 57zM633 252q-111 0 -203 35l-156 -318l-32 19l153 313q-274 156 -274 408q0 201 143.5 340t351.5 139q96 0 197 -33l105 211l32 -16l-102 -207q61 -27 100 -49q-45 -25 -65 -80q-16 27 -64 67
l-366 -747q84 -57 182 -58q173 1 323 144l-26 -82q-129 -86 -299 -86z" />
    <glyph glyph-name="sterling" unicode="&#xa3;" horiz-adv-x="1165" 
d="M1071 551q0 -14 6 -27q-403 10 -635 11q-41 -217 -241 -494l4 -4q164 129 309 129q90 0 205 -47l110 -45q121 -49 154 -49q104 0 174 96l4 -4q-82 -154 -278 -154q-78 0 -185 37l-141 49q-100 35 -162 35q-154 0 -299 -166l-4 4q113 123 157 249t44 298v20q-2 23 -2 46
h-275l19 24h256q-2 49 -2 103q0 372 128 586t324 214q133 0 263 -80q-20 -8 -31 -34q-113 88 -232 88q-289 0 -288 -445l4 -311q0 -59 -11 -121q459 2 631 14q-6 -8 -6 -22z" />
    <glyph glyph-name="currency" unicode="&#xa4;" horiz-adv-x="585" 
d="M328 59q-55 -33 -109 -96q-39 63 -106 123q66 39 110 90q31 -54 105 -117zM243 997q107 0 187 -70.5t80 -194.5t-123 -206q-68 -39 -135 -77q-55 -35 -55 -66q0 -49 82 -92q-16 -8 -27 -31q-121 128 -121 194t53 111q18 15 120 77t114 73q33 31 33 93t-66 115.5
t-154 53.5t-186 -74q-2 23 -18 39q109 55 216 55z" />
    <glyph glyph-name="yen" unicode="&#xa5;" horiz-adv-x="1181" 
d="M145 606q9 33 0 49q76 -8 371 -8q-219 350 -518 789q122 -19 213 0q137 -244 475 -756q178 319 389 756q12 -6 27 -6t33 6q-66 -121 -435 -789h377l-20 -26l-363 2v-203h383l-20 -27l-363 2q0 -80 13 -397q-43 6 -85 6t-85 -6v393l-392 -12q11 29 0 49q82 -8 392 -8
l-2 198z" />
    <glyph glyph-name="brokenbar" unicode="&#xa6;" 
d="M557 408v-758h-90v758h90zM557 1432v-758h-90v758h90z" />
    <glyph glyph-name="section" unicode="&#xa7;" horiz-adv-x="1003" 
d="M866 328q0 92 -56 165t-183 175l-162 131q-199 160 -225 235q-90 -68 -90 -174q0 -72 56 -140t181 -165l158 -123q202 -158 243 -254q78 58 78 150zM930 426q0 -150 -131 -285q8 -66 8 -90q0 -123 -101 -216q-100 -93 -248 -93t-306 88q27 12 36 45q123 -106 281 -106
q98 0 174 67.5t76 145.5t-52 141t-167 153l-193 152q-211 166 -211 360q0 162 131 285q-8 39 -8 84q0 129 95.5 217t240.5 88q106 0 219 -37q-25 -18 -26 -45q-94 58 -196 58t-176.5 -66.5t-74.5 -145.5q-1 -80 57 -142t197 -169l160 -120q215 -162 215 -369z" />
    <glyph glyph-name="dieresis" unicode="&#xa8;" 
d="M422 1188q-61 -37 -109 -96q-29 51 -106 122q59 35 110 91q31 -51 105 -117zM813 1188q-61 -37 -108 -96q-29 51 -107 122q59 35 111 91q30 -51 104 -117z" />
    <glyph glyph-name="copyright" unicode="&#xa9;" horiz-adv-x="833" 
d="M408 6q-102 0 -369 -8q471 274 471 686q0 133 -62.5 214t-149.5 81t-196 -68q-2 20 -18 39q111 49 205 49q164 0 270.5 -90t106.5 -219q0 -240 -398 -551q66 -4 214 -4t237 6q-6 -31 -6 -65t6 -74q-209 4 -311 4z" />
    <glyph glyph-name="ordfeminine" unicode="&#xaa;" horiz-adv-x="829" 
d="M471 2q82 0 129 52t47 134t-49 135.5t-134 53.5t-200 -66q8 -147 66.5 -228t140.5 -81zM492 399q110 0 186 -56t76 -141t-79 -153.5t-194 -68.5q-162 0 -268.5 107t-106.5 281t123 346.5t355 301.5q6 -23 24 -35q-348 -109 -348 -600v-31q122 49 232 49z" />
    <glyph glyph-name="guillemotleft" unicode="&#xab;" horiz-adv-x="935" 
d="M500 33l-4 -4q-229 274 -414 436q197 176 414 436l4 -4q-156 -262 -242 -432q90 -182 242 -432zM870 33l-4 -4q-229 274 -413 436q197 176 413 436l4 -4q-156 -262 -241 -432q89 -182 241 -432z" />
    <glyph glyph-name="logicalnot" unicode="&#xac;" horiz-adv-x="815" 
d="M402 2q106 0 166.5 61.5t60.5 148.5t-84 163q-108 82 -217 164q-188 -94 -189 -281q0 -111 78.5 -183.5t184.5 -72.5zM423 975q-60 0 -103.5 -42t-43.5 -99q1 -92 179 -201q117 66 116 184q0 63 -44 110.5t-104 47.5zM399 -23q-129 0 -216 84t-87 197q0 178 207 301
q-106 91 -106 199t64.5 173.5t150.5 65.5t141 -50t55 -122q0 -109 -123 -211q225 -135 226 -323q0 -133 -91.5 -223.5t-220.5 -90.5z" />
    <glyph glyph-name="minus" unicode="&#xad;" horiz-adv-x="1705" 
d="M1452 651v-80h-1198v80h1198z" />
    <glyph glyph-name="minus" unicode="&#x2212;" horiz-adv-x="1705" 
d="M1452 651v-80h-1198v80h1198z" />
    <glyph glyph-name="registered" unicode="&#xae;" horiz-adv-x="651" 
d="M293 500q0 160 -2 301q-51 -49 -150 -176q-10 23 -28 28q213 217 323 361v-514q0 -297 8 -502q-53 4 -82 4l-69 -4v502z" />
    <glyph glyph-name="macron" unicode="&#xaf;" 
d="M311 1192q-82 0 -145 -10q63 49 65 114h471q74 1 146 11q-63 -53 -66 -115h-471z" />
    <glyph glyph-name="macron" unicode="&#x2c9;" 
d="M311 1192q-82 0 -145 -10q63 49 65 114h471q74 1 146 11q-63 -53 -66 -115h-471z" />
    <glyph glyph-name="degree" unicode="&#xb0;" horiz-adv-x="681" 
d="M504 1257.5q0 69.5 -48 118.5t-116 49t-116 -49t-48 -118.5t48 -118.5t116 -49t116 49t48 118.5zM545 1257.5q0 -83.5 -60.5 -144t-144.5 -60.5t-144.5 60.5t-60.5 144t60.5 144t144.5 60.5t144.5 -60.5t60.5 -144z" />
    <glyph glyph-name="plusminus" unicode="&#xb1;" horiz-adv-x="888" 
d="M487 346v154q0 166 -2 297q-170 -184 -393 -453h277l41 2h77zM625 500l2 -150q33 0 223 10l-4 -22v-6q0 -5 4 -17h-10q-88 0 -164 6l-62 5h-2q0 -2 15 -4q2 -137 6 -324q-53 4 -82 4l-64 -4v324l-460 2q317 346 598 690v-514z" />
    <glyph glyph-name="twosuperior" unicode="&#xb2;" horiz-adv-x="698" 
d="M455 1171q0 123 -61.5 195t-162.5 72q-68 0 -174 -58q-2 16 -14 27q115 43 188 43q150 0 246 -80t96 -196q0 -238 -391 -506q48 -4 184 -4t246 6q-6 -20 -6 -40t6 -55l-293 5q-82 0 -317 -9q240 127 346.5 265.5t106.5 334.5z" />
    <glyph glyph-name="threesuperior" unicode="&#xb3;" horiz-adv-x="667" 
d="M586 827q0 -115 -96.5 -193.5t-245.5 -78.5q-98 0 -203 47l-16 49q107 -80 213 -80t169.5 70t63.5 184q0 229 -223 234v2q168 27 168 194q0 84 -46 132.5t-123 48.5t-173 -56q-8 16 -19 25q98 45 207 45t184.5 -53.5t75.5 -126.5q0 -142 -207 -205q127 -20 199 -86
t72 -152z" />
    <glyph glyph-name="acute" unicode="&#xb4;" 
d="M856 1329l-491 -237l-5 4l340 313q66 -68 156 -80z" />
    <glyph glyph-name="mu" unicode="&#xb5;" horiz-adv-x="845" 
d="M354 598q170 0 272.5 -85t102.5 -215t-108.5 -224t-270.5 -94q-115 0 -223 57l-18 69q121 -104 231 -104t174 81t64 213t-59 207t-153 75t-192 -62q27 252 33 457l299 -10q111 0 137 55q-6 -186 -117 -187l-221 5q-39 0 -80 -2q-22 -173 -22 -267q84 31 151 31z" />
    <glyph glyph-name="mu" unicode="&#x3bc;" horiz-adv-x="845" 
d="M354 598q170 0 272.5 -85t102.5 -215t-108.5 -224t-270.5 -94q-115 0 -223 57l-18 69q121 -104 231 -104t174 81t64 213t-59 207t-153 75t-192 -62q27 252 33 457l299 -10q111 0 137 55q-6 -186 -117 -187l-221 5q-39 0 -80 -2q-22 -173 -22 -267q84 31 151 31z" />
    <glyph glyph-name="paragraph" unicode="&#xb6;" horiz-adv-x="1079" 
d="M827 313q0 45 -11 309.5t-11 485.5v299h-109v-365q0 -86 8 -339.5t8 -450.5t-57 -303q172 127 172 364zM920 1434v-4q-66 -18 -66 -109v-317l6 -666q0 -233 -148.5 -383t-416.5 -188l-39 69q55 -12 102 -12q324 0 324 389q0 -47 -18 422h-103q-193 0 -321.5 121
t-128.5 291t120.5 282.5t298.5 112.5l181 -8h209z" />
    <glyph glyph-name="periodcentered" unicode="&#xb7;" horiz-adv-x="888" 
d="M727 43q70 0 109 51l4 -4q-72 -119 -193 -119q-55 0 -137 25l-55 16q-96 29 -142 29q-121 0 -209 -100l-4 4q127 145 127 372v45h-194l12 25h182q-4 35 -4 98q0 229 94.5 370.5t233.5 141.5q98 0 184 -55q-18 -8 -24 -31q-88 63 -160 64q-178 0 -178 -285l4 -219
q0 -6 -8 -84q100 0 415 12l-4 -22l4 -23q-221 8 -419 8q-37 -162 -191 -339l4 -5q123 106 215 107q55 0 137 -27l152 -49q18 -6 45 -6z" />
    <glyph glyph-name="periodcentered" unicode="&#x2219;" horiz-adv-x="888" 
d="M727 43q70 0 109 51l4 -4q-72 -119 -193 -119q-55 0 -137 25l-55 16q-96 29 -142 29q-121 0 -209 -100l-4 4q127 145 127 372v45h-194l12 25h182q-4 35 -4 98q0 229 94.5 370.5t233.5 141.5q98 0 184 -55q-18 -8 -24 -31q-88 63 -160 64q-178 0 -178 -285l4 -219
q0 -6 -8 -84q100 0 415 12l-4 -22l4 -23q-221 8 -419 8q-37 -162 -191 -339l4 -5q123 106 215 107q55 0 137 -27l152 -49q18 -6 45 -6z" />
    <glyph glyph-name="cedilla" unicode="&#xb8;" 
d="M666 -216q0 -69 -59 -115t-137 -46t-146 43l4 4q59 -25 114 -24q119 0 119 143q0 57 -27.5 93t-65.5 36t-67 -27l54 125h26l-35 -84q33 4 46 5q76 0 125 -42t49 -111z" />
    <glyph glyph-name="onesuperior" unicode="&#xb9;" horiz-adv-x="532" 
d="M303 575q-37 0 -55 -4l-2 736q-68 -63 -152 -172q-10 16 -26 22q184 178 284 305v-450q0 -296 8 -441q-20 4 -57 4z" />
    <glyph glyph-name="ordmasculine" unicode="&#xba;" horiz-adv-x="743" 
d="M197.5 844q-95.5 0 -125.5 -58h-4q27 113 36 195q84 -6 166 -6h437q-311 -688 -449 -1022q-19 6 -51 2q39 76 411 889q-94 4 -129 4l-98 -2q-98 -2 -193.5 -2z" />
    <glyph glyph-name="guillemotright" unicode="&#xbb;" horiz-adv-x="935" 
d="M483 465q-184 -162 -413 -436l-4 4q152 250 241 432q-86 170 -241 432l4 4q231 -276 413 -436zM854 465q-184 -162 -414 -436l-4 4q152 250 242 432q-86 170 -242 432l4 4q217 -260 414 -436z" />
    <glyph glyph-name="onequarter" unicode="&#xbc;" horiz-adv-x="1964" 
d="M1463 281l184 2v108l-2 293q-98 -98 -361 -401h90q57 -2 89 -2zM1946 264l-199 2l6 -268q-16 4 -51 4t-55 -4v270l-291 2h-121q270 279 512 559v-544l199 6q-4 -3 -4 -13t4 -14zM431 -25q-20 0 -32 -6l873 1495q12 -6 28 -6t35 6l-452 -768q-106 -180 -420 -727
q-12 6 -32 6zM290 633q-36 0 -54 -4v686q-63 -57 -148 -162q-6 16 -25 23q174 160 273 284v-420q0 -274 8 -411q-18 4 -54 4z" />
    <glyph glyph-name="onehalf" unicode="&#xbd;" horiz-adv-x="1894" 
d="M1663 557q0 115 -59.5 182.5t-140.5 67.5t-179 -53q-4 14 -14 24q111 41 180 41q143 0 234.5 -74.5t91.5 -183.5q0 -223 -373 -473q47 -4 176 -4t233 6q-4 -14 -4 -41t4 -47l-278 4q-80 0 -303 -8q227 119 329.5 248t102.5 311zM431 -25q-20 0 -32 -6l873 1495
q12 -6 28 -6t35 6l-452 -768q-106 -180 -420 -727q-12 6 -32 6zM290 633q-36 0 -54 -4v686q-63 -57 -148 -162q-6 16 -25 23q174 160 273 284v-420q0 -274 8 -411q-18 4 -54 4z" />
    <glyph glyph-name="threequarters" unicode="&#xbe;" horiz-adv-x="2093" 
d="M1592 281l184 2v108l-2 293q-98 -98 -361 -401h90q57 -2 89 -2zM2075 264l-199 2l6 -268q-16 4 -51 4t-55 -4v270l-291 2h-121q270 279 512 559v-544l199 6q-4 -3 -4 -13t4 -14zM560 -25q-20 0 -32 -6l873 1495q13 -6 29 -6t34 6l-452 -768q-106 -180 -420 -727
q-12 6 -32 6zM559 854q0 -94 -91 -167t-235 -73q-96 0 -192 43l-18 45q104 -74 204 -74t162 65t62 173q0 213 -215 217v2q162 27 161 183q0 78 -43.5 123t-119.5 45t-164 -54q-2 10 -17 25q90 41 196 41t181 -49q70 -49 70 -117q0 -135 -199 -192q121 -18 189.5 -80
t68.5 -156z" />
    <glyph glyph-name="questiondown" unicode="&#xbf;" horiz-adv-x="854" 
d="M573 -520q-205 0 -340 117.5t-135 291.5q0 135 74 226q58 76 202 165t167 107q57 45 57 92q0 72 -115 146q23 10 29 34q172 -176 172 -297q0 -59 -55 -108q-323 -223 -365 -262q-86 -80 -86 -182q0 -131 109.5 -218.5t281.5 -87.5q119 0 269 101q5 -29 28 -39
q-164 -86 -293 -86zM645 856q-66 -39 -110 -90q-37 59 -105 117q57 33 109 96q28 -53 106 -123z" />
    <glyph glyph-name="Agrave" unicode="&#xc0;" horiz-adv-x="1425" 
d="M993 504q-250 539 -344 727q-96 -272 -252 -727h596zM227 -2q-24 8 -55 0q6 14 176 475q-14 0 -348 -10q6 12 6 24t-6 25q6 0 358 -8q125 348 344 962q258 -550 378 -804t329 -664q-82 6 -99 6t-85 -6q-154 346 -219 483h-121q-260 0 -498 -6q-37 -100 -160 -477z
M870 1563l-4 -4l-491 237q88 12 155 80z" />
    <glyph glyph-name="Aacute" unicode="&#xc1;" horiz-adv-x="1425" 
d="M993 504q-250 539 -344 727q-96 -272 -252 -727h596zM227 -2q-24 8 -55 0q6 14 176 475q-14 0 -348 -10q6 12 6 24t-6 25q6 0 358 -8q125 348 344 962q258 -550 378 -804t329 -664q-82 6 -99 6t-85 -6q-154 346 -219 483h-121q-260 0 -498 -6q-37 -100 -160 -477z
M1057 1794l-492 -238l-4 5l340 313q66 -68 156 -80z" />
    <glyph glyph-name="Acircumflex" unicode="&#xc2;" horiz-adv-x="1425" 
d="M993 504q-250 539 -344 727q-96 -272 -252 -727h596zM227 -2q-24 8 -55 0q6 14 176 475q-14 0 -348 -10q6 12 6 24t-6 25q6 0 358 -8q125 348 344 962q258 -550 378 -804t329 -664q-82 6 -99 6t-85 -6q-154 346 -219 483h-121q-260 0 -498 -6q-37 -100 -160 -477z
M1071 1556l-4 -4l-352 164l-353 -164l-4 4q254 195 357 308q112 -126 356 -308z" />
    <glyph glyph-name="Atilde" unicode="&#xc3;" horiz-adv-x="1425" 
d="M993 504q-250 539 -344 727q-96 -272 -252 -727h596zM227 -2q-24 8 -55 0q6 14 176 475q-14 0 -348 -10q6 12 6 24t-6 25q6 0 358 -8q125 348 344 962q258 -550 378 -804t329 -664q-82 6 -99 6t-85 -6q-154 346 -219 483h-121q-260 0 -498 -6q-37 -100 -160 -477z
M475 1718q-74 0 -135 -84l-4 4q84 158 225 158q66 0 135 -29l119 -49q80 -33 127 -32q72 0 133 81l4 -4q-84 -158 -227 -157q-63 0 -133 28l-119 49q-84 35 -125 35z" />
    <glyph glyph-name="Adieresis" unicode="&#xc4;" horiz-adv-x="1425" 
d="M993 504q-250 539 -344 727q-96 -272 -252 -727h596zM227 -2q-24 8 -55 0q6 14 176 475q-14 0 -348 -10q6 12 6 24t-6 25q6 0 358 -8q125 348 344 962q258 -550 378 -804t329 -664q-82 6 -99 6t-85 -6q-154 346 -219 483h-121q-260 0 -498 -6q-37 -100 -160 -477z
M623 1653q-61 -37 -109 -97q-29 51 -106 123q59 35 110 90q31 -50 105 -116zM1014 1653q-61 -37 -109 -97q-29 51 -106 123q59 35 110 90q31 -50 105 -116z" />
    <glyph glyph-name="Aring" unicode="&#xc5;" horiz-adv-x="1425" 
d="M993 504q-250 539 -344 727q-96 -272 -252 -727h596zM829 1599.5q0 53.5 -37.5 92.5t-89.5 39t-89.5 -38t-37.5 -93.5t37 -93.5t89 -38t90 39t38 92.5zM227 -2q-24 8 -55 0q6 14 176 475q-14 0 -348 -10q6 12 6 24t-6 25q6 0 358 -8q174 475 334 936q-150 31 -149 159
q0 68 47 114t112.5 46t112.5 -47t47 -113q0 -125 -147 -159q368 -803 694 -1442q-82 6 -99 6t-85 -6q-154 346 -219 483h-121q-260 0 -498 -6q-37 -100 -160 -477z" />
    <glyph glyph-name="AE" unicode="&#xc6;" horiz-adv-x="2062" 
d="M987 504v346q0 182 -8 512q-45 -78 -502 -858h510zM1239 4q-96 0 -252 -4v481h-115q-35 0 -411 -4q-113 -195 -273 -479q-14 6 -26 6t-35 -6q59 98 289 477l-428 -12q6 12 6 24t-6 25q8 -2 444 -8q258 428 553 932q150 -8 199 -9h100q203 0 551 11l49 -49
q-401 12 -647 12h-92v-633q690 6 803 14q-6 -12 -6 -26l6 -25l-748 12h-33q-18 -2 -22 -2v-116q0 -168 10 -592q119 -2 282 -2t502 12l-51 -51q-301 12 -393 12h-256z" />
    <glyph glyph-name="Ccedilla" unicode="&#xc7;" horiz-adv-x="1445" 
d="M1024 -216q0 -69 -59 -115t-137 -46t-146 43l4 4q59 -25 115 -24q119 0 119 143q0 57 -28 93t-66 36t-66 -27l35 86q-322 47 -509 245t-188 476q0 166 67 314t173 235q266 215 553 215q236 0 467 -106q-29 -20 -35 -47q-217 127 -430 127q-276 0 -442 -193.5t-166 -521.5
q0 -401 286 -610q155 -113 355 -113t489 203l-26 -84q-229 -145 -471 -146q-35 0 -97 4l-16 -43q33 4 45 5q76 0 125 -42t49 -111z" />
    <glyph glyph-name="Egrave" unicode="&#xc8;" horiz-adv-x="1406" 
d="M563 4q-96 0 -252 -4v741h-278l20 27h258q0 303 -10 668l207 -9h100q158 0 588 11l49 -49q-436 12 -776 12v-633q719 4 840 14q-6 -12 -6 -26t6 -25l-781 12h-34q-20 -2 -25 -2v-116q0 -223 10 -592q119 -2 273 -2t548 12l-51 -51q-340 12 -422 12h-264zM918 1563l-5 -4
l-491 237q88 12 156 80z" />
    <glyph glyph-name="Eacute" unicode="&#xc9;" horiz-adv-x="1406" 
d="M563 4q-96 0 -252 -4v741h-278l20 27h258q0 303 -10 668l207 -9h100q158 0 588 11l49 -49q-436 12 -776 12v-633q719 4 840 14q-6 -12 -6 -26t6 -25l-781 12h-34q-20 -2 -25 -2v-116q0 -223 10 -592q119 -2 273 -2t548 12l-51 -51q-340 12 -422 12h-264zM1104 1794
l-492 -238l-4 5l340 313q66 -68 156 -80z" />
    <glyph glyph-name="Ecircumflex" unicode="&#xca;" horiz-adv-x="1406" 
d="M563 4q-96 0 -252 -4v741h-278l20 27h258q0 303 -10 668l207 -9h100q158 0 588 11l49 -49q-436 12 -776 12v-633q719 4 840 14q-6 -12 -6 -26t6 -25l-781 12h-34q-20 -2 -25 -2v-116q0 -223 10 -592q119 -2 273 -2t548 12l-51 -51q-340 12 -422 12h-264zM1118 1556l-4 -4
l-352 164l-352 -164l-4 4q254 195 356 308q112 -126 356 -308z" />
    <glyph glyph-name="Edieresis" unicode="&#xcb;" horiz-adv-x="1406" 
d="M563 4q-96 0 -252 -4v741h-278l20 27h258q0 303 -10 668l207 -9h100q158 0 588 11l49 -49q-436 12 -776 12v-633q719 4 840 14q-6 -12 -6 -26t6 -25l-781 12h-34q-20 -2 -25 -2v-116q0 -223 10 -592q119 -2 273 -2t548 12l-51 -51q-340 12 -422 12h-264zM670 1653
q-61 -37 -109 -97q-29 51 -106 123q59 35 110 90q31 -50 105 -116zM1061 1653q-61 -37 -109 -97q-29 51 -106 123q59 35 110 90q31 -50 105 -116z" />
    <glyph glyph-name="Igrave" unicode="&#xcc;" horiz-adv-x="671" 
d="M341 4q-42 0 -85 -6v700q0 313 -10 738q37 -6 81 -6t87 6v-738q0 -450 12 -700q-43 6 -85 6zM494 1563l-5 -4l-491 237q88 12 156 80z" />
    <glyph glyph-name="Iacute" unicode="&#xcd;" horiz-adv-x="671" 
d="M341 4q-42 0 -85 -6v700q0 313 -10 738q37 -6 81 -6t87 6v-738q0 -450 12 -700q-43 6 -85 6zM680 1794l-492 -238l-4 5l340 313q66 -68 156 -80z" />
    <glyph glyph-name="Icircumflex" unicode="&#xce;" horiz-adv-x="671" 
d="M341 4q-42 0 -85 -6v700q0 313 -10 738q37 -6 81 -6t87 6v-738q0 -450 12 -700q-43 6 -85 6zM694 1556l-4 -4l-352 164l-352 -164l-4 4q254 195 356 308q112 -126 356 -308z" />
    <glyph glyph-name="Idieresis" unicode="&#xcf;" horiz-adv-x="671" 
d="M341 4q-42 0 -85 -6v700q0 313 -10 738q37 -6 81 -6t87 6v-738q0 -450 12 -700q-43 6 -85 6zM246 1653q-61 -37 -109 -97q-29 51 -106 123q59 35 110 90q31 -50 105 -116zM637 1653q-61 -37 -109 -97q-29 51 -106 123q59 35 110 90q31 -50 105 -116z" />
    <glyph glyph-name="Eth" unicode="&#xd0;" horiz-adv-x="1531" 
d="M403 1401q0 -240 -4 -670h523l-21 -26h-121q-199 0 -381 -7q5 -401 13 -643q166 -45 243 -45q307 0 473 187.5t166 522.5t-173 519t-470 184q-57 0 -248 -22zM242 0v698l-254 -8q6 12 6 23q0 18 -6 26q70 -2 254 -8q0 307 -9 703h109l332 14q217 0 354 -76
q193 -106 295 -277t102 -378q-1 -323 -211 -527t-563 -204l-278 14h-131z" />
    <glyph glyph-name="Ntilde" unicode="&#xd1;" horiz-adv-x="1611" 
d="M1376 774v-815q-846 961 -1110 1210l2 -561q0 -539 13 -610q-14 6 -31 6q10 0 -21 -6l7 1468q711 -811 1110 -1204v94q0 166 -15 1080q13 -6 25 -6t26 6q-6 -156 -6 -662zM569 1718q-74 0 -135 -84l-4 4q84 158 225 158q66 0 136 -29l118 -49q80 -33 127 -32q72 0 133 81
l5 -4q-84 -158 -228 -157q-63 0 -133 28l-119 49q-84 35 -125 35z" />
    <glyph glyph-name="Ograve" unicode="&#xd2;" horiz-adv-x="1759" 
d="M914 2q280 0 447 188t167 496q0 307 -178 529q-178 223 -446 223t-445 -188q-176 -188 -176 -510t175 -530q176 -208 456 -208zM885 1462q344 0 573 -243q203 -215 203 -518t-240 -527q-217 -203 -537 -203t-552 213q-234 212 -234 528t222 533t565 217zM1038 1563l-4 -4
l-491 237q88 12 155 80z" />
    <glyph glyph-name="Oacute" unicode="&#xd3;" horiz-adv-x="1759" 
d="M914 2q280 0 447 188t167 496q0 307 -178 529q-178 223 -446 223t-445 -188q-176 -188 -176 -510t175 -530q176 -208 456 -208zM885 1462q344 0 573 -243q203 -215 203 -518t-240 -527q-217 -203 -537 -203t-552 213q-234 212 -234 528t222 533t565 217zM1225 1794
l-492 -238l-4 5l340 313q66 -68 156 -80z" />
    <glyph glyph-name="Ocircumflex" unicode="&#xd4;" horiz-adv-x="1759" 
d="M914 2q280 0 447 188t167 496q0 307 -178 529q-178 223 -446 223t-445 -188q-176 -188 -176 -510t175 -530q176 -208 456 -208zM885 1462q344 0 573 -243q203 -215 203 -518t-240 -527q-217 -203 -537 -203t-552 213q-234 212 -234 528t222 533t565 217zM1239 1556l-4 -4
l-352 164l-353 -164l-4 4q254 195 357 308q112 -126 356 -308z" />
    <glyph glyph-name="Otilde" unicode="&#xd5;" horiz-adv-x="1759" 
d="M914 2q280 0 447 188t167 496q0 307 -178 529q-178 223 -446 223t-445 -188q-176 -188 -176 -510t175 -530q176 -208 456 -208zM885 1462q344 0 573 -243q203 -215 203 -518t-240 -527q-217 -203 -537 -203t-552 213q-234 212 -234 528t222 533t565 217zM643 1718
q-74 0 -135 -84l-4 4q84 158 225 158q66 0 135 -29l119 -49q80 -33 127 -32q72 0 133 81l4 -4q-84 -158 -227 -157q-63 0 -133 28l-119 49q-84 35 -125 35z" />
    <glyph glyph-name="Odieresis" unicode="&#xd6;" horiz-adv-x="1759" 
d="M914 2q280 0 447 188t167 496q0 307 -178 529q-178 223 -446 223t-445 -188q-176 -188 -176 -510t175 -530q176 -208 456 -208zM885 1462q344 0 573 -243q203 -215 203 -518t-240 -527q-217 -203 -537 -203t-552 213q-234 212 -234 528t222 533t565 217zM791 1653
q-61 -37 -109 -97q-29 51 -107 123q59 35 111 90q31 -50 105 -116zM1182 1653q-61 -37 -109 -97q-29 51 -106 123q59 35 110 90q31 -50 105 -116z" />
    <glyph glyph-name="multiply" unicode="&#xd7;" horiz-adv-x="1705" 
d="M854 668l487 487l58 -57l-488 -488l488 -487l-58 -57l-487 487l-487 -487l-58 57l488 487l-488 488l58 57z" />
    <glyph glyph-name="Oslash" unicode="&#xd8;" horiz-adv-x="1759" 
d="M907 1438q-266 0 -445 -186.5t-179 -471.5q0 -352 176 -571l827 1075q-180 154 -379 154zM935 2q261 0 427 188t166 508t-207 551q-362 -461 -829 -1077q182 -170 443 -170zM1661 716q0 -319 -240 -542q-217 -203 -520 -203q-227 0 -463 133l-135 -178q-7 6 -27 6t-36 -6
l159 205q-301 248 -301 584q0 190 87 353t245 265q199 129 451 129t444 -129l127 166q12 -6 28 -6t36 6l-152 -194q297 -270 297 -589z" />
    <glyph glyph-name="Ugrave" unicode="&#xd9;" horiz-adv-x="1550" 
d="M793 -29q-264 0 -421 154t-157 401v371q0 123 -8 539q37 -6 86 -6t88 6q-16 -542 -16 -782t45 -347q129 -303 421 -303q233 0 360 195q126 195 126 569q0 252 -29 668q16 -6 28 -6t27 6l7 -602q0 -379 -84 -564q-137 -299 -473 -299zM934 1563l-4 -4l-492 237
q88 12 156 80z" />
    <glyph glyph-name="Uacute" unicode="&#xda;" horiz-adv-x="1550" 
d="M793 -29q-264 0 -421 154t-157 401v371q0 123 -8 539q37 -6 86 -6t88 6q-16 -542 -16 -782t45 -347q129 -303 421 -303q233 0 360 195q126 195 126 569q0 252 -29 668q16 -6 28 -6t27 6l7 -602q0 -379 -84 -564q-137 -299 -473 -299zM1120 1794l-491 -238l-4 5l340 313
q65 -68 155 -80z" />
    <glyph glyph-name="Ucircumflex" unicode="&#xdb;" horiz-adv-x="1550" 
d="M793 -29q-264 0 -421 154t-157 401v371q0 123 -8 539q37 -6 86 -6t88 6q-16 -542 -16 -782t45 -347q129 -303 421 -303q233 0 360 195q126 195 126 569q0 252 -29 668q16 -6 28 -6t27 6l7 -602q0 -379 -84 -564q-137 -299 -473 -299zM1135 1556l-5 -4l-352 164l-352 -164
l-4 4q254 195 356 308q113 -126 357 -308z" />
    <glyph glyph-name="Udieresis" unicode="&#xdc;" horiz-adv-x="1550" 
d="M793 -29q-264 0 -421 154t-157 401v371q0 123 -8 539q37 -6 86 -6t88 6q-16 -542 -16 -782t45 -347q129 -303 421 -303q233 0 360 195q126 195 126 569q0 252 -29 668q16 -6 28 -6t27 6l7 -602q0 -379 -84 -564q-137 -299 -473 -299zM686 1653q-61 -37 -108 -97
q-29 51 -107 123q59 35 111 90q30 -50 104 -116zM1077 1653q-61 -37 -108 -97q-29 51 -107 123q59 35 111 90q30 -50 104 -116z" />
    <glyph glyph-name="Yacute" unicode="&#xdd;" horiz-adv-x="1101" 
d="M653 477q0 -246 13 -479q-43 6 -85 6t-85 -6v616q-303 440 -590 822q121 -19 213 0q262 -399 526 -756q176 272 473 756q12 -6 20 -6t40 6q-80 -106 -525 -801v-158zM895 1794l-492 -238l-4 5l340 313q66 -68 156 -80z" />
    <glyph glyph-name="Thorn" unicode="&#xde;" horiz-adv-x="1189" 
d="M559 1192q231 0 387 -131t156 -315t-142.5 -310.5t-357.5 -126.5q-41 0 -106 13v6q35 -2 96 -2q178 0 277.5 105t99.5 297t-119 316.5t-301 124.5q-66 0 -146 -30v-441q0 -451 13 -700q-43 6 -85 6t-85 -6v700q0 293 -10 738q37 -6 81 -6t86 6v-258q88 14 156 14z" />
    <glyph glyph-name="germandbls" unicode="&#xdf;" horiz-adv-x="1327" 
d="M1239 975q-90 0 -131 -107q-29 -74 -64 -321q-78 -569 -389 -570q-82 0 -135 31q14 18 19 41q53 -47 139 -47t130 96t72 348t130 402q102 149 252 149q59 1 100 -22q-16 -16 -23 -37q-49 37 -100 37zM647 975q-90 0 -131 -105q-28 -76 -66 -343t-130 -408t-257 -142
q-86 0 -135 31q14 18 19 41q53 -47 139 -47t130 96t72 350t129 401q101 148 253 148q59 1 100 -22q-16 -16 -22 -37q-49 37 -101 37z" />
    <glyph glyph-name="agrave" unicode="&#xe0;" horiz-adv-x="1054" 
d="M694 336q-96 207 -223 461q-82 -229 -164 -461h387zM929 4q-11 0 -83 -6q-31 74 -141 315h-70q-174 0 -338 -6q-37 -104 -107 -309q-18 6 -28 6l-21 -6q45 109 119 309q-74 -2 -268 -10l6 20l-6 25q147 -6 280 -6q16 39 248 665q318 -671 496 -1003q-76 6 -87 6z
M686 1098l-4 -4l-492 237q88 12 156 80z" />
    <glyph glyph-name="aacute" unicode="&#xe1;" horiz-adv-x="1054" 
d="M694 336q-96 207 -223 461q-82 -229 -164 -461h387zM929 4q-11 0 -83 -6q-31 74 -141 315h-70q-174 0 -338 -6q-37 -104 -107 -309q-18 6 -28 6l-21 -6q45 109 119 309q-74 -2 -268 -10l6 20l-6 25q147 -6 280 -6q16 39 248 665q318 -671 496 -1003q-76 6 -87 6z
M872 1329l-491 -237l-4 4l340 313q65 -68 155 -80z" />
    <glyph glyph-name="acircumflex" unicode="&#xe2;" horiz-adv-x="1054" 
d="M694 336q-96 207 -223 461q-82 -229 -164 -461h387zM929 4q-11 0 -83 -6q-31 74 -141 315h-70q-174 0 -338 -6q-37 -104 -107 -309q-18 6 -28 6l-21 -6q45 109 119 309q-74 -2 -268 -10l6 20l-6 25q147 -6 280 -6q16 39 248 665q318 -671 496 -1003q-76 6 -87 6z
M887 1092l-4 -5l-353 164l-352 -164l-4 5q254 195 356 307q113 -125 357 -307z" />
    <glyph glyph-name="atilde" unicode="&#xe3;" horiz-adv-x="1054" 
d="M694 336q-96 207 -223 461q-82 -229 -164 -461h387zM929 4q-11 0 -83 -6q-31 74 -141 315h-70q-174 0 -338 -6q-37 -104 -107 -309q-18 6 -28 6l-21 -6q45 109 119 309q-74 -2 -268 -10l6 20l-6 25q147 -6 280 -6q16 39 248 665q318 -671 496 -1003q-76 6 -87 6z
M895 1298q-84 -158 -227 -157q-63 0 -133 28l-119 50q-84 35 -125 34q-74 0 -135 -84l-4 5q84 158 225 157q66 0 135 -28l119 -50q80 -33 127 -32q72 0 133 82z" />
    <glyph glyph-name="adieresis" unicode="&#xe4;" horiz-adv-x="1054" 
d="M694 336q-96 207 -223 461q-82 -229 -164 -461h387zM929 4q-11 0 -83 -6q-31 74 -141 315h-70q-174 0 -338 -6q-37 -104 -107 -309q-18 6 -28 6l-21 -6q45 109 119 309q-74 -2 -268 -10l6 20l-6 25q147 -6 280 -6q16 39 248 665q318 -671 496 -1003q-76 6 -87 6z
M438 1188q-61 -37 -108 -96q-29 51 -107 122q59 35 111 91q30 -51 104 -117zM829 1188q-61 -37 -108 -96q-29 51 -107 122q59 35 111 91q30 -51 104 -117z" />
    <glyph glyph-name="aring" unicode="&#xe5;" horiz-adv-x="1054" 
d="M694 336q-96 207 -223 461q-82 -229 -164 -461h387zM647 1136.5q0 53.5 -38 92.5t-90 39t-89 -38t-37 -93.5t37 -93t89 -37.5t90 38.5t38 92zM929 4q-11 0 -83 -6q-31 74 -141 315h-70q-174 0 -338 -6q-37 -104 -107 -309q-18 6 -28 6l-21 -6q45 109 119 309
q-74 -2 -268 -10l6 20l-6 25q147 -6 280 -6l240 641q-152 31 -152 160q0 66 47.5 112.5t113 46.5t112.5 -47t47 -112q0 -125 -148 -160q300 -631 484 -979q-76 6 -87 6z" />
    <glyph glyph-name="ae" unicode="&#xe6;" horiz-adv-x="1523" 
d="M741 336v137q0 76 -10 445l-366 -582h376zM885 500v-27q0 -176 12 -440q59 -2 187 -2t337 8l-35 -47q-217 12 -286 12h-178l-181 -4v313h-84q-25 0 -311 -4q-51 -84 -190 -311q-25 6 -27 6l-23 -6q119 182 203 309q-92 -2 -309 -10l4 20l-4 25q172 -6 326 -6
q393 602 413 641q80 -6 140 -6h61q170 0 406 10l32 -45q-248 8 -493 8v-420q287 0 547 15q-4 -8 -5 -25v-12q3 -1 5 -13q-201 10 -316 11h-231z" />
    <glyph glyph-name="ccedilla" unicode="&#xe7;" horiz-adv-x="1052" 
d="M788 -216q0 -69 -58 -115t-159 -46q-57 0 -125 43l5 4q59 -25 114 -24q119 0 119 143q0 57 -27.5 93t-63.5 36t-69 -27l39 93q-225 33 -352 165.5t-127 340.5t162 357.5t401 149.5q143 0 314 -75q-23 -16 -23 -45q-170 98 -295 98q-188 0 -293.5 -127.5t-105.5 -351.5
t116.5 -359t289.5 -135t358 148l-21 -74q-160 -98 -323 -99q-4 0 -74 5l-21 -50q33 4 45 5q76 0 125 -42t49 -111z" />
    <glyph glyph-name="egrave" unicode="&#xe8;" horiz-adv-x="1052" 
d="M610 500h-221v-27q0 -215 12 -440q61 -2 199 -2t352 8l-37 -47q-246 12 -303 12h-186l-180 -4v500h-228l17 24h211q-2 328 -13 453q115 -6 150 -6h72q158 0 419 10l35 -45q-260 8 -520 8v-420q313 0 572 15q-4 -10 -4 -22t4 -28l-230 9q-78 2 -121 2zM729 1098l-4 -4
l-492 237q88 12 156 80z" />
    <glyph glyph-name="eacute" unicode="&#xe9;" horiz-adv-x="1052" 
d="M610 500h-221v-27q0 -215 12 -440q61 -2 199 -2t352 8l-37 -47q-246 12 -303 12h-186l-180 -4v500h-228l17 24h211q-2 328 -13 453q115 -6 150 -6h72q158 0 419 10l35 -45q-260 8 -520 8v-420q313 0 572 15q-4 -10 -4 -22t4 -28l-230 9q-78 2 -121 2zM915 1329l-491 -237
l-4 4l340 313q65 -68 155 -80z" />
    <glyph glyph-name="ecircumflex" unicode="&#xea;" horiz-adv-x="1052" 
d="M610 500h-221v-27q0 -215 12 -440q61 -2 199 -2t352 8l-37 -47q-246 12 -303 12h-186l-180 -4v500h-228l17 24h211q-2 328 -13 453q115 -6 150 -6h72q158 0 419 10l35 -45q-260 8 -520 8v-420q313 0 572 15q-4 -10 -4 -22t4 -28l-230 9q-78 2 -121 2zM930 1092l-4 -5
l-353 164l-352 -164l-4 5q254 195 356 307q113 -125 357 -307z" />
    <glyph glyph-name="edieresis" unicode="&#xeb;" horiz-adv-x="1052" 
d="M610 500h-221v-27q0 -215 12 -440q61 -2 199 -2t352 8l-37 -47q-246 12 -303 12h-186l-180 -4v500h-228l17 24h211q-2 328 -13 453q115 -6 150 -6h72q158 0 419 10l35 -45q-260 8 -520 8v-420q313 0 572 15q-4 -10 -4 -22t4 -28l-230 9q-78 2 -121 2zM481 1188
q-61 -37 -108 -96q-29 51 -107 122q59 35 111 91q30 -51 104 -117zM872 1188q-61 -37 -108 -96q-29 51 -107 122q59 35 111 91q30 -51 104 -117z" />
    <glyph glyph-name="igrave" unicode="&#xec;" horiz-adv-x="571" 
d="M294 2q-38 0 -81 -6v477q0 207 -10 504q37 -6 73 -6t80 6v-504q1 -188 15 -477q-39 6 -77 6zM444 1098l-4 -4l-491 237q88 12 155 80z" />
    <glyph glyph-name="iacute" unicode="&#xed;" horiz-adv-x="571" 
d="M294 2q-38 0 -81 -6v477q0 207 -10 504q37 -6 73 -6t80 6v-504q1 -188 15 -477q-39 6 -77 6zM631 1329l-492 -237l-4 4l340 313q66 -68 156 -80z" />
    <glyph glyph-name="icircumflex" unicode="&#xee;" horiz-adv-x="571" 
d="M294 2q-38 0 -81 -6v477q0 207 -10 504q37 -6 73 -6t80 6v-504q1 -188 15 -477q-39 6 -77 6zM645 1092l-4 -5l-352 164l-352 -164l-5 5q254 195 357 307q112 -125 356 -307z" />
    <glyph glyph-name="idieresis" unicode="&#xef;" horiz-adv-x="571" 
d="M294 2q-38 0 -81 -6v477q0 207 -10 504q37 -6 73 -6t80 6v-504q1 -188 15 -477q-39 6 -77 6zM197 1188q-61 -37 -109 -96q-29 51 -106 122q59 35 110 91q31 -51 105 -117zM588 1188q-61 -37 -109 -96q-29 51 -106 122q59 35 110 91q31 -51 105 -117z" />
    <glyph glyph-name="eth" unicode="&#xf0;" horiz-adv-x="1150" 
d="M510 12q207 0 320.5 127t113.5 347t-122 347.5t-316 127.5q-39 0 -148 -15v-176q-2 -150 -2 -272h361l-15 -25h-84q-150 0 -262 -2q1 -117 11 -428q98 -31 143 -31zM213 0v467q-86 -4 -174 -6l6 22l-6 23l174 -6q0 229 -6 475h80l235 10q233 0 385 -145.5t152 -359.5
t-149.5 -352t-403.5 -138l-199 10h-94z" />
    <glyph glyph-name="ntilde" unicode="&#xf1;" horiz-adv-x="1251" 
d="M1018 977h6q15 2 23 4q-7 -116 -7 -1010q-451 467 -798 789q0 -311 12 -762l-27 4q-6 0 -22 -4q6 424 6 1003q313 -348 799 -782q0 289 -13 762q16 -4 21 -4zM993 1298q-84 -158 -227 -157q-63 0 -133 28l-119 50q-84 35 -125 34q-74 0 -135 -84l-4 5q84 158 225 157
q66 0 135 -28l119 -50q80 -33 127 -32q72 0 133 82z" />
    <glyph glyph-name="ograve" unicode="&#xf2;" horiz-adv-x="1269" 
d="M1071 475q0 219 -119 361t-296 141q-177 0 -295 -126t-117 -321q0 -242 116 -384t304 -142t298 126q109 126 109 345zM641 997q240 -1 392 -157q153 -156 153 -361t-157 -353t-383 -148t-394 144q-168 146 -168 362t158 364t399 149zM793 1098l-5 -4l-491 237
q88 12 156 80z" />
    <glyph glyph-name="oacute" unicode="&#xf3;" horiz-adv-x="1269" 
d="M1071 475q0 219 -119 361t-296 141q-177 0 -295 -126t-117 -321q0 -242 116 -384t304 -142t298 126q109 126 109 345zM641 997q240 -1 392 -157q153 -156 153 -361t-157 -353t-383 -148t-394 144q-168 146 -168 362t158 364t399 149zM979 1329l-492 -237l-4 4l340 313
q66 -68 156 -80z" />
    <glyph glyph-name="ocircumflex" unicode="&#xf4;" horiz-adv-x="1269" 
d="M1071 475q0 219 -119 361t-296 141q-177 0 -295 -126t-117 -321q0 -242 116 -384t304 -142t298 126q109 126 109 345zM641 997q240 -1 392 -157q153 -156 153 -361t-157 -353t-383 -148t-394 144q-168 146 -168 362t158 364t399 149zM993 1092l-4 -5l-352 164l-352 -164
l-4 5q254 195 356 307q112 -125 356 -307z" />
    <glyph glyph-name="otilde" unicode="&#xf5;" horiz-adv-x="1269" 
d="M1071 475q0 219 -119 361t-296 141q-177 0 -295 -126t-117 -321q0 -242 116 -384t304 -142t298 126q109 126 109 345zM641 997q240 -1 392 -157q153 -156 153 -361t-157 -353t-383 -148t-394 144q-168 146 -168 362t158 364t399 149zM1001 1298q-84 -158 -227 -157
q-63 0 -133 28l-119 50q-84 35 -125 34q-74 0 -135 -84l-4 5q84 158 225 157q66 0 135 -28l119 -50q80 -33 127 -32q72 0 133 82z" />
    <glyph glyph-name="odieresis" unicode="&#xf6;" horiz-adv-x="1269" 
d="M1071 475q0 219 -119 361t-296 141q-177 0 -295 -126t-117 -321q0 -242 116 -384t304 -142t298 126q109 126 109 345zM641 997q240 -1 392 -157q153 -156 153 -361t-157 -353t-383 -148t-394 144q-168 146 -168 362t158 364t399 149zM545 1188q-61 -37 -109 -96
q-29 51 -106 122q59 35 110 91q31 -51 105 -117zM936 1188q-61 -37 -109 -96q-29 51 -106 122q59 35 110 91q31 -51 105 -117z" />
    <glyph glyph-name="divide" unicode="&#xf7;" horiz-adv-x="894" 
d="M688 479q0 225 -69 361t-159 137q-90 0 -148 -118t-58 -346t65 -374q59 -137 156 -137q213 0 213 477zM799 496q1 -222 -99 -370t-229 -149q-152 0 -260 144q-115 147 -115 360t108 364.5t250 151.5t243.5 -140t101.5 -361z" />
    <glyph glyph-name="oslash" unicode="&#xf8;" horiz-adv-x="1269" 
d="M657 977q-180 0 -296.5 -127t-116.5 -327t108 -365q182 234 557 723q-115 96 -252 96zM674 4q178 0 287.5 126t109.5 347t-129 371q-178 -227 -561 -725q115 -119 293 -119zM1186 493q0 -215 -154 -365t-355 -150q-200 0 -341 85q-43 -55 -107 -137q-14 6 -28 6t-31 -6
l129 162q-215 166 -215 389t158.5 371.5t398.5 148.5q154 0 297 -82l100 134q30 -11 60 0l-123 -158q211 -184 211 -398z" />
    <glyph glyph-name="ugrave" unicode="&#xf9;" horiz-adv-x="1114" 
d="M168 356v252q0 14 -3 134t-5 235q35 -6 76 -6t86 6q-10 -276 -11 -522q0 -442 299 -443q319 0 320 496q0 94 -27 471q17 -6 27 -6t24 6l7 -438q0 -563 -388 -564q-181 0 -293 108t-112 271zM715 1098l-4 -4l-492 237q88 12 156 80z" />
    <glyph glyph-name="uacute" unicode="&#xfa;" horiz-adv-x="1114" 
d="M168 356v252q0 14 -3 134t-5 235q35 -6 76 -6t86 6q-10 -276 -11 -522q0 -442 299 -443q319 0 320 496q0 94 -27 471q17 -6 27 -6t24 6l7 -438q0 -563 -388 -564q-181 0 -293 108t-112 271zM901 1329l-491 -237l-4 4l339 313q66 -68 156 -80z" />
    <glyph glyph-name="ucircumflex" unicode="&#xfb;" horiz-adv-x="1114" 
d="M168 356v252q0 14 -3 134t-5 235q35 -6 76 -6t86 6q-10 -276 -11 -522q0 -442 299 -443q319 0 320 496q0 94 -27 471q17 -6 27 -6t24 6l7 -438q0 -563 -388 -564q-181 0 -293 108t-112 271zM915 1092l-4 -5l-352 164l-352 -164l-4 5q254 195 356 307q112 -125 356 -307z
" />
    <glyph glyph-name="udieresis" unicode="&#xfc;" horiz-adv-x="1114" 
d="M168 356v252q0 14 -3 134t-5 235q35 -6 76 -6t86 6q-10 -276 -11 -522q0 -442 299 -443q319 0 320 496q0 94 -27 471q17 -6 27 -6t24 6l7 -438q0 -563 -388 -564q-181 0 -293 108t-112 271zM467 1188q-61 -37 -109 -96q-29 51 -106 122q59 35 110 91q31 -51 105 -117z
M858 1188q-61 -37 -108 -96q-29 51 -107 122q59 35 111 91q30 -51 104 -117z" />
    <glyph glyph-name="yacute" unicode="&#xfd;" horiz-adv-x="878" 
d="M530 324q0 -172 9 -328q-43 6 -83 6t-69 -6v418q-229 342 -410 563q49 -6 103 -6t88 6q180 -281 350 -510q170 262 307 510l25 -4l31 6q-98 -137 -351 -547v-108zM784 1329l-491 -237l-4 4l340 313q65 -68 155 -80z" />
    <glyph glyph-name="thorn" unicode="&#xfe;" horiz-adv-x="913" 
d="M465 811q158 0 262 -88t104 -213t-101 -214t-249 -89q-12 0 -69 10v4h41q25 -2 34 -2q104 0 170 76t66 205t-80 211t-207 82q-27 0 -80 -19v-301q0 -188 15 -477q-39 6 -77 6t-81 -6v477q0 207 -10 504q37 -6 73 -6t80 6v-176q61 10 109 10z" />
    <glyph glyph-name="ydieresis" unicode="&#xff;" horiz-adv-x="878" 
d="M530 324q0 -172 9 -328q-43 6 -83 6t-69 -6v418q-229 342 -410 563q49 -6 103 -6t88 6q180 -281 350 -510q170 262 307 510l25 -4l31 6q-98 -137 -351 -547v-108zM350 1188q-61 -37 -108 -96q-29 51 -107 122q59 35 111 91q30 -51 104 -117zM741 1188q-61 -37 -108 -96
q-29 51 -107 122q59 35 111 91q30 -51 104 -117z" />
    <glyph glyph-name="dotlessi" unicode="&#x131;" horiz-adv-x="571" 
d="M294 2q-38 0 -81 -6v477q0 207 -10 504q37 -6 73 -6t80 6v-504q1 -188 15 -477q-39 6 -77 6z" />
    <glyph glyph-name="Lslash" unicode="&#x141;" horiz-adv-x="1044" 
d="M496 4q-106 0 -252 -6v573l-228 -145q0 27 -20 47q72 39 248 139v86q0 313 -11 738q35 -6 79 -6t87 6v-744l408 252l-10 -33l-398 -254q0 -231 13 -624q134 -2 294 -2t422 8l-51 -51l-356 16h-225z" />
    <glyph glyph-name="lslash" unicode="&#x142;" horiz-adv-x="819" 
d="M565 4h-172l-180 -4v395q-115 -70 -178 -114q-2 23 -19 38q53 29 197 109v49q0 203 -10 500q37 -6 73 -6t80 6v-481q96 57 269 161l-11 -28l-122 -78q-33 -20 -136 -84v-41q0 -98 15 -393q69 -2 189 -2t292 8l-37 -47q-199 12 -250 12z" />
    <glyph glyph-name="OE" unicode="&#x152;" horiz-adv-x="2633" 
d="M1528 686q0 307 -178 529q-178 223 -446 223t-444.5 -188t-176.5 -510t175.5 -529t455.5 -207t447 187.5t167 494.5zM1774 4q-96 0 -252 -4v305q-242 -334 -600 -334q-256 0 -467 125q-170 100 -263.5 262t-93.5 356t87 355.5t245 263.5q199 129 455 129q391 0 633 -336
l-7 310q147 -8 207 -9h101q174 0 587 11l50 -49q-461 12 -777 12v-633q664 2 840 14q-6 -12 -6 -26t6 -25l-778 12h-37q-20 -2 -25 -2v-116q0 -207 11 -592q119 -2 273 -2t548 12l-51 -51q-338 12 -422 12h-264z" />
    <glyph glyph-name="oe" unicode="&#x153;" horiz-adv-x="1873" 
d="M1071 475q0 219 -118.5 360.5t-296.5 141.5t-295 -126t-117 -321q0 -242 116 -384t304 -142t297.5 126t109.5 345zM1208 473q0 -162 15 -440q76 -2 213 -2t336 8l-37 -47q-246 12 -303 12h-187l-180 -4v172q-180 -195 -395 -195q-254 0 -420 145.5t-166 361.5
t158.5 364.5t407.5 148.5t411 -192q-2 98 -6 172q115 -6 147 -6h72q88 0 422 10l33 -45q-256 8 -521 8v-420q326 0 574 15q-6 -12 -6 -25t6 -25l-574 11v-27z" />
    <glyph glyph-name="Scaron" unicode="&#x160;" horiz-adv-x="933" 
d="M877 1434q-147 0 -211 -158q-46 -115 -96 -507t-173 -591q-125 -207 -344 -207q-113 0 -188 45q20 14 26 43q66 -59 187 -59q143 0 207 168q47 119 98 494q111 801 510 800q80 0 143 -35q-25 -14 -32 -38q-57 45 -127 45zM1167 1858q-252 -190 -356 -308
q-106 115 -356 308l4 4l352 -164l352 164z" />
    <glyph glyph-name="scaron" unicode="&#x161;" horiz-adv-x="735" 
d="M647 975q-90 0 -131 -105q-28 -76 -66 -343t-130 -408t-257 -142q-86 0 -135 31q14 18 19 41q53 -47 139 -47t130 96t72 350t129 401q101 148 253 148q59 1 100 -22q-16 -16 -22 -37q-49 37 -101 37zM924 1393q-252 -190 -357 -308q-106 115 -356 308l4 4l352 -164
l353 164z" />
    <glyph glyph-name="Ydieresis" unicode="&#x178;" horiz-adv-x="1101" 
d="M653 477q0 -246 13 -479q-43 6 -85 6t-85 -6v616q-303 440 -590 822q121 -19 213 0q262 -399 526 -756q176 272 473 756q12 -6 20 -6t40 6q-80 -106 -525 -801v-158zM461 1653q-61 -37 -109 -97q-29 51 -106 123q59 35 110 90q31 -50 105 -116zM852 1653
q-61 -37 -109 -97q-29 51 -106 123q59 35 111 90q30 -50 104 -116z" />
    <glyph glyph-name="Zcaron" unicode="&#x17d;" horiz-adv-x="1081" 
d="M645 4h-170q-39 0 -510 -16q371 563 871 1413h-224q-217 0 -546 -12q6 18 6 29t-6 24q520 -16 784 -15l192 3q-436 -670 -856 -1399q435 0 914 14l-56 -53q-303 12 -399 12zM899 1858q-252 -190 -356 -308q-106 115 -357 308l4 4l353 -164l352 164z" />
    <glyph glyph-name="zcaron" unicode="&#x17e;" horiz-adv-x="825" 
d="M508 4h-125q-33 0 -375 -10q281 408 604 952q-195 0 -526 -12l4 22q0 6 -4 25q395 -10 571 -10h140q-416 -631 -596 -942q301 4 635 14l-37 -47q-174 8 -291 8zM801 1393q-252 -190 -357 -308q-106 115 -356 308l4 4l352 -164l353 164z" />
    <glyph glyph-name="florin" unicode="&#x192;" horiz-adv-x="985" 
d="M29 -227q-90 0 -142 32q25 16 37 39q57 -47 123 -47q223 0 287 449q8 123 59 608h-196l14 25h186q96 584 410 583q82 0 141 -35q-25 -12 -37 -36q-51 43 -123 43q-119 0 -172 -136q-51 -125 -61 -419q70 0 307 14q-4 -9 -4 -25t4 -24l-309 10q-70 -1081 -524 -1081z" />
    <glyph glyph-name="circumflex" unicode="&#x2c6;" 
d="M870 1092l-4 -5l-352 164l-352 -164l-4 5q254 195 356 307q112 -125 356 -307z" />
    <glyph glyph-name="caron" unicode="&#x2c7;" 
d="M870 1393q-252 -190 -356 -308q-106 115 -356 308l4 4l352 -164l352 164z" />
    <glyph glyph-name="breve" unicode="&#x2d8;" 
d="M513 1108q-237 0 -320 246l6 4q121 -135 315.5 -135t314.5 135l7 -4q-86 -246 -323 -246z" />
    <glyph glyph-name="dotaccent" unicode="&#x2d9;" 
d="M618 1235q-61 -37 -108 -96q-33 55 -107 123q66 39 111 90q28 -51 104 -117z" />
    <glyph glyph-name="ring" unicode="&#x2da;" 
d="M631 1251.5q0 53.5 -38 92t-90 38.5t-89 -37.5t-37 -93t37 -93.5t89 -38t90 39t38 92.5zM664 1251.5q0 -65.5 -48 -112.5t-114 -47t-112 46t-46 112t47 113.5t112.5 47.5t113 -47t47.5 -112.5z" />
    <glyph glyph-name="ogonek" unicode="&#x2db;" 
d="M568 -393q-86 0 -148 50t-62 130q0 141 211 213l4 -4q-94 -72 -94 -218t121 -147q63 0 109 31l4 -4q-59 -51 -145 -51z" />
    <glyph glyph-name="tilde" unicode="&#x2dc;" 
d="M879 1298q-84 -158 -228 -157q-63 0 -133 28l-119 50q-84 35 -125 34q-74 0 -135 -84l-4 5q84 158 225 157q66 0 136 -28l118 -50q80 -33 127 -32q72 0 133 82z" />
    <glyph glyph-name="hungarumlaut" unicode="&#x2dd;" 
d="M598 1370l-405 -278l-5 4l250 338q74 -58 160 -64zM928 1370l-406 -278l-4 4l250 338q66 -58 160 -64z" />
    <glyph glyph-name="Delta" unicode="&#x394;" horiz-adv-x="1253" 
d="M147 66h818l-406 1005zM1219 0h-1176l565 1376h45z" />
    <glyph glyph-name="Delta" unicode="&#x2206;" horiz-adv-x="1253" 
d="M147 66h818l-406 1005zM1219 0h-1176l565 1376h45z" />
    <glyph glyph-name="Omega" unicode="&#x3a9;" horiz-adv-x="1572" 
d="M1214 184q98 0 135 34t46 142h47l-21 -360h-516v348q154 31 239 163t85 337t-121 343t-321.5 138t-321.5 -137t-121 -343t84 -338t240 -163v-348h-516l-21 360h47q6 -106 44 -141t136 -35h252v121q-244 45 -376 183.5t-132 347.5q0 246 187.5 396t497 150t496.5 -150.5
t187 -395.5q0 -207 -132 -346.5t-375 -184.5v-121h251z" />
    <glyph glyph-name="Omega" unicode="&#x2126;" horiz-adv-x="1572" 
d="M1214 184q98 0 135 34t46 142h47l-21 -360h-516v348q154 31 239 163t85 337t-121 343t-321.5 138t-321.5 -137t-121 -343t84 -338t240 -163v-348h-516l-21 360h47q6 -106 44 -141t136 -35h252v121q-244 45 -376 183.5t-132 347.5q0 246 187.5 396t497 150t496.5 -150.5
t187 -395.5q0 -207 -132 -346.5t-375 -184.5v-121h251z" />
    <glyph glyph-name="pi" unicode="&#x3c0;" horiz-adv-x="1124" 
d="M819 337q-1 -167 15 -218t74 -51t84 55t26 186h51q0 -330 -217 -329q-133 0 -178 108q-33 84 -33 309l8 377h-280q0 -459 -27 -602q-39 -193 -164 -192q-94 0 -125 98q-18 55 -18 176h49q2 -106 76 -107q92 -1 124 141t35 486h-45q-158 0 -178 -106h-47q8 143 81 197
t245 55h520q135 0 135 45v2h47v-6q0 -102 -46 -144.5t-154 -42.5q-34 -2 -50 0q-8 -270 -8 -437z" />
    <glyph glyph-name="endash" unicode="&#x2013;" 
d="M178 418q-82 0 -145 -10q63 51 65 106h748q77 0 145 10q-63 -49 -65 -106h-748z" />
    <glyph glyph-name="emdash" unicode="&#x2014;" horiz-adv-x="2048" 
d="M178 418q-82 0 -145 -10q63 51 65 106h1772q77 0 145 10q-63 -49 -65 -106h-1772z" />
    <glyph glyph-name="quoteleft" unicode="&#x2018;" horiz-adv-x="333" 
d="M135 1276q0 -90 107 -139q-70 -51 -107 -101q-82 53 -82 144q0 164 213 315q7 -21 23 -37q-154 -68 -154 -182z" />
    <glyph glyph-name="quoteright" unicode="&#x2019;" horiz-adv-x="333" 
d="M281 1339q0 -166 -213 -315q-6 20 -23 37q154 66 154 188q0 84 -107 133q70 52 107 101q82 -53 82 -144z" />
    <glyph glyph-name="quotesinglbase" unicode="&#x201a;" horiz-adv-x="333" 
d="M313 35q0 -162 -213 -316q-6 20 -22 37q154 63 153 189q0 84 -106 133q73 53 106 100q82 -53 82 -143z" />
    <glyph glyph-name="quotedblleft" unicode="&#x201c;" horiz-adv-x="645" 
d="M135 1276q0 -90 107 -139q-70 -51 -107 -101q-82 53 -82 144q0 164 213 315q7 -21 23 -37q-154 -68 -154 -182zM446 1276q0 -90 107 -139q-70 -51 -107 -101q-82 53 -81 144q0 162 213 315q6 -21 22 -37q-154 -68 -154 -182z" />
    <glyph glyph-name="quotedblright" unicode="&#x201d;" horiz-adv-x="645" 
d="M281 1339q0 -166 -213 -315q-6 20 -23 37q154 66 154 188q0 84 -107 133q70 52 107 101q82 -53 82 -144zM592 1339q0 -162 -213 -315q-10 25 -23 37q154 66 154 188q0 84 -107 133q70 52 107 101q82 -53 82 -144z" />
    <glyph glyph-name="quotedblbase" unicode="&#x201e;" horiz-adv-x="645" 
d="M313 35q0 -162 -213 -316q-6 20 -22 37q154 63 153 189q0 84 -106 133q73 53 106 100q82 -53 82 -143zM625 35q0 -164 -213 -316q-10 25 -23 37q154 63 154 189q0 84 -107 133q70 51 107 100q82 -57 82 -143z" />
    <glyph glyph-name="dagger" unicode="&#x2020;" horiz-adv-x="1003" 
d="M516 14v-108q0 -6 4 -129q-16 4 -23 4t-24 -4q14 94 14 200q0 545 -84 730q84 131 89 303q-172 -2 -295 -70q-55 51 -103 76q55 31 103 78q113 -63 295 -66q-25 209 -84 340q74 68 98 111q27 -51 90 -111q-57 -117 -84 -340q162 0 295 66q65 -62 102 -78
q-47 -25 -102 -76q-123 68 -295 70q4 -170 88 -303q-84 -162 -84 -693z" />
    <glyph glyph-name="daggerdbl" unicode="&#x2021;" horiz-adv-x="1003" 
d="M514 644q0 -120 74 -241q-66 -88 -76 -223q188 2 309 70q35 -45 88 -76q-66 -29 -116 -78q-109 63 -281 66q16 -150 84 -277q-78 -74 -98 -110q-25 45 -90 110q72 141 84 277q-199 -6 -310 -66q-41 53 -88 78q63 29 117 76q115 -66 281 -70q-6 129 -76 223
q74 86 73.5 207t-73.5 240q66 88 76 223q-178 -2 -302 -69q-45 49 -96 75q59 27 117 78q106 -63 281 -65q-12 131 -84 276q74 68 98 111q27 -51 90 -111q-70 -133 -84 -276q199 2 309 65q39 -49 88 -78q-59 -33 -108 -75q-127 70 -289 69q4 -125 76 -223q-74 -86 -74 -206z
" />
    <glyph glyph-name="bullet" unicode="&#x2022;" 
d="M618 709q-61 -37 -108 -97q-33 55 -107 123q66 39 111 90q28 -50 104 -116z" />
    <glyph glyph-name="ellipsis" unicode="&#x2026;" horiz-adv-x="827" 
d="M358 975q-76 0 -128 -55.5t-52 -140.5t46 -135t136 -50t189 70q-12 311 -191 311zM74 766q0 94 83 162.5t221 68.5t234.5 -104.5t96.5 -268.5q1 -164 -101 -336t-295 -327q-10 23 -28 31q268 123 268 588v45q-113 -53 -213 -54q-266 0 -266 195z" />
    <glyph glyph-name="perthousand" unicode="&#x2030;" horiz-adv-x="1075" 
d="M913 207q0 92 -35.5 145.5t-85.5 53.5t-79 -48.5t-29 -128.5q0 -211 119 -211q110 1 110 189zM418 758q0 92 -35 145t-85 53t-80 -48t-30 -128q0 -211 119 -211q111 1 111 189zM1014 214q0 -87 -64.5 -150.5t-161.5 -63.5t-164 61.5t-67 151.5t64.5 150.5t161.5 60.5
t164 -61.5t67 -148.5zM236 -23q-6 0 -27 -4l299 504q74 127 307 524q16 -4 21 -4l28 4l-311 -524q-123 -213 -295 -504q-16 4 -22 4zM518 765q0 -87 -64.5 -150.5t-161.5 -63.5t-164 61.5t-67 151.5t64.5 150.5t162.5 60.5t164 -61.5t66 -148.5z" />
    <glyph glyph-name="guilsinglleft" unicode="&#x2039;" horiz-adv-x="565" 
d="M500 33l-4 -4q-229 274 -414 436q197 176 414 436l4 -4q-156 -262 -242 -432q90 -182 242 -432z" />
    <glyph glyph-name="guilsinglright" unicode="&#x203a;" horiz-adv-x="565" 
d="M483 465q-184 -162 -413 -436l-4 4q152 250 241 432q-86 170 -241 432l4 4q231 -276 413 -436z" />
    <glyph glyph-name="fraction" unicode="&#x2044;" horiz-adv-x="720" 
d="M-77 -25q-20 0 -32 -6l873 1495q12 -6 28 -6t35 6l-452 -768q-106 -180 -420 -727q-12 6 -32 6z" />
    <glyph glyph-name="trademark" unicode="&#x2122;" horiz-adv-x="802" 
d="M692 278q0 -116 -104.5 -207t-265.5 -91q-113 0 -226 53l-20 65q115 -96 227 -96t174 76t62 209q0 264 -224 266v4q158 25 158 213q0 98 -45 153.5t-124 55.5t-181 -70q-6 18 -23 35q115 55 235 55t201.5 -61t81.5 -152q1 -157 -237 -223q311 -52 311 -285z" />
    <glyph glyph-name="partialdiff" unicode="&#x2202;" horiz-adv-x="1011" 
d="M524 715q-106 0 -176 -122t-69 -331q0 -244 172 -244q106 0 176.5 126t70.5 315q0 256 -174 256zM758 891q0 342 -129 342q-41 0 -103.5 -71.5t-113.5 -71.5q-76 0 -76 65q0 57 59.5 101t149.5 44q158 0 252 -141q96 -150 96 -407q0 -340 -133 -560t-322 -219
q-137 1 -224 103t-87 278t108.5 300t256.5 124q178 0 241 -190q25 92 25 303z" />
    <glyph glyph-name="product" unicode="&#x220f;" horiz-adv-x="1685" 
d="M242 -377v1835h-181v66h1571v-66h-180v-1835h180v-65h-540v65h172v1835h-834v-1835h172v-65h-541v65h181z" />
    <glyph glyph-name="summation" unicode="&#x2211;" horiz-adv-x="1460" 
d="M686 1458h-291l666 -913l-735 -807h434q233 0 342 58t180 245h72q-20 -88 -109 -483h-1171l815 893l-787 1073h1127l67 -471h-69q-68 221 -188.5 313t-352.5 92z" />
    <glyph glyph-name="radical" unicode="&#x221a;" horiz-adv-x="1124" 
d="M1217 1565h-117l-594 -1606h-66l-319 883l-125 -45l-25 80l283 98l256 -709l516 1395h191v-96z" />
    <glyph glyph-name="infinity" unicode="&#x221e;" horiz-adv-x="1460" 
d="M1061 365q104 0 171.5 71.5t67.5 185.5t-61 182t-164 68q-158 1 -305 -331q94 -176 291 -176zM399 860q-104 0 -171.5 -71.5t-67.5 -184t61.5 -182.5t153.5 -70q93 0 163 81t150 251q-96 176 -289 176zM428 233q-131 0 -225 106.5t-94 273.5t82.5 272.5t216.5 105.5
q186 0 303 -254q129 254 321 254q131 0 224.5 -106.5t93.5 -273.5t-82 -272.5t-215 -105.5q-190 0 -303 254q-133 -254 -322 -254z" />
    <glyph glyph-name="integral" unicode="&#x222b;" horiz-adv-x="561" 
d="M580 1550q72 0 118.5 -37.5t46.5 -99.5q0 -98 -100 -98q-59 0 -89 75.5t-60 75.5q-78 0 -99 -223q-6 -66 -24 -628t-97 -746q-102 -240 -294 -240q-72 0 -119 38t-47 100q0 96 100 96q59 0 90 -75t62 -75q74 0 96 224q8 91 24 637t97 737q100 239 295 239z" />
    <glyph glyph-name="approxequal" unicode="&#x2248;" horiz-adv-x="1124" 
d="M788 254q-66 0 -211 48t-249 48t-291 -133v141q182 117 323 117q74 0 164 -28t160 -49t115 -21q109 0 288 131v-143q-162 -111 -299 -111zM788 498q-68 0 -212 48t-228 48q-123 0 -311 -133v141q176 115 321 115q74 0 165 -28t175 -54q57 -14 101 -14q111 0 288 129v-142
q-166 -110 -299 -110z" />
    <glyph glyph-name="approxequal" unicode="&#x22f2;" horiz-adv-x="1124" 
d="M788 254q-66 0 -211 48t-249 48t-291 -133v141q182 117 323 117q74 0 164 -28t160 -49t115 -21q109 0 288 131v-143q-162 -111 -299 -111zM788 498q-68 0 -212 48t-228 48q-123 0 -311 -133v141q176 115 321 115q74 0 165 -28t175 -54q57 -14 101 -14q111 0 288 129v-142
q-166 -110 -299 -110z" />
    <glyph glyph-name="notequal" unicode="&#x2260;" horiz-adv-x="1124" 
d="M98 285v118h303l162 160h-465v119h572l239 240l82 -82l-160 -158h195v-119h-301l-162 -160h463v-118h-571l-240 -240l-80 82l158 158h-195z" />
    <glyph glyph-name="lessequal" unicode="&#x2264;" horiz-adv-x="1124" 
d="M94 0v127h936v-127h-936zM96 553v125l934 293v-131l-719 -226l719 -223v-131z" />
    <glyph glyph-name="greaterequal" unicode="&#x2265;" horiz-adv-x="1124" 
d="M94 0v127h936v-127h-936zM94 260v131l719 223l-719 226v131l936 -293v-125z" />
    <glyph glyph-name="lozenge" unicode="&#x25ca;" horiz-adv-x="1011" 
d="M506 1409l-385 -817l385 -825l385 825zM506 1653l500 -1061l-500 -1069l-500 1069z" />
    <glyph glyph-name="fi" unicode="&#xf001;" horiz-adv-x="1589" 
d="M1299 2q-38 0 -80 -6v477q0 207 -11 504q37 -6 73 -6t81 6v-504q0 -188 14 -477q-39 6 -77 6zM387 500v-27q0 -252 12 -477q-37 6 -69 6t-86 -6v504h-213l14 24h199q-2 252 -13 453q117 -6 150 -6h72q158 0 424 10l34 -45q-262 8 -524 8v-420q227 0 535 15q-4 -10 -4 -22
t4 -28q-311 10 -326 11h-209z" />
    <glyph glyph-name="fl" unicode="&#xf002;" horiz-adv-x="1822" 
d="M1563 4h-172l-181 -4v473q0 131 -10 504q37 -6 74 -6t80 6v-504q0 -168 14 -440q72 -2 178 -2t303 8l-37 -47q-203 12 -249 12zM547 500h-160v-27q0 -252 12 -477q-37 6 -69 6t-86 -6v504h-213l14 24h199q-2 252 -13 453q117 -6 150 -6h72q158 0 424 10l34 -45
q-262 8 -524 8v-420q227 0 535 15q-4 -10 -4 -22t4 -28q-145 9 -260 9t-115 2z" />
    <glyph glyph-name="glyph246" horiz-adv-x="446" 
 />
    </font>
</defs>
</svg>
