<?xml version="1.0" standalone="no"?>
<!DOCTYPE svg PUBLIC "-//W3C//DTD SVG 1.1//EN" "http://www.w3.org/Graphics/SVG/1.1/DTD/svg11.dtd" >
<svg xmlns="http://www.w3.org/2000/svg">
<metadata>
Created by FontPrep 20130207 at Tue Dec  9 01:51:59 2014
 By Alexander Gunnarson
Copyright (c) 1999-2002, Linotype Library GmbH &#38; affiliates. All rights reserved.
</metadata>
<defs>
<font id="e82c173d9fca6b5e7838270b50634a43" horiz-adv-x='1024' >
  <font-face 
    font-family="Zapfino"
    font-weight="400"
    font-style="italic"
    font-stretch="normal"
    units-per-em="2048"
    panose-1="3 3 3 0 4 7 7 7 12 3"
    ascent="1638"
    descent="-410"
    x-height="1101"
    cap-height="2284"
    bbox="-7511 -6420 12459 5652"
    underline-thickness="256"
    underline-position="-256"
    slope="-29"
    unicode-range="U+0009-FB03"
  />
<missing-glyph horiz-adv-x="1597" 
d="M1111 317.5q0 117.5 -79.5 207t-191.5 110.5q0 184 87 299.5t266 191.5q369 159 399 497h5v-1623h-783v5q128 20 212.5 107.5t84.5 205zM507 1894q0 200 246 200q191 0 208 -133t17 -200t-41 -174t-123 -194t-151 -161.5t-69 -181.5q0 -69 38.5 -170.5t59 -152.5
t25.5 -97q-113 -10 -197.5 -100t-84.5 -210t82 -207t200 -108v-5h-717v1567h5q31 -328 364 -328q133 0 230 92t97 236q0 112 -102 189q-87 77 -87 138zM0 1736v496h671v-5q-297 -10 -476.5 -143t-189.5 -348h-5zM927 2227v5h670v-491h-5q-20 261 -204.5 373.5t-460.5 112.5z
" />
    <glyph glyph-name=".notdef" horiz-adv-x="1597" 
d="M1111 317.5q0 117.5 -79.5 207t-191.5 110.5q0 184 87 299.5t266 191.5q369 159 399 497h5v-1623h-783v5q128 20 212.5 107.5t84.5 205zM507 1894q0 200 246 200q191 0 208 -133t17 -200t-41 -174t-123 -194t-151 -161.5t-69 -181.5q0 -69 38.5 -170.5t59 -152.5
t25.5 -97q-113 -10 -197.5 -100t-84.5 -210t82 -207t200 -108v-5h-717v1567h5q31 -328 364 -328q133 0 230 92t97 236q0 112 -102 189q-87 77 -87 138zM0 1736v496h671v-5q-297 -10 -476.5 -143t-189.5 -348h-5zM927 2227v5h670v-491h-5q-20 261 -204.5 373.5t-460.5 112.5z
" />
    <glyph glyph-name=".null" horiz-adv-x="0" 
 />
    <glyph glyph-name="nonmarkingreturn" unicode="&#x9;" horiz-adv-x="0" 
 />
    <glyph glyph-name="nonmarkingreturn" unicode="&#xd;" horiz-adv-x="0" 
 />
    <glyph glyph-name="nonmarkingreturn" unicode="&#xa;" horiz-adv-x="0" 
 />
    <glyph glyph-name="NULL" horiz-adv-x="0" 
 />
    <glyph glyph-name="NULL" horiz-adv-x="0" 
 />
    <glyph glyph-name="space" unicode=" " horiz-adv-x="1024" 
 />
    <glyph glyph-name="space" unicode="&#xa0;" horiz-adv-x="1024" 
 />
    <glyph glyph-name="exclam" unicode="!" horiz-adv-x="1126" 
d="M778 138q0 -62 -51 -115.5t-118 -53.5q-97 0 -97 98q0 72 36 138t118 66q56 0 84 -35.5t28 -97.5zM1736 2012q-67 0 -118 -41q-287 -234 -522.5 -739t-332.5 -730q-10 -20 -25.5 -15t-15.5 25q313 895 584 1413q82 159 245 159q94 0 190 -31q20 -10 15 -25.5t-20 -15.5z
" />
    <glyph glyph-name="quotedbl" unicode="&#x22;" horiz-adv-x="1674" 
d="M1807 2389q0 -28 -15 -44q-102 -154 -207 -292t-215 -281.5t-228 -297t-241 -332.5q-10 -20 -41 -12.5t-5 53.5q238 342 418 654.5t360 568.5q41 46 77 46t66.5 -17.5t30.5 -45.5zM2181 2358q0 -23 -15 -39q-200 -302 -425 -578.5t-451 -614.5q-20 -26 -45.5 -13t-0.5 39
q102 169 189.5 317.5t222 374t351.5 527.5q24 41 68.5 41t75 -15.5t30.5 -38.5z" />
    <glyph glyph-name="numbersign" unicode="#" horiz-adv-x="1684" 
d="M1582 1439q-242 -15 -312 -21q-155 -233 -333 -532q77 10 156 12.5t161 7.5q87 133 164 266.5t164 266.5zM1794 1444h-58q-57 0 -98 -5q-87 -133 -166 -266.5t-161 -266.5q123 0 199.5 -10t76.5 -67q0 -26 -33 -69t-59 -84q-26 26 -87 33.5t-210 7.5q-215 -383 -322 -599
q-20 -41 -41 -41q-15 0 -28 20.5t-13 40.5t20 46q105 164 328 533q-152 0 -318 -21q-185 -315 -338 -619q-26 -61 -61 -62q-31 0 -31 67q0 26 16 46q82 133 163.5 266t184.5 292l-110 -16q-110 -15 -110 1q31 15 66.5 53.5t45.5 63.5q20 60 54 66t85 11t87 11
q82 133 166 266t166 266q-118 -10 -220 -26q-20 0 -20 13t35 72t59 87t70 28l184 5q72 113 133 218t105 171t67 79t38 8t18 -20t-41 -74q-148 -201 -264 -382q77 5 156.5 7.5t161.5 8.5q56 87 112.5 174t102.5 161t79 128t49 74q31 56 69 46t-8 -71q-5 -5 -38.5 -54
t-105.5 -146.5t-214 -311.5l245 15q20 0 21 -15q-26 -26 -70 -62.5t-74 -66.5t-64 -30z" />
    <glyph glyph-name="dollar" unicode="$" horiz-adv-x="1904" 
d="M896 -46q143 0 291.5 53.5t258.5 153.5t174 246t64 320t-94.5 258.5t-242.5 135.5q-82 -143 -237.5 -410t-408.5 -747q52 -10 195 -10zM1019 1628q0 -133 112.5 -202t266.5 -120q263 454 384 655q-108 174 -286 174t-289 -120.5t-149.5 -210t-38.5 -176.5zM1976 1889
q0 -41 -13 -59t-33 -51t-30.5 -53.5t-25.5 -20.5q-26 0 -26 31q0 87 -30 164q-102 -164 -192 -315t-177 -295q239 -73 355 -164.5t116 -270.5t-107.5 -358.5t-289.5 -328t-414.5 -245.5t-478.5 -97q-160 -322 -333 -814q-10 -41 -30.5 -20.5t-20.5 64.5q0 84 71.5 257
t245.5 523q-148 20 -258 87t-126 200q0 148 -10 210q0 31 15.5 31t20.5 -21q19 -146 145.5 -246t289.5 -123q196 367 660 1163q-72 26 -164 54t-168 53q-143 41 -144 164q0 61 61.5 204.5t171.5 287t258.5 253.5t317.5 110t261 -118q186 318 224 366.5t53 58.5q46 36 46 -20
q-77 -118 -148.5 -236t-138.5 -225q46 -73 46 -200z" />
    <glyph glyph-name="percent" unicode="%" horiz-adv-x="3169" 
d="M2115 225q0 -77 30.5 -123t87 -46t128 46t138 133.5t110 215.5t43.5 286q0 72 -18 125.5t-89 79.5q-20 10 -20.5 25.5t20.5 25.5q75 29 86 42q11 15 29 15t33 -16q66 -50 199.5 -58t271.5 -8q15 0 0 -26q-77 -10 -171.5 -15t-166.5 -16q-51 -5 -36 -35q16 -16 16 -118
t-59 -240.5t-151 -254t-212.5 -192t-243.5 -76.5q-189 0 -189 200q0 179 102.5 335t214.5 264q-329 -174 -863 -551.5t-908 -713.5q-10 0 -11 10q0 62 -35 97q0 15 10 25.5t20 26.5q1089 1007 1558.5 1571t469.5 743q0 92 -58.5 120t-148.5 28t-182 -10t-182 -25.5t-172 -31
t-138 -20.5q-51 0 -77 26q-46 -20 -115 -89.5t-176.5 -234.5t-107.5 -393q0 -143 102 -143q77 0 161.5 53.5t153.5 148.5t112.5 223t43.5 240t-30 134q0 26 20 25q10 -10 43.5 -17.5t48.5 -13.5t41 -36t26 -107t-56.5 -200t-153.5 -235.5t-217.5 -192t-253.5 -79.5
q-72 0 -138.5 36t-66.5 154q0 77 31 184.5t97.5 215t171.5 199.5t253 143q-5 26 -5 38v121q0 15 15.5 15t20.5 -15q20 -26 33 -33.5t51 -7.5t112.5 10.5t167 20.5t187 20.5t161.5 10.5q143 0 225 -41t82 -164q0 -77 -121 -345t-1620 -1836q1178 844 1623 1049q10 0 15 -12.5
t-5 -18.5q-82 -36 -151 -120t-117.5 -186.5t-74 -205t-25.5 -179.5z" />
    <glyph glyph-name="ampersand" unicode="&#x26;" horiz-adv-x="4520" 
d="M1521 404q0 -207 152 -287.5t353 -80.5q412 0 708 164q-178 123 -273.5 380.5t-95.5 527.5t31 428q-118 -108 -253.5 -225t-214.5 -199q-153 -157 -280 -345t-127 -363zM3548 1408q0 287 -169 497t-455 266q-56 -118 -187 -282t-300 -322q-20 -87 -20 -210
q0 -338 138 -619.5t353 -440.5q323 225 481.5 524.5t158.5 586.5zM2898 2176q-102 20 -236 20q-132 -223 -189 -481q123 87 248.5 217.5t176.5 243.5zM2939 2335q0 87 -51 87q-61 0 -117.5 -62.5t-87.5 -127.5q123 0 225 -25q31 96 31 128zM3988 794q0 184 -96.5 297.5
t-215.5 127.5q-10 0 -12.5 7.5t12.5 12.5q41 0 92.5 13t81.5 13q123 0 197.5 -105.5t74.5 -271.5t-82 -317t-218 -263.5t-310 -179.5t-374 -67t-368 108q-328 -169 -717 -169q-294 0 -490 129.5t-196 408.5q0 179 102.5 342.5t230.5 281.5q159 143 361 271.5t366 245.5
q75 298 210 517q-430 0 -816.5 -143t-673.5 -391.5t-456 -581t-169 -706.5q0 -498 359.5 -753.5t951.5 -255.5q726 0 1224 410q26 20 38.5 17.5t-8.5 -33.5q-99 -155 -462.5 -292.5t-817.5 -137.5q-276 0 -537 64t-466 200t-330.5 351t-125.5 512q0 379 197 701.5t520 563
t737.5 376t849.5 135.5q22 46 83 120.5t99 102.5t79 28t61.5 -25.5t20.5 -51.5q0 -92 -61 -204q323 -56 517 -233t194 -502t-205 -658.5t-501 -532.5q181 -128 353 -128q123 0 248.5 36t286.5 160t161 450z" />
    <glyph glyph-name="quotesingle" unicode="'" horiz-adv-x="1116" 
d="M1559.5 2166.5q-119.5 -177.5 -223.5 -313.5q-31 -46 -77 -112.5t-111 -161t-165 -263.5q-20 -31 -48.5 -18t-7.5 49q77 143 146 273.5t140.5 258.5t140.5 251t156 251q36 46 82 46q20 0 53.5 -18t33.5 -42q0 -23 -119.5 -200.5z" />
    <glyph glyph-name="parenleft" unicode="(" horiz-adv-x="1873" 
d="M512 246q0 128 56 307q97 302 276.5 609t410 583.5t504.5 502t560 363.5q26 0 31 -13t-15 -23q-246 -102 -484 -335t-440.5 -512t-356 -557.5t-230.5 -458.5q-158 -368 -158 -599t158 -359q20 -10 7.5 -28t-27.5 -2q-292 184 -292 522z" />
    <glyph glyph-name="parenright" unicode=")" horiz-adv-x="2078" 
d="M2427 2054q0 -277 -179 -651q-113 -236 -279.5 -499.5t-371 -501.5t-445.5 -420t-497 -253q-31 0 -38.5 12.5t23.5 22.5q508 152 912.5 800.5t531.5 930.5q138 276 179 476t41 287q0 189 -113 297q-15 15 -5 28t26 3q118 -102 166.5 -235t48.5 -297z" />
    <glyph glyph-name="asterisk" unicode="*" horiz-adv-x="1300" 
d="M1254 1659q36 0 21 25q-26 36 -90 113t-105 128q-15 20 5.5 46t51.5 26t51 -41q86 -153 109.5 -209.5t42.5 -37.5t145 308q20 41 35.5 51.5t41 10.5t41 -28.5t-10.5 -53.5q-26 -31 -56.5 -72l-61 -82t-53.5 -79.5t-39 -58.5q-26 -46 31 -31q26 5 67 13t82 15.5t76.5 12.5
t56.5 10q87 16 87 -35q0 -20 -15.5 -43.5t-69.5 -18.5q-55 5 -139 5h-155q-41 0 -10 -30q46 -56 115 -135.5t79 -120.5q20 -56 -25.5 -69t-61.5 28q-89 178 -153 281q-15 31 -36 -15q-70 -127 -133 -287q-26 -61 -74.5 -61t-48.5 28t30 74q10 10 36 51t80 118t69 92
q31 41 -16 31q-5 0 -48.5 -10.5t-97 -23t-107.5 -23t-85 -20.5q-26 0 -36 18.5t-10 30.5t18 33t28 26l256 10h82z" />
    <glyph glyph-name="plus" unicode="+" horiz-adv-x="2048" 
d="M1172 604q145 264 221 384l123 -25q-150 -193 -246 -359q298 0 394 -36l5 -92q-153 41 -445 41q-123 -217 -220 -466l-98 72q162 285 226 399q-276 0 -390 -10l-35 108q10 -2 465 -16z" />
    <glyph glyph-name="comma" unicode="," horiz-adv-x="1075" 
d="M891 353q0 -51 -41 -92q-420 -420 -586.5 -599t-278.5 -307q-10 -10 -38.5 -18t-28.5 28q0 26 15 41q372 423 850 1070q20 36 57 36q15 0 33 -28.5t18 -130.5z" />
    <glyph glyph-name="hyphen" unicode="-" horiz-adv-x="1617" 
d="M1618 696q0 -41 -64 -41h-39l-537 -5h-210q-51 0 -51 31q0 15 15.5 30.5t45.5 15.5l307 -5l477 10q56 0 56 -36z" />
    <glyph glyph-name="period" unicode="." horiz-adv-x="1177" 
d="M794 238q0 -74 -77.5 -169t-153.5 -95q-36 0 -64 20.5t-28 61.5q0 102 69 179t156 77q26 0 62 -18t36 -56z" />
    <glyph glyph-name="slash" unicode="/" horiz-adv-x="1884" 
d="M2253 2806q-143 -312 -259 -566t-266 -578q-151 -326 -410 -892t-724 -1569q-15 -36 -59 -41t-43 36q0 20 308 705q308 686 828 1782t526 1120q7 23 53 36t46 -33z" />
    <glyph glyph-name="zero" unicode="0" horiz-adv-x="2247" 
d="M2263 1690q0 159 -48.5 284t-186.5 125q-36 0 -113 -18t-242.5 -98.5t-340.5 -278.5q-314 -356 -446.5 -688t-132.5 -581q0 -195 92 -305t246 -110q210 0 417 136t376 366.5t274 532.5t105 635zM2488 1792q0 -148 -58.5 -353t-219.5 -534.5t-511.5 -647.5t-715.5 -318
q-198 0 -296 61t-149.5 148.5t-51.5 227.5q0 266 178 616t462 667q67 72 184.5 169t219.5 138q115 46 376.5 159.5t315.5 142.5q165 -23 215.5 -175.5t50.5 -300.5z" />
    <glyph glyph-name="one" unicode="1" horiz-adv-x="1382" 
d="M727 49q0 -79 56 -151q26 -15 10.5 -38.5t-30.5 -2.5q-87 113 -148.5 187t-61.5 174t64 230q134 272 416 713.5t600 886.5q5 5 5 10v5q0 5 -5 11q-15 0 -20 -11q-97 -56 -328.5 -201t-700.5 -434q-21 32 -21 88q403 208 731.5 413.5t446.5 287.5q51 10 110 20.5t110 25.5
l10 -15q-646 -880 -1167 -1890q-77 -146 -77 -309z" />
    <glyph glyph-name="two" unicode="2" horiz-adv-x="2135" 
d="M230 -36q-82 0 -148.5 18t-66.5 88q0 135 207 247.5t490 112.5h128q128 0 184 -5q455 369 770 714.5t315 611.5q0 164 -79 253.5t-220 89.5t-238 -33t-202 -107.5t-249 -253.5q-15 -20 -30.5 -7.5t-5.5 32.5q202 241 417.5 397t464.5 156t311 -115t62 -228
q0 -267 -320 -617t-537.5 -550t-397.5 -343q256 -20 497 -46t369 -67q61 -15 61 -82q-33 -166 -56 -230l-10 -5q-98 88 -395 165.5t-655 105.5q-260 -198 -422 -250t-244 -52zM557 282q-199 0 -329.5 -26t-130.5 -113q0 -36 41 -61.5t128 -25.5q210 0 348 77t210 138
q-68 11 -267 11z" />
    <glyph glyph-name="three" unicode="3" horiz-adv-x="1792" 
d="M532 -159q-450 0 -450 225.5t41 317.5l20 5v-72q15 -154 130.5 -251t392.5 -97q357 0 611 167.5t254 442.5q0 87 -48.5 174t-122.5 177t-105 135.5t-31 91.5t18 74.5t74 69t161 102t271 163.5t167 221q0 172 -171.5 234.5t-304.5 72.5q-26 0 -21 26q41 36 105 72t100 51
q200 -10 335.5 -92.5t135.5 -230.5q0 -178 -286 -358q-232 -146 -288 -198t-56 -112q0 -59 41 -117.5t103 -130.5t100 -126t38 -169t-102.5 -268.5t-271.5 -287t-389 -223t-451 -89.5z" />
    <glyph glyph-name="four" unicode="4" horiz-adv-x="2160" 
d="M2350 740q0 -49 -30.5 -125.5t-66.5 -117.5q-10 -10 -20.5 -5t-10.5 15q31 41 31 79t-46 54q-104 31 -281 56.5t-370 25.5q-189 -360 -237.5 -516t-48.5 -186v-46q0 -20 10 -35q0 -20 -31 -21q-33 68 -107 169q-36 41 -36 87t26 97q72 133 140.5 264t104.5 187
q-336 0 -605.5 -36t-413.5 -66q-15 0 -15 20q15 72 15 118q0 36 55 47t150 65q394 230 660.5 414.5t445.5 379.5q108 118 108 282q0 87 -36 169q0 25 79.5 73.5t109.5 48.5q26 -10 44 -48.5t18 -94.5q0 -204 -261 -456q-188 -188 -562.5 -442t-518.5 -351
q-20 -10 -17.5 -20.5t27.5 -10.5q345 15 784 15q215 364 375.5 596.5t304.5 358.5t334 238q41 10 30 -30q-154 -92 -305 -239.5t-570 -923.5q333 0 502 -15t199 -20q36 -5 36 -54z" />
    <glyph glyph-name="five" unicode="5" horiz-adv-x="1520" 
d="M1541 1987q-190 0 -333 35q-133 -128 -186.5 -243t-53.5 -156q0 -72 62 -133.5t184 -133.5t199 -151t77 -209t-69 -276.5t-244.5 -364t-497 -435t-551.5 -217.5q-118 0 -182 41t-64 159q0 56 26 71q10 -92 81.5 -122.5t207.5 -30.5t320 82t345.5 222.5t271.5 330
t110 404.5q0 173 -133 284q-77 64 -128 97.5t-110 76.5t-59 126q41 179 169 371t292 397q26 31 41 31t89.5 -20.5t238.5 -20.5q358 0 527 128t169 291q0 51 -26 103q15 10 41 -5q15 -46 16 -103q0 -118 -59 -230.5t-169 -202t-261 -143t-341 -53.5z" />
    <glyph glyph-name="six" unicode="6" horiz-adv-x="1761" 
d="M2734 2154v37q0 56 -61.5 107.5t-245.5 51.5q-251 0 -512 -158.5t-486.5 -394t-397 -507t-243.5 -496.5q120 136 291 249.5t344 113.5q123 0 202.5 -56.5t79.5 -196.5t-79.5 -307t-210 -310.5t-297 -240.5t-350.5 -97t-256 92t-72 251t84.5 391.5t335.5 570.5
q477 618 830 849.5t522 293t279 61.5t192 -46.5t82 -184.5q0 -41 -16 -87l-20 -5q5 15 5 19zM1357 1085q-82 0 -200 -51t-225.5 -156t-184 -258.5t-76.5 -358.5q0 -118 56.5 -184.5t148.5 -66.5t209.5 74.5t225 194.5t182 271t74.5 305q0 230 -210 230z" />
    <glyph glyph-name="seven" unicode="7" horiz-adv-x="1756" 
d="M579 82q0 77 17.5 146t128.5 232.5t616 650.5q543 531 902 927q-61 -20 -158.5 -33t-166.5 -13q-136 0 -328.5 28t-340.5 28q-220 0 -333 -164q-144 -199 -215 -481l-41 36q112 381 333 640q72 87 174.5 138t197.5 51t332.5 -53.5t363 -76.5t187 -23t123 74t97.5 161
q61 0 107 -25.5t46 -35.5q0 -15 -15 -31q-111 -111 -261 -184q-442 -471 -1029 -1070q-295 -295 -406 -514t-111 -311q0 -148 112 -189l-10 -26q-61 -10 -127.5 -35.5t-97.5 -46.5q-26 0 -61.5 61.5t-35.5 138.5z" />
    <glyph glyph-name="eight" unicode="8" horiz-adv-x="1720" 
d="M2181 2084q0 -46 -10 -107.5t-120.5 -203t-550.5 -406.5q41 -67 133 -176t92 -279q0 -238 -236 -507.5t-437.5 -355t-314.5 -85.5q-159 0 -281.5 92t-122.5 256t89.5 302.5t225 256t299.5 220t318 189.5q-82 154 -82 261t66.5 233t174 238.5t248 186.5t284.5 74
q225 0 225 -189zM2002 2033q0 72 -41 112.5t-115 40.5t-164 -46t-166.5 -115t-125.5 -156t-49 -164t31 -141t103 -161q292 184 409.5 338t117.5 292zM1541 707q0 135 -51 226t-97 157.5t-103 153.5q-357 -198 -562.5 -389t-205.5 -420q0 -159 107.5 -253.5t251.5 -94.5
q202 0 431 206t229 414z" />
    <glyph glyph-name="nine" unicode="9" horiz-adv-x="1761" 
d="M896 1326q0 -200 248 -200q125 0 268.5 82t256.5 207.5t184.5 282t71.5 299.5q0 82 -41 140.5t-128 58.5q-148 0 -302 -94.5t-276.5 -232.5t-202 -289.5t-79.5 -253.5zM246 0q261 0 494 135.5t430 345.5t345.5 458.5t240.5 468.5q-118 -128 -287 -235.5t-368 -107.5
q-128 0 -225.5 66.5t-97.5 204.5t95 297t246 300t335 235.5t365 94.5t251 -90t70 -220t-66.5 -330t-202 -430t-340.5 -468.5t-476 -448.5q-215 -164 -443 -261t-412 -97q-102 0 -192 48.5t-131 156.5l15 20q61 -82 161.5 -112.5t192.5 -30.5z" />
    <glyph glyph-name="colon" unicode=":" horiz-adv-x="1223" 
d="M773 238q0 -74 -76.5 -169t-153.5 -95q-36 0 -64 20.5t-28 61.5q0 102 69 179t156 77q26 0 61.5 -18t35.5 -56zM1224 1082q0 -76 -77.5 -169.5t-153.5 -93.5q-36 0 -64 20.5t-28 61.5q0 102 69 179t156 77q26 0 62 -18.5t36 -56.5z" />
    <glyph glyph-name="semicolon" unicode=";" horiz-adv-x="1182" 
d="M855 353q0 -51 -41 -92q-420 -420 -586.5 -599t-278.5 -307q-10 -10 -38.5 -18t-28.5 28q0 26 16 41q357 406 850 1070q20 36 56 36q15 0 33 -28.5t18 -130.5zM1213 1088q0 -74 -76.5 -169t-153.5 -95q-36 0 -64 20.5t-28 61.5q0 102 69 179t156 77q26 0 61.5 -18
t35.5 -56z" />
    <glyph glyph-name="less" unicode="&#x3c;" horiz-adv-x="2048" 
d="M1905 947q-77 -20 -210 -61t-284 -87t-299.5 -89.5t-251.5 -74.5q165 -52 421 -164.5t316 -147.5l-56 -103q-108 74 -397.5 207.5t-462.5 186.5l15 57q92 11 584 179.5t609 214.5z" />
    <glyph glyph-name="equal" unicode="=" horiz-adv-x="2048" 
d="M732 451l62 102q51 0 174 -5t263.5 -7.5t266 -5.5t186.5 3l-35 -98q-147 16 -493.5 16t-423.5 -5zM1094 742q-130 0 -203 -5l41 103q51 0 171.5 -5.5t258.5 -8t261 -5t174 2.5l-41 -97q-48 6 -290 10.5t-372 4.5z" />
    <glyph glyph-name="greater" unicode="&#x3e;" horiz-adv-x="2048" 
d="M1029 978q470 -202 855 -307l-15 -57q-112 -15 -599 -184t-610 -215l-15 118q228 72 1060 317q-99 19 -310.5 91.5t-306.5 108.5t-136 51z" />
    <glyph glyph-name="question" unicode="?" horiz-adv-x="1392" 
d="M835 136q0 -42 -71 -89t-124 -47q-20 0 -64 36t-44 82t36 99.5t164 110.5q36 0 36 -36q0 -67 33.5 -100t33.5 -56zM901 688q0 85 72 141q59 59 239 183t306 211.5t218 177t143 186.5t51 227t-71.5 210t-266.5 137q-174 56 -202 89.5t8 81.5q132 176 164 151
q-15 -31 -23 -54t19 -61t202 -90q176 -51 265.5 -130.5t89.5 -220.5t-90.5 -298.5t-386.5 -379.5q-138 -102 -248 -173.5t-187 -128t-120.5 -105t-43.5 -112.5q0 -115 113 -218q46 -36 -5 -36q-67 13 -154 0q-61 41 -76.5 99.5t-15.5 112.5z" />
    <glyph glyph-name="at" unicode="@" horiz-adv-x="2979" 
d="M2317 1695h-39q-128 0 -246 -100t-217.5 -223t-179 -245.5t-128 -230.5t-48.5 -159t36 -51q108 0 378.5 329.5t366 479t115.5 195.5q-15 5 -38 5zM2243 532q-277 0 -277 226q0 164 159 491q-282 -338 -461 -507t-302 -169q-87 0 -87 113q0 154 285.5 604.5t784.5 450.5
q102 0 189 -26q41 -15 -5 -46t-97 -123q-118 -225 -205 -422t-87 -315t61.5 -164t189.5 -46t276.5 89.5t269 240.5t197 353.5t76.5 422.5q0 287 -194 448t-522 161t-658.5 -148.5t-594 -394t-427.5 -563.5t-164 -658t210 -545t563 -205q236 0 443.5 74.5t368.5 182
t263.5 225t122.5 199.5q10 20 20.5 18t10.5 -28q-20 -113 -148 -246t-312.5 -245.5t-407 -189.5t-416.5 -77q-399 0 -661 207.5t-262 576.5q0 200 84.5 417.5t235.5 424.5t353.5 391.5t571.5 407t855 222.5q362 0 593 -161t231 -491q0 -176 -89.5 -384t-243 -384.5
t-358.5 -292t-435 -115.5z" />
    <glyph glyph-name="A" unicode="A" horiz-adv-x="2718" 
d="M2237 764q0 55 -53.5 114t-140.5 82t-443 23t-463 15q-389 -353 -653 -645t-397 -486q-41 -67 -59 -120.5t-28 -140.5q-10 -31 -31 -16l-30 256q5 92 69 166.5t171 176.5q983 916 1587.5 1446.5t773.5 648.5q41 26 122.5 46t112.5 51t33.5 7.5t-7.5 -43.5
q-51 -77 -82 -177t-39 -143t-30.5 -158.5t-53.5 -282t-64 -358.5t-75 -431t-61 -452q0 -152 49.5 -196.5t90.5 -44.5q40 0 75.5 8t76.5 18t43.5 -5t-27.5 -23q-62 -16 -203.5 -58t-263.5 -68q-77 0 -102 103q102 632 102 687zM1802 1024q348 0 405 -15q56 -15 63.5 -13
t18.5 38q28 142 108 599t88 490t-2 35t-38 -18t-100 -79t-278.5 -232t-443 -380t-363.5 -353q12 -72 106 -72h436z" />
    <glyph glyph-name="B" unicode="B" horiz-adv-x="2493" 
d="M1485 1160q-1 64 71 64q40 0 92 -15.5t143 -15.5t170 31q208 93 311.5 218t147 232.5t43.5 217.5q0 194 -130.5 264.5t-330.5 70.5q-56 0 -105 -12.5t-97 -73.5t-213 -344q-288 -515 -752 -1433q-26 -51 -31 -93q0 -31 25.5 -77t126 -120t339.5 -74q174 5 345.5 69
t310 174t223 261t84.5 312q0 310 -430 331q-72 0 -159 -18t-153 -18q-15 5 -23 13t-8 36zM1784 2278q222 0 399 -12.5t292.5 -58.5t174 -128t58.5 -220q0 -72 -35.5 -169.5t-120 -192t-223 -179t-337.5 -130.5q-10 0 -10 -13t10 -13q72 -15 158.5 -33t163.5 -61.5
t131 -112.5t54 -199t-77 -276.5t-218 -264.5t-343 -192t-458 -74q-376 0 -630 128q-83 46 -121 46t-125 -41t-158 -97l-31 25q88 94 149 198t148 255t166.5 297t153.5 282t136 243q46 92 160.5 298.5t304.5 607.5q20 41 -25 41q-120 0 -328 -33t-278 -33t-70 51q0 56 31 87
q10 0 15 -15q10 -15 43.5 -20.5t179.5 -5.5t292 7.5t368 7.5z" />
    <glyph glyph-name="C" unicode="C" horiz-adv-x="2641" 
d="M788 410q0 -420 538 -420q430 0 783.5 227.5t670.5 663.5q15 20 26 20q20 -1 20 -57t-12.5 -84t-28.5 -53q-236 -353 -622 -555.5t-847 -202.5q-527 0 -640 212.5t-113 396.5t110 486.5t424.5 656t619.5 468.5t520 115q470 0 763 -175q41 -20 41 -61q-36 -61 -92 -192
t-92 -233l-46 -15q25 65 25 158q0 206 -136 338.5t-468 132.5q-148 0 -276 -58.5t-248 -145.5t-281.5 -266.5t-305 -402t-238.5 -471t-95 -483.5z" />
    <glyph glyph-name="D" unicode="D" horiz-adv-x="2933" 
d="M1546 2202q-164 0 -322.5 -31t-322.5 -36q-92 0 -92 82q0 72 26 72q10 0 79 -31t151 -31q208 0 486 26q128 5 251 10t287 5t361 -25.5t353 -102.5t256 -217.5t100 -363.5t-79.5 -440.5t-212.5 -409.5t-454 -471t-1051 -279q-174 0 -333 23t-312 105q-51 26 -89 26
t-115.5 -36t-148.5 -92l-31 25q113 121 210 297q44 73 221.5 379.5t292.5 514t270.5 480.5t259.5 495q0 26 -41 26zM2893 1582q0 429 -307.5 532t-573.5 103q-56 0 -94.5 -5t-69.5 -56q-374 -585 -718.5 -1225t-345.5 -678t30 -69q87 -92 238 -138t310 -46q312 0 588.5 123
t486.5 335.5t333 501.5t123 622z" />
    <glyph glyph-name="E" unicode="E" horiz-adv-x="2432" 
d="M968 1145q0 22 -56 22t-57 16q0 36 61 46q118 15 175 123q20 36 89 158.5t143.5 263.5t133.5 256t59 135.5t-31 20.5q-385 0 -579 -51l-10 5q10 87 41 118q334 -21 530 -21q197 0 586 15.5t702 15.5q31 0 30 -25q-10 -26 -40.5 -80t-56.5 -110l-20 5q0 31 -13 56.5
t-28 30.5q-281 46 -712 46q-82 0 -123 -51q-222 -296 -543 -870q-20 -46 31 -46q72 -5 90 -5h202q236 0 412.5 12.5t355.5 53.5l15 -15l-21 -41q-20 -41 -30 -67q-5 -20 -41 -20q-266 10 -494 10h-341q-108 0 -204 -5q-41 0 -57 -31q-234 -415 -332 -650q-51 -118 -52 -210
q0 -241 364 -241q319 0 740 94t606 234q20 10 21 -20q-40 -33 -108 -134q-36 -67 -154 -95q-185 -44 -533.5 -89.5t-580.5 -45.5t-355 13t-192 41t-94.5 66.5t-25.5 110.5t56 174q20 36 92 158.5t210.5 366.5t138.5 256z" />
    <glyph glyph-name="F" unicode="F" horiz-adv-x="1792" 
d="M1526 1070q-244 0 -328 15q-41 0 -66 -41q-345 -588 -436 -829q-15 -46 -15 -87t41 -74.5t189 -33.5q31 0 31 -22t-87 -24h-56q-426 0 -451 31t-25 56.5t25 76.5q102 195 251 415t285 456q413 720 596 1131q20 51 -26 56q-79 11 -155 11t-78 2.5t-2 12.5q0 31 25 31
q87 -5 122 -5h375q427 0 671.5 53.5t295.5 76.5q52 23 70 23t18 -15q-46 -51 -69 -110t-65 -59q-99 -5 -405 -12t-414 -14q-41 -5 -59 -20t-51 -64q-35 -52 -197 -335t-317 -574q0 -31 87 -56.5t250 -25.5q403 0 681 77l11 -10q0 -10 -15.5 -48.5t-41.5 -54.5l-125 -2z" />
    <glyph glyph-name="G" unicode="G" horiz-adv-x="2913" 
d="M870 -1316q169 0 338 95t325.5 243.5t297 340.5t261 381t215 366t161.5 300q0 41 -38 5t-143.5 -118t-364.5 -223t-614 -141q-356 0 -548 156.5t-192 427.5q0 108 61.5 317.5t205 450.5t376.5 468.5t576 371.5q358 143 746 143t535 -74t193 -131q-46 -202 -148 -430
l-36 -10l-5 15q20 62 20 141t-53.5 161t-195.5 177t-415 95q-505 0 -907 -405q-113 -108 -241 -279t-310 -497t-182 -637q0 -205 138.5 -312.5t381.5 -107.5t468.5 95t412.5 235.5t325 312t194 325.5q20 51 18 76.5t-58 25.5l-461 -35l-16 5l16 56q549 0 926 82
q20 -15 0 -46q-82 -20 -112.5 -49t-96.5 -159q-273 -535 -520.5 -984t-468.5 -697q-476 -569 -1070 -569q-159 0 -297 52l-5 35l16 11q122 -62 291 -62z" />
    <glyph glyph-name="H" unicode="H" horiz-adv-x="2928" 
d="M2504 1009q0 123 -252 123q-224 0 -517 -21.5t-460 -50.5q-31 -5 -51.5 -25.5t-40.5 -51.5q-118 -205 -259 -438t-233 -463q-10 -31 -20.5 -41t-53.5 -10q-100 0 -159.5 -20t-140.5 -67l-15 10q453 672 722 1096q-61 92 -77 138q5 26 51 25h87q36 0 52 41
q227 402 310.5 593t83.5 242t-31 66.5t-152 15.5t-206 -15q-31 0 -31 30.5t51 30.5t141 2.5t189.5 10t199.5 15.5t182 13q51 0 15 -67q-214 -302 -553 -952q-15 -26 -17.5 -41t28.5 -15q260 -11 352 -11q93 0 203 5.5t249.5 11t413.5 30.5q55 11 77 56q344 664 558 1014
q26 36 67 56q109 66 374 168.5t337 102.5t72 -25q0 -10 -21 -15.5t-33 -5.5q-59 0 -181 -39.5t-200 -108.5q-123 -102 -231 -246q-221 -313 -361 -571t-192 -366q-348 -726 -348 -963q0 -200 205 -199q72 0 177 35.5t166 76.5q15 0 20.5 -12.5t-15.5 -33.5
q-102 -46 -261 -99.5t-389 -63.5q-169 10 -169 192q0 190 266 750q20 41 21 87z" />
    <glyph glyph-name="I" unicode="I" horiz-adv-x="1254" 
d="M1531 2125q0 56 -154 56t-266 -25l-15 5q10 41 30 61q578 27 779 62q26 -15 25 -41q0 -10 -30 -21q-41 -10 -67.5 -46t-92.5 -159q-586 -1085 -1115 -1889q-75 -103 -190 -128q-121 -22 -240 -10q-11 5 -11 25q77 9 144 87q224 282 668.5 993t524.5 973q10 31 10 57z" />
    <glyph glyph-name="J" unicode="J" horiz-adv-x="1664" 
d="M2621 2252.5q0 -20.5 -20 -20.5q-31 5 -53 5h-39q-41 0 -66.5 -7.5t-51.5 -38.5q-108 -138 -230.5 -366t-301.5 -558t-415 -704q-82 -133 -197 -284t-223 -253t-398 -340.5t-831 -238.5q-230 0 -394 67q-26 10 -38.5 22.5t-7.5 48.5q0 92 10 236l36 10
q20 -133 130.5 -228t340.5 -95t412 74t372 264t371 453.5t322 501.5q257 433 450 798t290 577q5 10 5 30.5t-31 20.5q-355 0 -589.5 -74t-321.5 -120t-156 -143.5t-69 -215.5q0 -41 10 -71q10 -15 -10 -16q-26 15 -54 61t-28 136t138 266.5t716.5 202t901.5 25.5
q20 -5 20 -25.5z" />
    <glyph glyph-name="K" unicode="K" horiz-adv-x="2570" 
d="M1050 2171q-56 0 -57 31q0 12 33 72.5t54 60.5q0 -41 52 -57q52 -13 266 -30l133 -5q298 0 640 25q15 -26 -5 -46q-108 0 -200 -10q-36 0 -61 -41q-196 -310 -625 -1029q-20 -36 -7.5 -43.5t38.5 12.5q556 333 993 625q51 31 184 120.5t274 184t256 171.5t136 82h20
q32 -19 128 -46q5 -15 -5 -26q-164 -45 -1111 -630q-405 -255 -655 -435q-20 -15 -21 -31q210 -282 492 -627t717 -750q322 -300 543 -403.5t456 -103.5t432 54t320 141q41 26 41 -10q0 -10 -21 -26q-143 -92 -371 -151t-428 -59t-589.5 81t-992.5 748q-487 548 -839 1024
q-15 26 -34 20t-217.5 -366t-270.5 -486t-85 -164t-18 -58q-52 10 -113 10t-127.5 -35.5t-97.5 -66.5q-31 0 -31 15q320 383 675 1016t503.5 922t163.5 335q0 15 -26 16q-138 0 -281.5 -15.5t-260.5 -15.5z" />
    <glyph glyph-name="L" unicode="L" horiz-adv-x="2252" 
d="M2131 2253q-98 0 -229.5 -157t-293.5 -452q-136 -232 -271 -472t-303 -527q-123 -205 -248.5 -320t-263.5 -192q-31 -15 -36 -30.5t41 -15.5q292 31 763 61.5t515 30.5h84q179 1 251 -17t72 -70q0 -26 -23 -100t-44 -115q-10 -1 -10 23q0 68 -46 85q-204 82 -758 82
q-879 0 -1218 -108q-20 5 -36 23t-16 33q0 31 41 31q200 0 285 51q84 51 158.5 141t220 332.5t439 785.5t444.5 794q10 26 33 39t90 39t228 51t289 25q26 -10 23 -36t-18 -36q-65 21 -163 21z" />
    <glyph glyph-name="M" unicode="M" horiz-adv-x="3840" 
d="M3672.5 102q78.5 0 172.5 41q10 0 12.5 -12.5t-7.5 -22.5q-51 -15 -120 -36t-138 -41.5t-128 -38.5t-100 -28q-61 0 -99.5 23t-49.5 85q14 206 140.5 732.5t172.5 718.5t79 325t38 159q20 77 0 75t-89 -64t-199.5 -198t-324.5 -353t-527 -629.5t-544 -719.5
q-10 -20 -25.5 -48.5t-25.5 -64.5q-97 -5 -146 -28t-100 -69q-31 -10 -36 10q51 368 84.5 860t49 694t25.5 355.5t15 220.5q0 97 -82 0q-317 -362 -901.5 -1152.5t-622 -971t-32.5 -237t-10.5 -48.5t-30.5 38.5t-25.5 92t-36.5 169.5q39 147 694.5 988t1103.5 1372
q108 36 169 54t97 33q31 -10 10 -31q-61 -41 -77 -118q-61 -358 -109.5 -968.5t-48.5 -961.5q0 -90 22 -85.5t72 68.5q49 64 177 220t383.5 463t639.5 743t477 521q82 41 199.5 77t189.5 82q15 0 25.5 -12.5t0.5 -28.5q-87 -36 -125.5 -61.5t-64.5 -97.5
q-131 -418 -249.5 -1014.5t-118.5 -951.5q0 -72 33 -100t111.5 -28z" />
    <glyph glyph-name="N" unicode="N" horiz-adv-x="2810" 
d="M1291 2217q182 0 337 51q36 0 41 -46q10 -41 28.5 -120.5t46.5 -184.5t94.5 -297t140.5 -396.5t148.5 -404t130.5 -363.5q10 -41 20.5 -66.5t30.5 -25.5t38 28t85 164q259 526 488.5 966.5t474.5 822.5q81 133 153 194.5t131 92t110 30.5t105 -33t69 -74q0 -10 -15 -10
q-214 0 -343 -133.5t-216 -250.5q-440 -604 -916 -1664q-165 -392 -230 -523q-15 -36 -31 -35q-20 0 -46 35q-151 534 -362.5 1102t-267.5 701q-31 67 -56.5 66.5t-66.5 -61.5q-331 -517 -539.5 -895t-272 -594t-63.5 -370h-16q-10 5 -28 36t-51 84t-33 105q0 83 102 241
q77 136 356 601t419.5 725t140.5 343q0 108 -122 108q-158 0 -272 -10q-20 0 -33 23t-13 45t16 24q105 -31 287 -31z" />
    <glyph glyph-name="O" unicode="O" horiz-adv-x="3015" 
d="M2354 2253q-290 0 -505.5 -105t-394.5 -310q-224 -250 -409 -619.5t-185 -650.5q0 -449 256 -508.5t400 -59.5q302 0 570.5 158.5t473.5 402t325 538t120 581.5t-180.5 430t-470.5 143zM1556 -46q-443 0 -692.5 153t-249.5 513q0 304 151 589.5t269 439t231 256.5
q220 200 496.5 292t568.5 92q377 0 569.5 -105t279.5 -230.5t82 -320.5q-5 -317 -148 -619t-376 -537.5t-540.5 -379t-640.5 -143.5z" />
    <glyph glyph-name="P" unicode="P" horiz-adv-x="2155" 
d="M2801 1840q0 -130 -79.5 -281t-228 -281.5t-361 -215t-483.5 -84.5q-128 0 -226 36q-15 10 -15 20q0 20 20 21q26 -10 95 -20.5t131 -10.5q195 0 361 77t286.5 199.5t189.5 276.5t69 307q0 215 -130.5 292t-286.5 77t-259 -26q-67 -20 -102 -87q-97 -164 -233 -391.5
t-376 -651t-379 -693.5q-124 -250 -8.5 -304t279.5 -54q56 0 56 -15.5t-25 -20.5q-221 -36 -436 -36q-71 0 -130 18t-89.5 41t-30.5 59q0 91 166 373.5t350 589.5t462 824q18 27 70 145t52 147q0 20 -25 20q-164 -5 -320 -25.5t-320 -20.5q-97 0 -97 57q0 10 17.5 53.5
t33.5 43.5q10 0 15 -21q10 -51 293 -51t621 36t437 36q98 0 213 -20.5t210 -74.5t154 -144t59 -220z" />
    <glyph glyph-name="Q" unicode="Q" horiz-adv-x="2800" 
d="M1454 20q174 0 374 72q-36 56 -74.5 115t-125.5 138.5t-296 79.5t-456 -159q87 -143 245.5 -194.5t332.5 -51.5zM3318 -210q-346 -568 -717 -568q-128 0 -261 77q-92 51 -166.5 153.5t-133.5 215t-107.5 220t-84.5 168.5q-236 -82 -466 -82q-427 0 -634 200
q-97 -67 -194.5 -164t-169.5 -194q-26 0 -26 36q181 212 364 348q-164 179 -164 462t216.5 649.5t459.5 598.5q184 179 417 273.5t479 94.5q41 0 41 -30q0 -15 -10 -16q-26 5 -31 5h-51q-229 0 -431 -169t-388 -404q-299 -403 -375 -675t-76 -418t51 -274q174 118 333 156.5
t238 38.5t235 -19.5t346 -298.5q184 92 338 253.5t264 353.5t171.5 396.5t61.5 376.5q0 361 -154 545q-41 46 -94.5 79.5t-99.5 43.5q-26 10 -26 15q0 10 26 11l199 -5q89 0 138 -41q77 -61 149 -181.5t72 -308.5t-56.5 -394.5t-179.5 -421.5t-315 -414.5t-468 -338.5
q31 -46 71.5 -120t124 -211.5t220.5 -294.5q136 -157 295 -157q113 0 197.5 54t166.5 146t164 256q10 15 25.5 4.5t15.5 -30.5z" />
    <glyph glyph-name="R" unicode="R" horiz-adv-x="2621" 
d="M2178 2273q366 0 589 -89.5t223 -319.5q0 -113 -74 -233.5t-207.5 -222.5t-325.5 -176.5t-422 -99.5q-46 -5 -31 -41q221 -408 656 -1019q401 -547 748 -670.5t547 -123.5q307 0 609 159q31 20 31 -10q0 -20 -21 -26q-368 -195 -727 -195q-292 0 -512 59t-404 182
t-350.5 317.5t-345.5 471.5q-51 82 -123 202t-149 248t-146 248.5t-115 197.5q0 20 16 20q477 0 686.5 125.5t288.5 256t79 304.5q0 246 -179 312.5t-316 66.5t-195 -67q-57 -67 -159.5 -222.5t-294.5 -475.5t-444.5 -775.5t-346.5 -666.5q-5 -10 -21 -10q-52 10 -62 10h-73
q-64 0 -105 -10q-61 -36 -118 -97q-10 0 -23 5t-3 15q813 1184 1352 2207q15 41 7.5 51t-33.5 10q-288 -19 -593 -184q-172 -101 -297 -328q-10 -5 -20.5 -2.5t-10.5 13.5q29 78 56 204q0 51 62 87q287 156 629 231q302 61 668 61z" />
    <glyph glyph-name="S" unicode="S" horiz-adv-x="1684" 
d="M236 379q0 -143 117.5 -253.5t342.5 -110.5q226 0 382 72t266 202.5t110 309.5q0 87 -41 176.5t-151 230.5t-164 243.5t-54 235.5t59 266t149 238t242 189.5t355 84.5t307 -113q25 -35 25 -71q-62 -158 -92 -272q-20 -10 -36 16q15 31 15 77q0 92 -89 174t-289 82
t-328 -120.5t-128 -320.5q0 -154 71.5 -286.5t148.5 -232.5q155 -200 195.5 -277.5t40.5 -185.5q0 -205 -255 -486t-795 -283q-262 0 -445 87q-26 15 -46.5 28t-25.5 29q42 183 97 378q0 10 15.5 10.5t15.5 -25.5q-15 -46 -15 -92z" />
    <glyph glyph-name="T" unicode="T" horiz-adv-x="2037" 
d="M3379 2693q0 25 -5 33t-5 23t15 16q5 0 16 -10q61 -67 92 -134q15 -20 15 -56t-20 -77q-87 -143 -289 -215.5t-435.5 -66.5t-310.5 1q-72 0 -107 -51q-466 -707 -973 -1629q-98 -185 -107 -297q0 -101 68.5 -155.5t274.5 -54.5h48q49 0 75 6q15 -20 -16 -41
q-219 -25 -453 -16.5t-282 61t-48 106.5q0 93 77 212q375 611 661 1109.5t393 703.5q26 46 -25 46h-169q-276 0 -489 -25.5t-374 -107.5t-289 -238.5t-236 -417.5q-10 -20 -23 -12.5t-23 38.5q163 488 342.5 630.5t302.5 165.5t282 20.5t317 -2.5l594 -5h220q410 5 656 138
q77 41 153.5 123t76.5 179z" />
    <glyph glyph-name="U" unicode="U" horiz-adv-x="3159" 
d="M1096 2222q46 0 161 -7.5t241 -7.5q182 0 328 20.5t179 20.5t33 -21q0 -15 -36 -25t-82 -23t-87 -59q-260 -326 -496 -721t-323 -554q-128 -225 -128 -405t102 -276.5t312 -96.5q404 0 844 317.5t691 773.5t346.5 640t136.5 250t79.5 104t78.5 54q57 22 184.5 55
t151.5 33q23 0 28.5 -25.5t-20.5 -25.5q-57 -11 -108 -62q-283 -349 -495 -712t-283 -512q-163 -303 -207 -471.5t-44 -249.5q0 -236 220 -236q112 0 227.5 46t159 69t48.5 23q26 0 31 -20.5t-21 -30.5q-148 -67 -304 -115.5t-320 -48.5q-338 0 -338 261q0 158 102.5 335
t102.5 187.5t-5.5 13t-10.5 -7.5q-366 -411 -754.5 -589.5t-678.5 -178.5q-220 0 -384 105t-164 320q0 154 90 320t197 337.5t311 496t318 530.5q20 41 21 62q0 46 -77 46l-235 -5l-123 5q-41 0 -43.5 30.5t43.5 30.5z" />
    <glyph glyph-name="V" unicode="V" horiz-adv-x="2257" 
d="M3292 2506q0 -34 -15.5 -74.5t-96 -153.5t-378.5 -440t-928 -998q-353 -353 -501.5 -537.5t-184.5 -256.5q-36 -67 -103 -66q-97 -5 -145 -33.5t-74 -28.5t-26 21q0 15 20 56t64 169t100 371t117.5 603t61.5 482q0 121 -10 210.5t-73 202t-291 112.5q-102 0 -227.5 -38.5
t-197.5 -109.5q-41 -41 -56 -15.5t21 51.5q148 102 353 168.5t389 66.5t253.5 -105t69.5 -274t-33.5 -394t-77 -453t-77 -425t-33.5 -320q0 -26 11 -26q15 1 25 11q553 553 1089.5 1166t748.5 953q82 123 82 205l-10 56q0 20 10 21q15 0 26 -15q26 -26 61.5 -77t35.5 -85z
" />
    <glyph glyph-name="W" unicode="W" horiz-adv-x="3860" 
d="M768 -31q-122 0 -246 -61q-36 0 -15 46q41 61 84.5 161t84.5 197t92 238t144.5 409t215 648.5t121.5 435.5q-1 72 -75 72t-148 -20.5t-110 -20.5t-38 20.5t28 25.5q582 109 629 128.5t57 19.5q26 0 26 -20.5t-15 -30.5q-31 -31 -186 -395t-480 -1515q-15 -56 -2.5 -58.5
t28.5 12.5q220 205 881.5 847t1119.5 1058q15 5 28 -10.5t3 -25.5q-59 -24 -73 -134q-50 -406 -50 -1038q0 -308 5.5 -467t5.5 -225t10 -66q15 0 31 20q92 113 202 243.5t228 272t440 513.5q265 299 582 621.5t441 434.5t229 188.5t238 76.5q31 0 102.5 -28t76.5 -33
q26 -26 -10 -36q-15 5 -33 5h-34q-51 0 -151 -30.5t-400.5 -237t-1004.5 -991.5q-154 -170 -488.5 -581t-438.5 -592q-26 -51 -85 -61q-155 -26 -227 -98q-46 0 -11 52q43 43 60 469.5t19.5 615.5t5.5 363.5t3 302.5q0 72 -36 71q-15 0 -52 -25q-79 -69 -310.5 -288
t-603 -569t-837.5 -864l-23 -23q-23 -23 -38 -23z" />
    <glyph glyph-name="X" unicode="X" horiz-adv-x="2744" 
d="M51 -200q0 108 144 252t423 343q729 521 1143 793q-68 439 -128 681q-41 174 -135.5 233t-209.5 59t-240.5 -33.5t-228.5 -105.5q-41 -20 -43.5 0.5t23.5 35.5q386 205 732 205q179 0 256 -97.5t102 -327.5q27 -289 57 -512q681 461 1336 963q31 26 31 49t-5.5 38
t20.5 15t61.5 -59.5t35.5 -97.5t-36 -58q-160 -92 -584.5 -355t-853.5 -546q82 -545 138 -789q87 -399 328 -399q178 0 425 195q20 20 33 -3t-13 -33q-170 -128 -355 -215t-326 -87q-169 0 -228 135.5t-95 417.5t-86 635q-317 -210 -622 -425t-592 -461q-122 -105 -263 -279
t-141 -279q0 -31 -16 -36q-87 87 -87 148z" />
    <glyph glyph-name="Y" unicode="Y" horiz-adv-x="2053" 
d="M3750 2273h-69q-282 0 -742.5 -304.5t-790.5 -570t-463.5 -412t-174.5 -213.5q-128 -225 -230 -417t-138 -315q-5 -20 -15.5 -33.5t-69.5 -5.5t-100 8t-69 -7.5t-53.5 -25.5t-71.5 -49q-15 -5 -18 15.5t13 36.5q101 81 256.5 313t280.5 495q56 123 102.5 302.5
t46.5 317.5q0 308 -133.5 502t-434.5 194q-184 0 -304.5 -56t-213.5 -184q-15 -20 -40.5 -18t-0.5 43q154 195 348.5 282t430.5 87q148 0 353 -112.5t205 -599.5q0 -108 -26 -271t-28 -181t10.5 -31t33.5 7q369 282 734.5 576t724.5 545q108 77 246 149t271 72q61 0 115 -49
t74 -85q-1 -20 -21 -12t-38 7z" />
    <glyph glyph-name="Z" unicode="Z" horiz-adv-x="2237" 
d="M732 61q0 -31 46 -46q641 -176 1109 -228.5t709 -52.5q399 0 606.5 163.5t273.5 471.5q10 31 25.5 30.5t15.5 -41.5q-31 -148 -100 -296.5t-215 -317.5t-468 -169q-251 0 -555.5 64t-637.5 141t-688.5 146t-709.5 79q-26 5 -33.5 28t33.5 23q133 0 236 87
q284 232 761.5 648.5t827 740t531.5 547.5q41 51 41 71q0 41 -103 41q-627 0 -1039 -51q-310 -32 -430 -143q-46 -46 -46 10q41 87 71.5 133t97.5 56q268 23 875 36l1055 21q51 0 48.5 -25.5t-41.5 -32.5t-110 -75q-118 -97 -279 -243t-353 -317.5t-399.5 -361t-407 -381.5
t-386.5 -371.5t-335 -332.5q-26 -36 -26 -52z" />
    <glyph glyph-name="bracketleft" unicode="[" horiz-adv-x="1730" 
d="M2324 2550q0 -20 -30 -21h-179q-186 0 -229 -7.5t-55.5 -18t-23.5 -30.5q-582 -1013 -902.5 -1635.5t-505.5 -985.5q-15 -31 -15 -52q0 -51 72 -51h204l55 1l222 4q41 0 43.5 -28t-43.5 -28l-405 5l-445 -5q-36 0 -36 26q0 15 36 61t61 87q889 1541 1408 2591
q20 36 15.5 71.5t36.5 35.5l292 -10l394 10q30 0 30 -20z" />
    <glyph glyph-name="backslash" unicode="\" horiz-adv-x="1884" 
d="M2120 -804q0 -46 -41 -33t-57 38q-437 1453 -644 2119q-206 666 -282 920t-126 410q-49 156 -48 176q0 20 44 12t58 -48q175 -554 310 -996q269 -880 449 -1458q181 -578 259 -852q78 -273 78 -288z" />
    <glyph glyph-name="bracketright" unicode="]" horiz-adv-x="1802" 
d="M2668 2549.5q0 -20.5 -26 -43.5t-72 -110q-686 -1225 -1357 -2591q-15 -36 -12.5 -71.5t-38.5 -35.5l-317 10l-435 -10q-31 0 -31 26q0 31 31 30h297q148 0 184 8t56 49q554 964 886.5 1608t516.5 1003q15 31 15 51q0 51 -71 51q-164 0 -259 -7.5t-161 -7.5
q-36 0 -36 25.5t41 25.5l748 10q41 0 41 -20.5z" />
    <glyph glyph-name="asciicircum" unicode="^" horiz-adv-x="2048" 
d="M1044 1142q650 546 927 865l62 -10q-47 -364 -52 -599.5t0 -301.5l-102 -26q0 96 10.5 296.5t20.5 300t15 181.5q-278 -301 -758 -737z" />
    <glyph glyph-name="underscore" unicode="_" horiz-adv-x="2560" 
d="M0 -256v256h2560v-256h-2560z" />
    <glyph glyph-name="grave" unicode="`" horiz-adv-x="1177" 
d="M534 2033q12 0 26 -36q28 -77 106 -264t107 -305q0 -10 -7.5 -12.5t-17.5 7.5q-116 204 -251 477q-15 32 -15 54t20 50.5t32 28.5z" />
    <glyph glyph-name="a" unicode="a" horiz-adv-x="1459" 
d="M328 108q0 -41 46.5 -41t230 155t317.5 357q82 123 158.5 261t138.5 245l-6 6q-174 0 -332.5 -123t-281.5 -289.5t-197 -330.5t-74 -240zM1382 1121q180 0 180 -28t-16 -28q-62 20 -184 20q-236 -415 -346 -658t-110 -360q0 -46 23 -77t100 -31q158 0 434 226.5
t518 531.5q10 15 20.5 7t10.5 -23q-456 -553 -712 -683.5t-366 -130.5t-151 51.5t-41 125.5t43.5 194.5t130.5 258.5q-269 -350 -439 -449t-241 -99q-108 0 -108 113t92 292t248.5 345.5t356 286.5t414.5 120q41 80 87 103l143 41l11 -5q-26 -26 -49 -64.5t-49 -79.5z" />
    <glyph glyph-name="b" unicode="b" horiz-adv-x="1305" 
d="M1014 770q0 140 -26 208q0 31 26 56q76 75 112 98q15 0 21 -11q0 -183 124.5 -275.5t269.5 -92.5q203 0 399 123q26 15 33.5 -3t-17.5 -28q-319 -169 -553 -169q-97 0 -176.5 43.5t-120.5 99.5q0 -195 -64 -353.5t-156 -268.5t-200 -171.5t-192 -61.5t-138 52t-54 146
q0 169 144 491.5t600.5 1088.5t1006.5 1279q306 281 496 360.5t282.5 79.5t141 -48.5t48.5 -122.5t-5 -100t-26 -5t-64 54t-143 33q-200 0 -351 -58.5t-343 -223.5q-154 -128 -333 -376.5t-403 -610t-590 -1076.5q-160 -321 -213 -516.5t-53 -241.5q0 -138 92 -138
q56 0 127.5 53.5t138.5 153.5t113 246t46 286z" />
    <glyph glyph-name="c" unicode="c" horiz-adv-x="1095" 
d="M256 205q0 92 41 194q97 241 274 428t381 274q61 26 103 25q189 0 189 -148q0 -77 -36 -118q-31 -31 -102 -87l-15 5q15 42 15 90t-38 94.5t-128 46.5t-179.5 -64t-159 -169t-110 -240.5t-40.5 -261.5t58.5 -179.5t145.5 -53.5q143 0 386.5 166.5t520.5 504.5
q26 26 38.5 13t-13.5 -39q-156 -197 -374 -387t-414 -273q-142 -57 -261 -57q-282 0 -282 236z" />
    <glyph glyph-name="d" unicode="d" horiz-adv-x="1387" 
d="M317 143q0 -26 20.5 -36t31.5 -10q36 0 130.5 77t297.5 307.5t365 573.5q-195 -5 -299.5 -74.5t-186.5 -171.5q-195 -241 -277 -412.5t-82 -253.5zM3359 3461q133 -1 133 -59q0 -28 -31 -58.5t-41 -87.5q-10 -36 -36 -36q-15 0 -30.5 8t-57 26t-130.5 18q-190 0 -334 -92
t-310.5 -261.5t-304.5 -368.5q-637 -913 -922.5 -1468t-372.5 -792.5t-87 -337.5q0 -212 163 -213q138 0 264 87t272.5 257t329.5 547q10 20 33 15t-3 -41q-456 -911 -914 -911q-130 0 -196.5 74.5t-66.5 194.5t48.5 261t150.5 345q-292 -356 -442 -477.5t-233 -121.5
t-108 38.5t-25 92.5q0 122 97 274q189 307 422 501.5t576 256.5q246 430 471.5 773t491.5 670q220 276 437.5 486.5t448.5 317.5q174 82 307 82z" />
    <glyph glyph-name="e" unicode="e" horiz-adv-x="1049" 
d="M630 655q148 0 261 105.5t113 248.5q0 67 -67 66q-134 0 -243.5 -171.5t-140.5 -237.5q22 -11 77 -11zM1034 1126q128 0 128 -92q0 -61 -38.5 -133t-167 -179.5t-424.5 -107.5q-26 -46 -56.5 -145.5t-30.5 -202.5q0 -210 190 -210q212 0 461 179t409 390q10 10 23 4.5
t13 -20.5q-206 -256 -495 -450.5t-565 -194.5q-241 0 -240 215q0 143 74 309.5t192 307.5t258.5 235.5t268.5 94.5z" />
    <glyph glyph-name="f" unicode="f" horiz-adv-x="1111" 
d="M-2801 -3103q-456 0 -553 430q0 41 10.5 36t20.5 -31q5 -36 41 -94.5t152 -153.5t370 -95q542 12 1226.5 472.5t1283 1483.5t821.5 1438.5t345 625.5q-220 -15 -348 -30.5t-204.5 -49t-120 -97.5t-100.5 -177l-15 5q72 169 143.5 253.5t132.5 105.5q109 26 223.5 33.5
t191.5 12.5t133 5q521 958 988 1659q306 466 642 775.5t613 309.5q102 0 179 -46t77 -107q0 -20 -23 -178t-23 -222q-10 -10 -23 -10t-23 10q15 62 15 134q0 102 -85 158.5t-215 56.5t-245 -36t-308 -183.5t-447 -579.5q-77 -133 -189.5 -343t-288.5 -537.5t-444 -860.5
l270 2q270 3 437 3q26 -15 15 -51h-26l-722 -10q-326 -633 -697 -1243t-736 -1087q-733 -940 -1356 -1363.5t-1138 -423.5z" />
    <glyph glyph-name="g" unicode="g" horiz-adv-x="1228" 
d="M1119 1070h-39q-169 0 -245 -66q-224 -189 -330 -409.5t-134 -325.5t-28 -156t30.5 -51.5t123 87t295.5 340t365 576.5q-15 5 -38 5zM-2022 -2698q-804 0 -804 768q0 148 36 240q5 20 20 20.5t15 -25.5q-30 -108 -30 -189q0 -345 282.5 -520.5t740.5 -175.5
q980 0 1716 1397q133 246 342.5 636.5t635.5 1166.5q-228 -308 -396 -492t-280 -184q-113 0 -113 128q0 77 102.5 302t363 495.5t523.5 272.5q36 0 56 -5q41 72 84.5 143.5t84.5 145.5t71 74q20 0 38.5 -46t18.5 -90t-26 -89q-506 -941 -770 -1384.5t-443 -733t-379 -616.5
q-164 -261 -356 -489t-557 -489t-976 -261z" />
    <glyph glyph-name="h" unicode="h" horiz-adv-x="1361" 
d="M3589 3392q0 -100 -7.5 -141t-15.5 -56t-15.5 -7.5t-7.5 30.5t-18 84.5t-71.5 120.5t-151 102.5t-240.5 43.5t-284 -38.5t-398.5 -211t-688.5 -780t-1020 -1766.5q241 208 394 288.5t207 80.5t54 -34t-46 -94q-235 -349 -314.5 -553.5t-79.5 -281.5t41 -118t112 -41
q118 0 333 154t492 522q10 10 20 10.5t10 -20.5q-199 -283 -497 -530.5t-516 -247.5q-87 0 -138.5 49t-51.5 133t56.5 212t125.5 258.5t125.5 240.5t56.5 146t-16 36q-46 0 -166 -87t-300 -328q-198 -353 -281 -512q-41 -82 -77 -82q-26 0 -66.5 13t-40.5 44t15 61
q390 705 834 1413q246 384 510 783.5t540.5 727t560.5 535t571 207.5q164 0 263.5 -59t143 -133t43.5 -174z" />
    <glyph glyph-name="i" unicode="i" horiz-adv-x="926" 
d="M568 72q177 0 383 166t308.5 274t158.5 184q26 26 28.5 13.5t-7.5 -38.5q-123 -159 -282 -302.5t-277 -220.5q-226 -148 -419 -148q-97 0 -138 25.5t-64 59t-23 95.5q0 110 164 401.5t255 416.5q26 41 90 69.5t87 28.5t23 -16q0 -10 -7.5 -30.5t-18.5 -30.5
q-132 -201 -258 -458.5t-126 -372.5q0 -116 123 -116zM1208 1812q0 -61 -53.5 -122.5t-117.5 -61.5t-64 64t48.5 125.5t117.5 61.5t69 -67z" />
    <glyph glyph-name="j" unicode="j" horiz-adv-x="998" 
d="M1382 850q67 -48 67 -199t-90 -295t-212 -254q-189 -179 -368.5 -330t-356 -297t-485.5 -402t-394.5 -361t-192.5 -250.5t-328 -350.5q-10 -10 -31 -11q-26 0 -38.5 49t-12.5 87t21 64q87 123 174 197.5t171.5 146t169 161t171.5 238.5q424 759 921 1843q20 51 21 71
q0 46 -41 47q-10 0 -66.5 -15.5t-112.5 -20.5q-20 0 -21 15q0 20 26 31q241 43 327.5 83t112.5 40q51 0 51 -57q0 -31 -20 -71q-98 -180 -274 -533t-307 -578t-287 -476t-325 -523q148 128 363 294.5t610 495.5t640 695q123 178 123 333q0 77 -31 112q-15 31 -5 31t30 -10z
M1137 1792q0 -61 -53.5 -122.5t-117.5 -61.5t-64 64t48 125.5t118 61.5t69 -67z" />
    <glyph glyph-name="k" unicode="k" horiz-adv-x="1536" 
d="M1644 1372q30 0 56 -66q0 -30 -56 -48q-119 -37 -322.5 -188.5t-307.5 -245.5q9 -123 55 -306.5t109 -307.5q50 -108 186 -108q64 0 159 61.5t237.5 201t297.5 367.5q15 26 33 10.5t3 -30.5q-276 -365 -440 -500t-236 -176q-209 -104 -316 -38.5t-156.5 269.5t-90.5 419
q-164 -159 -327.5 -328t-276.5 -368q-9 -26 -43 -26t-54.5 43.5t-20.5 66.5v22q0 22 5 32q51 72 107.5 177t212 383.5t338.5 570.5q558 894 976 1368q454 509 808 588q51 10 99.5 20.5t92.5 10.5q94 0 187 -52t93 -142q0 -56 -28.5 -112.5t-33.5 -105.5t-23 -51.5t-18 23.5
l10 56q0 119 -101.5 177.5t-220.5 58.5q-118 0 -294.5 -62t-373.5 -264q-337 -347 -725 -975q-251 -416 -422.5 -717.5t-291.5 -511.5t-108 -210t72 59q59 59 151 141t200 179q-5 20 -5 64t64 82.5t100 48.5q10 0 10 -18t5 -28q26 20 118 99.5t199.5 164t197 153.5t110.5 69
z" />
    <glyph glyph-name="l" unicode="l" horiz-adv-x="1039" 
d="M2447 3205q0 82 -66 82q-56 0 -120.5 -64t-133.5 -151t-176 -225q-201 -275 -472 -708.5t-491 -786.5q307 174 576 422t463.5 509.5t307 507t112.5 414.5zM2586 3430q92 0 92 -105q0 -59 -56.5 -197t-231.5 -440.5t-565 -718.5t-878 -684q-46 -82 -128 -220t-220 -406
t-138 -436q0 -167 148 -167q228 0 483.5 208t469.5 463q36 36 41 18t-16 -38q-385 -473 -658.5 -600t-416.5 -127t-202 64t-59 156t79.5 263.5t187 361t215 358.5t176.5 287t163.5 279t187 314.5t177 294.5t163.5 261t171.5 238t235.5 235q195 164 358.5 251t220.5 87z" />
    <glyph glyph-name="m" unicode="m" horiz-adv-x="1802" 
d="M1152 0q0 72 59 200t130.5 266t130.5 263.5t59 166.5t-26 41q-185 -100 -361 -296t-212 -247t-72 -122.5t-69 -138t-66.5 -113t-59 -46.5t-46 26t-20.5 46q-1 54 69 150t123.5 198.5t92 189.5t59 148.5t20.5 71.5q0 41 -21 41q-59 0 -260 -214t-296 -354
q-94 -139 -145.5 -221t-76.5 -82q-41 0 -48.5 36t-7.5 74t20 64q138 220 271 450.5t267 456.5q26 46 54 46t48 -28.5t20 -53.5q-36 -102 -122.5 -250.5t-153.5 -271.5q205 236 343 356t225 120q56 0 56 -80t-127 -325q-10 -20 -2.5 -17.5t17.5 12.5q204 241 391.5 369
t263.5 164q77 0 77 -72q0 -25 -23 -74t-217.5 -410t-194.5 -530q1 -102 95 -102t196.5 61.5t226 166t317.5 330.5q20 31 40.5 25.5t-10.5 -51.5q-522 -594 -844 -594q-108 0 -149 41t-41 113z" />
    <glyph glyph-name="n" unicode="n" horiz-adv-x="1336" 
d="M840 -67q-61 0 -112.5 18t-51.5 90t51 182t120 233t143.5 251t120.5 235q10 26 2.5 44t-33.5 2q-177 -114 -347 -277t-216 -219q-82 -128 -141 -236t-146 -241q-20 -31 -30 -30q-26 0 -44 56t-18 72q0 46 64 125t141 177q212 425 317 670q15 26 46 26t56.5 -25.5
t25.5 -51.5t-74 -146t-146 -279q375 336 536 444.5t186 108.5t43.5 -23t18.5 -43t-41 -82q-456 -684 -456 -906q0 -61 25.5 -84.5t97.5 -23.5t189.5 66.5t243 166.5t238 223t184.5 235q10 15 31 7.5t-5 -38.5q-333 -463 -609.5 -595t-409.5 -132z" />
    <glyph glyph-name="o" unicode="o" horiz-adv-x="1280" 
d="M1085 1060q0 26 -20 25q-149 0 -326.5 -237t-250.5 -414.5t-68 -295.5q0 -36 12.5 -66.5t59.5 -30.5q87 0 189 97.5t194.5 228t156.5 263.5t74 205q-21 97 -21 225zM1454 563q-87 0 -171.5 43.5t-135.5 130.5q-164 -374 -328 -525t-271 -207q-92 -41 -154 -41
q-184 0 -184 164q0 236 190.5 500.5t361 366t329.5 116.5q10 41 30.5 95t71.5 64q76 15 94 25t33.5 2.5t5.5 -27.5q-72 -112 -72 -333q0 -143 54 -235.5t187 -92.5t240.5 87t179.5 190q10 26 33 15t3 -31q-87 -118 -212.5 -212.5t-284.5 -94.5z" />
    <glyph glyph-name="p" unicode="p" horiz-adv-x="1126" 
d="M1024 937q0 20 -7.5 51t-43.5 31q-63 0 -195.5 -105.5t-237.5 -253.5t-187 -289t-164 -289q169 46 320 153.5t266.5 235.5t182 256t66.5 210zM1064.5 1172q102.5 0 136 -30t33.5 -92t-43.5 -169.5t-148.5 -240.5t-279 -276.5t-435 -266.5q138 15 309.5 48.5t476 165
t596.5 513.5q5 10 18 8t13 -28q-271 -343 -614.5 -527.5t-625 -233t-368.5 -63.5q-148 -251 -281.5 -499.5t-297.5 -553.5t-322.5 -627t-342.5 -640q-36 -61 -97.5 -94.5t-143.5 -59t-189.5 -51t-235.5 -71.5q-31 -15 -36 7.5t26 33.5q133 51 225.5 99.5t166.5 115
t140.5 159.5t153.5 233t212.5 352.5t279 468.5t322.5 545.5t343 581.5q-30 10 -30 48t33 43.5t54 10.5l235 384q164 266 328 553t338 512q30 30 79 38t95 15.5t66 7.5q21 0 21 -10q0 -15 -21 -36q-156 -140 -317 -330.5t-292 -391.5q317 348 419.5 348z" />
    <glyph glyph-name="q" unicode="q" 
d="M317 110q0 -54 36 -54q46 0 128 56.5t174 163.5q208 251 533 768q-118 0 -210 -38t-205 -163.5t-215 -269t-171.5 -276.5t-69.5 -187zM-824 -2632q-108 0 -108 126t133 345q342 587 637 1056.5t477 756.5t376 594q-72 -87 -182 -174t-227 -87q-128 0 -128 138
q0 102 124 327t376.5 417.5t375 205t178.5 12.5q108 179 182 305t144.5 236t115.5 110t45 -46q0 -5 -68 -133t-306 -482q138 -15 189 -107q15 -31 0 -44t-46 28q-60 68 -174 82q-419 -594 -812 -1233t-545.5 -914t-380.5 -704.5t-228 -583.5q0 -77 56 -77q90 0 256 189
q323 364 622.5 789t501.5 714t448.5 646t660.5 908q26 26 36 8t-5 -44q-154 -200 -282 -381.5t-251 -353t-243 -348t-251 -363.5t-269 -386.5t-369.5 -524.5t-505.5 -638q-164 -184 -312.5 -276.5t-240.5 -92.5z" />
    <glyph glyph-name="r" unicode="r" horiz-adv-x="998" 
d="M1075 963q-62 0 -143.5 -46.5t-143.5 -102.5q-97 -82 -171 -179t-140.5 -202t-128 -215t-133.5 -223q-5 -15 -23 -15t-51 30.5t-33 53.5t58 125t143 248.5t159.5 274.5t130.5 222.5t77 140.5q26 46 36 46t51 -25.5t41 -61.5t-41 -105t-62 -105t-33 -56t-2 -20t43 33
q107 107 281.5 221t284.5 114q46 0 79.5 -23t33.5 -49q-31 -36 -64.5 -87t-41.5 -71t-22 -21q-5 0 -15.5 15.5t-28.5 33.5t-48.5 33.5t-92.5 15.5z" />
    <glyph glyph-name="s" unicode="s" horiz-adv-x="916" 
d="M189.5 66.5q71.5 -66.5 184.5 -66.5t174 36t97 87t36 128t-25.5 133t-56.5 104t-61.5 100t-30.5 113.5t43.5 133t156 171.5t256.5 100q82 0 81 -51q-32 -55 -56 -118q-15 -26 -25 -5q-31 66 -115 66t-156 -41t-72 -122q0 -41 25 -82t69 -105t79.5 -125.5t35.5 -128.5
q0 -228 -145.5 -316t-232.5 -106t-139 -18q-312 0 -343 210q81 47 108 82q10 0 15 -21q26 -92 97.5 -158.5z" />
    <glyph glyph-name="t" unicode="t" horiz-adv-x="1013" 
d="M374 963q-26 0 -26 20q20 36 67 72l261 5q46 77 102.5 171.5t112.5 189.5t115 184.5t105 166.5q162 75 333 133q10 0 15 -13t-15 -23q-41 -10 -92.5 -38.5t-76.5 -69.5q-195 -271 -440 -701h634q15 -10 15.5 -20.5t-9.5 -15.5q-210 0 -681 -31q-143 -256 -220 -435
t-77 -312q0 -184 169 -185q148 0 409 159q15 15 30.5 -2.5t-9.5 -28.5q-174 -113 -322.5 -164t-302.5 -51q-82 0 -143.5 49t-61.5 166q0 200 364 794q-244 -20 -256 -20z" />
    <glyph glyph-name="u" unicode="u" 
d="M870 -154q-102 0 -150.5 46.5t-48.5 148.5t56 230q-31 -36 -125 -156t-269 -120q-56 0 -92 33.5t-36 89.5q0 102 88 292t347 640q26 51 46 51q36 0 74.5 -43.5t38 -59.5t-56.5 -100q-135 -201 -254 -438.5t-119 -318.5q-1 -80 53 -80t143.5 79.5t212.5 269.5
q46 82 95 171.5t95 171.5t87 151t61 105q26 36 41 35q20 0 46 -43.5t26 -94.5t-21 -87q-61 -92 -130 -181.5t-128 -187t-100 -205t-41 -227.5t107 -120q143 0 396 210t475 532q31 10 31 -26q-206 -291 -392.5 -455t-320 -238.5t-235.5 -74.5z" />
    <glyph glyph-name="v" unicode="v" horiz-adv-x="1105" 
d="M1316 1024q-9 -170 -232.5 -422t-495 -442.5t-378.5 -190.5l-82 82q0 20 20 16q118 10 195 89.5t118 314.5q10 56 20.5 125.5t26 170t40.5 149.5q20 61 12.5 74.5t-48.5 13.5l-148 -26q-46 20 5 36q102 15 240.5 35.5t219.5 46.5q15 -10 6 -21q-20 -15 -46.5 -35.5
t-46.5 -66.5t-38 -128t-33.5 -159t-28 -141t-22.5 -89q-31 -87 -103 -169t-143 -139q-20 -36 5 -20q317 109 538 347t250 559q15 200 -61 261q-10 5 -5 10.5t36 0.5q92 -10 143 -87t36 -195z" />
    <glyph glyph-name="w" unicode="w" horiz-adv-x="1930" 
d="M1331 922q0 10 -7.5 40.5t-35.5 30.5t-74.5 -41t-131 -183t-130.5 -441q205 164 292 325t87 269zM1853 886q0 -262 -129 -547.5t-280 -415.5q-87 -77 -171.5 -118t-210.5 -41t-202.5 82t-76.5 215q0 56 11 108q-97 -56 -215 -112.5t-231 -56.5q-61 0 -99.5 39t-38.5 123
q0 151 153.5 399t281.5 412q45 60 92 77q141 34 174 41q20 0 21 -16q0 -10 -28 -20.5t-75 -56.5q-133 -142 -240.5 -352.5t-143 -318t-35.5 -153.5t21 -71.5t51 -25.5t109.5 25.5t212.5 112.5q46 200 143 392t225 345q26 31 87.5 87.5t143.5 56.5q41 0 48.5 -29t7.5 -49
t-18 -91.5t-116 -246.5t-373 -398q0 -271 92.5 -335.5t174.5 -64.5q123 0 215 84.5t151 212.5t89.5 281.5t30.5 284.5t-13 207.5t-95 86.5q-20 20 6 31q31 0 76 23t61 23t26.5 -12.5t76.5 -38.5t235 -26t323 23t215 44q20 5 28 -10.5t-28 -25.5q-190 -57 -427.5 -82
l-294.5 -31q-41 -8 -41 -71z" />
    <glyph glyph-name="x" unicode="x" horiz-adv-x="1280" 
d="M666 1014q-61 0 -159 -36q-14 7 0 36q41 15 97 35.5t158 48.5t129 28q56 0 56 -46q0 -21 -26 -90.5t-127 -375.5q225 133 378.5 243.5t153.5 227.5q0 20 -5 31l10 10q26 -5 72 -27.5t46 -66.5t-64 -100t-164 -117.5t-215 -123t-223 -123.5q-46 -180 -46 -358
q0 -102 41 -148.5t143 -46.5t245 87.5t355 307.5q10 10 25 7t10 -18q-261 -276 -460.5 -378.5t-347.5 -102.5q-102 0 -146 54t-44 147t67 373q-615 -366 -694 -626t-79 -409q0 -282 179 -473.5t496 -191.5q169 0 335.5 76.5t294.5 209.5q15 20 35.5 7.5t-4.5 -37.5
q-189 -164 -384 -248.5t-430 -84.5q-448 0 -552 256t-104 440q0 307 233 586t684 541q56 189 71.5 286.5t15.5 117.5q0 72 -56 72z" />
    <glyph glyph-name="y" unicode="y" horiz-adv-x="1162" 
d="M343 56q-169 0 -169 123q0 102 125.5 304.5t304.5 479.5q33 43 62 61q104 20 123 20t20 -15q-184 -323 -309.5 -525t-125.5 -315q0 -61 56 -61q80 0 181 69t121 95q46 46 136 217t184 343t148 249t90 77q20 -10 38.5 -52t18.5 -72q0 -48 -157.5 -268t-324.5 -433
q-184 -282 -371 -581t-376.5 -578t-623.5 -819.5t-1097 -540.5q-148 0 -266 72t-118 251q0 88 26 153q5 15 15.5 20.5t10.5 -14.5q0 -138 102 -251t364 -113q386 0 885.5 441t1279.5 1812q10 20 0 15.5t-40 -30.5t-128 -80t-185 -54z" />
    <glyph glyph-name="z" unicode="z" horiz-adv-x="1141" 
d="M1996 -748q-194 0 -414 61.5t-443 172t-453 261.5t-481 325q-20 10 -30.5 12.5t-72.5 -35.5t-110 -69q-48 -32 -63.5 -1t25.5 52q426 204 697 404t363 279.5t92 89.5q0 20 -21 20q-20 -5 -61 -17.5t-115.5 -30.5t-133.5 -18t-133 48.5t-74 171.5q10 41 66.5 97.5
t138.5 107.5q20 0 21 -21q-46 -46 -46 -138t58.5 -140.5t163.5 -48.5q191 0 469 266q26 26 51.5 2.5t-0.5 -53.5q-206 -144 -338 -267q-265 -233 -768 -568q-49 -24 0 -56q923 -609 1263 -729.5t478 -120.5q230 0 414.5 125.5t312.5 360.5q21 16 31 -10q-20 -102 -94.5 -197
t-187.5 -169t-262 -120.5t-343 -46.5z" />
    <glyph glyph-name="braceleft" unicode="{" horiz-adv-x="1356" 
d="M522 1157q-56 0 -56 33.5t28 51.5t59 18t61.5 -10.5t71.5 -10.5q123 1 238 85t199.5 202t161.5 251t159 276t210 292q87 102 223 156t396 54q36 0 36 -25.5t-31 -25.5q-15 0 -30.5 7.5t-51.5 7.5q-92 0 -168 -48.5t-210 -199.5t-249 -317.5t-220 -307.5t-220 -248.5
t-274 -163.5q-20 -5 -20 -21q0 -5 10 -15q118 -60 118 -194q0 -102 -79.5 -263.5t-174.5 -341t-174 -353.5t-79 -284t41 -174t143 -64q31 0 33.5 -20.5t-38.5 -20.5q-143 0 -256 89.5t-113 225.5t100 307t217.5 348t217.5 336t100 243t-64 120t-115 36t-97.5 -15.5
t-102.5 -15.5z" />
    <glyph glyph-name="bar" unicode="|" horiz-adv-x="1136" 
d="M758 -1280v5120h153v-5120h-153z" />
    <glyph glyph-name="braceright" unicode="}" horiz-adv-x="1356" 
d="M1613 1229q1 -51 49 -51t107 17.5t115 17.5q36 0 36 -36t-18 -58.5t-49 -22.5q-72 0 -115 -8t-100 -44q-113 -72 -197 -202t-163.5 -289t-194 -381.5t-393 -458t-536.5 -235.5q-26 0 -26 15t31 21q154 26 276.5 118t248.5 248t212.5 317t181 317.5t220 302.5t330.5 274
q20 15 20.5 25t-66 44t-66.5 164q0 105 71.5 238t161 268.5t161 268.5t71.5 246q0 133 -133 154q-41 10 -35.5 30.5t30.5 20.5q105 0 178 -118.5t73 -233.5t-74 -255.5t-166.5 -276t-166.5 -251t-74 -186.5z" />
    <glyph glyph-name="asciitilde" unicode="~" horiz-adv-x="2048" 
d="M1618 548q-87 0 -158.5 30.5t-141 66.5t-143.5 66.5t-166.5 30.5t-148.5 -66.5t-87 -143.5l-102 103q46 87 128 164t225 77q82 0 164 -31t161 -64t151 -64t123 -31q87 0 141 64t105 141l102 -103q-67 -87 -143.5 -163.5t-209.5 -76.5z" />
    <glyph glyph-name="exclamdown" unicode="&#xa1;" horiz-adv-x="1126" 
d="M1144 937q-126 -1 -125 133q0 62 51 115.5t118 53.5q97 0 97 -97q0 -72 -36.5 -138.5t-104.5 -66.5zM61 -804q67 0 118 41q118 92 228 251t242 401.5t385 817.5q10 20 25.5 15t15.5 -26q-311 -889 -583 -1413q-77 -159 -246 -159q-94 0 -190 31q-20 10 -15 25.5t20 15.5z
" />
    <glyph glyph-name="cent" unicode="&#xa2;" horiz-adv-x="1879" 
d="M1613 1843q-169 0 -317.5 -140.5t-261 -332.5t-179.5 -394.5t-67 -317.5t38.5 -166.5t141.5 -61.5q418 781 798 1398q-67 15 -153 15zM522 -773q0 -38 16 -67q0 -10 -10.5 -15t-25.5 15t-38.5 66.5t-23.5 82.5t107.5 274t368.5 734q-14 -5 -32 -5h-34q-130 0 -190.5 33.5
t-88.5 82t-28 125.5q0 184 115 427.5t299.5 463.5t420 371t481.5 151q62 102 199.5 309.5t178.5 248.5q36 21 36 -25q-20 -82 -97 -185q-67 -82 -128 -169t-133 -184q72 -20 143.5 -71.5t81.5 -143.5q0 -36 -20 -41q-56 -23 -108 -108q-16 -20 -28 -20q-12 1 -15 57t-49 112
t-97 66q-464 -735 -809 -1387q294 0 546 205t437 409q15 15 28 13t3 -28q-92 -138 -233 -261t-289.5 -215t-292 -148.5t-245.5 -71.5q-446 -875 -446 -1101z" />
    <glyph glyph-name="sterling" unicode="&#xa3;" horiz-adv-x="2457" 
d="M553 1229q1 15 49 15h151q108 0 225 5q197 337 266 435q195 276 415 438t517 162q67 0 138.5 -18.5t71.5 -79.5q0 -36 -12 -56t-23 -58.5t-19 -69.5t-18 -33.5t-20 33.5t-94.5 97.5t-238.5 61.5q-205 0 -351 -125.5t-289 -371.5q-56 -92 -115 -197t-126 -218q163 0 312 8
t244 13t151 10q10 0 38 -18t28 -43q0 -15 -64 -15t-235.5 4.5t-493.5 4.5q-214 -345 -528 -640q-5 -5 -5 -15q0 -5 16 -5q122 20 210 20q195 0 363.5 -74.5t322.5 -194.5t258.5 -163.5t204.5 -43.5t228 82t210 231q0 10 18 15t18 -26q-15 -41 -79.5 -120t-151.5 -156
t-189 -136t-174 -59t-120.5 8t-136.5 51.5t-306 232.5q-51 41 -199 176.5t-400 135.5q-204 0 -376 -230q-100 -133 -156.5 -202t-87.5 -69q-51 0 -51 66q0 46 31 77q87 87 197 166.5t202 151.5t212 174.5t366 541.5q-255 -9 -343 -30q-20 0 -40.5 23t-20.5 28z" />
    <glyph glyph-name="currency" unicode="&#xa4;" horiz-adv-x="1991" 
d="M2227 1193q0 287 -199.5 497t-483.5 210t-484 -210t-200 -497t200 -497t484 -210t483.5 210t199.5 497zM707 1193q0 297 184 522l-184 190l128 128l184 -190q231 189 525 189t524 -189l185 190l128 -128l-185 -190q184 -215 184.5 -522t-184.5 -522l185 -190l-128 -128
l-185 190q-230 -189 -524 -189t-525 189l-184 -190l-128 128l184 190q-184 225 -184 522z" />
    <glyph glyph-name="yen" unicode="&#xa5;" horiz-adv-x="2247" 
d="M1234 1091q0 15 -41 15t-115 -5t-141 -7.5t-115 -8t-74 -5.5t-26 10.5t33 33.5t59 23h166q167 0 249 10q41 5 66 56q41 82 67 197.5t26 210.5q0 241 -107 393t-365 152q-133 0 -294 -72t-294 -256q-36 -36 -36 21q181 257 418 341t422 84q225 0 340 -148.5t115 -363.5
q0 -118 -43.5 -284.5t-109.5 -315.5q435 369 824 691.5t788 614.5q30 20 48 20t54.5 -33t36.5 -51t-41 -38q-389 -230 -778.5 -519.5t-824.5 -648.5q-67 -41 29.5 -41t218.5 10.5t187 10.5q31 0 31 -21q-5 -10 -23 -25.5t-44 -15.5q-260 0 -476 -10q-41 0 -61 -38t-40.5 -82
t-38.5 -82t7 -38q128 0 246 10t215 10q26 0 26 -26q0 -36 -41 -35h-226q-102 0 -230 -11q-41 0 -69 -48t-69 -125.5t-87 -162t-87 -163.5t-72 -136q-26 -27 -26 -67t26 -53t97 -13l195 11q36 0 36 -36q0 -31 -36 -31q-93 15 -123 15h-236q-271 0 -547 -15q-41 0 -41 41
q0 31 56 31q230 0 266 10t61.5 38t101.5 130t293 503q15 31 12.5 43.5t-43.5 12.5q-196 0 -502 -46q-31 0 -30 15q15 20 51 38.5t72 23.5l253 10q253 10 269 46q26 41 59 107.5t33 87.5z" />
    <glyph glyph-name="brokenbar" unicode="&#xa6;" horiz-adv-x="1136" 
d="M1065 896h154v-1787h-154v1787zM1065 3456h154v-1792h-154v1792z" />
    <glyph glyph-name="section" unicode="&#xa7;" horiz-adv-x="1541" 
d="M799 1337q0 -97 28 -161t146 -229q77 -87 166.5 -212.5t114.5 -278.5q138 123 139 297q0 115 -26 170t-61.5 106t-97.5 135q-127 174 -160.5 245t-49.5 178q-46 -20 -122.5 -86.5t-76.5 -163.5zM-26 256q0 -215 166.5 -335.5t416.5 -120.5t417.5 124t167.5 332
q0 143 -74.5 245.5t-141 179.5t-171.5 201.5t-105 274.5q0 189 120.5 309.5t227.5 171.5q0 82 46.5 187t128 197.5t199.5 153.5t261 61q77 0 154 -30.5t77 -102.5q0 -31 -15.5 -69t-66.5 -120q-10 -20 -25.5 -20.5t-15.5 15.5q5 16 5 28v23q0 56 -74.5 107.5t-179.5 51.5
t-179 -41t-143 -126t-69 -232q0 -148 174 -400q51 -72 125.5 -194.5t74.5 -276.5q0 -61 -31 -176.5t-184 -269.5q0 -123 -59 -250.5t-172 -230t-279 -169t-363 -66.5t-335.5 106t-138.5 319q0 87 18.5 184t30.5 123q38 79 38 5q-26 -107 -26 -169z" />
    <glyph glyph-name="dieresis" unicode="&#xa8;" horiz-adv-x="1177" 
d="M532 1812q0 -61 -53.5 -122.5t-117.5 -61.5t-64 64t48.5 125.5t117.5 61.5t69 -67zM901 1782q0 -61 -53.5 -123t-117.5 -62q-64 1 -64 65t48.5 125t117.5 61t69 -66z" />
    <glyph glyph-name="copyright" unicode="&#xa9;" horiz-adv-x="3281" 
d="M2186 1869q-184 0 -325 -87t-235.5 -230.5t-143 -320t-48.5 -314.5t20.5 -235.5t103.5 -223t326 -125.5q179 0 312.5 59t250.5 181l21 -97q-118 -133 -307.5 -199.5t-373.5 -66.5q-323 0 -451 174t-128 445q0 210 66.5 412.5t192 363.5t305 258.5t422.5 97.5t363.5 -82
t145.5 -282q-26 -41 -94.5 -63.5t-104.5 -17.5q0 230 -113 291.5t-205 61.5zM3118 1306q0 236 -94 591.5t-807 355.5q-358 0 -624.5 -118t-440.5 -315t-261 -455.5t-87 -520.5t71.5 -430t264 -334.5t637.5 -166.5q343 0 596.5 128t417 330t245.5 450.5t82 484.5zM3256 1352
q0 -266 -99.5 -535t-299.5 -479t-494.5 -343t-678.5 -133q-470 0 -757 244t-287 698q0 230 89.5 494t279 486.5t486.5 368.5t712 146q538 0 793.5 -240.5t255.5 -706.5z" />
    <glyph glyph-name="ordfeminine" unicode="&#xaa;" horiz-adv-x="1377" 
d="M635 1152q0 -61 41 -61q20 0 92 61t235.5 247t312.5 475q-123 0 -243.5 -89.5t-217.5 -207.5t-158.5 -241t-61.5 -184zM1126 753q-138 0 -138 169q0 246 205 655q-161 -236 -367 -435.5t-340 -199.5q-87 0 -87 94t100 246t246 295t310 245.5t286 102.5q82 174 159 271
q15 26 38.5 23.5t23.5 -43.5t17.5 -59t17.5 -28t-10 -31q-165 -239 -284.5 -544t-119.5 -470q0 -164 123 -163q87 0 219.5 80t199.5 160q10 15 33.5 5t-22.5 -51q-116 -103 -290 -212.5t-320 -109.5z" />
    <glyph glyph-name="guillemotleft" unicode="&#xab;" horiz-adv-x="1715" 
d="M1531 1170q0 -18 -31 -38q-19 -6 -204 -151.5t-297.5 -233t-189.5 -148.5q-26 -21 -26 -49t46.5 -176.5t153.5 -424.5q10 -31 10 -38.5t-61 -14.5t-103 -24q-15 0 -23 36t-28 107.5t-45.5 158.5t-51.5 176.5t-46 156.5q0 20 41 51q244 178 804 635q14 15 22 15t18.5 -10
t10.5 -28zM1838 1121q0 -20 -15 -30q-159 -123 -284.5 -228t-273.5 -223q-31 -20 -31 -43q0 -50 71.5 -236.5t112.5 -280.5q41 -95 41 -106q0 -20 -25 -25q-86 -28 -123 -51q-15 0 -21 25q-61 181 -138 375t-77 222t31 48q249 197 362.5 296t195.5 170.5t110 94.5t38 23
q26 0 26 -31z" />
    <glyph glyph-name="logicalnot" unicode="&#xac;" horiz-adv-x="2048" 
d="M1664 788q-98 -170 -184 -414l-123 5q29 68 159 328q-123 15 -415 15t-364 -5l41 102q51 0 171.5 -5t259 -7.5t261 -5t174.5 2.5z" />
    <glyph glyph-name="softhyphen" unicode="&#xad;" horiz-adv-x="1617" 
d="M1618 696q0 -41 -64 -41h-156l-420 -5h-210q-51 0 -51 31q0 15 15 31t46 15l307 -5l477 10q56 0 56 -36z" />
    <glyph glyph-name="registered" unicode="&#xae;" horiz-adv-x="2048" 
d="M1705 2176q189 0 263.5 -34t74.5 -146t-94 -219.5t-367 -107.5q258 -371 364 -491h-174q-170 278 -349 501q-143 -284 -225 -501h-143q72 133 143.5 284t172.5 361t155 353h179zM1910 1987q0 77 -43.5 112.5t-156.5 35.5h-51q-135 -251 -220 -430q215 0 343 64t128 218z
M2335 1777q0 287 -125.5 440.5t-448.5 153.5q-230 0 -399 -74.5t-279 -200t-166.5 -292t-56.5 -345.5q0 -302 174 -440t446 -138q220 0 381 81.5t266 209.5t156.5 289.5t51.5 315.5zM2422 1797q0 -169 -64 -340.5t-189.5 -304.5t-312.5 -217.5t-433 -84.5
q-292 0 -473.5 148.5t-181.5 450.5q0 138 56.5 304.5t174 310t304.5 240.5t453 97q666 0 666 -604z" />
    <glyph glyph-name="macron" unicode="&#xaf;" horiz-adv-x="1177" 
d="M850 1638l-451 -10l26 77l440 10z" />
    <glyph glyph-name="degree" unicode="&#xb0;" horiz-adv-x="1167" 
d="M1490 2176q0 82 -33.5 125.5t-120.5 43.5q-128 0 -184 -76.5t-56 -166.5t46 -131t118 -41q118 0 174 82t56 164zM1551 2191q0 -108 -79 -199.5t-233 -91.5q-87 0 -146 46t-59 143t84 192t223 95q210 -1 210 -185z" />
    <glyph glyph-name="plusminus" unicode="&#xb1;" horiz-adv-x="2048" 
d="M906 0q-332 0 -404 -5l61 102q51 -5 171.5 -7.5t264 -7.5t279.5 -5t212 5l-51 -97q-201 15 -533 15zM1594 579h-288q-165 -290 -185 -420l-97 71q10 36 71.5 143.5t117.5 210.5q-213 0 -384 15l47 97q138 -30 378 -30q142 258 190 322l128 -15q-90 -101 -225 -313
q309 0 399 16l-62 -92q-67 -5 -90 -5z" />
    <glyph glyph-name="twosuperior" unicode="&#xb2;" horiz-adv-x="1280" 
d="M1285 2166q-61 0 -120 -31t-85 -56q-10 -10 -30 2.5t18 38.5t138 71.5t190 45.5t166 -40.5t76 -138.5q0 -162 -263.5 -334.5t-360.5 -233.5q-20 -10 0 -21q174 -89 368.5 -131.5t240.5 -42.5q128 0 210 108q10 20 30.5 7.5t-4.5 -38.5q-113 -108 -236 -136t-203 -28
t-197 23t-353 121q-20 10 -33 10t-68 -29t-103 -79q-26 -10 -39 3t13 33q72 46 146 92t164 105t182 118t204.5 163.5t112.5 233.5q0 41 -33.5 102.5t-130.5 61.5z" />
    <glyph glyph-name="threesuperior" unicode="&#xb3;" horiz-adv-x="1280" 
d="M778 1337q0 77 21 107h15q0 -61 43.5 -122.5t227.5 -61.5q120 0 221.5 58t101.5 192q0 54 -64 145t-64 135t51 77t161 89t110 130t-40.5 102.5t-94.5 28.5t-130.5 -20.5t-153.5 -107.5q-15 5 -18 23t2 28q36 36 141 87t126 62q62 15 123 15t135 -28t74 -115
q0 -102 -143 -177q-72 -38 -128 -72t-56 -62t20.5 -59t46.5 -69t43.5 -76t17.5 -94.5t-54 -123t-138.5 -123t-194.5 -95t-217 -38.5q-56 0 -120.5 44t-64.5 121z" />
    <glyph glyph-name="acute" unicode="&#xb4;" horiz-adv-x="1177" 
d="M1009 2014q0 -12 -16 -27q-418 -322 -819 -589q-26 -15 -33.5 -7.5t2.5 17.5q568 463 799 645q20 10 28 10t23.5 -18.5t15.5 -30.5z" />
    <glyph glyph-name="mu" unicode="&#xb5;" horiz-adv-x="2048" 
d="M696 374q-578 -997 -578 -1372q0 -200 36 -262q10 -15 2 -22.5t-23 2.5q-46 72 -128 108q-5 15 -5 24v104q0 174 153.5 486t272 520t240.5 420t230 393.5t164 279.5q10 26 31 25q72 0 148 52q31 0 0 -47q-175 -232 -315.5 -498t-140.5 -408q0 -46 20.5 -76.5t87.5 -30.5
q135 0 362.5 276t451.5 712q5 26 46 26t133 46q10 0 18 -3t-2 -28q-134 -160 -308 -485.5t-174 -487.5q0 -72 70 -72t181 99.5t220 243.5q26 36 26 -20q-112 -158 -202 -235t-169.5 -120.5t-159.5 -43.5t-99.5 43.5t-19.5 116.5t71 213q10 20 0 23t-36 -23
q-51 -56 -109.5 -122.5t-173.5 -156t-239 -89.5q-87 0 -115 46.5t-28 94.5q0 110 61 248z" />
    <glyph glyph-name="paragraph" unicode="&#xb6;" horiz-adv-x="2560" 
d="M1200 -1198q28 0 28.5 -15.5t-20.5 -15.5l-66 -5q-36 0 -72 33.5t-41 94.5q-46 -41 -140.5 -79.5t-171.5 -38.5q-36 0 -31 31q77 0 148.5 28t199 151.5t430.5 634.5l246 410l-425 -31q-201 0 -354 114.5t-153 315.5q0 241 123 417.5t322.5 294.5t455.5 176.5t528 58.5
h292q146 266 163 379q56 26 113 103q15 -5 15 -33t23 -82t64 -157q15 -46 16 -87q0 -148 -374 -169l-1336 -2283q-51 -102 -51 -174q0 -26 20 -49t48 -23zM2770 1485q0 63 -77 199q-107 -230 -153 -307q230 0 230 108zM1623 164q0 -61 97 -103l753 1270q-143 -15 -297 -166
t-338 -494q-56 10 -97 66.5t-97 173.5q-59 -59 -129.5 -98.5t-132.5 -75.5q31 -36 67 -87t77 -158q67 46 148.5 97t148.5 56q-200 -308 -200 -481z" />
    <glyph glyph-name="periodcentered" unicode="&#xb7;" horiz-adv-x="1126" 
d="M932 1137q26 0 62 -18q36 -19 35 -57q0 -79 -74 -166q-78 -97 -156 -97q-36 0 -64 20t-28 62q0 102 69 179t156 77z" />
    <glyph glyph-name="cedilla" unicode="&#xb8;" horiz-adv-x="1177" 
d="M640 -198q0 -24 25.5 -38.5t82 -43t56.5 -84.5t-67 -107q-77 -67 -221.5 -166.5t-192.5 -99.5q-10 0 -25.5 10t-15.5 20.5t25 20.5q79 15 167.5 64t132 86.5t43.5 71.5t-25.5 54.5t-56 38.5t-56.5 38.5t-26 53.5q0 60 118 139t210 114q15 0 28 -5t-13 -20q-33 -8 -88 -40
t-78 -57.5t-23 -49.5z" />
    <glyph glyph-name="onesuperior" unicode="&#xb9;" horiz-adv-x="1280" 
d="M1183 2207q169 0 317.5 10t240.5 10q36 0 36 -31q0 -10 -16 -25q-277 -469 -366 -644t-89 -191q0 -26 51 -25l281 10q26 -10 21 -35.5t-72 -25.5l-327 5q-154 0 -256.5 -15.5t-189.5 -20.5q-41 10 -46 30.5t36 25.5q222 0 271 21.5t251 386.5t215 432q0 46 -46 46
l-287 -10q-26 0 -48.5 23t23.5 23z" />
    <glyph glyph-name="ordmasculine" unicode="&#xba;" horiz-adv-x="1213" 
d="M1260 1751q0 108 -47 108q-26 0 -105 -54t-166 -159t-156 -253.5t-69 -332.5q0 -128 77 -128q51 0 130.5 56t153.5 161t128 259t54 343zM1341 1971q103 -1 103 -149t-72 -317t-184.5 -312t-243 -235.5t-253.5 -92.5q-169 0 -169 179q0 138 100 299.5t235.5 300t274 233
t209.5 94.5z" />
    <glyph glyph-name="guillemotright" unicode="&#xbb;" horiz-adv-x="1848" 
d="M1316 574q0 -20 -21 -36q-174 -133 -376 -310t-356 -341q-41 -41 -82 -41q-10 0 -25.5 8t-15.5 20t31 39q344 263 650 548q41 31 41 56t-33 74t-92 136t-146 227t-87 158q0 19 25 30q26 5 64.5 15t58.5 10t41 -35q67 -118 146.5 -259t166.5 -259q10 -20 10 -40zM1756 597
q0 -23 -15 -34q-127 -92 -346.5 -270t-370.5 -329q-20 -20 -44 -20t-23 25q0 15 26 41q368 318 599 502q10 10 10 18t-12 33q-12 26 -151 265t-139 271q0 33 61.5 53t76.5 20q31 0 47 -40q87 -234 261 -482q20 -30 20 -53z" />
    <glyph glyph-name="onequarter" unicode="&#xbc;" horiz-adv-x="3072" 
d="M2345 -20q0 -41 15 -62q-20 -20 -41 -5q-15 36 -35.5 64t-35.5 51q-16 23 -16 53t133 242q-168 0 -363 -20.5t-256 -36.5q-15 0 -15 39t10 79q0 20 31 20q71 14 153 50q198 88 425 247q108 77 108 200q0 46 -21 77q0 26 54 54t100 33q30 0 30 -51t-38 -135.5t-177 -182.5
q-204 -131 -450 -271q-10 -10 -10 -21q0 -4 51 -2t83 2h326q31 46 67 100t88 126.5t95 115.5q42 42 139.5 98.5t153.5 82.5q41 0 10 -21q-144 -82 -230 -202q-52 -73 -184 -300q230 0 276 -15q31 -5 31 -41q0 -15 -18 -56t-54 -82q-15 0 -15 15q32 64 5 77q-133 26 -266 26
q-159 -263 -159 -348zM1183 2207q169 0 317.5 10t240.5 10q36 0 36 -31q0 -10 -16 -25q-277 -469 -366 -644t-89 -191q0 -26 51 -25l281 10q26 -10 21 -35.5t-72 -25.5l-327 5q-154 0 -256.5 -15.5t-189.5 -20.5q-41 10 -46 30.5t36 25.5q222 0 271 21.5t251 386.5t215 432
q0 46 -46 46l-287 -10q-26 0 -48.5 23t23.5 23zM553 -323q-41 0 -41 26q1211 1274 1727 1832.5t787 855.5q26 31 64 31q84 0 84 -26q-521 -512 -1195.5 -1229.5t-1292.5 -1432.5q-41 -41 -66.5 -49t-66.5 -8z" />
    <glyph glyph-name="onehalf" unicode="&#xbd;" horiz-adv-x="3072" 
d="M1183 2207q169 0 317.5 10t240.5 10q36 0 36 -31q0 -10 -16 -25q-277 -469 -366 -644t-89 -191q0 -26 51 -25l281 10q26 -10 21 -35.5t-72 -25.5l-327 5q-154 0 -256.5 -15.5t-189.5 -20.5q-41 10 -46 30.5t36 25.5q222 0 271 21.5t251 386.5t215 432q0 46 -46 46
l-287 -10q-26 0 -48.5 23t23.5 23zM2284 937q-61 0 -120.5 -30.5t-84.5 -56.5q-10 -10 -30.5 2.5t17.5 38.5t138 72t190 46t166.5 -41t76.5 -139q0 -164 -264 -335t-361 -233q-20 -10 0 -20q106 -54 313.5 -114t295.5 -60q128 0 210 107q10 20 31 7.5t-5 -38.5
q-113 -108 -235 -135.5t-202 -27.5t-198 23t-353 120q-19 10 -33 10t-66 -28t-106 -79q-26 -10 -38.5 2.5t12.5 32.5q72 46 146 92.5t164 104.5t182 117.5t204.5 164t112.5 233.5q0 41 -33 102.5t-130 61.5zM553 -323q-41 0 -41 26q1211 1274 1727 1832.5t787 855.5
q26 31 64 31q84 0 84 -26q-521 -512 -1195.5 -1229.5t-1292.5 -1432.5q-41 -41 -66.5 -49t-66.5 -8z" />
    <glyph glyph-name="threequarters" unicode="&#xbe;" horiz-adv-x="3072" 
d="M778 1337q0 77 21 107h15q0 -61 43.5 -122.5t227.5 -61.5q120 0 221.5 58t101.5 192q0 54 -64 145t-64 135t51 77t161 89t110 130t-40.5 102.5t-94.5 28.5t-130.5 -20.5t-153.5 -107.5q-15 5 -18 23t2 28q36 36 141 87t126 62q62 15 123 15t135 -28t74 -115
q0 -102 -143 -177q-72 -38 -128 -72t-56 -62t20.5 -59t46.5 -69t43.5 -76t17.5 -94.5t-54 -123t-138.5 -123t-194.5 -95t-217 -38.5q-56 0 -120.5 44t-64.5 121zM2345 -20q0 -41 15 -62q-20 -20 -41 -5q-15 36 -35.5 64t-35.5 51q-16 23 -16 53t133 242q-168 0 -363 -20.5
t-256 -36.5q-15 0 -15 39t10 79q0 20 31 20q71 14 153 50q198 88 425 247q108 77 108 200q0 46 -21 77q0 26 54 54t100 33q30 0 30 -51t-38 -135.5t-177 -182.5q-204 -131 -450 -271q-10 -10 -10 -21q0 -4 51 -2t83 2h326q31 46 67 100t88 126.5t95 115.5q42 42 139.5 98.5
t153.5 82.5q41 0 10 -21q-144 -82 -230 -202q-52 -73 -184 -300q230 0 276 -15q31 -5 31 -41q0 -15 -18 -56t-54 -82q-15 0 -15 15q32 64 5 77q-133 26 -266 26q-159 -263 -159 -348zM553 -323q-41 0 -41 26q1211 1274 1727 1832.5t787 855.5q26 31 64 31q84 0 84 -26
q-521 -512 -1195.5 -1229.5t-1292.5 -1432.5q-41 -41 -66.5 -49t-66.5 -8z" />
    <glyph glyph-name="questiondown" unicode="&#xbf;" horiz-adv-x="1331" 
d="M1183 1077q0 23 23 46.5t53.5 44t64 33t54 12.5t64 -35.5t43.5 -81.5t-36 -100t-164 -110q-36 0 -36 36q0 67 -33 99.5t-33 55.5zM1116 525q0 -86 -72 -141q-52 -52 -276 -210q-143 -97 -268.5 -184t-218 -176.5t-143.5 -187.5t-51 -228t71.5 -209.5t286.5 -142.5
t202 -110.5t-92 -134t-99 -71.5q15 31 22.5 54t-18.5 61t-202 89q-176 52 -265.5 131.5t-89.5 221.5t61.5 248.5t156 206.5t245.5 212t261 184t187 128.5t120.5 105t43.5 112.5q0 116 -113 217q-46 36 5 36q67 -13 154 0q61 -41 76.5 -99.5t15.5 -112.5z" />
    <glyph glyph-name="Agrave" unicode="&#xc0;" horiz-adv-x="2718" 
d="M2237 764q0 55 -53 114q-54 59 -141 82t-436 23q-350 0 -470 15q-389 -353 -653 -645t-397 -486q-41 -67 -59 -121t-28 -140q-10 -31 -31 -16l-30 256q5 92 69 166t171 177q983 917 1587 1447t774 648q40 26 122 46t113 51t33 7t-7 -43q-51 -77 -82 -177t-39 -143
t-49 -251q-42 -208 -87 -474t-87 -505t-61 -452q0 -155 62 -207q56 -48 154 -26q36 8 76 18q41 10 44 -5t-28 -23q-93 -24 -224 -63t-243 -63q-77 0 -102 103q102 632 102 687zM1802 1024q340 0 410 -15q51 -15 59 -13t18 38q35 179 111 617t85 472q8 33 -2 35t-38 -18
t-100 -79q-855 -701 -1085 -965q12 -72 389 -72h153zM2432 3028q0 22 20 52q20 28 33 28t26 -36q28 -77 106 -265t107 -303q0 -10 -8 -13t-18 8q-123 216 -194 362q-72 145 -72 167z" />
    <glyph glyph-name="Aacute" unicode="&#xc1;" horiz-adv-x="2718" 
d="M2237 764q0 55 -53 114q-54 59 -141 82t-436 23q-350 0 -470 15q-389 -353 -653 -645t-397 -486q-41 -67 -59 -121t-28 -140q-10 -31 -31 -16l-30 256q5 92 69 166t171 177q983 917 1587 1447t774 648q40 26 122 46t113 51t33 7t-7 -43q-51 -77 -82 -177t-39 -143
t-49 -251q-42 -208 -87 -474t-87 -505t-61 -452q0 -155 62 -207q56 -48 154 -26q36 8 76 18q41 10 44 -5t-28 -23q-93 -24 -224 -63t-243 -63q-77 0 -102 103q102 632 102 687zM1802 1024q340 0 410 -15q51 -15 59 -13t18 38q35 179 111 617t85 472q8 33 -2 35t-38 -18
t-100 -79q-855 -701 -1085 -965q12 -72 389 -72h153zM3333 3090q0 -12 -15 -28q-418 -322 -819 -589q-26 -15 -34 -7t3 17q599 488 799 645q19 10 27 10t24 -17q15 -19 15 -31z" />
    <glyph glyph-name="Acircumflex" unicode="&#xc2;" horiz-adv-x="2718" 
d="M2237 764q0 55 -53 114q-54 59 -141 82t-436 23q-350 0 -470 15q-389 -353 -653 -645t-397 -486q-41 -67 -59 -121t-28 -140q-10 -31 -31 -16l-30 256q5 92 69 166t171 177q983 917 1587 1447t774 648q40 26 122 46t113 51t33 7t-7 -43q-51 -77 -82 -177t-39 -143
t-49 -251q-42 -208 -87 -474t-87 -505t-61 -452q0 -155 62 -207q56 -48 154 -26q36 8 76 18q41 10 44 -5t-28 -23q-93 -24 -224 -63t-243 -63q-77 0 -102 103q102 632 102 687zM1802 1024q340 0 410 -15q51 -15 59 -13t18 38q35 179 111 617t85 472q8 33 -2 35t-38 -18
t-100 -79q-855 -701 -1085 -965q12 -72 389 -72h153zM2877 2975q-21 0 -176 -159q-156 -159 -243 -256q-46 -56 -66 -56t-21 28q0 28 46 64q161 143 291 271q130 129 170 167t70 56t37 18q20 0 20 -26q5 -143 15 -276t11 -207t-17 -87t-44 -39t-41 -26t-16 36q0 155 -15 461
q0 31 -21 31z" />
    <glyph glyph-name="Atilde" unicode="&#xc3;" horiz-adv-x="2718" 
d="M2237 764q0 55 -53 114q-54 59 -141 82t-436 23q-350 0 -470 15q-389 -353 -653 -645t-397 -486q-41 -67 -59 -121t-28 -140q-10 -31 -31 -16l-30 256q5 92 69 166t171 177q983 917 1587 1447t774 648q40 26 122 46t113 51t33 7t-7 -43q-51 -77 -82 -177t-39 -143
t-49 -251q-42 -208 -87 -474t-87 -505t-61 -452q0 -155 62 -207q56 -48 154 -26q36 8 76 18q41 10 44 -5t-28 -23q-93 -24 -224 -63t-243 -63q-77 0 -102 103q102 632 102 687zM1802 1024q340 0 410 -15q51 -15 59 -13t18 38q35 179 111 617t85 472q8 33 -2 35t-38 -18
t-100 -79q-855 -701 -1085 -965q12 -72 389 -72h153zM3046 2534q-72 0 -133 44t-115 98t-105 96q-51 44 -99 44q-103 0 -252 -166q-33 -38 -56 -72t-43 -24t18 62q79 106 263 251q67 51 128 51t115 -46t108 -100t113 -100q60 -46 136 -45q76 -1 130 71t54 154q0 26 23 38
q23 13 23 -38q-14 -118 -102 -218t-206 -100z" />
    <glyph glyph-name="Adieresis" unicode="&#xc4;" horiz-adv-x="2718" 
d="M2237 764q0 55 -53 114q-54 59 -141 82t-436 23q-350 0 -470 15q-389 -353 -653 -645t-397 -486q-41 -67 -59 -121t-28 -140q-10 -31 -31 -16l-30 256q5 92 69 166t171 177q983 917 1587 1447t774 648q40 26 122 46t113 51t33 7t-7 -43q-51 -77 -82 -177t-39 -143
t-49 -251q-42 -208 -87 -474t-87 -505t-61 -452q0 -155 62 -207q56 -48 154 -26q36 8 76 18q41 10 44 -5t-28 -23q-93 -24 -224 -63t-243 -63q-77 0 -102 103q102 632 102 687zM1802 1024q340 0 410 -15q51 -15 59 -13t18 38q35 179 111 617t85 472q8 33 -2 35t-38 -18
t-100 -79q-855 -701 -1085 -965q12 -72 389 -72h153zM2775 2836q0 -61 -54 -122q-53 -62 -117 -62t-64 64t48 126q49 61 118 61t69 -67zM3144 2806q0 -60 -54 -122t-118 -62t-64 64t49 125t118 61t69 -66z" />
    <glyph glyph-name="Aring" unicode="&#xc5;" horiz-adv-x="2718" 
d="M2237 764q0 55 -53 114q-54 59 -141 82t-436 23q-350 0 -470 15q-389 -353 -653 -645t-397 -486q-41 -67 -59 -121t-28 -140q-10 -31 -31 -16l-30 256q5 92 69 166t171 177q983 917 1587 1447t774 648q40 26 122 46t113 51t33 7t-7 -43q-51 -77 -82 -177t-39 -143
t-49 -251q-42 -208 -87 -474t-87 -505t-61 -452q0 -155 62 -207q56 -48 154 -26q36 8 76 18q41 10 44 -5t-28 -23q-93 -24 -224 -63t-243 -63q-77 0 -102 103q102 632 102 687zM1802 1024q340 0 410 -15q51 -15 59 -13t18 38q35 179 111 617t85 472q8 33 -2 35t-38 -18
t-100 -79q-855 -701 -1085 -965q12 -72 389 -72h153zM3077 2885q0 69 -41 125t-143 57q-147 0 -217 -95q-70 -96 -70 -200t56 -158t134 -54t128 28q51 28 84 74t51 100t18 123zM3149 2877q0 -128 -95 -238t-274 -110q-108 1 -176 57t-70 170q0 114 85 216q103 126 279 126
q251 -1 251 -221z" />
    <glyph glyph-name="AE" unicode="&#xc6;" horiz-adv-x="3978" 
d="M1551 1198q268 -15 1014 -15q138 246 266 466t256 481q-865 -476 -1536 -932zM4063 2232h171q98 0 98 -20.5t-22 -52.5t-45 -91q-10 -20 -23 -22.5t-23 28.5q-10 26 -46 35q-287 47 -712 47q-82 0 -123 -52q-99 -133 -228.5 -345.5t-201.5 -340.5t-133 -235q122 0 435 10
t456 20.5t230 15.5q-31 -41 -41 -82q-5 -31 -46 -31h-5q-266 10 -517 10l-548 -5q-239 -426 -348 -681q-51 -108 -51 -204q0 -241 358 -241q512 0 878 117.5t525 225.5q10 5 30.5 2.5t-15.5 -38.5q-67 -61 -107 -123q-36 -67 -149 -92q-578 -124 -1075 -143
q-479 0 -587.5 30.5t-139 69t-30.5 109.5t61 190q102 195 215 387t225 386h-230q-230 0 -517 -10t-400 -21q-496 -316 -831.5 -603t-463.5 -436q-85 -111 -102 -179q-10 -26 -28 -26t-18 9l20 206q0 31 5 49t31 49q154 154 545.5 425t749.5 512q-15 26 -15 59t36 43t153 10
q369 243 873.5 557t534.5 334t31 35.5t-51 15.5h-144q-298 0 -517 -36q-51 -10 -66 -30q-15 -15 -26 -15.5t-3 20.5t13 48.5t13 53.5t54 26h61l907 -10q216 0 458.5 12.5t319.5 12.5q67 5 141 5z" />
    <glyph glyph-name="Ccedilla" unicode="&#xc7;" horiz-adv-x="2641" 
d="M788 410q0 -420 538 -420q430 0 783 228t671 663q15 20 26 20q20 -1 20 -57t-13 -84t-28 -53q-236 -353 -622 -556q-328 -172 -710 -198q10 -1 21 -5t-15 -20q-41 -10 -92 -41q-97 -58 -97 -102q0 -26 26 -41q26 -14 56 -30q82 -41 82 -98q0 -56 -67 -108
q-77 -66 -223 -166q-146 -99 -192 -100q-10 0 -25 10t-16 21q0 10 26 20q70 13 163 63q92 50 136 88t44 72t-26 54t-56 38t-56 38t-26 54t41 75q100 100 284 178q-61 -4 -167 -4t-242 28q-290 60 -407 282q-61 115 -61 299t73 390q142 393 459 749q317 357 701 502
q225 85 440 85q469 1 763 -175q41 -20 41 -61q-36 -61 -92 -192t-92 -233l-46 -15q28 72 26 161q-3 205 -121 320q-152 148 -484 148q-148 -1 -276 -59t-248 -145t-282 -267q-160 -180 -304 -402q-144 -223 -239 -471t-95 -483z" />
    <glyph glyph-name="Egrave" unicode="&#xc8;" horiz-adv-x="2432" 
d="M1769 1152h-341q-108 0 -204 -5q-41 0 -57 -31q-234 -415 -332 -650q-51 -118 -52 -210q0 -241 364 -241q321 0 743 95q421 95 603 233q20 10 21 -20q-45 -37 -108 -134q-36 -67 -154 -95q-165 -39 -522 -87q-563 -75 -947 -35q-232 24 -286 107q-26 38 -26 110t56 175
q20 36 110 188t210 368q120 217 121 222q0 15 -16 20t-56 5q-41 0 -41 16q0 36 61 46q118 15 175 123q20 36 113 202t203 378q109 214 109 234t-31 20q-385 0 -579 -51l-10 5q10 87 41 118q495 -31 1025 -11q530 21 793 21q31 0 30 -25q-10 -26 -41 -80t-56 -110l-20 5
q0 31 -13 57t-28 30q-281 46 -712 46q-82 0 -123 -51q-222 -296 -543 -870q-20 -46 31 -46q72 -5 144 -5h148q236 1 412 13t356 53l15 -15q-35 -69 -51 -108q-5 -20 -41 -20q-266 10 -494 10zM1966 2978q0 22 20 50t31 29q15 0 28 -36q28 -77 106 -264t107 -305
q0 -10 -8 -12t-18 7q-119 210 -193 359q-73 150 -73 172z" />
    <glyph glyph-name="Eacute" unicode="&#xc9;" horiz-adv-x="2432" 
d="M1769 1152h-341q-108 0 -204 -5q-41 0 -57 -31q-234 -415 -332 -650q-51 -118 -52 -210q0 -241 364 -241q321 0 743 95q421 95 603 233q20 10 21 -20q-45 -37 -108 -134q-36 -67 -154 -95q-165 -39 -522 -87q-563 -75 -947 -35q-232 24 -286 107q-26 38 -26 110t56 175
q20 36 110 188t210 368q120 217 121 222q0 15 -16 20t-56 5q-41 0 -41 16q0 36 61 46q118 15 175 123q20 36 113 202t203 378q109 214 109 234t-31 20q-385 0 -579 -51l-10 5q10 87 41 118q495 -31 1025 -11q530 21 793 21q31 0 30 -25q-10 -26 -41 -80t-56 -110l-20 5
q0 31 -13 57t-28 30q-281 46 -712 46q-82 0 -123 -51q-222 -296 -543 -870q-20 -46 31 -46q72 -5 144 -5h148q236 1 412 13t356 53l15 -15q-35 -69 -51 -108q-5 -20 -41 -20q-266 10 -494 10zM2836 3090q0 -12 -15 -28q-418 -322 -819 -589q-26 -15 -34 -7t3 17
q599 488 799 645q20 10 28 10t23 -18t15 -30z" />
    <glyph glyph-name="Ecircumflex" unicode="&#xca;" horiz-adv-x="2432" 
d="M1769 1152h-341q-108 0 -204 -5q-41 0 -57 -31q-234 -415 -332 -650q-51 -118 -52 -210q0 -241 364 -241q321 0 743 95q421 95 603 233q20 10 21 -20q-45 -37 -108 -134q-36 -67 -154 -95q-165 -39 -522 -87q-563 -75 -947 -35q-232 24 -286 107q-26 38 -26 110t56 175
q20 36 110 188t210 368q120 217 121 222q0 15 -16 20t-56 5q-41 0 -41 16q0 36 61 46q118 15 175 123q20 36 113 202t203 378q109 214 109 234t-31 20q-385 0 -579 -51l-10 5q10 87 41 118q495 -31 1025 -11q530 21 793 21q31 0 30 -25q-10 -26 -41 -80t-56 -110l-20 5
q0 31 -13 57t-28 30q-281 46 -712 46q-82 0 -123 -51q-222 -296 -543 -870q-20 -46 31 -46q72 -5 144 -5h148q236 1 412 13t356 53l15 -15q-35 -69 -51 -108q-5 -20 -41 -20q-266 10 -494 10zM2422 2483q0 189 -16 461q0 31 -21 31t-176 -159q-156 -159 -243 -256
q-46 -56 -66 -56t-20 28t45 64q183 162 301 280q119 120 160 158q42 38 72 56t35 18q20 0 21 -26q6 -143 16 -276t10 -207t-18 -87t-44 -39t-41 -26t-15 36z" />
    <glyph glyph-name="Edieresis" unicode="&#xcb;" horiz-adv-x="2432" 
d="M1769 1152h-341q-108 0 -204 -5q-41 0 -57 -31q-234 -415 -332 -650q-51 -118 -52 -210q0 -241 364 -241q321 0 743 95q421 95 603 233q20 10 21 -20q-45 -37 -108 -134q-36 -67 -154 -95q-165 -39 -522 -87q-563 -75 -947 -35q-232 24 -286 107q-26 38 -26 110t56 175
q20 36 110 188t210 368q120 217 121 222q0 15 -16 20t-56 5q-41 0 -41 16q0 36 61 46q118 15 175 123q20 36 113 202t203 378q109 214 109 234t-31 20q-385 0 -579 -51l-10 5q10 87 41 118q495 -31 1025 -11q530 21 793 21q31 0 30 -25q-10 -26 -41 -80t-56 -110l-20 5
q0 31 -13 57t-28 30q-281 46 -712 46q-82 0 -123 -51q-222 -296 -543 -870q-20 -46 31 -46q72 -5 144 -5h148q236 1 412 13t356 53l15 -15q-35 -69 -51 -108q-5 -20 -41 -20q-266 10 -494 10zM2115 2836q0 -61 -54 -122q-54 -62 -118 -62t-64 64t49 126q49 61 118 61t69 -67
zM2483 2806q0 -60 -54 -122q-53 -62 -117 -62t-64 64t48 125q49 61 118 61t69 -66z" />
    <glyph glyph-name="Igrave" unicode="&#xcc;" horiz-adv-x="1254" 
d="M1531 2125q0 56 -155 56t-265 -25l-15 5q10 41 30 61q578 27 779 62q26 -15 25 -41q0 -10 -30 -21q-41 -10 -67 -46q-27 -36 -93 -159q-586 -1085 -1115 -1889q-75 -103 -190 -128q-130 -23 -240 -10q-11 5 -11 25q77 9 144 87q221 279 665 990q444 710 528 976
q10 31 10 57zM1490 3028q0 22 20 52q20 28 33 28t26 -36q28 -77 106 -265t107 -303q0 -10 -8 -13t-18 8q-123 216 -194 362q-72 145 -72 167z" />
    <glyph glyph-name="Iacute" unicode="&#xcd;" horiz-adv-x="1254" 
d="M1531 2125q0 56 -155 56t-265 -25l-15 5q10 41 30 61q578 27 779 62q26 -15 25 -41q0 -10 -30 -21q-41 -10 -67 -46q-27 -36 -93 -159q-586 -1085 -1115 -1889q-75 -103 -190 -128q-130 -23 -240 -10q-11 5 -11 25q77 9 144 87q221 279 665 990q444 710 528 976
q10 31 10 57zM2422 3090q0 -12 -16 -28q-430 -331 -819 -589q-25 -15 -33 -7t2 17q599 488 799 645q20 10 28 10q7 0 23 -18t16 -30z" />
    <glyph glyph-name="Icircumflex" unicode="&#xce;" horiz-adv-x="1254" 
d="M1531 2125q0 56 -155 56t-265 -25l-15 5q10 41 30 61q578 27 779 62q26 -15 25 -41q0 -10 -30 -21q-41 -10 -67 -46q-27 -36 -93 -159q-586 -1085 -1115 -1889q-75 -103 -190 -128q-130 -23 -240 -10q-11 5 -11 25q77 9 144 87q221 279 665 990q444 710 528 976
q10 31 10 57zM1997 2944q0 31 -20 31t-177 -159t-244 -256q-46 -56 -66 -56t-20 28t46 64q174 154 297 277q122 123 163 161q42 38 72 56t36 18q20 0 20 -26q6 -143 16 -276t10 -207t-18 -87t-44 -39t-40 -26t-16 36q0 155 -15 461z" />
    <glyph glyph-name="Idieresis" unicode="&#xcf;" horiz-adv-x="1254" 
d="M1531 2125q0 56 -155 56t-265 -25l-15 5q10 41 30 61q578 27 779 62q26 -15 25 -41q0 -10 -30 -21q-41 -10 -67 -46q-27 -36 -93 -159q-586 -1085 -1115 -1889q-75 -103 -190 -128q-130 -23 -240 -10q-11 5 -11 25q77 9 144 87q221 279 665 990q444 710 528 976
q10 31 10 57zM1818 2836q0 -61 -54 -122q-54 -62 -118 -62t-64 64t49 126q49 61 118 61t69 -67zM2186 2806q0 -60 -54 -122t-118 -62t-63 64q0 64 48 125q49 61 118 61t69 -66z" />
    <glyph glyph-name="Eth" unicode="&#xd0;" horiz-adv-x="2882" 
d="M1707 1188q157 0 172 -5q26 1 26 -43t-21 -44q-26 20 -138 20h-246q-128 0 -287 -10q-264 -472 -425 -804q-20 -42 -20 -64t36 -63.5t159.5 -108t337.5 -66.5q394 0 711 154q184 87 338 243t269 348t179 401.5t64 401.5t-82 312.5t-254.5 223t-549.5 102.5
q-72 0 -102.5 -10t-55.5 -51q-235 -363 -564 -947q296 10 453 10zM794 2186q0 67 25 67q10 0 77 -28.5t138 -28.5q179 0 422.5 18t493.5 18t445.5 -23t351.5 -97t258.5 -215t102.5 -361t-79.5 -435t-210 -404.5t-304.5 -340.5t-366 -238q-352 -159 -812 -159q-334 0 -464 54
t-171 77t-79 23t-76.5 -18t-77 -38.5t-69 -38.5t-46.5 -18h-5q-15 0 -15 23t64 84.5t135 194.5q15 31 61.5 107.5t108 184t138 238.5t153.5 269l-281 -21q-82 0 -82 87q0 10 10 11q10 -5 79 -10.5t79 -5.5l231 5q287 490 410 726.5t123 257t-41 20.5q-164 0 -335.5 -33.5
t-304.5 -33.5q-87 0 -87 82z" />
    <glyph glyph-name="Ntilde" unicode="&#xd1;" horiz-adv-x="2810" 
d="M1293 2217q184 0 335 51q36 0 41 -46q10 -41 43 -187t113 -377q80 -230 154 -434t148 -405q74 -200 131 -363q10 -41 20 -67q10 -25 30 -25q31 1 73 87q483 986 733 1425t349 567t214 188t217 -2q54 -33 69 -74q0 -10 -15 -10q-214 0 -397 -190q-74 -77 -162 -194
q-446 -612 -916 -1664q-165 -392 -230 -523q-15 -36 -31 -35q-20 0 -46 35q-153 540 -492 1449q-82 220 -138 354q-31 67 -56 66q-26 0 -67 -61q-330 -516 -431 -698q-316 -571 -380 -789q-64 -217 -64 -372h-16q-10 5 -28 36t-52 87t-33 105q2 81 103 238q77 136 356 601
q280 465 420 726t140 342q0 108 -127 108t-267 -10q-20 0 -33 23t-13 45t16 24q105 -31 289 -31zM2816 2534q-72 0 -133 44t-115 98t-105 96q-51 44 -100 44q-80 0 -170 -83t-135 -153q-26 -36 -46 -26q-40 21 133 185q77 71 147 125t130 54q61 0 115 -46q53 -46 107 -100
t113 -100t136 -45q77 -1 131 71t53 154q0 26 23 38q23 13 23 -38q-15 -118 -102 -218t-205 -100z" />
    <glyph glyph-name="Ograve" unicode="&#xd2;" horiz-adv-x="3015" 
d="M2354 2253q-290 0 -506 -105t-394 -310q-224 -250 -409 -619q-185 -370 -185 -651q0 -449 392 -540q120 -28 264 -28q302 0 570 159t474 402q205 243 325 537t120 582q0 287 -180 430q-181 143 -471 143zM1556 -46q-441 0 -668 138q-272 168 -274 528q0 304 210 701
q92 174 210 328t231 256q220 199 496 291t569 93q377 0 627 -136q137 -73 223 -199t81 -321q-5 -317 -148 -619t-376 -538t-541 -379t-640 -143zM2207 3080q0 22 20 50t33 29q13 0 27 -40t99 -245t113 -319q0 -10 -8 -13t-18 8q-114 201 -190 354q-76 154 -76 176z" />
    <glyph glyph-name="Oacute" unicode="&#xd3;" horiz-adv-x="3015" 
d="M2354 2253q-290 0 -506 -105t-394 -310q-224 -250 -409 -619q-185 -370 -185 -651q0 -449 392 -540q120 -28 264 -28q302 0 570 159t474 402q205 243 325 537t120 582q0 287 -180 430q-181 143 -471 143zM1556 -46q-441 0 -668 138q-272 168 -274 528q0 304 210 701
q92 174 210 328t231 256q220 199 496 291t569 93q377 0 627 -136q137 -73 223 -199t81 -321q-5 -317 -148 -619t-376 -538t-541 -379t-640 -143zM3136 3190q8 0 22 -18q16 -18 16 -30t-15 -29q-418 -322 -819 -589q-26 -16 -34 -8t3 18q598 487 799 646q20 10 28 10z" />
    <glyph glyph-name="Ocircumflex" unicode="&#xd4;" horiz-adv-x="3015" 
d="M2354 2253q-290 0 -506 -105t-394 -310q-224 -250 -409 -619q-185 -370 -185 -651q0 -449 392 -540q120 -28 264 -28q302 0 570 159t474 402q205 243 325 537t120 582q0 287 -180 430q-181 143 -471 143zM1556 -46q-441 0 -668 138q-272 168 -274 528q0 304 210 701
q92 174 210 328t231 256q220 199 496 291t569 93q377 0 627 -136q137 -73 223 -199t81 -321q-5 -317 -148 -619t-376 -538t-541 -379t-640 -143zM2770 2995q0 31 -22 31t-176 -159q-155 -159 -242 -256q-46 -56 -66 -56t-21 28q0 28 46 64q161 143 291 271t170 166t70 57
q30 18 37 18q20 0 20 -26q5 -143 15 -276t11 -207t-17 -87t-44 -39q-55 -55 -57 10q0 155 -15 461z" />
    <glyph glyph-name="Otilde" unicode="&#xd5;" horiz-adv-x="3015" 
d="M2354 2253q-290 0 -506 -105t-394 -310q-224 -250 -409 -619q-185 -370 -185 -651q0 -449 392 -540q120 -28 264 -28q302 0 570 159t474 402q205 243 325 537t120 582q0 287 -180 430q-181 143 -471 143zM1556 -46q-441 0 -668 138q-272 168 -274 528q0 304 210 701
q92 174 210 328t231 256q220 199 496 291t569 93q377 0 627 -136q137 -73 223 -199t81 -321q-5 -317 -148 -619t-376 -538t-541 -379t-640 -143zM2847 2534q-72 0 -133 44q-62 44 -116 98t-105 96q-51 44 -99 44q-106 0 -251 -166q-33 -38 -57 -72t-43 -24q-20 10 18 62
q79 106 263 251q66 51 128 51t116 -46t108 -100t112 -100q60 -46 136 -45q76 -1 130 71t54 154q0 26 23 38q23 13 23 -38q-15 -118 -102 -218t-205 -100z" />
    <glyph glyph-name="Odieresis" unicode="&#xd6;" horiz-adv-x="3015" 
d="M2354 2253q-290 0 -506 -105t-394 -310q-224 -250 -409 -619q-185 -370 -185 -651q0 -449 392 -540q120 -28 264 -28q302 0 570 159t474 402q205 243 325 537t120 582q0 287 -180 430q-181 143 -471 143zM1556 -46q-441 0 -668 138q-272 168 -274 528q0 304 210 701
q92 174 210 328t231 256q220 199 496 291t569 93q377 0 627 -136q137 -73 223 -199t81 -321q-5 -317 -148 -619t-376 -538t-541 -379t-640 -143zM2586 2836q0 -61 -54 -122q-54 -62 -118 -62t-64 64t49 126q49 61 118 61t69 -67zM2954 2806q0 -60 -54 -122t-118 -62t-63 64
q0 64 48 125q49 61 118 61t69 -66z" />
    <glyph glyph-name="multiply" unicode="&#xd7;" horiz-adv-x="2048" 
d="M1147 742q0 -92 10 -148q141 110 451 312l102 -61q-95 -40 -538 -333q49 -248 103 -348l-108 -31q-57 212 -71 328q-20 -15 -163 -120t-257 -208l-82 67q156 131 486 343q-15 56 -30.5 168.5t-15.5 194.5l113 21v-185z" />
    <glyph glyph-name="Oslash" unicode="&#xd8;" horiz-adv-x="3015" 
d="M1516 0q302 0 570.5 158.5t473.5 402t325 538t120 570.5q0 200 -87 333q-1235 -1108 -1950 -1807q87 -108 227.5 -151.5t320.5 -43.5zM2335 2253q-271 0 -486.5 -105t-394.5 -310q-224 -250 -409 -619.5t-185 -650.5q0 -194 72 -312q415 384 883.5 814t1061.5 988
q-166 195 -542 195zM809 143q-195 163 -195 472t151 594.5t269 439t231 256.5q220 200 496.5 292t568.5 92q389 0 640 -139l210 205q59 46 97.5 35t-31.5 -81l-215 -200q241 -172 230 -476q-5 -317 -148 -619t-376 -537.5t-540.5 -379t-640.5 -143.5q-200 0 -373.5 30.5
t-306.5 117.5q-56 -56 -107.5 -104.5t-113.5 -110.5t-100 -31t54 113z" />
    <glyph glyph-name="Ugrave" unicode="&#xd9;" horiz-adv-x="3159" 
d="M2903 0q157 0 387 115q44 23 48 23q26 0 31 -20t-21 -31q-148 -67 -304 -115t-320 -49q-338 0 -338 261q0 156 174 459q31 54 31 64q0 11 -5 13t-11 -8q-362 -407 -798 -610q-189 -86 -353 -122t-272 -36q-231 0 -381 97q-177 114 -177 328q0 154 90 320t197 338
q108 172 312 495t317 531q20 41 21 62q0 46 -77 46l-235 -5l-123 5q-41 1 -44 31q-2 30 44 30t161 -8q324 -23 584 16q121 18 159 18t38 -21q0 -15 -36 -25t-82 -23t-87 -59q-201 -253 -424 -608t-395 -667q-128 -225 -128 -405t102 -276q102 -97 312 -97q405 0 822 302
q460 331 789 926q169 306 268 496q98 191 139 257q80 128 158 158q62 24 188 56t148 32t28 -26t-20 -25q-57 -11 -108 -62q-285 -351 -614 -916q-419 -724 -415 -1029q0 -236 220 -236zM2582 3108q12 0 26 -36q28 -77 106 -265t107 -303q0 -10 -8 -13t-17 8
q-67 118 -166 307t-100 217q0 29 20 57t32 28z" />
    <glyph glyph-name="Uacute" unicode="&#xda;" horiz-adv-x="3159" 
d="M2903 0q157 0 387 115q44 23 48 23q26 0 31 -20t-21 -31q-148 -67 -304 -115t-320 -49q-338 0 -338 261q0 156 174 459q31 54 31 64q0 11 -5 13t-11 -8q-362 -407 -798 -610q-189 -86 -353 -122t-272 -36q-231 0 -381 97q-177 114 -177 328q0 154 90 320t197 338
q108 172 312 495t317 531q20 41 21 62q0 46 -77 46l-235 -5l-123 5q-41 1 -44 31q-2 30 44 30t161 -8q324 -23 584 16q121 18 159 18t38 -21q0 -15 -36 -25t-82 -23t-87 -59q-201 -253 -424 -608t-395 -667q-128 -225 -128 -405t102 -276q102 -97 312 -97q405 0 822 302
q460 331 789 926q169 306 268 496q98 191 139 257q80 128 158 158q62 24 188 56t148 32t28 -26t-20 -25q-57 -11 -108 -62q-285 -351 -614 -916q-419 -724 -415 -1029q0 -236 220 -236zM3512 3090q0 -12 -15 -28q-418 -322 -819 -589q-26 -15 -34 -7t3 17q599 488 799 645
q20 10 28 10t23 -17q15 -19 15 -31z" />
    <glyph glyph-name="Ucircumflex" unicode="&#xdb;" horiz-adv-x="3159" 
d="M2903 0q157 0 387 115q44 23 48 23q26 0 31 -20t-21 -31q-148 -67 -304 -115t-320 -49q-338 0 -338 261q0 156 174 459q31 54 31 64q0 11 -5 13t-11 -8q-362 -407 -798 -610q-189 -86 -353 -122t-272 -36q-231 0 -381 97q-177 114 -177 328q0 154 90 320t197 338
q108 172 312 495t317 531q20 41 21 62q0 46 -77 46l-235 -5l-123 5q-41 1 -44 31q-2 30 44 30t161 -8q324 -23 584 16q121 18 159 18t38 -21q0 -15 -36 -25t-82 -23t-87 -59q-201 -253 -424 -608t-395 -667q-128 -225 -128 -405t102 -276q102 -97 312 -97q405 0 822 302
q460 331 789 926q169 306 268 496q98 191 139 257q80 128 158 158q62 24 188 56t148 32t28 -26t-20 -25q-57 -11 -108 -62q-285 -351 -614 -916q-419 -724 -415 -1029q0 -236 220 -236zM2980 2483q0 189 -16 461q0 31 -21 31t-176 -159q-156 -159 -243 -256q-46 -56 -66 -56
t-20 28t45 64q183 162 301 280q119 120 160 158q42 38 72 56t36 18q20 0 20 -26q6 -143 16 -276t10 -207t-18 -87t-44 -39t-41 -26t-15 36z" />
    <glyph glyph-name="Udieresis" unicode="&#xdc;" horiz-adv-x="3159" 
d="M2903 0q157 0 387 115q44 23 48 23q26 0 31 -20t-21 -31q-148 -67 -304 -115t-320 -49q-338 0 -338 261q0 156 174 459q31 54 31 64q0 11 -5 13t-11 -8q-362 -407 -798 -610q-189 -86 -353 -122t-272 -36q-231 0 -381 97q-177 114 -177 328q0 154 90 320t197 338
q108 172 312 495t317 531q20 41 21 62q0 46 -77 46l-235 -5l-123 5q-41 1 -44 31q-2 30 44 30t161 -8q324 -23 584 16q121 18 159 18t38 -21q0 -15 -36 -25t-82 -23t-87 -59q-201 -253 -424 -608t-395 -667q-128 -225 -128 -405t102 -276q102 -97 312 -97q405 0 822 302
q460 331 789 926q169 306 268 496q98 191 139 257q80 128 158 158q62 24 188 56t148 32t28 -26t-20 -25q-57 -11 -108 -62q-285 -351 -614 -916q-419 -724 -415 -1029q0 -236 220 -236zM2734 2785q0 -61 -54 -123t-118 -61q-64 0 -63 64q0 64 48 125q49 62 118 62t69 -67z
M3103 2755q0 -61 -54 -123q-53 -62 -117 -62t-64 64t48 126q49 62 118 62t69 -67z" />
    <glyph glyph-name="Yacute" unicode="&#xdd;" horiz-adv-x="2053" 
d="M3750 2273h-69q-283 0 -924 -425q-279 -184 -555 -407q-554 -447 -692 -668q-128 -225 -230 -417t-138 -315q-6 -20 -16 -33q-10 -14 -69 -6t-118 8t-94 -26q-36 -26 -82 -56q-15 -4 -18 16t13 36q106 85 259 315t278 493q57 122 103 302t46 318q0 485 -300 640
q-110 56 -281 56t-291 -56t-214 -184q-15 -20 -41 -18t0 43q291 369 779 369q148 0 256 -59q209 -114 271 -384q31 -131 31 -253t-18 -238t-26 -164t-10 -67q-2 -18 10 -31t34 8q368 282 734 576t725 545q107 77 245 149t272 72q61 0 115 -49t74 -85q-1 -20 -21 -12t-38 7z
M3018 3087q8 0 24 -18q16 -19 15 -31q0 -12 -16 -27q-430 -331 -819 -589q-26 -16 -34 -8t3 18q599 488 799 645q20 10 28 10z" />
    <glyph glyph-name="Thorn" unicode="&#xde;" horiz-adv-x="2135" 
d="M1377 522q-230 0 -230 64q1 18 29 8q88 -31 219 -31t282 56.5t268.5 159t189.5 240.5t72 307q0 369 -389 369q-102 0 -217.5 -31t-161.5 -123q-169 -333 -294.5 -576t-248.5 -493t-123 -334q0 -123 241 -123q36 -36 0 -35q-349 0 -451 10q-92 5 -92 82q0 41 105 235.5
t274 508.5q319 594 464 899.5t145 358.5q0 72 -102 71l-297 -10q-36 0 -38.5 28t51.5 28q109 0 325 21l338 31q41 0 41 -26q0 -5 -62 -128l-194 -384q1 -10 21 -10t71 23t187 23q285 0 468.5 -111t183.5 -345q0 -189 -104.5 -332.5t-263.5 -241t-348.5 -146t-358.5 -43.5z
" />
    <glyph glyph-name="germandbls" unicode="&#xdf;" horiz-adv-x="1223" 
d="M2115 2586q0 41 -23.5 76.5t-87.5 35.5q-109 0 -269.5 -186t-285.5 -392q-403 -690 -685 -1230t-452 -839q51 -26 97.5 -31t136.5 -5t181.5 41t178.5 135.5t87 251.5t-18 285t-18 255q0 46 33.5 128t115.5 164q1009 1009 1009 1311zM509 -26q-131 0 -238 16
q-302 -543 -558 -963t-501.5 -709t-491.5 -437.5t-522 -148.5q-118 0 -233 46t-187 133q-5 15 2.5 25.5t23.5 0.5q56 -51 176 -82t223 -31q292 0 525 128t455.5 397t455.5 683.5t520 993.5q-138 92 -139 215q0 98 77 233t103 171q26 15 25 -10q-46 -72 -71.5 -156.5
t-25.5 -153.5t23 -123t59 -79q372 837 804 1546q113 184 289.5 409.5t358.5 411.5t307 279t222 93q56 0 97.5 -34t41.5 -92t-23 -122t-143 -231.5t-684 -769.5q-164 -174 -251 -274t-87 -192q0 -184 33 -315t33 -300q0 -82 -58.5 -179t-156 -181.5t-225.5 -141t-259 -56.5z
" />
    <glyph glyph-name="agrave" unicode="&#xe0;" horiz-adv-x="1459" 
d="M328 108q0 -41 30 -41q61 0 243 153q181 153 321 359q82 123 158 261q77 138 139 245l-6 6q-175 0 -333 -123q-158 -124 -281 -290t-197 -330t-74 -240zM1382 1121q180 -1 180 -41q0 -16 -16 -15q-62 20 -184 20q-236 -415 -346 -657t-110 -361q0 -46 23 -77t100 -31
q235 0 694 466q136 138 258 292q11 15 21 7t10 -23q-275 -334 -543 -553q-316 -261 -542 -261q-101 -1 -143 51t-42 126t44 195q44 120 130 258q-270 -351 -517 -494q-92 -54 -163 -54q-108 0 -108 113t92 292t248 345q156 167 356 287t415 120q40 78 87 103l143 41l11 -5
q-26 -26 -49 -64t-49 -80zM942 1954q0 22 20 50t31 29q15 0 28 -36q28 -77 106 -264t107 -305q0 -10 -8 -12t-18 7q-119 210 -193 359q-73 150 -73 172z" />
    <glyph glyph-name="aacute" unicode="&#xe1;" horiz-adv-x="1459" 
d="M328 108q0 -41 30 -41q61 0 243 153q181 153 321 359q82 123 158 261q77 138 139 245l-6 6q-175 0 -333 -123q-158 -124 -281 -290t-197 -330t-74 -240zM1382 1121q180 -1 180 -41q0 -16 -16 -15q-62 20 -184 20q-236 -415 -346 -657t-110 -361q0 -46 23 -77t100 -31
q235 0 694 466q136 138 258 292q11 15 21 7t10 -23q-275 -334 -543 -553q-316 -261 -542 -261q-101 -1 -143 51t-42 126t44 195q44 120 130 258q-270 -351 -517 -494q-92 -54 -163 -54q-108 0 -108 113t92 292t248 345q156 167 356 287t415 120q40 78 87 103l143 41l11 -5
q-26 -26 -49 -64t-49 -80zM1743 2063q7 0 23 -18q16 -19 16 -31t-16 -27q-430 -331 -819 -589q-25 -16 -33 -8t2 18q599 488 799 645q20 10 28 10z" />
    <glyph glyph-name="acircumflex" unicode="&#xe2;" horiz-adv-x="1459" 
d="M328 108q0 -41 30 -41q61 0 243 153q181 153 321 359q82 123 158 261q77 138 139 245l-6 6q-175 0 -333 -123q-158 -124 -281 -290t-197 -330t-74 -240zM1382 1121q180 -1 180 -41q0 -16 -16 -15q-62 20 -184 20q-236 -415 -346 -657t-110 -361q0 -46 23 -77t100 -31
q235 0 694 466q136 138 258 292q11 15 21 7t10 -23q-275 -334 -543 -553q-316 -261 -542 -261q-101 -1 -143 51t-42 126t44 195q44 120 130 258q-270 -351 -517 -494q-92 -54 -163 -54q-108 0 -108 113t92 292t248 345q156 167 356 287t415 120q40 78 87 103l143 41l11 -5
q-26 -26 -49 -64t-49 -80zM1475 1408q0 131 -16 461q0 31 -21 31t-176 -159q-156 -159 -243 -256q-46 -56 -67 -57q-20 0 -20 28t46 65q161 143 291 271q129 128 170 166t71 56t36 19q20 0 21 -26q5 -143 15 -277t10 -207q0 -75 -18 -87t-43 -38q-26 -26 -41 -26t-15 36z
" />
    <glyph glyph-name="atilde" unicode="&#xe3;" horiz-adv-x="1459" 
d="M328 108q0 -41 30 -41q61 0 243 153q181 153 321 359q82 123 158 261q77 138 139 245l-6 6q-175 0 -333 -123q-158 -124 -281 -290t-197 -330t-74 -240zM1382 1121q180 -1 180 -41q0 -16 -16 -15q-62 20 -184 20q-236 -415 -346 -657t-110 -361q0 -46 23 -77t100 -31
q235 0 694 466q136 138 258 292q11 15 21 7t10 -23q-275 -334 -543 -553q-316 -261 -542 -261q-101 -1 -143 51t-42 126t44 195q44 120 130 258q-270 -351 -517 -494q-92 -54 -163 -54q-108 0 -108 113t92 292t248 345q156 167 356 287t415 120q40 78 87 103l143 41l11 -5
q-26 -26 -49 -64t-49 -80zM1516 1510q-72 0 -134 44t-115 98q-54 54 -105 96q-52 44 -100 44q-106 0 -250 -166q-32 -38 -56 -72t-44 -24t18 62q79 106 263 251q67 51 128 51t115 -46t108 -100t113 -100t135 -45q76 -1 131 71q54 72 54 154q0 26 23 38q23 13 23 -38
q-15 -118 -103 -218t-204 -100z" />
    <glyph glyph-name="adieresis" unicode="&#xe4;" horiz-adv-x="1459" 
d="M328 108q0 -41 30 -41q61 0 243 153q181 153 321 359q82 123 158 261q77 138 139 245l-6 6q-175 0 -333 -123q-158 -124 -281 -290t-197 -330t-74 -240zM1382 1121q180 -1 180 -41q0 -16 -16 -15q-62 20 -184 20q-236 -415 -346 -657t-110 -361q0 -46 23 -77t100 -31
q235 0 694 466q136 138 258 292q11 15 21 7t10 -23q-275 -334 -543 -553q-316 -261 -542 -261q-101 -1 -143 51t-42 126t44 195q44 120 130 258q-270 -351 -517 -494q-92 -54 -163 -54q-108 0 -108 113t92 292t248 345q156 167 356 287t415 120q40 78 87 103l143 41l11 -5
q-26 -26 -49 -64t-49 -80zM1331 1812q0 -61 -54 -122q-53 -62 -117 -62t-64 64t48 126q49 61 118 61t69 -67zM1700 1782q0 -60 -54 -122t-118 -62t-64 64t49 125t118 61t69 -66z" />
    <glyph glyph-name="aring" unicode="&#xe5;" horiz-adv-x="1459" 
d="M328 108q0 -41 30 -41q61 0 243 153q181 153 321 359q82 123 158 261q77 138 139 245l-6 6q-175 0 -333 -123q-158 -124 -281 -290t-197 -330t-74 -240zM1382 1121q180 -1 180 -41q0 -16 -16 -15q-62 20 -184 20q-236 -415 -346 -657t-110 -361q0 -46 23 -77t100 -31
q235 0 694 466q136 138 258 292q11 15 21 7t10 -23q-275 -334 -543 -553q-316 -261 -542 -261q-101 -1 -143 51t-42 126t44 195q44 120 130 258q-270 -351 -517 -494q-92 -54 -163 -54q-108 0 -108 113t92 292t248 345q156 167 356 287t415 120q40 78 87 103l143 41l11 -5
q-26 -26 -49 -64t-49 -80zM1633 1861q0 69 -41 125t-143 57q-147 0 -217 -95q-70 -96 -70 -200t56 -158t134 -54q77 0 128 28t84 74t51 100t18 123zM1705 1853q0 -128 -95 -238t-274 -110q-108 1 -176 57t-69 170q0 114 84 216q103 126 279 126q251 -1 251 -221z" />
    <glyph glyph-name="ae" unicode="&#xe6;" horiz-adv-x="1571" 
d="M1091 1080q-102 0 -246 -107.5t-274.5 -258.5t-222.5 -309.5t-92 -261.5q0 -31 18 -43.5t38 -12.5q41 0 128 69t281.5 293.5t404.5 625.5q-10 5 -35 5zM1160 676q64 0 133 33t151 120t82 236q0 67 -62 67q-92 0 -204.5 -133.5t-184.5 -312.5q21 -10 85 -10zM51 92
q0 46 41 141t125.5 212.5t217.5 250.5t269 225t241 143.5t202 51.5q41 72 77 128t46 77q10 10 23 -8t13 -28t-3 -20.5t-13 -38.5t-30.5 -81.5t-51.5 -140.5q169 169 348 184q128 0 128 -97q0 -61 -38 -141t-166.5 -195t-424.5 -115q-26 -67 -56.5 -159t-30.5 -194.5
t35.5 -166.5t209.5 -64t423.5 195.5t416.5 429.5q10 10 23 5t13 -20q-351 -463 -644 -582.5t-441 -119.5q-67 0 -121 36t-79 97q-5 15 -41 2.5t-64 -40.5t-38.5 -28t-0.5 10q77 133 144 284t164 407q-251 -369 -466 -560.5t-338 -197.5q-113 0 -113 118z" />
    <glyph glyph-name="ccedilla" unicode="&#xe7;" horiz-adv-x="1095" 
d="M476 -167q0 -23 26 -38t56 -31q82 -41 82 -97t-67 -107q-77 -67 -220 -165t-194 -102q-9 1 -25 11t-16 20t25 21q79 15 168 64q88 49 132 87q43 38 43 72t-25 53q-26 21 -57 39q-30 18 -56 38t-26 54q1 60 136 151q54 36 84 51l34 17q-20 -1 -38 -2q-282 0 -282 236
q0 92 41 194q97 241 274 428t381 274q61 26 103 25q189 0 189 -148q0 -77 -36 -118q-31 -31 -102 -87l-15 5q15 42 15 90t-38 94t-128 47q-90 0 -180 -64t-158 -169t-110 -241q-41 -135 -41 -261q1 -126 59 -180t145 -53q143 0 387 166t520 505q26 26 38 13t-13 -39
q-159 -200 -374 -386q-292 -258 -538 -314q-4 -3 -29 -11t-74 -37q-50 -30 -73 -56t-23 -49z" />
    <glyph glyph-name="egrave" unicode="&#xe8;" horiz-adv-x="1049" 
d="M630 655q148 -1 261 105t113 249q0 67 -67 66q-134 0 -307 -271q-46 -72 -77 -138q22 -11 77 -11zM1162 1034q0 -61 -38 -133q-85 -161 -310 -243q-118 -44 -282 -44q-26 -46 -56 -146t-31 -202q0 -210 190 -210q209 0 486 197q221 158 384 372q10 11 23 5t13 -21
q-206 -255 -468 -432q-316 -213 -592 -213q-241 0 -240 215q0 143 74 309t192 308q119 141 259 236q140 94 268 94t128 -92zM814 1954q0 22 20 50t31 29q15 0 28 -36q28 -77 106 -264t107 -305q0 -10 -8 -12t-18 7q-119 210 -193 359q-73 150 -73 172z" />
    <glyph glyph-name="eacute" unicode="&#xe9;" horiz-adv-x="1049" 
d="M630 655q148 -1 261 105t113 249q0 67 -67 66q-134 0 -307 -271q-46 -72 -77 -138q22 -11 77 -11zM1162 1034q0 -61 -38 -133q-85 -161 -310 -243q-118 -44 -282 -44q-26 -46 -56 -146t-31 -202q0 -210 190 -210q209 0 486 197q221 158 384 372q10 11 23 5t13 -21
q-206 -255 -468 -432q-316 -213 -592 -213q-241 0 -240 215q0 143 74 309t192 308q119 141 259 236q140 94 268 94t128 -92zM1684 2014q0 -12 -15 -27q-418 -322 -819 -589q-26 -16 -34 -8t3 18q599 488 799 645q20 10 28 10t23 -18q15 -19 15 -31z" />
    <glyph glyph-name="ecircumflex" unicode="&#xea;" horiz-adv-x="1049" 
d="M630 655q148 -1 261 105t113 249q0 67 -67 66q-134 0 -307 -271q-46 -72 -77 -138q22 -11 77 -11zM1162 1034q0 -61 -38 -133q-85 -161 -310 -243q-118 -44 -282 -44q-26 -46 -56 -146t-31 -202q0 -210 190 -210q209 0 486 197q221 158 384 372q10 11 23 5t13 -21
q-206 -255 -468 -432q-316 -213 -592 -213q-241 0 -240 215q0 143 74 309t192 308q119 141 259 236q140 94 268 94t128 -92zM1285 1408q0 152 -15 461q0 31 -20 31t-177 -159t-244 -256q-46 -57 -66 -57q-21 0 -21 28t46 65q183 162 301 280q119 119 160 157t71 56t37 19
q20 0 20 -26q5 -143 15 -277t11 -207q0 -75 -18 -87t-44 -38t-41 -26t-15 36z" />
    <glyph glyph-name="edieresis" unicode="&#xeb;" horiz-adv-x="1049" 
d="M630 655q148 -1 261 105t113 249q0 67 -67 66q-134 0 -307 -271q-46 -72 -77 -138q22 -11 77 -11zM1162 1034q0 -61 -38 -133q-85 -161 -310 -243q-118 -44 -282 -44q-26 -46 -56 -146t-31 -202q0 -210 190 -210q209 0 486 197q221 158 384 372q10 11 23 5t13 -21
q-206 -255 -468 -432q-316 -213 -592 -213q-241 0 -240 215q0 143 74 309t192 308q119 141 259 236q140 94 268 94t128 -92zM1126 1812q0 -61 -54 -122q-54 -62 -117 -62q-64 0 -64 64t49 126q50 61 118 61t68 -67zM1495 1782q0 -60 -54 -122q-53 -62 -117 -62t-64 64
t48 125q49 61 118 61t69 -66z" />
    <glyph glyph-name="igrave" unicode="&#xec;" horiz-adv-x="926" 
d="M666 1954q0 22 20 50t31 29q15 0 27 -36q24 -69 104 -260t109 -309q1 -10 -7 -12t-18 7q-119 210 -193 359q-73 150 -73 172zM568 72q178 0 469 235q120 97 223 205q102 108 158 184q26 26 28 14t-7 -39q-123 -159 -282 -302t-277 -221q-225 -149 -419 -148
q-97 0 -138 26t-64 58q-23 33 -23 95t68 216t189 351q121 196 162 252q26 42 90 70t87 28t23 -16q0 -27 -74 -135q-74 -109 -172 -307q-162 -329 -164 -449q0 -117 123 -117z" />
    <glyph glyph-name="iacute" unicode="&#xed;" horiz-adv-x="926" 
d="M1556 2014q0 -12 -15 -27q-418 -322 -819 -589q-26 -16 -34 -8t3 18q599 488 799 645q20 10 28 10t23 -18q15 -19 15 -31zM568 72q178 0 469 235q120 97 223 205q102 108 158 184q26 26 28 14t-7 -39q-123 -159 -282 -302t-277 -221q-225 -149 -419 -148q-97 0 -138 26
t-64 58q-23 33 -23 95t68 216t189 351q121 196 162 252q26 42 90 70t87 28t23 -16q0 -27 -74 -135q-74 -109 -172 -307q-162 -329 -164 -449q0 -117 123 -117z" />
    <glyph glyph-name="icircumflex" unicode="&#xee;" horiz-adv-x="926" 
d="M1111 1869q0 31 -21 31t-176 -159q-156 -159 -243 -256q-46 -56 -67 -57q-20 0 -20 28t46 65q161 143 291 271q129 128 187 182t90 59q20 0 21 -26q5 -143 15 -277t10 -207q0 -75 -18 -87t-43 -38q-26 -26 -41 -26t-16 36q0 152 -15 461zM568 72q178 0 469 235
q120 97 223 205q102 108 158 184q26 26 28 14t-7 -39q-123 -159 -282 -302t-277 -221q-225 -149 -419 -148q-97 0 -138 26t-64 58q-23 33 -23 95t68 216t189 351q121 196 162 252q26 42 90 70t87 28t23 -16q0 -27 -74 -135q-74 -109 -172 -307q-162 -329 -164 -449
q0 -117 123 -117z" />
    <glyph glyph-name="idieresis" unicode="&#xef;" horiz-adv-x="926" 
d="M937 1812q0 -61 -54 -122q-53 -62 -117 -62t-64 64t48 126q49 61 118 61t69 -67zM1306 1782q0 -60 -54 -122t-118 -62t-64 64t49 125t118 61t69 -66zM568 72q178 0 469 235q120 97 223 205q102 108 158 184q26 26 28 14t-7 -39q-123 -159 -282 -302t-277 -221
q-225 -149 -419 -148q-97 0 -138 26t-64 58q-23 33 -23 95t68 216t189 351q121 196 162 252q26 42 90 70t87 28t23 -16q0 -27 -74 -135q-74 -109 -172 -307q-162 -329 -164 -449q0 -117 123 -117z" />
    <glyph glyph-name="eth" unicode="&#xf0;" horiz-adv-x="1198" 
d="M410 154q0 -123 97 -123q108 0 215 110t191.5 271t138.5 350.5t54 343.5q0 66 -26 66q-138 -61 -261 -194t-212.5 -286.5t-143 -299.5t-53.5 -238zM174 2949q0 10 23 15.5t64.5 15.5t92.5 10t66 -15q233 -350 379 -640q249 55 399 107q41 15 41 -10q0 -15 -13 -35.5
t-38 -25.5q-164 -26 -369 -72q148 -292 266 -617t118 -623t-129 -573t-326 -409q-87 -56 -156.5 -79.5t-156.5 -23.5q-200 0 -199 190q0 113 64 266.5t176.5 304.5t263.5 279t325 189q26 10 26 56t-31 154t-127 329t-273 526q-272 -60 -348 -97q-56 -20 -25 15l46 57l307 61
q-190 319 -410 579q-20 26 -38 41t-18 25z" />
    <glyph glyph-name="ntilde" unicode="&#xf1;" horiz-adv-x="1341" 
d="M840 -67q-61 0 -113 18q-51 18 -51 90t63 207t194 361q132 226 178 333q10 26 3 44q-8 18 -34 2q-169 -109 -443 -368q-74 -72 -120 -128q-82 -128 -141 -236t-146 -241q-20 -31 -30 -30q-26 0 -44 56t-18 72q0 46 64 125t141 177q212 425 317 670q14 26 46 26t58 -26
t24 -51q0 -26 -74 -146t-146 -279q376 338 617 499q79 54 105 54t44 -23t18 -43t-26 -62q-290 -425 -420 -732q-51 -123 -51 -189q0 -65 26 -89q25 -24 97 -24q136 0 433 233q125 100 238 223t184 235q10 15 31 7t-5 -38q-332 -463 -745 -660q-141 -67 -274 -67zM1439 1510
q-72 0 -133 44q-62 44 -116 98t-105 96q-51 44 -99 44q-106 0 -251 -166q-33 -38 -57 -72t-43 -24q-20 10 18 62q79 106 263 251q66 51 128 51t116 -46t108 -100t112 -100q60 -46 136 -45q76 -1 130 71t54 154q0 26 23 38q23 13 23 -38q-15 -118 -102 -218t-205 -100z" />
    <glyph glyph-name="ograve" unicode="&#xf2;" horiz-adv-x="1280" 
d="M492 41q87 0 189 97q211 200 351 492q64 133 74 205q-19 85 -21 225q0 26 -20 25q-148 0 -364 -286q-140 -188 -233 -412q-54 -131 -48 -249q0 -36 13 -66t59 -31zM1454 563q-87 0 -171 44t-136 130q-239 -543 -599 -732q-92 -41 -154 -41q-184 0 -184 164q0 236 228 553
q153 212 356 333q138 82 297 97q10 41 30 95t72 64q76 15 94 25t34 3q15 -8 5 -28q-72 -112 -72 -333q0 -143 54 -235t187 -93q133 0 241 87t179 190q10 26 33 15t3 -31q-87 -118 -213 -212t-284 -95zM927 1954q0 22 20 50t31 29q16 0 28 -36q19 -55 101 -253
q83 -198 112 -316q0 -10 -8 -12t-18 7q-119 210 -193 359q-73 150 -73 172z" />
    <glyph glyph-name="oacute" unicode="&#xf3;" horiz-adv-x="1280" 
d="M492 41q87 0 189 97q211 200 351 492q64 133 74 205q-19 85 -21 225q0 26 -20 25q-148 0 -364 -286q-140 -188 -233 -412q-54 -131 -48 -249q0 -36 13 -66t59 -31zM1454 563q-87 0 -171 44t-136 130q-239 -543 -599 -732q-92 -41 -154 -41q-184 0 -184 164q0 236 228 553
q153 212 356 333q138 82 297 97q10 41 30 95t72 64q76 15 94 25t34 3q15 -8 5 -28q-72 -112 -72 -333q0 -143 54 -235t187 -93q133 0 241 87t179 190q10 26 33 15t3 -31q-87 -118 -213 -212t-284 -95zM1682 2063q8 0 22 -18q16 -19 16 -31t-15 -27q-418 -322 -819 -589
q-26 -16 -34 -8t3 18q599 488 799 645q20 10 28 10z" />
    <glyph glyph-name="ocircumflex" unicode="&#xf4;" horiz-adv-x="1280" 
d="M492 41q87 0 189 97q211 200 351 492q64 133 74 205q-19 85 -21 225q0 26 -20 25q-148 0 -364 -286q-140 -188 -233 -412q-54 -131 -48 -249q0 -36 13 -66t59 -31zM1454 563q-87 0 -171 44t-136 130q-239 -543 -599 -732q-92 -41 -154 -41q-184 0 -184 164q0 236 228 553
q153 212 356 333q138 82 297 97q10 41 30 95t72 64q76 15 94 25t34 3q15 -8 5 -28q-72 -112 -72 -333q0 -143 54 -235t187 -93q133 0 241 87t179 190q10 26 33 15t3 -31q-87 -118 -213 -212t-284 -95zM1439 1408q0 186 -16 461q0 31 -21 31t-176 -159q-156 -159 -243 -256
q-46 -56 -67 -57q-20 0 -20 28t46 65q183 162 301 280q119 119 160 157t71 56t36 19q20 0 21 -26q5 -143 15 -277t10 -207q0 -75 -18 -87t-43 -38q-26 -26 -41 -26t-15 36z" />
    <glyph glyph-name="otilde" unicode="&#xf5;" horiz-adv-x="1280" 
d="M492 41q87 0 189 97q211 200 351 492q64 133 74 205q-19 85 -21 225q0 26 -20 25q-148 0 -364 -286q-140 -188 -233 -412q-54 -131 -48 -249q0 -36 13 -66t59 -31zM1454 563q-87 0 -171 44t-136 130q-239 -543 -599 -732q-92 -41 -154 -41q-184 0 -184 164q0 236 228 553
q153 212 356 333q138 82 297 97q10 41 30 95t72 64q76 15 94 25t34 3q15 -8 5 -28q-72 -112 -72 -333q0 -143 54 -235t187 -93q133 0 241 87t179 190q10 26 33 15t3 -31q-87 -118 -213 -212t-284 -95zM1516 1510q-72 0 -134 44t-115 98q-54 54 -105 96q-52 44 -100 44
q-106 0 -250 -166q-32 -38 -56 -72t-44 -24t18 62q79 106 263 251q67 51 128 51t115 -46t108 -100t113 -100t135 -45q76 -1 131 71q54 72 54 154q0 26 23 38q23 13 23 -38q-15 -118 -103 -218t-204 -100z" />
    <glyph glyph-name="odieresis" unicode="&#xf6;" horiz-adv-x="1280" 
d="M492 41q87 0 189 97q211 200 351 492q64 133 74 205q-19 85 -21 225q0 26 -20 25q-148 0 -364 -286q-140 -188 -233 -412q-54 -131 -48 -249q0 -36 13 -66t59 -31zM1454 563q-87 0 -171 44t-136 130q-239 -543 -599 -732q-92 -41 -154 -41q-184 0 -184 164q0 236 228 553
q153 212 356 333q138 82 297 97q10 41 30 95t72 64q76 15 94 25t34 3q15 -8 5 -28q-72 -112 -72 -333q0 -143 54 -235t187 -93q133 0 241 87t179 190q10 26 33 15t3 -31q-87 -118 -213 -212t-284 -95zM1234 1812q0 -61 -54 -122q-54 -62 -118 -62t-64 64t49 126
q49 61 118 61t69 -67zM1603 1782q0 -60 -54 -122t-118 -62t-64 64t49 125t118 61t69 -66z" />
    <glyph glyph-name="divide" unicode="&#xf7;" horiz-adv-x="2048" 
d="M1068 169q-80 0 -80 64q0 33 33 71.5t77 38.5t56.5 -20.5t12.5 -54.5t-32.5 -66.5t-66.5 -32.5zM1130 599q342 0 657 15l-56 -107h-412t-607 41l82 102q151 -51 336 -51zM1490 850q0 -31 -33.5 -66.5t-74.5 -35.5q-72 0 -71 61q0 41 35.5 77t76.5 36t54 -20.5t13 -51.5z
" />
    <glyph glyph-name="oslash" unicode="&#xf8;" horiz-adv-x="1203" 
d="M512 36q108 0 210 92t181.5 225t128 279t48.5 254v20q-77 -87 -166.5 -192l-179 -210t-176.5 -204.5t-159 -186.5q20 -41 53.5 -59t59.5 -18zM998 1024q-51 0 -158.5 -61.5t-212.5 -176.5t-179 -273.5t-64 -358.5q272 310 443 510.5t248 282.5q-15 77 -77 77zM450 -26
q-82 0 -138 36q-51 -51 -89.5 -99.5t-68.5 -84.5q-26 -26 -39 -15.5t13 51.5l159 189q-31 56 -31 125t25 168.5t79 197.5t167 210.5t303 235.5t228 141t48 18t26 -15q26 -51 46 -72q41 51 94.5 112.5t79 92t38.5 20.5t-13 -46q-31 -36 -82 -92t-92 -108q56 -46 143.5 -61
t251.5 -15t322 46q20 0 23 -8t-23 -18q-161 -51 -387.5 -51t-334.5 15q-37 -436 -389 -788q-195 -185 -359 -185z" />
    <glyph glyph-name="ugrave" unicode="&#xf9;" 
d="M205 133q1 85 67 230q117 253 368 687q26 51 46 51q36 0 74 -44t38 -59q0 -16 -56 -100q-226 -338 -340 -629q-33 -84 -33 -131q-1 -77 53 -77q54 -1 144 79t212 270q46 82 95 172t95 171q46 82 87 151t61 105q26 36 41 35q20 0 46 -44t26 -94q0 -51 -21 -87
q-61 -92 -130 -182q-69 -91 -128 -187q-141 -231 -141 -440q0 -113 107 -112q142 0 393 207t478 535q31 10 31 -26q-207 -292 -451 -506q-295 -260 -512 -262q-87 0 -136 46t-49 146t57 233q-31 -37 -69 -85t-87 -91q-111 -100 -231 -100q-136 0 -135 138zM840 1954
q0 22 20 50t31 29q15 0 27 -36q19 -55 102 -253t112 -316q0 -10 -8 -12t-18 7q-119 210 -193 359q-73 150 -73 172z" />
    <glyph glyph-name="uacute" unicode="&#xfa;" 
d="M205 133q1 85 67 230q117 253 368 687q26 51 46 51q36 0 74 -44t38 -59q0 -16 -56 -100q-226 -338 -340 -629q-33 -84 -33 -131q-1 -77 53 -77q54 -1 144 79t212 270q46 82 95 172t95 171q46 82 87 151t61 105q26 36 41 35q20 0 46 -44t26 -94q0 -51 -21 -87
q-61 -92 -130 -182q-69 -91 -128 -187q-141 -231 -141 -440q0 -113 107 -112q142 0 393 207t478 535q31 10 31 -26q-207 -292 -451 -506q-295 -260 -512 -262q-87 0 -136 46t-49 146t57 233q-31 -37 -69 -85t-87 -91q-111 -100 -231 -100q-136 0 -135 138zM1743 2063
q7 0 23 -18q16 -19 16 -31t-16 -27q-430 -331 -819 -589q-25 -16 -33 -8t2 18q599 488 799 645q20 10 28 10z" />
    <glyph glyph-name="ucircumflex" unicode="&#xfb;" 
d="M205 133q1 85 67 230q117 253 368 687q26 51 46 51q36 0 74 -44t38 -59q0 -16 -56 -100q-226 -338 -340 -629q-33 -84 -33 -131q-1 -77 53 -77q54 -1 144 79t212 270q46 82 95 172t95 171q46 82 87 151t61 105q26 36 41 35q20 0 46 -44t26 -94q0 -51 -21 -87
q-61 -92 -130 -182q-69 -91 -128 -187q-141 -231 -141 -440q0 -113 107 -112q142 0 393 207t478 535q31 10 31 -26q-207 -292 -451 -506q-295 -260 -512 -262q-87 0 -136 46t-49 146t57 233q-31 -37 -69 -85t-87 -91q-111 -100 -231 -100q-136 0 -135 138zM1352 1408
q0 186 -16 461q0 31 -21 31t-176 -159q-156 -159 -243 -256q-46 -56 -67 -57q-20 0 -20 28t46 65q161 143 291 271q129 128 170 166q42 38 72 56t35 19q20 0 21 -26q5 -143 15 -277t10 -207q1 -75 -17 -87t-44 -38t-41 -26t-15 36z" />
    <glyph glyph-name="udieresis" unicode="&#xfc;" 
d="M205 133q1 85 67 230q117 253 368 687q26 51 46 51q36 0 74 -44t38 -59q0 -16 -56 -100q-226 -338 -340 -629q-33 -84 -33 -131q-1 -77 53 -77q54 -1 144 79t212 270q46 82 95 172t95 171q46 82 87 151t61 105q26 36 41 35q20 0 46 -44t26 -94q0 -51 -21 -87
q-61 -92 -130 -182q-69 -91 -128 -187q-141 -231 -141 -440q0 -113 107 -112q142 0 393 207t478 535q31 10 31 -26q-207 -292 -451 -506q-295 -260 -512 -262q-87 0 -136 46t-49 146t57 233q-31 -37 -69 -85t-87 -91q-111 -100 -231 -100q-136 0 -135 138zM1193 1812
q0 -61 -54 -122q-53 -62 -117 -62t-64 64t48 126q49 61 118 61t69 -67zM1562 1782q0 -60 -54 -122t-118 -62t-64 64t49 125t118 61t69 -66z" />
    <glyph glyph-name="yacute" unicode="&#xfd;" horiz-adv-x="1162" 
d="M343 56q-169 0 -169 123q0 103 126 305t304 479q33 43 62 61q111 21 126 21q16 -1 17 -16q-183 -323 -309 -525t-126 -315q0 -61 56 -61q80 0 241 110q41 28 61 54q46 46 136 218q248 472 317 570q70 98 105 98q20 -10 38 -52t19 -72q0 -61 -320 -491q-84 -113 -162 -210
q-184 -281 -371 -581q-429 -688 -765 -1106q-418 -518 -853 -724q-228 -108 -479 -108q-148 0 -266 72t-118 251q0 88 26 153q5 15 15 21q10 5 11 -15q0 -138 102 -251t364 -113q386 0 821 384q197 174 382 404q466 583 962 1465q10 20 0 15q-10 -4 -40 -30t-128 -80
t-185 -54zM1840 2063q8 0 24 -18q16 -19 15 -31q0 -12 -15 -27q-424 -327 -820 -589q-26 -16 -34 -8t4 18q598 488 798 645q20 10 28 10z" />
    <glyph glyph-name="thorn" unicode="&#xfe;" horiz-adv-x="1126" 
d="M1039 978q0 20 -7.5 51t-43.5 31q-64 0 -217 -129.5t-273 -300.5q-120 -170 -329 -548q169 46 325 161t276.5 248.5t194.5 269t74 217.5zM1080 1213q103 0 136 -30.5t33 -92.5t-51 -176.5t-161 -255.5t-289.5 -289.5t-440.5 -271.5q138 15 309.5 48.5t477 165
t596.5 513.5q5 10 17.5 8t12.5 -28q-271 -343 -617 -529t-612 -230.5t-373 -64.5q-61 -108 -345.5 -601t-392.5 -695q-24 -49 -167 -96.5t-498 -123.5q-26 -5 -26 10.5t16 25.5q159 51 276.5 107.5t240.5 189.5q181 192 451.5 603t367.5 574q-26 10 -31 25.5t-5 36.5
q0 31 33.5 36t53.5 10l236 384q480 779 901 1587q36 67 36 133q0 128 -180 128q-72 0 -169 -20q-26 -5 -25 10q0 20 33 28t100 20.5t138.5 23t138 18t102.5 7.5t69 -30.5t33 -91.5t-36 -129q-72 -123 -189.5 -307t-237.5 -373.5t-225 -353.5t-157 -251q317 348 420 348z" />
    <glyph glyph-name="ydieresis" unicode="&#xff;" horiz-adv-x="1162" 
d="M343 56q-169 0 -169 123q0 103 126 305t304 479q33 43 62 61q111 21 126 21q16 -1 17 -16q-183 -323 -309 -525t-126 -315q0 -61 56 -61q80 0 241 110q41 28 61 54q46 46 136 218q248 472 317 570q70 98 105 98q20 -10 38 -52t19 -72q0 -61 -320 -491q-84 -113 -162 -210
q-184 -281 -371 -581q-429 -688 -765 -1106q-418 -518 -853 -724q-228 -108 -479 -108q-148 0 -266 72t-118 251q0 88 26 153q5 15 15 21q10 5 11 -15q0 -138 102 -251t364 -113q386 0 821 384q197 174 382 404q466 583 962 1465q10 20 0 15q-10 -4 -40 -30t-128 -80
t-185 -54zM1142 1812q0 -61 -54 -122q-54 -62 -118 -62t-64 64t49 126q49 61 118 61t69 -67zM1510 1782q0 -61 -53 -123q-54 -61 -118 -61t-64 64t49 125q50 61 118 61t68 -66z" />
    <glyph glyph-name="Amacron" unicode="&#x100;" horiz-adv-x="2718" 
d="M2990 2662l-450 -10l25 77l440 10zM2237 764q0 55 -53 114q-54 59 -141 82t-436 23q-350 0 -470 15q-389 -353 -653 -645t-397 -486q-41 -67 -59 -121t-28 -140q-10 -31 -31 -16l-30 256q5 92 69 166t171 177q983 917 1587 1447t774 648q40 26 122 46t113 51t33 7t-7 -43
q-51 -77 -82 -177t-39 -143t-49 -251q-42 -208 -87 -474t-87 -505t-61 -452q0 -155 62 -207q56 -48 154 -26q36 8 76 18q41 10 44 -5t-28 -23q-93 -24 -224 -63t-243 -63q-77 0 -102 103q102 632 102 687zM1802 1024q340 0 410 -15q51 -15 59 -13t18 38q35 179 111 617
t85 472q8 33 -2 35t-38 -18t-100 -79q-855 -701 -1085 -965q12 -72 389 -72h153z" />
    <glyph glyph-name="amacron" unicode="&#x101;" horiz-adv-x="1459" 
d="M328 108q0 -41 30 -41q61 0 243 153q181 153 321 359q82 123 158 261q77 138 139 245l-6 6q-175 0 -333 -123q-158 -124 -281 -290t-197 -330t-74 -240zM1382 1121q180 -1 180 -41q0 -16 -16 -15q-62 20 -184 20q-236 -415 -346 -657t-110 -361q0 -46 23 -77t100 -31
q235 0 694 466q136 138 258 292q11 15 21 7t10 -23q-275 -334 -543 -553q-316 -261 -542 -261q-101 -1 -143 51t-42 126t44 195q44 120 130 258q-270 -351 -517 -494q-92 -54 -163 -54q-108 0 -108 113t92 292t248 345q156 167 356 287t415 120q40 78 87 103l143 41l11 -5
q-26 -26 -49 -64t-49 -80zM1464 1638l-450 -10l25 77l441 10z" />
    <glyph glyph-name="Abreve" unicode="&#x102;" horiz-adv-x="2718" 
d="M2237 764q0 55 -53 114q-54 59 -141 82t-436 23q-350 0 -470 15q-389 -353 -653 -645t-397 -486q-41 -67 -59 -121t-28 -140q-10 -31 -31 -16l-30 256q5 92 69 166t171 177q983 917 1587 1447t774 648q40 26 122 46t113 51t33 7t-7 -43q-51 -77 -82 -177t-39 -143
t-49 -251q-42 -208 -87 -474t-87 -505t-61 -452q0 -155 62 -207q56 -48 154 -26q36 8 76 18q41 10 44 -5t-28 -23q-93 -24 -224 -63t-243 -63q-77 0 -102 103q102 632 102 687zM1802 1024q340 0 410 -15q51 -15 59 -13t18 38q35 179 111 617t85 472q8 33 -2 35t-38 -18
t-100 -79q-855 -701 -1085 -965q12 -72 389 -72h153zM3149 2890q0 -12 -13 -25t-28 -39q-88 -113 -190 -164t-202 -51t-172 67t-71 189q0 36 31 54t61 18q20 0 21 -31q0 -97 48 -161t136 -64q182 0 297 179q36 62 56 62q10 0 18 -10q8 -12 8 -24z" />
    <glyph glyph-name="abreve" unicode="&#x103;" horiz-adv-x="1459" 
d="M328 108q0 -41 30 -41q61 0 243 153q181 153 321 359q82 123 158 261q77 138 139 245l-6 6q-175 0 -333 -123q-158 -124 -281 -290t-197 -330t-74 -240zM1382 1121q180 -1 180 -41q0 -16 -16 -15q-62 20 -184 20q-236 -415 -346 -657t-110 -361q0 -46 23 -77t100 -31
q235 0 694 466q136 138 258 292q11 15 21 7t10 -23q-275 -334 -543 -553q-316 -261 -542 -261q-101 -1 -143 51t-42 126t44 195q44 120 130 258q-270 -351 -517 -494q-92 -54 -163 -54q-108 0 -108 113t92 292t248 345q156 167 356 287t415 120q40 78 87 103l143 41l11 -5
q-26 -26 -49 -64t-49 -80zM1690 1764q0 -12 -13 -26q-13 -13 -28 -38q-87 -113 -189 -164t-203 -51q-100 1 -172 67t-71 189q0 36 30 54q31 18 62 17q20 0 20 -30q0 -98 49 -162t136 -64q181 0 297 180q36 61 56 61q10 -1 18 -11t8 -22z" />
    <glyph glyph-name="Aogonek" unicode="&#x104;" horiz-adv-x="2718" 
d="M2140 -302q0 -82 51 -123t123 -41l62 10q15 0 10 -12t-64 -28q-59 -15 -143 -16q-85 0 -144 41t-59 115q0 111 208 251q83 57 185 110l-132 -31q-77 0 -102 103q102 632 102 687t-53 114q-54 59 -141 82t-436 23q-350 0 -470 15q-389 -353 -653 -645t-397 -486
q-41 -67 -59 -121t-28 -140q-10 -31 -31 -16l-30 256q5 92 69 166t171 177q983 917 1587 1447t774 648q40 26 122 46t113 51t33 7t-7 -43q-51 -77 -82 -177t-39 -143t-49 -251q-42 -208 -87 -474t-87 -505t-61 -452q0 -155 62 -207q56 -48 154 -26q36 8 76 18q41 10 44 -5
t-33 -24t-181 -51q-3 -8 -19 -12q-159 -56 -259 -156t-100 -182zM1802 1024q340 0 410 -15q51 -15 59 -13t18 38q35 179 111 617t85 472q8 33 -2 35t-38 -18t-100 -79q-855 -701 -1085 -965q12 -72 389 -72h153z" />
    <glyph glyph-name="aogonek" unicode="&#x105;" horiz-adv-x="1459" 
d="M328 108q0 -41 30 -41q61 0 243 153q181 153 321 359q82 123 158 261q77 138 139 245l-6 6q-175 0 -333 -123q-158 -124 -281 -290t-197 -330t-74 -240zM1382 1121q180 -1 180 -41q0 -16 -16 -15q-62 20 -184 20q-236 -415 -346 -657t-110 -361q0 -46 23 -77t100 -31
q235 0 694 466q136 138 258 292q11 15 21 7t10 -23q-275 -334 -543 -553q-316 -261 -542 -261q-21 0 -40 3q-135 -54 -229 -148t-95 -177q0 -82 51 -123t123 -41l62 10q15 0 9 -15t-69 -28t-142 -13t-139 41q-59 41 -59 107q0 174 445 396q-38 13 -70 52t-32 113t44 195
q44 120 130 258q-270 -351 -517 -494q-92 -54 -163 -54q-108 0 -108 113t92 292t248 345q156 167 356 287t415 120q40 78 87 103l143 41l11 -5q-26 -26 -49 -64t-49 -80z" />
    <glyph glyph-name="Cacute" unicode="&#x106;" horiz-adv-x="2641" 
d="M788 410q0 -420 538 -420q430 0 783 228t671 663q15 20 26 20q20 -1 20 -57t-13 -84t-28 -53q-237 -353 -623 -555t-846 -203q-528 0 -691 310q-61 115 -61 299t73 390q142 393 459 749q317 357 701 502q225 85 440 85q469 1 763 -175q41 -20 41 -61q-36 -61 -92 -192
t-92 -233l-46 -15q28 72 26 161q-3 205 -121 320q-152 148 -484 148q-148 -1 -276 -59t-248 -145t-282 -267q-160 -180 -304 -402q-144 -223 -239 -471t-95 -483zM3159 3090q0 -12 -15 -28q-424 -327 -820 -589q-26 -15 -34 -7t4 17q598 488 798 645q20 10 28 10t24 -17
q15 -19 15 -31z" />
    <glyph glyph-name="cacute" unicode="&#x107;" horiz-adv-x="1095" 
d="M256 205q0 92 41 194q97 241 274 428t381 274q61 26 103 25q189 0 189 -148q0 -77 -36 -118q-31 -31 -102 -87l-15 5q15 42 15 90t-38 94t-128 47q-90 0 -180 -64t-158 -169t-110 -241q-41 -135 -41 -261q1 -126 59 -180t145 -53q143 0 387 166t520 505q26 26 38 13
t-13 -39q-159 -200 -374 -386q-375 -331 -666 -331t-291 236zM1738 2063q8 0 24 -18q16 -19 15 -31q0 -12 -16 -27q-430 -331 -819 -589q-26 -16 -34 -8t3 18q599 488 799 645q20 10 28 10z" />
    <glyph glyph-name="Ccircumflex" unicode="&#x108;" horiz-adv-x="2641" 
d="M788 410q0 -420 538 -420q430 0 783 228t671 663q15 20 26 20q20 -1 20 -57t-13 -84t-28 -53q-237 -353 -623 -555t-846 -203q-528 0 -691 310q-61 115 -61 299t73 390q142 393 459 749q317 357 701 502q225 85 440 85q469 1 763 -175q41 -20 41 -61q-36 -61 -92 -192
t-92 -233l-46 -15q28 72 26 161q-3 205 -121 320q-152 148 -484 148q-148 -1 -276 -59t-248 -145t-282 -267q-160 -180 -304 -402q-144 -223 -239 -471t-95 -483zM2714 2534q0 135 -16 461q0 31 -22 31t-176 -159q-155 -159 -242 -256q-46 -56 -66 -56t-21 28q0 28 46 64
q161 143 291 271q129 128 170 166q42 38 72 57q30 18 35 18q20 0 21 -26q5 -143 15 -276t10 -207q1 -74 -17 -87t-44 -39q-56 -56 -56 10z" />
    <glyph glyph-name="ccircumflex" unicode="&#x109;" horiz-adv-x="1095" 
d="M256 205q0 92 41 194q97 241 274 428t381 274q61 26 103 25q189 0 189 -148q0 -77 -36 -118q-31 -31 -102 -87l-15 5q15 42 15 90t-38 94t-128 47q-90 0 -180 -64t-158 -169t-110 -241q-41 -135 -41 -261q1 -126 59 -180t145 -53q143 0 387 166t520 505q26 26 38 13
t-13 -39q-159 -200 -374 -386q-375 -331 -666 -331t-291 236zM1316 1408q0 186 -16 461q0 31 -21 31t-176 -159q-156 -159 -243 -256q-46 -57 -66 -57t-20 28t45 65q183 162 301 280q119 119 160 157q42 38 72 56t36 19q20 0 20 -26q6 -143 16 -277t10 -207q0 -75 -18 -87
t-44 -38t-41 -26t-15 36z" />
    <glyph glyph-name="Cdotaccent" unicode="&#x10a;" horiz-adv-x="2641" 
d="M788 410q0 -420 538 -420q430 0 783 228t671 663q15 20 26 20q20 -1 20 -57t-13 -84t-28 -53q-237 -353 -623 -555t-846 -203q-528 0 -691 310q-61 115 -61 299t73 390q142 393 459 749q317 357 701 502q225 85 440 85q469 1 763 -175q41 -20 41 -61q-36 -61 -92 -192
t-92 -233l-46 -15q28 72 26 161q-3 205 -121 320q-152 148 -484 148q-148 -1 -276 -59t-248 -145t-282 -267q-160 -180 -304 -402q-144 -223 -239 -471t-95 -483zM2434 2765q54 1 82 -15t29 -70t-51 -102q-52 -49 -108 -49q-82 0 -82 92q0 56 38 100t92 44z" />
    <glyph glyph-name="cdotaccent" unicode="&#x10b;" horiz-adv-x="1095" 
d="M256 205q0 92 41 194q97 241 274 428t381 274q61 26 103 25q189 0 189 -148q0 -77 -36 -118q-31 -31 -102 -87l-15 5q15 42 15 90t-38 94t-128 47q-90 0 -180 -64t-158 -169t-110 -241q-41 -135 -41 -261q1 -126 59 -180t145 -53q143 0 387 166t520 505q26 26 38 13
t-13 -39q-159 -200 -374 -386q-375 -331 -666 -331t-291 236zM1093 1792q54 0 82 -16t28 -68q0 -54 -51 -103t-108 -49q-82 0 -81 93q0 55 38 99t92 44z" />
    <glyph glyph-name="Ccaron" unicode="&#x10c;" horiz-adv-x="2641" 
d="M788 410q0 -420 538 -420q430 0 783 228t671 663q15 20 26 20q20 -1 20 -57t-13 -84t-28 -53q-237 -353 -623 -555t-846 -203q-528 0 -691 310q-61 115 -61 299t73 390q142 393 459 749q317 357 701 502q225 85 440 85q469 1 763 -175q41 -20 41 -61q-36 -61 -92 -192
t-92 -233l-46 -15q28 72 26 161q-3 205 -121 320q-152 148 -484 148q-148 -1 -276 -59t-248 -145t-282 -267q-160 -180 -304 -402q-144 -223 -239 -471t-95 -483zM2447 2662q10 0 26 16q97 82 207 197t182 202q46 61 67 62q9 0 17 -13t8 -23q0 -31 -41 -62
q-168 -142 -351 -325q-182 -182 -212 -182t-31 26q1 73 -17 241t-18 266q0 41 25 61q10 10 46 36q37 26 49 26t13 -36l5 -271l5 -190q0 -31 20 -31z" />
    <glyph glyph-name="ccaron" unicode="&#x10d;" horiz-adv-x="1095" 
d="M256 205q0 92 41 194q97 241 274 428t381 274q61 26 103 25q189 0 189 -148q0 -77 -36 -118q-31 -31 -102 -87l-15 5q15 42 15 90t-38 94t-128 47q-90 0 -180 -64t-158 -169t-110 -241q-41 -135 -41 -261q1 -126 59 -180t145 -53q143 0 387 166t520 505q26 26 38 13
t-13 -39q-159 -200 -374 -386q-375 -331 -666 -331t-291 236zM1142 1536q10 0 25 15q97 82 208 197q111 116 169 190t74 74t23 -13q8 -13 8 -23q0 -31 -41 -61q-162 -137 -347 -322t-217 -185t-30 28q1 63 -18 240q-18 176 -18 264q0 41 26 62q10 10 46 36t46 25
q15 0 15 -35l5 -272l5 -189q0 -31 21 -31z" />
    <glyph glyph-name="Dcaron" unicode="&#x10e;" horiz-adv-x="2933" 
d="M809 2217q0 72 26 72q10 0 79 -31t151 -31q205 0 486 26q128 5 251 10t287 5t361 -26q420 -54 609 -319q100 -141 100 -364t-79 -441q-160 -441 -523 -754q-465 -405 -1195 -405q-174 0 -333 23t-312 105q-51 26 -89 26t-116 -36q-77 -36 -148 -92l-31 25
q117 125 210 297q52 86 226 386q173 301 288 508t269 476t261 499q0 22 -41 26q-164 0 -322 -31t-323 -36q-92 0 -92 82zM2893 1582q0 429 -446 579q-169 56 -435 56q-56 0 -94 -5t-70 -56q-374 -585 -824 -1421q-239 -444 -240 -482t30 -69q87 -92 238 -138t310 -46
q312 0 588 123t487 335q210 212 333 502t123 622zM2371 2606q10 0 25 15q98 81 208 197t181 203q45 61 61 61t24 -13t7 -23q0 -31 -41 -61q-151 -127 -342 -317q-192 -190 -222 -190t-29 26q0 50 -18 238q-18 189 -18 249q0 61 25 81q10 10 46 36t46 25q15 0 16 -35l5 -272
l5 -189q0 -31 21 -31z" />
    <glyph glyph-name="dcaron" unicode="&#x10f;" horiz-adv-x="1377" 
d="M317 143q1 -25 21 -35t31 -11q37 0 131 77q94 78 209 208q291 330 453 673q-196 -5 -300 -75t-186 -171q-195 -241 -277 -413t-82 -253zM3359 3461q133 -1 133 -59q0 -28 -31 -59t-41 -87q-10 -36 -36 -36q-15 0 -30 8t-57 26t-131 18q-190 0 -334 -92t-310 -262
t-305 -368q-645 -926 -1034 -1685q-174 -338 -261 -576q-87 -237 -87 -337q0 -212 163 -213q138 0 264 87q249 172 443 507q92 159 159 297q10 20 33 15t-3 -41q-323 -646 -658 -840q-126 -72 -256 -72t-197 75q-126 139 -18 456q49 141 151 345q-296 -360 -443 -479
q-147 -120 -231 -120q-84 1 -110 39q-49 74 1 220q26 74 72 146q189 307 422 502t576 256q246 430 471 773t492 670q220 277 438 487t448 317q174 82 307 82zM2478 2086q0 -281 -310 -624q-84 -95 -171 -187q-20 -20 -39 -5q-18 15 3 36q61 68 125 134t118 138
q120 159 120 357q0 134 -46 197q-15 24 -30 34q-16 10 -16 36t108 133q15 15 31 15q31 0 69 -77t38 -187z" />
    <glyph glyph-name="Dcroat" unicode="&#x110;" horiz-adv-x="2933" 
d="M1739 1188q125 0 145.5 -5t20.5 -46t-21 -41q-26 20 -233.5 20t-421.5 -10q-241 -432 -425 -799q-20 -41 -20 -67t30 -56q87 -92 238 -138t310 -46q312 0 588.5 123t486.5 335.5t333 501.5t123 622q0 429 -307.5 532t-573.5 103q-56 0 -94.5 -5t-69.5 -56
q-272 -429 -583 -978q349 10 474 10zM809 2217q0 72 26 72q10 0 79 -31t151 -31q208 0 486 26q128 5 251 10t287 5t361 -25.5t353 -102.5t256 -217.5t100 -363.5t-79.5 -440.5t-212.5 -409.5t-454 -471t-1051 -279q-174 0 -333 23t-312 105q-51 26 -89 26t-115.5 -36
t-148.5 -92l-31 25q113 121 201 280t230.5 402.5t233.5 408.5q-67 0 -148.5 -10.5t-137.5 -10.5q-82 0 -82 87q0 10 10 10.5t87 -10t287 -0.5h25q87 154 286.5 506.5t261.5 502.5q0 26 -41 26q-164 0 -322.5 -31t-322.5 -36q-92 0 -92 82z" />
    <glyph glyph-name="dcroat.2" unicode="&#x111;" horiz-adv-x="1131" 
d="M379 154q0 -123 97 -123q108 0 218 97t197 243t143.5 320t56.5 328q0 66 -26 66q-113 -36 -235.5 -153.5t-222.5 -258.5t-164 -284t-64 -235zM1142 1032q0 -304 -115.5 -563t-309.5 -392q-87 -56 -156 -79.5t-157 -23.5q-200 0 -199 190q0 113 66.5 253.5t181.5 273.5
t271.5 248.5t330.5 176.5q26 10 25.5 46t-26 166.5t-91.5 340.5q-354 -25 -512 -51q-41 -10 -41 15q0 31 25 41q42 24 226 32.5t286 13.5q-223 708 -650 1475q-31 56 -31 100t13 95t33 76q5 0 16 -10q193 -300 396.5 -766t325.5 -959q138 0 250.5 7.5t168.5 7.5q36 0 26 -31
t-36 -31h-67q-66 0 -189 -5t-143 -5q82 -338 82 -642z" />
    <glyph glyph-name="Emacron" unicode="&#x112;" horiz-adv-x="2432" 
d="M1769 1152h-341q-108 0 -204 -5q-41 0 -57 -31q-234 -415 -332 -650q-51 -118 -52 -210q0 -241 364 -241q321 0 743 95q421 95 603 233q20 10 21 -20q-45 -37 -108 -134q-36 -67 -154 -95q-165 -39 -522 -87q-563 -75 -947 -35q-232 24 -286 107q-26 38 -26 110t56 175
q20 36 110 188t210 368q120 217 121 222q0 15 -16 20t-56 5q-41 0 -41 16q0 36 61 46q118 15 175 123q20 36 113 202t203 378q109 214 109 234t-31 20q-385 0 -579 -51l-10 5q10 87 41 118q495 -31 1025 -11q530 21 793 21q31 0 30 -25q-10 -26 -41 -80t-56 -110l-20 5
q0 31 -13 57t-28 30q-281 46 -712 46q-82 0 -123 -51q-222 -296 -543 -870q-20 -46 31 -46q72 -5 144 -5h148q236 1 412 13t356 53l15 -15q-35 -69 -51 -108q-5 -20 -41 -20q-266 10 -494 10zM2340 2611l-451 -10l26 77l440 10z" />
    <glyph glyph-name="emacron" unicode="&#x113;" horiz-adv-x="1049" 
d="M630 655q148 -1 261 105t113 249q0 67 -67 66q-134 0 -307 -271q-46 -72 -77 -138q22 -11 77 -11zM1162 1034q0 -61 -38 -133q-85 -161 -310 -243q-118 -44 -282 -44q-26 -46 -56 -146t-31 -202q0 -210 190 -210q209 0 486 197q221 158 384 372q10 11 23 5t13 -21
q-206 -255 -468 -432q-316 -213 -592 -213q-241 0 -240 215q0 143 74 309t192 308q119 141 259 236q140 94 268 94t128 -92zM1295 1638l-450 -10l25 77l441 10z" />
    <glyph glyph-name="Ebreve" unicode="&#x114;" horiz-adv-x="2432" 
d="M1769 1152h-341q-108 0 -204 -5q-41 0 -57 -31q-234 -415 -332 -650q-51 -118 -52 -210q0 -241 364 -241q321 0 743 95q421 95 603 233q20 10 21 -20q-45 -37 -108 -134q-36 -67 -154 -95q-165 -39 -522 -87q-563 -75 -947 -35q-232 24 -286 107q-26 38 -26 110t56 175
q20 36 110 188t210 368q120 217 121 222q0 15 -16 20t-56 5q-41 0 -41 16q0 36 61 46q118 15 175 123q20 36 113 202t203 378q109 214 109 234t-31 20q-385 0 -579 -51l-10 5q10 87 41 118q495 -31 1025 -11q530 21 793 21q31 0 30 -25q-10 -26 -41 -80t-56 -110l-20 5
q0 31 -13 57t-28 30q-281 46 -712 46q-82 0 -123 -51q-222 -296 -543 -870q-20 -46 31 -46q72 -5 144 -5h148q236 1 412 13t356 53l15 -15q-35 -69 -51 -108q-5 -20 -41 -20q-266 10 -494 10zM2540 2872q10 0 18 -10t7 -22q0 -12 -13 -26t-28 -39q-87 -113 -189 -164
q-103 -51 -203 -51t-172 67t-71 189q0 36 31 54t61 18q20 0 21 -31q0 -97 49 -161t136 -64q181 0 296 179q36 61 57 61z" />
    <glyph glyph-name="ebreve" unicode="&#x115;" horiz-adv-x="1049" 
d="M630 655q148 -1 261 105t113 249q0 67 -67 66q-134 0 -307 -271q-46 -72 -77 -138q22 -11 77 -11zM1162 1034q0 -61 -38 -133q-85 -161 -310 -243q-118 -44 -282 -44q-26 -46 -56 -146t-31 -202q0 -210 190 -210q209 0 486 197q221 158 384 372q10 11 23 5t13 -21
q-206 -255 -468 -432q-316 -213 -592 -213q-241 0 -240 215q0 143 74 309t192 308q119 141 259 236q140 94 268 94t128 -92zM1434 1764q0 -12 -13 -26q-13 -13 -28 -38q-87 -113 -189 -164t-203 -51q-100 1 -172 67t-71 189q0 36 30 54q31 18 62 17q20 0 20 -30
q0 -98 49 -162t136 -64q181 0 297 180q36 61 56 61q10 -1 18 -11t8 -22z" />
    <glyph glyph-name="Edotaccent" unicode="&#x116;" horiz-adv-x="2432" 
d="M1769 1152h-341q-108 0 -204 -5q-41 0 -57 -31q-234 -415 -332 -650q-51 -118 -52 -210q0 -241 364 -241q321 0 743 95q421 95 603 233q20 10 21 -20q-45 -37 -108 -134q-36 -67 -154 -95q-165 -39 -522 -87q-563 -75 -947 -35q-232 24 -286 107q-26 38 -26 110t56 175
q20 36 110 188t210 368q120 217 121 222q0 15 -16 20t-56 5q-41 0 -41 16q0 36 61 46q118 15 175 123q20 36 113 202t203 378q109 214 109 234t-31 20q-385 0 -579 -51l-10 5q10 87 41 118q495 -31 1025 -11q530 21 793 21q31 0 30 -25q-10 -26 -41 -80t-56 -110l-20 5
q0 31 -13 57t-28 30q-281 46 -712 46q-82 0 -123 -51q-222 -296 -543 -870q-20 -46 31 -46q72 -5 144 -5h148q236 1 412 13t356 53l15 -15q-35 -69 -51 -108q-5 -20 -41 -20q-266 10 -494 10zM2068 2673q0 55 38 99t93 44q54 0 82 -16t28 -68q0 -54 -51 -103t-108 -49
q-82 0 -82 93z" />
    <glyph glyph-name="edotaccent" unicode="&#x117;" horiz-adv-x="1049" 
d="M630 655q148 -1 261 105t113 249q0 67 -67 66q-134 0 -307 -271q-46 -72 -77 -138q22 -11 77 -11zM1162 1034q0 -61 -38 -133q-85 -161 -310 -243q-118 -44 -282 -44q-26 -46 -56 -146t-31 -202q0 -210 190 -210q209 0 486 197q221 158 384 372q10 11 23 5t13 -21
q-206 -255 -468 -432q-316 -213 -592 -213q-241 0 -240 215q0 143 74 309t192 308q119 141 259 236q140 94 268 94t128 -92zM1024 1649q0 55 38 99t92 44t82 -16t29 -68q1 -54 -51 -103t-108 -49q-82 0 -82 93z" />
    <glyph glyph-name="Eogonek" unicode="&#x118;" horiz-adv-x="2432" 
d="M1769 1152h-341q-108 0 -204 -5q-41 0 -57 -31q-234 -415 -332 -650q-51 -118 -52 -210q0 -241 364 -241q321 0 743 95q421 95 603 233q20 10 21 -20q-45 -37 -108 -134q-36 -67 -143 -92q-68 -16 -113 -25q-158 -56 -258 -156t-100 -182t51 -123t123 -41l62 10
q15 0 9 -15t-69 -28q-64 -13 -143 -13t-138 41t-59 115q0 111 208 251q69 47 207 122q-101 -18 -386 -56t-518 -38t-356 13q-232 24 -286 107q-26 38 -26 110t56 175q20 36 110 188t210 368q120 217 121 222q0 15 -16 20t-56 5q-41 0 -41 16q0 36 61 46q118 15 175 123
q20 36 113 202t203 378q109 214 109 234t-31 20q-385 0 -579 -51l-10 5q10 87 41 118q495 -31 1025 -11q530 21 793 21q31 0 30 -25q-10 -26 -41 -80t-56 -110l-20 5q0 31 -13 57t-28 30q-281 46 -712 46q-82 0 -123 -51q-222 -296 -543 -870q-20 -46 31 -46q72 -5 144 -5
h148q236 1 412 13t356 53l15 -15q-35 -69 -51 -108q-5 -20 -41 -20q-266 10 -494 10z" />
    <glyph glyph-name="eogonek" unicode="&#x119;" horiz-adv-x="1049" 
d="M630 655q148 -1 261 105t113 249q0 67 -67 66q-134 0 -307 -271q-46 -72 -77 -138q22 -11 77 -11zM1162 1034q0 -61 -38 -133q-85 -161 -310 -243q-118 -44 -282 -44q-26 -46 -56 -146t-31 -202q0 -210 190 -210q209 0 486 197q221 158 384 372q10 11 23 5t13 -21
q-206 -255 -448 -418t-438 -207q-94 -47 -161 -115q-100 -100 -100 -182q0 -83 51 -123t123 -40l62 10q15 0 10 -13t-63 -29t-143 -15t-145 42q-59 41 -59 115q0 108 208 251q83 57 139 85q-48 -6 -96 -6q-241 0 -240 215q0 143 74 309t192 308q119 141 259 236
q140 94 268 94t128 -92z" />
    <glyph glyph-name="Ecaron" unicode="&#x11a;" horiz-adv-x="2432" 
d="M1769 1152h-341q-108 0 -204 -5q-41 0 -57 -31q-234 -415 -332 -650q-51 -118 -52 -210q0 -241 364 -241q321 0 743 95q421 95 603 233q20 10 21 -20q-45 -37 -108 -134q-36 -67 -154 -95q-165 -39 -522 -87q-563 -75 -947 -35q-232 24 -286 107q-26 38 -26 110t56 175
q20 36 110 188t210 368q120 217 121 222q0 15 -16 20t-56 5q-41 0 -41 16q0 36 61 46q118 15 175 123q20 36 113 202t203 378q109 214 109 234t-31 20q-385 0 -579 -51l-10 5q10 87 41 118q495 -31 1025 -11q530 21 793 21q31 0 30 -25q-10 -26 -41 -80t-56 -110l-20 5
q0 31 -13 57t-28 30q-281 46 -712 46q-82 0 -123 -51q-222 -296 -543 -870q-20 -46 31 -46q72 -5 144 -5h148q236 1 412 13t356 53l15 -15q-35 -69 -51 -108q-5 -20 -41 -20q-266 10 -494 10zM2555 3026q0 -31 -41 -62q-168 -142 -351 -325t-217 -181q-26 0 -26 28
q0 70 -18 243t-18 261q0 41 26 62q10 10 46 36t48 25q12 0 13 -36l5 -271l6 -190q0 -31 20 -30q10 0 66 48t167 164q110 115 182 202q46 61 66 62q10 0 18 -13t8 -23z" />
    <glyph glyph-name="ecaron" unicode="&#x11b;" horiz-adv-x="1049" 
d="M630 655q148 -1 261 105t113 249q0 67 -67 66q-134 0 -307 -271q-46 -72 -77 -138q22 -11 77 -11zM1162 1034q0 -61 -38 -133q-85 -161 -310 -243q-118 -44 -282 -44q-26 -46 -56 -146t-31 -202q0 -210 190 -210q209 0 486 197q221 158 384 372q10 11 23 5t13 -21
q-206 -255 -468 -432q-316 -213 -592 -213q-241 0 -240 215q0 143 74 309t192 308q119 141 259 236q140 94 268 94t128 -92zM1111 1536q11 0 67 48t166 164q110 115 182 203q46 61 66 61q10 0 18 -13t8 -23q0 -31 -41 -61q-162 -137 -347 -322t-216 -185t-31 26
q0 72 -18 245t-18 261q0 41 26 62q10 10 46 36t46 25q15 0 15 -35l5 -272l6 -189q0 -31 20 -31z" />
    <glyph glyph-name="Gcircumflex" unicode="&#x11c;" horiz-adv-x="2913" 
d="M568 517q0 108 62 318q60 211 204 451t377 468t576 371q358 143 745 143t601 -107q82 -41 128 -98q-42 -185 -148 -430l-36 -10l-5 15q20 62 20 141t-53 161q-112 170 -361 239q-123 33 -261 33q-261 0 -487 -110t-409 -295q-113 -107 -241 -279t-238 -368
q-254 -454 -254 -766q0 -204 138 -312t382 -108q242 0 468 95q447 188 738 548q138 172 194 325q20 51 18 77q-3 26 -58 25q-87 -5 -205 -15t-256 -20l-16 5l16 56q549 0 926 82q20 -15 0 -46q-83 -20 -113 -48t-96 -160q-289 -567 -440 -837q-337 -608 -549 -844
q-476 -569 -1070 -569q-159 0 -297 52l-5 35l16 11q117 -60 289 -61q171 -1 340 94q331 186 618 578q287 391 481 753q95 177 161 300q0 41 -38 5t-144 -118q-237 -185 -578 -302q-182 -61 -382 -62q-374 1 -566 157t-192 427zM2816 2944q0 31 -21 31t-176 -159
q-156 -159 -243 -256q-46 -56 -66 -56t-21 28q0 28 46 64q161 143 291 271q129 129 189 185t88 56q20 0 21 -26q5 -143 15 -276t10 -207q1 -74 -17 -87t-44 -39t-41 -26t-16 36q0 155 -15 461z" />
    <glyph glyph-name="gcircumflex" unicode="&#x11d;" horiz-adv-x="1213" 
d="M1119 1070h-39q-169 0 -245 -66q-225 -190 -374 -502q-61 -128 -89 -233t-29 -156q0 -51 31 -51t123 86q186 176 445 553q123 180 215 364q-15 5 -38 5zM-2785 -1884q0 -345 285 -522q285 -176 718 -174q476 0 886 309q459 347 850 1088q133 246 343 637t635 1166
q-235 -318 -350 -443q-216 -233 -324 -233q-116 1 -115 128q0 78 64 218q142 311 402 580t523 272q36 0 56 -5q40 71 84 143t85 146t71 74q20 0 38 -46t19 -90q0 -44 -26 -89q-492 -915 -763 -1372q-271 -456 -450 -745t-379 -617q-164 -261 -356 -489q-394 -467 -932 -656
q-274 -95 -601 -94q-445 0 -643 235q-161 193 -161 533q0 148 36 240q5 20 20 21q15 0 15 -26q-30 -108 -30 -189zM1403 1664q0 152 -15 461q0 31 -21 31t-177 -159t-243 -256q-46 -57 -66 -57q-21 0 -21 28t46 65q183 162 301 280q119 119 160 157t71 56t37 19q20 0 20 -26
q5 -143 15 -277t11 -207q0 -75 -18 -87t-44 -38t-41 -26t-15 36z" />
    <glyph glyph-name="Gbreve" unicode="&#x11e;" horiz-adv-x="2913" 
d="M568 517q0 108 62 318q60 211 204 451t377 468t576 371q358 143 745 143t601 -107q82 -41 128 -98q-42 -185 -148 -430l-36 -10l-5 15q20 62 20 141t-53 161q-112 170 -361 239q-123 33 -261 33q-261 0 -487 -110t-409 -295q-113 -107 -241 -279t-238 -368
q-254 -454 -254 -766q0 -204 138 -312t382 -108q242 0 468 95q447 188 738 548q138 172 194 325q20 51 18 77q-3 26 -58 25q-87 -5 -205 -15t-256 -20l-16 5l16 56q549 0 926 82q20 -15 0 -46q-83 -20 -113 -48t-96 -160q-289 -567 -440 -837q-337 -608 -549 -844
q-476 -569 -1070 -569q-159 0 -297 52l-5 35l16 11q117 -60 289 -61q171 -1 340 94q331 186 618 578q287 391 481 753q95 177 161 300q0 41 -38 5t-144 -118q-237 -185 -578 -302q-182 -61 -382 -62q-374 1 -566 157t-192 427zM2995 2788q0 -12 -13 -26q-13 -13 -28 -38
q-87 -113 -189 -164q-103 -51 -203 -51q-100 1 -172 67t-71 189q0 36 31 54t62 17q20 0 20 -30q0 -98 49 -162t136 -64q180 0 296 180q35 61 57 61q10 0 18 -10q7 -11 7 -23z" />
    <glyph glyph-name="gbreve" unicode="&#x11f;" horiz-adv-x="1213" 
d="M1119 1070h-39q-169 0 -245 -66q-225 -190 -374 -502q-61 -128 -89 -233t-29 -156q0 -51 31 -51t123 86q186 176 445 553q123 180 215 364q-15 5 -38 5zM-2785 -1884q0 -345 285 -522q285 -176 718 -174q476 0 886 309q459 347 850 1088q133 246 343 637t635 1166
q-235 -318 -350 -443q-216 -233 -324 -233q-116 1 -115 128q0 78 64 218q142 311 402 580t523 272q36 0 56 -5q40 71 84 143t85 146t71 74q20 0 38 -46t19 -90q0 -44 -26 -89q-492 -915 -763 -1372q-271 -456 -450 -745t-379 -617q-164 -261 -356 -489q-394 -467 -932 -656
q-274 -95 -601 -94q-445 0 -643 235q-161 193 -161 533q0 148 36 240q5 20 20 21q15 0 15 -26q-30 -108 -30 -189zM1592 1951q10 -1 18 -11t8 -22t-13 -26q-13 -13 -28 -39q-163 -213 -391 -215q-100 0 -172 67t-72 189q0 36 31 54t61 18q20 0 21 -31q1 -97 49 -161t135 -64
q182 0 297 179q36 62 56 62z" />
    <glyph glyph-name="Gdotaccent" unicode="&#x120;" horiz-adv-x="2913" 
d="M568 517q0 108 62 318q60 211 204 451t377 468t576 371q358 143 745 143t601 -107q82 -41 128 -98q-42 -185 -148 -430l-36 -10l-5 15q20 62 20 141t-53 161q-112 170 -361 239q-123 33 -261 33q-261 0 -487 -110t-409 -295q-113 -107 -241 -279t-238 -368
q-254 -454 -254 -766q0 -204 138 -312t382 -108q242 0 468 95q447 188 738 548q138 172 194 325q20 51 18 77q-3 26 -58 25q-87 -5 -205 -15t-256 -20l-16 5l16 56q549 0 926 82q20 -15 0 -46q-83 -20 -113 -48t-96 -160q-289 -567 -440 -837q-337 -608 -549 -844
q-476 -569 -1070 -569q-159 0 -297 52l-5 35l16 11q117 -60 289 -61q171 -1 340 94q331 186 618 578q287 391 481 753q95 177 161 300q0 41 -38 5t-144 -118q-237 -185 -578 -302q-182 -61 -382 -62q-374 1 -566 157t-192 427zM2452 2673q0 55 38 99t93 44q54 0 82 -16
t28 -68q0 -54 -51 -103t-108 -49q-82 0 -82 93z" />
    <glyph glyph-name="gdotaccent" unicode="&#x121;" horiz-adv-x="1213" 
d="M1119 1070h-39q-169 0 -245 -66q-225 -190 -374 -502q-61 -128 -89 -233t-29 -156q0 -51 31 -51t123 86q186 176 445 553q123 180 215 364q-15 5 -38 5zM-2785 -1884q0 -345 285 -522q285 -176 718 -174q476 0 886 309q459 347 850 1088q133 246 343 637t635 1166
q-235 -318 -350 -443q-216 -233 -324 -233q-116 1 -115 128q0 78 64 218q142 311 402 580t523 272q36 0 56 -5q40 71 84 143t85 146t71 74q20 0 38 -46t19 -90q0 -44 -26 -89q-492 -915 -763 -1372q-271 -456 -450 -745t-379 -617q-164 -261 -356 -489q-394 -467 -932 -656
q-274 -95 -601 -94q-445 0 -643 235q-161 193 -161 533q0 148 36 240q5 20 20 21q15 0 15 -26q-30 -108 -30 -189zM1311 1758q0 -54 -51 -102q-51 -49 -108 -48q-82 0 -82 92q0 56 38 100t92 44t83 -16q28 -16 28 -70z" />
    <glyph glyph-name="Gcommaaccent" unicode="&#x122;" horiz-adv-x="2913" 
d="M870 -1316q169 0 338 95t325.5 243.5t297 340.5t261 381t215 366t161.5 300q0 41 -38 5t-143.5 -118t-364.5 -223t-614 -141q-356 0 -548 156.5t-192 427.5q0 108 61.5 317.5t205 450.5t376.5 468.5t576 371.5q358 143 746 143t535 -74t193 -131q-46 -202 -148 -430
l-36 -10l-5 15q20 62 20 141t-53.5 161t-195.5 177t-415 95q-505 0 -907 -405q-113 -108 -241 -279t-310 -497t-182 -637q0 -205 138.5 -312.5t381.5 -107.5t468.5 95t412.5 235.5t325 312t194 325.5q20 51 18 76.5t-58 25.5l-461 -35l-16 5l16 56q549 0 926 82
q20 -15 0 -46q-82 -20 -112.5 -49t-96.5 -159q-273 -535 -520.5 -984t-468.5 -697q-476 -569 -1070 -569q-159 0 -297 52l-5 35l16 11q122 -62 291 -62zM2468 2452q-26 0 -56.5 47t-30.5 141q0 170 148 339.5t292 246.5q10 5 21 5q15 -5 15 -31q-199 -121 -258 -245
t-59 -203t30.5 -115t30.5 -58q1 -22 -61 -74q-62 -53 -72 -53z" />
    <glyph glyph-name="gcommaaccent" unicode="&#x123;" horiz-adv-x="1213" 
d="M1119 1070h-39q-169 0 -245 -66q-224 -189 -330 -409.5t-134 -325.5t-28 -156t30.5 -51.5t123 87t295.5 340t365 576.5q-15 5 -38 5zM-2022 -2698q-804 0 -804 768q0 148 36 240q5 20 20 20.5t15 -25.5q-30 -108 -30 -189q0 -345 282.5 -520.5t740.5 -175.5
q980 0 1716 1397q133 246 342.5 636.5t635.5 1166.5q-228 -308 -396 -492t-280 -184q-113 0 -113 128q0 77 102.5 302t363 495.5t523.5 272.5q36 0 56 -5q41 72 84.5 143.5t84.5 145.5t71 74q20 0 38.5 -46t18.5 -90t-26 -89q-506 -941 -770 -1384.5t-443 -733t-379 -616.5
q-164 -261 -356 -489t-557 -489t-976 -261zM1050 1815.5q0 125.5 139.5 280.5t300.5 254q26 10 36 -5t-10 -31q-118 -72 -213 -184.5t-95 -245.5q0 -87 31 -120t31 -64q0 -15 -51 -62q-26 -20 -49 -40.5t-33 -20.5q-31 0 -59 56.5t-28 182z" />
    <glyph glyph-name="Hcircumflex" unicode="&#x124;" horiz-adv-x="2928" 
d="M2504 1009q0 123 -252 123q-98 0 -235 -6q-463 -18 -742 -66q-31 -6 -51 -26t-41 -51q-118 -205 -259 -438t-233 -463q-10 -31 -20 -41q-9 -10 -53 -10q-97 0 -162 -21q-64 -21 -139 -66l-15 10q424 630 722 1096q-61 92 -77 138q5 26 51 25h87q36 0 52 41
q225 398 343 666q51 118 51 169t-31 67t-148 15q-117 0 -210 -15q-31 0 -31 30t51 31q150 0 390 18t322 23q51 0 15 -67q-209 -295 -471 -793q-97 -185 -100 -200t29 -15q260 -11 352 -11q93 0 203 6t250 11q140 6 413 30q53 10 77 56q350 674 558 1014q26 36 67 56
q114 69 379 171t335 101q69 -1 69 -26q0 -9 -20 -15t-34 -6q-59 0 -181 -39t-200 -109q-123 -102 -231 -246q-232 -329 -435 -707q-67 -123 -118 -230q-348 -726 -348 -963q0 -200 205 -199q72 0 177 36t166 76q15 0 21 -12q5 -13 -16 -34q-102 -45 -261 -99t-389 -64
q-169 10 -169 196t266 746q20 41 21 87zM2765 2893q0 31 -20 31t-177 -159t-244 -256q-46 -57 -66 -57t-20 28t46 65q174 154 296 276q123 123 164 161q42 38 72 56t36 19q20 0 20 -26q6 -143 16 -277t10 -207q0 -75 -18 -87t-44 -38t-40 -26t-16 36q0 152 -15 461z" />
    <glyph glyph-name="hcircumflex" unicode="&#x125;" horiz-adv-x="1361" 
d="M3287 3740q302 -71 302 -372q0 -124 -23 -173q-8 -15 -16 -7t-7 30q0 23 -18 84q-42 143 -223 223q-97 44 -240 44q-143 -1 -284 -39q-473 -129 -1063 -957q-462 -650 -1044 -1800q235 202 461 323q86 46 140 46t54 -34t-46 -94q-232 -345 -348 -640q-46 -118 -46 -195
t41 -118t112 -41q118 0 333 154t492 522q10 10 20 10t10 -20q-197 -280 -497 -529t-516 -249q-87 0 -139 48q-51 50 -51 134t57 212q56 128 125 259t125 241t56 145q0 36 -15 36q-46 0 -166 -87t-300 -328q-198 -353 -281 -512q-41 -82 -77 -82q-26 0 -67 13q-67 21 -25 105
q399 723 834 1413q246 383 510 783t540 728q277 328 561 535t571 207q72 0 148 -18zM3400 3917q0 186 -16 461q0 31 -20 30q-24 0 -178 -159q-155 -159 -242 -255q-46 -56 -67 -57q-20 1 -20 29t46 63q152 134 286 267t175 171q42 38 72 56t35 18q20 0 21 -25
q5 -142 15 -276t10 -208q1 -74 -17 -87t-44 -39t-41 -25q-15 0 -15 36z" />
    <glyph glyph-name="Hbar" unicode="&#x126;" horiz-adv-x="2928" 
d="M1661 1132q105 0 215.5 5t247 10.5t416.5 30.5q54 10 76 56q56 102 107.5 204.5t107.5 199.5q-347 -15 -562.5 -28t-402.5 -23t-361 -20q-56 -102 -104.5 -196.5t-76.5 -146.5t-31 -67t28 -15q235 -10 340 -10zM2478 968q0 123 -251 123q-225 0 -518 -21.5t-460 -50.5
q-31 -5 -51 -25.5t-41 -51.5q-118 -205 -246 -417.5t-220 -442.5q-10 -31 -20.5 -41t-53.5 -10q-100 0 -159.5 -20t-140.5 -67l-15 10q31 46 180 261.5t516 793.5q-61 92 -76 138q5 26 51 25h87q36 0 51 41q20 41 71.5 131t112.5 207q0 36 -76 41q-72 15 -72 36q0 36 46 36
h143q20 0 36 36q159 304 159 372t-31 83.5t-152 15.5t-206 -15q-31 0 -31 30.5t51 30.5t141 2.5t189.5 10t199.5 15.5t182 13q51 0 15 -67q-164 -231 -333 -537l185 -5q507 13 1116 41q209 395 343 599q26 36 67 56q109 66 374 168.5t337 102.5t72 -25q0 -10 -21 -15.5
t-33 -5.5q-59 0 -181 -39.5t-200 -108.5q-123 -102 -231 -246q-126 -179 -302 -471l128 15q31 0 31 -20.5t-26 -30.5q-41 -5 -82 -7.5t-81 -7.5q-155 -253 -246 -456q-323 -674 -323 -922q0 -200 205 -199q72 0 177 35.5t166 76.5q15 0 20.5 -12.5t-15.5 -33.5
q-102 -46 -261 -99.5t-389 -63.5q-87 5 -128 56t-41 128t25.5 166.5t64 186.5t79.5 189.5t72 174.5q20 41 20 87z" />
    <glyph glyph-name="hbar" unicode="&#x127;" horiz-adv-x="1361" 
d="M732 1643.5q0 20.5 21 30.5q40 26 332 36q230 364 481.5 730t510 657.5t527 476t535.5 184.5q164 0 307 -85t143 -299q0 -136 -15.5 -165t-23 -21.5t-7.5 30.5t-18 84.5t-71.5 120.5t-151 102.5t-258.5 43.5t-348 -69.5t-539.5 -381t-978.5 -1403.5q41 0 253 13t330 13
q41 0 31 -33.5t-41 -28.5q-291 0 -435 -10t-174 -10q-160 -276 -471 -886q241 208 394 288.5t207 80.5t54 -34t-46 -94q-235 -349 -314.5 -553.5t-79.5 -281.5t41 -118t112 -41q118 0 333 154t492 522q10 10 20 10.5t10 -20.5q-199 -283 -497 -530.5t-516 -247.5
q-87 0 -138.5 49t-51.5 133t56.5 212t125.5 258.5t125.5 240.5t56.5 146t-16 36q-46 0 -166 -87t-300 -328q-198 -353 -281 -512q-41 -82 -77 -82q-26 0 -66.5 13t-40.5 44t15 61q390 705 834 1413q26 36 44 69.5t43 74.5l-281 -26q-31 0 -31 20.5z" />
    <glyph glyph-name="Itilde" unicode="&#x128;" horiz-adv-x="1254" 
d="M1531 2125q0 56 -155 56t-265 -25l-15 5q10 41 30 61q578 27 779 62q26 -15 25 -41q0 -10 -30 -21q-41 -10 -67 -46q-27 -36 -93 -159q-586 -1085 -1115 -1889q-75 -103 -190 -128q-130 -23 -240 -10q-11 5 -11 25q77 9 144 87q221 279 665 990q444 710 528 976
q10 31 10 57zM1976 2534q-72 0 -133 44t-115 98t-105 96q-51 44 -99 44q-103 0 -252 -166q-33 -38 -56 -72q-24 -34 -44 -24t18 62q81 107 264 251q67 51 128 51t115 -46t108 -100q55 -54 113 -100t135 -45q77 -1 131 71t53 154q-1 26 23 38t24 -38q-14 -118 -102 -218
t-206 -100z" />
    <glyph glyph-name="itilde" unicode="&#x129;" horiz-adv-x="926" 
d="M568 72q178 0 469 235q120 97 223 205q102 108 158 184q26 26 28 14t-7 -39q-123 -159 -282 -302t-277 -221q-225 -149 -419 -148q-97 0 -138 26t-64 58q-23 33 -23 95t68 216t189 351q121 196 162 252q26 42 90 70t87 28t23 -16q0 -27 -74 -135q-74 -109 -172 -307
q-162 -329 -164 -449q0 -117 123 -117zM1162 1510q-72 0 -133 44t-115 98t-105 96q-51 44 -100 44q-80 0 -170 -83t-135 -153q-26 -36 -46 -26t18 62q81 107 264 251q67 51 128 51t115 -46t108 -100q55 -54 113 -100t135 -45q77 -1 131 71t53 154q0 26 23 38q23 13 23 -38
q-15 -118 -102 -218t-205 -100z" />
    <glyph glyph-name="Imacron" unicode="&#x12a;" horiz-adv-x="1254" 
d="M1531 2125q0 56 -155 56t-265 -25l-15 5q10 41 30 61q578 27 779 62q26 -15 25 -41q0 -10 -30 -21q-41 -10 -67 -46q-27 -36 -93 -159q-586 -1085 -1115 -1889q-75 -103 -190 -128q-130 -23 -240 -10q-11 5 -11 25q77 9 144 87q221 279 665 990q444 710 528 976
q10 31 10 57zM2053 2662l-450 -10l25 77l440 10z" />
    <glyph glyph-name="imacron" unicode="&#x12b;" horiz-adv-x="926" 
d="M568 72q178 0 469 235q120 97 223 205q102 108 158 184q26 26 28 14t-7 -39q-123 -159 -282 -302t-277 -221q-225 -149 -419 -148q-97 0 -138 26t-64 58q-23 33 -23 95t68 216t189 351q121 196 162 252q26 42 90 70t87 28t23 -16q0 -27 -74 -135q-74 -109 -172 -307
q-162 -329 -164 -449q0 -117 123 -117zM1193 1638l-451 -10l26 77l440 10z" />
    <glyph glyph-name="Ibreve" unicode="&#x12c;" horiz-adv-x="1254" 
d="M1531 2125q0 56 -155 56t-265 -25l-15 5q10 41 30 61q578 27 779 62q26 -15 25 -41q0 -10 -30 -21q-41 -10 -67 -46q-27 -36 -93 -159q-586 -1085 -1115 -1889q-75 -103 -190 -128q-130 -23 -240 -10q-11 5 -11 25q77 9 144 87q221 279 665 990q444 710 528 976
q10 31 10 57zM2176 2821q10 -1 18 -11t8 -22t-13 -26q-13 -13 -28 -38q-87 -113 -189 -164t-203 -51q-100 1 -172 67t-71 189q0 36 30 54q31 18 62 17q20 0 20 -30q0 -98 49 -162t136 -64q181 0 297 180q36 61 56 61z" />
    <glyph glyph-name="ibreve" unicode="&#x12d;" horiz-adv-x="926" 
d="M568 72q178 0 469 235q120 97 223 205q102 108 158 184q26 26 28 14t-7 -39q-123 -159 -282 -302t-277 -221q-225 -149 -419 -148q-97 0 -138 26t-64 58q-23 33 -23 95t68 216t189 351q121 196 162 252q26 42 90 70t87 28t23 -16q0 -27 -74 -135q-74 -109 -172 -307
q-162 -329 -164 -449q0 -117 123 -117zM1372 1764q0 -12 -13 -26q-13 -13 -28 -38q-87 -113 -189 -164t-202 -51q-100 1 -172 67t-72 189q0 36 31 54t61 17q20 0 21 -30q0 -98 49 -162t136 -64q180 0 296 180q34 61 56 61q10 -1 18 -11t8 -22z" />
    <glyph glyph-name="Iogonek" unicode="&#x12e;" horiz-adv-x="1254" 
d="M234 -512q-85 0 -144 41t-59 115q0 112 207 251q78 54 166 100q-116 -16 -209 -5q-11 5 -11 25q77 9 144 87q221 279 665 990q444 710 528 976q10 31 10 57q0 56 -155 56t-265 -25l-15 5q10 41 30 61q578 27 779 62q26 -15 25 -41q0 -10 -30 -21q-41 -10 -67 -46
q-27 -36 -93 -159q-586 -1085 -1115 -1889q-29 -40 -63 -67q12 -1 11 -10q0 -10 -20 -15q-159 -56 -259 -156t-100 -182t52 -123q51 -41 123 -41l61 10q15 0 10 -12t-63 -28t-143 -16z" />
    <glyph glyph-name="iogonek" unicode="&#x12f;" horiz-adv-x="926" 
d="M568 72q178 0 469 235q120 97 223 205q102 108 158 184q26 26 28 14t-7 -39q-123 -159 -282 -302t-277 -221q-194 -128 -374 -146q-128 -54 -220 -146t-92 -174t52 -122q51 -40 123 -41l61 10q15 0 10 -13t-63 -29t-143 -15t-144 42t-59 115q0 109 207 251q93 64 205 120
q-85 4 -123 27q-84 52 -84 147q0 153 309 655q69 113 110 169q26 42 90 70t87 28t23 -16q0 -27 -74 -135q-74 -109 -172 -307q-162 -329 -164 -449q0 -117 123 -117zM1208 1812q0 -61 -54 -122q-54 -62 -117 -62q-64 0 -64 64t48 126q49 61 118 61t69 -67z" />
    <glyph glyph-name="Idotaccent" unicode="&#x130;" horiz-adv-x="1254" 
d="M1531 2125q0 56 -155 56t-265 -25l-15 5q10 41 30 61q578 27 779 62q26 -15 25 -41q0 -10 -30 -21q-41 -10 -67 -46q-27 -36 -93 -159q-586 -1085 -1115 -1889q-75 -103 -190 -128q-130 -23 -240 -10q-11 5 -11 25q77 9 144 87q221 279 665 990q444 710 528 976
q10 31 10 57zM1902 2816q54 0 82 -16t28 -68q0 -54 -51 -103t-108 -49q-82 0 -81 93q0 55 38 99t92 44z" />
    <glyph glyph-name="dotlessi" unicode="&#x131;" horiz-adv-x="926" 
d="M568 72q177 0 383 166t308.5 274t158.5 184q26 26 28.5 13.5t-7.5 -38.5q-123 -159 -282 -302.5t-277 -220.5q-226 -148 -419 -148q-97 0 -138 25.5t-64 59t-23 95.5q0 110 164 401.5t255 416.5q26 41 90 69.5t87 28.5t23 -16q0 -10 -7.5 -30.5t-18.5 -30.5
q-132 -201 -258 -458.5t-126 -372.5q0 -116 123 -116z" />
    <glyph glyph-name="IJ" unicode="&#x132;" horiz-adv-x="2565" 
d="M1531 2125q0 56 -154 56t-266 -25l-15 5q10 41 30 61q578 27 779 62q26 -15 25 -41q0 -10 -30 -21q-41 -10 -67 -46t-51.5 -82t-66.5 -117.5t-66 -123.5q184 246 645 335.5t1106 89.5q20 -5 20 -25.5t-20 -20.5q-31 5 -54 5h-38q-41 0 -67 -7.5t-54 -43.5t-89.5 -141
t-141 -248t-174 -309.5t-228.5 -412.5t-286 -491q-153 -246 -327.5 -453.5t-526.5 -461t-928 -253.5q-159 0 -335.5 49t-278.5 115q-26 15 -38.5 30.5t-7.5 51.5q0 36 7.5 107.5t12.5 143.5l36 10q5 -215 182 -335t479 -120q184 0 579 102.5t1085 1320.5q96 164 327.5 592.5
t353.5 692.5q5 10 5 30.5t-31 20.5q-174 0 -379 -38.5t-381.5 -115t-294 -192t-117.5 -268.5q0 -41 10 -72q10 -15 -10 -15q-26 15 -54 69t-28 114t21 105q-105 -186 -227 -404q-419 -747 -777 -1282q-75 -103 -190 -128q-121 -22 -240 -10q-10 5 -11 25q77 9 144 87
q224 282 668.5 993t524.5 973q10 31 10 57z" />
    <glyph glyph-name="ij" unicode="&#x133;" horiz-adv-x="1715" 
d="M1843 1792q0 -61 -53.5 -122.5t-117.5 -61.5t-64 64t48.5 125.5t117.5 61.5t69 -67zM420 156q0 -58 33 -86.5t84 -28.5q95 0 250 115.5t278 263.5q56 118 107.5 225.5t107.5 235.5q15 41 15 81t-41 42q-10 0 -66 -15.5t-113 -20.5q-20 0 -20 15q0 20 25 31q243 43 329 83
t112 40q51 0 51 -57q0 -31 -21 -71q-87 -159 -161 -307.5t-186.5 -373t-238.5 -440.5q-125 -215 -281.5 -466t-325.5 -523q148 128 363.5 294.5t611 496t638.5 694.5q123 178 123 333q0 77 -31 112q-15 31 -5 31t31 -10q67 -48 67 -205q0 -208 -125.5 -352.5t-177.5 -190.5
q-189 -179 -368 -330t-522 -434t-559 -475q-108 -92 -158.5 -161t-99.5 -138t-118 -153.5t-207 -212.5q-10 -10 -31 -10q-26 0 -38.5 48.5t-12.5 86.5t20 64q87 123 159 184.5t141 115t140.5 130.5t194.5 297q313 561 625 1203q-148 -169 -307 -256t-259 -87t-156 36
t-56 120t33 171.5t79 179.5t92.5 181.5t64.5 133.5t30.5 74.5t12.5 45.5q0 51 -36 52q-41 0 -148 -31q-20 0 -21 15q0 20 26 31q325 113 384 113q51 0 51 -57q-1 -30 -21 -71q-119 -181 -210.5 -372.5t-124.5 -286.5t-33 -153zM1193 1812q0 -61 -53.5 -122.5t-117.5 -61.5
t-64 64t48.5 125.5t117.5 61.5t69 -67z" />
    <glyph glyph-name="Jcircumflex" unicode="&#x134;" horiz-adv-x="1766" 
d="M2156 2534q0 135 -16 461q0 31 -22 31t-176 -159q-155 -159 -242 -256q-46 -56 -66 -56t-21 28q0 28 46 64q161 143 291 271q129 128 170 166q42 38 72 57q30 18 35 18q20 0 21 -26q5 -143 15 -276t10 -207q1 -74 -17 -87t-44 -39q-56 -56 -56 10zM2621 2253
q0 -20 -20 -21q-31 5 -53 5h-39q-41 1 -67 -7t-51 -39q-109 -138 -231 -366t-295 -546t-338 -584q-165 -265 -280 -416t-223 -253t-236 -208q-452 -371 -993 -371q-230 0 -394 67q-27 10 -39 23t-7 48q0 92 10 236l36 10q21 -133 131 -228t340 -95t412 74t372 264
q316 316 694 956q494 834 739 1374q5 10 5 30t-31 21q-353 0 -711 -112q-113 -36 -200 -82q-87 -45 -156 -143t-69 -216q0 -41 10 -71q10 -15 -10 -16q-26 15 -54 61t-28 136t82 195q194 248 1037 285q314 14 637 14q20 -5 20 -25z" />
    <glyph glyph-name="jcircumflex" unicode="&#x135;" horiz-adv-x="998" 
d="M1382 850q67 -48 67 -199t-90 -295t-212 -254q-189 -179 -368.5 -330t-356 -297t-485.5 -402t-394.5 -361t-192.5 -250.5t-328 -350.5q-10 -10 -31 -11q-26 0 -38.5 49t-12.5 87t21 64q87 123 174 197.5t171.5 146t169 161t171.5 238.5q424 759 921 1843q20 51 21 71
q0 46 -41 47q-10 0 -66.5 -15.5t-112.5 -20.5q-20 0 -21 15q0 20 26 31q241 43 327.5 83t112.5 40q51 0 51 -57q0 -31 -20 -71q-98 -180 -274 -533t-307 -578t-287 -476t-325 -523q148 128 363 294.5t610 495.5t640 695q123 178 123 333q0 77 -31 112q-15 31 -5 31t30 -10z
M1070 1408q0 152 -15 461q0 31 -21 31t-177 -159t-243 -256q-46 -56 -66.5 -56.5t-20.5 27.5t46 65q183 162 301 280q119 119 160.5 157t71.5 56t36 19q20 0 20 -26q5 -143 15.5 -276.5t10.5 -207.5q0 -75 -18 -87t-43.5 -38t-41 -26t-15.5 36z" />
    <glyph glyph-name="Kcommaaccent" unicode="&#x136;" horiz-adv-x="2570" 
d="M1377 -399q0 -162 -153 -336q-118 -131 -287 -238q-26 -10 -36 5t10 31q118 73 213 185t95 245q0 87 -31 120t-31 64q0 15 51 62q26 21 49 41t33 20q31 0 59 -56t28 -143zM1050 2171q-56 0 -57 31q0 14 34 73q34 60 53 60q0 -41 52 -57q72 -17 266 -30l133 -5
q298 0 640 25q15 -26 -5 -46q-108 0 -200 -10q-36 0 -61 -41q-196 -310 -625 -1029q-20 -36 -8 -44t39 13q556 333 993 625q51 30 184 120t274 184t256 172q115 77 136 82h20q35 -20 128 -46q5 -15 -5 -26q-102 -28 -710 -386q-609 -358 -1056 -679q-20 -15 -21 -31
q210 -282 492 -628t717 -749q159 -147 287 -245q342 -261 713 -262q234 0 431 54t320 141q41 26 41 -10q0 -10 -21 -26q-143 -92 -371 -151t-428 -59q-199 0 -373 36q-608 126 -1209 793q-487 548 -839 1024q-15 26 -23 24q-30 -11 -229 -371q-198 -359 -270 -485t-85 -163
q-13 -38 -18 -59q-52 10 -113 10q-62 0 -128 -36t-97 -66q-31 0 -31 15q176 211 425 609q392 628 753 1330q149 290 164 334q0 15 -26 16q-138 0 -281 -16t-261 -15z" />
    <glyph glyph-name="kcommaaccent" unicode="&#x137;" horiz-adv-x="1536" 
d="M1644 1372q31 0 56 -66q0 -30 -56 -48q-121 -38 -327 -193q-206 -154 -303 -241q18 -235 105 -473q29 -79 57 -138t76 -85t113 -26t159 62t191 156q188 184 343 412q16 26 34 10t2 -30q-160 -212 -295 -352q-233 -242 -381 -324q-209 -104 -327 -31q-51 31 -90 110
q-61 128 -146 571q-164 -159 -328 -328t-276 -368q-9 -26 -43 -26t-54 44t-20 66t-1 34q0 10 5 20q51 72 108 177q269 504 650 1113q286 463 630 909t619 661q232 180 435 227q51 11 100 21q48 10 92 10q96 0 188 -52t92 -142q0 -56 -28 -112t-34 -106q-5 -49 -23 -51
q-18 -3 -18 23l10 56q0 119 -102 178q-102 58 -220 58t-295 -62q-178 -62 -374 -264q-341 -352 -724 -975q-269 -445 -523 -893q-255 -448 -278 -497t-18 -49q10 0 69 59t151 141t200 179q-5 20 -5 64t64 82t100 49q10 0 10 -18t5 -28q26 20 118 100q91 80 199 163t198 153
t110 70zM737 -399q0 -162 -153 -336q-118 -131 -287 -238q-26 -10 -36 5t10 31q118 73 213 185t95 245q0 87 -31 120t-31 64q0 15 51 62q26 21 49 41t33 20q31 0 59 -56t28 -143z" />
    <glyph glyph-name="Lacute" unicode="&#x139;" horiz-adv-x="2252" 
d="M2131 2253q-97 1 -149 -61q-212 -253 -374 -548q-126 -214 -287 -500q-162 -286 -286 -495t-249 -324t-264 -192q-31 -15 -36 -31t41 -15q295 31 765 61q470 31 514 31h83q179 1 251 -17t72 -70q0 -26 -23 -100t-44 -115q-10 -1 -10 23q0 69 -46 85q-204 82 -758 82
q-862 0 -1218 -108q-20 5 -36 23q-15 18 -16 33q0 31 41 31q203 0 286 51t157 141q159 193 545 906t559 1006q30 78 320 124q191 30 320 30q26 -10 23 -36t-18 -36q-65 21 -163 21zM2762 3087q8 0 24 -18q16 -19 15 -31q0 -12 -16 -27q-430 -331 -819 -589q-26 -16 -34 -8
t3 18q599 488 799 645q20 10 28 10z" />
    <glyph glyph-name="lacute" unicode="&#x13a;" horiz-adv-x="1039" 
d="M2447 3205q0 82 -66 82q-59 0 -129 -71t-301 -369q-206 -281 -474 -712q-268 -430 -489 -783q307 174 576 422t464 510t307 506q112 246 112 415zM2586 3430q92 0 92 -105q0 -59 -56 -197t-162 -320q-243 -420 -599 -801q-428 -456 -914 -722q-46 -82 -128 -220
t-161 -292q-197 -384 -197 -551q0 -166 148 -166q229 0 530 246q212 173 423 425q36 36 41 18t-16 -38q-386 -474 -778 -656q-154 -71 -297 -71t-202 64t-59 156t79 264q139 301 402 719q108 169 177 287t164 278q95 161 187 315t223 373t289 421q92 119 261 259t333 227
t220 87zM3069 4188q7 0 23 -18t16 -30t-16 -29q-420 -324 -819 -588q-25 -15 -33 -7t3 17q590 481 798 645q20 10 28 10z" />
    <glyph glyph-name="Lcommaaccent" unicode="&#x13b;" horiz-adv-x="2252" 
d="M2131 2253q-97 1 -149 -61q-212 -253 -374 -548q-126 -214 -287 -500q-162 -286 -286 -495t-249 -324t-264 -192q-31 -15 -36 -31t41 -15q295 31 765 61q470 31 514 31h83q179 1 251 -17t72 -70q0 -26 -23 -100t-44 -115q-10 -1 -10 23q0 69 -46 85q-204 82 -758 82
q-862 0 -1218 -108q-20 5 -36 23q-15 18 -16 33q0 31 41 31q203 0 286 51t157 141q159 193 545 906t559 1006q30 78 320 124q191 30 320 30q26 -10 23 -36t-18 -36q-65 21 -163 21zM1347 -399q0 -161 -154 -336q-122 -134 -287 -238q-26 -10 -36 5t11 31q119 73 213 185
t94 245q0 87 -31 120t-31 64q0 15 52 62q26 21 48 41t34 20q31 0 59 -56t28 -143z" />
    <glyph glyph-name="lcommaaccent" unicode="&#x13c;" horiz-adv-x="1039" 
d="M2447 3205q0 82 -66 82q-59 0 -129 -71t-301 -369q-206 -281 -474 -712q-268 -430 -489 -783q307 174 576 422t464 510t307 506q112 246 112 415zM2586 3430q92 0 92 -105q0 -59 -56 -197t-162 -320q-243 -420 -599 -801q-428 -456 -914 -722q-46 -82 -128 -220
t-161 -292q-197 -384 -197 -551q0 -166 148 -166q229 0 530 246q212 173 423 425q36 36 41 18t-16 -38q-386 -474 -778 -656q-154 -71 -297 -71t-202 64t-59 156t79 264q139 301 402 719q108 169 177 287t164 278q95 161 187 315t223 373t289 421q92 119 261 259t333 227
t220 87zM589 -399q0 -161 -154 -336q-122 -134 -287 -238q-26 -10 -36 5t11 31q119 73 213 185t94 245q0 87 -31 120t-31 56t52 70q26 21 48 41t34 20q31 0 59 -56t28 -143z" />
    <glyph glyph-name="Lcaron" unicode="&#x13d;" horiz-adv-x="2252" 
d="M2131 2253q-97 1 -149 -61q-212 -253 -374 -548q-126 -214 -287 -500q-162 -286 -286 -495t-249 -324t-264 -192q-31 -15 -36 -31t41 -15q295 31 765 61q470 31 514 31h83q179 1 251 -17t72 -70q0 -26 -23 -100t-44 -115q-10 -1 -10 23q0 69 -46 85q-204 82 -758 82
q-862 0 -1218 -108q-20 5 -36 23q-15 18 -16 33q0 31 41 31q203 0 286 51t157 141q159 193 545 906t559 1006q30 78 320 124q191 30 320 30q26 -10 23 -36t-18 -36q-65 21 -163 21zM2611 2350q31 0 69 -77t39 -187q0 -281 -310 -624q-84 -95 -172 -187q-20 -20 -38 -5t3 36
q61 68 125 134t118 138q120 159 120 357q0 134 -46 197q-15 24 -31 34t-15 36q0 26 107 133q15 15 31 15z" />
    <glyph glyph-name="lcaron" unicode="&#x13e;" horiz-adv-x="1587" 
d="M2447 3205q0 82 -66 82q-59 0 -129 -71t-301 -369q-206 -281 -474 -712q-268 -430 -489 -783q307 174 576 422t464 510t307 506q112 246 112 415zM2586 3430q92 0 92 -105q0 -59 -56 -197t-162 -320q-243 -420 -599 -801q-428 -456 -914 -722q-46 -82 -128 -220
t-161 -292q-197 -384 -197 -551q0 -166 148 -166q229 0 530 246q212 173 423 425q36 36 41 18t-16 -38q-386 -474 -778 -656q-154 -71 -297 -71t-202 64t-59 156t79 264q139 301 402 719q108 169 177 287t164 278q95 161 187 315t223 373t289 421q92 119 261 259t333 227
t220 87zM2355 2350q31 0 69 -77t39 -187q0 -281 -310 -624q-84 -95 -172 -187q-20 -20 -38 -5t3 36q61 68 125 134t118 138q120 159 120 357q0 134 -46 197q-15 24 -31 34t-15 36q0 26 107 133q15 15 31 15z" />
    <glyph glyph-name="Lslash" unicode="&#x141;" horiz-adv-x="2252" 
d="M2131 2253q-98 0 -229.5 -157t-293.5 -452q-97 -159 -277 -482l630 174q36 0 40.5 -41t-7.5 -41t-20 6t-182 -43.5t-507 -136.5q-154 -260 -251 -435q-123 -205 -248.5 -320t-263.5 -192q-31 -15 -36 -30.5t41 -15.5q292 31 763 61.5t515 30.5h84q179 1 251 -17t72 -70
q0 -26 -23 -100t-44 -115q-10 -1 -10 23q0 68 -46 85q-204 82 -758 82q-879 0 -1218 -108q-20 5 -36 23t-16 33q0 31 41 31q200 0 285 51q84 51 158.5 141t209.5 313t259 453q-148 -51 -231 -82l-76 -31q-36 0 -56.5 30.5t-20.5 41.5q10 10 15 10q41 0 120.5 23t284.5 89
q391 729 599 1065q10 26 33 39t90 39t228 51t289 25q26 -10 23 -36t-18 -36q-65 21 -163 21z" />
    <glyph glyph-name="lslash" unicode="&#x142;" horiz-adv-x="1111" 
d="M1946 2330q46 0 46 -62q0 -15 -8 -20t-18 5q-45 0 -527 -92q-608 -952 -795.5 -1372t-187.5 -523q0 -215 225 -215q195 0 463.5 201t447.5 434q26 31 39 18t-13 -49q-77 -87 -189.5 -204.5t-349.5 -297t-521 -179.5q-113 0 -220.5 56.5t-107.5 194.5q0 171 321 754.5
t719 1150.5q-143 -26 -251 -51.5t-131 -25.5t-46 18t-23 44q0 10 138.5 33t373.5 69q319 456 609 768q420 420 758 420t338 -164q0 -26 -43.5 -74.5t-74.5 -48.5q-31 102 -117.5 151t-186.5 49t-189.5 -25.5t-233 -132.5t-460.5 -554q-46 -67 -107.5 -156.5t-133.5 -201.5
q420 82 456 82z" />
    <glyph glyph-name="Nacute" unicode="&#x143;" horiz-adv-x="2810" 
d="M1293 2217q184 0 335 51q36 0 41 -46q10 -41 43 -187t113 -377q80 -230 154 -434t148 -405q74 -200 131 -363q10 -41 20 -67q10 -25 30 -25q31 1 73 87q483 986 733 1425t349 567t214 188t217 -2q54 -33 69 -74q0 -10 -15 -10q-214 0 -397 -190q-74 -77 -162 -194
q-446 -612 -916 -1664q-165 -392 -230 -523q-15 -36 -31 -35q-20 0 -46 35q-153 540 -492 1449q-82 220 -138 354q-31 67 -56 66q-26 0 -67 -61q-330 -516 -431 -698q-316 -571 -380 -789q-64 -217 -64 -372h-16q-10 5 -28 36t-52 87t-33 105q2 81 103 238q77 136 356 601
q280 465 420 726t140 342q0 108 -127 108t-267 -10q-20 0 -33 23t-13 45t16 24q105 -31 289 -31zM3248 3087q8 0 24 -18q16 -19 15 -31q0 -12 -15 -27q-424 -327 -820 -589q-26 -16 -34 -8t4 18q598 488 798 645q20 10 28 10z" />
    <glyph glyph-name="nacute" unicode="&#x144;" horiz-adv-x="1341" 
d="M840 -67q-61 0 -113 18q-51 18 -51 90t63 207t194 361q132 226 178 333q10 26 3 44q-8 18 -34 2q-169 -109 -443 -368q-74 -72 -120 -128q-82 -128 -141 -236t-146 -241q-20 -31 -30 -30q-26 0 -44 56t-18 72q0 46 64 125t141 177q212 425 317 670q14 26 46 26t58 -26
t24 -51q0 -26 -74 -146t-146 -279q376 338 617 499q79 54 105 54t44 -23t18 -43t-26 -62q-290 -425 -420 -732q-51 -123 -51 -189q0 -65 26 -89q25 -24 97 -24q136 0 433 233q125 100 238 223t184 235q10 15 31 7t-5 -38q-332 -463 -745 -660q-141 -67 -274 -67zM1850 2063
q8 0 24 -18q16 -19 15 -31q0 -12 -15 -27q-418 -322 -819 -589q-26 -16 -34 -8t3 18q599 488 799 645q19 10 27 10z" />
    <glyph glyph-name="Ncommaaccent" unicode="&#x145;" horiz-adv-x="2810" 
d="M1293 2217q184 0 335 51q36 0 41 -46q10 -41 43 -187t113 -377q80 -230 154 -434t148 -405q74 -200 131 -363q10 -41 20 -67q10 -25 30 -25q31 1 73 87q483 986 733 1425t349 567t214 188t217 -2q54 -33 69 -74q0 -10 -15 -10q-214 0 -397 -190q-74 -77 -162 -194
q-446 -612 -916 -1664q-165 -392 -230 -523q-15 -36 -31 -35q-20 0 -46 35q-153 540 -492 1449q-82 220 -138 354q-31 67 -56 66q-26 0 -67 -61q-330 -516 -431 -698q-316 -571 -380 -789q-64 -217 -64 -372h-16q-10 5 -28 36t-52 87t-33 105q2 81 103 238q77 136 356 601
q280 465 420 726t140 342q0 108 -127 108t-267 -10q-20 0 -33 23t-13 45t16 24q105 -31 289 -31zM1428 -399q0 -162 -153 -336q-122 -134 -287 -238q-26 -10 -36 5t11 31q119 73 213 185t94 245q0 87 -31 120t-31 64q0 15 52 62q26 21 48 41t33 20q31 0 59 -56t28 -143z" />
    <glyph glyph-name="ncommaaccent" unicode="&#x146;" horiz-adv-x="1341" 
d="M840 -67q-61 0 -113 18q-51 18 -51 90t63 207t194 361q132 226 178 333q10 26 3 44q-8 18 -34 2q-169 -109 -443 -368q-74 -72 -120 -128q-82 -128 -141 -236t-146 -241q-20 -31 -30 -30q-26 0 -44 56t-18 72q0 46 64 125t141 177q212 425 317 670q14 26 46 26t58 -26
t24 -51q0 -26 -74 -146t-146 -279q376 338 617 499q79 54 105 54t44 -23t18 -43t-26 -62q-290 -425 -420 -732q-51 -123 -51 -189q0 -65 26 -89q25 -24 97 -24q136 0 433 233q125 100 238 223t184 235q10 15 31 7t-5 -38q-332 -463 -745 -660q-141 -67 -274 -67zM527 -399
q0 -162 -153 -336q-118 -131 -287 -238q-26 -10 -36 5t10 31q118 73 213 185t95 245q0 87 -31 120t-31 64q0 15 51 62q26 21 49 41t33 20q31 0 59 -56t28 -143z" />
    <glyph glyph-name="Ncaron" unicode="&#x147;" horiz-adv-x="2810" 
d="M1293 2217q184 0 335 51q36 0 41 -46q10 -41 43 -187t113 -377q80 -230 154 -434t148 -405q74 -200 131 -363q10 -41 20 -67q10 -25 30 -25q31 1 73 87q483 986 733 1425t349 567t214 188t217 -2q54 -33 69 -74q0 -10 -15 -10q-214 0 -397 -190q-74 -77 -162 -194
q-446 -612 -916 -1664q-165 -392 -230 -523q-15 -36 -31 -35q-20 0 -46 35q-153 540 -492 1449q-82 220 -138 354q-31 67 -56 66q-26 0 -67 -61q-330 -516 -431 -698q-316 -571 -380 -789q-64 -217 -64 -372h-16q-10 5 -28 36t-52 87t-33 105q2 81 103 238q77 136 356 601
q280 465 420 726t140 342q0 108 -127 108t-267 -10q-20 0 -33 23t-13 45t16 24q105 -31 289 -31zM2647 2560q11 0 67 48t166 164q110 115 182 203q46 61 66 61q10 0 18 -13t8 -23q0 -31 -41 -61q-162 -137 -347 -322t-216 -185t-31 26q0 72 -18 245t-18 261q0 41 26 62
q10 10 46 36t46 25q15 0 15 -35l5 -272l6 -189q0 -31 20 -31z" />
    <glyph glyph-name="ncaron" unicode="&#x148;" horiz-adv-x="1341" 
d="M840 -67q-61 0 -113 18q-51 18 -51 90t63 207t194 361q132 226 178 333q10 26 3 44q-8 18 -34 2q-169 -109 -443 -368q-74 -72 -120 -128q-82 -128 -141 -236t-146 -241q-20 -31 -30 -30q-26 0 -44 56t-18 72q0 46 64 125t141 177q212 425 317 670q14 26 46 26t58 -26
t24 -51q0 -26 -74 -146t-146 -279q376 338 617 499q79 54 105 54t44 -23t18 -43t-26 -62q-290 -425 -420 -732q-51 -123 -51 -189q0 -65 26 -89q25 -24 97 -24q136 0 433 233q125 100 238 223t184 235q10 15 31 7t-5 -38q-332 -463 -745 -660q-141 -67 -274 -67zM1193 1536
q11 0 67 48t166 164q110 115 182 203q46 61 66 61q10 0 18 -13t8 -23q0 -31 -41 -61q-162 -137 -347 -322t-216 -185t-31 26q0 72 -18 245t-18 261q0 41 26 62q10 10 46 36t46 25q15 0 15 -35l5 -272l5 -189q0 -31 21 -31z" />
    <glyph glyph-name="Eng" unicode="&#x14a;" horiz-adv-x="2984" 
d="M1009 2248q26 0 84.5 -15.5t199.5 -15.5t225.5 25.5t114.5 25.5q56 0 51 -72t36 -228q88 -335 290 -771.5t417 -730.5q45 -62 79 -62t64 52q241 466 476.5 903.5t476.5 831.5q118 189 215.5 253.5t163.5 64.5t112 -36t46 -72q0 -10 -70 -10q-70 1 -138 -33
q-69 -34 -173.5 -129t-204.5 -243q-463 -687 -1037 -2012q-263 -564 -461 -800q-72 -84 -192 -143.5t-250 -59.5q-243 0 -353 156t-131 407q-5 26 25.5 28.5t35.5 -13.5q26 -195 141 -299.5t315 -104.5q279 0 437 219.5t356 620.5q-389 683 -581 1158t-248 634
q-20 67 -56 66q-26 0 -67 -61q-496 -776 -721.5 -1233t-302.5 -641q-15 -46 -35.5 -107.5t-46.5 -173t-26 -169.5q0 -57 -13 -57t-53.5 109t-40.5 137q0 97 67 230q143 287 363 651t358 602q230 397 353.5 623t123.5 293q0 120 -134 120l-261 -16q-51 0 -61 49t31 49z" />
    <glyph glyph-name="eng" unicode="&#x14b;" horiz-adv-x="1336" 
d="M806 1116q13 0 13 -23t-20 -59q-128 -236 -297 -609q207 249 594 563q148 113 189 113q92 0 92 -92t-64 -261t-240.5 -486t-493.5 -646q-128 -133 -289.5 -248.5t-350.5 -115.5q-148 0 -230.5 97.5t-82.5 246.5q0 72 26 163q10 26 30.5 26t20.5 -21v-10q-15 -61 -15 -112
q0 -138 94.5 -194.5t240.5 -56.5q261 0 512 262q250 262 431 634.5t181 593.5q0 36 -36 35q-10 0 -31 -10q-169 -113 -371 -327.5t-422 -542.5q-31 -41 -85 -69t-82 -28q-28 1 -28 23t16 43q265 484 481 963q51 108 199 143q5 5 18 5z" />
    <glyph glyph-name="Omacron" unicode="&#x14c;" horiz-adv-x="3015" 
d="M2354 2253q-290 0 -506 -105t-394 -310q-224 -250 -409 -619q-185 -370 -185 -651q0 -449 392 -540q120 -28 264 -28q302 0 570 159t474 402q205 243 325 537t120 582q0 287 -180 430q-181 143 -471 143zM1556 -46q-441 0 -668 138q-272 168 -274 528q0 304 210 701
q92 174 210 328t231 256q220 199 496 291t569 93q377 0 627 -136q137 -73 223 -199t81 -321q-5 -317 -148 -619t-376 -538t-541 -379t-640 -143zM2744 2662l-450 -10l25 77l441 10z" />
    <glyph glyph-name="omacron" unicode="&#x14d;" horiz-adv-x="1280" 
d="M492 41q87 0 189 97q211 200 351 492q64 133 74 205q-19 85 -21 225q0 26 -20 25q-148 0 -364 -286q-140 -188 -233 -412q-54 -131 -48 -249q0 -36 13 -66t59 -31zM1454 563q-87 0 -171 44t-136 130q-239 -543 -599 -732q-92 -41 -154 -41q-184 0 -184 164q0 236 228 553
q153 212 356 333q138 82 297 97q10 41 30 95t72 64q76 15 94 25t34 3q15 -8 5 -28q-72 -112 -72 -333q0 -143 54 -235t187 -93q133 0 241 87t179 190q10 26 33 15t3 -31q-87 -118 -213 -212t-284 -95zM1495 1638l-451 -10l26 77l440 10z" />
    <glyph glyph-name="Obreve" unicode="&#x14e;" horiz-adv-x="3015" 
d="M2354 2253q-290 0 -506 -105t-394 -310q-224 -250 -409 -619q-185 -370 -185 -651q0 -449 392 -540q120 -28 264 -28q302 0 570 159t474 402q205 243 325 537t120 582q0 287 -180 430q-181 143 -471 143zM1556 -46q-441 0 -668 138q-272 168 -274 528q0 304 210 701
q92 174 210 328t231 256q220 199 496 291t569 93q377 0 627 -136q137 -73 223 -199t81 -321q-5 -317 -148 -619t-376 -538t-541 -379t-640 -143zM2995 2890q0 -12 -13 -25t-28 -39q-87 -113 -189 -164q-103 -51 -203 -51t-172 67t-71 189q0 36 31 54t62 18q20 0 20 -31
q0 -97 49 -161t136 -64q181 0 296 179q37 62 57 62q10 0 18 -10q8 -12 7 -24z" />
    <glyph glyph-name="obreve" unicode="&#x14f;" horiz-adv-x="1280" 
d="M492 41q87 0 189 97q211 200 351 492q64 133 74 205q-19 85 -21 225q0 26 -20 25q-148 0 -364 -286q-140 -188 -233 -412q-54 -131 -48 -249q0 -36 13 -66t59 -31zM1454 563q-87 0 -171 44t-136 130q-239 -543 -599 -732q-92 -41 -154 -41q-184 0 -184 164q0 236 228 553
q153 212 356 333q138 82 297 97q10 41 30 95t72 64q76 15 94 25t34 3q15 -8 5 -28q-72 -112 -72 -333q0 -143 54 -235t187 -93q133 0 241 87t179 190q10 26 33 15t3 -31q-87 -118 -213 -212t-284 -95zM1659 1764q0 -12 -13 -26q-13 -13 -28 -38q-88 -113 -190 -164t-202 -51
q-100 1 -172 67t-71 189q0 36 31 54t61 17q20 0 21 -30q0 -97 48 -162q49 -64 136 -64q181 0 297 180q35 61 56 61q10 -1 18 -11t8 -22z" />
    <glyph glyph-name="Ohungarumlaut" unicode="&#x150;" horiz-adv-x="3015" 
d="M2354 2253q-290 0 -506 -105t-394 -310q-224 -250 -409 -619q-185 -370 -185 -651q0 -449 392 -540q120 -28 264 -28q302 0 570 159t474 402q205 243 325 537t120 582q0 287 -180 430q-181 143 -471 143zM1556 -46q-441 0 -668 138q-272 168 -274 528q0 304 210 701
q92 174 210 328t231 256q220 199 496 291t569 93q377 0 627 -136q137 -73 223 -199t81 -321q-5 -317 -148 -619t-376 -538t-541 -379t-640 -143zM2831 3082q36 0 36 -71q-1 -31 -57 -90t-158 -161l-200 -200q-10 -10 -18 -2t3 17q82 133 179 251t190 241q10 15 25 15z
M3138 3072q20 0 32 -23q10 -23 10 -43t-8 -31q-8 -10 -23 -31q-233 -248 -379 -374q-26 -20 -23 -5t15 36t57 77q44 56 131 176t153 203q15 15 35 15z" />
    <glyph glyph-name="ohungarumlaut" unicode="&#x151;" horiz-adv-x="1280" 
d="M492 41q87 0 189 97q211 200 351 492q64 133 74 205q-19 85 -21 225q0 26 -20 25q-148 0 -364 -286q-140 -188 -233 -412q-54 -131 -48 -249q0 -36 13 -66t59 -31zM1454 563q-87 0 -171 44t-136 130q-239 -543 -599 -732q-92 -41 -154 -41q-184 0 -184 164q0 236 228 553
q153 212 356 333q138 82 297 97q10 41 30 95t72 64q76 15 94 25t34 3q15 -8 5 -28q-72 -112 -72 -333q0 -143 54 -235t187 -93q133 0 241 87t179 190q10 26 33 15t3 -31q-87 -118 -213 -212t-284 -95zM1459 1884q-1 -32 -57 -90q-124 -128 -358 -360q-10 -10 -18 -2t3 17
q82 133 179 251t190 240q10 15 25 16q36 0 36 -72zM1772 1880q0 -20 -8 -32q-8 -10 -23 -30q-239 -255 -379 -374q-26 -20 -23 -5t15 35t57 77q44 56 138 185t146 194q15 16 35 16t32 -23q10 -23 10 -43z" />
    <glyph glyph-name="OE" unicode="&#x152;" horiz-adv-x="4311" 
d="M4541 2243q123 0 123 -20.5t-22 -53.5t-44 -90q-10 -20 -23 -23t-23 28q-10 26 -46 36q-236 46 -809 46q-227 -330 -564 -958q72 -10 97 -10h246q318 0 502.5 20.5t235.5 30.5q36 10 25 -20q-15 -23 -35 -82q-5 -20 -41 -21h-6q-293 11 -505 11h-324q-108 0 -200 -5
q-41 0 -56 -28t-74 -138.5t-174.5 -359.5t-115.5 -369q0 -119 82 -175.5t280 -56.5t634.5 71.5t739.5 266.5q10 5 36 5t-10 -36q-67 -61 -108 -123q-36 -67 -148 -92q-578 -124 -1075 -143q-353 0 -537.5 28t-184.5 161q0 87 87 246q-487 -466 -1055 -466
q-420 0 -627.5 147.5t-207.5 523.5q0 123 51.5 297t208.5 476.5t538 604t858 301.5t624 -143t180.5 -261t33.5 -251v-38q0 -39 -5 -64q41 87 89.5 179t92 176.5t77 151t43.5 102.5t-10 66q0 26 51 26q261 5 555.5 15.5t539.5 10.5zM2918 1587q0 113 -17.5 228t-126 268.5
t-511.5 153.5q-365 0 -680.5 -300t-462.5 -611.5t-195.5 -491t-48.5 -312.5q0 -236 148 -386.5t486 -150.5q164 0 351 58.5t369 194.5t341 351t253 487t94 511z" />
    <glyph glyph-name="oe" unicode="&#x153;" horiz-adv-x="1827" 
d="M1715 1024q0 46 -60.5 58t-264.5 -185t-289 -498q240 121 381 270.5t187 229t46 125.5zM389 -36q-97 0 -138 64t-41 197t169 410q61 87 212 215t387 261q39 -7 5 -41q-253 -123 -418.5 -376.5t-165.5 -498.5q0 -67 23 -115.5t64 -48.5q97 0 197 82t182 204.5t133.5 260.5
t51.5 256t-31 180q5 10 89.5 54.5t84.5 6.5q10 -61 5 -153.5t-31 -179.5q154 215 312.5 299.5t252.5 84.5t96 -84q0 -84 -79.5 -184t-194.5 -197.5t-240.5 -179.5t-222.5 -123q-11 -29 -11 -104t72 -141.5t240 -66.5t409.5 123t471.5 404q20 26 25.5 5.5t-9.5 -35.5
q-241 -276 -504.5 -425t-530.5 -149q-154 0 -251 43.5t-97 192.5q0 36 10 77q-118 -154 -274 -236t-253 -82z" />
    <glyph glyph-name="Racute" unicode="&#x154;" horiz-adv-x="2621" 
d="M2903 3090q0 -12 -15 -28q-424 -327 -820 -589q-26 -15 -34 -7t4 17q598 488 798 645q20 10 28 10t24 -17q15 -19 15 -31zM2178 2273q366 1 589 -89t223 -320q0 -113 -74 -233q-156 -253 -533 -400q-192 -74 -422 -99q-46 -5 -31 -41q221 -408 656 -1019
q402 -547 908 -727q187 -67 387 -67q307 0 609 159q31 20 31 -10q0 -20 -21 -26q-368 -195 -727 -195q-292 0 -512 59q-423 113 -755 499q-166 195 -345 472q-51 82 -123 202t-149 248t-146 248t-115 198q0 20 16 20q476 0 755 166q141 84 220 215t79 305q0 249 -261 343
q-97 36 -234 36t-195 -67q-58 -66 -160 -222q-175 -266 -454 -749t-432 -775t-199 -394q-5 -10 -21 -10q-61 12 -94 11q-34 -1 -70 -1t-76 -10q-61 -36 -118 -97q-10 0 -23 5t-3 15q808 1177 1352 2207q15 41 8 51q-8 10 -34 10q-290 -19 -593 -184q-172 -101 -297 -328
q-10 -5 -21 -2q-10 3 -10 13q29 78 56 204q0 51 62 87q289 156 629 231q302 61 668 61z" />
    <glyph glyph-name="racute" unicode="&#x155;" horiz-adv-x="998" 
d="M192 -20q-18 0 -51 30t-33 54q0 23 58 125t214 371q155 269 215 369t81 146q26 46 36 46q10 1 51 -25t41 -63t-41 -104q-41 -69 -61 -105t-34 -56q-12 -20 -2 -20t43 33t107 95q167 138 318 204q79 36 133 36q53 0 87 -23t34 -49q-31 -36 -64 -87t-41 -71t-23 -21
q-6 -1 -16 15q-55 81 -143 82q-148 2 -313 -148q-97 -82 -171 -179t-141 -202t-128 -215t-133 -223q-5 -15 -23 -15zM1764 2063q8 0 22 -18q16 -19 16 -31t-15 -27q-418 -322 -819 -589q-26 -16 -34 -8t3 18q599 488 799 645q20 10 28 10z" />
    <glyph glyph-name="Rcommaaccent" unicode="&#x156;" horiz-adv-x="2621" 
d="M2178 2273q366 1 589 -89t223 -320q0 -113 -74 -233q-156 -253 -533 -400q-192 -74 -422 -99q-46 -5 -31 -41q221 -408 656 -1019q402 -547 908 -727q187 -67 387 -67q307 0 609 159q31 20 31 -10q0 -20 -21 -26q-368 -195 -727 -195q-292 0 -512 59q-423 113 -755 499
q-166 195 -345 472q-51 82 -123 202t-149 248t-146 248t-115 198q0 20 16 20q476 0 755 166q141 84 220 215t79 305q0 249 -261 343q-97 36 -234 36t-195 -67q-58 -66 -160 -222q-175 -266 -454 -749t-432 -775t-199 -394q-5 -10 -21 -10q-61 12 -94 11q-34 -1 -70 -1
t-76 -10q-61 -36 -118 -97q-10 0 -23 5t-3 15q808 1177 1352 2207q15 41 8 51q-8 10 -34 10q-290 -19 -593 -184q-172 -101 -297 -328q-10 -5 -21 -2q-10 3 -10 13q29 78 56 204q0 51 62 87q289 156 629 231q302 61 668 61zM1516 -399q0 -161 -154 -336q-122 -134 -287 -238
q-26 -10 -36 5t11 31q118 73 212 185t95 245q0 87 -31 120t-31 64q0 15 52 62q27 21 49 41t32 20q32 0 60 -56t28 -143z" />
    <glyph glyph-name="rcommaaccent" unicode="&#x157;" horiz-adv-x="998" 
d="M192 -20q-18 0 -51 30t-33 54q0 23 58 125t214 371q155 269 215 369t81 146q26 46 36 46q10 1 51 -25t41 -63t-41 -104q-41 -69 -61 -105t-34 -56q-12 -20 -2 -20t43 33t107 95q167 138 318 204q79 36 133 36q53 0 87 -23t34 -49q-31 -36 -64 -87t-41 -71t-23 -21
q-6 -1 -16 15q-55 81 -143 82q-148 2 -313 -148q-97 -82 -171 -179t-141 -202t-128 -215t-133 -223q-5 -15 -23 -15zM358 -399q0 -162 -153 -336q-118 -131 -287 -238q-26 -10 -36 5t10 31q118 73 213 185t95 245q0 87 -31 120t-31 64q0 15 51 62q26 21 49 41t33 20
q31 0 59 -56t28 -143z" />
    <glyph glyph-name="Rcaron" unicode="&#x158;" horiz-adv-x="2621" 
d="M2178 2273q366 1 589 -89t223 -320q0 -113 -74 -233q-156 -253 -533 -400q-192 -74 -422 -99q-46 -5 -31 -41q221 -408 656 -1019q402 -547 908 -727q187 -67 387 -67q307 0 609 159q31 20 31 -10q0 -20 -21 -26q-368 -195 -727 -195q-292 0 -512 59q-423 113 -755 499
q-166 195 -345 472q-51 82 -123 202t-149 248t-146 248t-115 198q0 20 16 20q476 0 755 166q141 84 220 215t79 305q0 249 -261 343q-97 36 -234 36t-195 -67q-58 -66 -160 -222q-175 -266 -454 -749t-432 -775t-199 -394q-5 -10 -21 -10q-61 12 -94 11q-34 -1 -70 -1
t-76 -10q-61 -36 -118 -97q-10 0 -23 5t-3 15q808 1177 1352 2207q15 41 8 51q-8 10 -34 10q-290 -19 -593 -184q-172 -101 -297 -328q-10 -5 -21 -2q-10 3 -10 13q29 78 56 204q0 51 62 87q289 156 629 231q302 61 668 61zM2376 2611q10 0 25 16q97 82 208 197
q110 115 181 202q46 61 62 61q16 -1 23 -13q8 -12 8 -22q0 -31 -41 -62q-168 -142 -351 -325q-182 -182 -213 -182t-30 26q0 73 -18 246t-18 261q0 41 25 61q11 10 47 36t48 26t13 -36l5 -272l5 -189q0 -31 21 -31z" />
    <glyph glyph-name="rcaron" unicode="&#x159;" horiz-adv-x="998" 
d="M192 -20q-18 0 -51 30t-33 54q0 23 58 125t214 371q155 269 215 369t81 146q26 46 36 46q10 1 51 -25t41 -63t-41 -104q-41 -69 -61 -105t-34 -56q-12 -20 -2 -20t43 33t107 95q167 138 318 204q79 36 133 36q53 0 87 -23t34 -49q-31 -36 -64 -87t-41 -71t-23 -21
q-6 -1 -16 15q-55 81 -143 82q-148 2 -313 -148q-97 -82 -171 -179t-141 -202t-128 -215t-133 -223q-5 -15 -23 -15zM1152 1536q10 0 66 48t167 164q110 115 182 203q46 61 66 61q10 0 18 -13t8 -23q0 -31 -41 -61q-162 -137 -347 -322t-216 -185t-31 26q0 72 -18 245
t-18 261q0 41 26 62q10 10 46 36t46 25q15 0 15 -35l5 -272l6 -189q0 -31 20 -31z" />
    <glyph glyph-name="Sacute" unicode="&#x15a;" horiz-adv-x="1684" 
d="M236 379q0 -143 117 -254q118 -110 344 -110q225 0 381 72q156 73 266 203t110 309q0 87 -41 177t-159 238q-102 133 -156 235q-54 101 -54 235t59 267t149 238t187 159q207 115 410 115t307 -113q25 -35 25 -71q-62 -158 -92 -272q-20 -10 -36 16q15 31 15 77
q0 92 -89 174t-289 82t-328 -120t-128 -321q0 -154 72 -287q72 -132 148 -232t142 -189q65 -89 83 -170q58 -257 -166 -504q-333 -367 -873 -369q-262 0 -445 87q-26 15 -47 28q-20 13 -25 29q42 183 97 378q0 10 16 11q15 0 15 -26q-15 -46 -15 -92zM2698 3090
q0 -12 -15 -28q-418 -322 -819 -589q-26 -15 -34 -7t3 17q599 488 799 645q20 10 28 10t23 -17q15 -19 15 -31z" />
    <glyph glyph-name="sacute" unicode="&#x15b;" horiz-adv-x="916" 
d="M190 66q72 -66 182 -66q112 0 175 36t99 87t35 128q0 77 -26 133q-27 56 -57 104t-60 100t-31 113t43 133t110 132q160 140 303 140q82 0 81 -51q-32 -55 -56 -118q-15 -26 -25 -5q-31 66 -115 66t-157 -41q-72 -41 -71 -122q0 -41 26 -82t68 -105q44 -64 80 -126
t35 -128q0 -226 -207 -353q-84 -51 -171 -69t-139 -18q-312 0 -343 210q81 47 108 82q10 0 15 -21q26 -93 98 -159zM1686 2063q8 0 24 -18q16 -19 15 -31q0 -12 -15 -27q-418 -322 -819 -589q-25 -16 -33 -8t2 18q599 488 799 645q19 10 27 10z" />
    <glyph glyph-name="Scircumflex" unicode="&#x15c;" horiz-adv-x="1684" 
d="M236 379q0 -143 117 -254q118 -110 344 -110q225 0 381 72q156 73 266 203t110 309q0 87 -41 177t-159 238q-102 133 -156 235q-54 101 -54 235t59 267t149 238t187 159q207 115 410 115t307 -113q25 -35 25 -71q-62 -158 -92 -272q-20 -10 -36 16q15 31 15 77
q0 92 -89 174t-289 82t-328 -120t-128 -321q0 -154 72 -287q72 -132 148 -232t142 -189q65 -89 83 -170q58 -257 -166 -504q-333 -367 -873 -369q-262 0 -445 87q-26 15 -47 28q-20 13 -25 29q42 183 97 378q0 10 16 11q15 0 15 -26q-15 -46 -15 -92zM2212 3046q0 31 -22 31
t-176 -159q-155 -159 -242 -256q-46 -56 -66 -56t-22 28q0 28 47 64q185 163 302 282q117 118 158 156t71 56t37 18q20 0 20 -25q5 -143 15 -277t11 -207q0 -74 -18 -87q-17 -13 -43 -39q-55 -56 -57 11q0 154 -15 460z" />
    <glyph glyph-name="scircumflex" unicode="&#x15d;" horiz-adv-x="916" 
d="M190 66q72 -66 182 -66q112 0 175 36t99 87t35 128q0 77 -26 133q-27 56 -57 104t-60 100t-31 113t43 133t110 132q160 140 303 140q82 0 81 -51q-32 -55 -56 -118q-15 -26 -25 -5q-31 66 -115 66t-157 -41q-72 -41 -71 -122q0 -41 26 -82t68 -105q44 -64 80 -126
t35 -128q0 -226 -207 -353q-84 -51 -171 -69t-139 -18q-312 0 -343 210q81 47 108 82q10 0 15 -21q26 -93 98 -159zM1172 1900q-21 0 -176 -159q-156 -159 -243 -256q-46 -56 -67 -57q-20 0 -20 28t46 65q161 143 291 271q129 128 169 166t72 56q30 18 36 19q20 0 20 -26
q6 -143 16 -277t10 -207q0 -75 -18 -87t-43 -38q-26 -26 -41 -26t-16 36q0 152 -15 461q0 31 -21 31z" />
    <glyph glyph-name="Scedilla" unicode="&#x15e;" horiz-adv-x="1684" 
d="M236 379q0 -143 117 -254q118 -110 344 -110q225 0 381 72q156 73 266 203t110 309q0 87 -41 177t-159 238q-102 133 -156 235q-54 101 -54 235t59 267t149 238t187 159q207 115 410 115t307 -113q25 -35 25 -71q-62 -158 -92 -272q-20 -10 -36 16q15 31 15 77
q0 92 -89 174t-289 82t-328 -120t-128 -321q0 -154 72 -287q72 -132 148 -232t142 -189q65 -89 83 -170q58 -257 -175 -514q-234 -257 -588 -332q-4 -3 -28 -10t-74 -38q-97 -58 -97 -102q-1 -26 25 -41t57 -30q82 -40 82 -97t-67 -108q-77 -67 -222 -167q-145 -99 -193 -99
q-10 0 -25 10t-16 20q0 10 26 21q76 15 166 64t134 87q44 37 44 71t-27 54t-57 38t-56 39q-26 19 -25 53q0 34 59 93t187 123q3 1 5 3q-214 -25 -385 5q-171 31 -281 99q-20 13 -25 29q42 183 97 378q0 10 16 11q15 0 15 -26q-15 -46 -15 -92z" />
    <glyph glyph-name="scedilla" unicode="&#x15f;" horiz-adv-x="916" 
d="M190 66q72 -66 182 -66q112 0 175 36t99 87t35 128q0 77 -26 133q-27 56 -57 104t-60 100t-31 113t43 133t110 132q160 140 303 140q82 0 81 -51q-32 -55 -56 -118q-15 -26 -25 -5q-31 66 -115 66t-157 -41q-72 -41 -71 -122q0 -41 26 -82t68 -105q44 -64 80 -126
t35 -128q0 -226 -207 -353q-84 -51 -170 -69q-4 -4 -33 -13t-75 -38q-93 -57 -93 -100q-1 -26 25 -41q26 -14 57 -30q82 -41 82 -98q0 -56 -67 -108q-77 -66 -223 -166t-192 -100q-10 0 -25 10t-16 21q0 10 26 20q79 15 168 64q88 49 132 87t44 72t-26 54t-57 38t-57 38
t-25 54q0 62 136 151q55 36 85 51t35 18q-22 -2 -41 -2q-312 0 -343 210q81 47 108 82q10 0 15 -21q26 -93 98 -159z" />
    <glyph glyph-name="Scaron" unicode="&#x160;" horiz-adv-x="1684" 
d="M236 379q0 -143 117 -254q118 -110 344 -110q225 0 381 72q156 73 266 203t110 309q0 87 -41 177t-159 238q-102 133 -156 235q-54 101 -54 235t59 267t149 238t187 159q207 115 410 115t307 -113q25 -35 25 -71q-62 -158 -92 -272q-20 -10 -36 16q15 31 15 77
q0 92 -89 174t-289 82t-328 -120t-128 -321q0 -154 72 -287q72 -132 148 -232t142 -189q65 -89 83 -170q58 -257 -166 -504q-333 -367 -873 -369q-262 0 -445 87q-26 15 -47 28q-20 13 -25 29q42 183 97 378q0 10 16 11q15 0 15 -26q-15 -46 -15 -92zM2002 2662q10 0 26 16
q97 82 207 197t182 202q46 61 66 62q10 0 18 -13t8 -23q0 -31 -41 -62q-168 -142 -351 -325q-183 -182 -213 -182t-30 26q0 73 -18 246t-18 261q0 41 26 61q10 10 46 36t48 26t13 -36l5 -271l5 -190q0 -31 21 -31z" />
    <glyph glyph-name="scaron" unicode="&#x161;" horiz-adv-x="916" 
d="M190 66q72 -66 182 -66q112 0 175 36t99 87t35 128q0 77 -26 133q-27 56 -57 104t-60 100t-31 113t43 133t110 132q160 140 303 140q82 0 81 -51q-32 -55 -56 -118q-15 -26 -25 -5q-31 66 -115 66t-157 -41q-72 -41 -71 -122q0 -41 26 -82t68 -105q44 -64 80 -126
t35 -128q0 -226 -207 -353q-84 -51 -171 -69t-139 -18q-312 0 -343 210q81 47 108 82q10 0 15 -21q26 -93 98 -159zM1029 1536q11 0 67 48t166 164q110 115 182 203q46 61 66 61q10 0 18 -13t8 -23q0 -31 -41 -61q-162 -137 -347 -322t-216 -185t-31 26q0 72 -18 245
t-18 261q0 41 26 62q10 10 46 36t46 25q15 0 15 -35l6 -272l5 -189q0 -31 20 -31z" />
    <glyph glyph-name="Tcedilla" unicode="&#x162;" horiz-adv-x="2037" 
d="M932 148q0 83 77 200q375 611 661 1109q286 499 393 704q26 46 -25 46h-169q-277 0 -489 -26q-212 -25 -374 -107t-289 -238q-128 -156 -236 -418q-10 -20 -23 -12t-23 38q104 311 249 509q178 248 391 284q128 26 287 23t317 -2l594 -5h220q410 5 656 138q77 41 153 123
t77 179q0 25 -5 33t-5 23t15 16q5 0 16 -10q61 -67 92 -134q15 -20 15 -56t-20 -77q-87 -143 -259 -204q-233 -83 -601 -75q-97 3 -175 -2q-72 0 -107 -51q-466 -707 -973 -1629q-98 -185 -107 -297q0 -101 56 -146q82 -64 287 -64h61q36 0 62 6q15 -20 -16 -41
q-212 -24 -445 -15v-1q-38 -10 -91 -40q-99 -57 -99 -103q0 -26 26 -41t56 -31q83 -42 83 -97q-1 -56 -67 -108q-77 -67 -223 -167q-146 -99 -192 -99q-10 0 -26 10q-15 11 -15 21t26 20q72 14 163 63q92 50 136 88t44 72t-26 54q-27 20 -57 38q-30 19 -56 39t-26 54
q1 62 136 150q54 36 90 54l50 25q-270 0 -270 177z" />
    <glyph glyph-name="tcedilla" unicode="&#x163;" horiz-adv-x="1013" 
d="M328 -172q0 -23 26 -38q26 -14 56 -30q82 -41 82 -98q0 -56 -67 -107q-77 -67 -220 -165t-195 -102q-10 0 -25 10t-16 21q0 10 26 21q73 14 164 63t135 87t44 72t-26 54t-56 38t-56 38t-26 54t59 93t187 123q15 8 28 13q-68 5 -124 51t-58 163q0 206 364 794
q-249 -20 -256 -20q-26 0 -26 20q20 36 67 72l261 5q46 77 157 264t171 279q61 92 107 169q162 75 333 133q10 0 15 -13t-15 -23q-41 -11 -92 -39t-77 -69q-195 -271 -440 -701h634q15 -10 15 -20t-9 -16q-58 0 -316 -11t-365 -20q-142 -256 -220 -435t-77 -312
q0 -184 169 -185q145 0 409 159q15 15 31 -2q15 -18 -10 -29q-174 -113 -311 -159t-266 -54q-1 -1 -11 -4t-69 -31q-58 -28 -84 -59q-27 -31 -27 -54z" />
    <glyph glyph-name="Tcaron" unicode="&#x164;" horiz-adv-x="2037" 
d="M3379 2693q0 25 -5 33t-5 23t15 16q5 0 16 -10q61 -67 92 -134q15 -20 15 -56t-20 -77q-87 -143 -259 -204q-233 -83 -601 -75q-97 3 -175 -2q-72 0 -107 -51q-466 -707 -973 -1629q-98 -185 -107 -297q0 -101 56 -146q82 -64 287 -64h61q36 0 62 6q15 -20 -16 -41
q-230 -26 -540 -13q-148 6 -210 74q-33 36 -33 90q0 96 77 212q375 611 661 1109q286 499 393 704q26 46 -25 46h-169q-277 0 -489 -26q-212 -25 -374 -107t-289 -238q-128 -156 -236 -418q-10 -20 -23 -12t-23 38q104 311 249 509q178 248 391 284q128 26 287 23t317 -2
l594 -5h220q410 5 656 138q77 41 153 123t77 179zM2478 2611q10 0 26 16q97 82 207 197t182 202q46 61 66 61q10 -1 18 -13t8 -22q0 -31 -41 -62q-151 -127 -342 -317q-192 -190 -222 -190t-30 26q0 73 -18 246t-18 261q0 41 26 61q10 10 46 36t48 26t13 -36l5 -272l6 -189
q0 -31 20 -31z" />
    <glyph glyph-name="tcaron" unicode="&#x165;" horiz-adv-x="1182" 
d="M630 983q-249 -20 -256 -20q-26 0 -26 20q20 36 67 72l261 5q46 77 157 264t171 279q61 92 107 169q162 75 333 133q10 0 15 -13t-15 -23q-41 -11 -92 -39t-77 -69q-195 -271 -440 -701h634q15 -10 15 -20t-9 -16q-58 0 -316 -11t-365 -20q-142 -256 -220 -435t-77 -312
q0 -184 169 -185q145 0 409 159q15 15 31 -2q15 -18 -10 -29q-174 -113 -322 -163t-303 -52q-82 0 -143 49t-62 166q0 206 364 794zM1930 2086q0 -281 -310 -624q-84 -95 -171 -187q-20 -20 -38 -5t2 36q61 68 125 134t118 138q119 159 121 357q0 130 -46 197q-15 24 -31 34
t-16 36t108 133q15 15 31 15q31 0 69 -77t38 -187z" />
    <glyph glyph-name="Tbar" unicode="&#x166;" horiz-adv-x="2037" 
d="M1696 20q9 0 35 6q15 -20 -16 -41q-219 -25 -453 -16.5t-282 61t-48 106.5q0 93 90 234q211 334 401 669q-287 0 -384 -10t-109 -10t-15.5 9.5t27.5 33.5t138.5 29t378.5 5q313 527 604 1065q26 46 -25 46h-169q-276 0 -489 -25.5t-374 -107.5t-289 -238.5t-236 -417.5
q-10 -20 -23 -12.5t-23 38.5q163 488 342.5 630.5t302.5 165.5t282 20.5t317 -2.5l594 -5h220q410 5 656 138q77 41 153.5 123t76.5 179q0 25 -5 33t-5 23t15 16q5 0 16 -10q61 -67 92 -134q15 -20 15 -56t-20 -77q-87 -143 -289 -215.5t-435.5 -66.5t-310.5 1
q-72 0 -107 -51q-389 -599 -655 -1060h372q144 0 216 -5q26 0 16 -23.5t-80 -23.5h-32l-359 -5h-164q-77 -133 -149 -264t-128 -233q-108 -196 -117 -312q0 -101 68.5 -155.5t274.5 -54.5h88z" />
    <glyph glyph-name="tbar" unicode="&#x167;" horiz-adv-x="1013" 
d="M1464 1090.5q0 -10.5 -10 -15.5q-99 0 -234 -7.5t-227 -12.5t-169 -11q-36 -67 -69 -125.5t-64 -114.5h584q15 -10 15 -20.5t-10 -15.5q-143 0 -620 -31q-163 -326 -163 -491q0 -184 169 -185q148 0 409 159q15 15 30.5 -2.5t-9.5 -28.5q-174 -113 -322.5 -164
t-302.5 -51q-82 0 -143.5 49t-61.5 166q0 150 215 538q-244 -20 -251 -20q-26 0 -25 20q20 36 66 72l251 5q61 108 138 230l-286 -20q-26 0 -26 20q20 36 67 72l292 5q210 364 404 661q162 75 333 133q10 0 15 -13t-15 -23q-41 -10 -92.5 -38.5t-76.5 -69.5
q-180 -250 -410 -650h584q15 -10 15 -20.5z" />
    <glyph glyph-name="Utilde" unicode="&#x168;" horiz-adv-x="3159" 
d="M2903 0q157 0 387 115q44 23 48 23q26 0 31 -20t-21 -31q-148 -67 -304 -115t-320 -49q-338 0 -338 261q0 156 174 459q31 54 31 64q0 11 -5 13t-11 -8q-362 -407 -798 -610q-189 -86 -353 -122t-272 -36q-231 0 -381 97q-177 114 -177 328q0 154 90 320t197 338
q108 172 312 495t317 531q20 41 21 62q0 46 -77 46l-235 -5l-123 5q-41 1 -44 31q-2 30 44 30t161 -8q324 -23 584 16q121 18 159 18t38 -21q0 -15 -36 -25t-82 -23t-87 -59q-201 -253 -424 -608t-395 -667q-128 -225 -128 -405t102 -276q102 -97 312 -97q405 0 822 302
q460 331 789 926q169 306 268 496q98 191 139 257q80 128 158 158q62 24 188 56t148 32t28 -26t-20 -25q-57 -11 -108 -62q-285 -351 -614 -916q-419 -724 -415 -1029q0 -236 220 -236zM3072 2534q-72 0 -133 44t-115 98t-105 96q-51 44 -100 44q-80 0 -170 -83t-135 -153
q-26 -36 -46 -26q-40 21 133 185q77 71 147 125t130 54q61 0 115 -46q53 -46 107 -100t113 -100t136 -45q77 -1 131 71t53 154q0 26 23 38q23 13 23 -38q-15 -118 -102 -218t-205 -100z" />
    <glyph glyph-name="utilde" unicode="&#x169;" 
d="M205 133q1 85 67 230q117 253 368 687q26 51 46 51q36 0 74 -44t38 -59q0 -16 -56 -100q-226 -338 -340 -629q-33 -84 -33 -131q-1 -77 53 -77q54 -1 144 79t212 270q46 82 95 172t95 171q46 82 87 151t61 105q26 36 41 35q20 0 46 -44t26 -94q0 -51 -21 -87
q-61 -92 -130 -182q-69 -91 -128 -187q-141 -231 -141 -440q0 -113 107 -112q142 0 393 207t478 535q31 10 31 -26q-207 -292 -451 -506q-295 -260 -512 -262q-87 0 -136 46t-49 146t57 233q-31 -37 -69 -85t-87 -91q-111 -100 -231 -100q-136 0 -135 138zM1357 1510
q-72 0 -133 44q-62 44 -116 98t-104 96q-50 44 -100 44q-80 0 -170 -83t-135 -153q-26 -36 -46 -26t18 62q38 51 115 123q76 71 146 125t131 54t115 -46t108 -100t112 -100q60 -46 136 -45q76 -1 130 71t54 154q0 26 23 38q23 13 23 -38q-15 -118 -102 -218t-205 -100z" />
    <glyph glyph-name="Umacron" unicode="&#x16a;" horiz-adv-x="3159" 
d="M2903 0q157 0 387 115q44 23 48 23q26 0 31 -20t-21 -31q-148 -67 -304 -115t-320 -49q-338 0 -338 261q0 156 174 459q31 54 31 64q0 11 -5 13t-11 -8q-362 -407 -798 -610q-189 -86 -353 -122t-272 -36q-231 0 -381 97q-177 114 -177 328q0 154 90 320t197 338
q108 172 312 495t317 531q20 41 21 62q0 46 -77 46l-235 -5l-123 5q-41 1 -44 31q-2 30 44 30t161 -8q324 -23 584 16q121 18 159 18t38 -21q0 -15 -36 -25t-82 -23t-87 -59q-201 -253 -424 -608t-395 -667q-128 -225 -128 -405t102 -276q102 -97 312 -97q405 0 822 302
q460 331 789 926q169 306 268 496q98 191 139 257q80 128 158 158q62 24 188 56t148 32t28 -26t-20 -25q-57 -11 -108 -62q-285 -351 -614 -916q-419 -724 -415 -1029q0 -236 220 -236zM2964 2662l-450 -10l26 77l440 10z" />
    <glyph glyph-name="umacron" unicode="&#x16b;" 
d="M205 133q1 85 67 230q117 253 368 687q26 51 46 51q36 0 74 -44t38 -59q0 -16 -56 -100q-226 -338 -340 -629q-33 -84 -33 -131q-1 -77 53 -77q54 -1 144 79t212 270q46 82 95 172t95 171q46 82 87 151t61 105q26 36 41 35q20 0 46 -44t26 -94q0 -51 -21 -87
q-61 -92 -130 -182q-69 -91 -128 -187q-141 -231 -141 -440q0 -113 107 -112q142 0 393 207t478 535q31 10 31 -26q-207 -292 -451 -506q-295 -260 -512 -262q-87 0 -136 46t-49 146t57 233q-31 -37 -69 -85t-87 -91q-111 -100 -231 -100q-136 0 -135 138zM1352 1638
l-451 -10l26 77l440 10z" />
    <glyph glyph-name="Ubreve" unicode="&#x16c;" horiz-adv-x="3159" 
d="M2903 0q157 0 387 115q44 23 48 23q26 0 31 -20t-21 -31q-148 -67 -304 -115t-320 -49q-338 0 -338 261q0 156 174 459q31 54 31 64q0 11 -5 13t-11 -8q-362 -407 -798 -610q-189 -86 -353 -122t-272 -36q-231 0 -381 97q-177 114 -177 328q0 154 90 320t197 338
q108 172 312 495t317 531q20 41 21 62q0 46 -77 46l-235 -5l-123 5q-41 1 -44 31q-2 30 44 30t161 -8q324 -23 584 16q121 18 159 18t38 -21q0 -15 -36 -25t-82 -23t-87 -59q-201 -253 -424 -608t-395 -667q-128 -225 -128 -405t102 -276q102 -97 312 -97q405 0 822 302
q460 331 789 926q169 306 268 496q98 191 139 257q80 128 158 158q62 24 188 56t148 32t28 -26t-20 -25q-57 -11 -108 -62q-285 -351 -614 -916q-419 -724 -415 -1029q0 -236 220 -236zM3123 2821q10 -1 18 -11t8 -22t-13 -26q-13 -13 -28 -38q-88 -113 -190 -164t-202 -51
q-100 1 -172 67t-71 189q0 36 31 54t61 17q20 0 21 -30q0 -97 48 -162q49 -64 136 -64q181 0 297 180q35 61 56 61z" />
    <glyph glyph-name="ubreve" unicode="&#x16d;" 
d="M205 133q1 85 67 230q117 253 368 687q26 51 46 51q36 0 74 -44t38 -59q0 -16 -56 -100q-226 -338 -340 -629q-33 -84 -33 -131q-1 -77 53 -77q54 -1 144 79t212 270q46 82 95 172t95 171q46 82 87 151t61 105q26 36 41 35q20 0 46 -44t26 -94q0 -51 -21 -87
q-61 -92 -130 -182q-69 -91 -128 -187q-141 -231 -141 -440q0 -113 107 -112q142 0 393 207t478 535q31 10 31 -26q-207 -292 -451 -506q-295 -260 -512 -262q-87 0 -136 46t-49 146t57 233q-31 -37 -69 -85t-87 -91q-111 -100 -231 -100q-136 0 -135 138zM1587 1764
q0 -12 -13 -26q-13 -13 -28 -38q-87 -113 -189 -164q-103 -51 -203 -51q-100 1 -172 67t-71 189q0 36 31 54t62 17q20 0 20 -30q0 -98 49 -162t136 -64q180 0 296 180q35 61 57 61q10 0 18 -10q7 -11 7 -23z" />
    <glyph glyph-name="Uring" unicode="&#x16e;" horiz-adv-x="3159" 
d="M2903 0q157 0 387 115q44 23 48 23q26 0 31 -20t-21 -31q-148 -67 -304 -115t-320 -49q-338 0 -338 261q0 156 174 459q31 54 31 64q0 11 -5 13t-11 -8q-362 -407 -798 -610q-189 -86 -353 -122t-272 -36q-231 0 -381 97q-177 114 -177 328q0 154 90 320t197 338
q108 172 312 495t317 531q20 41 21 62q0 46 -77 46l-235 -5l-123 5q-41 1 -44 31q-2 30 44 30t161 -8q324 -23 584 16q121 18 159 18t38 -21q0 -15 -36 -25t-82 -23t-87 -59q-201 -253 -424 -608t-395 -667q-128 -225 -128 -405t102 -276q102 -97 312 -97q405 0 822 302
q460 331 789 926q169 306 268 496q98 191 139 257q80 128 158 158q62 24 188 56t148 32t28 -26t-20 -25q-57 -11 -108 -62q-285 -351 -614 -916q-419 -724 -415 -1029q0 -236 220 -236zM3036 2885q0 69 -41 125t-143 57q-148 0 -218 -95q-70 -96 -69 -200q0 -104 56 -158
q55 -54 133 -54t129 28t84 74t51 100t18 123zM3108 2877q0 -128 -95 -238t-274 -110q-109 1 -177 57t-68 170t84 216q103 126 279 126q251 -1 251 -221z" />
    <glyph glyph-name="uring" unicode="&#x16f;" 
d="M205 133q1 85 67 230q117 253 368 687q26 51 46 51q36 0 74 -44t38 -59q0 -16 -56 -100q-226 -338 -340 -629q-33 -84 -33 -131q-1 -77 53 -77q54 -1 144 79t212 270q46 82 95 172t95 171q46 82 87 151t61 105q26 36 41 35q20 0 46 -44t26 -94q0 -51 -21 -87
q-61 -92 -130 -182q-69 -91 -128 -187q-141 -231 -141 -440q0 -113 107 -112q142 0 393 207t478 535q31 10 31 -26q-207 -292 -451 -506q-295 -260 -512 -262q-87 0 -136 46t-49 146t57 233q-31 -37 -69 -85t-87 -91q-111 -100 -231 -100q-136 0 -135 138zM1490 1861
q0 69 -41 125t-143 57q-148 0 -218 -95q-70 -96 -69 -200q0 -104 56 -158t133 -54q138 0 210 99t72 226zM1562 1853q0 -128 -95 -238t-274 -110q-108 1 -177 57t-69 170t85 216q103 126 279 126q251 -1 251 -221z" />
    <glyph glyph-name="Uhungarumlaut" unicode="&#x170;" horiz-adv-x="3159" 
d="M2903 0q157 0 387 115q44 23 48 23q26 0 31 -20t-21 -31q-148 -67 -304 -115t-320 -49q-338 0 -338 261q0 156 174 459q31 54 31 64q0 11 -5 13t-11 -8q-362 -407 -798 -610q-189 -86 -353 -122t-272 -36q-231 0 -381 97q-177 114 -177 328q0 154 90 320t197 338
q108 172 312 495t317 531q20 41 21 62q0 46 -77 46l-235 -5l-123 5q-41 1 -44 31q-2 30 44 30t161 -8q324 -23 584 16q121 18 159 18t38 -21q0 -15 -36 -25t-82 -23t-87 -59q-201 -253 -424 -608t-395 -667q-128 -225 -128 -405t102 -276q102 -97 312 -97q405 0 822 302
q460 331 789 926q169 306 268 496q98 191 139 257q80 128 158 158q62 24 188 56t148 32t28 -26t-20 -25q-57 -11 -108 -62q-285 -351 -614 -916q-419 -724 -415 -1029q0 -236 220 -236zM2944 2908q0 -32 -56 -90q-124 -128 -359 -360q-10 -10 -18 -2t3 17q82 133 179 251
t190 240q10 15 25 16q36 0 36 -72zM3256 2898q0 -16 -8 -26t-22 -30q-239 -255 -379 -374q-26 -20 -23 -5q6 29 66 106t154 205q94 129 136 180q15 15 30 16q46 0 46 -72z" />
    <glyph glyph-name="uhungarumlaut" unicode="&#x171;" 
d="M205 133q1 85 67 230q117 253 368 687q26 51 46 51q36 0 74 -44t38 -59q0 -16 -56 -100q-226 -338 -340 -629q-33 -84 -33 -131q-1 -77 53 -77q54 -1 144 79t212 270q46 82 95 172t95 171q46 82 87 151t61 105q26 36 41 35q20 0 46 -44t26 -94q0 -51 -21 -87
q-61 -92 -130 -182q-69 -91 -128 -187q-141 -231 -141 -440q0 -113 107 -112q142 0 393 207t478 535q31 10 31 -26q-207 -292 -451 -506q-295 -260 -512 -262q-87 0 -136 46t-49 146t57 233q-31 -37 -69 -85t-87 -91q-111 -100 -231 -100q-136 0 -135 138zM1331 1884
q-1 -32 -57 -90q-124 -128 -358 -360q-10 -10 -18 -2t3 17q82 133 179 251t190 240q10 15 25 16q36 0 36 -72zM1644 1880q0 -20 -8 -32q-8 -10 -23 -30q-239 -255 -379 -374q-26 -20 -23 -5t15 35t57 77q44 56 138 185t146 194q15 16 35 16t32 -23q10 -23 10 -43z" />
    <glyph glyph-name="Uogonek" unicode="&#x172;" horiz-adv-x="3159" 
d="M2335 -443q0 152 402 366h-13q-338 0 -338 261q0 156 174 459q31 54 31 64q0 11 -5 13t-11 -8q-362 -407 -798 -610q-189 -86 -353 -122t-272 -36q-231 0 -381 97q-177 114 -177 328q0 154 90 320t197 338q108 172 312 495t317 531q20 41 21 62q0 46 -77 46l-235 -5
l-123 5q-41 1 -44 31q-2 30 44 30t161 -8q324 -23 584 16q121 18 159 18t38 -21q0 -15 -36 -25t-82 -23t-87 -59q-201 -253 -424 -608t-395 -667q-128 -225 -128 -405t102 -276q102 -97 312 -97q405 0 822 302q460 331 789 926q169 306 268 496q98 191 139 257
q80 128 158 158q62 24 188 56t148 32t28 -26t-20 -25q-57 -11 -108 -62q-285 -351 -614 -916q-419 -724 -415 -1029q0 -236 220 -236q157 0 387 115q44 23 48 23q26 0 31 -20t-21 -31q-319 -144 -549 -161q-119 -52 -210 -142t-91 -173q0 -82 52 -123q51 -41 123 -41l61 10
q15 0 10 -13t-65 -28t-143 -15t-142 41t-59 115z" />
    <glyph glyph-name="uogonek" unicode="&#x173;" 
d="M358 -524q0 160 429 379q-118 32 -116 181q0 102 56 235q-31 -37 -69 -85q-150 -191 -325 -191q-56 0 -92 33q-36 34 -36 90q1 101 67 245q117 253 368 687q26 51 46 51q36 0 74 -44t38 -59q0 -16 -56 -100q-226 -338 -340 -629q-33 -84 -33 -131q-1 -77 53 -77
q54 -1 144 79t212 270q46 82 95 172t95 171q46 82 87 151t61 105q26 36 41 35q20 0 46 -44t26 -94q0 -51 -21 -87q-61 -92 -130 -182q-69 -91 -128 -187q-141 -231 -141 -440q0 -113 107 -112q142 0 393 207t478 535q31 10 31 -26q-207 -292 -451 -506q-295 -260 -512 -262
q-13 0 -25 1q-124 -53 -216 -145t-92 -173q0 -82 51 -123t123 -41l62 10q15 -1 10 -13t-63 -28t-143 -15q-85 0 -145 41q-59 42 -59 116z" />
    <glyph glyph-name="Wcircumflex" unicode="&#x174;" horiz-adv-x="3860" 
d="M1249 2043q-1 72 -75 72q-74 -1 -148 -21t-110 -20t-38 20q-3 20 28 26q592 111 658 140q18 8 28 8q26 0 26 -20t-25 -43t-118 -249q-205 -482 -538 -1649q-15 -56 -3 -59t29 13q221 205 479 456q1064 1033 1522 1449q14 5 28 -10t3 -26q-59 -24 -73 -134
q-50 -406 -50 -1110q0 -236 5 -394t5 -226q0 -66 11 -66q15 0 31 20q92 114 202 244t261 311t403 468q252 286 576 617q325 331 450 444q125 114 230 190t238 76q43 0 109 -28q65 -28 70 -33q26 -26 -10 -36q-15 5 -33 5h-34q-160 0 -430 -184q-422 -290 -1126 -1075
q-137 -152 -477 -566q-339 -414 -450 -607q-26 -51 -85 -61q-155 -26 -227 -98q-46 0 -11 52q30 30 46 276q31 464 34 731q4 268 6 442t2 302q0 72 -36 71q-15 0 -52 -25q-108 -95 -325 -301t-396 -375q-598 -564 -1030 -1045l-30 -30t-31 -16q-122 0 -246 -61q-36 0 -15 46
q41 61 118 237t135 338q299 826 453 1358q36 120 36 156zM3190 2432q0 186 -16 461q0 31 -21 31t-176 -159q-156 -159 -243 -256q-46 -57 -66 -57t-20 28t45 65q183 162 301 280q119 119 160 157q42 38 72 56t35 19q20 0 21 -26q6 -143 16 -277t10 -207q0 -75 -18 -87
t-44 -38t-41 -26t-15 36z" />
    <glyph glyph-name="wcircumflex" unicode="&#x175;" horiz-adv-x="1930" 
d="M1331 922q0 72 -46 71q-26 0 -72 -41q-47 -41 -95 -123q-121 -204 -166 -501q205 164 292 325t87 269zM1705 746q0 130 -13 206t-95 87q-20 20 6 31q31 0 77 23t60 23q16 0 26 -13t44 -25q103 -38 270 -39q167 0 321 23t215 44q20 6 28 -10t-28 -26q-106 -32 -291 -59
q-185 -28 -280 -38t-151 -16q-41 -8 -41 -71q0 -261 -135 -561q-175 -389 -446 -520q-84 -41 -210 -41t-202 82q-77 82 -77 215q0 56 11 108q-97 -57 -215 -113t-231 -56q-61 0 -100 38q-38 38 -38 123q0 148 182 446q109 177 253 366q45 60 92 77q41 10 92 23t82 18
q20 0 21 -16q0 -10 -28 -20t-75 -57q-134 -142 -277 -425q-144 -283 -142 -414q0 -31 20 -57t51 -26t110 26t213 113q46 200 143 392t225 345q26 31 88 87t143 57q60 0 56 -72q0 -26 -18 -98q-41 -162 -228 -391q-97 -120 -261 -253q0 -178 52 -272q71 -128 204 -128
q134 0 226 84q175 161 240 495q31 155 31 285zM1659 1408q0 152 -15 461q0 31 -21 31t-177 -159t-243 -256q-46 -57 -66 -57q-21 0 -21 28t46 65q183 162 301 280q119 119 160 157t71 56t37 19q20 0 20 -26q5 -143 15 -277t11 -207q0 -75 -18 -87t-44 -38t-41 -26t-15 36z
" />
    <glyph glyph-name="Ycircumflex" unicode="&#x176;" horiz-adv-x="2053" 
d="M3750 2273h-69q-283 0 -924 -425q-279 -184 -555 -407q-554 -447 -692 -668q-128 -225 -230 -417t-138 -315q-6 -20 -16 -33q-10 -14 -69 -6t-118 8t-94 -26q-36 -26 -82 -56q-15 -4 -18 16t13 36q106 85 259 315t278 493q57 122 103 302t46 318q0 485 -300 640
q-110 56 -281 56t-291 -56t-214 -184q-15 -20 -41 -18t0 43q291 369 779 369q148 0 256 -59q209 -114 271 -384q31 -131 31 -253t-18 -238t-26 -164t-10 -67q-2 -18 10 -31t34 8q368 282 734 576t725 545q107 77 245 149t272 72q61 0 115 -49t74 -85q-1 -20 -21 -12t-38 7z
M2499 2432q0 131 -16 461q0 31 -21 31t-176 -159q-156 -159 -243 -256q-46 -56 -67 -57q-20 0 -20 28t46 65q161 143 291 271q129 128 170 166t71 56t36 19q20 0 21 -26q5 -143 15 -277t10 -207q0 -75 -18 -87t-43 -38q-26 -26 -41 -26t-15 36z" />
    </font>
</defs>
</svg>
